{
    "track_id": "20 Boss 8",
    "mood": "angry",
    "instruments": {
        "Lead 2 (sawtooth)": [
            {
                "start_time": 0.18409090909090908,
                "end_time": 0.33409090909090905,
                "pitch": 62,
                "velocity": 64,
                "duration": 0.14999999999999997,
                "tempo": 120.0
            },
            {
                "start_time": 0.36818181818181817,
                "end_time": 0.5113636363636364,
                "pitch": 63,
                "velocity": 64,
                "duration": 0.1431818181818182,
                "tempo": 120.0
            },
            {
                "start_time": 0.5431818181818182,
                "end_time": 0.6840909090909091,
                "pitch": 62,
                "velocity": 64,
                "duration": 0.14090909090909087,
                "tempo": 120.0
            },
            {
                "start_time": 0.7159090909090908,
                "end_time": 0.8659090909090909,
                "pitch": 65,
                "velocity": 64,
                "duration": 0.15000000000000002,
                "tempo": 120.0
            },
            {
                "start_time": 0.8999999999999999,
                "end_time": 1.05,
                "pitch": 62,
                "velocity": 64,
                "duration": 0.15000000000000013,
                "tempo": 120.0
            },
            {
                "start_time": 1.084090909090909,
                "end_time": 1.2340909090909091,
                "pitch": 62,
                "velocity": 64,
                "duration": 0.15000000000000013,
                "tempo": 120.0
            },
            {
                "start_time": 1.268181818181818,
                "end_time": 1.4181818181818182,
                "pitch": 69,
                "velocity": 64,
                "duration": 0.15000000000000013,
                "tempo": 120.0
            },
            {
                "start_time": 1.4522727272727272,
                "end_time": 1.5977272727272727,
                "pitch": 62,
                "velocity": 64,
                "duration": 0.1454545454545455,
                "tempo": 120.0
            },
            {
                "start_time": 1.6318181818181818,
                "end_time": 1.7772727272727271,
                "pitch": 62,
                "velocity": 64,
                "duration": 0.14545454545454528,
                "tempo": 120.0
            },
            {
                "start_time": 1.793181818181818,
                "end_time": 1.9363636363636363,
                "pitch": 63,
                "velocity": 64,
                "duration": 0.1431818181818183,
                "tempo": 120.0
            },
            {
                "start_time": 1.968181818181818,
                "end_time": 2.109090909090909,
                "pitch": 62,
                "velocity": 64,
                "duration": 0.14090909090909087,
                "tempo": 120.0
            },
            {
                "start_time": 2.1409090909090907,
                "end_time": 2.290909090909091,
                "pitch": 65,
                "velocity": 64,
                "duration": 0.15000000000000036,
                "tempo": 120.0
            },
            {
                "start_time": 2.3249999999999997,
                "end_time": 2.475,
                "pitch": 62,
                "velocity": 64,
                "duration": 0.15000000000000036,
                "tempo": 120.0
            },
            {
                "start_time": 2.509090909090909,
                "end_time": 2.8431818181818183,
                "pitch": 61,
                "velocity": 64,
                "duration": 0.33409090909090944,
                "tempo": 120.0
            },
            {
                "start_time": 2.877272727272727,
                "end_time": 3.0272727272727273,
                "pitch": 62,
                "velocity": 64,
                "duration": 0.15000000000000036,
                "tempo": 120.0
            },
            {
                "start_time": 3.061363636363636,
                "end_time": 3.2113636363636364,
                "pitch": 62,
                "velocity": 64,
                "duration": 0.15000000000000036,
                "tempo": 120.0
            },
            {
                "start_time": 3.243181818181818,
                "end_time": 3.3909090909090907,
                "pitch": 63,
                "velocity": 64,
                "duration": 0.14772727272727249,
                "tempo": 120.0
            },
            {
                "start_time": 3.4068181818181817,
                "end_time": 3.5704545454545453,
                "pitch": 62,
                "velocity": 64,
                "duration": 0.16363636363636358,
                "tempo": 120.0
            },
            {
                "start_time": 3.586363636363636,
                "end_time": 3.7318181818181815,
                "pitch": 65,
                "velocity": 64,
                "duration": 0.1454545454545455,
                "tempo": 120.0
            },
            {
                "start_time": 3.7659090909090907,
                "end_time": 3.911363636363636,
                "pitch": 62,
                "velocity": 64,
                "duration": 0.1454545454545455,
                "tempo": 120.0
            },
            {
                "start_time": 3.9454545454545453,
                "end_time": 4.090909090909091,
                "pitch": 62,
                "velocity": 64,
                "duration": 0.1454545454545455,
                "tempo": 120.0
            },
            {
                "start_time": 4.125,
                "end_time": 4.2704545454545455,
                "pitch": 69,
                "velocity": 64,
                "duration": 0.1454545454545455,
                "tempo": 120.0
            },
            {
                "start_time": 4.304545454545455,
                "end_time": 4.454545454545454,
                "pitch": 62,
                "velocity": 64,
                "duration": 0.14999999999999947,
                "tempo": 120.0
            },
            {
                "start_time": 4.486363636363636,
                "end_time": 4.636363636363636,
                "pitch": 62,
                "velocity": 64,
                "duration": 0.14999999999999947,
                "tempo": 120.0
            },
            {
                "start_time": 4.670454545454545,
                "end_time": 4.818181818181818,
                "pitch": 63,
                "velocity": 64,
                "duration": 0.14772727272727337,
                "tempo": 120.0
            },
            {
                "start_time": 4.85,
                "end_time": 4.995454545454545,
                "pitch": 62,
                "velocity": 64,
                "duration": 0.1454545454545455,
                "tempo": 120.0
            },
            {
                "start_time": 5.029545454545454,
                "end_time": 5.179545454545455,
                "pitch": 65,
                "velocity": 64,
                "duration": 0.15000000000000036,
                "tempo": 120.0
            },
            {
                "start_time": 5.195454545454545,
                "end_time": 5.345454545454545,
                "pitch": 62,
                "velocity": 64,
                "duration": 0.14999999999999947,
                "tempo": 120.0
            },
            {
                "start_time": 5.381818181818182,
                "end_time": 5.695454545454545,
                "pitch": 61,
                "velocity": 64,
                "duration": 0.3136363636363635,
                "tempo": 120.0
            },
            {
                "start_time": 5.7295454545454545,
                "end_time": 5.877272727272727,
                "pitch": 62,
                "velocity": 64,
                "duration": 0.14772727272727249,
                "tempo": 120.0
            },
            {
                "start_time": 5.911363636363636,
                "end_time": 6.0613636363636365,
                "pitch": 62,
                "velocity": 64,
                "duration": 0.15000000000000036,
                "tempo": 120.0
            },
            {
                "start_time": 6.095454545454545,
                "end_time": 6.245454545454545,
                "pitch": 63,
                "velocity": 64,
                "duration": 0.15000000000000036,
                "tempo": 120.0
            },
            {
                "start_time": 6.279545454545454,
                "end_time": 6.429545454545455,
                "pitch": 62,
                "velocity": 64,
                "duration": 0.15000000000000036,
                "tempo": 120.0
            },
            {
                "start_time": 6.463636363636363,
                "end_time": 6.6090909090909085,
                "pitch": 65,
                "velocity": 64,
                "duration": 0.1454545454545455,
                "tempo": 120.0
            },
            {
                "start_time": 6.643181818181818,
                "end_time": 6.788636363636363,
                "pitch": 62,
                "velocity": 64,
                "duration": 0.1454545454545455,
                "tempo": 120.0
            },
            {
                "start_time": 6.804545454545454,
                "end_time": 6.963636363636363,
                "pitch": 62,
                "velocity": 64,
                "duration": 0.15909090909090917,
                "tempo": 120.0
            },
            {
                "start_time": 6.9795454545454545,
                "end_time": 7.120454545454545,
                "pitch": 69,
                "velocity": 64,
                "duration": 0.14090909090909065,
                "tempo": 120.0
            },
            {
                "start_time": 7.152272727272727,
                "end_time": 7.302272727272727,
                "pitch": 62,
                "velocity": 64,
                "duration": 0.14999999999999947,
                "tempo": 120.0
            },
            {
                "start_time": 7.336363636363636,
                "end_time": 7.486363636363636,
                "pitch": 62,
                "velocity": 64,
                "duration": 0.15000000000000036,
                "tempo": 120.0
            },
            {
                "start_time": 7.5204545454545455,
                "end_time": 7.670454545454545,
                "pitch": 63,
                "velocity": 64,
                "duration": 0.14999999999999947,
                "tempo": 120.0
            },
            {
                "start_time": 7.704545454545454,
                "end_time": 7.8545454545454545,
                "pitch": 62,
                "velocity": 64,
                "duration": 0.15000000000000036,
                "tempo": 120.0
            },
            {
                "start_time": 7.888636363636364,
                "end_time": 8.038636363636364,
                "pitch": 65,
                "velocity": 64,
                "duration": 0.15000000000000036,
                "tempo": 120.0
            },
            {
                "start_time": 8.072727272727272,
                "end_time": 8.222727272727273,
                "pitch": 62,
                "velocity": 64,
                "duration": 0.15000000000000036,
                "tempo": 120.0
            },
            {
                "start_time": 8.256818181818181,
                "end_time": 8.581818181818182,
                "pitch": 61,
                "velocity": 64,
                "duration": 0.32500000000000107,
                "tempo": 120.0
            },
            {
                "start_time": 8.597727272727273,
                "end_time": 8.743181818181817,
                "pitch": 62,
                "velocity": 64,
                "duration": 0.14545454545454461,
                "tempo": 120.0
            },
            {
                "start_time": 8.777272727272727,
                "end_time": 8.922727272727272,
                "pitch": 62,
                "velocity": 64,
                "duration": 0.14545454545454461,
                "tempo": 120.0
            },
            {
                "start_time": 8.956818181818182,
                "end_time": 9.102272727272727,
                "pitch": 63,
                "velocity": 64,
                "duration": 0.14545454545454461,
                "tempo": 120.0
            },
            {
                "start_time": 9.136363636363637,
                "end_time": 9.281818181818181,
                "pitch": 62,
                "velocity": 64,
                "duration": 0.14545454545454461,
                "tempo": 120.0
            },
            {
                "start_time": 9.31590909090909,
                "end_time": 9.46590909090909,
                "pitch": 65,
                "velocity": 64,
                "duration": 0.15000000000000036,
                "tempo": 120.0
            },
            {
                "start_time": 9.497727272727273,
                "end_time": 9.647727272727272,
                "pitch": 62,
                "velocity": 64,
                "duration": 0.14999999999999858,
                "tempo": 120.0
            },
            {
                "start_time": 9.681818181818182,
                "end_time": 9.829545454545453,
                "pitch": 62,
                "velocity": 64,
                "duration": 0.1477272727272716,
                "tempo": 120.0
            },
            {
                "start_time": 9.861363636363636,
                "end_time": 10.009090909090908,
                "pitch": 69,
                "velocity": 64,
                "duration": 0.1477272727272716,
                "tempo": 120.0
            },
            {
                "start_time": 10.040909090909091,
                "end_time": 10.19090909090909,
                "pitch": 62,
                "velocity": 64,
                "duration": 0.14999999999999858,
                "tempo": 120.0
            },
            {
                "start_time": 10.206818181818182,
                "end_time": 10.35681818181818,
                "pitch": 62,
                "velocity": 64,
                "duration": 0.14999999999999858,
                "tempo": 120.0
            },
            {
                "start_time": 10.39090909090909,
                "end_time": 10.534090909090908,
                "pitch": 63,
                "velocity": 64,
                "duration": 0.14318181818181763,
                "tempo": 120.0
            },
            {
                "start_time": 10.56590909090909,
                "end_time": 10.706818181818182,
                "pitch": 62,
                "velocity": 64,
                "duration": 0.14090909090909243,
                "tempo": 120.0
            },
            {
                "start_time": 10.738636363636363,
                "end_time": 10.888636363636364,
                "pitch": 65,
                "velocity": 64,
                "duration": 0.15000000000000036,
                "tempo": 120.0
            },
            {
                "start_time": 10.922727272727272,
                "end_time": 11.072727272727272,
                "pitch": 62,
                "velocity": 64,
                "duration": 0.15000000000000036,
                "tempo": 120.0
            },
            {
                "start_time": 11.10681818181818,
                "end_time": 11.44090909090909,
                "pitch": 61,
                "velocity": 64,
                "duration": 0.334090909090909,
                "tempo": 120.0
            },
            {
                "start_time": 11.475,
                "end_time": 11.620454545454544,
                "pitch": 57,
                "velocity": 51,
                "duration": 0.14545454545454461,
                "tempo": 120.0
            },
            {
                "start_time": 11.654545454545454,
                "end_time": 11.799999999999999,
                "pitch": 60,
                "velocity": 51,
                "duration": 0.14545454545454461,
                "tempo": 120.0
            },
            {
                "start_time": 11.81590909090909,
                "end_time": 11.975,
                "pitch": 62,
                "velocity": 51,
                "duration": 0.15909090909091006,
                "tempo": 120.0
            },
            {
                "start_time": 11.99090909090909,
                "end_time": 12.131818181818181,
                "pitch": 63,
                "velocity": 51,
                "duration": 0.14090909090909065,
                "tempo": 120.0
            },
            {
                "start_time": 12.163636363636362,
                "end_time": 12.23181818181818,
                "pitch": 62,
                "velocity": 51,
                "duration": 0.06818181818181834,
                "tempo": 120.0
            },
            {
                "start_time": 12.263636363636364,
                "end_time": 12.313636363636363,
                "pitch": 63,
                "velocity": 51,
                "duration": 0.049999999999998934,
                "tempo": 120.0
            },
            {
                "start_time": 12.347727272727273,
                "end_time": 12.497727272727271,
                "pitch": 62,
                "velocity": 51,
                "duration": 0.14999999999999858,
                "tempo": 120.0
            },
            {
                "start_time": 12.531818181818181,
                "end_time": 12.681818181818182,
                "pitch": 60,
                "velocity": 51,
                "duration": 0.15000000000000036,
                "tempo": 120.0
            },
            {
                "start_time": 12.71590909090909,
                "end_time": 12.86590909090909,
                "pitch": 62,
                "velocity": 51,
                "duration": 0.15000000000000036,
                "tempo": 120.0
            },
            {
                "start_time": 12.899999999999999,
                "end_time": 12.947727272727272,
                "pitch": 57,
                "velocity": 51,
                "duration": 0.04772727272727373,
                "tempo": 120.0
            },
            {
                "start_time": 12.98181818181818,
                "end_time": 13.045454545454545,
                "pitch": 58,
                "velocity": 51,
                "duration": 0.06363636363636438,
                "tempo": 120.0
            },
            {
                "start_time": 13.079545454545453,
                "end_time": 13.225,
                "pitch": 57,
                "velocity": 51,
                "duration": 0.1454545454545464,
                "tempo": 120.0
            },
            {
                "start_time": 13.259090909090908,
                "end_time": 13.409090909090908,
                "pitch": 55,
                "velocity": 51,
                "duration": 0.15000000000000036,
                "tempo": 120.0
            },
            {
                "start_time": 13.44090909090909,
                "end_time": 13.59090909090909,
                "pitch": 57,
                "velocity": 51,
                "duration": 0.15000000000000036,
                "tempo": 120.0
            },
            {
                "start_time": 13.609090909090908,
                "end_time": 13.75,
                "pitch": 58,
                "velocity": 51,
                "duration": 0.14090909090909243,
                "tempo": 120.0
            },
            {
                "start_time": 13.781818181818181,
                "end_time": 13.924999999999999,
                "pitch": 60,
                "velocity": 51,
                "duration": 0.14318181818181763,
                "tempo": 120.0
            },
            {
                "start_time": 13.956818181818182,
                "end_time": 14.10681818181818,
                "pitch": 62,
                "velocity": 51,
                "duration": 0.14999999999999858,
                "tempo": 120.0
            },
            {
                "start_time": 14.14090909090909,
                "end_time": 14.290909090909091,
                "pitch": 63,
                "velocity": 51,
                "duration": 0.15000000000000036,
                "tempo": 120.0
            },
            {
                "start_time": 14.325,
                "end_time": 14.475,
                "pitch": 57,
                "velocity": 51,
                "duration": 0.15000000000000036,
                "tempo": 120.0
            },
            {
                "start_time": 14.506818181818181,
                "end_time": 14.656818181818181,
                "pitch": 60,
                "velocity": 51,
                "duration": 0.15000000000000036,
                "tempo": 120.0
            },
            {
                "start_time": 14.69090909090909,
                "end_time": 14.838636363636363,
                "pitch": 62,
                "velocity": 51,
                "duration": 0.14772727272727337,
                "tempo": 120.0
            },
            {
                "start_time": 14.870454545454544,
                "end_time": 15.018181818181818,
                "pitch": 63,
                "velocity": 51,
                "duration": 0.14772727272727337,
                "tempo": 120.0
            },
            {
                "start_time": 15.049999999999999,
                "end_time": 15.1,
                "pitch": 62,
                "velocity": 51,
                "duration": 0.05000000000000071,
                "tempo": 120.0
            },
            {
                "start_time": 15.134090909090908,
                "end_time": 15.2,
                "pitch": 63,
                "velocity": 51,
                "duration": 0.06590909090909136,
                "tempo": 120.0
            },
            {
                "start_time": 15.21590909090909,
                "end_time": 15.384090909090908,
                "pitch": 62,
                "velocity": 51,
                "duration": 0.168181818181818,
                "tempo": 120.0
            },
            {
                "start_time": 15.399999999999999,
                "end_time": 15.543181818181818,
                "pitch": 60,
                "velocity": 51,
                "duration": 0.1431818181818194,
                "tempo": 120.0
            },
            {
                "start_time": 15.575,
                "end_time": 15.718181818181817,
                "pitch": 62,
                "velocity": 51,
                "duration": 0.14318181818181763,
                "tempo": 120.0
            },
            {
                "start_time": 15.75,
                "end_time": 15.81590909090909,
                "pitch": 57,
                "velocity": 51,
                "duration": 0.06590909090908958,
                "tempo": 120.0
            },
            {
                "start_time": 15.85,
                "end_time": 15.897727272727272,
                "pitch": 58,
                "velocity": 51,
                "duration": 0.04772727272727195,
                "tempo": 120.0
            },
            {
                "start_time": 15.931818181818182,
                "end_time": 16.081818181818182,
                "pitch": 57,
                "velocity": 51,
                "duration": 0.15000000000000036,
                "tempo": 120.0
            },
            {
                "start_time": 16.11590909090909,
                "end_time": 16.26590909090909,
                "pitch": 55,
                "velocity": 51,
                "duration": 0.15000000000000213,
                "tempo": 120.0
            },
            {
                "start_time": 16.3,
                "end_time": 16.45,
                "pitch": 57,
                "velocity": 51,
                "duration": 0.14999999999999858,
                "tempo": 120.0
            },
            {
                "start_time": 16.48409090909091,
                "end_time": 16.629545454545454,
                "pitch": 58,
                "velocity": 51,
                "duration": 0.14545454545454461,
                "tempo": 120.0
            },
            {
                "start_time": 16.663636363636364,
                "end_time": 16.80909090909091,
                "pitch": 60,
                "velocity": 51,
                "duration": 0.14545454545454461,
                "tempo": 120.0
            },
            {
                "start_time": 16.825,
                "end_time": 16.98409090909091,
                "pitch": 62,
                "velocity": 51,
                "duration": 0.15909090909091006,
                "tempo": 120.0
            },
            {
                "start_time": 17.0,
                "end_time": 17.143181818181816,
                "pitch": 63,
                "velocity": 51,
                "duration": 0.14318181818181586,
                "tempo": 120.0
            },
            {
                "start_time": 17.175,
                "end_time": 17.325,
                "pitch": 57,
                "velocity": 51,
                "duration": 0.14999999999999858,
                "tempo": 120.0
            },
            {
                "start_time": 17.35681818181818,
                "end_time": 17.506818181818183,
                "pitch": 60,
                "velocity": 51,
                "duration": 0.15000000000000213,
                "tempo": 120.0
            },
            {
                "start_time": 17.54090909090909,
                "end_time": 17.69090909090909,
                "pitch": 62,
                "velocity": 51,
                "duration": 0.15000000000000213,
                "tempo": 120.0
            },
            {
                "start_time": 17.724999999999998,
                "end_time": 17.875,
                "pitch": 63,
                "velocity": 51,
                "duration": 0.15000000000000213,
                "tempo": 120.0
            },
            {
                "start_time": 17.909090909090907,
                "end_time": 17.956818181818182,
                "pitch": 62,
                "velocity": 51,
                "duration": 0.047727272727275505,
                "tempo": 120.0
            },
            {
                "start_time": 17.99090909090909,
                "end_time": 18.054545454545455,
                "pitch": 63,
                "velocity": 51,
                "duration": 0.06363636363636616,
                "tempo": 120.0
            },
            {
                "start_time": 18.08863636363636,
                "end_time": 18.23409090909091,
                "pitch": 62,
                "velocity": 51,
                "duration": 0.14545454545454817,
                "tempo": 120.0
            },
            {
                "start_time": 18.268181818181816,
                "end_time": 18.418181818181818,
                "pitch": 60,
                "velocity": 51,
                "duration": 0.15000000000000213,
                "tempo": 120.0
            },
            {
                "start_time": 18.45,
                "end_time": 18.599999999999998,
                "pitch": 62,
                "velocity": 51,
                "duration": 0.14999999999999858,
                "tempo": 120.0
            },
            {
                "start_time": 18.618181818181817,
                "end_time": 18.68181818181818,
                "pitch": 57,
                "velocity": 51,
                "duration": 0.0636363636363626,
                "tempo": 120.0
            },
            {
                "start_time": 18.71363636363636,
                "end_time": 18.761363636363637,
                "pitch": 58,
                "velocity": 51,
                "duration": 0.047727272727275505,
                "tempo": 120.0
            },
            {
                "start_time": 18.793181818181818,
                "end_time": 18.93409090909091,
                "pitch": 57,
                "velocity": 51,
                "duration": 0.14090909090909065,
                "tempo": 120.0
            },
            {
                "start_time": 18.96590909090909,
                "end_time": 19.11590909090909,
                "pitch": 55,
                "velocity": 51,
                "duration": 0.14999999999999858,
                "tempo": 120.0
            },
            {
                "start_time": 19.15,
                "end_time": 19.3,
                "pitch": 57,
                "velocity": 51,
                "duration": 0.15000000000000213,
                "tempo": 120.0
            },
            {
                "start_time": 19.334090909090907,
                "end_time": 19.48409090909091,
                "pitch": 58,
                "velocity": 51,
                "duration": 0.15000000000000213,
                "tempo": 120.0
            },
            {
                "start_time": 19.518181818181816,
                "end_time": 19.668181818181818,
                "pitch": 60,
                "velocity": 51,
                "duration": 0.15000000000000213,
                "tempo": 120.0
            },
            {
                "start_time": 19.7,
                "end_time": 19.847727272727273,
                "pitch": 62,
                "velocity": 51,
                "duration": 0.14772727272727337,
                "tempo": 120.0
            },
            {
                "start_time": 19.879545454545454,
                "end_time": 20.027272727272727,
                "pitch": 63,
                "velocity": 51,
                "duration": 0.14772727272727337,
                "tempo": 120.0
            },
            {
                "start_time": 20.05909090909091,
                "end_time": 20.209090909090907,
                "pitch": 57,
                "velocity": 51,
                "duration": 0.14999999999999858,
                "tempo": 120.0
            },
            {
                "start_time": 20.227272727272727,
                "end_time": 20.393181818181816,
                "pitch": 60,
                "velocity": 51,
                "duration": 0.16590909090908923,
                "tempo": 120.0
            },
            {
                "start_time": 20.409090909090907,
                "end_time": 20.552272727272726,
                "pitch": 62,
                "velocity": 51,
                "duration": 0.1431818181818194,
                "tempo": 120.0
            },
            {
                "start_time": 20.584090909090907,
                "end_time": 20.727272727272727,
                "pitch": 63,
                "velocity": 51,
                "duration": 0.1431818181818194,
                "tempo": 120.0
            },
            {
                "start_time": 20.759090909090908,
                "end_time": 20.825,
                "pitch": 62,
                "velocity": 51,
                "duration": 0.06590909090909136,
                "tempo": 120.0
            },
            {
                "start_time": 20.85909090909091,
                "end_time": 20.909090909090907,
                "pitch": 63,
                "velocity": 51,
                "duration": 0.04999999999999716,
                "tempo": 120.0
            },
            {
                "start_time": 20.94090909090909,
                "end_time": 21.09090909090909,
                "pitch": 62,
                "velocity": 51,
                "duration": 0.14999999999999858,
                "tempo": 120.0
            },
            {
                "start_time": 21.125,
                "end_time": 21.275,
                "pitch": 60,
                "velocity": 51,
                "duration": 0.14999999999999858,
                "tempo": 120.0
            },
            {
                "start_time": 21.30909090909091,
                "end_time": 21.459090909090907,
                "pitch": 62,
                "velocity": 51,
                "duration": 0.14999999999999858,
                "tempo": 120.0
            },
            {
                "start_time": 21.493181818181817,
                "end_time": 21.54090909090909,
                "pitch": 57,
                "velocity": 51,
                "duration": 0.04772727272727195,
                "tempo": 120.0
            },
            {
                "start_time": 21.575,
                "end_time": 21.638636363636362,
                "pitch": 58,
                "velocity": 51,
                "duration": 0.0636363636363626,
                "tempo": 120.0
            },
            {
                "start_time": 21.672727272727272,
                "end_time": 21.818181818181817,
                "pitch": 57,
                "velocity": 51,
                "duration": 0.14545454545454461,
                "tempo": 120.0
            },
            {
                "start_time": 21.852272727272727,
                "end_time": 22.002272727272725,
                "pitch": 55,
                "velocity": 51,
                "duration": 0.14999999999999858,
                "tempo": 120.0
            },
            {
                "start_time": 22.018181818181816,
                "end_time": 22.168181818181818,
                "pitch": 57,
                "velocity": 51,
                "duration": 0.15000000000000213,
                "tempo": 120.0
            },
            {
                "start_time": 22.202272727272724,
                "end_time": 22.345454545454544,
                "pitch": 58,
                "velocity": 51,
                "duration": 0.1431818181818194,
                "tempo": 120.0
            },
            {
                "start_time": 22.377272727272725,
                "end_time": 22.518181818181816,
                "pitch": 60,
                "velocity": 51,
                "duration": 0.14090909090909065,
                "tempo": 120.0
            },
            {
                "start_time": 22.549999999999997,
                "end_time": 22.7,
                "pitch": 62,
                "velocity": 51,
                "duration": 0.15000000000000213,
                "tempo": 120.0
            },
            {
                "start_time": 22.73409090909091,
                "end_time": 22.884090909090908,
                "pitch": 63,
                "velocity": 51,
                "duration": 0.14999999999999858,
                "tempo": 120.0
            },
            {
                "start_time": 22.918181818181818,
                "end_time": 23.068181818181817,
                "pitch": 58,
                "velocity": 51,
                "duration": 0.14999999999999858,
                "tempo": 120.0
            },
            {
                "start_time": 23.102272727272727,
                "end_time": 23.252272727272725,
                "pitch": 61,
                "velocity": 51,
                "duration": 0.14999999999999858,
                "tempo": 120.0
            },
            {
                "start_time": 23.284090909090907,
                "end_time": 23.43181818181818,
                "pitch": 64,
                "velocity": 51,
                "duration": 0.14772727272727337,
                "tempo": 120.0
            },
            {
                "start_time": 23.46363636363636,
                "end_time": 23.611363636363635,
                "pitch": 65,
                "velocity": 51,
                "duration": 0.14772727272727337,
                "tempo": 120.0
            },
            {
                "start_time": 23.627272727272725,
                "end_time": 23.69090909090909,
                "pitch": 64,
                "velocity": 51,
                "duration": 0.06363636363636616,
                "tempo": 120.0
            },
            {
                "start_time": 23.722727272727273,
                "end_time": 23.786363636363635,
                "pitch": 65,
                "velocity": 51,
                "duration": 0.0636363636363626,
                "tempo": 120.0
            },
            {
                "start_time": 23.802272727272726,
                "end_time": 23.943181818181817,
                "pitch": 64,
                "velocity": 51,
                "duration": 0.14090909090909065,
                "tempo": 120.0
            },
            {
                "start_time": 23.974999999999998,
                "end_time": 24.125,
                "pitch": 61,
                "velocity": 51,
                "duration": 0.15000000000000213,
                "tempo": 120.0
            },
            {
                "start_time": 24.159090909090907,
                "end_time": 24.30909090909091,
                "pitch": 64,
                "velocity": 51,
                "duration": 0.15000000000000213,
                "tempo": 120.0
            },
            {
                "start_time": 24.34318181818182,
                "end_time": 24.493181818181817,
                "pitch": 58,
                "velocity": 51,
                "duration": 0.14999999999999858,
                "tempo": 120.0
            },
            {
                "start_time": 24.527272727272727,
                "end_time": 24.677272727272726,
                "pitch": 61,
                "velocity": 51,
                "duration": 0.14999999999999858,
                "tempo": 120.0
            },
            {
                "start_time": 24.709090909090907,
                "end_time": 24.85681818181818,
                "pitch": 64,
                "velocity": 51,
                "duration": 0.14772727272727337,
                "tempo": 120.0
            },
            {
                "start_time": 24.888636363636362,
                "end_time": 25.036363636363635,
                "pitch": 65,
                "velocity": 51,
                "duration": 0.14772727272727337,
                "tempo": 120.0
            },
            {
                "start_time": 25.068181818181817,
                "end_time": 25.118181818181817,
                "pitch": 64,
                "velocity": 51,
                "duration": 0.05000000000000071,
                "tempo": 120.0
            },
            {
                "start_time": 25.152272727272727,
                "end_time": 25.21818181818182,
                "pitch": 65,
                "velocity": 51,
                "duration": 0.06590909090909136,
                "tempo": 120.0
            },
            {
                "start_time": 25.236363636363635,
                "end_time": 25.402272727272727,
                "pitch": 64,
                "velocity": 51,
                "duration": 0.16590909090909278,
                "tempo": 120.0
            },
            {
                "start_time": 25.420454545454543,
                "end_time": 25.561363636363634,
                "pitch": 61,
                "velocity": 51,
                "duration": 0.14090909090909065,
                "tempo": 120.0
            },
            {
                "start_time": 25.59318181818182,
                "end_time": 25.736363636363635,
                "pitch": 64,
                "velocity": 51,
                "duration": 0.14318181818181586,
                "tempo": 120.0
            },
            {
                "start_time": 25.768181818181816,
                "end_time": 25.918181818181818,
                "pitch": 58,
                "velocity": 51,
                "duration": 0.15000000000000213,
                "tempo": 120.0
            },
            {
                "start_time": 25.95,
                "end_time": 26.099999999999998,
                "pitch": 61,
                "velocity": 51,
                "duration": 0.14999999999999858,
                "tempo": 120.0
            },
            {
                "start_time": 26.134090909090908,
                "end_time": 26.284090909090907,
                "pitch": 64,
                "velocity": 51,
                "duration": 0.14999999999999858,
                "tempo": 120.0
            },
            {
                "start_time": 26.318181818181817,
                "end_time": 26.468181818181815,
                "pitch": 65,
                "velocity": 51,
                "duration": 0.14999999999999858,
                "tempo": 120.0
            },
            {
                "start_time": 26.502272727272725,
                "end_time": 26.549999999999997,
                "pitch": 64,
                "velocity": 51,
                "duration": 0.04772727272727195,
                "tempo": 120.0
            },
            {
                "start_time": 26.584090909090907,
                "end_time": 26.64772727272727,
                "pitch": 65,
                "velocity": 51,
                "duration": 0.0636363636363626,
                "tempo": 120.0
            },
            {
                "start_time": 26.68181818181818,
                "end_time": 26.827272727272724,
                "pitch": 64,
                "velocity": 51,
                "duration": 0.14545454545454461,
                "tempo": 120.0
            },
            {
                "start_time": 26.861363636363635,
                "end_time": 27.011363636363637,
                "pitch": 61,
                "velocity": 51,
                "duration": 0.15000000000000213,
                "tempo": 120.0
            },
            {
                "start_time": 27.027272727272727,
                "end_time": 27.177272727272726,
                "pitch": 64,
                "velocity": 51,
                "duration": 0.14999999999999858,
                "tempo": 120.0
            },
            {
                "start_time": 27.211363636363636,
                "end_time": 27.354545454545452,
                "pitch": 58,
                "velocity": 51,
                "duration": 0.14318181818181586,
                "tempo": 120.0
            },
            {
                "start_time": 27.386363636363637,
                "end_time": 27.527272727272727,
                "pitch": 61,
                "velocity": 51,
                "duration": 0.14090909090909065,
                "tempo": 120.0
            },
            {
                "start_time": 27.55909090909091,
                "end_time": 27.709090909090907,
                "pitch": 64,
                "velocity": 51,
                "duration": 0.14999999999999858,
                "tempo": 120.0
            },
            {
                "start_time": 27.743181818181817,
                "end_time": 27.893181818181816,
                "pitch": 65,
                "velocity": 51,
                "duration": 0.14999999999999858,
                "tempo": 120.0
            },
            {
                "start_time": 27.927272727272726,
                "end_time": 27.99090909090909,
                "pitch": 64,
                "velocity": 51,
                "duration": 0.0636363636363626,
                "tempo": 120.0
            },
            {
                "start_time": 28.009090909090908,
                "end_time": 28.07272727272727,
                "pitch": 65,
                "velocity": 51,
                "duration": 0.0636363636363626,
                "tempo": 120.0
            },
            {
                "start_time": 28.10681818181818,
                "end_time": 28.252272727272725,
                "pitch": 64,
                "velocity": 51,
                "duration": 0.14545454545454461,
                "tempo": 120.0
            },
            {
                "start_time": 28.286363636363635,
                "end_time": 28.436363636363634,
                "pitch": 61,
                "velocity": 51,
                "duration": 0.14999999999999858,
                "tempo": 120.0
            },
            {
                "start_time": 28.468181818181815,
                "end_time": 28.618181818181817,
                "pitch": 64,
                "velocity": 51,
                "duration": 0.15000000000000213,
                "tempo": 120.0
            },
            {
                "start_time": 28.636363636363637,
                "end_time": 28.793181818181818,
                "pitch": 58,
                "velocity": 51,
                "duration": 0.1568181818181813,
                "tempo": 120.0
            },
            {
                "start_time": 28.811363636363634,
                "end_time": 28.952272727272724,
                "pitch": 61,
                "velocity": 51,
                "duration": 0.14090909090909065,
                "tempo": 120.0
            },
            {
                "start_time": 28.98409090909091,
                "end_time": 29.134090909090908,
                "pitch": 64,
                "velocity": 51,
                "duration": 0.14999999999999858,
                "tempo": 120.0
            },
            {
                "start_time": 29.168181818181818,
                "end_time": 29.318181818181817,
                "pitch": 65,
                "velocity": 51,
                "duration": 0.14999999999999858,
                "tempo": 120.0
            },
            {
                "start_time": 29.352272727272727,
                "end_time": 29.418181818181818,
                "pitch": 64,
                "velocity": 51,
                "duration": 0.06590909090909136,
                "tempo": 120.0
            },
            {
                "start_time": 29.43409090909091,
                "end_time": 29.502272727272725,
                "pitch": 65,
                "velocity": 51,
                "duration": 0.06818181818181657,
                "tempo": 120.0
            },
            {
                "start_time": 29.534090909090907,
                "end_time": 29.686363636363634,
                "pitch": 64,
                "velocity": 51,
                "duration": 0.15227272727272734,
                "tempo": 120.0
            },
            {
                "start_time": 29.718181818181815,
                "end_time": 29.86590909090909,
                "pitch": 61,
                "velocity": 51,
                "duration": 0.14772727272727337,
                "tempo": 120.0
            },
            {
                "start_time": 29.89772727272727,
                "end_time": 30.045454545454543,
                "pitch": 64,
                "velocity": 51,
                "duration": 0.14772727272727337,
                "tempo": 120.0
            },
            {
                "start_time": 30.077272727272724,
                "end_time": 30.227272727272727,
                "pitch": 58,
                "velocity": 51,
                "duration": 0.15000000000000213,
                "tempo": 120.0
            },
            {
                "start_time": 30.261363636363633,
                "end_time": 30.411363636363635,
                "pitch": 61,
                "velocity": 51,
                "duration": 0.15000000000000213,
                "tempo": 120.0
            },
            {
                "start_time": 30.427272727272726,
                "end_time": 30.570454545454545,
                "pitch": 64,
                "velocity": 51,
                "duration": 0.1431818181818194,
                "tempo": 120.0
            },
            {
                "start_time": 30.602272727272727,
                "end_time": 30.745454545454542,
                "pitch": 65,
                "velocity": 51,
                "duration": 0.14318181818181586,
                "tempo": 120.0
            },
            {
                "start_time": 30.777272727272727,
                "end_time": 30.843181818181815,
                "pitch": 64,
                "velocity": 51,
                "duration": 0.06590909090908781,
                "tempo": 120.0
            },
            {
                "start_time": 30.877272727272725,
                "end_time": 30.927272727272726,
                "pitch": 65,
                "velocity": 51,
                "duration": 0.05000000000000071,
                "tempo": 120.0
            },
            {
                "start_time": 30.959090909090907,
                "end_time": 31.10909090909091,
                "pitch": 64,
                "velocity": 51,
                "duration": 0.15000000000000213,
                "tempo": 120.0
            },
            {
                "start_time": 31.143181818181816,
                "end_time": 31.293181818181818,
                "pitch": 61,
                "velocity": 51,
                "duration": 0.15000000000000213,
                "tempo": 120.0
            },
            {
                "start_time": 31.327272727272724,
                "end_time": 31.477272727272727,
                "pitch": 64,
                "velocity": 51,
                "duration": 0.15000000000000213,
                "tempo": 120.0
            },
            {
                "start_time": 31.511363636363633,
                "end_time": 31.661363636363635,
                "pitch": 58,
                "velocity": 51,
                "duration": 0.15000000000000213,
                "tempo": 120.0
            },
            {
                "start_time": 31.695454545454545,
                "end_time": 31.845454545454544,
                "pitch": 61,
                "velocity": 51,
                "duration": 0.14999999999999858,
                "tempo": 120.0
            },
            {
                "start_time": 31.877272727272725,
                "end_time": 32.025,
                "pitch": 64,
                "velocity": 51,
                "duration": 0.14772727272727337,
                "tempo": 120.0
            },
            {
                "start_time": 32.04090909090909,
                "end_time": 32.20454545454545,
                "pitch": 65,
                "velocity": 51,
                "duration": 0.16363636363636402,
                "tempo": 120.0
            },
            {
                "start_time": 32.220454545454544,
                "end_time": 32.28409090909091,
                "pitch": 64,
                "velocity": 51,
                "duration": 0.0636363636363626,
                "tempo": 120.0
            },
            {
                "start_time": 32.31590909090909,
                "end_time": 32.36363636363636,
                "pitch": 65,
                "velocity": 51,
                "duration": 0.04772727272727195,
                "tempo": 120.0
            },
            {
                "start_time": 32.39545454545454,
                "end_time": 32.53636363636363,
                "pitch": 64,
                "velocity": 51,
                "duration": 0.14090909090909065,
                "tempo": 120.0
            },
            {
                "start_time": 32.56818181818182,
                "end_time": 32.71818181818182,
                "pitch": 61,
                "velocity": 51,
                "duration": 0.14999999999999858,
                "tempo": 120.0
            },
            {
                "start_time": 32.752272727272725,
                "end_time": 32.902272727272724,
                "pitch": 64,
                "velocity": 51,
                "duration": 0.14999999999999858,
                "tempo": 120.0
            },
            {
                "start_time": 32.93636363636364,
                "end_time": 33.08181818181818,
                "pitch": 58,
                "velocity": 51,
                "duration": 0.14545454545454106,
                "tempo": 120.0
            },
            {
                "start_time": 33.11590909090909,
                "end_time": 33.26136363636363,
                "pitch": 61,
                "velocity": 51,
                "duration": 0.14545454545454106,
                "tempo": 120.0
            },
            {
                "start_time": 33.29545454545455,
                "end_time": 33.445454545454545,
                "pitch": 64,
                "velocity": 51,
                "duration": 0.14999999999999858,
                "tempo": 120.0
            },
            {
                "start_time": 33.47727272727273,
                "end_time": 33.627272727272725,
                "pitch": 65,
                "velocity": 51,
                "duration": 0.14999999999999858,
                "tempo": 120.0
            },
            {
                "start_time": 33.64545454545454,
                "end_time": 33.70909090909091,
                "pitch": 64,
                "velocity": 51,
                "duration": 0.06363636363636971,
                "tempo": 120.0
            },
            {
                "start_time": 33.74090909090909,
                "end_time": 33.804545454545455,
                "pitch": 65,
                "velocity": 51,
                "duration": 0.0636363636363626,
                "tempo": 120.0
            },
            {
                "start_time": 33.820454545454545,
                "end_time": 33.961363636363636,
                "pitch": 64,
                "velocity": 51,
                "duration": 0.14090909090909065,
                "tempo": 120.0
            },
            {
                "start_time": 33.99318181818182,
                "end_time": 34.143181818181816,
                "pitch": 61,
                "velocity": 51,
                "duration": 0.14999999999999858,
                "tempo": 120.0
            },
            {
                "start_time": 34.17727272727272,
                "end_time": 34.32727272727273,
                "pitch": 64,
                "velocity": 51,
                "duration": 0.15000000000000568,
                "tempo": 120.0
            },
            {
                "start_time": 34.361363636363635,
                "end_time": 34.42727272727272,
                "pitch": 59,
                "velocity": 51,
                "duration": 0.06590909090908781,
                "tempo": 120.0
            },
            {
                "start_time": 34.461363636363636,
                "end_time": 34.51136363636363,
                "pitch": 60,
                "velocity": 51,
                "duration": 0.04999999999999716,
                "tempo": 120.0
            },
            {
                "start_time": 34.54545454545455,
                "end_time": 34.695454545454545,
                "pitch": 59,
                "velocity": 51,
                "duration": 0.14999999999999858,
                "tempo": 120.0
            },
            {
                "start_time": 34.72727272727273,
                "end_time": 34.875,
                "pitch": 63,
                "velocity": 51,
                "duration": 0.14772727272727337,
                "tempo": 120.0
            },
            {
                "start_time": 34.90681818181818,
                "end_time": 35.054545454545455,
                "pitch": 64,
                "velocity": 51,
                "duration": 0.14772727272727337,
                "tempo": 120.0
            },
            {
                "start_time": 35.086363636363636,
                "end_time": 35.236363636363635,
                "pitch": 63,
                "velocity": 51,
                "duration": 0.14999999999999858,
                "tempo": 120.0
            },
            {
                "start_time": 35.27045454545454,
                "end_time": 35.42045454545455,
                "pitch": 60,
                "velocity": 51,
                "duration": 0.15000000000000568,
                "tempo": 120.0
            },
            {
                "start_time": 35.43863636363636,
                "end_time": 35.57954545454545,
                "pitch": 59,
                "velocity": 51,
                "duration": 0.14090909090909065,
                "tempo": 120.0
            },
            {
                "start_time": 35.611363636363635,
                "end_time": 35.75454545454545,
                "pitch": 60,
                "velocity": 51,
                "duration": 0.14318181818181586,
                "tempo": 120.0
            },
            {
                "start_time": 35.78636363636363,
                "end_time": 35.88409090909091,
                "pitch": 59,
                "velocity": 51,
                "duration": 0.09772727272727622,
                "tempo": 120.0
            },
            {
                "start_time": 35.9,
                "end_time": 35.99772727272727,
                "pitch": 60,
                "velocity": 51,
                "duration": 0.09772727272726911,
                "tempo": 120.0
            },
            {
                "start_time": 36.029545454545456,
                "end_time": 36.111363636363635,
                "pitch": 59,
                "velocity": 51,
                "duration": 0.08181818181817846,
                "tempo": 120.0
            },
            {
                "start_time": 36.14545454545454,
                "end_time": 36.22954545454545,
                "pitch": 57,
                "velocity": 51,
                "duration": 0.08409090909091077,
                "tempo": 120.0
            },
            {
                "start_time": 36.26363636363636,
                "end_time": 36.36818181818182,
                "pitch": 59,
                "velocity": 51,
                "duration": 0.10454545454545894,
                "tempo": 120.0
            },
            {
                "start_time": 36.402272727272724,
                "end_time": 36.48863636363636,
                "pitch": 60,
                "velocity": 51,
                "duration": 0.08636363636363598,
                "tempo": 120.0
            },
            {
                "start_time": 36.52272727272727,
                "end_time": 36.57272727272727,
                "pitch": 59,
                "velocity": 51,
                "duration": 0.04999999999999716,
                "tempo": 120.0
            },
            {
                "start_time": 36.60454545454545,
                "end_time": 36.67045454545455,
                "pitch": 60,
                "velocity": 51,
                "duration": 0.06590909090909491,
                "tempo": 120.0
            },
            {
                "start_time": 36.70227272727273,
                "end_time": 36.85,
                "pitch": 59,
                "velocity": 51,
                "duration": 0.14772727272727337,
                "tempo": 120.0
            },
            {
                "start_time": 36.88181818181818,
                "end_time": 37.03181818181818,
                "pitch": 57,
                "velocity": 51,
                "duration": 0.14999999999999858,
                "tempo": 120.0
            },
            {
                "start_time": 37.04772727272727,
                "end_time": 37.215909090909086,
                "pitch": 59,
                "velocity": 51,
                "duration": 0.16818181818181444,
                "tempo": 120.0
            },
            {
                "start_time": 37.23181818181818,
                "end_time": 37.29545454545455,
                "pitch": 59,
                "velocity": 51,
                "duration": 0.06363636363636971,
                "tempo": 120.0
            },
            {
                "start_time": 37.32727272727273,
                "end_time": 37.375,
                "pitch": 60,
                "velocity": 51,
                "duration": 0.04772727272727195,
                "tempo": 120.0
            },
            {
                "start_time": 37.40681818181818,
                "end_time": 37.54772727272727,
                "pitch": 59,
                "velocity": 51,
                "duration": 0.14090909090909065,
                "tempo": 120.0
            },
            {
                "start_time": 37.58181818181818,
                "end_time": 37.72954545454545,
                "pitch": 63,
                "velocity": 51,
                "duration": 0.14772727272727337,
                "tempo": 120.0
            },
            {
                "start_time": 37.76363636363636,
                "end_time": 37.913636363636364,
                "pitch": 64,
                "velocity": 51,
                "duration": 0.15000000000000568,
                "tempo": 120.0
            },
            {
                "start_time": 37.94772727272727,
                "end_time": 38.09772727272727,
                "pitch": 63,
                "velocity": 51,
                "duration": 0.14999999999999858,
                "tempo": 120.0
            },
            {
                "start_time": 38.13181818181818,
                "end_time": 38.28181818181818,
                "pitch": 60,
                "velocity": 51,
                "duration": 0.14999999999999858,
                "tempo": 120.0
            },
            {
                "start_time": 38.31590909090909,
                "end_time": 38.461363636363636,
                "pitch": 59,
                "velocity": 51,
                "duration": 0.14545454545454817,
                "tempo": 120.0
            },
            {
                "start_time": 38.49545454545454,
                "end_time": 38.64090909090909,
                "pitch": 60,
                "velocity": 51,
                "duration": 0.14545454545454817,
                "tempo": 120.0
            },
            {
                "start_time": 38.675,
                "end_time": 38.75681818181818,
                "pitch": 59,
                "velocity": 51,
                "duration": 0.08181818181818556,
                "tempo": 120.0
            },
            {
                "start_time": 38.79090909090909,
                "end_time": 38.875,
                "pitch": 60,
                "velocity": 51,
                "duration": 0.08409090909091077,
                "tempo": 120.0
            },
            {
                "start_time": 38.90681818181818,
                "end_time": 38.99090909090909,
                "pitch": 59,
                "velocity": 51,
                "duration": 0.08409090909091077,
                "tempo": 120.0
            },
            {
                "start_time": 39.025,
                "end_time": 39.12045454545454,
                "pitch": 57,
                "velocity": 51,
                "duration": 0.0954545454545439,
                "tempo": 120.0
            },
            {
                "start_time": 39.152272727272724,
                "end_time": 39.22954545454545,
                "pitch": 59,
                "velocity": 51,
                "duration": 0.07727272727272805,
                "tempo": 120.0
            },
            {
                "start_time": 39.26136363636363,
                "end_time": 39.340909090909086,
                "pitch": 60,
                "velocity": 51,
                "duration": 0.07954545454545325,
                "tempo": 120.0
            },
            {
                "start_time": 39.37272727272727,
                "end_time": 39.43863636363636,
                "pitch": 59,
                "velocity": 51,
                "duration": 0.06590909090909491,
                "tempo": 120.0
            },
            {
                "start_time": 39.47272727272727,
                "end_time": 39.52272727272727,
                "pitch": 60,
                "velocity": 51,
                "duration": 0.05000000000000426,
                "tempo": 120.0
            },
            {
                "start_time": 39.55681818181818,
                "end_time": 39.70681818181818,
                "pitch": 59,
                "velocity": 51,
                "duration": 0.14999999999999858,
                "tempo": 120.0
            },
            {
                "start_time": 39.74090909090909,
                "end_time": 39.88636363636363,
                "pitch": 57,
                "velocity": 51,
                "duration": 0.14545454545454106,
                "tempo": 120.0
            },
            {
                "start_time": 39.918181818181814,
                "end_time": 40.06590909090909,
                "pitch": 59,
                "velocity": 51,
                "duration": 0.14772727272727337,
                "tempo": 120.0
            },
            {
                "start_time": 40.1,
                "end_time": 40.14772727272727,
                "pitch": 59,
                "velocity": 51,
                "duration": 0.04772727272727195,
                "tempo": 120.0
            },
            {
                "start_time": 40.18181818181818,
                "end_time": 40.24772727272727,
                "pitch": 60,
                "velocity": 51,
                "duration": 0.06590909090908781,
                "tempo": 120.0
            },
            {
                "start_time": 40.28181818181818,
                "end_time": 40.43181818181818,
                "pitch": 59,
                "velocity": 51,
                "duration": 0.14999999999999858,
                "tempo": 120.0
            },
            {
                "start_time": 40.449999999999996,
                "end_time": 40.60681818181818,
                "pitch": 63,
                "velocity": 51,
                "duration": 0.1568181818181813,
                "tempo": 120.0
            },
            {
                "start_time": 40.62272727272727,
                "end_time": 40.76590909090909,
                "pitch": 64,
                "velocity": 51,
                "duration": 0.14318181818182296,
                "tempo": 120.0
            },
            {
                "start_time": 40.79772727272727,
                "end_time": 40.94772727272727,
                "pitch": 63,
                "velocity": 51,
                "duration": 0.14999999999999858,
                "tempo": 120.0
            },
            {
                "start_time": 40.98181818181818,
                "end_time": 41.13181818181818,
                "pitch": 60,
                "velocity": 51,
                "duration": 0.15000000000000568,
                "tempo": 120.0
            },
            {
                "start_time": 41.163636363636364,
                "end_time": 41.31136363636364,
                "pitch": 59,
                "velocity": 51,
                "duration": 0.14772727272727337,
                "tempo": 120.0
            },
            {
                "start_time": 41.34318181818182,
                "end_time": 41.49090909090909,
                "pitch": 60,
                "velocity": 51,
                "duration": 0.14772727272727337,
                "tempo": 120.0
            },
            {
                "start_time": 41.52272727272727,
                "end_time": 41.60681818181818,
                "pitch": 59,
                "velocity": 51,
                "duration": 0.08409090909090366,
                "tempo": 120.0
            },
            {
                "start_time": 41.64090909090909,
                "end_time": 41.74090909090909,
                "pitch": 60,
                "velocity": 51,
                "duration": 0.10000000000000142,
                "tempo": 120.0
            },
            {
                "start_time": 41.75681818181818,
                "end_time": 41.85681818181818,
                "pitch": 59,
                "velocity": 51,
                "duration": 0.09999999999999432,
                "tempo": 120.0
            },
            {
                "start_time": 41.89090909090909,
                "end_time": 41.97272727272727,
                "pitch": 57,
                "velocity": 51,
                "duration": 0.08181818181817846,
                "tempo": 120.0
            },
            {
                "start_time": 42.00681818181818,
                "end_time": 42.090909090909086,
                "pitch": 59,
                "velocity": 51,
                "duration": 0.08409090909090366,
                "tempo": 120.0
            },
            {
                "start_time": 42.125,
                "end_time": 42.225,
                "pitch": 60,
                "velocity": 51,
                "duration": 0.10000000000000142,
                "tempo": 120.0
            },
            {
                "start_time": 42.24090909090909,
                "end_time": 42.304545454545455,
                "pitch": 59,
                "velocity": 51,
                "duration": 0.0636363636363626,
                "tempo": 120.0
            },
            {
                "start_time": 42.336363636363636,
                "end_time": 42.38409090909091,
                "pitch": 60,
                "velocity": 51,
                "duration": 0.04772727272727195,
                "tempo": 120.0
            },
            {
                "start_time": 42.41590909090909,
                "end_time": 42.55681818181818,
                "pitch": 59,
                "velocity": 51,
                "duration": 0.14090909090909065,
                "tempo": 120.0
            },
            {
                "start_time": 42.58863636363636,
                "end_time": 42.73863636363636,
                "pitch": 57,
                "velocity": 51,
                "duration": 0.14999999999999858,
                "tempo": 120.0
            },
            {
                "start_time": 42.77272727272727,
                "end_time": 42.92272727272727,
                "pitch": 59,
                "velocity": 51,
                "duration": 0.14999999999999858,
                "tempo": 120.0
            },
            {
                "start_time": 42.95681818181818,
                "end_time": 43.02045454545454,
                "pitch": 59,
                "velocity": 51,
                "duration": 0.0636363636363626,
                "tempo": 120.0
            },
            {
                "start_time": 43.038636363636364,
                "end_time": 43.10227272727273,
                "pitch": 60,
                "velocity": 51,
                "duration": 0.0636363636363626,
                "tempo": 120.0
            },
            {
                "start_time": 43.13636363636363,
                "end_time": 43.28181818181818,
                "pitch": 59,
                "velocity": 51,
                "duration": 0.14545454545454817,
                "tempo": 120.0
            },
            {
                "start_time": 43.31590909090909,
                "end_time": 43.465909090909086,
                "pitch": 63,
                "velocity": 51,
                "duration": 0.14999999999999858,
                "tempo": 120.0
            },
            {
                "start_time": 43.49772727272727,
                "end_time": 43.65,
                "pitch": 64,
                "velocity": 51,
                "duration": 0.1522727272727309,
                "tempo": 120.0
            },
            {
                "start_time": 43.68181818181818,
                "end_time": 43.83181818181818,
                "pitch": 63,
                "velocity": 51,
                "duration": 0.14999999999999858,
                "tempo": 120.0
            },
            {
                "start_time": 43.85,
                "end_time": 44.0,
                "pitch": 60,
                "velocity": 51,
                "duration": 0.14999999999999858,
                "tempo": 120.0
            },
            {
                "start_time": 44.03409090909091,
                "end_time": 44.175,
                "pitch": 59,
                "velocity": 51,
                "duration": 0.14090909090909065,
                "tempo": 120.0
            },
            {
                "start_time": 44.20681818181818,
                "end_time": 44.349999999999994,
                "pitch": 60,
                "velocity": 51,
                "duration": 0.14318181818181586,
                "tempo": 120.0
            },
            {
                "start_time": 44.38181818181818,
                "end_time": 44.47954545454545,
                "pitch": 59,
                "velocity": 51,
                "duration": 0.09772727272726911,
                "tempo": 120.0
            },
            {
                "start_time": 44.49545454545454,
                "end_time": 44.59318181818182,
                "pitch": 60,
                "velocity": 51,
                "duration": 0.09772727272727622,
                "tempo": 120.0
            },
            {
                "start_time": 44.627272727272725,
                "end_time": 44.70681818181818,
                "pitch": 59,
                "velocity": 51,
                "duration": 0.07954545454545325,
                "tempo": 120.0
            },
            {
                "start_time": 44.74090909090909,
                "end_time": 44.82272727272727,
                "pitch": 57,
                "velocity": 51,
                "duration": 0.08181818181817846,
                "tempo": 120.0
            },
            {
                "start_time": 44.85681818181818,
                "end_time": 44.95681818181818,
                "pitch": 59,
                "velocity": 51,
                "duration": 0.10000000000000142,
                "tempo": 120.0
            },
            {
                "start_time": 44.974999999999994,
                "end_time": 45.074999999999996,
                "pitch": 60,
                "velocity": 51,
                "duration": 0.10000000000000142,
                "tempo": 120.0
            },
            {
                "start_time": 45.10681818181818,
                "end_time": 45.15681818181818,
                "pitch": 59,
                "velocity": 51,
                "duration": 0.05000000000000426,
                "tempo": 120.0
            },
            {
                "start_time": 45.19090909090909,
                "end_time": 45.25681818181818,
                "pitch": 60,
                "velocity": 51,
                "duration": 0.06590909090909491,
                "tempo": 120.0
            },
            {
                "start_time": 45.29090909090909,
                "end_time": 45.44090909090909,
                "pitch": 59,
                "velocity": 51,
                "duration": 0.14999999999999858,
                "tempo": 120.0
            },
            {
                "start_time": 45.459090909090904,
                "end_time": 45.61590909090909,
                "pitch": 57,
                "velocity": 51,
                "duration": 0.1568181818181884,
                "tempo": 120.0
            },
            {
                "start_time": 45.63181818181818,
                "end_time": 45.775,
                "pitch": 59,
                "velocity": 51,
                "duration": 0.14318181818181586,
                "tempo": 120.0
            },
            {
                "start_time": 45.80681818181818,
                "end_time": 45.95681818181818,
                "pitch": 57,
                "velocity": 51,
                "duration": 0.14999999999999858,
                "tempo": 120.0
            },
            {
                "start_time": 45.99090909090909,
                "end_time": 46.14090909090909,
                "pitch": 60,
                "velocity": 51,
                "duration": 0.14999999999999858,
                "tempo": 120.0
            },
            {
                "start_time": 46.17272727272727,
                "end_time": 46.320454545454545,
                "pitch": 62,
                "velocity": 51,
                "duration": 0.14772727272727337,
                "tempo": 120.0
            },
            {
                "start_time": 46.35227272727273,
                "end_time": 46.5,
                "pitch": 63,
                "velocity": 51,
                "duration": 0.14772727272727337,
                "tempo": 120.0
            },
            {
                "start_time": 46.53181818181818,
                "end_time": 46.58181818181818,
                "pitch": 62,
                "velocity": 51,
                "duration": 0.04999999999999716,
                "tempo": 120.0
            },
            {
                "start_time": 46.61590909090909,
                "end_time": 46.68181818181818,
                "pitch": 63,
                "velocity": 51,
                "duration": 0.06590909090908781,
                "tempo": 120.0
            },
            {
                "start_time": 46.715909090909086,
                "end_time": 46.86590909090909,
                "pitch": 62,
                "velocity": 51,
                "duration": 0.15000000000000568,
                "tempo": 120.0
            },
            {
                "start_time": 46.9,
                "end_time": 47.05,
                "pitch": 60,
                "velocity": 51,
                "duration": 0.14999999999999858,
                "tempo": 120.0
            },
            {
                "start_time": 47.084090909090904,
                "end_time": 47.23409090909091,
                "pitch": 62,
                "velocity": 51,
                "duration": 0.15000000000000568,
                "tempo": 120.0
            },
            {
                "start_time": 47.25,
                "end_time": 47.31363636363636,
                "pitch": 57,
                "velocity": 51,
                "duration": 0.0636363636363626,
                "tempo": 120.0
            },
            {
                "start_time": 47.345454545454544,
                "end_time": 47.393181818181816,
                "pitch": 58,
                "velocity": 51,
                "duration": 0.04772727272727195,
                "tempo": 120.0
            },
            {
                "start_time": 47.425,
                "end_time": 47.56590909090909,
                "pitch": 57,
                "velocity": 51,
                "duration": 0.14090909090909065,
                "tempo": 120.0
            },
            {
                "start_time": 47.599999999999994,
                "end_time": 47.74772727272727,
                "pitch": 55,
                "velocity": 51,
                "duration": 0.14772727272727337,
                "tempo": 120.0
            },
            {
                "start_time": 47.78181818181818,
                "end_time": 47.93181818181818,
                "pitch": 57,
                "velocity": 51,
                "duration": 0.14999999999999858,
                "tempo": 120.0
            },
            {
                "start_time": 47.965909090909086,
                "end_time": 48.111363636363635,
                "pitch": 58,
                "velocity": 51,
                "duration": 0.14545454545454817,
                "tempo": 120.0
            },
            {
                "start_time": 48.14545454545454,
                "end_time": 48.29090909090909,
                "pitch": 60,
                "velocity": 51,
                "duration": 0.14545454545454817,
                "tempo": 120.0
            },
            {
                "start_time": 48.324999999999996,
                "end_time": 48.474999999999994,
                "pitch": 62,
                "velocity": 51,
                "duration": 0.14999999999999858,
                "tempo": 120.0
            },
            {
                "start_time": 48.50909090909091,
                "end_time": 48.65909090909091,
                "pitch": 63,
                "velocity": 51,
                "duration": 0.14999999999999858,
                "tempo": 120.0
            },
            {
                "start_time": 48.69318181818181,
                "end_time": 48.840909090909086,
                "pitch": 57,
                "velocity": 51,
                "duration": 0.14772727272727337,
                "tempo": 120.0
            },
            {
                "start_time": 48.85909090909091,
                "end_time": 49.025,
                "pitch": 60,
                "velocity": 51,
                "duration": 0.16590909090908923,
                "tempo": 120.0
            },
            {
                "start_time": 49.043181818181814,
                "end_time": 49.184090909090905,
                "pitch": 62,
                "velocity": 51,
                "duration": 0.14090909090909065,
                "tempo": 120.0
            },
            {
                "start_time": 49.215909090909086,
                "end_time": 49.35909090909091,
                "pitch": 63,
                "velocity": 51,
                "duration": 0.14318181818182296,
                "tempo": 120.0
            },
            {
                "start_time": 49.39090909090909,
                "end_time": 49.45681818181818,
                "pitch": 62,
                "velocity": 51,
                "duration": 0.06590909090908781,
                "tempo": 120.0
            },
            {
                "start_time": 49.48863636363636,
                "end_time": 49.538636363636364,
                "pitch": 63,
                "velocity": 51,
                "duration": 0.05000000000000426,
                "tempo": 120.0
            },
            {
                "start_time": 49.570454545454545,
                "end_time": 49.715909090909086,
                "pitch": 62,
                "velocity": 51,
                "duration": 0.14545454545454106,
                "tempo": 120.0
            },
            {
                "start_time": 49.75,
                "end_time": 49.9,
                "pitch": 60,
                "velocity": 51,
                "duration": 0.14999999999999858,
                "tempo": 120.0
            },
            {
                "start_time": 49.934090909090905,
                "end_time": 50.084090909090904,
                "pitch": 62,
                "velocity": 51,
                "duration": 0.14999999999999858,
                "tempo": 120.0
            },
            {
                "start_time": 50.11818181818182,
                "end_time": 50.16590909090909,
                "pitch": 57,
                "velocity": 51,
                "duration": 0.04772727272727195,
                "tempo": 120.0
            },
            {
                "start_time": 50.199999999999996,
                "end_time": 50.268181818181816,
                "pitch": 58,
                "velocity": 51,
                "duration": 0.06818181818182012,
                "tempo": 120.0
            },
            {
                "start_time": 50.3,
                "end_time": 50.449999999999996,
                "pitch": 57,
                "velocity": 51,
                "duration": 0.14999999999999858,
                "tempo": 120.0
            },
            {
                "start_time": 50.46818181818182,
                "end_time": 50.625,
                "pitch": 55,
                "velocity": 51,
                "duration": 0.1568181818181813,
                "tempo": 120.0
            },
            {
                "start_time": 50.64090909090909,
                "end_time": 50.78409090909091,
                "pitch": 57,
                "velocity": 51,
                "duration": 0.14318181818181586,
                "tempo": 120.0
            },
            {
                "start_time": 50.81590909090909,
                "end_time": 50.965909090909086,
                "pitch": 58,
                "velocity": 51,
                "duration": 0.14999999999999858,
                "tempo": 120.0
            },
            {
                "start_time": 51.0,
                "end_time": 51.15,
                "pitch": 60,
                "velocity": 51,
                "duration": 0.14999999999999858,
                "tempo": 120.0
            },
            {
                "start_time": 51.184090909090905,
                "end_time": 51.32954545454545,
                "pitch": 62,
                "velocity": 51,
                "duration": 0.14545454545454817,
                "tempo": 120.0
            },
            {
                "start_time": 51.361363636363635,
                "end_time": 51.50909090909091,
                "pitch": 63,
                "velocity": 51,
                "duration": 0.14772727272727337,
                "tempo": 120.0
            },
            {
                "start_time": 51.543181818181814,
                "end_time": 51.695454545454545,
                "pitch": 57,
                "velocity": 51,
                "duration": 0.1522727272727309,
                "tempo": 120.0
            },
            {
                "start_time": 51.72954545454545,
                "end_time": 51.88636363636363,
                "pitch": 60,
                "velocity": 51,
                "duration": 0.1568181818181813,
                "tempo": 120.0
            },
            {
                "start_time": 51.92045454545454,
                "end_time": 52.06590909090909,
                "pitch": 62,
                "velocity": 51,
                "duration": 0.14545454545454817,
                "tempo": 120.0
            },
            {
                "start_time": 52.099999999999994,
                "end_time": 52.24545454545454,
                "pitch": 63,
                "velocity": 51,
                "duration": 0.14545454545454817,
                "tempo": 120.0
            },
            {
                "start_time": 52.26363636363636,
                "end_time": 52.324999999999996,
                "pitch": 62,
                "velocity": 51,
                "duration": 0.0613636363636374,
                "tempo": 120.0
            },
            {
                "start_time": 52.35681818181818,
                "end_time": 52.40454545454545,
                "pitch": 63,
                "velocity": 51,
                "duration": 0.04772727272727195,
                "tempo": 120.0
            },
            {
                "start_time": 52.43636363636363,
                "end_time": 52.57954545454545,
                "pitch": 62,
                "velocity": 51,
                "duration": 0.14318181818182296,
                "tempo": 120.0
            },
            {
                "start_time": 52.611363636363635,
                "end_time": 52.76136363636363,
                "pitch": 60,
                "velocity": 51,
                "duration": 0.14999999999999858,
                "tempo": 120.0
            },
            {
                "start_time": 52.793181818181814,
                "end_time": 52.945454545454545,
                "pitch": 62,
                "velocity": 51,
                "duration": 0.1522727272727309,
                "tempo": 120.0
            },
            {
                "start_time": 52.97727272727273,
                "end_time": 53.043181818181814,
                "pitch": 57,
                "velocity": 51,
                "duration": 0.06590909090908781,
                "tempo": 120.0
            },
            {
                "start_time": 53.059090909090905,
                "end_time": 53.125,
                "pitch": 58,
                "velocity": 51,
                "duration": 0.06590909090909491,
                "tempo": 120.0
            },
            {
                "start_time": 53.15681818181818,
                "end_time": 53.304545454545455,
                "pitch": 57,
                "velocity": 51,
                "duration": 0.14772727272727337,
                "tempo": 120.0
            },
            {
                "start_time": 53.336363636363636,
                "end_time": 53.486363636363635,
                "pitch": 55,
                "velocity": 51,
                "duration": 0.14999999999999858,
                "tempo": 120.0
            },
            {
                "start_time": 53.52045454545454,
                "end_time": 53.67045454545454,
                "pitch": 57,
                "velocity": 51,
                "duration": 0.14999999999999858,
                "tempo": 120.0
            },
            {
                "start_time": 53.70454545454545,
                "end_time": 53.849999999999994,
                "pitch": 58,
                "velocity": 51,
                "duration": 0.14545454545454106,
                "tempo": 120.0
            },
            {
                "start_time": 53.865909090909085,
                "end_time": 54.02954545454545,
                "pitch": 60,
                "velocity": 51,
                "duration": 0.16363636363636402,
                "tempo": 120.0
            },
            {
                "start_time": 54.04545454545454,
                "end_time": 54.19318181818181,
                "pitch": 62,
                "velocity": 51,
                "duration": 0.14772727272727337,
                "tempo": 120.0
            },
            {
                "start_time": 54.224999999999994,
                "end_time": 54.37272727272727,
                "pitch": 63,
                "velocity": 51,
                "duration": 0.14772727272727337,
                "tempo": 120.0
            },
            {
                "start_time": 54.40454545454545,
                "end_time": 54.554545454545455,
                "pitch": 57,
                "velocity": 51,
                "duration": 0.15000000000000568,
                "tempo": 120.0
            },
            {
                "start_time": 54.58863636363636,
                "end_time": 54.73863636363636,
                "pitch": 60,
                "velocity": 51,
                "duration": 0.14999999999999858,
                "tempo": 120.0
            },
            {
                "start_time": 54.77272727272727,
                "end_time": 54.918181818181814,
                "pitch": 62,
                "velocity": 51,
                "duration": 0.14545454545454106,
                "tempo": 120.0
            },
            {
                "start_time": 54.95227272727273,
                "end_time": 55.09772727272727,
                "pitch": 63,
                "velocity": 51,
                "duration": 0.14545454545454106,
                "tempo": 120.0
            },
            {
                "start_time": 55.12954545454545,
                "end_time": 55.179545454545455,
                "pitch": 62,
                "velocity": 51,
                "duration": 0.05000000000000426,
                "tempo": 120.0
            },
            {
                "start_time": 55.21363636363636,
                "end_time": 55.27954545454545,
                "pitch": 63,
                "velocity": 51,
                "duration": 0.06590909090908781,
                "tempo": 120.0
            },
            {
                "start_time": 55.31363636363636,
                "end_time": 55.46363636363636,
                "pitch": 62,
                "velocity": 51,
                "duration": 0.14999999999999858,
                "tempo": 120.0
            },
            {
                "start_time": 55.49772727272727,
                "end_time": 55.64772727272727,
                "pitch": 60,
                "velocity": 51,
                "duration": 0.15000000000000568,
                "tempo": 120.0
            },
            {
                "start_time": 55.66590909090909,
                "end_time": 55.81590909090909,
                "pitch": 62,
                "velocity": 51,
                "duration": 0.14999999999999858,
                "tempo": 120.0
            },
            {
                "start_time": 55.84772727272727,
                "end_time": 55.91136363636363,
                "pitch": 57,
                "velocity": 51,
                "duration": 0.0636363636363626,
                "tempo": 120.0
            },
            {
                "start_time": 55.94318181818181,
                "end_time": 55.990909090909085,
                "pitch": 58,
                "velocity": 51,
                "duration": 0.04772727272727195,
                "tempo": 120.0
            },
            {
                "start_time": 56.02272727272727,
                "end_time": 56.16590909090909,
                "pitch": 57,
                "velocity": 51,
                "duration": 0.14318181818181586,
                "tempo": 120.0
            },
            {
                "start_time": 56.19772727272727,
                "end_time": 56.34772727272727,
                "pitch": 55,
                "velocity": 51,
                "duration": 0.14999999999999858,
                "tempo": 120.0
            },
            {
                "start_time": 56.37954545454545,
                "end_time": 56.52954545454545,
                "pitch": 57,
                "velocity": 51,
                "duration": 0.14999999999999858,
                "tempo": 120.0
            },
            {
                "start_time": 56.56363636363636,
                "end_time": 56.711363636363636,
                "pitch": 58,
                "velocity": 51,
                "duration": 0.14772727272727337,
                "tempo": 120.0
            },
            {
                "start_time": 56.74318181818182,
                "end_time": 56.89090909090909,
                "pitch": 60,
                "velocity": 51,
                "duration": 0.14772727272727337,
                "tempo": 120.0
            },
            {
                "start_time": 56.92272727272727,
                "end_time": 57.07272727272727,
                "pitch": 62,
                "velocity": 51,
                "duration": 0.14999999999999858,
                "tempo": 120.0
            },
            {
                "start_time": 57.10681818181818,
                "end_time": 57.256818181818176,
                "pitch": 63,
                "velocity": 51,
                "duration": 0.14999999999999858,
                "tempo": 120.0
            },
            {
                "start_time": 57.275,
                "end_time": 57.43181818181818,
                "pitch": 57,
                "velocity": 51,
                "duration": 0.1568181818181813,
                "tempo": 120.0
            }
        ],
        "Violin": [
            {
                "start_time": 0.9681818181818181,
                "end_time": 1.2022727272727272,
                "pitch": 62,
                "velocity": 64,
                "duration": 0.23409090909090902,
                "tempo": 120.0
            },
            {
                "start_time": 1.2022727272727272,
                "end_time": 1.468181818181818,
                "pitch": 64,
                "velocity": 64,
                "duration": 0.2659090909090909,
                "tempo": 120.0
            },
            {
                "start_time": 1.468181818181818,
                "end_time": 1.7613636363636362,
                "pitch": 66,
                "velocity": 64,
                "duration": 0.2931818181818182,
                "tempo": 120.0
            },
            {
                "start_time": 1.7613636363636362,
                "end_time": 1.8886363636363634,
                "pitch": 68,
                "velocity": 64,
                "duration": 0.1272727272727272,
                "tempo": 120.0
            },
            {
                "start_time": 1.9227272727272726,
                "end_time": 2.143181818181818,
                "pitch": 62,
                "velocity": 64,
                "duration": 0.22045454545454546,
                "tempo": 120.0
            },
            {
                "start_time": 2.143181818181818,
                "end_time": 2.409090909090909,
                "pitch": 64,
                "velocity": 64,
                "duration": 0.2659090909090911,
                "tempo": 120.0
            },
            {
                "start_time": 2.409090909090909,
                "end_time": 2.709090909090909,
                "pitch": 66,
                "velocity": 64,
                "duration": 0.2999999999999998,
                "tempo": 120.0
            },
            {
                "start_time": 2.709090909090909,
                "end_time": 2.8431818181818183,
                "pitch": 68,
                "velocity": 64,
                "duration": 0.13409090909090926,
                "tempo": 120.0
            },
            {
                "start_time": 2.8795454545454544,
                "end_time": 3.1113636363636363,
                "pitch": 62,
                "velocity": 64,
                "duration": 0.23181818181818192,
                "tempo": 120.0
            },
            {
                "start_time": 3.1113636363636363,
                "end_time": 3.375,
                "pitch": 64,
                "velocity": 64,
                "duration": 0.26363636363636367,
                "tempo": 120.0
            },
            {
                "start_time": 3.375,
                "end_time": 3.668181818181818,
                "pitch": 66,
                "velocity": 64,
                "duration": 0.293181818181818,
                "tempo": 120.0
            },
            {
                "start_time": 3.668181818181818,
                "end_time": 3.7977272727272724,
                "pitch": 68,
                "velocity": 64,
                "duration": 0.1295454545454544,
                "tempo": 120.0
            },
            {
                "start_time": 3.8318181818181816,
                "end_time": 4.059090909090909,
                "pitch": 62,
                "velocity": 64,
                "duration": 0.22727272727272707,
                "tempo": 120.0
            },
            {
                "start_time": 4.059090909090909,
                "end_time": 4.320454545454545,
                "pitch": 64,
                "velocity": 64,
                "duration": 0.2613636363636367,
                "tempo": 120.0
            },
            {
                "start_time": 4.320454545454545,
                "end_time": 4.620454545454545,
                "pitch": 66,
                "velocity": 64,
                "duration": 0.2999999999999998,
                "tempo": 120.0
            },
            {
                "start_time": 4.620454545454545,
                "end_time": 4.752272727272727,
                "pitch": 68,
                "velocity": 64,
                "duration": 0.13181818181818183,
                "tempo": 120.0
            },
            {
                "start_time": 4.786363636363636,
                "end_time": 5.013636363636364,
                "pitch": 62,
                "velocity": 64,
                "duration": 0.22727272727272751,
                "tempo": 120.0
            },
            {
                "start_time": 5.013636363636364,
                "end_time": 5.279545454545454,
                "pitch": 64,
                "velocity": 64,
                "duration": 0.26590909090909065,
                "tempo": 120.0
            },
            {
                "start_time": 5.279545454545454,
                "end_time": 5.570454545454545,
                "pitch": 66,
                "velocity": 64,
                "duration": 0.290909090909091,
                "tempo": 120.0
            },
            {
                "start_time": 5.570454545454545,
                "end_time": 5.697727272727272,
                "pitch": 68,
                "velocity": 64,
                "duration": 0.12727272727272698,
                "tempo": 120.0
            },
            {
                "start_time": 5.7318181818181815,
                "end_time": 5.961363636363636,
                "pitch": 62,
                "velocity": 64,
                "duration": 0.2295454545454545,
                "tempo": 120.0
            },
            {
                "start_time": 5.961363636363636,
                "end_time": 6.2295454545454545,
                "pitch": 64,
                "velocity": 64,
                "duration": 0.2681818181818185,
                "tempo": 120.0
            },
            {
                "start_time": 6.2295454545454545,
                "end_time": 6.529545454545454,
                "pitch": 66,
                "velocity": 64,
                "duration": 0.2999999999999998,
                "tempo": 120.0
            },
            {
                "start_time": 6.529545454545454,
                "end_time": 6.659090909090909,
                "pitch": 68,
                "velocity": 64,
                "duration": 0.12954545454545485,
                "tempo": 120.0
            },
            {
                "start_time": 6.6931818181818175,
                "end_time": 6.915909090909091,
                "pitch": 62,
                "velocity": 64,
                "duration": 0.22272727272727355,
                "tempo": 120.0
            },
            {
                "start_time": 6.915909090909091,
                "end_time": 7.170454545454545,
                "pitch": 64,
                "velocity": 64,
                "duration": 0.25454545454545396,
                "tempo": 120.0
            },
            {
                "start_time": 7.170454545454545,
                "end_time": 7.470454545454545,
                "pitch": 66,
                "velocity": 64,
                "duration": 0.2999999999999998,
                "tempo": 120.0
            },
            {
                "start_time": 7.470454545454545,
                "end_time": 7.6045454545454545,
                "pitch": 68,
                "velocity": 64,
                "duration": 0.1340909090909097,
                "tempo": 120.0
            },
            {
                "start_time": 7.638636363636364,
                "end_time": 7.872727272727272,
                "pitch": 62,
                "velocity": 64,
                "duration": 0.23409090909090846,
                "tempo": 120.0
            },
            {
                "start_time": 7.872727272727272,
                "end_time": 8.138636363636364,
                "pitch": 64,
                "velocity": 64,
                "duration": 0.26590909090909154,
                "tempo": 120.0
            },
            {
                "start_time": 8.138636363636364,
                "end_time": 8.436363636363636,
                "pitch": 66,
                "velocity": 64,
                "duration": 0.29772727272727195,
                "tempo": 120.0
            },
            {
                "start_time": 8.436363636363636,
                "end_time": 8.581818181818182,
                "pitch": 68,
                "velocity": 64,
                "duration": 0.1454545454545464,
                "tempo": 120.0
            },
            {
                "start_time": 8.602272727272727,
                "end_time": 8.827272727272726,
                "pitch": 62,
                "velocity": 64,
                "duration": 0.22499999999999964,
                "tempo": 120.0
            },
            {
                "start_time": 8.827272727272726,
                "end_time": 9.086363636363636,
                "pitch": 64,
                "velocity": 64,
                "duration": 0.2590909090909097,
                "tempo": 120.0
            },
            {
                "start_time": 9.086363636363636,
                "end_time": 9.381818181818181,
                "pitch": 66,
                "velocity": 64,
                "duration": 0.29545454545454497,
                "tempo": 120.0
            },
            {
                "start_time": 9.381818181818181,
                "end_time": 9.531818181818181,
                "pitch": 68,
                "velocity": 64,
                "duration": 0.15000000000000036,
                "tempo": 120.0
            },
            {
                "start_time": 9.549999999999999,
                "end_time": 9.779545454545454,
                "pitch": 62,
                "velocity": 64,
                "duration": 0.22954545454545539,
                "tempo": 120.0
            },
            {
                "start_time": 9.779545454545454,
                "end_time": 10.043181818181818,
                "pitch": 64,
                "velocity": 64,
                "duration": 0.26363636363636367,
                "tempo": 120.0
            },
            {
                "start_time": 10.043181818181818,
                "end_time": 10.34090909090909,
                "pitch": 66,
                "velocity": 64,
                "duration": 0.29772727272727195,
                "tempo": 120.0
            },
            {
                "start_time": 10.34090909090909,
                "end_time": 10.486363636363636,
                "pitch": 68,
                "velocity": 64,
                "duration": 0.1454545454545464,
                "tempo": 120.0
            },
            {
                "start_time": 10.520454545454545,
                "end_time": 10.74090909090909,
                "pitch": 62,
                "velocity": 64,
                "duration": 0.22045454545454568,
                "tempo": 120.0
            },
            {
                "start_time": 10.74090909090909,
                "end_time": 11.006818181818181,
                "pitch": 64,
                "velocity": 64,
                "duration": 0.26590909090909065,
                "tempo": 120.0
            },
            {
                "start_time": 11.006818181818181,
                "end_time": 11.306818181818182,
                "pitch": 66,
                "velocity": 64,
                "duration": 0.3000000000000007,
                "tempo": 120.0
            },
            {
                "start_time": 11.306818181818182,
                "end_time": 11.44090909090909,
                "pitch": 68,
                "velocity": 64,
                "duration": 0.13409090909090793,
                "tempo": 120.0
            },
            {
                "start_time": 51.54772727272727,
                "end_time": 51.78181818181818,
                "pitch": 62,
                "velocity": 64,
                "duration": 0.23409090909090935,
                "tempo": 120.0
            },
            {
                "start_time": 51.78181818181818,
                "end_time": 52.05227272727272,
                "pitch": 64,
                "velocity": 64,
                "duration": 0.27045454545454106,
                "tempo": 120.0
            },
            {
                "start_time": 52.05227272727272,
                "end_time": 52.34318181818182,
                "pitch": 66,
                "velocity": 64,
                "duration": 0.29090909090909634,
                "tempo": 120.0
            },
            {
                "start_time": 52.34318181818182,
                "end_time": 52.46818181818182,
                "pitch": 68,
                "velocity": 64,
                "duration": 0.125,
                "tempo": 120.0
            },
            {
                "start_time": 52.502272727272725,
                "end_time": 52.72727272727273,
                "pitch": 62,
                "velocity": 64,
                "duration": 0.22500000000000142,
                "tempo": 120.0
            },
            {
                "start_time": 52.72727272727273,
                "end_time": 52.99545454545454,
                "pitch": 64,
                "velocity": 64,
                "duration": 0.26818181818181586,
                "tempo": 120.0
            },
            {
                "start_time": 52.99545454545454,
                "end_time": 53.288636363636364,
                "pitch": 66,
                "velocity": 64,
                "duration": 0.29318181818182154,
                "tempo": 120.0
            },
            {
                "start_time": 53.288636363636364,
                "end_time": 53.42045454545454,
                "pitch": 68,
                "velocity": 64,
                "duration": 0.13181818181817562,
                "tempo": 120.0
            },
            {
                "start_time": 53.45454545454545,
                "end_time": 53.68863636363636,
                "pitch": 62,
                "velocity": 64,
                "duration": 0.23409090909090935,
                "tempo": 120.0
            },
            {
                "start_time": 53.68863636363636,
                "end_time": 53.94772727272727,
                "pitch": 64,
                "velocity": 64,
                "duration": 0.25909090909090793,
                "tempo": 120.0
            },
            {
                "start_time": 53.94772727272727,
                "end_time": 54.24318181818182,
                "pitch": 66,
                "velocity": 64,
                "duration": 0.29545454545454675,
                "tempo": 120.0
            },
            {
                "start_time": 54.24318181818182,
                "end_time": 54.37272727272727,
                "pitch": 68,
                "velocity": 64,
                "duration": 0.1295454545454504,
                "tempo": 120.0
            },
            {
                "start_time": 54.40909090909091,
                "end_time": 54.63863636363636,
                "pitch": 62,
                "velocity": 64,
                "duration": 0.22954545454545183,
                "tempo": 120.0
            },
            {
                "start_time": 54.63863636363636,
                "end_time": 54.902272727272724,
                "pitch": 64,
                "velocity": 64,
                "duration": 0.26363636363636545,
                "tempo": 120.0
            },
            {
                "start_time": 54.902272727272724,
                "end_time": 55.19772727272727,
                "pitch": 66,
                "velocity": 64,
                "duration": 0.29545454545454675,
                "tempo": 120.0
            },
            {
                "start_time": 55.19772727272727,
                "end_time": 55.33181818181818,
                "pitch": 68,
                "velocity": 64,
                "duration": 0.13409090909090793,
                "tempo": 120.0
            },
            {
                "start_time": 55.365909090909085,
                "end_time": 55.59772727272727,
                "pitch": 62,
                "velocity": 64,
                "duration": 0.23181818181818414,
                "tempo": 120.0
            },
            {
                "start_time": 55.59772727272727,
                "end_time": 55.865909090909085,
                "pitch": 64,
                "velocity": 64,
                "duration": 0.26818181818181586,
                "tempo": 120.0
            },
            {
                "start_time": 55.865909090909085,
                "end_time": 56.15,
                "pitch": 66,
                "velocity": 64,
                "duration": 0.2840909090909136,
                "tempo": 120.0
            },
            {
                "start_time": 56.15,
                "end_time": 56.29772727272727,
                "pitch": 68,
                "velocity": 64,
                "duration": 0.14772727272727337,
                "tempo": 120.0
            },
            {
                "start_time": 56.31590909090909,
                "end_time": 56.54772727272727,
                "pitch": 62,
                "velocity": 64,
                "duration": 0.23181818181818414,
                "tempo": 120.0
            },
            {
                "start_time": 56.54772727272727,
                "end_time": 56.809090909090905,
                "pitch": 64,
                "velocity": 64,
                "duration": 0.26136363636363313,
                "tempo": 120.0
            },
            {
                "start_time": 56.809090909090905,
                "end_time": 57.10909090909091,
                "pitch": 66,
                "velocity": 64,
                "duration": 0.30000000000000426,
                "tempo": 120.0
            },
            {
                "start_time": 57.10909090909091,
                "end_time": 57.256818181818176,
                "pitch": 68,
                "velocity": 64,
                "duration": 0.14772727272726627,
                "tempo": 120.0
            }
        ],
        "Church Organ": [
            {
                "start_time": 11.477272727272727,
                "end_time": 12.134090909090908,
                "pitch": 57,
                "velocity": 80,
                "duration": 0.6568181818181813,
                "tempo": 120.0
            },
            {
                "start_time": 12.165909090909091,
                "end_time": 12.86590909090909,
                "pitch": 63,
                "velocity": 80,
                "duration": 0.6999999999999993,
                "tempo": 120.0
            },
            {
                "start_time": 12.899999999999999,
                "end_time": 13.225,
                "pitch": 59,
                "velocity": 80,
                "duration": 0.32500000000000107,
                "tempo": 120.0
            },
            {
                "start_time": 13.259090909090908,
                "end_time": 13.924999999999999,
                "pitch": 65,
                "velocity": 80,
                "duration": 0.665909090909091,
                "tempo": 120.0
            },
            {
                "start_time": 13.956818181818182,
                "end_time": 14.290909090909091,
                "pitch": 59,
                "velocity": 80,
                "duration": 0.334090909090909,
                "tempo": 120.0
            },
            {
                "start_time": 14.325,
                "end_time": 14.39090909090909,
                "pitch": 63,
                "velocity": 80,
                "duration": 0.06590909090909136,
                "tempo": 120.0
            },
            {
                "start_time": 14.406818181818181,
                "end_time": 14.475,
                "pitch": 63,
                "velocity": 64,
                "duration": 0.06818181818181834,
                "tempo": 120.0
            },
            {
                "start_time": 14.509090909090908,
                "end_time": 14.556818181818182,
                "pitch": 57,
                "velocity": 80,
                "duration": 0.04772727272727373,
                "tempo": 120.0
            },
            {
                "start_time": 14.59090909090909,
                "end_time": 14.659090909090908,
                "pitch": 57,
                "velocity": 64,
                "duration": 0.06818181818181834,
                "tempo": 120.0
            },
            {
                "start_time": 14.693181818181818,
                "end_time": 14.74090909090909,
                "pitch": 57,
                "velocity": 80,
                "duration": 0.04772727272727195,
                "tempo": 120.0
            },
            {
                "start_time": 14.772727272727272,
                "end_time": 14.838636363636363,
                "pitch": 57,
                "velocity": 64,
                "duration": 0.06590909090909136,
                "tempo": 120.0
            },
            {
                "start_time": 14.872727272727271,
                "end_time": 14.920454545454545,
                "pitch": 63,
                "velocity": 80,
                "duration": 0.04772727272727373,
                "tempo": 120.0
            },
            {
                "start_time": 14.952272727272726,
                "end_time": 15.018181818181818,
                "pitch": 63,
                "velocity": 64,
                "duration": 0.06590909090909136,
                "tempo": 120.0
            },
            {
                "start_time": 15.049999999999999,
                "end_time": 15.1,
                "pitch": 57,
                "velocity": 80,
                "duration": 0.05000000000000071,
                "tempo": 120.0
            },
            {
                "start_time": 15.134090909090908,
                "end_time": 15.2,
                "pitch": 57,
                "velocity": 64,
                "duration": 0.06590909090909136,
                "tempo": 120.0
            },
            {
                "start_time": 15.218181818181817,
                "end_time": 15.284090909090908,
                "pitch": 57,
                "velocity": 80,
                "duration": 0.06590909090909136,
                "tempo": 120.0
            },
            {
                "start_time": 15.318181818181817,
                "end_time": 15.384090909090908,
                "pitch": 57,
                "velocity": 64,
                "duration": 0.06590909090909136,
                "tempo": 120.0
            },
            {
                "start_time": 15.402272727272727,
                "end_time": 15.463636363636363,
                "pitch": 63,
                "velocity": 51,
                "duration": 0.06136363636363562,
                "tempo": 120.0
            },
            {
                "start_time": 15.495454545454544,
                "end_time": 15.543181818181818,
                "pitch": 63,
                "velocity": 40,
                "duration": 0.04772727272727373,
                "tempo": 120.0
            },
            {
                "start_time": 15.575,
                "end_time": 15.638636363636364,
                "pitch": 57,
                "velocity": 51,
                "duration": 0.06363636363636438,
                "tempo": 120.0
            },
            {
                "start_time": 15.670454545454545,
                "end_time": 15.718181818181817,
                "pitch": 57,
                "velocity": 40,
                "duration": 0.04772727272727195,
                "tempo": 120.0
            },
            {
                "start_time": 15.75,
                "end_time": 15.81590909090909,
                "pitch": 57,
                "velocity": 51,
                "duration": 0.06590909090908958,
                "tempo": 120.0
            },
            {
                "start_time": 15.85,
                "end_time": 15.899999999999999,
                "pitch": 57,
                "velocity": 40,
                "duration": 0.049999999999998934,
                "tempo": 120.0
            },
            {
                "start_time": 15.934090909090909,
                "end_time": 16.0,
                "pitch": 63,
                "velocity": 51,
                "duration": 0.06590909090909136,
                "tempo": 120.0
            },
            {
                "start_time": 16.01590909090909,
                "end_time": 16.081818181818182,
                "pitch": 63,
                "velocity": 40,
                "duration": 0.06590909090909136,
                "tempo": 120.0
            },
            {
                "start_time": 16.11590909090909,
                "end_time": 16.18181818181818,
                "pitch": 57,
                "velocity": 51,
                "duration": 0.06590909090909136,
                "tempo": 120.0
            },
            {
                "start_time": 16.2,
                "end_time": 16.26590909090909,
                "pitch": 57,
                "velocity": 40,
                "duration": 0.06590909090909136,
                "tempo": 120.0
            },
            {
                "start_time": 16.3,
                "end_time": 16.349999999999998,
                "pitch": 57,
                "velocity": 51,
                "duration": 0.04999999999999716,
                "tempo": 120.0
            },
            {
                "start_time": 16.384090909090908,
                "end_time": 16.45,
                "pitch": 57,
                "velocity": 40,
                "duration": 0.06590909090909136,
                "tempo": 120.0
            },
            {
                "start_time": 16.48409090909091,
                "end_time": 16.53181818181818,
                "pitch": 63,
                "velocity": 80,
                "duration": 0.04772727272727195,
                "tempo": 120.0
            },
            {
                "start_time": 16.56590909090909,
                "end_time": 16.629545454545454,
                "pitch": 63,
                "velocity": 64,
                "duration": 0.0636363636363626,
                "tempo": 120.0
            },
            {
                "start_time": 16.663636363636364,
                "end_time": 16.711363636363636,
                "pitch": 57,
                "velocity": 80,
                "duration": 0.04772727272727195,
                "tempo": 120.0
            },
            {
                "start_time": 16.745454545454546,
                "end_time": 16.80909090909091,
                "pitch": 57,
                "velocity": 64,
                "duration": 0.0636363636363626,
                "tempo": 120.0
            },
            {
                "start_time": 17.175,
                "end_time": 17.875,
                "pitch": 57,
                "velocity": 80,
                "duration": 0.6999999999999993,
                "tempo": 120.0
            },
            {
                "start_time": 17.909090909090907,
                "end_time": 18.602272727272727,
                "pitch": 63,
                "velocity": 80,
                "duration": 0.6931818181818201,
                "tempo": 120.0
            },
            {
                "start_time": 18.618181818181817,
                "end_time": 18.93409090909091,
                "pitch": 59,
                "velocity": 80,
                "duration": 0.31590909090909136,
                "tempo": 120.0
            },
            {
                "start_time": 18.96590909090909,
                "end_time": 19.668181818181818,
                "pitch": 65,
                "velocity": 80,
                "duration": 0.702272727272728,
                "tempo": 120.0
            },
            {
                "start_time": 19.702272727272728,
                "end_time": 20.027272727272727,
                "pitch": 59,
                "velocity": 80,
                "duration": 0.3249999999999993,
                "tempo": 120.0
            },
            {
                "start_time": 20.061363636363634,
                "end_time": 20.10909090909091,
                "pitch": 63,
                "velocity": 80,
                "duration": 0.047727272727275505,
                "tempo": 120.0
            },
            {
                "start_time": 20.143181818181816,
                "end_time": 20.209090909090907,
                "pitch": 63,
                "velocity": 64,
                "duration": 0.06590909090909136,
                "tempo": 120.0
            },
            {
                "start_time": 20.227272727272727,
                "end_time": 20.293181818181818,
                "pitch": 57,
                "velocity": 80,
                "duration": 0.06590909090909136,
                "tempo": 120.0
            },
            {
                "start_time": 20.327272727272728,
                "end_time": 20.393181818181816,
                "pitch": 57,
                "velocity": 64,
                "duration": 0.06590909090908781,
                "tempo": 120.0
            },
            {
                "start_time": 20.411363636363635,
                "end_time": 20.472727272727273,
                "pitch": 57,
                "velocity": 80,
                "duration": 0.0613636363636374,
                "tempo": 120.0
            },
            {
                "start_time": 20.504545454545454,
                "end_time": 20.552272727272726,
                "pitch": 57,
                "velocity": 64,
                "duration": 0.04772727272727195,
                "tempo": 120.0
            },
            {
                "start_time": 20.586363636363636,
                "end_time": 20.647727272727273,
                "pitch": 63,
                "velocity": 80,
                "duration": 0.0613636363636374,
                "tempo": 120.0
            },
            {
                "start_time": 20.679545454545455,
                "end_time": 20.727272727272727,
                "pitch": 63,
                "velocity": 64,
                "duration": 0.04772727272727195,
                "tempo": 120.0
            },
            {
                "start_time": 20.759090909090908,
                "end_time": 20.825,
                "pitch": 57,
                "velocity": 80,
                "duration": 0.06590909090909136,
                "tempo": 120.0
            },
            {
                "start_time": 20.85909090909091,
                "end_time": 20.909090909090907,
                "pitch": 57,
                "velocity": 64,
                "duration": 0.04999999999999716,
                "tempo": 120.0
            },
            {
                "start_time": 20.943181818181817,
                "end_time": 21.009090909090908,
                "pitch": 57,
                "velocity": 80,
                "duration": 0.06590909090909136,
                "tempo": 120.0
            },
            {
                "start_time": 21.025,
                "end_time": 21.09318181818182,
                "pitch": 57,
                "velocity": 64,
                "duration": 0.06818181818182012,
                "tempo": 120.0
            },
            {
                "start_time": 21.127272727272725,
                "end_time": 21.193181818181817,
                "pitch": 63,
                "velocity": 51,
                "duration": 0.06590909090909136,
                "tempo": 120.0
            },
            {
                "start_time": 21.209090909090907,
                "end_time": 21.275,
                "pitch": 63,
                "velocity": 40,
                "duration": 0.06590909090909136,
                "tempo": 120.0
            },
            {
                "start_time": 21.30909090909091,
                "end_time": 21.35909090909091,
                "pitch": 57,
                "velocity": 51,
                "duration": 0.05000000000000071,
                "tempo": 120.0
            },
            {
                "start_time": 21.393181818181816,
                "end_time": 21.459090909090907,
                "pitch": 57,
                "velocity": 40,
                "duration": 0.06590909090909136,
                "tempo": 120.0
            },
            {
                "start_time": 21.493181818181817,
                "end_time": 21.54090909090909,
                "pitch": 57,
                "velocity": 51,
                "duration": 0.04772727272727195,
                "tempo": 120.0
            },
            {
                "start_time": 21.575,
                "end_time": 21.638636363636362,
                "pitch": 57,
                "velocity": 40,
                "duration": 0.0636363636363626,
                "tempo": 120.0
            },
            {
                "start_time": 21.672727272727272,
                "end_time": 21.720454545454544,
                "pitch": 63,
                "velocity": 51,
                "duration": 0.04772727272727195,
                "tempo": 120.0
            },
            {
                "start_time": 21.754545454545454,
                "end_time": 21.818181818181817,
                "pitch": 63,
                "velocity": 40,
                "duration": 0.0636363636363626,
                "tempo": 120.0
            },
            {
                "start_time": 21.852272727272727,
                "end_time": 21.902272727272727,
                "pitch": 57,
                "velocity": 51,
                "duration": 0.05000000000000071,
                "tempo": 120.0
            },
            {
                "start_time": 21.93409090909091,
                "end_time": 22.002272727272725,
                "pitch": 57,
                "velocity": 40,
                "duration": 0.06818181818181657,
                "tempo": 120.0
            },
            {
                "start_time": 22.018181818181816,
                "end_time": 22.084090909090907,
                "pitch": 57,
                "velocity": 51,
                "duration": 0.06590909090909136,
                "tempo": 120.0
            },
            {
                "start_time": 22.118181818181817,
                "end_time": 22.168181818181818,
                "pitch": 57,
                "velocity": 40,
                "duration": 0.05000000000000071,
                "tempo": 120.0
            },
            {
                "start_time": 22.202272727272724,
                "end_time": 22.26590909090909,
                "pitch": 63,
                "velocity": 80,
                "duration": 0.06363636363636616,
                "tempo": 120.0
            },
            {
                "start_time": 22.297727272727272,
                "end_time": 22.345454545454544,
                "pitch": 63,
                "velocity": 64,
                "duration": 0.04772727272727195,
                "tempo": 120.0
            },
            {
                "start_time": 22.377272727272725,
                "end_time": 22.438636363636363,
                "pitch": 57,
                "velocity": 80,
                "duration": 0.0613636363636374,
                "tempo": 120.0
            },
            {
                "start_time": 22.470454545454544,
                "end_time": 22.518181818181816,
                "pitch": 57,
                "velocity": 64,
                "duration": 0.04772727272727195,
                "tempo": 120.0
            },
            {
                "start_time": 22.920454545454543,
                "end_time": 23.611363636363635,
                "pitch": 64,
                "velocity": 80,
                "duration": 0.6909090909090914,
                "tempo": 120.0
            },
            {
                "start_time": 23.627272727272725,
                "end_time": 24.30909090909091,
                "pitch": 58,
                "velocity": 80,
                "duration": 0.6818181818181834,
                "tempo": 120.0
            },
            {
                "start_time": 24.34318181818182,
                "end_time": 24.493181818181817,
                "pitch": 65,
                "velocity": 80,
                "duration": 0.14999999999999858,
                "tempo": 120.0
            },
            {
                "start_time": 24.527272727272727,
                "end_time": 24.677272727272726,
                "pitch": 64,
                "velocity": 80,
                "duration": 0.14999999999999858,
                "tempo": 120.0
            },
            {
                "start_time": 24.711363636363636,
                "end_time": 24.85681818181818,
                "pitch": 58,
                "velocity": 80,
                "duration": 0.14545454545454461,
                "tempo": 120.0
            },
            {
                "start_time": 24.89090909090909,
                "end_time": 25.036363636363635,
                "pitch": 65,
                "velocity": 80,
                "duration": 0.14545454545454461,
                "tempo": 120.0
            },
            {
                "start_time": 25.068181818181817,
                "end_time": 25.21818181818182,
                "pitch": 64,
                "velocity": 80,
                "duration": 0.15000000000000213,
                "tempo": 120.0
            },
            {
                "start_time": 25.236363636363635,
                "end_time": 25.402272727272727,
                "pitch": 58,
                "velocity": 80,
                "duration": 0.16590909090909278,
                "tempo": 120.0
            },
            {
                "start_time": 25.420454545454543,
                "end_time": 25.561363636363634,
                "pitch": 65,
                "velocity": 80,
                "duration": 0.14090909090909065,
                "tempo": 120.0
            },
            {
                "start_time": 25.59318181818182,
                "end_time": 25.736363636363635,
                "pitch": 64,
                "velocity": 80,
                "duration": 0.14318181818181586,
                "tempo": 120.0
            },
            {
                "start_time": 25.768181818181816,
                "end_time": 25.834090909090907,
                "pitch": 65,
                "velocity": 80,
                "duration": 0.06590909090909136,
                "tempo": 120.0
            },
            {
                "start_time": 25.868181818181817,
                "end_time": 25.918181818181818,
                "pitch": 66,
                "velocity": 80,
                "duration": 0.05000000000000071,
                "tempo": 120.0
            },
            {
                "start_time": 25.952272727272724,
                "end_time": 26.102272727272727,
                "pitch": 65,
                "velocity": 80,
                "duration": 0.15000000000000213,
                "tempo": 120.0
            },
            {
                "start_time": 26.136363636363637,
                "end_time": 26.284090909090907,
                "pitch": 68,
                "velocity": 80,
                "duration": 0.14772727272726982,
                "tempo": 120.0
            },
            {
                "start_time": 26.318181818181817,
                "end_time": 26.468181818181815,
                "pitch": 65,
                "velocity": 80,
                "duration": 0.14999999999999858,
                "tempo": 120.0
            },
            {
                "start_time": 26.502272727272725,
                "end_time": 26.65,
                "pitch": 64,
                "velocity": 80,
                "duration": 0.14772727272727337,
                "tempo": 120.0
            },
            {
                "start_time": 26.68181818181818,
                "end_time": 26.827272727272724,
                "pitch": 63,
                "velocity": 80,
                "duration": 0.14545454545454461,
                "tempo": 120.0
            },
            {
                "start_time": 26.861363636363635,
                "end_time": 27.011363636363637,
                "pitch": 64,
                "velocity": 80,
                "duration": 0.15000000000000213,
                "tempo": 120.0
            },
            {
                "start_time": 27.027272727272727,
                "end_time": 27.177272727272726,
                "pitch": 65,
                "velocity": 80,
                "duration": 0.14999999999999858,
                "tempo": 120.0
            },
            {
                "start_time": 27.211363636363636,
                "end_time": 27.893181818181816,
                "pitch": 64,
                "velocity": 80,
                "duration": 0.6818181818181799,
                "tempo": 120.0
            },
            {
                "start_time": 27.927272727272726,
                "end_time": 28.620454545454542,
                "pitch": 58,
                "velocity": 80,
                "duration": 0.6931818181818166,
                "tempo": 120.0
            },
            {
                "start_time": 28.636363636363637,
                "end_time": 29.318181818181817,
                "pitch": 64,
                "velocity": 80,
                "duration": 0.6818181818181799,
                "tempo": 120.0
            },
            {
                "start_time": 29.352272727272727,
                "end_time": 30.045454545454543,
                "pitch": 58,
                "velocity": 80,
                "duration": 0.6931818181818166,
                "tempo": 120.0
            },
            {
                "start_time": 30.077272727272724,
                "end_time": 30.227272727272727,
                "pitch": 65,
                "velocity": 80,
                "duration": 0.15000000000000213,
                "tempo": 120.0
            },
            {
                "start_time": 30.261363636363633,
                "end_time": 30.411363636363635,
                "pitch": 64,
                "velocity": 80,
                "duration": 0.15000000000000213,
                "tempo": 120.0
            },
            {
                "start_time": 30.429545454545455,
                "end_time": 30.570454545454545,
                "pitch": 58,
                "velocity": 80,
                "duration": 0.14090909090909065,
                "tempo": 120.0
            },
            {
                "start_time": 30.602272727272727,
                "end_time": 30.745454545454542,
                "pitch": 65,
                "velocity": 80,
                "duration": 0.14318181818181586,
                "tempo": 120.0
            },
            {
                "start_time": 30.777272727272727,
                "end_time": 30.927272727272726,
                "pitch": 64,
                "velocity": 80,
                "duration": 0.14999999999999858,
                "tempo": 120.0
            },
            {
                "start_time": 30.961363636363636,
                "end_time": 31.10909090909091,
                "pitch": 58,
                "velocity": 80,
                "duration": 0.14772727272727337,
                "tempo": 120.0
            },
            {
                "start_time": 31.143181818181816,
                "end_time": 31.293181818181818,
                "pitch": 65,
                "velocity": 80,
                "duration": 0.15000000000000213,
                "tempo": 120.0
            },
            {
                "start_time": 31.327272727272724,
                "end_time": 31.477272727272727,
                "pitch": 64,
                "velocity": 80,
                "duration": 0.15000000000000213,
                "tempo": 120.0
            },
            {
                "start_time": 31.511363636363633,
                "end_time": 31.561363636363634,
                "pitch": 65,
                "velocity": 80,
                "duration": 0.05000000000000071,
                "tempo": 120.0
            },
            {
                "start_time": 31.595454545454544,
                "end_time": 31.661363636363635,
                "pitch": 66,
                "velocity": 80,
                "duration": 0.06590909090909136,
                "tempo": 120.0
            },
            {
                "start_time": 31.695454545454545,
                "end_time": 31.845454545454544,
                "pitch": 65,
                "velocity": 80,
                "duration": 0.14999999999999858,
                "tempo": 120.0
            },
            {
                "start_time": 31.879545454545454,
                "end_time": 32.025,
                "pitch": 68,
                "velocity": 80,
                "duration": 0.14545454545454461,
                "tempo": 120.0
            },
            {
                "start_time": 32.04090909090909,
                "end_time": 32.20454545454545,
                "pitch": 65,
                "velocity": 80,
                "duration": 0.16363636363636402,
                "tempo": 120.0
            },
            {
                "start_time": 32.220454545454544,
                "end_time": 32.36363636363636,
                "pitch": 64,
                "velocity": 80,
                "duration": 0.14318181818181586,
                "tempo": 120.0
            },
            {
                "start_time": 32.39545454545454,
                "end_time": 32.53636363636363,
                "pitch": 63,
                "velocity": 80,
                "duration": 0.14090909090909065,
                "tempo": 120.0
            },
            {
                "start_time": 32.570454545454545,
                "end_time": 32.71818181818182,
                "pitch": 64,
                "velocity": 80,
                "duration": 0.14772727272727337,
                "tempo": 120.0
            },
            {
                "start_time": 32.752272727272725,
                "end_time": 32.902272727272724,
                "pitch": 65,
                "velocity": 80,
                "duration": 0.14999999999999858,
                "tempo": 120.0
            },
            {
                "start_time": 32.93636363636364,
                "end_time": 33.62954545454545,
                "pitch": 64,
                "velocity": 80,
                "duration": 0.693181818181813,
                "tempo": 120.0
            },
            {
                "start_time": 33.64545454545454,
                "end_time": 34.32727272727273,
                "pitch": 58,
                "velocity": 80,
                "duration": 0.681818181818187,
                "tempo": 120.0
            }
        ],
        "Trumpet": [
            {
                "start_time": 34.36590909090909,
                "end_time": 34.51136363636363,
                "pitch": 62,
                "velocity": 64,
                "duration": 0.14545454545454106,
                "tempo": 120.0
            },
            {
                "start_time": 34.90909090909091,
                "end_time": 35.054545454545455,
                "pitch": 62,
                "velocity": 64,
                "duration": 0.14545454545454817,
                "tempo": 120.0
            },
            {
                "start_time": 35.43863636363636,
                "end_time": 35.58181818181818,
                "pitch": 62,
                "velocity": 64,
                "duration": 0.14318181818181586,
                "tempo": 120.0
            },
            {
                "start_time": 35.965909090909086,
                "end_time": 36.11363636363636,
                "pitch": 62,
                "velocity": 64,
                "duration": 0.14772727272727337,
                "tempo": 120.0
            },
            {
                "start_time": 36.14545454545454,
                "end_time": 36.48863636363636,
                "pitch": 62,
                "velocity": 64,
                "duration": 0.3431818181818187,
                "tempo": 120.0
            },
            {
                "start_time": 36.525,
                "end_time": 36.752272727272725,
                "pitch": 62,
                "velocity": 64,
                "duration": 0.22727272727272663,
                "tempo": 120.0
            },
            {
                "start_time": 36.752272727272725,
                "end_time": 36.85,
                "pitch": 60,
                "velocity": 64,
                "duration": 0.09772727272727622,
                "tempo": 120.0
            },
            {
                "start_time": 37.236363636363635,
                "end_time": 37.375,
                "pitch": 62,
                "velocity": 64,
                "duration": 0.13863636363636545,
                "tempo": 120.0
            },
            {
                "start_time": 37.76590909090909,
                "end_time": 37.91590909090909,
                "pitch": 62,
                "velocity": 64,
                "duration": 0.14999999999999858,
                "tempo": 120.0
            },
            {
                "start_time": 38.31818181818181,
                "end_time": 38.46363636363636,
                "pitch": 62,
                "velocity": 64,
                "duration": 0.14545454545454817,
                "tempo": 120.0
            },
            {
                "start_time": 38.84318181818182,
                "end_time": 38.99090909090909,
                "pitch": 62,
                "velocity": 64,
                "duration": 0.14772727272727337,
                "tempo": 120.0
            },
            {
                "start_time": 39.027272727272724,
                "end_time": 39.340909090909086,
                "pitch": 62,
                "velocity": 64,
                "duration": 0.3136363636363626,
                "tempo": 120.0
            },
            {
                "start_time": 39.375,
                "end_time": 40.06590909090909,
                "pitch": 68,
                "velocity": 64,
                "duration": 0.6909090909090878,
                "tempo": 120.0
            },
            {
                "start_time": 40.10227272727273,
                "end_time": 40.25,
                "pitch": 62,
                "velocity": 64,
                "duration": 0.14772727272727337,
                "tempo": 120.0
            },
            {
                "start_time": 40.625,
                "end_time": 40.76590909090909,
                "pitch": 62,
                "velocity": 64,
                "duration": 0.14090909090909065,
                "tempo": 120.0
            },
            {
                "start_time": 41.16590909090909,
                "end_time": 41.31136363636364,
                "pitch": 62,
                "velocity": 64,
                "duration": 0.14545454545454817,
                "tempo": 120.0
            },
            {
                "start_time": 41.709090909090904,
                "end_time": 41.85681818181818,
                "pitch": 62,
                "velocity": 64,
                "duration": 0.14772727272727337,
                "tempo": 120.0
            },
            {
                "start_time": 41.893181818181816,
                "end_time": 42.225,
                "pitch": 62,
                "velocity": 64,
                "duration": 0.33181818181818556,
                "tempo": 120.0
            },
            {
                "start_time": 42.24318181818182,
                "end_time": 42.47954545454545,
                "pitch": 62,
                "velocity": 64,
                "duration": 0.23636363636363455,
                "tempo": 120.0
            },
            {
                "start_time": 42.47954545454545,
                "end_time": 42.559090909090905,
                "pitch": 60,
                "velocity": 64,
                "duration": 0.07954545454545325,
                "tempo": 120.0
            },
            {
                "start_time": 42.959090909090904,
                "end_time": 43.10454545454545,
                "pitch": 62,
                "velocity": 64,
                "duration": 0.14545454545454817,
                "tempo": 120.0
            },
            {
                "start_time": 43.5,
                "end_time": 43.65,
                "pitch": 62,
                "velocity": 64,
                "duration": 0.14999999999999858,
                "tempo": 120.0
            },
            {
                "start_time": 44.03636363636363,
                "end_time": 44.17727272727272,
                "pitch": 62,
                "velocity": 64,
                "duration": 0.14090909090909065,
                "tempo": 120.0
            },
            {
                "start_time": 44.56136363636364,
                "end_time": 44.709090909090904,
                "pitch": 62,
                "velocity": 64,
                "duration": 0.14772727272726627,
                "tempo": 120.0
            },
            {
                "start_time": 44.74318181818182,
                "end_time": 45.074999999999996,
                "pitch": 62,
                "velocity": 64,
                "duration": 0.33181818181817846,
                "tempo": 120.0
            },
            {
                "start_time": 45.10909090909091,
                "end_time": 45.775,
                "pitch": 68,
                "velocity": 64,
                "duration": 0.6659090909090892,
                "tempo": 120.0
            },
            {
                "start_time": 45.809090909090905,
                "end_time": 51.50909090909091,
                "pitch": 69,
                "velocity": 64,
                "duration": 5.700000000000003,
                "tempo": 120.0
            }
        ],
        "Acoustic Bass": [
            {
                "start_time": 0.006818181818181818,
                "end_time": 0.16818181818181818,
                "pitch": 26,
                "velocity": 51,
                "duration": 0.16136363636363638,
                "tempo": 120.0
            },
            {
                "start_time": 0.18636363636363634,
                "end_time": 0.33636363636363636,
                "pitch": 26,
                "velocity": 51,
                "duration": 0.15000000000000002,
                "tempo": 120.0
            },
            {
                "start_time": 0.3704545454545454,
                "end_time": 0.5113636363636364,
                "pitch": 38,
                "velocity": 51,
                "duration": 0.14090909090909093,
                "tempo": 120.0
            },
            {
                "start_time": 0.5431818181818182,
                "end_time": 0.6863636363636363,
                "pitch": 26,
                "velocity": 51,
                "duration": 0.14318181818181808,
                "tempo": 120.0
            },
            {
                "start_time": 0.7181818181818181,
                "end_time": 0.8681818181818182,
                "pitch": 26,
                "velocity": 51,
                "duration": 0.15000000000000002,
                "tempo": 120.0
            },
            {
                "start_time": 0.9022727272727272,
                "end_time": 1.05,
                "pitch": 26,
                "velocity": 51,
                "duration": 0.14772727272727282,
                "tempo": 120.0
            },
            {
                "start_time": 1.084090909090909,
                "end_time": 1.2340909090909091,
                "pitch": 38,
                "velocity": 51,
                "duration": 0.15000000000000013,
                "tempo": 120.0
            },
            {
                "start_time": 1.268181818181818,
                "end_time": 1.4181818181818182,
                "pitch": 26,
                "velocity": 51,
                "duration": 0.15000000000000013,
                "tempo": 120.0
            },
            {
                "start_time": 1.4522727272727272,
                "end_time": 1.5977272727272727,
                "pitch": 26,
                "velocity": 51,
                "duration": 0.1454545454545455,
                "tempo": 120.0
            },
            {
                "start_time": 1.6318181818181818,
                "end_time": 1.7772727272727271,
                "pitch": 26,
                "velocity": 51,
                "duration": 0.14545454545454528,
                "tempo": 120.0
            },
            {
                "start_time": 1.7954545454545454,
                "end_time": 1.9363636363636363,
                "pitch": 38,
                "velocity": 51,
                "duration": 0.14090909090909087,
                "tempo": 120.0
            },
            {
                "start_time": 1.968181818181818,
                "end_time": 2.1113636363636363,
                "pitch": 26,
                "velocity": 51,
                "duration": 0.1431818181818183,
                "tempo": 120.0
            },
            {
                "start_time": 2.143181818181818,
                "end_time": 2.293181818181818,
                "pitch": 26,
                "velocity": 51,
                "duration": 0.1499999999999999,
                "tempo": 120.0
            },
            {
                "start_time": 2.327272727272727,
                "end_time": 2.475,
                "pitch": 26,
                "velocity": 51,
                "duration": 0.14772727272727293,
                "tempo": 120.0
            },
            {
                "start_time": 2.5113636363636362,
                "end_time": 2.659090909090909,
                "pitch": 38,
                "velocity": 51,
                "duration": 0.14772727272727293,
                "tempo": 120.0
            },
            {
                "start_time": 2.693181818181818,
                "end_time": 2.8431818181818183,
                "pitch": 26,
                "velocity": 51,
                "duration": 0.15000000000000036,
                "tempo": 120.0
            },
            {
                "start_time": 2.8795454545454544,
                "end_time": 3.0272727272727273,
                "pitch": 26,
                "velocity": 51,
                "duration": 0.14772727272727293,
                "tempo": 120.0
            },
            {
                "start_time": 3.061363636363636,
                "end_time": 3.2113636363636364,
                "pitch": 26,
                "velocity": 51,
                "duration": 0.15000000000000036,
                "tempo": 120.0
            },
            {
                "start_time": 3.245454545454545,
                "end_time": 3.3909090909090907,
                "pitch": 38,
                "velocity": 51,
                "duration": 0.1454545454545455,
                "tempo": 120.0
            },
            {
                "start_time": 3.4090909090909087,
                "end_time": 3.5704545454545453,
                "pitch": 26,
                "velocity": 51,
                "duration": 0.1613636363636366,
                "tempo": 120.0
            },
            {
                "start_time": 3.586363636363636,
                "end_time": 3.734090909090909,
                "pitch": 26,
                "velocity": 51,
                "duration": 0.14772727272727293,
                "tempo": 120.0
            },
            {
                "start_time": 3.7659090909090907,
                "end_time": 3.9136363636363636,
                "pitch": 26,
                "velocity": 51,
                "duration": 0.14772727272727293,
                "tempo": 120.0
            },
            {
                "start_time": 3.9454545454545453,
                "end_time": 4.090909090909091,
                "pitch": 38,
                "velocity": 51,
                "duration": 0.1454545454545455,
                "tempo": 120.0
            },
            {
                "start_time": 4.125,
                "end_time": 4.2704545454545455,
                "pitch": 26,
                "velocity": 51,
                "duration": 0.1454545454545455,
                "tempo": 120.0
            },
            {
                "start_time": 4.304545454545455,
                "end_time": 4.454545454545454,
                "pitch": 26,
                "velocity": 51,
                "duration": 0.14999999999999947,
                "tempo": 120.0
            },
            {
                "start_time": 4.488636363636363,
                "end_time": 4.638636363636364,
                "pitch": 26,
                "velocity": 51,
                "duration": 0.15000000000000036,
                "tempo": 120.0
            },
            {
                "start_time": 4.672727272727273,
                "end_time": 4.818181818181818,
                "pitch": 38,
                "velocity": 51,
                "duration": 0.1454545454545455,
                "tempo": 120.0
            },
            {
                "start_time": 4.85,
                "end_time": 4.997727272727272,
                "pitch": 26,
                "velocity": 51,
                "duration": 0.14772727272727249,
                "tempo": 120.0
            },
            {
                "start_time": 5.029545454545454,
                "end_time": 5.179545454545455,
                "pitch": 26,
                "velocity": 51,
                "duration": 0.15000000000000036,
                "tempo": 120.0
            },
            {
                "start_time": 5.197727272727272,
                "end_time": 5.347727272727273,
                "pitch": 26,
                "velocity": 51,
                "duration": 0.15000000000000036,
                "tempo": 120.0
            },
            {
                "start_time": 5.381818181818182,
                "end_time": 5.5227272727272725,
                "pitch": 38,
                "velocity": 51,
                "duration": 0.14090909090909065,
                "tempo": 120.0
            },
            {
                "start_time": 5.554545454545455,
                "end_time": 5.697727272727272,
                "pitch": 26,
                "velocity": 51,
                "duration": 0.14318181818181763,
                "tempo": 120.0
            },
            {
                "start_time": 5.7318181818181815,
                "end_time": 5.879545454545454,
                "pitch": 26,
                "velocity": 51,
                "duration": 0.14772727272727249,
                "tempo": 120.0
            },
            {
                "start_time": 5.913636363636363,
                "end_time": 6.0613636363636365,
                "pitch": 26,
                "velocity": 51,
                "duration": 0.14772727272727337,
                "tempo": 120.0
            },
            {
                "start_time": 6.095454545454545,
                "end_time": 6.245454545454545,
                "pitch": 38,
                "velocity": 51,
                "duration": 0.15000000000000036,
                "tempo": 120.0
            },
            {
                "start_time": 6.279545454545454,
                "end_time": 6.429545454545455,
                "pitch": 26,
                "velocity": 51,
                "duration": 0.15000000000000036,
                "tempo": 120.0
            },
            {
                "start_time": 6.463636363636363,
                "end_time": 6.6090909090909085,
                "pitch": 26,
                "velocity": 51,
                "duration": 0.1454545454545455,
                "tempo": 120.0
            },
            {
                "start_time": 6.643181818181818,
                "end_time": 6.788636363636363,
                "pitch": 26,
                "velocity": 51,
                "duration": 0.1454545454545455,
                "tempo": 120.0
            },
            {
                "start_time": 6.806818181818182,
                "end_time": 6.963636363636363,
                "pitch": 38,
                "velocity": 51,
                "duration": 0.1568181818181813,
                "tempo": 120.0
            },
            {
                "start_time": 6.9795454545454545,
                "end_time": 7.122727272727272,
                "pitch": 26,
                "velocity": 51,
                "duration": 0.14318181818181763,
                "tempo": 120.0
            },
            {
                "start_time": 7.154545454545454,
                "end_time": 7.304545454545454,
                "pitch": 26,
                "velocity": 51,
                "duration": 0.14999999999999947,
                "tempo": 120.0
            },
            {
                "start_time": 7.338636363636363,
                "end_time": 7.488636363636363,
                "pitch": 26,
                "velocity": 51,
                "duration": 0.15000000000000036,
                "tempo": 120.0
            },
            {
                "start_time": 7.5204545454545455,
                "end_time": 7.670454545454545,
                "pitch": 38,
                "velocity": 51,
                "duration": 0.14999999999999947,
                "tempo": 120.0
            },
            {
                "start_time": 7.704545454545454,
                "end_time": 7.8545454545454545,
                "pitch": 26,
                "velocity": 51,
                "duration": 0.15000000000000036,
                "tempo": 120.0
            },
            {
                "start_time": 7.888636363636364,
                "end_time": 8.038636363636364,
                "pitch": 26,
                "velocity": 51,
                "duration": 0.15000000000000036,
                "tempo": 120.0
            },
            {
                "start_time": 8.072727272727272,
                "end_time": 8.222727272727273,
                "pitch": 26,
                "velocity": 51,
                "duration": 0.15000000000000036,
                "tempo": 120.0
            },
            {
                "start_time": 8.256818181818181,
                "end_time": 8.402272727272727,
                "pitch": 38,
                "velocity": 51,
                "duration": 0.1454545454545464,
                "tempo": 120.0
            },
            {
                "start_time": 8.418181818181818,
                "end_time": 8.581818181818182,
                "pitch": 26,
                "velocity": 51,
                "duration": 0.16363636363636402,
                "tempo": 120.0
            },
            {
                "start_time": 8.6,
                "end_time": 8.745454545454544,
                "pitch": 26,
                "velocity": 51,
                "duration": 0.14545454545454461,
                "tempo": 120.0
            },
            {
                "start_time": 8.777272727272727,
                "end_time": 8.924999999999999,
                "pitch": 26,
                "velocity": 51,
                "duration": 0.1477272727272716,
                "tempo": 120.0
            },
            {
                "start_time": 8.956818181818182,
                "end_time": 9.104545454545454,
                "pitch": 38,
                "velocity": 51,
                "duration": 0.1477272727272716,
                "tempo": 120.0
            },
            {
                "start_time": 9.136363636363637,
                "end_time": 9.281818181818181,
                "pitch": 26,
                "velocity": 51,
                "duration": 0.14545454545454461,
                "tempo": 120.0
            },
            {
                "start_time": 9.31590909090909,
                "end_time": 9.46590909090909,
                "pitch": 26,
                "velocity": 51,
                "duration": 0.15000000000000036,
                "tempo": 120.0
            },
            {
                "start_time": 9.5,
                "end_time": 9.65,
                "pitch": 26,
                "velocity": 51,
                "duration": 0.15000000000000036,
                "tempo": 120.0
            },
            {
                "start_time": 9.684090909090909,
                "end_time": 9.829545454545453,
                "pitch": 38,
                "velocity": 51,
                "duration": 0.14545454545454461,
                "tempo": 120.0
            },
            {
                "start_time": 9.861363636363636,
                "end_time": 10.009090909090908,
                "pitch": 26,
                "velocity": 51,
                "duration": 0.1477272727272716,
                "tempo": 120.0
            },
            {
                "start_time": 10.040909090909091,
                "end_time": 10.19090909090909,
                "pitch": 26,
                "velocity": 51,
                "duration": 0.14999999999999858,
                "tempo": 120.0
            },
            {
                "start_time": 10.209090909090909,
                "end_time": 10.35909090909091,
                "pitch": 26,
                "velocity": 51,
                "duration": 0.15000000000000036,
                "tempo": 120.0
            },
            {
                "start_time": 10.393181818181818,
                "end_time": 10.534090909090908,
                "pitch": 38,
                "velocity": 51,
                "duration": 0.14090909090909065,
                "tempo": 120.0
            },
            {
                "start_time": 10.56590909090909,
                "end_time": 10.709090909090909,
                "pitch": 26,
                "velocity": 51,
                "duration": 0.1431818181818194,
                "tempo": 120.0
            },
            {
                "start_time": 10.74090909090909,
                "end_time": 10.89090909090909,
                "pitch": 26,
                "velocity": 51,
                "duration": 0.15000000000000036,
                "tempo": 120.0
            },
            {
                "start_time": 10.924999999999999,
                "end_time": 11.072727272727272,
                "pitch": 26,
                "velocity": 51,
                "duration": 0.14772727272727337,
                "tempo": 120.0
            },
            {
                "start_time": 11.10909090909091,
                "end_time": 11.256818181818181,
                "pitch": 38,
                "velocity": 51,
                "duration": 0.1477272727272716,
                "tempo": 120.0
            },
            {
                "start_time": 11.290909090909091,
                "end_time": 11.44090909090909,
                "pitch": 26,
                "velocity": 51,
                "duration": 0.14999999999999858,
                "tempo": 120.0
            },
            {
                "start_time": 11.477272727272727,
                "end_time": 11.620454545454544,
                "pitch": 33,
                "velocity": 64,
                "duration": 0.14318181818181763,
                "tempo": 120.0
            },
            {
                "start_time": 11.654545454545454,
                "end_time": 11.799999999999999,
                "pitch": 33,
                "velocity": 64,
                "duration": 0.14545454545454461,
                "tempo": 120.0
            },
            {
                "start_time": 11.818181818181818,
                "end_time": 11.975,
                "pitch": 39,
                "velocity": 64,
                "duration": 0.1568181818181813,
                "tempo": 120.0
            },
            {
                "start_time": 11.99090909090909,
                "end_time": 12.134090909090908,
                "pitch": 33,
                "velocity": 64,
                "duration": 0.14318181818181763,
                "tempo": 120.0
            },
            {
                "start_time": 12.165909090909091,
                "end_time": 12.31590909090909,
                "pitch": 39,
                "velocity": 64,
                "duration": 0.14999999999999858,
                "tempo": 120.0
            },
            {
                "start_time": 12.35,
                "end_time": 12.497727272727271,
                "pitch": 33,
                "velocity": 64,
                "duration": 0.1477272727272716,
                "tempo": 120.0
            },
            {
                "start_time": 12.531818181818181,
                "end_time": 12.681818181818182,
                "pitch": 33,
                "velocity": 64,
                "duration": 0.15000000000000036,
                "tempo": 120.0
            },
            {
                "start_time": 12.71590909090909,
                "end_time": 12.86590909090909,
                "pitch": 39,
                "velocity": 64,
                "duration": 0.15000000000000036,
                "tempo": 120.0
            },
            {
                "start_time": 12.899999999999999,
                "end_time": 13.045454545454545,
                "pitch": 33,
                "velocity": 64,
                "duration": 0.1454545454545464,
                "tempo": 120.0
            },
            {
                "start_time": 13.079545454545453,
                "end_time": 13.225,
                "pitch": 39,
                "velocity": 64,
                "duration": 0.1454545454545464,
                "tempo": 120.0
            },
            {
                "start_time": 13.259090909090908,
                "end_time": 13.409090909090908,
                "pitch": 33,
                "velocity": 64,
                "duration": 0.15000000000000036,
                "tempo": 120.0
            },
            {
                "start_time": 13.443181818181818,
                "end_time": 13.593181818181817,
                "pitch": 33,
                "velocity": 64,
                "duration": 0.14999999999999858,
                "tempo": 120.0
            },
            {
                "start_time": 13.609090909090908,
                "end_time": 13.752272727272727,
                "pitch": 39,
                "velocity": 64,
                "duration": 0.1431818181818194,
                "tempo": 120.0
            },
            {
                "start_time": 13.784090909090908,
                "end_time": 13.924999999999999,
                "pitch": 33,
                "velocity": 64,
                "duration": 0.14090909090909065,
                "tempo": 120.0
            },
            {
                "start_time": 13.956818181818182,
                "end_time": 14.10681818181818,
                "pitch": 33,
                "velocity": 64,
                "duration": 0.14999999999999858,
                "tempo": 120.0
            },
            {
                "start_time": 14.14090909090909,
                "end_time": 14.290909090909091,
                "pitch": 39,
                "velocity": 64,
                "duration": 0.15000000000000036,
                "tempo": 120.0
            },
            {
                "start_time": 14.327272727272726,
                "end_time": 14.475,
                "pitch": 33,
                "velocity": 64,
                "duration": 0.14772727272727337,
                "tempo": 120.0
            },
            {
                "start_time": 14.509090909090908,
                "end_time": 14.659090909090908,
                "pitch": 33,
                "velocity": 64,
                "duration": 0.15000000000000036,
                "tempo": 120.0
            },
            {
                "start_time": 14.693181818181818,
                "end_time": 14.838636363636363,
                "pitch": 39,
                "velocity": 64,
                "duration": 0.14545454545454461,
                "tempo": 120.0
            },
            {
                "start_time": 14.872727272727271,
                "end_time": 15.018181818181818,
                "pitch": 33,
                "velocity": 64,
                "duration": 0.1454545454545464,
                "tempo": 120.0
            },
            {
                "start_time": 15.052272727272726,
                "end_time": 15.2,
                "pitch": 39,
                "velocity": 64,
                "duration": 0.14772727272727337,
                "tempo": 120.0
            },
            {
                "start_time": 15.218181818181817,
                "end_time": 15.384090909090908,
                "pitch": 33,
                "velocity": 64,
                "duration": 0.165909090909091,
                "tempo": 120.0
            },
            {
                "start_time": 15.402272727272727,
                "end_time": 15.543181818181818,
                "pitch": 33,
                "velocity": 64,
                "duration": 0.14090909090909065,
                "tempo": 120.0
            },
            {
                "start_time": 15.577272727272726,
                "end_time": 15.718181818181817,
                "pitch": 39,
                "velocity": 64,
                "duration": 0.14090909090909065,
                "tempo": 120.0
            },
            {
                "start_time": 15.75,
                "end_time": 15.899999999999999,
                "pitch": 33,
                "velocity": 64,
                "duration": 0.14999999999999858,
                "tempo": 120.0
            },
            {
                "start_time": 15.934090909090909,
                "end_time": 16.084090909090907,
                "pitch": 39,
                "velocity": 64,
                "duration": 0.14999999999999858,
                "tempo": 120.0
            },
            {
                "start_time": 16.118181818181817,
                "end_time": 16.26590909090909,
                "pitch": 33,
                "velocity": 64,
                "duration": 0.14772727272727337,
                "tempo": 120.0
            },
            {
                "start_time": 16.3,
                "end_time": 16.45,
                "pitch": 33,
                "velocity": 64,
                "duration": 0.14999999999999858,
                "tempo": 120.0
            },
            {
                "start_time": 16.48409090909091,
                "end_time": 16.629545454545454,
                "pitch": 39,
                "velocity": 64,
                "duration": 0.14545454545454461,
                "tempo": 120.0
            },
            {
                "start_time": 16.663636363636364,
                "end_time": 16.80909090909091,
                "pitch": 33,
                "velocity": 64,
                "duration": 0.14545454545454461,
                "tempo": 120.0
            },
            {
                "start_time": 16.827272727272728,
                "end_time": 16.98409090909091,
                "pitch": 33,
                "velocity": 64,
                "duration": 0.1568181818181813,
                "tempo": 120.0
            },
            {
                "start_time": 17.0,
                "end_time": 17.143181818181816,
                "pitch": 39,
                "velocity": 64,
                "duration": 0.14318181818181586,
                "tempo": 120.0
            },
            {
                "start_time": 17.177272727272726,
                "end_time": 17.325,
                "pitch": 33,
                "velocity": 64,
                "duration": 0.14772727272727337,
                "tempo": 120.0
            },
            {
                "start_time": 17.35909090909091,
                "end_time": 17.509090909090908,
                "pitch": 33,
                "velocity": 64,
                "duration": 0.14999999999999858,
                "tempo": 120.0
            },
            {
                "start_time": 17.54090909090909,
                "end_time": 17.69090909090909,
                "pitch": 39,
                "velocity": 64,
                "duration": 0.15000000000000213,
                "tempo": 120.0
            },
            {
                "start_time": 17.724999999999998,
                "end_time": 17.875,
                "pitch": 33,
                "velocity": 64,
                "duration": 0.15000000000000213,
                "tempo": 120.0
            },
            {
                "start_time": 17.909090909090907,
                "end_time": 18.054545454545455,
                "pitch": 39,
                "velocity": 64,
                "duration": 0.14545454545454817,
                "tempo": 120.0
            },
            {
                "start_time": 18.08863636363636,
                "end_time": 18.23409090909091,
                "pitch": 33,
                "velocity": 64,
                "duration": 0.14545454545454817,
                "tempo": 120.0
            },
            {
                "start_time": 18.268181818181816,
                "end_time": 18.418181818181818,
                "pitch": 33,
                "velocity": 64,
                "duration": 0.15000000000000213,
                "tempo": 120.0
            },
            {
                "start_time": 18.452272727272728,
                "end_time": 18.602272727272727,
                "pitch": 39,
                "velocity": 64,
                "duration": 0.14999999999999858,
                "tempo": 120.0
            },
            {
                "start_time": 18.618181818181817,
                "end_time": 18.761363636363637,
                "pitch": 33,
                "velocity": 64,
                "duration": 0.1431818181818194,
                "tempo": 120.0
            },
            {
                "start_time": 18.793181818181818,
                "end_time": 18.93409090909091,
                "pitch": 39,
                "velocity": 64,
                "duration": 0.14090909090909065,
                "tempo": 120.0
            },
            {
                "start_time": 18.96818181818182,
                "end_time": 19.11590909090909,
                "pitch": 33,
                "velocity": 64,
                "duration": 0.14772727272726982,
                "tempo": 120.0
            },
            {
                "start_time": 19.15,
                "end_time": 19.3,
                "pitch": 33,
                "velocity": 64,
                "duration": 0.15000000000000213,
                "tempo": 120.0
            },
            {
                "start_time": 19.334090909090907,
                "end_time": 19.48409090909091,
                "pitch": 39,
                "velocity": 64,
                "duration": 0.15000000000000213,
                "tempo": 120.0
            },
            {
                "start_time": 19.518181818181816,
                "end_time": 19.668181818181818,
                "pitch": 33,
                "velocity": 64,
                "duration": 0.15000000000000213,
                "tempo": 120.0
            },
            {
                "start_time": 19.702272727272728,
                "end_time": 19.847727272727273,
                "pitch": 33,
                "velocity": 64,
                "duration": 0.14545454545454461,
                "tempo": 120.0
            },
            {
                "start_time": 19.88181818181818,
                "end_time": 20.027272727272727,
                "pitch": 39,
                "velocity": 64,
                "duration": 0.14545454545454817,
                "tempo": 120.0
            },
            {
                "start_time": 20.061363636363634,
                "end_time": 20.209090909090907,
                "pitch": 33,
                "velocity": 64,
                "duration": 0.14772727272727337,
                "tempo": 120.0
            },
            {
                "start_time": 20.227272727272727,
                "end_time": 20.393181818181816,
                "pitch": 33,
                "velocity": 64,
                "duration": 0.16590909090908923,
                "tempo": 120.0
            },
            {
                "start_time": 20.411363636363635,
                "end_time": 20.552272727272726,
                "pitch": 39,
                "velocity": 64,
                "duration": 0.14090909090909065,
                "tempo": 120.0
            },
            {
                "start_time": 20.586363636363636,
                "end_time": 20.727272727272727,
                "pitch": 33,
                "velocity": 64,
                "duration": 0.14090909090909065,
                "tempo": 120.0
            },
            {
                "start_time": 20.759090909090908,
                "end_time": 20.909090909090907,
                "pitch": 39,
                "velocity": 64,
                "duration": 0.14999999999999858,
                "tempo": 120.0
            },
            {
                "start_time": 20.943181818181817,
                "end_time": 21.09318181818182,
                "pitch": 33,
                "velocity": 64,
                "duration": 0.15000000000000213,
                "tempo": 120.0
            },
            {
                "start_time": 21.127272727272725,
                "end_time": 21.275,
                "pitch": 33,
                "velocity": 64,
                "duration": 0.14772727272727337,
                "tempo": 120.0
            },
            {
                "start_time": 21.311363636363634,
                "end_time": 21.459090909090907,
                "pitch": 39,
                "velocity": 64,
                "duration": 0.14772727272727337,
                "tempo": 120.0
            },
            {
                "start_time": 21.493181818181817,
                "end_time": 21.64090909090909,
                "pitch": 33,
                "velocity": 64,
                "duration": 0.14772727272727337,
                "tempo": 120.0
            },
            {
                "start_time": 21.672727272727272,
                "end_time": 21.818181818181817,
                "pitch": 39,
                "velocity": 64,
                "duration": 0.14545454545454461,
                "tempo": 120.0
            },
            {
                "start_time": 21.852272727272727,
                "end_time": 22.002272727272725,
                "pitch": 33,
                "velocity": 64,
                "duration": 0.14999999999999858,
                "tempo": 120.0
            },
            {
                "start_time": 22.020454545454545,
                "end_time": 22.168181818181818,
                "pitch": 33,
                "velocity": 64,
                "duration": 0.14772727272727337,
                "tempo": 120.0
            },
            {
                "start_time": 22.204545454545453,
                "end_time": 22.345454545454544,
                "pitch": 39,
                "velocity": 64,
                "duration": 0.14090909090909065,
                "tempo": 120.0
            },
            {
                "start_time": 22.377272727272725,
                "end_time": 22.518181818181816,
                "pitch": 33,
                "velocity": 64,
                "duration": 0.14090909090909065,
                "tempo": 120.0
            },
            {
                "start_time": 22.552272727272726,
                "end_time": 22.7,
                "pitch": 33,
                "velocity": 64,
                "duration": 0.14772727272727337,
                "tempo": 120.0
            },
            {
                "start_time": 22.73409090909091,
                "end_time": 22.884090909090908,
                "pitch": 39,
                "velocity": 64,
                "duration": 0.14999999999999858,
                "tempo": 120.0
            },
            {
                "start_time": 22.920454545454543,
                "end_time": 23.068181818181817,
                "pitch": 34,
                "velocity": 64,
                "duration": 0.14772727272727337,
                "tempo": 120.0
            },
            {
                "start_time": 23.102272727272727,
                "end_time": 23.252272727272725,
                "pitch": 34,
                "velocity": 64,
                "duration": 0.14999999999999858,
                "tempo": 120.0
            },
            {
                "start_time": 23.286363636363635,
                "end_time": 23.43181818181818,
                "pitch": 40,
                "velocity": 64,
                "duration": 0.14545454545454461,
                "tempo": 120.0
            },
            {
                "start_time": 23.46590909090909,
                "end_time": 23.611363636363635,
                "pitch": 34,
                "velocity": 64,
                "duration": 0.14545454545454461,
                "tempo": 120.0
            },
            {
                "start_time": 23.629545454545454,
                "end_time": 23.786363636363635,
                "pitch": 40,
                "velocity": 64,
                "duration": 0.1568181818181813,
                "tempo": 120.0
            },
            {
                "start_time": 23.802272727272726,
                "end_time": 23.943181818181817,
                "pitch": 34,
                "velocity": 64,
                "duration": 0.14090909090909065,
                "tempo": 120.0
            },
            {
                "start_time": 23.974999999999998,
                "end_time": 24.125,
                "pitch": 34,
                "velocity": 64,
                "duration": 0.15000000000000213,
                "tempo": 120.0
            },
            {
                "start_time": 24.159090909090907,
                "end_time": 24.30909090909091,
                "pitch": 40,
                "velocity": 64,
                "duration": 0.15000000000000213,
                "tempo": 120.0
            },
            {
                "start_time": 24.34318181818182,
                "end_time": 24.493181818181817,
                "pitch": 34,
                "velocity": 64,
                "duration": 0.14999999999999858,
                "tempo": 120.0
            },
            {
                "start_time": 24.527272727272727,
                "end_time": 24.677272727272726,
                "pitch": 40,
                "velocity": 64,
                "duration": 0.14999999999999858,
                "tempo": 120.0
            },
            {
                "start_time": 24.711363636363636,
                "end_time": 24.85681818181818,
                "pitch": 34,
                "velocity": 64,
                "duration": 0.14545454545454461,
                "tempo": 120.0
            },
            {
                "start_time": 24.89090909090909,
                "end_time": 25.036363636363635,
                "pitch": 34,
                "velocity": 64,
                "duration": 0.14545454545454461,
                "tempo": 120.0
            },
            {
                "start_time": 25.070454545454545,
                "end_time": 25.21818181818182,
                "pitch": 40,
                "velocity": 64,
                "duration": 0.14772727272727337,
                "tempo": 120.0
            },
            {
                "start_time": 25.236363636363635,
                "end_time": 25.402272727272727,
                "pitch": 34,
                "velocity": 64,
                "duration": 0.16590909090909278,
                "tempo": 120.0
            },
            {
                "start_time": 25.420454545454543,
                "end_time": 25.561363636363634,
                "pitch": 34,
                "velocity": 64,
                "duration": 0.14090909090909065,
                "tempo": 120.0
            },
            {
                "start_time": 25.595454545454544,
                "end_time": 25.736363636363635,
                "pitch": 40,
                "velocity": 64,
                "duration": 0.14090909090909065,
                "tempo": 120.0
            },
            {
                "start_time": 25.770454545454545,
                "end_time": 25.918181818181818,
                "pitch": 34,
                "velocity": 64,
                "duration": 0.14772727272727337,
                "tempo": 120.0
            },
            {
                "start_time": 25.952272727272724,
                "end_time": 26.102272727272727,
                "pitch": 34,
                "velocity": 64,
                "duration": 0.15000000000000213,
                "tempo": 120.0
            },
            {
                "start_time": 26.136363636363637,
                "end_time": 26.286363636363635,
                "pitch": 40,
                "velocity": 64,
                "duration": 0.14999999999999858,
                "tempo": 120.0
            },
            {
                "start_time": 26.320454545454545,
                "end_time": 26.468181818181815,
                "pitch": 34,
                "velocity": 64,
                "duration": 0.14772727272726982,
                "tempo": 120.0
            },
            {
                "start_time": 26.502272727272725,
                "end_time": 26.65,
                "pitch": 40,
                "velocity": 64,
                "duration": 0.14772727272727337,
                "tempo": 120.0
            },
            {
                "start_time": 26.68181818181818,
                "end_time": 26.829545454545453,
                "pitch": 34,
                "velocity": 64,
                "duration": 0.14772727272727337,
                "tempo": 120.0
            },
            {
                "start_time": 26.861363636363635,
                "end_time": 27.011363636363637,
                "pitch": 34,
                "velocity": 64,
                "duration": 0.15000000000000213,
                "tempo": 120.0
            },
            {
                "start_time": 27.029545454545453,
                "end_time": 27.177272727272726,
                "pitch": 40,
                "velocity": 64,
                "duration": 0.14772727272727337,
                "tempo": 120.0
            },
            {
                "start_time": 27.21363636363636,
                "end_time": 27.354545454545452,
                "pitch": 34,
                "velocity": 64,
                "duration": 0.14090909090909065,
                "tempo": 120.0
            },
            {
                "start_time": 27.386363636363637,
                "end_time": 27.527272727272727,
                "pitch": 40,
                "velocity": 64,
                "duration": 0.14090909090909065,
                "tempo": 120.0
            },
            {
                "start_time": 27.561363636363634,
                "end_time": 27.709090909090907,
                "pitch": 34,
                "velocity": 64,
                "duration": 0.14772727272727337,
                "tempo": 120.0
            },
            {
                "start_time": 27.743181818181817,
                "end_time": 27.893181818181816,
                "pitch": 34,
                "velocity": 64,
                "duration": 0.14999999999999858,
                "tempo": 120.0
            },
            {
                "start_time": 27.927272727272726,
                "end_time": 28.07272727272727,
                "pitch": 40,
                "velocity": 64,
                "duration": 0.14545454545454461,
                "tempo": 120.0
            },
            {
                "start_time": 28.10681818181818,
                "end_time": 28.252272727272725,
                "pitch": 34,
                "velocity": 64,
                "duration": 0.14545454545454461,
                "tempo": 120.0
            },
            {
                "start_time": 28.286363636363635,
                "end_time": 28.436363636363634,
                "pitch": 34,
                "velocity": 64,
                "duration": 0.14999999999999858,
                "tempo": 120.0
            },
            {
                "start_time": 28.470454545454544,
                "end_time": 28.620454545454542,
                "pitch": 40,
                "velocity": 64,
                "duration": 0.14999999999999858,
                "tempo": 120.0
            },
            {
                "start_time": 28.638636363636362,
                "end_time": 28.795454545454543,
                "pitch": 34,
                "velocity": 64,
                "duration": 0.1568181818181813,
                "tempo": 120.0
            },
            {
                "start_time": 28.811363636363634,
                "end_time": 28.952272727272724,
                "pitch": 34,
                "velocity": 64,
                "duration": 0.14090909090909065,
                "tempo": 120.0
            },
            {
                "start_time": 28.98409090909091,
                "end_time": 29.134090909090908,
                "pitch": 40,
                "velocity": 64,
                "duration": 0.14999999999999858,
                "tempo": 120.0
            },
            {
                "start_time": 29.168181818181818,
                "end_time": 29.318181818181817,
                "pitch": 34,
                "velocity": 64,
                "duration": 0.14999999999999858,
                "tempo": 120.0
            },
            {
                "start_time": 29.352272727272727,
                "end_time": 29.502272727272725,
                "pitch": 40,
                "velocity": 64,
                "duration": 0.14999999999999858,
                "tempo": 120.0
            },
            {
                "start_time": 29.536363636363635,
                "end_time": 29.686363636363634,
                "pitch": 34,
                "velocity": 64,
                "duration": 0.14999999999999858,
                "tempo": 120.0
            },
            {
                "start_time": 29.720454545454544,
                "end_time": 29.86590909090909,
                "pitch": 34,
                "velocity": 64,
                "duration": 0.14545454545454461,
                "tempo": 120.0
            },
            {
                "start_time": 29.89772727272727,
                "end_time": 30.045454545454543,
                "pitch": 40,
                "velocity": 64,
                "duration": 0.14772727272727337,
                "tempo": 120.0
            },
            {
                "start_time": 30.079545454545453,
                "end_time": 30.227272727272727,
                "pitch": 34,
                "velocity": 64,
                "duration": 0.14772727272727337,
                "tempo": 120.0
            },
            {
                "start_time": 30.261363636363633,
                "end_time": 30.411363636363635,
                "pitch": 40,
                "velocity": 64,
                "duration": 0.15000000000000213,
                "tempo": 120.0
            },
            {
                "start_time": 30.429545454545455,
                "end_time": 30.570454545454545,
                "pitch": 34,
                "velocity": 64,
                "duration": 0.14090909090909065,
                "tempo": 120.0
            },
            {
                "start_time": 30.602272727272727,
                "end_time": 30.745454545454542,
                "pitch": 34,
                "velocity": 64,
                "duration": 0.14318181818181586,
                "tempo": 120.0
            },
            {
                "start_time": 30.777272727272727,
                "end_time": 30.927272727272726,
                "pitch": 40,
                "velocity": 64,
                "duration": 0.14999999999999858,
                "tempo": 120.0
            },
            {
                "start_time": 30.961363636363636,
                "end_time": 31.111363636363635,
                "pitch": 34,
                "velocity": 64,
                "duration": 0.14999999999999858,
                "tempo": 120.0
            },
            {
                "start_time": 31.145454545454545,
                "end_time": 31.293181818181818,
                "pitch": 34,
                "velocity": 64,
                "duration": 0.14772727272727337,
                "tempo": 120.0
            },
            {
                "start_time": 31.327272727272724,
                "end_time": 31.477272727272727,
                "pitch": 40,
                "velocity": 64,
                "duration": 0.15000000000000213,
                "tempo": 120.0
            },
            {
                "start_time": 31.513636363636362,
                "end_time": 31.661363636363635,
                "pitch": 34,
                "velocity": 64,
                "duration": 0.14772727272727337,
                "tempo": 120.0
            },
            {
                "start_time": 31.695454545454545,
                "end_time": 31.845454545454544,
                "pitch": 34,
                "velocity": 64,
                "duration": 0.14999999999999858,
                "tempo": 120.0
            },
            {
                "start_time": 31.879545454545454,
                "end_time": 32.025,
                "pitch": 40,
                "velocity": 64,
                "duration": 0.14545454545454461,
                "tempo": 120.0
            },
            {
                "start_time": 32.043181818181814,
                "end_time": 32.20454545454545,
                "pitch": 34,
                "velocity": 64,
                "duration": 0.16136363636363882,
                "tempo": 120.0
            },
            {
                "start_time": 32.22272727272727,
                "end_time": 32.36363636363636,
                "pitch": 40,
                "velocity": 64,
                "duration": 0.14090909090909065,
                "tempo": 120.0
            },
            {
                "start_time": 32.39545454545454,
                "end_time": 32.538636363636364,
                "pitch": 34,
                "velocity": 64,
                "duration": 0.14318181818182296,
                "tempo": 120.0
            },
            {
                "start_time": 32.570454545454545,
                "end_time": 32.71818181818182,
                "pitch": 34,
                "velocity": 64,
                "duration": 0.14772727272727337,
                "tempo": 120.0
            },
            {
                "start_time": 32.75454545454545,
                "end_time": 32.902272727272724,
                "pitch": 40,
                "velocity": 64,
                "duration": 0.14772727272727337,
                "tempo": 120.0
            },
            {
                "start_time": 32.93636363636364,
                "end_time": 33.08181818181818,
                "pitch": 34,
                "velocity": 64,
                "duration": 0.14545454545454106,
                "tempo": 120.0
            },
            {
                "start_time": 33.11590909090909,
                "end_time": 33.26136363636363,
                "pitch": 40,
                "velocity": 64,
                "duration": 0.14545454545454106,
                "tempo": 120.0
            },
            {
                "start_time": 33.29545454545455,
                "end_time": 33.445454545454545,
                "pitch": 34,
                "velocity": 64,
                "duration": 0.14999999999999858,
                "tempo": 120.0
            },
            {
                "start_time": 33.47954545454545,
                "end_time": 33.62954545454545,
                "pitch": 34,
                "velocity": 64,
                "duration": 0.14999999999999858,
                "tempo": 120.0
            },
            {
                "start_time": 33.64545454545454,
                "end_time": 33.804545454545455,
                "pitch": 40,
                "velocity": 64,
                "duration": 0.1590909090909136,
                "tempo": 120.0
            },
            {
                "start_time": 33.820454545454545,
                "end_time": 33.961363636363636,
                "pitch": 34,
                "velocity": 64,
                "duration": 0.14090909090909065,
                "tempo": 120.0
            },
            {
                "start_time": 33.99318181818182,
                "end_time": 34.143181818181816,
                "pitch": 34,
                "velocity": 64,
                "duration": 0.14999999999999858,
                "tempo": 120.0
            },
            {
                "start_time": 34.17727272727272,
                "end_time": 34.32727272727273,
                "pitch": 40,
                "velocity": 64,
                "duration": 0.15000000000000568,
                "tempo": 120.0
            },
            {
                "start_time": 34.36363636363636,
                "end_time": 34.51136363636363,
                "pitch": 35,
                "velocity": 64,
                "duration": 0.14772727272727337,
                "tempo": 120.0
            },
            {
                "start_time": 34.54545454545455,
                "end_time": 34.695454545454545,
                "pitch": 35,
                "velocity": 64,
                "duration": 0.14999999999999858,
                "tempo": 120.0
            },
            {
                "start_time": 34.72954545454545,
                "end_time": 34.875,
                "pitch": 47,
                "velocity": 64,
                "duration": 0.14545454545454817,
                "tempo": 120.0
            },
            {
                "start_time": 34.90909090909091,
                "end_time": 35.054545454545455,
                "pitch": 35,
                "velocity": 64,
                "duration": 0.14545454545454817,
                "tempo": 120.0
            },
            {
                "start_time": 35.08863636363636,
                "end_time": 35.236363636363635,
                "pitch": 35,
                "velocity": 64,
                "duration": 0.14772727272727337,
                "tempo": 120.0
            },
            {
                "start_time": 35.27045454545454,
                "end_time": 35.42045454545455,
                "pitch": 47,
                "velocity": 64,
                "duration": 0.15000000000000568,
                "tempo": 120.0
            },
            {
                "start_time": 35.43863636363636,
                "end_time": 35.57954545454545,
                "pitch": 35,
                "velocity": 64,
                "duration": 0.14090909090909065,
                "tempo": 120.0
            },
            {
                "start_time": 35.61363636363636,
                "end_time": 35.75454545454545,
                "pitch": 47,
                "velocity": 64,
                "duration": 0.14090909090909065,
                "tempo": 120.0
            },
            {
                "start_time": 35.78636363636363,
                "end_time": 35.93181818181818,
                "pitch": 35,
                "velocity": 64,
                "duration": 0.14545454545454817,
                "tempo": 120.0
            },
            {
                "start_time": 35.965909090909086,
                "end_time": 36.111363636363635,
                "pitch": 35,
                "velocity": 64,
                "duration": 0.14545454545454817,
                "tempo": 120.0
            },
            {
                "start_time": 36.14545454545454,
                "end_time": 36.3,
                "pitch": 47,
                "velocity": 64,
                "duration": 0.1545454545454561,
                "tempo": 120.0
            },
            {
                "start_time": 36.33409090909091,
                "end_time": 36.48863636363636,
                "pitch": 35,
                "velocity": 64,
                "duration": 0.154545454545449,
                "tempo": 120.0
            },
            {
                "start_time": 36.525,
                "end_time": 36.67045454545455,
                "pitch": 35,
                "velocity": 64,
                "duration": 0.14545454545454817,
                "tempo": 120.0
            },
            {
                "start_time": 36.70227272727273,
                "end_time": 36.85,
                "pitch": 47,
                "velocity": 64,
                "duration": 0.14772727272727337,
                "tempo": 120.0
            },
            {
                "start_time": 36.88181818181818,
                "end_time": 37.03181818181818,
                "pitch": 35,
                "velocity": 64,
                "duration": 0.14999999999999858,
                "tempo": 120.0
            },
            {
                "start_time": 37.05,
                "end_time": 37.215909090909086,
                "pitch": 47,
                "velocity": 64,
                "duration": 0.16590909090908923,
                "tempo": 120.0
            },
            {
                "start_time": 37.23409090909091,
                "end_time": 37.375,
                "pitch": 35,
                "velocity": 64,
                "duration": 0.14090909090909065,
                "tempo": 120.0
            },
            {
                "start_time": 37.40681818181818,
                "end_time": 37.55,
                "pitch": 35,
                "velocity": 64,
                "duration": 0.14318181818181586,
                "tempo": 120.0
            },
            {
                "start_time": 37.58181818181818,
                "end_time": 37.73181818181818,
                "pitch": 47,
                "velocity": 64,
                "duration": 0.14999999999999858,
                "tempo": 120.0
            },
            {
                "start_time": 37.76590909090909,
                "end_time": 37.913636363636364,
                "pitch": 35,
                "velocity": 64,
                "duration": 0.14772727272727337,
                "tempo": 120.0
            },
            {
                "start_time": 37.94772727272727,
                "end_time": 38.09772727272727,
                "pitch": 35,
                "velocity": 64,
                "duration": 0.14999999999999858,
                "tempo": 120.0
            },
            {
                "start_time": 38.13181818181818,
                "end_time": 38.28181818181818,
                "pitch": 47,
                "velocity": 64,
                "duration": 0.14999999999999858,
                "tempo": 120.0
            },
            {
                "start_time": 38.31590909090909,
                "end_time": 38.461363636363636,
                "pitch": 35,
                "velocity": 64,
                "duration": 0.14545454545454817,
                "tempo": 120.0
            },
            {
                "start_time": 38.49545454545454,
                "end_time": 38.64090909090909,
                "pitch": 47,
                "velocity": 64,
                "duration": 0.14545454545454817,
                "tempo": 120.0
            },
            {
                "start_time": 38.675,
                "end_time": 38.824999999999996,
                "pitch": 35,
                "velocity": 64,
                "duration": 0.14999999999999858,
                "tempo": 120.0
            },
            {
                "start_time": 38.840909090909086,
                "end_time": 38.99090909090909,
                "pitch": 35,
                "velocity": 64,
                "duration": 0.15000000000000568,
                "tempo": 120.0
            },
            {
                "start_time": 39.025,
                "end_time": 39.168181818181814,
                "pitch": 47,
                "velocity": 64,
                "duration": 0.14318181818181586,
                "tempo": 120.0
            },
            {
                "start_time": 39.199999999999996,
                "end_time": 39.340909090909086,
                "pitch": 35,
                "velocity": 64,
                "duration": 0.14090909090909065,
                "tempo": 120.0
            },
            {
                "start_time": 39.37272727272727,
                "end_time": 39.52272727272727,
                "pitch": 35,
                "velocity": 64,
                "duration": 0.15000000000000568,
                "tempo": 120.0
            },
            {
                "start_time": 39.55681818181818,
                "end_time": 39.70681818181818,
                "pitch": 47,
                "velocity": 64,
                "duration": 0.14999999999999858,
                "tempo": 120.0
            },
            {
                "start_time": 39.74090909090909,
                "end_time": 39.88636363636363,
                "pitch": 35,
                "velocity": 64,
                "duration": 0.14545454545454106,
                "tempo": 120.0
            },
            {
                "start_time": 39.92045454545455,
                "end_time": 40.06590909090909,
                "pitch": 47,
                "velocity": 64,
                "duration": 0.14545454545454106,
                "tempo": 120.0
            },
            {
                "start_time": 40.1,
                "end_time": 40.25,
                "pitch": 35,
                "velocity": 64,
                "duration": 0.14999999999999858,
                "tempo": 120.0
            },
            {
                "start_time": 40.28409090909091,
                "end_time": 40.43181818181818,
                "pitch": 35,
                "velocity": 64,
                "duration": 0.14772727272727337,
                "tempo": 120.0
            },
            {
                "start_time": 40.449999999999996,
                "end_time": 40.60681818181818,
                "pitch": 47,
                "velocity": 64,
                "duration": 0.1568181818181813,
                "tempo": 120.0
            },
            {
                "start_time": 40.625,
                "end_time": 40.76590909090909,
                "pitch": 35,
                "velocity": 64,
                "duration": 0.14090909090909065,
                "tempo": 120.0
            },
            {
                "start_time": 40.79772727272727,
                "end_time": 40.94772727272727,
                "pitch": 35,
                "velocity": 64,
                "duration": 0.14999999999999858,
                "tempo": 120.0
            },
            {
                "start_time": 40.98181818181818,
                "end_time": 41.13181818181818,
                "pitch": 47,
                "velocity": 64,
                "duration": 0.15000000000000568,
                "tempo": 120.0
            },
            {
                "start_time": 41.16590909090909,
                "end_time": 41.31136363636364,
                "pitch": 35,
                "velocity": 64,
                "duration": 0.14545454545454817,
                "tempo": 120.0
            },
            {
                "start_time": 41.345454545454544,
                "end_time": 41.49090909090909,
                "pitch": 47,
                "velocity": 64,
                "duration": 0.14545454545454817,
                "tempo": 120.0
            },
            {
                "start_time": 41.525,
                "end_time": 41.67272727272727,
                "pitch": 35,
                "velocity": 64,
                "duration": 0.14772727272727337,
                "tempo": 120.0
            },
            {
                "start_time": 41.70681818181818,
                "end_time": 41.85681818181818,
                "pitch": 35,
                "velocity": 64,
                "duration": 0.14999999999999858,
                "tempo": 120.0
            },
            {
                "start_time": 41.89090909090909,
                "end_time": 42.04090909090909,
                "pitch": 47,
                "velocity": 64,
                "duration": 0.14999999999999858,
                "tempo": 120.0
            },
            {
                "start_time": 42.05681818181818,
                "end_time": 42.225,
                "pitch": 35,
                "velocity": 64,
                "duration": 0.16818181818182154,
                "tempo": 120.0
            },
            {
                "start_time": 42.24318181818182,
                "end_time": 42.38409090909091,
                "pitch": 35,
                "velocity": 64,
                "duration": 0.14090909090909065,
                "tempo": 120.0
            },
            {
                "start_time": 42.41590909090909,
                "end_time": 42.559090909090905,
                "pitch": 47,
                "velocity": 64,
                "duration": 0.14318181818181586,
                "tempo": 120.0
            },
            {
                "start_time": 42.590909090909086,
                "end_time": 42.73863636363636,
                "pitch": 35,
                "velocity": 64,
                "duration": 0.14772727272727337,
                "tempo": 120.0
            },
            {
                "start_time": 42.77272727272727,
                "end_time": 42.92272727272727,
                "pitch": 47,
                "velocity": 64,
                "duration": 0.14999999999999858,
                "tempo": 120.0
            },
            {
                "start_time": 42.959090909090904,
                "end_time": 43.10454545454545,
                "pitch": 35,
                "velocity": 64,
                "duration": 0.14545454545454817,
                "tempo": 120.0
            },
            {
                "start_time": 43.13636363636363,
                "end_time": 43.28181818181818,
                "pitch": 35,
                "velocity": 64,
                "duration": 0.14545454545454817,
                "tempo": 120.0
            },
            {
                "start_time": 43.31590909090909,
                "end_time": 43.465909090909086,
                "pitch": 47,
                "velocity": 64,
                "duration": 0.14999999999999858,
                "tempo": 120.0
            },
            {
                "start_time": 43.5,
                "end_time": 43.65,
                "pitch": 35,
                "velocity": 64,
                "duration": 0.14999999999999858,
                "tempo": 120.0
            },
            {
                "start_time": 43.684090909090905,
                "end_time": 43.83181818181818,
                "pitch": 35,
                "velocity": 64,
                "duration": 0.14772727272727337,
                "tempo": 120.0
            },
            {
                "start_time": 43.85,
                "end_time": 44.0,
                "pitch": 47,
                "velocity": 64,
                "duration": 0.14999999999999858,
                "tempo": 120.0
            },
            {
                "start_time": 44.03409090909091,
                "end_time": 44.17727272727272,
                "pitch": 35,
                "velocity": 64,
                "duration": 0.14318181818181586,
                "tempo": 120.0
            },
            {
                "start_time": 44.209090909090904,
                "end_time": 44.349999999999994,
                "pitch": 47,
                "velocity": 64,
                "duration": 0.14090909090909065,
                "tempo": 120.0
            },
            {
                "start_time": 44.38181818181818,
                "end_time": 44.52954545454545,
                "pitch": 35,
                "velocity": 64,
                "duration": 0.14772727272726627,
                "tempo": 120.0
            },
            {
                "start_time": 44.56136363636364,
                "end_time": 44.709090909090904,
                "pitch": 35,
                "velocity": 64,
                "duration": 0.14772727272726627,
                "tempo": 120.0
            },
            {
                "start_time": 44.74090909090909,
                "end_time": 44.89090909090909,
                "pitch": 47,
                "velocity": 64,
                "duration": 0.14999999999999858,
                "tempo": 120.0
            },
            {
                "start_time": 44.925,
                "end_time": 45.074999999999996,
                "pitch": 35,
                "velocity": 64,
                "duration": 0.14999999999999858,
                "tempo": 120.0
            },
            {
                "start_time": 45.10909090909091,
                "end_time": 45.25909090909091,
                "pitch": 35,
                "velocity": 64,
                "duration": 0.14999999999999858,
                "tempo": 120.0
            },
            {
                "start_time": 45.293181818181814,
                "end_time": 45.44090909090909,
                "pitch": 47,
                "velocity": 64,
                "duration": 0.14772727272727337,
                "tempo": 120.0
            },
            {
                "start_time": 45.459090909090904,
                "end_time": 45.61590909090909,
                "pitch": 35,
                "velocity": 64,
                "duration": 0.1568181818181884,
                "tempo": 120.0
            },
            {
                "start_time": 45.63409090909091,
                "end_time": 45.775,
                "pitch": 47,
                "velocity": 64,
                "duration": 0.14090909090909065,
                "tempo": 120.0
            },
            {
                "start_time": 45.809090909090905,
                "end_time": 45.95681818181818,
                "pitch": 33,
                "velocity": 64,
                "duration": 0.14772727272727337,
                "tempo": 120.0
            },
            {
                "start_time": 45.99090909090909,
                "end_time": 46.14090909090909,
                "pitch": 33,
                "velocity": 64,
                "duration": 0.14999999999999858,
                "tempo": 120.0
            },
            {
                "start_time": 46.175,
                "end_time": 46.320454545454545,
                "pitch": 39,
                "velocity": 64,
                "duration": 0.14545454545454817,
                "tempo": 120.0
            },
            {
                "start_time": 46.35454545454545,
                "end_time": 46.5,
                "pitch": 33,
                "velocity": 64,
                "duration": 0.14545454545454817,
                "tempo": 120.0
            },
            {
                "start_time": 46.53409090909091,
                "end_time": 46.68181818181818,
                "pitch": 39,
                "velocity": 64,
                "duration": 0.14772727272727337,
                "tempo": 120.0
            },
            {
                "start_time": 46.715909090909086,
                "end_time": 46.86590909090909,
                "pitch": 33,
                "velocity": 64,
                "duration": 0.15000000000000568,
                "tempo": 120.0
            },
            {
                "start_time": 46.9,
                "end_time": 47.05,
                "pitch": 33,
                "velocity": 64,
                "duration": 0.14999999999999858,
                "tempo": 120.0
            },
            {
                "start_time": 47.084090909090904,
                "end_time": 47.23409090909091,
                "pitch": 39,
                "velocity": 64,
                "duration": 0.15000000000000568,
                "tempo": 120.0
            },
            {
                "start_time": 47.252272727272725,
                "end_time": 47.393181818181816,
                "pitch": 33,
                "velocity": 64,
                "duration": 0.14090909090909065,
                "tempo": 120.0
            },
            {
                "start_time": 47.425,
                "end_time": 47.56818181818181,
                "pitch": 39,
                "velocity": 64,
                "duration": 0.14318181818181586,
                "tempo": 120.0
            },
            {
                "start_time": 47.599999999999994,
                "end_time": 47.75,
                "pitch": 33,
                "velocity": 64,
                "duration": 0.15000000000000568,
                "tempo": 120.0
            },
            {
                "start_time": 47.78181818181818,
                "end_time": 47.93181818181818,
                "pitch": 33,
                "velocity": 64,
                "duration": 0.14999999999999858,
                "tempo": 120.0
            },
            {
                "start_time": 47.965909090909086,
                "end_time": 48.11363636363636,
                "pitch": 39,
                "velocity": 64,
                "duration": 0.14772727272727337,
                "tempo": 120.0
            },
            {
                "start_time": 48.14545454545454,
                "end_time": 48.29090909090909,
                "pitch": 33,
                "velocity": 64,
                "duration": 0.14545454545454817,
                "tempo": 120.0
            },
            {
                "start_time": 48.324999999999996,
                "end_time": 48.474999999999994,
                "pitch": 33,
                "velocity": 64,
                "duration": 0.14999999999999858,
                "tempo": 120.0
            },
            {
                "start_time": 48.50909090909091,
                "end_time": 48.65909090909091,
                "pitch": 39,
                "velocity": 64,
                "duration": 0.14999999999999858,
                "tempo": 120.0
            },
            {
                "start_time": 48.69318181818181,
                "end_time": 48.84318181818182,
                "pitch": 33,
                "velocity": 64,
                "duration": 0.15000000000000568,
                "tempo": 120.0
            },
            {
                "start_time": 48.85909090909091,
                "end_time": 49.025,
                "pitch": 33,
                "velocity": 64,
                "duration": 0.16590909090908923,
                "tempo": 120.0
            },
            {
                "start_time": 49.043181818181814,
                "end_time": 49.18636363636364,
                "pitch": 39,
                "velocity": 64,
                "duration": 0.14318181818182296,
                "tempo": 120.0
            },
            {
                "start_time": 49.21818181818182,
                "end_time": 49.35909090909091,
                "pitch": 33,
                "velocity": 64,
                "duration": 0.14090909090909065,
                "tempo": 120.0
            },
            {
                "start_time": 49.39090909090909,
                "end_time": 49.538636363636364,
                "pitch": 39,
                "velocity": 64,
                "duration": 0.14772727272727337,
                "tempo": 120.0
            },
            {
                "start_time": 49.570454545454545,
                "end_time": 49.71818181818182,
                "pitch": 33,
                "velocity": 64,
                "duration": 0.14772727272727337,
                "tempo": 120.0
            },
            {
                "start_time": 49.75,
                "end_time": 49.9,
                "pitch": 33,
                "velocity": 64,
                "duration": 0.14999999999999858,
                "tempo": 120.0
            },
            {
                "start_time": 49.934090909090905,
                "end_time": 50.084090909090904,
                "pitch": 39,
                "velocity": 64,
                "duration": 0.14999999999999858,
                "tempo": 120.0
            },
            {
                "start_time": 50.11818181818182,
                "end_time": 50.268181818181816,
                "pitch": 33,
                "velocity": 64,
                "duration": 0.14999999999999858,
                "tempo": 120.0
            },
            {
                "start_time": 50.30227272727272,
                "end_time": 50.45227272727273,
                "pitch": 39,
                "velocity": 64,
                "duration": 0.15000000000000568,
                "tempo": 120.0
            },
            {
                "start_time": 50.46818181818182,
                "end_time": 50.627272727272725,
                "pitch": 33,
                "velocity": 64,
                "duration": 0.1590909090909065,
                "tempo": 120.0
            },
            {
                "start_time": 50.643181818181816,
                "end_time": 50.78409090909091,
                "pitch": 33,
                "velocity": 64,
                "duration": 0.14090909090909065,
                "tempo": 120.0
            },
            {
                "start_time": 50.81590909090909,
                "end_time": 50.965909090909086,
                "pitch": 39,
                "velocity": 64,
                "duration": 0.14999999999999858,
                "tempo": 120.0
            },
            {
                "start_time": 51.0,
                "end_time": 51.15,
                "pitch": 33,
                "velocity": 64,
                "duration": 0.14999999999999858,
                "tempo": 120.0
            },
            {
                "start_time": 51.184090909090905,
                "end_time": 51.32954545454545,
                "pitch": 33,
                "velocity": 64,
                "duration": 0.14545454545454817,
                "tempo": 120.0
            },
            {
                "start_time": 51.36363636363636,
                "end_time": 51.50909090909091,
                "pitch": 39,
                "velocity": 64,
                "duration": 0.14545454545454817,
                "tempo": 120.0
            },
            {
                "start_time": 51.54545454545454,
                "end_time": 51.695454545454545,
                "pitch": 33,
                "velocity": 64,
                "duration": 0.15000000000000568,
                "tempo": 120.0
            },
            {
                "start_time": 51.73181818181818,
                "end_time": 51.88636363636363,
                "pitch": 33,
                "velocity": 64,
                "duration": 0.1545454545454561,
                "tempo": 120.0
            },
            {
                "start_time": 51.92045454545454,
                "end_time": 52.06818181818181,
                "pitch": 39,
                "velocity": 64,
                "duration": 0.14772727272727337,
                "tempo": 120.0
            },
            {
                "start_time": 52.099999999999994,
                "end_time": 52.24772727272727,
                "pitch": 33,
                "velocity": 64,
                "duration": 0.14772727272727337,
                "tempo": 120.0
            },
            {
                "start_time": 52.26363636363636,
                "end_time": 52.40681818181818,
                "pitch": 39,
                "velocity": 64,
                "duration": 0.14318181818182296,
                "tempo": 120.0
            },
            {
                "start_time": 52.43863636363636,
                "end_time": 52.57954545454545,
                "pitch": 33,
                "velocity": 64,
                "duration": 0.14090909090909065,
                "tempo": 120.0
            },
            {
                "start_time": 52.611363636363635,
                "end_time": 52.76136363636363,
                "pitch": 33,
                "velocity": 64,
                "duration": 0.14999999999999858,
                "tempo": 120.0
            },
            {
                "start_time": 52.79545454545454,
                "end_time": 52.945454545454545,
                "pitch": 39,
                "velocity": 64,
                "duration": 0.15000000000000568,
                "tempo": 120.0
            },
            {
                "start_time": 52.97954545454545,
                "end_time": 53.125,
                "pitch": 33,
                "velocity": 64,
                "duration": 0.14545454545454817,
                "tempo": 120.0
            },
            {
                "start_time": 53.15909090909091,
                "end_time": 53.304545454545455,
                "pitch": 39,
                "velocity": 64,
                "duration": 0.14545454545454817,
                "tempo": 120.0
            },
            {
                "start_time": 53.33863636363636,
                "end_time": 53.486363636363635,
                "pitch": 33,
                "velocity": 64,
                "duration": 0.14772727272727337,
                "tempo": 120.0
            },
            {
                "start_time": 53.52045454545454,
                "end_time": 53.67045454545454,
                "pitch": 33,
                "velocity": 64,
                "duration": 0.14999999999999858,
                "tempo": 120.0
            },
            {
                "start_time": 53.70454545454545,
                "end_time": 53.849999999999994,
                "pitch": 39,
                "velocity": 64,
                "duration": 0.14545454545454106,
                "tempo": 120.0
            },
            {
                "start_time": 53.86818181818182,
                "end_time": 54.02954545454545,
                "pitch": 33,
                "velocity": 64,
                "duration": 0.1613636363636317,
                "tempo": 120.0
            },
            {
                "start_time": 54.04772727272727,
                "end_time": 54.19318181818181,
                "pitch": 33,
                "velocity": 64,
                "duration": 0.14545454545454106,
                "tempo": 120.0
            },
            {
                "start_time": 54.22727272727273,
                "end_time": 54.37272727272727,
                "pitch": 39,
                "velocity": 64,
                "duration": 0.14545454545454106,
                "tempo": 120.0
            },
            {
                "start_time": 54.40681818181818,
                "end_time": 54.554545454545455,
                "pitch": 33,
                "velocity": 64,
                "duration": 0.14772727272727337,
                "tempo": 120.0
            },
            {
                "start_time": 54.58863636363636,
                "end_time": 54.73863636363636,
                "pitch": 33,
                "velocity": 64,
                "duration": 0.14999999999999858,
                "tempo": 120.0
            },
            {
                "start_time": 54.77272727272727,
                "end_time": 54.918181818181814,
                "pitch": 39,
                "velocity": 64,
                "duration": 0.14545454545454106,
                "tempo": 120.0
            },
            {
                "start_time": 54.95227272727273,
                "end_time": 55.09772727272727,
                "pitch": 33,
                "velocity": 64,
                "duration": 0.14545454545454106,
                "tempo": 120.0
            },
            {
                "start_time": 55.131818181818176,
                "end_time": 55.28181818181818,
                "pitch": 39,
                "velocity": 64,
                "duration": 0.15000000000000568,
                "tempo": 120.0
            },
            {
                "start_time": 55.31590909090909,
                "end_time": 55.465909090909086,
                "pitch": 33,
                "velocity": 64,
                "duration": 0.14999999999999858,
                "tempo": 120.0
            },
            {
                "start_time": 55.49772727272727,
                "end_time": 55.64772727272727,
                "pitch": 33,
                "velocity": 64,
                "duration": 0.15000000000000568,
                "tempo": 120.0
            },
            {
                "start_time": 55.66590909090909,
                "end_time": 55.81590909090909,
                "pitch": 39,
                "velocity": 64,
                "duration": 0.14999999999999858,
                "tempo": 120.0
            },
            {
                "start_time": 55.849999999999994,
                "end_time": 55.990909090909085,
                "pitch": 33,
                "velocity": 64,
                "duration": 0.14090909090909065,
                "tempo": 120.0
            },
            {
                "start_time": 56.025,
                "end_time": 56.16590909090909,
                "pitch": 39,
                "velocity": 64,
                "duration": 0.14090909090909065,
                "tempo": 120.0
            },
            {
                "start_time": 56.19772727272727,
                "end_time": 56.34772727272727,
                "pitch": 33,
                "velocity": 64,
                "duration": 0.14999999999999858,
                "tempo": 120.0
            },
            {
                "start_time": 56.381818181818176,
                "end_time": 56.53181818181818,
                "pitch": 33,
                "velocity": 64,
                "duration": 0.15000000000000568,
                "tempo": 120.0
            },
            {
                "start_time": 56.56590909090909,
                "end_time": 56.711363636363636,
                "pitch": 39,
                "velocity": 64,
                "duration": 0.14545454545454817,
                "tempo": 120.0
            },
            {
                "start_time": 56.74318181818182,
                "end_time": 56.89090909090909,
                "pitch": 33,
                "velocity": 64,
                "duration": 0.14772727272727337,
                "tempo": 120.0
            },
            {
                "start_time": 56.92272727272727,
                "end_time": 57.07272727272727,
                "pitch": 33,
                "velocity": 64,
                "duration": 0.14999999999999858,
                "tempo": 120.0
            },
            {
                "start_time": 57.10681818181818,
                "end_time": 57.256818181818176,
                "pitch": 39,
                "velocity": 64,
                "duration": 0.14999999999999858,
                "tempo": 120.0
            },
            {
                "start_time": 57.277272727272724,
                "end_time": 57.43181818181818,
                "pitch": 33,
                "velocity": 64,
                "duration": 0.1545454545454561,
                "tempo": 120.0
            }
        ]
    }
}