{
    "track_id": "21 Ranking Display",
    "mood": "angry",
    "instruments": {
        "Acoustic Grand Piano": [
            {
                "start_time": 12.897727272727272,
                "end_time": 13.097727272727273,
                "pitch": 69,
                "velocity": 80,
                "duration": 0.20000000000000107,
                "tempo": 120.0
            },
            {
                "start_time": 13.2,
                "end_time": 13.399999999999999,
                "pitch": 67,
                "velocity": 80,
                "duration": 0.1999999999999993,
                "tempo": 120.0
            },
            {
                "start_time": 13.502272727272727,
                "end_time": 13.702272727272726,
                "pitch": 69,
                "velocity": 80,
                "duration": 0.1999999999999993,
                "tempo": 120.0
            },
            {
                "start_time": 14.709090909090909,
                "end_time": 14.809090909090909,
                "pitch": 81,
                "velocity": 101,
                "duration": 0.09999999999999964,
                "tempo": 120.0
            },
            {
                "start_time": 14.809090909090909,
                "end_time": 14.909090909090908,
                "pitch": 81,
                "velocity": 101,
                "duration": 0.09999999999999964,
                "tempo": 120.0
            },
            {
                "start_time": 16.120454545454546,
                "end_time": 16.320454545454545,
                "pitch": 69,
                "velocity": 80,
                "duration": 0.1999999999999993,
                "tempo": 120.0
            },
            {
                "start_time": 16.422727272727272,
                "end_time": 16.62272727272727,
                "pitch": 67,
                "velocity": 80,
                "duration": 0.1999999999999993,
                "tempo": 120.0
            },
            {
                "start_time": 16.722727272727273,
                "end_time": 16.922727272727272,
                "pitch": 69,
                "velocity": 80,
                "duration": 0.1999999999999993,
                "tempo": 120.0
            },
            {
                "start_time": 17.927272727272726,
                "end_time": 18.027272727272727,
                "pitch": 81,
                "velocity": 101,
                "duration": 0.10000000000000142,
                "tempo": 120.0
            },
            {
                "start_time": 18.027272727272727,
                "end_time": 18.127272727272725,
                "pitch": 81,
                "velocity": 101,
                "duration": 0.09999999999999787,
                "tempo": 120.0
            }
        ],
        "Acoustic Bass": [
            {
                "start_time": 0.01818181818181818,
                "end_time": 0.3136363636363636,
                "pitch": 43,
                "velocity": 80,
                "duration": 0.2954545454545454,
                "tempo": 120.0
            },
            {
                "start_time": 0.3159090909090909,
                "end_time": 0.41363636363636364,
                "pitch": 45,
                "velocity": 80,
                "duration": 0.09772727272727272,
                "tempo": 120.0
            },
            {
                "start_time": 0.6159090909090909,
                "end_time": 0.8159090909090909,
                "pitch": 40,
                "velocity": 80,
                "duration": 0.20000000000000007,
                "tempo": 120.0
            },
            {
                "start_time": 0.8159090909090909,
                "end_time": 1.0159090909090909,
                "pitch": 43,
                "velocity": 80,
                "duration": 0.19999999999999996,
                "tempo": 120.0
            },
            {
                "start_time": 1.018181818181818,
                "end_time": 1.2204545454545455,
                "pitch": 43,
                "velocity": 80,
                "duration": 0.20227272727272738,
                "tempo": 120.0
            },
            {
                "start_time": 1.2204545454545455,
                "end_time": 1.3181818181818181,
                "pitch": 43,
                "velocity": 80,
                "duration": 0.09772727272727266,
                "tempo": 120.0
            },
            {
                "start_time": 1.3181818181818181,
                "end_time": 1.4204545454545454,
                "pitch": 45,
                "velocity": 80,
                "duration": 0.10227272727272729,
                "tempo": 120.0
            },
            {
                "start_time": 1.518181818181818,
                "end_time": 1.6204545454545454,
                "pitch": 40,
                "velocity": 80,
                "duration": 0.10227272727272729,
                "tempo": 120.0
            },
            {
                "start_time": 1.6204545454545454,
                "end_time": 1.9227272727272726,
                "pitch": 43,
                "velocity": 80,
                "duration": 0.30227272727272725,
                "tempo": 120.0
            },
            {
                "start_time": 1.9227272727272726,
                "end_time": 2.0204545454545455,
                "pitch": 45,
                "velocity": 80,
                "duration": 0.09772727272727288,
                "tempo": 120.0
            },
            {
                "start_time": 2.2227272727272727,
                "end_time": 2.4227272727272724,
                "pitch": 40,
                "velocity": 80,
                "duration": 0.19999999999999973,
                "tempo": 120.0
            },
            {
                "start_time": 2.425,
                "end_time": 2.625,
                "pitch": 43,
                "velocity": 80,
                "duration": 0.20000000000000018,
                "tempo": 120.0
            },
            {
                "start_time": 2.627272727272727,
                "end_time": 2.8249999999999997,
                "pitch": 43,
                "velocity": 80,
                "duration": 0.19772727272727275,
                "tempo": 120.0
            },
            {
                "start_time": 2.827272727272727,
                "end_time": 2.9272727272727272,
                "pitch": 43,
                "velocity": 80,
                "duration": 0.10000000000000009,
                "tempo": 120.0
            },
            {
                "start_time": 2.9272727272727272,
                "end_time": 3.025,
                "pitch": 45,
                "velocity": 80,
                "duration": 0.09772727272727266,
                "tempo": 120.0
            },
            {
                "start_time": 3.127272727272727,
                "end_time": 3.227272727272727,
                "pitch": 40,
                "velocity": 80,
                "duration": 0.10000000000000009,
                "tempo": 120.0
            },
            {
                "start_time": 3.2295454545454545,
                "end_time": 3.527272727272727,
                "pitch": 43,
                "velocity": 80,
                "duration": 0.2977272727272724,
                "tempo": 120.0
            },
            {
                "start_time": 3.527272727272727,
                "end_time": 3.627272727272727,
                "pitch": 45,
                "velocity": 80,
                "duration": 0.10000000000000009,
                "tempo": 120.0
            },
            {
                "start_time": 3.829545454545454,
                "end_time": 4.027272727272727,
                "pitch": 40,
                "velocity": 80,
                "duration": 0.1977272727272732,
                "tempo": 120.0
            },
            {
                "start_time": 4.029545454545454,
                "end_time": 4.227272727272727,
                "pitch": 43,
                "velocity": 80,
                "duration": 0.1977272727272723,
                "tempo": 120.0
            },
            {
                "start_time": 4.227272727272727,
                "end_time": 4.427272727272727,
                "pitch": 43,
                "velocity": 80,
                "duration": 0.20000000000000018,
                "tempo": 120.0
            },
            {
                "start_time": 4.427272727272727,
                "end_time": 4.527272727272727,
                "pitch": 43,
                "velocity": 80,
                "duration": 0.10000000000000053,
                "tempo": 120.0
            },
            {
                "start_time": 4.529545454545454,
                "end_time": 4.629545454545454,
                "pitch": 45,
                "velocity": 80,
                "duration": 0.09999999999999964,
                "tempo": 120.0
            },
            {
                "start_time": 4.7295454545454545,
                "end_time": 4.831818181818182,
                "pitch": 40,
                "velocity": 80,
                "duration": 0.10227272727272751,
                "tempo": 120.0
            },
            {
                "start_time": 4.834090909090909,
                "end_time": 5.140909090909091,
                "pitch": 43,
                "velocity": 80,
                "duration": 0.30681818181818166,
                "tempo": 120.0
            },
            {
                "start_time": 5.140909090909091,
                "end_time": 5.24090909090909,
                "pitch": 45,
                "velocity": 80,
                "duration": 0.09999999999999964,
                "tempo": 120.0
            },
            {
                "start_time": 5.4409090909090905,
                "end_time": 5.636363636363636,
                "pitch": 40,
                "velocity": 80,
                "duration": 0.19545454545454533,
                "tempo": 120.0
            },
            {
                "start_time": 5.636363636363636,
                "end_time": 5.836363636363636,
                "pitch": 43,
                "velocity": 80,
                "duration": 0.20000000000000018,
                "tempo": 120.0
            },
            {
                "start_time": 5.836363636363636,
                "end_time": 6.038636363636363,
                "pitch": 43,
                "velocity": 80,
                "duration": 0.20227272727272716,
                "tempo": 120.0
            },
            {
                "start_time": 6.038636363636363,
                "end_time": 6.140909090909091,
                "pitch": 43,
                "velocity": 80,
                "duration": 0.10227272727272751,
                "tempo": 120.0
            },
            {
                "start_time": 6.140909090909091,
                "end_time": 6.245454545454545,
                "pitch": 45,
                "velocity": 80,
                "duration": 0.1045454545454545,
                "tempo": 120.0
            },
            {
                "start_time": 6.345454545454545,
                "end_time": 6.452272727272727,
                "pitch": 40,
                "velocity": 80,
                "duration": 0.10681818181818237,
                "tempo": 120.0
            },
            {
                "start_time": 6.452272727272727,
                "end_time": 6.752272727272727,
                "pitch": 43,
                "velocity": 80,
                "duration": 0.2999999999999998,
                "tempo": 120.0
            },
            {
                "start_time": 6.754545454545454,
                "end_time": 6.852272727272727,
                "pitch": 45,
                "velocity": 80,
                "duration": 0.09772727272727266,
                "tempo": 120.0
            },
            {
                "start_time": 7.054545454545454,
                "end_time": 7.256818181818182,
                "pitch": 40,
                "velocity": 80,
                "duration": 0.20227272727272805,
                "tempo": 120.0
            },
            {
                "start_time": 7.256818181818182,
                "end_time": 7.456818181818181,
                "pitch": 43,
                "velocity": 80,
                "duration": 0.1999999999999993,
                "tempo": 120.0
            },
            {
                "start_time": 7.456818181818181,
                "end_time": 7.656818181818181,
                "pitch": 43,
                "velocity": 80,
                "duration": 0.20000000000000018,
                "tempo": 120.0
            },
            {
                "start_time": 7.656818181818181,
                "end_time": 7.756818181818182,
                "pitch": 43,
                "velocity": 80,
                "duration": 0.10000000000000053,
                "tempo": 120.0
            },
            {
                "start_time": 7.756818181818182,
                "end_time": 7.8590909090909085,
                "pitch": 45,
                "velocity": 80,
                "duration": 0.10227272727272663,
                "tempo": 120.0
            },
            {
                "start_time": 7.959090909090909,
                "end_time": 8.061363636363636,
                "pitch": 40,
                "velocity": 80,
                "duration": 0.10227272727272663,
                "tempo": 120.0
            },
            {
                "start_time": 8.061363636363636,
                "end_time": 8.361363636363636,
                "pitch": 43,
                "velocity": 80,
                "duration": 0.3000000000000007,
                "tempo": 120.0
            },
            {
                "start_time": 8.361363636363636,
                "end_time": 8.459090909090909,
                "pitch": 45,
                "velocity": 80,
                "duration": 0.09772727272727266,
                "tempo": 120.0
            },
            {
                "start_time": 8.663636363636364,
                "end_time": 8.863636363636363,
                "pitch": 40,
                "velocity": 80,
                "duration": 0.1999999999999993,
                "tempo": 120.0
            },
            {
                "start_time": 8.86590909090909,
                "end_time": 9.06590909090909,
                "pitch": 43,
                "velocity": 80,
                "duration": 0.1999999999999993,
                "tempo": 120.0
            },
            {
                "start_time": 9.06590909090909,
                "end_time": 9.26590909090909,
                "pitch": 43,
                "velocity": 80,
                "duration": 0.20000000000000107,
                "tempo": 120.0
            },
            {
                "start_time": 9.268181818181818,
                "end_time": 9.368181818181817,
                "pitch": 43,
                "velocity": 80,
                "duration": 0.09999999999999964,
                "tempo": 120.0
            },
            {
                "start_time": 9.368181818181817,
                "end_time": 9.468181818181817,
                "pitch": 45,
                "velocity": 80,
                "duration": 0.09999999999999964,
                "tempo": 120.0
            },
            {
                "start_time": 9.570454545454545,
                "end_time": 9.670454545454545,
                "pitch": 40,
                "velocity": 80,
                "duration": 0.09999999999999964,
                "tempo": 120.0
            },
            {
                "start_time": 9.672727272727272,
                "end_time": 9.970454545454546,
                "pitch": 43,
                "velocity": 80,
                "duration": 0.29772727272727373,
                "tempo": 120.0
            },
            {
                "start_time": 9.972727272727273,
                "end_time": 10.070454545454545,
                "pitch": 45,
                "velocity": 80,
                "duration": 0.09772727272727266,
                "tempo": 120.0
            },
            {
                "start_time": 10.272727272727272,
                "end_time": 10.475,
                "pitch": 40,
                "velocity": 80,
                "duration": 0.20227272727272805,
                "tempo": 120.0
            },
            {
                "start_time": 10.475,
                "end_time": 10.677272727272726,
                "pitch": 43,
                "velocity": 80,
                "duration": 0.20227272727272627,
                "tempo": 120.0
            },
            {
                "start_time": 10.677272727272726,
                "end_time": 10.877272727272727,
                "pitch": 43,
                "velocity": 80,
                "duration": 0.20000000000000107,
                "tempo": 120.0
            },
            {
                "start_time": 10.879545454545454,
                "end_time": 10.979545454545454,
                "pitch": 43,
                "velocity": 80,
                "duration": 0.09999999999999964,
                "tempo": 120.0
            },
            {
                "start_time": 10.979545454545454,
                "end_time": 11.079545454545453,
                "pitch": 45,
                "velocity": 80,
                "duration": 0.09999999999999964,
                "tempo": 120.0
            },
            {
                "start_time": 11.181818181818182,
                "end_time": 11.281818181818181,
                "pitch": 40,
                "velocity": 80,
                "duration": 0.09999999999999964,
                "tempo": 120.0
            },
            {
                "start_time": 11.281818181818181,
                "end_time": 11.588636363636363,
                "pitch": 43,
                "velocity": 80,
                "duration": 0.30681818181818166,
                "tempo": 120.0
            },
            {
                "start_time": 11.59090909090909,
                "end_time": 11.693181818181818,
                "pitch": 45,
                "velocity": 80,
                "duration": 0.1022727272727284,
                "tempo": 120.0
            },
            {
                "start_time": 11.888636363636364,
                "end_time": 12.084090909090909,
                "pitch": 40,
                "velocity": 80,
                "duration": 0.19545454545454533,
                "tempo": 120.0
            },
            {
                "start_time": 12.084090909090909,
                "end_time": 12.284090909090908,
                "pitch": 43,
                "velocity": 80,
                "duration": 0.1999999999999993,
                "tempo": 120.0
            },
            {
                "start_time": 12.286363636363635,
                "end_time": 12.488636363636363,
                "pitch": 43,
                "velocity": 80,
                "duration": 0.20227272727272805,
                "tempo": 120.0
            },
            {
                "start_time": 12.488636363636363,
                "end_time": 12.588636363636363,
                "pitch": 43,
                "velocity": 80,
                "duration": 0.09999999999999964,
                "tempo": 120.0
            },
            {
                "start_time": 12.59090909090909,
                "end_time": 12.693181818181818,
                "pitch": 45,
                "velocity": 80,
                "duration": 0.1022727272727284,
                "tempo": 120.0
            },
            {
                "start_time": 12.795454545454545,
                "end_time": 12.899999999999999,
                "pitch": 40,
                "velocity": 80,
                "duration": 0.10454545454545361,
                "tempo": 120.0
            },
            {
                "start_time": 12.902272727272727,
                "end_time": 13.0,
                "pitch": 36,
                "velocity": 80,
                "duration": 0.09772727272727266,
                "tempo": 120.0
            },
            {
                "start_time": 13.0,
                "end_time": 13.097727272727273,
                "pitch": 43,
                "velocity": 80,
                "duration": 0.09772727272727266,
                "tempo": 120.0
            },
            {
                "start_time": 13.1,
                "end_time": 13.302272727272726,
                "pitch": 36,
                "velocity": 80,
                "duration": 0.20227272727272627,
                "tempo": 120.0
            },
            {
                "start_time": 13.302272727272726,
                "end_time": 13.399999999999999,
                "pitch": 38,
                "velocity": 80,
                "duration": 0.09772727272727266,
                "tempo": 120.0
            },
            {
                "start_time": 13.399999999999999,
                "end_time": 13.604545454545454,
                "pitch": 41,
                "velocity": 80,
                "duration": 0.20454545454545503,
                "tempo": 120.0
            },
            {
                "start_time": 13.604545454545454,
                "end_time": 13.706818181818182,
                "pitch": 43,
                "velocity": 80,
                "duration": 0.1022727272727284,
                "tempo": 120.0
            },
            {
                "start_time": 13.706818181818182,
                "end_time": 13.804545454545455,
                "pitch": 47,
                "velocity": 80,
                "duration": 0.09772727272727266,
                "tempo": 120.0
            },
            {
                "start_time": 13.806818181818182,
                "end_time": 14.006818181818181,
                "pitch": 48,
                "velocity": 80,
                "duration": 0.1999999999999993,
                "tempo": 120.0
            },
            {
                "start_time": 14.006818181818181,
                "end_time": 14.306818181818182,
                "pitch": 41,
                "velocity": 80,
                "duration": 0.3000000000000007,
                "tempo": 120.0
            },
            {
                "start_time": 14.309090909090909,
                "end_time": 14.506818181818181,
                "pitch": 43,
                "velocity": 80,
                "duration": 0.1977272727272723,
                "tempo": 120.0
            },
            {
                "start_time": 14.506818181818181,
                "end_time": 14.709090909090909,
                "pitch": 45,
                "velocity": 80,
                "duration": 0.20227272727272805,
                "tempo": 120.0
            },
            {
                "start_time": 14.911363636363635,
                "end_time": 15.009090909090908,
                "pitch": 50,
                "velocity": 80,
                "duration": 0.09772727272727266,
                "tempo": 120.0
            },
            {
                "start_time": 15.011363636363635,
                "end_time": 15.211363636363636,
                "pitch": 43,
                "velocity": 80,
                "duration": 0.20000000000000107,
                "tempo": 120.0
            },
            {
                "start_time": 15.211363636363636,
                "end_time": 15.31590909090909,
                "pitch": 45,
                "velocity": 80,
                "duration": 0.10454545454545361,
                "tempo": 120.0
            },
            {
                "start_time": 15.318181818181817,
                "end_time": 15.51590909090909,
                "pitch": 38,
                "velocity": 80,
                "duration": 0.19772727272727408,
                "tempo": 120.0
            },
            {
                "start_time": 15.518181818181818,
                "end_time": 15.61590909090909,
                "pitch": 33,
                "velocity": 80,
                "duration": 0.09772727272727266,
                "tempo": 120.0
            },
            {
                "start_time": 15.618181818181817,
                "end_time": 15.818181818181817,
                "pitch": 41,
                "velocity": 80,
                "duration": 0.1999999999999993,
                "tempo": 120.0
            },
            {
                "start_time": 15.818181818181817,
                "end_time": 15.920454545454545,
                "pitch": 33,
                "velocity": 80,
                "duration": 0.1022727272727284,
                "tempo": 120.0
            },
            {
                "start_time": 15.920454545454545,
                "end_time": 16.12272727272727,
                "pitch": 43,
                "velocity": 80,
                "duration": 0.20227272727272627,
                "tempo": 120.0
            },
            {
                "start_time": 16.12272727272727,
                "end_time": 16.220454545454544,
                "pitch": 36,
                "velocity": 80,
                "duration": 0.09772727272727266,
                "tempo": 120.0
            },
            {
                "start_time": 16.220454545454544,
                "end_time": 16.320454545454545,
                "pitch": 43,
                "velocity": 80,
                "duration": 0.10000000000000142,
                "tempo": 120.0
            },
            {
                "start_time": 16.32272727272727,
                "end_time": 16.522727272727273,
                "pitch": 36,
                "velocity": 80,
                "duration": 0.20000000000000284,
                "tempo": 120.0
            },
            {
                "start_time": 16.522727272727273,
                "end_time": 16.62272727272727,
                "pitch": 38,
                "velocity": 80,
                "duration": 0.09999999999999787,
                "tempo": 120.0
            },
            {
                "start_time": 16.62272727272727,
                "end_time": 16.82272727272727,
                "pitch": 41,
                "velocity": 80,
                "duration": 0.1999999999999993,
                "tempo": 120.0
            },
            {
                "start_time": 16.82272727272727,
                "end_time": 16.927272727272726,
                "pitch": 43,
                "velocity": 80,
                "duration": 0.10454545454545539,
                "tempo": 120.0
            },
            {
                "start_time": 16.927272727272726,
                "end_time": 17.025,
                "pitch": 47,
                "velocity": 80,
                "duration": 0.09772727272727266,
                "tempo": 120.0
            },
            {
                "start_time": 17.025,
                "end_time": 17.224999999999998,
                "pitch": 48,
                "velocity": 80,
                "duration": 0.1999999999999993,
                "tempo": 120.0
            },
            {
                "start_time": 17.224999999999998,
                "end_time": 17.527272727272727,
                "pitch": 41,
                "velocity": 80,
                "duration": 0.30227272727272947,
                "tempo": 120.0
            },
            {
                "start_time": 17.527272727272727,
                "end_time": 17.727272727272727,
                "pitch": 43,
                "velocity": 80,
                "duration": 0.1999999999999993,
                "tempo": 120.0
            },
            {
                "start_time": 17.727272727272727,
                "end_time": 17.929545454545455,
                "pitch": 45,
                "velocity": 80,
                "duration": 0.20227272727272805,
                "tempo": 120.0
            },
            {
                "start_time": 18.129545454545454,
                "end_time": 18.227272727272727,
                "pitch": 50,
                "velocity": 80,
                "duration": 0.09772727272727266,
                "tempo": 120.0
            },
            {
                "start_time": 18.229545454545455,
                "end_time": 18.429545454545455,
                "pitch": 43,
                "velocity": 80,
                "duration": 0.1999999999999993,
                "tempo": 120.0
            },
            {
                "start_time": 18.429545454545455,
                "end_time": 18.534090909090907,
                "pitch": 45,
                "velocity": 80,
                "duration": 0.10454545454545183,
                "tempo": 120.0
            },
            {
                "start_time": 18.534090909090907,
                "end_time": 18.73181818181818,
                "pitch": 38,
                "velocity": 80,
                "duration": 0.19772727272727408,
                "tempo": 120.0
            },
            {
                "start_time": 18.73409090909091,
                "end_time": 18.831818181818182,
                "pitch": 33,
                "velocity": 80,
                "duration": 0.09772727272727266,
                "tempo": 120.0
            },
            {
                "start_time": 18.834090909090907,
                "end_time": 19.03181818181818,
                "pitch": 41,
                "velocity": 80,
                "duration": 0.19772727272727408,
                "tempo": 120.0
            },
            {
                "start_time": 19.034090909090907,
                "end_time": 19.13181818181818,
                "pitch": 33,
                "velocity": 80,
                "duration": 0.09772727272727266,
                "tempo": 120.0
            },
            {
                "start_time": 19.134090909090908,
                "end_time": 19.331818181818182,
                "pitch": 43,
                "velocity": 80,
                "duration": 0.19772727272727408,
                "tempo": 120.0
            }
        ],
        "Electric Piano 1": [
            {
                "start_time": 0.015909090909090907,
                "end_time": 0.11136363636363636,
                "pitch": 60,
                "velocity": 101,
                "duration": 0.09545454545454546,
                "tempo": 120.0
            },
            {
                "start_time": 0.11363636363636363,
                "end_time": 0.21136363636363636,
                "pitch": 62,
                "velocity": 101,
                "duration": 0.09772727272727273,
                "tempo": 120.0
            },
            {
                "start_time": 0.21363636363636362,
                "end_time": 0.4113636363636363,
                "pitch": 69,
                "velocity": 101,
                "duration": 0.1977272727272727,
                "tempo": 120.0
            },
            {
                "start_time": 0.6136363636363636,
                "end_time": 0.9318181818181818,
                "pitch": 67,
                "velocity": 101,
                "duration": 0.3181818181818181,
                "tempo": 120.0
            },
            {
                "start_time": 0.9318181818181818,
                "end_time": 0.9477272727272726,
                "pitch": 67,
                "velocity": 101,
                "duration": 0.015909090909090873,
                "tempo": 120.0
            },
            {
                "start_time": 0.9477272727272726,
                "end_time": 1.0136363636363637,
                "pitch": 67,
                "velocity": 101,
                "duration": 0.06590909090909103,
                "tempo": 120.0
            },
            {
                "start_time": 1.0159090909090909,
                "end_time": 1.2159090909090908,
                "pitch": 65,
                "velocity": 101,
                "duration": 0.19999999999999996,
                "tempo": 120.0
            },
            {
                "start_time": 1.218181818181818,
                "end_time": 1.5999999999999999,
                "pitch": 67,
                "velocity": 101,
                "duration": 0.38181818181818183,
                "tempo": 120.0
            },
            {
                "start_time": 0.9318181818181818,
                "end_time": 1.5999999999999999,
                "pitch": 79,
                "velocity": 101,
                "duration": 0.6681818181818181,
                "tempo": 120.0
            },
            {
                "start_time": 1.5999999999999999,
                "end_time": 1.6159090909090907,
                "pitch": 67,
                "velocity": 101,
                "duration": 0.015909090909090873,
                "tempo": 120.0
            },
            {
                "start_time": 1.6181818181818182,
                "end_time": 1.7159090909090908,
                "pitch": 65,
                "velocity": 101,
                "duration": 0.09772727272727266,
                "tempo": 120.0
            },
            {
                "start_time": 1.718181818181818,
                "end_time": 1.8181818181818181,
                "pitch": 64,
                "velocity": 101,
                "duration": 0.10000000000000009,
                "tempo": 120.0
            },
            {
                "start_time": 1.9204545454545454,
                "end_time": 2.118181818181818,
                "pitch": 65,
                "velocity": 101,
                "duration": 0.19772727272727275,
                "tempo": 120.0
            },
            {
                "start_time": 2.120454545454545,
                "end_time": 2.2204545454545452,
                "pitch": 65,
                "velocity": 101,
                "duration": 0.10000000000000009,
                "tempo": 120.0
            },
            {
                "start_time": 2.2204545454545452,
                "end_time": 2.4204545454545454,
                "pitch": 67,
                "velocity": 101,
                "duration": 0.20000000000000018,
                "tempo": 120.0
            },
            {
                "start_time": 2.4204545454545454,
                "end_time": 2.5204545454545455,
                "pitch": 65,
                "velocity": 101,
                "duration": 0.10000000000000009,
                "tempo": 120.0
            },
            {
                "start_time": 2.5227272727272725,
                "end_time": 2.620454545454545,
                "pitch": 65,
                "velocity": 101,
                "duration": 0.09772727272727266,
                "tempo": 120.0
            },
            {
                "start_time": 2.6227272727272726,
                "end_time": 2.7227272727272727,
                "pitch": 64,
                "velocity": 101,
                "duration": 0.10000000000000009,
                "tempo": 120.0
            },
            {
                "start_time": 2.7227272727272727,
                "end_time": 2.8227272727272728,
                "pitch": 62,
                "velocity": 101,
                "duration": 0.10000000000000009,
                "tempo": 120.0
            },
            {
                "start_time": 2.925,
                "end_time": 3.0227272727272725,
                "pitch": 60,
                "velocity": 101,
                "duration": 0.09772727272727266,
                "tempo": 120.0
            },
            {
                "start_time": 3.025,
                "end_time": 3.2227272727272727,
                "pitch": 62,
                "velocity": 101,
                "duration": 0.19772727272727275,
                "tempo": 120.0
            },
            {
                "start_time": 3.2249999999999996,
                "end_time": 3.3227272727272728,
                "pitch": 62,
                "velocity": 101,
                "duration": 0.0977272727272731,
                "tempo": 120.0
            },
            {
                "start_time": 3.3249999999999997,
                "end_time": 3.4227272727272724,
                "pitch": 60,
                "velocity": 101,
                "duration": 0.09772727272727266,
                "tempo": 120.0
            },
            {
                "start_time": 3.425,
                "end_time": 3.5227272727272725,
                "pitch": 57,
                "velocity": 101,
                "duration": 0.09772727272727266,
                "tempo": 120.0
            },
            {
                "start_time": 3.525,
                "end_time": 3.625,
                "pitch": 62,
                "velocity": 101,
                "duration": 0.10000000000000009,
                "tempo": 120.0
            },
            {
                "start_time": 3.625,
                "end_time": 3.7227272727272727,
                "pitch": 60,
                "velocity": 101,
                "duration": 0.09772727272727266,
                "tempo": 120.0
            },
            {
                "start_time": 3.7249999999999996,
                "end_time": 3.8249999999999997,
                "pitch": 57,
                "velocity": 101,
                "duration": 0.10000000000000009,
                "tempo": 120.0
            },
            {
                "start_time": 3.8249999999999997,
                "end_time": 3.925,
                "pitch": 62,
                "velocity": 101,
                "duration": 0.10000000000000009,
                "tempo": 120.0
            },
            {
                "start_time": 3.925,
                "end_time": 4.0249999999999995,
                "pitch": 60,
                "velocity": 101,
                "duration": 0.09999999999999964,
                "tempo": 120.0
            },
            {
                "start_time": 4.0249999999999995,
                "end_time": 4.125,
                "pitch": 62,
                "velocity": 101,
                "duration": 0.10000000000000053,
                "tempo": 120.0
            },
            {
                "start_time": 4.127272727272727,
                "end_time": 4.225,
                "pitch": 62,
                "velocity": 101,
                "duration": 0.09772727272727266,
                "tempo": 120.0
            },
            {
                "start_time": 4.325,
                "end_time": 4.425,
                "pitch": 64,
                "velocity": 101,
                "duration": 0.09999999999999964,
                "tempo": 120.0
            },
            {
                "start_time": 4.427272727272727,
                "end_time": 4.5249999999999995,
                "pitch": 64,
                "velocity": 101,
                "duration": 0.09772727272727266,
                "tempo": 120.0
            },
            {
                "start_time": 4.627272727272727,
                "end_time": 4.829545454545454,
                "pitch": 65,
                "velocity": 101,
                "duration": 0.20227272727272716,
                "tempo": 120.0
            },
            {
                "start_time": 4.829545454545454,
                "end_time": 4.931818181818182,
                "pitch": 67,
                "velocity": 101,
                "duration": 0.10227272727272751,
                "tempo": 120.0
            },
            {
                "start_time": 4.931818181818182,
                "end_time": 5.034090909090909,
                "pitch": 69,
                "velocity": 101,
                "duration": 0.10227272727272751,
                "tempo": 120.0
            },
            {
                "start_time": 5.138636363636364,
                "end_time": 5.238636363636363,
                "pitch": 67,
                "velocity": 101,
                "duration": 0.09999999999999964,
                "tempo": 120.0
            },
            {
                "start_time": 5.24090909090909,
                "end_time": 5.336363636363636,
                "pitch": 69,
                "velocity": 101,
                "duration": 0.09545454545454568,
                "tempo": 120.0
            },
            {
                "start_time": 5.4363636363636365,
                "end_time": 5.631818181818182,
                "pitch": 67,
                "velocity": 101,
                "duration": 0.19545454545454533,
                "tempo": 120.0
            },
            {
                "start_time": 5.634090909090909,
                "end_time": 5.7340909090909085,
                "pitch": 72,
                "velocity": 101,
                "duration": 0.09999999999999964,
                "tempo": 120.0
            },
            {
                "start_time": 5.7340909090909085,
                "end_time": 5.834090909090909,
                "pitch": 72,
                "velocity": 101,
                "duration": 0.10000000000000053,
                "tempo": 120.0
            },
            {
                "start_time": 5.9363636363636365,
                "end_time": 6.036363636363636,
                "pitch": 74,
                "velocity": 101,
                "duration": 0.09999999999999964,
                "tempo": 120.0
            },
            {
                "start_time": 6.036363636363636,
                "end_time": 6.138636363636364,
                "pitch": 74,
                "velocity": 101,
                "duration": 0.10227272727272751,
                "tempo": 120.0
            },
            {
                "start_time": 6.243181818181818,
                "end_time": 6.447727272727272,
                "pitch": 69,
                "velocity": 101,
                "duration": 0.20454545454545414,
                "tempo": 120.0
            },
            {
                "start_time": 6.449999999999999,
                "end_time": 6.547727272727273,
                "pitch": 74,
                "velocity": 101,
                "duration": 0.09772727272727355,
                "tempo": 120.0
            },
            {
                "start_time": 6.55,
                "end_time": 6.6477272727272725,
                "pitch": 72,
                "velocity": 101,
                "duration": 0.09772727272727266,
                "tempo": 120.0
            },
            {
                "start_time": 6.6499999999999995,
                "end_time": 6.75,
                "pitch": 69,
                "velocity": 101,
                "duration": 0.10000000000000053,
                "tempo": 120.0
            },
            {
                "start_time": 6.75,
                "end_time": 6.949999999999999,
                "pitch": 67,
                "velocity": 101,
                "duration": 0.1999999999999993,
                "tempo": 120.0
            },
            {
                "start_time": 6.952272727272727,
                "end_time": 7.052272727272727,
                "pitch": 67,
                "velocity": 101,
                "duration": 0.09999999999999964,
                "tempo": 120.0
            },
            {
                "start_time": 7.052272727272727,
                "end_time": 7.252272727272727,
                "pitch": 69,
                "velocity": 101,
                "duration": 0.20000000000000018,
                "tempo": 120.0
            },
            {
                "start_time": 7.254545454545454,
                "end_time": 7.454545454545454,
                "pitch": 67,
                "velocity": 101,
                "duration": 0.20000000000000018,
                "tempo": 120.0
            },
            {
                "start_time": 7.554545454545454,
                "end_time": 7.754545454545454,
                "pitch": 65,
                "velocity": 101,
                "duration": 0.20000000000000018,
                "tempo": 120.0
            },
            {
                "start_time": 7.8568181818181815,
                "end_time": 8.056818181818182,
                "pitch": 67,
                "velocity": 101,
                "duration": 0.20000000000000018,
                "tempo": 120.0
            },
            {
                "start_time": 8.059090909090909,
                "end_time": 8.156818181818181,
                "pitch": 65,
                "velocity": 101,
                "duration": 0.09772727272727266,
                "tempo": 120.0
            },
            {
                "start_time": 8.159090909090908,
                "end_time": 8.256818181818181,
                "pitch": 64,
                "velocity": 101,
                "duration": 0.09772727272727266,
                "tempo": 120.0
            },
            {
                "start_time": 8.35909090909091,
                "end_time": 8.559090909090909,
                "pitch": 65,
                "velocity": 101,
                "duration": 0.1999999999999993,
                "tempo": 120.0
            },
            {
                "start_time": 8.559090909090909,
                "end_time": 8.659090909090908,
                "pitch": 65,
                "velocity": 101,
                "duration": 0.09999999999999964,
                "tempo": 120.0
            },
            {
                "start_time": 8.661363636363635,
                "end_time": 8.861363636363636,
                "pitch": 67,
                "velocity": 101,
                "duration": 0.20000000000000107,
                "tempo": 120.0
            },
            {
                "start_time": 8.861363636363636,
                "end_time": 8.961363636363636,
                "pitch": 65,
                "velocity": 101,
                "duration": 0.09999999999999964,
                "tempo": 120.0
            },
            {
                "start_time": 8.963636363636363,
                "end_time": 9.061363636363636,
                "pitch": 65,
                "velocity": 101,
                "duration": 0.09772727272727266,
                "tempo": 120.0
            },
            {
                "start_time": 9.063636363636363,
                "end_time": 9.163636363636364,
                "pitch": 64,
                "velocity": 101,
                "duration": 0.10000000000000142,
                "tempo": 120.0
            },
            {
                "start_time": 9.163636363636364,
                "end_time": 9.263636363636364,
                "pitch": 62,
                "velocity": 101,
                "duration": 0.09999999999999964,
                "tempo": 120.0
            },
            {
                "start_time": 9.36590909090909,
                "end_time": 9.46590909090909,
                "pitch": 60,
                "velocity": 101,
                "duration": 0.09999999999999964,
                "tempo": 120.0
            },
            {
                "start_time": 9.468181818181817,
                "end_time": 9.668181818181818,
                "pitch": 62,
                "velocity": 101,
                "duration": 0.20000000000000107,
                "tempo": 120.0
            },
            {
                "start_time": 9.668181818181818,
                "end_time": 9.76590909090909,
                "pitch": 62,
                "velocity": 101,
                "duration": 0.09772727272727266,
                "tempo": 120.0
            },
            {
                "start_time": 9.768181818181818,
                "end_time": 9.868181818181817,
                "pitch": 64,
                "velocity": 101,
                "duration": 0.09999999999999964,
                "tempo": 120.0
            },
            {
                "start_time": 9.968181818181817,
                "end_time": 10.068181818181818,
                "pitch": 62,
                "velocity": 101,
                "duration": 0.10000000000000142,
                "tempo": 120.0
            },
            {
                "start_time": 10.068181818181818,
                "end_time": 10.168181818181818,
                "pitch": 64,
                "velocity": 101,
                "duration": 0.09999999999999964,
                "tempo": 120.0
            },
            {
                "start_time": 10.270454545454545,
                "end_time": 10.470454545454546,
                "pitch": 57,
                "velocity": 101,
                "duration": 0.20000000000000107,
                "tempo": 120.0
            },
            {
                "start_time": 10.472727272727273,
                "end_time": 10.572727272727272,
                "pitch": 65,
                "velocity": 101,
                "duration": 0.09999999999999964,
                "tempo": 120.0
            },
            {
                "start_time": 10.572727272727272,
                "end_time": 10.672727272727272,
                "pitch": 62,
                "velocity": 101,
                "duration": 0.09999999999999964,
                "tempo": 120.0
            },
            {
                "start_time": 10.674999999999999,
                "end_time": 10.772727272727272,
                "pitch": 57,
                "velocity": 101,
                "duration": 0.09772727272727266,
                "tempo": 120.0
            },
            {
                "start_time": 10.775,
                "end_time": 10.875,
                "pitch": 67,
                "velocity": 101,
                "duration": 0.09999999999999964,
                "tempo": 120.0
            },
            {
                "start_time": 10.875,
                "end_time": 10.975,
                "pitch": 62,
                "velocity": 101,
                "duration": 0.09999999999999964,
                "tempo": 120.0
            },
            {
                "start_time": 10.977272727272727,
                "end_time": 11.075,
                "pitch": 57,
                "velocity": 101,
                "duration": 0.09772727272727266,
                "tempo": 120.0
            },
            {
                "start_time": 11.077272727272726,
                "end_time": 11.277272727272727,
                "pitch": 69,
                "velocity": 101,
                "duration": 0.20000000000000107,
                "tempo": 120.0
            },
            {
                "start_time": 11.279545454545454,
                "end_time": 11.379545454545454,
                "pitch": 71,
                "velocity": 101,
                "duration": 0.09999999999999964,
                "tempo": 120.0
            },
            {
                "start_time": 11.381818181818181,
                "end_time": 11.48181818181818,
                "pitch": 72,
                "velocity": 101,
                "duration": 0.09999999999999964,
                "tempo": 120.0
            },
            {
                "start_time": 11.48409090909091,
                "end_time": 11.586363636363636,
                "pitch": 71,
                "velocity": 101,
                "duration": 0.10227272727272663,
                "tempo": 120.0
            },
            {
                "start_time": 11.586363636363636,
                "end_time": 11.688636363636363,
                "pitch": 72,
                "velocity": 101,
                "duration": 0.10227272727272663,
                "tempo": 120.0
            },
            {
                "start_time": 11.69090909090909,
                "end_time": 11.884090909090908,
                "pitch": 74,
                "velocity": 101,
                "duration": 0.19318181818181834,
                "tempo": 120.0
            },
            {
                "start_time": 11.886363636363635,
                "end_time": 11.98181818181818,
                "pitch": 76,
                "velocity": 101,
                "duration": 0.09545454545454568,
                "tempo": 120.0
            },
            {
                "start_time": 11.98409090909091,
                "end_time": 12.081818181818182,
                "pitch": 64,
                "velocity": 101,
                "duration": 0.09772727272727266,
                "tempo": 120.0
            },
            {
                "start_time": 12.184090909090909,
                "end_time": 12.281818181818181,
                "pitch": 64,
                "velocity": 101,
                "duration": 0.09772727272727266,
                "tempo": 120.0
            },
            {
                "start_time": 12.284090909090908,
                "end_time": 12.48409090909091,
                "pitch": 67,
                "velocity": 101,
                "duration": 0.20000000000000107,
                "tempo": 120.0
            },
            {
                "start_time": 12.486363636363636,
                "end_time": 12.69090909090909,
                "pitch": 69,
                "velocity": 101,
                "duration": 0.20454545454545325,
                "tempo": 120.0
            },
            {
                "start_time": 13.704545454545453,
                "end_time": 13.804545454545455,
                "pitch": 67,
                "velocity": 40,
                "duration": 0.10000000000000142,
                "tempo": 120.0
            },
            {
                "start_time": 13.804545454545455,
                "end_time": 13.904545454545454,
                "pitch": 65,
                "velocity": 40,
                "duration": 0.09999999999999964,
                "tempo": 120.0
            },
            {
                "start_time": 13.904545454545454,
                "end_time": 14.004545454545454,
                "pitch": 64,
                "velocity": 40,
                "duration": 0.09999999999999964,
                "tempo": 120.0
            },
            {
                "start_time": 14.004545454545454,
                "end_time": 14.10681818181818,
                "pitch": 62,
                "velocity": 40,
                "duration": 0.10227272727272663,
                "tempo": 120.0
            },
            {
                "start_time": 14.10681818181818,
                "end_time": 14.306818181818182,
                "pitch": 60,
                "velocity": 40,
                "duration": 0.20000000000000107,
                "tempo": 120.0
            },
            {
                "start_time": 14.306818181818182,
                "end_time": 14.404545454545454,
                "pitch": 62,
                "velocity": 40,
                "duration": 0.09772727272727266,
                "tempo": 120.0
            },
            {
                "start_time": 14.406818181818181,
                "end_time": 14.70681818181818,
                "pitch": 57,
                "velocity": 40,
                "duration": 0.29999999999999893,
                "tempo": 120.0
            },
            {
                "start_time": 15.313636363636363,
                "end_time": 15.513636363636364,
                "pitch": 48,
                "velocity": 40,
                "duration": 0.20000000000000107,
                "tempo": 120.0
            },
            {
                "start_time": 15.51590909090909,
                "end_time": 15.613636363636363,
                "pitch": 67,
                "velocity": 40,
                "duration": 0.09772727272727266,
                "tempo": 120.0
            },
            {
                "start_time": 15.61590909090909,
                "end_time": 15.71590909090909,
                "pitch": 71,
                "velocity": 40,
                "duration": 0.09999999999999964,
                "tempo": 120.0
            },
            {
                "start_time": 15.718181818181817,
                "end_time": 15.81590909090909,
                "pitch": 65,
                "velocity": 40,
                "duration": 0.09772727272727266,
                "tempo": 120.0
            },
            {
                "start_time": 15.818181818181817,
                "end_time": 15.918181818181818,
                "pitch": 69,
                "velocity": 40,
                "duration": 0.10000000000000142,
                "tempo": 120.0
            },
            {
                "start_time": 15.918181818181818,
                "end_time": 16.018181818181816,
                "pitch": 64,
                "velocity": 40,
                "duration": 0.09999999999999787,
                "tempo": 120.0
            },
            {
                "start_time": 16.018181818181816,
                "end_time": 16.118181818181817,
                "pitch": 67,
                "velocity": 40,
                "duration": 0.10000000000000142,
                "tempo": 120.0
            },
            {
                "start_time": 16.925,
                "end_time": 17.022727272727273,
                "pitch": 67,
                "velocity": 40,
                "duration": 0.09772727272727266,
                "tempo": 120.0
            },
            {
                "start_time": 17.025,
                "end_time": 17.12272727272727,
                "pitch": 65,
                "velocity": 40,
                "duration": 0.09772727272727266,
                "tempo": 120.0
            },
            {
                "start_time": 17.125,
                "end_time": 17.222727272727273,
                "pitch": 64,
                "velocity": 40,
                "duration": 0.09772727272727266,
                "tempo": 120.0
            },
            {
                "start_time": 17.222727272727273,
                "end_time": 17.32272727272727,
                "pitch": 62,
                "velocity": 40,
                "duration": 0.09999999999999787,
                "tempo": 120.0
            },
            {
                "start_time": 17.325,
                "end_time": 17.525,
                "pitch": 60,
                "velocity": 40,
                "duration": 0.1999999999999993,
                "tempo": 120.0
            },
            {
                "start_time": 17.525,
                "end_time": 17.625,
                "pitch": 62,
                "velocity": 40,
                "duration": 0.10000000000000142,
                "tempo": 120.0
            },
            {
                "start_time": 17.627272727272725,
                "end_time": 17.927272727272726,
                "pitch": 57,
                "velocity": 40,
                "duration": 0.3000000000000007,
                "tempo": 120.0
            },
            {
                "start_time": 18.53181818181818,
                "end_time": 18.729545454545455,
                "pitch": 48,
                "velocity": 40,
                "duration": 0.19772727272727408,
                "tempo": 120.0
            },
            {
                "start_time": 18.73181818181818,
                "end_time": 18.829545454545453,
                "pitch": 67,
                "velocity": 40,
                "duration": 0.09772727272727266,
                "tempo": 120.0
            },
            {
                "start_time": 18.831818181818182,
                "end_time": 18.929545454545455,
                "pitch": 71,
                "velocity": 40,
                "duration": 0.09772727272727266,
                "tempo": 120.0
            },
            {
                "start_time": 18.93181818181818,
                "end_time": 19.029545454545453,
                "pitch": 65,
                "velocity": 40,
                "duration": 0.09772727272727266,
                "tempo": 120.0
            },
            {
                "start_time": 19.03181818181818,
                "end_time": 19.13181818181818,
                "pitch": 69,
                "velocity": 40,
                "duration": 0.09999999999999787,
                "tempo": 120.0
            },
            {
                "start_time": 19.13181818181818,
                "end_time": 19.229545454545455,
                "pitch": 64,
                "velocity": 40,
                "duration": 0.09772727272727622,
                "tempo": 120.0
            },
            {
                "start_time": 19.23181818181818,
                "end_time": 19.331818181818182,
                "pitch": 67,
                "velocity": 40,
                "duration": 0.10000000000000142,
                "tempo": 120.0
            },
            {
                "start_time": 19.33863636363636,
                "end_time": 19.34318181818182,
                "pitch": 60,
                "velocity": 101,
                "duration": 0.004545454545457517,
                "tempo": 120.0
            }
        ]
    }
}