{
    "track_id": "23 Giant Thexder",
    "mood": "angry",
    "instruments": {
        "Trumpet": [
            {
                "start_time": 0.006818181818181818,
                "end_time": 1.8545454545454545,
                "pitch": 64,
                "velocity": 64,
                "duration": 1.8477272727272727,
                "tempo": 120.0
            },
            {
                "start_time": 1.893181818181818,
                "end_time": 3.815909090909091,
                "pitch": 65,
                "velocity": 64,
                "duration": 1.9227272727272728,
                "tempo": 120.0
            },
            {
                "start_time": 3.836363636363636,
                "end_time": 5.672727272727273,
                "pitch": 67,
                "velocity": 64,
                "duration": 1.8363636363636369,
                "tempo": 120.0
            },
            {
                "start_time": 5.6909090909090905,
                "end_time": 7.347727272727273,
                "pitch": 69,
                "velocity": 64,
                "duration": 1.6568181818181822,
                "tempo": 120.0
            },
            {
                "start_time": 7.368181818181818,
                "end_time": 7.468181818181818,
                "pitch": 62,
                "velocity": 80,
                "duration": 0.09999999999999964,
                "tempo": 120.0
            },
            {
                "start_time": 7.486363636363636,
                "end_time": 7.961363636363636,
                "pitch": 62,
                "velocity": 51,
                "duration": 0.47499999999999964,
                "tempo": 120.0
            },
            {
                "start_time": 7.995454545454545,
                "end_time": 8.093181818181817,
                "pitch": 62,
                "velocity": 80,
                "duration": 0.09772727272727177,
                "tempo": 120.0
            },
            {
                "start_time": 8.111363636363636,
                "end_time": 8.436363636363636,
                "pitch": 62,
                "velocity": 51,
                "duration": 0.3249999999999993,
                "tempo": 120.0
            },
            {
                "start_time": 8.470454545454546,
                "end_time": 8.570454545454545,
                "pitch": 62,
                "velocity": 80,
                "duration": 0.09999999999999964,
                "tempo": 120.0
            },
            {
                "start_time": 8.588636363636363,
                "end_time": 9.054545454545455,
                "pitch": 62,
                "velocity": 51,
                "duration": 0.4659090909090917,
                "tempo": 120.0
            },
            {
                "start_time": 9.072727272727272,
                "end_time": 9.170454545454545,
                "pitch": 62,
                "velocity": 80,
                "duration": 0.09772727272727266,
                "tempo": 120.0
            },
            {
                "start_time": 9.188636363636363,
                "end_time": 9.520454545454545,
                "pitch": 62,
                "velocity": 51,
                "duration": 0.331818181818182,
                "tempo": 120.0
            },
            {
                "start_time": 9.536363636363635,
                "end_time": 9.636363636363637,
                "pitch": 62,
                "velocity": 80,
                "duration": 0.10000000000000142,
                "tempo": 120.0
            },
            {
                "start_time": 9.652272727272727,
                "end_time": 10.254545454545454,
                "pitch": 62,
                "velocity": 51,
                "duration": 0.6022727272727266,
                "tempo": 120.0
            },
            {
                "start_time": 10.272727272727272,
                "end_time": 10.368181818181817,
                "pitch": 62,
                "velocity": 80,
                "duration": 0.09545454545454568,
                "tempo": 120.0
            },
            {
                "start_time": 10.386363636363637,
                "end_time": 10.84090909090909,
                "pitch": 62,
                "velocity": 51,
                "duration": 0.45454545454545325,
                "tempo": 120.0
            },
            {
                "start_time": 10.85909090909091,
                "end_time": 10.954545454545453,
                "pitch": 62,
                "velocity": 80,
                "duration": 0.0954545454545439,
                "tempo": 120.0
            },
            {
                "start_time": 10.988636363636363,
                "end_time": 11.322727272727272,
                "pitch": 62,
                "velocity": 51,
                "duration": 0.334090909090909,
                "tempo": 120.0
            },
            {
                "start_time": 11.338636363636363,
                "end_time": 11.436363636363636,
                "pitch": 62,
                "velocity": 80,
                "duration": 0.09772727272727266,
                "tempo": 120.0
            },
            {
                "start_time": 11.470454545454546,
                "end_time": 11.924999999999999,
                "pitch": 62,
                "velocity": 51,
                "duration": 0.45454545454545325,
                "tempo": 120.0
            },
            {
                "start_time": 11.943181818181818,
                "end_time": 12.038636363636362,
                "pitch": 62,
                "velocity": 80,
                "duration": 0.0954545454545439,
                "tempo": 120.0
            },
            {
                "start_time": 12.056818181818182,
                "end_time": 12.406818181818181,
                "pitch": 62,
                "velocity": 51,
                "duration": 0.34999999999999964,
                "tempo": 120.0
            },
            {
                "start_time": 12.424999999999999,
                "end_time": 12.522727272727272,
                "pitch": 62,
                "velocity": 80,
                "duration": 0.09772727272727266,
                "tempo": 120.0
            },
            {
                "start_time": 12.540909090909091,
                "end_time": 13.125,
                "pitch": 62,
                "velocity": 51,
                "duration": 0.584090909090909,
                "tempo": 120.0
            },
            {
                "start_time": 64.93863636363636,
                "end_time": 65.03181818181818,
                "pitch": 62,
                "velocity": 80,
                "duration": 0.0931818181818187,
                "tempo": 120.0
            }
        ],
        "Electric Piano 1": [
            {
                "start_time": 36.152272727272724,
                "end_time": 36.72727272727273,
                "pitch": 55,
                "velocity": 40,
                "duration": 0.5750000000000028,
                "tempo": 120.0
            },
            {
                "start_time": 36.76136363636363,
                "end_time": 37.225,
                "pitch": 57,
                "velocity": 40,
                "duration": 0.4636363636363683,
                "tempo": 120.0
            },
            {
                "start_time": 37.24318181818182,
                "end_time": 37.574999999999996,
                "pitch": 58,
                "velocity": 40,
                "duration": 0.33181818181817846,
                "tempo": 120.0
            },
            {
                "start_time": 37.611363636363635,
                "end_time": 38.17272727272727,
                "pitch": 57,
                "velocity": 40,
                "duration": 0.5613636363636374,
                "tempo": 120.0
            },
            {
                "start_time": 38.19090909090909,
                "end_time": 38.65,
                "pitch": 58,
                "velocity": 40,
                "duration": 0.45909090909091077,
                "tempo": 120.0
            },
            {
                "start_time": 38.668181818181814,
                "end_time": 39.018181818181816,
                "pitch": 60,
                "velocity": 40,
                "duration": 0.3500000000000014,
                "tempo": 120.0
            },
            {
                "start_time": 39.03636363636363,
                "end_time": 39.61363636363636,
                "pitch": 58,
                "velocity": 40,
                "duration": 0.577272727272728,
                "tempo": 120.0
            },
            {
                "start_time": 39.63181818181818,
                "end_time": 40.095454545454544,
                "pitch": 57,
                "velocity": 40,
                "duration": 0.4636363636363612,
                "tempo": 120.0
            },
            {
                "start_time": 40.12954545454545,
                "end_time": 40.461363636363636,
                "pitch": 53,
                "velocity": 40,
                "duration": 0.33181818181818556,
                "tempo": 120.0
            },
            {
                "start_time": 40.47954545454545,
                "end_time": 40.574999999999996,
                "pitch": 52,
                "velocity": 40,
                "duration": 0.0954545454545439,
                "tempo": 120.0
            },
            {
                "start_time": 40.60681818181818,
                "end_time": 40.699999999999996,
                "pitch": 55,
                "velocity": 40,
                "duration": 0.0931818181818187,
                "tempo": 120.0
            },
            {
                "start_time": 40.71818181818182,
                "end_time": 40.81136363636364,
                "pitch": 60,
                "velocity": 40,
                "duration": 0.0931818181818187,
                "tempo": 120.0
            },
            {
                "start_time": 40.82727272727273,
                "end_time": 40.925,
                "pitch": 52,
                "velocity": 40,
                "duration": 0.09772727272726911,
                "tempo": 120.0
            },
            {
                "start_time": 40.94090909090909,
                "end_time": 41.054545454545455,
                "pitch": 55,
                "velocity": 40,
                "duration": 0.11363636363636687,
                "tempo": 120.0
            },
            {
                "start_time": 41.07272727272727,
                "end_time": 41.17045454545455,
                "pitch": 60,
                "velocity": 40,
                "duration": 0.09772727272727622,
                "tempo": 120.0
            },
            {
                "start_time": 41.18863636363636,
                "end_time": 41.28636363636363,
                "pitch": 52,
                "velocity": 40,
                "duration": 0.09772727272726911,
                "tempo": 120.0
            },
            {
                "start_time": 41.30227272727272,
                "end_time": 41.402272727272724,
                "pitch": 55,
                "velocity": 40,
                "duration": 0.10000000000000142,
                "tempo": 120.0
            },
            {
                "start_time": 41.43636363636364,
                "end_time": 41.53636363636363,
                "pitch": 60,
                "velocity": 40,
                "duration": 0.09999999999999432,
                "tempo": 120.0
            },
            {
                "start_time": 41.554545454545455,
                "end_time": 41.65454545454545,
                "pitch": 52,
                "velocity": 40,
                "duration": 0.09999999999999432,
                "tempo": 120.0
            },
            {
                "start_time": 41.67272727272727,
                "end_time": 41.77045454545454,
                "pitch": 55,
                "velocity": 40,
                "duration": 0.09772727272726911,
                "tempo": 120.0
            },
            {
                "start_time": 41.788636363636364,
                "end_time": 41.88636363636363,
                "pitch": 60,
                "velocity": 40,
                "duration": 0.09772727272726911,
                "tempo": 120.0
            },
            {
                "start_time": 41.92272727272727,
                "end_time": 42.5,
                "pitch": 55,
                "velocity": 40,
                "duration": 0.577272727272728,
                "tempo": 120.0
            },
            {
                "start_time": 42.518181818181816,
                "end_time": 42.96363636363636,
                "pitch": 57,
                "velocity": 40,
                "duration": 0.4454545454545453,
                "tempo": 120.0
            },
            {
                "start_time": 42.97954545454545,
                "end_time": 43.32954545454545,
                "pitch": 58,
                "velocity": 40,
                "duration": 0.3500000000000014,
                "tempo": 120.0
            },
            {
                "start_time": 43.34772727272727,
                "end_time": 43.925,
                "pitch": 57,
                "velocity": 40,
                "duration": 0.577272727272728,
                "tempo": 120.0
            },
            {
                "start_time": 43.94318181818181,
                "end_time": 44.40681818181818,
                "pitch": 58,
                "velocity": 40,
                "duration": 0.4636363636363683,
                "tempo": 120.0
            },
            {
                "start_time": 44.44090909090909,
                "end_time": 44.77272727272727,
                "pitch": 60,
                "velocity": 40,
                "duration": 0.33181818181818556,
                "tempo": 120.0
            },
            {
                "start_time": 44.793181818181814,
                "end_time": 45.37272727272727,
                "pitch": 58,
                "velocity": 40,
                "duration": 0.5795454545454533,
                "tempo": 120.0
            },
            {
                "start_time": 45.39090909090909,
                "end_time": 45.84772727272727,
                "pitch": 57,
                "velocity": 40,
                "duration": 0.45681818181817846,
                "tempo": 120.0
            },
            {
                "start_time": 45.86590909090909,
                "end_time": 46.21363636363636,
                "pitch": 53,
                "velocity": 40,
                "duration": 0.3477272727272691,
                "tempo": 120.0
            },
            {
                "start_time": 46.23181818181818,
                "end_time": 46.33181818181818,
                "pitch": 58,
                "velocity": 40,
                "duration": 0.10000000000000142,
                "tempo": 120.0
            },
            {
                "start_time": 46.349999999999994,
                "end_time": 46.44772727272727,
                "pitch": 55,
                "velocity": 40,
                "duration": 0.09772727272727622,
                "tempo": 120.0
            },
            {
                "start_time": 46.465909090909086,
                "end_time": 46.56590909090909,
                "pitch": 50,
                "velocity": 40,
                "duration": 0.10000000000000142,
                "tempo": 120.0
            },
            {
                "start_time": 46.599999999999994,
                "end_time": 46.695454545454545,
                "pitch": 58,
                "velocity": 40,
                "duration": 0.09545454545455101,
                "tempo": 120.0
            },
            {
                "start_time": 46.71363636363636,
                "end_time": 46.81136363636364,
                "pitch": 55,
                "velocity": 40,
                "duration": 0.09772727272727622,
                "tempo": 120.0
            },
            {
                "start_time": 46.82954545454545,
                "end_time": 46.925,
                "pitch": 50,
                "velocity": 40,
                "duration": 0.0954545454545439,
                "tempo": 120.0
            },
            {
                "start_time": 46.94318181818181,
                "end_time": 47.054545454545455,
                "pitch": 58,
                "velocity": 40,
                "duration": 0.11136363636364166,
                "tempo": 120.0
            },
            {
                "start_time": 47.070454545454545,
                "end_time": 47.168181818181814,
                "pitch": 55,
                "velocity": 40,
                "duration": 0.09772727272726911,
                "tempo": 120.0
            },
            {
                "start_time": 47.18636363636364,
                "end_time": 47.28409090909091,
                "pitch": 50,
                "velocity": 40,
                "duration": 0.09772727272726911,
                "tempo": 120.0
            },
            {
                "start_time": 47.30227272727272,
                "end_time": 47.4,
                "pitch": 58,
                "velocity": 40,
                "duration": 0.09772727272727622,
                "tempo": 120.0
            },
            {
                "start_time": 47.434090909090905,
                "end_time": 47.53181818181818,
                "pitch": 55,
                "velocity": 40,
                "duration": 0.09772727272727622,
                "tempo": 120.0
            },
            {
                "start_time": 47.55,
                "end_time": 47.65,
                "pitch": 50,
                "velocity": 40,
                "duration": 0.10000000000000142,
                "tempo": 120.0
            },
            {
                "start_time": 47.67045454545454,
                "end_time": 48.24318181818182,
                "pitch": 50,
                "velocity": 51,
                "duration": 0.5727272727272776,
                "tempo": 120.0
            },
            {
                "start_time": 48.277272727272724,
                "end_time": 48.71818181818182,
                "pitch": 51,
                "velocity": 51,
                "duration": 0.4409090909090949,
                "tempo": 120.0
            },
            {
                "start_time": 48.752272727272725,
                "end_time": 49.084090909090904,
                "pitch": 54,
                "velocity": 51,
                "duration": 0.33181818181817846,
                "tempo": 120.0
            },
            {
                "start_time": 49.10454545454545,
                "end_time": 49.684090909090905,
                "pitch": 57,
                "velocity": 51,
                "duration": 0.5795454545454533,
                "tempo": 120.0
            },
            {
                "start_time": 49.70227272727273,
                "end_time": 50.15909090909091,
                "pitch": 55,
                "velocity": 51,
                "duration": 0.45681818181817846,
                "tempo": 120.0
            },
            {
                "start_time": 50.17727272727272,
                "end_time": 50.53636363636363,
                "pitch": 54,
                "velocity": 51,
                "duration": 0.35909090909090935,
                "tempo": 120.0
            },
            {
                "start_time": 50.55681818181818,
                "end_time": 51.12954545454545,
                "pitch": 50,
                "velocity": 51,
                "duration": 0.5727272727272705,
                "tempo": 120.0
            },
            {
                "start_time": 51.14772727272727,
                "end_time": 51.60681818181818,
                "pitch": 51,
                "velocity": 51,
                "duration": 0.45909090909090366,
                "tempo": 120.0
            },
            {
                "start_time": 51.625,
                "end_time": 51.965909090909086,
                "pitch": 54,
                "velocity": 51,
                "duration": 0.3409090909090864,
                "tempo": 120.0
            },
            {
                "start_time": 51.98181818181818,
                "end_time": 52.55681818181818,
                "pitch": 57,
                "velocity": 51,
                "duration": 0.5750000000000028,
                "tempo": 120.0
            },
            {
                "start_time": 52.590909090909086,
                "end_time": 53.05681818181818,
                "pitch": 55,
                "velocity": 51,
                "duration": 0.4659090909090935,
                "tempo": 120.0
            },
            {
                "start_time": 53.074999999999996,
                "end_time": 53.40909090909091,
                "pitch": 54,
                "velocity": 51,
                "duration": 0.33409090909091077,
                "tempo": 120.0
            },
            {
                "start_time": 53.44772727272727,
                "end_time": 53.490909090909085,
                "pitch": 54,
                "velocity": 51,
                "duration": 0.043181818181814435,
                "tempo": 120.0
            },
            {
                "start_time": 53.490909090909085,
                "end_time": 53.54090909090909,
                "pitch": 51,
                "velocity": 51,
                "duration": 0.05000000000000426,
                "tempo": 120.0
            },
            {
                "start_time": 53.44772727272727,
                "end_time": 53.559090909090905,
                "pitch": 55,
                "velocity": 51,
                "duration": 0.11136363636363455,
                "tempo": 120.0
            },
            {
                "start_time": 53.44772727272727,
                "end_time": 53.559090909090905,
                "pitch": 67,
                "velocity": 51,
                "duration": 0.11136363636363455,
                "tempo": 120.0
            },
            {
                "start_time": 53.559090909090905,
                "end_time": 53.60454545454545,
                "pitch": 54,
                "velocity": 51,
                "duration": 0.045454545454546746,
                "tempo": 120.0
            },
            {
                "start_time": 53.60454545454545,
                "end_time": 53.65454545454545,
                "pitch": 51,
                "velocity": 51,
                "duration": 0.04999999999999716,
                "tempo": 120.0
            },
            {
                "start_time": 53.559090909090905,
                "end_time": 53.67272727272727,
                "pitch": 55,
                "velocity": 51,
                "duration": 0.11363636363636687,
                "tempo": 120.0
            },
            {
                "start_time": 53.559090909090905,
                "end_time": 53.67272727272727,
                "pitch": 67,
                "velocity": 51,
                "duration": 0.11363636363636687,
                "tempo": 120.0
            },
            {
                "start_time": 53.67272727272727,
                "end_time": 53.71818181818182,
                "pitch": 54,
                "velocity": 51,
                "duration": 0.045454545454546746,
                "tempo": 120.0
            },
            {
                "start_time": 53.71818181818182,
                "end_time": 53.768181818181816,
                "pitch": 51,
                "velocity": 51,
                "duration": 0.04999999999999716,
                "tempo": 120.0
            },
            {
                "start_time": 53.67272727272727,
                "end_time": 53.78636363636363,
                "pitch": 55,
                "velocity": 51,
                "duration": 0.11363636363635976,
                "tempo": 120.0
            },
            {
                "start_time": 53.67272727272727,
                "end_time": 53.78636363636363,
                "pitch": 67,
                "velocity": 51,
                "duration": 0.11363636363635976,
                "tempo": 120.0
            },
            {
                "start_time": 53.78636363636363,
                "end_time": 53.83181818181818,
                "pitch": 54,
                "velocity": 64,
                "duration": 0.045454545454546746,
                "tempo": 120.0
            },
            {
                "start_time": 53.83181818181818,
                "end_time": 53.88181818181818,
                "pitch": 51,
                "velocity": 64,
                "duration": 0.05000000000000426,
                "tempo": 120.0
            },
            {
                "start_time": 53.78636363636363,
                "end_time": 53.918181818181814,
                "pitch": 55,
                "velocity": 64,
                "duration": 0.13181818181818272,
                "tempo": 120.0
            },
            {
                "start_time": 53.91590909090909,
                "end_time": 53.918181818181814,
                "pitch": 55,
                "velocity": 64,
                "duration": 0.0022727272727252057,
                "tempo": 120.0
            },
            {
                "start_time": 53.78636363636363,
                "end_time": 53.918181818181814,
                "pitch": 67,
                "velocity": 64,
                "duration": 0.13181818181818272,
                "tempo": 120.0
            },
            {
                "start_time": 53.918181818181814,
                "end_time": 53.96363636363636,
                "pitch": 54,
                "velocity": 64,
                "duration": 0.045454545454546746,
                "tempo": 120.0
            },
            {
                "start_time": 53.96363636363636,
                "end_time": 54.01363636363636,
                "pitch": 51,
                "velocity": 64,
                "duration": 0.04999999999999716,
                "tempo": 120.0
            },
            {
                "start_time": 53.918181818181814,
                "end_time": 54.03181818181818,
                "pitch": 67,
                "velocity": 64,
                "duration": 0.11363636363636687,
                "tempo": 120.0
            },
            {
                "start_time": 54.03181818181818,
                "end_time": 54.07727272727273,
                "pitch": 54,
                "velocity": 64,
                "duration": 0.045454545454546746,
                "tempo": 120.0
            },
            {
                "start_time": 54.07727272727273,
                "end_time": 54.127272727272725,
                "pitch": 51,
                "velocity": 64,
                "duration": 0.04999999999999716,
                "tempo": 120.0
            },
            {
                "start_time": 54.03181818181818,
                "end_time": 54.14545454545454,
                "pitch": 55,
                "velocity": 64,
                "duration": 0.11363636363635976,
                "tempo": 120.0
            },
            {
                "start_time": 54.03181818181818,
                "end_time": 54.14545454545454,
                "pitch": 67,
                "velocity": 64,
                "duration": 0.11363636363635976,
                "tempo": 120.0
            },
            {
                "start_time": 54.14545454545454,
                "end_time": 54.19090909090909,
                "pitch": 54,
                "velocity": 80,
                "duration": 0.045454545454546746,
                "tempo": 120.0
            },
            {
                "start_time": 54.19090909090909,
                "end_time": 54.240909090909085,
                "pitch": 51,
                "velocity": 80,
                "duration": 0.04999999999999716,
                "tempo": 120.0
            },
            {
                "start_time": 54.14545454545454,
                "end_time": 54.275,
                "pitch": 55,
                "velocity": 80,
                "duration": 0.12954545454545752,
                "tempo": 120.0
            },
            {
                "start_time": 54.14545454545454,
                "end_time": 54.275,
                "pitch": 67,
                "velocity": 80,
                "duration": 0.12954545454545752,
                "tempo": 120.0
            },
            {
                "start_time": 54.275,
                "end_time": 54.32272727272727,
                "pitch": 54,
                "velocity": 80,
                "duration": 0.04772727272727195,
                "tempo": 120.0
            },
            {
                "start_time": 54.32272727272727,
                "end_time": 54.37045454545454,
                "pitch": 51,
                "velocity": 80,
                "duration": 0.04772727272727195,
                "tempo": 120.0
            },
            {
                "start_time": 54.275,
                "end_time": 54.39090909090909,
                "pitch": 55,
                "velocity": 80,
                "duration": 0.11590909090909207,
                "tempo": 120.0
            },
            {
                "start_time": 54.38863636363636,
                "end_time": 54.39090909090909,
                "pitch": 55,
                "velocity": 80,
                "duration": 0.002272727272732311,
                "tempo": 120.0
            },
            {
                "start_time": 54.275,
                "end_time": 54.39090909090909,
                "pitch": 67,
                "velocity": 80,
                "duration": 0.11590909090909207,
                "tempo": 120.0
            },
            {
                "start_time": 54.39090909090909,
                "end_time": 54.43636363636363,
                "pitch": 54,
                "velocity": 80,
                "duration": 0.04545454545453964,
                "tempo": 120.0
            },
            {
                "start_time": 54.43636363636363,
                "end_time": 54.486363636363635,
                "pitch": 51,
                "velocity": 80,
                "duration": 0.05000000000000426,
                "tempo": 120.0
            },
            {
                "start_time": 54.39090909090909,
                "end_time": 54.50454545454545,
                "pitch": 67,
                "velocity": 80,
                "duration": 0.11363636363635976,
                "tempo": 120.0
            },
            {
                "start_time": 54.50454545454545,
                "end_time": 54.55,
                "pitch": 54,
                "velocity": 101,
                "duration": 0.045454545454546746,
                "tempo": 120.0
            },
            {
                "start_time": 54.55,
                "end_time": 54.60227272727273,
                "pitch": 51,
                "velocity": 101,
                "duration": 0.05227272727272947,
                "tempo": 120.0
            },
            {
                "start_time": 54.50454545454545,
                "end_time": 54.62045454545454,
                "pitch": 55,
                "velocity": 101,
                "duration": 0.11590909090909207,
                "tempo": 120.0
            },
            {
                "start_time": 54.50454545454545,
                "end_time": 54.62045454545454,
                "pitch": 67,
                "velocity": 101,
                "duration": 0.11590909090909207,
                "tempo": 120.0
            },
            {
                "start_time": 54.62045454545454,
                "end_time": 54.668181818181814,
                "pitch": 54,
                "velocity": 101,
                "duration": 0.04772727272727195,
                "tempo": 120.0
            },
            {
                "start_time": 54.668181818181814,
                "end_time": 54.71818181818182,
                "pitch": 51,
                "velocity": 101,
                "duration": 0.05000000000000426,
                "tempo": 120.0
            },
            {
                "start_time": 54.62045454545454,
                "end_time": 54.75454545454545,
                "pitch": 55,
                "velocity": 101,
                "duration": 0.13409090909090793,
                "tempo": 120.0
            },
            {
                "start_time": 54.62045454545454,
                "end_time": 54.75454545454545,
                "pitch": 67,
                "velocity": 101,
                "duration": 0.13409090909090793,
                "tempo": 120.0
            },
            {
                "start_time": 54.75454545454545,
                "end_time": 54.80227272727272,
                "pitch": 54,
                "velocity": 101,
                "duration": 0.04772727272727195,
                "tempo": 120.0
            },
            {
                "start_time": 54.80227272727272,
                "end_time": 54.85227272727273,
                "pitch": 51,
                "velocity": 101,
                "duration": 0.05000000000000426,
                "tempo": 120.0
            },
            {
                "start_time": 54.75454545454545,
                "end_time": 54.87045454545454,
                "pitch": 55,
                "velocity": 101,
                "duration": 0.11590909090909207,
                "tempo": 120.0
            },
            {
                "start_time": 54.75454545454545,
                "end_time": 54.87272727272727,
                "pitch": 67,
                "velocity": 101,
                "duration": 0.11818181818181728,
                "tempo": 120.0
            },
            {
                "start_time": 54.87045454545454,
                "end_time": 54.87272727272727,
                "pitch": 67,
                "velocity": 51,
                "duration": 0.0022727272727252057,
                "tempo": 120.0
            },
            {
                "start_time": 54.87272727272727,
                "end_time": 54.918181818181814,
                "pitch": 54,
                "velocity": 51,
                "duration": 0.045454545454546746,
                "tempo": 120.0
            },
            {
                "start_time": 54.918181818181814,
                "end_time": 54.965909090909086,
                "pitch": 51,
                "velocity": 51,
                "duration": 0.04772727272727195,
                "tempo": 120.0
            },
            {
                "start_time": 54.87045454545454,
                "end_time": 54.986363636363635,
                "pitch": 55,
                "velocity": 51,
                "duration": 0.11590909090909207,
                "tempo": 120.0
            },
            {
                "start_time": 54.98409090909091,
                "end_time": 54.986363636363635,
                "pitch": 55,
                "velocity": 51,
                "duration": 0.0022727272727252057,
                "tempo": 120.0
            },
            {
                "start_time": 54.986363636363635,
                "end_time": 55.03181818181818,
                "pitch": 54,
                "velocity": 51,
                "duration": 0.045454545454546746,
                "tempo": 120.0
            },
            {
                "start_time": 55.03181818181818,
                "end_time": 55.08181818181818,
                "pitch": 51,
                "velocity": 51,
                "duration": 0.04999999999999716,
                "tempo": 120.0
            },
            {
                "start_time": 54.986363636363635,
                "end_time": 55.099999999999994,
                "pitch": 67,
                "velocity": 51,
                "duration": 0.11363636363635976,
                "tempo": 120.0
            },
            {
                "start_time": 55.099999999999994,
                "end_time": 55.14545454545454,
                "pitch": 54,
                "velocity": 51,
                "duration": 0.045454545454546746,
                "tempo": 120.0
            },
            {
                "start_time": 55.14545454545454,
                "end_time": 55.19318181818181,
                "pitch": 51,
                "velocity": 51,
                "duration": 0.04772727272727195,
                "tempo": 120.0
            },
            {
                "start_time": 55.19318181818181,
                "end_time": 55.211363636363636,
                "pitch": 48,
                "velocity": 51,
                "duration": 0.018181818181822962,
                "tempo": 120.0
            },
            {
                "start_time": 55.099999999999994,
                "end_time": 55.22954545454545,
                "pitch": 55,
                "velocity": 51,
                "duration": 0.12954545454545752,
                "tempo": 120.0
            },
            {
                "start_time": 55.099999999999994,
                "end_time": 55.22954545454545,
                "pitch": 67,
                "velocity": 51,
                "duration": 0.12954545454545752,
                "tempo": 120.0
            },
            {
                "start_time": 55.22954545454545,
                "end_time": 55.277272727272724,
                "pitch": 54,
                "velocity": 64,
                "duration": 0.04772727272727195,
                "tempo": 120.0
            },
            {
                "start_time": 55.277272727272724,
                "end_time": 55.32727272727273,
                "pitch": 51,
                "velocity": 64,
                "duration": 0.05000000000000426,
                "tempo": 120.0
            },
            {
                "start_time": 55.22954545454545,
                "end_time": 55.34772727272727,
                "pitch": 55,
                "velocity": 64,
                "duration": 0.11818181818181728,
                "tempo": 120.0
            },
            {
                "start_time": 55.345454545454544,
                "end_time": 55.34772727272727,
                "pitch": 55,
                "velocity": 64,
                "duration": 0.0022727272727252057,
                "tempo": 120.0
            },
            {
                "start_time": 55.22954545454545,
                "end_time": 55.34772727272727,
                "pitch": 67,
                "velocity": 64,
                "duration": 0.11818181818181728,
                "tempo": 120.0
            },
            {
                "start_time": 55.34772727272727,
                "end_time": 55.393181818181816,
                "pitch": 54,
                "velocity": 64,
                "duration": 0.045454545454546746,
                "tempo": 120.0
            },
            {
                "start_time": 55.393181818181816,
                "end_time": 55.445454545454545,
                "pitch": 51,
                "velocity": 64,
                "duration": 0.05227272727272947,
                "tempo": 120.0
            },
            {
                "start_time": 55.34772727272727,
                "end_time": 55.46363636363636,
                "pitch": 67,
                "velocity": 64,
                "duration": 0.11590909090909207,
                "tempo": 120.0
            },
            {
                "start_time": 55.46363636363636,
                "end_time": 55.51136363636363,
                "pitch": 54,
                "velocity": 64,
                "duration": 0.04772727272727195,
                "tempo": 120.0
            },
            {
                "start_time": 55.51136363636363,
                "end_time": 55.56136363636363,
                "pitch": 51,
                "velocity": 64,
                "duration": 0.04999999999999716,
                "tempo": 120.0
            },
            {
                "start_time": 55.46363636363636,
                "end_time": 55.59772727272727,
                "pitch": 55,
                "velocity": 64,
                "duration": 0.13409090909090793,
                "tempo": 120.0
            },
            {
                "start_time": 55.46363636363636,
                "end_time": 55.59772727272727,
                "pitch": 67,
                "velocity": 64,
                "duration": 0.13409090909090793,
                "tempo": 120.0
            },
            {
                "start_time": 55.59772727272727,
                "end_time": 55.64545454545454,
                "pitch": 54,
                "velocity": 80,
                "duration": 0.04772727272727195,
                "tempo": 120.0
            },
            {
                "start_time": 55.64545454545454,
                "end_time": 55.695454545454545,
                "pitch": 51,
                "velocity": 80,
                "duration": 0.05000000000000426,
                "tempo": 120.0
            },
            {
                "start_time": 55.59772727272727,
                "end_time": 55.71363636363636,
                "pitch": 55,
                "velocity": 80,
                "duration": 0.11590909090909207,
                "tempo": 120.0
            },
            {
                "start_time": 55.59772727272727,
                "end_time": 55.71363636363636,
                "pitch": 67,
                "velocity": 80,
                "duration": 0.11590909090909207,
                "tempo": 120.0
            },
            {
                "start_time": 55.71363636363636,
                "end_time": 55.76136363636363,
                "pitch": 54,
                "velocity": 80,
                "duration": 0.04772727272727195,
                "tempo": 120.0
            },
            {
                "start_time": 55.76136363636363,
                "end_time": 55.81136363636363,
                "pitch": 51,
                "velocity": 80,
                "duration": 0.04999999999999716,
                "tempo": 120.0
            },
            {
                "start_time": 55.71363636363636,
                "end_time": 55.83181818181818,
                "pitch": 55,
                "velocity": 80,
                "duration": 0.11818181818181728,
                "tempo": 120.0
            },
            {
                "start_time": 55.71363636363636,
                "end_time": 55.83181818181818,
                "pitch": 67,
                "velocity": 80,
                "duration": 0.11818181818181728,
                "tempo": 120.0
            },
            {
                "start_time": 55.83181818181818,
                "end_time": 55.877272727272725,
                "pitch": 54,
                "velocity": 80,
                "duration": 0.045454545454546746,
                "tempo": 120.0
            },
            {
                "start_time": 55.877272727272725,
                "end_time": 55.929545454545455,
                "pitch": 51,
                "velocity": 80,
                "duration": 0.05227272727272947,
                "tempo": 120.0
            },
            {
                "start_time": 55.83181818181818,
                "end_time": 55.94772727272727,
                "pitch": 55,
                "velocity": 80,
                "duration": 0.11590909090909207,
                "tempo": 120.0
            },
            {
                "start_time": 55.83181818181818,
                "end_time": 55.94772727272727,
                "pitch": 67,
                "velocity": 80,
                "duration": 0.11590909090909207,
                "tempo": 120.0
            },
            {
                "start_time": 55.94772727272727,
                "end_time": 55.99318181818182,
                "pitch": 54,
                "velocity": 101,
                "duration": 0.045454545454546746,
                "tempo": 120.0
            },
            {
                "start_time": 55.99318181818182,
                "end_time": 56.04090909090909,
                "pitch": 51,
                "velocity": 101,
                "duration": 0.04772727272727195,
                "tempo": 120.0
            },
            {
                "start_time": 55.94772727272727,
                "end_time": 56.074999999999996,
                "pitch": 55,
                "velocity": 101,
                "duration": 0.1272727272727252,
                "tempo": 120.0
            },
            {
                "start_time": 55.94772727272727,
                "end_time": 56.074999999999996,
                "pitch": 67,
                "velocity": 101,
                "duration": 0.1272727272727252,
                "tempo": 120.0
            },
            {
                "start_time": 56.074999999999996,
                "end_time": 56.12045454545454,
                "pitch": 54,
                "velocity": 101,
                "duration": 0.045454545454546746,
                "tempo": 120.0
            },
            {
                "start_time": 56.12045454545454,
                "end_time": 56.168181818181814,
                "pitch": 51,
                "velocity": 101,
                "duration": 0.04772727272727195,
                "tempo": 120.0
            },
            {
                "start_time": 56.074999999999996,
                "end_time": 56.18636363636363,
                "pitch": 55,
                "velocity": 101,
                "duration": 0.11136363636363455,
                "tempo": 120.0
            },
            {
                "start_time": 56.184090909090905,
                "end_time": 56.18636363636363,
                "pitch": 55,
                "velocity": 101,
                "duration": 0.0022727272727252057,
                "tempo": 120.0
            },
            {
                "start_time": 56.074999999999996,
                "end_time": 56.18636363636363,
                "pitch": 67,
                "velocity": 101,
                "duration": 0.11136363636363455,
                "tempo": 120.0
            },
            {
                "start_time": 56.18636363636363,
                "end_time": 56.22954545454545,
                "pitch": 54,
                "velocity": 101,
                "duration": 0.04318181818182154,
                "tempo": 120.0
            },
            {
                "start_time": 56.22954545454545,
                "end_time": 56.27954545454545,
                "pitch": 51,
                "velocity": 101,
                "duration": 0.04999999999999716,
                "tempo": 120.0
            },
            {
                "start_time": 56.18636363636363,
                "end_time": 56.29772727272727,
                "pitch": 67,
                "velocity": 101,
                "duration": 0.11136363636364166,
                "tempo": 120.0
            },
            {
                "start_time": 56.29772727272727,
                "end_time": 56.34318181818182,
                "pitch": 54,
                "velocity": 51,
                "duration": 0.045454545454546746,
                "tempo": 120.0
            },
            {
                "start_time": 56.34318181818182,
                "end_time": 56.393181818181816,
                "pitch": 51,
                "velocity": 51,
                "duration": 0.04999999999999716,
                "tempo": 120.0
            },
            {
                "start_time": 56.29772727272727,
                "end_time": 56.429545454545455,
                "pitch": 55,
                "velocity": 51,
                "duration": 0.13181818181818272,
                "tempo": 120.0
            },
            {
                "start_time": 56.29772727272727,
                "end_time": 56.429545454545455,
                "pitch": 67,
                "velocity": 51,
                "duration": 0.13181818181818272,
                "tempo": 120.0
            },
            {
                "start_time": 56.429545454545455,
                "end_time": 56.47727272727273,
                "pitch": 54,
                "velocity": 51,
                "duration": 0.04772727272727195,
                "tempo": 120.0
            },
            {
                "start_time": 56.47727272727273,
                "end_time": 56.527272727272724,
                "pitch": 51,
                "velocity": 51,
                "duration": 0.04999999999999716,
                "tempo": 120.0
            },
            {
                "start_time": 56.429545454545455,
                "end_time": 56.54545454545454,
                "pitch": 55,
                "velocity": 51,
                "duration": 0.11590909090908497,
                "tempo": 120.0
            },
            {
                "start_time": 56.429545454545455,
                "end_time": 56.54545454545454,
                "pitch": 67,
                "velocity": 51,
                "duration": 0.11590909090908497,
                "tempo": 120.0
            },
            {
                "start_time": 56.54545454545454,
                "end_time": 56.59318181818182,
                "pitch": 54,
                "velocity": 51,
                "duration": 0.04772727272727906,
                "tempo": 120.0
            },
            {
                "start_time": 56.59318181818182,
                "end_time": 56.643181818181816,
                "pitch": 51,
                "velocity": 51,
                "duration": 0.04999999999999716,
                "tempo": 120.0
            },
            {
                "start_time": 56.54545454545454,
                "end_time": 56.663636363636364,
                "pitch": 55,
                "velocity": 51,
                "duration": 0.11818181818182438,
                "tempo": 120.0
            },
            {
                "start_time": 56.54545454545454,
                "end_time": 56.663636363636364,
                "pitch": 67,
                "velocity": 51,
                "duration": 0.11818181818182438,
                "tempo": 120.0
            },
            {
                "start_time": 56.663636363636364,
                "end_time": 56.711363636363636,
                "pitch": 54,
                "velocity": 64,
                "duration": 0.04772727272727195,
                "tempo": 120.0
            },
            {
                "start_time": 56.711363636363636,
                "end_time": 56.76136363636363,
                "pitch": 51,
                "velocity": 64,
                "duration": 0.04999999999999716,
                "tempo": 120.0
            },
            {
                "start_time": 56.663636363636364,
                "end_time": 56.77954545454545,
                "pitch": 55,
                "velocity": 64,
                "duration": 0.11590909090908497,
                "tempo": 120.0
            },
            {
                "start_time": 56.663636363636364,
                "end_time": 56.77954545454545,
                "pitch": 67,
                "velocity": 64,
                "duration": 0.11590909090908497,
                "tempo": 120.0
            },
            {
                "start_time": 56.77954545454545,
                "end_time": 56.82727272727273,
                "pitch": 54,
                "velocity": 64,
                "duration": 0.04772727272727906,
                "tempo": 120.0
            },
            {
                "start_time": 56.82727272727273,
                "end_time": 56.877272727272725,
                "pitch": 51,
                "velocity": 64,
                "duration": 0.04999999999999716,
                "tempo": 120.0
            },
            {
                "start_time": 56.77954545454545,
                "end_time": 56.913636363636364,
                "pitch": 55,
                "velocity": 64,
                "duration": 0.13409090909091503,
                "tempo": 120.0
            },
            {
                "start_time": 56.77954545454545,
                "end_time": 56.913636363636364,
                "pitch": 67,
                "velocity": 64,
                "duration": 0.13409090909091503,
                "tempo": 120.0
            },
            {
                "start_time": 56.913636363636364,
                "end_time": 56.961363636363636,
                "pitch": 54,
                "velocity": 64,
                "duration": 0.04772727272727195,
                "tempo": 120.0
            },
            {
                "start_time": 56.961363636363636,
                "end_time": 57.01136363636363,
                "pitch": 51,
                "velocity": 64,
                "duration": 0.04999999999999716,
                "tempo": 120.0
            },
            {
                "start_time": 56.913636363636364,
                "end_time": 57.03181818181818,
                "pitch": 55,
                "velocity": 64,
                "duration": 0.11818181818181728,
                "tempo": 120.0
            },
            {
                "start_time": 56.913636363636364,
                "end_time": 57.03181818181818,
                "pitch": 67,
                "velocity": 64,
                "duration": 0.11818181818181728,
                "tempo": 120.0
            },
            {
                "start_time": 57.03181818181818,
                "end_time": 57.07727272727273,
                "pitch": 54,
                "velocity": 80,
                "duration": 0.045454545454546746,
                "tempo": 120.0
            },
            {
                "start_time": 57.07727272727273,
                "end_time": 57.127272727272725,
                "pitch": 51,
                "velocity": 80,
                "duration": 0.04999999999999716,
                "tempo": 120.0
            },
            {
                "start_time": 57.03181818181818,
                "end_time": 57.14545454545454,
                "pitch": 55,
                "velocity": 80,
                "duration": 0.11363636363635976,
                "tempo": 120.0
            },
            {
                "start_time": 57.03181818181818,
                "end_time": 57.14545454545454,
                "pitch": 67,
                "velocity": 80,
                "duration": 0.11363636363635976,
                "tempo": 120.0
            },
            {
                "start_time": 57.14545454545454,
                "end_time": 57.19090909090909,
                "pitch": 54,
                "velocity": 80,
                "duration": 0.045454545454546746,
                "tempo": 120.0
            },
            {
                "start_time": 57.19090909090909,
                "end_time": 57.240909090909085,
                "pitch": 51,
                "velocity": 80,
                "duration": 0.04999999999999716,
                "tempo": 120.0
            },
            {
                "start_time": 57.14545454545454,
                "end_time": 57.275,
                "pitch": 55,
                "velocity": 80,
                "duration": 0.12954545454545752,
                "tempo": 120.0
            },
            {
                "start_time": 57.14545454545454,
                "end_time": 57.275,
                "pitch": 67,
                "velocity": 80,
                "duration": 0.12954545454545752,
                "tempo": 120.0
            },
            {
                "start_time": 57.275,
                "end_time": 57.320454545454545,
                "pitch": 54,
                "velocity": 80,
                "duration": 0.045454545454546746,
                "tempo": 120.0
            },
            {
                "start_time": 57.320454545454545,
                "end_time": 57.37045454545454,
                "pitch": 51,
                "velocity": 80,
                "duration": 0.04999999999999716,
                "tempo": 120.0
            },
            {
                "start_time": 57.275,
                "end_time": 57.39090909090909,
                "pitch": 55,
                "velocity": 80,
                "duration": 0.11590909090909207,
                "tempo": 120.0
            },
            {
                "start_time": 57.38863636363636,
                "end_time": 57.39090909090909,
                "pitch": 55,
                "velocity": 101,
                "duration": 0.002272727272732311,
                "tempo": 120.0
            },
            {
                "start_time": 57.275,
                "end_time": 57.39090909090909,
                "pitch": 67,
                "velocity": 80,
                "duration": 0.11590909090909207,
                "tempo": 120.0
            },
            {
                "start_time": 57.39090909090909,
                "end_time": 57.43636363636363,
                "pitch": 54,
                "velocity": 101,
                "duration": 0.04545454545453964,
                "tempo": 120.0
            },
            {
                "start_time": 57.43636363636363,
                "end_time": 57.486363636363635,
                "pitch": 51,
                "velocity": 101,
                "duration": 0.05000000000000426,
                "tempo": 120.0
            },
            {
                "start_time": 57.39090909090909,
                "end_time": 57.506818181818176,
                "pitch": 67,
                "velocity": 101,
                "duration": 0.11590909090908497,
                "tempo": 120.0
            },
            {
                "start_time": 57.506818181818176,
                "end_time": 57.55227272727272,
                "pitch": 54,
                "velocity": 101,
                "duration": 0.045454545454546746,
                "tempo": 120.0
            },
            {
                "start_time": 57.55227272727272,
                "end_time": 57.60454545454545,
                "pitch": 51,
                "velocity": 101,
                "duration": 0.05227272727272947,
                "tempo": 120.0
            },
            {
                "start_time": 57.506818181818176,
                "end_time": 57.62272727272727,
                "pitch": 55,
                "velocity": 101,
                "duration": 0.11590909090909207,
                "tempo": 120.0
            },
            {
                "start_time": 57.506818181818176,
                "end_time": 57.62272727272727,
                "pitch": 67,
                "velocity": 101,
                "duration": 0.11590909090909207,
                "tempo": 120.0
            },
            {
                "start_time": 57.62272727272727,
                "end_time": 57.67045454545454,
                "pitch": 54,
                "velocity": 101,
                "duration": 0.04772727272727195,
                "tempo": 120.0
            },
            {
                "start_time": 57.67045454545454,
                "end_time": 57.720454545454544,
                "pitch": 51,
                "velocity": 101,
                "duration": 0.05000000000000426,
                "tempo": 120.0
            },
            {
                "start_time": 57.62272727272727,
                "end_time": 57.756818181818176,
                "pitch": 55,
                "velocity": 101,
                "duration": 0.13409090909090793,
                "tempo": 120.0
            },
            {
                "start_time": 57.62272727272727,
                "end_time": 57.756818181818176,
                "pitch": 67,
                "velocity": 101,
                "duration": 0.13409090909090793,
                "tempo": 120.0
            },
            {
                "start_time": 57.756818181818176,
                "end_time": 57.80227272727272,
                "pitch": 54,
                "velocity": 51,
                "duration": 0.045454545454546746,
                "tempo": 120.0
            },
            {
                "start_time": 57.80227272727272,
                "end_time": 57.85227272727273,
                "pitch": 51,
                "velocity": 51,
                "duration": 0.05000000000000426,
                "tempo": 120.0
            },
            {
                "start_time": 57.756818181818176,
                "end_time": 57.87045454545454,
                "pitch": 55,
                "velocity": 51,
                "duration": 0.11363636363636687,
                "tempo": 120.0
            },
            {
                "start_time": 57.756818181818176,
                "end_time": 57.87045454545454,
                "pitch": 67,
                "velocity": 51,
                "duration": 0.11363636363636687,
                "tempo": 120.0
            },
            {
                "start_time": 57.87045454545454,
                "end_time": 57.91590909090909,
                "pitch": 54,
                "velocity": 51,
                "duration": 0.045454545454546746,
                "tempo": 120.0
            },
            {
                "start_time": 57.91590909090909,
                "end_time": 57.965909090909086,
                "pitch": 51,
                "velocity": 51,
                "duration": 0.04999999999999716,
                "tempo": 120.0
            },
            {
                "start_time": 57.87045454545454,
                "end_time": 57.98409090909091,
                "pitch": 55,
                "velocity": 51,
                "duration": 0.11363636363636687,
                "tempo": 120.0
            },
            {
                "start_time": 57.87045454545454,
                "end_time": 57.98409090909091,
                "pitch": 67,
                "velocity": 51,
                "duration": 0.11363636363636687,
                "tempo": 120.0
            },
            {
                "start_time": 57.98409090909091,
                "end_time": 58.03181818181818,
                "pitch": 54,
                "velocity": 51,
                "duration": 0.04772727272727195,
                "tempo": 120.0
            },
            {
                "start_time": 58.03181818181818,
                "end_time": 58.07954545454545,
                "pitch": 51,
                "velocity": 51,
                "duration": 0.04772727272727195,
                "tempo": 120.0
            },
            {
                "start_time": 57.98409090909091,
                "end_time": 58.099999999999994,
                "pitch": 55,
                "velocity": 51,
                "duration": 0.11590909090908497,
                "tempo": 120.0
            },
            {
                "start_time": 57.98409090909091,
                "end_time": 58.099999999999994,
                "pitch": 67,
                "velocity": 51,
                "duration": 0.11590909090908497,
                "tempo": 120.0
            },
            {
                "start_time": 58.099999999999994,
                "end_time": 58.14545454545454,
                "pitch": 54,
                "velocity": 64,
                "duration": 0.045454545454546746,
                "tempo": 120.0
            },
            {
                "start_time": 58.14545454545454,
                "end_time": 58.19318181818181,
                "pitch": 51,
                "velocity": 64,
                "duration": 0.04772727272727195,
                "tempo": 120.0
            },
            {
                "start_time": 58.19318181818181,
                "end_time": 58.211363636363636,
                "pitch": 48,
                "velocity": 64,
                "duration": 0.018181818181822962,
                "tempo": 120.0
            },
            {
                "start_time": 58.099999999999994,
                "end_time": 58.22954545454545,
                "pitch": 55,
                "velocity": 64,
                "duration": 0.12954545454545752,
                "tempo": 120.0
            },
            {
                "start_time": 58.099999999999994,
                "end_time": 58.22954545454545,
                "pitch": 67,
                "velocity": 64,
                "duration": 0.12954545454545752,
                "tempo": 120.0
            },
            {
                "start_time": 58.22954545454545,
                "end_time": 58.275,
                "pitch": 54,
                "velocity": 64,
                "duration": 0.045454545454546746,
                "tempo": 120.0
            },
            {
                "start_time": 58.275,
                "end_time": 58.324999999999996,
                "pitch": 51,
                "velocity": 64,
                "duration": 0.04999999999999716,
                "tempo": 120.0
            },
            {
                "start_time": 58.22954545454545,
                "end_time": 58.34318181818182,
                "pitch": 55,
                "velocity": 64,
                "duration": 0.11363636363636687,
                "tempo": 120.0
            },
            {
                "start_time": 58.22954545454545,
                "end_time": 58.34318181818182,
                "pitch": 67,
                "velocity": 64,
                "duration": 0.11363636363636687,
                "tempo": 120.0
            },
            {
                "start_time": 58.34318181818182,
                "end_time": 58.38863636363636,
                "pitch": 54,
                "velocity": 64,
                "duration": 0.04545454545453964,
                "tempo": 120.0
            },
            {
                "start_time": 58.38863636363636,
                "end_time": 58.43863636363636,
                "pitch": 51,
                "velocity": 64,
                "duration": 0.05000000000000426,
                "tempo": 120.0
            },
            {
                "start_time": 58.34318181818182,
                "end_time": 58.459090909090904,
                "pitch": 55,
                "velocity": 64,
                "duration": 0.11590909090908497,
                "tempo": 120.0
            },
            {
                "start_time": 58.45681818181818,
                "end_time": 58.459090909090904,
                "pitch": 55,
                "velocity": 80,
                "duration": 0.0022727272727252057,
                "tempo": 120.0
            },
            {
                "start_time": 58.34318181818182,
                "end_time": 58.459090909090904,
                "pitch": 67,
                "velocity": 64,
                "duration": 0.11590909090908497,
                "tempo": 120.0
            },
            {
                "start_time": 58.459090909090904,
                "end_time": 58.50454545454545,
                "pitch": 54,
                "velocity": 80,
                "duration": 0.045454545454546746,
                "tempo": 120.0
            },
            {
                "start_time": 58.50454545454545,
                "end_time": 58.55227272727272,
                "pitch": 51,
                "velocity": 80,
                "duration": 0.04772727272727195,
                "tempo": 120.0
            },
            {
                "start_time": 58.459090909090904,
                "end_time": 58.58863636363636,
                "pitch": 67,
                "velocity": 80,
                "duration": 0.12954545454545752,
                "tempo": 120.0
            },
            {
                "start_time": 58.58863636363636,
                "end_time": 58.63409090909091,
                "pitch": 54,
                "velocity": 80,
                "duration": 0.045454545454546746,
                "tempo": 120.0
            },
            {
                "start_time": 58.63409090909091,
                "end_time": 58.684090909090905,
                "pitch": 51,
                "velocity": 80,
                "duration": 0.04999999999999716,
                "tempo": 120.0
            },
            {
                "start_time": 58.58863636363636,
                "end_time": 58.70227272727272,
                "pitch": 55,
                "velocity": 80,
                "duration": 0.11363636363635976,
                "tempo": 120.0
            },
            {
                "start_time": 58.58863636363636,
                "end_time": 58.70227272727272,
                "pitch": 67,
                "velocity": 80,
                "duration": 0.11363636363635976,
                "tempo": 120.0
            },
            {
                "start_time": 58.70227272727272,
                "end_time": 58.74772727272727,
                "pitch": 54,
                "velocity": 80,
                "duration": 0.045454545454546746,
                "tempo": 120.0
            },
            {
                "start_time": 58.74772727272727,
                "end_time": 58.79772727272727,
                "pitch": 51,
                "velocity": 80,
                "duration": 0.05000000000000426,
                "tempo": 120.0
            },
            {
                "start_time": 58.70227272727272,
                "end_time": 58.81590909090909,
                "pitch": 55,
                "velocity": 80,
                "duration": 0.11363636363636687,
                "tempo": 120.0
            },
            {
                "start_time": 58.70227272727272,
                "end_time": 58.81590909090909,
                "pitch": 67,
                "velocity": 80,
                "duration": 0.11363636363636687,
                "tempo": 120.0
            },
            {
                "start_time": 58.81590909090909,
                "end_time": 58.86363636363636,
                "pitch": 54,
                "velocity": 101,
                "duration": 0.04772727272727195,
                "tempo": 120.0
            },
            {
                "start_time": 58.86363636363636,
                "end_time": 58.913636363636364,
                "pitch": 51,
                "velocity": 101,
                "duration": 0.05000000000000426,
                "tempo": 120.0
            },
            {
                "start_time": 58.81590909090909,
                "end_time": 58.934090909090905,
                "pitch": 55,
                "velocity": 101,
                "duration": 0.11818181818181728,
                "tempo": 120.0
            },
            {
                "start_time": 58.93181818181818,
                "end_time": 58.934090909090905,
                "pitch": 55,
                "velocity": 101,
                "duration": 0.0022727272727252057,
                "tempo": 120.0
            },
            {
                "start_time": 58.81590909090909,
                "end_time": 58.934090909090905,
                "pitch": 67,
                "velocity": 101,
                "duration": 0.11818181818181728,
                "tempo": 120.0
            },
            {
                "start_time": 58.934090909090905,
                "end_time": 58.97954545454545,
                "pitch": 54,
                "velocity": 101,
                "duration": 0.045454545454546746,
                "tempo": 120.0
            },
            {
                "start_time": 58.97954545454545,
                "end_time": 59.03181818181818,
                "pitch": 51,
                "velocity": 101,
                "duration": 0.05227272727272947,
                "tempo": 120.0
            },
            {
                "start_time": 58.934090909090905,
                "end_time": 59.06590909090909,
                "pitch": 67,
                "velocity": 101,
                "duration": 0.13181818181818272,
                "tempo": 120.0
            },
            {
                "start_time": 59.06590909090909,
                "end_time": 59.11363636363636,
                "pitch": 54,
                "velocity": 101,
                "duration": 0.04772727272727195,
                "tempo": 120.0
            },
            {
                "start_time": 59.11363636363636,
                "end_time": 59.163636363636364,
                "pitch": 51,
                "velocity": 101,
                "duration": 0.05000000000000426,
                "tempo": 120.0
            },
            {
                "start_time": 59.06590909090909,
                "end_time": 59.18636363636363,
                "pitch": 55,
                "velocity": 101,
                "duration": 0.12045454545454248,
                "tempo": 120.0
            },
            {
                "start_time": 59.06590909090909,
                "end_time": 59.18636363636363,
                "pitch": 67,
                "velocity": 101,
                "duration": 0.12045454545454248,
                "tempo": 120.0
            },
            {
                "start_time": 59.18636363636363,
                "end_time": 59.22954545454545,
                "pitch": 54,
                "velocity": 51,
                "duration": 0.04318181818182154,
                "tempo": 120.0
            },
            {
                "start_time": 59.22954545454545,
                "end_time": 59.28181818181818,
                "pitch": 51,
                "velocity": 51,
                "duration": 0.05227272727272947,
                "tempo": 120.0
            },
            {
                "start_time": 59.18636363636363,
                "end_time": 59.3,
                "pitch": 55,
                "velocity": 51,
                "duration": 0.11363636363636687,
                "tempo": 120.0
            },
            {
                "start_time": 59.18636363636363,
                "end_time": 59.3,
                "pitch": 67,
                "velocity": 51,
                "duration": 0.11363636363636687,
                "tempo": 120.0
            },
            {
                "start_time": 59.3,
                "end_time": 59.34772727272727,
                "pitch": 54,
                "velocity": 51,
                "duration": 0.04772727272727195,
                "tempo": 120.0
            },
            {
                "start_time": 59.34772727272727,
                "end_time": 59.39772727272727,
                "pitch": 51,
                "velocity": 51,
                "duration": 0.05000000000000426,
                "tempo": 120.0
            },
            {
                "start_time": 59.3,
                "end_time": 59.434090909090905,
                "pitch": 55,
                "velocity": 51,
                "duration": 0.13409090909090793,
                "tempo": 120.0
            },
            {
                "start_time": 59.3,
                "end_time": 59.434090909090905,
                "pitch": 67,
                "velocity": 51,
                "duration": 0.13409090909090793,
                "tempo": 120.0
            },
            {
                "start_time": 59.434090909090905,
                "end_time": 59.48181818181818,
                "pitch": 54,
                "velocity": 51,
                "duration": 0.04772727272727195,
                "tempo": 120.0
            },
            {
                "start_time": 59.48181818181818,
                "end_time": 59.53181818181818,
                "pitch": 51,
                "velocity": 51,
                "duration": 0.05000000000000426,
                "tempo": 120.0
            },
            {
                "start_time": 59.434090909090905,
                "end_time": 59.55227272727272,
                "pitch": 55,
                "velocity": 51,
                "duration": 0.11818181818181728,
                "tempo": 120.0
            },
            {
                "start_time": 59.55,
                "end_time": 59.55227272727272,
                "pitch": 55,
                "velocity": 64,
                "duration": 0.0022727272727252057,
                "tempo": 120.0
            },
            {
                "start_time": 59.434090909090905,
                "end_time": 59.55227272727272,
                "pitch": 67,
                "velocity": 51,
                "duration": 0.11818181818181728,
                "tempo": 120.0
            },
            {
                "start_time": 59.55227272727272,
                "end_time": 59.59772727272727,
                "pitch": 54,
                "velocity": 64,
                "duration": 0.045454545454546746,
                "tempo": 120.0
            },
            {
                "start_time": 59.59772727272727,
                "end_time": 59.64772727272727,
                "pitch": 51,
                "velocity": 64,
                "duration": 0.05000000000000426,
                "tempo": 120.0
            },
            {
                "start_time": 59.55227272727272,
                "end_time": 59.668181818181814,
                "pitch": 67,
                "velocity": 64,
                "duration": 0.11590909090909207,
                "tempo": 120.0
            },
            {
                "start_time": 59.668181818181814,
                "end_time": 59.715909090909086,
                "pitch": 54,
                "velocity": 64,
                "duration": 0.04772727272727195,
                "tempo": 120.0
            },
            {
                "start_time": 59.715909090909086,
                "end_time": 59.76590909090909,
                "pitch": 51,
                "velocity": 64,
                "duration": 0.05000000000000426,
                "tempo": 120.0
            },
            {
                "start_time": 59.668181818181814,
                "end_time": 59.78409090909091,
                "pitch": 55,
                "velocity": 64,
                "duration": 0.11590909090909207,
                "tempo": 120.0
            },
            {
                "start_time": 59.668181818181814,
                "end_time": 59.78409090909091,
                "pitch": 67,
                "velocity": 64,
                "duration": 0.11590909090909207,
                "tempo": 120.0
            },
            {
                "start_time": 59.78409090909091,
                "end_time": 59.83181818181818,
                "pitch": 54,
                "velocity": 64,
                "duration": 0.04772727272727195,
                "tempo": 120.0
            },
            {
                "start_time": 59.83181818181818,
                "end_time": 59.881818181818176,
                "pitch": 51,
                "velocity": 64,
                "duration": 0.04999999999999716,
                "tempo": 120.0
            },
            {
                "start_time": 59.78409090909091,
                "end_time": 59.918181818181814,
                "pitch": 55,
                "velocity": 64,
                "duration": 0.13409090909090793,
                "tempo": 120.0
            },
            {
                "start_time": 59.78409090909091,
                "end_time": 59.918181818181814,
                "pitch": 67,
                "velocity": 64,
                "duration": 0.13409090909090793,
                "tempo": 120.0
            },
            {
                "start_time": 59.918181818181814,
                "end_time": 59.96363636363636,
                "pitch": 54,
                "velocity": 80,
                "duration": 0.045454545454546746,
                "tempo": 120.0
            },
            {
                "start_time": 59.96363636363636,
                "end_time": 60.01363636363636,
                "pitch": 51,
                "velocity": 80,
                "duration": 0.04999999999999716,
                "tempo": 120.0
            },
            {
                "start_time": 59.918181818181814,
                "end_time": 60.03181818181818,
                "pitch": 55,
                "velocity": 80,
                "duration": 0.11363636363636687,
                "tempo": 120.0
            },
            {
                "start_time": 59.918181818181814,
                "end_time": 60.03181818181818,
                "pitch": 67,
                "velocity": 80,
                "duration": 0.11363636363636687,
                "tempo": 120.0
            },
            {
                "start_time": 60.03181818181818,
                "end_time": 60.07954545454545,
                "pitch": 54,
                "velocity": 80,
                "duration": 0.04772727272727195,
                "tempo": 120.0
            },
            {
                "start_time": 60.07954545454545,
                "end_time": 60.127272727272725,
                "pitch": 51,
                "velocity": 80,
                "duration": 0.04772727272727195,
                "tempo": 120.0
            },
            {
                "start_time": 60.03181818181818,
                "end_time": 60.147727272727266,
                "pitch": 55,
                "velocity": 80,
                "duration": 0.11590909090908497,
                "tempo": 120.0
            },
            {
                "start_time": 60.14545454545454,
                "end_time": 60.147727272727266,
                "pitch": 55,
                "velocity": 80,
                "duration": 0.0022727272727252057,
                "tempo": 120.0
            },
            {
                "start_time": 60.03181818181818,
                "end_time": 60.147727272727266,
                "pitch": 67,
                "velocity": 80,
                "duration": 0.11590909090908497,
                "tempo": 120.0
            },
            {
                "start_time": 60.147727272727266,
                "end_time": 60.19318181818181,
                "pitch": 54,
                "velocity": 80,
                "duration": 0.045454545454546746,
                "tempo": 120.0
            },
            {
                "start_time": 60.19318181818181,
                "end_time": 60.240909090909085,
                "pitch": 51,
                "velocity": 80,
                "duration": 0.04772727272727195,
                "tempo": 120.0
            },
            {
                "start_time": 60.147727272727266,
                "end_time": 60.26136363636363,
                "pitch": 67,
                "velocity": 80,
                "duration": 0.11363636363636687,
                "tempo": 120.0
            },
            {
                "start_time": 60.26136363636363,
                "end_time": 60.304545454545455,
                "pitch": 54,
                "velocity": 101,
                "duration": 0.04318181818182154,
                "tempo": 120.0
            },
            {
                "start_time": 60.304545454545455,
                "end_time": 60.35227272727273,
                "pitch": 51,
                "velocity": 101,
                "duration": 0.04772727272727195,
                "tempo": 120.0
            },
            {
                "start_time": 60.35227272727273,
                "end_time": 60.36818181818182,
                "pitch": 48,
                "velocity": 101,
                "duration": 0.01590909090909065,
                "tempo": 120.0
            },
            {
                "start_time": 60.26136363636363,
                "end_time": 60.38636363636363,
                "pitch": 55,
                "velocity": 101,
                "duration": 0.125,
                "tempo": 120.0
            },
            {
                "start_time": 60.26136363636363,
                "end_time": 60.38863636363636,
                "pitch": 67,
                "velocity": 101,
                "duration": 0.1272727272727252,
                "tempo": 120.0
            },
            {
                "start_time": 60.38636363636363,
                "end_time": 60.38863636363636,
                "pitch": 67,
                "velocity": 101,
                "duration": 0.0022727272727252057,
                "tempo": 120.0
            },
            {
                "start_time": 60.38863636363636,
                "end_time": 60.43181818181818,
                "pitch": 54,
                "velocity": 101,
                "duration": 0.04318181818182154,
                "tempo": 120.0
            },
            {
                "start_time": 60.43181818181818,
                "end_time": 60.47954545454545,
                "pitch": 51,
                "velocity": 101,
                "duration": 0.04772727272727195,
                "tempo": 120.0
            },
            {
                "start_time": 60.38636363636363,
                "end_time": 60.49772727272727,
                "pitch": 55,
                "velocity": 101,
                "duration": 0.11136363636363455,
                "tempo": 120.0
            },
            {
                "start_time": 60.49772727272727,
                "end_time": 60.543181818181814,
                "pitch": 54,
                "velocity": 101,
                "duration": 0.045454545454546746,
                "tempo": 120.0
            },
            {
                "start_time": 60.543181818181814,
                "end_time": 60.590909090909086,
                "pitch": 51,
                "velocity": 101,
                "duration": 0.04772727272727195,
                "tempo": 120.0
            },
            {
                "start_time": 60.49772727272727,
                "end_time": 60.60909090909091,
                "pitch": 55,
                "velocity": 101,
                "duration": 0.11136363636364166,
                "tempo": 120.0
            },
            {
                "start_time": 60.49772727272727,
                "end_time": 60.60909090909091,
                "pitch": 67,
                "velocity": 101,
                "duration": 0.11136363636364166,
                "tempo": 120.0
            },
            {
                "start_time": 60.60909090909091,
                "end_time": 60.65681818181818,
                "pitch": 54,
                "velocity": 51,
                "duration": 0.04772727272727195,
                "tempo": 120.0
            },
            {
                "start_time": 60.65681818181818,
                "end_time": 60.70681818181818,
                "pitch": 51,
                "velocity": 51,
                "duration": 0.04999999999999716,
                "tempo": 120.0
            },
            {
                "start_time": 60.60909090909091,
                "end_time": 60.74318181818182,
                "pitch": 55,
                "velocity": 51,
                "duration": 0.13409090909090793,
                "tempo": 120.0
            },
            {
                "start_time": 60.740909090909085,
                "end_time": 60.74318181818182,
                "pitch": 55,
                "velocity": 51,
                "duration": 0.002272727272732311,
                "tempo": 120.0
            },
            {
                "start_time": 60.60909090909091,
                "end_time": 60.74318181818182,
                "pitch": 67,
                "velocity": 51,
                "duration": 0.13409090909090793,
                "tempo": 120.0
            },
            {
                "start_time": 60.74318181818182,
                "end_time": 60.788636363636364,
                "pitch": 54,
                "velocity": 51,
                "duration": 0.045454545454546746,
                "tempo": 120.0
            },
            {
                "start_time": 60.788636363636364,
                "end_time": 60.840909090909086,
                "pitch": 51,
                "velocity": 51,
                "duration": 0.052272727272722364,
                "tempo": 120.0
            },
            {
                "start_time": 60.74318181818182,
                "end_time": 60.85909090909091,
                "pitch": 67,
                "velocity": 51,
                "duration": 0.11590909090909207,
                "tempo": 120.0
            },
            {
                "start_time": 60.85909090909091,
                "end_time": 60.90681818181818,
                "pitch": 54,
                "velocity": 51,
                "duration": 0.04772727272727195,
                "tempo": 120.0
            },
            {
                "start_time": 60.90681818181818,
                "end_time": 60.95681818181818,
                "pitch": 51,
                "velocity": 51,
                "duration": 0.04999999999999716,
                "tempo": 120.0
            },
            {
                "start_time": 60.85909090909091,
                "end_time": 60.97727272727273,
                "pitch": 55,
                "velocity": 51,
                "duration": 0.11818181818181728,
                "tempo": 120.0
            },
            {
                "start_time": 60.85909090909091,
                "end_time": 60.97727272727273,
                "pitch": 67,
                "velocity": 51,
                "duration": 0.11818181818181728,
                "tempo": 120.0
            },
            {
                "start_time": 60.97727272727273,
                "end_time": 61.022727272727266,
                "pitch": 54,
                "velocity": 64,
                "duration": 0.04545454545453964,
                "tempo": 120.0
            },
            {
                "start_time": 61.022727272727266,
                "end_time": 61.07272727272727,
                "pitch": 51,
                "velocity": 64,
                "duration": 0.05000000000000426,
                "tempo": 120.0
            },
            {
                "start_time": 60.97727272727273,
                "end_time": 61.09318181818182,
                "pitch": 55,
                "velocity": 64,
                "duration": 0.11590909090909207,
                "tempo": 120.0
            },
            {
                "start_time": 60.97727272727273,
                "end_time": 61.09318181818182,
                "pitch": 67,
                "velocity": 64,
                "duration": 0.11590909090909207,
                "tempo": 120.0
            },
            {
                "start_time": 61.09318181818182,
                "end_time": 61.14090909090909,
                "pitch": 54,
                "velocity": 64,
                "duration": 0.04772727272727195,
                "tempo": 120.0
            },
            {
                "start_time": 61.14090909090909,
                "end_time": 61.19090909090909,
                "pitch": 51,
                "velocity": 64,
                "duration": 0.04999999999999716,
                "tempo": 120.0
            },
            {
                "start_time": 61.19090909090909,
                "end_time": 61.20681818181818,
                "pitch": 48,
                "velocity": 64,
                "duration": 0.01590909090909065,
                "tempo": 120.0
            },
            {
                "start_time": 61.09318181818182,
                "end_time": 61.22727272727273,
                "pitch": 55,
                "velocity": 64,
                "duration": 0.13409090909090793,
                "tempo": 120.0
            },
            {
                "start_time": 61.09318181818182,
                "end_time": 61.22727272727273,
                "pitch": 67,
                "velocity": 64,
                "duration": 0.13409090909090793,
                "tempo": 120.0
            },
            {
                "start_time": 61.22727272727273,
                "end_time": 61.272727272727266,
                "pitch": 54,
                "velocity": 64,
                "duration": 0.04545454545453964,
                "tempo": 120.0
            },
            {
                "start_time": 61.272727272727266,
                "end_time": 61.324999999999996,
                "pitch": 51,
                "velocity": 64,
                "duration": 0.05227272727272947,
                "tempo": 120.0
            },
            {
                "start_time": 61.22727272727273,
                "end_time": 61.34318181818182,
                "pitch": 55,
                "velocity": 64,
                "duration": 0.11590909090909207,
                "tempo": 120.0
            },
            {
                "start_time": 61.22727272727273,
                "end_time": 61.34318181818182,
                "pitch": 67,
                "velocity": 64,
                "duration": 0.11590909090909207,
                "tempo": 120.0
            },
            {
                "start_time": 61.34318181818182,
                "end_time": 61.38863636363636,
                "pitch": 54,
                "velocity": 80,
                "duration": 0.04545454545453964,
                "tempo": 120.0
            },
            {
                "start_time": 61.38863636363636,
                "end_time": 61.43863636363636,
                "pitch": 51,
                "velocity": 80,
                "duration": 0.05000000000000426,
                "tempo": 120.0
            },
            {
                "start_time": 61.34318181818182,
                "end_time": 61.45681818181818,
                "pitch": 55,
                "velocity": 80,
                "duration": 0.11363636363635976,
                "tempo": 120.0
            },
            {
                "start_time": 61.34318181818182,
                "end_time": 61.45681818181818,
                "pitch": 67,
                "velocity": 80,
                "duration": 0.11363636363635976,
                "tempo": 120.0
            },
            {
                "start_time": 61.45681818181818,
                "end_time": 61.50454545454545,
                "pitch": 54,
                "velocity": 80,
                "duration": 0.04772727272727195,
                "tempo": 120.0
            },
            {
                "start_time": 61.50454545454545,
                "end_time": 61.55227272727272,
                "pitch": 51,
                "velocity": 80,
                "duration": 0.04772727272727195,
                "tempo": 120.0
            },
            {
                "start_time": 61.45681818181818,
                "end_time": 61.58863636363636,
                "pitch": 55,
                "velocity": 80,
                "duration": 0.13181818181818272,
                "tempo": 120.0
            },
            {
                "start_time": 61.45681818181818,
                "end_time": 61.58863636363636,
                "pitch": 67,
                "velocity": 80,
                "duration": 0.13181818181818272,
                "tempo": 120.0
            },
            {
                "start_time": 61.58863636363636,
                "end_time": 61.63409090909091,
                "pitch": 54,
                "velocity": 80,
                "duration": 0.045454545454546746,
                "tempo": 120.0
            },
            {
                "start_time": 61.63409090909091,
                "end_time": 61.684090909090905,
                "pitch": 51,
                "velocity": 80,
                "duration": 0.04999999999999716,
                "tempo": 120.0
            },
            {
                "start_time": 61.58863636363636,
                "end_time": 61.70227272727272,
                "pitch": 55,
                "velocity": 80,
                "duration": 0.11363636363635976,
                "tempo": 120.0
            },
            {
                "start_time": 61.58863636363636,
                "end_time": 61.70227272727272,
                "pitch": 67,
                "velocity": 80,
                "duration": 0.11363636363635976,
                "tempo": 120.0
            },
            {
                "start_time": 61.70227272727272,
                "end_time": 61.75,
                "pitch": 54,
                "velocity": 101,
                "duration": 0.04772727272727906,
                "tempo": 120.0
            },
            {
                "start_time": 61.75,
                "end_time": 61.8,
                "pitch": 51,
                "velocity": 101,
                "duration": 0.04999999999999716,
                "tempo": 120.0
            },
            {
                "start_time": 61.70227272727272,
                "end_time": 61.81818181818181,
                "pitch": 55,
                "velocity": 101,
                "duration": 0.11590909090909207,
                "tempo": 120.0
            },
            {
                "start_time": 61.70227272727272,
                "end_time": 61.81818181818181,
                "pitch": 67,
                "velocity": 101,
                "duration": 0.11590909090909207,
                "tempo": 120.0
            },
            {
                "start_time": 61.81818181818181,
                "end_time": 61.865909090909085,
                "pitch": 54,
                "velocity": 101,
                "duration": 0.04772727272727195,
                "tempo": 120.0
            },
            {
                "start_time": 61.865909090909085,
                "end_time": 61.91590909090909,
                "pitch": 51,
                "velocity": 101,
                "duration": 0.05000000000000426,
                "tempo": 120.0
            },
            {
                "start_time": 61.81818181818181,
                "end_time": 61.93636363636363,
                "pitch": 55,
                "velocity": 101,
                "duration": 0.11818181818181728,
                "tempo": 120.0
            },
            {
                "start_time": 61.81818181818181,
                "end_time": 61.93636363636363,
                "pitch": 67,
                "velocity": 101,
                "duration": 0.11818181818181728,
                "tempo": 120.0
            },
            {
                "start_time": 61.93636363636363,
                "end_time": 61.98409090909091,
                "pitch": 54,
                "velocity": 101,
                "duration": 0.04772727272727906,
                "tempo": 120.0
            },
            {
                "start_time": 61.98409090909091,
                "end_time": 62.03409090909091,
                "pitch": 51,
                "velocity": 101,
                "duration": 0.04999999999999716,
                "tempo": 120.0
            },
            {
                "start_time": 61.93636363636363,
                "end_time": 62.070454545454545,
                "pitch": 55,
                "velocity": 101,
                "duration": 0.13409090909091503,
                "tempo": 120.0
            },
            {
                "start_time": 61.93636363636363,
                "end_time": 62.070454545454545,
                "pitch": 67,
                "velocity": 101,
                "duration": 0.13409090909091503,
                "tempo": 120.0
            },
            {
                "start_time": 62.070454545454545,
                "end_time": 62.115909090909085,
                "pitch": 54,
                "velocity": 51,
                "duration": 0.04545454545453964,
                "tempo": 120.0
            },
            {
                "start_time": 62.115909090909085,
                "end_time": 62.168181818181814,
                "pitch": 51,
                "velocity": 51,
                "duration": 0.05227272727272947,
                "tempo": 120.0
            },
            {
                "start_time": 62.070454545454545,
                "end_time": 62.18636363636363,
                "pitch": 55,
                "velocity": 51,
                "duration": 0.11590909090908497,
                "tempo": 120.0
            },
            {
                "start_time": 62.070454545454545,
                "end_time": 62.18636363636363,
                "pitch": 67,
                "velocity": 51,
                "duration": 0.11590909090908497,
                "tempo": 120.0
            },
            {
                "start_time": 62.18636363636363,
                "end_time": 62.23409090909091,
                "pitch": 54,
                "velocity": 51,
                "duration": 0.04772727272727906,
                "tempo": 120.0
            },
            {
                "start_time": 62.23409090909091,
                "end_time": 62.28409090909091,
                "pitch": 51,
                "velocity": 51,
                "duration": 0.04999999999999716,
                "tempo": 120.0
            },
            {
                "start_time": 62.18636363636363,
                "end_time": 62.30227272727272,
                "pitch": 55,
                "velocity": 51,
                "duration": 0.11590909090909207,
                "tempo": 120.0
            },
            {
                "start_time": 62.18636363636363,
                "end_time": 62.304545454545455,
                "pitch": 67,
                "velocity": 51,
                "duration": 0.11818181818182438,
                "tempo": 120.0
            },
            {
                "start_time": 62.30227272727272,
                "end_time": 62.304545454545455,
                "pitch": 67,
                "velocity": 51,
                "duration": 0.002272727272732311,
                "tempo": 120.0
            },
            {
                "start_time": 62.304545454545455,
                "end_time": 62.349999999999994,
                "pitch": 54,
                "velocity": 51,
                "duration": 0.04545454545453964,
                "tempo": 120.0
            },
            {
                "start_time": 62.349999999999994,
                "end_time": 62.4,
                "pitch": 51,
                "velocity": 51,
                "duration": 0.05000000000000426,
                "tempo": 120.0
            },
            {
                "start_time": 62.30227272727272,
                "end_time": 62.43636363636363,
                "pitch": 55,
                "velocity": 51,
                "duration": 0.13409090909090793,
                "tempo": 120.0
            },
            {
                "start_time": 62.43636363636363,
                "end_time": 62.48181818181818,
                "pitch": 54,
                "velocity": 64,
                "duration": 0.045454545454546746,
                "tempo": 120.0
            },
            {
                "start_time": 62.48181818181818,
                "end_time": 62.53181818181818,
                "pitch": 51,
                "velocity": 64,
                "duration": 0.05000000000000426,
                "tempo": 120.0
            },
            {
                "start_time": 62.43636363636363,
                "end_time": 62.55,
                "pitch": 55,
                "velocity": 64,
                "duration": 0.11363636363636687,
                "tempo": 120.0
            },
            {
                "start_time": 62.43636363636363,
                "end_time": 62.55227272727272,
                "pitch": 67,
                "velocity": 64,
                "duration": 0.11590909090909207,
                "tempo": 120.0
            },
            {
                "start_time": 62.55,
                "end_time": 62.55227272727272,
                "pitch": 67,
                "velocity": 64,
                "duration": 0.0022727272727252057,
                "tempo": 120.0
            },
            {
                "start_time": 62.55227272727272,
                "end_time": 62.59772727272727,
                "pitch": 54,
                "velocity": 64,
                "duration": 0.045454545454546746,
                "tempo": 120.0
            },
            {
                "start_time": 62.59772727272727,
                "end_time": 62.64545454545454,
                "pitch": 51,
                "velocity": 64,
                "duration": 0.04772727272727195,
                "tempo": 120.0
            },
            {
                "start_time": 62.55,
                "end_time": 62.66590909090909,
                "pitch": 55,
                "velocity": 64,
                "duration": 0.11590909090909207,
                "tempo": 120.0
            },
            {
                "start_time": 62.663636363636364,
                "end_time": 62.66590909090909,
                "pitch": 55,
                "velocity": 64,
                "duration": 0.0022727272727252057,
                "tempo": 120.0
            },
            {
                "start_time": 62.66590909090909,
                "end_time": 62.711363636363636,
                "pitch": 54,
                "velocity": 64,
                "duration": 0.045454545454546746,
                "tempo": 120.0
            },
            {
                "start_time": 62.711363636363636,
                "end_time": 62.76136363636363,
                "pitch": 51,
                "velocity": 64,
                "duration": 0.04999999999999716,
                "tempo": 120.0
            },
            {
                "start_time": 62.66590909090909,
                "end_time": 62.77954545454545,
                "pitch": 67,
                "velocity": 64,
                "duration": 0.11363636363635976,
                "tempo": 120.0
            },
            {
                "start_time": 62.77954545454545,
                "end_time": 62.82272727272727,
                "pitch": 54,
                "velocity": 80,
                "duration": 0.04318181818182154,
                "tempo": 120.0
            },
            {
                "start_time": 62.82272727272727,
                "end_time": 62.87272727272727,
                "pitch": 51,
                "velocity": 80,
                "duration": 0.04999999999999716,
                "tempo": 120.0
            },
            {
                "start_time": 62.77954545454545,
                "end_time": 62.90681818181818,
                "pitch": 55,
                "velocity": 80,
                "duration": 0.1272727272727323,
                "tempo": 120.0
            },
            {
                "start_time": 62.90454545454545,
                "end_time": 62.90681818181818,
                "pitch": 55,
                "velocity": 80,
                "duration": 0.002272727272732311,
                "tempo": 120.0
            },
            {
                "start_time": 62.77954545454545,
                "end_time": 62.90681818181818,
                "pitch": 67,
                "velocity": 80,
                "duration": 0.1272727272727323,
                "tempo": 120.0
            },
            {
                "start_time": 62.90681818181818,
                "end_time": 62.949999999999996,
                "pitch": 54,
                "velocity": 80,
                "duration": 0.043181818181814435,
                "tempo": 120.0
            },
            {
                "start_time": 62.949999999999996,
                "end_time": 62.99772727272727,
                "pitch": 51,
                "velocity": 80,
                "duration": 0.04772727272727195,
                "tempo": 120.0
            },
            {
                "start_time": 62.90681818181818,
                "end_time": 63.01590909090909,
                "pitch": 67,
                "velocity": 80,
                "duration": 0.10909090909090935,
                "tempo": 120.0
            },
            {
                "start_time": 63.01590909090909,
                "end_time": 63.06136363636363,
                "pitch": 54,
                "velocity": 80,
                "duration": 0.04545454545453964,
                "tempo": 120.0
            },
            {
                "start_time": 63.06136363636363,
                "end_time": 63.10909090909091,
                "pitch": 51,
                "velocity": 80,
                "duration": 0.04772727272727906,
                "tempo": 120.0
            },
            {
                "start_time": 63.01590909090909,
                "end_time": 63.127272727272725,
                "pitch": 55,
                "velocity": 80,
                "duration": 0.11136363636363455,
                "tempo": 120.0
            },
            {
                "start_time": 63.01590909090909,
                "end_time": 63.127272727272725,
                "pitch": 67,
                "velocity": 80,
                "duration": 0.11136363636363455,
                "tempo": 120.0
            },
            {
                "start_time": 63.127272727272725,
                "end_time": 63.175,
                "pitch": 54,
                "velocity": 101,
                "duration": 0.04772727272727195,
                "tempo": 120.0
            },
            {
                "start_time": 63.175,
                "end_time": 63.224999999999994,
                "pitch": 51,
                "velocity": 101,
                "duration": 0.04999999999999716,
                "tempo": 120.0
            },
            {
                "start_time": 63.127272727272725,
                "end_time": 63.24318181818182,
                "pitch": 55,
                "velocity": 101,
                "duration": 0.11590909090909207,
                "tempo": 120.0
            },
            {
                "start_time": 63.127272727272725,
                "end_time": 63.24318181818182,
                "pitch": 67,
                "velocity": 101,
                "duration": 0.11590909090909207,
                "tempo": 120.0
            },
            {
                "start_time": 63.24318181818182,
                "end_time": 63.29090909090909,
                "pitch": 54,
                "velocity": 101,
                "duration": 0.04772727272727195,
                "tempo": 120.0
            },
            {
                "start_time": 63.29090909090909,
                "end_time": 63.340909090909086,
                "pitch": 51,
                "velocity": 101,
                "duration": 0.04999999999999716,
                "tempo": 120.0
            },
            {
                "start_time": 63.340909090909086,
                "end_time": 63.35909090909091,
                "pitch": 48,
                "velocity": 101,
                "duration": 0.018181818181822962,
                "tempo": 120.0
            },
            {
                "start_time": 63.24318181818182,
                "end_time": 63.377272727272725,
                "pitch": 55,
                "velocity": 101,
                "duration": 0.13409090909090793,
                "tempo": 120.0
            },
            {
                "start_time": 63.24318181818182,
                "end_time": 63.377272727272725,
                "pitch": 67,
                "velocity": 101,
                "duration": 0.13409090909090793,
                "tempo": 120.0
            },
            {
                "start_time": 63.377272727272725,
                "end_time": 63.425,
                "pitch": 54,
                "velocity": 101,
                "duration": 0.04772727272727195,
                "tempo": 120.0
            },
            {
                "start_time": 63.425,
                "end_time": 63.474999999999994,
                "pitch": 51,
                "velocity": 101,
                "duration": 0.04999999999999716,
                "tempo": 120.0
            },
            {
                "start_time": 63.377272727272725,
                "end_time": 63.49545454545454,
                "pitch": 55,
                "velocity": 101,
                "duration": 0.11818181818181728,
                "tempo": 120.0
            },
            {
                "start_time": 63.377272727272725,
                "end_time": 63.49545454545454,
                "pitch": 67,
                "velocity": 101,
                "duration": 0.11818181818181728,
                "tempo": 120.0
            },
            {
                "start_time": 63.49545454545454,
                "end_time": 63.54090909090909,
                "pitch": 54,
                "velocity": 51,
                "duration": 0.045454545454546746,
                "tempo": 120.0
            },
            {
                "start_time": 63.54090909090909,
                "end_time": 63.59318181818181,
                "pitch": 51,
                "velocity": 51,
                "duration": 0.052272727272722364,
                "tempo": 120.0
            },
            {
                "start_time": 63.49545454545454,
                "end_time": 63.611363636363635,
                "pitch": 55,
                "velocity": 51,
                "duration": 0.11590909090909207,
                "tempo": 120.0
            },
            {
                "start_time": 63.49545454545454,
                "end_time": 63.611363636363635,
                "pitch": 67,
                "velocity": 51,
                "duration": 0.11590909090909207,
                "tempo": 120.0
            },
            {
                "start_time": 63.611363636363635,
                "end_time": 63.65909090909091,
                "pitch": 54,
                "velocity": 51,
                "duration": 0.04772727272727195,
                "tempo": 120.0
            },
            {
                "start_time": 63.65909090909091,
                "end_time": 63.709090909090904,
                "pitch": 51,
                "velocity": 51,
                "duration": 0.04999999999999716,
                "tempo": 120.0
            },
            {
                "start_time": 63.611363636363635,
                "end_time": 63.74545454545454,
                "pitch": 55,
                "velocity": 51,
                "duration": 0.13409090909090793,
                "tempo": 120.0
            },
            {
                "start_time": 63.611363636363635,
                "end_time": 63.74545454545454,
                "pitch": 67,
                "velocity": 51,
                "duration": 0.13409090909090793,
                "tempo": 120.0
            },
            {
                "start_time": 63.74545454545454,
                "end_time": 63.793181818181814,
                "pitch": 54,
                "velocity": 51,
                "duration": 0.04772727272727195,
                "tempo": 120.0
            },
            {
                "start_time": 63.793181818181814,
                "end_time": 63.84318181818181,
                "pitch": 51,
                "velocity": 51,
                "duration": 0.04999999999999716,
                "tempo": 120.0
            },
            {
                "start_time": 63.74545454545454,
                "end_time": 63.86363636363636,
                "pitch": 55,
                "velocity": 51,
                "duration": 0.11818181818181728,
                "tempo": 120.0
            },
            {
                "start_time": 63.861363636363635,
                "end_time": 63.86363636363636,
                "pitch": 55,
                "velocity": 64,
                "duration": 0.0022727272727252057,
                "tempo": 120.0
            },
            {
                "start_time": 63.74545454545454,
                "end_time": 63.86363636363636,
                "pitch": 67,
                "velocity": 51,
                "duration": 0.11818181818181728,
                "tempo": 120.0
            },
            {
                "start_time": 63.86363636363636,
                "end_time": 63.90909090909091,
                "pitch": 54,
                "velocity": 64,
                "duration": 0.045454545454546746,
                "tempo": 120.0
            },
            {
                "start_time": 63.90909090909091,
                "end_time": 63.959090909090904,
                "pitch": 51,
                "velocity": 64,
                "duration": 0.04999999999999716,
                "tempo": 120.0
            },
            {
                "start_time": 63.86363636363636,
                "end_time": 63.97954545454545,
                "pitch": 67,
                "velocity": 64,
                "duration": 0.11590909090909207,
                "tempo": 120.0
            },
            {
                "start_time": 63.97954545454545,
                "end_time": 64.02499999999999,
                "pitch": 54,
                "velocity": 64,
                "duration": 0.04545454545453964,
                "tempo": 120.0
            },
            {
                "start_time": 64.02499999999999,
                "end_time": 64.07727272727273,
                "pitch": 51,
                "velocity": 64,
                "duration": 0.052272727272736574,
                "tempo": 120.0
            },
            {
                "start_time": 63.97954545454545,
                "end_time": 64.09545454545454,
                "pitch": 55,
                "velocity": 64,
                "duration": 0.11590909090909207,
                "tempo": 120.0
            },
            {
                "start_time": 63.97954545454545,
                "end_time": 64.09545454545454,
                "pitch": 67,
                "velocity": 64,
                "duration": 0.11590909090909207,
                "tempo": 120.0
            },
            {
                "start_time": 64.09545454545454,
                "end_time": 64.14318181818182,
                "pitch": 54,
                "velocity": 64,
                "duration": 0.04772727272727195,
                "tempo": 120.0
            },
            {
                "start_time": 64.14318181818182,
                "end_time": 64.19318181818181,
                "pitch": 51,
                "velocity": 64,
                "duration": 0.04999999999999716,
                "tempo": 120.0
            },
            {
                "start_time": 64.19318181818181,
                "end_time": 64.21136363636363,
                "pitch": 48,
                "velocity": 64,
                "duration": 0.018181818181815856,
                "tempo": 120.0
            },
            {
                "start_time": 64.09545454545454,
                "end_time": 64.22954545454544,
                "pitch": 55,
                "velocity": 64,
                "duration": 0.13409090909090082,
                "tempo": 120.0
            },
            {
                "start_time": 64.09545454545454,
                "end_time": 64.22954545454544,
                "pitch": 67,
                "velocity": 64,
                "duration": 0.13409090909090082,
                "tempo": 120.0
            },
            {
                "start_time": 64.22954545454544,
                "end_time": 64.27499999999999,
                "pitch": 54,
                "velocity": 80,
                "duration": 0.045454545454546746,
                "tempo": 120.0
            },
            {
                "start_time": 64.27499999999999,
                "end_time": 64.325,
                "pitch": 51,
                "velocity": 80,
                "duration": 0.05000000000001137,
                "tempo": 120.0
            },
            {
                "start_time": 64.22954545454544,
                "end_time": 64.34318181818182,
                "pitch": 55,
                "velocity": 80,
                "duration": 0.11363636363637397,
                "tempo": 120.0
            },
            {
                "start_time": 64.22954545454544,
                "end_time": 64.34318181818182,
                "pitch": 67,
                "velocity": 80,
                "duration": 0.11363636363637397,
                "tempo": 120.0
            },
            {
                "start_time": 64.34318181818182,
                "end_time": 64.38863636363637,
                "pitch": 54,
                "velocity": 80,
                "duration": 0.045454545454546746,
                "tempo": 120.0
            },
            {
                "start_time": 64.38863636363637,
                "end_time": 64.43863636363636,
                "pitch": 51,
                "velocity": 80,
                "duration": 0.04999999999999716,
                "tempo": 120.0
            },
            {
                "start_time": 64.34318181818182,
                "end_time": 64.45681818181818,
                "pitch": 55,
                "velocity": 80,
                "duration": 0.11363636363635976,
                "tempo": 120.0
            },
            {
                "start_time": 64.34318181818182,
                "end_time": 64.4590909090909,
                "pitch": 67,
                "velocity": 80,
                "duration": 0.11590909090908497,
                "tempo": 120.0
            },
            {
                "start_time": 64.45681818181818,
                "end_time": 64.4590909090909,
                "pitch": 67,
                "velocity": 80,
                "duration": 0.0022727272727252057,
                "tempo": 120.0
            },
            {
                "start_time": 64.4590909090909,
                "end_time": 64.50454545454545,
                "pitch": 54,
                "velocity": 80,
                "duration": 0.045454545454546746,
                "tempo": 120.0
            },
            {
                "start_time": 64.50454545454545,
                "end_time": 64.55227272727272,
                "pitch": 51,
                "velocity": 80,
                "duration": 0.04772727272727195,
                "tempo": 120.0
            },
            {
                "start_time": 64.45681818181818,
                "end_time": 64.58863636363635,
                "pitch": 55,
                "velocity": 80,
                "duration": 0.13181818181817562,
                "tempo": 120.0
            },
            {
                "start_time": 64.58863636363635,
                "end_time": 64.6340909090909,
                "pitch": 54,
                "velocity": 101,
                "duration": 0.045454545454546746,
                "tempo": 120.0
            },
            {
                "start_time": 64.6340909090909,
                "end_time": 64.68636363636364,
                "pitch": 51,
                "velocity": 101,
                "duration": 0.052272727272736574,
                "tempo": 120.0
            },
            {
                "start_time": 64.58863636363635,
                "end_time": 64.70454545454545,
                "pitch": 55,
                "velocity": 101,
                "duration": 0.11590909090909918,
                "tempo": 120.0
            },
            {
                "start_time": 64.58863636363635,
                "end_time": 64.70454545454545,
                "pitch": 67,
                "velocity": 101,
                "duration": 0.11590909090909918,
                "tempo": 120.0
            },
            {
                "start_time": 64.70454545454545,
                "end_time": 64.75227272727273,
                "pitch": 54,
                "velocity": 101,
                "duration": 0.04772727272727195,
                "tempo": 120.0
            },
            {
                "start_time": 64.75227272727273,
                "end_time": 64.80227272727272,
                "pitch": 51,
                "velocity": 101,
                "duration": 0.04999999999999716,
                "tempo": 120.0
            },
            {
                "start_time": 64.70454545454545,
                "end_time": 64.82272727272726,
                "pitch": 55,
                "velocity": 101,
                "duration": 0.11818181818181017,
                "tempo": 120.0
            },
            {
                "start_time": 64.82045454545454,
                "end_time": 64.82272727272726,
                "pitch": 55,
                "velocity": 101,
                "duration": 0.0022727272727252057,
                "tempo": 120.0
            },
            {
                "start_time": 64.70454545454545,
                "end_time": 64.82272727272726,
                "pitch": 67,
                "velocity": 101,
                "duration": 0.11818181818181017,
                "tempo": 120.0
            },
            {
                "start_time": 64.82272727272726,
                "end_time": 64.86818181818181,
                "pitch": 54,
                "velocity": 101,
                "duration": 0.045454545454546746,
                "tempo": 120.0
            },
            {
                "start_time": 64.86818181818181,
                "end_time": 64.92045454545455,
                "pitch": 51,
                "velocity": 101,
                "duration": 0.052272727272736574,
                "tempo": 120.0
            }
        ],
        "Church Organ": [
            {
                "start_time": 13.163636363636362,
                "end_time": 14.56590909090909,
                "pitch": 67,
                "velocity": 64,
                "duration": 1.4022727272727273,
                "tempo": 120.0
            },
            {
                "start_time": 14.584090909090909,
                "end_time": 15.993181818181817,
                "pitch": 69,
                "velocity": 64,
                "duration": 1.4090909090909083,
                "tempo": 120.0
            },
            {
                "start_time": 16.011363636363637,
                "end_time": 16.586363636363636,
                "pitch": 70,
                "velocity": 64,
                "duration": 0.5749999999999993,
                "tempo": 120.0
            },
            {
                "start_time": 16.620454545454546,
                "end_time": 17.084090909090907,
                "pitch": 72,
                "velocity": 64,
                "duration": 0.4636363636363612,
                "tempo": 120.0
            },
            {
                "start_time": 17.102272727272727,
                "end_time": 17.436363636363634,
                "pitch": 69,
                "velocity": 64,
                "duration": 0.3340909090909072,
                "tempo": 120.0
            },
            {
                "start_time": 17.470454545454544,
                "end_time": 18.877272727272725,
                "pitch": 67,
                "velocity": 64,
                "duration": 1.4068181818181813,
                "tempo": 120.0
            },
            {
                "start_time": 18.895454545454545,
                "end_time": 20.320454545454545,
                "pitch": 67,
                "velocity": 64,
                "duration": 1.4250000000000007,
                "tempo": 120.0
            },
            {
                "start_time": 20.33863636363636,
                "end_time": 21.763636363636362,
                "pitch": 69,
                "velocity": 64,
                "duration": 1.4250000000000007,
                "tempo": 120.0
            },
            {
                "start_time": 21.78181818181818,
                "end_time": 22.35909090909091,
                "pitch": 70,
                "velocity": 64,
                "duration": 0.577272727272728,
                "tempo": 120.0
            },
            {
                "start_time": 22.377272727272725,
                "end_time": 22.820454545454545,
                "pitch": 72,
                "velocity": 64,
                "duration": 0.4431818181818201,
                "tempo": 120.0
            },
            {
                "start_time": 22.83863636363636,
                "end_time": 23.188636363636363,
                "pitch": 69,
                "velocity": 64,
                "duration": 0.3500000000000014,
                "tempo": 120.0
            },
            {
                "start_time": 23.206818181818182,
                "end_time": 24.63181818181818,
                "pitch": 67,
                "velocity": 64,
                "duration": 1.4249999999999972,
                "tempo": 120.0
            },
            {
                "start_time": 24.65,
                "end_time": 26.07272727272727,
                "pitch": 63,
                "velocity": 64,
                "duration": 1.422727272727272,
                "tempo": 120.0
            },
            {
                "start_time": 26.09090909090909,
                "end_time": 26.784090909090907,
                "pitch": 67,
                "velocity": 64,
                "duration": 0.6931818181818166,
                "tempo": 120.0
            },
            {
                "start_time": 26.799999999999997,
                "end_time": 27.509090909090908,
                "pitch": 70,
                "velocity": 64,
                "duration": 0.7090909090909108,
                "tempo": 120.0
            },
            {
                "start_time": 27.527272727272727,
                "end_time": 28.943181818181817,
                "pitch": 67,
                "velocity": 64,
                "duration": 1.4159090909090892,
                "tempo": 120.0
            },
            {
                "start_time": 28.979545454545452,
                "end_time": 29.077272727272724,
                "pitch": 70,
                "velocity": 64,
                "duration": 0.09772727272727266,
                "tempo": 120.0
            },
            {
                "start_time": 29.093181818181815,
                "end_time": 29.193181818181817,
                "pitch": 69,
                "velocity": 64,
                "duration": 0.10000000000000142,
                "tempo": 120.0
            },
            {
                "start_time": 29.211363636363636,
                "end_time": 29.311363636363634,
                "pitch": 67,
                "velocity": 64,
                "duration": 0.09999999999999787,
                "tempo": 120.0
            },
            {
                "start_time": 29.329545454545453,
                "end_time": 29.422727272727272,
                "pitch": 70,
                "velocity": 64,
                "duration": 0.0931818181818187,
                "tempo": 120.0
            },
            {
                "start_time": 29.454545454545453,
                "end_time": 29.549999999999997,
                "pitch": 69,
                "velocity": 64,
                "duration": 0.0954545454545439,
                "tempo": 120.0
            },
            {
                "start_time": 29.565909090909088,
                "end_time": 29.661363636363635,
                "pitch": 67,
                "velocity": 64,
                "duration": 0.09545454545454746,
                "tempo": 120.0
            },
            {
                "start_time": 29.677272727272726,
                "end_time": 29.775,
                "pitch": 70,
                "velocity": 64,
                "duration": 0.09772727272727266,
                "tempo": 120.0
            },
            {
                "start_time": 29.793181818181818,
                "end_time": 29.909090909090907,
                "pitch": 69,
                "velocity": 64,
                "duration": 0.11590909090908852,
                "tempo": 120.0
            },
            {
                "start_time": 29.927272727272726,
                "end_time": 30.027272727272727,
                "pitch": 67,
                "velocity": 64,
                "duration": 0.10000000000000142,
                "tempo": 120.0
            },
            {
                "start_time": 30.043181818181818,
                "end_time": 30.143181818181816,
                "pitch": 70,
                "velocity": 64,
                "duration": 0.09999999999999787,
                "tempo": 120.0
            },
            {
                "start_time": 30.161363636363635,
                "end_time": 30.261363636363633,
                "pitch": 69,
                "velocity": 64,
                "duration": 0.09999999999999787,
                "tempo": 120.0
            },
            {
                "start_time": 30.295454545454543,
                "end_time": 30.395454545454545,
                "pitch": 67,
                "velocity": 64,
                "duration": 0.10000000000000142,
                "tempo": 120.0
            },
            {
                "start_time": 30.41363636363636,
                "end_time": 31.820454545454545,
                "pitch": 63,
                "velocity": 64,
                "duration": 1.4068181818181849,
                "tempo": 120.0
            },
            {
                "start_time": 31.83863636363636,
                "end_time": 32.54772727272727,
                "pitch": 67,
                "velocity": 64,
                "duration": 0.7090909090909108,
                "tempo": 120.0
            },
            {
                "start_time": 32.56363636363636,
                "end_time": 33.26590909090909,
                "pitch": 70,
                "velocity": 64,
                "duration": 0.702272727272728,
                "tempo": 120.0
            },
            {
                "start_time": 33.3,
                "end_time": 34.70681818181818,
                "pitch": 62,
                "velocity": 64,
                "duration": 1.4068181818181813,
                "tempo": 120.0
            },
            {
                "start_time": 34.725,
                "end_time": 34.820454545454545,
                "pitch": 72,
                "velocity": 64,
                "duration": 0.0954545454545439,
                "tempo": 120.0
            },
            {
                "start_time": 34.83863636363636,
                "end_time": 34.93636363636364,
                "pitch": 69,
                "velocity": 64,
                "duration": 0.09772727272727622,
                "tempo": 120.0
            },
            {
                "start_time": 34.95227272727273,
                "end_time": 35.06590909090909,
                "pitch": 66,
                "velocity": 64,
                "duration": 0.11363636363635976,
                "tempo": 120.0
            },
            {
                "start_time": 35.08181818181818,
                "end_time": 35.18181818181818,
                "pitch": 72,
                "velocity": 64,
                "duration": 0.10000000000000142,
                "tempo": 120.0
            },
            {
                "start_time": 35.199999999999996,
                "end_time": 35.3,
                "pitch": 69,
                "velocity": 64,
                "duration": 0.10000000000000142,
                "tempo": 120.0
            },
            {
                "start_time": 35.31590909090909,
                "end_time": 35.41590909090909,
                "pitch": 66,
                "velocity": 64,
                "duration": 0.10000000000000142,
                "tempo": 120.0
            },
            {
                "start_time": 35.449999999999996,
                "end_time": 35.55,
                "pitch": 72,
                "velocity": 64,
                "duration": 0.10000000000000142,
                "tempo": 120.0
            },
            {
                "start_time": 35.56590909090909,
                "end_time": 35.66590909090909,
                "pitch": 69,
                "velocity": 64,
                "duration": 0.10000000000000142,
                "tempo": 120.0
            },
            {
                "start_time": 35.684090909090905,
                "end_time": 35.78409090909091,
                "pitch": 66,
                "velocity": 64,
                "duration": 0.10000000000000142,
                "tempo": 120.0
            },
            {
                "start_time": 35.8,
                "end_time": 35.91136363636363,
                "pitch": 72,
                "velocity": 64,
                "duration": 0.11136363636363455,
                "tempo": 120.0
            },
            {
                "start_time": 35.92727272727272,
                "end_time": 36.02272727272727,
                "pitch": 69,
                "velocity": 64,
                "duration": 0.09545454545455101,
                "tempo": 120.0
            },
            {
                "start_time": 36.038636363636364,
                "end_time": 36.13409090909091,
                "pitch": 66,
                "velocity": 64,
                "duration": 0.0954545454545439,
                "tempo": 120.0
            }
        ],
        "Acoustic Grand Piano": [
            {
                "start_time": 7.36590909090909,
                "end_time": 7.465909090909091,
                "pitch": 79,
                "velocity": 64,
                "duration": 0.10000000000000053,
                "tempo": 120.0
            },
            {
                "start_time": 7.4840909090909085,
                "end_time": 7.6045454545454545,
                "pitch": 81,
                "velocity": 64,
                "duration": 0.12045454545454604,
                "tempo": 120.0
            },
            {
                "start_time": 7.622727272727272,
                "end_time": 7.725,
                "pitch": 82,
                "velocity": 64,
                "duration": 0.10227272727272751,
                "tempo": 120.0
            },
            {
                "start_time": 7.743181818181818,
                "end_time": 7.843181818181818,
                "pitch": 86,
                "velocity": 64,
                "duration": 0.09999999999999964,
                "tempo": 120.0
            },
            {
                "start_time": 7.8590909090909085,
                "end_time": 7.959090909090909,
                "pitch": 84,
                "velocity": 64,
                "duration": 0.10000000000000053,
                "tempo": 120.0
            },
            {
                "start_time": 7.993181818181818,
                "end_time": 8.093181818181817,
                "pitch": 82,
                "velocity": 64,
                "duration": 0.09999999999999876,
                "tempo": 120.0
            },
            {
                "start_time": 8.111363636363636,
                "end_time": 8.209090909090909,
                "pitch": 81,
                "velocity": 64,
                "duration": 0.09772727272727266,
                "tempo": 120.0
            },
            {
                "start_time": 8.225,
                "end_time": 8.322727272727272,
                "pitch": 82,
                "velocity": 64,
                "duration": 0.09772727272727266,
                "tempo": 120.0
            },
            {
                "start_time": 8.338636363636363,
                "end_time": 8.436363636363636,
                "pitch": 84,
                "velocity": 64,
                "duration": 0.09772727272727266,
                "tempo": 120.0
            },
            {
                "start_time": 8.470454545454546,
                "end_time": 8.568181818181818,
                "pitch": 82,
                "velocity": 64,
                "duration": 0.09772727272727266,
                "tempo": 120.0
            },
            {
                "start_time": 8.586363636363636,
                "end_time": 8.686363636363636,
                "pitch": 81,
                "velocity": 64,
                "duration": 0.09999999999999964,
                "tempo": 120.0
            },
            {
                "start_time": 8.702272727272726,
                "end_time": 8.802272727272728,
                "pitch": 77,
                "velocity": 64,
                "duration": 0.10000000000000142,
                "tempo": 120.0
            },
            {
                "start_time": 8.836363636363636,
                "end_time": 8.936363636363636,
                "pitch": 79,
                "velocity": 64,
                "duration": 0.09999999999999964,
                "tempo": 120.0
            },
            {
                "start_time": 8.952272727272726,
                "end_time": 9.052272727272728,
                "pitch": 81,
                "velocity": 64,
                "duration": 0.10000000000000142,
                "tempo": 120.0
            },
            {
                "start_time": 9.070454545454545,
                "end_time": 9.170454545454545,
                "pitch": 82,
                "velocity": 64,
                "duration": 0.09999999999999964,
                "tempo": 120.0
            },
            {
                "start_time": 9.188636363636363,
                "end_time": 9.281818181818181,
                "pitch": 86,
                "velocity": 64,
                "duration": 0.0931818181818187,
                "tempo": 120.0
            },
            {
                "start_time": 9.313636363636363,
                "end_time": 9.409090909090908,
                "pitch": 84,
                "velocity": 64,
                "duration": 0.09545454545454568,
                "tempo": 120.0
            },
            {
                "start_time": 9.424999999999999,
                "end_time": 9.520454545454545,
                "pitch": 82,
                "velocity": 64,
                "duration": 0.09545454545454568,
                "tempo": 120.0
            },
            {
                "start_time": 9.536363636363635,
                "end_time": 9.634090909090908,
                "pitch": 81,
                "velocity": 64,
                "duration": 0.09772727272727266,
                "tempo": 120.0
            },
            {
                "start_time": 9.652272727272727,
                "end_time": 9.768181818181818,
                "pitch": 82,
                "velocity": 64,
                "duration": 0.1159090909090903,
                "tempo": 120.0
            },
            {
                "start_time": 9.786363636363635,
                "end_time": 9.886363636363637,
                "pitch": 84,
                "velocity": 64,
                "duration": 0.10000000000000142,
                "tempo": 120.0
            },
            {
                "start_time": 9.902272727272727,
                "end_time": 10.002272727272727,
                "pitch": 82,
                "velocity": 64,
                "duration": 0.09999999999999964,
                "tempo": 120.0
            },
            {
                "start_time": 10.020454545454545,
                "end_time": 10.120454545454544,
                "pitch": 81,
                "velocity": 64,
                "duration": 0.09999999999999964,
                "tempo": 120.0
            },
            {
                "start_time": 10.152272727272727,
                "end_time": 10.252272727272727,
                "pitch": 77,
                "velocity": 64,
                "duration": 0.09999999999999964,
                "tempo": 120.0
            },
            {
                "start_time": 10.270454545454545,
                "end_time": 10.368181818181817,
                "pitch": 79,
                "velocity": 64,
                "duration": 0.09772727272727266,
                "tempo": 120.0
            },
            {
                "start_time": 10.384090909090908,
                "end_time": 10.48181818181818,
                "pitch": 81,
                "velocity": 64,
                "duration": 0.09772727272727266,
                "tempo": 120.0
            },
            {
                "start_time": 10.497727272727273,
                "end_time": 10.611363636363636,
                "pitch": 82,
                "velocity": 64,
                "duration": 0.11363636363636331,
                "tempo": 120.0
            },
            {
                "start_time": 10.629545454545454,
                "end_time": 10.727272727272727,
                "pitch": 86,
                "velocity": 64,
                "duration": 0.09772727272727266,
                "tempo": 120.0
            },
            {
                "start_time": 10.743181818181817,
                "end_time": 10.84090909090909,
                "pitch": 84,
                "velocity": 64,
                "duration": 0.09772727272727266,
                "tempo": 120.0
            },
            {
                "start_time": 10.85681818181818,
                "end_time": 10.954545454545453,
                "pitch": 82,
                "velocity": 64,
                "duration": 0.09772727272727266,
                "tempo": 120.0
            },
            {
                "start_time": 10.988636363636363,
                "end_time": 11.086363636363636,
                "pitch": 81,
                "velocity": 64,
                "duration": 0.09772727272727266,
                "tempo": 120.0
            },
            {
                "start_time": 11.104545454545454,
                "end_time": 11.204545454545453,
                "pitch": 82,
                "velocity": 64,
                "duration": 0.09999999999999964,
                "tempo": 120.0
            },
            {
                "start_time": 11.220454545454546,
                "end_time": 11.320454545454545,
                "pitch": 84,
                "velocity": 64,
                "duration": 0.09999999999999964,
                "tempo": 120.0
            },
            {
                "start_time": 11.338636363636363,
                "end_time": 11.436363636363636,
                "pitch": 82,
                "velocity": 64,
                "duration": 0.09772727272727266,
                "tempo": 120.0
            },
            {
                "start_time": 11.468181818181817,
                "end_time": 11.56590909090909,
                "pitch": 81,
                "velocity": 64,
                "duration": 0.09772727272727266,
                "tempo": 120.0
            },
            {
                "start_time": 11.581818181818182,
                "end_time": 11.679545454545455,
                "pitch": 77,
                "velocity": 64,
                "duration": 0.09772727272727266,
                "tempo": 120.0
            },
            {
                "start_time": 11.697727272727272,
                "end_time": 11.793181818181818,
                "pitch": 79,
                "velocity": 64,
                "duration": 0.09545454545454568,
                "tempo": 120.0
            },
            {
                "start_time": 11.827272727272726,
                "end_time": 11.924999999999999,
                "pitch": 81,
                "velocity": 64,
                "duration": 0.09772727272727266,
                "tempo": 120.0
            },
            {
                "start_time": 11.94090909090909,
                "end_time": 12.038636363636362,
                "pitch": 82,
                "velocity": 64,
                "duration": 0.09772727272727266,
                "tempo": 120.0
            },
            {
                "start_time": 12.056818181818182,
                "end_time": 12.154545454545454,
                "pitch": 86,
                "velocity": 64,
                "duration": 0.09772727272727266,
                "tempo": 120.0
            },
            {
                "start_time": 12.172727272727272,
                "end_time": 12.272727272727272,
                "pitch": 84,
                "velocity": 64,
                "duration": 0.09999999999999964,
                "tempo": 120.0
            },
            {
                "start_time": 12.306818181818182,
                "end_time": 12.406818181818181,
                "pitch": 82,
                "velocity": 64,
                "duration": 0.09999999999999964,
                "tempo": 120.0
            },
            {
                "start_time": 12.422727272727272,
                "end_time": 12.522727272727272,
                "pitch": 81,
                "velocity": 64,
                "duration": 0.09999999999999964,
                "tempo": 120.0
            },
            {
                "start_time": 12.540909090909091,
                "end_time": 12.638636363636364,
                "pitch": 82,
                "velocity": 64,
                "duration": 0.09772727272727266,
                "tempo": 120.0
            },
            {
                "start_time": 12.656818181818181,
                "end_time": 12.772727272727272,
                "pitch": 84,
                "velocity": 64,
                "duration": 0.1159090909090903,
                "tempo": 120.0
            },
            {
                "start_time": 12.790909090909091,
                "end_time": 12.89090909090909,
                "pitch": 82,
                "velocity": 64,
                "duration": 0.09999999999999964,
                "tempo": 120.0
            },
            {
                "start_time": 12.906818181818181,
                "end_time": 13.006818181818181,
                "pitch": 81,
                "velocity": 64,
                "duration": 0.09999999999999964,
                "tempo": 120.0
            },
            {
                "start_time": 13.024999999999999,
                "end_time": 13.125,
                "pitch": 77,
                "velocity": 64,
                "duration": 0.10000000000000142,
                "tempo": 120.0
            },
            {
                "start_time": 13.159090909090908,
                "end_time": 13.254545454545454,
                "pitch": 79,
                "velocity": 64,
                "duration": 0.09545454545454568,
                "tempo": 120.0
            },
            {
                "start_time": 13.272727272727272,
                "end_time": 13.368181818181817,
                "pitch": 81,
                "velocity": 64,
                "duration": 0.09545454545454568,
                "tempo": 120.0
            },
            {
                "start_time": 13.386363636363635,
                "end_time": 13.484090909090908,
                "pitch": 82,
                "velocity": 64,
                "duration": 0.09772727272727266,
                "tempo": 120.0
            },
            {
                "start_time": 13.5,
                "end_time": 13.611363636363636,
                "pitch": 86,
                "velocity": 64,
                "duration": 0.11136363636363633,
                "tempo": 120.0
            },
            {
                "start_time": 13.627272727272727,
                "end_time": 13.720454545454544,
                "pitch": 84,
                "velocity": 64,
                "duration": 0.09318181818181692,
                "tempo": 120.0
            },
            {
                "start_time": 13.738636363636363,
                "end_time": 13.831818181818182,
                "pitch": 82,
                "velocity": 64,
                "duration": 0.0931818181818187,
                "tempo": 120.0
            },
            {
                "start_time": 13.847727272727273,
                "end_time": 13.947727272727272,
                "pitch": 81,
                "velocity": 64,
                "duration": 0.09999999999999964,
                "tempo": 120.0
            },
            {
                "start_time": 13.98181818181818,
                "end_time": 14.081818181818182,
                "pitch": 82,
                "velocity": 64,
                "duration": 0.10000000000000142,
                "tempo": 120.0
            },
            {
                "start_time": 14.097727272727273,
                "end_time": 14.197727272727272,
                "pitch": 84,
                "velocity": 64,
                "duration": 0.09999999999999964,
                "tempo": 120.0
            },
            {
                "start_time": 14.21590909090909,
                "end_time": 14.31590909090909,
                "pitch": 82,
                "velocity": 64,
                "duration": 0.09999999999999964,
                "tempo": 120.0
            },
            {
                "start_time": 14.33181818181818,
                "end_time": 14.431818181818182,
                "pitch": 81,
                "velocity": 64,
                "duration": 0.10000000000000142,
                "tempo": 120.0
            },
            {
                "start_time": 14.46590909090909,
                "end_time": 14.56590909090909,
                "pitch": 77,
                "velocity": 64,
                "duration": 0.09999999999999964,
                "tempo": 120.0
            },
            {
                "start_time": 14.584090909090909,
                "end_time": 14.679545454545455,
                "pitch": 79,
                "velocity": 64,
                "duration": 0.09545454545454568,
                "tempo": 120.0
            },
            {
                "start_time": 14.697727272727272,
                "end_time": 14.795454545454545,
                "pitch": 81,
                "velocity": 64,
                "duration": 0.09772727272727266,
                "tempo": 120.0
            },
            {
                "start_time": 14.827272727272726,
                "end_time": 14.924999999999999,
                "pitch": 82,
                "velocity": 64,
                "duration": 0.09772727272727266,
                "tempo": 120.0
            },
            {
                "start_time": 14.94090909090909,
                "end_time": 15.040909090909091,
                "pitch": 86,
                "velocity": 64,
                "duration": 0.10000000000000142,
                "tempo": 120.0
            },
            {
                "start_time": 15.059090909090909,
                "end_time": 15.159090909090908,
                "pitch": 84,
                "velocity": 64,
                "duration": 0.09999999999999964,
                "tempo": 120.0
            },
            {
                "start_time": 15.174999999999999,
                "end_time": 15.274999999999999,
                "pitch": 82,
                "velocity": 64,
                "duration": 0.09999999999999964,
                "tempo": 120.0
            },
            {
                "start_time": 15.309090909090909,
                "end_time": 15.409090909090908,
                "pitch": 81,
                "velocity": 64,
                "duration": 0.09999999999999964,
                "tempo": 120.0
            },
            {
                "start_time": 15.424999999999999,
                "end_time": 15.524999999999999,
                "pitch": 82,
                "velocity": 64,
                "duration": 0.09999999999999964,
                "tempo": 120.0
            },
            {
                "start_time": 15.543181818181818,
                "end_time": 15.643181818181818,
                "pitch": 84,
                "velocity": 64,
                "duration": 0.09999999999999964,
                "tempo": 120.0
            },
            {
                "start_time": 15.659090909090908,
                "end_time": 15.770454545454545,
                "pitch": 82,
                "velocity": 64,
                "duration": 0.11136363636363633,
                "tempo": 120.0
            },
            {
                "start_time": 15.786363636363635,
                "end_time": 15.881818181818181,
                "pitch": 81,
                "velocity": 64,
                "duration": 0.09545454545454568,
                "tempo": 120.0
            },
            {
                "start_time": 15.897727272727272,
                "end_time": 15.99090909090909,
                "pitch": 77,
                "velocity": 64,
                "duration": 0.0931818181818187,
                "tempo": 120.0
            },
            {
                "start_time": 16.009090909090908,
                "end_time": 16.10681818181818,
                "pitch": 79,
                "velocity": 64,
                "duration": 0.09772727272727266,
                "tempo": 120.0
            },
            {
                "start_time": 16.14090909090909,
                "end_time": 16.24090909090909,
                "pitch": 81,
                "velocity": 64,
                "duration": 0.09999999999999787,
                "tempo": 120.0
            },
            {
                "start_time": 16.256818181818183,
                "end_time": 16.35681818181818,
                "pitch": 82,
                "velocity": 64,
                "duration": 0.09999999999999787,
                "tempo": 120.0
            },
            {
                "start_time": 16.375,
                "end_time": 16.472727272727273,
                "pitch": 86,
                "velocity": 64,
                "duration": 0.09772727272727266,
                "tempo": 120.0
            },
            {
                "start_time": 16.488636363636363,
                "end_time": 16.586363636363636,
                "pitch": 84,
                "velocity": 64,
                "duration": 0.09772727272727266,
                "tempo": 120.0
            },
            {
                "start_time": 16.620454545454546,
                "end_time": 16.71590909090909,
                "pitch": 82,
                "velocity": 64,
                "duration": 0.0954545454545439,
                "tempo": 120.0
            },
            {
                "start_time": 16.73409090909091,
                "end_time": 16.834090909090907,
                "pitch": 81,
                "velocity": 64,
                "duration": 0.09999999999999787,
                "tempo": 120.0
            },
            {
                "start_time": 16.849999999999998,
                "end_time": 16.95,
                "pitch": 82,
                "velocity": 64,
                "duration": 0.10000000000000142,
                "tempo": 120.0
            },
            {
                "start_time": 16.98409090909091,
                "end_time": 17.084090909090907,
                "pitch": 84,
                "velocity": 64,
                "duration": 0.09999999999999787,
                "tempo": 120.0
            },
            {
                "start_time": 17.102272727272727,
                "end_time": 17.2,
                "pitch": 82,
                "velocity": 64,
                "duration": 0.09772727272727266,
                "tempo": 120.0
            },
            {
                "start_time": 17.21818181818182,
                "end_time": 17.318181818181817,
                "pitch": 81,
                "velocity": 64,
                "duration": 0.09999999999999787,
                "tempo": 120.0
            },
            {
                "start_time": 17.334090909090907,
                "end_time": 17.43409090909091,
                "pitch": 77,
                "velocity": 64,
                "duration": 0.10000000000000142,
                "tempo": 120.0
            },
            {
                "start_time": 17.46818181818182,
                "end_time": 17.56590909090909,
                "pitch": 79,
                "velocity": 64,
                "duration": 0.09772727272727266,
                "tempo": 120.0
            },
            {
                "start_time": 17.581818181818182,
                "end_time": 17.679545454545455,
                "pitch": 81,
                "velocity": 64,
                "duration": 0.09772727272727266,
                "tempo": 120.0
            },
            {
                "start_time": 17.695454545454545,
                "end_time": 17.793181818181818,
                "pitch": 82,
                "velocity": 64,
                "duration": 0.09772727272727266,
                "tempo": 120.0
            },
            {
                "start_time": 17.827272727272728,
                "end_time": 17.927272727272726,
                "pitch": 86,
                "velocity": 64,
                "duration": 0.09999999999999787,
                "tempo": 120.0
            },
            {
                "start_time": 17.943181818181817,
                "end_time": 18.043181818181818,
                "pitch": 84,
                "velocity": 64,
                "duration": 0.10000000000000142,
                "tempo": 120.0
            },
            {
                "start_time": 18.061363636363634,
                "end_time": 18.161363636363635,
                "pitch": 82,
                "velocity": 64,
                "duration": 0.10000000000000142,
                "tempo": 120.0
            },
            {
                "start_time": 18.177272727272726,
                "end_time": 18.272727272727273,
                "pitch": 81,
                "velocity": 64,
                "duration": 0.09545454545454746,
                "tempo": 120.0
            },
            {
                "start_time": 18.304545454545455,
                "end_time": 18.4,
                "pitch": 82,
                "velocity": 64,
                "duration": 0.0954545454545439,
                "tempo": 120.0
            },
            {
                "start_time": 18.41590909090909,
                "end_time": 18.509090909090908,
                "pitch": 84,
                "velocity": 64,
                "duration": 0.0931818181818187,
                "tempo": 120.0
            },
            {
                "start_time": 18.525,
                "end_time": 18.625,
                "pitch": 82,
                "velocity": 64,
                "duration": 0.10000000000000142,
                "tempo": 120.0
            },
            {
                "start_time": 18.643181818181816,
                "end_time": 18.759090909090908,
                "pitch": 81,
                "velocity": 64,
                "duration": 0.11590909090909207,
                "tempo": 120.0
            },
            {
                "start_time": 18.775,
                "end_time": 18.875,
                "pitch": 77,
                "velocity": 64,
                "duration": 0.10000000000000142,
                "tempo": 120.0
            },
            {
                "start_time": 18.893181818181816,
                "end_time": 18.993181818181817,
                "pitch": 79,
                "velocity": 64,
                "duration": 0.10000000000000142,
                "tempo": 120.0
            },
            {
                "start_time": 19.009090909090908,
                "end_time": 19.10909090909091,
                "pitch": 81,
                "velocity": 64,
                "duration": 0.10000000000000142,
                "tempo": 120.0
            },
            {
                "start_time": 19.143181818181816,
                "end_time": 19.243181818181817,
                "pitch": 82,
                "velocity": 64,
                "duration": 0.10000000000000142,
                "tempo": 120.0
            },
            {
                "start_time": 19.261363636363637,
                "end_time": 19.35681818181818,
                "pitch": 86,
                "velocity": 64,
                "duration": 0.0954545454545439,
                "tempo": 120.0
            },
            {
                "start_time": 19.375,
                "end_time": 19.472727272727273,
                "pitch": 84,
                "velocity": 64,
                "duration": 0.09772727272727266,
                "tempo": 120.0
            },
            {
                "start_time": 19.488636363636363,
                "end_time": 19.586363636363636,
                "pitch": 82,
                "velocity": 64,
                "duration": 0.09772727272727266,
                "tempo": 120.0
            },
            {
                "start_time": 19.618181818181817,
                "end_time": 19.71818181818182,
                "pitch": 81,
                "velocity": 64,
                "duration": 0.10000000000000142,
                "tempo": 120.0
            },
            {
                "start_time": 19.736363636363635,
                "end_time": 19.836363636363636,
                "pitch": 82,
                "velocity": 64,
                "duration": 0.10000000000000142,
                "tempo": 120.0
            },
            {
                "start_time": 19.852272727272727,
                "end_time": 19.952272727272728,
                "pitch": 84,
                "velocity": 64,
                "duration": 0.10000000000000142,
                "tempo": 120.0
            },
            {
                "start_time": 19.986363636363635,
                "end_time": 20.086363636363636,
                "pitch": 82,
                "velocity": 64,
                "duration": 0.10000000000000142,
                "tempo": 120.0
            },
            {
                "start_time": 20.102272727272727,
                "end_time": 20.202272727272728,
                "pitch": 81,
                "velocity": 64,
                "duration": 0.10000000000000142,
                "tempo": 120.0
            },
            {
                "start_time": 20.220454545454544,
                "end_time": 20.320454545454545,
                "pitch": 77,
                "velocity": 64,
                "duration": 0.10000000000000142,
                "tempo": 120.0
            },
            {
                "start_time": 20.336363636363636,
                "end_time": 20.43181818181818,
                "pitch": 79,
                "velocity": 64,
                "duration": 0.0954545454545439,
                "tempo": 120.0
            },
            {
                "start_time": 20.46363636363636,
                "end_time": 20.55909090909091,
                "pitch": 81,
                "velocity": 64,
                "duration": 0.09545454545454746,
                "tempo": 120.0
            },
            {
                "start_time": 20.575,
                "end_time": 20.670454545454543,
                "pitch": 82,
                "velocity": 64,
                "duration": 0.0954545454545439,
                "tempo": 120.0
            },
            {
                "start_time": 20.686363636363634,
                "end_time": 20.784090909090907,
                "pitch": 86,
                "velocity": 64,
                "duration": 0.09772727272727266,
                "tempo": 120.0
            },
            {
                "start_time": 20.8,
                "end_time": 20.913636363636364,
                "pitch": 84,
                "velocity": 64,
                "duration": 0.11363636363636331,
                "tempo": 120.0
            },
            {
                "start_time": 20.929545454545455,
                "end_time": 21.027272727272727,
                "pitch": 82,
                "velocity": 64,
                "duration": 0.09772727272727266,
                "tempo": 120.0
            },
            {
                "start_time": 21.043181818181818,
                "end_time": 21.143181818181816,
                "pitch": 81,
                "velocity": 64,
                "duration": 0.09999999999999787,
                "tempo": 120.0
            },
            {
                "start_time": 21.161363636363635,
                "end_time": 21.261363636363637,
                "pitch": 82,
                "velocity": 64,
                "duration": 0.10000000000000142,
                "tempo": 120.0
            },
            {
                "start_time": 21.295454545454543,
                "end_time": 21.395454545454545,
                "pitch": 84,
                "velocity": 64,
                "duration": 0.10000000000000142,
                "tempo": 120.0
            },
            {
                "start_time": 21.411363636363635,
                "end_time": 21.511363636363637,
                "pitch": 82,
                "velocity": 64,
                "duration": 0.10000000000000142,
                "tempo": 120.0
            },
            {
                "start_time": 21.527272727272727,
                "end_time": 21.627272727272725,
                "pitch": 81,
                "velocity": 64,
                "duration": 0.09999999999999787,
                "tempo": 120.0
            },
            {
                "start_time": 21.645454545454545,
                "end_time": 21.761363636363637,
                "pitch": 77,
                "velocity": 64,
                "duration": 0.11590909090909207,
                "tempo": 120.0
            },
            {
                "start_time": 21.779545454545453,
                "end_time": 21.879545454545454,
                "pitch": 79,
                "velocity": 64,
                "duration": 0.10000000000000142,
                "tempo": 120.0
            },
            {
                "start_time": 21.895454545454545,
                "end_time": 21.995454545454546,
                "pitch": 81,
                "velocity": 64,
                "duration": 0.10000000000000142,
                "tempo": 120.0
            },
            {
                "start_time": 22.013636363636362,
                "end_time": 22.113636363636363,
                "pitch": 82,
                "velocity": 64,
                "duration": 0.10000000000000142,
                "tempo": 120.0
            },
            {
                "start_time": 22.145454545454545,
                "end_time": 22.243181818181817,
                "pitch": 86,
                "velocity": 64,
                "duration": 0.09772727272727266,
                "tempo": 120.0
            },
            {
                "start_time": 22.261363636363637,
                "end_time": 22.35909090909091,
                "pitch": 84,
                "velocity": 64,
                "duration": 0.09772727272727266,
                "tempo": 120.0
            },
            {
                "start_time": 22.375,
                "end_time": 22.472727272727273,
                "pitch": 82,
                "velocity": 64,
                "duration": 0.09772727272727266,
                "tempo": 120.0
            },
            {
                "start_time": 22.488636363636363,
                "end_time": 22.584090909090907,
                "pitch": 81,
                "velocity": 64,
                "duration": 0.0954545454545439,
                "tempo": 120.0
            },
            {
                "start_time": 22.61590909090909,
                "end_time": 22.709090909090907,
                "pitch": 82,
                "velocity": 64,
                "duration": 0.0931818181818187,
                "tempo": 120.0
            },
            {
                "start_time": 22.724999999999998,
                "end_time": 22.820454545454545,
                "pitch": 84,
                "velocity": 64,
                "duration": 0.09545454545454746,
                "tempo": 120.0
            },
            {
                "start_time": 22.836363636363636,
                "end_time": 22.936363636363634,
                "pitch": 82,
                "velocity": 64,
                "duration": 0.09999999999999787,
                "tempo": 120.0
            },
            {
                "start_time": 22.970454545454544,
                "end_time": 23.070454545454545,
                "pitch": 81,
                "velocity": 64,
                "duration": 0.10000000000000142,
                "tempo": 120.0
            },
            {
                "start_time": 23.086363636363636,
                "end_time": 23.186363636363634,
                "pitch": 77,
                "velocity": 64,
                "duration": 0.09999999999999787,
                "tempo": 120.0
            },
            {
                "start_time": 23.204545454545453,
                "end_time": 23.304545454545455,
                "pitch": 79,
                "velocity": 64,
                "duration": 0.10000000000000142,
                "tempo": 120.0
            },
            {
                "start_time": 23.320454545454545,
                "end_time": 23.420454545454543,
                "pitch": 81,
                "velocity": 64,
                "duration": 0.09999999999999787,
                "tempo": 120.0
            },
            {
                "start_time": 23.454545454545453,
                "end_time": 23.554545454545455,
                "pitch": 82,
                "velocity": 64,
                "duration": 0.10000000000000142,
                "tempo": 120.0
            },
            {
                "start_time": 23.57272727272727,
                "end_time": 23.668181818181818,
                "pitch": 86,
                "velocity": 64,
                "duration": 0.09545454545454746,
                "tempo": 120.0
            },
            {
                "start_time": 23.686363636363634,
                "end_time": 23.784090909090907,
                "pitch": 84,
                "velocity": 64,
                "duration": 0.09772727272727266,
                "tempo": 120.0
            },
            {
                "start_time": 23.799999999999997,
                "end_time": 23.913636363636364,
                "pitch": 82,
                "velocity": 64,
                "duration": 0.11363636363636687,
                "tempo": 120.0
            },
            {
                "start_time": 23.929545454545455,
                "end_time": 24.029545454545453,
                "pitch": 81,
                "velocity": 64,
                "duration": 0.09999999999999787,
                "tempo": 120.0
            },
            {
                "start_time": 24.047727272727272,
                "end_time": 24.14772727272727,
                "pitch": 82,
                "velocity": 64,
                "duration": 0.09999999999999787,
                "tempo": 120.0
            },
            {
                "start_time": 24.163636363636364,
                "end_time": 24.263636363636362,
                "pitch": 84,
                "velocity": 64,
                "duration": 0.09999999999999787,
                "tempo": 120.0
            },
            {
                "start_time": 24.297727272727272,
                "end_time": 24.39772727272727,
                "pitch": 82,
                "velocity": 64,
                "duration": 0.09999999999999787,
                "tempo": 120.0
            },
            {
                "start_time": 24.413636363636364,
                "end_time": 24.513636363636362,
                "pitch": 81,
                "velocity": 64,
                "duration": 0.09999999999999787,
                "tempo": 120.0
            },
            {
                "start_time": 24.53181818181818,
                "end_time": 24.63181818181818,
                "pitch": 77,
                "velocity": 64,
                "duration": 0.09999999999999787,
                "tempo": 120.0
            },
            {
                "start_time": 24.65,
                "end_time": 24.759090909090908,
                "pitch": 75,
                "velocity": 64,
                "duration": 0.10909090909090935,
                "tempo": 120.0
            },
            {
                "start_time": 24.775,
                "end_time": 24.870454545454542,
                "pitch": 79,
                "velocity": 64,
                "duration": 0.0954545454545439,
                "tempo": 120.0
            },
            {
                "start_time": 24.886363636363637,
                "end_time": 24.979545454545452,
                "pitch": 82,
                "velocity": 64,
                "duration": 0.09318181818181515,
                "tempo": 120.0
            },
            {
                "start_time": 24.995454545454542,
                "end_time": 25.095454545454544,
                "pitch": 81,
                "velocity": 64,
                "duration": 0.10000000000000142,
                "tempo": 120.0
            },
            {
                "start_time": 25.129545454545454,
                "end_time": 25.229545454545452,
                "pitch": 77,
                "velocity": 64,
                "duration": 0.09999999999999787,
                "tempo": 120.0
            },
            {
                "start_time": 25.24772727272727,
                "end_time": 25.345454545454544,
                "pitch": 72,
                "velocity": 64,
                "duration": 0.09772727272727266,
                "tempo": 120.0
            },
            {
                "start_time": 25.363636363636363,
                "end_time": 25.461363636363636,
                "pitch": 79,
                "velocity": 64,
                "duration": 0.09772727272727266,
                "tempo": 120.0
            },
            {
                "start_time": 25.477272727272727,
                "end_time": 25.575,
                "pitch": 75,
                "velocity": 64,
                "duration": 0.09772727272727266,
                "tempo": 120.0
            },
            {
                "start_time": 25.60909090909091,
                "end_time": 25.704545454545453,
                "pitch": 70,
                "velocity": 64,
                "duration": 0.0954545454545439,
                "tempo": 120.0
            },
            {
                "start_time": 25.722727272727273,
                "end_time": 25.82272727272727,
                "pitch": 79,
                "velocity": 64,
                "duration": 0.09999999999999787,
                "tempo": 120.0
            },
            {
                "start_time": 25.83863636363636,
                "end_time": 25.938636363636363,
                "pitch": 81,
                "velocity": 64,
                "duration": 0.10000000000000142,
                "tempo": 120.0
            },
            {
                "start_time": 25.972727272727273,
                "end_time": 26.07272727272727,
                "pitch": 82,
                "velocity": 64,
                "duration": 0.09999999999999787,
                "tempo": 120.0
            },
            {
                "start_time": 26.09090909090909,
                "end_time": 26.188636363636363,
                "pitch": 75,
                "velocity": 64,
                "duration": 0.09772727272727266,
                "tempo": 120.0
            },
            {
                "start_time": 26.206818181818182,
                "end_time": 26.30681818181818,
                "pitch": 79,
                "velocity": 64,
                "duration": 0.09999999999999787,
                "tempo": 120.0
            },
            {
                "start_time": 26.32272727272727,
                "end_time": 26.422727272727272,
                "pitch": 82,
                "velocity": 64,
                "duration": 0.10000000000000142,
                "tempo": 120.0
            },
            {
                "start_time": 26.456818181818182,
                "end_time": 26.554545454545455,
                "pitch": 81,
                "velocity": 64,
                "duration": 0.09772727272727266,
                "tempo": 120.0
            },
            {
                "start_time": 26.570454545454545,
                "end_time": 26.668181818181818,
                "pitch": 77,
                "velocity": 64,
                "duration": 0.09772727272727266,
                "tempo": 120.0
            },
            {
                "start_time": 26.686363636363634,
                "end_time": 26.78181818181818,
                "pitch": 72,
                "velocity": 64,
                "duration": 0.09545454545454746,
                "tempo": 120.0
            },
            {
                "start_time": 26.799999999999997,
                "end_time": 26.913636363636364,
                "pitch": 79,
                "velocity": 64,
                "duration": 0.11363636363636687,
                "tempo": 120.0
            },
            {
                "start_time": 26.929545454545455,
                "end_time": 27.027272727272727,
                "pitch": 75,
                "velocity": 64,
                "duration": 0.09772727272727266,
                "tempo": 120.0
            },
            {
                "start_time": 27.043181818181818,
                "end_time": 27.14090909090909,
                "pitch": 70,
                "velocity": 64,
                "duration": 0.09772727272727266,
                "tempo": 120.0
            },
            {
                "start_time": 27.159090909090907,
                "end_time": 27.25681818181818,
                "pitch": 79,
                "velocity": 64,
                "duration": 0.09772727272727266,
                "tempo": 120.0
            },
            {
                "start_time": 27.29090909090909,
                "end_time": 27.39090909090909,
                "pitch": 81,
                "velocity": 64,
                "duration": 0.10000000000000142,
                "tempo": 120.0
            },
            {
                "start_time": 27.40681818181818,
                "end_time": 27.509090909090908,
                "pitch": 82,
                "velocity": 64,
                "duration": 0.10227272727272663,
                "tempo": 120.0
            },
            {
                "start_time": 27.525,
                "end_time": 27.62272727272727,
                "pitch": 79,
                "velocity": 64,
                "duration": 0.09772727272727266,
                "tempo": 120.0
            },
            {
                "start_time": 27.638636363636362,
                "end_time": 27.752272727272725,
                "pitch": 81,
                "velocity": 64,
                "duration": 0.11363636363636331,
                "tempo": 120.0
            },
            {
                "start_time": 27.770454545454545,
                "end_time": 27.868181818181817,
                "pitch": 82,
                "velocity": 64,
                "duration": 0.09772727272727266,
                "tempo": 120.0
            },
            {
                "start_time": 27.884090909090908,
                "end_time": 27.98409090909091,
                "pitch": 86,
                "velocity": 64,
                "duration": 0.10000000000000142,
                "tempo": 120.0
            },
            {
                "start_time": 28.0,
                "end_time": 28.099999999999998,
                "pitch": 84,
                "velocity": 64,
                "duration": 0.09999999999999787,
                "tempo": 120.0
            },
            {
                "start_time": 28.134090909090908,
                "end_time": 28.23409090909091,
                "pitch": 82,
                "velocity": 64,
                "duration": 0.10000000000000142,
                "tempo": 120.0
            },
            {
                "start_time": 28.252272727272725,
                "end_time": 28.347727272727273,
                "pitch": 81,
                "velocity": 64,
                "duration": 0.09545454545454746,
                "tempo": 120.0
            },
            {
                "start_time": 28.36590909090909,
                "end_time": 28.46363636363636,
                "pitch": 82,
                "velocity": 64,
                "duration": 0.09772727272727266,
                "tempo": 120.0
            },
            {
                "start_time": 28.479545454545452,
                "end_time": 28.577272727272724,
                "pitch": 84,
                "velocity": 64,
                "duration": 0.09772727272727266,
                "tempo": 120.0
            },
            {
                "start_time": 28.60909090909091,
                "end_time": 28.709090909090907,
                "pitch": 82,
                "velocity": 64,
                "duration": 0.09999999999999787,
                "tempo": 120.0
            },
            {
                "start_time": 28.727272727272727,
                "end_time": 28.827272727272724,
                "pitch": 81,
                "velocity": 64,
                "duration": 0.09999999999999787,
                "tempo": 120.0
            },
            {
                "start_time": 28.843181818181815,
                "end_time": 28.943181818181817,
                "pitch": 77,
                "velocity": 64,
                "duration": 0.10000000000000142,
                "tempo": 120.0
            },
            {
                "start_time": 28.977272727272727,
                "end_time": 29.077272727272724,
                "pitch": 79,
                "velocity": 64,
                "duration": 0.09999999999999787,
                "tempo": 120.0
            },
            {
                "start_time": 29.093181818181815,
                "end_time": 29.193181818181817,
                "pitch": 81,
                "velocity": 64,
                "duration": 0.10000000000000142,
                "tempo": 120.0
            },
            {
                "start_time": 29.211363636363636,
                "end_time": 29.311363636363634,
                "pitch": 82,
                "velocity": 64,
                "duration": 0.09999999999999787,
                "tempo": 120.0
            },
            {
                "start_time": 29.327272727272724,
                "end_time": 29.422727272727272,
                "pitch": 86,
                "velocity": 64,
                "duration": 0.09545454545454746,
                "tempo": 120.0
            },
            {
                "start_time": 29.454545454545453,
                "end_time": 29.549999999999997,
                "pitch": 84,
                "velocity": 64,
                "duration": 0.0954545454545439,
                "tempo": 120.0
            },
            {
                "start_time": 29.565909090909088,
                "end_time": 29.659090909090907,
                "pitch": 82,
                "velocity": 64,
                "duration": 0.0931818181818187,
                "tempo": 120.0
            },
            {
                "start_time": 29.674999999999997,
                "end_time": 29.775,
                "pitch": 81,
                "velocity": 64,
                "duration": 0.10000000000000142,
                "tempo": 120.0
            },
            {
                "start_time": 29.793181818181818,
                "end_time": 29.909090909090907,
                "pitch": 82,
                "velocity": 64,
                "duration": 0.11590909090908852,
                "tempo": 120.0
            },
            {
                "start_time": 29.924999999999997,
                "end_time": 30.025,
                "pitch": 84,
                "velocity": 64,
                "duration": 0.10000000000000142,
                "tempo": 120.0
            },
            {
                "start_time": 30.043181818181818,
                "end_time": 30.143181818181816,
                "pitch": 82,
                "velocity": 64,
                "duration": 0.09999999999999787,
                "tempo": 120.0
            },
            {
                "start_time": 30.159090909090907,
                "end_time": 30.259090909090908,
                "pitch": 81,
                "velocity": 64,
                "duration": 0.10000000000000142,
                "tempo": 120.0
            },
            {
                "start_time": 30.293181818181818,
                "end_time": 30.393181818181816,
                "pitch": 77,
                "velocity": 64,
                "duration": 0.09999999999999787,
                "tempo": 120.0
            },
            {
                "start_time": 30.411363636363635,
                "end_time": 30.509090909090908,
                "pitch": 75,
                "velocity": 64,
                "duration": 0.09772727272727266,
                "tempo": 120.0
            },
            {
                "start_time": 30.525,
                "end_time": 30.62272727272727,
                "pitch": 79,
                "velocity": 64,
                "duration": 0.09772727272727266,
                "tempo": 120.0
            },
            {
                "start_time": 30.638636363636362,
                "end_time": 30.736363636363635,
                "pitch": 82,
                "velocity": 64,
                "duration": 0.09772727272727266,
                "tempo": 120.0
            },
            {
                "start_time": 30.768181818181816,
                "end_time": 30.86590909090909,
                "pitch": 81,
                "velocity": 64,
                "duration": 0.09772727272727266,
                "tempo": 120.0
            },
            {
                "start_time": 30.884090909090908,
                "end_time": 30.98181818181818,
                "pitch": 77,
                "velocity": 64,
                "duration": 0.09772727272727266,
                "tempo": 120.0
            },
            {
                "start_time": 30.99772727272727,
                "end_time": 31.095454545454544,
                "pitch": 72,
                "velocity": 64,
                "duration": 0.09772727272727266,
                "tempo": 120.0
            },
            {
                "start_time": 31.127272727272725,
                "end_time": 31.227272727272727,
                "pitch": 79,
                "velocity": 64,
                "duration": 0.10000000000000142,
                "tempo": 120.0
            },
            {
                "start_time": 31.245454545454542,
                "end_time": 31.345454545454544,
                "pitch": 75,
                "velocity": 64,
                "duration": 0.10000000000000142,
                "tempo": 120.0
            },
            {
                "start_time": 31.361363636363635,
                "end_time": 31.461363636363636,
                "pitch": 70,
                "velocity": 64,
                "duration": 0.10000000000000142,
                "tempo": 120.0
            },
            {
                "start_time": 31.479545454545452,
                "end_time": 31.575,
                "pitch": 79,
                "velocity": 64,
                "duration": 0.09545454545454746,
                "tempo": 120.0
            },
            {
                "start_time": 31.609090909090906,
                "end_time": 31.706818181818182,
                "pitch": 81,
                "velocity": 64,
                "duration": 0.09772727272727622,
                "tempo": 120.0
            },
            {
                "start_time": 31.722727272727273,
                "end_time": 31.820454545454545,
                "pitch": 82,
                "velocity": 64,
                "duration": 0.09772727272727266,
                "tempo": 120.0
            },
            {
                "start_time": 31.83863636363636,
                "end_time": 31.93409090909091,
                "pitch": 75,
                "velocity": 64,
                "duration": 0.09545454545454746,
                "tempo": 120.0
            },
            {
                "start_time": 31.968181818181815,
                "end_time": 32.06590909090909,
                "pitch": 79,
                "velocity": 64,
                "duration": 0.09772727272727266,
                "tempo": 120.0
            },
            {
                "start_time": 32.08181818181818,
                "end_time": 32.179545454545455,
                "pitch": 82,
                "velocity": 64,
                "duration": 0.09772727272727622,
                "tempo": 120.0
            },
            {
                "start_time": 32.195454545454545,
                "end_time": 32.29545454545455,
                "pitch": 81,
                "velocity": 64,
                "duration": 0.10000000000000142,
                "tempo": 120.0
            },
            {
                "start_time": 32.31136363636364,
                "end_time": 32.413636363636364,
                "pitch": 77,
                "velocity": 64,
                "duration": 0.10227272727272663,
                "tempo": 120.0
            },
            {
                "start_time": 32.44772727272727,
                "end_time": 32.54545454545455,
                "pitch": 72,
                "velocity": 64,
                "duration": 0.09772727272727622,
                "tempo": 120.0
            },
            {
                "start_time": 32.56363636363636,
                "end_time": 32.663636363636364,
                "pitch": 79,
                "velocity": 64,
                "duration": 0.10000000000000142,
                "tempo": 120.0
            },
            {
                "start_time": 32.679545454545455,
                "end_time": 32.779545454545456,
                "pitch": 75,
                "velocity": 64,
                "duration": 0.10000000000000142,
                "tempo": 120.0
            },
            {
                "start_time": 32.79772727272727,
                "end_time": 32.913636363636364,
                "pitch": 70,
                "velocity": 64,
                "duration": 0.11590909090909207,
                "tempo": 120.0
            },
            {
                "start_time": 32.93181818181818,
                "end_time": 33.029545454545456,
                "pitch": 79,
                "velocity": 64,
                "duration": 0.09772727272727622,
                "tempo": 120.0
            },
            {
                "start_time": 33.04772727272727,
                "end_time": 33.14772727272727,
                "pitch": 81,
                "velocity": 64,
                "duration": 0.10000000000000142,
                "tempo": 120.0
            },
            {
                "start_time": 33.163636363636364,
                "end_time": 33.263636363636365,
                "pitch": 82,
                "velocity": 64,
                "duration": 0.10000000000000142,
                "tempo": 120.0
            },
            {
                "start_time": 33.29772727272727,
                "end_time": 33.39545454545454,
                "pitch": 74,
                "velocity": 64,
                "duration": 0.09772727272726911,
                "tempo": 120.0
            },
            {
                "start_time": 33.413636363636364,
                "end_time": 33.50909090909091,
                "pitch": 78,
                "velocity": 64,
                "duration": 0.0954545454545439,
                "tempo": 120.0
            },
            {
                "start_time": 33.527272727272724,
                "end_time": 33.625,
                "pitch": 81,
                "velocity": 64,
                "duration": 0.09772727272727622,
                "tempo": 120.0
            },
            {
                "start_time": 33.64090909090909,
                "end_time": 33.736363636363635,
                "pitch": 74,
                "velocity": 64,
                "duration": 0.0954545454545439,
                "tempo": 120.0
            },
            {
                "start_time": 33.768181818181816,
                "end_time": 33.861363636363635,
                "pitch": 78,
                "velocity": 64,
                "duration": 0.0931818181818187,
                "tempo": 120.0
            },
            {
                "start_time": 33.877272727272725,
                "end_time": 33.97272727272727,
                "pitch": 81,
                "velocity": 64,
                "duration": 0.0954545454545439,
                "tempo": 120.0
            },
            {
                "start_time": 33.98863636363636,
                "end_time": 34.08863636363636,
                "pitch": 84,
                "velocity": 64,
                "duration": 0.10000000000000142,
                "tempo": 120.0
            },
            {
                "start_time": 34.12272727272727,
                "end_time": 34.22272727272727,
                "pitch": 81,
                "velocity": 64,
                "duration": 0.10000000000000142,
                "tempo": 120.0
            },
            {
                "start_time": 34.23863636363636,
                "end_time": 34.33863636363636,
                "pitch": 78,
                "velocity": 64,
                "duration": 0.10000000000000142,
                "tempo": 120.0
            },
            {
                "start_time": 34.35681818181818,
                "end_time": 34.45681818181818,
                "pitch": 74,
                "velocity": 64,
                "duration": 0.10000000000000142,
                "tempo": 120.0
            },
            {
                "start_time": 34.47272727272727,
                "end_time": 34.57272727272727,
                "pitch": 78,
                "velocity": 64,
                "duration": 0.10000000000000142,
                "tempo": 120.0
            },
            {
                "start_time": 34.60681818181818,
                "end_time": 34.70681818181818,
                "pitch": 81,
                "velocity": 64,
                "duration": 0.10000000000000142,
                "tempo": 120.0
            },
            {
                "start_time": 34.72272727272727,
                "end_time": 34.820454545454545,
                "pitch": 74,
                "velocity": 64,
                "duration": 0.09772727272727622,
                "tempo": 120.0
            },
            {
                "start_time": 34.836363636363636,
                "end_time": 34.934090909090905,
                "pitch": 78,
                "velocity": 64,
                "duration": 0.09772727272726911,
                "tempo": 120.0
            },
            {
                "start_time": 34.95227272727273,
                "end_time": 35.06590909090909,
                "pitch": 81,
                "velocity": 64,
                "duration": 0.11363636363635976,
                "tempo": 120.0
            },
            {
                "start_time": 35.08181818181818,
                "end_time": 35.18181818181818,
                "pitch": 74,
                "velocity": 64,
                "duration": 0.10000000000000142,
                "tempo": 120.0
            },
            {
                "start_time": 35.19772727272727,
                "end_time": 35.29772727272727,
                "pitch": 78,
                "velocity": 64,
                "duration": 0.10000000000000142,
                "tempo": 120.0
            },
            {
                "start_time": 35.31590909090909,
                "end_time": 35.41590909090909,
                "pitch": 81,
                "velocity": 64,
                "duration": 0.10000000000000142,
                "tempo": 120.0
            },
            {
                "start_time": 35.449999999999996,
                "end_time": 35.55,
                "pitch": 74,
                "velocity": 64,
                "duration": 0.10000000000000142,
                "tempo": 120.0
            },
            {
                "start_time": 35.56590909090909,
                "end_time": 35.66590909090909,
                "pitch": 76,
                "velocity": 64,
                "duration": 0.10000000000000142,
                "tempo": 120.0
            },
            {
                "start_time": 35.68181818181818,
                "end_time": 35.78181818181818,
                "pitch": 78,
                "velocity": 64,
                "duration": 0.10000000000000142,
                "tempo": 120.0
            },
            {
                "start_time": 35.8,
                "end_time": 35.91136363636363,
                "pitch": 79,
                "velocity": 64,
                "duration": 0.11136363636363455,
                "tempo": 120.0
            },
            {
                "start_time": 35.92727272727272,
                "end_time": 36.02045454545454,
                "pitch": 81,
                "velocity": 64,
                "duration": 0.0931818181818187,
                "tempo": 120.0
            },
            {
                "start_time": 36.038636363636364,
                "end_time": 36.13181818181818,
                "pitch": 86,
                "velocity": 64,
                "duration": 0.0931818181818187,
                "tempo": 120.0
            },
            {
                "start_time": 36.15,
                "end_time": 36.24772727272727,
                "pitch": 79,
                "velocity": 64,
                "duration": 0.09772727272726911,
                "tempo": 120.0
            },
            {
                "start_time": 36.28181818181818,
                "end_time": 36.38181818181818,
                "pitch": 81,
                "velocity": 64,
                "duration": 0.10000000000000142,
                "tempo": 120.0
            },
            {
                "start_time": 36.39772727272727,
                "end_time": 36.49772727272727,
                "pitch": 82,
                "velocity": 64,
                "duration": 0.09999999999999432,
                "tempo": 120.0
            },
            {
                "start_time": 36.51590909090909,
                "end_time": 36.61363636363636,
                "pitch": 86,
                "velocity": 64,
                "duration": 0.09772727272726911,
                "tempo": 120.0
            },
            {
                "start_time": 36.62954545454545,
                "end_time": 36.72727272727273,
                "pitch": 84,
                "velocity": 64,
                "duration": 0.09772727272727622,
                "tempo": 120.0
            },
            {
                "start_time": 36.75909090909091,
                "end_time": 36.85681818181818,
                "pitch": 82,
                "velocity": 64,
                "duration": 0.09772727272726911,
                "tempo": 120.0
            },
            {
                "start_time": 36.875,
                "end_time": 36.97272727272727,
                "pitch": 81,
                "velocity": 64,
                "duration": 0.09772727272726911,
                "tempo": 120.0
            },
            {
                "start_time": 36.99090909090909,
                "end_time": 37.090909090909086,
                "pitch": 82,
                "velocity": 64,
                "duration": 0.09999999999999432,
                "tempo": 120.0
            },
            {
                "start_time": 37.125,
                "end_time": 37.225,
                "pitch": 84,
                "velocity": 64,
                "duration": 0.10000000000000142,
                "tempo": 120.0
            },
            {
                "start_time": 37.24090909090909,
                "end_time": 37.340909090909086,
                "pitch": 82,
                "velocity": 64,
                "duration": 0.09999999999999432,
                "tempo": 120.0
            },
            {
                "start_time": 37.35909090909091,
                "end_time": 37.45909090909091,
                "pitch": 81,
                "velocity": 64,
                "duration": 0.10000000000000142,
                "tempo": 120.0
            },
            {
                "start_time": 37.475,
                "end_time": 37.574999999999996,
                "pitch": 77,
                "velocity": 64,
                "duration": 0.09999999999999432,
                "tempo": 120.0
            },
            {
                "start_time": 37.60909090909091,
                "end_time": 37.70681818181818,
                "pitch": 79,
                "velocity": 64,
                "duration": 0.09772727272726911,
                "tempo": 120.0
            },
            {
                "start_time": 37.72272727272727,
                "end_time": 37.820454545454545,
                "pitch": 81,
                "velocity": 64,
                "duration": 0.09772727272727622,
                "tempo": 120.0
            },
            {
                "start_time": 37.836363636363636,
                "end_time": 37.934090909090905,
                "pitch": 82,
                "velocity": 64,
                "duration": 0.09772727272726911,
                "tempo": 120.0
            },
            {
                "start_time": 37.949999999999996,
                "end_time": 38.06136363636364,
                "pitch": 86,
                "velocity": 64,
                "duration": 0.11136363636364166,
                "tempo": 120.0
            },
            {
                "start_time": 38.07727272727273,
                "end_time": 38.17272727272727,
                "pitch": 84,
                "velocity": 64,
                "duration": 0.0954545454545439,
                "tempo": 120.0
            },
            {
                "start_time": 38.18863636363636,
                "end_time": 38.28409090909091,
                "pitch": 82,
                "velocity": 64,
                "duration": 0.0954545454545439,
                "tempo": 120.0
            },
            {
                "start_time": 38.3,
                "end_time": 38.39772727272727,
                "pitch": 81,
                "velocity": 64,
                "duration": 0.09772727272727622,
                "tempo": 120.0
            },
            {
                "start_time": 38.43181818181818,
                "end_time": 38.53181818181818,
                "pitch": 82,
                "velocity": 64,
                "duration": 0.10000000000000142,
                "tempo": 120.0
            },
            {
                "start_time": 38.55,
                "end_time": 38.65,
                "pitch": 84,
                "velocity": 64,
                "duration": 0.10000000000000142,
                "tempo": 120.0
            },
            {
                "start_time": 38.66590909090909,
                "end_time": 38.76590909090909,
                "pitch": 82,
                "velocity": 64,
                "duration": 0.10000000000000142,
                "tempo": 120.0
            },
            {
                "start_time": 38.78409090909091,
                "end_time": 38.9,
                "pitch": 81,
                "velocity": 64,
                "duration": 0.11590909090909207,
                "tempo": 120.0
            },
            {
                "start_time": 38.91590909090909,
                "end_time": 39.01590909090909,
                "pitch": 77,
                "velocity": 64,
                "duration": 0.10000000000000142,
                "tempo": 120.0
            },
            {
                "start_time": 39.03409090909091,
                "end_time": 39.13409090909091,
                "pitch": 79,
                "velocity": 64,
                "duration": 0.10000000000000142,
                "tempo": 120.0
            },
            {
                "start_time": 39.15,
                "end_time": 39.25,
                "pitch": 81,
                "velocity": 64,
                "duration": 0.10000000000000142,
                "tempo": 120.0
            },
            {
                "start_time": 39.28409090909091,
                "end_time": 39.38409090909091,
                "pitch": 82,
                "velocity": 64,
                "duration": 0.10000000000000142,
                "tempo": 120.0
            },
            {
                "start_time": 39.402272727272724,
                "end_time": 39.5,
                "pitch": 86,
                "velocity": 64,
                "duration": 0.09772727272727622,
                "tempo": 120.0
            },
            {
                "start_time": 39.51590909090909,
                "end_time": 39.61363636363636,
                "pitch": 84,
                "velocity": 64,
                "duration": 0.09772727272726911,
                "tempo": 120.0
            },
            {
                "start_time": 39.62954545454545,
                "end_time": 39.72727272727273,
                "pitch": 82,
                "velocity": 64,
                "duration": 0.09772727272727622,
                "tempo": 120.0
            },
            {
                "start_time": 39.75909090909091,
                "end_time": 39.85909090909091,
                "pitch": 81,
                "velocity": 64,
                "duration": 0.10000000000000142,
                "tempo": 120.0
            },
            {
                "start_time": 39.877272727272725,
                "end_time": 39.97727272727273,
                "pitch": 82,
                "velocity": 64,
                "duration": 0.10000000000000142,
                "tempo": 120.0
            },
            {
                "start_time": 39.99318181818182,
                "end_time": 40.09318181818182,
                "pitch": 84,
                "velocity": 64,
                "duration": 0.10000000000000142,
                "tempo": 120.0
            },
            {
                "start_time": 40.127272727272725,
                "end_time": 40.22727272727273,
                "pitch": 82,
                "velocity": 64,
                "duration": 0.10000000000000142,
                "tempo": 120.0
            },
            {
                "start_time": 40.24545454545454,
                "end_time": 40.34318181818182,
                "pitch": 81,
                "velocity": 64,
                "duration": 0.09772727272727622,
                "tempo": 120.0
            },
            {
                "start_time": 40.361363636363635,
                "end_time": 40.461363636363636,
                "pitch": 77,
                "velocity": 64,
                "duration": 0.10000000000000142,
                "tempo": 120.0
            },
            {
                "start_time": 40.47727272727273,
                "end_time": 40.57272727272727,
                "pitch": 79,
                "velocity": 64,
                "duration": 0.0954545454545439,
                "tempo": 120.0
            },
            {
                "start_time": 40.60454545454545,
                "end_time": 40.699999999999996,
                "pitch": 81,
                "velocity": 64,
                "duration": 0.0954545454545439,
                "tempo": 120.0
            },
            {
                "start_time": 40.715909090909086,
                "end_time": 40.81136363636364,
                "pitch": 82,
                "velocity": 64,
                "duration": 0.09545454545455101,
                "tempo": 120.0
            },
            {
                "start_time": 40.82727272727273,
                "end_time": 40.92272727272727,
                "pitch": 86,
                "velocity": 64,
                "duration": 0.0954545454545439,
                "tempo": 120.0
            },
            {
                "start_time": 40.94090909090909,
                "end_time": 41.054545454545455,
                "pitch": 84,
                "velocity": 64,
                "duration": 0.11363636363636687,
                "tempo": 120.0
            },
            {
                "start_time": 41.070454545454545,
                "end_time": 41.168181818181814,
                "pitch": 82,
                "velocity": 64,
                "duration": 0.09772727272726911,
                "tempo": 120.0
            },
            {
                "start_time": 41.18636363636364,
                "end_time": 41.28409090909091,
                "pitch": 81,
                "velocity": 64,
                "duration": 0.09772727272726911,
                "tempo": 120.0
            },
            {
                "start_time": 41.30227272727272,
                "end_time": 41.402272727272724,
                "pitch": 82,
                "velocity": 64,
                "duration": 0.10000000000000142,
                "tempo": 120.0
            },
            {
                "start_time": 41.43636363636364,
                "end_time": 41.53636363636363,
                "pitch": 84,
                "velocity": 64,
                "duration": 0.09999999999999432,
                "tempo": 120.0
            },
            {
                "start_time": 41.55227272727272,
                "end_time": 41.652272727272724,
                "pitch": 82,
                "velocity": 64,
                "duration": 0.10000000000000142,
                "tempo": 120.0
            },
            {
                "start_time": 41.67045454545455,
                "end_time": 41.768181818181816,
                "pitch": 81,
                "velocity": 64,
                "duration": 0.09772727272726911,
                "tempo": 120.0
            },
            {
                "start_time": 41.78636363636363,
                "end_time": 41.88636363636363,
                "pitch": 77,
                "velocity": 64,
                "duration": 0.10000000000000142,
                "tempo": 120.0
            },
            {
                "start_time": 41.92045454545455,
                "end_time": 42.02045454545454,
                "pitch": 79,
                "velocity": 64,
                "duration": 0.09999999999999432,
                "tempo": 120.0
            },
            {
                "start_time": 42.03636363636363,
                "end_time": 42.13636363636363,
                "pitch": 81,
                "velocity": 64,
                "duration": 0.10000000000000142,
                "tempo": 120.0
            },
            {
                "start_time": 42.15454545454545,
                "end_time": 42.25454545454545,
                "pitch": 82,
                "velocity": 64,
                "duration": 0.10000000000000142,
                "tempo": 120.0
            },
            {
                "start_time": 42.288636363636364,
                "end_time": 42.38409090909091,
                "pitch": 86,
                "velocity": 64,
                "duration": 0.0954545454545439,
                "tempo": 120.0
            },
            {
                "start_time": 42.402272727272724,
                "end_time": 42.5,
                "pitch": 84,
                "velocity": 64,
                "duration": 0.09772727272727622,
                "tempo": 120.0
            },
            {
                "start_time": 42.51590909090909,
                "end_time": 42.61363636363636,
                "pitch": 82,
                "velocity": 64,
                "duration": 0.09772727272726911,
                "tempo": 120.0
            },
            {
                "start_time": 42.62954545454545,
                "end_time": 42.725,
                "pitch": 81,
                "velocity": 64,
                "duration": 0.09545454545455101,
                "tempo": 120.0
            },
            {
                "start_time": 42.75681818181818,
                "end_time": 42.85,
                "pitch": 82,
                "velocity": 64,
                "duration": 0.0931818181818187,
                "tempo": 120.0
            },
            {
                "start_time": 42.86818181818182,
                "end_time": 42.961363636363636,
                "pitch": 84,
                "velocity": 64,
                "duration": 0.0931818181818187,
                "tempo": 120.0
            },
            {
                "start_time": 42.97727272727273,
                "end_time": 43.07727272727273,
                "pitch": 82,
                "velocity": 64,
                "duration": 0.10000000000000142,
                "tempo": 120.0
            },
            {
                "start_time": 43.111363636363635,
                "end_time": 43.211363636363636,
                "pitch": 81,
                "velocity": 64,
                "duration": 0.10000000000000142,
                "tempo": 120.0
            },
            {
                "start_time": 43.22727272727273,
                "end_time": 43.32727272727273,
                "pitch": 77,
                "velocity": 64,
                "duration": 0.10000000000000142,
                "tempo": 120.0
            },
            {
                "start_time": 43.345454545454544,
                "end_time": 43.445454545454545,
                "pitch": 79,
                "velocity": 64,
                "duration": 0.10000000000000142,
                "tempo": 120.0
            },
            {
                "start_time": 43.461363636363636,
                "end_time": 43.56136363636364,
                "pitch": 81,
                "velocity": 64,
                "duration": 0.10000000000000142,
                "tempo": 120.0
            },
            {
                "start_time": 43.595454545454544,
                "end_time": 43.695454545454545,
                "pitch": 82,
                "velocity": 64,
                "duration": 0.10000000000000142,
                "tempo": 120.0
            },
            {
                "start_time": 43.711363636363636,
                "end_time": 43.809090909090905,
                "pitch": 86,
                "velocity": 64,
                "duration": 0.09772727272726911,
                "tempo": 120.0
            },
            {
                "start_time": 43.82727272727273,
                "end_time": 43.925,
                "pitch": 84,
                "velocity": 64,
                "duration": 0.09772727272726911,
                "tempo": 120.0
            },
            {
                "start_time": 43.94090909090909,
                "end_time": 44.054545454545455,
                "pitch": 82,
                "velocity": 64,
                "duration": 0.11363636363636687,
                "tempo": 120.0
            },
            {
                "start_time": 44.070454545454545,
                "end_time": 44.17045454545455,
                "pitch": 81,
                "velocity": 64,
                "duration": 0.10000000000000142,
                "tempo": 120.0
            },
            {
                "start_time": 44.18863636363636,
                "end_time": 44.288636363636364,
                "pitch": 82,
                "velocity": 64,
                "duration": 0.10000000000000142,
                "tempo": 120.0
            },
            {
                "start_time": 44.304545454545455,
                "end_time": 44.40454545454545,
                "pitch": 84,
                "velocity": 64,
                "duration": 0.09999999999999432,
                "tempo": 120.0
            },
            {
                "start_time": 44.43863636363636,
                "end_time": 44.538636363636364,
                "pitch": 82,
                "velocity": 64,
                "duration": 0.10000000000000142,
                "tempo": 120.0
            },
            {
                "start_time": 44.554545454545455,
                "end_time": 44.65454545454545,
                "pitch": 81,
                "velocity": 64,
                "duration": 0.09999999999999432,
                "tempo": 120.0
            },
            {
                "start_time": 44.67272727272727,
                "end_time": 44.77272727272727,
                "pitch": 77,
                "velocity": 64,
                "duration": 0.10000000000000142,
                "tempo": 120.0
            },
            {
                "start_time": 44.79090909090909,
                "end_time": 44.88409090909091,
                "pitch": 79,
                "velocity": 64,
                "duration": 0.0931818181818187,
                "tempo": 120.0
            },
            {
                "start_time": 44.91590909090909,
                "end_time": 45.01136363636363,
                "pitch": 81,
                "velocity": 64,
                "duration": 0.0954545454545439,
                "tempo": 120.0
            },
            {
                "start_time": 45.027272727272724,
                "end_time": 45.12045454545454,
                "pitch": 82,
                "velocity": 64,
                "duration": 0.0931818181818187,
                "tempo": 120.0
            },
            {
                "start_time": 45.13863636363636,
                "end_time": 45.236363636363635,
                "pitch": 86,
                "velocity": 64,
                "duration": 0.09772727272727622,
                "tempo": 120.0
            },
            {
                "start_time": 45.27045454545454,
                "end_time": 45.37045454545454,
                "pitch": 84,
                "velocity": 64,
                "duration": 0.10000000000000142,
                "tempo": 120.0
            },
            {
                "start_time": 45.38863636363636,
                "end_time": 45.48863636363636,
                "pitch": 82,
                "velocity": 64,
                "duration": 0.10000000000000142,
                "tempo": 120.0
            },
            {
                "start_time": 45.50454545454545,
                "end_time": 45.60227272727273,
                "pitch": 81,
                "velocity": 64,
                "duration": 0.09772727272727622,
                "tempo": 120.0
            },
            {
                "start_time": 45.61818181818182,
                "end_time": 45.715909090909086,
                "pitch": 82,
                "velocity": 64,
                "duration": 0.09772727272726911,
                "tempo": 120.0
            },
            {
                "start_time": 45.75,
                "end_time": 45.845454545454544,
                "pitch": 84,
                "velocity": 64,
                "duration": 0.0954545454545439,
                "tempo": 120.0
            },
            {
                "start_time": 45.86363636363636,
                "end_time": 45.96363636363636,
                "pitch": 82,
                "velocity": 64,
                "duration": 0.10000000000000142,
                "tempo": 120.0
            },
            {
                "start_time": 45.97954545454545,
                "end_time": 46.07954545454545,
                "pitch": 81,
                "velocity": 64,
                "duration": 0.10000000000000142,
                "tempo": 120.0
            },
            {
                "start_time": 46.09772727272727,
                "end_time": 46.21363636363636,
                "pitch": 77,
                "velocity": 64,
                "duration": 0.11590909090909207,
                "tempo": 120.0
            },
            {
                "start_time": 46.22954545454545,
                "end_time": 46.32954545454545,
                "pitch": 79,
                "velocity": 64,
                "duration": 0.10000000000000142,
                "tempo": 120.0
            },
            {
                "start_time": 46.34772727272727,
                "end_time": 46.44772727272727,
                "pitch": 81,
                "velocity": 64,
                "duration": 0.10000000000000142,
                "tempo": 120.0
            },
            {
                "start_time": 46.46363636363636,
                "end_time": 46.56363636363636,
                "pitch": 82,
                "velocity": 64,
                "duration": 0.10000000000000142,
                "tempo": 120.0
            },
            {
                "start_time": 46.59772727272727,
                "end_time": 46.695454545454545,
                "pitch": 86,
                "velocity": 64,
                "duration": 0.09772727272727622,
                "tempo": 120.0
            },
            {
                "start_time": 46.711363636363636,
                "end_time": 46.809090909090905,
                "pitch": 84,
                "velocity": 64,
                "duration": 0.09772727272726911,
                "tempo": 120.0
            },
            {
                "start_time": 46.82727272727273,
                "end_time": 46.92272727272727,
                "pitch": 82,
                "velocity": 64,
                "duration": 0.0954545454545439,
                "tempo": 120.0
            },
            {
                "start_time": 46.94090909090909,
                "end_time": 47.054545454545455,
                "pitch": 81,
                "velocity": 64,
                "duration": 0.11363636363636687,
                "tempo": 120.0
            },
            {
                "start_time": 47.070454545454545,
                "end_time": 47.168181818181814,
                "pitch": 82,
                "velocity": 64,
                "duration": 0.09772727272726911,
                "tempo": 120.0
            },
            {
                "start_time": 47.184090909090905,
                "end_time": 47.28181818181818,
                "pitch": 84,
                "velocity": 64,
                "duration": 0.09772727272727622,
                "tempo": 120.0
            },
            {
                "start_time": 47.3,
                "end_time": 47.39772727272727,
                "pitch": 82,
                "velocity": 64,
                "duration": 0.09772727272727622,
                "tempo": 120.0
            },
            {
                "start_time": 47.43181818181818,
                "end_time": 47.53181818181818,
                "pitch": 81,
                "velocity": 64,
                "duration": 0.10000000000000142,
                "tempo": 120.0
            },
            {
                "start_time": 47.54772727272727,
                "end_time": 47.65,
                "pitch": 77,
                "velocity": 64,
                "duration": 0.10227272727272663,
                "tempo": 120.0
            },
            {
                "start_time": 47.66590909090909,
                "end_time": 47.76363636363636,
                "pitch": 78,
                "velocity": 64,
                "duration": 0.09772727272726911,
                "tempo": 120.0
            },
            {
                "start_time": 47.77954545454545,
                "end_time": 47.877272727272725,
                "pitch": 81,
                "velocity": 64,
                "duration": 0.09772727272727622,
                "tempo": 120.0
            },
            {
                "start_time": 47.91136363636363,
                "end_time": 48.00909090909091,
                "pitch": 86,
                "velocity": 64,
                "duration": 0.09772727272727622,
                "tempo": 120.0
            },
            {
                "start_time": 48.025,
                "end_time": 48.125,
                "pitch": 84,
                "velocity": 64,
                "duration": 0.10000000000000142,
                "tempo": 120.0
            },
            {
                "start_time": 48.14090909090909,
                "end_time": 48.24090909090909,
                "pitch": 81,
                "velocity": 64,
                "duration": 0.10000000000000142,
                "tempo": 120.0
            },
            {
                "start_time": 48.275,
                "end_time": 48.375,
                "pitch": 84,
                "velocity": 64,
                "duration": 0.10000000000000142,
                "tempo": 120.0
            },
            {
                "start_time": 48.393181818181816,
                "end_time": 48.48863636363636,
                "pitch": 78,
                "velocity": 64,
                "duration": 0.0954545454545439,
                "tempo": 120.0
            },
            {
                "start_time": 48.50681818181818,
                "end_time": 48.60454545454545,
                "pitch": 81,
                "velocity": 64,
                "duration": 0.09772727272726911,
                "tempo": 120.0
            },
            {
                "start_time": 48.62045454545454,
                "end_time": 48.71818181818182,
                "pitch": 86,
                "velocity": 64,
                "duration": 0.09772727272727622,
                "tempo": 120.0
            },
            {
                "start_time": 48.75,
                "end_time": 48.849999999999994,
                "pitch": 84,
                "velocity": 64,
                "duration": 0.09999999999999432,
                "tempo": 120.0
            },
            {
                "start_time": 48.86818181818182,
                "end_time": 48.96818181818182,
                "pitch": 81,
                "velocity": 64,
                "duration": 0.10000000000000142,
                "tempo": 120.0
            },
            {
                "start_time": 48.98409090909091,
                "end_time": 49.084090909090904,
                "pitch": 84,
                "velocity": 64,
                "duration": 0.09999999999999432,
                "tempo": 120.0
            },
            {
                "start_time": 49.10227272727273,
                "end_time": 49.211363636363636,
                "pitch": 78,
                "velocity": 64,
                "duration": 0.10909090909090935,
                "tempo": 120.0
            },
            {
                "start_time": 49.22727272727273,
                "end_time": 49.32272727272727,
                "pitch": 81,
                "velocity": 64,
                "duration": 0.0954545454545439,
                "tempo": 120.0
            },
            {
                "start_time": 49.33863636363636,
                "end_time": 49.434090909090905,
                "pitch": 86,
                "velocity": 64,
                "duration": 0.0954545454545439,
                "tempo": 120.0
            },
            {
                "start_time": 49.449999999999996,
                "end_time": 49.54772727272727,
                "pitch": 84,
                "velocity": 64,
                "duration": 0.09772727272727622,
                "tempo": 120.0
            },
            {
                "start_time": 49.58181818181818,
                "end_time": 49.68181818181818,
                "pitch": 81,
                "velocity": 64,
                "duration": 0.10000000000000142,
                "tempo": 120.0
            },
            {
                "start_time": 49.699999999999996,
                "end_time": 49.8,
                "pitch": 84,
                "velocity": 64,
                "duration": 0.10000000000000142,
                "tempo": 120.0
            },
            {
                "start_time": 49.81590909090909,
                "end_time": 49.913636363636364,
                "pitch": 78,
                "velocity": 64,
                "duration": 0.09772727272727622,
                "tempo": 120.0
            },
            {
                "start_time": 49.929545454545455,
                "end_time": 50.043181818181814,
                "pitch": 81,
                "velocity": 64,
                "duration": 0.11363636363635976,
                "tempo": 120.0
            },
            {
                "start_time": 50.06136363636364,
                "end_time": 50.15909090909091,
                "pitch": 86,
                "velocity": 64,
                "duration": 0.09772727272726911,
                "tempo": 120.0
            },
            {
                "start_time": 50.175,
                "end_time": 50.277272727272724,
                "pitch": 84,
                "velocity": 64,
                "duration": 0.10227272727272663,
                "tempo": 120.0
            },
            {
                "start_time": 50.29545454545454,
                "end_time": 50.39772727272727,
                "pitch": 81,
                "velocity": 64,
                "duration": 0.10227272727273373,
                "tempo": 120.0
            },
            {
                "start_time": 50.43181818181818,
                "end_time": 50.53636363636363,
                "pitch": 84,
                "velocity": 64,
                "duration": 0.10454545454545183,
                "tempo": 120.0
            },
            {
                "start_time": 50.554545454545455,
                "end_time": 50.652272727272724,
                "pitch": 78,
                "velocity": 64,
                "duration": 0.09772727272726911,
                "tempo": 120.0
            },
            {
                "start_time": 50.668181818181814,
                "end_time": 50.76590909090909,
                "pitch": 81,
                "velocity": 64,
                "duration": 0.09772727272727622,
                "tempo": 120.0
            },
            {
                "start_time": 50.78181818181818,
                "end_time": 50.87954545454545,
                "pitch": 86,
                "velocity": 64,
                "duration": 0.09772727272726911,
                "tempo": 120.0
            },
            {
                "start_time": 50.913636363636364,
                "end_time": 51.01136363636363,
                "pitch": 84,
                "velocity": 64,
                "duration": 0.09772727272726911,
                "tempo": 120.0
            },
            {
                "start_time": 51.02954545454545,
                "end_time": 51.12954545454545,
                "pitch": 81,
                "velocity": 64,
                "duration": 0.10000000000000142,
                "tempo": 120.0
            },
            {
                "start_time": 51.14545454545454,
                "end_time": 51.24545454545454,
                "pitch": 84,
                "velocity": 64,
                "duration": 0.10000000000000142,
                "tempo": 120.0
            },
            {
                "start_time": 51.27954545454545,
                "end_time": 51.377272727272725,
                "pitch": 78,
                "velocity": 64,
                "duration": 0.09772727272727622,
                "tempo": 120.0
            },
            {
                "start_time": 51.393181818181816,
                "end_time": 51.490909090909085,
                "pitch": 81,
                "velocity": 64,
                "duration": 0.09772727272726911,
                "tempo": 120.0
            },
            {
                "start_time": 51.50909090909091,
                "end_time": 51.60454545454545,
                "pitch": 86,
                "velocity": 64,
                "duration": 0.0954545454545439,
                "tempo": 120.0
            },
            {
                "start_time": 51.62272727272727,
                "end_time": 51.720454545454544,
                "pitch": 84,
                "velocity": 64,
                "duration": 0.09772727272727622,
                "tempo": 120.0
            },
            {
                "start_time": 51.752272727272725,
                "end_time": 51.849999999999994,
                "pitch": 81,
                "velocity": 64,
                "duration": 0.09772727272726911,
                "tempo": 120.0
            },
            {
                "start_time": 51.865909090909085,
                "end_time": 51.96363636363636,
                "pitch": 84,
                "velocity": 64,
                "duration": 0.09772727272727622,
                "tempo": 120.0
            },
            {
                "start_time": 51.98181818181818,
                "end_time": 52.07727272727273,
                "pitch": 78,
                "velocity": 64,
                "duration": 0.09545454545455101,
                "tempo": 120.0
            },
            {
                "start_time": 52.095454545454544,
                "end_time": 52.209090909090904,
                "pitch": 81,
                "velocity": 64,
                "duration": 0.11363636363635976,
                "tempo": 120.0
            },
            {
                "start_time": 52.224999999999994,
                "end_time": 52.32272727272727,
                "pitch": 86,
                "velocity": 64,
                "duration": 0.09772727272727622,
                "tempo": 120.0
            },
            {
                "start_time": 52.33863636363636,
                "end_time": 52.43863636363636,
                "pitch": 84,
                "velocity": 64,
                "duration": 0.10000000000000142,
                "tempo": 120.0
            },
            {
                "start_time": 52.45681818181818,
                "end_time": 52.55681818181818,
                "pitch": 81,
                "velocity": 64,
                "duration": 0.10000000000000142,
                "tempo": 120.0
            },
            {
                "start_time": 52.590909090909086,
                "end_time": 52.68863636363636,
                "pitch": 84,
                "velocity": 64,
                "duration": 0.09772727272727622,
                "tempo": 120.0
            },
            {
                "start_time": 52.70681818181818,
                "end_time": 52.80681818181818,
                "pitch": 78,
                "velocity": 64,
                "duration": 0.10000000000000142,
                "tempo": 120.0
            },
            {
                "start_time": 52.82272727272727,
                "end_time": 52.92272727272727,
                "pitch": 81,
                "velocity": 64,
                "duration": 0.10000000000000142,
                "tempo": 120.0
            },
            {
                "start_time": 52.94090909090909,
                "end_time": 53.05681818181818,
                "pitch": 86,
                "velocity": 64,
                "duration": 0.11590909090909207,
                "tempo": 120.0
            },
            {
                "start_time": 53.074999999999996,
                "end_time": 53.17272727272727,
                "pitch": 84,
                "velocity": 64,
                "duration": 0.09772727272727622,
                "tempo": 120.0
            },
            {
                "start_time": 53.19090909090909,
                "end_time": 53.29090909090909,
                "pitch": 81,
                "velocity": 64,
                "duration": 0.10000000000000142,
                "tempo": 120.0
            },
            {
                "start_time": 53.30681818181818,
                "end_time": 53.40681818181818,
                "pitch": 84,
                "velocity": 64,
                "duration": 0.10000000000000142,
                "tempo": 120.0
            },
            {
                "start_time": 53.44318181818181,
                "end_time": 53.538636363636364,
                "pitch": 79,
                "velocity": 64,
                "duration": 0.09545454545455101,
                "tempo": 120.0
            },
            {
                "start_time": 53.55681818181818,
                "end_time": 53.652272727272724,
                "pitch": 81,
                "velocity": 64,
                "duration": 0.0954545454545439,
                "tempo": 120.0
            },
            {
                "start_time": 53.67045454545454,
                "end_time": 53.76590909090909,
                "pitch": 82,
                "velocity": 64,
                "duration": 0.09545454545455101,
                "tempo": 120.0
            },
            {
                "start_time": 53.78409090909091,
                "end_time": 53.88181818181818,
                "pitch": 86,
                "velocity": 64,
                "duration": 0.09772727272727622,
                "tempo": 120.0
            },
            {
                "start_time": 53.913636363636364,
                "end_time": 54.01136363636363,
                "pitch": 84,
                "velocity": 64,
                "duration": 0.09772727272726911,
                "tempo": 120.0
            },
            {
                "start_time": 54.02954545454545,
                "end_time": 54.125,
                "pitch": 82,
                "velocity": 64,
                "duration": 0.09545454545455101,
                "tempo": 120.0
            },
            {
                "start_time": 54.143181818181816,
                "end_time": 54.23863636363636,
                "pitch": 81,
                "velocity": 64,
                "duration": 0.0954545454545439,
                "tempo": 120.0
            },
            {
                "start_time": 54.27272727272727,
                "end_time": 54.37045454545454,
                "pitch": 82,
                "velocity": 64,
                "duration": 0.09772727272726911,
                "tempo": 120.0
            },
            {
                "start_time": 54.38636363636363,
                "end_time": 54.48409090909091,
                "pitch": 84,
                "velocity": 64,
                "duration": 0.09772727272727622,
                "tempo": 120.0
            },
            {
                "start_time": 54.502272727272725,
                "end_time": 54.599999999999994,
                "pitch": 82,
                "velocity": 64,
                "duration": 0.09772727272726911,
                "tempo": 120.0
            },
            {
                "start_time": 54.61818181818182,
                "end_time": 54.71818181818182,
                "pitch": 81,
                "velocity": 64,
                "duration": 0.10000000000000142,
                "tempo": 120.0
            },
            {
                "start_time": 54.752272727272725,
                "end_time": 54.849999999999994,
                "pitch": 77,
                "velocity": 64,
                "duration": 0.09772727272726911,
                "tempo": 120.0
            },
            {
                "start_time": 54.86818181818182,
                "end_time": 54.965909090909086,
                "pitch": 79,
                "velocity": 64,
                "duration": 0.09772727272726911,
                "tempo": 120.0
            },
            {
                "start_time": 54.98181818181818,
                "end_time": 55.07954545454545,
                "pitch": 81,
                "velocity": 64,
                "duration": 0.09772727272727622,
                "tempo": 120.0
            },
            {
                "start_time": 55.09772727272727,
                "end_time": 55.209090909090904,
                "pitch": 82,
                "velocity": 64,
                "duration": 0.11136363636363455,
                "tempo": 120.0
            },
            {
                "start_time": 55.22727272727273,
                "end_time": 55.32727272727273,
                "pitch": 86,
                "velocity": 64,
                "duration": 0.10000000000000142,
                "tempo": 120.0
            },
            {
                "start_time": 55.34318181818182,
                "end_time": 55.44318181818181,
                "pitch": 84,
                "velocity": 64,
                "duration": 0.09999999999999432,
                "tempo": 120.0
            },
            {
                "start_time": 55.461363636363636,
                "end_time": 55.559090909090905,
                "pitch": 82,
                "velocity": 64,
                "duration": 0.09772727272726911,
                "tempo": 120.0
            },
            {
                "start_time": 55.59318181818182,
                "end_time": 55.69318181818181,
                "pitch": 81,
                "velocity": 64,
                "duration": 0.09999999999999432,
                "tempo": 120.0
            },
            {
                "start_time": 55.711363636363636,
                "end_time": 55.81136363636363,
                "pitch": 82,
                "velocity": 64,
                "duration": 0.09999999999999432,
                "tempo": 120.0
            },
            {
                "start_time": 55.82727272727273,
                "end_time": 55.92727272727272,
                "pitch": 84,
                "velocity": 64,
                "duration": 0.09999999999999432,
                "tempo": 120.0
            },
            {
                "start_time": 55.945454545454545,
                "end_time": 56.038636363636364,
                "pitch": 82,
                "velocity": 64,
                "duration": 0.0931818181818187,
                "tempo": 120.0
            },
            {
                "start_time": 56.07272727272727,
                "end_time": 56.16590909090909,
                "pitch": 81,
                "velocity": 64,
                "duration": 0.0931818181818187,
                "tempo": 120.0
            },
            {
                "start_time": 56.18181818181818,
                "end_time": 56.277272727272724,
                "pitch": 77,
                "velocity": 64,
                "duration": 0.0954545454545439,
                "tempo": 120.0
            },
            {
                "start_time": 56.293181818181814,
                "end_time": 56.393181818181816,
                "pitch": 79,
                "velocity": 64,
                "duration": 0.10000000000000142,
                "tempo": 120.0
            },
            {
                "start_time": 56.42727272727272,
                "end_time": 56.525,
                "pitch": 81,
                "velocity": 64,
                "duration": 0.09772727272727622,
                "tempo": 120.0
            },
            {
                "start_time": 56.543181818181814,
                "end_time": 56.643181818181816,
                "pitch": 82,
                "velocity": 64,
                "duration": 0.10000000000000142,
                "tempo": 120.0
            },
            {
                "start_time": 56.66136363636363,
                "end_time": 56.75909090909091,
                "pitch": 86,
                "velocity": 64,
                "duration": 0.09772727272727622,
                "tempo": 120.0
            },
            {
                "start_time": 56.777272727272724,
                "end_time": 56.877272727272725,
                "pitch": 84,
                "velocity": 64,
                "duration": 0.10000000000000142,
                "tempo": 120.0
            },
            {
                "start_time": 56.91136363636363,
                "end_time": 57.01136363636363,
                "pitch": 82,
                "velocity": 64,
                "duration": 0.10000000000000142,
                "tempo": 120.0
            },
            {
                "start_time": 57.027272727272724,
                "end_time": 57.125,
                "pitch": 81,
                "velocity": 64,
                "duration": 0.09772727272727622,
                "tempo": 120.0
            },
            {
                "start_time": 57.143181818181816,
                "end_time": 57.23863636363636,
                "pitch": 82,
                "velocity": 64,
                "duration": 0.0954545454545439,
                "tempo": 120.0
            },
            {
                "start_time": 57.27272727272727,
                "end_time": 57.37045454545454,
                "pitch": 84,
                "velocity": 64,
                "duration": 0.09772727272726911,
                "tempo": 120.0
            },
            {
                "start_time": 57.38636363636363,
                "end_time": 57.486363636363635,
                "pitch": 82,
                "velocity": 64,
                "duration": 0.10000000000000142,
                "tempo": 120.0
            },
            {
                "start_time": 57.502272727272725,
                "end_time": 57.60227272727273,
                "pitch": 81,
                "velocity": 64,
                "duration": 0.10000000000000142,
                "tempo": 120.0
            },
            {
                "start_time": 57.62045454545454,
                "end_time": 57.720454545454544,
                "pitch": 77,
                "velocity": 64,
                "duration": 0.10000000000000142,
                "tempo": 120.0
            },
            {
                "start_time": 57.75454545454545,
                "end_time": 57.849999999999994,
                "pitch": 79,
                "velocity": 64,
                "duration": 0.0954545454545439,
                "tempo": 120.0
            },
            {
                "start_time": 57.86818181818182,
                "end_time": 57.965909090909086,
                "pitch": 81,
                "velocity": 64,
                "duration": 0.09772727272726911,
                "tempo": 120.0
            },
            {
                "start_time": 57.98181818181818,
                "end_time": 58.07954545454545,
                "pitch": 82,
                "velocity": 64,
                "duration": 0.09772727272727622,
                "tempo": 120.0
            },
            {
                "start_time": 58.095454545454544,
                "end_time": 58.209090909090904,
                "pitch": 86,
                "velocity": 64,
                "duration": 0.11363636363635976,
                "tempo": 120.0
            },
            {
                "start_time": 58.22727272727273,
                "end_time": 58.32272727272727,
                "pitch": 84,
                "velocity": 64,
                "duration": 0.0954545454545439,
                "tempo": 120.0
            },
            {
                "start_time": 58.340909090909086,
                "end_time": 58.43863636363636,
                "pitch": 82,
                "velocity": 64,
                "duration": 0.09772727272727622,
                "tempo": 120.0
            },
            {
                "start_time": 58.45454545454545,
                "end_time": 58.55227272727272,
                "pitch": 81,
                "velocity": 64,
                "duration": 0.09772727272726911,
                "tempo": 120.0
            },
            {
                "start_time": 58.584090909090904,
                "end_time": 58.68181818181818,
                "pitch": 82,
                "velocity": 64,
                "duration": 0.09772727272727622,
                "tempo": 120.0
            },
            {
                "start_time": 58.699999999999996,
                "end_time": 58.79545454545454,
                "pitch": 84,
                "velocity": 64,
                "duration": 0.0954545454545439,
                "tempo": 120.0
            },
            {
                "start_time": 58.81363636363636,
                "end_time": 58.913636363636364,
                "pitch": 82,
                "velocity": 64,
                "duration": 0.10000000000000142,
                "tempo": 120.0
            },
            {
                "start_time": 58.929545454545455,
                "end_time": 59.02954545454545,
                "pitch": 81,
                "velocity": 64,
                "duration": 0.09999999999999432,
                "tempo": 120.0
            },
            {
                "start_time": 59.06363636363636,
                "end_time": 59.163636363636364,
                "pitch": 77,
                "velocity": 64,
                "duration": 0.10000000000000142,
                "tempo": 120.0
            },
            {
                "start_time": 59.18181818181818,
                "end_time": 59.27954545454545,
                "pitch": 79,
                "velocity": 64,
                "duration": 0.09772727272726911,
                "tempo": 120.0
            },
            {
                "start_time": 59.29772727272727,
                "end_time": 59.39772727272727,
                "pitch": 81,
                "velocity": 64,
                "duration": 0.10000000000000142,
                "tempo": 120.0
            },
            {
                "start_time": 59.43181818181818,
                "end_time": 59.52954545454545,
                "pitch": 82,
                "velocity": 64,
                "duration": 0.09772727272726911,
                "tempo": 120.0
            },
            {
                "start_time": 59.54772727272727,
                "end_time": 59.64772727272727,
                "pitch": 86,
                "velocity": 64,
                "duration": 0.10000000000000142,
                "tempo": 120.0
            },
            {
                "start_time": 59.66590909090909,
                "end_time": 59.76363636363636,
                "pitch": 84,
                "velocity": 64,
                "duration": 0.09772727272726911,
                "tempo": 120.0
            },
            {
                "start_time": 59.78181818181818,
                "end_time": 59.881818181818176,
                "pitch": 82,
                "velocity": 64,
                "duration": 0.09999999999999432,
                "tempo": 120.0
            },
            {
                "start_time": 59.91590909090909,
                "end_time": 60.01363636363636,
                "pitch": 81,
                "velocity": 64,
                "duration": 0.09772727272726911,
                "tempo": 120.0
            },
            {
                "start_time": 60.02954545454545,
                "end_time": 60.127272727272725,
                "pitch": 82,
                "velocity": 64,
                "duration": 0.09772727272727622,
                "tempo": 120.0
            },
            {
                "start_time": 60.143181818181816,
                "end_time": 60.240909090909085,
                "pitch": 84,
                "velocity": 64,
                "duration": 0.09772727272726911,
                "tempo": 120.0
            },
            {
                "start_time": 60.25909090909091,
                "end_time": 60.36818181818182,
                "pitch": 82,
                "velocity": 64,
                "duration": 0.10909090909090935,
                "tempo": 120.0
            },
            {
                "start_time": 60.38409090909091,
                "end_time": 60.47954545454545,
                "pitch": 81,
                "velocity": 64,
                "duration": 0.0954545454545439,
                "tempo": 120.0
            },
            {
                "start_time": 60.49545454545454,
                "end_time": 60.590909090909086,
                "pitch": 77,
                "velocity": 64,
                "duration": 0.0954545454545439,
                "tempo": 120.0
            },
            {
                "start_time": 60.60681818181818,
                "end_time": 60.70454545454545,
                "pitch": 79,
                "velocity": 64,
                "duration": 0.09772727272727622,
                "tempo": 120.0
            },
            {
                "start_time": 60.73863636363636,
                "end_time": 60.83863636363636,
                "pitch": 81,
                "velocity": 64,
                "duration": 0.10000000000000142,
                "tempo": 120.0
            },
            {
                "start_time": 60.85681818181818,
                "end_time": 60.95681818181818,
                "pitch": 82,
                "velocity": 64,
                "duration": 0.10000000000000142,
                "tempo": 120.0
            },
            {
                "start_time": 60.97272727272727,
                "end_time": 61.07272727272727,
                "pitch": 86,
                "velocity": 64,
                "duration": 0.10000000000000142,
                "tempo": 120.0
            },
            {
                "start_time": 61.090909090909086,
                "end_time": 61.20681818181818,
                "pitch": 84,
                "velocity": 64,
                "duration": 0.11590909090909207,
                "tempo": 120.0
            },
            {
                "start_time": 61.22272727272727,
                "end_time": 61.32272727272727,
                "pitch": 82,
                "velocity": 64,
                "duration": 0.10000000000000142,
                "tempo": 120.0
            },
            {
                "start_time": 61.340909090909086,
                "end_time": 61.43863636363636,
                "pitch": 81,
                "velocity": 64,
                "duration": 0.09772727272727622,
                "tempo": 120.0
            },
            {
                "start_time": 61.45454545454545,
                "end_time": 61.55227272727272,
                "pitch": 82,
                "velocity": 64,
                "duration": 0.09772727272726911,
                "tempo": 120.0
            },
            {
                "start_time": 61.586363636363636,
                "end_time": 61.68181818181818,
                "pitch": 84,
                "velocity": 64,
                "duration": 0.0954545454545439,
                "tempo": 120.0
            },
            {
                "start_time": 61.699999999999996,
                "end_time": 61.79772727272727,
                "pitch": 82,
                "velocity": 64,
                "duration": 0.09772727272727622,
                "tempo": 120.0
            },
            {
                "start_time": 61.81590909090909,
                "end_time": 61.91590909090909,
                "pitch": 81,
                "velocity": 64,
                "duration": 0.10000000000000142,
                "tempo": 120.0
            },
            {
                "start_time": 61.93181818181818,
                "end_time": 62.03181818181818,
                "pitch": 77,
                "velocity": 64,
                "duration": 0.10000000000000142,
                "tempo": 120.0
            },
            {
                "start_time": 62.06590909090909,
                "end_time": 62.16590909090909,
                "pitch": 79,
                "velocity": 64,
                "duration": 0.10000000000000142,
                "tempo": 120.0
            },
            {
                "start_time": 62.184090909090905,
                "end_time": 62.28409090909091,
                "pitch": 81,
                "velocity": 64,
                "duration": 0.10000000000000142,
                "tempo": 120.0
            },
            {
                "start_time": 62.3,
                "end_time": 62.4,
                "pitch": 82,
                "velocity": 64,
                "duration": 0.10000000000000142,
                "tempo": 120.0
            },
            {
                "start_time": 62.434090909090905,
                "end_time": 62.53181818181818,
                "pitch": 86,
                "velocity": 64,
                "duration": 0.09772727272727622,
                "tempo": 120.0
            },
            {
                "start_time": 62.54772727272727,
                "end_time": 62.64545454545454,
                "pitch": 84,
                "velocity": 64,
                "duration": 0.09772727272726911,
                "tempo": 120.0
            },
            {
                "start_time": 62.66136363636363,
                "end_time": 62.75909090909091,
                "pitch": 82,
                "velocity": 64,
                "duration": 0.09772727272727622,
                "tempo": 120.0
            },
            {
                "start_time": 62.777272727272724,
                "end_time": 62.87045454545454,
                "pitch": 81,
                "velocity": 64,
                "duration": 0.0931818181818187,
                "tempo": 120.0
            },
            {
                "start_time": 62.902272727272724,
                "end_time": 62.99772727272727,
                "pitch": 82,
                "velocity": 64,
                "duration": 0.0954545454545439,
                "tempo": 120.0
            },
            {
                "start_time": 63.01363636363636,
                "end_time": 63.10909090909091,
                "pitch": 84,
                "velocity": 64,
                "duration": 0.09545454545455101,
                "tempo": 120.0
            },
            {
                "start_time": 63.125,
                "end_time": 63.22272727272727,
                "pitch": 82,
                "velocity": 64,
                "duration": 0.09772727272726911,
                "tempo": 120.0
            },
            {
                "start_time": 63.240909090909085,
                "end_time": 63.35681818181818,
                "pitch": 81,
                "velocity": 64,
                "duration": 0.11590909090909207,
                "tempo": 120.0
            },
            {
                "start_time": 63.375,
                "end_time": 63.474999999999994,
                "pitch": 77,
                "velocity": 64,
                "duration": 0.09999999999999432,
                "tempo": 120.0
            },
            {
                "start_time": 63.490909090909085,
                "end_time": 63.590909090909086,
                "pitch": 79,
                "velocity": 64,
                "duration": 0.10000000000000142,
                "tempo": 120.0
            },
            {
                "start_time": 63.60909090909091,
                "end_time": 63.709090909090904,
                "pitch": 81,
                "velocity": 64,
                "duration": 0.09999999999999432,
                "tempo": 120.0
            },
            {
                "start_time": 63.74318181818182,
                "end_time": 63.840909090909086,
                "pitch": 82,
                "velocity": 64,
                "duration": 0.09772727272726911,
                "tempo": 120.0
            },
            {
                "start_time": 63.85909090909091,
                "end_time": 63.959090909090904,
                "pitch": 86,
                "velocity": 64,
                "duration": 0.09999999999999432,
                "tempo": 120.0
            },
            {
                "start_time": 63.974999999999994,
                "end_time": 64.075,
                "pitch": 84,
                "velocity": 64,
                "duration": 0.10000000000000853,
                "tempo": 120.0
            },
            {
                "start_time": 64.09318181818182,
                "end_time": 64.2090909090909,
                "pitch": 82,
                "velocity": 64,
                "duration": 0.11590909090908497,
                "tempo": 120.0
            },
            {
                "start_time": 64.22727272727272,
                "end_time": 64.32272727272726,
                "pitch": 81,
                "velocity": 64,
                "duration": 0.0954545454545439,
                "tempo": 120.0
            },
            {
                "start_time": 64.3409090909091,
                "end_time": 64.43863636363636,
                "pitch": 82,
                "velocity": 64,
                "duration": 0.09772727272726911,
                "tempo": 120.0
            },
            {
                "start_time": 64.45454545454545,
                "end_time": 64.55227272727272,
                "pitch": 84,
                "velocity": 64,
                "duration": 0.09772727272726911,
                "tempo": 120.0
            },
            {
                "start_time": 64.58636363636363,
                "end_time": 64.68409090909091,
                "pitch": 82,
                "velocity": 64,
                "duration": 0.09772727272728332,
                "tempo": 120.0
            },
            {
                "start_time": 64.70227272727273,
                "end_time": 64.80227272727272,
                "pitch": 81,
                "velocity": 64,
                "duration": 0.09999999999999432,
                "tempo": 120.0
            },
            {
                "start_time": 64.81818181818181,
                "end_time": 64.91818181818182,
                "pitch": 77,
                "velocity": 64,
                "duration": 0.10000000000000853,
                "tempo": 120.0
            },
            {
                "start_time": 64.93636363636364,
                "end_time": 65.02954545454546,
                "pitch": 79,
                "velocity": 64,
                "duration": 0.0931818181818187,
                "tempo": 120.0
            }
        ],
        "French Horn": [
            {
                "start_time": 0.006818181818181818,
                "end_time": 0.4068181818181818,
                "pitch": 33,
                "velocity": 101,
                "duration": 0.39999999999999997,
                "tempo": 120.0
            },
            {
                "start_time": 0.42272727272727273,
                "end_time": 0.884090909090909,
                "pitch": 33,
                "velocity": 101,
                "duration": 0.4613636363636363,
                "tempo": 120.0
            },
            {
                "start_time": 0.9249999999999999,
                "end_time": 1.3681818181818182,
                "pitch": 33,
                "velocity": 101,
                "duration": 0.44318181818181823,
                "tempo": 120.0
            },
            {
                "start_time": 1.3886363636363637,
                "end_time": 1.8545454545454545,
                "pitch": 33,
                "velocity": 101,
                "duration": 0.46590909090909083,
                "tempo": 120.0
            },
            {
                "start_time": 1.893181818181818,
                "end_time": 2.35,
                "pitch": 33,
                "velocity": 101,
                "duration": 0.456818181818182,
                "tempo": 120.0
            },
            {
                "start_time": 2.368181818181818,
                "end_time": 2.8454545454545452,
                "pitch": 33,
                "velocity": 101,
                "duration": 0.47727272727272707,
                "tempo": 120.0
            },
            {
                "start_time": 2.884090909090909,
                "end_time": 3.3295454545454546,
                "pitch": 33,
                "velocity": 101,
                "duration": 0.44545454545454577,
                "tempo": 120.0
            },
            {
                "start_time": 3.3477272727272727,
                "end_time": 3.815909090909091,
                "pitch": 33,
                "velocity": 101,
                "duration": 0.46818181818181825,
                "tempo": 120.0
            },
            {
                "start_time": 3.836363636363636,
                "end_time": 4.297727272727273,
                "pitch": 33,
                "velocity": 101,
                "duration": 0.46136363636363686,
                "tempo": 120.0
            },
            {
                "start_time": 4.3159090909090905,
                "end_time": 4.784090909090909,
                "pitch": 33,
                "velocity": 101,
                "duration": 0.4681818181818187,
                "tempo": 120.0
            },
            {
                "start_time": 4.802272727272727,
                "end_time": 5.243181818181818,
                "pitch": 33,
                "velocity": 101,
                "duration": 0.44090909090909136,
                "tempo": 120.0
            },
            {
                "start_time": 5.277272727272727,
                "end_time": 5.672727272727273,
                "pitch": 33,
                "velocity": 101,
                "duration": 0.3954545454545455,
                "tempo": 120.0
            }
        ],
        "Acoustic Bass": [
            {
                "start_time": 7.36590909090909,
                "end_time": 7.6045454545454545,
                "pitch": 31,
                "velocity": 80,
                "duration": 0.2386363636363642,
                "tempo": 120.0
            },
            {
                "start_time": 7.622727272727272,
                "end_time": 7.725,
                "pitch": 31,
                "velocity": 80,
                "duration": 0.10227272727272751,
                "tempo": 120.0
            },
            {
                "start_time": 7.743181818181818,
                "end_time": 7.843181818181818,
                "pitch": 34,
                "velocity": 80,
                "duration": 0.09999999999999964,
                "tempo": 120.0
            },
            {
                "start_time": 7.861363636363636,
                "end_time": 7.961363636363636,
                "pitch": 38,
                "velocity": 80,
                "duration": 0.09999999999999964,
                "tempo": 120.0
            },
            {
                "start_time": 7.995454545454545,
                "end_time": 8.093181818181817,
                "pitch": 36,
                "velocity": 80,
                "duration": 0.09772727272727177,
                "tempo": 120.0
            },
            {
                "start_time": 8.111363636363636,
                "end_time": 8.322727272727272,
                "pitch": 31,
                "velocity": 80,
                "duration": 0.21136363636363598,
                "tempo": 120.0
            },
            {
                "start_time": 8.338636363636363,
                "end_time": 8.436363636363636,
                "pitch": 31,
                "velocity": 80,
                "duration": 0.09772727272727266,
                "tempo": 120.0
            },
            {
                "start_time": 8.470454545454546,
                "end_time": 8.568181818181818,
                "pitch": 34,
                "velocity": 80,
                "duration": 0.09772727272727266,
                "tempo": 120.0
            },
            {
                "start_time": 8.586363636363636,
                "end_time": 8.686363636363636,
                "pitch": 38,
                "velocity": 80,
                "duration": 0.09999999999999964,
                "tempo": 120.0
            },
            {
                "start_time": 8.702272727272726,
                "end_time": 8.802272727272728,
                "pitch": 36,
                "velocity": 80,
                "duration": 0.10000000000000142,
                "tempo": 120.0
            },
            {
                "start_time": 8.836363636363636,
                "end_time": 9.054545454545455,
                "pitch": 31,
                "velocity": 80,
                "duration": 0.2181818181818187,
                "tempo": 120.0
            },
            {
                "start_time": 9.070454545454545,
                "end_time": 9.170454545454545,
                "pitch": 31,
                "velocity": 80,
                "duration": 0.09999999999999964,
                "tempo": 120.0
            },
            {
                "start_time": 9.188636363636363,
                "end_time": 9.281818181818181,
                "pitch": 34,
                "velocity": 80,
                "duration": 0.0931818181818187,
                "tempo": 120.0
            },
            {
                "start_time": 9.313636363636363,
                "end_time": 9.409090909090908,
                "pitch": 38,
                "velocity": 80,
                "duration": 0.09545454545454568,
                "tempo": 120.0
            },
            {
                "start_time": 9.424999999999999,
                "end_time": 9.520454545454545,
                "pitch": 36,
                "velocity": 80,
                "duration": 0.09545454545454568,
                "tempo": 120.0
            },
            {
                "start_time": 9.536363636363635,
                "end_time": 9.768181818181818,
                "pitch": 31,
                "velocity": 80,
                "duration": 0.23181818181818237,
                "tempo": 120.0
            },
            {
                "start_time": 9.786363636363635,
                "end_time": 9.886363636363637,
                "pitch": 31,
                "velocity": 80,
                "duration": 0.10000000000000142,
                "tempo": 120.0
            },
            {
                "start_time": 9.902272727272727,
                "end_time": 10.002272727272727,
                "pitch": 34,
                "velocity": 80,
                "duration": 0.09999999999999964,
                "tempo": 120.0
            },
            {
                "start_time": 10.020454545454545,
                "end_time": 10.120454545454544,
                "pitch": 38,
                "velocity": 80,
                "duration": 0.09999999999999964,
                "tempo": 120.0
            },
            {
                "start_time": 10.154545454545454,
                "end_time": 10.254545454545454,
                "pitch": 36,
                "velocity": 80,
                "duration": 0.09999999999999964,
                "tempo": 120.0
            },
            {
                "start_time": 10.272727272727272,
                "end_time": 10.48181818181818,
                "pitch": 31,
                "velocity": 80,
                "duration": 0.209090909090909,
                "tempo": 120.0
            },
            {
                "start_time": 10.497727272727273,
                "end_time": 10.611363636363636,
                "pitch": 31,
                "velocity": 80,
                "duration": 0.11363636363636331,
                "tempo": 120.0
            },
            {
                "start_time": 10.629545454545454,
                "end_time": 10.727272727272727,
                "pitch": 34,
                "velocity": 80,
                "duration": 0.09772727272727266,
                "tempo": 120.0
            },
            {
                "start_time": 10.743181818181817,
                "end_time": 10.84090909090909,
                "pitch": 38,
                "velocity": 80,
                "duration": 0.09772727272727266,
                "tempo": 120.0
            },
            {
                "start_time": 10.85681818181818,
                "end_time": 10.954545454545453,
                "pitch": 36,
                "velocity": 80,
                "duration": 0.09772727272727266,
                "tempo": 120.0
            },
            {
                "start_time": 10.988636363636363,
                "end_time": 11.204545454545453,
                "pitch": 31,
                "velocity": 80,
                "duration": 0.21590909090908994,
                "tempo": 120.0
            },
            {
                "start_time": 11.220454545454546,
                "end_time": 11.320454545454545,
                "pitch": 31,
                "velocity": 80,
                "duration": 0.09999999999999964,
                "tempo": 120.0
            },
            {
                "start_time": 11.338636363636363,
                "end_time": 11.436363636363636,
                "pitch": 34,
                "velocity": 80,
                "duration": 0.09772727272727266,
                "tempo": 120.0
            },
            {
                "start_time": 11.470454545454546,
                "end_time": 11.56590909090909,
                "pitch": 38,
                "velocity": 80,
                "duration": 0.0954545454545439,
                "tempo": 120.0
            },
            {
                "start_time": 11.584090909090909,
                "end_time": 11.679545454545455,
                "pitch": 36,
                "velocity": 80,
                "duration": 0.09545454545454568,
                "tempo": 120.0
            },
            {
                "start_time": 11.697727272727272,
                "end_time": 11.924999999999999,
                "pitch": 31,
                "velocity": 80,
                "duration": 0.22727272727272663,
                "tempo": 120.0
            },
            {
                "start_time": 11.943181818181818,
                "end_time": 12.038636363636362,
                "pitch": 31,
                "velocity": 80,
                "duration": 0.0954545454545439,
                "tempo": 120.0
            },
            {
                "start_time": 12.056818181818182,
                "end_time": 12.154545454545454,
                "pitch": 34,
                "velocity": 80,
                "duration": 0.09772727272727266,
                "tempo": 120.0
            },
            {
                "start_time": 12.172727272727272,
                "end_time": 12.272727272727272,
                "pitch": 38,
                "velocity": 80,
                "duration": 0.09999999999999964,
                "tempo": 120.0
            },
            {
                "start_time": 12.306818181818182,
                "end_time": 12.406818181818181,
                "pitch": 36,
                "velocity": 80,
                "duration": 0.09999999999999964,
                "tempo": 120.0
            },
            {
                "start_time": 12.422727272727272,
                "end_time": 12.64090909090909,
                "pitch": 31,
                "velocity": 80,
                "duration": 0.2181818181818187,
                "tempo": 120.0
            },
            {
                "start_time": 12.656818181818181,
                "end_time": 12.772727272727272,
                "pitch": 31,
                "velocity": 80,
                "duration": 0.1159090909090903,
                "tempo": 120.0
            },
            {
                "start_time": 12.790909090909091,
                "end_time": 12.89090909090909,
                "pitch": 34,
                "velocity": 80,
                "duration": 0.09999999999999964,
                "tempo": 120.0
            },
            {
                "start_time": 12.906818181818181,
                "end_time": 13.006818181818181,
                "pitch": 38,
                "velocity": 80,
                "duration": 0.09999999999999964,
                "tempo": 120.0
            },
            {
                "start_time": 13.024999999999999,
                "end_time": 13.125,
                "pitch": 36,
                "velocity": 80,
                "duration": 0.10000000000000142,
                "tempo": 120.0
            },
            {
                "start_time": 13.161363636363635,
                "end_time": 13.370454545454544,
                "pitch": 31,
                "velocity": 80,
                "duration": 0.209090909090909,
                "tempo": 120.0
            },
            {
                "start_time": 13.386363636363635,
                "end_time": 13.484090909090908,
                "pitch": 31,
                "velocity": 80,
                "duration": 0.09772727272727266,
                "tempo": 120.0
            },
            {
                "start_time": 13.5,
                "end_time": 13.611363636363636,
                "pitch": 34,
                "velocity": 80,
                "duration": 0.11136363636363633,
                "tempo": 120.0
            },
            {
                "start_time": 13.627272727272727,
                "end_time": 13.722727272727273,
                "pitch": 38,
                "velocity": 80,
                "duration": 0.09545454545454568,
                "tempo": 120.0
            },
            {
                "start_time": 13.738636363636363,
                "end_time": 13.831818181818182,
                "pitch": 36,
                "velocity": 80,
                "duration": 0.0931818181818187,
                "tempo": 120.0
            },
            {
                "start_time": 13.847727272727273,
                "end_time": 14.081818181818182,
                "pitch": 31,
                "velocity": 80,
                "duration": 0.23409090909090935,
                "tempo": 120.0
            },
            {
                "start_time": 14.097727272727273,
                "end_time": 14.197727272727272,
                "pitch": 31,
                "velocity": 80,
                "duration": 0.09999999999999964,
                "tempo": 120.0
            },
            {
                "start_time": 14.21590909090909,
                "end_time": 14.31590909090909,
                "pitch": 34,
                "velocity": 80,
                "duration": 0.09999999999999964,
                "tempo": 120.0
            },
            {
                "start_time": 14.33181818181818,
                "end_time": 14.431818181818182,
                "pitch": 38,
                "velocity": 80,
                "duration": 0.10000000000000142,
                "tempo": 120.0
            },
            {
                "start_time": 14.46590909090909,
                "end_time": 14.56590909090909,
                "pitch": 36,
                "velocity": 80,
                "duration": 0.09999999999999964,
                "tempo": 120.0
            },
            {
                "start_time": 14.584090909090909,
                "end_time": 14.795454545454545,
                "pitch": 31,
                "velocity": 80,
                "duration": 0.21136363636363598,
                "tempo": 120.0
            },
            {
                "start_time": 14.827272727272726,
                "end_time": 14.924999999999999,
                "pitch": 31,
                "velocity": 80,
                "duration": 0.09772727272727266,
                "tempo": 120.0
            },
            {
                "start_time": 14.94090909090909,
                "end_time": 15.040909090909091,
                "pitch": 34,
                "velocity": 80,
                "duration": 0.10000000000000142,
                "tempo": 120.0
            },
            {
                "start_time": 15.059090909090909,
                "end_time": 15.159090909090908,
                "pitch": 38,
                "velocity": 80,
                "duration": 0.09999999999999964,
                "tempo": 120.0
            },
            {
                "start_time": 15.174999999999999,
                "end_time": 15.274999999999999,
                "pitch": 36,
                "velocity": 80,
                "duration": 0.09999999999999964,
                "tempo": 120.0
            },
            {
                "start_time": 15.309090909090909,
                "end_time": 15.524999999999999,
                "pitch": 31,
                "velocity": 80,
                "duration": 0.21590909090908994,
                "tempo": 120.0
            },
            {
                "start_time": 15.543181818181818,
                "end_time": 15.643181818181818,
                "pitch": 31,
                "velocity": 80,
                "duration": 0.09999999999999964,
                "tempo": 120.0
            },
            {
                "start_time": 15.661363636363635,
                "end_time": 15.770454545454545,
                "pitch": 34,
                "velocity": 80,
                "duration": 0.10909090909090935,
                "tempo": 120.0
            },
            {
                "start_time": 15.786363636363635,
                "end_time": 15.881818181818181,
                "pitch": 38,
                "velocity": 80,
                "duration": 0.09545454545454568,
                "tempo": 120.0
            },
            {
                "start_time": 15.897727272727272,
                "end_time": 15.993181818181817,
                "pitch": 36,
                "velocity": 80,
                "duration": 0.09545454545454568,
                "tempo": 120.0
            },
            {
                "start_time": 16.009090909090908,
                "end_time": 16.24090909090909,
                "pitch": 31,
                "velocity": 80,
                "duration": 0.2318181818181806,
                "tempo": 120.0
            },
            {
                "start_time": 16.259090909090908,
                "end_time": 16.35909090909091,
                "pitch": 31,
                "velocity": 80,
                "duration": 0.10000000000000142,
                "tempo": 120.0
            },
            {
                "start_time": 16.375,
                "end_time": 16.472727272727273,
                "pitch": 34,
                "velocity": 80,
                "duration": 0.09772727272727266,
                "tempo": 120.0
            },
            {
                "start_time": 16.488636363636363,
                "end_time": 16.586363636363636,
                "pitch": 38,
                "velocity": 80,
                "duration": 0.09772727272727266,
                "tempo": 120.0
            },
            {
                "start_time": 16.620454545454546,
                "end_time": 16.71818181818182,
                "pitch": 36,
                "velocity": 80,
                "duration": 0.09772727272727266,
                "tempo": 120.0
            },
            {
                "start_time": 16.73409090909091,
                "end_time": 16.95,
                "pitch": 31,
                "velocity": 80,
                "duration": 0.21590909090908994,
                "tempo": 120.0
            },
            {
                "start_time": 16.98409090909091,
                "end_time": 17.084090909090907,
                "pitch": 31,
                "velocity": 80,
                "duration": 0.09999999999999787,
                "tempo": 120.0
            },
            {
                "start_time": 17.102272727272727,
                "end_time": 17.2,
                "pitch": 34,
                "velocity": 80,
                "duration": 0.09772727272727266,
                "tempo": 120.0
            },
            {
                "start_time": 17.21818181818182,
                "end_time": 17.318181818181817,
                "pitch": 38,
                "velocity": 80,
                "duration": 0.09999999999999787,
                "tempo": 120.0
            },
            {
                "start_time": 17.334090909090907,
                "end_time": 17.43409090909091,
                "pitch": 36,
                "velocity": 80,
                "duration": 0.10000000000000142,
                "tempo": 120.0
            },
            {
                "start_time": 17.46818181818182,
                "end_time": 17.679545454545455,
                "pitch": 31,
                "velocity": 80,
                "duration": 0.21136363636363598,
                "tempo": 120.0
            },
            {
                "start_time": 17.69772727272727,
                "end_time": 17.793181818181818,
                "pitch": 31,
                "velocity": 80,
                "duration": 0.09545454545454746,
                "tempo": 120.0
            },
            {
                "start_time": 17.827272727272728,
                "end_time": 17.927272727272726,
                "pitch": 34,
                "velocity": 80,
                "duration": 0.09999999999999787,
                "tempo": 120.0
            },
            {
                "start_time": 17.943181818181817,
                "end_time": 18.043181818181818,
                "pitch": 38,
                "velocity": 80,
                "duration": 0.10000000000000142,
                "tempo": 120.0
            },
            {
                "start_time": 18.061363636363634,
                "end_time": 18.161363636363635,
                "pitch": 36,
                "velocity": 80,
                "duration": 0.10000000000000142,
                "tempo": 120.0
            },
            {
                "start_time": 18.177272727272726,
                "end_time": 18.4,
                "pitch": 31,
                "velocity": 80,
                "duration": 0.22272727272727266,
                "tempo": 120.0
            },
            {
                "start_time": 18.41590909090909,
                "end_time": 18.509090909090908,
                "pitch": 31,
                "velocity": 80,
                "duration": 0.0931818181818187,
                "tempo": 120.0
            },
            {
                "start_time": 18.527272727272727,
                "end_time": 18.625,
                "pitch": 34,
                "velocity": 80,
                "duration": 0.09772727272727266,
                "tempo": 120.0
            },
            {
                "start_time": 18.643181818181816,
                "end_time": 18.759090909090908,
                "pitch": 38,
                "velocity": 80,
                "duration": 0.11590909090909207,
                "tempo": 120.0
            },
            {
                "start_time": 18.777272727272727,
                "end_time": 18.877272727272725,
                "pitch": 36,
                "velocity": 80,
                "duration": 0.09999999999999787,
                "tempo": 120.0
            },
            {
                "start_time": 18.895454545454545,
                "end_time": 19.10909090909091,
                "pitch": 31,
                "velocity": 80,
                "duration": 0.21363636363636473,
                "tempo": 120.0
            },
            {
                "start_time": 19.143181818181816,
                "end_time": 19.243181818181817,
                "pitch": 31,
                "velocity": 80,
                "duration": 0.10000000000000142,
                "tempo": 120.0
            },
            {
                "start_time": 19.261363636363637,
                "end_time": 19.35909090909091,
                "pitch": 34,
                "velocity": 80,
                "duration": 0.09772727272727266,
                "tempo": 120.0
            },
            {
                "start_time": 19.375,
                "end_time": 19.472727272727273,
                "pitch": 38,
                "velocity": 80,
                "duration": 0.09772727272727266,
                "tempo": 120.0
            },
            {
                "start_time": 19.488636363636363,
                "end_time": 19.586363636363636,
                "pitch": 36,
                "velocity": 80,
                "duration": 0.09772727272727266,
                "tempo": 120.0
            },
            {
                "start_time": 19.620454545454546,
                "end_time": 19.836363636363636,
                "pitch": 31,
                "velocity": 80,
                "duration": 0.21590909090908994,
                "tempo": 120.0
            },
            {
                "start_time": 19.852272727272727,
                "end_time": 19.952272727272728,
                "pitch": 31,
                "velocity": 80,
                "duration": 0.10000000000000142,
                "tempo": 120.0
            },
            {
                "start_time": 19.986363636363635,
                "end_time": 20.086363636363636,
                "pitch": 34,
                "velocity": 80,
                "duration": 0.10000000000000142,
                "tempo": 120.0
            },
            {
                "start_time": 20.104545454545452,
                "end_time": 20.202272727272728,
                "pitch": 38,
                "velocity": 80,
                "duration": 0.09772727272727622,
                "tempo": 120.0
            },
            {
                "start_time": 20.220454545454544,
                "end_time": 20.320454545454545,
                "pitch": 36,
                "velocity": 80,
                "duration": 0.10000000000000142,
                "tempo": 120.0
            },
            {
                "start_time": 20.33863636363636,
                "end_time": 20.55909090909091,
                "pitch": 31,
                "velocity": 80,
                "duration": 0.22045454545454746,
                "tempo": 120.0
            },
            {
                "start_time": 20.575,
                "end_time": 20.670454545454543,
                "pitch": 31,
                "velocity": 80,
                "duration": 0.0954545454545439,
                "tempo": 120.0
            },
            {
                "start_time": 20.686363636363634,
                "end_time": 20.784090909090907,
                "pitch": 34,
                "velocity": 80,
                "duration": 0.09772727272727266,
                "tempo": 120.0
            },
            {
                "start_time": 20.8,
                "end_time": 20.913636363636364,
                "pitch": 38,
                "velocity": 80,
                "duration": 0.11363636363636331,
                "tempo": 120.0
            },
            {
                "start_time": 20.93181818181818,
                "end_time": 21.027272727272727,
                "pitch": 36,
                "velocity": 80,
                "duration": 0.09545454545454746,
                "tempo": 120.0
            },
            {
                "start_time": 21.045454545454543,
                "end_time": 21.261363636363637,
                "pitch": 31,
                "velocity": 80,
                "duration": 0.2159090909090935,
                "tempo": 120.0
            },
            {
                "start_time": 21.295454545454543,
                "end_time": 21.395454545454545,
                "pitch": 31,
                "velocity": 80,
                "duration": 0.10000000000000142,
                "tempo": 120.0
            },
            {
                "start_time": 21.411363636363635,
                "end_time": 21.511363636363637,
                "pitch": 34,
                "velocity": 80,
                "duration": 0.10000000000000142,
                "tempo": 120.0
            },
            {
                "start_time": 21.529545454545453,
                "end_time": 21.629545454545454,
                "pitch": 38,
                "velocity": 80,
                "duration": 0.10000000000000142,
                "tempo": 120.0
            },
            {
                "start_time": 21.645454545454545,
                "end_time": 21.761363636363637,
                "pitch": 36,
                "velocity": 80,
                "duration": 0.11590909090909207,
                "tempo": 120.0
            },
            {
                "start_time": 21.779545454545453,
                "end_time": 21.995454545454546,
                "pitch": 31,
                "velocity": 80,
                "duration": 0.2159090909090935,
                "tempo": 120.0
            },
            {
                "start_time": 22.013636363636362,
                "end_time": 22.113636363636363,
                "pitch": 31,
                "velocity": 80,
                "duration": 0.10000000000000142,
                "tempo": 120.0
            },
            {
                "start_time": 22.147727272727273,
                "end_time": 22.243181818181817,
                "pitch": 34,
                "velocity": 80,
                "duration": 0.0954545454545439,
                "tempo": 120.0
            },
            {
                "start_time": 22.261363636363637,
                "end_time": 22.35909090909091,
                "pitch": 38,
                "velocity": 80,
                "duration": 0.09772727272727266,
                "tempo": 120.0
            },
            {
                "start_time": 22.375,
                "end_time": 22.472727272727273,
                "pitch": 36,
                "velocity": 80,
                "duration": 0.09772727272727266,
                "tempo": 120.0
            },
            {
                "start_time": 22.488636363636363,
                "end_time": 22.709090909090907,
                "pitch": 31,
                "velocity": 80,
                "duration": 0.2204545454545439,
                "tempo": 120.0
            },
            {
                "start_time": 22.727272727272727,
                "end_time": 22.820454545454545,
                "pitch": 31,
                "velocity": 80,
                "duration": 0.0931818181818187,
                "tempo": 120.0
            },
            {
                "start_time": 22.83863636363636,
                "end_time": 22.936363636363634,
                "pitch": 34,
                "velocity": 80,
                "duration": 0.09772727272727266,
                "tempo": 120.0
            },
            {
                "start_time": 22.970454545454544,
                "end_time": 23.070454545454545,
                "pitch": 38,
                "velocity": 80,
                "duration": 0.10000000000000142,
                "tempo": 120.0
            },
            {
                "start_time": 23.086363636363636,
                "end_time": 23.186363636363634,
                "pitch": 36,
                "velocity": 80,
                "duration": 0.09999999999999787,
                "tempo": 120.0
            },
            {
                "start_time": 23.204545454545453,
                "end_time": 23.420454545454543,
                "pitch": 31,
                "velocity": 80,
                "duration": 0.21590909090908994,
                "tempo": 120.0
            },
            {
                "start_time": 23.454545454545453,
                "end_time": 23.554545454545455,
                "pitch": 31,
                "velocity": 80,
                "duration": 0.10000000000000142,
                "tempo": 120.0
            },
            {
                "start_time": 23.57272727272727,
                "end_time": 23.668181818181818,
                "pitch": 34,
                "velocity": 80,
                "duration": 0.09545454545454746,
                "tempo": 120.0
            },
            {
                "start_time": 23.686363636363634,
                "end_time": 23.784090909090907,
                "pitch": 38,
                "velocity": 80,
                "duration": 0.09772727272727266,
                "tempo": 120.0
            },
            {
                "start_time": 23.799999999999997,
                "end_time": 23.913636363636364,
                "pitch": 36,
                "velocity": 80,
                "duration": 0.11363636363636687,
                "tempo": 120.0
            },
            {
                "start_time": 23.93181818181818,
                "end_time": 24.14772727272727,
                "pitch": 31,
                "velocity": 80,
                "duration": 0.21590909090908994,
                "tempo": 120.0
            },
            {
                "start_time": 24.163636363636364,
                "end_time": 24.263636363636362,
                "pitch": 31,
                "velocity": 80,
                "duration": 0.09999999999999787,
                "tempo": 120.0
            },
            {
                "start_time": 24.297727272727272,
                "end_time": 24.39772727272727,
                "pitch": 34,
                "velocity": 80,
                "duration": 0.09999999999999787,
                "tempo": 120.0
            },
            {
                "start_time": 24.41590909090909,
                "end_time": 24.513636363636362,
                "pitch": 38,
                "velocity": 80,
                "duration": 0.09772727272727266,
                "tempo": 120.0
            },
            {
                "start_time": 24.53181818181818,
                "end_time": 24.63181818181818,
                "pitch": 36,
                "velocity": 80,
                "duration": 0.09999999999999787,
                "tempo": 120.0
            },
            {
                "start_time": 24.65,
                "end_time": 24.870454545454542,
                "pitch": 27,
                "velocity": 80,
                "duration": 0.2204545454545439,
                "tempo": 120.0
            },
            {
                "start_time": 24.886363636363637,
                "end_time": 24.979545454545452,
                "pitch": 27,
                "velocity": 80,
                "duration": 0.09318181818181515,
                "tempo": 120.0
            },
            {
                "start_time": 24.99772727272727,
                "end_time": 25.095454545454544,
                "pitch": 31,
                "velocity": 80,
                "duration": 0.09772727272727266,
                "tempo": 120.0
            },
            {
                "start_time": 25.129545454545454,
                "end_time": 25.229545454545452,
                "pitch": 33,
                "velocity": 80,
                "duration": 0.09999999999999787,
                "tempo": 120.0
            },
            {
                "start_time": 25.24772727272727,
                "end_time": 25.347727272727273,
                "pitch": 34,
                "velocity": 80,
                "duration": 0.10000000000000142,
                "tempo": 120.0
            },
            {
                "start_time": 25.363636363636363,
                "end_time": 25.575,
                "pitch": 27,
                "velocity": 80,
                "duration": 0.21136363636363598,
                "tempo": 120.0
            },
            {
                "start_time": 25.60909090909091,
                "end_time": 25.706818181818182,
                "pitch": 27,
                "velocity": 80,
                "duration": 0.09772727272727266,
                "tempo": 120.0
            },
            {
                "start_time": 25.722727272727273,
                "end_time": 25.82272727272727,
                "pitch": 31,
                "velocity": 80,
                "duration": 0.09999999999999787,
                "tempo": 120.0
            },
            {
                "start_time": 25.83863636363636,
                "end_time": 25.938636363636363,
                "pitch": 33,
                "velocity": 80,
                "duration": 0.10000000000000142,
                "tempo": 120.0
            },
            {
                "start_time": 25.972727272727273,
                "end_time": 26.07272727272727,
                "pitch": 34,
                "velocity": 80,
                "duration": 0.09999999999999787,
                "tempo": 120.0
            },
            {
                "start_time": 26.09090909090909,
                "end_time": 26.30681818181818,
                "pitch": 27,
                "velocity": 80,
                "duration": 0.21590909090908994,
                "tempo": 120.0
            },
            {
                "start_time": 26.32272727272727,
                "end_time": 26.422727272727272,
                "pitch": 27,
                "velocity": 80,
                "duration": 0.10000000000000142,
                "tempo": 120.0
            },
            {
                "start_time": 26.456818181818182,
                "end_time": 26.554545454545455,
                "pitch": 31,
                "velocity": 80,
                "duration": 0.09772727272727266,
                "tempo": 120.0
            },
            {
                "start_time": 26.570454545454545,
                "end_time": 26.668181818181818,
                "pitch": 33,
                "velocity": 80,
                "duration": 0.09772727272727266,
                "tempo": 120.0
            },
            {
                "start_time": 26.686363636363634,
                "end_time": 26.78181818181818,
                "pitch": 34,
                "velocity": 80,
                "duration": 0.09545454545454746,
                "tempo": 120.0
            },
            {
                "start_time": 26.799999999999997,
                "end_time": 27.027272727272727,
                "pitch": 27,
                "velocity": 80,
                "duration": 0.22727272727273018,
                "tempo": 120.0
            },
            {
                "start_time": 27.043181818181818,
                "end_time": 27.14090909090909,
                "pitch": 27,
                "velocity": 80,
                "duration": 0.09772727272727266,
                "tempo": 120.0
            },
            {
                "start_time": 27.159090909090907,
                "end_time": 27.25681818181818,
                "pitch": 31,
                "velocity": 80,
                "duration": 0.09772727272727266,
                "tempo": 120.0
            },
            {
                "start_time": 27.29090909090909,
                "end_time": 27.39090909090909,
                "pitch": 33,
                "velocity": 80,
                "duration": 0.10000000000000142,
                "tempo": 120.0
            },
            {
                "start_time": 27.409090909090907,
                "end_time": 27.509090909090908,
                "pitch": 34,
                "velocity": 80,
                "duration": 0.10000000000000142,
                "tempo": 120.0
            },
            {
                "start_time": 27.527272727272727,
                "end_time": 27.752272727272725,
                "pitch": 31,
                "velocity": 80,
                "duration": 0.22499999999999787,
                "tempo": 120.0
            },
            {
                "start_time": 27.770454545454545,
                "end_time": 27.868181818181817,
                "pitch": 31,
                "velocity": 80,
                "duration": 0.09772727272727266,
                "tempo": 120.0
            },
            {
                "start_time": 27.884090909090908,
                "end_time": 27.98409090909091,
                "pitch": 34,
                "velocity": 80,
                "duration": 0.10000000000000142,
                "tempo": 120.0
            },
            {
                "start_time": 28.002272727272725,
                "end_time": 28.099999999999998,
                "pitch": 38,
                "velocity": 80,
                "duration": 0.09772727272727266,
                "tempo": 120.0
            },
            {
                "start_time": 28.134090909090908,
                "end_time": 28.23409090909091,
                "pitch": 36,
                "velocity": 80,
                "duration": 0.10000000000000142,
                "tempo": 120.0
            },
            {
                "start_time": 28.252272727272725,
                "end_time": 28.46363636363636,
                "pitch": 31,
                "velocity": 80,
                "duration": 0.21136363636363598,
                "tempo": 120.0
            },
            {
                "start_time": 28.479545454545452,
                "end_time": 28.577272727272724,
                "pitch": 31,
                "velocity": 80,
                "duration": 0.09772727272727266,
                "tempo": 120.0
            },
            {
                "start_time": 28.611363636363635,
                "end_time": 28.709090909090907,
                "pitch": 34,
                "velocity": 80,
                "duration": 0.09772727272727266,
                "tempo": 120.0
            },
            {
                "start_time": 28.727272727272727,
                "end_time": 28.827272727272724,
                "pitch": 38,
                "velocity": 80,
                "duration": 0.09999999999999787,
                "tempo": 120.0
            },
            {
                "start_time": 28.843181818181815,
                "end_time": 28.943181818181817,
                "pitch": 36,
                "velocity": 80,
                "duration": 0.10000000000000142,
                "tempo": 120.0
            },
            {
                "start_time": 28.977272727272727,
                "end_time": 29.193181818181817,
                "pitch": 31,
                "velocity": 80,
                "duration": 0.21590909090908994,
                "tempo": 120.0
            },
            {
                "start_time": 29.211363636363636,
                "end_time": 29.311363636363634,
                "pitch": 31,
                "velocity": 80,
                "duration": 0.09999999999999787,
                "tempo": 120.0
            },
            {
                "start_time": 29.327272727272724,
                "end_time": 29.422727272727272,
                "pitch": 34,
                "velocity": 80,
                "duration": 0.09545454545454746,
                "tempo": 120.0
            },
            {
                "start_time": 29.454545454545453,
                "end_time": 29.549999999999997,
                "pitch": 38,
                "velocity": 80,
                "duration": 0.0954545454545439,
                "tempo": 120.0
            },
            {
                "start_time": 29.565909090909088,
                "end_time": 29.659090909090907,
                "pitch": 36,
                "velocity": 80,
                "duration": 0.0931818181818187,
                "tempo": 120.0
            },
            {
                "start_time": 29.677272727272726,
                "end_time": 29.909090909090907,
                "pitch": 31,
                "velocity": 80,
                "duration": 0.2318181818181806,
                "tempo": 120.0
            },
            {
                "start_time": 29.927272727272726,
                "end_time": 30.027272727272727,
                "pitch": 31,
                "velocity": 80,
                "duration": 0.10000000000000142,
                "tempo": 120.0
            },
            {
                "start_time": 30.043181818181818,
                "end_time": 30.143181818181816,
                "pitch": 34,
                "velocity": 80,
                "duration": 0.09999999999999787,
                "tempo": 120.0
            },
            {
                "start_time": 30.161363636363635,
                "end_time": 30.259090909090908,
                "pitch": 38,
                "velocity": 80,
                "duration": 0.09772727272727266,
                "tempo": 120.0
            },
            {
                "start_time": 30.293181818181818,
                "end_time": 30.393181818181816,
                "pitch": 36,
                "velocity": 80,
                "duration": 0.09999999999999787,
                "tempo": 120.0
            },
            {
                "start_time": 30.411363636363635,
                "end_time": 30.62272727272727,
                "pitch": 27,
                "velocity": 80,
                "duration": 0.21136363636363598,
                "tempo": 120.0
            },
            {
                "start_time": 30.638636363636362,
                "end_time": 30.736363636363635,
                "pitch": 27,
                "velocity": 80,
                "duration": 0.09772727272727266,
                "tempo": 120.0
            },
            {
                "start_time": 30.770454545454545,
                "end_time": 30.86590909090909,
                "pitch": 31,
                "velocity": 80,
                "duration": 0.0954545454545439,
                "tempo": 120.0
            },
            {
                "start_time": 30.884090909090908,
                "end_time": 30.98181818181818,
                "pitch": 33,
                "velocity": 80,
                "duration": 0.09772727272727266,
                "tempo": 120.0
            },
            {
                "start_time": 30.99772727272727,
                "end_time": 31.095454545454544,
                "pitch": 34,
                "velocity": 80,
                "duration": 0.09772727272727266,
                "tempo": 120.0
            },
            {
                "start_time": 31.127272727272725,
                "end_time": 31.345454545454544,
                "pitch": 27,
                "velocity": 80,
                "duration": 0.2181818181818187,
                "tempo": 120.0
            },
            {
                "start_time": 31.361363636363635,
                "end_time": 31.461363636363636,
                "pitch": 27,
                "velocity": 80,
                "duration": 0.10000000000000142,
                "tempo": 120.0
            },
            {
                "start_time": 31.479545454545452,
                "end_time": 31.577272727272724,
                "pitch": 31,
                "velocity": 80,
                "duration": 0.09772727272727266,
                "tempo": 120.0
            },
            {
                "start_time": 31.609090909090906,
                "end_time": 31.706818181818182,
                "pitch": 33,
                "velocity": 80,
                "duration": 0.09772727272727622,
                "tempo": 120.0
            },
            {
                "start_time": 31.722727272727273,
                "end_time": 31.820454545454545,
                "pitch": 34,
                "velocity": 80,
                "duration": 0.09772727272727266,
                "tempo": 120.0
            },
            {
                "start_time": 31.83863636363636,
                "end_time": 32.06590909090909,
                "pitch": 27,
                "velocity": 80,
                "duration": 0.22727272727272663,
                "tempo": 120.0
            },
            {
                "start_time": 32.08181818181818,
                "end_time": 32.179545454545455,
                "pitch": 27,
                "velocity": 80,
                "duration": 0.09772727272727622,
                "tempo": 120.0
            },
            {
                "start_time": 32.195454545454545,
                "end_time": 32.29545454545455,
                "pitch": 31,
                "velocity": 80,
                "duration": 0.10000000000000142,
                "tempo": 120.0
            },
            {
                "start_time": 32.31363636363636,
                "end_time": 32.413636363636364,
                "pitch": 33,
                "velocity": 80,
                "duration": 0.10000000000000142,
                "tempo": 120.0
            },
            {
                "start_time": 32.44772727272727,
                "end_time": 32.54545454545455,
                "pitch": 34,
                "velocity": 80,
                "duration": 0.09772727272727622,
                "tempo": 120.0
            },
            {
                "start_time": 32.56363636363636,
                "end_time": 32.779545454545456,
                "pitch": 27,
                "velocity": 80,
                "duration": 0.2159090909090935,
                "tempo": 120.0
            },
            {
                "start_time": 32.79772727272727,
                "end_time": 32.913636363636364,
                "pitch": 27,
                "velocity": 80,
                "duration": 0.11590909090909207,
                "tempo": 120.0
            },
            {
                "start_time": 32.93181818181818,
                "end_time": 33.03181818181818,
                "pitch": 31,
                "velocity": 80,
                "duration": 0.10000000000000142,
                "tempo": 120.0
            },
            {
                "start_time": 33.04772727272727,
                "end_time": 33.14772727272727,
                "pitch": 33,
                "velocity": 80,
                "duration": 0.10000000000000142,
                "tempo": 120.0
            },
            {
                "start_time": 33.16590909090909,
                "end_time": 33.263636363636365,
                "pitch": 34,
                "velocity": 80,
                "duration": 0.09772727272727622,
                "tempo": 120.0
            },
            {
                "start_time": 33.3,
                "end_time": 33.50909090909091,
                "pitch": 26,
                "velocity": 80,
                "duration": 0.20909090909091077,
                "tempo": 120.0
            },
            {
                "start_time": 33.527272727272724,
                "end_time": 33.625,
                "pitch": 26,
                "velocity": 80,
                "duration": 0.09772727272727622,
                "tempo": 120.0
            },
            {
                "start_time": 33.64090909090909,
                "end_time": 33.736363636363635,
                "pitch": 30,
                "velocity": 80,
                "duration": 0.0954545454545439,
                "tempo": 120.0
            },
            {
                "start_time": 33.768181818181816,
                "end_time": 33.861363636363635,
                "pitch": 33,
                "velocity": 80,
                "duration": 0.0931818181818187,
                "tempo": 120.0
            },
            {
                "start_time": 33.87954545454545,
                "end_time": 33.97272727272727,
                "pitch": 31,
                "velocity": 80,
                "duration": 0.0931818181818187,
                "tempo": 120.0
            },
            {
                "start_time": 33.98863636363636,
                "end_time": 34.22272727272727,
                "pitch": 26,
                "velocity": 80,
                "duration": 0.23409090909090935,
                "tempo": 120.0
            },
            {
                "start_time": 34.23863636363636,
                "end_time": 34.33863636363636,
                "pitch": 26,
                "velocity": 80,
                "duration": 0.10000000000000142,
                "tempo": 120.0
            },
            {
                "start_time": 34.35681818181818,
                "end_time": 34.45681818181818,
                "pitch": 30,
                "velocity": 80,
                "duration": 0.10000000000000142,
                "tempo": 120.0
            },
            {
                "start_time": 34.47272727272727,
                "end_time": 34.57272727272727,
                "pitch": 33,
                "velocity": 80,
                "duration": 0.10000000000000142,
                "tempo": 120.0
            },
            {
                "start_time": 34.60681818181818,
                "end_time": 34.70681818181818,
                "pitch": 31,
                "velocity": 80,
                "duration": 0.10000000000000142,
                "tempo": 120.0
            },
            {
                "start_time": 34.725,
                "end_time": 34.934090909090905,
                "pitch": 26,
                "velocity": 80,
                "duration": 0.20909090909090366,
                "tempo": 120.0
            },
            {
                "start_time": 34.95227272727273,
                "end_time": 35.06590909090909,
                "pitch": 26,
                "velocity": 80,
                "duration": 0.11363636363635976,
                "tempo": 120.0
            },
            {
                "start_time": 35.08181818181818,
                "end_time": 35.18181818181818,
                "pitch": 30,
                "velocity": 80,
                "duration": 0.10000000000000142,
                "tempo": 120.0
            },
            {
                "start_time": 35.199999999999996,
                "end_time": 35.29772727272727,
                "pitch": 33,
                "velocity": 80,
                "duration": 0.09772727272727622,
                "tempo": 120.0
            },
            {
                "start_time": 35.31590909090909,
                "end_time": 35.41590909090909,
                "pitch": 31,
                "velocity": 80,
                "duration": 0.10000000000000142,
                "tempo": 120.0
            },
            {
                "start_time": 35.449999999999996,
                "end_time": 35.66590909090909,
                "pitch": 26,
                "velocity": 80,
                "duration": 0.2159090909090935,
                "tempo": 120.0
            },
            {
                "start_time": 35.684090909090905,
                "end_time": 35.78409090909091,
                "pitch": 26,
                "velocity": 80,
                "duration": 0.10000000000000142,
                "tempo": 120.0
            },
            {
                "start_time": 35.8,
                "end_time": 35.91136363636363,
                "pitch": 30,
                "velocity": 80,
                "duration": 0.11136363636363455,
                "tempo": 120.0
            },
            {
                "start_time": 35.92727272727272,
                "end_time": 36.02272727272727,
                "pitch": 33,
                "velocity": 80,
                "duration": 0.09545454545455101,
                "tempo": 120.0
            },
            {
                "start_time": 36.038636363636364,
                "end_time": 36.13181818181818,
                "pitch": 31,
                "velocity": 80,
                "duration": 0.0931818181818187,
                "tempo": 120.0
            },
            {
                "start_time": 36.15,
                "end_time": 36.38181818181818,
                "pitch": 31,
                "velocity": 80,
                "duration": 0.23181818181818414,
                "tempo": 120.0
            },
            {
                "start_time": 36.4,
                "end_time": 36.49772727272727,
                "pitch": 31,
                "velocity": 80,
                "duration": 0.09772727272726911,
                "tempo": 120.0
            },
            {
                "start_time": 36.51590909090909,
                "end_time": 36.61363636363636,
                "pitch": 34,
                "velocity": 80,
                "duration": 0.09772727272726911,
                "tempo": 120.0
            },
            {
                "start_time": 36.62954545454545,
                "end_time": 36.72727272727273,
                "pitch": 38,
                "velocity": 80,
                "duration": 0.09772727272727622,
                "tempo": 120.0
            },
            {
                "start_time": 36.76136363636363,
                "end_time": 36.85681818181818,
                "pitch": 36,
                "velocity": 80,
                "duration": 0.0954545454545439,
                "tempo": 120.0
            },
            {
                "start_time": 36.875,
                "end_time": 37.090909090909086,
                "pitch": 31,
                "velocity": 80,
                "duration": 0.2159090909090864,
                "tempo": 120.0
            },
            {
                "start_time": 37.125,
                "end_time": 37.225,
                "pitch": 31,
                "velocity": 80,
                "duration": 0.10000000000000142,
                "tempo": 120.0
            },
            {
                "start_time": 37.24090909090909,
                "end_time": 37.340909090909086,
                "pitch": 34,
                "velocity": 80,
                "duration": 0.09999999999999432,
                "tempo": 120.0
            },
            {
                "start_time": 37.35909090909091,
                "end_time": 37.45909090909091,
                "pitch": 38,
                "velocity": 80,
                "duration": 0.10000000000000142,
                "tempo": 120.0
            },
            {
                "start_time": 37.475,
                "end_time": 37.574999999999996,
                "pitch": 36,
                "velocity": 80,
                "duration": 0.09999999999999432,
                "tempo": 120.0
            },
            {
                "start_time": 37.60909090909091,
                "end_time": 37.820454545454545,
                "pitch": 31,
                "velocity": 80,
                "duration": 0.21136363636363598,
                "tempo": 120.0
            },
            {
                "start_time": 37.836363636363636,
                "end_time": 37.934090909090905,
                "pitch": 31,
                "velocity": 80,
                "duration": 0.09772727272726911,
                "tempo": 120.0
            },
            {
                "start_time": 37.95227272727273,
                "end_time": 38.06136363636364,
                "pitch": 34,
                "velocity": 80,
                "duration": 0.10909090909090935,
                "tempo": 120.0
            },
            {
                "start_time": 38.07727272727273,
                "end_time": 38.17272727272727,
                "pitch": 38,
                "velocity": 80,
                "duration": 0.0954545454545439,
                "tempo": 120.0
            },
            {
                "start_time": 38.18863636363636,
                "end_time": 38.28409090909091,
                "pitch": 36,
                "velocity": 80,
                "duration": 0.0954545454545439,
                "tempo": 120.0
            },
            {
                "start_time": 38.3,
                "end_time": 38.53181818181818,
                "pitch": 31,
                "velocity": 80,
                "duration": 0.23181818181818414,
                "tempo": 120.0
            },
            {
                "start_time": 38.55,
                "end_time": 38.65,
                "pitch": 31,
                "velocity": 80,
                "duration": 0.10000000000000142,
                "tempo": 120.0
            },
            {
                "start_time": 38.668181818181814,
                "end_time": 38.76590909090909,
                "pitch": 34,
                "velocity": 80,
                "duration": 0.09772727272727622,
                "tempo": 120.0
            },
            {
                "start_time": 38.78409090909091,
                "end_time": 38.9,
                "pitch": 38,
                "velocity": 80,
                "duration": 0.11590909090909207,
                "tempo": 120.0
            },
            {
                "start_time": 38.918181818181814,
                "end_time": 39.018181818181816,
                "pitch": 36,
                "velocity": 80,
                "duration": 0.10000000000000142,
                "tempo": 120.0
            },
            {
                "start_time": 39.03636363636363,
                "end_time": 39.25,
                "pitch": 31,
                "velocity": 80,
                "duration": 0.2136363636363683,
                "tempo": 120.0
            },
            {
                "start_time": 39.28409090909091,
                "end_time": 39.38409090909091,
                "pitch": 31,
                "velocity": 80,
                "duration": 0.10000000000000142,
                "tempo": 120.0
            },
            {
                "start_time": 39.402272727272724,
                "end_time": 39.5,
                "pitch": 34,
                "velocity": 80,
                "duration": 0.09772727272727622,
                "tempo": 120.0
            },
            {
                "start_time": 39.51590909090909,
                "end_time": 39.61363636363636,
                "pitch": 38,
                "velocity": 80,
                "duration": 0.09772727272726911,
                "tempo": 120.0
            },
            {
                "start_time": 39.62954545454545,
                "end_time": 39.72727272727273,
                "pitch": 36,
                "velocity": 80,
                "duration": 0.09772727272727622,
                "tempo": 120.0
            },
            {
                "start_time": 39.76136363636363,
                "end_time": 39.97727272727273,
                "pitch": 31,
                "velocity": 80,
                "duration": 0.2159090909090935,
                "tempo": 120.0
            },
            {
                "start_time": 39.99545454545454,
                "end_time": 40.09318181818182,
                "pitch": 31,
                "velocity": 80,
                "duration": 0.09772727272727622,
                "tempo": 120.0
            },
            {
                "start_time": 40.127272727272725,
                "end_time": 40.22727272727273,
                "pitch": 34,
                "velocity": 80,
                "duration": 0.10000000000000142,
                "tempo": 120.0
            },
            {
                "start_time": 40.24545454545454,
                "end_time": 40.345454545454544,
                "pitch": 38,
                "velocity": 80,
                "duration": 0.10000000000000142,
                "tempo": 120.0
            },
            {
                "start_time": 40.361363636363635,
                "end_time": 40.461363636363636,
                "pitch": 36,
                "velocity": 80,
                "duration": 0.10000000000000142,
                "tempo": 120.0
            },
            {
                "start_time": 40.47954545454545,
                "end_time": 40.699999999999996,
                "pitch": 31,
                "velocity": 80,
                "duration": 0.2204545454545439,
                "tempo": 120.0
            },
            {
                "start_time": 40.715909090909086,
                "end_time": 40.81136363636364,
                "pitch": 31,
                "velocity": 80,
                "duration": 0.09545454545455101,
                "tempo": 120.0
            },
            {
                "start_time": 40.82727272727273,
                "end_time": 40.925,
                "pitch": 34,
                "velocity": 80,
                "duration": 0.09772727272726911,
                "tempo": 120.0
            },
            {
                "start_time": 40.94090909090909,
                "end_time": 41.054545454545455,
                "pitch": 38,
                "velocity": 80,
                "duration": 0.11363636363636687,
                "tempo": 120.0
            },
            {
                "start_time": 41.07272727272727,
                "end_time": 41.168181818181814,
                "pitch": 36,
                "velocity": 80,
                "duration": 0.0954545454545439,
                "tempo": 120.0
            },
            {
                "start_time": 41.18636363636364,
                "end_time": 41.402272727272724,
                "pitch": 31,
                "velocity": 80,
                "duration": 0.2159090909090864,
                "tempo": 120.0
            },
            {
                "start_time": 41.43636363636364,
                "end_time": 41.53636363636363,
                "pitch": 31,
                "velocity": 80,
                "duration": 0.09999999999999432,
                "tempo": 120.0
            },
            {
                "start_time": 41.55227272727272,
                "end_time": 41.652272727272724,
                "pitch": 34,
                "velocity": 80,
                "duration": 0.10000000000000142,
                "tempo": 120.0
            },
            {
                "start_time": 41.67045454545455,
                "end_time": 41.77045454545454,
                "pitch": 38,
                "velocity": 80,
                "duration": 0.09999999999999432,
                "tempo": 120.0
            },
            {
                "start_time": 41.78636363636363,
                "end_time": 41.88636363636363,
                "pitch": 36,
                "velocity": 80,
                "duration": 0.10000000000000142,
                "tempo": 120.0
            },
            {
                "start_time": 41.92045454545455,
                "end_time": 42.13636363636363,
                "pitch": 31,
                "velocity": 80,
                "duration": 0.2159090909090864,
                "tempo": 120.0
            },
            {
                "start_time": 42.15454545454545,
                "end_time": 42.25454545454545,
                "pitch": 31,
                "velocity": 80,
                "duration": 0.10000000000000142,
                "tempo": 120.0
            },
            {
                "start_time": 42.288636363636364,
                "end_time": 42.38409090909091,
                "pitch": 34,
                "velocity": 80,
                "duration": 0.0954545454545439,
                "tempo": 120.0
            },
            {
                "start_time": 42.402272727272724,
                "end_time": 42.5,
                "pitch": 38,
                "velocity": 80,
                "duration": 0.09772727272727622,
                "tempo": 120.0
            },
            {
                "start_time": 42.51590909090909,
                "end_time": 42.61363636363636,
                "pitch": 36,
                "velocity": 80,
                "duration": 0.09772727272726911,
                "tempo": 120.0
            },
            {
                "start_time": 42.62954545454545,
                "end_time": 42.85227272727273,
                "pitch": 31,
                "velocity": 80,
                "duration": 0.22272727272727622,
                "tempo": 120.0
            },
            {
                "start_time": 42.86818181818182,
                "end_time": 42.961363636363636,
                "pitch": 31,
                "velocity": 80,
                "duration": 0.0931818181818187,
                "tempo": 120.0
            },
            {
                "start_time": 42.97954545454545,
                "end_time": 43.07727272727273,
                "pitch": 34,
                "velocity": 80,
                "duration": 0.09772727272727622,
                "tempo": 120.0
            },
            {
                "start_time": 43.111363636363635,
                "end_time": 43.211363636363636,
                "pitch": 38,
                "velocity": 80,
                "duration": 0.10000000000000142,
                "tempo": 120.0
            },
            {
                "start_time": 43.22954545454545,
                "end_time": 43.32727272727273,
                "pitch": 36,
                "velocity": 80,
                "duration": 0.09772727272727622,
                "tempo": 120.0
            },
            {
                "start_time": 43.345454545454544,
                "end_time": 43.56136363636364,
                "pitch": 31,
                "velocity": 80,
                "duration": 0.2159090909090935,
                "tempo": 120.0
            },
            {
                "start_time": 43.595454545454544,
                "end_time": 43.695454545454545,
                "pitch": 31,
                "velocity": 80,
                "duration": 0.10000000000000142,
                "tempo": 120.0
            },
            {
                "start_time": 43.71363636363636,
                "end_time": 43.809090909090905,
                "pitch": 34,
                "velocity": 80,
                "duration": 0.0954545454545439,
                "tempo": 120.0
            },
            {
                "start_time": 43.82727272727273,
                "end_time": 43.925,
                "pitch": 38,
                "velocity": 80,
                "duration": 0.09772727272726911,
                "tempo": 120.0
            },
            {
                "start_time": 43.94090909090909,
                "end_time": 44.054545454545455,
                "pitch": 36,
                "velocity": 80,
                "duration": 0.11363636363636687,
                "tempo": 120.0
            },
            {
                "start_time": 44.07272727272727,
                "end_time": 44.288636363636364,
                "pitch": 31,
                "velocity": 80,
                "duration": 0.2159090909090935,
                "tempo": 120.0
            },
            {
                "start_time": 44.304545454545455,
                "end_time": 44.40454545454545,
                "pitch": 31,
                "velocity": 80,
                "duration": 0.09999999999999432,
                "tempo": 120.0
            },
            {
                "start_time": 44.43863636363636,
                "end_time": 44.538636363636364,
                "pitch": 34,
                "velocity": 80,
                "duration": 0.10000000000000142,
                "tempo": 120.0
            },
            {
                "start_time": 44.55681818181818,
                "end_time": 44.65454545454545,
                "pitch": 38,
                "velocity": 80,
                "duration": 0.09772727272726911,
                "tempo": 120.0
            },
            {
                "start_time": 44.67272727272727,
                "end_time": 44.77272727272727,
                "pitch": 36,
                "velocity": 80,
                "duration": 0.10000000000000142,
                "tempo": 120.0
            },
            {
                "start_time": 44.79090909090909,
                "end_time": 45.01136363636363,
                "pitch": 31,
                "velocity": 80,
                "duration": 0.2204545454545439,
                "tempo": 120.0
            },
            {
                "start_time": 45.027272727272724,
                "end_time": 45.12272727272727,
                "pitch": 31,
                "velocity": 80,
                "duration": 0.0954545454545439,
                "tempo": 120.0
            },
            {
                "start_time": 45.13863636363636,
                "end_time": 45.236363636363635,
                "pitch": 34,
                "velocity": 80,
                "duration": 0.09772727272727622,
                "tempo": 120.0
            },
            {
                "start_time": 45.27045454545454,
                "end_time": 45.37045454545454,
                "pitch": 38,
                "velocity": 80,
                "duration": 0.10000000000000142,
                "tempo": 120.0
            },
            {
                "start_time": 45.38863636363636,
                "end_time": 45.48863636363636,
                "pitch": 36,
                "velocity": 80,
                "duration": 0.10000000000000142,
                "tempo": 120.0
            },
            {
                "start_time": 45.50454545454545,
                "end_time": 45.715909090909086,
                "pitch": 31,
                "velocity": 80,
                "duration": 0.21136363636363598,
                "tempo": 120.0
            },
            {
                "start_time": 45.75,
                "end_time": 45.84772727272727,
                "pitch": 31,
                "velocity": 80,
                "duration": 0.09772727272726911,
                "tempo": 120.0
            },
            {
                "start_time": 45.86363636363636,
                "end_time": 45.96363636363636,
                "pitch": 34,
                "velocity": 80,
                "duration": 0.10000000000000142,
                "tempo": 120.0
            },
            {
                "start_time": 45.98181818181818,
                "end_time": 46.07954545454545,
                "pitch": 38,
                "velocity": 80,
                "duration": 0.09772727272727622,
                "tempo": 120.0
            },
            {
                "start_time": 46.09772727272727,
                "end_time": 46.21363636363636,
                "pitch": 36,
                "velocity": 80,
                "duration": 0.11590909090909207,
                "tempo": 120.0
            },
            {
                "start_time": 46.23181818181818,
                "end_time": 46.44772727272727,
                "pitch": 31,
                "velocity": 80,
                "duration": 0.2159090909090935,
                "tempo": 120.0
            },
            {
                "start_time": 46.46363636363636,
                "end_time": 46.56363636363636,
                "pitch": 31,
                "velocity": 80,
                "duration": 0.10000000000000142,
                "tempo": 120.0
            },
            {
                "start_time": 46.59772727272727,
                "end_time": 46.695454545454545,
                "pitch": 34,
                "velocity": 80,
                "duration": 0.09772727272727622,
                "tempo": 120.0
            },
            {
                "start_time": 46.711363636363636,
                "end_time": 46.809090909090905,
                "pitch": 38,
                "velocity": 80,
                "duration": 0.09772727272726911,
                "tempo": 120.0
            },
            {
                "start_time": 46.82727272727273,
                "end_time": 46.925,
                "pitch": 36,
                "velocity": 80,
                "duration": 0.09772727272726911,
                "tempo": 120.0
            },
            {
                "start_time": 46.94090909090909,
                "end_time": 47.168181818181814,
                "pitch": 31,
                "velocity": 80,
                "duration": 0.22727272727272663,
                "tempo": 120.0
            },
            {
                "start_time": 47.184090909090905,
                "end_time": 47.28181818181818,
                "pitch": 31,
                "velocity": 80,
                "duration": 0.09772727272727622,
                "tempo": 120.0
            },
            {
                "start_time": 47.3,
                "end_time": 47.39772727272727,
                "pitch": 34,
                "velocity": 80,
                "duration": 0.09772727272727622,
                "tempo": 120.0
            },
            {
                "start_time": 47.434090909090905,
                "end_time": 47.53181818181818,
                "pitch": 38,
                "velocity": 80,
                "duration": 0.09772727272727622,
                "tempo": 120.0
            },
            {
                "start_time": 47.55,
                "end_time": 47.65,
                "pitch": 36,
                "velocity": 80,
                "duration": 0.10000000000000142,
                "tempo": 120.0
            },
            {
                "start_time": 47.668181818181814,
                "end_time": 47.877272727272725,
                "pitch": 26,
                "velocity": 80,
                "duration": 0.20909090909091077,
                "tempo": 120.0
            },
            {
                "start_time": 47.91136363636363,
                "end_time": 48.00909090909091,
                "pitch": 26,
                "velocity": 80,
                "duration": 0.09772727272727622,
                "tempo": 120.0
            },
            {
                "start_time": 48.025,
                "end_time": 48.125,
                "pitch": 30,
                "velocity": 80,
                "duration": 0.10000000000000142,
                "tempo": 120.0
            },
            {
                "start_time": 48.143181818181816,
                "end_time": 48.24090909090909,
                "pitch": 33,
                "velocity": 80,
                "duration": 0.09772727272727622,
                "tempo": 120.0
            },
            {
                "start_time": 48.275,
                "end_time": 48.375,
                "pitch": 31,
                "velocity": 80,
                "duration": 0.10000000000000142,
                "tempo": 120.0
            },
            {
                "start_time": 48.393181818181816,
                "end_time": 48.60454545454545,
                "pitch": 26,
                "velocity": 80,
                "duration": 0.21136363636363598,
                "tempo": 120.0
            },
            {
                "start_time": 48.62045454545454,
                "end_time": 48.71818181818182,
                "pitch": 26,
                "velocity": 80,
                "duration": 0.09772727272727622,
                "tempo": 120.0
            },
            {
                "start_time": 48.75,
                "end_time": 48.849999999999994,
                "pitch": 30,
                "velocity": 80,
                "duration": 0.09999999999999432,
                "tempo": 120.0
            },
            {
                "start_time": 48.86818181818182,
                "end_time": 48.96818181818182,
                "pitch": 33,
                "velocity": 80,
                "duration": 0.10000000000000142,
                "tempo": 120.0
            },
            {
                "start_time": 48.98409090909091,
                "end_time": 49.084090909090904,
                "pitch": 31,
                "velocity": 80,
                "duration": 0.09999999999999432,
                "tempo": 120.0
            },
            {
                "start_time": 49.10227272727273,
                "end_time": 49.32272727272727,
                "pitch": 26,
                "velocity": 80,
                "duration": 0.2204545454545439,
                "tempo": 120.0
            },
            {
                "start_time": 49.33863636363636,
                "end_time": 49.434090909090905,
                "pitch": 26,
                "velocity": 80,
                "duration": 0.0954545454545439,
                "tempo": 120.0
            },
            {
                "start_time": 49.449999999999996,
                "end_time": 49.55,
                "pitch": 30,
                "velocity": 80,
                "duration": 0.10000000000000142,
                "tempo": 120.0
            },
            {
                "start_time": 49.584090909090904,
                "end_time": 49.68181818181818,
                "pitch": 33,
                "velocity": 80,
                "duration": 0.09772727272727622,
                "tempo": 120.0
            },
            {
                "start_time": 49.699999999999996,
                "end_time": 49.8,
                "pitch": 31,
                "velocity": 80,
                "duration": 0.10000000000000142,
                "tempo": 120.0
            },
            {
                "start_time": 49.81590909090909,
                "end_time": 50.04545454545454,
                "pitch": 26,
                "velocity": 80,
                "duration": 0.22954545454545183,
                "tempo": 120.0
            },
            {
                "start_time": 50.06136363636364,
                "end_time": 50.15909090909091,
                "pitch": 26,
                "velocity": 80,
                "duration": 0.09772727272726911,
                "tempo": 120.0
            },
            {
                "start_time": 50.175,
                "end_time": 50.277272727272724,
                "pitch": 30,
                "velocity": 80,
                "duration": 0.10227272727272663,
                "tempo": 120.0
            },
            {
                "start_time": 50.29545454545454,
                "end_time": 50.39772727272727,
                "pitch": 33,
                "velocity": 80,
                "duration": 0.10227272727273373,
                "tempo": 120.0
            },
            {
                "start_time": 50.434090909090905,
                "end_time": 50.53636363636363,
                "pitch": 31,
                "velocity": 80,
                "duration": 0.10227272727272663,
                "tempo": 120.0
            },
            {
                "start_time": 50.554545454545455,
                "end_time": 50.76590909090909,
                "pitch": 26,
                "velocity": 80,
                "duration": 0.21136363636363598,
                "tempo": 120.0
            },
            {
                "start_time": 50.78181818181818,
                "end_time": 50.87954545454545,
                "pitch": 26,
                "velocity": 80,
                "duration": 0.09772727272726911,
                "tempo": 120.0
            },
            {
                "start_time": 50.913636363636364,
                "end_time": 51.01136363636363,
                "pitch": 30,
                "velocity": 80,
                "duration": 0.09772727272726911,
                "tempo": 120.0
            },
            {
                "start_time": 51.02954545454545,
                "end_time": 51.12954545454545,
                "pitch": 33,
                "velocity": 80,
                "duration": 0.10000000000000142,
                "tempo": 120.0
            },
            {
                "start_time": 51.14772727272727,
                "end_time": 51.24545454545454,
                "pitch": 31,
                "velocity": 80,
                "duration": 0.09772727272726911,
                "tempo": 120.0
            },
            {
                "start_time": 51.27954545454545,
                "end_time": 51.490909090909085,
                "pitch": 26,
                "velocity": 80,
                "duration": 0.21136363636363598,
                "tempo": 120.0
            },
            {
                "start_time": 51.50909090909091,
                "end_time": 51.60454545454545,
                "pitch": 26,
                "velocity": 80,
                "duration": 0.0954545454545439,
                "tempo": 120.0
            },
            {
                "start_time": 51.62272727272727,
                "end_time": 51.720454545454544,
                "pitch": 30,
                "velocity": 80,
                "duration": 0.09772727272727622,
                "tempo": 120.0
            },
            {
                "start_time": 51.752272727272725,
                "end_time": 51.849999999999994,
                "pitch": 33,
                "velocity": 80,
                "duration": 0.09772727272726911,
                "tempo": 120.0
            },
            {
                "start_time": 51.86818181818182,
                "end_time": 51.96363636363636,
                "pitch": 31,
                "velocity": 80,
                "duration": 0.0954545454545439,
                "tempo": 120.0
            },
            {
                "start_time": 51.98181818181818,
                "end_time": 52.209090909090904,
                "pitch": 26,
                "velocity": 80,
                "duration": 0.22727272727272663,
                "tempo": 120.0
            },
            {
                "start_time": 52.224999999999994,
                "end_time": 52.32272727272727,
                "pitch": 26,
                "velocity": 80,
                "duration": 0.09772727272727622,
                "tempo": 120.0
            },
            {
                "start_time": 52.33863636363636,
                "end_time": 52.43863636363636,
                "pitch": 30,
                "velocity": 80,
                "duration": 0.10000000000000142,
                "tempo": 120.0
            },
            {
                "start_time": 52.45681818181818,
                "end_time": 52.55681818181818,
                "pitch": 33,
                "velocity": 80,
                "duration": 0.10000000000000142,
                "tempo": 120.0
            },
            {
                "start_time": 52.590909090909086,
                "end_time": 52.68863636363636,
                "pitch": 31,
                "velocity": 80,
                "duration": 0.09772727272727622,
                "tempo": 120.0
            },
            {
                "start_time": 52.70681818181818,
                "end_time": 52.92272727272727,
                "pitch": 26,
                "velocity": 80,
                "duration": 0.2159090909090935,
                "tempo": 120.0
            },
            {
                "start_time": 52.94090909090909,
                "end_time": 53.05681818181818,
                "pitch": 26,
                "velocity": 80,
                "duration": 0.11590909090909207,
                "tempo": 120.0
            },
            {
                "start_time": 53.074999999999996,
                "end_time": 53.175,
                "pitch": 30,
                "velocity": 80,
                "duration": 0.10000000000000142,
                "tempo": 120.0
            },
            {
                "start_time": 53.19090909090909,
                "end_time": 53.29090909090909,
                "pitch": 33,
                "velocity": 80,
                "duration": 0.10000000000000142,
                "tempo": 120.0
            },
            {
                "start_time": 53.309090909090905,
                "end_time": 53.40681818181818,
                "pitch": 31,
                "velocity": 80,
                "duration": 0.09772727272727622,
                "tempo": 120.0
            },
            {
                "start_time": 53.44318181818181,
                "end_time": 53.538636363636364,
                "pitch": 31,
                "velocity": 80,
                "duration": 0.09545454545455101,
                "tempo": 120.0
            },
            {
                "start_time": 53.55681818181818,
                "end_time": 53.652272727272724,
                "pitch": 31,
                "velocity": 80,
                "duration": 0.0954545454545439,
                "tempo": 120.0
            },
            {
                "start_time": 53.67045454545454,
                "end_time": 53.768181818181816,
                "pitch": 31,
                "velocity": 80,
                "duration": 0.09772727272727622,
                "tempo": 120.0
            },
            {
                "start_time": 53.78409090909091,
                "end_time": 53.88181818181818,
                "pitch": 31,
                "velocity": 80,
                "duration": 0.09772727272727622,
                "tempo": 120.0
            },
            {
                "start_time": 53.91590909090909,
                "end_time": 54.01136363636363,
                "pitch": 31,
                "velocity": 80,
                "duration": 0.0954545454545439,
                "tempo": 120.0
            },
            {
                "start_time": 54.02954545454545,
                "end_time": 54.125,
                "pitch": 31,
                "velocity": 80,
                "duration": 0.09545454545455101,
                "tempo": 120.0
            },
            {
                "start_time": 54.143181818181816,
                "end_time": 54.240909090909085,
                "pitch": 31,
                "velocity": 80,
                "duration": 0.09772727272726911,
                "tempo": 120.0
            },
            {
                "start_time": 54.27272727272727,
                "end_time": 54.37045454545454,
                "pitch": 31,
                "velocity": 80,
                "duration": 0.09772727272726911,
                "tempo": 120.0
            },
            {
                "start_time": 54.38863636363636,
                "end_time": 54.48409090909091,
                "pitch": 31,
                "velocity": 80,
                "duration": 0.09545454545455101,
                "tempo": 120.0
            },
            {
                "start_time": 54.502272727272725,
                "end_time": 54.599999999999994,
                "pitch": 31,
                "velocity": 80,
                "duration": 0.09772727272726911,
                "tempo": 120.0
            },
            {
                "start_time": 54.61818181818182,
                "end_time": 54.71818181818182,
                "pitch": 31,
                "velocity": 80,
                "duration": 0.10000000000000142,
                "tempo": 120.0
            },
            {
                "start_time": 54.752272727272725,
                "end_time": 54.85227272727273,
                "pitch": 31,
                "velocity": 80,
                "duration": 0.10000000000000142,
                "tempo": 120.0
            },
            {
                "start_time": 54.86818181818182,
                "end_time": 54.965909090909086,
                "pitch": 29,
                "velocity": 80,
                "duration": 0.09772727272726911,
                "tempo": 120.0
            },
            {
                "start_time": 54.98181818181818,
                "end_time": 55.07954545454545,
                "pitch": 29,
                "velocity": 80,
                "duration": 0.09772727272727622,
                "tempo": 120.0
            },
            {
                "start_time": 55.09772727272727,
                "end_time": 55.211363636363636,
                "pitch": 29,
                "velocity": 80,
                "duration": 0.11363636363636687,
                "tempo": 120.0
            },
            {
                "start_time": 55.22727272727273,
                "end_time": 55.32727272727273,
                "pitch": 29,
                "velocity": 80,
                "duration": 0.10000000000000142,
                "tempo": 120.0
            },
            {
                "start_time": 55.34318181818182,
                "end_time": 55.44318181818181,
                "pitch": 29,
                "velocity": 80,
                "duration": 0.09999999999999432,
                "tempo": 120.0
            },
            {
                "start_time": 55.461363636363636,
                "end_time": 55.56136363636363,
                "pitch": 29,
                "velocity": 80,
                "duration": 0.09999999999999432,
                "tempo": 120.0
            },
            {
                "start_time": 55.595454545454544,
                "end_time": 55.69318181818181,
                "pitch": 29,
                "velocity": 80,
                "duration": 0.09772727272726911,
                "tempo": 120.0
            },
            {
                "start_time": 55.711363636363636,
                "end_time": 55.81136363636363,
                "pitch": 29,
                "velocity": 80,
                "duration": 0.09999999999999432,
                "tempo": 120.0
            },
            {
                "start_time": 55.82954545454545,
                "end_time": 55.92727272727272,
                "pitch": 29,
                "velocity": 80,
                "duration": 0.09772727272726911,
                "tempo": 120.0
            },
            {
                "start_time": 55.945454545454545,
                "end_time": 56.04090909090909,
                "pitch": 29,
                "velocity": 80,
                "duration": 0.0954545454545439,
                "tempo": 120.0
            },
            {
                "start_time": 56.07272727272727,
                "end_time": 56.16590909090909,
                "pitch": 29,
                "velocity": 80,
                "duration": 0.0931818181818187,
                "tempo": 120.0
            },
            {
                "start_time": 56.184090909090905,
                "end_time": 56.277272727272724,
                "pitch": 29,
                "velocity": 80,
                "duration": 0.0931818181818187,
                "tempo": 120.0
            },
            {
                "start_time": 56.293181818181814,
                "end_time": 56.393181818181816,
                "pitch": 28,
                "velocity": 80,
                "duration": 0.10000000000000142,
                "tempo": 120.0
            },
            {
                "start_time": 56.42727272727272,
                "end_time": 56.527272727272724,
                "pitch": 28,
                "velocity": 80,
                "duration": 0.10000000000000142,
                "tempo": 120.0
            },
            {
                "start_time": 56.543181818181814,
                "end_time": 56.643181818181816,
                "pitch": 28,
                "velocity": 80,
                "duration": 0.10000000000000142,
                "tempo": 120.0
            },
            {
                "start_time": 56.66136363636363,
                "end_time": 56.75909090909091,
                "pitch": 28,
                "velocity": 80,
                "duration": 0.09772727272727622,
                "tempo": 120.0
            },
            {
                "start_time": 56.777272727272724,
                "end_time": 56.877272727272725,
                "pitch": 28,
                "velocity": 80,
                "duration": 0.10000000000000142,
                "tempo": 120.0
            },
            {
                "start_time": 56.91136363636363,
                "end_time": 57.01136363636363,
                "pitch": 28,
                "velocity": 80,
                "duration": 0.10000000000000142,
                "tempo": 120.0
            },
            {
                "start_time": 57.027272727272724,
                "end_time": 57.125,
                "pitch": 28,
                "velocity": 80,
                "duration": 0.09772727272727622,
                "tempo": 120.0
            },
            {
                "start_time": 57.143181818181816,
                "end_time": 57.23863636363636,
                "pitch": 28,
                "velocity": 80,
                "duration": 0.0954545454545439,
                "tempo": 120.0
            },
            {
                "start_time": 57.27272727272727,
                "end_time": 57.37045454545454,
                "pitch": 28,
                "velocity": 80,
                "duration": 0.09772727272726911,
                "tempo": 120.0
            },
            {
                "start_time": 57.38636363636363,
                "end_time": 57.486363636363635,
                "pitch": 28,
                "velocity": 80,
                "duration": 0.10000000000000142,
                "tempo": 120.0
            },
            {
                "start_time": 57.50454545454545,
                "end_time": 57.60227272727273,
                "pitch": 28,
                "velocity": 80,
                "duration": 0.09772727272727622,
                "tempo": 120.0
            },
            {
                "start_time": 57.62045454545454,
                "end_time": 57.720454545454544,
                "pitch": 28,
                "velocity": 80,
                "duration": 0.10000000000000142,
                "tempo": 120.0
            },
            {
                "start_time": 57.75454545454545,
                "end_time": 57.85227272727273,
                "pitch": 27,
                "velocity": 80,
                "duration": 0.09772727272727622,
                "tempo": 120.0
            },
            {
                "start_time": 57.86818181818182,
                "end_time": 57.965909090909086,
                "pitch": 27,
                "velocity": 80,
                "duration": 0.09772727272726911,
                "tempo": 120.0
            },
            {
                "start_time": 57.98181818181818,
                "end_time": 58.07954545454545,
                "pitch": 27,
                "velocity": 80,
                "duration": 0.09772727272727622,
                "tempo": 120.0
            },
            {
                "start_time": 58.09772727272727,
                "end_time": 58.209090909090904,
                "pitch": 27,
                "velocity": 80,
                "duration": 0.11136363636363455,
                "tempo": 120.0
            },
            {
                "start_time": 58.22727272727273,
                "end_time": 58.324999999999996,
                "pitch": 27,
                "velocity": 80,
                "duration": 0.09772727272726911,
                "tempo": 120.0
            },
            {
                "start_time": 58.340909090909086,
                "end_time": 58.43863636363636,
                "pitch": 27,
                "velocity": 80,
                "duration": 0.09772727272727622,
                "tempo": 120.0
            },
            {
                "start_time": 58.45454545454545,
                "end_time": 58.55227272727272,
                "pitch": 27,
                "velocity": 80,
                "duration": 0.09772727272726911,
                "tempo": 120.0
            },
            {
                "start_time": 58.586363636363636,
                "end_time": 58.68181818181818,
                "pitch": 27,
                "velocity": 80,
                "duration": 0.0954545454545439,
                "tempo": 120.0
            },
            {
                "start_time": 58.699999999999996,
                "end_time": 58.79772727272727,
                "pitch": 27,
                "velocity": 80,
                "duration": 0.09772727272727622,
                "tempo": 120.0
            },
            {
                "start_time": 58.81363636363636,
                "end_time": 58.913636363636364,
                "pitch": 27,
                "velocity": 80,
                "duration": 0.10000000000000142,
                "tempo": 120.0
            },
            {
                "start_time": 58.929545454545455,
                "end_time": 59.02954545454545,
                "pitch": 27,
                "velocity": 80,
                "duration": 0.09999999999999432,
                "tempo": 120.0
            },
            {
                "start_time": 59.06363636363636,
                "end_time": 59.163636363636364,
                "pitch": 27,
                "velocity": 80,
                "duration": 0.10000000000000142,
                "tempo": 120.0
            },
            {
                "start_time": 59.18181818181818,
                "end_time": 59.27954545454545,
                "pitch": 31,
                "velocity": 80,
                "duration": 0.09772727272726911,
                "tempo": 120.0
            },
            {
                "start_time": 59.29772727272727,
                "end_time": 59.39772727272727,
                "pitch": 31,
                "velocity": 80,
                "duration": 0.10000000000000142,
                "tempo": 120.0
            },
            {
                "start_time": 59.43181818181818,
                "end_time": 59.53181818181818,
                "pitch": 31,
                "velocity": 80,
                "duration": 0.10000000000000142,
                "tempo": 120.0
            },
            {
                "start_time": 59.54772727272727,
                "end_time": 59.64772727272727,
                "pitch": 31,
                "velocity": 80,
                "duration": 0.10000000000000142,
                "tempo": 120.0
            },
            {
                "start_time": 59.66590909090909,
                "end_time": 59.76363636363636,
                "pitch": 31,
                "velocity": 80,
                "duration": 0.09772727272726911,
                "tempo": 120.0
            },
            {
                "start_time": 59.78181818181818,
                "end_time": 59.881818181818176,
                "pitch": 31,
                "velocity": 80,
                "duration": 0.09999999999999432,
                "tempo": 120.0
            },
            {
                "start_time": 59.91590909090909,
                "end_time": 60.01363636363636,
                "pitch": 31,
                "velocity": 80,
                "duration": 0.09772727272726911,
                "tempo": 120.0
            },
            {
                "start_time": 60.02954545454545,
                "end_time": 60.127272727272725,
                "pitch": 31,
                "velocity": 80,
                "duration": 0.09772727272727622,
                "tempo": 120.0
            },
            {
                "start_time": 60.14545454545454,
                "end_time": 60.240909090909085,
                "pitch": 31,
                "velocity": 80,
                "duration": 0.0954545454545439,
                "tempo": 120.0
            },
            {
                "start_time": 60.25909090909091,
                "end_time": 60.36818181818182,
                "pitch": 31,
                "velocity": 80,
                "duration": 0.10909090909090935,
                "tempo": 120.0
            },
            {
                "start_time": 60.38409090909091,
                "end_time": 60.47954545454545,
                "pitch": 31,
                "velocity": 80,
                "duration": 0.0954545454545439,
                "tempo": 120.0
            },
            {
                "start_time": 60.49545454545454,
                "end_time": 60.590909090909086,
                "pitch": 31,
                "velocity": 80,
                "duration": 0.0954545454545439,
                "tempo": 120.0
            },
            {
                "start_time": 60.60681818181818,
                "end_time": 60.70454545454545,
                "pitch": 29,
                "velocity": 80,
                "duration": 0.09772727272727622,
                "tempo": 120.0
            },
            {
                "start_time": 60.73863636363636,
                "end_time": 60.83863636363636,
                "pitch": 29,
                "velocity": 80,
                "duration": 0.10000000000000142,
                "tempo": 120.0
            },
            {
                "start_time": 60.85681818181818,
                "end_time": 60.95681818181818,
                "pitch": 29,
                "velocity": 80,
                "duration": 0.10000000000000142,
                "tempo": 120.0
            },
            {
                "start_time": 60.97272727272727,
                "end_time": 61.07272727272727,
                "pitch": 29,
                "velocity": 80,
                "duration": 0.10000000000000142,
                "tempo": 120.0
            },
            {
                "start_time": 61.090909090909086,
                "end_time": 61.20681818181818,
                "pitch": 29,
                "velocity": 80,
                "duration": 0.11590909090909207,
                "tempo": 120.0
            },
            {
                "start_time": 61.224999999999994,
                "end_time": 61.32272727272727,
                "pitch": 29,
                "velocity": 80,
                "duration": 0.09772727272727622,
                "tempo": 120.0
            },
            {
                "start_time": 61.340909090909086,
                "end_time": 61.43863636363636,
                "pitch": 29,
                "velocity": 80,
                "duration": 0.09772727272727622,
                "tempo": 120.0
            },
            {
                "start_time": 61.45454545454545,
                "end_time": 61.55227272727272,
                "pitch": 29,
                "velocity": 80,
                "duration": 0.09772727272726911,
                "tempo": 120.0
            },
            {
                "start_time": 61.586363636363636,
                "end_time": 61.68181818181818,
                "pitch": 29,
                "velocity": 80,
                "duration": 0.0954545454545439,
                "tempo": 120.0
            },
            {
                "start_time": 61.699999999999996,
                "end_time": 61.8,
                "pitch": 29,
                "velocity": 80,
                "duration": 0.10000000000000142,
                "tempo": 120.0
            },
            {
                "start_time": 61.81590909090909,
                "end_time": 61.91590909090909,
                "pitch": 29,
                "velocity": 80,
                "duration": 0.10000000000000142,
                "tempo": 120.0
            },
            {
                "start_time": 61.934090909090905,
                "end_time": 62.03181818181818,
                "pitch": 29,
                "velocity": 80,
                "duration": 0.09772727272727622,
                "tempo": 120.0
            },
            {
                "start_time": 62.06818181818181,
                "end_time": 62.16590909090909,
                "pitch": 28,
                "velocity": 80,
                "duration": 0.09772727272727622,
                "tempo": 120.0
            },
            {
                "start_time": 62.184090909090905,
                "end_time": 62.28409090909091,
                "pitch": 28,
                "velocity": 80,
                "duration": 0.10000000000000142,
                "tempo": 120.0
            },
            {
                "start_time": 62.3,
                "end_time": 62.4,
                "pitch": 28,
                "velocity": 80,
                "duration": 0.10000000000000142,
                "tempo": 120.0
            },
            {
                "start_time": 62.434090909090905,
                "end_time": 62.53181818181818,
                "pitch": 28,
                "velocity": 80,
                "duration": 0.09772727272727622,
                "tempo": 120.0
            },
            {
                "start_time": 62.54772727272727,
                "end_time": 62.64545454545454,
                "pitch": 28,
                "velocity": 80,
                "duration": 0.09772727272726911,
                "tempo": 120.0
            },
            {
                "start_time": 62.663636363636364,
                "end_time": 62.75909090909091,
                "pitch": 28,
                "velocity": 80,
                "duration": 0.0954545454545439,
                "tempo": 120.0
            },
            {
                "start_time": 62.777272727272724,
                "end_time": 62.87045454545454,
                "pitch": 28,
                "velocity": 80,
                "duration": 0.0931818181818187,
                "tempo": 120.0
            },
            {
                "start_time": 62.902272727272724,
                "end_time": 62.99772727272727,
                "pitch": 28,
                "velocity": 80,
                "duration": 0.0954545454545439,
                "tempo": 120.0
            },
            {
                "start_time": 63.01363636363636,
                "end_time": 63.10909090909091,
                "pitch": 28,
                "velocity": 80,
                "duration": 0.09545454545455101,
                "tempo": 120.0
            },
            {
                "start_time": 63.125,
                "end_time": 63.224999999999994,
                "pitch": 28,
                "velocity": 80,
                "duration": 0.09999999999999432,
                "tempo": 120.0
            },
            {
                "start_time": 63.240909090909085,
                "end_time": 63.35681818181818,
                "pitch": 28,
                "velocity": 80,
                "duration": 0.11590909090909207,
                "tempo": 120.0
            },
            {
                "start_time": 63.375,
                "end_time": 63.474999999999994,
                "pitch": 28,
                "velocity": 80,
                "duration": 0.09999999999999432,
                "tempo": 120.0
            },
            {
                "start_time": 63.49318181818182,
                "end_time": 63.590909090909086,
                "pitch": 27,
                "velocity": 80,
                "duration": 0.09772727272726911,
                "tempo": 120.0
            },
            {
                "start_time": 63.60909090909091,
                "end_time": 63.709090909090904,
                "pitch": 27,
                "velocity": 80,
                "duration": 0.09999999999999432,
                "tempo": 120.0
            },
            {
                "start_time": 63.74318181818182,
                "end_time": 63.840909090909086,
                "pitch": 27,
                "velocity": 80,
                "duration": 0.09772727272726911,
                "tempo": 120.0
            },
            {
                "start_time": 63.85909090909091,
                "end_time": 63.959090909090904,
                "pitch": 27,
                "velocity": 80,
                "duration": 0.09999999999999432,
                "tempo": 120.0
            },
            {
                "start_time": 63.97727272727273,
                "end_time": 64.075,
                "pitch": 27,
                "velocity": 80,
                "duration": 0.09772727272727622,
                "tempo": 120.0
            },
            {
                "start_time": 64.09318181818182,
                "end_time": 64.2090909090909,
                "pitch": 27,
                "velocity": 80,
                "duration": 0.11590909090908497,
                "tempo": 120.0
            },
            {
                "start_time": 64.22727272727272,
                "end_time": 64.325,
                "pitch": 27,
                "velocity": 80,
                "duration": 0.09772727272728332,
                "tempo": 120.0
            },
            {
                "start_time": 64.3409090909091,
                "end_time": 64.43863636363636,
                "pitch": 27,
                "velocity": 80,
                "duration": 0.09772727272726911,
                "tempo": 120.0
            },
            {
                "start_time": 64.45454545454545,
                "end_time": 64.55227272727272,
                "pitch": 27,
                "velocity": 80,
                "duration": 0.09772727272726911,
                "tempo": 120.0
            },
            {
                "start_time": 64.58636363636363,
                "end_time": 64.68409090909091,
                "pitch": 27,
                "velocity": 80,
                "duration": 0.09772727272728332,
                "tempo": 120.0
            },
            {
                "start_time": 64.70227272727273,
                "end_time": 64.80227272727272,
                "pitch": 27,
                "velocity": 80,
                "duration": 0.09999999999999432,
                "tempo": 120.0
            },
            {
                "start_time": 64.82045454545454,
                "end_time": 64.91818181818182,
                "pitch": 27,
                "velocity": 80,
                "duration": 0.09772727272728332,
                "tempo": 120.0
            },
            {
                "start_time": 64.93863636363636,
                "end_time": 65.06363636363636,
                "pitch": 31,
                "velocity": 80,
                "duration": 0.125,
                "tempo": 120.0
            }
        ],
        "Clarinet": [
            {
                "start_time": 7.368181818181818,
                "end_time": 8.836363636363636,
                "pitch": 79,
                "velocity": 64,
                "duration": 1.4681818181818178,
                "tempo": 120.0
            },
            {
                "start_time": 8.836363636363636,
                "end_time": 9.004545454545454,
                "pitch": 78,
                "velocity": 64,
                "duration": 0.168181818181818,
                "tempo": 120.0
            },
            {
                "start_time": 9.004545454545454,
                "end_time": 9.188636363636363,
                "pitch": 75,
                "velocity": 64,
                "duration": 0.18409090909090864,
                "tempo": 120.0
            },
            {
                "start_time": 9.188636363636363,
                "end_time": 9.25,
                "pitch": 72,
                "velocity": 64,
                "duration": 0.0613636363636374,
                "tempo": 120.0
            },
            {
                "start_time": 9.25,
                "end_time": 9.361363636363636,
                "pitch": 71,
                "velocity": 64,
                "duration": 0.11136363636363633,
                "tempo": 120.0
            },
            {
                "start_time": 9.361363636363636,
                "end_time": 11.877272727272727,
                "pitch": 69,
                "velocity": 64,
                "duration": 2.5159090909090907,
                "tempo": 120.0
            },
            {
                "start_time": 11.877272727272727,
                "end_time": 11.943181818181818,
                "pitch": 71,
                "velocity": 64,
                "duration": 0.06590909090909136,
                "tempo": 120.0
            },
            {
                "start_time": 11.943181818181818,
                "end_time": 12.056818181818182,
                "pitch": 72,
                "velocity": 64,
                "duration": 0.11363636363636331,
                "tempo": 120.0
            },
            {
                "start_time": 12.056818181818182,
                "end_time": 12.172727272727272,
                "pitch": 74,
                "velocity": 64,
                "duration": 0.1159090909090903,
                "tempo": 120.0
            },
            {
                "start_time": 11.943181818181818,
                "end_time": 12.35681818181818,
                "pitch": 76,
                "velocity": 64,
                "duration": 0.41363636363636225,
                "tempo": 120.0
            },
            {
                "start_time": 12.172727272727272,
                "end_time": 12.35681818181818,
                "pitch": 76,
                "velocity": 64,
                "duration": 0.18409090909090864,
                "tempo": 120.0
            },
            {
                "start_time": 12.35681818181818,
                "end_time": 13.125,
                "pitch": 79,
                "velocity": 64,
                "duration": 0.7681818181818194,
                "tempo": 120.0
            }
        ]
    }
}