{
    "track_id": "25 Water Pipe",
    "mood": "angry",
    "instruments": {
        "Electric Piano 1": [
            {
                "start_time": 30.134090909090908,
                "end_time": 30.23181818181818,
                "pitch": 91,
                "velocity": 51,
                "duration": 0.09772727272727266,
                "tempo": 120.0
            },
            {
                "start_time": 30.23181818181818,
                "end_time": 30.329545454545453,
                "pitch": 91,
                "velocity": 51,
                "duration": 0.09772727272727266,
                "tempo": 120.0
            },
            {
                "start_time": 30.331818181818182,
                "end_time": 30.429545454545455,
                "pitch": 88,
                "velocity": 51,
                "duration": 0.09772727272727266,
                "tempo": 120.0
            },
            {
                "start_time": 30.43181818181818,
                "end_time": 30.529545454545453,
                "pitch": 84,
                "velocity": 51,
                "duration": 0.09772727272727266,
                "tempo": 120.0
            },
            {
                "start_time": 30.53181818181818,
                "end_time": 30.629545454545454,
                "pitch": 81,
                "velocity": 51,
                "duration": 0.09772727272727266,
                "tempo": 120.0
            },
            {
                "start_time": 30.63181818181818,
                "end_time": 30.73181818181818,
                "pitch": 77,
                "velocity": 51,
                "duration": 0.10000000000000142,
                "tempo": 120.0
            },
            {
                "start_time": 30.73181818181818,
                "end_time": 30.834090909090907,
                "pitch": 76,
                "velocity": 51,
                "duration": 0.10227272727272663,
                "tempo": 120.0
            },
            {
                "start_time": 30.834090909090907,
                "end_time": 30.936363636363634,
                "pitch": 72,
                "velocity": 51,
                "duration": 0.10227272727272663,
                "tempo": 120.0
            },
            {
                "start_time": 30.936363636363634,
                "end_time": 31.03863636363636,
                "pitch": 69,
                "velocity": 51,
                "duration": 0.10227272727272663,
                "tempo": 120.0
            },
            {
                "start_time": 31.03863636363636,
                "end_time": 31.143181818181816,
                "pitch": 67,
                "velocity": 51,
                "duration": 0.10454545454545539,
                "tempo": 120.0
            },
            {
                "start_time": 31.143181818181816,
                "end_time": 31.193181818181817,
                "pitch": 67,
                "velocity": 51,
                "duration": 0.05000000000000071,
                "tempo": 120.0
            },
            {
                "start_time": 31.193181818181817,
                "end_time": 31.243181818181817,
                "pitch": 69,
                "velocity": 51,
                "duration": 0.05000000000000071,
                "tempo": 120.0
            },
            {
                "start_time": 31.243181818181817,
                "end_time": 31.293181818181818,
                "pitch": 72,
                "velocity": 51,
                "duration": 0.05000000000000071,
                "tempo": 120.0
            },
            {
                "start_time": 31.293181818181818,
                "end_time": 31.343181818181815,
                "pitch": 76,
                "velocity": 51,
                "duration": 0.04999999999999716,
                "tempo": 120.0
            },
            {
                "start_time": 31.343181818181815,
                "end_time": 31.393181818181816,
                "pitch": 77,
                "velocity": 51,
                "duration": 0.05000000000000071,
                "tempo": 120.0
            },
            {
                "start_time": 31.393181818181816,
                "end_time": 31.443181818181817,
                "pitch": 81,
                "velocity": 51,
                "duration": 0.05000000000000071,
                "tempo": 120.0
            },
            {
                "start_time": 31.443181818181817,
                "end_time": 31.493181818181817,
                "pitch": 84,
                "velocity": 51,
                "duration": 0.05000000000000071,
                "tempo": 120.0
            },
            {
                "start_time": 31.493181818181817,
                "end_time": 31.543181818181818,
                "pitch": 88,
                "velocity": 51,
                "duration": 0.05000000000000071,
                "tempo": 120.0
            },
            {
                "start_time": 31.543181818181818,
                "end_time": 31.593181818181815,
                "pitch": 90,
                "velocity": 51,
                "duration": 0.04999999999999716,
                "tempo": 120.0
            },
            {
                "start_time": 31.593181818181815,
                "end_time": 31.643181818181816,
                "pitch": 93,
                "velocity": 51,
                "duration": 0.05000000000000071,
                "tempo": 120.0
            },
            {
                "start_time": 31.745454545454542,
                "end_time": 31.945454545454545,
                "pitch": 79,
                "velocity": 51,
                "duration": 0.20000000000000284,
                "tempo": 120.0
            },
            {
                "start_time": 31.945454545454545,
                "end_time": 32.14545454545454,
                "pitch": 86,
                "velocity": 51,
                "duration": 0.19999999999999574,
                "tempo": 120.0
            },
            {
                "start_time": 32.14772727272727,
                "end_time": 32.34772727272727,
                "pitch": 79,
                "velocity": 51,
                "duration": 0.19999999999999574,
                "tempo": 120.0
            },
            {
                "start_time": 32.34772727272727,
                "end_time": 32.54772727272727,
                "pitch": 82,
                "velocity": 51,
                "duration": 0.20000000000000284,
                "tempo": 120.0
            },
            {
                "start_time": 32.54772727272727,
                "end_time": 32.74772727272727,
                "pitch": 79,
                "velocity": 51,
                "duration": 0.19999999999999574,
                "tempo": 120.0
            },
            {
                "start_time": 32.74772727272727,
                "end_time": 32.94772727272727,
                "pitch": 84,
                "velocity": 51,
                "duration": 0.20000000000000284,
                "tempo": 120.0
            },
            {
                "start_time": 32.949999999999996,
                "end_time": 33.15,
                "pitch": 79,
                "velocity": 51,
                "duration": 0.20000000000000284,
                "tempo": 120.0
            },
            {
                "start_time": 33.35,
                "end_time": 33.55,
                "pitch": 79,
                "velocity": 51,
                "duration": 0.19999999999999574,
                "tempo": 120.0
            },
            {
                "start_time": 33.55227272727272,
                "end_time": 33.75,
                "pitch": 86,
                "velocity": 51,
                "duration": 0.19772727272727764,
                "tempo": 120.0
            },
            {
                "start_time": 33.752272727272725,
                "end_time": 33.95227272727273,
                "pitch": 79,
                "velocity": 51,
                "duration": 0.20000000000000284,
                "tempo": 120.0
            },
            {
                "start_time": 33.95227272727273,
                "end_time": 34.152272727272724,
                "pitch": 82,
                "velocity": 51,
                "duration": 0.19999999999999574,
                "tempo": 120.0
            },
            {
                "start_time": 34.152272727272724,
                "end_time": 34.35227272727273,
                "pitch": 79,
                "velocity": 51,
                "duration": 0.20000000000000284,
                "tempo": 120.0
            },
            {
                "start_time": 34.35227272727273,
                "end_time": 34.55227272727272,
                "pitch": 84,
                "velocity": 51,
                "duration": 0.19999999999999574,
                "tempo": 120.0
            },
            {
                "start_time": 34.55227272727272,
                "end_time": 34.752272727272725,
                "pitch": 79,
                "velocity": 51,
                "duration": 0.20000000000000284,
                "tempo": 120.0
            },
            {
                "start_time": 34.752272727272725,
                "end_time": 34.95454545454545,
                "pitch": 86,
                "velocity": 51,
                "duration": 0.20227272727272805,
                "tempo": 120.0
            },
            {
                "start_time": 34.95454545454545,
                "end_time": 35.154545454545456,
                "pitch": 79,
                "velocity": 51,
                "duration": 0.20000000000000284,
                "tempo": 120.0
            },
            {
                "start_time": 35.15681818181818,
                "end_time": 35.35681818181818,
                "pitch": 84,
                "velocity": 51,
                "duration": 0.19999999999999574,
                "tempo": 120.0
            },
            {
                "start_time": 35.35681818181818,
                "end_time": 35.55681818181818,
                "pitch": 79,
                "velocity": 51,
                "duration": 0.20000000000000284,
                "tempo": 120.0
            },
            {
                "start_time": 35.55681818181818,
                "end_time": 35.75681818181818,
                "pitch": 82,
                "velocity": 51,
                "duration": 0.20000000000000284,
                "tempo": 120.0
            },
            {
                "start_time": 35.75681818181818,
                "end_time": 35.95681818181818,
                "pitch": 79,
                "velocity": 51,
                "duration": 0.19999999999999574,
                "tempo": 120.0
            },
            {
                "start_time": 35.95681818181818,
                "end_time": 36.15681818181818,
                "pitch": 84,
                "velocity": 51,
                "duration": 0.20000000000000284,
                "tempo": 120.0
            },
            {
                "start_time": 36.15681818181818,
                "end_time": 36.35681818181818,
                "pitch": 79,
                "velocity": 51,
                "duration": 0.19999999999999574,
                "tempo": 120.0
            },
            {
                "start_time": 36.55681818181818,
                "end_time": 36.75681818181818,
                "pitch": 79,
                "velocity": 51,
                "duration": 0.20000000000000284,
                "tempo": 120.0
            },
            {
                "start_time": 36.75909090909091,
                "end_time": 36.95909090909091,
                "pitch": 82,
                "velocity": 51,
                "duration": 0.20000000000000284,
                "tempo": 120.0
            },
            {
                "start_time": 36.95909090909091,
                "end_time": 37.16136363636363,
                "pitch": 79,
                "velocity": 51,
                "duration": 0.20227272727272094,
                "tempo": 120.0
            },
            {
                "start_time": 37.16136363636363,
                "end_time": 37.361363636363635,
                "pitch": 84,
                "velocity": 51,
                "duration": 0.20000000000000284,
                "tempo": 120.0
            },
            {
                "start_time": 37.361363636363635,
                "end_time": 37.56136363636364,
                "pitch": 79,
                "velocity": 51,
                "duration": 0.20000000000000284,
                "tempo": 120.0
            },
            {
                "start_time": 37.56136363636364,
                "end_time": 37.76136363636363,
                "pitch": 86,
                "velocity": 51,
                "duration": 0.19999999999999574,
                "tempo": 120.0
            },
            {
                "start_time": 37.76136363636363,
                "end_time": 37.961363636363636,
                "pitch": 79,
                "velocity": 51,
                "duration": 0.20000000000000284,
                "tempo": 120.0
            },
            {
                "start_time": 37.96363636363636,
                "end_time": 38.168181818181814,
                "pitch": 88,
                "velocity": 51,
                "duration": 0.20454545454545325,
                "tempo": 120.0
            },
            {
                "start_time": 38.168181818181814,
                "end_time": 38.37272727272727,
                "pitch": 81,
                "velocity": 51,
                "duration": 0.20454545454545325,
                "tempo": 120.0
            },
            {
                "start_time": 38.37272727272727,
                "end_time": 38.574999999999996,
                "pitch": 86,
                "velocity": 51,
                "duration": 0.20227272727272805,
                "tempo": 120.0
            },
            {
                "start_time": 38.574999999999996,
                "end_time": 38.777272727272724,
                "pitch": 81,
                "velocity": 51,
                "duration": 0.20227272727272805,
                "tempo": 120.0
            },
            {
                "start_time": 38.777272727272724,
                "end_time": 38.97272727272727,
                "pitch": 84,
                "velocity": 51,
                "duration": 0.19545454545454533,
                "tempo": 120.0
            },
            {
                "start_time": 38.97272727272727,
                "end_time": 39.168181818181814,
                "pitch": 81,
                "velocity": 51,
                "duration": 0.19545454545454533,
                "tempo": 120.0
            },
            {
                "start_time": 39.17045454545455,
                "end_time": 39.375,
                "pitch": 86,
                "velocity": 51,
                "duration": 0.20454545454545325,
                "tempo": 120.0
            },
            {
                "start_time": 39.375,
                "end_time": 39.58181818181818,
                "pitch": 81,
                "velocity": 51,
                "duration": 0.20681818181817846,
                "tempo": 120.0
            },
            {
                "start_time": 39.78181818181818,
                "end_time": 39.98181818181818,
                "pitch": 81,
                "velocity": 51,
                "duration": 0.19999999999999574,
                "tempo": 120.0
            },
            {
                "start_time": 39.98181818181818,
                "end_time": 40.18181818181818,
                "pitch": 88,
                "velocity": 51,
                "duration": 0.20000000000000284,
                "tempo": 120.0
            },
            {
                "start_time": 40.18181818181818,
                "end_time": 40.38181818181818,
                "pitch": 81,
                "velocity": 51,
                "duration": 0.20000000000000284,
                "tempo": 120.0
            },
            {
                "start_time": 40.38181818181818,
                "end_time": 40.584090909090904,
                "pitch": 84,
                "velocity": 51,
                "duration": 0.20227272727272094,
                "tempo": 120.0
            },
            {
                "start_time": 40.584090909090904,
                "end_time": 40.78409090909091,
                "pitch": 81,
                "velocity": 51,
                "duration": 0.20000000000000284,
                "tempo": 120.0
            },
            {
                "start_time": 40.78409090909091,
                "end_time": 40.98409090909091,
                "pitch": 86,
                "velocity": 51,
                "duration": 0.20000000000000284,
                "tempo": 120.0
            },
            {
                "start_time": 40.986363636363635,
                "end_time": 41.18636363636364,
                "pitch": 81,
                "velocity": 51,
                "duration": 0.20000000000000284,
                "tempo": 120.0
            },
            {
                "start_time": 41.18636363636364,
                "end_time": 41.38636363636363,
                "pitch": 88,
                "velocity": 51,
                "duration": 0.19999999999999574,
                "tempo": 120.0
            },
            {
                "start_time": 41.38636363636363,
                "end_time": 41.586363636363636,
                "pitch": 81,
                "velocity": 51,
                "duration": 0.20000000000000284,
                "tempo": 120.0
            },
            {
                "start_time": 41.586363636363636,
                "end_time": 41.78636363636363,
                "pitch": 86,
                "velocity": 51,
                "duration": 0.19999999999999574,
                "tempo": 120.0
            },
            {
                "start_time": 41.78636363636363,
                "end_time": 41.986363636363635,
                "pitch": 81,
                "velocity": 51,
                "duration": 0.20000000000000284,
                "tempo": 120.0
            },
            {
                "start_time": 41.986363636363635,
                "end_time": 42.18636363636364,
                "pitch": 84,
                "velocity": 51,
                "duration": 0.20000000000000284,
                "tempo": 120.0
            },
            {
                "start_time": 42.18636363636364,
                "end_time": 42.38636363636363,
                "pitch": 81,
                "velocity": 51,
                "duration": 0.19999999999999574,
                "tempo": 120.0
            },
            {
                "start_time": 42.38636363636363,
                "end_time": 42.58863636363636,
                "pitch": 86,
                "velocity": 51,
                "duration": 0.20227272727272805,
                "tempo": 120.0
            },
            {
                "start_time": 42.58863636363636,
                "end_time": 42.79090909090909,
                "pitch": 81,
                "velocity": 51,
                "duration": 0.20227272727272805,
                "tempo": 120.0
            },
            {
                "start_time": 42.99090909090909,
                "end_time": 43.19090909090909,
                "pitch": 81,
                "velocity": 40,
                "duration": 0.19999999999999574,
                "tempo": 120.0
            },
            {
                "start_time": 73.94545454545454,
                "end_time": 74.04545454545455,
                "pitch": 91,
                "velocity": 51,
                "duration": 0.10000000000000853,
                "tempo": 120.0
            },
            {
                "start_time": 74.04545454545455,
                "end_time": 74.14545454545454,
                "pitch": 91,
                "velocity": 51,
                "duration": 0.09999999999999432,
                "tempo": 120.0
            },
            {
                "start_time": 74.14545454545454,
                "end_time": 74.24545454545454,
                "pitch": 88,
                "velocity": 51,
                "duration": 0.09999999999999432,
                "tempo": 120.0
            },
            {
                "start_time": 74.24545454545454,
                "end_time": 74.34545454545454,
                "pitch": 84,
                "velocity": 51,
                "duration": 0.10000000000000853,
                "tempo": 120.0
            },
            {
                "start_time": 74.34772727272727,
                "end_time": 74.44772727272726,
                "pitch": 81,
                "velocity": 51,
                "duration": 0.09999999999999432,
                "tempo": 120.0
            },
            {
                "start_time": 74.44772727272726,
                "end_time": 74.54772727272727,
                "pitch": 77,
                "velocity": 51,
                "duration": 0.10000000000000853,
                "tempo": 120.0
            },
            {
                "start_time": 74.54772727272727,
                "end_time": 74.64772727272727,
                "pitch": 76,
                "velocity": 51,
                "duration": 0.09999999999999432,
                "tempo": 120.0
            },
            {
                "start_time": 74.64772727272727,
                "end_time": 74.74772727272727,
                "pitch": 72,
                "velocity": 51,
                "duration": 0.10000000000000853,
                "tempo": 120.0
            },
            {
                "start_time": 74.74772727272727,
                "end_time": 74.84772727272727,
                "pitch": 69,
                "velocity": 51,
                "duration": 0.09999999999999432,
                "tempo": 120.0
            },
            {
                "start_time": 74.84772727272727,
                "end_time": 74.94772727272726,
                "pitch": 67,
                "velocity": 51,
                "duration": 0.09999999999999432,
                "tempo": 120.0
            },
            {
                "start_time": 74.95,
                "end_time": 75.0,
                "pitch": 67,
                "velocity": 51,
                "duration": 0.04999999999999716,
                "tempo": 120.0
            },
            {
                "start_time": 75.0,
                "end_time": 75.05,
                "pitch": 69,
                "velocity": 51,
                "duration": 0.04999999999999716,
                "tempo": 120.0
            },
            {
                "start_time": 75.05,
                "end_time": 75.1,
                "pitch": 72,
                "velocity": 51,
                "duration": 0.04999999999999716,
                "tempo": 120.0
            },
            {
                "start_time": 75.1,
                "end_time": 75.14999999999999,
                "pitch": 76,
                "velocity": 51,
                "duration": 0.04999999999999716,
                "tempo": 120.0
            },
            {
                "start_time": 75.14999999999999,
                "end_time": 75.2,
                "pitch": 77,
                "velocity": 51,
                "duration": 0.05000000000001137,
                "tempo": 120.0
            },
            {
                "start_time": 75.2,
                "end_time": 75.25,
                "pitch": 81,
                "velocity": 51,
                "duration": 0.04999999999999716,
                "tempo": 120.0
            },
            {
                "start_time": 75.25227272727273,
                "end_time": 75.30227272727272,
                "pitch": 84,
                "velocity": 51,
                "duration": 0.04999999999999716,
                "tempo": 120.0
            },
            {
                "start_time": 75.30227272727272,
                "end_time": 75.35227272727272,
                "pitch": 88,
                "velocity": 51,
                "duration": 0.04999999999999716,
                "tempo": 120.0
            },
            {
                "start_time": 75.35227272727272,
                "end_time": 75.40227272727272,
                "pitch": 90,
                "velocity": 51,
                "duration": 0.04999999999999716,
                "tempo": 120.0
            },
            {
                "start_time": 75.40227272727272,
                "end_time": 75.45227272727273,
                "pitch": 93,
                "velocity": 51,
                "duration": 0.05000000000001137,
                "tempo": 120.0
            }
        ],
        "Violin": [
            {
                "start_time": 0.5522727272727272,
                "end_time": 0.6840909090909091,
                "pitch": 33,
                "velocity": 101,
                "duration": 0.13181818181818183,
                "tempo": 120.0
            },
            {
                "start_time": 0.7545454545454545,
                "end_time": 0.8886363636363636,
                "pitch": 33,
                "velocity": 51,
                "duration": 0.13409090909090904,
                "tempo": 120.0
            },
            {
                "start_time": 0.9613636363636363,
                "end_time": 1.0954545454545455,
                "pitch": 33,
                "velocity": 32,
                "duration": 0.13409090909090915,
                "tempo": 120.0
            },
            {
                "start_time": 1.1659090909090908,
                "end_time": 1.3,
                "pitch": 33,
                "velocity": 101,
                "duration": 0.13409090909090926,
                "tempo": 120.0
            },
            {
                "start_time": 1.3727272727272726,
                "end_time": 1.5045454545454544,
                "pitch": 33,
                "velocity": 51,
                "duration": 0.13181818181818183,
                "tempo": 120.0
            },
            {
                "start_time": 1.5727272727272728,
                "end_time": 1.7045454545454544,
                "pitch": 33,
                "velocity": 32,
                "duration": 0.1318181818181816,
                "tempo": 120.0
            },
            {
                "start_time": 1.775,
                "end_time": 1.9068181818181817,
                "pitch": 33,
                "velocity": 32,
                "duration": 0.13181818181818183,
                "tempo": 120.0
            },
            {
                "start_time": 1.9749999999999999,
                "end_time": 2.106818181818182,
                "pitch": 33,
                "velocity": 101,
                "duration": 0.13181818181818206,
                "tempo": 120.0
            },
            {
                "start_time": 2.175,
                "end_time": 2.3068181818181817,
                "pitch": 33,
                "velocity": 51,
                "duration": 0.13181818181818183,
                "tempo": 120.0
            },
            {
                "start_time": 2.375,
                "end_time": 2.506818181818182,
                "pitch": 33,
                "velocity": 32,
                "duration": 0.13181818181818183,
                "tempo": 120.0
            },
            {
                "start_time": 2.577272727272727,
                "end_time": 2.977272727272727,
                "pitch": 33,
                "velocity": 101,
                "duration": 0.3999999999999999,
                "tempo": 120.0
            },
            {
                "start_time": 2.977272727272727,
                "end_time": 3.077272727272727,
                "pitch": 33,
                "velocity": 101,
                "duration": 0.10000000000000009,
                "tempo": 120.0
            },
            {
                "start_time": 3.077272727272727,
                "end_time": 3.1772727272727272,
                "pitch": 33,
                "velocity": 51,
                "duration": 0.10000000000000009,
                "tempo": 120.0
            },
            {
                "start_time": 3.1795454545454542,
                "end_time": 3.5795454545454546,
                "pitch": 34,
                "velocity": 101,
                "duration": 0.40000000000000036,
                "tempo": 120.0
            },
            {
                "start_time": 3.5818181818181816,
                "end_time": 3.711363636363636,
                "pitch": 33,
                "velocity": 101,
                "duration": 0.1295454545454544,
                "tempo": 120.0
            },
            {
                "start_time": 3.7795454545454543,
                "end_time": 3.911363636363636,
                "pitch": 33,
                "velocity": 51,
                "duration": 0.13181818181818183,
                "tempo": 120.0
            },
            {
                "start_time": 3.9795454545454545,
                "end_time": 4.111363636363636,
                "pitch": 33,
                "velocity": 32,
                "duration": 0.13181818181818183,
                "tempo": 120.0
            },
            {
                "start_time": 4.181818181818182,
                "end_time": 4.3159090909090905,
                "pitch": 33,
                "velocity": 101,
                "duration": 0.13409090909090882,
                "tempo": 120.0
            },
            {
                "start_time": 4.386363636363636,
                "end_time": 4.5204545454545455,
                "pitch": 33,
                "velocity": 51,
                "duration": 0.1340909090909097,
                "tempo": 120.0
            },
            {
                "start_time": 4.590909090909091,
                "end_time": 4.720454545454545,
                "pitch": 33,
                "velocity": 32,
                "duration": 0.12954545454545396,
                "tempo": 120.0
            },
            {
                "start_time": 4.788636363636363,
                "end_time": 4.915909090909091,
                "pitch": 33,
                "velocity": 32,
                "duration": 0.12727272727272787,
                "tempo": 120.0
            },
            {
                "start_time": 4.9840909090909085,
                "end_time": 5.122727272727272,
                "pitch": 33,
                "velocity": 101,
                "duration": 0.13863636363636367,
                "tempo": 120.0
            },
            {
                "start_time": 5.195454545454545,
                "end_time": 5.334090909090909,
                "pitch": 33,
                "velocity": 51,
                "duration": 0.13863636363636367,
                "tempo": 120.0
            },
            {
                "start_time": 5.406818181818181,
                "end_time": 5.536363636363636,
                "pitch": 33,
                "velocity": 32,
                "duration": 0.12954545454545485,
                "tempo": 120.0
            },
            {
                "start_time": 5.6045454545454545,
                "end_time": 5.995454545454545,
                "pitch": 33,
                "velocity": 101,
                "duration": 0.39090909090909065,
                "tempo": 120.0
            },
            {
                "start_time": 5.995454545454545,
                "end_time": 6.093181818181818,
                "pitch": 33,
                "velocity": 101,
                "duration": 0.09772727272727266,
                "tempo": 120.0
            },
            {
                "start_time": 6.093181818181818,
                "end_time": 6.1931818181818175,
                "pitch": 33,
                "velocity": 51,
                "duration": 0.09999999999999964,
                "tempo": 120.0
            },
            {
                "start_time": 6.1931818181818175,
                "end_time": 6.595454545454545,
                "pitch": 34,
                "velocity": 101,
                "duration": 0.40227272727272734,
                "tempo": 120.0
            },
            {
                "start_time": 6.597727272727273,
                "end_time": 6.727272727272727,
                "pitch": 35,
                "velocity": 101,
                "duration": 0.12954545454545396,
                "tempo": 120.0
            },
            {
                "start_time": 6.795454545454545,
                "end_time": 6.927272727272727,
                "pitch": 35,
                "velocity": 51,
                "duration": 0.13181818181818183,
                "tempo": 120.0
            },
            {
                "start_time": 6.995454545454545,
                "end_time": 7.127272727272727,
                "pitch": 35,
                "velocity": 32,
                "duration": 0.13181818181818183,
                "tempo": 120.0
            },
            {
                "start_time": 7.197727272727272,
                "end_time": 7.329545454545454,
                "pitch": 35,
                "velocity": 101,
                "duration": 0.13181818181818183,
                "tempo": 120.0
            },
            {
                "start_time": 7.3999999999999995,
                "end_time": 7.534090909090908,
                "pitch": 35,
                "velocity": 51,
                "duration": 0.13409090909090882,
                "tempo": 120.0
            },
            {
                "start_time": 7.6045454545454545,
                "end_time": 7.738636363636363,
                "pitch": 35,
                "velocity": 32,
                "duration": 0.13409090909090882,
                "tempo": 120.0
            },
            {
                "start_time": 7.811363636363636,
                "end_time": 7.9409090909090905,
                "pitch": 35,
                "velocity": 32,
                "duration": 0.12954545454545485,
                "tempo": 120.0
            },
            {
                "start_time": 8.011363636363637,
                "end_time": 8.143181818181818,
                "pitch": 35,
                "velocity": 101,
                "duration": 0.13181818181818095,
                "tempo": 120.0
            },
            {
                "start_time": 8.211363636363636,
                "end_time": 8.343181818181817,
                "pitch": 35,
                "velocity": 51,
                "duration": 0.13181818181818095,
                "tempo": 120.0
            },
            {
                "start_time": 8.413636363636364,
                "end_time": 8.545454545454545,
                "pitch": 35,
                "velocity": 32,
                "duration": 0.13181818181818095,
                "tempo": 120.0
            },
            {
                "start_time": 8.61590909090909,
                "end_time": 9.018181818181818,
                "pitch": 35,
                "velocity": 101,
                "duration": 0.40227272727272734,
                "tempo": 120.0
            },
            {
                "start_time": 9.018181818181818,
                "end_time": 9.118181818181817,
                "pitch": 35,
                "velocity": 101,
                "duration": 0.09999999999999964,
                "tempo": 120.0
            },
            {
                "start_time": 9.118181818181817,
                "end_time": 9.220454545454546,
                "pitch": 35,
                "velocity": 51,
                "duration": 0.1022727272727284,
                "tempo": 120.0
            },
            {
                "start_time": 9.220454545454546,
                "end_time": 9.618181818181817,
                "pitch": 36,
                "velocity": 101,
                "duration": 0.3977272727272716,
                "tempo": 120.0
            },
            {
                "start_time": 9.618181818181817,
                "end_time": 9.745454545454544,
                "pitch": 35,
                "velocity": 101,
                "duration": 0.12727272727272698,
                "tempo": 120.0
            },
            {
                "start_time": 9.813636363636363,
                "end_time": 9.947727272727272,
                "pitch": 35,
                "velocity": 51,
                "duration": 0.1340909090909097,
                "tempo": 120.0
            },
            {
                "start_time": 10.018181818181818,
                "end_time": 10.154545454545454,
                "pitch": 35,
                "velocity": 32,
                "duration": 0.1363636363636367,
                "tempo": 120.0
            },
            {
                "start_time": 10.225,
                "end_time": 10.35909090909091,
                "pitch": 35,
                "velocity": 101,
                "duration": 0.1340909090909097,
                "tempo": 120.0
            },
            {
                "start_time": 10.429545454545455,
                "end_time": 10.56590909090909,
                "pitch": 35,
                "velocity": 51,
                "duration": 0.1363636363636349,
                "tempo": 120.0
            },
            {
                "start_time": 10.636363636363637,
                "end_time": 10.76590909090909,
                "pitch": 35,
                "velocity": 32,
                "duration": 0.12954545454545396,
                "tempo": 120.0
            },
            {
                "start_time": 10.831818181818182,
                "end_time": 10.961363636363636,
                "pitch": 35,
                "velocity": 32,
                "duration": 0.12954545454545396,
                "tempo": 120.0
            },
            {
                "start_time": 11.029545454545454,
                "end_time": 11.163636363636362,
                "pitch": 35,
                "velocity": 101,
                "duration": 0.13409090909090793,
                "tempo": 120.0
            },
            {
                "start_time": 11.23409090909091,
                "end_time": 11.368181818181817,
                "pitch": 35,
                "velocity": 51,
                "duration": 0.13409090909090793,
                "tempo": 120.0
            },
            {
                "start_time": 11.44090909090909,
                "end_time": 11.568181818181818,
                "pitch": 35,
                "velocity": 32,
                "duration": 0.12727272727272876,
                "tempo": 120.0
            },
            {
                "start_time": 11.636363636363637,
                "end_time": 12.034090909090908,
                "pitch": 35,
                "velocity": 101,
                "duration": 0.3977272727272716,
                "tempo": 120.0
            },
            {
                "start_time": 12.034090909090908,
                "end_time": 12.134090909090908,
                "pitch": 35,
                "velocity": 101,
                "duration": 0.09999999999999964,
                "tempo": 120.0
            },
            {
                "start_time": 12.134090909090908,
                "end_time": 12.236363636363636,
                "pitch": 35,
                "velocity": 51,
                "duration": 0.1022727272727284,
                "tempo": 120.0
            },
            {
                "start_time": 12.236363636363636,
                "end_time": 12.647727272727272,
                "pitch": 36,
                "velocity": 101,
                "duration": 0.41136363636363527,
                "tempo": 120.0
            },
            {
                "start_time": 12.647727272727272,
                "end_time": 12.774999999999999,
                "pitch": 37,
                "velocity": 101,
                "duration": 0.12727272727272698,
                "tempo": 120.0
            },
            {
                "start_time": 12.843181818181817,
                "end_time": 12.972727272727273,
                "pitch": 37,
                "velocity": 51,
                "duration": 0.12954545454545574,
                "tempo": 120.0
            },
            {
                "start_time": 13.038636363636362,
                "end_time": 13.172727272727272,
                "pitch": 37,
                "velocity": 32,
                "duration": 0.1340909090909097,
                "tempo": 120.0
            },
            {
                "start_time": 13.24090909090909,
                "end_time": 13.372727272727271,
                "pitch": 37,
                "velocity": 101,
                "duration": 0.13181818181818095,
                "tempo": 120.0
            },
            {
                "start_time": 13.443181818181818,
                "end_time": 13.575,
                "pitch": 37,
                "velocity": 51,
                "duration": 0.13181818181818095,
                "tempo": 120.0
            },
            {
                "start_time": 13.643181818181818,
                "end_time": 13.774999999999999,
                "pitch": 37,
                "velocity": 32,
                "duration": 0.13181818181818095,
                "tempo": 120.0
            },
            {
                "start_time": 13.843181818181817,
                "end_time": 13.975,
                "pitch": 37,
                "velocity": 32,
                "duration": 0.13181818181818272,
                "tempo": 120.0
            },
            {
                "start_time": 14.045454545454545,
                "end_time": 14.177272727272726,
                "pitch": 37,
                "velocity": 101,
                "duration": 0.13181818181818095,
                "tempo": 120.0
            },
            {
                "start_time": 14.247727272727271,
                "end_time": 14.381818181818181,
                "pitch": 37,
                "velocity": 51,
                "duration": 0.1340909090909097,
                "tempo": 120.0
            },
            {
                "start_time": 14.452272727272726,
                "end_time": 14.586363636363636,
                "pitch": 37,
                "velocity": 32,
                "duration": 0.1340909090909097,
                "tempo": 120.0
            },
            {
                "start_time": 14.659090909090908,
                "end_time": 15.049999999999999,
                "pitch": 37,
                "velocity": 101,
                "duration": 0.39090909090909065,
                "tempo": 120.0
            },
            {
                "start_time": 15.049999999999999,
                "end_time": 15.152272727272727,
                "pitch": 37,
                "velocity": 101,
                "duration": 0.1022727272727284,
                "tempo": 120.0
            },
            {
                "start_time": 15.152272727272727,
                "end_time": 15.256818181818181,
                "pitch": 37,
                "velocity": 51,
                "duration": 0.10454545454545361,
                "tempo": 120.0
            },
            {
                "start_time": 15.256818181818181,
                "end_time": 15.663636363636362,
                "pitch": 38,
                "velocity": 101,
                "duration": 0.4068181818181813,
                "tempo": 120.0
            },
            {
                "start_time": 15.663636363636362,
                "end_time": 15.793181818181818,
                "pitch": 37,
                "velocity": 101,
                "duration": 0.12954545454545574,
                "tempo": 120.0
            },
            {
                "start_time": 15.861363636363636,
                "end_time": 15.995454545454544,
                "pitch": 37,
                "velocity": 51,
                "duration": 0.13409090909090793,
                "tempo": 120.0
            },
            {
                "start_time": 16.063636363636363,
                "end_time": 16.195454545454545,
                "pitch": 37,
                "velocity": 32,
                "duration": 0.13181818181818272,
                "tempo": 120.0
            },
            {
                "start_time": 16.26590909090909,
                "end_time": 16.397727272727273,
                "pitch": 37,
                "velocity": 101,
                "duration": 0.13181818181818272,
                "tempo": 120.0
            },
            {
                "start_time": 16.46818181818182,
                "end_time": 16.599999999999998,
                "pitch": 37,
                "velocity": 51,
                "duration": 0.13181818181817917,
                "tempo": 120.0
            },
            {
                "start_time": 16.668181818181818,
                "end_time": 16.8,
                "pitch": 37,
                "velocity": 32,
                "duration": 0.13181818181818272,
                "tempo": 120.0
            },
            {
                "start_time": 16.868181818181817,
                "end_time": 17.0,
                "pitch": 37,
                "velocity": 32,
                "duration": 0.13181818181818272,
                "tempo": 120.0
            },
            {
                "start_time": 17.068181818181817,
                "end_time": 17.204545454545453,
                "pitch": 37,
                "velocity": 101,
                "duration": 0.1363636363636367,
                "tempo": 120.0
            },
            {
                "start_time": 17.275,
                "end_time": 17.409090909090907,
                "pitch": 37,
                "velocity": 51,
                "duration": 0.13409090909090793,
                "tempo": 120.0
            },
            {
                "start_time": 17.479545454545455,
                "end_time": 17.60909090909091,
                "pitch": 37,
                "velocity": 32,
                "duration": 0.12954545454545396,
                "tempo": 120.0
            },
            {
                "start_time": 17.677272727272726,
                "end_time": 18.07272727272727,
                "pitch": 37,
                "velocity": 101,
                "duration": 0.3954545454545446,
                "tempo": 120.0
            },
            {
                "start_time": 18.07272727272727,
                "end_time": 18.172727272727272,
                "pitch": 37,
                "velocity": 101,
                "duration": 0.10000000000000142,
                "tempo": 120.0
            },
            {
                "start_time": 18.172727272727272,
                "end_time": 18.272727272727273,
                "pitch": 37,
                "velocity": 51,
                "duration": 0.10000000000000142,
                "tempo": 120.0
            },
            {
                "start_time": 18.275,
                "end_time": 18.68409090909091,
                "pitch": 37,
                "velocity": 101,
                "duration": 0.40909090909091006,
                "tempo": 120.0
            },
            {
                "start_time": 18.686363636363634,
                "end_time": 20.28181818181818,
                "pitch": 37,
                "velocity": 101,
                "duration": 1.5954545454545475,
                "tempo": 120.0
            },
            {
                "start_time": 20.28181818181818,
                "end_time": 21.888636363636362,
                "pitch": 36,
                "velocity": 101,
                "duration": 1.6068181818181806,
                "tempo": 120.0
            },
            {
                "start_time": 21.888636363636362,
                "end_time": 22.7,
                "pitch": 35,
                "velocity": 101,
                "duration": 0.8113636363636374,
                "tempo": 120.0
            },
            {
                "start_time": 22.702272727272724,
                "end_time": 24.30909090909091,
                "pitch": 30,
                "velocity": 101,
                "duration": 1.6068181818181841,
                "tempo": 120.0
            },
            {
                "start_time": 24.30909090909091,
                "end_time": 25.10909090909091,
                "pitch": 31,
                "velocity": 101,
                "duration": 0.8000000000000007,
                "tempo": 120.0
            },
            {
                "start_time": 25.111363636363635,
                "end_time": 26.718181818181815,
                "pitch": 25,
                "velocity": 101,
                "duration": 1.6068181818181806,
                "tempo": 120.0
            },
            {
                "start_time": 26.718181818181815,
                "end_time": 28.331818181818182,
                "pitch": 24,
                "velocity": 101,
                "duration": 1.6136363636363669,
                "tempo": 120.0
            },
            {
                "start_time": 28.334090909090907,
                "end_time": 29.136363636363637,
                "pitch": 23,
                "velocity": 101,
                "duration": 0.8022727272727295,
                "tempo": 120.0
            },
            {
                "start_time": 29.136363636363637,
                "end_time": 30.73409090909091,
                "pitch": 29,
                "velocity": 101,
                "duration": 1.5977272727272727,
                "tempo": 120.0
            },
            {
                "start_time": 30.73409090909091,
                "end_time": 31.545454545454543,
                "pitch": 29,
                "velocity": 101,
                "duration": 0.8113636363636338,
                "tempo": 120.0
            },
            {
                "start_time": 31.547727272727272,
                "end_time": 33.152272727272724,
                "pitch": 37,
                "velocity": 101,
                "duration": 1.6045454545454518,
                "tempo": 120.0
            },
            {
                "start_time": 33.154545454545456,
                "end_time": 34.75454545454545,
                "pitch": 36,
                "velocity": 101,
                "duration": 1.5999999999999943,
                "tempo": 120.0
            },
            {
                "start_time": 34.75681818181818,
                "end_time": 35.559090909090905,
                "pitch": 35,
                "velocity": 101,
                "duration": 0.8022727272727224,
                "tempo": 120.0
            },
            {
                "start_time": 35.559090909090905,
                "end_time": 37.163636363636364,
                "pitch": 30,
                "velocity": 101,
                "duration": 1.604545454545459,
                "tempo": 120.0
            },
            {
                "start_time": 37.163636363636364,
                "end_time": 37.965909090909086,
                "pitch": 31,
                "velocity": 101,
                "duration": 0.8022727272727224,
                "tempo": 120.0
            },
            {
                "start_time": 37.965909090909086,
                "end_time": 39.584090909090904,
                "pitch": 25,
                "velocity": 101,
                "duration": 1.6181818181818173,
                "tempo": 120.0
            },
            {
                "start_time": 39.584090909090904,
                "end_time": 41.18863636363636,
                "pitch": 24,
                "velocity": 101,
                "duration": 1.604545454545459,
                "tempo": 120.0
            },
            {
                "start_time": 41.18863636363636,
                "end_time": 41.98863636363636,
                "pitch": 23,
                "velocity": 101,
                "duration": 0.7999999999999972,
                "tempo": 120.0
            },
            {
                "start_time": 41.98863636363636,
                "end_time": 43.59318181818182,
                "pitch": 29,
                "velocity": 101,
                "duration": 1.604545454545459,
                "tempo": 120.0
            },
            {
                "start_time": 43.59318181818182,
                "end_time": 44.39772727272727,
                "pitch": 29,
                "velocity": 101,
                "duration": 0.8045454545454547,
                "tempo": 120.0
            },
            {
                "start_time": 44.39772727272727,
                "end_time": 44.52954545454545,
                "pitch": 33,
                "velocity": 101,
                "duration": 0.13181818181817562,
                "tempo": 120.0
            },
            {
                "start_time": 44.599999999999994,
                "end_time": 44.73409090909091,
                "pitch": 33,
                "velocity": 51,
                "duration": 0.13409090909091503,
                "tempo": 120.0
            },
            {
                "start_time": 44.80681818181818,
                "end_time": 44.934090909090905,
                "pitch": 33,
                "velocity": 32,
                "duration": 0.1272727272727252,
                "tempo": 120.0
            },
            {
                "start_time": 45.002272727272725,
                "end_time": 45.12954545454545,
                "pitch": 33,
                "velocity": 101,
                "duration": 0.1272727272727252,
                "tempo": 120.0
            },
            {
                "start_time": 45.19772727272727,
                "end_time": 45.32954545454545,
                "pitch": 33,
                "velocity": 51,
                "duration": 0.13181818181818272,
                "tempo": 120.0
            },
            {
                "start_time": 45.39772727272727,
                "end_time": 45.52954545454545,
                "pitch": 33,
                "velocity": 32,
                "duration": 0.13181818181817562,
                "tempo": 120.0
            },
            {
                "start_time": 45.599999999999994,
                "end_time": 45.72954545454545,
                "pitch": 33,
                "velocity": 32,
                "duration": 0.12954545454545752,
                "tempo": 120.0
            },
            {
                "start_time": 45.8,
                "end_time": 45.929545454545455,
                "pitch": 33,
                "velocity": 101,
                "duration": 0.12954545454545752,
                "tempo": 120.0
            },
            {
                "start_time": 46.0,
                "end_time": 46.13409090909091,
                "pitch": 33,
                "velocity": 51,
                "duration": 0.13409090909090793,
                "tempo": 120.0
            },
            {
                "start_time": 46.20454545454545,
                "end_time": 46.340909090909086,
                "pitch": 33,
                "velocity": 32,
                "duration": 0.13636363636363313,
                "tempo": 120.0
            },
            {
                "start_time": 46.41136363636363,
                "end_time": 46.81136363636364,
                "pitch": 33,
                "velocity": 101,
                "duration": 0.4000000000000057,
                "tempo": 120.0
            },
            {
                "start_time": 46.81136363636364,
                "end_time": 46.91136363636363,
                "pitch": 33,
                "velocity": 101,
                "duration": 0.09999999999999432,
                "tempo": 120.0
            },
            {
                "start_time": 46.91136363636363,
                "end_time": 47.01136363636363,
                "pitch": 33,
                "velocity": 51,
                "duration": 0.10000000000000142,
                "tempo": 120.0
            },
            {
                "start_time": 47.01136363636363,
                "end_time": 47.413636363636364,
                "pitch": 34,
                "velocity": 101,
                "duration": 0.4022727272727309,
                "tempo": 120.0
            },
            {
                "start_time": 47.413636363636364,
                "end_time": 47.543181818181814,
                "pitch": 33,
                "velocity": 101,
                "duration": 0.1295454545454504,
                "tempo": 120.0
            },
            {
                "start_time": 47.611363636363635,
                "end_time": 47.74318181818182,
                "pitch": 33,
                "velocity": 51,
                "duration": 0.13181818181818272,
                "tempo": 120.0
            },
            {
                "start_time": 47.81363636363636,
                "end_time": 47.94318181818181,
                "pitch": 33,
                "velocity": 32,
                "duration": 0.1295454545454504,
                "tempo": 120.0
            },
            {
                "start_time": 48.01363636363636,
                "end_time": 48.14545454545454,
                "pitch": 33,
                "velocity": 101,
                "duration": 0.13181818181818272,
                "tempo": 120.0
            },
            {
                "start_time": 48.21363636363636,
                "end_time": 48.34772727272727,
                "pitch": 33,
                "velocity": 51,
                "duration": 0.13409090909090793,
                "tempo": 120.0
            },
            {
                "start_time": 48.41590909090909,
                "end_time": 48.54772727272727,
                "pitch": 33,
                "velocity": 32,
                "duration": 0.13181818181818272,
                "tempo": 120.0
            },
            {
                "start_time": 48.61590909090909,
                "end_time": 48.74772727272727,
                "pitch": 33,
                "velocity": 32,
                "duration": 0.13181818181817562,
                "tempo": 120.0
            },
            {
                "start_time": 48.81590909090909,
                "end_time": 48.95227272727273,
                "pitch": 33,
                "velocity": 101,
                "duration": 0.13636363636364024,
                "tempo": 120.0
            },
            {
                "start_time": 49.02272727272727,
                "end_time": 49.15681818181818,
                "pitch": 33,
                "velocity": 51,
                "duration": 0.13409090909090793,
                "tempo": 120.0
            },
            {
                "start_time": 49.22727272727273,
                "end_time": 49.35681818181818,
                "pitch": 33,
                "velocity": 32,
                "duration": 0.1295454545454504,
                "tempo": 120.0
            },
            {
                "start_time": 49.425,
                "end_time": 49.820454545454545,
                "pitch": 33,
                "velocity": 101,
                "duration": 0.39545454545454817,
                "tempo": 120.0
            },
            {
                "start_time": 49.820454545454545,
                "end_time": 49.92045454545454,
                "pitch": 33,
                "velocity": 101,
                "duration": 0.09999999999999432,
                "tempo": 120.0
            },
            {
                "start_time": 49.92045454545454,
                "end_time": 50.02045454545454,
                "pitch": 33,
                "velocity": 51,
                "duration": 0.10000000000000142,
                "tempo": 120.0
            },
            {
                "start_time": 50.02272727272727,
                "end_time": 50.425,
                "pitch": 34,
                "velocity": 101,
                "duration": 0.4022727272727238,
                "tempo": 120.0
            },
            {
                "start_time": 50.425,
                "end_time": 50.554545454545455,
                "pitch": 35,
                "velocity": 101,
                "duration": 0.12954545454545752,
                "tempo": 120.0
            },
            {
                "start_time": 50.625,
                "end_time": 50.75681818181818,
                "pitch": 35,
                "velocity": 51,
                "duration": 0.13181818181818272,
                "tempo": 120.0
            },
            {
                "start_time": 50.824999999999996,
                "end_time": 50.95681818181818,
                "pitch": 35,
                "velocity": 32,
                "duration": 0.13181818181818272,
                "tempo": 120.0
            },
            {
                "start_time": 51.025,
                "end_time": 51.15681818181818,
                "pitch": 35,
                "velocity": 101,
                "duration": 0.13181818181818272,
                "tempo": 120.0
            },
            {
                "start_time": 51.224999999999994,
                "end_time": 51.35681818181818,
                "pitch": 35,
                "velocity": 51,
                "duration": 0.13181818181818272,
                "tempo": 120.0
            },
            {
                "start_time": 51.425,
                "end_time": 51.55681818181818,
                "pitch": 35,
                "velocity": 32,
                "duration": 0.13181818181818272,
                "tempo": 120.0
            },
            {
                "start_time": 51.625,
                "end_time": 51.75681818181818,
                "pitch": 35,
                "velocity": 32,
                "duration": 0.13181818181818272,
                "tempo": 120.0
            },
            {
                "start_time": 51.824999999999996,
                "end_time": 51.95681818181818,
                "pitch": 35,
                "velocity": 101,
                "duration": 0.13181818181818272,
                "tempo": 120.0
            },
            {
                "start_time": 52.027272727272724,
                "end_time": 52.15909090909091,
                "pitch": 35,
                "velocity": 51,
                "duration": 0.13181818181818272,
                "tempo": 120.0
            },
            {
                "start_time": 52.22727272727273,
                "end_time": 52.35909090909091,
                "pitch": 35,
                "velocity": 32,
                "duration": 0.13181818181818272,
                "tempo": 120.0
            },
            {
                "start_time": 52.429545454545455,
                "end_time": 52.82954545454545,
                "pitch": 35,
                "velocity": 101,
                "duration": 0.3999999999999986,
                "tempo": 120.0
            },
            {
                "start_time": 52.82954545454545,
                "end_time": 52.929545454545455,
                "pitch": 35,
                "velocity": 101,
                "duration": 0.10000000000000142,
                "tempo": 120.0
            },
            {
                "start_time": 52.929545454545455,
                "end_time": 53.02954545454545,
                "pitch": 35,
                "velocity": 51,
                "duration": 0.09999999999999432,
                "tempo": 120.0
            },
            {
                "start_time": 53.03181818181818,
                "end_time": 53.43181818181818,
                "pitch": 36,
                "velocity": 101,
                "duration": 0.3999999999999986,
                "tempo": 120.0
            },
            {
                "start_time": 53.43181818181818,
                "end_time": 53.56136363636363,
                "pitch": 35,
                "velocity": 101,
                "duration": 0.1295454545454504,
                "tempo": 120.0
            },
            {
                "start_time": 53.63181818181818,
                "end_time": 53.76590909090909,
                "pitch": 35,
                "velocity": 51,
                "duration": 0.13409090909090793,
                "tempo": 120.0
            },
            {
                "start_time": 53.836363636363636,
                "end_time": 53.970454545454544,
                "pitch": 35,
                "velocity": 32,
                "duration": 0.13409090909090793,
                "tempo": 120.0
            },
            {
                "start_time": 54.043181818181814,
                "end_time": 54.17272727272727,
                "pitch": 35,
                "velocity": 101,
                "duration": 0.12954545454545752,
                "tempo": 120.0
            },
            {
                "start_time": 54.24318181818182,
                "end_time": 54.375,
                "pitch": 35,
                "velocity": 51,
                "duration": 0.13181818181818272,
                "tempo": 120.0
            },
            {
                "start_time": 54.44318181818181,
                "end_time": 54.574999999999996,
                "pitch": 35,
                "velocity": 32,
                "duration": 0.13181818181818272,
                "tempo": 120.0
            },
            {
                "start_time": 54.643181818181816,
                "end_time": 54.775,
                "pitch": 35,
                "velocity": 32,
                "duration": 0.13181818181818272,
                "tempo": 120.0
            },
            {
                "start_time": 54.84318181818182,
                "end_time": 54.97727272727273,
                "pitch": 35,
                "velocity": 101,
                "duration": 0.13409090909090793,
                "tempo": 120.0
            },
            {
                "start_time": 55.05,
                "end_time": 55.184090909090905,
                "pitch": 35,
                "velocity": 51,
                "duration": 0.13409090909090793,
                "tempo": 120.0
            },
            {
                "start_time": 55.25454545454545,
                "end_time": 55.38409090909091,
                "pitch": 35,
                "velocity": 32,
                "duration": 0.12954545454545752,
                "tempo": 120.0
            },
            {
                "start_time": 55.45227272727273,
                "end_time": 55.84772727272727,
                "pitch": 35,
                "velocity": 101,
                "duration": 0.39545454545454106,
                "tempo": 120.0
            },
            {
                "start_time": 55.84772727272727,
                "end_time": 55.94772727272727,
                "pitch": 35,
                "velocity": 101,
                "duration": 0.10000000000000142,
                "tempo": 120.0
            },
            {
                "start_time": 55.94772727272727,
                "end_time": 56.04772727272727,
                "pitch": 35,
                "velocity": 51,
                "duration": 0.10000000000000142,
                "tempo": 120.0
            },
            {
                "start_time": 56.04772727272727,
                "end_time": 56.459090909090904,
                "pitch": 36,
                "velocity": 101,
                "duration": 0.4113636363636317,
                "tempo": 120.0
            },
            {
                "start_time": 56.461363636363636,
                "end_time": 56.58863636363636,
                "pitch": 37,
                "velocity": 101,
                "duration": 0.1272727272727252,
                "tempo": 120.0
            },
            {
                "start_time": 56.65454545454545,
                "end_time": 56.78409090909091,
                "pitch": 37,
                "velocity": 51,
                "duration": 0.12954545454545752,
                "tempo": 120.0
            },
            {
                "start_time": 56.85227272727273,
                "end_time": 56.98409090909091,
                "pitch": 37,
                "velocity": 32,
                "duration": 0.13181818181818272,
                "tempo": 120.0
            },
            {
                "start_time": 57.05227272727272,
                "end_time": 57.184090909090905,
                "pitch": 37,
                "velocity": 101,
                "duration": 0.13181818181818272,
                "tempo": 120.0
            },
            {
                "start_time": 57.252272727272725,
                "end_time": 57.38409090909091,
                "pitch": 37,
                "velocity": 51,
                "duration": 0.13181818181818272,
                "tempo": 120.0
            },
            {
                "start_time": 57.45454545454545,
                "end_time": 57.586363636363636,
                "pitch": 37,
                "velocity": 32,
                "duration": 0.13181818181818272,
                "tempo": 120.0
            },
            {
                "start_time": 57.65681818181818,
                "end_time": 57.78636363636363,
                "pitch": 37,
                "velocity": 32,
                "duration": 0.1295454545454504,
                "tempo": 120.0
            },
            {
                "start_time": 57.85681818181818,
                "end_time": 57.986363636363635,
                "pitch": 37,
                "velocity": 101,
                "duration": 0.12954545454545752,
                "tempo": 120.0
            },
            {
                "start_time": 58.05681818181818,
                "end_time": 58.18636363636363,
                "pitch": 37,
                "velocity": 51,
                "duration": 0.1295454545454504,
                "tempo": 120.0
            },
            {
                "start_time": 58.256818181818176,
                "end_time": 58.38863636363636,
                "pitch": 37,
                "velocity": 32,
                "duration": 0.13181818181818272,
                "tempo": 120.0
            },
            {
                "start_time": 58.45681818181818,
                "end_time": 58.85681818181818,
                "pitch": 37,
                "velocity": 101,
                "duration": 0.3999999999999986,
                "tempo": 120.0
            },
            {
                "start_time": 58.85681818181818,
                "end_time": 58.95681818181818,
                "pitch": 37,
                "velocity": 101,
                "duration": 0.10000000000000142,
                "tempo": 120.0
            },
            {
                "start_time": 58.95681818181818,
                "end_time": 59.05681818181818,
                "pitch": 37,
                "velocity": 51,
                "duration": 0.10000000000000142,
                "tempo": 120.0
            },
            {
                "start_time": 59.05681818181818,
                "end_time": 59.459090909090904,
                "pitch": 38,
                "velocity": 101,
                "duration": 0.4022727272727238,
                "tempo": 120.0
            },
            {
                "start_time": 59.461363636363636,
                "end_time": 59.590909090909086,
                "pitch": 37,
                "velocity": 101,
                "duration": 0.1295454545454504,
                "tempo": 120.0
            },
            {
                "start_time": 59.66136363636363,
                "end_time": 59.79545454545454,
                "pitch": 37,
                "velocity": 51,
                "duration": 0.13409090909090793,
                "tempo": 120.0
            },
            {
                "start_time": 59.865909090909085,
                "end_time": 60.002272727272725,
                "pitch": 37,
                "velocity": 32,
                "duration": 0.13636363636364024,
                "tempo": 120.0
            },
            {
                "start_time": 60.07272727272727,
                "end_time": 60.20454545454545,
                "pitch": 37,
                "velocity": 101,
                "duration": 0.13181818181818272,
                "tempo": 120.0
            },
            {
                "start_time": 60.272727272727266,
                "end_time": 60.40454545454545,
                "pitch": 37,
                "velocity": 51,
                "duration": 0.13181818181818272,
                "tempo": 120.0
            },
            {
                "start_time": 60.47272727272727,
                "end_time": 60.60454545454545,
                "pitch": 37,
                "velocity": 32,
                "duration": 0.13181818181818272,
                "tempo": 120.0
            },
            {
                "start_time": 60.67272727272727,
                "end_time": 60.804545454545455,
                "pitch": 37,
                "velocity": 32,
                "duration": 0.13181818181818272,
                "tempo": 120.0
            },
            {
                "start_time": 60.87272727272727,
                "end_time": 61.006818181818176,
                "pitch": 37,
                "velocity": 101,
                "duration": 0.13409090909090793,
                "tempo": 120.0
            },
            {
                "start_time": 61.07954545454545,
                "end_time": 61.21363636363636,
                "pitch": 37,
                "velocity": 51,
                "duration": 0.13409090909090793,
                "tempo": 120.0
            },
            {
                "start_time": 61.28409090909091,
                "end_time": 61.413636363636364,
                "pitch": 37,
                "velocity": 32,
                "duration": 0.12954545454545752,
                "tempo": 120.0
            },
            {
                "start_time": 61.48181818181818,
                "end_time": 61.877272727272725,
                "pitch": 37,
                "velocity": 101,
                "duration": 0.39545454545454817,
                "tempo": 120.0
            },
            {
                "start_time": 61.877272727272725,
                "end_time": 61.97727272727273,
                "pitch": 37,
                "velocity": 101,
                "duration": 0.10000000000000142,
                "tempo": 120.0
            },
            {
                "start_time": 61.97727272727273,
                "end_time": 62.07727272727272,
                "pitch": 37,
                "velocity": 51,
                "duration": 0.09999999999999432,
                "tempo": 120.0
            },
            {
                "start_time": 62.07727272727272,
                "end_time": 62.48863636363636,
                "pitch": 37,
                "velocity": 101,
                "duration": 0.4113636363636388,
                "tempo": 120.0
            },
            {
                "start_time": 62.490909090909085,
                "end_time": 64.08636363636363,
                "pitch": 37,
                "velocity": 101,
                "duration": 1.595454545454544,
                "tempo": 120.0
            },
            {
                "start_time": 64.08636363636363,
                "end_time": 65.69318181818181,
                "pitch": 36,
                "velocity": 101,
                "duration": 1.6068181818181841,
                "tempo": 120.0
            },
            {
                "start_time": 65.69318181818181,
                "end_time": 66.49545454545454,
                "pitch": 35,
                "velocity": 101,
                "duration": 0.8022727272727224,
                "tempo": 120.0
            },
            {
                "start_time": 66.49772727272727,
                "end_time": 68.10681818181818,
                "pitch": 30,
                "velocity": 101,
                "duration": 1.6090909090909093,
                "tempo": 120.0
            },
            {
                "start_time": 68.10681818181818,
                "end_time": 68.91818181818182,
                "pitch": 31,
                "velocity": 101,
                "duration": 0.8113636363636374,
                "tempo": 120.0
            },
            {
                "start_time": 68.92045454545455,
                "end_time": 70.52954545454546,
                "pitch": 25,
                "velocity": 101,
                "duration": 1.6090909090909093,
                "tempo": 120.0
            },
            {
                "start_time": 70.52954545454546,
                "end_time": 72.13636363636363,
                "pitch": 24,
                "velocity": 101,
                "duration": 1.60681818181817,
                "tempo": 120.0
            },
            {
                "start_time": 72.13636363636363,
                "end_time": 72.94090909090909,
                "pitch": 23,
                "velocity": 101,
                "duration": 0.8045454545454618,
                "tempo": 120.0
            },
            {
                "start_time": 72.94090909090909,
                "end_time": 74.55,
                "pitch": 29,
                "velocity": 101,
                "duration": 1.6090909090909093,
                "tempo": 120.0
            },
            {
                "start_time": 74.55,
                "end_time": 75.35454545454544,
                "pitch": 29,
                "velocity": 101,
                "duration": 0.8045454545454476,
                "tempo": 120.0
            },
            {
                "start_time": 75.35681818181818,
                "end_time": 75.46818181818182,
                "pitch": 37,
                "velocity": 101,
                "duration": 0.11136363636363455,
                "tempo": 120.0
            }
        ]
    }
}