{
    "track_id": "26 Cavern (Labyrinth)",
    "mood": "angry",
    "instruments": {
        "Lead 2 (sawtooth)": [
            {
                "start_time": 0.42727272727272725,
                "end_time": 0.509090909090909,
                "pitch": 38,
                "velocity": 80,
                "duration": 0.08181818181818179,
                "tempo": 120.0
            },
            {
                "start_time": 0.509090909090909,
                "end_time": 4.570454545454545,
                "pitch": 40,
                "velocity": 80,
                "duration": 4.0613636363636365,
                "tempo": 120.0
            },
            {
                "start_time": 4.570454545454545,
                "end_time": 7.629545454545454,
                "pitch": 40,
                "velocity": 80,
                "duration": 3.0590909090909086,
                "tempo": 120.0
            },
            {
                "start_time": 49.699999999999996,
                "end_time": 51.86363636363636,
                "pitch": 47,
                "velocity": 64,
                "duration": 2.163636363636364,
                "tempo": 120.0
            },
            {
                "start_time": 51.86363636363636,
                "end_time": 53.902272727272724,
                "pitch": 48,
                "velocity": 64,
                "duration": 2.038636363636364,
                "tempo": 120.0
            },
            {
                "start_time": 53.902272727272724,
                "end_time": 55.965909090909086,
                "pitch": 47,
                "velocity": 64,
                "duration": 2.0636363636363626,
                "tempo": 120.0
            },
            {
                "start_time": 55.965909090909086,
                "end_time": 57.99545454545454,
                "pitch": 48,
                "velocity": 64,
                "duration": 2.029545454545456,
                "tempo": 120.0
            },
            {
                "start_time": 57.99545454545454,
                "end_time": 60.06363636363636,
                "pitch": 47,
                "velocity": 64,
                "duration": 2.06818181818182,
                "tempo": 120.0
            },
            {
                "start_time": 60.06363636363636,
                "end_time": 62.09318181818182,
                "pitch": 48,
                "velocity": 64,
                "duration": 2.029545454545456,
                "tempo": 120.0
            },
            {
                "start_time": 62.09318181818182,
                "end_time": 64.15681818181818,
                "pitch": 47,
                "velocity": 64,
                "duration": 2.0636363636363626,
                "tempo": 120.0
            },
            {
                "start_time": 64.15681818181818,
                "end_time": 66.11363636363636,
                "pitch": 48,
                "velocity": 64,
                "duration": 1.9568181818181785,
                "tempo": 120.0
            },
            {
                "start_time": 66.11590909090908,
                "end_time": 69.16136363636363,
                "pitch": 47,
                "velocity": 64,
                "duration": 3.0454545454545467,
                "tempo": 120.0
            }
        ],
        "Violin": [
            {
                "start_time": 3.0136363636363637,
                "end_time": 3.1477272727272725,
                "pitch": 64,
                "velocity": 51,
                "duration": 0.13409090909090882,
                "tempo": 120.0
            },
            {
                "start_time": 3.1477272727272725,
                "end_time": 3.2136363636363634,
                "pitch": 67,
                "velocity": 51,
                "duration": 0.06590909090909092,
                "tempo": 120.0
            },
            {
                "start_time": 3.2136363636363634,
                "end_time": 3.2659090909090907,
                "pitch": 67,
                "velocity": 51,
                "duration": 0.05227272727272725,
                "tempo": 120.0
            },
            {
                "start_time": 3.2659090909090907,
                "end_time": 3.3977272727272725,
                "pitch": 69,
                "velocity": 51,
                "duration": 0.13181818181818183,
                "tempo": 120.0
            },
            {
                "start_time": 3.4,
                "end_time": 3.5318181818181817,
                "pitch": 70,
                "velocity": 51,
                "duration": 0.13181818181818183,
                "tempo": 120.0
            },
            {
                "start_time": 3.5340909090909087,
                "end_time": 3.668181818181818,
                "pitch": 71,
                "velocity": 51,
                "duration": 0.13409090909090926,
                "tempo": 120.0
            },
            {
                "start_time": 3.668181818181818,
                "end_time": 3.7886363636363636,
                "pitch": 70,
                "velocity": 51,
                "duration": 0.12045454545454559,
                "tempo": 120.0
            },
            {
                "start_time": 3.7886363636363636,
                "end_time": 3.925,
                "pitch": 71,
                "velocity": 51,
                "duration": 0.13636363636363624,
                "tempo": 120.0
            },
            {
                "start_time": 3.925,
                "end_time": 3.9568181818181816,
                "pitch": 67,
                "velocity": 51,
                "duration": 0.031818181818181746,
                "tempo": 120.0
            },
            {
                "start_time": 3.2136363636363634,
                "end_time": 3.9568181818181816,
                "pitch": 79,
                "velocity": 51,
                "duration": 0.7431818181818182,
                "tempo": 120.0
            },
            {
                "start_time": 3.9568181818181816,
                "end_time": 4.0613636363636365,
                "pitch": 67,
                "velocity": 51,
                "duration": 0.10454545454545494,
                "tempo": 120.0
            },
            {
                "start_time": 4.0613636363636365,
                "end_time": 4.175,
                "pitch": 71,
                "velocity": 51,
                "duration": 0.11363636363636331,
                "tempo": 120.0
            },
            {
                "start_time": 4.177272727272727,
                "end_time": 4.306818181818182,
                "pitch": 66,
                "velocity": 51,
                "duration": 0.12954545454545485,
                "tempo": 120.0
            },
            {
                "start_time": 4.309090909090909,
                "end_time": 4.4386363636363635,
                "pitch": 71,
                "velocity": 51,
                "duration": 0.12954545454545485,
                "tempo": 120.0
            },
            {
                "start_time": 4.4386363636363635,
                "end_time": 4.572727272727272,
                "pitch": 64,
                "velocity": 51,
                "duration": 0.13409090909090882,
                "tempo": 120.0
            },
            {
                "start_time": 4.572727272727272,
                "end_time": 5.5636363636363635,
                "pitch": 70,
                "velocity": 51,
                "duration": 0.9909090909090912,
                "tempo": 120.0
            },
            {
                "start_time": 5.5636363636363635,
                "end_time": 6.6,
                "pitch": 71,
                "velocity": 51,
                "duration": 1.0363636363636362,
                "tempo": 120.0
            },
            {
                "start_time": 6.6,
                "end_time": 7.629545454545454,
                "pitch": 64,
                "velocity": 51,
                "duration": 1.0295454545454543,
                "tempo": 120.0
            },
            {
                "start_time": 8.672727272727272,
                "end_time": 10.697727272727272,
                "pitch": 52,
                "velocity": 51,
                "duration": 2.0250000000000004,
                "tempo": 120.0
            },
            {
                "start_time": 10.7,
                "end_time": 11.736363636363636,
                "pitch": 50,
                "velocity": 51,
                "duration": 1.036363636363637,
                "tempo": 120.0
            },
            {
                "start_time": 11.736363636363636,
                "end_time": 12.76590909090909,
                "pitch": 45,
                "velocity": 51,
                "duration": 1.0295454545454543,
                "tempo": 120.0
            },
            {
                "start_time": 12.76590909090909,
                "end_time": 14.797727272727272,
                "pitch": 49,
                "velocity": 51,
                "duration": 2.0318181818181813,
                "tempo": 120.0
            },
            {
                "start_time": 14.799999999999999,
                "end_time": 16.868181818181817,
                "pitch": 49,
                "velocity": 51,
                "duration": 2.0681818181818183,
                "tempo": 120.0
            },
            {
                "start_time": 16.868181818181817,
                "end_time": 18.895454545454545,
                "pitch": 52,
                "velocity": 51,
                "duration": 2.0272727272727273,
                "tempo": 120.0
            },
            {
                "start_time": 18.897727272727273,
                "end_time": 19.93409090909091,
                "pitch": 50,
                "velocity": 51,
                "duration": 1.0363636363636353,
                "tempo": 120.0
            },
            {
                "start_time": 19.93409090909091,
                "end_time": 20.972727272727273,
                "pitch": 45,
                "velocity": 51,
                "duration": 1.038636363636364,
                "tempo": 120.0
            },
            {
                "start_time": 20.972727272727273,
                "end_time": 22.002272727272725,
                "pitch": 47,
                "velocity": 51,
                "duration": 1.0295454545454525,
                "tempo": 120.0
            },
            {
                "start_time": 22.002272727272725,
                "end_time": 25.070454545454545,
                "pitch": 46,
                "velocity": 51,
                "duration": 3.06818181818182,
                "tempo": 120.0
            },
            {
                "start_time": 25.070454545454545,
                "end_time": 27.099999999999998,
                "pitch": 52,
                "velocity": 51,
                "duration": 2.0295454545454525,
                "tempo": 120.0
            },
            {
                "start_time": 27.099999999999998,
                "end_time": 28.127272727272725,
                "pitch": 50,
                "velocity": 51,
                "duration": 1.0272727272727273,
                "tempo": 120.0
            },
            {
                "start_time": 28.129545454545454,
                "end_time": 29.16590909090909,
                "pitch": 45,
                "velocity": 51,
                "duration": 1.0363636363636353,
                "tempo": 120.0
            },
            {
                "start_time": 29.16590909090909,
                "end_time": 31.21590909090909,
                "pitch": 49,
                "velocity": 51,
                "duration": 2.0500000000000007,
                "tempo": 120.0
            },
            {
                "start_time": 31.218181818181815,
                "end_time": 33.263636363636365,
                "pitch": 49,
                "velocity": 51,
                "duration": 2.0454545454545503,
                "tempo": 120.0
            },
            {
                "start_time": 33.263636363636365,
                "end_time": 35.31363636363636,
                "pitch": 52,
                "velocity": 51,
                "duration": 2.049999999999997,
                "tempo": 120.0
            },
            {
                "start_time": 35.31363636363636,
                "end_time": 36.33181818181818,
                "pitch": 50,
                "velocity": 51,
                "duration": 1.0181818181818159,
                "tempo": 120.0
            },
            {
                "start_time": 36.33181818181818,
                "end_time": 37.35909090909091,
                "pitch": 45,
                "velocity": 51,
                "duration": 1.027272727272731,
                "tempo": 120.0
            },
            {
                "start_time": 37.361363636363635,
                "end_time": 38.39772727272727,
                "pitch": 47,
                "velocity": 51,
                "duration": 1.0363636363636388,
                "tempo": 120.0
            },
            {
                "start_time": 38.4,
                "end_time": 41.465909090909086,
                "pitch": 46,
                "velocity": 51,
                "duration": 3.065909090909088,
                "tempo": 120.0
            },
            {
                "start_time": 70.17954545454545,
                "end_time": 70.43863636363636,
                "pitch": 52,
                "velocity": 51,
                "duration": 0.25909090909091503,
                "tempo": 120.0
            }
        ],
        "Acoustic Guitar (nylon)": [
            {
                "start_time": 8.918181818181818,
                "end_time": 8.936363636363636,
                "pitch": 55,
                "velocity": 64,
                "duration": 0.018181818181817633,
                "tempo": 120.0
            },
            {
                "start_time": 8.936363636363636,
                "end_time": 8.986363636363636,
                "pitch": 54,
                "velocity": 64,
                "duration": 0.05000000000000071,
                "tempo": 120.0
            },
            {
                "start_time": 8.986363636363636,
                "end_time": 9.052272727272728,
                "pitch": 52,
                "velocity": 64,
                "duration": 0.06590909090909136,
                "tempo": 120.0
            },
            {
                "start_time": 9.052272727272728,
                "end_time": 9.102272727272727,
                "pitch": 49,
                "velocity": 64,
                "duration": 0.049999999999998934,
                "tempo": 120.0
            },
            {
                "start_time": 9.102272727272727,
                "end_time": 9.136363636363637,
                "pitch": 46,
                "velocity": 64,
                "duration": 0.03409090909091006,
                "tempo": 120.0
            },
            {
                "start_time": 9.136363636363637,
                "end_time": 9.170454545454545,
                "pitch": 44,
                "velocity": 64,
                "duration": 0.034090909090908283,
                "tempo": 120.0
            },
            {
                "start_time": 9.170454545454545,
                "end_time": 9.218181818181817,
                "pitch": 48,
                "velocity": 64,
                "duration": 0.04772727272727195,
                "tempo": 120.0
            },
            {
                "start_time": 9.218181818181817,
                "end_time": 9.25,
                "pitch": 46,
                "velocity": 64,
                "duration": 0.03181818181818308,
                "tempo": 120.0
            },
            {
                "start_time": 9.25,
                "end_time": 9.281818181818181,
                "pitch": 43,
                "velocity": 64,
                "duration": 0.0318181818181813,
                "tempo": 120.0
            },
            {
                "start_time": 9.281818181818181,
                "end_time": 9.297727272727272,
                "pitch": 41,
                "velocity": 64,
                "duration": 0.01590909090909065,
                "tempo": 120.0
            },
            {
                "start_time": 9.297727272727272,
                "end_time": 9.329545454545453,
                "pitch": 48,
                "velocity": 64,
                "duration": 0.0318181818181813,
                "tempo": 120.0
            },
            {
                "start_time": 9.329545454545453,
                "end_time": 9.379545454545454,
                "pitch": 46,
                "velocity": 64,
                "duration": 0.05000000000000071,
                "tempo": 120.0
            },
            {
                "start_time": 9.379545454545454,
                "end_time": 9.411363636363635,
                "pitch": 43,
                "velocity": 64,
                "duration": 0.0318181818181813,
                "tempo": 120.0
            },
            {
                "start_time": 9.411363636363635,
                "end_time": 9.443181818181818,
                "pitch": 41,
                "velocity": 64,
                "duration": 0.03181818181818308,
                "tempo": 120.0
            },
            {
                "start_time": 9.443181818181818,
                "end_time": 9.459090909090909,
                "pitch": 37,
                "velocity": 64,
                "duration": 0.01590909090909065,
                "tempo": 120.0
            },
            {
                "start_time": 9.459090909090909,
                "end_time": 9.475,
                "pitch": 35,
                "velocity": 64,
                "duration": 0.01590909090909065,
                "tempo": 120.0
            },
            {
                "start_time": 9.475,
                "end_time": 9.49090909090909,
                "pitch": 33,
                "velocity": 64,
                "duration": 0.01590909090909065,
                "tempo": 120.0
            },
            {
                "start_time": 9.49090909090909,
                "end_time": 9.506818181818181,
                "pitch": 30,
                "velocity": 64,
                "duration": 0.01590909090909065,
                "tempo": 120.0
            },
            {
                "start_time": 9.506818181818181,
                "end_time": 9.538636363636364,
                "pitch": 27,
                "velocity": 64,
                "duration": 0.03181818181818308,
                "tempo": 120.0
            },
            {
                "start_time": 9.538636363636364,
                "end_time": 9.554545454545455,
                "pitch": 24,
                "velocity": 64,
                "duration": 0.01590909090909065,
                "tempo": 120.0
            },
            {
                "start_time": 9.668181818181818,
                "end_time": 9.718181818181817,
                "pitch": 48,
                "velocity": 64,
                "duration": 0.049999999999998934,
                "tempo": 120.0
            },
            {
                "start_time": 9.718181818181817,
                "end_time": 9.75,
                "pitch": 46,
                "velocity": 64,
                "duration": 0.03181818181818308,
                "tempo": 120.0
            },
            {
                "start_time": 9.75,
                "end_time": 9.784090909090908,
                "pitch": 43,
                "velocity": 64,
                "duration": 0.034090909090908283,
                "tempo": 120.0
            },
            {
                "start_time": 9.784090909090908,
                "end_time": 9.818181818181818,
                "pitch": 41,
                "velocity": 64,
                "duration": 0.03409090909091006,
                "tempo": 120.0
            },
            {
                "start_time": 9.818181818181818,
                "end_time": 9.834090909090909,
                "pitch": 37,
                "velocity": 64,
                "duration": 0.01590909090909065,
                "tempo": 120.0
            },
            {
                "start_time": 9.834090909090909,
                "end_time": 9.852272727272727,
                "pitch": 35,
                "velocity": 64,
                "duration": 0.018181818181817633,
                "tempo": 120.0
            },
            {
                "start_time": 9.852272727272727,
                "end_time": 9.884090909090908,
                "pitch": 33,
                "velocity": 64,
                "duration": 0.0318181818181813,
                "tempo": 120.0
            },
            {
                "start_time": 9.884090909090908,
                "end_time": 9.902272727272727,
                "pitch": 30,
                "velocity": 64,
                "duration": 0.01818181818181941,
                "tempo": 120.0
            },
            {
                "start_time": 9.902272727272727,
                "end_time": 9.918181818181818,
                "pitch": 27,
                "velocity": 64,
                "duration": 0.01590909090909065,
                "tempo": 120.0
            },
            {
                "start_time": 9.918181818181818,
                "end_time": 9.934090909090909,
                "pitch": 24,
                "velocity": 64,
                "duration": 0.01590909090909065,
                "tempo": 120.0
            },
            {
                "start_time": 9.934090909090909,
                "end_time": 9.936363636363636,
                "pitch": 21,
                "velocity": 64,
                "duration": 0.002272727272726982,
                "tempo": 120.0
            },
            {
                "start_time": 10.45,
                "end_time": 10.5,
                "pitch": 52,
                "velocity": 64,
                "duration": 0.05000000000000071,
                "tempo": 120.0
            },
            {
                "start_time": 10.5,
                "end_time": 10.547727272727272,
                "pitch": 49,
                "velocity": 64,
                "duration": 0.04772727272727195,
                "tempo": 120.0
            },
            {
                "start_time": 10.547727272727272,
                "end_time": 10.597727272727273,
                "pitch": 46,
                "velocity": 64,
                "duration": 0.05000000000000071,
                "tempo": 120.0
            },
            {
                "start_time": 10.597727272727273,
                "end_time": 10.629545454545454,
                "pitch": 44,
                "velocity": 64,
                "duration": 0.0318181818181813,
                "tempo": 120.0
            },
            {
                "start_time": 10.629545454545454,
                "end_time": 10.663636363636362,
                "pitch": 41,
                "velocity": 64,
                "duration": 0.034090909090908283,
                "tempo": 120.0
            },
            {
                "start_time": 10.663636363636362,
                "end_time": 10.679545454545455,
                "pitch": 39,
                "velocity": 64,
                "duration": 0.015909090909092427,
                "tempo": 120.0
            },
            {
                "start_time": 10.679545454545455,
                "end_time": 10.697727272727272,
                "pitch": 36,
                "velocity": 64,
                "duration": 0.018181818181817633,
                "tempo": 120.0
            },
            {
                "start_time": 10.96590909090909,
                "end_time": 10.98181818181818,
                "pitch": 55,
                "velocity": 64,
                "duration": 0.01590909090909065,
                "tempo": 120.0
            },
            {
                "start_time": 8.936363636363636,
                "end_time": 10.98181818181818,
                "pitch": 67,
                "velocity": 64,
                "duration": 2.045454545454545,
                "tempo": 120.0
            },
            {
                "start_time": 10.98181818181818,
                "end_time": 11.031818181818181,
                "pitch": 54,
                "velocity": 64,
                "duration": 0.05000000000000071,
                "tempo": 120.0
            },
            {
                "start_time": 11.031818181818181,
                "end_time": 11.081818181818182,
                "pitch": 52,
                "velocity": 64,
                "duration": 0.05000000000000071,
                "tempo": 120.0
            },
            {
                "start_time": 11.081818181818182,
                "end_time": 11.147727272727272,
                "pitch": 49,
                "velocity": 64,
                "duration": 0.06590909090908958,
                "tempo": 120.0
            },
            {
                "start_time": 11.147727272727272,
                "end_time": 11.181818181818182,
                "pitch": 46,
                "velocity": 64,
                "duration": 0.03409090909091006,
                "tempo": 120.0
            },
            {
                "start_time": 11.181818181818182,
                "end_time": 11.21590909090909,
                "pitch": 44,
                "velocity": 64,
                "duration": 0.034090909090908283,
                "tempo": 120.0
            },
            {
                "start_time": 11.21590909090909,
                "end_time": 11.25,
                "pitch": 48,
                "velocity": 64,
                "duration": 0.03409090909091006,
                "tempo": 120.0
            },
            {
                "start_time": 11.25,
                "end_time": 11.281818181818181,
                "pitch": 46,
                "velocity": 64,
                "duration": 0.0318181818181813,
                "tempo": 120.0
            },
            {
                "start_time": 11.281818181818181,
                "end_time": 11.331818181818182,
                "pitch": 43,
                "velocity": 64,
                "duration": 0.05000000000000071,
                "tempo": 120.0
            },
            {
                "start_time": 11.331818181818182,
                "end_time": 11.35,
                "pitch": 41,
                "velocity": 64,
                "duration": 0.018181818181817633,
                "tempo": 120.0
            },
            {
                "start_time": 11.35,
                "end_time": 11.384090909090908,
                "pitch": 48,
                "velocity": 64,
                "duration": 0.034090909090908283,
                "tempo": 120.0
            },
            {
                "start_time": 11.384090909090908,
                "end_time": 11.415909090909091,
                "pitch": 46,
                "velocity": 64,
                "duration": 0.03181818181818308,
                "tempo": 120.0
            },
            {
                "start_time": 11.415909090909091,
                "end_time": 11.45,
                "pitch": 43,
                "velocity": 64,
                "duration": 0.034090909090908283,
                "tempo": 120.0
            },
            {
                "start_time": 11.45,
                "end_time": 11.5,
                "pitch": 41,
                "velocity": 64,
                "duration": 0.05000000000000071,
                "tempo": 120.0
            },
            {
                "start_time": 11.5,
                "end_time": 11.51590909090909,
                "pitch": 37,
                "velocity": 64,
                "duration": 0.01590909090909065,
                "tempo": 120.0
            },
            {
                "start_time": 11.51590909090909,
                "end_time": 11.534090909090908,
                "pitch": 35,
                "velocity": 64,
                "duration": 0.018181818181817633,
                "tempo": 120.0
            },
            {
                "start_time": 11.534090909090908,
                "end_time": 11.549999999999999,
                "pitch": 33,
                "velocity": 64,
                "duration": 0.01590909090909065,
                "tempo": 120.0
            },
            {
                "start_time": 11.549999999999999,
                "end_time": 11.568181818181818,
                "pitch": 30,
                "velocity": 64,
                "duration": 0.01818181818181941,
                "tempo": 120.0
            },
            {
                "start_time": 11.568181818181818,
                "end_time": 11.584090909090909,
                "pitch": 27,
                "velocity": 64,
                "duration": 0.01590909090909065,
                "tempo": 120.0
            },
            {
                "start_time": 11.584090909090909,
                "end_time": 11.6,
                "pitch": 24,
                "velocity": 64,
                "duration": 0.01590909090909065,
                "tempo": 120.0
            },
            {
                "start_time": 11.736363636363636,
                "end_time": 11.768181818181818,
                "pitch": 48,
                "velocity": 64,
                "duration": 0.0318181818181813,
                "tempo": 120.0
            },
            {
                "start_time": 11.768181818181818,
                "end_time": 11.802272727272726,
                "pitch": 46,
                "velocity": 64,
                "duration": 0.034090909090908283,
                "tempo": 120.0
            },
            {
                "start_time": 11.802272727272726,
                "end_time": 11.852272727272727,
                "pitch": 43,
                "velocity": 64,
                "duration": 0.05000000000000071,
                "tempo": 120.0
            },
            {
                "start_time": 11.852272727272727,
                "end_time": 11.886363636363635,
                "pitch": 41,
                "velocity": 64,
                "duration": 0.034090909090908283,
                "tempo": 120.0
            },
            {
                "start_time": 11.886363636363635,
                "end_time": 11.902272727272727,
                "pitch": 37,
                "velocity": 64,
                "duration": 0.015909090909092427,
                "tempo": 120.0
            },
            {
                "start_time": 11.902272727272727,
                "end_time": 11.918181818181818,
                "pitch": 35,
                "velocity": 64,
                "duration": 0.01590909090909065,
                "tempo": 120.0
            },
            {
                "start_time": 11.918181818181818,
                "end_time": 11.936363636363636,
                "pitch": 33,
                "velocity": 64,
                "duration": 0.018181818181817633,
                "tempo": 120.0
            },
            {
                "start_time": 11.936363636363636,
                "end_time": 11.952272727272726,
                "pitch": 30,
                "velocity": 64,
                "duration": 0.01590909090909065,
                "tempo": 120.0
            },
            {
                "start_time": 11.952272727272726,
                "end_time": 11.968181818181817,
                "pitch": 27,
                "velocity": 64,
                "duration": 0.01590909090909065,
                "tempo": 120.0
            },
            {
                "start_time": 11.968181818181817,
                "end_time": 11.986363636363636,
                "pitch": 24,
                "velocity": 64,
                "duration": 0.01818181818181941,
                "tempo": 120.0
            },
            {
                "start_time": 12.502272727272727,
                "end_time": 12.534090909090908,
                "pitch": 52,
                "velocity": 64,
                "duration": 0.0318181818181813,
                "tempo": 120.0
            },
            {
                "start_time": 12.534090909090908,
                "end_time": 12.6,
                "pitch": 52,
                "velocity": 64,
                "duration": 0.06590909090909136,
                "tempo": 120.0
            },
            {
                "start_time": 12.6,
                "end_time": 12.631818181818181,
                "pitch": 49,
                "velocity": 64,
                "duration": 0.0318181818181813,
                "tempo": 120.0
            },
            {
                "start_time": 12.631818181818181,
                "end_time": 12.681818181818182,
                "pitch": 52,
                "velocity": 64,
                "duration": 0.05000000000000071,
                "tempo": 120.0
            },
            {
                "start_time": 12.681818181818182,
                "end_time": 12.713636363636363,
                "pitch": 50,
                "velocity": 64,
                "duration": 0.0318181818181813,
                "tempo": 120.0
            },
            {
                "start_time": 12.713636363636363,
                "end_time": 12.76590909090909,
                "pitch": 47,
                "velocity": 64,
                "duration": 0.05227272727272769,
                "tempo": 120.0
            },
            {
                "start_time": 13.01590909090909,
                "end_time": 13.031818181818181,
                "pitch": 55,
                "velocity": 64,
                "duration": 0.01590909090909065,
                "tempo": 120.0
            },
            {
                "start_time": 10.98181818181818,
                "end_time": 13.031818181818181,
                "pitch": 67,
                "velocity": 64,
                "duration": 2.0500000000000007,
                "tempo": 120.0
            },
            {
                "start_time": 13.031818181818181,
                "end_time": 13.1,
                "pitch": 55,
                "velocity": 64,
                "duration": 0.06818181818181834,
                "tempo": 120.0
            },
            {
                "start_time": 13.1,
                "end_time": 13.149999999999999,
                "pitch": 52,
                "velocity": 64,
                "duration": 0.049999999999998934,
                "tempo": 120.0
            },
            {
                "start_time": 13.149999999999999,
                "end_time": 13.2,
                "pitch": 49,
                "velocity": 64,
                "duration": 0.05000000000000071,
                "tempo": 120.0
            },
            {
                "start_time": 13.2,
                "end_time": 13.23181818181818,
                "pitch": 46,
                "velocity": 64,
                "duration": 0.0318181818181813,
                "tempo": 120.0
            },
            {
                "start_time": 13.23181818181818,
                "end_time": 13.284090909090908,
                "pitch": 44,
                "velocity": 64,
                "duration": 0.05227272727272769,
                "tempo": 120.0
            },
            {
                "start_time": 13.284090909090908,
                "end_time": 13.31590909090909,
                "pitch": 48,
                "velocity": 64,
                "duration": 0.0318181818181813,
                "tempo": 120.0
            },
            {
                "start_time": 13.31590909090909,
                "end_time": 13.35,
                "pitch": 46,
                "velocity": 64,
                "duration": 0.03409090909091006,
                "tempo": 120.0
            },
            {
                "start_time": 13.35,
                "end_time": 13.381818181818181,
                "pitch": 43,
                "velocity": 64,
                "duration": 0.0318181818181813,
                "tempo": 120.0
            },
            {
                "start_time": 13.381818181818181,
                "end_time": 13.397727272727272,
                "pitch": 41,
                "velocity": 64,
                "duration": 0.01590909090909065,
                "tempo": 120.0
            },
            {
                "start_time": 13.397727272727272,
                "end_time": 13.431818181818182,
                "pitch": 48,
                "velocity": 64,
                "duration": 0.03409090909091006,
                "tempo": 120.0
            },
            {
                "start_time": 13.431818181818182,
                "end_time": 13.479545454545454,
                "pitch": 46,
                "velocity": 64,
                "duration": 0.04772727272727195,
                "tempo": 120.0
            },
            {
                "start_time": 13.479545454545454,
                "end_time": 13.513636363636364,
                "pitch": 43,
                "velocity": 64,
                "duration": 0.03409090909091006,
                "tempo": 120.0
            },
            {
                "start_time": 13.513636363636364,
                "end_time": 13.545454545454545,
                "pitch": 41,
                "velocity": 64,
                "duration": 0.0318181818181813,
                "tempo": 120.0
            },
            {
                "start_time": 13.545454545454545,
                "end_time": 13.563636363636363,
                "pitch": 37,
                "velocity": 64,
                "duration": 0.018181818181817633,
                "tempo": 120.0
            },
            {
                "start_time": 13.563636363636363,
                "end_time": 13.579545454545453,
                "pitch": 35,
                "velocity": 64,
                "duration": 0.01590909090909065,
                "tempo": 120.0
            },
            {
                "start_time": 13.579545454545453,
                "end_time": 13.595454545454546,
                "pitch": 33,
                "velocity": 64,
                "duration": 0.015909090909092427,
                "tempo": 120.0
            },
            {
                "start_time": 13.595454545454546,
                "end_time": 13.629545454545454,
                "pitch": 30,
                "velocity": 64,
                "duration": 0.034090909090908283,
                "tempo": 120.0
            },
            {
                "start_time": 13.629545454545454,
                "end_time": 13.645454545454545,
                "pitch": 27,
                "velocity": 64,
                "duration": 0.01590909090909065,
                "tempo": 120.0
            },
            {
                "start_time": 13.645454545454545,
                "end_time": 13.661363636363635,
                "pitch": 24,
                "velocity": 64,
                "duration": 0.01590909090909065,
                "tempo": 120.0
            },
            {
                "start_time": 13.777272727272727,
                "end_time": 13.827272727272726,
                "pitch": 48,
                "velocity": 64,
                "duration": 0.049999999999998934,
                "tempo": 120.0
            },
            {
                "start_time": 13.827272727272726,
                "end_time": 13.859090909090908,
                "pitch": 46,
                "velocity": 64,
                "duration": 0.0318181818181813,
                "tempo": 120.0
            },
            {
                "start_time": 13.859090909090908,
                "end_time": 13.89090909090909,
                "pitch": 43,
                "velocity": 64,
                "duration": 0.03181818181818308,
                "tempo": 120.0
            },
            {
                "start_time": 13.89090909090909,
                "end_time": 13.924999999999999,
                "pitch": 41,
                "velocity": 64,
                "duration": 0.034090909090908283,
                "tempo": 120.0
            },
            {
                "start_time": 13.924999999999999,
                "end_time": 13.94090909090909,
                "pitch": 37,
                "velocity": 64,
                "duration": 0.01590909090909065,
                "tempo": 120.0
            },
            {
                "start_time": 13.94090909090909,
                "end_time": 13.956818181818182,
                "pitch": 35,
                "velocity": 64,
                "duration": 0.015909090909092427,
                "tempo": 120.0
            },
            {
                "start_time": 13.956818181818182,
                "end_time": 13.99090909090909,
                "pitch": 33,
                "velocity": 64,
                "duration": 0.034090909090908283,
                "tempo": 120.0
            },
            {
                "start_time": 13.99090909090909,
                "end_time": 14.006818181818181,
                "pitch": 30,
                "velocity": 64,
                "duration": 0.01590909090909065,
                "tempo": 120.0
            },
            {
                "start_time": 14.006818181818181,
                "end_time": 14.022727272727272,
                "pitch": 27,
                "velocity": 64,
                "duration": 0.01590909090909065,
                "tempo": 120.0
            },
            {
                "start_time": 14.022727272727272,
                "end_time": 14.040909090909091,
                "pitch": 24,
                "velocity": 64,
                "duration": 0.01818181818181941,
                "tempo": 120.0
            },
            {
                "start_time": 14.549999999999999,
                "end_time": 14.6,
                "pitch": 52,
                "velocity": 64,
                "duration": 0.05000000000000071,
                "tempo": 120.0
            },
            {
                "start_time": 14.6,
                "end_time": 14.649999999999999,
                "pitch": 49,
                "velocity": 64,
                "duration": 0.049999999999998934,
                "tempo": 120.0
            },
            {
                "start_time": 14.649999999999999,
                "end_time": 14.697727272727272,
                "pitch": 46,
                "velocity": 64,
                "duration": 0.04772727272727373,
                "tempo": 120.0
            },
            {
                "start_time": 14.697727272727272,
                "end_time": 14.73181818181818,
                "pitch": 44,
                "velocity": 64,
                "duration": 0.034090909090908283,
                "tempo": 120.0
            },
            {
                "start_time": 14.73181818181818,
                "end_time": 14.763636363636364,
                "pitch": 41,
                "velocity": 64,
                "duration": 0.03181818181818308,
                "tempo": 120.0
            },
            {
                "start_time": 14.763636363636364,
                "end_time": 14.781818181818181,
                "pitch": 38,
                "velocity": 64,
                "duration": 0.018181818181817633,
                "tempo": 120.0
            },
            {
                "start_time": 14.781818181818181,
                "end_time": 14.797727272727272,
                "pitch": 36,
                "velocity": 64,
                "duration": 0.01590909090909065,
                "tempo": 120.0
            },
            {
                "start_time": 13.031818181818181,
                "end_time": 15.06590909090909,
                "pitch": 67,
                "velocity": 64,
                "duration": 2.0340909090909083,
                "tempo": 120.0
            },
            {
                "start_time": 15.06590909090909,
                "end_time": 15.131818181818181,
                "pitch": 55,
                "velocity": 64,
                "duration": 0.06590909090909136,
                "tempo": 120.0
            },
            {
                "start_time": 15.06590909090909,
                "end_time": 15.131818181818181,
                "pitch": 55,
                "velocity": 64,
                "duration": 0.06590909090909136,
                "tempo": 120.0
            },
            {
                "start_time": 15.131818181818181,
                "end_time": 15.181818181818182,
                "pitch": 52,
                "velocity": 64,
                "duration": 0.05000000000000071,
                "tempo": 120.0
            },
            {
                "start_time": 15.181818181818182,
                "end_time": 15.25,
                "pitch": 49,
                "velocity": 64,
                "duration": 0.06818181818181834,
                "tempo": 120.0
            },
            {
                "start_time": 15.25,
                "end_time": 15.281818181818181,
                "pitch": 47,
                "velocity": 64,
                "duration": 0.0318181818181813,
                "tempo": 120.0
            },
            {
                "start_time": 15.281818181818181,
                "end_time": 15.31590909090909,
                "pitch": 44,
                "velocity": 64,
                "duration": 0.034090909090908283,
                "tempo": 120.0
            },
            {
                "start_time": 15.31590909090909,
                "end_time": 15.35,
                "pitch": 48,
                "velocity": 64,
                "duration": 0.03409090909091006,
                "tempo": 120.0
            },
            {
                "start_time": 15.35,
                "end_time": 15.384090909090908,
                "pitch": 46,
                "velocity": 64,
                "duration": 0.034090909090908283,
                "tempo": 120.0
            },
            {
                "start_time": 15.384090909090908,
                "end_time": 15.434090909090909,
                "pitch": 43,
                "velocity": 64,
                "duration": 0.05000000000000071,
                "tempo": 120.0
            },
            {
                "start_time": 15.434090909090909,
                "end_time": 15.45,
                "pitch": 41,
                "velocity": 64,
                "duration": 0.01590909090909065,
                "tempo": 120.0
            },
            {
                "start_time": 15.45,
                "end_time": 15.484090909090908,
                "pitch": 48,
                "velocity": 64,
                "duration": 0.034090909090908283,
                "tempo": 120.0
            },
            {
                "start_time": 15.484090909090908,
                "end_time": 15.518181818181818,
                "pitch": 46,
                "velocity": 64,
                "duration": 0.03409090909091006,
                "tempo": 120.0
            },
            {
                "start_time": 15.518181818181818,
                "end_time": 15.549999999999999,
                "pitch": 43,
                "velocity": 64,
                "duration": 0.0318181818181813,
                "tempo": 120.0
            },
            {
                "start_time": 15.549999999999999,
                "end_time": 15.6,
                "pitch": 41,
                "velocity": 64,
                "duration": 0.05000000000000071,
                "tempo": 120.0
            },
            {
                "start_time": 15.6,
                "end_time": 15.618181818181817,
                "pitch": 37,
                "velocity": 64,
                "duration": 0.018181818181817633,
                "tempo": 120.0
            },
            {
                "start_time": 15.618181818181817,
                "end_time": 15.634090909090908,
                "pitch": 35,
                "velocity": 64,
                "duration": 0.01590909090909065,
                "tempo": 120.0
            },
            {
                "start_time": 15.634090909090908,
                "end_time": 15.652272727272727,
                "pitch": 33,
                "velocity": 64,
                "duration": 0.01818181818181941,
                "tempo": 120.0
            },
            {
                "start_time": 15.652272727272727,
                "end_time": 15.668181818181818,
                "pitch": 30,
                "velocity": 64,
                "duration": 0.01590909090909065,
                "tempo": 120.0
            },
            {
                "start_time": 15.668181818181818,
                "end_time": 15.684090909090909,
                "pitch": 27,
                "velocity": 64,
                "duration": 0.01590909090909065,
                "tempo": 120.0
            },
            {
                "start_time": 15.684090909090909,
                "end_time": 15.702272727272726,
                "pitch": 24,
                "velocity": 64,
                "duration": 0.018181818181817633,
                "tempo": 120.0
            },
            {
                "start_time": 15.836363636363636,
                "end_time": 15.868181818181817,
                "pitch": 48,
                "velocity": 64,
                "duration": 0.0318181818181813,
                "tempo": 120.0
            },
            {
                "start_time": 15.868181818181817,
                "end_time": 15.902272727272727,
                "pitch": 46,
                "velocity": 64,
                "duration": 0.03409090909091006,
                "tempo": 120.0
            },
            {
                "start_time": 15.902272727272727,
                "end_time": 15.952272727272726,
                "pitch": 43,
                "velocity": 64,
                "duration": 0.049999999999998934,
                "tempo": 120.0
            },
            {
                "start_time": 15.952272727272726,
                "end_time": 15.986363636363636,
                "pitch": 41,
                "velocity": 64,
                "duration": 0.03409090909091006,
                "tempo": 120.0
            },
            {
                "start_time": 15.986363636363636,
                "end_time": 16.002272727272725,
                "pitch": 38,
                "velocity": 64,
                "duration": 0.015909090909088874,
                "tempo": 120.0
            },
            {
                "start_time": 16.002272727272725,
                "end_time": 16.020454545454545,
                "pitch": 35,
                "velocity": 64,
                "duration": 0.01818181818181941,
                "tempo": 120.0
            },
            {
                "start_time": 16.020454545454545,
                "end_time": 16.036363636363635,
                "pitch": 33,
                "velocity": 64,
                "duration": 0.01590909090909065,
                "tempo": 120.0
            },
            {
                "start_time": 16.036363636363635,
                "end_time": 16.052272727272726,
                "pitch": 30,
                "velocity": 64,
                "duration": 0.01590909090909065,
                "tempo": 120.0
            },
            {
                "start_time": 16.052272727272726,
                "end_time": 16.070454545454545,
                "pitch": 27,
                "velocity": 64,
                "duration": 0.01818181818181941,
                "tempo": 120.0
            },
            {
                "start_time": 16.070454545454545,
                "end_time": 16.086363636363636,
                "pitch": 24,
                "velocity": 64,
                "duration": 0.01590909090909065,
                "tempo": 120.0
            },
            {
                "start_time": 16.602272727272727,
                "end_time": 16.634090909090908,
                "pitch": 52,
                "velocity": 64,
                "duration": 0.0318181818181813,
                "tempo": 120.0
            },
            {
                "start_time": 16.634090909090908,
                "end_time": 16.7,
                "pitch": 52,
                "velocity": 64,
                "duration": 0.06590909090909136,
                "tempo": 120.0
            },
            {
                "start_time": 16.7,
                "end_time": 16.73409090909091,
                "pitch": 49,
                "velocity": 64,
                "duration": 0.03409090909091006,
                "tempo": 120.0
            },
            {
                "start_time": 16.73409090909091,
                "end_time": 16.78181818181818,
                "pitch": 52,
                "velocity": 64,
                "duration": 0.04772727272727195,
                "tempo": 120.0
            },
            {
                "start_time": 16.78181818181818,
                "end_time": 16.847727272727273,
                "pitch": 49,
                "velocity": 64,
                "duration": 0.06590909090909136,
                "tempo": 120.0
            },
            {
                "start_time": 16.847727272727273,
                "end_time": 16.86590909090909,
                "pitch": 46,
                "velocity": 64,
                "duration": 0.018181818181815856,
                "tempo": 120.0
            },
            {
                "start_time": 17.11590909090909,
                "end_time": 17.131818181818183,
                "pitch": 55,
                "velocity": 64,
                "duration": 0.015909090909094203,
                "tempo": 120.0
            },
            {
                "start_time": 15.06590909090909,
                "end_time": 17.131818181818183,
                "pitch": 67,
                "velocity": 64,
                "duration": 2.065909090909093,
                "tempo": 120.0
            },
            {
                "start_time": 17.131818181818183,
                "end_time": 17.2,
                "pitch": 54,
                "velocity": 64,
                "duration": 0.06818181818181657,
                "tempo": 120.0
            },
            {
                "start_time": 17.2,
                "end_time": 17.25,
                "pitch": 52,
                "velocity": 64,
                "duration": 0.05000000000000071,
                "tempo": 120.0
            },
            {
                "start_time": 17.25,
                "end_time": 17.3,
                "pitch": 49,
                "velocity": 64,
                "duration": 0.05000000000000071,
                "tempo": 120.0
            },
            {
                "start_time": 17.3,
                "end_time": 17.334090909090907,
                "pitch": 46,
                "velocity": 64,
                "duration": 0.03409090909090651,
                "tempo": 120.0
            },
            {
                "start_time": 17.334090909090907,
                "end_time": 17.384090909090908,
                "pitch": 44,
                "velocity": 64,
                "duration": 0.05000000000000071,
                "tempo": 120.0
            },
            {
                "start_time": 17.384090909090908,
                "end_time": 17.418181818181818,
                "pitch": 48,
                "velocity": 64,
                "duration": 0.03409090909091006,
                "tempo": 120.0
            },
            {
                "start_time": 17.418181818181818,
                "end_time": 17.45,
                "pitch": 46,
                "velocity": 64,
                "duration": 0.0318181818181813,
                "tempo": 120.0
            },
            {
                "start_time": 17.45,
                "end_time": 17.48409090909091,
                "pitch": 43,
                "velocity": 64,
                "duration": 0.03409090909091006,
                "tempo": 120.0
            },
            {
                "start_time": 17.48409090909091,
                "end_time": 17.5,
                "pitch": 41,
                "velocity": 64,
                "duration": 0.01590909090909065,
                "tempo": 120.0
            },
            {
                "start_time": 17.502272727272725,
                "end_time": 17.552272727272726,
                "pitch": 48,
                "velocity": 64,
                "duration": 0.05000000000000071,
                "tempo": 120.0
            },
            {
                "start_time": 17.552272727272726,
                "end_time": 17.584090909090907,
                "pitch": 46,
                "velocity": 64,
                "duration": 0.0318181818181813,
                "tempo": 120.0
            },
            {
                "start_time": 17.584090909090907,
                "end_time": 17.618181818181817,
                "pitch": 43,
                "velocity": 64,
                "duration": 0.03409090909091006,
                "tempo": 120.0
            },
            {
                "start_time": 17.618181818181817,
                "end_time": 17.652272727272727,
                "pitch": 41,
                "velocity": 64,
                "duration": 0.03409090909091006,
                "tempo": 120.0
            },
            {
                "start_time": 17.652272727272727,
                "end_time": 17.668181818181818,
                "pitch": 37,
                "velocity": 64,
                "duration": 0.01590909090909065,
                "tempo": 120.0
            },
            {
                "start_time": 17.668181818181818,
                "end_time": 17.686363636363634,
                "pitch": 35,
                "velocity": 64,
                "duration": 0.018181818181815856,
                "tempo": 120.0
            },
            {
                "start_time": 17.686363636363634,
                "end_time": 17.702272727272728,
                "pitch": 33,
                "velocity": 64,
                "duration": 0.015909090909094203,
                "tempo": 120.0
            },
            {
                "start_time": 17.702272727272728,
                "end_time": 17.736363636363635,
                "pitch": 30,
                "velocity": 64,
                "duration": 0.03409090909090651,
                "tempo": 120.0
            },
            {
                "start_time": 17.736363636363635,
                "end_time": 17.752272727272725,
                "pitch": 27,
                "velocity": 64,
                "duration": 0.01590909090909065,
                "tempo": 120.0
            },
            {
                "start_time": 17.752272727272725,
                "end_time": 17.768181818181816,
                "pitch": 24,
                "velocity": 64,
                "duration": 0.01590909090909065,
                "tempo": 120.0
            },
            {
                "start_time": 17.886363636363637,
                "end_time": 17.93409090909091,
                "pitch": 48,
                "velocity": 64,
                "duration": 0.04772727272727195,
                "tempo": 120.0
            },
            {
                "start_time": 17.93409090909091,
                "end_time": 17.96590909090909,
                "pitch": 46,
                "velocity": 64,
                "duration": 0.0318181818181813,
                "tempo": 120.0
            },
            {
                "start_time": 17.96590909090909,
                "end_time": 17.99772727272727,
                "pitch": 43,
                "velocity": 64,
                "duration": 0.0318181818181813,
                "tempo": 120.0
            },
            {
                "start_time": 17.99772727272727,
                "end_time": 18.03181818181818,
                "pitch": 41,
                "velocity": 64,
                "duration": 0.03409090909091006,
                "tempo": 120.0
            },
            {
                "start_time": 18.03181818181818,
                "end_time": 18.047727272727272,
                "pitch": 37,
                "velocity": 64,
                "duration": 0.01590909090909065,
                "tempo": 120.0
            },
            {
                "start_time": 18.047727272727272,
                "end_time": 18.079545454545453,
                "pitch": 35,
                "velocity": 64,
                "duration": 0.0318181818181813,
                "tempo": 120.0
            },
            {
                "start_time": 18.079545454545453,
                "end_time": 18.095454545454544,
                "pitch": 33,
                "velocity": 64,
                "duration": 0.01590909090909065,
                "tempo": 120.0
            },
            {
                "start_time": 18.095454545454544,
                "end_time": 18.111363636363635,
                "pitch": 30,
                "velocity": 64,
                "duration": 0.01590909090909065,
                "tempo": 120.0
            },
            {
                "start_time": 18.111363636363635,
                "end_time": 18.127272727272725,
                "pitch": 27,
                "velocity": 64,
                "duration": 0.01590909090909065,
                "tempo": 120.0
            },
            {
                "start_time": 18.127272727272725,
                "end_time": 18.143181818181816,
                "pitch": 24,
                "velocity": 64,
                "duration": 0.01590909090909065,
                "tempo": 120.0
            },
            {
                "start_time": 18.647727272727273,
                "end_time": 18.69772727272727,
                "pitch": 52,
                "velocity": 64,
                "duration": 0.04999999999999716,
                "tempo": 120.0
            },
            {
                "start_time": 18.69772727272727,
                "end_time": 18.745454545454546,
                "pitch": 49,
                "velocity": 64,
                "duration": 0.047727272727275505,
                "tempo": 120.0
            },
            {
                "start_time": 18.745454545454546,
                "end_time": 18.795454545454543,
                "pitch": 46,
                "velocity": 64,
                "duration": 0.04999999999999716,
                "tempo": 120.0
            },
            {
                "start_time": 18.795454545454543,
                "end_time": 18.827272727272728,
                "pitch": 44,
                "velocity": 64,
                "duration": 0.031818181818184854,
                "tempo": 120.0
            },
            {
                "start_time": 18.827272727272728,
                "end_time": 18.861363636363635,
                "pitch": 41,
                "velocity": 64,
                "duration": 0.03409090909090651,
                "tempo": 120.0
            },
            {
                "start_time": 18.861363636363635,
                "end_time": 18.877272727272725,
                "pitch": 38,
                "velocity": 64,
                "duration": 0.01590909090909065,
                "tempo": 120.0
            },
            {
                "start_time": 18.877272727272725,
                "end_time": 18.895454545454545,
                "pitch": 36,
                "velocity": 64,
                "duration": 0.01818181818181941,
                "tempo": 120.0
            },
            {
                "start_time": 19.163636363636364,
                "end_time": 19.179545454545455,
                "pitch": 55,
                "velocity": 64,
                "duration": 0.01590909090909065,
                "tempo": 120.0
            },
            {
                "start_time": 17.131818181818183,
                "end_time": 19.179545454545455,
                "pitch": 67,
                "velocity": 64,
                "duration": 2.047727272727272,
                "tempo": 120.0
            },
            {
                "start_time": 19.179545454545455,
                "end_time": 19.229545454545455,
                "pitch": 54,
                "velocity": 64,
                "duration": 0.05000000000000071,
                "tempo": 120.0
            },
            {
                "start_time": 19.229545454545455,
                "end_time": 19.279545454545453,
                "pitch": 52,
                "velocity": 64,
                "duration": 0.04999999999999716,
                "tempo": 120.0
            },
            {
                "start_time": 19.279545454545453,
                "end_time": 19.345454545454544,
                "pitch": 49,
                "velocity": 64,
                "duration": 0.06590909090909136,
                "tempo": 120.0
            },
            {
                "start_time": 19.345454545454544,
                "end_time": 19.379545454545454,
                "pitch": 46,
                "velocity": 64,
                "duration": 0.03409090909091006,
                "tempo": 120.0
            },
            {
                "start_time": 19.379545454545454,
                "end_time": 19.413636363636364,
                "pitch": 44,
                "velocity": 64,
                "duration": 0.03409090909091006,
                "tempo": 120.0
            },
            {
                "start_time": 19.413636363636364,
                "end_time": 19.44772727272727,
                "pitch": 48,
                "velocity": 64,
                "duration": 0.03409090909090651,
                "tempo": 120.0
            },
            {
                "start_time": 19.44772727272727,
                "end_time": 19.49772727272727,
                "pitch": 46,
                "velocity": 64,
                "duration": 0.05000000000000071,
                "tempo": 120.0
            },
            {
                "start_time": 19.49772727272727,
                "end_time": 19.529545454545453,
                "pitch": 43,
                "velocity": 64,
                "duration": 0.0318181818181813,
                "tempo": 120.0
            },
            {
                "start_time": 19.529545454545453,
                "end_time": 19.547727272727272,
                "pitch": 41,
                "velocity": 64,
                "duration": 0.01818181818181941,
                "tempo": 120.0
            },
            {
                "start_time": 19.547727272727272,
                "end_time": 19.581818181818182,
                "pitch": 48,
                "velocity": 64,
                "duration": 0.03409090909091006,
                "tempo": 120.0
            },
            {
                "start_time": 19.581818181818182,
                "end_time": 19.613636363636363,
                "pitch": 46,
                "velocity": 64,
                "duration": 0.0318181818181813,
                "tempo": 120.0
            },
            {
                "start_time": 19.613636363636363,
                "end_time": 19.647727272727273,
                "pitch": 43,
                "velocity": 64,
                "duration": 0.03409090909091006,
                "tempo": 120.0
            },
            {
                "start_time": 19.647727272727273,
                "end_time": 19.69772727272727,
                "pitch": 41,
                "velocity": 64,
                "duration": 0.04999999999999716,
                "tempo": 120.0
            },
            {
                "start_time": 19.69772727272727,
                "end_time": 19.71363636363636,
                "pitch": 37,
                "velocity": 64,
                "duration": 0.01590909090909065,
                "tempo": 120.0
            },
            {
                "start_time": 19.71363636363636,
                "end_time": 19.73181818181818,
                "pitch": 35,
                "velocity": 64,
                "duration": 0.01818181818181941,
                "tempo": 120.0
            },
            {
                "start_time": 19.73181818181818,
                "end_time": 19.74772727272727,
                "pitch": 33,
                "velocity": 64,
                "duration": 0.01590909090909065,
                "tempo": 120.0
            },
            {
                "start_time": 19.74772727272727,
                "end_time": 19.76590909090909,
                "pitch": 30,
                "velocity": 64,
                "duration": 0.01818181818181941,
                "tempo": 120.0
            },
            {
                "start_time": 19.76590909090909,
                "end_time": 19.78181818181818,
                "pitch": 27,
                "velocity": 64,
                "duration": 0.01590909090909065,
                "tempo": 120.0
            },
            {
                "start_time": 19.78181818181818,
                "end_time": 19.797727272727272,
                "pitch": 24,
                "velocity": 64,
                "duration": 0.01590909090909065,
                "tempo": 120.0
            },
            {
                "start_time": 19.93409090909091,
                "end_time": 19.96590909090909,
                "pitch": 48,
                "velocity": 64,
                "duration": 0.0318181818181813,
                "tempo": 120.0
            },
            {
                "start_time": 19.96590909090909,
                "end_time": 20.0,
                "pitch": 46,
                "velocity": 64,
                "duration": 0.03409090909091006,
                "tempo": 120.0
            },
            {
                "start_time": 20.0,
                "end_time": 20.05,
                "pitch": 43,
                "velocity": 64,
                "duration": 0.05000000000000071,
                "tempo": 120.0
            },
            {
                "start_time": 20.05,
                "end_time": 20.084090909090907,
                "pitch": 41,
                "velocity": 64,
                "duration": 0.03409090909090651,
                "tempo": 120.0
            },
            {
                "start_time": 20.084090909090907,
                "end_time": 20.099999999999998,
                "pitch": 37,
                "velocity": 64,
                "duration": 0.01590909090909065,
                "tempo": 120.0
            },
            {
                "start_time": 20.099999999999998,
                "end_time": 20.11590909090909,
                "pitch": 35,
                "velocity": 64,
                "duration": 0.01590909090909065,
                "tempo": 120.0
            },
            {
                "start_time": 20.11590909090909,
                "end_time": 20.134090909090908,
                "pitch": 33,
                "velocity": 64,
                "duration": 0.01818181818181941,
                "tempo": 120.0
            },
            {
                "start_time": 20.134090909090908,
                "end_time": 20.15,
                "pitch": 30,
                "velocity": 64,
                "duration": 0.01590909090909065,
                "tempo": 120.0
            },
            {
                "start_time": 20.15,
                "end_time": 20.16590909090909,
                "pitch": 27,
                "velocity": 64,
                "duration": 0.01590909090909065,
                "tempo": 120.0
            },
            {
                "start_time": 20.16590909090909,
                "end_time": 20.18409090909091,
                "pitch": 24,
                "velocity": 64,
                "duration": 0.01818181818181941,
                "tempo": 120.0
            },
            {
                "start_time": 20.702272727272724,
                "end_time": 20.752272727272725,
                "pitch": 52,
                "velocity": 64,
                "duration": 0.05000000000000071,
                "tempo": 120.0
            },
            {
                "start_time": 20.752272727272725,
                "end_time": 20.802272727272726,
                "pitch": 52,
                "velocity": 64,
                "duration": 0.05000000000000071,
                "tempo": 120.0
            },
            {
                "start_time": 20.802272727272726,
                "end_time": 20.836363636363636,
                "pitch": 49,
                "velocity": 64,
                "duration": 0.03409090909091006,
                "tempo": 120.0
            },
            {
                "start_time": 20.836363636363636,
                "end_time": 20.886363636363637,
                "pitch": 52,
                "velocity": 64,
                "duration": 0.05000000000000071,
                "tempo": 120.0
            },
            {
                "start_time": 20.886363636363637,
                "end_time": 20.954545454545453,
                "pitch": 49,
                "velocity": 64,
                "duration": 0.06818181818181657,
                "tempo": 120.0
            },
            {
                "start_time": 20.954545454545453,
                "end_time": 20.972727272727273,
                "pitch": 47,
                "velocity": 64,
                "duration": 0.01818181818181941,
                "tempo": 120.0
            },
            {
                "start_time": 21.21818181818182,
                "end_time": 21.23409090909091,
                "pitch": 55,
                "velocity": 64,
                "duration": 0.01590909090909065,
                "tempo": 120.0
            },
            {
                "start_time": 19.179545454545455,
                "end_time": 21.23409090909091,
                "pitch": 67,
                "velocity": 64,
                "duration": 2.0545454545454547,
                "tempo": 120.0
            },
            {
                "start_time": 21.23409090909091,
                "end_time": 21.3,
                "pitch": 54,
                "velocity": 64,
                "duration": 0.06590909090909136,
                "tempo": 120.0
            },
            {
                "start_time": 21.3,
                "end_time": 21.349999999999998,
                "pitch": 52,
                "velocity": 64,
                "duration": 0.04999999999999716,
                "tempo": 120.0
            },
            {
                "start_time": 21.349999999999998,
                "end_time": 21.397727272727273,
                "pitch": 49,
                "velocity": 64,
                "duration": 0.047727272727275505,
                "tempo": 120.0
            },
            {
                "start_time": 21.397727272727273,
                "end_time": 21.43181818181818,
                "pitch": 46,
                "velocity": 64,
                "duration": 0.03409090909090651,
                "tempo": 120.0
            },
            {
                "start_time": 21.43181818181818,
                "end_time": 21.48181818181818,
                "pitch": 44,
                "velocity": 64,
                "duration": 0.05000000000000071,
                "tempo": 120.0
            },
            {
                "start_time": 21.48181818181818,
                "end_time": 21.513636363636362,
                "pitch": 48,
                "velocity": 64,
                "duration": 0.0318181818181813,
                "tempo": 120.0
            },
            {
                "start_time": 21.513636363636362,
                "end_time": 21.547727272727272,
                "pitch": 46,
                "velocity": 64,
                "duration": 0.03409090909091006,
                "tempo": 120.0
            },
            {
                "start_time": 21.547727272727272,
                "end_time": 21.581818181818182,
                "pitch": 43,
                "velocity": 64,
                "duration": 0.03409090909091006,
                "tempo": 120.0
            },
            {
                "start_time": 21.581818181818182,
                "end_time": 21.597727272727273,
                "pitch": 41,
                "velocity": 64,
                "duration": 0.01590909090909065,
                "tempo": 120.0
            },
            {
                "start_time": 21.597727272727273,
                "end_time": 21.647727272727273,
                "pitch": 48,
                "velocity": 64,
                "duration": 0.05000000000000071,
                "tempo": 120.0
            },
            {
                "start_time": 21.647727272727273,
                "end_time": 21.68181818181818,
                "pitch": 46,
                "velocity": 64,
                "duration": 0.03409090909090651,
                "tempo": 120.0
            },
            {
                "start_time": 21.68181818181818,
                "end_time": 21.71590909090909,
                "pitch": 43,
                "velocity": 64,
                "duration": 0.03409090909091006,
                "tempo": 120.0
            },
            {
                "start_time": 21.71590909090909,
                "end_time": 21.74772727272727,
                "pitch": 41,
                "velocity": 64,
                "duration": 0.0318181818181813,
                "tempo": 120.0
            },
            {
                "start_time": 21.74772727272727,
                "end_time": 21.76590909090909,
                "pitch": 37,
                "velocity": 64,
                "duration": 0.01818181818181941,
                "tempo": 120.0
            },
            {
                "start_time": 21.76590909090909,
                "end_time": 21.78181818181818,
                "pitch": 35,
                "velocity": 64,
                "duration": 0.01590909090909065,
                "tempo": 120.0
            },
            {
                "start_time": 21.78181818181818,
                "end_time": 21.81590909090909,
                "pitch": 33,
                "velocity": 64,
                "duration": 0.03409090909091006,
                "tempo": 120.0
            },
            {
                "start_time": 21.81590909090909,
                "end_time": 21.831818181818182,
                "pitch": 30,
                "velocity": 64,
                "duration": 0.01590909090909065,
                "tempo": 120.0
            },
            {
                "start_time": 21.831818181818182,
                "end_time": 21.849999999999998,
                "pitch": 27,
                "velocity": 64,
                "duration": 0.018181818181815856,
                "tempo": 120.0
            },
            {
                "start_time": 21.849999999999998,
                "end_time": 21.86590909090909,
                "pitch": 24,
                "velocity": 64,
                "duration": 0.01590909090909065,
                "tempo": 120.0
            },
            {
                "start_time": 22.002272727272725,
                "end_time": 22.034090909090907,
                "pitch": 48,
                "velocity": 64,
                "duration": 0.0318181818181813,
                "tempo": 120.0
            },
            {
                "start_time": 22.034090909090907,
                "end_time": 22.06590909090909,
                "pitch": 46,
                "velocity": 64,
                "duration": 0.031818181818184854,
                "tempo": 120.0
            },
            {
                "start_time": 22.06590909090909,
                "end_time": 22.099999999999998,
                "pitch": 43,
                "velocity": 64,
                "duration": 0.03409090909090651,
                "tempo": 120.0
            },
            {
                "start_time": 22.099999999999998,
                "end_time": 22.134090909090908,
                "pitch": 41,
                "velocity": 64,
                "duration": 0.03409090909091006,
                "tempo": 120.0
            },
            {
                "start_time": 22.134090909090908,
                "end_time": 22.15,
                "pitch": 37,
                "velocity": 64,
                "duration": 0.01590909090909065,
                "tempo": 120.0
            },
            {
                "start_time": 22.15,
                "end_time": 22.18409090909091,
                "pitch": 35,
                "velocity": 64,
                "duration": 0.03409090909091006,
                "tempo": 120.0
            },
            {
                "start_time": 22.18409090909091,
                "end_time": 22.2,
                "pitch": 33,
                "velocity": 64,
                "duration": 0.01590909090909065,
                "tempo": 120.0
            },
            {
                "start_time": 22.2,
                "end_time": 22.21818181818182,
                "pitch": 30,
                "velocity": 64,
                "duration": 0.01818181818181941,
                "tempo": 120.0
            },
            {
                "start_time": 22.21818181818182,
                "end_time": 22.23409090909091,
                "pitch": 27,
                "velocity": 64,
                "duration": 0.01590909090909065,
                "tempo": 120.0
            },
            {
                "start_time": 22.23409090909091,
                "end_time": 22.252272727272725,
                "pitch": 24,
                "velocity": 64,
                "duration": 0.018181818181815856,
                "tempo": 120.0
            },
            {
                "start_time": 22.759090909090908,
                "end_time": 22.80681818181818,
                "pitch": 52,
                "velocity": 64,
                "duration": 0.04772727272727195,
                "tempo": 120.0
            },
            {
                "start_time": 22.80681818181818,
                "end_time": 22.854545454545452,
                "pitch": 49,
                "velocity": 64,
                "duration": 0.04772727272727195,
                "tempo": 120.0
            },
            {
                "start_time": 22.854545454545452,
                "end_time": 22.904545454545453,
                "pitch": 46,
                "velocity": 64,
                "duration": 0.05000000000000071,
                "tempo": 120.0
            },
            {
                "start_time": 22.904545454545453,
                "end_time": 22.936363636363634,
                "pitch": 44,
                "velocity": 64,
                "duration": 0.0318181818181813,
                "tempo": 120.0
            },
            {
                "start_time": 22.936363636363634,
                "end_time": 22.96818181818182,
                "pitch": 41,
                "velocity": 64,
                "duration": 0.031818181818184854,
                "tempo": 120.0
            },
            {
                "start_time": 22.96818181818182,
                "end_time": 22.98409090909091,
                "pitch": 38,
                "velocity": 64,
                "duration": 0.01590909090909065,
                "tempo": 120.0
            },
            {
                "start_time": 22.98409090909091,
                "end_time": 23.0,
                "pitch": 36,
                "velocity": 64,
                "duration": 0.01590909090909065,
                "tempo": 120.0
            },
            {
                "start_time": 23.263636363636362,
                "end_time": 23.279545454545453,
                "pitch": 55,
                "velocity": 64,
                "duration": 0.01590909090909065,
                "tempo": 120.0
            },
            {
                "start_time": 21.23409090909091,
                "end_time": 23.279545454545453,
                "pitch": 67,
                "velocity": 64,
                "duration": 2.045454545454543,
                "tempo": 120.0
            },
            {
                "start_time": 23.279545454545453,
                "end_time": 23.329545454545453,
                "pitch": 55,
                "velocity": 64,
                "duration": 0.05000000000000071,
                "tempo": 120.0
            },
            {
                "start_time": 23.329545454545453,
                "end_time": 23.379545454545454,
                "pitch": 52,
                "velocity": 64,
                "duration": 0.05000000000000071,
                "tempo": 120.0
            },
            {
                "start_time": 23.379545454545454,
                "end_time": 23.445454545454545,
                "pitch": 49,
                "velocity": 64,
                "duration": 0.06590909090909136,
                "tempo": 120.0
            },
            {
                "start_time": 23.445454545454545,
                "end_time": 23.477272727272727,
                "pitch": 46,
                "velocity": 64,
                "duration": 0.0318181818181813,
                "tempo": 120.0
            },
            {
                "start_time": 23.477272727272727,
                "end_time": 23.511363636363637,
                "pitch": 44,
                "velocity": 64,
                "duration": 0.03409090909091006,
                "tempo": 120.0
            },
            {
                "start_time": 23.511363636363637,
                "end_time": 23.543181818181818,
                "pitch": 48,
                "velocity": 64,
                "duration": 0.0318181818181813,
                "tempo": 120.0
            },
            {
                "start_time": 23.543181818181818,
                "end_time": 23.59318181818182,
                "pitch": 46,
                "velocity": 64,
                "duration": 0.05000000000000071,
                "tempo": 120.0
            },
            {
                "start_time": 23.59318181818182,
                "end_time": 23.627272727272725,
                "pitch": 43,
                "velocity": 64,
                "duration": 0.03409090909090651,
                "tempo": 120.0
            },
            {
                "start_time": 23.627272727272725,
                "end_time": 23.643181818181816,
                "pitch": 41,
                "velocity": 64,
                "duration": 0.01590909090909065,
                "tempo": 120.0
            },
            {
                "start_time": 23.645454545454545,
                "end_time": 23.677272727272726,
                "pitch": 48,
                "velocity": 64,
                "duration": 0.0318181818181813,
                "tempo": 120.0
            },
            {
                "start_time": 23.677272727272726,
                "end_time": 23.711363636363636,
                "pitch": 46,
                "velocity": 64,
                "duration": 0.03409090909091006,
                "tempo": 120.0
            },
            {
                "start_time": 23.711363636363636,
                "end_time": 23.761363636363637,
                "pitch": 43,
                "velocity": 64,
                "duration": 0.05000000000000071,
                "tempo": 120.0
            },
            {
                "start_time": 23.761363636363637,
                "end_time": 23.795454545454543,
                "pitch": 41,
                "velocity": 64,
                "duration": 0.03409090909090651,
                "tempo": 120.0
            },
            {
                "start_time": 23.795454545454543,
                "end_time": 23.811363636363634,
                "pitch": 37,
                "velocity": 64,
                "duration": 0.01590909090909065,
                "tempo": 120.0
            },
            {
                "start_time": 23.811363636363634,
                "end_time": 23.829545454545453,
                "pitch": 35,
                "velocity": 64,
                "duration": 0.01818181818181941,
                "tempo": 120.0
            },
            {
                "start_time": 23.829545454545453,
                "end_time": 23.845454545454544,
                "pitch": 33,
                "velocity": 64,
                "duration": 0.01590909090909065,
                "tempo": 120.0
            },
            {
                "start_time": 23.845454545454544,
                "end_time": 23.861363636363635,
                "pitch": 30,
                "velocity": 64,
                "duration": 0.01590909090909065,
                "tempo": 120.0
            },
            {
                "start_time": 23.861363636363635,
                "end_time": 23.879545454545454,
                "pitch": 27,
                "velocity": 64,
                "duration": 0.01818181818181941,
                "tempo": 120.0
            },
            {
                "start_time": 23.879545454545454,
                "end_time": 23.895454545454545,
                "pitch": 24,
                "velocity": 64,
                "duration": 0.01590909090909065,
                "tempo": 120.0
            },
            {
                "start_time": 24.029545454545453,
                "end_time": 24.063636363636363,
                "pitch": 48,
                "velocity": 64,
                "duration": 0.03409090909091006,
                "tempo": 120.0
            },
            {
                "start_time": 24.063636363636363,
                "end_time": 24.095454545454544,
                "pitch": 46,
                "velocity": 64,
                "duration": 0.0318181818181813,
                "tempo": 120.0
            },
            {
                "start_time": 24.095454545454544,
                "end_time": 24.145454545454545,
                "pitch": 43,
                "velocity": 64,
                "duration": 0.05000000000000071,
                "tempo": 120.0
            },
            {
                "start_time": 24.145454545454545,
                "end_time": 24.179545454545455,
                "pitch": 41,
                "velocity": 64,
                "duration": 0.03409090909091006,
                "tempo": 120.0
            },
            {
                "start_time": 24.179545454545455,
                "end_time": 24.19772727272727,
                "pitch": 37,
                "velocity": 64,
                "duration": 0.018181818181815856,
                "tempo": 120.0
            },
            {
                "start_time": 24.19772727272727,
                "end_time": 24.21363636363636,
                "pitch": 35,
                "velocity": 64,
                "duration": 0.01590909090909065,
                "tempo": 120.0
            },
            {
                "start_time": 24.21363636363636,
                "end_time": 24.229545454545452,
                "pitch": 33,
                "velocity": 64,
                "duration": 0.01590909090909065,
                "tempo": 120.0
            },
            {
                "start_time": 24.229545454545452,
                "end_time": 24.24772727272727,
                "pitch": 30,
                "velocity": 64,
                "duration": 0.01818181818181941,
                "tempo": 120.0
            },
            {
                "start_time": 24.24772727272727,
                "end_time": 24.263636363636362,
                "pitch": 27,
                "velocity": 64,
                "duration": 0.01590909090909065,
                "tempo": 120.0
            },
            {
                "start_time": 24.263636363636362,
                "end_time": 24.297727272727272,
                "pitch": 24,
                "velocity": 64,
                "duration": 0.03409090909091006,
                "tempo": 120.0
            },
            {
                "start_time": 24.799999999999997,
                "end_time": 24.849999999999998,
                "pitch": 52,
                "velocity": 64,
                "duration": 0.05000000000000071,
                "tempo": 120.0
            },
            {
                "start_time": 24.849999999999998,
                "end_time": 24.9,
                "pitch": 52,
                "velocity": 64,
                "duration": 0.05000000000000071,
                "tempo": 120.0
            },
            {
                "start_time": 24.9,
                "end_time": 24.93409090909091,
                "pitch": 49,
                "velocity": 64,
                "duration": 0.03409090909091006,
                "tempo": 120.0
            },
            {
                "start_time": 24.93409090909091,
                "end_time": 24.98409090909091,
                "pitch": 52,
                "velocity": 64,
                "duration": 0.05000000000000071,
                "tempo": 120.0
            },
            {
                "start_time": 24.98409090909091,
                "end_time": 25.049999999999997,
                "pitch": 49,
                "velocity": 64,
                "duration": 0.06590909090908781,
                "tempo": 120.0
            },
            {
                "start_time": 25.049999999999997,
                "end_time": 25.068181818181817,
                "pitch": 46,
                "velocity": 64,
                "duration": 0.01818181818181941,
                "tempo": 120.0
            },
            {
                "start_time": 23.279545454545453,
                "end_time": 25.320454545454545,
                "pitch": 67,
                "velocity": 64,
                "duration": 2.040909090909093,
                "tempo": 120.0
            },
            {
                "start_time": 25.320454545454545,
                "end_time": 25.402272727272727,
                "pitch": 55,
                "velocity": 64,
                "duration": 0.08181818181818201,
                "tempo": 120.0
            },
            {
                "start_time": 25.320454545454545,
                "end_time": 25.402272727272727,
                "pitch": 55,
                "velocity": 64,
                "duration": 0.08181818181818201,
                "tempo": 120.0
            },
            {
                "start_time": 25.402272727272727,
                "end_time": 25.452272727272724,
                "pitch": 52,
                "velocity": 64,
                "duration": 0.04999999999999716,
                "tempo": 120.0
            },
            {
                "start_time": 25.452272727272724,
                "end_time": 25.502272727272725,
                "pitch": 49,
                "velocity": 64,
                "duration": 0.05000000000000071,
                "tempo": 120.0
            },
            {
                "start_time": 25.502272727272725,
                "end_time": 25.552272727272726,
                "pitch": 47,
                "velocity": 64,
                "duration": 0.05000000000000071,
                "tempo": 120.0
            },
            {
                "start_time": 25.552272727272726,
                "end_time": 25.586363636363636,
                "pitch": 44,
                "velocity": 64,
                "duration": 0.03409090909091006,
                "tempo": 120.0
            },
            {
                "start_time": 25.586363636363636,
                "end_time": 25.620454545454542,
                "pitch": 48,
                "velocity": 64,
                "duration": 0.03409090909090651,
                "tempo": 120.0
            },
            {
                "start_time": 25.620454545454542,
                "end_time": 25.652272727272727,
                "pitch": 46,
                "velocity": 64,
                "duration": 0.031818181818184854,
                "tempo": 120.0
            },
            {
                "start_time": 25.652272727272727,
                "end_time": 25.686363636363634,
                "pitch": 43,
                "velocity": 64,
                "duration": 0.03409090909090651,
                "tempo": 120.0
            },
            {
                "start_time": 25.686363636363634,
                "end_time": 25.702272727272724,
                "pitch": 41,
                "velocity": 64,
                "duration": 0.01590909090909065,
                "tempo": 120.0
            },
            {
                "start_time": 25.702272727272724,
                "end_time": 25.752272727272725,
                "pitch": 48,
                "velocity": 64,
                "duration": 0.05000000000000071,
                "tempo": 120.0
            },
            {
                "start_time": 25.752272727272725,
                "end_time": 25.784090909090907,
                "pitch": 46,
                "velocity": 64,
                "duration": 0.0318181818181813,
                "tempo": 120.0
            },
            {
                "start_time": 25.784090909090907,
                "end_time": 25.818181818181817,
                "pitch": 43,
                "velocity": 64,
                "duration": 0.03409090909091006,
                "tempo": 120.0
            },
            {
                "start_time": 25.818181818181817,
                "end_time": 25.849999999999998,
                "pitch": 41,
                "velocity": 64,
                "duration": 0.0318181818181813,
                "tempo": 120.0
            },
            {
                "start_time": 25.849999999999998,
                "end_time": 25.86590909090909,
                "pitch": 37,
                "velocity": 64,
                "duration": 0.01590909090909065,
                "tempo": 120.0
            },
            {
                "start_time": 25.86590909090909,
                "end_time": 25.884090909090908,
                "pitch": 35,
                "velocity": 64,
                "duration": 0.01818181818181941,
                "tempo": 120.0
            },
            {
                "start_time": 25.884090909090908,
                "end_time": 25.91590909090909,
                "pitch": 33,
                "velocity": 64,
                "duration": 0.0318181818181813,
                "tempo": 120.0
            },
            {
                "start_time": 25.91590909090909,
                "end_time": 25.93181818181818,
                "pitch": 30,
                "velocity": 64,
                "duration": 0.01590909090909065,
                "tempo": 120.0
            },
            {
                "start_time": 25.93181818181818,
                "end_time": 25.94772727272727,
                "pitch": 27,
                "velocity": 64,
                "duration": 0.01590909090909065,
                "tempo": 120.0
            },
            {
                "start_time": 25.94772727272727,
                "end_time": 25.96590909090909,
                "pitch": 24,
                "velocity": 64,
                "duration": 0.01818181818181941,
                "tempo": 120.0
            },
            {
                "start_time": 26.097727272727273,
                "end_time": 26.129545454545454,
                "pitch": 48,
                "velocity": 64,
                "duration": 0.0318181818181813,
                "tempo": 120.0
            },
            {
                "start_time": 26.129545454545454,
                "end_time": 26.163636363636364,
                "pitch": 46,
                "velocity": 64,
                "duration": 0.03409090909091006,
                "tempo": 120.0
            },
            {
                "start_time": 26.163636363636364,
                "end_time": 26.19772727272727,
                "pitch": 43,
                "velocity": 64,
                "duration": 0.03409090909090651,
                "tempo": 120.0
            },
            {
                "start_time": 26.19772727272727,
                "end_time": 26.23181818181818,
                "pitch": 41,
                "velocity": 64,
                "duration": 0.03409090909091006,
                "tempo": 120.0
            },
            {
                "start_time": 26.23181818181818,
                "end_time": 26.263636363636362,
                "pitch": 38,
                "velocity": 64,
                "duration": 0.0318181818181813,
                "tempo": 120.0
            },
            {
                "start_time": 26.263636363636362,
                "end_time": 26.28181818181818,
                "pitch": 35,
                "velocity": 64,
                "duration": 0.01818181818181941,
                "tempo": 120.0
            },
            {
                "start_time": 26.28181818181818,
                "end_time": 26.297727272727272,
                "pitch": 33,
                "velocity": 64,
                "duration": 0.01590909090909065,
                "tempo": 120.0
            },
            {
                "start_time": 26.297727272727272,
                "end_time": 26.313636363636363,
                "pitch": 30,
                "velocity": 64,
                "duration": 0.01590909090909065,
                "tempo": 120.0
            },
            {
                "start_time": 26.313636363636363,
                "end_time": 26.331818181818182,
                "pitch": 27,
                "velocity": 64,
                "duration": 0.01818181818181941,
                "tempo": 120.0
            },
            {
                "start_time": 26.331818181818182,
                "end_time": 26.347727272727273,
                "pitch": 24,
                "velocity": 64,
                "duration": 0.01590909090909065,
                "tempo": 120.0
            },
            {
                "start_time": 26.85681818181818,
                "end_time": 26.904545454545453,
                "pitch": 52,
                "velocity": 64,
                "duration": 0.04772727272727195,
                "tempo": 120.0
            },
            {
                "start_time": 26.904545454545453,
                "end_time": 26.968181818181815,
                "pitch": 49,
                "velocity": 64,
                "duration": 0.0636363636363626,
                "tempo": 120.0
            },
            {
                "start_time": 26.968181818181815,
                "end_time": 27.0,
                "pitch": 47,
                "velocity": 64,
                "duration": 0.031818181818184854,
                "tempo": 120.0
            },
            {
                "start_time": 27.0,
                "end_time": 27.03181818181818,
                "pitch": 44,
                "velocity": 64,
                "duration": 0.0318181818181813,
                "tempo": 120.0
            },
            {
                "start_time": 27.03181818181818,
                "end_time": 27.063636363636363,
                "pitch": 41,
                "velocity": 64,
                "duration": 0.0318181818181813,
                "tempo": 120.0
            },
            {
                "start_time": 27.063636363636363,
                "end_time": 27.081818181818182,
                "pitch": 38,
                "velocity": 64,
                "duration": 0.01818181818181941,
                "tempo": 120.0
            },
            {
                "start_time": 27.081818181818182,
                "end_time": 27.097727272727273,
                "pitch": 36,
                "velocity": 64,
                "duration": 0.01590909090909065,
                "tempo": 120.0
            },
            {
                "start_time": 27.36590909090909,
                "end_time": 27.38181818181818,
                "pitch": 55,
                "velocity": 64,
                "duration": 0.01590909090909065,
                "tempo": 120.0
            },
            {
                "start_time": 25.320454545454545,
                "end_time": 27.38181818181818,
                "pitch": 67,
                "velocity": 64,
                "duration": 2.061363636363634,
                "tempo": 120.0
            },
            {
                "start_time": 27.38181818181818,
                "end_time": 27.43181818181818,
                "pitch": 54,
                "velocity": 64,
                "duration": 0.05000000000000071,
                "tempo": 120.0
            },
            {
                "start_time": 27.43181818181818,
                "end_time": 27.49772727272727,
                "pitch": 52,
                "velocity": 64,
                "duration": 0.06590909090909136,
                "tempo": 120.0
            },
            {
                "start_time": 27.49772727272727,
                "end_time": 27.547727272727272,
                "pitch": 49,
                "velocity": 64,
                "duration": 0.05000000000000071,
                "tempo": 120.0
            },
            {
                "start_time": 27.547727272727272,
                "end_time": 27.581818181818182,
                "pitch": 46,
                "velocity": 64,
                "duration": 0.03409090909091006,
                "tempo": 120.0
            },
            {
                "start_time": 27.581818181818182,
                "end_time": 27.61590909090909,
                "pitch": 44,
                "velocity": 64,
                "duration": 0.03409090909090651,
                "tempo": 120.0
            },
            {
                "start_time": 27.61590909090909,
                "end_time": 27.64772727272727,
                "pitch": 48,
                "velocity": 64,
                "duration": 0.0318181818181813,
                "tempo": 120.0
            },
            {
                "start_time": 27.64772727272727,
                "end_time": 27.69772727272727,
                "pitch": 46,
                "velocity": 64,
                "duration": 0.05000000000000071,
                "tempo": 120.0
            },
            {
                "start_time": 27.69772727272727,
                "end_time": 27.73181818181818,
                "pitch": 43,
                "velocity": 64,
                "duration": 0.03409090909091006,
                "tempo": 120.0
            },
            {
                "start_time": 27.73181818181818,
                "end_time": 27.74772727272727,
                "pitch": 41,
                "velocity": 64,
                "duration": 0.01590909090909065,
                "tempo": 120.0
            },
            {
                "start_time": 27.74772727272727,
                "end_time": 27.779545454545453,
                "pitch": 48,
                "velocity": 64,
                "duration": 0.0318181818181813,
                "tempo": 120.0
            },
            {
                "start_time": 27.779545454545453,
                "end_time": 27.813636363636363,
                "pitch": 46,
                "velocity": 64,
                "duration": 0.03409090909091006,
                "tempo": 120.0
            },
            {
                "start_time": 27.813636363636363,
                "end_time": 27.863636363636363,
                "pitch": 43,
                "velocity": 64,
                "duration": 0.05000000000000071,
                "tempo": 120.0
            },
            {
                "start_time": 27.863636363636363,
                "end_time": 27.895454545454545,
                "pitch": 41,
                "velocity": 64,
                "duration": 0.0318181818181813,
                "tempo": 120.0
            },
            {
                "start_time": 27.895454545454545,
                "end_time": 27.911363636363635,
                "pitch": 37,
                "velocity": 64,
                "duration": 0.01590909090909065,
                "tempo": 120.0
            },
            {
                "start_time": 27.911363636363635,
                "end_time": 27.929545454545455,
                "pitch": 35,
                "velocity": 64,
                "duration": 0.01818181818181941,
                "tempo": 120.0
            },
            {
                "start_time": 27.929545454545455,
                "end_time": 27.945454545454545,
                "pitch": 33,
                "velocity": 64,
                "duration": 0.01590909090909065,
                "tempo": 120.0
            },
            {
                "start_time": 27.945454545454545,
                "end_time": 27.961363636363636,
                "pitch": 30,
                "velocity": 64,
                "duration": 0.01590909090909065,
                "tempo": 120.0
            },
            {
                "start_time": 27.961363636363636,
                "end_time": 27.977272727272727,
                "pitch": 27,
                "velocity": 64,
                "duration": 0.01590909090909065,
                "tempo": 120.0
            },
            {
                "start_time": 27.977272727272727,
                "end_time": 27.995454545454542,
                "pitch": 24,
                "velocity": 64,
                "duration": 0.018181818181815856,
                "tempo": 120.0
            },
            {
                "start_time": 28.127272727272725,
                "end_time": 28.159090909090907,
                "pitch": 48,
                "velocity": 64,
                "duration": 0.0318181818181813,
                "tempo": 120.0
            },
            {
                "start_time": 28.159090909090907,
                "end_time": 28.209090909090907,
                "pitch": 46,
                "velocity": 64,
                "duration": 0.05000000000000071,
                "tempo": 120.0
            },
            {
                "start_time": 28.209090909090907,
                "end_time": 28.243181818181817,
                "pitch": 43,
                "velocity": 64,
                "duration": 0.03409090909091006,
                "tempo": 120.0
            },
            {
                "start_time": 28.243181818181817,
                "end_time": 28.277272727272727,
                "pitch": 41,
                "velocity": 64,
                "duration": 0.03409090909091006,
                "tempo": 120.0
            },
            {
                "start_time": 28.277272727272727,
                "end_time": 28.293181818181818,
                "pitch": 37,
                "velocity": 64,
                "duration": 0.01590909090909065,
                "tempo": 120.0
            },
            {
                "start_time": 28.293181818181818,
                "end_time": 28.30909090909091,
                "pitch": 35,
                "velocity": 64,
                "duration": 0.01590909090909065,
                "tempo": 120.0
            },
            {
                "start_time": 28.30909090909091,
                "end_time": 28.327272727272724,
                "pitch": 33,
                "velocity": 64,
                "duration": 0.018181818181815856,
                "tempo": 120.0
            },
            {
                "start_time": 28.327272727272724,
                "end_time": 28.343181818181815,
                "pitch": 30,
                "velocity": 64,
                "duration": 0.01590909090909065,
                "tempo": 120.0
            },
            {
                "start_time": 28.343181818181815,
                "end_time": 28.361363636363635,
                "pitch": 27,
                "velocity": 64,
                "duration": 0.01818181818181941,
                "tempo": 120.0
            },
            {
                "start_time": 28.361363636363635,
                "end_time": 28.393181818181816,
                "pitch": 24,
                "velocity": 64,
                "duration": 0.0318181818181813,
                "tempo": 120.0
            },
            {
                "start_time": 28.89772727272727,
                "end_time": 28.945454545454545,
                "pitch": 52,
                "velocity": 64,
                "duration": 0.047727272727275505,
                "tempo": 120.0
            },
            {
                "start_time": 28.94772727272727,
                "end_time": 28.99772727272727,
                "pitch": 52,
                "velocity": 64,
                "duration": 0.05000000000000071,
                "tempo": 120.0
            },
            {
                "start_time": 28.99772727272727,
                "end_time": 29.029545454545453,
                "pitch": 49,
                "velocity": 64,
                "duration": 0.0318181818181813,
                "tempo": 120.0
            },
            {
                "start_time": 29.029545454545453,
                "end_time": 29.079545454545453,
                "pitch": 52,
                "velocity": 64,
                "duration": 0.05000000000000071,
                "tempo": 120.0
            },
            {
                "start_time": 29.079545454545453,
                "end_time": 29.14772727272727,
                "pitch": 49,
                "velocity": 64,
                "duration": 0.06818181818181657,
                "tempo": 120.0
            },
            {
                "start_time": 29.14772727272727,
                "end_time": 29.16590909090909,
                "pitch": 47,
                "velocity": 64,
                "duration": 0.01818181818181941,
                "tempo": 120.0
            },
            {
                "start_time": 29.41590909090909,
                "end_time": 29.43181818181818,
                "pitch": 55,
                "velocity": 64,
                "duration": 0.01590909090909065,
                "tempo": 120.0
            },
            {
                "start_time": 27.38181818181818,
                "end_time": 29.43181818181818,
                "pitch": 67,
                "velocity": 64,
                "duration": 2.0500000000000007,
                "tempo": 120.0
            },
            {
                "start_time": 29.43181818181818,
                "end_time": 29.5,
                "pitch": 54,
                "velocity": 64,
                "duration": 0.06818181818182012,
                "tempo": 120.0
            },
            {
                "start_time": 29.5,
                "end_time": 29.549999999999997,
                "pitch": 52,
                "velocity": 64,
                "duration": 0.04999999999999716,
                "tempo": 120.0
            },
            {
                "start_time": 29.549999999999997,
                "end_time": 29.599999999999998,
                "pitch": 49,
                "velocity": 64,
                "duration": 0.05000000000000071,
                "tempo": 120.0
            },
            {
                "start_time": 29.599999999999998,
                "end_time": 29.65,
                "pitch": 46,
                "velocity": 64,
                "duration": 0.05000000000000071,
                "tempo": 120.0
            },
            {
                "start_time": 29.65,
                "end_time": 29.68409090909091,
                "pitch": 44,
                "velocity": 64,
                "duration": 0.03409090909091006,
                "tempo": 120.0
            },
            {
                "start_time": 29.68409090909091,
                "end_time": 29.71590909090909,
                "pitch": 48,
                "velocity": 64,
                "duration": 0.0318181818181813,
                "tempo": 120.0
            },
            {
                "start_time": 29.71590909090909,
                "end_time": 29.75,
                "pitch": 46,
                "velocity": 64,
                "duration": 0.03409090909091006,
                "tempo": 120.0
            },
            {
                "start_time": 29.75,
                "end_time": 29.78181818181818,
                "pitch": 43,
                "velocity": 64,
                "duration": 0.0318181818181813,
                "tempo": 120.0
            },
            {
                "start_time": 29.78181818181818,
                "end_time": 29.815909090909088,
                "pitch": 41,
                "velocity": 64,
                "duration": 0.03409090909090651,
                "tempo": 120.0
            },
            {
                "start_time": 29.815909090909088,
                "end_time": 29.847727272727273,
                "pitch": 48,
                "velocity": 64,
                "duration": 0.031818181818184854,
                "tempo": 120.0
            },
            {
                "start_time": 29.847727272727273,
                "end_time": 29.88181818181818,
                "pitch": 46,
                "velocity": 64,
                "duration": 0.03409090909090651,
                "tempo": 120.0
            },
            {
                "start_time": 29.88181818181818,
                "end_time": 29.91363636363636,
                "pitch": 43,
                "velocity": 64,
                "duration": 0.0318181818181813,
                "tempo": 120.0
            },
            {
                "start_time": 29.91363636363636,
                "end_time": 29.945454545454545,
                "pitch": 41,
                "velocity": 64,
                "duration": 0.031818181818184854,
                "tempo": 120.0
            },
            {
                "start_time": 29.945454545454545,
                "end_time": 29.96363636363636,
                "pitch": 37,
                "velocity": 64,
                "duration": 0.018181818181815856,
                "tempo": 120.0
            },
            {
                "start_time": 29.96363636363636,
                "end_time": 29.995454545454542,
                "pitch": 35,
                "velocity": 64,
                "duration": 0.0318181818181813,
                "tempo": 120.0
            },
            {
                "start_time": 29.995454545454542,
                "end_time": 30.011363636363633,
                "pitch": 33,
                "velocity": 64,
                "duration": 0.01590909090909065,
                "tempo": 120.0
            },
            {
                "start_time": 30.011363636363633,
                "end_time": 30.029545454545453,
                "pitch": 30,
                "velocity": 64,
                "duration": 0.01818181818181941,
                "tempo": 120.0
            },
            {
                "start_time": 30.029545454545453,
                "end_time": 30.045454545454543,
                "pitch": 27,
                "velocity": 64,
                "duration": 0.01590909090909065,
                "tempo": 120.0
            },
            {
                "start_time": 30.045454545454543,
                "end_time": 30.061363636363634,
                "pitch": 24,
                "velocity": 64,
                "duration": 0.01590909090909065,
                "tempo": 120.0
            },
            {
                "start_time": 30.193181818181817,
                "end_time": 30.227272727272727,
                "pitch": 48,
                "velocity": 64,
                "duration": 0.03409090909091006,
                "tempo": 120.0
            },
            {
                "start_time": 30.227272727272727,
                "end_time": 30.261363636363633,
                "pitch": 46,
                "velocity": 64,
                "duration": 0.03409090909090651,
                "tempo": 120.0
            },
            {
                "start_time": 30.261363636363633,
                "end_time": 30.295454545454543,
                "pitch": 43,
                "velocity": 64,
                "duration": 0.03409090909091006,
                "tempo": 120.0
            },
            {
                "start_time": 30.295454545454543,
                "end_time": 30.329545454545453,
                "pitch": 41,
                "velocity": 64,
                "duration": 0.03409090909091006,
                "tempo": 120.0
            },
            {
                "start_time": 30.329545454545453,
                "end_time": 30.363636363636363,
                "pitch": 37,
                "velocity": 64,
                "duration": 0.03409090909091006,
                "tempo": 120.0
            },
            {
                "start_time": 30.363636363636363,
                "end_time": 30.379545454545454,
                "pitch": 35,
                "velocity": 64,
                "duration": 0.01590909090909065,
                "tempo": 120.0
            },
            {
                "start_time": 30.379545454545454,
                "end_time": 30.39772727272727,
                "pitch": 33,
                "velocity": 64,
                "duration": 0.018181818181815856,
                "tempo": 120.0
            },
            {
                "start_time": 30.39772727272727,
                "end_time": 30.41363636363636,
                "pitch": 30,
                "velocity": 64,
                "duration": 0.01590909090909065,
                "tempo": 120.0
            },
            {
                "start_time": 30.41363636363636,
                "end_time": 30.43181818181818,
                "pitch": 27,
                "velocity": 64,
                "duration": 0.01818181818181941,
                "tempo": 120.0
            },
            {
                "start_time": 20.18409090909091,
                "end_time": 30.44772727272727,
                "pitch": 21,
                "velocity": 64,
                "duration": 10.263636363636362,
                "tempo": 120.0
            },
            {
                "start_time": 30.43181818181818,
                "end_time": 30.44772727272727,
                "pitch": 24,
                "velocity": 64,
                "duration": 0.01590909090909065,
                "tempo": 120.0
            },
            {
                "start_time": 30.968181818181815,
                "end_time": 31.018181818181816,
                "pitch": 52,
                "velocity": 64,
                "duration": 0.05000000000000071,
                "tempo": 120.0
            },
            {
                "start_time": 31.018181818181816,
                "end_time": 31.084090909090907,
                "pitch": 49,
                "velocity": 64,
                "duration": 0.06590909090909136,
                "tempo": 120.0
            },
            {
                "start_time": 31.084090909090907,
                "end_time": 31.11590909090909,
                "pitch": 46,
                "velocity": 64,
                "duration": 0.0318181818181813,
                "tempo": 120.0
            },
            {
                "start_time": 31.11590909090909,
                "end_time": 31.15,
                "pitch": 44,
                "velocity": 64,
                "duration": 0.03409090909091006,
                "tempo": 120.0
            },
            {
                "start_time": 31.15,
                "end_time": 31.18181818181818,
                "pitch": 41,
                "velocity": 64,
                "duration": 0.0318181818181813,
                "tempo": 120.0
            },
            {
                "start_time": 31.18181818181818,
                "end_time": 31.19772727272727,
                "pitch": 39,
                "velocity": 64,
                "duration": 0.01590909090909065,
                "tempo": 120.0
            },
            {
                "start_time": 31.19772727272727,
                "end_time": 31.21590909090909,
                "pitch": 36,
                "velocity": 64,
                "duration": 0.01818181818181941,
                "tempo": 120.0
            },
            {
                "start_time": 31.472727272727273,
                "end_time": 31.488636363636363,
                "pitch": 55,
                "velocity": 64,
                "duration": 0.01590909090909065,
                "tempo": 120.0
            },
            {
                "start_time": 29.43181818181818,
                "end_time": 31.488636363636363,
                "pitch": 67,
                "velocity": 64,
                "duration": 2.0568181818181834,
                "tempo": 120.0
            },
            {
                "start_time": 31.488636363636363,
                "end_time": 31.536363636363635,
                "pitch": 54,
                "velocity": 64,
                "duration": 0.04772727272727195,
                "tempo": 120.0
            },
            {
                "start_time": 31.536363636363635,
                "end_time": 31.599999999999998,
                "pitch": 52,
                "velocity": 64,
                "duration": 0.0636363636363626,
                "tempo": 120.0
            },
            {
                "start_time": 31.599999999999998,
                "end_time": 31.64772727272727,
                "pitch": 49,
                "velocity": 64,
                "duration": 0.04772727272727195,
                "tempo": 120.0
            },
            {
                "start_time": 31.64772727272727,
                "end_time": 31.68181818181818,
                "pitch": 46,
                "velocity": 64,
                "duration": 0.03409090909091006,
                "tempo": 120.0
            },
            {
                "start_time": 31.68181818181818,
                "end_time": 31.71363636363636,
                "pitch": 44,
                "velocity": 64,
                "duration": 0.0318181818181813,
                "tempo": 120.0
            },
            {
                "start_time": 31.71363636363636,
                "end_time": 31.763636363636362,
                "pitch": 48,
                "velocity": 64,
                "duration": 0.05000000000000071,
                "tempo": 120.0
            },
            {
                "start_time": 31.763636363636362,
                "end_time": 31.795454545454543,
                "pitch": 46,
                "velocity": 64,
                "duration": 0.0318181818181813,
                "tempo": 120.0
            },
            {
                "start_time": 31.795454545454543,
                "end_time": 31.829545454545453,
                "pitch": 43,
                "velocity": 64,
                "duration": 0.03409090909091006,
                "tempo": 120.0
            },
            {
                "start_time": 31.829545454545453,
                "end_time": 31.845454545454544,
                "pitch": 41,
                "velocity": 64,
                "duration": 0.01590909090909065,
                "tempo": 120.0
            },
            {
                "start_time": 31.847727272727273,
                "end_time": 31.879545454545454,
                "pitch": 48,
                "velocity": 64,
                "duration": 0.0318181818181813,
                "tempo": 120.0
            },
            {
                "start_time": 31.879545454545454,
                "end_time": 31.91363636363636,
                "pitch": 46,
                "velocity": 64,
                "duration": 0.03409090909090651,
                "tempo": 120.0
            },
            {
                "start_time": 31.91363636363636,
                "end_time": 31.96363636363636,
                "pitch": 43,
                "velocity": 64,
                "duration": 0.05000000000000071,
                "tempo": 120.0
            },
            {
                "start_time": 31.96363636363636,
                "end_time": 31.99772727272727,
                "pitch": 41,
                "velocity": 64,
                "duration": 0.03409090909091006,
                "tempo": 120.0
            },
            {
                "start_time": 31.99772727272727,
                "end_time": 32.013636363636365,
                "pitch": 37,
                "velocity": 64,
                "duration": 0.015909090909094203,
                "tempo": 120.0
            },
            {
                "start_time": 32.013636363636365,
                "end_time": 32.03181818181818,
                "pitch": 35,
                "velocity": 64,
                "duration": 0.018181818181815856,
                "tempo": 120.0
            },
            {
                "start_time": 32.03181818181818,
                "end_time": 32.04772727272727,
                "pitch": 33,
                "velocity": 64,
                "duration": 0.01590909090909065,
                "tempo": 120.0
            },
            {
                "start_time": 32.04772727272727,
                "end_time": 32.06363636363636,
                "pitch": 30,
                "velocity": 64,
                "duration": 0.01590909090909065,
                "tempo": 120.0
            },
            {
                "start_time": 32.06363636363636,
                "end_time": 32.08181818181818,
                "pitch": 27,
                "velocity": 64,
                "duration": 0.018181818181815856,
                "tempo": 120.0
            },
            {
                "start_time": 32.08181818181818,
                "end_time": 32.09772727272727,
                "pitch": 24,
                "velocity": 64,
                "duration": 0.01590909090909065,
                "tempo": 120.0
            },
            {
                "start_time": 32.23181818181818,
                "end_time": 32.26590909090909,
                "pitch": 48,
                "velocity": 64,
                "duration": 0.03409090909091361,
                "tempo": 120.0
            },
            {
                "start_time": 32.26590909090909,
                "end_time": 32.31590909090909,
                "pitch": 46,
                "velocity": 64,
                "duration": 0.04999999999999716,
                "tempo": 120.0
            },
            {
                "start_time": 32.31590909090909,
                "end_time": 32.35,
                "pitch": 43,
                "velocity": 64,
                "duration": 0.03409090909091361,
                "tempo": 120.0
            },
            {
                "start_time": 32.35,
                "end_time": 32.38181818181818,
                "pitch": 41,
                "velocity": 64,
                "duration": 0.0318181818181813,
                "tempo": 120.0
            },
            {
                "start_time": 32.38181818181818,
                "end_time": 32.4,
                "pitch": 37,
                "velocity": 64,
                "duration": 0.018181818181815856,
                "tempo": 120.0
            },
            {
                "start_time": 32.4,
                "end_time": 32.41590909090909,
                "pitch": 35,
                "velocity": 64,
                "duration": 0.01590909090909065,
                "tempo": 120.0
            },
            {
                "start_time": 32.41590909090909,
                "end_time": 32.43181818181818,
                "pitch": 33,
                "velocity": 64,
                "duration": 0.01590909090909065,
                "tempo": 120.0
            },
            {
                "start_time": 32.43181818181818,
                "end_time": 32.449999999999996,
                "pitch": 30,
                "velocity": 64,
                "duration": 0.018181818181815856,
                "tempo": 120.0
            },
            {
                "start_time": 32.449999999999996,
                "end_time": 32.48181818181818,
                "pitch": 27,
                "velocity": 64,
                "duration": 0.0318181818181813,
                "tempo": 120.0
            },
            {
                "start_time": 32.48181818181818,
                "end_time": 32.5,
                "pitch": 24,
                "velocity": 64,
                "duration": 0.018181818181822962,
                "tempo": 120.0
            },
            {
                "start_time": 33.013636363636365,
                "end_time": 33.04772727272727,
                "pitch": 52,
                "velocity": 64,
                "duration": 0.03409090909090651,
                "tempo": 120.0
            },
            {
                "start_time": 33.04772727272727,
                "end_time": 33.095454545454544,
                "pitch": 52,
                "velocity": 64,
                "duration": 0.04772727272727195,
                "tempo": 120.0
            },
            {
                "start_time": 33.095454545454544,
                "end_time": 33.12954545454545,
                "pitch": 49,
                "velocity": 64,
                "duration": 0.03409090909090651,
                "tempo": 120.0
            },
            {
                "start_time": 33.12954545454545,
                "end_time": 33.195454545454545,
                "pitch": 52,
                "velocity": 64,
                "duration": 0.06590909090909491,
                "tempo": 120.0
            },
            {
                "start_time": 33.195454545454545,
                "end_time": 33.22727272727273,
                "pitch": 50,
                "velocity": 64,
                "duration": 0.0318181818181813,
                "tempo": 120.0
            },
            {
                "start_time": 33.22727272727273,
                "end_time": 33.26136363636363,
                "pitch": 47,
                "velocity": 64,
                "duration": 0.03409090909090651,
                "tempo": 120.0
            },
            {
                "start_time": 33.513636363636365,
                "end_time": 33.54545454545455,
                "pitch": 55,
                "velocity": 64,
                "duration": 0.0318181818181813,
                "tempo": 120.0
            },
            {
                "start_time": 31.488636363636363,
                "end_time": 33.54545454545455,
                "pitch": 67,
                "velocity": 64,
                "duration": 2.0568181818181834,
                "tempo": 120.0
            },
            {
                "start_time": 33.54545454545455,
                "end_time": 33.595454545454544,
                "pitch": 55,
                "velocity": 64,
                "duration": 0.04999999999999716,
                "tempo": 120.0
            },
            {
                "start_time": 33.595454545454544,
                "end_time": 33.64545454545454,
                "pitch": 52,
                "velocity": 64,
                "duration": 0.04999999999999716,
                "tempo": 120.0
            },
            {
                "start_time": 33.64545454545454,
                "end_time": 33.695454545454545,
                "pitch": 49,
                "velocity": 64,
                "duration": 0.05000000000000426,
                "tempo": 120.0
            },
            {
                "start_time": 33.695454545454545,
                "end_time": 33.74772727272727,
                "pitch": 46,
                "velocity": 64,
                "duration": 0.052272727272722364,
                "tempo": 120.0
            },
            {
                "start_time": 33.74772727272727,
                "end_time": 33.779545454545456,
                "pitch": 44,
                "velocity": 64,
                "duration": 0.03181818181818841,
                "tempo": 120.0
            },
            {
                "start_time": 33.78181818181818,
                "end_time": 33.81363636363636,
                "pitch": 48,
                "velocity": 64,
                "duration": 0.0318181818181813,
                "tempo": 120.0
            },
            {
                "start_time": 33.81363636363636,
                "end_time": 33.84772727272727,
                "pitch": 46,
                "velocity": 64,
                "duration": 0.03409090909090651,
                "tempo": 120.0
            },
            {
                "start_time": 33.84772727272727,
                "end_time": 33.87954545454545,
                "pitch": 43,
                "velocity": 64,
                "duration": 0.0318181818181813,
                "tempo": 120.0
            },
            {
                "start_time": 33.87954545454545,
                "end_time": 33.913636363636364,
                "pitch": 41,
                "velocity": 64,
                "duration": 0.03409090909091361,
                "tempo": 120.0
            },
            {
                "start_time": 33.913636363636364,
                "end_time": 33.94772727272727,
                "pitch": 48,
                "velocity": 64,
                "duration": 0.03409090909090651,
                "tempo": 120.0
            },
            {
                "start_time": 33.94772727272727,
                "end_time": 33.98181818181818,
                "pitch": 46,
                "velocity": 64,
                "duration": 0.03409090909090651,
                "tempo": 120.0
            },
            {
                "start_time": 33.98181818181818,
                "end_time": 34.013636363636365,
                "pitch": 43,
                "velocity": 64,
                "duration": 0.03181818181818841,
                "tempo": 120.0
            },
            {
                "start_time": 34.013636363636365,
                "end_time": 34.04772727272727,
                "pitch": 41,
                "velocity": 64,
                "duration": 0.03409090909090651,
                "tempo": 120.0
            },
            {
                "start_time": 34.04772727272727,
                "end_time": 34.06590909090909,
                "pitch": 37,
                "velocity": 64,
                "duration": 0.018181818181815856,
                "tempo": 120.0
            },
            {
                "start_time": 34.06590909090909,
                "end_time": 34.09772727272727,
                "pitch": 35,
                "velocity": 64,
                "duration": 0.0318181818181813,
                "tempo": 120.0
            },
            {
                "start_time": 34.09772727272727,
                "end_time": 34.11590909090909,
                "pitch": 33,
                "velocity": 64,
                "duration": 0.018181818181822962,
                "tempo": 120.0
            },
            {
                "start_time": 34.11590909090909,
                "end_time": 34.13181818181818,
                "pitch": 30,
                "velocity": 64,
                "duration": 0.01590909090909065,
                "tempo": 120.0
            },
            {
                "start_time": 34.13181818181818,
                "end_time": 34.14772727272727,
                "pitch": 27,
                "velocity": 64,
                "duration": 0.01590909090909065,
                "tempo": 120.0
            },
            {
                "start_time": 34.14772727272727,
                "end_time": 34.16590909090909,
                "pitch": 24,
                "velocity": 64,
                "duration": 0.018181818181815856,
                "tempo": 120.0
            },
            {
                "start_time": 34.3,
                "end_time": 34.33181818181818,
                "pitch": 48,
                "velocity": 64,
                "duration": 0.0318181818181813,
                "tempo": 120.0
            },
            {
                "start_time": 34.33181818181818,
                "end_time": 34.36590909090909,
                "pitch": 46,
                "velocity": 64,
                "duration": 0.03409090909091361,
                "tempo": 120.0
            },
            {
                "start_time": 34.36590909090909,
                "end_time": 34.4,
                "pitch": 43,
                "velocity": 64,
                "duration": 0.03409090909090651,
                "tempo": 120.0
            },
            {
                "start_time": 34.4,
                "end_time": 34.449999999999996,
                "pitch": 41,
                "velocity": 64,
                "duration": 0.04999999999999716,
                "tempo": 120.0
            },
            {
                "start_time": 34.449999999999996,
                "end_time": 34.465909090909086,
                "pitch": 37,
                "velocity": 64,
                "duration": 0.01590909090909065,
                "tempo": 120.0
            },
            {
                "start_time": 34.465909090909086,
                "end_time": 34.48409090909091,
                "pitch": 35,
                "velocity": 64,
                "duration": 0.018181818181822962,
                "tempo": 120.0
            },
            {
                "start_time": 34.48409090909091,
                "end_time": 34.5,
                "pitch": 33,
                "velocity": 64,
                "duration": 0.01590909090909065,
                "tempo": 120.0
            },
            {
                "start_time": 34.5,
                "end_time": 34.51590909090909,
                "pitch": 30,
                "velocity": 64,
                "duration": 0.01590909090909065,
                "tempo": 120.0
            },
            {
                "start_time": 34.51590909090909,
                "end_time": 34.53409090909091,
                "pitch": 27,
                "velocity": 64,
                "duration": 0.018181818181815856,
                "tempo": 120.0
            },
            {
                "start_time": 34.53409090909091,
                "end_time": 34.55,
                "pitch": 24,
                "velocity": 64,
                "duration": 0.01590909090909065,
                "tempo": 120.0
            },
            {
                "start_time": 35.06590909090909,
                "end_time": 35.11363636363636,
                "pitch": 52,
                "velocity": 64,
                "duration": 0.04772727272727195,
                "tempo": 120.0
            },
            {
                "start_time": 35.11363636363636,
                "end_time": 35.179545454545455,
                "pitch": 49,
                "velocity": 64,
                "duration": 0.06590909090909491,
                "tempo": 120.0
            },
            {
                "start_time": 35.179545454545455,
                "end_time": 35.21363636363636,
                "pitch": 46,
                "velocity": 64,
                "duration": 0.03409090909090651,
                "tempo": 120.0
            },
            {
                "start_time": 35.21363636363636,
                "end_time": 35.24545454545454,
                "pitch": 44,
                "velocity": 64,
                "duration": 0.0318181818181813,
                "tempo": 120.0
            },
            {
                "start_time": 35.24545454545454,
                "end_time": 35.279545454545456,
                "pitch": 41,
                "velocity": 64,
                "duration": 0.03409090909091361,
                "tempo": 120.0
            },
            {
                "start_time": 35.279545454545456,
                "end_time": 35.29545454545455,
                "pitch": 38,
                "velocity": 64,
                "duration": 0.01590909090909065,
                "tempo": 120.0
            },
            {
                "start_time": 35.29545454545455,
                "end_time": 35.31363636363636,
                "pitch": 36,
                "velocity": 64,
                "duration": 0.018181818181815856,
                "tempo": 120.0
            },
            {
                "start_time": 33.54545454545455,
                "end_time": 35.570454545454545,
                "pitch": 67,
                "velocity": 64,
                "duration": 2.0249999999999986,
                "tempo": 120.0
            },
            {
                "start_time": 35.570454545454545,
                "end_time": 35.63409090909091,
                "pitch": 55,
                "velocity": 64,
                "duration": 0.0636363636363626,
                "tempo": 120.0
            },
            {
                "start_time": 35.570454545454545,
                "end_time": 35.63409090909091,
                "pitch": 55,
                "velocity": 64,
                "duration": 0.0636363636363626,
                "tempo": 120.0
            },
            {
                "start_time": 35.63409090909091,
                "end_time": 35.69772727272727,
                "pitch": 52,
                "velocity": 64,
                "duration": 0.0636363636363626,
                "tempo": 120.0
            },
            {
                "start_time": 35.69772727272727,
                "end_time": 35.74545454545454,
                "pitch": 49,
                "velocity": 64,
                "duration": 0.04772727272727195,
                "tempo": 120.0
            },
            {
                "start_time": 35.74545454545454,
                "end_time": 35.777272727272724,
                "pitch": 47,
                "velocity": 64,
                "duration": 0.0318181818181813,
                "tempo": 120.0
            },
            {
                "start_time": 35.777272727272724,
                "end_time": 35.809090909090905,
                "pitch": 44,
                "velocity": 64,
                "duration": 0.0318181818181813,
                "tempo": 120.0
            },
            {
                "start_time": 35.81136363636364,
                "end_time": 35.85909090909091,
                "pitch": 48,
                "velocity": 64,
                "duration": 0.04772727272727195,
                "tempo": 120.0
            },
            {
                "start_time": 35.85909090909091,
                "end_time": 35.893181818181816,
                "pitch": 46,
                "velocity": 64,
                "duration": 0.03409090909090651,
                "tempo": 120.0
            },
            {
                "start_time": 35.893181818181816,
                "end_time": 35.92727272727272,
                "pitch": 43,
                "velocity": 64,
                "duration": 0.03409090909090651,
                "tempo": 120.0
            },
            {
                "start_time": 35.92727272727272,
                "end_time": 35.94318181818181,
                "pitch": 41,
                "velocity": 64,
                "duration": 0.01590909090909065,
                "tempo": 120.0
            },
            {
                "start_time": 35.94318181818181,
                "end_time": 35.97727272727273,
                "pitch": 48,
                "velocity": 64,
                "duration": 0.03409090909091361,
                "tempo": 120.0
            },
            {
                "start_time": 35.97727272727273,
                "end_time": 36.027272727272724,
                "pitch": 46,
                "velocity": 64,
                "duration": 0.04999999999999716,
                "tempo": 120.0
            },
            {
                "start_time": 36.027272727272724,
                "end_time": 36.06136363636364,
                "pitch": 43,
                "velocity": 64,
                "duration": 0.03409090909091361,
                "tempo": 120.0
            },
            {
                "start_time": 36.06136363636364,
                "end_time": 36.09318181818182,
                "pitch": 41,
                "velocity": 64,
                "duration": 0.0318181818181813,
                "tempo": 120.0
            },
            {
                "start_time": 36.09318181818182,
                "end_time": 36.111363636363635,
                "pitch": 37,
                "velocity": 64,
                "duration": 0.018181818181815856,
                "tempo": 120.0
            },
            {
                "start_time": 36.111363636363635,
                "end_time": 36.127272727272725,
                "pitch": 35,
                "velocity": 64,
                "duration": 0.01590909090909065,
                "tempo": 120.0
            },
            {
                "start_time": 36.127272727272725,
                "end_time": 36.14545454545454,
                "pitch": 33,
                "velocity": 64,
                "duration": 0.018181818181815856,
                "tempo": 120.0
            },
            {
                "start_time": 36.14545454545454,
                "end_time": 36.16136363636363,
                "pitch": 30,
                "velocity": 64,
                "duration": 0.01590909090909065,
                "tempo": 120.0
            },
            {
                "start_time": 36.16136363636363,
                "end_time": 36.17727272727272,
                "pitch": 27,
                "velocity": 64,
                "duration": 0.01590909090909065,
                "tempo": 120.0
            },
            {
                "start_time": 36.17727272727272,
                "end_time": 36.211363636363636,
                "pitch": 24,
                "velocity": 64,
                "duration": 0.03409090909091361,
                "tempo": 120.0
            },
            {
                "start_time": 36.32954545454545,
                "end_time": 36.361363636363635,
                "pitch": 48,
                "velocity": 64,
                "duration": 0.0318181818181813,
                "tempo": 120.0
            },
            {
                "start_time": 36.361363636363635,
                "end_time": 36.41136363636363,
                "pitch": 46,
                "velocity": 64,
                "duration": 0.04999999999999716,
                "tempo": 120.0
            },
            {
                "start_time": 36.41136363636363,
                "end_time": 36.445454545454545,
                "pitch": 43,
                "velocity": 64,
                "duration": 0.03409090909091361,
                "tempo": 120.0
            },
            {
                "start_time": 36.445454545454545,
                "end_time": 36.47954545454545,
                "pitch": 41,
                "velocity": 64,
                "duration": 0.03409090909090651,
                "tempo": 120.0
            },
            {
                "start_time": 36.47954545454545,
                "end_time": 36.49545454545454,
                "pitch": 38,
                "velocity": 64,
                "duration": 0.01590909090909065,
                "tempo": 120.0
            },
            {
                "start_time": 36.49545454545454,
                "end_time": 36.51363636363636,
                "pitch": 35,
                "velocity": 64,
                "duration": 0.018181818181815856,
                "tempo": 120.0
            },
            {
                "start_time": 36.51363636363636,
                "end_time": 36.529545454545456,
                "pitch": 33,
                "velocity": 64,
                "duration": 0.015909090909097756,
                "tempo": 120.0
            },
            {
                "start_time": 36.529545454545456,
                "end_time": 36.54545454545455,
                "pitch": 30,
                "velocity": 64,
                "duration": 0.01590909090909065,
                "tempo": 120.0
            },
            {
                "start_time": 36.54545454545455,
                "end_time": 36.57954545454545,
                "pitch": 27,
                "velocity": 64,
                "duration": 0.03409090909090651,
                "tempo": 120.0
            },
            {
                "start_time": 36.57954545454545,
                "end_time": 36.59772727272727,
                "pitch": 24,
                "velocity": 64,
                "duration": 0.018181818181815856,
                "tempo": 120.0
            },
            {
                "start_time": 37.111363636363635,
                "end_time": 37.143181818181816,
                "pitch": 52,
                "velocity": 64,
                "duration": 0.0318181818181813,
                "tempo": 120.0
            },
            {
                "start_time": 37.14545454545454,
                "end_time": 37.19318181818181,
                "pitch": 52,
                "velocity": 64,
                "duration": 0.04772727272727195,
                "tempo": 120.0
            },
            {
                "start_time": 37.19318181818181,
                "end_time": 37.22727272727273,
                "pitch": 49,
                "velocity": 64,
                "duration": 0.03409090909091361,
                "tempo": 120.0
            },
            {
                "start_time": 37.22727272727273,
                "end_time": 37.293181818181814,
                "pitch": 52,
                "velocity": 64,
                "duration": 0.06590909090908781,
                "tempo": 120.0
            },
            {
                "start_time": 37.293181818181814,
                "end_time": 37.340909090909086,
                "pitch": 49,
                "velocity": 64,
                "duration": 0.04772727272727195,
                "tempo": 120.0
            },
            {
                "start_time": 37.340909090909086,
                "end_time": 37.35909090909091,
                "pitch": 46,
                "velocity": 64,
                "duration": 0.018181818181822962,
                "tempo": 120.0
            },
            {
                "start_time": 37.60909090909091,
                "end_time": 37.643181818181816,
                "pitch": 55,
                "velocity": 64,
                "duration": 0.03409090909090651,
                "tempo": 120.0
            },
            {
                "start_time": 35.570454545454545,
                "end_time": 37.643181818181816,
                "pitch": 67,
                "velocity": 64,
                "duration": 2.0727272727272705,
                "tempo": 120.0
            },
            {
                "start_time": 37.643181818181816,
                "end_time": 37.69318181818181,
                "pitch": 54,
                "velocity": 64,
                "duration": 0.04999999999999716,
                "tempo": 120.0
            },
            {
                "start_time": 37.69318181818181,
                "end_time": 37.74318181818182,
                "pitch": 52,
                "velocity": 64,
                "duration": 0.05000000000000426,
                "tempo": 120.0
            },
            {
                "start_time": 37.74318181818182,
                "end_time": 37.793181818181814,
                "pitch": 49,
                "velocity": 64,
                "duration": 0.04999999999999716,
                "tempo": 120.0
            },
            {
                "start_time": 37.793181818181814,
                "end_time": 37.84318181818182,
                "pitch": 46,
                "velocity": 64,
                "duration": 0.05000000000000426,
                "tempo": 120.0
            },
            {
                "start_time": 37.84318181818182,
                "end_time": 37.877272727272725,
                "pitch": 44,
                "velocity": 64,
                "duration": 0.03409090909090651,
                "tempo": 120.0
            },
            {
                "start_time": 37.877272727272725,
                "end_time": 37.91136363636363,
                "pitch": 48,
                "velocity": 64,
                "duration": 0.03409090909090651,
                "tempo": 120.0
            },
            {
                "start_time": 37.91136363636363,
                "end_time": 37.94318181818181,
                "pitch": 46,
                "velocity": 64,
                "duration": 0.0318181818181813,
                "tempo": 120.0
            },
            {
                "start_time": 37.94318181818181,
                "end_time": 37.99318181818182,
                "pitch": 43,
                "velocity": 64,
                "duration": 0.05000000000000426,
                "tempo": 120.0
            },
            {
                "start_time": 37.99318181818182,
                "end_time": 38.01136363636363,
                "pitch": 41,
                "velocity": 64,
                "duration": 0.018181818181815856,
                "tempo": 120.0
            },
            {
                "start_time": 38.01136363636363,
                "end_time": 38.04545454545455,
                "pitch": 48,
                "velocity": 64,
                "duration": 0.03409090909091361,
                "tempo": 120.0
            },
            {
                "start_time": 38.04545454545455,
                "end_time": 38.07727272727273,
                "pitch": 46,
                "velocity": 64,
                "duration": 0.0318181818181813,
                "tempo": 120.0
            },
            {
                "start_time": 38.07727272727273,
                "end_time": 38.111363636363635,
                "pitch": 43,
                "velocity": 64,
                "duration": 0.03409090909090651,
                "tempo": 120.0
            },
            {
                "start_time": 38.111363636363635,
                "end_time": 38.14545454545454,
                "pitch": 41,
                "velocity": 64,
                "duration": 0.03409090909090651,
                "tempo": 120.0
            },
            {
                "start_time": 38.14545454545454,
                "end_time": 38.179545454545455,
                "pitch": 37,
                "velocity": 64,
                "duration": 0.03409090909091361,
                "tempo": 120.0
            },
            {
                "start_time": 38.179545454545455,
                "end_time": 38.195454545454545,
                "pitch": 35,
                "velocity": 64,
                "duration": 0.01590909090909065,
                "tempo": 120.0
            },
            {
                "start_time": 38.195454545454545,
                "end_time": 38.211363636363636,
                "pitch": 33,
                "velocity": 64,
                "duration": 0.01590909090909065,
                "tempo": 120.0
            },
            {
                "start_time": 38.211363636363636,
                "end_time": 38.22954545454545,
                "pitch": 30,
                "velocity": 64,
                "duration": 0.018181818181815856,
                "tempo": 120.0
            },
            {
                "start_time": 38.22954545454545,
                "end_time": 38.24545454545454,
                "pitch": 27,
                "velocity": 64,
                "duration": 0.01590909090909065,
                "tempo": 120.0
            },
            {
                "start_time": 38.24545454545454,
                "end_time": 38.26136363636363,
                "pitch": 24,
                "velocity": 64,
                "duration": 0.01590909090909065,
                "tempo": 120.0
            },
            {
                "start_time": 38.39772727272727,
                "end_time": 38.429545454545455,
                "pitch": 48,
                "velocity": 64,
                "duration": 0.0318181818181813,
                "tempo": 120.0
            },
            {
                "start_time": 38.429545454545455,
                "end_time": 38.46363636363636,
                "pitch": 46,
                "velocity": 64,
                "duration": 0.03409090909090651,
                "tempo": 120.0
            },
            {
                "start_time": 38.46363636363636,
                "end_time": 38.49545454545454,
                "pitch": 43,
                "velocity": 64,
                "duration": 0.0318181818181813,
                "tempo": 120.0
            },
            {
                "start_time": 38.49545454545454,
                "end_time": 38.54772727272727,
                "pitch": 41,
                "velocity": 64,
                "duration": 0.05227272727272947,
                "tempo": 120.0
            },
            {
                "start_time": 38.54772727272727,
                "end_time": 38.56363636363636,
                "pitch": 37,
                "velocity": 64,
                "duration": 0.01590909090909065,
                "tempo": 120.0
            },
            {
                "start_time": 38.56363636363636,
                "end_time": 38.57954545454545,
                "pitch": 35,
                "velocity": 64,
                "duration": 0.01590909090909065,
                "tempo": 120.0
            },
            {
                "start_time": 38.57954545454545,
                "end_time": 38.59772727272727,
                "pitch": 33,
                "velocity": 64,
                "duration": 0.018181818181815856,
                "tempo": 120.0
            },
            {
                "start_time": 38.59772727272727,
                "end_time": 38.61363636363636,
                "pitch": 30,
                "velocity": 64,
                "duration": 0.01590909090909065,
                "tempo": 120.0
            },
            {
                "start_time": 38.61363636363636,
                "end_time": 38.62954545454545,
                "pitch": 27,
                "velocity": 64,
                "duration": 0.01590909090909065,
                "tempo": 120.0
            },
            {
                "start_time": 38.62954545454545,
                "end_time": 38.64772727272727,
                "pitch": 24,
                "velocity": 64,
                "duration": 0.018181818181822962,
                "tempo": 120.0
            },
            {
                "start_time": 39.16136363636363,
                "end_time": 39.211363636363636,
                "pitch": 52,
                "velocity": 64,
                "duration": 0.05000000000000426,
                "tempo": 120.0
            },
            {
                "start_time": 39.211363636363636,
                "end_time": 39.277272727272724,
                "pitch": 49,
                "velocity": 64,
                "duration": 0.06590909090908781,
                "tempo": 120.0
            },
            {
                "start_time": 39.277272727272724,
                "end_time": 39.31136363636364,
                "pitch": 46,
                "velocity": 64,
                "duration": 0.03409090909091361,
                "tempo": 120.0
            },
            {
                "start_time": 39.31136363636364,
                "end_time": 39.34318181818182,
                "pitch": 44,
                "velocity": 64,
                "duration": 0.0318181818181813,
                "tempo": 120.0
            },
            {
                "start_time": 39.34318181818182,
                "end_time": 39.375,
                "pitch": 41,
                "velocity": 64,
                "duration": 0.0318181818181813,
                "tempo": 120.0
            },
            {
                "start_time": 39.375,
                "end_time": 39.393181818181816,
                "pitch": 38,
                "velocity": 64,
                "duration": 0.018181818181815856,
                "tempo": 120.0
            },
            {
                "start_time": 39.393181818181816,
                "end_time": 39.425,
                "pitch": 36,
                "velocity": 64,
                "duration": 0.0318181818181813,
                "tempo": 120.0
            },
            {
                "start_time": 39.67727272727272,
                "end_time": 39.69318181818181,
                "pitch": 55,
                "velocity": 64,
                "duration": 0.01590909090909065,
                "tempo": 120.0
            },
            {
                "start_time": 37.643181818181816,
                "end_time": 39.69318181818181,
                "pitch": 67,
                "velocity": 64,
                "duration": 2.049999999999997,
                "tempo": 120.0
            },
            {
                "start_time": 39.69318181818181,
                "end_time": 39.74318181818182,
                "pitch": 54,
                "velocity": 64,
                "duration": 0.05000000000000426,
                "tempo": 120.0
            },
            {
                "start_time": 39.74318181818182,
                "end_time": 39.81136363636364,
                "pitch": 52,
                "velocity": 64,
                "duration": 0.06818181818182012,
                "tempo": 120.0
            },
            {
                "start_time": 39.81136363636364,
                "end_time": 39.861363636363635,
                "pitch": 49,
                "velocity": 64,
                "duration": 0.04999999999999716,
                "tempo": 120.0
            },
            {
                "start_time": 39.861363636363635,
                "end_time": 39.893181818181816,
                "pitch": 46,
                "velocity": 64,
                "duration": 0.0318181818181813,
                "tempo": 120.0
            },
            {
                "start_time": 39.893181818181816,
                "end_time": 39.92727272727272,
                "pitch": 44,
                "velocity": 64,
                "duration": 0.03409090909090651,
                "tempo": 120.0
            },
            {
                "start_time": 39.92727272727272,
                "end_time": 39.975,
                "pitch": 48,
                "velocity": 64,
                "duration": 0.04772727272727906,
                "tempo": 120.0
            },
            {
                "start_time": 39.975,
                "end_time": 40.00909090909091,
                "pitch": 46,
                "velocity": 64,
                "duration": 0.03409090909090651,
                "tempo": 120.0
            },
            {
                "start_time": 40.00909090909091,
                "end_time": 40.04090909090909,
                "pitch": 43,
                "velocity": 64,
                "duration": 0.0318181818181813,
                "tempo": 120.0
            },
            {
                "start_time": 40.04090909090909,
                "end_time": 40.05681818181818,
                "pitch": 41,
                "velocity": 64,
                "duration": 0.01590909090909065,
                "tempo": 120.0
            },
            {
                "start_time": 40.05681818181818,
                "end_time": 40.08863636363636,
                "pitch": 48,
                "velocity": 64,
                "duration": 0.0318181818181813,
                "tempo": 120.0
            },
            {
                "start_time": 40.08863636363636,
                "end_time": 40.13636363636363,
                "pitch": 46,
                "velocity": 64,
                "duration": 0.04772727272727195,
                "tempo": 120.0
            },
            {
                "start_time": 40.13636363636363,
                "end_time": 40.168181818181814,
                "pitch": 43,
                "velocity": 64,
                "duration": 0.0318181818181813,
                "tempo": 120.0
            },
            {
                "start_time": 40.168181818181814,
                "end_time": 40.199999999999996,
                "pitch": 41,
                "velocity": 64,
                "duration": 0.0318181818181813,
                "tempo": 120.0
            },
            {
                "start_time": 40.199999999999996,
                "end_time": 40.215909090909086,
                "pitch": 37,
                "velocity": 64,
                "duration": 0.01590909090909065,
                "tempo": 120.0
            },
            {
                "start_time": 40.215909090909086,
                "end_time": 40.23181818181818,
                "pitch": 35,
                "velocity": 64,
                "duration": 0.01590909090909065,
                "tempo": 120.0
            },
            {
                "start_time": 40.23181818181818,
                "end_time": 40.24772727272727,
                "pitch": 33,
                "velocity": 64,
                "duration": 0.01590909090909065,
                "tempo": 120.0
            },
            {
                "start_time": 40.24772727272727,
                "end_time": 40.26590909090909,
                "pitch": 30,
                "velocity": 64,
                "duration": 0.018181818181822962,
                "tempo": 120.0
            },
            {
                "start_time": 40.26590909090909,
                "end_time": 40.28181818181818,
                "pitch": 27,
                "velocity": 64,
                "duration": 0.01590909090909065,
                "tempo": 120.0
            },
            {
                "start_time": 40.28181818181818,
                "end_time": 40.31363636363636,
                "pitch": 24,
                "velocity": 64,
                "duration": 0.0318181818181813,
                "tempo": 120.0
            },
            {
                "start_time": 40.425,
                "end_time": 40.475,
                "pitch": 48,
                "velocity": 64,
                "duration": 0.05000000000000426,
                "tempo": 120.0
            },
            {
                "start_time": 40.475,
                "end_time": 40.50909090909091,
                "pitch": 46,
                "velocity": 64,
                "duration": 0.03409090909090651,
                "tempo": 120.0
            },
            {
                "start_time": 40.50909090909091,
                "end_time": 40.543181818181814,
                "pitch": 43,
                "velocity": 64,
                "duration": 0.03409090909090651,
                "tempo": 120.0
            },
            {
                "start_time": 40.543181818181814,
                "end_time": 40.57727272727273,
                "pitch": 41,
                "velocity": 64,
                "duration": 0.03409090909091361,
                "tempo": 120.0
            },
            {
                "start_time": 40.57727272727273,
                "end_time": 40.595454545454544,
                "pitch": 37,
                "velocity": 64,
                "duration": 0.018181818181815856,
                "tempo": 120.0
            },
            {
                "start_time": 40.595454545454544,
                "end_time": 40.611363636363635,
                "pitch": 35,
                "velocity": 64,
                "duration": 0.01590909090909065,
                "tempo": 120.0
            },
            {
                "start_time": 40.611363636363635,
                "end_time": 40.62954545454545,
                "pitch": 33,
                "velocity": 64,
                "duration": 0.018181818181815856,
                "tempo": 120.0
            },
            {
                "start_time": 40.62954545454545,
                "end_time": 40.663636363636364,
                "pitch": 30,
                "velocity": 64,
                "duration": 0.03409090909091361,
                "tempo": 120.0
            },
            {
                "start_time": 40.663636363636364,
                "end_time": 40.679545454545455,
                "pitch": 27,
                "velocity": 64,
                "duration": 0.01590909090909065,
                "tempo": 120.0
            },
            {
                "start_time": 30.44772727272727,
                "end_time": 40.69772727272727,
                "pitch": 21,
                "velocity": 64,
                "duration": 10.25,
                "tempo": 120.0
            },
            {
                "start_time": 40.679545454545455,
                "end_time": 40.69772727272727,
                "pitch": 24,
                "velocity": 64,
                "duration": 0.018181818181815856,
                "tempo": 120.0
            },
            {
                "start_time": 41.215909090909086,
                "end_time": 41.25,
                "pitch": 52,
                "velocity": 64,
                "duration": 0.03409090909091361,
                "tempo": 120.0
            },
            {
                "start_time": 41.25,
                "end_time": 41.29772727272727,
                "pitch": 52,
                "velocity": 64,
                "duration": 0.04772727272727195,
                "tempo": 120.0
            },
            {
                "start_time": 41.29772727272727,
                "end_time": 41.33181818181818,
                "pitch": 49,
                "velocity": 64,
                "duration": 0.03409090909090651,
                "tempo": 120.0
            },
            {
                "start_time": 41.33181818181818,
                "end_time": 41.39772727272727,
                "pitch": 52,
                "velocity": 64,
                "duration": 0.06590909090909491,
                "tempo": 120.0
            },
            {
                "start_time": 41.39772727272727,
                "end_time": 41.44772727272727,
                "pitch": 49,
                "velocity": 64,
                "duration": 0.04999999999999716,
                "tempo": 120.0
            },
            {
                "start_time": 41.44772727272727,
                "end_time": 41.465909090909086,
                "pitch": 47,
                "velocity": 64,
                "duration": 0.018181818181815856,
                "tempo": 120.0
            }
        ],
        "Electric Piano 1": [
            {
                "start_time": 0.45909090909090905,
                "end_time": 0.509090909090909,
                "pitch": 115,
                "velocity": 4,
                "duration": 0.04999999999999999,
                "tempo": 120.0
            },
            {
                "start_time": 0.6431818181818182,
                "end_time": 0.6931818181818181,
                "pitch": 115,
                "velocity": 4,
                "duration": 0.04999999999999993,
                "tempo": 120.0
            },
            {
                "start_time": 0.509090909090909,
                "end_time": 0.6954545454545454,
                "pitch": 103,
                "velocity": 4,
                "duration": 0.1863636363636364,
                "tempo": 120.0
            },
            {
                "start_time": 0.6931818181818181,
                "end_time": 0.6954545454545454,
                "pitch": 103,
                "velocity": 4,
                "duration": 0.002272727272727315,
                "tempo": 120.0
            },
            {
                "start_time": 0.8272727272727273,
                "end_time": 0.8772727272727272,
                "pitch": 115,
                "velocity": 4,
                "duration": 0.04999999999999993,
                "tempo": 120.0
            },
            {
                "start_time": 0.8772727272727272,
                "end_time": 1.0613636363636363,
                "pitch": 103,
                "velocity": 4,
                "duration": 0.18409090909090908,
                "tempo": 120.0
            },
            {
                "start_time": 1.0113636363636362,
                "end_time": 1.0613636363636363,
                "pitch": 115,
                "velocity": 4,
                "duration": 0.050000000000000044,
                "tempo": 120.0
            },
            {
                "start_time": 1.0613636363636363,
                "end_time": 1.2477272727272726,
                "pitch": 103,
                "velocity": 4,
                "duration": 0.1863636363636363,
                "tempo": 120.0
            },
            {
                "start_time": 1.1954545454545453,
                "end_time": 1.2477272727272726,
                "pitch": 115,
                "velocity": 4,
                "duration": 0.05227272727272725,
                "tempo": 120.0
            },
            {
                "start_time": 1.2477272727272726,
                "end_time": 1.4318181818181817,
                "pitch": 103,
                "velocity": 4,
                "duration": 0.18409090909090908,
                "tempo": 120.0
            },
            {
                "start_time": 1.3795454545454544,
                "end_time": 1.4318181818181817,
                "pitch": 115,
                "velocity": 4,
                "duration": 0.05227272727272725,
                "tempo": 120.0
            },
            {
                "start_time": 1.4318181818181817,
                "end_time": 1.6159090909090907,
                "pitch": 103,
                "velocity": 4,
                "duration": 0.18409090909090908,
                "tempo": 120.0
            },
            {
                "start_time": 1.565909090909091,
                "end_time": 1.6159090909090907,
                "pitch": 115,
                "velocity": 4,
                "duration": 0.04999999999999982,
                "tempo": 120.0
            },
            {
                "start_time": 1.6159090909090907,
                "end_time": 1.7999999999999998,
                "pitch": 103,
                "velocity": 4,
                "duration": 0.18409090909090908,
                "tempo": 120.0
            },
            {
                "start_time": 1.75,
                "end_time": 1.7999999999999998,
                "pitch": 115,
                "velocity": 4,
                "duration": 0.04999999999999982,
                "tempo": 120.0
            },
            {
                "start_time": 1.7999999999999998,
                "end_time": 1.984090909090909,
                "pitch": 103,
                "velocity": 4,
                "duration": 0.18409090909090908,
                "tempo": 120.0
            },
            {
                "start_time": 1.934090909090909,
                "end_time": 1.984090909090909,
                "pitch": 115,
                "velocity": 4,
                "duration": 0.04999999999999982,
                "tempo": 120.0
            },
            {
                "start_time": 1.984090909090909,
                "end_time": 2.168181818181818,
                "pitch": 103,
                "velocity": 4,
                "duration": 0.18409090909090908,
                "tempo": 120.0
            },
            {
                "start_time": 2.118181818181818,
                "end_time": 2.168181818181818,
                "pitch": 115,
                "velocity": 4,
                "duration": 0.04999999999999982,
                "tempo": 120.0
            },
            {
                "start_time": 2.168181818181818,
                "end_time": 2.352272727272727,
                "pitch": 103,
                "velocity": 4,
                "duration": 0.18409090909090908,
                "tempo": 120.0
            },
            {
                "start_time": 2.3022727272727272,
                "end_time": 2.352272727272727,
                "pitch": 115,
                "velocity": 4,
                "duration": 0.04999999999999982,
                "tempo": 120.0
            },
            {
                "start_time": 2.352272727272727,
                "end_time": 2.536363636363636,
                "pitch": 103,
                "velocity": 4,
                "duration": 0.18409090909090908,
                "tempo": 120.0
            },
            {
                "start_time": 2.4863636363636363,
                "end_time": 2.536363636363636,
                "pitch": 115,
                "velocity": 4,
                "duration": 0.04999999999999982,
                "tempo": 120.0
            },
            {
                "start_time": 2.536363636363636,
                "end_time": 2.715909090909091,
                "pitch": 103,
                "velocity": 4,
                "duration": 0.17954545454545467,
                "tempo": 120.0
            },
            {
                "start_time": 2.668181818181818,
                "end_time": 2.715909090909091,
                "pitch": 115,
                "velocity": 4,
                "duration": 0.04772727272727284,
                "tempo": 120.0
            },
            {
                "start_time": 2.715909090909091,
                "end_time": 2.8977272727272725,
                "pitch": 103,
                "velocity": 4,
                "duration": 0.18181818181818166,
                "tempo": 120.0
            },
            {
                "start_time": 2.8477272727272727,
                "end_time": 2.8977272727272725,
                "pitch": 115,
                "velocity": 4,
                "duration": 0.04999999999999982,
                "tempo": 120.0
            },
            {
                "start_time": 49.865909090909085,
                "end_time": 51.74772727272727,
                "pitch": 71,
                "velocity": 80,
                "duration": 1.8818181818181827,
                "tempo": 120.0
            },
            {
                "start_time": 51.74772727272727,
                "end_time": 51.87954545454545,
                "pitch": 70,
                "velocity": 80,
                "duration": 0.13181818181818272,
                "tempo": 120.0
            },
            {
                "start_time": 51.87954545454545,
                "end_time": 52.01136363636363,
                "pitch": 71,
                "velocity": 80,
                "duration": 0.13181818181818272,
                "tempo": 120.0
            },
            {
                "start_time": 52.01136363636363,
                "end_time": 53.53409090909091,
                "pitch": 72,
                "velocity": 80,
                "duration": 1.5227272727272734,
                "tempo": 120.0
            },
            {
                "start_time": 53.53409090909091,
                "end_time": 53.80227272727272,
                "pitch": 74,
                "velocity": 80,
                "duration": 0.26818181818181586,
                "tempo": 120.0
            },
            {
                "start_time": 53.80227272727272,
                "end_time": 54.05227272727272,
                "pitch": 72,
                "velocity": 80,
                "duration": 0.25,
                "tempo": 120.0
            },
            {
                "start_time": 54.054545454545455,
                "end_time": 55.59772727272727,
                "pitch": 75,
                "velocity": 80,
                "duration": 1.5431818181818144,
                "tempo": 120.0
            },
            {
                "start_time": 55.59772727272727,
                "end_time": 55.715909090909086,
                "pitch": 75,
                "velocity": 80,
                "duration": 0.11818181818181728,
                "tempo": 120.0
            },
            {
                "start_time": 55.715909090909086,
                "end_time": 55.849999999999994,
                "pitch": 76,
                "velocity": 80,
                "duration": 0.13409090909090793,
                "tempo": 120.0
            },
            {
                "start_time": 55.849999999999994,
                "end_time": 55.98181818181818,
                "pitch": 77,
                "velocity": 80,
                "duration": 0.13181818181818272,
                "tempo": 120.0
            },
            {
                "start_time": 55.98409090909091,
                "end_time": 56.115909090909085,
                "pitch": 78,
                "velocity": 80,
                "duration": 0.13181818181817562,
                "tempo": 120.0
            },
            {
                "start_time": 56.11818181818182,
                "end_time": 56.199999999999996,
                "pitch": 79,
                "velocity": 80,
                "duration": 0.08181818181817846,
                "tempo": 120.0
            },
            {
                "start_time": 56.199999999999996,
                "end_time": 56.38409090909091,
                "pitch": 79,
                "velocity": 80,
                "duration": 0.1840909090909122,
                "tempo": 120.0
            },
            {
                "start_time": 56.199999999999996,
                "end_time": 56.38409090909091,
                "pitch": 91,
                "velocity": 80,
                "duration": 0.1840909090909122,
                "tempo": 120.0
            },
            {
                "start_time": 56.38409090909091,
                "end_time": 56.56818181818181,
                "pitch": 79,
                "velocity": 80,
                "duration": 0.18409090909090509,
                "tempo": 120.0
            },
            {
                "start_time": 56.38409090909091,
                "end_time": 56.56818181818181,
                "pitch": 91,
                "velocity": 80,
                "duration": 0.18409090909090509,
                "tempo": 120.0
            },
            {
                "start_time": 56.56818181818181,
                "end_time": 56.74318181818182,
                "pitch": 79,
                "velocity": 80,
                "duration": 0.17500000000000426,
                "tempo": 120.0
            },
            {
                "start_time": 56.56818181818181,
                "end_time": 56.74545454545454,
                "pitch": 91,
                "velocity": 80,
                "duration": 0.17727272727272947,
                "tempo": 120.0
            },
            {
                "start_time": 56.74318181818182,
                "end_time": 56.74545454545454,
                "pitch": 91,
                "velocity": 80,
                "duration": 0.0022727272727252057,
                "tempo": 120.0
            },
            {
                "start_time": 56.74545454545454,
                "end_time": 56.918181818181814,
                "pitch": 79,
                "velocity": 80,
                "duration": 0.17272727272727195,
                "tempo": 120.0
            },
            {
                "start_time": 56.918181818181814,
                "end_time": 57.090909090909086,
                "pitch": 79,
                "velocity": 80,
                "duration": 0.17272727272727195,
                "tempo": 120.0
            },
            {
                "start_time": 56.918181818181814,
                "end_time": 57.090909090909086,
                "pitch": 91,
                "velocity": 80,
                "duration": 0.17272727272727195,
                "tempo": 120.0
            },
            {
                "start_time": 57.090909090909086,
                "end_time": 57.10909090909091,
                "pitch": 79,
                "velocity": 80,
                "duration": 0.018181818181822962,
                "tempo": 120.0
            },
            {
                "start_time": 57.10909090909091,
                "end_time": 57.627272727272725,
                "pitch": 81,
                "velocity": 80,
                "duration": 0.5181818181818159,
                "tempo": 120.0
            },
            {
                "start_time": 57.627272727272725,
                "end_time": 58.14545454545454,
                "pitch": 84,
                "velocity": 80,
                "duration": 0.5181818181818159,
                "tempo": 120.0
            },
            {
                "start_time": 58.14772727272727,
                "end_time": 59.42727272727272,
                "pitch": 83,
                "velocity": 80,
                "duration": 1.279545454545449,
                "tempo": 120.0
            },
            {
                "start_time": 59.42727272727272,
                "end_time": 59.56136363636363,
                "pitch": 87,
                "velocity": 80,
                "duration": 0.13409090909090793,
                "tempo": 120.0
            },
            {
                "start_time": 59.56136363636363,
                "end_time": 59.695454545454545,
                "pitch": 83,
                "velocity": 80,
                "duration": 0.13409090909091503,
                "tempo": 120.0
            },
            {
                "start_time": 59.695454545454545,
                "end_time": 59.82954545454545,
                "pitch": 88,
                "velocity": 80,
                "duration": 0.13409090909090793,
                "tempo": 120.0
            },
            {
                "start_time": 59.82954545454545,
                "end_time": 59.945454545454545,
                "pitch": 83,
                "velocity": 80,
                "duration": 0.11590909090909207,
                "tempo": 120.0
            },
            {
                "start_time": 59.945454545454545,
                "end_time": 60.07954545454545,
                "pitch": 90,
                "velocity": 80,
                "duration": 0.13409090909090793,
                "tempo": 120.0
            },
            {
                "start_time": 60.07954545454545,
                "end_time": 60.21363636363636,
                "pitch": 83,
                "velocity": 80,
                "duration": 0.13409090909090793,
                "tempo": 120.0
            },
            {
                "start_time": 57.090909090909086,
                "end_time": 60.23181818181818,
                "pitch": 91,
                "velocity": 80,
                "duration": 3.1409090909090907,
                "tempo": 120.0
            },
            {
                "start_time": 60.21363636363636,
                "end_time": 60.23181818181818,
                "pitch": 91,
                "velocity": 80,
                "duration": 0.018181818181815856,
                "tempo": 120.0
            },
            {
                "start_time": 2.8977272727272725,
                "end_time": 60.23181818181818,
                "pitch": 103,
                "velocity": 4,
                "duration": 57.334090909090904,
                "tempo": 120.0
            },
            {
                "start_time": 60.23181818181818,
                "end_time": 60.413636363636364,
                "pitch": 91,
                "velocity": 80,
                "duration": 0.18181818181818699,
                "tempo": 120.0
            },
            {
                "start_time": 60.23181818181818,
                "end_time": 60.413636363636364,
                "pitch": 103,
                "velocity": 80,
                "duration": 0.18181818181818699,
                "tempo": 120.0
            },
            {
                "start_time": 60.413636363636364,
                "end_time": 60.599999999999994,
                "pitch": 91,
                "velocity": 80,
                "duration": 0.1863636363636303,
                "tempo": 120.0
            },
            {
                "start_time": 60.413636363636364,
                "end_time": 60.599999999999994,
                "pitch": 103,
                "velocity": 80,
                "duration": 0.1863636363636303,
                "tempo": 120.0
            },
            {
                "start_time": 60.599999999999994,
                "end_time": 60.777272727272724,
                "pitch": 91,
                "velocity": 80,
                "duration": 0.17727272727272947,
                "tempo": 120.0
            },
            {
                "start_time": 60.599999999999994,
                "end_time": 60.777272727272724,
                "pitch": 103,
                "velocity": 80,
                "duration": 0.17727272727272947,
                "tempo": 120.0
            },
            {
                "start_time": 60.777272727272724,
                "end_time": 60.95227272727272,
                "pitch": 91,
                "velocity": 80,
                "duration": 0.17499999999999716,
                "tempo": 120.0
            },
            {
                "start_time": 60.777272727272724,
                "end_time": 60.95227272727272,
                "pitch": 103,
                "velocity": 80,
                "duration": 0.17499999999999716,
                "tempo": 120.0
            },
            {
                "start_time": 60.95227272727272,
                "end_time": 61.125,
                "pitch": 91,
                "velocity": 80,
                "duration": 0.17272727272727906,
                "tempo": 120.0
            },
            {
                "start_time": 60.95227272727272,
                "end_time": 61.125,
                "pitch": 103,
                "velocity": 80,
                "duration": 0.17272727272727906,
                "tempo": 120.0
            },
            {
                "start_time": 61.125,
                "end_time": 61.20454545454545,
                "pitch": 91,
                "velocity": 80,
                "duration": 0.07954545454545325,
                "tempo": 120.0
            },
            {
                "start_time": 61.20681818181818,
                "end_time": 61.47272727272727,
                "pitch": 93,
                "velocity": 80,
                "duration": 0.26590909090909065,
                "tempo": 120.0
            },
            {
                "start_time": 61.47272727272727,
                "end_time": 61.490909090909085,
                "pitch": 91,
                "velocity": 80,
                "duration": 0.018181818181815856,
                "tempo": 120.0
            },
            {
                "start_time": 61.125,
                "end_time": 61.490909090909085,
                "pitch": 103,
                "velocity": 80,
                "duration": 0.36590909090908497,
                "tempo": 120.0
            },
            {
                "start_time": 61.490909090909085,
                "end_time": 61.675,
                "pitch": 91,
                "velocity": 80,
                "duration": 0.1840909090909122,
                "tempo": 120.0
            },
            {
                "start_time": 61.490909090909085,
                "end_time": 61.675,
                "pitch": 103,
                "velocity": 80,
                "duration": 0.1840909090909122,
                "tempo": 120.0
            },
            {
                "start_time": 61.675,
                "end_time": 61.724999999999994,
                "pitch": 91,
                "velocity": 80,
                "duration": 0.04999999999999716,
                "tempo": 120.0
            },
            {
                "start_time": 61.724999999999994,
                "end_time": 61.99318181818182,
                "pitch": 90,
                "velocity": 80,
                "duration": 0.26818181818182296,
                "tempo": 120.0
            },
            {
                "start_time": 61.99318181818182,
                "end_time": 62.24318181818182,
                "pitch": 88,
                "velocity": 80,
                "duration": 0.25,
                "tempo": 120.0
            },
            {
                "start_time": 62.24318181818182,
                "end_time": 63.027272727272724,
                "pitch": 87,
                "velocity": 80,
                "duration": 0.7840909090909065,
                "tempo": 120.0
            },
            {
                "start_time": 63.027272727272724,
                "end_time": 63.14090909090909,
                "pitch": 87,
                "velocity": 80,
                "duration": 0.11363636363636687,
                "tempo": 120.0
            },
            {
                "start_time": 63.14090909090909,
                "end_time": 63.268181818181816,
                "pitch": 88,
                "velocity": 80,
                "duration": 0.1272727272727252,
                "tempo": 120.0
            },
            {
                "start_time": 63.27045454545454,
                "end_time": 64.30681818181817,
                "pitch": 90,
                "velocity": 80,
                "duration": 1.0363636363636317,
                "tempo": 120.0
            },
            {
                "start_time": 64.30681818181817,
                "end_time": 65.075,
                "pitch": 88,
                "velocity": 80,
                "duration": 0.7681818181818301,
                "tempo": 120.0
            },
            {
                "start_time": 65.075,
                "end_time": 65.20454545454545,
                "pitch": 88,
                "velocity": 80,
                "duration": 0.1295454545454504,
                "tempo": 120.0
            },
            {
                "start_time": 65.20454545454545,
                "end_time": 65.31590909090909,
                "pitch": 90,
                "velocity": 80,
                "duration": 0.11136363636363455,
                "tempo": 120.0
            },
            {
                "start_time": 65.31590909090909,
                "end_time": 65.34772727272727,
                "pitch": 91,
                "velocity": 80,
                "duration": 0.0318181818181813,
                "tempo": 120.0
            },
            {
                "start_time": 61.675,
                "end_time": 65.34772727272727,
                "pitch": 103,
                "velocity": 80,
                "duration": 3.672727272727272,
                "tempo": 120.0
            },
            {
                "start_time": 65.34772727272727,
                "end_time": 65.52499999999999,
                "pitch": 91,
                "velocity": 80,
                "duration": 0.17727272727272236,
                "tempo": 120.0
            },
            {
                "start_time": 65.34772727272727,
                "end_time": 65.52499999999999,
                "pitch": 103,
                "velocity": 80,
                "duration": 0.17727272727272236,
                "tempo": 120.0
            },
            {
                "start_time": 65.52499999999999,
                "end_time": 65.7,
                "pitch": 91,
                "velocity": 80,
                "duration": 0.17500000000001137,
                "tempo": 120.0
            },
            {
                "start_time": 65.52499999999999,
                "end_time": 65.70227272727273,
                "pitch": 103,
                "velocity": 80,
                "duration": 0.17727272727273657,
                "tempo": 120.0
            },
            {
                "start_time": 65.7,
                "end_time": 65.70227272727273,
                "pitch": 103,
                "velocity": 80,
                "duration": 0.0022727272727252057,
                "tempo": 120.0
            },
            {
                "start_time": 65.70227272727273,
                "end_time": 65.80227272727272,
                "pitch": 91,
                "velocity": 80,
                "duration": 0.09999999999999432,
                "tempo": 120.0
            },
            {
                "start_time": 65.80227272727272,
                "end_time": 66.25,
                "pitch": 96,
                "velocity": 80,
                "duration": 0.44772727272727764,
                "tempo": 120.0
            },
            {
                "start_time": 66.25,
                "end_time": 68.325,
                "pitch": 99,
                "velocity": 80,
                "duration": 2.075000000000003,
                "tempo": 120.0
            },
            {
                "start_time": 68.325,
                "end_time": 68.87727272727273,
                "pitch": 97,
                "velocity": 80,
                "duration": 0.5522727272727224,
                "tempo": 120.0
            },
            {
                "start_time": 68.87727272727273,
                "end_time": 69.16136363636363,
                "pitch": 95,
                "velocity": 80,
                "duration": 0.2840909090909065,
                "tempo": 120.0
            }
        ],
        "Harpsichord": [
            {
                "start_time": 41.46818181818182,
                "end_time": 41.59772727272727,
                "pitch": 40,
                "velocity": 32,
                "duration": 0.1295454545454504,
                "tempo": 120.0
            },
            {
                "start_time": 41.59772727272727,
                "end_time": 41.73409090909091,
                "pitch": 35,
                "velocity": 32,
                "duration": 0.13636363636364024,
                "tempo": 120.0
            },
            {
                "start_time": 41.73409090909091,
                "end_time": 41.85,
                "pitch": 42,
                "velocity": 32,
                "duration": 0.11590909090909207,
                "tempo": 120.0
            },
            {
                "start_time": 41.85,
                "end_time": 41.98409090909091,
                "pitch": 35,
                "velocity": 32,
                "duration": 0.13409090909090793,
                "tempo": 120.0
            },
            {
                "start_time": 41.98409090909091,
                "end_time": 42.11590909090909,
                "pitch": 43,
                "velocity": 32,
                "duration": 0.13181818181818272,
                "tempo": 120.0
            },
            {
                "start_time": 42.11590909090909,
                "end_time": 42.23181818181818,
                "pitch": 35,
                "velocity": 32,
                "duration": 0.11590909090908497,
                "tempo": 120.0
            },
            {
                "start_time": 42.23181818181818,
                "end_time": 42.361363636363635,
                "pitch": 40,
                "velocity": 40,
                "duration": 0.12954545454545752,
                "tempo": 120.0
            },
            {
                "start_time": 42.361363636363635,
                "end_time": 42.49545454545454,
                "pitch": 35,
                "velocity": 40,
                "duration": 0.13409090909090793,
                "tempo": 120.0
            },
            {
                "start_time": 42.49545454545454,
                "end_time": 42.627272727272725,
                "pitch": 42,
                "velocity": 40,
                "duration": 0.13181818181818272,
                "tempo": 120.0
            },
            {
                "start_time": 42.627272727272725,
                "end_time": 42.74545454545454,
                "pitch": 35,
                "velocity": 40,
                "duration": 0.11818181818181728,
                "tempo": 120.0
            },
            {
                "start_time": 42.74545454545454,
                "end_time": 42.87954545454545,
                "pitch": 45,
                "velocity": 40,
                "duration": 0.13409090909090793,
                "tempo": 120.0
            },
            {
                "start_time": 42.87954545454545,
                "end_time": 43.01363636363636,
                "pitch": 35,
                "velocity": 40,
                "duration": 0.13409090909090793,
                "tempo": 120.0
            },
            {
                "start_time": 43.01363636363636,
                "end_time": 43.127272727272725,
                "pitch": 40,
                "velocity": 51,
                "duration": 0.11363636363636687,
                "tempo": 120.0
            },
            {
                "start_time": 43.127272727272725,
                "end_time": 43.26136363636363,
                "pitch": 35,
                "velocity": 51,
                "duration": 0.13409090909090793,
                "tempo": 120.0
            },
            {
                "start_time": 43.26136363636363,
                "end_time": 43.39090909090909,
                "pitch": 42,
                "velocity": 51,
                "duration": 0.12954545454545752,
                "tempo": 120.0
            },
            {
                "start_time": 43.39090909090909,
                "end_time": 43.52272727272727,
                "pitch": 35,
                "velocity": 51,
                "duration": 0.13181818181818272,
                "tempo": 120.0
            },
            {
                "start_time": 43.525,
                "end_time": 43.64090909090909,
                "pitch": 46,
                "velocity": 51,
                "duration": 0.11590909090909207,
                "tempo": 120.0
            },
            {
                "start_time": 43.64090909090909,
                "end_time": 43.775,
                "pitch": 35,
                "velocity": 51,
                "duration": 0.13409090909090793,
                "tempo": 120.0
            },
            {
                "start_time": 43.775,
                "end_time": 43.90681818181818,
                "pitch": 40,
                "velocity": 64,
                "duration": 0.13181818181818272,
                "tempo": 120.0
            },
            {
                "start_time": 43.90909090909091,
                "end_time": 44.025,
                "pitch": 35,
                "velocity": 64,
                "duration": 0.11590909090909207,
                "tempo": 120.0
            },
            {
                "start_time": 44.027272727272724,
                "end_time": 44.152272727272724,
                "pitch": 42,
                "velocity": 64,
                "duration": 0.125,
                "tempo": 120.0
            },
            {
                "start_time": 44.15454545454545,
                "end_time": 44.28181818181818,
                "pitch": 35,
                "velocity": 64,
                "duration": 0.1272727272727323,
                "tempo": 120.0
            },
            {
                "start_time": 44.28409090909091,
                "end_time": 44.40909090909091,
                "pitch": 47,
                "velocity": 64,
                "duration": 0.125,
                "tempo": 120.0
            },
            {
                "start_time": 44.41136363636363,
                "end_time": 44.52272727272727,
                "pitch": 35,
                "velocity": 64,
                "duration": 0.11136363636364166,
                "tempo": 120.0
            },
            {
                "start_time": 44.793181818181814,
                "end_time": 45.57272727272727,
                "pitch": 39,
                "velocity": 51,
                "duration": 0.7795454545454561,
                "tempo": 120.0
            },
            {
                "start_time": 45.57272727272727,
                "end_time": 45.70227272727273,
                "pitch": 40,
                "velocity": 32,
                "duration": 0.12954545454545752,
                "tempo": 120.0
            },
            {
                "start_time": 45.70227272727273,
                "end_time": 45.834090909090904,
                "pitch": 35,
                "velocity": 32,
                "duration": 0.13181818181817562,
                "tempo": 120.0
            },
            {
                "start_time": 45.834090909090904,
                "end_time": 45.94772727272727,
                "pitch": 42,
                "velocity": 32,
                "duration": 0.11363636363636687,
                "tempo": 120.0
            },
            {
                "start_time": 45.94772727272727,
                "end_time": 46.08181818181818,
                "pitch": 35,
                "velocity": 32,
                "duration": 0.13409090909090793,
                "tempo": 120.0
            },
            {
                "start_time": 46.08181818181818,
                "end_time": 46.211363636363636,
                "pitch": 43,
                "velocity": 32,
                "duration": 0.12954545454545752,
                "tempo": 120.0
            },
            {
                "start_time": 46.211363636363636,
                "end_time": 46.32727272727273,
                "pitch": 35,
                "velocity": 32,
                "duration": 0.11590909090909207,
                "tempo": 120.0
            },
            {
                "start_time": 46.32954545454545,
                "end_time": 46.459090909090904,
                "pitch": 40,
                "velocity": 40,
                "duration": 0.1295454545454504,
                "tempo": 120.0
            },
            {
                "start_time": 46.459090909090904,
                "end_time": 46.590909090909086,
                "pitch": 35,
                "velocity": 40,
                "duration": 0.13181818181818272,
                "tempo": 120.0
            },
            {
                "start_time": 46.590909090909086,
                "end_time": 46.724999999999994,
                "pitch": 42,
                "velocity": 40,
                "duration": 0.13409090909090793,
                "tempo": 120.0
            },
            {
                "start_time": 46.724999999999994,
                "end_time": 46.84318181818182,
                "pitch": 35,
                "velocity": 40,
                "duration": 0.11818181818182438,
                "tempo": 120.0
            },
            {
                "start_time": 46.84318181818182,
                "end_time": 46.974999999999994,
                "pitch": 45,
                "velocity": 40,
                "duration": 0.13181818181817562,
                "tempo": 120.0
            },
            {
                "start_time": 46.974999999999994,
                "end_time": 47.111363636363635,
                "pitch": 35,
                "velocity": 40,
                "duration": 0.13636363636364024,
                "tempo": 120.0
            },
            {
                "start_time": 47.111363636363635,
                "end_time": 47.24318181818182,
                "pitch": 40,
                "velocity": 51,
                "duration": 0.13181818181818272,
                "tempo": 120.0
            },
            {
                "start_time": 47.24318181818182,
                "end_time": 47.361363636363635,
                "pitch": 35,
                "velocity": 51,
                "duration": 0.11818181818181728,
                "tempo": 120.0
            },
            {
                "start_time": 47.361363636363635,
                "end_time": 47.49545454545454,
                "pitch": 42,
                "velocity": 51,
                "duration": 0.13409090909090793,
                "tempo": 120.0
            },
            {
                "start_time": 47.49545454545454,
                "end_time": 47.62954545454545,
                "pitch": 35,
                "velocity": 51,
                "duration": 0.13409090909090793,
                "tempo": 120.0
            },
            {
                "start_time": 47.62954545454545,
                "end_time": 47.74318181818182,
                "pitch": 46,
                "velocity": 51,
                "duration": 0.11363636363636687,
                "tempo": 120.0
            },
            {
                "start_time": 47.74318181818182,
                "end_time": 47.877272727272725,
                "pitch": 35,
                "velocity": 51,
                "duration": 0.13409090909090793,
                "tempo": 120.0
            },
            {
                "start_time": 47.877272727272725,
                "end_time": 48.00681818181818,
                "pitch": 40,
                "velocity": 64,
                "duration": 0.12954545454545752,
                "tempo": 120.0
            },
            {
                "start_time": 48.00681818181818,
                "end_time": 48.14090909090909,
                "pitch": 35,
                "velocity": 64,
                "duration": 0.13409090909090793,
                "tempo": 120.0
            },
            {
                "start_time": 48.14090909090909,
                "end_time": 48.25681818181818,
                "pitch": 42,
                "velocity": 64,
                "duration": 0.11590909090909207,
                "tempo": 120.0
            },
            {
                "start_time": 48.25681818181818,
                "end_time": 48.39090909090909,
                "pitch": 35,
                "velocity": 64,
                "duration": 0.13409090909090793,
                "tempo": 120.0
            },
            {
                "start_time": 48.39090909090909,
                "end_time": 48.52272727272727,
                "pitch": 47,
                "velocity": 64,
                "duration": 0.13181818181818272,
                "tempo": 120.0
            },
            {
                "start_time": 48.525,
                "end_time": 48.64090909090909,
                "pitch": 35,
                "velocity": 64,
                "duration": 0.11590909090909207,
                "tempo": 120.0
            },
            {
                "start_time": 48.9,
                "end_time": 49.70227272727273,
                "pitch": 39,
                "velocity": 51,
                "duration": 0.8022727272727295,
                "tempo": 120.0
            }
        ],
        "Synth Bass 1": [
            {
                "start_time": 0.4295454545454545,
                "end_time": 0.6431818181818182,
                "pitch": 40,
                "velocity": 51,
                "duration": 0.21363636363636368,
                "tempo": 120.0
            },
            {
                "start_time": 0.6954545454545454,
                "end_time": 0.8113636363636363,
                "pitch": 40,
                "velocity": 51,
                "duration": 0.11590909090909085,
                "tempo": 120.0
            },
            {
                "start_time": 0.8295454545454545,
                "end_time": 0.9295454545454545,
                "pitch": 40,
                "velocity": 51,
                "duration": 0.09999999999999998,
                "tempo": 120.0
            },
            {
                "start_time": 0.9454545454545454,
                "end_time": 1.0636363636363635,
                "pitch": 40,
                "velocity": 51,
                "duration": 0.11818181818181805,
                "tempo": 120.0
            },
            {
                "start_time": 1.0795454545454546,
                "end_time": 1.1954545454545453,
                "pitch": 40,
                "velocity": 51,
                "duration": 0.11590909090909074,
                "tempo": 120.0
            },
            {
                "start_time": 1.2136363636363636,
                "end_time": 1.3136363636363635,
                "pitch": 40,
                "velocity": 20,
                "duration": 0.09999999999999987,
                "tempo": 120.0
            },
            {
                "start_time": 1.3477272727272727,
                "end_time": 1.4477272727272728,
                "pitch": 40,
                "velocity": 51,
                "duration": 0.10000000000000009,
                "tempo": 120.0
            },
            {
                "start_time": 1.4659090909090908,
                "end_time": 1.5818181818181818,
                "pitch": 40,
                "velocity": 20,
                "duration": 0.11590909090909096,
                "tempo": 120.0
            },
            {
                "start_time": 1.5977272727272727,
                "end_time": 1.7159090909090908,
                "pitch": 40,
                "velocity": 10,
                "duration": 0.11818181818181817,
                "tempo": 120.0
            },
            {
                "start_time": 2.252272727272727,
                "end_time": 2.368181818181818,
                "pitch": 50,
                "velocity": 51,
                "duration": 0.11590909090909118,
                "tempo": 120.0
            },
            {
                "start_time": 2.368181818181818,
                "end_time": 2.502272727272727,
                "pitch": 52,
                "velocity": 51,
                "duration": 0.13409090909090882,
                "tempo": 120.0
            },
            {
                "start_time": 2.5045454545454544,
                "end_time": 2.6999999999999997,
                "pitch": 40,
                "velocity": 51,
                "duration": 0.19545454545454533,
                "tempo": 120.0
            },
            {
                "start_time": 2.75,
                "end_time": 2.8636363636363633,
                "pitch": 40,
                "velocity": 51,
                "duration": 0.11363636363636331,
                "tempo": 120.0
            },
            {
                "start_time": 2.881818181818182,
                "end_time": 2.995454545454545,
                "pitch": 40,
                "velocity": 51,
                "duration": 0.11363636363636331,
                "tempo": 120.0
            },
            {
                "start_time": 3.0136363636363637,
                "end_time": 3.1295454545454544,
                "pitch": 40,
                "velocity": 51,
                "duration": 0.11590909090909074,
                "tempo": 120.0
            },
            {
                "start_time": 3.1477272727272725,
                "end_time": 3.2477272727272726,
                "pitch": 40,
                "velocity": 51,
                "duration": 0.10000000000000009,
                "tempo": 120.0
            },
            {
                "start_time": 3.2659090909090907,
                "end_time": 3.381818181818182,
                "pitch": 40,
                "velocity": 20,
                "duration": 0.11590909090909118,
                "tempo": 120.0
            },
            {
                "start_time": 3.4,
                "end_time": 3.5159090909090907,
                "pitch": 40,
                "velocity": 51,
                "duration": 0.11590909090909074,
                "tempo": 120.0
            },
            {
                "start_time": 3.5340909090909087,
                "end_time": 3.634090909090909,
                "pitch": 40,
                "velocity": 20,
                "duration": 0.10000000000000009,
                "tempo": 120.0
            },
            {
                "start_time": 3.6704545454545454,
                "end_time": 3.770454545454545,
                "pitch": 40,
                "velocity": 10,
                "duration": 0.09999999999999964,
                "tempo": 120.0
            },
            {
                "start_time": 4.0613636363636365,
                "end_time": 4.159090909090909,
                "pitch": 52,
                "velocity": 51,
                "duration": 0.09772727272727266,
                "tempo": 120.0
            },
            {
                "start_time": 4.177272727272727,
                "end_time": 4.290909090909091,
                "pitch": 52,
                "velocity": 51,
                "duration": 0.1136363636363642,
                "tempo": 120.0
            },
            {
                "start_time": 4.309090909090909,
                "end_time": 4.422727272727273,
                "pitch": 47,
                "velocity": 51,
                "duration": 0.1136363636363642,
                "tempo": 120.0
            },
            {
                "start_time": 4.4409090909090905,
                "end_time": 4.538636363636363,
                "pitch": 40,
                "velocity": 51,
                "duration": 0.09772727272727266,
                "tempo": 120.0
            },
            {
                "start_time": 4.572727272727272,
                "end_time": 4.7704545454545455,
                "pitch": 40,
                "velocity": 51,
                "duration": 0.1977272727272732,
                "tempo": 120.0
            },
            {
                "start_time": 4.822727272727272,
                "end_time": 4.9386363636363635,
                "pitch": 40,
                "velocity": 51,
                "duration": 0.11590909090909118,
                "tempo": 120.0
            },
            {
                "start_time": 4.956818181818182,
                "end_time": 5.056818181818182,
                "pitch": 40,
                "velocity": 51,
                "duration": 0.09999999999999964,
                "tempo": 120.0
            },
            {
                "start_time": 5.072727272727272,
                "end_time": 5.184090909090909,
                "pitch": 40,
                "velocity": 51,
                "duration": 0.11136363636363633,
                "tempo": 120.0
            },
            {
                "start_time": 5.2,
                "end_time": 5.309090909090909,
                "pitch": 40,
                "velocity": 51,
                "duration": 0.10909090909090846,
                "tempo": 120.0
            },
            {
                "start_time": 5.325,
                "end_time": 5.420454545454545,
                "pitch": 40,
                "velocity": 20,
                "duration": 0.09545454545454479,
                "tempo": 120.0
            },
            {
                "start_time": 5.452272727272727,
                "end_time": 5.545454545454545,
                "pitch": 40,
                "velocity": 51,
                "duration": 0.09318181818181781,
                "tempo": 120.0
            },
            {
                "start_time": 5.5636363636363635,
                "end_time": 5.679545454545455,
                "pitch": 40,
                "velocity": 20,
                "duration": 0.11590909090909118,
                "tempo": 120.0
            },
            {
                "start_time": 5.697727272727272,
                "end_time": 5.8159090909090905,
                "pitch": 40,
                "velocity": 10,
                "duration": 0.11818181818181817,
                "tempo": 120.0
            },
            {
                "start_time": 6.3545454545454545,
                "end_time": 6.468181818181818,
                "pitch": 50,
                "velocity": 51,
                "duration": 0.11363636363636331,
                "tempo": 120.0
            },
            {
                "start_time": 6.468181818181818,
                "end_time": 6.6,
                "pitch": 52,
                "velocity": 51,
                "duration": 0.13181818181818183,
                "tempo": 120.0
            },
            {
                "start_time": 6.602272727272727,
                "end_time": 6.8,
                "pitch": 40,
                "velocity": 51,
                "duration": 0.1977272727272732,
                "tempo": 120.0
            },
            {
                "start_time": 6.868181818181818,
                "end_time": 6.968181818181818,
                "pitch": 40,
                "velocity": 51,
                "duration": 0.09999999999999964,
                "tempo": 120.0
            },
            {
                "start_time": 6.986363636363636,
                "end_time": 7.102272727272727,
                "pitch": 40,
                "velocity": 51,
                "duration": 0.1159090909090903,
                "tempo": 120.0
            },
            {
                "start_time": 7.120454545454545,
                "end_time": 7.2340909090909085,
                "pitch": 40,
                "velocity": 51,
                "duration": 0.11363636363636331,
                "tempo": 120.0
            },
            {
                "start_time": 7.25,
                "end_time": 7.35,
                "pitch": 40,
                "velocity": 51,
                "duration": 0.09999999999999964,
                "tempo": 120.0
            },
            {
                "start_time": 7.36590909090909,
                "end_time": 7.4818181818181815,
                "pitch": 40,
                "velocity": 20,
                "duration": 0.11590909090909118,
                "tempo": 120.0
            },
            {
                "start_time": 7.497727272727272,
                "end_time": 7.613636363636363,
                "pitch": 40,
                "velocity": 51,
                "duration": 0.11590909090909118,
                "tempo": 120.0
            },
            {
                "start_time": 7.629545454545454,
                "end_time": 7.727272727272727,
                "pitch": 40,
                "velocity": 20,
                "duration": 0.09772727272727266,
                "tempo": 120.0
            },
            {
                "start_time": 7.761363636363636,
                "end_time": 7.8590909090909085,
                "pitch": 40,
                "velocity": 10,
                "duration": 0.09772727272727266,
                "tempo": 120.0
            },
            {
                "start_time": 8.14090909090909,
                "end_time": 8.24090909090909,
                "pitch": 52,
                "velocity": 51,
                "duration": 0.09999999999999964,
                "tempo": 120.0
            },
            {
                "start_time": 8.259090909090908,
                "end_time": 8.377272727272727,
                "pitch": 52,
                "velocity": 51,
                "duration": 0.11818181818181905,
                "tempo": 120.0
            },
            {
                "start_time": 8.395454545454545,
                "end_time": 8.513636363636364,
                "pitch": 47,
                "velocity": 51,
                "duration": 0.11818181818181905,
                "tempo": 120.0
            },
            {
                "start_time": 8.531818181818181,
                "end_time": 8.65,
                "pitch": 40,
                "velocity": 51,
                "duration": 0.11818181818181905,
                "tempo": 120.0
            },
            {
                "start_time": 8.672727272727272,
                "end_time": 8.868181818181817,
                "pitch": 40,
                "velocity": 51,
                "duration": 0.19545454545454533,
                "tempo": 120.0
            },
            {
                "start_time": 8.920454545454545,
                "end_time": 9.036363636363635,
                "pitch": 40,
                "velocity": 51,
                "duration": 0.1159090909090903,
                "tempo": 120.0
            },
            {
                "start_time": 9.052272727272728,
                "end_time": 9.152272727272727,
                "pitch": 40,
                "velocity": 51,
                "duration": 0.09999999999999964,
                "tempo": 120.0
            },
            {
                "start_time": 9.170454545454545,
                "end_time": 9.281818181818181,
                "pitch": 40,
                "velocity": 51,
                "duration": 0.11136363636363633,
                "tempo": 120.0
            },
            {
                "start_time": 9.299999999999999,
                "end_time": 9.411363636363635,
                "pitch": 40,
                "velocity": 51,
                "duration": 0.11136363636363633,
                "tempo": 120.0
            },
            {
                "start_time": 9.427272727272728,
                "end_time": 9.538636363636364,
                "pitch": 40,
                "velocity": 20,
                "duration": 0.11136363636363633,
                "tempo": 120.0
            },
            {
                "start_time": 9.556818181818182,
                "end_time": 9.652272727272727,
                "pitch": 40,
                "velocity": 51,
                "duration": 0.09545454545454568,
                "tempo": 120.0
            },
            {
                "start_time": 9.668181818181818,
                "end_time": 9.784090909090908,
                "pitch": 40,
                "velocity": 20,
                "duration": 0.1159090909090903,
                "tempo": 120.0
            },
            {
                "start_time": 9.802272727272726,
                "end_time": 9.918181818181818,
                "pitch": 40,
                "velocity": 10,
                "duration": 0.11590909090909207,
                "tempo": 120.0
            },
            {
                "start_time": 10.45,
                "end_time": 10.56590909090909,
                "pitch": 50,
                "velocity": 51,
                "duration": 0.1159090909090903,
                "tempo": 120.0
            },
            {
                "start_time": 10.56590909090909,
                "end_time": 10.7,
                "pitch": 52,
                "velocity": 51,
                "duration": 0.1340909090909097,
                "tempo": 120.0
            },
            {
                "start_time": 10.7,
                "end_time": 10.897727272727272,
                "pitch": 40,
                "velocity": 51,
                "duration": 0.1977272727272723,
                "tempo": 120.0
            },
            {
                "start_time": 10.96590909090909,
                "end_time": 11.06590909090909,
                "pitch": 40,
                "velocity": 51,
                "duration": 0.09999999999999964,
                "tempo": 120.0
            },
            {
                "start_time": 11.081818181818182,
                "end_time": 11.2,
                "pitch": 40,
                "velocity": 51,
                "duration": 0.11818181818181728,
                "tempo": 120.0
            },
            {
                "start_time": 11.21590909090909,
                "end_time": 11.334090909090909,
                "pitch": 40,
                "velocity": 51,
                "duration": 0.11818181818181905,
                "tempo": 120.0
            },
            {
                "start_time": 11.35,
                "end_time": 11.45,
                "pitch": 40,
                "velocity": 51,
                "duration": 0.09999999999999964,
                "tempo": 120.0
            },
            {
                "start_time": 11.468181818181817,
                "end_time": 11.584090909090909,
                "pitch": 40,
                "velocity": 20,
                "duration": 0.11590909090909207,
                "tempo": 120.0
            },
            {
                "start_time": 11.602272727272727,
                "end_time": 11.718181818181817,
                "pitch": 40,
                "velocity": 51,
                "duration": 0.1159090909090903,
                "tempo": 120.0
            },
            {
                "start_time": 11.738636363636363,
                "end_time": 11.852272727272727,
                "pitch": 40,
                "velocity": 20,
                "duration": 0.11363636363636331,
                "tempo": 120.0
            },
            {
                "start_time": 11.868181818181817,
                "end_time": 11.970454545454546,
                "pitch": 40,
                "velocity": 10,
                "duration": 0.1022727272727284,
                "tempo": 120.0
            },
            {
                "start_time": 12.254545454545454,
                "end_time": 12.352272727272727,
                "pitch": 52,
                "velocity": 51,
                "duration": 0.09772727272727266,
                "tempo": 120.0
            },
            {
                "start_time": 12.386363636363635,
                "end_time": 12.48409090909091,
                "pitch": 52,
                "velocity": 51,
                "duration": 0.09772727272727444,
                "tempo": 120.0
            },
            {
                "start_time": 12.502272727272727,
                "end_time": 12.61590909090909,
                "pitch": 47,
                "velocity": 51,
                "duration": 0.11363636363636331,
                "tempo": 120.0
            },
            {
                "start_time": 12.634090909090908,
                "end_time": 12.747727272727271,
                "pitch": 40,
                "velocity": 51,
                "duration": 0.11363636363636331,
                "tempo": 120.0
            },
            {
                "start_time": 12.768181818181818,
                "end_time": 12.96590909090909,
                "pitch": 40,
                "velocity": 51,
                "duration": 0.1977272727272723,
                "tempo": 120.0
            },
            {
                "start_time": 13.01590909090909,
                "end_time": 13.131818181818181,
                "pitch": 40,
                "velocity": 51,
                "duration": 0.1159090909090903,
                "tempo": 120.0
            },
            {
                "start_time": 13.149999999999999,
                "end_time": 13.25,
                "pitch": 40,
                "velocity": 51,
                "duration": 0.10000000000000142,
                "tempo": 120.0
            },
            {
                "start_time": 13.284090909090908,
                "end_time": 13.381818181818181,
                "pitch": 40,
                "velocity": 51,
                "duration": 0.09772727272727266,
                "tempo": 120.0
            },
            {
                "start_time": 13.399999999999999,
                "end_time": 13.513636363636364,
                "pitch": 40,
                "velocity": 51,
                "duration": 0.11363636363636509,
                "tempo": 120.0
            },
            {
                "start_time": 13.531818181818181,
                "end_time": 13.645454545454545,
                "pitch": 40,
                "velocity": 20,
                "duration": 0.11363636363636331,
                "tempo": 120.0
            },
            {
                "start_time": 13.661363636363635,
                "end_time": 13.761363636363635,
                "pitch": 40,
                "velocity": 51,
                "duration": 0.09999999999999964,
                "tempo": 120.0
            },
            {
                "start_time": 13.777272727272727,
                "end_time": 13.893181818181818,
                "pitch": 40,
                "velocity": 20,
                "duration": 0.1159090909090903,
                "tempo": 120.0
            },
            {
                "start_time": 13.909090909090908,
                "end_time": 14.024999999999999,
                "pitch": 40,
                "velocity": 10,
                "duration": 0.1159090909090903,
                "tempo": 120.0
            },
            {
                "start_time": 14.552272727272726,
                "end_time": 14.665909090909091,
                "pitch": 50,
                "velocity": 51,
                "duration": 0.11363636363636509,
                "tempo": 120.0
            },
            {
                "start_time": 14.665909090909091,
                "end_time": 14.799999999999999,
                "pitch": 52,
                "velocity": 51,
                "duration": 0.13409090909090793,
                "tempo": 120.0
            },
            {
                "start_time": 14.799999999999999,
                "end_time": 14.997727272727271,
                "pitch": 40,
                "velocity": 51,
                "duration": 0.1977272727272723,
                "tempo": 120.0
            },
            {
                "start_time": 15.06590909090909,
                "end_time": 15.165909090909091,
                "pitch": 40,
                "velocity": 51,
                "duration": 0.10000000000000142,
                "tempo": 120.0
            },
            {
                "start_time": 15.181818181818182,
                "end_time": 15.299999999999999,
                "pitch": 40,
                "velocity": 51,
                "duration": 0.11818181818181728,
                "tempo": 120.0
            },
            {
                "start_time": 15.318181818181817,
                "end_time": 15.434090909090909,
                "pitch": 40,
                "velocity": 51,
                "duration": 0.11590909090909207,
                "tempo": 120.0
            },
            {
                "start_time": 15.452272727272726,
                "end_time": 15.549999999999999,
                "pitch": 40,
                "velocity": 51,
                "duration": 0.09772727272727266,
                "tempo": 120.0
            },
            {
                "start_time": 15.584090909090909,
                "end_time": 15.684090909090909,
                "pitch": 40,
                "velocity": 20,
                "duration": 0.09999999999999964,
                "tempo": 120.0
            },
            {
                "start_time": 15.702272727272726,
                "end_time": 15.818181818181817,
                "pitch": 40,
                "velocity": 51,
                "duration": 0.1159090909090903,
                "tempo": 120.0
            },
            {
                "start_time": 15.836363636363636,
                "end_time": 15.952272727272726,
                "pitch": 40,
                "velocity": 20,
                "duration": 0.1159090909090903,
                "tempo": 120.0
            },
            {
                "start_time": 15.970454545454544,
                "end_time": 16.070454545454545,
                "pitch": 40,
                "velocity": 10,
                "duration": 0.10000000000000142,
                "tempo": 120.0
            },
            {
                "start_time": 16.354545454545455,
                "end_time": 16.454545454545453,
                "pitch": 52,
                "velocity": 51,
                "duration": 0.09999999999999787,
                "tempo": 120.0
            },
            {
                "start_time": 16.486363636363635,
                "end_time": 16.584090909090907,
                "pitch": 52,
                "velocity": 51,
                "duration": 0.09772727272727266,
                "tempo": 120.0
            },
            {
                "start_time": 16.602272727272727,
                "end_time": 16.71590909090909,
                "pitch": 47,
                "velocity": 51,
                "duration": 0.11363636363636331,
                "tempo": 120.0
            },
            {
                "start_time": 16.73409090909091,
                "end_time": 16.847727272727273,
                "pitch": 40,
                "velocity": 51,
                "duration": 0.11363636363636331,
                "tempo": 120.0
            },
            {
                "start_time": 16.868181818181817,
                "end_time": 17.06590909090909,
                "pitch": 40,
                "velocity": 51,
                "duration": 0.19772727272727408,
                "tempo": 120.0
            },
            {
                "start_time": 17.118181818181817,
                "end_time": 17.23409090909091,
                "pitch": 40,
                "velocity": 51,
                "duration": 0.11590909090909207,
                "tempo": 120.0
            },
            {
                "start_time": 17.25,
                "end_time": 17.368181818181817,
                "pitch": 40,
                "velocity": 51,
                "duration": 0.11818181818181728,
                "tempo": 120.0
            },
            {
                "start_time": 17.384090909090908,
                "end_time": 17.48409090909091,
                "pitch": 40,
                "velocity": 51,
                "duration": 0.10000000000000142,
                "tempo": 120.0
            },
            {
                "start_time": 17.502272727272725,
                "end_time": 17.618181818181817,
                "pitch": 40,
                "velocity": 51,
                "duration": 0.11590909090909207,
                "tempo": 120.0
            },
            {
                "start_time": 17.636363636363637,
                "end_time": 17.752272727272725,
                "pitch": 40,
                "velocity": 20,
                "duration": 0.11590909090908852,
                "tempo": 120.0
            },
            {
                "start_time": 17.770454545454545,
                "end_time": 17.870454545454546,
                "pitch": 40,
                "velocity": 51,
                "duration": 0.10000000000000142,
                "tempo": 120.0
            },
            {
                "start_time": 17.888636363636362,
                "end_time": 18.0,
                "pitch": 40,
                "velocity": 20,
                "duration": 0.11136363636363811,
                "tempo": 120.0
            },
            {
                "start_time": 18.01590909090909,
                "end_time": 18.127272727272725,
                "pitch": 40,
                "velocity": 10,
                "duration": 0.11136363636363455,
                "tempo": 120.0
            },
            {
                "start_time": 18.647727272727273,
                "end_time": 18.779545454545453,
                "pitch": 50,
                "velocity": 51,
                "duration": 0.13181818181817917,
                "tempo": 120.0
            },
            {
                "start_time": 18.779545454545453,
                "end_time": 18.897727272727273,
                "pitch": 52,
                "velocity": 51,
                "duration": 0.11818181818182083,
                "tempo": 120.0
            },
            {
                "start_time": 18.897727272727273,
                "end_time": 19.095454545454544,
                "pitch": 40,
                "velocity": 51,
                "duration": 0.19772727272727053,
                "tempo": 120.0
            },
            {
                "start_time": 19.163636363636364,
                "end_time": 19.263636363636362,
                "pitch": 40,
                "velocity": 51,
                "duration": 0.09999999999999787,
                "tempo": 120.0
            },
            {
                "start_time": 19.279545454545453,
                "end_time": 19.397727272727273,
                "pitch": 40,
                "velocity": 51,
                "duration": 0.11818181818182083,
                "tempo": 120.0
            },
            {
                "start_time": 19.413636363636364,
                "end_time": 19.53181818181818,
                "pitch": 40,
                "velocity": 51,
                "duration": 0.11818181818181728,
                "tempo": 120.0
            },
            {
                "start_time": 19.547727272727272,
                "end_time": 19.647727272727273,
                "pitch": 40,
                "velocity": 51,
                "duration": 0.10000000000000142,
                "tempo": 120.0
            },
            {
                "start_time": 19.68181818181818,
                "end_time": 19.78181818181818,
                "pitch": 40,
                "velocity": 20,
                "duration": 0.10000000000000142,
                "tempo": 120.0
            },
            {
                "start_time": 19.8,
                "end_time": 19.91590909090909,
                "pitch": 40,
                "velocity": 51,
                "duration": 0.11590909090908852,
                "tempo": 120.0
            },
            {
                "start_time": 19.936363636363634,
                "end_time": 20.05,
                "pitch": 40,
                "velocity": 20,
                "duration": 0.11363636363636687,
                "tempo": 120.0
            },
            {
                "start_time": 20.06590909090909,
                "end_time": 20.168181818181818,
                "pitch": 40,
                "velocity": 10,
                "duration": 0.10227272727272663,
                "tempo": 120.0
            },
            {
                "start_time": 20.452272727272728,
                "end_time": 20.568181818181817,
                "pitch": 52,
                "velocity": 51,
                "duration": 0.11590909090908852,
                "tempo": 120.0
            },
            {
                "start_time": 20.586363636363636,
                "end_time": 20.686363636363634,
                "pitch": 52,
                "velocity": 51,
                "duration": 0.09999999999999787,
                "tempo": 120.0
            },
            {
                "start_time": 20.704545454545453,
                "end_time": 20.820454545454545,
                "pitch": 47,
                "velocity": 51,
                "duration": 0.11590909090909207,
                "tempo": 120.0
            },
            {
                "start_time": 20.83863636363636,
                "end_time": 20.954545454545453,
                "pitch": 40,
                "velocity": 51,
                "duration": 0.11590909090909207,
                "tempo": 120.0
            },
            {
                "start_time": 20.974999999999998,
                "end_time": 21.168181818181818,
                "pitch": 40,
                "velocity": 51,
                "duration": 0.19318181818182012,
                "tempo": 120.0
            },
            {
                "start_time": 21.21818181818182,
                "end_time": 21.334090909090907,
                "pitch": 40,
                "velocity": 51,
                "duration": 0.11590909090908852,
                "tempo": 120.0
            },
            {
                "start_time": 21.349999999999998,
                "end_time": 21.46363636363636,
                "pitch": 40,
                "velocity": 51,
                "duration": 0.11363636363636331,
                "tempo": 120.0
            },
            {
                "start_time": 21.48181818181818,
                "end_time": 21.581818181818182,
                "pitch": 40,
                "velocity": 51,
                "duration": 0.10000000000000142,
                "tempo": 120.0
            },
            {
                "start_time": 21.599999999999998,
                "end_time": 21.71590909090909,
                "pitch": 40,
                "velocity": 51,
                "duration": 0.11590909090909207,
                "tempo": 120.0
            },
            {
                "start_time": 21.73181818181818,
                "end_time": 21.849999999999998,
                "pitch": 40,
                "velocity": 20,
                "duration": 0.11818181818181728,
                "tempo": 120.0
            },
            {
                "start_time": 21.86590909090909,
                "end_time": 21.96590909090909,
                "pitch": 40,
                "velocity": 51,
                "duration": 0.10000000000000142,
                "tempo": 120.0
            },
            {
                "start_time": 22.004545454545454,
                "end_time": 22.099999999999998,
                "pitch": 40,
                "velocity": 20,
                "duration": 0.0954545454545439,
                "tempo": 120.0
            },
            {
                "start_time": 22.118181818181817,
                "end_time": 22.23409090909091,
                "pitch": 40,
                "velocity": 10,
                "duration": 0.11590909090909207,
                "tempo": 120.0
            },
            {
                "start_time": 22.761363636363637,
                "end_time": 22.888636363636362,
                "pitch": 50,
                "velocity": 51,
                "duration": 0.1272727272727252,
                "tempo": 120.0
            },
            {
                "start_time": 22.888636363636362,
                "end_time": 23.0,
                "pitch": 52,
                "velocity": 51,
                "duration": 0.11136363636363811,
                "tempo": 120.0
            },
            {
                "start_time": 23.0,
                "end_time": 23.19772727272727,
                "pitch": 40,
                "velocity": 51,
                "duration": 0.19772727272727053,
                "tempo": 120.0
            },
            {
                "start_time": 23.263636363636362,
                "end_time": 23.361363636363635,
                "pitch": 40,
                "velocity": 51,
                "duration": 0.09772727272727266,
                "tempo": 120.0
            },
            {
                "start_time": 23.379545454545454,
                "end_time": 23.493181818181817,
                "pitch": 40,
                "velocity": 51,
                "duration": 0.11363636363636331,
                "tempo": 120.0
            },
            {
                "start_time": 23.511363636363637,
                "end_time": 23.627272727272725,
                "pitch": 40,
                "velocity": 51,
                "duration": 0.11590909090908852,
                "tempo": 120.0
            },
            {
                "start_time": 23.645454545454545,
                "end_time": 23.761363636363637,
                "pitch": 40,
                "velocity": 51,
                "duration": 0.11590909090909207,
                "tempo": 120.0
            },
            {
                "start_time": 23.779545454545453,
                "end_time": 23.879545454545454,
                "pitch": 40,
                "velocity": 20,
                "duration": 0.10000000000000142,
                "tempo": 120.0
            },
            {
                "start_time": 23.895454545454545,
                "end_time": 24.013636363636362,
                "pitch": 40,
                "velocity": 51,
                "duration": 0.11818181818181728,
                "tempo": 120.0
            },
            {
                "start_time": 24.03181818181818,
                "end_time": 24.14772727272727,
                "pitch": 40,
                "velocity": 20,
                "duration": 0.11590909090908852,
                "tempo": 120.0
            },
            {
                "start_time": 24.163636363636364,
                "end_time": 24.263636363636362,
                "pitch": 40,
                "velocity": 10,
                "duration": 0.09999999999999787,
                "tempo": 120.0
            },
            {
                "start_time": 24.549999999999997,
                "end_time": 24.66590909090909,
                "pitch": 52,
                "velocity": 51,
                "duration": 0.11590909090909207,
                "tempo": 120.0
            },
            {
                "start_time": 24.68409090909091,
                "end_time": 24.784090909090907,
                "pitch": 52,
                "velocity": 51,
                "duration": 0.09999999999999787,
                "tempo": 120.0
            },
            {
                "start_time": 24.799999999999997,
                "end_time": 24.918181818181818,
                "pitch": 47,
                "velocity": 51,
                "duration": 0.11818181818182083,
                "tempo": 120.0
            },
            {
                "start_time": 24.93409090909091,
                "end_time": 25.049999999999997,
                "pitch": 40,
                "velocity": 51,
                "duration": 0.11590909090908852,
                "tempo": 120.0
            },
            {
                "start_time": 25.070454545454545,
                "end_time": 25.268181818181816,
                "pitch": 40,
                "velocity": 51,
                "duration": 0.19772727272727053,
                "tempo": 120.0
            },
            {
                "start_time": 25.320454545454545,
                "end_time": 25.436363636363634,
                "pitch": 40,
                "velocity": 51,
                "duration": 0.11590909090908852,
                "tempo": 120.0
            },
            {
                "start_time": 25.452272727272724,
                "end_time": 25.570454545454545,
                "pitch": 40,
                "velocity": 51,
                "duration": 0.11818181818182083,
                "tempo": 120.0
            },
            {
                "start_time": 25.58863636363636,
                "end_time": 25.686363636363634,
                "pitch": 40,
                "velocity": 51,
                "duration": 0.09772727272727266,
                "tempo": 120.0
            },
            {
                "start_time": 25.702272727272724,
                "end_time": 25.818181818181817,
                "pitch": 40,
                "velocity": 51,
                "duration": 0.11590909090909207,
                "tempo": 120.0
            },
            {
                "start_time": 25.834090909090907,
                "end_time": 25.95,
                "pitch": 40,
                "velocity": 20,
                "duration": 0.11590909090909207,
                "tempo": 120.0
            },
            {
                "start_time": 25.96590909090909,
                "end_time": 26.079545454545453,
                "pitch": 40,
                "velocity": 51,
                "duration": 0.11363636363636331,
                "tempo": 120.0
            },
            {
                "start_time": 26.097727272727273,
                "end_time": 26.19772727272727,
                "pitch": 40,
                "velocity": 20,
                "duration": 0.09999999999999787,
                "tempo": 120.0
            },
            {
                "start_time": 26.21363636363636,
                "end_time": 26.331818181818182,
                "pitch": 40,
                "velocity": 10,
                "duration": 0.11818181818182083,
                "tempo": 120.0
            },
            {
                "start_time": 26.85681818181818,
                "end_time": 26.98409090909091,
                "pitch": 50,
                "velocity": 51,
                "duration": 0.12727272727272876,
                "tempo": 120.0
            },
            {
                "start_time": 26.98409090909091,
                "end_time": 27.099999999999998,
                "pitch": 52,
                "velocity": 51,
                "duration": 0.11590909090908852,
                "tempo": 120.0
            },
            {
                "start_time": 27.099999999999998,
                "end_time": 27.313636363636363,
                "pitch": 40,
                "velocity": 51,
                "duration": 0.21363636363636473,
                "tempo": 120.0
            },
            {
                "start_time": 27.36590909090909,
                "end_time": 27.46590909090909,
                "pitch": 40,
                "velocity": 51,
                "duration": 0.10000000000000142,
                "tempo": 120.0
            },
            {
                "start_time": 27.5,
                "end_time": 27.599999999999998,
                "pitch": 40,
                "velocity": 51,
                "duration": 0.09999999999999787,
                "tempo": 120.0
            },
            {
                "start_time": 27.61590909090909,
                "end_time": 27.73181818181818,
                "pitch": 40,
                "velocity": 51,
                "duration": 0.11590909090909207,
                "tempo": 120.0
            },
            {
                "start_time": 27.74772727272727,
                "end_time": 27.863636363636363,
                "pitch": 40,
                "velocity": 51,
                "duration": 0.11590909090909207,
                "tempo": 120.0
            },
            {
                "start_time": 27.879545454545454,
                "end_time": 27.977272727272727,
                "pitch": 40,
                "velocity": 20,
                "duration": 0.09772727272727266,
                "tempo": 120.0
            },
            {
                "start_time": 27.995454545454542,
                "end_time": 28.10909090909091,
                "pitch": 40,
                "velocity": 51,
                "duration": 0.11363636363636687,
                "tempo": 120.0
            },
            {
                "start_time": 28.129545454545454,
                "end_time": 28.243181818181817,
                "pitch": 40,
                "velocity": 20,
                "duration": 0.11363636363636331,
                "tempo": 120.0
            },
            {
                "start_time": 28.261363636363637,
                "end_time": 28.361363636363635,
                "pitch": 40,
                "velocity": 10,
                "duration": 0.09999999999999787,
                "tempo": 120.0
            },
            {
                "start_time": 28.645454545454545,
                "end_time": 28.761363636363637,
                "pitch": 52,
                "velocity": 51,
                "duration": 0.11590909090909207,
                "tempo": 120.0
            },
            {
                "start_time": 28.779545454545453,
                "end_time": 28.879545454545454,
                "pitch": 52,
                "velocity": 51,
                "duration": 0.10000000000000142,
                "tempo": 120.0
            },
            {
                "start_time": 28.89772727272727,
                "end_time": 29.013636363636362,
                "pitch": 47,
                "velocity": 51,
                "duration": 0.11590909090909207,
                "tempo": 120.0
            },
            {
                "start_time": 29.03181818181818,
                "end_time": 29.14772727272727,
                "pitch": 40,
                "velocity": 51,
                "duration": 0.11590909090908852,
                "tempo": 120.0
            },
            {
                "start_time": 29.168181818181818,
                "end_time": 29.36590909090909,
                "pitch": 40,
                "velocity": 51,
                "duration": 0.19772727272727053,
                "tempo": 120.0
            },
            {
                "start_time": 29.41590909090909,
                "end_time": 29.53181818181818,
                "pitch": 40,
                "velocity": 51,
                "duration": 0.11590909090909207,
                "tempo": 120.0
            },
            {
                "start_time": 29.549999999999997,
                "end_time": 29.66590909090909,
                "pitch": 40,
                "velocity": 51,
                "duration": 0.11590909090909207,
                "tempo": 120.0
            },
            {
                "start_time": 29.68409090909091,
                "end_time": 29.78181818181818,
                "pitch": 40,
                "velocity": 51,
                "duration": 0.09772727272727266,
                "tempo": 120.0
            },
            {
                "start_time": 29.815909090909088,
                "end_time": 29.91363636363636,
                "pitch": 40,
                "velocity": 51,
                "duration": 0.09772727272727266,
                "tempo": 120.0
            },
            {
                "start_time": 29.93181818181818,
                "end_time": 30.045454545454543,
                "pitch": 40,
                "velocity": 20,
                "duration": 0.11363636363636331,
                "tempo": 120.0
            },
            {
                "start_time": 30.063636363636363,
                "end_time": 30.177272727272726,
                "pitch": 40,
                "velocity": 51,
                "duration": 0.11363636363636331,
                "tempo": 120.0
            },
            {
                "start_time": 30.195454545454545,
                "end_time": 30.295454545454543,
                "pitch": 40,
                "velocity": 20,
                "duration": 0.09999999999999787,
                "tempo": 120.0
            },
            {
                "start_time": 30.313636363636363,
                "end_time": 30.43181818181818,
                "pitch": 40,
                "velocity": 10,
                "duration": 0.11818181818181728,
                "tempo": 120.0
            },
            {
                "start_time": 30.970454545454544,
                "end_time": 31.099999999999998,
                "pitch": 50,
                "velocity": 51,
                "duration": 0.12954545454545396,
                "tempo": 120.0
            },
            {
                "start_time": 31.099999999999998,
                "end_time": 31.218181818181815,
                "pitch": 52,
                "velocity": 51,
                "duration": 0.11818181818181728,
                "tempo": 120.0
            },
            {
                "start_time": 31.218181818181815,
                "end_time": 31.424999999999997,
                "pitch": 40,
                "velocity": 51,
                "duration": 0.206818181818182,
                "tempo": 120.0
            },
            {
                "start_time": 31.472727272727273,
                "end_time": 31.568181818181817,
                "pitch": 40,
                "velocity": 51,
                "duration": 0.0954545454545439,
                "tempo": 120.0
            },
            {
                "start_time": 31.599999999999998,
                "end_time": 31.69772727272727,
                "pitch": 40,
                "velocity": 51,
                "duration": 0.09772727272727266,
                "tempo": 120.0
            },
            {
                "start_time": 31.71363636363636,
                "end_time": 31.829545454545453,
                "pitch": 40,
                "velocity": 51,
                "duration": 0.11590909090909207,
                "tempo": 120.0
            },
            {
                "start_time": 31.847727272727273,
                "end_time": 31.96363636363636,
                "pitch": 40,
                "velocity": 51,
                "duration": 0.11590909090908852,
                "tempo": 120.0
            },
            {
                "start_time": 31.98181818181818,
                "end_time": 32.08181818181818,
                "pitch": 40,
                "velocity": 20,
                "duration": 0.09999999999999787,
                "tempo": 120.0
            },
            {
                "start_time": 32.09772727272727,
                "end_time": 32.215909090909086,
                "pitch": 40,
                "velocity": 51,
                "duration": 0.11818181818181728,
                "tempo": 120.0
            },
            {
                "start_time": 32.23409090909091,
                "end_time": 32.35,
                "pitch": 40,
                "velocity": 20,
                "duration": 0.11590909090909207,
                "tempo": 120.0
            },
            {
                "start_time": 32.36590909090909,
                "end_time": 32.48409090909091,
                "pitch": 40,
                "velocity": 10,
                "duration": 0.11818181818181728,
                "tempo": 120.0
            },
            {
                "start_time": 32.752272727272725,
                "end_time": 32.86590909090909,
                "pitch": 52,
                "velocity": 51,
                "duration": 0.11363636363636687,
                "tempo": 120.0
            },
            {
                "start_time": 32.88181818181818,
                "end_time": 32.98181818181818,
                "pitch": 52,
                "velocity": 51,
                "duration": 0.09999999999999432,
                "tempo": 120.0
            },
            {
                "start_time": 33.01590909090909,
                "end_time": 33.11363636363636,
                "pitch": 47,
                "velocity": 51,
                "duration": 0.09772727272726911,
                "tempo": 120.0
            },
            {
                "start_time": 33.12954545454545,
                "end_time": 33.24545454545454,
                "pitch": 40,
                "velocity": 51,
                "duration": 0.11590909090909207,
                "tempo": 120.0
            },
            {
                "start_time": 33.263636363636365,
                "end_time": 33.461363636363636,
                "pitch": 40,
                "velocity": 51,
                "duration": 0.19772727272727053,
                "tempo": 120.0
            },
            {
                "start_time": 33.513636363636365,
                "end_time": 33.62954545454545,
                "pitch": 40,
                "velocity": 51,
                "duration": 0.11590909090908497,
                "tempo": 120.0
            },
            {
                "start_time": 33.64772727272727,
                "end_time": 33.763636363636365,
                "pitch": 40,
                "velocity": 51,
                "duration": 0.11590909090909207,
                "tempo": 120.0
            },
            {
                "start_time": 33.78181818181818,
                "end_time": 33.88181818181818,
                "pitch": 40,
                "velocity": 51,
                "duration": 0.10000000000000142,
                "tempo": 120.0
            },
            {
                "start_time": 33.91590909090909,
                "end_time": 34.013636363636365,
                "pitch": 40,
                "velocity": 51,
                "duration": 0.09772727272727622,
                "tempo": 120.0
            },
            {
                "start_time": 34.03181818181818,
                "end_time": 34.14772727272727,
                "pitch": 40,
                "velocity": 20,
                "duration": 0.11590909090909207,
                "tempo": 120.0
            },
            {
                "start_time": 34.16590909090909,
                "end_time": 34.28181818181818,
                "pitch": 40,
                "velocity": 51,
                "duration": 0.11590909090909207,
                "tempo": 120.0
            },
            {
                "start_time": 34.3,
                "end_time": 34.4,
                "pitch": 40,
                "velocity": 20,
                "duration": 0.10000000000000142,
                "tempo": 120.0
            },
            {
                "start_time": 34.41590909090909,
                "end_time": 34.53409090909091,
                "pitch": 40,
                "velocity": 10,
                "duration": 0.11818181818181728,
                "tempo": 120.0
            },
            {
                "start_time": 35.06590909090909,
                "end_time": 35.19772727272727,
                "pitch": 50,
                "velocity": 51,
                "duration": 0.13181818181818272,
                "tempo": 120.0
            },
            {
                "start_time": 35.19772727272727,
                "end_time": 35.31590909090909,
                "pitch": 52,
                "velocity": 51,
                "duration": 0.11818181818181728,
                "tempo": 120.0
            },
            {
                "start_time": 35.31590909090909,
                "end_time": 35.52045454545454,
                "pitch": 40,
                "velocity": 51,
                "duration": 0.20454545454545325,
                "tempo": 120.0
            },
            {
                "start_time": 35.570454545454545,
                "end_time": 35.68181818181818,
                "pitch": 40,
                "velocity": 51,
                "duration": 0.11136363636363455,
                "tempo": 120.0
            },
            {
                "start_time": 35.69772727272727,
                "end_time": 35.793181818181814,
                "pitch": 40,
                "velocity": 51,
                "duration": 0.0954545454545439,
                "tempo": 120.0
            },
            {
                "start_time": 35.81136363636364,
                "end_time": 35.92727272727272,
                "pitch": 40,
                "velocity": 51,
                "duration": 0.11590909090908497,
                "tempo": 120.0
            },
            {
                "start_time": 35.945454545454545,
                "end_time": 36.06136363636364,
                "pitch": 40,
                "velocity": 51,
                "duration": 0.11590909090909207,
                "tempo": 120.0
            },
            {
                "start_time": 36.07727272727273,
                "end_time": 36.17727272727272,
                "pitch": 40,
                "velocity": 20,
                "duration": 0.09999999999999432,
                "tempo": 120.0
            },
            {
                "start_time": 36.211363636363636,
                "end_time": 36.31136363636364,
                "pitch": 40,
                "velocity": 51,
                "duration": 0.10000000000000142,
                "tempo": 120.0
            },
            {
                "start_time": 36.33181818181818,
                "end_time": 36.445454545454545,
                "pitch": 40,
                "velocity": 20,
                "duration": 0.11363636363636687,
                "tempo": 120.0
            },
            {
                "start_time": 36.46363636363636,
                "end_time": 36.57954545454545,
                "pitch": 40,
                "velocity": 10,
                "duration": 0.11590909090909207,
                "tempo": 120.0
            },
            {
                "start_time": 36.84772727272727,
                "end_time": 36.96363636363636,
                "pitch": 52,
                "velocity": 51,
                "duration": 0.11590909090909207,
                "tempo": 120.0
            },
            {
                "start_time": 36.97954545454545,
                "end_time": 37.07727272727273,
                "pitch": 52,
                "velocity": 51,
                "duration": 0.09772727272727622,
                "tempo": 120.0
            },
            {
                "start_time": 37.111363636363635,
                "end_time": 37.20909090909091,
                "pitch": 47,
                "velocity": 51,
                "duration": 0.09772727272727622,
                "tempo": 120.0
            },
            {
                "start_time": 37.22727272727273,
                "end_time": 37.340909090909086,
                "pitch": 40,
                "velocity": 51,
                "duration": 0.11363636363635976,
                "tempo": 120.0
            },
            {
                "start_time": 37.361363636363635,
                "end_time": 37.559090909090905,
                "pitch": 40,
                "velocity": 51,
                "duration": 0.19772727272727053,
                "tempo": 120.0
            },
            {
                "start_time": 37.611363636363635,
                "end_time": 37.72727272727273,
                "pitch": 40,
                "velocity": 51,
                "duration": 0.11590909090909207,
                "tempo": 120.0
            },
            {
                "start_time": 37.74318181818182,
                "end_time": 37.861363636363635,
                "pitch": 40,
                "velocity": 51,
                "duration": 0.11818181818181728,
                "tempo": 120.0
            },
            {
                "start_time": 37.877272727272725,
                "end_time": 37.99545454545454,
                "pitch": 40,
                "velocity": 51,
                "duration": 0.11818181818181728,
                "tempo": 120.0
            },
            {
                "start_time": 38.01136363636363,
                "end_time": 38.111363636363635,
                "pitch": 40,
                "velocity": 51,
                "duration": 0.10000000000000142,
                "tempo": 120.0
            },
            {
                "start_time": 38.12954545454545,
                "end_time": 38.24545454545454,
                "pitch": 40,
                "velocity": 20,
                "duration": 0.11590909090909207,
                "tempo": 120.0
            },
            {
                "start_time": 38.26363636363636,
                "end_time": 38.37954545454545,
                "pitch": 40,
                "velocity": 51,
                "duration": 0.11590909090909207,
                "tempo": 120.0
            },
            {
                "start_time": 38.4,
                "end_time": 38.49772727272727,
                "pitch": 40,
                "velocity": 20,
                "duration": 0.09772727272726911,
                "tempo": 120.0
            },
            {
                "start_time": 38.529545454545456,
                "end_time": 38.63181818181818,
                "pitch": 40,
                "velocity": 10,
                "duration": 0.10227272727272663,
                "tempo": 120.0
            },
            {
                "start_time": 39.163636363636364,
                "end_time": 39.293181818181814,
                "pitch": 50,
                "velocity": 51,
                "duration": 0.1295454545454504,
                "tempo": 120.0
            },
            {
                "start_time": 39.293181818181814,
                "end_time": 39.425,
                "pitch": 52,
                "velocity": 51,
                "duration": 0.13181818181818272,
                "tempo": 120.0
            },
            {
                "start_time": 39.42727272727272,
                "end_time": 39.627272727272725,
                "pitch": 40,
                "velocity": 51,
                "duration": 0.20000000000000284,
                "tempo": 120.0
            },
            {
                "start_time": 39.67727272727272,
                "end_time": 39.793181818181814,
                "pitch": 40,
                "velocity": 51,
                "duration": 0.11590909090909207,
                "tempo": 120.0
            },
            {
                "start_time": 39.81136363636364,
                "end_time": 39.91136363636363,
                "pitch": 40,
                "velocity": 51,
                "duration": 0.09999999999999432,
                "tempo": 120.0
            },
            {
                "start_time": 39.929545454545455,
                "end_time": 40.04090909090909,
                "pitch": 40,
                "velocity": 51,
                "duration": 0.11136363636363455,
                "tempo": 120.0
            },
            {
                "start_time": 40.05681818181818,
                "end_time": 40.168181818181814,
                "pitch": 40,
                "velocity": 51,
                "duration": 0.11136363636363455,
                "tempo": 120.0
            },
            {
                "start_time": 40.18636363636364,
                "end_time": 40.28181818181818,
                "pitch": 40,
                "velocity": 20,
                "duration": 0.0954545454545439,
                "tempo": 120.0
            },
            {
                "start_time": 40.31363636363636,
                "end_time": 40.40909090909091,
                "pitch": 40,
                "velocity": 51,
                "duration": 0.0954545454545439,
                "tempo": 120.0
            },
            {
                "start_time": 40.42727272727272,
                "end_time": 40.543181818181814,
                "pitch": 40,
                "velocity": 20,
                "duration": 0.11590909090909207,
                "tempo": 120.0
            },
            {
                "start_time": 40.56136363636364,
                "end_time": 40.679545454545455,
                "pitch": 40,
                "velocity": 10,
                "duration": 0.11818181818181728,
                "tempo": 120.0
            },
            {
                "start_time": 40.95227272727273,
                "end_time": 41.06818181818181,
                "pitch": 52,
                "velocity": 51,
                "duration": 0.11590909090908497,
                "tempo": 120.0
            },
            {
                "start_time": 41.086363636363636,
                "end_time": 41.199999999999996,
                "pitch": 52,
                "velocity": 51,
                "duration": 0.11363636363635976,
                "tempo": 120.0
            },
            {
                "start_time": 41.21818181818182,
                "end_time": 41.31590909090909,
                "pitch": 47,
                "velocity": 51,
                "duration": 0.09772727272726911,
                "tempo": 120.0
            },
            {
                "start_time": 41.33181818181818,
                "end_time": 41.44772727272727,
                "pitch": 40,
                "velocity": 51,
                "duration": 0.11590909090909207,
                "tempo": 120.0
            },
            {
                "start_time": 41.46818181818182,
                "end_time": 44.52272727272727,
                "pitch": 40,
                "velocity": 51,
                "duration": 3.0545454545454547,
                "tempo": 120.0
            },
            {
                "start_time": 44.793181818181814,
                "end_time": 45.57272727272727,
                "pitch": 39,
                "velocity": 51,
                "duration": 0.7795454545454561,
                "tempo": 120.0
            },
            {
                "start_time": 45.57272727272727,
                "end_time": 48.64090909090909,
                "pitch": 40,
                "velocity": 51,
                "duration": 3.06818181818182,
                "tempo": 120.0
            },
            {
                "start_time": 48.9,
                "end_time": 49.70454545454545,
                "pitch": 39,
                "velocity": 51,
                "duration": 0.8045454545454547,
                "tempo": 120.0
            },
            {
                "start_time": 49.70454545454545,
                "end_time": 49.82727272727273,
                "pitch": 47,
                "velocity": 32,
                "duration": 0.1227272727272748,
                "tempo": 120.0
            },
            {
                "start_time": 49.845454545454544,
                "end_time": 49.98181818181818,
                "pitch": 47,
                "velocity": 32,
                "duration": 0.13636363636363313,
                "tempo": 120.0
            },
            {
                "start_time": 50.002272727272725,
                "end_time": 50.12045454545454,
                "pitch": 59,
                "velocity": 32,
                "duration": 0.11818181818181728,
                "tempo": 120.0
            },
            {
                "start_time": 50.14090909090909,
                "end_time": 50.277272727272724,
                "pitch": 47,
                "velocity": 32,
                "duration": 0.13636363636363313,
                "tempo": 120.0
            },
            {
                "start_time": 50.29772727272727,
                "end_time": 50.434090909090905,
                "pitch": 47,
                "velocity": 32,
                "duration": 0.13636363636363313,
                "tempo": 120.0
            },
            {
                "start_time": 50.45454545454545,
                "end_time": 50.554545454545455,
                "pitch": 59,
                "velocity": 32,
                "duration": 0.10000000000000142,
                "tempo": 120.0
            },
            {
                "start_time": 50.586363636363636,
                "end_time": 50.684090909090905,
                "pitch": 47,
                "velocity": 32,
                "duration": 0.09772727272726911,
                "tempo": 120.0
            },
            {
                "start_time": 50.70227272727273,
                "end_time": 50.81590909090909,
                "pitch": 47,
                "velocity": 32,
                "duration": 0.11363636363635976,
                "tempo": 120.0
            },
            {
                "start_time": 50.834090909090904,
                "end_time": 50.94772727272727,
                "pitch": 47,
                "velocity": 32,
                "duration": 0.11363636363636687,
                "tempo": 120.0
            },
            {
                "start_time": 50.965909090909086,
                "end_time": 51.08181818181818,
                "pitch": 45,
                "velocity": 32,
                "duration": 0.11590909090909207,
                "tempo": 120.0
            },
            {
                "start_time": 51.08181818181818,
                "end_time": 51.215909090909086,
                "pitch": 47,
                "velocity": 32,
                "duration": 0.13409090909090793,
                "tempo": 120.0
            },
            {
                "start_time": 51.215909090909086,
                "end_time": 51.334090909090904,
                "pitch": 59,
                "velocity": 32,
                "duration": 0.11818181818181728,
                "tempo": 120.0
            },
            {
                "start_time": 51.349999999999994,
                "end_time": 51.449999999999996,
                "pitch": 47,
                "velocity": 32,
                "duration": 0.10000000000000142,
                "tempo": 120.0
            },
            {
                "start_time": 51.48409090909091,
                "end_time": 51.58181818181818,
                "pitch": 47,
                "velocity": 32,
                "duration": 0.09772727272726911,
                "tempo": 120.0
            },
            {
                "start_time": 51.599999999999994,
                "end_time": 51.73181818181818,
                "pitch": 57,
                "velocity": 32,
                "duration": 0.13181818181818272,
                "tempo": 120.0
            },
            {
                "start_time": 51.73181818181818,
                "end_time": 51.865909090909085,
                "pitch": 59,
                "velocity": 32,
                "duration": 0.13409090909090793,
                "tempo": 120.0
            },
            {
                "start_time": 51.865909090909085,
                "end_time": 51.961363636363636,
                "pitch": 48,
                "velocity": 32,
                "duration": 0.09545454545455101,
                "tempo": 120.0
            },
            {
                "start_time": 51.97727272727273,
                "end_time": 52.09318181818182,
                "pitch": 48,
                "velocity": 32,
                "duration": 0.11590909090909207,
                "tempo": 120.0
            },
            {
                "start_time": 52.10909090909091,
                "end_time": 52.224999999999994,
                "pitch": 60,
                "velocity": 32,
                "duration": 0.11590909090908497,
                "tempo": 120.0
            },
            {
                "start_time": 52.240909090909085,
                "end_time": 52.35681818181818,
                "pitch": 48,
                "velocity": 32,
                "duration": 0.11590909090909207,
                "tempo": 120.0
            },
            {
                "start_time": 52.37272727272727,
                "end_time": 52.470454545454544,
                "pitch": 48,
                "velocity": 32,
                "duration": 0.09772727272727622,
                "tempo": 120.0
            },
            {
                "start_time": 52.48863636363636,
                "end_time": 52.60227272727273,
                "pitch": 60,
                "velocity": 32,
                "duration": 0.11363636363636687,
                "tempo": 120.0
            },
            {
                "start_time": 52.62045454545454,
                "end_time": 52.73409090909091,
                "pitch": 48,
                "velocity": 32,
                "duration": 0.11363636363636687,
                "tempo": 120.0
            },
            {
                "start_time": 52.752272727272725,
                "end_time": 52.849999999999994,
                "pitch": 48,
                "velocity": 32,
                "duration": 0.09772727272726911,
                "tempo": 120.0
            },
            {
                "start_time": 52.86818181818182,
                "end_time": 52.98181818181818,
                "pitch": 60,
                "velocity": 32,
                "duration": 0.11363636363635976,
                "tempo": 120.0
            },
            {
                "start_time": 53.0,
                "end_time": 53.115909090909085,
                "pitch": 48,
                "velocity": 32,
                "duration": 0.11590909090908497,
                "tempo": 120.0
            },
            {
                "start_time": 53.13181818181818,
                "end_time": 53.25,
                "pitch": 60,
                "velocity": 32,
                "duration": 0.11818181818181728,
                "tempo": 120.0
            },
            {
                "start_time": 53.26590909090909,
                "end_time": 53.365909090909085,
                "pitch": 48,
                "velocity": 32,
                "duration": 0.09999999999999432,
                "tempo": 120.0
            },
            {
                "start_time": 53.38409090909091,
                "end_time": 53.5,
                "pitch": 55,
                "velocity": 32,
                "duration": 0.11590909090909207,
                "tempo": 120.0
            },
            {
                "start_time": 53.518181818181816,
                "end_time": 53.63409090909091,
                "pitch": 48,
                "velocity": 32,
                "duration": 0.11590909090909207,
                "tempo": 120.0
            },
            {
                "start_time": 53.652272727272724,
                "end_time": 53.752272727272725,
                "pitch": 60,
                "velocity": 32,
                "duration": 0.10000000000000142,
                "tempo": 120.0
            },
            {
                "start_time": 53.78636363636363,
                "end_time": 53.88636363636363,
                "pitch": 48,
                "velocity": 32,
                "duration": 0.10000000000000142,
                "tempo": 120.0
            },
            {
                "start_time": 53.90454545454545,
                "end_time": 54.02045454545454,
                "pitch": 47,
                "velocity": 32,
                "duration": 0.11590909090909207,
                "tempo": 120.0
            },
            {
                "start_time": 54.03636363636363,
                "end_time": 54.15454545454545,
                "pitch": 47,
                "velocity": 32,
                "duration": 0.11818181818181728,
                "tempo": 120.0
            },
            {
                "start_time": 54.17272727272727,
                "end_time": 54.275,
                "pitch": 59,
                "velocity": 32,
                "duration": 0.10227272727272663,
                "tempo": 120.0
            },
            {
                "start_time": 54.293181818181814,
                "end_time": 54.41136363636363,
                "pitch": 47,
                "velocity": 32,
                "duration": 0.11818181818181728,
                "tempo": 120.0
            },
            {
                "start_time": 54.429545454545455,
                "end_time": 54.54772727272727,
                "pitch": 47,
                "velocity": 32,
                "duration": 0.11818181818181728,
                "tempo": 120.0
            },
            {
                "start_time": 54.56590909090909,
                "end_time": 54.66136363636363,
                "pitch": 59,
                "velocity": 32,
                "duration": 0.0954545454545439,
                "tempo": 120.0
            },
            {
                "start_time": 54.69318181818181,
                "end_time": 54.788636363636364,
                "pitch": 47,
                "velocity": 32,
                "duration": 0.09545454545455101,
                "tempo": 120.0
            },
            {
                "start_time": 54.80681818181818,
                "end_time": 54.918181818181814,
                "pitch": 47,
                "velocity": 32,
                "duration": 0.11136363636363455,
                "tempo": 120.0
            },
            {
                "start_time": 54.934090909090905,
                "end_time": 55.04545454545454,
                "pitch": 47,
                "velocity": 32,
                "duration": 0.11136363636363455,
                "tempo": 120.0
            },
            {
                "start_time": 55.06363636363636,
                "end_time": 55.179545454545455,
                "pitch": 45,
                "velocity": 32,
                "duration": 0.11590909090909207,
                "tempo": 120.0
            },
            {
                "start_time": 55.179545454545455,
                "end_time": 55.31363636363636,
                "pitch": 47,
                "velocity": 32,
                "duration": 0.13409090909090793,
                "tempo": 120.0
            },
            {
                "start_time": 55.31363636363636,
                "end_time": 55.429545454545455,
                "pitch": 59,
                "velocity": 32,
                "duration": 0.11590909090909207,
                "tempo": 120.0
            },
            {
                "start_time": 55.44772727272727,
                "end_time": 55.56363636363636,
                "pitch": 47,
                "velocity": 32,
                "duration": 0.11590909090909207,
                "tempo": 120.0
            },
            {
                "start_time": 55.58181818181818,
                "end_time": 55.68181818181818,
                "pitch": 47,
                "velocity": 32,
                "duration": 0.10000000000000142,
                "tempo": 120.0
            },
            {
                "start_time": 55.699999999999996,
                "end_time": 55.83181818181818,
                "pitch": 57,
                "velocity": 32,
                "duration": 0.13181818181818272,
                "tempo": 120.0
            },
            {
                "start_time": 55.83181818181818,
                "end_time": 55.96818181818182,
                "pitch": 59,
                "velocity": 32,
                "duration": 0.13636363636364024,
                "tempo": 120.0
            },
            {
                "start_time": 55.96818181818182,
                "end_time": 56.06590909090909,
                "pitch": 48,
                "velocity": 32,
                "duration": 0.09772727272726911,
                "tempo": 120.0
            },
            {
                "start_time": 56.099999999999994,
                "end_time": 56.199999999999996,
                "pitch": 48,
                "velocity": 32,
                "duration": 0.10000000000000142,
                "tempo": 120.0
            },
            {
                "start_time": 56.21818181818182,
                "end_time": 56.334090909090904,
                "pitch": 60,
                "velocity": 32,
                "duration": 0.11590909090908497,
                "tempo": 120.0
            },
            {
                "start_time": 56.35227272727273,
                "end_time": 56.46818181818182,
                "pitch": 48,
                "velocity": 32,
                "duration": 0.11590909090909207,
                "tempo": 120.0
            },
            {
                "start_time": 56.486363636363635,
                "end_time": 56.586363636363636,
                "pitch": 48,
                "velocity": 32,
                "duration": 0.10000000000000142,
                "tempo": 120.0
            },
            {
                "start_time": 56.60227272727273,
                "end_time": 56.71363636363636,
                "pitch": 60,
                "velocity": 32,
                "duration": 0.11136363636363455,
                "tempo": 120.0
            },
            {
                "start_time": 56.72954545454545,
                "end_time": 56.83863636363636,
                "pitch": 48,
                "velocity": 32,
                "duration": 0.10909090909090935,
                "tempo": 120.0
            },
            {
                "start_time": 56.85454545454545,
                "end_time": 56.949999999999996,
                "pitch": 48,
                "velocity": 32,
                "duration": 0.0954545454545439,
                "tempo": 120.0
            },
            {
                "start_time": 56.98181818181818,
                "end_time": 57.074999999999996,
                "pitch": 60,
                "velocity": 32,
                "duration": 0.0931818181818187,
                "tempo": 120.0
            },
            {
                "start_time": 57.09318181818182,
                "end_time": 57.209090909090904,
                "pitch": 48,
                "velocity": 32,
                "duration": 0.11590909090908497,
                "tempo": 120.0
            },
            {
                "start_time": 57.22727272727273,
                "end_time": 57.34318181818182,
                "pitch": 60,
                "velocity": 32,
                "duration": 0.11590909090909207,
                "tempo": 120.0
            },
            {
                "start_time": 57.35909090909091,
                "end_time": 57.459090909090904,
                "pitch": 48,
                "velocity": 32,
                "duration": 0.09999999999999432,
                "tempo": 120.0
            },
            {
                "start_time": 57.47727272727273,
                "end_time": 57.59318181818182,
                "pitch": 55,
                "velocity": 32,
                "duration": 0.11590909090909207,
                "tempo": 120.0
            },
            {
                "start_time": 57.611363636363635,
                "end_time": 57.72727272727273,
                "pitch": 48,
                "velocity": 32,
                "duration": 0.11590909090909207,
                "tempo": 120.0
            },
            {
                "start_time": 57.74545454545454,
                "end_time": 57.845454545454544,
                "pitch": 60,
                "velocity": 32,
                "duration": 0.10000000000000142,
                "tempo": 120.0
            },
            {
                "start_time": 57.87954545454545,
                "end_time": 57.97954545454545,
                "pitch": 48,
                "velocity": 32,
                "duration": 0.10000000000000142,
                "tempo": 120.0
            },
            {
                "start_time": 57.99772727272727,
                "end_time": 58.11363636363636,
                "pitch": 47,
                "velocity": 32,
                "duration": 0.11590909090909207,
                "tempo": 120.0
            },
            {
                "start_time": 58.12954545454545,
                "end_time": 58.24772727272727,
                "pitch": 47,
                "velocity": 32,
                "duration": 0.11818181818181728,
                "tempo": 120.0
            },
            {
                "start_time": 58.26363636363636,
                "end_time": 58.36363636363636,
                "pitch": 59,
                "velocity": 32,
                "duration": 0.10000000000000142,
                "tempo": 120.0
            },
            {
                "start_time": 58.381818181818176,
                "end_time": 58.49772727272727,
                "pitch": 47,
                "velocity": 32,
                "duration": 0.11590909090909207,
                "tempo": 120.0
            },
            {
                "start_time": 58.51590909090909,
                "end_time": 58.631818181818176,
                "pitch": 47,
                "velocity": 32,
                "duration": 0.11590909090908497,
                "tempo": 120.0
            },
            {
                "start_time": 58.65,
                "end_time": 58.76363636363636,
                "pitch": 59,
                "velocity": 32,
                "duration": 0.11363636363635976,
                "tempo": 120.0
            },
            {
                "start_time": 58.78181818181818,
                "end_time": 58.87954545454545,
                "pitch": 47,
                "velocity": 32,
                "duration": 0.09772727272726911,
                "tempo": 120.0
            },
            {
                "start_time": 58.89545454545454,
                "end_time": 59.01136363636363,
                "pitch": 47,
                "velocity": 32,
                "duration": 0.11590909090909207,
                "tempo": 120.0
            },
            {
                "start_time": 59.027272727272724,
                "end_time": 59.143181818181816,
                "pitch": 47,
                "velocity": 32,
                "duration": 0.11590909090909207,
                "tempo": 120.0
            },
            {
                "start_time": 59.15909090909091,
                "end_time": 59.293181818181814,
                "pitch": 45,
                "velocity": 32,
                "duration": 0.13409090909090793,
                "tempo": 120.0
            },
            {
                "start_time": 59.293181818181814,
                "end_time": 59.41136363636363,
                "pitch": 47,
                "velocity": 32,
                "duration": 0.11818181818181728,
                "tempo": 120.0
            },
            {
                "start_time": 59.41136363636363,
                "end_time": 59.527272727272724,
                "pitch": 59,
                "velocity": 32,
                "duration": 0.11590909090909207,
                "tempo": 120.0
            },
            {
                "start_time": 59.54545454545454,
                "end_time": 59.66136363636363,
                "pitch": 47,
                "velocity": 32,
                "duration": 0.11590909090909207,
                "tempo": 120.0
            },
            {
                "start_time": 59.679545454545455,
                "end_time": 59.77954545454545,
                "pitch": 47,
                "velocity": 32,
                "duration": 0.09999999999999432,
                "tempo": 120.0
            },
            {
                "start_time": 59.79772727272727,
                "end_time": 59.929545454545455,
                "pitch": 57,
                "velocity": 32,
                "duration": 0.13181818181818272,
                "tempo": 120.0
            },
            {
                "start_time": 59.929545454545455,
                "end_time": 60.06590909090909,
                "pitch": 59,
                "velocity": 32,
                "duration": 0.13636363636363313,
                "tempo": 120.0
            },
            {
                "start_time": 60.06590909090909,
                "end_time": 60.163636363636364,
                "pitch": 48,
                "velocity": 32,
                "duration": 0.09772727272727622,
                "tempo": 120.0
            },
            {
                "start_time": 60.19772727272727,
                "end_time": 60.29772727272727,
                "pitch": 48,
                "velocity": 32,
                "duration": 0.10000000000000142,
                "tempo": 120.0
            },
            {
                "start_time": 60.31590909090909,
                "end_time": 60.43181818181818,
                "pitch": 60,
                "velocity": 32,
                "duration": 0.11590909090909207,
                "tempo": 120.0
            },
            {
                "start_time": 60.449999999999996,
                "end_time": 60.56590909090909,
                "pitch": 48,
                "velocity": 32,
                "duration": 0.11590909090909207,
                "tempo": 120.0
            },
            {
                "start_time": 60.584090909090904,
                "end_time": 60.68181818181818,
                "pitch": 48,
                "velocity": 32,
                "duration": 0.09772727272727622,
                "tempo": 120.0
            },
            {
                "start_time": 60.699999999999996,
                "end_time": 60.809090909090905,
                "pitch": 60,
                "velocity": 32,
                "duration": 0.10909090909090935,
                "tempo": 120.0
            },
            {
                "start_time": 60.82727272727272,
                "end_time": 60.93636363636363,
                "pitch": 48,
                "velocity": 32,
                "duration": 0.10909090909090935,
                "tempo": 120.0
            },
            {
                "start_time": 60.95227272727272,
                "end_time": 61.06363636363636,
                "pitch": 48,
                "velocity": 32,
                "duration": 0.11136363636364166,
                "tempo": 120.0
            },
            {
                "start_time": 61.07954545454545,
                "end_time": 61.17272727272727,
                "pitch": 60,
                "velocity": 32,
                "duration": 0.0931818181818187,
                "tempo": 120.0
            },
            {
                "start_time": 61.18863636363636,
                "end_time": 61.30681818181818,
                "pitch": 48,
                "velocity": 32,
                "duration": 0.11818181818181728,
                "tempo": 120.0
            },
            {
                "start_time": 61.324999999999996,
                "end_time": 61.44090909090909,
                "pitch": 60,
                "velocity": 32,
                "duration": 0.11590909090909207,
                "tempo": 120.0
            },
            {
                "start_time": 61.45681818181818,
                "end_time": 61.55681818181818,
                "pitch": 48,
                "velocity": 32,
                "duration": 0.10000000000000142,
                "tempo": 120.0
            },
            {
                "start_time": 61.574999999999996,
                "end_time": 61.69090909090909,
                "pitch": 55,
                "velocity": 32,
                "duration": 0.11590909090909207,
                "tempo": 120.0
            },
            {
                "start_time": 61.709090909090904,
                "end_time": 61.824999999999996,
                "pitch": 48,
                "velocity": 32,
                "duration": 0.11590909090909207,
                "tempo": 120.0
            },
            {
                "start_time": 61.84318181818182,
                "end_time": 61.959090909090904,
                "pitch": 60,
                "velocity": 32,
                "duration": 0.11590909090908497,
                "tempo": 120.0
            },
            {
                "start_time": 61.97727272727273,
                "end_time": 62.07727272727272,
                "pitch": 48,
                "velocity": 32,
                "duration": 0.09999999999999432,
                "tempo": 120.0
            },
            {
                "start_time": 62.095454545454544,
                "end_time": 62.211363636363636,
                "pitch": 47,
                "velocity": 32,
                "duration": 0.11590909090909207,
                "tempo": 120.0
            },
            {
                "start_time": 62.22727272727273,
                "end_time": 62.345454545454544,
                "pitch": 47,
                "velocity": 32,
                "duration": 0.11818181818181728,
                "tempo": 120.0
            },
            {
                "start_time": 62.36363636363636,
                "end_time": 62.465909090909086,
                "pitch": 59,
                "velocity": 32,
                "duration": 0.10227272727272663,
                "tempo": 120.0
            },
            {
                "start_time": 62.5,
                "end_time": 62.60227272727273,
                "pitch": 47,
                "velocity": 32,
                "duration": 0.10227272727272663,
                "tempo": 120.0
            },
            {
                "start_time": 62.61818181818182,
                "end_time": 62.73863636363636,
                "pitch": 47,
                "velocity": 32,
                "duration": 0.12045454545454248,
                "tempo": 120.0
            },
            {
                "start_time": 62.75454545454545,
                "end_time": 62.86818181818182,
                "pitch": 59,
                "velocity": 32,
                "duration": 0.11363636363636687,
                "tempo": 120.0
            },
            {
                "start_time": 62.88409090909091,
                "end_time": 62.97954545454545,
                "pitch": 47,
                "velocity": 32,
                "duration": 0.0954545454545439,
                "tempo": 120.0
            },
            {
                "start_time": 62.99772727272727,
                "end_time": 63.10909090909091,
                "pitch": 47,
                "velocity": 32,
                "duration": 0.11136363636364166,
                "tempo": 120.0
            },
            {
                "start_time": 63.125,
                "end_time": 63.236363636363635,
                "pitch": 47,
                "velocity": 32,
                "duration": 0.11136363636363455,
                "tempo": 120.0
            },
            {
                "start_time": 63.252272727272725,
                "end_time": 63.38636363636363,
                "pitch": 45,
                "velocity": 32,
                "duration": 0.13409090909090793,
                "tempo": 120.0
            },
            {
                "start_time": 63.38636363636363,
                "end_time": 63.50454545454545,
                "pitch": 47,
                "velocity": 32,
                "duration": 0.11818181818181728,
                "tempo": 120.0
            },
            {
                "start_time": 63.50454545454545,
                "end_time": 63.62045454545454,
                "pitch": 59,
                "velocity": 32,
                "duration": 0.11590909090909207,
                "tempo": 120.0
            },
            {
                "start_time": 63.63863636363636,
                "end_time": 63.75454545454545,
                "pitch": 47,
                "velocity": 32,
                "duration": 0.11590909090909207,
                "tempo": 120.0
            },
            {
                "start_time": 63.772727272727266,
                "end_time": 63.87272727272727,
                "pitch": 47,
                "velocity": 32,
                "duration": 0.10000000000000142,
                "tempo": 120.0
            },
            {
                "start_time": 63.88863636363636,
                "end_time": 64.02272727272727,
                "pitch": 57,
                "velocity": 32,
                "duration": 0.13409090909090793,
                "tempo": 120.0
            },
            {
                "start_time": 64.02272727272727,
                "end_time": 64.1590909090909,
                "pitch": 59,
                "velocity": 32,
                "duration": 0.13636363636364024,
                "tempo": 120.0
            },
            {
                "start_time": 64.1590909090909,
                "end_time": 64.27272727272727,
                "pitch": 48,
                "velocity": 32,
                "duration": 0.11363636363635976,
                "tempo": 120.0
            },
            {
                "start_time": 64.29090909090908,
                "end_time": 64.39318181818182,
                "pitch": 48,
                "velocity": 32,
                "duration": 0.10227272727273373,
                "tempo": 120.0
            },
            {
                "start_time": 64.4090909090909,
                "end_time": 64.52954545454546,
                "pitch": 60,
                "velocity": 32,
                "duration": 0.12045454545454959,
                "tempo": 120.0
            },
            {
                "start_time": 64.54545454545455,
                "end_time": 64.66590909090908,
                "pitch": 48,
                "velocity": 32,
                "duration": 0.12045454545453538,
                "tempo": 120.0
            },
            {
                "start_time": 64.68181818181817,
                "end_time": 64.7840909090909,
                "pitch": 48,
                "velocity": 32,
                "duration": 0.10227272727273373,
                "tempo": 120.0
            },
            {
                "start_time": 64.81818181818181,
                "end_time": 64.91590909090908,
                "pitch": 60,
                "velocity": 32,
                "duration": 0.09772727272726911,
                "tempo": 120.0
            },
            {
                "start_time": 64.93181818181817,
                "end_time": 65.04318181818182,
                "pitch": 48,
                "velocity": 32,
                "duration": 0.11136363636364877,
                "tempo": 120.0
            },
            {
                "start_time": 65.06136363636364,
                "end_time": 65.17272727272727,
                "pitch": 48,
                "velocity": 32,
                "duration": 0.11136363636363455,
                "tempo": 120.0
            },
            {
                "start_time": 65.18863636363636,
                "end_time": 65.2840909090909,
                "pitch": 60,
                "velocity": 32,
                "duration": 0.0954545454545439,
                "tempo": 120.0
            },
            {
                "start_time": 65.3,
                "end_time": 65.41136363636363,
                "pitch": 48,
                "velocity": 32,
                "duration": 0.11136363636363455,
                "tempo": 120.0
            },
            {
                "start_time": 65.42954545454545,
                "end_time": 65.54090909090908,
                "pitch": 60,
                "velocity": 32,
                "duration": 0.11136363636363455,
                "tempo": 120.0
            },
            {
                "start_time": 65.55681818181817,
                "end_time": 65.65227272727273,
                "pitch": 48,
                "velocity": 32,
                "duration": 0.09545454545455812,
                "tempo": 120.0
            },
            {
                "start_time": 65.68636363636364,
                "end_time": 65.77499999999999,
                "pitch": 55,
                "velocity": 32,
                "duration": 0.08863636363635408,
                "tempo": 120.0
            },
            {
                "start_time": 65.78863636363636,
                "end_time": 65.88863636363637,
                "pitch": 48,
                "velocity": 32,
                "duration": 0.10000000000000853,
                "tempo": 120.0
            },
            {
                "start_time": 65.90227272727273,
                "end_time": 66.0,
                "pitch": 60,
                "velocity": 32,
                "duration": 0.09772727272726911,
                "tempo": 120.0
            },
            {
                "start_time": 66.01590909090909,
                "end_time": 66.1,
                "pitch": 48,
                "velocity": 32,
                "duration": 0.08409090909090366,
                "tempo": 120.0
            },
            {
                "start_time": 66.11818181818181,
                "end_time": 69.16363636363636,
                "pitch": 47,
                "velocity": 32,
                "duration": 3.0454545454545467,
                "tempo": 120.0
            },
            {
                "start_time": 70.17954545454545,
                "end_time": 70.38863636363637,
                "pitch": 40,
                "velocity": 51,
                "duration": 0.20909090909091788,
                "tempo": 120.0
            }
        ]
    }
}