{
    "track_id": "After Burner (FM) - 05 - Red Out",
    "mood": "angry",
    "instruments": {
        "Electric Guitar (clean)": [
            {
                "start_time": 3.868181818181818,
                "end_time": 4.097727272727273,
                "pitch": 41,
                "velocity": 40,
                "duration": 0.2295454545454545,
                "tempo": 120.0
            },
            {
                "start_time": 4.11590909090909,
                "end_time": 4.204545454545454,
                "pitch": 41,
                "velocity": 40,
                "duration": 0.08863636363636385,
                "tempo": 120.0
            },
            {
                "start_time": 4.222727272727273,
                "end_time": 4.345454545454546,
                "pitch": 41,
                "velocity": 40,
                "duration": 0.12272727272727302,
                "tempo": 120.0
            },
            {
                "start_time": 4.363636363636363,
                "end_time": 4.447727272727272,
                "pitch": 53,
                "velocity": 40,
                "duration": 0.084090909090909,
                "tempo": 120.0
            },
            {
                "start_time": 4.497727272727272,
                "end_time": 4.581818181818182,
                "pitch": 41,
                "velocity": 40,
                "duration": 0.08409090909090988,
                "tempo": 120.0
            },
            {
                "start_time": 4.7318181818181815,
                "end_time": 4.8159090909090905,
                "pitch": 41,
                "velocity": 40,
                "duration": 0.084090909090909,
                "tempo": 120.0
            },
            {
                "start_time": 4.831818181818182,
                "end_time": 5.05,
                "pitch": 41,
                "velocity": 40,
                "duration": 0.2181818181818178,
                "tempo": 120.0
            },
            {
                "start_time": 5.1,
                "end_time": 5.184090909090909,
                "pitch": 41,
                "velocity": 40,
                "duration": 0.084090909090909,
                "tempo": 120.0
            },
            {
                "start_time": 5.2,
                "end_time": 5.318181818181818,
                "pitch": 41,
                "velocity": 40,
                "duration": 0.11818181818181817,
                "tempo": 120.0
            },
            {
                "start_time": 5.336363636363636,
                "end_time": 5.422727272727273,
                "pitch": 51,
                "velocity": 40,
                "duration": 0.08636363636363686,
                "tempo": 120.0
            },
            {
                "start_time": 5.4409090909090905,
                "end_time": 5.5636363636363635,
                "pitch": 41,
                "velocity": 40,
                "duration": 0.12272727272727302,
                "tempo": 120.0
            },
            {
                "start_time": 5.720454545454545,
                "end_time": 5.806818181818182,
                "pitch": 41,
                "velocity": 40,
                "duration": 0.08636363636363686,
                "tempo": 120.0
            },
            {
                "start_time": 5.822727272727272,
                "end_time": 6.040909090909091,
                "pitch": 41,
                "velocity": 40,
                "duration": 0.2181818181818187,
                "tempo": 120.0
            },
            {
                "start_time": 6.056818181818182,
                "end_time": 6.175,
                "pitch": 41,
                "velocity": 40,
                "duration": 0.11818181818181817,
                "tempo": 120.0
            },
            {
                "start_time": 6.1909090909090905,
                "end_time": 6.2749999999999995,
                "pitch": 41,
                "velocity": 40,
                "duration": 0.084090909090909,
                "tempo": 120.0
            },
            {
                "start_time": 6.327272727272727,
                "end_time": 6.415909090909091,
                "pitch": 53,
                "velocity": 40,
                "duration": 0.08863636363636385,
                "tempo": 120.0
            },
            {
                "start_time": 6.434090909090909,
                "end_time": 6.556818181818182,
                "pitch": 41,
                "velocity": 40,
                "duration": 0.12272727272727302,
                "tempo": 120.0
            },
            {
                "start_time": 6.681818181818182,
                "end_time": 6.902272727272727,
                "pitch": 41,
                "velocity": 40,
                "duration": 0.22045454545454568,
                "tempo": 120.0
            },
            {
                "start_time": 6.952272727272727,
                "end_time": 7.034090909090909,
                "pitch": 51,
                "velocity": 40,
                "duration": 0.08181818181818201,
                "tempo": 120.0
            },
            {
                "start_time": 7.05,
                "end_time": 7.16590909090909,
                "pitch": 41,
                "velocity": 40,
                "duration": 0.1159090909090903,
                "tempo": 120.0
            },
            {
                "start_time": 7.181818181818182,
                "end_time": 7.263636363636364,
                "pitch": 41,
                "velocity": 40,
                "duration": 0.08181818181818201,
                "tempo": 120.0
            },
            {
                "start_time": 7.279545454545454,
                "end_time": 7.3999999999999995,
                "pitch": 48,
                "velocity": 40,
                "duration": 0.12045454545454515,
                "tempo": 120.0
            },
            {
                "start_time": 7.418181818181818,
                "end_time": 7.502272727272727,
                "pitch": 41,
                "velocity": 40,
                "duration": 0.084090909090909,
                "tempo": 120.0
            },
            {
                "start_time": 7.554545454545454,
                "end_time": 7.640909090909091,
                "pitch": 39,
                "velocity": 40,
                "duration": 0.08636363636363686,
                "tempo": 120.0
            },
            {
                "start_time": 7.656818181818181,
                "end_time": 7.777272727272727,
                "pitch": 41,
                "velocity": 40,
                "duration": 0.12045454545454604,
                "tempo": 120.0
            },
            {
                "start_time": 7.795454545454545,
                "end_time": 8.022727272727272,
                "pitch": 41,
                "velocity": 40,
                "duration": 0.22727272727272663,
                "tempo": 120.0
            },
            {
                "start_time": 8.038636363636364,
                "end_time": 8.127272727272727,
                "pitch": 41,
                "velocity": 40,
                "duration": 0.08863636363636296,
                "tempo": 120.0
            },
            {
                "start_time": 8.179545454545455,
                "end_time": 8.26590909090909,
                "pitch": 41,
                "velocity": 40,
                "duration": 0.08636363636363598,
                "tempo": 120.0
            },
            {
                "start_time": 8.281818181818181,
                "end_time": 8.4,
                "pitch": 53,
                "velocity": 40,
                "duration": 0.11818181818181905,
                "tempo": 120.0
            },
            {
                "start_time": 8.415909090909091,
                "end_time": 8.5,
                "pitch": 41,
                "velocity": 40,
                "duration": 0.084090909090909,
                "tempo": 120.0
            },
            {
                "start_time": 8.65,
                "end_time": 8.73409090909091,
                "pitch": 41,
                "velocity": 40,
                "duration": 0.084090909090909,
                "tempo": 120.0
            },
            {
                "start_time": 8.786363636363635,
                "end_time": 9.01590909090909,
                "pitch": 41,
                "velocity": 40,
                "duration": 0.22954545454545539,
                "tempo": 120.0
            },
            {
                "start_time": 9.034090909090908,
                "end_time": 9.122727272727273,
                "pitch": 41,
                "velocity": 40,
                "duration": 0.08863636363636473,
                "tempo": 120.0
            },
            {
                "start_time": 9.14090909090909,
                "end_time": 9.263636363636364,
                "pitch": 41,
                "velocity": 40,
                "duration": 0.12272727272727302,
                "tempo": 120.0
            },
            {
                "start_time": 9.281818181818181,
                "end_time": 9.36590909090909,
                "pitch": 51,
                "velocity": 40,
                "duration": 0.084090909090909,
                "tempo": 120.0
            },
            {
                "start_time": 9.415909090909091,
                "end_time": 9.5,
                "pitch": 41,
                "velocity": 40,
                "duration": 0.084090909090909,
                "tempo": 120.0
            },
            {
                "start_time": 9.65,
                "end_time": 9.73409090909091,
                "pitch": 41,
                "velocity": 40,
                "duration": 0.084090909090909,
                "tempo": 120.0
            },
            {
                "start_time": 9.75,
                "end_time": 9.968181818181817,
                "pitch": 41,
                "velocity": 40,
                "duration": 0.21818181818181692,
                "tempo": 120.0
            },
            {
                "start_time": 10.018181818181818,
                "end_time": 10.102272727272727,
                "pitch": 41,
                "velocity": 40,
                "duration": 0.084090909090909,
                "tempo": 120.0
            },
            {
                "start_time": 10.118181818181817,
                "end_time": 10.236363636363636,
                "pitch": 41,
                "velocity": 40,
                "duration": 0.11818181818181905,
                "tempo": 120.0
            },
            {
                "start_time": 10.254545454545454,
                "end_time": 10.34090909090909,
                "pitch": 63,
                "velocity": 40,
                "duration": 0.08636363636363598,
                "tempo": 120.0
            },
            {
                "start_time": 10.35909090909091,
                "end_time": 10.48181818181818,
                "pitch": 65,
                "velocity": 40,
                "duration": 0.12272727272727124,
                "tempo": 120.0
            },
            {
                "start_time": 10.497727272727273,
                "end_time": 10.586363636363636,
                "pitch": 41,
                "velocity": 40,
                "duration": 0.08863636363636296,
                "tempo": 120.0
            },
            {
                "start_time": 10.638636363636364,
                "end_time": 10.725,
                "pitch": 41,
                "velocity": 40,
                "duration": 0.08636363636363598,
                "tempo": 120.0
            },
            {
                "start_time": 10.74090909090909,
                "end_time": 10.85909090909091,
                "pitch": 61,
                "velocity": 40,
                "duration": 0.11818181818181905,
                "tempo": 120.0
            },
            {
                "start_time": 10.875,
                "end_time": 10.959090909090909,
                "pitch": 63,
                "velocity": 40,
                "duration": 0.084090909090909,
                "tempo": 120.0
            },
            {
                "start_time": 10.977272727272727,
                "end_time": 11.093181818181817,
                "pitch": 41,
                "velocity": 40,
                "duration": 0.1159090909090903,
                "tempo": 120.0
            },
            {
                "start_time": 11.10909090909091,
                "end_time": 11.193181818181818,
                "pitch": 41,
                "velocity": 40,
                "duration": 0.084090909090909,
                "tempo": 120.0
            },
            {
                "start_time": 11.245454545454544,
                "end_time": 11.334090909090909,
                "pitch": 60,
                "velocity": 40,
                "duration": 0.08863636363636473,
                "tempo": 120.0
            },
            {
                "start_time": 11.352272727272727,
                "end_time": 11.475,
                "pitch": 61,
                "velocity": 40,
                "duration": 0.12272727272727302,
                "tempo": 120.0
            },
            {
                "start_time": 11.493181818181817,
                "end_time": 11.722727272727273,
                "pitch": 39,
                "velocity": 40,
                "duration": 0.22954545454545539,
                "tempo": 120.0
            },
            {
                "start_time": 11.738636363636363,
                "end_time": 11.952272727272726,
                "pitch": 41,
                "velocity": 40,
                "duration": 0.21363636363636296,
                "tempo": 120.0
            },
            {
                "start_time": 11.968181818181817,
                "end_time": 12.084090909090909,
                "pitch": 41,
                "velocity": 40,
                "duration": 0.11590909090909207,
                "tempo": 120.0
            },
            {
                "start_time": 12.1,
                "end_time": 12.181818181818182,
                "pitch": 41,
                "velocity": 40,
                "duration": 0.08181818181818201,
                "tempo": 120.0
            },
            {
                "start_time": 12.197727272727272,
                "end_time": 12.318181818181818,
                "pitch": 53,
                "velocity": 40,
                "duration": 0.12045454545454604,
                "tempo": 120.0
            },
            {
                "start_time": 12.336363636363636,
                "end_time": 12.420454545454545,
                "pitch": 41,
                "velocity": 40,
                "duration": 0.084090909090909,
                "tempo": 120.0
            },
            {
                "start_time": 12.575,
                "end_time": 12.695454545454545,
                "pitch": 41,
                "velocity": 40,
                "duration": 0.12045454545454604,
                "tempo": 120.0
            },
            {
                "start_time": 12.713636363636363,
                "end_time": 12.94090909090909,
                "pitch": 41,
                "velocity": 40,
                "duration": 0.22727272727272663,
                "tempo": 120.0
            },
            {
                "start_time": 12.956818181818182,
                "end_time": 13.045454545454545,
                "pitch": 41,
                "velocity": 40,
                "duration": 0.08863636363636296,
                "tempo": 120.0
            },
            {
                "start_time": 13.097727272727273,
                "end_time": 13.184090909090909,
                "pitch": 41,
                "velocity": 40,
                "duration": 0.08636363636363598,
                "tempo": 120.0
            },
            {
                "start_time": 13.2,
                "end_time": 13.318181818181818,
                "pitch": 51,
                "velocity": 40,
                "duration": 0.11818181818181905,
                "tempo": 120.0
            },
            {
                "start_time": 13.334090909090909,
                "end_time": 13.418181818181818,
                "pitch": 41,
                "velocity": 40,
                "duration": 0.084090909090909,
                "tempo": 120.0
            },
            {
                "start_time": 13.570454545454545,
                "end_time": 13.652272727272727,
                "pitch": 41,
                "velocity": 40,
                "duration": 0.08181818181818201,
                "tempo": 120.0
            },
            {
                "start_time": 13.704545454545453,
                "end_time": 13.934090909090909,
                "pitch": 41,
                "velocity": 40,
                "duration": 0.22954545454545539,
                "tempo": 120.0
            },
            {
                "start_time": 13.952272727272726,
                "end_time": 14.040909090909091,
                "pitch": 41,
                "velocity": 40,
                "duration": 0.08863636363636473,
                "tempo": 120.0
            },
            {
                "start_time": 14.059090909090909,
                "end_time": 14.184090909090909,
                "pitch": 41,
                "velocity": 40,
                "duration": 0.125,
                "tempo": 120.0
            },
            {
                "start_time": 14.2,
                "end_time": 14.284090909090908,
                "pitch": 53,
                "velocity": 40,
                "duration": 0.084090909090909,
                "tempo": 120.0
            },
            {
                "start_time": 14.334090909090909,
                "end_time": 14.418181818181818,
                "pitch": 41,
                "velocity": 40,
                "duration": 0.084090909090909,
                "tempo": 120.0
            },
            {
                "start_time": 14.568181818181818,
                "end_time": 14.786363636363635,
                "pitch": 41,
                "velocity": 40,
                "duration": 0.21818181818181692,
                "tempo": 120.0
            },
            {
                "start_time": 14.802272727272726,
                "end_time": 14.886363636363635,
                "pitch": 51,
                "velocity": 40,
                "duration": 0.084090909090909,
                "tempo": 120.0
            },
            {
                "start_time": 14.936363636363636,
                "end_time": 15.020454545454545,
                "pitch": 41,
                "velocity": 40,
                "duration": 0.084090909090909,
                "tempo": 120.0
            },
            {
                "start_time": 15.038636363636362,
                "end_time": 15.154545454545454,
                "pitch": 41,
                "velocity": 40,
                "duration": 0.11590909090909207,
                "tempo": 120.0
            },
            {
                "start_time": 15.172727272727272,
                "end_time": 15.259090909090908,
                "pitch": 48,
                "velocity": 40,
                "duration": 0.08636363636363598,
                "tempo": 120.0
            },
            {
                "start_time": 15.277272727272727,
                "end_time": 15.399999999999999,
                "pitch": 41,
                "velocity": 40,
                "duration": 0.12272727272727124,
                "tempo": 120.0
            },
            {
                "start_time": 15.415909090909091,
                "end_time": 15.504545454545454,
                "pitch": 39,
                "velocity": 40,
                "duration": 0.08863636363636296,
                "tempo": 120.0
            },
            {
                "start_time": 15.556818181818182,
                "end_time": 15.643181818181818,
                "pitch": 41,
                "velocity": 40,
                "duration": 0.08636363636363598,
                "tempo": 120.0
            },
            {
                "start_time": 15.659090909090908,
                "end_time": 15.877272727272727,
                "pitch": 41,
                "velocity": 40,
                "duration": 0.2181818181818187,
                "tempo": 120.0
            },
            {
                "start_time": 15.895454545454545,
                "end_time": 16.011363636363637,
                "pitch": 41,
                "velocity": 40,
                "duration": 0.11590909090909207,
                "tempo": 120.0
            },
            {
                "start_time": 16.029545454545453,
                "end_time": 16.111363636363635,
                "pitch": 41,
                "velocity": 40,
                "duration": 0.08181818181818201,
                "tempo": 120.0
            },
            {
                "start_time": 16.163636363636364,
                "end_time": 16.252272727272725,
                "pitch": 53,
                "velocity": 40,
                "duration": 0.08863636363636118,
                "tempo": 120.0
            },
            {
                "start_time": 16.270454545454545,
                "end_time": 16.393181818181816,
                "pitch": 41,
                "velocity": 40,
                "duration": 0.12272727272727124,
                "tempo": 120.0
            },
            {
                "start_time": 16.518181818181816,
                "end_time": 16.64090909090909,
                "pitch": 41,
                "velocity": 40,
                "duration": 0.1227272727272748,
                "tempo": 120.0
            },
            {
                "start_time": 16.65681818181818,
                "end_time": 16.870454545454546,
                "pitch": 41,
                "velocity": 40,
                "duration": 0.21363636363636473,
                "tempo": 120.0
            },
            {
                "start_time": 16.886363636363637,
                "end_time": 17.002272727272725,
                "pitch": 41,
                "velocity": 40,
                "duration": 0.11590909090908852,
                "tempo": 120.0
            },
            {
                "start_time": 17.018181818181816,
                "end_time": 17.099999999999998,
                "pitch": 41,
                "velocity": 40,
                "duration": 0.08181818181818201,
                "tempo": 120.0
            },
            {
                "start_time": 17.11590909090909,
                "end_time": 17.236363636363635,
                "pitch": 51,
                "velocity": 40,
                "duration": 0.12045454545454604,
                "tempo": 120.0
            },
            {
                "start_time": 17.254545454545454,
                "end_time": 17.33863636363636,
                "pitch": 41,
                "velocity": 40,
                "duration": 0.08409090909090722,
                "tempo": 120.0
            },
            {
                "start_time": 17.493181818181817,
                "end_time": 17.613636363636363,
                "pitch": 41,
                "velocity": 40,
                "duration": 0.12045454545454604,
                "tempo": 120.0
            },
            {
                "start_time": 17.631818181818183,
                "end_time": 17.85909090909091,
                "pitch": 41,
                "velocity": 40,
                "duration": 0.22727272727272663,
                "tempo": 120.0
            },
            {
                "start_time": 17.875,
                "end_time": 17.96363636363636,
                "pitch": 41,
                "velocity": 40,
                "duration": 0.08863636363636118,
                "tempo": 120.0
            },
            {
                "start_time": 18.01590909090909,
                "end_time": 18.102272727272727,
                "pitch": 41,
                "velocity": 40,
                "duration": 0.08636363636363598,
                "tempo": 120.0
            },
            {
                "start_time": 18.118181818181817,
                "end_time": 18.236363636363635,
                "pitch": 63,
                "velocity": 40,
                "duration": 0.11818181818181728,
                "tempo": 120.0
            },
            {
                "start_time": 18.252272727272725,
                "end_time": 18.336363636363636,
                "pitch": 65,
                "velocity": 40,
                "duration": 0.08409090909091077,
                "tempo": 120.0
            },
            {
                "start_time": 18.354545454545455,
                "end_time": 18.470454545454544,
                "pitch": 41,
                "velocity": 40,
                "duration": 0.11590909090908852,
                "tempo": 120.0
            },
            {
                "start_time": 18.488636363636363,
                "end_time": 18.570454545454545,
                "pitch": 41,
                "velocity": 40,
                "duration": 0.08181818181818201,
                "tempo": 120.0
            },
            {
                "start_time": 18.62272727272727,
                "end_time": 18.711363636363636,
                "pitch": 61,
                "velocity": 40,
                "duration": 0.08863636363636473,
                "tempo": 120.0
            },
            {
                "start_time": 18.729545454545455,
                "end_time": 18.852272727272727,
                "pitch": 63,
                "velocity": 40,
                "duration": 0.12272727272727124,
                "tempo": 120.0
            },
            {
                "start_time": 18.870454545454546,
                "end_time": 18.959090909090907,
                "pitch": 41,
                "velocity": 40,
                "duration": 0.08863636363636118,
                "tempo": 120.0
            },
            {
                "start_time": 18.977272727272727,
                "end_time": 19.099999999999998,
                "pitch": 41,
                "velocity": 40,
                "duration": 0.12272727272727124,
                "tempo": 120.0
            },
            {
                "start_time": 19.118181818181817,
                "end_time": 19.2,
                "pitch": 60,
                "velocity": 40,
                "duration": 0.08181818181818201,
                "tempo": 120.0
            },
            {
                "start_time": 19.24772727272727,
                "end_time": 19.329545454545453,
                "pitch": 61,
                "velocity": 40,
                "duration": 0.08181818181818201,
                "tempo": 120.0
            },
            {
                "start_time": 19.345454545454544,
                "end_time": 19.55909090909091,
                "pitch": 39,
                "velocity": 40,
                "duration": 0.21363636363636473,
                "tempo": 120.0
            },
            {
                "start_time": 19.575,
                "end_time": 19.797727272727272,
                "pitch": 41,
                "velocity": 40,
                "duration": 0.22272727272727266,
                "tempo": 120.0
            },
            {
                "start_time": 19.849999999999998,
                "end_time": 19.936363636363634,
                "pitch": 41,
                "velocity": 40,
                "duration": 0.08636363636363598,
                "tempo": 120.0
            },
            {
                "start_time": 19.952272727272728,
                "end_time": 20.07272727272727,
                "pitch": 41,
                "velocity": 40,
                "duration": 0.12045454545454248,
                "tempo": 120.0
            },
            {
                "start_time": 20.09090909090909,
                "end_time": 20.177272727272726,
                "pitch": 53,
                "velocity": 40,
                "duration": 0.08636363636363598,
                "tempo": 120.0
            },
            {
                "start_time": 20.195454545454545,
                "end_time": 20.318181818181817,
                "pitch": 41,
                "velocity": 40,
                "duration": 0.12272727272727124,
                "tempo": 120.0
            },
            {
                "start_time": 20.474999999999998,
                "end_time": 20.561363636363634,
                "pitch": 41,
                "velocity": 40,
                "duration": 0.08636363636363598,
                "tempo": 120.0
            },
            {
                "start_time": 20.577272727272728,
                "end_time": 20.795454545454543,
                "pitch": 41,
                "velocity": 40,
                "duration": 0.21818181818181515,
                "tempo": 120.0
            },
            {
                "start_time": 20.813636363636363,
                "end_time": 20.929545454545455,
                "pitch": 41,
                "velocity": 40,
                "duration": 0.11590909090909207,
                "tempo": 120.0
            },
            {
                "start_time": 20.94772727272727,
                "end_time": 21.029545454545453,
                "pitch": 41,
                "velocity": 40,
                "duration": 0.08181818181818201,
                "tempo": 120.0
            },
            {
                "start_time": 21.081818181818182,
                "end_time": 21.170454545454543,
                "pitch": 51,
                "velocity": 40,
                "duration": 0.08863636363636118,
                "tempo": 120.0
            },
            {
                "start_time": 21.188636363636363,
                "end_time": 21.311363636363634,
                "pitch": 41,
                "velocity": 40,
                "duration": 0.12272727272727124,
                "tempo": 120.0
            },
            {
                "start_time": 21.436363636363634,
                "end_time": 21.55909090909091,
                "pitch": 41,
                "velocity": 40,
                "duration": 0.1227272727272748,
                "tempo": 120.0
            },
            {
                "start_time": 21.577272727272724,
                "end_time": 21.788636363636364,
                "pitch": 41,
                "velocity": 40,
                "duration": 0.21136363636363953,
                "tempo": 120.0
            },
            {
                "start_time": 21.804545454545455,
                "end_time": 21.920454545454543,
                "pitch": 41,
                "velocity": 40,
                "duration": 0.11590909090908852,
                "tempo": 120.0
            },
            {
                "start_time": 21.936363636363634,
                "end_time": 22.018181818181816,
                "pitch": 41,
                "velocity": 40,
                "duration": 0.08181818181818201,
                "tempo": 120.0
            },
            {
                "start_time": 22.034090909090907,
                "end_time": 22.154545454545453,
                "pitch": 53,
                "velocity": 40,
                "duration": 0.12045454545454604,
                "tempo": 120.0
            },
            {
                "start_time": 22.172727272727272,
                "end_time": 22.259090909090908,
                "pitch": 41,
                "velocity": 40,
                "duration": 0.08636363636363598,
                "tempo": 120.0
            },
            {
                "start_time": 22.411363636363635,
                "end_time": 22.636363636363637,
                "pitch": 41,
                "velocity": 40,
                "duration": 0.22500000000000142,
                "tempo": 120.0
            },
            {
                "start_time": 22.654545454545453,
                "end_time": 22.777272727272727,
                "pitch": 51,
                "velocity": 40,
                "duration": 0.1227272727272748,
                "tempo": 120.0
            },
            {
                "start_time": 22.793181818181818,
                "end_time": 22.88181818181818,
                "pitch": 41,
                "velocity": 40,
                "duration": 0.08863636363636118,
                "tempo": 120.0
            },
            {
                "start_time": 22.93409090909091,
                "end_time": 23.020454545454545,
                "pitch": 41,
                "velocity": 40,
                "duration": 0.08636363636363598,
                "tempo": 120.0
            },
            {
                "start_time": 23.038636363636364,
                "end_time": 23.154545454545453,
                "pitch": 48,
                "velocity": 40,
                "duration": 0.11590909090908852,
                "tempo": 120.0
            },
            {
                "start_time": 23.170454545454543,
                "end_time": 23.254545454545454,
                "pitch": 41,
                "velocity": 40,
                "duration": 0.08409090909091077,
                "tempo": 120.0
            },
            {
                "start_time": 23.272727272727273,
                "end_time": 23.388636363636362,
                "pitch": 39,
                "velocity": 40,
                "duration": 0.11590909090908852,
                "tempo": 120.0
            },
            {
                "start_time": 23.40681818181818,
                "end_time": 23.49090909090909,
                "pitch": 41,
                "velocity": 40,
                "duration": 0.08409090909090722,
                "tempo": 120.0
            },
            {
                "start_time": 23.54090909090909,
                "end_time": 23.770454545454545,
                "pitch": 41,
                "velocity": 40,
                "duration": 0.22954545454545539,
                "tempo": 120.0
            },
            {
                "start_time": 23.788636363636364,
                "end_time": 23.877272727272725,
                "pitch": 41,
                "velocity": 40,
                "duration": 0.08863636363636118,
                "tempo": 120.0
            },
            {
                "start_time": 23.895454545454545,
                "end_time": 24.020454545454545,
                "pitch": 41,
                "velocity": 40,
                "duration": 0.125,
                "tempo": 120.0
            },
            {
                "start_time": 24.036363636363635,
                "end_time": 24.120454545454546,
                "pitch": 53,
                "velocity": 40,
                "duration": 0.08409090909091077,
                "tempo": 120.0
            },
            {
                "start_time": 24.170454545454543,
                "end_time": 24.254545454545454,
                "pitch": 41,
                "velocity": 40,
                "duration": 0.08409090909091077,
                "tempo": 120.0
            },
            {
                "start_time": 24.404545454545453,
                "end_time": 24.488636363636363,
                "pitch": 41,
                "velocity": 40,
                "duration": 0.08409090909091077,
                "tempo": 120.0
            },
            {
                "start_time": 24.50681818181818,
                "end_time": 24.722727272727273,
                "pitch": 41,
                "velocity": 40,
                "duration": 0.2159090909090935,
                "tempo": 120.0
            },
            {
                "start_time": 24.77272727272727,
                "end_time": 24.85681818181818,
                "pitch": 41,
                "velocity": 40,
                "duration": 0.08409090909091077,
                "tempo": 120.0
            },
            {
                "start_time": 24.875,
                "end_time": 24.99090909090909,
                "pitch": 41,
                "velocity": 40,
                "duration": 0.11590909090908852,
                "tempo": 120.0
            },
            {
                "start_time": 25.009090909090908,
                "end_time": 25.095454545454544,
                "pitch": 51,
                "velocity": 40,
                "duration": 0.08636363636363598,
                "tempo": 120.0
            },
            {
                "start_time": 25.113636363636363,
                "end_time": 25.236363636363635,
                "pitch": 41,
                "velocity": 40,
                "duration": 0.12272727272727124,
                "tempo": 120.0
            },
            {
                "start_time": 25.393181818181816,
                "end_time": 25.479545454545452,
                "pitch": 41,
                "velocity": 40,
                "duration": 0.08636363636363598,
                "tempo": 120.0
            },
            {
                "start_time": 25.49772727272727,
                "end_time": 25.71363636363636,
                "pitch": 41,
                "velocity": 40,
                "duration": 0.21590909090908994,
                "tempo": 120.0
            },
            {
                "start_time": 25.73181818181818,
                "end_time": 25.847727272727273,
                "pitch": 41,
                "velocity": 40,
                "duration": 0.11590909090909207,
                "tempo": 120.0
            },
            {
                "start_time": 25.86590909090909,
                "end_time": 25.95,
                "pitch": 41,
                "velocity": 40,
                "duration": 0.08409090909091077,
                "tempo": 120.0
            },
            {
                "start_time": 26.0,
                "end_time": 26.08863636363636,
                "pitch": 63,
                "velocity": 40,
                "duration": 0.08863636363636118,
                "tempo": 120.0
            },
            {
                "start_time": 26.10681818181818,
                "end_time": 26.229545454545452,
                "pitch": 65,
                "velocity": 40,
                "duration": 0.12272727272727124,
                "tempo": 120.0
            },
            {
                "start_time": 26.24772727272727,
                "end_time": 26.336363636363636,
                "pitch": 41,
                "velocity": 40,
                "duration": 0.08863636363636473,
                "tempo": 120.0
            },
            {
                "start_time": 26.354545454545452,
                "end_time": 26.477272727272727,
                "pitch": 41,
                "velocity": 40,
                "duration": 0.1227272727272748,
                "tempo": 120.0
            },
            {
                "start_time": 26.495454545454542,
                "end_time": 26.577272727272724,
                "pitch": 61,
                "velocity": 40,
                "duration": 0.08181818181818201,
                "tempo": 120.0
            },
            {
                "start_time": 26.625,
                "end_time": 26.706818181818182,
                "pitch": 63,
                "velocity": 40,
                "duration": 0.08181818181818201,
                "tempo": 120.0
            },
            {
                "start_time": 26.722727272727273,
                "end_time": 26.83863636363636,
                "pitch": 41,
                "velocity": 40,
                "duration": 0.11590909090908852,
                "tempo": 120.0
            },
            {
                "start_time": 26.854545454545452,
                "end_time": 26.936363636363634,
                "pitch": 41,
                "velocity": 40,
                "duration": 0.08181818181818201,
                "tempo": 120.0
            },
            {
                "start_time": 26.952272727272724,
                "end_time": 27.07272727272727,
                "pitch": 60,
                "velocity": 40,
                "duration": 0.12045454545454604,
                "tempo": 120.0
            },
            {
                "start_time": 27.09090909090909,
                "end_time": 27.177272727272726,
                "pitch": 61,
                "velocity": 40,
                "duration": 0.08636363636363598,
                "tempo": 120.0
            },
            {
                "start_time": 27.227272727272727,
                "end_time": 27.45,
                "pitch": 39,
                "velocity": 40,
                "duration": 0.22272727272727266,
                "tempo": 120.0
            },
            {
                "start_time": 27.468181818181815,
                "end_time": 27.695454545454545,
                "pitch": 41,
                "velocity": 40,
                "duration": 0.22727272727273018,
                "tempo": 120.0
            },
            {
                "start_time": 27.711363636363636,
                "end_time": 27.799999999999997,
                "pitch": 41,
                "velocity": 40,
                "duration": 0.08863636363636118,
                "tempo": 120.0
            },
            {
                "start_time": 27.852272727272727,
                "end_time": 27.938636363636363,
                "pitch": 41,
                "velocity": 40,
                "duration": 0.08636363636363598,
                "tempo": 120.0
            },
            {
                "start_time": 27.956818181818182,
                "end_time": 28.07272727272727,
                "pitch": 53,
                "velocity": 40,
                "duration": 0.11590909090908852,
                "tempo": 120.0
            },
            {
                "start_time": 28.09090909090909,
                "end_time": 28.172727272727272,
                "pitch": 41,
                "velocity": 40,
                "duration": 0.08181818181818201,
                "tempo": 120.0
            },
            {
                "start_time": 28.325,
                "end_time": 28.409090909090907,
                "pitch": 41,
                "velocity": 40,
                "duration": 0.08409090909090722,
                "tempo": 120.0
            },
            {
                "start_time": 28.459090909090907,
                "end_time": 28.690909090909088,
                "pitch": 41,
                "velocity": 40,
                "duration": 0.2318181818181806,
                "tempo": 120.0
            },
            {
                "start_time": 28.706818181818182,
                "end_time": 28.795454545454543,
                "pitch": 41,
                "velocity": 40,
                "duration": 0.08863636363636118,
                "tempo": 120.0
            },
            {
                "start_time": 28.813636363636363,
                "end_time": 28.936363636363634,
                "pitch": 41,
                "velocity": 40,
                "duration": 0.12272727272727124,
                "tempo": 120.0
            },
            {
                "start_time": 28.954545454545453,
                "end_time": 29.036363636363635,
                "pitch": 51,
                "velocity": 40,
                "duration": 0.08181818181818201,
                "tempo": 120.0
            },
            {
                "start_time": 29.084090909090907,
                "end_time": 29.16590909090909,
                "pitch": 41,
                "velocity": 40,
                "duration": 0.08181818181818201,
                "tempo": 120.0
            },
            {
                "start_time": 29.313636363636363,
                "end_time": 29.395454545454545,
                "pitch": 41,
                "velocity": 40,
                "duration": 0.08181818181818201,
                "tempo": 120.0
            },
            {
                "start_time": 29.411363636363635,
                "end_time": 29.636363636363637,
                "pitch": 41,
                "velocity": 40,
                "duration": 0.22500000000000142,
                "tempo": 120.0
            },
            {
                "start_time": 29.686363636363634,
                "end_time": 29.77272727272727,
                "pitch": 41,
                "velocity": 40,
                "duration": 0.08636363636363598,
                "tempo": 120.0
            },
            {
                "start_time": 29.79090909090909,
                "end_time": 29.909090909090907,
                "pitch": 41,
                "velocity": 40,
                "duration": 0.11818181818181728,
                "tempo": 120.0
            },
            {
                "start_time": 29.927272727272726,
                "end_time": 30.013636363636362,
                "pitch": 53,
                "velocity": 40,
                "duration": 0.08636363636363598,
                "tempo": 120.0
            },
            {
                "start_time": 30.03181818181818,
                "end_time": 30.154545454545453,
                "pitch": 41,
                "velocity": 40,
                "duration": 0.12272727272727124,
                "tempo": 120.0
            },
            {
                "start_time": 30.311363636363634,
                "end_time": 30.53181818181818,
                "pitch": 41,
                "velocity": 40,
                "duration": 0.22045454545454746,
                "tempo": 120.0
            },
            {
                "start_time": 30.549999999999997,
                "end_time": 30.63181818181818,
                "pitch": 51,
                "velocity": 40,
                "duration": 0.08181818181818201,
                "tempo": 120.0
            },
            {
                "start_time": 30.65,
                "end_time": 30.76590909090909,
                "pitch": 41,
                "velocity": 40,
                "duration": 0.11590909090909207,
                "tempo": 120.0
            },
            {
                "start_time": 30.784090909090907,
                "end_time": 30.868181818181817,
                "pitch": 41,
                "velocity": 40,
                "duration": 0.08409090909091077,
                "tempo": 120.0
            },
            {
                "start_time": 30.918181818181818,
                "end_time": 31.00681818181818,
                "pitch": 48,
                "velocity": 40,
                "duration": 0.08863636363636118,
                "tempo": 120.0
            },
            {
                "start_time": 31.025,
                "end_time": 31.15,
                "pitch": 41,
                "velocity": 40,
                "duration": 0.125,
                "tempo": 120.0
            },
            {
                "start_time": 31.16590909090909,
                "end_time": 31.254545454545454,
                "pitch": 39,
                "velocity": 40,
                "duration": 0.08863636363636473,
                "tempo": 120.0
            },
            {
                "start_time": 31.27272727272727,
                "end_time": 31.39772727272727,
                "pitch": 41,
                "velocity": 40,
                "duration": 0.125,
                "tempo": 120.0
            },
            {
                "start_time": 31.41363636363636,
                "end_time": 31.63181818181818,
                "pitch": 41,
                "velocity": 40,
                "duration": 0.2181818181818187,
                "tempo": 120.0
            },
            {
                "start_time": 31.64772727272727,
                "end_time": 31.76590909090909,
                "pitch": 41,
                "velocity": 40,
                "duration": 0.11818181818182083,
                "tempo": 120.0
            },
            {
                "start_time": 31.78181818181818,
                "end_time": 31.86590909090909,
                "pitch": 41,
                "velocity": 40,
                "duration": 0.08409090909090722,
                "tempo": 120.0
            },
            {
                "start_time": 31.884090909090908,
                "end_time": 32.0,
                "pitch": 53,
                "velocity": 40,
                "duration": 0.11590909090909207,
                "tempo": 120.0
            },
            {
                "start_time": 32.018181818181816,
                "end_time": 32.1,
                "pitch": 41,
                "velocity": 40,
                "duration": 0.08181818181818556,
                "tempo": 120.0
            },
            {
                "start_time": 32.252272727272725,
                "end_time": 32.36818181818182,
                "pitch": 41,
                "velocity": 40,
                "duration": 0.11590909090909207,
                "tempo": 120.0
            },
            {
                "start_time": 32.38636363636363,
                "end_time": 32.61363636363636,
                "pitch": 41,
                "velocity": 40,
                "duration": 0.22727272727272663,
                "tempo": 120.0
            },
            {
                "start_time": 32.62954545454545,
                "end_time": 32.71818181818182,
                "pitch": 41,
                "velocity": 40,
                "duration": 0.08863636363636829,
                "tempo": 120.0
            },
            {
                "start_time": 32.77045454545454,
                "end_time": 32.85681818181818,
                "pitch": 41,
                "velocity": 40,
                "duration": 0.08636363636363598,
                "tempo": 120.0
            },
            {
                "start_time": 32.875,
                "end_time": 32.99090909090909,
                "pitch": 51,
                "velocity": 40,
                "duration": 0.11590909090909207,
                "tempo": 120.0
            },
            {
                "start_time": 33.00909090909091,
                "end_time": 33.090909090909086,
                "pitch": 41,
                "velocity": 40,
                "duration": 0.08181818181817846,
                "tempo": 120.0
            },
            {
                "start_time": 33.24318181818182,
                "end_time": 33.32727272727273,
                "pitch": 41,
                "velocity": 40,
                "duration": 0.08409090909091077,
                "tempo": 120.0
            },
            {
                "start_time": 33.377272727272725,
                "end_time": 33.60909090909091,
                "pitch": 41,
                "velocity": 40,
                "duration": 0.23181818181818414,
                "tempo": 120.0
            },
            {
                "start_time": 33.625,
                "end_time": 33.71363636363636,
                "pitch": 41,
                "velocity": 40,
                "duration": 0.08863636363636118,
                "tempo": 120.0
            },
            {
                "start_time": 33.73181818181818,
                "end_time": 33.85681818181818,
                "pitch": 41,
                "velocity": 40,
                "duration": 0.125,
                "tempo": 120.0
            },
            {
                "start_time": 33.87272727272727,
                "end_time": 33.95681818181818,
                "pitch": 63,
                "velocity": 40,
                "duration": 0.08409090909091077,
                "tempo": 120.0
            },
            {
                "start_time": 34.00681818181818,
                "end_time": 34.090909090909086,
                "pitch": 65,
                "velocity": 40,
                "duration": 0.08409090909090366,
                "tempo": 120.0
            },
            {
                "start_time": 34.10681818181818,
                "end_time": 34.225,
                "pitch": 41,
                "velocity": 40,
                "duration": 0.11818181818182438,
                "tempo": 120.0
            },
            {
                "start_time": 34.24090909090909,
                "end_time": 34.324999999999996,
                "pitch": 41,
                "velocity": 40,
                "duration": 0.08409090909090366,
                "tempo": 120.0
            },
            {
                "start_time": 34.34318181818182,
                "end_time": 34.45909090909091,
                "pitch": 61,
                "velocity": 40,
                "duration": 0.11590909090909207,
                "tempo": 120.0
            },
            {
                "start_time": 34.47727272727273,
                "end_time": 34.559090909090905,
                "pitch": 63,
                "velocity": 40,
                "duration": 0.08181818181817846,
                "tempo": 120.0
            },
            {
                "start_time": 34.60909090909091,
                "end_time": 34.69318181818181,
                "pitch": 41,
                "velocity": 40,
                "duration": 0.08409090909090366,
                "tempo": 120.0
            },
            {
                "start_time": 34.711363636363636,
                "end_time": 34.82727272727273,
                "pitch": 41,
                "velocity": 40,
                "duration": 0.11590909090909207,
                "tempo": 120.0
            },
            {
                "start_time": 34.845454545454544,
                "end_time": 34.934090909090905,
                "pitch": 60,
                "velocity": 40,
                "duration": 0.08863636363636118,
                "tempo": 120.0
            },
            {
                "start_time": 34.95227272727273,
                "end_time": 35.074999999999996,
                "pitch": 61,
                "velocity": 40,
                "duration": 0.12272727272726769,
                "tempo": 120.0
            },
            {
                "start_time": 35.09318181818182,
                "end_time": 35.324999999999996,
                "pitch": 39,
                "velocity": 40,
                "duration": 0.23181818181817704,
                "tempo": 120.0
            },
            {
                "start_time": 35.340909090909086,
                "end_time": 35.55227272727272,
                "pitch": 41,
                "velocity": 40,
                "duration": 0.21136363636363598,
                "tempo": 120.0
            },
            {
                "start_time": 35.570454545454545,
                "end_time": 35.684090909090905,
                "pitch": 41,
                "velocity": 40,
                "duration": 0.11363636363635976,
                "tempo": 120.0
            },
            {
                "start_time": 35.699999999999996,
                "end_time": 35.78181818181818,
                "pitch": 41,
                "velocity": 40,
                "duration": 0.08181818181818556,
                "tempo": 120.0
            },
            {
                "start_time": 35.83181818181818,
                "end_time": 35.92045454545455,
                "pitch": 53,
                "velocity": 40,
                "duration": 0.08863636363636829,
                "tempo": 120.0
            },
            {
                "start_time": 35.93863636363636,
                "end_time": 36.06363636363636,
                "pitch": 41,
                "velocity": 40,
                "duration": 0.125,
                "tempo": 120.0
            },
            {
                "start_time": 36.18636363636364,
                "end_time": 36.31136363636364,
                "pitch": 41,
                "velocity": 40,
                "duration": 0.125,
                "tempo": 120.0
            },
            {
                "start_time": 36.32727272727273,
                "end_time": 36.54545454545455,
                "pitch": 41,
                "velocity": 40,
                "duration": 0.2181818181818187,
                "tempo": 120.0
            },
            {
                "start_time": 36.56363636363636,
                "end_time": 36.679545454545455,
                "pitch": 41,
                "velocity": 40,
                "duration": 0.11590909090909207,
                "tempo": 120.0
            },
            {
                "start_time": 36.69772727272727,
                "end_time": 36.779545454545456,
                "pitch": 41,
                "velocity": 40,
                "duration": 0.08181818181818556,
                "tempo": 120.0
            },
            {
                "start_time": 36.79772727272727,
                "end_time": 36.913636363636364,
                "pitch": 51,
                "velocity": 40,
                "duration": 0.11590909090909207,
                "tempo": 120.0
            },
            {
                "start_time": 36.93181818181818,
                "end_time": 37.01590909090909,
                "pitch": 41,
                "velocity": 40,
                "duration": 0.08409090909091077,
                "tempo": 120.0
            },
            {
                "start_time": 37.16590909090909,
                "end_time": 37.28409090909091,
                "pitch": 41,
                "velocity": 40,
                "duration": 0.11818181818181728,
                "tempo": 120.0
            },
            {
                "start_time": 37.3,
                "end_time": 37.527272727272724,
                "pitch": 41,
                "velocity": 40,
                "duration": 0.22727272727272663,
                "tempo": 120.0
            },
            {
                "start_time": 37.54545454545455,
                "end_time": 37.63181818181818,
                "pitch": 41,
                "velocity": 40,
                "duration": 0.08636363636363598,
                "tempo": 120.0
            },
            {
                "start_time": 37.684090909090905,
                "end_time": 37.77045454545454,
                "pitch": 41,
                "velocity": 40,
                "duration": 0.08636363636363598,
                "tempo": 120.0
            },
            {
                "start_time": 37.788636363636364,
                "end_time": 37.904545454545456,
                "pitch": 53,
                "velocity": 40,
                "duration": 0.11590909090909207,
                "tempo": 120.0
            },
            {
                "start_time": 37.92272727272727,
                "end_time": 38.00681818181818,
                "pitch": 41,
                "velocity": 40,
                "duration": 0.08409090909091077,
                "tempo": 120.0
            },
            {
                "start_time": 38.15681818181818,
                "end_time": 38.37954545454545,
                "pitch": 41,
                "velocity": 40,
                "duration": 0.2227272727272691,
                "tempo": 120.0
            },
            {
                "start_time": 38.39772727272727,
                "end_time": 38.52272727272727,
                "pitch": 51,
                "velocity": 40,
                "duration": 0.125,
                "tempo": 120.0
            },
            {
                "start_time": 38.54090909090909,
                "end_time": 38.62954545454545,
                "pitch": 41,
                "velocity": 40,
                "duration": 0.08863636363636118,
                "tempo": 120.0
            },
            {
                "start_time": 38.64545454545454,
                "end_time": 38.77045454545454,
                "pitch": 41,
                "velocity": 40,
                "duration": 0.125,
                "tempo": 120.0
            },
            {
                "start_time": 38.78636363636363,
                "end_time": 38.86818181818182,
                "pitch": 48,
                "velocity": 40,
                "duration": 0.08181818181818556,
                "tempo": 120.0
            },
            {
                "start_time": 38.91590909090909,
                "end_time": 38.99772727272727,
                "pitch": 41,
                "velocity": 40,
                "duration": 0.08181818181817846,
                "tempo": 120.0
            },
            {
                "start_time": 39.01590909090909,
                "end_time": 39.12954545454545,
                "pitch": 39,
                "velocity": 40,
                "duration": 0.11363636363635976,
                "tempo": 120.0
            },
            {
                "start_time": 39.14545454545454,
                "end_time": 39.22727272727273,
                "pitch": 41,
                "velocity": 40,
                "duration": 0.08181818181818556,
                "tempo": 120.0
            },
            {
                "start_time": 39.24545454545454,
                "end_time": 39.46818181818182,
                "pitch": 41,
                "velocity": 40,
                "duration": 0.22272727272727622,
                "tempo": 120.0
            },
            {
                "start_time": 39.518181818181816,
                "end_time": 39.60454545454545,
                "pitch": 41,
                "velocity": 40,
                "duration": 0.08636363636363598,
                "tempo": 120.0
            },
            {
                "start_time": 39.62272727272727,
                "end_time": 39.74318181818182,
                "pitch": 41,
                "velocity": 40,
                "duration": 0.12045454545454959,
                "tempo": 120.0
            },
            {
                "start_time": 39.75909090909091,
                "end_time": 39.84772727272727,
                "pitch": 53,
                "velocity": 40,
                "duration": 0.08863636363636118,
                "tempo": 120.0
            },
            {
                "start_time": 39.86363636363636,
                "end_time": 39.986363636363635,
                "pitch": 41,
                "velocity": 40,
                "duration": 0.1227272727272748,
                "tempo": 120.0
            },
            {
                "start_time": 40.143181818181816,
                "end_time": 40.22954545454545,
                "pitch": 41,
                "velocity": 40,
                "duration": 0.08636363636363598,
                "tempo": 120.0
            },
            {
                "start_time": 40.24772727272727,
                "end_time": 40.465909090909086,
                "pitch": 41,
                "velocity": 40,
                "duration": 0.2181818181818187,
                "tempo": 120.0
            },
            {
                "start_time": 40.48181818181818,
                "end_time": 40.6,
                "pitch": 41,
                "velocity": 40,
                "duration": 0.11818181818182438,
                "tempo": 120.0
            },
            {
                "start_time": 40.61590909090909,
                "end_time": 40.699999999999996,
                "pitch": 41,
                "velocity": 40,
                "duration": 0.08409090909090366,
                "tempo": 120.0
            },
            {
                "start_time": 40.75,
                "end_time": 40.83863636363636,
                "pitch": 51,
                "velocity": 40,
                "duration": 0.08863636363636118,
                "tempo": 120.0
            },
            {
                "start_time": 40.85681818181818,
                "end_time": 40.98181818181818,
                "pitch": 41,
                "velocity": 40,
                "duration": 0.125,
                "tempo": 120.0
            },
            {
                "start_time": 41.10454545454545,
                "end_time": 41.22954545454545,
                "pitch": 41,
                "velocity": 40,
                "duration": 0.125,
                "tempo": 120.0
            },
            {
                "start_time": 41.24545454545454,
                "end_time": 41.46363636363636,
                "pitch": 41,
                "velocity": 40,
                "duration": 0.2181818181818187,
                "tempo": 120.0
            },
            {
                "start_time": 41.48181818181818,
                "end_time": 41.59772727272727,
                "pitch": 41,
                "velocity": 40,
                "duration": 0.11590909090909207,
                "tempo": 120.0
            },
            {
                "start_time": 41.61590909090909,
                "end_time": 41.69772727272727,
                "pitch": 41,
                "velocity": 40,
                "duration": 0.08181818181817846,
                "tempo": 120.0
            },
            {
                "start_time": 41.715909090909086,
                "end_time": 41.83181818181818,
                "pitch": 63,
                "velocity": 40,
                "duration": 0.11590909090909207,
                "tempo": 120.0
            },
            {
                "start_time": 41.85,
                "end_time": 41.934090909090905,
                "pitch": 65,
                "velocity": 40,
                "duration": 0.08409090909090366,
                "tempo": 120.0
            },
            {
                "start_time": 41.98409090909091,
                "end_time": 42.06818181818181,
                "pitch": 41,
                "velocity": 40,
                "duration": 0.08409090909090366,
                "tempo": 120.0
            },
            {
                "start_time": 42.084090909090904,
                "end_time": 42.20227272727273,
                "pitch": 41,
                "velocity": 40,
                "duration": 0.11818181818182438,
                "tempo": 120.0
            },
            {
                "start_time": 42.21818181818182,
                "end_time": 42.30681818181818,
                "pitch": 61,
                "velocity": 40,
                "duration": 0.08863636363636118,
                "tempo": 120.0
            },
            {
                "start_time": 42.32272727272727,
                "end_time": 42.445454545454545,
                "pitch": 63,
                "velocity": 40,
                "duration": 0.1227272727272748,
                "tempo": 120.0
            },
            {
                "start_time": 42.46363636363636,
                "end_time": 42.55,
                "pitch": 41,
                "velocity": 40,
                "duration": 0.08636363636363598,
                "tempo": 120.0
            },
            {
                "start_time": 42.60227272727273,
                "end_time": 42.68863636363636,
                "pitch": 41,
                "velocity": 40,
                "duration": 0.08636363636363598,
                "tempo": 120.0
            },
            {
                "start_time": 42.70681818181818,
                "end_time": 42.82272727272727,
                "pitch": 60,
                "velocity": 40,
                "duration": 0.11590909090909207,
                "tempo": 120.0
            },
            {
                "start_time": 42.840909090909086,
                "end_time": 42.925,
                "pitch": 61,
                "velocity": 40,
                "duration": 0.08409090909091077,
                "tempo": 120.0
            },
            {
                "start_time": 42.94090909090909,
                "end_time": 43.15909090909091,
                "pitch": 39,
                "velocity": 40,
                "duration": 0.2181818181818187,
                "tempo": 120.0
            },
            {
                "start_time": 43.209090909090904,
                "end_time": 43.44090909090909,
                "pitch": 41,
                "velocity": 40,
                "duration": 0.23181818181818414,
                "tempo": 120.0
            },
            {
                "start_time": 43.459090909090904,
                "end_time": 43.54772727272727,
                "pitch": 41,
                "velocity": 40,
                "duration": 0.08863636363636829,
                "tempo": 120.0
            },
            {
                "start_time": 43.56363636363636,
                "end_time": 43.68863636363636,
                "pitch": 41,
                "velocity": 40,
                "duration": 0.125,
                "tempo": 120.0
            },
            {
                "start_time": 43.70454545454545,
                "end_time": 43.788636363636364,
                "pitch": 53,
                "velocity": 40,
                "duration": 0.08409090909091077,
                "tempo": 120.0
            },
            {
                "start_time": 43.83863636363636,
                "end_time": 43.92272727272727,
                "pitch": 41,
                "velocity": 40,
                "duration": 0.08409090909091077,
                "tempo": 120.0
            },
            {
                "start_time": 44.074999999999996,
                "end_time": 44.15681818181818,
                "pitch": 41,
                "velocity": 40,
                "duration": 0.08181818181818556,
                "tempo": 120.0
            },
            {
                "start_time": 44.175,
                "end_time": 44.393181818181816,
                "pitch": 41,
                "velocity": 40,
                "duration": 0.2181818181818187,
                "tempo": 120.0
            },
            {
                "start_time": 44.44318181818181,
                "end_time": 44.527272727272724,
                "pitch": 41,
                "velocity": 40,
                "duration": 0.08409090909091077,
                "tempo": 120.0
            },
            {
                "start_time": 44.543181818181814,
                "end_time": 44.66136363636363,
                "pitch": 41,
                "velocity": 40,
                "duration": 0.11818181818181728,
                "tempo": 120.0
            },
            {
                "start_time": 44.67727272727272,
                "end_time": 44.76590909090909,
                "pitch": 51,
                "velocity": 40,
                "duration": 0.08863636363636829,
                "tempo": 120.0
            },
            {
                "start_time": 44.78181818181818,
                "end_time": 44.90454545454545,
                "pitch": 41,
                "velocity": 40,
                "duration": 0.12272727272726769,
                "tempo": 120.0
            },
            {
                "start_time": 45.06136363636364,
                "end_time": 45.14772727272727,
                "pitch": 41,
                "velocity": 40,
                "duration": 0.08636363636363598,
                "tempo": 120.0
            },
            {
                "start_time": 45.16590909090909,
                "end_time": 45.38409090909091,
                "pitch": 41,
                "velocity": 40,
                "duration": 0.2181818181818187,
                "tempo": 120.0
            },
            {
                "start_time": 45.4,
                "end_time": 45.518181818181816,
                "pitch": 41,
                "velocity": 40,
                "duration": 0.11818181818181728,
                "tempo": 120.0
            },
            {
                "start_time": 45.53409090909091,
                "end_time": 45.61818181818182,
                "pitch": 41,
                "velocity": 40,
                "duration": 0.08409090909091077,
                "tempo": 120.0
            },
            {
                "start_time": 45.668181818181814,
                "end_time": 45.75681818181818,
                "pitch": 53,
                "velocity": 40,
                "duration": 0.08863636363636829,
                "tempo": 120.0
            },
            {
                "start_time": 45.775,
                "end_time": 45.9,
                "pitch": 41,
                "velocity": 40,
                "duration": 0.125,
                "tempo": 120.0
            },
            {
                "start_time": 46.02272727272727,
                "end_time": 46.24772727272727,
                "pitch": 41,
                "velocity": 40,
                "duration": 0.22499999999999432,
                "tempo": 120.0
            },
            {
                "start_time": 46.29772727272727,
                "end_time": 46.38181818181818,
                "pitch": 51,
                "velocity": 40,
                "duration": 0.08409090909091077,
                "tempo": 120.0
            },
            {
                "start_time": 46.4,
                "end_time": 46.51590909090909,
                "pitch": 41,
                "velocity": 40,
                "duration": 0.11590909090909207,
                "tempo": 120.0
            },
            {
                "start_time": 46.53409090909091,
                "end_time": 46.61590909090909,
                "pitch": 41,
                "velocity": 40,
                "duration": 0.08181818181818556,
                "tempo": 120.0
            },
            {
                "start_time": 46.63409090909091,
                "end_time": 46.75,
                "pitch": 48,
                "velocity": 40,
                "duration": 0.11590909090909207,
                "tempo": 120.0
            },
            {
                "start_time": 46.768181818181816,
                "end_time": 46.85227272727273,
                "pitch": 41,
                "velocity": 40,
                "duration": 0.08409090909091077,
                "tempo": 120.0
            },
            {
                "start_time": 46.902272727272724,
                "end_time": 46.986363636363635,
                "pitch": 39,
                "velocity": 40,
                "duration": 0.08409090909091077,
                "tempo": 120.0
            },
            {
                "start_time": 47.002272727272725,
                "end_time": 47.12045454545454,
                "pitch": 41,
                "velocity": 40,
                "duration": 0.11818181818181728,
                "tempo": 120.0
            },
            {
                "start_time": 47.13636363636363,
                "end_time": 47.36363636363636,
                "pitch": 41,
                "velocity": 40,
                "duration": 0.22727272727272663,
                "tempo": 120.0
            },
            {
                "start_time": 47.38181818181818,
                "end_time": 47.46818181818182,
                "pitch": 41,
                "velocity": 40,
                "duration": 0.08636363636363598,
                "tempo": 120.0
            },
            {
                "start_time": 47.52045454545454,
                "end_time": 47.60681818181818,
                "pitch": 41,
                "velocity": 40,
                "duration": 0.08636363636363598,
                "tempo": 120.0
            },
            {
                "start_time": 47.625,
                "end_time": 47.74090909090909,
                "pitch": 53,
                "velocity": 40,
                "duration": 0.11590909090909207,
                "tempo": 120.0
            },
            {
                "start_time": 47.75909090909091,
                "end_time": 47.84318181818182,
                "pitch": 41,
                "velocity": 40,
                "duration": 0.08409090909091077,
                "tempo": 120.0
            },
            {
                "start_time": 47.99318181818182,
                "end_time": 48.07727272727273,
                "pitch": 41,
                "velocity": 40,
                "duration": 0.08409090909091077,
                "tempo": 120.0
            },
            {
                "start_time": 48.127272727272725,
                "end_time": 48.35909090909091,
                "pitch": 41,
                "velocity": 40,
                "duration": 0.23181818181818414,
                "tempo": 120.0
            },
            {
                "start_time": 48.377272727272725,
                "end_time": 48.465909090909086,
                "pitch": 41,
                "velocity": 40,
                "duration": 0.08863636363636118,
                "tempo": 120.0
            },
            {
                "start_time": 48.48181818181818,
                "end_time": 48.60681818181818,
                "pitch": 41,
                "velocity": 40,
                "duration": 0.125,
                "tempo": 120.0
            },
            {
                "start_time": 48.62272727272727,
                "end_time": 48.70454545454545,
                "pitch": 51,
                "velocity": 40,
                "duration": 0.08181818181818556,
                "tempo": 120.0
            },
            {
                "start_time": 48.752272727272725,
                "end_time": 48.834090909090904,
                "pitch": 41,
                "velocity": 40,
                "duration": 0.08181818181817846,
                "tempo": 120.0
            },
            {
                "start_time": 48.98181818181818,
                "end_time": 49.06363636363636,
                "pitch": 41,
                "velocity": 40,
                "duration": 0.08181818181818556,
                "tempo": 120.0
            },
            {
                "start_time": 49.08181818181818,
                "end_time": 49.304545454545455,
                "pitch": 41,
                "velocity": 40,
                "duration": 0.22272727272727622,
                "tempo": 120.0
            },
            {
                "start_time": 49.35454545454545,
                "end_time": 49.44090909090909,
                "pitch": 41,
                "velocity": 40,
                "duration": 0.08636363636363598,
                "tempo": 120.0
            },
            {
                "start_time": 49.459090909090904,
                "end_time": 49.57954545454545,
                "pitch": 41,
                "velocity": 40,
                "duration": 0.12045454545454959,
                "tempo": 120.0
            },
            {
                "start_time": 49.595454545454544,
                "end_time": 49.684090909090905,
                "pitch": 63,
                "velocity": 40,
                "duration": 0.08863636363636118,
                "tempo": 120.0
            },
            {
                "start_time": 49.699999999999996,
                "end_time": 49.82272727272727,
                "pitch": 65,
                "velocity": 40,
                "duration": 0.1227272727272748,
                "tempo": 120.0
            },
            {
                "start_time": 49.840909090909086,
                "end_time": 49.92727272727272,
                "pitch": 41,
                "velocity": 40,
                "duration": 0.08636363636363598,
                "tempo": 120.0
            },
            {
                "start_time": 49.97954545454545,
                "end_time": 50.06590909090909,
                "pitch": 41,
                "velocity": 40,
                "duration": 0.08636363636363598,
                "tempo": 120.0
            },
            {
                "start_time": 50.084090909090904,
                "end_time": 50.199999999999996,
                "pitch": 61,
                "velocity": 40,
                "duration": 0.11590909090909207,
                "tempo": 120.0
            },
            {
                "start_time": 50.21818181818182,
                "end_time": 50.30227272727272,
                "pitch": 63,
                "velocity": 40,
                "duration": 0.08409090909090366,
                "tempo": 120.0
            },
            {
                "start_time": 50.31818181818181,
                "end_time": 50.43636363636364,
                "pitch": 41,
                "velocity": 40,
                "duration": 0.11818181818182438,
                "tempo": 120.0
            },
            {
                "start_time": 50.45227272727273,
                "end_time": 50.53636363636363,
                "pitch": 41,
                "velocity": 40,
                "duration": 0.08409090909090366,
                "tempo": 120.0
            },
            {
                "start_time": 50.586363636363636,
                "end_time": 50.675,
                "pitch": 60,
                "velocity": 40,
                "duration": 0.08863636363636118,
                "tempo": 120.0
            },
            {
                "start_time": 50.69318181818181,
                "end_time": 50.81818181818181,
                "pitch": 61,
                "velocity": 40,
                "duration": 0.125,
                "tempo": 120.0
            },
            {
                "start_time": 50.836363636363636,
                "end_time": 51.06590909090909,
                "pitch": 39,
                "velocity": 40,
                "duration": 0.22954545454545183,
                "tempo": 120.0
            },
            {
                "start_time": 51.08181818181818,
                "end_time": 53.99318181818182,
                "pitch": 41,
                "velocity": 40,
                "duration": 2.911363636363639,
                "tempo": 120.0
            },
            {
                "start_time": 54.51363636363636,
                "end_time": 54.845454545454544,
                "pitch": 39,
                "velocity": 51,
                "duration": 0.33181818181818556,
                "tempo": 120.0
            },
            {
                "start_time": 54.89772727272727,
                "end_time": 57.90909090909091,
                "pitch": 41,
                "velocity": 51,
                "duration": 3.011363636363633,
                "tempo": 120.0
            },
            {
                "start_time": 58.45454545454545,
                "end_time": 58.79772727272727,
                "pitch": 32,
                "velocity": 51,
                "duration": 0.3431818181818187,
                "tempo": 120.0
            },
            {
                "start_time": 58.81590909090909,
                "end_time": 61.865909090909085,
                "pitch": 34,
                "velocity": 51,
                "duration": 3.049999999999997,
                "tempo": 120.0
            },
            {
                "start_time": 62.37272727272727,
                "end_time": 62.72272727272727,
                "pitch": 32,
                "velocity": 51,
                "duration": 0.3500000000000014,
                "tempo": 120.0
            },
            {
                "start_time": 62.740909090909085,
                "end_time": 65.81363636363636,
                "pitch": 34,
                "velocity": 51,
                "duration": 3.0727272727272776,
                "tempo": 120.0
            },
            {
                "start_time": 66.28863636363636,
                "end_time": 66.64772727272727,
                "pitch": 39,
                "velocity": 51,
                "duration": 0.35909090909090935,
                "tempo": 120.0
            },
            {
                "start_time": 66.66590909090908,
                "end_time": 69.72954545454544,
                "pitch": 41,
                "velocity": 51,
                "duration": 3.0636363636363626,
                "tempo": 120.0
            },
            {
                "start_time": 70.25,
                "end_time": 70.57954545454545,
                "pitch": 39,
                "velocity": 51,
                "duration": 0.32954545454545325,
                "tempo": 120.0
            },
            {
                "start_time": 70.59772727272727,
                "end_time": 73.6590909090909,
                "pitch": 41,
                "velocity": 51,
                "duration": 3.0613636363636374,
                "tempo": 120.0
            },
            {
                "start_time": 74.17954545454545,
                "end_time": 74.51136363636363,
                "pitch": 32,
                "velocity": 51,
                "duration": 0.33181818181817846,
                "tempo": 120.0
            },
            {
                "start_time": 74.56363636363636,
                "end_time": 77.57954545454545,
                "pitch": 34,
                "velocity": 51,
                "duration": 3.0159090909090907,
                "tempo": 120.0
            },
            {
                "start_time": 78.125,
                "end_time": 78.46818181818182,
                "pitch": 32,
                "velocity": 51,
                "duration": 0.3431818181818187,
                "tempo": 120.0
            },
            {
                "start_time": 78.48409090909091,
                "end_time": 81.54090909090908,
                "pitch": 34,
                "velocity": 51,
                "duration": 3.0568181818181728,
                "tempo": 120.0
            },
            {
                "start_time": 82.04545454545455,
                "end_time": 82.39772727272727,
                "pitch": 34,
                "velocity": 51,
                "duration": 0.3522727272727195,
                "tempo": 120.0
            },
            {
                "start_time": 82.41363636363636,
                "end_time": 82.77499999999999,
                "pitch": 48,
                "velocity": 51,
                "duration": 0.36136363636363455,
                "tempo": 120.0
            },
            {
                "start_time": 82.79318181818181,
                "end_time": 82.87954545454545,
                "pitch": 48,
                "velocity": 51,
                "duration": 0.08636363636364308,
                "tempo": 120.0
            },
            {
                "start_time": 82.89772727272727,
                "end_time": 83.02045454545454,
                "pitch": 48,
                "velocity": 51,
                "duration": 0.1227272727272748,
                "tempo": 120.0
            },
            {
                "start_time": 83.03636363636363,
                "end_time": 83.12272727272727,
                "pitch": 60,
                "velocity": 51,
                "duration": 0.08636363636364308,
                "tempo": 120.0
            },
            {
                "start_time": 83.175,
                "end_time": 83.2590909090909,
                "pitch": 48,
                "velocity": 51,
                "duration": 0.08409090909090366,
                "tempo": 120.0
            },
            {
                "start_time": 83.41363636363636,
                "end_time": 83.5,
                "pitch": 48,
                "velocity": 51,
                "duration": 0.08636363636364308,
                "tempo": 120.0
            },
            {
                "start_time": 83.51590909090909,
                "end_time": 83.6340909090909,
                "pitch": 48,
                "velocity": 51,
                "duration": 0.11818181818181017,
                "tempo": 120.0
            },
            {
                "start_time": 83.64999999999999,
                "end_time": 83.73409090909091,
                "pitch": 48,
                "velocity": 51,
                "duration": 0.08409090909091788,
                "tempo": 120.0
            },
            {
                "start_time": 83.7840909090909,
                "end_time": 83.86818181818181,
                "pitch": 48,
                "velocity": 51,
                "duration": 0.08409090909090366,
                "tempo": 120.0
            },
            {
                "start_time": 83.88636363636363,
                "end_time": 84.00227272727273,
                "pitch": 48,
                "velocity": 51,
                "duration": 0.11590909090909918,
                "tempo": 120.0
            },
            {
                "start_time": 84.02045454545454,
                "end_time": 84.10681818181818,
                "pitch": 60,
                "velocity": 51,
                "duration": 0.08636363636364308,
                "tempo": 120.0
            },
            {
                "start_time": 84.125,
                "end_time": 84.24772727272727,
                "pitch": 48,
                "velocity": 51,
                "duration": 0.1227272727272748,
                "tempo": 120.0
            },
            {
                "start_time": 84.40454545454546,
                "end_time": 84.49090909090908,
                "pitch": 48,
                "velocity": 51,
                "duration": 0.08636363636362887,
                "tempo": 120.0
            },
            {
                "start_time": 84.50681818181818,
                "end_time": 84.725,
                "pitch": 46,
                "velocity": 51,
                "duration": 0.2181818181818187,
                "tempo": 120.0
            },
            {
                "start_time": 84.74318181818181,
                "end_time": 84.85909090909091,
                "pitch": 46,
                "velocity": 51,
                "duration": 0.11590909090909918,
                "tempo": 120.0
            },
            {
                "start_time": 84.87727272727273,
                "end_time": 84.9590909090909,
                "pitch": 46,
                "velocity": 51,
                "duration": 0.08181818181817846,
                "tempo": 120.0
            },
            {
                "start_time": 85.01136363636363,
                "end_time": 85.09772727272727,
                "pitch": 58,
                "velocity": 51,
                "duration": 0.08636363636364308,
                "tempo": 120.0
            },
            {
                "start_time": 85.11590909090908,
                "end_time": 85.23863636363636,
                "pitch": 46,
                "velocity": 51,
                "duration": 0.1227272727272748,
                "tempo": 120.0
            },
            {
                "start_time": 85.35909090909091,
                "end_time": 85.48181818181818,
                "pitch": 46,
                "velocity": 51,
                "duration": 0.1227272727272748,
                "tempo": 120.0
            },
            {
                "start_time": 85.49772727272727,
                "end_time": 85.58181818181818,
                "pitch": 44,
                "velocity": 51,
                "duration": 0.08409090909090366,
                "tempo": 120.0
            },
            {
                "start_time": 85.63181818181818,
                "end_time": 85.7159090909091,
                "pitch": 56,
                "velocity": 51,
                "duration": 0.08409090909091788,
                "tempo": 120.0
            },
            {
                "start_time": 85.73409090909091,
                "end_time": 85.85,
                "pitch": 44,
                "velocity": 51,
                "duration": 0.11590909090908497,
                "tempo": 120.0
            },
            {
                "start_time": 85.86818181818181,
                "end_time": 85.95,
                "pitch": 44,
                "velocity": 51,
                "duration": 0.08181818181819267,
                "tempo": 120.0
            },
            {
                "start_time": 85.96818181818182,
                "end_time": 86.0840909090909,
                "pitch": 56,
                "velocity": 51,
                "duration": 0.11590909090908497,
                "tempo": 120.0
            },
            {
                "start_time": 86.10227272727272,
                "end_time": 86.18636363636364,
                "pitch": 44,
                "velocity": 51,
                "duration": 0.08409090909091788,
                "tempo": 120.0
            },
            {
                "start_time": 86.33636363636363,
                "end_time": 86.45454545454545,
                "pitch": 44,
                "velocity": 51,
                "duration": 0.11818181818182438,
                "tempo": 120.0
            },
            {
                "start_time": 86.47045454545454,
                "end_time": 86.70227272727273,
                "pitch": 41,
                "velocity": 51,
                "duration": 0.23181818181818414,
                "tempo": 120.0
            },
            {
                "start_time": 86.72045454545454,
                "end_time": 86.8090909090909,
                "pitch": 41,
                "velocity": 51,
                "duration": 0.08863636363635408,
                "tempo": 120.0
            },
            {
                "start_time": 86.86136363636363,
                "end_time": 86.95,
                "pitch": 41,
                "velocity": 51,
                "duration": 0.08863636363636829,
                "tempo": 120.0
            },
            {
                "start_time": 86.9659090909091,
                "end_time": 87.0840909090909,
                "pitch": 44,
                "velocity": 51,
                "duration": 0.11818181818181017,
                "tempo": 120.0
            },
            {
                "start_time": 87.1,
                "end_time": 87.1840909090909,
                "pitch": 41,
                "velocity": 51,
                "duration": 0.08409090909090366,
                "tempo": 120.0
            },
            {
                "start_time": 87.33636363636363,
                "end_time": 87.41818181818181,
                "pitch": 41,
                "velocity": 51,
                "duration": 0.08181818181817846,
                "tempo": 120.0
            },
            {
                "start_time": 87.47045454545454,
                "end_time": 87.55681818181817,
                "pitch": 41,
                "velocity": 51,
                "duration": 0.08636363636362887,
                "tempo": 120.0
            },
            {
                "start_time": 87.575,
                "end_time": 87.69772727272726,
                "pitch": 61,
                "velocity": 51,
                "duration": 0.12272727272726058,
                "tempo": 120.0
            },
            {
                "start_time": 87.71363636363635,
                "end_time": 87.80227272727272,
                "pitch": 41,
                "velocity": 51,
                "duration": 0.08863636363636829,
                "tempo": 120.0
            },
            {
                "start_time": 87.81818181818181,
                "end_time": 87.94090909090909,
                "pitch": 41,
                "velocity": 51,
                "duration": 0.1227272727272748,
                "tempo": 120.0
            },
            {
                "start_time": 87.95681818181818,
                "end_time": 88.04090909090908,
                "pitch": 46,
                "velocity": 51,
                "duration": 0.08409090909090366,
                "tempo": 120.0
            },
            {
                "start_time": 88.0909090909091,
                "end_time": 88.175,
                "pitch": 41,
                "velocity": 51,
                "duration": 0.08409090909090366,
                "tempo": 120.0
            },
            {
                "start_time": 88.32727272727273,
                "end_time": 88.4090909090909,
                "pitch": 41,
                "velocity": 51,
                "duration": 0.08181818181817846,
                "tempo": 120.0
            },
            {
                "start_time": 88.42727272727272,
                "end_time": 88.64999999999999,
                "pitch": 41,
                "velocity": 51,
                "duration": 0.2227272727272691,
                "tempo": 120.0
            },
            {
                "start_time": 88.70227272727273,
                "end_time": 88.78636363636363,
                "pitch": 41,
                "velocity": 51,
                "duration": 0.08409090909090366,
                "tempo": 120.0
            },
            {
                "start_time": 88.80454545454545,
                "end_time": 88.925,
                "pitch": 41,
                "velocity": 51,
                "duration": 0.12045454545454959,
                "tempo": 120.0
            },
            {
                "start_time": 88.94090909090909,
                "end_time": 89.02954545454546,
                "pitch": 48,
                "velocity": 51,
                "duration": 0.08863636363636829,
                "tempo": 120.0
            },
            {
                "start_time": 89.04772727272727,
                "end_time": 89.16818181818181,
                "pitch": 41,
                "velocity": 51,
                "duration": 0.12045454545453538,
                "tempo": 120.0
            },
            {
                "start_time": 89.32499999999999,
                "end_time": 89.41363636363636,
                "pitch": 41,
                "velocity": 51,
                "duration": 0.08863636363636829,
                "tempo": 120.0
            },
            {
                "start_time": 89.56363636363636,
                "end_time": 89.64772727272727,
                "pitch": 41,
                "velocity": 51,
                "duration": 0.08409090909090366,
                "tempo": 120.0
            },
            {
                "start_time": 89.66363636363636,
                "end_time": 89.78181818181818,
                "pitch": 41,
                "velocity": 51,
                "duration": 0.11818181818182438,
                "tempo": 120.0
            },
            {
                "start_time": 89.79772727272727,
                "end_time": 89.88181818181818,
                "pitch": 41,
                "velocity": 51,
                "duration": 0.08409090909090366,
                "tempo": 120.0
            },
            {
                "start_time": 89.9340909090909,
                "end_time": 90.02045454545454,
                "pitch": 51,
                "velocity": 51,
                "duration": 0.08636363636364308,
                "tempo": 120.0
            },
            {
                "start_time": 90.03863636363636,
                "end_time": 90.40454545454546,
                "pitch": 53,
                "velocity": 51,
                "duration": 0.3659090909090992,
                "tempo": 120.0
            },
            {
                "start_time": 90.42045454545455,
                "end_time": 90.63863636363637,
                "pitch": 48,
                "velocity": 51,
                "duration": 0.2181818181818187,
                "tempo": 120.0
            },
            {
                "start_time": 90.65454545454546,
                "end_time": 90.77272727272727,
                "pitch": 48,
                "velocity": 51,
                "duration": 0.11818181818181017,
                "tempo": 120.0
            },
            {
                "start_time": 90.78863636363636,
                "end_time": 90.87272727272727,
                "pitch": 48,
                "velocity": 51,
                "duration": 0.08409090909091788,
                "tempo": 120.0
            },
            {
                "start_time": 90.88863636363637,
                "end_time": 91.00681818181818,
                "pitch": 60,
                "velocity": 51,
                "duration": 0.11818181818181017,
                "tempo": 120.0
            },
            {
                "start_time": 91.02272727272727,
                "end_time": 91.10681818181818,
                "pitch": 48,
                "velocity": 51,
                "duration": 0.08409090909091788,
                "tempo": 120.0
            },
            {
                "start_time": 91.2590909090909,
                "end_time": 91.375,
                "pitch": 48,
                "velocity": 51,
                "duration": 0.11590909090909918,
                "tempo": 120.0
            },
            {
                "start_time": 91.39318181818182,
                "end_time": 91.48181818181818,
                "pitch": 48,
                "velocity": 51,
                "duration": 0.08863636363636829,
                "tempo": 120.0
            },
            {
                "start_time": 91.5,
                "end_time": 91.62272727272727,
                "pitch": 48,
                "velocity": 51,
                "duration": 0.1227272727272748,
                "tempo": 120.0
            },
            {
                "start_time": 91.64090909090909,
                "end_time": 91.72954545454544,
                "pitch": 48,
                "velocity": 51,
                "duration": 0.08863636363635408,
                "tempo": 120.0
            },
            {
                "start_time": 91.7840909090909,
                "end_time": 91.87272727272727,
                "pitch": 48,
                "velocity": 51,
                "duration": 0.08863636363636829,
                "tempo": 120.0
            },
            {
                "start_time": 91.88863636363637,
                "end_time": 92.00681818181818,
                "pitch": 60,
                "velocity": 51,
                "duration": 0.11818181818181017,
                "tempo": 120.0
            },
            {
                "start_time": 92.02272727272727,
                "end_time": 92.10681818181818,
                "pitch": 48,
                "velocity": 51,
                "duration": 0.08409090909091788,
                "tempo": 120.0
            },
            {
                "start_time": 92.25681818181818,
                "end_time": 92.3409090909091,
                "pitch": 48,
                "velocity": 51,
                "duration": 0.08409090909091788,
                "tempo": 120.0
            },
            {
                "start_time": 92.39318181818182,
                "end_time": 92.61818181818181,
                "pitch": 46,
                "velocity": 51,
                "duration": 0.22499999999999432,
                "tempo": 120.0
            },
            {
                "start_time": 92.63636363636363,
                "end_time": 92.72272727272727,
                "pitch": 46,
                "velocity": 51,
                "duration": 0.08636363636364308,
                "tempo": 120.0
            },
            {
                "start_time": 92.74090909090908,
                "end_time": 92.86363636363636,
                "pitch": 46,
                "velocity": 51,
                "duration": 0.1227272727272748,
                "tempo": 120.0
            },
            {
                "start_time": 92.87954545454545,
                "end_time": 92.9659090909091,
                "pitch": 58,
                "velocity": 51,
                "duration": 0.08636363636364308,
                "tempo": 120.0
            },
            {
                "start_time": 93.01818181818182,
                "end_time": 93.10227272727272,
                "pitch": 46,
                "velocity": 51,
                "duration": 0.08409090909090366,
                "tempo": 120.0
            },
            {
                "start_time": 93.25681818181818,
                "end_time": 93.34318181818182,
                "pitch": 46,
                "velocity": 51,
                "duration": 0.08636363636364308,
                "tempo": 120.0
            },
            {
                "start_time": 93.36136363636363,
                "end_time": 93.47727272727272,
                "pitch": 44,
                "velocity": 51,
                "duration": 0.11590909090908497,
                "tempo": 120.0
            },
            {
                "start_time": 93.49545454545454,
                "end_time": 93.57727272727273,
                "pitch": 56,
                "velocity": 51,
                "duration": 0.08181818181819267,
                "tempo": 120.0
            },
            {
                "start_time": 93.62727272727273,
                "end_time": 93.71136363636363,
                "pitch": 44,
                "velocity": 51,
                "duration": 0.08409090909090366,
                "tempo": 120.0
            },
            {
                "start_time": 93.72954545454544,
                "end_time": 93.84545454545454,
                "pitch": 44,
                "velocity": 51,
                "duration": 0.11590909090909918,
                "tempo": 120.0
            },
            {
                "start_time": 93.86363636363636,
                "end_time": 93.94999999999999,
                "pitch": 56,
                "velocity": 51,
                "duration": 0.08636363636362887,
                "tempo": 120.0
            },
            {
                "start_time": 93.96818181818182,
                "end_time": 94.09090909090908,
                "pitch": 44,
                "velocity": 51,
                "duration": 0.12272727272726058,
                "tempo": 120.0
            },
            {
                "start_time": 94.24772727272727,
                "end_time": 94.3340909090909,
                "pitch": 44,
                "velocity": 51,
                "duration": 0.08636363636362887,
                "tempo": 120.0
            },
            {
                "start_time": 94.35227272727272,
                "end_time": 94.56818181818181,
                "pitch": 41,
                "velocity": 51,
                "duration": 0.2159090909090935,
                "tempo": 120.0
            },
            {
                "start_time": 94.58636363636363,
                "end_time": 94.70227272727273,
                "pitch": 41,
                "velocity": 51,
                "duration": 0.11590909090909918,
                "tempo": 120.0
            },
            {
                "start_time": 94.72045454545454,
                "end_time": 94.80454545454545,
                "pitch": 41,
                "velocity": 51,
                "duration": 0.08409090909090366,
                "tempo": 120.0
            },
            {
                "start_time": 94.85454545454544,
                "end_time": 94.94318181818181,
                "pitch": 44,
                "velocity": 51,
                "duration": 0.08863636363636829,
                "tempo": 120.0
            },
            {
                "start_time": 94.9590909090909,
                "end_time": 95.08181818181818,
                "pitch": 41,
                "velocity": 51,
                "duration": 0.1227272727272748,
                "tempo": 120.0
            },
            {
                "start_time": 95.20454545454545,
                "end_time": 95.32499999999999,
                "pitch": 41,
                "velocity": 51,
                "duration": 0.12045454545453538,
                "tempo": 120.0
            },
            {
                "start_time": 95.34318181818182,
                "end_time": 95.42954545454545,
                "pitch": 41,
                "velocity": 51,
                "duration": 0.08636363636362887,
                "tempo": 120.0
            },
            {
                "start_time": 95.47954545454544,
                "end_time": 95.56590909090909,
                "pitch": 61,
                "velocity": 51,
                "duration": 0.08636363636364308,
                "tempo": 120.0
            },
            {
                "start_time": 95.5840909090909,
                "end_time": 95.70227272727273,
                "pitch": 41,
                "velocity": 51,
                "duration": 0.11818181818182438,
                "tempo": 120.0
            },
            {
                "start_time": 95.72045454545454,
                "end_time": 95.80681818181817,
                "pitch": 41,
                "velocity": 51,
                "duration": 0.08636363636362887,
                "tempo": 120.0
            },
            {
                "start_time": 95.82272727272726,
                "end_time": 95.93636363636364,
                "pitch": 46,
                "velocity": 51,
                "duration": 0.11363636363637397,
                "tempo": 120.0
            },
            {
                "start_time": 95.95227272727273,
                "end_time": 96.0340909090909,
                "pitch": 41,
                "velocity": 51,
                "duration": 0.08181818181817846,
                "tempo": 120.0
            },
            {
                "start_time": 96.18181818181817,
                "end_time": 96.29772727272727,
                "pitch": 41,
                "velocity": 51,
                "duration": 0.11590909090909918,
                "tempo": 120.0
            },
            {
                "start_time": 96.31590909090909,
                "end_time": 96.54545454545455,
                "pitch": 41,
                "velocity": 51,
                "duration": 0.22954545454545894,
                "tempo": 120.0
            },
            {
                "start_time": 96.56363636363636,
                "end_time": 96.65227272727272,
                "pitch": 41,
                "velocity": 51,
                "duration": 0.08863636363635408,
                "tempo": 120.0
            },
            {
                "start_time": 96.70454545454545,
                "end_time": 96.79318181818181,
                "pitch": 41,
                "velocity": 51,
                "duration": 0.08863636363635408,
                "tempo": 120.0
            },
            {
                "start_time": 96.81136363636364,
                "end_time": 96.92727272727272,
                "pitch": 48,
                "velocity": 51,
                "duration": 0.11590909090908497,
                "tempo": 120.0
            },
            {
                "start_time": 96.94318181818181,
                "end_time": 97.02727272727272,
                "pitch": 41,
                "velocity": 51,
                "duration": 0.08409090909090366,
                "tempo": 120.0
            },
            {
                "start_time": 97.17954545454545,
                "end_time": 97.26363636363637,
                "pitch": 41,
                "velocity": 51,
                "duration": 0.08409090909091788,
                "tempo": 120.0
            },
            {
                "start_time": 97.41818181818181,
                "end_time": 97.54090909090908,
                "pitch": 41,
                "velocity": 51,
                "duration": 0.1227272727272748,
                "tempo": 120.0
            },
            {
                "start_time": 97.5590909090909,
                "end_time": 97.64545454545454,
                "pitch": 41,
                "velocity": 51,
                "duration": 0.08636363636364308,
                "tempo": 120.0
            },
            {
                "start_time": 97.66363636363636,
                "end_time": 97.7840909090909,
                "pitch": 41,
                "velocity": 51,
                "duration": 0.12045454545454959,
                "tempo": 120.0
            },
            {
                "start_time": 97.80227272727272,
                "end_time": 97.8840909090909,
                "pitch": 51,
                "velocity": 51,
                "duration": 0.08181818181817846,
                "tempo": 120.0
            },
            {
                "start_time": 97.9340909090909,
                "end_time": 98.25454545454545,
                "pitch": 53,
                "velocity": 51,
                "duration": 0.32045454545455243,
                "tempo": 120.0
            },
            {
                "start_time": 98.27045454545454,
                "end_time": 98.49090909090908,
                "pitch": 41,
                "velocity": 51,
                "duration": 0.2204545454545439,
                "tempo": 120.0
            },
            {
                "start_time": 98.54318181818181,
                "end_time": 98.62727272727273,
                "pitch": 41,
                "velocity": 40,
                "duration": 0.08409090909091788,
                "tempo": 120.0
            },
            {
                "start_time": 98.64545454545454,
                "end_time": 98.76363636363637,
                "pitch": 41,
                "velocity": 40,
                "duration": 0.11818181818182438,
                "tempo": 120.0
            },
            {
                "start_time": 98.78181818181818,
                "end_time": 98.86818181818181,
                "pitch": 53,
                "velocity": 40,
                "duration": 0.08636363636362887,
                "tempo": 120.0
            },
            {
                "start_time": 98.88636363636363,
                "end_time": 99.0090909090909,
                "pitch": 41,
                "velocity": 40,
                "duration": 0.1227272727272748,
                "tempo": 120.0
            },
            {
                "start_time": 99.16590909090908,
                "end_time": 99.25227272727273,
                "pitch": 41,
                "velocity": 40,
                "duration": 0.08636363636364308,
                "tempo": 120.0
            },
            {
                "start_time": 99.26818181818182,
                "end_time": 99.48636363636363,
                "pitch": 41,
                "velocity": 40,
                "duration": 0.2181818181818187,
                "tempo": 120.0
            },
            {
                "start_time": 99.50454545454545,
                "end_time": 99.62045454545454,
                "pitch": 41,
                "velocity": 40,
                "duration": 0.11590909090908497,
                "tempo": 120.0
            },
            {
                "start_time": 99.63863636363637,
                "end_time": 99.72045454545454,
                "pitch": 41,
                "velocity": 40,
                "duration": 0.08181818181817846,
                "tempo": 120.0
            },
            {
                "start_time": 99.77272727272727,
                "end_time": 99.86136363636363,
                "pitch": 51,
                "velocity": 40,
                "duration": 0.08863636363636829,
                "tempo": 120.0
            },
            {
                "start_time": 99.87954545454545,
                "end_time": 100.00227272727273,
                "pitch": 41,
                "velocity": 40,
                "duration": 0.1227272727272748,
                "tempo": 120.0
            },
            {
                "start_time": 100.12727272727273,
                "end_time": 100.25,
                "pitch": 41,
                "velocity": 40,
                "duration": 0.1227272727272748,
                "tempo": 120.0
            }
        ],
        "Lead 2 (sawtooth)": [
            {
                "start_time": 2.7386363636363633,
                "end_time": 5.806818181818182,
                "pitch": 66,
                "velocity": 64,
                "duration": 3.0681818181818183,
                "tempo": 120.0
            },
            {
                "start_time": 5.806818181818182,
                "end_time": 17.631818181818183,
                "pitch": 0,
                "velocity": 64,
                "duration": 11.825000000000001,
                "tempo": 120.0
            }
        ],
        "Clarinet": [
            {
                "start_time": 2.9818181818181815,
                "end_time": 3.0522727272727272,
                "pitch": 66,
                "velocity": 40,
                "duration": 0.07045454545454577,
                "tempo": 120.0
            },
            {
                "start_time": 3.0522727272727272,
                "end_time": 3.120454545454545,
                "pitch": 63,
                "velocity": 40,
                "duration": 0.0681818181818179,
                "tempo": 120.0
            },
            {
                "start_time": 3.5999999999999996,
                "end_time": 3.868181818181818,
                "pitch": 60,
                "velocity": 40,
                "duration": 0.2681818181818185,
                "tempo": 120.0
            }
        ],
        "Church Organ": [
            {
                "start_time": 21.577272727272724,
                "end_time": 23.49090909090909,
                "pitch": 67,
                "velocity": 64,
                "duration": 1.913636363636364,
                "tempo": 120.0
            },
            {
                "start_time": 23.54090909090909,
                "end_time": 25.236363636363635,
                "pitch": 65,
                "velocity": 64,
                "duration": 1.6954545454545453,
                "tempo": 120.0
            },
            {
                "start_time": 25.252272727272725,
                "end_time": 29.395454545454545,
                "pitch": 75,
                "velocity": 64,
                "duration": 4.143181818181819,
                "tempo": 120.0
            },
            {
                "start_time": 29.411363636363635,
                "end_time": 31.39772727272727,
                "pitch": 67,
                "velocity": 64,
                "duration": 1.9863636363636346,
                "tempo": 120.0
            },
            {
                "start_time": 31.41363636363636,
                "end_time": 33.090909090909086,
                "pitch": 65,
                "velocity": 64,
                "duration": 1.677272727272726,
                "tempo": 120.0
            },
            {
                "start_time": 33.10909090909091,
                "end_time": 37.28409090909091,
                "pitch": 75,
                "velocity": 64,
                "duration": 4.174999999999997,
                "tempo": 120.0
            },
            {
                "start_time": 37.3,
                "end_time": 39.22727272727273,
                "pitch": 67,
                "velocity": 64,
                "duration": 1.9272727272727295,
                "tempo": 120.0
            },
            {
                "start_time": 39.24545454545454,
                "end_time": 40.98181818181818,
                "pitch": 65,
                "velocity": 64,
                "duration": 1.7363636363636346,
                "tempo": 120.0
            },
            {
                "start_time": 41.0,
                "end_time": 45.14772727272727,
                "pitch": 75,
                "velocity": 64,
                "duration": 4.147727272727273,
                "tempo": 120.0
            },
            {
                "start_time": 45.16590909090909,
                "end_time": 47.12045454545454,
                "pitch": 67,
                "velocity": 64,
                "duration": 1.9545454545454533,
                "tempo": 120.0
            },
            {
                "start_time": 47.13636363636363,
                "end_time": 48.834090909090904,
                "pitch": 65,
                "velocity": 64,
                "duration": 1.6977272727272705,
                "tempo": 120.0
            },
            {
                "start_time": 48.85227272727273,
                "end_time": 83.39772727272727,
                "pitch": 75,
                "velocity": 64,
                "duration": 34.54545454545454,
                "tempo": 120.0
            },
            {
                "start_time": 83.41363636363636,
                "end_time": 83.5,
                "pitch": 84,
                "velocity": 64,
                "duration": 0.08636363636364308,
                "tempo": 120.0
            },
            {
                "start_time": 83.7840909090909,
                "end_time": 83.86818181818181,
                "pitch": 84,
                "velocity": 64,
                "duration": 0.08409090909090366,
                "tempo": 120.0
            },
            {
                "start_time": 83.88636363636363,
                "end_time": 84.00227272727273,
                "pitch": 84,
                "velocity": 64,
                "duration": 0.11590909090909918,
                "tempo": 120.0
            },
            {
                "start_time": 84.50681818181818,
                "end_time": 85.23863636363636,
                "pitch": 82,
                "velocity": 64,
                "duration": 0.7318181818181841,
                "tempo": 120.0
            },
            {
                "start_time": 85.49772727272727,
                "end_time": 85.95,
                "pitch": 80,
                "velocity": 64,
                "duration": 0.45227272727272805,
                "tempo": 120.0
            },
            {
                "start_time": 85.96818181818182,
                "end_time": 86.18636363636364,
                "pitch": 80,
                "velocity": 64,
                "duration": 0.2181818181818187,
                "tempo": 120.0
            },
            {
                "start_time": 86.47045454545454,
                "end_time": 87.41818181818181,
                "pitch": 77,
                "velocity": 64,
                "duration": 0.9477272727272634,
                "tempo": 120.0
            },
            {
                "start_time": 88.0909090909091,
                "end_time": 88.4090909090909,
                "pitch": 82,
                "velocity": 64,
                "duration": 0.318181818181813,
                "tempo": 120.0
            },
            {
                "start_time": 89.04772727272727,
                "end_time": 89.41363636363636,
                "pitch": 84,
                "velocity": 64,
                "duration": 0.36590909090908497,
                "tempo": 120.0
            },
            {
                "start_time": 89.9340909090909,
                "end_time": 90.02045454545454,
                "pitch": 87,
                "velocity": 64,
                "duration": 0.08636363636364308,
                "tempo": 120.0
            },
            {
                "start_time": 90.03863636363636,
                "end_time": 90.40454545454546,
                "pitch": 89,
                "velocity": 64,
                "duration": 0.3659090909090992,
                "tempo": 120.0
            },
            {
                "start_time": 90.42045454545455,
                "end_time": 91.24090909090908,
                "pitch": 84,
                "velocity": 64,
                "duration": 0.8204545454545382,
                "tempo": 120.0
            },
            {
                "start_time": 91.2590909090909,
                "end_time": 91.375,
                "pitch": 84,
                "velocity": 64,
                "duration": 0.11590909090909918,
                "tempo": 120.0
            },
            {
                "start_time": 91.64090909090909,
                "end_time": 91.72954545454544,
                "pitch": 84,
                "velocity": 64,
                "duration": 0.08863636363635408,
                "tempo": 120.0
            },
            {
                "start_time": 91.7840909090909,
                "end_time": 91.87272727272727,
                "pitch": 84,
                "velocity": 64,
                "duration": 0.08863636363636829,
                "tempo": 120.0
            },
            {
                "start_time": 92.39318181818182,
                "end_time": 93.10227272727272,
                "pitch": 82,
                "velocity": 64,
                "duration": 0.7090909090909037,
                "tempo": 120.0
            },
            {
                "start_time": 93.36136363636363,
                "end_time": 93.84545454545454,
                "pitch": 80,
                "velocity": 64,
                "duration": 0.48409090909090935,
                "tempo": 120.0
            },
            {
                "start_time": 93.86363636363636,
                "end_time": 94.09090909090908,
                "pitch": 80,
                "velocity": 64,
                "duration": 0.22727272727271952,
                "tempo": 120.0
            },
            {
                "start_time": 94.35227272727272,
                "end_time": 95.32499999999999,
                "pitch": 77,
                "velocity": 64,
                "duration": 0.9727272727272691,
                "tempo": 120.0
            },
            {
                "start_time": 95.95227272727273,
                "end_time": 96.29772727272727,
                "pitch": 82,
                "velocity": 64,
                "duration": 0.3454545454545439,
                "tempo": 120.0
            },
            {
                "start_time": 96.94318181818181,
                "end_time": 97.26363636363637,
                "pitch": 84,
                "velocity": 64,
                "duration": 0.32045454545455243,
                "tempo": 120.0
            },
            {
                "start_time": 97.80227272727272,
                "end_time": 97.8840909090909,
                "pitch": 87,
                "velocity": 64,
                "duration": 0.08181818181817846,
                "tempo": 120.0
            },
            {
                "start_time": 97.9340909090909,
                "end_time": 98.25454545454545,
                "pitch": 89,
                "velocity": 64,
                "duration": 0.32045454545455243,
                "tempo": 120.0
            }
        ],
        "Violin": [
            {
                "start_time": 0.08409090909090909,
                "end_time": 1.9522727272727272,
                "pitch": 53,
                "velocity": 40,
                "duration": 1.8681818181818182,
                "tempo": 120.0
            },
            {
                "start_time": 1.968181818181818,
                "end_time": 3.9204545454545454,
                "pitch": 53,
                "velocity": 40,
                "duration": 1.9522727272727274,
                "tempo": 120.0
            },
            {
                "start_time": 3.9386363636363635,
                "end_time": 21.625,
                "pitch": 53,
                "velocity": 40,
                "duration": 17.686363636363637,
                "tempo": 120.0
            },
            {
                "start_time": 21.64090909090909,
                "end_time": 23.59318181818182,
                "pitch": 74,
                "velocity": 40,
                "duration": 1.952272727272728,
                "tempo": 120.0
            },
            {
                "start_time": 23.611363636363635,
                "end_time": 25.547727272727272,
                "pitch": 72,
                "velocity": 40,
                "duration": 1.9363636363636374,
                "tempo": 120.0
            },
            {
                "start_time": 25.597727272727273,
                "end_time": 27.520454545454545,
                "pitch": 65,
                "velocity": 40,
                "duration": 1.922727272727272,
                "tempo": 120.0
            },
            {
                "start_time": 27.538636363636364,
                "end_time": 29.49772727272727,
                "pitch": 75,
                "velocity": 40,
                "duration": 1.9590909090909072,
                "tempo": 120.0
            },
            {
                "start_time": 29.51590909090909,
                "end_time": 31.46363636363636,
                "pitch": 74,
                "velocity": 40,
                "duration": 1.9477272727272705,
                "tempo": 120.0
            },
            {
                "start_time": 31.48181818181818,
                "end_time": 33.43181818181818,
                "pitch": 72,
                "velocity": 40,
                "duration": 1.9499999999999993,
                "tempo": 120.0
            },
            {
                "start_time": 33.44772727272727,
                "end_time": 35.388636363636365,
                "pitch": 65,
                "velocity": 40,
                "duration": 1.940909090909095,
                "tempo": 120.0
            },
            {
                "start_time": 35.43863636363636,
                "end_time": 37.35227272727273,
                "pitch": 75,
                "velocity": 40,
                "duration": 1.913636363636364,
                "tempo": 120.0
            },
            {
                "start_time": 37.37045454545454,
                "end_time": 39.32954545454545,
                "pitch": 74,
                "velocity": 40,
                "duration": 1.9590909090909108,
                "tempo": 120.0
            },
            {
                "start_time": 39.34772727272727,
                "end_time": 41.29772727272727,
                "pitch": 72,
                "velocity": 40,
                "duration": 1.9500000000000028,
                "tempo": 120.0
            },
            {
                "start_time": 41.31363636363636,
                "end_time": 43.26363636363636,
                "pitch": 65,
                "velocity": 40,
                "duration": 1.9499999999999957,
                "tempo": 120.0
            },
            {
                "start_time": 43.28181818181818,
                "end_time": 45.215909090909086,
                "pitch": 75,
                "velocity": 40,
                "duration": 1.934090909090905,
                "tempo": 120.0
            },
            {
                "start_time": 45.26590909090909,
                "end_time": 47.18863636363636,
                "pitch": 74,
                "velocity": 40,
                "duration": 1.922727272727272,
                "tempo": 120.0
            },
            {
                "start_time": 47.20681818181818,
                "end_time": 49.16590909090909,
                "pitch": 72,
                "velocity": 40,
                "duration": 1.9590909090909108,
                "tempo": 120.0
            },
            {
                "start_time": 49.184090909090905,
                "end_time": 51.13409090909091,
                "pitch": 65,
                "velocity": 40,
                "duration": 1.9500000000000028,
                "tempo": 120.0
            },
            {
                "start_time": 51.15,
                "end_time": 54.095454545454544,
                "pitch": 53,
                "velocity": 40,
                "duration": 2.9454545454545453,
                "tempo": 120.0
            },
            {
                "start_time": 54.584090909090904,
                "end_time": 54.949999999999996,
                "pitch": 51,
                "velocity": 40,
                "duration": 0.36590909090909207,
                "tempo": 120.0
            },
            {
                "start_time": 54.96818181818182,
                "end_time": 58.01363636363636,
                "pitch": 53,
                "velocity": 40,
                "duration": 3.0454545454545396,
                "tempo": 120.0
            },
            {
                "start_time": 58.52045454545454,
                "end_time": 58.86363636363636,
                "pitch": 56,
                "velocity": 40,
                "duration": 0.3431818181818187,
                "tempo": 120.0
            },
            {
                "start_time": 58.87954545454545,
                "end_time": 61.93636363636363,
                "pitch": 58,
                "velocity": 40,
                "duration": 3.05681818181818,
                "tempo": 120.0
            },
            {
                "start_time": 62.47272727272727,
                "end_time": 62.79090909090909,
                "pitch": 56,
                "velocity": 40,
                "duration": 0.3181818181818201,
                "tempo": 120.0
            },
            {
                "start_time": 62.80681818181818,
                "end_time": 65.87727272727273,
                "pitch": 58,
                "velocity": 40,
                "duration": 3.0704545454545453,
                "tempo": 120.0
            },
            {
                "start_time": 66.39090909090909,
                "end_time": 66.7159090909091,
                "pitch": 51,
                "velocity": 40,
                "duration": 0.32500000000000284,
                "tempo": 120.0
            },
            {
                "start_time": 66.76818181818182,
                "end_time": 69.79545454545455,
                "pitch": 53,
                "velocity": 40,
                "duration": 3.027272727272731,
                "tempo": 120.0
            },
            {
                "start_time": 70.31818181818181,
                "end_time": 70.68409090909091,
                "pitch": 51,
                "velocity": 40,
                "duration": 0.3659090909090992,
                "tempo": 120.0
            },
            {
                "start_time": 70.70227272727273,
                "end_time": 73.7590909090909,
                "pitch": 53,
                "velocity": 40,
                "duration": 3.0568181818181728,
                "tempo": 120.0
            },
            {
                "start_time": 74.25,
                "end_time": 74.61590909090908,
                "pitch": 56,
                "velocity": 40,
                "duration": 0.36590909090908497,
                "tempo": 120.0
            },
            {
                "start_time": 74.6340909090909,
                "end_time": 77.68409090909091,
                "pitch": 58,
                "velocity": 40,
                "duration": 3.0500000000000114,
                "tempo": 120.0
            },
            {
                "start_time": 78.19090909090909,
                "end_time": 78.5340909090909,
                "pitch": 56,
                "velocity": 40,
                "duration": 0.3431818181818187,
                "tempo": 120.0
            },
            {
                "start_time": 78.55,
                "end_time": 81.60909090909091,
                "pitch": 58,
                "velocity": 40,
                "duration": 3.059090909090912,
                "tempo": 120.0
            },
            {
                "start_time": 82.14545454545454,
                "end_time": 82.6,
                "pitch": 58,
                "velocity": 40,
                "duration": 0.45454545454545325,
                "tempo": 120.0
            }
        ],
        "Harpsichord": [
            {
                "start_time": 51.31818181818181,
                "end_time": 51.434090909090905,
                "pitch": 84,
                "velocity": 80,
                "duration": 0.11590909090909207,
                "tempo": 120.0
            },
            {
                "start_time": 51.45227272727273,
                "end_time": 51.668181818181814,
                "pitch": 79,
                "velocity": 80,
                "duration": 0.2159090909090864,
                "tempo": 120.0
            },
            {
                "start_time": 51.68636363636364,
                "end_time": 51.90454545454545,
                "pitch": 82,
                "velocity": 80,
                "duration": 0.2181818181818116,
                "tempo": 120.0
            },
            {
                "start_time": 51.92045454545454,
                "end_time": 52.143181818181816,
                "pitch": 77,
                "velocity": 80,
                "duration": 0.22272727272727622,
                "tempo": 120.0
            },
            {
                "start_time": 52.15909090909091,
                "end_time": 52.38636363636363,
                "pitch": 80,
                "velocity": 80,
                "duration": 0.22727272727272663,
                "tempo": 120.0
            },
            {
                "start_time": 52.43863636363636,
                "end_time": 52.525,
                "pitch": 77,
                "velocity": 80,
                "duration": 0.08636363636363598,
                "tempo": 120.0
            },
            {
                "start_time": 52.543181818181814,
                "end_time": 52.76136363636363,
                "pitch": 79,
                "velocity": 80,
                "duration": 0.2181818181818187,
                "tempo": 120.0
            },
            {
                "start_time": 52.777272727272724,
                "end_time": 52.89545454545454,
                "pitch": 77,
                "velocity": 80,
                "duration": 0.11818181818181728,
                "tempo": 120.0
            },
            {
                "start_time": 52.91136363636363,
                "end_time": 52.99545454545454,
                "pitch": 75,
                "velocity": 80,
                "duration": 0.08409090909091077,
                "tempo": 120.0
            },
            {
                "start_time": 53.04545454545454,
                "end_time": 53.277272727272724,
                "pitch": 80,
                "velocity": 80,
                "duration": 0.23181818181818414,
                "tempo": 120.0
            },
            {
                "start_time": 53.29545454545454,
                "end_time": 53.38409090909091,
                "pitch": 84,
                "velocity": 80,
                "duration": 0.08863636363636829,
                "tempo": 120.0
            },
            {
                "start_time": 53.4,
                "end_time": 53.625,
                "pitch": 79,
                "velocity": 80,
                "duration": 0.22500000000000142,
                "tempo": 120.0
            },
            {
                "start_time": 53.675,
                "end_time": 53.893181818181816,
                "pitch": 82,
                "velocity": 80,
                "duration": 0.2181818181818187,
                "tempo": 120.0
            },
            {
                "start_time": 53.91136363636363,
                "end_time": 53.99318181818182,
                "pitch": 80,
                "velocity": 80,
                "duration": 0.08181818181818556,
                "tempo": 120.0
            },
            {
                "start_time": 55.002272727272725,
                "end_time": 55.22272727272727,
                "pitch": 80,
                "velocity": 80,
                "duration": 0.2204545454545439,
                "tempo": 120.0
            },
            {
                "start_time": 55.240909090909085,
                "end_time": 55.35909090909091,
                "pitch": 84,
                "velocity": 80,
                "duration": 0.11818181818182438,
                "tempo": 120.0
            },
            {
                "start_time": 55.377272727272725,
                "end_time": 55.599999999999994,
                "pitch": 79,
                "velocity": 80,
                "duration": 0.2227272727272691,
                "tempo": 120.0
            },
            {
                "start_time": 55.61818181818182,
                "end_time": 55.845454545454544,
                "pitch": 82,
                "velocity": 80,
                "duration": 0.22727272727272663,
                "tempo": 120.0
            },
            {
                "start_time": 55.861363636363635,
                "end_time": 56.08181818181818,
                "pitch": 77,
                "velocity": 80,
                "duration": 0.2204545454545439,
                "tempo": 120.0
            },
            {
                "start_time": 56.131818181818176,
                "end_time": 56.34318181818182,
                "pitch": 80,
                "velocity": 80,
                "duration": 0.21136363636364308,
                "tempo": 120.0
            },
            {
                "start_time": 56.35909090909091,
                "end_time": 56.44090909090909,
                "pitch": 77,
                "velocity": 80,
                "duration": 0.08181818181817846,
                "tempo": 120.0
            },
            {
                "start_time": 56.459090909090904,
                "end_time": 56.679545454545455,
                "pitch": 79,
                "velocity": 80,
                "duration": 0.220454545454551,
                "tempo": 120.0
            },
            {
                "start_time": 56.73181818181818,
                "end_time": 56.81590909090909,
                "pitch": 77,
                "velocity": 80,
                "duration": 0.08409090909091077,
                "tempo": 120.0
            },
            {
                "start_time": 56.834090909090904,
                "end_time": 56.95227272727273,
                "pitch": 75,
                "velocity": 80,
                "duration": 0.11818181818182438,
                "tempo": 120.0
            },
            {
                "start_time": 56.970454545454544,
                "end_time": 57.195454545454545,
                "pitch": 80,
                "velocity": 80,
                "duration": 0.22500000000000142,
                "tempo": 120.0
            },
            {
                "start_time": 57.21363636363636,
                "end_time": 57.3,
                "pitch": 84,
                "velocity": 80,
                "duration": 0.08636363636363598,
                "tempo": 120.0
            },
            {
                "start_time": 57.35227272727273,
                "end_time": 57.574999999999996,
                "pitch": 79,
                "velocity": 80,
                "duration": 0.2227272727272691,
                "tempo": 120.0
            },
            {
                "start_time": 57.590909090909086,
                "end_time": 57.809090909090905,
                "pitch": 82,
                "velocity": 80,
                "duration": 0.2181818181818187,
                "tempo": 120.0
            },
            {
                "start_time": 57.824999999999996,
                "end_time": 57.90909090909091,
                "pitch": 80,
                "velocity": 80,
                "duration": 0.08409090909091077,
                "tempo": 120.0
            },
            {
                "start_time": 58.913636363636364,
                "end_time": 59.13636363636363,
                "pitch": 82,
                "velocity": 80,
                "duration": 0.2227272727272691,
                "tempo": 120.0
            },
            {
                "start_time": 59.18863636363636,
                "end_time": 59.275,
                "pitch": 85,
                "velocity": 80,
                "duration": 0.08636363636363598,
                "tempo": 120.0
            },
            {
                "start_time": 59.29090909090909,
                "end_time": 59.518181818181816,
                "pitch": 80,
                "velocity": 80,
                "duration": 0.22727272727272663,
                "tempo": 120.0
            },
            {
                "start_time": 59.53636363636363,
                "end_time": 59.76590909090909,
                "pitch": 84,
                "velocity": 80,
                "duration": 0.22954545454545894,
                "tempo": 120.0
            },
            {
                "start_time": 59.81818181818181,
                "end_time": 60.038636363636364,
                "pitch": 79,
                "velocity": 80,
                "duration": 0.220454545454551,
                "tempo": 120.0
            },
            {
                "start_time": 60.054545454545455,
                "end_time": 60.268181818181816,
                "pitch": 82,
                "velocity": 80,
                "duration": 0.21363636363636118,
                "tempo": 120.0
            },
            {
                "start_time": 60.28409090909091,
                "end_time": 60.365909090909085,
                "pitch": 77,
                "velocity": 80,
                "duration": 0.08181818181817846,
                "tempo": 120.0
            },
            {
                "start_time": 60.41590909090909,
                "end_time": 60.647727272727266,
                "pitch": 80,
                "velocity": 80,
                "duration": 0.23181818181817704,
                "tempo": 120.0
            },
            {
                "start_time": 60.663636363636364,
                "end_time": 60.752272727272725,
                "pitch": 79,
                "velocity": 80,
                "duration": 0.08863636363636118,
                "tempo": 120.0
            },
            {
                "start_time": 60.77045454545454,
                "end_time": 60.893181818181816,
                "pitch": 77,
                "velocity": 80,
                "duration": 0.1227272727272748,
                "tempo": 120.0
            },
            {
                "start_time": 60.91136363636363,
                "end_time": 61.12272727272727,
                "pitch": 82,
                "velocity": 80,
                "duration": 0.21136363636363598,
                "tempo": 120.0
            },
            {
                "start_time": 61.13863636363636,
                "end_time": 61.25454545454545,
                "pitch": 85,
                "velocity": 80,
                "duration": 0.11590909090909207,
                "tempo": 120.0
            },
            {
                "start_time": 61.27045454545454,
                "end_time": 61.48863636363636,
                "pitch": 80,
                "velocity": 80,
                "duration": 0.2181818181818187,
                "tempo": 120.0
            },
            {
                "start_time": 61.506818181818176,
                "end_time": 61.72954545454545,
                "pitch": 84,
                "velocity": 80,
                "duration": 0.22272727272727622,
                "tempo": 120.0
            },
            {
                "start_time": 61.74772727272727,
                "end_time": 61.865909090909085,
                "pitch": 82,
                "velocity": 80,
                "duration": 0.11818181818181728,
                "tempo": 120.0
            },
            {
                "start_time": 62.875,
                "end_time": 63.10681818181818,
                "pitch": 82,
                "velocity": 80,
                "duration": 0.23181818181817704,
                "tempo": 120.0
            },
            {
                "start_time": 63.12272727272727,
                "end_time": 63.211363636363636,
                "pitch": 85,
                "velocity": 80,
                "duration": 0.08863636363636829,
                "tempo": 120.0
            },
            {
                "start_time": 63.22954545454545,
                "end_time": 63.45454545454545,
                "pitch": 80,
                "velocity": 80,
                "duration": 0.22500000000000142,
                "tempo": 120.0
            },
            {
                "start_time": 63.50454545454545,
                "end_time": 63.72272727272727,
                "pitch": 84,
                "velocity": 80,
                "duration": 0.2181818181818187,
                "tempo": 120.0
            },
            {
                "start_time": 63.73863636363636,
                "end_time": 63.95681818181818,
                "pitch": 79,
                "velocity": 80,
                "duration": 0.2181818181818187,
                "tempo": 120.0
            },
            {
                "start_time": 63.974999999999994,
                "end_time": 64.19090909090909,
                "pitch": 82,
                "velocity": 80,
                "duration": 0.2159090909090935,
                "tempo": 120.0
            },
            {
                "start_time": 64.2090909090909,
                "end_time": 64.325,
                "pitch": 77,
                "velocity": 80,
                "duration": 0.11590909090909918,
                "tempo": 120.0
            },
            {
                "start_time": 64.34318181818182,
                "end_time": 64.57045454545454,
                "pitch": 80,
                "velocity": 80,
                "duration": 0.22727272727271952,
                "tempo": 120.0
            },
            {
                "start_time": 64.58863636363635,
                "end_time": 64.675,
                "pitch": 79,
                "velocity": 80,
                "duration": 0.08636363636364308,
                "tempo": 120.0
            },
            {
                "start_time": 64.72727272727272,
                "end_time": 64.81363636363636,
                "pitch": 77,
                "velocity": 80,
                "duration": 0.08636363636364308,
                "tempo": 120.0
            },
            {
                "start_time": 64.83181818181818,
                "end_time": 65.04772727272727,
                "pitch": 82,
                "velocity": 80,
                "duration": 0.2159090909090935,
                "tempo": 120.0
            },
            {
                "start_time": 65.06590909090909,
                "end_time": 65.18181818181817,
                "pitch": 85,
                "velocity": 80,
                "duration": 0.11590909090908497,
                "tempo": 120.0
            },
            {
                "start_time": 65.2,
                "end_time": 65.42272727272727,
                "pitch": 80,
                "velocity": 80,
                "duration": 0.2227272727272691,
                "tempo": 120.0
            },
            {
                "start_time": 65.44090909090909,
                "end_time": 65.67045454545455,
                "pitch": 84,
                "velocity": 80,
                "duration": 0.22954545454545894,
                "tempo": 120.0
            },
            {
                "start_time": 65.68863636363636,
                "end_time": 65.81363636363636,
                "pitch": 82,
                "velocity": 80,
                "duration": 0.125,
                "tempo": 120.0
            },
            {
                "start_time": 66.80227272727272,
                "end_time": 67.0340909090909,
                "pitch": 80,
                "velocity": 80,
                "duration": 0.23181818181818414,
                "tempo": 120.0
            },
            {
                "start_time": 67.05,
                "end_time": 67.13863636363637,
                "pitch": 84,
                "velocity": 80,
                "duration": 0.08863636363636829,
                "tempo": 120.0
            },
            {
                "start_time": 67.19318181818181,
                "end_time": 67.41136363636363,
                "pitch": 79,
                "velocity": 80,
                "duration": 0.2181818181818187,
                "tempo": 120.0
            },
            {
                "start_time": 67.42954545454545,
                "end_time": 67.64090909090909,
                "pitch": 82,
                "velocity": 80,
                "duration": 0.21136363636364308,
                "tempo": 120.0
            },
            {
                "start_time": 67.65681818181818,
                "end_time": 67.87954545454545,
                "pitch": 77,
                "velocity": 80,
                "duration": 0.2227272727272691,
                "tempo": 120.0
            },
            {
                "start_time": 67.89545454545454,
                "end_time": 68.12727272727273,
                "pitch": 80,
                "velocity": 80,
                "duration": 0.23181818181818414,
                "tempo": 120.0
            },
            {
                "start_time": 68.14545454545454,
                "end_time": 68.26818181818182,
                "pitch": 77,
                "velocity": 80,
                "duration": 0.1227272727272748,
                "tempo": 120.0
            },
            {
                "start_time": 68.28636363636363,
                "end_time": 68.50227272727273,
                "pitch": 79,
                "velocity": 80,
                "duration": 0.2159090909090935,
                "tempo": 120.0
            },
            {
                "start_time": 68.52045454545454,
                "end_time": 68.63636363636363,
                "pitch": 77,
                "velocity": 80,
                "duration": 0.11590909090908497,
                "tempo": 120.0
            },
            {
                "start_time": 68.65454545454546,
                "end_time": 68.73863636363636,
                "pitch": 75,
                "velocity": 80,
                "duration": 0.08409090909090366,
                "tempo": 120.0
            },
            {
                "start_time": 68.75454545454545,
                "end_time": 68.97272727272727,
                "pitch": 80,
                "velocity": 80,
                "duration": 0.2181818181818187,
                "tempo": 120.0
            },
            {
                "start_time": 69.02272727272727,
                "end_time": 69.10681818181818,
                "pitch": 84,
                "velocity": 80,
                "duration": 0.08409090909091788,
                "tempo": 120.0
            },
            {
                "start_time": 69.12272727272727,
                "end_time": 69.34545454545454,
                "pitch": 79,
                "velocity": 80,
                "duration": 0.2227272727272691,
                "tempo": 120.0
            },
            {
                "start_time": 69.36363636363636,
                "end_time": 69.58863636363635,
                "pitch": 82,
                "velocity": 80,
                "duration": 0.22499999999999432,
                "tempo": 120.0
            },
            {
                "start_time": 69.64090909090909,
                "end_time": 69.72954545454544,
                "pitch": 80,
                "velocity": 80,
                "duration": 0.08863636363635408,
                "tempo": 120.0
            },
            {
                "start_time": 70.73636363636363,
                "end_time": 70.9590909090909,
                "pitch": 80,
                "velocity": 80,
                "duration": 0.2227272727272691,
                "tempo": 120.0
            },
            {
                "start_time": 70.97727272727272,
                "end_time": 71.09772727272727,
                "pitch": 84,
                "velocity": 80,
                "duration": 0.12045454545454959,
                "tempo": 120.0
            },
            {
                "start_time": 71.11363636363636,
                "end_time": 71.3340909090909,
                "pitch": 79,
                "velocity": 80,
                "duration": 0.2204545454545439,
                "tempo": 120.0
            },
            {
                "start_time": 71.35227272727272,
                "end_time": 71.56818181818181,
                "pitch": 82,
                "velocity": 80,
                "duration": 0.2159090909090935,
                "tempo": 120.0
            },
            {
                "start_time": 71.58636363636363,
                "end_time": 71.80681818181817,
                "pitch": 77,
                "velocity": 80,
                "duration": 0.2204545454545439,
                "tempo": 120.0
            },
            {
                "start_time": 71.825,
                "end_time": 72.05227272727272,
                "pitch": 80,
                "velocity": 80,
                "duration": 0.22727272727271952,
                "tempo": 120.0
            },
            {
                "start_time": 72.10454545454544,
                "end_time": 72.19090909090909,
                "pitch": 77,
                "velocity": 80,
                "duration": 0.08636363636364308,
                "tempo": 120.0
            },
            {
                "start_time": 72.2090909090909,
                "end_time": 72.425,
                "pitch": 79,
                "velocity": 80,
                "duration": 0.2159090909090935,
                "tempo": 120.0
            },
            {
                "start_time": 72.44318181818181,
                "end_time": 72.55909090909091,
                "pitch": 77,
                "velocity": 80,
                "duration": 0.11590909090909918,
                "tempo": 120.0
            },
            {
                "start_time": 72.57727272727273,
                "end_time": 72.66136363636363,
                "pitch": 75,
                "velocity": 80,
                "duration": 0.08409090909090366,
                "tempo": 120.0
            },
            {
                "start_time": 72.71136363636363,
                "end_time": 72.94318181818181,
                "pitch": 80,
                "velocity": 80,
                "duration": 0.23181818181818414,
                "tempo": 120.0
            },
            {
                "start_time": 72.9590909090909,
                "end_time": 73.04772727272727,
                "pitch": 84,
                "velocity": 80,
                "duration": 0.08863636363636829,
                "tempo": 120.0
            },
            {
                "start_time": 73.06590909090909,
                "end_time": 73.29090909090908,
                "pitch": 79,
                "velocity": 80,
                "duration": 0.22499999999999432,
                "tempo": 120.0
            },
            {
                "start_time": 73.3409090909091,
                "end_time": 73.55909090909091,
                "pitch": 82,
                "velocity": 80,
                "duration": 0.2181818181818187,
                "tempo": 120.0
            },
            {
                "start_time": 73.575,
                "end_time": 73.6590909090909,
                "pitch": 80,
                "velocity": 80,
                "duration": 0.08409090909090366,
                "tempo": 120.0
            },
            {
                "start_time": 74.66818181818182,
                "end_time": 74.88863636363637,
                "pitch": 82,
                "velocity": 80,
                "duration": 0.2204545454545439,
                "tempo": 120.0
            },
            {
                "start_time": 74.90681818181818,
                "end_time": 75.02499999999999,
                "pitch": 85,
                "velocity": 80,
                "duration": 0.11818181818181017,
                "tempo": 120.0
            },
            {
                "start_time": 75.04318181818182,
                "end_time": 75.26590909090909,
                "pitch": 80,
                "velocity": 80,
                "duration": 0.2227272727272691,
                "tempo": 120.0
            },
            {
                "start_time": 75.2840909090909,
                "end_time": 75.5090909090909,
                "pitch": 84,
                "velocity": 80,
                "duration": 0.22499999999999432,
                "tempo": 120.0
            },
            {
                "start_time": 75.52727272727272,
                "end_time": 75.74772727272727,
                "pitch": 79,
                "velocity": 80,
                "duration": 0.22045454545455812,
                "tempo": 120.0
            },
            {
                "start_time": 75.79545454545455,
                "end_time": 76.0090909090909,
                "pitch": 82,
                "velocity": 80,
                "duration": 0.21363636363635408,
                "tempo": 120.0
            },
            {
                "start_time": 76.02499999999999,
                "end_time": 76.10681818181818,
                "pitch": 77,
                "velocity": 80,
                "duration": 0.08181818181819267,
                "tempo": 120.0
            },
            {
                "start_time": 76.125,
                "end_time": 76.34772727272727,
                "pitch": 80,
                "velocity": 80,
                "duration": 0.2227272727272691,
                "tempo": 120.0
            },
            {
                "start_time": 76.39772727272727,
                "end_time": 76.48409090909091,
                "pitch": 79,
                "velocity": 80,
                "duration": 0.08636363636364308,
                "tempo": 120.0
            },
            {
                "start_time": 76.50227272727273,
                "end_time": 76.62272727272727,
                "pitch": 77,
                "velocity": 80,
                "duration": 0.12045454545454959,
                "tempo": 120.0
            },
            {
                "start_time": 76.63863636363637,
                "end_time": 76.86590909090908,
                "pitch": 82,
                "velocity": 80,
                "duration": 0.22727272727271952,
                "tempo": 120.0
            },
            {
                "start_time": 76.8840909090909,
                "end_time": 76.97045454545454,
                "pitch": 85,
                "velocity": 80,
                "duration": 0.08636363636364308,
                "tempo": 120.0
            },
            {
                "start_time": 77.02272727272727,
                "end_time": 77.24318181818181,
                "pitch": 80,
                "velocity": 80,
                "duration": 0.2204545454545439,
                "tempo": 120.0
            },
            {
                "start_time": 77.26136363636363,
                "end_time": 77.47954545454544,
                "pitch": 84,
                "velocity": 80,
                "duration": 0.2181818181818187,
                "tempo": 120.0
            },
            {
                "start_time": 77.49545454545454,
                "end_time": 77.57954545454545,
                "pitch": 82,
                "velocity": 80,
                "duration": 0.08409090909091788,
                "tempo": 120.0
            },
            {
                "start_time": 78.5840909090909,
                "end_time": 78.80681818181817,
                "pitch": 82,
                "velocity": 80,
                "duration": 0.2227272727272691,
                "tempo": 120.0
            },
            {
                "start_time": 78.85681818181818,
                "end_time": 78.94318181818181,
                "pitch": 85,
                "velocity": 80,
                "duration": 0.08636363636362887,
                "tempo": 120.0
            },
            {
                "start_time": 78.96136363636363,
                "end_time": 79.18636363636364,
                "pitch": 80,
                "velocity": 80,
                "duration": 0.22500000000000853,
                "tempo": 120.0
            },
            {
                "start_time": 79.20454545454545,
                "end_time": 79.43409090909091,
                "pitch": 84,
                "velocity": 80,
                "duration": 0.22954545454545894,
                "tempo": 120.0
            },
            {
                "start_time": 79.48863636363636,
                "end_time": 79.70681818181818,
                "pitch": 79,
                "velocity": 80,
                "duration": 0.2181818181818187,
                "tempo": 120.0
            },
            {
                "start_time": 79.725,
                "end_time": 79.93636363636364,
                "pitch": 82,
                "velocity": 80,
                "duration": 0.21136363636364308,
                "tempo": 120.0
            },
            {
                "start_time": 79.95227272727273,
                "end_time": 80.0340909090909,
                "pitch": 77,
                "velocity": 80,
                "duration": 0.08181818181817846,
                "tempo": 120.0
            },
            {
                "start_time": 80.08636363636363,
                "end_time": 80.31363636363636,
                "pitch": 80,
                "velocity": 80,
                "duration": 0.22727272727273373,
                "tempo": 120.0
            },
            {
                "start_time": 80.32954545454545,
                "end_time": 80.41818181818181,
                "pitch": 79,
                "velocity": 80,
                "duration": 0.08863636363635408,
                "tempo": 120.0
            },
            {
                "start_time": 80.43409090909091,
                "end_time": 80.55681818181817,
                "pitch": 77,
                "velocity": 80,
                "duration": 0.12272727272726058,
                "tempo": 120.0
            },
            {
                "start_time": 80.57272727272726,
                "end_time": 80.79090909090908,
                "pitch": 82,
                "velocity": 80,
                "duration": 0.2181818181818187,
                "tempo": 120.0
            },
            {
                "start_time": 80.80681818181817,
                "end_time": 80.925,
                "pitch": 85,
                "velocity": 80,
                "duration": 0.11818181818182438,
                "tempo": 120.0
            },
            {
                "start_time": 80.94090909090909,
                "end_time": 81.16363636363636,
                "pitch": 80,
                "velocity": 80,
                "duration": 0.2227272727272691,
                "tempo": 120.0
            },
            {
                "start_time": 81.17954545454545,
                "end_time": 81.40227272727272,
                "pitch": 84,
                "velocity": 80,
                "duration": 0.2227272727272691,
                "tempo": 120.0
            },
            {
                "start_time": 81.42045454545455,
                "end_time": 81.54090909090908,
                "pitch": 82,
                "velocity": 80,
                "duration": 0.12045454545453538,
                "tempo": 120.0
            }
        ],
        "Trumpet": [
            {
                "start_time": 82.41363636363636,
                "end_time": 83.02045454545454,
                "pitch": 84,
                "velocity": 80,
                "duration": 0.6068181818181841,
                "tempo": 120.0
            },
            {
                "start_time": 83.03636363636363,
                "end_time": 84.9590909090909,
                "pitch": 84,
                "velocity": 64,
                "duration": 1.922727272727272,
                "tempo": 120.0
            },
            {
                "start_time": 85.01136363636363,
                "end_time": 87.0840909090909,
                "pitch": 82,
                "velocity": 64,
                "duration": 2.0727272727272776,
                "tempo": 120.0
            },
            {
                "start_time": 87.1,
                "end_time": 90.87272727272727,
                "pitch": 80,
                "velocity": 64,
                "duration": 3.7727272727272805,
                "tempo": 120.0
            },
            {
                "start_time": 90.88863636363637,
                "end_time": 92.86363636363636,
                "pitch": 84,
                "velocity": 64,
                "duration": 1.9749999999999943,
                "tempo": 120.0
            },
            {
                "start_time": 92.87954545454545,
                "end_time": 94.94318181818181,
                "pitch": 82,
                "velocity": 64,
                "duration": 2.0636363636363626,
                "tempo": 120.0
            }
        ]
    }
}