{
    "track_id": "California Games (FM) - 07 - Skating",
    "mood": "angry",
    "instruments": {
        "Clarinet": [
            {
                "start_time": 0.0,
                "end_time": 0.06136363636363636,
                "pitch": 56,
                "velocity": 80,
                "duration": 0.06136363636363636,
                "tempo": 120.0
            },
            {
                "start_time": 0.07727272727272727,
                "end_time": 0.15454545454545454,
                "pitch": 56,
                "velocity": 80,
                "duration": 0.07727272727272727,
                "tempo": 120.0
            },
            {
                "start_time": 0.17045454545454544,
                "end_time": 0.2636363636363636,
                "pitch": 56,
                "velocity": 80,
                "duration": 0.09318181818181817,
                "tempo": 120.0
            },
            {
                "start_time": 0.27954545454545454,
                "end_time": 0.45227272727272727,
                "pitch": 66,
                "velocity": 80,
                "duration": 0.17272727272727273,
                "tempo": 120.0
            },
            {
                "start_time": 0.46818181818181814,
                "end_time": 0.5636363636363636,
                "pitch": 66,
                "velocity": 80,
                "duration": 0.09545454545454546,
                "tempo": 120.0
            },
            {
                "start_time": 0.5795454545454545,
                "end_time": 0.7704545454545454,
                "pitch": 68,
                "velocity": 80,
                "duration": 0.19090909090909092,
                "tempo": 120.0
            },
            {
                "start_time": 0.7863636363636364,
                "end_time": 0.9659090909090908,
                "pitch": 56,
                "velocity": 80,
                "duration": 0.17954545454545445,
                "tempo": 120.0
            },
            {
                "start_time": 0.9818181818181818,
                "end_time": 1.1795454545454545,
                "pitch": 65,
                "velocity": 80,
                "duration": 0.19772727272727264,
                "tempo": 120.0
            },
            {
                "start_time": 1.1954545454545453,
                "end_time": 1.3954545454545453,
                "pitch": 66,
                "velocity": 80,
                "duration": 0.19999999999999996,
                "tempo": 120.0
            },
            {
                "start_time": 1.4136363636363636,
                "end_time": 1.6136363636363635,
                "pitch": 65,
                "velocity": 80,
                "duration": 0.19999999999999996,
                "tempo": 120.0
            },
            {
                "start_time": 1.6295454545454544,
                "end_time": 1.7113636363636362,
                "pitch": 56,
                "velocity": 80,
                "duration": 0.08181818181818179,
                "tempo": 120.0
            },
            {
                "start_time": 1.7295454545454545,
                "end_time": 1.8272727272727272,
                "pitch": 56,
                "velocity": 80,
                "duration": 0.09772727272727266,
                "tempo": 120.0
            },
            {
                "start_time": 1.843181818181818,
                "end_time": 1.9249999999999998,
                "pitch": 56,
                "velocity": 80,
                "duration": 0.08181818181818179,
                "tempo": 120.0
            },
            {
                "start_time": 1.940909090909091,
                "end_time": 2.1409090909090907,
                "pitch": 66,
                "velocity": 80,
                "duration": 0.19999999999999973,
                "tempo": 120.0
            },
            {
                "start_time": 2.1568181818181817,
                "end_time": 2.2409090909090907,
                "pitch": 66,
                "velocity": 80,
                "duration": 0.084090909090909,
                "tempo": 120.0
            },
            {
                "start_time": 2.256818181818182,
                "end_time": 2.459090909090909,
                "pitch": 68,
                "velocity": 80,
                "duration": 0.20227272727272716,
                "tempo": 120.0
            },
            {
                "start_time": 2.475,
                "end_time": 2.6704545454545454,
                "pitch": 56,
                "velocity": 80,
                "duration": 0.19545454545454533,
                "tempo": 120.0
            },
            {
                "start_time": 2.6886363636363635,
                "end_time": 2.884090909090909,
                "pitch": 65,
                "velocity": 80,
                "duration": 0.19545454545454533,
                "tempo": 120.0
            },
            {
                "start_time": 2.9,
                "end_time": 3.311363636363636,
                "pitch": 66,
                "velocity": 80,
                "duration": 0.41136363636363615,
                "tempo": 120.0
            },
            {
                "start_time": 3.327272727272727,
                "end_time": 3.4272727272727272,
                "pitch": 56,
                "velocity": 80,
                "duration": 0.10000000000000009,
                "tempo": 120.0
            },
            {
                "start_time": 3.443181818181818,
                "end_time": 3.525,
                "pitch": 56,
                "velocity": 80,
                "duration": 0.08181818181818201,
                "tempo": 120.0
            },
            {
                "start_time": 3.5409090909090906,
                "end_time": 3.6227272727272726,
                "pitch": 56,
                "velocity": 80,
                "duration": 0.08181818181818201,
                "tempo": 120.0
            },
            {
                "start_time": 3.6386363636363637,
                "end_time": 3.8386363636363634,
                "pitch": 66,
                "velocity": 80,
                "duration": 0.19999999999999973,
                "tempo": 120.0
            },
            {
                "start_time": 3.8545454545454545,
                "end_time": 3.954545454545454,
                "pitch": 66,
                "velocity": 80,
                "duration": 0.09999999999999964,
                "tempo": 120.0
            },
            {
                "start_time": 3.9727272727272727,
                "end_time": 4.156818181818181,
                "pitch": 68,
                "velocity": 80,
                "duration": 0.18409090909090864,
                "tempo": 120.0
            },
            {
                "start_time": 4.172727272727273,
                "end_time": 4.363636363636363,
                "pitch": 56,
                "velocity": 80,
                "duration": 0.19090909090909047,
                "tempo": 120.0
            },
            {
                "start_time": 4.379545454545454,
                "end_time": 4.570454545454545,
                "pitch": 65,
                "velocity": 80,
                "duration": 0.19090909090909136,
                "tempo": 120.0
            },
            {
                "start_time": 4.586363636363636,
                "end_time": 4.790909090909091,
                "pitch": 66,
                "velocity": 80,
                "duration": 0.20454545454545503,
                "tempo": 120.0
            },
            {
                "start_time": 4.809090909090909,
                "end_time": 5.013636363636364,
                "pitch": 65,
                "velocity": 80,
                "duration": 0.20454545454545503,
                "tempo": 120.0
            },
            {
                "start_time": 5.031818181818181,
                "end_time": 5.113636363636363,
                "pitch": 56,
                "velocity": 80,
                "duration": 0.08181818181818201,
                "tempo": 120.0
            },
            {
                "start_time": 5.131818181818182,
                "end_time": 5.215909090909091,
                "pitch": 56,
                "velocity": 80,
                "duration": 0.084090909090909,
                "tempo": 120.0
            },
            {
                "start_time": 5.2318181818181815,
                "end_time": 5.331818181818181,
                "pitch": 56,
                "velocity": 80,
                "duration": 0.09999999999999964,
                "tempo": 120.0
            },
            {
                "start_time": 5.35,
                "end_time": 5.431818181818182,
                "pitch": 56,
                "velocity": 80,
                "duration": 0.08181818181818201,
                "tempo": 120.0
            },
            {
                "start_time": 5.5636363636363635,
                "end_time": 5.6454545454545455,
                "pitch": 56,
                "velocity": 80,
                "duration": 0.08181818181818201,
                "tempo": 120.0
            },
            {
                "start_time": 5.661363636363636,
                "end_time": 5.743181818181818,
                "pitch": 56,
                "velocity": 80,
                "duration": 0.08181818181818201,
                "tempo": 120.0
            },
            {
                "start_time": 5.761363636363636,
                "end_time": 5.8590909090909085,
                "pitch": 56,
                "velocity": 80,
                "duration": 0.09772727272727266,
                "tempo": 120.0
            },
            {
                "start_time": 6.093181818181818,
                "end_time": 6.277272727272727,
                "pitch": 53,
                "velocity": 80,
                "duration": 0.18409090909090953,
                "tempo": 120.0
            },
            {
                "start_time": 6.293181818181818,
                "end_time": 6.49090909090909,
                "pitch": 54,
                "velocity": 80,
                "duration": 0.1977272727272723,
                "tempo": 120.0
            },
            {
                "start_time": 6.506818181818182,
                "end_time": 6.702272727272727,
                "pitch": 55,
                "velocity": 80,
                "duration": 0.19545454545454533,
                "tempo": 120.0
            },
            {
                "start_time": 6.720454545454545,
                "end_time": 13.61590909090909,
                "pitch": 56,
                "velocity": 80,
                "duration": 6.8954545454545455,
                "tempo": 120.0
            },
            {
                "start_time": 13.634090909090908,
                "end_time": 13.720454545454544,
                "pitch": 56,
                "velocity": 80,
                "duration": 0.08636363636363598,
                "tempo": 120.0
            },
            {
                "start_time": 13.738636363636363,
                "end_time": 13.843181818181817,
                "pitch": 56,
                "velocity": 80,
                "duration": 0.10454545454545361,
                "tempo": 120.0
            },
            {
                "start_time": 13.861363636363636,
                "end_time": 14.061363636363636,
                "pitch": 66,
                "velocity": 80,
                "duration": 0.1999999999999993,
                "tempo": 120.0
            },
            {
                "start_time": 14.077272727272726,
                "end_time": 14.156818181818181,
                "pitch": 66,
                "velocity": 80,
                "duration": 0.07954545454545503,
                "tempo": 120.0
            },
            {
                "start_time": 14.172727272727272,
                "end_time": 14.36590909090909,
                "pitch": 68,
                "velocity": 80,
                "duration": 0.19318181818181834,
                "tempo": 120.0
            },
            {
                "start_time": 14.381818181818181,
                "end_time": 14.577272727272726,
                "pitch": 56,
                "velocity": 80,
                "duration": 0.19545454545454533,
                "tempo": 120.0
            },
            {
                "start_time": 14.593181818181817,
                "end_time": 14.774999999999999,
                "pitch": 65,
                "velocity": 80,
                "duration": 0.18181818181818166,
                "tempo": 120.0
            },
            {
                "start_time": 14.790909090909091,
                "end_time": 14.986363636363636,
                "pitch": 66,
                "velocity": 80,
                "duration": 0.19545454545454533,
                "tempo": 120.0
            },
            {
                "start_time": 15.002272727272727,
                "end_time": 15.2,
                "pitch": 65,
                "velocity": 80,
                "duration": 0.1977272727272723,
                "tempo": 120.0
            },
            {
                "start_time": 15.21590909090909,
                "end_time": 15.299999999999999,
                "pitch": 56,
                "velocity": 80,
                "duration": 0.084090909090909,
                "tempo": 120.0
            },
            {
                "start_time": 15.31590909090909,
                "end_time": 15.418181818181818,
                "pitch": 56,
                "velocity": 80,
                "duration": 0.1022727272727284,
                "tempo": 120.0
            },
            {
                "start_time": 15.434090909090909,
                "end_time": 15.518181818181818,
                "pitch": 56,
                "velocity": 80,
                "duration": 0.084090909090909,
                "tempo": 120.0
            },
            {
                "start_time": 15.534090909090908,
                "end_time": 15.736363636363636,
                "pitch": 66,
                "velocity": 80,
                "duration": 0.20227272727272805,
                "tempo": 120.0
            },
            {
                "start_time": 15.754545454545454,
                "end_time": 15.838636363636363,
                "pitch": 66,
                "velocity": 80,
                "duration": 0.084090909090909,
                "tempo": 120.0
            },
            {
                "start_time": 15.85681818181818,
                "end_time": 16.061363636363634,
                "pitch": 68,
                "velocity": 80,
                "duration": 0.20454545454545325,
                "tempo": 120.0
            },
            {
                "start_time": 16.079545454545453,
                "end_time": 16.270454545454545,
                "pitch": 56,
                "velocity": 80,
                "duration": 0.19090909090909136,
                "tempo": 120.0
            },
            {
                "start_time": 16.286363636363635,
                "end_time": 16.477272727272727,
                "pitch": 65,
                "velocity": 80,
                "duration": 0.19090909090909136,
                "tempo": 120.0
            },
            {
                "start_time": 16.493181818181817,
                "end_time": 16.902272727272727,
                "pitch": 66,
                "velocity": 80,
                "duration": 0.40909090909091006,
                "tempo": 120.0
            },
            {
                "start_time": 16.920454545454543,
                "end_time": 17.018181818181816,
                "pitch": 56,
                "velocity": 80,
                "duration": 0.09772727272727266,
                "tempo": 120.0
            },
            {
                "start_time": 17.034090909090907,
                "end_time": 17.11590909090909,
                "pitch": 56,
                "velocity": 80,
                "duration": 0.08181818181818201,
                "tempo": 120.0
            },
            {
                "start_time": 17.134090909090908,
                "end_time": 17.23181818181818,
                "pitch": 56,
                "velocity": 80,
                "duration": 0.09772727272727266,
                "tempo": 120.0
            },
            {
                "start_time": 17.24772727272727,
                "end_time": 17.429545454545455,
                "pitch": 66,
                "velocity": 80,
                "duration": 0.18181818181818343,
                "tempo": 120.0
            },
            {
                "start_time": 17.44772727272727,
                "end_time": 17.547727272727272,
                "pitch": 66,
                "velocity": 80,
                "duration": 0.10000000000000142,
                "tempo": 120.0
            },
            {
                "start_time": 17.563636363636363,
                "end_time": 17.763636363636362,
                "pitch": 68,
                "velocity": 80,
                "duration": 0.1999999999999993,
                "tempo": 120.0
            },
            {
                "start_time": 17.78181818181818,
                "end_time": 17.96590909090909,
                "pitch": 56,
                "velocity": 80,
                "duration": 0.18409090909090864,
                "tempo": 120.0
            },
            {
                "start_time": 17.98181818181818,
                "end_time": 18.18181818181818,
                "pitch": 65,
                "velocity": 80,
                "duration": 0.1999999999999993,
                "tempo": 120.0
            },
            {
                "start_time": 18.2,
                "end_time": 18.395454545454545,
                "pitch": 66,
                "velocity": 80,
                "duration": 0.19545454545454533,
                "tempo": 120.0
            },
            {
                "start_time": 18.413636363636364,
                "end_time": 18.60909090909091,
                "pitch": 65,
                "velocity": 80,
                "duration": 0.19545454545454533,
                "tempo": 120.0
            },
            {
                "start_time": 18.625,
                "end_time": 18.709090909090907,
                "pitch": 56,
                "velocity": 80,
                "duration": 0.08409090909090722,
                "tempo": 120.0
            },
            {
                "start_time": 18.724999999999998,
                "end_time": 18.827272727272728,
                "pitch": 56,
                "velocity": 80,
                "duration": 0.10227272727273018,
                "tempo": 120.0
            },
            {
                "start_time": 18.84318181818182,
                "end_time": 18.927272727272726,
                "pitch": 56,
                "velocity": 80,
                "duration": 0.08409090909090722,
                "tempo": 120.0
            },
            {
                "start_time": 18.943181818181817,
                "end_time": 19.027272727272727,
                "pitch": 56,
                "velocity": 80,
                "duration": 0.08409090909091077,
                "tempo": 120.0
            },
            {
                "start_time": 19.159090909090907,
                "end_time": 19.24090909090909,
                "pitch": 56,
                "velocity": 80,
                "duration": 0.08181818181818201,
                "tempo": 120.0
            },
            {
                "start_time": 19.25681818181818,
                "end_time": 19.354545454545452,
                "pitch": 56,
                "velocity": 80,
                "duration": 0.09772727272727266,
                "tempo": 120.0
            },
            {
                "start_time": 19.370454545454546,
                "end_time": 19.454545454545453,
                "pitch": 56,
                "velocity": 80,
                "duration": 0.08409090909090722,
                "tempo": 120.0
            },
            {
                "start_time": 19.686363636363634,
                "end_time": 19.888636363636362,
                "pitch": 53,
                "velocity": 80,
                "duration": 0.20227272727272805,
                "tempo": 120.0
            },
            {
                "start_time": 19.904545454545453,
                "end_time": 20.09318181818182,
                "pitch": 54,
                "velocity": 80,
                "duration": 0.18863636363636616,
                "tempo": 120.0
            },
            {
                "start_time": 20.10909090909091,
                "end_time": 20.31590909090909,
                "pitch": 55,
                "velocity": 80,
                "duration": 0.206818181818182,
                "tempo": 120.0
            },
            {
                "start_time": 20.331818181818182,
                "end_time": 20.43409090909091,
                "pitch": 56,
                "velocity": 80,
                "duration": 0.10227272727272663,
                "tempo": 120.0
            },
            {
                "start_time": 20.45,
                "end_time": 20.534090909090907,
                "pitch": 56,
                "velocity": 80,
                "duration": 0.08409090909090722,
                "tempo": 120.0
            },
            {
                "start_time": 20.55,
                "end_time": 20.634090909090908,
                "pitch": 56,
                "velocity": 80,
                "duration": 0.08409090909090722,
                "tempo": 120.0
            },
            {
                "start_time": 20.65,
                "end_time": 20.849999999999998,
                "pitch": 66,
                "velocity": 80,
                "duration": 0.1999999999999993,
                "tempo": 120.0
            },
            {
                "start_time": 20.86590909090909,
                "end_time": 20.96363636363636,
                "pitch": 66,
                "velocity": 80,
                "duration": 0.09772727272727266,
                "tempo": 120.0
            },
            {
                "start_time": 20.98181818181818,
                "end_time": 21.161363636363635,
                "pitch": 68,
                "velocity": 80,
                "duration": 0.17954545454545467,
                "tempo": 120.0
            },
            {
                "start_time": 21.177272727272726,
                "end_time": 21.368181818181817,
                "pitch": 56,
                "velocity": 80,
                "duration": 0.19090909090909136,
                "tempo": 120.0
            },
            {
                "start_time": 21.384090909090908,
                "end_time": 21.575,
                "pitch": 65,
                "velocity": 80,
                "duration": 0.19090909090909136,
                "tempo": 120.0
            },
            {
                "start_time": 21.59090909090909,
                "end_time": 21.795454545454543,
                "pitch": 66,
                "velocity": 80,
                "duration": 0.20454545454545325,
                "tempo": 120.0
            },
            {
                "start_time": 21.813636363636363,
                "end_time": 22.018181818181816,
                "pitch": 65,
                "velocity": 80,
                "duration": 0.20454545454545325,
                "tempo": 120.0
            },
            {
                "start_time": 22.036363636363635,
                "end_time": 22.120454545454546,
                "pitch": 56,
                "velocity": 80,
                "duration": 0.08409090909091077,
                "tempo": 120.0
            },
            {
                "start_time": 22.136363636363637,
                "end_time": 22.220454545454544,
                "pitch": 56,
                "velocity": 80,
                "duration": 0.08409090909090722,
                "tempo": 120.0
            },
            {
                "start_time": 22.236363636363635,
                "end_time": 22.336363636363636,
                "pitch": 56,
                "velocity": 80,
                "duration": 0.10000000000000142,
                "tempo": 120.0
            },
            {
                "start_time": 22.354545454545452,
                "end_time": 22.552272727272726,
                "pitch": 66,
                "velocity": 80,
                "duration": 0.19772727272727408,
                "tempo": 120.0
            },
            {
                "start_time": 22.568181818181817,
                "end_time": 22.65,
                "pitch": 66,
                "velocity": 80,
                "duration": 0.08181818181818201,
                "tempo": 120.0
            },
            {
                "start_time": 22.668181818181818,
                "end_time": 22.863636363636363,
                "pitch": 68,
                "velocity": 80,
                "duration": 0.19545454545454533,
                "tempo": 120.0
            },
            {
                "start_time": 22.879545454545454,
                "end_time": 23.081818181818182,
                "pitch": 56,
                "velocity": 80,
                "duration": 0.20227272727272805,
                "tempo": 120.0
            },
            {
                "start_time": 23.097727272727273,
                "end_time": 23.28181818181818,
                "pitch": 65,
                "velocity": 80,
                "duration": 0.18409090909090864,
                "tempo": 120.0
            },
            {
                "start_time": 23.297727272727272,
                "end_time": 23.709090909090907,
                "pitch": 66,
                "velocity": 80,
                "duration": 0.41136363636363527,
                "tempo": 120.0
            },
            {
                "start_time": 23.724999999999998,
                "end_time": 23.80909090909091,
                "pitch": 56,
                "velocity": 80,
                "duration": 0.08409090909091077,
                "tempo": 120.0
            },
            {
                "start_time": 23.825,
                "end_time": 23.924999999999997,
                "pitch": 56,
                "velocity": 80,
                "duration": 0.09999999999999787,
                "tempo": 120.0
            },
            {
                "start_time": 23.943181818181817,
                "end_time": 24.025,
                "pitch": 56,
                "velocity": 80,
                "duration": 0.08181818181818201,
                "tempo": 120.0
            },
            {
                "start_time": 24.043181818181818,
                "end_time": 24.243181818181817,
                "pitch": 66,
                "velocity": 80,
                "duration": 0.1999999999999993,
                "tempo": 120.0
            },
            {
                "start_time": 24.259090909090908,
                "end_time": 24.34318181818182,
                "pitch": 66,
                "velocity": 80,
                "duration": 0.08409090909091077,
                "tempo": 120.0
            },
            {
                "start_time": 24.361363636363635,
                "end_time": 24.561363636363634,
                "pitch": 68,
                "velocity": 80,
                "duration": 0.1999999999999993,
                "tempo": 120.0
            },
            {
                "start_time": 24.577272727272724,
                "end_time": 24.775,
                "pitch": 56,
                "velocity": 80,
                "duration": 0.19772727272727408,
                "tempo": 120.0
            },
            {
                "start_time": 24.79090909090909,
                "end_time": 24.988636363636363,
                "pitch": 65,
                "velocity": 80,
                "duration": 0.19772727272727408,
                "tempo": 120.0
            },
            {
                "start_time": 25.004545454545454,
                "end_time": 25.204545454545453,
                "pitch": 66,
                "velocity": 80,
                "duration": 0.1999999999999993,
                "tempo": 120.0
            },
            {
                "start_time": 25.220454545454544,
                "end_time": 25.404545454545453,
                "pitch": 65,
                "velocity": 80,
                "duration": 0.18409090909090864,
                "tempo": 120.0
            },
            {
                "start_time": 25.422727272727272,
                "end_time": 25.520454545454545,
                "pitch": 56,
                "velocity": 80,
                "duration": 0.09772727272727266,
                "tempo": 120.0
            },
            {
                "start_time": 25.536363636363635,
                "end_time": 25.618181818181817,
                "pitch": 56,
                "velocity": 80,
                "duration": 0.08181818181818201,
                "tempo": 120.0
            },
            {
                "start_time": 25.636363636363637,
                "end_time": 25.73409090909091,
                "pitch": 56,
                "velocity": 80,
                "duration": 0.09772727272727266,
                "tempo": 120.0
            },
            {
                "start_time": 25.75,
                "end_time": 25.831818181818182,
                "pitch": 56,
                "velocity": 80,
                "duration": 0.08181818181818201,
                "tempo": 120.0
            },
            {
                "start_time": 25.95,
                "end_time": 26.052272727272726,
                "pitch": 56,
                "velocity": 80,
                "duration": 0.10227272727272663,
                "tempo": 120.0
            },
            {
                "start_time": 26.070454545454545,
                "end_time": 26.154545454545453,
                "pitch": 56,
                "velocity": 80,
                "duration": 0.08409090909090722,
                "tempo": 120.0
            },
            {
                "start_time": 26.172727272727272,
                "end_time": 26.275,
                "pitch": 56,
                "velocity": 80,
                "duration": 0.10227272727272663,
                "tempo": 120.0
            },
            {
                "start_time": 26.488636363636363,
                "end_time": 26.686363636363634,
                "pitch": 53,
                "velocity": 80,
                "duration": 0.19772727272727053,
                "tempo": 120.0
            },
            {
                "start_time": 26.702272727272724,
                "end_time": 26.89772727272727,
                "pitch": 54,
                "velocity": 80,
                "duration": 0.19545454545454533,
                "tempo": 120.0
            },
            {
                "start_time": 26.913636363636364,
                "end_time": 27.111363636363635,
                "pitch": 55,
                "velocity": 80,
                "duration": 0.19772727272727053,
                "tempo": 120.0
            },
            {
                "start_time": 27.127272727272725,
                "end_time": 47.54545454545454,
                "pitch": 56,
                "velocity": 80,
                "duration": 20.418181818181814,
                "tempo": 120.0
            }
        ],
        "Acoustic Bass": [
            {
                "start_time": 8.422727272727272,
                "end_time": 9.674999999999999,
                "pitch": 56,
                "velocity": 101,
                "duration": 1.252272727272727,
                "tempo": 120.0
            },
            {
                "start_time": 10.125,
                "end_time": 11.388636363636364,
                "pitch": 54,
                "velocity": 101,
                "duration": 1.2636363636363637,
                "tempo": 120.0
            },
            {
                "start_time": 11.822727272727272,
                "end_time": 13.077272727272726,
                "pitch": 54,
                "velocity": 101,
                "duration": 1.254545454545454,
                "tempo": 120.0
            }
        ],
        "Electric Guitar (clean)": [
            {
                "start_time": 0.0,
                "end_time": 0.15454545454545454,
                "pitch": 32,
                "velocity": 64,
                "duration": 0.15454545454545454,
                "tempo": 120.0
            },
            {
                "start_time": 0.17045454545454544,
                "end_time": 0.3568181818181818,
                "pitch": 32,
                "velocity": 64,
                "duration": 0.18636363636363637,
                "tempo": 120.0
            },
            {
                "start_time": 0.3727272727272727,
                "end_time": 0.5636363636363636,
                "pitch": 44,
                "velocity": 64,
                "duration": 0.19090909090909092,
                "tempo": 120.0
            },
            {
                "start_time": 0.5795454545454545,
                "end_time": 0.6590909090909091,
                "pitch": 32,
                "velocity": 64,
                "duration": 0.07954545454545459,
                "tempo": 120.0
            },
            {
                "start_time": 0.6749999999999999,
                "end_time": 0.8681818181818182,
                "pitch": 42,
                "velocity": 64,
                "duration": 0.19318181818181823,
                "tempo": 120.0
            },
            {
                "start_time": 0.884090909090909,
                "end_time": 0.9659090909090908,
                "pitch": 32,
                "velocity": 64,
                "duration": 0.08181818181818179,
                "tempo": 120.0
            },
            {
                "start_time": 0.9818181818181818,
                "end_time": 1.1795454545454545,
                "pitch": 41,
                "velocity": 64,
                "duration": 0.19772727272727264,
                "tempo": 120.0
            },
            {
                "start_time": 1.1954545454545453,
                "end_time": 1.3954545454545453,
                "pitch": 39,
                "velocity": 64,
                "duration": 0.19999999999999996,
                "tempo": 120.0
            },
            {
                "start_time": 1.4136363636363636,
                "end_time": 1.6136363636363635,
                "pitch": 41,
                "velocity": 64,
                "duration": 0.19999999999999996,
                "tempo": 120.0
            },
            {
                "start_time": 1.6295454545454544,
                "end_time": 1.8272727272727272,
                "pitch": 32,
                "velocity": 64,
                "duration": 0.19772727272727275,
                "tempo": 120.0
            },
            {
                "start_time": 1.843181818181818,
                "end_time": 2.0227272727272725,
                "pitch": 32,
                "velocity": 64,
                "duration": 0.17954545454545445,
                "tempo": 120.0
            },
            {
                "start_time": 2.040909090909091,
                "end_time": 2.2409090909090907,
                "pitch": 44,
                "velocity": 64,
                "duration": 0.19999999999999973,
                "tempo": 120.0
            },
            {
                "start_time": 2.256818181818182,
                "end_time": 2.356818181818182,
                "pitch": 32,
                "velocity": 64,
                "duration": 0.10000000000000009,
                "tempo": 120.0
            },
            {
                "start_time": 2.375,
                "end_time": 2.5568181818181817,
                "pitch": 42,
                "velocity": 64,
                "duration": 0.18181818181818166,
                "tempo": 120.0
            },
            {
                "start_time": 2.5727272727272728,
                "end_time": 2.6704545454545454,
                "pitch": 32,
                "velocity": 64,
                "duration": 0.09772727272727266,
                "tempo": 120.0
            },
            {
                "start_time": 2.6886363636363635,
                "end_time": 2.884090909090909,
                "pitch": 41,
                "velocity": 64,
                "duration": 0.19545454545454533,
                "tempo": 120.0
            },
            {
                "start_time": 2.9,
                "end_time": 3.311363636363636,
                "pitch": 39,
                "velocity": 64,
                "duration": 0.41136363636363615,
                "tempo": 120.0
            },
            {
                "start_time": 3.327272727272727,
                "end_time": 3.525,
                "pitch": 32,
                "velocity": 64,
                "duration": 0.19772727272727275,
                "tempo": 120.0
            },
            {
                "start_time": 3.5409090909090906,
                "end_time": 3.7386363636363633,
                "pitch": 32,
                "velocity": 64,
                "duration": 0.19772727272727275,
                "tempo": 120.0
            },
            {
                "start_time": 3.7545454545454544,
                "end_time": 3.954545454545454,
                "pitch": 44,
                "velocity": 64,
                "duration": 0.19999999999999973,
                "tempo": 120.0
            },
            {
                "start_time": 3.9727272727272727,
                "end_time": 4.054545454545455,
                "pitch": 32,
                "velocity": 64,
                "duration": 0.08181818181818201,
                "tempo": 120.0
            },
            {
                "start_time": 4.072727272727272,
                "end_time": 4.268181818181818,
                "pitch": 42,
                "velocity": 64,
                "duration": 0.19545454545454533,
                "tempo": 120.0
            },
            {
                "start_time": 4.284090909090909,
                "end_time": 4.363636363636363,
                "pitch": 32,
                "velocity": 64,
                "duration": 0.07954545454545414,
                "tempo": 120.0
            },
            {
                "start_time": 4.379545454545454,
                "end_time": 4.570454545454545,
                "pitch": 41,
                "velocity": 64,
                "duration": 0.19090909090909136,
                "tempo": 120.0
            },
            {
                "start_time": 4.586363636363636,
                "end_time": 4.790909090909091,
                "pitch": 39,
                "velocity": 64,
                "duration": 0.20454545454545503,
                "tempo": 120.0
            },
            {
                "start_time": 4.809090909090909,
                "end_time": 5.013636363636364,
                "pitch": 41,
                "velocity": 64,
                "duration": 0.20454545454545503,
                "tempo": 120.0
            },
            {
                "start_time": 5.031818181818181,
                "end_time": 5.215909090909091,
                "pitch": 32,
                "velocity": 64,
                "duration": 0.18409090909090953,
                "tempo": 120.0
            },
            {
                "start_time": 5.2318181818181815,
                "end_time": 5.431818181818182,
                "pitch": 32,
                "velocity": 64,
                "duration": 0.20000000000000018,
                "tempo": 120.0
            },
            {
                "start_time": 5.45,
                "end_time": 5.6454545454545455,
                "pitch": 44,
                "velocity": 64,
                "duration": 0.19545454545454533,
                "tempo": 120.0
            },
            {
                "start_time": 5.661363636363636,
                "end_time": 5.743181818181818,
                "pitch": 32,
                "velocity": 64,
                "duration": 0.08181818181818201,
                "tempo": 120.0
            },
            {
                "start_time": 5.761363636363636,
                "end_time": 5.8590909090909085,
                "pitch": 44,
                "velocity": 64,
                "duration": 0.09772727272727266,
                "tempo": 120.0
            },
            {
                "start_time": 6.093181818181818,
                "end_time": 6.277272727272727,
                "pitch": 37,
                "velocity": 64,
                "duration": 0.18409090909090953,
                "tempo": 120.0
            },
            {
                "start_time": 6.293181818181818,
                "end_time": 6.49090909090909,
                "pitch": 38,
                "velocity": 64,
                "duration": 0.1977272727272723,
                "tempo": 120.0
            },
            {
                "start_time": 6.506818181818182,
                "end_time": 6.702272727272727,
                "pitch": 39,
                "velocity": 64,
                "duration": 0.19545454545454533,
                "tempo": 120.0
            },
            {
                "start_time": 6.720454545454545,
                "end_time": 6.925,
                "pitch": 44,
                "velocity": 64,
                "duration": 0.20454545454545503,
                "tempo": 120.0
            },
            {
                "start_time": 6.9409090909090905,
                "end_time": 7.027272727272727,
                "pitch": 32,
                "velocity": 64,
                "duration": 0.08636363636363686,
                "tempo": 120.0
            },
            {
                "start_time": 7.043181818181818,
                "end_time": 7.1477272727272725,
                "pitch": 42,
                "velocity": 64,
                "duration": 0.1045454545454545,
                "tempo": 120.0
            },
            {
                "start_time": 7.163636363636363,
                "end_time": 7.347727272727273,
                "pitch": 32,
                "velocity": 64,
                "duration": 0.18409090909090953,
                "tempo": 120.0
            },
            {
                "start_time": 7.363636363636363,
                "end_time": 7.5659090909090905,
                "pitch": 41,
                "velocity": 64,
                "duration": 0.20227272727272716,
                "tempo": 120.0
            },
            {
                "start_time": 7.581818181818181,
                "end_time": 7.7727272727272725,
                "pitch": 32,
                "velocity": 64,
                "duration": 0.19090909090909136,
                "tempo": 120.0
            },
            {
                "start_time": 7.788636363636363,
                "end_time": 7.9795454545454545,
                "pitch": 39,
                "velocity": 64,
                "duration": 0.19090909090909136,
                "tempo": 120.0
            },
            {
                "start_time": 7.995454545454545,
                "end_time": 8.202272727272726,
                "pitch": 32,
                "velocity": 64,
                "duration": 0.20681818181818112,
                "tempo": 120.0
            },
            {
                "start_time": 8.218181818181817,
                "end_time": 8.406818181818181,
                "pitch": 41,
                "velocity": 64,
                "duration": 0.18863636363636438,
                "tempo": 120.0
            },
            {
                "start_time": 8.422727272727272,
                "end_time": 8.613636363636363,
                "pitch": 44,
                "velocity": 64,
                "duration": 0.19090909090909136,
                "tempo": 120.0
            },
            {
                "start_time": 8.629545454545454,
                "end_time": 8.727272727272727,
                "pitch": 32,
                "velocity": 64,
                "duration": 0.09772727272727266,
                "tempo": 120.0
            },
            {
                "start_time": 8.743181818181817,
                "end_time": 8.822727272727272,
                "pitch": 42,
                "velocity": 64,
                "duration": 0.07954545454545503,
                "tempo": 120.0
            },
            {
                "start_time": 8.838636363636363,
                "end_time": 9.043181818181818,
                "pitch": 32,
                "velocity": 64,
                "duration": 0.20454545454545503,
                "tempo": 120.0
            },
            {
                "start_time": 9.059090909090909,
                "end_time": 9.26590909090909,
                "pitch": 41,
                "velocity": 64,
                "duration": 0.206818181818182,
                "tempo": 120.0
            },
            {
                "start_time": 9.281818181818181,
                "end_time": 9.461363636363636,
                "pitch": 32,
                "velocity": 64,
                "duration": 0.17954545454545467,
                "tempo": 120.0
            },
            {
                "start_time": 9.477272727272727,
                "end_time": 9.674999999999999,
                "pitch": 39,
                "velocity": 64,
                "duration": 0.1977272727272723,
                "tempo": 120.0
            },
            {
                "start_time": 9.69090909090909,
                "end_time": 9.89090909090909,
                "pitch": 32,
                "velocity": 64,
                "duration": 0.20000000000000107,
                "tempo": 120.0
            },
            {
                "start_time": 9.909090909090908,
                "end_time": 10.10909090909091,
                "pitch": 41,
                "velocity": 64,
                "duration": 0.20000000000000107,
                "tempo": 120.0
            },
            {
                "start_time": 10.125,
                "end_time": 10.327272727272726,
                "pitch": 42,
                "velocity": 64,
                "duration": 0.20227272727272627,
                "tempo": 120.0
            },
            {
                "start_time": 10.343181818181817,
                "end_time": 10.427272727272726,
                "pitch": 30,
                "velocity": 64,
                "duration": 0.084090909090909,
                "tempo": 120.0
            },
            {
                "start_time": 10.443181818181818,
                "end_time": 10.527272727272727,
                "pitch": 41,
                "velocity": 64,
                "duration": 0.084090909090909,
                "tempo": 120.0
            },
            {
                "start_time": 10.545454545454545,
                "end_time": 10.74090909090909,
                "pitch": 30,
                "velocity": 64,
                "duration": 0.19545454545454533,
                "tempo": 120.0
            },
            {
                "start_time": 10.756818181818181,
                "end_time": 10.954545454545453,
                "pitch": 39,
                "velocity": 64,
                "duration": 0.1977272727272723,
                "tempo": 120.0
            },
            {
                "start_time": 10.970454545454546,
                "end_time": 11.170454545454545,
                "pitch": 30,
                "velocity": 64,
                "duration": 0.1999999999999993,
                "tempo": 120.0
            },
            {
                "start_time": 11.188636363636363,
                "end_time": 11.388636363636364,
                "pitch": 37,
                "velocity": 64,
                "duration": 0.20000000000000107,
                "tempo": 120.0
            },
            {
                "start_time": 11.404545454545454,
                "end_time": 11.588636363636363,
                "pitch": 30,
                "velocity": 64,
                "duration": 0.18409090909090864,
                "tempo": 120.0
            },
            {
                "start_time": 11.60681818181818,
                "end_time": 11.806818181818182,
                "pitch": 39,
                "velocity": 64,
                "duration": 0.20000000000000107,
                "tempo": 120.0
            },
            {
                "start_time": 11.822727272727272,
                "end_time": 12.020454545454545,
                "pitch": 42,
                "velocity": 64,
                "duration": 0.1977272727272723,
                "tempo": 120.0
            },
            {
                "start_time": 12.036363636363635,
                "end_time": 12.118181818181817,
                "pitch": 30,
                "velocity": 64,
                "duration": 0.08181818181818201,
                "tempo": 120.0
            },
            {
                "start_time": 12.134090909090908,
                "end_time": 12.23409090909091,
                "pitch": 41,
                "velocity": 64,
                "duration": 0.10000000000000142,
                "tempo": 120.0
            },
            {
                "start_time": 12.25,
                "end_time": 12.45,
                "pitch": 30,
                "velocity": 64,
                "duration": 0.1999999999999993,
                "tempo": 120.0
            },
            {
                "start_time": 12.468181818181817,
                "end_time": 12.652272727272727,
                "pitch": 39,
                "velocity": 64,
                "duration": 0.18409090909091042,
                "tempo": 120.0
            },
            {
                "start_time": 12.668181818181818,
                "end_time": 12.863636363636363,
                "pitch": 30,
                "velocity": 64,
                "duration": 0.19545454545454533,
                "tempo": 120.0
            },
            {
                "start_time": 12.881818181818181,
                "end_time": 13.077272727272726,
                "pitch": 37,
                "velocity": 64,
                "duration": 0.19545454545454533,
                "tempo": 120.0
            },
            {
                "start_time": 13.093181818181817,
                "end_time": 13.295454545454545,
                "pitch": 30,
                "velocity": 64,
                "duration": 0.20227272727272805,
                "tempo": 120.0
            },
            {
                "start_time": 13.311363636363636,
                "end_time": 13.511363636363635,
                "pitch": 39,
                "velocity": 64,
                "duration": 0.1999999999999993,
                "tempo": 120.0
            },
            {
                "start_time": 13.529545454545454,
                "end_time": 13.720454545454544,
                "pitch": 32,
                "velocity": 64,
                "duration": 0.19090909090908958,
                "tempo": 120.0
            },
            {
                "start_time": 13.738636363636363,
                "end_time": 13.947727272727272,
                "pitch": 32,
                "velocity": 64,
                "duration": 0.209090909090909,
                "tempo": 120.0
            },
            {
                "start_time": 13.96590909090909,
                "end_time": 14.156818181818181,
                "pitch": 44,
                "velocity": 64,
                "duration": 0.19090909090909136,
                "tempo": 120.0
            },
            {
                "start_time": 14.172727272727272,
                "end_time": 14.252272727272727,
                "pitch": 32,
                "velocity": 64,
                "duration": 0.07954545454545503,
                "tempo": 120.0
            },
            {
                "start_time": 14.268181818181818,
                "end_time": 14.463636363636363,
                "pitch": 42,
                "velocity": 64,
                "duration": 0.19545454545454533,
                "tempo": 120.0
            },
            {
                "start_time": 14.479545454545454,
                "end_time": 14.577272727272726,
                "pitch": 32,
                "velocity": 64,
                "duration": 0.09772727272727266,
                "tempo": 120.0
            },
            {
                "start_time": 14.593181818181817,
                "end_time": 14.774999999999999,
                "pitch": 41,
                "velocity": 64,
                "duration": 0.18181818181818166,
                "tempo": 120.0
            },
            {
                "start_time": 14.790909090909091,
                "end_time": 14.986363636363636,
                "pitch": 39,
                "velocity": 64,
                "duration": 0.19545454545454533,
                "tempo": 120.0
            },
            {
                "start_time": 15.002272727272727,
                "end_time": 15.2,
                "pitch": 41,
                "velocity": 64,
                "duration": 0.1977272727272723,
                "tempo": 120.0
            },
            {
                "start_time": 15.21590909090909,
                "end_time": 15.418181818181818,
                "pitch": 32,
                "velocity": 64,
                "duration": 0.20227272727272805,
                "tempo": 120.0
            },
            {
                "start_time": 15.434090909090909,
                "end_time": 15.634090909090908,
                "pitch": 32,
                "velocity": 64,
                "duration": 0.1999999999999993,
                "tempo": 120.0
            },
            {
                "start_time": 15.652272727272727,
                "end_time": 15.838636363636363,
                "pitch": 44,
                "velocity": 64,
                "duration": 0.18636363636363562,
                "tempo": 120.0
            },
            {
                "start_time": 15.85681818181818,
                "end_time": 15.959090909090909,
                "pitch": 32,
                "velocity": 64,
                "duration": 0.1022727272727284,
                "tempo": 120.0
            },
            {
                "start_time": 15.977272727272727,
                "end_time": 16.175,
                "pitch": 42,
                "velocity": 64,
                "duration": 0.19772727272727408,
                "tempo": 120.0
            },
            {
                "start_time": 16.19090909090909,
                "end_time": 16.270454545454545,
                "pitch": 32,
                "velocity": 64,
                "duration": 0.07954545454545325,
                "tempo": 120.0
            },
            {
                "start_time": 16.286363636363635,
                "end_time": 16.477272727272727,
                "pitch": 41,
                "velocity": 64,
                "duration": 0.19090909090909136,
                "tempo": 120.0
            },
            {
                "start_time": 16.493181818181817,
                "end_time": 16.902272727272727,
                "pitch": 39,
                "velocity": 64,
                "duration": 0.40909090909091006,
                "tempo": 120.0
            },
            {
                "start_time": 16.920454545454543,
                "end_time": 17.11590909090909,
                "pitch": 32,
                "velocity": 64,
                "duration": 0.19545454545454533,
                "tempo": 120.0
            },
            {
                "start_time": 17.134090909090908,
                "end_time": 17.329545454545453,
                "pitch": 32,
                "velocity": 64,
                "duration": 0.19545454545454533,
                "tempo": 120.0
            },
            {
                "start_time": 17.345454545454544,
                "end_time": 17.547727272727272,
                "pitch": 44,
                "velocity": 64,
                "duration": 0.20227272727272805,
                "tempo": 120.0
            },
            {
                "start_time": 17.563636363636363,
                "end_time": 17.647727272727273,
                "pitch": 32,
                "velocity": 64,
                "duration": 0.08409090909091077,
                "tempo": 120.0
            },
            {
                "start_time": 17.663636363636364,
                "end_time": 17.86590909090909,
                "pitch": 42,
                "velocity": 64,
                "duration": 0.2022727272727245,
                "tempo": 120.0
            },
            {
                "start_time": 17.881818181818183,
                "end_time": 17.96590909090909,
                "pitch": 32,
                "velocity": 64,
                "duration": 0.08409090909090722,
                "tempo": 120.0
            },
            {
                "start_time": 17.98181818181818,
                "end_time": 18.18181818181818,
                "pitch": 41,
                "velocity": 64,
                "duration": 0.1999999999999993,
                "tempo": 120.0
            },
            {
                "start_time": 18.2,
                "end_time": 18.395454545454545,
                "pitch": 39,
                "velocity": 64,
                "duration": 0.19545454545454533,
                "tempo": 120.0
            },
            {
                "start_time": 18.413636363636364,
                "end_time": 18.60909090909091,
                "pitch": 41,
                "velocity": 64,
                "duration": 0.19545454545454533,
                "tempo": 120.0
            },
            {
                "start_time": 18.625,
                "end_time": 18.827272727272728,
                "pitch": 32,
                "velocity": 64,
                "duration": 0.20227272727272805,
                "tempo": 120.0
            },
            {
                "start_time": 18.84318181818182,
                "end_time": 19.027272727272727,
                "pitch": 32,
                "velocity": 64,
                "duration": 0.18409090909090864,
                "tempo": 120.0
            },
            {
                "start_time": 19.043181818181818,
                "end_time": 19.24090909090909,
                "pitch": 44,
                "velocity": 64,
                "duration": 0.19772727272727053,
                "tempo": 120.0
            },
            {
                "start_time": 19.25681818181818,
                "end_time": 19.354545454545452,
                "pitch": 32,
                "velocity": 64,
                "duration": 0.09772727272727266,
                "tempo": 120.0
            },
            {
                "start_time": 19.370454545454546,
                "end_time": 19.454545454545453,
                "pitch": 44,
                "velocity": 64,
                "duration": 0.08409090909090722,
                "tempo": 120.0
            },
            {
                "start_time": 19.686363636363634,
                "end_time": 19.888636363636362,
                "pitch": 37,
                "velocity": 64,
                "duration": 0.20227272727272805,
                "tempo": 120.0
            },
            {
                "start_time": 19.904545454545453,
                "end_time": 20.09318181818182,
                "pitch": 38,
                "velocity": 64,
                "duration": 0.18863636363636616,
                "tempo": 120.0
            },
            {
                "start_time": 20.10909090909091,
                "end_time": 20.31590909090909,
                "pitch": 39,
                "velocity": 64,
                "duration": 0.206818181818182,
                "tempo": 120.0
            },
            {
                "start_time": 20.331818181818182,
                "end_time": 20.534090909090907,
                "pitch": 32,
                "velocity": 64,
                "duration": 0.2022727272727245,
                "tempo": 120.0
            },
            {
                "start_time": 20.55,
                "end_time": 20.75,
                "pitch": 32,
                "velocity": 64,
                "duration": 0.1999999999999993,
                "tempo": 120.0
            },
            {
                "start_time": 20.768181818181816,
                "end_time": 20.96363636363636,
                "pitch": 44,
                "velocity": 64,
                "duration": 0.19545454545454533,
                "tempo": 120.0
            },
            {
                "start_time": 20.98181818181818,
                "end_time": 21.063636363636363,
                "pitch": 32,
                "velocity": 64,
                "duration": 0.08181818181818201,
                "tempo": 120.0
            },
            {
                "start_time": 21.079545454545453,
                "end_time": 21.272727272727273,
                "pitch": 42,
                "velocity": 64,
                "duration": 0.19318181818182012,
                "tempo": 120.0
            },
            {
                "start_time": 21.288636363636364,
                "end_time": 21.368181818181817,
                "pitch": 32,
                "velocity": 64,
                "duration": 0.07954545454545325,
                "tempo": 120.0
            },
            {
                "start_time": 21.384090909090908,
                "end_time": 21.575,
                "pitch": 41,
                "velocity": 64,
                "duration": 0.19090909090909136,
                "tempo": 120.0
            },
            {
                "start_time": 21.59090909090909,
                "end_time": 21.795454545454543,
                "pitch": 39,
                "velocity": 64,
                "duration": 0.20454545454545325,
                "tempo": 120.0
            },
            {
                "start_time": 21.813636363636363,
                "end_time": 22.018181818181816,
                "pitch": 41,
                "velocity": 64,
                "duration": 0.20454545454545325,
                "tempo": 120.0
            },
            {
                "start_time": 22.036363636363635,
                "end_time": 22.220454545454544,
                "pitch": 32,
                "velocity": 64,
                "duration": 0.18409090909090864,
                "tempo": 120.0
            },
            {
                "start_time": 22.236363636363635,
                "end_time": 22.438636363636363,
                "pitch": 32,
                "velocity": 64,
                "duration": 0.20227272727272805,
                "tempo": 120.0
            },
            {
                "start_time": 22.454545454545453,
                "end_time": 22.65,
                "pitch": 44,
                "velocity": 64,
                "duration": 0.19545454545454533,
                "tempo": 120.0
            },
            {
                "start_time": 22.668181818181818,
                "end_time": 22.75,
                "pitch": 32,
                "velocity": 64,
                "duration": 0.08181818181818201,
                "tempo": 120.0
            },
            {
                "start_time": 22.76590909090909,
                "end_time": 22.96363636363636,
                "pitch": 42,
                "velocity": 64,
                "duration": 0.19772727272727053,
                "tempo": 120.0
            },
            {
                "start_time": 22.979545454545452,
                "end_time": 23.081818181818182,
                "pitch": 32,
                "velocity": 64,
                "duration": 0.10227272727273018,
                "tempo": 120.0
            },
            {
                "start_time": 23.097727272727273,
                "end_time": 23.28181818181818,
                "pitch": 41,
                "velocity": 64,
                "duration": 0.18409090909090864,
                "tempo": 120.0
            },
            {
                "start_time": 23.297727272727272,
                "end_time": 23.709090909090907,
                "pitch": 39,
                "velocity": 64,
                "duration": 0.41136363636363527,
                "tempo": 120.0
            },
            {
                "start_time": 23.724999999999998,
                "end_time": 23.924999999999997,
                "pitch": 32,
                "velocity": 64,
                "duration": 0.1999999999999993,
                "tempo": 120.0
            },
            {
                "start_time": 23.943181818181817,
                "end_time": 24.143181818181816,
                "pitch": 32,
                "velocity": 64,
                "duration": 0.1999999999999993,
                "tempo": 120.0
            },
            {
                "start_time": 24.159090909090907,
                "end_time": 24.34318181818182,
                "pitch": 44,
                "velocity": 64,
                "duration": 0.1840909090909122,
                "tempo": 120.0
            },
            {
                "start_time": 24.361363636363635,
                "end_time": 24.461363636363636,
                "pitch": 32,
                "velocity": 64,
                "duration": 0.10000000000000142,
                "tempo": 120.0
            },
            {
                "start_time": 24.477272727272727,
                "end_time": 24.677272727272726,
                "pitch": 42,
                "velocity": 64,
                "duration": 0.1999999999999993,
                "tempo": 120.0
            },
            {
                "start_time": 24.693181818181817,
                "end_time": 24.775,
                "pitch": 32,
                "velocity": 64,
                "duration": 0.08181818181818201,
                "tempo": 120.0
            },
            {
                "start_time": 24.79090909090909,
                "end_time": 24.988636363636363,
                "pitch": 41,
                "velocity": 64,
                "duration": 0.19772727272727408,
                "tempo": 120.0
            },
            {
                "start_time": 25.004545454545454,
                "end_time": 25.204545454545453,
                "pitch": 39,
                "velocity": 64,
                "duration": 0.1999999999999993,
                "tempo": 120.0
            },
            {
                "start_time": 25.220454545454544,
                "end_time": 25.404545454545453,
                "pitch": 41,
                "velocity": 64,
                "duration": 0.18409090909090864,
                "tempo": 120.0
            },
            {
                "start_time": 25.422727272727272,
                "end_time": 25.618181818181817,
                "pitch": 32,
                "velocity": 64,
                "duration": 0.19545454545454533,
                "tempo": 120.0
            },
            {
                "start_time": 25.636363636363637,
                "end_time": 25.831818181818182,
                "pitch": 32,
                "velocity": 64,
                "duration": 0.19545454545454533,
                "tempo": 120.0
            },
            {
                "start_time": 25.847727272727273,
                "end_time": 26.052272727272726,
                "pitch": 44,
                "velocity": 64,
                "duration": 0.20454545454545325,
                "tempo": 120.0
            },
            {
                "start_time": 26.070454545454545,
                "end_time": 26.154545454545453,
                "pitch": 32,
                "velocity": 64,
                "duration": 0.08409090909090722,
                "tempo": 120.0
            },
            {
                "start_time": 26.172727272727272,
                "end_time": 26.275,
                "pitch": 44,
                "velocity": 64,
                "duration": 0.10227272727272663,
                "tempo": 120.0
            },
            {
                "start_time": 26.488636363636363,
                "end_time": 26.686363636363634,
                "pitch": 37,
                "velocity": 64,
                "duration": 0.19772727272727053,
                "tempo": 120.0
            },
            {
                "start_time": 26.702272727272724,
                "end_time": 26.89772727272727,
                "pitch": 38,
                "velocity": 64,
                "duration": 0.19545454545454533,
                "tempo": 120.0
            },
            {
                "start_time": 26.913636363636364,
                "end_time": 27.111363636363635,
                "pitch": 39,
                "velocity": 64,
                "duration": 0.19772727272727053,
                "tempo": 120.0
            },
            {
                "start_time": 27.127272727272725,
                "end_time": 27.440909090909088,
                "pitch": 32,
                "velocity": 64,
                "duration": 0.3136363636363626,
                "tempo": 120.0
            },
            {
                "start_time": 27.459090909090907,
                "end_time": 27.545454545454543,
                "pitch": 32,
                "velocity": 64,
                "duration": 0.08636363636363598,
                "tempo": 120.0
            },
            {
                "start_time": 27.563636363636363,
                "end_time": 27.96363636363636,
                "pitch": 44,
                "velocity": 64,
                "duration": 0.3999999999999986,
                "tempo": 120.0
            },
            {
                "start_time": 27.979545454545452,
                "end_time": 28.061363636363634,
                "pitch": 32,
                "velocity": 64,
                "duration": 0.08181818181818201,
                "tempo": 120.0
            },
            {
                "start_time": 28.077272727272724,
                "end_time": 28.174999999999997,
                "pitch": 42,
                "velocity": 64,
                "duration": 0.09772727272727266,
                "tempo": 120.0
            },
            {
                "start_time": 28.190909090909088,
                "end_time": 28.27272727272727,
                "pitch": 32,
                "velocity": 64,
                "duration": 0.08181818181818201,
                "tempo": 120.0
            },
            {
                "start_time": 28.29090909090909,
                "end_time": 28.388636363636362,
                "pitch": 41,
                "velocity": 64,
                "duration": 0.09772727272727266,
                "tempo": 120.0
            },
            {
                "start_time": 28.404545454545453,
                "end_time": 28.815909090909088,
                "pitch": 39,
                "velocity": 64,
                "duration": 0.41136363636363527,
                "tempo": 120.0
            },
            {
                "start_time": 28.831818181818182,
                "end_time": 29.118181818181817,
                "pitch": 32,
                "velocity": 64,
                "duration": 0.28636363636363527,
                "tempo": 120.0
            },
            {
                "start_time": 29.134090909090908,
                "end_time": 29.229545454545452,
                "pitch": 32,
                "velocity": 64,
                "duration": 0.0954545454545439,
                "tempo": 120.0
            },
            {
                "start_time": 29.245454545454542,
                "end_time": 29.452272727272724,
                "pitch": 44,
                "velocity": 64,
                "duration": 0.206818181818182,
                "tempo": 120.0
            },
            {
                "start_time": 29.468181818181815,
                "end_time": 29.65681818181818,
                "pitch": 32,
                "velocity": 64,
                "duration": 0.18863636363636616,
                "tempo": 120.0
            },
            {
                "start_time": 29.672727272727272,
                "end_time": 29.77272727272727,
                "pitch": 42,
                "velocity": 64,
                "duration": 0.09999999999999787,
                "tempo": 120.0
            },
            {
                "start_time": 29.78863636363636,
                "end_time": 29.870454545454542,
                "pitch": 32,
                "velocity": 64,
                "duration": 0.08181818181818201,
                "tempo": 120.0
            },
            {
                "start_time": 29.886363636363637,
                "end_time": 29.98409090909091,
                "pitch": 41,
                "velocity": 64,
                "duration": 0.09772727272727266,
                "tempo": 120.0
            },
            {
                "start_time": 30.002272727272725,
                "end_time": 30.084090909090907,
                "pitch": 32,
                "velocity": 64,
                "duration": 0.08181818181818201,
                "tempo": 120.0
            },
            {
                "start_time": 30.099999999999998,
                "end_time": 30.299999999999997,
                "pitch": 39,
                "velocity": 64,
                "duration": 0.1999999999999993,
                "tempo": 120.0
            },
            {
                "start_time": 30.318181818181817,
                "end_time": 30.518181818181816,
                "pitch": 41,
                "velocity": 64,
                "duration": 0.1999999999999993,
                "tempo": 120.0
            },
            {
                "start_time": 30.534090909090907,
                "end_time": 30.836363636363636,
                "pitch": 30,
                "velocity": 64,
                "duration": 0.30227272727272947,
                "tempo": 120.0
            },
            {
                "start_time": 30.852272727272727,
                "end_time": 30.936363636363634,
                "pitch": 30,
                "velocity": 64,
                "duration": 0.08409090909090722,
                "tempo": 120.0
            },
            {
                "start_time": 30.952272727272724,
                "end_time": 31.15,
                "pitch": 42,
                "velocity": 64,
                "duration": 0.19772727272727408,
                "tempo": 120.0
            },
            {
                "start_time": 31.16590909090909,
                "end_time": 31.363636363636363,
                "pitch": 30,
                "velocity": 64,
                "duration": 0.19772727272727408,
                "tempo": 120.0
            },
            {
                "start_time": 31.379545454545454,
                "end_time": 31.46363636363636,
                "pitch": 41,
                "velocity": 64,
                "duration": 0.08409090909090722,
                "tempo": 120.0
            },
            {
                "start_time": 31.479545454545452,
                "end_time": 31.579545454545453,
                "pitch": 30,
                "velocity": 64,
                "duration": 0.10000000000000142,
                "tempo": 120.0
            },
            {
                "start_time": 31.595454545454544,
                "end_time": 31.679545454545455,
                "pitch": 39,
                "velocity": 64,
                "duration": 0.08409090909091077,
                "tempo": 120.0
            },
            {
                "start_time": 31.69772727272727,
                "end_time": 31.779545454545453,
                "pitch": 30,
                "velocity": 64,
                "duration": 0.08181818181818201,
                "tempo": 120.0
            },
            {
                "start_time": 31.797727272727272,
                "end_time": 31.993181818181817,
                "pitch": 37,
                "velocity": 64,
                "duration": 0.19545454545454533,
                "tempo": 120.0
            },
            {
                "start_time": 32.01136363636363,
                "end_time": 32.20681818181818,
                "pitch": 39,
                "velocity": 64,
                "duration": 0.19545454545454533,
                "tempo": 120.0
            },
            {
                "start_time": 32.22272727272727,
                "end_time": 32.425,
                "pitch": 30,
                "velocity": 64,
                "duration": 0.20227272727272805,
                "tempo": 120.0
            },
            {
                "start_time": 32.44090909090909,
                "end_time": 32.525,
                "pitch": 42,
                "velocity": 64,
                "duration": 0.08409090909091077,
                "tempo": 120.0
            },
            {
                "start_time": 32.54090909090909,
                "end_time": 32.64090909090909,
                "pitch": 30,
                "velocity": 64,
                "duration": 0.10000000000000142,
                "tempo": 120.0
            },
            {
                "start_time": 32.65909090909091,
                "end_time": 32.845454545454544,
                "pitch": 41,
                "velocity": 64,
                "duration": 0.1863636363636374,
                "tempo": 120.0
            },
            {
                "start_time": 32.86363636363636,
                "end_time": 33.06818181818182,
                "pitch": 30,
                "velocity": 64,
                "duration": 0.20454545454546036,
                "tempo": 120.0
            },
            {
                "start_time": 33.086363636363636,
                "end_time": 33.18181818181818,
                "pitch": 39,
                "velocity": 64,
                "duration": 0.0954545454545439,
                "tempo": 120.0
            },
            {
                "start_time": 33.19772727272727,
                "end_time": 33.277272727272724,
                "pitch": 30,
                "velocity": 64,
                "duration": 0.07954545454545325,
                "tempo": 120.0
            },
            {
                "start_time": 33.293181818181814,
                "end_time": 33.37272727272727,
                "pitch": 41,
                "velocity": 64,
                "duration": 0.07954545454545325,
                "tempo": 120.0
            },
            {
                "start_time": 33.388636363636365,
                "end_time": 33.48409090909091,
                "pitch": 30,
                "velocity": 64,
                "duration": 0.0954545454545439,
                "tempo": 120.0
            },
            {
                "start_time": 33.5,
                "end_time": 33.58409090909091,
                "pitch": 39,
                "velocity": 64,
                "duration": 0.08409090909091077,
                "tempo": 120.0
            },
            {
                "start_time": 33.60227272727273,
                "end_time": 33.70454545454545,
                "pitch": 41,
                "velocity": 64,
                "duration": 0.10227272727272663,
                "tempo": 120.0
            },
            {
                "start_time": 33.72272727272727,
                "end_time": 33.90909090909091,
                "pitch": 39,
                "velocity": 64,
                "duration": 0.1863636363636374,
                "tempo": 120.0
            },
            {
                "start_time": 33.92727272727272,
                "end_time": 34.23863636363636,
                "pitch": 32,
                "velocity": 64,
                "duration": 0.3113636363636374,
                "tempo": 120.0
            },
            {
                "start_time": 34.25454545454545,
                "end_time": 34.336363636363636,
                "pitch": 32,
                "velocity": 64,
                "duration": 0.08181818181818556,
                "tempo": 120.0
            },
            {
                "start_time": 34.35454545454545,
                "end_time": 34.77272727272727,
                "pitch": 44,
                "velocity": 64,
                "duration": 0.41818181818182154,
                "tempo": 120.0
            },
            {
                "start_time": 34.788636363636364,
                "end_time": 34.87272727272727,
                "pitch": 32,
                "velocity": 64,
                "duration": 0.08409090909090366,
                "tempo": 120.0
            },
            {
                "start_time": 34.888636363636365,
                "end_time": 34.97272727272727,
                "pitch": 42,
                "velocity": 64,
                "duration": 0.08409090909090366,
                "tempo": 120.0
            },
            {
                "start_time": 34.98863636363636,
                "end_time": 35.08863636363636,
                "pitch": 32,
                "velocity": 64,
                "duration": 0.10000000000000142,
                "tempo": 120.0
            },
            {
                "start_time": 35.10681818181818,
                "end_time": 35.19090909090909,
                "pitch": 41,
                "velocity": 64,
                "duration": 0.08409090909091077,
                "tempo": 120.0
            },
            {
                "start_time": 35.20681818181818,
                "end_time": 35.60454545454545,
                "pitch": 39,
                "velocity": 64,
                "duration": 0.3977272727272734,
                "tempo": 120.0
            },
            {
                "start_time": 35.62045454545454,
                "end_time": 35.92727272727272,
                "pitch": 32,
                "velocity": 64,
                "duration": 0.3068181818181799,
                "tempo": 120.0
            },
            {
                "start_time": 35.945454545454545,
                "end_time": 36.03181818181818,
                "pitch": 32,
                "velocity": 64,
                "duration": 0.08636363636363598,
                "tempo": 120.0
            },
            {
                "start_time": 36.04772727272727,
                "end_time": 36.24545454545454,
                "pitch": 44,
                "velocity": 64,
                "duration": 0.19772727272727053,
                "tempo": 120.0
            },
            {
                "start_time": 36.26136363636363,
                "end_time": 36.45681818181818,
                "pitch": 32,
                "velocity": 64,
                "duration": 0.19545454545454533,
                "tempo": 120.0
            },
            {
                "start_time": 36.475,
                "end_time": 36.55681818181818,
                "pitch": 42,
                "velocity": 64,
                "duration": 0.08181818181817846,
                "tempo": 120.0
            },
            {
                "start_time": 36.574999999999996,
                "end_time": 36.675,
                "pitch": 32,
                "velocity": 64,
                "duration": 0.10000000000000142,
                "tempo": 120.0
            },
            {
                "start_time": 36.69090909090909,
                "end_time": 36.775,
                "pitch": 41,
                "velocity": 64,
                "duration": 0.08409090909091077,
                "tempo": 120.0
            },
            {
                "start_time": 36.793181818181814,
                "end_time": 36.893181818181816,
                "pitch": 32,
                "velocity": 64,
                "duration": 0.10000000000000142,
                "tempo": 120.0
            },
            {
                "start_time": 36.90909090909091,
                "end_time": 37.09318181818182,
                "pitch": 39,
                "velocity": 64,
                "duration": 0.1840909090909122,
                "tempo": 120.0
            },
            {
                "start_time": 37.10909090909091,
                "end_time": 37.31136363636364,
                "pitch": 41,
                "velocity": 64,
                "duration": 0.20227272727272805,
                "tempo": 120.0
            },
            {
                "start_time": 37.32727272727273,
                "end_time": 37.62272727272727,
                "pitch": 32,
                "velocity": 64,
                "duration": 0.29545454545453964,
                "tempo": 120.0
            },
            {
                "start_time": 37.63863636363636,
                "end_time": 37.736363636363635,
                "pitch": 32,
                "velocity": 64,
                "duration": 0.09772727272727622,
                "tempo": 120.0
            },
            {
                "start_time": 37.75454545454545,
                "end_time": 37.95909090909091,
                "pitch": 44,
                "velocity": 64,
                "duration": 0.20454545454546036,
                "tempo": 120.0
            },
            {
                "start_time": 37.975,
                "end_time": 38.163636363636364,
                "pitch": 32,
                "velocity": 64,
                "duration": 0.1886363636363626,
                "tempo": 120.0
            },
            {
                "start_time": 38.179545454545455,
                "end_time": 38.277272727272724,
                "pitch": 42,
                "velocity": 64,
                "duration": 0.09772727272726911,
                "tempo": 120.0
            },
            {
                "start_time": 38.293181818181814,
                "end_time": 38.37272727272727,
                "pitch": 32,
                "velocity": 64,
                "duration": 0.07954545454545325,
                "tempo": 120.0
            },
            {
                "start_time": 38.38863636363636,
                "end_time": 38.48409090909091,
                "pitch": 41,
                "velocity": 64,
                "duration": 0.09545454545455101,
                "tempo": 120.0
            },
            {
                "start_time": 38.5,
                "end_time": 38.57954545454545,
                "pitch": 32,
                "velocity": 64,
                "duration": 0.07954545454545325,
                "tempo": 120.0
            },
            {
                "start_time": 38.595454545454544,
                "end_time": 38.79545454545455,
                "pitch": 39,
                "velocity": 64,
                "duration": 0.20000000000000284,
                "tempo": 120.0
            },
            {
                "start_time": 38.81363636363636,
                "end_time": 39.01363636363636,
                "pitch": 41,
                "velocity": 64,
                "duration": 0.19999999999999574,
                "tempo": 120.0
            },
            {
                "start_time": 39.029545454545456,
                "end_time": 39.21363636363636,
                "pitch": 32,
                "velocity": 64,
                "duration": 0.18409090909090509,
                "tempo": 120.0
            },
            {
                "start_time": 39.23181818181818,
                "end_time": 39.33181818181818,
                "pitch": 44,
                "velocity": 64,
                "duration": 0.10000000000000142,
                "tempo": 120.0
            },
            {
                "start_time": 39.34772727272727,
                "end_time": 39.43181818181818,
                "pitch": 32,
                "velocity": 64,
                "duration": 0.08409090909091077,
                "tempo": 120.0
            },
            {
                "start_time": 39.44772727272727,
                "end_time": 39.64545454545454,
                "pitch": 44,
                "velocity": 64,
                "duration": 0.19772727272727053,
                "tempo": 120.0
            },
            {
                "start_time": 39.66136363636363,
                "end_time": 39.85909090909091,
                "pitch": 32,
                "velocity": 64,
                "duration": 0.19772727272727764,
                "tempo": 120.0
            },
            {
                "start_time": 39.875,
                "end_time": 39.959090909090904,
                "pitch": 42,
                "velocity": 64,
                "duration": 0.08409090909090366,
                "tempo": 120.0
            },
            {
                "start_time": 39.975,
                "end_time": 40.074999999999996,
                "pitch": 32,
                "velocity": 64,
                "duration": 0.09999999999999432,
                "tempo": 120.0
            },
            {
                "start_time": 40.090909090909086,
                "end_time": 40.175,
                "pitch": 41,
                "velocity": 64,
                "duration": 0.08409090909091077,
                "tempo": 120.0
            },
            {
                "start_time": 40.19318181818181,
                "end_time": 40.275,
                "pitch": 32,
                "velocity": 64,
                "duration": 0.08181818181818556,
                "tempo": 120.0
            },
            {
                "start_time": 40.293181818181814,
                "end_time": 40.39090909090909,
                "pitch": 39,
                "velocity": 64,
                "duration": 0.09772727272727622,
                "tempo": 120.0
            },
            {
                "start_time": 40.40681818181818,
                "end_time": 40.48863636363636,
                "pitch": 41,
                "velocity": 64,
                "duration": 0.08181818181817846,
                "tempo": 120.0
            },
            {
                "start_time": 40.50681818181818,
                "end_time": 40.70227272727273,
                "pitch": 39,
                "velocity": 64,
                "duration": 0.19545454545454533,
                "tempo": 120.0
            },
            {
                "start_time": 40.71818181818182,
                "end_time": 41.027272727272724,
                "pitch": 32,
                "velocity": 64,
                "duration": 0.3090909090909051,
                "tempo": 120.0
            },
            {
                "start_time": 41.043181818181814,
                "end_time": 41.14545454545454,
                "pitch": 32,
                "velocity": 64,
                "duration": 0.10227272727272663,
                "tempo": 120.0
            },
            {
                "start_time": 41.163636363636364,
                "end_time": 41.56363636363636,
                "pitch": 44,
                "velocity": 64,
                "duration": 0.3999999999999986,
                "tempo": 120.0
            },
            {
                "start_time": 41.58181818181818,
                "end_time": 41.67727272727272,
                "pitch": 32,
                "velocity": 64,
                "duration": 0.0954545454545439,
                "tempo": 120.0
            },
            {
                "start_time": 41.69318181818181,
                "end_time": 41.77272727272727,
                "pitch": 42,
                "velocity": 64,
                "duration": 0.07954545454546036,
                "tempo": 120.0
            },
            {
                "start_time": 41.788636363636364,
                "end_time": 41.86818181818182,
                "pitch": 32,
                "velocity": 64,
                "duration": 0.07954545454545325,
                "tempo": 120.0
            },
            {
                "start_time": 41.88409090909091,
                "end_time": 41.97954545454545,
                "pitch": 41,
                "velocity": 64,
                "duration": 0.0954545454545439,
                "tempo": 120.0
            },
            {
                "start_time": 41.99545454545454,
                "end_time": 42.40681818181818,
                "pitch": 39,
                "velocity": 64,
                "duration": 0.4113636363636388,
                "tempo": 120.0
            },
            {
                "start_time": 42.42272727272727,
                "end_time": 42.73409090909091,
                "pitch": 32,
                "velocity": 64,
                "duration": 0.3113636363636374,
                "tempo": 120.0
            },
            {
                "start_time": 42.75,
                "end_time": 42.83181818181818,
                "pitch": 32,
                "velocity": 64,
                "duration": 0.08181818181817846,
                "tempo": 120.0
            },
            {
                "start_time": 42.85,
                "end_time": 43.05,
                "pitch": 44,
                "velocity": 64,
                "duration": 0.19999999999999574,
                "tempo": 120.0
            },
            {
                "start_time": 43.06590909090909,
                "end_time": 43.268181818181816,
                "pitch": 32,
                "velocity": 64,
                "duration": 0.20227272727272805,
                "tempo": 120.0
            },
            {
                "start_time": 43.28409090909091,
                "end_time": 43.36818181818182,
                "pitch": 42,
                "velocity": 64,
                "duration": 0.08409090909091077,
                "tempo": 120.0
            },
            {
                "start_time": 43.38409090909091,
                "end_time": 43.46818181818182,
                "pitch": 32,
                "velocity": 64,
                "duration": 0.08409090909091077,
                "tempo": 120.0
            },
            {
                "start_time": 43.48409090909091,
                "end_time": 43.584090909090904,
                "pitch": 41,
                "velocity": 64,
                "duration": 0.09999999999999432,
                "tempo": 120.0
            },
            {
                "start_time": 43.60227272727273,
                "end_time": 43.68636363636364,
                "pitch": 32,
                "velocity": 64,
                "duration": 0.08409090909091077,
                "tempo": 120.0
            },
            {
                "start_time": 43.70227272727273,
                "end_time": 43.9,
                "pitch": 39,
                "velocity": 64,
                "duration": 0.19772727272727053,
                "tempo": 120.0
            },
            {
                "start_time": 43.91590909090909,
                "end_time": 44.111363636363635,
                "pitch": 41,
                "velocity": 64,
                "duration": 0.19545454545454533,
                "tempo": 120.0
            },
            {
                "start_time": 44.127272727272725,
                "end_time": 44.429545454545455,
                "pitch": 30,
                "velocity": 64,
                "duration": 0.30227272727272947,
                "tempo": 120.0
            },
            {
                "start_time": 44.445454545454545,
                "end_time": 44.52954545454545,
                "pitch": 30,
                "velocity": 64,
                "duration": 0.08409090909090366,
                "tempo": 120.0
            },
            {
                "start_time": 44.54772727272727,
                "end_time": 44.74318181818182,
                "pitch": 42,
                "velocity": 64,
                "duration": 0.19545454545454533,
                "tempo": 120.0
            },
            {
                "start_time": 44.75909090909091,
                "end_time": 44.95681818181818,
                "pitch": 30,
                "velocity": 64,
                "duration": 0.19772727272727053,
                "tempo": 120.0
            },
            {
                "start_time": 44.97272727272727,
                "end_time": 45.05681818181818,
                "pitch": 41,
                "velocity": 64,
                "duration": 0.08409090909091077,
                "tempo": 120.0
            },
            {
                "start_time": 45.07272727272727,
                "end_time": 45.17272727272727,
                "pitch": 30,
                "velocity": 64,
                "duration": 0.10000000000000142,
                "tempo": 120.0
            },
            {
                "start_time": 45.19090909090909,
                "end_time": 45.27272727272727,
                "pitch": 39,
                "velocity": 64,
                "duration": 0.08181818181818556,
                "tempo": 120.0
            },
            {
                "start_time": 45.29090909090909,
                "end_time": 45.39090909090909,
                "pitch": 30,
                "velocity": 64,
                "duration": 0.10000000000000142,
                "tempo": 120.0
            },
            {
                "start_time": 45.40681818181818,
                "end_time": 45.590909090909086,
                "pitch": 37,
                "velocity": 64,
                "duration": 0.18409090909090509,
                "tempo": 120.0
            },
            {
                "start_time": 45.60909090909091,
                "end_time": 45.809090909090905,
                "pitch": 39,
                "velocity": 64,
                "duration": 0.19999999999999574,
                "tempo": 120.0
            },
            {
                "start_time": 45.824999999999996,
                "end_time": 46.02272727272727,
                "pitch": 30,
                "velocity": 64,
                "duration": 0.19772727272727764,
                "tempo": 120.0
            },
            {
                "start_time": 46.038636363636364,
                "end_time": 46.12045454545454,
                "pitch": 42,
                "velocity": 64,
                "duration": 0.08181818181817846,
                "tempo": 120.0
            },
            {
                "start_time": 46.13636363636363,
                "end_time": 46.236363636363635,
                "pitch": 30,
                "velocity": 64,
                "duration": 0.10000000000000142,
                "tempo": 120.0
            },
            {
                "start_time": 46.252272727272725,
                "end_time": 46.45681818181818,
                "pitch": 41,
                "velocity": 64,
                "duration": 0.20454545454545325,
                "tempo": 120.0
            },
            {
                "start_time": 46.474999999999994,
                "end_time": 46.66136363636363,
                "pitch": 30,
                "velocity": 64,
                "duration": 0.1863636363636374,
                "tempo": 120.0
            },
            {
                "start_time": 46.679545454545455,
                "end_time": 46.775,
                "pitch": 39,
                "velocity": 64,
                "duration": 0.0954545454545439,
                "tempo": 120.0
            },
            {
                "start_time": 46.79090909090909,
                "end_time": 46.87045454545454,
                "pitch": 30,
                "velocity": 64,
                "duration": 0.07954545454545325,
                "tempo": 120.0
            },
            {
                "start_time": 46.88636363636363,
                "end_time": 46.98181818181818,
                "pitch": 41,
                "velocity": 64,
                "duration": 0.0954545454545439,
                "tempo": 120.0
            },
            {
                "start_time": 46.99772727272727,
                "end_time": 47.07727272727273,
                "pitch": 30,
                "velocity": 64,
                "duration": 0.07954545454546036,
                "tempo": 120.0
            },
            {
                "start_time": 47.09318181818182,
                "end_time": 47.17727272727272,
                "pitch": 39,
                "velocity": 64,
                "duration": 0.08409090909090366,
                "tempo": 120.0
            },
            {
                "start_time": 47.19318181818181,
                "end_time": 47.293181818181814,
                "pitch": 41,
                "velocity": 64,
                "duration": 0.10000000000000142,
                "tempo": 120.0
            },
            {
                "start_time": 47.31136363636364,
                "end_time": 47.51136363636363,
                "pitch": 39,
                "velocity": 64,
                "duration": 0.19999999999999574,
                "tempo": 120.0
            },
            {
                "start_time": 47.52954545454545,
                "end_time": 47.54545454545454,
                "pitch": 32,
                "velocity": 64,
                "duration": 0.01590909090909065,
                "tempo": 120.0
            }
        ],
        "Oboe": [
            {
                "start_time": 0.0,
                "end_time": 0.06136363636363636,
                "pitch": 48,
                "velocity": 64,
                "duration": 0.06136363636363636,
                "tempo": 120.0
            },
            {
                "start_time": 0.07727272727272727,
                "end_time": 0.15454545454545454,
                "pitch": 48,
                "velocity": 64,
                "duration": 0.07727272727272727,
                "tempo": 120.0
            },
            {
                "start_time": 0.17045454545454544,
                "end_time": 0.2636363636363636,
                "pitch": 48,
                "velocity": 64,
                "duration": 0.09318181818181817,
                "tempo": 120.0
            },
            {
                "start_time": 0.27954545454545454,
                "end_time": 0.45227272727272727,
                "pitch": 58,
                "velocity": 64,
                "duration": 0.17272727272727273,
                "tempo": 120.0
            },
            {
                "start_time": 0.46818181818181814,
                "end_time": 0.5636363636363636,
                "pitch": 58,
                "velocity": 64,
                "duration": 0.09545454545454546,
                "tempo": 120.0
            },
            {
                "start_time": 0.5795454545454545,
                "end_time": 0.7704545454545454,
                "pitch": 60,
                "velocity": 64,
                "duration": 0.19090909090909092,
                "tempo": 120.0
            },
            {
                "start_time": 0.7863636363636364,
                "end_time": 0.9659090909090908,
                "pitch": 48,
                "velocity": 64,
                "duration": 0.17954545454545445,
                "tempo": 120.0
            },
            {
                "start_time": 0.9818181818181818,
                "end_time": 1.1795454545454545,
                "pitch": 57,
                "velocity": 64,
                "duration": 0.19772727272727264,
                "tempo": 120.0
            },
            {
                "start_time": 1.1954545454545453,
                "end_time": 1.3954545454545453,
                "pitch": 58,
                "velocity": 64,
                "duration": 0.19999999999999996,
                "tempo": 120.0
            },
            {
                "start_time": 1.4136363636363636,
                "end_time": 1.6136363636363635,
                "pitch": 57,
                "velocity": 64,
                "duration": 0.19999999999999996,
                "tempo": 120.0
            },
            {
                "start_time": 1.6295454545454544,
                "end_time": 1.7113636363636362,
                "pitch": 48,
                "velocity": 64,
                "duration": 0.08181818181818179,
                "tempo": 120.0
            },
            {
                "start_time": 1.7295454545454545,
                "end_time": 1.8272727272727272,
                "pitch": 48,
                "velocity": 64,
                "duration": 0.09772727272727266,
                "tempo": 120.0
            },
            {
                "start_time": 1.843181818181818,
                "end_time": 1.9249999999999998,
                "pitch": 48,
                "velocity": 64,
                "duration": 0.08181818181818179,
                "tempo": 120.0
            },
            {
                "start_time": 1.940909090909091,
                "end_time": 2.1409090909090907,
                "pitch": 58,
                "velocity": 64,
                "duration": 0.19999999999999973,
                "tempo": 120.0
            },
            {
                "start_time": 2.1568181818181817,
                "end_time": 2.2409090909090907,
                "pitch": 58,
                "velocity": 64,
                "duration": 0.084090909090909,
                "tempo": 120.0
            },
            {
                "start_time": 2.256818181818182,
                "end_time": 2.459090909090909,
                "pitch": 60,
                "velocity": 64,
                "duration": 0.20227272727272716,
                "tempo": 120.0
            },
            {
                "start_time": 2.475,
                "end_time": 2.6704545454545454,
                "pitch": 48,
                "velocity": 64,
                "duration": 0.19545454545454533,
                "tempo": 120.0
            },
            {
                "start_time": 2.6886363636363635,
                "end_time": 2.884090909090909,
                "pitch": 57,
                "velocity": 64,
                "duration": 0.19545454545454533,
                "tempo": 120.0
            },
            {
                "start_time": 2.9,
                "end_time": 3.311363636363636,
                "pitch": 58,
                "velocity": 64,
                "duration": 0.41136363636363615,
                "tempo": 120.0
            },
            {
                "start_time": 3.327272727272727,
                "end_time": 3.4272727272727272,
                "pitch": 48,
                "velocity": 64,
                "duration": 0.10000000000000009,
                "tempo": 120.0
            },
            {
                "start_time": 3.443181818181818,
                "end_time": 3.525,
                "pitch": 48,
                "velocity": 64,
                "duration": 0.08181818181818201,
                "tempo": 120.0
            },
            {
                "start_time": 3.5409090909090906,
                "end_time": 3.6227272727272726,
                "pitch": 48,
                "velocity": 64,
                "duration": 0.08181818181818201,
                "tempo": 120.0
            },
            {
                "start_time": 3.6386363636363637,
                "end_time": 3.8386363636363634,
                "pitch": 58,
                "velocity": 64,
                "duration": 0.19999999999999973,
                "tempo": 120.0
            },
            {
                "start_time": 3.8545454545454545,
                "end_time": 3.954545454545454,
                "pitch": 58,
                "velocity": 64,
                "duration": 0.09999999999999964,
                "tempo": 120.0
            },
            {
                "start_time": 3.9727272727272727,
                "end_time": 4.156818181818181,
                "pitch": 60,
                "velocity": 64,
                "duration": 0.18409090909090864,
                "tempo": 120.0
            },
            {
                "start_time": 4.172727272727273,
                "end_time": 4.363636363636363,
                "pitch": 48,
                "velocity": 64,
                "duration": 0.19090909090909047,
                "tempo": 120.0
            },
            {
                "start_time": 4.379545454545454,
                "end_time": 4.570454545454545,
                "pitch": 57,
                "velocity": 64,
                "duration": 0.19090909090909136,
                "tempo": 120.0
            },
            {
                "start_time": 4.586363636363636,
                "end_time": 4.790909090909091,
                "pitch": 58,
                "velocity": 64,
                "duration": 0.20454545454545503,
                "tempo": 120.0
            },
            {
                "start_time": 4.809090909090909,
                "end_time": 5.013636363636364,
                "pitch": 57,
                "velocity": 64,
                "duration": 0.20454545454545503,
                "tempo": 120.0
            },
            {
                "start_time": 5.031818181818181,
                "end_time": 5.113636363636363,
                "pitch": 48,
                "velocity": 64,
                "duration": 0.08181818181818201,
                "tempo": 120.0
            },
            {
                "start_time": 5.131818181818182,
                "end_time": 5.215909090909091,
                "pitch": 48,
                "velocity": 64,
                "duration": 0.084090909090909,
                "tempo": 120.0
            },
            {
                "start_time": 5.2318181818181815,
                "end_time": 5.331818181818181,
                "pitch": 48,
                "velocity": 64,
                "duration": 0.09999999999999964,
                "tempo": 120.0
            },
            {
                "start_time": 5.35,
                "end_time": 5.431818181818182,
                "pitch": 48,
                "velocity": 64,
                "duration": 0.08181818181818201,
                "tempo": 120.0
            },
            {
                "start_time": 5.5636363636363635,
                "end_time": 5.6454545454545455,
                "pitch": 48,
                "velocity": 64,
                "duration": 0.08181818181818201,
                "tempo": 120.0
            },
            {
                "start_time": 5.661363636363636,
                "end_time": 5.743181818181818,
                "pitch": 48,
                "velocity": 64,
                "duration": 0.08181818181818201,
                "tempo": 120.0
            },
            {
                "start_time": 5.761363636363636,
                "end_time": 5.8590909090909085,
                "pitch": 48,
                "velocity": 64,
                "duration": 0.09772727272727266,
                "tempo": 120.0
            },
            {
                "start_time": 6.093181818181818,
                "end_time": 6.277272727272727,
                "pitch": 45,
                "velocity": 64,
                "duration": 0.18409090909090953,
                "tempo": 120.0
            },
            {
                "start_time": 6.293181818181818,
                "end_time": 6.49090909090909,
                "pitch": 46,
                "velocity": 64,
                "duration": 0.1977272727272723,
                "tempo": 120.0
            },
            {
                "start_time": 6.506818181818182,
                "end_time": 6.702272727272727,
                "pitch": 47,
                "velocity": 64,
                "duration": 0.19545454545454533,
                "tempo": 120.0
            },
            {
                "start_time": 6.720454545454545,
                "end_time": 7.9795454545454545,
                "pitch": 48,
                "velocity": 64,
                "duration": 1.2590909090909097,
                "tempo": 120.0
            },
            {
                "start_time": 8.422727272727272,
                "end_time": 9.674999999999999,
                "pitch": 48,
                "velocity": 80,
                "duration": 1.252272727272727,
                "tempo": 120.0
            },
            {
                "start_time": 10.125,
                "end_time": 11.388636363636364,
                "pitch": 46,
                "velocity": 80,
                "duration": 1.2636363636363637,
                "tempo": 120.0
            },
            {
                "start_time": 11.822727272727272,
                "end_time": 13.077272727272726,
                "pitch": 46,
                "velocity": 80,
                "duration": 1.254545454545454,
                "tempo": 120.0
            },
            {
                "start_time": 13.545454545454545,
                "end_time": 13.61590909090909,
                "pitch": 48,
                "velocity": 64,
                "duration": 0.07045454545454533,
                "tempo": 120.0
            },
            {
                "start_time": 13.634090909090908,
                "end_time": 13.720454545454544,
                "pitch": 48,
                "velocity": 64,
                "duration": 0.08636363636363598,
                "tempo": 120.0
            },
            {
                "start_time": 13.738636363636363,
                "end_time": 13.843181818181817,
                "pitch": 48,
                "velocity": 64,
                "duration": 0.10454545454545361,
                "tempo": 120.0
            },
            {
                "start_time": 13.861363636363636,
                "end_time": 14.061363636363636,
                "pitch": 58,
                "velocity": 64,
                "duration": 0.1999999999999993,
                "tempo": 120.0
            },
            {
                "start_time": 14.077272727272726,
                "end_time": 14.156818181818181,
                "pitch": 58,
                "velocity": 64,
                "duration": 0.07954545454545503,
                "tempo": 120.0
            },
            {
                "start_time": 14.172727272727272,
                "end_time": 14.36590909090909,
                "pitch": 60,
                "velocity": 64,
                "duration": 0.19318181818181834,
                "tempo": 120.0
            },
            {
                "start_time": 14.381818181818181,
                "end_time": 14.577272727272726,
                "pitch": 48,
                "velocity": 64,
                "duration": 0.19545454545454533,
                "tempo": 120.0
            },
            {
                "start_time": 14.593181818181817,
                "end_time": 14.774999999999999,
                "pitch": 57,
                "velocity": 64,
                "duration": 0.18181818181818166,
                "tempo": 120.0
            },
            {
                "start_time": 14.790909090909091,
                "end_time": 14.986363636363636,
                "pitch": 58,
                "velocity": 64,
                "duration": 0.19545454545454533,
                "tempo": 120.0
            },
            {
                "start_time": 15.002272727272727,
                "end_time": 15.2,
                "pitch": 57,
                "velocity": 64,
                "duration": 0.1977272727272723,
                "tempo": 120.0
            },
            {
                "start_time": 15.21590909090909,
                "end_time": 15.299999999999999,
                "pitch": 48,
                "velocity": 64,
                "duration": 0.084090909090909,
                "tempo": 120.0
            },
            {
                "start_time": 15.31590909090909,
                "end_time": 15.418181818181818,
                "pitch": 48,
                "velocity": 64,
                "duration": 0.1022727272727284,
                "tempo": 120.0
            },
            {
                "start_time": 15.434090909090909,
                "end_time": 15.518181818181818,
                "pitch": 48,
                "velocity": 64,
                "duration": 0.084090909090909,
                "tempo": 120.0
            },
            {
                "start_time": 15.534090909090908,
                "end_time": 15.736363636363636,
                "pitch": 58,
                "velocity": 64,
                "duration": 0.20227272727272805,
                "tempo": 120.0
            },
            {
                "start_time": 15.754545454545454,
                "end_time": 15.838636363636363,
                "pitch": 58,
                "velocity": 64,
                "duration": 0.084090909090909,
                "tempo": 120.0
            },
            {
                "start_time": 15.85681818181818,
                "end_time": 16.061363636363634,
                "pitch": 60,
                "velocity": 64,
                "duration": 0.20454545454545325,
                "tempo": 120.0
            },
            {
                "start_time": 16.079545454545453,
                "end_time": 16.270454545454545,
                "pitch": 48,
                "velocity": 64,
                "duration": 0.19090909090909136,
                "tempo": 120.0
            },
            {
                "start_time": 16.286363636363635,
                "end_time": 16.477272727272727,
                "pitch": 57,
                "velocity": 64,
                "duration": 0.19090909090909136,
                "tempo": 120.0
            },
            {
                "start_time": 16.493181818181817,
                "end_time": 16.902272727272727,
                "pitch": 58,
                "velocity": 64,
                "duration": 0.40909090909091006,
                "tempo": 120.0
            },
            {
                "start_time": 16.920454545454543,
                "end_time": 17.018181818181816,
                "pitch": 48,
                "velocity": 64,
                "duration": 0.09772727272727266,
                "tempo": 120.0
            },
            {
                "start_time": 17.034090909090907,
                "end_time": 17.11590909090909,
                "pitch": 48,
                "velocity": 64,
                "duration": 0.08181818181818201,
                "tempo": 120.0
            },
            {
                "start_time": 17.134090909090908,
                "end_time": 17.23181818181818,
                "pitch": 48,
                "velocity": 64,
                "duration": 0.09772727272727266,
                "tempo": 120.0
            },
            {
                "start_time": 17.24772727272727,
                "end_time": 17.429545454545455,
                "pitch": 58,
                "velocity": 64,
                "duration": 0.18181818181818343,
                "tempo": 120.0
            },
            {
                "start_time": 17.44772727272727,
                "end_time": 17.547727272727272,
                "pitch": 58,
                "velocity": 64,
                "duration": 0.10000000000000142,
                "tempo": 120.0
            },
            {
                "start_time": 17.563636363636363,
                "end_time": 17.763636363636362,
                "pitch": 60,
                "velocity": 64,
                "duration": 0.1999999999999993,
                "tempo": 120.0
            },
            {
                "start_time": 17.78181818181818,
                "end_time": 17.96590909090909,
                "pitch": 48,
                "velocity": 64,
                "duration": 0.18409090909090864,
                "tempo": 120.0
            },
            {
                "start_time": 17.98181818181818,
                "end_time": 18.18181818181818,
                "pitch": 57,
                "velocity": 64,
                "duration": 0.1999999999999993,
                "tempo": 120.0
            },
            {
                "start_time": 18.2,
                "end_time": 18.395454545454545,
                "pitch": 58,
                "velocity": 64,
                "duration": 0.19545454545454533,
                "tempo": 120.0
            },
            {
                "start_time": 18.413636363636364,
                "end_time": 18.60909090909091,
                "pitch": 57,
                "velocity": 64,
                "duration": 0.19545454545454533,
                "tempo": 120.0
            },
            {
                "start_time": 18.625,
                "end_time": 18.709090909090907,
                "pitch": 48,
                "velocity": 64,
                "duration": 0.08409090909090722,
                "tempo": 120.0
            },
            {
                "start_time": 18.724999999999998,
                "end_time": 18.827272727272728,
                "pitch": 48,
                "velocity": 64,
                "duration": 0.10227272727273018,
                "tempo": 120.0
            },
            {
                "start_time": 18.84318181818182,
                "end_time": 18.927272727272726,
                "pitch": 48,
                "velocity": 64,
                "duration": 0.08409090909090722,
                "tempo": 120.0
            },
            {
                "start_time": 18.943181818181817,
                "end_time": 19.027272727272727,
                "pitch": 48,
                "velocity": 64,
                "duration": 0.08409090909091077,
                "tempo": 120.0
            },
            {
                "start_time": 19.159090909090907,
                "end_time": 19.24090909090909,
                "pitch": 48,
                "velocity": 64,
                "duration": 0.08181818181818201,
                "tempo": 120.0
            },
            {
                "start_time": 19.25681818181818,
                "end_time": 19.354545454545452,
                "pitch": 48,
                "velocity": 64,
                "duration": 0.09772727272727266,
                "tempo": 120.0
            },
            {
                "start_time": 19.370454545454546,
                "end_time": 19.454545454545453,
                "pitch": 48,
                "velocity": 64,
                "duration": 0.08409090909090722,
                "tempo": 120.0
            },
            {
                "start_time": 19.686363636363634,
                "end_time": 19.888636363636362,
                "pitch": 45,
                "velocity": 64,
                "duration": 0.20227272727272805,
                "tempo": 120.0
            },
            {
                "start_time": 19.904545454545453,
                "end_time": 20.09318181818182,
                "pitch": 46,
                "velocity": 64,
                "duration": 0.18863636363636616,
                "tempo": 120.0
            },
            {
                "start_time": 20.10909090909091,
                "end_time": 20.31590909090909,
                "pitch": 47,
                "velocity": 64,
                "duration": 0.206818181818182,
                "tempo": 120.0
            },
            {
                "start_time": 20.331818181818182,
                "end_time": 20.43409090909091,
                "pitch": 48,
                "velocity": 64,
                "duration": 0.10227272727272663,
                "tempo": 120.0
            },
            {
                "start_time": 20.45,
                "end_time": 20.534090909090907,
                "pitch": 48,
                "velocity": 64,
                "duration": 0.08409090909090722,
                "tempo": 120.0
            },
            {
                "start_time": 20.55,
                "end_time": 20.634090909090908,
                "pitch": 48,
                "velocity": 64,
                "duration": 0.08409090909090722,
                "tempo": 120.0
            },
            {
                "start_time": 20.65,
                "end_time": 20.849999999999998,
                "pitch": 58,
                "velocity": 64,
                "duration": 0.1999999999999993,
                "tempo": 120.0
            },
            {
                "start_time": 20.86590909090909,
                "end_time": 20.96363636363636,
                "pitch": 58,
                "velocity": 64,
                "duration": 0.09772727272727266,
                "tempo": 120.0
            },
            {
                "start_time": 20.98181818181818,
                "end_time": 21.161363636363635,
                "pitch": 60,
                "velocity": 64,
                "duration": 0.17954545454545467,
                "tempo": 120.0
            },
            {
                "start_time": 21.177272727272726,
                "end_time": 21.368181818181817,
                "pitch": 48,
                "velocity": 64,
                "duration": 0.19090909090909136,
                "tempo": 120.0
            },
            {
                "start_time": 21.384090909090908,
                "end_time": 21.575,
                "pitch": 57,
                "velocity": 64,
                "duration": 0.19090909090909136,
                "tempo": 120.0
            },
            {
                "start_time": 21.59090909090909,
                "end_time": 21.795454545454543,
                "pitch": 58,
                "velocity": 64,
                "duration": 0.20454545454545325,
                "tempo": 120.0
            },
            {
                "start_time": 21.813636363636363,
                "end_time": 22.018181818181816,
                "pitch": 57,
                "velocity": 64,
                "duration": 0.20454545454545325,
                "tempo": 120.0
            },
            {
                "start_time": 22.036363636363635,
                "end_time": 22.120454545454546,
                "pitch": 48,
                "velocity": 64,
                "duration": 0.08409090909091077,
                "tempo": 120.0
            },
            {
                "start_time": 22.136363636363637,
                "end_time": 22.220454545454544,
                "pitch": 48,
                "velocity": 64,
                "duration": 0.08409090909090722,
                "tempo": 120.0
            },
            {
                "start_time": 22.236363636363635,
                "end_time": 22.336363636363636,
                "pitch": 48,
                "velocity": 64,
                "duration": 0.10000000000000142,
                "tempo": 120.0
            },
            {
                "start_time": 22.354545454545452,
                "end_time": 22.552272727272726,
                "pitch": 58,
                "velocity": 64,
                "duration": 0.19772727272727408,
                "tempo": 120.0
            },
            {
                "start_time": 22.568181818181817,
                "end_time": 22.65,
                "pitch": 58,
                "velocity": 64,
                "duration": 0.08181818181818201,
                "tempo": 120.0
            },
            {
                "start_time": 22.668181818181818,
                "end_time": 22.863636363636363,
                "pitch": 60,
                "velocity": 64,
                "duration": 0.19545454545454533,
                "tempo": 120.0
            },
            {
                "start_time": 22.879545454545454,
                "end_time": 23.081818181818182,
                "pitch": 48,
                "velocity": 64,
                "duration": 0.20227272727272805,
                "tempo": 120.0
            },
            {
                "start_time": 23.097727272727273,
                "end_time": 23.28181818181818,
                "pitch": 57,
                "velocity": 64,
                "duration": 0.18409090909090864,
                "tempo": 120.0
            },
            {
                "start_time": 23.297727272727272,
                "end_time": 23.709090909090907,
                "pitch": 58,
                "velocity": 64,
                "duration": 0.41136363636363527,
                "tempo": 120.0
            },
            {
                "start_time": 23.724999999999998,
                "end_time": 23.80909090909091,
                "pitch": 48,
                "velocity": 64,
                "duration": 0.08409090909091077,
                "tempo": 120.0
            },
            {
                "start_time": 23.825,
                "end_time": 23.924999999999997,
                "pitch": 48,
                "velocity": 64,
                "duration": 0.09999999999999787,
                "tempo": 120.0
            },
            {
                "start_time": 23.943181818181817,
                "end_time": 24.025,
                "pitch": 48,
                "velocity": 64,
                "duration": 0.08181818181818201,
                "tempo": 120.0
            },
            {
                "start_time": 24.043181818181818,
                "end_time": 24.243181818181817,
                "pitch": 58,
                "velocity": 64,
                "duration": 0.1999999999999993,
                "tempo": 120.0
            },
            {
                "start_time": 24.259090909090908,
                "end_time": 24.34318181818182,
                "pitch": 58,
                "velocity": 64,
                "duration": 0.08409090909091077,
                "tempo": 120.0
            },
            {
                "start_time": 24.361363636363635,
                "end_time": 24.561363636363634,
                "pitch": 60,
                "velocity": 64,
                "duration": 0.1999999999999993,
                "tempo": 120.0
            },
            {
                "start_time": 24.577272727272724,
                "end_time": 24.775,
                "pitch": 48,
                "velocity": 64,
                "duration": 0.19772727272727408,
                "tempo": 120.0
            },
            {
                "start_time": 24.79090909090909,
                "end_time": 24.988636363636363,
                "pitch": 57,
                "velocity": 64,
                "duration": 0.19772727272727408,
                "tempo": 120.0
            },
            {
                "start_time": 25.004545454545454,
                "end_time": 25.204545454545453,
                "pitch": 58,
                "velocity": 64,
                "duration": 0.1999999999999993,
                "tempo": 120.0
            },
            {
                "start_time": 25.220454545454544,
                "end_time": 25.404545454545453,
                "pitch": 57,
                "velocity": 64,
                "duration": 0.18409090909090864,
                "tempo": 120.0
            },
            {
                "start_time": 25.422727272727272,
                "end_time": 25.520454545454545,
                "pitch": 48,
                "velocity": 64,
                "duration": 0.09772727272727266,
                "tempo": 120.0
            },
            {
                "start_time": 25.536363636363635,
                "end_time": 25.618181818181817,
                "pitch": 48,
                "velocity": 64,
                "duration": 0.08181818181818201,
                "tempo": 120.0
            },
            {
                "start_time": 25.636363636363637,
                "end_time": 25.73409090909091,
                "pitch": 48,
                "velocity": 64,
                "duration": 0.09772727272727266,
                "tempo": 120.0
            },
            {
                "start_time": 25.75,
                "end_time": 25.831818181818182,
                "pitch": 48,
                "velocity": 64,
                "duration": 0.08181818181818201,
                "tempo": 120.0
            },
            {
                "start_time": 25.95,
                "end_time": 26.052272727272726,
                "pitch": 48,
                "velocity": 64,
                "duration": 0.10227272727272663,
                "tempo": 120.0
            },
            {
                "start_time": 26.070454545454545,
                "end_time": 26.154545454545453,
                "pitch": 48,
                "velocity": 64,
                "duration": 0.08409090909090722,
                "tempo": 120.0
            },
            {
                "start_time": 26.172727272727272,
                "end_time": 26.275,
                "pitch": 48,
                "velocity": 64,
                "duration": 0.10227272727272663,
                "tempo": 120.0
            },
            {
                "start_time": 26.488636363636363,
                "end_time": 26.686363636363634,
                "pitch": 45,
                "velocity": 64,
                "duration": 0.19772727272727053,
                "tempo": 120.0
            },
            {
                "start_time": 26.702272727272724,
                "end_time": 26.89772727272727,
                "pitch": 46,
                "velocity": 64,
                "duration": 0.19545454545454533,
                "tempo": 120.0
            },
            {
                "start_time": 26.913636363636364,
                "end_time": 27.111363636363635,
                "pitch": 47,
                "velocity": 64,
                "duration": 0.19772727272727053,
                "tempo": 120.0
            },
            {
                "start_time": 27.127272727272725,
                "end_time": 27.21363636363636,
                "pitch": 48,
                "velocity": 64,
                "duration": 0.08636363636363598,
                "tempo": 120.0
            },
            {
                "start_time": 27.23181818181818,
                "end_time": 27.336363636363636,
                "pitch": 48,
                "velocity": 64,
                "duration": 0.10454545454545539,
                "tempo": 120.0
            },
            {
                "start_time": 27.354545454545452,
                "end_time": 27.440909090909088,
                "pitch": 48,
                "velocity": 64,
                "duration": 0.08636363636363598,
                "tempo": 120.0
            },
            {
                "start_time": 27.459090909090907,
                "end_time": 27.545454545454543,
                "pitch": 48,
                "velocity": 64,
                "duration": 0.08636363636363598,
                "tempo": 120.0
            },
            {
                "start_time": 27.563636363636363,
                "end_time": 27.75681818181818,
                "pitch": 48,
                "velocity": 64,
                "duration": 0.19318181818181657,
                "tempo": 120.0
            },
            {
                "start_time": 28.60909090909091,
                "end_time": 28.71363636363636,
                "pitch": 46,
                "velocity": 64,
                "duration": 0.10454545454545183,
                "tempo": 120.0
            },
            {
                "start_time": 28.729545454545452,
                "end_time": 28.815909090909088,
                "pitch": 46,
                "velocity": 64,
                "duration": 0.08636363636363598,
                "tempo": 120.0
            },
            {
                "start_time": 28.831818181818182,
                "end_time": 28.927272727272726,
                "pitch": 48,
                "velocity": 64,
                "duration": 0.0954545454545439,
                "tempo": 120.0
            },
            {
                "start_time": 28.943181818181817,
                "end_time": 29.02272727272727,
                "pitch": 48,
                "velocity": 64,
                "duration": 0.07954545454545325,
                "tempo": 120.0
            },
            {
                "start_time": 29.03863636363636,
                "end_time": 29.118181818181817,
                "pitch": 48,
                "velocity": 64,
                "duration": 0.0795454545454568,
                "tempo": 120.0
            },
            {
                "start_time": 29.134090909090908,
                "end_time": 29.229545454545452,
                "pitch": 48,
                "velocity": 64,
                "duration": 0.0954545454545439,
                "tempo": 120.0
            },
            {
                "start_time": 29.245454545454542,
                "end_time": 29.452272727272724,
                "pitch": 48,
                "velocity": 64,
                "duration": 0.206818181818182,
                "tempo": 120.0
            },
            {
                "start_time": 30.534090909090907,
                "end_time": 30.618181818181817,
                "pitch": 46,
                "velocity": 64,
                "duration": 0.08409090909091077,
                "tempo": 120.0
            },
            {
                "start_time": 30.634090909090908,
                "end_time": 30.718181818181815,
                "pitch": 46,
                "velocity": 64,
                "duration": 0.08409090909090722,
                "tempo": 120.0
            },
            {
                "start_time": 30.736363636363635,
                "end_time": 30.836363636363636,
                "pitch": 46,
                "velocity": 64,
                "duration": 0.10000000000000142,
                "tempo": 120.0
            },
            {
                "start_time": 30.852272727272727,
                "end_time": 30.936363636363634,
                "pitch": 46,
                "velocity": 64,
                "duration": 0.08409090909090722,
                "tempo": 120.0
            },
            {
                "start_time": 30.952272727272724,
                "end_time": 31.15,
                "pitch": 46,
                "velocity": 64,
                "duration": 0.19772727272727408,
                "tempo": 120.0
            },
            {
                "start_time": 32.01136363636363,
                "end_time": 32.10909090909091,
                "pitch": 45,
                "velocity": 64,
                "duration": 0.09772727272727622,
                "tempo": 120.0
            },
            {
                "start_time": 32.125,
                "end_time": 32.20681818181818,
                "pitch": 45,
                "velocity": 64,
                "duration": 0.08181818181817846,
                "tempo": 120.0
            },
            {
                "start_time": 32.22272727272727,
                "end_time": 32.30681818181818,
                "pitch": 46,
                "velocity": 64,
                "duration": 0.08409090909091077,
                "tempo": 120.0
            },
            {
                "start_time": 32.32272727272727,
                "end_time": 32.425,
                "pitch": 46,
                "velocity": 64,
                "duration": 0.10227272727272663,
                "tempo": 120.0
            },
            {
                "start_time": 32.44090909090909,
                "end_time": 32.525,
                "pitch": 46,
                "velocity": 64,
                "duration": 0.08409090909091077,
                "tempo": 120.0
            },
            {
                "start_time": 32.54090909090909,
                "end_time": 32.64090909090909,
                "pitch": 46,
                "velocity": 64,
                "duration": 0.10000000000000142,
                "tempo": 120.0
            },
            {
                "start_time": 32.65909090909091,
                "end_time": 32.845454545454544,
                "pitch": 46,
                "velocity": 64,
                "duration": 0.1863636363636374,
                "tempo": 120.0
            },
            {
                "start_time": 33.92727272727272,
                "end_time": 34.025,
                "pitch": 48,
                "velocity": 64,
                "duration": 0.09772727272727622,
                "tempo": 120.0
            },
            {
                "start_time": 34.043181818181814,
                "end_time": 34.125,
                "pitch": 48,
                "velocity": 64,
                "duration": 0.08181818181818556,
                "tempo": 120.0
            },
            {
                "start_time": 34.14090909090909,
                "end_time": 34.23863636363636,
                "pitch": 48,
                "velocity": 64,
                "duration": 0.09772727272726911,
                "tempo": 120.0
            },
            {
                "start_time": 34.25454545454545,
                "end_time": 34.336363636363636,
                "pitch": 48,
                "velocity": 64,
                "duration": 0.08181818181818556,
                "tempo": 120.0
            },
            {
                "start_time": 34.35454545454545,
                "end_time": 34.554545454545455,
                "pitch": 48,
                "velocity": 64,
                "duration": 0.20000000000000284,
                "tempo": 120.0
            },
            {
                "start_time": 35.413636363636364,
                "end_time": 35.49318181818182,
                "pitch": 46,
                "velocity": 64,
                "duration": 0.07954545454545325,
                "tempo": 120.0
            },
            {
                "start_time": 35.50909090909091,
                "end_time": 35.60454545454545,
                "pitch": 46,
                "velocity": 64,
                "duration": 0.0954545454545439,
                "tempo": 120.0
            },
            {
                "start_time": 35.62045454545454,
                "end_time": 35.70681818181818,
                "pitch": 48,
                "velocity": 64,
                "duration": 0.08636363636363598,
                "tempo": 120.0
            },
            {
                "start_time": 35.72272727272727,
                "end_time": 35.824999999999996,
                "pitch": 48,
                "velocity": 64,
                "duration": 0.10227272727272663,
                "tempo": 120.0
            },
            {
                "start_time": 35.84318181818182,
                "end_time": 35.92727272727272,
                "pitch": 48,
                "velocity": 64,
                "duration": 0.08409090909090366,
                "tempo": 120.0
            },
            {
                "start_time": 35.945454545454545,
                "end_time": 36.03181818181818,
                "pitch": 48,
                "velocity": 64,
                "duration": 0.08636363636363598,
                "tempo": 120.0
            },
            {
                "start_time": 36.04772727272727,
                "end_time": 36.24545454545454,
                "pitch": 48,
                "velocity": 64,
                "duration": 0.19772727272727053,
                "tempo": 120.0
            },
            {
                "start_time": 37.32727272727273,
                "end_time": 37.425,
                "pitch": 48,
                "velocity": 64,
                "duration": 0.09772727272726911,
                "tempo": 120.0
            },
            {
                "start_time": 37.44318181818181,
                "end_time": 37.525,
                "pitch": 48,
                "velocity": 64,
                "duration": 0.08181818181818556,
                "tempo": 120.0
            },
            {
                "start_time": 37.54090909090909,
                "end_time": 37.62272727272727,
                "pitch": 48,
                "velocity": 64,
                "duration": 0.08181818181817846,
                "tempo": 120.0
            },
            {
                "start_time": 37.63863636363636,
                "end_time": 37.736363636363635,
                "pitch": 48,
                "velocity": 64,
                "duration": 0.09772727272727622,
                "tempo": 120.0
            },
            {
                "start_time": 37.75454545454545,
                "end_time": 37.95909090909091,
                "pitch": 48,
                "velocity": 64,
                "duration": 0.20454545454546036,
                "tempo": 120.0
            },
            {
                "start_time": 38.81363636363636,
                "end_time": 38.89545454545454,
                "pitch": 46,
                "velocity": 64,
                "duration": 0.08181818181817846,
                "tempo": 120.0
            },
            {
                "start_time": 38.913636363636364,
                "end_time": 39.01363636363636,
                "pitch": 46,
                "velocity": 64,
                "duration": 0.09999999999999432,
                "tempo": 120.0
            },
            {
                "start_time": 39.029545454545456,
                "end_time": 39.11363636363636,
                "pitch": 48,
                "velocity": 64,
                "duration": 0.08409090909090366,
                "tempo": 120.0
            },
            {
                "start_time": 39.12954545454545,
                "end_time": 39.21363636363636,
                "pitch": 48,
                "velocity": 64,
                "duration": 0.08409090909091077,
                "tempo": 120.0
            },
            {
                "start_time": 39.23181818181818,
                "end_time": 39.33181818181818,
                "pitch": 48,
                "velocity": 64,
                "duration": 0.10000000000000142,
                "tempo": 120.0
            },
            {
                "start_time": 39.34772727272727,
                "end_time": 39.43181818181818,
                "pitch": 48,
                "velocity": 64,
                "duration": 0.08409090909091077,
                "tempo": 120.0
            },
            {
                "start_time": 39.44772727272727,
                "end_time": 39.54772727272727,
                "pitch": 48,
                "velocity": 64,
                "duration": 0.10000000000000142,
                "tempo": 120.0
            },
            {
                "start_time": 39.56363636363636,
                "end_time": 39.64545454545454,
                "pitch": 48,
                "velocity": 64,
                "duration": 0.08181818181817846,
                "tempo": 120.0
            },
            {
                "start_time": 39.66136363636363,
                "end_time": 39.74318181818182,
                "pitch": 48,
                "velocity": 64,
                "duration": 0.08181818181818556,
                "tempo": 120.0
            },
            {
                "start_time": 39.75909090909091,
                "end_time": 39.85909090909091,
                "pitch": 48,
                "velocity": 64,
                "duration": 0.10000000000000142,
                "tempo": 120.0
            },
            {
                "start_time": 40.71818181818182,
                "end_time": 40.804545454545455,
                "pitch": 48,
                "velocity": 64,
                "duration": 0.08636363636363598,
                "tempo": 120.0
            },
            {
                "start_time": 40.820454545454545,
                "end_time": 40.92272727272727,
                "pitch": 48,
                "velocity": 64,
                "duration": 0.10227272727272663,
                "tempo": 120.0
            },
            {
                "start_time": 40.94090909090909,
                "end_time": 41.027272727272724,
                "pitch": 48,
                "velocity": 64,
                "duration": 0.08636363636363598,
                "tempo": 120.0
            },
            {
                "start_time": 41.043181818181814,
                "end_time": 41.14545454545454,
                "pitch": 48,
                "velocity": 64,
                "duration": 0.10227272727272663,
                "tempo": 120.0
            },
            {
                "start_time": 41.163636363636364,
                "end_time": 41.34772727272727,
                "pitch": 48,
                "velocity": 64,
                "duration": 0.18409090909090509,
                "tempo": 120.0
            },
            {
                "start_time": 42.21818181818182,
                "end_time": 42.30227272727272,
                "pitch": 46,
                "velocity": 64,
                "duration": 0.08409090909090366,
                "tempo": 120.0
            },
            {
                "start_time": 42.320454545454545,
                "end_time": 42.40681818181818,
                "pitch": 46,
                "velocity": 64,
                "duration": 0.08636363636363598,
                "tempo": 120.0
            },
            {
                "start_time": 42.42272727272727,
                "end_time": 42.52045454545454,
                "pitch": 48,
                "velocity": 64,
                "duration": 0.09772727272726911,
                "tempo": 120.0
            },
            {
                "start_time": 42.538636363636364,
                "end_time": 42.62045454545454,
                "pitch": 48,
                "velocity": 64,
                "duration": 0.08181818181817846,
                "tempo": 120.0
            },
            {
                "start_time": 42.63636363636363,
                "end_time": 42.73409090909091,
                "pitch": 48,
                "velocity": 64,
                "duration": 0.09772727272727622,
                "tempo": 120.0
            },
            {
                "start_time": 42.75,
                "end_time": 42.83181818181818,
                "pitch": 48,
                "velocity": 64,
                "duration": 0.08181818181817846,
                "tempo": 120.0
            },
            {
                "start_time": 42.85,
                "end_time": 43.05,
                "pitch": 48,
                "velocity": 64,
                "duration": 0.19999999999999574,
                "tempo": 120.0
            },
            {
                "start_time": 44.127272727272725,
                "end_time": 44.211363636363636,
                "pitch": 46,
                "velocity": 64,
                "duration": 0.08409090909091077,
                "tempo": 120.0
            },
            {
                "start_time": 44.22954545454545,
                "end_time": 44.32954545454545,
                "pitch": 46,
                "velocity": 64,
                "duration": 0.10000000000000142,
                "tempo": 120.0
            },
            {
                "start_time": 44.345454545454544,
                "end_time": 44.429545454545455,
                "pitch": 46,
                "velocity": 64,
                "duration": 0.08409090909091077,
                "tempo": 120.0
            },
            {
                "start_time": 44.445454545454545,
                "end_time": 44.52954545454545,
                "pitch": 46,
                "velocity": 64,
                "duration": 0.08409090909090366,
                "tempo": 120.0
            },
            {
                "start_time": 44.54772727272727,
                "end_time": 44.74318181818182,
                "pitch": 46,
                "velocity": 64,
                "duration": 0.19545454545454533,
                "tempo": 120.0
            },
            {
                "start_time": 45.60909090909091,
                "end_time": 45.709090909090904,
                "pitch": 45,
                "velocity": 64,
                "duration": 0.09999999999999432,
                "tempo": 120.0
            },
            {
                "start_time": 45.724999999999994,
                "end_time": 45.809090909090905,
                "pitch": 45,
                "velocity": 64,
                "duration": 0.08409090909091077,
                "tempo": 120.0
            },
            {
                "start_time": 45.824999999999996,
                "end_time": 45.925,
                "pitch": 46,
                "velocity": 64,
                "duration": 0.10000000000000142,
                "tempo": 120.0
            },
            {
                "start_time": 45.94090909090909,
                "end_time": 46.02272727272727,
                "pitch": 46,
                "velocity": 64,
                "duration": 0.08181818181818556,
                "tempo": 120.0
            },
            {
                "start_time": 46.038636363636364,
                "end_time": 46.12045454545454,
                "pitch": 46,
                "velocity": 64,
                "duration": 0.08181818181817846,
                "tempo": 120.0
            },
            {
                "start_time": 46.13636363636363,
                "end_time": 46.236363636363635,
                "pitch": 46,
                "velocity": 64,
                "duration": 0.10000000000000142,
                "tempo": 120.0
            },
            {
                "start_time": 46.252272727272725,
                "end_time": 46.45681818181818,
                "pitch": 46,
                "velocity": 64,
                "duration": 0.20454545454545325,
                "tempo": 120.0
            }
        ],
        "Vibraphone": [
            {
                "start_time": 0.015909090909090907,
                "end_time": 0.031818181818181815,
                "pitch": 81,
                "velocity": 51,
                "duration": 0.015909090909090907,
                "tempo": 120.0
            },
            {
                "start_time": 0.045454545454545456,
                "end_time": 0.125,
                "pitch": 56,
                "velocity": 51,
                "duration": 0.07954545454545454,
                "tempo": 120.0
            },
            {
                "start_time": 0.13863636363636364,
                "end_time": 0.21818181818181817,
                "pitch": 56,
                "velocity": 51,
                "duration": 0.07954545454545453,
                "tempo": 120.0
            },
            {
                "start_time": 0.2477272727272727,
                "end_time": 0.325,
                "pitch": 56,
                "velocity": 51,
                "duration": 0.0772727272727273,
                "tempo": 120.0
            },
            {
                "start_time": 0.3409090909090909,
                "end_time": 0.5318181818181817,
                "pitch": 66,
                "velocity": 51,
                "duration": 0.19090909090909086,
                "tempo": 120.0
            },
            {
                "start_time": 0.5477272727272727,
                "end_time": 0.6272727272727272,
                "pitch": 66,
                "velocity": 51,
                "duration": 0.07954545454545447,
                "tempo": 120.0
            },
            {
                "start_time": 0.6431818181818182,
                "end_time": 0.8363636363636363,
                "pitch": 68,
                "velocity": 51,
                "duration": 0.19318181818181812,
                "tempo": 120.0
            },
            {
                "start_time": 0.8522727272727272,
                "end_time": 1.0477272727272726,
                "pitch": 56,
                "velocity": 51,
                "duration": 0.19545454545454544,
                "tempo": 120.0
            },
            {
                "start_time": 1.0636363636363635,
                "end_time": 1.2454545454545454,
                "pitch": 65,
                "velocity": 51,
                "duration": 0.18181818181818188,
                "tempo": 120.0
            },
            {
                "start_time": 1.2795454545454545,
                "end_time": 1.4636363636363636,
                "pitch": 66,
                "velocity": 51,
                "duration": 0.18409090909090908,
                "tempo": 120.0
            },
            {
                "start_time": 1.4795454545454545,
                "end_time": 1.6795454545454545,
                "pitch": 65,
                "velocity": 51,
                "duration": 0.19999999999999996,
                "tempo": 120.0
            },
            {
                "start_time": 1.6954545454545453,
                "end_time": 1.7772727272727271,
                "pitch": 56,
                "velocity": 51,
                "duration": 0.08181818181818179,
                "tempo": 120.0
            },
            {
                "start_time": 1.8113636363636363,
                "end_time": 1.893181818181818,
                "pitch": 56,
                "velocity": 51,
                "duration": 0.08181818181818179,
                "tempo": 120.0
            },
            {
                "start_time": 1.909090909090909,
                "end_time": 1.9909090909090907,
                "pitch": 56,
                "velocity": 51,
                "duration": 0.08181818181818179,
                "tempo": 120.0
            },
            {
                "start_time": 2.006818181818182,
                "end_time": 2.2068181818181816,
                "pitch": 66,
                "velocity": 51,
                "duration": 0.19999999999999973,
                "tempo": 120.0
            },
            {
                "start_time": 2.2227272727272727,
                "end_time": 2.3068181818181817,
                "pitch": 66,
                "velocity": 51,
                "duration": 0.084090909090909,
                "tempo": 120.0
            },
            {
                "start_time": 2.340909090909091,
                "end_time": 2.525,
                "pitch": 68,
                "velocity": 51,
                "duration": 0.18409090909090908,
                "tempo": 120.0
            },
            {
                "start_time": 2.540909090909091,
                "end_time": 2.7363636363636363,
                "pitch": 56,
                "velocity": 51,
                "duration": 0.19545454545454533,
                "tempo": 120.0
            },
            {
                "start_time": 2.752272727272727,
                "end_time": 2.952272727272727,
                "pitch": 65,
                "velocity": 51,
                "duration": 0.20000000000000018,
                "tempo": 120.0
            },
            {
                "start_time": 2.9681818181818183,
                "end_time": 3.377272727272727,
                "pitch": 66,
                "velocity": 51,
                "duration": 0.4090909090909087,
                "tempo": 120.0
            },
            {
                "start_time": 3.411363636363636,
                "end_time": 3.493181818181818,
                "pitch": 56,
                "velocity": 51,
                "duration": 0.08181818181818201,
                "tempo": 120.0
            },
            {
                "start_time": 3.509090909090909,
                "end_time": 3.590909090909091,
                "pitch": 56,
                "velocity": 51,
                "duration": 0.08181818181818201,
                "tempo": 120.0
            },
            {
                "start_time": 3.6068181818181815,
                "end_time": 3.7045454545454546,
                "pitch": 56,
                "velocity": 51,
                "duration": 0.0977272727272731,
                "tempo": 120.0
            },
            {
                "start_time": 3.7204545454545452,
                "end_time": 3.9045454545454543,
                "pitch": 66,
                "velocity": 51,
                "duration": 0.18409090909090908,
                "tempo": 120.0
            },
            {
                "start_time": 3.9386363636363635,
                "end_time": 4.0227272727272725,
                "pitch": 66,
                "velocity": 51,
                "duration": 0.084090909090909,
                "tempo": 120.0
            },
            {
                "start_time": 4.038636363636363,
                "end_time": 4.236363636363636,
                "pitch": 68,
                "velocity": 51,
                "duration": 0.1977272727272732,
                "tempo": 120.0
            },
            {
                "start_time": 4.252272727272727,
                "end_time": 4.427272727272727,
                "pitch": 56,
                "velocity": 51,
                "duration": 0.17499999999999982,
                "tempo": 120.0
            },
            {
                "start_time": 4.459090909090909,
                "end_time": 4.638636363636364,
                "pitch": 65,
                "velocity": 51,
                "duration": 0.17954545454545467,
                "tempo": 120.0
            },
            {
                "start_time": 4.654545454545454,
                "end_time": 4.8590909090909085,
                "pitch": 66,
                "velocity": 51,
                "duration": 0.20454545454545414,
                "tempo": 120.0
            },
            {
                "start_time": 4.877272727272727,
                "end_time": 5.081818181818182,
                "pitch": 65,
                "velocity": 51,
                "duration": 0.20454545454545503,
                "tempo": 120.0
            },
            {
                "start_time": 5.097727272727273,
                "end_time": 5.181818181818182,
                "pitch": 56,
                "velocity": 51,
                "duration": 0.084090909090909,
                "tempo": 120.0
            },
            {
                "start_time": 5.197727272727272,
                "end_time": 5.297727272727273,
                "pitch": 56,
                "velocity": 51,
                "duration": 0.10000000000000053,
                "tempo": 120.0
            },
            {
                "start_time": 5.3159090909090905,
                "end_time": 5.3999999999999995,
                "pitch": 56,
                "velocity": 51,
                "duration": 0.084090909090909,
                "tempo": 120.0
            },
            {
                "start_time": 5.415909090909091,
                "end_time": 5.497727272727272,
                "pitch": 56,
                "velocity": 51,
                "duration": 0.08181818181818112,
                "tempo": 120.0
            },
            {
                "start_time": 5.629545454545454,
                "end_time": 5.711363636363636,
                "pitch": 56,
                "velocity": 51,
                "duration": 0.08181818181818201,
                "tempo": 120.0
            },
            {
                "start_time": 5.727272727272727,
                "end_time": 5.824999999999999,
                "pitch": 56,
                "velocity": 51,
                "duration": 0.09772727272727266,
                "tempo": 120.0
            },
            {
                "start_time": 5.843181818181818,
                "end_time": 5.925,
                "pitch": 56,
                "velocity": 51,
                "duration": 0.08181818181818201,
                "tempo": 120.0
            },
            {
                "start_time": 6.159090909090909,
                "end_time": 6.3590909090909085,
                "pitch": 53,
                "velocity": 51,
                "duration": 0.1999999999999993,
                "tempo": 120.0
            },
            {
                "start_time": 6.375,
                "end_time": 6.556818181818182,
                "pitch": 54,
                "velocity": 51,
                "duration": 0.18181818181818166,
                "tempo": 120.0
            },
            {
                "start_time": 6.588636363636363,
                "end_time": 6.7704545454545455,
                "pitch": 55,
                "velocity": 51,
                "duration": 0.18181818181818254,
                "tempo": 120.0
            },
            {
                "start_time": 6.788636363636363,
                "end_time": 8.047727272727272,
                "pitch": 56,
                "velocity": 51,
                "duration": 1.2590909090909088,
                "tempo": 120.0
            },
            {
                "start_time": 8.502272727272727,
                "end_time": 9.74090909090909,
                "pitch": 56,
                "velocity": 64,
                "duration": 1.2386363636363633,
                "tempo": 120.0
            },
            {
                "start_time": 10.193181818181818,
                "end_time": 11.454545454545453,
                "pitch": 54,
                "velocity": 64,
                "duration": 1.261363636363635,
                "tempo": 120.0
            },
            {
                "start_time": 11.906818181818181,
                "end_time": 13.143181818181818,
                "pitch": 54,
                "velocity": 64,
                "duration": 1.2363636363636363,
                "tempo": 120.0
            },
            {
                "start_time": 13.597727272727273,
                "end_time": 13.686363636363636,
                "pitch": 56,
                "velocity": 64,
                "duration": 0.08863636363636296,
                "tempo": 120.0
            },
            {
                "start_time": 13.702272727272726,
                "end_time": 13.809090909090909,
                "pitch": 56,
                "velocity": 51,
                "duration": 0.10681818181818237,
                "tempo": 120.0
            },
            {
                "start_time": 13.825,
                "end_time": 13.913636363636362,
                "pitch": 56,
                "velocity": 51,
                "duration": 0.08863636363636296,
                "tempo": 120.0
            },
            {
                "start_time": 13.929545454545455,
                "end_time": 14.125,
                "pitch": 66,
                "velocity": 51,
                "duration": 0.19545454545454533,
                "tempo": 120.0
            },
            {
                "start_time": 14.14090909090909,
                "end_time": 14.220454545454544,
                "pitch": 66,
                "velocity": 51,
                "duration": 0.07954545454545325,
                "tempo": 120.0
            },
            {
                "start_time": 14.236363636363636,
                "end_time": 14.429545454545455,
                "pitch": 68,
                "velocity": 51,
                "duration": 0.19318181818181834,
                "tempo": 120.0
            },
            {
                "start_time": 14.445454545454545,
                "end_time": 14.643181818181818,
                "pitch": 56,
                "velocity": 51,
                "duration": 0.1977272727272723,
                "tempo": 120.0
            },
            {
                "start_time": 14.659090909090908,
                "end_time": 14.85681818181818,
                "pitch": 65,
                "velocity": 51,
                "duration": 0.1977272727272723,
                "tempo": 120.0
            },
            {
                "start_time": 14.872727272727271,
                "end_time": 15.052272727272726,
                "pitch": 66,
                "velocity": 51,
                "duration": 0.17954545454545467,
                "tempo": 120.0
            },
            {
                "start_time": 15.084090909090909,
                "end_time": 15.26590909090909,
                "pitch": 65,
                "velocity": 51,
                "duration": 0.18181818181818166,
                "tempo": 120.0
            },
            {
                "start_time": 15.284090909090908,
                "end_time": 15.384090909090908,
                "pitch": 56,
                "velocity": 51,
                "duration": 0.09999999999999964,
                "tempo": 120.0
            },
            {
                "start_time": 15.399999999999999,
                "end_time": 15.484090909090908,
                "pitch": 56,
                "velocity": 51,
                "duration": 0.084090909090909,
                "tempo": 120.0
            },
            {
                "start_time": 15.5,
                "end_time": 15.584090909090909,
                "pitch": 56,
                "velocity": 51,
                "duration": 0.084090909090909,
                "tempo": 120.0
            },
            {
                "start_time": 15.618181818181817,
                "end_time": 15.804545454545453,
                "pitch": 66,
                "velocity": 51,
                "duration": 0.18636363636363562,
                "tempo": 120.0
            },
            {
                "start_time": 15.822727272727272,
                "end_time": 15.924999999999999,
                "pitch": 66,
                "velocity": 51,
                "duration": 0.10227272727272663,
                "tempo": 120.0
            },
            {
                "start_time": 15.94090909090909,
                "end_time": 16.127272727272725,
                "pitch": 68,
                "velocity": 51,
                "duration": 0.18636363636363562,
                "tempo": 120.0
            },
            {
                "start_time": 16.15909090909091,
                "end_time": 16.334090909090907,
                "pitch": 56,
                "velocity": 51,
                "duration": 0.17499999999999716,
                "tempo": 120.0
            },
            {
                "start_time": 16.349999999999998,
                "end_time": 16.543181818181818,
                "pitch": 65,
                "velocity": 51,
                "duration": 0.19318181818182012,
                "tempo": 120.0
            },
            {
                "start_time": 16.561363636363634,
                "end_time": 16.986363636363635,
                "pitch": 66,
                "velocity": 51,
                "duration": 0.4250000000000007,
                "tempo": 120.0
            },
            {
                "start_time": 17.002272727272725,
                "end_time": 17.084090909090907,
                "pitch": 56,
                "velocity": 51,
                "duration": 0.08181818181818201,
                "tempo": 120.0
            },
            {
                "start_time": 17.099999999999998,
                "end_time": 17.18181818181818,
                "pitch": 56,
                "velocity": 51,
                "duration": 0.08181818181818201,
                "tempo": 120.0
            },
            {
                "start_time": 17.21590909090909,
                "end_time": 17.297727272727272,
                "pitch": 56,
                "velocity": 51,
                "duration": 0.08181818181818201,
                "tempo": 120.0
            },
            {
                "start_time": 17.313636363636363,
                "end_time": 17.513636363636362,
                "pitch": 66,
                "velocity": 51,
                "duration": 0.1999999999999993,
                "tempo": 120.0
            },
            {
                "start_time": 17.529545454545453,
                "end_time": 17.613636363636363,
                "pitch": 66,
                "velocity": 51,
                "duration": 0.08409090909091077,
                "tempo": 120.0
            },
            {
                "start_time": 17.629545454545454,
                "end_time": 17.831818181818182,
                "pitch": 68,
                "velocity": 51,
                "duration": 0.20227272727272805,
                "tempo": 120.0
            },
            {
                "start_time": 17.847727272727273,
                "end_time": 18.05,
                "pitch": 56,
                "velocity": 51,
                "duration": 0.20227272727272805,
                "tempo": 120.0
            },
            {
                "start_time": 18.06590909090909,
                "end_time": 18.24772727272727,
                "pitch": 65,
                "velocity": 51,
                "duration": 0.18181818181817988,
                "tempo": 120.0
            },
            {
                "start_time": 18.28181818181818,
                "end_time": 18.461363636363636,
                "pitch": 66,
                "velocity": 51,
                "duration": 0.17954545454545467,
                "tempo": 120.0
            },
            {
                "start_time": 18.477272727272727,
                "end_time": 18.675,
                "pitch": 65,
                "velocity": 51,
                "duration": 0.19772727272727408,
                "tempo": 120.0
            },
            {
                "start_time": 18.693181818181817,
                "end_time": 18.777272727272727,
                "pitch": 56,
                "velocity": 51,
                "duration": 0.08409090909091077,
                "tempo": 120.0
            },
            {
                "start_time": 18.80909090909091,
                "end_time": 18.893181818181816,
                "pitch": 56,
                "velocity": 51,
                "duration": 0.08409090909090722,
                "tempo": 120.0
            },
            {
                "start_time": 18.909090909090907,
                "end_time": 18.993181818181817,
                "pitch": 56,
                "velocity": 51,
                "duration": 0.08409090909091077,
                "tempo": 120.0
            },
            {
                "start_time": 19.011363636363637,
                "end_time": 19.10909090909091,
                "pitch": 56,
                "velocity": 51,
                "duration": 0.09772727272727266,
                "tempo": 120.0
            },
            {
                "start_time": 19.224999999999998,
                "end_time": 19.30681818181818,
                "pitch": 56,
                "velocity": 51,
                "duration": 0.08181818181818201,
                "tempo": 120.0
            },
            {
                "start_time": 19.33863636363636,
                "end_time": 19.420454545454543,
                "pitch": 56,
                "velocity": 51,
                "duration": 0.08181818181818201,
                "tempo": 120.0
            },
            {
                "start_time": 19.436363636363634,
                "end_time": 19.520454545454545,
                "pitch": 56,
                "velocity": 51,
                "duration": 0.08409090909091077,
                "tempo": 120.0
            },
            {
                "start_time": 19.754545454545454,
                "end_time": 19.956818181818182,
                "pitch": 53,
                "velocity": 51,
                "duration": 0.20227272727272805,
                "tempo": 120.0
            },
            {
                "start_time": 19.972727272727273,
                "end_time": 20.179545454545455,
                "pitch": 54,
                "velocity": 51,
                "duration": 0.206818181818182,
                "tempo": 120.0
            },
            {
                "start_time": 20.195454545454545,
                "end_time": 20.384090909090908,
                "pitch": 55,
                "velocity": 51,
                "duration": 0.1886363636363626,
                "tempo": 120.0
            },
            {
                "start_time": 20.41590909090909,
                "end_time": 20.5,
                "pitch": 56,
                "velocity": 51,
                "duration": 0.08409090909091077,
                "tempo": 120.0
            },
            {
                "start_time": 20.51590909090909,
                "end_time": 20.599999999999998,
                "pitch": 56,
                "velocity": 51,
                "duration": 0.08409090909090722,
                "tempo": 120.0
            },
            {
                "start_time": 20.618181818181817,
                "end_time": 20.71818181818182,
                "pitch": 56,
                "velocity": 51,
                "duration": 0.10000000000000142,
                "tempo": 120.0
            },
            {
                "start_time": 20.73409090909091,
                "end_time": 20.91590909090909,
                "pitch": 66,
                "velocity": 51,
                "duration": 0.18181818181817988,
                "tempo": 120.0
            },
            {
                "start_time": 20.94772727272727,
                "end_time": 21.029545454545453,
                "pitch": 66,
                "velocity": 51,
                "duration": 0.08181818181818201,
                "tempo": 120.0
            },
            {
                "start_time": 21.045454545454543,
                "end_time": 21.24090909090909,
                "pitch": 68,
                "velocity": 51,
                "duration": 0.19545454545454533,
                "tempo": 120.0
            },
            {
                "start_time": 21.25681818181818,
                "end_time": 21.43181818181818,
                "pitch": 56,
                "velocity": 51,
                "duration": 0.1750000000000007,
                "tempo": 120.0
            },
            {
                "start_time": 21.46363636363636,
                "end_time": 21.643181818181816,
                "pitch": 65,
                "velocity": 51,
                "duration": 0.17954545454545467,
                "tempo": 120.0
            },
            {
                "start_time": 21.659090909090907,
                "end_time": 21.86590909090909,
                "pitch": 66,
                "velocity": 51,
                "duration": 0.206818181818182,
                "tempo": 120.0
            },
            {
                "start_time": 21.88181818181818,
                "end_time": 22.086363636363636,
                "pitch": 65,
                "velocity": 51,
                "duration": 0.2045454545454568,
                "tempo": 120.0
            },
            {
                "start_time": 22.102272727272727,
                "end_time": 22.186363636363634,
                "pitch": 56,
                "velocity": 51,
                "duration": 0.08409090909090722,
                "tempo": 120.0
            },
            {
                "start_time": 22.202272727272724,
                "end_time": 22.304545454545455,
                "pitch": 56,
                "velocity": 51,
                "duration": 0.10227272727273018,
                "tempo": 120.0
            },
            {
                "start_time": 22.320454545454545,
                "end_time": 22.404545454545453,
                "pitch": 56,
                "velocity": 51,
                "duration": 0.08409090909090722,
                "tempo": 120.0
            },
            {
                "start_time": 22.420454545454543,
                "end_time": 22.618181818181817,
                "pitch": 66,
                "velocity": 51,
                "duration": 0.19772727272727408,
                "tempo": 120.0
            },
            {
                "start_time": 22.634090909090908,
                "end_time": 22.71590909090909,
                "pitch": 66,
                "velocity": 51,
                "duration": 0.08181818181818201,
                "tempo": 120.0
            },
            {
                "start_time": 22.73181818181818,
                "end_time": 22.929545454545455,
                "pitch": 68,
                "velocity": 51,
                "duration": 0.19772727272727408,
                "tempo": 120.0
            },
            {
                "start_time": 22.94772727272727,
                "end_time": 23.147727272727273,
                "pitch": 56,
                "velocity": 51,
                "duration": 0.20000000000000284,
                "tempo": 120.0
            },
            {
                "start_time": 23.163636363636364,
                "end_time": 23.363636363636363,
                "pitch": 65,
                "velocity": 51,
                "duration": 0.1999999999999993,
                "tempo": 120.0
            },
            {
                "start_time": 23.379545454545454,
                "end_time": 23.775,
                "pitch": 66,
                "velocity": 51,
                "duration": 0.3954545454545446,
                "tempo": 120.0
            },
            {
                "start_time": 23.79090909090909,
                "end_time": 23.89090909090909,
                "pitch": 56,
                "velocity": 51,
                "duration": 0.10000000000000142,
                "tempo": 120.0
            },
            {
                "start_time": 23.909090909090907,
                "end_time": 23.993181818181817,
                "pitch": 56,
                "velocity": 51,
                "duration": 0.08409090909091077,
                "tempo": 120.0
            },
            {
                "start_time": 24.009090909090908,
                "end_time": 24.09318181818182,
                "pitch": 56,
                "velocity": 51,
                "duration": 0.08409090909091077,
                "tempo": 120.0
            },
            {
                "start_time": 24.127272727272725,
                "end_time": 24.30909090909091,
                "pitch": 66,
                "velocity": 51,
                "duration": 0.18181818181818343,
                "tempo": 120.0
            },
            {
                "start_time": 24.327272727272724,
                "end_time": 24.427272727272726,
                "pitch": 66,
                "velocity": 51,
                "duration": 0.10000000000000142,
                "tempo": 120.0
            },
            {
                "start_time": 24.443181818181817,
                "end_time": 24.627272727272725,
                "pitch": 68,
                "velocity": 51,
                "duration": 0.18409090909090864,
                "tempo": 120.0
            },
            {
                "start_time": 24.659090909090907,
                "end_time": 24.84090909090909,
                "pitch": 56,
                "velocity": 51,
                "duration": 0.18181818181818343,
                "tempo": 120.0
            },
            {
                "start_time": 24.85681818181818,
                "end_time": 25.054545454545455,
                "pitch": 65,
                "velocity": 51,
                "duration": 0.19772727272727408,
                "tempo": 120.0
            },
            {
                "start_time": 25.070454545454545,
                "end_time": 25.27272727272727,
                "pitch": 66,
                "velocity": 51,
                "duration": 0.2022727272727245,
                "tempo": 120.0
            },
            {
                "start_time": 25.288636363636364,
                "end_time": 25.488636363636363,
                "pitch": 65,
                "velocity": 51,
                "duration": 0.1999999999999993,
                "tempo": 120.0
            },
            {
                "start_time": 25.504545454545454,
                "end_time": 25.586363636363636,
                "pitch": 56,
                "velocity": 51,
                "duration": 0.08181818181818201,
                "tempo": 120.0
            },
            {
                "start_time": 25.602272727272727,
                "end_time": 25.68409090909091,
                "pitch": 56,
                "velocity": 51,
                "duration": 0.08181818181818201,
                "tempo": 120.0
            },
            {
                "start_time": 25.71818181818182,
                "end_time": 25.799999999999997,
                "pitch": 56,
                "velocity": 51,
                "duration": 0.08181818181817846,
                "tempo": 120.0
            },
            {
                "start_time": 25.81590909090909,
                "end_time": 25.9,
                "pitch": 56,
                "velocity": 51,
                "duration": 0.08409090909090722,
                "tempo": 120.0
            },
            {
                "start_time": 26.036363636363635,
                "end_time": 26.120454545454542,
                "pitch": 56,
                "velocity": 51,
                "duration": 0.08409090909090722,
                "tempo": 120.0
            },
            {
                "start_time": 26.138636363636362,
                "end_time": 26.224999999999998,
                "pitch": 56,
                "velocity": 51,
                "duration": 0.08636363636363598,
                "tempo": 120.0
            },
            {
                "start_time": 26.259090909090908,
                "end_time": 26.34090909090909,
                "pitch": 56,
                "velocity": 51,
                "duration": 0.08181818181818201,
                "tempo": 120.0
            },
            {
                "start_time": 26.570454545454545,
                "end_time": 26.75,
                "pitch": 53,
                "velocity": 51,
                "duration": 0.17954545454545467,
                "tempo": 120.0
            },
            {
                "start_time": 26.784090909090907,
                "end_time": 26.96363636363636,
                "pitch": 54,
                "velocity": 51,
                "duration": 0.17954545454545467,
                "tempo": 120.0
            },
            {
                "start_time": 26.979545454545452,
                "end_time": 27.179545454545455,
                "pitch": 55,
                "velocity": 51,
                "duration": 0.20000000000000284,
                "tempo": 120.0
            },
            {
                "start_time": 27.195454545454545,
                "end_time": 27.284090909090907,
                "pitch": 56,
                "velocity": 51,
                "duration": 0.08863636363636118,
                "tempo": 120.0
            },
            {
                "start_time": 27.318181818181817,
                "end_time": 27.40681818181818,
                "pitch": 56,
                "velocity": 51,
                "duration": 0.08863636363636473,
                "tempo": 120.0
            },
            {
                "start_time": 27.422727272727272,
                "end_time": 27.511363636363637,
                "pitch": 56,
                "velocity": 51,
                "duration": 0.08863636363636473,
                "tempo": 120.0
            },
            {
                "start_time": 27.529545454545453,
                "end_time": 27.627272727272725,
                "pitch": 56,
                "velocity": 51,
                "duration": 0.09772727272727266,
                "tempo": 120.0
            },
            {
                "start_time": 27.645454545454545,
                "end_time": 27.820454545454545,
                "pitch": 56,
                "velocity": 51,
                "duration": 0.1750000000000007,
                "tempo": 120.0
            },
            {
                "start_time": 28.695454545454545,
                "end_time": 28.78181818181818,
                "pitch": 54,
                "velocity": 51,
                "duration": 0.08636363636363598,
                "tempo": 120.0
            },
            {
                "start_time": 28.797727272727272,
                "end_time": 28.879545454545454,
                "pitch": 54,
                "velocity": 51,
                "duration": 0.08181818181818201,
                "tempo": 120.0
            },
            {
                "start_time": 28.911363636363635,
                "end_time": 28.99090909090909,
                "pitch": 56,
                "velocity": 51,
                "duration": 0.07954545454545325,
                "tempo": 120.0
            },
            {
                "start_time": 29.00681818181818,
                "end_time": 29.086363636363636,
                "pitch": 56,
                "velocity": 51,
                "duration": 0.0795454545454568,
                "tempo": 120.0
            },
            {
                "start_time": 29.102272727272727,
                "end_time": 29.19772727272727,
                "pitch": 56,
                "velocity": 51,
                "duration": 0.0954545454545439,
                "tempo": 120.0
            },
            {
                "start_time": 29.21363636363636,
                "end_time": 29.297727272727272,
                "pitch": 56,
                "velocity": 51,
                "duration": 0.08409090909091077,
                "tempo": 120.0
            },
            {
                "start_time": 29.313636363636363,
                "end_time": 29.520454545454545,
                "pitch": 56,
                "velocity": 51,
                "duration": 0.206818181818182,
                "tempo": 120.0
            },
            {
                "start_time": 30.602272727272727,
                "end_time": 30.686363636363634,
                "pitch": 54,
                "velocity": 51,
                "duration": 0.08409090909090722,
                "tempo": 120.0
            },
            {
                "start_time": 30.702272727272724,
                "end_time": 30.802272727272726,
                "pitch": 54,
                "velocity": 51,
                "duration": 0.10000000000000142,
                "tempo": 120.0
            },
            {
                "start_time": 30.818181818181817,
                "end_time": 30.902272727272727,
                "pitch": 54,
                "velocity": 51,
                "duration": 0.08409090909091077,
                "tempo": 120.0
            },
            {
                "start_time": 30.920454545454543,
                "end_time": 31.002272727272725,
                "pitch": 54,
                "velocity": 51,
                "duration": 0.08181818181818201,
                "tempo": 120.0
            },
            {
                "start_time": 31.034090909090907,
                "end_time": 31.21590909090909,
                "pitch": 54,
                "velocity": 51,
                "duration": 0.18181818181818343,
                "tempo": 120.0
            },
            {
                "start_time": 32.09318181818182,
                "end_time": 32.175,
                "pitch": 53,
                "velocity": 51,
                "duration": 0.08181818181817846,
                "tempo": 120.0
            },
            {
                "start_time": 32.19090909090909,
                "end_time": 32.27272727272727,
                "pitch": 53,
                "velocity": 51,
                "duration": 0.08181818181818556,
                "tempo": 120.0
            },
            {
                "start_time": 32.29090909090909,
                "end_time": 32.39090909090909,
                "pitch": 54,
                "velocity": 51,
                "duration": 0.10000000000000142,
                "tempo": 120.0
            },
            {
                "start_time": 32.40681818181818,
                "end_time": 32.49090909090909,
                "pitch": 54,
                "velocity": 51,
                "duration": 0.08409090909091077,
                "tempo": 120.0
            },
            {
                "start_time": 32.50681818181818,
                "end_time": 32.590909090909086,
                "pitch": 54,
                "velocity": 51,
                "duration": 0.08409090909090366,
                "tempo": 120.0
            },
            {
                "start_time": 32.625,
                "end_time": 32.70909090909091,
                "pitch": 54,
                "velocity": 51,
                "duration": 0.08409090909091077,
                "tempo": 120.0
            },
            {
                "start_time": 32.72727272727273,
                "end_time": 32.93181818181818,
                "pitch": 54,
                "velocity": 51,
                "duration": 0.20454545454545325,
                "tempo": 120.0
            },
            {
                "start_time": 34.00909090909091,
                "end_time": 34.090909090909086,
                "pitch": 56,
                "velocity": 51,
                "duration": 0.08181818181817846,
                "tempo": 120.0
            },
            {
                "start_time": 34.10681818181818,
                "end_time": 34.18863636363636,
                "pitch": 56,
                "velocity": 51,
                "duration": 0.08181818181818556,
                "tempo": 120.0
            },
            {
                "start_time": 34.22272727272727,
                "end_time": 34.304545454545455,
                "pitch": 56,
                "velocity": 51,
                "duration": 0.08181818181818556,
                "tempo": 120.0
            },
            {
                "start_time": 34.320454545454545,
                "end_time": 34.404545454545456,
                "pitch": 56,
                "velocity": 51,
                "duration": 0.08409090909091077,
                "tempo": 120.0
            },
            {
                "start_time": 34.42045454545455,
                "end_time": 34.62045454545454,
                "pitch": 56,
                "velocity": 51,
                "duration": 0.19999999999999574,
                "tempo": 120.0
            },
            {
                "start_time": 35.47727272727273,
                "end_time": 35.57272727272727,
                "pitch": 54,
                "velocity": 51,
                "duration": 0.0954545454545439,
                "tempo": 120.0
            },
            {
                "start_time": 35.58863636363636,
                "end_time": 35.67272727272727,
                "pitch": 54,
                "velocity": 51,
                "duration": 0.08409090909091077,
                "tempo": 120.0
            },
            {
                "start_time": 35.68863636363636,
                "end_time": 35.775,
                "pitch": 56,
                "velocity": 51,
                "duration": 0.08636363636363598,
                "tempo": 120.0
            },
            {
                "start_time": 35.809090909090905,
                "end_time": 35.893181818181816,
                "pitch": 56,
                "velocity": 51,
                "duration": 0.08409090909091077,
                "tempo": 120.0
            },
            {
                "start_time": 35.91136363636363,
                "end_time": 35.99772727272727,
                "pitch": 56,
                "velocity": 51,
                "duration": 0.08636363636363598,
                "tempo": 120.0
            },
            {
                "start_time": 36.01363636363636,
                "end_time": 36.11363636363636,
                "pitch": 56,
                "velocity": 51,
                "duration": 0.10000000000000142,
                "tempo": 120.0
            },
            {
                "start_time": 36.12954545454545,
                "end_time": 36.31136363636364,
                "pitch": 56,
                "velocity": 51,
                "duration": 0.18181818181818699,
                "tempo": 120.0
            },
            {
                "start_time": 37.40909090909091,
                "end_time": 37.49090909090909,
                "pitch": 56,
                "velocity": 51,
                "duration": 0.08181818181818556,
                "tempo": 120.0
            },
            {
                "start_time": 37.50681818181818,
                "end_time": 37.58863636363636,
                "pitch": 56,
                "velocity": 51,
                "duration": 0.08181818181817846,
                "tempo": 120.0
            },
            {
                "start_time": 37.60681818181818,
                "end_time": 37.70454545454545,
                "pitch": 56,
                "velocity": 51,
                "duration": 0.09772727272727622,
                "tempo": 120.0
            },
            {
                "start_time": 37.720454545454544,
                "end_time": 37.804545454545455,
                "pitch": 56,
                "velocity": 51,
                "duration": 0.08409090909091077,
                "tempo": 120.0
            },
            {
                "start_time": 37.820454545454545,
                "end_time": 38.027272727272724,
                "pitch": 56,
                "velocity": 51,
                "duration": 0.20681818181817846,
                "tempo": 120.0
            },
            {
                "start_time": 38.87954545454545,
                "end_time": 38.96363636363636,
                "pitch": 54,
                "velocity": 51,
                "duration": 0.08409090909091077,
                "tempo": 120.0
            },
            {
                "start_time": 38.99772727272727,
                "end_time": 39.07954545454545,
                "pitch": 54,
                "velocity": 51,
                "duration": 0.08181818181818556,
                "tempo": 120.0
            },
            {
                "start_time": 39.09772727272727,
                "end_time": 39.18181818181818,
                "pitch": 56,
                "velocity": 51,
                "duration": 0.08409090909091077,
                "tempo": 120.0
            },
            {
                "start_time": 39.19772727272727,
                "end_time": 39.29772727272727,
                "pitch": 56,
                "velocity": 51,
                "duration": 0.10000000000000142,
                "tempo": 120.0
            },
            {
                "start_time": 39.31363636363636,
                "end_time": 39.39772727272727,
                "pitch": 56,
                "velocity": 51,
                "duration": 0.08409090909091077,
                "tempo": 120.0
            },
            {
                "start_time": 39.41590909090909,
                "end_time": 39.49772727272727,
                "pitch": 56,
                "velocity": 51,
                "duration": 0.08181818181817846,
                "tempo": 120.0
            },
            {
                "start_time": 39.529545454545456,
                "end_time": 39.611363636363635,
                "pitch": 56,
                "velocity": 51,
                "duration": 0.08181818181817846,
                "tempo": 120.0
            },
            {
                "start_time": 39.62954545454545,
                "end_time": 39.711363636363636,
                "pitch": 56,
                "velocity": 51,
                "duration": 0.08181818181818556,
                "tempo": 120.0
            },
            {
                "start_time": 39.72727272727273,
                "end_time": 39.824999999999996,
                "pitch": 56,
                "velocity": 51,
                "duration": 0.09772727272726911,
                "tempo": 120.0
            },
            {
                "start_time": 39.840909090909086,
                "end_time": 39.925,
                "pitch": 56,
                "velocity": 51,
                "duration": 0.08409090909091077,
                "tempo": 120.0
            },
            {
                "start_time": 40.78636363636363,
                "end_time": 40.88863636363636,
                "pitch": 56,
                "velocity": 51,
                "duration": 0.10227272727272663,
                "tempo": 120.0
            },
            {
                "start_time": 40.90681818181818,
                "end_time": 40.99090909090909,
                "pitch": 56,
                "velocity": 51,
                "duration": 0.08409090909091077,
                "tempo": 120.0
            },
            {
                "start_time": 41.00909090909091,
                "end_time": 41.095454545454544,
                "pitch": 56,
                "velocity": 51,
                "duration": 0.08636363636363598,
                "tempo": 120.0
            },
            {
                "start_time": 41.12954545454545,
                "end_time": 41.21363636363636,
                "pitch": 56,
                "velocity": 51,
                "duration": 0.08409090909091077,
                "tempo": 120.0
            },
            {
                "start_time": 41.22954545454545,
                "end_time": 41.43181818181818,
                "pitch": 56,
                "velocity": 51,
                "duration": 0.20227272727272805,
                "tempo": 120.0
            },
            {
                "start_time": 42.28636363636363,
                "end_time": 42.37045454545454,
                "pitch": 54,
                "velocity": 51,
                "duration": 0.08409090909091077,
                "tempo": 120.0
            },
            {
                "start_time": 42.38863636363636,
                "end_time": 42.48863636363636,
                "pitch": 54,
                "velocity": 51,
                "duration": 0.10000000000000142,
                "tempo": 120.0
            },
            {
                "start_time": 42.50454545454545,
                "end_time": 42.586363636363636,
                "pitch": 56,
                "velocity": 51,
                "duration": 0.08181818181818556,
                "tempo": 120.0
            },
            {
                "start_time": 42.60227272727273,
                "end_time": 42.684090909090905,
                "pitch": 56,
                "velocity": 51,
                "duration": 0.08181818181817846,
                "tempo": 120.0
            },
            {
                "start_time": 42.71818181818182,
                "end_time": 42.8,
                "pitch": 56,
                "velocity": 51,
                "duration": 0.08181818181817846,
                "tempo": 120.0
            },
            {
                "start_time": 42.81590909090909,
                "end_time": 42.9,
                "pitch": 56,
                "velocity": 51,
                "duration": 0.08409090909091077,
                "tempo": 120.0
            },
            {
                "start_time": 42.91590909090909,
                "end_time": 43.11590909090909,
                "pitch": 56,
                "velocity": 51,
                "duration": 0.20000000000000284,
                "tempo": 120.0
            },
            {
                "start_time": 44.195454545454545,
                "end_time": 44.27954545454545,
                "pitch": 54,
                "velocity": 51,
                "duration": 0.08409090909090366,
                "tempo": 120.0
            },
            {
                "start_time": 44.31136363636364,
                "end_time": 44.39545454545454,
                "pitch": 54,
                "velocity": 51,
                "duration": 0.08409090909090366,
                "tempo": 120.0
            },
            {
                "start_time": 44.413636363636364,
                "end_time": 44.49545454545454,
                "pitch": 54,
                "velocity": 51,
                "duration": 0.08181818181817846,
                "tempo": 120.0
            },
            {
                "start_time": 44.51363636363636,
                "end_time": 44.611363636363635,
                "pitch": 54,
                "velocity": 51,
                "duration": 0.09772727272727622,
                "tempo": 120.0
            },
            {
                "start_time": 44.62954545454545,
                "end_time": 44.809090909090905,
                "pitch": 54,
                "velocity": 51,
                "duration": 0.17954545454545467,
                "tempo": 120.0
            },
            {
                "start_time": 45.69318181818181,
                "end_time": 45.775,
                "pitch": 53,
                "velocity": 51,
                "duration": 0.08181818181818556,
                "tempo": 120.0
            },
            {
                "start_time": 45.793181818181814,
                "end_time": 45.875,
                "pitch": 53,
                "velocity": 51,
                "duration": 0.08181818181818556,
                "tempo": 120.0
            },
            {
                "start_time": 45.90681818181818,
                "end_time": 45.98863636363636,
                "pitch": 54,
                "velocity": 51,
                "duration": 0.08181818181817846,
                "tempo": 120.0
            },
            {
                "start_time": 46.00681818181818,
                "end_time": 46.08863636363636,
                "pitch": 54,
                "velocity": 51,
                "duration": 0.08181818181817846,
                "tempo": 120.0
            },
            {
                "start_time": 46.10454545454545,
                "end_time": 46.20227272727273,
                "pitch": 54,
                "velocity": 51,
                "duration": 0.09772727272727622,
                "tempo": 120.0
            },
            {
                "start_time": 46.21818181818182,
                "end_time": 46.30227272727272,
                "pitch": 54,
                "velocity": 51,
                "duration": 0.08409090909090366,
                "tempo": 120.0
            },
            {
                "start_time": 46.320454545454545,
                "end_time": 46.525,
                "pitch": 54,
                "velocity": 51,
                "duration": 0.20454545454545325,
                "tempo": 120.0
            }
        ]
    }
}