{
    "track_id": "California Games (FM) - 05 - Foot Bag",
    "mood": "angry",
    "instruments": {
        "Electric Guitar (clean)": [
            {
                "start_time": 0.0,
                "end_time": 0.3568181818181818,
                "pitch": 29,
                "velocity": 64,
                "duration": 0.3568181818181818,
                "tempo": 120.0
            },
            {
                "start_time": 0.3727272727272727,
                "end_time": 0.5727272727272728,
                "pitch": 41,
                "velocity": 64,
                "duration": 0.20000000000000007,
                "tempo": 120.0
            },
            {
                "start_time": 0.5886363636363636,
                "end_time": 0.7909090909090909,
                "pitch": 36,
                "velocity": 64,
                "duration": 0.20227272727272727,
                "tempo": 120.0
            },
            {
                "start_time": 0.8068181818181818,
                "end_time": 0.9954545454545454,
                "pitch": 39,
                "velocity": 64,
                "duration": 0.1886363636363636,
                "tempo": 120.0
            },
            {
                "start_time": 1.0113636363636362,
                "end_time": 1.218181818181818,
                "pitch": 39,
                "velocity": 64,
                "duration": 0.2068181818181818,
                "tempo": 120.0
            },
            {
                "start_time": 1.2340909090909091,
                "end_time": 1.4318181818181817,
                "pitch": 40,
                "velocity": 64,
                "duration": 0.19772727272727253,
                "tempo": 120.0
            },
            {
                "start_time": 1.4477272727272728,
                "end_time": 1.6454545454545453,
                "pitch": 41,
                "velocity": 64,
                "duration": 0.19772727272727253,
                "tempo": 120.0
            },
            {
                "start_time": 1.6613636363636364,
                "end_time": 2.061363636363636,
                "pitch": 29,
                "velocity": 64,
                "duration": 0.3999999999999997,
                "tempo": 120.0
            },
            {
                "start_time": 2.0795454545454546,
                "end_time": 2.275,
                "pitch": 41,
                "velocity": 64,
                "duration": 0.19545454545454533,
                "tempo": 120.0
            },
            {
                "start_time": 2.293181818181818,
                "end_time": 2.4886363636363633,
                "pitch": 36,
                "velocity": 64,
                "duration": 0.19545454545454533,
                "tempo": 120.0
            },
            {
                "start_time": 2.5045454545454544,
                "end_time": 2.7068181818181816,
                "pitch": 39,
                "velocity": 64,
                "duration": 0.20227272727272716,
                "tempo": 120.0
            },
            {
                "start_time": 2.7227272727272727,
                "end_time": 2.9227272727272724,
                "pitch": 39,
                "velocity": 64,
                "duration": 0.19999999999999973,
                "tempo": 120.0
            },
            {
                "start_time": 2.940909090909091,
                "end_time": 3.127272727272727,
                "pitch": 40,
                "velocity": 64,
                "duration": 0.18636363636363606,
                "tempo": 120.0
            },
            {
                "start_time": 3.1454545454545455,
                "end_time": 3.3499999999999996,
                "pitch": 41,
                "velocity": 64,
                "duration": 0.20454545454545414,
                "tempo": 120.0
            },
            {
                "start_time": 3.368181818181818,
                "end_time": 3.7659090909090907,
                "pitch": 29,
                "velocity": 64,
                "duration": 0.3977272727272725,
                "tempo": 120.0
            },
            {
                "start_time": 3.7818181818181817,
                "end_time": 3.9863636363636363,
                "pitch": 41,
                "velocity": 64,
                "duration": 0.20454545454545459,
                "tempo": 120.0
            },
            {
                "start_time": 4.004545454545454,
                "end_time": 4.1909090909090905,
                "pitch": 36,
                "velocity": 64,
                "duration": 0.1863636363636365,
                "tempo": 120.0
            },
            {
                "start_time": 4.209090909090909,
                "end_time": 4.406818181818181,
                "pitch": 39,
                "velocity": 64,
                "duration": 0.1977272727272723,
                "tempo": 120.0
            },
            {
                "start_time": 4.422727272727273,
                "end_time": 4.618181818181818,
                "pitch": 39,
                "velocity": 64,
                "duration": 0.19545454545454533,
                "tempo": 120.0
            },
            {
                "start_time": 4.636363636363636,
                "end_time": 4.836363636363636,
                "pitch": 40,
                "velocity": 64,
                "duration": 0.20000000000000018,
                "tempo": 120.0
            },
            {
                "start_time": 4.852272727272727,
                "end_time": 5.052272727272727,
                "pitch": 41,
                "velocity": 64,
                "duration": 0.20000000000000018,
                "tempo": 120.0
            },
            {
                "start_time": 5.070454545454545,
                "end_time": 5.472727272727273,
                "pitch": 29,
                "velocity": 64,
                "duration": 0.40227272727272734,
                "tempo": 120.0
            },
            {
                "start_time": 5.488636363636363,
                "end_time": 5.6863636363636365,
                "pitch": 41,
                "velocity": 64,
                "duration": 0.1977272727272732,
                "tempo": 120.0
            },
            {
                "start_time": 5.702272727272727,
                "end_time": 5.8977272727272725,
                "pitch": 36,
                "velocity": 64,
                "duration": 0.19545454545454533,
                "tempo": 120.0
            },
            {
                "start_time": 5.913636363636363,
                "end_time": 6.11590909090909,
                "pitch": 39,
                "velocity": 64,
                "duration": 0.20227272727272716,
                "tempo": 120.0
            },
            {
                "start_time": 6.131818181818182,
                "end_time": 6.3159090909090905,
                "pitch": 39,
                "velocity": 64,
                "duration": 0.18409090909090864,
                "tempo": 120.0
            },
            {
                "start_time": 6.331818181818181,
                "end_time": 6.529545454545454,
                "pitch": 40,
                "velocity": 64,
                "duration": 0.1977272727272732,
                "tempo": 120.0
            },
            {
                "start_time": 6.545454545454545,
                "end_time": 6.743181818181818,
                "pitch": 41,
                "velocity": 64,
                "duration": 0.1977272727272732,
                "tempo": 120.0
            },
            {
                "start_time": 6.759090909090909,
                "end_time": 7.177272727272727,
                "pitch": 29,
                "velocity": 64,
                "duration": 0.418181818181818,
                "tempo": 120.0
            },
            {
                "start_time": 7.1931818181818175,
                "end_time": 7.377272727272727,
                "pitch": 41,
                "velocity": 64,
                "duration": 0.18409090909090953,
                "tempo": 120.0
            },
            {
                "start_time": 7.3954545454545455,
                "end_time": 7.595454545454545,
                "pitch": 36,
                "velocity": 64,
                "duration": 0.1999999999999993,
                "tempo": 120.0
            },
            {
                "start_time": 7.611363636363636,
                "end_time": 7.809090909090909,
                "pitch": 39,
                "velocity": 64,
                "duration": 0.1977272727272723,
                "tempo": 120.0
            },
            {
                "start_time": 7.824999999999999,
                "end_time": 8.022727272727272,
                "pitch": 39,
                "velocity": 64,
                "duration": 0.1977272727272723,
                "tempo": 120.0
            },
            {
                "start_time": 8.038636363636364,
                "end_time": 8.238636363636363,
                "pitch": 40,
                "velocity": 64,
                "duration": 0.1999999999999993,
                "tempo": 120.0
            },
            {
                "start_time": 8.254545454545454,
                "end_time": 8.438636363636363,
                "pitch": 41,
                "velocity": 64,
                "duration": 0.18409090909090864,
                "tempo": 120.0
            },
            {
                "start_time": 8.456818181818182,
                "end_time": 8.86590909090909,
                "pitch": 29,
                "velocity": 64,
                "duration": 0.4090909090909083,
                "tempo": 120.0
            },
            {
                "start_time": 8.881818181818181,
                "end_time": 9.084090909090909,
                "pitch": 41,
                "velocity": 64,
                "duration": 0.20227272727272805,
                "tempo": 120.0
            },
            {
                "start_time": 9.1,
                "end_time": 9.299999999999999,
                "pitch": 36,
                "velocity": 64,
                "duration": 0.1999999999999993,
                "tempo": 120.0
            },
            {
                "start_time": 9.318181818181818,
                "end_time": 9.502272727272727,
                "pitch": 39,
                "velocity": 64,
                "duration": 0.18409090909090864,
                "tempo": 120.0
            },
            {
                "start_time": 9.518181818181818,
                "end_time": 9.718181818181817,
                "pitch": 39,
                "velocity": 64,
                "duration": 0.1999999999999993,
                "tempo": 120.0
            },
            {
                "start_time": 9.736363636363636,
                "end_time": 9.931818181818182,
                "pitch": 40,
                "velocity": 64,
                "duration": 0.19545454545454533,
                "tempo": 120.0
            },
            {
                "start_time": 9.947727272727272,
                "end_time": 10.145454545454545,
                "pitch": 41,
                "velocity": 64,
                "duration": 0.1977272727272723,
                "tempo": 120.0
            },
            {
                "start_time": 10.161363636363635,
                "end_time": 10.563636363636363,
                "pitch": 34,
                "velocity": 64,
                "duration": 0.40227272727272734,
                "tempo": 120.0
            },
            {
                "start_time": 10.579545454545453,
                "end_time": 10.777272727272727,
                "pitch": 46,
                "velocity": 64,
                "duration": 0.19772727272727408,
                "tempo": 120.0
            },
            {
                "start_time": 10.793181818181818,
                "end_time": 10.988636363636363,
                "pitch": 41,
                "velocity": 64,
                "duration": 0.19545454545454533,
                "tempo": 120.0
            },
            {
                "start_time": 11.006818181818181,
                "end_time": 11.206818181818182,
                "pitch": 44,
                "velocity": 64,
                "duration": 0.20000000000000107,
                "tempo": 120.0
            },
            {
                "start_time": 11.222727272727273,
                "end_time": 11.424999999999999,
                "pitch": 44,
                "velocity": 64,
                "duration": 0.20227272727272627,
                "tempo": 120.0
            },
            {
                "start_time": 11.44090909090909,
                "end_time": 11.629545454545454,
                "pitch": 45,
                "velocity": 64,
                "duration": 0.18863636363636438,
                "tempo": 120.0
            },
            {
                "start_time": 11.645454545454545,
                "end_time": 11.852272727272727,
                "pitch": 46,
                "velocity": 64,
                "duration": 0.206818181818182,
                "tempo": 120.0
            },
            {
                "start_time": 11.868181818181817,
                "end_time": 12.279545454545454,
                "pitch": 34,
                "velocity": 64,
                "duration": 0.41136363636363704,
                "tempo": 120.0
            },
            {
                "start_time": 12.295454545454545,
                "end_time": 12.495454545454544,
                "pitch": 46,
                "velocity": 64,
                "duration": 0.1999999999999993,
                "tempo": 120.0
            },
            {
                "start_time": 12.511363636363635,
                "end_time": 12.695454545454545,
                "pitch": 41,
                "velocity": 64,
                "duration": 0.18409090909091042,
                "tempo": 120.0
            },
            {
                "start_time": 12.713636363636363,
                "end_time": 12.904545454545454,
                "pitch": 44,
                "velocity": 64,
                "duration": 0.19090909090909136,
                "tempo": 120.0
            },
            {
                "start_time": 12.920454545454545,
                "end_time": 13.111363636363636,
                "pitch": 44,
                "velocity": 64,
                "duration": 0.19090909090909136,
                "tempo": 120.0
            },
            {
                "start_time": 13.127272727272727,
                "end_time": 13.331818181818182,
                "pitch": 45,
                "velocity": 64,
                "duration": 0.20454545454545503,
                "tempo": 120.0
            },
            {
                "start_time": 13.35,
                "end_time": 13.554545454545455,
                "pitch": 46,
                "velocity": 64,
                "duration": 0.20454545454545503,
                "tempo": 120.0
            },
            {
                "start_time": 13.570454545454545,
                "end_time": 13.972727272727273,
                "pitch": 29,
                "velocity": 64,
                "duration": 0.40227272727272734,
                "tempo": 120.0
            },
            {
                "start_time": 13.99090909090909,
                "end_time": 14.186363636363636,
                "pitch": 41,
                "velocity": 64,
                "duration": 0.19545454545454533,
                "tempo": 120.0
            },
            {
                "start_time": 14.202272727272726,
                "end_time": 14.399999999999999,
                "pitch": 36,
                "velocity": 64,
                "duration": 0.1977272727272723,
                "tempo": 120.0
            },
            {
                "start_time": 14.415909090909091,
                "end_time": 14.620454545454544,
                "pitch": 39,
                "velocity": 64,
                "duration": 0.20454545454545325,
                "tempo": 120.0
            },
            {
                "start_time": 14.636363636363635,
                "end_time": 14.825,
                "pitch": 39,
                "velocity": 64,
                "duration": 0.18863636363636438,
                "tempo": 120.0
            },
            {
                "start_time": 14.843181818181817,
                "end_time": 15.034090909090908,
                "pitch": 40,
                "velocity": 64,
                "duration": 0.19090909090909136,
                "tempo": 120.0
            },
            {
                "start_time": 15.049999999999999,
                "end_time": 15.24090909090909,
                "pitch": 41,
                "velocity": 64,
                "duration": 0.19090909090909136,
                "tempo": 120.0
            },
            {
                "start_time": 15.256818181818181,
                "end_time": 15.674999999999999,
                "pitch": 29,
                "velocity": 64,
                "duration": 0.418181818181818,
                "tempo": 120.0
            },
            {
                "start_time": 15.693181818181817,
                "end_time": 15.879545454545454,
                "pitch": 41,
                "velocity": 64,
                "duration": 0.1863636363636374,
                "tempo": 120.0
            },
            {
                "start_time": 15.897727272727272,
                "end_time": 16.102272727272727,
                "pitch": 36,
                "velocity": 64,
                "duration": 0.20454545454545503,
                "tempo": 120.0
            },
            {
                "start_time": 16.120454545454546,
                "end_time": 16.31590909090909,
                "pitch": 39,
                "velocity": 64,
                "duration": 0.19545454545454533,
                "tempo": 120.0
            },
            {
                "start_time": 16.334090909090907,
                "end_time": 16.529545454545453,
                "pitch": 39,
                "velocity": 64,
                "duration": 0.19545454545454533,
                "tempo": 120.0
            },
            {
                "start_time": 16.545454545454543,
                "end_time": 16.74772727272727,
                "pitch": 40,
                "velocity": 64,
                "duration": 0.20227272727272805,
                "tempo": 120.0
            },
            {
                "start_time": 16.763636363636362,
                "end_time": 16.94772727272727,
                "pitch": 41,
                "velocity": 64,
                "duration": 0.18409090909090864,
                "tempo": 120.0
            },
            {
                "start_time": 16.96363636363636,
                "end_time": 17.15681818181818,
                "pitch": 32,
                "velocity": 64,
                "duration": 0.19318181818182012,
                "tempo": 120.0
            },
            {
                "start_time": 17.172727272727272,
                "end_time": 17.363636363636363,
                "pitch": 32,
                "velocity": 64,
                "duration": 0.19090909090909136,
                "tempo": 120.0
            },
            {
                "start_time": 17.379545454545454,
                "end_time": 17.584090909090907,
                "pitch": 44,
                "velocity": 64,
                "duration": 0.20454545454545325,
                "tempo": 120.0
            },
            {
                "start_time": 17.599999999999998,
                "end_time": 17.804545454545455,
                "pitch": 32,
                "velocity": 64,
                "duration": 0.2045454545454568,
                "tempo": 120.0
            },
            {
                "start_time": 17.82272727272727,
                "end_time": 18.00681818181818,
                "pitch": 32,
                "velocity": 64,
                "duration": 0.18409090909090864,
                "tempo": 120.0
            },
            {
                "start_time": 18.022727272727273,
                "end_time": 18.224999999999998,
                "pitch": 32,
                "velocity": 64,
                "duration": 0.2022727272727245,
                "tempo": 120.0
            },
            {
                "start_time": 18.24090909090909,
                "end_time": 18.43181818181818,
                "pitch": 44,
                "velocity": 64,
                "duration": 0.19090909090909136,
                "tempo": 120.0
            },
            {
                "start_time": 18.44772727272727,
                "end_time": 18.638636363636362,
                "pitch": 32,
                "velocity": 64,
                "duration": 0.19090909090909136,
                "tempo": 120.0
            },
            {
                "start_time": 18.654545454545453,
                "end_time": 18.85909090909091,
                "pitch": 31,
                "velocity": 64,
                "duration": 0.2045454545454568,
                "tempo": 120.0
            },
            {
                "start_time": 18.877272727272725,
                "end_time": 19.06590909090909,
                "pitch": 31,
                "velocity": 64,
                "duration": 0.18863636363636616,
                "tempo": 120.0
            },
            {
                "start_time": 19.081818181818182,
                "end_time": 19.279545454545453,
                "pitch": 43,
                "velocity": 64,
                "duration": 0.19772727272727053,
                "tempo": 120.0
            },
            {
                "start_time": 19.295454545454543,
                "end_time": 19.493181818181817,
                "pitch": 31,
                "velocity": 64,
                "duration": 0.19772727272727408,
                "tempo": 120.0
            },
            {
                "start_time": 19.509090909090908,
                "end_time": 19.709090909090907,
                "pitch": 30,
                "velocity": 64,
                "duration": 0.1999999999999993,
                "tempo": 120.0
            },
            {
                "start_time": 19.724999999999998,
                "end_time": 19.927272727272726,
                "pitch": 30,
                "velocity": 64,
                "duration": 0.20227272727272805,
                "tempo": 120.0
            },
            {
                "start_time": 19.943181818181817,
                "end_time": 20.127272727272725,
                "pitch": 42,
                "velocity": 64,
                "duration": 0.18409090909090864,
                "tempo": 120.0
            },
            {
                "start_time": 20.145454545454545,
                "end_time": 20.345454545454544,
                "pitch": 30,
                "velocity": 64,
                "duration": 0.1999999999999993,
                "tempo": 120.0
            },
            {
                "start_time": 20.361363636363635,
                "end_time": 20.772727272727273,
                "pitch": 29,
                "velocity": 64,
                "duration": 0.4113636363636388,
                "tempo": 120.0
            },
            {
                "start_time": 20.788636363636364,
                "end_time": 20.993181818181817,
                "pitch": 41,
                "velocity": 64,
                "duration": 0.20454545454545325,
                "tempo": 120.0
            },
            {
                "start_time": 21.009090909090908,
                "end_time": 21.19772727272727,
                "pitch": 36,
                "velocity": 64,
                "duration": 0.1886363636363626,
                "tempo": 120.0
            },
            {
                "start_time": 21.21590909090909,
                "end_time": 21.40681818181818,
                "pitch": 39,
                "velocity": 64,
                "duration": 0.19090909090909136,
                "tempo": 120.0
            },
            {
                "start_time": 21.422727272727272,
                "end_time": 21.613636363636363,
                "pitch": 39,
                "velocity": 64,
                "duration": 0.19090909090909136,
                "tempo": 120.0
            },
            {
                "start_time": 21.629545454545454,
                "end_time": 21.829545454545453,
                "pitch": 40,
                "velocity": 64,
                "duration": 0.1999999999999993,
                "tempo": 120.0
            },
            {
                "start_time": 21.847727272727273,
                "end_time": 22.047727272727272,
                "pitch": 41,
                "velocity": 64,
                "duration": 0.1999999999999993,
                "tempo": 120.0
            },
            {
                "start_time": 22.063636363636363,
                "end_time": 22.46590909090909,
                "pitch": 29,
                "velocity": 64,
                "duration": 0.40227272727272734,
                "tempo": 120.0
            },
            {
                "start_time": 22.48181818181818,
                "end_time": 22.68409090909091,
                "pitch": 41,
                "velocity": 64,
                "duration": 0.20227272727272805,
                "tempo": 120.0
            },
            {
                "start_time": 22.7,
                "end_time": 22.902272727272727,
                "pitch": 36,
                "velocity": 64,
                "duration": 0.20227272727272805,
                "tempo": 120.0
            },
            {
                "start_time": 22.918181818181818,
                "end_time": 23.118181818181817,
                "pitch": 39,
                "velocity": 64,
                "duration": 0.1999999999999993,
                "tempo": 120.0
            },
            {
                "start_time": 23.136363636363637,
                "end_time": 23.320454545454545,
                "pitch": 39,
                "velocity": 64,
                "duration": 0.18409090909090864,
                "tempo": 120.0
            },
            {
                "start_time": 23.336363636363636,
                "end_time": 23.527272727272727,
                "pitch": 40,
                "velocity": 64,
                "duration": 0.19090909090909136,
                "tempo": 120.0
            },
            {
                "start_time": 23.543181818181818,
                "end_time": 23.73409090909091,
                "pitch": 41,
                "velocity": 64,
                "duration": 0.19090909090909136,
                "tempo": 120.0
            },
            {
                "start_time": 23.75,
                "end_time": 24.177272727272726,
                "pitch": 29,
                "velocity": 64,
                "duration": 0.4272727272727259,
                "tempo": 120.0
            },
            {
                "start_time": 24.195454545454545,
                "end_time": 24.379545454545454,
                "pitch": 41,
                "velocity": 64,
                "duration": 0.18409090909090864,
                "tempo": 120.0
            },
            {
                "start_time": 24.395454545454545,
                "end_time": 24.595454545454544,
                "pitch": 36,
                "velocity": 64,
                "duration": 0.1999999999999993,
                "tempo": 120.0
            },
            {
                "start_time": 24.613636363636363,
                "end_time": 24.80909090909091,
                "pitch": 39,
                "velocity": 64,
                "duration": 0.19545454545454533,
                "tempo": 120.0
            },
            {
                "start_time": 24.827272727272724,
                "end_time": 25.02272727272727,
                "pitch": 39,
                "velocity": 64,
                "duration": 0.19545454545454533,
                "tempo": 120.0
            },
            {
                "start_time": 25.038636363636364,
                "end_time": 25.24090909090909,
                "pitch": 40,
                "velocity": 64,
                "duration": 0.2022727272727245,
                "tempo": 120.0
            },
            {
                "start_time": 25.25681818181818,
                "end_time": 25.44090909090909,
                "pitch": 41,
                "velocity": 64,
                "duration": 0.1840909090909122,
                "tempo": 120.0
            },
            {
                "start_time": 25.456818181818182,
                "end_time": 25.868181818181817,
                "pitch": 29,
                "velocity": 64,
                "duration": 0.41136363636363527,
                "tempo": 120.0
            },
            {
                "start_time": 25.884090909090908,
                "end_time": 26.084090909090907,
                "pitch": 41,
                "velocity": 64,
                "duration": 0.1999999999999993,
                "tempo": 120.0
            },
            {
                "start_time": 26.099999999999998,
                "end_time": 26.302272727272726,
                "pitch": 36,
                "velocity": 64,
                "duration": 0.20227272727272805,
                "tempo": 120.0
            },
            {
                "start_time": 26.318181818181817,
                "end_time": 26.502272727272725,
                "pitch": 39,
                "velocity": 64,
                "duration": 0.18409090909090864,
                "tempo": 120.0
            },
            {
                "start_time": 26.518181818181816,
                "end_time": 26.720454545454544,
                "pitch": 39,
                "velocity": 64,
                "duration": 0.20227272727272805,
                "tempo": 120.0
            },
            {
                "start_time": 26.736363636363635,
                "end_time": 26.93409090909091,
                "pitch": 40,
                "velocity": 64,
                "duration": 0.19772727272727408,
                "tempo": 120.0
            },
            {
                "start_time": 26.95,
                "end_time": 27.145454545454545,
                "pitch": 41,
                "velocity": 64,
                "duration": 0.19545454545454533,
                "tempo": 120.0
            },
            {
                "start_time": 27.163636363636364,
                "end_time": 27.563636363636363,
                "pitch": 34,
                "velocity": 64,
                "duration": 0.3999999999999986,
                "tempo": 120.0
            },
            {
                "start_time": 27.581818181818182,
                "end_time": 27.777272727272727,
                "pitch": 46,
                "velocity": 64,
                "duration": 0.19545454545454533,
                "tempo": 120.0
            },
            {
                "start_time": 27.793181818181818,
                "end_time": 27.99090909090909,
                "pitch": 41,
                "velocity": 64,
                "duration": 0.19772727272727053,
                "tempo": 120.0
            },
            {
                "start_time": 28.00681818181818,
                "end_time": 28.206818181818182,
                "pitch": 44,
                "velocity": 64,
                "duration": 0.20000000000000284,
                "tempo": 120.0
            },
            {
                "start_time": 28.224999999999998,
                "end_time": 28.424999999999997,
                "pitch": 44,
                "velocity": 64,
                "duration": 0.1999999999999993,
                "tempo": 120.0
            },
            {
                "start_time": 28.443181818181817,
                "end_time": 28.627272727272725,
                "pitch": 45,
                "velocity": 64,
                "duration": 0.18409090909090864,
                "tempo": 120.0
            },
            {
                "start_time": 28.643181818181816,
                "end_time": 28.843181818181815,
                "pitch": 46,
                "velocity": 64,
                "duration": 0.1999999999999993,
                "tempo": 120.0
            },
            {
                "start_time": 28.861363636363635,
                "end_time": 29.270454545454545,
                "pitch": 34,
                "velocity": 64,
                "duration": 0.40909090909091006,
                "tempo": 120.0
            },
            {
                "start_time": 29.286363636363635,
                "end_time": 29.49090909090909,
                "pitch": 46,
                "velocity": 64,
                "duration": 0.20454545454545325,
                "tempo": 120.0
            },
            {
                "start_time": 29.509090909090908,
                "end_time": 29.695454545454545,
                "pitch": 41,
                "velocity": 64,
                "duration": 0.1863636363636374,
                "tempo": 120.0
            },
            {
                "start_time": 29.71363636363636,
                "end_time": 29.904545454545453,
                "pitch": 44,
                "velocity": 64,
                "duration": 0.19090909090909136,
                "tempo": 120.0
            },
            {
                "start_time": 29.920454545454543,
                "end_time": 30.111363636363635,
                "pitch": 44,
                "velocity": 64,
                "duration": 0.19090909090909136,
                "tempo": 120.0
            },
            {
                "start_time": 30.127272727272725,
                "end_time": 30.331818181818182,
                "pitch": 45,
                "velocity": 64,
                "duration": 0.2045454545454568,
                "tempo": 120.0
            },
            {
                "start_time": 30.349999999999998,
                "end_time": 30.554545454545455,
                "pitch": 46,
                "velocity": 64,
                "duration": 0.2045454545454568,
                "tempo": 120.0
            },
            {
                "start_time": 30.57272727272727,
                "end_time": 30.972727272727273,
                "pitch": 29,
                "velocity": 64,
                "duration": 0.40000000000000213,
                "tempo": 120.0
            },
            {
                "start_time": 30.99090909090909,
                "end_time": 31.186363636363634,
                "pitch": 41,
                "velocity": 64,
                "duration": 0.19545454545454533,
                "tempo": 120.0
            },
            {
                "start_time": 31.204545454545453,
                "end_time": 31.4,
                "pitch": 36,
                "velocity": 64,
                "duration": 0.19545454545454533,
                "tempo": 120.0
            },
            {
                "start_time": 31.41590909090909,
                "end_time": 31.618181818181817,
                "pitch": 39,
                "velocity": 64,
                "duration": 0.20227272727272805,
                "tempo": 120.0
            },
            {
                "start_time": 31.634090909090908,
                "end_time": 31.818181818181817,
                "pitch": 39,
                "velocity": 64,
                "duration": 0.18409090909090864,
                "tempo": 120.0
            },
            {
                "start_time": 31.834090909090907,
                "end_time": 32.03181818181818,
                "pitch": 40,
                "velocity": 64,
                "duration": 0.19772727272727408,
                "tempo": 120.0
            },
            {
                "start_time": 32.04772727272727,
                "end_time": 32.24545454545454,
                "pitch": 41,
                "velocity": 64,
                "duration": 0.19772727272727053,
                "tempo": 120.0
            },
            {
                "start_time": 32.26136363636363,
                "end_time": 32.679545454545455,
                "pitch": 29,
                "velocity": 64,
                "duration": 0.41818181818182154,
                "tempo": 120.0
            },
            {
                "start_time": 32.695454545454545,
                "end_time": 32.87954545454545,
                "pitch": 41,
                "velocity": 64,
                "duration": 0.18409090909090509,
                "tempo": 120.0
            },
            {
                "start_time": 32.89545454545454,
                "end_time": 33.09772727272727,
                "pitch": 36,
                "velocity": 64,
                "duration": 0.20227272727272805,
                "tempo": 120.0
            },
            {
                "start_time": 33.11363636363636,
                "end_time": 33.31136363636364,
                "pitch": 39,
                "velocity": 64,
                "duration": 0.19772727272727764,
                "tempo": 120.0
            },
            {
                "start_time": 33.32727272727273,
                "end_time": 33.52272727272727,
                "pitch": 39,
                "velocity": 64,
                "duration": 0.19545454545454533,
                "tempo": 120.0
            },
            {
                "start_time": 33.54090909090909,
                "end_time": 33.74090909090909,
                "pitch": 40,
                "velocity": 64,
                "duration": 0.20000000000000284,
                "tempo": 120.0
            },
            {
                "start_time": 33.75681818181818,
                "end_time": 33.94090909090909,
                "pitch": 41,
                "velocity": 64,
                "duration": 0.18409090909090509,
                "tempo": 120.0
            },
            {
                "start_time": 33.95909090909091,
                "end_time": 34.154545454545456,
                "pitch": 32,
                "velocity": 64,
                "duration": 0.19545454545454533,
                "tempo": 120.0
            },
            {
                "start_time": 34.17045454545455,
                "end_time": 34.36818181818182,
                "pitch": 32,
                "velocity": 64,
                "duration": 0.19772727272727053,
                "tempo": 120.0
            },
            {
                "start_time": 34.38409090909091,
                "end_time": 34.58409090909091,
                "pitch": 44,
                "velocity": 64,
                "duration": 0.20000000000000284,
                "tempo": 120.0
            },
            {
                "start_time": 34.60227272727273,
                "end_time": 34.80227272727272,
                "pitch": 32,
                "velocity": 64,
                "duration": 0.19999999999999574,
                "tempo": 120.0
            },
            {
                "start_time": 34.820454545454545,
                "end_time": 35.00681818181818,
                "pitch": 32,
                "velocity": 64,
                "duration": 0.1863636363636374,
                "tempo": 120.0
            },
            {
                "start_time": 35.025,
                "end_time": 35.22954545454545,
                "pitch": 32,
                "velocity": 64,
                "duration": 0.20454545454545325,
                "tempo": 120.0
            },
            {
                "start_time": 35.24772727272727,
                "end_time": 35.43863636363636,
                "pitch": 44,
                "velocity": 64,
                "duration": 0.19090909090909491,
                "tempo": 120.0
            },
            {
                "start_time": 35.45454545454545,
                "end_time": 35.64545454545454,
                "pitch": 32,
                "velocity": 64,
                "duration": 0.1909090909090878,
                "tempo": 120.0
            },
            {
                "start_time": 35.66136363636363,
                "end_time": 35.861363636363635,
                "pitch": 31,
                "velocity": 64,
                "duration": 0.20000000000000284,
                "tempo": 120.0
            },
            {
                "start_time": 35.87954545454545,
                "end_time": 36.06363636363636,
                "pitch": 31,
                "velocity": 64,
                "duration": 0.1840909090909122,
                "tempo": 120.0
            },
            {
                "start_time": 36.07954545454545,
                "end_time": 36.277272727272724,
                "pitch": 43,
                "velocity": 64,
                "duration": 0.19772727272727053,
                "tempo": 120.0
            },
            {
                "start_time": 36.293181818181814,
                "end_time": 36.48863636363636,
                "pitch": 31,
                "velocity": 64,
                "duration": 0.19545454545454533,
                "tempo": 120.0
            },
            {
                "start_time": 36.50454545454545,
                "end_time": 36.70681818181818,
                "pitch": 30,
                "velocity": 64,
                "duration": 0.20227272727272805,
                "tempo": 120.0
            },
            {
                "start_time": 36.72272727272727,
                "end_time": 36.92272727272727,
                "pitch": 30,
                "velocity": 64,
                "duration": 0.20000000000000284,
                "tempo": 120.0
            },
            {
                "start_time": 36.94090909090909,
                "end_time": 37.127272727272725,
                "pitch": 42,
                "velocity": 64,
                "duration": 0.1863636363636374,
                "tempo": 120.0
            },
            {
                "start_time": 37.14545454545454,
                "end_time": 37.35,
                "pitch": 30,
                "velocity": 64,
                "duration": 0.20454545454546036,
                "tempo": 120.0
            }
        ],
        "Oboe": [
            {
                "start_time": 1.6613636363636364,
                "end_time": 1.7454545454545454,
                "pitch": 53,
                "velocity": 51,
                "duration": 0.084090909090909,
                "tempo": 120.0
            },
            {
                "start_time": 1.7613636363636362,
                "end_time": 1.8613636363636363,
                "pitch": 56,
                "velocity": 51,
                "duration": 0.10000000000000009,
                "tempo": 120.0
            },
            {
                "start_time": 1.8772727272727272,
                "end_time": 1.9613636363636362,
                "pitch": 58,
                "velocity": 51,
                "duration": 0.084090909090909,
                "tempo": 120.0
            },
            {
                "start_time": 1.9795454545454545,
                "end_time": 2.061363636363636,
                "pitch": 56,
                "velocity": 51,
                "duration": 0.08181818181818157,
                "tempo": 120.0
            },
            {
                "start_time": 2.0795454545454546,
                "end_time": 2.275,
                "pitch": 53,
                "velocity": 51,
                "duration": 0.19545454545454533,
                "tempo": 120.0
            },
            {
                "start_time": 2.293181818181818,
                "end_time": 2.3909090909090907,
                "pitch": 53,
                "velocity": 51,
                "duration": 0.09772727272727266,
                "tempo": 120.0
            },
            {
                "start_time": 2.4068181818181817,
                "end_time": 2.4886363636363633,
                "pitch": 56,
                "velocity": 51,
                "duration": 0.08181818181818157,
                "tempo": 120.0
            },
            {
                "start_time": 2.5045454545454544,
                "end_time": 2.5886363636363634,
                "pitch": 58,
                "velocity": 51,
                "duration": 0.084090909090909,
                "tempo": 120.0
            },
            {
                "start_time": 2.6045454545454545,
                "end_time": 2.8068181818181817,
                "pitch": 56,
                "velocity": 51,
                "duration": 0.20227272727272716,
                "tempo": 120.0
            },
            {
                "start_time": 2.8227272727272728,
                "end_time": 2.9227272727272724,
                "pitch": 53,
                "velocity": 51,
                "duration": 0.09999999999999964,
                "tempo": 120.0
            },
            {
                "start_time": 2.940909090909091,
                "end_time": 3.3499999999999996,
                "pitch": 51,
                "velocity": 51,
                "duration": 0.4090909090909087,
                "tempo": 120.0
            },
            {
                "start_time": 3.368181818181818,
                "end_time": 3.4636363636363634,
                "pitch": 53,
                "velocity": 51,
                "duration": 0.09545454545454524,
                "tempo": 120.0
            },
            {
                "start_time": 3.4795454545454545,
                "end_time": 3.559090909090909,
                "pitch": 56,
                "velocity": 51,
                "duration": 0.07954545454545459,
                "tempo": 120.0
            },
            {
                "start_time": 3.5749999999999997,
                "end_time": 3.6545454545454543,
                "pitch": 58,
                "velocity": 51,
                "duration": 0.07954545454545459,
                "tempo": 120.0
            },
            {
                "start_time": 3.6704545454545454,
                "end_time": 3.7659090909090907,
                "pitch": 56,
                "velocity": 51,
                "duration": 0.09545454545454524,
                "tempo": 120.0
            },
            {
                "start_time": 3.7818181818181817,
                "end_time": 3.9863636363636363,
                "pitch": 53,
                "velocity": 51,
                "duration": 0.20454545454545459,
                "tempo": 120.0
            },
            {
                "start_time": 4.004545454545454,
                "end_time": 4.088636363636364,
                "pitch": 53,
                "velocity": 51,
                "duration": 0.08409090909090988,
                "tempo": 120.0
            },
            {
                "start_time": 4.1068181818181815,
                "end_time": 4.1909090909090905,
                "pitch": 56,
                "velocity": 51,
                "duration": 0.084090909090909,
                "tempo": 120.0
            },
            {
                "start_time": 4.209090909090909,
                "end_time": 4.306818181818182,
                "pitch": 58,
                "velocity": 51,
                "duration": 0.09772727272727266,
                "tempo": 120.0
            },
            {
                "start_time": 4.325,
                "end_time": 4.5204545454545455,
                "pitch": 56,
                "velocity": 51,
                "duration": 0.19545454545454533,
                "tempo": 120.0
            },
            {
                "start_time": 4.536363636363636,
                "end_time": 4.618181818181818,
                "pitch": 53,
                "velocity": 51,
                "duration": 0.08181818181818201,
                "tempo": 120.0
            },
            {
                "start_time": 4.636363636363636,
                "end_time": 5.052272727272727,
                "pitch": 51,
                "velocity": 51,
                "duration": 0.415909090909091,
                "tempo": 120.0
            },
            {
                "start_time": 5.070454545454545,
                "end_time": 5.154545454545454,
                "pitch": 53,
                "velocity": 51,
                "duration": 0.084090909090909,
                "tempo": 120.0
            },
            {
                "start_time": 5.170454545454545,
                "end_time": 5.254545454545454,
                "pitch": 56,
                "velocity": 51,
                "duration": 0.084090909090909,
                "tempo": 120.0
            },
            {
                "start_time": 5.2704545454545455,
                "end_time": 5.370454545454545,
                "pitch": 58,
                "velocity": 51,
                "duration": 0.09999999999999964,
                "tempo": 120.0
            },
            {
                "start_time": 5.388636363636364,
                "end_time": 5.472727272727273,
                "pitch": 56,
                "velocity": 51,
                "duration": 0.084090909090909,
                "tempo": 120.0
            },
            {
                "start_time": 5.488636363636363,
                "end_time": 5.6863636363636365,
                "pitch": 53,
                "velocity": 51,
                "duration": 0.1977272727272732,
                "tempo": 120.0
            },
            {
                "start_time": 5.702272727272727,
                "end_time": 5.784090909090909,
                "pitch": 53,
                "velocity": 51,
                "duration": 0.08181818181818201,
                "tempo": 120.0
            },
            {
                "start_time": 5.8,
                "end_time": 5.8977272727272725,
                "pitch": 56,
                "velocity": 51,
                "duration": 0.09772727272727266,
                "tempo": 120.0
            },
            {
                "start_time": 5.913636363636363,
                "end_time": 5.997727272727272,
                "pitch": 58,
                "velocity": 51,
                "duration": 0.084090909090909,
                "tempo": 120.0
            },
            {
                "start_time": 6.015909090909091,
                "end_time": 6.215909090909091,
                "pitch": 56,
                "velocity": 51,
                "duration": 0.20000000000000018,
                "tempo": 120.0
            },
            {
                "start_time": 6.2318181818181815,
                "end_time": 6.3159090909090905,
                "pitch": 53,
                "velocity": 51,
                "duration": 0.084090909090909,
                "tempo": 120.0
            },
            {
                "start_time": 6.331818181818181,
                "end_time": 6.743181818181818,
                "pitch": 51,
                "velocity": 51,
                "duration": 0.41136363636363704,
                "tempo": 120.0
            },
            {
                "start_time": 6.759090909090909,
                "end_time": 6.843181818181818,
                "pitch": 53,
                "velocity": 51,
                "duration": 0.084090909090909,
                "tempo": 120.0
            },
            {
                "start_time": 6.8590909090909085,
                "end_time": 6.959090909090909,
                "pitch": 56,
                "velocity": 51,
                "duration": 0.10000000000000053,
                "tempo": 120.0
            },
            {
                "start_time": 6.977272727272727,
                "end_time": 7.059090909090909,
                "pitch": 58,
                "velocity": 51,
                "duration": 0.08181818181818201,
                "tempo": 120.0
            },
            {
                "start_time": 7.077272727272727,
                "end_time": 7.177272727272727,
                "pitch": 56,
                "velocity": 51,
                "duration": 0.09999999999999964,
                "tempo": 120.0
            },
            {
                "start_time": 7.1931818181818175,
                "end_time": 7.377272727272727,
                "pitch": 53,
                "velocity": 51,
                "duration": 0.18409090909090953,
                "tempo": 120.0
            },
            {
                "start_time": 7.3954545454545455,
                "end_time": 7.495454545454545,
                "pitch": 53,
                "velocity": 51,
                "duration": 0.09999999999999964,
                "tempo": 120.0
            },
            {
                "start_time": 7.511363636363636,
                "end_time": 7.595454545454545,
                "pitch": 56,
                "velocity": 51,
                "duration": 0.084090909090909,
                "tempo": 120.0
            },
            {
                "start_time": 7.611363636363636,
                "end_time": 7.711363636363636,
                "pitch": 58,
                "velocity": 51,
                "duration": 0.09999999999999964,
                "tempo": 120.0
            },
            {
                "start_time": 7.727272727272727,
                "end_time": 7.906818181818181,
                "pitch": 56,
                "velocity": 51,
                "duration": 0.17954545454545467,
                "tempo": 120.0
            },
            {
                "start_time": 7.922727272727272,
                "end_time": 8.022727272727272,
                "pitch": 53,
                "velocity": 51,
                "duration": 0.09999999999999964,
                "tempo": 120.0
            },
            {
                "start_time": 8.038636363636364,
                "end_time": 8.438636363636363,
                "pitch": 51,
                "velocity": 51,
                "duration": 0.3999999999999986,
                "tempo": 120.0
            },
            {
                "start_time": 8.456818181818182,
                "end_time": 8.554545454545455,
                "pitch": 53,
                "velocity": 51,
                "duration": 0.09772727272727266,
                "tempo": 120.0
            },
            {
                "start_time": 8.570454545454545,
                "end_time": 8.652272727272727,
                "pitch": 56,
                "velocity": 51,
                "duration": 0.08181818181818201,
                "tempo": 120.0
            },
            {
                "start_time": 8.670454545454545,
                "end_time": 8.768181818181818,
                "pitch": 58,
                "velocity": 51,
                "duration": 0.09772727272727266,
                "tempo": 120.0
            },
            {
                "start_time": 8.784090909090908,
                "end_time": 8.86590909090909,
                "pitch": 56,
                "velocity": 51,
                "duration": 0.08181818181818201,
                "tempo": 120.0
            },
            {
                "start_time": 8.881818181818181,
                "end_time": 9.084090909090909,
                "pitch": 53,
                "velocity": 51,
                "duration": 0.20227272727272805,
                "tempo": 120.0
            },
            {
                "start_time": 9.1,
                "end_time": 9.184090909090909,
                "pitch": 53,
                "velocity": 51,
                "duration": 0.084090909090909,
                "tempo": 120.0
            },
            {
                "start_time": 9.2,
                "end_time": 9.299999999999999,
                "pitch": 56,
                "velocity": 51,
                "duration": 0.09999999999999964,
                "tempo": 120.0
            },
            {
                "start_time": 9.318181818181818,
                "end_time": 9.4,
                "pitch": 58,
                "velocity": 51,
                "duration": 0.08181818181818201,
                "tempo": 120.0
            },
            {
                "start_time": 9.418181818181818,
                "end_time": 9.618181818181817,
                "pitch": 56,
                "velocity": 51,
                "duration": 0.1999999999999993,
                "tempo": 120.0
            },
            {
                "start_time": 9.636363636363637,
                "end_time": 9.718181818181817,
                "pitch": 53,
                "velocity": 51,
                "duration": 0.08181818181818024,
                "tempo": 120.0
            },
            {
                "start_time": 9.736363636363636,
                "end_time": 10.145454545454545,
                "pitch": 51,
                "velocity": 51,
                "duration": 0.4090909090909083,
                "tempo": 120.0
            },
            {
                "start_time": 10.161363636363635,
                "end_time": 10.245454545454544,
                "pitch": 53,
                "velocity": 51,
                "duration": 0.084090909090909,
                "tempo": 120.0
            },
            {
                "start_time": 10.261363636363637,
                "end_time": 10.361363636363636,
                "pitch": 56,
                "velocity": 51,
                "duration": 0.09999999999999964,
                "tempo": 120.0
            },
            {
                "start_time": 10.379545454545454,
                "end_time": 10.463636363636363,
                "pitch": 58,
                "velocity": 51,
                "duration": 0.084090909090909,
                "tempo": 120.0
            },
            {
                "start_time": 10.479545454545454,
                "end_time": 10.563636363636363,
                "pitch": 56,
                "velocity": 51,
                "duration": 0.084090909090909,
                "tempo": 120.0
            },
            {
                "start_time": 10.579545454545453,
                "end_time": 10.777272727272727,
                "pitch": 53,
                "velocity": 51,
                "duration": 0.19772727272727408,
                "tempo": 120.0
            },
            {
                "start_time": 10.793181818181818,
                "end_time": 10.89090909090909,
                "pitch": 53,
                "velocity": 51,
                "duration": 0.09772727272727266,
                "tempo": 120.0
            },
            {
                "start_time": 10.906818181818181,
                "end_time": 10.988636363636363,
                "pitch": 56,
                "velocity": 51,
                "duration": 0.08181818181818201,
                "tempo": 120.0
            },
            {
                "start_time": 11.006818181818181,
                "end_time": 11.088636363636363,
                "pitch": 58,
                "velocity": 51,
                "duration": 0.08181818181818201,
                "tempo": 120.0
            },
            {
                "start_time": 11.10681818181818,
                "end_time": 11.306818181818182,
                "pitch": 56,
                "velocity": 51,
                "duration": 0.20000000000000107,
                "tempo": 120.0
            },
            {
                "start_time": 11.325,
                "end_time": 11.424999999999999,
                "pitch": 53,
                "velocity": 51,
                "duration": 0.09999999999999964,
                "tempo": 120.0
            },
            {
                "start_time": 11.44090909090909,
                "end_time": 11.852272727272727,
                "pitch": 51,
                "velocity": 51,
                "duration": 0.41136363636363704,
                "tempo": 120.0
            },
            {
                "start_time": 11.868181818181817,
                "end_time": 11.968181818181817,
                "pitch": 53,
                "velocity": 51,
                "duration": 0.09999999999999964,
                "tempo": 120.0
            },
            {
                "start_time": 11.98409090909091,
                "end_time": 12.06590909090909,
                "pitch": 56,
                "velocity": 51,
                "duration": 0.08181818181818024,
                "tempo": 120.0
            },
            {
                "start_time": 12.081818181818182,
                "end_time": 12.163636363636362,
                "pitch": 58,
                "velocity": 51,
                "duration": 0.08181818181818024,
                "tempo": 120.0
            },
            {
                "start_time": 12.179545454545455,
                "end_time": 12.279545454545454,
                "pitch": 56,
                "velocity": 51,
                "duration": 0.09999999999999964,
                "tempo": 120.0
            },
            {
                "start_time": 12.295454545454545,
                "end_time": 12.495454545454544,
                "pitch": 53,
                "velocity": 51,
                "duration": 0.1999999999999993,
                "tempo": 120.0
            },
            {
                "start_time": 12.511363636363635,
                "end_time": 12.595454545454546,
                "pitch": 53,
                "velocity": 51,
                "duration": 0.08409090909091077,
                "tempo": 120.0
            },
            {
                "start_time": 12.613636363636363,
                "end_time": 12.695454545454545,
                "pitch": 56,
                "velocity": 51,
                "duration": 0.08181818181818201,
                "tempo": 120.0
            },
            {
                "start_time": 12.713636363636363,
                "end_time": 12.809090909090909,
                "pitch": 58,
                "velocity": 51,
                "duration": 0.09545454545454568,
                "tempo": 120.0
            },
            {
                "start_time": 12.825,
                "end_time": 13.01590909090909,
                "pitch": 56,
                "velocity": 51,
                "duration": 0.19090909090909136,
                "tempo": 120.0
            },
            {
                "start_time": 13.031818181818181,
                "end_time": 13.111363636363636,
                "pitch": 53,
                "velocity": 51,
                "duration": 0.07954545454545503,
                "tempo": 120.0
            },
            {
                "start_time": 13.127272727272727,
                "end_time": 13.554545454545455,
                "pitch": 51,
                "velocity": 51,
                "duration": 0.4272727272727277,
                "tempo": 120.0
            },
            {
                "start_time": 13.570454545454545,
                "end_time": 13.654545454545454,
                "pitch": 53,
                "velocity": 51,
                "duration": 0.084090909090909,
                "tempo": 120.0
            },
            {
                "start_time": 13.672727272727272,
                "end_time": 13.754545454545454,
                "pitch": 56,
                "velocity": 51,
                "duration": 0.08181818181818201,
                "tempo": 120.0
            },
            {
                "start_time": 13.772727272727272,
                "end_time": 13.872727272727271,
                "pitch": 58,
                "velocity": 51,
                "duration": 0.09999999999999964,
                "tempo": 120.0
            },
            {
                "start_time": 13.888636363636364,
                "end_time": 13.972727272727273,
                "pitch": 56,
                "velocity": 51,
                "duration": 0.084090909090909,
                "tempo": 120.0
            },
            {
                "start_time": 13.99090909090909,
                "end_time": 14.186363636363636,
                "pitch": 53,
                "velocity": 51,
                "duration": 0.19545454545454533,
                "tempo": 120.0
            },
            {
                "start_time": 14.202272727272726,
                "end_time": 14.284090909090908,
                "pitch": 53,
                "velocity": 51,
                "duration": 0.08181818181818201,
                "tempo": 120.0
            },
            {
                "start_time": 14.302272727272726,
                "end_time": 14.399999999999999,
                "pitch": 56,
                "velocity": 51,
                "duration": 0.09772727272727266,
                "tempo": 120.0
            },
            {
                "start_time": 14.415909090909091,
                "end_time": 14.5,
                "pitch": 58,
                "velocity": 51,
                "duration": 0.084090909090909,
                "tempo": 120.0
            },
            {
                "start_time": 14.518181818181818,
                "end_time": 14.722727272727273,
                "pitch": 56,
                "velocity": 51,
                "duration": 0.20454545454545503,
                "tempo": 120.0
            },
            {
                "start_time": 14.74090909090909,
                "end_time": 14.825,
                "pitch": 53,
                "velocity": 51,
                "duration": 0.084090909090909,
                "tempo": 120.0
            },
            {
                "start_time": 14.843181818181817,
                "end_time": 15.24090909090909,
                "pitch": 51,
                "velocity": 51,
                "duration": 0.3977272727272734,
                "tempo": 120.0
            },
            {
                "start_time": 15.256818181818181,
                "end_time": 15.34090909090909,
                "pitch": 53,
                "velocity": 51,
                "duration": 0.084090909090909,
                "tempo": 120.0
            },
            {
                "start_time": 15.35681818181818,
                "end_time": 15.459090909090909,
                "pitch": 56,
                "velocity": 51,
                "duration": 0.1022727272727284,
                "tempo": 120.0
            },
            {
                "start_time": 15.475,
                "end_time": 15.559090909090909,
                "pitch": 58,
                "velocity": 51,
                "duration": 0.084090909090909,
                "tempo": 120.0
            },
            {
                "start_time": 15.575,
                "end_time": 15.674999999999999,
                "pitch": 56,
                "velocity": 51,
                "duration": 0.09999999999999964,
                "tempo": 120.0
            },
            {
                "start_time": 15.693181818181817,
                "end_time": 15.879545454545454,
                "pitch": 53,
                "velocity": 51,
                "duration": 0.1863636363636374,
                "tempo": 120.0
            },
            {
                "start_time": 15.897727272727272,
                "end_time": 16.0,
                "pitch": 53,
                "velocity": 51,
                "duration": 0.1022727272727284,
                "tempo": 120.0
            },
            {
                "start_time": 16.01590909090909,
                "end_time": 16.102272727272727,
                "pitch": 56,
                "velocity": 51,
                "duration": 0.08636363636363598,
                "tempo": 120.0
            },
            {
                "start_time": 16.120454545454546,
                "end_time": 16.21818181818182,
                "pitch": 58,
                "velocity": 51,
                "duration": 0.09772727272727266,
                "tempo": 120.0
            },
            {
                "start_time": 16.23409090909091,
                "end_time": 16.41590909090909,
                "pitch": 56,
                "velocity": 51,
                "duration": 0.18181818181817988,
                "tempo": 120.0
            },
            {
                "start_time": 16.43181818181818,
                "end_time": 16.529545454545453,
                "pitch": 53,
                "velocity": 51,
                "duration": 0.09772727272727266,
                "tempo": 120.0
            },
            {
                "start_time": 16.545454545454543,
                "end_time": 16.94772727272727,
                "pitch": 51,
                "velocity": 51,
                "duration": 0.40227272727272734,
                "tempo": 120.0
            },
            {
                "start_time": 16.96363636363636,
                "end_time": 17.05909090909091,
                "pitch": 53,
                "velocity": 51,
                "duration": 0.09545454545454746,
                "tempo": 120.0
            },
            {
                "start_time": 17.077272727272728,
                "end_time": 17.15681818181818,
                "pitch": 56,
                "velocity": 51,
                "duration": 0.07954545454545325,
                "tempo": 120.0
            },
            {
                "start_time": 17.172727272727272,
                "end_time": 17.268181818181816,
                "pitch": 58,
                "velocity": 51,
                "duration": 0.0954545454545439,
                "tempo": 120.0
            },
            {
                "start_time": 17.284090909090907,
                "end_time": 17.363636363636363,
                "pitch": 56,
                "velocity": 51,
                "duration": 0.0795454545454568,
                "tempo": 120.0
            },
            {
                "start_time": 17.379545454545454,
                "end_time": 17.584090909090907,
                "pitch": 53,
                "velocity": 51,
                "duration": 0.20454545454545325,
                "tempo": 120.0
            },
            {
                "start_time": 17.599999999999998,
                "end_time": 17.686363636363634,
                "pitch": 53,
                "velocity": 51,
                "duration": 0.08636363636363598,
                "tempo": 120.0
            },
            {
                "start_time": 17.702272727272728,
                "end_time": 17.804545454545455,
                "pitch": 56,
                "velocity": 51,
                "duration": 0.10227272727272663,
                "tempo": 120.0
            },
            {
                "start_time": 17.82272727272727,
                "end_time": 17.90681818181818,
                "pitch": 58,
                "velocity": 51,
                "duration": 0.08409090909091077,
                "tempo": 120.0
            },
            {
                "start_time": 17.922727272727272,
                "end_time": 18.125,
                "pitch": 56,
                "velocity": 51,
                "duration": 0.20227272727272805,
                "tempo": 120.0
            },
            {
                "start_time": 18.14090909090909,
                "end_time": 18.224999999999998,
                "pitch": 53,
                "velocity": 51,
                "duration": 0.08409090909090722,
                "tempo": 120.0
            },
            {
                "start_time": 18.24090909090909,
                "end_time": 18.638636363636362,
                "pitch": 51,
                "velocity": 51,
                "duration": 0.3977272727272734,
                "tempo": 120.0
            },
            {
                "start_time": 18.654545454545453,
                "end_time": 18.74090909090909,
                "pitch": 53,
                "velocity": 51,
                "duration": 0.08636363636363598,
                "tempo": 120.0
            },
            {
                "start_time": 18.75681818181818,
                "end_time": 18.85909090909091,
                "pitch": 56,
                "velocity": 51,
                "duration": 0.10227272727273018,
                "tempo": 120.0
            },
            {
                "start_time": 18.877272727272725,
                "end_time": 18.96363636363636,
                "pitch": 58,
                "velocity": 51,
                "duration": 0.08636363636363598,
                "tempo": 120.0
            },
            {
                "start_time": 18.979545454545455,
                "end_time": 19.06590909090909,
                "pitch": 56,
                "velocity": 51,
                "duration": 0.08636363636363598,
                "tempo": 120.0
            },
            {
                "start_time": 19.081818181818182,
                "end_time": 19.279545454545453,
                "pitch": 53,
                "velocity": 51,
                "duration": 0.19772727272727053,
                "tempo": 120.0
            },
            {
                "start_time": 19.295454545454543,
                "end_time": 19.393181818181816,
                "pitch": 53,
                "velocity": 51,
                "duration": 0.09772727272727266,
                "tempo": 120.0
            },
            {
                "start_time": 19.411363636363635,
                "end_time": 19.493181818181817,
                "pitch": 56,
                "velocity": 51,
                "duration": 0.08181818181818201,
                "tempo": 120.0
            },
            {
                "start_time": 19.509090909090908,
                "end_time": 19.59318181818182,
                "pitch": 58,
                "velocity": 51,
                "duration": 0.08409090909091077,
                "tempo": 120.0
            },
            {
                "start_time": 19.60909090909091,
                "end_time": 19.80909090909091,
                "pitch": 56,
                "velocity": 51,
                "duration": 0.1999999999999993,
                "tempo": 120.0
            },
            {
                "start_time": 19.827272727272728,
                "end_time": 19.927272727272726,
                "pitch": 53,
                "velocity": 51,
                "duration": 0.09999999999999787,
                "tempo": 120.0
            },
            {
                "start_time": 19.943181818181817,
                "end_time": 20.345454545454544,
                "pitch": 51,
                "velocity": 51,
                "duration": 0.40227272727272734,
                "tempo": 120.0
            },
            {
                "start_time": 20.361363636363635,
                "end_time": 20.461363636363636,
                "pitch": 53,
                "velocity": 51,
                "duration": 0.10000000000000142,
                "tempo": 120.0
            },
            {
                "start_time": 20.477272727272727,
                "end_time": 20.55909090909091,
                "pitch": 56,
                "velocity": 51,
                "duration": 0.08181818181818201,
                "tempo": 120.0
            },
            {
                "start_time": 20.575,
                "end_time": 20.65681818181818,
                "pitch": 58,
                "velocity": 51,
                "duration": 0.08181818181818201,
                "tempo": 120.0
            },
            {
                "start_time": 20.672727272727272,
                "end_time": 20.772727272727273,
                "pitch": 56,
                "velocity": 51,
                "duration": 0.10000000000000142,
                "tempo": 120.0
            },
            {
                "start_time": 20.788636363636364,
                "end_time": 20.993181818181817,
                "pitch": 53,
                "velocity": 51,
                "duration": 0.20454545454545325,
                "tempo": 120.0
            },
            {
                "start_time": 21.009090909090908,
                "end_time": 21.095454545454544,
                "pitch": 53,
                "velocity": 51,
                "duration": 0.08636363636363598,
                "tempo": 120.0
            },
            {
                "start_time": 21.111363636363635,
                "end_time": 21.19772727272727,
                "pitch": 56,
                "velocity": 51,
                "duration": 0.08636363636363598,
                "tempo": 120.0
            },
            {
                "start_time": 21.21590909090909,
                "end_time": 21.311363636363634,
                "pitch": 58,
                "velocity": 51,
                "duration": 0.0954545454545439,
                "tempo": 120.0
            },
            {
                "start_time": 21.327272727272724,
                "end_time": 21.518181818181816,
                "pitch": 56,
                "velocity": 51,
                "duration": 0.19090909090909136,
                "tempo": 120.0
            },
            {
                "start_time": 21.534090909090907,
                "end_time": 21.613636363636363,
                "pitch": 53,
                "velocity": 51,
                "duration": 0.0795454545454568,
                "tempo": 120.0
            },
            {
                "start_time": 21.629545454545454,
                "end_time": 22.047727272727272,
                "pitch": 51,
                "velocity": 51,
                "duration": 0.418181818181818,
                "tempo": 120.0
            },
            {
                "start_time": 22.063636363636363,
                "end_time": 22.147727272727273,
                "pitch": 53,
                "velocity": 51,
                "duration": 0.08409090909091077,
                "tempo": 120.0
            },
            {
                "start_time": 22.16590909090909,
                "end_time": 22.24772727272727,
                "pitch": 56,
                "velocity": 51,
                "duration": 0.08181818181818201,
                "tempo": 120.0
            },
            {
                "start_time": 22.26590909090909,
                "end_time": 22.36590909090909,
                "pitch": 58,
                "velocity": 51,
                "duration": 0.09999999999999787,
                "tempo": 120.0
            },
            {
                "start_time": 22.38181818181818,
                "end_time": 22.46590909090909,
                "pitch": 56,
                "velocity": 51,
                "duration": 0.08409090909091077,
                "tempo": 120.0
            },
            {
                "start_time": 22.48181818181818,
                "end_time": 22.68409090909091,
                "pitch": 53,
                "velocity": 51,
                "duration": 0.20227272727272805,
                "tempo": 120.0
            },
            {
                "start_time": 22.7,
                "end_time": 22.784090909090907,
                "pitch": 53,
                "velocity": 51,
                "duration": 0.08409090909090722,
                "tempo": 120.0
            },
            {
                "start_time": 22.799999999999997,
                "end_time": 22.902272727272727,
                "pitch": 56,
                "velocity": 51,
                "duration": 0.10227272727273018,
                "tempo": 120.0
            },
            {
                "start_time": 22.918181818181818,
                "end_time": 23.002272727272725,
                "pitch": 58,
                "velocity": 51,
                "duration": 0.08409090909090722,
                "tempo": 120.0
            },
            {
                "start_time": 23.018181818181816,
                "end_time": 23.21818181818182,
                "pitch": 56,
                "velocity": 51,
                "duration": 0.20000000000000284,
                "tempo": 120.0
            },
            {
                "start_time": 23.236363636363635,
                "end_time": 23.320454545454545,
                "pitch": 53,
                "velocity": 51,
                "duration": 0.08409090909091077,
                "tempo": 120.0
            },
            {
                "start_time": 23.336363636363636,
                "end_time": 23.73409090909091,
                "pitch": 51,
                "velocity": 51,
                "duration": 0.3977272727272734,
                "tempo": 120.0
            },
            {
                "start_time": 23.75,
                "end_time": 23.836363636363636,
                "pitch": 53,
                "velocity": 51,
                "duration": 0.08636363636363598,
                "tempo": 120.0
            },
            {
                "start_time": 23.852272727272727,
                "end_time": 23.954545454545453,
                "pitch": 56,
                "velocity": 51,
                "duration": 0.10227272727272663,
                "tempo": 120.0
            },
            {
                "start_time": 23.972727272727273,
                "end_time": 24.05681818181818,
                "pitch": 58,
                "velocity": 51,
                "duration": 0.08409090909090722,
                "tempo": 120.0
            },
            {
                "start_time": 24.075,
                "end_time": 24.177272727272726,
                "pitch": 56,
                "velocity": 51,
                "duration": 0.10227272727272663,
                "tempo": 120.0
            },
            {
                "start_time": 24.195454545454545,
                "end_time": 24.379545454545454,
                "pitch": 53,
                "velocity": 51,
                "duration": 0.18409090909090864,
                "tempo": 120.0
            },
            {
                "start_time": 24.395454545454545,
                "end_time": 24.495454545454546,
                "pitch": 53,
                "velocity": 51,
                "duration": 0.10000000000000142,
                "tempo": 120.0
            },
            {
                "start_time": 24.513636363636362,
                "end_time": 24.595454545454544,
                "pitch": 56,
                "velocity": 51,
                "duration": 0.08181818181818201,
                "tempo": 120.0
            },
            {
                "start_time": 24.613636363636363,
                "end_time": 24.711363636363636,
                "pitch": 58,
                "velocity": 51,
                "duration": 0.09772727272727266,
                "tempo": 120.0
            },
            {
                "start_time": 24.727272727272727,
                "end_time": 24.909090909090907,
                "pitch": 56,
                "velocity": 51,
                "duration": 0.18181818181817988,
                "tempo": 120.0
            },
            {
                "start_time": 24.924999999999997,
                "end_time": 25.02272727272727,
                "pitch": 53,
                "velocity": 51,
                "duration": 0.09772727272727266,
                "tempo": 120.0
            },
            {
                "start_time": 25.038636363636364,
                "end_time": 25.44090909090909,
                "pitch": 51,
                "velocity": 51,
                "duration": 0.40227272727272734,
                "tempo": 120.0
            },
            {
                "start_time": 25.456818181818182,
                "end_time": 25.55681818181818,
                "pitch": 53,
                "velocity": 51,
                "duration": 0.09999999999999787,
                "tempo": 120.0
            },
            {
                "start_time": 25.57272727272727,
                "end_time": 25.654545454545453,
                "pitch": 56,
                "velocity": 51,
                "duration": 0.08181818181818201,
                "tempo": 120.0
            },
            {
                "start_time": 25.670454545454543,
                "end_time": 25.768181818181816,
                "pitch": 58,
                "velocity": 51,
                "duration": 0.09772727272727266,
                "tempo": 120.0
            },
            {
                "start_time": 25.786363636363635,
                "end_time": 25.868181818181817,
                "pitch": 56,
                "velocity": 51,
                "duration": 0.08181818181818201,
                "tempo": 120.0
            },
            {
                "start_time": 25.884090909090908,
                "end_time": 26.084090909090907,
                "pitch": 53,
                "velocity": 51,
                "duration": 0.1999999999999993,
                "tempo": 120.0
            },
            {
                "start_time": 26.099999999999998,
                "end_time": 26.18409090909091,
                "pitch": 53,
                "velocity": 51,
                "duration": 0.08409090909091077,
                "tempo": 120.0
            },
            {
                "start_time": 26.202272727272724,
                "end_time": 26.302272727272726,
                "pitch": 56,
                "velocity": 51,
                "duration": 0.10000000000000142,
                "tempo": 120.0
            },
            {
                "start_time": 26.318181818181817,
                "end_time": 26.402272727272727,
                "pitch": 58,
                "velocity": 51,
                "duration": 0.08409090909091077,
                "tempo": 120.0
            },
            {
                "start_time": 26.418181818181818,
                "end_time": 26.620454545454542,
                "pitch": 56,
                "velocity": 51,
                "duration": 0.2022727272727245,
                "tempo": 120.0
            },
            {
                "start_time": 26.636363636363637,
                "end_time": 26.720454545454544,
                "pitch": 53,
                "velocity": 51,
                "duration": 0.08409090909090722,
                "tempo": 120.0
            },
            {
                "start_time": 26.736363636363635,
                "end_time": 27.145454545454545,
                "pitch": 51,
                "velocity": 51,
                "duration": 0.40909090909091006,
                "tempo": 120.0
            },
            {
                "start_time": 27.163636363636364,
                "end_time": 27.245454545454542,
                "pitch": 53,
                "velocity": 51,
                "duration": 0.08181818181817846,
                "tempo": 120.0
            },
            {
                "start_time": 27.263636363636362,
                "end_time": 27.363636363636363,
                "pitch": 56,
                "velocity": 51,
                "duration": 0.10000000000000142,
                "tempo": 120.0
            },
            {
                "start_time": 27.379545454545454,
                "end_time": 27.46363636363636,
                "pitch": 58,
                "velocity": 51,
                "duration": 0.08409090909090722,
                "tempo": 120.0
            },
            {
                "start_time": 27.48181818181818,
                "end_time": 27.563636363636363,
                "pitch": 56,
                "velocity": 51,
                "duration": 0.08181818181818201,
                "tempo": 120.0
            },
            {
                "start_time": 27.581818181818182,
                "end_time": 27.777272727272727,
                "pitch": 53,
                "velocity": 51,
                "duration": 0.19545454545454533,
                "tempo": 120.0
            },
            {
                "start_time": 27.793181818181818,
                "end_time": 27.893181818181816,
                "pitch": 53,
                "velocity": 51,
                "duration": 0.09999999999999787,
                "tempo": 120.0
            },
            {
                "start_time": 27.909090909090907,
                "end_time": 27.99090909090909,
                "pitch": 56,
                "velocity": 51,
                "duration": 0.08181818181818201,
                "tempo": 120.0
            },
            {
                "start_time": 28.00681818181818,
                "end_time": 28.09090909090909,
                "pitch": 58,
                "velocity": 51,
                "duration": 0.08409090909091077,
                "tempo": 120.0
            },
            {
                "start_time": 28.10681818181818,
                "end_time": 28.30909090909091,
                "pitch": 56,
                "velocity": 51,
                "duration": 0.20227272727272805,
                "tempo": 120.0
            },
            {
                "start_time": 28.325,
                "end_time": 28.424999999999997,
                "pitch": 53,
                "velocity": 51,
                "duration": 0.09999999999999787,
                "tempo": 120.0
            },
            {
                "start_time": 28.443181818181817,
                "end_time": 28.843181818181815,
                "pitch": 51,
                "velocity": 51,
                "duration": 0.3999999999999986,
                "tempo": 120.0
            },
            {
                "start_time": 28.861363636363635,
                "end_time": 28.959090909090907,
                "pitch": 53,
                "velocity": 51,
                "duration": 0.09772727272727266,
                "tempo": 120.0
            },
            {
                "start_time": 28.974999999999998,
                "end_time": 29.05681818181818,
                "pitch": 56,
                "velocity": 51,
                "duration": 0.08181818181818201,
                "tempo": 120.0
            },
            {
                "start_time": 29.07272727272727,
                "end_time": 29.154545454545453,
                "pitch": 58,
                "velocity": 51,
                "duration": 0.08181818181818201,
                "tempo": 120.0
            },
            {
                "start_time": 29.172727272727272,
                "end_time": 29.270454545454545,
                "pitch": 56,
                "velocity": 51,
                "duration": 0.09772727272727266,
                "tempo": 120.0
            },
            {
                "start_time": 29.286363636363635,
                "end_time": 29.49090909090909,
                "pitch": 53,
                "velocity": 51,
                "duration": 0.20454545454545325,
                "tempo": 120.0
            },
            {
                "start_time": 29.509090909090908,
                "end_time": 29.593181818181815,
                "pitch": 53,
                "velocity": 51,
                "duration": 0.08409090909090722,
                "tempo": 120.0
            },
            {
                "start_time": 29.611363636363635,
                "end_time": 29.695454545454545,
                "pitch": 56,
                "velocity": 51,
                "duration": 0.08409090909091077,
                "tempo": 120.0
            },
            {
                "start_time": 29.71363636363636,
                "end_time": 29.80909090909091,
                "pitch": 58,
                "velocity": 51,
                "duration": 0.09545454545454746,
                "tempo": 120.0
            },
            {
                "start_time": 29.825,
                "end_time": 30.01590909090909,
                "pitch": 56,
                "velocity": 51,
                "duration": 0.19090909090909136,
                "tempo": 120.0
            },
            {
                "start_time": 30.03181818181818,
                "end_time": 30.111363636363635,
                "pitch": 53,
                "velocity": 51,
                "duration": 0.07954545454545325,
                "tempo": 120.0
            },
            {
                "start_time": 30.127272727272725,
                "end_time": 30.554545454545455,
                "pitch": 51,
                "velocity": 51,
                "duration": 0.42727272727272947,
                "tempo": 120.0
            },
            {
                "start_time": 30.57272727272727,
                "end_time": 30.65681818181818,
                "pitch": 53,
                "velocity": 51,
                "duration": 0.08409090909091077,
                "tempo": 120.0
            },
            {
                "start_time": 30.672727272727272,
                "end_time": 30.75681818181818,
                "pitch": 56,
                "velocity": 51,
                "duration": 0.08409090909090722,
                "tempo": 120.0
            },
            {
                "start_time": 30.77272727272727,
                "end_time": 30.87272727272727,
                "pitch": 58,
                "velocity": 51,
                "duration": 0.10000000000000142,
                "tempo": 120.0
            },
            {
                "start_time": 30.89090909090909,
                "end_time": 30.972727272727273,
                "pitch": 56,
                "velocity": 51,
                "duration": 0.08181818181818201,
                "tempo": 120.0
            },
            {
                "start_time": 30.99090909090909,
                "end_time": 31.186363636363634,
                "pitch": 53,
                "velocity": 51,
                "duration": 0.19545454545454533,
                "tempo": 120.0
            },
            {
                "start_time": 31.204545454545453,
                "end_time": 31.286363636363635,
                "pitch": 53,
                "velocity": 51,
                "duration": 0.08181818181818201,
                "tempo": 120.0
            },
            {
                "start_time": 31.302272727272726,
                "end_time": 31.4,
                "pitch": 56,
                "velocity": 51,
                "duration": 0.09772727272727266,
                "tempo": 120.0
            },
            {
                "start_time": 31.41590909090909,
                "end_time": 31.5,
                "pitch": 58,
                "velocity": 51,
                "duration": 0.08409090909091077,
                "tempo": 120.0
            },
            {
                "start_time": 31.51590909090909,
                "end_time": 31.718181818181815,
                "pitch": 56,
                "velocity": 51,
                "duration": 0.2022727272727245,
                "tempo": 120.0
            },
            {
                "start_time": 31.734090909090906,
                "end_time": 31.818181818181817,
                "pitch": 53,
                "velocity": 51,
                "duration": 0.08409090909091077,
                "tempo": 120.0
            },
            {
                "start_time": 31.834090909090907,
                "end_time": 32.24545454545454,
                "pitch": 51,
                "velocity": 51,
                "duration": 0.41136363636363527,
                "tempo": 120.0
            },
            {
                "start_time": 32.26136363636363,
                "end_time": 32.34318181818182,
                "pitch": 53,
                "velocity": 51,
                "duration": 0.08181818181818556,
                "tempo": 120.0
            },
            {
                "start_time": 32.361363636363635,
                "end_time": 32.461363636363636,
                "pitch": 56,
                "velocity": 51,
                "duration": 0.10000000000000142,
                "tempo": 120.0
            },
            {
                "start_time": 32.47727272727273,
                "end_time": 32.56136363636364,
                "pitch": 58,
                "velocity": 51,
                "duration": 0.08409090909091077,
                "tempo": 120.0
            },
            {
                "start_time": 32.57954545454545,
                "end_time": 32.679545454545455,
                "pitch": 56,
                "velocity": 51,
                "duration": 0.10000000000000142,
                "tempo": 120.0
            },
            {
                "start_time": 32.695454545454545,
                "end_time": 32.87954545454545,
                "pitch": 53,
                "velocity": 51,
                "duration": 0.18409090909090509,
                "tempo": 120.0
            },
            {
                "start_time": 32.89545454545454,
                "end_time": 32.99772727272727,
                "pitch": 53,
                "velocity": 51,
                "duration": 0.10227272727272663,
                "tempo": 120.0
            },
            {
                "start_time": 33.013636363636365,
                "end_time": 33.09772727272727,
                "pitch": 56,
                "velocity": 51,
                "duration": 0.08409090909090366,
                "tempo": 120.0
            },
            {
                "start_time": 33.11363636363636,
                "end_time": 33.21363636363636,
                "pitch": 58,
                "velocity": 51,
                "duration": 0.10000000000000142,
                "tempo": 120.0
            },
            {
                "start_time": 33.22954545454545,
                "end_time": 33.40909090909091,
                "pitch": 56,
                "velocity": 51,
                "duration": 0.17954545454545467,
                "tempo": 120.0
            },
            {
                "start_time": 33.425,
                "end_time": 33.52272727272727,
                "pitch": 53,
                "velocity": 51,
                "duration": 0.09772727272727622,
                "tempo": 120.0
            },
            {
                "start_time": 33.54090909090909,
                "end_time": 33.94090909090909,
                "pitch": 51,
                "velocity": 51,
                "duration": 0.3999999999999986,
                "tempo": 120.0
            },
            {
                "start_time": 33.95909090909091,
                "end_time": 34.05681818181818,
                "pitch": 53,
                "velocity": 51,
                "duration": 0.09772727272726911,
                "tempo": 120.0
            },
            {
                "start_time": 34.07272727272727,
                "end_time": 34.154545454545456,
                "pitch": 56,
                "velocity": 51,
                "duration": 0.08181818181818556,
                "tempo": 120.0
            },
            {
                "start_time": 34.17045454545455,
                "end_time": 34.27045454545454,
                "pitch": 58,
                "velocity": 51,
                "duration": 0.09999999999999432,
                "tempo": 120.0
            },
            {
                "start_time": 34.28636363636363,
                "end_time": 34.36818181818182,
                "pitch": 56,
                "velocity": 51,
                "duration": 0.08181818181818556,
                "tempo": 120.0
            },
            {
                "start_time": 34.38409090909091,
                "end_time": 34.58409090909091,
                "pitch": 53,
                "velocity": 51,
                "duration": 0.20000000000000284,
                "tempo": 120.0
            },
            {
                "start_time": 34.60227272727273,
                "end_time": 34.68636363636364,
                "pitch": 53,
                "velocity": 51,
                "duration": 0.08409090909091077,
                "tempo": 120.0
            },
            {
                "start_time": 34.70227272727273,
                "end_time": 34.80227272727272,
                "pitch": 56,
                "velocity": 51,
                "duration": 0.09999999999999432,
                "tempo": 120.0
            },
            {
                "start_time": 34.820454545454545,
                "end_time": 34.904545454545456,
                "pitch": 58,
                "velocity": 51,
                "duration": 0.08409090909091077,
                "tempo": 120.0
            },
            {
                "start_time": 34.92272727272727,
                "end_time": 35.127272727272725,
                "pitch": 56,
                "velocity": 51,
                "duration": 0.20454545454545325,
                "tempo": 120.0
            },
            {
                "start_time": 35.143181818181816,
                "end_time": 35.22954545454545,
                "pitch": 53,
                "velocity": 51,
                "duration": 0.08636363636363598,
                "tempo": 120.0
            },
            {
                "start_time": 35.24772727272727,
                "end_time": 35.64545454545454,
                "pitch": 51,
                "velocity": 51,
                "duration": 0.3977272727272734,
                "tempo": 120.0
            },
            {
                "start_time": 35.66136363636363,
                "end_time": 35.74545454545454,
                "pitch": 53,
                "velocity": 51,
                "duration": 0.08409090909091077,
                "tempo": 120.0
            },
            {
                "start_time": 35.76136363636363,
                "end_time": 35.861363636363635,
                "pitch": 56,
                "velocity": 51,
                "duration": 0.10000000000000142,
                "tempo": 120.0
            },
            {
                "start_time": 35.87954545454545,
                "end_time": 35.961363636363636,
                "pitch": 58,
                "velocity": 51,
                "duration": 0.08181818181818556,
                "tempo": 120.0
            },
            {
                "start_time": 35.97954545454545,
                "end_time": 36.06363636363636,
                "pitch": 56,
                "velocity": 51,
                "duration": 0.08409090909091077,
                "tempo": 120.0
            },
            {
                "start_time": 36.07954545454545,
                "end_time": 36.277272727272724,
                "pitch": 53,
                "velocity": 51,
                "duration": 0.19772727272727053,
                "tempo": 120.0
            },
            {
                "start_time": 36.293181818181814,
                "end_time": 36.39090909090909,
                "pitch": 53,
                "velocity": 51,
                "duration": 0.09772727272727622,
                "tempo": 120.0
            },
            {
                "start_time": 36.40681818181818,
                "end_time": 36.48863636363636,
                "pitch": 56,
                "velocity": 51,
                "duration": 0.08181818181817846,
                "tempo": 120.0
            },
            {
                "start_time": 36.50454545454545,
                "end_time": 36.58863636363636,
                "pitch": 58,
                "velocity": 51,
                "duration": 0.08409090909091077,
                "tempo": 120.0
            },
            {
                "start_time": 36.60681818181818,
                "end_time": 36.80681818181818,
                "pitch": 56,
                "velocity": 51,
                "duration": 0.20000000000000284,
                "tempo": 120.0
            },
            {
                "start_time": 36.82272727272727,
                "end_time": 36.92272727272727,
                "pitch": 53,
                "velocity": 51,
                "duration": 0.10000000000000142,
                "tempo": 120.0
            },
            {
                "start_time": 36.94090909090909,
                "end_time": 37.35,
                "pitch": 51,
                "velocity": 51,
                "duration": 0.4090909090909136,
                "tempo": 120.0
            }
        ],
        "Clarinet": [
            {
                "start_time": 0.015909090909090907,
                "end_time": 0.031818181818181815,
                "pitch": 81,
                "velocity": 64,
                "duration": 0.015909090909090907,
                "tempo": 120.0
            },
            {
                "start_time": 3.4477272727272728,
                "end_time": 4.054545454545455,
                "pitch": 53,
                "velocity": 64,
                "duration": 0.6068181818181819,
                "tempo": 120.0
            },
            {
                "start_time": 4.072727272727272,
                "end_time": 4.470454545454546,
                "pitch": 53,
                "velocity": 64,
                "duration": 0.3977272727272734,
                "tempo": 120.0
            },
            {
                "start_time": 4.504545454545454,
                "end_time": 4.586363636363636,
                "pitch": 51,
                "velocity": 64,
                "duration": 0.08181818181818201,
                "tempo": 120.0
            },
            {
                "start_time": 4.602272727272727,
                "end_time": 4.6863636363636365,
                "pitch": 51,
                "velocity": 64,
                "duration": 0.08409090909090988,
                "tempo": 120.0
            },
            {
                "start_time": 4.702272727272727,
                "end_time": 4.902272727272727,
                "pitch": 53,
                "velocity": 64,
                "duration": 0.20000000000000018,
                "tempo": 120.0
            },
            {
                "start_time": 4.920454545454545,
                "end_time": 5.120454545454545,
                "pitch": 56,
                "velocity": 64,
                "duration": 0.20000000000000018,
                "tempo": 120.0
            },
            {
                "start_time": 5.136363636363636,
                "end_time": 5.75,
                "pitch": 53,
                "velocity": 64,
                "duration": 0.6136363636363642,
                "tempo": 120.0
            },
            {
                "start_time": 5.768181818181818,
                "end_time": 6.181818181818182,
                "pitch": 53,
                "velocity": 64,
                "duration": 0.413636363636364,
                "tempo": 120.0
            },
            {
                "start_time": 6.199999999999999,
                "end_time": 6.281818181818181,
                "pitch": 51,
                "velocity": 64,
                "duration": 0.08181818181818201,
                "tempo": 120.0
            },
            {
                "start_time": 6.3,
                "end_time": 6.3977272727272725,
                "pitch": 51,
                "velocity": 64,
                "duration": 0.09772727272727266,
                "tempo": 120.0
            },
            {
                "start_time": 6.415909090909091,
                "end_time": 6.595454545454545,
                "pitch": 53,
                "velocity": 64,
                "duration": 0.1795454545454538,
                "tempo": 120.0
            },
            {
                "start_time": 6.627272727272727,
                "end_time": 6.809090909090909,
                "pitch": 56,
                "velocity": 64,
                "duration": 0.18181818181818166,
                "tempo": 120.0
            },
            {
                "start_time": 6.824999999999999,
                "end_time": 7.461363636363636,
                "pitch": 53,
                "velocity": 64,
                "duration": 0.6363636363636367,
                "tempo": 120.0
            },
            {
                "start_time": 7.477272727272727,
                "end_time": 7.875,
                "pitch": 53,
                "velocity": 64,
                "duration": 0.3977272727272734,
                "tempo": 120.0
            },
            {
                "start_time": 7.890909090909091,
                "end_time": 7.988636363636363,
                "pitch": 51,
                "velocity": 64,
                "duration": 0.09772727272727266,
                "tempo": 120.0
            },
            {
                "start_time": 8.004545454545454,
                "end_time": 8.088636363636363,
                "pitch": 51,
                "velocity": 64,
                "duration": 0.084090909090909,
                "tempo": 120.0
            },
            {
                "start_time": 8.104545454545454,
                "end_time": 8.306818181818182,
                "pitch": 53,
                "velocity": 64,
                "duration": 0.20227272727272805,
                "tempo": 120.0
            },
            {
                "start_time": 8.322727272727272,
                "end_time": 8.522727272727272,
                "pitch": 56,
                "velocity": 64,
                "duration": 0.1999999999999993,
                "tempo": 120.0
            },
            {
                "start_time": 8.538636363636364,
                "end_time": 9.15,
                "pitch": 53,
                "velocity": 64,
                "duration": 0.6113636363636363,
                "tempo": 120.0
            },
            {
                "start_time": 9.165909090909091,
                "end_time": 9.584090909090909,
                "pitch": 53,
                "velocity": 64,
                "duration": 0.418181818181818,
                "tempo": 120.0
            },
            {
                "start_time": 9.602272727272727,
                "end_time": 9.686363636363636,
                "pitch": 51,
                "velocity": 64,
                "duration": 0.084090909090909,
                "tempo": 120.0
            },
            {
                "start_time": 9.702272727272726,
                "end_time": 9.784090909090908,
                "pitch": 51,
                "velocity": 64,
                "duration": 0.08181818181818201,
                "tempo": 120.0
            },
            {
                "start_time": 9.818181818181818,
                "end_time": 9.997727272727273,
                "pitch": 53,
                "velocity": 64,
                "duration": 0.17954545454545467,
                "tempo": 120.0
            },
            {
                "start_time": 10.013636363636364,
                "end_time": 10.211363636363636,
                "pitch": 56,
                "velocity": 64,
                "duration": 0.1977272727272723,
                "tempo": 120.0
            },
            {
                "start_time": 10.229545454545454,
                "end_time": 10.843181818181817,
                "pitch": 53,
                "velocity": 64,
                "duration": 0.6136363636363633,
                "tempo": 120.0
            },
            {
                "start_time": 10.875,
                "end_time": 11.272727272727272,
                "pitch": 53,
                "velocity": 64,
                "duration": 0.3977272727272716,
                "tempo": 120.0
            },
            {
                "start_time": 11.290909090909091,
                "end_time": 11.375,
                "pitch": 51,
                "velocity": 64,
                "duration": 0.084090909090909,
                "tempo": 120.0
            },
            {
                "start_time": 11.406818181818181,
                "end_time": 11.493181818181817,
                "pitch": 51,
                "velocity": 64,
                "duration": 0.08636363636363598,
                "tempo": 120.0
            },
            {
                "start_time": 11.509090909090908,
                "end_time": 11.713636363636363,
                "pitch": 53,
                "velocity": 64,
                "duration": 0.20454545454545503,
                "tempo": 120.0
            },
            {
                "start_time": 11.73181818181818,
                "end_time": 11.918181818181818,
                "pitch": 56,
                "velocity": 64,
                "duration": 0.1863636363636374,
                "tempo": 120.0
            },
            {
                "start_time": 11.95,
                "end_time": 12.561363636363636,
                "pitch": 53,
                "velocity": 64,
                "duration": 0.6113636363636363,
                "tempo": 120.0
            },
            {
                "start_time": 12.579545454545453,
                "end_time": 12.968181818181817,
                "pitch": 53,
                "velocity": 64,
                "duration": 0.38863636363636367,
                "tempo": 120.0
            },
            {
                "start_time": 13.0,
                "end_time": 13.079545454545453,
                "pitch": 51,
                "velocity": 64,
                "duration": 0.07954545454545325,
                "tempo": 120.0
            },
            {
                "start_time": 13.095454545454546,
                "end_time": 13.177272727272726,
                "pitch": 51,
                "velocity": 64,
                "duration": 0.08181818181818024,
                "tempo": 120.0
            },
            {
                "start_time": 13.195454545454545,
                "end_time": 13.399999999999999,
                "pitch": 53,
                "velocity": 64,
                "duration": 0.20454545454545325,
                "tempo": 120.0
            },
            {
                "start_time": 13.418181818181818,
                "end_time": 13.622727272727271,
                "pitch": 56,
                "velocity": 64,
                "duration": 0.20454545454545325,
                "tempo": 120.0
            },
            {
                "start_time": 13.638636363636364,
                "end_time": 14.252272727272727,
                "pitch": 53,
                "velocity": 64,
                "duration": 0.6136363636363633,
                "tempo": 120.0
            },
            {
                "start_time": 14.268181818181818,
                "end_time": 14.688636363636363,
                "pitch": 53,
                "velocity": 64,
                "duration": 0.42045454545454497,
                "tempo": 120.0
            },
            {
                "start_time": 14.70681818181818,
                "end_time": 14.790909090909091,
                "pitch": 51,
                "velocity": 64,
                "duration": 0.08409090909091077,
                "tempo": 120.0
            },
            {
                "start_time": 14.809090909090909,
                "end_time": 14.906818181818181,
                "pitch": 51,
                "velocity": 64,
                "duration": 0.09772727272727266,
                "tempo": 120.0
            },
            {
                "start_time": 14.922727272727272,
                "end_time": 15.097727272727273,
                "pitch": 53,
                "velocity": 64,
                "duration": 0.1750000000000007,
                "tempo": 120.0
            },
            {
                "start_time": 15.129545454545454,
                "end_time": 15.306818181818182,
                "pitch": 56,
                "velocity": 64,
                "duration": 0.1772727272727277,
                "tempo": 120.0
            },
            {
                "start_time": 15.325,
                "end_time": 15.96590909090909,
                "pitch": 53,
                "velocity": 64,
                "duration": 0.6409090909090907,
                "tempo": 120.0
            },
            {
                "start_time": 15.98181818181818,
                "end_time": 16.381818181818183,
                "pitch": 53,
                "velocity": 64,
                "duration": 0.40000000000000213,
                "tempo": 120.0
            },
            {
                "start_time": 16.397727272727273,
                "end_time": 16.49772727272727,
                "pitch": 51,
                "velocity": 64,
                "duration": 0.09999999999999787,
                "tempo": 120.0
            },
            {
                "start_time": 16.513636363636362,
                "end_time": 16.595454545454544,
                "pitch": 51,
                "velocity": 64,
                "duration": 0.08181818181818201,
                "tempo": 120.0
            },
            {
                "start_time": 16.613636363636363,
                "end_time": 16.813636363636363,
                "pitch": 53,
                "velocity": 64,
                "duration": 0.1999999999999993,
                "tempo": 120.0
            },
            {
                "start_time": 16.829545454545453,
                "end_time": 17.027272727272727,
                "pitch": 56,
                "velocity": 64,
                "duration": 0.19772727272727408,
                "tempo": 120.0
            },
            {
                "start_time": 17.043181818181818,
                "end_time": 18.706818181818182,
                "pitch": 53,
                "velocity": 64,
                "duration": 1.663636363636364,
                "tempo": 120.0
            },
            {
                "start_time": 18.722727272727273,
                "end_time": 19.55909090909091,
                "pitch": 59,
                "velocity": 64,
                "duration": 0.836363636363636,
                "tempo": 120.0
            },
            {
                "start_time": 19.575,
                "end_time": 20.411363636363635,
                "pitch": 58,
                "velocity": 64,
                "duration": 0.836363636363636,
                "tempo": 120.0
            },
            {
                "start_time": 20.443181818181817,
                "end_time": 20.83863636363636,
                "pitch": 53,
                "velocity": 64,
                "duration": 0.3954545454545446,
                "tempo": 120.0
            },
            {
                "start_time": 21.502272727272725,
                "end_time": 21.581818181818182,
                "pitch": 51,
                "velocity": 64,
                "duration": 0.0795454545454568,
                "tempo": 120.0
            },
            {
                "start_time": 21.597727272727273,
                "end_time": 21.679545454545455,
                "pitch": 51,
                "velocity": 64,
                "duration": 0.08181818181818201,
                "tempo": 120.0
            },
            {
                "start_time": 21.695454545454545,
                "end_time": 21.897727272727273,
                "pitch": 53,
                "velocity": 64,
                "duration": 0.20227272727272805,
                "tempo": 120.0
            },
            {
                "start_time": 21.913636363636364,
                "end_time": 22.11590909090909,
                "pitch": 56,
                "velocity": 64,
                "duration": 0.2022727272727245,
                "tempo": 120.0
            },
            {
                "start_time": 22.13181818181818,
                "end_time": 22.534090909090907,
                "pitch": 53,
                "velocity": 64,
                "duration": 0.40227272727272734,
                "tempo": 120.0
            },
            {
                "start_time": 23.202272727272724,
                "end_time": 23.286363636363635,
                "pitch": 51,
                "velocity": 64,
                "duration": 0.08409090909091077,
                "tempo": 120.0
            },
            {
                "start_time": 23.302272727272726,
                "end_time": 23.4,
                "pitch": 51,
                "velocity": 64,
                "duration": 0.09772727272727266,
                "tempo": 120.0
            },
            {
                "start_time": 23.41590909090909,
                "end_time": 23.59090909090909,
                "pitch": 53,
                "velocity": 64,
                "duration": 0.1750000000000007,
                "tempo": 120.0
            },
            {
                "start_time": 23.62272727272727,
                "end_time": 23.802272727272726,
                "pitch": 56,
                "velocity": 64,
                "duration": 0.17954545454545467,
                "tempo": 120.0
            },
            {
                "start_time": 23.818181818181817,
                "end_time": 24.245454545454546,
                "pitch": 53,
                "velocity": 64,
                "duration": 0.42727272727272947,
                "tempo": 120.0
            },
            {
                "start_time": 24.89090909090909,
                "end_time": 24.99090909090909,
                "pitch": 51,
                "velocity": 64,
                "duration": 0.09999999999999787,
                "tempo": 120.0
            },
            {
                "start_time": 25.00681818181818,
                "end_time": 25.08863636363636,
                "pitch": 51,
                "velocity": 64,
                "duration": 0.08181818181818201,
                "tempo": 120.0
            },
            {
                "start_time": 25.10681818181818,
                "end_time": 25.30681818181818,
                "pitch": 53,
                "velocity": 64,
                "duration": 0.1999999999999993,
                "tempo": 120.0
            },
            {
                "start_time": 25.32272727272727,
                "end_time": 25.52272727272727,
                "pitch": 56,
                "velocity": 64,
                "duration": 0.1999999999999993,
                "tempo": 120.0
            },
            {
                "start_time": 25.538636363636364,
                "end_time": 25.93409090909091,
                "pitch": 53,
                "velocity": 64,
                "duration": 0.3954545454545446,
                "tempo": 120.0
            },
            {
                "start_time": 26.602272727272727,
                "end_time": 26.686363636363634,
                "pitch": 51,
                "velocity": 64,
                "duration": 0.08409090909090722,
                "tempo": 120.0
            },
            {
                "start_time": 26.702272727272724,
                "end_time": 26.786363636363635,
                "pitch": 51,
                "velocity": 64,
                "duration": 0.08409090909091077,
                "tempo": 120.0
            },
            {
                "start_time": 26.818181818181817,
                "end_time": 27.0,
                "pitch": 53,
                "velocity": 64,
                "duration": 0.18181818181818343,
                "tempo": 120.0
            },
            {
                "start_time": 27.01590909090909,
                "end_time": 27.21363636363636,
                "pitch": 56,
                "velocity": 64,
                "duration": 0.19772727272727053,
                "tempo": 120.0
            },
            {
                "start_time": 27.229545454545452,
                "end_time": 27.64772727272727,
                "pitch": 53,
                "velocity": 64,
                "duration": 0.418181818181818,
                "tempo": 120.0
            },
            {
                "start_time": 28.29090909090909,
                "end_time": 28.375,
                "pitch": 51,
                "velocity": 64,
                "duration": 0.08409090909091077,
                "tempo": 120.0
            },
            {
                "start_time": 28.409090909090907,
                "end_time": 28.493181818181817,
                "pitch": 51,
                "velocity": 64,
                "duration": 0.08409090909091077,
                "tempo": 120.0
            },
            {
                "start_time": 28.509090909090908,
                "end_time": 28.709090909090907,
                "pitch": 53,
                "velocity": 64,
                "duration": 0.1999999999999993,
                "tempo": 120.0
            },
            {
                "start_time": 28.727272727272727,
                "end_time": 28.909090909090907,
                "pitch": 56,
                "velocity": 64,
                "duration": 0.18181818181817988,
                "tempo": 120.0
            },
            {
                "start_time": 28.943181818181817,
                "end_time": 29.336363636363636,
                "pitch": 53,
                "velocity": 64,
                "duration": 0.3931818181818194,
                "tempo": 120.0
            },
            {
                "start_time": 30.0,
                "end_time": 30.079545454545453,
                "pitch": 51,
                "velocity": 64,
                "duration": 0.07954545454545325,
                "tempo": 120.0
            },
            {
                "start_time": 30.095454545454544,
                "end_time": 30.179545454545455,
                "pitch": 51,
                "velocity": 64,
                "duration": 0.08409090909091077,
                "tempo": 120.0
            },
            {
                "start_time": 30.195454545454545,
                "end_time": 30.4,
                "pitch": 53,
                "velocity": 64,
                "duration": 0.20454545454545325,
                "tempo": 120.0
            },
            {
                "start_time": 30.418181818181818,
                "end_time": 30.62272727272727,
                "pitch": 56,
                "velocity": 64,
                "duration": 0.20454545454545325,
                "tempo": 120.0
            },
            {
                "start_time": 30.638636363636362,
                "end_time": 31.04090909090909,
                "pitch": 53,
                "velocity": 64,
                "duration": 0.40227272727272734,
                "tempo": 120.0
            },
            {
                "start_time": 31.7,
                "end_time": 31.784090909090907,
                "pitch": 51,
                "velocity": 64,
                "duration": 0.08409090909090722,
                "tempo": 120.0
            },
            {
                "start_time": 31.802272727272726,
                "end_time": 31.9,
                "pitch": 51,
                "velocity": 64,
                "duration": 0.09772727272727266,
                "tempo": 120.0
            },
            {
                "start_time": 31.91590909090909,
                "end_time": 32.09772727272727,
                "pitch": 53,
                "velocity": 64,
                "duration": 0.18181818181817988,
                "tempo": 120.0
            },
            {
                "start_time": 32.12954545454545,
                "end_time": 32.31136363636364,
                "pitch": 56,
                "velocity": 64,
                "duration": 0.18181818181818699,
                "tempo": 120.0
            },
            {
                "start_time": 32.32727272727273,
                "end_time": 32.74545454545454,
                "pitch": 53,
                "velocity": 64,
                "duration": 0.41818181818181444,
                "tempo": 120.0
            },
            {
                "start_time": 33.393181818181816,
                "end_time": 33.49090909090909,
                "pitch": 51,
                "velocity": 64,
                "duration": 0.09772727272727622,
                "tempo": 120.0
            },
            {
                "start_time": 33.50681818181818,
                "end_time": 33.590909090909086,
                "pitch": 51,
                "velocity": 64,
                "duration": 0.08409090909090366,
                "tempo": 120.0
            },
            {
                "start_time": 33.60681818181818,
                "end_time": 33.80681818181818,
                "pitch": 53,
                "velocity": 64,
                "duration": 0.20000000000000284,
                "tempo": 120.0
            },
            {
                "start_time": 33.824999999999996,
                "end_time": 34.025,
                "pitch": 56,
                "velocity": 64,
                "duration": 0.20000000000000284,
                "tempo": 120.0
            },
            {
                "start_time": 34.04090909090909,
                "end_time": 35.711363636363636,
                "pitch": 53,
                "velocity": 64,
                "duration": 1.6704545454545467,
                "tempo": 120.0
            },
            {
                "start_time": 35.72727272727273,
                "end_time": 36.554545454545455,
                "pitch": 59,
                "velocity": 64,
                "duration": 0.827272727272728,
                "tempo": 120.0
            },
            {
                "start_time": 36.57272727272727,
                "end_time": 37.36818181818182,
                "pitch": 58,
                "velocity": 64,
                "duration": 0.7954545454545467,
                "tempo": 120.0
            }
        ]
    }
}