{
    "track_id": "California Games (FM) - 04 - Half Pipe",
    "mood": "angry",
    "instruments": {
        "Acoustic Bass": [
            {
                "start_time": 0.0,
                "end_time": 0.17954545454545454,
                "pitch": 47,
                "velocity": 51,
                "duration": 0.17954545454545454,
                "tempo": 120.0
            },
            {
                "start_time": 0.19545454545454544,
                "end_time": 0.375,
                "pitch": 47,
                "velocity": 51,
                "duration": 0.17954545454545456,
                "tempo": 120.0
            },
            {
                "start_time": 0.3909090909090909,
                "end_time": 0.5909090909090908,
                "pitch": 47,
                "velocity": 51,
                "duration": 0.19999999999999996,
                "tempo": 120.0
            },
            {
                "start_time": 0.6068181818181818,
                "end_time": 0.7909090909090909,
                "pitch": 47,
                "velocity": 51,
                "duration": 0.18409090909090908,
                "tempo": 120.0
            },
            {
                "start_time": 0.8068181818181818,
                "end_time": 0.9954545454545454,
                "pitch": 47,
                "velocity": 51,
                "duration": 0.1886363636363636,
                "tempo": 120.0
            },
            {
                "start_time": 1.0136363636363637,
                "end_time": 1.2204545454545455,
                "pitch": 47,
                "velocity": 51,
                "duration": 0.2068181818181818,
                "tempo": 120.0
            },
            {
                "start_time": 1.2363636363636363,
                "end_time": 1.4249999999999998,
                "pitch": 47,
                "velocity": 51,
                "duration": 0.1886363636363635,
                "tempo": 120.0
            },
            {
                "start_time": 1.4431818181818181,
                "end_time": 1.65,
                "pitch": 47,
                "velocity": 51,
                "duration": 0.2068181818181818,
                "tempo": 120.0
            },
            {
                "start_time": 1.6659090909090908,
                "end_time": 1.8499999999999999,
                "pitch": 47,
                "velocity": 51,
                "duration": 0.18409090909090908,
                "tempo": 120.0
            },
            {
                "start_time": 1.8659090909090907,
                "end_time": 2.05,
                "pitch": 47,
                "velocity": 51,
                "duration": 0.18409090909090908,
                "tempo": 120.0
            },
            {
                "start_time": 2.068181818181818,
                "end_time": 2.2636363636363637,
                "pitch": 47,
                "velocity": 51,
                "duration": 0.19545454545454577,
                "tempo": 120.0
            },
            {
                "start_time": 2.2795454545454543,
                "end_time": 2.4613636363636364,
                "pitch": 47,
                "velocity": 51,
                "duration": 0.1818181818181821,
                "tempo": 120.0
            },
            {
                "start_time": 2.477272727272727,
                "end_time": 2.6659090909090906,
                "pitch": 47,
                "velocity": 51,
                "duration": 0.1886363636363635,
                "tempo": 120.0
            },
            {
                "start_time": 2.6999999999999997,
                "end_time": 2.8886363636363637,
                "pitch": 47,
                "velocity": 51,
                "duration": 0.18863636363636394,
                "tempo": 120.0
            },
            {
                "start_time": 2.9045454545454543,
                "end_time": 3.0886363636363634,
                "pitch": 45,
                "velocity": 51,
                "duration": 0.18409090909090908,
                "tempo": 120.0
            },
            {
                "start_time": 3.1068181818181815,
                "end_time": 3.3068181818181817,
                "pitch": 46,
                "velocity": 51,
                "duration": 0.20000000000000018,
                "tempo": 120.0
            },
            {
                "start_time": 3.3227272727272728,
                "end_time": 3.5113636363636362,
                "pitch": 47,
                "velocity": 51,
                "duration": 0.1886363636363635,
                "tempo": 120.0
            },
            {
                "start_time": 3.5295454545454543,
                "end_time": 3.718181818181818,
                "pitch": 47,
                "velocity": 51,
                "duration": 0.1886363636363635,
                "tempo": 120.0
            },
            {
                "start_time": 3.7363636363636363,
                "end_time": 3.9318181818181817,
                "pitch": 47,
                "velocity": 51,
                "duration": 0.19545454545454533,
                "tempo": 120.0
            },
            {
                "start_time": 3.9477272727272728,
                "end_time": 4.127272727272727,
                "pitch": 47,
                "velocity": 51,
                "duration": 0.17954545454545423,
                "tempo": 120.0
            },
            {
                "start_time": 4.143181818181818,
                "end_time": 4.347727272727273,
                "pitch": 47,
                "velocity": 51,
                "duration": 0.20454545454545503,
                "tempo": 120.0
            },
            {
                "start_time": 4.36590909090909,
                "end_time": 4.554545454545455,
                "pitch": 47,
                "velocity": 51,
                "duration": 0.18863636363636438,
                "tempo": 120.0
            },
            {
                "start_time": 4.570454545454545,
                "end_time": 4.759090909090909,
                "pitch": 47,
                "velocity": 51,
                "duration": 0.1886363636363635,
                "tempo": 120.0
            },
            {
                "start_time": 4.777272727272727,
                "end_time": 4.9840909090909085,
                "pitch": 47,
                "velocity": 51,
                "duration": 0.20681818181818112,
                "tempo": 120.0
            },
            {
                "start_time": 5.0,
                "end_time": 5.184090909090909,
                "pitch": 47,
                "velocity": 51,
                "duration": 0.18409090909090864,
                "tempo": 120.0
            },
            {
                "start_time": 5.202272727272727,
                "end_time": 5.402272727272727,
                "pitch": 47,
                "velocity": 51,
                "duration": 0.20000000000000018,
                "tempo": 120.0
            },
            {
                "start_time": 5.418181818181818,
                "end_time": 5.6068181818181815,
                "pitch": 47,
                "velocity": 51,
                "duration": 0.1886363636363635,
                "tempo": 120.0
            },
            {
                "start_time": 5.625,
                "end_time": 5.8136363636363635,
                "pitch": 47,
                "velocity": 51,
                "duration": 0.1886363636363635,
                "tempo": 120.0
            },
            {
                "start_time": 5.829545454545454,
                "end_time": 6.027272727272727,
                "pitch": 47,
                "velocity": 51,
                "duration": 0.1977272727272732,
                "tempo": 120.0
            },
            {
                "start_time": 6.043181818181818,
                "end_time": 6.225,
                "pitch": 44,
                "velocity": 51,
                "duration": 0.18181818181818166,
                "tempo": 120.0
            },
            {
                "start_time": 6.24090909090909,
                "end_time": 6.425,
                "pitch": 45,
                "velocity": 51,
                "duration": 0.18409090909090953,
                "tempo": 120.0
            },
            {
                "start_time": 6.4409090909090905,
                "end_time": 6.640909090909091,
                "pitch": 46,
                "velocity": 51,
                "duration": 0.20000000000000018,
                "tempo": 120.0
            },
            {
                "start_time": 6.656818181818181,
                "end_time": 6.845454545454545,
                "pitch": 47,
                "velocity": 51,
                "duration": 0.1886363636363635,
                "tempo": 120.0
            },
            {
                "start_time": 6.863636363636363,
                "end_time": 7.070454545454545,
                "pitch": 47,
                "velocity": 51,
                "duration": 0.206818181818182,
                "tempo": 120.0
            },
            {
                "start_time": 7.086363636363636,
                "end_time": 7.2749999999999995,
                "pitch": 47,
                "velocity": 51,
                "duration": 0.1886363636363635,
                "tempo": 120.0
            },
            {
                "start_time": 7.293181818181818,
                "end_time": 7.4818181818181815,
                "pitch": 47,
                "velocity": 51,
                "duration": 0.1886363636363635,
                "tempo": 120.0
            },
            {
                "start_time": 7.5,
                "end_time": 7.695454545454545,
                "pitch": 47,
                "velocity": 51,
                "duration": 0.19545454545454533,
                "tempo": 120.0
            },
            {
                "start_time": 7.711363636363636,
                "end_time": 7.890909090909091,
                "pitch": 47,
                "velocity": 51,
                "duration": 0.17954545454545467,
                "tempo": 120.0
            },
            {
                "start_time": 7.906818181818181,
                "end_time": 8.111363636363636,
                "pitch": 47,
                "velocity": 51,
                "duration": 0.20454545454545503,
                "tempo": 120.0
            },
            {
                "start_time": 8.129545454545454,
                "end_time": 8.318181818181818,
                "pitch": 47,
                "velocity": 51,
                "duration": 0.18863636363636438,
                "tempo": 120.0
            },
            {
                "start_time": 8.334090909090909,
                "end_time": 8.518181818181818,
                "pitch": 47,
                "velocity": 51,
                "duration": 0.18409090909090864,
                "tempo": 120.0
            },
            {
                "start_time": 8.536363636363635,
                "end_time": 8.736363636363636,
                "pitch": 47,
                "velocity": 51,
                "duration": 0.20000000000000107,
                "tempo": 120.0
            },
            {
                "start_time": 8.752272727272727,
                "end_time": 8.940909090909091,
                "pitch": 47,
                "velocity": 51,
                "duration": 0.18863636363636438,
                "tempo": 120.0
            },
            {
                "start_time": 8.959090909090909,
                "end_time": 9.147727272727272,
                "pitch": 47,
                "velocity": 51,
                "duration": 0.1886363636363626,
                "tempo": 120.0
            },
            {
                "start_time": 9.181818181818182,
                "end_time": 9.36590909090909,
                "pitch": 47,
                "velocity": 51,
                "duration": 0.18409090909090864,
                "tempo": 120.0
            },
            {
                "start_time": 9.381818181818181,
                "end_time": 9.56590909090909,
                "pitch": 47,
                "velocity": 51,
                "duration": 0.18409090909090864,
                "tempo": 120.0
            },
            {
                "start_time": 9.584090909090909,
                "end_time": 9.779545454545454,
                "pitch": 45,
                "velocity": 51,
                "duration": 0.19545454545454533,
                "tempo": 120.0
            },
            {
                "start_time": 9.795454545454545,
                "end_time": 9.977272727272727,
                "pitch": 46,
                "velocity": 51,
                "duration": 0.18181818181818166,
                "tempo": 120.0
            },
            {
                "start_time": 9.993181818181817,
                "end_time": 10.181818181818182,
                "pitch": 47,
                "velocity": 51,
                "duration": 0.18863636363636438,
                "tempo": 120.0
            },
            {
                "start_time": 10.197727272727272,
                "end_time": 10.404545454545454,
                "pitch": 47,
                "velocity": 51,
                "duration": 0.206818181818182,
                "tempo": 120.0
            },
            {
                "start_time": 10.420454545454545,
                "end_time": 10.611363636363636,
                "pitch": 47,
                "velocity": 51,
                "duration": 0.19090909090909136,
                "tempo": 120.0
            },
            {
                "start_time": 10.627272727272727,
                "end_time": 10.834090909090909,
                "pitch": 47,
                "velocity": 51,
                "duration": 0.206818181818182,
                "tempo": 120.0
            },
            {
                "start_time": 10.85,
                "end_time": 11.034090909090908,
                "pitch": 47,
                "velocity": 51,
                "duration": 0.18409090909090864,
                "tempo": 120.0
            },
            {
                "start_time": 11.052272727272726,
                "end_time": 11.236363636363636,
                "pitch": 47,
                "velocity": 51,
                "duration": 0.18409090909091042,
                "tempo": 120.0
            },
            {
                "start_time": 11.252272727272727,
                "end_time": 11.452272727272726,
                "pitch": 47,
                "velocity": 51,
                "duration": 0.1999999999999993,
                "tempo": 120.0
            },
            {
                "start_time": 11.468181818181817,
                "end_time": 11.652272727272727,
                "pitch": 47,
                "velocity": 51,
                "duration": 0.18409090909091042,
                "tempo": 120.0
            },
            {
                "start_time": 11.670454545454545,
                "end_time": 11.870454545454544,
                "pitch": 47,
                "velocity": 51,
                "duration": 0.1999999999999993,
                "tempo": 120.0
            },
            {
                "start_time": 11.886363636363635,
                "end_time": 12.070454545454545,
                "pitch": 47,
                "velocity": 51,
                "duration": 0.18409090909091042,
                "tempo": 120.0
            },
            {
                "start_time": 12.086363636363636,
                "end_time": 12.274999999999999,
                "pitch": 47,
                "velocity": 51,
                "duration": 0.1886363636363626,
                "tempo": 120.0
            },
            {
                "start_time": 12.293181818181818,
                "end_time": 12.5,
                "pitch": 47,
                "velocity": 51,
                "duration": 0.206818181818182,
                "tempo": 120.0
            },
            {
                "start_time": 12.51590909090909,
                "end_time": 12.7,
                "pitch": 47,
                "velocity": 51,
                "duration": 0.18409090909090864,
                "tempo": 120.0
            },
            {
                "start_time": 12.718181818181817,
                "end_time": 12.899999999999999,
                "pitch": 44,
                "velocity": 51,
                "duration": 0.18181818181818166,
                "tempo": 120.0
            },
            {
                "start_time": 12.918181818181818,
                "end_time": 13.113636363636363,
                "pitch": 45,
                "velocity": 51,
                "duration": 0.19545454545454533,
                "tempo": 120.0
            },
            {
                "start_time": 13.129545454545454,
                "end_time": 13.309090909090909,
                "pitch": 46,
                "velocity": 51,
                "duration": 0.17954545454545467,
                "tempo": 120.0
            },
            {
                "start_time": 13.325,
                "end_time": 14.995454545454544,
                "pitch": 47,
                "velocity": 51,
                "duration": 1.670454545454545,
                "tempo": 120.0
            },
            {
                "start_time": 15.011363636363635,
                "end_time": 16.661363636363635,
                "pitch": 50,
                "velocity": 51,
                "duration": 1.6500000000000004,
                "tempo": 120.0
            },
            {
                "start_time": 16.677272727272726,
                "end_time": 18.345454545454544,
                "pitch": 52,
                "velocity": 51,
                "duration": 1.668181818181818,
                "tempo": 120.0
            },
            {
                "start_time": 18.363636363636363,
                "end_time": 18.959090909090907,
                "pitch": 53,
                "velocity": 51,
                "duration": 0.5954545454545439,
                "tempo": 120.0
            },
            {
                "start_time": 18.977272727272727,
                "end_time": 19.009090909090908,
                "pitch": 54,
                "velocity": 51,
                "duration": 0.0318181818181813,
                "tempo": 120.0
            },
            {
                "start_time": 19.009090909090908,
                "end_time": 19.04090909090909,
                "pitch": 43,
                "velocity": 51,
                "duration": 0.0318181818181813,
                "tempo": 120.0
            },
            {
                "start_time": 19.04090909090909,
                "end_time": 19.10681818181818,
                "pitch": 53,
                "velocity": 51,
                "duration": 0.06590909090909136,
                "tempo": 120.0
            },
            {
                "start_time": 19.10681818181818,
                "end_time": 19.138636363636362,
                "pitch": 43,
                "velocity": 51,
                "duration": 0.0318181818181813,
                "tempo": 120.0
            },
            {
                "start_time": 19.138636363636362,
                "end_time": 19.204545454545453,
                "pitch": 53,
                "velocity": 51,
                "duration": 0.06590909090909136,
                "tempo": 120.0
            },
            {
                "start_time": 19.204545454545453,
                "end_time": 19.238636363636363,
                "pitch": 43,
                "velocity": 51,
                "duration": 0.03409090909091006,
                "tempo": 120.0
            },
            {
                "start_time": 19.238636363636363,
                "end_time": 19.304545454545455,
                "pitch": 53,
                "velocity": 51,
                "duration": 0.06590909090909136,
                "tempo": 120.0
            },
            {
                "start_time": 19.304545454545455,
                "end_time": 19.33863636363636,
                "pitch": 43,
                "velocity": 51,
                "duration": 0.03409090909090651,
                "tempo": 120.0
            },
            {
                "start_time": 19.33863636363636,
                "end_time": 19.404545454545453,
                "pitch": 53,
                "velocity": 51,
                "duration": 0.06590909090909136,
                "tempo": 120.0
            },
            {
                "start_time": 19.404545454545453,
                "end_time": 19.438636363636363,
                "pitch": 43,
                "velocity": 51,
                "duration": 0.03409090909091006,
                "tempo": 120.0
            },
            {
                "start_time": 19.438636363636363,
                "end_time": 19.504545454545454,
                "pitch": 53,
                "velocity": 51,
                "duration": 0.06590909090909136,
                "tempo": 120.0
            },
            {
                "start_time": 19.504545454545454,
                "end_time": 19.538636363636364,
                "pitch": 43,
                "velocity": 51,
                "duration": 0.03409090909091006,
                "tempo": 120.0
            },
            {
                "start_time": 19.538636363636364,
                "end_time": 19.60681818181818,
                "pitch": 53,
                "velocity": 51,
                "duration": 0.06818181818181657,
                "tempo": 120.0
            },
            {
                "start_time": 19.60681818181818,
                "end_time": 19.64090909090909,
                "pitch": 43,
                "velocity": 51,
                "duration": 0.03409090909091006,
                "tempo": 120.0
            },
            {
                "start_time": 19.64090909090909,
                "end_time": 19.709090909090907,
                "pitch": 53,
                "velocity": 51,
                "duration": 0.06818181818181657,
                "tempo": 120.0
            },
            {
                "start_time": 19.709090909090907,
                "end_time": 19.743181818181817,
                "pitch": 43,
                "velocity": 51,
                "duration": 0.03409090909091006,
                "tempo": 120.0
            },
            {
                "start_time": 19.743181818181817,
                "end_time": 19.811363636363634,
                "pitch": 53,
                "velocity": 51,
                "duration": 0.06818181818181657,
                "tempo": 120.0
            },
            {
                "start_time": 19.811363636363634,
                "end_time": 19.847727272727273,
                "pitch": 43,
                "velocity": 51,
                "duration": 0.03636363636363882,
                "tempo": 120.0
            },
            {
                "start_time": 19.847727272727273,
                "end_time": 19.91590909090909,
                "pitch": 53,
                "velocity": 51,
                "duration": 0.06818181818181657,
                "tempo": 120.0
            },
            {
                "start_time": 19.91590909090909,
                "end_time": 19.95,
                "pitch": 43,
                "velocity": 51,
                "duration": 0.03409090909091006,
                "tempo": 120.0
            },
            {
                "start_time": 19.95,
                "end_time": 20.002272727272725,
                "pitch": 53,
                "velocity": 51,
                "duration": 0.052272727272725916,
                "tempo": 120.0
            },
            {
                "start_time": 20.018181818181816,
                "end_time": 21.668181818181818,
                "pitch": 59,
                "velocity": 51,
                "duration": 1.6500000000000021,
                "tempo": 120.0
            },
            {
                "start_time": 21.68409090909091,
                "end_time": 23.336363636363636,
                "pitch": 50,
                "velocity": 51,
                "duration": 1.6522727272727273,
                "tempo": 120.0
            },
            {
                "start_time": 23.352272727272727,
                "end_time": 23.386363636363637,
                "pitch": 54,
                "velocity": 51,
                "duration": 0.03409090909091006,
                "tempo": 120.0
            },
            {
                "start_time": 23.386363636363637,
                "end_time": 23.422727272727272,
                "pitch": 43,
                "velocity": 51,
                "duration": 0.036363636363635266,
                "tempo": 120.0
            },
            {
                "start_time": 23.422727272727272,
                "end_time": 23.49090909090909,
                "pitch": 53,
                "velocity": 51,
                "duration": 0.06818181818181657,
                "tempo": 120.0
            },
            {
                "start_time": 23.49090909090909,
                "end_time": 23.525,
                "pitch": 43,
                "velocity": 51,
                "duration": 0.03409090909091006,
                "tempo": 120.0
            },
            {
                "start_time": 23.525,
                "end_time": 23.59318181818182,
                "pitch": 53,
                "velocity": 51,
                "duration": 0.06818181818182012,
                "tempo": 120.0
            },
            {
                "start_time": 23.59318181818182,
                "end_time": 23.627272727272725,
                "pitch": 43,
                "velocity": 51,
                "duration": 0.03409090909090651,
                "tempo": 120.0
            },
            {
                "start_time": 23.627272727272725,
                "end_time": 23.695454545454545,
                "pitch": 53,
                "velocity": 51,
                "duration": 0.06818181818182012,
                "tempo": 120.0
            },
            {
                "start_time": 23.695454545454545,
                "end_time": 23.73181818181818,
                "pitch": 43,
                "velocity": 51,
                "duration": 0.036363636363635266,
                "tempo": 120.0
            },
            {
                "start_time": 23.73181818181818,
                "end_time": 23.799999999999997,
                "pitch": 53,
                "velocity": 51,
                "duration": 0.06818181818181657,
                "tempo": 120.0
            },
            {
                "start_time": 23.799999999999997,
                "end_time": 23.831818181818182,
                "pitch": 43,
                "velocity": 51,
                "duration": 0.031818181818184854,
                "tempo": 120.0
            },
            {
                "start_time": 23.831818181818182,
                "end_time": 23.9,
                "pitch": 53,
                "velocity": 51,
                "duration": 0.06818181818181657,
                "tempo": 120.0
            },
            {
                "start_time": 23.9,
                "end_time": 23.93181818181818,
                "pitch": 43,
                "velocity": 51,
                "duration": 0.0318181818181813,
                "tempo": 120.0
            },
            {
                "start_time": 23.93181818181818,
                "end_time": 24.0,
                "pitch": 53,
                "velocity": 51,
                "duration": 0.06818181818182012,
                "tempo": 120.0
            },
            {
                "start_time": 24.0,
                "end_time": 24.03181818181818,
                "pitch": 43,
                "velocity": 51,
                "duration": 0.0318181818181813,
                "tempo": 120.0
            },
            {
                "start_time": 24.03181818181818,
                "end_time": 24.099999999999998,
                "pitch": 53,
                "velocity": 51,
                "duration": 0.06818181818181657,
                "tempo": 120.0
            },
            {
                "start_time": 24.099999999999998,
                "end_time": 24.134090909090908,
                "pitch": 43,
                "velocity": 51,
                "duration": 0.03409090909091006,
                "tempo": 120.0
            },
            {
                "start_time": 24.134090909090908,
                "end_time": 24.2,
                "pitch": 53,
                "velocity": 51,
                "duration": 0.06590909090909136,
                "tempo": 120.0
            },
            {
                "start_time": 24.2,
                "end_time": 24.23181818181818,
                "pitch": 43,
                "velocity": 51,
                "duration": 0.0318181818181813,
                "tempo": 120.0
            },
            {
                "start_time": 24.23181818181818,
                "end_time": 24.297727272727272,
                "pitch": 53,
                "velocity": 51,
                "duration": 0.06590909090909136,
                "tempo": 120.0
            },
            {
                "start_time": 24.297727272727272,
                "end_time": 24.329545454545453,
                "pitch": 43,
                "velocity": 51,
                "duration": 0.0318181818181813,
                "tempo": 120.0
            },
            {
                "start_time": 24.329545454545453,
                "end_time": 24.395454545454545,
                "pitch": 53,
                "velocity": 51,
                "duration": 0.06590909090909136,
                "tempo": 120.0
            },
            {
                "start_time": 24.395454545454545,
                "end_time": 24.427272727272726,
                "pitch": 43,
                "velocity": 51,
                "duration": 0.0318181818181813,
                "tempo": 120.0
            },
            {
                "start_time": 24.427272727272726,
                "end_time": 24.493181818181817,
                "pitch": 53,
                "velocity": 51,
                "duration": 0.06590909090909136,
                "tempo": 120.0
            },
            {
                "start_time": 24.493181818181817,
                "end_time": 24.525,
                "pitch": 43,
                "velocity": 51,
                "duration": 0.0318181818181813,
                "tempo": 120.0
            },
            {
                "start_time": 24.525,
                "end_time": 24.57272727272727,
                "pitch": 53,
                "velocity": 51,
                "duration": 0.04772727272727195,
                "tempo": 120.0
            },
            {
                "start_time": 24.58863636363636,
                "end_time": 25.002272727272725,
                "pitch": 57,
                "velocity": 51,
                "duration": 0.413636363636364,
                "tempo": 120.0
            },
            {
                "start_time": 25.018181818181816,
                "end_time": 26.045454545454543,
                "pitch": 59,
                "velocity": 51,
                "duration": 1.0272727272727273,
                "tempo": 120.0
            },
            {
                "start_time": 26.061363636363634,
                "end_time": 26.093181818181815,
                "pitch": 54,
                "velocity": 51,
                "duration": 0.0318181818181813,
                "tempo": 120.0
            },
            {
                "start_time": 26.093181818181815,
                "end_time": 26.125,
                "pitch": 43,
                "velocity": 51,
                "duration": 0.031818181818184854,
                "tempo": 120.0
            },
            {
                "start_time": 26.125,
                "end_time": 26.19090909090909,
                "pitch": 53,
                "velocity": 51,
                "duration": 0.06590909090909136,
                "tempo": 120.0
            },
            {
                "start_time": 26.19090909090909,
                "end_time": 26.222727272727273,
                "pitch": 43,
                "velocity": 51,
                "duration": 0.0318181818181813,
                "tempo": 120.0
            },
            {
                "start_time": 26.222727272727273,
                "end_time": 26.238636363636363,
                "pitch": 53,
                "velocity": 51,
                "duration": 0.01590909090909065,
                "tempo": 120.0
            },
            {
                "start_time": 26.25681818181818,
                "end_time": 26.461363636363636,
                "pitch": 57,
                "velocity": 51,
                "duration": 0.2045454545454568,
                "tempo": 120.0
            },
            {
                "start_time": 26.479545454545452,
                "end_time": 26.668181818181818,
                "pitch": 58,
                "velocity": 51,
                "duration": 0.18863636363636616,
                "tempo": 120.0
            },
            {
                "start_time": 26.68409090909091,
                "end_time": 28.334090909090907,
                "pitch": 59,
                "velocity": 51,
                "duration": 1.6499999999999986,
                "tempo": 120.0
            },
            {
                "start_time": 28.352272727272727,
                "end_time": 30.004545454545454,
                "pitch": 52,
                "velocity": 51,
                "duration": 1.6522727272727273,
                "tempo": 120.0
            },
            {
                "start_time": 30.020454545454545,
                "end_time": 30.054545454545455,
                "pitch": 54,
                "velocity": 51,
                "duration": 0.03409090909091006,
                "tempo": 120.0
            },
            {
                "start_time": 30.054545454545455,
                "end_time": 30.08863636363636,
                "pitch": 43,
                "velocity": 51,
                "duration": 0.03409090909090651,
                "tempo": 120.0
            },
            {
                "start_time": 30.08863636363636,
                "end_time": 30.159090909090907,
                "pitch": 53,
                "velocity": 51,
                "duration": 0.07045454545454533,
                "tempo": 120.0
            },
            {
                "start_time": 30.159090909090907,
                "end_time": 30.195454545454545,
                "pitch": 43,
                "velocity": 51,
                "duration": 0.03636363636363882,
                "tempo": 120.0
            },
            {
                "start_time": 30.195454545454545,
                "end_time": 30.263636363636362,
                "pitch": 53,
                "velocity": 51,
                "duration": 0.06818181818181657,
                "tempo": 120.0
            },
            {
                "start_time": 30.263636363636362,
                "end_time": 30.299999999999997,
                "pitch": 43,
                "velocity": 51,
                "duration": 0.036363636363635266,
                "tempo": 120.0
            },
            {
                "start_time": 30.299999999999997,
                "end_time": 30.370454545454542,
                "pitch": 53,
                "velocity": 51,
                "duration": 0.07045454545454533,
                "tempo": 120.0
            },
            {
                "start_time": 30.370454545454542,
                "end_time": 30.404545454545453,
                "pitch": 43,
                "velocity": 51,
                "duration": 0.03409090909091006,
                "tempo": 120.0
            },
            {
                "start_time": 30.404545454545453,
                "end_time": 30.474999999999998,
                "pitch": 53,
                "velocity": 51,
                "duration": 0.07045454545454533,
                "tempo": 120.0
            },
            {
                "start_time": 30.474999999999998,
                "end_time": 30.509090909090908,
                "pitch": 43,
                "velocity": 51,
                "duration": 0.03409090909091006,
                "tempo": 120.0
            },
            {
                "start_time": 30.509090909090908,
                "end_time": 30.575,
                "pitch": 53,
                "velocity": 51,
                "duration": 0.06590909090909136,
                "tempo": 120.0
            },
            {
                "start_time": 30.575,
                "end_time": 30.60909090909091,
                "pitch": 43,
                "velocity": 51,
                "duration": 0.03409090909091006,
                "tempo": 120.0
            },
            {
                "start_time": 30.60909090909091,
                "end_time": 30.674999999999997,
                "pitch": 53,
                "velocity": 51,
                "duration": 0.06590909090908781,
                "tempo": 120.0
            },
            {
                "start_time": 30.674999999999997,
                "end_time": 30.709090909090907,
                "pitch": 43,
                "velocity": 51,
                "duration": 0.03409090909091006,
                "tempo": 120.0
            },
            {
                "start_time": 30.709090909090907,
                "end_time": 30.775,
                "pitch": 53,
                "velocity": 51,
                "duration": 0.06590909090909136,
                "tempo": 120.0
            },
            {
                "start_time": 30.775,
                "end_time": 30.80909090909091,
                "pitch": 43,
                "velocity": 51,
                "duration": 0.03409090909091006,
                "tempo": 120.0
            },
            {
                "start_time": 30.80909090909091,
                "end_time": 30.875,
                "pitch": 53,
                "velocity": 51,
                "duration": 0.06590909090909136,
                "tempo": 120.0
            },
            {
                "start_time": 30.875,
                "end_time": 30.909090909090907,
                "pitch": 43,
                "velocity": 51,
                "duration": 0.03409090909090651,
                "tempo": 120.0
            },
            {
                "start_time": 30.909090909090907,
                "end_time": 30.974999999999998,
                "pitch": 53,
                "velocity": 51,
                "duration": 0.06590909090909136,
                "tempo": 120.0
            },
            {
                "start_time": 30.974999999999998,
                "end_time": 31.009090909090908,
                "pitch": 43,
                "velocity": 51,
                "duration": 0.03409090909091006,
                "tempo": 120.0
            },
            {
                "start_time": 31.009090909090908,
                "end_time": 31.077272727272724,
                "pitch": 53,
                "velocity": 51,
                "duration": 0.06818181818181657,
                "tempo": 120.0
            },
            {
                "start_time": 31.077272727272724,
                "end_time": 31.10909090909091,
                "pitch": 43,
                "velocity": 51,
                "duration": 0.031818181818184854,
                "tempo": 120.0
            },
            {
                "start_time": 31.10909090909091,
                "end_time": 31.177272727272726,
                "pitch": 53,
                "velocity": 51,
                "duration": 0.06818181818181657,
                "tempo": 120.0
            },
            {
                "start_time": 31.177272727272726,
                "end_time": 31.209090909090907,
                "pitch": 43,
                "velocity": 51,
                "duration": 0.0318181818181813,
                "tempo": 120.0
            },
            {
                "start_time": 31.209090909090907,
                "end_time": 31.277272727272727,
                "pitch": 53,
                "velocity": 51,
                "duration": 0.06818181818182012,
                "tempo": 120.0
            },
            {
                "start_time": 31.293181818181818,
                "end_time": 31.688636363636363,
                "pitch": 50,
                "velocity": 51,
                "duration": 0.3954545454545446,
                "tempo": 120.0
            },
            {
                "start_time": 31.704545454545453,
                "end_time": 33.35681818181818,
                "pitch": 47,
                "velocity": 51,
                "duration": 1.6522727272727238,
                "tempo": 120.0
            },
            {
                "start_time": 33.37272727272727,
                "end_time": 33.574999999999996,
                "pitch": 47,
                "velocity": 51,
                "duration": 0.20227272727272805,
                "tempo": 120.0
            },
            {
                "start_time": 33.590909090909086,
                "end_time": 33.775,
                "pitch": 47,
                "velocity": 51,
                "duration": 0.1840909090909122,
                "tempo": 120.0
            },
            {
                "start_time": 33.79090909090909,
                "end_time": 33.99772727272727,
                "pitch": 47,
                "velocity": 51,
                "duration": 0.20681818181817846,
                "tempo": 120.0
            },
            {
                "start_time": 34.013636363636365,
                "end_time": 34.20454545454545,
                "pitch": 47,
                "velocity": 51,
                "duration": 0.1909090909090878,
                "tempo": 120.0
            },
            {
                "start_time": 34.220454545454544,
                "end_time": 34.404545454545456,
                "pitch": 47,
                "velocity": 51,
                "duration": 0.1840909090909122,
                "tempo": 120.0
            },
            {
                "start_time": 34.42272727272727,
                "end_time": 34.62272727272727,
                "pitch": 47,
                "velocity": 51,
                "duration": 0.19999999999999574,
                "tempo": 120.0
            },
            {
                "start_time": 34.638636363636365,
                "end_time": 34.82727272727273,
                "pitch": 47,
                "velocity": 51,
                "duration": 0.1886363636363626,
                "tempo": 120.0
            },
            {
                "start_time": 34.845454545454544,
                "end_time": 35.03409090909091,
                "pitch": 47,
                "velocity": 51,
                "duration": 0.1886363636363626,
                "tempo": 120.0
            },
            {
                "start_time": 35.06818181818181,
                "end_time": 35.252272727272725,
                "pitch": 47,
                "velocity": 51,
                "duration": 0.1840909090909122,
                "tempo": 120.0
            },
            {
                "start_time": 35.268181818181816,
                "end_time": 35.45227272727273,
                "pitch": 47,
                "velocity": 51,
                "duration": 0.1840909090909122,
                "tempo": 120.0
            },
            {
                "start_time": 35.46818181818182,
                "end_time": 35.67045454545455,
                "pitch": 47,
                "velocity": 51,
                "duration": 0.20227272727272805,
                "tempo": 120.0
            },
            {
                "start_time": 35.68636363636364,
                "end_time": 35.87045454545454,
                "pitch": 47,
                "velocity": 51,
                "duration": 0.18409090909090509,
                "tempo": 120.0
            },
            {
                "start_time": 35.88636363636363,
                "end_time": 36.070454545454545,
                "pitch": 47,
                "velocity": 51,
                "duration": 0.1840909090909122,
                "tempo": 120.0
            },
            {
                "start_time": 36.086363636363636,
                "end_time": 36.288636363636364,
                "pitch": 47,
                "velocity": 51,
                "duration": 0.20227272727272805,
                "tempo": 120.0
            },
            {
                "start_time": 36.304545454545455,
                "end_time": 36.48863636363636,
                "pitch": 45,
                "velocity": 51,
                "duration": 0.18409090909090509,
                "tempo": 120.0
            },
            {
                "start_time": 36.50454545454545,
                "end_time": 36.70454545454545,
                "pitch": 46,
                "velocity": 51,
                "duration": 0.20000000000000284,
                "tempo": 120.0
            },
            {
                "start_time": 36.72272727272727,
                "end_time": 36.91136363636363,
                "pitch": 47,
                "velocity": 51,
                "duration": 0.1886363636363626,
                "tempo": 120.0
            },
            {
                "start_time": 36.92727272727272,
                "end_time": 37.11590909090909,
                "pitch": 47,
                "velocity": 51,
                "duration": 0.1886363636363697,
                "tempo": 120.0
            },
            {
                "start_time": 37.13409090909091,
                "end_time": 37.33409090909091,
                "pitch": 47,
                "velocity": 51,
                "duration": 0.20000000000000284,
                "tempo": 120.0
            },
            {
                "start_time": 37.35227272727273,
                "end_time": 37.53636363636363,
                "pitch": 47,
                "velocity": 51,
                "duration": 0.18409090909090509,
                "tempo": 120.0
            },
            {
                "start_time": 37.55227272727272,
                "end_time": 37.752272727272725,
                "pitch": 47,
                "velocity": 51,
                "duration": 0.20000000000000284,
                "tempo": 120.0
            },
            {
                "start_time": 37.77045454545454,
                "end_time": 37.95227272727273,
                "pitch": 47,
                "velocity": 51,
                "duration": 0.18181818181818699,
                "tempo": 120.0
            },
            {
                "start_time": 37.970454545454544,
                "end_time": 38.15909090909091,
                "pitch": 47,
                "velocity": 51,
                "duration": 0.1886363636363626,
                "tempo": 120.0
            },
            {
                "start_time": 38.175,
                "end_time": 38.38181818181818,
                "pitch": 47,
                "velocity": 51,
                "duration": 0.20681818181818556,
                "tempo": 120.0
            },
            {
                "start_time": 38.4,
                "end_time": 38.58181818181818,
                "pitch": 47,
                "velocity": 51,
                "duration": 0.18181818181817988,
                "tempo": 120.0
            },
            {
                "start_time": 38.6,
                "end_time": 38.78409090909091,
                "pitch": 47,
                "velocity": 51,
                "duration": 0.18409090909090509,
                "tempo": 120.0
            },
            {
                "start_time": 38.8,
                "end_time": 39.0,
                "pitch": 47,
                "velocity": 51,
                "duration": 0.20000000000000284,
                "tempo": 120.0
            },
            {
                "start_time": 39.018181818181816,
                "end_time": 39.199999999999996,
                "pitch": 47,
                "velocity": 51,
                "duration": 0.18181818181817988,
                "tempo": 120.0
            },
            {
                "start_time": 39.21818181818182,
                "end_time": 39.418181818181814,
                "pitch": 47,
                "velocity": 51,
                "duration": 0.19999999999999574,
                "tempo": 120.0
            },
            {
                "start_time": 39.434090909090905,
                "end_time": 39.61818181818182,
                "pitch": 44,
                "velocity": 51,
                "duration": 0.1840909090909122,
                "tempo": 120.0
            },
            {
                "start_time": 39.63636363636363,
                "end_time": 39.81818181818181,
                "pitch": 45,
                "velocity": 51,
                "duration": 0.18181818181817988,
                "tempo": 120.0
            },
            {
                "start_time": 39.836363636363636,
                "end_time": 40.03636363636363,
                "pitch": 46,
                "velocity": 51,
                "duration": 0.19999999999999574,
                "tempo": 120.0
            },
            {
                "start_time": 40.05227272727272,
                "end_time": 40.24545454545454,
                "pitch": 47,
                "velocity": 51,
                "duration": 0.19318181818182012,
                "tempo": 120.0
            },
            {
                "start_time": 40.26363636363636,
                "end_time": 40.47272727272727,
                "pitch": 47,
                "velocity": 51,
                "duration": 0.20909090909091077,
                "tempo": 120.0
            },
            {
                "start_time": 40.49090909090909,
                "end_time": 40.675,
                "pitch": 47,
                "velocity": 51,
                "duration": 0.18409090909090509,
                "tempo": 120.0
            },
            {
                "start_time": 40.69090909090909,
                "end_time": 40.875,
                "pitch": 47,
                "velocity": 51,
                "duration": 0.1840909090909122,
                "tempo": 120.0
            },
            {
                "start_time": 40.893181818181816,
                "end_time": 41.08863636363636,
                "pitch": 47,
                "velocity": 51,
                "duration": 0.19545454545454533,
                "tempo": 120.0
            },
            {
                "start_time": 41.10454545454545,
                "end_time": 41.28181818181818,
                "pitch": 47,
                "velocity": 51,
                "duration": 0.17727272727272947,
                "tempo": 120.0
            },
            {
                "start_time": 41.3,
                "end_time": 41.486363636363635,
                "pitch": 47,
                "velocity": 51,
                "duration": 0.1863636363636374,
                "tempo": 120.0
            },
            {
                "start_time": 41.52272727272727,
                "end_time": 41.711363636363636,
                "pitch": 47,
                "velocity": 51,
                "duration": 0.1886363636363626,
                "tempo": 120.0
            },
            {
                "start_time": 41.72727272727273,
                "end_time": 41.91136363636363,
                "pitch": 47,
                "velocity": 51,
                "duration": 0.18409090909090509,
                "tempo": 120.0
            },
            {
                "start_time": 41.929545454545455,
                "end_time": 42.12954545454545,
                "pitch": 47,
                "velocity": 51,
                "duration": 0.19999999999999574,
                "tempo": 120.0
            },
            {
                "start_time": 42.14545454545454,
                "end_time": 42.334090909090904,
                "pitch": 47,
                "velocity": 51,
                "duration": 0.1886363636363626,
                "tempo": 120.0
            },
            {
                "start_time": 42.35227272727273,
                "end_time": 42.54090909090909,
                "pitch": 47,
                "velocity": 51,
                "duration": 0.1886363636363626,
                "tempo": 120.0
            },
            {
                "start_time": 42.55681818181818,
                "end_time": 42.752272727272725,
                "pitch": 47,
                "velocity": 51,
                "duration": 0.19545454545454533,
                "tempo": 120.0
            },
            {
                "start_time": 42.77045454545454,
                "end_time": 42.94772727272727,
                "pitch": 47,
                "velocity": 51,
                "duration": 0.17727272727272947,
                "tempo": 120.0
            },
            {
                "start_time": 42.96363636363636,
                "end_time": 43.16590909090909,
                "pitch": 45,
                "velocity": 51,
                "duration": 0.20227272727272805,
                "tempo": 120.0
            },
            {
                "start_time": 43.18181818181818,
                "end_time": 43.36590909090909,
                "pitch": 46,
                "velocity": 51,
                "duration": 0.1840909090909122,
                "tempo": 120.0
            },
            {
                "start_time": 43.38181818181818,
                "end_time": 43.570454545454545,
                "pitch": 47,
                "velocity": 51,
                "duration": 0.1886363636363626,
                "tempo": 120.0
            },
            {
                "start_time": 43.58863636363636,
                "end_time": 43.79545454545455,
                "pitch": 47,
                "velocity": 51,
                "duration": 0.20681818181818556,
                "tempo": 120.0
            },
            {
                "start_time": 43.81136363636364,
                "end_time": 44.0,
                "pitch": 47,
                "velocity": 51,
                "duration": 0.1886363636363626,
                "tempo": 120.0
            },
            {
                "start_time": 44.018181818181816,
                "end_time": 44.22272727272727,
                "pitch": 47,
                "velocity": 51,
                "duration": 0.20454545454545325,
                "tempo": 120.0
            },
            {
                "start_time": 44.24090909090909,
                "end_time": 44.429545454545455,
                "pitch": 47,
                "velocity": 51,
                "duration": 0.1886363636363626,
                "tempo": 120.0
            },
            {
                "start_time": 44.44772727272727,
                "end_time": 44.63636363636363,
                "pitch": 47,
                "velocity": 51,
                "duration": 0.1886363636363626,
                "tempo": 120.0
            },
            {
                "start_time": 44.652272727272724,
                "end_time": 44.849999999999994,
                "pitch": 47,
                "velocity": 51,
                "duration": 0.19772727272727053,
                "tempo": 120.0
            },
            {
                "start_time": 44.86590909090909,
                "end_time": 45.043181818181814,
                "pitch": 47,
                "velocity": 51,
                "duration": 0.17727272727272236,
                "tempo": 120.0
            },
            {
                "start_time": 45.06136363636364,
                "end_time": 45.24318181818182,
                "pitch": 47,
                "velocity": 51,
                "duration": 0.18181818181817988,
                "tempo": 120.0
            },
            {
                "start_time": 45.26136363636363,
                "end_time": 45.461363636363636,
                "pitch": 47,
                "velocity": 51,
                "duration": 0.20000000000000284,
                "tempo": 120.0
            },
            {
                "start_time": 45.47727272727273,
                "end_time": 45.66590909090909,
                "pitch": 47,
                "velocity": 51,
                "duration": 0.1886363636363626,
                "tempo": 120.0
            },
            {
                "start_time": 45.684090909090905,
                "end_time": 45.89090909090909,
                "pitch": 47,
                "velocity": 51,
                "duration": 0.20681818181818556,
                "tempo": 120.0
            },
            {
                "start_time": 45.90681818181818,
                "end_time": 46.090909090909086,
                "pitch": 47,
                "velocity": 51,
                "duration": 0.18409090909090509,
                "tempo": 120.0
            },
            {
                "start_time": 46.10681818181818,
                "end_time": 46.29090909090909,
                "pitch": 44,
                "velocity": 51,
                "duration": 0.1840909090909122,
                "tempo": 120.0
            },
            {
                "start_time": 46.309090909090905,
                "end_time": 46.50454545454545,
                "pitch": 45,
                "velocity": 51,
                "duration": 0.19545454545454533,
                "tempo": 120.0
            },
            {
                "start_time": 46.52045454545454,
                "end_time": 46.69772727272727,
                "pitch": 46,
                "velocity": 51,
                "duration": 0.17727272727272947,
                "tempo": 120.0
            },
            {
                "start_time": 46.715909090909086,
                "end_time": 48.375,
                "pitch": 47,
                "velocity": 51,
                "duration": 1.6590909090909136,
                "tempo": 120.0
            },
            {
                "start_time": 48.39090909090909,
                "end_time": 50.04090909090909,
                "pitch": 50,
                "velocity": 64,
                "duration": 1.6499999999999986,
                "tempo": 120.0
            },
            {
                "start_time": 50.05681818181818,
                "end_time": 51.70681818181818,
                "pitch": 52,
                "velocity": 64,
                "duration": 1.6499999999999986,
                "tempo": 120.0
            },
            {
                "start_time": 51.72272727272727,
                "end_time": 52.340909090909086,
                "pitch": 53,
                "velocity": 64,
                "duration": 0.6181818181818173,
                "tempo": 120.0
            },
            {
                "start_time": 52.35681818181818,
                "end_time": 52.39090909090909,
                "pitch": 54,
                "velocity": 64,
                "duration": 0.03409090909091361,
                "tempo": 120.0
            },
            {
                "start_time": 52.39090909090909,
                "end_time": 52.425,
                "pitch": 43,
                "velocity": 64,
                "duration": 0.03409090909090651,
                "tempo": 120.0
            },
            {
                "start_time": 52.425,
                "end_time": 52.490909090909085,
                "pitch": 53,
                "velocity": 64,
                "duration": 0.06590909090908781,
                "tempo": 120.0
            },
            {
                "start_time": 52.490909090909085,
                "end_time": 52.525,
                "pitch": 43,
                "velocity": 64,
                "duration": 0.03409090909091361,
                "tempo": 120.0
            },
            {
                "start_time": 52.525,
                "end_time": 52.59318181818182,
                "pitch": 53,
                "velocity": 64,
                "duration": 0.06818181818182012,
                "tempo": 120.0
            },
            {
                "start_time": 52.59318181818182,
                "end_time": 52.627272727272725,
                "pitch": 43,
                "velocity": 64,
                "duration": 0.03409090909090651,
                "tempo": 120.0
            },
            {
                "start_time": 52.627272727272725,
                "end_time": 52.695454545454545,
                "pitch": 53,
                "velocity": 64,
                "duration": 0.06818181818182012,
                "tempo": 120.0
            },
            {
                "start_time": 52.695454545454545,
                "end_time": 52.72954545454545,
                "pitch": 43,
                "velocity": 64,
                "duration": 0.03409090909090651,
                "tempo": 120.0
            },
            {
                "start_time": 52.72954545454545,
                "end_time": 52.79772727272727,
                "pitch": 53,
                "velocity": 64,
                "duration": 0.06818181818182012,
                "tempo": 120.0
            },
            {
                "start_time": 52.79772727272727,
                "end_time": 52.83181818181818,
                "pitch": 43,
                "velocity": 64,
                "duration": 0.03409090909090651,
                "tempo": 120.0
            },
            {
                "start_time": 52.83181818181818,
                "end_time": 52.902272727272724,
                "pitch": 53,
                "velocity": 64,
                "duration": 0.07045454545454533,
                "tempo": 120.0
            },
            {
                "start_time": 52.902272727272724,
                "end_time": 52.93636363636363,
                "pitch": 43,
                "velocity": 64,
                "duration": 0.03409090909090651,
                "tempo": 120.0
            },
            {
                "start_time": 52.93636363636363,
                "end_time": 53.00454545454545,
                "pitch": 53,
                "velocity": 64,
                "duration": 0.06818181818182012,
                "tempo": 120.0
            },
            {
                "start_time": 53.00454545454545,
                "end_time": 53.038636363636364,
                "pitch": 43,
                "velocity": 64,
                "duration": 0.03409090909091361,
                "tempo": 120.0
            },
            {
                "start_time": 53.038636363636364,
                "end_time": 53.10681818181818,
                "pitch": 53,
                "velocity": 64,
                "duration": 0.06818181818181301,
                "tempo": 120.0
            },
            {
                "start_time": 53.10681818181818,
                "end_time": 53.14090909090909,
                "pitch": 43,
                "velocity": 64,
                "duration": 0.03409090909091361,
                "tempo": 120.0
            },
            {
                "start_time": 53.14090909090909,
                "end_time": 53.211363636363636,
                "pitch": 53,
                "velocity": 64,
                "duration": 0.07045454545454533,
                "tempo": 120.0
            },
            {
                "start_time": 53.211363636363636,
                "end_time": 53.24545454545454,
                "pitch": 43,
                "velocity": 64,
                "duration": 0.03409090909090651,
                "tempo": 120.0
            },
            {
                "start_time": 53.24545454545454,
                "end_time": 53.31363636363636,
                "pitch": 53,
                "velocity": 64,
                "duration": 0.06818181818182012,
                "tempo": 120.0
            },
            {
                "start_time": 53.31363636363636,
                "end_time": 53.34772727272727,
                "pitch": 43,
                "velocity": 64,
                "duration": 0.03409090909090651,
                "tempo": 120.0
            },
            {
                "start_time": 53.34772727272727,
                "end_time": 53.4,
                "pitch": 53,
                "velocity": 64,
                "duration": 0.05227272727272947,
                "tempo": 120.0
            },
            {
                "start_time": 53.41590909090909,
                "end_time": 55.06818181818181,
                "pitch": 59,
                "velocity": 64,
                "duration": 1.6522727272727238,
                "tempo": 120.0
            },
            {
                "start_time": 55.086363636363636,
                "end_time": 56.736363636363635,
                "pitch": 50,
                "velocity": 64,
                "duration": 1.6499999999999986,
                "tempo": 120.0
            },
            {
                "start_time": 56.752272727272725,
                "end_time": 56.78636363636363,
                "pitch": 54,
                "velocity": 64,
                "duration": 0.03409090909090651,
                "tempo": 120.0
            },
            {
                "start_time": 56.78636363636363,
                "end_time": 56.820454545454545,
                "pitch": 43,
                "velocity": 64,
                "duration": 0.03409090909091361,
                "tempo": 120.0
            },
            {
                "start_time": 56.820454545454545,
                "end_time": 56.89090909090909,
                "pitch": 53,
                "velocity": 64,
                "duration": 0.07045454545454533,
                "tempo": 120.0
            },
            {
                "start_time": 56.89090909090909,
                "end_time": 56.925,
                "pitch": 43,
                "velocity": 64,
                "duration": 0.03409090909090651,
                "tempo": 120.0
            },
            {
                "start_time": 56.925,
                "end_time": 56.99318181818182,
                "pitch": 53,
                "velocity": 64,
                "duration": 0.06818181818182012,
                "tempo": 120.0
            },
            {
                "start_time": 56.99318181818182,
                "end_time": 57.027272727272724,
                "pitch": 43,
                "velocity": 64,
                "duration": 0.03409090909090651,
                "tempo": 120.0
            },
            {
                "start_time": 57.027272727272724,
                "end_time": 57.095454545454544,
                "pitch": 53,
                "velocity": 64,
                "duration": 0.06818181818182012,
                "tempo": 120.0
            },
            {
                "start_time": 57.095454545454544,
                "end_time": 57.12954545454545,
                "pitch": 43,
                "velocity": 64,
                "duration": 0.03409090909090651,
                "tempo": 120.0
            },
            {
                "start_time": 57.12954545454545,
                "end_time": 57.19772727272727,
                "pitch": 53,
                "velocity": 64,
                "duration": 0.06818181818182012,
                "tempo": 120.0
            },
            {
                "start_time": 57.19772727272727,
                "end_time": 57.23181818181818,
                "pitch": 43,
                "velocity": 64,
                "duration": 0.03409090909090651,
                "tempo": 120.0
            },
            {
                "start_time": 57.23181818181818,
                "end_time": 57.3,
                "pitch": 53,
                "velocity": 64,
                "duration": 0.06818181818182012,
                "tempo": 120.0
            },
            {
                "start_time": 57.3,
                "end_time": 57.33181818181818,
                "pitch": 43,
                "velocity": 64,
                "duration": 0.0318181818181813,
                "tempo": 120.0
            },
            {
                "start_time": 57.33181818181818,
                "end_time": 57.4,
                "pitch": 53,
                "velocity": 64,
                "duration": 0.06818181818182012,
                "tempo": 120.0
            },
            {
                "start_time": 57.4,
                "end_time": 57.43181818181818,
                "pitch": 43,
                "velocity": 64,
                "duration": 0.0318181818181813,
                "tempo": 120.0
            },
            {
                "start_time": 57.43181818181818,
                "end_time": 57.5,
                "pitch": 53,
                "velocity": 64,
                "duration": 0.06818181818182012,
                "tempo": 120.0
            },
            {
                "start_time": 57.5,
                "end_time": 57.53181818181818,
                "pitch": 43,
                "velocity": 64,
                "duration": 0.0318181818181813,
                "tempo": 120.0
            },
            {
                "start_time": 57.53181818181818,
                "end_time": 57.599999999999994,
                "pitch": 53,
                "velocity": 64,
                "duration": 0.06818181818181301,
                "tempo": 120.0
            },
            {
                "start_time": 57.599999999999994,
                "end_time": 57.631818181818176,
                "pitch": 43,
                "velocity": 64,
                "duration": 0.0318181818181813,
                "tempo": 120.0
            },
            {
                "start_time": 57.631818181818176,
                "end_time": 57.69772727272727,
                "pitch": 53,
                "velocity": 64,
                "duration": 0.06590909090909491,
                "tempo": 120.0
            },
            {
                "start_time": 57.69772727272727,
                "end_time": 57.72954545454545,
                "pitch": 43,
                "velocity": 64,
                "duration": 0.0318181818181813,
                "tempo": 120.0
            },
            {
                "start_time": 57.72954545454545,
                "end_time": 57.79545454545454,
                "pitch": 53,
                "velocity": 64,
                "duration": 0.06590909090908781,
                "tempo": 120.0
            },
            {
                "start_time": 57.79545454545454,
                "end_time": 57.82727272727272,
                "pitch": 43,
                "velocity": 64,
                "duration": 0.0318181818181813,
                "tempo": 120.0
            },
            {
                "start_time": 57.82727272727272,
                "end_time": 57.89090909090909,
                "pitch": 53,
                "velocity": 64,
                "duration": 0.06363636363636971,
                "tempo": 120.0
            },
            {
                "start_time": 57.89090909090909,
                "end_time": 57.925,
                "pitch": 43,
                "velocity": 64,
                "duration": 0.03409090909090651,
                "tempo": 120.0
            },
            {
                "start_time": 57.925,
                "end_time": 57.97272727272727,
                "pitch": 53,
                "velocity": 64,
                "duration": 0.04772727272727195,
                "tempo": 120.0
            },
            {
                "start_time": 57.98863636363636,
                "end_time": 58.402272727272724,
                "pitch": 57,
                "velocity": 64,
                "duration": 0.413636363636364,
                "tempo": 120.0
            },
            {
                "start_time": 58.418181818181814,
                "end_time": 59.445454545454545,
                "pitch": 59,
                "velocity": 64,
                "duration": 1.027272727272731,
                "tempo": 120.0
            },
            {
                "start_time": 59.461363636363636,
                "end_time": 59.49318181818182,
                "pitch": 54,
                "velocity": 64,
                "duration": 0.0318181818181813,
                "tempo": 120.0
            },
            {
                "start_time": 59.49318181818182,
                "end_time": 59.525,
                "pitch": 43,
                "velocity": 64,
                "duration": 0.0318181818181813,
                "tempo": 120.0
            },
            {
                "start_time": 59.525,
                "end_time": 59.590909090909086,
                "pitch": 53,
                "velocity": 64,
                "duration": 0.06590909090908781,
                "tempo": 120.0
            },
            {
                "start_time": 59.590909090909086,
                "end_time": 59.62272727272727,
                "pitch": 43,
                "velocity": 64,
                "duration": 0.0318181818181813,
                "tempo": 120.0
            },
            {
                "start_time": 59.62272727272727,
                "end_time": 59.63863636363636,
                "pitch": 53,
                "velocity": 64,
                "duration": 0.01590909090909065,
                "tempo": 120.0
            },
            {
                "start_time": 59.65681818181818,
                "end_time": 59.861363636363635,
                "pitch": 57,
                "velocity": 64,
                "duration": 0.20454545454545325,
                "tempo": 120.0
            },
            {
                "start_time": 59.87954545454545,
                "end_time": 60.06818181818181,
                "pitch": 58,
                "velocity": 64,
                "duration": 0.1886363636363626,
                "tempo": 120.0
            },
            {
                "start_time": 60.084090909090904,
                "end_time": 60.272727272727266,
                "pitch": 47,
                "velocity": 64,
                "duration": 0.1886363636363626,
                "tempo": 120.0
            }
        ],
        "Acoustic Grand Piano": [
            {
                "start_time": 0.0,
                "end_time": 0.17954545454545454,
                "pitch": 47,
                "velocity": 32,
                "duration": 0.17954545454545454,
                "tempo": 120.0
            },
            {
                "start_time": 0.19545454545454544,
                "end_time": 0.375,
                "pitch": 47,
                "velocity": 32,
                "duration": 0.17954545454545456,
                "tempo": 120.0
            },
            {
                "start_time": 0.3909090909090909,
                "end_time": 0.5909090909090908,
                "pitch": 47,
                "velocity": 32,
                "duration": 0.19999999999999996,
                "tempo": 120.0
            },
            {
                "start_time": 0.6068181818181818,
                "end_time": 0.7909090909090909,
                "pitch": 47,
                "velocity": 32,
                "duration": 0.18409090909090908,
                "tempo": 120.0
            },
            {
                "start_time": 0.8068181818181818,
                "end_time": 0.9954545454545454,
                "pitch": 47,
                "velocity": 32,
                "duration": 0.1886363636363636,
                "tempo": 120.0
            },
            {
                "start_time": 1.0136363636363637,
                "end_time": 1.2204545454545455,
                "pitch": 47,
                "velocity": 32,
                "duration": 0.2068181818181818,
                "tempo": 120.0
            },
            {
                "start_time": 1.2363636363636363,
                "end_time": 1.4249999999999998,
                "pitch": 47,
                "velocity": 32,
                "duration": 0.1886363636363635,
                "tempo": 120.0
            },
            {
                "start_time": 1.4431818181818181,
                "end_time": 1.65,
                "pitch": 47,
                "velocity": 32,
                "duration": 0.2068181818181818,
                "tempo": 120.0
            },
            {
                "start_time": 1.6659090909090908,
                "end_time": 1.8499999999999999,
                "pitch": 47,
                "velocity": 32,
                "duration": 0.18409090909090908,
                "tempo": 120.0
            },
            {
                "start_time": 1.8659090909090907,
                "end_time": 2.05,
                "pitch": 47,
                "velocity": 32,
                "duration": 0.18409090909090908,
                "tempo": 120.0
            },
            {
                "start_time": 2.068181818181818,
                "end_time": 2.2636363636363637,
                "pitch": 47,
                "velocity": 32,
                "duration": 0.19545454545454577,
                "tempo": 120.0
            },
            {
                "start_time": 2.2795454545454543,
                "end_time": 2.4613636363636364,
                "pitch": 47,
                "velocity": 32,
                "duration": 0.1818181818181821,
                "tempo": 120.0
            },
            {
                "start_time": 2.477272727272727,
                "end_time": 2.6659090909090906,
                "pitch": 47,
                "velocity": 32,
                "duration": 0.1886363636363635,
                "tempo": 120.0
            },
            {
                "start_time": 2.6999999999999997,
                "end_time": 2.8886363636363637,
                "pitch": 47,
                "velocity": 32,
                "duration": 0.18863636363636394,
                "tempo": 120.0
            },
            {
                "start_time": 2.9045454545454543,
                "end_time": 3.0886363636363634,
                "pitch": 45,
                "velocity": 32,
                "duration": 0.18409090909090908,
                "tempo": 120.0
            },
            {
                "start_time": 3.1068181818181815,
                "end_time": 3.3068181818181817,
                "pitch": 46,
                "velocity": 32,
                "duration": 0.20000000000000018,
                "tempo": 120.0
            },
            {
                "start_time": 3.3227272727272728,
                "end_time": 3.5113636363636362,
                "pitch": 47,
                "velocity": 32,
                "duration": 0.1886363636363635,
                "tempo": 120.0
            },
            {
                "start_time": 3.5295454545454543,
                "end_time": 3.718181818181818,
                "pitch": 47,
                "velocity": 32,
                "duration": 0.1886363636363635,
                "tempo": 120.0
            },
            {
                "start_time": 3.7363636363636363,
                "end_time": 3.9318181818181817,
                "pitch": 47,
                "velocity": 32,
                "duration": 0.19545454545454533,
                "tempo": 120.0
            },
            {
                "start_time": 3.9477272727272728,
                "end_time": 4.127272727272727,
                "pitch": 47,
                "velocity": 32,
                "duration": 0.17954545454545423,
                "tempo": 120.0
            },
            {
                "start_time": 4.143181818181818,
                "end_time": 4.347727272727273,
                "pitch": 47,
                "velocity": 32,
                "duration": 0.20454545454545503,
                "tempo": 120.0
            },
            {
                "start_time": 4.36590909090909,
                "end_time": 4.554545454545455,
                "pitch": 47,
                "velocity": 32,
                "duration": 0.18863636363636438,
                "tempo": 120.0
            },
            {
                "start_time": 4.570454545454545,
                "end_time": 4.759090909090909,
                "pitch": 47,
                "velocity": 32,
                "duration": 0.1886363636363635,
                "tempo": 120.0
            },
            {
                "start_time": 4.777272727272727,
                "end_time": 4.9840909090909085,
                "pitch": 47,
                "velocity": 32,
                "duration": 0.20681818181818112,
                "tempo": 120.0
            },
            {
                "start_time": 5.0,
                "end_time": 5.184090909090909,
                "pitch": 47,
                "velocity": 32,
                "duration": 0.18409090909090864,
                "tempo": 120.0
            },
            {
                "start_time": 5.202272727272727,
                "end_time": 5.402272727272727,
                "pitch": 47,
                "velocity": 32,
                "duration": 0.20000000000000018,
                "tempo": 120.0
            },
            {
                "start_time": 5.418181818181818,
                "end_time": 5.6068181818181815,
                "pitch": 47,
                "velocity": 32,
                "duration": 0.1886363636363635,
                "tempo": 120.0
            },
            {
                "start_time": 5.625,
                "end_time": 5.8136363636363635,
                "pitch": 47,
                "velocity": 32,
                "duration": 0.1886363636363635,
                "tempo": 120.0
            },
            {
                "start_time": 5.829545454545454,
                "end_time": 6.027272727272727,
                "pitch": 47,
                "velocity": 32,
                "duration": 0.1977272727272732,
                "tempo": 120.0
            },
            {
                "start_time": 6.043181818181818,
                "end_time": 6.225,
                "pitch": 44,
                "velocity": 32,
                "duration": 0.18181818181818166,
                "tempo": 120.0
            },
            {
                "start_time": 6.24090909090909,
                "end_time": 6.425,
                "pitch": 45,
                "velocity": 32,
                "duration": 0.18409090909090953,
                "tempo": 120.0
            },
            {
                "start_time": 6.4409090909090905,
                "end_time": 6.640909090909091,
                "pitch": 46,
                "velocity": 32,
                "duration": 0.20000000000000018,
                "tempo": 120.0
            },
            {
                "start_time": 6.656818181818181,
                "end_time": 6.845454545454545,
                "pitch": 47,
                "velocity": 32,
                "duration": 0.1886363636363635,
                "tempo": 120.0
            },
            {
                "start_time": 6.863636363636363,
                "end_time": 7.070454545454545,
                "pitch": 47,
                "velocity": 32,
                "duration": 0.206818181818182,
                "tempo": 120.0
            },
            {
                "start_time": 7.086363636363636,
                "end_time": 7.2749999999999995,
                "pitch": 47,
                "velocity": 32,
                "duration": 0.1886363636363635,
                "tempo": 120.0
            },
            {
                "start_time": 7.293181818181818,
                "end_time": 7.4818181818181815,
                "pitch": 47,
                "velocity": 32,
                "duration": 0.1886363636363635,
                "tempo": 120.0
            },
            {
                "start_time": 7.5,
                "end_time": 7.695454545454545,
                "pitch": 47,
                "velocity": 32,
                "duration": 0.19545454545454533,
                "tempo": 120.0
            },
            {
                "start_time": 7.711363636363636,
                "end_time": 7.890909090909091,
                "pitch": 47,
                "velocity": 32,
                "duration": 0.17954545454545467,
                "tempo": 120.0
            },
            {
                "start_time": 7.906818181818181,
                "end_time": 8.111363636363636,
                "pitch": 47,
                "velocity": 32,
                "duration": 0.20454545454545503,
                "tempo": 120.0
            },
            {
                "start_time": 8.129545454545454,
                "end_time": 8.318181818181818,
                "pitch": 47,
                "velocity": 32,
                "duration": 0.18863636363636438,
                "tempo": 120.0
            },
            {
                "start_time": 8.334090909090909,
                "end_time": 8.518181818181818,
                "pitch": 47,
                "velocity": 32,
                "duration": 0.18409090909090864,
                "tempo": 120.0
            },
            {
                "start_time": 8.536363636363635,
                "end_time": 8.736363636363636,
                "pitch": 47,
                "velocity": 32,
                "duration": 0.20000000000000107,
                "tempo": 120.0
            },
            {
                "start_time": 8.752272727272727,
                "end_time": 8.940909090909091,
                "pitch": 47,
                "velocity": 32,
                "duration": 0.18863636363636438,
                "tempo": 120.0
            },
            {
                "start_time": 8.959090909090909,
                "end_time": 9.147727272727272,
                "pitch": 47,
                "velocity": 32,
                "duration": 0.1886363636363626,
                "tempo": 120.0
            },
            {
                "start_time": 9.181818181818182,
                "end_time": 9.36590909090909,
                "pitch": 47,
                "velocity": 32,
                "duration": 0.18409090909090864,
                "tempo": 120.0
            },
            {
                "start_time": 9.381818181818181,
                "end_time": 9.56590909090909,
                "pitch": 47,
                "velocity": 32,
                "duration": 0.18409090909090864,
                "tempo": 120.0
            },
            {
                "start_time": 9.584090909090909,
                "end_time": 9.779545454545454,
                "pitch": 45,
                "velocity": 32,
                "duration": 0.19545454545454533,
                "tempo": 120.0
            },
            {
                "start_time": 9.795454545454545,
                "end_time": 9.977272727272727,
                "pitch": 46,
                "velocity": 32,
                "duration": 0.18181818181818166,
                "tempo": 120.0
            },
            {
                "start_time": 9.993181818181817,
                "end_time": 10.181818181818182,
                "pitch": 47,
                "velocity": 32,
                "duration": 0.18863636363636438,
                "tempo": 120.0
            },
            {
                "start_time": 10.197727272727272,
                "end_time": 10.404545454545454,
                "pitch": 47,
                "velocity": 32,
                "duration": 0.206818181818182,
                "tempo": 120.0
            },
            {
                "start_time": 10.420454545454545,
                "end_time": 10.611363636363636,
                "pitch": 47,
                "velocity": 32,
                "duration": 0.19090909090909136,
                "tempo": 120.0
            },
            {
                "start_time": 10.627272727272727,
                "end_time": 10.834090909090909,
                "pitch": 47,
                "velocity": 32,
                "duration": 0.206818181818182,
                "tempo": 120.0
            },
            {
                "start_time": 10.85,
                "end_time": 11.034090909090908,
                "pitch": 47,
                "velocity": 32,
                "duration": 0.18409090909090864,
                "tempo": 120.0
            },
            {
                "start_time": 11.052272727272726,
                "end_time": 11.236363636363636,
                "pitch": 47,
                "velocity": 32,
                "duration": 0.18409090909091042,
                "tempo": 120.0
            },
            {
                "start_time": 11.252272727272727,
                "end_time": 11.452272727272726,
                "pitch": 47,
                "velocity": 32,
                "duration": 0.1999999999999993,
                "tempo": 120.0
            },
            {
                "start_time": 11.468181818181817,
                "end_time": 11.652272727272727,
                "pitch": 47,
                "velocity": 32,
                "duration": 0.18409090909091042,
                "tempo": 120.0
            },
            {
                "start_time": 11.670454545454545,
                "end_time": 11.870454545454544,
                "pitch": 47,
                "velocity": 32,
                "duration": 0.1999999999999993,
                "tempo": 120.0
            },
            {
                "start_time": 11.886363636363635,
                "end_time": 12.070454545454545,
                "pitch": 47,
                "velocity": 32,
                "duration": 0.18409090909091042,
                "tempo": 120.0
            },
            {
                "start_time": 12.086363636363636,
                "end_time": 12.274999999999999,
                "pitch": 47,
                "velocity": 32,
                "duration": 0.1886363636363626,
                "tempo": 120.0
            },
            {
                "start_time": 12.293181818181818,
                "end_time": 12.5,
                "pitch": 47,
                "velocity": 32,
                "duration": 0.206818181818182,
                "tempo": 120.0
            },
            {
                "start_time": 12.51590909090909,
                "end_time": 12.7,
                "pitch": 47,
                "velocity": 32,
                "duration": 0.18409090909090864,
                "tempo": 120.0
            },
            {
                "start_time": 12.718181818181817,
                "end_time": 12.899999999999999,
                "pitch": 44,
                "velocity": 32,
                "duration": 0.18181818181818166,
                "tempo": 120.0
            },
            {
                "start_time": 12.918181818181818,
                "end_time": 13.113636363636363,
                "pitch": 45,
                "velocity": 32,
                "duration": 0.19545454545454533,
                "tempo": 120.0
            },
            {
                "start_time": 13.129545454545454,
                "end_time": 13.309090909090909,
                "pitch": 46,
                "velocity": 32,
                "duration": 0.17954545454545467,
                "tempo": 120.0
            },
            {
                "start_time": 13.34090909090909,
                "end_time": 13.529545454545454,
                "pitch": 57,
                "velocity": 32,
                "duration": 0.18863636363636438,
                "tempo": 120.0
            },
            {
                "start_time": 13.547727272727272,
                "end_time": 13.736363636363636,
                "pitch": 58,
                "velocity": 32,
                "duration": 0.18863636363636438,
                "tempo": 120.0
            },
            {
                "start_time": 13.752272727272727,
                "end_time": 13.943181818181818,
                "pitch": 59,
                "velocity": 32,
                "duration": 0.19090909090909136,
                "tempo": 120.0
            },
            {
                "start_time": 13.959090909090909,
                "end_time": 14.165909090909091,
                "pitch": 57,
                "velocity": 32,
                "duration": 0.206818181818182,
                "tempo": 120.0
            },
            {
                "start_time": 14.181818181818182,
                "end_time": 14.36590909090909,
                "pitch": 58,
                "velocity": 32,
                "duration": 0.18409090909090864,
                "tempo": 120.0
            },
            {
                "start_time": 14.384090909090908,
                "end_time": 14.584090909090909,
                "pitch": 59,
                "velocity": 32,
                "duration": 0.20000000000000107,
                "tempo": 120.0
            },
            {
                "start_time": 14.6,
                "end_time": 14.788636363636362,
                "pitch": 57,
                "velocity": 32,
                "duration": 0.1886363636363626,
                "tempo": 120.0
            },
            {
                "start_time": 14.806818181818182,
                "end_time": 14.995454545454544,
                "pitch": 58,
                "velocity": 32,
                "duration": 0.1886363636363626,
                "tempo": 120.0
            },
            {
                "start_time": 15.011363636363635,
                "end_time": 15.209090909090909,
                "pitch": 59,
                "velocity": 32,
                "duration": 0.19772727272727408,
                "tempo": 120.0
            },
            {
                "start_time": 15.225,
                "end_time": 15.402272727272727,
                "pitch": 57,
                "velocity": 32,
                "duration": 0.1772727272727277,
                "tempo": 120.0
            },
            {
                "start_time": 15.420454545454545,
                "end_time": 15.60681818181818,
                "pitch": 58,
                "velocity": 32,
                "duration": 0.18636363636363562,
                "tempo": 120.0
            },
            {
                "start_time": 15.643181818181818,
                "end_time": 15.83181818181818,
                "pitch": 59,
                "velocity": 32,
                "duration": 0.1886363636363626,
                "tempo": 120.0
            },
            {
                "start_time": 15.847727272727273,
                "end_time": 16.03181818181818,
                "pitch": 57,
                "velocity": 32,
                "duration": 0.18409090909090864,
                "tempo": 120.0
            },
            {
                "start_time": 16.05,
                "end_time": 16.25,
                "pitch": 58,
                "velocity": 32,
                "duration": 0.1999999999999993,
                "tempo": 120.0
            },
            {
                "start_time": 16.26590909090909,
                "end_time": 16.352272727272727,
                "pitch": 56,
                "velocity": 32,
                "duration": 0.08636363636363598,
                "tempo": 120.0
            },
            {
                "start_time": 16.368181818181817,
                "end_time": 16.454545454545453,
                "pitch": 57,
                "velocity": 32,
                "duration": 0.08636363636363598,
                "tempo": 120.0
            },
            {
                "start_time": 16.472727272727273,
                "end_time": 16.55681818181818,
                "pitch": 58,
                "velocity": 32,
                "duration": 0.08409090909090722,
                "tempo": 120.0
            },
            {
                "start_time": 16.575,
                "end_time": 16.661363636363635,
                "pitch": 59,
                "velocity": 32,
                "duration": 0.08636363636363598,
                "tempo": 120.0
            },
            {
                "start_time": 16.677272727272726,
                "end_time": 16.875,
                "pitch": 57,
                "velocity": 32,
                "duration": 0.19772727272727408,
                "tempo": 120.0
            },
            {
                "start_time": 16.89090909090909,
                "end_time": 17.070454545454545,
                "pitch": 58,
                "velocity": 32,
                "duration": 0.17954545454545467,
                "tempo": 120.0
            },
            {
                "start_time": 17.08863636363636,
                "end_time": 17.293181818181818,
                "pitch": 59,
                "velocity": 32,
                "duration": 0.2045454545454568,
                "tempo": 120.0
            },
            {
                "start_time": 17.311363636363634,
                "end_time": 17.5,
                "pitch": 57,
                "velocity": 32,
                "duration": 0.18863636363636616,
                "tempo": 120.0
            },
            {
                "start_time": 17.51590909090909,
                "end_time": 17.7,
                "pitch": 58,
                "velocity": 32,
                "duration": 0.18409090909090864,
                "tempo": 120.0
            },
            {
                "start_time": 17.71818181818182,
                "end_time": 17.918181818181818,
                "pitch": 59,
                "velocity": 32,
                "duration": 0.1999999999999993,
                "tempo": 120.0
            },
            {
                "start_time": 17.93409090909091,
                "end_time": 18.12272727272727,
                "pitch": 57,
                "velocity": 32,
                "duration": 0.1886363636363626,
                "tempo": 120.0
            },
            {
                "start_time": 18.14090909090909,
                "end_time": 18.345454545454544,
                "pitch": 58,
                "velocity": 32,
                "duration": 0.20454545454545325,
                "tempo": 120.0
            },
            {
                "start_time": 18.363636363636363,
                "end_time": 18.547727272727272,
                "pitch": 59,
                "velocity": 32,
                "duration": 0.18409090909090864,
                "tempo": 120.0
            },
            {
                "start_time": 18.563636363636363,
                "end_time": 18.74772727272727,
                "pitch": 57,
                "velocity": 32,
                "duration": 0.18409090909090864,
                "tempo": 120.0
            },
            {
                "start_time": 18.763636363636362,
                "end_time": 18.959090909090907,
                "pitch": 58,
                "velocity": 32,
                "duration": 0.19545454545454533,
                "tempo": 120.0
            },
            {
                "start_time": 18.977272727272727,
                "end_time": 19.154545454545453,
                "pitch": 59,
                "velocity": 32,
                "duration": 0.17727272727272592,
                "tempo": 120.0
            },
            {
                "start_time": 19.170454545454543,
                "end_time": 19.354545454545452,
                "pitch": 57,
                "velocity": 32,
                "duration": 0.18409090909090864,
                "tempo": 120.0
            },
            {
                "start_time": 19.37272727272727,
                "end_time": 19.57272727272727,
                "pitch": 58,
                "velocity": 32,
                "duration": 0.1999999999999993,
                "tempo": 120.0
            },
            {
                "start_time": 19.58863636363636,
                "end_time": 19.675,
                "pitch": 56,
                "velocity": 32,
                "duration": 0.08636363636363953,
                "tempo": 120.0
            },
            {
                "start_time": 19.693181818181817,
                "end_time": 19.777272727272727,
                "pitch": 57,
                "velocity": 32,
                "duration": 0.08409090909091077,
                "tempo": 120.0
            },
            {
                "start_time": 19.795454545454543,
                "end_time": 19.88181818181818,
                "pitch": 58,
                "velocity": 32,
                "duration": 0.08636363636363598,
                "tempo": 120.0
            },
            {
                "start_time": 19.897727272727273,
                "end_time": 20.002272727272725,
                "pitch": 59,
                "velocity": 32,
                "duration": 0.10454545454545183,
                "tempo": 120.0
            },
            {
                "start_time": 20.018181818181816,
                "end_time": 20.206818181818182,
                "pitch": 57,
                "velocity": 32,
                "duration": 0.18863636363636616,
                "tempo": 120.0
            },
            {
                "start_time": 20.224999999999998,
                "end_time": 20.413636363636364,
                "pitch": 58,
                "velocity": 32,
                "duration": 0.18863636363636616,
                "tempo": 120.0
            },
            {
                "start_time": 20.43181818181818,
                "end_time": 20.625,
                "pitch": 59,
                "velocity": 32,
                "duration": 0.19318181818182012,
                "tempo": 120.0
            },
            {
                "start_time": 20.643181818181816,
                "end_time": 20.820454545454545,
                "pitch": 57,
                "velocity": 32,
                "duration": 0.17727272727272947,
                "tempo": 120.0
            },
            {
                "start_time": 20.83863636363636,
                "end_time": 21.038636363636364,
                "pitch": 58,
                "velocity": 32,
                "duration": 0.20000000000000284,
                "tempo": 120.0
            },
            {
                "start_time": 21.054545454545455,
                "end_time": 21.238636363636363,
                "pitch": 59,
                "velocity": 32,
                "duration": 0.18409090909090864,
                "tempo": 120.0
            },
            {
                "start_time": 21.254545454545454,
                "end_time": 21.443181818181817,
                "pitch": 57,
                "velocity": 32,
                "duration": 0.1886363636363626,
                "tempo": 120.0
            },
            {
                "start_time": 21.461363636363636,
                "end_time": 21.668181818181818,
                "pitch": 58,
                "velocity": 32,
                "duration": 0.206818181818182,
                "tempo": 120.0
            },
            {
                "start_time": 21.68409090909091,
                "end_time": 21.868181818181817,
                "pitch": 59,
                "velocity": 32,
                "duration": 0.18409090909090864,
                "tempo": 120.0
            },
            {
                "start_time": 21.884090909090908,
                "end_time": 22.068181818181817,
                "pitch": 57,
                "velocity": 32,
                "duration": 0.18409090909090864,
                "tempo": 120.0
            },
            {
                "start_time": 22.102272727272727,
                "end_time": 22.29090909090909,
                "pitch": 58,
                "velocity": 32,
                "duration": 0.1886363636363626,
                "tempo": 120.0
            },
            {
                "start_time": 22.30909090909091,
                "end_time": 22.49772727272727,
                "pitch": 59,
                "velocity": 32,
                "duration": 0.1886363636363626,
                "tempo": 120.0
            },
            {
                "start_time": 22.513636363636362,
                "end_time": 22.711363636363636,
                "pitch": 57,
                "velocity": 32,
                "duration": 0.19772727272727408,
                "tempo": 120.0
            },
            {
                "start_time": 22.727272727272727,
                "end_time": 22.90681818181818,
                "pitch": 58,
                "velocity": 32,
                "duration": 0.17954545454545467,
                "tempo": 120.0
            },
            {
                "start_time": 22.922727272727272,
                "end_time": 23.009090909090908,
                "pitch": 56,
                "velocity": 32,
                "duration": 0.08636363636363598,
                "tempo": 120.0
            },
            {
                "start_time": 23.027272727272727,
                "end_time": 23.111363636363635,
                "pitch": 57,
                "velocity": 32,
                "duration": 0.08409090909090722,
                "tempo": 120.0
            },
            {
                "start_time": 23.129545454545454,
                "end_time": 23.23181818181818,
                "pitch": 58,
                "velocity": 32,
                "duration": 0.10227272727272663,
                "tempo": 120.0
            },
            {
                "start_time": 23.25,
                "end_time": 23.336363636363636,
                "pitch": 59,
                "velocity": 32,
                "duration": 0.08636363636363598,
                "tempo": 120.0
            },
            {
                "start_time": 23.352272727272727,
                "end_time": 23.54090909090909,
                "pitch": 57,
                "velocity": 32,
                "duration": 0.1886363636363626,
                "tempo": 120.0
            },
            {
                "start_time": 23.55909090909091,
                "end_time": 23.76590909090909,
                "pitch": 58,
                "velocity": 32,
                "duration": 0.206818181818182,
                "tempo": 120.0
            },
            {
                "start_time": 23.78181818181818,
                "end_time": 23.96590909090909,
                "pitch": 59,
                "velocity": 32,
                "duration": 0.18409090909090864,
                "tempo": 120.0
            },
            {
                "start_time": 23.98181818181818,
                "end_time": 24.16590909090909,
                "pitch": 57,
                "velocity": 32,
                "duration": 0.18409090909090864,
                "tempo": 120.0
            },
            {
                "start_time": 24.18409090909091,
                "end_time": 24.377272727272725,
                "pitch": 58,
                "velocity": 32,
                "duration": 0.19318181818181657,
                "tempo": 120.0
            },
            {
                "start_time": 24.395454545454545,
                "end_time": 24.57272727272727,
                "pitch": 59,
                "velocity": 32,
                "duration": 0.17727272727272592,
                "tempo": 120.0
            },
            {
                "start_time": 24.58863636363636,
                "end_time": 24.795454545454543,
                "pitch": 57,
                "velocity": 32,
                "duration": 0.206818181818182,
                "tempo": 120.0
            },
            {
                "start_time": 24.813636363636363,
                "end_time": 25.002272727272725,
                "pitch": 58,
                "velocity": 32,
                "duration": 0.1886363636363626,
                "tempo": 120.0
            },
            {
                "start_time": 25.018181818181816,
                "end_time": 25.209090909090907,
                "pitch": 59,
                "velocity": 32,
                "duration": 0.19090909090909136,
                "tempo": 120.0
            },
            {
                "start_time": 25.224999999999998,
                "end_time": 25.43181818181818,
                "pitch": 57,
                "velocity": 32,
                "duration": 0.206818181818182,
                "tempo": 120.0
            },
            {
                "start_time": 25.44772727272727,
                "end_time": 25.63181818181818,
                "pitch": 58,
                "velocity": 32,
                "duration": 0.18409090909090864,
                "tempo": 120.0
            },
            {
                "start_time": 25.65,
                "end_time": 25.831818181818182,
                "pitch": 59,
                "velocity": 32,
                "duration": 0.18181818181818343,
                "tempo": 120.0
            },
            {
                "start_time": 25.849999999999998,
                "end_time": 26.045454545454543,
                "pitch": 57,
                "velocity": 32,
                "duration": 0.19545454545454533,
                "tempo": 120.0
            },
            {
                "start_time": 26.061363636363634,
                "end_time": 26.238636363636363,
                "pitch": 58,
                "velocity": 32,
                "duration": 0.17727272727272947,
                "tempo": 120.0
            },
            {
                "start_time": 26.25681818181818,
                "end_time": 26.34090909090909,
                "pitch": 56,
                "velocity": 32,
                "duration": 0.08409090909091077,
                "tempo": 120.0
            },
            {
                "start_time": 26.35909090909091,
                "end_time": 26.461363636363636,
                "pitch": 57,
                "velocity": 32,
                "duration": 0.10227272727272663,
                "tempo": 120.0
            },
            {
                "start_time": 26.479545454545452,
                "end_time": 26.56590909090909,
                "pitch": 58,
                "velocity": 32,
                "duration": 0.08636363636363953,
                "tempo": 120.0
            },
            {
                "start_time": 26.581818181818182,
                "end_time": 26.668181818181818,
                "pitch": 59,
                "velocity": 32,
                "duration": 0.08636363636363598,
                "tempo": 120.0
            },
            {
                "start_time": 26.68409090909091,
                "end_time": 26.868181818181817,
                "pitch": 57,
                "velocity": 32,
                "duration": 0.18409090909090864,
                "tempo": 120.0
            },
            {
                "start_time": 26.886363636363637,
                "end_time": 27.086363636363636,
                "pitch": 58,
                "velocity": 32,
                "duration": 0.1999999999999993,
                "tempo": 120.0
            },
            {
                "start_time": 27.102272727272727,
                "end_time": 27.29090909090909,
                "pitch": 59,
                "velocity": 32,
                "duration": 0.1886363636363626,
                "tempo": 120.0
            },
            {
                "start_time": 27.30909090909091,
                "end_time": 27.51590909090909,
                "pitch": 57,
                "velocity": 32,
                "duration": 0.206818181818182,
                "tempo": 120.0
            },
            {
                "start_time": 27.53181818181818,
                "end_time": 27.720454545454544,
                "pitch": 58,
                "velocity": 32,
                "duration": 0.1886363636363626,
                "tempo": 120.0
            },
            {
                "start_time": 27.738636363636363,
                "end_time": 27.927272727272726,
                "pitch": 59,
                "velocity": 32,
                "duration": 0.1886363636363626,
                "tempo": 120.0
            },
            {
                "start_time": 27.945454545454545,
                "end_time": 28.138636363636362,
                "pitch": 57,
                "velocity": 32,
                "duration": 0.19318181818181657,
                "tempo": 120.0
            },
            {
                "start_time": 28.15681818181818,
                "end_time": 28.334090909090907,
                "pitch": 58,
                "velocity": 32,
                "duration": 0.17727272727272592,
                "tempo": 120.0
            },
            {
                "start_time": 28.352272727272727,
                "end_time": 28.534090909090907,
                "pitch": 59,
                "velocity": 32,
                "duration": 0.18181818181817988,
                "tempo": 120.0
            },
            {
                "start_time": 28.568181818181817,
                "end_time": 28.752272727272725,
                "pitch": 57,
                "velocity": 32,
                "duration": 0.18409090909090864,
                "tempo": 120.0
            },
            {
                "start_time": 28.768181818181816,
                "end_time": 28.956818181818182,
                "pitch": 58,
                "velocity": 32,
                "duration": 0.18863636363636616,
                "tempo": 120.0
            },
            {
                "start_time": 28.974999999999998,
                "end_time": 29.18181818181818,
                "pitch": 59,
                "velocity": 32,
                "duration": 0.206818181818182,
                "tempo": 120.0
            },
            {
                "start_time": 29.19772727272727,
                "end_time": 29.386363636363637,
                "pitch": 57,
                "velocity": 32,
                "duration": 0.18863636363636616,
                "tempo": 120.0
            },
            {
                "start_time": 29.404545454545453,
                "end_time": 29.593181818181815,
                "pitch": 58,
                "velocity": 32,
                "duration": 0.1886363636363626,
                "tempo": 120.0
            },
            {
                "start_time": 29.611363636363635,
                "end_time": 29.709090909090907,
                "pitch": 56,
                "velocity": 32,
                "duration": 0.09772727272727266,
                "tempo": 120.0
            },
            {
                "start_time": 29.724999999999998,
                "end_time": 29.80681818181818,
                "pitch": 57,
                "velocity": 32,
                "duration": 0.08181818181818201,
                "tempo": 120.0
            },
            {
                "start_time": 29.82272727272727,
                "end_time": 29.904545454545453,
                "pitch": 58,
                "velocity": 32,
                "duration": 0.08181818181818201,
                "tempo": 120.0
            },
            {
                "start_time": 29.922727272727272,
                "end_time": 30.004545454545454,
                "pitch": 59,
                "velocity": 32,
                "duration": 0.08181818181818201,
                "tempo": 120.0
            },
            {
                "start_time": 30.020454545454545,
                "end_time": 30.229545454545452,
                "pitch": 57,
                "velocity": 32,
                "duration": 0.20909090909090722,
                "tempo": 120.0
            },
            {
                "start_time": 30.24772727272727,
                "end_time": 30.440909090909088,
                "pitch": 58,
                "velocity": 32,
                "duration": 0.19318181818181657,
                "tempo": 120.0
            },
            {
                "start_time": 30.456818181818182,
                "end_time": 30.64090909090909,
                "pitch": 59,
                "velocity": 32,
                "duration": 0.18409090909090864,
                "tempo": 120.0
            },
            {
                "start_time": 30.659090909090907,
                "end_time": 30.85909090909091,
                "pitch": 57,
                "velocity": 32,
                "duration": 0.20000000000000284,
                "tempo": 120.0
            },
            {
                "start_time": 30.875,
                "end_time": 31.05909090909091,
                "pitch": 58,
                "velocity": 32,
                "duration": 0.18409090909090864,
                "tempo": 120.0
            },
            {
                "start_time": 31.077272727272724,
                "end_time": 31.277272727272727,
                "pitch": 59,
                "velocity": 32,
                "duration": 0.20000000000000284,
                "tempo": 120.0
            },
            {
                "start_time": 31.293181818181818,
                "end_time": 31.48181818181818,
                "pitch": 57,
                "velocity": 32,
                "duration": 0.1886363636363626,
                "tempo": 120.0
            },
            {
                "start_time": 31.5,
                "end_time": 31.688636363636363,
                "pitch": 58,
                "velocity": 32,
                "duration": 0.1886363636363626,
                "tempo": 120.0
            },
            {
                "start_time": 31.704545454545453,
                "end_time": 31.902272727272727,
                "pitch": 59,
                "velocity": 32,
                "duration": 0.19772727272727408,
                "tempo": 120.0
            },
            {
                "start_time": 31.918181818181818,
                "end_time": 32.09772727272727,
                "pitch": 57,
                "velocity": 32,
                "duration": 0.17954545454545112,
                "tempo": 120.0
            },
            {
                "start_time": 32.11590909090909,
                "end_time": 32.304545454545455,
                "pitch": 58,
                "velocity": 32,
                "duration": 0.1886363636363626,
                "tempo": 120.0
            },
            {
                "start_time": 32.320454545454545,
                "end_time": 32.527272727272724,
                "pitch": 59,
                "velocity": 32,
                "duration": 0.20681818181817846,
                "tempo": 120.0
            },
            {
                "start_time": 32.543181818181814,
                "end_time": 32.72727272727273,
                "pitch": 57,
                "velocity": 32,
                "duration": 0.1840909090909122,
                "tempo": 120.0
            },
            {
                "start_time": 32.74545454545454,
                "end_time": 32.945454545454545,
                "pitch": 58,
                "velocity": 32,
                "duration": 0.20000000000000284,
                "tempo": 120.0
            },
            {
                "start_time": 32.961363636363636,
                "end_time": 33.04772727272727,
                "pitch": 56,
                "velocity": 32,
                "duration": 0.08636363636363598,
                "tempo": 120.0
            },
            {
                "start_time": 33.06363636363636,
                "end_time": 33.15,
                "pitch": 57,
                "velocity": 32,
                "duration": 0.08636363636363598,
                "tempo": 120.0
            },
            {
                "start_time": 33.168181818181814,
                "end_time": 33.25454545454545,
                "pitch": 58,
                "velocity": 32,
                "duration": 0.08636363636363598,
                "tempo": 120.0
            },
            {
                "start_time": 33.27045454545454,
                "end_time": 33.35681818181818,
                "pitch": 59,
                "velocity": 32,
                "duration": 0.08636363636363598,
                "tempo": 120.0
            },
            {
                "start_time": 33.39090909090909,
                "end_time": 33.574999999999996,
                "pitch": 47,
                "velocity": 32,
                "duration": 0.18409090909090509,
                "tempo": 120.0
            },
            {
                "start_time": 33.590909090909086,
                "end_time": 33.775,
                "pitch": 47,
                "velocity": 32,
                "duration": 0.1840909090909122,
                "tempo": 120.0
            },
            {
                "start_time": 33.79090909090909,
                "end_time": 33.99772727272727,
                "pitch": 47,
                "velocity": 32,
                "duration": 0.20681818181817846,
                "tempo": 120.0
            },
            {
                "start_time": 34.013636363636365,
                "end_time": 34.20454545454545,
                "pitch": 47,
                "velocity": 32,
                "duration": 0.1909090909090878,
                "tempo": 120.0
            },
            {
                "start_time": 34.220454545454544,
                "end_time": 34.404545454545456,
                "pitch": 47,
                "velocity": 32,
                "duration": 0.1840909090909122,
                "tempo": 120.0
            },
            {
                "start_time": 34.42272727272727,
                "end_time": 34.62272727272727,
                "pitch": 47,
                "velocity": 32,
                "duration": 0.19999999999999574,
                "tempo": 120.0
            },
            {
                "start_time": 34.638636363636365,
                "end_time": 34.82727272727273,
                "pitch": 47,
                "velocity": 32,
                "duration": 0.1886363636363626,
                "tempo": 120.0
            },
            {
                "start_time": 34.845454545454544,
                "end_time": 35.03409090909091,
                "pitch": 47,
                "velocity": 32,
                "duration": 0.1886363636363626,
                "tempo": 120.0
            },
            {
                "start_time": 35.06818181818181,
                "end_time": 35.252272727272725,
                "pitch": 47,
                "velocity": 32,
                "duration": 0.1840909090909122,
                "tempo": 120.0
            },
            {
                "start_time": 35.268181818181816,
                "end_time": 35.45227272727273,
                "pitch": 47,
                "velocity": 32,
                "duration": 0.1840909090909122,
                "tempo": 120.0
            },
            {
                "start_time": 35.46818181818182,
                "end_time": 35.67045454545455,
                "pitch": 47,
                "velocity": 32,
                "duration": 0.20227272727272805,
                "tempo": 120.0
            },
            {
                "start_time": 35.68636363636364,
                "end_time": 35.87045454545454,
                "pitch": 47,
                "velocity": 32,
                "duration": 0.18409090909090509,
                "tempo": 120.0
            },
            {
                "start_time": 35.88636363636363,
                "end_time": 36.070454545454545,
                "pitch": 47,
                "velocity": 32,
                "duration": 0.1840909090909122,
                "tempo": 120.0
            },
            {
                "start_time": 36.086363636363636,
                "end_time": 36.288636363636364,
                "pitch": 47,
                "velocity": 32,
                "duration": 0.20227272727272805,
                "tempo": 120.0
            },
            {
                "start_time": 36.304545454545455,
                "end_time": 36.48863636363636,
                "pitch": 45,
                "velocity": 32,
                "duration": 0.18409090909090509,
                "tempo": 120.0
            },
            {
                "start_time": 36.50454545454545,
                "end_time": 36.70454545454545,
                "pitch": 46,
                "velocity": 32,
                "duration": 0.20000000000000284,
                "tempo": 120.0
            },
            {
                "start_time": 36.72272727272727,
                "end_time": 36.91136363636363,
                "pitch": 47,
                "velocity": 32,
                "duration": 0.1886363636363626,
                "tempo": 120.0
            },
            {
                "start_time": 36.92727272727272,
                "end_time": 37.11590909090909,
                "pitch": 47,
                "velocity": 32,
                "duration": 0.1886363636363697,
                "tempo": 120.0
            },
            {
                "start_time": 37.13409090909091,
                "end_time": 37.33409090909091,
                "pitch": 47,
                "velocity": 32,
                "duration": 0.20000000000000284,
                "tempo": 120.0
            },
            {
                "start_time": 37.35227272727273,
                "end_time": 37.53636363636363,
                "pitch": 47,
                "velocity": 32,
                "duration": 0.18409090909090509,
                "tempo": 120.0
            },
            {
                "start_time": 37.55227272727272,
                "end_time": 37.752272727272725,
                "pitch": 47,
                "velocity": 32,
                "duration": 0.20000000000000284,
                "tempo": 120.0
            },
            {
                "start_time": 37.77045454545454,
                "end_time": 37.95227272727273,
                "pitch": 47,
                "velocity": 32,
                "duration": 0.18181818181818699,
                "tempo": 120.0
            },
            {
                "start_time": 37.970454545454544,
                "end_time": 38.15909090909091,
                "pitch": 47,
                "velocity": 32,
                "duration": 0.1886363636363626,
                "tempo": 120.0
            },
            {
                "start_time": 38.175,
                "end_time": 38.38181818181818,
                "pitch": 47,
                "velocity": 32,
                "duration": 0.20681818181818556,
                "tempo": 120.0
            },
            {
                "start_time": 38.4,
                "end_time": 38.58181818181818,
                "pitch": 47,
                "velocity": 32,
                "duration": 0.18181818181817988,
                "tempo": 120.0
            },
            {
                "start_time": 38.6,
                "end_time": 38.78409090909091,
                "pitch": 47,
                "velocity": 32,
                "duration": 0.18409090909090509,
                "tempo": 120.0
            },
            {
                "start_time": 38.8,
                "end_time": 39.0,
                "pitch": 47,
                "velocity": 32,
                "duration": 0.20000000000000284,
                "tempo": 120.0
            },
            {
                "start_time": 39.018181818181816,
                "end_time": 39.199999999999996,
                "pitch": 47,
                "velocity": 32,
                "duration": 0.18181818181817988,
                "tempo": 120.0
            },
            {
                "start_time": 39.21818181818182,
                "end_time": 39.418181818181814,
                "pitch": 47,
                "velocity": 32,
                "duration": 0.19999999999999574,
                "tempo": 120.0
            },
            {
                "start_time": 39.434090909090905,
                "end_time": 39.61818181818182,
                "pitch": 44,
                "velocity": 32,
                "duration": 0.1840909090909122,
                "tempo": 120.0
            },
            {
                "start_time": 39.63636363636363,
                "end_time": 39.81818181818181,
                "pitch": 45,
                "velocity": 32,
                "duration": 0.18181818181817988,
                "tempo": 120.0
            },
            {
                "start_time": 39.836363636363636,
                "end_time": 40.03636363636363,
                "pitch": 46,
                "velocity": 32,
                "duration": 0.19999999999999574,
                "tempo": 120.0
            },
            {
                "start_time": 40.05227272727272,
                "end_time": 40.24545454545454,
                "pitch": 47,
                "velocity": 32,
                "duration": 0.19318181818182012,
                "tempo": 120.0
            },
            {
                "start_time": 40.26363636363636,
                "end_time": 40.47272727272727,
                "pitch": 47,
                "velocity": 32,
                "duration": 0.20909090909091077,
                "tempo": 120.0
            },
            {
                "start_time": 40.49090909090909,
                "end_time": 40.675,
                "pitch": 47,
                "velocity": 32,
                "duration": 0.18409090909090509,
                "tempo": 120.0
            },
            {
                "start_time": 40.69090909090909,
                "end_time": 40.875,
                "pitch": 47,
                "velocity": 32,
                "duration": 0.1840909090909122,
                "tempo": 120.0
            },
            {
                "start_time": 40.893181818181816,
                "end_time": 41.08863636363636,
                "pitch": 47,
                "velocity": 32,
                "duration": 0.19545454545454533,
                "tempo": 120.0
            },
            {
                "start_time": 41.10454545454545,
                "end_time": 41.28181818181818,
                "pitch": 47,
                "velocity": 32,
                "duration": 0.17727272727272947,
                "tempo": 120.0
            },
            {
                "start_time": 41.3,
                "end_time": 41.486363636363635,
                "pitch": 47,
                "velocity": 32,
                "duration": 0.1863636363636374,
                "tempo": 120.0
            },
            {
                "start_time": 41.52272727272727,
                "end_time": 41.711363636363636,
                "pitch": 47,
                "velocity": 32,
                "duration": 0.1886363636363626,
                "tempo": 120.0
            },
            {
                "start_time": 41.72727272727273,
                "end_time": 41.91136363636363,
                "pitch": 47,
                "velocity": 32,
                "duration": 0.18409090909090509,
                "tempo": 120.0
            },
            {
                "start_time": 41.929545454545455,
                "end_time": 42.12954545454545,
                "pitch": 47,
                "velocity": 32,
                "duration": 0.19999999999999574,
                "tempo": 120.0
            },
            {
                "start_time": 42.14545454545454,
                "end_time": 42.334090909090904,
                "pitch": 47,
                "velocity": 32,
                "duration": 0.1886363636363626,
                "tempo": 120.0
            },
            {
                "start_time": 42.35227272727273,
                "end_time": 42.54090909090909,
                "pitch": 47,
                "velocity": 32,
                "duration": 0.1886363636363626,
                "tempo": 120.0
            },
            {
                "start_time": 42.55681818181818,
                "end_time": 42.752272727272725,
                "pitch": 47,
                "velocity": 32,
                "duration": 0.19545454545454533,
                "tempo": 120.0
            },
            {
                "start_time": 42.77045454545454,
                "end_time": 42.94772727272727,
                "pitch": 47,
                "velocity": 32,
                "duration": 0.17727272727272947,
                "tempo": 120.0
            },
            {
                "start_time": 42.96363636363636,
                "end_time": 43.16590909090909,
                "pitch": 45,
                "velocity": 32,
                "duration": 0.20227272727272805,
                "tempo": 120.0
            },
            {
                "start_time": 43.18181818181818,
                "end_time": 43.36590909090909,
                "pitch": 46,
                "velocity": 32,
                "duration": 0.1840909090909122,
                "tempo": 120.0
            },
            {
                "start_time": 43.38181818181818,
                "end_time": 43.570454545454545,
                "pitch": 47,
                "velocity": 32,
                "duration": 0.1886363636363626,
                "tempo": 120.0
            },
            {
                "start_time": 43.58863636363636,
                "end_time": 43.79545454545455,
                "pitch": 47,
                "velocity": 32,
                "duration": 0.20681818181818556,
                "tempo": 120.0
            },
            {
                "start_time": 43.81136363636364,
                "end_time": 44.0,
                "pitch": 47,
                "velocity": 32,
                "duration": 0.1886363636363626,
                "tempo": 120.0
            },
            {
                "start_time": 44.018181818181816,
                "end_time": 44.22272727272727,
                "pitch": 47,
                "velocity": 32,
                "duration": 0.20454545454545325,
                "tempo": 120.0
            },
            {
                "start_time": 44.24090909090909,
                "end_time": 44.429545454545455,
                "pitch": 47,
                "velocity": 32,
                "duration": 0.1886363636363626,
                "tempo": 120.0
            },
            {
                "start_time": 44.44772727272727,
                "end_time": 44.63636363636363,
                "pitch": 47,
                "velocity": 32,
                "duration": 0.1886363636363626,
                "tempo": 120.0
            },
            {
                "start_time": 44.652272727272724,
                "end_time": 44.849999999999994,
                "pitch": 47,
                "velocity": 32,
                "duration": 0.19772727272727053,
                "tempo": 120.0
            },
            {
                "start_time": 44.86590909090909,
                "end_time": 45.043181818181814,
                "pitch": 47,
                "velocity": 32,
                "duration": 0.17727272727272236,
                "tempo": 120.0
            },
            {
                "start_time": 45.06136363636364,
                "end_time": 45.24318181818182,
                "pitch": 47,
                "velocity": 32,
                "duration": 0.18181818181817988,
                "tempo": 120.0
            },
            {
                "start_time": 45.26136363636363,
                "end_time": 45.461363636363636,
                "pitch": 47,
                "velocity": 32,
                "duration": 0.20000000000000284,
                "tempo": 120.0
            },
            {
                "start_time": 45.47727272727273,
                "end_time": 45.66590909090909,
                "pitch": 47,
                "velocity": 32,
                "duration": 0.1886363636363626,
                "tempo": 120.0
            },
            {
                "start_time": 45.684090909090905,
                "end_time": 45.89090909090909,
                "pitch": 47,
                "velocity": 32,
                "duration": 0.20681818181818556,
                "tempo": 120.0
            },
            {
                "start_time": 45.90681818181818,
                "end_time": 46.090909090909086,
                "pitch": 47,
                "velocity": 32,
                "duration": 0.18409090909090509,
                "tempo": 120.0
            },
            {
                "start_time": 46.10681818181818,
                "end_time": 46.29090909090909,
                "pitch": 44,
                "velocity": 32,
                "duration": 0.1840909090909122,
                "tempo": 120.0
            },
            {
                "start_time": 46.309090909090905,
                "end_time": 46.50454545454545,
                "pitch": 45,
                "velocity": 32,
                "duration": 0.19545454545454533,
                "tempo": 120.0
            },
            {
                "start_time": 46.52045454545454,
                "end_time": 46.69772727272727,
                "pitch": 46,
                "velocity": 32,
                "duration": 0.17727272727272947,
                "tempo": 120.0
            },
            {
                "start_time": 46.73181818181818,
                "end_time": 48.375,
                "pitch": 62,
                "velocity": 32,
                "duration": 1.643181818181823,
                "tempo": 120.0
            },
            {
                "start_time": 48.39090909090909,
                "end_time": 50.04090909090909,
                "pitch": 66,
                "velocity": 32,
                "duration": 1.6499999999999986,
                "tempo": 120.0
            },
            {
                "start_time": 50.05681818181818,
                "end_time": 51.70681818181818,
                "pitch": 67,
                "velocity": 32,
                "duration": 1.6499999999999986,
                "tempo": 120.0
            },
            {
                "start_time": 51.72272727272727,
                "end_time": 52.340909090909086,
                "pitch": 70,
                "velocity": 32,
                "duration": 0.6181818181818173,
                "tempo": 120.0
            },
            {
                "start_time": 52.35681818181818,
                "end_time": 53.4,
                "pitch": 70,
                "velocity": 32,
                "duration": 1.0431818181818215,
                "tempo": 120.0
            },
            {
                "start_time": 53.41590909090909,
                "end_time": 55.06818181818181,
                "pitch": 74,
                "velocity": 32,
                "duration": 1.6522727272727238,
                "tempo": 120.0
            },
            {
                "start_time": 55.086363636363636,
                "end_time": 56.736363636363635,
                "pitch": 66,
                "velocity": 32,
                "duration": 1.6499999999999986,
                "tempo": 120.0
            },
            {
                "start_time": 56.752272727272725,
                "end_time": 57.97272727272727,
                "pitch": 70,
                "velocity": 32,
                "duration": 1.220454545454544,
                "tempo": 120.0
            },
            {
                "start_time": 57.98863636363636,
                "end_time": 58.402272727272724,
                "pitch": 73,
                "velocity": 32,
                "duration": 0.413636363636364,
                "tempo": 120.0
            },
            {
                "start_time": 58.418181818181814,
                "end_time": 59.445454545454545,
                "pitch": 74,
                "velocity": 32,
                "duration": 1.027272727272731,
                "tempo": 120.0
            },
            {
                "start_time": 59.461363636363636,
                "end_time": 59.63863636363636,
                "pitch": 74,
                "velocity": 32,
                "duration": 0.17727272727272236,
                "tempo": 120.0
            },
            {
                "start_time": 59.65681818181818,
                "end_time": 59.861363636363635,
                "pitch": 73,
                "velocity": 32,
                "duration": 0.20454545454545325,
                "tempo": 120.0
            },
            {
                "start_time": 59.87954545454545,
                "end_time": 60.06818181818181,
                "pitch": 73,
                "velocity": 32,
                "duration": 0.1886363636363626,
                "tempo": 120.0
            },
            {
                "start_time": 60.10227272727273,
                "end_time": 60.272727272727266,
                "pitch": 47,
                "velocity": 32,
                "duration": 0.17045454545453964,
                "tempo": 120.0
            }
        ],
        "Synth Bass 1": [
            {
                "start_time": 0.031818181818181815,
                "end_time": 0.04772727272727272,
                "pitch": 81,
                "velocity": 51,
                "duration": 0.015909090909090907,
                "tempo": 120.0
            },
            {
                "start_time": 0.0659090909090909,
                "end_time": 0.19545454545454544,
                "pitch": 47,
                "velocity": 51,
                "duration": 0.12954545454545452,
                "tempo": 120.0
            },
            {
                "start_time": 0.19545454545454544,
                "end_time": 0.24318181818181817,
                "pitch": 47,
                "velocity": 51,
                "duration": 0.04772727272727273,
                "tempo": 120.0
            },
            {
                "start_time": 0.2590909090909091,
                "end_time": 0.44090909090909086,
                "pitch": 47,
                "velocity": 51,
                "duration": 0.18181818181818177,
                "tempo": 120.0
            },
            {
                "start_time": 0.4568181818181818,
                "end_time": 0.6568181818181817,
                "pitch": 47,
                "velocity": 51,
                "duration": 0.19999999999999996,
                "tempo": 120.0
            },
            {
                "start_time": 0.6749999999999999,
                "end_time": 0.859090909090909,
                "pitch": 47,
                "velocity": 51,
                "duration": 0.18409090909090908,
                "tempo": 120.0
            },
            {
                "start_time": 0.875,
                "end_time": 1.0818181818181818,
                "pitch": 47,
                "velocity": 51,
                "duration": 0.2068181818181818,
                "tempo": 120.0
            },
            {
                "start_time": 1.0999999999999999,
                "end_time": 1.2886363636363636,
                "pitch": 47,
                "velocity": 51,
                "duration": 0.1886363636363637,
                "tempo": 120.0
            },
            {
                "start_time": 1.3045454545454545,
                "end_time": 1.4954545454545454,
                "pitch": 47,
                "velocity": 51,
                "duration": 0.19090909090909092,
                "tempo": 120.0
            },
            {
                "start_time": 1.5113636363636362,
                "end_time": 1.7159090909090908,
                "pitch": 47,
                "velocity": 51,
                "duration": 0.20454545454545459,
                "tempo": 120.0
            },
            {
                "start_time": 1.734090909090909,
                "end_time": 1.9159090909090908,
                "pitch": 47,
                "velocity": 51,
                "duration": 0.18181818181818188,
                "tempo": 120.0
            },
            {
                "start_time": 1.934090909090909,
                "end_time": 2.1159090909090907,
                "pitch": 47,
                "velocity": 51,
                "duration": 0.18181818181818166,
                "tempo": 120.0
            },
            {
                "start_time": 2.134090909090909,
                "end_time": 2.3295454545454546,
                "pitch": 47,
                "velocity": 51,
                "duration": 0.19545454545454577,
                "tempo": 120.0
            },
            {
                "start_time": 2.3454545454545452,
                "end_time": 2.5272727272727273,
                "pitch": 47,
                "velocity": 51,
                "duration": 0.1818181818181821,
                "tempo": 120.0
            },
            {
                "start_time": 2.5454545454545454,
                "end_time": 2.75,
                "pitch": 47,
                "velocity": 51,
                "duration": 0.20454545454545459,
                "tempo": 120.0
            },
            {
                "start_time": 2.768181818181818,
                "end_time": 2.9568181818181816,
                "pitch": 47,
                "velocity": 51,
                "duration": 0.1886363636363635,
                "tempo": 120.0
            },
            {
                "start_time": 2.9727272727272727,
                "end_time": 3.1568181818181817,
                "pitch": 45,
                "velocity": 51,
                "duration": 0.18409090909090908,
                "tempo": 120.0
            },
            {
                "start_time": 3.1727272727272724,
                "end_time": 3.375,
                "pitch": 46,
                "velocity": 51,
                "duration": 0.2022727272727276,
                "tempo": 120.0
            },
            {
                "start_time": 3.3909090909090907,
                "end_time": 3.5818181818181816,
                "pitch": 47,
                "velocity": 51,
                "duration": 0.19090909090909092,
                "tempo": 120.0
            },
            {
                "start_time": 3.5977272727272727,
                "end_time": 3.8,
                "pitch": 47,
                "velocity": 51,
                "duration": 0.20227272727272716,
                "tempo": 120.0
            },
            {
                "start_time": 3.818181818181818,
                "end_time": 3.995454545454545,
                "pitch": 47,
                "velocity": 51,
                "duration": 0.17727272727272725,
                "tempo": 120.0
            },
            {
                "start_time": 4.011363636363636,
                "end_time": 4.193181818181818,
                "pitch": 47,
                "velocity": 51,
                "duration": 0.18181818181818254,
                "tempo": 120.0
            },
            {
                "start_time": 4.211363636363636,
                "end_time": 4.415909090909091,
                "pitch": 47,
                "velocity": 51,
                "duration": 0.20454545454545503,
                "tempo": 120.0
            },
            {
                "start_time": 4.434090909090909,
                "end_time": 4.622727272727272,
                "pitch": 47,
                "velocity": 51,
                "duration": 0.1886363636363635,
                "tempo": 120.0
            },
            {
                "start_time": 4.640909090909091,
                "end_time": 4.829545454545454,
                "pitch": 47,
                "velocity": 51,
                "duration": 0.1886363636363635,
                "tempo": 120.0
            },
            {
                "start_time": 4.863636363636363,
                "end_time": 5.05,
                "pitch": 47,
                "velocity": 51,
                "duration": 0.1863636363636365,
                "tempo": 120.0
            },
            {
                "start_time": 5.068181818181818,
                "end_time": 5.252272727272727,
                "pitch": 47,
                "velocity": 51,
                "duration": 0.18409090909090864,
                "tempo": 120.0
            },
            {
                "start_time": 5.268181818181818,
                "end_time": 5.470454545454545,
                "pitch": 47,
                "velocity": 51,
                "duration": 0.20227272727272716,
                "tempo": 120.0
            },
            {
                "start_time": 5.486363636363636,
                "end_time": 5.675,
                "pitch": 47,
                "velocity": 51,
                "duration": 0.1886363636363635,
                "tempo": 120.0
            },
            {
                "start_time": 5.693181818181818,
                "end_time": 5.879545454545454,
                "pitch": 47,
                "velocity": 51,
                "duration": 0.18636363636363562,
                "tempo": 120.0
            },
            {
                "start_time": 5.8977272727272725,
                "end_time": 6.093181818181818,
                "pitch": 47,
                "velocity": 51,
                "duration": 0.19545454545454533,
                "tempo": 120.0
            },
            {
                "start_time": 6.1090909090909085,
                "end_time": 6.290909090909091,
                "pitch": 44,
                "velocity": 51,
                "duration": 0.18181818181818254,
                "tempo": 120.0
            },
            {
                "start_time": 6.306818181818182,
                "end_time": 6.506818181818182,
                "pitch": 45,
                "velocity": 51,
                "duration": 0.20000000000000018,
                "tempo": 120.0
            },
            {
                "start_time": 6.5249999999999995,
                "end_time": 6.709090909090909,
                "pitch": 46,
                "velocity": 51,
                "duration": 0.18409090909090953,
                "tempo": 120.0
            },
            {
                "start_time": 6.727272727272727,
                "end_time": 6.915909090909091,
                "pitch": 47,
                "velocity": 51,
                "duration": 0.18863636363636438,
                "tempo": 120.0
            },
            {
                "start_time": 6.931818181818182,
                "end_time": 7.138636363636364,
                "pitch": 47,
                "velocity": 51,
                "duration": 0.206818181818182,
                "tempo": 120.0
            },
            {
                "start_time": 7.156818181818181,
                "end_time": 7.345454545454545,
                "pitch": 47,
                "velocity": 51,
                "duration": 0.1886363636363635,
                "tempo": 120.0
            },
            {
                "start_time": 7.361363636363636,
                "end_time": 7.5659090909090905,
                "pitch": 47,
                "velocity": 51,
                "duration": 0.20454545454545414,
                "tempo": 120.0
            },
            {
                "start_time": 7.581818181818181,
                "end_time": 7.759090909090909,
                "pitch": 47,
                "velocity": 51,
                "duration": 0.1772727272727277,
                "tempo": 120.0
            },
            {
                "start_time": 7.777272727272727,
                "end_time": 7.956818181818181,
                "pitch": 47,
                "velocity": 51,
                "duration": 0.1795454545454538,
                "tempo": 120.0
            },
            {
                "start_time": 7.975,
                "end_time": 8.179545454545455,
                "pitch": 47,
                "velocity": 51,
                "duration": 0.20454545454545503,
                "tempo": 120.0
            },
            {
                "start_time": 8.197727272727272,
                "end_time": 8.386363636363637,
                "pitch": 47,
                "velocity": 51,
                "duration": 0.18863636363636438,
                "tempo": 120.0
            },
            {
                "start_time": 8.402272727272727,
                "end_time": 8.586363636363636,
                "pitch": 47,
                "velocity": 51,
                "duration": 0.18409090909090864,
                "tempo": 120.0
            },
            {
                "start_time": 8.602272727272727,
                "end_time": 8.804545454545455,
                "pitch": 47,
                "velocity": 51,
                "duration": 0.20227272727272805,
                "tempo": 120.0
            },
            {
                "start_time": 8.820454545454545,
                "end_time": 9.011363636363637,
                "pitch": 47,
                "velocity": 51,
                "duration": 0.19090909090909136,
                "tempo": 120.0
            },
            {
                "start_time": 9.027272727272727,
                "end_time": 9.23181818181818,
                "pitch": 47,
                "velocity": 51,
                "duration": 0.20454545454545325,
                "tempo": 120.0
            },
            {
                "start_time": 9.25,
                "end_time": 9.431818181818182,
                "pitch": 47,
                "velocity": 51,
                "duration": 0.18181818181818166,
                "tempo": 120.0
            },
            {
                "start_time": 9.45,
                "end_time": 9.631818181818181,
                "pitch": 47,
                "velocity": 51,
                "duration": 0.18181818181818166,
                "tempo": 120.0
            },
            {
                "start_time": 9.647727272727272,
                "end_time": 9.845454545454546,
                "pitch": 45,
                "velocity": 51,
                "duration": 0.19772727272727408,
                "tempo": 120.0
            },
            {
                "start_time": 9.861363636363636,
                "end_time": 10.043181818181818,
                "pitch": 46,
                "velocity": 51,
                "duration": 0.18181818181818166,
                "tempo": 120.0
            },
            {
                "start_time": 10.061363636363636,
                "end_time": 10.26590909090909,
                "pitch": 47,
                "velocity": 51,
                "duration": 0.20454545454545503,
                "tempo": 120.0
            },
            {
                "start_time": 10.284090909090908,
                "end_time": 10.472727272727273,
                "pitch": 47,
                "velocity": 51,
                "duration": 0.18863636363636438,
                "tempo": 120.0
            },
            {
                "start_time": 10.49090909090909,
                "end_time": 10.679545454545455,
                "pitch": 47,
                "velocity": 51,
                "duration": 0.18863636363636438,
                "tempo": 120.0
            },
            {
                "start_time": 10.695454545454545,
                "end_time": 10.902272727272727,
                "pitch": 47,
                "velocity": 51,
                "duration": 0.206818181818182,
                "tempo": 120.0
            },
            {
                "start_time": 10.918181818181818,
                "end_time": 11.102272727272727,
                "pitch": 47,
                "velocity": 51,
                "duration": 0.18409090909090864,
                "tempo": 120.0
            },
            {
                "start_time": 11.118181818181817,
                "end_time": 11.302272727272726,
                "pitch": 47,
                "velocity": 51,
                "duration": 0.18409090909090864,
                "tempo": 120.0
            },
            {
                "start_time": 11.336363636363636,
                "end_time": 11.520454545454545,
                "pitch": 47,
                "velocity": 51,
                "duration": 0.18409090909090864,
                "tempo": 120.0
            },
            {
                "start_time": 11.536363636363635,
                "end_time": 11.720454545454546,
                "pitch": 47,
                "velocity": 51,
                "duration": 0.18409090909091042,
                "tempo": 120.0
            },
            {
                "start_time": 11.736363636363636,
                "end_time": 11.936363636363636,
                "pitch": 47,
                "velocity": 51,
                "duration": 0.1999999999999993,
                "tempo": 120.0
            },
            {
                "start_time": 11.954545454545453,
                "end_time": 12.138636363636364,
                "pitch": 47,
                "velocity": 51,
                "duration": 0.18409090909091042,
                "tempo": 120.0
            },
            {
                "start_time": 12.156818181818181,
                "end_time": 12.345454545454546,
                "pitch": 47,
                "velocity": 51,
                "duration": 0.18863636363636438,
                "tempo": 120.0
            },
            {
                "start_time": 12.361363636363636,
                "end_time": 12.56590909090909,
                "pitch": 47,
                "velocity": 51,
                "duration": 0.20454545454545325,
                "tempo": 120.0
            },
            {
                "start_time": 12.584090909090909,
                "end_time": 12.768181818181818,
                "pitch": 47,
                "velocity": 51,
                "duration": 0.18409090909090864,
                "tempo": 120.0
            },
            {
                "start_time": 12.784090909090908,
                "end_time": 12.98181818181818,
                "pitch": 44,
                "velocity": 51,
                "duration": 0.1977272727272723,
                "tempo": 120.0
            },
            {
                "start_time": 13.0,
                "end_time": 13.177272727272726,
                "pitch": 45,
                "velocity": 51,
                "duration": 0.17727272727272592,
                "tempo": 120.0
            },
            {
                "start_time": 13.193181818181818,
                "end_time": 13.375,
                "pitch": 46,
                "velocity": 51,
                "duration": 0.18181818181818166,
                "tempo": 120.0
            },
            {
                "start_time": 13.393181818181818,
                "end_time": 13.597727272727273,
                "pitch": 59,
                "velocity": 51,
                "duration": 0.20454545454545503,
                "tempo": 120.0
            },
            {
                "start_time": 13.61590909090909,
                "end_time": 13.804545454545455,
                "pitch": 59,
                "velocity": 51,
                "duration": 0.18863636363636438,
                "tempo": 120.0
            },
            {
                "start_time": 13.822727272727272,
                "end_time": 14.027272727272727,
                "pitch": 59,
                "velocity": 51,
                "duration": 0.20454545454545503,
                "tempo": 120.0
            },
            {
                "start_time": 14.045454545454545,
                "end_time": 14.234090909090908,
                "pitch": 59,
                "velocity": 51,
                "duration": 0.1886363636363626,
                "tempo": 120.0
            },
            {
                "start_time": 14.25,
                "end_time": 14.434090909090909,
                "pitch": 59,
                "velocity": 51,
                "duration": 0.18409090909090864,
                "tempo": 120.0
            },
            {
                "start_time": 14.45,
                "end_time": 14.652272727272727,
                "pitch": 59,
                "velocity": 51,
                "duration": 0.20227272727272805,
                "tempo": 120.0
            },
            {
                "start_time": 14.668181818181818,
                "end_time": 14.85681818181818,
                "pitch": 59,
                "velocity": 51,
                "duration": 0.1886363636363626,
                "tempo": 120.0
            },
            {
                "start_time": 14.875,
                "end_time": 15.061363636363636,
                "pitch": 59,
                "velocity": 51,
                "duration": 0.18636363636363562,
                "tempo": 120.0
            },
            {
                "start_time": 15.077272727272726,
                "end_time": 15.272727272727272,
                "pitch": 62,
                "velocity": 51,
                "duration": 0.19545454545454533,
                "tempo": 120.0
            },
            {
                "start_time": 15.288636363636362,
                "end_time": 15.470454545454544,
                "pitch": 62,
                "velocity": 51,
                "duration": 0.18181818181818166,
                "tempo": 120.0
            },
            {
                "start_time": 15.488636363636363,
                "end_time": 15.693181818181817,
                "pitch": 62,
                "velocity": 51,
                "duration": 0.20454545454545325,
                "tempo": 120.0
            },
            {
                "start_time": 15.711363636363636,
                "end_time": 15.897727272727272,
                "pitch": 62,
                "velocity": 51,
                "duration": 0.18636363636363562,
                "tempo": 120.0
            },
            {
                "start_time": 15.915909090909091,
                "end_time": 16.099999999999998,
                "pitch": 62,
                "velocity": 51,
                "duration": 0.18409090909090686,
                "tempo": 120.0
            },
            {
                "start_time": 16.11590909090909,
                "end_time": 16.318181818181817,
                "pitch": 62,
                "velocity": 51,
                "duration": 0.20227272727272805,
                "tempo": 120.0
            },
            {
                "start_time": 16.334090909090907,
                "end_time": 16.522727272727273,
                "pitch": 62,
                "velocity": 51,
                "duration": 0.18863636363636616,
                "tempo": 120.0
            },
            {
                "start_time": 16.54090909090909,
                "end_time": 16.743181818181817,
                "pitch": 62,
                "velocity": 51,
                "duration": 0.20227272727272805,
                "tempo": 120.0
            },
            {
                "start_time": 16.761363636363637,
                "end_time": 16.94090909090909,
                "pitch": 64,
                "velocity": 51,
                "duration": 0.17954545454545467,
                "tempo": 120.0
            },
            {
                "start_time": 16.956818181818182,
                "end_time": 17.138636363636362,
                "pitch": 64,
                "velocity": 51,
                "duration": 0.18181818181817988,
                "tempo": 120.0
            },
            {
                "start_time": 17.15681818181818,
                "end_time": 17.361363636363635,
                "pitch": 64,
                "velocity": 51,
                "duration": 0.20454545454545325,
                "tempo": 120.0
            },
            {
                "start_time": 17.379545454545454,
                "end_time": 17.56590909090909,
                "pitch": 64,
                "velocity": 51,
                "duration": 0.1863636363636374,
                "tempo": 120.0
            },
            {
                "start_time": 17.584090909090907,
                "end_time": 17.768181818181816,
                "pitch": 64,
                "velocity": 51,
                "duration": 0.18409090909090864,
                "tempo": 120.0
            },
            {
                "start_time": 17.8,
                "end_time": 17.986363636363635,
                "pitch": 64,
                "velocity": 51,
                "duration": 0.18636363636363384,
                "tempo": 120.0
            },
            {
                "start_time": 18.002272727272725,
                "end_time": 18.19090909090909,
                "pitch": 64,
                "velocity": 51,
                "duration": 0.18863636363636616,
                "tempo": 120.0
            },
            {
                "start_time": 18.209090909090907,
                "end_time": 18.413636363636364,
                "pitch": 64,
                "velocity": 51,
                "duration": 0.2045454545454568,
                "tempo": 120.0
            },
            {
                "start_time": 18.429545454545455,
                "end_time": 18.813636363636363,
                "pitch": 65,
                "velocity": 51,
                "duration": 0.38409090909090793,
                "tempo": 120.0
            },
            {
                "start_time": 18.829545454545453,
                "end_time": 19.025,
                "pitch": 65,
                "velocity": 51,
                "duration": 0.19545454545454533,
                "tempo": 120.0
            },
            {
                "start_time": 19.04090909090909,
                "end_time": 19.438636363636363,
                "pitch": 66,
                "velocity": 51,
                "duration": 0.3977272727272734,
                "tempo": 120.0
            },
            {
                "start_time": 19.454545454545453,
                "end_time": 19.64090909090909,
                "pitch": 66,
                "velocity": 51,
                "duration": 0.1863636363636374,
                "tempo": 120.0
            },
            {
                "start_time": 19.65681818181818,
                "end_time": 20.070454545454545,
                "pitch": 66,
                "velocity": 51,
                "duration": 0.413636363636364,
                "tempo": 120.0
            },
            {
                "start_time": 20.086363636363636,
                "end_time": 20.495454545454546,
                "pitch": 71,
                "velocity": 51,
                "duration": 0.40909090909091006,
                "tempo": 120.0
            },
            {
                "start_time": 20.511363636363637,
                "end_time": 20.69090909090909,
                "pitch": 71,
                "velocity": 51,
                "duration": 0.17954545454545467,
                "tempo": 120.0
            },
            {
                "start_time": 20.706818181818182,
                "end_time": 20.888636363636362,
                "pitch": 71,
                "velocity": 51,
                "duration": 0.18181818181817988,
                "tempo": 120.0
            },
            {
                "start_time": 20.904545454545453,
                "end_time": 21.104545454545452,
                "pitch": 71,
                "velocity": 51,
                "duration": 0.1999999999999993,
                "tempo": 120.0
            },
            {
                "start_time": 21.120454545454546,
                "end_time": 21.30681818181818,
                "pitch": 71,
                "velocity": 51,
                "duration": 0.18636363636363384,
                "tempo": 120.0
            },
            {
                "start_time": 21.325,
                "end_time": 21.513636363636362,
                "pitch": 71,
                "velocity": 51,
                "duration": 0.1886363636363626,
                "tempo": 120.0
            },
            {
                "start_time": 21.529545454545453,
                "end_time": 21.93409090909091,
                "pitch": 74,
                "velocity": 51,
                "duration": 0.4045454545454561,
                "tempo": 120.0
            },
            {
                "start_time": 21.952272727272724,
                "end_time": 22.35909090909091,
                "pitch": 74,
                "velocity": 51,
                "duration": 0.40681818181818485,
                "tempo": 120.0
            },
            {
                "start_time": 22.377272727272725,
                "end_time": 22.563636363636363,
                "pitch": 74,
                "velocity": 51,
                "duration": 0.1863636363636374,
                "tempo": 120.0
            },
            {
                "start_time": 22.579545454545453,
                "end_time": 22.777272727272727,
                "pitch": 74,
                "velocity": 51,
                "duration": 0.19772727272727408,
                "tempo": 120.0
            },
            {
                "start_time": 22.793181818181818,
                "end_time": 22.974999999999998,
                "pitch": 74,
                "velocity": 51,
                "duration": 0.18181818181817988,
                "tempo": 120.0
            },
            {
                "start_time": 22.993181818181817,
                "end_time": 23.404545454545453,
                "pitch": 74,
                "velocity": 51,
                "duration": 0.41136363636363527,
                "tempo": 120.0
            },
            {
                "start_time": 23.422727272727272,
                "end_time": 23.831818181818182,
                "pitch": 76,
                "velocity": 51,
                "duration": 0.40909090909091006,
                "tempo": 120.0
            },
            {
                "start_time": 23.849999999999998,
                "end_time": 24.03181818181818,
                "pitch": 76,
                "velocity": 51,
                "duration": 0.18181818181818343,
                "tempo": 120.0
            },
            {
                "start_time": 24.049999999999997,
                "end_time": 24.23181818181818,
                "pitch": 76,
                "velocity": 51,
                "duration": 0.18181818181818343,
                "tempo": 120.0
            },
            {
                "start_time": 24.263636363636362,
                "end_time": 24.443181818181817,
                "pitch": 76,
                "velocity": 51,
                "duration": 0.17954545454545467,
                "tempo": 120.0
            },
            {
                "start_time": 24.459090909090907,
                "end_time": 24.863636363636363,
                "pitch": 71,
                "velocity": 51,
                "duration": 0.4045454545454561,
                "tempo": 120.0
            },
            {
                "start_time": 24.88181818181818,
                "end_time": 25.070454545454545,
                "pitch": 71,
                "velocity": 51,
                "duration": 0.18863636363636616,
                "tempo": 120.0
            },
            {
                "start_time": 26.752272727272725,
                "end_time": 27.154545454545453,
                "pitch": 71,
                "velocity": 51,
                "duration": 0.40227272727272734,
                "tempo": 120.0
            },
            {
                "start_time": 27.170454545454543,
                "end_time": 27.361363636363635,
                "pitch": 71,
                "velocity": 51,
                "duration": 0.19090909090909136,
                "tempo": 120.0
            },
            {
                "start_time": 27.377272727272725,
                "end_time": 27.584090909090907,
                "pitch": 71,
                "velocity": 51,
                "duration": 0.206818181818182,
                "tempo": 120.0
            },
            {
                "start_time": 27.599999999999998,
                "end_time": 27.79090909090909,
                "pitch": 71,
                "velocity": 51,
                "duration": 0.19090909090909136,
                "tempo": 120.0
            },
            {
                "start_time": 27.80681818181818,
                "end_time": 27.993181818181817,
                "pitch": 66,
                "velocity": 51,
                "duration": 0.1863636363636374,
                "tempo": 120.0
            },
            {
                "start_time": 28.009090909090908,
                "end_time": 28.204545454545453,
                "pitch": 69,
                "velocity": 51,
                "duration": 0.19545454545454533,
                "tempo": 120.0
            },
            {
                "start_time": 28.220454545454544,
                "end_time": 28.618181818181817,
                "pitch": 71,
                "velocity": 51,
                "duration": 0.3977272727272734,
                "tempo": 120.0
            },
            {
                "start_time": 28.636363636363637,
                "end_time": 29.027272727272727,
                "pitch": 71,
                "velocity": 51,
                "duration": 0.39090909090909065,
                "tempo": 120.0
            },
            {
                "start_time": 29.043181818181818,
                "end_time": 29.25,
                "pitch": 71,
                "velocity": 51,
                "duration": 0.206818181818182,
                "tempo": 120.0
            },
            {
                "start_time": 29.268181818181816,
                "end_time": 29.677272727272726,
                "pitch": 66,
                "velocity": 51,
                "duration": 0.40909090909091006,
                "tempo": 120.0
            },
            {
                "start_time": 29.693181818181817,
                "end_time": 30.07272727272727,
                "pitch": 66,
                "velocity": 51,
                "duration": 0.37954545454545396,
                "tempo": 120.0
            },
            {
                "start_time": 30.08863636363636,
                "end_time": 30.509090909090908,
                "pitch": 64,
                "velocity": 51,
                "duration": 0.42045454545454675,
                "tempo": 120.0
            },
            {
                "start_time": 30.525,
                "end_time": 30.709090909090907,
                "pitch": 66,
                "velocity": 51,
                "duration": 0.18409090909090864,
                "tempo": 120.0
            },
            {
                "start_time": 30.74090909090909,
                "end_time": 30.924999999999997,
                "pitch": 64,
                "velocity": 51,
                "duration": 0.18409090909090864,
                "tempo": 120.0
            },
            {
                "start_time": 30.943181818181817,
                "end_time": 31.127272727272725,
                "pitch": 66,
                "velocity": 51,
                "duration": 0.18409090909090864,
                "tempo": 120.0
            },
            {
                "start_time": 31.143181818181816,
                "end_time": 31.549999999999997,
                "pitch": 62,
                "velocity": 51,
                "duration": 0.4068181818181813,
                "tempo": 120.0
            },
            {
                "start_time": 31.568181818181817,
                "end_time": 31.968181818181815,
                "pitch": 59,
                "velocity": 51,
                "duration": 0.3999999999999986,
                "tempo": 120.0
            },
            {
                "start_time": 31.984090909090906,
                "end_time": 32.16590909090909,
                "pitch": 59,
                "velocity": 51,
                "duration": 0.18181818181818343,
                "tempo": 120.0
            },
            {
                "start_time": 32.184090909090905,
                "end_time": 32.388636363636365,
                "pitch": 59,
                "velocity": 51,
                "duration": 0.20454545454546036,
                "tempo": 120.0
            },
            {
                "start_time": 32.40681818181818,
                "end_time": 32.59318181818182,
                "pitch": 59,
                "velocity": 51,
                "duration": 0.1863636363636374,
                "tempo": 120.0
            },
            {
                "start_time": 32.611363636363635,
                "end_time": 32.79545454545455,
                "pitch": 59,
                "velocity": 51,
                "duration": 0.1840909090909122,
                "tempo": 120.0
            },
            {
                "start_time": 32.81136363636364,
                "end_time": 33.013636363636365,
                "pitch": 59,
                "velocity": 51,
                "duration": 0.20227272727272805,
                "tempo": 120.0
            },
            {
                "start_time": 33.029545454545456,
                "end_time": 33.21818181818182,
                "pitch": 59,
                "velocity": 51,
                "duration": 0.1886363636363626,
                "tempo": 120.0
            },
            {
                "start_time": 33.236363636363635,
                "end_time": 33.44090909090909,
                "pitch": 59,
                "velocity": 51,
                "duration": 0.20454545454545325,
                "tempo": 120.0
            },
            {
                "start_time": 33.45681818181818,
                "end_time": 33.64090909090909,
                "pitch": 47,
                "velocity": 51,
                "duration": 0.1840909090909122,
                "tempo": 120.0
            },
            {
                "start_time": 33.65909090909091,
                "end_time": 33.84318181818182,
                "pitch": 47,
                "velocity": 51,
                "duration": 0.1840909090909122,
                "tempo": 120.0
            },
            {
                "start_time": 33.85909090909091,
                "end_time": 34.06590909090909,
                "pitch": 47,
                "velocity": 51,
                "duration": 0.20681818181817846,
                "tempo": 120.0
            },
            {
                "start_time": 34.08409090909091,
                "end_time": 34.27045454545454,
                "pitch": 47,
                "velocity": 51,
                "duration": 0.1863636363636303,
                "tempo": 120.0
            },
            {
                "start_time": 34.288636363636364,
                "end_time": 34.47272727272727,
                "pitch": 47,
                "velocity": 51,
                "duration": 0.18409090909090509,
                "tempo": 120.0
            },
            {
                "start_time": 34.48863636363636,
                "end_time": 34.69090909090909,
                "pitch": 47,
                "velocity": 51,
                "duration": 0.20227272727272805,
                "tempo": 120.0
            },
            {
                "start_time": 34.70681818181818,
                "end_time": 34.89545454545454,
                "pitch": 47,
                "velocity": 51,
                "duration": 0.1886363636363626,
                "tempo": 120.0
            },
            {
                "start_time": 34.913636363636364,
                "end_time": 35.11818181818182,
                "pitch": 47,
                "velocity": 51,
                "duration": 0.20454545454545325,
                "tempo": 120.0
            },
            {
                "start_time": 35.13409090909091,
                "end_time": 35.31818181818181,
                "pitch": 47,
                "velocity": 51,
                "duration": 0.18409090909090509,
                "tempo": 120.0
            },
            {
                "start_time": 35.336363636363636,
                "end_time": 35.518181818181816,
                "pitch": 47,
                "velocity": 51,
                "duration": 0.18181818181817988,
                "tempo": 120.0
            },
            {
                "start_time": 35.53636363636363,
                "end_time": 35.736363636363635,
                "pitch": 47,
                "velocity": 51,
                "duration": 0.20000000000000284,
                "tempo": 120.0
            },
            {
                "start_time": 35.752272727272725,
                "end_time": 35.93636363636364,
                "pitch": 47,
                "velocity": 51,
                "duration": 0.1840909090909122,
                "tempo": 120.0
            },
            {
                "start_time": 35.95454545454545,
                "end_time": 36.154545454545456,
                "pitch": 47,
                "velocity": 51,
                "duration": 0.20000000000000284,
                "tempo": 120.0
            },
            {
                "start_time": 36.17045454545455,
                "end_time": 36.35454545454545,
                "pitch": 47,
                "velocity": 51,
                "duration": 0.18409090909090509,
                "tempo": 120.0
            },
            {
                "start_time": 36.37045454545454,
                "end_time": 36.554545454545455,
                "pitch": 45,
                "velocity": 51,
                "duration": 0.1840909090909122,
                "tempo": 120.0
            },
            {
                "start_time": 36.57272727272727,
                "end_time": 36.77272727272727,
                "pitch": 46,
                "velocity": 51,
                "duration": 0.20000000000000284,
                "tempo": 120.0
            },
            {
                "start_time": 36.79090909090909,
                "end_time": 36.97954545454545,
                "pitch": 47,
                "velocity": 51,
                "duration": 0.1886363636363626,
                "tempo": 120.0
            },
            {
                "start_time": 36.99772727272727,
                "end_time": 37.184090909090905,
                "pitch": 47,
                "velocity": 51,
                "duration": 0.1863636363636374,
                "tempo": 120.0
            },
            {
                "start_time": 37.21818181818182,
                "end_time": 37.402272727272724,
                "pitch": 47,
                "velocity": 51,
                "duration": 0.18409090909090509,
                "tempo": 120.0
            },
            {
                "start_time": 37.418181818181814,
                "end_time": 37.60227272727273,
                "pitch": 47,
                "velocity": 51,
                "duration": 0.1840909090909122,
                "tempo": 120.0
            },
            {
                "start_time": 37.61818181818182,
                "end_time": 37.820454545454545,
                "pitch": 47,
                "velocity": 51,
                "duration": 0.20227272727272805,
                "tempo": 120.0
            },
            {
                "start_time": 37.836363636363636,
                "end_time": 38.02045454545454,
                "pitch": 47,
                "velocity": 51,
                "duration": 0.18409090909090509,
                "tempo": 120.0
            },
            {
                "start_time": 38.038636363636364,
                "end_time": 38.22727272727273,
                "pitch": 47,
                "velocity": 51,
                "duration": 0.1886363636363626,
                "tempo": 120.0
            },
            {
                "start_time": 38.24318181818182,
                "end_time": 38.449999999999996,
                "pitch": 47,
                "velocity": 51,
                "duration": 0.20681818181817846,
                "tempo": 120.0
            },
            {
                "start_time": 38.465909090909086,
                "end_time": 38.65,
                "pitch": 47,
                "velocity": 51,
                "duration": 0.1840909090909122,
                "tempo": 120.0
            },
            {
                "start_time": 38.66590909090909,
                "end_time": 38.86590909090909,
                "pitch": 47,
                "velocity": 51,
                "duration": 0.20000000000000284,
                "tempo": 120.0
            },
            {
                "start_time": 38.88409090909091,
                "end_time": 39.06818181818181,
                "pitch": 47,
                "velocity": 51,
                "duration": 0.18409090909090509,
                "tempo": 120.0
            },
            {
                "start_time": 39.084090909090904,
                "end_time": 39.268181818181816,
                "pitch": 47,
                "velocity": 51,
                "duration": 0.1840909090909122,
                "tempo": 120.0
            },
            {
                "start_time": 39.28409090909091,
                "end_time": 39.48409090909091,
                "pitch": 47,
                "velocity": 51,
                "duration": 0.20000000000000284,
                "tempo": 120.0
            },
            {
                "start_time": 39.502272727272725,
                "end_time": 39.68636363636364,
                "pitch": 44,
                "velocity": 51,
                "duration": 0.1840909090909122,
                "tempo": 120.0
            },
            {
                "start_time": 39.70227272727273,
                "end_time": 39.902272727272724,
                "pitch": 45,
                "velocity": 51,
                "duration": 0.19999999999999574,
                "tempo": 120.0
            },
            {
                "start_time": 39.92045454545455,
                "end_time": 40.10454545454545,
                "pitch": 46,
                "velocity": 51,
                "duration": 0.18409090909090509,
                "tempo": 120.0
            },
            {
                "start_time": 40.12272727272727,
                "end_time": 40.31590909090909,
                "pitch": 47,
                "velocity": 51,
                "duration": 0.19318181818182012,
                "tempo": 120.0
            },
            {
                "start_time": 40.334090909090904,
                "end_time": 40.54090909090909,
                "pitch": 47,
                "velocity": 51,
                "duration": 0.20681818181818556,
                "tempo": 120.0
            },
            {
                "start_time": 40.559090909090905,
                "end_time": 40.74090909090909,
                "pitch": 47,
                "velocity": 51,
                "duration": 0.18181818181818699,
                "tempo": 120.0
            },
            {
                "start_time": 40.75909090909091,
                "end_time": 40.94090909090909,
                "pitch": 47,
                "velocity": 51,
                "duration": 0.18181818181817988,
                "tempo": 120.0
            },
            {
                "start_time": 40.95681818181818,
                "end_time": 41.152272727272724,
                "pitch": 47,
                "velocity": 51,
                "duration": 0.19545454545454533,
                "tempo": 120.0
            },
            {
                "start_time": 41.168181818181814,
                "end_time": 41.35,
                "pitch": 47,
                "velocity": 51,
                "duration": 0.18181818181818699,
                "tempo": 120.0
            },
            {
                "start_time": 41.36818181818182,
                "end_time": 41.57272727272727,
                "pitch": 47,
                "velocity": 51,
                "duration": 0.20454545454545325,
                "tempo": 120.0
            },
            {
                "start_time": 41.590909090909086,
                "end_time": 41.777272727272724,
                "pitch": 47,
                "velocity": 51,
                "duration": 0.1863636363636374,
                "tempo": 120.0
            },
            {
                "start_time": 41.79545454545455,
                "end_time": 41.97954545454545,
                "pitch": 47,
                "velocity": 51,
                "duration": 0.18409090909090509,
                "tempo": 120.0
            },
            {
                "start_time": 41.99545454545454,
                "end_time": 42.19772727272727,
                "pitch": 47,
                "velocity": 51,
                "duration": 0.20227272727272805,
                "tempo": 120.0
            },
            {
                "start_time": 42.21363636363636,
                "end_time": 42.402272727272724,
                "pitch": 47,
                "velocity": 51,
                "duration": 0.1886363636363626,
                "tempo": 120.0
            },
            {
                "start_time": 42.42045454545455,
                "end_time": 42.62272727272727,
                "pitch": 47,
                "velocity": 51,
                "duration": 0.20227272727272094,
                "tempo": 120.0
            },
            {
                "start_time": 42.63863636363636,
                "end_time": 42.81818181818181,
                "pitch": 47,
                "velocity": 51,
                "duration": 0.17954545454545467,
                "tempo": 120.0
            },
            {
                "start_time": 42.834090909090904,
                "end_time": 43.01590909090909,
                "pitch": 47,
                "velocity": 51,
                "duration": 0.18181818181818699,
                "tempo": 120.0
            },
            {
                "start_time": 43.03181818181818,
                "end_time": 43.23181818181818,
                "pitch": 45,
                "velocity": 51,
                "duration": 0.19999999999999574,
                "tempo": 120.0
            },
            {
                "start_time": 43.24772727272727,
                "end_time": 43.434090909090905,
                "pitch": 46,
                "velocity": 51,
                "duration": 0.1863636363636374,
                "tempo": 120.0
            },
            {
                "start_time": 43.449999999999996,
                "end_time": 43.64090909090909,
                "pitch": 47,
                "velocity": 51,
                "duration": 0.19090909090909491,
                "tempo": 120.0
            },
            {
                "start_time": 43.675,
                "end_time": 43.86363636363636,
                "pitch": 47,
                "velocity": 51,
                "duration": 0.1886363636363626,
                "tempo": 120.0
            },
            {
                "start_time": 43.87954545454545,
                "end_time": 44.06818181818181,
                "pitch": 47,
                "velocity": 51,
                "duration": 0.1886363636363626,
                "tempo": 120.0
            },
            {
                "start_time": 44.086363636363636,
                "end_time": 44.293181818181814,
                "pitch": 47,
                "velocity": 51,
                "duration": 0.20681818181817846,
                "tempo": 120.0
            },
            {
                "start_time": 44.309090909090905,
                "end_time": 44.49772727272727,
                "pitch": 47,
                "velocity": 51,
                "duration": 0.1886363636363626,
                "tempo": 120.0
            },
            {
                "start_time": 44.51590909090909,
                "end_time": 44.70227272727273,
                "pitch": 47,
                "velocity": 51,
                "duration": 0.1863636363636374,
                "tempo": 120.0
            },
            {
                "start_time": 44.71818181818182,
                "end_time": 44.913636363636364,
                "pitch": 47,
                "velocity": 51,
                "duration": 0.19545454545454533,
                "tempo": 120.0
            },
            {
                "start_time": 44.929545454545455,
                "end_time": 45.111363636363635,
                "pitch": 47,
                "velocity": 51,
                "duration": 0.18181818181817988,
                "tempo": 120.0
            },
            {
                "start_time": 45.127272727272725,
                "end_time": 45.32727272727273,
                "pitch": 47,
                "velocity": 51,
                "duration": 0.20000000000000284,
                "tempo": 120.0
            },
            {
                "start_time": 45.345454545454544,
                "end_time": 45.52954545454545,
                "pitch": 47,
                "velocity": 51,
                "duration": 0.18409090909090509,
                "tempo": 120.0
            },
            {
                "start_time": 45.54545454545455,
                "end_time": 45.736363636363635,
                "pitch": 47,
                "velocity": 51,
                "duration": 0.1909090909090878,
                "tempo": 120.0
            },
            {
                "start_time": 45.752272727272725,
                "end_time": 45.95681818181818,
                "pitch": 47,
                "velocity": 51,
                "duration": 0.20454545454545325,
                "tempo": 120.0
            },
            {
                "start_time": 45.974999999999994,
                "end_time": 46.15681818181818,
                "pitch": 47,
                "velocity": 51,
                "duration": 0.18181818181818699,
                "tempo": 120.0
            },
            {
                "start_time": 46.175,
                "end_time": 46.37272727272727,
                "pitch": 44,
                "velocity": 51,
                "duration": 0.19772727272727053,
                "tempo": 120.0
            },
            {
                "start_time": 46.38863636363636,
                "end_time": 46.56818181818181,
                "pitch": 45,
                "velocity": 51,
                "duration": 0.17954545454545467,
                "tempo": 120.0
            },
            {
                "start_time": 46.584090909090904,
                "end_time": 46.76590909090909,
                "pitch": 46,
                "velocity": 51,
                "duration": 0.18181818181818699,
                "tempo": 120.0
            },
            {
                "start_time": 46.78409090909091,
                "end_time": 46.86818181818182,
                "pitch": 74,
                "velocity": 51,
                "duration": 0.08409090909091077,
                "tempo": 120.0
            },
            {
                "start_time": 46.902272727272724,
                "end_time": 46.98863636363636,
                "pitch": 71,
                "velocity": 51,
                "duration": 0.08636363636363598,
                "tempo": 120.0
            },
            {
                "start_time": 47.00681818181818,
                "end_time": 47.09318181818182,
                "pitch": 69,
                "velocity": 51,
                "duration": 0.08636363636363598,
                "tempo": 120.0
            },
            {
                "start_time": 47.10909090909091,
                "end_time": 47.293181818181814,
                "pitch": 74,
                "velocity": 51,
                "duration": 0.18409090909090509,
                "tempo": 120.0
            },
            {
                "start_time": 47.31136363636364,
                "end_time": 47.39545454545454,
                "pitch": 74,
                "velocity": 51,
                "duration": 0.08409090909090366,
                "tempo": 120.0
            },
            {
                "start_time": 47.41136363636363,
                "end_time": 47.51136363636363,
                "pitch": 71,
                "velocity": 51,
                "duration": 0.10000000000000142,
                "tempo": 120.0
            },
            {
                "start_time": 47.527272727272724,
                "end_time": 47.61363636363636,
                "pitch": 69,
                "velocity": 51,
                "duration": 0.08636363636363598,
                "tempo": 120.0
            },
            {
                "start_time": 47.62954545454545,
                "end_time": 47.715909090909086,
                "pitch": 74,
                "velocity": 51,
                "duration": 0.08636363636363598,
                "tempo": 120.0
            },
            {
                "start_time": 47.73409090909091,
                "end_time": 47.81818181818181,
                "pitch": 71,
                "velocity": 51,
                "duration": 0.08409090909090366,
                "tempo": 120.0
            },
            {
                "start_time": 47.836363636363636,
                "end_time": 47.92272727272727,
                "pitch": 69,
                "velocity": 51,
                "duration": 0.08636363636363598,
                "tempo": 120.0
            },
            {
                "start_time": 47.93863636363636,
                "end_time": 48.04090909090909,
                "pitch": 69,
                "velocity": 51,
                "duration": 0.10227272727272663,
                "tempo": 120.0
            },
            {
                "start_time": 48.05681818181818,
                "end_time": 48.14090909090909,
                "pitch": 74,
                "velocity": 51,
                "duration": 0.08409090909091077,
                "tempo": 120.0
            },
            {
                "start_time": 48.15681818181818,
                "end_time": 48.24090909090909,
                "pitch": 71,
                "velocity": 51,
                "duration": 0.08409090909091077,
                "tempo": 120.0
            },
            {
                "start_time": 48.25909090909091,
                "end_time": 48.340909090909086,
                "pitch": 69,
                "velocity": 51,
                "duration": 0.08181818181817846,
                "tempo": 120.0
            },
            {
                "start_time": 48.35909090909091,
                "end_time": 48.44090909090909,
                "pitch": 69,
                "velocity": 51,
                "duration": 0.08181818181817846,
                "tempo": 120.0
            },
            {
                "start_time": 48.459090909090904,
                "end_time": 48.559090909090905,
                "pitch": 74,
                "velocity": 51,
                "duration": 0.10000000000000142,
                "tempo": 120.0
            },
            {
                "start_time": 48.574999999999996,
                "end_time": 48.65909090909091,
                "pitch": 71,
                "velocity": 51,
                "duration": 0.08409090909091077,
                "tempo": 120.0
            },
            {
                "start_time": 48.675,
                "end_time": 48.75909090909091,
                "pitch": 69,
                "velocity": 51,
                "duration": 0.08409090909091077,
                "tempo": 120.0
            },
            {
                "start_time": 48.775,
                "end_time": 48.959090909090904,
                "pitch": 74,
                "velocity": 51,
                "duration": 0.18409090909090509,
                "tempo": 120.0
            },
            {
                "start_time": 48.97727272727273,
                "end_time": 49.07727272727273,
                "pitch": 74,
                "velocity": 51,
                "duration": 0.10000000000000142,
                "tempo": 120.0
            },
            {
                "start_time": 49.09318181818182,
                "end_time": 49.17727272727272,
                "pitch": 71,
                "velocity": 51,
                "duration": 0.08409090909090366,
                "tempo": 120.0
            },
            {
                "start_time": 49.19318181818181,
                "end_time": 49.27954545454545,
                "pitch": 69,
                "velocity": 51,
                "duration": 0.08636363636363598,
                "tempo": 120.0
            },
            {
                "start_time": 49.29545454545454,
                "end_time": 49.38181818181818,
                "pitch": 74,
                "velocity": 51,
                "duration": 0.08636363636364308,
                "tempo": 120.0
            },
            {
                "start_time": 49.39772727272727,
                "end_time": 49.48409090909091,
                "pitch": 71,
                "velocity": 51,
                "duration": 0.08636363636363598,
                "tempo": 120.0
            },
            {
                "start_time": 49.502272727272725,
                "end_time": 49.60454545454545,
                "pitch": 69,
                "velocity": 51,
                "duration": 0.10227272727272663,
                "tempo": 120.0
            },
            {
                "start_time": 49.62272727272727,
                "end_time": 49.70681818181818,
                "pitch": 69,
                "velocity": 51,
                "duration": 0.08409090909091077,
                "tempo": 120.0
            },
            {
                "start_time": 49.72272727272727,
                "end_time": 49.80681818181818,
                "pitch": 74,
                "velocity": 51,
                "duration": 0.08409090909091077,
                "tempo": 120.0
            },
            {
                "start_time": 49.82272727272727,
                "end_time": 49.90681818181818,
                "pitch": 71,
                "velocity": 51,
                "duration": 0.08409090909091077,
                "tempo": 120.0
            },
            {
                "start_time": 49.92272727272727,
                "end_time": 50.00681818181818,
                "pitch": 69,
                "velocity": 51,
                "duration": 0.08409090909091077,
                "tempo": 120.0
            },
            {
                "start_time": 50.02272727272727,
                "end_time": 50.10681818181818,
                "pitch": 69,
                "velocity": 51,
                "duration": 0.08409090909090366,
                "tempo": 120.0
            },
            {
                "start_time": 50.14090909090909,
                "end_time": 50.224999999999994,
                "pitch": 74,
                "velocity": 51,
                "duration": 0.08409090909090366,
                "tempo": 120.0
            },
            {
                "start_time": 50.240909090909085,
                "end_time": 50.324999999999996,
                "pitch": 71,
                "velocity": 51,
                "duration": 0.08409090909091077,
                "tempo": 120.0
            },
            {
                "start_time": 50.340909090909086,
                "end_time": 50.425,
                "pitch": 69,
                "velocity": 51,
                "duration": 0.08409090909091077,
                "tempo": 120.0
            },
            {
                "start_time": 50.44090909090909,
                "end_time": 50.625,
                "pitch": 74,
                "velocity": 51,
                "duration": 0.1840909090909122,
                "tempo": 120.0
            },
            {
                "start_time": 50.64090909090909,
                "end_time": 50.74318181818182,
                "pitch": 74,
                "velocity": 51,
                "duration": 0.10227272727272663,
                "tempo": 120.0
            },
            {
                "start_time": 50.75909090909091,
                "end_time": 50.84318181818182,
                "pitch": 71,
                "velocity": 51,
                "duration": 0.08409090909091077,
                "tempo": 120.0
            },
            {
                "start_time": 50.85909090909091,
                "end_time": 50.94318181818181,
                "pitch": 69,
                "velocity": 51,
                "duration": 0.08409090909090366,
                "tempo": 120.0
            },
            {
                "start_time": 50.961363636363636,
                "end_time": 51.04772727272727,
                "pitch": 74,
                "velocity": 51,
                "duration": 0.08636363636363598,
                "tempo": 120.0
            },
            {
                "start_time": 51.06363636363636,
                "end_time": 51.15,
                "pitch": 71,
                "velocity": 51,
                "duration": 0.08636363636363598,
                "tempo": 120.0
            },
            {
                "start_time": 51.168181818181814,
                "end_time": 51.27045454545454,
                "pitch": 69,
                "velocity": 51,
                "duration": 0.10227272727272663,
                "tempo": 120.0
            },
            {
                "start_time": 51.288636363636364,
                "end_time": 51.37272727272727,
                "pitch": 69,
                "velocity": 51,
                "duration": 0.08409090909090366,
                "tempo": 120.0
            },
            {
                "start_time": 51.38863636363636,
                "end_time": 51.47272727272727,
                "pitch": 74,
                "velocity": 51,
                "duration": 0.08409090909091077,
                "tempo": 120.0
            },
            {
                "start_time": 51.48863636363636,
                "end_time": 51.57272727272727,
                "pitch": 71,
                "velocity": 51,
                "duration": 0.08409090909091077,
                "tempo": 120.0
            },
            {
                "start_time": 51.58863636363636,
                "end_time": 51.67272727272727,
                "pitch": 69,
                "velocity": 51,
                "duration": 0.08409090909091077,
                "tempo": 120.0
            },
            {
                "start_time": 51.68863636363636,
                "end_time": 51.788636363636364,
                "pitch": 69,
                "velocity": 51,
                "duration": 0.10000000000000142,
                "tempo": 120.0
            },
            {
                "start_time": 51.80681818181818,
                "end_time": 51.89090909090909,
                "pitch": 74,
                "velocity": 51,
                "duration": 0.08409090909091077,
                "tempo": 120.0
            },
            {
                "start_time": 51.90681818181818,
                "end_time": 51.990909090909085,
                "pitch": 71,
                "velocity": 51,
                "duration": 0.08409090909090366,
                "tempo": 120.0
            },
            {
                "start_time": 52.00681818181818,
                "end_time": 52.090909090909086,
                "pitch": 69,
                "velocity": 51,
                "duration": 0.08409090909090366,
                "tempo": 120.0
            },
            {
                "start_time": 52.10681818181818,
                "end_time": 52.30681818181818,
                "pitch": 74,
                "velocity": 51,
                "duration": 0.20000000000000284,
                "tempo": 120.0
            },
            {
                "start_time": 52.324999999999996,
                "end_time": 52.40681818181818,
                "pitch": 74,
                "velocity": 51,
                "duration": 0.08181818181818556,
                "tempo": 120.0
            },
            {
                "start_time": 52.425,
                "end_time": 52.50909090909091,
                "pitch": 71,
                "velocity": 51,
                "duration": 0.08409090909091077,
                "tempo": 120.0
            },
            {
                "start_time": 52.525,
                "end_time": 52.60909090909091,
                "pitch": 69,
                "velocity": 51,
                "duration": 0.08409090909091077,
                "tempo": 120.0
            },
            {
                "start_time": 52.627272727272725,
                "end_time": 52.71363636363636,
                "pitch": 74,
                "velocity": 51,
                "duration": 0.08636363636363598,
                "tempo": 120.0
            },
            {
                "start_time": 52.72954545454545,
                "end_time": 52.83181818181818,
                "pitch": 71,
                "velocity": 51,
                "duration": 0.10227272727272663,
                "tempo": 120.0
            },
            {
                "start_time": 52.849999999999994,
                "end_time": 52.93636363636363,
                "pitch": 69,
                "velocity": 51,
                "duration": 0.08636363636363598,
                "tempo": 120.0
            },
            {
                "start_time": 52.95227272727273,
                "end_time": 53.038636363636364,
                "pitch": 69,
                "velocity": 51,
                "duration": 0.08636363636363598,
                "tempo": 120.0
            },
            {
                "start_time": 53.05681818181818,
                "end_time": 53.14090909090909,
                "pitch": 74,
                "velocity": 51,
                "duration": 0.08409090909091077,
                "tempo": 120.0
            },
            {
                "start_time": 53.15909090909091,
                "end_time": 53.24545454545454,
                "pitch": 71,
                "velocity": 51,
                "duration": 0.08636363636363598,
                "tempo": 120.0
            },
            {
                "start_time": 53.26136363636363,
                "end_time": 53.34772727272727,
                "pitch": 69,
                "velocity": 51,
                "duration": 0.08636363636363598,
                "tempo": 120.0
            },
            {
                "start_time": 53.38181818181818,
                "end_time": 53.46818181818182,
                "pitch": 69,
                "velocity": 51,
                "duration": 0.08636363636363598,
                "tempo": 120.0
            },
            {
                "start_time": 53.486363636363635,
                "end_time": 53.570454545454545,
                "pitch": 74,
                "velocity": 51,
                "duration": 0.08409090909091077,
                "tempo": 120.0
            },
            {
                "start_time": 53.58863636363636,
                "end_time": 53.675,
                "pitch": 71,
                "velocity": 51,
                "duration": 0.08636363636363598,
                "tempo": 120.0
            },
            {
                "start_time": 53.69090909090909,
                "end_time": 53.777272727272724,
                "pitch": 69,
                "velocity": 51,
                "duration": 0.08636363636363598,
                "tempo": 120.0
            },
            {
                "start_time": 53.79545454545454,
                "end_time": 53.98863636363636,
                "pitch": 74,
                "velocity": 51,
                "duration": 0.19318181818182012,
                "tempo": 120.0
            },
            {
                "start_time": 54.00454545454545,
                "end_time": 54.084090909090904,
                "pitch": 74,
                "velocity": 51,
                "duration": 0.07954545454545325,
                "tempo": 120.0
            },
            {
                "start_time": 54.099999999999994,
                "end_time": 54.179545454545455,
                "pitch": 71,
                "velocity": 51,
                "duration": 0.07954545454546036,
                "tempo": 120.0
            },
            {
                "start_time": 54.195454545454545,
                "end_time": 54.27954545454545,
                "pitch": 69,
                "velocity": 51,
                "duration": 0.08409090909090366,
                "tempo": 120.0
            },
            {
                "start_time": 54.29545454545454,
                "end_time": 54.38181818181818,
                "pitch": 74,
                "velocity": 51,
                "duration": 0.08636363636364308,
                "tempo": 120.0
            },
            {
                "start_time": 54.4,
                "end_time": 54.502272727272725,
                "pitch": 71,
                "velocity": 51,
                "duration": 0.10227272727272663,
                "tempo": 120.0
            },
            {
                "start_time": 54.52045454545454,
                "end_time": 54.60454545454545,
                "pitch": 69,
                "velocity": 51,
                "duration": 0.08409090909091077,
                "tempo": 120.0
            },
            {
                "start_time": 54.62272727272727,
                "end_time": 54.709090909090904,
                "pitch": 69,
                "velocity": 51,
                "duration": 0.08636363636363598,
                "tempo": 120.0
            },
            {
                "start_time": 54.724999999999994,
                "end_time": 54.81136363636363,
                "pitch": 74,
                "velocity": 51,
                "duration": 0.08636363636363598,
                "tempo": 120.0
            },
            {
                "start_time": 54.82954545454545,
                "end_time": 54.913636363636364,
                "pitch": 71,
                "velocity": 51,
                "duration": 0.08409090909091077,
                "tempo": 120.0
            },
            {
                "start_time": 54.93181818181818,
                "end_time": 55.03409090909091,
                "pitch": 69,
                "velocity": 51,
                "duration": 0.10227272727272663,
                "tempo": 120.0
            },
            {
                "start_time": 55.05227272727272,
                "end_time": 55.13636363636363,
                "pitch": 69,
                "velocity": 51,
                "duration": 0.08409090909091077,
                "tempo": 120.0
            },
            {
                "start_time": 55.152272727272724,
                "end_time": 55.236363636363635,
                "pitch": 74,
                "velocity": 51,
                "duration": 0.08409090909091077,
                "tempo": 120.0
            },
            {
                "start_time": 55.252272727272725,
                "end_time": 55.336363636363636,
                "pitch": 71,
                "velocity": 51,
                "duration": 0.08409090909091077,
                "tempo": 120.0
            },
            {
                "start_time": 55.35454545454545,
                "end_time": 55.43636363636363,
                "pitch": 69,
                "velocity": 51,
                "duration": 0.08181818181817846,
                "tempo": 120.0
            },
            {
                "start_time": 55.45454545454545,
                "end_time": 55.65,
                "pitch": 74,
                "velocity": 51,
                "duration": 0.19545454545454533,
                "tempo": 120.0
            },
            {
                "start_time": 55.66590909090909,
                "end_time": 55.74772727272727,
                "pitch": 74,
                "velocity": 51,
                "duration": 0.08181818181817846,
                "tempo": 120.0
            },
            {
                "start_time": 55.76363636363636,
                "end_time": 55.845454545454544,
                "pitch": 71,
                "velocity": 51,
                "duration": 0.08181818181818556,
                "tempo": 120.0
            },
            {
                "start_time": 55.861363636363635,
                "end_time": 55.945454545454545,
                "pitch": 69,
                "velocity": 51,
                "duration": 0.08409090909091077,
                "tempo": 120.0
            },
            {
                "start_time": 55.961363636363636,
                "end_time": 56.06590909090909,
                "pitch": 74,
                "velocity": 51,
                "duration": 0.10454545454545183,
                "tempo": 120.0
            },
            {
                "start_time": 56.08181818181818,
                "end_time": 56.168181818181814,
                "pitch": 71,
                "velocity": 51,
                "duration": 0.08636363636363598,
                "tempo": 120.0
            },
            {
                "start_time": 56.18636363636363,
                "end_time": 56.27045454545454,
                "pitch": 69,
                "velocity": 51,
                "duration": 0.08409090909091077,
                "tempo": 120.0
            },
            {
                "start_time": 56.288636363636364,
                "end_time": 56.375,
                "pitch": 69,
                "velocity": 51,
                "duration": 0.08636363636363598,
                "tempo": 120.0
            },
            {
                "start_time": 56.39090909090909,
                "end_time": 56.47727272727273,
                "pitch": 74,
                "velocity": 51,
                "duration": 0.08636363636363598,
                "tempo": 120.0
            },
            {
                "start_time": 56.49545454545454,
                "end_time": 56.58181818181818,
                "pitch": 71,
                "velocity": 51,
                "duration": 0.08636363636363598,
                "tempo": 120.0
            },
            {
                "start_time": 56.615909090909085,
                "end_time": 56.699999999999996,
                "pitch": 69,
                "velocity": 51,
                "duration": 0.08409090909091077,
                "tempo": 120.0
            },
            {
                "start_time": 56.71818181818182,
                "end_time": 56.804545454545455,
                "pitch": 69,
                "velocity": 51,
                "duration": 0.08636363636363598,
                "tempo": 120.0
            },
            {
                "start_time": 56.820454545454545,
                "end_time": 56.90681818181818,
                "pitch": 74,
                "velocity": 51,
                "duration": 0.08636363636363598,
                "tempo": 120.0
            },
            {
                "start_time": 56.925,
                "end_time": 57.00909090909091,
                "pitch": 71,
                "velocity": 51,
                "duration": 0.08409090909091077,
                "tempo": 120.0
            },
            {
                "start_time": 57.027272727272724,
                "end_time": 57.11363636363636,
                "pitch": 69,
                "velocity": 51,
                "duration": 0.08636363636363598,
                "tempo": 120.0
            },
            {
                "start_time": 57.12954545454545,
                "end_time": 57.33181818181818,
                "pitch": 74,
                "velocity": 51,
                "duration": 0.20227272727272805,
                "tempo": 120.0
            },
            {
                "start_time": 57.349999999999994,
                "end_time": 57.43181818181818,
                "pitch": 74,
                "velocity": 51,
                "duration": 0.08181818181818556,
                "tempo": 120.0
            },
            {
                "start_time": 57.449999999999996,
                "end_time": 57.53181818181818,
                "pitch": 71,
                "velocity": 51,
                "duration": 0.08181818181818556,
                "tempo": 120.0
            },
            {
                "start_time": 57.55,
                "end_time": 57.631818181818176,
                "pitch": 69,
                "velocity": 51,
                "duration": 0.08181818181817846,
                "tempo": 120.0
            },
            {
                "start_time": 57.64772727272727,
                "end_time": 57.74545454545454,
                "pitch": 74,
                "velocity": 51,
                "duration": 0.09772727272726911,
                "tempo": 120.0
            },
            {
                "start_time": 57.76136363636363,
                "end_time": 57.84318181818182,
                "pitch": 71,
                "velocity": 51,
                "duration": 0.08181818181818556,
                "tempo": 120.0
            },
            {
                "start_time": 57.85909090909091,
                "end_time": 57.94090909090909,
                "pitch": 69,
                "velocity": 51,
                "duration": 0.08181818181817846,
                "tempo": 120.0
            },
            {
                "start_time": 57.95681818181818,
                "end_time": 58.04090909090909,
                "pitch": 69,
                "velocity": 51,
                "duration": 0.08409090909091077,
                "tempo": 120.0
            },
            {
                "start_time": 58.05681818181818,
                "end_time": 58.143181818181816,
                "pitch": 74,
                "velocity": 51,
                "duration": 0.08636363636363598,
                "tempo": 120.0
            },
            {
                "start_time": 58.16136363636363,
                "end_time": 58.26363636363636,
                "pitch": 71,
                "velocity": 51,
                "duration": 0.10227272727272663,
                "tempo": 120.0
            },
            {
                "start_time": 58.28181818181818,
                "end_time": 58.36818181818182,
                "pitch": 69,
                "velocity": 51,
                "duration": 0.08636363636363598,
                "tempo": 120.0
            },
            {
                "start_time": 58.38409090909091,
                "end_time": 58.470454545454544,
                "pitch": 69,
                "velocity": 51,
                "duration": 0.08636363636363598,
                "tempo": 120.0
            },
            {
                "start_time": 58.486363636363635,
                "end_time": 58.57272727272727,
                "pitch": 74,
                "velocity": 51,
                "duration": 0.08636363636363598,
                "tempo": 120.0
            },
            {
                "start_time": 58.590909090909086,
                "end_time": 58.67727272727272,
                "pitch": 71,
                "velocity": 51,
                "duration": 0.08636363636363598,
                "tempo": 120.0
            },
            {
                "start_time": 58.69318181818181,
                "end_time": 58.79545454545454,
                "pitch": 69,
                "velocity": 51,
                "duration": 0.10227272727272663,
                "tempo": 120.0
            },
            {
                "start_time": 58.81363636363636,
                "end_time": 58.99772727272727,
                "pitch": 74,
                "velocity": 51,
                "duration": 0.18409090909090509,
                "tempo": 120.0
            },
            {
                "start_time": 59.01590909090909,
                "end_time": 59.09772727272727,
                "pitch": 74,
                "velocity": 51,
                "duration": 0.08181818181817846,
                "tempo": 120.0
            },
            {
                "start_time": 59.115909090909085,
                "end_time": 59.199999999999996,
                "pitch": 71,
                "velocity": 51,
                "duration": 0.08409090909091077,
                "tempo": 120.0
            },
            {
                "start_time": 59.215909090909086,
                "end_time": 59.31363636363636,
                "pitch": 69,
                "velocity": 51,
                "duration": 0.09772727272727622,
                "tempo": 120.0
            },
            {
                "start_time": 59.32954545454545,
                "end_time": 59.41136363636363,
                "pitch": 74,
                "velocity": 51,
                "duration": 0.08181818181817846,
                "tempo": 120.0
            },
            {
                "start_time": 59.42727272727272,
                "end_time": 59.50909090909091,
                "pitch": 71,
                "velocity": 51,
                "duration": 0.08181818181818556,
                "tempo": 120.0
            },
            {
                "start_time": 59.525,
                "end_time": 59.60681818181818,
                "pitch": 69,
                "velocity": 51,
                "duration": 0.08181818181817846,
                "tempo": 120.0
            },
            {
                "start_time": 59.62272727272727,
                "end_time": 59.70681818181818,
                "pitch": 69,
                "velocity": 51,
                "duration": 0.08409090909091077,
                "tempo": 120.0
            },
            {
                "start_time": 59.724999999999994,
                "end_time": 59.809090909090905,
                "pitch": 74,
                "velocity": 51,
                "duration": 0.08409090909091077,
                "tempo": 120.0
            },
            {
                "start_time": 59.84318181818182,
                "end_time": 59.929545454545455,
                "pitch": 71,
                "velocity": 51,
                "duration": 0.08636363636363598,
                "tempo": 120.0
            },
            {
                "start_time": 59.94772727272727,
                "end_time": 60.03409090909091,
                "pitch": 69,
                "velocity": 51,
                "duration": 0.08636363636363598,
                "tempo": 120.0
            },
            {
                "start_time": 60.05,
                "end_time": 60.13636363636363,
                "pitch": 69,
                "velocity": 51,
                "duration": 0.08636363636363598,
                "tempo": 120.0
            },
            {
                "start_time": 60.15454545454545,
                "end_time": 60.29090909090909,
                "pitch": 47,
                "velocity": 51,
                "duration": 0.13636363636364024,
                "tempo": 120.0
            }
        ]
    }
}