{
    "track_id": "California Games (FM) - 02 - Menu",
    "mood": "angry",
    "instruments": {
        "Oboe": [
            {
                "start_time": 0.0,
                "end_time": 0.04772727272727272,
                "pitch": 76,
                "velocity": 20,
                "duration": 0.04772727272727272,
                "tempo": 120.0
            },
            {
                "start_time": 0.04772727272727272,
                "end_time": 3.5568181818181817,
                "pitch": 64,
                "velocity": 20,
                "duration": 3.509090909090909,
                "tempo": 120.0
            },
            {
                "start_time": 3.5727272727272728,
                "end_time": 3.7613636363636362,
                "pitch": 66,
                "velocity": 40,
                "duration": 0.1886363636363635,
                "tempo": 120.0
            },
            {
                "start_time": 3.777272727272727,
                "end_time": 3.977272727272727,
                "pitch": 66,
                "velocity": 40,
                "duration": 0.20000000000000018,
                "tempo": 120.0
            },
            {
                "start_time": 3.995454545454545,
                "end_time": 4.177272727272727,
                "pitch": 64,
                "velocity": 40,
                "duration": 0.18181818181818166,
                "tempo": 120.0
            },
            {
                "start_time": 4.195454545454545,
                "end_time": 4.597727272727273,
                "pitch": 66,
                "velocity": 40,
                "duration": 0.40227272727272734,
                "tempo": 120.0
            },
            {
                "start_time": 4.613636363636363,
                "end_time": 4.804545454545455,
                "pitch": 66,
                "velocity": 40,
                "duration": 0.19090909090909136,
                "tempo": 120.0
            },
            {
                "start_time": 4.820454545454545,
                "end_time": 5.027272727272727,
                "pitch": 64,
                "velocity": 40,
                "duration": 0.206818181818182,
                "tempo": 120.0
            },
            {
                "start_time": 5.043181818181818,
                "end_time": 5.4363636363636365,
                "pitch": 66,
                "velocity": 40,
                "duration": 0.3931818181818185,
                "tempo": 120.0
            },
            {
                "start_time": 5.452272727272727,
                "end_time": 5.843181818181818,
                "pitch": 66,
                "velocity": 40,
                "duration": 0.39090909090909065,
                "tempo": 120.0
            },
            {
                "start_time": 5.861363636363636,
                "end_time": 6.0613636363636365,
                "pitch": 69,
                "velocity": 40,
                "duration": 0.20000000000000018,
                "tempo": 120.0
            },
            {
                "start_time": 6.077272727272727,
                "end_time": 6.263636363636364,
                "pitch": 66,
                "velocity": 40,
                "duration": 0.1863636363636365,
                "tempo": 120.0
            },
            {
                "start_time": 6.279545454545454,
                "end_time": 6.6931818181818175,
                "pitch": 64,
                "velocity": 40,
                "duration": 0.41363636363636314,
                "tempo": 120.0
            },
            {
                "start_time": 6.709090909090909,
                "end_time": 6.8999999999999995,
                "pitch": 64,
                "velocity": 40,
                "duration": 0.19090909090909047,
                "tempo": 120.0
            },
            {
                "start_time": 6.915909090909091,
                "end_time": 7.102272727272727,
                "pitch": 66,
                "velocity": 40,
                "duration": 0.18636363636363562,
                "tempo": 120.0
            },
            {
                "start_time": 7.136363636363636,
                "end_time": 7.3159090909090905,
                "pitch": 66,
                "velocity": 40,
                "duration": 0.17954545454545467,
                "tempo": 120.0
            },
            {
                "start_time": 7.331818181818181,
                "end_time": 7.513636363636364,
                "pitch": 64,
                "velocity": 40,
                "duration": 0.18181818181818254,
                "tempo": 120.0
            },
            {
                "start_time": 7.531818181818181,
                "end_time": 7.9431818181818175,
                "pitch": 66,
                "velocity": 40,
                "duration": 0.41136363636363615,
                "tempo": 120.0
            },
            {
                "start_time": 7.959090909090909,
                "end_time": 8.143181818181818,
                "pitch": 66,
                "velocity": 40,
                "duration": 0.18409090909090864,
                "tempo": 120.0
            },
            {
                "start_time": 8.159090909090908,
                "end_time": 8.361363636363636,
                "pitch": 64,
                "velocity": 40,
                "duration": 0.20227272727272805,
                "tempo": 120.0
            },
            {
                "start_time": 8.379545454545454,
                "end_time": 8.568181818181818,
                "pitch": 69,
                "velocity": 40,
                "duration": 0.18863636363636438,
                "tempo": 120.0
            },
            {
                "start_time": 8.584090909090909,
                "end_time": 8.786363636363635,
                "pitch": 69,
                "velocity": 40,
                "duration": 0.20227272727272627,
                "tempo": 120.0
            },
            {
                "start_time": 8.804545454545455,
                "end_time": 8.886363636363637,
                "pitch": 69,
                "velocity": 40,
                "duration": 0.08181818181818201,
                "tempo": 120.0
            },
            {
                "start_time": 8.902272727272727,
                "end_time": 8.98409090909091,
                "pitch": 66,
                "velocity": 40,
                "duration": 0.08181818181818201,
                "tempo": 120.0
            },
            {
                "start_time": 9.0,
                "end_time": 9.181818181818182,
                "pitch": 64,
                "velocity": 40,
                "duration": 0.18181818181818166,
                "tempo": 120.0
            },
            {
                "start_time": 9.2,
                "end_time": 9.406818181818181,
                "pitch": 71,
                "velocity": 40,
                "duration": 0.206818181818182,
                "tempo": 120.0
            },
            {
                "start_time": 9.422727272727272,
                "end_time": 9.611363636363636,
                "pitch": 71,
                "velocity": 40,
                "duration": 0.18863636363636438,
                "tempo": 120.0
            },
            {
                "start_time": 9.627272727272727,
                "end_time": 9.711363636363636,
                "pitch": 71,
                "velocity": 40,
                "duration": 0.084090909090909,
                "tempo": 120.0
            },
            {
                "start_time": 9.727272727272727,
                "end_time": 9.827272727272726,
                "pitch": 66,
                "velocity": 40,
                "duration": 0.09999999999999964,
                "tempo": 120.0
            },
            {
                "start_time": 9.845454545454546,
                "end_time": 10.029545454545454,
                "pitch": 64,
                "velocity": 40,
                "duration": 0.18409090909090864,
                "tempo": 120.0
            },
            {
                "start_time": 10.047727272727272,
                "end_time": 10.868181818181817,
                "pitch": 76,
                "velocity": 40,
                "duration": 0.8204545454545453,
                "tempo": 120.0
            },
            {
                "start_time": 10.886363636363637,
                "end_time": 11.697727272727272,
                "pitch": 75,
                "velocity": 40,
                "duration": 0.8113636363636356,
                "tempo": 120.0
            },
            {
                "start_time": 11.71590909090909,
                "end_time": 12.543181818181818,
                "pitch": 71,
                "velocity": 40,
                "duration": 0.827272727272728,
                "tempo": 120.0
            },
            {
                "start_time": 12.561363636363636,
                "end_time": 13.375,
                "pitch": 75,
                "velocity": 40,
                "duration": 0.8136363636363644,
                "tempo": 120.0
            },
            {
                "start_time": 13.39090909090909,
                "end_time": 13.793181818181818,
                "pitch": 73,
                "velocity": 40,
                "duration": 0.40227272727272734,
                "tempo": 120.0
            },
            {
                "start_time": 13.811363636363636,
                "end_time": 16.71590909090909,
                "pitch": 76,
                "velocity": 40,
                "duration": 2.9045454545454543,
                "tempo": 120.0
            },
            {
                "start_time": 16.71590909090909,
                "end_time": 16.922727272727272,
                "pitch": 64,
                "velocity": 40,
                "duration": 0.206818181818182,
                "tempo": 120.0
            },
            {
                "start_time": 16.938636363636363,
                "end_time": 17.127272727272725,
                "pitch": 66,
                "velocity": 40,
                "duration": 0.1886363636363626,
                "tempo": 120.0
            },
            {
                "start_time": 17.143181818181816,
                "end_time": 17.327272727272728,
                "pitch": 66,
                "velocity": 40,
                "duration": 0.1840909090909122,
                "tempo": 120.0
            },
            {
                "start_time": 17.34318181818182,
                "end_time": 17.543181818181818,
                "pitch": 64,
                "velocity": 40,
                "duration": 0.1999999999999993,
                "tempo": 120.0
            },
            {
                "start_time": 17.561363636363634,
                "end_time": 17.959090909090907,
                "pitch": 66,
                "velocity": 40,
                "duration": 0.3977272727272734,
                "tempo": 120.0
            },
            {
                "start_time": 17.974999999999998,
                "end_time": 18.154545454545453,
                "pitch": 66,
                "velocity": 40,
                "duration": 0.17954545454545467,
                "tempo": 120.0
            },
            {
                "start_time": 18.170454545454543,
                "end_time": 18.352272727272727,
                "pitch": 64,
                "velocity": 40,
                "duration": 0.18181818181818343,
                "tempo": 120.0
            },
            {
                "start_time": 18.370454545454546,
                "end_time": 18.78181818181818,
                "pitch": 66,
                "velocity": 40,
                "duration": 0.41136363636363527,
                "tempo": 120.0
            },
            {
                "start_time": 18.797727272727272,
                "end_time": 19.2,
                "pitch": 66,
                "velocity": 40,
                "duration": 0.40227272727272734,
                "tempo": 120.0
            },
            {
                "start_time": 19.21818181818182,
                "end_time": 19.40681818181818,
                "pitch": 69,
                "velocity": 40,
                "duration": 0.1886363636363626,
                "tempo": 120.0
            },
            {
                "start_time": 19.422727272727272,
                "end_time": 19.63181818181818,
                "pitch": 66,
                "velocity": 40,
                "duration": 0.20909090909090722,
                "tempo": 120.0
            },
            {
                "start_time": 19.647727272727273,
                "end_time": 20.047727272727272,
                "pitch": 64,
                "velocity": 40,
                "duration": 0.3999999999999986,
                "tempo": 120.0
            },
            {
                "start_time": 20.081818181818182,
                "end_time": 20.261363636363637,
                "pitch": 64,
                "velocity": 40,
                "duration": 0.17954545454545467,
                "tempo": 120.0
            },
            {
                "start_time": 20.277272727272727,
                "end_time": 20.459090909090907,
                "pitch": 66,
                "velocity": 40,
                "duration": 0.18181818181817988,
                "tempo": 120.0
            },
            {
                "start_time": 20.477272727272727,
                "end_time": 20.68409090909091,
                "pitch": 66,
                "velocity": 40,
                "duration": 0.206818181818182,
                "tempo": 120.0
            },
            {
                "start_time": 20.7,
                "end_time": 20.888636363636362,
                "pitch": 64,
                "velocity": 40,
                "duration": 0.1886363636363626,
                "tempo": 120.0
            },
            {
                "start_time": 20.904545454545453,
                "end_time": 21.30681818181818,
                "pitch": 66,
                "velocity": 40,
                "duration": 0.40227272727272734,
                "tempo": 120.0
            },
            {
                "start_time": 21.325,
                "end_time": 21.513636363636362,
                "pitch": 66,
                "velocity": 40,
                "duration": 0.1886363636363626,
                "tempo": 120.0
            },
            {
                "start_time": 21.529545454545453,
                "end_time": 21.73181818181818,
                "pitch": 64,
                "velocity": 40,
                "duration": 0.20227272727272805,
                "tempo": 120.0
            },
            {
                "start_time": 21.75,
                "end_time": 21.927272727272726,
                "pitch": 69,
                "velocity": 40,
                "duration": 0.17727272727272592,
                "tempo": 120.0
            },
            {
                "start_time": 21.943181818181817,
                "end_time": 22.125,
                "pitch": 69,
                "velocity": 40,
                "duration": 0.18181818181818343,
                "tempo": 120.0
            },
            {
                "start_time": 22.143181818181816,
                "end_time": 22.245454545454546,
                "pitch": 69,
                "velocity": 40,
                "duration": 0.10227272727273018,
                "tempo": 120.0
            },
            {
                "start_time": 22.263636363636362,
                "end_time": 22.349999999999998,
                "pitch": 66,
                "velocity": 40,
                "duration": 0.08636363636363598,
                "tempo": 120.0
            },
            {
                "start_time": 22.36590909090909,
                "end_time": 22.554545454545455,
                "pitch": 64,
                "velocity": 40,
                "duration": 0.18863636363636616,
                "tempo": 120.0
            },
            {
                "start_time": 22.570454545454545,
                "end_time": 22.770454545454545,
                "pitch": 71,
                "velocity": 40,
                "duration": 0.1999999999999993,
                "tempo": 120.0
            },
            {
                "start_time": 22.786363636363635,
                "end_time": 22.970454545454544,
                "pitch": 71,
                "velocity": 40,
                "duration": 0.18409090909090864,
                "tempo": 120.0
            },
            {
                "start_time": 22.988636363636363,
                "end_time": 23.070454545454545,
                "pitch": 71,
                "velocity": 40,
                "duration": 0.08181818181818201,
                "tempo": 120.0
            },
            {
                "start_time": 23.08863636363636,
                "end_time": 23.172727272727272,
                "pitch": 66,
                "velocity": 40,
                "duration": 0.08409090909091077,
                "tempo": 120.0
            },
            {
                "start_time": 23.188636363636363,
                "end_time": 23.39090909090909,
                "pitch": 64,
                "velocity": 40,
                "duration": 0.20227272727272805,
                "tempo": 120.0
            },
            {
                "start_time": 23.40681818181818,
                "end_time": 24.21818181818182,
                "pitch": 76,
                "velocity": 40,
                "duration": 0.8113636363636374,
                "tempo": 120.0
            },
            {
                "start_time": 24.236363636363635,
                "end_time": 25.06590909090909,
                "pitch": 75,
                "velocity": 40,
                "duration": 0.8295454545454568,
                "tempo": 120.0
            },
            {
                "start_time": 25.081818181818182,
                "end_time": 25.884090909090908,
                "pitch": 71,
                "velocity": 40,
                "duration": 0.8022727272727259,
                "tempo": 120.0
            },
            {
                "start_time": 25.902272727272727,
                "end_time": 26.73181818181818,
                "pitch": 75,
                "velocity": 40,
                "duration": 0.8295454545454533,
                "tempo": 120.0
            },
            {
                "start_time": 26.74772727272727,
                "end_time": 27.15,
                "pitch": 73,
                "velocity": 40,
                "duration": 0.40227272727272734,
                "tempo": 120.0
            },
            {
                "start_time": 27.168181818181818,
                "end_time": 30.03181818181818,
                "pitch": 76,
                "velocity": 40,
                "duration": 2.8636363636363633,
                "tempo": 120.0
            }
        ],
        "Electric Guitar (clean)": [
            {
                "start_time": 0.0,
                "end_time": 0.17954545454545454,
                "pitch": 54,
                "velocity": 51,
                "duration": 0.17954545454545454,
                "tempo": 120.0
            },
            {
                "start_time": 0.3909090909090909,
                "end_time": 0.5681818181818181,
                "pitch": 54,
                "velocity": 51,
                "duration": 0.17727272727272725,
                "tempo": 120.0
            },
            {
                "start_time": 0.5863636363636363,
                "end_time": 0.7795454545454545,
                "pitch": 49,
                "velocity": 51,
                "duration": 0.19318181818181823,
                "tempo": 120.0
            },
            {
                "start_time": 0.7977272727272727,
                "end_time": 0.9818181818181818,
                "pitch": 52,
                "velocity": 51,
                "duration": 0.18409090909090908,
                "tempo": 120.0
            },
            {
                "start_time": 0.9977272727272727,
                "end_time": 1.1977272727272728,
                "pitch": 54,
                "velocity": 51,
                "duration": 0.20000000000000007,
                "tempo": 120.0
            },
            {
                "start_time": 1.2136363636363636,
                "end_time": 1.3977272727272727,
                "pitch": 52,
                "velocity": 51,
                "duration": 0.18409090909090908,
                "tempo": 120.0
            },
            {
                "start_time": 1.4159090909090908,
                "end_time": 1.5999999999999999,
                "pitch": 49,
                "velocity": 51,
                "duration": 0.18409090909090908,
                "tempo": 120.0
            },
            {
                "start_time": 1.6159090909090907,
                "end_time": 1.815909090909091,
                "pitch": 54,
                "velocity": 51,
                "duration": 0.20000000000000018,
                "tempo": 120.0
            },
            {
                "start_time": 2.034090909090909,
                "end_time": 2.2227272727272727,
                "pitch": 54,
                "velocity": 51,
                "duration": 0.1886363636363635,
                "tempo": 120.0
            },
            {
                "start_time": 2.2386363636363633,
                "end_time": 2.4454545454545453,
                "pitch": 49,
                "velocity": 51,
                "duration": 0.206818181818182,
                "tempo": 120.0
            },
            {
                "start_time": 2.4613636363636364,
                "end_time": 2.6454545454545455,
                "pitch": 52,
                "velocity": 51,
                "duration": 0.18409090909090908,
                "tempo": 120.0
            },
            {
                "start_time": 2.6636363636363636,
                "end_time": 2.8636363636363633,
                "pitch": 54,
                "velocity": 51,
                "duration": 0.19999999999999973,
                "tempo": 120.0
            },
            {
                "start_time": 2.8795454545454544,
                "end_time": 3.0636363636363635,
                "pitch": 52,
                "velocity": 51,
                "duration": 0.18409090909090908,
                "tempo": 120.0
            },
            {
                "start_time": 3.0795454545454546,
                "end_time": 3.2636363636363637,
                "pitch": 49,
                "velocity": 51,
                "duration": 0.18409090909090908,
                "tempo": 120.0
            },
            {
                "start_time": 3.2818181818181817,
                "end_time": 3.4863636363636363,
                "pitch": 54,
                "velocity": 51,
                "duration": 0.20454545454545459,
                "tempo": 120.0
            },
            {
                "start_time": 3.711363636363636,
                "end_time": 3.911363636363636,
                "pitch": 54,
                "velocity": 51,
                "duration": 0.20000000000000018,
                "tempo": 120.0
            },
            {
                "start_time": 3.9272727272727272,
                "end_time": 4.111363636363636,
                "pitch": 49,
                "velocity": 51,
                "duration": 0.18409090909090908,
                "tempo": 120.0
            },
            {
                "start_time": 4.127272727272727,
                "end_time": 4.3113636363636365,
                "pitch": 52,
                "velocity": 51,
                "duration": 0.18409090909090953,
                "tempo": 120.0
            },
            {
                "start_time": 4.329545454545454,
                "end_time": 4.529545454545454,
                "pitch": 54,
                "velocity": 51,
                "duration": 0.20000000000000018,
                "tempo": 120.0
            },
            {
                "start_time": 4.545454545454545,
                "end_time": 4.7340909090909085,
                "pitch": 52,
                "velocity": 51,
                "duration": 0.1886363636363635,
                "tempo": 120.0
            },
            {
                "start_time": 4.752272727272727,
                "end_time": 4.9409090909090905,
                "pitch": 49,
                "velocity": 51,
                "duration": 0.1886363636363635,
                "tempo": 120.0
            },
            {
                "start_time": 4.975,
                "end_time": 5.163636363636363,
                "pitch": 54,
                "velocity": 51,
                "duration": 0.1886363636363635,
                "tempo": 120.0
            },
            {
                "start_time": 5.386363636363636,
                "end_time": 5.581818181818181,
                "pitch": 54,
                "velocity": 51,
                "duration": 0.19545454545454533,
                "tempo": 120.0
            },
            {
                "start_time": 5.597727272727273,
                "end_time": 5.777272727272727,
                "pitch": 49,
                "velocity": 51,
                "duration": 0.17954545454545467,
                "tempo": 120.0
            },
            {
                "start_time": 5.793181818181818,
                "end_time": 5.977272727272727,
                "pitch": 52,
                "velocity": 51,
                "duration": 0.18409090909090864,
                "tempo": 120.0
            },
            {
                "start_time": 5.995454545454545,
                "end_time": 6.195454545454545,
                "pitch": 54,
                "velocity": 51,
                "duration": 0.20000000000000018,
                "tempo": 120.0
            },
            {
                "start_time": 6.211363636363636,
                "end_time": 6.3999999999999995,
                "pitch": 52,
                "velocity": 51,
                "duration": 0.1886363636363635,
                "tempo": 120.0
            },
            {
                "start_time": 6.418181818181818,
                "end_time": 6.625,
                "pitch": 49,
                "velocity": 51,
                "duration": 0.206818181818182,
                "tempo": 120.0
            },
            {
                "start_time": 6.640909090909091,
                "end_time": 6.829545454545454,
                "pitch": 54,
                "velocity": 51,
                "duration": 0.1886363636363635,
                "tempo": 120.0
            },
            {
                "start_time": 7.054545454545454,
                "end_time": 7.25,
                "pitch": 54,
                "velocity": 51,
                "duration": 0.1954545454545462,
                "tempo": 120.0
            },
            {
                "start_time": 7.265909090909091,
                "end_time": 7.445454545454545,
                "pitch": 49,
                "velocity": 51,
                "duration": 0.17954545454545467,
                "tempo": 120.0
            },
            {
                "start_time": 7.463636363636363,
                "end_time": 7.668181818181818,
                "pitch": 52,
                "velocity": 51,
                "duration": 0.20454545454545503,
                "tempo": 120.0
            },
            {
                "start_time": 7.686363636363636,
                "end_time": 7.875,
                "pitch": 54,
                "velocity": 51,
                "duration": 0.18863636363636438,
                "tempo": 120.0
            },
            {
                "start_time": 7.890909090909091,
                "end_time": 8.075,
                "pitch": 52,
                "velocity": 51,
                "duration": 0.18409090909090864,
                "tempo": 120.0
            },
            {
                "start_time": 8.093181818181817,
                "end_time": 8.293181818181818,
                "pitch": 49,
                "velocity": 51,
                "duration": 0.20000000000000107,
                "tempo": 120.0
            },
            {
                "start_time": 8.309090909090909,
                "end_time": 8.497727272727273,
                "pitch": 54,
                "velocity": 51,
                "duration": 0.18863636363636438,
                "tempo": 120.0
            },
            {
                "start_time": 8.722727272727273,
                "end_time": 8.918181818181818,
                "pitch": 54,
                "velocity": 51,
                "duration": 0.19545454545454533,
                "tempo": 120.0
            },
            {
                "start_time": 8.934090909090909,
                "end_time": 9.11590909090909,
                "pitch": 49,
                "velocity": 51,
                "duration": 0.18181818181818166,
                "tempo": 120.0
            },
            {
                "start_time": 9.131818181818181,
                "end_time": 9.336363636363636,
                "pitch": 52,
                "velocity": 51,
                "duration": 0.20454545454545503,
                "tempo": 120.0
            },
            {
                "start_time": 9.354545454545454,
                "end_time": 9.543181818181818,
                "pitch": 54,
                "velocity": 51,
                "duration": 0.18863636363636438,
                "tempo": 120.0
            },
            {
                "start_time": 9.561363636363636,
                "end_time": 9.743181818181817,
                "pitch": 52,
                "velocity": 51,
                "duration": 0.18181818181818166,
                "tempo": 120.0
            },
            {
                "start_time": 9.761363636363637,
                "end_time": 9.961363636363636,
                "pitch": 49,
                "velocity": 51,
                "duration": 0.1999999999999993,
                "tempo": 120.0
            },
            {
                "start_time": 9.977272727272727,
                "end_time": 10.165909090909091,
                "pitch": 47,
                "velocity": 51,
                "duration": 0.18863636363636438,
                "tempo": 120.0
            },
            {
                "start_time": 10.184090909090909,
                "end_time": 10.39090909090909,
                "pitch": 47,
                "velocity": 51,
                "duration": 0.206818181818182,
                "tempo": 120.0
            },
            {
                "start_time": 10.406818181818181,
                "end_time": 10.595454545454546,
                "pitch": 47,
                "velocity": 51,
                "duration": 0.18863636363636438,
                "tempo": 120.0
            },
            {
                "start_time": 10.613636363636363,
                "end_time": 10.802272727272726,
                "pitch": 47,
                "velocity": 51,
                "duration": 0.1886363636363626,
                "tempo": 120.0
            },
            {
                "start_time": 10.820454545454545,
                "end_time": 11.01590909090909,
                "pitch": 47,
                "velocity": 51,
                "duration": 0.19545454545454533,
                "tempo": 120.0
            },
            {
                "start_time": 11.031818181818181,
                "end_time": 11.213636363636363,
                "pitch": 47,
                "velocity": 51,
                "duration": 0.18181818181818166,
                "tempo": 120.0
            },
            {
                "start_time": 11.229545454545454,
                "end_time": 11.413636363636362,
                "pitch": 47,
                "velocity": 51,
                "duration": 0.18409090909090864,
                "tempo": 120.0
            },
            {
                "start_time": 11.445454545454545,
                "end_time": 11.629545454545454,
                "pitch": 47,
                "velocity": 51,
                "duration": 0.18409090909090864,
                "tempo": 120.0
            },
            {
                "start_time": 11.647727272727272,
                "end_time": 11.836363636363636,
                "pitch": 51,
                "velocity": 51,
                "duration": 0.18863636363636438,
                "tempo": 120.0
            },
            {
                "start_time": 11.852272727272727,
                "end_time": 12.059090909090909,
                "pitch": 51,
                "velocity": 51,
                "duration": 0.206818181818182,
                "tempo": 120.0
            },
            {
                "start_time": 12.075,
                "end_time": 12.259090909090908,
                "pitch": 51,
                "velocity": 51,
                "duration": 0.18409090909090864,
                "tempo": 120.0
            },
            {
                "start_time": 12.277272727272727,
                "end_time": 12.461363636363636,
                "pitch": 51,
                "velocity": 51,
                "duration": 0.18409090909090864,
                "tempo": 120.0
            },
            {
                "start_time": 12.477272727272727,
                "end_time": 12.677272727272726,
                "pitch": 52,
                "velocity": 51,
                "duration": 0.1999999999999993,
                "tempo": 120.0
            },
            {
                "start_time": 12.693181818181818,
                "end_time": 12.877272727272727,
                "pitch": 52,
                "velocity": 51,
                "duration": 0.18409090909090864,
                "tempo": 120.0
            },
            {
                "start_time": 12.895454545454545,
                "end_time": 13.1,
                "pitch": 52,
                "velocity": 51,
                "duration": 0.20454545454545503,
                "tempo": 120.0
            },
            {
                "start_time": 13.118181818181817,
                "end_time": 13.306818181818182,
                "pitch": 52,
                "velocity": 51,
                "duration": 0.18863636363636438,
                "tempo": 120.0
            },
            {
                "start_time": 13.325,
                "end_time": 13.506818181818181,
                "pitch": 54,
                "velocity": 51,
                "duration": 0.18181818181818166,
                "tempo": 120.0
            },
            {
                "start_time": 13.74090909090909,
                "end_time": 13.929545454545455,
                "pitch": 54,
                "velocity": 51,
                "duration": 0.18863636363636438,
                "tempo": 120.0
            },
            {
                "start_time": 13.947727272727272,
                "end_time": 14.154545454545454,
                "pitch": 49,
                "velocity": 51,
                "duration": 0.206818181818182,
                "tempo": 120.0
            },
            {
                "start_time": 14.170454545454545,
                "end_time": 14.354545454545454,
                "pitch": 52,
                "velocity": 51,
                "duration": 0.18409090909090864,
                "tempo": 120.0
            },
            {
                "start_time": 14.370454545454544,
                "end_time": 14.554545454545455,
                "pitch": 54,
                "velocity": 51,
                "duration": 0.18409090909091042,
                "tempo": 120.0
            },
            {
                "start_time": 14.572727272727272,
                "end_time": 14.768181818181818,
                "pitch": 52,
                "velocity": 51,
                "duration": 0.19545454545454533,
                "tempo": 120.0
            },
            {
                "start_time": 14.784090909090908,
                "end_time": 14.963636363636363,
                "pitch": 49,
                "velocity": 51,
                "duration": 0.17954545454545467,
                "tempo": 120.0
            },
            {
                "start_time": 14.98181818181818,
                "end_time": 15.170454545454545,
                "pitch": 54,
                "velocity": 51,
                "duration": 0.18863636363636438,
                "tempo": 120.0
            },
            {
                "start_time": 15.411363636363635,
                "end_time": 15.6,
                "pitch": 54,
                "velocity": 51,
                "duration": 0.18863636363636438,
                "tempo": 120.0
            },
            {
                "start_time": 15.61590909090909,
                "end_time": 15.822727272727272,
                "pitch": 49,
                "velocity": 51,
                "duration": 0.206818181818182,
                "tempo": 120.0
            },
            {
                "start_time": 15.84090909090909,
                "end_time": 16.022727272727273,
                "pitch": 52,
                "velocity": 51,
                "duration": 0.18181818181818343,
                "tempo": 120.0
            },
            {
                "start_time": 16.04090909090909,
                "end_time": 16.224999999999998,
                "pitch": 54,
                "velocity": 51,
                "duration": 0.18409090909090864,
                "tempo": 120.0
            },
            {
                "start_time": 16.24090909090909,
                "end_time": 16.436363636363634,
                "pitch": 52,
                "velocity": 51,
                "duration": 0.19545454545454533,
                "tempo": 120.0
            },
            {
                "start_time": 16.452272727272728,
                "end_time": 16.631818181818183,
                "pitch": 49,
                "velocity": 51,
                "duration": 0.17954545454545467,
                "tempo": 120.0
            },
            {
                "start_time": 16.647727272727273,
                "end_time": 16.852272727272727,
                "pitch": 54,
                "velocity": 51,
                "duration": 0.20454545454545325,
                "tempo": 120.0
            },
            {
                "start_time": 19.354545454545452,
                "end_time": 19.561363636363634,
                "pitch": 52,
                "velocity": 51,
                "duration": 0.206818181818182,
                "tempo": 120.0
            },
            {
                "start_time": 19.577272727272728,
                "end_time": 19.770454545454545,
                "pitch": 52,
                "velocity": 51,
                "duration": 0.19318181818181657,
                "tempo": 120.0
            },
            {
                "start_time": 19.788636363636364,
                "end_time": 19.98181818181818,
                "pitch": 52,
                "velocity": 51,
                "duration": 0.19318181818181657,
                "tempo": 120.0
            },
            {
                "start_time": 20.0,
                "end_time": 20.195454545454545,
                "pitch": 54,
                "velocity": 51,
                "duration": 0.19545454545454533,
                "tempo": 120.0
            },
            {
                "start_time": 20.409090909090907,
                "end_time": 20.613636363636363,
                "pitch": 54,
                "velocity": 51,
                "duration": 0.2045454545454568,
                "tempo": 120.0
            },
            {
                "start_time": 20.63181818181818,
                "end_time": 20.820454545454545,
                "pitch": 49,
                "velocity": 51,
                "duration": 0.18863636363636616,
                "tempo": 120.0
            },
            {
                "start_time": 20.83863636363636,
                "end_time": 21.020454545454545,
                "pitch": 52,
                "velocity": 51,
                "duration": 0.18181818181818343,
                "tempo": 120.0
            },
            {
                "start_time": 21.038636363636364,
                "end_time": 21.238636363636363,
                "pitch": 54,
                "velocity": 51,
                "duration": 0.1999999999999993,
                "tempo": 120.0
            },
            {
                "start_time": 21.254545454545454,
                "end_time": 21.445454545454545,
                "pitch": 52,
                "velocity": 51,
                "duration": 0.19090909090909136,
                "tempo": 120.0
            },
            {
                "start_time": 21.461363636363636,
                "end_time": 21.65,
                "pitch": 49,
                "velocity": 51,
                "duration": 0.1886363636363626,
                "tempo": 120.0
            },
            {
                "start_time": 21.668181818181818,
                "end_time": 21.863636363636363,
                "pitch": 54,
                "velocity": 51,
                "duration": 0.19545454545454533,
                "tempo": 120.0
            },
            {
                "start_time": 22.075,
                "end_time": 22.279545454545453,
                "pitch": 54,
                "velocity": 51,
                "duration": 0.20454545454545325,
                "tempo": 120.0
            },
            {
                "start_time": 22.297727272727272,
                "end_time": 22.486363636363635,
                "pitch": 49,
                "velocity": 51,
                "duration": 0.1886363636363626,
                "tempo": 120.0
            },
            {
                "start_time": 22.502272727272725,
                "end_time": 22.686363636363634,
                "pitch": 52,
                "velocity": 51,
                "duration": 0.18409090909090864,
                "tempo": 120.0
            },
            {
                "start_time": 22.704545454545453,
                "end_time": 22.904545454545453,
                "pitch": 54,
                "velocity": 51,
                "duration": 0.1999999999999993,
                "tempo": 120.0
            },
            {
                "start_time": 22.920454545454543,
                "end_time": 23.104545454545452,
                "pitch": 52,
                "velocity": 51,
                "duration": 0.18409090909090864,
                "tempo": 120.0
            },
            {
                "start_time": 23.120454545454546,
                "end_time": 23.32272727272727,
                "pitch": 49,
                "velocity": 51,
                "duration": 0.2022727272727245,
                "tempo": 120.0
            },
            {
                "start_time": 23.33863636363636,
                "end_time": 23.527272727272727,
                "pitch": 47,
                "velocity": 51,
                "duration": 0.18863636363636616,
                "tempo": 120.0
            },
            {
                "start_time": 23.545454545454543,
                "end_time": 23.73409090909091,
                "pitch": 47,
                "velocity": 51,
                "duration": 0.18863636363636616,
                "tempo": 120.0
            },
            {
                "start_time": 23.752272727272725,
                "end_time": 23.952272727272724,
                "pitch": 47,
                "velocity": 51,
                "duration": 0.1999999999999993,
                "tempo": 120.0
            },
            {
                "start_time": 23.96818181818182,
                "end_time": 24.152272727272727,
                "pitch": 47,
                "velocity": 51,
                "duration": 0.18409090909090864,
                "tempo": 120.0
            },
            {
                "start_time": 24.168181818181818,
                "end_time": 24.352272727272727,
                "pitch": 47,
                "velocity": 51,
                "duration": 0.18409090909090864,
                "tempo": 120.0
            },
            {
                "start_time": 24.386363636363637,
                "end_time": 24.570454545454545,
                "pitch": 47,
                "velocity": 51,
                "duration": 0.18409090909090864,
                "tempo": 120.0
            },
            {
                "start_time": 24.586363636363636,
                "end_time": 24.775,
                "pitch": 47,
                "velocity": 51,
                "duration": 0.1886363636363626,
                "tempo": 120.0
            },
            {
                "start_time": 24.793181818181818,
                "end_time": 24.99772727272727,
                "pitch": 47,
                "velocity": 51,
                "duration": 0.20454545454545325,
                "tempo": 120.0
            },
            {
                "start_time": 25.01590909090909,
                "end_time": 25.2,
                "pitch": 51,
                "velocity": 51,
                "duration": 0.18409090909090864,
                "tempo": 120.0
            },
            {
                "start_time": 25.21590909090909,
                "end_time": 25.4,
                "pitch": 51,
                "velocity": 51,
                "duration": 0.18409090909090864,
                "tempo": 120.0
            },
            {
                "start_time": 25.41590909090909,
                "end_time": 25.618181818181817,
                "pitch": 51,
                "velocity": 51,
                "duration": 0.20227272727272805,
                "tempo": 120.0
            },
            {
                "start_time": 25.634090909090908,
                "end_time": 25.818181818181817,
                "pitch": 51,
                "velocity": 51,
                "duration": 0.18409090909090864,
                "tempo": 120.0
            },
            {
                "start_time": 25.834090909090907,
                "end_time": 26.034090909090907,
                "pitch": 52,
                "velocity": 51,
                "duration": 0.1999999999999993,
                "tempo": 120.0
            },
            {
                "start_time": 26.052272727272726,
                "end_time": 26.236363636363635,
                "pitch": 52,
                "velocity": 51,
                "duration": 0.18409090909090864,
                "tempo": 120.0
            },
            {
                "start_time": 26.252272727272725,
                "end_time": 26.44090909090909,
                "pitch": 52,
                "velocity": 51,
                "duration": 0.18863636363636616,
                "tempo": 120.0
            },
            {
                "start_time": 26.459090909090907,
                "end_time": 26.663636363636364,
                "pitch": 52,
                "velocity": 51,
                "duration": 0.2045454545454568,
                "tempo": 120.0
            },
            {
                "start_time": 26.68181818181818,
                "end_time": 26.86590909090909,
                "pitch": 54,
                "velocity": 51,
                "duration": 0.18409090909090864,
                "tempo": 120.0
            },
            {
                "start_time": 27.099999999999998,
                "end_time": 27.288636363636364,
                "pitch": 54,
                "velocity": 51,
                "duration": 0.18863636363636616,
                "tempo": 120.0
            },
            {
                "start_time": 27.304545454545455,
                "end_time": 27.493181818181817,
                "pitch": 49,
                "velocity": 51,
                "duration": 0.1886363636363626,
                "tempo": 120.0
            },
            {
                "start_time": 27.511363636363637,
                "end_time": 27.706818181818182,
                "pitch": 52,
                "velocity": 51,
                "duration": 0.19545454545454533,
                "tempo": 120.0
            },
            {
                "start_time": 27.724999999999998,
                "end_time": 27.904545454545453,
                "pitch": 54,
                "velocity": 51,
                "duration": 0.17954545454545467,
                "tempo": 120.0
            },
            {
                "start_time": 27.920454545454543,
                "end_time": 28.10909090909091,
                "pitch": 52,
                "velocity": 51,
                "duration": 0.18863636363636616,
                "tempo": 120.0
            },
            {
                "start_time": 28.127272727272725,
                "end_time": 28.331818181818182,
                "pitch": 49,
                "velocity": 51,
                "duration": 0.2045454545454568,
                "tempo": 120.0
            },
            {
                "start_time": 28.349999999999998,
                "end_time": 28.534090909090907,
                "pitch": 54,
                "velocity": 51,
                "duration": 0.18409090909090864,
                "tempo": 120.0
            },
            {
                "start_time": 28.768181818181816,
                "end_time": 28.956818181818182,
                "pitch": 54,
                "velocity": 51,
                "duration": 0.18863636363636616,
                "tempo": 120.0
            },
            {
                "start_time": 28.972727272727273,
                "end_time": 29.16363636363636,
                "pitch": 49,
                "velocity": 51,
                "duration": 0.1909090909090878,
                "tempo": 120.0
            },
            {
                "start_time": 29.179545454545455,
                "end_time": 29.375,
                "pitch": 52,
                "velocity": 51,
                "duration": 0.19545454545454533,
                "tempo": 120.0
            },
            {
                "start_time": 29.39090909090909,
                "end_time": 29.570454545454545,
                "pitch": 54,
                "velocity": 51,
                "duration": 0.17954545454545467,
                "tempo": 120.0
            },
            {
                "start_time": 29.586363636363636,
                "end_time": 29.793181818181818,
                "pitch": 52,
                "velocity": 51,
                "duration": 0.206818181818182,
                "tempo": 120.0
            },
            {
                "start_time": 29.80909090909091,
                "end_time": 29.99772727272727,
                "pitch": 49,
                "velocity": 51,
                "duration": 0.1886363636363626,
                "tempo": 120.0
            },
            {
                "start_time": 30.01590909090909,
                "end_time": 30.03181818181818,
                "pitch": 54,
                "velocity": 51,
                "duration": 0.01590909090909065,
                "tempo": 120.0
            }
        ],
        "Clarinet": [
            {
                "start_time": 0.0,
                "end_time": 4.3113636363636365,
                "pitch": 66,
                "velocity": 20,
                "duration": 4.3113636363636365,
                "tempo": 120.0
            },
            {
                "start_time": 4.329545454545454,
                "end_time": 4.529545454545454,
                "pitch": 66,
                "velocity": 40,
                "duration": 0.20000000000000018,
                "tempo": 120.0
            },
            {
                "start_time": 4.545454545454545,
                "end_time": 4.7340909090909085,
                "pitch": 68,
                "velocity": 40,
                "duration": 0.1886363636363635,
                "tempo": 120.0
            },
            {
                "start_time": 4.752272727272727,
                "end_time": 4.9409090909090905,
                "pitch": 69,
                "velocity": 40,
                "duration": 0.1886363636363635,
                "tempo": 120.0
            },
            {
                "start_time": 4.975,
                "end_time": 5.977272727272727,
                "pitch": 66,
                "velocity": 40,
                "duration": 1.002272727272727,
                "tempo": 120.0
            },
            {
                "start_time": 5.995454545454545,
                "end_time": 6.195454545454545,
                "pitch": 66,
                "velocity": 40,
                "duration": 0.20000000000000018,
                "tempo": 120.0
            },
            {
                "start_time": 6.211363636363636,
                "end_time": 6.3999999999999995,
                "pitch": 68,
                "velocity": 40,
                "duration": 0.1886363636363635,
                "tempo": 120.0
            },
            {
                "start_time": 6.418181818181818,
                "end_time": 6.625,
                "pitch": 69,
                "velocity": 40,
                "duration": 0.206818181818182,
                "tempo": 120.0
            },
            {
                "start_time": 6.640909090909091,
                "end_time": 7.668181818181818,
                "pitch": 66,
                "velocity": 40,
                "duration": 1.0272727272727273,
                "tempo": 120.0
            },
            {
                "start_time": 7.686363636363636,
                "end_time": 7.875,
                "pitch": 66,
                "velocity": 40,
                "duration": 0.18863636363636438,
                "tempo": 120.0
            },
            {
                "start_time": 7.890909090909091,
                "end_time": 8.075,
                "pitch": 68,
                "velocity": 40,
                "duration": 0.18409090909090864,
                "tempo": 120.0
            },
            {
                "start_time": 8.093181818181817,
                "end_time": 8.293181818181818,
                "pitch": 69,
                "velocity": 40,
                "duration": 0.20000000000000107,
                "tempo": 120.0
            },
            {
                "start_time": 8.309090909090909,
                "end_time": 9.336363636363636,
                "pitch": 66,
                "velocity": 40,
                "duration": 1.0272727272727273,
                "tempo": 120.0
            },
            {
                "start_time": 9.354545454545454,
                "end_time": 9.543181818181818,
                "pitch": 66,
                "velocity": 40,
                "duration": 0.18863636363636438,
                "tempo": 120.0
            },
            {
                "start_time": 9.561363636363636,
                "end_time": 9.743181818181817,
                "pitch": 68,
                "velocity": 40,
                "duration": 0.18181818181818166,
                "tempo": 120.0
            },
            {
                "start_time": 9.761363636363637,
                "end_time": 9.961363636363636,
                "pitch": 69,
                "velocity": 40,
                "duration": 0.1999999999999993,
                "tempo": 120.0
            },
            {
                "start_time": 9.977272727272727,
                "end_time": 11.01590909090909,
                "pitch": 59,
                "velocity": 40,
                "duration": 1.038636363636364,
                "tempo": 120.0
            },
            {
                "start_time": 11.031818181818181,
                "end_time": 11.213636363636363,
                "pitch": 59,
                "velocity": 40,
                "duration": 0.18181818181818166,
                "tempo": 120.0
            },
            {
                "start_time": 11.229545454545454,
                "end_time": 11.413636363636362,
                "pitch": 61,
                "velocity": 40,
                "duration": 0.18409090909090864,
                "tempo": 120.0
            },
            {
                "start_time": 11.445454545454545,
                "end_time": 11.629545454545454,
                "pitch": 63,
                "velocity": 40,
                "duration": 0.18409090909090864,
                "tempo": 120.0
            },
            {
                "start_time": 11.647727272727272,
                "end_time": 12.677272727272726,
                "pitch": 59,
                "velocity": 40,
                "duration": 1.0295454545454543,
                "tempo": 120.0
            },
            {
                "start_time": 12.693181818181818,
                "end_time": 12.877272727272727,
                "pitch": 59,
                "velocity": 40,
                "duration": 0.18409090909090864,
                "tempo": 120.0
            },
            {
                "start_time": 12.895454545454545,
                "end_time": 13.1,
                "pitch": 61,
                "velocity": 40,
                "duration": 0.20454545454545503,
                "tempo": 120.0
            },
            {
                "start_time": 13.118181818181817,
                "end_time": 13.306818181818182,
                "pitch": 63,
                "velocity": 40,
                "duration": 0.18863636363636438,
                "tempo": 120.0
            },
            {
                "start_time": 13.325,
                "end_time": 13.725,
                "pitch": 64,
                "velocity": 40,
                "duration": 0.40000000000000036,
                "tempo": 120.0
            },
            {
                "start_time": 13.74090909090909,
                "end_time": 16.647727272727273,
                "pitch": 78,
                "velocity": 40,
                "duration": 2.906818181818183,
                "tempo": 120.0
            },
            {
                "start_time": 16.647727272727273,
                "end_time": 16.852272727272727,
                "pitch": 66,
                "velocity": 40,
                "duration": 0.20454545454545325,
                "tempo": 120.0
            },
            {
                "start_time": 16.870454545454546,
                "end_time": 17.05909090909091,
                "pitch": 54,
                "velocity": 40,
                "duration": 0.1886363636363626,
                "tempo": 120.0
            },
            {
                "start_time": 17.077272727272728,
                "end_time": 17.259090909090908,
                "pitch": 54,
                "velocity": 40,
                "duration": 0.18181818181817988,
                "tempo": 120.0
            },
            {
                "start_time": 17.277272727272727,
                "end_time": 17.477272727272727,
                "pitch": 52,
                "velocity": 40,
                "duration": 0.1999999999999993,
                "tempo": 120.0
            },
            {
                "start_time": 17.493181818181817,
                "end_time": 17.877272727272725,
                "pitch": 54,
                "velocity": 40,
                "duration": 0.38409090909090793,
                "tempo": 120.0
            },
            {
                "start_time": 17.911363636363635,
                "end_time": 18.09090909090909,
                "pitch": 54,
                "velocity": 40,
                "duration": 0.17954545454545467,
                "tempo": 120.0
            },
            {
                "start_time": 18.10681818181818,
                "end_time": 18.284090909090907,
                "pitch": 52,
                "velocity": 40,
                "duration": 0.17727272727272592,
                "tempo": 120.0
            },
            {
                "start_time": 18.302272727272726,
                "end_time": 18.71363636363636,
                "pitch": 73,
                "velocity": 40,
                "duration": 0.41136363636363527,
                "tempo": 120.0
            },
            {
                "start_time": 18.73181818181818,
                "end_time": 19.13181818181818,
                "pitch": 73,
                "velocity": 40,
                "duration": 0.3999999999999986,
                "tempo": 120.0
            },
            {
                "start_time": 19.147727272727273,
                "end_time": 19.561363636363634,
                "pitch": 76,
                "velocity": 40,
                "duration": 0.41363636363636047,
                "tempo": 120.0
            },
            {
                "start_time": 20.0,
                "end_time": 21.020454545454545,
                "pitch": 66,
                "velocity": 40,
                "duration": 1.0204545454545446,
                "tempo": 120.0
            },
            {
                "start_time": 21.038636363636364,
                "end_time": 21.238636363636363,
                "pitch": 66,
                "velocity": 40,
                "duration": 0.1999999999999993,
                "tempo": 120.0
            },
            {
                "start_time": 21.254545454545454,
                "end_time": 21.445454545454545,
                "pitch": 68,
                "velocity": 40,
                "duration": 0.19090909090909136,
                "tempo": 120.0
            },
            {
                "start_time": 21.461363636363636,
                "end_time": 21.65,
                "pitch": 69,
                "velocity": 40,
                "duration": 0.1886363636363626,
                "tempo": 120.0
            },
            {
                "start_time": 21.668181818181818,
                "end_time": 22.686363636363634,
                "pitch": 66,
                "velocity": 40,
                "duration": 1.0181818181818159,
                "tempo": 120.0
            },
            {
                "start_time": 22.704545454545453,
                "end_time": 22.904545454545453,
                "pitch": 66,
                "velocity": 40,
                "duration": 0.1999999999999993,
                "tempo": 120.0
            },
            {
                "start_time": 22.920454545454543,
                "end_time": 23.104545454545452,
                "pitch": 68,
                "velocity": 40,
                "duration": 0.18409090909090864,
                "tempo": 120.0
            },
            {
                "start_time": 23.120454545454546,
                "end_time": 23.32272727272727,
                "pitch": 69,
                "velocity": 40,
                "duration": 0.2022727272727245,
                "tempo": 120.0
            },
            {
                "start_time": 23.33863636363636,
                "end_time": 24.352272727272727,
                "pitch": 59,
                "velocity": 40,
                "duration": 1.0136363636363654,
                "tempo": 120.0
            },
            {
                "start_time": 24.386363636363637,
                "end_time": 24.570454545454545,
                "pitch": 59,
                "velocity": 40,
                "duration": 0.18409090909090864,
                "tempo": 120.0
            },
            {
                "start_time": 24.586363636363636,
                "end_time": 24.775,
                "pitch": 61,
                "velocity": 40,
                "duration": 0.1886363636363626,
                "tempo": 120.0
            },
            {
                "start_time": 24.793181818181818,
                "end_time": 24.99772727272727,
                "pitch": 63,
                "velocity": 40,
                "duration": 0.20454545454545325,
                "tempo": 120.0
            },
            {
                "start_time": 25.01590909090909,
                "end_time": 26.034090909090907,
                "pitch": 59,
                "velocity": 40,
                "duration": 1.0181818181818159,
                "tempo": 120.0
            },
            {
                "start_time": 26.052272727272726,
                "end_time": 26.236363636363635,
                "pitch": 59,
                "velocity": 40,
                "duration": 0.18409090909090864,
                "tempo": 120.0
            },
            {
                "start_time": 26.252272727272725,
                "end_time": 26.44090909090909,
                "pitch": 61,
                "velocity": 40,
                "duration": 0.18863636363636616,
                "tempo": 120.0
            },
            {
                "start_time": 26.459090909090907,
                "end_time": 26.663636363636364,
                "pitch": 63,
                "velocity": 40,
                "duration": 0.2045454545454568,
                "tempo": 120.0
            },
            {
                "start_time": 26.68181818181818,
                "end_time": 27.081818181818182,
                "pitch": 64,
                "velocity": 40,
                "duration": 0.40000000000000213,
                "tempo": 120.0
            },
            {
                "start_time": 27.099999999999998,
                "end_time": 30.01590909090909,
                "pitch": 78,
                "velocity": 40,
                "duration": 2.915909090909093,
                "tempo": 120.0
            },
            {
                "start_time": 30.01590909090909,
                "end_time": 30.03181818181818,
                "pitch": 66,
                "velocity": 40,
                "duration": 0.01590909090909065,
                "tempo": 120.0
            }
        ]
    }
}