{
    "track_id": "California Games (FM) - 08 - BMX",
    "mood": "angry",
    "instruments": {
        "Electric Guitar (clean)": [
            {
                "start_time": 0.0,
                "end_time": 0.28863636363636364,
                "pitch": 36,
                "velocity": 64,
                "duration": 0.28863636363636364,
                "tempo": 120.0
            },
            {
                "start_time": 0.3,
                "end_time": 0.3886363636363636,
                "pitch": 36,
                "velocity": 64,
                "duration": 0.08863636363636362,
                "tempo": 120.0
            },
            {
                "start_time": 0.39999999999999997,
                "end_time": 0.6840909090909091,
                "pitch": 36,
                "velocity": 64,
                "duration": 0.2840909090909091,
                "tempo": 120.0
            },
            {
                "start_time": 1.0,
                "end_time": 1.434090909090909,
                "pitch": 36,
                "velocity": 64,
                "duration": 0.4340909090909091,
                "tempo": 120.0
            },
            {
                "start_time": 1.45,
                "end_time": 1.584090909090909,
                "pitch": 36,
                "velocity": 64,
                "duration": 0.13409090909090904,
                "tempo": 120.0
            },
            {
                "start_time": 1.5999999999999999,
                "end_time": 1.7363636363636363,
                "pitch": 36,
                "velocity": 64,
                "duration": 0.13636363636363646,
                "tempo": 120.0
            },
            {
                "start_time": 1.7522727272727272,
                "end_time": 1.8886363636363634,
                "pitch": 31,
                "velocity": 64,
                "duration": 0.13636363636363624,
                "tempo": 120.0
            },
            {
                "start_time": 1.9068181818181817,
                "end_time": 2.040909090909091,
                "pitch": 39,
                "velocity": 64,
                "duration": 0.13409090909090926,
                "tempo": 120.0
            },
            {
                "start_time": 2.059090909090909,
                "end_time": 2.1954545454545453,
                "pitch": 36,
                "velocity": 64,
                "duration": 0.13636363636363624,
                "tempo": 120.0
            },
            {
                "start_time": 2.2113636363636364,
                "end_time": 2.65,
                "pitch": 36,
                "velocity": 64,
                "duration": 0.4386363636363635,
                "tempo": 120.0
            },
            {
                "start_time": 2.6659090909090906,
                "end_time": 2.8022727272727272,
                "pitch": 36,
                "velocity": 64,
                "duration": 0.1363636363636367,
                "tempo": 120.0
            },
            {
                "start_time": 2.818181818181818,
                "end_time": 3.0977272727272727,
                "pitch": 36,
                "velocity": 64,
                "duration": 0.27954545454545476,
                "tempo": 120.0
            },
            {
                "start_time": 3.411363636363636,
                "end_time": 3.8499999999999996,
                "pitch": 36,
                "velocity": 64,
                "duration": 0.4386363636363635,
                "tempo": 120.0
            },
            {
                "start_time": 3.8659090909090907,
                "end_time": 4.002272727272727,
                "pitch": 36,
                "velocity": 64,
                "duration": 0.13636363636363624,
                "tempo": 120.0
            },
            {
                "start_time": 4.018181818181818,
                "end_time": 4.154545454545454,
                "pitch": 36,
                "velocity": 64,
                "duration": 0.1363636363636367,
                "tempo": 120.0
            },
            {
                "start_time": 4.170454545454545,
                "end_time": 4.306818181818182,
                "pitch": 31,
                "velocity": 64,
                "duration": 0.1363636363636367,
                "tempo": 120.0
            },
            {
                "start_time": 4.325,
                "end_time": 4.461363636363636,
                "pitch": 39,
                "velocity": 64,
                "duration": 0.1363636363636358,
                "tempo": 120.0
            },
            {
                "start_time": 4.477272727272727,
                "end_time": 4.613636363636363,
                "pitch": 36,
                "velocity": 64,
                "duration": 0.1363636363636367,
                "tempo": 120.0
            },
            {
                "start_time": 4.629545454545454,
                "end_time": 5.0636363636363635,
                "pitch": 41,
                "velocity": 64,
                "duration": 0.4340909090909095,
                "tempo": 120.0
            },
            {
                "start_time": 5.079545454545454,
                "end_time": 5.213636363636363,
                "pitch": 41,
                "velocity": 64,
                "duration": 0.13409090909090882,
                "tempo": 120.0
            },
            {
                "start_time": 5.2295454545454545,
                "end_time": 5.511363636363636,
                "pitch": 41,
                "velocity": 64,
                "duration": 0.2818181818181813,
                "tempo": 120.0
            },
            {
                "start_time": 5.824999999999999,
                "end_time": 6.259090909090909,
                "pitch": 41,
                "velocity": 64,
                "duration": 0.4340909090909095,
                "tempo": 120.0
            },
            {
                "start_time": 6.2749999999999995,
                "end_time": 6.409090909090909,
                "pitch": 41,
                "velocity": 64,
                "duration": 0.1340909090909097,
                "tempo": 120.0
            },
            {
                "start_time": 6.425,
                "end_time": 6.559090909090909,
                "pitch": 41,
                "velocity": 64,
                "duration": 0.13409090909090882,
                "tempo": 120.0
            },
            {
                "start_time": 6.574999999999999,
                "end_time": 6.709090909090909,
                "pitch": 36,
                "velocity": 64,
                "duration": 0.1340909090909097,
                "tempo": 120.0
            },
            {
                "start_time": 6.725,
                "end_time": 6.8590909090909085,
                "pitch": 44,
                "velocity": 64,
                "duration": 0.13409090909090882,
                "tempo": 120.0
            },
            {
                "start_time": 6.875,
                "end_time": 7.009090909090909,
                "pitch": 41,
                "velocity": 64,
                "duration": 0.13409090909090882,
                "tempo": 120.0
            },
            {
                "start_time": 7.0249999999999995,
                "end_time": 7.465909090909091,
                "pitch": 36,
                "velocity": 64,
                "duration": 0.44090909090909136,
                "tempo": 120.0
            },
            {
                "start_time": 7.4840909090909085,
                "end_time": 7.620454545454545,
                "pitch": 36,
                "velocity": 64,
                "duration": 0.1363636363636367,
                "tempo": 120.0
            },
            {
                "start_time": 7.636363636363636,
                "end_time": 7.918181818181818,
                "pitch": 36,
                "velocity": 64,
                "duration": 0.2818181818181822,
                "tempo": 120.0
            },
            {
                "start_time": 8.23181818181818,
                "end_time": 8.668181818181818,
                "pitch": 36,
                "velocity": 64,
                "duration": 0.4363636363636374,
                "tempo": 120.0
            },
            {
                "start_time": 8.686363636363636,
                "end_time": 8.820454545454545,
                "pitch": 36,
                "velocity": 64,
                "duration": 0.1340909090909097,
                "tempo": 120.0
            },
            {
                "start_time": 8.836363636363636,
                "end_time": 8.970454545454546,
                "pitch": 36,
                "velocity": 64,
                "duration": 0.1340909090909097,
                "tempo": 120.0
            },
            {
                "start_time": 8.986363636363636,
                "end_time": 9.120454545454544,
                "pitch": 31,
                "velocity": 64,
                "duration": 0.13409090909090793,
                "tempo": 120.0
            },
            {
                "start_time": 9.136363636363637,
                "end_time": 9.270454545454545,
                "pitch": 39,
                "velocity": 64,
                "duration": 0.13409090909090793,
                "tempo": 120.0
            },
            {
                "start_time": 9.286363636363635,
                "end_time": 9.420454545454545,
                "pitch": 36,
                "velocity": 64,
                "duration": 0.1340909090909097,
                "tempo": 120.0
            },
            {
                "start_time": 9.436363636363636,
                "end_time": 10.627272727272727,
                "pitch": 36,
                "velocity": 64,
                "duration": 1.1909090909090914,
                "tempo": 120.0
            },
            {
                "start_time": 10.643181818181818,
                "end_time": 11.831818181818182,
                "pitch": 34,
                "velocity": 64,
                "duration": 1.1886363636363644,
                "tempo": 120.0
            },
            {
                "start_time": 11.85,
                "end_time": 13.031818181818181,
                "pitch": 32,
                "velocity": 64,
                "duration": 1.1818181818181817,
                "tempo": 120.0
            },
            {
                "start_time": 13.049999999999999,
                "end_time": 13.331818181818182,
                "pitch": 31,
                "velocity": 64,
                "duration": 0.2818181818181831,
                "tempo": 120.0
            },
            {
                "start_time": 13.35,
                "end_time": 13.631818181818181,
                "pitch": 36,
                "velocity": 64,
                "duration": 0.2818181818181813,
                "tempo": 120.0
            },
            {
                "start_time": 13.649999999999999,
                "end_time": 13.938636363636363,
                "pitch": 36,
                "velocity": 64,
                "duration": 0.288636363636364,
                "tempo": 120.0
            },
            {
                "start_time": 13.954545454545453,
                "end_time": 14.243181818181817,
                "pitch": 36,
                "velocity": 64,
                "duration": 0.288636363636364,
                "tempo": 120.0
            }
        ],
        "Harpsichord": [
            {
                "start_time": 0.0,
                "end_time": 0.08863636363636364,
                "pitch": 40,
                "velocity": 51,
                "duration": 0.08863636363636364,
                "tempo": 120.0
            },
            {
                "start_time": 0.09999999999999999,
                "end_time": 0.18863636363636363,
                "pitch": 40,
                "velocity": 51,
                "duration": 0.08863636363636364,
                "tempo": 120.0
            },
            {
                "start_time": 0.19999999999999998,
                "end_time": 0.28863636363636364,
                "pitch": 41,
                "velocity": 51,
                "duration": 0.08863636363636365,
                "tempo": 120.0
            },
            {
                "start_time": 0.3,
                "end_time": 0.3886363636363636,
                "pitch": 41,
                "velocity": 51,
                "duration": 0.08863636363636362,
                "tempo": 120.0
            },
            {
                "start_time": 0.39999999999999997,
                "end_time": 0.5340909090909091,
                "pitch": 42,
                "velocity": 51,
                "duration": 0.1340909090909091,
                "tempo": 120.0
            },
            {
                "start_time": 0.5499999999999999,
                "end_time": 0.6840909090909091,
                "pitch": 42,
                "velocity": 51,
                "duration": 0.13409090909090915,
                "tempo": 120.0
            },
            {
                "start_time": 0.7,
                "end_time": 0.8340909090909091,
                "pitch": 41,
                "velocity": 51,
                "duration": 0.13409090909090915,
                "tempo": 120.0
            },
            {
                "start_time": 0.85,
                "end_time": 0.984090909090909,
                "pitch": 41,
                "velocity": 51,
                "duration": 0.13409090909090904,
                "tempo": 120.0
            },
            {
                "start_time": 1.0,
                "end_time": 1.134090909090909,
                "pitch": 40,
                "velocity": 51,
                "duration": 0.13409090909090904,
                "tempo": 120.0
            },
            {
                "start_time": 1.15,
                "end_time": 1.284090909090909,
                "pitch": 40,
                "velocity": 51,
                "duration": 0.13409090909090904,
                "tempo": 120.0
            },
            {
                "start_time": 1.3,
                "end_time": 1.434090909090909,
                "pitch": 41,
                "velocity": 51,
                "duration": 0.13409090909090904,
                "tempo": 120.0
            },
            {
                "start_time": 1.45,
                "end_time": 1.584090909090909,
                "pitch": 41,
                "velocity": 51,
                "duration": 0.13409090909090904,
                "tempo": 120.0
            },
            {
                "start_time": 1.5999999999999999,
                "end_time": 1.7363636363636363,
                "pitch": 42,
                "velocity": 51,
                "duration": 0.13636363636363646,
                "tempo": 120.0
            },
            {
                "start_time": 1.7522727272727272,
                "end_time": 1.8886363636363634,
                "pitch": 42,
                "velocity": 51,
                "duration": 0.13636363636363624,
                "tempo": 120.0
            },
            {
                "start_time": 1.9068181818181817,
                "end_time": 2.040909090909091,
                "pitch": 41,
                "velocity": 51,
                "duration": 0.13409090909090926,
                "tempo": 120.0
            },
            {
                "start_time": 2.059090909090909,
                "end_time": 2.1954545454545453,
                "pitch": 41,
                "velocity": 51,
                "duration": 0.13636363636363624,
                "tempo": 120.0
            },
            {
                "start_time": 2.2113636363636364,
                "end_time": 2.3477272727272727,
                "pitch": 40,
                "velocity": 51,
                "duration": 0.13636363636363624,
                "tempo": 120.0
            },
            {
                "start_time": 2.3636363636363633,
                "end_time": 2.4977272727272726,
                "pitch": 40,
                "velocity": 51,
                "duration": 0.13409090909090926,
                "tempo": 120.0
            },
            {
                "start_time": 2.5159090909090907,
                "end_time": 2.65,
                "pitch": 41,
                "velocity": 51,
                "duration": 0.13409090909090926,
                "tempo": 120.0
            },
            {
                "start_time": 2.6659090909090906,
                "end_time": 2.8022727272727272,
                "pitch": 41,
                "velocity": 51,
                "duration": 0.1363636363636367,
                "tempo": 120.0
            },
            {
                "start_time": 2.818181818181818,
                "end_time": 2.9499999999999997,
                "pitch": 42,
                "velocity": 51,
                "duration": 0.13181818181818183,
                "tempo": 120.0
            },
            {
                "start_time": 2.965909090909091,
                "end_time": 3.0977272727272727,
                "pitch": 42,
                "velocity": 51,
                "duration": 0.13181818181818183,
                "tempo": 120.0
            },
            {
                "start_time": 3.1159090909090907,
                "end_time": 3.2477272727272726,
                "pitch": 41,
                "velocity": 51,
                "duration": 0.13181818181818183,
                "tempo": 120.0
            },
            {
                "start_time": 3.2636363636363637,
                "end_time": 3.3954545454545455,
                "pitch": 41,
                "velocity": 51,
                "duration": 0.13181818181818183,
                "tempo": 120.0
            },
            {
                "start_time": 3.411363636363636,
                "end_time": 3.5477272727272724,
                "pitch": 40,
                "velocity": 51,
                "duration": 0.13636363636363624,
                "tempo": 120.0
            },
            {
                "start_time": 3.5636363636363635,
                "end_time": 3.6977272727272728,
                "pitch": 40,
                "velocity": 51,
                "duration": 0.13409090909090926,
                "tempo": 120.0
            },
            {
                "start_time": 3.715909090909091,
                "end_time": 3.8499999999999996,
                "pitch": 41,
                "velocity": 51,
                "duration": 0.13409090909090882,
                "tempo": 120.0
            },
            {
                "start_time": 3.8659090909090907,
                "end_time": 4.002272727272727,
                "pitch": 41,
                "velocity": 51,
                "duration": 0.13636363636363624,
                "tempo": 120.0
            },
            {
                "start_time": 4.018181818181818,
                "end_time": 4.154545454545454,
                "pitch": 42,
                "velocity": 51,
                "duration": 0.1363636363636367,
                "tempo": 120.0
            },
            {
                "start_time": 4.170454545454545,
                "end_time": 4.306818181818182,
                "pitch": 42,
                "velocity": 51,
                "duration": 0.1363636363636367,
                "tempo": 120.0
            },
            {
                "start_time": 4.325,
                "end_time": 4.461363636363636,
                "pitch": 41,
                "velocity": 51,
                "duration": 0.1363636363636358,
                "tempo": 120.0
            },
            {
                "start_time": 4.477272727272727,
                "end_time": 4.613636363636363,
                "pitch": 41,
                "velocity": 51,
                "duration": 0.1363636363636367,
                "tempo": 120.0
            },
            {
                "start_time": 4.629545454545454,
                "end_time": 4.763636363636364,
                "pitch": 45,
                "velocity": 51,
                "duration": 0.1340909090909097,
                "tempo": 120.0
            },
            {
                "start_time": 4.779545454545454,
                "end_time": 4.913636363636363,
                "pitch": 45,
                "velocity": 51,
                "duration": 0.13409090909090882,
                "tempo": 120.0
            },
            {
                "start_time": 4.929545454545455,
                "end_time": 5.0636363636363635,
                "pitch": 46,
                "velocity": 51,
                "duration": 0.13409090909090882,
                "tempo": 120.0
            },
            {
                "start_time": 5.079545454545454,
                "end_time": 5.213636363636363,
                "pitch": 46,
                "velocity": 51,
                "duration": 0.13409090909090882,
                "tempo": 120.0
            },
            {
                "start_time": 5.2295454545454545,
                "end_time": 5.363636363636363,
                "pitch": 47,
                "velocity": 51,
                "duration": 0.13409090909090882,
                "tempo": 120.0
            },
            {
                "start_time": 5.379545454545454,
                "end_time": 5.511363636363636,
                "pitch": 47,
                "velocity": 51,
                "duration": 0.13181818181818183,
                "tempo": 120.0
            },
            {
                "start_time": 5.527272727272727,
                "end_time": 5.659090909090909,
                "pitch": 46,
                "velocity": 51,
                "duration": 0.13181818181818183,
                "tempo": 120.0
            },
            {
                "start_time": 5.677272727272727,
                "end_time": 5.809090909090909,
                "pitch": 46,
                "velocity": 51,
                "duration": 0.13181818181818183,
                "tempo": 120.0
            },
            {
                "start_time": 5.824999999999999,
                "end_time": 5.959090909090909,
                "pitch": 45,
                "velocity": 51,
                "duration": 0.1340909090909097,
                "tempo": 120.0
            },
            {
                "start_time": 5.975,
                "end_time": 6.1090909090909085,
                "pitch": 45,
                "velocity": 51,
                "duration": 0.13409090909090882,
                "tempo": 120.0
            },
            {
                "start_time": 6.125,
                "end_time": 6.259090909090909,
                "pitch": 46,
                "velocity": 51,
                "duration": 0.13409090909090882,
                "tempo": 120.0
            },
            {
                "start_time": 6.2749999999999995,
                "end_time": 6.409090909090909,
                "pitch": 46,
                "velocity": 51,
                "duration": 0.1340909090909097,
                "tempo": 120.0
            },
            {
                "start_time": 6.425,
                "end_time": 6.559090909090909,
                "pitch": 47,
                "velocity": 51,
                "duration": 0.13409090909090882,
                "tempo": 120.0
            },
            {
                "start_time": 6.574999999999999,
                "end_time": 6.709090909090909,
                "pitch": 47,
                "velocity": 51,
                "duration": 0.1340909090909097,
                "tempo": 120.0
            },
            {
                "start_time": 6.725,
                "end_time": 6.8590909090909085,
                "pitch": 46,
                "velocity": 51,
                "duration": 0.13409090909090882,
                "tempo": 120.0
            },
            {
                "start_time": 6.875,
                "end_time": 7.009090909090909,
                "pitch": 46,
                "velocity": 51,
                "duration": 0.13409090909090882,
                "tempo": 120.0
            },
            {
                "start_time": 7.0249999999999995,
                "end_time": 7.161363636363636,
                "pitch": 40,
                "velocity": 51,
                "duration": 0.1363636363636367,
                "tempo": 120.0
            },
            {
                "start_time": 7.177272727272727,
                "end_time": 7.3136363636363635,
                "pitch": 40,
                "velocity": 51,
                "duration": 0.1363636363636367,
                "tempo": 120.0
            },
            {
                "start_time": 7.329545454545454,
                "end_time": 7.465909090909091,
                "pitch": 41,
                "velocity": 51,
                "duration": 0.1363636363636367,
                "tempo": 120.0
            },
            {
                "start_time": 7.4840909090909085,
                "end_time": 7.620454545454545,
                "pitch": 41,
                "velocity": 51,
                "duration": 0.1363636363636367,
                "tempo": 120.0
            },
            {
                "start_time": 7.636363636363636,
                "end_time": 7.768181818181818,
                "pitch": 42,
                "velocity": 51,
                "duration": 0.13181818181818183,
                "tempo": 120.0
            },
            {
                "start_time": 7.786363636363636,
                "end_time": 7.918181818181818,
                "pitch": 42,
                "velocity": 51,
                "duration": 0.13181818181818183,
                "tempo": 120.0
            },
            {
                "start_time": 7.934090909090909,
                "end_time": 8.065909090909091,
                "pitch": 41,
                "velocity": 51,
                "duration": 0.13181818181818272,
                "tempo": 120.0
            },
            {
                "start_time": 8.081818181818182,
                "end_time": 8.213636363636363,
                "pitch": 41,
                "velocity": 51,
                "duration": 0.13181818181818095,
                "tempo": 120.0
            },
            {
                "start_time": 8.23181818181818,
                "end_time": 8.36590909090909,
                "pitch": 40,
                "velocity": 51,
                "duration": 0.1340909090909097,
                "tempo": 120.0
            },
            {
                "start_time": 8.381818181818181,
                "end_time": 8.51590909090909,
                "pitch": 40,
                "velocity": 51,
                "duration": 0.1340909090909097,
                "tempo": 120.0
            },
            {
                "start_time": 8.534090909090908,
                "end_time": 8.668181818181818,
                "pitch": 41,
                "velocity": 51,
                "duration": 0.1340909090909097,
                "tempo": 120.0
            },
            {
                "start_time": 8.686363636363636,
                "end_time": 8.820454545454545,
                "pitch": 41,
                "velocity": 51,
                "duration": 0.1340909090909097,
                "tempo": 120.0
            },
            {
                "start_time": 8.836363636363636,
                "end_time": 8.970454545454546,
                "pitch": 42,
                "velocity": 51,
                "duration": 0.1340909090909097,
                "tempo": 120.0
            },
            {
                "start_time": 8.986363636363636,
                "end_time": 9.120454545454544,
                "pitch": 42,
                "velocity": 51,
                "duration": 0.13409090909090793,
                "tempo": 120.0
            },
            {
                "start_time": 9.136363636363637,
                "end_time": 9.270454545454545,
                "pitch": 41,
                "velocity": 51,
                "duration": 0.13409090909090793,
                "tempo": 120.0
            },
            {
                "start_time": 9.286363636363635,
                "end_time": 9.420454545454545,
                "pitch": 41,
                "velocity": 51,
                "duration": 0.1340909090909097,
                "tempo": 120.0
            },
            {
                "start_time": 9.436363636363636,
                "end_time": 9.572727272727272,
                "pitch": 47,
                "velocity": 51,
                "duration": 0.1363636363636367,
                "tempo": 120.0
            },
            {
                "start_time": 9.588636363636363,
                "end_time": 9.725,
                "pitch": 47,
                "velocity": 51,
                "duration": 0.1363636363636367,
                "tempo": 120.0
            },
            {
                "start_time": 9.743181818181817,
                "end_time": 9.879545454545454,
                "pitch": 47,
                "velocity": 51,
                "duration": 0.1363636363636367,
                "tempo": 120.0
            },
            {
                "start_time": 9.895454545454545,
                "end_time": 10.031818181818181,
                "pitch": 47,
                "velocity": 51,
                "duration": 0.1363636363636367,
                "tempo": 120.0
            },
            {
                "start_time": 10.049999999999999,
                "end_time": 10.181818181818182,
                "pitch": 47,
                "velocity": 51,
                "duration": 0.13181818181818272,
                "tempo": 120.0
            },
            {
                "start_time": 10.197727272727272,
                "end_time": 10.329545454545453,
                "pitch": 47,
                "velocity": 51,
                "duration": 0.13181818181818095,
                "tempo": 120.0
            },
            {
                "start_time": 10.345454545454546,
                "end_time": 10.477272727272727,
                "pitch": 47,
                "velocity": 51,
                "duration": 0.13181818181818095,
                "tempo": 120.0
            },
            {
                "start_time": 10.495454545454544,
                "end_time": 10.627272727272727,
                "pitch": 47,
                "velocity": 51,
                "duration": 0.13181818181818272,
                "tempo": 120.0
            },
            {
                "start_time": 10.643181818181818,
                "end_time": 10.777272727272727,
                "pitch": 48,
                "velocity": 51,
                "duration": 0.1340909090909097,
                "tempo": 120.0
            },
            {
                "start_time": 10.795454545454545,
                "end_time": 10.929545454545455,
                "pitch": 48,
                "velocity": 51,
                "duration": 0.1340909090909097,
                "tempo": 120.0
            },
            {
                "start_time": 10.945454545454545,
                "end_time": 11.081818181818182,
                "pitch": 48,
                "velocity": 51,
                "duration": 0.1363636363636367,
                "tempo": 120.0
            },
            {
                "start_time": 11.097727272727273,
                "end_time": 11.23181818181818,
                "pitch": 48,
                "velocity": 51,
                "duration": 0.13409090909090793,
                "tempo": 120.0
            },
            {
                "start_time": 11.25,
                "end_time": 11.381818181818181,
                "pitch": 48,
                "velocity": 51,
                "duration": 0.13181818181818095,
                "tempo": 120.0
            },
            {
                "start_time": 11.399999999999999,
                "end_time": 11.531818181818181,
                "pitch": 48,
                "velocity": 51,
                "duration": 0.13181818181818272,
                "tempo": 120.0
            },
            {
                "start_time": 11.549999999999999,
                "end_time": 11.681818181818182,
                "pitch": 48,
                "velocity": 51,
                "duration": 0.13181818181818272,
                "tempo": 120.0
            },
            {
                "start_time": 11.7,
                "end_time": 11.831818181818182,
                "pitch": 48,
                "velocity": 51,
                "duration": 0.13181818181818272,
                "tempo": 120.0
            },
            {
                "start_time": 11.85,
                "end_time": 11.98181818181818,
                "pitch": 50,
                "velocity": 51,
                "duration": 0.13181818181818095,
                "tempo": 120.0
            },
            {
                "start_time": 12.0,
                "end_time": 12.131818181818181,
                "pitch": 50,
                "velocity": 51,
                "duration": 0.13181818181818095,
                "tempo": 120.0
            },
            {
                "start_time": 12.149999999999999,
                "end_time": 12.281818181818181,
                "pitch": 50,
                "velocity": 51,
                "duration": 0.13181818181818272,
                "tempo": 120.0
            },
            {
                "start_time": 12.299999999999999,
                "end_time": 12.431818181818182,
                "pitch": 50,
                "velocity": 51,
                "duration": 0.13181818181818272,
                "tempo": 120.0
            },
            {
                "start_time": 12.45,
                "end_time": 12.581818181818182,
                "pitch": 50,
                "velocity": 51,
                "duration": 0.13181818181818272,
                "tempo": 120.0
            },
            {
                "start_time": 12.6,
                "end_time": 12.73181818181818,
                "pitch": 50,
                "velocity": 51,
                "duration": 0.13181818181818095,
                "tempo": 120.0
            },
            {
                "start_time": 12.75,
                "end_time": 12.881818181818181,
                "pitch": 50,
                "velocity": 51,
                "duration": 0.13181818181818095,
                "tempo": 120.0
            },
            {
                "start_time": 12.899999999999999,
                "end_time": 13.031818181818181,
                "pitch": 50,
                "velocity": 51,
                "duration": 0.13181818181818272,
                "tempo": 120.0
            },
            {
                "start_time": 13.049999999999999,
                "end_time": 13.331818181818182,
                "pitch": 52,
                "velocity": 51,
                "duration": 0.2818181818181831,
                "tempo": 120.0
            },
            {
                "start_time": 13.35,
                "end_time": 13.631818181818181,
                "pitch": 40,
                "velocity": 51,
                "duration": 0.2818181818181813,
                "tempo": 120.0
            },
            {
                "start_time": 13.649999999999999,
                "end_time": 13.938636363636363,
                "pitch": 40,
                "velocity": 51,
                "duration": 0.288636363636364,
                "tempo": 120.0
            },
            {
                "start_time": 13.954545454545453,
                "end_time": 14.243181818181817,
                "pitch": 40,
                "velocity": 51,
                "duration": 0.288636363636364,
                "tempo": 120.0
            }
        ],
        "Lead 2 (sawtooth)": [
            {
                "start_time": 0.022727272727272728,
                "end_time": 0.09999999999999999,
                "pitch": 52,
                "velocity": 51,
                "duration": 0.07727272727272727,
                "tempo": 120.0
            },
            {
                "start_time": 0.12272727272727273,
                "end_time": 0.19999999999999998,
                "pitch": 52,
                "velocity": 51,
                "duration": 0.07727272727272726,
                "tempo": 120.0
            },
            {
                "start_time": 0.22272727272727272,
                "end_time": 0.3,
                "pitch": 53,
                "velocity": 51,
                "duration": 0.07727272727272727,
                "tempo": 120.0
            },
            {
                "start_time": 0.3227272727272727,
                "end_time": 0.39999999999999997,
                "pitch": 53,
                "velocity": 51,
                "duration": 0.07727272727272727,
                "tempo": 120.0
            },
            {
                "start_time": 0.4340909090909091,
                "end_time": 0.5499999999999999,
                "pitch": 54,
                "velocity": 51,
                "duration": 0.11590909090909085,
                "tempo": 120.0
            },
            {
                "start_time": 0.5840909090909091,
                "end_time": 0.7,
                "pitch": 54,
                "velocity": 51,
                "duration": 0.11590909090909085,
                "tempo": 120.0
            },
            {
                "start_time": 0.734090909090909,
                "end_time": 0.85,
                "pitch": 53,
                "velocity": 51,
                "duration": 0.11590909090909096,
                "tempo": 120.0
            },
            {
                "start_time": 0.884090909090909,
                "end_time": 1.0,
                "pitch": 53,
                "velocity": 51,
                "duration": 0.11590909090909096,
                "tempo": 120.0
            },
            {
                "start_time": 1.034090909090909,
                "end_time": 1.15,
                "pitch": 52,
                "velocity": 51,
                "duration": 0.11590909090909096,
                "tempo": 120.0
            },
            {
                "start_time": 1.184090909090909,
                "end_time": 1.3,
                "pitch": 52,
                "velocity": 51,
                "duration": 0.11590909090909096,
                "tempo": 120.0
            },
            {
                "start_time": 1.334090909090909,
                "end_time": 1.45,
                "pitch": 53,
                "velocity": 51,
                "duration": 0.11590909090909096,
                "tempo": 120.0
            },
            {
                "start_time": 1.4840909090909091,
                "end_time": 1.5999999999999999,
                "pitch": 53,
                "velocity": 51,
                "duration": 0.11590909090909074,
                "tempo": 120.0
            },
            {
                "start_time": 1.634090909090909,
                "end_time": 1.7522727272727272,
                "pitch": 54,
                "velocity": 51,
                "duration": 0.11818181818181817,
                "tempo": 120.0
            },
            {
                "start_time": 1.7863636363636364,
                "end_time": 1.9068181818181817,
                "pitch": 54,
                "velocity": 51,
                "duration": 0.12045454545454537,
                "tempo": 120.0
            },
            {
                "start_time": 1.940909090909091,
                "end_time": 2.059090909090909,
                "pitch": 53,
                "velocity": 51,
                "duration": 0.11818181818181817,
                "tempo": 120.0
            },
            {
                "start_time": 2.0931818181818183,
                "end_time": 2.2295454545454545,
                "pitch": 53,
                "velocity": 51,
                "duration": 0.13636363636363624,
                "tempo": 120.0
            },
            {
                "start_time": 2.245454545454545,
                "end_time": 2.3636363636363633,
                "pitch": 52,
                "velocity": 51,
                "duration": 0.11818181818181817,
                "tempo": 120.0
            },
            {
                "start_time": 2.3977272727272725,
                "end_time": 2.5159090909090907,
                "pitch": 52,
                "velocity": 51,
                "duration": 0.11818181818181817,
                "tempo": 120.0
            },
            {
                "start_time": 2.5477272727272724,
                "end_time": 2.6659090909090906,
                "pitch": 53,
                "velocity": 51,
                "duration": 0.11818181818181817,
                "tempo": 120.0
            },
            {
                "start_time": 2.6999999999999997,
                "end_time": 2.818181818181818,
                "pitch": 53,
                "velocity": 51,
                "duration": 0.11818181818181817,
                "tempo": 120.0
            },
            {
                "start_time": 2.852272727272727,
                "end_time": 2.965909090909091,
                "pitch": 54,
                "velocity": 51,
                "duration": 0.11363636363636376,
                "tempo": 120.0
            },
            {
                "start_time": 3.0,
                "end_time": 3.1159090909090907,
                "pitch": 54,
                "velocity": 51,
                "duration": 0.11590909090909074,
                "tempo": 120.0
            },
            {
                "start_time": 3.1477272727272725,
                "end_time": 3.2636363636363637,
                "pitch": 53,
                "velocity": 51,
                "duration": 0.11590909090909118,
                "tempo": 120.0
            },
            {
                "start_time": 3.2977272727272724,
                "end_time": 3.411363636363636,
                "pitch": 53,
                "velocity": 51,
                "duration": 0.11363636363636376,
                "tempo": 120.0
            },
            {
                "start_time": 3.4454545454545453,
                "end_time": 3.5636363636363635,
                "pitch": 52,
                "velocity": 51,
                "duration": 0.11818181818181817,
                "tempo": 120.0
            },
            {
                "start_time": 3.5977272727272727,
                "end_time": 3.715909090909091,
                "pitch": 52,
                "velocity": 51,
                "duration": 0.11818181818181817,
                "tempo": 120.0
            },
            {
                "start_time": 3.75,
                "end_time": 3.8659090909090907,
                "pitch": 53,
                "velocity": 51,
                "duration": 0.11590909090909074,
                "tempo": 120.0
            },
            {
                "start_time": 3.9,
                "end_time": 4.018181818181818,
                "pitch": 53,
                "velocity": 51,
                "duration": 0.11818181818181772,
                "tempo": 120.0
            },
            {
                "start_time": 4.052272727272727,
                "end_time": 4.170454545454545,
                "pitch": 54,
                "velocity": 51,
                "duration": 0.11818181818181817,
                "tempo": 120.0
            },
            {
                "start_time": 4.204545454545454,
                "end_time": 4.325,
                "pitch": 54,
                "velocity": 51,
                "duration": 0.12045454545454604,
                "tempo": 120.0
            },
            {
                "start_time": 4.3590909090909085,
                "end_time": 4.477272727272727,
                "pitch": 53,
                "velocity": 51,
                "duration": 0.11818181818181817,
                "tempo": 120.0
            },
            {
                "start_time": 4.511363636363636,
                "end_time": 4.629545454545454,
                "pitch": 53,
                "velocity": 51,
                "duration": 0.11818181818181817,
                "tempo": 120.0
            },
            {
                "start_time": 4.663636363636363,
                "end_time": 4.779545454545454,
                "pitch": 57,
                "velocity": 51,
                "duration": 0.11590909090909118,
                "tempo": 120.0
            },
            {
                "start_time": 4.8136363636363635,
                "end_time": 4.929545454545455,
                "pitch": 57,
                "velocity": 51,
                "duration": 0.11590909090909118,
                "tempo": 120.0
            },
            {
                "start_time": 4.963636363636363,
                "end_time": 5.079545454545454,
                "pitch": 58,
                "velocity": 51,
                "duration": 0.11590909090909118,
                "tempo": 120.0
            },
            {
                "start_time": 5.113636363636363,
                "end_time": 5.2295454545454545,
                "pitch": 58,
                "velocity": 51,
                "duration": 0.11590909090909118,
                "tempo": 120.0
            },
            {
                "start_time": 5.263636363636364,
                "end_time": 5.379545454545454,
                "pitch": 59,
                "velocity": 51,
                "duration": 0.1159090909090903,
                "tempo": 120.0
            },
            {
                "start_time": 5.411363636363636,
                "end_time": 5.527272727272727,
                "pitch": 59,
                "velocity": 51,
                "duration": 0.11590909090909118,
                "tempo": 120.0
            },
            {
                "start_time": 5.5613636363636365,
                "end_time": 5.677272727272727,
                "pitch": 58,
                "velocity": 51,
                "duration": 0.1159090909090903,
                "tempo": 120.0
            },
            {
                "start_time": 5.709090909090909,
                "end_time": 5.824999999999999,
                "pitch": 58,
                "velocity": 51,
                "duration": 0.1159090909090903,
                "tempo": 120.0
            },
            {
                "start_time": 5.8590909090909085,
                "end_time": 5.975,
                "pitch": 57,
                "velocity": 51,
                "duration": 0.11590909090909118,
                "tempo": 120.0
            },
            {
                "start_time": 6.009090909090909,
                "end_time": 6.125,
                "pitch": 57,
                "velocity": 51,
                "duration": 0.11590909090909118,
                "tempo": 120.0
            },
            {
                "start_time": 6.159090909090909,
                "end_time": 6.2749999999999995,
                "pitch": 58,
                "velocity": 51,
                "duration": 0.1159090909090903,
                "tempo": 120.0
            },
            {
                "start_time": 6.309090909090909,
                "end_time": 6.425,
                "pitch": 58,
                "velocity": 51,
                "duration": 0.11590909090909118,
                "tempo": 120.0
            },
            {
                "start_time": 6.459090909090909,
                "end_time": 6.574999999999999,
                "pitch": 59,
                "velocity": 51,
                "duration": 0.1159090909090903,
                "tempo": 120.0
            },
            {
                "start_time": 6.6090909090909085,
                "end_time": 6.725,
                "pitch": 59,
                "velocity": 51,
                "duration": 0.11590909090909118,
                "tempo": 120.0
            },
            {
                "start_time": 6.759090909090909,
                "end_time": 6.875,
                "pitch": 58,
                "velocity": 51,
                "duration": 0.11590909090909118,
                "tempo": 120.0
            },
            {
                "start_time": 6.909090909090909,
                "end_time": 7.0249999999999995,
                "pitch": 58,
                "velocity": 51,
                "duration": 0.1159090909090903,
                "tempo": 120.0
            },
            {
                "start_time": 7.059090909090909,
                "end_time": 7.177272727272727,
                "pitch": 52,
                "velocity": 51,
                "duration": 0.11818181818181817,
                "tempo": 120.0
            },
            {
                "start_time": 7.211363636363636,
                "end_time": 7.329545454545454,
                "pitch": 52,
                "velocity": 51,
                "duration": 0.11818181818181817,
                "tempo": 120.0
            },
            {
                "start_time": 7.363636363636363,
                "end_time": 7.4840909090909085,
                "pitch": 53,
                "velocity": 51,
                "duration": 0.12045454545454515,
                "tempo": 120.0
            },
            {
                "start_time": 7.518181818181818,
                "end_time": 7.636363636363636,
                "pitch": 53,
                "velocity": 51,
                "duration": 0.11818181818181817,
                "tempo": 120.0
            },
            {
                "start_time": 7.670454545454545,
                "end_time": 7.786363636363636,
                "pitch": 54,
                "velocity": 51,
                "duration": 0.11590909090909118,
                "tempo": 120.0
            },
            {
                "start_time": 7.8181818181818175,
                "end_time": 7.934090909090909,
                "pitch": 54,
                "velocity": 51,
                "duration": 0.11590909090909118,
                "tempo": 120.0
            },
            {
                "start_time": 7.965909090909091,
                "end_time": 8.081818181818182,
                "pitch": 53,
                "velocity": 51,
                "duration": 0.11590909090909118,
                "tempo": 120.0
            },
            {
                "start_time": 8.11590909090909,
                "end_time": 8.23181818181818,
                "pitch": 53,
                "velocity": 51,
                "duration": 0.1159090909090903,
                "tempo": 120.0
            },
            {
                "start_time": 8.263636363636364,
                "end_time": 8.381818181818181,
                "pitch": 52,
                "velocity": 51,
                "duration": 0.11818181818181728,
                "tempo": 120.0
            },
            {
                "start_time": 8.415909090909091,
                "end_time": 8.534090909090908,
                "pitch": 52,
                "velocity": 51,
                "duration": 0.11818181818181728,
                "tempo": 120.0
            },
            {
                "start_time": 8.568181818181818,
                "end_time": 8.686363636363636,
                "pitch": 53,
                "velocity": 51,
                "duration": 0.11818181818181728,
                "tempo": 120.0
            },
            {
                "start_time": 8.718181818181817,
                "end_time": 8.836363636363636,
                "pitch": 53,
                "velocity": 51,
                "duration": 0.11818181818181905,
                "tempo": 120.0
            },
            {
                "start_time": 8.870454545454544,
                "end_time": 8.986363636363636,
                "pitch": 54,
                "velocity": 51,
                "duration": 0.11590909090909207,
                "tempo": 120.0
            },
            {
                "start_time": 9.020454545454545,
                "end_time": 9.136363636363637,
                "pitch": 54,
                "velocity": 51,
                "duration": 0.11590909090909207,
                "tempo": 120.0
            },
            {
                "start_time": 9.170454545454545,
                "end_time": 9.286363636363635,
                "pitch": 53,
                "velocity": 51,
                "duration": 0.1159090909090903,
                "tempo": 120.0
            },
            {
                "start_time": 9.320454545454545,
                "end_time": 9.436363636363636,
                "pitch": 53,
                "velocity": 51,
                "duration": 0.1159090909090903,
                "tempo": 120.0
            },
            {
                "start_time": 9.470454545454546,
                "end_time": 9.588636363636363,
                "pitch": 59,
                "velocity": 51,
                "duration": 0.11818181818181728,
                "tempo": 120.0
            },
            {
                "start_time": 9.622727272727273,
                "end_time": 9.743181818181817,
                "pitch": 59,
                "velocity": 51,
                "duration": 0.12045454545454426,
                "tempo": 120.0
            },
            {
                "start_time": 9.777272727272727,
                "end_time": 9.895454545454545,
                "pitch": 59,
                "velocity": 51,
                "duration": 0.11818181818181728,
                "tempo": 120.0
            },
            {
                "start_time": 9.929545454545455,
                "end_time": 10.049999999999999,
                "pitch": 59,
                "velocity": 51,
                "duration": 0.12045454545454426,
                "tempo": 120.0
            },
            {
                "start_time": 10.081818181818182,
                "end_time": 10.197727272727272,
                "pitch": 59,
                "velocity": 51,
                "duration": 0.1159090909090903,
                "tempo": 120.0
            },
            {
                "start_time": 10.229545454545454,
                "end_time": 10.345454545454546,
                "pitch": 59,
                "velocity": 51,
                "duration": 0.11590909090909207,
                "tempo": 120.0
            },
            {
                "start_time": 10.379545454545454,
                "end_time": 10.495454545454544,
                "pitch": 59,
                "velocity": 51,
                "duration": 0.1159090909090903,
                "tempo": 120.0
            },
            {
                "start_time": 10.527272727272727,
                "end_time": 10.643181818181818,
                "pitch": 59,
                "velocity": 51,
                "duration": 0.1159090909090903,
                "tempo": 120.0
            },
            {
                "start_time": 10.677272727272726,
                "end_time": 10.795454545454545,
                "pitch": 60,
                "velocity": 51,
                "duration": 0.11818181818181905,
                "tempo": 120.0
            },
            {
                "start_time": 10.827272727272726,
                "end_time": 10.945454545454545,
                "pitch": 60,
                "velocity": 51,
                "duration": 0.11818181818181905,
                "tempo": 120.0
            },
            {
                "start_time": 10.979545454545454,
                "end_time": 11.097727272727273,
                "pitch": 60,
                "velocity": 51,
                "duration": 0.11818181818181905,
                "tempo": 120.0
            },
            {
                "start_time": 11.131818181818181,
                "end_time": 11.25,
                "pitch": 60,
                "velocity": 51,
                "duration": 0.11818181818181905,
                "tempo": 120.0
            },
            {
                "start_time": 11.281818181818181,
                "end_time": 11.399999999999999,
                "pitch": 60,
                "velocity": 51,
                "duration": 0.11818181818181728,
                "tempo": 120.0
            },
            {
                "start_time": 11.431818181818182,
                "end_time": 11.549999999999999,
                "pitch": 60,
                "velocity": 51,
                "duration": 0.11818181818181728,
                "tempo": 120.0
            },
            {
                "start_time": 11.581818181818182,
                "end_time": 11.7,
                "pitch": 60,
                "velocity": 51,
                "duration": 0.11818181818181728,
                "tempo": 120.0
            },
            {
                "start_time": 11.73181818181818,
                "end_time": 11.85,
                "pitch": 60,
                "velocity": 51,
                "duration": 0.11818181818181905,
                "tempo": 120.0
            },
            {
                "start_time": 11.881818181818181,
                "end_time": 12.0,
                "pitch": 62,
                "velocity": 51,
                "duration": 0.11818181818181905,
                "tempo": 120.0
            },
            {
                "start_time": 12.031818181818181,
                "end_time": 12.149999999999999,
                "pitch": 62,
                "velocity": 51,
                "duration": 0.11818181818181728,
                "tempo": 120.0
            },
            {
                "start_time": 12.181818181818182,
                "end_time": 12.299999999999999,
                "pitch": 62,
                "velocity": 51,
                "duration": 0.11818181818181728,
                "tempo": 120.0
            },
            {
                "start_time": 12.331818181818182,
                "end_time": 12.45,
                "pitch": 62,
                "velocity": 51,
                "duration": 0.11818181818181728,
                "tempo": 120.0
            },
            {
                "start_time": 12.48181818181818,
                "end_time": 12.6,
                "pitch": 62,
                "velocity": 51,
                "duration": 0.11818181818181905,
                "tempo": 120.0
            },
            {
                "start_time": 12.631818181818181,
                "end_time": 12.75,
                "pitch": 62,
                "velocity": 51,
                "duration": 0.11818181818181905,
                "tempo": 120.0
            },
            {
                "start_time": 12.781818181818181,
                "end_time": 12.899999999999999,
                "pitch": 62,
                "velocity": 51,
                "duration": 0.11818181818181728,
                "tempo": 120.0
            },
            {
                "start_time": 12.931818181818182,
                "end_time": 13.049999999999999,
                "pitch": 62,
                "velocity": 51,
                "duration": 0.11818181818181728,
                "tempo": 120.0
            },
            {
                "start_time": 13.081818181818182,
                "end_time": 13.35,
                "pitch": 64,
                "velocity": 51,
                "duration": 0.26818181818181763,
                "tempo": 120.0
            },
            {
                "start_time": 13.381818181818181,
                "end_time": 13.649999999999999,
                "pitch": 52,
                "velocity": 51,
                "duration": 0.26818181818181763,
                "tempo": 120.0
            },
            {
                "start_time": 13.681818181818182,
                "end_time": 13.954545454545453,
                "pitch": 52,
                "velocity": 51,
                "duration": 0.2727272727272716,
                "tempo": 120.0
            },
            {
                "start_time": 13.988636363636363,
                "end_time": 14.261363636363635,
                "pitch": 52,
                "velocity": 51,
                "duration": 0.2727272727272716,
                "tempo": 120.0
            }
        ]
    }
}