{
    "track_id": "Captain Silver (FM) - 01 - Title Screen",
    "mood": "angry",
    "instruments": {
        "Acoustic Bass": [
            {
                "start_time": 0.013636363636363636,
                "end_time": 0.19772727272727272,
                "pitch": 60,
                "velocity": 40,
                "duration": 0.18409090909090908,
                "tempo": 120.0
            },
            {
                "start_time": 0.21363636363636362,
                "end_time": 0.4318181818181818,
                "pitch": 60,
                "velocity": 40,
                "duration": 0.2181818181818182,
                "tempo": 120.0
            },
            {
                "start_time": 0.4477272727272727,
                "end_time": 0.6363636363636364,
                "pitch": 60,
                "velocity": 40,
                "duration": 0.18863636363636366,
                "tempo": 120.0
            },
            {
                "start_time": 0.6681818181818181,
                "end_time": 0.8545454545454545,
                "pitch": 60,
                "velocity": 40,
                "duration": 0.1863636363636364,
                "tempo": 120.0
            },
            {
                "start_time": 0.8704545454545454,
                "end_time": 1.0886363636363636,
                "pitch": 60,
                "velocity": 40,
                "duration": 0.21818181818181825,
                "tempo": 120.0
            },
            {
                "start_time": 1.1045454545454545,
                "end_time": 1.3227272727272728,
                "pitch": 60,
                "velocity": 40,
                "duration": 0.21818181818181825,
                "tempo": 120.0
            },
            {
                "start_time": 1.3386363636363636,
                "end_time": 1.5386363636363636,
                "pitch": 58,
                "velocity": 40,
                "duration": 0.19999999999999996,
                "tempo": 120.0
            },
            {
                "start_time": 1.5568181818181817,
                "end_time": 1.7727272727272727,
                "pitch": 58,
                "velocity": 40,
                "duration": 0.21590909090909105,
                "tempo": 120.0
            },
            {
                "start_time": 1.7886363636363636,
                "end_time": 1.9977272727272726,
                "pitch": 58,
                "velocity": 40,
                "duration": 0.209090909090909,
                "tempo": 120.0
            },
            {
                "start_time": 2.0136363636363637,
                "end_time": 2.2045454545454546,
                "pitch": 58,
                "velocity": 40,
                "duration": 0.19090909090909092,
                "tempo": 120.0
            },
            {
                "start_time": 2.2363636363636363,
                "end_time": 2.443181818181818,
                "pitch": 58,
                "velocity": 40,
                "duration": 0.20681818181818157,
                "tempo": 120.0
            },
            {
                "start_time": 2.459090909090909,
                "end_time": 2.6818181818181817,
                "pitch": 58,
                "velocity": 40,
                "duration": 0.22272727272727266,
                "tempo": 120.0
            },
            {
                "start_time": 2.6999999999999997,
                "end_time": 2.9159090909090906,
                "pitch": 60,
                "velocity": 40,
                "duration": 0.21590909090909083,
                "tempo": 120.0
            },
            {
                "start_time": 2.934090909090909,
                "end_time": 3.134090909090909,
                "pitch": 60,
                "velocity": 40,
                "duration": 0.19999999999999973,
                "tempo": 120.0
            },
            {
                "start_time": 3.15,
                "end_time": 3.359090909090909,
                "pitch": 60,
                "velocity": 40,
                "duration": 0.209090909090909,
                "tempo": 120.0
            },
            {
                "start_time": 3.375,
                "end_time": 3.5818181818181816,
                "pitch": 60,
                "velocity": 40,
                "duration": 0.20681818181818157,
                "tempo": 120.0
            },
            {
                "start_time": 3.5977272727272727,
                "end_time": 3.8045454545454542,
                "pitch": 60,
                "velocity": 40,
                "duration": 0.20681818181818157,
                "tempo": 120.0
            },
            {
                "start_time": 3.8386363636363634,
                "end_time": 4.043181818181818,
                "pitch": 60,
                "velocity": 40,
                "duration": 0.20454545454545459,
                "tempo": 120.0
            },
            {
                "start_time": 5.4386363636363635,
                "end_time": 5.5204545454545455,
                "pitch": 63,
                "velocity": 40,
                "duration": 0.08181818181818201,
                "tempo": 120.0
            },
            {
                "start_time": 5.538636363636363,
                "end_time": 5.754545454545454,
                "pitch": 62,
                "velocity": 40,
                "duration": 0.21590909090909083,
                "tempo": 120.0
            },
            {
                "start_time": 5.7727272727272725,
                "end_time": 5.872727272727272,
                "pitch": 60,
                "velocity": 40,
                "duration": 0.09999999999999964,
                "tempo": 120.0
            },
            {
                "start_time": 5.888636363636364,
                "end_time": 6.111363636363636,
                "pitch": 58,
                "velocity": 40,
                "duration": 0.22272727272727266,
                "tempo": 120.0
            },
            {
                "start_time": 6.129545454545454,
                "end_time": 6.213636363636363,
                "pitch": 60,
                "velocity": 40,
                "duration": 0.084090909090909,
                "tempo": 120.0
            },
            {
                "start_time": 6.247727272727272,
                "end_time": 6.454545454545454,
                "pitch": 58,
                "velocity": 40,
                "duration": 0.206818181818182,
                "tempo": 120.0
            },
            {
                "start_time": 6.470454545454545,
                "end_time": 6.572727272727272,
                "pitch": 56,
                "velocity": 40,
                "duration": 0.10227272727272751,
                "tempo": 120.0
            },
            {
                "start_time": 6.590909090909091,
                "end_time": 6.8136363636363635,
                "pitch": 55,
                "velocity": 40,
                "duration": 0.22272727272727266,
                "tempo": 120.0
            },
            {
                "start_time": 6.829545454545454,
                "end_time": 6.927272727272727,
                "pitch": 56,
                "velocity": 40,
                "duration": 0.09772727272727266,
                "tempo": 120.0
            },
            {
                "start_time": 6.9431818181818175,
                "end_time": 7.134090909090909,
                "pitch": 55,
                "velocity": 40,
                "duration": 0.19090909090909136,
                "tempo": 120.0
            },
            {
                "start_time": 7.1499999999999995,
                "end_time": 7.245454545454545,
                "pitch": 53,
                "velocity": 40,
                "duration": 0.09545454545454568,
                "tempo": 120.0
            },
            {
                "start_time": 7.261363636363636,
                "end_time": 9.043181818181818,
                "pitch": 52,
                "velocity": 40,
                "duration": 1.7818181818181822,
                "tempo": 120.0
            }
        ],
        "Clarinet": [
            {
                "start_time": 0.031818181818181815,
                "end_time": 0.04772727272727272,
                "pitch": 43,
                "velocity": 32,
                "duration": 0.015909090909090907,
                "tempo": 120.0
            },
            {
                "start_time": 0.06363636363636363,
                "end_time": 0.9363636363636363,
                "pitch": 60,
                "velocity": 32,
                "duration": 0.8727272727272727,
                "tempo": 120.0
            },
            {
                "start_time": 0.9545454545454545,
                "end_time": 1.3886363636363637,
                "pitch": 67,
                "velocity": 32,
                "duration": 0.4340909090909092,
                "tempo": 120.0
            },
            {
                "start_time": 1.4045454545454545,
                "end_time": 2.061363636363636,
                "pitch": 65,
                "velocity": 32,
                "duration": 0.6568181818181815,
                "tempo": 120.0
            },
            {
                "start_time": 2.077272727272727,
                "end_time": 2.172727272727273,
                "pitch": 64,
                "velocity": 32,
                "duration": 0.09545454545454568,
                "tempo": 120.0
            },
            {
                "start_time": 2.1886363636363635,
                "end_time": 2.2886363636363636,
                "pitch": 65,
                "velocity": 32,
                "duration": 0.10000000000000009,
                "tempo": 120.0
            },
            {
                "start_time": 2.3068181818181817,
                "end_time": 2.75,
                "pitch": 67,
                "velocity": 32,
                "duration": 0.44318181818181834,
                "tempo": 120.0
            },
            {
                "start_time": 2.784090909090909,
                "end_time": 3.4386363636363635,
                "pitch": 64,
                "velocity": 32,
                "duration": 0.6545454545454543,
                "tempo": 120.0
            },
            {
                "start_time": 3.4545454545454546,
                "end_time": 3.65,
                "pitch": 65,
                "velocity": 32,
                "duration": 0.19545454545454533,
                "tempo": 120.0
            },
            {
                "start_time": 3.6659090909090906,
                "end_time": 4.127272727272727,
                "pitch": 67,
                "velocity": 32,
                "duration": 0.4613636363636364,
                "tempo": 120.0
            },
            {
                "start_time": 4.143181818181818,
                "end_time": 4.345454545454546,
                "pitch": 68,
                "velocity": 32,
                "duration": 0.20227272727272805,
                "tempo": 120.0
            },
            {
                "start_time": 4.377272727272727,
                "end_time": 4.806818181818182,
                "pitch": 67,
                "velocity": 32,
                "duration": 0.4295454545454547,
                "tempo": 120.0
            },
            {
                "start_time": 4.822727272727272,
                "end_time": 5.036363636363636,
                "pitch": 60,
                "velocity": 32,
                "duration": 0.21363636363636385,
                "tempo": 120.0
            },
            {
                "start_time": 5.504545454545454,
                "end_time": 5.6045454545454545,
                "pitch": 55,
                "velocity": 32,
                "duration": 0.10000000000000053,
                "tempo": 120.0
            },
            {
                "start_time": 5.622727272727272,
                "end_time": 5.838636363636363,
                "pitch": 53,
                "velocity": 32,
                "duration": 0.21590909090909083,
                "tempo": 120.0
            },
            {
                "start_time": 5.8568181818181815,
                "end_time": 5.9409090909090905,
                "pitch": 51,
                "velocity": 32,
                "duration": 0.084090909090909,
                "tempo": 120.0
            },
            {
                "start_time": 5.975,
                "end_time": 6.179545454545455,
                "pitch": 50,
                "velocity": 32,
                "duration": 0.20454545454545503,
                "tempo": 120.0
            },
            {
                "start_time": 6.197727272727272,
                "end_time": 6.3,
                "pitch": 51,
                "velocity": 32,
                "duration": 0.10227272727272751,
                "tempo": 120.0
            },
            {
                "start_time": 6.3159090909090905,
                "end_time": 6.538636363636363,
                "pitch": 50,
                "velocity": 32,
                "duration": 0.22272727272727266,
                "tempo": 120.0
            },
            {
                "start_time": 6.556818181818182,
                "end_time": 6.659090909090909,
                "pitch": 48,
                "velocity": 32,
                "duration": 0.10227272727272751,
                "tempo": 120.0
            },
            {
                "start_time": 6.675,
                "end_time": 6.879545454545454,
                "pitch": 46,
                "velocity": 32,
                "duration": 0.20454545454545414,
                "tempo": 120.0
            },
            {
                "start_time": 6.8954545454545455,
                "end_time": 6.99090909090909,
                "pitch": 48,
                "velocity": 32,
                "duration": 0.09545454545454479,
                "tempo": 120.0
            },
            {
                "start_time": 7.006818181818182,
                "end_time": 7.213636363636363,
                "pitch": 46,
                "velocity": 32,
                "duration": 0.20681818181818112,
                "tempo": 120.0
            },
            {
                "start_time": 7.2295454545454545,
                "end_time": 7.327272727272727,
                "pitch": 44,
                "velocity": 32,
                "duration": 0.09772727272727266,
                "tempo": 120.0
            },
            {
                "start_time": 7.345454545454545,
                "end_time": 9.10909090909091,
                "pitch": 43,
                "velocity": 32,
                "duration": 1.7636363636363646,
                "tempo": 120.0
            }
        ]
    }
}