{
    "track_id": "Captain Silver (FM) - 07 - Boat _ Cave",
    "mood": "angry",
    "instruments": {
        "Acoustic Grand Piano": [
            {
                "start_time": 4.693181818181818,
                "end_time": 5.122727272727272,
                "pitch": 84,
                "velocity": 80,
                "duration": 0.4295454545454538,
                "tempo": 120.0
            },
            {
                "start_time": 5.140909090909091,
                "end_time": 5.590909090909091,
                "pitch": 83,
                "velocity": 80,
                "duration": 0.4500000000000002,
                "tempo": 120.0
            },
            {
                "start_time": 5.6068181818181815,
                "end_time": 6.027272727272727,
                "pitch": 82,
                "velocity": 80,
                "duration": 0.42045454545454586,
                "tempo": 120.0
            },
            {
                "start_time": 6.045454545454545,
                "end_time": 6.4840909090909085,
                "pitch": 81,
                "velocity": 80,
                "duration": 0.4386363636363635,
                "tempo": 120.0
            },
            {
                "start_time": 6.502272727272727,
                "end_time": 6.797727272727273,
                "pitch": 80,
                "velocity": 80,
                "duration": 0.29545454545454586,
                "tempo": 120.0
            },
            {
                "start_time": 6.8136363636363635,
                "end_time": 7.088636363636363,
                "pitch": 79,
                "velocity": 80,
                "duration": 0.27499999999999947,
                "tempo": 120.0
            },
            {
                "start_time": 7.1045454545454545,
                "end_time": 7.534090909090908,
                "pitch": 84,
                "velocity": 80,
                "duration": 0.4295454545454538,
                "tempo": 120.0
            },
            {
                "start_time": 7.552272727272727,
                "end_time": 8.004545454545454,
                "pitch": 83,
                "velocity": 80,
                "duration": 0.45227272727272716,
                "tempo": 120.0
            },
            {
                "start_time": 8.020454545454545,
                "end_time": 8.45,
                "pitch": 82,
                "velocity": 80,
                "duration": 0.4295454545454547,
                "tempo": 120.0
            },
            {
                "start_time": 8.46590909090909,
                "end_time": 8.904545454545454,
                "pitch": 81,
                "velocity": 80,
                "duration": 0.4386363636363644,
                "tempo": 120.0
            },
            {
                "start_time": 8.920454545454545,
                "end_time": 9.209090909090909,
                "pitch": 80,
                "velocity": 80,
                "duration": 0.288636363636364,
                "tempo": 120.0
            },
            {
                "start_time": 9.227272727272727,
                "end_time": 9.509090909090908,
                "pitch": 79,
                "velocity": 80,
                "duration": 0.2818181818181813,
                "tempo": 120.0
            },
            {
                "start_time": 9.527272727272727,
                "end_time": 9.959090909090909,
                "pitch": 84,
                "velocity": 80,
                "duration": 0.43181818181818166,
                "tempo": 120.0
            },
            {
                "start_time": 9.977272727272727,
                "end_time": 10.409090909090908,
                "pitch": 83,
                "velocity": 80,
                "duration": 0.43181818181818166,
                "tempo": 120.0
            },
            {
                "start_time": 10.427272727272726,
                "end_time": 10.863636363636363,
                "pitch": 82,
                "velocity": 80,
                "duration": 0.4363636363636374,
                "tempo": 120.0
            },
            {
                "start_time": 10.881818181818181,
                "end_time": 11.31590909090909,
                "pitch": 81,
                "velocity": 80,
                "duration": 0.43409090909090864,
                "tempo": 120.0
            },
            {
                "start_time": 11.331818181818182,
                "end_time": 11.61590909090909,
                "pitch": 80,
                "velocity": 80,
                "duration": 0.2840909090909083,
                "tempo": 120.0
            },
            {
                "start_time": 11.631818181818181,
                "end_time": 11.913636363636362,
                "pitch": 79,
                "velocity": 80,
                "duration": 0.2818181818181813,
                "tempo": 120.0
            },
            {
                "start_time": 11.929545454545455,
                "end_time": 11.979545454545454,
                "pitch": 72,
                "velocity": 80,
                "duration": 0.049999999999998934,
                "tempo": 120.0
            },
            {
                "start_time": 12.011363636363635,
                "end_time": 12.061363636363636,
                "pitch": 84,
                "velocity": 80,
                "duration": 0.05000000000000071,
                "tempo": 120.0
            },
            {
                "start_time": 12.077272727272726,
                "end_time": 12.127272727272727,
                "pitch": 72,
                "velocity": 80,
                "duration": 0.05000000000000071,
                "tempo": 120.0
            },
            {
                "start_time": 12.161363636363635,
                "end_time": 12.211363636363636,
                "pitch": 84,
                "velocity": 80,
                "duration": 0.05000000000000071,
                "tempo": 120.0
            },
            {
                "start_time": 12.227272727272727,
                "end_time": 12.506818181818181,
                "pitch": 72,
                "velocity": 80,
                "duration": 0.2795454545454543,
                "tempo": 120.0
            },
            {
                "start_time": 12.522727272727272,
                "end_time": 12.572727272727272,
                "pitch": 72,
                "velocity": 80,
                "duration": 0.05000000000000071,
                "tempo": 120.0
            },
            {
                "start_time": 12.60681818181818,
                "end_time": 12.656818181818181,
                "pitch": 72,
                "velocity": 80,
                "duration": 0.05000000000000071,
                "tempo": 120.0
            },
            {
                "start_time": 12.672727272727272,
                "end_time": 12.722727272727273,
                "pitch": 72,
                "velocity": 80,
                "duration": 0.05000000000000071,
                "tempo": 120.0
            },
            {
                "start_time": 12.754545454545454,
                "end_time": 12.804545454545455,
                "pitch": 72,
                "velocity": 80,
                "duration": 0.05000000000000071,
                "tempo": 120.0
            },
            {
                "start_time": 12.820454545454545,
                "end_time": 13.104545454545454,
                "pitch": 72,
                "velocity": 80,
                "duration": 0.2840909090909083,
                "tempo": 120.0
            },
            {
                "start_time": 13.120454545454544,
                "end_time": 13.170454545454545,
                "pitch": 72,
                "velocity": 80,
                "duration": 0.05000000000000071,
                "tempo": 120.0
            },
            {
                "start_time": 13.204545454545453,
                "end_time": 13.254545454545454,
                "pitch": 84,
                "velocity": 80,
                "duration": 0.05000000000000071,
                "tempo": 120.0
            },
            {
                "start_time": 13.270454545454545,
                "end_time": 13.320454545454545,
                "pitch": 72,
                "velocity": 80,
                "duration": 0.05000000000000071,
                "tempo": 120.0
            },
            {
                "start_time": 13.354545454545454,
                "end_time": 13.404545454545454,
                "pitch": 84,
                "velocity": 80,
                "duration": 0.05000000000000071,
                "tempo": 120.0
            },
            {
                "start_time": 13.420454545454545,
                "end_time": 13.704545454545453,
                "pitch": 72,
                "velocity": 80,
                "duration": 0.2840909090909083,
                "tempo": 120.0
            },
            {
                "start_time": 13.720454545454544,
                "end_time": 13.770454545454545,
                "pitch": 72,
                "velocity": 80,
                "duration": 0.05000000000000071,
                "tempo": 120.0
            },
            {
                "start_time": 13.804545454545455,
                "end_time": 13.854545454545454,
                "pitch": 72,
                "velocity": 80,
                "duration": 0.049999999999998934,
                "tempo": 120.0
            },
            {
                "start_time": 13.870454545454544,
                "end_time": 13.920454545454545,
                "pitch": 72,
                "velocity": 80,
                "duration": 0.05000000000000071,
                "tempo": 120.0
            },
            {
                "start_time": 13.954545454545453,
                "end_time": 14.004545454545454,
                "pitch": 72,
                "velocity": 80,
                "duration": 0.05000000000000071,
                "tempo": 120.0
            },
            {
                "start_time": 14.020454545454545,
                "end_time": 14.311363636363636,
                "pitch": 72,
                "velocity": 80,
                "duration": 0.290909090909091,
                "tempo": 120.0
            },
            {
                "start_time": 14.327272727272726,
                "end_time": 14.377272727272727,
                "pitch": 72,
                "velocity": 80,
                "duration": 0.05000000000000071,
                "tempo": 120.0
            },
            {
                "start_time": 14.411363636363635,
                "end_time": 14.463636363636363,
                "pitch": 84,
                "velocity": 80,
                "duration": 0.05227272727272769,
                "tempo": 120.0
            },
            {
                "start_time": 14.479545454545454,
                "end_time": 14.531818181818181,
                "pitch": 72,
                "velocity": 80,
                "duration": 0.05227272727272769,
                "tempo": 120.0
            },
            {
                "start_time": 14.56590909090909,
                "end_time": 14.61590909090909,
                "pitch": 84,
                "velocity": 80,
                "duration": 0.05000000000000071,
                "tempo": 120.0
            },
            {
                "start_time": 14.631818181818181,
                "end_time": 14.913636363636362,
                "pitch": 72,
                "velocity": 80,
                "duration": 0.2818181818181813,
                "tempo": 120.0
            },
            {
                "start_time": 14.929545454545455,
                "end_time": 14.979545454545454,
                "pitch": 72,
                "velocity": 80,
                "duration": 0.049999999999998934,
                "tempo": 120.0
            },
            {
                "start_time": 15.011363636363635,
                "end_time": 15.061363636363636,
                "pitch": 72,
                "velocity": 80,
                "duration": 0.05000000000000071,
                "tempo": 120.0
            },
            {
                "start_time": 15.079545454545453,
                "end_time": 15.127272727272727,
                "pitch": 72,
                "velocity": 80,
                "duration": 0.04772727272727373,
                "tempo": 120.0
            },
            {
                "start_time": 15.161363636363635,
                "end_time": 15.211363636363636,
                "pitch": 72,
                "velocity": 80,
                "duration": 0.05000000000000071,
                "tempo": 120.0
            },
            {
                "start_time": 15.227272727272727,
                "end_time": 15.511363636363635,
                "pitch": 72,
                "velocity": 80,
                "duration": 0.2840909090909083,
                "tempo": 120.0
            },
            {
                "start_time": 15.527272727272727,
                "end_time": 15.577272727272726,
                "pitch": 72,
                "velocity": 80,
                "duration": 0.049999999999998934,
                "tempo": 120.0
            },
            {
                "start_time": 15.611363636363636,
                "end_time": 15.661363636363635,
                "pitch": 84,
                "velocity": 80,
                "duration": 0.049999999999998934,
                "tempo": 120.0
            },
            {
                "start_time": 15.677272727272726,
                "end_time": 15.727272727272727,
                "pitch": 72,
                "velocity": 80,
                "duration": 0.05000000000000071,
                "tempo": 120.0
            },
            {
                "start_time": 15.761363636363635,
                "end_time": 15.811363636363636,
                "pitch": 84,
                "velocity": 80,
                "duration": 0.05000000000000071,
                "tempo": 120.0
            },
            {
                "start_time": 15.827272727272726,
                "end_time": 16.111363636363635,
                "pitch": 72,
                "velocity": 80,
                "duration": 0.2840909090909083,
                "tempo": 120.0
            },
            {
                "start_time": 16.127272727272725,
                "end_time": 16.177272727272726,
                "pitch": 72,
                "velocity": 80,
                "duration": 0.05000000000000071,
                "tempo": 120.0
            },
            {
                "start_time": 16.211363636363636,
                "end_time": 16.261363636363637,
                "pitch": 72,
                "velocity": 80,
                "duration": 0.05000000000000071,
                "tempo": 120.0
            },
            {
                "start_time": 16.277272727272727,
                "end_time": 16.327272727272728,
                "pitch": 72,
                "velocity": 80,
                "duration": 0.05000000000000071,
                "tempo": 120.0
            },
            {
                "start_time": 16.361363636363635,
                "end_time": 16.411363636363635,
                "pitch": 72,
                "velocity": 80,
                "duration": 0.05000000000000071,
                "tempo": 120.0
            },
            {
                "start_time": 16.427272727272726,
                "end_time": 16.71590909090909,
                "pitch": 72,
                "velocity": 80,
                "duration": 0.288636363636364,
                "tempo": 120.0
            },
            {
                "start_time": 16.73409090909091,
                "end_time": 21.722727272727273,
                "pitch": 72,
                "velocity": 80,
                "duration": 4.988636363636363,
                "tempo": 120.0
            },
            {
                "start_time": 21.722727272727273,
                "end_time": 21.993181818181817,
                "pitch": 84,
                "velocity": 80,
                "duration": 0.2704545454545446,
                "tempo": 120.0
            },
            {
                "start_time": 22.011363636363637,
                "end_time": 22.452272727272724,
                "pitch": 83,
                "velocity": 80,
                "duration": 0.4409090909090878,
                "tempo": 120.0
            },
            {
                "start_time": 22.470454545454544,
                "end_time": 22.89090909090909,
                "pitch": 82,
                "velocity": 80,
                "duration": 0.42045454545454675,
                "tempo": 120.0
            },
            {
                "start_time": 22.90681818181818,
                "end_time": 23.347727272727273,
                "pitch": 81,
                "velocity": 80,
                "duration": 0.44090909090909136,
                "tempo": 120.0
            },
            {
                "start_time": 23.363636363636363,
                "end_time": 23.659090909090907,
                "pitch": 80,
                "velocity": 80,
                "duration": 0.2954545454545432,
                "tempo": 120.0
            },
            {
                "start_time": 23.674999999999997,
                "end_time": 23.95,
                "pitch": 79,
                "velocity": 80,
                "duration": 0.27500000000000213,
                "tempo": 120.0
            },
            {
                "start_time": 23.96590909090909,
                "end_time": 24.39772727272727,
                "pitch": 84,
                "velocity": 80,
                "duration": 0.4318181818181799,
                "tempo": 120.0
            },
            {
                "start_time": 24.413636363636364,
                "end_time": 24.86590909090909,
                "pitch": 83,
                "velocity": 80,
                "duration": 0.4522727272727245,
                "tempo": 120.0
            },
            {
                "start_time": 24.88181818181818,
                "end_time": 25.320454545454545,
                "pitch": 82,
                "velocity": 80,
                "duration": 0.43863636363636616,
                "tempo": 120.0
            },
            {
                "start_time": 25.336363636363636,
                "end_time": 25.77272727272727,
                "pitch": 81,
                "velocity": 80,
                "duration": 0.43636363636363384,
                "tempo": 120.0
            },
            {
                "start_time": 25.788636363636364,
                "end_time": 26.07272727272727,
                "pitch": 80,
                "velocity": 80,
                "duration": 0.2840909090909065,
                "tempo": 120.0
            },
            {
                "start_time": 26.08863636363636,
                "end_time": 26.375,
                "pitch": 79,
                "velocity": 80,
                "duration": 0.2863636363636388,
                "tempo": 120.0
            },
            {
                "start_time": 26.39090909090909,
                "end_time": 26.829545454545453,
                "pitch": 84,
                "velocity": 80,
                "duration": 0.4386363636363626,
                "tempo": 120.0
            },
            {
                "start_time": 26.845454545454544,
                "end_time": 27.284090909090907,
                "pitch": 83,
                "velocity": 80,
                "duration": 0.4386363636363626,
                "tempo": 120.0
            },
            {
                "start_time": 27.299999999999997,
                "end_time": 27.73409090909091,
                "pitch": 82,
                "velocity": 80,
                "duration": 0.4340909090909122,
                "tempo": 120.0
            },
            {
                "start_time": 27.75,
                "end_time": 28.186363636363634,
                "pitch": 81,
                "velocity": 80,
                "duration": 0.43636363636363384,
                "tempo": 120.0
            },
            {
                "start_time": 28.204545454545453,
                "end_time": 28.49090909090909,
                "pitch": 80,
                "velocity": 80,
                "duration": 0.28636363636363527,
                "tempo": 120.0
            },
            {
                "start_time": 28.50681818181818,
                "end_time": 28.79090909090909,
                "pitch": 79,
                "velocity": 80,
                "duration": 0.28409090909091006,
                "tempo": 120.0
            },
            {
                "start_time": 28.80681818181818,
                "end_time": 28.85681818181818,
                "pitch": 72,
                "velocity": 80,
                "duration": 0.05000000000000071,
                "tempo": 120.0
            },
            {
                "start_time": 28.89090909090909,
                "end_time": 28.940909090909088,
                "pitch": 84,
                "velocity": 80,
                "duration": 0.04999999999999716,
                "tempo": 120.0
            },
            {
                "start_time": 28.956818181818182,
                "end_time": 29.00681818181818,
                "pitch": 72,
                "velocity": 80,
                "duration": 0.04999999999999716,
                "tempo": 120.0
            },
            {
                "start_time": 29.04090909090909,
                "end_time": 29.09090909090909,
                "pitch": 84,
                "velocity": 80,
                "duration": 0.05000000000000071,
                "tempo": 120.0
            },
            {
                "start_time": 29.10681818181818,
                "end_time": 29.38181818181818,
                "pitch": 72,
                "velocity": 80,
                "duration": 0.2749999999999986,
                "tempo": 120.0
            },
            {
                "start_time": 29.39772727272727,
                "end_time": 29.445454545454545,
                "pitch": 72,
                "velocity": 80,
                "duration": 0.047727272727275505,
                "tempo": 120.0
            },
            {
                "start_time": 29.479545454545452,
                "end_time": 29.527272727272727,
                "pitch": 72,
                "velocity": 80,
                "duration": 0.047727272727275505,
                "tempo": 120.0
            },
            {
                "start_time": 29.543181818181818,
                "end_time": 29.593181818181815,
                "pitch": 72,
                "velocity": 80,
                "duration": 0.04999999999999716,
                "tempo": 120.0
            },
            {
                "start_time": 29.625,
                "end_time": 29.672727272727272,
                "pitch": 72,
                "velocity": 80,
                "duration": 0.04772727272727195,
                "tempo": 120.0
            },
            {
                "start_time": 29.688636363636363,
                "end_time": 29.972727272727273,
                "pitch": 72,
                "velocity": 80,
                "duration": 0.28409090909091006,
                "tempo": 120.0
            },
            {
                "start_time": 29.988636363636363,
                "end_time": 30.03863636363636,
                "pitch": 72,
                "velocity": 80,
                "duration": 0.04999999999999716,
                "tempo": 120.0
            },
            {
                "start_time": 30.07272727272727,
                "end_time": 30.12272727272727,
                "pitch": 84,
                "velocity": 80,
                "duration": 0.05000000000000071,
                "tempo": 120.0
            },
            {
                "start_time": 30.138636363636362,
                "end_time": 30.188636363636363,
                "pitch": 72,
                "velocity": 80,
                "duration": 0.05000000000000071,
                "tempo": 120.0
            },
            {
                "start_time": 30.222727272727273,
                "end_time": 30.27272727272727,
                "pitch": 84,
                "velocity": 80,
                "duration": 0.04999999999999716,
                "tempo": 120.0
            },
            {
                "start_time": 30.29090909090909,
                "end_time": 30.575,
                "pitch": 72,
                "velocity": 80,
                "duration": 0.28409090909091006,
                "tempo": 120.0
            },
            {
                "start_time": 30.593181818181815,
                "end_time": 30.643181818181816,
                "pitch": 72,
                "velocity": 80,
                "duration": 0.05000000000000071,
                "tempo": 120.0
            },
            {
                "start_time": 30.677272727272726,
                "end_time": 30.727272727272727,
                "pitch": 72,
                "velocity": 80,
                "duration": 0.05000000000000071,
                "tempo": 120.0
            },
            {
                "start_time": 30.745454545454542,
                "end_time": 30.795454545454543,
                "pitch": 72,
                "velocity": 80,
                "duration": 0.05000000000000071,
                "tempo": 120.0
            },
            {
                "start_time": 30.829545454545453,
                "end_time": 30.879545454545454,
                "pitch": 72,
                "velocity": 80,
                "duration": 0.05000000000000071,
                "tempo": 120.0
            },
            {
                "start_time": 30.895454545454545,
                "end_time": 31.18181818181818,
                "pitch": 72,
                "velocity": 80,
                "duration": 0.28636363636363527,
                "tempo": 120.0
            },
            {
                "start_time": 31.2,
                "end_time": 31.25,
                "pitch": 72,
                "velocity": 80,
                "duration": 0.05000000000000071,
                "tempo": 120.0
            },
            {
                "start_time": 31.284090909090907,
                "end_time": 31.334090909090907,
                "pitch": 84,
                "velocity": 80,
                "duration": 0.05000000000000071,
                "tempo": 120.0
            },
            {
                "start_time": 31.349999999999998,
                "end_time": 31.4,
                "pitch": 72,
                "velocity": 80,
                "duration": 0.05000000000000071,
                "tempo": 120.0
            },
            {
                "start_time": 31.43409090909091,
                "end_time": 31.484090909090906,
                "pitch": 84,
                "velocity": 80,
                "duration": 0.04999999999999716,
                "tempo": 120.0
            },
            {
                "start_time": 31.502272727272725,
                "end_time": 31.784090909090907,
                "pitch": 72,
                "velocity": 80,
                "duration": 0.2818181818181813,
                "tempo": 120.0
            },
            {
                "start_time": 31.802272727272726,
                "end_time": 31.852272727272727,
                "pitch": 72,
                "velocity": 80,
                "duration": 0.05000000000000071,
                "tempo": 120.0
            },
            {
                "start_time": 31.884090909090908,
                "end_time": 31.93409090909091,
                "pitch": 72,
                "velocity": 80,
                "duration": 0.05000000000000071,
                "tempo": 120.0
            },
            {
                "start_time": 31.952272727272724,
                "end_time": 32.002272727272725,
                "pitch": 72,
                "velocity": 80,
                "duration": 0.05000000000000071,
                "tempo": 120.0
            },
            {
                "start_time": 32.03409090909091,
                "end_time": 32.08409090909091,
                "pitch": 72,
                "velocity": 80,
                "duration": 0.05000000000000426,
                "tempo": 120.0
            },
            {
                "start_time": 32.10227272727273,
                "end_time": 32.39090909090909,
                "pitch": 72,
                "velocity": 80,
                "duration": 0.288636363636364,
                "tempo": 120.0
            },
            {
                "start_time": 32.40909090909091,
                "end_time": 32.45909090909091,
                "pitch": 72,
                "velocity": 80,
                "duration": 0.05000000000000426,
                "tempo": 120.0
            },
            {
                "start_time": 32.49318181818182,
                "end_time": 32.543181818181814,
                "pitch": 84,
                "velocity": 80,
                "duration": 0.04999999999999716,
                "tempo": 120.0
            },
            {
                "start_time": 32.56136363636364,
                "end_time": 32.611363636363635,
                "pitch": 72,
                "velocity": 80,
                "duration": 0.04999999999999716,
                "tempo": 120.0
            },
            {
                "start_time": 32.64545454545454,
                "end_time": 32.69772727272727,
                "pitch": 84,
                "velocity": 80,
                "duration": 0.05227272727272947,
                "tempo": 120.0
            },
            {
                "start_time": 32.71363636363636,
                "end_time": 32.99772727272727,
                "pitch": 72,
                "velocity": 80,
                "duration": 0.2840909090909065,
                "tempo": 120.0
            },
            {
                "start_time": 33.013636363636365,
                "end_time": 33.06363636363636,
                "pitch": 72,
                "velocity": 80,
                "duration": 0.04999999999999716,
                "tempo": 120.0
            },
            {
                "start_time": 33.09772727272727,
                "end_time": 33.14772727272727,
                "pitch": 72,
                "velocity": 80,
                "duration": 0.05000000000000426,
                "tempo": 120.0
            },
            {
                "start_time": 33.163636363636364,
                "end_time": 33.21363636363636,
                "pitch": 72,
                "velocity": 80,
                "duration": 0.04999999999999716,
                "tempo": 120.0
            },
            {
                "start_time": 33.24772727272727,
                "end_time": 33.29772727272727,
                "pitch": 72,
                "velocity": 80,
                "duration": 0.05000000000000426,
                "tempo": 120.0
            },
            {
                "start_time": 33.31363636363636,
                "end_time": 33.6,
                "pitch": 72,
                "velocity": 80,
                "duration": 0.2863636363636388,
                "tempo": 120.0
            },
            {
                "start_time": 33.61818181818182,
                "end_time": 34.05227272727272,
                "pitch": 75,
                "velocity": 80,
                "duration": 0.4340909090909051,
                "tempo": 120.0
            },
            {
                "start_time": 34.06818181818181,
                "end_time": 34.49772727272727,
                "pitch": 74,
                "velocity": 80,
                "duration": 0.4295454545454547,
                "tempo": 120.0
            },
            {
                "start_time": 34.513636363636365,
                "end_time": 34.95227272727273,
                "pitch": 73,
                "velocity": 80,
                "duration": 0.4386363636363626,
                "tempo": 120.0
            },
            {
                "start_time": 34.96818181818182,
                "end_time": 35.404545454545456,
                "pitch": 72,
                "velocity": 80,
                "duration": 0.4363636363636374,
                "tempo": 120.0
            },
            {
                "start_time": 35.42045454545455,
                "end_time": 35.70454545454545,
                "pitch": 71,
                "velocity": 80,
                "duration": 0.2840909090909065,
                "tempo": 120.0
            },
            {
                "start_time": 35.720454545454544,
                "end_time": 36.00681818181818,
                "pitch": 70,
                "velocity": 80,
                "duration": 0.2863636363636388,
                "tempo": 120.0
            },
            {
                "start_time": 36.02272727272727,
                "end_time": 36.461363636363636,
                "pitch": 71,
                "velocity": 80,
                "duration": 0.4386363636363626,
                "tempo": 120.0
            },
            {
                "start_time": 36.47727272727273,
                "end_time": 36.91590909090909,
                "pitch": 70,
                "velocity": 80,
                "duration": 0.4386363636363626,
                "tempo": 120.0
            },
            {
                "start_time": 36.93181818181818,
                "end_time": 37.38409090909091,
                "pitch": 69,
                "velocity": 80,
                "duration": 0.45227272727272805,
                "tempo": 120.0
            },
            {
                "start_time": 37.4,
                "end_time": 37.84318181818182,
                "pitch": 68,
                "velocity": 80,
                "duration": 0.4431818181818201,
                "tempo": 120.0
            },
            {
                "start_time": 37.861363636363635,
                "end_time": 38.14772727272727,
                "pitch": 67,
                "velocity": 80,
                "duration": 0.2863636363636388,
                "tempo": 120.0
            },
            {
                "start_time": 38.163636363636364,
                "end_time": 38.449999999999996,
                "pitch": 66,
                "velocity": 80,
                "duration": 0.2863636363636317,
                "tempo": 120.0
            },
            {
                "start_time": 38.465909090909086,
                "end_time": 38.902272727272724,
                "pitch": 67,
                "velocity": 80,
                "duration": 0.4363636363636374,
                "tempo": 120.0
            },
            {
                "start_time": 38.918181818181814,
                "end_time": 39.34772727272727,
                "pitch": 66,
                "velocity": 80,
                "duration": 0.4295454545454547,
                "tempo": 120.0
            },
            {
                "start_time": 39.36363636363636,
                "end_time": 39.80227272727272,
                "pitch": 65,
                "velocity": 80,
                "duration": 0.4386363636363626,
                "tempo": 120.0
            },
            {
                "start_time": 39.81818181818181,
                "end_time": 40.25909090909091,
                "pitch": 64,
                "velocity": 80,
                "duration": 0.4409090909090949,
                "tempo": 120.0
            },
            {
                "start_time": 40.275,
                "end_time": 40.56590909090909,
                "pitch": 63,
                "velocity": 80,
                "duration": 0.29090909090908923,
                "tempo": 120.0
            },
            {
                "start_time": 40.58181818181818,
                "end_time": 40.85681818181818,
                "pitch": 62,
                "velocity": 80,
                "duration": 0.2749999999999986,
                "tempo": 120.0
            },
            {
                "start_time": 40.87272727272727,
                "end_time": 41.06590909090909,
                "pitch": 62,
                "velocity": 80,
                "duration": 0.19318181818182012,
                "tempo": 120.0
            },
            {
                "start_time": 42.07954545454545,
                "end_time": 42.35454545454545,
                "pitch": 67,
                "velocity": 80,
                "duration": 0.2749999999999986,
                "tempo": 120.0
            }
        ],
        "Trumpet": [
            {
                "start_time": 16.886363636363637,
                "end_time": 17.022727272727273,
                "pitch": 67,
                "velocity": 80,
                "duration": 0.1363636363636367,
                "tempo": 120.0
            },
            {
                "start_time": 17.038636363636364,
                "end_time": 17.172727272727272,
                "pitch": 72,
                "velocity": 80,
                "duration": 0.13409090909090793,
                "tempo": 120.0
            },
            {
                "start_time": 17.188636363636363,
                "end_time": 17.32272727272727,
                "pitch": 71,
                "velocity": 80,
                "duration": 0.13409090909090793,
                "tempo": 120.0
            },
            {
                "start_time": 17.488636363636363,
                "end_time": 17.62272727272727,
                "pitch": 67,
                "velocity": 80,
                "duration": 0.13409090909090793,
                "tempo": 120.0
            },
            {
                "start_time": 17.788636363636364,
                "end_time": 17.920454545454543,
                "pitch": 70,
                "velocity": 80,
                "duration": 0.13181818181817917,
                "tempo": 120.0
            },
            {
                "start_time": 18.386363636363637,
                "end_time": 18.522727272727273,
                "pitch": 68,
                "velocity": 80,
                "duration": 0.1363636363636367,
                "tempo": 120.0
            },
            {
                "start_time": 19.145454545454545,
                "end_time": 19.279545454545453,
                "pitch": 72,
                "velocity": 80,
                "duration": 0.13409090909090793,
                "tempo": 120.0
            },
            {
                "start_time": 19.295454545454543,
                "end_time": 19.429545454545455,
                "pitch": 67,
                "velocity": 80,
                "duration": 0.13409090909091148,
                "tempo": 120.0
            },
            {
                "start_time": 19.445454545454545,
                "end_time": 19.581818181818182,
                "pitch": 72,
                "velocity": 80,
                "duration": 0.1363636363636367,
                "tempo": 120.0
            },
            {
                "start_time": 19.597727272727273,
                "end_time": 19.73409090909091,
                "pitch": 71,
                "velocity": 80,
                "duration": 0.1363636363636367,
                "tempo": 120.0
            },
            {
                "start_time": 19.904545454545453,
                "end_time": 20.04090909090909,
                "pitch": 67,
                "velocity": 80,
                "duration": 0.1363636363636367,
                "tempo": 120.0
            },
            {
                "start_time": 20.202272727272728,
                "end_time": 20.331818181818182,
                "pitch": 70,
                "velocity": 80,
                "duration": 0.12954545454545396,
                "tempo": 120.0
            },
            {
                "start_time": 20.347727272727273,
                "end_time": 20.477272727272727,
                "pitch": 69,
                "velocity": 80,
                "duration": 0.12954545454545396,
                "tempo": 120.0
            },
            {
                "start_time": 20.793181818181818,
                "end_time": 20.929545454545455,
                "pitch": 68,
                "velocity": 80,
                "duration": 0.1363636363636367,
                "tempo": 120.0
            }
        ],
        "Harpsichord": [
            {
                "start_time": 0.0,
                "end_time": 0.0659090909090909,
                "pitch": 36,
                "velocity": 51,
                "duration": 0.0659090909090909,
                "tempo": 120.0
            },
            {
                "start_time": 0.07727272727272727,
                "end_time": 0.1659090909090909,
                "pitch": 43,
                "velocity": 51,
                "duration": 0.08863636363636362,
                "tempo": 120.0
            },
            {
                "start_time": 0.17727272727272728,
                "end_time": 0.31136363636363634,
                "pitch": 36,
                "velocity": 51,
                "duration": 0.13409090909090907,
                "tempo": 120.0
            },
            {
                "start_time": 0.32727272727272727,
                "end_time": 0.4636363636363636,
                "pitch": 43,
                "velocity": 51,
                "duration": 0.13636363636363635,
                "tempo": 120.0
            },
            {
                "start_time": 0.4795454545454545,
                "end_time": 0.6136363636363636,
                "pitch": 36,
                "velocity": 51,
                "duration": 0.13409090909090915,
                "tempo": 120.0
            },
            {
                "start_time": 0.6318181818181818,
                "end_time": 0.7659090909090909,
                "pitch": 43,
                "velocity": 51,
                "duration": 0.13409090909090904,
                "tempo": 120.0
            },
            {
                "start_time": 0.7818181818181817,
                "end_time": 0.9159090909090909,
                "pitch": 36,
                "velocity": 51,
                "duration": 0.13409090909090915,
                "tempo": 120.0
            },
            {
                "start_time": 0.9318181818181818,
                "end_time": 1.065909090909091,
                "pitch": 43,
                "velocity": 51,
                "duration": 0.13409090909090915,
                "tempo": 120.0
            },
            {
                "start_time": 1.0818181818181818,
                "end_time": 1.2159090909090908,
                "pitch": 36,
                "velocity": 51,
                "duration": 0.13409090909090904,
                "tempo": 120.0
            },
            {
                "start_time": 1.2318181818181817,
                "end_time": 1.3659090909090907,
                "pitch": 43,
                "velocity": 51,
                "duration": 0.13409090909090904,
                "tempo": 120.0
            },
            {
                "start_time": 1.3818181818181818,
                "end_time": 1.5159090909090909,
                "pitch": 36,
                "velocity": 51,
                "duration": 0.13409090909090904,
                "tempo": 120.0
            },
            {
                "start_time": 1.5318181818181817,
                "end_time": 1.6659090909090908,
                "pitch": 43,
                "velocity": 51,
                "duration": 0.13409090909090904,
                "tempo": 120.0
            },
            {
                "start_time": 1.6818181818181817,
                "end_time": 1.815909090909091,
                "pitch": 42,
                "velocity": 51,
                "duration": 0.13409090909090926,
                "tempo": 120.0
            },
            {
                "start_time": 1.8318181818181818,
                "end_time": 1.9659090909090908,
                "pitch": 42,
                "velocity": 51,
                "duration": 0.13409090909090904,
                "tempo": 120.0
            },
            {
                "start_time": 1.9818181818181817,
                "end_time": 2.1113636363636363,
                "pitch": 42,
                "velocity": 51,
                "duration": 0.12954545454545463,
                "tempo": 120.0
            },
            {
                "start_time": 2.127272727272727,
                "end_time": 2.256818181818182,
                "pitch": 40,
                "velocity": 51,
                "duration": 0.12954545454545485,
                "tempo": 120.0
            },
            {
                "start_time": 2.2727272727272725,
                "end_time": 2.4022727272727273,
                "pitch": 36,
                "velocity": 51,
                "duration": 0.12954545454545485,
                "tempo": 120.0
            },
            {
                "start_time": 2.4204545454545454,
                "end_time": 2.5477272727272724,
                "pitch": 43,
                "velocity": 51,
                "duration": 0.12727272727272698,
                "tempo": 120.0
            },
            {
                "start_time": 2.565909090909091,
                "end_time": 2.7045454545454546,
                "pitch": 36,
                "velocity": 51,
                "duration": 0.13863636363636367,
                "tempo": 120.0
            },
            {
                "start_time": 2.7204545454545452,
                "end_time": 2.859090909090909,
                "pitch": 43,
                "velocity": 51,
                "duration": 0.13863636363636367,
                "tempo": 120.0
            },
            {
                "start_time": 2.877272727272727,
                "end_time": 3.0159090909090907,
                "pitch": 36,
                "velocity": 51,
                "duration": 0.13863636363636367,
                "tempo": 120.0
            },
            {
                "start_time": 3.0340909090909087,
                "end_time": 3.1727272727272724,
                "pitch": 43,
                "velocity": 51,
                "duration": 0.13863636363636367,
                "tempo": 120.0
            },
            {
                "start_time": 3.1886363636363635,
                "end_time": 3.3249999999999997,
                "pitch": 36,
                "velocity": 51,
                "duration": 0.13636363636363624,
                "tempo": 120.0
            },
            {
                "start_time": 3.340909090909091,
                "end_time": 3.4749999999999996,
                "pitch": 43,
                "velocity": 51,
                "duration": 0.13409090909090882,
                "tempo": 120.0
            },
            {
                "start_time": 3.493181818181818,
                "end_time": 3.627272727272727,
                "pitch": 36,
                "velocity": 51,
                "duration": 0.13409090909090882,
                "tempo": 120.0
            },
            {
                "start_time": 3.645454545454545,
                "end_time": 3.7795454545454543,
                "pitch": 43,
                "velocity": 51,
                "duration": 0.13409090909090926,
                "tempo": 120.0
            },
            {
                "start_time": 3.7954545454545454,
                "end_time": 3.9295454545454542,
                "pitch": 36,
                "velocity": 51,
                "duration": 0.13409090909090882,
                "tempo": 120.0
            },
            {
                "start_time": 3.9477272727272728,
                "end_time": 4.081818181818182,
                "pitch": 43,
                "velocity": 51,
                "duration": 0.13409090909090926,
                "tempo": 120.0
            },
            {
                "start_time": 4.1,
                "end_time": 4.2340909090909085,
                "pitch": 42,
                "velocity": 51,
                "duration": 0.13409090909090882,
                "tempo": 120.0
            },
            {
                "start_time": 4.25,
                "end_time": 4.384090909090909,
                "pitch": 42,
                "velocity": 51,
                "duration": 0.13409090909090882,
                "tempo": 120.0
            },
            {
                "start_time": 4.402272727272727,
                "end_time": 4.531818181818181,
                "pitch": 42,
                "velocity": 51,
                "duration": 0.12954545454545396,
                "tempo": 120.0
            },
            {
                "start_time": 4.547727272727273,
                "end_time": 4.677272727272727,
                "pitch": 40,
                "velocity": 51,
                "duration": 0.12954545454545396,
                "tempo": 120.0
            },
            {
                "start_time": 4.693181818181818,
                "end_time": 4.822727272727272,
                "pitch": 36,
                "velocity": 51,
                "duration": 0.12954545454545396,
                "tempo": 120.0
            },
            {
                "start_time": 4.838636363636363,
                "end_time": 4.968181818181818,
                "pitch": 43,
                "velocity": 51,
                "duration": 0.12954545454545485,
                "tempo": 120.0
            },
            {
                "start_time": 4.9840909090909085,
                "end_time": 5.122727272727272,
                "pitch": 36,
                "velocity": 51,
                "duration": 0.13863636363636367,
                "tempo": 120.0
            },
            {
                "start_time": 5.140909090909091,
                "end_time": 5.279545454545454,
                "pitch": 43,
                "velocity": 51,
                "duration": 0.13863636363636367,
                "tempo": 120.0
            },
            {
                "start_time": 5.295454545454545,
                "end_time": 5.434090909090909,
                "pitch": 36,
                "velocity": 51,
                "duration": 0.13863636363636367,
                "tempo": 120.0
            },
            {
                "start_time": 5.452272727272727,
                "end_time": 5.590909090909091,
                "pitch": 43,
                "velocity": 51,
                "duration": 0.13863636363636367,
                "tempo": 120.0
            },
            {
                "start_time": 5.6068181818181815,
                "end_time": 5.736363636363636,
                "pitch": 36,
                "velocity": 51,
                "duration": 0.12954545454545485,
                "tempo": 120.0
            },
            {
                "start_time": 5.752272727272727,
                "end_time": 5.881818181818182,
                "pitch": 43,
                "velocity": 51,
                "duration": 0.12954545454545485,
                "tempo": 120.0
            },
            {
                "start_time": 5.8977272727272725,
                "end_time": 6.027272727272727,
                "pitch": 36,
                "velocity": 51,
                "duration": 0.12954545454545485,
                "tempo": 120.0
            },
            {
                "start_time": 6.045454545454545,
                "end_time": 6.172727272727273,
                "pitch": 43,
                "velocity": 51,
                "duration": 0.12727272727272787,
                "tempo": 120.0
            },
            {
                "start_time": 6.1909090909090905,
                "end_time": 6.329545454545454,
                "pitch": 36,
                "velocity": 51,
                "duration": 0.13863636363636367,
                "tempo": 120.0
            },
            {
                "start_time": 6.345454545454545,
                "end_time": 6.4840909090909085,
                "pitch": 43,
                "velocity": 51,
                "duration": 0.13863636363636367,
                "tempo": 120.0
            },
            {
                "start_time": 6.502272727272727,
                "end_time": 6.640909090909091,
                "pitch": 42,
                "velocity": 51,
                "duration": 0.13863636363636367,
                "tempo": 120.0
            },
            {
                "start_time": 6.659090909090909,
                "end_time": 6.797727272727273,
                "pitch": 42,
                "velocity": 51,
                "duration": 0.13863636363636367,
                "tempo": 120.0
            },
            {
                "start_time": 6.8136363636363635,
                "end_time": 6.9431818181818175,
                "pitch": 42,
                "velocity": 51,
                "duration": 0.12954545454545396,
                "tempo": 120.0
            },
            {
                "start_time": 6.959090909090909,
                "end_time": 7.088636363636363,
                "pitch": 40,
                "velocity": 51,
                "duration": 0.12954545454545396,
                "tempo": 120.0
            },
            {
                "start_time": 7.1045454545454545,
                "end_time": 7.2340909090909085,
                "pitch": 36,
                "velocity": 51,
                "duration": 0.12954545454545396,
                "tempo": 120.0
            },
            {
                "start_time": 7.25,
                "end_time": 7.379545454545454,
                "pitch": 43,
                "velocity": 51,
                "duration": 0.12954545454545396,
                "tempo": 120.0
            },
            {
                "start_time": 7.3954545454545455,
                "end_time": 7.534090909090908,
                "pitch": 36,
                "velocity": 51,
                "duration": 0.13863636363636278,
                "tempo": 120.0
            },
            {
                "start_time": 7.552272727272727,
                "end_time": 7.6909090909090905,
                "pitch": 43,
                "velocity": 51,
                "duration": 0.13863636363636367,
                "tempo": 120.0
            },
            {
                "start_time": 7.709090909090909,
                "end_time": 7.847727272727273,
                "pitch": 36,
                "velocity": 51,
                "duration": 0.13863636363636367,
                "tempo": 120.0
            },
            {
                "start_time": 7.863636363636363,
                "end_time": 8.004545454545454,
                "pitch": 43,
                "velocity": 51,
                "duration": 0.14090909090909065,
                "tempo": 120.0
            },
            {
                "start_time": 8.020454545454545,
                "end_time": 8.152272727272727,
                "pitch": 36,
                "velocity": 51,
                "duration": 0.13181818181818272,
                "tempo": 120.0
            },
            {
                "start_time": 8.168181818181818,
                "end_time": 8.299999999999999,
                "pitch": 43,
                "velocity": 51,
                "duration": 0.13181818181818095,
                "tempo": 120.0
            },
            {
                "start_time": 8.318181818181818,
                "end_time": 8.45,
                "pitch": 36,
                "velocity": 51,
                "duration": 0.13181818181818095,
                "tempo": 120.0
            },
            {
                "start_time": 8.46590909090909,
                "end_time": 8.597727272727273,
                "pitch": 43,
                "velocity": 51,
                "duration": 0.13181818181818272,
                "tempo": 120.0
            },
            {
                "start_time": 8.613636363636363,
                "end_time": 8.75,
                "pitch": 36,
                "velocity": 51,
                "duration": 0.1363636363636367,
                "tempo": 120.0
            },
            {
                "start_time": 8.768181818181818,
                "end_time": 8.904545454545454,
                "pitch": 43,
                "velocity": 51,
                "duration": 0.1363636363636367,
                "tempo": 120.0
            },
            {
                "start_time": 8.920454545454545,
                "end_time": 9.056818181818182,
                "pitch": 42,
                "velocity": 51,
                "duration": 0.1363636363636367,
                "tempo": 120.0
            },
            {
                "start_time": 9.072727272727272,
                "end_time": 9.209090909090909,
                "pitch": 42,
                "velocity": 51,
                "duration": 0.1363636363636367,
                "tempo": 120.0
            },
            {
                "start_time": 9.227272727272727,
                "end_time": 9.35909090909091,
                "pitch": 42,
                "velocity": 51,
                "duration": 0.13181818181818272,
                "tempo": 120.0
            },
            {
                "start_time": 9.377272727272727,
                "end_time": 9.509090909090908,
                "pitch": 40,
                "velocity": 51,
                "duration": 0.13181818181818095,
                "tempo": 120.0
            },
            {
                "start_time": 9.527272727272727,
                "end_time": 9.659090909090908,
                "pitch": 36,
                "velocity": 51,
                "duration": 0.13181818181818095,
                "tempo": 120.0
            },
            {
                "start_time": 9.677272727272726,
                "end_time": 9.809090909090909,
                "pitch": 43,
                "velocity": 51,
                "duration": 0.13181818181818272,
                "tempo": 120.0
            },
            {
                "start_time": 9.827272727272726,
                "end_time": 9.959090909090909,
                "pitch": 36,
                "velocity": 51,
                "duration": 0.13181818181818272,
                "tempo": 120.0
            },
            {
                "start_time": 9.977272727272727,
                "end_time": 10.10909090909091,
                "pitch": 43,
                "velocity": 51,
                "duration": 0.13181818181818272,
                "tempo": 120.0
            },
            {
                "start_time": 10.127272727272727,
                "end_time": 10.259090909090908,
                "pitch": 36,
                "velocity": 51,
                "duration": 0.13181818181818095,
                "tempo": 120.0
            },
            {
                "start_time": 10.277272727272727,
                "end_time": 10.409090909090908,
                "pitch": 43,
                "velocity": 51,
                "duration": 0.13181818181818095,
                "tempo": 120.0
            },
            {
                "start_time": 10.427272727272726,
                "end_time": 10.561363636363636,
                "pitch": 36,
                "velocity": 51,
                "duration": 0.1340909090909097,
                "tempo": 120.0
            },
            {
                "start_time": 10.577272727272726,
                "end_time": 10.713636363636363,
                "pitch": 43,
                "velocity": 51,
                "duration": 0.1363636363636367,
                "tempo": 120.0
            },
            {
                "start_time": 10.729545454545454,
                "end_time": 10.863636363636363,
                "pitch": 36,
                "velocity": 51,
                "duration": 0.1340909090909097,
                "tempo": 120.0
            },
            {
                "start_time": 10.881818181818181,
                "end_time": 11.01590909090909,
                "pitch": 43,
                "velocity": 51,
                "duration": 0.1340909090909097,
                "tempo": 120.0
            },
            {
                "start_time": 11.031818181818181,
                "end_time": 11.165909090909091,
                "pitch": 36,
                "velocity": 51,
                "duration": 0.1340909090909097,
                "tempo": 120.0
            },
            {
                "start_time": 11.181818181818182,
                "end_time": 11.31590909090909,
                "pitch": 43,
                "velocity": 51,
                "duration": 0.13409090909090793,
                "tempo": 120.0
            },
            {
                "start_time": 11.331818181818182,
                "end_time": 11.46590909090909,
                "pitch": 42,
                "velocity": 51,
                "duration": 0.13409090909090793,
                "tempo": 120.0
            },
            {
                "start_time": 11.48181818181818,
                "end_time": 11.61590909090909,
                "pitch": 42,
                "velocity": 51,
                "duration": 0.1340909090909097,
                "tempo": 120.0
            },
            {
                "start_time": 11.631818181818181,
                "end_time": 11.763636363636364,
                "pitch": 42,
                "velocity": 51,
                "duration": 0.13181818181818272,
                "tempo": 120.0
            },
            {
                "start_time": 11.781818181818181,
                "end_time": 11.913636363636362,
                "pitch": 40,
                "velocity": 51,
                "duration": 0.13181818181818095,
                "tempo": 120.0
            },
            {
                "start_time": 11.929545454545455,
                "end_time": 12.061363636363636,
                "pitch": 36,
                "velocity": 51,
                "duration": 0.13181818181818095,
                "tempo": 120.0
            },
            {
                "start_time": 12.077272727272726,
                "end_time": 12.211363636363636,
                "pitch": 43,
                "velocity": 51,
                "duration": 0.1340909090909097,
                "tempo": 120.0
            },
            {
                "start_time": 12.227272727272727,
                "end_time": 12.506818181818181,
                "pitch": 36,
                "velocity": 51,
                "duration": 0.2795454545454543,
                "tempo": 120.0
            },
            {
                "start_time": 12.522727272727272,
                "end_time": 12.804545454545455,
                "pitch": 36,
                "velocity": 51,
                "duration": 0.2818181818181831,
                "tempo": 120.0
            },
            {
                "start_time": 12.820454545454545,
                "end_time": 13.104545454545454,
                "pitch": 36,
                "velocity": 51,
                "duration": 0.2840909090909083,
                "tempo": 120.0
            },
            {
                "start_time": 13.120454545454544,
                "end_time": 13.254545454545454,
                "pitch": 36,
                "velocity": 51,
                "duration": 0.1340909090909097,
                "tempo": 120.0
            },
            {
                "start_time": 13.270454545454545,
                "end_time": 13.404545454545454,
                "pitch": 43,
                "velocity": 51,
                "duration": 0.1340909090909097,
                "tempo": 120.0
            },
            {
                "start_time": 13.420454545454545,
                "end_time": 13.704545454545453,
                "pitch": 36,
                "velocity": 51,
                "duration": 0.2840909090909083,
                "tempo": 120.0
            },
            {
                "start_time": 13.720454545454544,
                "end_time": 14.004545454545454,
                "pitch": 36,
                "velocity": 51,
                "duration": 0.28409090909091006,
                "tempo": 120.0
            },
            {
                "start_time": 14.020454545454545,
                "end_time": 14.311363636363636,
                "pitch": 36,
                "velocity": 51,
                "duration": 0.290909090909091,
                "tempo": 120.0
            },
            {
                "start_time": 14.327272727272726,
                "end_time": 14.463636363636363,
                "pitch": 36,
                "velocity": 51,
                "duration": 0.1363636363636367,
                "tempo": 120.0
            },
            {
                "start_time": 14.479545454545454,
                "end_time": 14.61590909090909,
                "pitch": 43,
                "velocity": 51,
                "duration": 0.1363636363636367,
                "tempo": 120.0
            },
            {
                "start_time": 14.631818181818181,
                "end_time": 14.913636363636362,
                "pitch": 36,
                "velocity": 51,
                "duration": 0.2818181818181813,
                "tempo": 120.0
            },
            {
                "start_time": 14.929545454545455,
                "end_time": 15.211363636363636,
                "pitch": 36,
                "velocity": 51,
                "duration": 0.2818181818181813,
                "tempo": 120.0
            },
            {
                "start_time": 15.227272727272727,
                "end_time": 15.511363636363635,
                "pitch": 36,
                "velocity": 51,
                "duration": 0.2840909090909083,
                "tempo": 120.0
            },
            {
                "start_time": 15.527272727272727,
                "end_time": 15.661363636363635,
                "pitch": 36,
                "velocity": 51,
                "duration": 0.13409090909090793,
                "tempo": 120.0
            },
            {
                "start_time": 15.677272727272726,
                "end_time": 15.811363636363636,
                "pitch": 43,
                "velocity": 51,
                "duration": 0.1340909090909097,
                "tempo": 120.0
            },
            {
                "start_time": 15.827272727272726,
                "end_time": 16.111363636363635,
                "pitch": 36,
                "velocity": 51,
                "duration": 0.2840909090909083,
                "tempo": 120.0
            },
            {
                "start_time": 16.127272727272725,
                "end_time": 16.411363636363635,
                "pitch": 36,
                "velocity": 51,
                "duration": 0.28409090909091006,
                "tempo": 120.0
            },
            {
                "start_time": 16.427272727272726,
                "end_time": 16.71590909090909,
                "pitch": 36,
                "velocity": 51,
                "duration": 0.288636363636364,
                "tempo": 120.0
            },
            {
                "start_time": 16.73409090909091,
                "end_time": 17.022727272727273,
                "pitch": 48,
                "velocity": 51,
                "duration": 0.288636363636364,
                "tempo": 120.0
            },
            {
                "start_time": 17.038636363636364,
                "end_time": 17.32272727272727,
                "pitch": 48,
                "velocity": 51,
                "duration": 0.2840909090909065,
                "tempo": 120.0
            },
            {
                "start_time": 17.33863636363636,
                "end_time": 17.62272727272727,
                "pitch": 48,
                "velocity": 51,
                "duration": 0.28409090909091006,
                "tempo": 120.0
            },
            {
                "start_time": 17.638636363636362,
                "end_time": 17.920454545454543,
                "pitch": 48,
                "velocity": 51,
                "duration": 0.2818181818181813,
                "tempo": 120.0
            },
            {
                "start_time": 17.936363636363634,
                "end_time": 18.21590909090909,
                "pitch": 48,
                "velocity": 51,
                "duration": 0.2795454545454561,
                "tempo": 120.0
            },
            {
                "start_time": 18.23409090909091,
                "end_time": 18.522727272727273,
                "pitch": 48,
                "velocity": 51,
                "duration": 0.288636363636364,
                "tempo": 120.0
            },
            {
                "start_time": 18.538636363636364,
                "end_time": 18.829545454545453,
                "pitch": 48,
                "velocity": 51,
                "duration": 0.29090909090908923,
                "tempo": 120.0
            },
            {
                "start_time": 18.845454545454544,
                "end_time": 19.129545454545454,
                "pitch": 48,
                "velocity": 51,
                "duration": 0.28409090909091006,
                "tempo": 120.0
            },
            {
                "start_time": 19.145454545454545,
                "end_time": 19.429545454545455,
                "pitch": 48,
                "velocity": 51,
                "duration": 0.28409090909091006,
                "tempo": 120.0
            },
            {
                "start_time": 19.445454545454545,
                "end_time": 19.73409090909091,
                "pitch": 48,
                "velocity": 51,
                "duration": 0.288636363636364,
                "tempo": 120.0
            },
            {
                "start_time": 19.752272727272725,
                "end_time": 20.04090909090909,
                "pitch": 48,
                "velocity": 51,
                "duration": 0.288636363636364,
                "tempo": 120.0
            },
            {
                "start_time": 20.05681818181818,
                "end_time": 20.331818181818182,
                "pitch": 48,
                "velocity": 51,
                "duration": 0.27500000000000213,
                "tempo": 120.0
            },
            {
                "start_time": 20.347727272727273,
                "end_time": 20.62272727272727,
                "pitch": 48,
                "velocity": 51,
                "duration": 0.2749999999999986,
                "tempo": 120.0
            },
            {
                "start_time": 20.64090909090909,
                "end_time": 20.929545454545455,
                "pitch": 48,
                "velocity": 51,
                "duration": 0.288636363636364,
                "tempo": 120.0
            },
            {
                "start_time": 20.945454545454545,
                "end_time": 21.23409090909091,
                "pitch": 48,
                "velocity": 51,
                "duration": 0.288636363636364,
                "tempo": 120.0
            },
            {
                "start_time": 21.252272727272725,
                "end_time": 21.538636363636364,
                "pitch": 48,
                "velocity": 51,
                "duration": 0.2863636363636388,
                "tempo": 120.0
            },
            {
                "start_time": 21.554545454545455,
                "end_time": 21.688636363636363,
                "pitch": 36,
                "velocity": 51,
                "duration": 0.13409090909090793,
                "tempo": 120.0
            },
            {
                "start_time": 21.706818181818182,
                "end_time": 21.84090909090909,
                "pitch": 43,
                "velocity": 51,
                "duration": 0.13409090909090793,
                "tempo": 120.0
            },
            {
                "start_time": 21.85909090909091,
                "end_time": 21.993181818181817,
                "pitch": 36,
                "velocity": 51,
                "duration": 0.13409090909090793,
                "tempo": 120.0
            },
            {
                "start_time": 22.011363636363637,
                "end_time": 22.147727272727273,
                "pitch": 43,
                "velocity": 51,
                "duration": 0.1363636363636367,
                "tempo": 120.0
            },
            {
                "start_time": 22.163636363636364,
                "end_time": 22.299999999999997,
                "pitch": 36,
                "velocity": 51,
                "duration": 0.13636363636363313,
                "tempo": 120.0
            },
            {
                "start_time": 22.318181818181817,
                "end_time": 22.452272727272724,
                "pitch": 43,
                "velocity": 51,
                "duration": 0.13409090909090793,
                "tempo": 120.0
            },
            {
                "start_time": 22.470454545454544,
                "end_time": 22.597727272727273,
                "pitch": 36,
                "velocity": 51,
                "duration": 0.12727272727272876,
                "tempo": 120.0
            },
            {
                "start_time": 22.61590909090909,
                "end_time": 22.745454545454546,
                "pitch": 43,
                "velocity": 51,
                "duration": 0.12954545454545752,
                "tempo": 120.0
            },
            {
                "start_time": 22.761363636363637,
                "end_time": 22.89090909090909,
                "pitch": 36,
                "velocity": 51,
                "duration": 0.12954545454545396,
                "tempo": 120.0
            },
            {
                "start_time": 22.90681818181818,
                "end_time": 23.036363636363635,
                "pitch": 43,
                "velocity": 51,
                "duration": 0.12954545454545396,
                "tempo": 120.0
            },
            {
                "start_time": 23.052272727272726,
                "end_time": 23.19090909090909,
                "pitch": 36,
                "velocity": 51,
                "duration": 0.13863636363636545,
                "tempo": 120.0
            },
            {
                "start_time": 23.209090909090907,
                "end_time": 23.347727272727273,
                "pitch": 43,
                "velocity": 51,
                "duration": 0.13863636363636545,
                "tempo": 120.0
            },
            {
                "start_time": 23.363636363636363,
                "end_time": 23.502272727272725,
                "pitch": 42,
                "velocity": 51,
                "duration": 0.1386363636363619,
                "tempo": 120.0
            },
            {
                "start_time": 23.520454545454545,
                "end_time": 23.659090909090907,
                "pitch": 42,
                "velocity": 51,
                "duration": 0.1386363636363619,
                "tempo": 120.0
            },
            {
                "start_time": 23.674999999999997,
                "end_time": 23.804545454545455,
                "pitch": 42,
                "velocity": 51,
                "duration": 0.12954545454545752,
                "tempo": 120.0
            },
            {
                "start_time": 23.820454545454545,
                "end_time": 23.95,
                "pitch": 40,
                "velocity": 51,
                "duration": 0.12954545454545396,
                "tempo": 120.0
            },
            {
                "start_time": 23.96590909090909,
                "end_time": 24.095454545454544,
                "pitch": 36,
                "velocity": 51,
                "duration": 0.12954545454545396,
                "tempo": 120.0
            },
            {
                "start_time": 24.111363636363635,
                "end_time": 24.24090909090909,
                "pitch": 43,
                "velocity": 51,
                "duration": 0.12954545454545396,
                "tempo": 120.0
            },
            {
                "start_time": 24.259090909090908,
                "end_time": 24.39772727272727,
                "pitch": 36,
                "velocity": 51,
                "duration": 0.1386363636363619,
                "tempo": 120.0
            },
            {
                "start_time": 24.413636363636364,
                "end_time": 24.552272727272726,
                "pitch": 43,
                "velocity": 51,
                "duration": 0.1386363636363619,
                "tempo": 120.0
            },
            {
                "start_time": 24.570454545454545,
                "end_time": 24.709090909090907,
                "pitch": 36,
                "velocity": 51,
                "duration": 0.1386363636363619,
                "tempo": 120.0
            },
            {
                "start_time": 24.727272727272727,
                "end_time": 24.86590909090909,
                "pitch": 43,
                "velocity": 51,
                "duration": 0.1386363636363619,
                "tempo": 120.0
            },
            {
                "start_time": 24.88181818181818,
                "end_time": 25.018181818181816,
                "pitch": 36,
                "velocity": 51,
                "duration": 0.1363636363636367,
                "tempo": 120.0
            },
            {
                "start_time": 25.034090909090907,
                "end_time": 25.168181818181818,
                "pitch": 43,
                "velocity": 51,
                "duration": 0.13409090909091148,
                "tempo": 120.0
            },
            {
                "start_time": 25.186363636363634,
                "end_time": 25.320454545454545,
                "pitch": 36,
                "velocity": 51,
                "duration": 0.13409090909091148,
                "tempo": 120.0
            },
            {
                "start_time": 25.336363636363636,
                "end_time": 25.472727272727273,
                "pitch": 43,
                "velocity": 51,
                "duration": 0.1363636363636367,
                "tempo": 120.0
            },
            {
                "start_time": 25.488636363636363,
                "end_time": 25.62272727272727,
                "pitch": 36,
                "velocity": 51,
                "duration": 0.13409090909090793,
                "tempo": 120.0
            },
            {
                "start_time": 25.638636363636362,
                "end_time": 25.77272727272727,
                "pitch": 43,
                "velocity": 51,
                "duration": 0.13409090909090793,
                "tempo": 120.0
            },
            {
                "start_time": 25.788636363636364,
                "end_time": 25.922727272727272,
                "pitch": 42,
                "velocity": 51,
                "duration": 0.13409090909090793,
                "tempo": 120.0
            },
            {
                "start_time": 25.938636363636363,
                "end_time": 26.07272727272727,
                "pitch": 42,
                "velocity": 51,
                "duration": 0.13409090909090793,
                "tempo": 120.0
            },
            {
                "start_time": 26.08863636363636,
                "end_time": 26.222727272727273,
                "pitch": 42,
                "velocity": 51,
                "duration": 0.13409090909091148,
                "tempo": 120.0
            },
            {
                "start_time": 26.24090909090909,
                "end_time": 26.375,
                "pitch": 40,
                "velocity": 51,
                "duration": 0.13409090909091148,
                "tempo": 120.0
            },
            {
                "start_time": 26.39090909090909,
                "end_time": 26.527272727272727,
                "pitch": 36,
                "velocity": 51,
                "duration": 0.1363636363636367,
                "tempo": 120.0
            },
            {
                "start_time": 26.543181818181818,
                "end_time": 26.677272727272726,
                "pitch": 43,
                "velocity": 51,
                "duration": 0.13409090909090793,
                "tempo": 120.0
            },
            {
                "start_time": 26.695454545454545,
                "end_time": 26.829545454545453,
                "pitch": 36,
                "velocity": 51,
                "duration": 0.13409090909090793,
                "tempo": 120.0
            },
            {
                "start_time": 26.845454545454544,
                "end_time": 26.98181818181818,
                "pitch": 43,
                "velocity": 51,
                "duration": 0.1363636363636367,
                "tempo": 120.0
            },
            {
                "start_time": 26.99772727272727,
                "end_time": 27.13181818181818,
                "pitch": 36,
                "velocity": 51,
                "duration": 0.13409090909090793,
                "tempo": 120.0
            },
            {
                "start_time": 27.15,
                "end_time": 27.284090909090907,
                "pitch": 43,
                "velocity": 51,
                "duration": 0.13409090909090793,
                "tempo": 120.0
            },
            {
                "start_time": 27.299999999999997,
                "end_time": 27.43409090909091,
                "pitch": 36,
                "velocity": 51,
                "duration": 0.13409090909091148,
                "tempo": 120.0
            },
            {
                "start_time": 27.45,
                "end_time": 27.584090909090907,
                "pitch": 43,
                "velocity": 51,
                "duration": 0.13409090909090793,
                "tempo": 120.0
            },
            {
                "start_time": 27.599999999999998,
                "end_time": 27.73409090909091,
                "pitch": 36,
                "velocity": 51,
                "duration": 0.13409090909091148,
                "tempo": 120.0
            },
            {
                "start_time": 27.75,
                "end_time": 27.884090909090908,
                "pitch": 43,
                "velocity": 51,
                "duration": 0.13409090909090793,
                "tempo": 120.0
            },
            {
                "start_time": 27.9,
                "end_time": 28.036363636363635,
                "pitch": 36,
                "velocity": 51,
                "duration": 0.1363636363636367,
                "tempo": 120.0
            },
            {
                "start_time": 28.052272727272726,
                "end_time": 28.186363636363634,
                "pitch": 43,
                "velocity": 51,
                "duration": 0.13409090909090793,
                "tempo": 120.0
            },
            {
                "start_time": 28.204545454545453,
                "end_time": 28.33863636363636,
                "pitch": 42,
                "velocity": 51,
                "duration": 0.13409090909090793,
                "tempo": 120.0
            },
            {
                "start_time": 28.354545454545452,
                "end_time": 28.49090909090909,
                "pitch": 42,
                "velocity": 51,
                "duration": 0.1363636363636367,
                "tempo": 120.0
            },
            {
                "start_time": 28.50681818181818,
                "end_time": 28.64090909090909,
                "pitch": 42,
                "velocity": 51,
                "duration": 0.13409090909091148,
                "tempo": 120.0
            },
            {
                "start_time": 28.65681818181818,
                "end_time": 28.79090909090909,
                "pitch": 40,
                "velocity": 51,
                "duration": 0.13409090909090793,
                "tempo": 120.0
            },
            {
                "start_time": 28.80681818181818,
                "end_time": 28.940909090909088,
                "pitch": 36,
                "velocity": 51,
                "duration": 0.13409090909090793,
                "tempo": 120.0
            },
            {
                "start_time": 28.956818181818182,
                "end_time": 29.09090909090909,
                "pitch": 43,
                "velocity": 51,
                "duration": 0.13409090909090793,
                "tempo": 120.0
            },
            {
                "start_time": 29.10681818181818,
                "end_time": 29.38181818181818,
                "pitch": 36,
                "velocity": 51,
                "duration": 0.2749999999999986,
                "tempo": 120.0
            },
            {
                "start_time": 29.39772727272727,
                "end_time": 29.672727272727272,
                "pitch": 36,
                "velocity": 51,
                "duration": 0.27500000000000213,
                "tempo": 120.0
            },
            {
                "start_time": 29.688636363636363,
                "end_time": 29.972727272727273,
                "pitch": 36,
                "velocity": 51,
                "duration": 0.28409090909091006,
                "tempo": 120.0
            },
            {
                "start_time": 29.988636363636363,
                "end_time": 30.12272727272727,
                "pitch": 36,
                "velocity": 51,
                "duration": 0.13409090909090793,
                "tempo": 120.0
            },
            {
                "start_time": 30.138636363636362,
                "end_time": 30.27272727272727,
                "pitch": 43,
                "velocity": 51,
                "duration": 0.13409090909090793,
                "tempo": 120.0
            },
            {
                "start_time": 30.29090909090909,
                "end_time": 30.575,
                "pitch": 36,
                "velocity": 51,
                "duration": 0.28409090909091006,
                "tempo": 120.0
            },
            {
                "start_time": 30.593181818181815,
                "end_time": 30.879545454545454,
                "pitch": 36,
                "velocity": 51,
                "duration": 0.2863636363636388,
                "tempo": 120.0
            },
            {
                "start_time": 30.895454545454545,
                "end_time": 31.18181818181818,
                "pitch": 36,
                "velocity": 51,
                "duration": 0.28636363636363527,
                "tempo": 120.0
            },
            {
                "start_time": 31.2,
                "end_time": 31.334090909090907,
                "pitch": 36,
                "velocity": 51,
                "duration": 0.13409090909090793,
                "tempo": 120.0
            },
            {
                "start_time": 31.349999999999998,
                "end_time": 31.484090909090906,
                "pitch": 43,
                "velocity": 51,
                "duration": 0.13409090909090793,
                "tempo": 120.0
            },
            {
                "start_time": 31.502272727272725,
                "end_time": 31.784090909090907,
                "pitch": 36,
                "velocity": 51,
                "duration": 0.2818181818181813,
                "tempo": 120.0
            },
            {
                "start_time": 31.802272727272726,
                "end_time": 32.08409090909091,
                "pitch": 36,
                "velocity": 51,
                "duration": 0.28181818181818485,
                "tempo": 120.0
            },
            {
                "start_time": 32.10227272727273,
                "end_time": 32.39090909090909,
                "pitch": 36,
                "velocity": 51,
                "duration": 0.288636363636364,
                "tempo": 120.0
            },
            {
                "start_time": 32.40909090909091,
                "end_time": 32.543181818181814,
                "pitch": 36,
                "velocity": 51,
                "duration": 0.13409090909090793,
                "tempo": 120.0
            },
            {
                "start_time": 32.56136363636364,
                "end_time": 32.69772727272727,
                "pitch": 43,
                "velocity": 51,
                "duration": 0.13636363636363313,
                "tempo": 120.0
            },
            {
                "start_time": 32.71363636363636,
                "end_time": 32.99772727272727,
                "pitch": 36,
                "velocity": 51,
                "duration": 0.2840909090909065,
                "tempo": 120.0
            },
            {
                "start_time": 33.013636363636365,
                "end_time": 33.29772727272727,
                "pitch": 36,
                "velocity": 51,
                "duration": 0.2840909090909065,
                "tempo": 120.0
            },
            {
                "start_time": 33.31363636363636,
                "end_time": 33.6,
                "pitch": 36,
                "velocity": 51,
                "duration": 0.2863636363636388,
                "tempo": 120.0
            },
            {
                "start_time": 33.61818181818182,
                "end_time": 33.752272727272725,
                "pitch": 51,
                "velocity": 51,
                "duration": 0.13409090909090793,
                "tempo": 120.0
            },
            {
                "start_time": 33.768181818181816,
                "end_time": 33.902272727272724,
                "pitch": 58,
                "velocity": 51,
                "duration": 0.13409090909090793,
                "tempo": 120.0
            },
            {
                "start_time": 33.92045454545455,
                "end_time": 34.05227272727272,
                "pitch": 51,
                "velocity": 51,
                "duration": 0.13181818181817562,
                "tempo": 120.0
            },
            {
                "start_time": 34.06818181818181,
                "end_time": 34.199999999999996,
                "pitch": 58,
                "velocity": 51,
                "duration": 0.13181818181818272,
                "tempo": 120.0
            },
            {
                "start_time": 34.215909090909086,
                "end_time": 34.35,
                "pitch": 51,
                "velocity": 51,
                "duration": 0.13409090909091503,
                "tempo": 120.0
            },
            {
                "start_time": 34.36590909090909,
                "end_time": 34.49772727272727,
                "pitch": 58,
                "velocity": 51,
                "duration": 0.13181818181817562,
                "tempo": 120.0
            },
            {
                "start_time": 34.513636363636365,
                "end_time": 34.65,
                "pitch": 51,
                "velocity": 51,
                "duration": 0.13636363636363313,
                "tempo": 120.0
            },
            {
                "start_time": 34.66590909090909,
                "end_time": 34.8,
                "pitch": 58,
                "velocity": 51,
                "duration": 0.13409090909090793,
                "tempo": 120.0
            },
            {
                "start_time": 34.81818181818181,
                "end_time": 34.95227272727273,
                "pitch": 51,
                "velocity": 51,
                "duration": 0.13409090909091503,
                "tempo": 120.0
            },
            {
                "start_time": 34.96818181818182,
                "end_time": 35.10454545454545,
                "pitch": 58,
                "velocity": 51,
                "duration": 0.13636363636363313,
                "tempo": 120.0
            },
            {
                "start_time": 35.12045454545454,
                "end_time": 35.25454545454545,
                "pitch": 51,
                "velocity": 51,
                "duration": 0.13409090909090793,
                "tempo": 120.0
            },
            {
                "start_time": 35.27045454545454,
                "end_time": 35.404545454545456,
                "pitch": 58,
                "velocity": 51,
                "duration": 0.13409090909091503,
                "tempo": 120.0
            },
            {
                "start_time": 35.42045454545455,
                "end_time": 35.554545454545455,
                "pitch": 51,
                "velocity": 51,
                "duration": 0.13409090909090793,
                "tempo": 120.0
            },
            {
                "start_time": 35.570454545454545,
                "end_time": 35.70454545454545,
                "pitch": 58,
                "velocity": 51,
                "duration": 0.13409090909090793,
                "tempo": 120.0
            },
            {
                "start_time": 35.720454545454544,
                "end_time": 35.85454545454545,
                "pitch": 51,
                "velocity": 51,
                "duration": 0.13409090909090793,
                "tempo": 120.0
            },
            {
                "start_time": 35.87272727272727,
                "end_time": 36.00681818181818,
                "pitch": 58,
                "velocity": 51,
                "duration": 0.13409090909091503,
                "tempo": 120.0
            },
            {
                "start_time": 36.02272727272727,
                "end_time": 36.15909090909091,
                "pitch": 47,
                "velocity": 51,
                "duration": 0.13636363636363313,
                "tempo": 120.0
            },
            {
                "start_time": 36.175,
                "end_time": 36.309090909090905,
                "pitch": 54,
                "velocity": 51,
                "duration": 0.13409090909090793,
                "tempo": 120.0
            },
            {
                "start_time": 36.32727272727273,
                "end_time": 36.461363636363636,
                "pitch": 47,
                "velocity": 51,
                "duration": 0.13409090909090793,
                "tempo": 120.0
            },
            {
                "start_time": 36.47727272727273,
                "end_time": 36.61363636363636,
                "pitch": 54,
                "velocity": 51,
                "duration": 0.13636363636363313,
                "tempo": 120.0
            },
            {
                "start_time": 36.62954545454545,
                "end_time": 36.76363636363636,
                "pitch": 47,
                "velocity": 51,
                "duration": 0.13409090909090793,
                "tempo": 120.0
            },
            {
                "start_time": 36.78181818181818,
                "end_time": 36.91590909090909,
                "pitch": 54,
                "velocity": 51,
                "duration": 0.13409090909090793,
                "tempo": 120.0
            },
            {
                "start_time": 36.93181818181818,
                "end_time": 37.070454545454545,
                "pitch": 47,
                "velocity": 51,
                "duration": 0.13863636363636545,
                "tempo": 120.0
            },
            {
                "start_time": 37.08863636363636,
                "end_time": 37.22727272727273,
                "pitch": 54,
                "velocity": 51,
                "duration": 0.13863636363636545,
                "tempo": 120.0
            },
            {
                "start_time": 37.24545454545454,
                "end_time": 37.38409090909091,
                "pitch": 47,
                "velocity": 51,
                "duration": 0.13863636363636545,
                "tempo": 120.0
            },
            {
                "start_time": 37.4,
                "end_time": 37.54090909090909,
                "pitch": 54,
                "velocity": 51,
                "duration": 0.14090909090909065,
                "tempo": 120.0
            },
            {
                "start_time": 37.55681818181818,
                "end_time": 37.69318181818181,
                "pitch": 47,
                "velocity": 51,
                "duration": 0.13636363636363313,
                "tempo": 120.0
            },
            {
                "start_time": 37.70909090909091,
                "end_time": 37.84318181818182,
                "pitch": 54,
                "velocity": 51,
                "duration": 0.13409090909090793,
                "tempo": 120.0
            },
            {
                "start_time": 37.861363636363635,
                "end_time": 37.99545454545454,
                "pitch": 47,
                "velocity": 51,
                "duration": 0.13409090909090793,
                "tempo": 120.0
            },
            {
                "start_time": 38.01136363636363,
                "end_time": 38.14772727272727,
                "pitch": 54,
                "velocity": 51,
                "duration": 0.13636363636364024,
                "tempo": 120.0
            },
            {
                "start_time": 38.163636363636364,
                "end_time": 38.29772727272727,
                "pitch": 47,
                "velocity": 51,
                "duration": 0.13409090909090793,
                "tempo": 120.0
            },
            {
                "start_time": 38.31590909090909,
                "end_time": 38.449999999999996,
                "pitch": 54,
                "velocity": 51,
                "duration": 0.13409090909090793,
                "tempo": 120.0
            },
            {
                "start_time": 38.465909090909086,
                "end_time": 38.60227272727273,
                "pitch": 43,
                "velocity": 51,
                "duration": 0.13636363636364024,
                "tempo": 120.0
            },
            {
                "start_time": 38.61818181818182,
                "end_time": 38.752272727272725,
                "pitch": 50,
                "velocity": 51,
                "duration": 0.13409090909090793,
                "tempo": 120.0
            },
            {
                "start_time": 38.77045454545454,
                "end_time": 38.902272727272724,
                "pitch": 43,
                "velocity": 51,
                "duration": 0.13181818181818272,
                "tempo": 120.0
            },
            {
                "start_time": 38.918181818181814,
                "end_time": 39.05,
                "pitch": 50,
                "velocity": 51,
                "duration": 0.13181818181818272,
                "tempo": 120.0
            },
            {
                "start_time": 39.06590909090909,
                "end_time": 39.19772727272727,
                "pitch": 43,
                "velocity": 51,
                "duration": 0.13181818181818272,
                "tempo": 120.0
            },
            {
                "start_time": 39.215909090909086,
                "end_time": 39.34772727272727,
                "pitch": 50,
                "velocity": 51,
                "duration": 0.13181818181818272,
                "tempo": 120.0
            },
            {
                "start_time": 39.36363636363636,
                "end_time": 39.49772727272727,
                "pitch": 43,
                "velocity": 51,
                "duration": 0.13409090909090793,
                "tempo": 120.0
            },
            {
                "start_time": 39.51590909090909,
                "end_time": 39.65,
                "pitch": 50,
                "velocity": 51,
                "duration": 0.13409090909090793,
                "tempo": 120.0
            },
            {
                "start_time": 39.66590909090909,
                "end_time": 39.80227272727272,
                "pitch": 43,
                "velocity": 51,
                "duration": 0.13636363636363313,
                "tempo": 120.0
            },
            {
                "start_time": 39.81818181818181,
                "end_time": 39.95227272727273,
                "pitch": 50,
                "velocity": 51,
                "duration": 0.13409090909091503,
                "tempo": 120.0
            },
            {
                "start_time": 39.970454545454544,
                "end_time": 40.10681818181818,
                "pitch": 43,
                "velocity": 51,
                "duration": 0.13636363636363313,
                "tempo": 120.0
            },
            {
                "start_time": 40.12272727272727,
                "end_time": 40.25909090909091,
                "pitch": 50,
                "velocity": 51,
                "duration": 0.13636363636364024,
                "tempo": 120.0
            },
            {
                "start_time": 40.275,
                "end_time": 40.41136363636363,
                "pitch": 43,
                "velocity": 51,
                "duration": 0.13636363636363313,
                "tempo": 120.0
            },
            {
                "start_time": 40.429545454545455,
                "end_time": 40.56590909090909,
                "pitch": 50,
                "velocity": 51,
                "duration": 0.13636363636363313,
                "tempo": 120.0
            },
            {
                "start_time": 40.58181818181818,
                "end_time": 40.711363636363636,
                "pitch": 43,
                "velocity": 51,
                "duration": 0.12954545454545752,
                "tempo": 120.0
            },
            {
                "start_time": 40.72727272727273,
                "end_time": 40.85681818181818,
                "pitch": 50,
                "velocity": 51,
                "duration": 0.1295454545454504,
                "tempo": 120.0
            },
            {
                "start_time": 40.87272727272727,
                "end_time": 41.002272727272725,
                "pitch": 38,
                "velocity": 51,
                "duration": 0.12954545454545752,
                "tempo": 120.0
            },
            {
                "start_time": 41.018181818181816,
                "end_time": 41.14772727272727,
                "pitch": 38,
                "velocity": 51,
                "duration": 0.12954545454545752,
                "tempo": 120.0
            },
            {
                "start_time": 41.163636363636364,
                "end_time": 41.30227272727272,
                "pitch": 38,
                "velocity": 51,
                "duration": 0.13863636363635834,
                "tempo": 120.0
            },
            {
                "start_time": 41.320454545454545,
                "end_time": 41.459090909090904,
                "pitch": 38,
                "velocity": 51,
                "duration": 0.13863636363635834,
                "tempo": 120.0
            },
            {
                "start_time": 41.475,
                "end_time": 41.61363636363636,
                "pitch": 38,
                "velocity": 51,
                "duration": 0.13863636363635834,
                "tempo": 120.0
            },
            {
                "start_time": 41.63181818181818,
                "end_time": 41.77045454545454,
                "pitch": 38,
                "velocity": 51,
                "duration": 0.13863636363635834,
                "tempo": 120.0
            },
            {
                "start_time": 41.78636363636363,
                "end_time": 41.91590909090909,
                "pitch": 38,
                "velocity": 51,
                "duration": 0.12954545454545752,
                "tempo": 120.0
            },
            {
                "start_time": 41.93181818181818,
                "end_time": 42.06136363636364,
                "pitch": 38,
                "velocity": 51,
                "duration": 0.12954545454545752,
                "tempo": 120.0
            },
            {
                "start_time": 42.07954545454545,
                "end_time": 42.20681818181818,
                "pitch": 43,
                "velocity": 51,
                "duration": 0.1272727272727252,
                "tempo": 120.0
            },
            {
                "start_time": 42.225,
                "end_time": 42.35454545454545,
                "pitch": 43,
                "velocity": 51,
                "duration": 0.1295454545454504,
                "tempo": 120.0
            },
            {
                "start_time": 42.37045454545454,
                "end_time": 42.50909090909091,
                "pitch": 43,
                "velocity": 51,
                "duration": 0.13863636363636545,
                "tempo": 120.0
            },
            {
                "start_time": 42.525,
                "end_time": 42.663636363636364,
                "pitch": 43,
                "velocity": 51,
                "duration": 0.13863636363636545,
                "tempo": 120.0
            },
            {
                "start_time": 42.68181818181818,
                "end_time": 42.820454545454545,
                "pitch": 43,
                "velocity": 51,
                "duration": 0.13863636363636545,
                "tempo": 120.0
            },
            {
                "start_time": 42.83863636363636,
                "end_time": 42.97727272727273,
                "pitch": 43,
                "velocity": 51,
                "duration": 0.13863636363636545,
                "tempo": 120.0
            },
            {
                "start_time": 42.99545454545454,
                "end_time": 43.127272727272725,
                "pitch": 43,
                "velocity": 51,
                "duration": 0.13181818181818272,
                "tempo": 120.0
            },
            {
                "start_time": 43.14545454545454,
                "end_time": 43.277272727272724,
                "pitch": 43,
                "velocity": 51,
                "duration": 0.13181818181818272,
                "tempo": 120.0
            },
            {
                "start_time": 43.29545454545455,
                "end_time": 43.42727272727272,
                "pitch": 36,
                "velocity": 51,
                "duration": 0.13181818181817562,
                "tempo": 120.0
            },
            {
                "start_time": 43.445454545454545,
                "end_time": 43.57727272727273,
                "pitch": 43,
                "velocity": 51,
                "duration": 0.13181818181818272,
                "tempo": 120.0
            },
            {
                "start_time": 43.595454545454544,
                "end_time": 43.72954545454545,
                "pitch": 36,
                "velocity": 51,
                "duration": 0.13409090909090793,
                "tempo": 120.0
            },
            {
                "start_time": 43.74545454545454,
                "end_time": 43.88181818181818,
                "pitch": 43,
                "velocity": 51,
                "duration": 0.13636363636364024,
                "tempo": 120.0
            },
            {
                "start_time": 43.89772727272727,
                "end_time": 44.03181818181818,
                "pitch": 36,
                "velocity": 51,
                "duration": 0.13409090909090793,
                "tempo": 120.0
            },
            {
                "start_time": 44.05,
                "end_time": 44.184090909090905,
                "pitch": 43,
                "velocity": 51,
                "duration": 0.13409090909090793,
                "tempo": 120.0
            },
            {
                "start_time": 44.199999999999996,
                "end_time": 44.336363636363636,
                "pitch": 36,
                "velocity": 51,
                "duration": 0.13636363636364024,
                "tempo": 120.0
            },
            {
                "start_time": 44.35227272727273,
                "end_time": 44.486363636363635,
                "pitch": 43,
                "velocity": 51,
                "duration": 0.13409090909090793,
                "tempo": 120.0
            }
        ],
        "Vibraphone": [
            {
                "start_time": 0.07727272727272727,
                "end_time": 0.11136363636363636,
                "pitch": 84,
                "velocity": 51,
                "duration": 0.03409090909090909,
                "tempo": 120.0
            },
            {
                "start_time": 0.1340909090909091,
                "end_time": 0.31136363636363634,
                "pitch": 84,
                "velocity": 51,
                "duration": 0.17727272727272725,
                "tempo": 120.0
            },
            {
                "start_time": 0.32727272727272727,
                "end_time": 0.3795454545454545,
                "pitch": 84,
                "velocity": 51,
                "duration": 0.05227272727272725,
                "tempo": 120.0
            },
            {
                "start_time": 0.41363636363636364,
                "end_time": 0.6136363636363636,
                "pitch": 84,
                "velocity": 51,
                "duration": 0.2,
                "tempo": 120.0
            },
            {
                "start_time": 0.6318181818181818,
                "end_time": 0.6818181818181818,
                "pitch": 84,
                "velocity": 51,
                "duration": 0.04999999999999993,
                "tempo": 120.0
            },
            {
                "start_time": 0.7159090909090908,
                "end_time": 0.9159090909090909,
                "pitch": 84,
                "velocity": 51,
                "duration": 0.20000000000000007,
                "tempo": 120.0
            },
            {
                "start_time": 0.9318181818181818,
                "end_time": 0.9818181818181818,
                "pitch": 84,
                "velocity": 51,
                "duration": 0.050000000000000044,
                "tempo": 120.0
            },
            {
                "start_time": 1.0159090909090909,
                "end_time": 1.0818181818181818,
                "pitch": 84,
                "velocity": 51,
                "duration": 0.06590909090909092,
                "tempo": 120.0
            },
            {
                "start_time": 1.0818181818181818,
                "end_time": 1.2159090909090908,
                "pitch": 84,
                "velocity": 51,
                "duration": 0.13409090909090904,
                "tempo": 120.0
            },
            {
                "start_time": 1.2318181818181817,
                "end_time": 1.2818181818181817,
                "pitch": 84,
                "velocity": 51,
                "duration": 0.050000000000000044,
                "tempo": 120.0
            },
            {
                "start_time": 1.315909090909091,
                "end_time": 1.5159090909090909,
                "pitch": 84,
                "velocity": 51,
                "duration": 0.19999999999999996,
                "tempo": 120.0
            },
            {
                "start_time": 1.5318181818181817,
                "end_time": 1.5818181818181818,
                "pitch": 84,
                "velocity": 51,
                "duration": 0.050000000000000044,
                "tempo": 120.0
            },
            {
                "start_time": 1.6159090909090907,
                "end_time": 1.815909090909091,
                "pitch": 84,
                "velocity": 51,
                "duration": 0.20000000000000018,
                "tempo": 120.0
            },
            {
                "start_time": 1.8318181818181818,
                "end_time": 1.8818181818181818,
                "pitch": 84,
                "velocity": 51,
                "duration": 0.050000000000000044,
                "tempo": 120.0
            },
            {
                "start_time": 1.9159090909090908,
                "end_time": 1.9659090909090908,
                "pitch": 84,
                "velocity": 51,
                "duration": 0.050000000000000044,
                "tempo": 120.0
            },
            {
                "start_time": 1.9818181818181817,
                "end_time": 2.0318181818181817,
                "pitch": 84,
                "velocity": 51,
                "duration": 0.050000000000000044,
                "tempo": 120.0
            },
            {
                "start_time": 2.0636363636363635,
                "end_time": 2.1113636363636363,
                "pitch": 84,
                "velocity": 51,
                "duration": 0.04772727272727284,
                "tempo": 120.0
            },
            {
                "start_time": 2.127272727272727,
                "end_time": 2.1772727272727272,
                "pitch": 84,
                "velocity": 51,
                "duration": 0.050000000000000266,
                "tempo": 120.0
            },
            {
                "start_time": 2.209090909090909,
                "end_time": 2.4022727272727273,
                "pitch": 84,
                "velocity": 51,
                "duration": 0.19318181818181834,
                "tempo": 120.0
            },
            {
                "start_time": 2.4204545454545454,
                "end_time": 2.4681818181818183,
                "pitch": 84,
                "velocity": 51,
                "duration": 0.04772727272727284,
                "tempo": 120.0
            },
            {
                "start_time": 2.5,
                "end_time": 2.7045454545454546,
                "pitch": 84,
                "velocity": 51,
                "duration": 0.20454545454545459,
                "tempo": 120.0
            },
            {
                "start_time": 2.7204545454545452,
                "end_time": 2.7727272727272725,
                "pitch": 84,
                "velocity": 51,
                "duration": 0.05227272727272725,
                "tempo": 120.0
            },
            {
                "start_time": 2.8068181818181817,
                "end_time": 3.0159090909090907,
                "pitch": 84,
                "velocity": 51,
                "duration": 0.209090909090909,
                "tempo": 120.0
            },
            {
                "start_time": 3.0340909090909087,
                "end_time": 3.0863636363636364,
                "pitch": 84,
                "velocity": 51,
                "duration": 0.05227272727272769,
                "tempo": 120.0
            },
            {
                "start_time": 3.120454545454545,
                "end_time": 3.3249999999999997,
                "pitch": 84,
                "velocity": 51,
                "duration": 0.20454545454545459,
                "tempo": 120.0
            },
            {
                "start_time": 3.340909090909091,
                "end_time": 3.3909090909090907,
                "pitch": 84,
                "velocity": 51,
                "duration": 0.04999999999999982,
                "tempo": 120.0
            },
            {
                "start_time": 3.425,
                "end_time": 3.627272727272727,
                "pitch": 84,
                "velocity": 51,
                "duration": 0.20227272727272716,
                "tempo": 120.0
            },
            {
                "start_time": 3.645454545454545,
                "end_time": 3.6954545454545453,
                "pitch": 84,
                "velocity": 51,
                "duration": 0.050000000000000266,
                "tempo": 120.0
            },
            {
                "start_time": 3.7295454545454545,
                "end_time": 3.9295454545454542,
                "pitch": 84,
                "velocity": 51,
                "duration": 0.19999999999999973,
                "tempo": 120.0
            },
            {
                "start_time": 3.9477272727272728,
                "end_time": 3.9977272727272726,
                "pitch": 84,
                "velocity": 51,
                "duration": 0.04999999999999982,
                "tempo": 120.0
            },
            {
                "start_time": 4.031818181818181,
                "end_time": 4.2340909090909085,
                "pitch": 84,
                "velocity": 51,
                "duration": 0.20227272727272716,
                "tempo": 120.0
            },
            {
                "start_time": 4.25,
                "end_time": 4.3,
                "pitch": 84,
                "velocity": 51,
                "duration": 0.04999999999999982,
                "tempo": 120.0
            },
            {
                "start_time": 4.334090909090909,
                "end_time": 4.384090909090909,
                "pitch": 84,
                "velocity": 51,
                "duration": 0.04999999999999982,
                "tempo": 120.0
            },
            {
                "start_time": 4.402272727272727,
                "end_time": 4.45,
                "pitch": 84,
                "velocity": 51,
                "duration": 0.04772727272727284,
                "tempo": 120.0
            },
            {
                "start_time": 4.4818181818181815,
                "end_time": 4.531818181818181,
                "pitch": 84,
                "velocity": 51,
                "duration": 0.04999999999999982,
                "tempo": 120.0
            },
            {
                "start_time": 4.547727272727273,
                "end_time": 4.595454545454545,
                "pitch": 84,
                "velocity": 51,
                "duration": 0.04772727272727195,
                "tempo": 120.0
            },
            {
                "start_time": 4.627272727272727,
                "end_time": 4.822727272727272,
                "pitch": 84,
                "velocity": 51,
                "duration": 0.19545454545454533,
                "tempo": 120.0
            },
            {
                "start_time": 4.838636363636363,
                "end_time": 4.886363636363636,
                "pitch": 84,
                "velocity": 51,
                "duration": 0.04772727272727284,
                "tempo": 120.0
            },
            {
                "start_time": 4.918181818181818,
                "end_time": 5.122727272727272,
                "pitch": 84,
                "velocity": 51,
                "duration": 0.20454545454545414,
                "tempo": 120.0
            },
            {
                "start_time": 5.140909090909091,
                "end_time": 5.1909090909090905,
                "pitch": 84,
                "velocity": 51,
                "duration": 0.04999999999999982,
                "tempo": 120.0
            },
            {
                "start_time": 5.227272727272727,
                "end_time": 5.434090909090909,
                "pitch": 84,
                "velocity": 51,
                "duration": 0.206818181818182,
                "tempo": 120.0
            },
            {
                "start_time": 5.452272727272727,
                "end_time": 5.504545454545454,
                "pitch": 84,
                "velocity": 51,
                "duration": 0.052272727272726804,
                "tempo": 120.0
            },
            {
                "start_time": 5.538636363636363,
                "end_time": 5.736363636363636,
                "pitch": 84,
                "velocity": 51,
                "duration": 0.1977272727272732,
                "tempo": 120.0
            },
            {
                "start_time": 5.752272727272727,
                "end_time": 5.802272727272727,
                "pitch": 84,
                "velocity": 51,
                "duration": 0.04999999999999982,
                "tempo": 120.0
            },
            {
                "start_time": 5.834090909090909,
                "end_time": 6.027272727272727,
                "pitch": 84,
                "velocity": 51,
                "duration": 0.19318181818181834,
                "tempo": 120.0
            },
            {
                "start_time": 6.045454545454545,
                "end_time": 6.093181818181818,
                "pitch": 84,
                "velocity": 51,
                "duration": 0.04772727272727284,
                "tempo": 120.0
            },
            {
                "start_time": 6.125,
                "end_time": 6.329545454545454,
                "pitch": 84,
                "velocity": 51,
                "duration": 0.20454545454545414,
                "tempo": 120.0
            },
            {
                "start_time": 6.345454545454545,
                "end_time": 6.3977272727272725,
                "pitch": 84,
                "velocity": 51,
                "duration": 0.05227272727272769,
                "tempo": 120.0
            },
            {
                "start_time": 6.431818181818182,
                "end_time": 6.640909090909091,
                "pitch": 84,
                "velocity": 51,
                "duration": 0.209090909090909,
                "tempo": 120.0
            },
            {
                "start_time": 6.659090909090909,
                "end_time": 6.711363636363636,
                "pitch": 84,
                "velocity": 51,
                "duration": 0.052272727272726804,
                "tempo": 120.0
            },
            {
                "start_time": 6.745454545454545,
                "end_time": 6.797727272727273,
                "pitch": 84,
                "velocity": 51,
                "duration": 0.05227272727272769,
                "tempo": 120.0
            },
            {
                "start_time": 6.8136363636363635,
                "end_time": 6.861363636363636,
                "pitch": 84,
                "velocity": 51,
                "duration": 0.04772727272727284,
                "tempo": 120.0
            },
            {
                "start_time": 6.8954545454545455,
                "end_time": 6.9431818181818175,
                "pitch": 84,
                "velocity": 51,
                "duration": 0.04772727272727195,
                "tempo": 120.0
            },
            {
                "start_time": 6.959090909090909,
                "end_time": 7.006818181818182,
                "pitch": 84,
                "velocity": 51,
                "duration": 0.04772727272727284,
                "tempo": 120.0
            },
            {
                "start_time": 7.040909090909091,
                "end_time": 7.2340909090909085,
                "pitch": 84,
                "velocity": 51,
                "duration": 0.19318181818181746,
                "tempo": 120.0
            },
            {
                "start_time": 7.25,
                "end_time": 7.3,
                "pitch": 84,
                "velocity": 51,
                "duration": 0.04999999999999982,
                "tempo": 120.0
            },
            {
                "start_time": 7.331818181818181,
                "end_time": 7.534090909090908,
                "pitch": 84,
                "velocity": 51,
                "duration": 0.20227272727272716,
                "tempo": 120.0
            },
            {
                "start_time": 7.552272727272727,
                "end_time": 7.6045454545454545,
                "pitch": 84,
                "velocity": 51,
                "duration": 0.05227272727272769,
                "tempo": 120.0
            },
            {
                "start_time": 7.638636363636364,
                "end_time": 7.847727272727273,
                "pitch": 84,
                "velocity": 51,
                "duration": 0.209090909090909,
                "tempo": 120.0
            },
            {
                "start_time": 7.863636363636363,
                "end_time": 7.91590909090909,
                "pitch": 84,
                "velocity": 51,
                "duration": 0.052272727272726804,
                "tempo": 120.0
            },
            {
                "start_time": 7.952272727272727,
                "end_time": 8.152272727272727,
                "pitch": 84,
                "velocity": 51,
                "duration": 0.20000000000000018,
                "tempo": 120.0
            },
            {
                "start_time": 8.168181818181818,
                "end_time": 8.218181818181817,
                "pitch": 84,
                "velocity": 51,
                "duration": 0.049999999999998934,
                "tempo": 120.0
            },
            {
                "start_time": 8.252272727272727,
                "end_time": 8.45,
                "pitch": 84,
                "velocity": 51,
                "duration": 0.1977272727272723,
                "tempo": 120.0
            },
            {
                "start_time": 8.46590909090909,
                "end_time": 8.51590909090909,
                "pitch": 84,
                "velocity": 51,
                "duration": 0.05000000000000071,
                "tempo": 120.0
            },
            {
                "start_time": 8.547727272727272,
                "end_time": 8.75,
                "pitch": 84,
                "velocity": 51,
                "duration": 0.20227272727272805,
                "tempo": 120.0
            },
            {
                "start_time": 8.768181818181818,
                "end_time": 8.818181818181818,
                "pitch": 84,
                "velocity": 51,
                "duration": 0.05000000000000071,
                "tempo": 120.0
            },
            {
                "start_time": 8.852272727272727,
                "end_time": 9.056818181818182,
                "pitch": 84,
                "velocity": 51,
                "duration": 0.20454545454545503,
                "tempo": 120.0
            },
            {
                "start_time": 9.072727272727272,
                "end_time": 9.125,
                "pitch": 84,
                "velocity": 51,
                "duration": 0.05227272727272769,
                "tempo": 120.0
            },
            {
                "start_time": 9.159090909090908,
                "end_time": 9.209090909090909,
                "pitch": 84,
                "velocity": 51,
                "duration": 0.05000000000000071,
                "tempo": 120.0
            },
            {
                "start_time": 9.227272727272727,
                "end_time": 9.277272727272727,
                "pitch": 84,
                "velocity": 51,
                "duration": 0.05000000000000071,
                "tempo": 120.0
            },
            {
                "start_time": 9.309090909090909,
                "end_time": 9.35909090909091,
                "pitch": 84,
                "velocity": 51,
                "duration": 0.05000000000000071,
                "tempo": 120.0
            },
            {
                "start_time": 9.377272727272727,
                "end_time": 9.427272727272728,
                "pitch": 84,
                "velocity": 51,
                "duration": 0.05000000000000071,
                "tempo": 120.0
            },
            {
                "start_time": 9.459090909090909,
                "end_time": 9.659090909090908,
                "pitch": 84,
                "velocity": 51,
                "duration": 0.1999999999999993,
                "tempo": 120.0
            },
            {
                "start_time": 9.677272727272726,
                "end_time": 9.727272727272727,
                "pitch": 84,
                "velocity": 51,
                "duration": 0.05000000000000071,
                "tempo": 120.0
            },
            {
                "start_time": 9.759090909090908,
                "end_time": 9.959090909090909,
                "pitch": 84,
                "velocity": 51,
                "duration": 0.20000000000000107,
                "tempo": 120.0
            },
            {
                "start_time": 9.977272727272727,
                "end_time": 10.027272727272727,
                "pitch": 84,
                "velocity": 51,
                "duration": 0.05000000000000071,
                "tempo": 120.0
            },
            {
                "start_time": 10.059090909090909,
                "end_time": 10.259090909090908,
                "pitch": 84,
                "velocity": 51,
                "duration": 0.1999999999999993,
                "tempo": 120.0
            },
            {
                "start_time": 10.277272727272727,
                "end_time": 10.327272727272726,
                "pitch": 84,
                "velocity": 51,
                "duration": 0.049999999999998934,
                "tempo": 120.0
            },
            {
                "start_time": 10.35909090909091,
                "end_time": 10.561363636363636,
                "pitch": 84,
                "velocity": 51,
                "duration": 0.20227272727272627,
                "tempo": 120.0
            },
            {
                "start_time": 10.577272727272726,
                "end_time": 10.629545454545454,
                "pitch": 84,
                "velocity": 51,
                "duration": 0.05227272727272769,
                "tempo": 120.0
            },
            {
                "start_time": 10.661363636363635,
                "end_time": 10.863636363636363,
                "pitch": 84,
                "velocity": 51,
                "duration": 0.20227272727272805,
                "tempo": 120.0
            },
            {
                "start_time": 10.881818181818181,
                "end_time": 10.931818181818182,
                "pitch": 84,
                "velocity": 51,
                "duration": 0.05000000000000071,
                "tempo": 120.0
            },
            {
                "start_time": 10.96590909090909,
                "end_time": 11.165909090909091,
                "pitch": 84,
                "velocity": 51,
                "duration": 0.20000000000000107,
                "tempo": 120.0
            },
            {
                "start_time": 11.181818181818182,
                "end_time": 11.23181818181818,
                "pitch": 84,
                "velocity": 51,
                "duration": 0.049999999999998934,
                "tempo": 120.0
            },
            {
                "start_time": 11.26590909090909,
                "end_time": 11.46590909090909,
                "pitch": 84,
                "velocity": 51,
                "duration": 0.1999999999999993,
                "tempo": 120.0
            },
            {
                "start_time": 11.48181818181818,
                "end_time": 11.531818181818181,
                "pitch": 84,
                "velocity": 51,
                "duration": 0.05000000000000071,
                "tempo": 120.0
            },
            {
                "start_time": 11.56590909090909,
                "end_time": 11.61590909090909,
                "pitch": 84,
                "velocity": 51,
                "duration": 0.05000000000000071,
                "tempo": 120.0
            },
            {
                "start_time": 11.631818181818181,
                "end_time": 11.681818181818182,
                "pitch": 84,
                "velocity": 51,
                "duration": 0.05000000000000071,
                "tempo": 120.0
            },
            {
                "start_time": 11.71590909090909,
                "end_time": 11.763636363636364,
                "pitch": 84,
                "velocity": 51,
                "duration": 0.04772727272727373,
                "tempo": 120.0
            },
            {
                "start_time": 11.781818181818181,
                "end_time": 11.831818181818182,
                "pitch": 84,
                "velocity": 51,
                "duration": 0.05000000000000071,
                "tempo": 120.0
            },
            {
                "start_time": 11.863636363636363,
                "end_time": 11.913636363636362,
                "pitch": 84,
                "velocity": 51,
                "duration": 0.049999999999998934,
                "tempo": 120.0
            },
            {
                "start_time": 11.929545454545455,
                "end_time": 11.979545454545454,
                "pitch": 84,
                "velocity": 51,
                "duration": 0.049999999999998934,
                "tempo": 120.0
            },
            {
                "start_time": 12.011363636363635,
                "end_time": 12.061363636363636,
                "pitch": 84,
                "velocity": 51,
                "duration": 0.05000000000000071,
                "tempo": 120.0
            },
            {
                "start_time": 12.077272727272726,
                "end_time": 12.127272727272727,
                "pitch": 84,
                "velocity": 51,
                "duration": 0.05000000000000071,
                "tempo": 120.0
            },
            {
                "start_time": 12.161363636363635,
                "end_time": 12.211363636363636,
                "pitch": 84,
                "velocity": 51,
                "duration": 0.05000000000000071,
                "tempo": 120.0
            },
            {
                "start_time": 12.227272727272727,
                "end_time": 12.35909090909091,
                "pitch": 84,
                "velocity": 51,
                "duration": 0.13181818181818272,
                "tempo": 120.0
            },
            {
                "start_time": 12.375,
                "end_time": 12.506818181818181,
                "pitch": 84,
                "velocity": 51,
                "duration": 0.13181818181818095,
                "tempo": 120.0
            },
            {
                "start_time": 12.522727272727272,
                "end_time": 12.572727272727272,
                "pitch": 84,
                "velocity": 51,
                "duration": 0.05000000000000071,
                "tempo": 120.0
            },
            {
                "start_time": 12.60681818181818,
                "end_time": 12.656818181818181,
                "pitch": 84,
                "velocity": 51,
                "duration": 0.05000000000000071,
                "tempo": 120.0
            },
            {
                "start_time": 12.672727272727272,
                "end_time": 12.722727272727273,
                "pitch": 84,
                "velocity": 51,
                "duration": 0.05000000000000071,
                "tempo": 120.0
            },
            {
                "start_time": 12.754545454545454,
                "end_time": 12.804545454545455,
                "pitch": 84,
                "velocity": 51,
                "duration": 0.05000000000000071,
                "tempo": 120.0
            },
            {
                "start_time": 12.820454545454545,
                "end_time": 12.954545454545453,
                "pitch": 84,
                "velocity": 51,
                "duration": 0.13409090909090793,
                "tempo": 120.0
            },
            {
                "start_time": 12.970454545454546,
                "end_time": 13.104545454545454,
                "pitch": 84,
                "velocity": 51,
                "duration": 0.13409090909090793,
                "tempo": 120.0
            },
            {
                "start_time": 13.120454545454544,
                "end_time": 13.170454545454545,
                "pitch": 84,
                "velocity": 51,
                "duration": 0.05000000000000071,
                "tempo": 120.0
            },
            {
                "start_time": 13.204545454545453,
                "end_time": 13.254545454545454,
                "pitch": 84,
                "velocity": 51,
                "duration": 0.05000000000000071,
                "tempo": 120.0
            },
            {
                "start_time": 13.270454545454545,
                "end_time": 13.320454545454545,
                "pitch": 84,
                "velocity": 51,
                "duration": 0.05000000000000071,
                "tempo": 120.0
            },
            {
                "start_time": 13.354545454545454,
                "end_time": 13.404545454545454,
                "pitch": 84,
                "velocity": 51,
                "duration": 0.05000000000000071,
                "tempo": 120.0
            },
            {
                "start_time": 13.420454545454545,
                "end_time": 13.554545454545455,
                "pitch": 84,
                "velocity": 51,
                "duration": 0.1340909090909097,
                "tempo": 120.0
            },
            {
                "start_time": 13.570454545454545,
                "end_time": 13.704545454545453,
                "pitch": 84,
                "velocity": 51,
                "duration": 0.13409090909090793,
                "tempo": 120.0
            },
            {
                "start_time": 13.720454545454544,
                "end_time": 13.770454545454545,
                "pitch": 84,
                "velocity": 51,
                "duration": 0.05000000000000071,
                "tempo": 120.0
            },
            {
                "start_time": 13.804545454545455,
                "end_time": 13.854545454545454,
                "pitch": 79,
                "velocity": 51,
                "duration": 0.049999999999998934,
                "tempo": 120.0
            },
            {
                "start_time": 13.870454545454544,
                "end_time": 13.904545454545454,
                "pitch": 84,
                "velocity": 51,
                "duration": 0.03409090909091006,
                "tempo": 120.0
            },
            {
                "start_time": 13.920454545454545,
                "end_time": 14.004545454545454,
                "pitch": 84,
                "velocity": 51,
                "duration": 0.084090909090909,
                "tempo": 120.0
            },
            {
                "start_time": 14.020454545454545,
                "end_time": 14.072727272727272,
                "pitch": 84,
                "velocity": 51,
                "duration": 0.05227272727272769,
                "tempo": 120.0
            },
            {
                "start_time": 14.10681818181818,
                "end_time": 14.156818181818181,
                "pitch": 79,
                "velocity": 51,
                "duration": 0.05000000000000071,
                "tempo": 120.0
            },
            {
                "start_time": 14.174999999999999,
                "end_time": 14.225,
                "pitch": 84,
                "velocity": 51,
                "duration": 0.05000000000000071,
                "tempo": 120.0
            },
            {
                "start_time": 14.259090909090908,
                "end_time": 14.311363636363636,
                "pitch": 79,
                "velocity": 51,
                "duration": 0.05227272727272769,
                "tempo": 120.0
            },
            {
                "start_time": 14.327272727272726,
                "end_time": 14.377272727272727,
                "pitch": 84,
                "velocity": 51,
                "duration": 0.05000000000000071,
                "tempo": 120.0
            },
            {
                "start_time": 14.411363636363635,
                "end_time": 14.463636363636363,
                "pitch": 84,
                "velocity": 51,
                "duration": 0.05227272727272769,
                "tempo": 120.0
            },
            {
                "start_time": 14.479545454545454,
                "end_time": 14.531818181818181,
                "pitch": 84,
                "velocity": 51,
                "duration": 0.05227272727272769,
                "tempo": 120.0
            },
            {
                "start_time": 14.56590909090909,
                "end_time": 14.61590909090909,
                "pitch": 84,
                "velocity": 51,
                "duration": 0.05000000000000071,
                "tempo": 120.0
            },
            {
                "start_time": 14.631818181818181,
                "end_time": 14.76590909090909,
                "pitch": 84,
                "velocity": 51,
                "duration": 0.1340909090909097,
                "tempo": 120.0
            },
            {
                "start_time": 14.781818181818181,
                "end_time": 14.913636363636362,
                "pitch": 84,
                "velocity": 51,
                "duration": 0.13181818181818095,
                "tempo": 120.0
            },
            {
                "start_time": 14.929545454545455,
                "end_time": 14.979545454545454,
                "pitch": 84,
                "velocity": 51,
                "duration": 0.049999999999998934,
                "tempo": 120.0
            },
            {
                "start_time": 15.011363636363635,
                "end_time": 15.061363636363636,
                "pitch": 84,
                "velocity": 51,
                "duration": 0.05000000000000071,
                "tempo": 120.0
            },
            {
                "start_time": 15.079545454545453,
                "end_time": 15.127272727272727,
                "pitch": 84,
                "velocity": 51,
                "duration": 0.04772727272727373,
                "tempo": 120.0
            },
            {
                "start_time": 15.161363636363635,
                "end_time": 15.211363636363636,
                "pitch": 84,
                "velocity": 51,
                "duration": 0.05000000000000071,
                "tempo": 120.0
            },
            {
                "start_time": 15.227272727272727,
                "end_time": 15.361363636363636,
                "pitch": 84,
                "velocity": 51,
                "duration": 0.1340909090909097,
                "tempo": 120.0
            },
            {
                "start_time": 15.377272727272727,
                "end_time": 15.511363636363635,
                "pitch": 84,
                "velocity": 51,
                "duration": 0.13409090909090793,
                "tempo": 120.0
            },
            {
                "start_time": 15.527272727272727,
                "end_time": 15.577272727272726,
                "pitch": 84,
                "velocity": 51,
                "duration": 0.049999999999998934,
                "tempo": 120.0
            },
            {
                "start_time": 15.611363636363636,
                "end_time": 15.661363636363635,
                "pitch": 84,
                "velocity": 51,
                "duration": 0.049999999999998934,
                "tempo": 120.0
            },
            {
                "start_time": 15.677272727272726,
                "end_time": 15.727272727272727,
                "pitch": 84,
                "velocity": 51,
                "duration": 0.05000000000000071,
                "tempo": 120.0
            },
            {
                "start_time": 15.761363636363635,
                "end_time": 15.811363636363636,
                "pitch": 84,
                "velocity": 51,
                "duration": 0.05000000000000071,
                "tempo": 120.0
            },
            {
                "start_time": 15.827272727272726,
                "end_time": 15.961363636363636,
                "pitch": 84,
                "velocity": 51,
                "duration": 0.1340909090909097,
                "tempo": 120.0
            },
            {
                "start_time": 15.977272727272727,
                "end_time": 16.111363636363635,
                "pitch": 84,
                "velocity": 51,
                "duration": 0.13409090909090793,
                "tempo": 120.0
            },
            {
                "start_time": 16.127272727272725,
                "end_time": 16.177272727272726,
                "pitch": 84,
                "velocity": 51,
                "duration": 0.05000000000000071,
                "tempo": 120.0
            },
            {
                "start_time": 16.211363636363636,
                "end_time": 16.261363636363637,
                "pitch": 79,
                "velocity": 51,
                "duration": 0.05000000000000071,
                "tempo": 120.0
            },
            {
                "start_time": 16.277272727272727,
                "end_time": 16.327272727272728,
                "pitch": 84,
                "velocity": 51,
                "duration": 0.05000000000000071,
                "tempo": 120.0
            },
            {
                "start_time": 16.361363636363635,
                "end_time": 16.411363636363635,
                "pitch": 79,
                "velocity": 51,
                "duration": 0.05000000000000071,
                "tempo": 120.0
            },
            {
                "start_time": 16.427272727272726,
                "end_time": 16.477272727272727,
                "pitch": 84,
                "velocity": 51,
                "duration": 0.05000000000000071,
                "tempo": 120.0
            },
            {
                "start_time": 16.511363636363637,
                "end_time": 16.563636363636363,
                "pitch": 79,
                "velocity": 51,
                "duration": 0.052272727272725916,
                "tempo": 120.0
            },
            {
                "start_time": 16.579545454545453,
                "end_time": 16.631818181818183,
                "pitch": 87,
                "velocity": 51,
                "duration": 0.05227272727272947,
                "tempo": 120.0
            },
            {
                "start_time": 16.66590909090909,
                "end_time": 16.870454545454546,
                "pitch": 84,
                "velocity": 51,
                "duration": 0.2045454545454568,
                "tempo": 120.0
            },
            {
                "start_time": 16.886363636363637,
                "end_time": 16.936363636363634,
                "pitch": 84,
                "velocity": 51,
                "duration": 0.04999999999999716,
                "tempo": 120.0
            },
            {
                "start_time": 16.970454545454544,
                "end_time": 17.172727272727272,
                "pitch": 84,
                "velocity": 51,
                "duration": 0.20227272727272805,
                "tempo": 120.0
            },
            {
                "start_time": 17.188636363636363,
                "end_time": 17.238636363636363,
                "pitch": 84,
                "velocity": 51,
                "duration": 0.05000000000000071,
                "tempo": 120.0
            },
            {
                "start_time": 17.272727272727273,
                "end_time": 17.438636363636363,
                "pitch": 84,
                "velocity": 51,
                "duration": 0.16590909090908923,
                "tempo": 120.0
            },
            {
                "start_time": 17.472727272727273,
                "end_time": 17.538636363636364,
                "pitch": 84,
                "velocity": 51,
                "duration": 0.06590909090909136,
                "tempo": 120.0
            },
            {
                "start_time": 17.57272727272727,
                "end_time": 17.770454545454545,
                "pitch": 84,
                "velocity": 51,
                "duration": 0.19772727272727408,
                "tempo": 120.0
            },
            {
                "start_time": 17.788636363636364,
                "end_time": 17.836363636363636,
                "pitch": 84,
                "velocity": 51,
                "duration": 0.04772727272727195,
                "tempo": 120.0
            },
            {
                "start_time": 17.870454545454546,
                "end_time": 18.068181818181817,
                "pitch": 84,
                "velocity": 51,
                "duration": 0.19772727272727053,
                "tempo": 120.0
            },
            {
                "start_time": 18.084090909090907,
                "end_time": 18.134090909090908,
                "pitch": 84,
                "velocity": 51,
                "duration": 0.05000000000000071,
                "tempo": 120.0
            },
            {
                "start_time": 18.168181818181818,
                "end_time": 18.370454545454546,
                "pitch": 84,
                "velocity": 51,
                "duration": 0.20227272727272805,
                "tempo": 120.0
            },
            {
                "start_time": 18.386363636363637,
                "end_time": 18.438636363636363,
                "pitch": 84,
                "velocity": 51,
                "duration": 0.052272727272725916,
                "tempo": 120.0
            },
            {
                "start_time": 18.470454545454544,
                "end_time": 18.675,
                "pitch": 84,
                "velocity": 51,
                "duration": 0.2045454545454568,
                "tempo": 120.0
            },
            {
                "start_time": 18.693181818181817,
                "end_time": 18.743181818181817,
                "pitch": 84,
                "velocity": 51,
                "duration": 0.05000000000000071,
                "tempo": 120.0
            },
            {
                "start_time": 18.777272727272727,
                "end_time": 18.979545454545455,
                "pitch": 84,
                "velocity": 51,
                "duration": 0.20227272727272805,
                "tempo": 120.0
            },
            {
                "start_time": 18.995454545454546,
                "end_time": 19.045454545454543,
                "pitch": 84,
                "velocity": 51,
                "duration": 0.04999999999999716,
                "tempo": 120.0
            },
            {
                "start_time": 19.079545454545453,
                "end_time": 19.279545454545453,
                "pitch": 84,
                "velocity": 51,
                "duration": 0.1999999999999993,
                "tempo": 120.0
            },
            {
                "start_time": 19.295454545454543,
                "end_time": 19.345454545454544,
                "pitch": 84,
                "velocity": 51,
                "duration": 0.05000000000000071,
                "tempo": 120.0
            },
            {
                "start_time": 19.379545454545454,
                "end_time": 19.581818181818182,
                "pitch": 84,
                "velocity": 51,
                "duration": 0.20227272727272805,
                "tempo": 120.0
            },
            {
                "start_time": 19.597727272727273,
                "end_time": 19.65,
                "pitch": 84,
                "velocity": 51,
                "duration": 0.052272727272725916,
                "tempo": 120.0
            },
            {
                "start_time": 19.68409090909091,
                "end_time": 19.888636363636362,
                "pitch": 84,
                "velocity": 51,
                "duration": 0.20454545454545325,
                "tempo": 120.0
            },
            {
                "start_time": 19.904545454545453,
                "end_time": 19.956818181818182,
                "pitch": 84,
                "velocity": 51,
                "duration": 0.05227272727272947,
                "tempo": 120.0
            },
            {
                "start_time": 19.988636363636363,
                "end_time": 20.186363636363634,
                "pitch": 84,
                "velocity": 51,
                "duration": 0.19772727272727053,
                "tempo": 120.0
            },
            {
                "start_time": 20.202272727272728,
                "end_time": 20.25,
                "pitch": 84,
                "velocity": 51,
                "duration": 0.04772727272727195,
                "tempo": 120.0
            },
            {
                "start_time": 20.284090909090907,
                "end_time": 20.477272727272727,
                "pitch": 84,
                "velocity": 51,
                "duration": 0.19318181818182012,
                "tempo": 120.0
            },
            {
                "start_time": 20.493181818181817,
                "end_time": 20.543181818181818,
                "pitch": 84,
                "velocity": 51,
                "duration": 0.05000000000000071,
                "tempo": 120.0
            },
            {
                "start_time": 20.575,
                "end_time": 20.775,
                "pitch": 84,
                "velocity": 51,
                "duration": 0.1999999999999993,
                "tempo": 120.0
            },
            {
                "start_time": 20.793181818181818,
                "end_time": 20.84318181818182,
                "pitch": 84,
                "velocity": 51,
                "duration": 0.05000000000000071,
                "tempo": 120.0
            },
            {
                "start_time": 20.877272727272725,
                "end_time": 21.081818181818182,
                "pitch": 84,
                "velocity": 51,
                "duration": 0.2045454545454568,
                "tempo": 120.0
            },
            {
                "start_time": 21.099999999999998,
                "end_time": 21.15,
                "pitch": 84,
                "velocity": 51,
                "duration": 0.05000000000000071,
                "tempo": 120.0
            },
            {
                "start_time": 21.18409090909091,
                "end_time": 21.386363636363637,
                "pitch": 84,
                "velocity": 51,
                "duration": 0.20227272727272805,
                "tempo": 120.0
            },
            {
                "start_time": 21.404545454545453,
                "end_time": 21.454545454545453,
                "pitch": 84,
                "velocity": 51,
                "duration": 0.05000000000000071,
                "tempo": 120.0
            },
            {
                "start_time": 21.488636363636363,
                "end_time": 21.688636363636363,
                "pitch": 84,
                "velocity": 51,
                "duration": 0.1999999999999993,
                "tempo": 120.0
            },
            {
                "start_time": 21.706818181818182,
                "end_time": 21.75681818181818,
                "pitch": 84,
                "velocity": 51,
                "duration": 0.04999999999999716,
                "tempo": 120.0
            },
            {
                "start_time": 21.79090909090909,
                "end_time": 21.993181818181817,
                "pitch": 84,
                "velocity": 51,
                "duration": 0.20227272727272805,
                "tempo": 120.0
            },
            {
                "start_time": 22.011363636363637,
                "end_time": 22.061363636363634,
                "pitch": 84,
                "velocity": 51,
                "duration": 0.04999999999999716,
                "tempo": 120.0
            },
            {
                "start_time": 22.095454545454544,
                "end_time": 22.299999999999997,
                "pitch": 84,
                "velocity": 51,
                "duration": 0.20454545454545325,
                "tempo": 120.0
            },
            {
                "start_time": 22.318181818181817,
                "end_time": 22.368181818181817,
                "pitch": 84,
                "velocity": 51,
                "duration": 0.05000000000000071,
                "tempo": 120.0
            },
            {
                "start_time": 22.402272727272727,
                "end_time": 22.597727272727273,
                "pitch": 84,
                "velocity": 51,
                "duration": 0.19545454545454533,
                "tempo": 120.0
            },
            {
                "start_time": 22.61590909090909,
                "end_time": 22.663636363636364,
                "pitch": 84,
                "velocity": 51,
                "duration": 0.047727272727275505,
                "tempo": 120.0
            },
            {
                "start_time": 22.695454545454545,
                "end_time": 22.89090909090909,
                "pitch": 84,
                "velocity": 51,
                "duration": 0.19545454545454533,
                "tempo": 120.0
            },
            {
                "start_time": 22.90681818181818,
                "end_time": 22.954545454545453,
                "pitch": 84,
                "velocity": 51,
                "duration": 0.04772727272727195,
                "tempo": 120.0
            },
            {
                "start_time": 22.986363636363635,
                "end_time": 23.19090909090909,
                "pitch": 84,
                "velocity": 51,
                "duration": 0.2045454545454568,
                "tempo": 120.0
            },
            {
                "start_time": 23.209090909090907,
                "end_time": 23.259090909090908,
                "pitch": 84,
                "velocity": 51,
                "duration": 0.05000000000000071,
                "tempo": 120.0
            },
            {
                "start_time": 23.295454545454543,
                "end_time": 23.502272727272725,
                "pitch": 84,
                "velocity": 51,
                "duration": 0.206818181818182,
                "tempo": 120.0
            },
            {
                "start_time": 23.520454545454545,
                "end_time": 23.57272727272727,
                "pitch": 84,
                "velocity": 51,
                "duration": 0.052272727272725916,
                "tempo": 120.0
            },
            {
                "start_time": 23.60681818181818,
                "end_time": 23.659090909090907,
                "pitch": 84,
                "velocity": 51,
                "duration": 0.052272727272725916,
                "tempo": 120.0
            },
            {
                "start_time": 23.674999999999997,
                "end_time": 23.724999999999998,
                "pitch": 84,
                "velocity": 51,
                "duration": 0.05000000000000071,
                "tempo": 120.0
            },
            {
                "start_time": 23.75681818181818,
                "end_time": 23.804545454545455,
                "pitch": 84,
                "velocity": 51,
                "duration": 0.047727272727275505,
                "tempo": 120.0
            },
            {
                "start_time": 23.820454545454545,
                "end_time": 23.870454545454546,
                "pitch": 84,
                "velocity": 51,
                "duration": 0.05000000000000071,
                "tempo": 120.0
            },
            {
                "start_time": 23.902272727272727,
                "end_time": 24.095454545454544,
                "pitch": 84,
                "velocity": 51,
                "duration": 0.19318181818181657,
                "tempo": 120.0
            },
            {
                "start_time": 24.111363636363635,
                "end_time": 24.161363636363635,
                "pitch": 84,
                "velocity": 51,
                "duration": 0.05000000000000071,
                "tempo": 120.0
            },
            {
                "start_time": 24.193181818181817,
                "end_time": 24.39772727272727,
                "pitch": 84,
                "velocity": 51,
                "duration": 0.20454545454545325,
                "tempo": 120.0
            },
            {
                "start_time": 24.413636363636364,
                "end_time": 24.46590909090909,
                "pitch": 84,
                "velocity": 51,
                "duration": 0.052272727272725916,
                "tempo": 120.0
            },
            {
                "start_time": 24.5,
                "end_time": 24.709090909090907,
                "pitch": 84,
                "velocity": 51,
                "duration": 0.20909090909090722,
                "tempo": 120.0
            },
            {
                "start_time": 24.727272727272727,
                "end_time": 24.779545454545453,
                "pitch": 84,
                "velocity": 51,
                "duration": 0.052272727272725916,
                "tempo": 120.0
            },
            {
                "start_time": 24.813636363636363,
                "end_time": 25.018181818181816,
                "pitch": 84,
                "velocity": 51,
                "duration": 0.20454545454545325,
                "tempo": 120.0
            },
            {
                "start_time": 25.034090909090907,
                "end_time": 25.084090909090907,
                "pitch": 84,
                "velocity": 51,
                "duration": 0.05000000000000071,
                "tempo": 120.0
            },
            {
                "start_time": 25.118181818181817,
                "end_time": 25.320454545454545,
                "pitch": 84,
                "velocity": 51,
                "duration": 0.20227272727272805,
                "tempo": 120.0
            },
            {
                "start_time": 25.336363636363636,
                "end_time": 25.388636363636362,
                "pitch": 84,
                "velocity": 51,
                "duration": 0.052272727272725916,
                "tempo": 120.0
            },
            {
                "start_time": 25.422727272727272,
                "end_time": 25.62272727272727,
                "pitch": 84,
                "velocity": 51,
                "duration": 0.1999999999999993,
                "tempo": 120.0
            },
            {
                "start_time": 25.638636363636362,
                "end_time": 25.688636363636363,
                "pitch": 84,
                "velocity": 51,
                "duration": 0.05000000000000071,
                "tempo": 120.0
            },
            {
                "start_time": 25.722727272727273,
                "end_time": 25.922727272727272,
                "pitch": 84,
                "velocity": 51,
                "duration": 0.1999999999999993,
                "tempo": 120.0
            },
            {
                "start_time": 25.938636363636363,
                "end_time": 25.988636363636363,
                "pitch": 84,
                "velocity": 51,
                "duration": 0.05000000000000071,
                "tempo": 120.0
            },
            {
                "start_time": 26.02272727272727,
                "end_time": 26.07272727272727,
                "pitch": 84,
                "velocity": 51,
                "duration": 0.05000000000000071,
                "tempo": 120.0
            },
            {
                "start_time": 26.08863636363636,
                "end_time": 26.138636363636362,
                "pitch": 84,
                "velocity": 51,
                "duration": 0.05000000000000071,
                "tempo": 120.0
            },
            {
                "start_time": 26.172727272727272,
                "end_time": 26.222727272727273,
                "pitch": 84,
                "velocity": 51,
                "duration": 0.05000000000000071,
                "tempo": 120.0
            },
            {
                "start_time": 26.24090909090909,
                "end_time": 26.29090909090909,
                "pitch": 84,
                "velocity": 51,
                "duration": 0.05000000000000071,
                "tempo": 120.0
            },
            {
                "start_time": 26.325,
                "end_time": 26.527272727272727,
                "pitch": 84,
                "velocity": 51,
                "duration": 0.20227272727272805,
                "tempo": 120.0
            },
            {
                "start_time": 26.543181818181818,
                "end_time": 26.593181818181815,
                "pitch": 84,
                "velocity": 51,
                "duration": 0.04999999999999716,
                "tempo": 120.0
            },
            {
                "start_time": 26.627272727272725,
                "end_time": 26.829545454545453,
                "pitch": 84,
                "velocity": 51,
                "duration": 0.20227272727272805,
                "tempo": 120.0
            },
            {
                "start_time": 26.845454545454544,
                "end_time": 26.89772727272727,
                "pitch": 84,
                "velocity": 51,
                "duration": 0.052272727272725916,
                "tempo": 120.0
            },
            {
                "start_time": 26.93181818181818,
                "end_time": 27.13181818181818,
                "pitch": 84,
                "velocity": 51,
                "duration": 0.1999999999999993,
                "tempo": 120.0
            },
            {
                "start_time": 27.15,
                "end_time": 27.2,
                "pitch": 84,
                "velocity": 51,
                "duration": 0.05000000000000071,
                "tempo": 120.0
            },
            {
                "start_time": 27.23409090909091,
                "end_time": 27.43409090909091,
                "pitch": 84,
                "velocity": 51,
                "duration": 0.1999999999999993,
                "tempo": 120.0
            },
            {
                "start_time": 27.45,
                "end_time": 27.5,
                "pitch": 84,
                "velocity": 51,
                "duration": 0.05000000000000071,
                "tempo": 120.0
            },
            {
                "start_time": 27.534090909090907,
                "end_time": 27.73409090909091,
                "pitch": 84,
                "velocity": 51,
                "duration": 0.20000000000000284,
                "tempo": 120.0
            },
            {
                "start_time": 27.75,
                "end_time": 27.799999999999997,
                "pitch": 84,
                "velocity": 51,
                "duration": 0.04999999999999716,
                "tempo": 120.0
            },
            {
                "start_time": 27.834090909090907,
                "end_time": 28.036363636363635,
                "pitch": 84,
                "velocity": 51,
                "duration": 0.20227272727272805,
                "tempo": 120.0
            },
            {
                "start_time": 28.052272727272726,
                "end_time": 28.102272727272727,
                "pitch": 84,
                "velocity": 51,
                "duration": 0.05000000000000071,
                "tempo": 120.0
            },
            {
                "start_time": 28.136363636363637,
                "end_time": 28.33863636363636,
                "pitch": 84,
                "velocity": 51,
                "duration": 0.2022727272727245,
                "tempo": 120.0
            },
            {
                "start_time": 28.354545454545452,
                "end_time": 28.40681818181818,
                "pitch": 84,
                "velocity": 51,
                "duration": 0.05227272727272947,
                "tempo": 120.0
            },
            {
                "start_time": 28.440909090909088,
                "end_time": 28.49090909090909,
                "pitch": 84,
                "velocity": 51,
                "duration": 0.05000000000000071,
                "tempo": 120.0
            },
            {
                "start_time": 28.50681818181818,
                "end_time": 28.55681818181818,
                "pitch": 84,
                "velocity": 51,
                "duration": 0.05000000000000071,
                "tempo": 120.0
            },
            {
                "start_time": 28.59090909090909,
                "end_time": 28.64090909090909,
                "pitch": 84,
                "velocity": 51,
                "duration": 0.05000000000000071,
                "tempo": 120.0
            },
            {
                "start_time": 28.65681818181818,
                "end_time": 28.706818181818182,
                "pitch": 84,
                "velocity": 51,
                "duration": 0.05000000000000071,
                "tempo": 120.0
            },
            {
                "start_time": 28.74090909090909,
                "end_time": 28.79090909090909,
                "pitch": 84,
                "velocity": 51,
                "duration": 0.05000000000000071,
                "tempo": 120.0
            },
            {
                "start_time": 28.80681818181818,
                "end_time": 28.85681818181818,
                "pitch": 84,
                "velocity": 51,
                "duration": 0.05000000000000071,
                "tempo": 120.0
            },
            {
                "start_time": 28.89090909090909,
                "end_time": 28.940909090909088,
                "pitch": 84,
                "velocity": 51,
                "duration": 0.04999999999999716,
                "tempo": 120.0
            },
            {
                "start_time": 28.956818181818182,
                "end_time": 29.00681818181818,
                "pitch": 84,
                "velocity": 51,
                "duration": 0.04999999999999716,
                "tempo": 120.0
            },
            {
                "start_time": 29.04090909090909,
                "end_time": 29.09090909090909,
                "pitch": 84,
                "velocity": 51,
                "duration": 0.05000000000000071,
                "tempo": 120.0
            },
            {
                "start_time": 29.10681818181818,
                "end_time": 29.236363636363635,
                "pitch": 84,
                "velocity": 51,
                "duration": 0.12954545454545396,
                "tempo": 120.0
            },
            {
                "start_time": 29.252272727272725,
                "end_time": 29.38181818181818,
                "pitch": 84,
                "velocity": 51,
                "duration": 0.12954545454545396,
                "tempo": 120.0
            },
            {
                "start_time": 29.39772727272727,
                "end_time": 29.445454545454545,
                "pitch": 84,
                "velocity": 51,
                "duration": 0.047727272727275505,
                "tempo": 120.0
            },
            {
                "start_time": 29.479545454545452,
                "end_time": 29.527272727272727,
                "pitch": 84,
                "velocity": 51,
                "duration": 0.047727272727275505,
                "tempo": 120.0
            },
            {
                "start_time": 29.543181818181818,
                "end_time": 29.593181818181815,
                "pitch": 84,
                "velocity": 51,
                "duration": 0.04999999999999716,
                "tempo": 120.0
            },
            {
                "start_time": 29.625,
                "end_time": 29.672727272727272,
                "pitch": 84,
                "velocity": 51,
                "duration": 0.04772727272727195,
                "tempo": 120.0
            },
            {
                "start_time": 29.688636363636363,
                "end_time": 29.82272727272727,
                "pitch": 84,
                "velocity": 51,
                "duration": 0.13409090909090793,
                "tempo": 120.0
            },
            {
                "start_time": 29.83863636363636,
                "end_time": 29.972727272727273,
                "pitch": 84,
                "velocity": 51,
                "duration": 0.13409090909091148,
                "tempo": 120.0
            },
            {
                "start_time": 29.988636363636363,
                "end_time": 30.03863636363636,
                "pitch": 84,
                "velocity": 51,
                "duration": 0.04999999999999716,
                "tempo": 120.0
            },
            {
                "start_time": 30.07272727272727,
                "end_time": 30.12272727272727,
                "pitch": 84,
                "velocity": 51,
                "duration": 0.05000000000000071,
                "tempo": 120.0
            },
            {
                "start_time": 30.138636363636362,
                "end_time": 30.188636363636363,
                "pitch": 84,
                "velocity": 51,
                "duration": 0.05000000000000071,
                "tempo": 120.0
            },
            {
                "start_time": 30.222727272727273,
                "end_time": 30.27272727272727,
                "pitch": 84,
                "velocity": 51,
                "duration": 0.04999999999999716,
                "tempo": 120.0
            },
            {
                "start_time": 30.29090909090909,
                "end_time": 30.424999999999997,
                "pitch": 84,
                "velocity": 51,
                "duration": 0.13409090909090793,
                "tempo": 120.0
            },
            {
                "start_time": 30.440909090909088,
                "end_time": 30.575,
                "pitch": 84,
                "velocity": 51,
                "duration": 0.13409090909091148,
                "tempo": 120.0
            },
            {
                "start_time": 30.593181818181815,
                "end_time": 30.643181818181816,
                "pitch": 84,
                "velocity": 51,
                "duration": 0.05000000000000071,
                "tempo": 120.0
            },
            {
                "start_time": 30.677272727272726,
                "end_time": 30.727272727272727,
                "pitch": 79,
                "velocity": 51,
                "duration": 0.05000000000000071,
                "tempo": 120.0
            },
            {
                "start_time": 30.745454545454542,
                "end_time": 30.795454545454543,
                "pitch": 84,
                "velocity": 51,
                "duration": 0.05000000000000071,
                "tempo": 120.0
            },
            {
                "start_time": 30.829545454545453,
                "end_time": 30.879545454545454,
                "pitch": 79,
                "velocity": 51,
                "duration": 0.05000000000000071,
                "tempo": 120.0
            },
            {
                "start_time": 30.895454545454545,
                "end_time": 30.945454545454545,
                "pitch": 84,
                "velocity": 51,
                "duration": 0.05000000000000071,
                "tempo": 120.0
            },
            {
                "start_time": 30.979545454545452,
                "end_time": 31.029545454545453,
                "pitch": 79,
                "velocity": 51,
                "duration": 0.05000000000000071,
                "tempo": 120.0
            },
            {
                "start_time": 31.047727272727272,
                "end_time": 31.097727272727273,
                "pitch": 84,
                "velocity": 51,
                "duration": 0.05000000000000071,
                "tempo": 120.0
            },
            {
                "start_time": 31.13181818181818,
                "end_time": 31.18181818181818,
                "pitch": 79,
                "velocity": 51,
                "duration": 0.05000000000000071,
                "tempo": 120.0
            },
            {
                "start_time": 31.2,
                "end_time": 31.25,
                "pitch": 84,
                "velocity": 51,
                "duration": 0.05000000000000071,
                "tempo": 120.0
            },
            {
                "start_time": 31.284090909090907,
                "end_time": 31.334090909090907,
                "pitch": 84,
                "velocity": 51,
                "duration": 0.05000000000000071,
                "tempo": 120.0
            },
            {
                "start_time": 31.349999999999998,
                "end_time": 31.4,
                "pitch": 84,
                "velocity": 51,
                "duration": 0.05000000000000071,
                "tempo": 120.0
            },
            {
                "start_time": 31.43409090909091,
                "end_time": 31.452272727272724,
                "pitch": 84,
                "velocity": 51,
                "duration": 0.018181818181815856,
                "tempo": 120.0
            },
            {
                "start_time": 31.484090909090906,
                "end_time": 31.634090909090908,
                "pitch": 84,
                "velocity": 51,
                "duration": 0.15000000000000213,
                "tempo": 120.0
            },
            {
                "start_time": 31.652272727272727,
                "end_time": 31.784090909090907,
                "pitch": 84,
                "velocity": 51,
                "duration": 0.13181818181817917,
                "tempo": 120.0
            },
            {
                "start_time": 31.802272727272726,
                "end_time": 31.852272727272727,
                "pitch": 84,
                "velocity": 51,
                "duration": 0.05000000000000071,
                "tempo": 120.0
            },
            {
                "start_time": 31.884090909090908,
                "end_time": 31.93409090909091,
                "pitch": 84,
                "velocity": 51,
                "duration": 0.05000000000000071,
                "tempo": 120.0
            },
            {
                "start_time": 31.952272727272724,
                "end_time": 32.002272727272725,
                "pitch": 84,
                "velocity": 51,
                "duration": 0.05000000000000071,
                "tempo": 120.0
            },
            {
                "start_time": 32.03409090909091,
                "end_time": 32.08409090909091,
                "pitch": 84,
                "velocity": 51,
                "duration": 0.05000000000000426,
                "tempo": 120.0
            },
            {
                "start_time": 32.10227272727273,
                "end_time": 32.23863636363636,
                "pitch": 84,
                "velocity": 51,
                "duration": 0.13636363636363313,
                "tempo": 120.0
            },
            {
                "start_time": 32.25454545454545,
                "end_time": 32.39090909090909,
                "pitch": 84,
                "velocity": 51,
                "duration": 0.13636363636364024,
                "tempo": 120.0
            },
            {
                "start_time": 32.40909090909091,
                "end_time": 32.45909090909091,
                "pitch": 84,
                "velocity": 51,
                "duration": 0.05000000000000426,
                "tempo": 120.0
            },
            {
                "start_time": 32.49318181818182,
                "end_time": 32.543181818181814,
                "pitch": 84,
                "velocity": 51,
                "duration": 0.04999999999999716,
                "tempo": 120.0
            },
            {
                "start_time": 32.56136363636364,
                "end_time": 32.611363636363635,
                "pitch": 84,
                "velocity": 51,
                "duration": 0.04999999999999716,
                "tempo": 120.0
            },
            {
                "start_time": 32.64545454545454,
                "end_time": 32.69772727272727,
                "pitch": 84,
                "velocity": 51,
                "duration": 0.05227272727272947,
                "tempo": 120.0
            },
            {
                "start_time": 32.71363636363636,
                "end_time": 32.84772727272727,
                "pitch": 84,
                "velocity": 51,
                "duration": 0.13409090909090793,
                "tempo": 120.0
            },
            {
                "start_time": 32.86363636363636,
                "end_time": 32.99772727272727,
                "pitch": 84,
                "velocity": 51,
                "duration": 0.13409090909090793,
                "tempo": 120.0
            },
            {
                "start_time": 33.013636363636365,
                "end_time": 33.06363636363636,
                "pitch": 84,
                "velocity": 51,
                "duration": 0.04999999999999716,
                "tempo": 120.0
            },
            {
                "start_time": 33.09772727272727,
                "end_time": 33.14772727272727,
                "pitch": 79,
                "velocity": 51,
                "duration": 0.05000000000000426,
                "tempo": 120.0
            },
            {
                "start_time": 33.163636363636364,
                "end_time": 33.21363636363636,
                "pitch": 84,
                "velocity": 51,
                "duration": 0.04999999999999716,
                "tempo": 120.0
            },
            {
                "start_time": 33.24772727272727,
                "end_time": 33.29772727272727,
                "pitch": 79,
                "velocity": 51,
                "duration": 0.05000000000000426,
                "tempo": 120.0
            },
            {
                "start_time": 33.31363636363636,
                "end_time": 33.36363636363636,
                "pitch": 84,
                "velocity": 51,
                "duration": 0.04999999999999716,
                "tempo": 120.0
            },
            {
                "start_time": 33.39772727272727,
                "end_time": 33.44772727272727,
                "pitch": 79,
                "velocity": 51,
                "duration": 0.04999999999999716,
                "tempo": 120.0
            },
            {
                "start_time": 33.465909090909086,
                "end_time": 33.51590909090909,
                "pitch": 87,
                "velocity": 51,
                "duration": 0.05000000000000426,
                "tempo": 120.0
            },
            {
                "start_time": 33.55,
                "end_time": 33.752272727272725,
                "pitch": 84,
                "velocity": 51,
                "duration": 0.20227272727272805,
                "tempo": 120.0
            },
            {
                "start_time": 33.768181818181816,
                "end_time": 33.81818181818181,
                "pitch": 87,
                "velocity": 51,
                "duration": 0.04999999999999716,
                "tempo": 120.0
            },
            {
                "start_time": 33.85227272727273,
                "end_time": 33.902272727272724,
                "pitch": 87,
                "velocity": 51,
                "duration": 0.04999999999999716,
                "tempo": 120.0
            },
            {
                "start_time": 33.92045454545455,
                "end_time": 34.018181818181816,
                "pitch": 87,
                "velocity": 51,
                "duration": 0.09772727272726911,
                "tempo": 120.0
            },
            {
                "start_time": 34.05227272727272,
                "end_time": 34.11818181818182,
                "pitch": 87,
                "velocity": 51,
                "duration": 0.06590909090909491,
                "tempo": 120.0
            },
            {
                "start_time": 34.15,
                "end_time": 34.199999999999996,
                "pitch": 87,
                "velocity": 51,
                "duration": 0.04999999999999716,
                "tempo": 120.0
            },
            {
                "start_time": 34.215909090909086,
                "end_time": 34.35,
                "pitch": 87,
                "velocity": 51,
                "duration": 0.13409090909091503,
                "tempo": 120.0
            },
            {
                "start_time": 34.36590909090909,
                "end_time": 34.41590909090909,
                "pitch": 87,
                "velocity": 51,
                "duration": 0.04999999999999716,
                "tempo": 120.0
            },
            {
                "start_time": 34.44772727272727,
                "end_time": 34.49772727272727,
                "pitch": 87,
                "velocity": 51,
                "duration": 0.04999999999999716,
                "tempo": 120.0
            },
            {
                "start_time": 34.513636363636365,
                "end_time": 34.65,
                "pitch": 87,
                "velocity": 51,
                "duration": 0.13636363636363313,
                "tempo": 120.0
            },
            {
                "start_time": 34.66590909090909,
                "end_time": 34.715909090909086,
                "pitch": 87,
                "velocity": 51,
                "duration": 0.04999999999999716,
                "tempo": 120.0
            },
            {
                "start_time": 34.75,
                "end_time": 34.8,
                "pitch": 87,
                "velocity": 51,
                "duration": 0.04999999999999716,
                "tempo": 120.0
            },
            {
                "start_time": 34.81818181818181,
                "end_time": 34.95227272727273,
                "pitch": 87,
                "velocity": 51,
                "duration": 0.13409090909091503,
                "tempo": 120.0
            },
            {
                "start_time": 34.96818181818182,
                "end_time": 35.02045454545454,
                "pitch": 87,
                "velocity": 51,
                "duration": 0.052272727272722364,
                "tempo": 120.0
            },
            {
                "start_time": 35.05227272727272,
                "end_time": 35.10454545454545,
                "pitch": 87,
                "velocity": 51,
                "duration": 0.05227272727272947,
                "tempo": 120.0
            },
            {
                "start_time": 35.12045454545454,
                "end_time": 35.25454545454545,
                "pitch": 87,
                "velocity": 51,
                "duration": 0.13409090909090793,
                "tempo": 120.0
            },
            {
                "start_time": 35.27045454545454,
                "end_time": 35.320454545454545,
                "pitch": 87,
                "velocity": 51,
                "duration": 0.05000000000000426,
                "tempo": 120.0
            },
            {
                "start_time": 35.35454545454545,
                "end_time": 35.404545454545456,
                "pitch": 87,
                "velocity": 51,
                "duration": 0.05000000000000426,
                "tempo": 120.0
            },
            {
                "start_time": 35.42045454545455,
                "end_time": 35.554545454545455,
                "pitch": 87,
                "velocity": 51,
                "duration": 0.13409090909090793,
                "tempo": 120.0
            },
            {
                "start_time": 35.570454545454545,
                "end_time": 35.62045454545454,
                "pitch": 87,
                "velocity": 51,
                "duration": 0.04999999999999716,
                "tempo": 120.0
            },
            {
                "start_time": 35.654545454545456,
                "end_time": 35.70454545454545,
                "pitch": 87,
                "velocity": 51,
                "duration": 0.04999999999999716,
                "tempo": 120.0
            },
            {
                "start_time": 35.720454545454544,
                "end_time": 35.85454545454545,
                "pitch": 87,
                "velocity": 51,
                "duration": 0.13409090909090793,
                "tempo": 120.0
            },
            {
                "start_time": 35.87272727272727,
                "end_time": 35.92272727272727,
                "pitch": 87,
                "velocity": 51,
                "duration": 0.05000000000000426,
                "tempo": 120.0
            },
            {
                "start_time": 35.95681818181818,
                "end_time": 36.00681818181818,
                "pitch": 87,
                "velocity": 51,
                "duration": 0.05000000000000426,
                "tempo": 120.0
            },
            {
                "start_time": 36.02272727272727,
                "end_time": 36.15909090909091,
                "pitch": 83,
                "velocity": 51,
                "duration": 0.13636363636363313,
                "tempo": 120.0
            },
            {
                "start_time": 36.175,
                "end_time": 36.225,
                "pitch": 83,
                "velocity": 51,
                "duration": 0.05000000000000426,
                "tempo": 120.0
            },
            {
                "start_time": 36.25909090909091,
                "end_time": 36.309090909090905,
                "pitch": 83,
                "velocity": 51,
                "duration": 0.04999999999999716,
                "tempo": 120.0
            },
            {
                "start_time": 36.32727272727273,
                "end_time": 36.461363636363636,
                "pitch": 83,
                "velocity": 51,
                "duration": 0.13409090909090793,
                "tempo": 120.0
            },
            {
                "start_time": 36.47727272727273,
                "end_time": 36.529545454545456,
                "pitch": 83,
                "velocity": 51,
                "duration": 0.05227272727272947,
                "tempo": 120.0
            },
            {
                "start_time": 36.56136363636364,
                "end_time": 36.61363636363636,
                "pitch": 83,
                "velocity": 51,
                "duration": 0.052272727272722364,
                "tempo": 120.0
            },
            {
                "start_time": 36.62954545454545,
                "end_time": 36.76363636363636,
                "pitch": 83,
                "velocity": 51,
                "duration": 0.13409090909090793,
                "tempo": 120.0
            },
            {
                "start_time": 36.78181818181818,
                "end_time": 36.83181818181818,
                "pitch": 83,
                "velocity": 51,
                "duration": 0.04999999999999716,
                "tempo": 120.0
            },
            {
                "start_time": 36.86590909090909,
                "end_time": 36.91590909090909,
                "pitch": 83,
                "velocity": 51,
                "duration": 0.04999999999999716,
                "tempo": 120.0
            },
            {
                "start_time": 36.93181818181818,
                "end_time": 37.070454545454545,
                "pitch": 83,
                "velocity": 51,
                "duration": 0.13863636363636545,
                "tempo": 120.0
            },
            {
                "start_time": 37.08863636363636,
                "end_time": 37.14090909090909,
                "pitch": 83,
                "velocity": 51,
                "duration": 0.05227272727272947,
                "tempo": 120.0
            },
            {
                "start_time": 37.175,
                "end_time": 37.22727272727273,
                "pitch": 83,
                "velocity": 51,
                "duration": 0.05227272727272947,
                "tempo": 120.0
            },
            {
                "start_time": 37.24545454545454,
                "end_time": 37.38409090909091,
                "pitch": 83,
                "velocity": 51,
                "duration": 0.13863636363636545,
                "tempo": 120.0
            },
            {
                "start_time": 37.4,
                "end_time": 37.45227272727273,
                "pitch": 83,
                "velocity": 51,
                "duration": 0.05227272727272947,
                "tempo": 120.0
            },
            {
                "start_time": 37.48863636363636,
                "end_time": 37.54090909090909,
                "pitch": 83,
                "velocity": 51,
                "duration": 0.05227272727272947,
                "tempo": 120.0
            },
            {
                "start_time": 37.55681818181818,
                "end_time": 37.69318181818181,
                "pitch": 83,
                "velocity": 51,
                "duration": 0.13636363636363313,
                "tempo": 120.0
            },
            {
                "start_time": 37.70909090909091,
                "end_time": 37.75909090909091,
                "pitch": 83,
                "velocity": 51,
                "duration": 0.04999999999999716,
                "tempo": 120.0
            },
            {
                "start_time": 37.793181818181814,
                "end_time": 37.84318181818182,
                "pitch": 83,
                "velocity": 51,
                "duration": 0.05000000000000426,
                "tempo": 120.0
            },
            {
                "start_time": 37.861363636363635,
                "end_time": 37.99545454545454,
                "pitch": 83,
                "velocity": 51,
                "duration": 0.13409090909090793,
                "tempo": 120.0
            },
            {
                "start_time": 38.01136363636363,
                "end_time": 38.06363636363636,
                "pitch": 83,
                "velocity": 51,
                "duration": 0.05227272727272947,
                "tempo": 120.0
            },
            {
                "start_time": 38.095454545454544,
                "end_time": 38.14772727272727,
                "pitch": 83,
                "velocity": 51,
                "duration": 0.05227272727272947,
                "tempo": 120.0
            },
            {
                "start_time": 38.163636363636364,
                "end_time": 38.29772727272727,
                "pitch": 83,
                "velocity": 51,
                "duration": 0.13409090909090793,
                "tempo": 120.0
            },
            {
                "start_time": 38.31590909090909,
                "end_time": 38.36590909090909,
                "pitch": 83,
                "velocity": 51,
                "duration": 0.05000000000000426,
                "tempo": 120.0
            },
            {
                "start_time": 38.4,
                "end_time": 38.449999999999996,
                "pitch": 83,
                "velocity": 51,
                "duration": 0.04999999999999716,
                "tempo": 120.0
            },
            {
                "start_time": 38.465909090909086,
                "end_time": 38.60227272727273,
                "pitch": 79,
                "velocity": 51,
                "duration": 0.13636363636364024,
                "tempo": 120.0
            },
            {
                "start_time": 38.61818181818182,
                "end_time": 38.668181818181814,
                "pitch": 79,
                "velocity": 51,
                "duration": 0.04999999999999716,
                "tempo": 120.0
            },
            {
                "start_time": 38.70227272727273,
                "end_time": 38.752272727272725,
                "pitch": 79,
                "velocity": 51,
                "duration": 0.04999999999999716,
                "tempo": 120.0
            },
            {
                "start_time": 38.77045454545454,
                "end_time": 38.902272727272724,
                "pitch": 79,
                "velocity": 51,
                "duration": 0.13181818181818272,
                "tempo": 120.0
            },
            {
                "start_time": 38.918181818181814,
                "end_time": 38.96818181818182,
                "pitch": 79,
                "velocity": 51,
                "duration": 0.05000000000000426,
                "tempo": 120.0
            },
            {
                "start_time": 39.0,
                "end_time": 39.05,
                "pitch": 79,
                "velocity": 51,
                "duration": 0.04999999999999716,
                "tempo": 120.0
            },
            {
                "start_time": 39.06590909090909,
                "end_time": 39.19772727272727,
                "pitch": 79,
                "velocity": 51,
                "duration": 0.13181818181818272,
                "tempo": 120.0
            },
            {
                "start_time": 39.215909090909086,
                "end_time": 39.26363636363636,
                "pitch": 79,
                "velocity": 51,
                "duration": 0.04772727272727195,
                "tempo": 120.0
            },
            {
                "start_time": 39.29772727272727,
                "end_time": 39.34772727272727,
                "pitch": 79,
                "velocity": 51,
                "duration": 0.04999999999999716,
                "tempo": 120.0
            },
            {
                "start_time": 39.36363636363636,
                "end_time": 39.49772727272727,
                "pitch": 79,
                "velocity": 51,
                "duration": 0.13409090909090793,
                "tempo": 120.0
            },
            {
                "start_time": 39.51590909090909,
                "end_time": 39.56590909090909,
                "pitch": 79,
                "velocity": 51,
                "duration": 0.04999999999999716,
                "tempo": 120.0
            },
            {
                "start_time": 39.6,
                "end_time": 39.65,
                "pitch": 79,
                "velocity": 51,
                "duration": 0.04999999999999716,
                "tempo": 120.0
            },
            {
                "start_time": 39.66590909090909,
                "end_time": 39.80227272727272,
                "pitch": 79,
                "velocity": 51,
                "duration": 0.13636363636363313,
                "tempo": 120.0
            },
            {
                "start_time": 39.81818181818181,
                "end_time": 39.86818181818182,
                "pitch": 79,
                "velocity": 51,
                "duration": 0.05000000000000426,
                "tempo": 120.0
            },
            {
                "start_time": 39.902272727272724,
                "end_time": 39.95227272727273,
                "pitch": 79,
                "velocity": 51,
                "duration": 0.05000000000000426,
                "tempo": 120.0
            },
            {
                "start_time": 39.970454545454544,
                "end_time": 40.10681818181818,
                "pitch": 79,
                "velocity": 51,
                "duration": 0.13636363636363313,
                "tempo": 120.0
            },
            {
                "start_time": 40.12272727272727,
                "end_time": 40.17272727272727,
                "pitch": 79,
                "velocity": 51,
                "duration": 0.05000000000000426,
                "tempo": 120.0
            },
            {
                "start_time": 40.20681818181818,
                "end_time": 40.25909090909091,
                "pitch": 79,
                "velocity": 51,
                "duration": 0.05227272727272947,
                "tempo": 120.0
            },
            {
                "start_time": 40.275,
                "end_time": 40.41136363636363,
                "pitch": 79,
                "velocity": 51,
                "duration": 0.13636363636363313,
                "tempo": 120.0
            },
            {
                "start_time": 40.429545454545455,
                "end_time": 40.47954545454545,
                "pitch": 79,
                "velocity": 51,
                "duration": 0.04999999999999716,
                "tempo": 120.0
            },
            {
                "start_time": 40.51363636363636,
                "end_time": 40.56590909090909,
                "pitch": 79,
                "velocity": 51,
                "duration": 0.05227272727272947,
                "tempo": 120.0
            },
            {
                "start_time": 40.58181818181818,
                "end_time": 40.711363636363636,
                "pitch": 79,
                "velocity": 51,
                "duration": 0.12954545454545752,
                "tempo": 120.0
            },
            {
                "start_time": 40.72727272727273,
                "end_time": 40.775,
                "pitch": 79,
                "velocity": 51,
                "duration": 0.04772727272727195,
                "tempo": 120.0
            },
            {
                "start_time": 40.80681818181818,
                "end_time": 40.85681818181818,
                "pitch": 79,
                "velocity": 51,
                "duration": 0.04999999999999716,
                "tempo": 120.0
            },
            {
                "start_time": 40.87272727272727,
                "end_time": 40.92045454545455,
                "pitch": 83,
                "velocity": 51,
                "duration": 0.04772727272727906,
                "tempo": 120.0
            },
            {
                "start_time": 40.95227272727273,
                "end_time": 41.002272727272725,
                "pitch": 86,
                "velocity": 51,
                "duration": 0.04999999999999716,
                "tempo": 120.0
            },
            {
                "start_time": 41.018181818181816,
                "end_time": 41.06590909090909,
                "pitch": 83,
                "velocity": 51,
                "duration": 0.04772727272727195,
                "tempo": 120.0
            },
            {
                "start_time": 41.1,
                "end_time": 41.14772727272727,
                "pitch": 86,
                "velocity": 51,
                "duration": 0.04772727272727195,
                "tempo": 120.0
            },
            {
                "start_time": 41.163636363636364,
                "end_time": 41.215909090909086,
                "pitch": 83,
                "velocity": 51,
                "duration": 0.052272727272722364,
                "tempo": 120.0
            },
            {
                "start_time": 41.25,
                "end_time": 41.30227272727272,
                "pitch": 86,
                "velocity": 51,
                "duration": 0.052272727272722364,
                "tempo": 120.0
            },
            {
                "start_time": 41.320454545454545,
                "end_time": 41.37272727272727,
                "pitch": 83,
                "velocity": 51,
                "duration": 0.052272727272722364,
                "tempo": 120.0
            },
            {
                "start_time": 41.40681818181818,
                "end_time": 41.459090909090904,
                "pitch": 86,
                "velocity": 51,
                "duration": 0.052272727272722364,
                "tempo": 120.0
            },
            {
                "start_time": 41.475,
                "end_time": 41.527272727272724,
                "pitch": 83,
                "velocity": 51,
                "duration": 0.052272727272722364,
                "tempo": 120.0
            },
            {
                "start_time": 41.56363636363636,
                "end_time": 41.61363636363636,
                "pitch": 86,
                "velocity": 51,
                "duration": 0.04999999999999716,
                "tempo": 120.0
            },
            {
                "start_time": 41.63181818181818,
                "end_time": 41.684090909090905,
                "pitch": 83,
                "velocity": 51,
                "duration": 0.052272727272722364,
                "tempo": 120.0
            },
            {
                "start_time": 41.71818181818182,
                "end_time": 41.77045454545454,
                "pitch": 86,
                "velocity": 51,
                "duration": 0.052272727272722364,
                "tempo": 120.0
            },
            {
                "start_time": 41.78636363636363,
                "end_time": 41.836363636363636,
                "pitch": 83,
                "velocity": 51,
                "duration": 0.05000000000000426,
                "tempo": 120.0
            },
            {
                "start_time": 41.86818181818182,
                "end_time": 41.91590909090909,
                "pitch": 86,
                "velocity": 51,
                "duration": 0.04772727272727195,
                "tempo": 120.0
            },
            {
                "start_time": 41.93181818181818,
                "end_time": 41.98181818181818,
                "pitch": 83,
                "velocity": 51,
                "duration": 0.04999999999999716,
                "tempo": 120.0
            },
            {
                "start_time": 42.01363636363636,
                "end_time": 42.06136363636364,
                "pitch": 86,
                "velocity": 51,
                "duration": 0.04772727272727906,
                "tempo": 120.0
            },
            {
                "start_time": 42.07954545454545,
                "end_time": 42.127272727272725,
                "pitch": 79,
                "velocity": 51,
                "duration": 0.04772727272727195,
                "tempo": 120.0
            },
            {
                "start_time": 42.15909090909091,
                "end_time": 42.20681818181818,
                "pitch": 86,
                "velocity": 51,
                "duration": 0.04772727272727195,
                "tempo": 120.0
            },
            {
                "start_time": 42.225,
                "end_time": 42.27272727272727,
                "pitch": 79,
                "velocity": 51,
                "duration": 0.04772727272727195,
                "tempo": 120.0
            },
            {
                "start_time": 42.304545454545455,
                "end_time": 42.35454545454545,
                "pitch": 86,
                "velocity": 51,
                "duration": 0.04999999999999716,
                "tempo": 120.0
            },
            {
                "start_time": 42.37045454545454,
                "end_time": 42.42045454545455,
                "pitch": 79,
                "velocity": 51,
                "duration": 0.05000000000000426,
                "tempo": 120.0
            },
            {
                "start_time": 42.45681818181818,
                "end_time": 42.50909090909091,
                "pitch": 86,
                "velocity": 51,
                "duration": 0.05227272727272947,
                "tempo": 120.0
            },
            {
                "start_time": 42.525,
                "end_time": 42.57727272727273,
                "pitch": 79,
                "velocity": 51,
                "duration": 0.05227272727272947,
                "tempo": 120.0
            },
            {
                "start_time": 42.61363636363636,
                "end_time": 42.663636363636364,
                "pitch": 86,
                "velocity": 51,
                "duration": 0.05000000000000426,
                "tempo": 120.0
            },
            {
                "start_time": 42.68181818181818,
                "end_time": 42.73409090909091,
                "pitch": 79,
                "velocity": 51,
                "duration": 0.05227272727272947,
                "tempo": 120.0
            },
            {
                "start_time": 42.768181818181816,
                "end_time": 42.820454545454545,
                "pitch": 86,
                "velocity": 51,
                "duration": 0.05227272727272947,
                "tempo": 120.0
            },
            {
                "start_time": 42.83863636363636,
                "end_time": 42.89090909090909,
                "pitch": 79,
                "velocity": 51,
                "duration": 0.05227272727272947,
                "tempo": 120.0
            },
            {
                "start_time": 42.925,
                "end_time": 42.97727272727273,
                "pitch": 86,
                "velocity": 51,
                "duration": 0.05227272727272947,
                "tempo": 120.0
            },
            {
                "start_time": 42.99545454545454,
                "end_time": 43.04545454545455,
                "pitch": 79,
                "velocity": 51,
                "duration": 0.05000000000000426,
                "tempo": 120.0
            },
            {
                "start_time": 43.07727272727273,
                "end_time": 43.127272727272725,
                "pitch": 86,
                "velocity": 51,
                "duration": 0.04999999999999716,
                "tempo": 120.0
            },
            {
                "start_time": 43.14545454545454,
                "end_time": 43.195454545454545,
                "pitch": 79,
                "velocity": 51,
                "duration": 0.05000000000000426,
                "tempo": 120.0
            },
            {
                "start_time": 43.22727272727273,
                "end_time": 43.277272727272724,
                "pitch": 86,
                "velocity": 51,
                "duration": 0.04999999999999716,
                "tempo": 120.0
            },
            {
                "start_time": 43.445454545454545,
                "end_time": 43.49545454545454,
                "pitch": 84,
                "velocity": 51,
                "duration": 0.04999999999999716,
                "tempo": 120.0
            },
            {
                "start_time": 43.527272727272724,
                "end_time": 43.72954545454545,
                "pitch": 84,
                "velocity": 51,
                "duration": 0.20227272727272805,
                "tempo": 120.0
            },
            {
                "start_time": 43.74545454545454,
                "end_time": 43.79772727272727,
                "pitch": 84,
                "velocity": 51,
                "duration": 0.05227272727272947,
                "tempo": 120.0
            },
            {
                "start_time": 43.82954545454545,
                "end_time": 44.03181818181818,
                "pitch": 84,
                "velocity": 51,
                "duration": 0.20227272727272805,
                "tempo": 120.0
            },
            {
                "start_time": 44.05,
                "end_time": 44.099999999999994,
                "pitch": 84,
                "velocity": 51,
                "duration": 0.04999999999999716,
                "tempo": 120.0
            },
            {
                "start_time": 44.13409090909091,
                "end_time": 44.336363636363636,
                "pitch": 84,
                "velocity": 51,
                "duration": 0.20227272727272805,
                "tempo": 120.0
            },
            {
                "start_time": 44.35227272727273,
                "end_time": 44.402272727272724,
                "pitch": 84,
                "velocity": 51,
                "duration": 0.04999999999999716,
                "tempo": 120.0
            },
            {
                "start_time": 44.43636363636364,
                "end_time": 44.50454545454545,
                "pitch": 84,
                "velocity": 51,
                "duration": 0.06818181818181301,
                "tempo": 120.0
            }
        ],
        "Flute": [
            {
                "start_time": 0.0,
                "end_time": 0.07727272727272727,
                "pitch": 48,
                "velocity": 25,
                "duration": 0.07727272727272727,
                "tempo": 120.0
            },
            {
                "start_time": 0.09999999999999999,
                "end_time": 0.17727272727272728,
                "pitch": 55,
                "velocity": 25,
                "duration": 0.07727272727272728,
                "tempo": 120.0
            },
            {
                "start_time": 0.21136363636363636,
                "end_time": 0.32727272727272727,
                "pitch": 48,
                "velocity": 25,
                "duration": 0.1159090909090909,
                "tempo": 120.0
            },
            {
                "start_time": 0.36136363636363633,
                "end_time": 0.4795454545454545,
                "pitch": 55,
                "velocity": 25,
                "duration": 0.11818181818181817,
                "tempo": 120.0
            },
            {
                "start_time": 0.5136363636363636,
                "end_time": 0.6318181818181818,
                "pitch": 48,
                "velocity": 25,
                "duration": 0.11818181818181828,
                "tempo": 120.0
            },
            {
                "start_time": 0.6659090909090909,
                "end_time": 0.7818181818181817,
                "pitch": 55,
                "velocity": 25,
                "duration": 0.11590909090909085,
                "tempo": 120.0
            },
            {
                "start_time": 0.8159090909090909,
                "end_time": 0.9318181818181818,
                "pitch": 48,
                "velocity": 25,
                "duration": 0.11590909090909085,
                "tempo": 120.0
            },
            {
                "start_time": 0.9659090909090908,
                "end_time": 1.0818181818181818,
                "pitch": 55,
                "velocity": 25,
                "duration": 0.11590909090909096,
                "tempo": 120.0
            },
            {
                "start_time": 1.115909090909091,
                "end_time": 1.2318181818181817,
                "pitch": 48,
                "velocity": 25,
                "duration": 0.11590909090909074,
                "tempo": 120.0
            },
            {
                "start_time": 1.2659090909090909,
                "end_time": 1.3818181818181818,
                "pitch": 55,
                "velocity": 25,
                "duration": 0.11590909090909096,
                "tempo": 120.0
            },
            {
                "start_time": 1.4159090909090908,
                "end_time": 1.5318181818181817,
                "pitch": 48,
                "velocity": 25,
                "duration": 0.11590909090909096,
                "tempo": 120.0
            },
            {
                "start_time": 1.565909090909091,
                "end_time": 1.6818181818181817,
                "pitch": 55,
                "velocity": 25,
                "duration": 0.11590909090909074,
                "tempo": 120.0
            },
            {
                "start_time": 1.7159090909090908,
                "end_time": 1.8318181818181818,
                "pitch": 54,
                "velocity": 25,
                "duration": 0.11590909090909096,
                "tempo": 120.0
            },
            {
                "start_time": 1.8659090909090907,
                "end_time": 1.9818181818181817,
                "pitch": 54,
                "velocity": 25,
                "duration": 0.11590909090909096,
                "tempo": 120.0
            },
            {
                "start_time": 2.0159090909090907,
                "end_time": 2.127272727272727,
                "pitch": 54,
                "velocity": 25,
                "duration": 0.11136363636363633,
                "tempo": 120.0
            },
            {
                "start_time": 2.161363636363636,
                "end_time": 2.2727272727272725,
                "pitch": 52,
                "velocity": 25,
                "duration": 0.11136363636363633,
                "tempo": 120.0
            },
            {
                "start_time": 2.3068181818181817,
                "end_time": 2.4204545454545454,
                "pitch": 48,
                "velocity": 25,
                "duration": 0.11363636363636376,
                "tempo": 120.0
            },
            {
                "start_time": 2.452272727272727,
                "end_time": 2.565909090909091,
                "pitch": 55,
                "velocity": 25,
                "duration": 0.11363636363636376,
                "tempo": 120.0
            },
            {
                "start_time": 2.6,
                "end_time": 2.7204545454545452,
                "pitch": 48,
                "velocity": 25,
                "duration": 0.12045454545454515,
                "tempo": 120.0
            },
            {
                "start_time": 2.756818181818182,
                "end_time": 2.877272727272727,
                "pitch": 55,
                "velocity": 25,
                "duration": 0.12045454545454515,
                "tempo": 120.0
            },
            {
                "start_time": 2.911363636363636,
                "end_time": 3.0340909090909087,
                "pitch": 48,
                "velocity": 25,
                "duration": 0.12272727272727257,
                "tempo": 120.0
            },
            {
                "start_time": 3.068181818181818,
                "end_time": 3.1886363636363635,
                "pitch": 55,
                "velocity": 25,
                "duration": 0.12045454545454559,
                "tempo": 120.0
            },
            {
                "start_time": 3.2227272727272727,
                "end_time": 3.340909090909091,
                "pitch": 48,
                "velocity": 25,
                "duration": 0.11818181818181817,
                "tempo": 120.0
            },
            {
                "start_time": 3.375,
                "end_time": 3.493181818181818,
                "pitch": 55,
                "velocity": 25,
                "duration": 0.11818181818181817,
                "tempo": 120.0
            },
            {
                "start_time": 3.527272727272727,
                "end_time": 3.645454545454545,
                "pitch": 48,
                "velocity": 25,
                "duration": 0.11818181818181817,
                "tempo": 120.0
            },
            {
                "start_time": 3.6772727272727272,
                "end_time": 3.7954545454545454,
                "pitch": 55,
                "velocity": 25,
                "duration": 0.11818181818181817,
                "tempo": 120.0
            },
            {
                "start_time": 3.829545454545454,
                "end_time": 3.9477272727272728,
                "pitch": 48,
                "velocity": 25,
                "duration": 0.11818181818181861,
                "tempo": 120.0
            },
            {
                "start_time": 3.9818181818181815,
                "end_time": 4.1,
                "pitch": 55,
                "velocity": 25,
                "duration": 0.11818181818181817,
                "tempo": 120.0
            },
            {
                "start_time": 4.131818181818182,
                "end_time": 4.25,
                "pitch": 54,
                "velocity": 25,
                "duration": 0.11818181818181817,
                "tempo": 120.0
            },
            {
                "start_time": 4.284090909090909,
                "end_time": 4.402272727272727,
                "pitch": 54,
                "velocity": 25,
                "duration": 0.11818181818181817,
                "tempo": 120.0
            },
            {
                "start_time": 4.434090909090909,
                "end_time": 4.547727272727273,
                "pitch": 54,
                "velocity": 25,
                "duration": 0.1136363636363642,
                "tempo": 120.0
            },
            {
                "start_time": 4.579545454545454,
                "end_time": 4.693181818181818,
                "pitch": 52,
                "velocity": 25,
                "duration": 0.1136363636363642,
                "tempo": 120.0
            },
            {
                "start_time": 4.725,
                "end_time": 4.838636363636363,
                "pitch": 48,
                "velocity": 25,
                "duration": 0.11363636363636331,
                "tempo": 120.0
            },
            {
                "start_time": 4.870454545454545,
                "end_time": 4.9840909090909085,
                "pitch": 55,
                "velocity": 25,
                "duration": 0.11363636363636331,
                "tempo": 120.0
            },
            {
                "start_time": 5.018181818181818,
                "end_time": 5.140909090909091,
                "pitch": 48,
                "velocity": 25,
                "duration": 0.12272727272727302,
                "tempo": 120.0
            },
            {
                "start_time": 5.175,
                "end_time": 5.295454545454545,
                "pitch": 55,
                "velocity": 25,
                "duration": 0.12045454545454515,
                "tempo": 120.0
            },
            {
                "start_time": 5.331818181818181,
                "end_time": 5.452272727272727,
                "pitch": 48,
                "velocity": 25,
                "duration": 0.12045454545454604,
                "tempo": 120.0
            },
            {
                "start_time": 5.486363636363636,
                "end_time": 5.6068181818181815,
                "pitch": 55,
                "velocity": 25,
                "duration": 0.12045454545454515,
                "tempo": 120.0
            },
            {
                "start_time": 5.640909090909091,
                "end_time": 5.752272727272727,
                "pitch": 48,
                "velocity": 25,
                "duration": 0.11136363636363633,
                "tempo": 120.0
            },
            {
                "start_time": 5.786363636363636,
                "end_time": 5.8977272727272725,
                "pitch": 55,
                "velocity": 25,
                "duration": 0.11136363636363633,
                "tempo": 120.0
            },
            {
                "start_time": 5.931818181818182,
                "end_time": 6.045454545454545,
                "pitch": 48,
                "velocity": 25,
                "duration": 0.11363636363636331,
                "tempo": 120.0
            },
            {
                "start_time": 6.077272727272727,
                "end_time": 6.1909090909090905,
                "pitch": 55,
                "velocity": 25,
                "duration": 0.11363636363636331,
                "tempo": 120.0
            },
            {
                "start_time": 6.225,
                "end_time": 6.345454545454545,
                "pitch": 48,
                "velocity": 25,
                "duration": 0.12045454545454515,
                "tempo": 120.0
            },
            {
                "start_time": 6.381818181818182,
                "end_time": 6.502272727272727,
                "pitch": 55,
                "velocity": 25,
                "duration": 0.12045454545454515,
                "tempo": 120.0
            },
            {
                "start_time": 6.536363636363636,
                "end_time": 6.659090909090909,
                "pitch": 54,
                "velocity": 25,
                "duration": 0.12272727272727302,
                "tempo": 120.0
            },
            {
                "start_time": 6.6931818181818175,
                "end_time": 6.8136363636363635,
                "pitch": 54,
                "velocity": 25,
                "duration": 0.12045454545454604,
                "tempo": 120.0
            },
            {
                "start_time": 6.845454545454545,
                "end_time": 6.959090909090909,
                "pitch": 54,
                "velocity": 25,
                "duration": 0.1136363636363642,
                "tempo": 120.0
            },
            {
                "start_time": 6.99090909090909,
                "end_time": 7.1045454545454545,
                "pitch": 52,
                "velocity": 25,
                "duration": 0.1136363636363642,
                "tempo": 120.0
            },
            {
                "start_time": 7.136363636363636,
                "end_time": 7.25,
                "pitch": 48,
                "velocity": 25,
                "duration": 0.1136363636363642,
                "tempo": 120.0
            },
            {
                "start_time": 7.281818181818181,
                "end_time": 7.3954545454545455,
                "pitch": 55,
                "velocity": 25,
                "duration": 0.1136363636363642,
                "tempo": 120.0
            },
            {
                "start_time": 7.429545454545454,
                "end_time": 7.552272727272727,
                "pitch": 48,
                "velocity": 25,
                "duration": 0.12272727272727302,
                "tempo": 120.0
            },
            {
                "start_time": 7.586363636363636,
                "end_time": 7.709090909090909,
                "pitch": 55,
                "velocity": 25,
                "duration": 0.12272727272727302,
                "tempo": 120.0
            },
            {
                "start_time": 7.743181818181818,
                "end_time": 7.863636363636363,
                "pitch": 48,
                "velocity": 25,
                "duration": 0.12045454545454515,
                "tempo": 120.0
            },
            {
                "start_time": 7.8999999999999995,
                "end_time": 8.020454545454545,
                "pitch": 55,
                "velocity": 25,
                "duration": 0.12045454545454515,
                "tempo": 120.0
            },
            {
                "start_time": 8.054545454545455,
                "end_time": 8.168181818181818,
                "pitch": 48,
                "velocity": 25,
                "duration": 0.11363636363636331,
                "tempo": 120.0
            },
            {
                "start_time": 8.202272727272726,
                "end_time": 8.318181818181818,
                "pitch": 55,
                "velocity": 25,
                "duration": 0.11590909090909207,
                "tempo": 120.0
            },
            {
                "start_time": 8.35,
                "end_time": 8.46590909090909,
                "pitch": 48,
                "velocity": 25,
                "duration": 0.1159090909090903,
                "tempo": 120.0
            },
            {
                "start_time": 8.5,
                "end_time": 8.613636363636363,
                "pitch": 55,
                "velocity": 25,
                "duration": 0.11363636363636331,
                "tempo": 120.0
            },
            {
                "start_time": 8.647727272727272,
                "end_time": 8.768181818181818,
                "pitch": 48,
                "velocity": 25,
                "duration": 0.12045454545454604,
                "tempo": 120.0
            },
            {
                "start_time": 8.802272727272728,
                "end_time": 8.920454545454545,
                "pitch": 55,
                "velocity": 25,
                "duration": 0.11818181818181728,
                "tempo": 120.0
            },
            {
                "start_time": 8.954545454545453,
                "end_time": 9.072727272727272,
                "pitch": 54,
                "velocity": 25,
                "duration": 0.11818181818181905,
                "tempo": 120.0
            },
            {
                "start_time": 9.10681818181818,
                "end_time": 9.227272727272727,
                "pitch": 54,
                "velocity": 25,
                "duration": 0.12045454545454604,
                "tempo": 120.0
            },
            {
                "start_time": 9.259090909090908,
                "end_time": 9.377272727272727,
                "pitch": 54,
                "velocity": 25,
                "duration": 0.11818181818181905,
                "tempo": 120.0
            },
            {
                "start_time": 9.409090909090908,
                "end_time": 9.527272727272727,
                "pitch": 52,
                "velocity": 25,
                "duration": 0.11818181818181905,
                "tempo": 120.0
            },
            {
                "start_time": 9.559090909090909,
                "end_time": 9.677272727272726,
                "pitch": 48,
                "velocity": 25,
                "duration": 0.11818181818181728,
                "tempo": 120.0
            },
            {
                "start_time": 9.709090909090909,
                "end_time": 9.827272727272726,
                "pitch": 55,
                "velocity": 25,
                "duration": 0.11818181818181728,
                "tempo": 120.0
            },
            {
                "start_time": 9.85909090909091,
                "end_time": 9.977272727272727,
                "pitch": 48,
                "velocity": 25,
                "duration": 0.11818181818181728,
                "tempo": 120.0
            },
            {
                "start_time": 10.009090909090908,
                "end_time": 10.127272727272727,
                "pitch": 55,
                "velocity": 25,
                "duration": 0.11818181818181905,
                "tempo": 120.0
            },
            {
                "start_time": 10.159090909090908,
                "end_time": 10.277272727272727,
                "pitch": 48,
                "velocity": 25,
                "duration": 0.11818181818181905,
                "tempo": 120.0
            },
            {
                "start_time": 10.309090909090909,
                "end_time": 10.427272727272726,
                "pitch": 55,
                "velocity": 25,
                "duration": 0.11818181818181728,
                "tempo": 120.0
            },
            {
                "start_time": 10.461363636363636,
                "end_time": 10.577272727272726,
                "pitch": 48,
                "velocity": 25,
                "duration": 0.1159090909090903,
                "tempo": 120.0
            },
            {
                "start_time": 10.611363636363636,
                "end_time": 10.729545454545454,
                "pitch": 55,
                "velocity": 25,
                "duration": 0.11818181818181728,
                "tempo": 120.0
            },
            {
                "start_time": 10.763636363636364,
                "end_time": 10.881818181818181,
                "pitch": 48,
                "velocity": 25,
                "duration": 0.11818181818181728,
                "tempo": 120.0
            },
            {
                "start_time": 10.915909090909091,
                "end_time": 11.031818181818181,
                "pitch": 55,
                "velocity": 25,
                "duration": 0.1159090909090903,
                "tempo": 120.0
            },
            {
                "start_time": 11.06590909090909,
                "end_time": 11.181818181818182,
                "pitch": 48,
                "velocity": 25,
                "duration": 0.11590909090909207,
                "tempo": 120.0
            },
            {
                "start_time": 11.21590909090909,
                "end_time": 11.331818181818182,
                "pitch": 55,
                "velocity": 25,
                "duration": 0.11590909090909207,
                "tempo": 120.0
            },
            {
                "start_time": 11.36590909090909,
                "end_time": 11.48181818181818,
                "pitch": 54,
                "velocity": 25,
                "duration": 0.1159090909090903,
                "tempo": 120.0
            },
            {
                "start_time": 11.51590909090909,
                "end_time": 11.631818181818181,
                "pitch": 54,
                "velocity": 25,
                "duration": 0.1159090909090903,
                "tempo": 120.0
            },
            {
                "start_time": 11.665909090909091,
                "end_time": 11.781818181818181,
                "pitch": 54,
                "velocity": 25,
                "duration": 0.1159090909090903,
                "tempo": 120.0
            },
            {
                "start_time": 11.813636363636363,
                "end_time": 11.929545454545455,
                "pitch": 52,
                "velocity": 25,
                "duration": 0.11590909090909207,
                "tempo": 120.0
            },
            {
                "start_time": 11.963636363636363,
                "end_time": 12.077272727272726,
                "pitch": 48,
                "velocity": 25,
                "duration": 0.11363636363636331,
                "tempo": 120.0
            },
            {
                "start_time": 12.111363636363636,
                "end_time": 12.227272727272727,
                "pitch": 55,
                "velocity": 25,
                "duration": 0.1159090909090903,
                "tempo": 120.0
            },
            {
                "start_time": 12.259090909090908,
                "end_time": 12.522727272727272,
                "pitch": 48,
                "velocity": 25,
                "duration": 0.26363636363636367,
                "tempo": 120.0
            },
            {
                "start_time": 12.556818181818182,
                "end_time": 12.820454545454545,
                "pitch": 48,
                "velocity": 25,
                "duration": 0.26363636363636367,
                "tempo": 120.0
            },
            {
                "start_time": 12.854545454545454,
                "end_time": 13.120454545454544,
                "pitch": 48,
                "velocity": 25,
                "duration": 0.26590909090909065,
                "tempo": 120.0
            },
            {
                "start_time": 13.154545454545454,
                "end_time": 13.270454545454545,
                "pitch": 48,
                "velocity": 25,
                "duration": 0.1159090909090903,
                "tempo": 120.0
            },
            {
                "start_time": 13.304545454545455,
                "end_time": 13.420454545454545,
                "pitch": 55,
                "velocity": 25,
                "duration": 0.1159090909090903,
                "tempo": 120.0
            },
            {
                "start_time": 13.454545454545453,
                "end_time": 13.720454545454544,
                "pitch": 48,
                "velocity": 25,
                "duration": 0.26590909090909065,
                "tempo": 120.0
            },
            {
                "start_time": 13.754545454545454,
                "end_time": 14.020454545454545,
                "pitch": 48,
                "velocity": 25,
                "duration": 0.26590909090909065,
                "tempo": 120.0
            },
            {
                "start_time": 14.054545454545455,
                "end_time": 14.327272727272726,
                "pitch": 48,
                "velocity": 25,
                "duration": 0.2727272727272716,
                "tempo": 120.0
            },
            {
                "start_time": 14.361363636363636,
                "end_time": 14.479545454545454,
                "pitch": 48,
                "velocity": 25,
                "duration": 0.11818181818181728,
                "tempo": 120.0
            },
            {
                "start_time": 14.513636363636364,
                "end_time": 14.631818181818181,
                "pitch": 55,
                "velocity": 25,
                "duration": 0.11818181818181728,
                "tempo": 120.0
            },
            {
                "start_time": 14.665909090909091,
                "end_time": 14.929545454545455,
                "pitch": 48,
                "velocity": 25,
                "duration": 0.26363636363636367,
                "tempo": 120.0
            },
            {
                "start_time": 14.963636363636363,
                "end_time": 15.227272727272727,
                "pitch": 48,
                "velocity": 25,
                "duration": 0.26363636363636367,
                "tempo": 120.0
            },
            {
                "start_time": 15.261363636363635,
                "end_time": 15.527272727272727,
                "pitch": 48,
                "velocity": 25,
                "duration": 0.2659090909090924,
                "tempo": 120.0
            },
            {
                "start_time": 15.561363636363636,
                "end_time": 15.677272727272726,
                "pitch": 48,
                "velocity": 25,
                "duration": 0.1159090909090903,
                "tempo": 120.0
            },
            {
                "start_time": 15.711363636363636,
                "end_time": 15.827272727272726,
                "pitch": 55,
                "velocity": 25,
                "duration": 0.1159090909090903,
                "tempo": 120.0
            },
            {
                "start_time": 15.861363636363636,
                "end_time": 16.127272727272725,
                "pitch": 48,
                "velocity": 25,
                "duration": 0.2659090909090889,
                "tempo": 120.0
            },
            {
                "start_time": 16.161363636363635,
                "end_time": 16.427272727272726,
                "pitch": 48,
                "velocity": 25,
                "duration": 0.26590909090909065,
                "tempo": 120.0
            },
            {
                "start_time": 16.461363636363636,
                "end_time": 16.73409090909091,
                "pitch": 48,
                "velocity": 25,
                "duration": 0.2727272727272734,
                "tempo": 120.0
            },
            {
                "start_time": 16.768181818181816,
                "end_time": 17.038636363636364,
                "pitch": 60,
                "velocity": 25,
                "duration": 0.27045454545454817,
                "tempo": 120.0
            },
            {
                "start_time": 17.07272727272727,
                "end_time": 17.33863636363636,
                "pitch": 60,
                "velocity": 25,
                "duration": 0.26590909090909065,
                "tempo": 120.0
            },
            {
                "start_time": 17.37272727272727,
                "end_time": 17.638636363636362,
                "pitch": 60,
                "velocity": 25,
                "duration": 0.26590909090909065,
                "tempo": 120.0
            },
            {
                "start_time": 17.672727272727272,
                "end_time": 17.936363636363634,
                "pitch": 60,
                "velocity": 25,
                "duration": 0.2636363636363619,
                "tempo": 120.0
            },
            {
                "start_time": 17.96818181818182,
                "end_time": 18.23409090909091,
                "pitch": 60,
                "velocity": 25,
                "duration": 0.26590909090909065,
                "tempo": 120.0
            },
            {
                "start_time": 18.268181818181816,
                "end_time": 18.538636363636364,
                "pitch": 60,
                "velocity": 25,
                "duration": 0.27045454545454817,
                "tempo": 120.0
            },
            {
                "start_time": 18.57272727272727,
                "end_time": 18.845454545454544,
                "pitch": 60,
                "velocity": 25,
                "duration": 0.2727272727272734,
                "tempo": 120.0
            },
            {
                "start_time": 18.879545454545454,
                "end_time": 19.145454545454545,
                "pitch": 60,
                "velocity": 25,
                "duration": 0.26590909090909065,
                "tempo": 120.0
            },
            {
                "start_time": 19.179545454545455,
                "end_time": 19.445454545454545,
                "pitch": 60,
                "velocity": 25,
                "duration": 0.26590909090909065,
                "tempo": 120.0
            },
            {
                "start_time": 19.479545454545452,
                "end_time": 19.752272727272725,
                "pitch": 60,
                "velocity": 25,
                "duration": 0.2727272727272734,
                "tempo": 120.0
            },
            {
                "start_time": 19.786363636363635,
                "end_time": 20.05681818181818,
                "pitch": 60,
                "velocity": 25,
                "duration": 0.2704545454545446,
                "tempo": 120.0
            },
            {
                "start_time": 20.08863636363636,
                "end_time": 20.347727272727273,
                "pitch": 60,
                "velocity": 25,
                "duration": 0.2590909090909115,
                "tempo": 120.0
            },
            {
                "start_time": 20.379545454545454,
                "end_time": 20.64090909090909,
                "pitch": 60,
                "velocity": 25,
                "duration": 0.2613636363636367,
                "tempo": 120.0
            },
            {
                "start_time": 20.672727272727272,
                "end_time": 20.945454545454545,
                "pitch": 60,
                "velocity": 25,
                "duration": 0.2727272727272734,
                "tempo": 120.0
            },
            {
                "start_time": 20.979545454545452,
                "end_time": 21.252272727272725,
                "pitch": 60,
                "velocity": 25,
                "duration": 0.2727272727272734,
                "tempo": 120.0
            },
            {
                "start_time": 21.286363636363635,
                "end_time": 21.554545454545455,
                "pitch": 60,
                "velocity": 25,
                "duration": 0.2681818181818194,
                "tempo": 120.0
            },
            {
                "start_time": 21.58863636363636,
                "end_time": 21.706818181818182,
                "pitch": 48,
                "velocity": 25,
                "duration": 0.11818181818182083,
                "tempo": 120.0
            },
            {
                "start_time": 21.74090909090909,
                "end_time": 21.85909090909091,
                "pitch": 55,
                "velocity": 25,
                "duration": 0.11818181818182083,
                "tempo": 120.0
            },
            {
                "start_time": 21.89090909090909,
                "end_time": 22.011363636363637,
                "pitch": 48,
                "velocity": 25,
                "duration": 0.12045454545454604,
                "tempo": 120.0
            },
            {
                "start_time": 22.045454545454543,
                "end_time": 22.163636363636364,
                "pitch": 55,
                "velocity": 25,
                "duration": 0.11818181818182083,
                "tempo": 120.0
            },
            {
                "start_time": 22.19772727272727,
                "end_time": 22.318181818181817,
                "pitch": 48,
                "velocity": 25,
                "duration": 0.12045454545454604,
                "tempo": 120.0
            },
            {
                "start_time": 22.352272727272727,
                "end_time": 22.470454545454544,
                "pitch": 55,
                "velocity": 25,
                "duration": 0.11818181818181728,
                "tempo": 120.0
            },
            {
                "start_time": 22.502272727272725,
                "end_time": 22.61590909090909,
                "pitch": 48,
                "velocity": 25,
                "duration": 0.11363636363636331,
                "tempo": 120.0
            },
            {
                "start_time": 22.647727272727273,
                "end_time": 22.761363636363637,
                "pitch": 55,
                "velocity": 25,
                "duration": 0.11363636363636331,
                "tempo": 120.0
            },
            {
                "start_time": 22.793181818181818,
                "end_time": 22.90681818181818,
                "pitch": 48,
                "velocity": 25,
                "duration": 0.11363636363636331,
                "tempo": 120.0
            },
            {
                "start_time": 22.938636363636363,
                "end_time": 23.052272727272726,
                "pitch": 55,
                "velocity": 25,
                "duration": 0.11363636363636331,
                "tempo": 120.0
            },
            {
                "start_time": 23.086363636363636,
                "end_time": 23.209090909090907,
                "pitch": 48,
                "velocity": 25,
                "duration": 0.12272727272727124,
                "tempo": 120.0
            },
            {
                "start_time": 23.243181818181817,
                "end_time": 23.363636363636363,
                "pitch": 55,
                "velocity": 25,
                "duration": 0.12045454545454604,
                "tempo": 120.0
            },
            {
                "start_time": 23.4,
                "end_time": 23.520454545454545,
                "pitch": 54,
                "velocity": 25,
                "duration": 0.12045454545454604,
                "tempo": 120.0
            },
            {
                "start_time": 23.554545454545455,
                "end_time": 23.674999999999997,
                "pitch": 54,
                "velocity": 25,
                "duration": 0.12045454545454248,
                "tempo": 120.0
            },
            {
                "start_time": 23.706818181818182,
                "end_time": 23.820454545454545,
                "pitch": 54,
                "velocity": 25,
                "duration": 0.11363636363636331,
                "tempo": 120.0
            },
            {
                "start_time": 23.854545454545452,
                "end_time": 23.96590909090909,
                "pitch": 52,
                "velocity": 25,
                "duration": 0.11136363636363811,
                "tempo": 120.0
            },
            {
                "start_time": 24.0,
                "end_time": 24.111363636363635,
                "pitch": 48,
                "velocity": 25,
                "duration": 0.11136363636363455,
                "tempo": 120.0
            },
            {
                "start_time": 24.145454545454545,
                "end_time": 24.259090909090908,
                "pitch": 55,
                "velocity": 25,
                "duration": 0.11363636363636331,
                "tempo": 120.0
            },
            {
                "start_time": 24.293181818181818,
                "end_time": 24.413636363636364,
                "pitch": 48,
                "velocity": 25,
                "duration": 0.12045454545454604,
                "tempo": 120.0
            },
            {
                "start_time": 24.44772727272727,
                "end_time": 24.570454545454545,
                "pitch": 55,
                "velocity": 25,
                "duration": 0.1227272727272748,
                "tempo": 120.0
            },
            {
                "start_time": 24.604545454545452,
                "end_time": 24.727272727272727,
                "pitch": 48,
                "velocity": 25,
                "duration": 0.1227272727272748,
                "tempo": 120.0
            },
            {
                "start_time": 24.761363636363637,
                "end_time": 24.88181818181818,
                "pitch": 55,
                "velocity": 25,
                "duration": 0.12045454545454248,
                "tempo": 120.0
            },
            {
                "start_time": 24.91590909090909,
                "end_time": 25.034090909090907,
                "pitch": 48,
                "velocity": 25,
                "duration": 0.11818181818181728,
                "tempo": 120.0
            },
            {
                "start_time": 25.068181818181817,
                "end_time": 25.186363636363634,
                "pitch": 55,
                "velocity": 25,
                "duration": 0.11818181818181728,
                "tempo": 120.0
            },
            {
                "start_time": 25.220454545454544,
                "end_time": 25.336363636363636,
                "pitch": 48,
                "velocity": 25,
                "duration": 0.11590909090909207,
                "tempo": 120.0
            },
            {
                "start_time": 25.370454545454542,
                "end_time": 25.488636363636363,
                "pitch": 55,
                "velocity": 25,
                "duration": 0.11818181818182083,
                "tempo": 120.0
            },
            {
                "start_time": 25.52272727272727,
                "end_time": 25.638636363636362,
                "pitch": 48,
                "velocity": 25,
                "duration": 0.11590909090909207,
                "tempo": 120.0
            },
            {
                "start_time": 25.672727272727272,
                "end_time": 25.788636363636364,
                "pitch": 55,
                "velocity": 25,
                "duration": 0.11590909090909207,
                "tempo": 120.0
            },
            {
                "start_time": 25.82272727272727,
                "end_time": 25.938636363636363,
                "pitch": 54,
                "velocity": 25,
                "duration": 0.11590909090909207,
                "tempo": 120.0
            },
            {
                "start_time": 25.972727272727273,
                "end_time": 26.08863636363636,
                "pitch": 54,
                "velocity": 25,
                "duration": 0.11590909090908852,
                "tempo": 120.0
            },
            {
                "start_time": 26.12272727272727,
                "end_time": 26.24090909090909,
                "pitch": 54,
                "velocity": 25,
                "duration": 0.11818181818181728,
                "tempo": 120.0
            },
            {
                "start_time": 26.275,
                "end_time": 26.39090909090909,
                "pitch": 52,
                "velocity": 25,
                "duration": 0.11590909090909207,
                "tempo": 120.0
            },
            {
                "start_time": 26.424999999999997,
                "end_time": 26.543181818181818,
                "pitch": 48,
                "velocity": 25,
                "duration": 0.11818181818182083,
                "tempo": 120.0
            },
            {
                "start_time": 26.577272727272724,
                "end_time": 26.695454545454545,
                "pitch": 55,
                "velocity": 25,
                "duration": 0.11818181818182083,
                "tempo": 120.0
            },
            {
                "start_time": 26.729545454545452,
                "end_time": 26.845454545454544,
                "pitch": 48,
                "velocity": 25,
                "duration": 0.11590909090909207,
                "tempo": 120.0
            },
            {
                "start_time": 26.879545454545454,
                "end_time": 26.99772727272727,
                "pitch": 55,
                "velocity": 25,
                "duration": 0.11818181818181728,
                "tempo": 120.0
            },
            {
                "start_time": 27.03181818181818,
                "end_time": 27.15,
                "pitch": 48,
                "velocity": 25,
                "duration": 0.11818181818181728,
                "tempo": 120.0
            },
            {
                "start_time": 27.18409090909091,
                "end_time": 27.299999999999997,
                "pitch": 55,
                "velocity": 25,
                "duration": 0.11590909090908852,
                "tempo": 120.0
            },
            {
                "start_time": 27.334090909090907,
                "end_time": 27.45,
                "pitch": 48,
                "velocity": 25,
                "duration": 0.11590909090909207,
                "tempo": 120.0
            },
            {
                "start_time": 27.48409090909091,
                "end_time": 27.599999999999998,
                "pitch": 55,
                "velocity": 25,
                "duration": 0.11590909090908852,
                "tempo": 120.0
            },
            {
                "start_time": 27.634090909090908,
                "end_time": 27.75,
                "pitch": 48,
                "velocity": 25,
                "duration": 0.11590909090909207,
                "tempo": 120.0
            },
            {
                "start_time": 27.784090909090907,
                "end_time": 27.9,
                "pitch": 55,
                "velocity": 25,
                "duration": 0.11590909090909207,
                "tempo": 120.0
            },
            {
                "start_time": 27.93409090909091,
                "end_time": 28.052272727272726,
                "pitch": 48,
                "velocity": 25,
                "duration": 0.11818181818181728,
                "tempo": 120.0
            },
            {
                "start_time": 28.086363636363636,
                "end_time": 28.204545454545453,
                "pitch": 55,
                "velocity": 25,
                "duration": 0.11818181818181728,
                "tempo": 120.0
            },
            {
                "start_time": 28.238636363636363,
                "end_time": 28.354545454545452,
                "pitch": 54,
                "velocity": 25,
                "duration": 0.11590909090908852,
                "tempo": 120.0
            },
            {
                "start_time": 28.388636363636362,
                "end_time": 28.50681818181818,
                "pitch": 54,
                "velocity": 25,
                "duration": 0.11818181818181728,
                "tempo": 120.0
            },
            {
                "start_time": 28.54090909090909,
                "end_time": 28.65681818181818,
                "pitch": 54,
                "velocity": 25,
                "duration": 0.11590909090909207,
                "tempo": 120.0
            },
            {
                "start_time": 28.690909090909088,
                "end_time": 28.80681818181818,
                "pitch": 52,
                "velocity": 25,
                "duration": 0.11590909090909207,
                "tempo": 120.0
            },
            {
                "start_time": 28.84090909090909,
                "end_time": 28.956818181818182,
                "pitch": 48,
                "velocity": 25,
                "duration": 0.11590909090909207,
                "tempo": 120.0
            },
            {
                "start_time": 28.99090909090909,
                "end_time": 29.10681818181818,
                "pitch": 55,
                "velocity": 25,
                "duration": 0.11590909090909207,
                "tempo": 120.0
            },
            {
                "start_time": 29.138636363636362,
                "end_time": 29.39772727272727,
                "pitch": 48,
                "velocity": 25,
                "duration": 0.25909090909090793,
                "tempo": 120.0
            },
            {
                "start_time": 29.429545454545455,
                "end_time": 29.688636363636363,
                "pitch": 48,
                "velocity": 25,
                "duration": 0.25909090909090793,
                "tempo": 120.0
            },
            {
                "start_time": 29.722727272727273,
                "end_time": 29.988636363636363,
                "pitch": 48,
                "velocity": 25,
                "duration": 0.26590909090909065,
                "tempo": 120.0
            },
            {
                "start_time": 30.02272727272727,
                "end_time": 30.138636363636362,
                "pitch": 48,
                "velocity": 25,
                "duration": 0.11590909090909207,
                "tempo": 120.0
            },
            {
                "start_time": 30.172727272727272,
                "end_time": 30.29090909090909,
                "pitch": 55,
                "velocity": 25,
                "duration": 0.11818181818181728,
                "tempo": 120.0
            },
            {
                "start_time": 30.32272727272727,
                "end_time": 30.593181818181815,
                "pitch": 48,
                "velocity": 25,
                "duration": 0.2704545454545446,
                "tempo": 120.0
            },
            {
                "start_time": 30.627272727272725,
                "end_time": 30.895454545454545,
                "pitch": 48,
                "velocity": 25,
                "duration": 0.2681818181818194,
                "tempo": 120.0
            },
            {
                "start_time": 30.929545454545455,
                "end_time": 31.2,
                "pitch": 48,
                "velocity": 25,
                "duration": 0.2704545454545446,
                "tempo": 120.0
            },
            {
                "start_time": 31.23181818181818,
                "end_time": 31.349999999999998,
                "pitch": 48,
                "velocity": 25,
                "duration": 0.11818181818181728,
                "tempo": 120.0
            },
            {
                "start_time": 31.384090909090908,
                "end_time": 31.502272727272725,
                "pitch": 55,
                "velocity": 25,
                "duration": 0.11818181818181728,
                "tempo": 120.0
            },
            {
                "start_time": 31.534090909090907,
                "end_time": 31.802272727272726,
                "pitch": 48,
                "velocity": 25,
                "duration": 0.2681818181818194,
                "tempo": 120.0
            },
            {
                "start_time": 31.834090909090907,
                "end_time": 32.10227272727273,
                "pitch": 48,
                "velocity": 25,
                "duration": 0.2681818181818194,
                "tempo": 120.0
            },
            {
                "start_time": 32.13636363636363,
                "end_time": 32.40909090909091,
                "pitch": 48,
                "velocity": 25,
                "duration": 0.2727272727272734,
                "tempo": 120.0
            },
            {
                "start_time": 32.44318181818182,
                "end_time": 32.56136363636364,
                "pitch": 48,
                "velocity": 25,
                "duration": 0.11818181818181728,
                "tempo": 120.0
            },
            {
                "start_time": 32.595454545454544,
                "end_time": 32.71363636363636,
                "pitch": 55,
                "velocity": 25,
                "duration": 0.11818181818181728,
                "tempo": 120.0
            },
            {
                "start_time": 32.74772727272727,
                "end_time": 33.013636363636365,
                "pitch": 48,
                "velocity": 25,
                "duration": 0.26590909090909776,
                "tempo": 120.0
            },
            {
                "start_time": 33.04772727272727,
                "end_time": 33.31363636363636,
                "pitch": 48,
                "velocity": 25,
                "duration": 0.26590909090909065,
                "tempo": 120.0
            },
            {
                "start_time": 33.34772727272727,
                "end_time": 33.61818181818182,
                "pitch": 48,
                "velocity": 25,
                "duration": 0.27045454545454817,
                "tempo": 120.0
            },
            {
                "start_time": 33.65,
                "end_time": 33.768181818181816,
                "pitch": 63,
                "velocity": 25,
                "duration": 0.11818181818181728,
                "tempo": 120.0
            },
            {
                "start_time": 33.80227272727272,
                "end_time": 33.92045454545455,
                "pitch": 70,
                "velocity": 25,
                "duration": 0.11818181818182438,
                "tempo": 120.0
            },
            {
                "start_time": 33.95227272727273,
                "end_time": 34.06818181818181,
                "pitch": 63,
                "velocity": 25,
                "duration": 0.11590909090908497,
                "tempo": 120.0
            },
            {
                "start_time": 34.10227272727273,
                "end_time": 34.215909090909086,
                "pitch": 70,
                "velocity": 25,
                "duration": 0.11363636363635976,
                "tempo": 120.0
            },
            {
                "start_time": 34.25,
                "end_time": 34.36590909090909,
                "pitch": 63,
                "velocity": 25,
                "duration": 0.11590909090909207,
                "tempo": 120.0
            },
            {
                "start_time": 34.39772727272727,
                "end_time": 34.513636363636365,
                "pitch": 70,
                "velocity": 25,
                "duration": 0.11590909090909207,
                "tempo": 120.0
            },
            {
                "start_time": 34.54772727272727,
                "end_time": 34.66590909090909,
                "pitch": 63,
                "velocity": 25,
                "duration": 0.11818181818181728,
                "tempo": 120.0
            },
            {
                "start_time": 34.699999999999996,
                "end_time": 34.81818181818181,
                "pitch": 70,
                "velocity": 25,
                "duration": 0.11818181818181728,
                "tempo": 120.0
            },
            {
                "start_time": 34.85,
                "end_time": 34.96818181818182,
                "pitch": 63,
                "velocity": 25,
                "duration": 0.11818181818181728,
                "tempo": 120.0
            },
            {
                "start_time": 35.002272727272725,
                "end_time": 35.12045454545454,
                "pitch": 70,
                "velocity": 25,
                "duration": 0.11818181818181728,
                "tempo": 120.0
            },
            {
                "start_time": 35.154545454545456,
                "end_time": 35.27045454545454,
                "pitch": 63,
                "velocity": 25,
                "duration": 0.11590909090908497,
                "tempo": 120.0
            },
            {
                "start_time": 35.304545454545455,
                "end_time": 35.42045454545455,
                "pitch": 70,
                "velocity": 25,
                "duration": 0.11590909090909207,
                "tempo": 120.0
            },
            {
                "start_time": 35.45454545454545,
                "end_time": 35.570454545454545,
                "pitch": 63,
                "velocity": 25,
                "duration": 0.11590909090909207,
                "tempo": 120.0
            },
            {
                "start_time": 35.60454545454545,
                "end_time": 35.720454545454544,
                "pitch": 70,
                "velocity": 25,
                "duration": 0.11590909090909207,
                "tempo": 120.0
            },
            {
                "start_time": 35.75454545454545,
                "end_time": 35.87272727272727,
                "pitch": 63,
                "velocity": 25,
                "duration": 0.11818181818181728,
                "tempo": 120.0
            },
            {
                "start_time": 35.904545454545456,
                "end_time": 36.02272727272727,
                "pitch": 70,
                "velocity": 25,
                "duration": 0.11818181818181728,
                "tempo": 120.0
            },
            {
                "start_time": 36.05681818181818,
                "end_time": 36.175,
                "pitch": 59,
                "velocity": 25,
                "duration": 0.11818181818181728,
                "tempo": 120.0
            },
            {
                "start_time": 36.20909090909091,
                "end_time": 36.32727272727273,
                "pitch": 66,
                "velocity": 25,
                "duration": 0.11818181818181728,
                "tempo": 120.0
            },
            {
                "start_time": 36.35909090909091,
                "end_time": 36.47727272727273,
                "pitch": 59,
                "velocity": 25,
                "duration": 0.11818181818181728,
                "tempo": 120.0
            },
            {
                "start_time": 36.51136363636363,
                "end_time": 36.62954545454545,
                "pitch": 66,
                "velocity": 25,
                "duration": 0.11818181818181728,
                "tempo": 120.0
            },
            {
                "start_time": 36.663636363636364,
                "end_time": 36.78181818181818,
                "pitch": 59,
                "velocity": 25,
                "duration": 0.11818181818181728,
                "tempo": 120.0
            },
            {
                "start_time": 36.81363636363636,
                "end_time": 36.93181818181818,
                "pitch": 66,
                "velocity": 25,
                "duration": 0.11818181818181728,
                "tempo": 120.0
            },
            {
                "start_time": 36.96818181818182,
                "end_time": 37.08863636363636,
                "pitch": 59,
                "velocity": 25,
                "duration": 0.12045454545454248,
                "tempo": 120.0
            },
            {
                "start_time": 37.12272727272727,
                "end_time": 37.24545454545454,
                "pitch": 66,
                "velocity": 25,
                "duration": 0.1227272727272748,
                "tempo": 120.0
            },
            {
                "start_time": 37.279545454545456,
                "end_time": 37.4,
                "pitch": 59,
                "velocity": 25,
                "duration": 0.12045454545454248,
                "tempo": 120.0
            },
            {
                "start_time": 37.43636363636364,
                "end_time": 37.55681818181818,
                "pitch": 66,
                "velocity": 25,
                "duration": 0.12045454545454248,
                "tempo": 120.0
            },
            {
                "start_time": 37.590909090909086,
                "end_time": 37.70909090909091,
                "pitch": 59,
                "velocity": 25,
                "duration": 0.11818181818182438,
                "tempo": 120.0
            },
            {
                "start_time": 37.74318181818182,
                "end_time": 37.861363636363635,
                "pitch": 66,
                "velocity": 25,
                "duration": 0.11818181818181728,
                "tempo": 120.0
            },
            {
                "start_time": 37.893181818181816,
                "end_time": 38.01136363636363,
                "pitch": 59,
                "velocity": 25,
                "duration": 0.11818181818181728,
                "tempo": 120.0
            },
            {
                "start_time": 38.04545454545455,
                "end_time": 38.163636363636364,
                "pitch": 66,
                "velocity": 25,
                "duration": 0.11818181818181728,
                "tempo": 120.0
            },
            {
                "start_time": 38.19772727272727,
                "end_time": 38.31590909090909,
                "pitch": 59,
                "velocity": 25,
                "duration": 0.11818181818181728,
                "tempo": 120.0
            },
            {
                "start_time": 38.34772727272727,
                "end_time": 38.465909090909086,
                "pitch": 66,
                "velocity": 25,
                "duration": 0.11818181818181728,
                "tempo": 120.0
            },
            {
                "start_time": 38.5,
                "end_time": 38.61818181818182,
                "pitch": 55,
                "velocity": 25,
                "duration": 0.11818181818181728,
                "tempo": 120.0
            },
            {
                "start_time": 38.652272727272724,
                "end_time": 38.77045454545454,
                "pitch": 62,
                "velocity": 25,
                "duration": 0.11818181818181728,
                "tempo": 120.0
            },
            {
                "start_time": 38.80227272727272,
                "end_time": 38.918181818181814,
                "pitch": 55,
                "velocity": 25,
                "duration": 0.11590909090909207,
                "tempo": 120.0
            },
            {
                "start_time": 38.949999999999996,
                "end_time": 39.06590909090909,
                "pitch": 62,
                "velocity": 25,
                "duration": 0.11590909090909207,
                "tempo": 120.0
            },
            {
                "start_time": 39.1,
                "end_time": 39.215909090909086,
                "pitch": 55,
                "velocity": 25,
                "duration": 0.11590909090908497,
                "tempo": 120.0
            },
            {
                "start_time": 39.24772727272727,
                "end_time": 39.36363636363636,
                "pitch": 62,
                "velocity": 25,
                "duration": 0.11590909090909207,
                "tempo": 120.0
            },
            {
                "start_time": 39.39772727272727,
                "end_time": 39.51590909090909,
                "pitch": 55,
                "velocity": 25,
                "duration": 0.11818181818181728,
                "tempo": 120.0
            },
            {
                "start_time": 39.54772727272727,
                "end_time": 39.66590909090909,
                "pitch": 62,
                "velocity": 25,
                "duration": 0.11818181818181728,
                "tempo": 120.0
            },
            {
                "start_time": 39.699999999999996,
                "end_time": 39.81818181818181,
                "pitch": 55,
                "velocity": 25,
                "duration": 0.11818181818181728,
                "tempo": 120.0
            },
            {
                "start_time": 39.85227272727273,
                "end_time": 39.970454545454544,
                "pitch": 62,
                "velocity": 25,
                "duration": 0.11818181818181728,
                "tempo": 120.0
            },
            {
                "start_time": 40.00454545454545,
                "end_time": 40.12272727272727,
                "pitch": 55,
                "velocity": 25,
                "duration": 0.11818181818181728,
                "tempo": 120.0
            },
            {
                "start_time": 40.15681818181818,
                "end_time": 40.275,
                "pitch": 62,
                "velocity": 25,
                "duration": 0.11818181818181728,
                "tempo": 120.0
            },
            {
                "start_time": 40.309090909090905,
                "end_time": 40.429545454545455,
                "pitch": 55,
                "velocity": 25,
                "duration": 0.12045454545454959,
                "tempo": 120.0
            },
            {
                "start_time": 40.46363636363636,
                "end_time": 40.58181818181818,
                "pitch": 62,
                "velocity": 25,
                "duration": 0.11818181818181728,
                "tempo": 120.0
            },
            {
                "start_time": 40.61363636363636,
                "end_time": 40.72727272727273,
                "pitch": 55,
                "velocity": 25,
                "duration": 0.11363636363636687,
                "tempo": 120.0
            },
            {
                "start_time": 40.75909090909091,
                "end_time": 40.87272727272727,
                "pitch": 62,
                "velocity": 25,
                "duration": 0.11363636363635976,
                "tempo": 120.0
            },
            {
                "start_time": 40.904545454545456,
                "end_time": 41.018181818181816,
                "pitch": 50,
                "velocity": 25,
                "duration": 0.11363636363635976,
                "tempo": 120.0
            },
            {
                "start_time": 41.05,
                "end_time": 41.163636363636364,
                "pitch": 50,
                "velocity": 25,
                "duration": 0.11363636363636687,
                "tempo": 120.0
            },
            {
                "start_time": 41.19772727272727,
                "end_time": 41.320454545454545,
                "pitch": 50,
                "velocity": 25,
                "duration": 0.1227272727272748,
                "tempo": 120.0
            },
            {
                "start_time": 41.35454545454545,
                "end_time": 41.475,
                "pitch": 50,
                "velocity": 25,
                "duration": 0.12045454545454959,
                "tempo": 120.0
            },
            {
                "start_time": 41.51136363636363,
                "end_time": 41.63181818181818,
                "pitch": 50,
                "velocity": 25,
                "duration": 0.12045454545454959,
                "tempo": 120.0
            },
            {
                "start_time": 41.66590909090909,
                "end_time": 41.78636363636363,
                "pitch": 50,
                "velocity": 25,
                "duration": 0.12045454545454248,
                "tempo": 120.0
            },
            {
                "start_time": 41.820454545454545,
                "end_time": 41.93181818181818,
                "pitch": 50,
                "velocity": 25,
                "duration": 0.11136363636363455,
                "tempo": 120.0
            },
            {
                "start_time": 41.965909090909086,
                "end_time": 42.07954545454545,
                "pitch": 50,
                "velocity": 25,
                "duration": 0.11363636363636687,
                "tempo": 120.0
            },
            {
                "start_time": 42.111363636363635,
                "end_time": 42.225,
                "pitch": 55,
                "velocity": 25,
                "duration": 0.11363636363636687,
                "tempo": 120.0
            },
            {
                "start_time": 42.25681818181818,
                "end_time": 42.37045454545454,
                "pitch": 55,
                "velocity": 25,
                "duration": 0.11363636363635976,
                "tempo": 120.0
            },
            {
                "start_time": 42.40454545454545,
                "end_time": 42.525,
                "pitch": 55,
                "velocity": 25,
                "duration": 0.12045454545454959,
                "tempo": 120.0
            },
            {
                "start_time": 42.56136363636364,
                "end_time": 42.68181818181818,
                "pitch": 55,
                "velocity": 25,
                "duration": 0.12045454545454248,
                "tempo": 120.0
            },
            {
                "start_time": 42.715909090909086,
                "end_time": 42.83863636363636,
                "pitch": 55,
                "velocity": 25,
                "duration": 0.1227272727272748,
                "tempo": 120.0
            },
            {
                "start_time": 42.87272727272727,
                "end_time": 42.99545454545454,
                "pitch": 55,
                "velocity": 25,
                "duration": 0.1227272727272748,
                "tempo": 120.0
            },
            {
                "start_time": 43.027272727272724,
                "end_time": 43.14545454545454,
                "pitch": 55,
                "velocity": 25,
                "duration": 0.11818181818181728,
                "tempo": 120.0
            },
            {
                "start_time": 43.17727272727272,
                "end_time": 43.29545454545455,
                "pitch": 55,
                "velocity": 25,
                "duration": 0.11818181818182438,
                "tempo": 120.0
            },
            {
                "start_time": 43.32727272727273,
                "end_time": 43.445454545454545,
                "pitch": 48,
                "velocity": 25,
                "duration": 0.11818181818181728,
                "tempo": 120.0
            },
            {
                "start_time": 43.47727272727273,
                "end_time": 43.595454545454544,
                "pitch": 55,
                "velocity": 25,
                "duration": 0.11818181818181728,
                "tempo": 120.0
            },
            {
                "start_time": 43.627272727272725,
                "end_time": 43.74545454545454,
                "pitch": 48,
                "velocity": 25,
                "duration": 0.11818181818181728,
                "tempo": 120.0
            },
            {
                "start_time": 43.77954545454545,
                "end_time": 43.89772727272727,
                "pitch": 55,
                "velocity": 25,
                "duration": 0.11818181818182438,
                "tempo": 120.0
            },
            {
                "start_time": 43.93181818181818,
                "end_time": 44.05,
                "pitch": 48,
                "velocity": 25,
                "duration": 0.11818181818181728,
                "tempo": 120.0
            },
            {
                "start_time": 44.08181818181818,
                "end_time": 44.199999999999996,
                "pitch": 55,
                "velocity": 25,
                "duration": 0.11818181818181728,
                "tempo": 120.0
            },
            {
                "start_time": 44.23409090909091,
                "end_time": 44.35227272727273,
                "pitch": 48,
                "velocity": 25,
                "duration": 0.11818181818181728,
                "tempo": 120.0
            },
            {
                "start_time": 44.38636363636363,
                "end_time": 44.50454545454545,
                "pitch": 55,
                "velocity": 25,
                "duration": 0.11818181818181728,
                "tempo": 120.0
            }
        ]
    }
}