{
    "track_id": "Captain Silver (FM) - 03 - Town of Barren _ Pirate Ship",
    "mood": "angry",
    "instruments": {
        "Clarinet": [
            {
                "start_time": 10.65,
                "end_time": 10.754545454545454,
                "pitch": 79,
                "velocity": 51,
                "duration": 0.10454545454545361,
                "tempo": 120.0
            },
            {
                "start_time": 10.770454545454545,
                "end_time": 10.86590909090909,
                "pitch": 75,
                "velocity": 51,
                "duration": 0.09545454545454568,
                "tempo": 120.0
            },
            {
                "start_time": 10.9,
                "end_time": 10.995454545454544,
                "pitch": 84,
                "velocity": 51,
                "duration": 0.0954545454545439,
                "tempo": 120.0
            },
            {
                "start_time": 11.011363636363637,
                "end_time": 11.10681818181818,
                "pitch": 79,
                "velocity": 51,
                "duration": 0.0954545454545439,
                "tempo": 120.0
            },
            {
                "start_time": 11.122727272727273,
                "end_time": 11.220454545454546,
                "pitch": 75,
                "velocity": 51,
                "duration": 0.09772727272727266,
                "tempo": 120.0
            },
            {
                "start_time": 11.236363636363636,
                "end_time": 11.454545454545453,
                "pitch": 63,
                "velocity": 51,
                "duration": 0.21818181818181692,
                "tempo": 120.0
            },
            {
                "start_time": 11.488636363636363,
                "end_time": 11.588636363636363,
                "pitch": 84,
                "velocity": 51,
                "duration": 0.09999999999999964,
                "tempo": 120.0
            },
            {
                "start_time": 11.604545454545454,
                "end_time": 11.706818181818182,
                "pitch": 79,
                "velocity": 51,
                "duration": 0.1022727272727284,
                "tempo": 120.0
            },
            {
                "start_time": 11.722727272727273,
                "end_time": 11.825,
                "pitch": 75,
                "velocity": 51,
                "duration": 0.10227272727272663,
                "tempo": 120.0
            },
            {
                "start_time": 11.84090909090909,
                "end_time": 11.94090909090909,
                "pitch": 84,
                "velocity": 51,
                "duration": 0.09999999999999964,
                "tempo": 120.0
            },
            {
                "start_time": 11.959090909090909,
                "end_time": 12.059090909090909,
                "pitch": 79,
                "velocity": 51,
                "duration": 0.09999999999999964,
                "tempo": 120.0
            },
            {
                "start_time": 12.093181818181817,
                "end_time": 12.193181818181818,
                "pitch": 75,
                "velocity": 51,
                "duration": 0.10000000000000142,
                "tempo": 120.0
            },
            {
                "start_time": 12.209090909090909,
                "end_time": 12.427272727272726,
                "pitch": 63,
                "velocity": 51,
                "duration": 0.21818181818181692,
                "tempo": 120.0
            },
            {
                "start_time": 12.443181818181818,
                "end_time": 13.288636363636362,
                "pitch": 60,
                "velocity": 51,
                "duration": 0.8454545454545439,
                "tempo": 120.0
            },
            {
                "start_time": 14.134090909090908,
                "end_time": 14.35681818181818,
                "pitch": 75,
                "velocity": 51,
                "duration": 0.22272727272727266,
                "tempo": 120.0
            },
            {
                "start_time": 14.372727272727271,
                "end_time": 14.95681818181818,
                "pitch": 77,
                "velocity": 51,
                "duration": 0.584090909090909,
                "tempo": 120.0
            },
            {
                "start_time": 14.972727272727273,
                "end_time": 15.072727272727272,
                "pitch": 76,
                "velocity": 51,
                "duration": 0.09999999999999964,
                "tempo": 120.0
            },
            {
                "start_time": 15.104545454545454,
                "end_time": 15.202272727272726,
                "pitch": 76,
                "velocity": 51,
                "duration": 0.09772727272727266,
                "tempo": 120.0
            },
            {
                "start_time": 15.220454545454544,
                "end_time": 15.318181818181817,
                "pitch": 73,
                "velocity": 51,
                "duration": 0.09772727272727266,
                "tempo": 120.0
            },
            {
                "start_time": 15.35,
                "end_time": 15.918181818181818,
                "pitch": 73,
                "velocity": 51,
                "duration": 0.5681818181818183,
                "tempo": 120.0
            },
            {
                "start_time": 15.95,
                "end_time": 16.03409090909091,
                "pitch": 76,
                "velocity": 51,
                "duration": 0.08409090909091077,
                "tempo": 120.0
            },
            {
                "start_time": 16.052272727272726,
                "end_time": 16.152272727272727,
                "pitch": 76,
                "velocity": 51,
                "duration": 0.10000000000000142,
                "tempo": 120.0
            },
            {
                "start_time": 16.170454545454543,
                "end_time": 16.270454545454545,
                "pitch": 73,
                "velocity": 51,
                "duration": 0.10000000000000142,
                "tempo": 120.0
            },
            {
                "start_time": 16.304545454545455,
                "end_time": 17.252272727272725,
                "pitch": 73,
                "velocity": 51,
                "duration": 0.9477272727272705,
                "tempo": 120.0
            },
            {
                "start_time": 18.23181818181818,
                "end_time": 18.820454545454545,
                "pitch": 73,
                "velocity": 51,
                "duration": 0.5886363636363647,
                "tempo": 120.0
            },
            {
                "start_time": 18.836363636363636,
                "end_time": 18.938636363636363,
                "pitch": 76,
                "velocity": 51,
                "duration": 0.10227272727272663,
                "tempo": 120.0
            },
            {
                "start_time": 18.954545454545453,
                "end_time": 19.054545454545455,
                "pitch": 76,
                "velocity": 51,
                "duration": 0.10000000000000142,
                "tempo": 120.0
            },
            {
                "start_time": 19.07272727272727,
                "end_time": 19.172727272727272,
                "pitch": 73,
                "velocity": 51,
                "duration": 0.10000000000000142,
                "tempo": 120.0
            },
            {
                "start_time": 19.19090909090909,
                "end_time": 19.784090909090907,
                "pitch": 73,
                "velocity": 51,
                "duration": 0.5931818181818151,
                "tempo": 120.0
            },
            {
                "start_time": 19.8,
                "end_time": 19.902272727272727,
                "pitch": 76,
                "velocity": 51,
                "duration": 0.10227272727272663,
                "tempo": 120.0
            },
            {
                "start_time": 19.936363636363634,
                "end_time": 20.034090909090907,
                "pitch": 76,
                "velocity": 51,
                "duration": 0.09772727272727266,
                "tempo": 120.0
            },
            {
                "start_time": 20.05,
                "end_time": 20.15,
                "pitch": 73,
                "velocity": 51,
                "duration": 0.09999999999999787,
                "tempo": 120.0
            },
            {
                "start_time": 20.16590909090909,
                "end_time": 21.05,
                "pitch": 73,
                "velocity": 51,
                "duration": 0.8840909090909115,
                "tempo": 120.0
            }
        ],
        "Acoustic Grand Piano": [
            {
                "start_time": 0.0,
                "end_time": 0.1659090909090909,
                "pitch": 36,
                "velocity": 51,
                "duration": 0.1659090909090909,
                "tempo": 120.0
            },
            {
                "start_time": 0.18181818181818182,
                "end_time": 0.2818181818181818,
                "pitch": 48,
                "velocity": 51,
                "duration": 0.09999999999999998,
                "tempo": 120.0
            },
            {
                "start_time": 0.3,
                "end_time": 0.39999999999999997,
                "pitch": 36,
                "velocity": 51,
                "duration": 0.09999999999999998,
                "tempo": 120.0
            },
            {
                "start_time": 0.4159090909090909,
                "end_time": 0.6363636363636364,
                "pitch": 36,
                "velocity": 51,
                "duration": 0.22045454545454546,
                "tempo": 120.0
            },
            {
                "start_time": 0.6681818181818181,
                "end_time": 0.8909090909090909,
                "pitch": 48,
                "velocity": 51,
                "duration": 0.22272727272727277,
                "tempo": 120.0
            },
            {
                "start_time": 0.9090909090909091,
                "end_time": 1.1295454545454544,
                "pitch": 36,
                "velocity": 51,
                "duration": 0.22045454545454535,
                "tempo": 120.0
            },
            {
                "start_time": 1.1477272727272727,
                "end_time": 1.2454545454545454,
                "pitch": 48,
                "velocity": 51,
                "duration": 0.09772727272727266,
                "tempo": 120.0
            },
            {
                "start_time": 1.2772727272727271,
                "end_time": 1.3772727272727272,
                "pitch": 36,
                "velocity": 51,
                "duration": 0.10000000000000009,
                "tempo": 120.0
            },
            {
                "start_time": 1.393181818181818,
                "end_time": 1.6068181818181817,
                "pitch": 36,
                "velocity": 51,
                "duration": 0.21363636363636362,
                "tempo": 120.0
            },
            {
                "start_time": 1.6227272727272726,
                "end_time": 1.8386363636363636,
                "pitch": 48,
                "velocity": 51,
                "duration": 0.21590909090909105,
                "tempo": 120.0
            },
            {
                "start_time": 1.8727272727272726,
                "end_time": 2.0886363636363634,
                "pitch": 36,
                "velocity": 51,
                "duration": 0.21590909090909083,
                "tempo": 120.0
            },
            {
                "start_time": 2.106818181818182,
                "end_time": 2.2045454545454546,
                "pitch": 48,
                "velocity": 51,
                "duration": 0.09772727272727266,
                "tempo": 120.0
            },
            {
                "start_time": 2.2204545454545452,
                "end_time": 2.565909090909091,
                "pitch": 43,
                "velocity": 51,
                "duration": 0.3454545454545457,
                "tempo": 120.0
            },
            {
                "start_time": 2.5818181818181816,
                "end_time": 2.7977272727272724,
                "pitch": 46,
                "velocity": 51,
                "duration": 0.21590909090909083,
                "tempo": 120.0
            },
            {
                "start_time": 2.815909090909091,
                "end_time": 3.0318181818181817,
                "pitch": 48,
                "velocity": 51,
                "duration": 0.21590909090909083,
                "tempo": 120.0
            },
            {
                "start_time": 3.065909090909091,
                "end_time": 3.168181818181818,
                "pitch": 48,
                "velocity": 51,
                "duration": 0.10227272727272707,
                "tempo": 120.0
            },
            {
                "start_time": 3.186363636363636,
                "end_time": 3.5340909090909087,
                "pitch": 43,
                "velocity": 51,
                "duration": 0.34772727272727266,
                "tempo": 120.0
            },
            {
                "start_time": 3.55,
                "end_time": 3.775,
                "pitch": 46,
                "velocity": 51,
                "duration": 0.2250000000000001,
                "tempo": 120.0
            },
            {
                "start_time": 3.7909090909090906,
                "end_time": 4.0,
                "pitch": 48,
                "velocity": 51,
                "duration": 0.20909090909090944,
                "tempo": 120.0
            },
            {
                "start_time": 4.015909090909091,
                "end_time": 4.118181818181818,
                "pitch": 44,
                "velocity": 51,
                "duration": 0.10227272727272751,
                "tempo": 120.0
            },
            {
                "start_time": 4.136363636363636,
                "end_time": 4.5,
                "pitch": 43,
                "velocity": 51,
                "duration": 0.3636363636363642,
                "tempo": 120.0
            },
            {
                "start_time": 4.515909090909091,
                "end_time": 4.725,
                "pitch": 46,
                "velocity": 51,
                "duration": 0.209090909090909,
                "tempo": 120.0
            },
            {
                "start_time": 4.74090909090909,
                "end_time": 4.934090909090909,
                "pitch": 48,
                "velocity": 51,
                "duration": 0.19318181818181834,
                "tempo": 120.0
            },
            {
                "start_time": 4.965909090909091,
                "end_time": 5.084090909090909,
                "pitch": 48,
                "velocity": 51,
                "duration": 0.11818181818181817,
                "tempo": 120.0
            },
            {
                "start_time": 5.1,
                "end_time": 5.418181818181818,
                "pitch": 43,
                "velocity": 51,
                "duration": 0.31818181818181834,
                "tempo": 120.0
            },
            {
                "start_time": 5.4363636363636365,
                "end_time": 5.6886363636363635,
                "pitch": 46,
                "velocity": 51,
                "duration": 0.252272727272727,
                "tempo": 120.0
            },
            {
                "start_time": 5.704545454545454,
                "end_time": 5.922727272727273,
                "pitch": 36,
                "velocity": 51,
                "duration": 0.2181818181818187,
                "tempo": 120.0
            },
            {
                "start_time": 5.9409090909090905,
                "end_time": 6.040909090909091,
                "pitch": 48,
                "velocity": 51,
                "duration": 0.10000000000000053,
                "tempo": 120.0
            },
            {
                "start_time": 6.072727272727272,
                "end_time": 6.172727272727273,
                "pitch": 36,
                "velocity": 51,
                "duration": 0.10000000000000053,
                "tempo": 120.0
            },
            {
                "start_time": 6.1909090909090905,
                "end_time": 6.406818181818181,
                "pitch": 36,
                "velocity": 51,
                "duration": 0.21590909090909083,
                "tempo": 120.0
            },
            {
                "start_time": 6.422727272727273,
                "end_time": 6.6454545454545455,
                "pitch": 48,
                "velocity": 51,
                "duration": 0.22272727272727266,
                "tempo": 120.0
            },
            {
                "start_time": 6.679545454545454,
                "end_time": 6.902272727272727,
                "pitch": 36,
                "velocity": 51,
                "duration": 0.22272727272727355,
                "tempo": 120.0
            },
            {
                "start_time": 6.918181818181818,
                "end_time": 7.015909090909091,
                "pitch": 48,
                "velocity": 51,
                "duration": 0.09772727272727266,
                "tempo": 120.0
            },
            {
                "start_time": 7.031818181818181,
                "end_time": 7.377272727272727,
                "pitch": 43,
                "velocity": 51,
                "duration": 0.3454545454545457,
                "tempo": 120.0
            },
            {
                "start_time": 7.393181818181818,
                "end_time": 7.611363636363636,
                "pitch": 46,
                "velocity": 51,
                "duration": 0.2181818181818187,
                "tempo": 120.0
            },
            {
                "start_time": 7.629545454545454,
                "end_time": 7.847727272727273,
                "pitch": 48,
                "velocity": 51,
                "duration": 0.2181818181818187,
                "tempo": 120.0
            },
            {
                "start_time": 7.881818181818182,
                "end_time": 7.986363636363636,
                "pitch": 48,
                "velocity": 51,
                "duration": 0.1045454545454545,
                "tempo": 120.0
            },
            {
                "start_time": 8.002272727272727,
                "end_time": 8.35,
                "pitch": 43,
                "velocity": 51,
                "duration": 0.34772727272727266,
                "tempo": 120.0
            },
            {
                "start_time": 8.36590909090909,
                "end_time": 8.59090909090909,
                "pitch": 46,
                "velocity": 51,
                "duration": 0.22499999999999964,
                "tempo": 120.0
            },
            {
                "start_time": 8.60681818181818,
                "end_time": 8.815909090909091,
                "pitch": 48,
                "velocity": 51,
                "duration": 0.20909090909091077,
                "tempo": 120.0
            },
            {
                "start_time": 8.831818181818182,
                "end_time": 8.934090909090909,
                "pitch": 44,
                "velocity": 51,
                "duration": 0.10227272727272663,
                "tempo": 120.0
            },
            {
                "start_time": 8.952272727272726,
                "end_time": 9.31590909090909,
                "pitch": 43,
                "velocity": 51,
                "duration": 0.3636363636363633,
                "tempo": 120.0
            },
            {
                "start_time": 9.334090909090909,
                "end_time": 9.552272727272728,
                "pitch": 46,
                "velocity": 51,
                "duration": 0.2181818181818187,
                "tempo": 120.0
            },
            {
                "start_time": 9.570454545454545,
                "end_time": 9.804545454545455,
                "pitch": 48,
                "velocity": 51,
                "duration": 0.23409090909090935,
                "tempo": 120.0
            },
            {
                "start_time": 9.820454545454545,
                "end_time": 9.915909090909091,
                "pitch": 48,
                "velocity": 51,
                "duration": 0.09545454545454568,
                "tempo": 120.0
            },
            {
                "start_time": 9.931818181818182,
                "end_time": 10.252272727272727,
                "pitch": 43,
                "velocity": 51,
                "duration": 0.3204545454545453,
                "tempo": 120.0
            },
            {
                "start_time": 10.286363636363635,
                "end_time": 10.511363636363637,
                "pitch": 46,
                "velocity": 51,
                "duration": 0.22500000000000142,
                "tempo": 120.0
            },
            {
                "start_time": 10.527272727272727,
                "end_time": 10.631818181818181,
                "pitch": 44,
                "velocity": 51,
                "duration": 0.10454545454545361,
                "tempo": 120.0
            },
            {
                "start_time": 10.65,
                "end_time": 10.754545454545454,
                "pitch": 48,
                "velocity": 51,
                "duration": 0.10454545454545361,
                "tempo": 120.0
            },
            {
                "start_time": 10.770454545454545,
                "end_time": 10.86590909090909,
                "pitch": 44,
                "velocity": 51,
                "duration": 0.09545454545454568,
                "tempo": 120.0
            },
            {
                "start_time": 10.9,
                "end_time": 10.995454545454544,
                "pitch": 48,
                "velocity": 51,
                "duration": 0.0954545454545439,
                "tempo": 120.0
            },
            {
                "start_time": 11.011363636363637,
                "end_time": 11.10681818181818,
                "pitch": 44,
                "velocity": 51,
                "duration": 0.0954545454545439,
                "tempo": 120.0
            },
            {
                "start_time": 11.122727272727273,
                "end_time": 11.220454545454546,
                "pitch": 48,
                "velocity": 51,
                "duration": 0.09772727272727266,
                "tempo": 120.0
            },
            {
                "start_time": 11.236363636363636,
                "end_time": 11.336363636363636,
                "pitch": 44,
                "velocity": 51,
                "duration": 0.09999999999999964,
                "tempo": 120.0
            },
            {
                "start_time": 11.354545454545454,
                "end_time": 11.454545454545453,
                "pitch": 48,
                "velocity": 51,
                "duration": 0.09999999999999964,
                "tempo": 120.0
            },
            {
                "start_time": 11.488636363636363,
                "end_time": 11.588636363636363,
                "pitch": 46,
                "velocity": 51,
                "duration": 0.09999999999999964,
                "tempo": 120.0
            },
            {
                "start_time": 11.604545454545454,
                "end_time": 11.706818181818182,
                "pitch": 50,
                "velocity": 51,
                "duration": 0.1022727272727284,
                "tempo": 120.0
            },
            {
                "start_time": 11.722727272727273,
                "end_time": 11.825,
                "pitch": 46,
                "velocity": 51,
                "duration": 0.10227272727272663,
                "tempo": 120.0
            },
            {
                "start_time": 11.84090909090909,
                "end_time": 11.94090909090909,
                "pitch": 50,
                "velocity": 51,
                "duration": 0.09999999999999964,
                "tempo": 120.0
            },
            {
                "start_time": 11.959090909090909,
                "end_time": 12.059090909090909,
                "pitch": 46,
                "velocity": 51,
                "duration": 0.09999999999999964,
                "tempo": 120.0
            },
            {
                "start_time": 12.093181818181817,
                "end_time": 12.193181818181818,
                "pitch": 50,
                "velocity": 51,
                "duration": 0.10000000000000142,
                "tempo": 120.0
            },
            {
                "start_time": 12.209090909090909,
                "end_time": 12.309090909090909,
                "pitch": 46,
                "velocity": 51,
                "duration": 0.09999999999999964,
                "tempo": 120.0
            },
            {
                "start_time": 12.327272727272726,
                "end_time": 12.427272727272726,
                "pitch": 50,
                "velocity": 51,
                "duration": 0.09999999999999964,
                "tempo": 120.0
            },
            {
                "start_time": 12.443181818181818,
                "end_time": 12.659090909090908,
                "pitch": 48,
                "velocity": 51,
                "duration": 0.21590909090908994,
                "tempo": 120.0
            },
            {
                "start_time": 12.693181818181818,
                "end_time": 12.906818181818181,
                "pitch": 48,
                "velocity": 51,
                "duration": 0.21363636363636296,
                "tempo": 120.0
            },
            {
                "start_time": 12.922727272727272,
                "end_time": 13.136363636363635,
                "pitch": 48,
                "velocity": 51,
                "duration": 0.21363636363636296,
                "tempo": 120.0
            },
            {
                "start_time": 13.152272727272727,
                "end_time": 13.39090909090909,
                "pitch": 48,
                "velocity": 51,
                "duration": 0.2386363636363633,
                "tempo": 120.0
            },
            {
                "start_time": 13.409090909090908,
                "end_time": 13.629545454545454,
                "pitch": 48,
                "velocity": 51,
                "duration": 0.22045454545454568,
                "tempo": 120.0
            },
            {
                "start_time": 13.647727272727272,
                "end_time": 13.86590909090909,
                "pitch": 48,
                "velocity": 51,
                "duration": 0.2181818181818187,
                "tempo": 120.0
            },
            {
                "start_time": 13.899999999999999,
                "end_time": 14.118181818181817,
                "pitch": 48,
                "velocity": 51,
                "duration": 0.2181818181818187,
                "tempo": 120.0
            },
            {
                "start_time": 14.134090909090908,
                "end_time": 14.35681818181818,
                "pitch": 48,
                "velocity": 51,
                "duration": 0.22272727272727266,
                "tempo": 120.0
            },
            {
                "start_time": 14.372727272727271,
                "end_time": 14.477272727272727,
                "pitch": 43,
                "velocity": 51,
                "duration": 0.10454545454545539,
                "tempo": 120.0
            },
            {
                "start_time": 14.511363636363635,
                "end_time": 14.613636363636363,
                "pitch": 55,
                "velocity": 51,
                "duration": 0.1022727272727284,
                "tempo": 120.0
            },
            {
                "start_time": 14.629545454545454,
                "end_time": 14.727272727272727,
                "pitch": 55,
                "velocity": 51,
                "duration": 0.09772727272727266,
                "tempo": 120.0
            },
            {
                "start_time": 14.743181818181817,
                "end_time": 14.859090909090908,
                "pitch": 55,
                "velocity": 51,
                "duration": 0.1159090909090903,
                "tempo": 120.0
            },
            {
                "start_time": 14.859090909090908,
                "end_time": 14.95681818181818,
                "pitch": 43,
                "velocity": 51,
                "duration": 0.09772727272727266,
                "tempo": 120.0
            },
            {
                "start_time": 14.972727272727273,
                "end_time": 15.072727272727272,
                "pitch": 55,
                "velocity": 51,
                "duration": 0.09999999999999964,
                "tempo": 120.0
            },
            {
                "start_time": 15.104545454545454,
                "end_time": 15.202272727272726,
                "pitch": 55,
                "velocity": 51,
                "duration": 0.09772727272727266,
                "tempo": 120.0
            },
            {
                "start_time": 15.220454545454544,
                "end_time": 15.318181818181817,
                "pitch": 55,
                "velocity": 51,
                "duration": 0.09772727272727266,
                "tempo": 120.0
            },
            {
                "start_time": 15.35,
                "end_time": 15.434090909090909,
                "pitch": 43,
                "velocity": 51,
                "duration": 0.084090909090909,
                "tempo": 120.0
            },
            {
                "start_time": 15.45,
                "end_time": 15.547727272727272,
                "pitch": 55,
                "velocity": 51,
                "duration": 0.09772727272727266,
                "tempo": 120.0
            },
            {
                "start_time": 15.58181818181818,
                "end_time": 15.665909090909091,
                "pitch": 55,
                "velocity": 51,
                "duration": 0.08409090909091077,
                "tempo": 120.0
            },
            {
                "start_time": 15.7,
                "end_time": 15.799999999999999,
                "pitch": 55,
                "velocity": 51,
                "duration": 0.09999999999999964,
                "tempo": 120.0
            },
            {
                "start_time": 15.81590909090909,
                "end_time": 15.918181818181818,
                "pitch": 43,
                "velocity": 51,
                "duration": 0.1022727272727284,
                "tempo": 120.0
            },
            {
                "start_time": 15.95,
                "end_time": 16.03409090909091,
                "pitch": 55,
                "velocity": 51,
                "duration": 0.08409090909091077,
                "tempo": 120.0
            },
            {
                "start_time": 16.052272727272726,
                "end_time": 16.152272727272727,
                "pitch": 55,
                "velocity": 51,
                "duration": 0.10000000000000142,
                "tempo": 120.0
            },
            {
                "start_time": 16.170454545454543,
                "end_time": 16.270454545454545,
                "pitch": 55,
                "velocity": 51,
                "duration": 0.10000000000000142,
                "tempo": 120.0
            },
            {
                "start_time": 16.304545454545455,
                "end_time": 16.404545454545453,
                "pitch": 41,
                "velocity": 51,
                "duration": 0.09999999999999787,
                "tempo": 120.0
            },
            {
                "start_time": 16.420454545454543,
                "end_time": 16.522727272727273,
                "pitch": 53,
                "velocity": 51,
                "duration": 0.10227272727273018,
                "tempo": 120.0
            },
            {
                "start_time": 16.538636363636364,
                "end_time": 16.64090909090909,
                "pitch": 53,
                "velocity": 51,
                "duration": 0.10227272727272663,
                "tempo": 120.0
            },
            {
                "start_time": 16.659090909090907,
                "end_time": 16.761363636363637,
                "pitch": 53,
                "velocity": 51,
                "duration": 0.10227272727273018,
                "tempo": 120.0
            },
            {
                "start_time": 16.777272727272727,
                "end_time": 16.881818181818183,
                "pitch": 41,
                "velocity": 51,
                "duration": 0.10454545454545539,
                "tempo": 120.0
            },
            {
                "start_time": 16.91590909090909,
                "end_time": 17.018181818181816,
                "pitch": 53,
                "velocity": 51,
                "duration": 0.10227272727272663,
                "tempo": 120.0
            },
            {
                "start_time": 17.034090909090907,
                "end_time": 17.134090909090908,
                "pitch": 53,
                "velocity": 51,
                "duration": 0.10000000000000142,
                "tempo": 120.0
            },
            {
                "start_time": 17.152272727272727,
                "end_time": 17.252272727272725,
                "pitch": 53,
                "velocity": 51,
                "duration": 0.09999999999999787,
                "tempo": 120.0
            },
            {
                "start_time": 17.270454545454545,
                "end_time": 17.370454545454546,
                "pitch": 41,
                "velocity": 51,
                "duration": 0.10000000000000142,
                "tempo": 120.0
            },
            {
                "start_time": 17.386363636363637,
                "end_time": 17.488636363636363,
                "pitch": 53,
                "velocity": 51,
                "duration": 0.10227272727272663,
                "tempo": 120.0
            },
            {
                "start_time": 17.520454545454545,
                "end_time": 17.618181818181817,
                "pitch": 53,
                "velocity": 51,
                "duration": 0.09772727272727266,
                "tempo": 120.0
            },
            {
                "start_time": 17.636363636363637,
                "end_time": 17.73409090909091,
                "pitch": 53,
                "velocity": 51,
                "duration": 0.09772727272727266,
                "tempo": 120.0
            },
            {
                "start_time": 17.75,
                "end_time": 17.847727272727273,
                "pitch": 41,
                "velocity": 51,
                "duration": 0.09772727272727266,
                "tempo": 120.0
            },
            {
                "start_time": 17.86590909090909,
                "end_time": 17.96363636363636,
                "pitch": 53,
                "velocity": 51,
                "duration": 0.09772727272727266,
                "tempo": 120.0
            },
            {
                "start_time": 17.979545454545455,
                "end_time": 18.081818181818182,
                "pitch": 53,
                "velocity": 51,
                "duration": 0.10227272727272663,
                "tempo": 120.0
            },
            {
                "start_time": 18.113636363636363,
                "end_time": 18.21590909090909,
                "pitch": 53,
                "velocity": 51,
                "duration": 0.10227272727272663,
                "tempo": 120.0
            },
            {
                "start_time": 18.23181818181818,
                "end_time": 18.334090909090907,
                "pitch": 37,
                "velocity": 51,
                "duration": 0.10227272727272663,
                "tempo": 120.0
            },
            {
                "start_time": 18.349999999999998,
                "end_time": 18.45,
                "pitch": 49,
                "velocity": 51,
                "duration": 0.10000000000000142,
                "tempo": 120.0
            },
            {
                "start_time": 18.46818181818182,
                "end_time": 18.568181818181817,
                "pitch": 49,
                "velocity": 51,
                "duration": 0.09999999999999787,
                "tempo": 120.0
            },
            {
                "start_time": 18.584090909090907,
                "end_time": 18.686363636363634,
                "pitch": 49,
                "velocity": 51,
                "duration": 0.10227272727272663,
                "tempo": 120.0
            },
            {
                "start_time": 18.720454545454544,
                "end_time": 18.820454545454545,
                "pitch": 37,
                "velocity": 51,
                "duration": 0.10000000000000142,
                "tempo": 120.0
            },
            {
                "start_time": 18.836363636363636,
                "end_time": 18.938636363636363,
                "pitch": 49,
                "velocity": 51,
                "duration": 0.10227272727272663,
                "tempo": 120.0
            },
            {
                "start_time": 18.954545454545453,
                "end_time": 19.054545454545455,
                "pitch": 49,
                "velocity": 51,
                "duration": 0.10000000000000142,
                "tempo": 120.0
            },
            {
                "start_time": 19.07272727272727,
                "end_time": 19.172727272727272,
                "pitch": 49,
                "velocity": 51,
                "duration": 0.10000000000000142,
                "tempo": 120.0
            },
            {
                "start_time": 19.19090909090909,
                "end_time": 19.29090909090909,
                "pitch": 37,
                "velocity": 51,
                "duration": 0.09999999999999787,
                "tempo": 120.0
            },
            {
                "start_time": 19.325,
                "end_time": 19.425,
                "pitch": 49,
                "velocity": 51,
                "duration": 0.10000000000000142,
                "tempo": 120.0
            },
            {
                "start_time": 19.443181818181817,
                "end_time": 19.545454545454543,
                "pitch": 49,
                "velocity": 51,
                "duration": 0.10227272727272663,
                "tempo": 120.0
            },
            {
                "start_time": 19.561363636363634,
                "end_time": 19.663636363636364,
                "pitch": 49,
                "velocity": 51,
                "duration": 0.10227272727273018,
                "tempo": 120.0
            },
            {
                "start_time": 19.68181818181818,
                "end_time": 19.784090909090907,
                "pitch": 37,
                "velocity": 51,
                "duration": 0.10227272727272663,
                "tempo": 120.0
            },
            {
                "start_time": 19.8,
                "end_time": 19.902272727272727,
                "pitch": 49,
                "velocity": 51,
                "duration": 0.10227272727272663,
                "tempo": 120.0
            },
            {
                "start_time": 19.936363636363634,
                "end_time": 20.034090909090907,
                "pitch": 49,
                "velocity": 51,
                "duration": 0.09772727272727266,
                "tempo": 120.0
            },
            {
                "start_time": 20.05,
                "end_time": 20.15,
                "pitch": 49,
                "velocity": 51,
                "duration": 0.09999999999999787,
                "tempo": 120.0
            },
            {
                "start_time": 20.16590909090909,
                "end_time": 20.263636363636362,
                "pitch": 37,
                "velocity": 51,
                "duration": 0.09772727272727266,
                "tempo": 120.0
            },
            {
                "start_time": 20.279545454545453,
                "end_time": 20.379545454545454,
                "pitch": 49,
                "velocity": 51,
                "duration": 0.10000000000000142,
                "tempo": 120.0
            },
            {
                "start_time": 20.395454545454545,
                "end_time": 20.495454545454546,
                "pitch": 49,
                "velocity": 51,
                "duration": 0.10000000000000142,
                "tempo": 120.0
            },
            {
                "start_time": 20.529545454545453,
                "end_time": 20.63181818181818,
                "pitch": 49,
                "velocity": 51,
                "duration": 0.10227272727272663,
                "tempo": 120.0
            },
            {
                "start_time": 20.647727272727273,
                "end_time": 20.74772727272727,
                "pitch": 37,
                "velocity": 51,
                "duration": 0.09999999999999787,
                "tempo": 120.0
            },
            {
                "start_time": 20.76590909090909,
                "end_time": 20.86590909090909,
                "pitch": 49,
                "velocity": 51,
                "duration": 0.09999999999999787,
                "tempo": 120.0
            },
            {
                "start_time": 20.88181818181818,
                "end_time": 20.98181818181818,
                "pitch": 49,
                "velocity": 51,
                "duration": 0.10000000000000142,
                "tempo": 120.0
            },
            {
                "start_time": 21.0,
                "end_time": 21.099999999999998,
                "pitch": 49,
                "velocity": 51,
                "duration": 0.09999999999999787,
                "tempo": 120.0
            },
            {
                "start_time": 21.13181818181818,
                "end_time": 21.23181818181818,
                "pitch": 36,
                "velocity": 51,
                "duration": 0.10000000000000142,
                "tempo": 120.0
            },
            {
                "start_time": 21.25,
                "end_time": 21.349999999999998,
                "pitch": 48,
                "velocity": 51,
                "duration": 0.09999999999999787,
                "tempo": 120.0
            },
            {
                "start_time": 21.36590909090909,
                "end_time": 21.46818181818182,
                "pitch": 48,
                "velocity": 51,
                "duration": 0.10227272727273018,
                "tempo": 120.0
            },
            {
                "start_time": 21.486363636363635,
                "end_time": 21.58863636363636,
                "pitch": 48,
                "velocity": 51,
                "duration": 0.10227272727272663,
                "tempo": 120.0
            },
            {
                "start_time": 21.604545454545452,
                "end_time": 21.706818181818182,
                "pitch": 36,
                "velocity": 51,
                "duration": 0.10227272727273018,
                "tempo": 120.0
            },
            {
                "start_time": 21.74090909090909,
                "end_time": 21.845454545454544,
                "pitch": 48,
                "velocity": 51,
                "duration": 0.10454545454545539,
                "tempo": 120.0
            },
            {
                "start_time": 21.861363636363635,
                "end_time": 21.961363636363636,
                "pitch": 48,
                "velocity": 51,
                "duration": 0.10000000000000142,
                "tempo": 120.0
            },
            {
                "start_time": 21.979545454545452,
                "end_time": 22.079545454545453,
                "pitch": 48,
                "velocity": 51,
                "duration": 0.10000000000000142,
                "tempo": 120.0
            },
            {
                "start_time": 22.095454545454544,
                "end_time": 22.19772727272727,
                "pitch": 36,
                "velocity": 51,
                "duration": 0.10227272727272663,
                "tempo": 120.0
            },
            {
                "start_time": 22.21363636363636,
                "end_time": 22.31590909090909,
                "pitch": 36,
                "velocity": 51,
                "duration": 0.10227272727273018,
                "tempo": 120.0
            },
            {
                "start_time": 22.347727272727273,
                "end_time": 22.45,
                "pitch": 36,
                "velocity": 51,
                "duration": 0.10227272727272663,
                "tempo": 120.0
            },
            {
                "start_time": 22.46590909090909,
                "end_time": 22.56590909090909,
                "pitch": 36,
                "velocity": 51,
                "duration": 0.10000000000000142,
                "tempo": 120.0
            },
            {
                "start_time": 22.584090909090907,
                "end_time": 22.68409090909091,
                "pitch": 32,
                "velocity": 51,
                "duration": 0.10000000000000142,
                "tempo": 120.0
            },
            {
                "start_time": 22.702272727272724,
                "end_time": 22.802272727272726,
                "pitch": 32,
                "velocity": 51,
                "duration": 0.10000000000000142,
                "tempo": 120.0
            },
            {
                "start_time": 22.818181818181817,
                "end_time": 22.920454545454543,
                "pitch": 32,
                "velocity": 51,
                "duration": 0.10227272727272663,
                "tempo": 120.0
            },
            {
                "start_time": 22.952272727272724,
                "end_time": 23.054545454545455,
                "pitch": 32,
                "velocity": 51,
                "duration": 0.10227272727273018,
                "tempo": 120.0
            },
            {
                "start_time": 23.070454545454545,
                "end_time": 23.172727272727272,
                "pitch": 31,
                "velocity": 51,
                "duration": 0.10227272727272663,
                "tempo": 120.0
            },
            {
                "start_time": 23.188636363636363,
                "end_time": 23.288636363636364,
                "pitch": 31,
                "velocity": 51,
                "duration": 0.10000000000000142,
                "tempo": 120.0
            },
            {
                "start_time": 23.304545454545455,
                "end_time": 23.404545454545453,
                "pitch": 31,
                "velocity": 51,
                "duration": 0.09999999999999787,
                "tempo": 120.0
            },
            {
                "start_time": 23.420454545454543,
                "end_time": 23.518181818181816,
                "pitch": 31,
                "velocity": 51,
                "duration": 0.09772727272727266,
                "tempo": 120.0
            },
            {
                "start_time": 23.552272727272726,
                "end_time": 23.65,
                "pitch": 32,
                "velocity": 51,
                "duration": 0.09772727272727266,
                "tempo": 120.0
            },
            {
                "start_time": 23.66590909090909,
                "end_time": 23.76590909090909,
                "pitch": 32,
                "velocity": 51,
                "duration": 0.10000000000000142,
                "tempo": 120.0
            },
            {
                "start_time": 23.78181818181818,
                "end_time": 23.884090909090908,
                "pitch": 32,
                "velocity": 51,
                "duration": 0.10227272727272663,
                "tempo": 120.0
            },
            {
                "start_time": 23.902272727272727,
                "end_time": 24.004545454545454,
                "pitch": 32,
                "velocity": 51,
                "duration": 0.10227272727272663,
                "tempo": 120.0
            },
            {
                "start_time": 24.020454545454545,
                "end_time": 24.12272727272727,
                "pitch": 36,
                "velocity": 51,
                "duration": 0.10227272727272663,
                "tempo": 120.0
            },
            {
                "start_time": 24.15681818181818,
                "end_time": 24.259090909090908,
                "pitch": 36,
                "velocity": 51,
                "duration": 0.10227272727272663,
                "tempo": 120.0
            },
            {
                "start_time": 24.277272727272727,
                "end_time": 24.377272727272725,
                "pitch": 36,
                "velocity": 51,
                "duration": 0.09999999999999787,
                "tempo": 120.0
            },
            {
                "start_time": 24.393181818181816,
                "end_time": 24.495454545454546,
                "pitch": 36,
                "velocity": 51,
                "duration": 0.10227272727273018,
                "tempo": 120.0
            },
            {
                "start_time": 24.511363636363637,
                "end_time": 24.613636363636363,
                "pitch": 32,
                "velocity": 51,
                "duration": 0.10227272727272663,
                "tempo": 120.0
            },
            {
                "start_time": 24.629545454545454,
                "end_time": 24.729545454545452,
                "pitch": 32,
                "velocity": 51,
                "duration": 0.09999999999999787,
                "tempo": 120.0
            },
            {
                "start_time": 24.763636363636362,
                "end_time": 24.86590909090909,
                "pitch": 32,
                "velocity": 51,
                "duration": 0.10227272727272663,
                "tempo": 120.0
            },
            {
                "start_time": 24.884090909090908,
                "end_time": 24.986363636363635,
                "pitch": 32,
                "velocity": 51,
                "duration": 0.10227272727272663,
                "tempo": 120.0
            },
            {
                "start_time": 25.002272727272725,
                "end_time": 25.104545454545452,
                "pitch": 36,
                "velocity": 51,
                "duration": 0.10227272727272663,
                "tempo": 120.0
            },
            {
                "start_time": 25.12272727272727,
                "end_time": 25.224999999999998,
                "pitch": 36,
                "velocity": 51,
                "duration": 0.10227272727272663,
                "tempo": 120.0
            },
            {
                "start_time": 25.24090909090909,
                "end_time": 25.336363636363636,
                "pitch": 36,
                "velocity": 51,
                "duration": 0.09545454545454746,
                "tempo": 120.0
            },
            {
                "start_time": 25.368181818181817,
                "end_time": 25.46590909090909,
                "pitch": 36,
                "velocity": 51,
                "duration": 0.09772727272727266,
                "tempo": 120.0
            },
            {
                "start_time": 25.48181818181818,
                "end_time": 25.577272727272724,
                "pitch": 36,
                "velocity": 51,
                "duration": 0.0954545454545439,
                "tempo": 120.0
            },
            {
                "start_time": 25.59318181818182,
                "end_time": 25.688636363636363,
                "pitch": 36,
                "velocity": 51,
                "duration": 0.0954545454545439,
                "tempo": 120.0
            },
            {
                "start_time": 25.706818181818182,
                "end_time": 25.80909090909091,
                "pitch": 36,
                "velocity": 51,
                "duration": 0.10227272727272663,
                "tempo": 120.0
            },
            {
                "start_time": 25.825,
                "end_time": 25.927272727272726,
                "pitch": 36,
                "velocity": 51,
                "duration": 0.10227272727272663,
                "tempo": 120.0
            },
            {
                "start_time": 25.96363636363636,
                "end_time": 26.18409090909091,
                "pitch": 36,
                "velocity": 51,
                "duration": 0.22045454545454746,
                "tempo": 120.0
            },
            {
                "start_time": 26.202272727272724,
                "end_time": 26.304545454545455,
                "pitch": 48,
                "velocity": 51,
                "duration": 0.10227272727273018,
                "tempo": 120.0
            },
            {
                "start_time": 26.320454545454545,
                "end_time": 26.422727272727272,
                "pitch": 36,
                "velocity": 51,
                "duration": 0.10227272727272663,
                "tempo": 120.0
            },
            {
                "start_time": 26.44090909090909,
                "end_time": 26.695454545454545,
                "pitch": 36,
                "velocity": 51,
                "duration": 0.25454545454545396,
                "tempo": 120.0
            }
        ],
        "Flute": [
            {
                "start_time": 1.8727272727272726,
                "end_time": 2.0886363636363634,
                "pitch": 72,
                "velocity": 51,
                "duration": 0.21590909090909083,
                "tempo": 120.0
            },
            {
                "start_time": 2.106818181818182,
                "end_time": 2.2045454545454546,
                "pitch": 72,
                "velocity": 51,
                "duration": 0.09772727272727266,
                "tempo": 120.0
            },
            {
                "start_time": 2.2204545454545452,
                "end_time": 2.318181818181818,
                "pitch": 67,
                "velocity": 51,
                "duration": 0.09772727272727266,
                "tempo": 120.0
            },
            {
                "start_time": 2.3363636363636364,
                "end_time": 2.434090909090909,
                "pitch": 70,
                "velocity": 51,
                "duration": 0.09772727272727266,
                "tempo": 120.0
            },
            {
                "start_time": 2.465909090909091,
                "end_time": 2.565909090909091,
                "pitch": 67,
                "velocity": 51,
                "duration": 0.10000000000000009,
                "tempo": 120.0
            },
            {
                "start_time": 2.5818181818181816,
                "end_time": 2.6818181818181817,
                "pitch": 70,
                "velocity": 51,
                "duration": 0.10000000000000009,
                "tempo": 120.0
            },
            {
                "start_time": 2.6977272727272728,
                "end_time": 2.7977272727272724,
                "pitch": 67,
                "velocity": 51,
                "duration": 0.09999999999999964,
                "tempo": 120.0
            },
            {
                "start_time": 2.815909090909091,
                "end_time": 3.0318181818181817,
                "pitch": 72,
                "velocity": 51,
                "duration": 0.21590909090909083,
                "tempo": 120.0
            },
            {
                "start_time": 3.065909090909091,
                "end_time": 3.168181818181818,
                "pitch": 72,
                "velocity": 51,
                "duration": 0.10227272727272707,
                "tempo": 120.0
            },
            {
                "start_time": 3.186363636363636,
                "end_time": 3.2909090909090906,
                "pitch": 67,
                "velocity": 51,
                "duration": 0.1045454545454545,
                "tempo": 120.0
            },
            {
                "start_time": 3.309090909090909,
                "end_time": 3.411363636363636,
                "pitch": 70,
                "velocity": 51,
                "duration": 0.10227272727272707,
                "tempo": 120.0
            },
            {
                "start_time": 3.4295454545454542,
                "end_time": 3.5340909090909087,
                "pitch": 67,
                "velocity": 51,
                "duration": 0.1045454545454545,
                "tempo": 120.0
            },
            {
                "start_time": 3.55,
                "end_time": 3.6477272727272725,
                "pitch": 70,
                "velocity": 51,
                "duration": 0.09772727272727266,
                "tempo": 120.0
            },
            {
                "start_time": 3.6795454545454542,
                "end_time": 3.775,
                "pitch": 67,
                "velocity": 51,
                "duration": 0.09545454545454568,
                "tempo": 120.0
            },
            {
                "start_time": 3.7909090909090906,
                "end_time": 4.0,
                "pitch": 72,
                "velocity": 51,
                "duration": 0.20909090909090944,
                "tempo": 120.0
            },
            {
                "start_time": 4.015909090909091,
                "end_time": 4.118181818181818,
                "pitch": 72,
                "velocity": 51,
                "duration": 0.10227272727272751,
                "tempo": 120.0
            },
            {
                "start_time": 4.136363636363636,
                "end_time": 4.24090909090909,
                "pitch": 67,
                "velocity": 51,
                "duration": 0.1045454545454545,
                "tempo": 120.0
            },
            {
                "start_time": 4.2749999999999995,
                "end_time": 4.379545454545454,
                "pitch": 70,
                "velocity": 51,
                "duration": 0.1045454545454545,
                "tempo": 120.0
            },
            {
                "start_time": 4.3954545454545455,
                "end_time": 4.4840909090909085,
                "pitch": 67,
                "velocity": 51,
                "duration": 0.08863636363636296,
                "tempo": 120.0
            },
            {
                "start_time": 4.5,
                "end_time": 4.613636363636363,
                "pitch": 70,
                "velocity": 51,
                "duration": 0.11363636363636331,
                "tempo": 120.0
            },
            {
                "start_time": 4.629545454545454,
                "end_time": 4.725,
                "pitch": 67,
                "velocity": 51,
                "duration": 0.09545454545454568,
                "tempo": 120.0
            },
            {
                "start_time": 4.74090909090909,
                "end_time": 5.486363636363636,
                "pitch": 72,
                "velocity": 51,
                "duration": 0.745454545454546,
                "tempo": 120.0
            },
            {
                "start_time": 6.679545454545454,
                "end_time": 6.902272727272727,
                "pitch": 72,
                "velocity": 51,
                "duration": 0.22272727272727355,
                "tempo": 120.0
            },
            {
                "start_time": 6.918181818181818,
                "end_time": 7.015909090909091,
                "pitch": 72,
                "velocity": 51,
                "duration": 0.09772727272727266,
                "tempo": 120.0
            },
            {
                "start_time": 7.031818181818181,
                "end_time": 7.131818181818182,
                "pitch": 67,
                "velocity": 51,
                "duration": 0.10000000000000053,
                "tempo": 120.0
            },
            {
                "start_time": 7.1477272727272725,
                "end_time": 7.245454545454545,
                "pitch": 70,
                "velocity": 51,
                "duration": 0.09772727272727266,
                "tempo": 120.0
            },
            {
                "start_time": 7.279545454545454,
                "end_time": 7.377272727272727,
                "pitch": 67,
                "velocity": 51,
                "duration": 0.09772727272727266,
                "tempo": 120.0
            },
            {
                "start_time": 7.393181818181818,
                "end_time": 7.495454545454545,
                "pitch": 70,
                "velocity": 51,
                "duration": 0.10227272727272751,
                "tempo": 120.0
            },
            {
                "start_time": 7.511363636363636,
                "end_time": 7.611363636363636,
                "pitch": 67,
                "velocity": 51,
                "duration": 0.10000000000000053,
                "tempo": 120.0
            },
            {
                "start_time": 7.629545454545454,
                "end_time": 7.847727272727273,
                "pitch": 72,
                "velocity": 51,
                "duration": 0.2181818181818187,
                "tempo": 120.0
            },
            {
                "start_time": 7.881818181818182,
                "end_time": 7.986363636363636,
                "pitch": 72,
                "velocity": 51,
                "duration": 0.1045454545454545,
                "tempo": 120.0
            },
            {
                "start_time": 8.002272727272727,
                "end_time": 8.10681818181818,
                "pitch": 67,
                "velocity": 51,
                "duration": 0.10454545454545361,
                "tempo": 120.0
            },
            {
                "start_time": 8.125,
                "end_time": 8.227272727272727,
                "pitch": 70,
                "velocity": 51,
                "duration": 0.10227272727272663,
                "tempo": 120.0
            },
            {
                "start_time": 8.245454545454544,
                "end_time": 8.35,
                "pitch": 67,
                "velocity": 51,
                "duration": 0.10454545454545539,
                "tempo": 120.0
            },
            {
                "start_time": 8.36590909090909,
                "end_time": 8.463636363636363,
                "pitch": 70,
                "velocity": 51,
                "duration": 0.09772727272727266,
                "tempo": 120.0
            },
            {
                "start_time": 8.495454545454544,
                "end_time": 8.59090909090909,
                "pitch": 67,
                "velocity": 51,
                "duration": 0.09545454545454568,
                "tempo": 120.0
            },
            {
                "start_time": 8.60681818181818,
                "end_time": 8.815909090909091,
                "pitch": 72,
                "velocity": 51,
                "duration": 0.20909090909091077,
                "tempo": 120.0
            },
            {
                "start_time": 8.831818181818182,
                "end_time": 8.934090909090909,
                "pitch": 72,
                "velocity": 51,
                "duration": 0.10227272727272663,
                "tempo": 120.0
            },
            {
                "start_time": 8.952272727272726,
                "end_time": 9.056818181818182,
                "pitch": 67,
                "velocity": 51,
                "duration": 0.10454545454545539,
                "tempo": 120.0
            },
            {
                "start_time": 9.09090909090909,
                "end_time": 9.161363636363635,
                "pitch": 70,
                "velocity": 51,
                "duration": 0.07045454545454533,
                "tempo": 120.0
            },
            {
                "start_time": 9.195454545454545,
                "end_time": 9.299999999999999,
                "pitch": 70,
                "velocity": 51,
                "duration": 0.10454545454545361,
                "tempo": 120.0
            },
            {
                "start_time": 9.31590909090909,
                "end_time": 9.418181818181818,
                "pitch": 70,
                "velocity": 51,
                "duration": 0.1022727272727284,
                "tempo": 120.0
            },
            {
                "start_time": 9.434090909090909,
                "end_time": 9.552272727272728,
                "pitch": 67,
                "velocity": 51,
                "duration": 0.11818181818181905,
                "tempo": 120.0
            },
            {
                "start_time": 9.570454545454545,
                "end_time": 10.511363636363637,
                "pitch": 72,
                "velocity": 51,
                "duration": 0.9409090909090914,
                "tempo": 120.0
            },
            {
                "start_time": 10.527272727272727,
                "end_time": 22.56590909090909,
                "pitch": 84,
                "velocity": 51,
                "duration": 12.038636363636364,
                "tempo": 120.0
            },
            {
                "start_time": 22.584090909090907,
                "end_time": 23.054545454545455,
                "pitch": 56,
                "velocity": 51,
                "duration": 0.47045454545454746,
                "tempo": 120.0
            },
            {
                "start_time": 23.070454545454545,
                "end_time": 23.518181818181816,
                "pitch": 55,
                "velocity": 51,
                "duration": 0.44772727272727053,
                "tempo": 120.0
            },
            {
                "start_time": 23.552272727272726,
                "end_time": 24.004545454545454,
                "pitch": 56,
                "velocity": 51,
                "duration": 0.45227272727272805,
                "tempo": 120.0
            },
            {
                "start_time": 24.020454545454545,
                "end_time": 24.495454545454546,
                "pitch": 60,
                "velocity": 51,
                "duration": 0.4750000000000014,
                "tempo": 120.0
            },
            {
                "start_time": 24.511363636363637,
                "end_time": 24.986363636363635,
                "pitch": 55,
                "velocity": 51,
                "duration": 0.47499999999999787,
                "tempo": 120.0
            },
            {
                "start_time": 25.002272727272725,
                "end_time": 25.224999999999998,
                "pitch": 60,
                "velocity": 51,
                "duration": 0.22272727272727266,
                "tempo": 120.0
            },
            {
                "start_time": 25.24090909090909,
                "end_time": 25.336363636363636,
                "pitch": 60,
                "velocity": 51,
                "duration": 0.09545454545454746,
                "tempo": 120.0
            },
            {
                "start_time": 25.368181818181817,
                "end_time": 25.688636363636363,
                "pitch": 55,
                "velocity": 51,
                "duration": 0.3204545454545453,
                "tempo": 120.0
            },
            {
                "start_time": 25.706818181818182,
                "end_time": 25.927272727272726,
                "pitch": 58,
                "velocity": 51,
                "duration": 0.2204545454545439,
                "tempo": 120.0
            }
        ]
    }
}