{
    "track_id": "Cyborg Hunter (FM) - 07 - Ending _ Credits",
    "mood": "angry",
    "instruments": {
        "Lead 2 (sawtooth)": [
            {
                "start_time": 0.7840909090909091,
                "end_time": 0.85,
                "pitch": 65,
                "velocity": 101,
                "duration": 0.06590909090909092,
                "tempo": 120.0
            },
            {
                "start_time": 0.984090909090909,
                "end_time": 1.05,
                "pitch": 66,
                "velocity": 101,
                "duration": 0.06590909090909103,
                "tempo": 120.0
            },
            {
                "start_time": 1.3795454545454544,
                "end_time": 1.9522727272727272,
                "pitch": 71,
                "velocity": 101,
                "duration": 0.5727272727272728,
                "tempo": 120.0
            },
            {
                "start_time": 1.9863636363636363,
                "end_time": 2.0522727272727272,
                "pitch": 70,
                "velocity": 101,
                "duration": 0.06590909090909092,
                "tempo": 120.0
            },
            {
                "start_time": 3.3909090909090907,
                "end_time": 3.7636363636363637,
                "pitch": 71,
                "velocity": 101,
                "duration": 0.372727272727273,
                "tempo": 120.0
            },
            {
                "start_time": 3.7977272727272724,
                "end_time": 3.8636363636363633,
                "pitch": 70,
                "velocity": 101,
                "duration": 0.06590909090909092,
                "tempo": 120.0
            },
            {
                "start_time": 4.588636363636364,
                "end_time": 4.656818181818181,
                "pitch": 68,
                "velocity": 101,
                "duration": 0.06818181818181746,
                "tempo": 120.0
            },
            {
                "start_time": 4.6886363636363635,
                "end_time": 4.756818181818182,
                "pitch": 70,
                "velocity": 101,
                "duration": 0.06818181818181834,
                "tempo": 120.0
            },
            {
                "start_time": 4.788636363636363,
                "end_time": 6.163636363636363,
                "pitch": 65,
                "velocity": 101,
                "duration": 1.375,
                "tempo": 120.0
            },
            {
                "start_time": 6.195454545454545,
                "end_time": 6.263636363636364,
                "pitch": 63,
                "velocity": 101,
                "duration": 0.06818181818181834,
                "tempo": 120.0
            },
            {
                "start_time": 6.297727272727273,
                "end_time": 6.363636363636363,
                "pitch": 65,
                "velocity": 101,
                "duration": 0.06590909090909047,
                "tempo": 120.0
            },
            {
                "start_time": 6.3977272727272725,
                "end_time": 7.177272727272727,
                "pitch": 63,
                "velocity": 101,
                "duration": 0.7795454545454543,
                "tempo": 120.0
            },
            {
                "start_time": 7.211363636363636,
                "end_time": 7.277272727272727,
                "pitch": 65,
                "velocity": 101,
                "duration": 0.06590909090909136,
                "tempo": 120.0
            },
            {
                "start_time": 7.406818181818181,
                "end_time": 7.472727272727273,
                "pitch": 66,
                "velocity": 101,
                "duration": 0.06590909090909136,
                "tempo": 120.0
            },
            {
                "start_time": 7.804545454545454,
                "end_time": 8.375,
                "pitch": 71,
                "velocity": 101,
                "duration": 0.5704545454545462,
                "tempo": 120.0
            },
            {
                "start_time": 8.409090909090908,
                "end_time": 8.475,
                "pitch": 70,
                "velocity": 101,
                "duration": 0.06590909090909136,
                "tempo": 120.0
            },
            {
                "start_time": 9.820454545454545,
                "end_time": 10.193181818181818,
                "pitch": 71,
                "velocity": 101,
                "duration": 0.372727272727273,
                "tempo": 120.0
            },
            {
                "start_time": 10.227272727272727,
                "end_time": 10.293181818181818,
                "pitch": 70,
                "velocity": 101,
                "duration": 0.06590909090909136,
                "tempo": 120.0
            },
            {
                "start_time": 11.020454545454545,
                "end_time": 11.086363636363636,
                "pitch": 68,
                "velocity": 101,
                "duration": 0.06590909090909136,
                "tempo": 120.0
            },
            {
                "start_time": 11.120454545454544,
                "end_time": 11.186363636363636,
                "pitch": 70,
                "velocity": 101,
                "duration": 0.06590909090909136,
                "tempo": 120.0
            },
            {
                "start_time": 11.220454545454546,
                "end_time": 12.593181818181817,
                "pitch": 65,
                "velocity": 101,
                "duration": 1.3727272727272712,
                "tempo": 120.0
            },
            {
                "start_time": 12.627272727272727,
                "end_time": 12.695454545454545,
                "pitch": 63,
                "velocity": 101,
                "duration": 0.06818181818181834,
                "tempo": 120.0
            },
            {
                "start_time": 12.727272727272727,
                "end_time": 12.795454545454545,
                "pitch": 65,
                "velocity": 101,
                "duration": 0.06818181818181834,
                "tempo": 120.0
            },
            {
                "start_time": 12.829545454545453,
                "end_time": 13.597727272727273,
                "pitch": 63,
                "velocity": 101,
                "duration": 0.7681818181818194,
                "tempo": 120.0
            },
            {
                "start_time": 13.631818181818181,
                "end_time": 13.697727272727272,
                "pitch": 58,
                "velocity": 101,
                "duration": 0.06590909090909136,
                "tempo": 120.0
            },
            {
                "start_time": 13.831818181818182,
                "end_time": 13.899999999999999,
                "pitch": 59,
                "velocity": 101,
                "duration": 0.06818181818181657,
                "tempo": 120.0
            },
            {
                "start_time": 14.236363636363636,
                "end_time": 14.604545454545454,
                "pitch": 61,
                "velocity": 101,
                "duration": 0.3681818181818173,
                "tempo": 120.0
            },
            {
                "start_time": 14.638636363636364,
                "end_time": 14.806818181818182,
                "pitch": 65,
                "velocity": 101,
                "duration": 0.168181818181818,
                "tempo": 120.0
            },
            {
                "start_time": 14.838636363636363,
                "end_time": 15.011363636363635,
                "pitch": 61,
                "velocity": 101,
                "duration": 0.17272727272727195,
                "tempo": 120.0
            },
            {
                "start_time": 15.045454545454545,
                "end_time": 15.21590909090909,
                "pitch": 68,
                "velocity": 101,
                "duration": 0.17045454545454497,
                "tempo": 120.0
            },
            {
                "start_time": 15.25,
                "end_time": 15.413636363636362,
                "pitch": 66,
                "velocity": 101,
                "duration": 0.16363636363636225,
                "tempo": 120.0
            },
            {
                "start_time": 15.445454545454545,
                "end_time": 15.609090909090908,
                "pitch": 65,
                "velocity": 101,
                "duration": 0.16363636363636225,
                "tempo": 120.0
            },
            {
                "start_time": 15.643181818181818,
                "end_time": 15.809090909090909,
                "pitch": 61,
                "velocity": 101,
                "duration": 0.165909090909091,
                "tempo": 120.0
            },
            {
                "start_time": 15.843181818181817,
                "end_time": 16.21363636363636,
                "pitch": 61,
                "velocity": 101,
                "duration": 0.37045454545454426,
                "tempo": 120.0
            },
            {
                "start_time": 16.245454545454546,
                "end_time": 16.413636363636364,
                "pitch": 65,
                "velocity": 101,
                "duration": 0.168181818181818,
                "tempo": 120.0
            },
            {
                "start_time": 16.44772727272727,
                "end_time": 16.618181818181817,
                "pitch": 61,
                "velocity": 101,
                "duration": 0.17045454545454675,
                "tempo": 120.0
            },
            {
                "start_time": 16.652272727272727,
                "end_time": 16.825,
                "pitch": 68,
                "velocity": 101,
                "duration": 0.17272727272727195,
                "tempo": 120.0
            },
            {
                "start_time": 16.85909090909091,
                "end_time": 17.022727272727273,
                "pitch": 66,
                "velocity": 101,
                "duration": 0.16363636363636402,
                "tempo": 120.0
            },
            {
                "start_time": 17.054545454545455,
                "end_time": 17.21818181818182,
                "pitch": 65,
                "velocity": 101,
                "duration": 0.16363636363636402,
                "tempo": 120.0
            },
            {
                "start_time": 17.25,
                "end_time": 17.418181818181818,
                "pitch": 61,
                "velocity": 101,
                "duration": 0.168181818181818,
                "tempo": 120.0
            },
            {
                "start_time": 17.45,
                "end_time": 17.818181818181817,
                "pitch": 61,
                "velocity": 101,
                "duration": 0.3681818181818173,
                "tempo": 120.0
            },
            {
                "start_time": 17.849999999999998,
                "end_time": 18.018181818181816,
                "pitch": 63,
                "velocity": 101,
                "duration": 0.168181818181818,
                "tempo": 120.0
            },
            {
                "start_time": 18.05,
                "end_time": 18.118181818181817,
                "pitch": 63,
                "velocity": 101,
                "duration": 0.06818181818181657,
                "tempo": 120.0
            },
            {
                "start_time": 19.054545454545455,
                "end_time": 19.422727272727272,
                "pitch": 73,
                "velocity": 101,
                "duration": 0.3681818181818173,
                "tempo": 120.0
            },
            {
                "start_time": 19.456818181818182,
                "end_time": 19.62272727272727,
                "pitch": 75,
                "velocity": 101,
                "duration": 0.16590909090908923,
                "tempo": 120.0
            },
            {
                "start_time": 19.65681818181818,
                "end_time": 19.724999999999998,
                "pitch": 75,
                "velocity": 101,
                "duration": 0.06818181818181657,
                "tempo": 120.0
            },
            {
                "start_time": 20.659090909090907,
                "end_time": 21.027272727272727,
                "pitch": 61,
                "velocity": 101,
                "duration": 0.36818181818182083,
                "tempo": 120.0
            },
            {
                "start_time": 21.05909090909091,
                "end_time": 21.227272727272727,
                "pitch": 65,
                "velocity": 101,
                "duration": 0.168181818181818,
                "tempo": 120.0
            },
            {
                "start_time": 21.261363636363637,
                "end_time": 21.43181818181818,
                "pitch": 61,
                "velocity": 101,
                "duration": 0.1704545454545432,
                "tempo": 120.0
            },
            {
                "start_time": 21.46590909090909,
                "end_time": 21.638636363636362,
                "pitch": 68,
                "velocity": 101,
                "duration": 0.17272727272727195,
                "tempo": 120.0
            },
            {
                "start_time": 21.672727272727272,
                "end_time": 21.836363636363636,
                "pitch": 66,
                "velocity": 101,
                "duration": 0.16363636363636402,
                "tempo": 120.0
            },
            {
                "start_time": 21.868181818181817,
                "end_time": 22.03181818181818,
                "pitch": 65,
                "velocity": 101,
                "duration": 0.16363636363636402,
                "tempo": 120.0
            },
            {
                "start_time": 22.063636363636363,
                "end_time": 22.23181818181818,
                "pitch": 61,
                "velocity": 101,
                "duration": 0.168181818181818,
                "tempo": 120.0
            },
            {
                "start_time": 22.26590909090909,
                "end_time": 22.634090909090908,
                "pitch": 61,
                "velocity": 101,
                "duration": 0.3681818181818173,
                "tempo": 120.0
            },
            {
                "start_time": 22.668181818181818,
                "end_time": 22.834090909090907,
                "pitch": 65,
                "velocity": 101,
                "duration": 0.16590909090908923,
                "tempo": 120.0
            },
            {
                "start_time": 22.868181818181817,
                "end_time": 23.038636363636364,
                "pitch": 61,
                "velocity": 101,
                "duration": 0.17045454545454675,
                "tempo": 120.0
            },
            {
                "start_time": 23.07272727272727,
                "end_time": 23.243181818181817,
                "pitch": 68,
                "velocity": 101,
                "duration": 0.17045454545454675,
                "tempo": 120.0
            },
            {
                "start_time": 23.277272727272727,
                "end_time": 23.44090909090909,
                "pitch": 66,
                "velocity": 101,
                "duration": 0.16363636363636402,
                "tempo": 120.0
            },
            {
                "start_time": 23.472727272727273,
                "end_time": 23.636363636363637,
                "pitch": 65,
                "velocity": 101,
                "duration": 0.16363636363636402,
                "tempo": 120.0
            },
            {
                "start_time": 23.670454545454543,
                "end_time": 23.836363636363636,
                "pitch": 61,
                "velocity": 101,
                "duration": 0.16590909090909278,
                "tempo": 120.0
            },
            {
                "start_time": 23.870454545454546,
                "end_time": 24.238636363636363,
                "pitch": 65,
                "velocity": 101,
                "duration": 0.3681818181818173,
                "tempo": 120.0
            },
            {
                "start_time": 24.270454545454545,
                "end_time": 24.438636363636363,
                "pitch": 66,
                "velocity": 101,
                "duration": 0.168181818181818,
                "tempo": 120.0
            },
            {
                "start_time": 24.472727272727273,
                "end_time": 24.54090909090909,
                "pitch": 66,
                "velocity": 101,
                "duration": 0.06818181818181657,
                "tempo": 120.0
            },
            {
                "start_time": 25.474999999999998,
                "end_time": 25.847727272727273,
                "pitch": 77,
                "velocity": 101,
                "duration": 0.3727272727272748,
                "tempo": 120.0
            },
            {
                "start_time": 25.88181818181818,
                "end_time": 26.052272727272726,
                "pitch": 78,
                "velocity": 101,
                "duration": 0.17045454545454675,
                "tempo": 120.0
            },
            {
                "start_time": 26.086363636363636,
                "end_time": 26.152272727272727,
                "pitch": 78,
                "velocity": 101,
                "duration": 0.06590909090909136,
                "tempo": 120.0
            },
            {
                "start_time": 27.079545454545453,
                "end_time": 27.452272727272724,
                "pitch": 59,
                "velocity": 101,
                "duration": 0.37272727272727124,
                "tempo": 120.0
            },
            {
                "start_time": 27.486363636363635,
                "end_time": 27.659090909090907,
                "pitch": 59,
                "velocity": 101,
                "duration": 0.17272727272727195,
                "tempo": 120.0
            },
            {
                "start_time": 27.693181818181817,
                "end_time": 27.85909090909091,
                "pitch": 66,
                "velocity": 101,
                "duration": 0.16590909090909278,
                "tempo": 120.0
            },
            {
                "start_time": 27.893181818181816,
                "end_time": 28.05909090909091,
                "pitch": 59,
                "velocity": 101,
                "duration": 0.16590909090909278,
                "tempo": 120.0
            },
            {
                "start_time": 28.093181818181815,
                "end_time": 28.25681818181818,
                "pitch": 66,
                "velocity": 101,
                "duration": 0.16363636363636402,
                "tempo": 120.0
            },
            {
                "start_time": 28.288636363636364,
                "end_time": 28.652272727272727,
                "pitch": 59,
                "velocity": 101,
                "duration": 0.3636363636363633,
                "tempo": 120.0
            },
            {
                "start_time": 28.68409090909091,
                "end_time": 29.052272727272726,
                "pitch": 61,
                "velocity": 101,
                "duration": 0.3681818181818173,
                "tempo": 120.0
            },
            {
                "start_time": 29.086363636363636,
                "end_time": 29.254545454545454,
                "pitch": 61,
                "velocity": 101,
                "duration": 0.168181818181818,
                "tempo": 120.0
            },
            {
                "start_time": 29.286363636363635,
                "end_time": 29.454545454545453,
                "pitch": 68,
                "velocity": 101,
                "duration": 0.168181818181818,
                "tempo": 120.0
            },
            {
                "start_time": 29.486363636363635,
                "end_time": 29.654545454545453,
                "pitch": 61,
                "velocity": 101,
                "duration": 0.168181818181818,
                "tempo": 120.0
            },
            {
                "start_time": 29.686363636363634,
                "end_time": 29.854545454545452,
                "pitch": 68,
                "velocity": 101,
                "duration": 0.168181818181818,
                "tempo": 120.0
            },
            {
                "start_time": 29.886363636363637,
                "end_time": 30.254545454545454,
                "pitch": 61,
                "velocity": 101,
                "duration": 0.3681818181818173,
                "tempo": 120.0
            },
            {
                "start_time": 30.28863636363636,
                "end_time": 30.65681818181818,
                "pitch": 70,
                "velocity": 101,
                "duration": 0.36818181818182083,
                "tempo": 120.0
            },
            {
                "start_time": 30.690909090909088,
                "end_time": 30.722727272727273,
                "pitch": 68,
                "velocity": 101,
                "duration": 0.031818181818184854,
                "tempo": 120.0
            },
            {
                "start_time": 30.75681818181818,
                "end_time": 30.79090909090909,
                "pitch": 70,
                "velocity": 101,
                "duration": 0.03409090909091006,
                "tempo": 120.0
            },
            {
                "start_time": 30.82272727272727,
                "end_time": 30.85681818181818,
                "pitch": 68,
                "velocity": 101,
                "duration": 0.03409090909091006,
                "tempo": 120.0
            },
            {
                "start_time": 30.89090909090909,
                "end_time": 31.061363636363634,
                "pitch": 66,
                "velocity": 101,
                "duration": 0.1704545454545432,
                "tempo": 120.0
            },
            {
                "start_time": 31.095454545454544,
                "end_time": 31.46363636363636,
                "pitch": 68,
                "velocity": 101,
                "duration": 0.3681818181818173,
                "tempo": 120.0
            },
            {
                "start_time": 31.49772727272727,
                "end_time": 31.529545454545453,
                "pitch": 66,
                "velocity": 101,
                "duration": 0.0318181818181813,
                "tempo": 120.0
            },
            {
                "start_time": 31.561363636363634,
                "end_time": 31.595454545454544,
                "pitch": 68,
                "velocity": 101,
                "duration": 0.03409090909091006,
                "tempo": 120.0
            },
            {
                "start_time": 31.627272727272725,
                "end_time": 31.659090909090907,
                "pitch": 66,
                "velocity": 101,
                "duration": 0.0318181818181813,
                "tempo": 120.0
            },
            {
                "start_time": 31.693181818181817,
                "end_time": 31.863636363636363,
                "pitch": 65,
                "velocity": 101,
                "duration": 0.17045454545454675,
                "tempo": 120.0
            },
            {
                "start_time": 31.89772727272727,
                "end_time": 32.27045454545454,
                "pitch": 66,
                "velocity": 101,
                "duration": 0.37272727272727124,
                "tempo": 120.0
            },
            {
                "start_time": 32.304545454545455,
                "end_time": 32.336363636363636,
                "pitch": 65,
                "velocity": 101,
                "duration": 0.0318181818181813,
                "tempo": 120.0
            },
            {
                "start_time": 32.37045454545454,
                "end_time": 32.404545454545456,
                "pitch": 66,
                "velocity": 101,
                "duration": 0.03409090909091361,
                "tempo": 120.0
            },
            {
                "start_time": 32.43636363636364,
                "end_time": 32.470454545454544,
                "pitch": 65,
                "velocity": 101,
                "duration": 0.03409090909090651,
                "tempo": 120.0
            },
            {
                "start_time": 32.50454545454545,
                "end_time": 32.67045454545455,
                "pitch": 63,
                "velocity": 101,
                "duration": 0.16590909090909634,
                "tempo": 120.0
            },
            {
                "start_time": 32.70454545454545,
                "end_time": 33.070454545454545,
                "pitch": 65,
                "velocity": 101,
                "duration": 0.36590909090909207,
                "tempo": 120.0
            },
            {
                "start_time": 33.10227272727273,
                "end_time": 33.13409090909091,
                "pitch": 63,
                "velocity": 101,
                "duration": 0.0318181818181813,
                "tempo": 120.0
            },
            {
                "start_time": 33.168181818181814,
                "end_time": 33.199999999999996,
                "pitch": 65,
                "velocity": 101,
                "duration": 0.0318181818181813,
                "tempo": 120.0
            },
            {
                "start_time": 33.23181818181818,
                "end_time": 33.26590909090909,
                "pitch": 63,
                "velocity": 101,
                "duration": 0.03409090909091361,
                "tempo": 120.0
            },
            {
                "start_time": 33.29772727272727,
                "end_time": 33.46818181818182,
                "pitch": 61,
                "velocity": 101,
                "duration": 0.17045454545454675,
                "tempo": 120.0
            },
            {
                "start_time": 33.502272727272725,
                "end_time": 33.87272727272727,
                "pitch": 59,
                "velocity": 101,
                "duration": 0.3704545454545425,
                "tempo": 120.0
            },
            {
                "start_time": 33.904545454545456,
                "end_time": 34.06818181818181,
                "pitch": 59,
                "velocity": 101,
                "duration": 0.16363636363635692,
                "tempo": 120.0
            },
            {
                "start_time": 34.1,
                "end_time": 34.27272727272727,
                "pitch": 66,
                "velocity": 101,
                "duration": 0.17272727272727195,
                "tempo": 120.0
            },
            {
                "start_time": 34.30681818181818,
                "end_time": 34.47727272727273,
                "pitch": 59,
                "velocity": 101,
                "duration": 0.17045454545454675,
                "tempo": 120.0
            },
            {
                "start_time": 34.51136363636363,
                "end_time": 34.675,
                "pitch": 66,
                "velocity": 101,
                "duration": 0.16363636363636402,
                "tempo": 120.0
            },
            {
                "start_time": 34.70681818181818,
                "end_time": 34.87045454545454,
                "pitch": 59,
                "velocity": 101,
                "duration": 0.16363636363636402,
                "tempo": 120.0
            },
            {
                "start_time": 34.904545454545456,
                "end_time": 35.070454545454545,
                "pitch": 59,
                "velocity": 101,
                "duration": 0.16590909090908923,
                "tempo": 120.0
            },
            {
                "start_time": 35.10454545454545,
                "end_time": 35.470454545454544,
                "pitch": 61,
                "velocity": 101,
                "duration": 0.36590909090909207,
                "tempo": 120.0
            },
            {
                "start_time": 35.50454545454545,
                "end_time": 35.67045454545455,
                "pitch": 61,
                "velocity": 101,
                "duration": 0.16590909090909634,
                "tempo": 120.0
            },
            {
                "start_time": 35.70454545454545,
                "end_time": 35.875,
                "pitch": 68,
                "velocity": 101,
                "duration": 0.17045454545454675,
                "tempo": 120.0
            },
            {
                "start_time": 35.90909090909091,
                "end_time": 36.07954545454545,
                "pitch": 61,
                "velocity": 101,
                "duration": 0.17045454545454675,
                "tempo": 120.0
            },
            {
                "start_time": 36.11363636363636,
                "end_time": 36.277272727272724,
                "pitch": 68,
                "velocity": 101,
                "duration": 0.16363636363636402,
                "tempo": 120.0
            },
            {
                "start_time": 36.31136363636364,
                "end_time": 36.47272727272727,
                "pitch": 61,
                "velocity": 101,
                "duration": 0.1613636363636317,
                "tempo": 120.0
            },
            {
                "start_time": 36.50681818181818,
                "end_time": 36.67727272727272,
                "pitch": 61,
                "velocity": 101,
                "duration": 0.17045454545453964,
                "tempo": 120.0
            },
            {
                "start_time": 36.711363636363636,
                "end_time": 37.07954545454545,
                "pitch": 70,
                "velocity": 101,
                "duration": 0.3681818181818173,
                "tempo": 120.0
            },
            {
                "start_time": 37.11363636363636,
                "end_time": 37.277272727272724,
                "pitch": 63,
                "velocity": 101,
                "duration": 0.16363636363636402,
                "tempo": 120.0
            },
            {
                "start_time": 37.309090909090905,
                "end_time": 37.475,
                "pitch": 66,
                "velocity": 101,
                "duration": 0.16590909090909634,
                "tempo": 120.0
            },
            {
                "start_time": 37.50909090909091,
                "end_time": 37.675,
                "pitch": 70,
                "velocity": 101,
                "duration": 0.16590909090908923,
                "tempo": 120.0
            },
            {
                "start_time": 37.70909090909091,
                "end_time": 37.875,
                "pitch": 71,
                "velocity": 101,
                "duration": 0.16590909090908923,
                "tempo": 120.0
            },
            {
                "start_time": 37.90909090909091,
                "end_time": 38.074999999999996,
                "pitch": 66,
                "velocity": 101,
                "duration": 0.16590909090908923,
                "tempo": 120.0
            },
            {
                "start_time": 38.10909090909091,
                "end_time": 38.175,
                "pitch": 63,
                "velocity": 101,
                "duration": 0.06590909090908781,
                "tempo": 120.0
            },
            {
                "start_time": 38.20909090909091,
                "end_time": 38.275,
                "pitch": 66,
                "velocity": 101,
                "duration": 0.06590909090908781,
                "tempo": 120.0
            },
            {
                "start_time": 38.309090909090905,
                "end_time": 38.375,
                "pitch": 70,
                "velocity": 101,
                "duration": 0.06590909090909491,
                "tempo": 120.0
            },
            {
                "start_time": 38.40909090909091,
                "end_time": 38.475,
                "pitch": 71,
                "velocity": 101,
                "duration": 0.06590909090909491,
                "tempo": 120.0
            },
            {
                "start_time": 38.50909090909091,
                "end_time": 38.679545454545455,
                "pitch": 73,
                "velocity": 101,
                "duration": 0.17045454545454675,
                "tempo": 120.0
            },
            {
                "start_time": 38.71363636363636,
                "end_time": 38.78181818181818,
                "pitch": 61,
                "velocity": 101,
                "duration": 0.06818181818182012,
                "tempo": 120.0
            }
        ],
        "Trumpet": [
            {
                "start_time": 0.7840909090909091,
                "end_time": 0.85,
                "pitch": 61,
                "velocity": 80,
                "duration": 0.06590909090909092,
                "tempo": 120.0
            },
            {
                "start_time": 0.984090909090909,
                "end_time": 1.05,
                "pitch": 63,
                "velocity": 80,
                "duration": 0.06590909090909103,
                "tempo": 120.0
            },
            {
                "start_time": 1.3795454545454544,
                "end_time": 1.9522727272727272,
                "pitch": 68,
                "velocity": 80,
                "duration": 0.5727272727272728,
                "tempo": 120.0
            },
            {
                "start_time": 1.9863636363636363,
                "end_time": 2.0522727272727272,
                "pitch": 66,
                "velocity": 80,
                "duration": 0.06590909090909092,
                "tempo": 120.0
            },
            {
                "start_time": 3.3909090909090907,
                "end_time": 3.7636363636363637,
                "pitch": 68,
                "velocity": 80,
                "duration": 0.372727272727273,
                "tempo": 120.0
            },
            {
                "start_time": 3.7977272727272724,
                "end_time": 3.829545454545454,
                "pitch": 66,
                "velocity": 80,
                "duration": 0.031818181818181746,
                "tempo": 120.0
            },
            {
                "start_time": 4.588636363636364,
                "end_time": 4.656818181818181,
                "pitch": 65,
                "velocity": 80,
                "duration": 0.06818181818181746,
                "tempo": 120.0
            },
            {
                "start_time": 4.6886363636363635,
                "end_time": 4.756818181818182,
                "pitch": 66,
                "velocity": 80,
                "duration": 0.06818181818181834,
                "tempo": 120.0
            },
            {
                "start_time": 4.788636363636363,
                "end_time": 6.163636363636363,
                "pitch": 61,
                "velocity": 80,
                "duration": 1.375,
                "tempo": 120.0
            },
            {
                "start_time": 6.195454545454545,
                "end_time": 6.363636363636363,
                "pitch": 61,
                "velocity": 80,
                "duration": 0.168181818181818,
                "tempo": 120.0
            },
            {
                "start_time": 6.3977272727272725,
                "end_time": 7.177272727272727,
                "pitch": 59,
                "velocity": 80,
                "duration": 0.7795454545454543,
                "tempo": 120.0
            },
            {
                "start_time": 7.211363636363636,
                "end_time": 7.277272727272727,
                "pitch": 61,
                "velocity": 80,
                "duration": 0.06590909090909136,
                "tempo": 120.0
            },
            {
                "start_time": 7.406818181818181,
                "end_time": 7.472727272727273,
                "pitch": 63,
                "velocity": 80,
                "duration": 0.06590909090909136,
                "tempo": 120.0
            },
            {
                "start_time": 7.804545454545454,
                "end_time": 8.375,
                "pitch": 68,
                "velocity": 80,
                "duration": 0.5704545454545462,
                "tempo": 120.0
            },
            {
                "start_time": 8.409090909090908,
                "end_time": 8.475,
                "pitch": 66,
                "velocity": 80,
                "duration": 0.06590909090909136,
                "tempo": 120.0
            },
            {
                "start_time": 9.820454545454545,
                "end_time": 10.193181818181818,
                "pitch": 68,
                "velocity": 80,
                "duration": 0.372727272727273,
                "tempo": 120.0
            },
            {
                "start_time": 10.227272727272727,
                "end_time": 10.259090909090908,
                "pitch": 66,
                "velocity": 80,
                "duration": 0.0318181818181813,
                "tempo": 120.0
            },
            {
                "start_time": 11.020454545454545,
                "end_time": 11.086363636363636,
                "pitch": 65,
                "velocity": 80,
                "duration": 0.06590909090909136,
                "tempo": 120.0
            },
            {
                "start_time": 11.120454545454544,
                "end_time": 11.186363636363636,
                "pitch": 66,
                "velocity": 80,
                "duration": 0.06590909090909136,
                "tempo": 120.0
            },
            {
                "start_time": 11.220454545454546,
                "end_time": 12.593181818181817,
                "pitch": 61,
                "velocity": 80,
                "duration": 1.3727272727272712,
                "tempo": 120.0
            },
            {
                "start_time": 12.627272727272727,
                "end_time": 12.795454545454545,
                "pitch": 61,
                "velocity": 80,
                "duration": 0.168181818181818,
                "tempo": 120.0
            },
            {
                "start_time": 12.829545454545453,
                "end_time": 13.597727272727273,
                "pitch": 59,
                "velocity": 80,
                "duration": 0.7681818181818194,
                "tempo": 120.0
            },
            {
                "start_time": 13.631818181818181,
                "end_time": 13.697727272727272,
                "pitch": 54,
                "velocity": 80,
                "duration": 0.06590909090909136,
                "tempo": 120.0
            },
            {
                "start_time": 13.831818181818182,
                "end_time": 13.899999999999999,
                "pitch": 56,
                "velocity": 80,
                "duration": 0.06818181818181657,
                "tempo": 120.0
            },
            {
                "start_time": 14.236363636363636,
                "end_time": 14.604545454545454,
                "pitch": 56,
                "velocity": 80,
                "duration": 0.3681818181818173,
                "tempo": 120.0
            },
            {
                "start_time": 14.638636363636364,
                "end_time": 14.806818181818182,
                "pitch": 61,
                "velocity": 80,
                "duration": 0.168181818181818,
                "tempo": 120.0
            },
            {
                "start_time": 14.838636363636363,
                "end_time": 15.011363636363635,
                "pitch": 56,
                "velocity": 80,
                "duration": 0.17272727272727195,
                "tempo": 120.0
            },
            {
                "start_time": 15.045454545454545,
                "end_time": 15.21590909090909,
                "pitch": 65,
                "velocity": 80,
                "duration": 0.17045454545454497,
                "tempo": 120.0
            },
            {
                "start_time": 15.25,
                "end_time": 15.413636363636362,
                "pitch": 63,
                "velocity": 80,
                "duration": 0.16363636363636225,
                "tempo": 120.0
            },
            {
                "start_time": 15.445454545454545,
                "end_time": 15.609090909090908,
                "pitch": 61,
                "velocity": 80,
                "duration": 0.16363636363636225,
                "tempo": 120.0
            },
            {
                "start_time": 15.643181818181818,
                "end_time": 15.809090909090909,
                "pitch": 56,
                "velocity": 80,
                "duration": 0.165909090909091,
                "tempo": 120.0
            },
            {
                "start_time": 15.843181818181817,
                "end_time": 16.21363636363636,
                "pitch": 56,
                "velocity": 80,
                "duration": 0.37045454545454426,
                "tempo": 120.0
            },
            {
                "start_time": 16.245454545454546,
                "end_time": 16.413636363636364,
                "pitch": 61,
                "velocity": 80,
                "duration": 0.168181818181818,
                "tempo": 120.0
            },
            {
                "start_time": 16.44772727272727,
                "end_time": 16.618181818181817,
                "pitch": 56,
                "velocity": 80,
                "duration": 0.17045454545454675,
                "tempo": 120.0
            },
            {
                "start_time": 16.652272727272727,
                "end_time": 16.825,
                "pitch": 65,
                "velocity": 80,
                "duration": 0.17272727272727195,
                "tempo": 120.0
            },
            {
                "start_time": 16.85909090909091,
                "end_time": 17.022727272727273,
                "pitch": 63,
                "velocity": 80,
                "duration": 0.16363636363636402,
                "tempo": 120.0
            },
            {
                "start_time": 17.054545454545455,
                "end_time": 17.21818181818182,
                "pitch": 61,
                "velocity": 80,
                "duration": 0.16363636363636402,
                "tempo": 120.0
            },
            {
                "start_time": 17.25,
                "end_time": 17.418181818181818,
                "pitch": 56,
                "velocity": 80,
                "duration": 0.168181818181818,
                "tempo": 120.0
            },
            {
                "start_time": 17.45,
                "end_time": 17.818181818181817,
                "pitch": 58,
                "velocity": 80,
                "duration": 0.3681818181818173,
                "tempo": 120.0
            },
            {
                "start_time": 17.849999999999998,
                "end_time": 18.018181818181816,
                "pitch": 59,
                "velocity": 80,
                "duration": 0.168181818181818,
                "tempo": 120.0
            },
            {
                "start_time": 18.05,
                "end_time": 18.118181818181817,
                "pitch": 59,
                "velocity": 80,
                "duration": 0.06818181818181657,
                "tempo": 120.0
            },
            {
                "start_time": 19.054545454545455,
                "end_time": 19.422727272727272,
                "pitch": 70,
                "velocity": 80,
                "duration": 0.3681818181818173,
                "tempo": 120.0
            },
            {
                "start_time": 19.456818181818182,
                "end_time": 19.62272727272727,
                "pitch": 71,
                "velocity": 80,
                "duration": 0.16590909090908923,
                "tempo": 120.0
            },
            {
                "start_time": 19.65681818181818,
                "end_time": 19.724999999999998,
                "pitch": 71,
                "velocity": 80,
                "duration": 0.06818181818181657,
                "tempo": 120.0
            },
            {
                "start_time": 20.659090909090907,
                "end_time": 21.027272727272727,
                "pitch": 56,
                "velocity": 80,
                "duration": 0.36818181818182083,
                "tempo": 120.0
            },
            {
                "start_time": 21.05909090909091,
                "end_time": 21.227272727272727,
                "pitch": 61,
                "velocity": 80,
                "duration": 0.168181818181818,
                "tempo": 120.0
            },
            {
                "start_time": 21.261363636363637,
                "end_time": 21.43181818181818,
                "pitch": 56,
                "velocity": 80,
                "duration": 0.1704545454545432,
                "tempo": 120.0
            },
            {
                "start_time": 21.46590909090909,
                "end_time": 21.638636363636362,
                "pitch": 65,
                "velocity": 80,
                "duration": 0.17272727272727195,
                "tempo": 120.0
            },
            {
                "start_time": 21.672727272727272,
                "end_time": 21.836363636363636,
                "pitch": 63,
                "velocity": 80,
                "duration": 0.16363636363636402,
                "tempo": 120.0
            },
            {
                "start_time": 21.868181818181817,
                "end_time": 22.03181818181818,
                "pitch": 61,
                "velocity": 80,
                "duration": 0.16363636363636402,
                "tempo": 120.0
            },
            {
                "start_time": 22.063636363636363,
                "end_time": 22.23181818181818,
                "pitch": 56,
                "velocity": 80,
                "duration": 0.168181818181818,
                "tempo": 120.0
            },
            {
                "start_time": 22.26590909090909,
                "end_time": 22.634090909090908,
                "pitch": 56,
                "velocity": 80,
                "duration": 0.3681818181818173,
                "tempo": 120.0
            },
            {
                "start_time": 22.668181818181818,
                "end_time": 22.834090909090907,
                "pitch": 61,
                "velocity": 80,
                "duration": 0.16590909090908923,
                "tempo": 120.0
            },
            {
                "start_time": 22.868181818181817,
                "end_time": 23.038636363636364,
                "pitch": 56,
                "velocity": 80,
                "duration": 0.17045454545454675,
                "tempo": 120.0
            },
            {
                "start_time": 23.07272727272727,
                "end_time": 23.243181818181817,
                "pitch": 65,
                "velocity": 80,
                "duration": 0.17045454545454675,
                "tempo": 120.0
            },
            {
                "start_time": 23.277272727272727,
                "end_time": 23.44090909090909,
                "pitch": 63,
                "velocity": 80,
                "duration": 0.16363636363636402,
                "tempo": 120.0
            },
            {
                "start_time": 23.472727272727273,
                "end_time": 23.636363636363637,
                "pitch": 61,
                "velocity": 80,
                "duration": 0.16363636363636402,
                "tempo": 120.0
            },
            {
                "start_time": 23.670454545454543,
                "end_time": 23.836363636363636,
                "pitch": 56,
                "velocity": 80,
                "duration": 0.16590909090909278,
                "tempo": 120.0
            },
            {
                "start_time": 23.870454545454546,
                "end_time": 24.238636363636363,
                "pitch": 61,
                "velocity": 80,
                "duration": 0.3681818181818173,
                "tempo": 120.0
            },
            {
                "start_time": 24.270454545454545,
                "end_time": 24.438636363636363,
                "pitch": 63,
                "velocity": 80,
                "duration": 0.168181818181818,
                "tempo": 120.0
            },
            {
                "start_time": 24.472727272727273,
                "end_time": 24.54090909090909,
                "pitch": 63,
                "velocity": 80,
                "duration": 0.06818181818181657,
                "tempo": 120.0
            },
            {
                "start_time": 25.474999999999998,
                "end_time": 25.847727272727273,
                "pitch": 73,
                "velocity": 80,
                "duration": 0.3727272727272748,
                "tempo": 120.0
            },
            {
                "start_time": 25.88181818181818,
                "end_time": 26.052272727272726,
                "pitch": 75,
                "velocity": 80,
                "duration": 0.17045454545454675,
                "tempo": 120.0
            },
            {
                "start_time": 26.086363636363636,
                "end_time": 26.152272727272727,
                "pitch": 75,
                "velocity": 80,
                "duration": 0.06590909090909136,
                "tempo": 120.0
            },
            {
                "start_time": 27.079545454545453,
                "end_time": 27.452272727272724,
                "pitch": 56,
                "velocity": 80,
                "duration": 0.37272727272727124,
                "tempo": 120.0
            },
            {
                "start_time": 27.486363636363635,
                "end_time": 27.659090909090907,
                "pitch": 56,
                "velocity": 80,
                "duration": 0.17272727272727195,
                "tempo": 120.0
            },
            {
                "start_time": 27.693181818181817,
                "end_time": 27.85909090909091,
                "pitch": 63,
                "velocity": 80,
                "duration": 0.16590909090909278,
                "tempo": 120.0
            },
            {
                "start_time": 27.893181818181816,
                "end_time": 28.05909090909091,
                "pitch": 56,
                "velocity": 80,
                "duration": 0.16590909090909278,
                "tempo": 120.0
            },
            {
                "start_time": 28.093181818181815,
                "end_time": 28.25681818181818,
                "pitch": 63,
                "velocity": 80,
                "duration": 0.16363636363636402,
                "tempo": 120.0
            },
            {
                "start_time": 28.288636363636364,
                "end_time": 28.652272727272727,
                "pitch": 56,
                "velocity": 80,
                "duration": 0.3636363636363633,
                "tempo": 120.0
            },
            {
                "start_time": 28.68409090909091,
                "end_time": 29.052272727272726,
                "pitch": 58,
                "velocity": 80,
                "duration": 0.3681818181818173,
                "tempo": 120.0
            },
            {
                "start_time": 29.086363636363636,
                "end_time": 29.254545454545454,
                "pitch": 58,
                "velocity": 80,
                "duration": 0.168181818181818,
                "tempo": 120.0
            },
            {
                "start_time": 29.286363636363635,
                "end_time": 29.454545454545453,
                "pitch": 65,
                "velocity": 80,
                "duration": 0.168181818181818,
                "tempo": 120.0
            },
            {
                "start_time": 29.486363636363635,
                "end_time": 29.654545454545453,
                "pitch": 58,
                "velocity": 80,
                "duration": 0.168181818181818,
                "tempo": 120.0
            },
            {
                "start_time": 29.686363636363634,
                "end_time": 29.854545454545452,
                "pitch": 65,
                "velocity": 80,
                "duration": 0.168181818181818,
                "tempo": 120.0
            },
            {
                "start_time": 29.886363636363637,
                "end_time": 30.254545454545454,
                "pitch": 58,
                "velocity": 80,
                "duration": 0.3681818181818173,
                "tempo": 120.0
            },
            {
                "start_time": 30.28863636363636,
                "end_time": 30.65681818181818,
                "pitch": 66,
                "velocity": 80,
                "duration": 0.36818181818182083,
                "tempo": 120.0
            },
            {
                "start_time": 30.690909090909088,
                "end_time": 30.722727272727273,
                "pitch": 65,
                "velocity": 80,
                "duration": 0.031818181818184854,
                "tempo": 120.0
            },
            {
                "start_time": 30.75681818181818,
                "end_time": 30.79090909090909,
                "pitch": 66,
                "velocity": 80,
                "duration": 0.03409090909091006,
                "tempo": 120.0
            },
            {
                "start_time": 30.82272727272727,
                "end_time": 30.85681818181818,
                "pitch": 65,
                "velocity": 80,
                "duration": 0.03409090909091006,
                "tempo": 120.0
            },
            {
                "start_time": 30.89090909090909,
                "end_time": 31.061363636363634,
                "pitch": 63,
                "velocity": 80,
                "duration": 0.1704545454545432,
                "tempo": 120.0
            },
            {
                "start_time": 31.095454545454544,
                "end_time": 31.46363636363636,
                "pitch": 65,
                "velocity": 80,
                "duration": 0.3681818181818173,
                "tempo": 120.0
            },
            {
                "start_time": 31.49772727272727,
                "end_time": 31.529545454545453,
                "pitch": 63,
                "velocity": 80,
                "duration": 0.0318181818181813,
                "tempo": 120.0
            },
            {
                "start_time": 31.561363636363634,
                "end_time": 31.595454545454544,
                "pitch": 65,
                "velocity": 80,
                "duration": 0.03409090909091006,
                "tempo": 120.0
            },
            {
                "start_time": 31.627272727272725,
                "end_time": 31.659090909090907,
                "pitch": 63,
                "velocity": 80,
                "duration": 0.0318181818181813,
                "tempo": 120.0
            },
            {
                "start_time": 31.693181818181817,
                "end_time": 31.863636363636363,
                "pitch": 61,
                "velocity": 80,
                "duration": 0.17045454545454675,
                "tempo": 120.0
            },
            {
                "start_time": 31.89772727272727,
                "end_time": 32.27045454545454,
                "pitch": 63,
                "velocity": 80,
                "duration": 0.37272727272727124,
                "tempo": 120.0
            },
            {
                "start_time": 32.304545454545455,
                "end_time": 32.336363636363636,
                "pitch": 61,
                "velocity": 80,
                "duration": 0.0318181818181813,
                "tempo": 120.0
            },
            {
                "start_time": 32.37045454545454,
                "end_time": 32.404545454545456,
                "pitch": 63,
                "velocity": 80,
                "duration": 0.03409090909091361,
                "tempo": 120.0
            },
            {
                "start_time": 32.43636363636364,
                "end_time": 32.470454545454544,
                "pitch": 61,
                "velocity": 80,
                "duration": 0.03409090909090651,
                "tempo": 120.0
            },
            {
                "start_time": 32.50454545454545,
                "end_time": 32.67045454545455,
                "pitch": 59,
                "velocity": 80,
                "duration": 0.16590909090909634,
                "tempo": 120.0
            },
            {
                "start_time": 32.70454545454545,
                "end_time": 33.070454545454545,
                "pitch": 61,
                "velocity": 80,
                "duration": 0.36590909090909207,
                "tempo": 120.0
            },
            {
                "start_time": 33.10227272727273,
                "end_time": 33.13409090909091,
                "pitch": 59,
                "velocity": 80,
                "duration": 0.0318181818181813,
                "tempo": 120.0
            },
            {
                "start_time": 33.168181818181814,
                "end_time": 33.199999999999996,
                "pitch": 61,
                "velocity": 80,
                "duration": 0.0318181818181813,
                "tempo": 120.0
            },
            {
                "start_time": 33.23181818181818,
                "end_time": 33.26590909090909,
                "pitch": 59,
                "velocity": 80,
                "duration": 0.03409090909091361,
                "tempo": 120.0
            },
            {
                "start_time": 33.29772727272727,
                "end_time": 33.46818181818182,
                "pitch": 58,
                "velocity": 80,
                "duration": 0.17045454545454675,
                "tempo": 120.0
            },
            {
                "start_time": 33.502272727272725,
                "end_time": 33.87272727272727,
                "pitch": 56,
                "velocity": 80,
                "duration": 0.3704545454545425,
                "tempo": 120.0
            },
            {
                "start_time": 33.904545454545456,
                "end_time": 34.06818181818181,
                "pitch": 56,
                "velocity": 80,
                "duration": 0.16363636363635692,
                "tempo": 120.0
            },
            {
                "start_time": 34.1,
                "end_time": 34.27272727272727,
                "pitch": 63,
                "velocity": 80,
                "duration": 0.17272727272727195,
                "tempo": 120.0
            },
            {
                "start_time": 34.30681818181818,
                "end_time": 34.47727272727273,
                "pitch": 56,
                "velocity": 80,
                "duration": 0.17045454545454675,
                "tempo": 120.0
            },
            {
                "start_time": 34.51136363636363,
                "end_time": 34.675,
                "pitch": 63,
                "velocity": 80,
                "duration": 0.16363636363636402,
                "tempo": 120.0
            },
            {
                "start_time": 34.70681818181818,
                "end_time": 34.87045454545454,
                "pitch": 56,
                "velocity": 80,
                "duration": 0.16363636363636402,
                "tempo": 120.0
            },
            {
                "start_time": 34.904545454545456,
                "end_time": 35.070454545454545,
                "pitch": 56,
                "velocity": 80,
                "duration": 0.16590909090908923,
                "tempo": 120.0
            },
            {
                "start_time": 35.10454545454545,
                "end_time": 35.470454545454544,
                "pitch": 58,
                "velocity": 80,
                "duration": 0.36590909090909207,
                "tempo": 120.0
            },
            {
                "start_time": 35.50454545454545,
                "end_time": 35.67045454545455,
                "pitch": 58,
                "velocity": 80,
                "duration": 0.16590909090909634,
                "tempo": 120.0
            },
            {
                "start_time": 35.70454545454545,
                "end_time": 35.875,
                "pitch": 65,
                "velocity": 80,
                "duration": 0.17045454545454675,
                "tempo": 120.0
            },
            {
                "start_time": 35.90909090909091,
                "end_time": 36.07954545454545,
                "pitch": 58,
                "velocity": 80,
                "duration": 0.17045454545454675,
                "tempo": 120.0
            },
            {
                "start_time": 36.11363636363636,
                "end_time": 36.277272727272724,
                "pitch": 65,
                "velocity": 80,
                "duration": 0.16363636363636402,
                "tempo": 120.0
            },
            {
                "start_time": 36.31136363636364,
                "end_time": 36.47272727272727,
                "pitch": 58,
                "velocity": 80,
                "duration": 0.1613636363636317,
                "tempo": 120.0
            },
            {
                "start_time": 36.50681818181818,
                "end_time": 36.67727272727272,
                "pitch": 58,
                "velocity": 80,
                "duration": 0.17045454545453964,
                "tempo": 120.0
            },
            {
                "start_time": 36.711363636363636,
                "end_time": 37.07954545454545,
                "pitch": 66,
                "velocity": 80,
                "duration": 0.3681818181818173,
                "tempo": 120.0
            },
            {
                "start_time": 37.11363636363636,
                "end_time": 37.277272727272724,
                "pitch": 59,
                "velocity": 80,
                "duration": 0.16363636363636402,
                "tempo": 120.0
            },
            {
                "start_time": 37.309090909090905,
                "end_time": 37.475,
                "pitch": 63,
                "velocity": 80,
                "duration": 0.16590909090909634,
                "tempo": 120.0
            },
            {
                "start_time": 37.50909090909091,
                "end_time": 37.675,
                "pitch": 66,
                "velocity": 80,
                "duration": 0.16590909090908923,
                "tempo": 120.0
            },
            {
                "start_time": 37.70909090909091,
                "end_time": 37.875,
                "pitch": 68,
                "velocity": 80,
                "duration": 0.16590909090908923,
                "tempo": 120.0
            },
            {
                "start_time": 37.90909090909091,
                "end_time": 38.074999999999996,
                "pitch": 63,
                "velocity": 80,
                "duration": 0.16590909090908923,
                "tempo": 120.0
            },
            {
                "start_time": 38.10909090909091,
                "end_time": 38.275,
                "pitch": 59,
                "velocity": 80,
                "duration": 0.16590909090908923,
                "tempo": 120.0
            },
            {
                "start_time": 38.309090909090905,
                "end_time": 38.475,
                "pitch": 66,
                "velocity": 80,
                "duration": 0.16590909090909634,
                "tempo": 120.0
            },
            {
                "start_time": 38.50909090909091,
                "end_time": 38.679545454545455,
                "pitch": 65,
                "velocity": 80,
                "duration": 0.17045454545454675,
                "tempo": 120.0
            },
            {
                "start_time": 38.71363636363636,
                "end_time": 38.78181818181818,
                "pitch": 65,
                "velocity": 80,
                "duration": 0.06818181818182012,
                "tempo": 120.0
            }
        ],
        "Synth Bass 1": [
            {
                "start_time": 0.7840909090909091,
                "end_time": 0.85,
                "pitch": 44,
                "velocity": 64,
                "duration": 0.06590909090909092,
                "tempo": 120.0
            },
            {
                "start_time": 0.984090909090909,
                "end_time": 1.05,
                "pitch": 46,
                "velocity": 64,
                "duration": 0.06590909090909103,
                "tempo": 120.0
            },
            {
                "start_time": 1.3795454545454544,
                "end_time": 1.7477272727272726,
                "pitch": 51,
                "velocity": 64,
                "duration": 0.36818181818181817,
                "tempo": 120.0
            },
            {
                "start_time": 1.7818181818181817,
                "end_time": 1.9522727272727272,
                "pitch": 51,
                "velocity": 64,
                "duration": 0.17045454545454541,
                "tempo": 120.0
            },
            {
                "start_time": 1.9863636363636363,
                "end_time": 2.1522727272727273,
                "pitch": 51,
                "velocity": 64,
                "duration": 0.165909090909091,
                "tempo": 120.0
            },
            {
                "start_time": 2.186363636363636,
                "end_time": 2.352272727272727,
                "pitch": 51,
                "velocity": 64,
                "duration": 0.165909090909091,
                "tempo": 120.0
            },
            {
                "start_time": 2.3863636363636362,
                "end_time": 2.5522727272727272,
                "pitch": 51,
                "velocity": 64,
                "duration": 0.165909090909091,
                "tempo": 120.0
            },
            {
                "start_time": 2.5863636363636364,
                "end_time": 2.752272727272727,
                "pitch": 51,
                "velocity": 64,
                "duration": 0.16590909090909056,
                "tempo": 120.0
            },
            {
                "start_time": 2.786363636363636,
                "end_time": 2.952272727272727,
                "pitch": 51,
                "velocity": 64,
                "duration": 0.165909090909091,
                "tempo": 120.0
            },
            {
                "start_time": 2.9863636363636363,
                "end_time": 3.1522727272727273,
                "pitch": 51,
                "velocity": 64,
                "duration": 0.165909090909091,
                "tempo": 120.0
            },
            {
                "start_time": 3.186363636363636,
                "end_time": 3.3568181818181815,
                "pitch": 51,
                "velocity": 64,
                "duration": 0.17045454545454541,
                "tempo": 120.0
            },
            {
                "start_time": 3.3909090909090907,
                "end_time": 3.5636363636363635,
                "pitch": 51,
                "velocity": 64,
                "duration": 0.17272727272727284,
                "tempo": 120.0
            },
            {
                "start_time": 3.5977272727272727,
                "end_time": 3.7636363636363637,
                "pitch": 51,
                "velocity": 64,
                "duration": 0.165909090909091,
                "tempo": 120.0
            },
            {
                "start_time": 3.7977272727272724,
                "end_time": 3.9636363636363634,
                "pitch": 51,
                "velocity": 64,
                "duration": 0.165909090909091,
                "tempo": 120.0
            },
            {
                "start_time": 3.9977272727272726,
                "end_time": 4.161363636363636,
                "pitch": 51,
                "velocity": 64,
                "duration": 0.16363636363636358,
                "tempo": 120.0
            },
            {
                "start_time": 4.193181818181818,
                "end_time": 4.3568181818181815,
                "pitch": 51,
                "velocity": 64,
                "duration": 0.16363636363636314,
                "tempo": 120.0
            },
            {
                "start_time": 4.388636363636364,
                "end_time": 4.556818181818182,
                "pitch": 51,
                "velocity": 64,
                "duration": 0.168181818181818,
                "tempo": 120.0
            },
            {
                "start_time": 4.588636363636364,
                "end_time": 4.756818181818182,
                "pitch": 51,
                "velocity": 64,
                "duration": 0.168181818181818,
                "tempo": 120.0
            },
            {
                "start_time": 4.788636363636363,
                "end_time": 4.961363636363636,
                "pitch": 51,
                "velocity": 64,
                "duration": 0.17272727272727284,
                "tempo": 120.0
            },
            {
                "start_time": 4.995454545454545,
                "end_time": 5.165909090909091,
                "pitch": 51,
                "velocity": 64,
                "duration": 0.17045454545454586,
                "tempo": 120.0
            },
            {
                "start_time": 5.2,
                "end_time": 5.368181818181818,
                "pitch": 51,
                "velocity": 64,
                "duration": 0.168181818181818,
                "tempo": 120.0
            },
            {
                "start_time": 5.402272727272727,
                "end_time": 5.570454545454545,
                "pitch": 51,
                "velocity": 64,
                "duration": 0.168181818181818,
                "tempo": 120.0
            },
            {
                "start_time": 5.602272727272727,
                "end_time": 5.765909090909091,
                "pitch": 51,
                "velocity": 64,
                "duration": 0.16363636363636402,
                "tempo": 120.0
            },
            {
                "start_time": 5.8,
                "end_time": 5.961363636363636,
                "pitch": 51,
                "velocity": 64,
                "duration": 0.16136363636363615,
                "tempo": 120.0
            },
            {
                "start_time": 5.995454545454545,
                "end_time": 6.163636363636363,
                "pitch": 51,
                "velocity": 64,
                "duration": 0.168181818181818,
                "tempo": 120.0
            },
            {
                "start_time": 6.195454545454545,
                "end_time": 6.363636363636363,
                "pitch": 47,
                "velocity": 64,
                "duration": 0.168181818181818,
                "tempo": 120.0
            },
            {
                "start_time": 6.3977272727272725,
                "end_time": 6.5681818181818175,
                "pitch": 47,
                "velocity": 64,
                "duration": 0.17045454545454497,
                "tempo": 120.0
            },
            {
                "start_time": 6.602272727272727,
                "end_time": 6.7749999999999995,
                "pitch": 47,
                "velocity": 64,
                "duration": 0.17272727272727284,
                "tempo": 120.0
            },
            {
                "start_time": 6.809090909090909,
                "end_time": 6.977272727272727,
                "pitch": 47,
                "velocity": 64,
                "duration": 0.168181818181818,
                "tempo": 120.0
            },
            {
                "start_time": 7.009090909090909,
                "end_time": 7.177272727272727,
                "pitch": 47,
                "velocity": 64,
                "duration": 0.168181818181818,
                "tempo": 120.0
            },
            {
                "start_time": 7.211363636363636,
                "end_time": 7.277272727272727,
                "pitch": 44,
                "velocity": 64,
                "duration": 0.06590909090909136,
                "tempo": 120.0
            },
            {
                "start_time": 7.406818181818181,
                "end_time": 7.472727272727273,
                "pitch": 46,
                "velocity": 64,
                "duration": 0.06590909090909136,
                "tempo": 120.0
            },
            {
                "start_time": 7.804545454545454,
                "end_time": 8.174999999999999,
                "pitch": 51,
                "velocity": 64,
                "duration": 0.37045454545454515,
                "tempo": 120.0
            },
            {
                "start_time": 8.206818181818182,
                "end_time": 8.375,
                "pitch": 51,
                "velocity": 64,
                "duration": 0.168181818181818,
                "tempo": 120.0
            },
            {
                "start_time": 8.409090909090908,
                "end_time": 8.577272727272726,
                "pitch": 51,
                "velocity": 64,
                "duration": 0.168181818181818,
                "tempo": 120.0
            },
            {
                "start_time": 8.611363636363636,
                "end_time": 8.777272727272727,
                "pitch": 51,
                "velocity": 64,
                "duration": 0.165909090909091,
                "tempo": 120.0
            },
            {
                "start_time": 8.811363636363636,
                "end_time": 8.977272727272727,
                "pitch": 51,
                "velocity": 64,
                "duration": 0.165909090909091,
                "tempo": 120.0
            },
            {
                "start_time": 9.011363636363637,
                "end_time": 9.177272727272728,
                "pitch": 51,
                "velocity": 64,
                "duration": 0.165909090909091,
                "tempo": 120.0
            },
            {
                "start_time": 9.211363636363636,
                "end_time": 9.379545454545454,
                "pitch": 51,
                "velocity": 64,
                "duration": 0.168181818181818,
                "tempo": 120.0
            },
            {
                "start_time": 9.413636363636364,
                "end_time": 9.581818181818182,
                "pitch": 51,
                "velocity": 64,
                "duration": 0.168181818181818,
                "tempo": 120.0
            },
            {
                "start_time": 9.613636363636363,
                "end_time": 9.786363636363635,
                "pitch": 51,
                "velocity": 64,
                "duration": 0.17272727272727195,
                "tempo": 120.0
            },
            {
                "start_time": 9.820454545454545,
                "end_time": 9.99090909090909,
                "pitch": 51,
                "velocity": 64,
                "duration": 0.17045454545454497,
                "tempo": 120.0
            },
            {
                "start_time": 10.025,
                "end_time": 10.193181818181818,
                "pitch": 51,
                "velocity": 64,
                "duration": 0.168181818181818,
                "tempo": 120.0
            },
            {
                "start_time": 10.227272727272727,
                "end_time": 10.395454545454545,
                "pitch": 51,
                "velocity": 64,
                "duration": 0.168181818181818,
                "tempo": 120.0
            },
            {
                "start_time": 10.427272727272726,
                "end_time": 10.59090909090909,
                "pitch": 51,
                "velocity": 64,
                "duration": 0.16363636363636402,
                "tempo": 120.0
            },
            {
                "start_time": 10.625,
                "end_time": 10.786363636363635,
                "pitch": 51,
                "velocity": 64,
                "duration": 0.16136363636363527,
                "tempo": 120.0
            },
            {
                "start_time": 10.820454545454545,
                "end_time": 10.986363636363636,
                "pitch": 51,
                "velocity": 64,
                "duration": 0.165909090909091,
                "tempo": 120.0
            },
            {
                "start_time": 11.020454545454545,
                "end_time": 11.186363636363636,
                "pitch": 51,
                "velocity": 64,
                "duration": 0.165909090909091,
                "tempo": 120.0
            },
            {
                "start_time": 11.220454545454546,
                "end_time": 11.39090909090909,
                "pitch": 51,
                "velocity": 64,
                "duration": 0.17045454545454497,
                "tempo": 120.0
            },
            {
                "start_time": 11.424999999999999,
                "end_time": 11.597727272727273,
                "pitch": 51,
                "velocity": 64,
                "duration": 0.17272727272727373,
                "tempo": 120.0
            },
            {
                "start_time": 11.631818181818181,
                "end_time": 11.797727272727272,
                "pitch": 51,
                "velocity": 64,
                "duration": 0.165909090909091,
                "tempo": 120.0
            },
            {
                "start_time": 11.831818181818182,
                "end_time": 12.0,
                "pitch": 51,
                "velocity": 64,
                "duration": 0.168181818181818,
                "tempo": 120.0
            },
            {
                "start_time": 12.034090909090908,
                "end_time": 12.197727272727272,
                "pitch": 51,
                "velocity": 64,
                "duration": 0.16363636363636402,
                "tempo": 120.0
            },
            {
                "start_time": 12.229545454545454,
                "end_time": 12.393181818181818,
                "pitch": 51,
                "velocity": 64,
                "duration": 0.16363636363636402,
                "tempo": 120.0
            },
            {
                "start_time": 12.424999999999999,
                "end_time": 12.593181818181817,
                "pitch": 51,
                "velocity": 64,
                "duration": 0.168181818181818,
                "tempo": 120.0
            },
            {
                "start_time": 12.627272727272727,
                "end_time": 12.795454545454545,
                "pitch": 47,
                "velocity": 64,
                "duration": 0.168181818181818,
                "tempo": 120.0
            },
            {
                "start_time": 12.829545454545453,
                "end_time": 12.995454545454544,
                "pitch": 47,
                "velocity": 64,
                "duration": 0.165909090909091,
                "tempo": 120.0
            },
            {
                "start_time": 13.029545454545454,
                "end_time": 13.195454545454545,
                "pitch": 47,
                "velocity": 64,
                "duration": 0.165909090909091,
                "tempo": 120.0
            },
            {
                "start_time": 13.229545454545454,
                "end_time": 13.395454545454545,
                "pitch": 47,
                "velocity": 64,
                "duration": 0.165909090909091,
                "tempo": 120.0
            },
            {
                "start_time": 13.429545454545455,
                "end_time": 13.597727272727273,
                "pitch": 47,
                "velocity": 64,
                "duration": 0.168181818181818,
                "tempo": 120.0
            },
            {
                "start_time": 13.631818181818181,
                "end_time": 13.697727272727272,
                "pitch": 42,
                "velocity": 64,
                "duration": 0.06590909090909136,
                "tempo": 120.0
            },
            {
                "start_time": 13.831818181818182,
                "end_time": 13.899999999999999,
                "pitch": 44,
                "velocity": 64,
                "duration": 0.06818181818181657,
                "tempo": 120.0
            },
            {
                "start_time": 14.236363636363636,
                "end_time": 14.604545454545454,
                "pitch": 49,
                "velocity": 64,
                "duration": 0.3681818181818173,
                "tempo": 120.0
            },
            {
                "start_time": 14.638636363636364,
                "end_time": 14.806818181818182,
                "pitch": 49,
                "velocity": 64,
                "duration": 0.168181818181818,
                "tempo": 120.0
            },
            {
                "start_time": 14.838636363636363,
                "end_time": 15.011363636363635,
                "pitch": 49,
                "velocity": 64,
                "duration": 0.17272727272727195,
                "tempo": 120.0
            },
            {
                "start_time": 15.045454545454545,
                "end_time": 15.21590909090909,
                "pitch": 49,
                "velocity": 64,
                "duration": 0.17045454545454497,
                "tempo": 120.0
            },
            {
                "start_time": 15.25,
                "end_time": 15.413636363636362,
                "pitch": 49,
                "velocity": 64,
                "duration": 0.16363636363636225,
                "tempo": 120.0
            },
            {
                "start_time": 15.445454545454545,
                "end_time": 15.609090909090908,
                "pitch": 49,
                "velocity": 64,
                "duration": 0.16363636363636225,
                "tempo": 120.0
            },
            {
                "start_time": 15.643181818181818,
                "end_time": 15.809090909090909,
                "pitch": 49,
                "velocity": 64,
                "duration": 0.165909090909091,
                "tempo": 120.0
            },
            {
                "start_time": 15.843181818181817,
                "end_time": 16.21363636363636,
                "pitch": 49,
                "velocity": 64,
                "duration": 0.37045454545454426,
                "tempo": 120.0
            },
            {
                "start_time": 16.245454545454546,
                "end_time": 16.413636363636364,
                "pitch": 49,
                "velocity": 64,
                "duration": 0.168181818181818,
                "tempo": 120.0
            },
            {
                "start_time": 16.44772727272727,
                "end_time": 16.618181818181817,
                "pitch": 49,
                "velocity": 64,
                "duration": 0.17045454545454675,
                "tempo": 120.0
            },
            {
                "start_time": 16.652272727272727,
                "end_time": 16.825,
                "pitch": 49,
                "velocity": 64,
                "duration": 0.17272727272727195,
                "tempo": 120.0
            },
            {
                "start_time": 16.85909090909091,
                "end_time": 17.022727272727273,
                "pitch": 49,
                "velocity": 64,
                "duration": 0.16363636363636402,
                "tempo": 120.0
            },
            {
                "start_time": 17.054545454545455,
                "end_time": 17.21818181818182,
                "pitch": 49,
                "velocity": 64,
                "duration": 0.16363636363636402,
                "tempo": 120.0
            },
            {
                "start_time": 17.25,
                "end_time": 17.418181818181818,
                "pitch": 49,
                "velocity": 64,
                "duration": 0.168181818181818,
                "tempo": 120.0
            },
            {
                "start_time": 17.45,
                "end_time": 17.818181818181817,
                "pitch": 47,
                "velocity": 64,
                "duration": 0.3681818181818173,
                "tempo": 120.0
            },
            {
                "start_time": 17.849999999999998,
                "end_time": 18.018181818181816,
                "pitch": 47,
                "velocity": 64,
                "duration": 0.168181818181818,
                "tempo": 120.0
            },
            {
                "start_time": 18.05,
                "end_time": 18.220454545454544,
                "pitch": 47,
                "velocity": 64,
                "duration": 0.1704545454545432,
                "tempo": 120.0
            },
            {
                "start_time": 18.25681818181818,
                "end_time": 18.427272727272726,
                "pitch": 47,
                "velocity": 64,
                "duration": 0.17045454545454675,
                "tempo": 120.0
            },
            {
                "start_time": 18.461363636363636,
                "end_time": 18.625,
                "pitch": 47,
                "velocity": 64,
                "duration": 0.16363636363636402,
                "tempo": 120.0
            },
            {
                "start_time": 18.65681818181818,
                "end_time": 18.820454545454545,
                "pitch": 47,
                "velocity": 64,
                "duration": 0.16363636363636402,
                "tempo": 120.0
            },
            {
                "start_time": 18.852272727272727,
                "end_time": 19.020454545454545,
                "pitch": 47,
                "velocity": 64,
                "duration": 0.168181818181818,
                "tempo": 120.0
            },
            {
                "start_time": 19.054545454545455,
                "end_time": 19.422727272727272,
                "pitch": 47,
                "velocity": 64,
                "duration": 0.3681818181818173,
                "tempo": 120.0
            },
            {
                "start_time": 19.456818181818182,
                "end_time": 19.62272727272727,
                "pitch": 47,
                "velocity": 64,
                "duration": 0.16590909090908923,
                "tempo": 120.0
            },
            {
                "start_time": 19.65681818181818,
                "end_time": 19.827272727272728,
                "pitch": 47,
                "velocity": 64,
                "duration": 0.17045454545454675,
                "tempo": 120.0
            },
            {
                "start_time": 19.861363636363635,
                "end_time": 20.03181818181818,
                "pitch": 47,
                "velocity": 64,
                "duration": 0.17045454545454675,
                "tempo": 120.0
            },
            {
                "start_time": 20.06590909090909,
                "end_time": 20.229545454545452,
                "pitch": 47,
                "velocity": 64,
                "duration": 0.16363636363636047,
                "tempo": 120.0
            },
            {
                "start_time": 20.263636363636362,
                "end_time": 20.425,
                "pitch": 47,
                "velocity": 64,
                "duration": 0.16136363636363882,
                "tempo": 120.0
            },
            {
                "start_time": 20.459090909090907,
                "end_time": 20.625,
                "pitch": 47,
                "velocity": 64,
                "duration": 0.16590909090909278,
                "tempo": 120.0
            },
            {
                "start_time": 20.659090909090907,
                "end_time": 21.027272727272727,
                "pitch": 49,
                "velocity": 64,
                "duration": 0.36818181818182083,
                "tempo": 120.0
            },
            {
                "start_time": 21.05909090909091,
                "end_time": 21.227272727272727,
                "pitch": 49,
                "velocity": 64,
                "duration": 0.168181818181818,
                "tempo": 120.0
            },
            {
                "start_time": 21.261363636363637,
                "end_time": 21.43181818181818,
                "pitch": 49,
                "velocity": 64,
                "duration": 0.1704545454545432,
                "tempo": 120.0
            },
            {
                "start_time": 21.46590909090909,
                "end_time": 21.638636363636362,
                "pitch": 49,
                "velocity": 64,
                "duration": 0.17272727272727195,
                "tempo": 120.0
            },
            {
                "start_time": 21.672727272727272,
                "end_time": 21.836363636363636,
                "pitch": 49,
                "velocity": 64,
                "duration": 0.16363636363636402,
                "tempo": 120.0
            },
            {
                "start_time": 21.868181818181817,
                "end_time": 22.03181818181818,
                "pitch": 49,
                "velocity": 64,
                "duration": 0.16363636363636402,
                "tempo": 120.0
            },
            {
                "start_time": 22.063636363636363,
                "end_time": 22.23181818181818,
                "pitch": 49,
                "velocity": 64,
                "duration": 0.168181818181818,
                "tempo": 120.0
            },
            {
                "start_time": 22.26590909090909,
                "end_time": 22.634090909090908,
                "pitch": 49,
                "velocity": 64,
                "duration": 0.3681818181818173,
                "tempo": 120.0
            },
            {
                "start_time": 22.668181818181818,
                "end_time": 22.834090909090907,
                "pitch": 49,
                "velocity": 64,
                "duration": 0.16590909090908923,
                "tempo": 120.0
            },
            {
                "start_time": 22.868181818181817,
                "end_time": 23.038636363636364,
                "pitch": 49,
                "velocity": 64,
                "duration": 0.17045454545454675,
                "tempo": 120.0
            },
            {
                "start_time": 23.07272727272727,
                "end_time": 23.243181818181817,
                "pitch": 49,
                "velocity": 64,
                "duration": 0.17045454545454675,
                "tempo": 120.0
            },
            {
                "start_time": 23.277272727272727,
                "end_time": 23.44090909090909,
                "pitch": 49,
                "velocity": 64,
                "duration": 0.16363636363636402,
                "tempo": 120.0
            },
            {
                "start_time": 23.472727272727273,
                "end_time": 23.636363636363637,
                "pitch": 49,
                "velocity": 64,
                "duration": 0.16363636363636402,
                "tempo": 120.0
            },
            {
                "start_time": 23.670454545454543,
                "end_time": 23.836363636363636,
                "pitch": 49,
                "velocity": 64,
                "duration": 0.16590909090909278,
                "tempo": 120.0
            },
            {
                "start_time": 23.870454545454546,
                "end_time": 24.238636363636363,
                "pitch": 47,
                "velocity": 64,
                "duration": 0.3681818181818173,
                "tempo": 120.0
            },
            {
                "start_time": 24.270454545454545,
                "end_time": 24.438636363636363,
                "pitch": 47,
                "velocity": 64,
                "duration": 0.168181818181818,
                "tempo": 120.0
            },
            {
                "start_time": 24.472727272727273,
                "end_time": 24.643181818181816,
                "pitch": 47,
                "velocity": 64,
                "duration": 0.1704545454545432,
                "tempo": 120.0
            },
            {
                "start_time": 24.677272727272726,
                "end_time": 24.849999999999998,
                "pitch": 47,
                "velocity": 64,
                "duration": 0.17272727272727195,
                "tempo": 120.0
            },
            {
                "start_time": 24.884090909090908,
                "end_time": 25.047727272727272,
                "pitch": 47,
                "velocity": 64,
                "duration": 0.16363636363636402,
                "tempo": 120.0
            },
            {
                "start_time": 25.079545454545453,
                "end_time": 25.243181818181817,
                "pitch": 47,
                "velocity": 64,
                "duration": 0.16363636363636402,
                "tempo": 120.0
            },
            {
                "start_time": 25.275,
                "end_time": 25.443181818181817,
                "pitch": 47,
                "velocity": 64,
                "duration": 0.168181818181818,
                "tempo": 120.0
            },
            {
                "start_time": 25.474999999999998,
                "end_time": 25.847727272727273,
                "pitch": 47,
                "velocity": 64,
                "duration": 0.3727272727272748,
                "tempo": 120.0
            },
            {
                "start_time": 25.88181818181818,
                "end_time": 26.052272727272726,
                "pitch": 47,
                "velocity": 64,
                "duration": 0.17045454545454675,
                "tempo": 120.0
            },
            {
                "start_time": 26.086363636363636,
                "end_time": 26.252272727272725,
                "pitch": 47,
                "velocity": 64,
                "duration": 0.16590909090908923,
                "tempo": 120.0
            },
            {
                "start_time": 26.286363636363635,
                "end_time": 26.452272727272724,
                "pitch": 47,
                "velocity": 64,
                "duration": 0.16590909090908923,
                "tempo": 120.0
            },
            {
                "start_time": 26.486363636363635,
                "end_time": 26.65,
                "pitch": 47,
                "velocity": 64,
                "duration": 0.16363636363636402,
                "tempo": 120.0
            },
            {
                "start_time": 26.68181818181818,
                "end_time": 26.845454545454544,
                "pitch": 47,
                "velocity": 64,
                "duration": 0.16363636363636402,
                "tempo": 120.0
            },
            {
                "start_time": 26.879545454545454,
                "end_time": 27.045454545454543,
                "pitch": 47,
                "velocity": 64,
                "duration": 0.16590909090908923,
                "tempo": 120.0
            },
            {
                "start_time": 27.079545454545453,
                "end_time": 27.452272727272724,
                "pitch": 44,
                "velocity": 64,
                "duration": 0.37272727272727124,
                "tempo": 120.0
            },
            {
                "start_time": 27.486363636363635,
                "end_time": 27.659090909090907,
                "pitch": 44,
                "velocity": 64,
                "duration": 0.17272727272727195,
                "tempo": 120.0
            },
            {
                "start_time": 27.693181818181817,
                "end_time": 27.85909090909091,
                "pitch": 44,
                "velocity": 64,
                "duration": 0.16590909090909278,
                "tempo": 120.0
            },
            {
                "start_time": 27.893181818181816,
                "end_time": 28.05909090909091,
                "pitch": 44,
                "velocity": 64,
                "duration": 0.16590909090909278,
                "tempo": 120.0
            },
            {
                "start_time": 28.093181818181815,
                "end_time": 28.25681818181818,
                "pitch": 44,
                "velocity": 64,
                "duration": 0.16363636363636402,
                "tempo": 120.0
            },
            {
                "start_time": 28.288636363636364,
                "end_time": 28.452272727272724,
                "pitch": 44,
                "velocity": 64,
                "duration": 0.16363636363636047,
                "tempo": 120.0
            },
            {
                "start_time": 28.48409090909091,
                "end_time": 28.652272727272727,
                "pitch": 44,
                "velocity": 64,
                "duration": 0.168181818181818,
                "tempo": 120.0
            },
            {
                "start_time": 28.68409090909091,
                "end_time": 29.052272727272726,
                "pitch": 53,
                "velocity": 64,
                "duration": 0.3681818181818173,
                "tempo": 120.0
            },
            {
                "start_time": 29.086363636363636,
                "end_time": 29.254545454545454,
                "pitch": 53,
                "velocity": 64,
                "duration": 0.168181818181818,
                "tempo": 120.0
            },
            {
                "start_time": 29.286363636363635,
                "end_time": 29.454545454545453,
                "pitch": 53,
                "velocity": 64,
                "duration": 0.168181818181818,
                "tempo": 120.0
            },
            {
                "start_time": 29.486363636363635,
                "end_time": 29.654545454545453,
                "pitch": 53,
                "velocity": 64,
                "duration": 0.168181818181818,
                "tempo": 120.0
            },
            {
                "start_time": 29.686363636363634,
                "end_time": 29.854545454545452,
                "pitch": 53,
                "velocity": 64,
                "duration": 0.168181818181818,
                "tempo": 120.0
            },
            {
                "start_time": 29.886363636363637,
                "end_time": 30.054545454545455,
                "pitch": 53,
                "velocity": 64,
                "duration": 0.168181818181818,
                "tempo": 120.0
            },
            {
                "start_time": 30.086363636363636,
                "end_time": 30.254545454545454,
                "pitch": 53,
                "velocity": 64,
                "duration": 0.168181818181818,
                "tempo": 120.0
            },
            {
                "start_time": 30.28863636363636,
                "end_time": 30.65681818181818,
                "pitch": 51,
                "velocity": 64,
                "duration": 0.36818181818182083,
                "tempo": 120.0
            },
            {
                "start_time": 30.690909090909088,
                "end_time": 30.85681818181818,
                "pitch": 51,
                "velocity": 64,
                "duration": 0.16590909090909278,
                "tempo": 120.0
            },
            {
                "start_time": 30.89090909090909,
                "end_time": 31.061363636363634,
                "pitch": 51,
                "velocity": 64,
                "duration": 0.1704545454545432,
                "tempo": 120.0
            },
            {
                "start_time": 31.095454545454544,
                "end_time": 31.26590909090909,
                "pitch": 51,
                "velocity": 64,
                "duration": 0.17045454545454675,
                "tempo": 120.0
            },
            {
                "start_time": 31.299999999999997,
                "end_time": 31.46363636363636,
                "pitch": 51,
                "velocity": 64,
                "duration": 0.16363636363636402,
                "tempo": 120.0
            },
            {
                "start_time": 31.49772727272727,
                "end_time": 31.659090909090907,
                "pitch": 51,
                "velocity": 64,
                "duration": 0.16136363636363527,
                "tempo": 120.0
            },
            {
                "start_time": 31.693181818181817,
                "end_time": 31.863636363636363,
                "pitch": 51,
                "velocity": 64,
                "duration": 0.17045454545454675,
                "tempo": 120.0
            },
            {
                "start_time": 31.89772727272727,
                "end_time": 32.06818181818182,
                "pitch": 51,
                "velocity": 64,
                "duration": 0.1704545454545503,
                "tempo": 120.0
            },
            {
                "start_time": 32.10227272727273,
                "end_time": 32.27045454545454,
                "pitch": 51,
                "velocity": 64,
                "duration": 0.16818181818181444,
                "tempo": 120.0
            },
            {
                "start_time": 32.304545454545455,
                "end_time": 32.470454545454544,
                "pitch": 51,
                "velocity": 64,
                "duration": 0.16590909090908923,
                "tempo": 120.0
            },
            {
                "start_time": 32.50454545454545,
                "end_time": 32.67045454545455,
                "pitch": 51,
                "velocity": 64,
                "duration": 0.16590909090909634,
                "tempo": 120.0
            },
            {
                "start_time": 32.70454545454545,
                "end_time": 32.87272727272727,
                "pitch": 51,
                "velocity": 64,
                "duration": 0.16818181818181444,
                "tempo": 120.0
            },
            {
                "start_time": 32.90681818181818,
                "end_time": 33.070454545454545,
                "pitch": 51,
                "velocity": 64,
                "duration": 0.16363636363636402,
                "tempo": 120.0
            },
            {
                "start_time": 33.10227272727273,
                "end_time": 33.26590909090909,
                "pitch": 51,
                "velocity": 64,
                "duration": 0.16363636363636402,
                "tempo": 120.0
            },
            {
                "start_time": 33.29772727272727,
                "end_time": 33.46818181818182,
                "pitch": 51,
                "velocity": 64,
                "duration": 0.17045454545454675,
                "tempo": 120.0
            },
            {
                "start_time": 33.502272727272725,
                "end_time": 33.87272727272727,
                "pitch": 44,
                "velocity": 64,
                "duration": 0.3704545454545425,
                "tempo": 120.0
            },
            {
                "start_time": 33.904545454545456,
                "end_time": 34.06818181818181,
                "pitch": 44,
                "velocity": 64,
                "duration": 0.16363636363635692,
                "tempo": 120.0
            },
            {
                "start_time": 34.1,
                "end_time": 34.27272727272727,
                "pitch": 44,
                "velocity": 64,
                "duration": 0.17272727272727195,
                "tempo": 120.0
            },
            {
                "start_time": 34.30681818181818,
                "end_time": 34.47727272727273,
                "pitch": 44,
                "velocity": 64,
                "duration": 0.17045454545454675,
                "tempo": 120.0
            },
            {
                "start_time": 34.51136363636363,
                "end_time": 34.675,
                "pitch": 44,
                "velocity": 64,
                "duration": 0.16363636363636402,
                "tempo": 120.0
            },
            {
                "start_time": 34.70681818181818,
                "end_time": 34.87045454545454,
                "pitch": 44,
                "velocity": 64,
                "duration": 0.16363636363636402,
                "tempo": 120.0
            },
            {
                "start_time": 34.904545454545456,
                "end_time": 35.070454545454545,
                "pitch": 44,
                "velocity": 64,
                "duration": 0.16590909090908923,
                "tempo": 120.0
            },
            {
                "start_time": 35.10454545454545,
                "end_time": 35.470454545454544,
                "pitch": 46,
                "velocity": 64,
                "duration": 0.36590909090909207,
                "tempo": 120.0
            },
            {
                "start_time": 35.50454545454545,
                "end_time": 35.67045454545455,
                "pitch": 46,
                "velocity": 64,
                "duration": 0.16590909090909634,
                "tempo": 120.0
            },
            {
                "start_time": 35.70454545454545,
                "end_time": 35.875,
                "pitch": 46,
                "velocity": 64,
                "duration": 0.17045454545454675,
                "tempo": 120.0
            },
            {
                "start_time": 35.90909090909091,
                "end_time": 36.07954545454545,
                "pitch": 46,
                "velocity": 64,
                "duration": 0.17045454545454675,
                "tempo": 120.0
            },
            {
                "start_time": 36.11363636363636,
                "end_time": 36.277272727272724,
                "pitch": 46,
                "velocity": 64,
                "duration": 0.16363636363636402,
                "tempo": 120.0
            },
            {
                "start_time": 36.31136363636364,
                "end_time": 36.47272727272727,
                "pitch": 46,
                "velocity": 64,
                "duration": 0.1613636363636317,
                "tempo": 120.0
            },
            {
                "start_time": 36.50681818181818,
                "end_time": 36.67727272727272,
                "pitch": 46,
                "velocity": 64,
                "duration": 0.17045454545453964,
                "tempo": 120.0
            },
            {
                "start_time": 36.711363636363636,
                "end_time": 37.07954545454545,
                "pitch": 47,
                "velocity": 64,
                "duration": 0.3681818181818173,
                "tempo": 120.0
            },
            {
                "start_time": 37.11363636363636,
                "end_time": 37.277272727272724,
                "pitch": 47,
                "velocity": 64,
                "duration": 0.16363636363636402,
                "tempo": 120.0
            },
            {
                "start_time": 37.309090909090905,
                "end_time": 37.475,
                "pitch": 47,
                "velocity": 64,
                "duration": 0.16590909090909634,
                "tempo": 120.0
            },
            {
                "start_time": 37.50909090909091,
                "end_time": 37.675,
                "pitch": 47,
                "velocity": 64,
                "duration": 0.16590909090908923,
                "tempo": 120.0
            },
            {
                "start_time": 37.70909090909091,
                "end_time": 37.875,
                "pitch": 47,
                "velocity": 64,
                "duration": 0.16590909090908923,
                "tempo": 120.0
            },
            {
                "start_time": 37.90909090909091,
                "end_time": 38.074999999999996,
                "pitch": 47,
                "velocity": 64,
                "duration": 0.16590909090908923,
                "tempo": 120.0
            },
            {
                "start_time": 38.10909090909091,
                "end_time": 38.275,
                "pitch": 47,
                "velocity": 64,
                "duration": 0.16590909090908923,
                "tempo": 120.0
            },
            {
                "start_time": 38.309090909090905,
                "end_time": 38.475,
                "pitch": 47,
                "velocity": 64,
                "duration": 0.16590909090909634,
                "tempo": 120.0
            },
            {
                "start_time": 38.50909090909091,
                "end_time": 38.679545454545455,
                "pitch": 49,
                "velocity": 64,
                "duration": 0.17045454545454675,
                "tempo": 120.0
            },
            {
                "start_time": 38.71363636363636,
                "end_time": 38.78181818181818,
                "pitch": 49,
                "velocity": 64,
                "duration": 0.06818181818182012,
                "tempo": 120.0
            }
        ]
    }
}