{
    "track_id": "Cyborg Hunter (FM) - 01 - Title Screen",
    "mood": "angry",
    "instruments": {
        "Lead 2 (sawtooth)": [
            {
                "start_time": 0.0,
                "end_time": 3.1477272727272725,
                "pitch": 31,
                "velocity": 101,
                "duration": 3.1477272727272725,
                "tempo": 120.0
            },
            {
                "start_time": 3.1795454545454542,
                "end_time": 6.388636363636364,
                "pitch": 31,
                "velocity": 101,
                "duration": 3.2090909090909094,
                "tempo": 120.0
            },
            {
                "start_time": 6.422727272727273,
                "end_time": 9.60909090909091,
                "pitch": 31,
                "velocity": 101,
                "duration": 3.1863636363636365,
                "tempo": 120.0
            },
            {
                "start_time": 9.643181818181818,
                "end_time": 12.770454545454545,
                "pitch": 31,
                "velocity": 101,
                "duration": 3.127272727272727,
                "tempo": 120.0
            },
            {
                "start_time": 12.802272727272726,
                "end_time": 16.013636363636362,
                "pitch": 31,
                "velocity": 101,
                "duration": 3.211363636363636,
                "tempo": 120.0
            },
            {
                "start_time": 16.047727272727272,
                "end_time": 19.23409090909091,
                "pitch": 31,
                "velocity": 101,
                "duration": 3.1863636363636374,
                "tempo": 120.0
            },
            {
                "start_time": 19.268181818181816,
                "end_time": 20.034090909090907,
                "pitch": 31,
                "velocity": 101,
                "duration": 0.7659090909090907,
                "tempo": 120.0
            },
            {
                "start_time": 20.068181818181817,
                "end_time": 20.834090909090907,
                "pitch": 31,
                "velocity": 101,
                "duration": 0.7659090909090907,
                "tempo": 120.0
            },
            {
                "start_time": 20.868181818181817,
                "end_time": 21.643181818181816,
                "pitch": 31,
                "velocity": 101,
                "duration": 0.7749999999999986,
                "tempo": 120.0
            },
            {
                "start_time": 21.677272727272726,
                "end_time": 22.454545454545453,
                "pitch": 31,
                "velocity": 101,
                "duration": 0.7772727272727273,
                "tempo": 120.0
            },
            {
                "start_time": 22.488636363636363,
                "end_time": 23.26590909090909,
                "pitch": 31,
                "velocity": 101,
                "duration": 0.7772727272727273,
                "tempo": 120.0
            },
            {
                "start_time": 23.299999999999997,
                "end_time": 24.077272727272724,
                "pitch": 31,
                "velocity": 101,
                "duration": 0.7772727272727273,
                "tempo": 120.0
            },
            {
                "start_time": 24.111363636363635,
                "end_time": 24.877272727272725,
                "pitch": 31,
                "velocity": 101,
                "duration": 0.7659090909090907,
                "tempo": 120.0
            },
            {
                "start_time": 24.911363636363635,
                "end_time": 25.677272727272726,
                "pitch": 31,
                "velocity": 101,
                "duration": 0.7659090909090907,
                "tempo": 120.0
            },
            {
                "start_time": 25.711363636363636,
                "end_time": 26.081818181818182,
                "pitch": 27,
                "velocity": 101,
                "duration": 0.37045454545454604,
                "tempo": 120.0
            },
            {
                "start_time": 26.11590909090909,
                "end_time": 26.486363636363635,
                "pitch": 29,
                "velocity": 101,
                "duration": 0.37045454545454604,
                "tempo": 120.0
            }
        ],
        "Acoustic Bass": [
            {
                "start_time": 0.015909090909090907,
                "end_time": 3.1477272727272725,
                "pitch": 29,
                "velocity": 80,
                "duration": 3.1318181818181814,
                "tempo": 120.0
            },
            {
                "start_time": 3.1795454545454542,
                "end_time": 6.388636363636364,
                "pitch": 29,
                "velocity": 80,
                "duration": 3.2090909090909094,
                "tempo": 120.0
            },
            {
                "start_time": 6.422727272727273,
                "end_time": 9.60909090909091,
                "pitch": 29,
                "velocity": 80,
                "duration": 3.1863636363636365,
                "tempo": 120.0
            },
            {
                "start_time": 9.643181818181818,
                "end_time": 12.770454545454545,
                "pitch": 29,
                "velocity": 80,
                "duration": 3.127272727272727,
                "tempo": 120.0
            },
            {
                "start_time": 12.802272727272726,
                "end_time": 16.013636363636362,
                "pitch": 29,
                "velocity": 80,
                "duration": 3.211363636363636,
                "tempo": 120.0
            },
            {
                "start_time": 16.047727272727272,
                "end_time": 19.23409090909091,
                "pitch": 29,
                "velocity": 80,
                "duration": 3.1863636363636374,
                "tempo": 120.0
            },
            {
                "start_time": 19.268181818181816,
                "end_time": 20.034090909090907,
                "pitch": 29,
                "velocity": 80,
                "duration": 0.7659090909090907,
                "tempo": 120.0
            },
            {
                "start_time": 20.068181818181817,
                "end_time": 20.834090909090907,
                "pitch": 29,
                "velocity": 80,
                "duration": 0.7659090909090907,
                "tempo": 120.0
            },
            {
                "start_time": 20.868181818181817,
                "end_time": 21.643181818181816,
                "pitch": 29,
                "velocity": 80,
                "duration": 0.7749999999999986,
                "tempo": 120.0
            },
            {
                "start_time": 21.677272727272726,
                "end_time": 22.454545454545453,
                "pitch": 29,
                "velocity": 80,
                "duration": 0.7772727272727273,
                "tempo": 120.0
            },
            {
                "start_time": 22.488636363636363,
                "end_time": 23.26590909090909,
                "pitch": 29,
                "velocity": 80,
                "duration": 0.7772727272727273,
                "tempo": 120.0
            },
            {
                "start_time": 23.299999999999997,
                "end_time": 24.077272727272724,
                "pitch": 29,
                "velocity": 80,
                "duration": 0.7772727272727273,
                "tempo": 120.0
            },
            {
                "start_time": 24.111363636363635,
                "end_time": 24.877272727272725,
                "pitch": 29,
                "velocity": 80,
                "duration": 0.7659090909090907,
                "tempo": 120.0
            },
            {
                "start_time": 24.911363636363635,
                "end_time": 25.677272727272726,
                "pitch": 29,
                "velocity": 80,
                "duration": 0.7659090909090907,
                "tempo": 120.0
            },
            {
                "start_time": 25.711363636363636,
                "end_time": 26.081818181818182,
                "pitch": 27,
                "velocity": 80,
                "duration": 0.37045454545454604,
                "tempo": 120.0
            },
            {
                "start_time": 26.11590909090909,
                "end_time": 26.486363636363635,
                "pitch": 29,
                "velocity": 80,
                "duration": 0.37045454545454604,
                "tempo": 120.0
            }
        ],
        "Electric Piano 1": [
            {
                "start_time": 7.038636363636363,
                "end_time": 7.1045454545454545,
                "pitch": 97,
                "velocity": 101,
                "duration": 0.06590909090909136,
                "tempo": 120.0
            },
            {
                "start_time": 7.1045454545454545,
                "end_time": 7.168181818181818,
                "pitch": 94,
                "velocity": 101,
                "duration": 0.06363636363636349,
                "tempo": 120.0
            },
            {
                "start_time": 7.168181818181818,
                "end_time": 7.202272727272727,
                "pitch": 91,
                "velocity": 101,
                "duration": 0.03409090909090917,
                "tempo": 120.0
            },
            {
                "start_time": 7.202272727272727,
                "end_time": 7.2340909090909085,
                "pitch": 87,
                "velocity": 101,
                "duration": 0.0318181818181813,
                "tempo": 120.0
            },
            {
                "start_time": 7.2340909090909085,
                "end_time": 7.297727272727272,
                "pitch": 84,
                "velocity": 101,
                "duration": 0.06363636363636349,
                "tempo": 120.0
            },
            {
                "start_time": 7.297727272727272,
                "end_time": 7.331818181818181,
                "pitch": 97,
                "velocity": 101,
                "duration": 0.03409090909090917,
                "tempo": 120.0
            },
            {
                "start_time": 7.331818181818181,
                "end_time": 7.363636363636363,
                "pitch": 92,
                "velocity": 101,
                "duration": 0.03181818181818219,
                "tempo": 120.0
            },
            {
                "start_time": 7.363636363636363,
                "end_time": 7.3954545454545455,
                "pitch": 89,
                "velocity": 101,
                "duration": 0.03181818181818219,
                "tempo": 120.0
            },
            {
                "start_time": 7.3954545454545455,
                "end_time": 7.429545454545454,
                "pitch": 86,
                "velocity": 101,
                "duration": 0.034090909090908283,
                "tempo": 120.0
            },
            {
                "start_time": 7.429545454545454,
                "end_time": 7.493181818181818,
                "pitch": 83,
                "velocity": 101,
                "duration": 0.06363636363636438,
                "tempo": 120.0
            },
            {
                "start_time": 7.493181818181818,
                "end_time": 7.5249999999999995,
                "pitch": 97,
                "velocity": 101,
                "duration": 0.0318181818181813,
                "tempo": 120.0
            },
            {
                "start_time": 7.5249999999999995,
                "end_time": 7.559090909090909,
                "pitch": 94,
                "velocity": 101,
                "duration": 0.03409090909090917,
                "tempo": 120.0
            },
            {
                "start_time": 7.559090909090909,
                "end_time": 7.590909090909091,
                "pitch": 92,
                "velocity": 101,
                "duration": 0.03181818181818219,
                "tempo": 120.0
            },
            {
                "start_time": 7.590909090909091,
                "end_time": 7.656818181818181,
                "pitch": 90,
                "velocity": 101,
                "duration": 0.06590909090909047,
                "tempo": 120.0
            },
            {
                "start_time": 7.656818181818181,
                "end_time": 7.752272727272727,
                "pitch": 87,
                "velocity": 101,
                "duration": 0.09545454545454568,
                "tempo": 120.0
            },
            {
                "start_time": 7.752272727272727,
                "end_time": 7.8181818181818175,
                "pitch": 83,
                "velocity": 101,
                "duration": 0.06590909090909047,
                "tempo": 120.0
            },
            {
                "start_time": 7.8181818181818175,
                "end_time": 7.884090909090909,
                "pitch": 81,
                "velocity": 101,
                "duration": 0.06590909090909136,
                "tempo": 120.0
            },
            {
                "start_time": 7.884090909090909,
                "end_time": 7.9795454545454545,
                "pitch": 78,
                "velocity": 101,
                "duration": 0.09545454545454568,
                "tempo": 120.0
            },
            {
                "start_time": 7.9795454545454545,
                "end_time": 8.045454545454545,
                "pitch": 75,
                "velocity": 101,
                "duration": 0.06590909090909047,
                "tempo": 120.0
            },
            {
                "start_time": 8.045454545454545,
                "end_time": 8.11590909090909,
                "pitch": 73,
                "velocity": 101,
                "duration": 0.07045454545454533,
                "tempo": 120.0
            },
            {
                "start_time": 8.11590909090909,
                "end_time": 8.184090909090909,
                "pitch": 97,
                "velocity": 101,
                "duration": 0.06818181818181834,
                "tempo": 120.0
            },
            {
                "start_time": 8.184090909090909,
                "end_time": 8.254545454545454,
                "pitch": 94,
                "velocity": 101,
                "duration": 0.07045454545454533,
                "tempo": 120.0
            },
            {
                "start_time": 8.254545454545454,
                "end_time": 8.288636363636364,
                "pitch": 91,
                "velocity": 101,
                "duration": 0.03409090909091006,
                "tempo": 120.0
            },
            {
                "start_time": 8.288636363636364,
                "end_time": 8.322727272727272,
                "pitch": 87,
                "velocity": 101,
                "duration": 0.034090909090908283,
                "tempo": 120.0
            },
            {
                "start_time": 8.322727272727272,
                "end_time": 8.393181818181818,
                "pitch": 84,
                "velocity": 101,
                "duration": 0.07045454545454533,
                "tempo": 120.0
            },
            {
                "start_time": 8.393181818181818,
                "end_time": 8.427272727272728,
                "pitch": 97,
                "velocity": 101,
                "duration": 0.03409090909091006,
                "tempo": 120.0
            },
            {
                "start_time": 8.427272727272728,
                "end_time": 8.463636363636363,
                "pitch": 92,
                "velocity": 101,
                "duration": 0.036363636363635266,
                "tempo": 120.0
            },
            {
                "start_time": 8.463636363636363,
                "end_time": 8.497727272727273,
                "pitch": 89,
                "velocity": 101,
                "duration": 0.03409090909091006,
                "tempo": 120.0
            },
            {
                "start_time": 8.497727272727273,
                "end_time": 8.531818181818181,
                "pitch": 86,
                "velocity": 101,
                "duration": 0.034090909090908283,
                "tempo": 120.0
            },
            {
                "start_time": 8.531818181818181,
                "end_time": 8.602272727272727,
                "pitch": 83,
                "velocity": 101,
                "duration": 0.07045454545454533,
                "tempo": 120.0
            },
            {
                "start_time": 8.602272727272727,
                "end_time": 8.636363636363637,
                "pitch": 97,
                "velocity": 101,
                "duration": 0.03409090909091006,
                "tempo": 120.0
            },
            {
                "start_time": 8.636363636363637,
                "end_time": 8.670454545454545,
                "pitch": 94,
                "velocity": 101,
                "duration": 0.034090909090908283,
                "tempo": 120.0
            },
            {
                "start_time": 8.670454545454545,
                "end_time": 8.706818181818182,
                "pitch": 92,
                "velocity": 101,
                "duration": 0.03636363636363704,
                "tempo": 120.0
            },
            {
                "start_time": 8.706818181818182,
                "end_time": 8.775,
                "pitch": 90,
                "velocity": 101,
                "duration": 0.06818181818181834,
                "tempo": 120.0
            },
            {
                "start_time": 8.775,
                "end_time": 8.879545454545454,
                "pitch": 87,
                "velocity": 101,
                "duration": 0.10454545454545361,
                "tempo": 120.0
            },
            {
                "start_time": 8.879545454545454,
                "end_time": 8.947727272727272,
                "pitch": 83,
                "velocity": 101,
                "duration": 0.06818181818181834,
                "tempo": 120.0
            },
            {
                "start_time": 8.947727272727272,
                "end_time": 9.018181818181818,
                "pitch": 81,
                "velocity": 101,
                "duration": 0.07045454545454533,
                "tempo": 120.0
            },
            {
                "start_time": 9.018181818181818,
                "end_time": 9.122727272727273,
                "pitch": 78,
                "velocity": 101,
                "duration": 0.10454545454545539,
                "tempo": 120.0
            },
            {
                "start_time": 9.122727272727273,
                "end_time": 9.19090909090909,
                "pitch": 75,
                "velocity": 101,
                "duration": 0.06818181818181657,
                "tempo": 120.0
            },
            {
                "start_time": 9.19090909090909,
                "end_time": 9.261363636363637,
                "pitch": 73,
                "velocity": 101,
                "duration": 0.0704545454545471,
                "tempo": 120.0
            },
            {
                "start_time": 9.261363636363637,
                "end_time": 9.331818181818182,
                "pitch": 97,
                "velocity": 101,
                "duration": 0.07045454545454533,
                "tempo": 120.0
            },
            {
                "start_time": 9.331818181818182,
                "end_time": 9.4,
                "pitch": 94,
                "velocity": 101,
                "duration": 0.06818181818181834,
                "tempo": 120.0
            },
            {
                "start_time": 9.4,
                "end_time": 9.434090909090909,
                "pitch": 91,
                "velocity": 101,
                "duration": 0.034090909090908283,
                "tempo": 120.0
            },
            {
                "start_time": 9.434090909090909,
                "end_time": 9.470454545454546,
                "pitch": 87,
                "velocity": 101,
                "duration": 0.03636363636363704,
                "tempo": 120.0
            },
            {
                "start_time": 9.470454545454546,
                "end_time": 9.538636363636364,
                "pitch": 84,
                "velocity": 101,
                "duration": 0.06818181818181834,
                "tempo": 120.0
            },
            {
                "start_time": 9.538636363636364,
                "end_time": 9.572727272727272,
                "pitch": 97,
                "velocity": 101,
                "duration": 0.034090909090908283,
                "tempo": 120.0
            },
            {
                "start_time": 9.572727272727272,
                "end_time": 9.60909090909091,
                "pitch": 92,
                "velocity": 101,
                "duration": 0.03636363636363704,
                "tempo": 120.0
            },
            {
                "start_time": 9.60909090909091,
                "end_time": 9.643181818181818,
                "pitch": 89,
                "velocity": 101,
                "duration": 0.034090909090908283,
                "tempo": 120.0
            },
            {
                "start_time": 9.643181818181818,
                "end_time": 9.677272727272726,
                "pitch": 86,
                "velocity": 101,
                "duration": 0.034090909090908283,
                "tempo": 120.0
            },
            {
                "start_time": 9.677272727272726,
                "end_time": 9.743181818181817,
                "pitch": 83,
                "velocity": 101,
                "duration": 0.06590909090909136,
                "tempo": 120.0
            },
            {
                "start_time": 9.743181818181817,
                "end_time": 9.775,
                "pitch": 97,
                "velocity": 101,
                "duration": 0.03181818181818308,
                "tempo": 120.0
            },
            {
                "start_time": 9.775,
                "end_time": 9.809090909090909,
                "pitch": 94,
                "velocity": 101,
                "duration": 0.034090909090908283,
                "tempo": 120.0
            },
            {
                "start_time": 9.809090909090909,
                "end_time": 9.84090909090909,
                "pitch": 92,
                "velocity": 101,
                "duration": 0.0318181818181813,
                "tempo": 120.0
            },
            {
                "start_time": 9.84090909090909,
                "end_time": 9.906818181818181,
                "pitch": 90,
                "velocity": 101,
                "duration": 0.06590909090909136,
                "tempo": 120.0
            },
            {
                "start_time": 9.906818181818181,
                "end_time": 10.006818181818181,
                "pitch": 87,
                "velocity": 101,
                "duration": 0.09999999999999964,
                "tempo": 120.0
            },
            {
                "start_time": 10.006818181818181,
                "end_time": 10.072727272727272,
                "pitch": 83,
                "velocity": 101,
                "duration": 0.06590909090909136,
                "tempo": 120.0
            },
            {
                "start_time": 10.072727272727272,
                "end_time": 10.138636363636364,
                "pitch": 81,
                "velocity": 101,
                "duration": 0.06590909090909136,
                "tempo": 120.0
            },
            {
                "start_time": 10.138636363636364,
                "end_time": 10.236363636363636,
                "pitch": 78,
                "velocity": 101,
                "duration": 0.09772727272727266,
                "tempo": 120.0
            },
            {
                "start_time": 10.236363636363636,
                "end_time": 10.302272727272726,
                "pitch": 75,
                "velocity": 101,
                "duration": 0.06590909090908958,
                "tempo": 120.0
            },
            {
                "start_time": 10.302272727272726,
                "end_time": 10.368181818181817,
                "pitch": 73,
                "velocity": 101,
                "duration": 0.06590909090909136,
                "tempo": 120.0
            },
            {
                "start_time": 10.368181818181817,
                "end_time": 10.434090909090909,
                "pitch": 97,
                "velocity": 101,
                "duration": 0.06590909090909136,
                "tempo": 120.0
            },
            {
                "start_time": 10.434090909090909,
                "end_time": 10.5,
                "pitch": 94,
                "velocity": 101,
                "duration": 0.06590909090909136,
                "tempo": 120.0
            },
            {
                "start_time": 10.5,
                "end_time": 10.531818181818181,
                "pitch": 91,
                "velocity": 101,
                "duration": 0.0318181818181813,
                "tempo": 120.0
            },
            {
                "start_time": 10.531818181818181,
                "end_time": 10.56590909090909,
                "pitch": 87,
                "velocity": 101,
                "duration": 0.034090909090908283,
                "tempo": 120.0
            },
            {
                "start_time": 10.56590909090909,
                "end_time": 10.631818181818181,
                "pitch": 84,
                "velocity": 101,
                "duration": 0.06590909090909136,
                "tempo": 120.0
            },
            {
                "start_time": 10.631818181818181,
                "end_time": 10.663636363636362,
                "pitch": 97,
                "velocity": 101,
                "duration": 0.0318181818181813,
                "tempo": 120.0
            },
            {
                "start_time": 10.663636363636362,
                "end_time": 10.697727272727272,
                "pitch": 92,
                "velocity": 101,
                "duration": 0.03409090909091006,
                "tempo": 120.0
            },
            {
                "start_time": 10.697727272727272,
                "end_time": 10.729545454545454,
                "pitch": 89,
                "velocity": 101,
                "duration": 0.0318181818181813,
                "tempo": 120.0
            },
            {
                "start_time": 10.729545454545454,
                "end_time": 10.763636363636364,
                "pitch": 86,
                "velocity": 101,
                "duration": 0.03409090909091006,
                "tempo": 120.0
            },
            {
                "start_time": 10.763636363636364,
                "end_time": 10.829545454545453,
                "pitch": 83,
                "velocity": 101,
                "duration": 0.06590909090908958,
                "tempo": 120.0
            },
            {
                "start_time": 10.829545454545453,
                "end_time": 10.861363636363636,
                "pitch": 97,
                "velocity": 101,
                "duration": 0.03181818181818308,
                "tempo": 120.0
            },
            {
                "start_time": 10.861363636363636,
                "end_time": 10.895454545454545,
                "pitch": 94,
                "velocity": 101,
                "duration": 0.034090909090908283,
                "tempo": 120.0
            },
            {
                "start_time": 10.895454545454545,
                "end_time": 10.927272727272726,
                "pitch": 92,
                "velocity": 101,
                "duration": 0.0318181818181813,
                "tempo": 120.0
            },
            {
                "start_time": 10.927272727272726,
                "end_time": 10.993181818181817,
                "pitch": 90,
                "velocity": 101,
                "duration": 0.06590909090909136,
                "tempo": 120.0
            },
            {
                "start_time": 10.993181818181817,
                "end_time": 11.09090909090909,
                "pitch": 87,
                "velocity": 101,
                "duration": 0.09772727272727266,
                "tempo": 120.0
            },
            {
                "start_time": 11.09090909090909,
                "end_time": 11.156818181818181,
                "pitch": 83,
                "velocity": 101,
                "duration": 0.06590909090909136,
                "tempo": 120.0
            },
            {
                "start_time": 11.156818181818181,
                "end_time": 11.222727272727273,
                "pitch": 81,
                "velocity": 101,
                "duration": 0.06590909090909136,
                "tempo": 120.0
            },
            {
                "start_time": 11.222727272727273,
                "end_time": 11.322727272727272,
                "pitch": 78,
                "velocity": 101,
                "duration": 0.09999999999999964,
                "tempo": 120.0
            },
            {
                "start_time": 11.322727272727272,
                "end_time": 11.388636363636364,
                "pitch": 75,
                "velocity": 101,
                "duration": 0.06590909090909136,
                "tempo": 120.0
            },
            {
                "start_time": 11.388636363636364,
                "end_time": 11.454545454545453,
                "pitch": 73,
                "velocity": 101,
                "duration": 0.06590909090908958,
                "tempo": 120.0
            },
            {
                "start_time": 12.704545454545453,
                "end_time": 12.736363636363636,
                "pitch": 103,
                "velocity": 127,
                "duration": 0.03181818181818308,
                "tempo": 120.0
            },
            {
                "start_time": 12.736363636363636,
                "end_time": 12.904545454545454,
                "pitch": 60,
                "velocity": 127,
                "duration": 0.168181818181818,
                "tempo": 120.0
            },
            {
                "start_time": 15.754545454545454,
                "end_time": 15.786363636363635,
                "pitch": 90,
                "velocity": 80,
                "duration": 0.0318181818181813,
                "tempo": 120.0
            },
            {
                "start_time": 15.786363636363635,
                "end_time": 15.820454545454545,
                "pitch": 67,
                "velocity": 80,
                "duration": 0.03409090909091006,
                "tempo": 120.0
            },
            {
                "start_time": 15.820454545454545,
                "end_time": 15.852272727272727,
                "pitch": 103,
                "velocity": 80,
                "duration": 0.0318181818181813,
                "tempo": 120.0
            },
            {
                "start_time": 15.852272727272727,
                "end_time": 15.884090909090908,
                "pitch": 71,
                "velocity": 80,
                "duration": 0.0318181818181813,
                "tempo": 120.0
            },
            {
                "start_time": 15.884090909090908,
                "end_time": 15.915909090909091,
                "pitch": 75,
                "velocity": 80,
                "duration": 0.03181818181818308,
                "tempo": 120.0
            },
            {
                "start_time": 15.915909090909091,
                "end_time": 15.95,
                "pitch": 71,
                "velocity": 80,
                "duration": 0.034090909090908283,
                "tempo": 120.0
            },
            {
                "start_time": 15.98181818181818,
                "end_time": 16.013636363636362,
                "pitch": 72,
                "velocity": 80,
                "duration": 0.0318181818181813,
                "tempo": 120.0
            },
            {
                "start_time": 16.013636363636362,
                "end_time": 16.079545454545453,
                "pitch": 90,
                "velocity": 80,
                "duration": 0.06590909090909136,
                "tempo": 120.0
            },
            {
                "start_time": 16.079545454545453,
                "end_time": 16.113636363636363,
                "pitch": 111,
                "velocity": 80,
                "duration": 0.03409090909091006,
                "tempo": 120.0
            },
            {
                "start_time": 16.113636363636363,
                "end_time": 16.147727272727273,
                "pitch": 74,
                "velocity": 80,
                "duration": 0.03409090909091006,
                "tempo": 120.0
            },
            {
                "start_time": 16.18181818181818,
                "end_time": 16.21590909090909,
                "pitch": 80,
                "velocity": 80,
                "duration": 0.03409090909091006,
                "tempo": 120.0
            },
            {
                "start_time": 16.21590909090909,
                "end_time": 16.24772727272727,
                "pitch": 88,
                "velocity": 80,
                "duration": 0.0318181818181813,
                "tempo": 120.0
            },
            {
                "start_time": 16.24772727272727,
                "end_time": 16.28181818181818,
                "pitch": 71,
                "velocity": 80,
                "duration": 0.03409090909091006,
                "tempo": 120.0
            },
            {
                "start_time": 16.28181818181818,
                "end_time": 16.31590909090909,
                "pitch": 103,
                "velocity": 80,
                "duration": 0.03409090909091006,
                "tempo": 120.0
            },
            {
                "start_time": 16.31590909090909,
                "end_time": 16.349999999999998,
                "pitch": 85,
                "velocity": 80,
                "duration": 0.03409090909090651,
                "tempo": 120.0
            },
            {
                "start_time": 16.349999999999998,
                "end_time": 16.418181818181818,
                "pitch": 71,
                "velocity": 80,
                "duration": 0.06818181818182012,
                "tempo": 120.0
            },
            {
                "start_time": 16.452272727272728,
                "end_time": 16.48409090909091,
                "pitch": 71,
                "velocity": 80,
                "duration": 0.0318181818181813,
                "tempo": 120.0
            },
            {
                "start_time": 16.48409090909091,
                "end_time": 16.518181818181816,
                "pitch": 88,
                "velocity": 80,
                "duration": 0.03409090909090651,
                "tempo": 120.0
            },
            {
                "start_time": 16.518181818181816,
                "end_time": 16.586363636363636,
                "pitch": 90,
                "velocity": 80,
                "duration": 0.06818181818182012,
                "tempo": 120.0
            },
            {
                "start_time": 16.586363636363636,
                "end_time": 16.620454545454546,
                "pitch": 74,
                "velocity": 80,
                "duration": 0.03409090909091006,
                "tempo": 120.0
            },
            {
                "start_time": 16.620454545454546,
                "end_time": 16.654545454545453,
                "pitch": 82,
                "velocity": 80,
                "duration": 0.03409090909090651,
                "tempo": 120.0
            },
            {
                "start_time": 16.654545454545453,
                "end_time": 16.688636363636363,
                "pitch": 80,
                "velocity": 80,
                "duration": 0.03409090909091006,
                "tempo": 120.0
            },
            {
                "start_time": 16.688636363636363,
                "end_time": 16.720454545454544,
                "pitch": 72,
                "velocity": 80,
                "duration": 0.0318181818181813,
                "tempo": 120.0
            },
            {
                "start_time": 16.720454545454544,
                "end_time": 16.754545454545454,
                "pitch": 85,
                "velocity": 80,
                "duration": 0.03409090909091006,
                "tempo": 120.0
            },
            {
                "start_time": 16.754545454545454,
                "end_time": 16.82272727272727,
                "pitch": 70,
                "velocity": 80,
                "duration": 0.06818181818181657,
                "tempo": 120.0
            },
            {
                "start_time": 16.82272727272727,
                "end_time": 16.85681818181818,
                "pitch": 82,
                "velocity": 80,
                "duration": 0.03409090909091006,
                "tempo": 120.0
            },
            {
                "start_time": 16.85681818181818,
                "end_time": 16.89090909090909,
                "pitch": 98,
                "velocity": 80,
                "duration": 0.03409090909091006,
                "tempo": 120.0
            },
            {
                "start_time": 16.925,
                "end_time": 16.959090909090907,
                "pitch": 87,
                "velocity": 80,
                "duration": 0.03409090909090651,
                "tempo": 120.0
            },
            {
                "start_time": 16.959090909090907,
                "end_time": 17.025,
                "pitch": 72,
                "velocity": 80,
                "duration": 0.06590909090909136,
                "tempo": 120.0
            },
            {
                "start_time": 17.05909090909091,
                "end_time": 17.09318181818182,
                "pitch": 103,
                "velocity": 80,
                "duration": 0.03409090909091006,
                "tempo": 120.0
            },
            {
                "start_time": 17.09318181818182,
                "end_time": 17.127272727272725,
                "pitch": 82,
                "velocity": 80,
                "duration": 0.03409090909090651,
                "tempo": 120.0
            },
            {
                "start_time": 17.127272727272725,
                "end_time": 17.161363636363635,
                "pitch": 80,
                "velocity": 80,
                "duration": 0.03409090909091006,
                "tempo": 120.0
            },
            {
                "start_time": 17.161363636363635,
                "end_time": 17.195454545454545,
                "pitch": 71,
                "velocity": 80,
                "duration": 0.03409090909091006,
                "tempo": 120.0
            },
            {
                "start_time": 17.195454545454545,
                "end_time": 17.227272727272727,
                "pitch": 90,
                "velocity": 80,
                "duration": 0.0318181818181813,
                "tempo": 120.0
            },
            {
                "start_time": 17.227272727272727,
                "end_time": 17.261363636363637,
                "pitch": 103,
                "velocity": 80,
                "duration": 0.03409090909091006,
                "tempo": 120.0
            },
            {
                "start_time": 17.261363636363637,
                "end_time": 17.295454545454543,
                "pitch": 72,
                "velocity": 80,
                "duration": 0.03409090909090651,
                "tempo": 120.0
            },
            {
                "start_time": 17.295454545454543,
                "end_time": 17.329545454545453,
                "pitch": 90,
                "velocity": 80,
                "duration": 0.03409090909091006,
                "tempo": 120.0
            },
            {
                "start_time": 17.329545454545453,
                "end_time": 17.363636363636363,
                "pitch": 88,
                "velocity": 80,
                "duration": 0.03409090909091006,
                "tempo": 120.0
            },
            {
                "start_time": 17.363636363636363,
                "end_time": 17.43181818181818,
                "pitch": 83,
                "velocity": 80,
                "duration": 0.06818181818181657,
                "tempo": 120.0
            },
            {
                "start_time": 17.43181818181818,
                "end_time": 17.46590909090909,
                "pitch": 72,
                "velocity": 80,
                "duration": 0.03409090909091006,
                "tempo": 120.0
            },
            {
                "start_time": 17.46590909090909,
                "end_time": 17.49772727272727,
                "pitch": 90,
                "velocity": 80,
                "duration": 0.0318181818181813,
                "tempo": 120.0
            },
            {
                "start_time": 17.49772727272727,
                "end_time": 17.53181818181818,
                "pitch": 72,
                "velocity": 80,
                "duration": 0.03409090909091006,
                "tempo": 120.0
            },
            {
                "start_time": 17.53181818181818,
                "end_time": 17.56590909090909,
                "pitch": 70,
                "velocity": 80,
                "duration": 0.03409090909091006,
                "tempo": 120.0
            },
            {
                "start_time": 17.56590909090909,
                "end_time": 17.634090909090908,
                "pitch": 90,
                "velocity": 80,
                "duration": 0.06818181818181657,
                "tempo": 120.0
            },
            {
                "start_time": 18.634090909090908,
                "end_time": 18.668181818181818,
                "pitch": 103,
                "velocity": 127,
                "duration": 0.03409090909091006,
                "tempo": 120.0
            },
            {
                "start_time": 18.668181818181818,
                "end_time": 18.834090909090907,
                "pitch": 60,
                "velocity": 127,
                "duration": 0.16590909090908923,
                "tempo": 120.0
            }
        ]
    }
}