{
    "track_id": "Cyborg Hunter (FM) - 04 - Level B _ E",
    "mood": "angry",
    "instruments": {
        "Lead 2 (sawtooth)": [
            {
                "start_time": 0.0,
                "end_time": 0.07954545454545454,
                "pitch": 64,
                "velocity": 80,
                "duration": 0.07954545454545454,
                "tempo": 120.0
            },
            {
                "start_time": 0.21136363636363636,
                "end_time": 0.29318181818181815,
                "pitch": 57,
                "velocity": 80,
                "duration": 0.08181818181818179,
                "tempo": 120.0
            },
            {
                "start_time": 0.42272727272727273,
                "end_time": 0.5022727272727272,
                "pitch": 60,
                "velocity": 80,
                "duration": 0.07954545454545447,
                "tempo": 120.0
            },
            {
                "start_time": 0.625,
                "end_time": 0.7045454545454545,
                "pitch": 64,
                "velocity": 80,
                "duration": 0.07954545454545447,
                "tempo": 120.0
            },
            {
                "start_time": 0.7204545454545455,
                "end_time": 0.8136363636363636,
                "pitch": 65,
                "velocity": 80,
                "duration": 0.09318181818181814,
                "tempo": 120.0
            },
            {
                "start_time": 0.9295454545454545,
                "end_time": 1.0295454545454545,
                "pitch": 64,
                "velocity": 80,
                "duration": 0.10000000000000009,
                "tempo": 120.0
            },
            {
                "start_time": 1.1454545454545455,
                "end_time": 1.2454545454545454,
                "pitch": 60,
                "velocity": 80,
                "duration": 0.09999999999999987,
                "tempo": 120.0
            },
            {
                "start_time": 1.2636363636363637,
                "end_time": 1.3454545454545455,
                "pitch": 62,
                "velocity": 80,
                "duration": 0.08181818181818179,
                "tempo": 120.0
            },
            {
                "start_time": 1.4749999999999999,
                "end_time": 1.5727272727272728,
                "pitch": 59,
                "velocity": 80,
                "duration": 0.09772727272727288,
                "tempo": 120.0
            },
            {
                "start_time": 1.6886363636363635,
                "end_time": 1.7863636363636364,
                "pitch": 64,
                "velocity": 80,
                "duration": 0.09772727272727288,
                "tempo": 120.0
            },
            {
                "start_time": 1.9,
                "end_time": 1.9977272727272726,
                "pitch": 57,
                "velocity": 80,
                "duration": 0.09772727272727266,
                "tempo": 120.0
            },
            {
                "start_time": 2.1136363636363633,
                "end_time": 2.2113636363636364,
                "pitch": 60,
                "velocity": 80,
                "duration": 0.0977272727272731,
                "tempo": 120.0
            },
            {
                "start_time": 2.3249999999999997,
                "end_time": 2.425,
                "pitch": 64,
                "velocity": 80,
                "duration": 0.10000000000000009,
                "tempo": 120.0
            },
            {
                "start_time": 2.440909090909091,
                "end_time": 2.5227272727272725,
                "pitch": 65,
                "velocity": 80,
                "duration": 0.08181818181818157,
                "tempo": 120.0
            },
            {
                "start_time": 2.659090909090909,
                "end_time": 2.7636363636363637,
                "pitch": 64,
                "velocity": 80,
                "duration": 0.1045454545454545,
                "tempo": 120.0
            },
            {
                "start_time": 2.8863636363636362,
                "end_time": 2.9909090909090907,
                "pitch": 60,
                "velocity": 80,
                "duration": 0.1045454545454545,
                "tempo": 120.0
            },
            {
                "start_time": 3.009090909090909,
                "end_time": 3.093181818181818,
                "pitch": 62,
                "velocity": 80,
                "duration": 0.084090909090909,
                "tempo": 120.0
            },
            {
                "start_time": 3.227272727272727,
                "end_time": 3.311363636363636,
                "pitch": 59,
                "velocity": 80,
                "duration": 0.084090909090909,
                "tempo": 120.0
            },
            {
                "start_time": 3.443181818181818,
                "end_time": 3.525,
                "pitch": 64,
                "velocity": 80,
                "duration": 0.08181818181818201,
                "tempo": 120.0
            },
            {
                "start_time": 3.652272727272727,
                "end_time": 3.7318181818181815,
                "pitch": 57,
                "velocity": 80,
                "duration": 0.07954545454545459,
                "tempo": 120.0
            },
            {
                "start_time": 3.8613636363636363,
                "end_time": 3.959090909090909,
                "pitch": 60,
                "velocity": 80,
                "duration": 0.09772727272727266,
                "tempo": 120.0
            },
            {
                "start_time": 4.072727272727272,
                "end_time": 4.170454545454545,
                "pitch": 64,
                "velocity": 80,
                "duration": 0.09772727272727266,
                "tempo": 120.0
            },
            {
                "start_time": 4.1863636363636365,
                "end_time": 4.268181818181818,
                "pitch": 65,
                "velocity": 80,
                "duration": 0.08181818181818112,
                "tempo": 120.0
            },
            {
                "start_time": 4.404545454545454,
                "end_time": 4.49090909090909,
                "pitch": 64,
                "velocity": 80,
                "duration": 0.08636363636363598,
                "tempo": 120.0
            },
            {
                "start_time": 4.627272727272727,
                "end_time": 4.711363636363636,
                "pitch": 60,
                "velocity": 80,
                "duration": 0.084090909090909,
                "tempo": 120.0
            },
            {
                "start_time": 4.7295454545454545,
                "end_time": 4.827272727272727,
                "pitch": 62,
                "velocity": 80,
                "duration": 0.09772727272727266,
                "tempo": 120.0
            },
            {
                "start_time": 4.959090909090909,
                "end_time": 5.040909090909091,
                "pitch": 59,
                "velocity": 80,
                "duration": 0.08181818181818201,
                "tempo": 120.0
            },
            {
                "start_time": 5.170454545454545,
                "end_time": 5.254545454545454,
                "pitch": 64,
                "velocity": 80,
                "duration": 0.084090909090909,
                "tempo": 120.0
            },
            {
                "start_time": 5.388636363636364,
                "end_time": 5.472727272727273,
                "pitch": 57,
                "velocity": 80,
                "duration": 0.084090909090909,
                "tempo": 120.0
            },
            {
                "start_time": 5.6068181818181815,
                "end_time": 5.6886363636363635,
                "pitch": 60,
                "velocity": 80,
                "duration": 0.08181818181818201,
                "tempo": 120.0
            },
            {
                "start_time": 5.818181818181818,
                "end_time": 5.8999999999999995,
                "pitch": 64,
                "velocity": 80,
                "duration": 0.08181818181818112,
                "tempo": 120.0
            },
            {
                "start_time": 5.915909090909091,
                "end_time": 6.013636363636364,
                "pitch": 65,
                "velocity": 80,
                "duration": 0.09772727272727266,
                "tempo": 120.0
            },
            {
                "start_time": 6.1477272727272725,
                "end_time": 6.2318181818181815,
                "pitch": 64,
                "velocity": 80,
                "duration": 0.084090909090909,
                "tempo": 120.0
            },
            {
                "start_time": 6.36590909090909,
                "end_time": 6.449999999999999,
                "pitch": 60,
                "velocity": 80,
                "duration": 0.084090909090909,
                "tempo": 120.0
            },
            {
                "start_time": 6.465909090909091,
                "end_time": 6.5659090909090905,
                "pitch": 62,
                "velocity": 80,
                "duration": 0.09999999999999964,
                "tempo": 120.0
            },
            {
                "start_time": 6.684090909090909,
                "end_time": 6.784090909090909,
                "pitch": 59,
                "velocity": 80,
                "duration": 0.10000000000000053,
                "tempo": 120.0
            },
            {
                "start_time": 6.8999999999999995,
                "end_time": 6.997727272727272,
                "pitch": 64,
                "velocity": 80,
                "duration": 0.09772727272727266,
                "tempo": 120.0
            },
            {
                "start_time": 7.113636363636363,
                "end_time": 7.211363636363636,
                "pitch": 57,
                "velocity": 80,
                "duration": 0.09772727272727266,
                "tempo": 120.0
            },
            {
                "start_time": 7.343181818181818,
                "end_time": 7.425,
                "pitch": 60,
                "velocity": 80,
                "duration": 0.08181818181818201,
                "tempo": 120.0
            },
            {
                "start_time": 7.559090909090909,
                "end_time": 7.643181818181818,
                "pitch": 64,
                "velocity": 80,
                "duration": 0.084090909090909,
                "tempo": 120.0
            },
            {
                "start_time": 7.659090909090908,
                "end_time": 7.759090909090909,
                "pitch": 65,
                "velocity": 80,
                "duration": 0.10000000000000053,
                "tempo": 120.0
            },
            {
                "start_time": 7.877272727272727,
                "end_time": 7.977272727272727,
                "pitch": 64,
                "velocity": 80,
                "duration": 0.09999999999999964,
                "tempo": 120.0
            },
            {
                "start_time": 8.093181818181817,
                "end_time": 8.195454545454545,
                "pitch": 60,
                "velocity": 80,
                "duration": 0.1022727272727284,
                "tempo": 120.0
            },
            {
                "start_time": 8.211363636363636,
                "end_time": 8.295454545454545,
                "pitch": 62,
                "velocity": 80,
                "duration": 0.084090909090909,
                "tempo": 120.0
            },
            {
                "start_time": 8.429545454545455,
                "end_time": 8.511363636363637,
                "pitch": 59,
                "velocity": 80,
                "duration": 0.08181818181818201,
                "tempo": 120.0
            },
            {
                "start_time": 8.645454545454545,
                "end_time": 8.74090909090909,
                "pitch": 64,
                "velocity": 80,
                "duration": 0.09545454545454568,
                "tempo": 120.0
            },
            {
                "start_time": 8.854545454545454,
                "end_time": 8.95,
                "pitch": 57,
                "velocity": 80,
                "duration": 0.09545454545454568,
                "tempo": 120.0
            },
            {
                "start_time": 9.061363636363636,
                "end_time": 9.161363636363635,
                "pitch": 60,
                "velocity": 80,
                "duration": 0.09999999999999964,
                "tempo": 120.0
            },
            {
                "start_time": 9.279545454545454,
                "end_time": 9.379545454545454,
                "pitch": 64,
                "velocity": 80,
                "duration": 0.09999999999999964,
                "tempo": 120.0
            },
            {
                "start_time": 9.395454545454545,
                "end_time": 9.479545454545454,
                "pitch": 65,
                "velocity": 80,
                "duration": 0.084090909090909,
                "tempo": 120.0
            },
            {
                "start_time": 9.611363636363636,
                "end_time": 9.693181818181818,
                "pitch": 64,
                "velocity": 80,
                "duration": 0.08181818181818201,
                "tempo": 120.0
            },
            {
                "start_time": 9.822727272727272,
                "end_time": 9.920454545454545,
                "pitch": 60,
                "velocity": 80,
                "duration": 0.09772727272727266,
                "tempo": 120.0
            },
            {
                "start_time": 9.938636363636363,
                "end_time": 10.025,
                "pitch": 62,
                "velocity": 80,
                "duration": 0.08636363636363775,
                "tempo": 120.0
            },
            {
                "start_time": 10.163636363636364,
                "end_time": 10.252272727272727,
                "pitch": 59,
                "velocity": 80,
                "duration": 0.08863636363636296,
                "tempo": 120.0
            },
            {
                "start_time": 10.39090909090909,
                "end_time": 10.470454545454546,
                "pitch": 64,
                "velocity": 80,
                "duration": 0.07954545454545503,
                "tempo": 120.0
            },
            {
                "start_time": 10.6,
                "end_time": 10.679545454545455,
                "pitch": 57,
                "velocity": 80,
                "duration": 0.07954545454545503,
                "tempo": 120.0
            },
            {
                "start_time": 10.806818181818182,
                "end_time": 10.89090909090909,
                "pitch": 60,
                "velocity": 80,
                "duration": 0.084090909090909,
                "tempo": 120.0
            },
            {
                "start_time": 11.024999999999999,
                "end_time": 11.125,
                "pitch": 64,
                "velocity": 80,
                "duration": 0.10000000000000142,
                "tempo": 120.0
            },
            {
                "start_time": 11.14090909090909,
                "end_time": 11.225,
                "pitch": 65,
                "velocity": 80,
                "duration": 0.084090909090909,
                "tempo": 120.0
            },
            {
                "start_time": 11.35909090909091,
                "end_time": 11.443181818181818,
                "pitch": 64,
                "velocity": 80,
                "duration": 0.084090909090909,
                "tempo": 120.0
            },
            {
                "start_time": 11.577272727272726,
                "end_time": 11.659090909090908,
                "pitch": 60,
                "velocity": 80,
                "duration": 0.08181818181818201,
                "tempo": 120.0
            },
            {
                "start_time": 11.677272727272726,
                "end_time": 11.774999999999999,
                "pitch": 62,
                "velocity": 80,
                "duration": 0.09772727272727266,
                "tempo": 120.0
            },
            {
                "start_time": 11.888636363636364,
                "end_time": 11.988636363636363,
                "pitch": 59,
                "velocity": 80,
                "duration": 0.09999999999999964,
                "tempo": 120.0
            },
            {
                "start_time": 12.118181818181817,
                "end_time": 12.202272727272726,
                "pitch": 64,
                "velocity": 80,
                "duration": 0.084090909090909,
                "tempo": 120.0
            },
            {
                "start_time": 12.336363636363636,
                "end_time": 12.420454545454545,
                "pitch": 57,
                "velocity": 80,
                "duration": 0.084090909090909,
                "tempo": 120.0
            },
            {
                "start_time": 12.552272727272726,
                "end_time": 12.636363636363635,
                "pitch": 60,
                "velocity": 80,
                "duration": 0.084090909090909,
                "tempo": 120.0
            },
            {
                "start_time": 12.770454545454545,
                "end_time": 12.854545454545454,
                "pitch": 64,
                "velocity": 80,
                "duration": 0.084090909090909,
                "tempo": 120.0
            },
            {
                "start_time": 12.870454545454544,
                "end_time": 12.970454545454546,
                "pitch": 65,
                "velocity": 80,
                "duration": 0.10000000000000142,
                "tempo": 120.0
            },
            {
                "start_time": 13.086363636363636,
                "end_time": 13.184090909090909,
                "pitch": 64,
                "velocity": 80,
                "duration": 0.09772727272727266,
                "tempo": 120.0
            },
            {
                "start_time": 13.313636363636363,
                "end_time": 13.395454545454545,
                "pitch": 60,
                "velocity": 80,
                "duration": 0.08181818181818201,
                "tempo": 120.0
            },
            {
                "start_time": 13.413636363636362,
                "end_time": 13.51590909090909,
                "pitch": 62,
                "velocity": 80,
                "duration": 0.1022727272727284,
                "tempo": 120.0
            },
            {
                "start_time": 13.634090909090908,
                "end_time": 13.736363636363636,
                "pitch": 59,
                "velocity": 80,
                "duration": 0.1022727272727284,
                "tempo": 120.0
            },
            {
                "start_time": 13.85681818181818,
                "end_time": 13.952272727272726,
                "pitch": 57,
                "velocity": 80,
                "duration": 0.09545454545454568,
                "tempo": 120.0
            },
            {
                "start_time": 13.968181818181817,
                "end_time": 14.047727272727272,
                "pitch": 59,
                "velocity": 80,
                "duration": 0.07954545454545503,
                "tempo": 120.0
            },
            {
                "start_time": 14.063636363636363,
                "end_time": 14.161363636363635,
                "pitch": 60,
                "velocity": 80,
                "duration": 0.09772727272727266,
                "tempo": 120.0
            },
            {
                "start_time": 14.177272727272726,
                "end_time": 14.256818181818181,
                "pitch": 59,
                "velocity": 80,
                "duration": 0.07954545454545503,
                "tempo": 120.0
            },
            {
                "start_time": 14.272727272727272,
                "end_time": 14.372727272727271,
                "pitch": 60,
                "velocity": 80,
                "duration": 0.09999999999999964,
                "tempo": 120.0
            },
            {
                "start_time": 14.388636363636364,
                "end_time": 14.472727272727273,
                "pitch": 62,
                "velocity": 80,
                "duration": 0.084090909090909,
                "tempo": 120.0
            },
            {
                "start_time": 14.506818181818181,
                "end_time": 14.59090909090909,
                "pitch": 60,
                "velocity": 80,
                "duration": 0.084090909090909,
                "tempo": 120.0
            },
            {
                "start_time": 14.60681818181818,
                "end_time": 14.70681818181818,
                "pitch": 59,
                "velocity": 80,
                "duration": 0.09999999999999964,
                "tempo": 120.0
            },
            {
                "start_time": 14.722727272727273,
                "end_time": 14.809090909090909,
                "pitch": 60,
                "velocity": 80,
                "duration": 0.08636363636363598,
                "tempo": 120.0
            },
            {
                "start_time": 14.827272727272726,
                "end_time": 14.929545454545455,
                "pitch": 59,
                "velocity": 80,
                "duration": 0.1022727272727284,
                "tempo": 120.0
            },
            {
                "start_time": 14.945454545454545,
                "end_time": 15.031818181818181,
                "pitch": 57,
                "velocity": 80,
                "duration": 0.08636363636363598,
                "tempo": 120.0
            },
            {
                "start_time": 15.047727272727272,
                "end_time": 15.445454545454545,
                "pitch": 55,
                "velocity": 80,
                "duration": 0.3977272727272734,
                "tempo": 120.0
            },
            {
                "start_time": 15.445454545454545,
                "end_time": 15.527272727272727,
                "pitch": 55,
                "velocity": 80,
                "duration": 0.08181818181818201,
                "tempo": 120.0
            },
            {
                "start_time": 15.527272727272727,
                "end_time": 15.577272727272726,
                "pitch": 55,
                "velocity": 80,
                "duration": 0.049999999999998934,
                "tempo": 120.0
            },
            {
                "start_time": 15.593181818181817,
                "end_time": 15.677272727272726,
                "pitch": 57,
                "velocity": 80,
                "duration": 0.084090909090909,
                "tempo": 120.0
            },
            {
                "start_time": 15.711363636363636,
                "end_time": 15.793181818181818,
                "pitch": 59,
                "velocity": 80,
                "duration": 0.08181818181818201,
                "tempo": 120.0
            },
            {
                "start_time": 15.811363636363636,
                "end_time": 15.911363636363635,
                "pitch": 60,
                "velocity": 80,
                "duration": 0.09999999999999964,
                "tempo": 120.0
            },
            {
                "start_time": 15.927272727272726,
                "end_time": 16.011363636363637,
                "pitch": 59,
                "velocity": 80,
                "duration": 0.08409090909091077,
                "tempo": 120.0
            },
            {
                "start_time": 16.027272727272727,
                "end_time": 16.125,
                "pitch": 60,
                "velocity": 80,
                "duration": 0.09772727272727266,
                "tempo": 120.0
            },
            {
                "start_time": 16.143181818181816,
                "end_time": 16.224999999999998,
                "pitch": 62,
                "velocity": 80,
                "duration": 0.08181818181818201,
                "tempo": 120.0
            },
            {
                "start_time": 16.24090909090909,
                "end_time": 16.33863636363636,
                "pitch": 60,
                "velocity": 80,
                "duration": 0.09772727272727266,
                "tempo": 120.0
            },
            {
                "start_time": 16.354545454545455,
                "end_time": 16.436363636363634,
                "pitch": 59,
                "velocity": 80,
                "duration": 0.08181818181817846,
                "tempo": 120.0
            },
            {
                "start_time": 16.452272727272728,
                "end_time": 16.552272727272726,
                "pitch": 60,
                "velocity": 80,
                "duration": 0.09999999999999787,
                "tempo": 120.0
            },
            {
                "start_time": 16.570454545454545,
                "end_time": 16.654545454545453,
                "pitch": 59,
                "velocity": 80,
                "duration": 0.08409090909090722,
                "tempo": 120.0
            },
            {
                "start_time": 16.670454545454543,
                "end_time": 16.770454545454545,
                "pitch": 60,
                "velocity": 80,
                "duration": 0.10000000000000142,
                "tempo": 120.0
            },
            {
                "start_time": 16.786363636363635,
                "end_time": 17.32272727272727,
                "pitch": 62,
                "velocity": 80,
                "duration": 0.5363636363636353,
                "tempo": 120.0
            },
            {
                "start_time": 17.33863636363636,
                "end_time": 17.420454545454543,
                "pitch": 57,
                "velocity": 80,
                "duration": 0.08181818181818201,
                "tempo": 120.0
            },
            {
                "start_time": 17.436363636363634,
                "end_time": 17.534090909090907,
                "pitch": 59,
                "velocity": 80,
                "duration": 0.09772727272727266,
                "tempo": 120.0
            },
            {
                "start_time": 17.552272727272726,
                "end_time": 17.634090909090908,
                "pitch": 60,
                "velocity": 80,
                "duration": 0.08181818181818201,
                "tempo": 120.0
            },
            {
                "start_time": 17.65,
                "end_time": 17.74772727272727,
                "pitch": 59,
                "velocity": 80,
                "duration": 0.09772727272727266,
                "tempo": 120.0
            },
            {
                "start_time": 17.763636363636362,
                "end_time": 17.847727272727273,
                "pitch": 60,
                "velocity": 80,
                "duration": 0.08409090909091077,
                "tempo": 120.0
            },
            {
                "start_time": 17.863636363636363,
                "end_time": 17.96363636363636,
                "pitch": 62,
                "velocity": 80,
                "duration": 0.09999999999999787,
                "tempo": 120.0
            },
            {
                "start_time": 17.98181818181818,
                "end_time": 18.063636363636363,
                "pitch": 60,
                "velocity": 80,
                "duration": 0.08181818181818201,
                "tempo": 120.0
            },
            {
                "start_time": 18.097727272727273,
                "end_time": 18.18181818181818,
                "pitch": 59,
                "velocity": 80,
                "duration": 0.08409090909090722,
                "tempo": 120.0
            },
            {
                "start_time": 18.19772727272727,
                "end_time": 18.295454545454543,
                "pitch": 60,
                "velocity": 80,
                "duration": 0.09772727272727266,
                "tempo": 120.0
            },
            {
                "start_time": 18.313636363636363,
                "end_time": 18.395454545454545,
                "pitch": 59,
                "velocity": 80,
                "duration": 0.08181818181818201,
                "tempo": 120.0
            },
            {
                "start_time": 18.411363636363635,
                "end_time": 18.509090909090908,
                "pitch": 57,
                "velocity": 80,
                "duration": 0.09772727272727266,
                "tempo": 120.0
            },
            {
                "start_time": 18.525,
                "end_time": 18.925,
                "pitch": 55,
                "velocity": 80,
                "duration": 0.40000000000000213,
                "tempo": 120.0
            },
            {
                "start_time": 18.925,
                "end_time": 19.00681818181818,
                "pitch": 55,
                "velocity": 80,
                "duration": 0.08181818181817846,
                "tempo": 120.0
            },
            {
                "start_time": 19.00681818181818,
                "end_time": 19.04090909090909,
                "pitch": 55,
                "velocity": 80,
                "duration": 0.03409090909091006,
                "tempo": 120.0
            },
            {
                "start_time": 19.05909090909091,
                "end_time": 19.15681818181818,
                "pitch": 57,
                "velocity": 80,
                "duration": 0.09772727272727266,
                "tempo": 120.0
            },
            {
                "start_time": 19.172727272727272,
                "end_time": 19.254545454545454,
                "pitch": 59,
                "velocity": 80,
                "duration": 0.08181818181818201,
                "tempo": 120.0
            },
            {
                "start_time": 19.286363636363635,
                "end_time": 19.368181818181817,
                "pitch": 60,
                "velocity": 80,
                "duration": 0.08181818181818201,
                "tempo": 120.0
            },
            {
                "start_time": 19.386363636363637,
                "end_time": 19.48409090909091,
                "pitch": 59,
                "velocity": 80,
                "duration": 0.09772727272727266,
                "tempo": 120.0
            },
            {
                "start_time": 19.5,
                "end_time": 19.584090909090907,
                "pitch": 60,
                "velocity": 80,
                "duration": 0.08409090909090722,
                "tempo": 120.0
            },
            {
                "start_time": 19.599999999999998,
                "end_time": 19.7,
                "pitch": 62,
                "velocity": 80,
                "duration": 0.10000000000000142,
                "tempo": 120.0
            },
            {
                "start_time": 19.71818181818182,
                "end_time": 19.8,
                "pitch": 60,
                "velocity": 80,
                "duration": 0.08181818181818201,
                "tempo": 120.0
            },
            {
                "start_time": 19.818181818181817,
                "end_time": 19.918181818181818,
                "pitch": 59,
                "velocity": 80,
                "duration": 0.10000000000000142,
                "tempo": 120.0
            },
            {
                "start_time": 19.93409090909091,
                "end_time": 20.018181818181816,
                "pitch": 57,
                "velocity": 80,
                "duration": 0.08409090909090722,
                "tempo": 120.0
            },
            {
                "start_time": 20.034090909090907,
                "end_time": 20.134090909090908,
                "pitch": 55,
                "velocity": 80,
                "duration": 0.10000000000000142,
                "tempo": 120.0
            },
            {
                "start_time": 20.152272727272727,
                "end_time": 20.236363636363635,
                "pitch": 57,
                "velocity": 80,
                "duration": 0.08409090909090722,
                "tempo": 120.0
            },
            {
                "start_time": 20.252272727272725,
                "end_time": 20.352272727272727,
                "pitch": 55,
                "velocity": 80,
                "duration": 0.10000000000000142,
                "tempo": 120.0
            },
            {
                "start_time": 20.368181818181817,
                "end_time": 20.45,
                "pitch": 54,
                "velocity": 80,
                "duration": 0.08181818181818201,
                "tempo": 120.0
            },
            {
                "start_time": 20.48409090909091,
                "end_time": 20.56590909090909,
                "pitch": 55,
                "velocity": 80,
                "duration": 0.08181818181818201,
                "tempo": 120.0
            },
            {
                "start_time": 20.581818181818182,
                "end_time": 20.679545454545455,
                "pitch": 54,
                "velocity": 80,
                "duration": 0.09772727272727266,
                "tempo": 120.0
            },
            {
                "start_time": 20.695454545454545,
                "end_time": 20.777272727272727,
                "pitch": 52,
                "velocity": 80,
                "duration": 0.08181818181818201,
                "tempo": 120.0
            },
            {
                "start_time": 20.793181818181818,
                "end_time": 20.893181818181816,
                "pitch": 64,
                "velocity": 80,
                "duration": 0.09999999999999787,
                "tempo": 120.0
            },
            {
                "start_time": 21.00681818181818,
                "end_time": 21.104545454545452,
                "pitch": 57,
                "velocity": 80,
                "duration": 0.09772727272727266,
                "tempo": 120.0
            },
            {
                "start_time": 21.220454545454544,
                "end_time": 21.318181818181817,
                "pitch": 60,
                "velocity": 80,
                "duration": 0.09772727272727266,
                "tempo": 120.0
            },
            {
                "start_time": 21.43181818181818,
                "end_time": 21.529545454545453,
                "pitch": 64,
                "velocity": 80,
                "duration": 0.09772727272727266,
                "tempo": 120.0
            },
            {
                "start_time": 21.545454545454543,
                "end_time": 21.627272727272725,
                "pitch": 65,
                "velocity": 80,
                "duration": 0.08181818181818201,
                "tempo": 120.0
            },
            {
                "start_time": 21.76590909090909,
                "end_time": 21.870454545454546,
                "pitch": 64,
                "velocity": 80,
                "duration": 0.10454545454545539,
                "tempo": 120.0
            },
            {
                "start_time": 21.993181818181817,
                "end_time": 22.097727272727273,
                "pitch": 60,
                "velocity": 80,
                "duration": 0.10454545454545539,
                "tempo": 120.0
            },
            {
                "start_time": 22.11590909090909,
                "end_time": 22.19772727272727,
                "pitch": 62,
                "velocity": 80,
                "duration": 0.08181818181818201,
                "tempo": 120.0
            },
            {
                "start_time": 22.327272727272724,
                "end_time": 22.409090909090907,
                "pitch": 59,
                "velocity": 80,
                "duration": 0.08181818181818201,
                "tempo": 120.0
            },
            {
                "start_time": 22.54090909090909,
                "end_time": 22.62272727272727,
                "pitch": 64,
                "velocity": 80,
                "duration": 0.08181818181818201,
                "tempo": 120.0
            },
            {
                "start_time": 22.752272727272725,
                "end_time": 22.834090909090907,
                "pitch": 57,
                "velocity": 80,
                "duration": 0.08181818181818201,
                "tempo": 120.0
            },
            {
                "start_time": 22.96590909090909,
                "end_time": 23.063636363636363,
                "pitch": 60,
                "velocity": 80,
                "duration": 0.09772727272727266,
                "tempo": 120.0
            },
            {
                "start_time": 23.177272727272726,
                "end_time": 23.277272727272727,
                "pitch": 64,
                "velocity": 80,
                "duration": 0.10000000000000142,
                "tempo": 120.0
            },
            {
                "start_time": 23.293181818181818,
                "end_time": 23.375,
                "pitch": 65,
                "velocity": 80,
                "duration": 0.08181818181818201,
                "tempo": 120.0
            },
            {
                "start_time": 23.50681818181818,
                "end_time": 23.59090909090909,
                "pitch": 64,
                "velocity": 80,
                "duration": 0.08409090909091077,
                "tempo": 120.0
            },
            {
                "start_time": 23.724999999999998,
                "end_time": 23.80909090909091,
                "pitch": 60,
                "velocity": 80,
                "duration": 0.08409090909091077,
                "tempo": 120.0
            },
            {
                "start_time": 23.825,
                "end_time": 23.924999999999997,
                "pitch": 62,
                "velocity": 80,
                "duration": 0.09999999999999787,
                "tempo": 120.0
            },
            {
                "start_time": 24.05909090909091,
                "end_time": 24.143181818181816,
                "pitch": 59,
                "velocity": 80,
                "duration": 0.08409090909090722,
                "tempo": 120.0
            },
            {
                "start_time": 24.277272727272727,
                "end_time": 24.361363636363635,
                "pitch": 64,
                "velocity": 80,
                "duration": 0.08409090909090722,
                "tempo": 120.0
            },
            {
                "start_time": 24.493181818181817,
                "end_time": 24.577272727272724,
                "pitch": 57,
                "velocity": 80,
                "duration": 0.08409090909090722,
                "tempo": 120.0
            },
            {
                "start_time": 24.711363636363636,
                "end_time": 24.793181818181818,
                "pitch": 60,
                "velocity": 80,
                "duration": 0.08181818181818201,
                "tempo": 120.0
            },
            {
                "start_time": 24.922727272727272,
                "end_time": 25.004545454545454,
                "pitch": 64,
                "velocity": 80,
                "duration": 0.08181818181818201,
                "tempo": 120.0
            },
            {
                "start_time": 25.02272727272727,
                "end_time": 25.120454545454542,
                "pitch": 65,
                "velocity": 80,
                "duration": 0.09772727272727266,
                "tempo": 120.0
            },
            {
                "start_time": 25.254545454545454,
                "end_time": 25.336363636363636,
                "pitch": 64,
                "velocity": 80,
                "duration": 0.08181818181818201,
                "tempo": 120.0
            },
            {
                "start_time": 25.470454545454544,
                "end_time": 25.554545454545455,
                "pitch": 60,
                "velocity": 80,
                "duration": 0.08409090909091077,
                "tempo": 120.0
            },
            {
                "start_time": 25.570454545454545,
                "end_time": 25.670454545454543,
                "pitch": 62,
                "velocity": 80,
                "duration": 0.09999999999999787,
                "tempo": 120.0
            },
            {
                "start_time": 25.788636363636364,
                "end_time": 25.888636363636362,
                "pitch": 59,
                "velocity": 80,
                "duration": 0.09999999999999787,
                "tempo": 120.0
            },
            {
                "start_time": 26.004545454545454,
                "end_time": 26.102272727272727,
                "pitch": 64,
                "velocity": 80,
                "duration": 0.09772727272727266,
                "tempo": 120.0
            },
            {
                "start_time": 26.21363636363636,
                "end_time": 26.30909090909091,
                "pitch": 57,
                "velocity": 80,
                "duration": 0.09545454545454746,
                "tempo": 120.0
            },
            {
                "start_time": 26.438636363636363,
                "end_time": 26.52272727272727,
                "pitch": 60,
                "velocity": 80,
                "duration": 0.08409090909090722,
                "tempo": 120.0
            },
            {
                "start_time": 26.659090909090907,
                "end_time": 26.745454545454542,
                "pitch": 64,
                "velocity": 80,
                "duration": 0.08636363636363598,
                "tempo": 120.0
            },
            {
                "start_time": 26.763636363636362,
                "end_time": 26.86590909090909,
                "pitch": 65,
                "velocity": 80,
                "duration": 0.10227272727272663,
                "tempo": 120.0
            },
            {
                "start_time": 26.98181818181818,
                "end_time": 27.084090909090907,
                "pitch": 64,
                "velocity": 80,
                "duration": 0.10227272727272663,
                "tempo": 120.0
            },
            {
                "start_time": 27.2,
                "end_time": 27.299999999999997,
                "pitch": 60,
                "velocity": 80,
                "duration": 0.09999999999999787,
                "tempo": 120.0
            },
            {
                "start_time": 27.315909090909088,
                "end_time": 27.4,
                "pitch": 62,
                "velocity": 80,
                "duration": 0.08409090909091077,
                "tempo": 120.0
            },
            {
                "start_time": 27.534090909090907,
                "end_time": 27.618181818181817,
                "pitch": 59,
                "velocity": 80,
                "duration": 0.08409090909091077,
                "tempo": 120.0
            },
            {
                "start_time": 27.752272727272725,
                "end_time": 27.849999999999998,
                "pitch": 64,
                "velocity": 80,
                "duration": 0.09772727272727266,
                "tempo": 120.0
            },
            {
                "start_time": 27.96363636363636,
                "end_time": 28.061363636363634,
                "pitch": 57,
                "velocity": 80,
                "duration": 0.09772727272727266,
                "tempo": 120.0
            },
            {
                "start_time": 28.177272727272726,
                "end_time": 28.275,
                "pitch": 60,
                "velocity": 80,
                "duration": 0.09772727272727266,
                "tempo": 120.0
            },
            {
                "start_time": 28.388636363636362,
                "end_time": 28.488636363636363,
                "pitch": 64,
                "velocity": 80,
                "duration": 0.10000000000000142,
                "tempo": 120.0
            },
            {
                "start_time": 28.504545454545454,
                "end_time": 28.586363636363636,
                "pitch": 65,
                "velocity": 80,
                "duration": 0.08181818181818201,
                "tempo": 120.0
            },
            {
                "start_time": 28.718181818181815,
                "end_time": 28.802272727272726,
                "pitch": 64,
                "velocity": 80,
                "duration": 0.08409090909091077,
                "tempo": 120.0
            },
            {
                "start_time": 28.936363636363634,
                "end_time": 29.036363636363635,
                "pitch": 60,
                "velocity": 80,
                "duration": 0.10000000000000142,
                "tempo": 120.0
            },
            {
                "start_time": 29.052272727272726,
                "end_time": 29.138636363636362,
                "pitch": 62,
                "velocity": 80,
                "duration": 0.08636363636363598,
                "tempo": 120.0
            },
            {
                "start_time": 29.275,
                "end_time": 29.361363636363635,
                "pitch": 59,
                "velocity": 80,
                "duration": 0.08636363636363598,
                "tempo": 120.0
            },
            {
                "start_time": 29.49772727272727,
                "end_time": 29.577272727272724,
                "pitch": 64,
                "velocity": 80,
                "duration": 0.07954545454545325,
                "tempo": 120.0
            },
            {
                "start_time": 29.704545454545453,
                "end_time": 29.784090909090907,
                "pitch": 57,
                "velocity": 80,
                "duration": 0.07954545454545325,
                "tempo": 120.0
            },
            {
                "start_time": 29.91363636363636,
                "end_time": 29.99772727272727,
                "pitch": 60,
                "velocity": 80,
                "duration": 0.08409090909091077,
                "tempo": 120.0
            },
            {
                "start_time": 30.129545454545454,
                "end_time": 30.23181818181818,
                "pitch": 64,
                "velocity": 80,
                "duration": 0.10227272727272663,
                "tempo": 120.0
            },
            {
                "start_time": 30.24772727272727,
                "end_time": 30.331818181818182,
                "pitch": 65,
                "velocity": 80,
                "duration": 0.08409090909091077,
                "tempo": 120.0
            },
            {
                "start_time": 30.461363636363636,
                "end_time": 30.543181818181818,
                "pitch": 64,
                "velocity": 80,
                "duration": 0.08181818181818201,
                "tempo": 120.0
            },
            {
                "start_time": 30.674999999999997,
                "end_time": 30.75681818181818,
                "pitch": 60,
                "velocity": 80,
                "duration": 0.08181818181818201,
                "tempo": 120.0
            },
            {
                "start_time": 30.77272727272727,
                "end_time": 30.875,
                "pitch": 62,
                "velocity": 80,
                "duration": 0.10227272727273018,
                "tempo": 120.0
            },
            {
                "start_time": 30.995454545454542,
                "end_time": 31.097727272727273,
                "pitch": 59,
                "velocity": 80,
                "duration": 0.10227272727273018,
                "tempo": 120.0
            },
            {
                "start_time": 31.23409090909091,
                "end_time": 31.315909090909088,
                "pitch": 64,
                "velocity": 80,
                "duration": 0.08181818181817846,
                "tempo": 120.0
            },
            {
                "start_time": 31.445454545454545,
                "end_time": 31.527272727272727,
                "pitch": 57,
                "velocity": 80,
                "duration": 0.08181818181818201,
                "tempo": 120.0
            },
            {
                "start_time": 31.659090909090907,
                "end_time": 31.743181818181817,
                "pitch": 60,
                "velocity": 80,
                "duration": 0.08409090909091077,
                "tempo": 120.0
            },
            {
                "start_time": 31.875,
                "end_time": 31.959090909090907,
                "pitch": 64,
                "velocity": 80,
                "duration": 0.08409090909090722,
                "tempo": 120.0
            },
            {
                "start_time": 31.977272727272727,
                "end_time": 32.07727272727273,
                "pitch": 65,
                "velocity": 80,
                "duration": 0.10000000000000142,
                "tempo": 120.0
            },
            {
                "start_time": 32.19090909090909,
                "end_time": 32.288636363636364,
                "pitch": 64,
                "velocity": 80,
                "duration": 0.09772727272727622,
                "tempo": 120.0
            },
            {
                "start_time": 32.42045454545455,
                "end_time": 32.502272727272725,
                "pitch": 60,
                "velocity": 80,
                "duration": 0.08181818181817846,
                "tempo": 120.0
            },
            {
                "start_time": 32.518181818181816,
                "end_time": 32.61818181818182,
                "pitch": 62,
                "velocity": 80,
                "duration": 0.10000000000000142,
                "tempo": 120.0
            },
            {
                "start_time": 32.736363636363635,
                "end_time": 32.836363636363636,
                "pitch": 59,
                "velocity": 80,
                "duration": 0.10000000000000142,
                "tempo": 120.0
            },
            {
                "start_time": 32.95227272727273,
                "end_time": 33.05,
                "pitch": 64,
                "velocity": 80,
                "duration": 0.09772727272726911,
                "tempo": 120.0
            },
            {
                "start_time": 33.16590909090909,
                "end_time": 33.263636363636365,
                "pitch": 57,
                "velocity": 80,
                "duration": 0.09772727272727622,
                "tempo": 120.0
            },
            {
                "start_time": 33.377272727272725,
                "end_time": 33.47727272727273,
                "pitch": 60,
                "velocity": 80,
                "duration": 0.10000000000000142,
                "tempo": 120.0
            },
            {
                "start_time": 33.60681818181818,
                "end_time": 33.68863636363636,
                "pitch": 64,
                "velocity": 80,
                "duration": 0.08181818181818556,
                "tempo": 120.0
            },
            {
                "start_time": 33.70454545454545,
                "end_time": 33.80227272727272,
                "pitch": 65,
                "velocity": 80,
                "duration": 0.09772727272726911,
                "tempo": 120.0
            },
            {
                "start_time": 33.92272727272727,
                "end_time": 34.025,
                "pitch": 64,
                "velocity": 80,
                "duration": 0.10227272727272663,
                "tempo": 120.0
            },
            {
                "start_time": 34.14545454545454,
                "end_time": 34.24772727272727,
                "pitch": 60,
                "velocity": 80,
                "duration": 0.10227272727272663,
                "tempo": 120.0
            },
            {
                "start_time": 34.263636363636365,
                "end_time": 34.34772727272727,
                "pitch": 62,
                "velocity": 80,
                "duration": 0.08409090909090366,
                "tempo": 120.0
            },
            {
                "start_time": 34.48181818181818,
                "end_time": 34.56590909090909,
                "pitch": 59,
                "velocity": 80,
                "duration": 0.08409090909091077,
                "tempo": 120.0
            },
            {
                "start_time": 34.69772727272727,
                "end_time": 34.779545454545456,
                "pitch": 64,
                "velocity": 80,
                "duration": 0.08181818181818556,
                "tempo": 120.0
            },
            {
                "start_time": 34.91136363636363,
                "end_time": 35.00909090909091,
                "pitch": 57,
                "velocity": 80,
                "duration": 0.09772727272727622,
                "tempo": 120.0
            },
            {
                "start_time": 35.125,
                "end_time": 35.22272727272727,
                "pitch": 60,
                "velocity": 80,
                "duration": 0.09772727272726911,
                "tempo": 120.0
            },
            {
                "start_time": 35.336363636363636,
                "end_time": 35.434090909090905,
                "pitch": 64,
                "velocity": 80,
                "duration": 0.09772727272726911,
                "tempo": 120.0
            },
            {
                "start_time": 35.45227272727273,
                "end_time": 35.53181818181818,
                "pitch": 65,
                "velocity": 80,
                "duration": 0.07954545454545325,
                "tempo": 120.0
            },
            {
                "start_time": 35.66590909090909,
                "end_time": 35.75,
                "pitch": 64,
                "velocity": 80,
                "duration": 0.08409090909091077,
                "tempo": 120.0
            },
            {
                "start_time": 35.88409090909091,
                "end_time": 35.96818181818182,
                "pitch": 60,
                "velocity": 80,
                "duration": 0.08409090909091077,
                "tempo": 120.0
            },
            {
                "start_time": 36.0,
                "end_time": 36.086363636363636,
                "pitch": 62,
                "velocity": 80,
                "duration": 0.08636363636363598,
                "tempo": 120.0
            },
            {
                "start_time": 36.22272727272727,
                "end_time": 36.309090909090905,
                "pitch": 59,
                "velocity": 80,
                "duration": 0.08636363636363598,
                "tempo": 120.0
            },
            {
                "start_time": 36.445454545454545,
                "end_time": 36.527272727272724,
                "pitch": 66,
                "velocity": 80,
                "duration": 0.08181818181817846,
                "tempo": 120.0
            },
            {
                "start_time": 36.65681818181818,
                "end_time": 36.73863636363636,
                "pitch": 59,
                "velocity": 80,
                "duration": 0.08181818181817846,
                "tempo": 120.0
            },
            {
                "start_time": 36.87045454545454,
                "end_time": 36.95227272727273,
                "pitch": 62,
                "velocity": 80,
                "duration": 0.08181818181818556,
                "tempo": 120.0
            },
            {
                "start_time": 36.96818181818182,
                "end_time": 37.06590909090909,
                "pitch": 66,
                "velocity": 80,
                "duration": 0.09772727272726911,
                "tempo": 120.0
            },
            {
                "start_time": 37.19772727272727,
                "end_time": 37.279545454545456,
                "pitch": 67,
                "velocity": 80,
                "duration": 0.08181818181818556,
                "tempo": 120.0
            },
            {
                "start_time": 37.41136363636363,
                "end_time": 37.49545454545454,
                "pitch": 66,
                "velocity": 80,
                "duration": 0.08409090909091077,
                "tempo": 120.0
            },
            {
                "start_time": 37.62954545454545,
                "end_time": 37.71363636363636,
                "pitch": 64,
                "velocity": 80,
                "duration": 0.08409090909091077,
                "tempo": 120.0
            },
            {
                "start_time": 37.72954545454545,
                "end_time": 37.82727272727273,
                "pitch": 66,
                "velocity": 80,
                "duration": 0.09772727272727622,
                "tempo": 120.0
            },
            {
                "start_time": 37.94318181818181,
                "end_time": 38.04090909090909,
                "pitch": 62,
                "velocity": 80,
                "duration": 0.09772727272727622,
                "tempo": 120.0
            },
            {
                "start_time": 38.154545454545456,
                "end_time": 38.252272727272725,
                "pitch": 67,
                "velocity": 80,
                "duration": 0.09772727272726911,
                "tempo": 120.0
            },
            {
                "start_time": 38.38409090909091,
                "end_time": 38.465909090909086,
                "pitch": 66,
                "velocity": 80,
                "duration": 0.08181818181817846,
                "tempo": 120.0
            },
            {
                "start_time": 38.48181818181818,
                "end_time": 38.57954545454545,
                "pitch": 67,
                "velocity": 80,
                "duration": 0.09772727272727622,
                "tempo": 120.0
            },
            {
                "start_time": 38.699999999999996,
                "end_time": 38.80227272727272,
                "pitch": 64,
                "velocity": 80,
                "duration": 0.10227272727272663,
                "tempo": 120.0
            },
            {
                "start_time": 38.81818181818181,
                "end_time": 38.904545454545456,
                "pitch": 66,
                "velocity": 80,
                "duration": 0.08636363636364308,
                "tempo": 120.0
            },
            {
                "start_time": 38.92045454545455,
                "end_time": 39.025,
                "pitch": 67,
                "velocity": 80,
                "duration": 0.10454545454545183,
                "tempo": 120.0
            },
            {
                "start_time": 39.04090909090909,
                "end_time": 39.125,
                "pitch": 69,
                "velocity": 80,
                "duration": 0.08409090909091077,
                "tempo": 120.0
            },
            {
                "start_time": 39.25909090909091,
                "end_time": 39.340909090909086,
                "pitch": 67,
                "velocity": 80,
                "duration": 0.08181818181817846,
                "tempo": 120.0
            },
            {
                "start_time": 39.35909090909091,
                "end_time": 39.459090909090904,
                "pitch": 66,
                "velocity": 80,
                "duration": 0.09999999999999432,
                "tempo": 120.0
            },
            {
                "start_time": 39.590909090909086,
                "end_time": 39.67272727272727,
                "pitch": 67,
                "velocity": 80,
                "duration": 0.08181818181818556,
                "tempo": 120.0
            },
            {
                "start_time": 39.68863636363636,
                "end_time": 39.78636363636363,
                "pitch": 64,
                "velocity": 80,
                "duration": 0.09772727272726911,
                "tempo": 120.0
            },
            {
                "start_time": 39.9,
                "end_time": 40.0,
                "pitch": 69,
                "velocity": 80,
                "duration": 0.10000000000000142,
                "tempo": 120.0
            },
            {
                "start_time": 40.01590909090909,
                "end_time": 40.09772727272727,
                "pitch": 57,
                "velocity": 80,
                "duration": 0.08181818181817846,
                "tempo": 120.0
            },
            {
                "start_time": 40.11363636363636,
                "end_time": 40.211363636363636,
                "pitch": 62,
                "velocity": 80,
                "duration": 0.09772727272727622,
                "tempo": 120.0
            },
            {
                "start_time": 40.22727272727273,
                "end_time": 40.309090909090905,
                "pitch": 64,
                "velocity": 80,
                "duration": 0.08181818181817846,
                "tempo": 120.0
            },
            {
                "start_time": 40.324999999999996,
                "end_time": 40.42727272727272,
                "pitch": 57,
                "velocity": 80,
                "duration": 0.10227272727272663,
                "tempo": 120.0
            },
            {
                "start_time": 40.44318181818181,
                "end_time": 40.527272727272724,
                "pitch": 62,
                "velocity": 80,
                "duration": 0.08409090909091077,
                "tempo": 120.0
            },
            {
                "start_time": 40.543181818181814,
                "end_time": 40.643181818181816,
                "pitch": 64,
                "velocity": 80,
                "duration": 0.10000000000000142,
                "tempo": 120.0
            },
            {
                "start_time": 40.66136363636363,
                "end_time": 40.74318181818182,
                "pitch": 57,
                "velocity": 80,
                "duration": 0.08181818181818556,
                "tempo": 120.0
            },
            {
                "start_time": 40.777272727272724,
                "end_time": 41.418181818181814,
                "pitch": 69,
                "velocity": 80,
                "duration": 0.6409090909090907,
                "tempo": 120.0
            },
            {
                "start_time": 41.434090909090905,
                "end_time": 41.51590909090909,
                "pitch": 62,
                "velocity": 80,
                "duration": 0.08181818181818556,
                "tempo": 120.0
            },
            {
                "start_time": 41.53181818181818,
                "end_time": 41.62954545454545,
                "pitch": 64,
                "velocity": 80,
                "duration": 0.09772727272726911,
                "tempo": 120.0
            },
            {
                "start_time": 41.85909090909091,
                "end_time": 42.054545454545455,
                "pitch": 66,
                "velocity": 80,
                "duration": 0.19545454545454533,
                "tempo": 120.0
            },
            {
                "start_time": 42.07272727272727,
                "end_time": 42.27272727272727,
                "pitch": 64,
                "velocity": 80,
                "duration": 0.20000000000000284,
                "tempo": 120.0
            },
            {
                "start_time": 42.288636363636364,
                "end_time": 42.49090909090909,
                "pitch": 66,
                "velocity": 80,
                "duration": 0.20227272727272805,
                "tempo": 120.0
            },
            {
                "start_time": 42.50681818181818,
                "end_time": 42.81818181818181,
                "pitch": 67,
                "velocity": 80,
                "duration": 0.3113636363636303,
                "tempo": 120.0
            },
            {
                "start_time": 42.834090909090904,
                "end_time": 43.13181818181818,
                "pitch": 66,
                "velocity": 80,
                "duration": 0.29772727272727906,
                "tempo": 120.0
            },
            {
                "start_time": 43.16590909090909,
                "end_time": 43.36590909090909,
                "pitch": 62,
                "velocity": 80,
                "duration": 0.20000000000000284,
                "tempo": 120.0
            },
            {
                "start_time": 43.6,
                "end_time": 43.9,
                "pitch": 66,
                "velocity": 80,
                "duration": 0.29999999999999716,
                "tempo": 120.0
            },
            {
                "start_time": 43.918181818181814,
                "end_time": 44.236363636363635,
                "pitch": 64,
                "velocity": 80,
                "duration": 0.3181818181818201,
                "tempo": 120.0
            },
            {
                "start_time": 44.252272727272725,
                "end_time": 44.570454545454545,
                "pitch": 60,
                "velocity": 80,
                "duration": 0.3181818181818201,
                "tempo": 120.0
            },
            {
                "start_time": 44.586363636363636,
                "end_time": 44.88409090909091,
                "pitch": 64,
                "velocity": 80,
                "duration": 0.29772727272727195,
                "tempo": 120.0
            },
            {
                "start_time": 44.9,
                "end_time": 45.095454545454544,
                "pitch": 62,
                "velocity": 80,
                "duration": 0.19545454545454533,
                "tempo": 120.0
            },
            {
                "start_time": 45.324999999999996,
                "end_time": 45.52045454545454,
                "pitch": 66,
                "velocity": 80,
                "duration": 0.19545454545454533,
                "tempo": 120.0
            },
            {
                "start_time": 45.554545454545455,
                "end_time": 45.75909090909091,
                "pitch": 64,
                "velocity": 80,
                "duration": 0.20454545454545325,
                "tempo": 120.0
            },
            {
                "start_time": 45.775,
                "end_time": 45.97954545454545,
                "pitch": 66,
                "velocity": 80,
                "duration": 0.20454545454545325,
                "tempo": 120.0
            },
            {
                "start_time": 45.99772727272727,
                "end_time": 46.293181818181814,
                "pitch": 67,
                "velocity": 80,
                "duration": 0.29545454545454675,
                "tempo": 120.0
            },
            {
                "start_time": 46.309090909090905,
                "end_time": 46.62272727272727,
                "pitch": 66,
                "velocity": 80,
                "duration": 0.3136363636363626,
                "tempo": 120.0
            },
            {
                "start_time": 46.64090909090909,
                "end_time": 46.840909090909086,
                "pitch": 62,
                "velocity": 80,
                "duration": 0.19999999999999574,
                "tempo": 120.0
            },
            {
                "start_time": 47.070454545454545,
                "end_time": 47.38181818181818,
                "pitch": 66,
                "velocity": 80,
                "duration": 0.3113636363636374,
                "tempo": 120.0
            },
            {
                "start_time": 47.39772727272727,
                "end_time": 47.69090909090909,
                "pitch": 64,
                "velocity": 80,
                "duration": 0.29318181818181444,
                "tempo": 120.0
            },
            {
                "start_time": 47.70681818181818,
                "end_time": 48.025,
                "pitch": 60,
                "velocity": 80,
                "duration": 0.3181818181818201,
                "tempo": 120.0
            },
            {
                "start_time": 48.04090909090909,
                "end_time": 48.36363636363636,
                "pitch": 64,
                "velocity": 80,
                "duration": 0.32272727272727053,
                "tempo": 120.0
            },
            {
                "start_time": 48.38181818181818,
                "end_time": 48.586363636363636,
                "pitch": 62,
                "velocity": 80,
                "duration": 0.20454545454545325,
                "tempo": 120.0
            },
            {
                "start_time": 48.81590909090909,
                "end_time": 49.01136363636363,
                "pitch": 66,
                "velocity": 80,
                "duration": 0.19545454545454533,
                "tempo": 120.0
            },
            {
                "start_time": 49.02954545454545,
                "end_time": 49.224999999999994,
                "pitch": 64,
                "velocity": 80,
                "duration": 0.19545454545454533,
                "tempo": 120.0
            },
            {
                "start_time": 49.240909090909085,
                "end_time": 49.43636363636364,
                "pitch": 66,
                "velocity": 80,
                "duration": 0.19545454545455243,
                "tempo": 120.0
            },
            {
                "start_time": 49.45454545454545,
                "end_time": 49.77045454545454,
                "pitch": 67,
                "velocity": 80,
                "duration": 0.3159090909090878,
                "tempo": 120.0
            },
            {
                "start_time": 49.788636363636364,
                "end_time": 50.084090909090904,
                "pitch": 66,
                "velocity": 80,
                "duration": 0.29545454545453964,
                "tempo": 120.0
            },
            {
                "start_time": 50.099999999999994,
                "end_time": 50.29772727272727,
                "pitch": 62,
                "velocity": 80,
                "duration": 0.19772727272727764,
                "tempo": 120.0
            },
            {
                "start_time": 50.55227272727272,
                "end_time": 50.85681818181818,
                "pitch": 66,
                "velocity": 80,
                "duration": 0.3045454545454547,
                "tempo": 120.0
            },
            {
                "start_time": 50.87272727272727,
                "end_time": 51.18181818181818,
                "pitch": 64,
                "velocity": 80,
                "duration": 0.3090909090909122,
                "tempo": 120.0
            },
            {
                "start_time": 51.199999999999996,
                "end_time": 51.5,
                "pitch": 60,
                "velocity": 80,
                "duration": 0.30000000000000426,
                "tempo": 120.0
            },
            {
                "start_time": 51.53409090909091,
                "end_time": 51.82954545454545,
                "pitch": 64,
                "velocity": 80,
                "duration": 0.29545454545454675,
                "tempo": 120.0
            },
            {
                "start_time": 51.845454545454544,
                "end_time": 52.043181818181814,
                "pitch": 62,
                "velocity": 80,
                "duration": 0.19772727272727053,
                "tempo": 120.0
            },
            {
                "start_time": 52.27272727272727,
                "end_time": 52.46818181818182,
                "pitch": 66,
                "velocity": 80,
                "duration": 0.19545454545454533,
                "tempo": 120.0
            },
            {
                "start_time": 52.48409090909091,
                "end_time": 52.684090909090905,
                "pitch": 64,
                "velocity": 80,
                "duration": 0.19999999999999574,
                "tempo": 120.0
            },
            {
                "start_time": 52.71818181818182,
                "end_time": 52.918181818181814,
                "pitch": 66,
                "velocity": 80,
                "duration": 0.19999999999999574,
                "tempo": 120.0
            },
            {
                "start_time": 52.93636363636363,
                "end_time": 53.236363636363635,
                "pitch": 67,
                "velocity": 80,
                "duration": 0.30000000000000426,
                "tempo": 120.0
            },
            {
                "start_time": 53.252272727272725,
                "end_time": 53.570454545454545,
                "pitch": 66,
                "velocity": 80,
                "duration": 0.3181818181818201,
                "tempo": 120.0
            },
            {
                "start_time": 53.586363636363636,
                "end_time": 53.788636363636364,
                "pitch": 62,
                "velocity": 80,
                "duration": 0.20227272727272805,
                "tempo": 120.0
            },
            {
                "start_time": 54.018181818181816,
                "end_time": 54.32954545454545,
                "pitch": 66,
                "velocity": 80,
                "duration": 0.3113636363636374,
                "tempo": 120.0
            },
            {
                "start_time": 54.34772727272727,
                "end_time": 54.64772727272727,
                "pitch": 64,
                "velocity": 80,
                "duration": 0.30000000000000426,
                "tempo": 120.0
            },
            {
                "start_time": 54.663636363636364,
                "end_time": 54.974999999999994,
                "pitch": 60,
                "velocity": 80,
                "duration": 0.3113636363636303,
                "tempo": 120.0
            },
            {
                "start_time": 54.990909090909085,
                "end_time": 55.31136363636363,
                "pitch": 64,
                "velocity": 80,
                "duration": 0.3204545454545453,
                "tempo": 120.0
            },
            {
                "start_time": 55.32727272727273,
                "end_time": 55.53181818181818,
                "pitch": 62,
                "velocity": 80,
                "duration": 0.20454545454545325,
                "tempo": 120.0
            },
            {
                "start_time": 55.55,
                "end_time": 55.63636363636363,
                "pitch": 64,
                "velocity": 80,
                "duration": 0.08636363636363598,
                "tempo": 120.0
            },
            {
                "start_time": 55.77272727272727,
                "end_time": 55.85681818181818,
                "pitch": 57,
                "velocity": 80,
                "duration": 0.08409090909090366,
                "tempo": 120.0
            },
            {
                "start_time": 55.99318181818182,
                "end_time": 56.00909090909091,
                "pitch": 60,
                "velocity": 80,
                "duration": 0.01590909090909065,
                "tempo": 120.0
            }
        ],
        "Church Organ": [
            {
                "start_time": 0.015909090909090907,
                "end_time": 0.07954545454545454,
                "pitch": 38,
                "velocity": 101,
                "duration": 0.06363636363636363,
                "tempo": 120.0
            },
            {
                "start_time": 0.09772727272727272,
                "end_time": 0.17954545454545454,
                "pitch": 40,
                "velocity": 101,
                "duration": 0.08181818181818182,
                "tempo": 120.0
            },
            {
                "start_time": 0.625,
                "end_time": 0.7045454545454545,
                "pitch": 38,
                "velocity": 101,
                "duration": 0.07954545454545447,
                "tempo": 120.0
            },
            {
                "start_time": 0.7204545454545455,
                "end_time": 0.8136363636363636,
                "pitch": 40,
                "velocity": 101,
                "duration": 0.09318181818181814,
                "tempo": 120.0
            },
            {
                "start_time": 1.6886363636363635,
                "end_time": 1.7863636363636364,
                "pitch": 38,
                "velocity": 101,
                "duration": 0.09772727272727288,
                "tempo": 120.0
            },
            {
                "start_time": 1.8022727272727272,
                "end_time": 1.884090909090909,
                "pitch": 40,
                "velocity": 101,
                "duration": 0.08181818181818179,
                "tempo": 120.0
            },
            {
                "start_time": 2.5545454545454542,
                "end_time": 2.6409090909090907,
                "pitch": 38,
                "velocity": 101,
                "duration": 0.08636363636363642,
                "tempo": 120.0
            },
            {
                "start_time": 2.659090909090909,
                "end_time": 2.7636363636363637,
                "pitch": 40,
                "velocity": 101,
                "duration": 0.1045454545454545,
                "tempo": 120.0
            },
            {
                "start_time": 2.7818181818181817,
                "end_time": 2.868181818181818,
                "pitch": 50,
                "velocity": 101,
                "duration": 0.08636363636363642,
                "tempo": 120.0
            },
            {
                "start_time": 2.8863636363636362,
                "end_time": 3.4272727272727272,
                "pitch": 52,
                "velocity": 101,
                "duration": 0.540909090909091,
                "tempo": 120.0
            },
            {
                "start_time": 3.443181818181818,
                "end_time": 3.525,
                "pitch": 38,
                "velocity": 101,
                "duration": 0.08181818181818201,
                "tempo": 120.0
            },
            {
                "start_time": 3.5409090909090906,
                "end_time": 3.6363636363636362,
                "pitch": 40,
                "velocity": 101,
                "duration": 0.09545454545454568,
                "tempo": 120.0
            },
            {
                "start_time": 4.072727272727272,
                "end_time": 4.170454545454545,
                "pitch": 38,
                "velocity": 101,
                "duration": 0.09772727272727266,
                "tempo": 120.0
            },
            {
                "start_time": 4.1863636363636365,
                "end_time": 4.268181818181818,
                "pitch": 40,
                "velocity": 101,
                "duration": 0.08181818181818112,
                "tempo": 120.0
            },
            {
                "start_time": 5.170454545454545,
                "end_time": 5.254545454545454,
                "pitch": 38,
                "velocity": 101,
                "duration": 0.084090909090909,
                "tempo": 120.0
            },
            {
                "start_time": 5.2727272727272725,
                "end_time": 5.372727272727272,
                "pitch": 40,
                "velocity": 101,
                "duration": 0.09999999999999964,
                "tempo": 120.0
            },
            {
                "start_time": 6.031818181818181,
                "end_time": 6.113636363636363,
                "pitch": 38,
                "velocity": 101,
                "duration": 0.08181818181818201,
                "tempo": 120.0
            },
            {
                "start_time": 6.1477272727272725,
                "end_time": 6.2318181818181815,
                "pitch": 40,
                "velocity": 101,
                "duration": 0.084090909090909,
                "tempo": 120.0
            },
            {
                "start_time": 6.247727272727272,
                "end_time": 6.347727272727273,
                "pitch": 50,
                "velocity": 101,
                "duration": 0.10000000000000053,
                "tempo": 120.0
            },
            {
                "start_time": 6.36590909090909,
                "end_time": 6.884090909090909,
                "pitch": 48,
                "velocity": 101,
                "duration": 0.5181818181818185,
                "tempo": 120.0
            },
            {
                "start_time": 6.8999999999999995,
                "end_time": 6.997727272727272,
                "pitch": 38,
                "velocity": 101,
                "duration": 0.09772727272727266,
                "tempo": 120.0
            },
            {
                "start_time": 7.015909090909091,
                "end_time": 7.097727272727273,
                "pitch": 40,
                "velocity": 101,
                "duration": 0.08181818181818201,
                "tempo": 120.0
            },
            {
                "start_time": 7.559090909090909,
                "end_time": 7.643181818181818,
                "pitch": 38,
                "velocity": 101,
                "duration": 0.084090909090909,
                "tempo": 120.0
            },
            {
                "start_time": 7.659090909090908,
                "end_time": 7.759090909090909,
                "pitch": 40,
                "velocity": 101,
                "duration": 0.10000000000000053,
                "tempo": 120.0
            },
            {
                "start_time": 8.645454545454545,
                "end_time": 8.74090909090909,
                "pitch": 38,
                "velocity": 101,
                "duration": 0.09545454545454568,
                "tempo": 120.0
            },
            {
                "start_time": 8.756818181818181,
                "end_time": 8.838636363636363,
                "pitch": 40,
                "velocity": 101,
                "duration": 0.08181818181818201,
                "tempo": 120.0
            },
            {
                "start_time": 9.495454545454544,
                "end_time": 9.595454545454546,
                "pitch": 38,
                "velocity": 101,
                "duration": 0.10000000000000142,
                "tempo": 120.0
            },
            {
                "start_time": 9.611363636363636,
                "end_time": 9.693181818181818,
                "pitch": 40,
                "velocity": 101,
                "duration": 0.08181818181818201,
                "tempo": 120.0
            },
            {
                "start_time": 9.725,
                "end_time": 9.806818181818182,
                "pitch": 50,
                "velocity": 101,
                "duration": 0.08181818181818201,
                "tempo": 120.0
            },
            {
                "start_time": 9.822727272727272,
                "end_time": 10.375,
                "pitch": 52,
                "velocity": 101,
                "duration": 0.5522727272727277,
                "tempo": 120.0
            },
            {
                "start_time": 10.39090909090909,
                "end_time": 10.470454545454546,
                "pitch": 38,
                "velocity": 101,
                "duration": 0.07954545454545503,
                "tempo": 120.0
            },
            {
                "start_time": 10.486363636363636,
                "end_time": 10.584090909090909,
                "pitch": 40,
                "velocity": 101,
                "duration": 0.09772727272727266,
                "tempo": 120.0
            },
            {
                "start_time": 11.024999999999999,
                "end_time": 11.125,
                "pitch": 38,
                "velocity": 101,
                "duration": 0.10000000000000142,
                "tempo": 120.0
            },
            {
                "start_time": 11.14090909090909,
                "end_time": 11.225,
                "pitch": 40,
                "velocity": 101,
                "duration": 0.084090909090909,
                "tempo": 120.0
            },
            {
                "start_time": 12.118181818181817,
                "end_time": 12.202272727272726,
                "pitch": 38,
                "velocity": 101,
                "duration": 0.084090909090909,
                "tempo": 120.0
            },
            {
                "start_time": 12.218181818181817,
                "end_time": 12.318181818181818,
                "pitch": 40,
                "velocity": 101,
                "duration": 0.10000000000000142,
                "tempo": 120.0
            },
            {
                "start_time": 12.988636363636363,
                "end_time": 13.070454545454545,
                "pitch": 38,
                "velocity": 101,
                "duration": 0.08181818181818201,
                "tempo": 120.0
            },
            {
                "start_time": 13.086363636363636,
                "end_time": 13.184090909090909,
                "pitch": 40,
                "velocity": 101,
                "duration": 0.09772727272727266,
                "tempo": 120.0
            },
            {
                "start_time": 13.2,
                "end_time": 13.281818181818181,
                "pitch": 50,
                "velocity": 101,
                "duration": 0.08181818181818201,
                "tempo": 120.0
            },
            {
                "start_time": 13.313636363636363,
                "end_time": 13.838636363636363,
                "pitch": 48,
                "velocity": 101,
                "duration": 0.5250000000000004,
                "tempo": 120.0
            },
            {
                "start_time": 13.85681818181818,
                "end_time": 13.952272727272726,
                "pitch": 40,
                "velocity": 101,
                "duration": 0.09545454545454568,
                "tempo": 120.0
            },
            {
                "start_time": 13.968181818181817,
                "end_time": 14.047727272727272,
                "pitch": 42,
                "velocity": 101,
                "duration": 0.07954545454545503,
                "tempo": 120.0
            },
            {
                "start_time": 14.063636363636363,
                "end_time": 14.161363636363635,
                "pitch": 43,
                "velocity": 101,
                "duration": 0.09772727272727266,
                "tempo": 120.0
            },
            {
                "start_time": 14.177272727272726,
                "end_time": 14.256818181818181,
                "pitch": 42,
                "velocity": 101,
                "duration": 0.07954545454545503,
                "tempo": 120.0
            },
            {
                "start_time": 14.272727272727272,
                "end_time": 14.372727272727271,
                "pitch": 43,
                "velocity": 101,
                "duration": 0.09999999999999964,
                "tempo": 120.0
            },
            {
                "start_time": 14.388636363636364,
                "end_time": 14.472727272727273,
                "pitch": 45,
                "velocity": 101,
                "duration": 0.084090909090909,
                "tempo": 120.0
            },
            {
                "start_time": 14.506818181818181,
                "end_time": 14.59090909090909,
                "pitch": 43,
                "velocity": 101,
                "duration": 0.084090909090909,
                "tempo": 120.0
            },
            {
                "start_time": 14.60681818181818,
                "end_time": 14.70681818181818,
                "pitch": 42,
                "velocity": 101,
                "duration": 0.09999999999999964,
                "tempo": 120.0
            },
            {
                "start_time": 14.722727272727273,
                "end_time": 14.809090909090909,
                "pitch": 43,
                "velocity": 101,
                "duration": 0.08636363636363598,
                "tempo": 120.0
            },
            {
                "start_time": 14.827272727272726,
                "end_time": 14.929545454545455,
                "pitch": 42,
                "velocity": 101,
                "duration": 0.1022727272727284,
                "tempo": 120.0
            },
            {
                "start_time": 14.945454545454545,
                "end_time": 15.031818181818181,
                "pitch": 40,
                "velocity": 101,
                "duration": 0.08636363636363598,
                "tempo": 120.0
            },
            {
                "start_time": 15.047727272727272,
                "end_time": 15.577272727272726,
                "pitch": 38,
                "velocity": 101,
                "duration": 0.5295454545454543,
                "tempo": 120.0
            },
            {
                "start_time": 15.593181818181817,
                "end_time": 15.677272727272726,
                "pitch": 40,
                "velocity": 101,
                "duration": 0.084090909090909,
                "tempo": 120.0
            },
            {
                "start_time": 15.711363636363636,
                "end_time": 15.793181818181818,
                "pitch": 42,
                "velocity": 101,
                "duration": 0.08181818181818201,
                "tempo": 120.0
            },
            {
                "start_time": 15.811363636363636,
                "end_time": 15.911363636363635,
                "pitch": 43,
                "velocity": 101,
                "duration": 0.09999999999999964,
                "tempo": 120.0
            },
            {
                "start_time": 15.927272727272726,
                "end_time": 16.011363636363637,
                "pitch": 42,
                "velocity": 101,
                "duration": 0.08409090909091077,
                "tempo": 120.0
            },
            {
                "start_time": 16.027272727272727,
                "end_time": 16.125,
                "pitch": 43,
                "velocity": 101,
                "duration": 0.09772727272727266,
                "tempo": 120.0
            },
            {
                "start_time": 16.143181818181816,
                "end_time": 16.224999999999998,
                "pitch": 45,
                "velocity": 101,
                "duration": 0.08181818181818201,
                "tempo": 120.0
            },
            {
                "start_time": 16.24090909090909,
                "end_time": 16.33863636363636,
                "pitch": 43,
                "velocity": 101,
                "duration": 0.09772727272727266,
                "tempo": 120.0
            },
            {
                "start_time": 16.354545454545455,
                "end_time": 16.436363636363634,
                "pitch": 42,
                "velocity": 101,
                "duration": 0.08181818181817846,
                "tempo": 120.0
            },
            {
                "start_time": 16.452272727272728,
                "end_time": 16.552272727272726,
                "pitch": 43,
                "velocity": 101,
                "duration": 0.09999999999999787,
                "tempo": 120.0
            },
            {
                "start_time": 16.570454545454545,
                "end_time": 16.654545454545453,
                "pitch": 42,
                "velocity": 101,
                "duration": 0.08409090909090722,
                "tempo": 120.0
            },
            {
                "start_time": 16.670454545454543,
                "end_time": 16.770454545454545,
                "pitch": 43,
                "velocity": 101,
                "duration": 0.10000000000000142,
                "tempo": 120.0
            },
            {
                "start_time": 16.786363636363635,
                "end_time": 17.32272727272727,
                "pitch": 45,
                "velocity": 101,
                "duration": 0.5363636363636353,
                "tempo": 120.0
            },
            {
                "start_time": 17.33863636363636,
                "end_time": 17.420454545454543,
                "pitch": 45,
                "velocity": 101,
                "duration": 0.08181818181818201,
                "tempo": 120.0
            },
            {
                "start_time": 17.436363636363634,
                "end_time": 17.534090909090907,
                "pitch": 47,
                "velocity": 101,
                "duration": 0.09772727272727266,
                "tempo": 120.0
            },
            {
                "start_time": 17.552272727272726,
                "end_time": 17.634090909090908,
                "pitch": 48,
                "velocity": 101,
                "duration": 0.08181818181818201,
                "tempo": 120.0
            },
            {
                "start_time": 17.65,
                "end_time": 17.74772727272727,
                "pitch": 47,
                "velocity": 101,
                "duration": 0.09772727272727266,
                "tempo": 120.0
            },
            {
                "start_time": 17.763636363636362,
                "end_time": 17.847727272727273,
                "pitch": 48,
                "velocity": 101,
                "duration": 0.08409090909091077,
                "tempo": 120.0
            },
            {
                "start_time": 17.863636363636363,
                "end_time": 17.96363636363636,
                "pitch": 50,
                "velocity": 101,
                "duration": 0.09999999999999787,
                "tempo": 120.0
            },
            {
                "start_time": 17.98181818181818,
                "end_time": 18.063636363636363,
                "pitch": 48,
                "velocity": 101,
                "duration": 0.08181818181818201,
                "tempo": 120.0
            },
            {
                "start_time": 18.097727272727273,
                "end_time": 18.18181818181818,
                "pitch": 47,
                "velocity": 101,
                "duration": 0.08409090909090722,
                "tempo": 120.0
            },
            {
                "start_time": 18.19772727272727,
                "end_time": 18.295454545454543,
                "pitch": 48,
                "velocity": 101,
                "duration": 0.09772727272727266,
                "tempo": 120.0
            },
            {
                "start_time": 18.313636363636363,
                "end_time": 18.395454545454545,
                "pitch": 47,
                "velocity": 101,
                "duration": 0.08181818181818201,
                "tempo": 120.0
            },
            {
                "start_time": 18.411363636363635,
                "end_time": 18.509090909090908,
                "pitch": 45,
                "velocity": 101,
                "duration": 0.09772727272727266,
                "tempo": 120.0
            },
            {
                "start_time": 18.525,
                "end_time": 19.04090909090909,
                "pitch": 43,
                "velocity": 101,
                "duration": 0.5159090909090907,
                "tempo": 120.0
            },
            {
                "start_time": 19.05909090909091,
                "end_time": 19.15681818181818,
                "pitch": 45,
                "velocity": 101,
                "duration": 0.09772727272727266,
                "tempo": 120.0
            },
            {
                "start_time": 19.172727272727272,
                "end_time": 19.254545454545454,
                "pitch": 47,
                "velocity": 101,
                "duration": 0.08181818181818201,
                "tempo": 120.0
            },
            {
                "start_time": 19.286363636363635,
                "end_time": 19.368181818181817,
                "pitch": 48,
                "velocity": 101,
                "duration": 0.08181818181818201,
                "tempo": 120.0
            },
            {
                "start_time": 19.386363636363637,
                "end_time": 19.48409090909091,
                "pitch": 47,
                "velocity": 101,
                "duration": 0.09772727272727266,
                "tempo": 120.0
            },
            {
                "start_time": 19.5,
                "end_time": 19.584090909090907,
                "pitch": 48,
                "velocity": 101,
                "duration": 0.08409090909090722,
                "tempo": 120.0
            },
            {
                "start_time": 19.599999999999998,
                "end_time": 19.7,
                "pitch": 50,
                "velocity": 101,
                "duration": 0.10000000000000142,
                "tempo": 120.0
            },
            {
                "start_time": 19.71818181818182,
                "end_time": 19.8,
                "pitch": 48,
                "velocity": 101,
                "duration": 0.08181818181818201,
                "tempo": 120.0
            },
            {
                "start_time": 19.818181818181817,
                "end_time": 19.918181818181818,
                "pitch": 47,
                "velocity": 101,
                "duration": 0.10000000000000142,
                "tempo": 120.0
            },
            {
                "start_time": 19.93409090909091,
                "end_time": 20.018181818181816,
                "pitch": 45,
                "velocity": 101,
                "duration": 0.08409090909090722,
                "tempo": 120.0
            },
            {
                "start_time": 20.034090909090907,
                "end_time": 20.134090909090908,
                "pitch": 43,
                "velocity": 101,
                "duration": 0.10000000000000142,
                "tempo": 120.0
            },
            {
                "start_time": 20.152272727272727,
                "end_time": 20.236363636363635,
                "pitch": 45,
                "velocity": 101,
                "duration": 0.08409090909090722,
                "tempo": 120.0
            },
            {
                "start_time": 20.252272727272725,
                "end_time": 20.352272727272727,
                "pitch": 43,
                "velocity": 101,
                "duration": 0.10000000000000142,
                "tempo": 120.0
            },
            {
                "start_time": 20.368181818181817,
                "end_time": 20.45,
                "pitch": 42,
                "velocity": 101,
                "duration": 0.08181818181818201,
                "tempo": 120.0
            },
            {
                "start_time": 20.48409090909091,
                "end_time": 20.56590909090909,
                "pitch": 43,
                "velocity": 101,
                "duration": 0.08181818181818201,
                "tempo": 120.0
            },
            {
                "start_time": 20.581818181818182,
                "end_time": 20.679545454545455,
                "pitch": 42,
                "velocity": 101,
                "duration": 0.09772727272727266,
                "tempo": 120.0
            },
            {
                "start_time": 20.695454545454545,
                "end_time": 20.777272727272727,
                "pitch": 40,
                "velocity": 101,
                "duration": 0.08181818181818201,
                "tempo": 120.0
            },
            {
                "start_time": 20.793181818181818,
                "end_time": 20.893181818181816,
                "pitch": 38,
                "velocity": 101,
                "duration": 0.09999999999999787,
                "tempo": 120.0
            },
            {
                "start_time": 20.909090909090907,
                "end_time": 20.99090909090909,
                "pitch": 40,
                "velocity": 101,
                "duration": 0.08181818181818201,
                "tempo": 120.0
            },
            {
                "start_time": 21.43181818181818,
                "end_time": 21.529545454545453,
                "pitch": 38,
                "velocity": 101,
                "duration": 0.09772727272727266,
                "tempo": 120.0
            },
            {
                "start_time": 21.545454545454543,
                "end_time": 21.627272727272725,
                "pitch": 40,
                "velocity": 101,
                "duration": 0.08181818181818201,
                "tempo": 120.0
            },
            {
                "start_time": 22.54090909090909,
                "end_time": 22.62272727272727,
                "pitch": 38,
                "velocity": 101,
                "duration": 0.08181818181818201,
                "tempo": 120.0
            },
            {
                "start_time": 22.638636363636362,
                "end_time": 22.736363636363635,
                "pitch": 40,
                "velocity": 101,
                "duration": 0.09772727272727266,
                "tempo": 120.0
            },
            {
                "start_time": 23.39090909090909,
                "end_time": 23.49090909090909,
                "pitch": 38,
                "velocity": 101,
                "duration": 0.09999999999999787,
                "tempo": 120.0
            },
            {
                "start_time": 23.50681818181818,
                "end_time": 23.59090909090909,
                "pitch": 40,
                "velocity": 101,
                "duration": 0.08409090909091077,
                "tempo": 120.0
            },
            {
                "start_time": 23.60909090909091,
                "end_time": 23.709090909090907,
                "pitch": 50,
                "velocity": 101,
                "duration": 0.09999999999999787,
                "tempo": 120.0
            },
            {
                "start_time": 23.724999999999998,
                "end_time": 24.259090909090908,
                "pitch": 52,
                "velocity": 101,
                "duration": 0.5340909090909101,
                "tempo": 120.0
            },
            {
                "start_time": 24.277272727272727,
                "end_time": 24.361363636363635,
                "pitch": 38,
                "velocity": 101,
                "duration": 0.08409090909090722,
                "tempo": 120.0
            },
            {
                "start_time": 24.377272727272725,
                "end_time": 24.477272727272727,
                "pitch": 40,
                "velocity": 101,
                "duration": 0.10000000000000142,
                "tempo": 120.0
            },
            {
                "start_time": 24.922727272727272,
                "end_time": 25.004545454545454,
                "pitch": 38,
                "velocity": 101,
                "duration": 0.08181818181818201,
                "tempo": 120.0
            },
            {
                "start_time": 25.02272727272727,
                "end_time": 25.120454545454542,
                "pitch": 40,
                "velocity": 101,
                "duration": 0.09772727272727266,
                "tempo": 120.0
            },
            {
                "start_time": 26.004545454545454,
                "end_time": 26.102272727272727,
                "pitch": 38,
                "velocity": 101,
                "duration": 0.09772727272727266,
                "tempo": 120.0
            },
            {
                "start_time": 26.118181818181817,
                "end_time": 26.19772727272727,
                "pitch": 40,
                "velocity": 101,
                "duration": 0.07954545454545325,
                "tempo": 120.0
            },
            {
                "start_time": 26.88181818181818,
                "end_time": 26.96590909090909,
                "pitch": 38,
                "velocity": 101,
                "duration": 0.08409090909091077,
                "tempo": 120.0
            },
            {
                "start_time": 26.98181818181818,
                "end_time": 27.084090909090907,
                "pitch": 40,
                "velocity": 101,
                "duration": 0.10227272727272663,
                "tempo": 120.0
            },
            {
                "start_time": 27.099999999999998,
                "end_time": 27.18409090909091,
                "pitch": 50,
                "velocity": 101,
                "duration": 0.08409090909091077,
                "tempo": 120.0
            },
            {
                "start_time": 27.2,
                "end_time": 27.73409090909091,
                "pitch": 48,
                "velocity": 101,
                "duration": 0.5340909090909101,
                "tempo": 120.0
            },
            {
                "start_time": 27.752272727272725,
                "end_time": 27.849999999999998,
                "pitch": 38,
                "velocity": 101,
                "duration": 0.09772727272727266,
                "tempo": 120.0
            },
            {
                "start_time": 27.86590909090909,
                "end_time": 27.94772727272727,
                "pitch": 40,
                "velocity": 101,
                "duration": 0.08181818181818201,
                "tempo": 120.0
            },
            {
                "start_time": 28.388636363636362,
                "end_time": 28.488636363636363,
                "pitch": 38,
                "velocity": 101,
                "duration": 0.10000000000000142,
                "tempo": 120.0
            },
            {
                "start_time": 28.504545454545454,
                "end_time": 28.586363636363636,
                "pitch": 40,
                "velocity": 101,
                "duration": 0.08181818181818201,
                "tempo": 120.0
            },
            {
                "start_time": 29.49772727272727,
                "end_time": 29.577272727272724,
                "pitch": 38,
                "velocity": 101,
                "duration": 0.07954545454545325,
                "tempo": 120.0
            },
            {
                "start_time": 29.593181818181815,
                "end_time": 29.688636363636363,
                "pitch": 40,
                "velocity": 101,
                "duration": 0.09545454545454746,
                "tempo": 120.0
            },
            {
                "start_time": 30.347727272727273,
                "end_time": 30.445454545454545,
                "pitch": 38,
                "velocity": 101,
                "duration": 0.09772727272727266,
                "tempo": 120.0
            },
            {
                "start_time": 30.461363636363636,
                "end_time": 30.543181818181818,
                "pitch": 40,
                "velocity": 101,
                "duration": 0.08181818181818201,
                "tempo": 120.0
            },
            {
                "start_time": 30.561363636363634,
                "end_time": 30.659090909090907,
                "pitch": 50,
                "velocity": 101,
                "duration": 0.09772727272727266,
                "tempo": 120.0
            },
            {
                "start_time": 30.674999999999997,
                "end_time": 31.2,
                "pitch": 52,
                "velocity": 101,
                "duration": 0.5250000000000021,
                "tempo": 120.0
            },
            {
                "start_time": 31.23409090909091,
                "end_time": 31.315909090909088,
                "pitch": 38,
                "velocity": 101,
                "duration": 0.08181818181817846,
                "tempo": 120.0
            },
            {
                "start_time": 31.331818181818182,
                "end_time": 31.429545454545455,
                "pitch": 40,
                "velocity": 101,
                "duration": 0.09772727272727266,
                "tempo": 120.0
            },
            {
                "start_time": 31.875,
                "end_time": 31.959090909090907,
                "pitch": 38,
                "velocity": 101,
                "duration": 0.08409090909090722,
                "tempo": 120.0
            },
            {
                "start_time": 31.977272727272727,
                "end_time": 32.07727272727273,
                "pitch": 40,
                "velocity": 101,
                "duration": 0.10000000000000142,
                "tempo": 120.0
            },
            {
                "start_time": 32.95227272727273,
                "end_time": 33.05,
                "pitch": 38,
                "velocity": 101,
                "duration": 0.09772727272726911,
                "tempo": 120.0
            },
            {
                "start_time": 33.06818181818182,
                "end_time": 33.15,
                "pitch": 40,
                "velocity": 101,
                "duration": 0.08181818181817846,
                "tempo": 120.0
            },
            {
                "start_time": 33.820454545454545,
                "end_time": 33.904545454545456,
                "pitch": 38,
                "velocity": 101,
                "duration": 0.08409090909091077,
                "tempo": 120.0
            },
            {
                "start_time": 33.92272727272727,
                "end_time": 34.025,
                "pitch": 40,
                "velocity": 101,
                "duration": 0.10227272727272663,
                "tempo": 120.0
            },
            {
                "start_time": 34.04090909090909,
                "end_time": 34.127272727272725,
                "pitch": 50,
                "velocity": 101,
                "duration": 0.08636363636363598,
                "tempo": 120.0
            },
            {
                "start_time": 34.14545454545454,
                "end_time": 34.68181818181818,
                "pitch": 48,
                "velocity": 101,
                "duration": 0.5363636363636388,
                "tempo": 120.0
            },
            {
                "start_time": 34.69772727272727,
                "end_time": 34.779545454545456,
                "pitch": 38,
                "velocity": 101,
                "duration": 0.08181818181818556,
                "tempo": 120.0
            },
            {
                "start_time": 34.81363636363636,
                "end_time": 34.89545454545454,
                "pitch": 40,
                "velocity": 101,
                "duration": 0.08181818181817846,
                "tempo": 120.0
            },
            {
                "start_time": 35.336363636363636,
                "end_time": 35.434090909090905,
                "pitch": 38,
                "velocity": 101,
                "duration": 0.09772727272726911,
                "tempo": 120.0
            },
            {
                "start_time": 35.45227272727273,
                "end_time": 35.53181818181818,
                "pitch": 40,
                "velocity": 101,
                "duration": 0.07954545454545325,
                "tempo": 120.0
            },
            {
                "start_time": 36.445454545454545,
                "end_time": 36.527272727272724,
                "pitch": 40,
                "velocity": 101,
                "duration": 0.08181818181817846,
                "tempo": 120.0
            },
            {
                "start_time": 36.543181818181814,
                "end_time": 36.64090909090909,
                "pitch": 42,
                "velocity": 101,
                "duration": 0.09772727272727622,
                "tempo": 120.0
            },
            {
                "start_time": 37.08181818181818,
                "end_time": 37.163636363636364,
                "pitch": 40,
                "velocity": 101,
                "duration": 0.08181818181818556,
                "tempo": 120.0
            },
            {
                "start_time": 37.19772727272727,
                "end_time": 37.279545454545456,
                "pitch": 42,
                "velocity": 101,
                "duration": 0.08181818181818556,
                "tempo": 120.0
            },
            {
                "start_time": 38.154545454545456,
                "end_time": 38.252272727272725,
                "pitch": 42,
                "velocity": 101,
                "duration": 0.09772727272726911,
                "tempo": 120.0
            },
            {
                "start_time": 38.27045454545454,
                "end_time": 38.35227272727273,
                "pitch": 43,
                "velocity": 101,
                "duration": 0.08181818181818556,
                "tempo": 120.0
            },
            {
                "start_time": 38.81818181818181,
                "end_time": 38.904545454545456,
                "pitch": 42,
                "velocity": 101,
                "duration": 0.08636363636364308,
                "tempo": 120.0
            },
            {
                "start_time": 38.92045454545455,
                "end_time": 39.025,
                "pitch": 43,
                "velocity": 101,
                "duration": 0.10454545454545183,
                "tempo": 120.0
            },
            {
                "start_time": 39.9,
                "end_time": 40.09772727272727,
                "pitch": 43,
                "velocity": 101,
                "duration": 0.19772727272727053,
                "tempo": 120.0
            },
            {
                "start_time": 40.11363636363636,
                "end_time": 40.309090909090905,
                "pitch": 43,
                "velocity": 101,
                "duration": 0.19545454545454533,
                "tempo": 120.0
            },
            {
                "start_time": 40.324999999999996,
                "end_time": 40.527272727272724,
                "pitch": 43,
                "velocity": 101,
                "duration": 0.20227272727272805,
                "tempo": 120.0
            },
            {
                "start_time": 40.543181818181814,
                "end_time": 40.74318181818182,
                "pitch": 43,
                "velocity": 101,
                "duration": 0.20000000000000284,
                "tempo": 120.0
            },
            {
                "start_time": 40.777272727272724,
                "end_time": 41.62954545454545,
                "pitch": 45,
                "velocity": 101,
                "duration": 0.8522727272727266,
                "tempo": 120.0
            },
            {
                "start_time": 41.64772727272727,
                "end_time": 43.13181818181818,
                "pitch": 50,
                "velocity": 101,
                "duration": 1.4840909090909093,
                "tempo": 120.0
            },
            {
                "start_time": 43.16590909090909,
                "end_time": 43.25,
                "pitch": 45,
                "velocity": 101,
                "duration": 0.08409090909091077,
                "tempo": 120.0
            },
            {
                "start_time": 43.26590909090909,
                "end_time": 43.36590909090909,
                "pitch": 47,
                "velocity": 101,
                "duration": 0.10000000000000142,
                "tempo": 120.0
            },
            {
                "start_time": 43.38181818181818,
                "end_time": 44.018181818181816,
                "pitch": 48,
                "velocity": 101,
                "duration": 0.6363636363636331,
                "tempo": 120.0
            },
            {
                "start_time": 44.03409090909091,
                "end_time": 44.67045454545455,
                "pitch": 40,
                "velocity": 101,
                "duration": 0.6363636363636402,
                "tempo": 120.0
            },
            {
                "start_time": 44.68636363636364,
                "end_time": 45.095454545454544,
                "pitch": 43,
                "velocity": 101,
                "duration": 0.4090909090909065,
                "tempo": 120.0
            },
            {
                "start_time": 45.111363636363635,
                "end_time": 46.62272727272727,
                "pitch": 50,
                "velocity": 101,
                "duration": 1.5113636363636331,
                "tempo": 120.0
            },
            {
                "start_time": 46.64090909090909,
                "end_time": 46.72272727272727,
                "pitch": 45,
                "velocity": 101,
                "duration": 0.08181818181817846,
                "tempo": 120.0
            },
            {
                "start_time": 46.75681818181818,
                "end_time": 46.840909090909086,
                "pitch": 47,
                "velocity": 101,
                "duration": 0.08409090909090366,
                "tempo": 120.0
            },
            {
                "start_time": 46.85681818181818,
                "end_time": 47.47954545454545,
                "pitch": 48,
                "velocity": 101,
                "duration": 0.6227272727272748,
                "tempo": 120.0
            },
            {
                "start_time": 47.49545454545454,
                "end_time": 48.143181818181816,
                "pitch": 40,
                "velocity": 101,
                "duration": 0.6477272727272734,
                "tempo": 120.0
            },
            {
                "start_time": 48.15909090909091,
                "end_time": 48.586363636363636,
                "pitch": 43,
                "velocity": 101,
                "duration": 0.42727272727272947,
                "tempo": 120.0
            },
            {
                "start_time": 48.60227272727273,
                "end_time": 50.084090909090904,
                "pitch": 50,
                "velocity": 101,
                "duration": 1.481818181818177,
                "tempo": 120.0
            },
            {
                "start_time": 50.099999999999994,
                "end_time": 50.199999999999996,
                "pitch": 45,
                "velocity": 101,
                "duration": 0.10000000000000142,
                "tempo": 120.0
            },
            {
                "start_time": 50.215909090909086,
                "end_time": 50.29772727272727,
                "pitch": 47,
                "velocity": 101,
                "duration": 0.08181818181818556,
                "tempo": 120.0
            },
            {
                "start_time": 50.32954545454545,
                "end_time": 50.970454545454544,
                "pitch": 48,
                "velocity": 101,
                "duration": 0.6409090909090907,
                "tempo": 120.0
            },
            {
                "start_time": 50.986363636363635,
                "end_time": 51.615909090909085,
                "pitch": 40,
                "velocity": 101,
                "duration": 0.6295454545454504,
                "tempo": 120.0
            },
            {
                "start_time": 51.63409090909091,
                "end_time": 52.043181818181814,
                "pitch": 43,
                "velocity": 101,
                "duration": 0.4090909090909065,
                "tempo": 120.0
            },
            {
                "start_time": 52.059090909090905,
                "end_time": 53.570454545454545,
                "pitch": 50,
                "velocity": 101,
                "duration": 1.5113636363636402,
                "tempo": 120.0
            },
            {
                "start_time": 53.586363636363636,
                "end_time": 53.67045454545454,
                "pitch": 45,
                "velocity": 101,
                "duration": 0.08409090909090366,
                "tempo": 120.0
            },
            {
                "start_time": 53.68863636363636,
                "end_time": 53.788636363636364,
                "pitch": 47,
                "velocity": 101,
                "duration": 0.10000000000000142,
                "tempo": 120.0
            },
            {
                "start_time": 53.804545454545455,
                "end_time": 54.429545454545455,
                "pitch": 48,
                "velocity": 101,
                "duration": 0.625,
                "tempo": 120.0
            },
            {
                "start_time": 54.44772727272727,
                "end_time": 55.07272727272727,
                "pitch": 40,
                "velocity": 101,
                "duration": 0.625,
                "tempo": 120.0
            },
            {
                "start_time": 55.10681818181818,
                "end_time": 55.53181818181818,
                "pitch": 43,
                "velocity": 101,
                "duration": 0.42500000000000426,
                "tempo": 120.0
            },
            {
                "start_time": 55.55,
                "end_time": 55.63636363636363,
                "pitch": 38,
                "velocity": 101,
                "duration": 0.08636363636363598,
                "tempo": 120.0
            },
            {
                "start_time": 55.652272727272724,
                "end_time": 55.75454545454545,
                "pitch": 40,
                "velocity": 101,
                "duration": 0.10227272727272663,
                "tempo": 120.0
            }
        ],
        "Trumpet": [
            {
                "start_time": 0.015909090909090907,
                "end_time": 0.07954545454545454,
                "pitch": 43,
                "velocity": 80,
                "duration": 0.06363636363636363,
                "tempo": 120.0
            },
            {
                "start_time": 0.09772727272727272,
                "end_time": 0.17954545454545454,
                "pitch": 45,
                "velocity": 80,
                "duration": 0.08181818181818182,
                "tempo": 120.0
            },
            {
                "start_time": 0.625,
                "end_time": 0.7045454545454545,
                "pitch": 43,
                "velocity": 80,
                "duration": 0.07954545454545447,
                "tempo": 120.0
            },
            {
                "start_time": 0.7204545454545455,
                "end_time": 0.8136363636363636,
                "pitch": 45,
                "velocity": 80,
                "duration": 0.09318181818181814,
                "tempo": 120.0
            },
            {
                "start_time": 1.6886363636363635,
                "end_time": 1.7863636363636364,
                "pitch": 43,
                "velocity": 80,
                "duration": 0.09772727272727288,
                "tempo": 120.0
            },
            {
                "start_time": 1.8022727272727272,
                "end_time": 1.884090909090909,
                "pitch": 45,
                "velocity": 80,
                "duration": 0.08181818181818179,
                "tempo": 120.0
            },
            {
                "start_time": 2.5545454545454542,
                "end_time": 2.6409090909090907,
                "pitch": 43,
                "velocity": 80,
                "duration": 0.08636363636363642,
                "tempo": 120.0
            },
            {
                "start_time": 2.659090909090909,
                "end_time": 2.7636363636363637,
                "pitch": 45,
                "velocity": 80,
                "duration": 0.1045454545454545,
                "tempo": 120.0
            },
            {
                "start_time": 2.7818181818181817,
                "end_time": 2.868181818181818,
                "pitch": 55,
                "velocity": 80,
                "duration": 0.08636363636363642,
                "tempo": 120.0
            },
            {
                "start_time": 2.8863636363636362,
                "end_time": 3.4272727272727272,
                "pitch": 57,
                "velocity": 80,
                "duration": 0.540909090909091,
                "tempo": 120.0
            },
            {
                "start_time": 3.443181818181818,
                "end_time": 3.525,
                "pitch": 43,
                "velocity": 80,
                "duration": 0.08181818181818201,
                "tempo": 120.0
            },
            {
                "start_time": 3.5409090909090906,
                "end_time": 3.6363636363636362,
                "pitch": 45,
                "velocity": 80,
                "duration": 0.09545454545454568,
                "tempo": 120.0
            },
            {
                "start_time": 4.072727272727272,
                "end_time": 4.170454545454545,
                "pitch": 43,
                "velocity": 80,
                "duration": 0.09772727272727266,
                "tempo": 120.0
            },
            {
                "start_time": 4.1863636363636365,
                "end_time": 4.268181818181818,
                "pitch": 45,
                "velocity": 80,
                "duration": 0.08181818181818112,
                "tempo": 120.0
            },
            {
                "start_time": 5.170454545454545,
                "end_time": 5.254545454545454,
                "pitch": 43,
                "velocity": 80,
                "duration": 0.084090909090909,
                "tempo": 120.0
            },
            {
                "start_time": 5.2727272727272725,
                "end_time": 5.372727272727272,
                "pitch": 45,
                "velocity": 80,
                "duration": 0.09999999999999964,
                "tempo": 120.0
            },
            {
                "start_time": 6.031818181818181,
                "end_time": 6.113636363636363,
                "pitch": 43,
                "velocity": 80,
                "duration": 0.08181818181818201,
                "tempo": 120.0
            },
            {
                "start_time": 6.1477272727272725,
                "end_time": 6.2318181818181815,
                "pitch": 45,
                "velocity": 80,
                "duration": 0.084090909090909,
                "tempo": 120.0
            },
            {
                "start_time": 6.247727272727272,
                "end_time": 6.347727272727273,
                "pitch": 55,
                "velocity": 80,
                "duration": 0.10000000000000053,
                "tempo": 120.0
            },
            {
                "start_time": 6.36590909090909,
                "end_time": 6.884090909090909,
                "pitch": 53,
                "velocity": 80,
                "duration": 0.5181818181818185,
                "tempo": 120.0
            },
            {
                "start_time": 6.8999999999999995,
                "end_time": 6.997727272727272,
                "pitch": 43,
                "velocity": 80,
                "duration": 0.09772727272727266,
                "tempo": 120.0
            },
            {
                "start_time": 7.015909090909091,
                "end_time": 7.097727272727273,
                "pitch": 45,
                "velocity": 80,
                "duration": 0.08181818181818201,
                "tempo": 120.0
            },
            {
                "start_time": 7.559090909090909,
                "end_time": 7.643181818181818,
                "pitch": 43,
                "velocity": 80,
                "duration": 0.084090909090909,
                "tempo": 120.0
            },
            {
                "start_time": 7.659090909090908,
                "end_time": 7.759090909090909,
                "pitch": 45,
                "velocity": 80,
                "duration": 0.10000000000000053,
                "tempo": 120.0
            },
            {
                "start_time": 8.645454545454545,
                "end_time": 8.74090909090909,
                "pitch": 43,
                "velocity": 80,
                "duration": 0.09545454545454568,
                "tempo": 120.0
            },
            {
                "start_time": 8.756818181818181,
                "end_time": 8.838636363636363,
                "pitch": 45,
                "velocity": 80,
                "duration": 0.08181818181818201,
                "tempo": 120.0
            },
            {
                "start_time": 9.495454545454544,
                "end_time": 9.595454545454546,
                "pitch": 43,
                "velocity": 80,
                "duration": 0.10000000000000142,
                "tempo": 120.0
            },
            {
                "start_time": 9.611363636363636,
                "end_time": 9.693181818181818,
                "pitch": 45,
                "velocity": 80,
                "duration": 0.08181818181818201,
                "tempo": 120.0
            },
            {
                "start_time": 9.725,
                "end_time": 9.806818181818182,
                "pitch": 55,
                "velocity": 80,
                "duration": 0.08181818181818201,
                "tempo": 120.0
            },
            {
                "start_time": 9.822727272727272,
                "end_time": 10.375,
                "pitch": 57,
                "velocity": 80,
                "duration": 0.5522727272727277,
                "tempo": 120.0
            },
            {
                "start_time": 10.39090909090909,
                "end_time": 10.470454545454546,
                "pitch": 43,
                "velocity": 80,
                "duration": 0.07954545454545503,
                "tempo": 120.0
            },
            {
                "start_time": 10.486363636363636,
                "end_time": 10.584090909090909,
                "pitch": 45,
                "velocity": 80,
                "duration": 0.09772727272727266,
                "tempo": 120.0
            },
            {
                "start_time": 11.024999999999999,
                "end_time": 11.125,
                "pitch": 43,
                "velocity": 80,
                "duration": 0.10000000000000142,
                "tempo": 120.0
            },
            {
                "start_time": 11.14090909090909,
                "end_time": 11.225,
                "pitch": 45,
                "velocity": 80,
                "duration": 0.084090909090909,
                "tempo": 120.0
            },
            {
                "start_time": 12.118181818181817,
                "end_time": 12.202272727272726,
                "pitch": 43,
                "velocity": 80,
                "duration": 0.084090909090909,
                "tempo": 120.0
            },
            {
                "start_time": 12.218181818181817,
                "end_time": 12.318181818181818,
                "pitch": 45,
                "velocity": 80,
                "duration": 0.10000000000000142,
                "tempo": 120.0
            },
            {
                "start_time": 12.988636363636363,
                "end_time": 13.070454545454545,
                "pitch": 43,
                "velocity": 80,
                "duration": 0.08181818181818201,
                "tempo": 120.0
            },
            {
                "start_time": 13.086363636363636,
                "end_time": 13.184090909090909,
                "pitch": 45,
                "velocity": 80,
                "duration": 0.09772727272727266,
                "tempo": 120.0
            },
            {
                "start_time": 13.2,
                "end_time": 13.281818181818181,
                "pitch": 55,
                "velocity": 80,
                "duration": 0.08181818181818201,
                "tempo": 120.0
            },
            {
                "start_time": 13.313636363636363,
                "end_time": 13.838636363636363,
                "pitch": 53,
                "velocity": 80,
                "duration": 0.5250000000000004,
                "tempo": 120.0
            },
            {
                "start_time": 13.85681818181818,
                "end_time": 13.952272727272726,
                "pitch": 45,
                "velocity": 80,
                "duration": 0.09545454545454568,
                "tempo": 120.0
            },
            {
                "start_time": 13.968181818181817,
                "end_time": 14.047727272727272,
                "pitch": 47,
                "velocity": 80,
                "duration": 0.07954545454545503,
                "tempo": 120.0
            },
            {
                "start_time": 14.063636363636363,
                "end_time": 14.161363636363635,
                "pitch": 48,
                "velocity": 80,
                "duration": 0.09772727272727266,
                "tempo": 120.0
            },
            {
                "start_time": 14.177272727272726,
                "end_time": 14.256818181818181,
                "pitch": 47,
                "velocity": 80,
                "duration": 0.07954545454545503,
                "tempo": 120.0
            },
            {
                "start_time": 14.272727272727272,
                "end_time": 14.372727272727271,
                "pitch": 48,
                "velocity": 80,
                "duration": 0.09999999999999964,
                "tempo": 120.0
            },
            {
                "start_time": 14.388636363636364,
                "end_time": 14.472727272727273,
                "pitch": 50,
                "velocity": 80,
                "duration": 0.084090909090909,
                "tempo": 120.0
            },
            {
                "start_time": 14.506818181818181,
                "end_time": 14.59090909090909,
                "pitch": 48,
                "velocity": 80,
                "duration": 0.084090909090909,
                "tempo": 120.0
            },
            {
                "start_time": 14.60681818181818,
                "end_time": 14.70681818181818,
                "pitch": 47,
                "velocity": 80,
                "duration": 0.09999999999999964,
                "tempo": 120.0
            },
            {
                "start_time": 14.722727272727273,
                "end_time": 14.809090909090909,
                "pitch": 48,
                "velocity": 80,
                "duration": 0.08636363636363598,
                "tempo": 120.0
            },
            {
                "start_time": 14.827272727272726,
                "end_time": 14.929545454545455,
                "pitch": 47,
                "velocity": 80,
                "duration": 0.1022727272727284,
                "tempo": 120.0
            },
            {
                "start_time": 14.945454545454545,
                "end_time": 15.031818181818181,
                "pitch": 45,
                "velocity": 80,
                "duration": 0.08636363636363598,
                "tempo": 120.0
            },
            {
                "start_time": 15.047727272727272,
                "end_time": 15.577272727272726,
                "pitch": 43,
                "velocity": 80,
                "duration": 0.5295454545454543,
                "tempo": 120.0
            },
            {
                "start_time": 15.593181818181817,
                "end_time": 15.677272727272726,
                "pitch": 45,
                "velocity": 80,
                "duration": 0.084090909090909,
                "tempo": 120.0
            },
            {
                "start_time": 15.711363636363636,
                "end_time": 15.793181818181818,
                "pitch": 47,
                "velocity": 80,
                "duration": 0.08181818181818201,
                "tempo": 120.0
            },
            {
                "start_time": 15.811363636363636,
                "end_time": 15.911363636363635,
                "pitch": 48,
                "velocity": 80,
                "duration": 0.09999999999999964,
                "tempo": 120.0
            },
            {
                "start_time": 15.927272727272726,
                "end_time": 16.011363636363637,
                "pitch": 47,
                "velocity": 80,
                "duration": 0.08409090909091077,
                "tempo": 120.0
            },
            {
                "start_time": 16.027272727272727,
                "end_time": 16.125,
                "pitch": 48,
                "velocity": 80,
                "duration": 0.09772727272727266,
                "tempo": 120.0
            },
            {
                "start_time": 16.143181818181816,
                "end_time": 16.224999999999998,
                "pitch": 50,
                "velocity": 80,
                "duration": 0.08181818181818201,
                "tempo": 120.0
            },
            {
                "start_time": 16.24090909090909,
                "end_time": 16.33863636363636,
                "pitch": 48,
                "velocity": 80,
                "duration": 0.09772727272727266,
                "tempo": 120.0
            },
            {
                "start_time": 16.354545454545455,
                "end_time": 16.436363636363634,
                "pitch": 47,
                "velocity": 80,
                "duration": 0.08181818181817846,
                "tempo": 120.0
            },
            {
                "start_time": 16.452272727272728,
                "end_time": 16.552272727272726,
                "pitch": 48,
                "velocity": 80,
                "duration": 0.09999999999999787,
                "tempo": 120.0
            },
            {
                "start_time": 16.570454545454545,
                "end_time": 16.654545454545453,
                "pitch": 47,
                "velocity": 80,
                "duration": 0.08409090909090722,
                "tempo": 120.0
            },
            {
                "start_time": 16.670454545454543,
                "end_time": 16.770454545454545,
                "pitch": 48,
                "velocity": 80,
                "duration": 0.10000000000000142,
                "tempo": 120.0
            },
            {
                "start_time": 16.786363636363635,
                "end_time": 17.32272727272727,
                "pitch": 50,
                "velocity": 80,
                "duration": 0.5363636363636353,
                "tempo": 120.0
            },
            {
                "start_time": 17.33863636363636,
                "end_time": 17.420454545454543,
                "pitch": 50,
                "velocity": 80,
                "duration": 0.08181818181818201,
                "tempo": 120.0
            },
            {
                "start_time": 17.436363636363634,
                "end_time": 17.534090909090907,
                "pitch": 52,
                "velocity": 80,
                "duration": 0.09772727272727266,
                "tempo": 120.0
            },
            {
                "start_time": 17.552272727272726,
                "end_time": 17.634090909090908,
                "pitch": 53,
                "velocity": 80,
                "duration": 0.08181818181818201,
                "tempo": 120.0
            },
            {
                "start_time": 17.65,
                "end_time": 17.74772727272727,
                "pitch": 52,
                "velocity": 80,
                "duration": 0.09772727272727266,
                "tempo": 120.0
            },
            {
                "start_time": 17.763636363636362,
                "end_time": 17.847727272727273,
                "pitch": 53,
                "velocity": 80,
                "duration": 0.08409090909091077,
                "tempo": 120.0
            },
            {
                "start_time": 17.863636363636363,
                "end_time": 17.96363636363636,
                "pitch": 55,
                "velocity": 80,
                "duration": 0.09999999999999787,
                "tempo": 120.0
            },
            {
                "start_time": 17.98181818181818,
                "end_time": 18.063636363636363,
                "pitch": 53,
                "velocity": 80,
                "duration": 0.08181818181818201,
                "tempo": 120.0
            },
            {
                "start_time": 18.097727272727273,
                "end_time": 18.18181818181818,
                "pitch": 52,
                "velocity": 80,
                "duration": 0.08409090909090722,
                "tempo": 120.0
            },
            {
                "start_time": 18.19772727272727,
                "end_time": 18.295454545454543,
                "pitch": 53,
                "velocity": 80,
                "duration": 0.09772727272727266,
                "tempo": 120.0
            },
            {
                "start_time": 18.313636363636363,
                "end_time": 18.395454545454545,
                "pitch": 52,
                "velocity": 80,
                "duration": 0.08181818181818201,
                "tempo": 120.0
            },
            {
                "start_time": 18.411363636363635,
                "end_time": 18.509090909090908,
                "pitch": 50,
                "velocity": 80,
                "duration": 0.09772727272727266,
                "tempo": 120.0
            },
            {
                "start_time": 18.525,
                "end_time": 19.04090909090909,
                "pitch": 48,
                "velocity": 80,
                "duration": 0.5159090909090907,
                "tempo": 120.0
            },
            {
                "start_time": 19.05909090909091,
                "end_time": 19.15681818181818,
                "pitch": 50,
                "velocity": 80,
                "duration": 0.09772727272727266,
                "tempo": 120.0
            },
            {
                "start_time": 19.172727272727272,
                "end_time": 19.254545454545454,
                "pitch": 52,
                "velocity": 80,
                "duration": 0.08181818181818201,
                "tempo": 120.0
            },
            {
                "start_time": 19.286363636363635,
                "end_time": 19.368181818181817,
                "pitch": 53,
                "velocity": 80,
                "duration": 0.08181818181818201,
                "tempo": 120.0
            },
            {
                "start_time": 19.386363636363637,
                "end_time": 19.48409090909091,
                "pitch": 52,
                "velocity": 80,
                "duration": 0.09772727272727266,
                "tempo": 120.0
            },
            {
                "start_time": 19.5,
                "end_time": 19.584090909090907,
                "pitch": 53,
                "velocity": 80,
                "duration": 0.08409090909090722,
                "tempo": 120.0
            },
            {
                "start_time": 19.599999999999998,
                "end_time": 19.7,
                "pitch": 55,
                "velocity": 80,
                "duration": 0.10000000000000142,
                "tempo": 120.0
            },
            {
                "start_time": 19.71818181818182,
                "end_time": 19.8,
                "pitch": 53,
                "velocity": 80,
                "duration": 0.08181818181818201,
                "tempo": 120.0
            },
            {
                "start_time": 19.818181818181817,
                "end_time": 19.918181818181818,
                "pitch": 52,
                "velocity": 80,
                "duration": 0.10000000000000142,
                "tempo": 120.0
            },
            {
                "start_time": 19.93409090909091,
                "end_time": 20.018181818181816,
                "pitch": 50,
                "velocity": 80,
                "duration": 0.08409090909090722,
                "tempo": 120.0
            },
            {
                "start_time": 20.034090909090907,
                "end_time": 20.134090909090908,
                "pitch": 48,
                "velocity": 80,
                "duration": 0.10000000000000142,
                "tempo": 120.0
            },
            {
                "start_time": 20.152272727272727,
                "end_time": 20.236363636363635,
                "pitch": 50,
                "velocity": 80,
                "duration": 0.08409090909090722,
                "tempo": 120.0
            },
            {
                "start_time": 20.252272727272725,
                "end_time": 20.352272727272727,
                "pitch": 48,
                "velocity": 80,
                "duration": 0.10000000000000142,
                "tempo": 120.0
            },
            {
                "start_time": 20.368181818181817,
                "end_time": 20.45,
                "pitch": 47,
                "velocity": 80,
                "duration": 0.08181818181818201,
                "tempo": 120.0
            },
            {
                "start_time": 20.48409090909091,
                "end_time": 20.56590909090909,
                "pitch": 48,
                "velocity": 80,
                "duration": 0.08181818181818201,
                "tempo": 120.0
            },
            {
                "start_time": 20.581818181818182,
                "end_time": 20.679545454545455,
                "pitch": 47,
                "velocity": 80,
                "duration": 0.09772727272727266,
                "tempo": 120.0
            },
            {
                "start_time": 20.695454545454545,
                "end_time": 20.777272727272727,
                "pitch": 45,
                "velocity": 80,
                "duration": 0.08181818181818201,
                "tempo": 120.0
            },
            {
                "start_time": 20.793181818181818,
                "end_time": 20.893181818181816,
                "pitch": 43,
                "velocity": 80,
                "duration": 0.09999999999999787,
                "tempo": 120.0
            },
            {
                "start_time": 20.909090909090907,
                "end_time": 20.99090909090909,
                "pitch": 45,
                "velocity": 80,
                "duration": 0.08181818181818201,
                "tempo": 120.0
            },
            {
                "start_time": 21.43181818181818,
                "end_time": 21.529545454545453,
                "pitch": 43,
                "velocity": 80,
                "duration": 0.09772727272727266,
                "tempo": 120.0
            },
            {
                "start_time": 21.545454545454543,
                "end_time": 21.627272727272725,
                "pitch": 45,
                "velocity": 80,
                "duration": 0.08181818181818201,
                "tempo": 120.0
            },
            {
                "start_time": 22.54090909090909,
                "end_time": 22.62272727272727,
                "pitch": 43,
                "velocity": 80,
                "duration": 0.08181818181818201,
                "tempo": 120.0
            },
            {
                "start_time": 22.638636363636362,
                "end_time": 22.736363636363635,
                "pitch": 45,
                "velocity": 80,
                "duration": 0.09772727272727266,
                "tempo": 120.0
            },
            {
                "start_time": 23.39090909090909,
                "end_time": 23.49090909090909,
                "pitch": 43,
                "velocity": 80,
                "duration": 0.09999999999999787,
                "tempo": 120.0
            },
            {
                "start_time": 23.50681818181818,
                "end_time": 23.59090909090909,
                "pitch": 45,
                "velocity": 80,
                "duration": 0.08409090909091077,
                "tempo": 120.0
            },
            {
                "start_time": 23.60909090909091,
                "end_time": 23.709090909090907,
                "pitch": 55,
                "velocity": 80,
                "duration": 0.09999999999999787,
                "tempo": 120.0
            },
            {
                "start_time": 23.724999999999998,
                "end_time": 24.259090909090908,
                "pitch": 57,
                "velocity": 80,
                "duration": 0.5340909090909101,
                "tempo": 120.0
            },
            {
                "start_time": 24.277272727272727,
                "end_time": 24.361363636363635,
                "pitch": 43,
                "velocity": 80,
                "duration": 0.08409090909090722,
                "tempo": 120.0
            },
            {
                "start_time": 24.377272727272725,
                "end_time": 24.477272727272727,
                "pitch": 45,
                "velocity": 80,
                "duration": 0.10000000000000142,
                "tempo": 120.0
            },
            {
                "start_time": 24.922727272727272,
                "end_time": 25.004545454545454,
                "pitch": 43,
                "velocity": 80,
                "duration": 0.08181818181818201,
                "tempo": 120.0
            },
            {
                "start_time": 25.02272727272727,
                "end_time": 25.120454545454542,
                "pitch": 45,
                "velocity": 80,
                "duration": 0.09772727272727266,
                "tempo": 120.0
            },
            {
                "start_time": 26.004545454545454,
                "end_time": 26.102272727272727,
                "pitch": 43,
                "velocity": 80,
                "duration": 0.09772727272727266,
                "tempo": 120.0
            },
            {
                "start_time": 26.118181818181817,
                "end_time": 26.19772727272727,
                "pitch": 45,
                "velocity": 80,
                "duration": 0.07954545454545325,
                "tempo": 120.0
            },
            {
                "start_time": 26.88181818181818,
                "end_time": 26.96590909090909,
                "pitch": 43,
                "velocity": 80,
                "duration": 0.08409090909091077,
                "tempo": 120.0
            },
            {
                "start_time": 26.98181818181818,
                "end_time": 27.084090909090907,
                "pitch": 45,
                "velocity": 80,
                "duration": 0.10227272727272663,
                "tempo": 120.0
            },
            {
                "start_time": 27.099999999999998,
                "end_time": 27.18409090909091,
                "pitch": 55,
                "velocity": 80,
                "duration": 0.08409090909091077,
                "tempo": 120.0
            },
            {
                "start_time": 27.2,
                "end_time": 27.73409090909091,
                "pitch": 53,
                "velocity": 80,
                "duration": 0.5340909090909101,
                "tempo": 120.0
            },
            {
                "start_time": 27.752272727272725,
                "end_time": 27.849999999999998,
                "pitch": 43,
                "velocity": 80,
                "duration": 0.09772727272727266,
                "tempo": 120.0
            },
            {
                "start_time": 27.86590909090909,
                "end_time": 27.94772727272727,
                "pitch": 45,
                "velocity": 80,
                "duration": 0.08181818181818201,
                "tempo": 120.0
            },
            {
                "start_time": 28.388636363636362,
                "end_time": 28.488636363636363,
                "pitch": 43,
                "velocity": 80,
                "duration": 0.10000000000000142,
                "tempo": 120.0
            },
            {
                "start_time": 28.504545454545454,
                "end_time": 28.586363636363636,
                "pitch": 45,
                "velocity": 80,
                "duration": 0.08181818181818201,
                "tempo": 120.0
            },
            {
                "start_time": 29.49772727272727,
                "end_time": 29.577272727272724,
                "pitch": 43,
                "velocity": 80,
                "duration": 0.07954545454545325,
                "tempo": 120.0
            },
            {
                "start_time": 29.593181818181815,
                "end_time": 29.688636363636363,
                "pitch": 45,
                "velocity": 80,
                "duration": 0.09545454545454746,
                "tempo": 120.0
            },
            {
                "start_time": 30.347727272727273,
                "end_time": 30.445454545454545,
                "pitch": 43,
                "velocity": 80,
                "duration": 0.09772727272727266,
                "tempo": 120.0
            },
            {
                "start_time": 30.461363636363636,
                "end_time": 30.543181818181818,
                "pitch": 45,
                "velocity": 80,
                "duration": 0.08181818181818201,
                "tempo": 120.0
            },
            {
                "start_time": 30.561363636363634,
                "end_time": 30.659090909090907,
                "pitch": 55,
                "velocity": 80,
                "duration": 0.09772727272727266,
                "tempo": 120.0
            },
            {
                "start_time": 30.674999999999997,
                "end_time": 31.2,
                "pitch": 57,
                "velocity": 80,
                "duration": 0.5250000000000021,
                "tempo": 120.0
            },
            {
                "start_time": 31.23409090909091,
                "end_time": 31.315909090909088,
                "pitch": 43,
                "velocity": 80,
                "duration": 0.08181818181817846,
                "tempo": 120.0
            },
            {
                "start_time": 31.331818181818182,
                "end_time": 31.429545454545455,
                "pitch": 45,
                "velocity": 80,
                "duration": 0.09772727272727266,
                "tempo": 120.0
            },
            {
                "start_time": 31.875,
                "end_time": 31.959090909090907,
                "pitch": 43,
                "velocity": 80,
                "duration": 0.08409090909090722,
                "tempo": 120.0
            },
            {
                "start_time": 31.977272727272727,
                "end_time": 32.07727272727273,
                "pitch": 45,
                "velocity": 80,
                "duration": 0.10000000000000142,
                "tempo": 120.0
            },
            {
                "start_time": 32.95227272727273,
                "end_time": 33.05,
                "pitch": 43,
                "velocity": 80,
                "duration": 0.09772727272726911,
                "tempo": 120.0
            },
            {
                "start_time": 33.06818181818182,
                "end_time": 33.15,
                "pitch": 45,
                "velocity": 80,
                "duration": 0.08181818181817846,
                "tempo": 120.0
            },
            {
                "start_time": 33.820454545454545,
                "end_time": 33.904545454545456,
                "pitch": 43,
                "velocity": 80,
                "duration": 0.08409090909091077,
                "tempo": 120.0
            },
            {
                "start_time": 33.92272727272727,
                "end_time": 34.025,
                "pitch": 45,
                "velocity": 80,
                "duration": 0.10227272727272663,
                "tempo": 120.0
            },
            {
                "start_time": 34.04090909090909,
                "end_time": 34.127272727272725,
                "pitch": 55,
                "velocity": 80,
                "duration": 0.08636363636363598,
                "tempo": 120.0
            },
            {
                "start_time": 34.14545454545454,
                "end_time": 34.68181818181818,
                "pitch": 53,
                "velocity": 80,
                "duration": 0.5363636363636388,
                "tempo": 120.0
            },
            {
                "start_time": 34.69772727272727,
                "end_time": 34.779545454545456,
                "pitch": 43,
                "velocity": 80,
                "duration": 0.08181818181818556,
                "tempo": 120.0
            },
            {
                "start_time": 34.81363636363636,
                "end_time": 34.89545454545454,
                "pitch": 45,
                "velocity": 80,
                "duration": 0.08181818181817846,
                "tempo": 120.0
            },
            {
                "start_time": 35.336363636363636,
                "end_time": 35.434090909090905,
                "pitch": 43,
                "velocity": 80,
                "duration": 0.09772727272726911,
                "tempo": 120.0
            },
            {
                "start_time": 35.45227272727273,
                "end_time": 35.53181818181818,
                "pitch": 45,
                "velocity": 80,
                "duration": 0.07954545454545325,
                "tempo": 120.0
            },
            {
                "start_time": 36.445454545454545,
                "end_time": 36.527272727272724,
                "pitch": 45,
                "velocity": 80,
                "duration": 0.08181818181817846,
                "tempo": 120.0
            },
            {
                "start_time": 36.543181818181814,
                "end_time": 36.64090909090909,
                "pitch": 47,
                "velocity": 80,
                "duration": 0.09772727272727622,
                "tempo": 120.0
            },
            {
                "start_time": 37.08181818181818,
                "end_time": 37.163636363636364,
                "pitch": 45,
                "velocity": 80,
                "duration": 0.08181818181818556,
                "tempo": 120.0
            },
            {
                "start_time": 37.19772727272727,
                "end_time": 37.279545454545456,
                "pitch": 47,
                "velocity": 80,
                "duration": 0.08181818181818556,
                "tempo": 120.0
            },
            {
                "start_time": 38.154545454545456,
                "end_time": 38.252272727272725,
                "pitch": 47,
                "velocity": 80,
                "duration": 0.09772727272726911,
                "tempo": 120.0
            },
            {
                "start_time": 38.27045454545454,
                "end_time": 38.35227272727273,
                "pitch": 48,
                "velocity": 80,
                "duration": 0.08181818181818556,
                "tempo": 120.0
            },
            {
                "start_time": 38.81818181818181,
                "end_time": 38.904545454545456,
                "pitch": 47,
                "velocity": 80,
                "duration": 0.08636363636364308,
                "tempo": 120.0
            },
            {
                "start_time": 38.92045454545455,
                "end_time": 39.025,
                "pitch": 48,
                "velocity": 80,
                "duration": 0.10454545454545183,
                "tempo": 120.0
            },
            {
                "start_time": 39.9,
                "end_time": 40.09772727272727,
                "pitch": 50,
                "velocity": 80,
                "duration": 0.19772727272727053,
                "tempo": 120.0
            },
            {
                "start_time": 40.11363636363636,
                "end_time": 40.309090909090905,
                "pitch": 50,
                "velocity": 80,
                "duration": 0.19545454545454533,
                "tempo": 120.0
            },
            {
                "start_time": 40.324999999999996,
                "end_time": 40.527272727272724,
                "pitch": 50,
                "velocity": 80,
                "duration": 0.20227272727272805,
                "tempo": 120.0
            },
            {
                "start_time": 40.543181818181814,
                "end_time": 40.74318181818182,
                "pitch": 50,
                "velocity": 80,
                "duration": 0.20000000000000284,
                "tempo": 120.0
            },
            {
                "start_time": 40.777272727272724,
                "end_time": 41.62954545454545,
                "pitch": 49,
                "velocity": 80,
                "duration": 0.8522727272727266,
                "tempo": 120.0
            },
            {
                "start_time": 41.85909090909091,
                "end_time": 42.054545454545455,
                "pitch": 62,
                "velocity": 80,
                "duration": 0.19545454545454533,
                "tempo": 120.0
            },
            {
                "start_time": 42.07272727272727,
                "end_time": 42.27272727272727,
                "pitch": 62,
                "velocity": 80,
                "duration": 0.20000000000000284,
                "tempo": 120.0
            },
            {
                "start_time": 42.288636363636364,
                "end_time": 42.49090909090909,
                "pitch": 62,
                "velocity": 80,
                "duration": 0.20227272727272805,
                "tempo": 120.0
            },
            {
                "start_time": 42.50681818181818,
                "end_time": 42.81818181818181,
                "pitch": 62,
                "velocity": 80,
                "duration": 0.3113636363636303,
                "tempo": 120.0
            },
            {
                "start_time": 42.834090909090904,
                "end_time": 43.13181818181818,
                "pitch": 62,
                "velocity": 80,
                "duration": 0.29772727272727906,
                "tempo": 120.0
            },
            {
                "start_time": 43.16590909090909,
                "end_time": 43.36590909090909,
                "pitch": 57,
                "velocity": 80,
                "duration": 0.20000000000000284,
                "tempo": 120.0
            },
            {
                "start_time": 43.6,
                "end_time": 43.9,
                "pitch": 62,
                "velocity": 80,
                "duration": 0.29999999999999716,
                "tempo": 120.0
            },
            {
                "start_time": 43.918181818181814,
                "end_time": 44.236363636363635,
                "pitch": 62,
                "velocity": 80,
                "duration": 0.3181818181818201,
                "tempo": 120.0
            },
            {
                "start_time": 44.252272727272725,
                "end_time": 44.570454545454545,
                "pitch": 55,
                "velocity": 80,
                "duration": 0.3181818181818201,
                "tempo": 120.0
            },
            {
                "start_time": 44.586363636363636,
                "end_time": 44.88409090909091,
                "pitch": 60,
                "velocity": 80,
                "duration": 0.29772727272727195,
                "tempo": 120.0
            },
            {
                "start_time": 44.9,
                "end_time": 45.095454545454544,
                "pitch": 60,
                "velocity": 80,
                "duration": 0.19545454545454533,
                "tempo": 120.0
            },
            {
                "start_time": 45.324999999999996,
                "end_time": 45.52045454545454,
                "pitch": 62,
                "velocity": 80,
                "duration": 0.19545454545454533,
                "tempo": 120.0
            },
            {
                "start_time": 45.554545454545455,
                "end_time": 45.75909090909091,
                "pitch": 62,
                "velocity": 80,
                "duration": 0.20454545454545325,
                "tempo": 120.0
            },
            {
                "start_time": 45.775,
                "end_time": 45.97954545454545,
                "pitch": 62,
                "velocity": 80,
                "duration": 0.20454545454545325,
                "tempo": 120.0
            },
            {
                "start_time": 45.99772727272727,
                "end_time": 46.293181818181814,
                "pitch": 62,
                "velocity": 80,
                "duration": 0.29545454545454675,
                "tempo": 120.0
            },
            {
                "start_time": 46.309090909090905,
                "end_time": 46.62272727272727,
                "pitch": 62,
                "velocity": 80,
                "duration": 0.3136363636363626,
                "tempo": 120.0
            },
            {
                "start_time": 46.64090909090909,
                "end_time": 46.840909090909086,
                "pitch": 57,
                "velocity": 80,
                "duration": 0.19999999999999574,
                "tempo": 120.0
            },
            {
                "start_time": 47.070454545454545,
                "end_time": 47.38181818181818,
                "pitch": 62,
                "velocity": 80,
                "duration": 0.3113636363636374,
                "tempo": 120.0
            },
            {
                "start_time": 47.39772727272727,
                "end_time": 47.69090909090909,
                "pitch": 62,
                "velocity": 80,
                "duration": 0.29318181818181444,
                "tempo": 120.0
            },
            {
                "start_time": 47.70681818181818,
                "end_time": 48.025,
                "pitch": 55,
                "velocity": 80,
                "duration": 0.3181818181818201,
                "tempo": 120.0
            },
            {
                "start_time": 48.04090909090909,
                "end_time": 48.36363636363636,
                "pitch": 60,
                "velocity": 80,
                "duration": 0.32272727272727053,
                "tempo": 120.0
            },
            {
                "start_time": 48.38181818181818,
                "end_time": 48.586363636363636,
                "pitch": 60,
                "velocity": 80,
                "duration": 0.20454545454545325,
                "tempo": 120.0
            },
            {
                "start_time": 48.81590909090909,
                "end_time": 49.01136363636363,
                "pitch": 62,
                "velocity": 80,
                "duration": 0.19545454545454533,
                "tempo": 120.0
            },
            {
                "start_time": 49.02954545454545,
                "end_time": 49.224999999999994,
                "pitch": 62,
                "velocity": 80,
                "duration": 0.19545454545454533,
                "tempo": 120.0
            },
            {
                "start_time": 49.240909090909085,
                "end_time": 49.43636363636364,
                "pitch": 62,
                "velocity": 80,
                "duration": 0.19545454545455243,
                "tempo": 120.0
            },
            {
                "start_time": 49.45454545454545,
                "end_time": 49.77045454545454,
                "pitch": 62,
                "velocity": 80,
                "duration": 0.3159090909090878,
                "tempo": 120.0
            },
            {
                "start_time": 49.788636363636364,
                "end_time": 50.084090909090904,
                "pitch": 62,
                "velocity": 80,
                "duration": 0.29545454545453964,
                "tempo": 120.0
            },
            {
                "start_time": 50.099999999999994,
                "end_time": 50.29772727272727,
                "pitch": 57,
                "velocity": 80,
                "duration": 0.19772727272727764,
                "tempo": 120.0
            },
            {
                "start_time": 50.55227272727272,
                "end_time": 50.85681818181818,
                "pitch": 62,
                "velocity": 80,
                "duration": 0.3045454545454547,
                "tempo": 120.0
            },
            {
                "start_time": 50.87272727272727,
                "end_time": 51.18181818181818,
                "pitch": 62,
                "velocity": 80,
                "duration": 0.3090909090909122,
                "tempo": 120.0
            },
            {
                "start_time": 51.199999999999996,
                "end_time": 51.5,
                "pitch": 55,
                "velocity": 80,
                "duration": 0.30000000000000426,
                "tempo": 120.0
            },
            {
                "start_time": 51.53409090909091,
                "end_time": 51.82954545454545,
                "pitch": 60,
                "velocity": 80,
                "duration": 0.29545454545454675,
                "tempo": 120.0
            },
            {
                "start_time": 51.845454545454544,
                "end_time": 52.043181818181814,
                "pitch": 60,
                "velocity": 80,
                "duration": 0.19772727272727053,
                "tempo": 120.0
            },
            {
                "start_time": 52.27272727272727,
                "end_time": 52.46818181818182,
                "pitch": 62,
                "velocity": 80,
                "duration": 0.19545454545454533,
                "tempo": 120.0
            },
            {
                "start_time": 52.48409090909091,
                "end_time": 52.684090909090905,
                "pitch": 62,
                "velocity": 80,
                "duration": 0.19999999999999574,
                "tempo": 120.0
            },
            {
                "start_time": 52.71818181818182,
                "end_time": 52.918181818181814,
                "pitch": 62,
                "velocity": 80,
                "duration": 0.19999999999999574,
                "tempo": 120.0
            },
            {
                "start_time": 52.93636363636363,
                "end_time": 53.236363636363635,
                "pitch": 62,
                "velocity": 80,
                "duration": 0.30000000000000426,
                "tempo": 120.0
            },
            {
                "start_time": 53.252272727272725,
                "end_time": 53.570454545454545,
                "pitch": 62,
                "velocity": 80,
                "duration": 0.3181818181818201,
                "tempo": 120.0
            },
            {
                "start_time": 53.586363636363636,
                "end_time": 53.788636363636364,
                "pitch": 57,
                "velocity": 80,
                "duration": 0.20227272727272805,
                "tempo": 120.0
            },
            {
                "start_time": 54.018181818181816,
                "end_time": 54.32954545454545,
                "pitch": 62,
                "velocity": 80,
                "duration": 0.3113636363636374,
                "tempo": 120.0
            },
            {
                "start_time": 54.34772727272727,
                "end_time": 54.64772727272727,
                "pitch": 62,
                "velocity": 80,
                "duration": 0.30000000000000426,
                "tempo": 120.0
            },
            {
                "start_time": 54.663636363636364,
                "end_time": 54.974999999999994,
                "pitch": 55,
                "velocity": 80,
                "duration": 0.3113636363636303,
                "tempo": 120.0
            },
            {
                "start_time": 54.990909090909085,
                "end_time": 55.31136363636363,
                "pitch": 60,
                "velocity": 80,
                "duration": 0.3204545454545453,
                "tempo": 120.0
            },
            {
                "start_time": 55.32727272727273,
                "end_time": 55.53181818181818,
                "pitch": 60,
                "velocity": 80,
                "duration": 0.20454545454545325,
                "tempo": 120.0
            },
            {
                "start_time": 55.55,
                "end_time": 55.63636363636363,
                "pitch": 43,
                "velocity": 80,
                "duration": 0.08636363636363598,
                "tempo": 120.0
            },
            {
                "start_time": 55.652272727272724,
                "end_time": 55.75454545454545,
                "pitch": 45,
                "velocity": 80,
                "duration": 0.10227272727272663,
                "tempo": 120.0
            }
        ]
    }
}