{
    "track_id": "Cyborg Hunter (FM) - 02 - Main hallway",
    "mood": "angry",
    "instruments": {
        "Trumpet": [
            {
                "start_time": 0.013636363636363636,
                "end_time": 0.19318181818181818,
                "pitch": 44,
                "velocity": 80,
                "duration": 0.17954545454545454,
                "tempo": 120.0
            },
            {
                "start_time": 0.21136363636363636,
                "end_time": 0.42272727272727273,
                "pitch": 45,
                "velocity": 80,
                "duration": 0.21136363636363636,
                "tempo": 120.0
            },
            {
                "start_time": 0.4386363636363636,
                "end_time": 0.6272727272727272,
                "pitch": 44,
                "velocity": 80,
                "duration": 0.1886363636363636,
                "tempo": 120.0
            },
            {
                "start_time": 0.6590909090909091,
                "end_time": 0.8454545454545455,
                "pitch": 43,
                "velocity": 80,
                "duration": 0.1863636363636364,
                "tempo": 120.0
            },
            {
                "start_time": 0.8613636363636363,
                "end_time": 1.075,
                "pitch": 45,
                "velocity": 80,
                "duration": 0.21363636363636362,
                "tempo": 120.0
            },
            {
                "start_time": 1.0909090909090908,
                "end_time": 1.1886363636363635,
                "pitch": 44,
                "velocity": 80,
                "duration": 0.09772727272727266,
                "tempo": 120.0
            },
            {
                "start_time": 1.3204545454545453,
                "end_time": 1.4022727272727271,
                "pitch": 44,
                "velocity": 80,
                "duration": 0.08181818181818179,
                "tempo": 120.0
            },
            {
                "start_time": 1.5363636363636364,
                "end_time": 1.6363636363636362,
                "pitch": 44,
                "velocity": 80,
                "duration": 0.09999999999999987,
                "tempo": 120.0
            },
            {
                "start_time": 1.7704545454545453,
                "end_time": 1.9886363636363635,
                "pitch": 44,
                "velocity": 80,
                "duration": 0.21818181818181825,
                "tempo": 120.0
            },
            {
                "start_time": 2.0045454545454544,
                "end_time": 2.2068181818181816,
                "pitch": 45,
                "velocity": 80,
                "duration": 0.20227272727272716,
                "tempo": 120.0
            },
            {
                "start_time": 2.2386363636363633,
                "end_time": 2.440909090909091,
                "pitch": 58,
                "velocity": 80,
                "duration": 0.2022727272727276,
                "tempo": 120.0
            },
            {
                "start_time": 2.4568181818181816,
                "end_time": 2.675,
                "pitch": 57,
                "velocity": 80,
                "duration": 0.21818181818181825,
                "tempo": 120.0
            },
            {
                "start_time": 2.690909090909091,
                "end_time": 2.909090909090909,
                "pitch": 56,
                "velocity": 80,
                "duration": 0.21818181818181825,
                "tempo": 120.0
            },
            {
                "start_time": 2.925,
                "end_time": 3.125,
                "pitch": 50,
                "velocity": 80,
                "duration": 0.20000000000000018,
                "tempo": 120.0
            },
            {
                "start_time": 3.143181818181818,
                "end_time": 3.3545454545454545,
                "pitch": 51,
                "velocity": 80,
                "duration": 0.21136363636363642,
                "tempo": 120.0
            },
            {
                "start_time": 3.3727272727272726,
                "end_time": 3.584090909090909,
                "pitch": 52,
                "velocity": 80,
                "duration": 0.21136363636363642,
                "tempo": 120.0
            },
            {
                "start_time": 3.5999999999999996,
                "end_time": 3.8022727272727272,
                "pitch": 44,
                "velocity": 80,
                "duration": 0.2022727272727276,
                "tempo": 120.0
            },
            {
                "start_time": 3.834090909090909,
                "end_time": 4.036363636363636,
                "pitch": 45,
                "velocity": 80,
                "duration": 0.20227272727272716,
                "tempo": 120.0
            },
            {
                "start_time": 4.052272727272727,
                "end_time": 4.265909090909091,
                "pitch": 44,
                "velocity": 80,
                "duration": 0.21363636363636385,
                "tempo": 120.0
            },
            {
                "start_time": 4.281818181818181,
                "end_time": 4.493181818181818,
                "pitch": 43,
                "velocity": 80,
                "duration": 0.21136363636363686,
                "tempo": 120.0
            },
            {
                "start_time": 4.511363636363636,
                "end_time": 4.715909090909091,
                "pitch": 45,
                "velocity": 80,
                "duration": 0.20454545454545503,
                "tempo": 120.0
            },
            {
                "start_time": 4.7318181818181815,
                "end_time": 4.836363636363636,
                "pitch": 44,
                "velocity": 80,
                "duration": 0.1045454545454545,
                "tempo": 120.0
            },
            {
                "start_time": 4.972727272727273,
                "end_time": 5.068181818181818,
                "pitch": 44,
                "velocity": 80,
                "duration": 0.09545454545454568,
                "tempo": 120.0
            },
            {
                "start_time": 5.195454545454545,
                "end_time": 5.290909090909091,
                "pitch": 44,
                "velocity": 80,
                "duration": 0.09545454545454568,
                "tempo": 120.0
            },
            {
                "start_time": 5.420454545454545,
                "end_time": 5.625,
                "pitch": 44,
                "velocity": 80,
                "duration": 0.20454545454545503,
                "tempo": 120.0
            },
            {
                "start_time": 5.643181818181818,
                "end_time": 5.86590909090909,
                "pitch": 45,
                "velocity": 80,
                "duration": 0.22272727272727266,
                "tempo": 120.0
            },
            {
                "start_time": 5.881818181818182,
                "end_time": 6.095454545454545,
                "pitch": 58,
                "velocity": 80,
                "duration": 0.21363636363636296,
                "tempo": 120.0
            },
            {
                "start_time": 6.111363636363636,
                "end_time": 6.306818181818182,
                "pitch": 57,
                "velocity": 80,
                "duration": 0.19545454545454533,
                "tempo": 120.0
            },
            {
                "start_time": 6.322727272727272,
                "end_time": 6.540909090909091,
                "pitch": 56,
                "velocity": 80,
                "duration": 0.2181818181818187,
                "tempo": 120.0
            },
            {
                "start_time": 6.556818181818182,
                "end_time": 6.7749999999999995,
                "pitch": 50,
                "velocity": 80,
                "duration": 0.2181818181818178,
                "tempo": 120.0
            },
            {
                "start_time": 6.790909090909091,
                "end_time": 6.997727272727272,
                "pitch": 51,
                "velocity": 80,
                "duration": 0.20681818181818112,
                "tempo": 120.0
            },
            {
                "start_time": 7.031818181818181,
                "end_time": 7.236363636363636,
                "pitch": 52,
                "velocity": 80,
                "duration": 0.20454545454545503,
                "tempo": 120.0
            },
            {
                "start_time": 7.254545454545454,
                "end_time": 7.461363636363636,
                "pitch": 44,
                "velocity": 80,
                "duration": 0.206818181818182,
                "tempo": 120.0
            },
            {
                "start_time": 7.477272727272727,
                "end_time": 7.686363636363636,
                "pitch": 45,
                "velocity": 80,
                "duration": 0.209090909090909,
                "tempo": 120.0
            },
            {
                "start_time": 7.702272727272727,
                "end_time": 7.906818181818181,
                "pitch": 44,
                "velocity": 80,
                "duration": 0.20454545454545414,
                "tempo": 120.0
            },
            {
                "start_time": 7.922727272727272,
                "end_time": 8.145454545454545,
                "pitch": 43,
                "velocity": 80,
                "duration": 0.22272727272727266,
                "tempo": 120.0
            },
            {
                "start_time": 8.163636363636364,
                "end_time": 8.377272727272727,
                "pitch": 45,
                "velocity": 80,
                "duration": 0.21363636363636296,
                "tempo": 120.0
            },
            {
                "start_time": 8.393181818181818,
                "end_time": 8.49090909090909,
                "pitch": 44,
                "velocity": 80,
                "duration": 0.09772727272727266,
                "tempo": 120.0
            },
            {
                "start_time": 8.620454545454544,
                "end_time": 8.704545454545453,
                "pitch": 44,
                "velocity": 80,
                "duration": 0.084090909090909,
                "tempo": 120.0
            },
            {
                "start_time": 8.838636363636363,
                "end_time": 8.938636363636363,
                "pitch": 44,
                "velocity": 80,
                "duration": 0.09999999999999964,
                "tempo": 120.0
            },
            {
                "start_time": 9.072727272727272,
                "end_time": 9.286363636363635,
                "pitch": 44,
                "velocity": 80,
                "duration": 0.21363636363636296,
                "tempo": 120.0
            },
            {
                "start_time": 9.302272727272728,
                "end_time": 9.497727272727273,
                "pitch": 45,
                "velocity": 80,
                "duration": 0.19545454545454533,
                "tempo": 120.0
            },
            {
                "start_time": 9.513636363636364,
                "end_time": 9.727272727272727,
                "pitch": 58,
                "velocity": 80,
                "duration": 0.21363636363636296,
                "tempo": 120.0
            },
            {
                "start_time": 9.743181818181817,
                "end_time": 9.956818181818182,
                "pitch": 57,
                "velocity": 80,
                "duration": 0.21363636363636473,
                "tempo": 120.0
            },
            {
                "start_time": 9.972727272727273,
                "end_time": 10.181818181818182,
                "pitch": 56,
                "velocity": 80,
                "duration": 0.209090909090909,
                "tempo": 120.0
            },
            {
                "start_time": 10.218181818181817,
                "end_time": 10.427272727272726,
                "pitch": 50,
                "velocity": 80,
                "duration": 0.209090909090909,
                "tempo": 120.0
            },
            {
                "start_time": 10.445454545454545,
                "end_time": 10.659090909090908,
                "pitch": 51,
                "velocity": 80,
                "duration": 0.21363636363636296,
                "tempo": 120.0
            },
            {
                "start_time": 10.674999999999999,
                "end_time": 10.886363636363637,
                "pitch": 52,
                "velocity": 80,
                "duration": 0.21136363636363775,
                "tempo": 120.0
            },
            {
                "start_time": 10.904545454545454,
                "end_time": 11.104545454545454,
                "pitch": 44,
                "velocity": 80,
                "duration": 0.1999999999999993,
                "tempo": 120.0
            },
            {
                "start_time": 11.120454545454544,
                "end_time": 11.338636363636363,
                "pitch": 45,
                "velocity": 80,
                "duration": 0.2181818181818187,
                "tempo": 120.0
            },
            {
                "start_time": 11.354545454545454,
                "end_time": 11.568181818181818,
                "pitch": 44,
                "velocity": 80,
                "duration": 0.21363636363636473,
                "tempo": 120.0
            },
            {
                "start_time": 11.584090909090909,
                "end_time": 11.779545454545454,
                "pitch": 43,
                "velocity": 80,
                "duration": 0.19545454545454533,
                "tempo": 120.0
            },
            {
                "start_time": 11.813636363636363,
                "end_time": 12.013636363636364,
                "pitch": 45,
                "velocity": 80,
                "duration": 0.20000000000000107,
                "tempo": 120.0
            },
            {
                "start_time": 12.029545454545454,
                "end_time": 12.131818181818181,
                "pitch": 44,
                "velocity": 80,
                "duration": 0.10227272727272663,
                "tempo": 120.0
            },
            {
                "start_time": 12.263636363636364,
                "end_time": 12.363636363636363,
                "pitch": 44,
                "velocity": 80,
                "duration": 0.09999999999999964,
                "tempo": 120.0
            },
            {
                "start_time": 12.493181818181817,
                "end_time": 12.575,
                "pitch": 44,
                "velocity": 80,
                "duration": 0.08181818181818201,
                "tempo": 120.0
            },
            {
                "start_time": 12.706818181818182,
                "end_time": 12.918181818181818,
                "pitch": 44,
                "velocity": 80,
                "duration": 0.21136363636363598,
                "tempo": 120.0
            },
            {
                "start_time": 12.934090909090909,
                "end_time": 13.147727272727272,
                "pitch": 45,
                "velocity": 80,
                "duration": 0.21363636363636296,
                "tempo": 120.0
            },
            {
                "start_time": 13.163636363636362,
                "end_time": 13.370454545454544,
                "pitch": 58,
                "velocity": 80,
                "duration": 0.206818181818182,
                "tempo": 120.0
            },
            {
                "start_time": 13.404545454545454,
                "end_time": 13.609090909090908,
                "pitch": 57,
                "velocity": 80,
                "duration": 0.20454545454545325,
                "tempo": 120.0
            },
            {
                "start_time": 13.627272727272727,
                "end_time": 13.843181818181817,
                "pitch": 56,
                "velocity": 80,
                "duration": 0.21590909090908994,
                "tempo": 120.0
            },
            {
                "start_time": 13.861363636363636,
                "end_time": 14.077272727272726,
                "pitch": 50,
                "velocity": 80,
                "duration": 0.21590909090908994,
                "tempo": 120.0
            },
            {
                "start_time": 14.095454545454544,
                "end_time": 14.295454545454545,
                "pitch": 51,
                "velocity": 80,
                "duration": 0.20000000000000107,
                "tempo": 120.0
            },
            {
                "start_time": 14.311363636363636,
                "end_time": 14.529545454545454,
                "pitch": 52,
                "velocity": 80,
                "duration": 0.2181818181818187,
                "tempo": 120.0
            },
            {
                "start_time": 14.545454545454545,
                "end_time": 14.645454545454545,
                "pitch": 69,
                "velocity": 80,
                "duration": 0.09999999999999964,
                "tempo": 120.0
            },
            {
                "start_time": 15.004545454545454,
                "end_time": 15.088636363636363,
                "pitch": 64,
                "velocity": 80,
                "duration": 0.084090909090909,
                "tempo": 120.0
            },
            {
                "start_time": 15.45681818181818,
                "end_time": 15.556818181818182,
                "pitch": 69,
                "velocity": 80,
                "duration": 0.10000000000000142,
                "tempo": 120.0
            },
            {
                "start_time": 15.906818181818181,
                "end_time": 16.006818181818183,
                "pitch": 64,
                "velocity": 80,
                "duration": 0.10000000000000142,
                "tempo": 120.0
            },
            {
                "start_time": 16.36590909090909,
                "end_time": 16.46818181818182,
                "pitch": 71,
                "velocity": 80,
                "duration": 0.10227272727273018,
                "tempo": 120.0
            },
            {
                "start_time": 16.827272727272728,
                "end_time": 16.922727272727272,
                "pitch": 64,
                "velocity": 80,
                "duration": 0.0954545454545439,
                "tempo": 120.0
            },
            {
                "start_time": 17.275,
                "end_time": 17.361363636363635,
                "pitch": 71,
                "velocity": 80,
                "duration": 0.08636363636363598,
                "tempo": 120.0
            },
            {
                "start_time": 17.74772727272727,
                "end_time": 17.84318181818182,
                "pitch": 64,
                "velocity": 80,
                "duration": 0.09545454545454746,
                "tempo": 120.0
            },
            {
                "start_time": 18.195454545454545,
                "end_time": 18.279545454545453,
                "pitch": 69,
                "velocity": 80,
                "duration": 0.08409090909090722,
                "tempo": 120.0
            },
            {
                "start_time": 18.647727272727273,
                "end_time": 18.745454545454546,
                "pitch": 64,
                "velocity": 80,
                "duration": 0.09772727272727266,
                "tempo": 120.0
            },
            {
                "start_time": 19.08863636363636,
                "end_time": 19.188636363636363,
                "pitch": 69,
                "velocity": 80,
                "duration": 0.10000000000000142,
                "tempo": 120.0
            },
            {
                "start_time": 19.55681818181818,
                "end_time": 19.65681818181818,
                "pitch": 64,
                "velocity": 80,
                "duration": 0.10000000000000142,
                "tempo": 120.0
            },
            {
                "start_time": 20.009090909090908,
                "end_time": 20.10909090909091,
                "pitch": 71,
                "velocity": 80,
                "duration": 0.10000000000000142,
                "tempo": 120.0
            },
            {
                "start_time": 20.477272727272727,
                "end_time": 20.561363636363634,
                "pitch": 64,
                "velocity": 80,
                "duration": 0.08409090909090722,
                "tempo": 120.0
            },
            {
                "start_time": 20.929545454545455,
                "end_time": 21.029545454545453,
                "pitch": 71,
                "velocity": 80,
                "duration": 0.09999999999999787,
                "tempo": 120.0
            },
            {
                "start_time": 21.397727272727273,
                "end_time": 21.479545454545452,
                "pitch": 64,
                "velocity": 80,
                "duration": 0.08181818181817846,
                "tempo": 120.0
            },
            {
                "start_time": 21.847727272727273,
                "end_time": 21.945454545454545,
                "pitch": 69,
                "velocity": 80,
                "duration": 0.09772727272727266,
                "tempo": 120.0
            },
            {
                "start_time": 22.279545454545453,
                "end_time": 22.377272727272725,
                "pitch": 64,
                "velocity": 80,
                "duration": 0.09772727272727266,
                "tempo": 120.0
            },
            {
                "start_time": 22.738636363636363,
                "end_time": 22.84318181818182,
                "pitch": 69,
                "velocity": 80,
                "duration": 0.10454545454545539,
                "tempo": 120.0
            },
            {
                "start_time": 23.211363636363636,
                "end_time": 23.30909090909091,
                "pitch": 64,
                "velocity": 80,
                "duration": 0.09772727272727266,
                "tempo": 120.0
            },
            {
                "start_time": 23.668181818181818,
                "end_time": 23.752272727272725,
                "pitch": 71,
                "velocity": 80,
                "duration": 0.08409090909090722,
                "tempo": 120.0
            },
            {
                "start_time": 24.120454545454546,
                "end_time": 24.21818181818182,
                "pitch": 64,
                "velocity": 80,
                "duration": 0.09772727272727266,
                "tempo": 120.0
            },
            {
                "start_time": 24.579545454545453,
                "end_time": 24.663636363636364,
                "pitch": 71,
                "velocity": 80,
                "duration": 0.08409090909091077,
                "tempo": 120.0
            },
            {
                "start_time": 25.04090909090909,
                "end_time": 25.138636363636362,
                "pitch": 64,
                "velocity": 80,
                "duration": 0.09772727272727266,
                "tempo": 120.0
            },
            {
                "start_time": 25.48181818181818,
                "end_time": 25.577272727272724,
                "pitch": 69,
                "velocity": 80,
                "duration": 0.0954545454545439,
                "tempo": 120.0
            },
            {
                "start_time": 25.929545454545455,
                "end_time": 26.03181818181818,
                "pitch": 64,
                "velocity": 80,
                "duration": 0.10227272727272663,
                "tempo": 120.0
            },
            {
                "start_time": 26.393181818181816,
                "end_time": 26.493181818181817,
                "pitch": 69,
                "velocity": 80,
                "duration": 0.10000000000000142,
                "tempo": 120.0
            },
            {
                "start_time": 26.861363636363635,
                "end_time": 26.945454545454545,
                "pitch": 64,
                "velocity": 80,
                "duration": 0.08409090909091077,
                "tempo": 120.0
            },
            {
                "start_time": 27.313636363636363,
                "end_time": 27.411363636363635,
                "pitch": 71,
                "velocity": 80,
                "duration": 0.09772727272727266,
                "tempo": 120.0
            },
            {
                "start_time": 27.770454545454545,
                "end_time": 27.85681818181818,
                "pitch": 64,
                "velocity": 80,
                "duration": 0.08636363636363598,
                "tempo": 120.0
            },
            {
                "start_time": 28.23181818181818,
                "end_time": 28.331818181818182,
                "pitch": 71,
                "velocity": 80,
                "duration": 0.10000000000000142,
                "tempo": 120.0
            },
            {
                "start_time": 28.674999999999997,
                "end_time": 28.77272727272727,
                "pitch": 64,
                "velocity": 80,
                "duration": 0.09772727272727266,
                "tempo": 120.0
            },
            {
                "start_time": 29.13181818181818,
                "end_time": 29.16590909090909,
                "pitch": 44,
                "velocity": 80,
                "duration": 0.03409090909091006,
                "tempo": 120.0
            }
        ],
        "Acoustic Bass": [
            {
                "start_time": 0.013636363636363636,
                "end_time": 0.42272727272727273,
                "pitch": 37,
                "velocity": 64,
                "duration": 0.4090909090909091,
                "tempo": 120.0
            },
            {
                "start_time": 0.4386363636363636,
                "end_time": 0.8454545454545455,
                "pitch": 43,
                "velocity": 64,
                "duration": 0.40681818181818186,
                "tempo": 120.0
            },
            {
                "start_time": 0.8613636363636363,
                "end_time": 1.3022727272727272,
                "pitch": 42,
                "velocity": 64,
                "duration": 0.4409090909090909,
                "tempo": 120.0
            },
            {
                "start_time": 1.3204545454545453,
                "end_time": 1.7545454545454544,
                "pitch": 37,
                "velocity": 64,
                "duration": 0.4340909090909091,
                "tempo": 120.0
            },
            {
                "start_time": 1.7704545454545453,
                "end_time": 2.2068181818181816,
                "pitch": 38,
                "velocity": 64,
                "duration": 0.4363636363636363,
                "tempo": 120.0
            },
            {
                "start_time": 2.2386363636363633,
                "end_time": 2.675,
                "pitch": 39,
                "velocity": 64,
                "duration": 0.4363636363636365,
                "tempo": 120.0
            },
            {
                "start_time": 2.690909090909091,
                "end_time": 3.125,
                "pitch": 40,
                "velocity": 64,
                "duration": 0.4340909090909091,
                "tempo": 120.0
            },
            {
                "start_time": 3.143181818181818,
                "end_time": 3.584090909090909,
                "pitch": 41,
                "velocity": 64,
                "duration": 0.4409090909090909,
                "tempo": 120.0
            },
            {
                "start_time": 3.5999999999999996,
                "end_time": 4.036363636363636,
                "pitch": 37,
                "velocity": 64,
                "duration": 0.4363636363636365,
                "tempo": 120.0
            },
            {
                "start_time": 4.052272727272727,
                "end_time": 4.493181818181818,
                "pitch": 43,
                "velocity": 64,
                "duration": 0.44090909090909136,
                "tempo": 120.0
            },
            {
                "start_time": 4.511363636363636,
                "end_time": 4.954545454545454,
                "pitch": 42,
                "velocity": 64,
                "duration": 0.44318181818181834,
                "tempo": 120.0
            },
            {
                "start_time": 4.972727272727273,
                "end_time": 5.388636363636364,
                "pitch": 37,
                "velocity": 64,
                "duration": 0.415909090909091,
                "tempo": 120.0
            },
            {
                "start_time": 5.420454545454545,
                "end_time": 5.86590909090909,
                "pitch": 38,
                "velocity": 64,
                "duration": 0.4454545454545453,
                "tempo": 120.0
            },
            {
                "start_time": 5.881818181818182,
                "end_time": 6.306818181818182,
                "pitch": 39,
                "velocity": 64,
                "duration": 0.4249999999999998,
                "tempo": 120.0
            },
            {
                "start_time": 6.322727272727272,
                "end_time": 6.7749999999999995,
                "pitch": 40,
                "velocity": 64,
                "duration": 0.45227272727272716,
                "tempo": 120.0
            },
            {
                "start_time": 6.790909090909091,
                "end_time": 7.236363636363636,
                "pitch": 41,
                "velocity": 64,
                "duration": 0.4454545454545453,
                "tempo": 120.0
            },
            {
                "start_time": 7.254545454545454,
                "end_time": 7.686363636363636,
                "pitch": 37,
                "velocity": 64,
                "duration": 0.43181818181818166,
                "tempo": 120.0
            },
            {
                "start_time": 7.702272727272727,
                "end_time": 8.145454545454545,
                "pitch": 43,
                "velocity": 64,
                "duration": 0.44318181818181746,
                "tempo": 120.0
            },
            {
                "start_time": 8.163636363636364,
                "end_time": 8.588636363636363,
                "pitch": 42,
                "velocity": 64,
                "duration": 0.42499999999999893,
                "tempo": 120.0
            },
            {
                "start_time": 8.620454545454544,
                "end_time": 9.056818181818182,
                "pitch": 37,
                "velocity": 64,
                "duration": 0.4363636363636374,
                "tempo": 120.0
            },
            {
                "start_time": 9.072727272727272,
                "end_time": 9.497727272727273,
                "pitch": 38,
                "velocity": 64,
                "duration": 0.4250000000000007,
                "tempo": 120.0
            },
            {
                "start_time": 9.513636363636364,
                "end_time": 9.956818181818182,
                "pitch": 39,
                "velocity": 64,
                "duration": 0.44318181818181834,
                "tempo": 120.0
            },
            {
                "start_time": 9.972727272727273,
                "end_time": 10.427272727272726,
                "pitch": 40,
                "velocity": 64,
                "duration": 0.45454545454545325,
                "tempo": 120.0
            },
            {
                "start_time": 10.445454545454545,
                "end_time": 10.886363636363637,
                "pitch": 41,
                "velocity": 64,
                "duration": 0.44090909090909136,
                "tempo": 120.0
            },
            {
                "start_time": 10.904545454545454,
                "end_time": 11.338636363636363,
                "pitch": 37,
                "velocity": 64,
                "duration": 0.43409090909090864,
                "tempo": 120.0
            },
            {
                "start_time": 11.354545454545454,
                "end_time": 11.779545454545454,
                "pitch": 43,
                "velocity": 64,
                "duration": 0.4250000000000007,
                "tempo": 120.0
            },
            {
                "start_time": 11.813636363636363,
                "end_time": 12.247727272727273,
                "pitch": 42,
                "velocity": 64,
                "duration": 0.4340909090909104,
                "tempo": 120.0
            },
            {
                "start_time": 12.263636363636364,
                "end_time": 12.69090909090909,
                "pitch": 37,
                "velocity": 64,
                "duration": 0.4272727272727259,
                "tempo": 120.0
            },
            {
                "start_time": 12.706818181818182,
                "end_time": 13.147727272727272,
                "pitch": 38,
                "velocity": 64,
                "duration": 0.4409090909090896,
                "tempo": 120.0
            },
            {
                "start_time": 13.163636363636362,
                "end_time": 13.609090909090908,
                "pitch": 39,
                "velocity": 64,
                "duration": 0.4454545454545453,
                "tempo": 120.0
            },
            {
                "start_time": 13.627272727272727,
                "end_time": 14.077272727272726,
                "pitch": 40,
                "velocity": 64,
                "duration": 0.4499999999999993,
                "tempo": 120.0
            },
            {
                "start_time": 14.095454545454544,
                "end_time": 14.529545454545454,
                "pitch": 41,
                "velocity": 64,
                "duration": 0.4340909090909104,
                "tempo": 120.0
            },
            {
                "start_time": 14.545454545454545,
                "end_time": 14.972727272727273,
                "pitch": 42,
                "velocity": 64,
                "duration": 0.4272727272727277,
                "tempo": 120.0
            },
            {
                "start_time": 15.004545454545454,
                "end_time": 15.438636363636363,
                "pitch": 43,
                "velocity": 64,
                "duration": 0.43409090909090864,
                "tempo": 120.0
            },
            {
                "start_time": 15.45681818181818,
                "end_time": 15.89090909090909,
                "pitch": 46,
                "velocity": 64,
                "duration": 0.4340909090909104,
                "tempo": 120.0
            },
            {
                "start_time": 15.906818181818181,
                "end_time": 16.349999999999998,
                "pitch": 45,
                "velocity": 64,
                "duration": 0.44318181818181657,
                "tempo": 120.0
            },
            {
                "start_time": 16.36590909090909,
                "end_time": 16.811363636363634,
                "pitch": 44,
                "velocity": 64,
                "duration": 0.4454545454545453,
                "tempo": 120.0
            },
            {
                "start_time": 16.827272727272728,
                "end_time": 17.259090909090908,
                "pitch": 43,
                "velocity": 64,
                "duration": 0.4318181818181799,
                "tempo": 120.0
            },
            {
                "start_time": 17.275,
                "end_time": 17.729545454545455,
                "pitch": 42,
                "velocity": 64,
                "duration": 0.4545454545454568,
                "tempo": 120.0
            },
            {
                "start_time": 17.74772727272727,
                "end_time": 18.163636363636364,
                "pitch": 41,
                "velocity": 64,
                "duration": 0.4159090909090928,
                "tempo": 120.0
            },
            {
                "start_time": 18.195454545454545,
                "end_time": 18.629545454545454,
                "pitch": 42,
                "velocity": 64,
                "duration": 0.43409090909090864,
                "tempo": 120.0
            },
            {
                "start_time": 18.647727272727273,
                "end_time": 19.07272727272727,
                "pitch": 43,
                "velocity": 64,
                "duration": 0.42499999999999716,
                "tempo": 120.0
            },
            {
                "start_time": 19.08863636363636,
                "end_time": 19.54090909090909,
                "pitch": 46,
                "velocity": 64,
                "duration": 0.45227272727272805,
                "tempo": 120.0
            },
            {
                "start_time": 19.55681818181818,
                "end_time": 19.99090909090909,
                "pitch": 45,
                "velocity": 64,
                "duration": 0.43409090909090864,
                "tempo": 120.0
            },
            {
                "start_time": 20.009090909090908,
                "end_time": 20.459090909090907,
                "pitch": 44,
                "velocity": 64,
                "duration": 0.4499999999999993,
                "tempo": 120.0
            },
            {
                "start_time": 20.477272727272727,
                "end_time": 20.911363636363635,
                "pitch": 43,
                "velocity": 64,
                "duration": 0.43409090909090864,
                "tempo": 120.0
            },
            {
                "start_time": 20.929545454545455,
                "end_time": 21.363636363636363,
                "pitch": 42,
                "velocity": 64,
                "duration": 0.43409090909090864,
                "tempo": 120.0
            },
            {
                "start_time": 21.397727272727273,
                "end_time": 21.831818181818182,
                "pitch": 41,
                "velocity": 64,
                "duration": 0.43409090909090864,
                "tempo": 120.0
            },
            {
                "start_time": 21.847727272727273,
                "end_time": 22.263636363636362,
                "pitch": 42,
                "velocity": 64,
                "duration": 0.41590909090908923,
                "tempo": 120.0
            },
            {
                "start_time": 22.279545454545453,
                "end_time": 22.722727272727273,
                "pitch": 43,
                "velocity": 64,
                "duration": 0.4431818181818201,
                "tempo": 120.0
            },
            {
                "start_time": 22.738636363636363,
                "end_time": 23.193181818181817,
                "pitch": 46,
                "velocity": 64,
                "duration": 0.45454545454545325,
                "tempo": 120.0
            },
            {
                "start_time": 23.211363636363636,
                "end_time": 23.652272727272727,
                "pitch": 45,
                "velocity": 64,
                "duration": 0.44090909090909136,
                "tempo": 120.0
            },
            {
                "start_time": 23.668181818181818,
                "end_time": 24.104545454545452,
                "pitch": 44,
                "velocity": 64,
                "duration": 0.43636363636363384,
                "tempo": 120.0
            },
            {
                "start_time": 24.120454545454546,
                "end_time": 24.545454545454543,
                "pitch": 43,
                "velocity": 64,
                "duration": 0.42499999999999716,
                "tempo": 120.0
            },
            {
                "start_time": 24.579545454545453,
                "end_time": 25.02272727272727,
                "pitch": 42,
                "velocity": 64,
                "duration": 0.44318181818181657,
                "tempo": 120.0
            },
            {
                "start_time": 25.04090909090909,
                "end_time": 25.46590909090909,
                "pitch": 41,
                "velocity": 64,
                "duration": 0.4250000000000007,
                "tempo": 120.0
            },
            {
                "start_time": 25.48181818181818,
                "end_time": 25.913636363636364,
                "pitch": 42,
                "velocity": 64,
                "duration": 0.43181818181818343,
                "tempo": 120.0
            },
            {
                "start_time": 25.929545454545455,
                "end_time": 26.375,
                "pitch": 43,
                "velocity": 64,
                "duration": 0.4454545454545453,
                "tempo": 120.0
            },
            {
                "start_time": 26.393181818181816,
                "end_time": 26.845454545454544,
                "pitch": 46,
                "velocity": 64,
                "duration": 0.45227272727272805,
                "tempo": 120.0
            },
            {
                "start_time": 26.861363636363635,
                "end_time": 27.295454545454543,
                "pitch": 45,
                "velocity": 64,
                "duration": 0.43409090909090864,
                "tempo": 120.0
            },
            {
                "start_time": 27.313636363636363,
                "end_time": 27.738636363636363,
                "pitch": 44,
                "velocity": 64,
                "duration": 0.4250000000000007,
                "tempo": 120.0
            },
            {
                "start_time": 27.770454545454545,
                "end_time": 28.21590909090909,
                "pitch": 43,
                "velocity": 64,
                "duration": 0.4454545454545453,
                "tempo": 120.0
            },
            {
                "start_time": 28.23181818181818,
                "end_time": 28.659090909090907,
                "pitch": 42,
                "velocity": 64,
                "duration": 0.4272727272727259,
                "tempo": 120.0
            },
            {
                "start_time": 28.674999999999997,
                "end_time": 29.11590909090909,
                "pitch": 41,
                "velocity": 64,
                "duration": 0.44090909090909136,
                "tempo": 120.0
            },
            {
                "start_time": 29.13181818181818,
                "end_time": 29.16590909090909,
                "pitch": 37,
                "velocity": 64,
                "duration": 0.03409090909091006,
                "tempo": 120.0
            }
        ]
    }
}