{
    "track_id": "Double Dragon (FM) - 02 - Mission 1",
    "mood": "angry",
    "instruments": {
        "Trumpet": [
            {
                "start_time": 0.9886363636363635,
                "end_time": 1.1772727272727272,
                "pitch": 60,
                "velocity": 51,
                "duration": 0.1886363636363637,
                "tempo": 120.0
            },
            {
                "start_time": 1.1954545454545453,
                "end_time": 1.375,
                "pitch": 59,
                "velocity": 51,
                "duration": 0.17954545454545467,
                "tempo": 120.0
            },
            {
                "start_time": 1.5863636363636362,
                "end_time": 1.775,
                "pitch": 60,
                "velocity": 51,
                "duration": 0.1886363636363637,
                "tempo": 120.0
            },
            {
                "start_time": 1.793181818181818,
                "end_time": 1.9795454545454545,
                "pitch": 59,
                "velocity": 51,
                "duration": 0.1863636363636365,
                "tempo": 120.0
            },
            {
                "start_time": 2.193181818181818,
                "end_time": 2.3727272727272726,
                "pitch": 60,
                "velocity": 51,
                "duration": 0.17954545454545467,
                "tempo": 120.0
            },
            {
                "start_time": 2.5954545454545452,
                "end_time": 2.784090909090909,
                "pitch": 60,
                "velocity": 51,
                "duration": 0.18863636363636394,
                "tempo": 120.0
            },
            {
                "start_time": 2.8,
                "end_time": 2.9795454545454545,
                "pitch": 59,
                "velocity": 51,
                "duration": 0.17954545454545467,
                "tempo": 120.0
            },
            {
                "start_time": 2.995454545454545,
                "end_time": 3.577272727272727,
                "pitch": 62,
                "velocity": 51,
                "duration": 0.581818181818182,
                "tempo": 120.0
            },
            {
                "start_time": 3.5954545454545452,
                "end_time": 3.9795454545454545,
                "pitch": 62,
                "velocity": 51,
                "duration": 0.38409090909090926,
                "tempo": 120.0
            },
            {
                "start_time": 4.2,
                "end_time": 4.388636363636364,
                "pitch": 60,
                "velocity": 51,
                "duration": 0.1886363636363635,
                "tempo": 120.0
            },
            {
                "start_time": 4.406818181818181,
                "end_time": 4.586363636363636,
                "pitch": 59,
                "velocity": 51,
                "duration": 0.17954545454545467,
                "tempo": 120.0
            },
            {
                "start_time": 4.797727272727273,
                "end_time": 4.986363636363636,
                "pitch": 60,
                "velocity": 51,
                "duration": 0.1886363636363635,
                "tempo": 120.0
            },
            {
                "start_time": 5.002272727272727,
                "end_time": 5.1909090909090905,
                "pitch": 59,
                "velocity": 51,
                "duration": 0.1886363636363635,
                "tempo": 120.0
            },
            {
                "start_time": 5.404545454545454,
                "end_time": 5.584090909090909,
                "pitch": 60,
                "velocity": 51,
                "duration": 0.17954545454545467,
                "tempo": 120.0
            },
            {
                "start_time": 5.804545454545455,
                "end_time": 5.993181818181818,
                "pitch": 60,
                "velocity": 51,
                "duration": 0.1886363636363635,
                "tempo": 120.0
            },
            {
                "start_time": 6.011363636363636,
                "end_time": 6.1909090909090905,
                "pitch": 59,
                "velocity": 51,
                "duration": 0.17954545454545467,
                "tempo": 120.0
            },
            {
                "start_time": 6.206818181818181,
                "end_time": 6.788636363636363,
                "pitch": 62,
                "velocity": 51,
                "duration": 0.581818181818182,
                "tempo": 120.0
            },
            {
                "start_time": 6.806818181818182,
                "end_time": 7.1886363636363635,
                "pitch": 64,
                "velocity": 51,
                "duration": 0.38181818181818183,
                "tempo": 120.0
            },
            {
                "start_time": 7.411363636363636,
                "end_time": 7.6,
                "pitch": 60,
                "velocity": 51,
                "duration": 0.1886363636363635,
                "tempo": 120.0
            },
            {
                "start_time": 7.61590909090909,
                "end_time": 7.795454545454545,
                "pitch": 59,
                "velocity": 51,
                "duration": 0.17954545454545467,
                "tempo": 120.0
            },
            {
                "start_time": 8.009090909090908,
                "end_time": 8.197727272727272,
                "pitch": 60,
                "velocity": 51,
                "duration": 0.18863636363636438,
                "tempo": 120.0
            },
            {
                "start_time": 8.213636363636363,
                "end_time": 8.402272727272727,
                "pitch": 59,
                "velocity": 51,
                "duration": 0.18863636363636438,
                "tempo": 120.0
            },
            {
                "start_time": 8.61590909090909,
                "end_time": 8.795454545454545,
                "pitch": 60,
                "velocity": 51,
                "duration": 0.17954545454545467,
                "tempo": 120.0
            },
            {
                "start_time": 9.01590909090909,
                "end_time": 9.204545454545453,
                "pitch": 60,
                "velocity": 51,
                "duration": 0.1886363636363626,
                "tempo": 120.0
            },
            {
                "start_time": 9.222727272727273,
                "end_time": 9.402272727272727,
                "pitch": 59,
                "velocity": 51,
                "duration": 0.17954545454545467,
                "tempo": 120.0
            },
            {
                "start_time": 9.418181818181818,
                "end_time": 10.0,
                "pitch": 62,
                "velocity": 51,
                "duration": 0.581818181818182,
                "tempo": 120.0
            },
            {
                "start_time": 10.01590909090909,
                "end_time": 10.402272727272727,
                "pitch": 62,
                "velocity": 51,
                "duration": 0.3863636363636367,
                "tempo": 120.0
            },
            {
                "start_time": 10.625,
                "end_time": 10.813636363636363,
                "pitch": 60,
                "velocity": 51,
                "duration": 0.1886363636363626,
                "tempo": 120.0
            },
            {
                "start_time": 10.829545454545453,
                "end_time": 11.009090909090908,
                "pitch": 59,
                "velocity": 51,
                "duration": 0.17954545454545467,
                "tempo": 120.0
            },
            {
                "start_time": 11.222727272727273,
                "end_time": 11.411363636363635,
                "pitch": 60,
                "velocity": 51,
                "duration": 0.1886363636363626,
                "tempo": 120.0
            },
            {
                "start_time": 11.427272727272726,
                "end_time": 11.61590909090909,
                "pitch": 59,
                "velocity": 51,
                "duration": 0.18863636363636438,
                "tempo": 120.0
            },
            {
                "start_time": 11.829545454545453,
                "end_time": 12.009090909090908,
                "pitch": 64,
                "velocity": 51,
                "duration": 0.17954545454545467,
                "tempo": 120.0
            },
            {
                "start_time": 12.229545454545454,
                "end_time": 12.418181818181818,
                "pitch": 65,
                "velocity": 51,
                "duration": 0.18863636363636438,
                "tempo": 120.0
            },
            {
                "start_time": 12.636363636363635,
                "end_time": 12.822727272727272,
                "pitch": 48,
                "velocity": 51,
                "duration": 0.1863636363636374,
                "tempo": 120.0
            },
            {
                "start_time": 12.838636363636363,
                "end_time": 13.018181818181818,
                "pitch": 50,
                "velocity": 51,
                "duration": 0.17954545454545467,
                "tempo": 120.0
            },
            {
                "start_time": 13.034090909090908,
                "end_time": 13.213636363636363,
                "pitch": 52,
                "velocity": 51,
                "duration": 0.17954545454545467,
                "tempo": 120.0
            },
            {
                "start_time": 13.229545454545454,
                "end_time": 13.413636363636362,
                "pitch": 55,
                "velocity": 51,
                "duration": 0.18409090909090864,
                "tempo": 120.0
            },
            {
                "start_time": 13.429545454545455,
                "end_time": 13.613636363636363,
                "pitch": 57,
                "velocity": 51,
                "duration": 0.18409090909090864,
                "tempo": 120.0
            },
            {
                "start_time": 13.836363636363636,
                "end_time": 14.024999999999999,
                "pitch": 60,
                "velocity": 51,
                "duration": 0.1886363636363626,
                "tempo": 120.0
            },
            {
                "start_time": 14.040909090909091,
                "end_time": 14.220454545454544,
                "pitch": 59,
                "velocity": 51,
                "duration": 0.1795454545454529,
                "tempo": 120.0
            },
            {
                "start_time": 14.434090909090909,
                "end_time": 14.620454545454544,
                "pitch": 60,
                "velocity": 51,
                "duration": 0.18636363636363562,
                "tempo": 120.0
            },
            {
                "start_time": 14.638636363636364,
                "end_time": 14.827272727272726,
                "pitch": 59,
                "velocity": 51,
                "duration": 0.1886363636363626,
                "tempo": 120.0
            },
            {
                "start_time": 15.040909090909091,
                "end_time": 15.220454545454544,
                "pitch": 60,
                "velocity": 51,
                "duration": 0.1795454545454529,
                "tempo": 120.0
            },
            {
                "start_time": 15.44090909090909,
                "end_time": 15.629545454545454,
                "pitch": 60,
                "velocity": 51,
                "duration": 0.18863636363636438,
                "tempo": 120.0
            },
            {
                "start_time": 15.645454545454545,
                "end_time": 15.827272727272726,
                "pitch": 59,
                "velocity": 51,
                "duration": 0.18181818181818166,
                "tempo": 120.0
            },
            {
                "start_time": 15.843181818181817,
                "end_time": 16.425,
                "pitch": 62,
                "velocity": 51,
                "duration": 0.5818181818181838,
                "tempo": 120.0
            },
            {
                "start_time": 16.44090909090909,
                "end_time": 16.825,
                "pitch": 62,
                "velocity": 51,
                "duration": 0.38409090909090793,
                "tempo": 120.0
            },
            {
                "start_time": 17.045454545454543,
                "end_time": 17.23409090909091,
                "pitch": 60,
                "velocity": 51,
                "duration": 0.18863636363636616,
                "tempo": 120.0
            },
            {
                "start_time": 17.252272727272725,
                "end_time": 17.43181818181818,
                "pitch": 59,
                "velocity": 51,
                "duration": 0.17954545454545467,
                "tempo": 120.0
            },
            {
                "start_time": 17.643181818181816,
                "end_time": 17.831818181818182,
                "pitch": 60,
                "velocity": 51,
                "duration": 0.18863636363636616,
                "tempo": 120.0
            },
            {
                "start_time": 17.849999999999998,
                "end_time": 18.038636363636364,
                "pitch": 59,
                "velocity": 51,
                "duration": 0.18863636363636616,
                "tempo": 120.0
            },
            {
                "start_time": 18.25,
                "end_time": 18.429545454545455,
                "pitch": 60,
                "velocity": 51,
                "duration": 0.17954545454545467,
                "tempo": 120.0
            },
            {
                "start_time": 18.652272727272727,
                "end_time": 18.84090909090909,
                "pitch": 60,
                "velocity": 51,
                "duration": 0.1886363636363626,
                "tempo": 120.0
            },
            {
                "start_time": 18.85681818181818,
                "end_time": 19.036363636363635,
                "pitch": 59,
                "velocity": 51,
                "duration": 0.17954545454545467,
                "tempo": 120.0
            },
            {
                "start_time": 19.054545454545455,
                "end_time": 19.63181818181818,
                "pitch": 62,
                "velocity": 51,
                "duration": 0.5772727272727245,
                "tempo": 120.0
            },
            {
                "start_time": 19.65,
                "end_time": 20.036363636363635,
                "pitch": 64,
                "velocity": 51,
                "duration": 0.3863636363636367,
                "tempo": 120.0
            },
            {
                "start_time": 20.25681818181818,
                "end_time": 20.445454545454545,
                "pitch": 60,
                "velocity": 51,
                "duration": 0.18863636363636616,
                "tempo": 120.0
            },
            {
                "start_time": 20.46363636363636,
                "end_time": 20.643181818181816,
                "pitch": 59,
                "velocity": 51,
                "duration": 0.17954545454545467,
                "tempo": 120.0
            },
            {
                "start_time": 20.854545454545452,
                "end_time": 21.043181818181818,
                "pitch": 60,
                "velocity": 51,
                "duration": 0.18863636363636616,
                "tempo": 120.0
            },
            {
                "start_time": 21.05909090909091,
                "end_time": 21.24772727272727,
                "pitch": 59,
                "velocity": 51,
                "duration": 0.1886363636363626,
                "tempo": 120.0
            },
            {
                "start_time": 21.461363636363636,
                "end_time": 21.64090909090909,
                "pitch": 60,
                "velocity": 51,
                "duration": 0.17954545454545467,
                "tempo": 120.0
            },
            {
                "start_time": 21.863636363636363,
                "end_time": 22.049999999999997,
                "pitch": 60,
                "velocity": 51,
                "duration": 0.18636363636363384,
                "tempo": 120.0
            },
            {
                "start_time": 22.068181818181817,
                "end_time": 22.24772727272727,
                "pitch": 59,
                "velocity": 51,
                "duration": 0.17954545454545467,
                "tempo": 120.0
            },
            {
                "start_time": 22.263636363636362,
                "end_time": 22.84318181818182,
                "pitch": 62,
                "velocity": 51,
                "duration": 0.5795454545454568,
                "tempo": 120.0
            },
            {
                "start_time": 22.861363636363635,
                "end_time": 23.245454545454546,
                "pitch": 62,
                "velocity": 51,
                "duration": 0.3840909090909115,
                "tempo": 120.0
            },
            {
                "start_time": 23.46818181818182,
                "end_time": 23.65681818181818,
                "pitch": 60,
                "velocity": 51,
                "duration": 0.1886363636363626,
                "tempo": 120.0
            },
            {
                "start_time": 23.672727272727272,
                "end_time": 23.854545454545452,
                "pitch": 59,
                "velocity": 51,
                "duration": 0.18181818181817988,
                "tempo": 120.0
            },
            {
                "start_time": 24.06590909090909,
                "end_time": 24.254545454545454,
                "pitch": 60,
                "velocity": 51,
                "duration": 0.1886363636363626,
                "tempo": 120.0
            },
            {
                "start_time": 24.270454545454545,
                "end_time": 24.459090909090907,
                "pitch": 59,
                "velocity": 51,
                "duration": 0.1886363636363626,
                "tempo": 120.0
            },
            {
                "start_time": 24.672727272727272,
                "end_time": 24.852272727272727,
                "pitch": 64,
                "velocity": 51,
                "duration": 0.17954545454545467,
                "tempo": 120.0
            },
            {
                "start_time": 25.07272727272727,
                "end_time": 25.261363636363637,
                "pitch": 65,
                "velocity": 51,
                "duration": 0.18863636363636616,
                "tempo": 120.0
            },
            {
                "start_time": 25.479545454545452,
                "end_time": 25.66590909090909,
                "pitch": 48,
                "velocity": 51,
                "duration": 0.1863636363636374,
                "tempo": 120.0
            },
            {
                "start_time": 25.68181818181818,
                "end_time": 25.86590909090909,
                "pitch": 50,
                "velocity": 51,
                "duration": 0.18409090909090864,
                "tempo": 120.0
            },
            {
                "start_time": 25.88181818181818,
                "end_time": 26.06590909090909,
                "pitch": 52,
                "velocity": 51,
                "duration": 0.1840909090909122,
                "tempo": 120.0
            },
            {
                "start_time": 26.081818181818182,
                "end_time": 26.261363636363637,
                "pitch": 55,
                "velocity": 51,
                "duration": 0.17954545454545467,
                "tempo": 120.0
            },
            {
                "start_time": 26.277272727272727,
                "end_time": 26.456818181818182,
                "pitch": 57,
                "velocity": 51,
                "duration": 0.17954545454545467,
                "tempo": 120.0
            },
            {
                "start_time": 26.49090909090909,
                "end_time": 28.063636363636363,
                "pitch": 57,
                "velocity": 51,
                "duration": 1.572727272727274,
                "tempo": 120.0
            },
            {
                "start_time": 28.079545454545453,
                "end_time": 29.668181818181818,
                "pitch": 59,
                "velocity": 51,
                "duration": 1.5886363636363647,
                "tempo": 120.0
            },
            {
                "start_time": 29.68409090909091,
                "end_time": 31.27272727272727,
                "pitch": 60,
                "velocity": 51,
                "duration": 1.5886363636363612,
                "tempo": 120.0
            },
            {
                "start_time": 31.29090909090909,
                "end_time": 32.87954545454545,
                "pitch": 62,
                "velocity": 51,
                "duration": 1.5886363636363612,
                "tempo": 120.0
            },
            {
                "start_time": 32.89545454545454,
                "end_time": 34.48409090909091,
                "pitch": 64,
                "velocity": 51,
                "duration": 1.5886363636363683,
                "tempo": 120.0
            },
            {
                "start_time": 34.5,
                "end_time": 36.08863636363636,
                "pitch": 65,
                "velocity": 51,
                "duration": 1.5886363636363612,
                "tempo": 120.0
            },
            {
                "start_time": 36.10681818181818,
                "end_time": 37.695454545454545,
                "pitch": 67,
                "velocity": 51,
                "duration": 1.5886363636363683,
                "tempo": 120.0
            },
            {
                "start_time": 37.91590909090909,
                "end_time": 38.10454545454545,
                "pitch": 60,
                "velocity": 51,
                "duration": 0.1886363636363626,
                "tempo": 120.0
            },
            {
                "start_time": 38.12272727272727,
                "end_time": 38.30227272727272,
                "pitch": 59,
                "velocity": 51,
                "duration": 0.17954545454545467,
                "tempo": 120.0
            },
            {
                "start_time": 38.31818181818181,
                "end_time": 38.49772727272727,
                "pitch": 60,
                "velocity": 51,
                "duration": 0.17954545454545467,
                "tempo": 120.0
            },
            {
                "start_time": 38.51363636363636,
                "end_time": 38.70227272727273,
                "pitch": 61,
                "velocity": 51,
                "duration": 0.1886363636363697,
                "tempo": 120.0
            },
            {
                "start_time": 38.71818181818182,
                "end_time": 38.90681818181818,
                "pitch": 62,
                "velocity": 51,
                "duration": 0.1886363636363626,
                "tempo": 120.0
            },
            {
                "start_time": 38.925,
                "end_time": 39.10454545454545,
                "pitch": 63,
                "velocity": 51,
                "duration": 0.17954545454545467,
                "tempo": 120.0
            },
            {
                "start_time": 39.12045454545454,
                "end_time": 39.3,
                "pitch": 64,
                "velocity": 51,
                "duration": 0.17954545454545467,
                "tempo": 120.0
            },
            {
                "start_time": 39.52045454545454,
                "end_time": 39.709090909090904,
                "pitch": 60,
                "velocity": 51,
                "duration": 0.1886363636363626,
                "tempo": 120.0
            },
            {
                "start_time": 39.72727272727273,
                "end_time": 39.90681818181818,
                "pitch": 59,
                "velocity": 51,
                "duration": 0.17954545454545467,
                "tempo": 120.0
            },
            {
                "start_time": 40.11818181818182,
                "end_time": 40.30681818181818,
                "pitch": 60,
                "velocity": 51,
                "duration": 0.1886363636363626,
                "tempo": 120.0
            },
            {
                "start_time": 40.324999999999996,
                "end_time": 40.51363636363636,
                "pitch": 59,
                "velocity": 51,
                "duration": 0.1886363636363626,
                "tempo": 120.0
            },
            {
                "start_time": 40.725,
                "end_time": 40.904545454545456,
                "pitch": 60,
                "velocity": 51,
                "duration": 0.17954545454545467,
                "tempo": 120.0
            },
            {
                "start_time": 41.127272727272725,
                "end_time": 41.31590909090909,
                "pitch": 60,
                "velocity": 51,
                "duration": 0.1886363636363626,
                "tempo": 120.0
            },
            {
                "start_time": 41.33181818181818,
                "end_time": 41.51136363636363,
                "pitch": 59,
                "velocity": 51,
                "duration": 0.17954545454545467,
                "tempo": 120.0
            },
            {
                "start_time": 41.52954545454545,
                "end_time": 42.10681818181818,
                "pitch": 62,
                "velocity": 51,
                "duration": 0.577272727272728,
                "tempo": 120.0
            },
            {
                "start_time": 42.125,
                "end_time": 42.50681818181818,
                "pitch": 62,
                "velocity": 51,
                "duration": 0.3818181818181827,
                "tempo": 120.0
            },
            {
                "start_time": 42.72954545454545,
                "end_time": 42.918181818181814,
                "pitch": 60,
                "velocity": 51,
                "duration": 0.1886363636363626,
                "tempo": 120.0
            },
            {
                "start_time": 42.934090909090905,
                "end_time": 43.11590909090909,
                "pitch": 59,
                "velocity": 51,
                "duration": 0.18181818181818699,
                "tempo": 120.0
            },
            {
                "start_time": 43.32727272727273,
                "end_time": 43.51590909090909,
                "pitch": 60,
                "velocity": 51,
                "duration": 0.1886363636363626,
                "tempo": 120.0
            },
            {
                "start_time": 43.53181818181818,
                "end_time": 43.720454545454544,
                "pitch": 59,
                "velocity": 51,
                "duration": 0.1886363636363626,
                "tempo": 120.0
            },
            {
                "start_time": 43.934090909090905,
                "end_time": 44.11363636363636,
                "pitch": 60,
                "velocity": 51,
                "duration": 0.17954545454545467,
                "tempo": 120.0
            },
            {
                "start_time": 44.334090909090904,
                "end_time": 44.52272727272727,
                "pitch": 60,
                "velocity": 51,
                "duration": 0.1886363636363697,
                "tempo": 120.0
            },
            {
                "start_time": 44.54090909090909,
                "end_time": 44.720454545454544,
                "pitch": 59,
                "velocity": 51,
                "duration": 0.17954545454545467,
                "tempo": 120.0
            },
            {
                "start_time": 44.736363636363635,
                "end_time": 45.31590909090909,
                "pitch": 62,
                "velocity": 51,
                "duration": 0.5795454545454533,
                "tempo": 120.0
            },
            {
                "start_time": 45.33181818181818,
                "end_time": 45.71818181818182,
                "pitch": 64,
                "velocity": 51,
                "duration": 0.38636363636364024,
                "tempo": 120.0
            },
            {
                "start_time": 45.94090909090909,
                "end_time": 46.12954545454545,
                "pitch": 60,
                "velocity": 51,
                "duration": 0.1886363636363626,
                "tempo": 120.0
            },
            {
                "start_time": 46.14545454545454,
                "end_time": 46.324999999999996,
                "pitch": 59,
                "velocity": 51,
                "duration": 0.17954545454545467,
                "tempo": 120.0
            },
            {
                "start_time": 46.538636363636364,
                "end_time": 46.724999999999994,
                "pitch": 60,
                "velocity": 51,
                "duration": 0.1863636363636303,
                "tempo": 120.0
            },
            {
                "start_time": 46.74318181818182,
                "end_time": 46.93181818181818,
                "pitch": 59,
                "velocity": 51,
                "duration": 0.1886363636363626,
                "tempo": 120.0
            },
            {
                "start_time": 47.14545454545454,
                "end_time": 47.324999999999996,
                "pitch": 60,
                "velocity": 51,
                "duration": 0.17954545454545467,
                "tempo": 120.0
            },
            {
                "start_time": 47.54545454545454,
                "end_time": 47.73409090909091,
                "pitch": 60,
                "velocity": 51,
                "duration": 0.1886363636363697,
                "tempo": 120.0
            },
            {
                "start_time": 47.752272727272725,
                "end_time": 47.93181818181818,
                "pitch": 59,
                "velocity": 51,
                "duration": 0.17954545454545467,
                "tempo": 120.0
            },
            {
                "start_time": 47.94772727272727,
                "end_time": 48.527272727272724,
                "pitch": 62,
                "velocity": 51,
                "duration": 0.5795454545454533,
                "tempo": 120.0
            },
            {
                "start_time": 48.543181818181814,
                "end_time": 48.92727272727272,
                "pitch": 62,
                "velocity": 51,
                "duration": 0.38409090909090793,
                "tempo": 120.0
            },
            {
                "start_time": 49.14772727272727,
                "end_time": 49.336363636363636,
                "pitch": 60,
                "velocity": 51,
                "duration": 0.1886363636363626,
                "tempo": 120.0
            },
            {
                "start_time": 49.35454545454545,
                "end_time": 49.53409090909091,
                "pitch": 59,
                "velocity": 51,
                "duration": 0.17954545454545467,
                "tempo": 120.0
            },
            {
                "start_time": 49.74545454545454,
                "end_time": 49.934090909090905,
                "pitch": 60,
                "velocity": 51,
                "duration": 0.1886363636363626,
                "tempo": 120.0
            },
            {
                "start_time": 49.95227272727273,
                "end_time": 50.13863636363636,
                "pitch": 59,
                "velocity": 51,
                "duration": 0.1863636363636303,
                "tempo": 120.0
            },
            {
                "start_time": 50.35227272727273,
                "end_time": 50.53181818181818,
                "pitch": 64,
                "velocity": 51,
                "duration": 0.17954545454545467,
                "tempo": 120.0
            },
            {
                "start_time": 50.75454545454545,
                "end_time": 50.94318181818181,
                "pitch": 65,
                "velocity": 51,
                "duration": 0.1886363636363626,
                "tempo": 120.0
            },
            {
                "start_time": 51.16136363636363,
                "end_time": 51.345454545454544,
                "pitch": 48,
                "velocity": 51,
                "duration": 0.1840909090909122,
                "tempo": 120.0
            },
            {
                "start_time": 51.361363636363635,
                "end_time": 51.543181818181814,
                "pitch": 50,
                "velocity": 51,
                "duration": 0.18181818181817988,
                "tempo": 120.0
            },
            {
                "start_time": 51.559090909090905,
                "end_time": 51.73863636363636,
                "pitch": 52,
                "velocity": 51,
                "duration": 0.17954545454545467,
                "tempo": 120.0
            },
            {
                "start_time": 51.75454545454545,
                "end_time": 51.93863636363636,
                "pitch": 55,
                "velocity": 51,
                "duration": 0.1840909090909122,
                "tempo": 120.0
            },
            {
                "start_time": 51.95454545454545,
                "end_time": 52.13863636363636,
                "pitch": 57,
                "velocity": 51,
                "duration": 0.18409090909090509,
                "tempo": 120.0
            },
            {
                "start_time": 52.35909090909091,
                "end_time": 52.54772727272727,
                "pitch": 60,
                "velocity": 51,
                "duration": 0.1886363636363626,
                "tempo": 120.0
            },
            {
                "start_time": 52.56590909090909,
                "end_time": 52.74545454545454,
                "pitch": 59,
                "velocity": 51,
                "duration": 0.17954545454545467,
                "tempo": 120.0
            },
            {
                "start_time": 52.95681818181818,
                "end_time": 53.14545454545454,
                "pitch": 60,
                "velocity": 51,
                "duration": 0.1886363636363626,
                "tempo": 120.0
            },
            {
                "start_time": 53.16136363636363,
                "end_time": 53.349999999999994,
                "pitch": 59,
                "velocity": 51,
                "duration": 0.1886363636363626,
                "tempo": 120.0
            },
            {
                "start_time": 53.56363636363636,
                "end_time": 53.74318181818182,
                "pitch": 60,
                "velocity": 51,
                "duration": 0.17954545454545467,
                "tempo": 120.0
            },
            {
                "start_time": 53.965909090909086,
                "end_time": 54.152272727272724,
                "pitch": 60,
                "velocity": 51,
                "duration": 0.1863636363636374,
                "tempo": 120.0
            },
            {
                "start_time": 54.17045454545454,
                "end_time": 54.349999999999994,
                "pitch": 59,
                "velocity": 51,
                "duration": 0.17954545454545467,
                "tempo": 120.0
            },
            {
                "start_time": 54.365909090909085,
                "end_time": 54.945454545454545,
                "pitch": 62,
                "velocity": 51,
                "duration": 0.5795454545454604,
                "tempo": 120.0
            },
            {
                "start_time": 54.96363636363636,
                "end_time": 55.345454545454544,
                "pitch": 62,
                "velocity": 51,
                "duration": 0.3818181818181827,
                "tempo": 120.0
            },
            {
                "start_time": 55.56818181818181,
                "end_time": 55.756818181818176,
                "pitch": 60,
                "velocity": 51,
                "duration": 0.1886363636363626,
                "tempo": 120.0
            },
            {
                "start_time": 55.77272727272727,
                "end_time": 55.95227272727273,
                "pitch": 59,
                "velocity": 51,
                "duration": 0.17954545454545467,
                "tempo": 120.0
            },
            {
                "start_time": 56.16590909090909,
                "end_time": 56.35454545454545,
                "pitch": 60,
                "velocity": 51,
                "duration": 0.1886363636363626,
                "tempo": 120.0
            },
            {
                "start_time": 56.37045454545454,
                "end_time": 56.559090909090905,
                "pitch": 59,
                "velocity": 51,
                "duration": 0.1886363636363626,
                "tempo": 120.0
            },
            {
                "start_time": 56.77272727272727,
                "end_time": 56.95227272727273,
                "pitch": 60,
                "velocity": 51,
                "duration": 0.17954545454545467,
                "tempo": 120.0
            },
            {
                "start_time": 57.17272727272727,
                "end_time": 57.361363636363635,
                "pitch": 60,
                "velocity": 51,
                "duration": 0.1886363636363626,
                "tempo": 120.0
            },
            {
                "start_time": 57.37954545454545,
                "end_time": 57.559090909090905,
                "pitch": 59,
                "velocity": 51,
                "duration": 0.17954545454545467,
                "tempo": 120.0
            },
            {
                "start_time": 57.574999999999996,
                "end_time": 58.15454545454545,
                "pitch": 62,
                "velocity": 51,
                "duration": 0.5795454545454533,
                "tempo": 120.0
            },
            {
                "start_time": 58.17045454545454,
                "end_time": 58.554545454545455,
                "pitch": 64,
                "velocity": 51,
                "duration": 0.38409090909091503,
                "tempo": 120.0
            },
            {
                "start_time": 58.775,
                "end_time": 58.96363636363636,
                "pitch": 60,
                "velocity": 51,
                "duration": 0.1886363636363626,
                "tempo": 120.0
            },
            {
                "start_time": 58.98181818181818,
                "end_time": 59.16136363636363,
                "pitch": 59,
                "velocity": 51,
                "duration": 0.17954545454545467,
                "tempo": 120.0
            },
            {
                "start_time": 59.37272727272727,
                "end_time": 59.56136363636363,
                "pitch": 60,
                "velocity": 51,
                "duration": 0.1886363636363626,
                "tempo": 120.0
            },
            {
                "start_time": 59.57954545454545,
                "end_time": 59.76590909090909,
                "pitch": 59,
                "velocity": 51,
                "duration": 0.1863636363636374,
                "tempo": 120.0
            },
            {
                "start_time": 59.97954545454545,
                "end_time": 60.15909090909091,
                "pitch": 60,
                "velocity": 51,
                "duration": 0.17954545454545467,
                "tempo": 120.0
            },
            {
                "start_time": 60.381818181818176,
                "end_time": 60.570454545454545,
                "pitch": 60,
                "velocity": 51,
                "duration": 0.1886363636363697,
                "tempo": 120.0
            },
            {
                "start_time": 60.586363636363636,
                "end_time": 60.76590909090909,
                "pitch": 59,
                "velocity": 51,
                "duration": 0.17954545454545467,
                "tempo": 120.0
            },
            {
                "start_time": 60.78181818181818,
                "end_time": 61.361363636363635,
                "pitch": 62,
                "velocity": 51,
                "duration": 0.5795454545454533,
                "tempo": 120.0
            },
            {
                "start_time": 61.37954545454545,
                "end_time": 61.76590909090909,
                "pitch": 62,
                "velocity": 51,
                "duration": 0.38636363636364024,
                "tempo": 120.0
            },
            {
                "start_time": 61.986363636363635,
                "end_time": 62.175,
                "pitch": 60,
                "velocity": 51,
                "duration": 0.1886363636363626,
                "tempo": 120.0
            },
            {
                "start_time": 62.19318181818181,
                "end_time": 62.37272727272727,
                "pitch": 59,
                "velocity": 51,
                "duration": 0.17954545454545467,
                "tempo": 120.0
            },
            {
                "start_time": 62.584090909090904,
                "end_time": 62.772727272727266,
                "pitch": 60,
                "velocity": 51,
                "duration": 0.1886363636363626,
                "tempo": 120.0
            },
            {
                "start_time": 62.788636363636364,
                "end_time": 62.97727272727273,
                "pitch": 59,
                "velocity": 51,
                "duration": 0.1886363636363626,
                "tempo": 120.0
            },
            {
                "start_time": 63.19090909090909,
                "end_time": 63.37045454545454,
                "pitch": 64,
                "velocity": 51,
                "duration": 0.17954545454545467,
                "tempo": 120.0
            },
            {
                "start_time": 63.59318181818181,
                "end_time": 63.77954545454545,
                "pitch": 65,
                "velocity": 51,
                "duration": 0.1863636363636374,
                "tempo": 120.0
            },
            {
                "start_time": 63.99772727272727,
                "end_time": 64.18181818181817,
                "pitch": 48,
                "velocity": 51,
                "duration": 0.18409090909090509,
                "tempo": 120.0
            },
            {
                "start_time": 64.19772727272726,
                "end_time": 64.38181818181818,
                "pitch": 50,
                "velocity": 51,
                "duration": 0.1840909090909122,
                "tempo": 120.0
            },
            {
                "start_time": 64.39999999999999,
                "end_time": 64.5840909090909,
                "pitch": 52,
                "velocity": 51,
                "duration": 0.1840909090909122,
                "tempo": 120.0
            },
            {
                "start_time": 64.6,
                "end_time": 64.77954545454546,
                "pitch": 55,
                "velocity": 51,
                "duration": 0.17954545454546178,
                "tempo": 120.0
            },
            {
                "start_time": 64.79772727272727,
                "end_time": 64.97727272727272,
                "pitch": 57,
                "velocity": 51,
                "duration": 0.17954545454544757,
                "tempo": 120.0
            },
            {
                "start_time": 64.99318181818181,
                "end_time": 66.58181818181818,
                "pitch": 57,
                "velocity": 51,
                "duration": 1.5886363636363683,
                "tempo": 120.0
            },
            {
                "start_time": 66.59772727272727,
                "end_time": 68.18636363636364,
                "pitch": 59,
                "velocity": 51,
                "duration": 1.5886363636363683,
                "tempo": 120.0
            },
            {
                "start_time": 68.20227272727273,
                "end_time": 69.79318181818182,
                "pitch": 60,
                "velocity": 51,
                "duration": 1.5909090909090935,
                "tempo": 120.0
            },
            {
                "start_time": 69.80909090909091,
                "end_time": 71.39772727272727,
                "pitch": 62,
                "velocity": 51,
                "duration": 1.588636363636354,
                "tempo": 120.0
            },
            {
                "start_time": 71.41363636363636,
                "end_time": 73.00227272727273,
                "pitch": 64,
                "velocity": 51,
                "duration": 1.5886363636363683,
                "tempo": 120.0
            },
            {
                "start_time": 73.01818181818182,
                "end_time": 74.60909090909091,
                "pitch": 65,
                "velocity": 51,
                "duration": 1.5909090909090935,
                "tempo": 120.0
            },
            {
                "start_time": 74.625,
                "end_time": 76.21363636363635,
                "pitch": 67,
                "velocity": 51,
                "duration": 1.588636363636354,
                "tempo": 120.0
            },
            {
                "start_time": 77.44545454545454,
                "end_time": 77.53181818181818,
                "pitch": 63,
                "velocity": 51,
                "duration": 0.08636363636364308,
                "tempo": 120.0
            },
            {
                "start_time": 77.54772727272727,
                "end_time": 77.6340909090909,
                "pitch": 64,
                "velocity": 51,
                "duration": 0.08636363636362887,
                "tempo": 120.0
            },
            {
                "start_time": 77.65227272727272,
                "end_time": 77.73636363636363,
                "pitch": 65,
                "velocity": 51,
                "duration": 0.08409090909091788,
                "tempo": 120.0
            },
            {
                "start_time": 77.75454545454545,
                "end_time": 77.83863636363635,
                "pitch": 66,
                "velocity": 51,
                "duration": 0.08409090909090366,
                "tempo": 120.0
            }
        ],
        "Acoustic Bass": [
            {
                "start_time": 0.7840909090909091,
                "end_time": 0.9727272727272727,
                "pitch": 33,
                "velocity": 80,
                "duration": 0.1886363636363636,
                "tempo": 120.0
            },
            {
                "start_time": 0.9886363636363635,
                "end_time": 1.1772727272727272,
                "pitch": 33,
                "velocity": 80,
                "duration": 0.1886363636363637,
                "tempo": 120.0
            },
            {
                "start_time": 1.1954545454545453,
                "end_time": 1.375,
                "pitch": 33,
                "velocity": 80,
                "duration": 0.17954545454545467,
                "tempo": 120.0
            },
            {
                "start_time": 1.3909090909090909,
                "end_time": 1.5704545454545453,
                "pitch": 33,
                "velocity": 80,
                "duration": 0.17954545454545445,
                "tempo": 120.0
            },
            {
                "start_time": 1.5863636363636362,
                "end_time": 1.775,
                "pitch": 33,
                "velocity": 80,
                "duration": 0.1886363636363637,
                "tempo": 120.0
            },
            {
                "start_time": 1.793181818181818,
                "end_time": 1.9795454545454545,
                "pitch": 33,
                "velocity": 80,
                "duration": 0.1863636363636365,
                "tempo": 120.0
            },
            {
                "start_time": 1.9977272727272726,
                "end_time": 2.1772727272727272,
                "pitch": 33,
                "velocity": 80,
                "duration": 0.17954545454545467,
                "tempo": 120.0
            },
            {
                "start_time": 2.193181818181818,
                "end_time": 2.3727272727272726,
                "pitch": 33,
                "velocity": 80,
                "duration": 0.17954545454545467,
                "tempo": 120.0
            },
            {
                "start_time": 2.3909090909090907,
                "end_time": 2.577272727272727,
                "pitch": 33,
                "velocity": 80,
                "duration": 0.1863636363636365,
                "tempo": 120.0
            },
            {
                "start_time": 2.5954545454545452,
                "end_time": 2.784090909090909,
                "pitch": 33,
                "velocity": 80,
                "duration": 0.18863636363636394,
                "tempo": 120.0
            },
            {
                "start_time": 2.8,
                "end_time": 2.9795454545454545,
                "pitch": 33,
                "velocity": 80,
                "duration": 0.17954545454545467,
                "tempo": 120.0
            },
            {
                "start_time": 2.995454545454545,
                "end_time": 3.377272727272727,
                "pitch": 36,
                "velocity": 80,
                "duration": 0.38181818181818183,
                "tempo": 120.0
            },
            {
                "start_time": 3.393181818181818,
                "end_time": 3.577272727272727,
                "pitch": 36,
                "velocity": 80,
                "duration": 0.18409090909090908,
                "tempo": 120.0
            },
            {
                "start_time": 3.5954545454545452,
                "end_time": 3.7795454545454543,
                "pitch": 35,
                "velocity": 80,
                "duration": 0.18409090909090908,
                "tempo": 120.0
            },
            {
                "start_time": 3.7954545454545454,
                "end_time": 3.9795454545454545,
                "pitch": 35,
                "velocity": 80,
                "duration": 0.18409090909090908,
                "tempo": 120.0
            },
            {
                "start_time": 3.995454545454545,
                "end_time": 4.184090909090909,
                "pitch": 33,
                "velocity": 80,
                "duration": 0.1886363636363635,
                "tempo": 120.0
            },
            {
                "start_time": 4.2,
                "end_time": 4.388636363636364,
                "pitch": 33,
                "velocity": 80,
                "duration": 0.1886363636363635,
                "tempo": 120.0
            },
            {
                "start_time": 4.406818181818181,
                "end_time": 4.586363636363636,
                "pitch": 33,
                "velocity": 80,
                "duration": 0.17954545454545467,
                "tempo": 120.0
            },
            {
                "start_time": 4.602272727272727,
                "end_time": 4.781818181818181,
                "pitch": 33,
                "velocity": 80,
                "duration": 0.17954545454545467,
                "tempo": 120.0
            },
            {
                "start_time": 4.797727272727273,
                "end_time": 4.986363636363636,
                "pitch": 33,
                "velocity": 80,
                "duration": 0.1886363636363635,
                "tempo": 120.0
            },
            {
                "start_time": 5.002272727272727,
                "end_time": 5.1909090909090905,
                "pitch": 33,
                "velocity": 80,
                "duration": 0.1886363636363635,
                "tempo": 120.0
            },
            {
                "start_time": 5.209090909090909,
                "end_time": 5.388636363636364,
                "pitch": 33,
                "velocity": 80,
                "duration": 0.17954545454545467,
                "tempo": 120.0
            },
            {
                "start_time": 5.404545454545454,
                "end_time": 5.584090909090909,
                "pitch": 33,
                "velocity": 80,
                "duration": 0.17954545454545467,
                "tempo": 120.0
            },
            {
                "start_time": 5.6,
                "end_time": 5.788636363636363,
                "pitch": 33,
                "velocity": 80,
                "duration": 0.1886363636363635,
                "tempo": 120.0
            },
            {
                "start_time": 5.804545454545455,
                "end_time": 5.993181818181818,
                "pitch": 33,
                "velocity": 80,
                "duration": 0.1886363636363635,
                "tempo": 120.0
            },
            {
                "start_time": 6.011363636363636,
                "end_time": 6.1909090909090905,
                "pitch": 33,
                "velocity": 80,
                "duration": 0.17954545454545467,
                "tempo": 120.0
            },
            {
                "start_time": 6.206818181818181,
                "end_time": 6.588636363636363,
                "pitch": 38,
                "velocity": 80,
                "duration": 0.38181818181818183,
                "tempo": 120.0
            },
            {
                "start_time": 6.6045454545454545,
                "end_time": 6.788636363636363,
                "pitch": 38,
                "velocity": 80,
                "duration": 0.18409090909090864,
                "tempo": 120.0
            },
            {
                "start_time": 6.806818181818182,
                "end_time": 6.988636363636363,
                "pitch": 40,
                "velocity": 80,
                "duration": 0.18181818181818166,
                "tempo": 120.0
            },
            {
                "start_time": 7.006818181818182,
                "end_time": 7.1886363636363635,
                "pitch": 40,
                "velocity": 80,
                "duration": 0.18181818181818166,
                "tempo": 120.0
            },
            {
                "start_time": 7.206818181818181,
                "end_time": 7.393181818181818,
                "pitch": 33,
                "velocity": 80,
                "duration": 0.1863636363636365,
                "tempo": 120.0
            },
            {
                "start_time": 7.411363636363636,
                "end_time": 7.6,
                "pitch": 33,
                "velocity": 80,
                "duration": 0.1886363636363635,
                "tempo": 120.0
            },
            {
                "start_time": 7.61590909090909,
                "end_time": 7.795454545454545,
                "pitch": 33,
                "velocity": 80,
                "duration": 0.17954545454545467,
                "tempo": 120.0
            },
            {
                "start_time": 7.8136363636363635,
                "end_time": 7.993181818181818,
                "pitch": 33,
                "velocity": 80,
                "duration": 0.17954545454545467,
                "tempo": 120.0
            },
            {
                "start_time": 8.009090909090908,
                "end_time": 8.197727272727272,
                "pitch": 33,
                "velocity": 80,
                "duration": 0.18863636363636438,
                "tempo": 120.0
            },
            {
                "start_time": 8.213636363636363,
                "end_time": 8.402272727272727,
                "pitch": 33,
                "velocity": 80,
                "duration": 0.18863636363636438,
                "tempo": 120.0
            },
            {
                "start_time": 8.418181818181818,
                "end_time": 8.6,
                "pitch": 33,
                "velocity": 80,
                "duration": 0.18181818181818166,
                "tempo": 120.0
            },
            {
                "start_time": 8.61590909090909,
                "end_time": 8.795454545454545,
                "pitch": 33,
                "velocity": 80,
                "duration": 0.17954545454545467,
                "tempo": 120.0
            },
            {
                "start_time": 8.811363636363636,
                "end_time": 9.0,
                "pitch": 33,
                "velocity": 80,
                "duration": 0.18863636363636438,
                "tempo": 120.0
            },
            {
                "start_time": 9.01590909090909,
                "end_time": 9.204545454545453,
                "pitch": 33,
                "velocity": 80,
                "duration": 0.1886363636363626,
                "tempo": 120.0
            },
            {
                "start_time": 9.222727272727273,
                "end_time": 9.402272727272727,
                "pitch": 33,
                "velocity": 80,
                "duration": 0.17954545454545467,
                "tempo": 120.0
            },
            {
                "start_time": 9.418181818181818,
                "end_time": 9.797727272727272,
                "pitch": 36,
                "velocity": 80,
                "duration": 0.37954545454545396,
                "tempo": 120.0
            },
            {
                "start_time": 9.81590909090909,
                "end_time": 10.0,
                "pitch": 36,
                "velocity": 80,
                "duration": 0.18409090909091042,
                "tempo": 120.0
            },
            {
                "start_time": 10.01590909090909,
                "end_time": 10.202272727272726,
                "pitch": 35,
                "velocity": 80,
                "duration": 0.18636363636363562,
                "tempo": 120.0
            },
            {
                "start_time": 10.218181818181817,
                "end_time": 10.402272727272727,
                "pitch": 35,
                "velocity": 80,
                "duration": 0.18409090909091042,
                "tempo": 120.0
            },
            {
                "start_time": 10.420454545454545,
                "end_time": 10.60681818181818,
                "pitch": 33,
                "velocity": 80,
                "duration": 0.18636363636363562,
                "tempo": 120.0
            },
            {
                "start_time": 10.625,
                "end_time": 10.813636363636363,
                "pitch": 33,
                "velocity": 80,
                "duration": 0.1886363636363626,
                "tempo": 120.0
            },
            {
                "start_time": 10.829545454545453,
                "end_time": 11.009090909090908,
                "pitch": 33,
                "velocity": 80,
                "duration": 0.17954545454545467,
                "tempo": 120.0
            },
            {
                "start_time": 11.027272727272727,
                "end_time": 11.206818181818182,
                "pitch": 33,
                "velocity": 80,
                "duration": 0.17954545454545467,
                "tempo": 120.0
            },
            {
                "start_time": 11.222727272727273,
                "end_time": 11.411363636363635,
                "pitch": 33,
                "velocity": 80,
                "duration": 0.1886363636363626,
                "tempo": 120.0
            },
            {
                "start_time": 11.427272727272726,
                "end_time": 11.61590909090909,
                "pitch": 33,
                "velocity": 80,
                "duration": 0.18863636363636438,
                "tempo": 120.0
            },
            {
                "start_time": 11.631818181818181,
                "end_time": 11.813636363636363,
                "pitch": 33,
                "velocity": 80,
                "duration": 0.18181818181818166,
                "tempo": 120.0
            },
            {
                "start_time": 11.829545454545453,
                "end_time": 12.009090909090908,
                "pitch": 33,
                "velocity": 80,
                "duration": 0.17954545454545467,
                "tempo": 120.0
            },
            {
                "start_time": 12.024999999999999,
                "end_time": 12.213636363636363,
                "pitch": 33,
                "velocity": 80,
                "duration": 0.18863636363636438,
                "tempo": 120.0
            },
            {
                "start_time": 12.229545454545454,
                "end_time": 12.418181818181818,
                "pitch": 33,
                "velocity": 80,
                "duration": 0.18863636363636438,
                "tempo": 120.0
            },
            {
                "start_time": 12.436363636363636,
                "end_time": 12.620454545454544,
                "pitch": 33,
                "velocity": 80,
                "duration": 0.18409090909090864,
                "tempo": 120.0
            },
            {
                "start_time": 12.636363636363635,
                "end_time": 12.822727272727272,
                "pitch": 36,
                "velocity": 80,
                "duration": 0.1863636363636374,
                "tempo": 120.0
            },
            {
                "start_time": 12.838636363636363,
                "end_time": 13.018181818181818,
                "pitch": 38,
                "velocity": 80,
                "duration": 0.17954545454545467,
                "tempo": 120.0
            },
            {
                "start_time": 13.034090909090908,
                "end_time": 13.213636363636363,
                "pitch": 40,
                "velocity": 80,
                "duration": 0.17954545454545467,
                "tempo": 120.0
            },
            {
                "start_time": 13.229545454545454,
                "end_time": 13.413636363636362,
                "pitch": 43,
                "velocity": 80,
                "duration": 0.18409090909090864,
                "tempo": 120.0
            },
            {
                "start_time": 13.429545454545455,
                "end_time": 13.613636363636363,
                "pitch": 45,
                "velocity": 80,
                "duration": 0.18409090909090864,
                "tempo": 120.0
            },
            {
                "start_time": 13.629545454545454,
                "end_time": 13.818181818181818,
                "pitch": 33,
                "velocity": 80,
                "duration": 0.18863636363636438,
                "tempo": 120.0
            },
            {
                "start_time": 13.836363636363636,
                "end_time": 14.024999999999999,
                "pitch": 33,
                "velocity": 80,
                "duration": 0.1886363636363626,
                "tempo": 120.0
            },
            {
                "start_time": 14.040909090909091,
                "end_time": 14.220454545454544,
                "pitch": 33,
                "velocity": 80,
                "duration": 0.1795454545454529,
                "tempo": 120.0
            },
            {
                "start_time": 14.236363636363636,
                "end_time": 14.418181818181818,
                "pitch": 33,
                "velocity": 80,
                "duration": 0.18181818181818166,
                "tempo": 120.0
            },
            {
                "start_time": 14.434090909090909,
                "end_time": 14.620454545454544,
                "pitch": 33,
                "velocity": 80,
                "duration": 0.18636363636363562,
                "tempo": 120.0
            },
            {
                "start_time": 14.638636363636364,
                "end_time": 14.827272727272726,
                "pitch": 33,
                "velocity": 80,
                "duration": 0.1886363636363626,
                "tempo": 120.0
            },
            {
                "start_time": 14.843181818181817,
                "end_time": 15.022727272727272,
                "pitch": 33,
                "velocity": 80,
                "duration": 0.17954545454545467,
                "tempo": 120.0
            },
            {
                "start_time": 15.040909090909091,
                "end_time": 15.220454545454544,
                "pitch": 33,
                "velocity": 80,
                "duration": 0.1795454545454529,
                "tempo": 120.0
            },
            {
                "start_time": 15.236363636363636,
                "end_time": 15.424999999999999,
                "pitch": 33,
                "velocity": 80,
                "duration": 0.1886363636363626,
                "tempo": 120.0
            },
            {
                "start_time": 15.44090909090909,
                "end_time": 15.629545454545454,
                "pitch": 33,
                "velocity": 80,
                "duration": 0.18863636363636438,
                "tempo": 120.0
            },
            {
                "start_time": 15.645454545454545,
                "end_time": 15.827272727272726,
                "pitch": 33,
                "velocity": 80,
                "duration": 0.18181818181818166,
                "tempo": 120.0
            },
            {
                "start_time": 15.843181818181817,
                "end_time": 16.222727272727273,
                "pitch": 36,
                "velocity": 80,
                "duration": 0.37954545454545574,
                "tempo": 120.0
            },
            {
                "start_time": 16.24090909090909,
                "end_time": 16.425,
                "pitch": 36,
                "velocity": 80,
                "duration": 0.1840909090909122,
                "tempo": 120.0
            },
            {
                "start_time": 16.44090909090909,
                "end_time": 16.625,
                "pitch": 35,
                "velocity": 80,
                "duration": 0.18409090909090864,
                "tempo": 120.0
            },
            {
                "start_time": 16.64090909090909,
                "end_time": 16.825,
                "pitch": 35,
                "velocity": 80,
                "duration": 0.18409090909090864,
                "tempo": 120.0
            },
            {
                "start_time": 16.84090909090909,
                "end_time": 17.029545454545453,
                "pitch": 33,
                "velocity": 80,
                "duration": 0.1886363636363626,
                "tempo": 120.0
            },
            {
                "start_time": 17.045454545454543,
                "end_time": 17.23409090909091,
                "pitch": 33,
                "velocity": 80,
                "duration": 0.18863636363636616,
                "tempo": 120.0
            },
            {
                "start_time": 17.252272727272725,
                "end_time": 17.43181818181818,
                "pitch": 33,
                "velocity": 80,
                "duration": 0.17954545454545467,
                "tempo": 120.0
            },
            {
                "start_time": 17.44772727272727,
                "end_time": 17.627272727272725,
                "pitch": 33,
                "velocity": 80,
                "duration": 0.17954545454545467,
                "tempo": 120.0
            },
            {
                "start_time": 17.643181818181816,
                "end_time": 17.831818181818182,
                "pitch": 33,
                "velocity": 80,
                "duration": 0.18863636363636616,
                "tempo": 120.0
            },
            {
                "start_time": 17.849999999999998,
                "end_time": 18.038636363636364,
                "pitch": 33,
                "velocity": 80,
                "duration": 0.18863636363636616,
                "tempo": 120.0
            },
            {
                "start_time": 18.054545454545455,
                "end_time": 18.23409090909091,
                "pitch": 33,
                "velocity": 80,
                "duration": 0.17954545454545467,
                "tempo": 120.0
            },
            {
                "start_time": 18.25,
                "end_time": 18.429545454545455,
                "pitch": 33,
                "velocity": 80,
                "duration": 0.17954545454545467,
                "tempo": 120.0
            },
            {
                "start_time": 18.44772727272727,
                "end_time": 18.634090909090908,
                "pitch": 33,
                "velocity": 80,
                "duration": 0.1863636363636374,
                "tempo": 120.0
            },
            {
                "start_time": 18.652272727272727,
                "end_time": 18.84090909090909,
                "pitch": 33,
                "velocity": 80,
                "duration": 0.1886363636363626,
                "tempo": 120.0
            },
            {
                "start_time": 18.85681818181818,
                "end_time": 19.036363636363635,
                "pitch": 33,
                "velocity": 80,
                "duration": 0.17954545454545467,
                "tempo": 120.0
            },
            {
                "start_time": 19.054545454545455,
                "end_time": 19.43181818181818,
                "pitch": 38,
                "velocity": 80,
                "duration": 0.3772727272727252,
                "tempo": 120.0
            },
            {
                "start_time": 19.45,
                "end_time": 19.63181818181818,
                "pitch": 38,
                "velocity": 80,
                "duration": 0.18181818181817988,
                "tempo": 120.0
            },
            {
                "start_time": 19.65,
                "end_time": 19.834090909090907,
                "pitch": 40,
                "velocity": 80,
                "duration": 0.18409090909090864,
                "tempo": 120.0
            },
            {
                "start_time": 19.849999999999998,
                "end_time": 20.036363636363635,
                "pitch": 40,
                "velocity": 80,
                "duration": 0.1863636363636374,
                "tempo": 120.0
            },
            {
                "start_time": 20.052272727272726,
                "end_time": 20.24090909090909,
                "pitch": 33,
                "velocity": 80,
                "duration": 0.1886363636363626,
                "tempo": 120.0
            },
            {
                "start_time": 20.25681818181818,
                "end_time": 20.445454545454545,
                "pitch": 33,
                "velocity": 80,
                "duration": 0.18863636363636616,
                "tempo": 120.0
            },
            {
                "start_time": 20.46363636363636,
                "end_time": 20.643181818181816,
                "pitch": 33,
                "velocity": 80,
                "duration": 0.17954545454545467,
                "tempo": 120.0
            },
            {
                "start_time": 20.659090909090907,
                "end_time": 20.83863636363636,
                "pitch": 33,
                "velocity": 80,
                "duration": 0.17954545454545467,
                "tempo": 120.0
            },
            {
                "start_time": 20.854545454545452,
                "end_time": 21.043181818181818,
                "pitch": 33,
                "velocity": 80,
                "duration": 0.18863636363636616,
                "tempo": 120.0
            },
            {
                "start_time": 21.05909090909091,
                "end_time": 21.24772727272727,
                "pitch": 33,
                "velocity": 80,
                "duration": 0.1886363636363626,
                "tempo": 120.0
            },
            {
                "start_time": 21.26590909090909,
                "end_time": 21.445454545454545,
                "pitch": 33,
                "velocity": 80,
                "duration": 0.17954545454545467,
                "tempo": 120.0
            },
            {
                "start_time": 21.461363636363636,
                "end_time": 21.64090909090909,
                "pitch": 33,
                "velocity": 80,
                "duration": 0.17954545454545467,
                "tempo": 120.0
            },
            {
                "start_time": 21.65681818181818,
                "end_time": 21.845454545454544,
                "pitch": 33,
                "velocity": 80,
                "duration": 0.1886363636363626,
                "tempo": 120.0
            },
            {
                "start_time": 21.863636363636363,
                "end_time": 22.049999999999997,
                "pitch": 33,
                "velocity": 80,
                "duration": 0.18636363636363384,
                "tempo": 120.0
            },
            {
                "start_time": 22.068181818181817,
                "end_time": 22.24772727272727,
                "pitch": 33,
                "velocity": 80,
                "duration": 0.17954545454545467,
                "tempo": 120.0
            },
            {
                "start_time": 22.263636363636362,
                "end_time": 22.643181818181816,
                "pitch": 36,
                "velocity": 80,
                "duration": 0.37954545454545396,
                "tempo": 120.0
            },
            {
                "start_time": 22.661363636363635,
                "end_time": 22.84318181818182,
                "pitch": 36,
                "velocity": 80,
                "duration": 0.18181818181818343,
                "tempo": 120.0
            },
            {
                "start_time": 22.861363636363635,
                "end_time": 23.045454545454543,
                "pitch": 35,
                "velocity": 80,
                "duration": 0.18409090909090864,
                "tempo": 120.0
            },
            {
                "start_time": 23.061363636363634,
                "end_time": 23.245454545454546,
                "pitch": 35,
                "velocity": 80,
                "duration": 0.1840909090909122,
                "tempo": 120.0
            },
            {
                "start_time": 23.263636363636362,
                "end_time": 23.452272727272724,
                "pitch": 33,
                "velocity": 80,
                "duration": 0.1886363636363626,
                "tempo": 120.0
            },
            {
                "start_time": 23.46818181818182,
                "end_time": 23.65681818181818,
                "pitch": 33,
                "velocity": 80,
                "duration": 0.1886363636363626,
                "tempo": 120.0
            },
            {
                "start_time": 23.672727272727272,
                "end_time": 23.854545454545452,
                "pitch": 33,
                "velocity": 80,
                "duration": 0.18181818181817988,
                "tempo": 120.0
            },
            {
                "start_time": 23.870454545454546,
                "end_time": 24.049999999999997,
                "pitch": 33,
                "velocity": 80,
                "duration": 0.17954545454545112,
                "tempo": 120.0
            },
            {
                "start_time": 24.06590909090909,
                "end_time": 24.254545454545454,
                "pitch": 33,
                "velocity": 80,
                "duration": 0.1886363636363626,
                "tempo": 120.0
            },
            {
                "start_time": 24.270454545454545,
                "end_time": 24.459090909090907,
                "pitch": 33,
                "velocity": 80,
                "duration": 0.1886363636363626,
                "tempo": 120.0
            },
            {
                "start_time": 24.477272727272727,
                "end_time": 24.65681818181818,
                "pitch": 33,
                "velocity": 80,
                "duration": 0.17954545454545467,
                "tempo": 120.0
            },
            {
                "start_time": 24.672727272727272,
                "end_time": 24.852272727272727,
                "pitch": 33,
                "velocity": 80,
                "duration": 0.17954545454545467,
                "tempo": 120.0
            },
            {
                "start_time": 24.868181818181817,
                "end_time": 25.05681818181818,
                "pitch": 33,
                "velocity": 80,
                "duration": 0.1886363636363626,
                "tempo": 120.0
            },
            {
                "start_time": 25.07272727272727,
                "end_time": 25.261363636363637,
                "pitch": 33,
                "velocity": 80,
                "duration": 0.18863636363636616,
                "tempo": 120.0
            },
            {
                "start_time": 25.279545454545453,
                "end_time": 25.46363636363636,
                "pitch": 33,
                "velocity": 80,
                "duration": 0.18409090909090864,
                "tempo": 120.0
            },
            {
                "start_time": 25.479545454545452,
                "end_time": 25.66590909090909,
                "pitch": 36,
                "velocity": 80,
                "duration": 0.1863636363636374,
                "tempo": 120.0
            },
            {
                "start_time": 25.68181818181818,
                "end_time": 25.86590909090909,
                "pitch": 38,
                "velocity": 80,
                "duration": 0.18409090909090864,
                "tempo": 120.0
            },
            {
                "start_time": 25.88181818181818,
                "end_time": 26.06590909090909,
                "pitch": 40,
                "velocity": 80,
                "duration": 0.1840909090909122,
                "tempo": 120.0
            },
            {
                "start_time": 26.081818181818182,
                "end_time": 26.261363636363637,
                "pitch": 43,
                "velocity": 80,
                "duration": 0.17954545454545467,
                "tempo": 120.0
            },
            {
                "start_time": 26.277272727272727,
                "end_time": 26.456818181818182,
                "pitch": 45,
                "velocity": 80,
                "duration": 0.17954545454545467,
                "tempo": 120.0
            },
            {
                "start_time": 26.474999999999998,
                "end_time": 26.661363636363635,
                "pitch": 29,
                "velocity": 80,
                "duration": 0.1863636363636374,
                "tempo": 120.0
            },
            {
                "start_time": 26.679545454545455,
                "end_time": 26.868181818181817,
                "pitch": 29,
                "velocity": 80,
                "duration": 0.1886363636363626,
                "tempo": 120.0
            },
            {
                "start_time": 26.884090909090908,
                "end_time": 27.063636363636363,
                "pitch": 29,
                "velocity": 80,
                "duration": 0.17954545454545467,
                "tempo": 120.0
            },
            {
                "start_time": 27.081818181818182,
                "end_time": 27.261363636363637,
                "pitch": 29,
                "velocity": 80,
                "duration": 0.17954545454545467,
                "tempo": 120.0
            },
            {
                "start_time": 27.277272727272727,
                "end_time": 27.46363636363636,
                "pitch": 29,
                "velocity": 80,
                "duration": 0.18636363636363384,
                "tempo": 120.0
            },
            {
                "start_time": 27.48181818181818,
                "end_time": 27.670454545454543,
                "pitch": 29,
                "velocity": 80,
                "duration": 0.1886363636363626,
                "tempo": 120.0
            },
            {
                "start_time": 27.686363636363634,
                "end_time": 27.868181818181817,
                "pitch": 29,
                "velocity": 80,
                "duration": 0.18181818181818343,
                "tempo": 120.0
            },
            {
                "start_time": 27.884090909090908,
                "end_time": 28.063636363636363,
                "pitch": 29,
                "velocity": 80,
                "duration": 0.17954545454545467,
                "tempo": 120.0
            },
            {
                "start_time": 28.079545454545453,
                "end_time": 28.268181818181816,
                "pitch": 29,
                "velocity": 80,
                "duration": 0.1886363636363626,
                "tempo": 120.0
            },
            {
                "start_time": 28.284090909090907,
                "end_time": 28.472727272727273,
                "pitch": 29,
                "velocity": 80,
                "duration": 0.18863636363636616,
                "tempo": 120.0
            },
            {
                "start_time": 28.49090909090909,
                "end_time": 28.670454545454543,
                "pitch": 29,
                "velocity": 80,
                "duration": 0.17954545454545467,
                "tempo": 120.0
            },
            {
                "start_time": 28.686363636363634,
                "end_time": 28.86590909090909,
                "pitch": 29,
                "velocity": 80,
                "duration": 0.17954545454545467,
                "tempo": 120.0
            },
            {
                "start_time": 28.88181818181818,
                "end_time": 29.070454545454545,
                "pitch": 29,
                "velocity": 80,
                "duration": 0.18863636363636616,
                "tempo": 120.0
            },
            {
                "start_time": 29.086363636363636,
                "end_time": 29.275,
                "pitch": 29,
                "velocity": 80,
                "duration": 0.1886363636363626,
                "tempo": 120.0
            },
            {
                "start_time": 29.293181818181818,
                "end_time": 29.472727272727273,
                "pitch": 29,
                "velocity": 80,
                "duration": 0.17954545454545467,
                "tempo": 120.0
            },
            {
                "start_time": 29.488636363636363,
                "end_time": 29.668181818181818,
                "pitch": 29,
                "velocity": 80,
                "duration": 0.17954545454545467,
                "tempo": 120.0
            },
            {
                "start_time": 29.68409090909091,
                "end_time": 29.87272727272727,
                "pitch": 29,
                "velocity": 80,
                "duration": 0.1886363636363626,
                "tempo": 120.0
            },
            {
                "start_time": 29.89090909090909,
                "end_time": 30.077272727272724,
                "pitch": 29,
                "velocity": 80,
                "duration": 0.18636363636363384,
                "tempo": 120.0
            },
            {
                "start_time": 30.095454545454544,
                "end_time": 30.275,
                "pitch": 29,
                "velocity": 80,
                "duration": 0.17954545454545467,
                "tempo": 120.0
            },
            {
                "start_time": 30.29090909090909,
                "end_time": 30.470454545454544,
                "pitch": 29,
                "velocity": 80,
                "duration": 0.17954545454545467,
                "tempo": 120.0
            },
            {
                "start_time": 30.486363636363635,
                "end_time": 30.674999999999997,
                "pitch": 29,
                "velocity": 80,
                "duration": 0.1886363636363626,
                "tempo": 120.0
            },
            {
                "start_time": 30.693181818181817,
                "end_time": 30.88181818181818,
                "pitch": 29,
                "velocity": 80,
                "duration": 0.1886363636363626,
                "tempo": 120.0
            },
            {
                "start_time": 30.89772727272727,
                "end_time": 31.077272727272724,
                "pitch": 29,
                "velocity": 80,
                "duration": 0.17954545454545467,
                "tempo": 120.0
            },
            {
                "start_time": 31.093181818181815,
                "end_time": 31.27272727272727,
                "pitch": 29,
                "velocity": 80,
                "duration": 0.17954545454545467,
                "tempo": 120.0
            },
            {
                "start_time": 31.29090909090909,
                "end_time": 31.477272727272727,
                "pitch": 29,
                "velocity": 80,
                "duration": 0.1863636363636374,
                "tempo": 120.0
            },
            {
                "start_time": 31.495454545454542,
                "end_time": 31.68409090909091,
                "pitch": 29,
                "velocity": 80,
                "duration": 0.18863636363636616,
                "tempo": 120.0
            },
            {
                "start_time": 31.7,
                "end_time": 31.879545454545454,
                "pitch": 29,
                "velocity": 80,
                "duration": 0.17954545454545467,
                "tempo": 120.0
            },
            {
                "start_time": 31.89772727272727,
                "end_time": 32.07727272727273,
                "pitch": 29,
                "velocity": 80,
                "duration": 0.17954545454545823,
                "tempo": 120.0
            },
            {
                "start_time": 32.09318181818182,
                "end_time": 32.279545454545456,
                "pitch": 29,
                "velocity": 80,
                "duration": 0.1863636363636374,
                "tempo": 120.0
            },
            {
                "start_time": 32.29772727272727,
                "end_time": 32.486363636363635,
                "pitch": 29,
                "velocity": 80,
                "duration": 0.1886363636363626,
                "tempo": 120.0
            },
            {
                "start_time": 32.502272727272725,
                "end_time": 32.684090909090905,
                "pitch": 29,
                "velocity": 80,
                "duration": 0.18181818181817988,
                "tempo": 120.0
            },
            {
                "start_time": 32.699999999999996,
                "end_time": 32.87954545454545,
                "pitch": 29,
                "velocity": 80,
                "duration": 0.17954545454545467,
                "tempo": 120.0
            },
            {
                "start_time": 32.89545454545454,
                "end_time": 33.08409090909091,
                "pitch": 29,
                "velocity": 80,
                "duration": 0.1886363636363697,
                "tempo": 120.0
            },
            {
                "start_time": 33.1,
                "end_time": 33.288636363636364,
                "pitch": 29,
                "velocity": 80,
                "duration": 0.1886363636363626,
                "tempo": 120.0
            },
            {
                "start_time": 33.30681818181818,
                "end_time": 33.486363636363635,
                "pitch": 29,
                "velocity": 80,
                "duration": 0.17954545454545467,
                "tempo": 120.0
            },
            {
                "start_time": 33.502272727272725,
                "end_time": 33.68181818181818,
                "pitch": 29,
                "velocity": 80,
                "duration": 0.17954545454545467,
                "tempo": 120.0
            },
            {
                "start_time": 33.69772727272727,
                "end_time": 33.88636363636363,
                "pitch": 29,
                "velocity": 80,
                "duration": 0.1886363636363626,
                "tempo": 120.0
            },
            {
                "start_time": 33.902272727272724,
                "end_time": 34.090909090909086,
                "pitch": 29,
                "velocity": 80,
                "duration": 0.1886363636363626,
                "tempo": 120.0
            },
            {
                "start_time": 34.10909090909091,
                "end_time": 34.288636363636364,
                "pitch": 29,
                "velocity": 80,
                "duration": 0.17954545454545467,
                "tempo": 120.0
            },
            {
                "start_time": 34.304545454545455,
                "end_time": 34.48409090909091,
                "pitch": 29,
                "velocity": 80,
                "duration": 0.17954545454545467,
                "tempo": 120.0
            },
            {
                "start_time": 34.5,
                "end_time": 34.68863636363636,
                "pitch": 29,
                "velocity": 80,
                "duration": 0.1886363636363626,
                "tempo": 120.0
            },
            {
                "start_time": 34.70681818181818,
                "end_time": 34.893181818181816,
                "pitch": 29,
                "velocity": 80,
                "duration": 0.1863636363636374,
                "tempo": 120.0
            },
            {
                "start_time": 34.91136363636363,
                "end_time": 35.090909090909086,
                "pitch": 29,
                "velocity": 80,
                "duration": 0.17954545454545467,
                "tempo": 120.0
            },
            {
                "start_time": 35.10681818181818,
                "end_time": 35.28636363636363,
                "pitch": 29,
                "velocity": 80,
                "duration": 0.17954545454545467,
                "tempo": 120.0
            },
            {
                "start_time": 35.30227272727272,
                "end_time": 35.49090909090909,
                "pitch": 29,
                "velocity": 80,
                "duration": 0.1886363636363697,
                "tempo": 120.0
            },
            {
                "start_time": 35.50909090909091,
                "end_time": 35.69772727272727,
                "pitch": 29,
                "velocity": 80,
                "duration": 0.1886363636363626,
                "tempo": 120.0
            },
            {
                "start_time": 35.71363636363636,
                "end_time": 35.893181818181816,
                "pitch": 29,
                "velocity": 80,
                "duration": 0.17954545454545467,
                "tempo": 120.0
            },
            {
                "start_time": 35.90909090909091,
                "end_time": 36.08863636363636,
                "pitch": 29,
                "velocity": 80,
                "duration": 0.17954545454545467,
                "tempo": 120.0
            },
            {
                "start_time": 36.10681818181818,
                "end_time": 36.293181818181814,
                "pitch": 29,
                "velocity": 80,
                "duration": 0.1863636363636374,
                "tempo": 120.0
            },
            {
                "start_time": 36.31136363636364,
                "end_time": 36.5,
                "pitch": 29,
                "velocity": 80,
                "duration": 0.1886363636363626,
                "tempo": 120.0
            },
            {
                "start_time": 36.51590909090909,
                "end_time": 36.695454545454545,
                "pitch": 29,
                "velocity": 80,
                "duration": 0.17954545454545467,
                "tempo": 120.0
            },
            {
                "start_time": 36.71363636363636,
                "end_time": 36.893181818181816,
                "pitch": 29,
                "velocity": 80,
                "duration": 0.17954545454545467,
                "tempo": 120.0
            },
            {
                "start_time": 36.90909090909091,
                "end_time": 37.095454545454544,
                "pitch": 29,
                "velocity": 80,
                "duration": 0.1863636363636374,
                "tempo": 120.0
            },
            {
                "start_time": 37.11363636363636,
                "end_time": 37.30227272727272,
                "pitch": 29,
                "velocity": 80,
                "duration": 0.1886363636363626,
                "tempo": 120.0
            },
            {
                "start_time": 37.31818181818181,
                "end_time": 37.49772727272727,
                "pitch": 29,
                "velocity": 80,
                "duration": 0.17954545454545467,
                "tempo": 120.0
            },
            {
                "start_time": 37.51590909090909,
                "end_time": 37.695454545454545,
                "pitch": 29,
                "velocity": 80,
                "duration": 0.17954545454545467,
                "tempo": 120.0
            },
            {
                "start_time": 37.711363636363636,
                "end_time": 37.9,
                "pitch": 36,
                "velocity": 80,
                "duration": 0.1886363636363626,
                "tempo": 120.0
            },
            {
                "start_time": 37.91590909090909,
                "end_time": 38.10454545454545,
                "pitch": 36,
                "velocity": 80,
                "duration": 0.1886363636363626,
                "tempo": 120.0
            },
            {
                "start_time": 38.12272727272727,
                "end_time": 38.30227272727272,
                "pitch": 35,
                "velocity": 80,
                "duration": 0.17954545454545467,
                "tempo": 120.0
            },
            {
                "start_time": 38.31818181818181,
                "end_time": 38.49772727272727,
                "pitch": 36,
                "velocity": 80,
                "duration": 0.17954545454545467,
                "tempo": 120.0
            },
            {
                "start_time": 38.51363636363636,
                "end_time": 38.70227272727273,
                "pitch": 37,
                "velocity": 80,
                "duration": 0.1886363636363697,
                "tempo": 120.0
            },
            {
                "start_time": 38.71818181818182,
                "end_time": 38.90681818181818,
                "pitch": 38,
                "velocity": 80,
                "duration": 0.1886363636363626,
                "tempo": 120.0
            },
            {
                "start_time": 38.925,
                "end_time": 39.10454545454545,
                "pitch": 39,
                "velocity": 80,
                "duration": 0.17954545454545467,
                "tempo": 120.0
            },
            {
                "start_time": 39.12045454545454,
                "end_time": 39.3,
                "pitch": 40,
                "velocity": 80,
                "duration": 0.17954545454545467,
                "tempo": 120.0
            },
            {
                "start_time": 39.31590909090909,
                "end_time": 39.50454545454545,
                "pitch": 33,
                "velocity": 80,
                "duration": 0.1886363636363626,
                "tempo": 120.0
            },
            {
                "start_time": 39.52045454545454,
                "end_time": 39.709090909090904,
                "pitch": 33,
                "velocity": 80,
                "duration": 0.1886363636363626,
                "tempo": 120.0
            },
            {
                "start_time": 39.72727272727273,
                "end_time": 39.90681818181818,
                "pitch": 33,
                "velocity": 80,
                "duration": 0.17954545454545467,
                "tempo": 120.0
            },
            {
                "start_time": 39.92272727272727,
                "end_time": 40.10227272727273,
                "pitch": 33,
                "velocity": 80,
                "duration": 0.17954545454545467,
                "tempo": 120.0
            },
            {
                "start_time": 40.11818181818182,
                "end_time": 40.30681818181818,
                "pitch": 33,
                "velocity": 80,
                "duration": 0.1886363636363626,
                "tempo": 120.0
            },
            {
                "start_time": 40.324999999999996,
                "end_time": 40.51363636363636,
                "pitch": 33,
                "velocity": 80,
                "duration": 0.1886363636363626,
                "tempo": 120.0
            },
            {
                "start_time": 40.529545454545456,
                "end_time": 40.709090909090904,
                "pitch": 33,
                "velocity": 80,
                "duration": 0.17954545454544757,
                "tempo": 120.0
            },
            {
                "start_time": 40.725,
                "end_time": 40.904545454545456,
                "pitch": 33,
                "velocity": 80,
                "duration": 0.17954545454545467,
                "tempo": 120.0
            },
            {
                "start_time": 40.92272727272727,
                "end_time": 41.10909090909091,
                "pitch": 33,
                "velocity": 80,
                "duration": 0.1863636363636374,
                "tempo": 120.0
            },
            {
                "start_time": 41.127272727272725,
                "end_time": 41.31590909090909,
                "pitch": 33,
                "velocity": 80,
                "duration": 0.1886363636363626,
                "tempo": 120.0
            },
            {
                "start_time": 41.33181818181818,
                "end_time": 41.51136363636363,
                "pitch": 33,
                "velocity": 80,
                "duration": 0.17954545454545467,
                "tempo": 120.0
            },
            {
                "start_time": 41.52954545454545,
                "end_time": 41.90681818181818,
                "pitch": 36,
                "velocity": 80,
                "duration": 0.3772727272727323,
                "tempo": 120.0
            },
            {
                "start_time": 41.925,
                "end_time": 42.10681818181818,
                "pitch": 36,
                "velocity": 80,
                "duration": 0.18181818181817988,
                "tempo": 120.0
            },
            {
                "start_time": 42.125,
                "end_time": 42.30681818181818,
                "pitch": 35,
                "velocity": 80,
                "duration": 0.18181818181817988,
                "tempo": 120.0
            },
            {
                "start_time": 42.324999999999996,
                "end_time": 42.50681818181818,
                "pitch": 35,
                "velocity": 80,
                "duration": 0.18181818181818699,
                "tempo": 120.0
            },
            {
                "start_time": 42.525,
                "end_time": 42.71363636363636,
                "pitch": 33,
                "velocity": 80,
                "duration": 0.1886363636363626,
                "tempo": 120.0
            },
            {
                "start_time": 42.72954545454545,
                "end_time": 42.918181818181814,
                "pitch": 33,
                "velocity": 80,
                "duration": 0.1886363636363626,
                "tempo": 120.0
            },
            {
                "start_time": 42.934090909090905,
                "end_time": 43.11590909090909,
                "pitch": 33,
                "velocity": 80,
                "duration": 0.18181818181818699,
                "tempo": 120.0
            },
            {
                "start_time": 43.13181818181818,
                "end_time": 43.31136363636364,
                "pitch": 33,
                "velocity": 80,
                "duration": 0.17954545454545467,
                "tempo": 120.0
            },
            {
                "start_time": 43.32727272727273,
                "end_time": 43.51590909090909,
                "pitch": 33,
                "velocity": 80,
                "duration": 0.1886363636363626,
                "tempo": 120.0
            },
            {
                "start_time": 43.53181818181818,
                "end_time": 43.720454545454544,
                "pitch": 33,
                "velocity": 80,
                "duration": 0.1886363636363626,
                "tempo": 120.0
            },
            {
                "start_time": 43.73863636363636,
                "end_time": 43.918181818181814,
                "pitch": 33,
                "velocity": 80,
                "duration": 0.17954545454545467,
                "tempo": 120.0
            },
            {
                "start_time": 43.934090909090905,
                "end_time": 44.11363636363636,
                "pitch": 33,
                "velocity": 80,
                "duration": 0.17954545454545467,
                "tempo": 120.0
            },
            {
                "start_time": 44.12954545454545,
                "end_time": 44.31818181818181,
                "pitch": 33,
                "velocity": 80,
                "duration": 0.1886363636363626,
                "tempo": 120.0
            },
            {
                "start_time": 44.334090909090904,
                "end_time": 44.52272727272727,
                "pitch": 33,
                "velocity": 80,
                "duration": 0.1886363636363697,
                "tempo": 120.0
            },
            {
                "start_time": 44.54090909090909,
                "end_time": 44.720454545454544,
                "pitch": 33,
                "velocity": 80,
                "duration": 0.17954545454545467,
                "tempo": 120.0
            },
            {
                "start_time": 44.736363636363635,
                "end_time": 45.11590909090909,
                "pitch": 38,
                "velocity": 80,
                "duration": 0.3795454545454575,
                "tempo": 120.0
            },
            {
                "start_time": 45.13181818181818,
                "end_time": 45.31590909090909,
                "pitch": 38,
                "velocity": 80,
                "duration": 0.18409090909090509,
                "tempo": 120.0
            },
            {
                "start_time": 45.33181818181818,
                "end_time": 45.518181818181816,
                "pitch": 40,
                "velocity": 80,
                "duration": 0.1863636363636374,
                "tempo": 120.0
            },
            {
                "start_time": 45.53409090909091,
                "end_time": 45.71818181818182,
                "pitch": 40,
                "velocity": 80,
                "duration": 0.1840909090909122,
                "tempo": 120.0
            },
            {
                "start_time": 45.736363636363635,
                "end_time": 45.92272727272727,
                "pitch": 33,
                "velocity": 80,
                "duration": 0.1863636363636374,
                "tempo": 120.0
            },
            {
                "start_time": 45.94090909090909,
                "end_time": 46.12954545454545,
                "pitch": 33,
                "velocity": 80,
                "duration": 0.1886363636363626,
                "tempo": 120.0
            },
            {
                "start_time": 46.14545454545454,
                "end_time": 46.324999999999996,
                "pitch": 33,
                "velocity": 80,
                "duration": 0.17954545454545467,
                "tempo": 120.0
            },
            {
                "start_time": 46.34318181818182,
                "end_time": 46.52272727272727,
                "pitch": 33,
                "velocity": 80,
                "duration": 0.17954545454545467,
                "tempo": 120.0
            },
            {
                "start_time": 46.538636363636364,
                "end_time": 46.724999999999994,
                "pitch": 33,
                "velocity": 80,
                "duration": 0.1863636363636303,
                "tempo": 120.0
            },
            {
                "start_time": 46.74318181818182,
                "end_time": 46.93181818181818,
                "pitch": 33,
                "velocity": 80,
                "duration": 0.1886363636363626,
                "tempo": 120.0
            },
            {
                "start_time": 46.94772727272727,
                "end_time": 47.12954545454545,
                "pitch": 33,
                "velocity": 80,
                "duration": 0.18181818181817988,
                "tempo": 120.0
            },
            {
                "start_time": 47.14545454545454,
                "end_time": 47.324999999999996,
                "pitch": 33,
                "velocity": 80,
                "duration": 0.17954545454545467,
                "tempo": 120.0
            },
            {
                "start_time": 47.340909090909086,
                "end_time": 47.52954545454545,
                "pitch": 33,
                "velocity": 80,
                "duration": 0.1886363636363626,
                "tempo": 120.0
            },
            {
                "start_time": 47.54545454545454,
                "end_time": 47.73409090909091,
                "pitch": 33,
                "velocity": 80,
                "duration": 0.1886363636363697,
                "tempo": 120.0
            },
            {
                "start_time": 47.752272727272725,
                "end_time": 47.93181818181818,
                "pitch": 33,
                "velocity": 80,
                "duration": 0.17954545454545467,
                "tempo": 120.0
            },
            {
                "start_time": 47.94772727272727,
                "end_time": 48.32727272727273,
                "pitch": 36,
                "velocity": 80,
                "duration": 0.3795454545454575,
                "tempo": 120.0
            },
            {
                "start_time": 48.34318181818182,
                "end_time": 48.527272727272724,
                "pitch": 36,
                "velocity": 80,
                "duration": 0.18409090909090509,
                "tempo": 120.0
            },
            {
                "start_time": 48.543181818181814,
                "end_time": 48.72727272727273,
                "pitch": 35,
                "velocity": 80,
                "duration": 0.1840909090909122,
                "tempo": 120.0
            },
            {
                "start_time": 48.74318181818182,
                "end_time": 48.92727272727272,
                "pitch": 35,
                "velocity": 80,
                "duration": 0.18409090909090509,
                "tempo": 120.0
            },
            {
                "start_time": 48.94318181818181,
                "end_time": 49.13181818181818,
                "pitch": 33,
                "velocity": 80,
                "duration": 0.1886363636363697,
                "tempo": 120.0
            },
            {
                "start_time": 49.14772727272727,
                "end_time": 49.336363636363636,
                "pitch": 33,
                "velocity": 80,
                "duration": 0.1886363636363626,
                "tempo": 120.0
            },
            {
                "start_time": 49.35454545454545,
                "end_time": 49.53409090909091,
                "pitch": 33,
                "velocity": 80,
                "duration": 0.17954545454545467,
                "tempo": 120.0
            },
            {
                "start_time": 49.55,
                "end_time": 49.72954545454545,
                "pitch": 33,
                "velocity": 80,
                "duration": 0.17954545454545467,
                "tempo": 120.0
            },
            {
                "start_time": 49.74545454545454,
                "end_time": 49.934090909090905,
                "pitch": 33,
                "velocity": 80,
                "duration": 0.1886363636363626,
                "tempo": 120.0
            },
            {
                "start_time": 49.95227272727273,
                "end_time": 50.13863636363636,
                "pitch": 33,
                "velocity": 80,
                "duration": 0.1863636363636303,
                "tempo": 120.0
            },
            {
                "start_time": 50.15681818181818,
                "end_time": 50.336363636363636,
                "pitch": 33,
                "velocity": 80,
                "duration": 0.17954545454545467,
                "tempo": 120.0
            },
            {
                "start_time": 50.35227272727273,
                "end_time": 50.53181818181818,
                "pitch": 33,
                "velocity": 80,
                "duration": 0.17954545454545467,
                "tempo": 120.0
            },
            {
                "start_time": 50.55,
                "end_time": 50.736363636363635,
                "pitch": 33,
                "velocity": 80,
                "duration": 0.1863636363636374,
                "tempo": 120.0
            },
            {
                "start_time": 50.75454545454545,
                "end_time": 50.94318181818181,
                "pitch": 33,
                "velocity": 80,
                "duration": 0.1886363636363626,
                "tempo": 120.0
            },
            {
                "start_time": 50.959090909090904,
                "end_time": 51.143181818181816,
                "pitch": 33,
                "velocity": 80,
                "duration": 0.1840909090909122,
                "tempo": 120.0
            },
            {
                "start_time": 51.16136363636363,
                "end_time": 51.345454545454544,
                "pitch": 36,
                "velocity": 80,
                "duration": 0.1840909090909122,
                "tempo": 120.0
            },
            {
                "start_time": 51.361363636363635,
                "end_time": 51.543181818181814,
                "pitch": 38,
                "velocity": 80,
                "duration": 0.18181818181817988,
                "tempo": 120.0
            },
            {
                "start_time": 51.559090909090905,
                "end_time": 51.73863636363636,
                "pitch": 40,
                "velocity": 80,
                "duration": 0.17954545454545467,
                "tempo": 120.0
            },
            {
                "start_time": 51.75454545454545,
                "end_time": 51.93863636363636,
                "pitch": 43,
                "velocity": 80,
                "duration": 0.1840909090909122,
                "tempo": 120.0
            },
            {
                "start_time": 51.95454545454545,
                "end_time": 52.13863636363636,
                "pitch": 45,
                "velocity": 80,
                "duration": 0.18409090909090509,
                "tempo": 120.0
            },
            {
                "start_time": 52.15454545454545,
                "end_time": 52.34318181818182,
                "pitch": 33,
                "velocity": 80,
                "duration": 0.1886363636363697,
                "tempo": 120.0
            },
            {
                "start_time": 52.35909090909091,
                "end_time": 52.54772727272727,
                "pitch": 33,
                "velocity": 80,
                "duration": 0.1886363636363626,
                "tempo": 120.0
            },
            {
                "start_time": 52.56590909090909,
                "end_time": 52.74545454545454,
                "pitch": 33,
                "velocity": 80,
                "duration": 0.17954545454545467,
                "tempo": 120.0
            },
            {
                "start_time": 52.76136363636363,
                "end_time": 52.94090909090909,
                "pitch": 33,
                "velocity": 80,
                "duration": 0.17954545454545467,
                "tempo": 120.0
            },
            {
                "start_time": 52.95681818181818,
                "end_time": 53.14545454545454,
                "pitch": 33,
                "velocity": 80,
                "duration": 0.1886363636363626,
                "tempo": 120.0
            },
            {
                "start_time": 53.16136363636363,
                "end_time": 53.349999999999994,
                "pitch": 33,
                "velocity": 80,
                "duration": 0.1886363636363626,
                "tempo": 120.0
            },
            {
                "start_time": 53.36818181818182,
                "end_time": 53.54772727272727,
                "pitch": 33,
                "velocity": 80,
                "duration": 0.17954545454545467,
                "tempo": 120.0
            },
            {
                "start_time": 53.56363636363636,
                "end_time": 53.74318181818182,
                "pitch": 33,
                "velocity": 80,
                "duration": 0.17954545454545467,
                "tempo": 120.0
            },
            {
                "start_time": 53.75909090909091,
                "end_time": 53.94772727272727,
                "pitch": 33,
                "velocity": 80,
                "duration": 0.1886363636363626,
                "tempo": 120.0
            },
            {
                "start_time": 53.965909090909086,
                "end_time": 54.152272727272724,
                "pitch": 33,
                "velocity": 80,
                "duration": 0.1863636363636374,
                "tempo": 120.0
            },
            {
                "start_time": 54.17045454545454,
                "end_time": 54.349999999999994,
                "pitch": 33,
                "velocity": 80,
                "duration": 0.17954545454545467,
                "tempo": 120.0
            },
            {
                "start_time": 54.365909090909085,
                "end_time": 54.74545454545454,
                "pitch": 36,
                "velocity": 80,
                "duration": 0.3795454545454575,
                "tempo": 120.0
            },
            {
                "start_time": 54.76363636363636,
                "end_time": 54.945454545454545,
                "pitch": 36,
                "velocity": 80,
                "duration": 0.18181818181818699,
                "tempo": 120.0
            },
            {
                "start_time": 54.96363636363636,
                "end_time": 55.14545454545454,
                "pitch": 35,
                "velocity": 80,
                "duration": 0.18181818181817988,
                "tempo": 120.0
            },
            {
                "start_time": 55.163636363636364,
                "end_time": 55.345454545454544,
                "pitch": 35,
                "velocity": 80,
                "duration": 0.18181818181817988,
                "tempo": 120.0
            },
            {
                "start_time": 55.36363636363636,
                "end_time": 55.55,
                "pitch": 33,
                "velocity": 80,
                "duration": 0.1863636363636374,
                "tempo": 120.0
            },
            {
                "start_time": 55.56818181818181,
                "end_time": 55.756818181818176,
                "pitch": 33,
                "velocity": 80,
                "duration": 0.1886363636363626,
                "tempo": 120.0
            },
            {
                "start_time": 55.77272727272727,
                "end_time": 55.95227272727273,
                "pitch": 33,
                "velocity": 80,
                "duration": 0.17954545454545467,
                "tempo": 120.0
            },
            {
                "start_time": 55.970454545454544,
                "end_time": 56.15,
                "pitch": 33,
                "velocity": 80,
                "duration": 0.17954545454545467,
                "tempo": 120.0
            },
            {
                "start_time": 56.16590909090909,
                "end_time": 56.35454545454545,
                "pitch": 33,
                "velocity": 80,
                "duration": 0.1886363636363626,
                "tempo": 120.0
            },
            {
                "start_time": 56.37045454545454,
                "end_time": 56.559090909090905,
                "pitch": 33,
                "velocity": 80,
                "duration": 0.1886363636363626,
                "tempo": 120.0
            },
            {
                "start_time": 56.574999999999996,
                "end_time": 56.756818181818176,
                "pitch": 33,
                "velocity": 80,
                "duration": 0.18181818181817988,
                "tempo": 120.0
            },
            {
                "start_time": 56.77272727272727,
                "end_time": 56.95227272727273,
                "pitch": 33,
                "velocity": 80,
                "duration": 0.17954545454545467,
                "tempo": 120.0
            },
            {
                "start_time": 56.96818181818182,
                "end_time": 57.15681818181818,
                "pitch": 33,
                "velocity": 80,
                "duration": 0.1886363636363626,
                "tempo": 120.0
            },
            {
                "start_time": 57.17272727272727,
                "end_time": 57.361363636363635,
                "pitch": 33,
                "velocity": 80,
                "duration": 0.1886363636363626,
                "tempo": 120.0
            },
            {
                "start_time": 57.37954545454545,
                "end_time": 57.559090909090905,
                "pitch": 33,
                "velocity": 80,
                "duration": 0.17954545454545467,
                "tempo": 120.0
            },
            {
                "start_time": 57.574999999999996,
                "end_time": 57.95454545454545,
                "pitch": 38,
                "velocity": 80,
                "duration": 0.3795454545454575,
                "tempo": 120.0
            },
            {
                "start_time": 57.970454545454544,
                "end_time": 58.15454545454545,
                "pitch": 38,
                "velocity": 80,
                "duration": 0.18409090909090509,
                "tempo": 120.0
            },
            {
                "start_time": 58.17045454545454,
                "end_time": 58.35454545454545,
                "pitch": 40,
                "velocity": 80,
                "duration": 0.1840909090909122,
                "tempo": 120.0
            },
            {
                "start_time": 58.37045454545454,
                "end_time": 58.554545454545455,
                "pitch": 40,
                "velocity": 80,
                "duration": 0.1840909090909122,
                "tempo": 120.0
            },
            {
                "start_time": 58.570454545454545,
                "end_time": 58.75909090909091,
                "pitch": 33,
                "velocity": 80,
                "duration": 0.1886363636363626,
                "tempo": 120.0
            },
            {
                "start_time": 58.775,
                "end_time": 58.96363636363636,
                "pitch": 33,
                "velocity": 80,
                "duration": 0.1886363636363626,
                "tempo": 120.0
            },
            {
                "start_time": 58.98181818181818,
                "end_time": 59.16136363636363,
                "pitch": 33,
                "velocity": 80,
                "duration": 0.17954545454545467,
                "tempo": 120.0
            },
            {
                "start_time": 59.17727272727272,
                "end_time": 59.35681818181818,
                "pitch": 33,
                "velocity": 80,
                "duration": 0.17954545454545467,
                "tempo": 120.0
            },
            {
                "start_time": 59.37272727272727,
                "end_time": 59.56136363636363,
                "pitch": 33,
                "velocity": 80,
                "duration": 0.1886363636363626,
                "tempo": 120.0
            },
            {
                "start_time": 59.57954545454545,
                "end_time": 59.76590909090909,
                "pitch": 33,
                "velocity": 80,
                "duration": 0.1863636363636374,
                "tempo": 120.0
            },
            {
                "start_time": 59.78409090909091,
                "end_time": 59.96363636363636,
                "pitch": 33,
                "velocity": 80,
                "duration": 0.17954545454545467,
                "tempo": 120.0
            },
            {
                "start_time": 59.97954545454545,
                "end_time": 60.15909090909091,
                "pitch": 33,
                "velocity": 80,
                "duration": 0.17954545454545467,
                "tempo": 120.0
            },
            {
                "start_time": 60.17727272727272,
                "end_time": 60.36363636363636,
                "pitch": 33,
                "velocity": 80,
                "duration": 0.1863636363636374,
                "tempo": 120.0
            },
            {
                "start_time": 60.381818181818176,
                "end_time": 60.570454545454545,
                "pitch": 33,
                "velocity": 80,
                "duration": 0.1886363636363697,
                "tempo": 120.0
            },
            {
                "start_time": 60.586363636363636,
                "end_time": 60.76590909090909,
                "pitch": 33,
                "velocity": 80,
                "duration": 0.17954545454545467,
                "tempo": 120.0
            },
            {
                "start_time": 60.78181818181818,
                "end_time": 61.16136363636363,
                "pitch": 36,
                "velocity": 80,
                "duration": 0.3795454545454504,
                "tempo": 120.0
            },
            {
                "start_time": 61.179545454545455,
                "end_time": 61.361363636363635,
                "pitch": 36,
                "velocity": 80,
                "duration": 0.18181818181817988,
                "tempo": 120.0
            },
            {
                "start_time": 61.37954545454545,
                "end_time": 61.56363636363636,
                "pitch": 35,
                "velocity": 80,
                "duration": 0.1840909090909122,
                "tempo": 120.0
            },
            {
                "start_time": 61.57954545454545,
                "end_time": 61.76590909090909,
                "pitch": 35,
                "velocity": 80,
                "duration": 0.1863636363636374,
                "tempo": 120.0
            },
            {
                "start_time": 61.78181818181818,
                "end_time": 61.970454545454544,
                "pitch": 33,
                "velocity": 80,
                "duration": 0.1886363636363626,
                "tempo": 120.0
            },
            {
                "start_time": 61.986363636363635,
                "end_time": 62.175,
                "pitch": 33,
                "velocity": 80,
                "duration": 0.1886363636363626,
                "tempo": 120.0
            },
            {
                "start_time": 62.19318181818181,
                "end_time": 62.37272727272727,
                "pitch": 33,
                "velocity": 80,
                "duration": 0.17954545454545467,
                "tempo": 120.0
            },
            {
                "start_time": 62.38863636363636,
                "end_time": 62.56818181818181,
                "pitch": 33,
                "velocity": 80,
                "duration": 0.17954545454545467,
                "tempo": 120.0
            },
            {
                "start_time": 62.584090909090904,
                "end_time": 62.772727272727266,
                "pitch": 33,
                "velocity": 80,
                "duration": 0.1886363636363626,
                "tempo": 120.0
            },
            {
                "start_time": 62.788636363636364,
                "end_time": 62.97727272727273,
                "pitch": 33,
                "velocity": 80,
                "duration": 0.1886363636363626,
                "tempo": 120.0
            },
            {
                "start_time": 62.99545454545454,
                "end_time": 63.175,
                "pitch": 33,
                "velocity": 80,
                "duration": 0.17954545454545467,
                "tempo": 120.0
            },
            {
                "start_time": 63.19090909090909,
                "end_time": 63.37045454545454,
                "pitch": 33,
                "velocity": 80,
                "duration": 0.17954545454545467,
                "tempo": 120.0
            },
            {
                "start_time": 63.38636363636363,
                "end_time": 63.574999999999996,
                "pitch": 33,
                "velocity": 80,
                "duration": 0.1886363636363626,
                "tempo": 120.0
            },
            {
                "start_time": 63.59318181818181,
                "end_time": 63.77954545454545,
                "pitch": 33,
                "velocity": 80,
                "duration": 0.1863636363636374,
                "tempo": 120.0
            },
            {
                "start_time": 63.79772727272727,
                "end_time": 63.98181818181818,
                "pitch": 33,
                "velocity": 80,
                "duration": 0.18409090909090509,
                "tempo": 120.0
            },
            {
                "start_time": 63.99772727272727,
                "end_time": 64.18181818181817,
                "pitch": 36,
                "velocity": 80,
                "duration": 0.18409090909090509,
                "tempo": 120.0
            },
            {
                "start_time": 64.19772727272726,
                "end_time": 64.38181818181818,
                "pitch": 38,
                "velocity": 80,
                "duration": 0.1840909090909122,
                "tempo": 120.0
            },
            {
                "start_time": 64.39999999999999,
                "end_time": 64.5840909090909,
                "pitch": 40,
                "velocity": 80,
                "duration": 0.1840909090909122,
                "tempo": 120.0
            },
            {
                "start_time": 64.6,
                "end_time": 64.77954545454546,
                "pitch": 43,
                "velocity": 80,
                "duration": 0.17954545454546178,
                "tempo": 120.0
            },
            {
                "start_time": 64.79772727272727,
                "end_time": 64.97727272727272,
                "pitch": 45,
                "velocity": 80,
                "duration": 0.17954545454544757,
                "tempo": 120.0
            },
            {
                "start_time": 64.99318181818181,
                "end_time": 65.17954545454545,
                "pitch": 29,
                "velocity": 80,
                "duration": 0.1863636363636374,
                "tempo": 120.0
            },
            {
                "start_time": 65.19772727272726,
                "end_time": 65.38636363636364,
                "pitch": 29,
                "velocity": 80,
                "duration": 0.1886363636363768,
                "tempo": 120.0
            },
            {
                "start_time": 65.40227272727273,
                "end_time": 65.5840909090909,
                "pitch": 29,
                "velocity": 80,
                "duration": 0.18181818181817277,
                "tempo": 120.0
            },
            {
                "start_time": 65.6,
                "end_time": 65.77954545454546,
                "pitch": 29,
                "velocity": 80,
                "duration": 0.17954545454546178,
                "tempo": 120.0
            },
            {
                "start_time": 65.79545454545455,
                "end_time": 65.98409090909091,
                "pitch": 29,
                "velocity": 80,
                "duration": 0.1886363636363626,
                "tempo": 120.0
            },
            {
                "start_time": 66.0,
                "end_time": 66.18863636363636,
                "pitch": 29,
                "velocity": 80,
                "duration": 0.1886363636363626,
                "tempo": 120.0
            },
            {
                "start_time": 66.20681818181818,
                "end_time": 66.38636363636364,
                "pitch": 29,
                "velocity": 80,
                "duration": 0.17954545454546178,
                "tempo": 120.0
            },
            {
                "start_time": 66.40227272727273,
                "end_time": 66.58181818181818,
                "pitch": 29,
                "velocity": 80,
                "duration": 0.17954545454544757,
                "tempo": 120.0
            },
            {
                "start_time": 66.59772727272727,
                "end_time": 66.78636363636363,
                "pitch": 29,
                "velocity": 80,
                "duration": 0.1886363636363626,
                "tempo": 120.0
            },
            {
                "start_time": 66.80227272727272,
                "end_time": 66.99090909090908,
                "pitch": 29,
                "velocity": 80,
                "duration": 0.1886363636363626,
                "tempo": 120.0
            },
            {
                "start_time": 67.0090909090909,
                "end_time": 67.18863636363636,
                "pitch": 29,
                "velocity": 80,
                "duration": 0.17954545454546178,
                "tempo": 120.0
            },
            {
                "start_time": 67.20454545454545,
                "end_time": 67.3840909090909,
                "pitch": 29,
                "velocity": 80,
                "duration": 0.17954545454544757,
                "tempo": 120.0
            },
            {
                "start_time": 67.39999999999999,
                "end_time": 67.58863636363635,
                "pitch": 29,
                "velocity": 80,
                "duration": 0.1886363636363626,
                "tempo": 120.0
            },
            {
                "start_time": 67.60454545454544,
                "end_time": 67.79318181818182,
                "pitch": 29,
                "velocity": 80,
                "duration": 0.1886363636363768,
                "tempo": 120.0
            },
            {
                "start_time": 67.81136363636364,
                "end_time": 67.99090909090908,
                "pitch": 29,
                "velocity": 80,
                "duration": 0.17954545454544757,
                "tempo": 120.0
            },
            {
                "start_time": 68.00681818181818,
                "end_time": 68.18636363636364,
                "pitch": 29,
                "velocity": 80,
                "duration": 0.17954545454546178,
                "tempo": 120.0
            },
            {
                "start_time": 68.20227272727273,
                "end_time": 68.39090909090909,
                "pitch": 29,
                "velocity": 80,
                "duration": 0.1886363636363626,
                "tempo": 120.0
            },
            {
                "start_time": 68.4090909090909,
                "end_time": 68.59772727272727,
                "pitch": 29,
                "velocity": 80,
                "duration": 0.1886363636363626,
                "tempo": 120.0
            },
            {
                "start_time": 68.61363636363636,
                "end_time": 68.79318181818182,
                "pitch": 29,
                "velocity": 80,
                "duration": 0.17954545454546178,
                "tempo": 120.0
            },
            {
                "start_time": 68.80909090909091,
                "end_time": 68.98863636363636,
                "pitch": 29,
                "velocity": 80,
                "duration": 0.17954545454544757,
                "tempo": 120.0
            },
            {
                "start_time": 69.00681818181818,
                "end_time": 69.19318181818181,
                "pitch": 29,
                "velocity": 80,
                "duration": 0.1863636363636374,
                "tempo": 120.0
            },
            {
                "start_time": 69.21136363636363,
                "end_time": 69.39999999999999,
                "pitch": 29,
                "velocity": 80,
                "duration": 0.1886363636363626,
                "tempo": 120.0
            },
            {
                "start_time": 69.41590909090908,
                "end_time": 69.59545454545454,
                "pitch": 29,
                "velocity": 80,
                "duration": 0.17954545454546178,
                "tempo": 120.0
            },
            {
                "start_time": 69.61363636363636,
                "end_time": 69.79318181818182,
                "pitch": 29,
                "velocity": 80,
                "duration": 0.17954545454546178,
                "tempo": 120.0
            },
            {
                "start_time": 69.80909090909091,
                "end_time": 69.99545454545454,
                "pitch": 29,
                "velocity": 80,
                "duration": 0.1863636363636232,
                "tempo": 120.0
            },
            {
                "start_time": 70.01363636363637,
                "end_time": 70.20227272727273,
                "pitch": 29,
                "velocity": 80,
                "duration": 0.1886363636363626,
                "tempo": 120.0
            },
            {
                "start_time": 70.21818181818182,
                "end_time": 70.39772727272727,
                "pitch": 29,
                "velocity": 80,
                "duration": 0.17954545454544757,
                "tempo": 120.0
            },
            {
                "start_time": 70.41590909090908,
                "end_time": 70.59545454545454,
                "pitch": 29,
                "velocity": 80,
                "duration": 0.17954545454546178,
                "tempo": 120.0
            },
            {
                "start_time": 70.61136363636363,
                "end_time": 70.8,
                "pitch": 29,
                "velocity": 80,
                "duration": 0.1886363636363626,
                "tempo": 120.0
            },
            {
                "start_time": 70.81590909090909,
                "end_time": 71.00454545454545,
                "pitch": 29,
                "velocity": 80,
                "duration": 0.1886363636363626,
                "tempo": 120.0
            },
            {
                "start_time": 71.02272727272727,
                "end_time": 71.20227272727273,
                "pitch": 29,
                "velocity": 80,
                "duration": 0.17954545454546178,
                "tempo": 120.0
            },
            {
                "start_time": 71.21818181818182,
                "end_time": 71.39772727272727,
                "pitch": 29,
                "velocity": 80,
                "duration": 0.17954545454544757,
                "tempo": 120.0
            },
            {
                "start_time": 71.41363636363636,
                "end_time": 71.60227272727272,
                "pitch": 29,
                "velocity": 80,
                "duration": 0.1886363636363626,
                "tempo": 120.0
            },
            {
                "start_time": 71.61818181818181,
                "end_time": 71.80681818181817,
                "pitch": 29,
                "velocity": 80,
                "duration": 0.1886363636363626,
                "tempo": 120.0
            },
            {
                "start_time": 71.825,
                "end_time": 72.00454545454545,
                "pitch": 29,
                "velocity": 80,
                "duration": 0.17954545454544757,
                "tempo": 120.0
            },
            {
                "start_time": 72.02045454545454,
                "end_time": 72.2,
                "pitch": 29,
                "velocity": 80,
                "duration": 0.17954545454546178,
                "tempo": 120.0
            },
            {
                "start_time": 72.2159090909091,
                "end_time": 72.40454545454546,
                "pitch": 29,
                "velocity": 80,
                "duration": 0.1886363636363626,
                "tempo": 120.0
            },
            {
                "start_time": 72.42045454545455,
                "end_time": 72.60909090909091,
                "pitch": 29,
                "velocity": 80,
                "duration": 0.1886363636363626,
                "tempo": 120.0
            },
            {
                "start_time": 72.62727272727273,
                "end_time": 72.80681818181817,
                "pitch": 29,
                "velocity": 80,
                "duration": 0.17954545454544757,
                "tempo": 120.0
            },
            {
                "start_time": 72.82272727272726,
                "end_time": 73.00227272727273,
                "pitch": 29,
                "velocity": 80,
                "duration": 0.17954545454546178,
                "tempo": 120.0
            },
            {
                "start_time": 73.01818181818182,
                "end_time": 73.20681818181818,
                "pitch": 29,
                "velocity": 80,
                "duration": 0.1886363636363626,
                "tempo": 120.0
            },
            {
                "start_time": 73.225,
                "end_time": 73.41363636363636,
                "pitch": 29,
                "velocity": 80,
                "duration": 0.1886363636363626,
                "tempo": 120.0
            },
            {
                "start_time": 73.42954545454545,
                "end_time": 73.60909090909091,
                "pitch": 29,
                "velocity": 80,
                "duration": 0.17954545454546178,
                "tempo": 120.0
            },
            {
                "start_time": 73.625,
                "end_time": 73.80454545454545,
                "pitch": 29,
                "velocity": 80,
                "duration": 0.17954545454544757,
                "tempo": 120.0
            },
            {
                "start_time": 73.82272727272726,
                "end_time": 74.0090909090909,
                "pitch": 29,
                "velocity": 80,
                "duration": 0.1863636363636374,
                "tempo": 120.0
            },
            {
                "start_time": 74.02727272727272,
                "end_time": 74.2159090909091,
                "pitch": 29,
                "velocity": 80,
                "duration": 0.1886363636363768,
                "tempo": 120.0
            },
            {
                "start_time": 74.23181818181818,
                "end_time": 74.41136363636363,
                "pitch": 29,
                "velocity": 80,
                "duration": 0.17954545454544757,
                "tempo": 120.0
            },
            {
                "start_time": 74.42727272727272,
                "end_time": 74.60909090909091,
                "pitch": 29,
                "velocity": 80,
                "duration": 0.18181818181818699,
                "tempo": 120.0
            },
            {
                "start_time": 74.625,
                "end_time": 74.81136363636364,
                "pitch": 29,
                "velocity": 80,
                "duration": 0.1863636363636374,
                "tempo": 120.0
            },
            {
                "start_time": 74.82954545454545,
                "end_time": 75.01818181818182,
                "pitch": 29,
                "velocity": 80,
                "duration": 0.1886363636363626,
                "tempo": 120.0
            },
            {
                "start_time": 75.0340909090909,
                "end_time": 75.21363636363635,
                "pitch": 29,
                "velocity": 80,
                "duration": 0.17954545454544757,
                "tempo": 120.0
            },
            {
                "start_time": 75.23181818181818,
                "end_time": 75.41136363636363,
                "pitch": 29,
                "velocity": 80,
                "duration": 0.17954545454544757,
                "tempo": 120.0
            },
            {
                "start_time": 75.42727272727272,
                "end_time": 75.61590909090908,
                "pitch": 29,
                "velocity": 80,
                "duration": 0.1886363636363626,
                "tempo": 120.0
            },
            {
                "start_time": 75.63181818181818,
                "end_time": 75.82045454545454,
                "pitch": 29,
                "velocity": 80,
                "duration": 0.1886363636363626,
                "tempo": 120.0
            },
            {
                "start_time": 75.83863636363635,
                "end_time": 76.01818181818182,
                "pitch": 29,
                "velocity": 80,
                "duration": 0.17954545454546178,
                "tempo": 120.0
            },
            {
                "start_time": 76.0340909090909,
                "end_time": 76.21363636363635,
                "pitch": 29,
                "velocity": 80,
                "duration": 0.17954545454544757,
                "tempo": 120.0
            },
            {
                "start_time": 76.22954545454544,
                "end_time": 76.42272727272727,
                "pitch": 31,
                "velocity": 80,
                "duration": 0.19318181818182723,
                "tempo": 120.0
            },
            {
                "start_time": 76.43863636363636,
                "end_time": 76.6340909090909,
                "pitch": 31,
                "velocity": 80,
                "duration": 0.19545454545453822,
                "tempo": 120.0
            },
            {
                "start_time": 76.64999999999999,
                "end_time": 76.83181818181818,
                "pitch": 32,
                "velocity": 80,
                "duration": 0.18181818181818699,
                "tempo": 120.0
            },
            {
                "start_time": 76.84772727272727,
                "end_time": 77.02727272727272,
                "pitch": 32,
                "velocity": 80,
                "duration": 0.17954545454544757,
                "tempo": 120.0
            },
            {
                "start_time": 77.04318181818182,
                "end_time": 77.22727272727272,
                "pitch": 33,
                "velocity": 80,
                "duration": 0.18409090909089798,
                "tempo": 120.0
            },
            {
                "start_time": 77.24545454545454,
                "end_time": 77.42954545454545,
                "pitch": 33,
                "velocity": 80,
                "duration": 0.1840909090909122,
                "tempo": 120.0
            },
            {
                "start_time": 77.44545454545454,
                "end_time": 77.6340909090909,
                "pitch": 34,
                "velocity": 80,
                "duration": 0.1886363636363626,
                "tempo": 120.0
            },
            {
                "start_time": 77.65227272727272,
                "end_time": 77.83863636363635,
                "pitch": 34,
                "velocity": 80,
                "duration": 0.1863636363636374,
                "tempo": 120.0
            },
            {
                "start_time": 77.85681818181818,
                "end_time": 78.04090909090908,
                "pitch": 36,
                "velocity": 80,
                "duration": 0.18409090909089798,
                "tempo": 120.0
            },
            {
                "start_time": 78.05909090909091,
                "end_time": 78.24318181818181,
                "pitch": 36,
                "velocity": 80,
                "duration": 0.18409090909089798,
                "tempo": 120.0
            },
            {
                "start_time": 78.2590909090909,
                "end_time": 78.43409090909091,
                "pitch": 36,
                "velocity": 80,
                "duration": 0.17500000000001137,
                "tempo": 120.0
            },
            {
                "start_time": 78.45,
                "end_time": 78.625,
                "pitch": 36,
                "velocity": 80,
                "duration": 0.17499999999999716,
                "tempo": 120.0
            },
            {
                "start_time": 78.64090909090909,
                "end_time": 78.82954545454545,
                "pitch": 36,
                "velocity": 80,
                "duration": 0.1886363636363626,
                "tempo": 120.0
            },
            {
                "start_time": 78.84772727272727,
                "end_time": 79.0340909090909,
                "pitch": 36,
                "velocity": 80,
                "duration": 0.1863636363636374,
                "tempo": 120.0
            },
            {
                "start_time": 79.05227272727272,
                "end_time": 79.23181818181818,
                "pitch": 36,
                "velocity": 80,
                "duration": 0.17954545454546178,
                "tempo": 120.0
            },
            {
                "start_time": 79.24772727272727,
                "end_time": 79.42727272727272,
                "pitch": 36,
                "velocity": 80,
                "duration": 0.17954545454544757,
                "tempo": 120.0
            },
            {
                "start_time": 79.44545454545454,
                "end_time": 79.63181818181818,
                "pitch": 36,
                "velocity": 80,
                "duration": 0.1863636363636374,
                "tempo": 120.0
            },
            {
                "start_time": 79.64999999999999,
                "end_time": 79.83863636363635,
                "pitch": 36,
                "velocity": 80,
                "duration": 0.1886363636363626,
                "tempo": 120.0
            },
            {
                "start_time": 79.85454545454544,
                "end_time": 80.0340909090909,
                "pitch": 36,
                "velocity": 80,
                "duration": 0.17954545454546178,
                "tempo": 120.0
            },
            {
                "start_time": 80.05,
                "end_time": 80.22954545454544,
                "pitch": 36,
                "velocity": 80,
                "duration": 0.17954545454544757,
                "tempo": 120.0
            },
            {
                "start_time": 80.24772727272727,
                "end_time": 80.43409090909091,
                "pitch": 36,
                "velocity": 80,
                "duration": 0.1863636363636374,
                "tempo": 120.0
            },
            {
                "start_time": 80.45227272727273,
                "end_time": 80.64090909090909,
                "pitch": 36,
                "velocity": 80,
                "duration": 0.1886363636363626,
                "tempo": 120.0
            },
            {
                "start_time": 80.65681818181818,
                "end_time": 80.83636363636363,
                "pitch": 36,
                "velocity": 80,
                "duration": 0.17954545454544757,
                "tempo": 120.0
            },
            {
                "start_time": 80.85454545454544,
                "end_time": 81.0340909090909,
                "pitch": 36,
                "velocity": 80,
                "duration": 0.17954545454546178,
                "tempo": 120.0
            },
            {
                "start_time": 81.05,
                "end_time": 81.23863636363636,
                "pitch": 34,
                "velocity": 80,
                "duration": 0.1886363636363626,
                "tempo": 120.0
            },
            {
                "start_time": 81.25454545454545,
                "end_time": 81.44318181818181,
                "pitch": 34,
                "velocity": 80,
                "duration": 0.1886363636363626,
                "tempo": 120.0
            },
            {
                "start_time": 81.4590909090909,
                "end_time": 81.64090909090909,
                "pitch": 34,
                "velocity": 80,
                "duration": 0.18181818181818699,
                "tempo": 120.0
            },
            {
                "start_time": 81.65681818181818,
                "end_time": 81.83636363636363,
                "pitch": 34,
                "velocity": 80,
                "duration": 0.17954545454544757,
                "tempo": 120.0
            },
            {
                "start_time": 81.85227272727272,
                "end_time": 82.04090909090908,
                "pitch": 34,
                "velocity": 80,
                "duration": 0.1886363636363626,
                "tempo": 120.0
            },
            {
                "start_time": 82.05681818181817,
                "end_time": 82.24545454545454,
                "pitch": 34,
                "velocity": 80,
                "duration": 0.1886363636363626,
                "tempo": 120.0
            },
            {
                "start_time": 82.26363636363637,
                "end_time": 82.44318181818181,
                "pitch": 34,
                "velocity": 80,
                "duration": 0.17954545454544757,
                "tempo": 120.0
            },
            {
                "start_time": 82.4590909090909,
                "end_time": 82.63863636363637,
                "pitch": 34,
                "velocity": 80,
                "duration": 0.17954545454546178,
                "tempo": 120.0
            },
            {
                "start_time": 82.65454545454546,
                "end_time": 82.84318181818182,
                "pitch": 34,
                "velocity": 80,
                "duration": 0.1886363636363626,
                "tempo": 120.0
            },
            {
                "start_time": 82.85909090909091,
                "end_time": 83.04772727272727,
                "pitch": 34,
                "velocity": 80,
                "duration": 0.1886363636363626,
                "tempo": 120.0
            },
            {
                "start_time": 83.06590909090909,
                "end_time": 83.24545454545454,
                "pitch": 34,
                "velocity": 80,
                "duration": 0.17954545454544757,
                "tempo": 120.0
            },
            {
                "start_time": 83.26136363636363,
                "end_time": 83.44090909090909,
                "pitch": 34,
                "velocity": 80,
                "duration": 0.17954545454546178,
                "tempo": 120.0
            },
            {
                "start_time": 83.45681818181818,
                "end_time": 83.64545454545454,
                "pitch": 34,
                "velocity": 80,
                "duration": 0.1886363636363626,
                "tempo": 120.0
            },
            {
                "start_time": 83.66363636363636,
                "end_time": 83.85,
                "pitch": 34,
                "velocity": 80,
                "duration": 0.1863636363636374,
                "tempo": 120.0
            },
            {
                "start_time": 83.86818181818181,
                "end_time": 84.04772727272727,
                "pitch": 34,
                "velocity": 80,
                "duration": 0.17954545454546178,
                "tempo": 120.0
            },
            {
                "start_time": 84.06363636363636,
                "end_time": 84.24318181818181,
                "pitch": 34,
                "velocity": 80,
                "duration": 0.17954545454544757,
                "tempo": 120.0
            },
            {
                "start_time": 84.2590909090909,
                "end_time": 84.44772727272726,
                "pitch": 32,
                "velocity": 80,
                "duration": 0.1886363636363626,
                "tempo": 120.0
            },
            {
                "start_time": 84.4659090909091,
                "end_time": 84.65454545454546,
                "pitch": 32,
                "velocity": 80,
                "duration": 0.1886363636363626,
                "tempo": 120.0
            },
            {
                "start_time": 84.67045454545455,
                "end_time": 84.85,
                "pitch": 32,
                "velocity": 80,
                "duration": 0.17954545454544757,
                "tempo": 120.0
            },
            {
                "start_time": 84.86590909090908,
                "end_time": 85.04545454545455,
                "pitch": 32,
                "velocity": 80,
                "duration": 0.17954545454546178,
                "tempo": 120.0
            },
            {
                "start_time": 85.06363636363636,
                "end_time": 85.25,
                "pitch": 32,
                "velocity": 80,
                "duration": 0.1863636363636374,
                "tempo": 120.0
            },
            {
                "start_time": 85.26818181818182,
                "end_time": 85.45681818181818,
                "pitch": 32,
                "velocity": 80,
                "duration": 0.1886363636363626,
                "tempo": 120.0
            },
            {
                "start_time": 85.47272727272727,
                "end_time": 85.65227272727272,
                "pitch": 32,
                "velocity": 80,
                "duration": 0.17954545454544757,
                "tempo": 120.0
            },
            {
                "start_time": 85.67045454545455,
                "end_time": 85.85,
                "pitch": 32,
                "velocity": 80,
                "duration": 0.17954545454544757,
                "tempo": 120.0
            },
            {
                "start_time": 85.86590909090908,
                "end_time": 86.05227272727272,
                "pitch": 32,
                "velocity": 80,
                "duration": 0.1863636363636374,
                "tempo": 120.0
            },
            {
                "start_time": 86.07045454545454,
                "end_time": 86.2590909090909,
                "pitch": 32,
                "velocity": 80,
                "duration": 0.1886363636363626,
                "tempo": 120.0
            },
            {
                "start_time": 86.27499999999999,
                "end_time": 86.45681818181818,
                "pitch": 32,
                "velocity": 80,
                "duration": 0.18181818181818699,
                "tempo": 120.0
            },
            {
                "start_time": 86.47272727272727,
                "end_time": 86.65227272727272,
                "pitch": 32,
                "velocity": 80,
                "duration": 0.17954545454544757,
                "tempo": 120.0
            },
            {
                "start_time": 86.66818181818181,
                "end_time": 86.85681818181818,
                "pitch": 32,
                "velocity": 80,
                "duration": 0.1886363636363768,
                "tempo": 120.0
            },
            {
                "start_time": 86.87272727272727,
                "end_time": 87.06136363636364,
                "pitch": 32,
                "velocity": 80,
                "duration": 0.1886363636363626,
                "tempo": 120.0
            },
            {
                "start_time": 87.07954545454545,
                "end_time": 87.2590909090909,
                "pitch": 32,
                "velocity": 80,
                "duration": 0.17954545454544757,
                "tempo": 120.0
            },
            {
                "start_time": 87.27499999999999,
                "end_time": 87.45454545454545,
                "pitch": 32,
                "velocity": 80,
                "duration": 0.17954545454546178,
                "tempo": 120.0
            },
            {
                "start_time": 87.47045454545454,
                "end_time": 87.6590909090909,
                "pitch": 31,
                "velocity": 80,
                "duration": 0.1886363636363626,
                "tempo": 120.0
            },
            {
                "start_time": 87.675,
                "end_time": 87.86363636363636,
                "pitch": 31,
                "velocity": 80,
                "duration": 0.1886363636363626,
                "tempo": 120.0
            },
            {
                "start_time": 87.88181818181818,
                "end_time": 88.06136363636364,
                "pitch": 31,
                "velocity": 80,
                "duration": 0.17954545454546178,
                "tempo": 120.0
            },
            {
                "start_time": 88.07727272727273,
                "end_time": 88.25681818181818,
                "pitch": 31,
                "velocity": 80,
                "duration": 0.17954545454544757,
                "tempo": 120.0
            },
            {
                "start_time": 88.27272727272727,
                "end_time": 88.46136363636363,
                "pitch": 31,
                "velocity": 80,
                "duration": 0.1886363636363626,
                "tempo": 120.0
            },
            {
                "start_time": 88.47954545454544,
                "end_time": 88.66590909090908,
                "pitch": 31,
                "velocity": 80,
                "duration": 0.1863636363636374,
                "tempo": 120.0
            },
            {
                "start_time": 88.6840909090909,
                "end_time": 88.86363636363636,
                "pitch": 31,
                "velocity": 80,
                "duration": 0.17954545454546178,
                "tempo": 120.0
            },
            {
                "start_time": 88.87954545454545,
                "end_time": 89.0590909090909,
                "pitch": 31,
                "velocity": 80,
                "duration": 0.17954545454544757,
                "tempo": 120.0
            },
            {
                "start_time": 89.27499999999999,
                "end_time": 89.4590909090909,
                "pitch": 31,
                "velocity": 80,
                "duration": 0.1840909090909122,
                "tempo": 120.0
            },
            {
                "start_time": 89.87954545454545,
                "end_time": 90.26136363636363,
                "pitch": 31,
                "velocity": 80,
                "duration": 0.3818181818181756,
                "tempo": 120.0
            },
            {
                "start_time": 90.68181818181817,
                "end_time": 90.87045454545454,
                "pitch": 33,
                "velocity": 80,
                "duration": 0.1886363636363626,
                "tempo": 120.0
            },
            {
                "start_time": 90.88636363636363,
                "end_time": 91.07499999999999,
                "pitch": 33,
                "velocity": 80,
                "duration": 0.1886363636363626,
                "tempo": 120.0
            },
            {
                "start_time": 91.09318181818182,
                "end_time": 91.27272727272727,
                "pitch": 33,
                "velocity": 80,
                "duration": 0.17954545454544757,
                "tempo": 120.0
            },
            {
                "start_time": 91.28863636363636,
                "end_time": 91.46818181818182,
                "pitch": 33,
                "velocity": 80,
                "duration": 0.17954545454546178,
                "tempo": 120.0
            },
            {
                "start_time": 91.48409090909091,
                "end_time": 91.67272727272727,
                "pitch": 33,
                "velocity": 80,
                "duration": 0.1886363636363626,
                "tempo": 120.0
            },
            {
                "start_time": 91.68863636363636,
                "end_time": 91.87727272727273,
                "pitch": 33,
                "velocity": 80,
                "duration": 0.1886363636363626,
                "tempo": 120.0
            },
            {
                "start_time": 91.89545454545454,
                "end_time": 92.07499999999999,
                "pitch": 33,
                "velocity": 80,
                "duration": 0.17954545454544757,
                "tempo": 120.0
            },
            {
                "start_time": 92.0909090909091,
                "end_time": 92.27045454545454,
                "pitch": 33,
                "velocity": 80,
                "duration": 0.17954545454544757,
                "tempo": 120.0
            },
            {
                "start_time": 92.28636363636363,
                "end_time": 92.475,
                "pitch": 33,
                "velocity": 80,
                "duration": 0.1886363636363626,
                "tempo": 120.0
            },
            {
                "start_time": 92.49090909090908,
                "end_time": 92.67954545454545,
                "pitch": 33,
                "velocity": 80,
                "duration": 0.1886363636363626,
                "tempo": 120.0
            },
            {
                "start_time": 92.69772727272726,
                "end_time": 92.87727272727273,
                "pitch": 33,
                "velocity": 80,
                "duration": 0.17954545454546178,
                "tempo": 120.0
            },
            {
                "start_time": 92.89318181818182,
                "end_time": 93.07272727272726,
                "pitch": 33,
                "velocity": 80,
                "duration": 0.17954545454544757,
                "tempo": 120.0
            },
            {
                "start_time": 93.08863636363635,
                "end_time": 93.27727272727272,
                "pitch": 33,
                "velocity": 80,
                "duration": 0.1886363636363626,
                "tempo": 120.0
            },
            {
                "start_time": 93.29545454545455,
                "end_time": 93.48409090909091,
                "pitch": 33,
                "velocity": 80,
                "duration": 0.1886363636363626,
                "tempo": 120.0
            },
            {
                "start_time": 93.5,
                "end_time": 93.67954545454545,
                "pitch": 33,
                "velocity": 80,
                "duration": 0.17954545454544757,
                "tempo": 120.0
            },
            {
                "start_time": 93.69545454545454,
                "end_time": 93.875,
                "pitch": 33,
                "velocity": 80,
                "duration": 0.17954545454546178,
                "tempo": 120.0
            },
            {
                "start_time": 93.89318181818182,
                "end_time": 94.07954545454545,
                "pitch": 31,
                "velocity": 80,
                "duration": 0.1863636363636374,
                "tempo": 120.0
            },
            {
                "start_time": 94.09772727272727,
                "end_time": 94.28636363636363,
                "pitch": 31,
                "velocity": 80,
                "duration": 0.1886363636363626,
                "tempo": 120.0
            },
            {
                "start_time": 94.30227272727272,
                "end_time": 94.48181818181818,
                "pitch": 31,
                "velocity": 80,
                "duration": 0.17954545454546178,
                "tempo": 120.0
            },
            {
                "start_time": 94.5,
                "end_time": 94.67954545454545,
                "pitch": 31,
                "velocity": 80,
                "duration": 0.17954545454544757,
                "tempo": 120.0
            },
            {
                "start_time": 94.69545454545454,
                "end_time": 94.88181818181818,
                "pitch": 31,
                "velocity": 80,
                "duration": 0.1863636363636374,
                "tempo": 120.0
            },
            {
                "start_time": 94.89999999999999,
                "end_time": 95.08863636363635,
                "pitch": 31,
                "velocity": 80,
                "duration": 0.1886363636363626,
                "tempo": 120.0
            },
            {
                "start_time": 95.10454545454544,
                "end_time": 95.2840909090909,
                "pitch": 31,
                "velocity": 80,
                "duration": 0.17954545454546178,
                "tempo": 120.0
            },
            {
                "start_time": 95.30227272727272,
                "end_time": 95.48181818181818,
                "pitch": 31,
                "velocity": 80,
                "duration": 0.17954545454546178,
                "tempo": 120.0
            },
            {
                "start_time": 95.49772727272727,
                "end_time": 95.68636363636364,
                "pitch": 31,
                "velocity": 80,
                "duration": 0.1886363636363626,
                "tempo": 120.0
            },
            {
                "start_time": 95.70227272727273,
                "end_time": 95.89090909090909,
                "pitch": 31,
                "velocity": 80,
                "duration": 0.1886363636363626,
                "tempo": 120.0
            },
            {
                "start_time": 95.9090909090909,
                "end_time": 96.08863636363635,
                "pitch": 31,
                "velocity": 80,
                "duration": 0.17954545454544757,
                "tempo": 120.0
            },
            {
                "start_time": 96.10454545454544,
                "end_time": 96.2840909090909,
                "pitch": 31,
                "velocity": 80,
                "duration": 0.17954545454546178,
                "tempo": 120.0
            },
            {
                "start_time": 96.3,
                "end_time": 96.48863636363636,
                "pitch": 31,
                "velocity": 80,
                "duration": 0.1886363636363626,
                "tempo": 120.0
            },
            {
                "start_time": 96.50454545454545,
                "end_time": 96.69318181818181,
                "pitch": 31,
                "velocity": 80,
                "duration": 0.1886363636363626,
                "tempo": 120.0
            },
            {
                "start_time": 96.71136363636363,
                "end_time": 96.89090909090909,
                "pitch": 31,
                "velocity": 80,
                "duration": 0.17954545454546178,
                "tempo": 120.0
            },
            {
                "start_time": 96.90681818181818,
                "end_time": 97.08636363636363,
                "pitch": 31,
                "velocity": 80,
                "duration": 0.17954545454544757,
                "tempo": 120.0
            },
            {
                "start_time": 97.10227272727272,
                "end_time": 97.29090909090908,
                "pitch": 29,
                "velocity": 80,
                "duration": 0.1886363636363626,
                "tempo": 120.0
            },
            {
                "start_time": 97.30681818181817,
                "end_time": 97.49545454545454,
                "pitch": 29,
                "velocity": 80,
                "duration": 0.1886363636363626,
                "tempo": 120.0
            },
            {
                "start_time": 97.51363636363637,
                "end_time": 97.69318181818181,
                "pitch": 29,
                "velocity": 80,
                "duration": 0.17954545454544757,
                "tempo": 120.0
            },
            {
                "start_time": 97.7090909090909,
                "end_time": 97.88863636363637,
                "pitch": 29,
                "velocity": 80,
                "duration": 0.17954545454546178,
                "tempo": 120.0
            },
            {
                "start_time": 97.90454545454546,
                "end_time": 98.09318181818182,
                "pitch": 29,
                "velocity": 80,
                "duration": 0.1886363636363626,
                "tempo": 120.0
            },
            {
                "start_time": 98.11136363636363,
                "end_time": 98.3,
                "pitch": 29,
                "velocity": 80,
                "duration": 0.1886363636363626,
                "tempo": 120.0
            },
            {
                "start_time": 98.31590909090909,
                "end_time": 98.49545454545454,
                "pitch": 29,
                "velocity": 80,
                "duration": 0.17954545454544757,
                "tempo": 120.0
            },
            {
                "start_time": 98.51136363636363,
                "end_time": 98.69090909090909,
                "pitch": 29,
                "velocity": 80,
                "duration": 0.17954545454546178,
                "tempo": 120.0
            },
            {
                "start_time": 98.7090909090909,
                "end_time": 98.89545454545454,
                "pitch": 29,
                "velocity": 80,
                "duration": 0.1863636363636374,
                "tempo": 120.0
            },
            {
                "start_time": 98.91363636363636,
                "end_time": 99.10227272727272,
                "pitch": 29,
                "velocity": 80,
                "duration": 0.1886363636363626,
                "tempo": 120.0
            },
            {
                "start_time": 99.11818181818181,
                "end_time": 99.29772727272727,
                "pitch": 29,
                "velocity": 80,
                "duration": 0.17954545454546178,
                "tempo": 120.0
            },
            {
                "start_time": 99.31363636363636,
                "end_time": 99.49545454545454,
                "pitch": 29,
                "velocity": 80,
                "duration": 0.18181818181817277,
                "tempo": 120.0
            },
            {
                "start_time": 99.51136363636363,
                "end_time": 99.69772727272726,
                "pitch": 29,
                "velocity": 80,
                "duration": 0.1863636363636374,
                "tempo": 120.0
            },
            {
                "start_time": 99.71590909090908,
                "end_time": 99.90454545454546,
                "pitch": 29,
                "velocity": 80,
                "duration": 0.1886363636363768,
                "tempo": 120.0
            },
            {
                "start_time": 99.92045454545455,
                "end_time": 100.1,
                "pitch": 29,
                "velocity": 80,
                "duration": 0.17954545454544757,
                "tempo": 120.0
            },
            {
                "start_time": 100.11818181818181,
                "end_time": 100.29772727272727,
                "pitch": 29,
                "velocity": 80,
                "duration": 0.17954545454546178,
                "tempo": 120.0
            },
            {
                "start_time": 100.51590909090909,
                "end_time": 100.69999999999999,
                "pitch": 28,
                "velocity": 80,
                "duration": 0.18409090909089798,
                "tempo": 120.0
            },
            {
                "start_time": 101.12727272727273,
                "end_time": 101.50227272727273,
                "pitch": 28,
                "velocity": 80,
                "duration": 0.375,
                "tempo": 120.0
            },
            {
                "start_time": 102.12727272727273,
                "end_time": 102.31590909090909,
                "pitch": 28,
                "velocity": 80,
                "duration": 0.1886363636363626,
                "tempo": 120.0
            },
            {
                "start_time": 102.52954545454546,
                "end_time": 102.9090909090909,
                "pitch": 28,
                "velocity": 80,
                "duration": 0.3795454545454504,
                "tempo": 120.0
            },
            {
                "start_time": 102.925,
                "end_time": 103.11136363636363,
                "pitch": 31,
                "velocity": 80,
                "duration": 0.1863636363636374,
                "tempo": 120.0
            },
            {
                "start_time": 103.12727272727273,
                "end_time": 103.31136363636364,
                "pitch": 32,
                "velocity": 80,
                "duration": 0.1840909090909122,
                "tempo": 120.0
            },
            {
                "start_time": 103.32727272727273,
                "end_time": 103.51136363636363,
                "pitch": 33,
                "velocity": 80,
                "duration": 0.18409090909089798,
                "tempo": 120.0
            },
            {
                "start_time": 103.52727272727272,
                "end_time": 103.56136363636364,
                "pitch": 33,
                "velocity": 80,
                "duration": 0.03409090909092072,
                "tempo": 120.0
            }
        ],
        "Violin": [
            {
                "start_time": 0.9886363636363635,
                "end_time": 1.1772727272727272,
                "pitch": 64,
                "velocity": 80,
                "duration": 0.1886363636363637,
                "tempo": 120.0
            },
            {
                "start_time": 1.1954545454545453,
                "end_time": 1.375,
                "pitch": 62,
                "velocity": 80,
                "duration": 0.17954545454545467,
                "tempo": 120.0
            },
            {
                "start_time": 1.5863636363636362,
                "end_time": 1.775,
                "pitch": 64,
                "velocity": 80,
                "duration": 0.1886363636363637,
                "tempo": 120.0
            },
            {
                "start_time": 1.793181818181818,
                "end_time": 1.9795454545454545,
                "pitch": 62,
                "velocity": 80,
                "duration": 0.1863636363636365,
                "tempo": 120.0
            },
            {
                "start_time": 2.193181818181818,
                "end_time": 2.3727272727272726,
                "pitch": 64,
                "velocity": 80,
                "duration": 0.17954545454545467,
                "tempo": 120.0
            },
            {
                "start_time": 2.5954545454545452,
                "end_time": 2.784090909090909,
                "pitch": 64,
                "velocity": 80,
                "duration": 0.18863636363636394,
                "tempo": 120.0
            },
            {
                "start_time": 2.8,
                "end_time": 2.9795454545454545,
                "pitch": 62,
                "velocity": 80,
                "duration": 0.17954545454545467,
                "tempo": 120.0
            },
            {
                "start_time": 2.995454545454545,
                "end_time": 3.577272727272727,
                "pitch": 67,
                "velocity": 80,
                "duration": 0.581818181818182,
                "tempo": 120.0
            },
            {
                "start_time": 3.5954545454545452,
                "end_time": 3.9795454545454545,
                "pitch": 65,
                "velocity": 80,
                "duration": 0.38409090909090926,
                "tempo": 120.0
            },
            {
                "start_time": 4.2,
                "end_time": 4.388636363636364,
                "pitch": 64,
                "velocity": 80,
                "duration": 0.1886363636363635,
                "tempo": 120.0
            },
            {
                "start_time": 4.406818181818181,
                "end_time": 4.586363636363636,
                "pitch": 62,
                "velocity": 80,
                "duration": 0.17954545454545467,
                "tempo": 120.0
            },
            {
                "start_time": 4.797727272727273,
                "end_time": 4.986363636363636,
                "pitch": 64,
                "velocity": 80,
                "duration": 0.1886363636363635,
                "tempo": 120.0
            },
            {
                "start_time": 5.002272727272727,
                "end_time": 5.1909090909090905,
                "pitch": 62,
                "velocity": 80,
                "duration": 0.1886363636363635,
                "tempo": 120.0
            },
            {
                "start_time": 5.404545454545454,
                "end_time": 5.584090909090909,
                "pitch": 64,
                "velocity": 80,
                "duration": 0.17954545454545467,
                "tempo": 120.0
            },
            {
                "start_time": 5.804545454545455,
                "end_time": 5.993181818181818,
                "pitch": 64,
                "velocity": 80,
                "duration": 0.1886363636363635,
                "tempo": 120.0
            },
            {
                "start_time": 6.011363636363636,
                "end_time": 6.1909090909090905,
                "pitch": 62,
                "velocity": 80,
                "duration": 0.17954545454545467,
                "tempo": 120.0
            },
            {
                "start_time": 6.206818181818181,
                "end_time": 6.788636363636363,
                "pitch": 65,
                "velocity": 80,
                "duration": 0.581818181818182,
                "tempo": 120.0
            },
            {
                "start_time": 6.806818181818182,
                "end_time": 7.1886363636363635,
                "pitch": 67,
                "velocity": 80,
                "duration": 0.38181818181818183,
                "tempo": 120.0
            },
            {
                "start_time": 7.411363636363636,
                "end_time": 7.6,
                "pitch": 64,
                "velocity": 80,
                "duration": 0.1886363636363635,
                "tempo": 120.0
            },
            {
                "start_time": 7.61590909090909,
                "end_time": 7.795454545454545,
                "pitch": 62,
                "velocity": 80,
                "duration": 0.17954545454545467,
                "tempo": 120.0
            },
            {
                "start_time": 8.009090909090908,
                "end_time": 8.197727272727272,
                "pitch": 64,
                "velocity": 80,
                "duration": 0.18863636363636438,
                "tempo": 120.0
            },
            {
                "start_time": 8.213636363636363,
                "end_time": 8.402272727272727,
                "pitch": 62,
                "velocity": 80,
                "duration": 0.18863636363636438,
                "tempo": 120.0
            },
            {
                "start_time": 8.61590909090909,
                "end_time": 8.795454545454545,
                "pitch": 64,
                "velocity": 80,
                "duration": 0.17954545454545467,
                "tempo": 120.0
            },
            {
                "start_time": 9.01590909090909,
                "end_time": 9.204545454545453,
                "pitch": 64,
                "velocity": 80,
                "duration": 0.1886363636363626,
                "tempo": 120.0
            },
            {
                "start_time": 9.222727272727273,
                "end_time": 9.402272727272727,
                "pitch": 62,
                "velocity": 80,
                "duration": 0.17954545454545467,
                "tempo": 120.0
            },
            {
                "start_time": 9.418181818181818,
                "end_time": 10.0,
                "pitch": 67,
                "velocity": 80,
                "duration": 0.581818181818182,
                "tempo": 120.0
            },
            {
                "start_time": 10.01590909090909,
                "end_time": 10.402272727272727,
                "pitch": 65,
                "velocity": 80,
                "duration": 0.3863636363636367,
                "tempo": 120.0
            },
            {
                "start_time": 10.625,
                "end_time": 10.813636363636363,
                "pitch": 64,
                "velocity": 80,
                "duration": 0.1886363636363626,
                "tempo": 120.0
            },
            {
                "start_time": 10.829545454545453,
                "end_time": 11.009090909090908,
                "pitch": 62,
                "velocity": 80,
                "duration": 0.17954545454545467,
                "tempo": 120.0
            },
            {
                "start_time": 11.222727272727273,
                "end_time": 11.411363636363635,
                "pitch": 64,
                "velocity": 80,
                "duration": 0.1886363636363626,
                "tempo": 120.0
            },
            {
                "start_time": 11.427272727272726,
                "end_time": 11.61590909090909,
                "pitch": 62,
                "velocity": 80,
                "duration": 0.18863636363636438,
                "tempo": 120.0
            },
            {
                "start_time": 11.829545454545453,
                "end_time": 12.009090909090908,
                "pitch": 67,
                "velocity": 80,
                "duration": 0.17954545454545467,
                "tempo": 120.0
            },
            {
                "start_time": 12.229545454545454,
                "end_time": 12.418181818181818,
                "pitch": 69,
                "velocity": 80,
                "duration": 0.18863636363636438,
                "tempo": 120.0
            },
            {
                "start_time": 12.636363636363635,
                "end_time": 12.822727272727272,
                "pitch": 60,
                "velocity": 80,
                "duration": 0.1863636363636374,
                "tempo": 120.0
            },
            {
                "start_time": 12.838636363636363,
                "end_time": 13.018181818181818,
                "pitch": 62,
                "velocity": 80,
                "duration": 0.17954545454545467,
                "tempo": 120.0
            },
            {
                "start_time": 13.034090909090908,
                "end_time": 13.213636363636363,
                "pitch": 64,
                "velocity": 80,
                "duration": 0.17954545454545467,
                "tempo": 120.0
            },
            {
                "start_time": 13.229545454545454,
                "end_time": 13.413636363636362,
                "pitch": 67,
                "velocity": 80,
                "duration": 0.18409090909090864,
                "tempo": 120.0
            },
            {
                "start_time": 13.429545454545455,
                "end_time": 13.613636363636363,
                "pitch": 69,
                "velocity": 80,
                "duration": 0.18409090909090864,
                "tempo": 120.0
            },
            {
                "start_time": 13.836363636363636,
                "end_time": 16.85909090909091,
                "pitch": 79,
                "velocity": 80,
                "duration": 3.0227272727272734,
                "tempo": 120.0
            },
            {
                "start_time": 17.045454545454543,
                "end_time": 20.068181818181817,
                "pitch": 79,
                "velocity": 80,
                "duration": 3.0227272727272734,
                "tempo": 120.0
            },
            {
                "start_time": 20.25681818181818,
                "end_time": 23.263636363636362,
                "pitch": 79,
                "velocity": 80,
                "duration": 3.0068181818181827,
                "tempo": 120.0
            },
            {
                "start_time": 23.46818181818182,
                "end_time": 24.852272727272727,
                "pitch": 79,
                "velocity": 80,
                "duration": 1.384090909090908,
                "tempo": 120.0
            },
            {
                "start_time": 25.479545454545452,
                "end_time": 25.66590909090909,
                "pitch": 48,
                "velocity": 80,
                "duration": 0.1863636363636374,
                "tempo": 120.0
            },
            {
                "start_time": 25.68181818181818,
                "end_time": 25.86590909090909,
                "pitch": 50,
                "velocity": 80,
                "duration": 0.18409090909090864,
                "tempo": 120.0
            },
            {
                "start_time": 25.88181818181818,
                "end_time": 26.06590909090909,
                "pitch": 52,
                "velocity": 80,
                "duration": 0.1840909090909122,
                "tempo": 120.0
            },
            {
                "start_time": 26.081818181818182,
                "end_time": 26.261363636363637,
                "pitch": 55,
                "velocity": 80,
                "duration": 0.17954545454545467,
                "tempo": 120.0
            },
            {
                "start_time": 26.277272727272727,
                "end_time": 26.456818181818182,
                "pitch": 57,
                "velocity": 80,
                "duration": 0.17954545454545467,
                "tempo": 120.0
            },
            {
                "start_time": 26.49090909090909,
                "end_time": 26.661363636363635,
                "pitch": 65,
                "velocity": 80,
                "duration": 0.17045454545454675,
                "tempo": 120.0
            },
            {
                "start_time": 26.679545454545455,
                "end_time": 26.868181818181817,
                "pitch": 72,
                "velocity": 80,
                "duration": 0.1886363636363626,
                "tempo": 120.0
            },
            {
                "start_time": 26.884090909090908,
                "end_time": 27.063636363636363,
                "pitch": 67,
                "velocity": 80,
                "duration": 0.17954545454545467,
                "tempo": 120.0
            },
            {
                "start_time": 27.081818181818182,
                "end_time": 27.261363636363637,
                "pitch": 65,
                "velocity": 80,
                "duration": 0.17954545454545467,
                "tempo": 120.0
            },
            {
                "start_time": 27.277272727272727,
                "end_time": 27.46363636363636,
                "pitch": 72,
                "velocity": 80,
                "duration": 0.18636363636363384,
                "tempo": 120.0
            },
            {
                "start_time": 27.48181818181818,
                "end_time": 27.670454545454543,
                "pitch": 65,
                "velocity": 80,
                "duration": 0.1886363636363626,
                "tempo": 120.0
            },
            {
                "start_time": 27.686363636363634,
                "end_time": 27.868181818181817,
                "pitch": 67,
                "velocity": 80,
                "duration": 0.18181818181818343,
                "tempo": 120.0
            },
            {
                "start_time": 27.884090909090908,
                "end_time": 28.063636363636363,
                "pitch": 65,
                "velocity": 80,
                "duration": 0.17954545454545467,
                "tempo": 120.0
            },
            {
                "start_time": 28.079545454545453,
                "end_time": 28.268181818181816,
                "pitch": 67,
                "velocity": 80,
                "duration": 0.1886363636363626,
                "tempo": 120.0
            },
            {
                "start_time": 28.284090909090907,
                "end_time": 28.472727272727273,
                "pitch": 74,
                "velocity": 80,
                "duration": 0.18863636363636616,
                "tempo": 120.0
            },
            {
                "start_time": 28.49090909090909,
                "end_time": 28.670454545454543,
                "pitch": 69,
                "velocity": 80,
                "duration": 0.17954545454545467,
                "tempo": 120.0
            },
            {
                "start_time": 28.686363636363634,
                "end_time": 28.86590909090909,
                "pitch": 67,
                "velocity": 80,
                "duration": 0.17954545454545467,
                "tempo": 120.0
            },
            {
                "start_time": 28.88181818181818,
                "end_time": 29.070454545454545,
                "pitch": 74,
                "velocity": 80,
                "duration": 0.18863636363636616,
                "tempo": 120.0
            },
            {
                "start_time": 29.086363636363636,
                "end_time": 29.275,
                "pitch": 67,
                "velocity": 80,
                "duration": 0.1886363636363626,
                "tempo": 120.0
            },
            {
                "start_time": 29.293181818181818,
                "end_time": 29.472727272727273,
                "pitch": 69,
                "velocity": 80,
                "duration": 0.17954545454545467,
                "tempo": 120.0
            },
            {
                "start_time": 29.488636363636363,
                "end_time": 29.668181818181818,
                "pitch": 67,
                "velocity": 80,
                "duration": 0.17954545454545467,
                "tempo": 120.0
            },
            {
                "start_time": 29.68409090909091,
                "end_time": 29.87272727272727,
                "pitch": 69,
                "velocity": 80,
                "duration": 0.1886363636363626,
                "tempo": 120.0
            },
            {
                "start_time": 29.89090909090909,
                "end_time": 30.077272727272724,
                "pitch": 76,
                "velocity": 80,
                "duration": 0.18636363636363384,
                "tempo": 120.0
            },
            {
                "start_time": 30.095454545454544,
                "end_time": 30.275,
                "pitch": 72,
                "velocity": 80,
                "duration": 0.17954545454545467,
                "tempo": 120.0
            },
            {
                "start_time": 30.29090909090909,
                "end_time": 30.470454545454544,
                "pitch": 81,
                "velocity": 80,
                "duration": 0.17954545454545467,
                "tempo": 120.0
            },
            {
                "start_time": 30.486363636363635,
                "end_time": 30.674999999999997,
                "pitch": 76,
                "velocity": 80,
                "duration": 0.1886363636363626,
                "tempo": 120.0
            },
            {
                "start_time": 30.693181818181817,
                "end_time": 30.88181818181818,
                "pitch": 69,
                "velocity": 80,
                "duration": 0.1886363636363626,
                "tempo": 120.0
            },
            {
                "start_time": 30.89772727272727,
                "end_time": 31.077272727272724,
                "pitch": 72,
                "velocity": 80,
                "duration": 0.17954545454545467,
                "tempo": 120.0
            },
            {
                "start_time": 31.093181818181815,
                "end_time": 31.27272727272727,
                "pitch": 76,
                "velocity": 80,
                "duration": 0.17954545454545467,
                "tempo": 120.0
            },
            {
                "start_time": 31.29090909090909,
                "end_time": 31.477272727272727,
                "pitch": 81,
                "velocity": 80,
                "duration": 0.1863636363636374,
                "tempo": 120.0
            },
            {
                "start_time": 31.495454545454542,
                "end_time": 31.68409090909091,
                "pitch": 77,
                "velocity": 80,
                "duration": 0.18863636363636616,
                "tempo": 120.0
            },
            {
                "start_time": 31.7,
                "end_time": 31.879545454545454,
                "pitch": 79,
                "velocity": 80,
                "duration": 0.17954545454545467,
                "tempo": 120.0
            },
            {
                "start_time": 31.89772727272727,
                "end_time": 32.07727272727273,
                "pitch": 76,
                "velocity": 80,
                "duration": 0.17954545454545823,
                "tempo": 120.0
            },
            {
                "start_time": 32.09318181818182,
                "end_time": 32.279545454545456,
                "pitch": 77,
                "velocity": 80,
                "duration": 0.1863636363636374,
                "tempo": 120.0
            },
            {
                "start_time": 32.29772727272727,
                "end_time": 32.486363636363635,
                "pitch": 74,
                "velocity": 80,
                "duration": 0.1886363636363626,
                "tempo": 120.0
            },
            {
                "start_time": 32.502272727272725,
                "end_time": 32.684090909090905,
                "pitch": 76,
                "velocity": 80,
                "duration": 0.18181818181817988,
                "tempo": 120.0
            },
            {
                "start_time": 32.699999999999996,
                "end_time": 32.87954545454545,
                "pitch": 72,
                "velocity": 80,
                "duration": 0.17954545454545467,
                "tempo": 120.0
            },
            {
                "start_time": 32.89545454545454,
                "end_time": 33.08409090909091,
                "pitch": 65,
                "velocity": 80,
                "duration": 0.1886363636363697,
                "tempo": 120.0
            },
            {
                "start_time": 33.1,
                "end_time": 33.288636363636364,
                "pitch": 72,
                "velocity": 80,
                "duration": 0.1886363636363626,
                "tempo": 120.0
            },
            {
                "start_time": 33.30681818181818,
                "end_time": 33.486363636363635,
                "pitch": 67,
                "velocity": 80,
                "duration": 0.17954545454545467,
                "tempo": 120.0
            },
            {
                "start_time": 33.502272727272725,
                "end_time": 33.68181818181818,
                "pitch": 65,
                "velocity": 80,
                "duration": 0.17954545454545467,
                "tempo": 120.0
            },
            {
                "start_time": 33.69772727272727,
                "end_time": 33.88636363636363,
                "pitch": 72,
                "velocity": 80,
                "duration": 0.1886363636363626,
                "tempo": 120.0
            },
            {
                "start_time": 33.902272727272724,
                "end_time": 34.090909090909086,
                "pitch": 65,
                "velocity": 80,
                "duration": 0.1886363636363626,
                "tempo": 120.0
            },
            {
                "start_time": 34.10909090909091,
                "end_time": 34.288636363636364,
                "pitch": 67,
                "velocity": 80,
                "duration": 0.17954545454545467,
                "tempo": 120.0
            },
            {
                "start_time": 34.304545454545455,
                "end_time": 34.48409090909091,
                "pitch": 65,
                "velocity": 80,
                "duration": 0.17954545454545467,
                "tempo": 120.0
            },
            {
                "start_time": 34.5,
                "end_time": 34.68863636363636,
                "pitch": 67,
                "velocity": 80,
                "duration": 0.1886363636363626,
                "tempo": 120.0
            },
            {
                "start_time": 34.70681818181818,
                "end_time": 34.893181818181816,
                "pitch": 74,
                "velocity": 80,
                "duration": 0.1863636363636374,
                "tempo": 120.0
            },
            {
                "start_time": 34.91136363636363,
                "end_time": 35.090909090909086,
                "pitch": 69,
                "velocity": 80,
                "duration": 0.17954545454545467,
                "tempo": 120.0
            },
            {
                "start_time": 35.10681818181818,
                "end_time": 35.28636363636363,
                "pitch": 67,
                "velocity": 80,
                "duration": 0.17954545454545467,
                "tempo": 120.0
            },
            {
                "start_time": 35.30227272727272,
                "end_time": 35.49090909090909,
                "pitch": 74,
                "velocity": 80,
                "duration": 0.1886363636363697,
                "tempo": 120.0
            },
            {
                "start_time": 35.50909090909091,
                "end_time": 35.69772727272727,
                "pitch": 67,
                "velocity": 80,
                "duration": 0.1886363636363626,
                "tempo": 120.0
            },
            {
                "start_time": 35.71363636363636,
                "end_time": 35.893181818181816,
                "pitch": 69,
                "velocity": 80,
                "duration": 0.17954545454545467,
                "tempo": 120.0
            },
            {
                "start_time": 35.90909090909091,
                "end_time": 36.08863636363636,
                "pitch": 67,
                "velocity": 80,
                "duration": 0.17954545454545467,
                "tempo": 120.0
            },
            {
                "start_time": 36.10681818181818,
                "end_time": 36.293181818181814,
                "pitch": 69,
                "velocity": 80,
                "duration": 0.1863636363636374,
                "tempo": 120.0
            },
            {
                "start_time": 36.31136363636364,
                "end_time": 36.5,
                "pitch": 76,
                "velocity": 80,
                "duration": 0.1886363636363626,
                "tempo": 120.0
            },
            {
                "start_time": 36.51590909090909,
                "end_time": 36.695454545454545,
                "pitch": 72,
                "velocity": 80,
                "duration": 0.17954545454545467,
                "tempo": 120.0
            },
            {
                "start_time": 36.71363636363636,
                "end_time": 36.893181818181816,
                "pitch": 81,
                "velocity": 80,
                "duration": 0.17954545454545467,
                "tempo": 120.0
            },
            {
                "start_time": 36.90909090909091,
                "end_time": 37.095454545454544,
                "pitch": 76,
                "velocity": 80,
                "duration": 0.1863636363636374,
                "tempo": 120.0
            },
            {
                "start_time": 37.11363636363636,
                "end_time": 37.30227272727272,
                "pitch": 69,
                "velocity": 80,
                "duration": 0.1886363636363626,
                "tempo": 120.0
            },
            {
                "start_time": 37.31818181818181,
                "end_time": 37.49772727272727,
                "pitch": 72,
                "velocity": 80,
                "duration": 0.17954545454545467,
                "tempo": 120.0
            },
            {
                "start_time": 37.51590909090909,
                "end_time": 37.695454545454545,
                "pitch": 76,
                "velocity": 80,
                "duration": 0.17954545454545467,
                "tempo": 120.0
            },
            {
                "start_time": 37.711363636363636,
                "end_time": 37.9,
                "pitch": 72,
                "velocity": 80,
                "duration": 0.1886363636363626,
                "tempo": 120.0
            },
            {
                "start_time": 37.91590909090909,
                "end_time": 38.10454545454545,
                "pitch": 72,
                "velocity": 80,
                "duration": 0.1886363636363626,
                "tempo": 120.0
            },
            {
                "start_time": 38.12272727272727,
                "end_time": 38.30227272727272,
                "pitch": 71,
                "velocity": 80,
                "duration": 0.17954545454545467,
                "tempo": 120.0
            },
            {
                "start_time": 38.31818181818181,
                "end_time": 38.49772727272727,
                "pitch": 72,
                "velocity": 80,
                "duration": 0.17954545454545467,
                "tempo": 120.0
            },
            {
                "start_time": 38.51363636363636,
                "end_time": 38.70227272727273,
                "pitch": 73,
                "velocity": 80,
                "duration": 0.1886363636363697,
                "tempo": 120.0
            },
            {
                "start_time": 38.71818181818182,
                "end_time": 38.90681818181818,
                "pitch": 74,
                "velocity": 80,
                "duration": 0.1886363636363626,
                "tempo": 120.0
            },
            {
                "start_time": 38.925,
                "end_time": 39.10454545454545,
                "pitch": 75,
                "velocity": 80,
                "duration": 0.17954545454545467,
                "tempo": 120.0
            },
            {
                "start_time": 39.12045454545454,
                "end_time": 39.3,
                "pitch": 76,
                "velocity": 80,
                "duration": 0.17954545454545467,
                "tempo": 120.0
            },
            {
                "start_time": 39.52045454545454,
                "end_time": 39.709090909090904,
                "pitch": 64,
                "velocity": 80,
                "duration": 0.1886363636363626,
                "tempo": 120.0
            },
            {
                "start_time": 39.72727272727273,
                "end_time": 39.90681818181818,
                "pitch": 62,
                "velocity": 80,
                "duration": 0.17954545454545467,
                "tempo": 120.0
            },
            {
                "start_time": 40.11818181818182,
                "end_time": 40.30681818181818,
                "pitch": 64,
                "velocity": 80,
                "duration": 0.1886363636363626,
                "tempo": 120.0
            },
            {
                "start_time": 40.324999999999996,
                "end_time": 40.51363636363636,
                "pitch": 62,
                "velocity": 80,
                "duration": 0.1886363636363626,
                "tempo": 120.0
            },
            {
                "start_time": 40.725,
                "end_time": 40.904545454545456,
                "pitch": 64,
                "velocity": 80,
                "duration": 0.17954545454545467,
                "tempo": 120.0
            },
            {
                "start_time": 41.127272727272725,
                "end_time": 41.31590909090909,
                "pitch": 64,
                "velocity": 80,
                "duration": 0.1886363636363626,
                "tempo": 120.0
            },
            {
                "start_time": 41.33181818181818,
                "end_time": 41.51136363636363,
                "pitch": 62,
                "velocity": 80,
                "duration": 0.17954545454545467,
                "tempo": 120.0
            },
            {
                "start_time": 41.52954545454545,
                "end_time": 42.10681818181818,
                "pitch": 67,
                "velocity": 80,
                "duration": 0.577272727272728,
                "tempo": 120.0
            },
            {
                "start_time": 42.125,
                "end_time": 42.50681818181818,
                "pitch": 65,
                "velocity": 80,
                "duration": 0.3818181818181827,
                "tempo": 120.0
            },
            {
                "start_time": 42.72954545454545,
                "end_time": 42.918181818181814,
                "pitch": 64,
                "velocity": 80,
                "duration": 0.1886363636363626,
                "tempo": 120.0
            },
            {
                "start_time": 42.934090909090905,
                "end_time": 43.11590909090909,
                "pitch": 62,
                "velocity": 80,
                "duration": 0.18181818181818699,
                "tempo": 120.0
            },
            {
                "start_time": 43.32727272727273,
                "end_time": 43.51590909090909,
                "pitch": 64,
                "velocity": 80,
                "duration": 0.1886363636363626,
                "tempo": 120.0
            },
            {
                "start_time": 43.53181818181818,
                "end_time": 43.720454545454544,
                "pitch": 62,
                "velocity": 80,
                "duration": 0.1886363636363626,
                "tempo": 120.0
            },
            {
                "start_time": 43.934090909090905,
                "end_time": 44.11363636363636,
                "pitch": 64,
                "velocity": 80,
                "duration": 0.17954545454545467,
                "tempo": 120.0
            },
            {
                "start_time": 44.334090909090904,
                "end_time": 44.52272727272727,
                "pitch": 64,
                "velocity": 80,
                "duration": 0.1886363636363697,
                "tempo": 120.0
            },
            {
                "start_time": 44.54090909090909,
                "end_time": 44.720454545454544,
                "pitch": 62,
                "velocity": 80,
                "duration": 0.17954545454545467,
                "tempo": 120.0
            },
            {
                "start_time": 44.736363636363635,
                "end_time": 45.31590909090909,
                "pitch": 65,
                "velocity": 80,
                "duration": 0.5795454545454533,
                "tempo": 120.0
            },
            {
                "start_time": 45.33181818181818,
                "end_time": 45.71818181818182,
                "pitch": 67,
                "velocity": 80,
                "duration": 0.38636363636364024,
                "tempo": 120.0
            },
            {
                "start_time": 45.94090909090909,
                "end_time": 46.12954545454545,
                "pitch": 64,
                "velocity": 80,
                "duration": 0.1886363636363626,
                "tempo": 120.0
            },
            {
                "start_time": 46.14545454545454,
                "end_time": 46.324999999999996,
                "pitch": 62,
                "velocity": 80,
                "duration": 0.17954545454545467,
                "tempo": 120.0
            },
            {
                "start_time": 46.538636363636364,
                "end_time": 46.724999999999994,
                "pitch": 64,
                "velocity": 80,
                "duration": 0.1863636363636303,
                "tempo": 120.0
            },
            {
                "start_time": 46.74318181818182,
                "end_time": 46.93181818181818,
                "pitch": 62,
                "velocity": 80,
                "duration": 0.1886363636363626,
                "tempo": 120.0
            },
            {
                "start_time": 47.14545454545454,
                "end_time": 47.324999999999996,
                "pitch": 64,
                "velocity": 80,
                "duration": 0.17954545454545467,
                "tempo": 120.0
            },
            {
                "start_time": 47.54545454545454,
                "end_time": 47.73409090909091,
                "pitch": 64,
                "velocity": 80,
                "duration": 0.1886363636363697,
                "tempo": 120.0
            },
            {
                "start_time": 47.752272727272725,
                "end_time": 47.93181818181818,
                "pitch": 62,
                "velocity": 80,
                "duration": 0.17954545454545467,
                "tempo": 120.0
            },
            {
                "start_time": 47.94772727272727,
                "end_time": 48.527272727272724,
                "pitch": 67,
                "velocity": 80,
                "duration": 0.5795454545454533,
                "tempo": 120.0
            },
            {
                "start_time": 48.543181818181814,
                "end_time": 48.92727272727272,
                "pitch": 65,
                "velocity": 80,
                "duration": 0.38409090909090793,
                "tempo": 120.0
            },
            {
                "start_time": 49.14772727272727,
                "end_time": 49.336363636363636,
                "pitch": 64,
                "velocity": 80,
                "duration": 0.1886363636363626,
                "tempo": 120.0
            },
            {
                "start_time": 49.35454545454545,
                "end_time": 49.53409090909091,
                "pitch": 62,
                "velocity": 80,
                "duration": 0.17954545454545467,
                "tempo": 120.0
            },
            {
                "start_time": 49.74545454545454,
                "end_time": 49.934090909090905,
                "pitch": 64,
                "velocity": 80,
                "duration": 0.1886363636363626,
                "tempo": 120.0
            },
            {
                "start_time": 49.95227272727273,
                "end_time": 50.13863636363636,
                "pitch": 62,
                "velocity": 80,
                "duration": 0.1863636363636303,
                "tempo": 120.0
            },
            {
                "start_time": 50.35227272727273,
                "end_time": 50.53181818181818,
                "pitch": 67,
                "velocity": 80,
                "duration": 0.17954545454545467,
                "tempo": 120.0
            },
            {
                "start_time": 50.75454545454545,
                "end_time": 50.94318181818181,
                "pitch": 69,
                "velocity": 80,
                "duration": 0.1886363636363626,
                "tempo": 120.0
            },
            {
                "start_time": 51.16136363636363,
                "end_time": 51.345454545454544,
                "pitch": 60,
                "velocity": 80,
                "duration": 0.1840909090909122,
                "tempo": 120.0
            },
            {
                "start_time": 51.361363636363635,
                "end_time": 51.543181818181814,
                "pitch": 62,
                "velocity": 80,
                "duration": 0.18181818181817988,
                "tempo": 120.0
            },
            {
                "start_time": 51.559090909090905,
                "end_time": 51.73863636363636,
                "pitch": 64,
                "velocity": 80,
                "duration": 0.17954545454545467,
                "tempo": 120.0
            },
            {
                "start_time": 51.75454545454545,
                "end_time": 51.93863636363636,
                "pitch": 67,
                "velocity": 80,
                "duration": 0.1840909090909122,
                "tempo": 120.0
            },
            {
                "start_time": 51.95454545454545,
                "end_time": 52.13863636363636,
                "pitch": 69,
                "velocity": 80,
                "duration": 0.18409090909090509,
                "tempo": 120.0
            },
            {
                "start_time": 52.35909090909091,
                "end_time": 55.37954545454545,
                "pitch": 79,
                "velocity": 80,
                "duration": 3.020454545454541,
                "tempo": 120.0
            },
            {
                "start_time": 55.56818181818181,
                "end_time": 58.58863636363636,
                "pitch": 79,
                "velocity": 80,
                "duration": 3.020454545454548,
                "tempo": 120.0
            },
            {
                "start_time": 58.775,
                "end_time": 61.78181818181818,
                "pitch": 79,
                "velocity": 80,
                "duration": 3.0068181818181827,
                "tempo": 120.0
            },
            {
                "start_time": 61.986363636363635,
                "end_time": 63.37045454545454,
                "pitch": 79,
                "velocity": 80,
                "duration": 1.384090909090908,
                "tempo": 120.0
            },
            {
                "start_time": 63.99772727272727,
                "end_time": 64.18181818181817,
                "pitch": 48,
                "velocity": 80,
                "duration": 0.18409090909090509,
                "tempo": 120.0
            },
            {
                "start_time": 64.19772727272726,
                "end_time": 64.38181818181818,
                "pitch": 50,
                "velocity": 80,
                "duration": 0.1840909090909122,
                "tempo": 120.0
            },
            {
                "start_time": 64.39999999999999,
                "end_time": 64.5840909090909,
                "pitch": 52,
                "velocity": 80,
                "duration": 0.1840909090909122,
                "tempo": 120.0
            },
            {
                "start_time": 64.6,
                "end_time": 64.77954545454546,
                "pitch": 55,
                "velocity": 80,
                "duration": 0.17954545454546178,
                "tempo": 120.0
            },
            {
                "start_time": 64.79772727272727,
                "end_time": 64.97727272727272,
                "pitch": 57,
                "velocity": 80,
                "duration": 0.17954545454544757,
                "tempo": 120.0
            },
            {
                "start_time": 65.0090909090909,
                "end_time": 65.17954545454545,
                "pitch": 65,
                "velocity": 80,
                "duration": 0.17045454545454675,
                "tempo": 120.0
            },
            {
                "start_time": 65.19772727272726,
                "end_time": 65.38636363636364,
                "pitch": 65,
                "velocity": 80,
                "duration": 0.1886363636363768,
                "tempo": 120.0
            },
            {
                "start_time": 65.40227272727273,
                "end_time": 65.5840909090909,
                "pitch": 72,
                "velocity": 80,
                "duration": 0.18181818181817277,
                "tempo": 120.0
            },
            {
                "start_time": 65.6,
                "end_time": 65.77954545454546,
                "pitch": 67,
                "velocity": 80,
                "duration": 0.17954545454546178,
                "tempo": 120.0
            },
            {
                "start_time": 65.79545454545455,
                "end_time": 65.98409090909091,
                "pitch": 65,
                "velocity": 80,
                "duration": 0.1886363636363626,
                "tempo": 120.0
            },
            {
                "start_time": 66.0,
                "end_time": 66.18863636363636,
                "pitch": 72,
                "velocity": 80,
                "duration": 0.1886363636363626,
                "tempo": 120.0
            },
            {
                "start_time": 66.20681818181818,
                "end_time": 66.38636363636364,
                "pitch": 65,
                "velocity": 80,
                "duration": 0.17954545454546178,
                "tempo": 120.0
            },
            {
                "start_time": 66.40227272727273,
                "end_time": 66.58181818181818,
                "pitch": 67,
                "velocity": 80,
                "duration": 0.17954545454544757,
                "tempo": 120.0
            },
            {
                "start_time": 66.59772727272727,
                "end_time": 66.78636363636363,
                "pitch": 65,
                "velocity": 80,
                "duration": 0.1886363636363626,
                "tempo": 120.0
            },
            {
                "start_time": 66.80227272727272,
                "end_time": 66.99090909090908,
                "pitch": 67,
                "velocity": 80,
                "duration": 0.1886363636363626,
                "tempo": 120.0
            },
            {
                "start_time": 67.0090909090909,
                "end_time": 67.18863636363636,
                "pitch": 74,
                "velocity": 80,
                "duration": 0.17954545454546178,
                "tempo": 120.0
            },
            {
                "start_time": 67.20454545454545,
                "end_time": 67.3840909090909,
                "pitch": 69,
                "velocity": 80,
                "duration": 0.17954545454544757,
                "tempo": 120.0
            },
            {
                "start_time": 67.39999999999999,
                "end_time": 67.58863636363635,
                "pitch": 67,
                "velocity": 80,
                "duration": 0.1886363636363626,
                "tempo": 120.0
            },
            {
                "start_time": 67.60454545454544,
                "end_time": 67.79318181818182,
                "pitch": 74,
                "velocity": 80,
                "duration": 0.1886363636363768,
                "tempo": 120.0
            },
            {
                "start_time": 67.81136363636364,
                "end_time": 67.99090909090908,
                "pitch": 67,
                "velocity": 80,
                "duration": 0.17954545454544757,
                "tempo": 120.0
            },
            {
                "start_time": 68.00681818181818,
                "end_time": 68.18636363636364,
                "pitch": 69,
                "velocity": 80,
                "duration": 0.17954545454546178,
                "tempo": 120.0
            },
            {
                "start_time": 68.20227272727273,
                "end_time": 68.39090909090909,
                "pitch": 67,
                "velocity": 80,
                "duration": 0.1886363636363626,
                "tempo": 120.0
            },
            {
                "start_time": 68.4090909090909,
                "end_time": 68.59772727272727,
                "pitch": 69,
                "velocity": 80,
                "duration": 0.1886363636363626,
                "tempo": 120.0
            },
            {
                "start_time": 68.61363636363636,
                "end_time": 68.79318181818182,
                "pitch": 76,
                "velocity": 80,
                "duration": 0.17954545454546178,
                "tempo": 120.0
            },
            {
                "start_time": 68.80909090909091,
                "end_time": 68.98863636363636,
                "pitch": 72,
                "velocity": 80,
                "duration": 0.17954545454544757,
                "tempo": 120.0
            },
            {
                "start_time": 69.00681818181818,
                "end_time": 69.19318181818181,
                "pitch": 69,
                "velocity": 80,
                "duration": 0.1863636363636374,
                "tempo": 120.0
            },
            {
                "start_time": 69.21136363636363,
                "end_time": 69.39999999999999,
                "pitch": 76,
                "velocity": 80,
                "duration": 0.1886363636363626,
                "tempo": 120.0
            },
            {
                "start_time": 69.41590909090908,
                "end_time": 69.59545454545454,
                "pitch": 72,
                "velocity": 80,
                "duration": 0.17954545454546178,
                "tempo": 120.0
            },
            {
                "start_time": 69.61363636363636,
                "end_time": 69.79318181818182,
                "pitch": 76,
                "velocity": 80,
                "duration": 0.17954545454546178,
                "tempo": 120.0
            },
            {
                "start_time": 69.80909090909091,
                "end_time": 69.99545454545454,
                "pitch": 76,
                "velocity": 80,
                "duration": 0.1863636363636232,
                "tempo": 120.0
            },
            {
                "start_time": 70.01363636363637,
                "end_time": 70.20227272727273,
                "pitch": 81,
                "velocity": 80,
                "duration": 0.1886363636363626,
                "tempo": 120.0
            },
            {
                "start_time": 70.21818181818182,
                "end_time": 70.39772727272727,
                "pitch": 77,
                "velocity": 80,
                "duration": 0.17954545454544757,
                "tempo": 120.0
            },
            {
                "start_time": 70.41590909090908,
                "end_time": 70.59545454545454,
                "pitch": 79,
                "velocity": 80,
                "duration": 0.17954545454546178,
                "tempo": 120.0
            },
            {
                "start_time": 70.61136363636363,
                "end_time": 70.8,
                "pitch": 76,
                "velocity": 80,
                "duration": 0.1886363636363626,
                "tempo": 120.0
            },
            {
                "start_time": 70.81590909090909,
                "end_time": 71.00454545454545,
                "pitch": 77,
                "velocity": 80,
                "duration": 0.1886363636363626,
                "tempo": 120.0
            },
            {
                "start_time": 71.02272727272727,
                "end_time": 71.20227272727273,
                "pitch": 74,
                "velocity": 80,
                "duration": 0.17954545454546178,
                "tempo": 120.0
            },
            {
                "start_time": 71.21818181818182,
                "end_time": 71.39772727272727,
                "pitch": 76,
                "velocity": 80,
                "duration": 0.17954545454544757,
                "tempo": 120.0
            },
            {
                "start_time": 71.41363636363636,
                "end_time": 71.60227272727272,
                "pitch": 72,
                "velocity": 80,
                "duration": 0.1886363636363626,
                "tempo": 120.0
            },
            {
                "start_time": 71.61818181818181,
                "end_time": 71.80681818181817,
                "pitch": 65,
                "velocity": 80,
                "duration": 0.1886363636363626,
                "tempo": 120.0
            },
            {
                "start_time": 71.825,
                "end_time": 72.00454545454545,
                "pitch": 72,
                "velocity": 80,
                "duration": 0.17954545454544757,
                "tempo": 120.0
            },
            {
                "start_time": 72.02045454545454,
                "end_time": 72.2,
                "pitch": 67,
                "velocity": 80,
                "duration": 0.17954545454546178,
                "tempo": 120.0
            },
            {
                "start_time": 72.2159090909091,
                "end_time": 72.40454545454546,
                "pitch": 65,
                "velocity": 80,
                "duration": 0.1886363636363626,
                "tempo": 120.0
            },
            {
                "start_time": 72.42045454545455,
                "end_time": 72.60909090909091,
                "pitch": 72,
                "velocity": 80,
                "duration": 0.1886363636363626,
                "tempo": 120.0
            },
            {
                "start_time": 72.62727272727273,
                "end_time": 72.80681818181817,
                "pitch": 65,
                "velocity": 80,
                "duration": 0.17954545454544757,
                "tempo": 120.0
            },
            {
                "start_time": 72.82272727272726,
                "end_time": 73.00227272727273,
                "pitch": 67,
                "velocity": 80,
                "duration": 0.17954545454546178,
                "tempo": 120.0
            },
            {
                "start_time": 73.01818181818182,
                "end_time": 73.20681818181818,
                "pitch": 65,
                "velocity": 80,
                "duration": 0.1886363636363626,
                "tempo": 120.0
            },
            {
                "start_time": 73.225,
                "end_time": 73.41363636363636,
                "pitch": 67,
                "velocity": 80,
                "duration": 0.1886363636363626,
                "tempo": 120.0
            },
            {
                "start_time": 73.42954545454545,
                "end_time": 73.60909090909091,
                "pitch": 74,
                "velocity": 80,
                "duration": 0.17954545454546178,
                "tempo": 120.0
            },
            {
                "start_time": 73.625,
                "end_time": 73.80454545454545,
                "pitch": 69,
                "velocity": 80,
                "duration": 0.17954545454544757,
                "tempo": 120.0
            },
            {
                "start_time": 73.82272727272726,
                "end_time": 74.0090909090909,
                "pitch": 67,
                "velocity": 80,
                "duration": 0.1863636363636374,
                "tempo": 120.0
            },
            {
                "start_time": 74.02727272727272,
                "end_time": 74.2159090909091,
                "pitch": 74,
                "velocity": 80,
                "duration": 0.1886363636363768,
                "tempo": 120.0
            },
            {
                "start_time": 74.23181818181818,
                "end_time": 74.41136363636363,
                "pitch": 67,
                "velocity": 80,
                "duration": 0.17954545454544757,
                "tempo": 120.0
            },
            {
                "start_time": 74.42727272727272,
                "end_time": 74.60909090909091,
                "pitch": 69,
                "velocity": 80,
                "duration": 0.18181818181818699,
                "tempo": 120.0
            },
            {
                "start_time": 74.625,
                "end_time": 74.81136363636364,
                "pitch": 67,
                "velocity": 80,
                "duration": 0.1863636363636374,
                "tempo": 120.0
            },
            {
                "start_time": 74.82954545454545,
                "end_time": 75.01818181818182,
                "pitch": 69,
                "velocity": 80,
                "duration": 0.1886363636363626,
                "tempo": 120.0
            },
            {
                "start_time": 75.0340909090909,
                "end_time": 75.21363636363635,
                "pitch": 76,
                "velocity": 80,
                "duration": 0.17954545454544757,
                "tempo": 120.0
            },
            {
                "start_time": 75.23181818181818,
                "end_time": 75.41136363636363,
                "pitch": 72,
                "velocity": 80,
                "duration": 0.17954545454544757,
                "tempo": 120.0
            },
            {
                "start_time": 75.42727272727272,
                "end_time": 75.61590909090908,
                "pitch": 69,
                "velocity": 80,
                "duration": 0.1886363636363626,
                "tempo": 120.0
            },
            {
                "start_time": 75.63181818181818,
                "end_time": 75.82045454545454,
                "pitch": 76,
                "velocity": 80,
                "duration": 0.1886363636363626,
                "tempo": 120.0
            },
            {
                "start_time": 75.83863636363635,
                "end_time": 76.01818181818182,
                "pitch": 72,
                "velocity": 80,
                "duration": 0.17954545454546178,
                "tempo": 120.0
            },
            {
                "start_time": 76.0340909090909,
                "end_time": 76.21363636363635,
                "pitch": 76,
                "velocity": 80,
                "duration": 0.17954545454544757,
                "tempo": 120.0
            },
            {
                "start_time": 76.22954545454544,
                "end_time": 76.31590909090909,
                "pitch": 67,
                "velocity": 80,
                "duration": 0.08636363636364308,
                "tempo": 120.0
            },
            {
                "start_time": 76.3340909090909,
                "end_time": 76.42272727272727,
                "pitch": 62,
                "velocity": 80,
                "duration": 0.08863636363636829,
                "tempo": 120.0
            },
            {
                "start_time": 76.43863636363636,
                "end_time": 76.52727272727272,
                "pitch": 65,
                "velocity": 80,
                "duration": 0.08863636363635408,
                "tempo": 120.0
            },
            {
                "start_time": 76.54545454545455,
                "end_time": 76.6340909090909,
                "pitch": 67,
                "velocity": 80,
                "duration": 0.08863636363635408,
                "tempo": 120.0
            },
            {
                "start_time": 76.64999999999999,
                "end_time": 76.73409090909091,
                "pitch": 62,
                "velocity": 80,
                "duration": 0.08409090909091788,
                "tempo": 120.0
            },
            {
                "start_time": 76.75,
                "end_time": 76.83181818181818,
                "pitch": 65,
                "velocity": 80,
                "duration": 0.08181818181817846,
                "tempo": 120.0
            },
            {
                "start_time": 76.84772727272727,
                "end_time": 76.92954545454545,
                "pitch": 67,
                "velocity": 80,
                "duration": 0.08181818181817846,
                "tempo": 120.0
            },
            {
                "start_time": 76.94545454545454,
                "end_time": 77.02727272727272,
                "pitch": 62,
                "velocity": 80,
                "duration": 0.08181818181817846,
                "tempo": 120.0
            },
            {
                "start_time": 77.04318181818182,
                "end_time": 77.12727272727273,
                "pitch": 65,
                "velocity": 80,
                "duration": 0.08409090909090366,
                "tempo": 120.0
            },
            {
                "start_time": 77.14318181818182,
                "end_time": 77.22727272727272,
                "pitch": 67,
                "velocity": 80,
                "duration": 0.08409090909090366,
                "tempo": 120.0
            },
            {
                "start_time": 77.24545454545454,
                "end_time": 77.32954545454545,
                "pitch": 62,
                "velocity": 80,
                "duration": 0.08409090909091788,
                "tempo": 120.0
            },
            {
                "start_time": 77.34545454545454,
                "end_time": 77.42954545454545,
                "pitch": 65,
                "velocity": 80,
                "duration": 0.08409090909090366,
                "tempo": 120.0
            },
            {
                "start_time": 77.44545454545454,
                "end_time": 77.53181818181818,
                "pitch": 67,
                "velocity": 80,
                "duration": 0.08636363636364308,
                "tempo": 120.0
            },
            {
                "start_time": 77.54772727272727,
                "end_time": 77.6340909090909,
                "pitch": 62,
                "velocity": 80,
                "duration": 0.08636363636362887,
                "tempo": 120.0
            },
            {
                "start_time": 77.65227272727272,
                "end_time": 77.73636363636363,
                "pitch": 65,
                "velocity": 80,
                "duration": 0.08409090909091788,
                "tempo": 120.0
            },
            {
                "start_time": 77.75454545454545,
                "end_time": 77.83863636363635,
                "pitch": 67,
                "velocity": 80,
                "duration": 0.08409090909090366,
                "tempo": 120.0
            },
            {
                "start_time": 77.85681818181818,
                "end_time": 79.42727272727272,
                "pitch": 48,
                "velocity": 80,
                "duration": 1.5704545454545382,
                "tempo": 120.0
            },
            {
                "start_time": 79.44545454545454,
                "end_time": 81.0340909090909,
                "pitch": 48,
                "velocity": 80,
                "duration": 1.5886363636363683,
                "tempo": 120.0
            },
            {
                "start_time": 81.05,
                "end_time": 82.63863636363637,
                "pitch": 53,
                "velocity": 80,
                "duration": 1.5886363636363683,
                "tempo": 120.0
            },
            {
                "start_time": 82.65454545454546,
                "end_time": 84.24318181818181,
                "pitch": 53,
                "velocity": 80,
                "duration": 1.588636363636354,
                "tempo": 120.0
            },
            {
                "start_time": 84.2590909090909,
                "end_time": 85.85,
                "pitch": 48,
                "velocity": 80,
                "duration": 1.5909090909090935,
                "tempo": 120.0
            },
            {
                "start_time": 85.86590909090908,
                "end_time": 87.45454545454545,
                "pitch": 48,
                "velocity": 80,
                "duration": 1.5886363636363683,
                "tempo": 120.0
            },
            {
                "start_time": 87.47045454545454,
                "end_time": 89.0590909090909,
                "pitch": 47,
                "velocity": 80,
                "duration": 1.588636363636354,
                "tempo": 120.0
            },
            {
                "start_time": 89.27499999999999,
                "end_time": 89.4590909090909,
                "pitch": 47,
                "velocity": 80,
                "duration": 0.1840909090909122,
                "tempo": 120.0
            },
            {
                "start_time": 89.87954545454545,
                "end_time": 90.66363636363636,
                "pitch": 47,
                "velocity": 80,
                "duration": 0.7840909090909065,
                "tempo": 120.0
            },
            {
                "start_time": 90.68181818181817,
                "end_time": 92.27045454545454,
                "pitch": 48,
                "velocity": 80,
                "duration": 1.5886363636363683,
                "tempo": 120.0
            },
            {
                "start_time": 92.28636363636363,
                "end_time": 93.875,
                "pitch": 48,
                "velocity": 80,
                "duration": 1.5886363636363683,
                "tempo": 120.0
            },
            {
                "start_time": 93.89318181818182,
                "end_time": 95.48181818181818,
                "pitch": 50,
                "velocity": 80,
                "duration": 1.5886363636363683,
                "tempo": 120.0
            },
            {
                "start_time": 95.49772727272727,
                "end_time": 97.08636363636363,
                "pitch": 50,
                "velocity": 80,
                "duration": 1.588636363636354,
                "tempo": 120.0
            },
            {
                "start_time": 97.10227272727272,
                "end_time": 98.69090909090909,
                "pitch": 48,
                "velocity": 80,
                "duration": 1.5886363636363683,
                "tempo": 120.0
            },
            {
                "start_time": 98.7090909090909,
                "end_time": 100.29772727272727,
                "pitch": 48,
                "velocity": 80,
                "duration": 1.5886363636363683,
                "tempo": 120.0
            },
            {
                "start_time": 100.51590909090909,
                "end_time": 100.69999999999999,
                "pitch": 52,
                "velocity": 80,
                "duration": 0.18409090909089798,
                "tempo": 120.0
            },
            {
                "start_time": 101.12727272727273,
                "end_time": 101.90454545454546,
                "pitch": 52,
                "velocity": 80,
                "duration": 0.7772727272727309,
                "tempo": 120.0
            },
            {
                "start_time": 102.12727272727273,
                "end_time": 102.7090909090909,
                "pitch": 52,
                "velocity": 80,
                "duration": 0.5818181818181785,
                "tempo": 120.0
            },
            {
                "start_time": 102.725,
                "end_time": 103.51136363636363,
                "pitch": 56,
                "velocity": 80,
                "duration": 0.7863636363636317,
                "tempo": 120.0
            }
        ],
        "Harpsichord": [
            {
                "start_time": 12.670454545454545,
                "end_time": 12.854545454545454,
                "pitch": 60,
                "velocity": 51,
                "duration": 0.18409090909090864,
                "tempo": 120.0
            },
            {
                "start_time": 12.870454545454544,
                "end_time": 13.049999999999999,
                "pitch": 62,
                "velocity": 51,
                "duration": 0.17954545454545467,
                "tempo": 120.0
            },
            {
                "start_time": 13.068181818181818,
                "end_time": 13.247727272727271,
                "pitch": 64,
                "velocity": 51,
                "duration": 0.1795454545454529,
                "tempo": 120.0
            },
            {
                "start_time": 13.263636363636364,
                "end_time": 13.447727272727272,
                "pitch": 67,
                "velocity": 51,
                "duration": 0.18409090909090864,
                "tempo": 120.0
            },
            {
                "start_time": 13.463636363636363,
                "end_time": 13.647727272727272,
                "pitch": 69,
                "velocity": 51,
                "duration": 0.18409090909090864,
                "tempo": 120.0
            },
            {
                "start_time": 25.513636363636362,
                "end_time": 25.69772727272727,
                "pitch": 60,
                "velocity": 51,
                "duration": 0.18409090909090864,
                "tempo": 120.0
            },
            {
                "start_time": 25.71590909090909,
                "end_time": 25.89772727272727,
                "pitch": 62,
                "velocity": 51,
                "duration": 0.18181818181817988,
                "tempo": 120.0
            },
            {
                "start_time": 25.91590909090909,
                "end_time": 26.097727272727273,
                "pitch": 64,
                "velocity": 51,
                "duration": 0.18181818181818343,
                "tempo": 120.0
            },
            {
                "start_time": 26.113636363636363,
                "end_time": 26.295454545454543,
                "pitch": 67,
                "velocity": 51,
                "duration": 0.18181818181817988,
                "tempo": 120.0
            },
            {
                "start_time": 26.311363636363634,
                "end_time": 26.49090909090909,
                "pitch": 69,
                "velocity": 51,
                "duration": 0.17954545454545467,
                "tempo": 120.0
            },
            {
                "start_time": 26.509090909090908,
                "end_time": 26.695454545454545,
                "pitch": 65,
                "velocity": 51,
                "duration": 0.1863636363636374,
                "tempo": 120.0
            },
            {
                "start_time": 26.71363636363636,
                "end_time": 26.9,
                "pitch": 72,
                "velocity": 51,
                "duration": 0.1863636363636374,
                "tempo": 120.0
            },
            {
                "start_time": 26.918181818181818,
                "end_time": 27.097727272727273,
                "pitch": 67,
                "velocity": 51,
                "duration": 0.17954545454545467,
                "tempo": 120.0
            },
            {
                "start_time": 27.113636363636363,
                "end_time": 27.293181818181818,
                "pitch": 65,
                "velocity": 51,
                "duration": 0.17954545454545467,
                "tempo": 120.0
            },
            {
                "start_time": 27.311363636363634,
                "end_time": 27.5,
                "pitch": 72,
                "velocity": 51,
                "duration": 0.18863636363636616,
                "tempo": 120.0
            },
            {
                "start_time": 27.51590909090909,
                "end_time": 27.704545454545453,
                "pitch": 65,
                "velocity": 51,
                "duration": 0.1886363636363626,
                "tempo": 120.0
            },
            {
                "start_time": 27.720454545454544,
                "end_time": 27.9,
                "pitch": 67,
                "velocity": 51,
                "duration": 0.17954545454545467,
                "tempo": 120.0
            },
            {
                "start_time": 27.91590909090909,
                "end_time": 28.095454545454544,
                "pitch": 65,
                "velocity": 51,
                "duration": 0.17954545454545467,
                "tempo": 120.0
            },
            {
                "start_time": 28.113636363636363,
                "end_time": 28.302272727272726,
                "pitch": 67,
                "velocity": 51,
                "duration": 0.1886363636363626,
                "tempo": 120.0
            },
            {
                "start_time": 28.318181818181817,
                "end_time": 28.50681818181818,
                "pitch": 74,
                "velocity": 51,
                "duration": 0.1886363636363626,
                "tempo": 120.0
            },
            {
                "start_time": 28.52272727272727,
                "end_time": 28.702272727272724,
                "pitch": 69,
                "velocity": 51,
                "duration": 0.17954545454545467,
                "tempo": 120.0
            },
            {
                "start_time": 28.718181818181815,
                "end_time": 28.89772727272727,
                "pitch": 67,
                "velocity": 51,
                "duration": 0.17954545454545467,
                "tempo": 120.0
            },
            {
                "start_time": 28.91590909090909,
                "end_time": 29.104545454545452,
                "pitch": 74,
                "velocity": 51,
                "duration": 0.1886363636363626,
                "tempo": 120.0
            },
            {
                "start_time": 29.120454545454542,
                "end_time": 29.30909090909091,
                "pitch": 67,
                "velocity": 51,
                "duration": 0.18863636363636616,
                "tempo": 120.0
            },
            {
                "start_time": 29.325,
                "end_time": 29.504545454545454,
                "pitch": 69,
                "velocity": 51,
                "duration": 0.17954545454545467,
                "tempo": 120.0
            },
            {
                "start_time": 29.520454545454545,
                "end_time": 29.702272727272724,
                "pitch": 67,
                "velocity": 51,
                "duration": 0.18181818181817988,
                "tempo": 120.0
            },
            {
                "start_time": 29.718181818181815,
                "end_time": 29.90681818181818,
                "pitch": 69,
                "velocity": 51,
                "duration": 0.18863636363636616,
                "tempo": 120.0
            },
            {
                "start_time": 29.924999999999997,
                "end_time": 30.111363636363635,
                "pitch": 76,
                "velocity": 51,
                "duration": 0.1863636363636374,
                "tempo": 120.0
            },
            {
                "start_time": 30.127272727272725,
                "end_time": 30.30681818181818,
                "pitch": 72,
                "velocity": 51,
                "duration": 0.17954545454545467,
                "tempo": 120.0
            },
            {
                "start_time": 30.325,
                "end_time": 30.504545454545454,
                "pitch": 81,
                "velocity": 51,
                "duration": 0.17954545454545467,
                "tempo": 120.0
            },
            {
                "start_time": 30.520454545454545,
                "end_time": 30.709090909090907,
                "pitch": 76,
                "velocity": 51,
                "duration": 0.1886363636363626,
                "tempo": 120.0
            },
            {
                "start_time": 30.727272727272727,
                "end_time": 30.91363636363636,
                "pitch": 69,
                "velocity": 51,
                "duration": 0.18636363636363384,
                "tempo": 120.0
            },
            {
                "start_time": 30.929545454545455,
                "end_time": 31.111363636363635,
                "pitch": 72,
                "velocity": 51,
                "duration": 0.18181818181817988,
                "tempo": 120.0
            },
            {
                "start_time": 31.127272727272725,
                "end_time": 31.30681818181818,
                "pitch": 76,
                "velocity": 51,
                "duration": 0.17954545454545467,
                "tempo": 120.0
            },
            {
                "start_time": 31.325,
                "end_time": 31.511363636363633,
                "pitch": 81,
                "velocity": 51,
                "duration": 0.18636363636363384,
                "tempo": 120.0
            },
            {
                "start_time": 31.529545454545453,
                "end_time": 31.71590909090909,
                "pitch": 77,
                "velocity": 51,
                "duration": 0.1863636363636374,
                "tempo": 120.0
            },
            {
                "start_time": 31.734090909090906,
                "end_time": 31.91363636363636,
                "pitch": 79,
                "velocity": 51,
                "duration": 0.17954545454545467,
                "tempo": 120.0
            },
            {
                "start_time": 31.929545454545455,
                "end_time": 32.10909090909091,
                "pitch": 76,
                "velocity": 51,
                "duration": 0.17954545454545467,
                "tempo": 120.0
            },
            {
                "start_time": 32.127272727272725,
                "end_time": 32.31590909090909,
                "pitch": 77,
                "velocity": 51,
                "duration": 0.1886363636363626,
                "tempo": 120.0
            },
            {
                "start_time": 32.33181818181818,
                "end_time": 32.52045454545454,
                "pitch": 74,
                "velocity": 51,
                "duration": 0.1886363636363626,
                "tempo": 120.0
            },
            {
                "start_time": 32.53636363636363,
                "end_time": 32.715909090909086,
                "pitch": 76,
                "velocity": 51,
                "duration": 0.17954545454545467,
                "tempo": 120.0
            },
            {
                "start_time": 32.73181818181818,
                "end_time": 32.91136363636363,
                "pitch": 72,
                "velocity": 51,
                "duration": 0.17954545454545467,
                "tempo": 120.0
            },
            {
                "start_time": 32.929545454545455,
                "end_time": 33.11818181818182,
                "pitch": 65,
                "velocity": 51,
                "duration": 0.1886363636363626,
                "tempo": 120.0
            },
            {
                "start_time": 33.13409090909091,
                "end_time": 33.32272727272727,
                "pitch": 72,
                "velocity": 51,
                "duration": 0.1886363636363626,
                "tempo": 120.0
            },
            {
                "start_time": 33.33863636363636,
                "end_time": 33.518181818181816,
                "pitch": 67,
                "velocity": 51,
                "duration": 0.17954545454545467,
                "tempo": 120.0
            },
            {
                "start_time": 33.53409090909091,
                "end_time": 33.71363636363636,
                "pitch": 65,
                "velocity": 51,
                "duration": 0.17954545454545467,
                "tempo": 120.0
            },
            {
                "start_time": 33.73181818181818,
                "end_time": 33.92045454545455,
                "pitch": 72,
                "velocity": 51,
                "duration": 0.1886363636363697,
                "tempo": 120.0
            },
            {
                "start_time": 33.93636363636364,
                "end_time": 34.125,
                "pitch": 65,
                "velocity": 51,
                "duration": 0.1886363636363626,
                "tempo": 120.0
            },
            {
                "start_time": 34.14090909090909,
                "end_time": 34.320454545454545,
                "pitch": 67,
                "velocity": 51,
                "duration": 0.17954545454545467,
                "tempo": 120.0
            },
            {
                "start_time": 34.336363636363636,
                "end_time": 34.518181818181816,
                "pitch": 65,
                "velocity": 51,
                "duration": 0.18181818181817988,
                "tempo": 120.0
            },
            {
                "start_time": 34.53409090909091,
                "end_time": 34.72272727272727,
                "pitch": 67,
                "velocity": 51,
                "duration": 0.1886363636363626,
                "tempo": 120.0
            },
            {
                "start_time": 34.74090909090909,
                "end_time": 34.92727272727272,
                "pitch": 74,
                "velocity": 51,
                "duration": 0.1863636363636303,
                "tempo": 120.0
            },
            {
                "start_time": 34.94318181818181,
                "end_time": 35.12272727272727,
                "pitch": 69,
                "velocity": 51,
                "duration": 0.17954545454545467,
                "tempo": 120.0
            },
            {
                "start_time": 35.14090909090909,
                "end_time": 35.320454545454545,
                "pitch": 67,
                "velocity": 51,
                "duration": 0.17954545454545467,
                "tempo": 120.0
            },
            {
                "start_time": 35.336363636363636,
                "end_time": 35.525,
                "pitch": 74,
                "velocity": 51,
                "duration": 0.1886363636363626,
                "tempo": 120.0
            },
            {
                "start_time": 35.543181818181814,
                "end_time": 35.72954545454545,
                "pitch": 67,
                "velocity": 51,
                "duration": 0.1863636363636374,
                "tempo": 120.0
            },
            {
                "start_time": 35.74545454545454,
                "end_time": 35.92727272727272,
                "pitch": 69,
                "velocity": 51,
                "duration": 0.18181818181817988,
                "tempo": 120.0
            },
            {
                "start_time": 35.94318181818181,
                "end_time": 36.12272727272727,
                "pitch": 67,
                "velocity": 51,
                "duration": 0.17954545454545467,
                "tempo": 120.0
            },
            {
                "start_time": 36.13863636363636,
                "end_time": 36.32727272727273,
                "pitch": 69,
                "velocity": 51,
                "duration": 0.1886363636363697,
                "tempo": 120.0
            },
            {
                "start_time": 36.345454545454544,
                "end_time": 36.53181818181818,
                "pitch": 76,
                "velocity": 51,
                "duration": 0.1863636363636374,
                "tempo": 120.0
            },
            {
                "start_time": 36.55,
                "end_time": 36.72954545454545,
                "pitch": 72,
                "velocity": 51,
                "duration": 0.17954545454545467,
                "tempo": 120.0
            },
            {
                "start_time": 36.74545454545454,
                "end_time": 36.925,
                "pitch": 81,
                "velocity": 51,
                "duration": 0.17954545454545467,
                "tempo": 120.0
            },
            {
                "start_time": 36.94318181818181,
                "end_time": 37.13181818181818,
                "pitch": 76,
                "velocity": 51,
                "duration": 0.1886363636363697,
                "tempo": 120.0
            },
            {
                "start_time": 37.14772727272727,
                "end_time": 37.336363636363636,
                "pitch": 69,
                "velocity": 51,
                "duration": 0.1886363636363626,
                "tempo": 120.0
            },
            {
                "start_time": 37.35227272727273,
                "end_time": 37.53181818181818,
                "pitch": 72,
                "velocity": 51,
                "duration": 0.17954545454545467,
                "tempo": 120.0
            },
            {
                "start_time": 37.54772727272727,
                "end_time": 37.72727272727273,
                "pitch": 76,
                "velocity": 51,
                "duration": 0.17954545454545467,
                "tempo": 120.0
            },
            {
                "start_time": 37.74545454545454,
                "end_time": 37.934090909090905,
                "pitch": 72,
                "velocity": 51,
                "duration": 0.1886363636363626,
                "tempo": 120.0
            },
            {
                "start_time": 37.949999999999996,
                "end_time": 38.13863636363636,
                "pitch": 72,
                "velocity": 51,
                "duration": 0.1886363636363626,
                "tempo": 120.0
            },
            {
                "start_time": 38.154545454545456,
                "end_time": 38.33409090909091,
                "pitch": 71,
                "velocity": 51,
                "duration": 0.17954545454545467,
                "tempo": 120.0
            },
            {
                "start_time": 38.35,
                "end_time": 38.529545454545456,
                "pitch": 72,
                "velocity": 51,
                "duration": 0.17954545454545467,
                "tempo": 120.0
            },
            {
                "start_time": 38.54772727272727,
                "end_time": 38.736363636363635,
                "pitch": 73,
                "velocity": 51,
                "duration": 0.1886363636363626,
                "tempo": 120.0
            },
            {
                "start_time": 38.752272727272725,
                "end_time": 38.94090909090909,
                "pitch": 74,
                "velocity": 51,
                "duration": 0.1886363636363626,
                "tempo": 120.0
            },
            {
                "start_time": 38.95681818181818,
                "end_time": 39.13636363636363,
                "pitch": 75,
                "velocity": 51,
                "duration": 0.17954545454545467,
                "tempo": 120.0
            },
            {
                "start_time": 39.152272727272724,
                "end_time": 39.334090909090904,
                "pitch": 76,
                "velocity": 51,
                "duration": 0.18181818181817988,
                "tempo": 120.0
            },
            {
                "start_time": 51.195454545454545,
                "end_time": 51.37954545454545,
                "pitch": 60,
                "velocity": 51,
                "duration": 0.18409090909090509,
                "tempo": 120.0
            },
            {
                "start_time": 51.39545454545454,
                "end_time": 51.574999999999996,
                "pitch": 62,
                "velocity": 51,
                "duration": 0.17954545454545467,
                "tempo": 120.0
            },
            {
                "start_time": 51.590909090909086,
                "end_time": 51.77045454545454,
                "pitch": 64,
                "velocity": 51,
                "duration": 0.17954545454545467,
                "tempo": 120.0
            },
            {
                "start_time": 51.788636363636364,
                "end_time": 51.970454545454544,
                "pitch": 67,
                "velocity": 51,
                "duration": 0.18181818181817988,
                "tempo": 120.0
            },
            {
                "start_time": 51.98863636363636,
                "end_time": 52.17045454545454,
                "pitch": 69,
                "velocity": 51,
                "duration": 0.18181818181817988,
                "tempo": 120.0
            },
            {
                "start_time": 64.03181818181818,
                "end_time": 64.21363636363635,
                "pitch": 60,
                "velocity": 51,
                "duration": 0.18181818181817277,
                "tempo": 120.0
            },
            {
                "start_time": 64.23181818181818,
                "end_time": 64.41590909090908,
                "pitch": 62,
                "velocity": 51,
                "duration": 0.18409090909089798,
                "tempo": 120.0
            },
            {
                "start_time": 64.43181818181817,
                "end_time": 64.61590909090908,
                "pitch": 64,
                "velocity": 51,
                "duration": 0.1840909090909122,
                "tempo": 120.0
            },
            {
                "start_time": 64.6340909090909,
                "end_time": 64.81363636363636,
                "pitch": 67,
                "velocity": 51,
                "duration": 0.17954545454546178,
                "tempo": 120.0
            },
            {
                "start_time": 64.82954545454545,
                "end_time": 65.0090909090909,
                "pitch": 69,
                "velocity": 51,
                "duration": 0.17954545454544757,
                "tempo": 120.0
            },
            {
                "start_time": 65.02727272727273,
                "end_time": 65.2159090909091,
                "pitch": 65,
                "velocity": 51,
                "duration": 0.1886363636363626,
                "tempo": 120.0
            },
            {
                "start_time": 65.23181818181818,
                "end_time": 65.42045454545455,
                "pitch": 65,
                "velocity": 51,
                "duration": 0.1886363636363626,
                "tempo": 120.0
            },
            {
                "start_time": 65.43636363636364,
                "end_time": 65.61590909090908,
                "pitch": 72,
                "velocity": 51,
                "duration": 0.17954545454544757,
                "tempo": 120.0
            },
            {
                "start_time": 65.63181818181818,
                "end_time": 65.81136363636364,
                "pitch": 67,
                "velocity": 51,
                "duration": 0.17954545454546178,
                "tempo": 120.0
            },
            {
                "start_time": 65.82954545454545,
                "end_time": 66.01818181818182,
                "pitch": 65,
                "velocity": 51,
                "duration": 0.1886363636363626,
                "tempo": 120.0
            },
            {
                "start_time": 66.0340909090909,
                "end_time": 66.22272727272727,
                "pitch": 72,
                "velocity": 51,
                "duration": 0.1886363636363626,
                "tempo": 120.0
            },
            {
                "start_time": 66.23863636363636,
                "end_time": 66.41818181818182,
                "pitch": 65,
                "velocity": 51,
                "duration": 0.17954545454546178,
                "tempo": 120.0
            },
            {
                "start_time": 66.43409090909091,
                "end_time": 66.61363636363636,
                "pitch": 67,
                "velocity": 51,
                "duration": 0.17954545454544757,
                "tempo": 120.0
            },
            {
                "start_time": 66.63181818181818,
                "end_time": 66.82045454545454,
                "pitch": 65,
                "velocity": 51,
                "duration": 0.1886363636363626,
                "tempo": 120.0
            },
            {
                "start_time": 66.83636363636363,
                "end_time": 67.02499999999999,
                "pitch": 67,
                "velocity": 51,
                "duration": 0.1886363636363626,
                "tempo": 120.0
            },
            {
                "start_time": 67.04090909090908,
                "end_time": 67.22045454545454,
                "pitch": 74,
                "velocity": 51,
                "duration": 0.17954545454546178,
                "tempo": 120.0
            },
            {
                "start_time": 67.23636363636363,
                "end_time": 67.41818181818182,
                "pitch": 69,
                "velocity": 51,
                "duration": 0.18181818181818699,
                "tempo": 120.0
            },
            {
                "start_time": 67.43409090909091,
                "end_time": 67.62272727272727,
                "pitch": 67,
                "velocity": 51,
                "duration": 0.1886363636363626,
                "tempo": 120.0
            },
            {
                "start_time": 67.64090909090909,
                "end_time": 67.82727272727273,
                "pitch": 74,
                "velocity": 51,
                "duration": 0.1863636363636374,
                "tempo": 120.0
            },
            {
                "start_time": 67.84318181818182,
                "end_time": 68.02272727272727,
                "pitch": 67,
                "velocity": 51,
                "duration": 0.17954545454544757,
                "tempo": 120.0
            },
            {
                "start_time": 68.04090909090908,
                "end_time": 68.22045454545454,
                "pitch": 69,
                "velocity": 51,
                "duration": 0.17954545454546178,
                "tempo": 120.0
            },
            {
                "start_time": 68.23636363636363,
                "end_time": 68.425,
                "pitch": 67,
                "velocity": 51,
                "duration": 0.1886363636363626,
                "tempo": 120.0
            },
            {
                "start_time": 68.44318181818181,
                "end_time": 68.62954545454545,
                "pitch": 69,
                "velocity": 51,
                "duration": 0.1863636363636374,
                "tempo": 120.0
            },
            {
                "start_time": 68.64545454545454,
                "end_time": 68.82727272727273,
                "pitch": 76,
                "velocity": 51,
                "duration": 0.18181818181818699,
                "tempo": 120.0
            },
            {
                "start_time": 68.84318181818182,
                "end_time": 69.02272727272727,
                "pitch": 72,
                "velocity": 51,
                "duration": 0.17954545454544757,
                "tempo": 120.0
            },
            {
                "start_time": 69.03863636363636,
                "end_time": 69.22727272727272,
                "pitch": 69,
                "velocity": 51,
                "duration": 0.1886363636363626,
                "tempo": 120.0
            },
            {
                "start_time": 69.24545454545454,
                "end_time": 69.43181818181817,
                "pitch": 76,
                "velocity": 51,
                "duration": 0.1863636363636374,
                "tempo": 120.0
            },
            {
                "start_time": 69.45,
                "end_time": 69.62954545454545,
                "pitch": 72,
                "velocity": 51,
                "duration": 0.17954545454544757,
                "tempo": 120.0
            },
            {
                "start_time": 69.64545454545454,
                "end_time": 69.825,
                "pitch": 76,
                "velocity": 51,
                "duration": 0.17954545454546178,
                "tempo": 120.0
            },
            {
                "start_time": 69.84318181818182,
                "end_time": 70.03181818181818,
                "pitch": 76,
                "velocity": 51,
                "duration": 0.1886363636363626,
                "tempo": 120.0
            },
            {
                "start_time": 70.04772727272727,
                "end_time": 70.23636363636363,
                "pitch": 81,
                "velocity": 51,
                "duration": 0.1886363636363626,
                "tempo": 120.0
            },
            {
                "start_time": 70.25227272727273,
                "end_time": 70.43181818181817,
                "pitch": 77,
                "velocity": 51,
                "duration": 0.17954545454544757,
                "tempo": 120.0
            },
            {
                "start_time": 70.44772727272726,
                "end_time": 70.62727272727273,
                "pitch": 79,
                "velocity": 51,
                "duration": 0.17954545454546178,
                "tempo": 120.0
            },
            {
                "start_time": 70.64545454545454,
                "end_time": 70.8340909090909,
                "pitch": 76,
                "velocity": 51,
                "duration": 0.1886363636363626,
                "tempo": 120.0
            },
            {
                "start_time": 70.85,
                "end_time": 71.03863636363636,
                "pitch": 77,
                "velocity": 51,
                "duration": 0.1886363636363626,
                "tempo": 120.0
            },
            {
                "start_time": 71.05454545454545,
                "end_time": 71.23409090909091,
                "pitch": 74,
                "velocity": 51,
                "duration": 0.17954545454546178,
                "tempo": 120.0
            },
            {
                "start_time": 71.25,
                "end_time": 71.42954545454545,
                "pitch": 76,
                "velocity": 51,
                "duration": 0.17954545454544757,
                "tempo": 120.0
            },
            {
                "start_time": 71.44772727272726,
                "end_time": 71.63636363636363,
                "pitch": 72,
                "velocity": 51,
                "duration": 0.1886363636363626,
                "tempo": 120.0
            },
            {
                "start_time": 71.65227272727273,
                "end_time": 71.8409090909091,
                "pitch": 65,
                "velocity": 51,
                "duration": 0.1886363636363626,
                "tempo": 120.0
            },
            {
                "start_time": 71.85681818181818,
                "end_time": 72.03636363636363,
                "pitch": 72,
                "velocity": 51,
                "duration": 0.17954545454544757,
                "tempo": 120.0
            },
            {
                "start_time": 72.05227272727272,
                "end_time": 72.23409090909091,
                "pitch": 67,
                "velocity": 51,
                "duration": 0.18181818181818699,
                "tempo": 120.0
            },
            {
                "start_time": 72.25,
                "end_time": 72.43863636363636,
                "pitch": 65,
                "velocity": 51,
                "duration": 0.1886363636363626,
                "tempo": 120.0
            },
            {
                "start_time": 72.45681818181818,
                "end_time": 72.64318181818182,
                "pitch": 72,
                "velocity": 51,
                "duration": 0.1863636363636374,
                "tempo": 120.0
            },
            {
                "start_time": 72.6590909090909,
                "end_time": 72.83863636363635,
                "pitch": 65,
                "velocity": 51,
                "duration": 0.17954545454544757,
                "tempo": 120.0
            },
            {
                "start_time": 72.85681818181818,
                "end_time": 73.03636363636363,
                "pitch": 67,
                "velocity": 51,
                "duration": 0.17954545454544757,
                "tempo": 120.0
            },
            {
                "start_time": 73.05227272727272,
                "end_time": 73.24090909090908,
                "pitch": 65,
                "velocity": 51,
                "duration": 0.1886363636363626,
                "tempo": 120.0
            },
            {
                "start_time": 73.2590909090909,
                "end_time": 73.44545454545454,
                "pitch": 67,
                "velocity": 51,
                "duration": 0.1863636363636374,
                "tempo": 120.0
            },
            {
                "start_time": 73.46136363636363,
                "end_time": 73.64318181818182,
                "pitch": 74,
                "velocity": 51,
                "duration": 0.18181818181818699,
                "tempo": 120.0
            },
            {
                "start_time": 73.6590909090909,
                "end_time": 73.83863636363635,
                "pitch": 69,
                "velocity": 51,
                "duration": 0.17954545454544757,
                "tempo": 120.0
            },
            {
                "start_time": 73.85454545454544,
                "end_time": 74.04318181818182,
                "pitch": 67,
                "velocity": 51,
                "duration": 0.1886363636363768,
                "tempo": 120.0
            },
            {
                "start_time": 74.06136363636364,
                "end_time": 74.24772727272727,
                "pitch": 74,
                "velocity": 51,
                "duration": 0.1863636363636374,
                "tempo": 120.0
            },
            {
                "start_time": 74.26590909090909,
                "end_time": 74.44545454545454,
                "pitch": 67,
                "velocity": 51,
                "duration": 0.17954545454544757,
                "tempo": 120.0
            },
            {
                "start_time": 74.46136363636363,
                "end_time": 74.64090909090909,
                "pitch": 69,
                "velocity": 51,
                "duration": 0.17954545454546178,
                "tempo": 120.0
            },
            {
                "start_time": 74.6590909090909,
                "end_time": 74.84772727272727,
                "pitch": 67,
                "velocity": 51,
                "duration": 0.1886363636363626,
                "tempo": 120.0
            },
            {
                "start_time": 74.86363636363636,
                "end_time": 75.05227272727272,
                "pitch": 69,
                "velocity": 51,
                "duration": 0.1886363636363626,
                "tempo": 120.0
            },
            {
                "start_time": 75.06818181818181,
                "end_time": 75.24772727272727,
                "pitch": 76,
                "velocity": 51,
                "duration": 0.17954545454546178,
                "tempo": 120.0
            },
            {
                "start_time": 75.26363636363637,
                "end_time": 75.44318181818181,
                "pitch": 72,
                "velocity": 51,
                "duration": 0.17954545454544757,
                "tempo": 120.0
            },
            {
                "start_time": 75.46136363636363,
                "end_time": 75.64999999999999,
                "pitch": 69,
                "velocity": 51,
                "duration": 0.1886363636363626,
                "tempo": 120.0
            },
            {
                "start_time": 75.66590909090908,
                "end_time": 75.85454545454544,
                "pitch": 76,
                "velocity": 51,
                "duration": 0.1886363636363626,
                "tempo": 120.0
            },
            {
                "start_time": 75.87045454545454,
                "end_time": 76.05,
                "pitch": 72,
                "velocity": 51,
                "duration": 0.17954545454546178,
                "tempo": 120.0
            },
            {
                "start_time": 76.06590909090909,
                "end_time": 76.24545454545454,
                "pitch": 76,
                "velocity": 51,
                "duration": 0.17954545454544757,
                "tempo": 120.0
            },
            {
                "start_time": 76.26363636363637,
                "end_time": 76.35227272727272,
                "pitch": 67,
                "velocity": 51,
                "duration": 0.08863636363635408,
                "tempo": 120.0
            },
            {
                "start_time": 76.36818181818181,
                "end_time": 76.45681818181818,
                "pitch": 62,
                "velocity": 51,
                "duration": 0.08863636363636829,
                "tempo": 120.0
            },
            {
                "start_time": 76.475,
                "end_time": 76.56363636363636,
                "pitch": 65,
                "velocity": 51,
                "duration": 0.08863636363636829,
                "tempo": 120.0
            },
            {
                "start_time": 76.57954545454545,
                "end_time": 76.66818181818182,
                "pitch": 67,
                "velocity": 51,
                "duration": 0.08863636363636829,
                "tempo": 120.0
            },
            {
                "start_time": 76.68409090909091,
                "end_time": 76.76590909090909,
                "pitch": 62,
                "velocity": 51,
                "duration": 0.08181818181817846,
                "tempo": 120.0
            },
            {
                "start_time": 76.78181818181818,
                "end_time": 76.86363636363636,
                "pitch": 65,
                "velocity": 51,
                "duration": 0.08181818181817846,
                "tempo": 120.0
            },
            {
                "start_time": 76.87954545454545,
                "end_time": 76.96136363636363,
                "pitch": 67,
                "velocity": 51,
                "duration": 0.08181818181817846,
                "tempo": 120.0
            },
            {
                "start_time": 76.97727272727272,
                "end_time": 77.05909090909091,
                "pitch": 62,
                "velocity": 51,
                "duration": 0.08181818181819267,
                "tempo": 120.0
            },
            {
                "start_time": 77.07727272727273,
                "end_time": 77.16136363636363,
                "pitch": 65,
                "velocity": 51,
                "duration": 0.08409090909090366,
                "tempo": 120.0
            },
            {
                "start_time": 77.17727272727272,
                "end_time": 77.26136363636363,
                "pitch": 67,
                "velocity": 51,
                "duration": 0.08409090909090366,
                "tempo": 120.0
            },
            {
                "start_time": 77.27727272727272,
                "end_time": 77.36136363636363,
                "pitch": 62,
                "velocity": 51,
                "duration": 0.08409090909091788,
                "tempo": 120.0
            },
            {
                "start_time": 77.37954545454545,
                "end_time": 77.46363636363635,
                "pitch": 65,
                "velocity": 51,
                "duration": 0.08409090909090366,
                "tempo": 120.0
            },
            {
                "start_time": 77.47954545454544,
                "end_time": 77.56590909090909,
                "pitch": 67,
                "velocity": 51,
                "duration": 0.08636363636364308,
                "tempo": 120.0
            },
            {
                "start_time": 77.58181818181818,
                "end_time": 77.66818181818181,
                "pitch": 62,
                "velocity": 51,
                "duration": 0.08636363636362887,
                "tempo": 120.0
            },
            {
                "start_time": 77.68636363636364,
                "end_time": 77.77045454545454,
                "pitch": 65,
                "velocity": 51,
                "duration": 0.08409090909090366,
                "tempo": 120.0
            },
            {
                "start_time": 77.78863636363636,
                "end_time": 77.87272727272727,
                "pitch": 67,
                "velocity": 51,
                "duration": 0.08409090909091788,
                "tempo": 120.0
            },
            {
                "start_time": 77.89090909090909,
                "end_time": 79.46136363636363,
                "pitch": 67,
                "velocity": 51,
                "duration": 1.5704545454545382,
                "tempo": 120.0
            },
            {
                "start_time": 79.68409090909091,
                "end_time": 79.73409090909091,
                "pitch": 63,
                "velocity": 51,
                "duration": 0.04999999999999716,
                "tempo": 120.0
            },
            {
                "start_time": 79.75227272727273,
                "end_time": 79.80454545454545,
                "pitch": 64,
                "velocity": 51,
                "duration": 0.052272727272722364,
                "tempo": 120.0
            },
            {
                "start_time": 79.82045454545454,
                "end_time": 79.87045454545454,
                "pitch": 65,
                "velocity": 51,
                "duration": 0.04999999999999716,
                "tempo": 120.0
            },
            {
                "start_time": 79.88863636363637,
                "end_time": 80.06818181818181,
                "pitch": 67,
                "velocity": 51,
                "duration": 0.17954545454544757,
                "tempo": 120.0
            },
            {
                "start_time": 80.0840909090909,
                "end_time": 80.26363636363637,
                "pitch": 72,
                "velocity": 51,
                "duration": 0.17954545454546178,
                "tempo": 120.0
            },
            {
                "start_time": 80.28181818181818,
                "end_time": 80.46818181818182,
                "pitch": 70,
                "velocity": 51,
                "duration": 0.1863636363636374,
                "tempo": 120.0
            },
            {
                "start_time": 80.48636363636363,
                "end_time": 80.67272727272727,
                "pitch": 67,
                "velocity": 51,
                "duration": 0.1863636363636374,
                "tempo": 120.0
            },
            {
                "start_time": 80.69090909090909,
                "end_time": 80.87045454545454,
                "pitch": 65,
                "velocity": 51,
                "duration": 0.17954545454544757,
                "tempo": 120.0
            },
            {
                "start_time": 80.88636363636363,
                "end_time": 81.06590909090909,
                "pitch": 67,
                "velocity": 51,
                "duration": 0.17954545454546178,
                "tempo": 120.0
            },
            {
                "start_time": 81.0840909090909,
                "end_time": 81.1340909090909,
                "pitch": 75,
                "velocity": 51,
                "duration": 0.04999999999999716,
                "tempo": 120.0
            },
            {
                "start_time": 81.15227272727272,
                "end_time": 81.47727272727272,
                "pitch": 77,
                "velocity": 51,
                "duration": 0.32500000000000284,
                "tempo": 120.0
            },
            {
                "start_time": 81.49318181818181,
                "end_time": 81.86818181818181,
                "pitch": 75,
                "velocity": 51,
                "duration": 0.375,
                "tempo": 120.0
            },
            {
                "start_time": 81.88636363636363,
                "end_time": 81.97272727272727,
                "pitch": 74,
                "velocity": 51,
                "duration": 0.08636363636364308,
                "tempo": 120.0
            },
            {
                "start_time": 81.98863636363636,
                "end_time": 82.075,
                "pitch": 75,
                "velocity": 51,
                "duration": 0.08636363636364308,
                "tempo": 120.0
            },
            {
                "start_time": 82.0909090909091,
                "end_time": 82.17727272727272,
                "pitch": 74,
                "velocity": 51,
                "duration": 0.08636363636362887,
                "tempo": 120.0
            },
            {
                "start_time": 82.19318181818181,
                "end_time": 82.27954545454546,
                "pitch": 70,
                "velocity": 51,
                "duration": 0.08636363636364308,
                "tempo": 120.0
            },
            {
                "start_time": 82.29545454545455,
                "end_time": 82.475,
                "pitch": 65,
                "velocity": 51,
                "duration": 0.17954545454544757,
                "tempo": 120.0
            },
            {
                "start_time": 82.49090909090908,
                "end_time": 82.67045454545455,
                "pitch": 63,
                "velocity": 51,
                "duration": 0.17954545454546178,
                "tempo": 120.0
            },
            {
                "start_time": 82.68863636363636,
                "end_time": 82.87727272727273,
                "pitch": 62,
                "velocity": 51,
                "duration": 0.1886363636363626,
                "tempo": 120.0
            },
            {
                "start_time": 82.89318181818182,
                "end_time": 83.08181818181818,
                "pitch": 58,
                "velocity": 51,
                "duration": 0.1886363636363626,
                "tempo": 120.0
            },
            {
                "start_time": 83.09772727272727,
                "end_time": 83.14772727272727,
                "pitch": 65,
                "velocity": 51,
                "duration": 0.04999999999999716,
                "tempo": 120.0
            },
            {
                "start_time": 83.16363636363636,
                "end_time": 83.8840909090909,
                "pitch": 67,
                "velocity": 51,
                "duration": 0.7204545454545439,
                "tempo": 120.0
            },
            {
                "start_time": 83.89999999999999,
                "end_time": 84.07954545454545,
                "pitch": 60,
                "velocity": 51,
                "duration": 0.17954545454546178,
                "tempo": 120.0
            },
            {
                "start_time": 84.09772727272727,
                "end_time": 84.27727272727272,
                "pitch": 63,
                "velocity": 51,
                "duration": 0.17954545454544757,
                "tempo": 120.0
            },
            {
                "start_time": 84.29318181818181,
                "end_time": 84.48181818181818,
                "pitch": 65,
                "velocity": 51,
                "duration": 0.1886363636363768,
                "tempo": 120.0
            },
            {
                "start_time": 84.5,
                "end_time": 84.5840909090909,
                "pitch": 63,
                "velocity": 51,
                "duration": 0.08409090909090366,
                "tempo": 120.0
            },
            {
                "start_time": 84.60227272727272,
                "end_time": 84.68636363636364,
                "pitch": 65,
                "velocity": 51,
                "duration": 0.08409090909091788,
                "tempo": 120.0
            },
            {
                "start_time": 84.70227272727273,
                "end_time": 84.8840909090909,
                "pitch": 67,
                "velocity": 51,
                "duration": 0.18181818181817277,
                "tempo": 120.0
            },
            {
                "start_time": 84.89999999999999,
                "end_time": 84.98181818181818,
                "pitch": 65,
                "velocity": 51,
                "duration": 0.08181818181819267,
                "tempo": 120.0
            },
            {
                "start_time": 84.99772727272727,
                "end_time": 85.07954545454545,
                "pitch": 67,
                "velocity": 51,
                "duration": 0.08181818181817846,
                "tempo": 120.0
            },
            {
                "start_time": 85.09772727272727,
                "end_time": 85.18181818181817,
                "pitch": 68,
                "velocity": 51,
                "duration": 0.08409090909090366,
                "tempo": 120.0
            },
            {
                "start_time": 85.2,
                "end_time": 85.2840909090909,
                "pitch": 67,
                "velocity": 51,
                "duration": 0.08409090909090366,
                "tempo": 120.0
            },
            {
                "start_time": 85.30227272727272,
                "end_time": 85.38863636363637,
                "pitch": 68,
                "velocity": 51,
                "duration": 0.08636363636364308,
                "tempo": 120.0
            },
            {
                "start_time": 85.40454545454546,
                "end_time": 85.48863636363636,
                "pitch": 70,
                "velocity": 51,
                "duration": 0.08409090909090366,
                "tempo": 120.0
            },
            {
                "start_time": 85.50681818181818,
                "end_time": 85.58863636363635,
                "pitch": 72,
                "velocity": 51,
                "duration": 0.08181818181817846,
                "tempo": 120.0
            },
            {
                "start_time": 85.60454545454544,
                "end_time": 85.68636363636364,
                "pitch": 74,
                "velocity": 51,
                "duration": 0.08181818181819267,
                "tempo": 120.0
            },
            {
                "start_time": 85.70227272727273,
                "end_time": 85.75,
                "pitch": 75,
                "velocity": 51,
                "duration": 0.04772727272727195,
                "tempo": 120.0
            },
            {
                "start_time": 85.76818181818182,
                "end_time": 85.81590909090909,
                "pitch": 77,
                "velocity": 51,
                "duration": 0.04772727272727195,
                "tempo": 120.0
            },
            {
                "start_time": 85.83181818181818,
                "end_time": 85.88181818181818,
                "pitch": 79,
                "velocity": 51,
                "duration": 0.04999999999999716,
                "tempo": 120.0
            },
            {
                "start_time": 85.89999999999999,
                "end_time": 85.95,
                "pitch": 80,
                "velocity": 51,
                "duration": 0.05000000000001137,
                "tempo": 120.0
            },
            {
                "start_time": 85.96818181818182,
                "end_time": 86.01818181818182,
                "pitch": 75,
                "velocity": 51,
                "duration": 0.04999999999999716,
                "tempo": 120.0
            },
            {
                "start_time": 86.03636363636363,
                "end_time": 86.08863636363635,
                "pitch": 72,
                "velocity": 51,
                "duration": 0.052272727272722364,
                "tempo": 120.0
            },
            {
                "start_time": 86.10454545454544,
                "end_time": 86.15681818181818,
                "pitch": 79,
                "velocity": 51,
                "duration": 0.052272727272736574,
                "tempo": 120.0
            },
            {
                "start_time": 86.17272727272727,
                "end_time": 86.225,
                "pitch": 75,
                "velocity": 51,
                "duration": 0.052272727272722364,
                "tempo": 120.0
            },
            {
                "start_time": 86.24090909090908,
                "end_time": 86.29318181818181,
                "pitch": 72,
                "velocity": 51,
                "duration": 0.052272727272722364,
                "tempo": 120.0
            },
            {
                "start_time": 86.3090909090909,
                "end_time": 86.35681818181818,
                "pitch": 80,
                "velocity": 51,
                "duration": 0.04772727272728616,
                "tempo": 120.0
            },
            {
                "start_time": 86.375,
                "end_time": 86.42272727272727,
                "pitch": 75,
                "velocity": 51,
                "duration": 0.04772727272727195,
                "tempo": 120.0
            },
            {
                "start_time": 86.43863636363636,
                "end_time": 86.48863636363636,
                "pitch": 72,
                "velocity": 51,
                "duration": 0.04999999999999716,
                "tempo": 120.0
            },
            {
                "start_time": 86.50454545454545,
                "end_time": 86.55454545454545,
                "pitch": 82,
                "velocity": 51,
                "duration": 0.04999999999999716,
                "tempo": 120.0
            },
            {
                "start_time": 86.57045454545454,
                "end_time": 86.61818181818181,
                "pitch": 75,
                "velocity": 51,
                "duration": 0.04772727272727195,
                "tempo": 120.0
            },
            {
                "start_time": 86.63636363636363,
                "end_time": 86.6840909090909,
                "pitch": 72,
                "velocity": 51,
                "duration": 0.04772727272727195,
                "tempo": 120.0
            },
            {
                "start_time": 86.70227272727273,
                "end_time": 86.75227272727273,
                "pitch": 80,
                "velocity": 51,
                "duration": 0.04999999999999716,
                "tempo": 120.0
            },
            {
                "start_time": 86.77045454545454,
                "end_time": 86.82272727272726,
                "pitch": 75,
                "velocity": 51,
                "duration": 0.052272727272722364,
                "tempo": 120.0
            },
            {
                "start_time": 86.83863636363635,
                "end_time": 86.89090909090909,
                "pitch": 72,
                "velocity": 51,
                "duration": 0.052272727272736574,
                "tempo": 120.0
            },
            {
                "start_time": 86.90681818181818,
                "end_time": 86.9590909090909,
                "pitch": 79,
                "velocity": 51,
                "duration": 0.052272727272722364,
                "tempo": 120.0
            },
            {
                "start_time": 86.975,
                "end_time": 87.02727272727272,
                "pitch": 75,
                "velocity": 51,
                "duration": 0.052272727272722364,
                "tempo": 120.0
            },
            {
                "start_time": 87.04545454545455,
                "end_time": 87.09545454545454,
                "pitch": 72,
                "velocity": 51,
                "duration": 0.04999999999999716,
                "tempo": 120.0
            },
            {
                "start_time": 87.11136363636363,
                "end_time": 87.16136363636363,
                "pitch": 80,
                "velocity": 51,
                "duration": 0.04999999999999716,
                "tempo": 120.0
            },
            {
                "start_time": 87.17727272727272,
                "end_time": 87.225,
                "pitch": 75,
                "velocity": 51,
                "duration": 0.04772727272727195,
                "tempo": 120.0
            },
            {
                "start_time": 87.24090909090908,
                "end_time": 87.29090909090908,
                "pitch": 72,
                "velocity": 51,
                "duration": 0.04999999999999716,
                "tempo": 120.0
            },
            {
                "start_time": 87.30681818181817,
                "end_time": 87.35681818181818,
                "pitch": 82,
                "velocity": 51,
                "duration": 0.05000000000001137,
                "tempo": 120.0
            },
            {
                "start_time": 87.37272727272727,
                "end_time": 87.42272727272727,
                "pitch": 75,
                "velocity": 51,
                "duration": 0.04999999999999716,
                "tempo": 120.0
            },
            {
                "start_time": 87.43863636363636,
                "end_time": 87.48636363636363,
                "pitch": 72,
                "velocity": 51,
                "duration": 0.04772727272727195,
                "tempo": 120.0
            },
            {
                "start_time": 87.50454545454545,
                "end_time": 87.55681818181817,
                "pitch": 79,
                "velocity": 51,
                "duration": 0.052272727272722364,
                "tempo": 120.0
            },
            {
                "start_time": 87.57272727272726,
                "end_time": 87.625,
                "pitch": 74,
                "velocity": 51,
                "duration": 0.052272727272736574,
                "tempo": 120.0
            },
            {
                "start_time": 87.64090909090909,
                "end_time": 87.69318181818181,
                "pitch": 71,
                "velocity": 51,
                "duration": 0.052272727272722364,
                "tempo": 120.0
            },
            {
                "start_time": 87.7090909090909,
                "end_time": 87.76136363636363,
                "pitch": 79,
                "velocity": 51,
                "duration": 0.052272727272722364,
                "tempo": 120.0
            },
            {
                "start_time": 87.77954545454546,
                "end_time": 87.82954545454545,
                "pitch": 74,
                "velocity": 51,
                "duration": 0.04999999999999716,
                "tempo": 120.0
            },
            {
                "start_time": 87.84772727272727,
                "end_time": 87.89772727272727,
                "pitch": 71,
                "velocity": 51,
                "duration": 0.04999999999999716,
                "tempo": 120.0
            },
            {
                "start_time": 87.91363636363636,
                "end_time": 87.96363636363635,
                "pitch": 79,
                "velocity": 51,
                "duration": 0.04999999999999716,
                "tempo": 120.0
            },
            {
                "start_time": 87.97954545454544,
                "end_time": 88.02727272727272,
                "pitch": 74,
                "velocity": 51,
                "duration": 0.04772727272727195,
                "tempo": 120.0
            },
            {
                "start_time": 88.04545454545455,
                "end_time": 88.09318181818182,
                "pitch": 71,
                "velocity": 51,
                "duration": 0.04772727272727195,
                "tempo": 120.0
            },
            {
                "start_time": 88.10909090909091,
                "end_time": 88.1590909090909,
                "pitch": 79,
                "velocity": 51,
                "duration": 0.04999999999999716,
                "tempo": 120.0
            },
            {
                "start_time": 88.175,
                "end_time": 88.225,
                "pitch": 74,
                "velocity": 51,
                "duration": 0.04999999999999716,
                "tempo": 120.0
            },
            {
                "start_time": 88.24090909090908,
                "end_time": 88.29090909090908,
                "pitch": 71,
                "velocity": 51,
                "duration": 0.04999999999999716,
                "tempo": 120.0
            },
            {
                "start_time": 88.30681818181817,
                "end_time": 88.35909090909091,
                "pitch": 79,
                "velocity": 51,
                "duration": 0.052272727272736574,
                "tempo": 120.0
            },
            {
                "start_time": 88.375,
                "end_time": 88.42727272727272,
                "pitch": 74,
                "velocity": 51,
                "duration": 0.052272727272722364,
                "tempo": 120.0
            },
            {
                "start_time": 88.44318181818181,
                "end_time": 88.49545454545454,
                "pitch": 71,
                "velocity": 51,
                "duration": 0.052272727272722364,
                "tempo": 120.0
            },
            {
                "start_time": 88.51363636363637,
                "end_time": 88.56363636363636,
                "pitch": 79,
                "velocity": 51,
                "duration": 0.04999999999999716,
                "tempo": 120.0
            },
            {
                "start_time": 88.58181818181818,
                "end_time": 88.63181818181818,
                "pitch": 74,
                "velocity": 51,
                "duration": 0.04999999999999716,
                "tempo": 120.0
            },
            {
                "start_time": 88.64999999999999,
                "end_time": 88.69999999999999,
                "pitch": 71,
                "velocity": 51,
                "duration": 0.04999999999999716,
                "tempo": 120.0
            },
            {
                "start_time": 88.7159090909091,
                "end_time": 88.76590909090909,
                "pitch": 79,
                "velocity": 51,
                "duration": 0.04999999999999716,
                "tempo": 120.0
            },
            {
                "start_time": 88.78181818181818,
                "end_time": 88.83181818181818,
                "pitch": 74,
                "velocity": 51,
                "duration": 0.04999999999999716,
                "tempo": 120.0
            },
            {
                "start_time": 88.84772727272727,
                "end_time": 88.89545454545454,
                "pitch": 71,
                "velocity": 51,
                "duration": 0.04772727272727195,
                "tempo": 120.0
            },
            {
                "start_time": 88.91363636363636,
                "end_time": 88.96136363636363,
                "pitch": 79,
                "velocity": 51,
                "duration": 0.04772727272727195,
                "tempo": 120.0
            },
            {
                "start_time": 88.97727272727272,
                "end_time": 89.02727272727272,
                "pitch": 74,
                "velocity": 51,
                "duration": 0.04999999999999716,
                "tempo": 120.0
            },
            {
                "start_time": 89.04318181818181,
                "end_time": 89.09318181818182,
                "pitch": 71,
                "velocity": 51,
                "duration": 0.05000000000001137,
                "tempo": 120.0
            },
            {
                "start_time": 89.10909090909091,
                "end_time": 89.1590909090909,
                "pitch": 74,
                "velocity": 51,
                "duration": 0.04999999999999716,
                "tempo": 120.0
            },
            {
                "start_time": 89.175,
                "end_time": 89.225,
                "pitch": 77,
                "velocity": 51,
                "duration": 0.04999999999999716,
                "tempo": 120.0
            },
            {
                "start_time": 89.24318181818181,
                "end_time": 90.29545454545455,
                "pitch": 84,
                "velocity": 51,
                "duration": 1.0522727272727366,
                "tempo": 120.0
            },
            {
                "start_time": 90.31136363636364,
                "end_time": 90.49772727272727,
                "pitch": 84,
                "velocity": 51,
                "duration": 0.1863636363636374,
                "tempo": 120.0
            },
            {
                "start_time": 90.51363636363637,
                "end_time": 90.69772727272726,
                "pitch": 82,
                "velocity": 51,
                "duration": 0.18409090909089798,
                "tempo": 120.0
            },
            {
                "start_time": 90.7159090909091,
                "end_time": 90.90454545454546,
                "pitch": 81,
                "velocity": 51,
                "duration": 0.1886363636363626,
                "tempo": 120.0
            },
            {
                "start_time": 91.32045454545454,
                "end_time": 91.5,
                "pitch": 83,
                "velocity": 51,
                "duration": 0.17954545454546178,
                "tempo": 120.0
            },
            {
                "start_time": 91.51818181818182,
                "end_time": 91.70681818181818,
                "pitch": 79,
                "velocity": 51,
                "duration": 0.1886363636363626,
                "tempo": 120.0
            },
            {
                "start_time": 91.72272727272727,
                "end_time": 91.91136363636363,
                "pitch": 76,
                "velocity": 51,
                "duration": 0.1886363636363626,
                "tempo": 120.0
            },
            {
                "start_time": 91.92727272727272,
                "end_time": 92.10681818181818,
                "pitch": 72,
                "velocity": 51,
                "duration": 0.17954545454546178,
                "tempo": 120.0
            },
            {
                "start_time": 92.12272727272727,
                "end_time": 92.30454545454545,
                "pitch": 71,
                "velocity": 51,
                "duration": 0.18181818181817277,
                "tempo": 120.0
            },
            {
                "start_time": 92.32045454545454,
                "end_time": 92.5090909090909,
                "pitch": 69,
                "velocity": 51,
                "duration": 0.1886363636363626,
                "tempo": 120.0
            },
            {
                "start_time": 92.52727272727272,
                "end_time": 92.71363636363635,
                "pitch": 67,
                "velocity": 51,
                "duration": 0.1863636363636374,
                "tempo": 120.0
            },
            {
                "start_time": 92.72954545454544,
                "end_time": 92.9090909090909,
                "pitch": 72,
                "velocity": 51,
                "duration": 0.17954545454546178,
                "tempo": 120.0
            },
            {
                "start_time": 92.92727272727272,
                "end_time": 93.10681818181818,
                "pitch": 76,
                "velocity": 51,
                "duration": 0.17954545454546178,
                "tempo": 120.0
            },
            {
                "start_time": 93.12272727272727,
                "end_time": 93.31136363636364,
                "pitch": 79,
                "velocity": 51,
                "duration": 0.1886363636363626,
                "tempo": 120.0
            },
            {
                "start_time": 93.32954545454545,
                "end_time": 93.51590909090909,
                "pitch": 83,
                "velocity": 51,
                "duration": 0.1863636363636374,
                "tempo": 120.0
            },
            {
                "start_time": 93.53181818181818,
                "end_time": 93.71363636363635,
                "pitch": 84,
                "velocity": 51,
                "duration": 0.18181818181817277,
                "tempo": 120.0
            },
            {
                "start_time": 93.72954545454544,
                "end_time": 93.9090909090909,
                "pitch": 86,
                "velocity": 51,
                "duration": 0.17954545454546178,
                "tempo": 120.0
            },
            {
                "start_time": 93.925,
                "end_time": 94.01136363636363,
                "pitch": 83,
                "velocity": 51,
                "duration": 0.08636363636362887,
                "tempo": 120.0
            },
            {
                "start_time": 94.02954545454546,
                "end_time": 94.11363636363636,
                "pitch": 84,
                "velocity": 51,
                "duration": 0.08409090909090366,
                "tempo": 120.0
            },
            {
                "start_time": 94.13181818181818,
                "end_time": 95.31818181818181,
                "pitch": 83,
                "velocity": 51,
                "duration": 1.1863636363636374,
                "tempo": 120.0
            },
            {
                "start_time": 95.3340909090909,
                "end_time": 95.41590909090908,
                "pitch": 81,
                "velocity": 51,
                "duration": 0.08181818181817846,
                "tempo": 120.0
            },
            {
                "start_time": 95.43181818181817,
                "end_time": 95.51363636363637,
                "pitch": 83,
                "velocity": 51,
                "duration": 0.08181818181819267,
                "tempo": 120.0
            },
            {
                "start_time": 95.53181818181818,
                "end_time": 97.12045454545454,
                "pitch": 79,
                "velocity": 51,
                "duration": 1.588636363636354,
                "tempo": 120.0
            },
            {
                "start_time": 97.34318181818182,
                "end_time": 97.52954545454546,
                "pitch": 76,
                "velocity": 51,
                "duration": 0.1863636363636374,
                "tempo": 120.0
            },
            {
                "start_time": 97.54545454545455,
                "end_time": 97.725,
                "pitch": 81,
                "velocity": 51,
                "duration": 0.17954545454544757,
                "tempo": 120.0
            },
            {
                "start_time": 97.74318181818181,
                "end_time": 97.92272727272727,
                "pitch": 88,
                "velocity": 51,
                "duration": 0.17954545454546178,
                "tempo": 120.0
            },
            {
                "start_time": 98.14545454545454,
                "end_time": 98.33181818181818,
                "pitch": 76,
                "velocity": 51,
                "duration": 0.1863636363636374,
                "tempo": 120.0
            },
            {
                "start_time": 98.34772727272727,
                "end_time": 98.52954545454546,
                "pitch": 81,
                "velocity": 51,
                "duration": 0.18181818181818699,
                "tempo": 120.0
            },
            {
                "start_time": 98.54545454545455,
                "end_time": 98.725,
                "pitch": 88,
                "velocity": 51,
                "duration": 0.17954545454544757,
                "tempo": 120.0
            },
            {
                "start_time": 98.94772727272726,
                "end_time": 99.1340909090909,
                "pitch": 76,
                "velocity": 51,
                "duration": 0.1863636363636374,
                "tempo": 120.0
            },
            {
                "start_time": 99.15227272727272,
                "end_time": 99.33181818181818,
                "pitch": 81,
                "velocity": 51,
                "duration": 0.17954545454546178,
                "tempo": 120.0
            },
            {
                "start_time": 99.34772727272727,
                "end_time": 99.52727272727272,
                "pitch": 88,
                "velocity": 51,
                "duration": 0.17954545454544757,
                "tempo": 120.0
            },
            {
                "start_time": 99.75,
                "end_time": 99.93863636363636,
                "pitch": 76,
                "velocity": 51,
                "duration": 0.1886363636363626,
                "tempo": 120.0
            },
            {
                "start_time": 99.95454545454545,
                "end_time": 100.1340909090909,
                "pitch": 81,
                "velocity": 51,
                "duration": 0.17954545454544757,
                "tempo": 120.0
            },
            {
                "start_time": 100.14999999999999,
                "end_time": 100.32954545454545,
                "pitch": 88,
                "velocity": 51,
                "duration": 0.17954545454546178,
                "tempo": 120.0
            },
            {
                "start_time": 100.34772727272727,
                "end_time": 100.43181818181817,
                "pitch": 89,
                "velocity": 51,
                "duration": 0.08409090909090366,
                "tempo": 120.0
            },
            {
                "start_time": 100.44772727272726,
                "end_time": 100.53181818181818,
                "pitch": 84,
                "velocity": 51,
                "duration": 0.08409090909091788,
                "tempo": 120.0
            },
            {
                "start_time": 100.54772727272727,
                "end_time": 100.63181818181818,
                "pitch": 89,
                "velocity": 51,
                "duration": 0.08409090909090366,
                "tempo": 120.0
            },
            {
                "start_time": 100.64999999999999,
                "end_time": 100.73409090909091,
                "pitch": 84,
                "velocity": 51,
                "duration": 0.08409090909091788,
                "tempo": 120.0
            },
            {
                "start_time": 100.75,
                "end_time": 100.83636363636363,
                "pitch": 89,
                "velocity": 51,
                "duration": 0.08636363636362887,
                "tempo": 120.0
            },
            {
                "start_time": 100.85227272727272,
                "end_time": 100.93863636363636,
                "pitch": 84,
                "velocity": 51,
                "duration": 0.08636363636364308,
                "tempo": 120.0
            },
            {
                "start_time": 100.95454545454545,
                "end_time": 101.04090909090908,
                "pitch": 89,
                "velocity": 51,
                "duration": 0.08636363636362887,
                "tempo": 120.0
            },
            {
                "start_time": 101.0590909090909,
                "end_time": 101.14318181818182,
                "pitch": 84,
                "velocity": 51,
                "duration": 0.08409090909091788,
                "tempo": 120.0
            },
            {
                "start_time": 101.1590909090909,
                "end_time": 101.24090909090908,
                "pitch": 89,
                "velocity": 51,
                "duration": 0.08181818181817846,
                "tempo": 120.0
            },
            {
                "start_time": 101.25681818181818,
                "end_time": 101.33863636363635,
                "pitch": 88,
                "velocity": 51,
                "duration": 0.08181818181817846,
                "tempo": 120.0
            },
            {
                "start_time": 101.35454545454544,
                "end_time": 101.43636363636364,
                "pitch": 86,
                "velocity": 51,
                "duration": 0.08181818181819267,
                "tempo": 120.0
            },
            {
                "start_time": 101.45454545454545,
                "end_time": 101.53636363636363,
                "pitch": 84,
                "velocity": 51,
                "duration": 0.08181818181817846,
                "tempo": 120.0
            },
            {
                "start_time": 101.55227272727272,
                "end_time": 101.63636363636363,
                "pitch": 86,
                "velocity": 51,
                "duration": 0.08409090909090366,
                "tempo": 120.0
            },
            {
                "start_time": 101.65227272727272,
                "end_time": 101.73636363636363,
                "pitch": 84,
                "velocity": 51,
                "duration": 0.08409090909091788,
                "tempo": 120.0
            },
            {
                "start_time": 101.75454545454545,
                "end_time": 101.83863636363635,
                "pitch": 83,
                "velocity": 51,
                "duration": 0.08409090909090366,
                "tempo": 120.0
            },
            {
                "start_time": 101.85454545454544,
                "end_time": 101.93863636363636,
                "pitch": 81,
                "velocity": 51,
                "duration": 0.08409090909091788,
                "tempo": 120.0
            },
            {
                "start_time": 101.95681818181818,
                "end_time": 102.04090909090908,
                "pitch": 79,
                "velocity": 51,
                "duration": 0.08409090909090366,
                "tempo": 120.0
            },
            {
                "start_time": 102.0590909090909,
                "end_time": 102.14318181818182,
                "pitch": 77,
                "velocity": 51,
                "duration": 0.08409090909091788,
                "tempo": 120.0
            },
            {
                "start_time": 102.16136363636363,
                "end_time": 102.24772727272727,
                "pitch": 76,
                "velocity": 51,
                "duration": 0.08636363636364308,
                "tempo": 120.0
            },
            {
                "start_time": 102.26363636363637,
                "end_time": 102.34772727272727,
                "pitch": 74,
                "velocity": 51,
                "duration": 0.08409090909090366,
                "tempo": 120.0
            },
            {
                "start_time": 102.36590909090908,
                "end_time": 102.44772727272726,
                "pitch": 72,
                "velocity": 51,
                "duration": 0.08181818181817846,
                "tempo": 120.0
            },
            {
                "start_time": 102.46363636363635,
                "end_time": 102.54545454545455,
                "pitch": 71,
                "velocity": 51,
                "duration": 0.08181818181819267,
                "tempo": 120.0
            },
            {
                "start_time": 102.56136363636364,
                "end_time": 102.64318181818182,
                "pitch": 69,
                "velocity": 51,
                "duration": 0.08181818181817846,
                "tempo": 120.0
            },
            {
                "start_time": 102.6590909090909,
                "end_time": 102.74090909090908,
                "pitch": 67,
                "velocity": 51,
                "duration": 0.08181818181817846,
                "tempo": 120.0
            },
            {
                "start_time": 102.7590909090909,
                "end_time": 102.84318181818182,
                "pitch": 65,
                "velocity": 51,
                "duration": 0.08409090909091788,
                "tempo": 120.0
            },
            {
                "start_time": 102.85909090909091,
                "end_time": 102.94318181818181,
                "pitch": 67,
                "velocity": 51,
                "duration": 0.08409090909090366,
                "tempo": 120.0
            },
            {
                "start_time": 102.9590909090909,
                "end_time": 103.04318181818181,
                "pitch": 64,
                "velocity": 51,
                "duration": 0.08409090909090366,
                "tempo": 120.0
            },
            {
                "start_time": 103.06136363636364,
                "end_time": 103.14318181818182,
                "pitch": 65,
                "velocity": 51,
                "duration": 0.08181818181817846,
                "tempo": 120.0
            },
            {
                "start_time": 103.16136363636363,
                "end_time": 103.24318181818181,
                "pitch": 64,
                "velocity": 51,
                "duration": 0.08181818181817846,
                "tempo": 120.0
            },
            {
                "start_time": 103.26136363636363,
                "end_time": 103.34318181818182,
                "pitch": 62,
                "velocity": 51,
                "duration": 0.08181818181819267,
                "tempo": 120.0
            },
            {
                "start_time": 103.36136363636363,
                "end_time": 103.44318181818181,
                "pitch": 60,
                "velocity": 51,
                "duration": 0.08181818181817846,
                "tempo": 120.0
            },
            {
                "start_time": 103.46136363636363,
                "end_time": 103.54318181818181,
                "pitch": 59,
                "velocity": 51,
                "duration": 0.08181818181817846,
                "tempo": 120.0
            }
        ],
        "Lead 2 (sawtooth)": [
            {
                "start_time": 1.0227272727272727,
                "end_time": 1.2113636363636362,
                "pitch": 60,
                "velocity": 51,
                "duration": 0.1886363636363635,
                "tempo": 120.0
            },
            {
                "start_time": 1.2272727272727273,
                "end_time": 1.4068181818181817,
                "pitch": 59,
                "velocity": 51,
                "duration": 0.17954545454545445,
                "tempo": 120.0
            },
            {
                "start_time": 1.6204545454545454,
                "end_time": 1.809090909090909,
                "pitch": 60,
                "velocity": 51,
                "duration": 0.1886363636363637,
                "tempo": 120.0
            },
            {
                "start_time": 1.8272727272727272,
                "end_time": 2.0136363636363637,
                "pitch": 59,
                "velocity": 51,
                "duration": 0.1863636363636365,
                "tempo": 120.0
            },
            {
                "start_time": 2.227272727272727,
                "end_time": 2.4068181818181817,
                "pitch": 60,
                "velocity": 51,
                "duration": 0.17954545454545467,
                "tempo": 120.0
            },
            {
                "start_time": 2.6295454545454544,
                "end_time": 2.815909090909091,
                "pitch": 60,
                "velocity": 51,
                "duration": 0.1863636363636365,
                "tempo": 120.0
            },
            {
                "start_time": 2.834090909090909,
                "end_time": 3.0136363636363637,
                "pitch": 59,
                "velocity": 51,
                "duration": 0.17954545454545467,
                "tempo": 120.0
            },
            {
                "start_time": 3.0295454545454543,
                "end_time": 3.6113636363636363,
                "pitch": 62,
                "velocity": 51,
                "duration": 0.581818181818182,
                "tempo": 120.0
            },
            {
                "start_time": 3.6295454545454544,
                "end_time": 4.011363636363636,
                "pitch": 62,
                "velocity": 51,
                "duration": 0.3818181818181814,
                "tempo": 120.0
            },
            {
                "start_time": 4.2340909090909085,
                "end_time": 4.422727272727273,
                "pitch": 60,
                "velocity": 51,
                "duration": 0.18863636363636438,
                "tempo": 120.0
            },
            {
                "start_time": 4.4386363636363635,
                "end_time": 4.618181818181818,
                "pitch": 59,
                "velocity": 51,
                "duration": 0.17954545454545467,
                "tempo": 120.0
            },
            {
                "start_time": 4.831818181818182,
                "end_time": 5.0204545454545455,
                "pitch": 60,
                "velocity": 51,
                "duration": 0.1886363636363635,
                "tempo": 120.0
            },
            {
                "start_time": 5.036363636363636,
                "end_time": 5.225,
                "pitch": 59,
                "velocity": 51,
                "duration": 0.1886363636363635,
                "tempo": 120.0
            },
            {
                "start_time": 5.4363636363636365,
                "end_time": 5.618181818181818,
                "pitch": 60,
                "velocity": 51,
                "duration": 0.18181818181818166,
                "tempo": 120.0
            },
            {
                "start_time": 5.840909090909091,
                "end_time": 6.027272727272727,
                "pitch": 60,
                "velocity": 51,
                "duration": 0.1863636363636365,
                "tempo": 120.0
            },
            {
                "start_time": 6.043181818181818,
                "end_time": 6.222727272727273,
                "pitch": 59,
                "velocity": 51,
                "duration": 0.17954545454545467,
                "tempo": 120.0
            },
            {
                "start_time": 6.24090909090909,
                "end_time": 6.822727272727272,
                "pitch": 62,
                "velocity": 51,
                "duration": 0.581818181818182,
                "tempo": 120.0
            },
            {
                "start_time": 6.838636363636363,
                "end_time": 7.222727272727273,
                "pitch": 64,
                "velocity": 51,
                "duration": 0.3840909090909097,
                "tempo": 120.0
            },
            {
                "start_time": 7.445454545454545,
                "end_time": 7.634090909090909,
                "pitch": 60,
                "velocity": 51,
                "duration": 0.1886363636363635,
                "tempo": 120.0
            },
            {
                "start_time": 7.6499999999999995,
                "end_time": 7.829545454545454,
                "pitch": 59,
                "velocity": 51,
                "duration": 0.17954545454545467,
                "tempo": 120.0
            },
            {
                "start_time": 8.043181818181818,
                "end_time": 8.23181818181818,
                "pitch": 60,
                "velocity": 51,
                "duration": 0.1886363636363626,
                "tempo": 120.0
            },
            {
                "start_time": 8.247727272727273,
                "end_time": 8.436363636363636,
                "pitch": 59,
                "velocity": 51,
                "duration": 0.1886363636363626,
                "tempo": 120.0
            },
            {
                "start_time": 8.647727272727272,
                "end_time": 8.827272727272726,
                "pitch": 60,
                "velocity": 51,
                "duration": 0.17954545454545467,
                "tempo": 120.0
            },
            {
                "start_time": 9.049999999999999,
                "end_time": 9.238636363636363,
                "pitch": 60,
                "velocity": 51,
                "duration": 0.18863636363636438,
                "tempo": 120.0
            },
            {
                "start_time": 9.254545454545454,
                "end_time": 9.434090909090909,
                "pitch": 59,
                "velocity": 51,
                "duration": 0.17954545454545467,
                "tempo": 120.0
            },
            {
                "start_time": 9.45,
                "end_time": 10.034090909090908,
                "pitch": 62,
                "velocity": 51,
                "duration": 0.584090909090909,
                "tempo": 120.0
            },
            {
                "start_time": 10.049999999999999,
                "end_time": 10.436363636363636,
                "pitch": 62,
                "velocity": 51,
                "duration": 0.3863636363636367,
                "tempo": 120.0
            },
            {
                "start_time": 10.659090909090908,
                "end_time": 10.845454545454546,
                "pitch": 60,
                "velocity": 51,
                "duration": 0.1863636363636374,
                "tempo": 120.0
            },
            {
                "start_time": 10.863636363636363,
                "end_time": 11.043181818181818,
                "pitch": 59,
                "velocity": 51,
                "duration": 0.17954545454545467,
                "tempo": 120.0
            },
            {
                "start_time": 11.256818181818181,
                "end_time": 11.445454545454545,
                "pitch": 60,
                "velocity": 51,
                "duration": 0.18863636363636438,
                "tempo": 120.0
            },
            {
                "start_time": 11.461363636363636,
                "end_time": 11.649999999999999,
                "pitch": 59,
                "velocity": 51,
                "duration": 0.1886363636363626,
                "tempo": 120.0
            },
            {
                "start_time": 11.861363636363636,
                "end_time": 12.040909090909091,
                "pitch": 64,
                "velocity": 51,
                "duration": 0.17954545454545467,
                "tempo": 120.0
            },
            {
                "start_time": 12.263636363636364,
                "end_time": 12.452272727272726,
                "pitch": 65,
                "velocity": 51,
                "duration": 0.1886363636363626,
                "tempo": 120.0
            },
            {
                "start_time": 13.870454545454544,
                "end_time": 14.056818181818182,
                "pitch": 60,
                "velocity": 51,
                "duration": 0.1863636363636374,
                "tempo": 120.0
            },
            {
                "start_time": 14.075,
                "end_time": 14.254545454545454,
                "pitch": 59,
                "velocity": 51,
                "duration": 0.17954545454545467,
                "tempo": 120.0
            },
            {
                "start_time": 14.468181818181817,
                "end_time": 14.654545454545454,
                "pitch": 60,
                "velocity": 51,
                "duration": 0.1863636363636374,
                "tempo": 120.0
            },
            {
                "start_time": 14.672727272727272,
                "end_time": 14.859090909090908,
                "pitch": 59,
                "velocity": 51,
                "duration": 0.18636363636363562,
                "tempo": 120.0
            },
            {
                "start_time": 15.072727272727272,
                "end_time": 15.252272727272727,
                "pitch": 60,
                "velocity": 51,
                "duration": 0.17954545454545467,
                "tempo": 120.0
            },
            {
                "start_time": 15.475,
                "end_time": 15.663636363636362,
                "pitch": 60,
                "velocity": 51,
                "duration": 0.1886363636363626,
                "tempo": 120.0
            },
            {
                "start_time": 15.679545454545453,
                "end_time": 15.859090909090908,
                "pitch": 59,
                "velocity": 51,
                "duration": 0.17954545454545467,
                "tempo": 120.0
            },
            {
                "start_time": 15.875,
                "end_time": 16.459090909090907,
                "pitch": 62,
                "velocity": 51,
                "duration": 0.5840909090909072,
                "tempo": 120.0
            },
            {
                "start_time": 16.474999999999998,
                "end_time": 16.85909090909091,
                "pitch": 62,
                "velocity": 51,
                "duration": 0.3840909090909115,
                "tempo": 120.0
            },
            {
                "start_time": 17.081818181818182,
                "end_time": 17.268181818181816,
                "pitch": 60,
                "velocity": 51,
                "duration": 0.18636363636363384,
                "tempo": 120.0
            },
            {
                "start_time": 17.284090909090907,
                "end_time": 17.46363636363636,
                "pitch": 59,
                "velocity": 51,
                "duration": 0.17954545454545467,
                "tempo": 120.0
            },
            {
                "start_time": 17.677272727272726,
                "end_time": 17.86590909090909,
                "pitch": 60,
                "velocity": 51,
                "duration": 0.1886363636363626,
                "tempo": 120.0
            },
            {
                "start_time": 17.884090909090908,
                "end_time": 18.070454545454545,
                "pitch": 59,
                "velocity": 51,
                "duration": 0.1863636363636374,
                "tempo": 120.0
            },
            {
                "start_time": 18.284090909090907,
                "end_time": 18.46363636363636,
                "pitch": 60,
                "velocity": 51,
                "duration": 0.17954545454545467,
                "tempo": 120.0
            },
            {
                "start_time": 18.686363636363634,
                "end_time": 18.87272727272727,
                "pitch": 60,
                "velocity": 51,
                "duration": 0.1863636363636374,
                "tempo": 120.0
            },
            {
                "start_time": 18.89090909090909,
                "end_time": 19.070454545454545,
                "pitch": 59,
                "velocity": 51,
                "duration": 0.17954545454545467,
                "tempo": 120.0
            },
            {
                "start_time": 19.086363636363636,
                "end_time": 19.66590909090909,
                "pitch": 62,
                "velocity": 51,
                "duration": 0.5795454545454533,
                "tempo": 120.0
            },
            {
                "start_time": 19.68409090909091,
                "end_time": 20.068181818181817,
                "pitch": 64,
                "velocity": 51,
                "duration": 0.38409090909090793,
                "tempo": 120.0
            },
            {
                "start_time": 20.29090909090909,
                "end_time": 20.479545454545452,
                "pitch": 60,
                "velocity": 51,
                "duration": 0.1886363636363626,
                "tempo": 120.0
            },
            {
                "start_time": 20.495454545454546,
                "end_time": 20.675,
                "pitch": 59,
                "velocity": 51,
                "duration": 0.17954545454545467,
                "tempo": 120.0
            },
            {
                "start_time": 20.888636363636362,
                "end_time": 21.077272727272724,
                "pitch": 60,
                "velocity": 51,
                "duration": 0.1886363636363626,
                "tempo": 120.0
            },
            {
                "start_time": 21.095454545454544,
                "end_time": 21.28181818181818,
                "pitch": 59,
                "velocity": 51,
                "duration": 0.1863636363636374,
                "tempo": 120.0
            },
            {
                "start_time": 21.495454545454546,
                "end_time": 21.675,
                "pitch": 60,
                "velocity": 51,
                "duration": 0.17954545454545467,
                "tempo": 120.0
            },
            {
                "start_time": 21.897727272727273,
                "end_time": 22.084090909090907,
                "pitch": 60,
                "velocity": 51,
                "duration": 0.18636363636363384,
                "tempo": 120.0
            },
            {
                "start_time": 22.099999999999998,
                "end_time": 22.279545454545453,
                "pitch": 59,
                "velocity": 51,
                "duration": 0.17954545454545467,
                "tempo": 120.0
            },
            {
                "start_time": 22.297727272727272,
                "end_time": 22.877272727272725,
                "pitch": 62,
                "velocity": 51,
                "duration": 0.5795454545454533,
                "tempo": 120.0
            },
            {
                "start_time": 22.893181818181816,
                "end_time": 23.279545454545453,
                "pitch": 62,
                "velocity": 51,
                "duration": 0.3863636363636367,
                "tempo": 120.0
            },
            {
                "start_time": 23.502272727272725,
                "end_time": 23.69090909090909,
                "pitch": 60,
                "velocity": 51,
                "duration": 0.18863636363636616,
                "tempo": 120.0
            },
            {
                "start_time": 23.706818181818182,
                "end_time": 23.886363636363637,
                "pitch": 59,
                "velocity": 51,
                "duration": 0.17954545454545467,
                "tempo": 120.0
            },
            {
                "start_time": 24.099999999999998,
                "end_time": 24.288636363636364,
                "pitch": 60,
                "velocity": 51,
                "duration": 0.18863636363636616,
                "tempo": 120.0
            },
            {
                "start_time": 24.304545454545455,
                "end_time": 24.493181818181817,
                "pitch": 59,
                "velocity": 51,
                "duration": 0.1886363636363626,
                "tempo": 120.0
            },
            {
                "start_time": 24.704545454545453,
                "end_time": 24.886363636363637,
                "pitch": 64,
                "velocity": 51,
                "duration": 0.18181818181818343,
                "tempo": 120.0
            },
            {
                "start_time": 25.10681818181818,
                "end_time": 25.295454545454543,
                "pitch": 65,
                "velocity": 51,
                "duration": 0.1886363636363626,
                "tempo": 120.0
            },
            {
                "start_time": 39.55681818181818,
                "end_time": 39.74318181818182,
                "pitch": 60,
                "velocity": 51,
                "duration": 0.1863636363636374,
                "tempo": 120.0
            },
            {
                "start_time": 39.75909090909091,
                "end_time": 39.93863636363636,
                "pitch": 59,
                "velocity": 51,
                "duration": 0.17954545454545467,
                "tempo": 120.0
            },
            {
                "start_time": 40.152272727272724,
                "end_time": 40.340909090909086,
                "pitch": 60,
                "velocity": 51,
                "duration": 0.1886363636363626,
                "tempo": 120.0
            },
            {
                "start_time": 40.35909090909091,
                "end_time": 40.54545454545455,
                "pitch": 59,
                "velocity": 51,
                "duration": 0.1863636363636374,
                "tempo": 120.0
            },
            {
                "start_time": 40.75909090909091,
                "end_time": 40.93863636363636,
                "pitch": 60,
                "velocity": 51,
                "duration": 0.17954545454545467,
                "tempo": 120.0
            },
            {
                "start_time": 41.16136363636363,
                "end_time": 41.34772727272727,
                "pitch": 60,
                "velocity": 51,
                "duration": 0.1863636363636374,
                "tempo": 120.0
            },
            {
                "start_time": 41.36590909090909,
                "end_time": 41.54545454545455,
                "pitch": 59,
                "velocity": 51,
                "duration": 0.17954545454545467,
                "tempo": 120.0
            },
            {
                "start_time": 41.56136363636364,
                "end_time": 42.14090909090909,
                "pitch": 62,
                "velocity": 51,
                "duration": 0.5795454545454533,
                "tempo": 120.0
            },
            {
                "start_time": 42.15681818181818,
                "end_time": 42.54090909090909,
                "pitch": 62,
                "velocity": 51,
                "duration": 0.38409090909090793,
                "tempo": 120.0
            },
            {
                "start_time": 42.76363636363636,
                "end_time": 42.95227272727273,
                "pitch": 60,
                "velocity": 51,
                "duration": 0.1886363636363697,
                "tempo": 120.0
            },
            {
                "start_time": 42.96818181818182,
                "end_time": 43.14772727272727,
                "pitch": 59,
                "velocity": 51,
                "duration": 0.17954545454545467,
                "tempo": 120.0
            },
            {
                "start_time": 43.361363636363635,
                "end_time": 43.55,
                "pitch": 60,
                "velocity": 51,
                "duration": 0.1886363636363626,
                "tempo": 120.0
            },
            {
                "start_time": 43.56590909090909,
                "end_time": 43.75454545454545,
                "pitch": 59,
                "velocity": 51,
                "duration": 0.1886363636363626,
                "tempo": 120.0
            },
            {
                "start_time": 43.965909090909086,
                "end_time": 44.14772727272727,
                "pitch": 60,
                "velocity": 51,
                "duration": 0.18181818181818699,
                "tempo": 120.0
            },
            {
                "start_time": 44.36818181818182,
                "end_time": 44.55681818181818,
                "pitch": 60,
                "velocity": 51,
                "duration": 0.1886363636363626,
                "tempo": 120.0
            },
            {
                "start_time": 44.57272727272727,
                "end_time": 44.752272727272725,
                "pitch": 59,
                "velocity": 51,
                "duration": 0.17954545454545467,
                "tempo": 120.0
            },
            {
                "start_time": 44.768181818181816,
                "end_time": 45.349999999999994,
                "pitch": 62,
                "velocity": 51,
                "duration": 0.5818181818181785,
                "tempo": 120.0
            },
            {
                "start_time": 45.36590909090909,
                "end_time": 45.752272727272725,
                "pitch": 64,
                "velocity": 51,
                "duration": 0.38636363636363313,
                "tempo": 120.0
            },
            {
                "start_time": 45.974999999999994,
                "end_time": 46.16136363636363,
                "pitch": 60,
                "velocity": 51,
                "duration": 0.1863636363636374,
                "tempo": 120.0
            },
            {
                "start_time": 46.179545454545455,
                "end_time": 46.35909090909091,
                "pitch": 59,
                "velocity": 51,
                "duration": 0.17954545454545467,
                "tempo": 120.0
            },
            {
                "start_time": 46.57272727272727,
                "end_time": 46.76136363636363,
                "pitch": 60,
                "velocity": 51,
                "duration": 0.1886363636363626,
                "tempo": 120.0
            },
            {
                "start_time": 46.777272727272724,
                "end_time": 46.965909090909086,
                "pitch": 59,
                "velocity": 51,
                "duration": 0.1886363636363626,
                "tempo": 120.0
            },
            {
                "start_time": 47.17727272727272,
                "end_time": 47.35681818181818,
                "pitch": 60,
                "velocity": 51,
                "duration": 0.17954545454545467,
                "tempo": 120.0
            },
            {
                "start_time": 47.57954545454545,
                "end_time": 47.768181818181816,
                "pitch": 60,
                "velocity": 51,
                "duration": 0.1886363636363626,
                "tempo": 120.0
            },
            {
                "start_time": 47.78409090909091,
                "end_time": 47.96363636363636,
                "pitch": 59,
                "velocity": 51,
                "duration": 0.17954545454545467,
                "tempo": 120.0
            },
            {
                "start_time": 47.97954545454545,
                "end_time": 48.559090909090905,
                "pitch": 62,
                "velocity": 51,
                "duration": 0.5795454545454533,
                "tempo": 120.0
            },
            {
                "start_time": 48.57727272727273,
                "end_time": 48.961363636363636,
                "pitch": 62,
                "velocity": 51,
                "duration": 0.38409090909090793,
                "tempo": 120.0
            },
            {
                "start_time": 49.184090909090905,
                "end_time": 49.37045454545454,
                "pitch": 60,
                "velocity": 51,
                "duration": 0.1863636363636374,
                "tempo": 120.0
            },
            {
                "start_time": 49.38636363636363,
                "end_time": 49.56590909090909,
                "pitch": 59,
                "velocity": 51,
                "duration": 0.17954545454545467,
                "tempo": 120.0
            },
            {
                "start_time": 49.77954545454545,
                "end_time": 49.96818181818182,
                "pitch": 60,
                "velocity": 51,
                "duration": 0.1886363636363697,
                "tempo": 120.0
            },
            {
                "start_time": 49.986363636363635,
                "end_time": 50.17272727272727,
                "pitch": 59,
                "velocity": 51,
                "duration": 0.1863636363636374,
                "tempo": 120.0
            },
            {
                "start_time": 50.38636363636363,
                "end_time": 50.56590909090909,
                "pitch": 64,
                "velocity": 51,
                "duration": 0.17954545454545467,
                "tempo": 120.0
            },
            {
                "start_time": 50.788636363636364,
                "end_time": 50.97727272727273,
                "pitch": 65,
                "velocity": 51,
                "duration": 0.1886363636363626,
                "tempo": 120.0
            },
            {
                "start_time": 52.393181818181816,
                "end_time": 52.58181818181818,
                "pitch": 60,
                "velocity": 51,
                "duration": 0.1886363636363626,
                "tempo": 120.0
            },
            {
                "start_time": 52.59772727272727,
                "end_time": 52.777272727272724,
                "pitch": 59,
                "velocity": 51,
                "duration": 0.17954545454545467,
                "tempo": 120.0
            },
            {
                "start_time": 52.990909090909085,
                "end_time": 53.179545454545455,
                "pitch": 60,
                "velocity": 51,
                "duration": 0.1886363636363697,
                "tempo": 120.0
            },
            {
                "start_time": 53.19772727272727,
                "end_time": 53.38409090909091,
                "pitch": 59,
                "velocity": 51,
                "duration": 0.1863636363636374,
                "tempo": 120.0
            },
            {
                "start_time": 53.59772727272727,
                "end_time": 53.777272727272724,
                "pitch": 60,
                "velocity": 51,
                "duration": 0.17954545454545467,
                "tempo": 120.0
            },
            {
                "start_time": 54.0,
                "end_time": 54.18636363636363,
                "pitch": 60,
                "velocity": 51,
                "duration": 0.1863636363636303,
                "tempo": 120.0
            },
            {
                "start_time": 54.20227272727273,
                "end_time": 54.38181818181818,
                "pitch": 59,
                "velocity": 51,
                "duration": 0.17954545454545467,
                "tempo": 120.0
            },
            {
                "start_time": 54.4,
                "end_time": 54.97954545454545,
                "pitch": 62,
                "velocity": 51,
                "duration": 0.5795454545454533,
                "tempo": 120.0
            },
            {
                "start_time": 54.99545454545454,
                "end_time": 55.37954545454545,
                "pitch": 62,
                "velocity": 51,
                "duration": 0.38409090909090793,
                "tempo": 120.0
            },
            {
                "start_time": 55.60227272727273,
                "end_time": 55.788636363636364,
                "pitch": 60,
                "velocity": 51,
                "duration": 0.1863636363636374,
                "tempo": 120.0
            },
            {
                "start_time": 55.80681818181818,
                "end_time": 55.986363636363635,
                "pitch": 59,
                "velocity": 51,
                "duration": 0.17954545454545467,
                "tempo": 120.0
            },
            {
                "start_time": 56.199999999999996,
                "end_time": 56.38863636363636,
                "pitch": 60,
                "velocity": 51,
                "duration": 0.1886363636363626,
                "tempo": 120.0
            },
            {
                "start_time": 56.40454545454545,
                "end_time": 56.59318181818182,
                "pitch": 59,
                "velocity": 51,
                "duration": 0.1886363636363697,
                "tempo": 120.0
            },
            {
                "start_time": 56.804545454545455,
                "end_time": 56.98409090909091,
                "pitch": 60,
                "velocity": 51,
                "duration": 0.17954545454545467,
                "tempo": 120.0
            },
            {
                "start_time": 57.20681818181818,
                "end_time": 57.39545454545454,
                "pitch": 60,
                "velocity": 51,
                "duration": 0.1886363636363626,
                "tempo": 120.0
            },
            {
                "start_time": 57.41136363636363,
                "end_time": 57.590909090909086,
                "pitch": 59,
                "velocity": 51,
                "duration": 0.17954545454545467,
                "tempo": 120.0
            },
            {
                "start_time": 57.60681818181818,
                "end_time": 58.18636363636363,
                "pitch": 62,
                "velocity": 51,
                "duration": 0.5795454545454533,
                "tempo": 120.0
            },
            {
                "start_time": 58.20454545454545,
                "end_time": 58.58863636363636,
                "pitch": 64,
                "velocity": 51,
                "duration": 0.38409090909090793,
                "tempo": 120.0
            },
            {
                "start_time": 58.81136363636363,
                "end_time": 58.99772727272727,
                "pitch": 60,
                "velocity": 51,
                "duration": 0.1863636363636374,
                "tempo": 120.0
            },
            {
                "start_time": 59.01363636363636,
                "end_time": 59.19318181818181,
                "pitch": 59,
                "velocity": 51,
                "duration": 0.17954545454545467,
                "tempo": 120.0
            },
            {
                "start_time": 59.40681818181818,
                "end_time": 59.595454545454544,
                "pitch": 60,
                "velocity": 51,
                "duration": 0.1886363636363626,
                "tempo": 120.0
            },
            {
                "start_time": 59.61363636363636,
                "end_time": 59.8,
                "pitch": 59,
                "velocity": 51,
                "duration": 0.1863636363636374,
                "tempo": 120.0
            },
            {
                "start_time": 60.01363636363636,
                "end_time": 60.19318181818181,
                "pitch": 60,
                "velocity": 51,
                "duration": 0.17954545454545467,
                "tempo": 120.0
            },
            {
                "start_time": 60.41590909090909,
                "end_time": 60.60227272727273,
                "pitch": 60,
                "velocity": 51,
                "duration": 0.1863636363636374,
                "tempo": 120.0
            },
            {
                "start_time": 60.62045454545454,
                "end_time": 60.8,
                "pitch": 59,
                "velocity": 51,
                "duration": 0.17954545454545467,
                "tempo": 120.0
            },
            {
                "start_time": 60.81590909090909,
                "end_time": 61.39545454545454,
                "pitch": 62,
                "velocity": 51,
                "duration": 0.5795454545454533,
                "tempo": 120.0
            },
            {
                "start_time": 61.413636363636364,
                "end_time": 61.79772727272727,
                "pitch": 62,
                "velocity": 51,
                "duration": 0.38409090909090793,
                "tempo": 120.0
            },
            {
                "start_time": 62.02045454545454,
                "end_time": 62.209090909090904,
                "pitch": 60,
                "velocity": 51,
                "duration": 0.1886363636363626,
                "tempo": 120.0
            },
            {
                "start_time": 62.224999999999994,
                "end_time": 62.40454545454545,
                "pitch": 59,
                "velocity": 51,
                "duration": 0.17954545454545467,
                "tempo": 120.0
            },
            {
                "start_time": 62.61818181818182,
                "end_time": 62.80681818181818,
                "pitch": 60,
                "velocity": 51,
                "duration": 0.1886363636363626,
                "tempo": 120.0
            },
            {
                "start_time": 62.82272727272727,
                "end_time": 63.01136363636363,
                "pitch": 59,
                "velocity": 51,
                "duration": 0.1886363636363626,
                "tempo": 120.0
            },
            {
                "start_time": 63.22272727272727,
                "end_time": 63.40454545454545,
                "pitch": 64,
                "velocity": 51,
                "duration": 0.18181818181817988,
                "tempo": 120.0
            },
            {
                "start_time": 63.627272727272725,
                "end_time": 63.81363636363636,
                "pitch": 65,
                "velocity": 51,
                "duration": 0.1863636363636374,
                "tempo": 120.0
            },
            {
                "start_time": 77.89090909090909,
                "end_time": 79.46136363636363,
                "pitch": 51,
                "velocity": 51,
                "duration": 1.5704545454545382,
                "tempo": 120.0
            },
            {
                "start_time": 79.47727272727272,
                "end_time": 81.06590909090909,
                "pitch": 51,
                "velocity": 51,
                "duration": 1.5886363636363683,
                "tempo": 120.0
            },
            {
                "start_time": 81.0840909090909,
                "end_time": 82.67045454545455,
                "pitch": 50,
                "velocity": 51,
                "duration": 1.586363636363643,
                "tempo": 120.0
            },
            {
                "start_time": 82.68863636363636,
                "end_time": 84.27727272727272,
                "pitch": 50,
                "velocity": 51,
                "duration": 1.588636363636354,
                "tempo": 120.0
            },
            {
                "start_time": 84.29318181818181,
                "end_time": 85.88181818181818,
                "pitch": 51,
                "velocity": 51,
                "duration": 1.5886363636363683,
                "tempo": 120.0
            },
            {
                "start_time": 85.89999999999999,
                "end_time": 87.48636363636363,
                "pitch": 51,
                "velocity": 51,
                "duration": 1.586363636363643,
                "tempo": 120.0
            },
            {
                "start_time": 87.50454545454545,
                "end_time": 89.09318181818182,
                "pitch": 50,
                "velocity": 51,
                "duration": 1.5886363636363683,
                "tempo": 120.0
            },
            {
                "start_time": 89.3090909090909,
                "end_time": 89.49318181818181,
                "pitch": 50,
                "velocity": 51,
                "duration": 0.1840909090909122,
                "tempo": 120.0
            },
            {
                "start_time": 89.91136363636363,
                "end_time": 90.69772727272726,
                "pitch": 50,
                "velocity": 51,
                "duration": 0.7863636363636317,
                "tempo": 120.0
            },
            {
                "start_time": 90.7159090909091,
                "end_time": 92.30454545454545,
                "pitch": 52,
                "velocity": 51,
                "duration": 1.588636363636354,
                "tempo": 120.0
            },
            {
                "start_time": 92.32045454545454,
                "end_time": 93.9090909090909,
                "pitch": 52,
                "velocity": 51,
                "duration": 1.5886363636363683,
                "tempo": 120.0
            },
            {
                "start_time": 93.925,
                "end_time": 95.51363636363637,
                "pitch": 55,
                "velocity": 51,
                "duration": 1.5886363636363683,
                "tempo": 120.0
            },
            {
                "start_time": 95.53181818181818,
                "end_time": 97.12045454545454,
                "pitch": 55,
                "velocity": 51,
                "duration": 1.588636363636354,
                "tempo": 120.0
            },
            {
                "start_time": 97.13636363636363,
                "end_time": 98.725,
                "pitch": 53,
                "velocity": 51,
                "duration": 1.5886363636363683,
                "tempo": 120.0
            },
            {
                "start_time": 98.74090909090908,
                "end_time": 100.32954545454545,
                "pitch": 53,
                "velocity": 51,
                "duration": 1.5886363636363683,
                "tempo": 120.0
            },
            {
                "start_time": 100.54772727272727,
                "end_time": 100.73409090909091,
                "pitch": 56,
                "velocity": 51,
                "duration": 0.1863636363636374,
                "tempo": 120.0
            },
            {
                "start_time": 101.1590909090909,
                "end_time": 101.93863636363636,
                "pitch": 56,
                "velocity": 51,
                "duration": 0.7795454545454561,
                "tempo": 120.0
            },
            {
                "start_time": 102.16136363636363,
                "end_time": 102.54545454545455,
                "pitch": 56,
                "velocity": 51,
                "duration": 0.38409090909091503,
                "tempo": 120.0
            },
            {
                "start_time": 102.56136363636364,
                "end_time": 102.74090909090908,
                "pitch": 57,
                "velocity": 51,
                "duration": 0.17954545454544757,
                "tempo": 120.0
            },
            {
                "start_time": 102.7590909090909,
                "end_time": 103.54318181818181,
                "pitch": 59,
                "velocity": 51,
                "duration": 0.7840909090909065,
                "tempo": 120.0
            }
        ]
    }
}