{
    "track_id": "Double Dragon (FM) - 07 - Last Boss",
    "mood": "angry",
    "instruments": {
        "Trumpet": [
            {
                "start_time": 0.7840909090909091,
                "end_time": 0.9727272727272727,
                "pitch": 55,
                "velocity": 51,
                "duration": 0.1886363636363636,
                "tempo": 120.0
            },
            {
                "start_time": 0.9886363636363635,
                "end_time": 1.1772727272727272,
                "pitch": 52,
                "velocity": 51,
                "duration": 0.1886363636363637,
                "tempo": 120.0
            },
            {
                "start_time": 1.1954545454545453,
                "end_time": 1.375,
                "pitch": 55,
                "velocity": 51,
                "duration": 0.17954545454545467,
                "tempo": 120.0
            },
            {
                "start_time": 1.3909090909090909,
                "end_time": 1.7727272727272727,
                "pitch": 57,
                "velocity": 51,
                "duration": 0.38181818181818183,
                "tempo": 120.0
            },
            {
                "start_time": 1.7886363636363636,
                "end_time": 1.9727272727272727,
                "pitch": 50,
                "velocity": 51,
                "duration": 0.18409090909090908,
                "tempo": 120.0
            },
            {
                "start_time": 1.9909090909090907,
                "end_time": 2.3727272727272726,
                "pitch": 54,
                "velocity": 51,
                "duration": 0.38181818181818183,
                "tempo": 120.0
            },
            {
                "start_time": 2.3909090909090907,
                "end_time": 2.577272727272727,
                "pitch": 60,
                "velocity": 51,
                "duration": 0.1863636363636365,
                "tempo": 120.0
            },
            {
                "start_time": 2.5954545454545452,
                "end_time": 2.784090909090909,
                "pitch": 55,
                "velocity": 51,
                "duration": 0.18863636363636394,
                "tempo": 120.0
            },
            {
                "start_time": 2.8,
                "end_time": 2.9795454545454545,
                "pitch": 60,
                "velocity": 51,
                "duration": 0.17954545454545467,
                "tempo": 120.0
            },
            {
                "start_time": 2.9977272727272726,
                "end_time": 3.377272727272727,
                "pitch": 62,
                "velocity": 51,
                "duration": 0.3795454545454544,
                "tempo": 120.0
            },
            {
                "start_time": 3.393181818181818,
                "end_time": 3.5795454545454546,
                "pitch": 57,
                "velocity": 51,
                "duration": 0.1863636363636365,
                "tempo": 120.0
            },
            {
                "start_time": 3.5954545454545452,
                "end_time": 3.9795454545454545,
                "pitch": 60,
                "velocity": 51,
                "duration": 0.38409090909090926,
                "tempo": 120.0
            },
            {
                "start_time": 3.995454545454545,
                "end_time": 4.184090909090909,
                "pitch": 55,
                "velocity": 51,
                "duration": 0.1886363636363635,
                "tempo": 120.0
            },
            {
                "start_time": 4.2,
                "end_time": 4.388636363636364,
                "pitch": 52,
                "velocity": 51,
                "duration": 0.1886363636363635,
                "tempo": 120.0
            },
            {
                "start_time": 4.406818181818181,
                "end_time": 4.586363636363636,
                "pitch": 55,
                "velocity": 51,
                "duration": 0.17954545454545467,
                "tempo": 120.0
            },
            {
                "start_time": 4.602272727272727,
                "end_time": 4.9818181818181815,
                "pitch": 57,
                "velocity": 51,
                "duration": 0.37954545454545485,
                "tempo": 120.0
            },
            {
                "start_time": 4.997727272727272,
                "end_time": 5.181818181818182,
                "pitch": 50,
                "velocity": 51,
                "duration": 0.18409090909090953,
                "tempo": 120.0
            },
            {
                "start_time": 5.197727272727272,
                "end_time": 5.584090909090909,
                "pitch": 54,
                "velocity": 51,
                "duration": 0.3863636363636367,
                "tempo": 120.0
            },
            {
                "start_time": 5.6,
                "end_time": 5.788636363636363,
                "pitch": 60,
                "velocity": 51,
                "duration": 0.1886363636363635,
                "tempo": 120.0
            },
            {
                "start_time": 5.806818181818182,
                "end_time": 5.995454545454545,
                "pitch": 55,
                "velocity": 51,
                "duration": 0.1886363636363635,
                "tempo": 120.0
            },
            {
                "start_time": 6.011363636363636,
                "end_time": 6.1909090909090905,
                "pitch": 60,
                "velocity": 51,
                "duration": 0.17954545454545467,
                "tempo": 120.0
            },
            {
                "start_time": 6.206818181818181,
                "end_time": 6.588636363636363,
                "pitch": 62,
                "velocity": 51,
                "duration": 0.38181818181818183,
                "tempo": 120.0
            },
            {
                "start_time": 6.6045454545454545,
                "end_time": 6.788636363636363,
                "pitch": 57,
                "velocity": 51,
                "duration": 0.18409090909090864,
                "tempo": 120.0
            },
            {
                "start_time": 6.806818181818182,
                "end_time": 7.1909090909090905,
                "pitch": 60,
                "velocity": 51,
                "duration": 0.3840909090909088,
                "tempo": 120.0
            },
            {
                "start_time": 7.206818181818181,
                "end_time": 7.3954545454545455,
                "pitch": 55,
                "velocity": 51,
                "duration": 0.18863636363636438,
                "tempo": 120.0
            },
            {
                "start_time": 7.411363636363636,
                "end_time": 7.6,
                "pitch": 52,
                "velocity": 51,
                "duration": 0.1886363636363635,
                "tempo": 120.0
            },
            {
                "start_time": 7.618181818181818,
                "end_time": 7.797727272727272,
                "pitch": 55,
                "velocity": 51,
                "duration": 0.1795454545454538,
                "tempo": 120.0
            },
            {
                "start_time": 7.8136363636363635,
                "end_time": 8.193181818181818,
                "pitch": 57,
                "velocity": 51,
                "duration": 0.37954545454545485,
                "tempo": 120.0
            },
            {
                "start_time": 8.211363636363636,
                "end_time": 8.395454545454545,
                "pitch": 50,
                "velocity": 51,
                "duration": 0.18409090909090864,
                "tempo": 120.0
            },
            {
                "start_time": 8.411363636363635,
                "end_time": 8.797727272727272,
                "pitch": 54,
                "velocity": 51,
                "duration": 0.3863636363636367,
                "tempo": 120.0
            },
            {
                "start_time": 8.813636363636363,
                "end_time": 9.002272727272727,
                "pitch": 60,
                "velocity": 51,
                "duration": 0.18863636363636438,
                "tempo": 120.0
            },
            {
                "start_time": 9.020454545454545,
                "end_time": 9.209090909090909,
                "pitch": 55,
                "velocity": 51,
                "duration": 0.18863636363636438,
                "tempo": 120.0
            },
            {
                "start_time": 9.225,
                "end_time": 9.404545454545454,
                "pitch": 60,
                "velocity": 51,
                "duration": 0.17954545454545467,
                "tempo": 120.0
            },
            {
                "start_time": 9.420454545454545,
                "end_time": 9.802272727272726,
                "pitch": 62,
                "velocity": 51,
                "duration": 0.38181818181818095,
                "tempo": 120.0
            },
            {
                "start_time": 9.818181818181818,
                "end_time": 10.004545454545454,
                "pitch": 57,
                "velocity": 51,
                "duration": 0.18636363636363562,
                "tempo": 120.0
            },
            {
                "start_time": 10.020454545454545,
                "end_time": 10.406818181818181,
                "pitch": 60,
                "velocity": 51,
                "duration": 0.3863636363636367,
                "tempo": 120.0
            },
            {
                "start_time": 10.422727272727272,
                "end_time": 12.011363636363635,
                "pitch": 52,
                "velocity": 51,
                "duration": 1.588636363636363,
                "tempo": 120.0
            },
            {
                "start_time": 12.029545454545454,
                "end_time": 12.21590909090909,
                "pitch": 54,
                "velocity": 51,
                "duration": 0.18636363636363562,
                "tempo": 120.0
            },
            {
                "start_time": 12.23409090909091,
                "end_time": 12.422727272727272,
                "pitch": 54,
                "velocity": 51,
                "duration": 0.1886363636363626,
                "tempo": 120.0
            },
            {
                "start_time": 12.438636363636363,
                "end_time": 12.622727272727271,
                "pitch": 54,
                "velocity": 51,
                "duration": 0.18409090909090864,
                "tempo": 120.0
            },
            {
                "start_time": 12.64090909090909,
                "end_time": 12.825,
                "pitch": 54,
                "velocity": 51,
                "duration": 0.18409090909090864,
                "tempo": 120.0
            },
            {
                "start_time": 13.627272727272727,
                "end_time": 15.245454545454544,
                "pitch": 64,
                "velocity": 51,
                "duration": 1.6181818181818173,
                "tempo": 120.0
            },
            {
                "start_time": 15.261363636363635,
                "end_time": 16.854545454545455,
                "pitch": 66,
                "velocity": 51,
                "duration": 1.5931818181818205,
                "tempo": 120.0
            },
            {
                "start_time": 16.87272727272727,
                "end_time": 18.461363636363636,
                "pitch": 67,
                "velocity": 51,
                "duration": 1.5886363636363647,
                "tempo": 120.0
            },
            {
                "start_time": 18.477272727272727,
                "end_time": 20.05,
                "pitch": 69,
                "velocity": 51,
                "duration": 1.572727272727274,
                "tempo": 120.0
            },
            {
                "start_time": 20.06590909090909,
                "end_time": 21.672727272727272,
                "pitch": 67,
                "velocity": 51,
                "duration": 1.6068181818181806,
                "tempo": 120.0
            },
            {
                "start_time": 21.69090909090909,
                "end_time": 23.279545454545453,
                "pitch": 74,
                "velocity": 51,
                "duration": 1.5886363636363612,
                "tempo": 120.0
            },
            {
                "start_time": 23.295454545454543,
                "end_time": 24.861363636363635,
                "pitch": 76,
                "velocity": 51,
                "duration": 1.5659090909090914,
                "tempo": 120.0
            },
            {
                "start_time": 26.472727272727273,
                "end_time": 28.095454545454544,
                "pitch": 64,
                "velocity": 51,
                "duration": 1.6227272727272712,
                "tempo": 120.0
            },
            {
                "start_time": 28.111363636363635,
                "end_time": 29.702272727272724,
                "pitch": 66,
                "velocity": 51,
                "duration": 1.59090909090909,
                "tempo": 120.0
            },
            {
                "start_time": 29.718181818181815,
                "end_time": 31.30681818181818,
                "pitch": 67,
                "velocity": 51,
                "duration": 1.5886363636363647,
                "tempo": 120.0
            },
            {
                "start_time": 31.325,
                "end_time": 32.89545454545454,
                "pitch": 69,
                "velocity": 51,
                "duration": 1.5704545454545418,
                "tempo": 120.0
            },
            {
                "start_time": 32.91136363636363,
                "end_time": 34.518181818181816,
                "pitch": 67,
                "velocity": 51,
                "duration": 1.6068181818181841,
                "tempo": 120.0
            },
            {
                "start_time": 34.53636363636363,
                "end_time": 36.12272727272727,
                "pitch": 74,
                "velocity": 51,
                "duration": 1.586363636363636,
                "tempo": 120.0
            },
            {
                "start_time": 36.14090909090909,
                "end_time": 36.90909090909091,
                "pitch": 76,
                "velocity": 51,
                "duration": 0.7681818181818159,
                "tempo": 120.0
            },
            {
                "start_time": 37.13409090909091,
                "end_time": 37.32727272727273,
                "pitch": 76,
                "velocity": 51,
                "duration": 0.19318181818182012,
                "tempo": 120.0
            },
            {
                "start_time": 37.345454545454544,
                "end_time": 37.529545454545456,
                "pitch": 78,
                "velocity": 51,
                "duration": 0.1840909090909122,
                "tempo": 120.0
            },
            {
                "start_time": 37.54772727272727,
                "end_time": 39.31363636363636,
                "pitch": 79,
                "velocity": 51,
                "duration": 1.7659090909090907,
                "tempo": 120.0
            },
            {
                "start_time": 39.32954545454545,
                "end_time": 39.72272727272727,
                "pitch": 55,
                "velocity": 51,
                "duration": 0.39318181818181586,
                "tempo": 120.0
            },
            {
                "start_time": 39.94090909090909,
                "end_time": 40.320454545454545,
                "pitch": 57,
                "velocity": 51,
                "duration": 0.3795454545454575,
                "tempo": 120.0
            },
            {
                "start_time": 40.73181818181818,
                "end_time": 41.71818181818182,
                "pitch": 59,
                "velocity": 51,
                "duration": 0.9863636363636417,
                "tempo": 120.0
            },
            {
                "start_time": 42.538636363636364,
                "end_time": 42.93181818181818,
                "pitch": 55,
                "velocity": 51,
                "duration": 0.39318181818181586,
                "tempo": 120.0
            },
            {
                "start_time": 43.15,
                "end_time": 43.53181818181818,
                "pitch": 57,
                "velocity": 51,
                "duration": 0.3818181818181827,
                "tempo": 120.0
            },
            {
                "start_time": 43.945454545454545,
                "end_time": 45.73409090909091,
                "pitch": 64,
                "velocity": 51,
                "duration": 1.788636363636364,
                "tempo": 120.0
            },
            {
                "start_time": 45.75,
                "end_time": 46.143181818181816,
                "pitch": 55,
                "velocity": 51,
                "duration": 0.39318181818181586,
                "tempo": 120.0
            },
            {
                "start_time": 46.361363636363635,
                "end_time": 46.74090909090909,
                "pitch": 57,
                "velocity": 51,
                "duration": 0.3795454545454575,
                "tempo": 120.0
            },
            {
                "start_time": 47.152272727272724,
                "end_time": 48.13863636363636,
                "pitch": 59,
                "velocity": 51,
                "duration": 0.9863636363636346,
                "tempo": 120.0
            },
            {
                "start_time": 48.361363636363635,
                "end_time": 48.55,
                "pitch": 60,
                "velocity": 51,
                "duration": 0.1886363636363626,
                "tempo": 120.0
            },
            {
                "start_time": 48.56818181818181,
                "end_time": 48.75,
                "pitch": 64,
                "velocity": 51,
                "duration": 0.18181818181818699,
                "tempo": 120.0
            },
            {
                "start_time": 48.768181818181816,
                "end_time": 51.345454545454544,
                "pitch": 66,
                "velocity": 51,
                "duration": 2.577272727272728,
                "tempo": 120.0
            },
            {
                "start_time": 52.16590909090909,
                "end_time": 52.35227272727273,
                "pitch": 55,
                "velocity": 51,
                "duration": 0.1863636363636374,
                "tempo": 120.0
            }
        ],
        "Electric Guitar (clean)": [
            {
                "start_time": 0.7840909090909091,
                "end_time": 0.9727272727272727,
                "pitch": 33,
                "velocity": 64,
                "duration": 0.1886363636363636,
                "tempo": 120.0
            },
            {
                "start_time": 0.9886363636363635,
                "end_time": 1.1772727272727272,
                "pitch": 33,
                "velocity": 64,
                "duration": 0.1886363636363637,
                "tempo": 120.0
            },
            {
                "start_time": 1.1954545454545453,
                "end_time": 1.375,
                "pitch": 33,
                "velocity": 64,
                "duration": 0.17954545454545467,
                "tempo": 120.0
            },
            {
                "start_time": 1.3909090909090909,
                "end_time": 1.7727272727272727,
                "pitch": 33,
                "velocity": 64,
                "duration": 0.38181818181818183,
                "tempo": 120.0
            },
            {
                "start_time": 1.7886363636363636,
                "end_time": 1.9727272727272727,
                "pitch": 33,
                "velocity": 64,
                "duration": 0.18409090909090908,
                "tempo": 120.0
            },
            {
                "start_time": 1.9909090909090907,
                "end_time": 2.3727272727272726,
                "pitch": 33,
                "velocity": 64,
                "duration": 0.38181818181818183,
                "tempo": 120.0
            },
            {
                "start_time": 2.3909090909090907,
                "end_time": 2.577272727272727,
                "pitch": 33,
                "velocity": 64,
                "duration": 0.1863636363636365,
                "tempo": 120.0
            },
            {
                "start_time": 2.5954545454545452,
                "end_time": 2.784090909090909,
                "pitch": 33,
                "velocity": 64,
                "duration": 0.18863636363636394,
                "tempo": 120.0
            },
            {
                "start_time": 2.8,
                "end_time": 2.9795454545454545,
                "pitch": 33,
                "velocity": 64,
                "duration": 0.17954545454545467,
                "tempo": 120.0
            },
            {
                "start_time": 2.9977272727272726,
                "end_time": 3.377272727272727,
                "pitch": 33,
                "velocity": 64,
                "duration": 0.3795454545454544,
                "tempo": 120.0
            },
            {
                "start_time": 3.393181818181818,
                "end_time": 3.5795454545454546,
                "pitch": 33,
                "velocity": 64,
                "duration": 0.1863636363636365,
                "tempo": 120.0
            },
            {
                "start_time": 3.5954545454545452,
                "end_time": 3.9795454545454545,
                "pitch": 33,
                "velocity": 64,
                "duration": 0.38409090909090926,
                "tempo": 120.0
            },
            {
                "start_time": 3.995454545454545,
                "end_time": 4.184090909090909,
                "pitch": 33,
                "velocity": 64,
                "duration": 0.1886363636363635,
                "tempo": 120.0
            },
            {
                "start_time": 4.2,
                "end_time": 4.388636363636364,
                "pitch": 33,
                "velocity": 64,
                "duration": 0.1886363636363635,
                "tempo": 120.0
            },
            {
                "start_time": 4.406818181818181,
                "end_time": 4.586363636363636,
                "pitch": 33,
                "velocity": 64,
                "duration": 0.17954545454545467,
                "tempo": 120.0
            },
            {
                "start_time": 4.602272727272727,
                "end_time": 4.9818181818181815,
                "pitch": 33,
                "velocity": 64,
                "duration": 0.37954545454545485,
                "tempo": 120.0
            },
            {
                "start_time": 4.997727272727272,
                "end_time": 5.181818181818182,
                "pitch": 33,
                "velocity": 64,
                "duration": 0.18409090909090953,
                "tempo": 120.0
            },
            {
                "start_time": 5.197727272727272,
                "end_time": 5.584090909090909,
                "pitch": 33,
                "velocity": 64,
                "duration": 0.3863636363636367,
                "tempo": 120.0
            },
            {
                "start_time": 5.6,
                "end_time": 5.788636363636363,
                "pitch": 33,
                "velocity": 64,
                "duration": 0.1886363636363635,
                "tempo": 120.0
            },
            {
                "start_time": 5.806818181818182,
                "end_time": 5.995454545454545,
                "pitch": 33,
                "velocity": 64,
                "duration": 0.1886363636363635,
                "tempo": 120.0
            },
            {
                "start_time": 6.011363636363636,
                "end_time": 6.1909090909090905,
                "pitch": 33,
                "velocity": 64,
                "duration": 0.17954545454545467,
                "tempo": 120.0
            },
            {
                "start_time": 6.206818181818181,
                "end_time": 6.588636363636363,
                "pitch": 33,
                "velocity": 64,
                "duration": 0.38181818181818183,
                "tempo": 120.0
            },
            {
                "start_time": 6.6045454545454545,
                "end_time": 6.788636363636363,
                "pitch": 33,
                "velocity": 64,
                "duration": 0.18409090909090864,
                "tempo": 120.0
            },
            {
                "start_time": 6.806818181818182,
                "end_time": 7.1909090909090905,
                "pitch": 33,
                "velocity": 64,
                "duration": 0.3840909090909088,
                "tempo": 120.0
            },
            {
                "start_time": 7.206818181818181,
                "end_time": 7.3954545454545455,
                "pitch": 33,
                "velocity": 64,
                "duration": 0.18863636363636438,
                "tempo": 120.0
            },
            {
                "start_time": 7.411363636363636,
                "end_time": 7.6,
                "pitch": 33,
                "velocity": 64,
                "duration": 0.1886363636363635,
                "tempo": 120.0
            },
            {
                "start_time": 7.618181818181818,
                "end_time": 7.797727272727272,
                "pitch": 33,
                "velocity": 64,
                "duration": 0.1795454545454538,
                "tempo": 120.0
            },
            {
                "start_time": 7.8136363636363635,
                "end_time": 8.193181818181818,
                "pitch": 33,
                "velocity": 64,
                "duration": 0.37954545454545485,
                "tempo": 120.0
            },
            {
                "start_time": 8.211363636363636,
                "end_time": 8.395454545454545,
                "pitch": 33,
                "velocity": 64,
                "duration": 0.18409090909090864,
                "tempo": 120.0
            },
            {
                "start_time": 8.411363636363635,
                "end_time": 8.797727272727272,
                "pitch": 33,
                "velocity": 64,
                "duration": 0.3863636363636367,
                "tempo": 120.0
            },
            {
                "start_time": 8.813636363636363,
                "end_time": 9.002272727272727,
                "pitch": 33,
                "velocity": 64,
                "duration": 0.18863636363636438,
                "tempo": 120.0
            },
            {
                "start_time": 9.020454545454545,
                "end_time": 9.209090909090909,
                "pitch": 33,
                "velocity": 64,
                "duration": 0.18863636363636438,
                "tempo": 120.0
            },
            {
                "start_time": 9.225,
                "end_time": 9.404545454545454,
                "pitch": 33,
                "velocity": 64,
                "duration": 0.17954545454545467,
                "tempo": 120.0
            },
            {
                "start_time": 9.420454545454545,
                "end_time": 9.802272727272726,
                "pitch": 33,
                "velocity": 64,
                "duration": 0.38181818181818095,
                "tempo": 120.0
            },
            {
                "start_time": 9.818181818181818,
                "end_time": 10.004545454545454,
                "pitch": 33,
                "velocity": 64,
                "duration": 0.18636363636363562,
                "tempo": 120.0
            },
            {
                "start_time": 10.020454545454545,
                "end_time": 10.406818181818181,
                "pitch": 33,
                "velocity": 64,
                "duration": 0.3863636363636367,
                "tempo": 120.0
            },
            {
                "start_time": 10.422727272727272,
                "end_time": 10.611363636363636,
                "pitch": 36,
                "velocity": 64,
                "duration": 0.18863636363636438,
                "tempo": 120.0
            },
            {
                "start_time": 10.627272727272727,
                "end_time": 10.81590909090909,
                "pitch": 36,
                "velocity": 64,
                "duration": 0.1886363636363626,
                "tempo": 120.0
            },
            {
                "start_time": 10.834090909090909,
                "end_time": 11.013636363636364,
                "pitch": 36,
                "velocity": 64,
                "duration": 0.17954545454545467,
                "tempo": 120.0
            },
            {
                "start_time": 11.029545454545454,
                "end_time": 11.209090909090909,
                "pitch": 36,
                "velocity": 64,
                "duration": 0.17954545454545467,
                "tempo": 120.0
            },
            {
                "start_time": 11.225,
                "end_time": 11.413636363636362,
                "pitch": 36,
                "velocity": 64,
                "duration": 0.1886363636363626,
                "tempo": 120.0
            },
            {
                "start_time": 11.431818181818182,
                "end_time": 11.618181818181817,
                "pitch": 36,
                "velocity": 64,
                "duration": 0.18636363636363562,
                "tempo": 120.0
            },
            {
                "start_time": 11.636363636363637,
                "end_time": 11.81590909090909,
                "pitch": 36,
                "velocity": 64,
                "duration": 0.1795454545454529,
                "tempo": 120.0
            },
            {
                "start_time": 11.831818181818182,
                "end_time": 12.21590909090909,
                "pitch": 39,
                "velocity": 64,
                "duration": 0.38409090909090793,
                "tempo": 120.0
            },
            {
                "start_time": 12.23409090909091,
                "end_time": 12.422727272727272,
                "pitch": 39,
                "velocity": 64,
                "duration": 0.1886363636363626,
                "tempo": 120.0
            },
            {
                "start_time": 12.438636363636363,
                "end_time": 12.622727272727271,
                "pitch": 39,
                "velocity": 64,
                "duration": 0.18409090909090864,
                "tempo": 120.0
            },
            {
                "start_time": 12.64090909090909,
                "end_time": 12.825,
                "pitch": 39,
                "velocity": 64,
                "duration": 0.18409090909090864,
                "tempo": 120.0
            },
            {
                "start_time": 13.627272727272727,
                "end_time": 13.820454545454545,
                "pitch": 40,
                "velocity": 64,
                "duration": 0.19318181818181834,
                "tempo": 120.0
            },
            {
                "start_time": 13.838636363636363,
                "end_time": 14.031818181818181,
                "pitch": 40,
                "velocity": 64,
                "duration": 0.19318181818181834,
                "tempo": 120.0
            },
            {
                "start_time": 14.047727272727272,
                "end_time": 14.229545454545454,
                "pitch": 40,
                "velocity": 64,
                "duration": 0.18181818181818166,
                "tempo": 120.0
            },
            {
                "start_time": 14.245454545454544,
                "end_time": 14.424999999999999,
                "pitch": 40,
                "velocity": 64,
                "duration": 0.17954545454545467,
                "tempo": 120.0
            },
            {
                "start_time": 14.44090909090909,
                "end_time": 14.629545454545454,
                "pitch": 40,
                "velocity": 64,
                "duration": 0.18863636363636438,
                "tempo": 120.0
            },
            {
                "start_time": 14.645454545454545,
                "end_time": 14.834090909090909,
                "pitch": 40,
                "velocity": 64,
                "duration": 0.18863636363636438,
                "tempo": 120.0
            },
            {
                "start_time": 14.852272727272727,
                "end_time": 15.040909090909091,
                "pitch": 40,
                "velocity": 64,
                "duration": 0.18863636363636438,
                "tempo": 120.0
            },
            {
                "start_time": 15.056818181818182,
                "end_time": 15.245454545454544,
                "pitch": 40,
                "velocity": 64,
                "duration": 0.1886363636363626,
                "tempo": 120.0
            },
            {
                "start_time": 15.261363636363635,
                "end_time": 15.443181818181817,
                "pitch": 38,
                "velocity": 64,
                "duration": 0.18181818181818166,
                "tempo": 120.0
            },
            {
                "start_time": 15.459090909090909,
                "end_time": 15.638636363636364,
                "pitch": 38,
                "velocity": 64,
                "duration": 0.17954545454545467,
                "tempo": 120.0
            },
            {
                "start_time": 15.654545454545454,
                "end_time": 15.834090909090909,
                "pitch": 38,
                "velocity": 64,
                "duration": 0.17954545454545467,
                "tempo": 120.0
            },
            {
                "start_time": 15.85,
                "end_time": 16.03181818181818,
                "pitch": 38,
                "velocity": 64,
                "duration": 0.18181818181818166,
                "tempo": 120.0
            },
            {
                "start_time": 16.047727272727272,
                "end_time": 16.238636363636363,
                "pitch": 38,
                "velocity": 64,
                "duration": 0.19090909090909136,
                "tempo": 120.0
            },
            {
                "start_time": 16.256818181818183,
                "end_time": 16.45,
                "pitch": 38,
                "velocity": 64,
                "duration": 0.19318181818181657,
                "tempo": 120.0
            },
            {
                "start_time": 16.46818181818182,
                "end_time": 16.654545454545453,
                "pitch": 38,
                "velocity": 64,
                "duration": 0.18636363636363384,
                "tempo": 120.0
            },
            {
                "start_time": 16.670454545454543,
                "end_time": 16.854545454545455,
                "pitch": 38,
                "velocity": 64,
                "duration": 0.1840909090909122,
                "tempo": 120.0
            },
            {
                "start_time": 16.87272727272727,
                "end_time": 17.052272727272726,
                "pitch": 43,
                "velocity": 64,
                "duration": 0.17954545454545467,
                "tempo": 120.0
            },
            {
                "start_time": 17.068181818181817,
                "end_time": 17.24772727272727,
                "pitch": 43,
                "velocity": 64,
                "duration": 0.17954545454545467,
                "tempo": 120.0
            },
            {
                "start_time": 17.263636363636362,
                "end_time": 17.443181818181817,
                "pitch": 43,
                "velocity": 64,
                "duration": 0.17954545454545467,
                "tempo": 120.0
            },
            {
                "start_time": 17.461363636363636,
                "end_time": 17.64090909090909,
                "pitch": 43,
                "velocity": 64,
                "duration": 0.17954545454545467,
                "tempo": 120.0
            },
            {
                "start_time": 17.65681818181818,
                "end_time": 17.845454545454544,
                "pitch": 43,
                "velocity": 64,
                "duration": 0.1886363636363626,
                "tempo": 120.0
            },
            {
                "start_time": 17.861363636363635,
                "end_time": 18.05,
                "pitch": 43,
                "velocity": 64,
                "duration": 0.18863636363636616,
                "tempo": 120.0
            },
            {
                "start_time": 18.06590909090909,
                "end_time": 18.254545454545454,
                "pitch": 43,
                "velocity": 64,
                "duration": 0.1886363636363626,
                "tempo": 120.0
            },
            {
                "start_time": 18.272727272727273,
                "end_time": 18.461363636363636,
                "pitch": 43,
                "velocity": 64,
                "duration": 0.1886363636363626,
                "tempo": 120.0
            },
            {
                "start_time": 18.477272727272727,
                "end_time": 18.659090909090907,
                "pitch": 45,
                "velocity": 64,
                "duration": 0.18181818181817988,
                "tempo": 120.0
            },
            {
                "start_time": 18.675,
                "end_time": 18.854545454545455,
                "pitch": 45,
                "velocity": 64,
                "duration": 0.17954545454545467,
                "tempo": 120.0
            },
            {
                "start_time": 18.870454545454546,
                "end_time": 19.05,
                "pitch": 45,
                "velocity": 64,
                "duration": 0.17954545454545467,
                "tempo": 120.0
            },
            {
                "start_time": 19.06590909090909,
                "end_time": 19.245454545454546,
                "pitch": 45,
                "velocity": 64,
                "duration": 0.17954545454545467,
                "tempo": 120.0
            },
            {
                "start_time": 19.263636363636362,
                "end_time": 19.45,
                "pitch": 45,
                "velocity": 64,
                "duration": 0.1863636363636374,
                "tempo": 120.0
            },
            {
                "start_time": 19.46818181818182,
                "end_time": 19.65681818181818,
                "pitch": 45,
                "velocity": 64,
                "duration": 0.1886363636363626,
                "tempo": 120.0
            },
            {
                "start_time": 19.672727272727272,
                "end_time": 19.852272727272727,
                "pitch": 33,
                "velocity": 64,
                "duration": 0.17954545454545467,
                "tempo": 120.0
            },
            {
                "start_time": 19.868181818181817,
                "end_time": 20.05,
                "pitch": 35,
                "velocity": 64,
                "duration": 0.18181818181818343,
                "tempo": 120.0
            },
            {
                "start_time": 20.06590909090909,
                "end_time": 20.252272727272725,
                "pitch": 36,
                "velocity": 64,
                "duration": 0.18636363636363384,
                "tempo": 120.0
            },
            {
                "start_time": 20.270454545454545,
                "end_time": 20.459090909090907,
                "pitch": 36,
                "velocity": 64,
                "duration": 0.1886363636363626,
                "tempo": 120.0
            },
            {
                "start_time": 20.474999999999998,
                "end_time": 20.654545454545453,
                "pitch": 36,
                "velocity": 64,
                "duration": 0.17954545454545467,
                "tempo": 120.0
            },
            {
                "start_time": 20.672727272727272,
                "end_time": 20.852272727272727,
                "pitch": 36,
                "velocity": 64,
                "duration": 0.17954545454545467,
                "tempo": 120.0
            },
            {
                "start_time": 20.868181818181817,
                "end_time": 21.05909090909091,
                "pitch": 36,
                "velocity": 64,
                "duration": 0.19090909090909136,
                "tempo": 120.0
            },
            {
                "start_time": 21.077272727272724,
                "end_time": 21.270454545454545,
                "pitch": 36,
                "velocity": 64,
                "duration": 0.19318181818182012,
                "tempo": 120.0
            },
            {
                "start_time": 21.288636363636364,
                "end_time": 21.472727272727273,
                "pitch": 36,
                "velocity": 64,
                "duration": 0.18409090909090864,
                "tempo": 120.0
            },
            {
                "start_time": 21.49090909090909,
                "end_time": 21.672727272727272,
                "pitch": 36,
                "velocity": 64,
                "duration": 0.18181818181818343,
                "tempo": 120.0
            },
            {
                "start_time": 21.69090909090909,
                "end_time": 21.875,
                "pitch": 35,
                "velocity": 64,
                "duration": 0.18409090909090864,
                "tempo": 120.0
            },
            {
                "start_time": 21.89090909090909,
                "end_time": 22.075,
                "pitch": 35,
                "velocity": 64,
                "duration": 0.18409090909090864,
                "tempo": 120.0
            },
            {
                "start_time": 22.09318181818182,
                "end_time": 22.268181818181816,
                "pitch": 35,
                "velocity": 64,
                "duration": 0.17499999999999716,
                "tempo": 120.0
            },
            {
                "start_time": 22.284090909090907,
                "end_time": 22.459090909090907,
                "pitch": 35,
                "velocity": 64,
                "duration": 0.1750000000000007,
                "tempo": 120.0
            },
            {
                "start_time": 22.474999999999998,
                "end_time": 22.66590909090909,
                "pitch": 35,
                "velocity": 64,
                "duration": 0.19090909090909136,
                "tempo": 120.0
            },
            {
                "start_time": 22.68409090909091,
                "end_time": 22.877272727272725,
                "pitch": 35,
                "velocity": 64,
                "duration": 0.19318181818181657,
                "tempo": 120.0
            },
            {
                "start_time": 22.895454545454545,
                "end_time": 23.079545454545453,
                "pitch": 35,
                "velocity": 64,
                "duration": 0.18409090909090864,
                "tempo": 120.0
            },
            {
                "start_time": 23.095454545454544,
                "end_time": 23.279545454545453,
                "pitch": 35,
                "velocity": 64,
                "duration": 0.18409090909090864,
                "tempo": 120.0
            },
            {
                "start_time": 23.295454545454543,
                "end_time": 23.479545454545452,
                "pitch": 33,
                "velocity": 64,
                "duration": 0.18409090909090864,
                "tempo": 120.0
            },
            {
                "start_time": 23.495454545454546,
                "end_time": 23.679545454545455,
                "pitch": 33,
                "velocity": 64,
                "duration": 0.18409090909090864,
                "tempo": 120.0
            },
            {
                "start_time": 23.695454545454545,
                "end_time": 23.87272727272727,
                "pitch": 33,
                "velocity": 64,
                "duration": 0.17727272727272592,
                "tempo": 120.0
            },
            {
                "start_time": 23.888636363636362,
                "end_time": 24.063636363636363,
                "pitch": 33,
                "velocity": 64,
                "duration": 0.1750000000000007,
                "tempo": 120.0
            },
            {
                "start_time": 24.079545454545453,
                "end_time": 24.261363636363637,
                "pitch": 33,
                "velocity": 64,
                "duration": 0.18181818181818343,
                "tempo": 120.0
            },
            {
                "start_time": 24.279545454545453,
                "end_time": 24.461363636363636,
                "pitch": 33,
                "velocity": 64,
                "duration": 0.18181818181818343,
                "tempo": 120.0
            },
            {
                "start_time": 24.479545454545452,
                "end_time": 24.661363636363635,
                "pitch": 33,
                "velocity": 64,
                "duration": 0.18181818181818343,
                "tempo": 120.0
            },
            {
                "start_time": 24.679545454545455,
                "end_time": 24.861363636363635,
                "pitch": 33,
                "velocity": 64,
                "duration": 0.18181818181817988,
                "tempo": 120.0
            },
            {
                "start_time": 24.879545454545454,
                "end_time": 25.06590909090909,
                "pitch": 33,
                "velocity": 64,
                "duration": 0.1863636363636374,
                "tempo": 120.0
            },
            {
                "start_time": 25.084090909090907,
                "end_time": 25.27272727272727,
                "pitch": 33,
                "velocity": 64,
                "duration": 0.1886363636363626,
                "tempo": 120.0
            },
            {
                "start_time": 25.288636363636364,
                "end_time": 25.46818181818182,
                "pitch": 33,
                "velocity": 64,
                "duration": 0.17954545454545467,
                "tempo": 120.0
            },
            {
                "start_time": 25.486363636363635,
                "end_time": 25.66590909090909,
                "pitch": 33,
                "velocity": 64,
                "duration": 0.17954545454545467,
                "tempo": 120.0
            },
            {
                "start_time": 25.68181818181818,
                "end_time": 25.870454545454542,
                "pitch": 33,
                "velocity": 64,
                "duration": 0.1886363636363626,
                "tempo": 120.0
            },
            {
                "start_time": 26.472727272727273,
                "end_time": 26.66590909090909,
                "pitch": 40,
                "velocity": 64,
                "duration": 0.19318181818181657,
                "tempo": 120.0
            },
            {
                "start_time": 26.68409090909091,
                "end_time": 26.877272727272725,
                "pitch": 40,
                "velocity": 64,
                "duration": 0.19318181818181657,
                "tempo": 120.0
            },
            {
                "start_time": 26.895454545454545,
                "end_time": 27.075,
                "pitch": 40,
                "velocity": 64,
                "duration": 0.17954545454545467,
                "tempo": 120.0
            },
            {
                "start_time": 27.09090909090909,
                "end_time": 27.270454545454545,
                "pitch": 40,
                "velocity": 64,
                "duration": 0.17954545454545467,
                "tempo": 120.0
            },
            {
                "start_time": 27.286363636363635,
                "end_time": 27.479545454545452,
                "pitch": 40,
                "velocity": 64,
                "duration": 0.19318181818181657,
                "tempo": 120.0
            },
            {
                "start_time": 27.49772727272727,
                "end_time": 27.690909090909088,
                "pitch": 40,
                "velocity": 64,
                "duration": 0.19318181818181657,
                "tempo": 120.0
            },
            {
                "start_time": 27.709090909090907,
                "end_time": 27.893181818181816,
                "pitch": 40,
                "velocity": 64,
                "duration": 0.18409090909090864,
                "tempo": 120.0
            },
            {
                "start_time": 27.911363636363635,
                "end_time": 28.095454545454544,
                "pitch": 40,
                "velocity": 64,
                "duration": 0.18409090909090864,
                "tempo": 120.0
            },
            {
                "start_time": 28.111363636363635,
                "end_time": 28.29090909090909,
                "pitch": 38,
                "velocity": 64,
                "duration": 0.17954545454545467,
                "tempo": 120.0
            },
            {
                "start_time": 28.30909090909091,
                "end_time": 28.488636363636363,
                "pitch": 38,
                "velocity": 64,
                "duration": 0.17954545454545467,
                "tempo": 120.0
            },
            {
                "start_time": 28.504545454545454,
                "end_time": 28.68409090909091,
                "pitch": 38,
                "velocity": 64,
                "duration": 0.17954545454545467,
                "tempo": 120.0
            },
            {
                "start_time": 28.7,
                "end_time": 28.879545454545454,
                "pitch": 38,
                "velocity": 64,
                "duration": 0.17954545454545467,
                "tempo": 120.0
            },
            {
                "start_time": 28.895454545454545,
                "end_time": 29.08863636363636,
                "pitch": 38,
                "velocity": 64,
                "duration": 0.19318181818181657,
                "tempo": 120.0
            },
            {
                "start_time": 29.10681818181818,
                "end_time": 29.299999999999997,
                "pitch": 38,
                "velocity": 64,
                "duration": 0.19318181818181657,
                "tempo": 120.0
            },
            {
                "start_time": 29.318181818181817,
                "end_time": 29.502272727272725,
                "pitch": 38,
                "velocity": 64,
                "duration": 0.18409090909090864,
                "tempo": 120.0
            },
            {
                "start_time": 29.518181818181816,
                "end_time": 29.702272727272724,
                "pitch": 38,
                "velocity": 64,
                "duration": 0.18409090909090864,
                "tempo": 120.0
            },
            {
                "start_time": 29.718181818181815,
                "end_time": 29.902272727272727,
                "pitch": 43,
                "velocity": 64,
                "duration": 0.1840909090909122,
                "tempo": 120.0
            },
            {
                "start_time": 29.920454545454543,
                "end_time": 30.104545454545452,
                "pitch": 43,
                "velocity": 64,
                "duration": 0.18409090909090864,
                "tempo": 120.0
            },
            {
                "start_time": 30.120454545454542,
                "end_time": 30.295454545454543,
                "pitch": 43,
                "velocity": 64,
                "duration": 0.1750000000000007,
                "tempo": 120.0
            },
            {
                "start_time": 30.311363636363634,
                "end_time": 30.486363636363635,
                "pitch": 43,
                "velocity": 64,
                "duration": 0.1750000000000007,
                "tempo": 120.0
            },
            {
                "start_time": 30.502272727272725,
                "end_time": 30.690909090909088,
                "pitch": 43,
                "velocity": 64,
                "duration": 0.1886363636363626,
                "tempo": 120.0
            },
            {
                "start_time": 30.709090909090907,
                "end_time": 30.895454545454545,
                "pitch": 43,
                "velocity": 64,
                "duration": 0.1863636363636374,
                "tempo": 120.0
            },
            {
                "start_time": 30.91363636363636,
                "end_time": 31.102272727272727,
                "pitch": 43,
                "velocity": 64,
                "duration": 0.18863636363636616,
                "tempo": 120.0
            },
            {
                "start_time": 31.118181818181817,
                "end_time": 31.30681818181818,
                "pitch": 43,
                "velocity": 64,
                "duration": 0.1886363636363626,
                "tempo": 120.0
            },
            {
                "start_time": 31.325,
                "end_time": 31.504545454545454,
                "pitch": 45,
                "velocity": 64,
                "duration": 0.17954545454545467,
                "tempo": 120.0
            },
            {
                "start_time": 31.520454545454545,
                "end_time": 31.7,
                "pitch": 45,
                "velocity": 64,
                "duration": 0.17954545454545467,
                "tempo": 120.0
            },
            {
                "start_time": 31.718181818181815,
                "end_time": 31.89772727272727,
                "pitch": 45,
                "velocity": 64,
                "duration": 0.17954545454545467,
                "tempo": 120.0
            },
            {
                "start_time": 31.91363636363636,
                "end_time": 32.09318181818182,
                "pitch": 45,
                "velocity": 64,
                "duration": 0.17954545454545823,
                "tempo": 120.0
            },
            {
                "start_time": 32.10909090909091,
                "end_time": 32.29772727272727,
                "pitch": 45,
                "velocity": 64,
                "duration": 0.1886363636363626,
                "tempo": 120.0
            },
            {
                "start_time": 32.31363636363636,
                "end_time": 32.502272727272725,
                "pitch": 45,
                "velocity": 64,
                "duration": 0.1886363636363626,
                "tempo": 120.0
            },
            {
                "start_time": 32.52045454545454,
                "end_time": 32.699999999999996,
                "pitch": 33,
                "velocity": 64,
                "duration": 0.17954545454545467,
                "tempo": 120.0
            },
            {
                "start_time": 32.715909090909086,
                "end_time": 32.89545454545454,
                "pitch": 35,
                "velocity": 64,
                "duration": 0.17954545454545467,
                "tempo": 120.0
            },
            {
                "start_time": 32.91136363636363,
                "end_time": 33.1,
                "pitch": 36,
                "velocity": 64,
                "duration": 0.1886363636363697,
                "tempo": 120.0
            },
            {
                "start_time": 33.11590909090909,
                "end_time": 33.304545454545455,
                "pitch": 36,
                "velocity": 64,
                "duration": 0.1886363636363626,
                "tempo": 120.0
            },
            {
                "start_time": 33.32272727272727,
                "end_time": 33.502272727272725,
                "pitch": 36,
                "velocity": 64,
                "duration": 0.17954545454545467,
                "tempo": 120.0
            },
            {
                "start_time": 33.518181818181816,
                "end_time": 33.69772727272727,
                "pitch": 36,
                "velocity": 64,
                "duration": 0.17954545454545467,
                "tempo": 120.0
            },
            {
                "start_time": 33.71363636363636,
                "end_time": 33.902272727272724,
                "pitch": 36,
                "velocity": 64,
                "duration": 0.1886363636363626,
                "tempo": 120.0
            },
            {
                "start_time": 33.92045454545455,
                "end_time": 34.10681818181818,
                "pitch": 36,
                "velocity": 64,
                "duration": 0.1863636363636303,
                "tempo": 120.0
            },
            {
                "start_time": 34.125,
                "end_time": 34.31363636363636,
                "pitch": 36,
                "velocity": 64,
                "duration": 0.1886363636363626,
                "tempo": 120.0
            },
            {
                "start_time": 34.32954545454545,
                "end_time": 34.518181818181816,
                "pitch": 36,
                "velocity": 64,
                "duration": 0.1886363636363626,
                "tempo": 120.0
            },
            {
                "start_time": 34.53636363636363,
                "end_time": 34.720454545454544,
                "pitch": 35,
                "velocity": 64,
                "duration": 0.1840909090909122,
                "tempo": 120.0
            },
            {
                "start_time": 34.736363636363635,
                "end_time": 34.92045454545455,
                "pitch": 35,
                "velocity": 64,
                "duration": 0.1840909090909122,
                "tempo": 120.0
            },
            {
                "start_time": 34.93636363636364,
                "end_time": 35.111363636363635,
                "pitch": 35,
                "velocity": 64,
                "duration": 0.17499999999999716,
                "tempo": 120.0
            },
            {
                "start_time": 35.127272727272725,
                "end_time": 35.30227272727272,
                "pitch": 35,
                "velocity": 64,
                "duration": 0.17499999999999716,
                "tempo": 120.0
            },
            {
                "start_time": 35.31818181818181,
                "end_time": 35.50681818181818,
                "pitch": 35,
                "velocity": 64,
                "duration": 0.1886363636363697,
                "tempo": 120.0
            },
            {
                "start_time": 35.52272727272727,
                "end_time": 35.711363636363636,
                "pitch": 35,
                "velocity": 64,
                "duration": 0.1886363636363626,
                "tempo": 120.0
            },
            {
                "start_time": 35.72954545454545,
                "end_time": 35.918181818181814,
                "pitch": 35,
                "velocity": 64,
                "duration": 0.1886363636363626,
                "tempo": 120.0
            },
            {
                "start_time": 35.934090909090905,
                "end_time": 36.12272727272727,
                "pitch": 35,
                "velocity": 64,
                "duration": 0.1886363636363626,
                "tempo": 120.0
            },
            {
                "start_time": 36.14090909090909,
                "end_time": 36.324999999999996,
                "pitch": 36,
                "velocity": 64,
                "duration": 0.18409090909090509,
                "tempo": 120.0
            },
            {
                "start_time": 36.340909090909086,
                "end_time": 36.527272727272724,
                "pitch": 36,
                "velocity": 64,
                "duration": 0.1863636363636374,
                "tempo": 120.0
            },
            {
                "start_time": 36.543181818181814,
                "end_time": 36.71818181818182,
                "pitch": 36,
                "velocity": 64,
                "duration": 0.17500000000000426,
                "tempo": 120.0
            },
            {
                "start_time": 36.73409090909091,
                "end_time": 36.90909090909091,
                "pitch": 36,
                "velocity": 64,
                "duration": 0.17499999999999716,
                "tempo": 120.0
            },
            {
                "start_time": 36.925,
                "end_time": 37.11590909090909,
                "pitch": 36,
                "velocity": 64,
                "duration": 0.19090909090909491,
                "tempo": 120.0
            },
            {
                "start_time": 37.13409090909091,
                "end_time": 37.32727272727273,
                "pitch": 36,
                "velocity": 64,
                "duration": 0.19318181818182012,
                "tempo": 120.0
            },
            {
                "start_time": 37.345454545454544,
                "end_time": 37.529545454545456,
                "pitch": 35,
                "velocity": 64,
                "duration": 0.1840909090909122,
                "tempo": 120.0
            },
            {
                "start_time": 37.54772727272727,
                "end_time": 37.91590909090909,
                "pitch": 33,
                "velocity": 64,
                "duration": 0.3681818181818173,
                "tempo": 120.0
            },
            {
                "start_time": 37.93181818181818,
                "end_time": 38.1,
                "pitch": 38,
                "velocity": 64,
                "duration": 0.16818181818182154,
                "tempo": 120.0
            },
            {
                "start_time": 38.11590909090909,
                "end_time": 38.52045454545454,
                "pitch": 38,
                "velocity": 64,
                "duration": 0.404545454545449,
                "tempo": 120.0
            },
            {
                "start_time": 38.73409090909091,
                "end_time": 38.913636363636364,
                "pitch": 38,
                "velocity": 64,
                "duration": 0.17954545454545467,
                "tempo": 120.0
            },
            {
                "start_time": 38.929545454545455,
                "end_time": 39.11363636363636,
                "pitch": 38,
                "velocity": 64,
                "duration": 0.18409090909090509,
                "tempo": 120.0
            },
            {
                "start_time": 39.32954545454545,
                "end_time": 39.72272727272727,
                "pitch": 36,
                "velocity": 64,
                "duration": 0.39318181818181586,
                "tempo": 120.0
            },
            {
                "start_time": 39.94090909090909,
                "end_time": 40.320454545454545,
                "pitch": 38,
                "velocity": 64,
                "duration": 0.3795454545454575,
                "tempo": 120.0
            },
            {
                "start_time": 40.73181818181818,
                "end_time": 41.111363636363635,
                "pitch": 40,
                "velocity": 64,
                "duration": 0.3795454545454575,
                "tempo": 120.0
            },
            {
                "start_time": 41.12954545454545,
                "end_time": 41.309090909090905,
                "pitch": 52,
                "velocity": 64,
                "duration": 0.17954545454545467,
                "tempo": 120.0
            },
            {
                "start_time": 41.324999999999996,
                "end_time": 41.51363636363636,
                "pitch": 50,
                "velocity": 64,
                "duration": 0.1886363636363626,
                "tempo": 120.0
            },
            {
                "start_time": 41.52954545454545,
                "end_time": 41.71818181818182,
                "pitch": 48,
                "velocity": 64,
                "duration": 0.1886363636363697,
                "tempo": 120.0
            },
            {
                "start_time": 41.736363636363635,
                "end_time": 41.925,
                "pitch": 43,
                "velocity": 64,
                "duration": 0.1886363636363626,
                "tempo": 120.0
            },
            {
                "start_time": 41.94090909090909,
                "end_time": 42.12954545454545,
                "pitch": 50,
                "velocity": 64,
                "duration": 0.1886363636363626,
                "tempo": 120.0
            },
            {
                "start_time": 42.14772727272727,
                "end_time": 42.32727272727273,
                "pitch": 48,
                "velocity": 64,
                "duration": 0.17954545454545467,
                "tempo": 120.0
            },
            {
                "start_time": 42.34318181818182,
                "end_time": 42.52272727272727,
                "pitch": 47,
                "velocity": 64,
                "duration": 0.17954545454545467,
                "tempo": 120.0
            },
            {
                "start_time": 42.538636363636364,
                "end_time": 42.93181818181818,
                "pitch": 36,
                "velocity": 64,
                "duration": 0.39318181818181586,
                "tempo": 120.0
            },
            {
                "start_time": 43.15,
                "end_time": 43.53181818181818,
                "pitch": 38,
                "velocity": 64,
                "duration": 0.3818181818181827,
                "tempo": 120.0
            },
            {
                "start_time": 43.74545454545454,
                "end_time": 43.92727272727272,
                "pitch": 35,
                "velocity": 64,
                "duration": 0.18181818181817988,
                "tempo": 120.0
            },
            {
                "start_time": 43.945454545454545,
                "end_time": 44.324999999999996,
                "pitch": 40,
                "velocity": 64,
                "duration": 0.3795454545454504,
                "tempo": 120.0
            },
            {
                "start_time": 44.340909090909086,
                "end_time": 44.724999999999994,
                "pitch": 43,
                "velocity": 64,
                "duration": 0.38409090909090793,
                "tempo": 120.0
            },
            {
                "start_time": 44.74090909090909,
                "end_time": 44.929545454545455,
                "pitch": 55,
                "velocity": 64,
                "duration": 0.1886363636363626,
                "tempo": 120.0
            },
            {
                "start_time": 44.94772727272727,
                "end_time": 45.13181818181818,
                "pitch": 45,
                "velocity": 64,
                "duration": 0.1840909090909122,
                "tempo": 120.0
            },
            {
                "start_time": 45.14772727272727,
                "end_time": 45.33181818181818,
                "pitch": 57,
                "velocity": 64,
                "duration": 0.18409090909090509,
                "tempo": 120.0
            },
            {
                "start_time": 45.34772727272727,
                "end_time": 45.53181818181818,
                "pitch": 47,
                "velocity": 64,
                "duration": 0.1840909090909122,
                "tempo": 120.0
            },
            {
                "start_time": 45.54772727272727,
                "end_time": 45.73409090909091,
                "pitch": 59,
                "velocity": 64,
                "duration": 0.1863636363636374,
                "tempo": 120.0
            },
            {
                "start_time": 45.75,
                "end_time": 46.143181818181816,
                "pitch": 36,
                "velocity": 64,
                "duration": 0.39318181818181586,
                "tempo": 120.0
            },
            {
                "start_time": 46.361363636363635,
                "end_time": 46.74090909090909,
                "pitch": 38,
                "velocity": 64,
                "duration": 0.3795454545454575,
                "tempo": 120.0
            },
            {
                "start_time": 47.152272727272724,
                "end_time": 47.53181818181818,
                "pitch": 40,
                "velocity": 64,
                "duration": 0.3795454545454575,
                "tempo": 120.0
            },
            {
                "start_time": 47.55,
                "end_time": 47.72954545454545,
                "pitch": 48,
                "velocity": 64,
                "duration": 0.17954545454545467,
                "tempo": 120.0
            },
            {
                "start_time": 47.74545454545454,
                "end_time": 47.934090909090905,
                "pitch": 35,
                "velocity": 64,
                "duration": 0.1886363636363626,
                "tempo": 120.0
            },
            {
                "start_time": 47.949999999999996,
                "end_time": 48.13863636363636,
                "pitch": 47,
                "velocity": 64,
                "duration": 0.1886363636363626,
                "tempo": 120.0
            },
            {
                "start_time": 48.15681818181818,
                "end_time": 48.345454545454544,
                "pitch": 45,
                "velocity": 64,
                "duration": 0.1886363636363626,
                "tempo": 120.0
            },
            {
                "start_time": 48.361363636363635,
                "end_time": 48.55,
                "pitch": 45,
                "velocity": 64,
                "duration": 0.1886363636363626,
                "tempo": 120.0
            },
            {
                "start_time": 48.56818181818181,
                "end_time": 48.75,
                "pitch": 48,
                "velocity": 64,
                "duration": 0.18181818181818699,
                "tempo": 120.0
            },
            {
                "start_time": 48.768181818181816,
                "end_time": 48.949999999999996,
                "pitch": 50,
                "velocity": 64,
                "duration": 0.18181818181817988,
                "tempo": 120.0
            },
            {
                "start_time": 48.96818181818182,
                "end_time": 49.14772727272727,
                "pitch": 50,
                "velocity": 64,
                "duration": 0.17954545454545467,
                "tempo": 120.0
            },
            {
                "start_time": 49.163636363636364,
                "end_time": 49.34318181818182,
                "pitch": 50,
                "velocity": 64,
                "duration": 0.17954545454545467,
                "tempo": 120.0
            },
            {
                "start_time": 49.35909090909091,
                "end_time": 49.543181818181814,
                "pitch": 50,
                "velocity": 64,
                "duration": 0.18409090909090509,
                "tempo": 120.0
            },
            {
                "start_time": 49.56136363636364,
                "end_time": 49.74545454545454,
                "pitch": 50,
                "velocity": 64,
                "duration": 0.18409090909090509,
                "tempo": 120.0
            },
            {
                "start_time": 49.76136363636363,
                "end_time": 49.945454545454545,
                "pitch": 50,
                "velocity": 64,
                "duration": 0.1840909090909122,
                "tempo": 120.0
            },
            {
                "start_time": 49.961363636363636,
                "end_time": 50.14545454545454,
                "pitch": 50,
                "velocity": 64,
                "duration": 0.18409090909090509,
                "tempo": 120.0
            },
            {
                "start_time": 50.16136363636363,
                "end_time": 50.345454545454544,
                "pitch": 50,
                "velocity": 64,
                "duration": 0.1840909090909122,
                "tempo": 120.0
            },
            {
                "start_time": 50.361363636363635,
                "end_time": 50.54545454545454,
                "pitch": 50,
                "velocity": 64,
                "duration": 0.18409090909090509,
                "tempo": 120.0
            },
            {
                "start_time": 50.56136363636364,
                "end_time": 50.74545454545454,
                "pitch": 50,
                "velocity": 64,
                "duration": 0.18409090909090509,
                "tempo": 120.0
            },
            {
                "start_time": 50.76136363636363,
                "end_time": 50.945454545454545,
                "pitch": 50,
                "velocity": 64,
                "duration": 0.1840909090909122,
                "tempo": 120.0
            },
            {
                "start_time": 50.961363636363636,
                "end_time": 51.14545454545454,
                "pitch": 50,
                "velocity": 64,
                "duration": 0.18409090909090509,
                "tempo": 120.0
            },
            {
                "start_time": 51.16136363636363,
                "end_time": 51.345454545454544,
                "pitch": 50,
                "velocity": 64,
                "duration": 0.1840909090909122,
                "tempo": 120.0
            },
            {
                "start_time": 51.361363636363635,
                "end_time": 51.55,
                "pitch": 50,
                "velocity": 64,
                "duration": 0.1886363636363626,
                "tempo": 120.0
            },
            {
                "start_time": 51.56818181818181,
                "end_time": 51.75681818181818,
                "pitch": 50,
                "velocity": 64,
                "duration": 0.1886363636363697,
                "tempo": 120.0
            },
            {
                "start_time": 51.77272727272727,
                "end_time": 51.95227272727273,
                "pitch": 50,
                "velocity": 64,
                "duration": 0.17954545454545467,
                "tempo": 120.0
            },
            {
                "start_time": 51.96818181818182,
                "end_time": 52.14772727272727,
                "pitch": 50,
                "velocity": 64,
                "duration": 0.17954545454545467,
                "tempo": 120.0
            },
            {
                "start_time": 52.16590909090909,
                "end_time": 52.35227272727273,
                "pitch": 33,
                "velocity": 64,
                "duration": 0.1863636363636374,
                "tempo": 120.0
            }
        ],
        "Lead 2 (sawtooth)": [
            {
                "start_time": 39.34772727272727,
                "end_time": 39.72272727272727,
                "pitch": 55,
                "velocity": 51,
                "duration": 0.375,
                "tempo": 120.0
            },
            {
                "start_time": 39.94090909090909,
                "end_time": 40.320454545454545,
                "pitch": 57,
                "velocity": 51,
                "duration": 0.3795454545454575,
                "tempo": 120.0
            },
            {
                "start_time": 40.73181818181818,
                "end_time": 41.309090909090905,
                "pitch": 59,
                "velocity": 51,
                "duration": 0.577272727272728,
                "tempo": 120.0
            },
            {
                "start_time": 41.324999999999996,
                "end_time": 41.71818181818182,
                "pitch": 76,
                "velocity": 51,
                "duration": 0.39318181818182296,
                "tempo": 120.0
            },
            {
                "start_time": 41.736363636363635,
                "end_time": 41.820454545454545,
                "pitch": 76,
                "velocity": 51,
                "duration": 0.08409090909091077,
                "tempo": 120.0
            },
            {
                "start_time": 41.83863636363636,
                "end_time": 42.027272727272724,
                "pitch": 76,
                "velocity": 51,
                "duration": 0.1886363636363626,
                "tempo": 120.0
            },
            {
                "start_time": 42.043181818181814,
                "end_time": 42.12954545454545,
                "pitch": 76,
                "velocity": 51,
                "duration": 0.08636363636363598,
                "tempo": 120.0
            },
            {
                "start_time": 42.14772727272727,
                "end_time": 42.32727272727273,
                "pitch": 76,
                "velocity": 51,
                "duration": 0.17954545454545467,
                "tempo": 120.0
            },
            {
                "start_time": 42.34318181818182,
                "end_time": 42.52272727272727,
                "pitch": 76,
                "velocity": 51,
                "duration": 0.17954545454545467,
                "tempo": 120.0
            },
            {
                "start_time": 42.538636363636364,
                "end_time": 42.93181818181818,
                "pitch": 55,
                "velocity": 51,
                "duration": 0.39318181818181586,
                "tempo": 120.0
            },
            {
                "start_time": 43.15,
                "end_time": 43.53181818181818,
                "pitch": 57,
                "velocity": 51,
                "duration": 0.3818181818181827,
                "tempo": 120.0
            },
            {
                "start_time": 43.945454545454545,
                "end_time": 44.52045454545454,
                "pitch": 64,
                "velocity": 51,
                "duration": 0.5749999999999957,
                "tempo": 120.0
            },
            {
                "start_time": 44.53636363636363,
                "end_time": 44.62272727272727,
                "pitch": 76,
                "velocity": 51,
                "duration": 0.08636363636363598,
                "tempo": 120.0
            },
            {
                "start_time": 44.63863636363636,
                "end_time": 44.82727272727273,
                "pitch": 76,
                "velocity": 51,
                "duration": 0.1886363636363697,
                "tempo": 120.0
            },
            {
                "start_time": 44.845454545454544,
                "end_time": 45.03181818181818,
                "pitch": 76,
                "velocity": 51,
                "duration": 0.1863636363636374,
                "tempo": 120.0
            },
            {
                "start_time": 45.04772727272727,
                "end_time": 45.13181818181818,
                "pitch": 76,
                "velocity": 51,
                "duration": 0.08409090909091077,
                "tempo": 120.0
            },
            {
                "start_time": 45.14772727272727,
                "end_time": 45.33181818181818,
                "pitch": 76,
                "velocity": 51,
                "duration": 0.18409090909090509,
                "tempo": 120.0
            },
            {
                "start_time": 45.34772727272727,
                "end_time": 45.43181818181818,
                "pitch": 76,
                "velocity": 51,
                "duration": 0.08409090909091077,
                "tempo": 120.0
            },
            {
                "start_time": 45.44772727272727,
                "end_time": 45.63181818181818,
                "pitch": 76,
                "velocity": 51,
                "duration": 0.1840909090909122,
                "tempo": 120.0
            },
            {
                "start_time": 45.65,
                "end_time": 45.73409090909091,
                "pitch": 76,
                "velocity": 51,
                "duration": 0.08409090909091077,
                "tempo": 120.0
            },
            {
                "start_time": 45.76590909090909,
                "end_time": 46.143181818181816,
                "pitch": 55,
                "velocity": 51,
                "duration": 0.3772727272727252,
                "tempo": 120.0
            },
            {
                "start_time": 46.361363636363635,
                "end_time": 46.74090909090909,
                "pitch": 57,
                "velocity": 51,
                "duration": 0.3795454545454575,
                "tempo": 120.0
            },
            {
                "start_time": 47.152272727272724,
                "end_time": 47.72954545454545,
                "pitch": 59,
                "velocity": 51,
                "duration": 0.577272727272728,
                "tempo": 120.0
            },
            {
                "start_time": 47.74545454545454,
                "end_time": 48.13863636363636,
                "pitch": 76,
                "velocity": 51,
                "duration": 0.39318181818181586,
                "tempo": 120.0
            },
            {
                "start_time": 48.15681818181818,
                "end_time": 48.24090909090909,
                "pitch": 76,
                "velocity": 51,
                "duration": 0.08409090909091077,
                "tempo": 120.0
            },
            {
                "start_time": 48.25909090909091,
                "end_time": 48.345454545454544,
                "pitch": 76,
                "velocity": 51,
                "duration": 0.08636363636363598,
                "tempo": 120.0
            },
            {
                "start_time": 48.361363636363635,
                "end_time": 48.55,
                "pitch": 67,
                "velocity": 51,
                "duration": 0.1886363636363626,
                "tempo": 120.0
            },
            {
                "start_time": 48.56818181818181,
                "end_time": 48.75,
                "pitch": 69,
                "velocity": 51,
                "duration": 0.18181818181818699,
                "tempo": 120.0
            },
            {
                "start_time": 48.768181818181816,
                "end_time": 51.345454545454544,
                "pitch": 74,
                "velocity": 51,
                "duration": 2.577272727272728,
                "tempo": 120.0
            }
        ],
        "Violin": [
            {
                "start_time": 0.8022727272727272,
                "end_time": 1.375,
                "pitch": 55,
                "velocity": 51,
                "duration": 0.5727272727272728,
                "tempo": 120.0
            },
            {
                "start_time": 1.3909090909090909,
                "end_time": 2.3727272727272726,
                "pitch": 57,
                "velocity": 51,
                "duration": 0.9818181818181817,
                "tempo": 120.0
            },
            {
                "start_time": 2.4068181818181817,
                "end_time": 2.9795454545454545,
                "pitch": 60,
                "velocity": 51,
                "duration": 0.5727272727272728,
                "tempo": 120.0
            },
            {
                "start_time": 2.9977272727272726,
                "end_time": 3.9795454545454545,
                "pitch": 62,
                "velocity": 51,
                "duration": 0.9818181818181819,
                "tempo": 120.0
            },
            {
                "start_time": 4.011363636363636,
                "end_time": 4.586363636363636,
                "pitch": 55,
                "velocity": 51,
                "duration": 0.5750000000000002,
                "tempo": 120.0
            },
            {
                "start_time": 4.602272727272727,
                "end_time": 5.584090909090909,
                "pitch": 57,
                "velocity": 51,
                "duration": 0.9818181818181824,
                "tempo": 120.0
            },
            {
                "start_time": 5.618181818181818,
                "end_time": 6.1909090909090905,
                "pitch": 60,
                "velocity": 51,
                "duration": 0.5727272727272723,
                "tempo": 120.0
            },
            {
                "start_time": 6.206818181818181,
                "end_time": 7.1909090909090905,
                "pitch": 62,
                "velocity": 51,
                "duration": 0.9840909090909093,
                "tempo": 120.0
            },
            {
                "start_time": 7.222727272727273,
                "end_time": 7.797727272727272,
                "pitch": 55,
                "velocity": 51,
                "duration": 0.5749999999999993,
                "tempo": 120.0
            },
            {
                "start_time": 7.8136363636363635,
                "end_time": 8.797727272727272,
                "pitch": 57,
                "velocity": 51,
                "duration": 0.9840909090909085,
                "tempo": 120.0
            },
            {
                "start_time": 8.831818181818182,
                "end_time": 9.404545454545454,
                "pitch": 60,
                "velocity": 51,
                "duration": 0.5727272727272723,
                "tempo": 120.0
            },
            {
                "start_time": 9.420454545454545,
                "end_time": 10.406818181818181,
                "pitch": 62,
                "velocity": 51,
                "duration": 0.9863636363636363,
                "tempo": 120.0
            }
        ],
        "Acoustic Bass": [
            {
                "start_time": 10.44090909090909,
                "end_time": 10.611363636363636,
                "pitch": 55,
                "velocity": 51,
                "duration": 0.17045454545454675,
                "tempo": 120.0
            },
            {
                "start_time": 10.627272727272727,
                "end_time": 10.81590909090909,
                "pitch": 55,
                "velocity": 51,
                "duration": 0.1886363636363626,
                "tempo": 120.0
            },
            {
                "start_time": 10.834090909090909,
                "end_time": 11.013636363636364,
                "pitch": 55,
                "velocity": 51,
                "duration": 0.17954545454545467,
                "tempo": 120.0
            },
            {
                "start_time": 11.029545454545454,
                "end_time": 11.209090909090909,
                "pitch": 55,
                "velocity": 51,
                "duration": 0.17954545454545467,
                "tempo": 120.0
            },
            {
                "start_time": 11.225,
                "end_time": 11.413636363636362,
                "pitch": 55,
                "velocity": 51,
                "duration": 0.1886363636363626,
                "tempo": 120.0
            },
            {
                "start_time": 11.431818181818182,
                "end_time": 11.618181818181817,
                "pitch": 55,
                "velocity": 51,
                "duration": 0.18636363636363562,
                "tempo": 120.0
            },
            {
                "start_time": 11.636363636363637,
                "end_time": 11.81590909090909,
                "pitch": 55,
                "velocity": 51,
                "duration": 0.1795454545454529,
                "tempo": 120.0
            },
            {
                "start_time": 11.831818181818182,
                "end_time": 12.21590909090909,
                "pitch": 59,
                "velocity": 51,
                "duration": 0.38409090909090793,
                "tempo": 120.0
            },
            {
                "start_time": 12.23409090909091,
                "end_time": 12.422727272727272,
                "pitch": 59,
                "velocity": 51,
                "duration": 0.1886363636363626,
                "tempo": 120.0
            },
            {
                "start_time": 12.456818181818182,
                "end_time": 12.622727272727271,
                "pitch": 59,
                "velocity": 51,
                "duration": 0.16590909090908923,
                "tempo": 120.0
            },
            {
                "start_time": 12.64090909090909,
                "end_time": 12.825,
                "pitch": 59,
                "velocity": 51,
                "duration": 0.18409090909090864,
                "tempo": 120.0
            },
            {
                "start_time": 13.643181818181818,
                "end_time": 13.713636363636363,
                "pitch": 52,
                "velocity": 51,
                "duration": 0.07045454545454533,
                "tempo": 120.0
            },
            {
                "start_time": 13.73181818181818,
                "end_time": 13.820454545454545,
                "pitch": 52,
                "velocity": 51,
                "duration": 0.08863636363636473,
                "tempo": 120.0
            },
            {
                "start_time": 13.943181818181818,
                "end_time": 14.031818181818181,
                "pitch": 52,
                "velocity": 51,
                "duration": 0.08863636363636296,
                "tempo": 120.0
            },
            {
                "start_time": 14.047727272727272,
                "end_time": 14.229545454545454,
                "pitch": 52,
                "velocity": 51,
                "duration": 0.18181818181818166,
                "tempo": 120.0
            },
            {
                "start_time": 14.245454545454544,
                "end_time": 14.327272727272726,
                "pitch": 52,
                "velocity": 51,
                "duration": 0.08181818181818201,
                "tempo": 120.0
            },
            {
                "start_time": 14.343181818181817,
                "end_time": 14.424999999999999,
                "pitch": 52,
                "velocity": 51,
                "duration": 0.08181818181818201,
                "tempo": 120.0
            },
            {
                "start_time": 14.543181818181818,
                "end_time": 14.629545454545454,
                "pitch": 52,
                "velocity": 51,
                "duration": 0.08636363636363598,
                "tempo": 120.0
            },
            {
                "start_time": 14.645454545454545,
                "end_time": 14.834090909090909,
                "pitch": 52,
                "velocity": 51,
                "duration": 0.18863636363636438,
                "tempo": 120.0
            },
            {
                "start_time": 14.852272727272727,
                "end_time": 15.040909090909091,
                "pitch": 52,
                "velocity": 51,
                "duration": 0.18863636363636438,
                "tempo": 120.0
            },
            {
                "start_time": 15.056818181818182,
                "end_time": 15.245454545454544,
                "pitch": 52,
                "velocity": 51,
                "duration": 0.1886363636363626,
                "tempo": 120.0
            },
            {
                "start_time": 15.279545454545454,
                "end_time": 15.345454545454544,
                "pitch": 54,
                "velocity": 51,
                "duration": 0.06590909090908958,
                "tempo": 120.0
            },
            {
                "start_time": 15.361363636363636,
                "end_time": 15.443181818181817,
                "pitch": 54,
                "velocity": 51,
                "duration": 0.08181818181818024,
                "tempo": 120.0
            },
            {
                "start_time": 15.556818181818182,
                "end_time": 15.638636363636364,
                "pitch": 54,
                "velocity": 51,
                "duration": 0.08181818181818201,
                "tempo": 120.0
            },
            {
                "start_time": 15.654545454545454,
                "end_time": 15.834090909090909,
                "pitch": 54,
                "velocity": 51,
                "duration": 0.17954545454545467,
                "tempo": 120.0
            },
            {
                "start_time": 15.85,
                "end_time": 15.931818181818182,
                "pitch": 54,
                "velocity": 51,
                "duration": 0.08181818181818201,
                "tempo": 120.0
            },
            {
                "start_time": 15.95,
                "end_time": 16.03181818181818,
                "pitch": 54,
                "velocity": 51,
                "duration": 0.08181818181818201,
                "tempo": 120.0
            },
            {
                "start_time": 16.152272727272727,
                "end_time": 16.238636363636363,
                "pitch": 54,
                "velocity": 51,
                "duration": 0.08636363636363598,
                "tempo": 120.0
            },
            {
                "start_time": 16.256818181818183,
                "end_time": 16.45,
                "pitch": 54,
                "velocity": 51,
                "duration": 0.19318181818181657,
                "tempo": 120.0
            },
            {
                "start_time": 16.46818181818182,
                "end_time": 16.654545454545453,
                "pitch": 54,
                "velocity": 51,
                "duration": 0.18636363636363384,
                "tempo": 120.0
            },
            {
                "start_time": 16.670454545454543,
                "end_time": 16.854545454545455,
                "pitch": 54,
                "velocity": 51,
                "duration": 0.1840909090909122,
                "tempo": 120.0
            },
            {
                "start_time": 16.888636363636362,
                "end_time": 16.954545454545453,
                "pitch": 55,
                "velocity": 51,
                "duration": 0.06590909090909136,
                "tempo": 120.0
            },
            {
                "start_time": 16.970454545454544,
                "end_time": 17.052272727272726,
                "pitch": 55,
                "velocity": 51,
                "duration": 0.08181818181818201,
                "tempo": 120.0
            },
            {
                "start_time": 17.16590909090909,
                "end_time": 17.24772727272727,
                "pitch": 55,
                "velocity": 51,
                "duration": 0.08181818181818201,
                "tempo": 120.0
            },
            {
                "start_time": 17.263636363636362,
                "end_time": 17.443181818181817,
                "pitch": 55,
                "velocity": 51,
                "duration": 0.17954545454545467,
                "tempo": 120.0
            },
            {
                "start_time": 17.461363636363636,
                "end_time": 17.543181818181818,
                "pitch": 55,
                "velocity": 51,
                "duration": 0.08181818181818201,
                "tempo": 120.0
            },
            {
                "start_time": 17.55909090909091,
                "end_time": 17.64090909090909,
                "pitch": 55,
                "velocity": 51,
                "duration": 0.08181818181818201,
                "tempo": 120.0
            },
            {
                "start_time": 17.759090909090908,
                "end_time": 17.845454545454544,
                "pitch": 55,
                "velocity": 51,
                "duration": 0.08636363636363598,
                "tempo": 120.0
            },
            {
                "start_time": 17.861363636363635,
                "end_time": 18.05,
                "pitch": 55,
                "velocity": 51,
                "duration": 0.18863636363636616,
                "tempo": 120.0
            },
            {
                "start_time": 18.06590909090909,
                "end_time": 18.254545454545454,
                "pitch": 55,
                "velocity": 51,
                "duration": 0.1886363636363626,
                "tempo": 120.0
            },
            {
                "start_time": 18.272727272727273,
                "end_time": 18.461363636363636,
                "pitch": 55,
                "velocity": 51,
                "duration": 0.1886363636363626,
                "tempo": 120.0
            },
            {
                "start_time": 18.495454545454546,
                "end_time": 18.55909090909091,
                "pitch": 57,
                "velocity": 51,
                "duration": 0.0636363636363626,
                "tempo": 120.0
            },
            {
                "start_time": 18.577272727272728,
                "end_time": 18.659090909090907,
                "pitch": 57,
                "velocity": 51,
                "duration": 0.08181818181817846,
                "tempo": 120.0
            },
            {
                "start_time": 18.772727272727273,
                "end_time": 18.854545454545455,
                "pitch": 57,
                "velocity": 51,
                "duration": 0.08181818181818201,
                "tempo": 120.0
            },
            {
                "start_time": 18.870454545454546,
                "end_time": 19.05,
                "pitch": 57,
                "velocity": 51,
                "duration": 0.17954545454545467,
                "tempo": 120.0
            },
            {
                "start_time": 19.06590909090909,
                "end_time": 19.147727272727273,
                "pitch": 57,
                "velocity": 51,
                "duration": 0.08181818181818201,
                "tempo": 120.0
            },
            {
                "start_time": 19.163636363636364,
                "end_time": 19.245454545454546,
                "pitch": 57,
                "velocity": 51,
                "duration": 0.08181818181818201,
                "tempo": 120.0
            },
            {
                "start_time": 19.36590909090909,
                "end_time": 19.45,
                "pitch": 57,
                "velocity": 51,
                "duration": 0.08409090909091077,
                "tempo": 120.0
            },
            {
                "start_time": 19.46818181818182,
                "end_time": 19.65681818181818,
                "pitch": 57,
                "velocity": 51,
                "duration": 0.1886363636363626,
                "tempo": 120.0
            },
            {
                "start_time": 19.672727272727272,
                "end_time": 19.852272727272727,
                "pitch": 57,
                "velocity": 51,
                "duration": 0.17954545454545467,
                "tempo": 120.0
            },
            {
                "start_time": 19.868181818181817,
                "end_time": 20.05,
                "pitch": 57,
                "velocity": 51,
                "duration": 0.18181818181818343,
                "tempo": 120.0
            },
            {
                "start_time": 20.081818181818182,
                "end_time": 20.15,
                "pitch": 55,
                "velocity": 51,
                "duration": 0.06818181818181657,
                "tempo": 120.0
            },
            {
                "start_time": 20.168181818181818,
                "end_time": 20.252272727272725,
                "pitch": 55,
                "velocity": 51,
                "duration": 0.08409090909090722,
                "tempo": 120.0
            },
            {
                "start_time": 20.37272727272727,
                "end_time": 20.459090909090907,
                "pitch": 55,
                "velocity": 51,
                "duration": 0.08636363636363598,
                "tempo": 120.0
            },
            {
                "start_time": 20.474999999999998,
                "end_time": 20.654545454545453,
                "pitch": 55,
                "velocity": 51,
                "duration": 0.17954545454545467,
                "tempo": 120.0
            },
            {
                "start_time": 20.672727272727272,
                "end_time": 20.754545454545454,
                "pitch": 55,
                "velocity": 51,
                "duration": 0.08181818181818201,
                "tempo": 120.0
            },
            {
                "start_time": 20.770454545454545,
                "end_time": 20.852272727272727,
                "pitch": 55,
                "velocity": 51,
                "duration": 0.08181818181818201,
                "tempo": 120.0
            },
            {
                "start_time": 20.972727272727273,
                "end_time": 21.05909090909091,
                "pitch": 55,
                "velocity": 51,
                "duration": 0.08636363636363598,
                "tempo": 120.0
            },
            {
                "start_time": 21.077272727272724,
                "end_time": 21.270454545454545,
                "pitch": 55,
                "velocity": 51,
                "duration": 0.19318181818182012,
                "tempo": 120.0
            },
            {
                "start_time": 21.288636363636364,
                "end_time": 21.472727272727273,
                "pitch": 55,
                "velocity": 51,
                "duration": 0.18409090909090864,
                "tempo": 120.0
            },
            {
                "start_time": 21.49090909090909,
                "end_time": 21.672727272727272,
                "pitch": 55,
                "velocity": 51,
                "duration": 0.18181818181818343,
                "tempo": 120.0
            },
            {
                "start_time": 21.706818181818182,
                "end_time": 21.775,
                "pitch": 50,
                "velocity": 51,
                "duration": 0.06818181818181657,
                "tempo": 120.0
            },
            {
                "start_time": 21.79090909090909,
                "end_time": 21.875,
                "pitch": 50,
                "velocity": 51,
                "duration": 0.08409090909091077,
                "tempo": 120.0
            },
            {
                "start_time": 21.99090909090909,
                "end_time": 22.075,
                "pitch": 50,
                "velocity": 51,
                "duration": 0.08409090909091077,
                "tempo": 120.0
            },
            {
                "start_time": 22.09318181818182,
                "end_time": 22.268181818181816,
                "pitch": 50,
                "velocity": 51,
                "duration": 0.17499999999999716,
                "tempo": 120.0
            },
            {
                "start_time": 22.284090909090907,
                "end_time": 22.363636363636363,
                "pitch": 50,
                "velocity": 51,
                "duration": 0.0795454545454568,
                "tempo": 120.0
            },
            {
                "start_time": 22.379545454545454,
                "end_time": 22.459090909090907,
                "pitch": 50,
                "velocity": 51,
                "duration": 0.07954545454545325,
                "tempo": 120.0
            },
            {
                "start_time": 22.579545454545453,
                "end_time": 22.66590909090909,
                "pitch": 50,
                "velocity": 51,
                "duration": 0.08636363636363598,
                "tempo": 120.0
            },
            {
                "start_time": 22.68409090909091,
                "end_time": 22.877272727272725,
                "pitch": 50,
                "velocity": 51,
                "duration": 0.19318181818181657,
                "tempo": 120.0
            },
            {
                "start_time": 22.895454545454545,
                "end_time": 23.079545454545453,
                "pitch": 50,
                "velocity": 51,
                "duration": 0.18409090909090864,
                "tempo": 120.0
            },
            {
                "start_time": 23.095454545454544,
                "end_time": 23.279545454545453,
                "pitch": 50,
                "velocity": 51,
                "duration": 0.18409090909090864,
                "tempo": 120.0
            },
            {
                "start_time": 23.313636363636363,
                "end_time": 23.379545454545454,
                "pitch": 52,
                "velocity": 51,
                "duration": 0.06590909090909136,
                "tempo": 120.0
            },
            {
                "start_time": 23.395454545454545,
                "end_time": 23.479545454545452,
                "pitch": 52,
                "velocity": 51,
                "duration": 0.08409090909090722,
                "tempo": 120.0
            },
            {
                "start_time": 23.595454545454544,
                "end_time": 23.679545454545455,
                "pitch": 52,
                "velocity": 51,
                "duration": 0.08409090909091077,
                "tempo": 120.0
            },
            {
                "start_time": 23.695454545454545,
                "end_time": 23.87272727272727,
                "pitch": 52,
                "velocity": 51,
                "duration": 0.17727272727272592,
                "tempo": 120.0
            },
            {
                "start_time": 23.888636363636362,
                "end_time": 23.96818181818182,
                "pitch": 52,
                "velocity": 51,
                "duration": 0.0795454545454568,
                "tempo": 120.0
            },
            {
                "start_time": 23.98409090909091,
                "end_time": 24.063636363636363,
                "pitch": 52,
                "velocity": 51,
                "duration": 0.07954545454545325,
                "tempo": 120.0
            },
            {
                "start_time": 24.179545454545455,
                "end_time": 24.261363636363637,
                "pitch": 52,
                "velocity": 51,
                "duration": 0.08181818181818201,
                "tempo": 120.0
            },
            {
                "start_time": 24.279545454545453,
                "end_time": 24.461363636363636,
                "pitch": 52,
                "velocity": 51,
                "duration": 0.18181818181818343,
                "tempo": 120.0
            },
            {
                "start_time": 24.479545454545452,
                "end_time": 24.661363636363635,
                "pitch": 52,
                "velocity": 51,
                "duration": 0.18181818181818343,
                "tempo": 120.0
            },
            {
                "start_time": 24.679545454545455,
                "end_time": 24.861363636363635,
                "pitch": 52,
                "velocity": 51,
                "duration": 0.18181818181817988,
                "tempo": 120.0
            },
            {
                "start_time": 26.49090909090909,
                "end_time": 26.561363636363634,
                "pitch": 52,
                "velocity": 51,
                "duration": 0.07045454545454533,
                "tempo": 120.0
            },
            {
                "start_time": 26.577272727272724,
                "end_time": 26.66590909090909,
                "pitch": 52,
                "velocity": 51,
                "duration": 0.08863636363636473,
                "tempo": 120.0
            },
            {
                "start_time": 26.788636363636364,
                "end_time": 26.877272727272725,
                "pitch": 52,
                "velocity": 51,
                "duration": 0.08863636363636118,
                "tempo": 120.0
            },
            {
                "start_time": 26.895454545454545,
                "end_time": 27.075,
                "pitch": 52,
                "velocity": 51,
                "duration": 0.17954545454545467,
                "tempo": 120.0
            },
            {
                "start_time": 27.09090909090909,
                "end_time": 27.172727272727272,
                "pitch": 52,
                "velocity": 51,
                "duration": 0.08181818181818201,
                "tempo": 120.0
            },
            {
                "start_time": 27.188636363636363,
                "end_time": 27.270454545454545,
                "pitch": 52,
                "velocity": 51,
                "duration": 0.08181818181818201,
                "tempo": 120.0
            },
            {
                "start_time": 27.39090909090909,
                "end_time": 27.479545454545452,
                "pitch": 52,
                "velocity": 51,
                "duration": 0.08863636363636118,
                "tempo": 120.0
            },
            {
                "start_time": 27.49772727272727,
                "end_time": 27.690909090909088,
                "pitch": 52,
                "velocity": 51,
                "duration": 0.19318181818181657,
                "tempo": 120.0
            },
            {
                "start_time": 27.709090909090907,
                "end_time": 27.893181818181816,
                "pitch": 52,
                "velocity": 51,
                "duration": 0.18409090909090864,
                "tempo": 120.0
            },
            {
                "start_time": 27.911363636363635,
                "end_time": 28.095454545454544,
                "pitch": 52,
                "velocity": 51,
                "duration": 0.18409090909090864,
                "tempo": 120.0
            },
            {
                "start_time": 28.129545454545454,
                "end_time": 28.193181818181817,
                "pitch": 54,
                "velocity": 51,
                "duration": 0.0636363636363626,
                "tempo": 120.0
            },
            {
                "start_time": 28.209090909090907,
                "end_time": 28.29090909090909,
                "pitch": 54,
                "velocity": 51,
                "duration": 0.08181818181818201,
                "tempo": 120.0
            },
            {
                "start_time": 28.40681818181818,
                "end_time": 28.488636363636363,
                "pitch": 54,
                "velocity": 51,
                "duration": 0.08181818181818201,
                "tempo": 120.0
            },
            {
                "start_time": 28.504545454545454,
                "end_time": 28.68409090909091,
                "pitch": 54,
                "velocity": 51,
                "duration": 0.17954545454545467,
                "tempo": 120.0
            },
            {
                "start_time": 28.7,
                "end_time": 28.78181818181818,
                "pitch": 54,
                "velocity": 51,
                "duration": 0.08181818181818201,
                "tempo": 120.0
            },
            {
                "start_time": 28.797727272727272,
                "end_time": 28.879545454545454,
                "pitch": 54,
                "velocity": 51,
                "duration": 0.08181818181818201,
                "tempo": 120.0
            },
            {
                "start_time": 29.0,
                "end_time": 29.08863636363636,
                "pitch": 54,
                "velocity": 51,
                "duration": 0.08863636363636118,
                "tempo": 120.0
            },
            {
                "start_time": 29.10681818181818,
                "end_time": 29.299999999999997,
                "pitch": 54,
                "velocity": 51,
                "duration": 0.19318181818181657,
                "tempo": 120.0
            },
            {
                "start_time": 29.318181818181817,
                "end_time": 29.502272727272725,
                "pitch": 54,
                "velocity": 51,
                "duration": 0.18409090909090864,
                "tempo": 120.0
            },
            {
                "start_time": 29.518181818181816,
                "end_time": 29.702272727272724,
                "pitch": 54,
                "velocity": 51,
                "duration": 0.18409090909090864,
                "tempo": 120.0
            },
            {
                "start_time": 29.73409090909091,
                "end_time": 29.802272727272726,
                "pitch": 55,
                "velocity": 51,
                "duration": 0.06818181818181657,
                "tempo": 120.0
            },
            {
                "start_time": 29.818181818181817,
                "end_time": 29.902272727272727,
                "pitch": 55,
                "velocity": 51,
                "duration": 0.08409090909091077,
                "tempo": 120.0
            },
            {
                "start_time": 30.020454545454545,
                "end_time": 30.104545454545452,
                "pitch": 55,
                "velocity": 51,
                "duration": 0.08409090909090722,
                "tempo": 120.0
            },
            {
                "start_time": 30.120454545454542,
                "end_time": 30.295454545454543,
                "pitch": 55,
                "velocity": 51,
                "duration": 0.1750000000000007,
                "tempo": 120.0
            },
            {
                "start_time": 30.311363636363634,
                "end_time": 30.39090909090909,
                "pitch": 55,
                "velocity": 51,
                "duration": 0.0795454545454568,
                "tempo": 120.0
            },
            {
                "start_time": 30.40681818181818,
                "end_time": 30.486363636363635,
                "pitch": 55,
                "velocity": 51,
                "duration": 0.07954545454545325,
                "tempo": 120.0
            },
            {
                "start_time": 30.604545454545452,
                "end_time": 30.690909090909088,
                "pitch": 55,
                "velocity": 51,
                "duration": 0.08636363636363598,
                "tempo": 120.0
            },
            {
                "start_time": 30.709090909090907,
                "end_time": 30.895454545454545,
                "pitch": 55,
                "velocity": 51,
                "duration": 0.1863636363636374,
                "tempo": 120.0
            },
            {
                "start_time": 30.91363636363636,
                "end_time": 31.102272727272727,
                "pitch": 55,
                "velocity": 51,
                "duration": 0.18863636363636616,
                "tempo": 120.0
            },
            {
                "start_time": 31.118181818181817,
                "end_time": 31.30681818181818,
                "pitch": 55,
                "velocity": 51,
                "duration": 0.1886363636363626,
                "tempo": 120.0
            },
            {
                "start_time": 31.34090909090909,
                "end_time": 31.40681818181818,
                "pitch": 57,
                "velocity": 51,
                "duration": 0.06590909090909136,
                "tempo": 120.0
            },
            {
                "start_time": 31.422727272727272,
                "end_time": 31.504545454545454,
                "pitch": 57,
                "velocity": 51,
                "duration": 0.08181818181818201,
                "tempo": 120.0
            },
            {
                "start_time": 31.618181818181817,
                "end_time": 31.7,
                "pitch": 57,
                "velocity": 51,
                "duration": 0.08181818181818201,
                "tempo": 120.0
            },
            {
                "start_time": 31.718181818181815,
                "end_time": 31.89772727272727,
                "pitch": 57,
                "velocity": 51,
                "duration": 0.17954545454545467,
                "tempo": 120.0
            },
            {
                "start_time": 31.91363636363636,
                "end_time": 31.995454545454542,
                "pitch": 57,
                "velocity": 51,
                "duration": 0.08181818181818201,
                "tempo": 120.0
            },
            {
                "start_time": 32.01136363636363,
                "end_time": 32.09318181818182,
                "pitch": 57,
                "velocity": 51,
                "duration": 0.08181818181818556,
                "tempo": 120.0
            },
            {
                "start_time": 32.211363636363636,
                "end_time": 32.29772727272727,
                "pitch": 57,
                "velocity": 51,
                "duration": 0.08636363636363598,
                "tempo": 120.0
            },
            {
                "start_time": 32.31363636363636,
                "end_time": 32.502272727272725,
                "pitch": 57,
                "velocity": 51,
                "duration": 0.1886363636363626,
                "tempo": 120.0
            },
            {
                "start_time": 32.52045454545454,
                "end_time": 32.699999999999996,
                "pitch": 57,
                "velocity": 51,
                "duration": 0.17954545454545467,
                "tempo": 120.0
            },
            {
                "start_time": 32.715909090909086,
                "end_time": 32.89545454545454,
                "pitch": 57,
                "velocity": 51,
                "duration": 0.17954545454545467,
                "tempo": 120.0
            },
            {
                "start_time": 32.929545454545455,
                "end_time": 32.99772727272727,
                "pitch": 55,
                "velocity": 51,
                "duration": 0.06818181818181301,
                "tempo": 120.0
            },
            {
                "start_time": 33.013636363636365,
                "end_time": 33.1,
                "pitch": 55,
                "velocity": 51,
                "duration": 0.08636363636363598,
                "tempo": 120.0
            },
            {
                "start_time": 33.220454545454544,
                "end_time": 33.304545454545455,
                "pitch": 55,
                "velocity": 51,
                "duration": 0.08409090909091077,
                "tempo": 120.0
            },
            {
                "start_time": 33.32272727272727,
                "end_time": 33.502272727272725,
                "pitch": 55,
                "velocity": 51,
                "duration": 0.17954545454545467,
                "tempo": 120.0
            },
            {
                "start_time": 33.518181818181816,
                "end_time": 33.6,
                "pitch": 55,
                "velocity": 51,
                "duration": 0.08181818181818556,
                "tempo": 120.0
            },
            {
                "start_time": 33.61590909090909,
                "end_time": 33.69772727272727,
                "pitch": 55,
                "velocity": 51,
                "duration": 0.08181818181817846,
                "tempo": 120.0
            },
            {
                "start_time": 33.81590909090909,
                "end_time": 33.902272727272724,
                "pitch": 55,
                "velocity": 51,
                "duration": 0.08636363636363598,
                "tempo": 120.0
            },
            {
                "start_time": 33.92045454545455,
                "end_time": 34.10681818181818,
                "pitch": 55,
                "velocity": 51,
                "duration": 0.1863636363636303,
                "tempo": 120.0
            },
            {
                "start_time": 34.125,
                "end_time": 34.31363636363636,
                "pitch": 55,
                "velocity": 51,
                "duration": 0.1886363636363626,
                "tempo": 120.0
            },
            {
                "start_time": 34.32954545454545,
                "end_time": 34.518181818181816,
                "pitch": 55,
                "velocity": 51,
                "duration": 0.1886363636363626,
                "tempo": 120.0
            },
            {
                "start_time": 34.55227272727272,
                "end_time": 34.62045454545454,
                "pitch": 50,
                "velocity": 51,
                "duration": 0.06818181818182012,
                "tempo": 120.0
            },
            {
                "start_time": 34.63636363636363,
                "end_time": 34.720454545454544,
                "pitch": 50,
                "velocity": 51,
                "duration": 0.08409090909091077,
                "tempo": 120.0
            },
            {
                "start_time": 34.836363636363636,
                "end_time": 34.92045454545455,
                "pitch": 50,
                "velocity": 51,
                "duration": 0.08409090909091077,
                "tempo": 120.0
            },
            {
                "start_time": 34.93636363636364,
                "end_time": 35.111363636363635,
                "pitch": 50,
                "velocity": 51,
                "duration": 0.17499999999999716,
                "tempo": 120.0
            },
            {
                "start_time": 35.127272727272725,
                "end_time": 35.20681818181818,
                "pitch": 50,
                "velocity": 51,
                "duration": 0.07954545454545325,
                "tempo": 120.0
            },
            {
                "start_time": 35.22272727272727,
                "end_time": 35.30227272727272,
                "pitch": 50,
                "velocity": 51,
                "duration": 0.07954545454545325,
                "tempo": 120.0
            },
            {
                "start_time": 35.42045454545455,
                "end_time": 35.50681818181818,
                "pitch": 50,
                "velocity": 51,
                "duration": 0.08636363636363598,
                "tempo": 120.0
            },
            {
                "start_time": 35.52272727272727,
                "end_time": 35.711363636363636,
                "pitch": 50,
                "velocity": 51,
                "duration": 0.1886363636363626,
                "tempo": 120.0
            },
            {
                "start_time": 35.72954545454545,
                "end_time": 35.918181818181814,
                "pitch": 50,
                "velocity": 51,
                "duration": 0.1886363636363626,
                "tempo": 120.0
            },
            {
                "start_time": 35.934090909090905,
                "end_time": 36.12272727272727,
                "pitch": 50,
                "velocity": 51,
                "duration": 0.1886363636363626,
                "tempo": 120.0
            },
            {
                "start_time": 36.15681818181818,
                "end_time": 36.225,
                "pitch": 52,
                "velocity": 51,
                "duration": 0.06818181818182012,
                "tempo": 120.0
            },
            {
                "start_time": 36.24090909090909,
                "end_time": 36.324999999999996,
                "pitch": 52,
                "velocity": 51,
                "duration": 0.08409090909090366,
                "tempo": 120.0
            },
            {
                "start_time": 36.44318181818181,
                "end_time": 36.527272727272724,
                "pitch": 52,
                "velocity": 51,
                "duration": 0.08409090909091077,
                "tempo": 120.0
            },
            {
                "start_time": 36.543181818181814,
                "end_time": 36.71818181818182,
                "pitch": 52,
                "velocity": 51,
                "duration": 0.17500000000000426,
                "tempo": 120.0
            },
            {
                "start_time": 36.73409090909091,
                "end_time": 36.81363636363636,
                "pitch": 52,
                "velocity": 51,
                "duration": 0.07954545454545325,
                "tempo": 120.0
            },
            {
                "start_time": 36.82954545454545,
                "end_time": 36.90909090909091,
                "pitch": 52,
                "velocity": 51,
                "duration": 0.07954545454545325,
                "tempo": 120.0
            },
            {
                "start_time": 37.029545454545456,
                "end_time": 37.11590909090909,
                "pitch": 52,
                "velocity": 51,
                "duration": 0.08636363636363598,
                "tempo": 120.0
            },
            {
                "start_time": 37.152272727272724,
                "end_time": 37.32727272727273,
                "pitch": 52,
                "velocity": 51,
                "duration": 0.17500000000000426,
                "tempo": 120.0
            },
            {
                "start_time": 37.36363636363636,
                "end_time": 37.529545454545456,
                "pitch": 52,
                "velocity": 51,
                "duration": 0.16590909090909634,
                "tempo": 120.0
            },
            {
                "start_time": 37.56363636363636,
                "end_time": 37.72954545454545,
                "pitch": 52,
                "velocity": 51,
                "duration": 0.16590909090908923,
                "tempo": 120.0
            },
            {
                "start_time": 37.74545454545454,
                "end_time": 39.31363636363636,
                "pitch": 50,
                "velocity": 51,
                "duration": 1.5681818181818201,
                "tempo": 120.0
            }
        ]
    }
}