{
    "track_id": "Dynamite Dux (FM) - 06 - The Achacha Palace",
    "mood": "angry",
    "instruments": {
        "Acoustic Grand Piano": [
            {
                "start_time": 0.011363636363636364,
                "end_time": 0.09318181818181817,
                "pitch": 59,
                "velocity": 80,
                "duration": 0.0818181818181818,
                "tempo": 120.0
            },
            {
                "start_time": 0.10681818181818181,
                "end_time": 0.3386363636363636,
                "pitch": 52,
                "velocity": 80,
                "duration": 0.2318181818181818,
                "tempo": 120.0
            },
            {
                "start_time": 0.3568181818181818,
                "end_time": 0.4568181818181818,
                "pitch": 52,
                "velocity": 80,
                "duration": 0.09999999999999998,
                "tempo": 120.0
            },
            {
                "start_time": 0.4727272727272727,
                "end_time": 0.5886363636363636,
                "pitch": 58,
                "velocity": 80,
                "duration": 0.1159090909090909,
                "tempo": 120.0
            },
            {
                "start_time": 0.6045454545454545,
                "end_time": 0.8295454545454545,
                "pitch": 52,
                "velocity": 80,
                "duration": 0.22499999999999998,
                "tempo": 120.0
            },
            {
                "start_time": 0.8454545454545455,
                "end_time": 0.9409090909090909,
                "pitch": 52,
                "velocity": 80,
                "duration": 0.09545454545454546,
                "tempo": 120.0
            },
            {
                "start_time": 0.9568181818181818,
                "end_time": 1.0704545454545453,
                "pitch": 62,
                "velocity": 80,
                "duration": 0.11363636363636354,
                "tempo": 120.0
            },
            {
                "start_time": 1.0863636363636364,
                "end_time": 1.1863636363636363,
                "pitch": 52,
                "velocity": 80,
                "duration": 0.09999999999999987,
                "tempo": 120.0
            },
            {
                "start_time": 1.2045454545454546,
                "end_time": 1.3204545454545453,
                "pitch": 61,
                "velocity": 80,
                "duration": 0.11590909090909074,
                "tempo": 120.0
            },
            {
                "start_time": 1.3386363636363636,
                "end_time": 1.4386363636363635,
                "pitch": 52,
                "velocity": 80,
                "duration": 0.09999999999999987,
                "tempo": 120.0
            },
            {
                "start_time": 1.4568181818181818,
                "end_time": 1.5727272727272728,
                "pitch": 59,
                "velocity": 80,
                "duration": 0.11590909090909096,
                "tempo": 120.0
            },
            {
                "start_time": 1.5909090909090908,
                "end_time": 1.690909090909091,
                "pitch": 52,
                "velocity": 80,
                "duration": 0.10000000000000009,
                "tempo": 120.0
            },
            {
                "start_time": 1.7068181818181818,
                "end_time": 1.8227272727272725,
                "pitch": 58,
                "velocity": 80,
                "duration": 0.11590909090909074,
                "tempo": 120.0
            },
            {
                "start_time": 1.8409090909090908,
                "end_time": 1.940909090909091,
                "pitch": 52,
                "velocity": 80,
                "duration": 0.10000000000000009,
                "tempo": 120.0
            },
            {
                "start_time": 1.9568181818181818,
                "end_time": 2.0727272727272728,
                "pitch": 59,
                "velocity": 80,
                "duration": 0.11590909090909096,
                "tempo": 120.0
            },
            {
                "start_time": 2.090909090909091,
                "end_time": 2.3227272727272728,
                "pitch": 52,
                "velocity": 80,
                "duration": 0.23181818181818192,
                "tempo": 120.0
            },
            {
                "start_time": 2.340909090909091,
                "end_time": 2.440909090909091,
                "pitch": 52,
                "velocity": 80,
                "duration": 0.10000000000000009,
                "tempo": 120.0
            },
            {
                "start_time": 2.4568181818181816,
                "end_time": 2.5727272727272728,
                "pitch": 58,
                "velocity": 80,
                "duration": 0.11590909090909118,
                "tempo": 120.0
            },
            {
                "start_time": 2.590909090909091,
                "end_time": 2.8227272727272728,
                "pitch": 52,
                "velocity": 80,
                "duration": 0.23181818181818192,
                "tempo": 120.0
            },
            {
                "start_time": 2.840909090909091,
                "end_time": 2.940909090909091,
                "pitch": 52,
                "velocity": 80,
                "duration": 0.10000000000000009,
                "tempo": 120.0
            },
            {
                "start_time": 2.9568181818181816,
                "end_time": 3.0727272727272728,
                "pitch": 62,
                "velocity": 80,
                "duration": 0.11590909090909118,
                "tempo": 120.0
            },
            {
                "start_time": 3.090909090909091,
                "end_time": 3.190909090909091,
                "pitch": 52,
                "velocity": 80,
                "duration": 0.10000000000000009,
                "tempo": 120.0
            },
            {
                "start_time": 3.2068181818181816,
                "end_time": 3.3227272727272728,
                "pitch": 61,
                "velocity": 80,
                "duration": 0.11590909090909118,
                "tempo": 120.0
            },
            {
                "start_time": 3.340909090909091,
                "end_time": 3.440909090909091,
                "pitch": 52,
                "velocity": 80,
                "duration": 0.10000000000000009,
                "tempo": 120.0
            },
            {
                "start_time": 3.4568181818181816,
                "end_time": 3.5727272727272728,
                "pitch": 59,
                "velocity": 80,
                "duration": 0.11590909090909118,
                "tempo": 120.0
            },
            {
                "start_time": 3.590909090909091,
                "end_time": 3.690909090909091,
                "pitch": 52,
                "velocity": 80,
                "duration": 0.10000000000000009,
                "tempo": 120.0
            },
            {
                "start_time": 3.7068181818181816,
                "end_time": 3.8227272727272728,
                "pitch": 58,
                "velocity": 80,
                "duration": 0.11590909090909118,
                "tempo": 120.0
            },
            {
                "start_time": 3.840909090909091,
                "end_time": 3.940909090909091,
                "pitch": 52,
                "velocity": 80,
                "duration": 0.10000000000000009,
                "tempo": 120.0
            },
            {
                "start_time": 3.9568181818181816,
                "end_time": 4.072727272727272,
                "pitch": 59,
                "velocity": 80,
                "duration": 0.11590909090909074,
                "tempo": 120.0
            },
            {
                "start_time": 4.090909090909091,
                "end_time": 4.325,
                "pitch": 52,
                "velocity": 80,
                "duration": 0.23409090909090935,
                "tempo": 120.0
            },
            {
                "start_time": 4.343181818181818,
                "end_time": 4.443181818181818,
                "pitch": 52,
                "velocity": 80,
                "duration": 0.10000000000000053,
                "tempo": 120.0
            },
            {
                "start_time": 4.459090909090909,
                "end_time": 4.577272727272727,
                "pitch": 58,
                "velocity": 80,
                "duration": 0.11818181818181817,
                "tempo": 120.0
            },
            {
                "start_time": 4.595454545454545,
                "end_time": 4.827272727272727,
                "pitch": 52,
                "velocity": 80,
                "duration": 0.23181818181818237,
                "tempo": 120.0
            },
            {
                "start_time": 4.845454545454545,
                "end_time": 4.945454545454545,
                "pitch": 52,
                "velocity": 80,
                "duration": 0.10000000000000053,
                "tempo": 120.0
            },
            {
                "start_time": 4.961363636363636,
                "end_time": 5.077272727272727,
                "pitch": 62,
                "velocity": 80,
                "duration": 0.11590909090909118,
                "tempo": 120.0
            },
            {
                "start_time": 5.095454545454545,
                "end_time": 5.195454545454545,
                "pitch": 52,
                "velocity": 80,
                "duration": 0.10000000000000053,
                "tempo": 120.0
            },
            {
                "start_time": 5.211363636363636,
                "end_time": 5.327272727272727,
                "pitch": 61,
                "velocity": 80,
                "duration": 0.11590909090909118,
                "tempo": 120.0
            },
            {
                "start_time": 5.345454545454545,
                "end_time": 5.445454545454545,
                "pitch": 52,
                "velocity": 80,
                "duration": 0.10000000000000053,
                "tempo": 120.0
            },
            {
                "start_time": 5.461363636363636,
                "end_time": 5.577272727272727,
                "pitch": 59,
                "velocity": 80,
                "duration": 0.11590909090909118,
                "tempo": 120.0
            },
            {
                "start_time": 5.595454545454545,
                "end_time": 5.695454545454545,
                "pitch": 52,
                "velocity": 80,
                "duration": 0.10000000000000053,
                "tempo": 120.0
            },
            {
                "start_time": 5.711363636363636,
                "end_time": 5.827272727272727,
                "pitch": 58,
                "velocity": 80,
                "duration": 0.11590909090909118,
                "tempo": 120.0
            },
            {
                "start_time": 5.845454545454545,
                "end_time": 5.945454545454545,
                "pitch": 52,
                "velocity": 80,
                "duration": 0.10000000000000053,
                "tempo": 120.0
            },
            {
                "start_time": 5.961363636363636,
                "end_time": 6.077272727272727,
                "pitch": 59,
                "velocity": 80,
                "duration": 0.11590909090909118,
                "tempo": 120.0
            },
            {
                "start_time": 6.095454545454545,
                "end_time": 6.327272727272727,
                "pitch": 52,
                "velocity": 80,
                "duration": 0.23181818181818237,
                "tempo": 120.0
            },
            {
                "start_time": 6.345454545454545,
                "end_time": 6.445454545454545,
                "pitch": 52,
                "velocity": 80,
                "duration": 0.10000000000000053,
                "tempo": 120.0
            },
            {
                "start_time": 6.461363636363636,
                "end_time": 6.577272727272727,
                "pitch": 58,
                "velocity": 80,
                "duration": 0.11590909090909118,
                "tempo": 120.0
            },
            {
                "start_time": 6.595454545454545,
                "end_time": 6.827272727272727,
                "pitch": 52,
                "velocity": 80,
                "duration": 0.23181818181818237,
                "tempo": 120.0
            },
            {
                "start_time": 6.845454545454545,
                "end_time": 6.945454545454545,
                "pitch": 52,
                "velocity": 80,
                "duration": 0.10000000000000053,
                "tempo": 120.0
            },
            {
                "start_time": 6.961363636363636,
                "end_time": 7.077272727272727,
                "pitch": 62,
                "velocity": 80,
                "duration": 0.11590909090909118,
                "tempo": 120.0
            },
            {
                "start_time": 7.095454545454545,
                "end_time": 7.195454545454545,
                "pitch": 52,
                "velocity": 80,
                "duration": 0.10000000000000053,
                "tempo": 120.0
            },
            {
                "start_time": 7.211363636363636,
                "end_time": 7.327272727272727,
                "pitch": 61,
                "velocity": 80,
                "duration": 0.11590909090909118,
                "tempo": 120.0
            },
            {
                "start_time": 7.345454545454545,
                "end_time": 7.445454545454545,
                "pitch": 52,
                "velocity": 80,
                "duration": 0.10000000000000053,
                "tempo": 120.0
            },
            {
                "start_time": 7.461363636363636,
                "end_time": 7.572727272727272,
                "pitch": 59,
                "velocity": 80,
                "duration": 0.11136363636363633,
                "tempo": 120.0
            },
            {
                "start_time": 7.586363636363636,
                "end_time": 7.677272727272727,
                "pitch": 52,
                "velocity": 80,
                "duration": 0.09090909090909083,
                "tempo": 120.0
            },
            {
                "start_time": 7.6931818181818175,
                "end_time": 7.797727272727272,
                "pitch": 58,
                "velocity": 80,
                "duration": 0.1045454545454545,
                "tempo": 120.0
            },
            {
                "start_time": 7.8136363636363635,
                "end_time": 7.9022727272727264,
                "pitch": 52,
                "velocity": 80,
                "duration": 0.08863636363636296,
                "tempo": 120.0
            },
            {
                "start_time": 7.918181818181818,
                "end_time": 8.020454545454545,
                "pitch": 59,
                "velocity": 80,
                "duration": 0.10227272727272663,
                "tempo": 120.0
            },
            {
                "start_time": 8.036363636363635,
                "end_time": 8.24090909090909,
                "pitch": 52,
                "velocity": 80,
                "duration": 0.20454545454545503,
                "tempo": 120.0
            },
            {
                "start_time": 8.256818181818181,
                "end_time": 8.345454545454546,
                "pitch": 52,
                "velocity": 80,
                "duration": 0.08863636363636473,
                "tempo": 120.0
            },
            {
                "start_time": 8.35909090909091,
                "end_time": 8.475,
                "pitch": 58,
                "velocity": 80,
                "duration": 0.1159090909090903,
                "tempo": 120.0
            },
            {
                "start_time": 8.493181818181817,
                "end_time": 8.725,
                "pitch": 52,
                "velocity": 80,
                "duration": 0.23181818181818237,
                "tempo": 120.0
            },
            {
                "start_time": 8.743181818181817,
                "end_time": 8.843181818181817,
                "pitch": 52,
                "velocity": 80,
                "duration": 0.09999999999999964,
                "tempo": 120.0
            },
            {
                "start_time": 8.85909090909091,
                "end_time": 8.979545454545454,
                "pitch": 62,
                "velocity": 80,
                "duration": 0.12045454545454426,
                "tempo": 120.0
            },
            {
                "start_time": 8.995454545454544,
                "end_time": 9.097727272727273,
                "pitch": 52,
                "velocity": 80,
                "duration": 0.1022727272727284,
                "tempo": 120.0
            },
            {
                "start_time": 9.11590909090909,
                "end_time": 9.23409090909091,
                "pitch": 61,
                "velocity": 80,
                "duration": 0.11818181818181905,
                "tempo": 120.0
            },
            {
                "start_time": 9.252272727272727,
                "end_time": 9.354545454545454,
                "pitch": 52,
                "velocity": 80,
                "duration": 0.10227272727272663,
                "tempo": 120.0
            },
            {
                "start_time": 9.372727272727273,
                "end_time": 9.486363636363636,
                "pitch": 59,
                "velocity": 80,
                "duration": 0.11363636363636331,
                "tempo": 120.0
            },
            {
                "start_time": 9.502272727272727,
                "end_time": 9.602272727272727,
                "pitch": 52,
                "velocity": 80,
                "duration": 0.09999999999999964,
                "tempo": 120.0
            },
            {
                "start_time": 9.618181818181817,
                "end_time": 9.73181818181818,
                "pitch": 58,
                "velocity": 80,
                "duration": 0.11363636363636331,
                "tempo": 120.0
            },
            {
                "start_time": 9.75,
                "end_time": 9.847727272727273,
                "pitch": 52,
                "velocity": 80,
                "duration": 0.09772727272727266,
                "tempo": 120.0
            },
            {
                "start_time": 9.863636363636363,
                "end_time": 9.98181818181818,
                "pitch": 59,
                "velocity": 80,
                "duration": 0.11818181818181728,
                "tempo": 120.0
            },
            {
                "start_time": 10.0,
                "end_time": 10.238636363636363,
                "pitch": 52,
                "velocity": 80,
                "duration": 0.2386363636363633,
                "tempo": 120.0
            },
            {
                "start_time": 10.256818181818181,
                "end_time": 10.35909090909091,
                "pitch": 52,
                "velocity": 80,
                "duration": 0.1022727272727284,
                "tempo": 120.0
            },
            {
                "start_time": 10.375,
                "end_time": 10.49090909090909,
                "pitch": 58,
                "velocity": 80,
                "duration": 0.1159090909090903,
                "tempo": 120.0
            },
            {
                "start_time": 10.506818181818181,
                "end_time": 10.736363636363636,
                "pitch": 52,
                "velocity": 80,
                "duration": 0.22954545454545539,
                "tempo": 120.0
            },
            {
                "start_time": 10.752272727272727,
                "end_time": 10.852272727272727,
                "pitch": 52,
                "velocity": 80,
                "duration": 0.09999999999999964,
                "tempo": 120.0
            },
            {
                "start_time": 10.868181818181817,
                "end_time": 10.986363636363636,
                "pitch": 62,
                "velocity": 80,
                "duration": 0.11818181818181905,
                "tempo": 120.0
            },
            {
                "start_time": 11.004545454545454,
                "end_time": 11.10681818181818,
                "pitch": 52,
                "velocity": 80,
                "duration": 0.10227272727272663,
                "tempo": 120.0
            },
            {
                "start_time": 11.122727272727273,
                "end_time": 11.243181818181817,
                "pitch": 61,
                "velocity": 80,
                "duration": 0.12045454545454426,
                "tempo": 120.0
            },
            {
                "start_time": 11.261363636363637,
                "end_time": 11.363636363636363,
                "pitch": 52,
                "velocity": 80,
                "duration": 0.10227272727272663,
                "tempo": 120.0
            },
            {
                "start_time": 11.379545454545454,
                "end_time": 11.495454545454544,
                "pitch": 59,
                "velocity": 80,
                "duration": 0.1159090909090903,
                "tempo": 120.0
            },
            {
                "start_time": 11.511363636363637,
                "end_time": 11.60909090909091,
                "pitch": 52,
                "velocity": 80,
                "duration": 0.09772727272727266,
                "tempo": 120.0
            },
            {
                "start_time": 11.627272727272727,
                "end_time": 11.74090909090909,
                "pitch": 58,
                "velocity": 80,
                "duration": 0.11363636363636331,
                "tempo": 120.0
            },
            {
                "start_time": 11.756818181818181,
                "end_time": 11.85681818181818,
                "pitch": 52,
                "velocity": 80,
                "duration": 0.09999999999999964,
                "tempo": 120.0
            },
            {
                "start_time": 11.872727272727273,
                "end_time": 11.99090909090909,
                "pitch": 59,
                "velocity": 80,
                "duration": 0.11818181818181728,
                "tempo": 120.0
            },
            {
                "start_time": 12.009090909090908,
                "end_time": 12.247727272727273,
                "pitch": 52,
                "velocity": 80,
                "duration": 0.2386363636363651,
                "tempo": 120.0
            },
            {
                "start_time": 12.26590909090909,
                "end_time": 12.368181818181817,
                "pitch": 52,
                "velocity": 80,
                "duration": 0.10227272727272663,
                "tempo": 120.0
            },
            {
                "start_time": 12.384090909090908,
                "end_time": 12.5,
                "pitch": 58,
                "velocity": 80,
                "duration": 0.11590909090909207,
                "tempo": 120.0
            },
            {
                "start_time": 12.51590909090909,
                "end_time": 12.745454545454544,
                "pitch": 52,
                "velocity": 80,
                "duration": 0.2295454545454536,
                "tempo": 120.0
            },
            {
                "start_time": 12.761363636363635,
                "end_time": 12.85909090909091,
                "pitch": 52,
                "velocity": 80,
                "duration": 0.09772727272727444,
                "tempo": 120.0
            },
            {
                "start_time": 12.877272727272727,
                "end_time": 12.995454545454544,
                "pitch": 62,
                "velocity": 80,
                "duration": 0.11818181818181728,
                "tempo": 120.0
            },
            {
                "start_time": 13.013636363636364,
                "end_time": 13.11590909090909,
                "pitch": 52,
                "velocity": 80,
                "duration": 0.10227272727272663,
                "tempo": 120.0
            },
            {
                "start_time": 13.131818181818181,
                "end_time": 13.252272727272727,
                "pitch": 61,
                "velocity": 80,
                "duration": 0.12045454545454604,
                "tempo": 120.0
            },
            {
                "start_time": 13.268181818181818,
                "end_time": 13.370454545454544,
                "pitch": 52,
                "velocity": 80,
                "duration": 0.10227272727272663,
                "tempo": 120.0
            },
            {
                "start_time": 13.388636363636364,
                "end_time": 13.504545454545454,
                "pitch": 59,
                "velocity": 80,
                "duration": 0.1159090909090903,
                "tempo": 120.0
            },
            {
                "start_time": 13.520454545454545,
                "end_time": 13.618181818181817,
                "pitch": 52,
                "velocity": 80,
                "duration": 0.09772727272727266,
                "tempo": 120.0
            },
            {
                "start_time": 13.634090909090908,
                "end_time": 13.75,
                "pitch": 58,
                "velocity": 80,
                "duration": 0.11590909090909207,
                "tempo": 120.0
            },
            {
                "start_time": 13.76590909090909,
                "end_time": 13.863636363636363,
                "pitch": 52,
                "velocity": 80,
                "duration": 0.09772727272727266,
                "tempo": 120.0
            },
            {
                "start_time": 13.879545454545454,
                "end_time": 14.0,
                "pitch": 59,
                "velocity": 80,
                "duration": 0.12045454545454604,
                "tempo": 120.0
            },
            {
                "start_time": 14.01590909090909,
                "end_time": 14.256818181818181,
                "pitch": 52,
                "velocity": 80,
                "duration": 0.2409090909090903,
                "tempo": 120.0
            },
            {
                "start_time": 14.272727272727272,
                "end_time": 14.375,
                "pitch": 52,
                "velocity": 80,
                "duration": 0.1022727272727284,
                "tempo": 120.0
            },
            {
                "start_time": 14.393181818181818,
                "end_time": 14.506818181818181,
                "pitch": 58,
                "velocity": 80,
                "duration": 0.11363636363636331,
                "tempo": 120.0
            },
            {
                "start_time": 14.524999999999999,
                "end_time": 14.754545454545454,
                "pitch": 52,
                "velocity": 80,
                "duration": 0.22954545454545539,
                "tempo": 120.0
            },
            {
                "start_time": 14.770454545454545,
                "end_time": 14.868181818181817,
                "pitch": 52,
                "velocity": 80,
                "duration": 0.09772727272727266,
                "tempo": 120.0
            },
            {
                "start_time": 14.884090909090908,
                "end_time": 15.004545454545454,
                "pitch": 62,
                "velocity": 80,
                "duration": 0.12045454545454604,
                "tempo": 120.0
            },
            {
                "start_time": 15.020454545454545,
                "end_time": 15.122727272727271,
                "pitch": 52,
                "velocity": 80,
                "duration": 0.10227272727272663,
                "tempo": 120.0
            },
            {
                "start_time": 15.14090909090909,
                "end_time": 15.261363636363635,
                "pitch": 61,
                "velocity": 80,
                "duration": 0.12045454545454426,
                "tempo": 120.0
            },
            {
                "start_time": 15.277272727272727,
                "end_time": 15.379545454545454,
                "pitch": 52,
                "velocity": 80,
                "duration": 0.10227272727272663,
                "tempo": 120.0
            },
            {
                "start_time": 15.397727272727272,
                "end_time": 15.511363636363635,
                "pitch": 59,
                "velocity": 80,
                "duration": 0.11363636363636331,
                "tempo": 120.0
            },
            {
                "start_time": 15.527272727272727,
                "end_time": 15.627272727272727,
                "pitch": 52,
                "velocity": 80,
                "duration": 0.09999999999999964,
                "tempo": 120.0
            },
            {
                "start_time": 15.643181818181818,
                "end_time": 15.756818181818181,
                "pitch": 58,
                "velocity": 80,
                "duration": 0.11363636363636331,
                "tempo": 120.0
            },
            {
                "start_time": 15.774999999999999,
                "end_time": 15.872727272727271,
                "pitch": 52,
                "velocity": 80,
                "duration": 0.09772727272727266,
                "tempo": 120.0
            },
            {
                "start_time": 15.888636363636364,
                "end_time": 16.009090909090908,
                "pitch": 59,
                "velocity": 80,
                "duration": 0.12045454545454426,
                "tempo": 120.0
            },
            {
                "start_time": 16.025,
                "end_time": 16.263636363636362,
                "pitch": 52,
                "velocity": 80,
                "duration": 0.2386363636363633,
                "tempo": 120.0
            },
            {
                "start_time": 16.28181818181818,
                "end_time": 16.384090909090908,
                "pitch": 52,
                "velocity": 80,
                "duration": 0.10227272727272663,
                "tempo": 120.0
            },
            {
                "start_time": 16.402272727272727,
                "end_time": 16.51590909090909,
                "pitch": 58,
                "velocity": 80,
                "duration": 0.11363636363636331,
                "tempo": 120.0
            },
            {
                "start_time": 16.53181818181818,
                "end_time": 16.761363636363637,
                "pitch": 52,
                "velocity": 80,
                "duration": 0.22954545454545539,
                "tempo": 120.0
            },
            {
                "start_time": 16.777272727272727,
                "end_time": 16.877272727272725,
                "pitch": 52,
                "velocity": 80,
                "duration": 0.09999999999999787,
                "tempo": 120.0
            },
            {
                "start_time": 16.893181818181816,
                "end_time": 17.011363636363637,
                "pitch": 62,
                "velocity": 80,
                "duration": 0.11818181818182083,
                "tempo": 120.0
            },
            {
                "start_time": 17.029545454545453,
                "end_time": 17.131818181818183,
                "pitch": 52,
                "velocity": 80,
                "duration": 0.10227272727273018,
                "tempo": 120.0
            },
            {
                "start_time": 17.15,
                "end_time": 17.268181818181816,
                "pitch": 61,
                "velocity": 80,
                "duration": 0.11818181818181728,
                "tempo": 120.0
            },
            {
                "start_time": 17.286363636363635,
                "end_time": 17.388636363636362,
                "pitch": 52,
                "velocity": 80,
                "duration": 0.10227272727272663,
                "tempo": 120.0
            },
            {
                "start_time": 17.404545454545453,
                "end_time": 17.520454545454545,
                "pitch": 59,
                "velocity": 80,
                "duration": 0.11590909090909207,
                "tempo": 120.0
            },
            {
                "start_time": 17.536363636363635,
                "end_time": 17.634090909090908,
                "pitch": 52,
                "velocity": 80,
                "duration": 0.09772727272727266,
                "tempo": 120.0
            },
            {
                "start_time": 17.652272727272727,
                "end_time": 17.76590909090909,
                "pitch": 58,
                "velocity": 80,
                "duration": 0.11363636363636331,
                "tempo": 120.0
            },
            {
                "start_time": 17.78181818181818,
                "end_time": 17.881818181818183,
                "pitch": 52,
                "velocity": 80,
                "duration": 0.10000000000000142,
                "tempo": 120.0
            },
            {
                "start_time": 17.897727272727273,
                "end_time": 18.01590909090909,
                "pitch": 59,
                "velocity": 80,
                "duration": 0.11818181818181728,
                "tempo": 120.0
            },
            {
                "start_time": 18.034090909090907,
                "end_time": 18.272727272727273,
                "pitch": 52,
                "velocity": 80,
                "duration": 0.23863636363636687,
                "tempo": 120.0
            },
            {
                "start_time": 18.29090909090909,
                "end_time": 18.393181818181816,
                "pitch": 52,
                "velocity": 80,
                "duration": 0.10227272727272663,
                "tempo": 120.0
            },
            {
                "start_time": 18.409090909090907,
                "end_time": 18.525,
                "pitch": 58,
                "velocity": 80,
                "duration": 0.11590909090909207,
                "tempo": 120.0
            },
            {
                "start_time": 18.54090909090909,
                "end_time": 18.770454545454545,
                "pitch": 52,
                "velocity": 80,
                "duration": 0.22954545454545539,
                "tempo": 120.0
            },
            {
                "start_time": 18.786363636363635,
                "end_time": 18.884090909090908,
                "pitch": 52,
                "velocity": 80,
                "duration": 0.09772727272727266,
                "tempo": 120.0
            },
            {
                "start_time": 18.902272727272727,
                "end_time": 19.020454545454545,
                "pitch": 62,
                "velocity": 80,
                "duration": 0.11818181818181728,
                "tempo": 120.0
            },
            {
                "start_time": 19.038636363636364,
                "end_time": 19.14090909090909,
                "pitch": 52,
                "velocity": 80,
                "duration": 0.10227272727272663,
                "tempo": 120.0
            },
            {
                "start_time": 19.15681818181818,
                "end_time": 19.277272727272727,
                "pitch": 61,
                "velocity": 80,
                "duration": 0.12045454545454604,
                "tempo": 120.0
            },
            {
                "start_time": 19.293181818181818,
                "end_time": 19.397727272727273,
                "pitch": 52,
                "velocity": 80,
                "duration": 0.10454545454545539,
                "tempo": 120.0
            },
            {
                "start_time": 19.413636363636364,
                "end_time": 19.529545454545453,
                "pitch": 59,
                "velocity": 80,
                "duration": 0.11590909090908852,
                "tempo": 120.0
            },
            {
                "start_time": 19.545454545454543,
                "end_time": 19.643181818181816,
                "pitch": 52,
                "velocity": 80,
                "duration": 0.09772727272727266,
                "tempo": 120.0
            },
            {
                "start_time": 19.659090909090907,
                "end_time": 19.775,
                "pitch": 58,
                "velocity": 80,
                "duration": 0.11590909090909207,
                "tempo": 120.0
            },
            {
                "start_time": 19.79090909090909,
                "end_time": 19.888636363636362,
                "pitch": 52,
                "velocity": 80,
                "duration": 0.09772727272727266,
                "tempo": 120.0
            },
            {
                "start_time": 19.90681818181818,
                "end_time": 20.025,
                "pitch": 59,
                "velocity": 80,
                "duration": 0.11818181818181728,
                "tempo": 120.0
            },
            {
                "start_time": 20.04090909090909,
                "end_time": 20.28181818181818,
                "pitch": 52,
                "velocity": 80,
                "duration": 0.24090909090909207,
                "tempo": 120.0
            },
            {
                "start_time": 20.297727272727272,
                "end_time": 20.4,
                "pitch": 52,
                "velocity": 80,
                "duration": 0.10227272727272663,
                "tempo": 120.0
            },
            {
                "start_time": 20.418181818181818,
                "end_time": 20.53181818181818,
                "pitch": 58,
                "velocity": 80,
                "duration": 0.11363636363636331,
                "tempo": 120.0
            },
            {
                "start_time": 20.55,
                "end_time": 20.779545454545453,
                "pitch": 52,
                "velocity": 80,
                "duration": 0.22954545454545183,
                "tempo": 120.0
            },
            {
                "start_time": 20.795454545454543,
                "end_time": 20.893181818181816,
                "pitch": 52,
                "velocity": 80,
                "duration": 0.09772727272727266,
                "tempo": 120.0
            },
            {
                "start_time": 20.909090909090907,
                "end_time": 21.029545454545453,
                "pitch": 62,
                "velocity": 80,
                "duration": 0.12045454545454604,
                "tempo": 120.0
            },
            {
                "start_time": 21.045454545454543,
                "end_time": 21.147727272727273,
                "pitch": 52,
                "velocity": 80,
                "duration": 0.10227272727273018,
                "tempo": 120.0
            },
            {
                "start_time": 21.16590909090909,
                "end_time": 21.286363636363635,
                "pitch": 61,
                "velocity": 80,
                "duration": 0.12045454545454604,
                "tempo": 120.0
            },
            {
                "start_time": 21.302272727272726,
                "end_time": 21.404545454545453,
                "pitch": 52,
                "velocity": 80,
                "duration": 0.10227272727272663,
                "tempo": 120.0
            },
            {
                "start_time": 21.422727272727272,
                "end_time": 21.536363636363635,
                "pitch": 59,
                "velocity": 80,
                "duration": 0.11363636363636331,
                "tempo": 120.0
            },
            {
                "start_time": 21.554545454545455,
                "end_time": 21.652272727272727,
                "pitch": 52,
                "velocity": 80,
                "duration": 0.09772727272727266,
                "tempo": 120.0
            },
            {
                "start_time": 21.668181818181818,
                "end_time": 21.784090909090907,
                "pitch": 58,
                "velocity": 80,
                "duration": 0.11590909090908852,
                "tempo": 120.0
            },
            {
                "start_time": 21.8,
                "end_time": 21.897727272727273,
                "pitch": 52,
                "velocity": 80,
                "duration": 0.09772727272727266,
                "tempo": 120.0
            },
            {
                "start_time": 21.913636363636364,
                "end_time": 22.034090909090907,
                "pitch": 59,
                "velocity": 80,
                "duration": 0.12045454545454248,
                "tempo": 120.0
            },
            {
                "start_time": 22.049999999999997,
                "end_time": 22.288636363636364,
                "pitch": 52,
                "velocity": 80,
                "duration": 0.23863636363636687,
                "tempo": 120.0
            },
            {
                "start_time": 22.30681818181818,
                "end_time": 22.409090909090907,
                "pitch": 52,
                "velocity": 80,
                "duration": 0.10227272727272663,
                "tempo": 120.0
            },
            {
                "start_time": 22.427272727272726,
                "end_time": 22.54090909090909,
                "pitch": 58,
                "velocity": 80,
                "duration": 0.11363636363636331,
                "tempo": 120.0
            },
            {
                "start_time": 22.55681818181818,
                "end_time": 22.786363636363635,
                "pitch": 52,
                "velocity": 80,
                "duration": 0.22954545454545539,
                "tempo": 120.0
            },
            {
                "start_time": 22.804545454545455,
                "end_time": 22.902272727272727,
                "pitch": 52,
                "velocity": 80,
                "duration": 0.09772727272727266,
                "tempo": 120.0
            },
            {
                "start_time": 22.918181818181818,
                "end_time": 23.038636363636364,
                "pitch": 62,
                "velocity": 80,
                "duration": 0.12045454545454604,
                "tempo": 120.0
            },
            {
                "start_time": 23.054545454545455,
                "end_time": 23.15681818181818,
                "pitch": 52,
                "velocity": 80,
                "duration": 0.10227272727272663,
                "tempo": 120.0
            },
            {
                "start_time": 23.174999999999997,
                "end_time": 23.293181818181818,
                "pitch": 61,
                "velocity": 80,
                "duration": 0.11818181818182083,
                "tempo": 120.0
            },
            {
                "start_time": 23.311363636363634,
                "end_time": 23.413636363636364,
                "pitch": 52,
                "velocity": 80,
                "duration": 0.10227272727273018,
                "tempo": 120.0
            },
            {
                "start_time": 23.43181818181818,
                "end_time": 23.545454545454543,
                "pitch": 59,
                "velocity": 80,
                "duration": 0.11363636363636331,
                "tempo": 120.0
            },
            {
                "start_time": 23.561363636363634,
                "end_time": 23.661363636363635,
                "pitch": 52,
                "velocity": 80,
                "duration": 0.10000000000000142,
                "tempo": 120.0
            },
            {
                "start_time": 23.677272727272726,
                "end_time": 23.79090909090909,
                "pitch": 58,
                "velocity": 80,
                "duration": 0.11363636363636331,
                "tempo": 120.0
            },
            {
                "start_time": 23.80681818181818,
                "end_time": 23.90681818181818,
                "pitch": 52,
                "velocity": 80,
                "duration": 0.10000000000000142,
                "tempo": 120.0
            },
            {
                "start_time": 23.922727272727272,
                "end_time": 24.04090909090909,
                "pitch": 59,
                "velocity": 80,
                "duration": 0.11818181818181728,
                "tempo": 120.0
            },
            {
                "start_time": 24.05909090909091,
                "end_time": 24.297727272727272,
                "pitch": 52,
                "velocity": 80,
                "duration": 0.2386363636363633,
                "tempo": 120.0
            },
            {
                "start_time": 24.31590909090909,
                "end_time": 24.418181818181818,
                "pitch": 52,
                "velocity": 80,
                "duration": 0.10227272727272663,
                "tempo": 120.0
            },
            {
                "start_time": 24.43409090909091,
                "end_time": 24.545454545454543,
                "pitch": 58,
                "velocity": 80,
                "duration": 0.11136363636363455,
                "tempo": 120.0
            },
            {
                "start_time": 24.561363636363634,
                "end_time": 24.786363636363635,
                "pitch": 52,
                "velocity": 80,
                "duration": 0.22500000000000142,
                "tempo": 120.0
            },
            {
                "start_time": 24.802272727272726,
                "end_time": 24.89772727272727,
                "pitch": 52,
                "velocity": 80,
                "duration": 0.0954545454545439,
                "tempo": 120.0
            },
            {
                "start_time": 24.913636363636364,
                "end_time": 25.03181818181818,
                "pitch": 62,
                "velocity": 80,
                "duration": 0.11818181818181728,
                "tempo": 120.0
            },
            {
                "start_time": 25.047727272727272,
                "end_time": 25.14772727272727,
                "pitch": 52,
                "velocity": 80,
                "duration": 0.09999999999999787,
                "tempo": 120.0
            },
            {
                "start_time": 25.163636363636364,
                "end_time": 25.28181818181818,
                "pitch": 61,
                "velocity": 80,
                "duration": 0.11818181818181728,
                "tempo": 120.0
            },
            {
                "start_time": 25.297727272727272,
                "end_time": 25.39772727272727,
                "pitch": 52,
                "velocity": 80,
                "duration": 0.09999999999999787,
                "tempo": 120.0
            },
            {
                "start_time": 25.413636363636364,
                "end_time": 25.534090909090907,
                "pitch": 59,
                "velocity": 80,
                "duration": 0.12045454545454248,
                "tempo": 120.0
            },
            {
                "start_time": 25.552272727272726,
                "end_time": 25.654545454545453,
                "pitch": 52,
                "velocity": 80,
                "duration": 0.10227272727272663,
                "tempo": 120.0
            },
            {
                "start_time": 25.670454545454543,
                "end_time": 25.79090909090909,
                "pitch": 58,
                "velocity": 80,
                "duration": 0.12045454545454604,
                "tempo": 120.0
            },
            {
                "start_time": 25.80681818181818,
                "end_time": 25.911363636363635,
                "pitch": 52,
                "velocity": 80,
                "duration": 0.10454545454545539,
                "tempo": 120.0
            },
            {
                "start_time": 25.927272727272726,
                "end_time": 26.04090909090909,
                "pitch": 59,
                "velocity": 80,
                "duration": 0.11363636363636331,
                "tempo": 120.0
            },
            {
                "start_time": 26.05909090909091,
                "end_time": 26.288636363636364,
                "pitch": 52,
                "velocity": 80,
                "duration": 0.22954545454545539,
                "tempo": 120.0
            },
            {
                "start_time": 26.304545454545455,
                "end_time": 26.402272727272727,
                "pitch": 52,
                "velocity": 80,
                "duration": 0.09772727272727266,
                "tempo": 120.0
            },
            {
                "start_time": 26.418181818181818,
                "end_time": 26.534090909090907,
                "pitch": 58,
                "velocity": 80,
                "duration": 0.11590909090908852,
                "tempo": 120.0
            },
            {
                "start_time": 26.549999999999997,
                "end_time": 26.779545454545453,
                "pitch": 52,
                "velocity": 80,
                "duration": 0.22954545454545539,
                "tempo": 120.0
            },
            {
                "start_time": 26.795454545454543,
                "end_time": 26.895454545454545,
                "pitch": 52,
                "velocity": 80,
                "duration": 0.10000000000000142,
                "tempo": 120.0
            },
            {
                "start_time": 26.911363636363635,
                "end_time": 27.027272727272727,
                "pitch": 62,
                "velocity": 80,
                "duration": 0.11590909090909207,
                "tempo": 120.0
            },
            {
                "start_time": 27.045454545454543,
                "end_time": 27.145454545454545,
                "pitch": 52,
                "velocity": 80,
                "duration": 0.10000000000000142,
                "tempo": 120.0
            },
            {
                "start_time": 27.161363636363635,
                "end_time": 27.277272727272727,
                "pitch": 61,
                "velocity": 80,
                "duration": 0.11590909090909207,
                "tempo": 120.0
            },
            {
                "start_time": 27.295454545454543,
                "end_time": 27.395454545454545,
                "pitch": 52,
                "velocity": 80,
                "duration": 0.10000000000000142,
                "tempo": 120.0
            },
            {
                "start_time": 27.411363636363635,
                "end_time": 27.53181818181818,
                "pitch": 59,
                "velocity": 80,
                "duration": 0.12045454545454604,
                "tempo": 120.0
            },
            {
                "start_time": 27.547727272727272,
                "end_time": 27.65,
                "pitch": 52,
                "velocity": 80,
                "duration": 0.10227272727272663,
                "tempo": 120.0
            },
            {
                "start_time": 27.668181818181818,
                "end_time": 27.786363636363635,
                "pitch": 58,
                "velocity": 80,
                "duration": 0.11818181818181728,
                "tempo": 120.0
            },
            {
                "start_time": 27.804545454545455,
                "end_time": 27.90681818181818,
                "pitch": 52,
                "velocity": 80,
                "duration": 0.10227272727272663,
                "tempo": 120.0
            },
            {
                "start_time": 27.924999999999997,
                "end_time": 28.043181818181818,
                "pitch": 59,
                "velocity": 80,
                "duration": 0.11818181818182083,
                "tempo": 120.0
            },
            {
                "start_time": 28.061363636363634,
                "end_time": 28.299999999999997,
                "pitch": 52,
                "velocity": 80,
                "duration": 0.2386363636363633,
                "tempo": 120.0
            },
            {
                "start_time": 28.318181818181817,
                "end_time": 28.420454545454543,
                "pitch": 52,
                "velocity": 80,
                "duration": 0.10227272727272663,
                "tempo": 120.0
            },
            {
                "start_time": 28.436363636363634,
                "end_time": 28.554545454545455,
                "pitch": 58,
                "velocity": 80,
                "duration": 0.11818181818182083,
                "tempo": 120.0
            },
            {
                "start_time": 28.570454545454545,
                "end_time": 28.804545454545455,
                "pitch": 52,
                "velocity": 80,
                "duration": 0.23409090909090935,
                "tempo": 120.0
            },
            {
                "start_time": 28.820454545454545,
                "end_time": 28.920454545454543,
                "pitch": 52,
                "velocity": 80,
                "duration": 0.09999999999999787,
                "tempo": 120.0
            },
            {
                "start_time": 28.936363636363634,
                "end_time": 29.05681818181818,
                "pitch": 62,
                "velocity": 80,
                "duration": 0.12045454545454604,
                "tempo": 120.0
            },
            {
                "start_time": 29.07272727272727,
                "end_time": 29.174999999999997,
                "pitch": 52,
                "velocity": 80,
                "duration": 0.10227272727272663,
                "tempo": 120.0
            },
            {
                "start_time": 29.193181818181817,
                "end_time": 29.313636363636363,
                "pitch": 61,
                "velocity": 80,
                "duration": 0.12045454545454604,
                "tempo": 120.0
            },
            {
                "start_time": 29.329545454545453,
                "end_time": 29.43181818181818,
                "pitch": 52,
                "velocity": 80,
                "duration": 0.10227272727272663,
                "tempo": 120.0
            },
            {
                "start_time": 29.45,
                "end_time": 29.563636363636363,
                "pitch": 59,
                "velocity": 80,
                "duration": 0.11363636363636331,
                "tempo": 120.0
            },
            {
                "start_time": 29.579545454545453,
                "end_time": 29.679545454545455,
                "pitch": 52,
                "velocity": 80,
                "duration": 0.10000000000000142,
                "tempo": 120.0
            },
            {
                "start_time": 29.695454545454545,
                "end_time": 29.80909090909091,
                "pitch": 58,
                "velocity": 80,
                "duration": 0.11363636363636331,
                "tempo": 120.0
            },
            {
                "start_time": 29.827272727272724,
                "end_time": 29.924999999999997,
                "pitch": 52,
                "velocity": 80,
                "duration": 0.09772727272727266,
                "tempo": 120.0
            },
            {
                "start_time": 29.940909090909088,
                "end_time": 30.05909090909091,
                "pitch": 59,
                "velocity": 80,
                "duration": 0.11818181818182083,
                "tempo": 120.0
            },
            {
                "start_time": 30.075,
                "end_time": 30.30909090909091,
                "pitch": 52,
                "velocity": 80,
                "duration": 0.23409090909090935,
                "tempo": 120.0
            },
            {
                "start_time": 30.325,
                "end_time": 30.424999999999997,
                "pitch": 52,
                "velocity": 80,
                "duration": 0.09999999999999787,
                "tempo": 120.0
            },
            {
                "start_time": 30.440909090909088,
                "end_time": 30.554545454545455,
                "pitch": 58,
                "velocity": 80,
                "duration": 0.11363636363636687,
                "tempo": 120.0
            },
            {
                "start_time": 30.570454545454545,
                "end_time": 30.795454545454543,
                "pitch": 52,
                "velocity": 80,
                "duration": 0.22499999999999787,
                "tempo": 120.0
            },
            {
                "start_time": 30.811363636363634,
                "end_time": 30.909090909090907,
                "pitch": 52,
                "velocity": 80,
                "duration": 0.09772727272727266,
                "tempo": 120.0
            },
            {
                "start_time": 30.924999999999997,
                "end_time": 31.04090909090909,
                "pitch": 62,
                "velocity": 80,
                "duration": 0.11590909090909207,
                "tempo": 120.0
            },
            {
                "start_time": 31.05909090909091,
                "end_time": 31.159090909090907,
                "pitch": 52,
                "velocity": 80,
                "duration": 0.09999999999999787,
                "tempo": 120.0
            },
            {
                "start_time": 31.174999999999997,
                "end_time": 31.29090909090909,
                "pitch": 61,
                "velocity": 80,
                "duration": 0.11590909090909207,
                "tempo": 120.0
            },
            {
                "start_time": 31.30909090909091,
                "end_time": 31.409090909090907,
                "pitch": 52,
                "velocity": 80,
                "duration": 0.09999999999999787,
                "tempo": 120.0
            },
            {
                "start_time": 31.424999999999997,
                "end_time": 31.545454545454543,
                "pitch": 59,
                "velocity": 80,
                "duration": 0.12045454545454604,
                "tempo": 120.0
            },
            {
                "start_time": 31.561363636363634,
                "end_time": 31.66363636363636,
                "pitch": 52,
                "velocity": 80,
                "duration": 0.10227272727272663,
                "tempo": 120.0
            },
            {
                "start_time": 31.68181818181818,
                "end_time": 31.802272727272726,
                "pitch": 58,
                "velocity": 80,
                "duration": 0.12045454545454604,
                "tempo": 120.0
            },
            {
                "start_time": 31.818181818181817,
                "end_time": 31.920454545454543,
                "pitch": 52,
                "velocity": 80,
                "duration": 0.10227272727272663,
                "tempo": 120.0
            },
            {
                "start_time": 31.938636363636363,
                "end_time": 32.05681818181818,
                "pitch": 59,
                "velocity": 80,
                "duration": 0.11818181818181728,
                "tempo": 120.0
            },
            {
                "start_time": 32.074999999999996,
                "end_time": 32.31363636363636,
                "pitch": 52,
                "velocity": 80,
                "duration": 0.23863636363636687,
                "tempo": 120.0
            },
            {
                "start_time": 32.33181818181818,
                "end_time": 32.434090909090905,
                "pitch": 52,
                "velocity": 80,
                "duration": 0.10227272727272663,
                "tempo": 120.0
            },
            {
                "start_time": 32.449999999999996,
                "end_time": 32.56818181818182,
                "pitch": 58,
                "velocity": 80,
                "duration": 0.11818181818182438,
                "tempo": 120.0
            },
            {
                "start_time": 32.58409090909091,
                "end_time": 32.81818181818182,
                "pitch": 52,
                "velocity": 80,
                "duration": 0.23409090909090935,
                "tempo": 120.0
            },
            {
                "start_time": 32.83409090909091,
                "end_time": 32.934090909090905,
                "pitch": 52,
                "velocity": 80,
                "duration": 0.09999999999999432,
                "tempo": 120.0
            },
            {
                "start_time": 32.949999999999996,
                "end_time": 33.070454545454545,
                "pitch": 62,
                "velocity": 80,
                "duration": 0.12045454545454959,
                "tempo": 120.0
            },
            {
                "start_time": 33.08863636363636,
                "end_time": 33.19090909090909,
                "pitch": 52,
                "velocity": 80,
                "duration": 0.10227272727272663,
                "tempo": 120.0
            },
            {
                "start_time": 33.20681818181818,
                "end_time": 33.32727272727273,
                "pitch": 61,
                "velocity": 80,
                "duration": 0.12045454545454959,
                "tempo": 120.0
            },
            {
                "start_time": 33.34318181818182,
                "end_time": 33.445454545454545,
                "pitch": 52,
                "velocity": 80,
                "duration": 0.10227272727272663,
                "tempo": 120.0
            },
            {
                "start_time": 33.46363636363636,
                "end_time": 33.57727272727273,
                "pitch": 59,
                "velocity": 80,
                "duration": 0.11363636363636687,
                "tempo": 120.0
            },
            {
                "start_time": 33.595454545454544,
                "end_time": 33.69318181818181,
                "pitch": 52,
                "velocity": 80,
                "duration": 0.09772727272726911,
                "tempo": 120.0
            },
            {
                "start_time": 33.70909090909091,
                "end_time": 33.824999999999996,
                "pitch": 58,
                "velocity": 80,
                "duration": 0.11590909090908497,
                "tempo": 120.0
            },
            {
                "start_time": 33.840909090909086,
                "end_time": 33.93863636363636,
                "pitch": 52,
                "velocity": 80,
                "duration": 0.09772727272727622,
                "tempo": 120.0
            },
            {
                "start_time": 33.95454545454545,
                "end_time": 34.07272727272727,
                "pitch": 59,
                "velocity": 80,
                "duration": 0.11818181818181728,
                "tempo": 120.0
            },
            {
                "start_time": 34.08863636363636,
                "end_time": 34.32272727272727,
                "pitch": 52,
                "velocity": 80,
                "duration": 0.23409090909090935,
                "tempo": 120.0
            },
            {
                "start_time": 34.33863636363636,
                "end_time": 34.43863636363636,
                "pitch": 52,
                "velocity": 80,
                "duration": 0.10000000000000142,
                "tempo": 120.0
            },
            {
                "start_time": 34.45454545454545,
                "end_time": 34.56590909090909,
                "pitch": 58,
                "velocity": 80,
                "duration": 0.11136363636363455,
                "tempo": 120.0
            },
            {
                "start_time": 34.58181818181818,
                "end_time": 34.80681818181818,
                "pitch": 52,
                "velocity": 80,
                "duration": 0.22500000000000142,
                "tempo": 120.0
            },
            {
                "start_time": 34.82272727272727,
                "end_time": 34.918181818181814,
                "pitch": 52,
                "velocity": 80,
                "duration": 0.0954545454545439,
                "tempo": 120.0
            },
            {
                "start_time": 34.93636363636364,
                "end_time": 35.05227272727272,
                "pitch": 62,
                "velocity": 80,
                "duration": 0.11590909090908497,
                "tempo": 120.0
            },
            {
                "start_time": 35.06818181818181,
                "end_time": 35.168181818181814,
                "pitch": 52,
                "velocity": 80,
                "duration": 0.10000000000000142,
                "tempo": 120.0
            },
            {
                "start_time": 35.18636363636364,
                "end_time": 35.30227272727272,
                "pitch": 61,
                "velocity": 80,
                "duration": 0.11590909090908497,
                "tempo": 120.0
            },
            {
                "start_time": 35.31818181818181,
                "end_time": 35.418181818181814,
                "pitch": 52,
                "velocity": 80,
                "duration": 0.10000000000000142,
                "tempo": 120.0
            },
            {
                "start_time": 35.43636363636364,
                "end_time": 35.554545454545455,
                "pitch": 59,
                "velocity": 80,
                "duration": 0.11818181818181728,
                "tempo": 120.0
            },
            {
                "start_time": 35.57272727272727,
                "end_time": 35.675,
                "pitch": 52,
                "velocity": 80,
                "duration": 0.10227272727272663,
                "tempo": 120.0
            },
            {
                "start_time": 35.69318181818181,
                "end_time": 35.81136363636364,
                "pitch": 58,
                "velocity": 80,
                "duration": 0.11818181818182438,
                "tempo": 120.0
            },
            {
                "start_time": 35.82954545454545,
                "end_time": 35.93181818181818,
                "pitch": 52,
                "velocity": 80,
                "duration": 0.10227272727272663,
                "tempo": 120.0
            },
            {
                "start_time": 35.94772727272727,
                "end_time": 36.06818181818181,
                "pitch": 59,
                "velocity": 80,
                "duration": 0.12045454545454248,
                "tempo": 120.0
            },
            {
                "start_time": 36.08409090909091,
                "end_time": 36.324999999999996,
                "pitch": 52,
                "velocity": 80,
                "duration": 0.24090909090908497,
                "tempo": 120.0
            },
            {
                "start_time": 36.340909090909086,
                "end_time": 36.44318181818181,
                "pitch": 52,
                "velocity": 80,
                "duration": 0.10227272727272663,
                "tempo": 120.0
            },
            {
                "start_time": 36.461363636363636,
                "end_time": 36.57727272727273,
                "pitch": 58,
                "velocity": 80,
                "duration": 0.11590909090909207,
                "tempo": 120.0
            },
            {
                "start_time": 36.595454545454544,
                "end_time": 36.82727272727273,
                "pitch": 52,
                "velocity": 80,
                "duration": 0.23181818181818414,
                "tempo": 120.0
            },
            {
                "start_time": 36.845454545454544,
                "end_time": 36.945454545454545,
                "pitch": 52,
                "velocity": 80,
                "duration": 0.10000000000000142,
                "tempo": 120.0
            },
            {
                "start_time": 36.961363636363636,
                "end_time": 37.08181818181818,
                "pitch": 62,
                "velocity": 80,
                "duration": 0.12045454545454248,
                "tempo": 120.0
            },
            {
                "start_time": 37.09772727272727,
                "end_time": 37.199999999999996,
                "pitch": 52,
                "velocity": 80,
                "duration": 0.10227272727272663,
                "tempo": 120.0
            },
            {
                "start_time": 37.21818181818182,
                "end_time": 37.336363636363636,
                "pitch": 61,
                "velocity": 80,
                "duration": 0.11818181818181728,
                "tempo": 120.0
            },
            {
                "start_time": 37.35454545454545,
                "end_time": 37.45681818181818,
                "pitch": 52,
                "velocity": 80,
                "duration": 0.10227272727272663,
                "tempo": 120.0
            },
            {
                "start_time": 37.47272727272727,
                "end_time": 37.58863636363636,
                "pitch": 59,
                "velocity": 80,
                "duration": 0.11590909090909207,
                "tempo": 120.0
            },
            {
                "start_time": 37.60454545454545,
                "end_time": 37.70454545454545,
                "pitch": 52,
                "velocity": 80,
                "duration": 0.10000000000000142,
                "tempo": 120.0
            },
            {
                "start_time": 37.720454545454544,
                "end_time": 37.83409090909091,
                "pitch": 58,
                "velocity": 80,
                "duration": 0.11363636363636687,
                "tempo": 120.0
            },
            {
                "start_time": 37.85,
                "end_time": 37.949999999999996,
                "pitch": 52,
                "velocity": 80,
                "duration": 0.09999999999999432,
                "tempo": 120.0
            },
            {
                "start_time": 37.965909090909086,
                "end_time": 38.08181818181818,
                "pitch": 59,
                "velocity": 80,
                "duration": 0.11590909090909207,
                "tempo": 120.0
            },
            {
                "start_time": 38.1,
                "end_time": 38.33181818181818,
                "pitch": 52,
                "velocity": 80,
                "duration": 0.23181818181817704,
                "tempo": 120.0
            },
            {
                "start_time": 38.35,
                "end_time": 38.449999999999996,
                "pitch": 52,
                "velocity": 80,
                "duration": 0.09999999999999432,
                "tempo": 120.0
            },
            {
                "start_time": 38.465909090909086,
                "end_time": 38.57727272727273,
                "pitch": 58,
                "velocity": 80,
                "duration": 0.11136363636364166,
                "tempo": 120.0
            },
            {
                "start_time": 38.59318181818182,
                "end_time": 38.81590909090909,
                "pitch": 52,
                "velocity": 80,
                "duration": 0.2227272727272691,
                "tempo": 120.0
            },
            {
                "start_time": 38.83181818181818,
                "end_time": 38.929545454545455,
                "pitch": 52,
                "velocity": 80,
                "duration": 0.09772727272727622,
                "tempo": 120.0
            },
            {
                "start_time": 38.945454545454545,
                "end_time": 39.06136363636364,
                "pitch": 62,
                "velocity": 80,
                "duration": 0.11590909090909207,
                "tempo": 120.0
            },
            {
                "start_time": 39.07954545454545,
                "end_time": 39.179545454545455,
                "pitch": 52,
                "velocity": 80,
                "duration": 0.10000000000000142,
                "tempo": 120.0
            },
            {
                "start_time": 39.195454545454545,
                "end_time": 39.31136363636364,
                "pitch": 61,
                "velocity": 80,
                "duration": 0.11590909090909207,
                "tempo": 120.0
            },
            {
                "start_time": 39.32954545454545,
                "end_time": 39.429545454545455,
                "pitch": 52,
                "velocity": 80,
                "duration": 0.10000000000000142,
                "tempo": 120.0
            },
            {
                "start_time": 39.445454545454545,
                "end_time": 39.56590909090909,
                "pitch": 59,
                "velocity": 80,
                "duration": 0.12045454545454248,
                "tempo": 120.0
            },
            {
                "start_time": 39.58181818181818,
                "end_time": 39.68636363636364,
                "pitch": 52,
                "velocity": 80,
                "duration": 0.10454545454545894,
                "tempo": 120.0
            },
            {
                "start_time": 39.70227272727273,
                "end_time": 39.82272727272727,
                "pitch": 58,
                "velocity": 80,
                "duration": 0.12045454545454248,
                "tempo": 120.0
            },
            {
                "start_time": 39.83863636363636,
                "end_time": 39.94090909090909,
                "pitch": 52,
                "velocity": 80,
                "duration": 0.10227272727272663,
                "tempo": 120.0
            },
            {
                "start_time": 39.959090909090904,
                "end_time": 40.07727272727273,
                "pitch": 59,
                "velocity": 80,
                "duration": 0.11818181818182438,
                "tempo": 120.0
            },
            {
                "start_time": 40.095454545454544,
                "end_time": 40.334090909090904,
                "pitch": 52,
                "velocity": 80,
                "duration": 0.23863636363635976,
                "tempo": 120.0
            },
            {
                "start_time": 40.35227272727273,
                "end_time": 40.45454545454545,
                "pitch": 52,
                "velocity": 80,
                "duration": 0.10227272727272663,
                "tempo": 120.0
            },
            {
                "start_time": 40.470454545454544,
                "end_time": 40.58863636363636,
                "pitch": 58,
                "velocity": 80,
                "duration": 0.11818181818181728,
                "tempo": 120.0
            },
            {
                "start_time": 40.60454545454545,
                "end_time": 40.83863636363636,
                "pitch": 52,
                "velocity": 80,
                "duration": 0.23409090909090935,
                "tempo": 120.0
            },
            {
                "start_time": 40.85454545454545,
                "end_time": 40.95454545454545,
                "pitch": 52,
                "velocity": 80,
                "duration": 0.10000000000000142,
                "tempo": 120.0
            },
            {
                "start_time": 40.970454545454544,
                "end_time": 41.090909090909086,
                "pitch": 62,
                "velocity": 80,
                "duration": 0.12045454545454248,
                "tempo": 120.0
            },
            {
                "start_time": 41.10909090909091,
                "end_time": 41.211363636363636,
                "pitch": 52,
                "velocity": 80,
                "duration": 0.10227272727272663,
                "tempo": 120.0
            },
            {
                "start_time": 41.22727272727273,
                "end_time": 41.34772727272727,
                "pitch": 61,
                "velocity": 80,
                "duration": 0.12045454545454248,
                "tempo": 120.0
            },
            {
                "start_time": 41.36363636363636,
                "end_time": 41.465909090909086,
                "pitch": 52,
                "velocity": 80,
                "duration": 0.10227272727272663,
                "tempo": 120.0
            },
            {
                "start_time": 41.48409090909091,
                "end_time": 41.6,
                "pitch": 59,
                "velocity": 80,
                "duration": 0.11590909090909207,
                "tempo": 120.0
            },
            {
                "start_time": 41.61590909090909,
                "end_time": 41.71363636363636,
                "pitch": 52,
                "velocity": 80,
                "duration": 0.09772727272726911,
                "tempo": 120.0
            },
            {
                "start_time": 41.72954545454545,
                "end_time": 41.845454545454544,
                "pitch": 58,
                "velocity": 80,
                "duration": 0.11590909090909207,
                "tempo": 120.0
            },
            {
                "start_time": 41.861363636363635,
                "end_time": 41.959090909090904,
                "pitch": 52,
                "velocity": 80,
                "duration": 0.09772727272726911,
                "tempo": 120.0
            },
            {
                "start_time": 41.975,
                "end_time": 42.090909090909086,
                "pitch": 59,
                "velocity": 80,
                "duration": 0.11590909090908497,
                "tempo": 120.0
            },
            {
                "start_time": 42.10681818181818,
                "end_time": 42.336363636363636,
                "pitch": 52,
                "velocity": 80,
                "duration": 0.22954545454545894,
                "tempo": 120.0
            },
            {
                "start_time": 42.35227272727273,
                "end_time": 42.45227272727273,
                "pitch": 52,
                "velocity": 80,
                "duration": 0.10000000000000142,
                "tempo": 120.0
            },
            {
                "start_time": 42.46818181818182,
                "end_time": 42.58181818181818,
                "pitch": 58,
                "velocity": 80,
                "duration": 0.11363636363635976,
                "tempo": 120.0
            },
            {
                "start_time": 42.6,
                "end_time": 42.82954545454545,
                "pitch": 52,
                "velocity": 80,
                "duration": 0.22954545454545183,
                "tempo": 120.0
            },
            {
                "start_time": 42.845454545454544,
                "end_time": 42.94318181818181,
                "pitch": 52,
                "velocity": 80,
                "duration": 0.09772727272726911,
                "tempo": 120.0
            },
            {
                "start_time": 42.959090909090904,
                "end_time": 43.07727272727273,
                "pitch": 62,
                "velocity": 80,
                "duration": 0.11818181818182438,
                "tempo": 120.0
            },
            {
                "start_time": 43.09318181818182,
                "end_time": 43.19318181818181,
                "pitch": 52,
                "velocity": 80,
                "duration": 0.09999999999999432,
                "tempo": 120.0
            },
            {
                "start_time": 43.209090909090904,
                "end_time": 43.32727272727273,
                "pitch": 61,
                "velocity": 80,
                "duration": 0.11818181818182438,
                "tempo": 120.0
            },
            {
                "start_time": 43.34318181818182,
                "end_time": 43.44318181818181,
                "pitch": 52,
                "velocity": 80,
                "duration": 0.09999999999999432,
                "tempo": 120.0
            },
            {
                "start_time": 43.459090909090904,
                "end_time": 43.57954545454545,
                "pitch": 59,
                "velocity": 80,
                "duration": 0.12045454545454959,
                "tempo": 120.0
            },
            {
                "start_time": 43.59772727272727,
                "end_time": 43.699999999999996,
                "pitch": 52,
                "velocity": 80,
                "duration": 0.10227272727272663,
                "tempo": 120.0
            },
            {
                "start_time": 43.715909090909086,
                "end_time": 43.836363636363636,
                "pitch": 58,
                "velocity": 80,
                "duration": 0.12045454545454959,
                "tempo": 120.0
            },
            {
                "start_time": 43.85227272727273,
                "end_time": 43.95681818181818,
                "pitch": 52,
                "velocity": 80,
                "duration": 0.10454545454545183,
                "tempo": 120.0
            },
            {
                "start_time": 43.97272727272727,
                "end_time": 44.09318181818182,
                "pitch": 59,
                "velocity": 80,
                "duration": 0.12045454545454959,
                "tempo": 120.0
            },
            {
                "start_time": 44.10909090909091,
                "end_time": 44.349999999999994,
                "pitch": 52,
                "velocity": 80,
                "duration": 0.24090909090908497,
                "tempo": 120.0
            },
            {
                "start_time": 44.36590909090909,
                "end_time": 44.46818181818182,
                "pitch": 52,
                "velocity": 80,
                "duration": 0.10227272727272663,
                "tempo": 120.0
            },
            {
                "start_time": 44.486363636363635,
                "end_time": 44.60227272727273,
                "pitch": 58,
                "velocity": 80,
                "duration": 0.11590909090909207,
                "tempo": 120.0
            },
            {
                "start_time": 44.61818181818182,
                "end_time": 44.85227272727273,
                "pitch": 52,
                "velocity": 80,
                "duration": 0.23409090909090935,
                "tempo": 120.0
            },
            {
                "start_time": 44.86818181818182,
                "end_time": 44.96818181818182,
                "pitch": 52,
                "velocity": 80,
                "duration": 0.10000000000000142,
                "tempo": 120.0
            },
            {
                "start_time": 44.986363636363635,
                "end_time": 45.10454545454545,
                "pitch": 62,
                "velocity": 80,
                "duration": 0.11818181818181728,
                "tempo": 120.0
            },
            {
                "start_time": 45.12272727272727,
                "end_time": 45.224999999999994,
                "pitch": 52,
                "velocity": 80,
                "duration": 0.10227272727272663,
                "tempo": 120.0
            },
            {
                "start_time": 45.24090909090909,
                "end_time": 45.361363636363635,
                "pitch": 61,
                "velocity": 80,
                "duration": 0.12045454545454248,
                "tempo": 120.0
            },
            {
                "start_time": 45.37954545454545,
                "end_time": 45.48181818181818,
                "pitch": 52,
                "velocity": 80,
                "duration": 0.10227272727272663,
                "tempo": 120.0
            },
            {
                "start_time": 45.49772727272727,
                "end_time": 45.61363636363636,
                "pitch": 59,
                "velocity": 80,
                "duration": 0.11590909090909207,
                "tempo": 120.0
            },
            {
                "start_time": 45.62954545454545,
                "end_time": 45.72727272727273,
                "pitch": 52,
                "velocity": 80,
                "duration": 0.09772727272727622,
                "tempo": 120.0
            },
            {
                "start_time": 45.74318181818182,
                "end_time": 45.85909090909091,
                "pitch": 58,
                "velocity": 80,
                "duration": 0.11590909090909207,
                "tempo": 120.0
            },
            {
                "start_time": 45.875,
                "end_time": 45.97272727272727,
                "pitch": 52,
                "velocity": 80,
                "duration": 0.09772727272726911,
                "tempo": 120.0
            },
            {
                "start_time": 45.99090909090909,
                "end_time": 46.10909090909091,
                "pitch": 59,
                "velocity": 80,
                "duration": 0.11818181818181728,
                "tempo": 120.0
            },
            {
                "start_time": 46.127272727272725,
                "end_time": 46.36590909090909,
                "pitch": 52,
                "velocity": 80,
                "duration": 0.23863636363636687,
                "tempo": 120.0
            },
            {
                "start_time": 46.38181818181818,
                "end_time": 46.486363636363635,
                "pitch": 52,
                "velocity": 80,
                "duration": 0.10454545454545183,
                "tempo": 120.0
            },
            {
                "start_time": 46.502272727272725,
                "end_time": 46.61818181818182,
                "pitch": 58,
                "velocity": 80,
                "duration": 0.11590909090909207,
                "tempo": 120.0
            },
            {
                "start_time": 46.63409090909091,
                "end_time": 46.86363636363636,
                "pitch": 52,
                "velocity": 80,
                "duration": 0.22954545454545183,
                "tempo": 120.0
            },
            {
                "start_time": 46.87954545454545,
                "end_time": 46.97727272727273,
                "pitch": 52,
                "velocity": 80,
                "duration": 0.09772727272727622,
                "tempo": 120.0
            },
            {
                "start_time": 46.99545454545454,
                "end_time": 47.11363636363636,
                "pitch": 62,
                "velocity": 80,
                "duration": 0.11818181818181728,
                "tempo": 120.0
            },
            {
                "start_time": 47.12954545454545,
                "end_time": 47.23409090909091,
                "pitch": 52,
                "velocity": 80,
                "duration": 0.10454545454545894,
                "tempo": 120.0
            },
            {
                "start_time": 47.25,
                "end_time": 47.37045454545454,
                "pitch": 61,
                "velocity": 80,
                "duration": 0.12045454545454248,
                "tempo": 120.0
            },
            {
                "start_time": 47.38636363636363,
                "end_time": 47.48863636363636,
                "pitch": 52,
                "velocity": 80,
                "duration": 0.10227272727272663,
                "tempo": 120.0
            },
            {
                "start_time": 47.50681818181818,
                "end_time": 47.62045454545454,
                "pitch": 59,
                "velocity": 80,
                "duration": 0.11363636363635976,
                "tempo": 120.0
            },
            {
                "start_time": 47.63863636363636,
                "end_time": 47.736363636363635,
                "pitch": 52,
                "velocity": 80,
                "duration": 0.09772727272727622,
                "tempo": 120.0
            },
            {
                "start_time": 47.752272727272725,
                "end_time": 47.86818181818182,
                "pitch": 58,
                "velocity": 80,
                "duration": 0.11590909090909207,
                "tempo": 120.0
            },
            {
                "start_time": 47.88409090909091,
                "end_time": 47.98181818181818,
                "pitch": 52,
                "velocity": 80,
                "duration": 0.09772727272726911,
                "tempo": 120.0
            },
            {
                "start_time": 47.99772727272727,
                "end_time": 48.11818181818182,
                "pitch": 59,
                "velocity": 80,
                "duration": 0.12045454545454959,
                "tempo": 120.0
            },
            {
                "start_time": 48.13409090909091,
                "end_time": 48.375,
                "pitch": 52,
                "velocity": 80,
                "duration": 0.24090909090909207,
                "tempo": 120.0
            },
            {
                "start_time": 48.39090909090909,
                "end_time": 48.49318181818182,
                "pitch": 52,
                "velocity": 80,
                "duration": 0.10227272727272663,
                "tempo": 120.0
            },
            {
                "start_time": 48.51136363636363,
                "end_time": 48.625,
                "pitch": 58,
                "velocity": 80,
                "duration": 0.11363636363636687,
                "tempo": 120.0
            },
            {
                "start_time": 48.643181818181816,
                "end_time": 48.87272727272727,
                "pitch": 52,
                "velocity": 80,
                "duration": 0.22954545454545183,
                "tempo": 120.0
            },
            {
                "start_time": 48.88863636363636,
                "end_time": 48.986363636363635,
                "pitch": 52,
                "velocity": 80,
                "duration": 0.09772727272727622,
                "tempo": 120.0
            },
            {
                "start_time": 49.002272727272725,
                "end_time": 49.12272727272727,
                "pitch": 62,
                "velocity": 80,
                "duration": 0.12045454545454248,
                "tempo": 120.0
            },
            {
                "start_time": 49.13863636363636,
                "end_time": 49.240909090909085,
                "pitch": 52,
                "velocity": 80,
                "duration": 0.10227272727272663,
                "tempo": 120.0
            },
            {
                "start_time": 49.25909090909091,
                "end_time": 49.377272727272725,
                "pitch": 61,
                "velocity": 80,
                "duration": 0.11818181818181728,
                "tempo": 120.0
            },
            {
                "start_time": 49.39545454545454,
                "end_time": 49.49772727272727,
                "pitch": 52,
                "velocity": 80,
                "duration": 0.10227272727272663,
                "tempo": 120.0
            },
            {
                "start_time": 49.51590909090909,
                "end_time": 49.62954545454545,
                "pitch": 59,
                "velocity": 80,
                "duration": 0.11363636363635976,
                "tempo": 120.0
            },
            {
                "start_time": 49.64545454545454,
                "end_time": 49.74545454545454,
                "pitch": 52,
                "velocity": 80,
                "duration": 0.10000000000000142,
                "tempo": 120.0
            },
            {
                "start_time": 49.76136363636363,
                "end_time": 49.875,
                "pitch": 58,
                "velocity": 80,
                "duration": 0.11363636363636687,
                "tempo": 120.0
            },
            {
                "start_time": 49.893181818181816,
                "end_time": 49.990909090909085,
                "pitch": 52,
                "velocity": 80,
                "duration": 0.09772727272726911,
                "tempo": 120.0
            },
            {
                "start_time": 50.00681818181818,
                "end_time": 50.127272727272725,
                "pitch": 59,
                "velocity": 80,
                "duration": 0.12045454545454248,
                "tempo": 120.0
            },
            {
                "start_time": 50.143181818181816,
                "end_time": 50.38181818181818,
                "pitch": 52,
                "velocity": 80,
                "duration": 0.23863636363636687,
                "tempo": 120.0
            },
            {
                "start_time": 50.4,
                "end_time": 50.502272727272725,
                "pitch": 52,
                "velocity": 80,
                "duration": 0.10227272727272663,
                "tempo": 120.0
            },
            {
                "start_time": 50.52045454545454,
                "end_time": 50.63409090909091,
                "pitch": 58,
                "velocity": 80,
                "duration": 0.11363636363636687,
                "tempo": 120.0
            },
            {
                "start_time": 50.65,
                "end_time": 50.87954545454545,
                "pitch": 52,
                "velocity": 80,
                "duration": 0.22954545454545183,
                "tempo": 120.0
            },
            {
                "start_time": 50.89545454545454,
                "end_time": 50.99545454545454,
                "pitch": 52,
                "velocity": 80,
                "duration": 0.10000000000000142,
                "tempo": 120.0
            },
            {
                "start_time": 51.01136363636363,
                "end_time": 51.12954545454545,
                "pitch": 62,
                "velocity": 80,
                "duration": 0.11818181818181728,
                "tempo": 120.0
            },
            {
                "start_time": 51.14772727272727,
                "end_time": 51.25,
                "pitch": 52,
                "velocity": 80,
                "duration": 0.10227272727272663,
                "tempo": 120.0
            },
            {
                "start_time": 51.268181818181816,
                "end_time": 51.38636363636363,
                "pitch": 61,
                "velocity": 80,
                "duration": 0.11818181818181728,
                "tempo": 120.0
            },
            {
                "start_time": 51.40454545454545,
                "end_time": 51.50681818181818,
                "pitch": 52,
                "velocity": 80,
                "duration": 0.10227272727273373,
                "tempo": 120.0
            },
            {
                "start_time": 51.52272727272727,
                "end_time": 51.63863636363636,
                "pitch": 59,
                "velocity": 80,
                "duration": 0.11590909090908497,
                "tempo": 120.0
            },
            {
                "start_time": 51.65454545454545,
                "end_time": 51.752272727272725,
                "pitch": 52,
                "velocity": 80,
                "duration": 0.09772727272727622,
                "tempo": 120.0
            },
            {
                "start_time": 51.77045454545454,
                "end_time": 51.88409090909091,
                "pitch": 58,
                "velocity": 80,
                "duration": 0.11363636363636687,
                "tempo": 120.0
            },
            {
                "start_time": 51.9,
                "end_time": 52.0,
                "pitch": 52,
                "velocity": 80,
                "duration": 0.10000000000000142,
                "tempo": 120.0
            },
            {
                "start_time": 52.01590909090909,
                "end_time": 52.13409090909091,
                "pitch": 59,
                "velocity": 80,
                "duration": 0.11818181818181728,
                "tempo": 120.0
            },
            {
                "start_time": 52.152272727272724,
                "end_time": 52.39090909090909,
                "pitch": 52,
                "velocity": 80,
                "duration": 0.23863636363636687,
                "tempo": 120.0
            },
            {
                "start_time": 52.40909090909091,
                "end_time": 52.51136363636363,
                "pitch": 52,
                "velocity": 80,
                "duration": 0.10227272727272663,
                "tempo": 120.0
            },
            {
                "start_time": 52.527272727272724,
                "end_time": 52.643181818181816,
                "pitch": 58,
                "velocity": 80,
                "duration": 0.11590909090909207,
                "tempo": 120.0
            },
            {
                "start_time": 52.65909090909091,
                "end_time": 52.88863636363636,
                "pitch": 52,
                "velocity": 80,
                "duration": 0.22954545454545183,
                "tempo": 120.0
            },
            {
                "start_time": 52.90454545454545,
                "end_time": 53.002272727272725,
                "pitch": 52,
                "velocity": 80,
                "duration": 0.09772727272727622,
                "tempo": 120.0
            },
            {
                "start_time": 53.02045454545454,
                "end_time": 53.13863636363636,
                "pitch": 62,
                "velocity": 80,
                "duration": 0.11818181818181728,
                "tempo": 120.0
            },
            {
                "start_time": 53.15681818181818,
                "end_time": 53.25909090909091,
                "pitch": 52,
                "velocity": 80,
                "duration": 0.10227272727272663,
                "tempo": 120.0
            },
            {
                "start_time": 53.275,
                "end_time": 53.39545454545454,
                "pitch": 61,
                "velocity": 80,
                "duration": 0.12045454545454248,
                "tempo": 120.0
            },
            {
                "start_time": 53.41136363636363,
                "end_time": 53.51590909090909,
                "pitch": 52,
                "velocity": 80,
                "duration": 0.10454545454545894,
                "tempo": 120.0
            },
            {
                "start_time": 53.53181818181818,
                "end_time": 53.64772727272727,
                "pitch": 59,
                "velocity": 80,
                "duration": 0.11590909090909207,
                "tempo": 120.0
            },
            {
                "start_time": 53.663636363636364,
                "end_time": 53.76136363636363,
                "pitch": 52,
                "velocity": 80,
                "duration": 0.09772727272726911,
                "tempo": 120.0
            },
            {
                "start_time": 53.777272727272724,
                "end_time": 53.893181818181816,
                "pitch": 58,
                "velocity": 80,
                "duration": 0.11590909090909207,
                "tempo": 120.0
            },
            {
                "start_time": 53.90909090909091,
                "end_time": 54.00681818181818,
                "pitch": 52,
                "velocity": 80,
                "duration": 0.09772727272727622,
                "tempo": 120.0
            },
            {
                "start_time": 54.02272727272727,
                "end_time": 54.143181818181816,
                "pitch": 59,
                "velocity": 80,
                "duration": 0.12045454545454248,
                "tempo": 120.0
            },
            {
                "start_time": 54.15909090909091,
                "end_time": 54.4,
                "pitch": 52,
                "velocity": 80,
                "duration": 0.24090909090909207,
                "tempo": 120.0
            },
            {
                "start_time": 54.41590909090909,
                "end_time": 54.518181818181816,
                "pitch": 52,
                "velocity": 80,
                "duration": 0.10227272727272663,
                "tempo": 120.0
            },
            {
                "start_time": 54.53636363636363,
                "end_time": 54.65,
                "pitch": 58,
                "velocity": 80,
                "duration": 0.11363636363636687,
                "tempo": 120.0
            },
            {
                "start_time": 54.668181818181814,
                "end_time": 54.89772727272727,
                "pitch": 52,
                "velocity": 80,
                "duration": 0.22954545454545894,
                "tempo": 120.0
            },
            {
                "start_time": 54.913636363636364,
                "end_time": 55.01136363636363,
                "pitch": 52,
                "velocity": 80,
                "duration": 0.09772727272726911,
                "tempo": 120.0
            },
            {
                "start_time": 55.027272727272724,
                "end_time": 55.14772727272727,
                "pitch": 62,
                "velocity": 80,
                "duration": 0.12045454545454959,
                "tempo": 120.0
            },
            {
                "start_time": 55.163636363636364,
                "end_time": 55.26590909090909,
                "pitch": 52,
                "velocity": 80,
                "duration": 0.10227272727272663,
                "tempo": 120.0
            },
            {
                "start_time": 55.28409090909091,
                "end_time": 55.40454545454545,
                "pitch": 61,
                "velocity": 80,
                "duration": 0.12045454545454248,
                "tempo": 120.0
            },
            {
                "start_time": 55.42045454545454,
                "end_time": 55.52272727272727,
                "pitch": 52,
                "velocity": 80,
                "duration": 0.10227272727273373,
                "tempo": 120.0
            },
            {
                "start_time": 55.54090909090909,
                "end_time": 55.65454545454545,
                "pitch": 59,
                "velocity": 80,
                "duration": 0.11363636363635976,
                "tempo": 120.0
            },
            {
                "start_time": 55.67045454545454,
                "end_time": 55.77045454545454,
                "pitch": 52,
                "velocity": 80,
                "duration": 0.10000000000000142,
                "tempo": 120.0
            },
            {
                "start_time": 55.78636363636363,
                "end_time": 55.9,
                "pitch": 58,
                "velocity": 80,
                "duration": 0.11363636363636687,
                "tempo": 120.0
            },
            {
                "start_time": 55.918181818181814,
                "end_time": 56.01590909090909,
                "pitch": 52,
                "velocity": 80,
                "duration": 0.09772727272727622,
                "tempo": 120.0
            },
            {
                "start_time": 56.03181818181818,
                "end_time": 56.152272727272724,
                "pitch": 59,
                "velocity": 80,
                "duration": 0.12045454545454248,
                "tempo": 120.0
            },
            {
                "start_time": 56.168181818181814,
                "end_time": 56.40681818181818,
                "pitch": 52,
                "velocity": 80,
                "duration": 0.23863636363636687,
                "tempo": 120.0
            },
            {
                "start_time": 56.425,
                "end_time": 56.527272727272724,
                "pitch": 52,
                "velocity": 80,
                "duration": 0.10227272727272663,
                "tempo": 120.0
            },
            {
                "start_time": 56.54545454545454,
                "end_time": 56.65909090909091,
                "pitch": 58,
                "velocity": 80,
                "duration": 0.11363636363636687,
                "tempo": 120.0
            },
            {
                "start_time": 56.675,
                "end_time": 56.90454545454545,
                "pitch": 52,
                "velocity": 80,
                "duration": 0.22954545454545183,
                "tempo": 120.0
            },
            {
                "start_time": 56.92272727272727,
                "end_time": 57.02045454545454,
                "pitch": 52,
                "velocity": 80,
                "duration": 0.09772727272726911,
                "tempo": 120.0
            },
            {
                "start_time": 57.03636363636363,
                "end_time": 57.15454545454545,
                "pitch": 62,
                "velocity": 80,
                "duration": 0.11818181818181728,
                "tempo": 120.0
            },
            {
                "start_time": 57.17272727272727,
                "end_time": 57.275,
                "pitch": 52,
                "velocity": 80,
                "duration": 0.10227272727272663,
                "tempo": 120.0
            },
            {
                "start_time": 57.293181818181814,
                "end_time": 57.41136363636363,
                "pitch": 61,
                "velocity": 80,
                "duration": 0.11818181818181728,
                "tempo": 120.0
            },
            {
                "start_time": 57.429545454545455,
                "end_time": 57.53181818181818,
                "pitch": 52,
                "velocity": 80,
                "duration": 0.10227272727272663,
                "tempo": 120.0
            },
            {
                "start_time": 57.54772727272727,
                "end_time": 57.663636363636364,
                "pitch": 59,
                "velocity": 80,
                "duration": 0.11590909090909207,
                "tempo": 120.0
            },
            {
                "start_time": 57.679545454545455,
                "end_time": 57.777272727272724,
                "pitch": 52,
                "velocity": 80,
                "duration": 0.09772727272726911,
                "tempo": 120.0
            },
            {
                "start_time": 57.79545454545454,
                "end_time": 57.90909090909091,
                "pitch": 58,
                "velocity": 80,
                "duration": 0.11363636363636687,
                "tempo": 120.0
            },
            {
                "start_time": 57.925,
                "end_time": 58.025,
                "pitch": 52,
                "velocity": 80,
                "duration": 0.10000000000000142,
                "tempo": 120.0
            },
            {
                "start_time": 58.04090909090909,
                "end_time": 58.15909090909091,
                "pitch": 59,
                "velocity": 80,
                "duration": 0.11818181818181728,
                "tempo": 120.0
            },
            {
                "start_time": 58.17727272727272,
                "end_time": 58.41590909090909,
                "pitch": 52,
                "velocity": 80,
                "duration": 0.23863636363636687,
                "tempo": 120.0
            },
            {
                "start_time": 58.434090909090905,
                "end_time": 58.53636363636363,
                "pitch": 52,
                "velocity": 80,
                "duration": 0.10227272727272663,
                "tempo": 120.0
            },
            {
                "start_time": 58.55227272727272,
                "end_time": 58.668181818181814,
                "pitch": 58,
                "velocity": 80,
                "duration": 0.11590909090909207,
                "tempo": 120.0
            },
            {
                "start_time": 58.684090909090905,
                "end_time": 58.913636363636364,
                "pitch": 52,
                "velocity": 80,
                "duration": 0.22954545454545894,
                "tempo": 120.0
            },
            {
                "start_time": 58.929545454545455,
                "end_time": 59.02954545454545,
                "pitch": 52,
                "velocity": 80,
                "duration": 0.09999999999999432,
                "tempo": 120.0
            },
            {
                "start_time": 59.04545454545454,
                "end_time": 59.163636363636364,
                "pitch": 62,
                "velocity": 80,
                "duration": 0.11818181818182438,
                "tempo": 120.0
            },
            {
                "start_time": 59.18181818181818,
                "end_time": 59.28409090909091,
                "pitch": 52,
                "velocity": 80,
                "duration": 0.10227272727272663,
                "tempo": 120.0
            },
            {
                "start_time": 59.3,
                "end_time": 59.42045454545454,
                "pitch": 61,
                "velocity": 80,
                "duration": 0.12045454545454248,
                "tempo": 120.0
            },
            {
                "start_time": 59.43863636363636,
                "end_time": 59.54090909090909,
                "pitch": 52,
                "velocity": 80,
                "duration": 0.10227272727272663,
                "tempo": 120.0
            },
            {
                "start_time": 59.55681818181818,
                "end_time": 59.67272727272727,
                "pitch": 59,
                "velocity": 80,
                "duration": 0.11590909090909207,
                "tempo": 120.0
            },
            {
                "start_time": 59.68863636363636,
                "end_time": 59.78636363636363,
                "pitch": 52,
                "velocity": 80,
                "duration": 0.09772727272726911,
                "tempo": 120.0
            },
            {
                "start_time": 59.80227272727272,
                "end_time": 59.918181818181814,
                "pitch": 58,
                "velocity": 80,
                "duration": 0.11590909090909207,
                "tempo": 120.0
            },
            {
                "start_time": 59.934090909090905,
                "end_time": 60.03409090909091,
                "pitch": 52,
                "velocity": 80,
                "duration": 0.10000000000000142,
                "tempo": 120.0
            }
        ],
        "French Horn": [
            {
                "start_time": 8.256818181818181,
                "end_time": 8.345454545454546,
                "pitch": 64,
                "velocity": 51,
                "duration": 0.08863636363636473,
                "tempo": 120.0
            },
            {
                "start_time": 8.60909090909091,
                "end_time": 8.843181818181817,
                "pitch": 63,
                "velocity": 51,
                "duration": 0.23409090909090757,
                "tempo": 120.0
            },
            {
                "start_time": 9.252272727272727,
                "end_time": 9.354545454545454,
                "pitch": 64,
                "velocity": 51,
                "duration": 0.10227272727272663,
                "tempo": 120.0
            },
            {
                "start_time": 9.618181818181817,
                "end_time": 9.847727272727273,
                "pitch": 63,
                "velocity": 51,
                "duration": 0.22954545454545539,
                "tempo": 120.0
            },
            {
                "start_time": 10.256818181818181,
                "end_time": 10.35909090909091,
                "pitch": 64,
                "velocity": 51,
                "duration": 0.1022727272727284,
                "tempo": 120.0
            },
            {
                "start_time": 10.622727272727273,
                "end_time": 10.852272727272727,
                "pitch": 63,
                "velocity": 51,
                "duration": 0.2295454545454536,
                "tempo": 120.0
            },
            {
                "start_time": 11.261363636363637,
                "end_time": 11.363636363636363,
                "pitch": 64,
                "velocity": 51,
                "duration": 0.10227272727272663,
                "tempo": 120.0
            },
            {
                "start_time": 11.627272727272727,
                "end_time": 11.85681818181818,
                "pitch": 63,
                "velocity": 51,
                "duration": 0.2295454545454536,
                "tempo": 120.0
            },
            {
                "start_time": 12.26590909090909,
                "end_time": 12.368181818181817,
                "pitch": 67,
                "velocity": 51,
                "duration": 0.10227272727272663,
                "tempo": 120.0
            },
            {
                "start_time": 12.629545454545454,
                "end_time": 12.85909090909091,
                "pitch": 66,
                "velocity": 51,
                "duration": 0.22954545454545539,
                "tempo": 120.0
            },
            {
                "start_time": 13.268181818181818,
                "end_time": 13.370454545454544,
                "pitch": 67,
                "velocity": 51,
                "duration": 0.10227272727272663,
                "tempo": 120.0
            },
            {
                "start_time": 13.634090909090908,
                "end_time": 13.863636363636363,
                "pitch": 66,
                "velocity": 51,
                "duration": 0.22954545454545539,
                "tempo": 120.0
            },
            {
                "start_time": 14.272727272727272,
                "end_time": 14.375,
                "pitch": 67,
                "velocity": 51,
                "duration": 0.1022727272727284,
                "tempo": 120.0
            },
            {
                "start_time": 14.638636363636364,
                "end_time": 14.868181818181817,
                "pitch": 66,
                "velocity": 51,
                "duration": 0.2295454545454536,
                "tempo": 120.0
            },
            {
                "start_time": 15.277272727272727,
                "end_time": 15.379545454545454,
                "pitch": 67,
                "velocity": 51,
                "duration": 0.10227272727272663,
                "tempo": 120.0
            },
            {
                "start_time": 15.643181818181818,
                "end_time": 15.872727272727271,
                "pitch": 66,
                "velocity": 51,
                "duration": 0.2295454545454536,
                "tempo": 120.0
            },
            {
                "start_time": 16.28181818181818,
                "end_time": 16.384090909090908,
                "pitch": 64,
                "velocity": 51,
                "duration": 0.10227272727272663,
                "tempo": 120.0
            },
            {
                "start_time": 16.647727272727273,
                "end_time": 16.877272727272725,
                "pitch": 63,
                "velocity": 51,
                "duration": 0.22954545454545183,
                "tempo": 120.0
            },
            {
                "start_time": 17.286363636363635,
                "end_time": 17.388636363636362,
                "pitch": 64,
                "velocity": 51,
                "duration": 0.10227272727272663,
                "tempo": 120.0
            },
            {
                "start_time": 17.652272727272727,
                "end_time": 17.881818181818183,
                "pitch": 63,
                "velocity": 51,
                "duration": 0.22954545454545539,
                "tempo": 120.0
            },
            {
                "start_time": 18.29090909090909,
                "end_time": 18.393181818181816,
                "pitch": 64,
                "velocity": 51,
                "duration": 0.10227272727272663,
                "tempo": 120.0
            },
            {
                "start_time": 18.654545454545453,
                "end_time": 18.884090909090908,
                "pitch": 63,
                "velocity": 51,
                "duration": 0.22954545454545539,
                "tempo": 120.0
            },
            {
                "start_time": 19.293181818181818,
                "end_time": 19.397727272727273,
                "pitch": 64,
                "velocity": 51,
                "duration": 0.10454545454545539,
                "tempo": 120.0
            },
            {
                "start_time": 19.659090909090907,
                "end_time": 19.888636363636362,
                "pitch": 63,
                "velocity": 51,
                "duration": 0.22954545454545539,
                "tempo": 120.0
            },
            {
                "start_time": 20.297727272727272,
                "end_time": 20.4,
                "pitch": 67,
                "velocity": 51,
                "duration": 0.10227272727272663,
                "tempo": 120.0
            },
            {
                "start_time": 20.663636363636364,
                "end_time": 20.893181818181816,
                "pitch": 66,
                "velocity": 51,
                "duration": 0.22954545454545183,
                "tempo": 120.0
            },
            {
                "start_time": 21.302272727272726,
                "end_time": 21.404545454545453,
                "pitch": 67,
                "velocity": 51,
                "duration": 0.10227272727272663,
                "tempo": 120.0
            },
            {
                "start_time": 21.668181818181818,
                "end_time": 21.897727272727273,
                "pitch": 66,
                "velocity": 51,
                "duration": 0.22954545454545539,
                "tempo": 120.0
            },
            {
                "start_time": 22.30681818181818,
                "end_time": 22.409090909090907,
                "pitch": 67,
                "velocity": 51,
                "duration": 0.10227272727272663,
                "tempo": 120.0
            },
            {
                "start_time": 22.672727272727272,
                "end_time": 22.902272727272727,
                "pitch": 66,
                "velocity": 51,
                "duration": 0.22954545454545539,
                "tempo": 120.0
            },
            {
                "start_time": 23.311363636363634,
                "end_time": 23.413636363636364,
                "pitch": 67,
                "velocity": 51,
                "duration": 0.10227272727273018,
                "tempo": 120.0
            },
            {
                "start_time": 23.677272727272726,
                "end_time": 23.90681818181818,
                "pitch": 66,
                "velocity": 51,
                "duration": 0.22954545454545539,
                "tempo": 120.0
            },
            {
                "start_time": 27.924999999999997,
                "end_time": 28.163636363636364,
                "pitch": 52,
                "velocity": 51,
                "duration": 0.23863636363636687,
                "tempo": 120.0
            },
            {
                "start_time": 28.179545454545455,
                "end_time": 28.299999999999997,
                "pitch": 52,
                "velocity": 51,
                "duration": 0.12045454545454248,
                "tempo": 120.0
            },
            {
                "start_time": 28.318181818181817,
                "end_time": 28.420454545454543,
                "pitch": 52,
                "velocity": 51,
                "duration": 0.10227272727272663,
                "tempo": 120.0
            },
            {
                "start_time": 28.436363636363634,
                "end_time": 28.670454545454543,
                "pitch": 52,
                "velocity": 51,
                "duration": 0.23409090909090935,
                "tempo": 120.0
            },
            {
                "start_time": 28.686363636363634,
                "end_time": 28.920454545454543,
                "pitch": 50,
                "velocity": 51,
                "duration": 0.23409090909090935,
                "tempo": 120.0
            },
            {
                "start_time": 28.936363636363634,
                "end_time": 29.174999999999997,
                "pitch": 52,
                "velocity": 51,
                "duration": 0.2386363636363633,
                "tempo": 120.0
            },
            {
                "start_time": 29.193181818181817,
                "end_time": 29.313636363636363,
                "pitch": 52,
                "velocity": 51,
                "duration": 0.12045454545454604,
                "tempo": 120.0
            },
            {
                "start_time": 29.329545454545453,
                "end_time": 29.43181818181818,
                "pitch": 52,
                "velocity": 51,
                "duration": 0.10227272727272663,
                "tempo": 120.0
            },
            {
                "start_time": 29.45,
                "end_time": 29.679545454545455,
                "pitch": 52,
                "velocity": 51,
                "duration": 0.22954545454545539,
                "tempo": 120.0
            },
            {
                "start_time": 29.695454545454545,
                "end_time": 29.924999999999997,
                "pitch": 50,
                "velocity": 51,
                "duration": 0.22954545454545183,
                "tempo": 120.0
            },
            {
                "start_time": 29.940909090909088,
                "end_time": 30.174999999999997,
                "pitch": 52,
                "velocity": 51,
                "duration": 0.23409090909090935,
                "tempo": 120.0
            },
            {
                "start_time": 30.190909090909088,
                "end_time": 30.30909090909091,
                "pitch": 52,
                "velocity": 51,
                "duration": 0.11818181818182083,
                "tempo": 120.0
            },
            {
                "start_time": 30.325,
                "end_time": 30.424999999999997,
                "pitch": 52,
                "velocity": 51,
                "duration": 0.09999999999999787,
                "tempo": 120.0
            },
            {
                "start_time": 30.440909090909088,
                "end_time": 30.66590909090909,
                "pitch": 52,
                "velocity": 51,
                "duration": 0.22500000000000142,
                "tempo": 120.0
            },
            {
                "start_time": 30.68181818181818,
                "end_time": 30.909090909090907,
                "pitch": 50,
                "velocity": 51,
                "duration": 0.22727272727272663,
                "tempo": 120.0
            },
            {
                "start_time": 30.924999999999997,
                "end_time": 31.159090909090907,
                "pitch": 52,
                "velocity": 51,
                "duration": 0.23409090909090935,
                "tempo": 120.0
            },
            {
                "start_time": 31.174999999999997,
                "end_time": 31.29090909090909,
                "pitch": 52,
                "velocity": 51,
                "duration": 0.11590909090909207,
                "tempo": 120.0
            },
            {
                "start_time": 31.30909090909091,
                "end_time": 31.409090909090907,
                "pitch": 52,
                "velocity": 51,
                "duration": 0.09999999999999787,
                "tempo": 120.0
            },
            {
                "start_time": 31.424999999999997,
                "end_time": 31.66363636363636,
                "pitch": 52,
                "velocity": 51,
                "duration": 0.2386363636363633,
                "tempo": 120.0
            },
            {
                "start_time": 31.68181818181818,
                "end_time": 31.920454545454543,
                "pitch": 50,
                "velocity": 51,
                "duration": 0.2386363636363633,
                "tempo": 120.0
            },
            {
                "start_time": 31.938636363636363,
                "end_time": 32.17727272727272,
                "pitch": 52,
                "velocity": 51,
                "duration": 0.23863636363635976,
                "tempo": 120.0
            },
            {
                "start_time": 32.195454545454545,
                "end_time": 32.31363636363636,
                "pitch": 52,
                "velocity": 51,
                "duration": 0.11818181818181728,
                "tempo": 120.0
            },
            {
                "start_time": 32.33181818181818,
                "end_time": 32.434090909090905,
                "pitch": 52,
                "velocity": 51,
                "duration": 0.10227272727272663,
                "tempo": 120.0
            },
            {
                "start_time": 32.449999999999996,
                "end_time": 32.684090909090905,
                "pitch": 52,
                "velocity": 51,
                "duration": 0.23409090909090935,
                "tempo": 120.0
            },
            {
                "start_time": 32.699999999999996,
                "end_time": 32.934090909090905,
                "pitch": 50,
                "velocity": 51,
                "duration": 0.23409090909090935,
                "tempo": 120.0
            },
            {
                "start_time": 32.949999999999996,
                "end_time": 33.19090909090909,
                "pitch": 52,
                "velocity": 51,
                "duration": 0.24090909090909207,
                "tempo": 120.0
            },
            {
                "start_time": 33.20681818181818,
                "end_time": 33.32727272727273,
                "pitch": 52,
                "velocity": 51,
                "duration": 0.12045454545454959,
                "tempo": 120.0
            },
            {
                "start_time": 33.34318181818182,
                "end_time": 33.445454545454545,
                "pitch": 52,
                "velocity": 51,
                "duration": 0.10227272727272663,
                "tempo": 120.0
            },
            {
                "start_time": 33.46363636363636,
                "end_time": 33.69318181818181,
                "pitch": 52,
                "velocity": 51,
                "duration": 0.22954545454545183,
                "tempo": 120.0
            },
            {
                "start_time": 33.70909090909091,
                "end_time": 33.93863636363636,
                "pitch": 50,
                "velocity": 51,
                "duration": 0.22954545454545183,
                "tempo": 120.0
            },
            {
                "start_time": 33.95454545454545,
                "end_time": 34.18863636363636,
                "pitch": 52,
                "velocity": 51,
                "duration": 0.23409090909090935,
                "tempo": 120.0
            },
            {
                "start_time": 34.20454545454545,
                "end_time": 34.32272727272727,
                "pitch": 52,
                "velocity": 51,
                "duration": 0.11818181818181728,
                "tempo": 120.0
            },
            {
                "start_time": 34.33863636363636,
                "end_time": 34.43863636363636,
                "pitch": 52,
                "velocity": 51,
                "duration": 0.10000000000000142,
                "tempo": 120.0
            },
            {
                "start_time": 34.45454545454545,
                "end_time": 34.679545454545455,
                "pitch": 52,
                "velocity": 51,
                "duration": 0.22500000000000142,
                "tempo": 120.0
            },
            {
                "start_time": 34.695454545454545,
                "end_time": 34.918181818181814,
                "pitch": 50,
                "velocity": 51,
                "duration": 0.2227272727272691,
                "tempo": 120.0
            },
            {
                "start_time": 34.93636363636364,
                "end_time": 35.168181818181814,
                "pitch": 52,
                "velocity": 51,
                "duration": 0.23181818181817704,
                "tempo": 120.0
            },
            {
                "start_time": 35.18636363636364,
                "end_time": 35.30227272727272,
                "pitch": 52,
                "velocity": 51,
                "duration": 0.11590909090908497,
                "tempo": 120.0
            },
            {
                "start_time": 35.31818181818181,
                "end_time": 35.418181818181814,
                "pitch": 52,
                "velocity": 51,
                "duration": 0.10000000000000142,
                "tempo": 120.0
            },
            {
                "start_time": 35.43636363636364,
                "end_time": 35.675,
                "pitch": 52,
                "velocity": 51,
                "duration": 0.23863636363635976,
                "tempo": 120.0
            },
            {
                "start_time": 35.69318181818181,
                "end_time": 35.93181818181818,
                "pitch": 50,
                "velocity": 51,
                "duration": 0.23863636363636687,
                "tempo": 120.0
            },
            {
                "start_time": 35.94772727272727,
                "end_time": 36.18863636363636,
                "pitch": 52,
                "velocity": 51,
                "duration": 0.24090909090909207,
                "tempo": 120.0
            },
            {
                "start_time": 36.20454545454545,
                "end_time": 36.324999999999996,
                "pitch": 52,
                "velocity": 51,
                "duration": 0.12045454545454248,
                "tempo": 120.0
            },
            {
                "start_time": 36.340909090909086,
                "end_time": 36.44318181818181,
                "pitch": 52,
                "velocity": 51,
                "duration": 0.10227272727272663,
                "tempo": 120.0
            },
            {
                "start_time": 36.461363636363636,
                "end_time": 36.695454545454545,
                "pitch": 52,
                "velocity": 51,
                "duration": 0.23409090909090935,
                "tempo": 120.0
            },
            {
                "start_time": 36.711363636363636,
                "end_time": 36.945454545454545,
                "pitch": 50,
                "velocity": 51,
                "duration": 0.23409090909090935,
                "tempo": 120.0
            },
            {
                "start_time": 36.961363636363636,
                "end_time": 37.199999999999996,
                "pitch": 52,
                "velocity": 51,
                "duration": 0.23863636363635976,
                "tempo": 120.0
            },
            {
                "start_time": 37.21818181818182,
                "end_time": 37.336363636363636,
                "pitch": 52,
                "velocity": 51,
                "duration": 0.11818181818181728,
                "tempo": 120.0
            },
            {
                "start_time": 37.35454545454545,
                "end_time": 37.45681818181818,
                "pitch": 52,
                "velocity": 51,
                "duration": 0.10227272727272663,
                "tempo": 120.0
            },
            {
                "start_time": 37.47272727272727,
                "end_time": 37.70454545454545,
                "pitch": 52,
                "velocity": 51,
                "duration": 0.23181818181818414,
                "tempo": 120.0
            },
            {
                "start_time": 37.720454545454544,
                "end_time": 37.949999999999996,
                "pitch": 50,
                "velocity": 51,
                "duration": 0.22954545454545183,
                "tempo": 120.0
            },
            {
                "start_time": 37.965909090909086,
                "end_time": 38.199999999999996,
                "pitch": 52,
                "velocity": 51,
                "duration": 0.23409090909090935,
                "tempo": 120.0
            },
            {
                "start_time": 38.215909090909086,
                "end_time": 38.33181818181818,
                "pitch": 52,
                "velocity": 51,
                "duration": 0.11590909090909207,
                "tempo": 120.0
            },
            {
                "start_time": 38.35,
                "end_time": 38.449999999999996,
                "pitch": 52,
                "velocity": 51,
                "duration": 0.09999999999999432,
                "tempo": 120.0
            },
            {
                "start_time": 38.465909090909086,
                "end_time": 38.68863636363636,
                "pitch": 52,
                "velocity": 51,
                "duration": 0.22272727272727622,
                "tempo": 120.0
            },
            {
                "start_time": 38.70454545454545,
                "end_time": 38.929545454545455,
                "pitch": 50,
                "velocity": 51,
                "duration": 0.22500000000000142,
                "tempo": 120.0
            },
            {
                "start_time": 38.945454545454545,
                "end_time": 39.179545454545455,
                "pitch": 52,
                "velocity": 51,
                "duration": 0.23409090909090935,
                "tempo": 120.0
            },
            {
                "start_time": 39.195454545454545,
                "end_time": 39.31136363636364,
                "pitch": 52,
                "velocity": 51,
                "duration": 0.11590909090909207,
                "tempo": 120.0
            },
            {
                "start_time": 39.32954545454545,
                "end_time": 39.429545454545455,
                "pitch": 52,
                "velocity": 51,
                "duration": 0.10000000000000142,
                "tempo": 120.0
            },
            {
                "start_time": 39.445454545454545,
                "end_time": 39.68636363636364,
                "pitch": 52,
                "velocity": 51,
                "duration": 0.24090909090909207,
                "tempo": 120.0
            },
            {
                "start_time": 39.70227272727273,
                "end_time": 39.94090909090909,
                "pitch": 50,
                "velocity": 51,
                "duration": 0.23863636363635976,
                "tempo": 120.0
            },
            {
                "start_time": 39.959090909090904,
                "end_time": 40.19772727272727,
                "pitch": 52,
                "velocity": 51,
                "duration": 0.23863636363636687,
                "tempo": 120.0
            },
            {
                "start_time": 40.215909090909086,
                "end_time": 40.334090909090904,
                "pitch": 52,
                "velocity": 51,
                "duration": 0.11818181818181728,
                "tempo": 120.0
            },
            {
                "start_time": 40.35227272727273,
                "end_time": 40.45454545454545,
                "pitch": 52,
                "velocity": 51,
                "duration": 0.10227272727272663,
                "tempo": 120.0
            },
            {
                "start_time": 40.470454545454544,
                "end_time": 40.70454545454545,
                "pitch": 52,
                "velocity": 51,
                "duration": 0.23409090909090935,
                "tempo": 120.0
            },
            {
                "start_time": 40.720454545454544,
                "end_time": 40.95454545454545,
                "pitch": 50,
                "velocity": 51,
                "duration": 0.23409090909090935,
                "tempo": 120.0
            },
            {
                "start_time": 40.970454545454544,
                "end_time": 41.211363636363636,
                "pitch": 52,
                "velocity": 51,
                "duration": 0.24090909090909207,
                "tempo": 120.0
            },
            {
                "start_time": 41.22727272727273,
                "end_time": 41.34772727272727,
                "pitch": 52,
                "velocity": 51,
                "duration": 0.12045454545454248,
                "tempo": 120.0
            },
            {
                "start_time": 41.36363636363636,
                "end_time": 41.465909090909086,
                "pitch": 52,
                "velocity": 51,
                "duration": 0.10227272727272663,
                "tempo": 120.0
            },
            {
                "start_time": 41.48409090909091,
                "end_time": 41.71363636363636,
                "pitch": 52,
                "velocity": 51,
                "duration": 0.22954545454545183,
                "tempo": 120.0
            },
            {
                "start_time": 41.72954545454545,
                "end_time": 41.959090909090904,
                "pitch": 50,
                "velocity": 51,
                "duration": 0.22954545454545183,
                "tempo": 120.0
            },
            {
                "start_time": 41.975,
                "end_time": 42.20454545454545,
                "pitch": 52,
                "velocity": 51,
                "duration": 0.22954545454545183,
                "tempo": 120.0
            },
            {
                "start_time": 42.22272727272727,
                "end_time": 42.336363636363636,
                "pitch": 52,
                "velocity": 51,
                "duration": 0.11363636363636687,
                "tempo": 120.0
            },
            {
                "start_time": 42.35227272727273,
                "end_time": 42.45227272727273,
                "pitch": 52,
                "velocity": 51,
                "duration": 0.10000000000000142,
                "tempo": 120.0
            },
            {
                "start_time": 42.46818181818182,
                "end_time": 42.69772727272727,
                "pitch": 52,
                "velocity": 51,
                "duration": 0.22954545454545183,
                "tempo": 120.0
            },
            {
                "start_time": 42.71363636363636,
                "end_time": 42.94318181818181,
                "pitch": 50,
                "velocity": 51,
                "duration": 0.22954545454545183,
                "tempo": 120.0
            },
            {
                "start_time": 42.959090909090904,
                "end_time": 43.19318181818181,
                "pitch": 52,
                "velocity": 51,
                "duration": 0.23409090909090935,
                "tempo": 120.0
            },
            {
                "start_time": 43.209090909090904,
                "end_time": 43.32727272727273,
                "pitch": 52,
                "velocity": 51,
                "duration": 0.11818181818182438,
                "tempo": 120.0
            },
            {
                "start_time": 43.34318181818182,
                "end_time": 43.44318181818181,
                "pitch": 52,
                "velocity": 51,
                "duration": 0.09999999999999432,
                "tempo": 120.0
            },
            {
                "start_time": 43.459090909090904,
                "end_time": 43.699999999999996,
                "pitch": 52,
                "velocity": 51,
                "duration": 0.24090909090909207,
                "tempo": 120.0
            },
            {
                "start_time": 43.715909090909086,
                "end_time": 43.95681818181818,
                "pitch": 50,
                "velocity": 51,
                "duration": 0.24090909090909207,
                "tempo": 120.0
            },
            {
                "start_time": 44.36590909090909,
                "end_time": 44.46818181818182,
                "pitch": 64,
                "velocity": 51,
                "duration": 0.10227272727272663,
                "tempo": 120.0
            },
            {
                "start_time": 44.736363636363635,
                "end_time": 44.96818181818182,
                "pitch": 63,
                "velocity": 51,
                "duration": 0.23181818181818414,
                "tempo": 120.0
            },
            {
                "start_time": 45.37954545454545,
                "end_time": 45.48181818181818,
                "pitch": 64,
                "velocity": 51,
                "duration": 0.10227272727272663,
                "tempo": 120.0
            },
            {
                "start_time": 45.74318181818182,
                "end_time": 45.97272727272727,
                "pitch": 63,
                "velocity": 51,
                "duration": 0.22954545454545183,
                "tempo": 120.0
            },
            {
                "start_time": 46.38181818181818,
                "end_time": 46.486363636363635,
                "pitch": 64,
                "velocity": 51,
                "duration": 0.10454545454545183,
                "tempo": 120.0
            },
            {
                "start_time": 46.74772727272727,
                "end_time": 46.97727272727273,
                "pitch": 63,
                "velocity": 51,
                "duration": 0.22954545454545894,
                "tempo": 120.0
            },
            {
                "start_time": 47.38636363636363,
                "end_time": 47.48863636363636,
                "pitch": 64,
                "velocity": 51,
                "duration": 0.10227272727272663,
                "tempo": 120.0
            },
            {
                "start_time": 47.752272727272725,
                "end_time": 47.98181818181818,
                "pitch": 63,
                "velocity": 51,
                "duration": 0.22954545454545183,
                "tempo": 120.0
            },
            {
                "start_time": 48.39090909090909,
                "end_time": 48.49318181818182,
                "pitch": 67,
                "velocity": 51,
                "duration": 0.10227272727272663,
                "tempo": 120.0
            },
            {
                "start_time": 48.75681818181818,
                "end_time": 48.986363636363635,
                "pitch": 66,
                "velocity": 51,
                "duration": 0.22954545454545183,
                "tempo": 120.0
            },
            {
                "start_time": 49.39545454545454,
                "end_time": 49.49772727272727,
                "pitch": 67,
                "velocity": 51,
                "duration": 0.10227272727272663,
                "tempo": 120.0
            },
            {
                "start_time": 49.76136363636363,
                "end_time": 49.990909090909085,
                "pitch": 66,
                "velocity": 51,
                "duration": 0.22954545454545183,
                "tempo": 120.0
            },
            {
                "start_time": 50.4,
                "end_time": 50.502272727272725,
                "pitch": 67,
                "velocity": 51,
                "duration": 0.10227272727272663,
                "tempo": 120.0
            },
            {
                "start_time": 50.76590909090909,
                "end_time": 50.99545454545454,
                "pitch": 66,
                "velocity": 51,
                "duration": 0.22954545454545183,
                "tempo": 120.0
            },
            {
                "start_time": 51.40454545454545,
                "end_time": 51.50681818181818,
                "pitch": 67,
                "velocity": 51,
                "duration": 0.10227272727273373,
                "tempo": 120.0
            },
            {
                "start_time": 51.77045454545454,
                "end_time": 52.0,
                "pitch": 66,
                "velocity": 51,
                "duration": 0.22954545454545894,
                "tempo": 120.0
            },
            {
                "start_time": 52.40909090909091,
                "end_time": 52.51136363636363,
                "pitch": 64,
                "velocity": 51,
                "duration": 0.10227272727272663,
                "tempo": 120.0
            },
            {
                "start_time": 52.77272727272727,
                "end_time": 53.002272727272725,
                "pitch": 63,
                "velocity": 51,
                "duration": 0.22954545454545183,
                "tempo": 120.0
            },
            {
                "start_time": 53.41136363636363,
                "end_time": 53.51590909090909,
                "pitch": 64,
                "velocity": 51,
                "duration": 0.10454545454545894,
                "tempo": 120.0
            },
            {
                "start_time": 53.777272727272724,
                "end_time": 54.00681818181818,
                "pitch": 63,
                "velocity": 51,
                "duration": 0.22954545454545894,
                "tempo": 120.0
            },
            {
                "start_time": 54.41590909090909,
                "end_time": 54.518181818181816,
                "pitch": 64,
                "velocity": 51,
                "duration": 0.10227272727272663,
                "tempo": 120.0
            },
            {
                "start_time": 54.78181818181818,
                "end_time": 55.01136363636363,
                "pitch": 63,
                "velocity": 51,
                "duration": 0.22954545454545183,
                "tempo": 120.0
            },
            {
                "start_time": 55.42045454545454,
                "end_time": 55.52272727272727,
                "pitch": 64,
                "velocity": 51,
                "duration": 0.10227272727273373,
                "tempo": 120.0
            },
            {
                "start_time": 55.78636363636363,
                "end_time": 56.01590909090909,
                "pitch": 63,
                "velocity": 51,
                "duration": 0.22954545454545894,
                "tempo": 120.0
            },
            {
                "start_time": 56.425,
                "end_time": 56.527272727272724,
                "pitch": 67,
                "velocity": 51,
                "duration": 0.10227272727272663,
                "tempo": 120.0
            },
            {
                "start_time": 56.79090909090909,
                "end_time": 57.02045454545454,
                "pitch": 66,
                "velocity": 51,
                "duration": 0.22954545454545183,
                "tempo": 120.0
            },
            {
                "start_time": 57.429545454545455,
                "end_time": 57.53181818181818,
                "pitch": 67,
                "velocity": 51,
                "duration": 0.10227272727272663,
                "tempo": 120.0
            },
            {
                "start_time": 57.79545454545454,
                "end_time": 58.025,
                "pitch": 66,
                "velocity": 51,
                "duration": 0.22954545454545894,
                "tempo": 120.0
            },
            {
                "start_time": 58.434090909090905,
                "end_time": 58.53636363636363,
                "pitch": 67,
                "velocity": 51,
                "duration": 0.10227272727272663,
                "tempo": 120.0
            },
            {
                "start_time": 58.8,
                "end_time": 59.02954545454545,
                "pitch": 66,
                "velocity": 51,
                "duration": 0.22954545454545183,
                "tempo": 120.0
            },
            {
                "start_time": 59.43863636363636,
                "end_time": 59.54090909090909,
                "pitch": 67,
                "velocity": 51,
                "duration": 0.10227272727272663,
                "tempo": 120.0
            },
            {
                "start_time": 59.80227272727272,
                "end_time": 60.03409090909091,
                "pitch": 66,
                "velocity": 51,
                "duration": 0.23181818181818414,
                "tempo": 120.0
            }
        ],
        "Synth Bass 1": [
            {
                "start_time": 7.918181818181818,
                "end_time": 8.125,
                "pitch": 40,
                "velocity": 51,
                "duration": 0.206818181818182,
                "tempo": 120.0
            },
            {
                "start_time": 8.138636363636364,
                "end_time": 8.345454545454546,
                "pitch": 40,
                "velocity": 51,
                "duration": 0.206818181818182,
                "tempo": 120.0
            },
            {
                "start_time": 8.35909090909091,
                "end_time": 8.593181818181817,
                "pitch": 46,
                "velocity": 51,
                "duration": 0.23409090909090757,
                "tempo": 120.0
            },
            {
                "start_time": 8.60909090909091,
                "end_time": 8.843181818181817,
                "pitch": 46,
                "velocity": 51,
                "duration": 0.23409090909090757,
                "tempo": 120.0
            },
            {
                "start_time": 8.85909090909091,
                "end_time": 9.097727272727273,
                "pitch": 43,
                "velocity": 51,
                "duration": 0.2386363636363633,
                "tempo": 120.0
            },
            {
                "start_time": 9.11590909090909,
                "end_time": 9.354545454545454,
                "pitch": 43,
                "velocity": 51,
                "duration": 0.2386363636363633,
                "tempo": 120.0
            },
            {
                "start_time": 9.372727272727273,
                "end_time": 9.602272727272727,
                "pitch": 45,
                "velocity": 51,
                "duration": 0.2295454545454536,
                "tempo": 120.0
            },
            {
                "start_time": 9.618181818181817,
                "end_time": 9.847727272727273,
                "pitch": 43,
                "velocity": 51,
                "duration": 0.22954545454545539,
                "tempo": 120.0
            },
            {
                "start_time": 9.863636363636363,
                "end_time": 10.102272727272727,
                "pitch": 40,
                "velocity": 51,
                "duration": 0.2386363636363633,
                "tempo": 120.0
            },
            {
                "start_time": 10.120454545454544,
                "end_time": 10.35909090909091,
                "pitch": 40,
                "velocity": 51,
                "duration": 0.2386363636363651,
                "tempo": 120.0
            },
            {
                "start_time": 10.375,
                "end_time": 10.604545454545454,
                "pitch": 46,
                "velocity": 51,
                "duration": 0.2295454545454536,
                "tempo": 120.0
            },
            {
                "start_time": 10.622727272727273,
                "end_time": 10.852272727272727,
                "pitch": 46,
                "velocity": 51,
                "duration": 0.2295454545454536,
                "tempo": 120.0
            },
            {
                "start_time": 10.868181818181817,
                "end_time": 11.10681818181818,
                "pitch": 43,
                "velocity": 51,
                "duration": 0.2386363636363633,
                "tempo": 120.0
            },
            {
                "start_time": 11.122727272727273,
                "end_time": 11.363636363636363,
                "pitch": 43,
                "velocity": 51,
                "duration": 0.2409090909090903,
                "tempo": 120.0
            },
            {
                "start_time": 11.379545454545454,
                "end_time": 11.60909090909091,
                "pitch": 45,
                "velocity": 51,
                "duration": 0.22954545454545539,
                "tempo": 120.0
            },
            {
                "start_time": 11.627272727272727,
                "end_time": 11.85681818181818,
                "pitch": 43,
                "velocity": 51,
                "duration": 0.2295454545454536,
                "tempo": 120.0
            },
            {
                "start_time": 11.872727272727273,
                "end_time": 12.111363636363636,
                "pitch": 40,
                "velocity": 51,
                "duration": 0.2386363636363633,
                "tempo": 120.0
            },
            {
                "start_time": 12.127272727272727,
                "end_time": 12.368181818181817,
                "pitch": 40,
                "velocity": 51,
                "duration": 0.2409090909090903,
                "tempo": 120.0
            },
            {
                "start_time": 12.384090909090908,
                "end_time": 12.613636363636363,
                "pitch": 46,
                "velocity": 51,
                "duration": 0.22954545454545539,
                "tempo": 120.0
            },
            {
                "start_time": 12.629545454545454,
                "end_time": 12.85909090909091,
                "pitch": 46,
                "velocity": 51,
                "duration": 0.22954545454545539,
                "tempo": 120.0
            },
            {
                "start_time": 12.877272727272727,
                "end_time": 13.11590909090909,
                "pitch": 43,
                "velocity": 51,
                "duration": 0.2386363636363633,
                "tempo": 120.0
            },
            {
                "start_time": 13.131818181818181,
                "end_time": 13.370454545454544,
                "pitch": 43,
                "velocity": 51,
                "duration": 0.2386363636363633,
                "tempo": 120.0
            },
            {
                "start_time": 13.388636363636364,
                "end_time": 13.618181818181817,
                "pitch": 45,
                "velocity": 51,
                "duration": 0.2295454545454536,
                "tempo": 120.0
            },
            {
                "start_time": 13.634090909090908,
                "end_time": 13.863636363636363,
                "pitch": 43,
                "velocity": 51,
                "duration": 0.22954545454545539,
                "tempo": 120.0
            },
            {
                "start_time": 13.879545454545454,
                "end_time": 14.120454545454544,
                "pitch": 40,
                "velocity": 51,
                "duration": 0.2409090909090903,
                "tempo": 120.0
            },
            {
                "start_time": 14.136363636363635,
                "end_time": 14.375,
                "pitch": 40,
                "velocity": 51,
                "duration": 0.2386363636363651,
                "tempo": 120.0
            },
            {
                "start_time": 14.393181818181818,
                "end_time": 14.622727272727271,
                "pitch": 46,
                "velocity": 51,
                "duration": 0.2295454545454536,
                "tempo": 120.0
            },
            {
                "start_time": 14.638636363636364,
                "end_time": 14.868181818181817,
                "pitch": 46,
                "velocity": 51,
                "duration": 0.2295454545454536,
                "tempo": 120.0
            },
            {
                "start_time": 14.884090909090908,
                "end_time": 15.122727272727271,
                "pitch": 43,
                "velocity": 51,
                "duration": 0.2386363636363633,
                "tempo": 120.0
            },
            {
                "start_time": 15.14090909090909,
                "end_time": 15.379545454545454,
                "pitch": 43,
                "velocity": 51,
                "duration": 0.2386363636363633,
                "tempo": 120.0
            },
            {
                "start_time": 15.397727272727272,
                "end_time": 15.627272727272727,
                "pitch": 45,
                "velocity": 51,
                "duration": 0.22954545454545539,
                "tempo": 120.0
            },
            {
                "start_time": 15.643181818181818,
                "end_time": 15.872727272727271,
                "pitch": 43,
                "velocity": 51,
                "duration": 0.2295454545454536,
                "tempo": 120.0
            },
            {
                "start_time": 15.888636363636364,
                "end_time": 16.127272727272725,
                "pitch": 40,
                "velocity": 51,
                "duration": 0.23863636363636154,
                "tempo": 120.0
            },
            {
                "start_time": 16.145454545454545,
                "end_time": 16.384090909090908,
                "pitch": 40,
                "velocity": 51,
                "duration": 0.2386363636363633,
                "tempo": 120.0
            },
            {
                "start_time": 16.402272727272727,
                "end_time": 16.631818181818183,
                "pitch": 46,
                "velocity": 51,
                "duration": 0.22954545454545539,
                "tempo": 120.0
            },
            {
                "start_time": 16.647727272727273,
                "end_time": 16.877272727272725,
                "pitch": 46,
                "velocity": 51,
                "duration": 0.22954545454545183,
                "tempo": 120.0
            },
            {
                "start_time": 16.893181818181816,
                "end_time": 17.131818181818183,
                "pitch": 43,
                "velocity": 51,
                "duration": 0.23863636363636687,
                "tempo": 120.0
            },
            {
                "start_time": 17.15,
                "end_time": 17.388636363636362,
                "pitch": 43,
                "velocity": 51,
                "duration": 0.2386363636363633,
                "tempo": 120.0
            },
            {
                "start_time": 17.404545454545453,
                "end_time": 17.634090909090908,
                "pitch": 45,
                "velocity": 51,
                "duration": 0.22954545454545539,
                "tempo": 120.0
            },
            {
                "start_time": 17.652272727272727,
                "end_time": 17.881818181818183,
                "pitch": 43,
                "velocity": 51,
                "duration": 0.22954545454545539,
                "tempo": 120.0
            },
            {
                "start_time": 17.897727272727273,
                "end_time": 18.136363636363637,
                "pitch": 40,
                "velocity": 51,
                "duration": 0.2386363636363633,
                "tempo": 120.0
            },
            {
                "start_time": 18.152272727272727,
                "end_time": 18.393181818181816,
                "pitch": 40,
                "velocity": 51,
                "duration": 0.24090909090908852,
                "tempo": 120.0
            },
            {
                "start_time": 18.409090909090907,
                "end_time": 18.638636363636362,
                "pitch": 46,
                "velocity": 51,
                "duration": 0.22954545454545539,
                "tempo": 120.0
            },
            {
                "start_time": 18.654545454545453,
                "end_time": 18.884090909090908,
                "pitch": 46,
                "velocity": 51,
                "duration": 0.22954545454545539,
                "tempo": 120.0
            },
            {
                "start_time": 18.902272727272727,
                "end_time": 19.14090909090909,
                "pitch": 43,
                "velocity": 51,
                "duration": 0.2386363636363633,
                "tempo": 120.0
            },
            {
                "start_time": 19.15681818181818,
                "end_time": 19.397727272727273,
                "pitch": 43,
                "velocity": 51,
                "duration": 0.24090909090909207,
                "tempo": 120.0
            },
            {
                "start_time": 19.413636363636364,
                "end_time": 19.643181818181816,
                "pitch": 45,
                "velocity": 51,
                "duration": 0.22954545454545183,
                "tempo": 120.0
            },
            {
                "start_time": 19.659090909090907,
                "end_time": 19.888636363636362,
                "pitch": 43,
                "velocity": 51,
                "duration": 0.22954545454545539,
                "tempo": 120.0
            },
            {
                "start_time": 19.90681818181818,
                "end_time": 20.145454545454545,
                "pitch": 40,
                "velocity": 51,
                "duration": 0.2386363636363633,
                "tempo": 120.0
            },
            {
                "start_time": 20.161363636363635,
                "end_time": 20.4,
                "pitch": 40,
                "velocity": 51,
                "duration": 0.2386363636363633,
                "tempo": 120.0
            },
            {
                "start_time": 20.418181818181818,
                "end_time": 20.647727272727273,
                "pitch": 46,
                "velocity": 51,
                "duration": 0.22954545454545539,
                "tempo": 120.0
            },
            {
                "start_time": 20.663636363636364,
                "end_time": 20.893181818181816,
                "pitch": 46,
                "velocity": 51,
                "duration": 0.22954545454545183,
                "tempo": 120.0
            },
            {
                "start_time": 20.909090909090907,
                "end_time": 21.147727272727273,
                "pitch": 43,
                "velocity": 51,
                "duration": 0.23863636363636687,
                "tempo": 120.0
            },
            {
                "start_time": 21.16590909090909,
                "end_time": 21.404545454545453,
                "pitch": 43,
                "velocity": 51,
                "duration": 0.2386363636363633,
                "tempo": 120.0
            },
            {
                "start_time": 21.422727272727272,
                "end_time": 21.652272727272727,
                "pitch": 45,
                "velocity": 51,
                "duration": 0.22954545454545539,
                "tempo": 120.0
            },
            {
                "start_time": 21.668181818181818,
                "end_time": 21.897727272727273,
                "pitch": 43,
                "velocity": 51,
                "duration": 0.22954545454545539,
                "tempo": 120.0
            },
            {
                "start_time": 21.913636363636364,
                "end_time": 22.152272727272727,
                "pitch": 40,
                "velocity": 51,
                "duration": 0.2386363636363633,
                "tempo": 120.0
            },
            {
                "start_time": 22.170454545454543,
                "end_time": 22.409090909090907,
                "pitch": 40,
                "velocity": 51,
                "duration": 0.2386363636363633,
                "tempo": 120.0
            },
            {
                "start_time": 22.427272727272726,
                "end_time": 22.65681818181818,
                "pitch": 46,
                "velocity": 51,
                "duration": 0.22954545454545539,
                "tempo": 120.0
            },
            {
                "start_time": 22.672727272727272,
                "end_time": 22.902272727272727,
                "pitch": 46,
                "velocity": 51,
                "duration": 0.22954545454545539,
                "tempo": 120.0
            },
            {
                "start_time": 22.918181818181818,
                "end_time": 23.15681818181818,
                "pitch": 43,
                "velocity": 51,
                "duration": 0.2386363636363633,
                "tempo": 120.0
            },
            {
                "start_time": 23.174999999999997,
                "end_time": 23.413636363636364,
                "pitch": 43,
                "velocity": 51,
                "duration": 0.23863636363636687,
                "tempo": 120.0
            },
            {
                "start_time": 23.43181818181818,
                "end_time": 23.661363636363635,
                "pitch": 45,
                "velocity": 51,
                "duration": 0.22954545454545539,
                "tempo": 120.0
            },
            {
                "start_time": 23.677272727272726,
                "end_time": 23.90681818181818,
                "pitch": 43,
                "velocity": 51,
                "duration": 0.22954545454545539,
                "tempo": 120.0
            },
            {
                "start_time": 23.922727272727272,
                "end_time": 27.90681818181818,
                "pitch": 40,
                "velocity": 51,
                "duration": 3.9840909090909093,
                "tempo": 120.0
            },
            {
                "start_time": 27.924999999999997,
                "end_time": 28.163636363636364,
                "pitch": 40,
                "velocity": 80,
                "duration": 0.23863636363636687,
                "tempo": 120.0
            },
            {
                "start_time": 28.179545454545455,
                "end_time": 28.420454545454543,
                "pitch": 40,
                "velocity": 51,
                "duration": 0.24090909090908852,
                "tempo": 120.0
            },
            {
                "start_time": 28.436363636363634,
                "end_time": 28.670454545454543,
                "pitch": 46,
                "velocity": 51,
                "duration": 0.23409090909090935,
                "tempo": 120.0
            },
            {
                "start_time": 28.686363636363634,
                "end_time": 28.920454545454543,
                "pitch": 46,
                "velocity": 51,
                "duration": 0.23409090909090935,
                "tempo": 120.0
            },
            {
                "start_time": 28.936363636363634,
                "end_time": 29.174999999999997,
                "pitch": 43,
                "velocity": 51,
                "duration": 0.2386363636363633,
                "tempo": 120.0
            },
            {
                "start_time": 29.193181818181817,
                "end_time": 29.43181818181818,
                "pitch": 43,
                "velocity": 51,
                "duration": 0.2386363636363633,
                "tempo": 120.0
            },
            {
                "start_time": 29.45,
                "end_time": 29.679545454545455,
                "pitch": 45,
                "velocity": 51,
                "duration": 0.22954545454545539,
                "tempo": 120.0
            },
            {
                "start_time": 29.695454545454545,
                "end_time": 29.924999999999997,
                "pitch": 43,
                "velocity": 51,
                "duration": 0.22954545454545183,
                "tempo": 120.0
            },
            {
                "start_time": 29.940909090909088,
                "end_time": 29.974999999999998,
                "pitch": 82,
                "velocity": 51,
                "duration": 0.03409090909091006,
                "tempo": 120.0
            },
            {
                "start_time": 29.99090909090909,
                "end_time": 31.920454545454543,
                "pitch": 83,
                "velocity": 51,
                "duration": 1.9295454545454547,
                "tempo": 120.0
            },
            {
                "start_time": 31.938636363636363,
                "end_time": 32.17727272727272,
                "pitch": 40,
                "velocity": 51,
                "duration": 0.23863636363635976,
                "tempo": 120.0
            },
            {
                "start_time": 32.195454545454545,
                "end_time": 32.434090909090905,
                "pitch": 40,
                "velocity": 51,
                "duration": 0.23863636363635976,
                "tempo": 120.0
            },
            {
                "start_time": 32.449999999999996,
                "end_time": 32.684090909090905,
                "pitch": 46,
                "velocity": 51,
                "duration": 0.23409090909090935,
                "tempo": 120.0
            },
            {
                "start_time": 32.699999999999996,
                "end_time": 32.934090909090905,
                "pitch": 46,
                "velocity": 51,
                "duration": 0.23409090909090935,
                "tempo": 120.0
            },
            {
                "start_time": 32.949999999999996,
                "end_time": 33.19090909090909,
                "pitch": 43,
                "velocity": 51,
                "duration": 0.24090909090909207,
                "tempo": 120.0
            },
            {
                "start_time": 33.20681818181818,
                "end_time": 33.445454545454545,
                "pitch": 43,
                "velocity": 51,
                "duration": 0.23863636363636687,
                "tempo": 120.0
            },
            {
                "start_time": 33.46363636363636,
                "end_time": 33.69318181818181,
                "pitch": 45,
                "velocity": 51,
                "duration": 0.22954545454545183,
                "tempo": 120.0
            },
            {
                "start_time": 33.70909090909091,
                "end_time": 33.93863636363636,
                "pitch": 43,
                "velocity": 51,
                "duration": 0.22954545454545183,
                "tempo": 120.0
            },
            {
                "start_time": 33.95454545454545,
                "end_time": 33.98863636363636,
                "pitch": 85,
                "velocity": 51,
                "duration": 0.03409090909090651,
                "tempo": 120.0
            },
            {
                "start_time": 34.00454545454545,
                "end_time": 35.93181818181818,
                "pitch": 86,
                "velocity": 51,
                "duration": 1.9272727272727295,
                "tempo": 120.0
            },
            {
                "start_time": 35.94772727272727,
                "end_time": 36.18863636363636,
                "pitch": 40,
                "velocity": 51,
                "duration": 0.24090909090909207,
                "tempo": 120.0
            },
            {
                "start_time": 36.20454545454545,
                "end_time": 36.44318181818181,
                "pitch": 40,
                "velocity": 51,
                "duration": 0.23863636363635976,
                "tempo": 120.0
            },
            {
                "start_time": 36.461363636363636,
                "end_time": 36.695454545454545,
                "pitch": 46,
                "velocity": 51,
                "duration": 0.23409090909090935,
                "tempo": 120.0
            },
            {
                "start_time": 36.711363636363636,
                "end_time": 36.945454545454545,
                "pitch": 46,
                "velocity": 51,
                "duration": 0.23409090909090935,
                "tempo": 120.0
            },
            {
                "start_time": 36.961363636363636,
                "end_time": 37.199999999999996,
                "pitch": 43,
                "velocity": 51,
                "duration": 0.23863636363635976,
                "tempo": 120.0
            },
            {
                "start_time": 37.21818181818182,
                "end_time": 37.45681818181818,
                "pitch": 43,
                "velocity": 51,
                "duration": 0.23863636363635976,
                "tempo": 120.0
            },
            {
                "start_time": 37.47272727272727,
                "end_time": 37.70454545454545,
                "pitch": 45,
                "velocity": 51,
                "duration": 0.23181818181818414,
                "tempo": 120.0
            },
            {
                "start_time": 37.720454545454544,
                "end_time": 37.949999999999996,
                "pitch": 43,
                "velocity": 51,
                "duration": 0.22954545454545183,
                "tempo": 120.0
            },
            {
                "start_time": 39.959090909090904,
                "end_time": 40.19772727272727,
                "pitch": 40,
                "velocity": 51,
                "duration": 0.23863636363636687,
                "tempo": 120.0
            },
            {
                "start_time": 40.215909090909086,
                "end_time": 40.45454545454545,
                "pitch": 40,
                "velocity": 51,
                "duration": 0.23863636363636687,
                "tempo": 120.0
            },
            {
                "start_time": 40.470454545454544,
                "end_time": 40.70454545454545,
                "pitch": 46,
                "velocity": 51,
                "duration": 0.23409090909090935,
                "tempo": 120.0
            },
            {
                "start_time": 40.720454545454544,
                "end_time": 40.95454545454545,
                "pitch": 46,
                "velocity": 51,
                "duration": 0.23409090909090935,
                "tempo": 120.0
            },
            {
                "start_time": 40.970454545454544,
                "end_time": 41.211363636363636,
                "pitch": 43,
                "velocity": 51,
                "duration": 0.24090909090909207,
                "tempo": 120.0
            },
            {
                "start_time": 41.22727272727273,
                "end_time": 41.465909090909086,
                "pitch": 43,
                "velocity": 51,
                "duration": 0.23863636363635976,
                "tempo": 120.0
            },
            {
                "start_time": 41.48409090909091,
                "end_time": 41.71363636363636,
                "pitch": 45,
                "velocity": 51,
                "duration": 0.22954545454545183,
                "tempo": 120.0
            },
            {
                "start_time": 41.72954545454545,
                "end_time": 41.959090909090904,
                "pitch": 43,
                "velocity": 51,
                "duration": 0.22954545454545183,
                "tempo": 120.0
            },
            {
                "start_time": 43.97272727272727,
                "end_time": 44.211363636363636,
                "pitch": 40,
                "velocity": 51,
                "duration": 0.23863636363636687,
                "tempo": 120.0
            },
            {
                "start_time": 44.22954545454545,
                "end_time": 44.46818181818182,
                "pitch": 40,
                "velocity": 51,
                "duration": 0.23863636363636687,
                "tempo": 120.0
            },
            {
                "start_time": 44.486363636363635,
                "end_time": 44.71818181818182,
                "pitch": 46,
                "velocity": 51,
                "duration": 0.23181818181818414,
                "tempo": 120.0
            },
            {
                "start_time": 44.736363636363635,
                "end_time": 44.96818181818182,
                "pitch": 46,
                "velocity": 51,
                "duration": 0.23181818181818414,
                "tempo": 120.0
            },
            {
                "start_time": 44.986363636363635,
                "end_time": 45.224999999999994,
                "pitch": 43,
                "velocity": 51,
                "duration": 0.23863636363635976,
                "tempo": 120.0
            },
            {
                "start_time": 45.24090909090909,
                "end_time": 45.48181818181818,
                "pitch": 43,
                "velocity": 51,
                "duration": 0.24090909090908497,
                "tempo": 120.0
            },
            {
                "start_time": 45.49772727272727,
                "end_time": 45.72727272727273,
                "pitch": 45,
                "velocity": 51,
                "duration": 0.22954545454545894,
                "tempo": 120.0
            },
            {
                "start_time": 45.74318181818182,
                "end_time": 45.97272727272727,
                "pitch": 43,
                "velocity": 51,
                "duration": 0.22954545454545183,
                "tempo": 120.0
            },
            {
                "start_time": 45.99090909090909,
                "end_time": 46.22954545454545,
                "pitch": 40,
                "velocity": 51,
                "duration": 0.23863636363635976,
                "tempo": 120.0
            },
            {
                "start_time": 46.24545454545454,
                "end_time": 46.486363636363635,
                "pitch": 40,
                "velocity": 51,
                "duration": 0.24090909090909207,
                "tempo": 120.0
            },
            {
                "start_time": 46.502272727272725,
                "end_time": 46.73181818181818,
                "pitch": 46,
                "velocity": 51,
                "duration": 0.22954545454545183,
                "tempo": 120.0
            },
            {
                "start_time": 46.74772727272727,
                "end_time": 46.97727272727273,
                "pitch": 46,
                "velocity": 51,
                "duration": 0.22954545454545894,
                "tempo": 120.0
            },
            {
                "start_time": 46.99545454545454,
                "end_time": 47.23409090909091,
                "pitch": 43,
                "velocity": 51,
                "duration": 0.23863636363636687,
                "tempo": 120.0
            },
            {
                "start_time": 47.25,
                "end_time": 47.48863636363636,
                "pitch": 43,
                "velocity": 51,
                "duration": 0.23863636363635976,
                "tempo": 120.0
            },
            {
                "start_time": 47.50681818181818,
                "end_time": 47.736363636363635,
                "pitch": 45,
                "velocity": 51,
                "duration": 0.22954545454545183,
                "tempo": 120.0
            },
            {
                "start_time": 47.752272727272725,
                "end_time": 47.98181818181818,
                "pitch": 43,
                "velocity": 51,
                "duration": 0.22954545454545183,
                "tempo": 120.0
            },
            {
                "start_time": 47.99772727272727,
                "end_time": 48.236363636363635,
                "pitch": 40,
                "velocity": 51,
                "duration": 0.23863636363636687,
                "tempo": 120.0
            },
            {
                "start_time": 48.25454545454545,
                "end_time": 48.49318181818182,
                "pitch": 40,
                "velocity": 51,
                "duration": 0.23863636363636687,
                "tempo": 120.0
            },
            {
                "start_time": 48.51136363636363,
                "end_time": 48.74090909090909,
                "pitch": 46,
                "velocity": 51,
                "duration": 0.22954545454545894,
                "tempo": 120.0
            },
            {
                "start_time": 48.75681818181818,
                "end_time": 48.986363636363635,
                "pitch": 46,
                "velocity": 51,
                "duration": 0.22954545454545183,
                "tempo": 120.0
            },
            {
                "start_time": 49.002272727272725,
                "end_time": 49.240909090909085,
                "pitch": 43,
                "velocity": 51,
                "duration": 0.23863636363635976,
                "tempo": 120.0
            },
            {
                "start_time": 49.25909090909091,
                "end_time": 49.49772727272727,
                "pitch": 43,
                "velocity": 51,
                "duration": 0.23863636363635976,
                "tempo": 120.0
            },
            {
                "start_time": 49.51590909090909,
                "end_time": 49.74545454545454,
                "pitch": 45,
                "velocity": 51,
                "duration": 0.22954545454545183,
                "tempo": 120.0
            },
            {
                "start_time": 49.76136363636363,
                "end_time": 49.990909090909085,
                "pitch": 43,
                "velocity": 51,
                "duration": 0.22954545454545183,
                "tempo": 120.0
            },
            {
                "start_time": 50.00681818181818,
                "end_time": 50.24545454545454,
                "pitch": 40,
                "velocity": 51,
                "duration": 0.23863636363635976,
                "tempo": 120.0
            },
            {
                "start_time": 50.26363636363636,
                "end_time": 50.502272727272725,
                "pitch": 40,
                "velocity": 51,
                "duration": 0.23863636363636687,
                "tempo": 120.0
            },
            {
                "start_time": 50.52045454545454,
                "end_time": 50.75,
                "pitch": 46,
                "velocity": 51,
                "duration": 0.22954545454545894,
                "tempo": 120.0
            },
            {
                "start_time": 50.76590909090909,
                "end_time": 50.99545454545454,
                "pitch": 46,
                "velocity": 51,
                "duration": 0.22954545454545183,
                "tempo": 120.0
            },
            {
                "start_time": 51.01136363636363,
                "end_time": 51.25,
                "pitch": 43,
                "velocity": 51,
                "duration": 0.23863636363636687,
                "tempo": 120.0
            },
            {
                "start_time": 51.268181818181816,
                "end_time": 51.50681818181818,
                "pitch": 43,
                "velocity": 51,
                "duration": 0.23863636363636687,
                "tempo": 120.0
            },
            {
                "start_time": 51.52272727272727,
                "end_time": 51.752272727272725,
                "pitch": 45,
                "velocity": 51,
                "duration": 0.22954545454545183,
                "tempo": 120.0
            },
            {
                "start_time": 51.77045454545454,
                "end_time": 52.0,
                "pitch": 43,
                "velocity": 51,
                "duration": 0.22954545454545894,
                "tempo": 120.0
            },
            {
                "start_time": 52.01590909090909,
                "end_time": 52.25454545454545,
                "pitch": 40,
                "velocity": 51,
                "duration": 0.23863636363635976,
                "tempo": 120.0
            },
            {
                "start_time": 52.27045454545454,
                "end_time": 52.51136363636363,
                "pitch": 40,
                "velocity": 51,
                "duration": 0.24090909090909207,
                "tempo": 120.0
            },
            {
                "start_time": 52.527272727272724,
                "end_time": 52.75681818181818,
                "pitch": 46,
                "velocity": 51,
                "duration": 0.22954545454545894,
                "tempo": 120.0
            },
            {
                "start_time": 52.77272727272727,
                "end_time": 53.002272727272725,
                "pitch": 46,
                "velocity": 51,
                "duration": 0.22954545454545183,
                "tempo": 120.0
            },
            {
                "start_time": 53.02045454545454,
                "end_time": 53.25909090909091,
                "pitch": 43,
                "velocity": 51,
                "duration": 0.23863636363636687,
                "tempo": 120.0
            },
            {
                "start_time": 53.275,
                "end_time": 53.51590909090909,
                "pitch": 43,
                "velocity": 51,
                "duration": 0.24090909090909207,
                "tempo": 120.0
            },
            {
                "start_time": 53.53181818181818,
                "end_time": 53.76136363636363,
                "pitch": 45,
                "velocity": 51,
                "duration": 0.22954545454545183,
                "tempo": 120.0
            },
            {
                "start_time": 53.777272727272724,
                "end_time": 54.00681818181818,
                "pitch": 43,
                "velocity": 51,
                "duration": 0.22954545454545894,
                "tempo": 120.0
            },
            {
                "start_time": 54.02272727272727,
                "end_time": 54.26363636363636,
                "pitch": 40,
                "velocity": 51,
                "duration": 0.24090909090908497,
                "tempo": 120.0
            },
            {
                "start_time": 54.27954545454545,
                "end_time": 54.518181818181816,
                "pitch": 40,
                "velocity": 51,
                "duration": 0.23863636363636687,
                "tempo": 120.0
            },
            {
                "start_time": 54.53636363636363,
                "end_time": 54.76590909090909,
                "pitch": 46,
                "velocity": 51,
                "duration": 0.22954545454545894,
                "tempo": 120.0
            },
            {
                "start_time": 54.78181818181818,
                "end_time": 55.01136363636363,
                "pitch": 46,
                "velocity": 51,
                "duration": 0.22954545454545183,
                "tempo": 120.0
            },
            {
                "start_time": 55.027272727272724,
                "end_time": 55.26590909090909,
                "pitch": 43,
                "velocity": 51,
                "duration": 0.23863636363636687,
                "tempo": 120.0
            },
            {
                "start_time": 55.28409090909091,
                "end_time": 55.52272727272727,
                "pitch": 43,
                "velocity": 51,
                "duration": 0.23863636363636687,
                "tempo": 120.0
            },
            {
                "start_time": 55.54090909090909,
                "end_time": 55.77045454545454,
                "pitch": 45,
                "velocity": 51,
                "duration": 0.22954545454545183,
                "tempo": 120.0
            },
            {
                "start_time": 55.78636363636363,
                "end_time": 56.01590909090909,
                "pitch": 43,
                "velocity": 51,
                "duration": 0.22954545454545894,
                "tempo": 120.0
            },
            {
                "start_time": 56.03181818181818,
                "end_time": 56.27045454545454,
                "pitch": 40,
                "velocity": 51,
                "duration": 0.23863636363635976,
                "tempo": 120.0
            },
            {
                "start_time": 56.288636363636364,
                "end_time": 56.527272727272724,
                "pitch": 40,
                "velocity": 51,
                "duration": 0.23863636363635976,
                "tempo": 120.0
            },
            {
                "start_time": 56.54545454545454,
                "end_time": 56.775,
                "pitch": 46,
                "velocity": 51,
                "duration": 0.22954545454545894,
                "tempo": 120.0
            },
            {
                "start_time": 56.79090909090909,
                "end_time": 57.02045454545454,
                "pitch": 46,
                "velocity": 51,
                "duration": 0.22954545454545183,
                "tempo": 120.0
            },
            {
                "start_time": 57.03636363636363,
                "end_time": 57.275,
                "pitch": 43,
                "velocity": 51,
                "duration": 0.23863636363636687,
                "tempo": 120.0
            },
            {
                "start_time": 57.293181818181814,
                "end_time": 57.53181818181818,
                "pitch": 43,
                "velocity": 51,
                "duration": 0.23863636363636687,
                "tempo": 120.0
            },
            {
                "start_time": 57.54772727272727,
                "end_time": 57.777272727272724,
                "pitch": 45,
                "velocity": 51,
                "duration": 0.22954545454545183,
                "tempo": 120.0
            },
            {
                "start_time": 57.79545454545454,
                "end_time": 58.025,
                "pitch": 43,
                "velocity": 51,
                "duration": 0.22954545454545894,
                "tempo": 120.0
            },
            {
                "start_time": 58.04090909090909,
                "end_time": 58.27954545454545,
                "pitch": 40,
                "velocity": 51,
                "duration": 0.23863636363635976,
                "tempo": 120.0
            },
            {
                "start_time": 58.29545454545454,
                "end_time": 58.53636363636363,
                "pitch": 40,
                "velocity": 51,
                "duration": 0.24090909090909207,
                "tempo": 120.0
            },
            {
                "start_time": 58.55227272727272,
                "end_time": 58.78181818181818,
                "pitch": 46,
                "velocity": 51,
                "duration": 0.22954545454545894,
                "tempo": 120.0
            },
            {
                "start_time": 58.8,
                "end_time": 59.02954545454545,
                "pitch": 46,
                "velocity": 51,
                "duration": 0.22954545454545183,
                "tempo": 120.0
            },
            {
                "start_time": 59.04545454545454,
                "end_time": 59.28409090909091,
                "pitch": 43,
                "velocity": 51,
                "duration": 0.23863636363636687,
                "tempo": 120.0
            },
            {
                "start_time": 59.3,
                "end_time": 59.54090909090909,
                "pitch": 43,
                "velocity": 51,
                "duration": 0.24090909090909207,
                "tempo": 120.0
            },
            {
                "start_time": 59.55681818181818,
                "end_time": 59.78636363636363,
                "pitch": 45,
                "velocity": 51,
                "duration": 0.22954545454545183,
                "tempo": 120.0
            },
            {
                "start_time": 59.80227272727272,
                "end_time": 60.03409090909091,
                "pitch": 43,
                "velocity": 51,
                "duration": 0.23181818181818414,
                "tempo": 120.0
            }
        ]
    }
}