{
    "track_id": "Dynamite Dux (FM) - 07 - Achacha the Great",
    "mood": "angry",
    "instruments": {
        "Acoustic Bass": [
            {
                "start_time": 4.806818181818182,
                "end_time": 4.890909090909091,
                "pitch": 36,
                "velocity": 64,
                "duration": 0.084090909090909,
                "tempo": 120.0
            },
            {
                "start_time": 4.906818181818181,
                "end_time": 4.99090909090909,
                "pitch": 36,
                "velocity": 64,
                "duration": 0.084090909090909,
                "tempo": 120.0
            },
            {
                "start_time": 5.006818181818182,
                "end_time": 5.090909090909091,
                "pitch": 36,
                "velocity": 64,
                "duration": 0.084090909090909,
                "tempo": 120.0
            },
            {
                "start_time": 5.1068181818181815,
                "end_time": 5.1909090909090905,
                "pitch": 36,
                "velocity": 64,
                "duration": 0.084090909090909,
                "tempo": 120.0
            },
            {
                "start_time": 5.206818181818181,
                "end_time": 5.290909090909091,
                "pitch": 38,
                "velocity": 64,
                "duration": 0.08409090909090988,
                "tempo": 120.0
            },
            {
                "start_time": 5.306818181818182,
                "end_time": 5.390909090909091,
                "pitch": 39,
                "velocity": 64,
                "duration": 0.084090909090909,
                "tempo": 120.0
            },
            {
                "start_time": 5.406818181818181,
                "end_time": 5.493181818181818,
                "pitch": 36,
                "velocity": 64,
                "duration": 0.08636363636363686,
                "tempo": 120.0
            },
            {
                "start_time": 5.511363636363636,
                "end_time": 5.597727272727273,
                "pitch": 36,
                "velocity": 64,
                "duration": 0.08636363636363686,
                "tempo": 120.0
            },
            {
                "start_time": 5.61590909090909,
                "end_time": 5.702272727272727,
                "pitch": 36,
                "velocity": 64,
                "duration": 0.08636363636363686,
                "tempo": 120.0
            },
            {
                "start_time": 5.718181818181818,
                "end_time": 5.8,
                "pitch": 36,
                "velocity": 64,
                "duration": 0.08181818181818201,
                "tempo": 120.0
            },
            {
                "start_time": 5.8159090909090905,
                "end_time": 5.8954545454545455,
                "pitch": 38,
                "velocity": 64,
                "duration": 0.07954545454545503,
                "tempo": 120.0
            },
            {
                "start_time": 5.913636363636363,
                "end_time": 5.993181818181818,
                "pitch": 39,
                "velocity": 64,
                "duration": 0.07954545454545503,
                "tempo": 120.0
            },
            {
                "start_time": 6.009090909090909,
                "end_time": 6.095454545454545,
                "pitch": 36,
                "velocity": 64,
                "duration": 0.08636363636363598,
                "tempo": 120.0
            },
            {
                "start_time": 6.113636363636363,
                "end_time": 6.199999999999999,
                "pitch": 36,
                "velocity": 64,
                "duration": 0.08636363636363598,
                "tempo": 120.0
            },
            {
                "start_time": 6.215909090909091,
                "end_time": 6.302272727272727,
                "pitch": 36,
                "velocity": 64,
                "duration": 0.08636363636363598,
                "tempo": 120.0
            },
            {
                "start_time": 6.320454545454545,
                "end_time": 6.3999999999999995,
                "pitch": 36,
                "velocity": 64,
                "duration": 0.07954545454545414,
                "tempo": 120.0
            },
            {
                "start_time": 6.418181818181818,
                "end_time": 6.497727272727272,
                "pitch": 38,
                "velocity": 64,
                "duration": 0.07954545454545414,
                "tempo": 120.0
            },
            {
                "start_time": 6.513636363636364,
                "end_time": 6.595454545454545,
                "pitch": 39,
                "velocity": 64,
                "duration": 0.08181818181818112,
                "tempo": 120.0
            },
            {
                "start_time": 6.611363636363636,
                "end_time": 6.695454545454545,
                "pitch": 43,
                "velocity": 64,
                "duration": 0.084090909090909,
                "tempo": 120.0
            },
            {
                "start_time": 6.711363636363636,
                "end_time": 6.795454545454545,
                "pitch": 41,
                "velocity": 64,
                "duration": 0.084090909090909,
                "tempo": 120.0
            },
            {
                "start_time": 6.811363636363636,
                "end_time": 6.8954545454545455,
                "pitch": 39,
                "velocity": 64,
                "duration": 0.08409090909090988,
                "tempo": 120.0
            },
            {
                "start_time": 6.911363636363636,
                "end_time": 6.995454545454545,
                "pitch": 41,
                "velocity": 64,
                "duration": 0.084090909090909,
                "tempo": 120.0
            },
            {
                "start_time": 7.011363636363636,
                "end_time": 7.095454545454545,
                "pitch": 39,
                "velocity": 64,
                "duration": 0.084090909090909,
                "tempo": 120.0
            },
            {
                "start_time": 7.111363636363636,
                "end_time": 7.195454545454545,
                "pitch": 38,
                "velocity": 64,
                "duration": 0.084090909090909,
                "tempo": 120.0
            },
            {
                "start_time": 7.213636363636363,
                "end_time": 7.295454545454545,
                "pitch": 36,
                "velocity": 64,
                "duration": 0.08181818181818201,
                "tempo": 120.0
            },
            {
                "start_time": 7.3136363636363635,
                "end_time": 7.3954545454545455,
                "pitch": 36,
                "velocity": 64,
                "duration": 0.08181818181818201,
                "tempo": 120.0
            },
            {
                "start_time": 7.413636363636363,
                "end_time": 7.495454545454545,
                "pitch": 36,
                "velocity": 64,
                "duration": 0.08181818181818201,
                "tempo": 120.0
            },
            {
                "start_time": 7.513636363636364,
                "end_time": 7.595454545454545,
                "pitch": 36,
                "velocity": 64,
                "duration": 0.08181818181818112,
                "tempo": 120.0
            },
            {
                "start_time": 7.613636363636363,
                "end_time": 7.695454545454545,
                "pitch": 38,
                "velocity": 64,
                "duration": 0.08181818181818201,
                "tempo": 120.0
            },
            {
                "start_time": 7.713636363636363,
                "end_time": 7.795454545454545,
                "pitch": 39,
                "velocity": 64,
                "duration": 0.08181818181818201,
                "tempo": 120.0
            },
            {
                "start_time": 7.8136363636363635,
                "end_time": 7.8977272727272725,
                "pitch": 36,
                "velocity": 64,
                "duration": 0.084090909090909,
                "tempo": 120.0
            },
            {
                "start_time": 7.91590909090909,
                "end_time": 8.002272727272727,
                "pitch": 36,
                "velocity": 64,
                "duration": 0.08636363636363686,
                "tempo": 120.0
            },
            {
                "start_time": 8.020454545454545,
                "end_time": 8.10681818181818,
                "pitch": 36,
                "velocity": 64,
                "duration": 0.08636363636363598,
                "tempo": 120.0
            },
            {
                "start_time": 8.122727272727273,
                "end_time": 8.204545454545455,
                "pitch": 36,
                "velocity": 64,
                "duration": 0.08181818181818201,
                "tempo": 120.0
            },
            {
                "start_time": 8.220454545454546,
                "end_time": 8.302272727272728,
                "pitch": 38,
                "velocity": 64,
                "duration": 0.08181818181818201,
                "tempo": 120.0
            },
            {
                "start_time": 8.318181818181818,
                "end_time": 8.397727272727272,
                "pitch": 39,
                "velocity": 64,
                "duration": 0.07954545454545325,
                "tempo": 120.0
            },
            {
                "start_time": 8.413636363636364,
                "end_time": 8.5,
                "pitch": 36,
                "velocity": 64,
                "duration": 0.08636363636363598,
                "tempo": 120.0
            },
            {
                "start_time": 8.518181818181818,
                "end_time": 8.604545454545454,
                "pitch": 36,
                "velocity": 64,
                "duration": 0.08636363636363598,
                "tempo": 120.0
            },
            {
                "start_time": 8.620454545454544,
                "end_time": 8.706818181818182,
                "pitch": 36,
                "velocity": 64,
                "duration": 0.08636363636363775,
                "tempo": 120.0
            },
            {
                "start_time": 8.725,
                "end_time": 8.804545454545455,
                "pitch": 36,
                "velocity": 64,
                "duration": 0.07954545454545503,
                "tempo": 120.0
            },
            {
                "start_time": 8.822727272727272,
                "end_time": 8.902272727272727,
                "pitch": 38,
                "velocity": 64,
                "duration": 0.07954545454545503,
                "tempo": 120.0
            },
            {
                "start_time": 8.918181818181818,
                "end_time": 9.0,
                "pitch": 39,
                "velocity": 64,
                "duration": 0.08181818181818201,
                "tempo": 120.0
            },
            {
                "start_time": 9.01590909090909,
                "end_time": 9.1,
                "pitch": 43,
                "velocity": 64,
                "duration": 0.084090909090909,
                "tempo": 120.0
            },
            {
                "start_time": 9.11590909090909,
                "end_time": 9.2,
                "pitch": 41,
                "velocity": 64,
                "duration": 0.084090909090909,
                "tempo": 120.0
            },
            {
                "start_time": 9.21590909090909,
                "end_time": 9.299999999999999,
                "pitch": 39,
                "velocity": 64,
                "duration": 0.084090909090909,
                "tempo": 120.0
            },
            {
                "start_time": 9.318181818181818,
                "end_time": 9.402272727272727,
                "pitch": 41,
                "velocity": 64,
                "duration": 0.084090909090909,
                "tempo": 120.0
            },
            {
                "start_time": 9.418181818181818,
                "end_time": 9.502272727272727,
                "pitch": 39,
                "velocity": 64,
                "duration": 0.084090909090909,
                "tempo": 120.0
            },
            {
                "start_time": 9.518181818181818,
                "end_time": 9.602272727272727,
                "pitch": 38,
                "velocity": 64,
                "duration": 0.084090909090909,
                "tempo": 120.0
            },
            {
                "start_time": 14.534090909090908,
                "end_time": 14.618181818181817,
                "pitch": 68,
                "velocity": 64,
                "duration": 0.084090909090909,
                "tempo": 120.0
            },
            {
                "start_time": 14.634090909090908,
                "end_time": 14.718181818181817,
                "pitch": 68,
                "velocity": 64,
                "duration": 0.084090909090909,
                "tempo": 120.0
            },
            {
                "start_time": 14.734090909090908,
                "end_time": 14.818181818181818,
                "pitch": 68,
                "velocity": 64,
                "duration": 0.08409090909091077,
                "tempo": 120.0
            },
            {
                "start_time": 14.834090909090909,
                "end_time": 14.918181818181818,
                "pitch": 70,
                "velocity": 64,
                "duration": 0.084090909090909,
                "tempo": 120.0
            },
            {
                "start_time": 14.934090909090909,
                "end_time": 15.018181818181818,
                "pitch": 72,
                "velocity": 64,
                "duration": 0.084090909090909,
                "tempo": 120.0
            },
            {
                "start_time": 15.034090909090908,
                "end_time": 15.120454545454544,
                "pitch": 68,
                "velocity": 64,
                "duration": 0.08636363636363598,
                "tempo": 120.0
            },
            {
                "start_time": 15.138636363636364,
                "end_time": 15.225,
                "pitch": 68,
                "velocity": 64,
                "duration": 0.08636363636363598,
                "tempo": 120.0
            },
            {
                "start_time": 15.24090909090909,
                "end_time": 15.327272727272726,
                "pitch": 68,
                "velocity": 64,
                "duration": 0.08636363636363598,
                "tempo": 120.0
            },
            {
                "start_time": 15.345454545454544,
                "end_time": 15.427272727272726,
                "pitch": 68,
                "velocity": 64,
                "duration": 0.08181818181818201,
                "tempo": 120.0
            },
            {
                "start_time": 15.443181818181817,
                "end_time": 15.522727272727272,
                "pitch": 70,
                "velocity": 64,
                "duration": 0.07954545454545503,
                "tempo": 120.0
            },
            {
                "start_time": 15.538636363636362,
                "end_time": 15.620454545454544,
                "pitch": 72,
                "velocity": 64,
                "duration": 0.08181818181818201,
                "tempo": 120.0
            },
            {
                "start_time": 15.636363636363635,
                "end_time": 15.720454545454544,
                "pitch": 68,
                "velocity": 64,
                "duration": 0.084090909090909,
                "tempo": 120.0
            },
            {
                "start_time": 15.736363636363636,
                "end_time": 15.820454545454545,
                "pitch": 68,
                "velocity": 64,
                "duration": 0.084090909090909,
                "tempo": 120.0
            },
            {
                "start_time": 15.836363636363636,
                "end_time": 15.920454545454545,
                "pitch": 68,
                "velocity": 64,
                "duration": 0.084090909090909,
                "tempo": 120.0
            },
            {
                "start_time": 15.936363636363636,
                "end_time": 16.020454545454545,
                "pitch": 68,
                "velocity": 64,
                "duration": 0.084090909090909,
                "tempo": 120.0
            },
            {
                "start_time": 16.036363636363635,
                "end_time": 16.120454545454546,
                "pitch": 70,
                "velocity": 64,
                "duration": 0.08409090909091077,
                "tempo": 120.0
            },
            {
                "start_time": 16.138636363636362,
                "end_time": 16.220454545454544,
                "pitch": 72,
                "velocity": 64,
                "duration": 0.08181818181818201,
                "tempo": 120.0
            },
            {
                "start_time": 16.238636363636363,
                "end_time": 16.320454545454545,
                "pitch": 75,
                "velocity": 64,
                "duration": 0.08181818181818201,
                "tempo": 120.0
            },
            {
                "start_time": 16.33863636363636,
                "end_time": 16.420454545454543,
                "pitch": 73,
                "velocity": 64,
                "duration": 0.08181818181818201,
                "tempo": 120.0
            },
            {
                "start_time": 16.438636363636363,
                "end_time": 16.520454545454545,
                "pitch": 72,
                "velocity": 64,
                "duration": 0.08181818181818201,
                "tempo": 120.0
            },
            {
                "start_time": 16.538636363636364,
                "end_time": 16.625,
                "pitch": 73,
                "velocity": 64,
                "duration": 0.08636363636363598,
                "tempo": 120.0
            },
            {
                "start_time": 16.64090909090909,
                "end_time": 16.727272727272727,
                "pitch": 72,
                "velocity": 64,
                "duration": 0.08636363636363598,
                "tempo": 120.0
            },
            {
                "start_time": 16.745454545454546,
                "end_time": 16.831818181818182,
                "pitch": 70,
                "velocity": 64,
                "duration": 0.08636363636363598,
                "tempo": 120.0
            },
            {
                "start_time": 16.945454545454545,
                "end_time": 17.027272727272727,
                "pitch": 68,
                "velocity": 64,
                "duration": 0.08181818181818201,
                "tempo": 120.0
            },
            {
                "start_time": 17.043181818181818,
                "end_time": 17.12272727272727,
                "pitch": 68,
                "velocity": 64,
                "duration": 0.07954545454545325,
                "tempo": 120.0
            },
            {
                "start_time": 17.14090909090909,
                "end_time": 17.222727272727273,
                "pitch": 68,
                "velocity": 64,
                "duration": 0.08181818181818201,
                "tempo": 120.0
            },
            {
                "start_time": 17.24090909090909,
                "end_time": 17.325,
                "pitch": 70,
                "velocity": 64,
                "duration": 0.08409090909091077,
                "tempo": 120.0
            },
            {
                "start_time": 17.34090909090909,
                "end_time": 17.425,
                "pitch": 72,
                "velocity": 64,
                "duration": 0.08409090909091077,
                "tempo": 120.0
            },
            {
                "start_time": 17.44090909090909,
                "end_time": 17.527272727272727,
                "pitch": 68,
                "velocity": 64,
                "duration": 0.08636363636363598,
                "tempo": 120.0
            },
            {
                "start_time": 17.545454545454543,
                "end_time": 17.631818181818183,
                "pitch": 68,
                "velocity": 64,
                "duration": 0.08636363636363953,
                "tempo": 120.0
            },
            {
                "start_time": 17.647727272727273,
                "end_time": 17.73409090909091,
                "pitch": 68,
                "velocity": 64,
                "duration": 0.08636363636363598,
                "tempo": 120.0
            },
            {
                "start_time": 17.752272727272725,
                "end_time": 17.831818181818182,
                "pitch": 68,
                "velocity": 64,
                "duration": 0.0795454545454568,
                "tempo": 120.0
            },
            {
                "start_time": 17.849999999999998,
                "end_time": 17.929545454545455,
                "pitch": 70,
                "velocity": 64,
                "duration": 0.0795454545454568,
                "tempo": 120.0
            },
            {
                "start_time": 17.945454545454545,
                "end_time": 18.027272727272727,
                "pitch": 72,
                "velocity": 64,
                "duration": 0.08181818181818201,
                "tempo": 120.0
            },
            {
                "start_time": 18.043181818181818,
                "end_time": 18.127272727272725,
                "pitch": 68,
                "velocity": 64,
                "duration": 0.08409090909090722,
                "tempo": 120.0
            },
            {
                "start_time": 18.143181818181816,
                "end_time": 18.227272727272727,
                "pitch": 68,
                "velocity": 64,
                "duration": 0.08409090909091077,
                "tempo": 120.0
            },
            {
                "start_time": 18.243181818181817,
                "end_time": 18.327272727272728,
                "pitch": 68,
                "velocity": 64,
                "duration": 0.08409090909091077,
                "tempo": 120.0
            },
            {
                "start_time": 18.345454545454544,
                "end_time": 18.427272727272726,
                "pitch": 68,
                "velocity": 64,
                "duration": 0.08181818181818201,
                "tempo": 120.0
            },
            {
                "start_time": 18.445454545454545,
                "end_time": 18.529545454545453,
                "pitch": 70,
                "velocity": 64,
                "duration": 0.08409090909090722,
                "tempo": 120.0
            },
            {
                "start_time": 18.545454545454543,
                "end_time": 18.629545454545454,
                "pitch": 72,
                "velocity": 64,
                "duration": 0.08409090909091077,
                "tempo": 120.0
            },
            {
                "start_time": 18.645454545454545,
                "end_time": 18.729545454545455,
                "pitch": 75,
                "velocity": 64,
                "duration": 0.08409090909091077,
                "tempo": 120.0
            },
            {
                "start_time": 18.74772727272727,
                "end_time": 18.829545454545453,
                "pitch": 73,
                "velocity": 64,
                "duration": 0.08181818181818201,
                "tempo": 120.0
            },
            {
                "start_time": 18.847727272727273,
                "end_time": 18.93181818181818,
                "pitch": 72,
                "velocity": 64,
                "duration": 0.08409090909090722,
                "tempo": 120.0
            },
            {
                "start_time": 18.94772727272727,
                "end_time": 19.034090909090907,
                "pitch": 73,
                "velocity": 64,
                "duration": 0.08636363636363598,
                "tempo": 120.0
            },
            {
                "start_time": 19.05,
                "end_time": 19.136363636363637,
                "pitch": 72,
                "velocity": 64,
                "duration": 0.08636363636363598,
                "tempo": 120.0
            },
            {
                "start_time": 19.154545454545453,
                "end_time": 19.24090909090909,
                "pitch": 70,
                "velocity": 64,
                "duration": 0.08636363636363598,
                "tempo": 120.0
            }
        ],
        "Electric Guitar (clean)": [
            {
                "start_time": 0.03636363636363636,
                "end_time": 0.08636363636363636,
                "pitch": 55,
                "velocity": 51,
                "duration": 0.05,
                "tempo": 120.0
            },
            {
                "start_time": 0.10227272727272727,
                "end_time": 0.18636363636363634,
                "pitch": 55,
                "velocity": 51,
                "duration": 0.08409090909090908,
                "tempo": 120.0
            },
            {
                "start_time": 0.20454545454545453,
                "end_time": 0.28863636363636364,
                "pitch": 55,
                "velocity": 51,
                "duration": 0.0840909090909091,
                "tempo": 120.0
            },
            {
                "start_time": 0.3045454545454545,
                "end_time": 0.38636363636363635,
                "pitch": 55,
                "velocity": 51,
                "duration": 0.08181818181818185,
                "tempo": 120.0
            },
            {
                "start_time": 0.4022727272727272,
                "end_time": 0.4818181818181818,
                "pitch": 57,
                "velocity": 51,
                "duration": 0.07954545454545459,
                "tempo": 120.0
            },
            {
                "start_time": 0.4977272727272727,
                "end_time": 0.5795454545454545,
                "pitch": 58,
                "velocity": 51,
                "duration": 0.08181818181818179,
                "tempo": 120.0
            },
            {
                "start_time": 0.5954545454545455,
                "end_time": 0.6818181818181818,
                "pitch": 55,
                "velocity": 51,
                "duration": 0.08636363636363631,
                "tempo": 120.0
            },
            {
                "start_time": 0.6977272727272726,
                "end_time": 0.7840909090909091,
                "pitch": 55,
                "velocity": 51,
                "duration": 0.08636363636363642,
                "tempo": 120.0
            },
            {
                "start_time": 0.8022727272727272,
                "end_time": 0.8886363636363636,
                "pitch": 55,
                "velocity": 51,
                "duration": 0.08636363636363631,
                "tempo": 120.0
            },
            {
                "start_time": 0.9068181818181817,
                "end_time": 0.9863636363636363,
                "pitch": 55,
                "velocity": 51,
                "duration": 0.07954545454545459,
                "tempo": 120.0
            },
            {
                "start_time": 1.0022727272727272,
                "end_time": 1.084090909090909,
                "pitch": 57,
                "velocity": 51,
                "duration": 0.08181818181818179,
                "tempo": 120.0
            },
            {
                "start_time": 1.0999999999999999,
                "end_time": 1.1818181818181817,
                "pitch": 58,
                "velocity": 51,
                "duration": 0.08181818181818179,
                "tempo": 120.0
            },
            {
                "start_time": 1.1977272727272728,
                "end_time": 1.2818181818181817,
                "pitch": 55,
                "velocity": 51,
                "duration": 0.084090909090909,
                "tempo": 120.0
            },
            {
                "start_time": 1.3,
                "end_time": 1.3863636363636362,
                "pitch": 55,
                "velocity": 51,
                "duration": 0.0863636363636362,
                "tempo": 120.0
            },
            {
                "start_time": 1.4045454545454545,
                "end_time": 1.4909090909090907,
                "pitch": 55,
                "velocity": 51,
                "duration": 0.0863636363636362,
                "tempo": 120.0
            },
            {
                "start_time": 1.5068181818181818,
                "end_time": 1.5886363636363636,
                "pitch": 55,
                "velocity": 51,
                "duration": 0.08181818181818179,
                "tempo": 120.0
            },
            {
                "start_time": 1.6045454545454545,
                "end_time": 1.6863636363636363,
                "pitch": 57,
                "velocity": 51,
                "duration": 0.08181818181818179,
                "tempo": 120.0
            },
            {
                "start_time": 1.7022727272727272,
                "end_time": 1.7818181818181817,
                "pitch": 58,
                "velocity": 51,
                "duration": 0.07954545454545459,
                "tempo": 120.0
            },
            {
                "start_time": 1.7977272727272726,
                "end_time": 1.8818181818181818,
                "pitch": 62,
                "velocity": 51,
                "duration": 0.08409090909090922,
                "tempo": 120.0
            },
            {
                "start_time": 1.9,
                "end_time": 1.9818181818181817,
                "pitch": 60,
                "velocity": 51,
                "duration": 0.08181818181818179,
                "tempo": 120.0
            },
            {
                "start_time": 2.0,
                "end_time": 2.084090909090909,
                "pitch": 58,
                "velocity": 51,
                "duration": 0.084090909090909,
                "tempo": 120.0
            },
            {
                "start_time": 2.1,
                "end_time": 2.184090909090909,
                "pitch": 60,
                "velocity": 51,
                "duration": 0.084090909090909,
                "tempo": 120.0
            },
            {
                "start_time": 2.1999999999999997,
                "end_time": 2.284090909090909,
                "pitch": 58,
                "velocity": 51,
                "duration": 0.08409090909090944,
                "tempo": 120.0
            },
            {
                "start_time": 2.3,
                "end_time": 2.384090909090909,
                "pitch": 57,
                "velocity": 51,
                "duration": 0.084090909090909,
                "tempo": 120.0
            },
            {
                "start_time": 2.4022727272727273,
                "end_time": 2.484090909090909,
                "pitch": 55,
                "velocity": 51,
                "duration": 0.08181818181818157,
                "tempo": 120.0
            },
            {
                "start_time": 2.502272727272727,
                "end_time": 2.584090909090909,
                "pitch": 55,
                "velocity": 51,
                "duration": 0.08181818181818201,
                "tempo": 120.0
            },
            {
                "start_time": 2.602272727272727,
                "end_time": 2.684090909090909,
                "pitch": 55,
                "velocity": 51,
                "duration": 0.08181818181818201,
                "tempo": 120.0
            },
            {
                "start_time": 2.702272727272727,
                "end_time": 2.786363636363636,
                "pitch": 55,
                "velocity": 51,
                "duration": 0.084090909090909,
                "tempo": 120.0
            },
            {
                "start_time": 2.8022727272727272,
                "end_time": 2.8863636363636362,
                "pitch": 57,
                "velocity": 51,
                "duration": 0.084090909090909,
                "tempo": 120.0
            },
            {
                "start_time": 2.9022727272727273,
                "end_time": 2.9863636363636363,
                "pitch": 58,
                "velocity": 51,
                "duration": 0.084090909090909,
                "tempo": 120.0
            },
            {
                "start_time": 3.002272727272727,
                "end_time": 3.0886363636363634,
                "pitch": 55,
                "velocity": 51,
                "duration": 0.08636363636363642,
                "tempo": 120.0
            },
            {
                "start_time": 3.1068181818181815,
                "end_time": 3.193181818181818,
                "pitch": 55,
                "velocity": 51,
                "duration": 0.08636363636363642,
                "tempo": 120.0
            },
            {
                "start_time": 3.209090909090909,
                "end_time": 3.2954545454545454,
                "pitch": 55,
                "velocity": 51,
                "duration": 0.08636363636363642,
                "tempo": 120.0
            },
            {
                "start_time": 3.3136363636363635,
                "end_time": 3.3954545454545455,
                "pitch": 55,
                "velocity": 51,
                "duration": 0.08181818181818201,
                "tempo": 120.0
            },
            {
                "start_time": 3.411363636363636,
                "end_time": 3.4909090909090907,
                "pitch": 57,
                "velocity": 51,
                "duration": 0.07954545454545459,
                "tempo": 120.0
            },
            {
                "start_time": 3.506818181818182,
                "end_time": 3.5886363636363634,
                "pitch": 58,
                "velocity": 51,
                "duration": 0.08181818181818157,
                "tempo": 120.0
            },
            {
                "start_time": 3.6045454545454545,
                "end_time": 3.690909090909091,
                "pitch": 55,
                "velocity": 51,
                "duration": 0.08636363636363642,
                "tempo": 120.0
            },
            {
                "start_time": 3.7068181818181816,
                "end_time": 3.793181818181818,
                "pitch": 55,
                "velocity": 51,
                "duration": 0.08636363636363642,
                "tempo": 120.0
            },
            {
                "start_time": 3.811363636363636,
                "end_time": 3.8977272727272725,
                "pitch": 55,
                "velocity": 51,
                "duration": 0.08636363636363642,
                "tempo": 120.0
            },
            {
                "start_time": 3.9159090909090906,
                "end_time": 3.995454545454545,
                "pitch": 55,
                "velocity": 51,
                "duration": 0.07954545454545459,
                "tempo": 120.0
            },
            {
                "start_time": 4.011363636363636,
                "end_time": 4.093181818181818,
                "pitch": 57,
                "velocity": 51,
                "duration": 0.08181818181818201,
                "tempo": 120.0
            },
            {
                "start_time": 4.1090909090909085,
                "end_time": 4.1909090909090905,
                "pitch": 58,
                "velocity": 51,
                "duration": 0.08181818181818201,
                "tempo": 120.0
            },
            {
                "start_time": 4.206818181818182,
                "end_time": 4.290909090909091,
                "pitch": 62,
                "velocity": 51,
                "duration": 0.084090909090909,
                "tempo": 120.0
            },
            {
                "start_time": 4.306818181818182,
                "end_time": 4.390909090909091,
                "pitch": 60,
                "velocity": 51,
                "duration": 0.084090909090909,
                "tempo": 120.0
            },
            {
                "start_time": 4.406818181818181,
                "end_time": 4.49090909090909,
                "pitch": 58,
                "velocity": 51,
                "duration": 0.084090909090909,
                "tempo": 120.0
            },
            {
                "start_time": 4.506818181818182,
                "end_time": 4.590909090909091,
                "pitch": 60,
                "velocity": 51,
                "duration": 0.084090909090909,
                "tempo": 120.0
            },
            {
                "start_time": 4.6068181818181815,
                "end_time": 4.6909090909090905,
                "pitch": 58,
                "velocity": 51,
                "duration": 0.084090909090909,
                "tempo": 120.0
            },
            {
                "start_time": 4.706818181818182,
                "end_time": 4.790909090909091,
                "pitch": 57,
                "velocity": 51,
                "duration": 0.084090909090909,
                "tempo": 120.0
            },
            {
                "start_time": 4.806818181818182,
                "end_time": 4.890909090909091,
                "pitch": 55,
                "velocity": 51,
                "duration": 0.084090909090909,
                "tempo": 120.0
            },
            {
                "start_time": 4.906818181818181,
                "end_time": 4.99090909090909,
                "pitch": 55,
                "velocity": 51,
                "duration": 0.084090909090909,
                "tempo": 120.0
            },
            {
                "start_time": 5.006818181818182,
                "end_time": 5.090909090909091,
                "pitch": 55,
                "velocity": 51,
                "duration": 0.084090909090909,
                "tempo": 120.0
            },
            {
                "start_time": 5.1068181818181815,
                "end_time": 5.1909090909090905,
                "pitch": 55,
                "velocity": 51,
                "duration": 0.084090909090909,
                "tempo": 120.0
            },
            {
                "start_time": 5.206818181818181,
                "end_time": 5.290909090909091,
                "pitch": 57,
                "velocity": 51,
                "duration": 0.08409090909090988,
                "tempo": 120.0
            },
            {
                "start_time": 5.306818181818182,
                "end_time": 5.390909090909091,
                "pitch": 58,
                "velocity": 51,
                "duration": 0.084090909090909,
                "tempo": 120.0
            },
            {
                "start_time": 5.406818181818181,
                "end_time": 5.493181818181818,
                "pitch": 55,
                "velocity": 51,
                "duration": 0.08636363636363686,
                "tempo": 120.0
            },
            {
                "start_time": 5.511363636363636,
                "end_time": 5.597727272727273,
                "pitch": 55,
                "velocity": 51,
                "duration": 0.08636363636363686,
                "tempo": 120.0
            },
            {
                "start_time": 5.61590909090909,
                "end_time": 5.702272727272727,
                "pitch": 55,
                "velocity": 51,
                "duration": 0.08636363636363686,
                "tempo": 120.0
            },
            {
                "start_time": 5.718181818181818,
                "end_time": 5.8,
                "pitch": 55,
                "velocity": 51,
                "duration": 0.08181818181818201,
                "tempo": 120.0
            },
            {
                "start_time": 5.8159090909090905,
                "end_time": 5.8954545454545455,
                "pitch": 57,
                "velocity": 51,
                "duration": 0.07954545454545503,
                "tempo": 120.0
            },
            {
                "start_time": 5.913636363636363,
                "end_time": 5.993181818181818,
                "pitch": 58,
                "velocity": 51,
                "duration": 0.07954545454545503,
                "tempo": 120.0
            },
            {
                "start_time": 6.009090909090909,
                "end_time": 6.095454545454545,
                "pitch": 55,
                "velocity": 51,
                "duration": 0.08636363636363598,
                "tempo": 120.0
            },
            {
                "start_time": 6.113636363636363,
                "end_time": 6.199999999999999,
                "pitch": 55,
                "velocity": 51,
                "duration": 0.08636363636363598,
                "tempo": 120.0
            },
            {
                "start_time": 6.215909090909091,
                "end_time": 6.302272727272727,
                "pitch": 55,
                "velocity": 51,
                "duration": 0.08636363636363598,
                "tempo": 120.0
            },
            {
                "start_time": 6.320454545454545,
                "end_time": 6.3999999999999995,
                "pitch": 55,
                "velocity": 51,
                "duration": 0.07954545454545414,
                "tempo": 120.0
            },
            {
                "start_time": 6.418181818181818,
                "end_time": 6.497727272727272,
                "pitch": 57,
                "velocity": 51,
                "duration": 0.07954545454545414,
                "tempo": 120.0
            },
            {
                "start_time": 6.513636363636364,
                "end_time": 6.595454545454545,
                "pitch": 58,
                "velocity": 51,
                "duration": 0.08181818181818112,
                "tempo": 120.0
            },
            {
                "start_time": 6.611363636363636,
                "end_time": 6.695454545454545,
                "pitch": 62,
                "velocity": 51,
                "duration": 0.084090909090909,
                "tempo": 120.0
            },
            {
                "start_time": 6.711363636363636,
                "end_time": 6.795454545454545,
                "pitch": 60,
                "velocity": 51,
                "duration": 0.084090909090909,
                "tempo": 120.0
            },
            {
                "start_time": 6.811363636363636,
                "end_time": 6.8954545454545455,
                "pitch": 58,
                "velocity": 51,
                "duration": 0.08409090909090988,
                "tempo": 120.0
            },
            {
                "start_time": 6.911363636363636,
                "end_time": 6.995454545454545,
                "pitch": 60,
                "velocity": 51,
                "duration": 0.084090909090909,
                "tempo": 120.0
            },
            {
                "start_time": 7.011363636363636,
                "end_time": 7.095454545454545,
                "pitch": 58,
                "velocity": 51,
                "duration": 0.084090909090909,
                "tempo": 120.0
            },
            {
                "start_time": 7.111363636363636,
                "end_time": 7.195454545454545,
                "pitch": 57,
                "velocity": 51,
                "duration": 0.084090909090909,
                "tempo": 120.0
            },
            {
                "start_time": 7.213636363636363,
                "end_time": 7.295454545454545,
                "pitch": 55,
                "velocity": 51,
                "duration": 0.08181818181818201,
                "tempo": 120.0
            },
            {
                "start_time": 7.3136363636363635,
                "end_time": 7.3954545454545455,
                "pitch": 55,
                "velocity": 51,
                "duration": 0.08181818181818201,
                "tempo": 120.0
            },
            {
                "start_time": 7.413636363636363,
                "end_time": 7.495454545454545,
                "pitch": 55,
                "velocity": 51,
                "duration": 0.08181818181818201,
                "tempo": 120.0
            },
            {
                "start_time": 7.513636363636364,
                "end_time": 7.595454545454545,
                "pitch": 55,
                "velocity": 51,
                "duration": 0.08181818181818112,
                "tempo": 120.0
            },
            {
                "start_time": 7.613636363636363,
                "end_time": 7.695454545454545,
                "pitch": 57,
                "velocity": 51,
                "duration": 0.08181818181818201,
                "tempo": 120.0
            },
            {
                "start_time": 7.713636363636363,
                "end_time": 7.795454545454545,
                "pitch": 58,
                "velocity": 51,
                "duration": 0.08181818181818201,
                "tempo": 120.0
            },
            {
                "start_time": 7.8136363636363635,
                "end_time": 7.8977272727272725,
                "pitch": 55,
                "velocity": 51,
                "duration": 0.084090909090909,
                "tempo": 120.0
            },
            {
                "start_time": 7.91590909090909,
                "end_time": 8.002272727272727,
                "pitch": 55,
                "velocity": 51,
                "duration": 0.08636363636363686,
                "tempo": 120.0
            },
            {
                "start_time": 8.020454545454545,
                "end_time": 8.10681818181818,
                "pitch": 55,
                "velocity": 51,
                "duration": 0.08636363636363598,
                "tempo": 120.0
            },
            {
                "start_time": 8.122727272727273,
                "end_time": 8.204545454545455,
                "pitch": 55,
                "velocity": 51,
                "duration": 0.08181818181818201,
                "tempo": 120.0
            },
            {
                "start_time": 8.220454545454546,
                "end_time": 8.302272727272728,
                "pitch": 57,
                "velocity": 51,
                "duration": 0.08181818181818201,
                "tempo": 120.0
            },
            {
                "start_time": 8.318181818181818,
                "end_time": 8.397727272727272,
                "pitch": 58,
                "velocity": 51,
                "duration": 0.07954545454545325,
                "tempo": 120.0
            },
            {
                "start_time": 8.413636363636364,
                "end_time": 8.5,
                "pitch": 55,
                "velocity": 51,
                "duration": 0.08636363636363598,
                "tempo": 120.0
            },
            {
                "start_time": 8.518181818181818,
                "end_time": 8.604545454545454,
                "pitch": 55,
                "velocity": 51,
                "duration": 0.08636363636363598,
                "tempo": 120.0
            },
            {
                "start_time": 8.620454545454544,
                "end_time": 8.706818181818182,
                "pitch": 55,
                "velocity": 51,
                "duration": 0.08636363636363775,
                "tempo": 120.0
            },
            {
                "start_time": 8.725,
                "end_time": 8.804545454545455,
                "pitch": 55,
                "velocity": 51,
                "duration": 0.07954545454545503,
                "tempo": 120.0
            },
            {
                "start_time": 8.822727272727272,
                "end_time": 8.902272727272727,
                "pitch": 57,
                "velocity": 51,
                "duration": 0.07954545454545503,
                "tempo": 120.0
            },
            {
                "start_time": 8.918181818181818,
                "end_time": 9.0,
                "pitch": 58,
                "velocity": 51,
                "duration": 0.08181818181818201,
                "tempo": 120.0
            },
            {
                "start_time": 9.01590909090909,
                "end_time": 9.1,
                "pitch": 62,
                "velocity": 51,
                "duration": 0.084090909090909,
                "tempo": 120.0
            },
            {
                "start_time": 9.11590909090909,
                "end_time": 9.2,
                "pitch": 60,
                "velocity": 51,
                "duration": 0.084090909090909,
                "tempo": 120.0
            },
            {
                "start_time": 9.21590909090909,
                "end_time": 9.299999999999999,
                "pitch": 58,
                "velocity": 51,
                "duration": 0.084090909090909,
                "tempo": 120.0
            },
            {
                "start_time": 9.318181818181818,
                "end_time": 9.402272727272727,
                "pitch": 60,
                "velocity": 51,
                "duration": 0.084090909090909,
                "tempo": 120.0
            },
            {
                "start_time": 9.418181818181818,
                "end_time": 9.502272727272727,
                "pitch": 58,
                "velocity": 51,
                "duration": 0.084090909090909,
                "tempo": 120.0
            },
            {
                "start_time": 9.518181818181818,
                "end_time": 9.602272727272727,
                "pitch": 57,
                "velocity": 51,
                "duration": 0.084090909090909,
                "tempo": 120.0
            },
            {
                "start_time": 9.618181818181817,
                "end_time": 9.702272727272726,
                "pitch": 60,
                "velocity": 51,
                "duration": 0.084090909090909,
                "tempo": 120.0
            },
            {
                "start_time": 9.718181818181817,
                "end_time": 9.802272727272726,
                "pitch": 60,
                "velocity": 51,
                "duration": 0.084090909090909,
                "tempo": 120.0
            },
            {
                "start_time": 9.818181818181818,
                "end_time": 9.902272727272727,
                "pitch": 60,
                "velocity": 51,
                "duration": 0.084090909090909,
                "tempo": 120.0
            },
            {
                "start_time": 9.918181818181818,
                "end_time": 10.002272727272727,
                "pitch": 60,
                "velocity": 51,
                "duration": 0.084090909090909,
                "tempo": 120.0
            },
            {
                "start_time": 10.020454545454545,
                "end_time": 10.102272727272727,
                "pitch": 62,
                "velocity": 51,
                "duration": 0.08181818181818201,
                "tempo": 120.0
            },
            {
                "start_time": 10.120454545454544,
                "end_time": 10.204545454545453,
                "pitch": 63,
                "velocity": 51,
                "duration": 0.084090909090909,
                "tempo": 120.0
            },
            {
                "start_time": 10.220454545454546,
                "end_time": 10.304545454545455,
                "pitch": 60,
                "velocity": 51,
                "duration": 0.084090909090909,
                "tempo": 120.0
            },
            {
                "start_time": 10.320454545454545,
                "end_time": 10.404545454545454,
                "pitch": 60,
                "velocity": 51,
                "duration": 0.084090909090909,
                "tempo": 120.0
            },
            {
                "start_time": 10.420454545454545,
                "end_time": 10.504545454545454,
                "pitch": 60,
                "velocity": 51,
                "duration": 0.084090909090909,
                "tempo": 120.0
            },
            {
                "start_time": 10.520454545454545,
                "end_time": 10.604545454545454,
                "pitch": 60,
                "velocity": 51,
                "duration": 0.084090909090909,
                "tempo": 120.0
            },
            {
                "start_time": 10.620454545454544,
                "end_time": 10.704545454545453,
                "pitch": 62,
                "velocity": 51,
                "duration": 0.084090909090909,
                "tempo": 120.0
            },
            {
                "start_time": 10.720454545454546,
                "end_time": 10.804545454545455,
                "pitch": 63,
                "velocity": 51,
                "duration": 0.084090909090909,
                "tempo": 120.0
            },
            {
                "start_time": 10.822727272727272,
                "end_time": 10.906818181818181,
                "pitch": 60,
                "velocity": 51,
                "duration": 0.084090909090909,
                "tempo": 120.0
            },
            {
                "start_time": 10.922727272727272,
                "end_time": 11.006818181818181,
                "pitch": 60,
                "velocity": 51,
                "duration": 0.084090909090909,
                "tempo": 120.0
            },
            {
                "start_time": 11.022727272727272,
                "end_time": 11.10681818181818,
                "pitch": 60,
                "velocity": 51,
                "duration": 0.084090909090909,
                "tempo": 120.0
            },
            {
                "start_time": 11.122727272727273,
                "end_time": 11.206818181818182,
                "pitch": 60,
                "velocity": 51,
                "duration": 0.084090909090909,
                "tempo": 120.0
            },
            {
                "start_time": 11.222727272727273,
                "end_time": 11.306818181818182,
                "pitch": 62,
                "velocity": 51,
                "duration": 0.084090909090909,
                "tempo": 120.0
            },
            {
                "start_time": 11.322727272727272,
                "end_time": 11.406818181818181,
                "pitch": 63,
                "velocity": 51,
                "duration": 0.084090909090909,
                "tempo": 120.0
            },
            {
                "start_time": 11.422727272727272,
                "end_time": 11.506818181818181,
                "pitch": 67,
                "velocity": 51,
                "duration": 0.084090909090909,
                "tempo": 120.0
            },
            {
                "start_time": 11.524999999999999,
                "end_time": 11.60681818181818,
                "pitch": 65,
                "velocity": 51,
                "duration": 0.08181818181818201,
                "tempo": 120.0
            },
            {
                "start_time": 11.625,
                "end_time": 11.709090909090909,
                "pitch": 63,
                "velocity": 51,
                "duration": 0.084090909090909,
                "tempo": 120.0
            },
            {
                "start_time": 11.725,
                "end_time": 11.811363636363636,
                "pitch": 65,
                "velocity": 51,
                "duration": 0.08636363636363598,
                "tempo": 120.0
            },
            {
                "start_time": 11.827272727272726,
                "end_time": 11.913636363636362,
                "pitch": 63,
                "velocity": 51,
                "duration": 0.08636363636363598,
                "tempo": 120.0
            },
            {
                "start_time": 11.931818181818182,
                "end_time": 12.018181818181818,
                "pitch": 62,
                "velocity": 51,
                "duration": 0.08636363636363598,
                "tempo": 120.0
            },
            {
                "start_time": 12.036363636363635,
                "end_time": 12.11590909090909,
                "pitch": 60,
                "velocity": 51,
                "duration": 0.07954545454545503,
                "tempo": 120.0
            },
            {
                "start_time": 12.131818181818181,
                "end_time": 12.213636363636363,
                "pitch": 60,
                "velocity": 51,
                "duration": 0.08181818181818201,
                "tempo": 120.0
            },
            {
                "start_time": 12.229545454545454,
                "end_time": 12.311363636363636,
                "pitch": 60,
                "velocity": 51,
                "duration": 0.08181818181818201,
                "tempo": 120.0
            },
            {
                "start_time": 12.327272727272726,
                "end_time": 12.411363636363635,
                "pitch": 60,
                "velocity": 51,
                "duration": 0.084090909090909,
                "tempo": 120.0
            },
            {
                "start_time": 12.427272727272726,
                "end_time": 12.511363636363635,
                "pitch": 62,
                "velocity": 51,
                "duration": 0.084090909090909,
                "tempo": 120.0
            },
            {
                "start_time": 12.527272727272727,
                "end_time": 12.611363636363636,
                "pitch": 63,
                "velocity": 51,
                "duration": 0.084090909090909,
                "tempo": 120.0
            },
            {
                "start_time": 12.627272727272727,
                "end_time": 12.713636363636363,
                "pitch": 60,
                "velocity": 51,
                "duration": 0.08636363636363598,
                "tempo": 120.0
            },
            {
                "start_time": 12.73181818181818,
                "end_time": 12.818181818181818,
                "pitch": 60,
                "velocity": 51,
                "duration": 0.08636363636363775,
                "tempo": 120.0
            },
            {
                "start_time": 12.836363636363636,
                "end_time": 12.922727272727272,
                "pitch": 60,
                "velocity": 51,
                "duration": 0.08636363636363598,
                "tempo": 120.0
            },
            {
                "start_time": 12.938636363636363,
                "end_time": 13.020454545454545,
                "pitch": 60,
                "velocity": 51,
                "duration": 0.08181818181818201,
                "tempo": 120.0
            },
            {
                "start_time": 13.036363636363635,
                "end_time": 13.11590909090909,
                "pitch": 62,
                "velocity": 51,
                "duration": 0.07954545454545503,
                "tempo": 120.0
            },
            {
                "start_time": 13.134090909090908,
                "end_time": 13.213636363636363,
                "pitch": 63,
                "velocity": 51,
                "duration": 0.07954545454545503,
                "tempo": 120.0
            },
            {
                "start_time": 13.229545454545454,
                "end_time": 13.313636363636363,
                "pitch": 60,
                "velocity": 51,
                "duration": 0.084090909090909,
                "tempo": 120.0
            },
            {
                "start_time": 13.329545454545453,
                "end_time": 13.413636363636362,
                "pitch": 60,
                "velocity": 51,
                "duration": 0.084090909090909,
                "tempo": 120.0
            },
            {
                "start_time": 13.429545454545455,
                "end_time": 13.513636363636364,
                "pitch": 60,
                "velocity": 51,
                "duration": 0.084090909090909,
                "tempo": 120.0
            },
            {
                "start_time": 13.529545454545454,
                "end_time": 13.613636363636363,
                "pitch": 60,
                "velocity": 51,
                "duration": 0.084090909090909,
                "tempo": 120.0
            },
            {
                "start_time": 13.631818181818181,
                "end_time": 13.713636363636363,
                "pitch": 62,
                "velocity": 51,
                "duration": 0.08181818181818201,
                "tempo": 120.0
            },
            {
                "start_time": 13.73181818181818,
                "end_time": 13.81590909090909,
                "pitch": 63,
                "velocity": 51,
                "duration": 0.084090909090909,
                "tempo": 120.0
            },
            {
                "start_time": 13.831818181818182,
                "end_time": 13.915909090909091,
                "pitch": 67,
                "velocity": 51,
                "duration": 0.084090909090909,
                "tempo": 120.0
            },
            {
                "start_time": 13.931818181818182,
                "end_time": 14.01590909090909,
                "pitch": 65,
                "velocity": 51,
                "duration": 0.084090909090909,
                "tempo": 120.0
            },
            {
                "start_time": 14.031818181818181,
                "end_time": 14.11590909090909,
                "pitch": 63,
                "velocity": 51,
                "duration": 0.084090909090909,
                "tempo": 120.0
            },
            {
                "start_time": 14.134090909090908,
                "end_time": 14.21590909090909,
                "pitch": 65,
                "velocity": 51,
                "duration": 0.08181818181818201,
                "tempo": 120.0
            },
            {
                "start_time": 14.234090909090908,
                "end_time": 14.31590909090909,
                "pitch": 63,
                "velocity": 51,
                "duration": 0.08181818181818201,
                "tempo": 120.0
            },
            {
                "start_time": 14.334090909090909,
                "end_time": 14.415909090909091,
                "pitch": 62,
                "velocity": 51,
                "duration": 0.08181818181818201,
                "tempo": 120.0
            },
            {
                "start_time": 14.434090909090909,
                "end_time": 14.51590909090909,
                "pitch": 60,
                "velocity": 51,
                "duration": 0.08181818181818201,
                "tempo": 120.0
            },
            {
                "start_time": 14.534090909090908,
                "end_time": 14.618181818181817,
                "pitch": 60,
                "velocity": 51,
                "duration": 0.084090909090909,
                "tempo": 120.0
            },
            {
                "start_time": 14.634090909090908,
                "end_time": 14.718181818181817,
                "pitch": 60,
                "velocity": 51,
                "duration": 0.084090909090909,
                "tempo": 120.0
            },
            {
                "start_time": 14.734090909090908,
                "end_time": 14.818181818181818,
                "pitch": 60,
                "velocity": 51,
                "duration": 0.08409090909091077,
                "tempo": 120.0
            },
            {
                "start_time": 14.834090909090909,
                "end_time": 14.918181818181818,
                "pitch": 62,
                "velocity": 51,
                "duration": 0.084090909090909,
                "tempo": 120.0
            },
            {
                "start_time": 14.934090909090909,
                "end_time": 15.018181818181818,
                "pitch": 63,
                "velocity": 51,
                "duration": 0.084090909090909,
                "tempo": 120.0
            },
            {
                "start_time": 15.034090909090908,
                "end_time": 15.120454545454544,
                "pitch": 60,
                "velocity": 51,
                "duration": 0.08636363636363598,
                "tempo": 120.0
            },
            {
                "start_time": 15.138636363636364,
                "end_time": 15.225,
                "pitch": 60,
                "velocity": 51,
                "duration": 0.08636363636363598,
                "tempo": 120.0
            },
            {
                "start_time": 15.24090909090909,
                "end_time": 15.327272727272726,
                "pitch": 60,
                "velocity": 51,
                "duration": 0.08636363636363598,
                "tempo": 120.0
            },
            {
                "start_time": 15.345454545454544,
                "end_time": 15.427272727272726,
                "pitch": 60,
                "velocity": 51,
                "duration": 0.08181818181818201,
                "tempo": 120.0
            },
            {
                "start_time": 15.443181818181817,
                "end_time": 15.522727272727272,
                "pitch": 62,
                "velocity": 51,
                "duration": 0.07954545454545503,
                "tempo": 120.0
            },
            {
                "start_time": 15.538636363636362,
                "end_time": 15.620454545454544,
                "pitch": 63,
                "velocity": 51,
                "duration": 0.08181818181818201,
                "tempo": 120.0
            },
            {
                "start_time": 15.636363636363635,
                "end_time": 15.720454545454544,
                "pitch": 60,
                "velocity": 51,
                "duration": 0.084090909090909,
                "tempo": 120.0
            },
            {
                "start_time": 15.736363636363636,
                "end_time": 15.820454545454545,
                "pitch": 60,
                "velocity": 51,
                "duration": 0.084090909090909,
                "tempo": 120.0
            },
            {
                "start_time": 15.836363636363636,
                "end_time": 15.920454545454545,
                "pitch": 60,
                "velocity": 51,
                "duration": 0.084090909090909,
                "tempo": 120.0
            },
            {
                "start_time": 15.936363636363636,
                "end_time": 16.020454545454545,
                "pitch": 60,
                "velocity": 51,
                "duration": 0.084090909090909,
                "tempo": 120.0
            },
            {
                "start_time": 16.036363636363635,
                "end_time": 16.120454545454546,
                "pitch": 62,
                "velocity": 51,
                "duration": 0.08409090909091077,
                "tempo": 120.0
            },
            {
                "start_time": 16.138636363636362,
                "end_time": 16.220454545454544,
                "pitch": 63,
                "velocity": 51,
                "duration": 0.08181818181818201,
                "tempo": 120.0
            },
            {
                "start_time": 16.238636363636363,
                "end_time": 16.320454545454545,
                "pitch": 67,
                "velocity": 51,
                "duration": 0.08181818181818201,
                "tempo": 120.0
            },
            {
                "start_time": 16.33863636363636,
                "end_time": 16.420454545454543,
                "pitch": 65,
                "velocity": 51,
                "duration": 0.08181818181818201,
                "tempo": 120.0
            },
            {
                "start_time": 16.438636363636363,
                "end_time": 16.520454545454545,
                "pitch": 63,
                "velocity": 51,
                "duration": 0.08181818181818201,
                "tempo": 120.0
            },
            {
                "start_time": 16.538636363636364,
                "end_time": 16.625,
                "pitch": 65,
                "velocity": 51,
                "duration": 0.08636363636363598,
                "tempo": 120.0
            },
            {
                "start_time": 16.64090909090909,
                "end_time": 16.727272727272727,
                "pitch": 63,
                "velocity": 51,
                "duration": 0.08636363636363598,
                "tempo": 120.0
            },
            {
                "start_time": 16.745454545454546,
                "end_time": 16.831818181818182,
                "pitch": 62,
                "velocity": 51,
                "duration": 0.08636363636363598,
                "tempo": 120.0
            },
            {
                "start_time": 16.847727272727273,
                "end_time": 16.929545454545455,
                "pitch": 60,
                "velocity": 51,
                "duration": 0.08181818181818201,
                "tempo": 120.0
            },
            {
                "start_time": 16.945454545454545,
                "end_time": 17.027272727272727,
                "pitch": 60,
                "velocity": 51,
                "duration": 0.08181818181818201,
                "tempo": 120.0
            },
            {
                "start_time": 17.043181818181818,
                "end_time": 17.12272727272727,
                "pitch": 60,
                "velocity": 51,
                "duration": 0.07954545454545325,
                "tempo": 120.0
            },
            {
                "start_time": 17.14090909090909,
                "end_time": 17.222727272727273,
                "pitch": 60,
                "velocity": 51,
                "duration": 0.08181818181818201,
                "tempo": 120.0
            },
            {
                "start_time": 17.24090909090909,
                "end_time": 17.325,
                "pitch": 62,
                "velocity": 51,
                "duration": 0.08409090909091077,
                "tempo": 120.0
            },
            {
                "start_time": 17.34090909090909,
                "end_time": 17.425,
                "pitch": 63,
                "velocity": 51,
                "duration": 0.08409090909091077,
                "tempo": 120.0
            },
            {
                "start_time": 17.44090909090909,
                "end_time": 17.527272727272727,
                "pitch": 60,
                "velocity": 51,
                "duration": 0.08636363636363598,
                "tempo": 120.0
            },
            {
                "start_time": 17.545454545454543,
                "end_time": 17.631818181818183,
                "pitch": 60,
                "velocity": 51,
                "duration": 0.08636363636363953,
                "tempo": 120.0
            },
            {
                "start_time": 17.647727272727273,
                "end_time": 17.73409090909091,
                "pitch": 60,
                "velocity": 51,
                "duration": 0.08636363636363598,
                "tempo": 120.0
            },
            {
                "start_time": 17.752272727272725,
                "end_time": 17.831818181818182,
                "pitch": 60,
                "velocity": 51,
                "duration": 0.0795454545454568,
                "tempo": 120.0
            },
            {
                "start_time": 17.849999999999998,
                "end_time": 17.929545454545455,
                "pitch": 62,
                "velocity": 51,
                "duration": 0.0795454545454568,
                "tempo": 120.0
            },
            {
                "start_time": 17.945454545454545,
                "end_time": 18.027272727272727,
                "pitch": 63,
                "velocity": 51,
                "duration": 0.08181818181818201,
                "tempo": 120.0
            },
            {
                "start_time": 18.043181818181818,
                "end_time": 18.127272727272725,
                "pitch": 60,
                "velocity": 51,
                "duration": 0.08409090909090722,
                "tempo": 120.0
            },
            {
                "start_time": 18.143181818181816,
                "end_time": 18.227272727272727,
                "pitch": 60,
                "velocity": 51,
                "duration": 0.08409090909091077,
                "tempo": 120.0
            },
            {
                "start_time": 18.243181818181817,
                "end_time": 18.327272727272728,
                "pitch": 60,
                "velocity": 51,
                "duration": 0.08409090909091077,
                "tempo": 120.0
            },
            {
                "start_time": 18.345454545454544,
                "end_time": 18.427272727272726,
                "pitch": 60,
                "velocity": 51,
                "duration": 0.08181818181818201,
                "tempo": 120.0
            },
            {
                "start_time": 18.445454545454545,
                "end_time": 18.529545454545453,
                "pitch": 62,
                "velocity": 51,
                "duration": 0.08409090909090722,
                "tempo": 120.0
            },
            {
                "start_time": 18.545454545454543,
                "end_time": 18.629545454545454,
                "pitch": 63,
                "velocity": 51,
                "duration": 0.08409090909091077,
                "tempo": 120.0
            },
            {
                "start_time": 18.645454545454545,
                "end_time": 18.729545454545455,
                "pitch": 67,
                "velocity": 51,
                "duration": 0.08409090909091077,
                "tempo": 120.0
            },
            {
                "start_time": 18.74772727272727,
                "end_time": 18.829545454545453,
                "pitch": 65,
                "velocity": 51,
                "duration": 0.08181818181818201,
                "tempo": 120.0
            },
            {
                "start_time": 18.847727272727273,
                "end_time": 18.93181818181818,
                "pitch": 63,
                "velocity": 51,
                "duration": 0.08409090909090722,
                "tempo": 120.0
            },
            {
                "start_time": 18.94772727272727,
                "end_time": 19.034090909090907,
                "pitch": 65,
                "velocity": 51,
                "duration": 0.08636363636363598,
                "tempo": 120.0
            },
            {
                "start_time": 19.05,
                "end_time": 19.136363636363637,
                "pitch": 63,
                "velocity": 51,
                "duration": 0.08636363636363598,
                "tempo": 120.0
            },
            {
                "start_time": 19.154545454545453,
                "end_time": 19.24090909090909,
                "pitch": 62,
                "velocity": 51,
                "duration": 0.08636363636363598,
                "tempo": 120.0
            },
            {
                "start_time": 19.259090909090908,
                "end_time": 19.35681818181818,
                "pitch": 55,
                "velocity": 51,
                "duration": 0.09772727272727266,
                "tempo": 120.0
            }
        ]
    }
}