{
    "track_id": "Dynamite Dux (FM) - 02 - Boss",
    "mood": "angry",
    "instruments": {
        "Oboe": [
            {
                "start_time": 0.0022727272727272726,
                "end_time": 0.07954545454545454,
                "pitch": 68,
                "velocity": 80,
                "duration": 0.07727272727272727,
                "tempo": 120.0
            },
            {
                "start_time": 0.09090909090909091,
                "end_time": 0.17954545454545454,
                "pitch": 69,
                "velocity": 80,
                "duration": 0.08863636363636362,
                "tempo": 120.0
            },
            {
                "start_time": 0.1909090909090909,
                "end_time": 0.32045454545454544,
                "pitch": 71,
                "velocity": 80,
                "duration": 0.12954545454545455,
                "tempo": 120.0
            },
            {
                "start_time": 0.33636363636363636,
                "end_time": 0.47045454545454546,
                "pitch": 72,
                "velocity": 80,
                "duration": 0.1340909090909091,
                "tempo": 120.0
            },
            {
                "start_time": 0.6363636363636364,
                "end_time": 0.7704545454545454,
                "pitch": 68,
                "velocity": 80,
                "duration": 0.13409090909090904,
                "tempo": 120.0
            },
            {
                "start_time": 0.7863636363636364,
                "end_time": 0.9181818181818181,
                "pitch": 69,
                "velocity": 80,
                "duration": 0.13181818181818172,
                "tempo": 120.0
            },
            {
                "start_time": 0.9363636363636363,
                "end_time": 1.0681818181818181,
                "pitch": 71,
                "velocity": 80,
                "duration": 0.13181818181818183,
                "tempo": 120.0
            },
            {
                "start_time": 1.084090909090909,
                "end_time": 1.2159090909090908,
                "pitch": 72,
                "velocity": 80,
                "duration": 0.13181818181818183,
                "tempo": 120.0
            },
            {
                "start_time": 1.5318181818181817,
                "end_time": 1.6636363636363636,
                "pitch": 68,
                "velocity": 80,
                "duration": 0.13181818181818183,
                "tempo": 120.0
            },
            {
                "start_time": 1.6818181818181817,
                "end_time": 1.8136363636363635,
                "pitch": 69,
                "velocity": 80,
                "duration": 0.13181818181818183,
                "tempo": 120.0
            },
            {
                "start_time": 1.8318181818181818,
                "end_time": 2.2704545454545455,
                "pitch": 64,
                "velocity": 80,
                "duration": 0.4386363636363637,
                "tempo": 120.0
            },
            {
                "start_time": 2.286363636363636,
                "end_time": 2.4227272727272724,
                "pitch": 68,
                "velocity": 80,
                "duration": 0.13636363636363624,
                "tempo": 120.0
            },
            {
                "start_time": 2.440909090909091,
                "end_time": 2.5749999999999997,
                "pitch": 69,
                "velocity": 80,
                "duration": 0.13409090909090882,
                "tempo": 120.0
            },
            {
                "start_time": 2.5931818181818183,
                "end_time": 2.725,
                "pitch": 71,
                "velocity": 80,
                "duration": 0.13181818181818183,
                "tempo": 120.0
            },
            {
                "start_time": 2.7409090909090907,
                "end_time": 2.8727272727272726,
                "pitch": 72,
                "velocity": 80,
                "duration": 0.13181818181818183,
                "tempo": 120.0
            },
            {
                "start_time": 3.0386363636363636,
                "end_time": 3.1704545454545454,
                "pitch": 68,
                "velocity": 80,
                "duration": 0.13181818181818183,
                "tempo": 120.0
            },
            {
                "start_time": 3.186363636363636,
                "end_time": 3.3227272727272728,
                "pitch": 69,
                "velocity": 80,
                "duration": 0.1363636363636367,
                "tempo": 120.0
            },
            {
                "start_time": 3.3386363636363634,
                "end_time": 3.4727272727272727,
                "pitch": 71,
                "velocity": 80,
                "duration": 0.13409090909090926,
                "tempo": 120.0
            },
            {
                "start_time": 3.4909090909090907,
                "end_time": 3.625,
                "pitch": 72,
                "velocity": 80,
                "duration": 0.13409090909090926,
                "tempo": 120.0
            },
            {
                "start_time": 3.9454545454545453,
                "end_time": 4.079545454545454,
                "pitch": 68,
                "velocity": 80,
                "duration": 0.13409090909090882,
                "tempo": 120.0
            },
            {
                "start_time": 4.095454545454546,
                "end_time": 4.2318181818181815,
                "pitch": 69,
                "velocity": 80,
                "duration": 0.1363636363636358,
                "tempo": 120.0
            },
            {
                "start_time": 4.247727272727272,
                "end_time": 4.6886363636363635,
                "pitch": 64,
                "velocity": 80,
                "duration": 0.44090909090909136,
                "tempo": 120.0
            },
            {
                "start_time": 4.704545454545454,
                "end_time": 4.840909090909091,
                "pitch": 68,
                "velocity": 80,
                "duration": 0.1363636363636367,
                "tempo": 120.0
            },
            {
                "start_time": 4.8590909090909085,
                "end_time": 4.993181818181818,
                "pitch": 69,
                "velocity": 80,
                "duration": 0.1340909090909097,
                "tempo": 120.0
            },
            {
                "start_time": 5.011363636363636,
                "end_time": 5.143181818181818,
                "pitch": 71,
                "velocity": 80,
                "duration": 0.13181818181818183,
                "tempo": 120.0
            },
            {
                "start_time": 5.159090909090909,
                "end_time": 5.290909090909091,
                "pitch": 72,
                "velocity": 80,
                "duration": 0.13181818181818183,
                "tempo": 120.0
            },
            {
                "start_time": 5.456818181818181,
                "end_time": 5.588636363636363,
                "pitch": 68,
                "velocity": 80,
                "duration": 0.13181818181818183,
                "tempo": 120.0
            },
            {
                "start_time": 5.6045454545454545,
                "end_time": 5.74090909090909,
                "pitch": 69,
                "velocity": 80,
                "duration": 0.1363636363636358,
                "tempo": 120.0
            },
            {
                "start_time": 5.756818181818182,
                "end_time": 5.890909090909091,
                "pitch": 71,
                "velocity": 80,
                "duration": 0.13409090909090882,
                "tempo": 120.0
            },
            {
                "start_time": 5.909090909090909,
                "end_time": 6.043181818181818,
                "pitch": 72,
                "velocity": 80,
                "duration": 0.13409090909090882,
                "tempo": 120.0
            },
            {
                "start_time": 6.361363636363636,
                "end_time": 6.495454545454545,
                "pitch": 68,
                "velocity": 80,
                "duration": 0.13409090909090882,
                "tempo": 120.0
            },
            {
                "start_time": 6.511363636363636,
                "end_time": 6.6454545454545455,
                "pitch": 69,
                "velocity": 80,
                "duration": 0.1340909090909097,
                "tempo": 120.0
            },
            {
                "start_time": 6.661363636363636,
                "end_time": 7.1,
                "pitch": 64,
                "velocity": 80,
                "duration": 0.4386363636363635,
                "tempo": 120.0
            },
            {
                "start_time": 7.118181818181818,
                "end_time": 7.252272727272727,
                "pitch": 68,
                "velocity": 80,
                "duration": 0.13409090909090882,
                "tempo": 120.0
            },
            {
                "start_time": 7.2704545454545455,
                "end_time": 7.406818181818181,
                "pitch": 69,
                "velocity": 80,
                "duration": 0.1363636363636358,
                "tempo": 120.0
            },
            {
                "start_time": 7.422727272727272,
                "end_time": 7.556818181818182,
                "pitch": 71,
                "velocity": 80,
                "duration": 0.1340909090909097,
                "tempo": 120.0
            },
            {
                "start_time": 7.572727272727272,
                "end_time": 7.706818181818181,
                "pitch": 72,
                "velocity": 80,
                "duration": 0.13409090909090882,
                "tempo": 120.0
            },
            {
                "start_time": 7.872727272727272,
                "end_time": 8.006818181818181,
                "pitch": 68,
                "velocity": 80,
                "duration": 0.13409090909090882,
                "tempo": 120.0
            },
            {
                "start_time": 8.022727272727272,
                "end_time": 8.154545454545454,
                "pitch": 69,
                "velocity": 80,
                "duration": 0.13181818181818272,
                "tempo": 120.0
            },
            {
                "start_time": 8.172727272727272,
                "end_time": 8.304545454545455,
                "pitch": 71,
                "velocity": 80,
                "duration": 0.13181818181818272,
                "tempo": 120.0
            },
            {
                "start_time": 8.320454545454545,
                "end_time": 8.452272727272726,
                "pitch": 72,
                "velocity": 80,
                "duration": 0.13181818181818095,
                "tempo": 120.0
            },
            {
                "start_time": 8.768181818181818,
                "end_time": 8.9,
                "pitch": 68,
                "velocity": 80,
                "duration": 0.13181818181818272,
                "tempo": 120.0
            },
            {
                "start_time": 8.918181818181818,
                "end_time": 9.049999999999999,
                "pitch": 69,
                "velocity": 80,
                "duration": 0.13181818181818095,
                "tempo": 120.0
            },
            {
                "start_time": 9.068181818181818,
                "end_time": 9.506818181818181,
                "pitch": 64,
                "velocity": 80,
                "duration": 0.4386363636363626,
                "tempo": 120.0
            },
            {
                "start_time": 9.522727272727272,
                "end_time": 10.706818181818182,
                "pitch": 76,
                "velocity": 80,
                "duration": 1.1840909090909104,
                "tempo": 120.0
            },
            {
                "start_time": 10.722727272727273,
                "end_time": 11.306818181818182,
                "pitch": 74,
                "velocity": 80,
                "duration": 0.584090909090909,
                "tempo": 120.0
            },
            {
                "start_time": 11.322727272727272,
                "end_time": 11.60681818181818,
                "pitch": 72,
                "velocity": 80,
                "duration": 0.2840909090909083,
                "tempo": 120.0
            },
            {
                "start_time": 11.622727272727273,
                "end_time": 11.906818181818181,
                "pitch": 74,
                "velocity": 80,
                "duration": 0.2840909090909083,
                "tempo": 120.0
            },
            {
                "start_time": 11.922727272727272,
                "end_time": 12.056818181818182,
                "pitch": 76,
                "velocity": 80,
                "duration": 0.1340909090909097,
                "tempo": 120.0
            },
            {
                "start_time": 12.072727272727272,
                "end_time": 12.206818181818182,
                "pitch": 74,
                "velocity": 80,
                "duration": 0.1340909090909097,
                "tempo": 120.0
            },
            {
                "start_time": 12.222727272727273,
                "end_time": 14.013636363636364,
                "pitch": 77,
                "velocity": 80,
                "duration": 1.790909090909091,
                "tempo": 120.0
            },
            {
                "start_time": 14.329545454545453,
                "end_time": 15.513636363636364,
                "pitch": 76,
                "velocity": 80,
                "duration": 1.1840909090909104,
                "tempo": 120.0
            },
            {
                "start_time": 15.529545454545454,
                "end_time": 16.11590909090909,
                "pitch": 74,
                "velocity": 80,
                "duration": 0.5863636363636342,
                "tempo": 120.0
            },
            {
                "start_time": 16.131818181818183,
                "end_time": 16.418181818181818,
                "pitch": 72,
                "velocity": 80,
                "duration": 0.28636363636363527,
                "tempo": 120.0
            },
            {
                "start_time": 16.436363636363634,
                "end_time": 16.71818181818182,
                "pitch": 74,
                "velocity": 80,
                "duration": 0.28181818181818485,
                "tempo": 120.0
            },
            {
                "start_time": 16.736363636363635,
                "end_time": 16.868181818181817,
                "pitch": 77,
                "velocity": 80,
                "duration": 0.13181818181818272,
                "tempo": 120.0
            },
            {
                "start_time": 16.886363636363637,
                "end_time": 18.38181818181818,
                "pitch": 74,
                "velocity": 80,
                "duration": 1.4954545454545425,
                "tempo": 120.0
            },
            {
                "start_time": 18.69772727272727,
                "end_time": 19.134090909090908,
                "pitch": 84,
                "velocity": 80,
                "duration": 0.4363636363636374,
                "tempo": 120.0
            }
        ],
        "Clarinet": [
            {
                "start_time": 0.013636363636363636,
                "end_time": 0.07954545454545454,
                "pitch": 56,
                "velocity": 51,
                "duration": 0.0659090909090909,
                "tempo": 120.0
            },
            {
                "start_time": 0.09090909090909091,
                "end_time": 0.17954545454545454,
                "pitch": 57,
                "velocity": 51,
                "duration": 0.08863636363636362,
                "tempo": 120.0
            },
            {
                "start_time": 0.1909090909090909,
                "end_time": 0.32045454545454544,
                "pitch": 59,
                "velocity": 51,
                "duration": 0.12954545454545455,
                "tempo": 120.0
            },
            {
                "start_time": 0.33636363636363636,
                "end_time": 0.47045454545454546,
                "pitch": 60,
                "velocity": 51,
                "duration": 0.1340909090909091,
                "tempo": 120.0
            },
            {
                "start_time": 0.6363636363636364,
                "end_time": 0.7704545454545454,
                "pitch": 56,
                "velocity": 51,
                "duration": 0.13409090909090904,
                "tempo": 120.0
            },
            {
                "start_time": 0.7863636363636364,
                "end_time": 0.9181818181818181,
                "pitch": 57,
                "velocity": 51,
                "duration": 0.13181818181818172,
                "tempo": 120.0
            },
            {
                "start_time": 0.9363636363636363,
                "end_time": 1.0681818181818181,
                "pitch": 59,
                "velocity": 51,
                "duration": 0.13181818181818183,
                "tempo": 120.0
            },
            {
                "start_time": 1.084090909090909,
                "end_time": 1.2159090909090908,
                "pitch": 60,
                "velocity": 51,
                "duration": 0.13181818181818183,
                "tempo": 120.0
            },
            {
                "start_time": 1.5318181818181817,
                "end_time": 1.6636363636363636,
                "pitch": 56,
                "velocity": 51,
                "duration": 0.13181818181818183,
                "tempo": 120.0
            },
            {
                "start_time": 1.6818181818181817,
                "end_time": 1.8136363636363635,
                "pitch": 57,
                "velocity": 51,
                "duration": 0.13181818181818183,
                "tempo": 120.0
            },
            {
                "start_time": 1.8318181818181818,
                "end_time": 2.2704545454545455,
                "pitch": 52,
                "velocity": 51,
                "duration": 0.4386363636363637,
                "tempo": 120.0
            },
            {
                "start_time": 2.286363636363636,
                "end_time": 2.4227272727272724,
                "pitch": 56,
                "velocity": 51,
                "duration": 0.13636363636363624,
                "tempo": 120.0
            },
            {
                "start_time": 2.440909090909091,
                "end_time": 2.5749999999999997,
                "pitch": 57,
                "velocity": 51,
                "duration": 0.13409090909090882,
                "tempo": 120.0
            },
            {
                "start_time": 2.5931818181818183,
                "end_time": 2.725,
                "pitch": 59,
                "velocity": 51,
                "duration": 0.13181818181818183,
                "tempo": 120.0
            },
            {
                "start_time": 2.7409090909090907,
                "end_time": 2.8727272727272726,
                "pitch": 60,
                "velocity": 51,
                "duration": 0.13181818181818183,
                "tempo": 120.0
            },
            {
                "start_time": 3.0386363636363636,
                "end_time": 3.1704545454545454,
                "pitch": 56,
                "velocity": 51,
                "duration": 0.13181818181818183,
                "tempo": 120.0
            },
            {
                "start_time": 3.186363636363636,
                "end_time": 3.3227272727272728,
                "pitch": 57,
                "velocity": 51,
                "duration": 0.1363636363636367,
                "tempo": 120.0
            },
            {
                "start_time": 3.3386363636363634,
                "end_time": 3.4727272727272727,
                "pitch": 59,
                "velocity": 51,
                "duration": 0.13409090909090926,
                "tempo": 120.0
            },
            {
                "start_time": 3.4909090909090907,
                "end_time": 3.625,
                "pitch": 60,
                "velocity": 51,
                "duration": 0.13409090909090926,
                "tempo": 120.0
            },
            {
                "start_time": 3.9454545454545453,
                "end_time": 4.079545454545454,
                "pitch": 56,
                "velocity": 51,
                "duration": 0.13409090909090882,
                "tempo": 120.0
            },
            {
                "start_time": 4.095454545454546,
                "end_time": 4.2318181818181815,
                "pitch": 57,
                "velocity": 51,
                "duration": 0.1363636363636358,
                "tempo": 120.0
            },
            {
                "start_time": 4.247727272727272,
                "end_time": 4.6886363636363635,
                "pitch": 52,
                "velocity": 51,
                "duration": 0.44090909090909136,
                "tempo": 120.0
            },
            {
                "start_time": 4.704545454545454,
                "end_time": 4.840909090909091,
                "pitch": 56,
                "velocity": 51,
                "duration": 0.1363636363636367,
                "tempo": 120.0
            },
            {
                "start_time": 4.8590909090909085,
                "end_time": 4.993181818181818,
                "pitch": 57,
                "velocity": 51,
                "duration": 0.1340909090909097,
                "tempo": 120.0
            },
            {
                "start_time": 5.011363636363636,
                "end_time": 5.143181818181818,
                "pitch": 59,
                "velocity": 51,
                "duration": 0.13181818181818183,
                "tempo": 120.0
            },
            {
                "start_time": 5.159090909090909,
                "end_time": 5.290909090909091,
                "pitch": 60,
                "velocity": 51,
                "duration": 0.13181818181818183,
                "tempo": 120.0
            },
            {
                "start_time": 5.456818181818181,
                "end_time": 5.588636363636363,
                "pitch": 56,
                "velocity": 51,
                "duration": 0.13181818181818183,
                "tempo": 120.0
            },
            {
                "start_time": 5.6045454545454545,
                "end_time": 5.74090909090909,
                "pitch": 57,
                "velocity": 51,
                "duration": 0.1363636363636358,
                "tempo": 120.0
            },
            {
                "start_time": 5.756818181818182,
                "end_time": 5.890909090909091,
                "pitch": 59,
                "velocity": 51,
                "duration": 0.13409090909090882,
                "tempo": 120.0
            },
            {
                "start_time": 5.909090909090909,
                "end_time": 6.043181818181818,
                "pitch": 60,
                "velocity": 51,
                "duration": 0.13409090909090882,
                "tempo": 120.0
            },
            {
                "start_time": 6.361363636363636,
                "end_time": 6.495454545454545,
                "pitch": 56,
                "velocity": 51,
                "duration": 0.13409090909090882,
                "tempo": 120.0
            },
            {
                "start_time": 6.511363636363636,
                "end_time": 6.6454545454545455,
                "pitch": 57,
                "velocity": 51,
                "duration": 0.1340909090909097,
                "tempo": 120.0
            },
            {
                "start_time": 6.661363636363636,
                "end_time": 7.1,
                "pitch": 52,
                "velocity": 51,
                "duration": 0.4386363636363635,
                "tempo": 120.0
            },
            {
                "start_time": 7.118181818181818,
                "end_time": 7.252272727272727,
                "pitch": 56,
                "velocity": 51,
                "duration": 0.13409090909090882,
                "tempo": 120.0
            },
            {
                "start_time": 7.2704545454545455,
                "end_time": 7.406818181818181,
                "pitch": 57,
                "velocity": 51,
                "duration": 0.1363636363636358,
                "tempo": 120.0
            },
            {
                "start_time": 7.422727272727272,
                "end_time": 7.556818181818182,
                "pitch": 59,
                "velocity": 51,
                "duration": 0.1340909090909097,
                "tempo": 120.0
            },
            {
                "start_time": 7.572727272727272,
                "end_time": 7.706818181818181,
                "pitch": 60,
                "velocity": 51,
                "duration": 0.13409090909090882,
                "tempo": 120.0
            },
            {
                "start_time": 7.872727272727272,
                "end_time": 8.006818181818181,
                "pitch": 56,
                "velocity": 51,
                "duration": 0.13409090909090882,
                "tempo": 120.0
            },
            {
                "start_time": 8.022727272727272,
                "end_time": 8.154545454545454,
                "pitch": 57,
                "velocity": 51,
                "duration": 0.13181818181818272,
                "tempo": 120.0
            },
            {
                "start_time": 8.172727272727272,
                "end_time": 8.304545454545455,
                "pitch": 59,
                "velocity": 51,
                "duration": 0.13181818181818272,
                "tempo": 120.0
            },
            {
                "start_time": 8.320454545454545,
                "end_time": 8.452272727272726,
                "pitch": 60,
                "velocity": 51,
                "duration": 0.13181818181818095,
                "tempo": 120.0
            },
            {
                "start_time": 8.768181818181818,
                "end_time": 8.9,
                "pitch": 56,
                "velocity": 51,
                "duration": 0.13181818181818272,
                "tempo": 120.0
            },
            {
                "start_time": 8.918181818181818,
                "end_time": 9.049999999999999,
                "pitch": 57,
                "velocity": 51,
                "duration": 0.13181818181818095,
                "tempo": 120.0
            },
            {
                "start_time": 9.068181818181818,
                "end_time": 9.506818181818181,
                "pitch": 52,
                "velocity": 51,
                "duration": 0.4386363636363626,
                "tempo": 120.0
            },
            {
                "start_time": 9.522727272727272,
                "end_time": 10.706818181818182,
                "pitch": 64,
                "velocity": 51,
                "duration": 1.1840909090909104,
                "tempo": 120.0
            },
            {
                "start_time": 10.722727272727273,
                "end_time": 11.306818181818182,
                "pitch": 62,
                "velocity": 51,
                "duration": 0.584090909090909,
                "tempo": 120.0
            },
            {
                "start_time": 11.322727272727272,
                "end_time": 11.60681818181818,
                "pitch": 60,
                "velocity": 51,
                "duration": 0.2840909090909083,
                "tempo": 120.0
            },
            {
                "start_time": 11.622727272727273,
                "end_time": 11.906818181818181,
                "pitch": 62,
                "velocity": 51,
                "duration": 0.2840909090909083,
                "tempo": 120.0
            },
            {
                "start_time": 11.922727272727272,
                "end_time": 12.056818181818182,
                "pitch": 64,
                "velocity": 51,
                "duration": 0.1340909090909097,
                "tempo": 120.0
            },
            {
                "start_time": 12.072727272727272,
                "end_time": 12.206818181818182,
                "pitch": 62,
                "velocity": 51,
                "duration": 0.1340909090909097,
                "tempo": 120.0
            },
            {
                "start_time": 12.222727272727273,
                "end_time": 14.013636363636364,
                "pitch": 65,
                "velocity": 51,
                "duration": 1.790909090909091,
                "tempo": 120.0
            },
            {
                "start_time": 14.329545454545453,
                "end_time": 15.513636363636364,
                "pitch": 64,
                "velocity": 51,
                "duration": 1.1840909090909104,
                "tempo": 120.0
            },
            {
                "start_time": 15.529545454545454,
                "end_time": 16.11590909090909,
                "pitch": 62,
                "velocity": 51,
                "duration": 0.5863636363636342,
                "tempo": 120.0
            },
            {
                "start_time": 16.131818181818183,
                "end_time": 16.418181818181818,
                "pitch": 60,
                "velocity": 51,
                "duration": 0.28636363636363527,
                "tempo": 120.0
            },
            {
                "start_time": 16.436363636363634,
                "end_time": 16.71818181818182,
                "pitch": 62,
                "velocity": 51,
                "duration": 0.28181818181818485,
                "tempo": 120.0
            },
            {
                "start_time": 16.736363636363635,
                "end_time": 16.868181818181817,
                "pitch": 65,
                "velocity": 51,
                "duration": 0.13181818181818272,
                "tempo": 120.0
            },
            {
                "start_time": 16.886363636363637,
                "end_time": 18.38181818181818,
                "pitch": 62,
                "velocity": 51,
                "duration": 1.4954545454545425,
                "tempo": 120.0
            },
            {
                "start_time": 18.69772727272727,
                "end_time": 19.134090909090908,
                "pitch": 72,
                "velocity": 51,
                "duration": 0.4363636363636374,
                "tempo": 120.0
            }
        ],
        "Synth Bass 1": [
            {
                "start_time": 0.013636363636363636,
                "end_time": 0.07954545454545454,
                "pitch": 38,
                "velocity": 51,
                "duration": 0.0659090909090909,
                "tempo": 120.0
            },
            {
                "start_time": 0.09090909090909091,
                "end_time": 0.17954545454545454,
                "pitch": 38,
                "velocity": 51,
                "duration": 0.08863636363636362,
                "tempo": 120.0
            },
            {
                "start_time": 0.1909090909090909,
                "end_time": 0.32045454545454544,
                "pitch": 38,
                "velocity": 51,
                "duration": 0.12954545454545455,
                "tempo": 120.0
            },
            {
                "start_time": 0.33636363636363636,
                "end_time": 0.47045454545454546,
                "pitch": 38,
                "velocity": 51,
                "duration": 0.1340909090909091,
                "tempo": 120.0
            },
            {
                "start_time": 0.48636363636363633,
                "end_time": 0.6204545454545454,
                "pitch": 38,
                "velocity": 51,
                "duration": 0.13409090909090904,
                "tempo": 120.0
            },
            {
                "start_time": 0.6363636363636364,
                "end_time": 0.7704545454545454,
                "pitch": 38,
                "velocity": 51,
                "duration": 0.13409090909090904,
                "tempo": 120.0
            },
            {
                "start_time": 0.7863636363636364,
                "end_time": 0.9181818181818181,
                "pitch": 38,
                "velocity": 51,
                "duration": 0.13181818181818172,
                "tempo": 120.0
            },
            {
                "start_time": 0.9363636363636363,
                "end_time": 1.0681818181818181,
                "pitch": 38,
                "velocity": 51,
                "duration": 0.13181818181818183,
                "tempo": 120.0
            },
            {
                "start_time": 1.084090909090909,
                "end_time": 1.2159090909090908,
                "pitch": 38,
                "velocity": 51,
                "duration": 0.13181818181818183,
                "tempo": 120.0
            },
            {
                "start_time": 1.2318181818181817,
                "end_time": 1.3636363636363635,
                "pitch": 38,
                "velocity": 51,
                "duration": 0.13181818181818183,
                "tempo": 120.0
            },
            {
                "start_time": 1.3818181818181818,
                "end_time": 1.5136363636363637,
                "pitch": 38,
                "velocity": 51,
                "duration": 0.13181818181818183,
                "tempo": 120.0
            },
            {
                "start_time": 1.5318181818181817,
                "end_time": 1.6636363636363636,
                "pitch": 38,
                "velocity": 51,
                "duration": 0.13181818181818183,
                "tempo": 120.0
            },
            {
                "start_time": 1.6818181818181817,
                "end_time": 1.8136363636363635,
                "pitch": 38,
                "velocity": 51,
                "duration": 0.13181818181818183,
                "tempo": 120.0
            },
            {
                "start_time": 1.8318181818181818,
                "end_time": 2.2704545454545455,
                "pitch": 48,
                "velocity": 51,
                "duration": 0.4386363636363637,
                "tempo": 120.0
            },
            {
                "start_time": 2.286363636363636,
                "end_time": 2.4227272727272724,
                "pitch": 38,
                "velocity": 51,
                "duration": 0.13636363636363624,
                "tempo": 120.0
            },
            {
                "start_time": 2.440909090909091,
                "end_time": 2.5749999999999997,
                "pitch": 38,
                "velocity": 51,
                "duration": 0.13409090909090882,
                "tempo": 120.0
            },
            {
                "start_time": 2.5931818181818183,
                "end_time": 2.725,
                "pitch": 38,
                "velocity": 51,
                "duration": 0.13181818181818183,
                "tempo": 120.0
            },
            {
                "start_time": 2.7409090909090907,
                "end_time": 2.8727272727272726,
                "pitch": 38,
                "velocity": 51,
                "duration": 0.13181818181818183,
                "tempo": 120.0
            },
            {
                "start_time": 2.8909090909090907,
                "end_time": 3.0227272727272725,
                "pitch": 38,
                "velocity": 51,
                "duration": 0.13181818181818183,
                "tempo": 120.0
            },
            {
                "start_time": 3.0386363636363636,
                "end_time": 3.1704545454545454,
                "pitch": 38,
                "velocity": 51,
                "duration": 0.13181818181818183,
                "tempo": 120.0
            },
            {
                "start_time": 3.186363636363636,
                "end_time": 3.3227272727272728,
                "pitch": 38,
                "velocity": 51,
                "duration": 0.1363636363636367,
                "tempo": 120.0
            },
            {
                "start_time": 3.3386363636363634,
                "end_time": 3.4727272727272727,
                "pitch": 38,
                "velocity": 51,
                "duration": 0.13409090909090926,
                "tempo": 120.0
            },
            {
                "start_time": 3.4909090909090907,
                "end_time": 3.625,
                "pitch": 38,
                "velocity": 51,
                "duration": 0.13409090909090926,
                "tempo": 120.0
            },
            {
                "start_time": 3.6409090909090907,
                "end_time": 3.777272727272727,
                "pitch": 38,
                "velocity": 51,
                "duration": 0.13636363636363624,
                "tempo": 120.0
            },
            {
                "start_time": 3.793181818181818,
                "end_time": 3.9272727272727272,
                "pitch": 38,
                "velocity": 51,
                "duration": 0.13409090909090926,
                "tempo": 120.0
            },
            {
                "start_time": 3.9454545454545453,
                "end_time": 4.079545454545454,
                "pitch": 38,
                "velocity": 51,
                "duration": 0.13409090909090882,
                "tempo": 120.0
            },
            {
                "start_time": 4.095454545454546,
                "end_time": 4.2318181818181815,
                "pitch": 38,
                "velocity": 51,
                "duration": 0.1363636363636358,
                "tempo": 120.0
            },
            {
                "start_time": 4.247727272727272,
                "end_time": 4.6886363636363635,
                "pitch": 48,
                "velocity": 51,
                "duration": 0.44090909090909136,
                "tempo": 120.0
            },
            {
                "start_time": 4.704545454545454,
                "end_time": 4.840909090909091,
                "pitch": 38,
                "velocity": 51,
                "duration": 0.1363636363636367,
                "tempo": 120.0
            },
            {
                "start_time": 4.8590909090909085,
                "end_time": 4.993181818181818,
                "pitch": 38,
                "velocity": 51,
                "duration": 0.1340909090909097,
                "tempo": 120.0
            },
            {
                "start_time": 5.011363636363636,
                "end_time": 5.143181818181818,
                "pitch": 38,
                "velocity": 51,
                "duration": 0.13181818181818183,
                "tempo": 120.0
            },
            {
                "start_time": 5.159090909090909,
                "end_time": 5.290909090909091,
                "pitch": 38,
                "velocity": 51,
                "duration": 0.13181818181818183,
                "tempo": 120.0
            },
            {
                "start_time": 5.309090909090909,
                "end_time": 5.4409090909090905,
                "pitch": 38,
                "velocity": 51,
                "duration": 0.13181818181818183,
                "tempo": 120.0
            },
            {
                "start_time": 5.456818181818181,
                "end_time": 5.588636363636363,
                "pitch": 38,
                "velocity": 51,
                "duration": 0.13181818181818183,
                "tempo": 120.0
            },
            {
                "start_time": 5.6045454545454545,
                "end_time": 5.74090909090909,
                "pitch": 38,
                "velocity": 51,
                "duration": 0.1363636363636358,
                "tempo": 120.0
            },
            {
                "start_time": 5.756818181818182,
                "end_time": 5.890909090909091,
                "pitch": 38,
                "velocity": 51,
                "duration": 0.13409090909090882,
                "tempo": 120.0
            },
            {
                "start_time": 5.909090909090909,
                "end_time": 6.043181818181818,
                "pitch": 38,
                "velocity": 51,
                "duration": 0.13409090909090882,
                "tempo": 120.0
            },
            {
                "start_time": 6.059090909090909,
                "end_time": 6.195454545454545,
                "pitch": 38,
                "velocity": 51,
                "duration": 0.1363636363636367,
                "tempo": 120.0
            },
            {
                "start_time": 6.211363636363636,
                "end_time": 6.345454545454545,
                "pitch": 38,
                "velocity": 51,
                "duration": 0.13409090909090882,
                "tempo": 120.0
            },
            {
                "start_time": 6.361363636363636,
                "end_time": 6.495454545454545,
                "pitch": 38,
                "velocity": 51,
                "duration": 0.13409090909090882,
                "tempo": 120.0
            },
            {
                "start_time": 6.511363636363636,
                "end_time": 6.6454545454545455,
                "pitch": 38,
                "velocity": 51,
                "duration": 0.1340909090909097,
                "tempo": 120.0
            },
            {
                "start_time": 6.661363636363636,
                "end_time": 7.1,
                "pitch": 48,
                "velocity": 51,
                "duration": 0.4386363636363635,
                "tempo": 120.0
            },
            {
                "start_time": 7.118181818181818,
                "end_time": 7.252272727272727,
                "pitch": 38,
                "velocity": 51,
                "duration": 0.13409090909090882,
                "tempo": 120.0
            },
            {
                "start_time": 7.2704545454545455,
                "end_time": 7.406818181818181,
                "pitch": 38,
                "velocity": 51,
                "duration": 0.1363636363636358,
                "tempo": 120.0
            },
            {
                "start_time": 7.422727272727272,
                "end_time": 7.556818181818182,
                "pitch": 38,
                "velocity": 51,
                "duration": 0.1340909090909097,
                "tempo": 120.0
            },
            {
                "start_time": 7.572727272727272,
                "end_time": 7.706818181818181,
                "pitch": 38,
                "velocity": 51,
                "duration": 0.13409090909090882,
                "tempo": 120.0
            },
            {
                "start_time": 7.722727272727273,
                "end_time": 7.8568181818181815,
                "pitch": 38,
                "velocity": 51,
                "duration": 0.13409090909090882,
                "tempo": 120.0
            },
            {
                "start_time": 7.872727272727272,
                "end_time": 8.006818181818181,
                "pitch": 38,
                "velocity": 51,
                "duration": 0.13409090909090882,
                "tempo": 120.0
            },
            {
                "start_time": 8.022727272727272,
                "end_time": 8.154545454545454,
                "pitch": 38,
                "velocity": 51,
                "duration": 0.13181818181818272,
                "tempo": 120.0
            },
            {
                "start_time": 8.172727272727272,
                "end_time": 8.304545454545455,
                "pitch": 38,
                "velocity": 51,
                "duration": 0.13181818181818272,
                "tempo": 120.0
            },
            {
                "start_time": 8.320454545454545,
                "end_time": 8.452272727272726,
                "pitch": 38,
                "velocity": 51,
                "duration": 0.13181818181818095,
                "tempo": 120.0
            },
            {
                "start_time": 8.468181818181817,
                "end_time": 8.602272727272727,
                "pitch": 38,
                "velocity": 51,
                "duration": 0.1340909090909097,
                "tempo": 120.0
            },
            {
                "start_time": 8.618181818181817,
                "end_time": 8.75,
                "pitch": 38,
                "velocity": 51,
                "duration": 0.13181818181818272,
                "tempo": 120.0
            },
            {
                "start_time": 8.768181818181818,
                "end_time": 8.9,
                "pitch": 38,
                "velocity": 51,
                "duration": 0.13181818181818272,
                "tempo": 120.0
            },
            {
                "start_time": 8.918181818181818,
                "end_time": 9.049999999999999,
                "pitch": 38,
                "velocity": 51,
                "duration": 0.13181818181818095,
                "tempo": 120.0
            },
            {
                "start_time": 9.068181818181818,
                "end_time": 9.506818181818181,
                "pitch": 48,
                "velocity": 51,
                "duration": 0.4386363636363626,
                "tempo": 120.0
            },
            {
                "start_time": 9.522727272727272,
                "end_time": 9.659090909090908,
                "pitch": 48,
                "velocity": 51,
                "duration": 0.1363636363636367,
                "tempo": 120.0
            },
            {
                "start_time": 9.677272727272726,
                "end_time": 9.813636363636363,
                "pitch": 48,
                "velocity": 51,
                "duration": 0.1363636363636367,
                "tempo": 120.0
            },
            {
                "start_time": 9.829545454545453,
                "end_time": 9.961363636363636,
                "pitch": 48,
                "velocity": 51,
                "duration": 0.13181818181818272,
                "tempo": 120.0
            },
            {
                "start_time": 9.977272727272727,
                "end_time": 10.111363636363636,
                "pitch": 48,
                "velocity": 51,
                "duration": 0.1340909090909097,
                "tempo": 120.0
            },
            {
                "start_time": 10.127272727272727,
                "end_time": 10.259090909090908,
                "pitch": 48,
                "velocity": 51,
                "duration": 0.13181818181818095,
                "tempo": 120.0
            },
            {
                "start_time": 10.275,
                "end_time": 10.406818181818181,
                "pitch": 48,
                "velocity": 51,
                "duration": 0.13181818181818095,
                "tempo": 120.0
            },
            {
                "start_time": 10.422727272727272,
                "end_time": 10.556818181818182,
                "pitch": 48,
                "velocity": 51,
                "duration": 0.1340909090909097,
                "tempo": 120.0
            },
            {
                "start_time": 10.572727272727272,
                "end_time": 10.706818181818182,
                "pitch": 48,
                "velocity": 51,
                "duration": 0.1340909090909097,
                "tempo": 120.0
            },
            {
                "start_time": 10.722727272727273,
                "end_time": 10.85681818181818,
                "pitch": 48,
                "velocity": 51,
                "duration": 0.13409090909090793,
                "tempo": 120.0
            },
            {
                "start_time": 10.872727272727273,
                "end_time": 11.006818181818181,
                "pitch": 48,
                "velocity": 51,
                "duration": 0.13409090909090793,
                "tempo": 120.0
            },
            {
                "start_time": 11.022727272727272,
                "end_time": 11.156818181818181,
                "pitch": 48,
                "velocity": 51,
                "duration": 0.1340909090909097,
                "tempo": 120.0
            },
            {
                "start_time": 11.172727272727272,
                "end_time": 11.306818181818182,
                "pitch": 48,
                "velocity": 51,
                "duration": 0.1340909090909097,
                "tempo": 120.0
            },
            {
                "start_time": 11.322727272727272,
                "end_time": 11.456818181818182,
                "pitch": 48,
                "velocity": 51,
                "duration": 0.1340909090909097,
                "tempo": 120.0
            },
            {
                "start_time": 11.472727272727273,
                "end_time": 11.60681818181818,
                "pitch": 48,
                "velocity": 51,
                "duration": 0.13409090909090793,
                "tempo": 120.0
            },
            {
                "start_time": 11.622727272727273,
                "end_time": 11.756818181818181,
                "pitch": 48,
                "velocity": 51,
                "duration": 0.13409090909090793,
                "tempo": 120.0
            },
            {
                "start_time": 11.772727272727272,
                "end_time": 11.906818181818181,
                "pitch": 48,
                "velocity": 51,
                "duration": 0.1340909090909097,
                "tempo": 120.0
            },
            {
                "start_time": 11.922727272727272,
                "end_time": 12.056818181818182,
                "pitch": 38,
                "velocity": 51,
                "duration": 0.1340909090909097,
                "tempo": 120.0
            },
            {
                "start_time": 12.072727272727272,
                "end_time": 12.206818181818182,
                "pitch": 38,
                "velocity": 51,
                "duration": 0.1340909090909097,
                "tempo": 120.0
            },
            {
                "start_time": 12.222727272727273,
                "end_time": 12.35909090909091,
                "pitch": 38,
                "velocity": 51,
                "duration": 0.1363636363636367,
                "tempo": 120.0
            },
            {
                "start_time": 12.377272727272727,
                "end_time": 12.513636363636364,
                "pitch": 38,
                "velocity": 51,
                "duration": 0.1363636363636367,
                "tempo": 120.0
            },
            {
                "start_time": 12.529545454545454,
                "end_time": 12.665909090909091,
                "pitch": 38,
                "velocity": 51,
                "duration": 0.1363636363636367,
                "tempo": 120.0
            },
            {
                "start_time": 12.681818181818182,
                "end_time": 12.818181818181818,
                "pitch": 38,
                "velocity": 51,
                "duration": 0.1363636363636367,
                "tempo": 120.0
            },
            {
                "start_time": 12.836363636363636,
                "end_time": 12.968181818181817,
                "pitch": 38,
                "velocity": 51,
                "duration": 0.13181818181818095,
                "tempo": 120.0
            },
            {
                "start_time": 12.984090909090908,
                "end_time": 13.11590909090909,
                "pitch": 38,
                "velocity": 51,
                "duration": 0.13181818181818272,
                "tempo": 120.0
            },
            {
                "start_time": 13.131818181818181,
                "end_time": 13.26590909090909,
                "pitch": 38,
                "velocity": 51,
                "duration": 0.1340909090909097,
                "tempo": 120.0
            },
            {
                "start_time": 13.281818181818181,
                "end_time": 13.413636363636362,
                "pitch": 38,
                "velocity": 51,
                "duration": 0.13181818181818095,
                "tempo": 120.0
            },
            {
                "start_time": 13.429545454545455,
                "end_time": 13.563636363636363,
                "pitch": 38,
                "velocity": 51,
                "duration": 0.13409090909090793,
                "tempo": 120.0
            },
            {
                "start_time": 13.579545454545453,
                "end_time": 13.713636363636363,
                "pitch": 38,
                "velocity": 51,
                "duration": 0.1340909090909097,
                "tempo": 120.0
            },
            {
                "start_time": 13.729545454545454,
                "end_time": 13.863636363636363,
                "pitch": 50,
                "velocity": 51,
                "duration": 0.1340909090909097,
                "tempo": 120.0
            },
            {
                "start_time": 13.879545454545454,
                "end_time": 14.013636363636364,
                "pitch": 38,
                "velocity": 51,
                "duration": 0.1340909090909097,
                "tempo": 120.0
            },
            {
                "start_time": 14.029545454545454,
                "end_time": 14.163636363636362,
                "pitch": 50,
                "velocity": 51,
                "duration": 0.13409090909090793,
                "tempo": 120.0
            },
            {
                "start_time": 14.179545454545455,
                "end_time": 14.313636363636363,
                "pitch": 38,
                "velocity": 51,
                "duration": 0.13409090909090793,
                "tempo": 120.0
            },
            {
                "start_time": 14.329545454545453,
                "end_time": 14.463636363636363,
                "pitch": 48,
                "velocity": 51,
                "duration": 0.1340909090909097,
                "tempo": 120.0
            },
            {
                "start_time": 14.479545454545454,
                "end_time": 14.613636363636363,
                "pitch": 48,
                "velocity": 51,
                "duration": 0.1340909090909097,
                "tempo": 120.0
            },
            {
                "start_time": 14.629545454545454,
                "end_time": 14.763636363636364,
                "pitch": 48,
                "velocity": 51,
                "duration": 0.1340909090909097,
                "tempo": 120.0
            },
            {
                "start_time": 14.779545454545454,
                "end_time": 14.913636363636362,
                "pitch": 48,
                "velocity": 51,
                "duration": 0.13409090909090793,
                "tempo": 120.0
            },
            {
                "start_time": 14.929545454545455,
                "end_time": 15.063636363636363,
                "pitch": 48,
                "velocity": 51,
                "duration": 0.13409090909090793,
                "tempo": 120.0
            },
            {
                "start_time": 15.079545454545453,
                "end_time": 15.213636363636363,
                "pitch": 48,
                "velocity": 51,
                "duration": 0.1340909090909097,
                "tempo": 120.0
            },
            {
                "start_time": 15.229545454545454,
                "end_time": 15.363636363636363,
                "pitch": 48,
                "velocity": 51,
                "duration": 0.1340909090909097,
                "tempo": 120.0
            },
            {
                "start_time": 15.379545454545454,
                "end_time": 15.513636363636364,
                "pitch": 48,
                "velocity": 51,
                "duration": 0.1340909090909097,
                "tempo": 120.0
            },
            {
                "start_time": 15.529545454545454,
                "end_time": 15.663636363636362,
                "pitch": 48,
                "velocity": 51,
                "duration": 0.13409090909090793,
                "tempo": 120.0
            },
            {
                "start_time": 15.679545454545453,
                "end_time": 15.813636363636363,
                "pitch": 48,
                "velocity": 51,
                "duration": 0.1340909090909097,
                "tempo": 120.0
            },
            {
                "start_time": 15.829545454545453,
                "end_time": 15.963636363636363,
                "pitch": 48,
                "velocity": 51,
                "duration": 0.1340909090909097,
                "tempo": 120.0
            },
            {
                "start_time": 15.98181818181818,
                "end_time": 16.11590909090909,
                "pitch": 48,
                "velocity": 51,
                "duration": 0.13409090909090793,
                "tempo": 120.0
            },
            {
                "start_time": 16.131818181818183,
                "end_time": 16.268181818181816,
                "pitch": 48,
                "velocity": 51,
                "duration": 0.13636363636363313,
                "tempo": 120.0
            },
            {
                "start_time": 16.28409090909091,
                "end_time": 16.418181818181818,
                "pitch": 48,
                "velocity": 51,
                "duration": 0.13409090909090793,
                "tempo": 120.0
            },
            {
                "start_time": 16.436363636363634,
                "end_time": 16.568181818181817,
                "pitch": 48,
                "velocity": 51,
                "duration": 0.13181818181818272,
                "tempo": 120.0
            },
            {
                "start_time": 16.586363636363636,
                "end_time": 16.71818181818182,
                "pitch": 48,
                "velocity": 51,
                "duration": 0.13181818181818272,
                "tempo": 120.0
            },
            {
                "start_time": 16.736363636363635,
                "end_time": 16.868181818181817,
                "pitch": 38,
                "velocity": 51,
                "duration": 0.13181818181818272,
                "tempo": 120.0
            },
            {
                "start_time": 16.886363636363637,
                "end_time": 17.018181818181816,
                "pitch": 38,
                "velocity": 51,
                "duration": 0.13181818181817917,
                "tempo": 120.0
            },
            {
                "start_time": 17.036363636363635,
                "end_time": 17.170454545454543,
                "pitch": 38,
                "velocity": 51,
                "duration": 0.13409090909090793,
                "tempo": 120.0
            },
            {
                "start_time": 17.186363636363634,
                "end_time": 17.32272727272727,
                "pitch": 38,
                "velocity": 51,
                "duration": 0.1363636363636367,
                "tempo": 120.0
            },
            {
                "start_time": 17.33863636363636,
                "end_time": 17.472727272727273,
                "pitch": 38,
                "velocity": 51,
                "duration": 0.13409090909091148,
                "tempo": 120.0
            },
            {
                "start_time": 17.49090909090909,
                "end_time": 17.625,
                "pitch": 38,
                "velocity": 51,
                "duration": 0.13409090909091148,
                "tempo": 120.0
            },
            {
                "start_time": 17.64090909090909,
                "end_time": 17.777272727272727,
                "pitch": 38,
                "velocity": 51,
                "duration": 0.1363636363636367,
                "tempo": 120.0
            },
            {
                "start_time": 17.793181818181818,
                "end_time": 17.927272727272726,
                "pitch": 38,
                "velocity": 51,
                "duration": 0.13409090909090793,
                "tempo": 120.0
            },
            {
                "start_time": 17.945454545454545,
                "end_time": 18.079545454545453,
                "pitch": 38,
                "velocity": 51,
                "duration": 0.13409090909090793,
                "tempo": 120.0
            },
            {
                "start_time": 18.095454545454544,
                "end_time": 18.23181818181818,
                "pitch": 38,
                "velocity": 51,
                "duration": 0.1363636363636367,
                "tempo": 120.0
            },
            {
                "start_time": 18.24772727272727,
                "end_time": 18.38181818181818,
                "pitch": 38,
                "velocity": 51,
                "duration": 0.13409090909090793,
                "tempo": 120.0
            },
            {
                "start_time": 18.397727272727273,
                "end_time": 18.44772727272727,
                "pitch": 38,
                "velocity": 51,
                "duration": 0.04999999999999716,
                "tempo": 120.0
            },
            {
                "start_time": 18.48181818181818,
                "end_time": 18.53181818181818,
                "pitch": 38,
                "velocity": 51,
                "duration": 0.05000000000000071,
                "tempo": 120.0
            },
            {
                "start_time": 18.547727272727272,
                "end_time": 18.68181818181818,
                "pitch": 38,
                "velocity": 51,
                "duration": 0.13409090909090793,
                "tempo": 120.0
            },
            {
                "start_time": 18.69772727272727,
                "end_time": 19.134090909090908,
                "pitch": 50,
                "velocity": 51,
                "duration": 0.4363636363636374,
                "tempo": 120.0
            }
        ]
    }
}