{
    "track_id": "Dynamite Dux (FM) - 05 - Little Texas",
    "mood": "angry",
    "instruments": {
        "Harpsichord": [
            {
                "start_time": 0.00909090909090909,
                "end_time": 0.3136363636363636,
                "pitch": 62,
                "velocity": 64,
                "duration": 0.3045454545454545,
                "tempo": 120.0
            },
            {
                "start_time": 0.3318181818181818,
                "end_time": 0.4318181818181818,
                "pitch": 62,
                "velocity": 64,
                "duration": 0.10000000000000003,
                "tempo": 120.0
            },
            {
                "start_time": 0.6977272727272726,
                "end_time": 0.8181818181818181,
                "pitch": 62,
                "velocity": 64,
                "duration": 0.12045454545454548,
                "tempo": 120.0
            },
            {
                "start_time": 1.2113636363636362,
                "end_time": 1.4431818181818181,
                "pitch": 60,
                "velocity": 64,
                "duration": 0.23181818181818192,
                "tempo": 120.0
            },
            {
                "start_time": 1.4613636363636362,
                "end_time": 1.6931818181818181,
                "pitch": 62,
                "velocity": 64,
                "duration": 0.23181818181818192,
                "tempo": 120.0
            },
            {
                "start_time": 2.0931818181818183,
                "end_time": 2.1113636363636363,
                "pitch": 61,
                "velocity": 64,
                "duration": 0.018181818181818077,
                "tempo": 120.0
            },
            {
                "start_time": 2.127272727272727,
                "end_time": 2.193181818181818,
                "pitch": 62,
                "velocity": 64,
                "duration": 0.06590909090909092,
                "tempo": 120.0
            },
            {
                "start_time": 2.2113636363636364,
                "end_time": 2.3295454545454546,
                "pitch": 62,
                "velocity": 64,
                "duration": 0.11818181818181817,
                "tempo": 120.0
            },
            {
                "start_time": 2.3477272727272727,
                "end_time": 2.4499999999999997,
                "pitch": 62,
                "velocity": 64,
                "duration": 0.10227272727272707,
                "tempo": 120.0
            },
            {
                "start_time": 2.465909090909091,
                "end_time": 2.5863636363636364,
                "pitch": 62,
                "velocity": 64,
                "duration": 0.12045454545454559,
                "tempo": 120.0
            },
            {
                "start_time": 2.602272727272727,
                "end_time": 2.7068181818181816,
                "pitch": 62,
                "velocity": 64,
                "duration": 0.1045454545454545,
                "tempo": 120.0
            },
            {
                "start_time": 2.7227272727272727,
                "end_time": 2.8386363636363634,
                "pitch": 62,
                "velocity": 64,
                "duration": 0.11590909090909074,
                "tempo": 120.0
            },
            {
                "start_time": 2.8568181818181815,
                "end_time": 2.9568181818181816,
                "pitch": 62,
                "velocity": 64,
                "duration": 0.10000000000000009,
                "tempo": 120.0
            },
            {
                "start_time": 2.9727272727272727,
                "end_time": 3.0886363636363634,
                "pitch": 62,
                "velocity": 64,
                "duration": 0.11590909090909074,
                "tempo": 120.0
            },
            {
                "start_time": 3.1068181818181815,
                "end_time": 3.2068181818181816,
                "pitch": 62,
                "velocity": 64,
                "duration": 0.10000000000000009,
                "tempo": 120.0
            },
            {
                "start_time": 3.2227272727272727,
                "end_time": 3.343181818181818,
                "pitch": 62,
                "velocity": 64,
                "duration": 0.12045454545454515,
                "tempo": 120.0
            },
            {
                "start_time": 3.359090909090909,
                "end_time": 3.461363636363636,
                "pitch": 62,
                "velocity": 64,
                "duration": 0.10227272727272707,
                "tempo": 120.0
            },
            {
                "start_time": 3.4795454545454545,
                "end_time": 3.5977272727272727,
                "pitch": 62,
                "velocity": 64,
                "duration": 0.11818181818181817,
                "tempo": 120.0
            },
            {
                "start_time": 3.6159090909090907,
                "end_time": 3.718181818181818,
                "pitch": 62,
                "velocity": 64,
                "duration": 0.10227272727272707,
                "tempo": 120.0
            },
            {
                "start_time": 3.7363636363636363,
                "end_time": 3.8499999999999996,
                "pitch": 62,
                "velocity": 64,
                "duration": 0.11363636363636331,
                "tempo": 120.0
            },
            {
                "start_time": 3.8659090909090907,
                "end_time": 3.965909090909091,
                "pitch": 62,
                "velocity": 64,
                "duration": 0.10000000000000009,
                "tempo": 120.0
            },
            {
                "start_time": 3.9818181818181815,
                "end_time": 4.047727272727273,
                "pitch": 65,
                "velocity": 64,
                "duration": 0.06590909090909136,
                "tempo": 120.0
            },
            {
                "start_time": 4.0636363636363635,
                "end_time": 4.343181818181818,
                "pitch": 66,
                "velocity": 64,
                "duration": 0.2795454545454543,
                "tempo": 120.0
            },
            {
                "start_time": 4.361363636363636,
                "end_time": 4.593181818181818,
                "pitch": 62,
                "velocity": 64,
                "duration": 0.23181818181818148,
                "tempo": 120.0
            },
            {
                "start_time": 5.611363636363636,
                "end_time": 5.711363636363636,
                "pitch": 57,
                "velocity": 64,
                "duration": 0.09999999999999964,
                "tempo": 120.0
            },
            {
                "start_time": 5.727272727272727,
                "end_time": 5.843181818181818,
                "pitch": 60,
                "velocity": 64,
                "duration": 0.11590909090909118,
                "tempo": 120.0
            },
            {
                "start_time": 5.861363636363636,
                "end_time": 5.961363636363636,
                "pitch": 62,
                "velocity": 64,
                "duration": 0.09999999999999964,
                "tempo": 120.0
            },
            {
                "start_time": 6.0613636363636365,
                "end_time": 6.093181818181818,
                "pitch": 61,
                "velocity": 64,
                "duration": 0.0318181818181813,
                "tempo": 120.0
            },
            {
                "start_time": 6.111363636363636,
                "end_time": 6.211363636363636,
                "pitch": 62,
                "velocity": 64,
                "duration": 0.09999999999999964,
                "tempo": 120.0
            },
            {
                "start_time": 6.227272727272727,
                "end_time": 6.343181818181818,
                "pitch": 62,
                "velocity": 64,
                "duration": 0.11590909090909118,
                "tempo": 120.0
            },
            {
                "start_time": 6.361363636363636,
                "end_time": 6.461363636363636,
                "pitch": 62,
                "velocity": 64,
                "duration": 0.09999999999999964,
                "tempo": 120.0
            },
            {
                "start_time": 6.477272727272727,
                "end_time": 6.593181818181818,
                "pitch": 62,
                "velocity": 64,
                "duration": 0.11590909090909118,
                "tempo": 120.0
            },
            {
                "start_time": 6.611363636363636,
                "end_time": 6.711363636363636,
                "pitch": 62,
                "velocity": 64,
                "duration": 0.09999999999999964,
                "tempo": 120.0
            },
            {
                "start_time": 6.727272727272727,
                "end_time": 6.843181818181818,
                "pitch": 62,
                "velocity": 64,
                "duration": 0.11590909090909118,
                "tempo": 120.0
            },
            {
                "start_time": 6.861363636363636,
                "end_time": 6.961363636363636,
                "pitch": 62,
                "velocity": 64,
                "duration": 0.09999999999999964,
                "tempo": 120.0
            },
            {
                "start_time": 6.977272727272727,
                "end_time": 7.211363636363636,
                "pitch": 62,
                "velocity": 64,
                "duration": 0.23409090909090935,
                "tempo": 120.0
            },
            {
                "start_time": 7.227272727272727,
                "end_time": 7.343181818181818,
                "pitch": 62,
                "velocity": 64,
                "duration": 0.11590909090909118,
                "tempo": 120.0
            },
            {
                "start_time": 7.361363636363636,
                "end_time": 7.593181818181818,
                "pitch": 62,
                "velocity": 64,
                "duration": 0.23181818181818148,
                "tempo": 120.0
            },
            {
                "start_time": 7.611363636363636,
                "end_time": 7.711363636363636,
                "pitch": 60,
                "velocity": 64,
                "duration": 0.09999999999999964,
                "tempo": 120.0
            },
            {
                "start_time": 7.727272727272727,
                "end_time": 7.843181818181818,
                "pitch": 57,
                "velocity": 64,
                "duration": 0.11590909090909118,
                "tempo": 120.0
            },
            {
                "start_time": 7.861363636363636,
                "end_time": 7.961363636363636,
                "pitch": 55,
                "velocity": 64,
                "duration": 0.09999999999999964,
                "tempo": 120.0
            },
            {
                "start_time": 8.111363636363636,
                "end_time": 8.211363636363636,
                "pitch": 57,
                "velocity": 64,
                "duration": 0.09999999999999964,
                "tempo": 120.0
            },
            {
                "start_time": 8.227272727272727,
                "end_time": 8.343181818181817,
                "pitch": 53,
                "velocity": 64,
                "duration": 0.1159090909090903,
                "tempo": 120.0
            },
            {
                "start_time": 8.361363636363636,
                "end_time": 8.593181818181817,
                "pitch": 50,
                "velocity": 64,
                "duration": 0.2318181818181806,
                "tempo": 120.0
            },
            {
                "start_time": 9.361363636363636,
                "end_time": 9.461363636363636,
                "pitch": 48,
                "velocity": 64,
                "duration": 0.09999999999999964,
                "tempo": 120.0
            },
            {
                "start_time": 9.477272727272727,
                "end_time": 9.593181818181817,
                "pitch": 50,
                "velocity": 64,
                "duration": 0.1159090909090903,
                "tempo": 120.0
            },
            {
                "start_time": 9.611363636363636,
                "end_time": 9.961363636363636,
                "pitch": 53,
                "velocity": 64,
                "duration": 0.34999999999999964,
                "tempo": 120.0
            },
            {
                "start_time": 9.977272727272727,
                "end_time": 10.011363636363637,
                "pitch": 54,
                "velocity": 64,
                "duration": 0.03409090909091006,
                "tempo": 120.0
            },
            {
                "start_time": 10.027272727272727,
                "end_time": 10.461363636363636,
                "pitch": 55,
                "velocity": 64,
                "duration": 0.43409090909090864,
                "tempo": 120.0
            },
            {
                "start_time": 10.477272727272727,
                "end_time": 10.711363636363636,
                "pitch": 53,
                "velocity": 64,
                "duration": 0.23409090909090935,
                "tempo": 120.0
            },
            {
                "start_time": 10.727272727272727,
                "end_time": 10.961363636363636,
                "pitch": 50,
                "velocity": 64,
                "duration": 0.23409090909090935,
                "tempo": 120.0
            },
            {
                "start_time": 10.977272727272727,
                "end_time": 11.093181818181817,
                "pitch": 55,
                "velocity": 64,
                "duration": 0.1159090909090903,
                "tempo": 120.0
            },
            {
                "start_time": 11.111363636363636,
                "end_time": 11.343181818181817,
                "pitch": 53,
                "velocity": 64,
                "duration": 0.2318181818181806,
                "tempo": 120.0
            },
            {
                "start_time": 11.361363636363636,
                "end_time": 11.461363636363636,
                "pitch": 50,
                "velocity": 64,
                "duration": 0.09999999999999964,
                "tempo": 120.0
            },
            {
                "start_time": 12.061363636363636,
                "end_time": 12.093181818181817,
                "pitch": 56,
                "velocity": 64,
                "duration": 0.0318181818181813,
                "tempo": 120.0
            },
            {
                "start_time": 12.111363636363636,
                "end_time": 12.461363636363636,
                "pitch": 57,
                "velocity": 64,
                "duration": 0.34999999999999964,
                "tempo": 120.0
            },
            {
                "start_time": 12.477272727272727,
                "end_time": 12.711363636363636,
                "pitch": 55,
                "velocity": 64,
                "duration": 0.23409090909090935,
                "tempo": 120.0
            },
            {
                "start_time": 12.727272727272727,
                "end_time": 12.961363636363636,
                "pitch": 57,
                "velocity": 64,
                "duration": 0.23409090909090935,
                "tempo": 120.0
            },
            {
                "start_time": 12.977272727272727,
                "end_time": 13.093181818181817,
                "pitch": 56,
                "velocity": 64,
                "duration": 0.1159090909090903,
                "tempo": 120.0
            },
            {
                "start_time": 13.111363636363636,
                "end_time": 13.211363636363636,
                "pitch": 55,
                "velocity": 64,
                "duration": 0.09999999999999964,
                "tempo": 120.0
            },
            {
                "start_time": 13.227272727272727,
                "end_time": 13.343181818181817,
                "pitch": 53,
                "velocity": 64,
                "duration": 0.1159090909090903,
                "tempo": 120.0
            },
            {
                "start_time": 13.361363636363636,
                "end_time": 13.593181818181817,
                "pitch": 55,
                "velocity": 64,
                "duration": 0.2318181818181806,
                "tempo": 120.0
            },
            {
                "start_time": 13.611363636363636,
                "end_time": 13.711363636363636,
                "pitch": 50,
                "velocity": 64,
                "duration": 0.09999999999999964,
                "tempo": 120.0
            },
            {
                "start_time": 13.727272727272727,
                "end_time": 13.843181818181817,
                "pitch": 48,
                "velocity": 64,
                "duration": 0.1159090909090903,
                "tempo": 120.0
            },
            {
                "start_time": 13.861363636363636,
                "end_time": 13.961363636363636,
                "pitch": 50,
                "velocity": 64,
                "duration": 0.09999999999999964,
                "tempo": 120.0
            },
            {
                "start_time": 14.061363636363636,
                "end_time": 14.093181818181817,
                "pitch": 54,
                "velocity": 64,
                "duration": 0.0318181818181813,
                "tempo": 120.0
            },
            {
                "start_time": 14.111363636363636,
                "end_time": 14.461363636363636,
                "pitch": 55,
                "velocity": 64,
                "duration": 0.34999999999999964,
                "tempo": 120.0
            },
            {
                "start_time": 14.477272727272727,
                "end_time": 14.711363636363636,
                "pitch": 53,
                "velocity": 64,
                "duration": 0.23409090909090935,
                "tempo": 120.0
            },
            {
                "start_time": 14.727272727272727,
                "end_time": 14.961363636363636,
                "pitch": 50,
                "velocity": 64,
                "duration": 0.23409090909090935,
                "tempo": 120.0
            },
            {
                "start_time": 14.977272727272727,
                "end_time": 15.093181818181817,
                "pitch": 55,
                "velocity": 64,
                "duration": 0.1159090909090903,
                "tempo": 120.0
            },
            {
                "start_time": 15.111363636363636,
                "end_time": 15.343181818181817,
                "pitch": 53,
                "velocity": 64,
                "duration": 0.2318181818181806,
                "tempo": 120.0
            },
            {
                "start_time": 15.361363636363636,
                "end_time": 15.461363636363636,
                "pitch": 50,
                "velocity": 64,
                "duration": 0.09999999999999964,
                "tempo": 120.0
            },
            {
                "start_time": 16.061363636363634,
                "end_time": 16.09318181818182,
                "pitch": 61,
                "velocity": 64,
                "duration": 0.031818181818184854,
                "tempo": 120.0
            },
            {
                "start_time": 16.111363636363635,
                "end_time": 16.461363636363636,
                "pitch": 62,
                "velocity": 64,
                "duration": 0.3500000000000014,
                "tempo": 120.0
            },
            {
                "start_time": 16.477272727272727,
                "end_time": 17.09318181818182,
                "pitch": 62,
                "velocity": 64,
                "duration": 0.6159090909090921,
                "tempo": 120.0
            },
            {
                "start_time": 17.111363636363635,
                "end_time": 17.211363636363636,
                "pitch": 60,
                "velocity": 64,
                "duration": 0.10000000000000142,
                "tempo": 120.0
            },
            {
                "start_time": 17.227272727272727,
                "end_time": 17.347727272727273,
                "pitch": 57,
                "velocity": 64,
                "duration": 0.12045454545454604,
                "tempo": 120.0
            },
            {
                "start_time": 17.363636363636363,
                "end_time": 17.46590909090909,
                "pitch": 55,
                "velocity": 64,
                "duration": 0.10227272727272663,
                "tempo": 120.0
            },
            {
                "start_time": 17.48409090909091,
                "end_time": 17.602272727272727,
                "pitch": 56,
                "velocity": 64,
                "duration": 0.11818181818181728,
                "tempo": 120.0
            },
            {
                "start_time": 17.620454545454546,
                "end_time": 17.722727272727273,
                "pitch": 57,
                "velocity": 64,
                "duration": 0.10227272727272663,
                "tempo": 120.0
            },
            {
                "start_time": 17.74090909090909,
                "end_time": 17.854545454545455,
                "pitch": 56,
                "velocity": 64,
                "duration": 0.11363636363636687,
                "tempo": 120.0
            },
            {
                "start_time": 17.870454545454546,
                "end_time": 17.970454545454544,
                "pitch": 50,
                "velocity": 64,
                "duration": 0.09999999999999787,
                "tempo": 120.0
            },
            {
                "start_time": 18.118181818181817,
                "end_time": 18.134090909090908,
                "pitch": 61,
                "velocity": 64,
                "duration": 0.01590909090909065,
                "tempo": 120.0
            },
            {
                "start_time": 18.15,
                "end_time": 18.21590909090909,
                "pitch": 62,
                "velocity": 64,
                "duration": 0.06590909090909136,
                "tempo": 120.0
            },
            {
                "start_time": 18.23181818181818,
                "end_time": 18.347727272727273,
                "pitch": 62,
                "velocity": 64,
                "duration": 0.11590909090909207,
                "tempo": 120.0
            },
            {
                "start_time": 18.36590909090909,
                "end_time": 18.46590909090909,
                "pitch": 62,
                "velocity": 64,
                "duration": 0.10000000000000142,
                "tempo": 120.0
            },
            {
                "start_time": 18.48181818181818,
                "end_time": 18.597727272727273,
                "pitch": 62,
                "velocity": 64,
                "duration": 0.11590909090909207,
                "tempo": 120.0
            },
            {
                "start_time": 18.61590909090909,
                "end_time": 18.71590909090909,
                "pitch": 62,
                "velocity": 64,
                "duration": 0.10000000000000142,
                "tempo": 120.0
            },
            {
                "start_time": 18.73181818181818,
                "end_time": 18.847727272727273,
                "pitch": 62,
                "velocity": 64,
                "duration": 0.11590909090909207,
                "tempo": 120.0
            },
            {
                "start_time": 18.86590909090909,
                "end_time": 18.96590909090909,
                "pitch": 62,
                "velocity": 64,
                "duration": 0.10000000000000142,
                "tempo": 120.0
            },
            {
                "start_time": 18.98181818181818,
                "end_time": 19.097727272727273,
                "pitch": 62,
                "velocity": 64,
                "duration": 0.11590909090909207,
                "tempo": 120.0
            },
            {
                "start_time": 19.11590909090909,
                "end_time": 19.21590909090909,
                "pitch": 62,
                "velocity": 64,
                "duration": 0.10000000000000142,
                "tempo": 120.0
            },
            {
                "start_time": 19.23181818181818,
                "end_time": 19.347727272727273,
                "pitch": 62,
                "velocity": 64,
                "duration": 0.11590909090909207,
                "tempo": 120.0
            },
            {
                "start_time": 19.36590909090909,
                "end_time": 19.46590909090909,
                "pitch": 62,
                "velocity": 64,
                "duration": 0.10000000000000142,
                "tempo": 120.0
            },
            {
                "start_time": 19.48181818181818,
                "end_time": 19.597727272727273,
                "pitch": 62,
                "velocity": 64,
                "duration": 0.11590909090909207,
                "tempo": 120.0
            },
            {
                "start_time": 19.61590909090909,
                "end_time": 19.71590909090909,
                "pitch": 62,
                "velocity": 64,
                "duration": 0.10000000000000142,
                "tempo": 120.0
            },
            {
                "start_time": 19.73181818181818,
                "end_time": 19.847727272727273,
                "pitch": 62,
                "velocity": 64,
                "duration": 0.11590909090909207,
                "tempo": 120.0
            },
            {
                "start_time": 19.86590909090909,
                "end_time": 19.96590909090909,
                "pitch": 62,
                "velocity": 64,
                "duration": 0.10000000000000142,
                "tempo": 120.0
            },
            {
                "start_time": 19.98181818181818,
                "end_time": 20.047727272727272,
                "pitch": 65,
                "velocity": 64,
                "duration": 0.06590909090909136,
                "tempo": 120.0
            },
            {
                "start_time": 20.06590909090909,
                "end_time": 20.347727272727273,
                "pitch": 66,
                "velocity": 64,
                "duration": 0.2818181818181813,
                "tempo": 120.0
            },
            {
                "start_time": 20.36590909090909,
                "end_time": 20.597727272727273,
                "pitch": 62,
                "velocity": 64,
                "duration": 0.23181818181818414,
                "tempo": 120.0
            },
            {
                "start_time": 21.61590909090909,
                "end_time": 21.71590909090909,
                "pitch": 57,
                "velocity": 64,
                "duration": 0.10000000000000142,
                "tempo": 120.0
            },
            {
                "start_time": 21.73181818181818,
                "end_time": 21.847727272727273,
                "pitch": 60,
                "velocity": 64,
                "duration": 0.11590909090909207,
                "tempo": 120.0
            },
            {
                "start_time": 21.86590909090909,
                "end_time": 21.96590909090909,
                "pitch": 62,
                "velocity": 64,
                "duration": 0.10000000000000142,
                "tempo": 120.0
            },
            {
                "start_time": 22.06590909090909,
                "end_time": 22.097727272727273,
                "pitch": 61,
                "velocity": 64,
                "duration": 0.0318181818181813,
                "tempo": 120.0
            },
            {
                "start_time": 22.11590909090909,
                "end_time": 22.21590909090909,
                "pitch": 62,
                "velocity": 64,
                "duration": 0.10000000000000142,
                "tempo": 120.0
            },
            {
                "start_time": 22.23181818181818,
                "end_time": 22.347727272727273,
                "pitch": 62,
                "velocity": 64,
                "duration": 0.11590909090909207,
                "tempo": 120.0
            },
            {
                "start_time": 22.36590909090909,
                "end_time": 22.46590909090909,
                "pitch": 62,
                "velocity": 64,
                "duration": 0.10000000000000142,
                "tempo": 120.0
            },
            {
                "start_time": 22.48181818181818,
                "end_time": 22.597727272727273,
                "pitch": 62,
                "velocity": 64,
                "duration": 0.11590909090909207,
                "tempo": 120.0
            },
            {
                "start_time": 22.61590909090909,
                "end_time": 22.71590909090909,
                "pitch": 62,
                "velocity": 64,
                "duration": 0.10000000000000142,
                "tempo": 120.0
            },
            {
                "start_time": 22.73181818181818,
                "end_time": 22.847727272727273,
                "pitch": 62,
                "velocity": 64,
                "duration": 0.11590909090909207,
                "tempo": 120.0
            },
            {
                "start_time": 22.86590909090909,
                "end_time": 22.96590909090909,
                "pitch": 62,
                "velocity": 64,
                "duration": 0.10000000000000142,
                "tempo": 120.0
            },
            {
                "start_time": 22.98181818181818,
                "end_time": 23.21590909090909,
                "pitch": 62,
                "velocity": 64,
                "duration": 0.23409090909090935,
                "tempo": 120.0
            },
            {
                "start_time": 23.23181818181818,
                "end_time": 23.349999999999998,
                "pitch": 62,
                "velocity": 64,
                "duration": 0.11818181818181728,
                "tempo": 120.0
            },
            {
                "start_time": 23.368181818181817,
                "end_time": 23.60681818181818,
                "pitch": 62,
                "velocity": 64,
                "duration": 0.2386363636363633,
                "tempo": 120.0
            },
            {
                "start_time": 23.625,
                "end_time": 23.727272727272727,
                "pitch": 60,
                "velocity": 64,
                "duration": 0.10227272727272663,
                "tempo": 120.0
            },
            {
                "start_time": 23.743181818181817,
                "end_time": 23.85909090909091,
                "pitch": 57,
                "velocity": 64,
                "duration": 0.11590909090909207,
                "tempo": 120.0
            },
            {
                "start_time": 23.875,
                "end_time": 23.974999999999998,
                "pitch": 55,
                "velocity": 64,
                "duration": 0.09999999999999787,
                "tempo": 120.0
            },
            {
                "start_time": 24.120454545454546,
                "end_time": 24.220454545454544,
                "pitch": 57,
                "velocity": 64,
                "duration": 0.09999999999999787,
                "tempo": 120.0
            },
            {
                "start_time": 24.236363636363635,
                "end_time": 24.352272727272727,
                "pitch": 53,
                "velocity": 64,
                "duration": 0.11590909090909207,
                "tempo": 120.0
            },
            {
                "start_time": 24.370454545454546,
                "end_time": 24.602272727272727,
                "pitch": 50,
                "velocity": 64,
                "duration": 0.2318181818181806,
                "tempo": 120.0
            },
            {
                "start_time": 25.370454545454542,
                "end_time": 25.470454545454544,
                "pitch": 48,
                "velocity": 64,
                "duration": 0.10000000000000142,
                "tempo": 120.0
            },
            {
                "start_time": 25.486363636363635,
                "end_time": 25.602272727272727,
                "pitch": 50,
                "velocity": 64,
                "duration": 0.11590909090909207,
                "tempo": 120.0
            },
            {
                "start_time": 25.620454545454542,
                "end_time": 25.970454545454544,
                "pitch": 53,
                "velocity": 64,
                "duration": 0.3500000000000014,
                "tempo": 120.0
            },
            {
                "start_time": 25.986363636363635,
                "end_time": 26.020454545454545,
                "pitch": 54,
                "velocity": 64,
                "duration": 0.03409090909091006,
                "tempo": 120.0
            },
            {
                "start_time": 26.036363636363635,
                "end_time": 26.470454545454544,
                "pitch": 55,
                "velocity": 64,
                "duration": 0.43409090909090864,
                "tempo": 120.0
            },
            {
                "start_time": 26.486363636363635,
                "end_time": 26.720454545454544,
                "pitch": 53,
                "velocity": 64,
                "duration": 0.23409090909090935,
                "tempo": 120.0
            },
            {
                "start_time": 26.736363636363635,
                "end_time": 26.970454545454544,
                "pitch": 50,
                "velocity": 64,
                "duration": 0.23409090909090935,
                "tempo": 120.0
            },
            {
                "start_time": 26.986363636363635,
                "end_time": 27.102272727272727,
                "pitch": 55,
                "velocity": 64,
                "duration": 0.11590909090909207,
                "tempo": 120.0
            },
            {
                "start_time": 27.120454545454542,
                "end_time": 27.352272727272727,
                "pitch": 53,
                "velocity": 64,
                "duration": 0.23181818181818414,
                "tempo": 120.0
            },
            {
                "start_time": 27.370454545454542,
                "end_time": 27.470454545454544,
                "pitch": 50,
                "velocity": 64,
                "duration": 0.10000000000000142,
                "tempo": 120.0
            },
            {
                "start_time": 28.070454545454545,
                "end_time": 28.102272727272727,
                "pitch": 56,
                "velocity": 64,
                "duration": 0.0318181818181813,
                "tempo": 120.0
            },
            {
                "start_time": 28.120454545454542,
                "end_time": 28.470454545454544,
                "pitch": 57,
                "velocity": 64,
                "duration": 0.3500000000000014,
                "tempo": 120.0
            },
            {
                "start_time": 28.486363636363635,
                "end_time": 28.720454545454544,
                "pitch": 55,
                "velocity": 64,
                "duration": 0.23409090909090935,
                "tempo": 120.0
            },
            {
                "start_time": 28.736363636363635,
                "end_time": 28.970454545454544,
                "pitch": 57,
                "velocity": 64,
                "duration": 0.23409090909090935,
                "tempo": 120.0
            },
            {
                "start_time": 28.986363636363635,
                "end_time": 29.102272727272727,
                "pitch": 56,
                "velocity": 64,
                "duration": 0.11590909090909207,
                "tempo": 120.0
            },
            {
                "start_time": 29.120454545454542,
                "end_time": 29.220454545454544,
                "pitch": 55,
                "velocity": 64,
                "duration": 0.10000000000000142,
                "tempo": 120.0
            },
            {
                "start_time": 29.236363636363635,
                "end_time": 29.352272727272727,
                "pitch": 53,
                "velocity": 64,
                "duration": 0.11590909090909207,
                "tempo": 120.0
            },
            {
                "start_time": 29.370454545454542,
                "end_time": 29.602272727272727,
                "pitch": 55,
                "velocity": 64,
                "duration": 0.23181818181818414,
                "tempo": 120.0
            },
            {
                "start_time": 29.620454545454542,
                "end_time": 29.720454545454544,
                "pitch": 50,
                "velocity": 64,
                "duration": 0.10000000000000142,
                "tempo": 120.0
            },
            {
                "start_time": 29.736363636363635,
                "end_time": 29.852272727272727,
                "pitch": 48,
                "velocity": 64,
                "duration": 0.11590909090909207,
                "tempo": 120.0
            },
            {
                "start_time": 29.870454545454542,
                "end_time": 29.970454545454544,
                "pitch": 50,
                "velocity": 64,
                "duration": 0.10000000000000142,
                "tempo": 120.0
            },
            {
                "start_time": 30.070454545454545,
                "end_time": 30.102272727272727,
                "pitch": 54,
                "velocity": 64,
                "duration": 0.0318181818181813,
                "tempo": 120.0
            },
            {
                "start_time": 30.120454545454542,
                "end_time": 30.470454545454544,
                "pitch": 55,
                "velocity": 64,
                "duration": 0.3500000000000014,
                "tempo": 120.0
            },
            {
                "start_time": 30.486363636363635,
                "end_time": 30.720454545454544,
                "pitch": 53,
                "velocity": 64,
                "duration": 0.23409090909090935,
                "tempo": 120.0
            },
            {
                "start_time": 30.736363636363635,
                "end_time": 30.970454545454544,
                "pitch": 50,
                "velocity": 64,
                "duration": 0.23409090909090935,
                "tempo": 120.0
            },
            {
                "start_time": 30.986363636363635,
                "end_time": 31.102272727272727,
                "pitch": 55,
                "velocity": 64,
                "duration": 0.11590909090909207,
                "tempo": 120.0
            },
            {
                "start_time": 31.120454545454542,
                "end_time": 31.352272727272727,
                "pitch": 53,
                "velocity": 64,
                "duration": 0.23181818181818414,
                "tempo": 120.0
            },
            {
                "start_time": 31.370454545454542,
                "end_time": 31.470454545454544,
                "pitch": 50,
                "velocity": 64,
                "duration": 0.10000000000000142,
                "tempo": 120.0
            },
            {
                "start_time": 32.070454545454545,
                "end_time": 32.10227272727273,
                "pitch": 61,
                "velocity": 64,
                "duration": 0.0318181818181813,
                "tempo": 120.0
            },
            {
                "start_time": 32.12045454545454,
                "end_time": 32.470454545454544,
                "pitch": 62,
                "velocity": 64,
                "duration": 0.3500000000000014,
                "tempo": 120.0
            },
            {
                "start_time": 32.486363636363635,
                "end_time": 33.10227272727273,
                "pitch": 62,
                "velocity": 64,
                "duration": 0.6159090909090921,
                "tempo": 120.0
            },
            {
                "start_time": 33.12045454545454,
                "end_time": 33.220454545454544,
                "pitch": 60,
                "velocity": 64,
                "duration": 0.10000000000000142,
                "tempo": 120.0
            },
            {
                "start_time": 33.236363636363635,
                "end_time": 33.35227272727273,
                "pitch": 57,
                "velocity": 64,
                "duration": 0.11590909090909207,
                "tempo": 120.0
            },
            {
                "start_time": 33.37045454545454,
                "end_time": 33.470454545454544,
                "pitch": 55,
                "velocity": 64,
                "duration": 0.10000000000000142,
                "tempo": 120.0
            },
            {
                "start_time": 33.486363636363635,
                "end_time": 33.60227272727273,
                "pitch": 56,
                "velocity": 64,
                "duration": 0.11590909090909207,
                "tempo": 120.0
            },
            {
                "start_time": 33.62045454545454,
                "end_time": 33.720454545454544,
                "pitch": 57,
                "velocity": 64,
                "duration": 0.10000000000000142,
                "tempo": 120.0
            },
            {
                "start_time": 33.736363636363635,
                "end_time": 33.85227272727273,
                "pitch": 56,
                "velocity": 64,
                "duration": 0.11590909090909207,
                "tempo": 120.0
            },
            {
                "start_time": 33.87045454545454,
                "end_time": 33.970454545454544,
                "pitch": 50,
                "velocity": 64,
                "duration": 0.10000000000000142,
                "tempo": 120.0
            },
            {
                "start_time": 34.12045454545454,
                "end_time": 34.220454545454544,
                "pitch": 57,
                "velocity": 64,
                "duration": 0.10000000000000142,
                "tempo": 120.0
            },
            {
                "start_time": 34.236363636363635,
                "end_time": 34.470454545454544,
                "pitch": 55,
                "velocity": 64,
                "duration": 0.23409090909090935,
                "tempo": 120.0
            },
            {
                "start_time": 34.486363636363635,
                "end_time": 34.720454545454544,
                "pitch": 57,
                "velocity": 64,
                "duration": 0.23409090909090935,
                "tempo": 120.0
            },
            {
                "start_time": 34.736363636363635,
                "end_time": 34.970454545454544,
                "pitch": 55,
                "velocity": 64,
                "duration": 0.23409090909090935,
                "tempo": 120.0
            },
            {
                "start_time": 34.986363636363635,
                "end_time": 35.220454545454544,
                "pitch": 57,
                "velocity": 64,
                "duration": 0.23409090909090935,
                "tempo": 120.0
            },
            {
                "start_time": 35.236363636363635,
                "end_time": 35.470454545454544,
                "pitch": 55,
                "velocity": 64,
                "duration": 0.23409090909090935,
                "tempo": 120.0
            },
            {
                "start_time": 35.486363636363635,
                "end_time": 35.720454545454544,
                "pitch": 57,
                "velocity": 64,
                "duration": 0.23409090909090935,
                "tempo": 120.0
            },
            {
                "start_time": 35.736363636363635,
                "end_time": 35.970454545454544,
                "pitch": 62,
                "velocity": 64,
                "duration": 0.23409090909090935,
                "tempo": 120.0
            },
            {
                "start_time": 35.986363636363635,
                "end_time": 36.34772727272727,
                "pitch": 61,
                "velocity": 64,
                "duration": 0.36136363636363455,
                "tempo": 120.0
            },
            {
                "start_time": 36.36363636363636,
                "end_time": 36.699999999999996,
                "pitch": 57,
                "velocity": 64,
                "duration": 0.336363636363636,
                "tempo": 120.0
            },
            {
                "start_time": 36.715909090909086,
                "end_time": 36.95909090909091,
                "pitch": 62,
                "velocity": 64,
                "duration": 0.24318181818182438,
                "tempo": 120.0
            },
            {
                "start_time": 36.975,
                "end_time": 37.35454545454545,
                "pitch": 61,
                "velocity": 64,
                "duration": 0.3795454545454504,
                "tempo": 120.0
            },
            {
                "start_time": 37.37045454545454,
                "end_time": 37.970454545454544,
                "pitch": 57,
                "velocity": 64,
                "duration": 0.6000000000000014,
                "tempo": 120.0
            },
            {
                "start_time": 38.12045454545454,
                "end_time": 38.220454545454544,
                "pitch": 55,
                "velocity": 64,
                "duration": 0.10000000000000142,
                "tempo": 120.0
            },
            {
                "start_time": 38.236363636363635,
                "end_time": 38.470454545454544,
                "pitch": 53,
                "velocity": 64,
                "duration": 0.23409090909090935,
                "tempo": 120.0
            },
            {
                "start_time": 38.486363636363635,
                "end_time": 38.720454545454544,
                "pitch": 55,
                "velocity": 64,
                "duration": 0.23409090909090935,
                "tempo": 120.0
            },
            {
                "start_time": 38.736363636363635,
                "end_time": 38.970454545454544,
                "pitch": 53,
                "velocity": 64,
                "duration": 0.23409090909090935,
                "tempo": 120.0
            },
            {
                "start_time": 38.986363636363635,
                "end_time": 39.220454545454544,
                "pitch": 55,
                "velocity": 64,
                "duration": 0.23409090909090935,
                "tempo": 120.0
            },
            {
                "start_time": 39.236363636363635,
                "end_time": 39.470454545454544,
                "pitch": 53,
                "velocity": 64,
                "duration": 0.23409090909090935,
                "tempo": 120.0
            },
            {
                "start_time": 39.486363636363635,
                "end_time": 39.720454545454544,
                "pitch": 55,
                "velocity": 64,
                "duration": 0.23409090909090935,
                "tempo": 120.0
            },
            {
                "start_time": 39.736363636363635,
                "end_time": 39.970454545454544,
                "pitch": 60,
                "velocity": 64,
                "duration": 0.23409090909090935,
                "tempo": 120.0
            },
            {
                "start_time": 39.986363636363635,
                "end_time": 40.34772727272727,
                "pitch": 59,
                "velocity": 64,
                "duration": 0.36136363636363455,
                "tempo": 120.0
            },
            {
                "start_time": 40.36363636363636,
                "end_time": 40.699999999999996,
                "pitch": 55,
                "velocity": 64,
                "duration": 0.336363636363636,
                "tempo": 120.0
            },
            {
                "start_time": 40.715909090909086,
                "end_time": 40.959090909090904,
                "pitch": 60,
                "velocity": 64,
                "duration": 0.24318181818181728,
                "tempo": 120.0
            },
            {
                "start_time": 40.97727272727273,
                "end_time": 41.35454545454545,
                "pitch": 59,
                "velocity": 64,
                "duration": 0.3772727272727252,
                "tempo": 120.0
            },
            {
                "start_time": 41.37045454545454,
                "end_time": 41.97727272727273,
                "pitch": 55,
                "velocity": 64,
                "duration": 0.6068181818181841,
                "tempo": 120.0
            },
            {
                "start_time": 42.13181818181818,
                "end_time": 42.23409090909091,
                "pitch": 57,
                "velocity": 64,
                "duration": 0.10227272727272663,
                "tempo": 120.0
            },
            {
                "start_time": 42.25,
                "end_time": 42.475,
                "pitch": 55,
                "velocity": 64,
                "duration": 0.22500000000000142,
                "tempo": 120.0
            },
            {
                "start_time": 42.49318181818182,
                "end_time": 42.71818181818182,
                "pitch": 57,
                "velocity": 64,
                "duration": 0.22500000000000142,
                "tempo": 120.0
            },
            {
                "start_time": 42.73409090909091,
                "end_time": 42.97272727272727,
                "pitch": 55,
                "velocity": 64,
                "duration": 0.23863636363635976,
                "tempo": 120.0
            },
            {
                "start_time": 42.99090909090909,
                "end_time": 43.22954545454545,
                "pitch": 57,
                "velocity": 64,
                "duration": 0.23863636363635976,
                "tempo": 120.0
            },
            {
                "start_time": 43.24545454545454,
                "end_time": 43.47954545454545,
                "pitch": 55,
                "velocity": 64,
                "duration": 0.23409090909090935,
                "tempo": 120.0
            },
            {
                "start_time": 43.49772727272727,
                "end_time": 43.72954545454545,
                "pitch": 57,
                "velocity": 64,
                "duration": 0.23181818181818414,
                "tempo": 120.0
            },
            {
                "start_time": 43.74772727272727,
                "end_time": 43.97954545454545,
                "pitch": 62,
                "velocity": 64,
                "duration": 0.23181818181818414,
                "tempo": 120.0
            },
            {
                "start_time": 43.99772727272727,
                "end_time": 44.35909090909091,
                "pitch": 61,
                "velocity": 64,
                "duration": 0.36136363636364166,
                "tempo": 120.0
            },
            {
                "start_time": 44.375,
                "end_time": 44.709090909090904,
                "pitch": 57,
                "velocity": 64,
                "duration": 0.33409090909090366,
                "tempo": 120.0
            },
            {
                "start_time": 44.72727272727273,
                "end_time": 44.96818181818182,
                "pitch": 62,
                "velocity": 64,
                "duration": 0.24090909090909207,
                "tempo": 120.0
            },
            {
                "start_time": 44.986363636363635,
                "end_time": 45.36363636363636,
                "pitch": 61,
                "velocity": 64,
                "duration": 0.3772727272727252,
                "tempo": 120.0
            },
            {
                "start_time": 45.38181818181818,
                "end_time": 45.986363636363635,
                "pitch": 57,
                "velocity": 64,
                "duration": 0.6045454545454518,
                "tempo": 120.0
            },
            {
                "start_time": 46.14090909090909,
                "end_time": 46.24318181818182,
                "pitch": 60,
                "velocity": 64,
                "duration": 0.10227272727272663,
                "tempo": 120.0
            },
            {
                "start_time": 46.25909090909091,
                "end_time": 46.49090909090909,
                "pitch": 58,
                "velocity": 64,
                "duration": 0.23181818181818414,
                "tempo": 120.0
            },
            {
                "start_time": 46.50681818181818,
                "end_time": 46.736363636363635,
                "pitch": 60,
                "velocity": 64,
                "duration": 0.22954545454545183,
                "tempo": 120.0
            },
            {
                "start_time": 46.752272727272725,
                "end_time": 46.986363636363635,
                "pitch": 58,
                "velocity": 64,
                "duration": 0.23409090909090935,
                "tempo": 120.0
            },
            {
                "start_time": 47.002272727272725,
                "end_time": 47.236363636363635,
                "pitch": 60,
                "velocity": 64,
                "duration": 0.23409090909090935,
                "tempo": 120.0
            },
            {
                "start_time": 47.252272727272725,
                "end_time": 47.486363636363635,
                "pitch": 58,
                "velocity": 64,
                "duration": 0.23409090909090935,
                "tempo": 120.0
            },
            {
                "start_time": 47.502272727272725,
                "end_time": 47.61818181818182,
                "pitch": 60,
                "velocity": 64,
                "duration": 0.11590909090909207,
                "tempo": 120.0
            },
            {
                "start_time": 47.63636363636363,
                "end_time": 47.736363636363635,
                "pitch": 55,
                "velocity": 64,
                "duration": 0.10000000000000142,
                "tempo": 120.0
            },
            {
                "start_time": 47.752272727272725,
                "end_time": 47.87045454545454,
                "pitch": 58,
                "velocity": 64,
                "duration": 0.11818181818181728,
                "tempo": 120.0
            },
            {
                "start_time": 47.88863636363636,
                "end_time": 47.99090909090909,
                "pitch": 60,
                "velocity": 64,
                "duration": 0.10227272727273373,
                "tempo": 120.0
            },
            {
                "start_time": 48.00909090909091,
                "end_time": 48.37272727272727,
                "pitch": 62,
                "velocity": 64,
                "duration": 0.36363636363635976,
                "tempo": 120.0
            },
            {
                "start_time": 48.38863636363636,
                "end_time": 48.720454545454544,
                "pitch": 62,
                "velocity": 64,
                "duration": 0.33181818181818556,
                "tempo": 120.0
            },
            {
                "start_time": 48.736363636363635,
                "end_time": 48.97954545454545,
                "pitch": 67,
                "velocity": 64,
                "duration": 0.24318181818181728,
                "tempo": 120.0
            },
            {
                "start_time": 48.99545454545454,
                "end_time": 49.23863636363636,
                "pitch": 66,
                "velocity": 64,
                "duration": 0.24318181818181728,
                "tempo": 120.0
            },
            {
                "start_time": 49.25681818181818,
                "end_time": 49.490909090909085,
                "pitch": 72,
                "velocity": 64,
                "duration": 0.23409090909090224,
                "tempo": 120.0
            },
            {
                "start_time": 49.50681818181818,
                "end_time": 49.740909090909085,
                "pitch": 74,
                "velocity": 64,
                "duration": 0.23409090909090224,
                "tempo": 120.0
            }
        ],
        "Lead 2 (sawtooth)": [
            {
                "start_time": 0.020454545454545454,
                "end_time": 0.3136363636363636,
                "pitch": 66,
                "velocity": 64,
                "duration": 0.29318181818181815,
                "tempo": 120.0
            },
            {
                "start_time": 0.3318181818181818,
                "end_time": 0.4318181818181818,
                "pitch": 66,
                "velocity": 64,
                "duration": 0.10000000000000003,
                "tempo": 120.0
            },
            {
                "start_time": 0.6977272727272726,
                "end_time": 0.8181818181818181,
                "pitch": 66,
                "velocity": 64,
                "duration": 0.12045454545454548,
                "tempo": 120.0
            },
            {
                "start_time": 1.2113636363636362,
                "end_time": 1.4431818181818181,
                "pitch": 64,
                "velocity": 64,
                "duration": 0.23181818181818192,
                "tempo": 120.0
            },
            {
                "start_time": 1.4613636363636362,
                "end_time": 1.6931818181818181,
                "pitch": 66,
                "velocity": 64,
                "duration": 0.23181818181818192,
                "tempo": 120.0
            },
            {
                "start_time": 1.9613636363636362,
                "end_time": 2.077272727272727,
                "pitch": 62,
                "velocity": 64,
                "duration": 0.11590909090909096,
                "tempo": 120.0
            },
            {
                "start_time": 2.0931818181818183,
                "end_time": 2.3295454545454546,
                "pitch": 62,
                "velocity": 64,
                "duration": 0.23636363636363633,
                "tempo": 120.0
            },
            {
                "start_time": 2.3477272727272727,
                "end_time": 2.4499999999999997,
                "pitch": 66,
                "velocity": 64,
                "duration": 0.10227272727272707,
                "tempo": 120.0
            },
            {
                "start_time": 2.465909090909091,
                "end_time": 2.7068181818181816,
                "pitch": 60,
                "velocity": 64,
                "duration": 0.24090909090909074,
                "tempo": 120.0
            },
            {
                "start_time": 2.7227272727272727,
                "end_time": 2.9568181818181816,
                "pitch": 64,
                "velocity": 64,
                "duration": 0.2340909090909089,
                "tempo": 120.0
            },
            {
                "start_time": 2.9727272727272727,
                "end_time": 3.2068181818181816,
                "pitch": 62,
                "velocity": 64,
                "duration": 0.2340909090909089,
                "tempo": 120.0
            },
            {
                "start_time": 3.2227272727272727,
                "end_time": 3.343181818181818,
                "pitch": 66,
                "velocity": 64,
                "duration": 0.12045454545454515,
                "tempo": 120.0
            },
            {
                "start_time": 3.359090909090909,
                "end_time": 3.718181818181818,
                "pitch": 60,
                "velocity": 64,
                "duration": 0.3590909090909089,
                "tempo": 120.0
            },
            {
                "start_time": 3.7363636363636363,
                "end_time": 3.965909090909091,
                "pitch": 64,
                "velocity": 64,
                "duration": 0.2295454545454545,
                "tempo": 120.0
            },
            {
                "start_time": 4.227272727272727,
                "end_time": 4.343181818181818,
                "pitch": 66,
                "velocity": 64,
                "duration": 0.11590909090909118,
                "tempo": 120.0
            },
            {
                "start_time": 4.361363636363636,
                "end_time": 4.461363636363636,
                "pitch": 66,
                "velocity": 64,
                "duration": 0.09999999999999964,
                "tempo": 120.0
            },
            {
                "start_time": 4.477272727272727,
                "end_time": 4.593181818181818,
                "pitch": 66,
                "velocity": 64,
                "duration": 0.11590909090909118,
                "tempo": 120.0
            },
            {
                "start_time": 4.611363636363636,
                "end_time": 4.961363636363636,
                "pitch": 66,
                "velocity": 64,
                "duration": 0.34999999999999964,
                "tempo": 120.0
            },
            {
                "start_time": 4.977272727272727,
                "end_time": 5.093181818181818,
                "pitch": 66,
                "velocity": 64,
                "duration": 0.11590909090909118,
                "tempo": 120.0
            },
            {
                "start_time": 5.111363636363636,
                "end_time": 5.211363636363636,
                "pitch": 66,
                "velocity": 64,
                "duration": 0.09999999999999964,
                "tempo": 120.0
            },
            {
                "start_time": 5.227272727272727,
                "end_time": 5.343181818181818,
                "pitch": 66,
                "velocity": 64,
                "duration": 0.11590909090909118,
                "tempo": 120.0
            },
            {
                "start_time": 5.361363636363636,
                "end_time": 5.461363636363636,
                "pitch": 66,
                "velocity": 64,
                "duration": 0.09999999999999964,
                "tempo": 120.0
            },
            {
                "start_time": 5.977272727272727,
                "end_time": 6.093181818181818,
                "pitch": 62,
                "velocity": 64,
                "duration": 0.11590909090909118,
                "tempo": 120.0
            },
            {
                "start_time": 6.111363636363636,
                "end_time": 6.343181818181818,
                "pitch": 62,
                "velocity": 64,
                "duration": 0.23181818181818148,
                "tempo": 120.0
            },
            {
                "start_time": 6.361363636363636,
                "end_time": 6.461363636363636,
                "pitch": 66,
                "velocity": 64,
                "duration": 0.09999999999999964,
                "tempo": 120.0
            },
            {
                "start_time": 6.477272727272727,
                "end_time": 6.711363636363636,
                "pitch": 60,
                "velocity": 64,
                "duration": 0.23409090909090935,
                "tempo": 120.0
            },
            {
                "start_time": 6.727272727272727,
                "end_time": 6.961363636363636,
                "pitch": 64,
                "velocity": 64,
                "duration": 0.23409090909090935,
                "tempo": 120.0
            },
            {
                "start_time": 6.977272727272727,
                "end_time": 7.211363636363636,
                "pitch": 62,
                "velocity": 64,
                "duration": 0.23409090909090935,
                "tempo": 120.0
            },
            {
                "start_time": 7.227272727272727,
                "end_time": 7.343181818181818,
                "pitch": 66,
                "velocity": 64,
                "duration": 0.11590909090909118,
                "tempo": 120.0
            },
            {
                "start_time": 7.361363636363636,
                "end_time": 7.711363636363636,
                "pitch": 60,
                "velocity": 64,
                "duration": 0.34999999999999964,
                "tempo": 120.0
            },
            {
                "start_time": 7.727272727272727,
                "end_time": 7.961363636363636,
                "pitch": 64,
                "velocity": 64,
                "duration": 0.23409090909090935,
                "tempo": 120.0
            },
            {
                "start_time": 8.227272727272727,
                "end_time": 8.343181818181817,
                "pitch": 66,
                "velocity": 64,
                "duration": 0.1159090909090903,
                "tempo": 120.0
            },
            {
                "start_time": 8.361363636363636,
                "end_time": 8.461363636363636,
                "pitch": 66,
                "velocity": 64,
                "duration": 0.09999999999999964,
                "tempo": 120.0
            },
            {
                "start_time": 8.477272727272727,
                "end_time": 8.593181818181817,
                "pitch": 66,
                "velocity": 64,
                "duration": 0.1159090909090903,
                "tempo": 120.0
            },
            {
                "start_time": 8.611363636363636,
                "end_time": 8.961363636363636,
                "pitch": 66,
                "velocity": 64,
                "duration": 0.34999999999999964,
                "tempo": 120.0
            },
            {
                "start_time": 8.977272727272727,
                "end_time": 9.093181818181817,
                "pitch": 66,
                "velocity": 64,
                "duration": 0.1159090909090903,
                "tempo": 120.0
            },
            {
                "start_time": 9.111363636363636,
                "end_time": 9.211363636363636,
                "pitch": 66,
                "velocity": 64,
                "duration": 0.09999999999999964,
                "tempo": 120.0
            },
            {
                "start_time": 9.227272727272727,
                "end_time": 9.343181818181817,
                "pitch": 66,
                "velocity": 64,
                "duration": 0.1159090909090903,
                "tempo": 120.0
            },
            {
                "start_time": 9.361363636363636,
                "end_time": 9.461363636363636,
                "pitch": 66,
                "velocity": 64,
                "duration": 0.09999999999999964,
                "tempo": 120.0
            },
            {
                "start_time": 9.977272727272727,
                "end_time": 10.093181818181817,
                "pitch": 67,
                "velocity": 64,
                "duration": 0.1159090909090903,
                "tempo": 120.0
            },
            {
                "start_time": 10.111363636363636,
                "end_time": 10.343181818181817,
                "pitch": 67,
                "velocity": 64,
                "duration": 0.2318181818181806,
                "tempo": 120.0
            },
            {
                "start_time": 10.361363636363636,
                "end_time": 10.461363636363636,
                "pitch": 71,
                "velocity": 64,
                "duration": 0.09999999999999964,
                "tempo": 120.0
            },
            {
                "start_time": 10.477272727272727,
                "end_time": 10.711363636363636,
                "pitch": 65,
                "velocity": 64,
                "duration": 0.23409090909090935,
                "tempo": 120.0
            },
            {
                "start_time": 10.727272727272727,
                "end_time": 10.961363636363636,
                "pitch": 69,
                "velocity": 64,
                "duration": 0.23409090909090935,
                "tempo": 120.0
            },
            {
                "start_time": 10.977272727272727,
                "end_time": 11.211363636363636,
                "pitch": 67,
                "velocity": 64,
                "duration": 0.23409090909090935,
                "tempo": 120.0
            },
            {
                "start_time": 11.227272727272727,
                "end_time": 11.343181818181817,
                "pitch": 71,
                "velocity": 64,
                "duration": 0.1159090909090903,
                "tempo": 120.0
            },
            {
                "start_time": 11.361363636363636,
                "end_time": 11.711363636363636,
                "pitch": 65,
                "velocity": 64,
                "duration": 0.34999999999999964,
                "tempo": 120.0
            },
            {
                "start_time": 11.727272727272727,
                "end_time": 11.961363636363636,
                "pitch": 69,
                "velocity": 64,
                "duration": 0.23409090909090935,
                "tempo": 120.0
            },
            {
                "start_time": 12.227272727272727,
                "end_time": 12.343181818181817,
                "pitch": 65,
                "velocity": 64,
                "duration": 0.1159090909090903,
                "tempo": 120.0
            },
            {
                "start_time": 12.361363636363636,
                "end_time": 12.461363636363636,
                "pitch": 65,
                "velocity": 64,
                "duration": 0.09999999999999964,
                "tempo": 120.0
            },
            {
                "start_time": 12.477272727272727,
                "end_time": 12.593181818181817,
                "pitch": 65,
                "velocity": 64,
                "duration": 0.1159090909090903,
                "tempo": 120.0
            },
            {
                "start_time": 12.611363636363636,
                "end_time": 12.961363636363636,
                "pitch": 65,
                "velocity": 64,
                "duration": 0.34999999999999964,
                "tempo": 120.0
            },
            {
                "start_time": 12.977272727272727,
                "end_time": 13.093181818181817,
                "pitch": 65,
                "velocity": 64,
                "duration": 0.1159090909090903,
                "tempo": 120.0
            },
            {
                "start_time": 13.111363636363636,
                "end_time": 13.211363636363636,
                "pitch": 65,
                "velocity": 64,
                "duration": 0.09999999999999964,
                "tempo": 120.0
            },
            {
                "start_time": 13.227272727272727,
                "end_time": 13.343181818181817,
                "pitch": 65,
                "velocity": 64,
                "duration": 0.1159090909090903,
                "tempo": 120.0
            },
            {
                "start_time": 13.361363636363636,
                "end_time": 13.461363636363636,
                "pitch": 65,
                "velocity": 64,
                "duration": 0.09999999999999964,
                "tempo": 120.0
            },
            {
                "start_time": 13.977272727272727,
                "end_time": 14.093181818181817,
                "pitch": 67,
                "velocity": 64,
                "duration": 0.1159090909090903,
                "tempo": 120.0
            },
            {
                "start_time": 14.111363636363636,
                "end_time": 14.343181818181817,
                "pitch": 67,
                "velocity": 64,
                "duration": 0.2318181818181806,
                "tempo": 120.0
            },
            {
                "start_time": 14.361363636363636,
                "end_time": 14.461363636363636,
                "pitch": 71,
                "velocity": 64,
                "duration": 0.09999999999999964,
                "tempo": 120.0
            },
            {
                "start_time": 14.477272727272727,
                "end_time": 14.711363636363636,
                "pitch": 65,
                "velocity": 64,
                "duration": 0.23409090909090935,
                "tempo": 120.0
            },
            {
                "start_time": 14.727272727272727,
                "end_time": 14.961363636363636,
                "pitch": 69,
                "velocity": 64,
                "duration": 0.23409090909090935,
                "tempo": 120.0
            },
            {
                "start_time": 14.977272727272727,
                "end_time": 15.211363636363636,
                "pitch": 67,
                "velocity": 64,
                "duration": 0.23409090909090935,
                "tempo": 120.0
            },
            {
                "start_time": 15.227272727272727,
                "end_time": 15.343181818181817,
                "pitch": 71,
                "velocity": 64,
                "duration": 0.1159090909090903,
                "tempo": 120.0
            },
            {
                "start_time": 15.361363636363636,
                "end_time": 15.711363636363636,
                "pitch": 65,
                "velocity": 64,
                "duration": 0.34999999999999964,
                "tempo": 120.0
            },
            {
                "start_time": 15.727272727272727,
                "end_time": 15.961363636363636,
                "pitch": 69,
                "velocity": 64,
                "duration": 0.23409090909090935,
                "tempo": 120.0
            },
            {
                "start_time": 16.227272727272727,
                "end_time": 16.34318181818182,
                "pitch": 65,
                "velocity": 64,
                "duration": 0.11590909090909207,
                "tempo": 120.0
            },
            {
                "start_time": 16.361363636363635,
                "end_time": 16.461363636363636,
                "pitch": 65,
                "velocity": 64,
                "duration": 0.10000000000000142,
                "tempo": 120.0
            },
            {
                "start_time": 16.477272727272727,
                "end_time": 16.59318181818182,
                "pitch": 65,
                "velocity": 64,
                "duration": 0.11590909090909207,
                "tempo": 120.0
            },
            {
                "start_time": 16.611363636363635,
                "end_time": 16.961363636363636,
                "pitch": 65,
                "velocity": 64,
                "duration": 0.3500000000000014,
                "tempo": 120.0
            },
            {
                "start_time": 16.977272727272727,
                "end_time": 17.09318181818182,
                "pitch": 65,
                "velocity": 64,
                "duration": 0.11590909090909207,
                "tempo": 120.0
            },
            {
                "start_time": 17.111363636363635,
                "end_time": 17.211363636363636,
                "pitch": 65,
                "velocity": 64,
                "duration": 0.10000000000000142,
                "tempo": 120.0
            },
            {
                "start_time": 17.227272727272727,
                "end_time": 17.347727272727273,
                "pitch": 65,
                "velocity": 64,
                "duration": 0.12045454545454604,
                "tempo": 120.0
            },
            {
                "start_time": 17.363636363636363,
                "end_time": 17.46590909090909,
                "pitch": 65,
                "velocity": 64,
                "duration": 0.10227272727272663,
                "tempo": 120.0
            },
            {
                "start_time": 17.986363636363635,
                "end_time": 18.099999999999998,
                "pitch": 62,
                "velocity": 64,
                "duration": 0.11363636363636331,
                "tempo": 120.0
            },
            {
                "start_time": 18.118181818181817,
                "end_time": 18.347727272727273,
                "pitch": 62,
                "velocity": 64,
                "duration": 0.22954545454545539,
                "tempo": 120.0
            },
            {
                "start_time": 18.36590909090909,
                "end_time": 18.46590909090909,
                "pitch": 66,
                "velocity": 64,
                "duration": 0.10000000000000142,
                "tempo": 120.0
            },
            {
                "start_time": 18.48181818181818,
                "end_time": 18.71590909090909,
                "pitch": 60,
                "velocity": 64,
                "duration": 0.23409090909090935,
                "tempo": 120.0
            },
            {
                "start_time": 18.73181818181818,
                "end_time": 18.96590909090909,
                "pitch": 64,
                "velocity": 64,
                "duration": 0.23409090909090935,
                "tempo": 120.0
            },
            {
                "start_time": 18.98181818181818,
                "end_time": 19.21590909090909,
                "pitch": 62,
                "velocity": 64,
                "duration": 0.23409090909090935,
                "tempo": 120.0
            },
            {
                "start_time": 19.23181818181818,
                "end_time": 19.347727272727273,
                "pitch": 66,
                "velocity": 64,
                "duration": 0.11590909090909207,
                "tempo": 120.0
            },
            {
                "start_time": 19.36590909090909,
                "end_time": 19.71590909090909,
                "pitch": 60,
                "velocity": 64,
                "duration": 0.3500000000000014,
                "tempo": 120.0
            },
            {
                "start_time": 19.73181818181818,
                "end_time": 19.96590909090909,
                "pitch": 64,
                "velocity": 64,
                "duration": 0.23409090909090935,
                "tempo": 120.0
            },
            {
                "start_time": 20.23181818181818,
                "end_time": 20.347727272727273,
                "pitch": 66,
                "velocity": 64,
                "duration": 0.11590909090909207,
                "tempo": 120.0
            },
            {
                "start_time": 20.36590909090909,
                "end_time": 20.46590909090909,
                "pitch": 66,
                "velocity": 64,
                "duration": 0.10000000000000142,
                "tempo": 120.0
            },
            {
                "start_time": 20.48181818181818,
                "end_time": 20.597727272727273,
                "pitch": 66,
                "velocity": 64,
                "duration": 0.11590909090909207,
                "tempo": 120.0
            },
            {
                "start_time": 20.61590909090909,
                "end_time": 20.96590909090909,
                "pitch": 66,
                "velocity": 64,
                "duration": 0.3500000000000014,
                "tempo": 120.0
            },
            {
                "start_time": 20.98181818181818,
                "end_time": 21.097727272727273,
                "pitch": 66,
                "velocity": 64,
                "duration": 0.11590909090909207,
                "tempo": 120.0
            },
            {
                "start_time": 21.11590909090909,
                "end_time": 21.21590909090909,
                "pitch": 66,
                "velocity": 64,
                "duration": 0.10000000000000142,
                "tempo": 120.0
            },
            {
                "start_time": 21.23181818181818,
                "end_time": 21.347727272727273,
                "pitch": 66,
                "velocity": 64,
                "duration": 0.11590909090909207,
                "tempo": 120.0
            },
            {
                "start_time": 21.36590909090909,
                "end_time": 21.46590909090909,
                "pitch": 66,
                "velocity": 64,
                "duration": 0.10000000000000142,
                "tempo": 120.0
            },
            {
                "start_time": 21.98181818181818,
                "end_time": 22.097727272727273,
                "pitch": 62,
                "velocity": 64,
                "duration": 0.11590909090909207,
                "tempo": 120.0
            },
            {
                "start_time": 22.11590909090909,
                "end_time": 22.347727272727273,
                "pitch": 62,
                "velocity": 64,
                "duration": 0.23181818181818414,
                "tempo": 120.0
            },
            {
                "start_time": 22.36590909090909,
                "end_time": 22.46590909090909,
                "pitch": 66,
                "velocity": 64,
                "duration": 0.10000000000000142,
                "tempo": 120.0
            },
            {
                "start_time": 22.48181818181818,
                "end_time": 22.71590909090909,
                "pitch": 60,
                "velocity": 64,
                "duration": 0.23409090909090935,
                "tempo": 120.0
            },
            {
                "start_time": 22.73181818181818,
                "end_time": 22.96590909090909,
                "pitch": 64,
                "velocity": 64,
                "duration": 0.23409090909090935,
                "tempo": 120.0
            },
            {
                "start_time": 22.98181818181818,
                "end_time": 23.21590909090909,
                "pitch": 62,
                "velocity": 64,
                "duration": 0.23409090909090935,
                "tempo": 120.0
            },
            {
                "start_time": 23.23181818181818,
                "end_time": 23.349999999999998,
                "pitch": 66,
                "velocity": 64,
                "duration": 0.11818181818181728,
                "tempo": 120.0
            },
            {
                "start_time": 23.368181818181817,
                "end_time": 23.727272727272727,
                "pitch": 60,
                "velocity": 64,
                "duration": 0.35909090909090935,
                "tempo": 120.0
            },
            {
                "start_time": 23.743181818181817,
                "end_time": 23.974999999999998,
                "pitch": 64,
                "velocity": 64,
                "duration": 0.2318181818181806,
                "tempo": 120.0
            },
            {
                "start_time": 24.236363636363635,
                "end_time": 24.352272727272727,
                "pitch": 66,
                "velocity": 64,
                "duration": 0.11590909090909207,
                "tempo": 120.0
            },
            {
                "start_time": 24.370454545454546,
                "end_time": 24.470454545454544,
                "pitch": 66,
                "velocity": 64,
                "duration": 0.09999999999999787,
                "tempo": 120.0
            },
            {
                "start_time": 24.486363636363635,
                "end_time": 24.602272727272727,
                "pitch": 66,
                "velocity": 64,
                "duration": 0.11590909090909207,
                "tempo": 120.0
            },
            {
                "start_time": 24.620454545454542,
                "end_time": 24.970454545454544,
                "pitch": 66,
                "velocity": 64,
                "duration": 0.3500000000000014,
                "tempo": 120.0
            },
            {
                "start_time": 24.986363636363635,
                "end_time": 25.102272727272727,
                "pitch": 66,
                "velocity": 64,
                "duration": 0.11590909090909207,
                "tempo": 120.0
            },
            {
                "start_time": 25.120454545454542,
                "end_time": 25.220454545454544,
                "pitch": 66,
                "velocity": 64,
                "duration": 0.10000000000000142,
                "tempo": 120.0
            },
            {
                "start_time": 25.236363636363635,
                "end_time": 25.352272727272727,
                "pitch": 66,
                "velocity": 64,
                "duration": 0.11590909090909207,
                "tempo": 120.0
            },
            {
                "start_time": 25.370454545454542,
                "end_time": 25.470454545454544,
                "pitch": 66,
                "velocity": 64,
                "duration": 0.10000000000000142,
                "tempo": 120.0
            },
            {
                "start_time": 25.986363636363635,
                "end_time": 26.102272727272727,
                "pitch": 67,
                "velocity": 64,
                "duration": 0.11590909090909207,
                "tempo": 120.0
            },
            {
                "start_time": 26.120454545454542,
                "end_time": 26.352272727272727,
                "pitch": 67,
                "velocity": 64,
                "duration": 0.23181818181818414,
                "tempo": 120.0
            },
            {
                "start_time": 26.370454545454542,
                "end_time": 26.470454545454544,
                "pitch": 71,
                "velocity": 64,
                "duration": 0.10000000000000142,
                "tempo": 120.0
            },
            {
                "start_time": 26.486363636363635,
                "end_time": 26.720454545454544,
                "pitch": 65,
                "velocity": 64,
                "duration": 0.23409090909090935,
                "tempo": 120.0
            },
            {
                "start_time": 26.736363636363635,
                "end_time": 26.970454545454544,
                "pitch": 69,
                "velocity": 64,
                "duration": 0.23409090909090935,
                "tempo": 120.0
            },
            {
                "start_time": 26.986363636363635,
                "end_time": 27.220454545454544,
                "pitch": 67,
                "velocity": 64,
                "duration": 0.23409090909090935,
                "tempo": 120.0
            },
            {
                "start_time": 27.236363636363635,
                "end_time": 27.352272727272727,
                "pitch": 71,
                "velocity": 64,
                "duration": 0.11590909090909207,
                "tempo": 120.0
            },
            {
                "start_time": 27.370454545454542,
                "end_time": 27.720454545454544,
                "pitch": 65,
                "velocity": 64,
                "duration": 0.3500000000000014,
                "tempo": 120.0
            },
            {
                "start_time": 27.736363636363635,
                "end_time": 27.970454545454544,
                "pitch": 69,
                "velocity": 64,
                "duration": 0.23409090909090935,
                "tempo": 120.0
            },
            {
                "start_time": 28.236363636363635,
                "end_time": 28.352272727272727,
                "pitch": 65,
                "velocity": 64,
                "duration": 0.11590909090909207,
                "tempo": 120.0
            },
            {
                "start_time": 28.370454545454542,
                "end_time": 28.470454545454544,
                "pitch": 65,
                "velocity": 64,
                "duration": 0.10000000000000142,
                "tempo": 120.0
            },
            {
                "start_time": 28.486363636363635,
                "end_time": 28.602272727272727,
                "pitch": 65,
                "velocity": 64,
                "duration": 0.11590909090909207,
                "tempo": 120.0
            },
            {
                "start_time": 28.620454545454542,
                "end_time": 28.970454545454544,
                "pitch": 65,
                "velocity": 64,
                "duration": 0.3500000000000014,
                "tempo": 120.0
            },
            {
                "start_time": 28.986363636363635,
                "end_time": 29.102272727272727,
                "pitch": 65,
                "velocity": 64,
                "duration": 0.11590909090909207,
                "tempo": 120.0
            },
            {
                "start_time": 29.120454545454542,
                "end_time": 29.220454545454544,
                "pitch": 65,
                "velocity": 64,
                "duration": 0.10000000000000142,
                "tempo": 120.0
            },
            {
                "start_time": 29.236363636363635,
                "end_time": 29.352272727272727,
                "pitch": 65,
                "velocity": 64,
                "duration": 0.11590909090909207,
                "tempo": 120.0
            },
            {
                "start_time": 29.370454545454542,
                "end_time": 29.470454545454544,
                "pitch": 65,
                "velocity": 64,
                "duration": 0.10000000000000142,
                "tempo": 120.0
            },
            {
                "start_time": 29.986363636363635,
                "end_time": 30.102272727272727,
                "pitch": 67,
                "velocity": 64,
                "duration": 0.11590909090909207,
                "tempo": 120.0
            },
            {
                "start_time": 30.120454545454542,
                "end_time": 30.352272727272727,
                "pitch": 67,
                "velocity": 64,
                "duration": 0.23181818181818414,
                "tempo": 120.0
            },
            {
                "start_time": 30.370454545454542,
                "end_time": 30.470454545454544,
                "pitch": 71,
                "velocity": 64,
                "duration": 0.10000000000000142,
                "tempo": 120.0
            },
            {
                "start_time": 30.486363636363635,
                "end_time": 30.720454545454544,
                "pitch": 65,
                "velocity": 64,
                "duration": 0.23409090909090935,
                "tempo": 120.0
            },
            {
                "start_time": 30.736363636363635,
                "end_time": 30.970454545454544,
                "pitch": 69,
                "velocity": 64,
                "duration": 0.23409090909090935,
                "tempo": 120.0
            },
            {
                "start_time": 30.986363636363635,
                "end_time": 31.220454545454544,
                "pitch": 67,
                "velocity": 64,
                "duration": 0.23409090909090935,
                "tempo": 120.0
            },
            {
                "start_time": 31.236363636363635,
                "end_time": 31.352272727272727,
                "pitch": 71,
                "velocity": 64,
                "duration": 0.11590909090909207,
                "tempo": 120.0
            },
            {
                "start_time": 31.370454545454542,
                "end_time": 31.720454545454544,
                "pitch": 65,
                "velocity": 64,
                "duration": 0.3500000000000014,
                "tempo": 120.0
            },
            {
                "start_time": 31.736363636363635,
                "end_time": 31.970454545454544,
                "pitch": 69,
                "velocity": 64,
                "duration": 0.23409090909090935,
                "tempo": 120.0
            },
            {
                "start_time": 32.236363636363635,
                "end_time": 32.35227272727273,
                "pitch": 65,
                "velocity": 64,
                "duration": 0.11590909090909207,
                "tempo": 120.0
            },
            {
                "start_time": 32.37045454545454,
                "end_time": 32.470454545454544,
                "pitch": 65,
                "velocity": 64,
                "duration": 0.10000000000000142,
                "tempo": 120.0
            },
            {
                "start_time": 32.486363636363635,
                "end_time": 32.60227272727273,
                "pitch": 65,
                "velocity": 64,
                "duration": 0.11590909090909207,
                "tempo": 120.0
            },
            {
                "start_time": 32.62045454545454,
                "end_time": 32.970454545454544,
                "pitch": 65,
                "velocity": 64,
                "duration": 0.3500000000000014,
                "tempo": 120.0
            },
            {
                "start_time": 32.986363636363635,
                "end_time": 33.10227272727273,
                "pitch": 65,
                "velocity": 64,
                "duration": 0.11590909090909207,
                "tempo": 120.0
            },
            {
                "start_time": 33.12045454545454,
                "end_time": 33.220454545454544,
                "pitch": 65,
                "velocity": 64,
                "duration": 0.10000000000000142,
                "tempo": 120.0
            },
            {
                "start_time": 33.236363636363635,
                "end_time": 33.35227272727273,
                "pitch": 65,
                "velocity": 64,
                "duration": 0.11590909090909207,
                "tempo": 120.0
            },
            {
                "start_time": 33.37045454545454,
                "end_time": 33.470454545454544,
                "pitch": 65,
                "velocity": 64,
                "duration": 0.10000000000000142,
                "tempo": 120.0
            },
            {
                "start_time": 33.986363636363635,
                "end_time": 34.35227272727273,
                "pitch": 61,
                "velocity": 64,
                "duration": 0.36590909090909207,
                "tempo": 120.0
            },
            {
                "start_time": 34.37045454545454,
                "end_time": 34.720454545454544,
                "pitch": 61,
                "velocity": 80,
                "duration": 0.3500000000000014,
                "tempo": 120.0
            },
            {
                "start_time": 34.736363636363635,
                "end_time": 35.220454545454544,
                "pitch": 61,
                "velocity": 80,
                "duration": 0.48409090909090935,
                "tempo": 120.0
            },
            {
                "start_time": 35.236363636363635,
                "end_time": 35.470454545454544,
                "pitch": 59,
                "velocity": 80,
                "duration": 0.23409090909090935,
                "tempo": 120.0
            },
            {
                "start_time": 35.486363636363635,
                "end_time": 35.720454545454544,
                "pitch": 61,
                "velocity": 80,
                "duration": 0.23409090909090935,
                "tempo": 120.0
            },
            {
                "start_time": 35.736363636363635,
                "end_time": 35.85227272727273,
                "pitch": 73,
                "velocity": 80,
                "duration": 0.11590909090909207,
                "tempo": 120.0
            },
            {
                "start_time": 35.87045454545454,
                "end_time": 35.970454545454544,
                "pitch": 73,
                "velocity": 80,
                "duration": 0.10000000000000142,
                "tempo": 120.0
            },
            {
                "start_time": 35.986363636363635,
                "end_time": 36.34772727272727,
                "pitch": 61,
                "velocity": 80,
                "duration": 0.36136363636363455,
                "tempo": 120.0
            },
            {
                "start_time": 36.36363636363636,
                "end_time": 36.699999999999996,
                "pitch": 61,
                "velocity": 80,
                "duration": 0.336363636363636,
                "tempo": 120.0
            },
            {
                "start_time": 36.715909090909086,
                "end_time": 37.220454545454544,
                "pitch": 61,
                "velocity": 80,
                "duration": 0.5045454545454575,
                "tempo": 120.0
            },
            {
                "start_time": 37.236363636363635,
                "end_time": 37.470454545454544,
                "pitch": 59,
                "velocity": 80,
                "duration": 0.23409090909090935,
                "tempo": 120.0
            },
            {
                "start_time": 37.486363636363635,
                "end_time": 37.60454545454545,
                "pitch": 61,
                "velocity": 80,
                "duration": 0.11818181818181728,
                "tempo": 120.0
            },
            {
                "start_time": 37.62045454545454,
                "end_time": 37.720454545454544,
                "pitch": 73,
                "velocity": 80,
                "duration": 0.10000000000000142,
                "tempo": 120.0
            },
            {
                "start_time": 37.736363636363635,
                "end_time": 37.85454545454545,
                "pitch": 73,
                "velocity": 80,
                "duration": 0.11818181818181728,
                "tempo": 120.0
            },
            {
                "start_time": 37.87045454545454,
                "end_time": 37.970454545454544,
                "pitch": 73,
                "velocity": 80,
                "duration": 0.10000000000000142,
                "tempo": 120.0
            },
            {
                "start_time": 37.986363636363635,
                "end_time": 38.35454545454545,
                "pitch": 59,
                "velocity": 80,
                "duration": 0.3681818181818173,
                "tempo": 120.0
            },
            {
                "start_time": 38.37045454545454,
                "end_time": 38.720454545454544,
                "pitch": 59,
                "velocity": 80,
                "duration": 0.3500000000000014,
                "tempo": 120.0
            },
            {
                "start_time": 38.736363636363635,
                "end_time": 39.220454545454544,
                "pitch": 59,
                "velocity": 80,
                "duration": 0.48409090909090935,
                "tempo": 120.0
            },
            {
                "start_time": 39.236363636363635,
                "end_time": 39.470454545454544,
                "pitch": 57,
                "velocity": 80,
                "duration": 0.23409090909090935,
                "tempo": 120.0
            },
            {
                "start_time": 39.486363636363635,
                "end_time": 39.720454545454544,
                "pitch": 59,
                "velocity": 80,
                "duration": 0.23409090909090935,
                "tempo": 120.0
            },
            {
                "start_time": 39.736363636363635,
                "end_time": 39.85454545454545,
                "pitch": 71,
                "velocity": 80,
                "duration": 0.11818181818181728,
                "tempo": 120.0
            },
            {
                "start_time": 39.87045454545454,
                "end_time": 39.970454545454544,
                "pitch": 71,
                "velocity": 80,
                "duration": 0.10000000000000142,
                "tempo": 120.0
            },
            {
                "start_time": 39.986363636363635,
                "end_time": 40.34772727272727,
                "pitch": 59,
                "velocity": 80,
                "duration": 0.36136363636363455,
                "tempo": 120.0
            },
            {
                "start_time": 40.36363636363636,
                "end_time": 40.699999999999996,
                "pitch": 59,
                "velocity": 80,
                "duration": 0.336363636363636,
                "tempo": 120.0
            },
            {
                "start_time": 40.715909090909086,
                "end_time": 41.220454545454544,
                "pitch": 59,
                "velocity": 80,
                "duration": 0.5045454545454575,
                "tempo": 120.0
            },
            {
                "start_time": 41.23863636363636,
                "end_time": 41.470454545454544,
                "pitch": 57,
                "velocity": 80,
                "duration": 0.23181818181818414,
                "tempo": 120.0
            },
            {
                "start_time": 41.48863636363636,
                "end_time": 41.60454545454545,
                "pitch": 59,
                "velocity": 80,
                "duration": 0.11590909090909207,
                "tempo": 120.0
            },
            {
                "start_time": 41.62045454545454,
                "end_time": 41.720454545454544,
                "pitch": 71,
                "velocity": 80,
                "duration": 0.10000000000000142,
                "tempo": 120.0
            },
            {
                "start_time": 41.73863636363636,
                "end_time": 41.85681818181818,
                "pitch": 71,
                "velocity": 80,
                "duration": 0.11818181818181728,
                "tempo": 120.0
            },
            {
                "start_time": 41.875,
                "end_time": 41.97727272727273,
                "pitch": 71,
                "velocity": 80,
                "duration": 0.10227272727272663,
                "tempo": 120.0
            },
            {
                "start_time": 41.99318181818182,
                "end_time": 42.36363636363636,
                "pitch": 61,
                "velocity": 80,
                "duration": 0.3704545454545425,
                "tempo": 120.0
            },
            {
                "start_time": 42.37954545454545,
                "end_time": 42.71818181818182,
                "pitch": 61,
                "velocity": 80,
                "duration": 0.3386363636363683,
                "tempo": 120.0
            },
            {
                "start_time": 42.73409090909091,
                "end_time": 43.22954545454545,
                "pitch": 61,
                "velocity": 80,
                "duration": 0.4954545454545425,
                "tempo": 120.0
            },
            {
                "start_time": 43.24545454545454,
                "end_time": 43.47954545454545,
                "pitch": 59,
                "velocity": 80,
                "duration": 0.23409090909090935,
                "tempo": 120.0
            },
            {
                "start_time": 43.49772727272727,
                "end_time": 43.72954545454545,
                "pitch": 61,
                "velocity": 80,
                "duration": 0.23181818181818414,
                "tempo": 120.0
            },
            {
                "start_time": 43.74772727272727,
                "end_time": 43.86363636363636,
                "pitch": 73,
                "velocity": 80,
                "duration": 0.11590909090909207,
                "tempo": 120.0
            },
            {
                "start_time": 43.87954545454545,
                "end_time": 43.97954545454545,
                "pitch": 73,
                "velocity": 80,
                "duration": 0.10000000000000142,
                "tempo": 120.0
            },
            {
                "start_time": 43.99772727272727,
                "end_time": 44.35909090909091,
                "pitch": 61,
                "velocity": 80,
                "duration": 0.36136363636364166,
                "tempo": 120.0
            },
            {
                "start_time": 44.375,
                "end_time": 44.709090909090904,
                "pitch": 61,
                "velocity": 80,
                "duration": 0.33409090909090366,
                "tempo": 120.0
            },
            {
                "start_time": 44.72727272727273,
                "end_time": 45.22954545454545,
                "pitch": 61,
                "velocity": 80,
                "duration": 0.5022727272727252,
                "tempo": 120.0
            },
            {
                "start_time": 45.24772727272727,
                "end_time": 45.48181818181818,
                "pitch": 59,
                "velocity": 80,
                "duration": 0.23409090909090935,
                "tempo": 120.0
            },
            {
                "start_time": 45.49772727272727,
                "end_time": 45.61363636363636,
                "pitch": 61,
                "velocity": 80,
                "duration": 0.11590909090909207,
                "tempo": 120.0
            },
            {
                "start_time": 45.63181818181818,
                "end_time": 45.73181818181818,
                "pitch": 73,
                "velocity": 80,
                "duration": 0.09999999999999432,
                "tempo": 120.0
            },
            {
                "start_time": 45.74772727272727,
                "end_time": 45.86590909090909,
                "pitch": 73,
                "velocity": 80,
                "duration": 0.11818181818182438,
                "tempo": 120.0
            },
            {
                "start_time": 45.88409090909091,
                "end_time": 45.986363636363635,
                "pitch": 73,
                "velocity": 80,
                "duration": 0.10227272727272663,
                "tempo": 120.0
            },
            {
                "start_time": 46.00454545454545,
                "end_time": 46.375,
                "pitch": 64,
                "velocity": 80,
                "duration": 0.3704545454545496,
                "tempo": 120.0
            },
            {
                "start_time": 46.39090909090909,
                "end_time": 46.736363636363635,
                "pitch": 64,
                "velocity": 80,
                "duration": 0.3454545454545439,
                "tempo": 120.0
            },
            {
                "start_time": 46.752272727272725,
                "end_time": 47.236363636363635,
                "pitch": 64,
                "velocity": 80,
                "duration": 0.48409090909090935,
                "tempo": 120.0
            },
            {
                "start_time": 47.252272727272725,
                "end_time": 47.486363636363635,
                "pitch": 64,
                "velocity": 80,
                "duration": 0.23409090909090935,
                "tempo": 120.0
            },
            {
                "start_time": 47.502272727272725,
                "end_time": 47.736363636363635,
                "pitch": 64,
                "velocity": 80,
                "duration": 0.23409090909090935,
                "tempo": 120.0
            },
            {
                "start_time": 47.752272727272725,
                "end_time": 47.87045454545454,
                "pitch": 67,
                "velocity": 80,
                "duration": 0.11818181818181728,
                "tempo": 120.0
            },
            {
                "start_time": 47.88863636363636,
                "end_time": 47.99090909090909,
                "pitch": 67,
                "velocity": 80,
                "duration": 0.10227272727273373,
                "tempo": 120.0
            },
            {
                "start_time": 48.00909090909091,
                "end_time": 48.37272727272727,
                "pitch": 74,
                "velocity": 80,
                "duration": 0.36363636363635976,
                "tempo": 120.0
            },
            {
                "start_time": 48.38863636363636,
                "end_time": 48.720454545454544,
                "pitch": 74,
                "velocity": 80,
                "duration": 0.33181818181818556,
                "tempo": 120.0
            },
            {
                "start_time": 48.736363636363635,
                "end_time": 49.23863636363636,
                "pitch": 74,
                "velocity": 80,
                "duration": 0.5022727272727252,
                "tempo": 120.0
            },
            {
                "start_time": 49.25681818181818,
                "end_time": 49.490909090909085,
                "pitch": 76,
                "velocity": 80,
                "duration": 0.23409090909090224,
                "tempo": 120.0
            },
            {
                "start_time": 49.50681818181818,
                "end_time": 49.740909090909085,
                "pitch": 78,
                "velocity": 80,
                "duration": 0.23409090909090224,
                "tempo": 120.0
            }
        ],
        "Electric Guitar (clean)": [
            {
                "start_time": 0.020454545454545454,
                "end_time": 0.3136363636363636,
                "pitch": 38,
                "velocity": 51,
                "duration": 0.29318181818181815,
                "tempo": 120.0
            },
            {
                "start_time": 0.3318181818181818,
                "end_time": 0.4318181818181818,
                "pitch": 38,
                "velocity": 51,
                "duration": 0.10000000000000003,
                "tempo": 120.0
            },
            {
                "start_time": 0.6977272727272726,
                "end_time": 0.8181818181818181,
                "pitch": 38,
                "velocity": 51,
                "duration": 0.12045454545454548,
                "tempo": 120.0
            },
            {
                "start_time": 1.2113636363636362,
                "end_time": 1.4431818181818181,
                "pitch": 36,
                "velocity": 51,
                "duration": 0.23181818181818192,
                "tempo": 120.0
            },
            {
                "start_time": 1.4613636363636362,
                "end_time": 1.6931818181818181,
                "pitch": 38,
                "velocity": 51,
                "duration": 0.23181818181818192,
                "tempo": 120.0
            },
            {
                "start_time": 1.9613636363636362,
                "end_time": 2.193181818181818,
                "pitch": 38,
                "velocity": 51,
                "duration": 0.2318181818181817,
                "tempo": 120.0
            },
            {
                "start_time": 2.2113636363636364,
                "end_time": 2.4499999999999997,
                "pitch": 38,
                "velocity": 51,
                "duration": 0.2386363636363633,
                "tempo": 120.0
            },
            {
                "start_time": 2.465909090909091,
                "end_time": 2.7068181818181816,
                "pitch": 33,
                "velocity": 51,
                "duration": 0.24090909090909074,
                "tempo": 120.0
            },
            {
                "start_time": 2.7227272727272727,
                "end_time": 2.8386363636363634,
                "pitch": 38,
                "velocity": 51,
                "duration": 0.11590909090909074,
                "tempo": 120.0
            },
            {
                "start_time": 2.8568181818181815,
                "end_time": 3.0886363636363634,
                "pitch": 36,
                "velocity": 51,
                "duration": 0.23181818181818192,
                "tempo": 120.0
            },
            {
                "start_time": 3.1068181818181815,
                "end_time": 3.2068181818181816,
                "pitch": 36,
                "velocity": 51,
                "duration": 0.10000000000000009,
                "tempo": 120.0
            },
            {
                "start_time": 3.2227272727272727,
                "end_time": 3.461363636363636,
                "pitch": 36,
                "velocity": 51,
                "duration": 0.2386363636363633,
                "tempo": 120.0
            },
            {
                "start_time": 3.4795454545454545,
                "end_time": 3.718181818181818,
                "pitch": 33,
                "velocity": 51,
                "duration": 0.2386363636363633,
                "tempo": 120.0
            },
            {
                "start_time": 3.7363636363636363,
                "end_time": 3.965909090909091,
                "pitch": 36,
                "velocity": 51,
                "duration": 0.2295454545454545,
                "tempo": 120.0
            },
            {
                "start_time": 3.9818181818181815,
                "end_time": 4.211363636363636,
                "pitch": 38,
                "velocity": 51,
                "duration": 0.2295454545454545,
                "tempo": 120.0
            },
            {
                "start_time": 4.227272727272727,
                "end_time": 4.461363636363636,
                "pitch": 38,
                "velocity": 51,
                "duration": 0.23409090909090935,
                "tempo": 120.0
            },
            {
                "start_time": 4.477272727272727,
                "end_time": 4.711363636363636,
                "pitch": 33,
                "velocity": 51,
                "duration": 0.23409090909090935,
                "tempo": 120.0
            },
            {
                "start_time": 4.727272727272727,
                "end_time": 4.843181818181818,
                "pitch": 38,
                "velocity": 51,
                "duration": 0.11590909090909118,
                "tempo": 120.0
            },
            {
                "start_time": 4.861363636363636,
                "end_time": 5.093181818181818,
                "pitch": 36,
                "velocity": 51,
                "duration": 0.23181818181818148,
                "tempo": 120.0
            },
            {
                "start_time": 5.111363636363636,
                "end_time": 5.211363636363636,
                "pitch": 36,
                "velocity": 51,
                "duration": 0.09999999999999964,
                "tempo": 120.0
            },
            {
                "start_time": 5.227272727272727,
                "end_time": 5.461363636363636,
                "pitch": 36,
                "velocity": 51,
                "duration": 0.23409090909090935,
                "tempo": 120.0
            },
            {
                "start_time": 5.477272727272727,
                "end_time": 5.711363636363636,
                "pitch": 33,
                "velocity": 51,
                "duration": 0.23409090909090935,
                "tempo": 120.0
            },
            {
                "start_time": 5.727272727272727,
                "end_time": 5.961363636363636,
                "pitch": 36,
                "velocity": 51,
                "duration": 0.23409090909090935,
                "tempo": 120.0
            },
            {
                "start_time": 5.977272727272727,
                "end_time": 6.211363636363636,
                "pitch": 38,
                "velocity": 51,
                "duration": 0.23409090909090935,
                "tempo": 120.0
            },
            {
                "start_time": 6.227272727272727,
                "end_time": 6.461363636363636,
                "pitch": 38,
                "velocity": 51,
                "duration": 0.23409090909090935,
                "tempo": 120.0
            },
            {
                "start_time": 6.477272727272727,
                "end_time": 6.711363636363636,
                "pitch": 33,
                "velocity": 51,
                "duration": 0.23409090909090935,
                "tempo": 120.0
            },
            {
                "start_time": 6.727272727272727,
                "end_time": 6.843181818181818,
                "pitch": 38,
                "velocity": 51,
                "duration": 0.11590909090909118,
                "tempo": 120.0
            },
            {
                "start_time": 6.861363636363636,
                "end_time": 7.093181818181818,
                "pitch": 36,
                "velocity": 51,
                "duration": 0.23181818181818148,
                "tempo": 120.0
            },
            {
                "start_time": 7.111363636363636,
                "end_time": 7.211363636363636,
                "pitch": 36,
                "velocity": 51,
                "duration": 0.09999999999999964,
                "tempo": 120.0
            },
            {
                "start_time": 7.227272727272727,
                "end_time": 7.461363636363636,
                "pitch": 36,
                "velocity": 51,
                "duration": 0.23409090909090935,
                "tempo": 120.0
            },
            {
                "start_time": 7.477272727272727,
                "end_time": 7.711363636363636,
                "pitch": 33,
                "velocity": 51,
                "duration": 0.23409090909090935,
                "tempo": 120.0
            },
            {
                "start_time": 7.727272727272727,
                "end_time": 7.961363636363636,
                "pitch": 36,
                "velocity": 51,
                "duration": 0.23409090909090935,
                "tempo": 120.0
            },
            {
                "start_time": 7.977272727272727,
                "end_time": 8.211363636363636,
                "pitch": 38,
                "velocity": 51,
                "duration": 0.23409090909090935,
                "tempo": 120.0
            },
            {
                "start_time": 8.227272727272727,
                "end_time": 8.461363636363636,
                "pitch": 38,
                "velocity": 51,
                "duration": 0.23409090909090935,
                "tempo": 120.0
            },
            {
                "start_time": 8.477272727272727,
                "end_time": 8.711363636363636,
                "pitch": 33,
                "velocity": 51,
                "duration": 0.23409090909090935,
                "tempo": 120.0
            },
            {
                "start_time": 8.727272727272727,
                "end_time": 8.843181818181817,
                "pitch": 38,
                "velocity": 51,
                "duration": 0.1159090909090903,
                "tempo": 120.0
            },
            {
                "start_time": 8.861363636363636,
                "end_time": 9.093181818181817,
                "pitch": 36,
                "velocity": 51,
                "duration": 0.2318181818181806,
                "tempo": 120.0
            },
            {
                "start_time": 9.111363636363636,
                "end_time": 9.211363636363636,
                "pitch": 36,
                "velocity": 51,
                "duration": 0.09999999999999964,
                "tempo": 120.0
            },
            {
                "start_time": 9.227272727272727,
                "end_time": 9.461363636363636,
                "pitch": 38,
                "velocity": 51,
                "duration": 0.23409090909090935,
                "tempo": 120.0
            },
            {
                "start_time": 9.477272727272727,
                "end_time": 9.711363636363636,
                "pitch": 40,
                "velocity": 51,
                "duration": 0.23409090909090935,
                "tempo": 120.0
            },
            {
                "start_time": 9.727272727272727,
                "end_time": 9.961363636363636,
                "pitch": 41,
                "velocity": 51,
                "duration": 0.23409090909090935,
                "tempo": 120.0
            },
            {
                "start_time": 9.977272727272727,
                "end_time": 10.211363636363636,
                "pitch": 43,
                "velocity": 51,
                "duration": 0.23409090909090935,
                "tempo": 120.0
            },
            {
                "start_time": 10.227272727272727,
                "end_time": 10.461363636363636,
                "pitch": 43,
                "velocity": 51,
                "duration": 0.23409090909090935,
                "tempo": 120.0
            },
            {
                "start_time": 10.477272727272727,
                "end_time": 10.711363636363636,
                "pitch": 38,
                "velocity": 51,
                "duration": 0.23409090909090935,
                "tempo": 120.0
            },
            {
                "start_time": 10.727272727272727,
                "end_time": 10.843181818181817,
                "pitch": 43,
                "velocity": 51,
                "duration": 0.1159090909090903,
                "tempo": 120.0
            },
            {
                "start_time": 10.861363636363636,
                "end_time": 11.093181818181817,
                "pitch": 41,
                "velocity": 51,
                "duration": 0.2318181818181806,
                "tempo": 120.0
            },
            {
                "start_time": 11.111363636363636,
                "end_time": 11.211363636363636,
                "pitch": 41,
                "velocity": 51,
                "duration": 0.09999999999999964,
                "tempo": 120.0
            },
            {
                "start_time": 11.227272727272727,
                "end_time": 11.461363636363636,
                "pitch": 41,
                "velocity": 51,
                "duration": 0.23409090909090935,
                "tempo": 120.0
            },
            {
                "start_time": 11.477272727272727,
                "end_time": 11.711363636363636,
                "pitch": 38,
                "velocity": 51,
                "duration": 0.23409090909090935,
                "tempo": 120.0
            },
            {
                "start_time": 11.727272727272727,
                "end_time": 11.961363636363636,
                "pitch": 41,
                "velocity": 51,
                "duration": 0.23409090909090935,
                "tempo": 120.0
            },
            {
                "start_time": 11.977272727272727,
                "end_time": 12.211363636363636,
                "pitch": 43,
                "velocity": 51,
                "duration": 0.23409090909090935,
                "tempo": 120.0
            },
            {
                "start_time": 12.227272727272727,
                "end_time": 12.461363636363636,
                "pitch": 43,
                "velocity": 51,
                "duration": 0.23409090909090935,
                "tempo": 120.0
            },
            {
                "start_time": 12.477272727272727,
                "end_time": 12.711363636363636,
                "pitch": 38,
                "velocity": 51,
                "duration": 0.23409090909090935,
                "tempo": 120.0
            },
            {
                "start_time": 12.727272727272727,
                "end_time": 12.843181818181817,
                "pitch": 43,
                "velocity": 51,
                "duration": 0.1159090909090903,
                "tempo": 120.0
            },
            {
                "start_time": 12.861363636363636,
                "end_time": 13.093181818181817,
                "pitch": 41,
                "velocity": 51,
                "duration": 0.2318181818181806,
                "tempo": 120.0
            },
            {
                "start_time": 13.111363636363636,
                "end_time": 13.211363636363636,
                "pitch": 41,
                "velocity": 51,
                "duration": 0.09999999999999964,
                "tempo": 120.0
            },
            {
                "start_time": 13.227272727272727,
                "end_time": 13.461363636363636,
                "pitch": 41,
                "velocity": 51,
                "duration": 0.23409090909090935,
                "tempo": 120.0
            },
            {
                "start_time": 13.477272727272727,
                "end_time": 13.711363636363636,
                "pitch": 38,
                "velocity": 51,
                "duration": 0.23409090909090935,
                "tempo": 120.0
            },
            {
                "start_time": 13.727272727272727,
                "end_time": 13.961363636363636,
                "pitch": 41,
                "velocity": 51,
                "duration": 0.23409090909090935,
                "tempo": 120.0
            },
            {
                "start_time": 13.977272727272727,
                "end_time": 14.211363636363636,
                "pitch": 43,
                "velocity": 51,
                "duration": 0.23409090909090935,
                "tempo": 120.0
            },
            {
                "start_time": 14.227272727272727,
                "end_time": 14.461363636363636,
                "pitch": 43,
                "velocity": 51,
                "duration": 0.23409090909090935,
                "tempo": 120.0
            },
            {
                "start_time": 14.477272727272727,
                "end_time": 14.711363636363636,
                "pitch": 38,
                "velocity": 51,
                "duration": 0.23409090909090935,
                "tempo": 120.0
            },
            {
                "start_time": 14.727272727272727,
                "end_time": 14.843181818181817,
                "pitch": 43,
                "velocity": 51,
                "duration": 0.1159090909090903,
                "tempo": 120.0
            },
            {
                "start_time": 14.861363636363636,
                "end_time": 15.093181818181817,
                "pitch": 41,
                "velocity": 51,
                "duration": 0.2318181818181806,
                "tempo": 120.0
            },
            {
                "start_time": 15.111363636363636,
                "end_time": 15.211363636363636,
                "pitch": 41,
                "velocity": 51,
                "duration": 0.09999999999999964,
                "tempo": 120.0
            },
            {
                "start_time": 15.227272727272727,
                "end_time": 15.461363636363636,
                "pitch": 41,
                "velocity": 51,
                "duration": 0.23409090909090935,
                "tempo": 120.0
            },
            {
                "start_time": 15.477272727272727,
                "end_time": 15.711363636363636,
                "pitch": 38,
                "velocity": 51,
                "duration": 0.23409090909090935,
                "tempo": 120.0
            },
            {
                "start_time": 15.727272727272727,
                "end_time": 15.961363636363636,
                "pitch": 41,
                "velocity": 51,
                "duration": 0.23409090909090935,
                "tempo": 120.0
            },
            {
                "start_time": 15.977272727272727,
                "end_time": 16.211363636363636,
                "pitch": 43,
                "velocity": 51,
                "duration": 0.23409090909090935,
                "tempo": 120.0
            },
            {
                "start_time": 16.227272727272727,
                "end_time": 16.461363636363636,
                "pitch": 43,
                "velocity": 51,
                "duration": 0.23409090909090935,
                "tempo": 120.0
            },
            {
                "start_time": 16.477272727272727,
                "end_time": 16.711363636363636,
                "pitch": 38,
                "velocity": 51,
                "duration": 0.23409090909090935,
                "tempo": 120.0
            },
            {
                "start_time": 16.727272727272727,
                "end_time": 16.84318181818182,
                "pitch": 43,
                "velocity": 51,
                "duration": 0.11590909090909207,
                "tempo": 120.0
            },
            {
                "start_time": 16.861363636363635,
                "end_time": 17.09318181818182,
                "pitch": 41,
                "velocity": 51,
                "duration": 0.23181818181818414,
                "tempo": 120.0
            },
            {
                "start_time": 17.111363636363635,
                "end_time": 17.211363636363636,
                "pitch": 41,
                "velocity": 51,
                "duration": 0.10000000000000142,
                "tempo": 120.0
            },
            {
                "start_time": 17.227272727272727,
                "end_time": 17.46590909090909,
                "pitch": 41,
                "velocity": 51,
                "duration": 0.2386363636363633,
                "tempo": 120.0
            },
            {
                "start_time": 17.48409090909091,
                "end_time": 17.722727272727273,
                "pitch": 40,
                "velocity": 51,
                "duration": 0.2386363636363633,
                "tempo": 120.0
            },
            {
                "start_time": 17.74090909090909,
                "end_time": 17.970454545454544,
                "pitch": 38,
                "velocity": 51,
                "duration": 0.22954545454545539,
                "tempo": 120.0
            },
            {
                "start_time": 17.986363636363635,
                "end_time": 18.21590909090909,
                "pitch": 38,
                "velocity": 51,
                "duration": 0.22954545454545539,
                "tempo": 120.0
            },
            {
                "start_time": 18.23181818181818,
                "end_time": 18.46590909090909,
                "pitch": 38,
                "velocity": 51,
                "duration": 0.23409090909090935,
                "tempo": 120.0
            },
            {
                "start_time": 18.48181818181818,
                "end_time": 18.71590909090909,
                "pitch": 33,
                "velocity": 51,
                "duration": 0.23409090909090935,
                "tempo": 120.0
            },
            {
                "start_time": 18.73181818181818,
                "end_time": 18.847727272727273,
                "pitch": 38,
                "velocity": 51,
                "duration": 0.11590909090909207,
                "tempo": 120.0
            },
            {
                "start_time": 18.86590909090909,
                "end_time": 19.097727272727273,
                "pitch": 36,
                "velocity": 51,
                "duration": 0.23181818181818414,
                "tempo": 120.0
            },
            {
                "start_time": 19.11590909090909,
                "end_time": 19.21590909090909,
                "pitch": 36,
                "velocity": 51,
                "duration": 0.10000000000000142,
                "tempo": 120.0
            },
            {
                "start_time": 19.23181818181818,
                "end_time": 19.46590909090909,
                "pitch": 36,
                "velocity": 51,
                "duration": 0.23409090909090935,
                "tempo": 120.0
            },
            {
                "start_time": 19.48181818181818,
                "end_time": 19.71590909090909,
                "pitch": 33,
                "velocity": 51,
                "duration": 0.23409090909090935,
                "tempo": 120.0
            },
            {
                "start_time": 19.73181818181818,
                "end_time": 19.96590909090909,
                "pitch": 36,
                "velocity": 51,
                "duration": 0.23409090909090935,
                "tempo": 120.0
            },
            {
                "start_time": 19.98181818181818,
                "end_time": 20.21590909090909,
                "pitch": 38,
                "velocity": 51,
                "duration": 0.23409090909090935,
                "tempo": 120.0
            },
            {
                "start_time": 20.23181818181818,
                "end_time": 20.46590909090909,
                "pitch": 38,
                "velocity": 51,
                "duration": 0.23409090909090935,
                "tempo": 120.0
            },
            {
                "start_time": 20.48181818181818,
                "end_time": 20.71590909090909,
                "pitch": 33,
                "velocity": 51,
                "duration": 0.23409090909090935,
                "tempo": 120.0
            },
            {
                "start_time": 20.73181818181818,
                "end_time": 20.847727272727273,
                "pitch": 38,
                "velocity": 51,
                "duration": 0.11590909090909207,
                "tempo": 120.0
            },
            {
                "start_time": 20.86590909090909,
                "end_time": 21.097727272727273,
                "pitch": 36,
                "velocity": 51,
                "duration": 0.23181818181818414,
                "tempo": 120.0
            },
            {
                "start_time": 21.11590909090909,
                "end_time": 21.21590909090909,
                "pitch": 36,
                "velocity": 51,
                "duration": 0.10000000000000142,
                "tempo": 120.0
            },
            {
                "start_time": 21.23181818181818,
                "end_time": 21.46590909090909,
                "pitch": 36,
                "velocity": 51,
                "duration": 0.23409090909090935,
                "tempo": 120.0
            },
            {
                "start_time": 21.48181818181818,
                "end_time": 21.71590909090909,
                "pitch": 33,
                "velocity": 51,
                "duration": 0.23409090909090935,
                "tempo": 120.0
            },
            {
                "start_time": 21.73181818181818,
                "end_time": 21.96590909090909,
                "pitch": 36,
                "velocity": 51,
                "duration": 0.23409090909090935,
                "tempo": 120.0
            },
            {
                "start_time": 21.98181818181818,
                "end_time": 22.21590909090909,
                "pitch": 38,
                "velocity": 51,
                "duration": 0.23409090909090935,
                "tempo": 120.0
            },
            {
                "start_time": 22.23181818181818,
                "end_time": 22.46590909090909,
                "pitch": 38,
                "velocity": 51,
                "duration": 0.23409090909090935,
                "tempo": 120.0
            },
            {
                "start_time": 22.48181818181818,
                "end_time": 22.71590909090909,
                "pitch": 33,
                "velocity": 51,
                "duration": 0.23409090909090935,
                "tempo": 120.0
            },
            {
                "start_time": 22.73181818181818,
                "end_time": 22.847727272727273,
                "pitch": 38,
                "velocity": 51,
                "duration": 0.11590909090909207,
                "tempo": 120.0
            },
            {
                "start_time": 22.86590909090909,
                "end_time": 23.097727272727273,
                "pitch": 36,
                "velocity": 51,
                "duration": 0.23181818181818414,
                "tempo": 120.0
            },
            {
                "start_time": 23.11590909090909,
                "end_time": 23.21590909090909,
                "pitch": 36,
                "velocity": 51,
                "duration": 0.10000000000000142,
                "tempo": 120.0
            },
            {
                "start_time": 23.23181818181818,
                "end_time": 23.470454545454544,
                "pitch": 36,
                "velocity": 51,
                "duration": 0.2386363636363633,
                "tempo": 120.0
            },
            {
                "start_time": 23.488636363636363,
                "end_time": 23.727272727272727,
                "pitch": 33,
                "velocity": 51,
                "duration": 0.2386363636363633,
                "tempo": 120.0
            },
            {
                "start_time": 23.743181818181817,
                "end_time": 23.974999999999998,
                "pitch": 36,
                "velocity": 51,
                "duration": 0.2318181818181806,
                "tempo": 120.0
            },
            {
                "start_time": 23.99090909090909,
                "end_time": 24.220454545454544,
                "pitch": 38,
                "velocity": 51,
                "duration": 0.22954545454545539,
                "tempo": 120.0
            },
            {
                "start_time": 24.236363636363635,
                "end_time": 24.470454545454544,
                "pitch": 38,
                "velocity": 51,
                "duration": 0.23409090909090935,
                "tempo": 120.0
            },
            {
                "start_time": 24.486363636363635,
                "end_time": 24.720454545454544,
                "pitch": 33,
                "velocity": 51,
                "duration": 0.23409090909090935,
                "tempo": 120.0
            },
            {
                "start_time": 24.736363636363635,
                "end_time": 24.852272727272727,
                "pitch": 38,
                "velocity": 51,
                "duration": 0.11590909090909207,
                "tempo": 120.0
            },
            {
                "start_time": 24.870454545454542,
                "end_time": 25.102272727272727,
                "pitch": 36,
                "velocity": 51,
                "duration": 0.23181818181818414,
                "tempo": 120.0
            },
            {
                "start_time": 25.120454545454542,
                "end_time": 25.220454545454544,
                "pitch": 36,
                "velocity": 51,
                "duration": 0.10000000000000142,
                "tempo": 120.0
            },
            {
                "start_time": 25.236363636363635,
                "end_time": 25.470454545454544,
                "pitch": 38,
                "velocity": 51,
                "duration": 0.23409090909090935,
                "tempo": 120.0
            },
            {
                "start_time": 25.486363636363635,
                "end_time": 25.720454545454544,
                "pitch": 40,
                "velocity": 51,
                "duration": 0.23409090909090935,
                "tempo": 120.0
            },
            {
                "start_time": 25.736363636363635,
                "end_time": 25.970454545454544,
                "pitch": 41,
                "velocity": 51,
                "duration": 0.23409090909090935,
                "tempo": 120.0
            },
            {
                "start_time": 25.986363636363635,
                "end_time": 26.220454545454544,
                "pitch": 43,
                "velocity": 51,
                "duration": 0.23409090909090935,
                "tempo": 120.0
            },
            {
                "start_time": 26.236363636363635,
                "end_time": 26.470454545454544,
                "pitch": 43,
                "velocity": 51,
                "duration": 0.23409090909090935,
                "tempo": 120.0
            },
            {
                "start_time": 26.486363636363635,
                "end_time": 26.720454545454544,
                "pitch": 38,
                "velocity": 51,
                "duration": 0.23409090909090935,
                "tempo": 120.0
            },
            {
                "start_time": 26.736363636363635,
                "end_time": 26.852272727272727,
                "pitch": 43,
                "velocity": 51,
                "duration": 0.11590909090909207,
                "tempo": 120.0
            },
            {
                "start_time": 26.870454545454542,
                "end_time": 27.102272727272727,
                "pitch": 41,
                "velocity": 51,
                "duration": 0.23181818181818414,
                "tempo": 120.0
            },
            {
                "start_time": 27.120454545454542,
                "end_time": 27.220454545454544,
                "pitch": 41,
                "velocity": 51,
                "duration": 0.10000000000000142,
                "tempo": 120.0
            },
            {
                "start_time": 27.236363636363635,
                "end_time": 27.470454545454544,
                "pitch": 41,
                "velocity": 51,
                "duration": 0.23409090909090935,
                "tempo": 120.0
            },
            {
                "start_time": 27.486363636363635,
                "end_time": 27.720454545454544,
                "pitch": 38,
                "velocity": 51,
                "duration": 0.23409090909090935,
                "tempo": 120.0
            },
            {
                "start_time": 27.736363636363635,
                "end_time": 27.970454545454544,
                "pitch": 41,
                "velocity": 51,
                "duration": 0.23409090909090935,
                "tempo": 120.0
            },
            {
                "start_time": 27.986363636363635,
                "end_time": 28.220454545454544,
                "pitch": 43,
                "velocity": 51,
                "duration": 0.23409090909090935,
                "tempo": 120.0
            },
            {
                "start_time": 28.236363636363635,
                "end_time": 28.470454545454544,
                "pitch": 43,
                "velocity": 51,
                "duration": 0.23409090909090935,
                "tempo": 120.0
            },
            {
                "start_time": 28.486363636363635,
                "end_time": 28.720454545454544,
                "pitch": 38,
                "velocity": 51,
                "duration": 0.23409090909090935,
                "tempo": 120.0
            },
            {
                "start_time": 28.736363636363635,
                "end_time": 28.852272727272727,
                "pitch": 43,
                "velocity": 51,
                "duration": 0.11590909090909207,
                "tempo": 120.0
            },
            {
                "start_time": 28.870454545454542,
                "end_time": 29.102272727272727,
                "pitch": 41,
                "velocity": 51,
                "duration": 0.23181818181818414,
                "tempo": 120.0
            },
            {
                "start_time": 29.120454545454542,
                "end_time": 29.220454545454544,
                "pitch": 41,
                "velocity": 51,
                "duration": 0.10000000000000142,
                "tempo": 120.0
            },
            {
                "start_time": 29.236363636363635,
                "end_time": 29.470454545454544,
                "pitch": 41,
                "velocity": 51,
                "duration": 0.23409090909090935,
                "tempo": 120.0
            },
            {
                "start_time": 29.486363636363635,
                "end_time": 29.720454545454544,
                "pitch": 38,
                "velocity": 51,
                "duration": 0.23409090909090935,
                "tempo": 120.0
            },
            {
                "start_time": 29.736363636363635,
                "end_time": 29.970454545454544,
                "pitch": 41,
                "velocity": 51,
                "duration": 0.23409090909090935,
                "tempo": 120.0
            },
            {
                "start_time": 29.986363636363635,
                "end_time": 30.220454545454544,
                "pitch": 43,
                "velocity": 51,
                "duration": 0.23409090909090935,
                "tempo": 120.0
            },
            {
                "start_time": 30.236363636363635,
                "end_time": 30.470454545454544,
                "pitch": 43,
                "velocity": 51,
                "duration": 0.23409090909090935,
                "tempo": 120.0
            },
            {
                "start_time": 30.486363636363635,
                "end_time": 30.720454545454544,
                "pitch": 38,
                "velocity": 51,
                "duration": 0.23409090909090935,
                "tempo": 120.0
            },
            {
                "start_time": 30.736363636363635,
                "end_time": 30.852272727272727,
                "pitch": 43,
                "velocity": 51,
                "duration": 0.11590909090909207,
                "tempo": 120.0
            },
            {
                "start_time": 30.870454545454542,
                "end_time": 31.102272727272727,
                "pitch": 41,
                "velocity": 51,
                "duration": 0.23181818181818414,
                "tempo": 120.0
            },
            {
                "start_time": 31.120454545454542,
                "end_time": 31.220454545454544,
                "pitch": 41,
                "velocity": 51,
                "duration": 0.10000000000000142,
                "tempo": 120.0
            },
            {
                "start_time": 31.236363636363635,
                "end_time": 31.470454545454544,
                "pitch": 41,
                "velocity": 51,
                "duration": 0.23409090909090935,
                "tempo": 120.0
            },
            {
                "start_time": 31.486363636363635,
                "end_time": 31.720454545454544,
                "pitch": 38,
                "velocity": 51,
                "duration": 0.23409090909090935,
                "tempo": 120.0
            },
            {
                "start_time": 31.736363636363635,
                "end_time": 31.970454545454544,
                "pitch": 41,
                "velocity": 51,
                "duration": 0.23409090909090935,
                "tempo": 120.0
            },
            {
                "start_time": 31.986363636363635,
                "end_time": 32.220454545454544,
                "pitch": 43,
                "velocity": 51,
                "duration": 0.23409090909090935,
                "tempo": 120.0
            },
            {
                "start_time": 32.236363636363635,
                "end_time": 32.470454545454544,
                "pitch": 43,
                "velocity": 51,
                "duration": 0.23409090909090935,
                "tempo": 120.0
            },
            {
                "start_time": 32.486363636363635,
                "end_time": 32.720454545454544,
                "pitch": 38,
                "velocity": 51,
                "duration": 0.23409090909090935,
                "tempo": 120.0
            },
            {
                "start_time": 32.736363636363635,
                "end_time": 32.85227272727273,
                "pitch": 43,
                "velocity": 51,
                "duration": 0.11590909090909207,
                "tempo": 120.0
            },
            {
                "start_time": 32.87045454545454,
                "end_time": 33.10227272727273,
                "pitch": 41,
                "velocity": 51,
                "duration": 0.23181818181818414,
                "tempo": 120.0
            },
            {
                "start_time": 33.12045454545454,
                "end_time": 33.220454545454544,
                "pitch": 41,
                "velocity": 51,
                "duration": 0.10000000000000142,
                "tempo": 120.0
            },
            {
                "start_time": 33.236363636363635,
                "end_time": 33.470454545454544,
                "pitch": 41,
                "velocity": 51,
                "duration": 0.23409090909090935,
                "tempo": 120.0
            },
            {
                "start_time": 33.486363636363635,
                "end_time": 33.720454545454544,
                "pitch": 40,
                "velocity": 51,
                "duration": 0.23409090909090935,
                "tempo": 120.0
            },
            {
                "start_time": 33.736363636363635,
                "end_time": 33.970454545454544,
                "pitch": 38,
                "velocity": 51,
                "duration": 0.23409090909090935,
                "tempo": 120.0
            },
            {
                "start_time": 33.986363636363635,
                "end_time": 34.35227272727273,
                "pitch": 33,
                "velocity": 51,
                "duration": 0.36590909090909207,
                "tempo": 120.0
            },
            {
                "start_time": 34.37045454545454,
                "end_time": 34.720454545454544,
                "pitch": 33,
                "velocity": 64,
                "duration": 0.3500000000000014,
                "tempo": 120.0
            },
            {
                "start_time": 34.736363636363635,
                "end_time": 35.220454545454544,
                "pitch": 33,
                "velocity": 64,
                "duration": 0.48409090909090935,
                "tempo": 120.0
            },
            {
                "start_time": 35.236363636363635,
                "end_time": 35.470454545454544,
                "pitch": 31,
                "velocity": 64,
                "duration": 0.23409090909090935,
                "tempo": 120.0
            },
            {
                "start_time": 35.486363636363635,
                "end_time": 35.970454545454544,
                "pitch": 33,
                "velocity": 64,
                "duration": 0.48409090909090935,
                "tempo": 120.0
            },
            {
                "start_time": 35.986363636363635,
                "end_time": 36.34772727272727,
                "pitch": 33,
                "velocity": 64,
                "duration": 0.36136363636363455,
                "tempo": 120.0
            },
            {
                "start_time": 36.36363636363636,
                "end_time": 36.699999999999996,
                "pitch": 33,
                "velocity": 64,
                "duration": 0.336363636363636,
                "tempo": 120.0
            },
            {
                "start_time": 36.715909090909086,
                "end_time": 37.220454545454544,
                "pitch": 33,
                "velocity": 64,
                "duration": 0.5045454545454575,
                "tempo": 120.0
            },
            {
                "start_time": 37.236363636363635,
                "end_time": 37.470454545454544,
                "pitch": 31,
                "velocity": 64,
                "duration": 0.23409090909090935,
                "tempo": 120.0
            },
            {
                "start_time": 37.486363636363635,
                "end_time": 37.970454545454544,
                "pitch": 33,
                "velocity": 64,
                "duration": 0.48409090909090935,
                "tempo": 120.0
            },
            {
                "start_time": 37.986363636363635,
                "end_time": 38.35454545454545,
                "pitch": 31,
                "velocity": 64,
                "duration": 0.3681818181818173,
                "tempo": 120.0
            },
            {
                "start_time": 38.37045454545454,
                "end_time": 38.720454545454544,
                "pitch": 31,
                "velocity": 64,
                "duration": 0.3500000000000014,
                "tempo": 120.0
            },
            {
                "start_time": 38.736363636363635,
                "end_time": 39.220454545454544,
                "pitch": 31,
                "velocity": 64,
                "duration": 0.48409090909090935,
                "tempo": 120.0
            },
            {
                "start_time": 39.236363636363635,
                "end_time": 39.470454545454544,
                "pitch": 29,
                "velocity": 64,
                "duration": 0.23409090909090935,
                "tempo": 120.0
            },
            {
                "start_time": 39.486363636363635,
                "end_time": 39.970454545454544,
                "pitch": 31,
                "velocity": 64,
                "duration": 0.48409090909090935,
                "tempo": 120.0
            },
            {
                "start_time": 39.986363636363635,
                "end_time": 40.34772727272727,
                "pitch": 31,
                "velocity": 64,
                "duration": 0.36136363636363455,
                "tempo": 120.0
            },
            {
                "start_time": 40.36363636363636,
                "end_time": 40.699999999999996,
                "pitch": 31,
                "velocity": 64,
                "duration": 0.336363636363636,
                "tempo": 120.0
            },
            {
                "start_time": 40.715909090909086,
                "end_time": 41.220454545454544,
                "pitch": 31,
                "velocity": 64,
                "duration": 0.5045454545454575,
                "tempo": 120.0
            },
            {
                "start_time": 41.23863636363636,
                "end_time": 41.470454545454544,
                "pitch": 29,
                "velocity": 64,
                "duration": 0.23181818181818414,
                "tempo": 120.0
            },
            {
                "start_time": 41.48863636363636,
                "end_time": 41.97727272727273,
                "pitch": 31,
                "velocity": 64,
                "duration": 0.48863636363636687,
                "tempo": 120.0
            },
            {
                "start_time": 41.99318181818182,
                "end_time": 42.36363636363636,
                "pitch": 33,
                "velocity": 64,
                "duration": 0.3704545454545425,
                "tempo": 120.0
            },
            {
                "start_time": 42.37954545454545,
                "end_time": 42.71818181818182,
                "pitch": 33,
                "velocity": 64,
                "duration": 0.3386363636363683,
                "tempo": 120.0
            },
            {
                "start_time": 42.73409090909091,
                "end_time": 43.22954545454545,
                "pitch": 33,
                "velocity": 64,
                "duration": 0.4954545454545425,
                "tempo": 120.0
            },
            {
                "start_time": 43.24545454545454,
                "end_time": 43.47954545454545,
                "pitch": 31,
                "velocity": 64,
                "duration": 0.23409090909090935,
                "tempo": 120.0
            },
            {
                "start_time": 43.49772727272727,
                "end_time": 43.97954545454545,
                "pitch": 33,
                "velocity": 64,
                "duration": 0.48181818181818414,
                "tempo": 120.0
            },
            {
                "start_time": 43.99772727272727,
                "end_time": 44.35909090909091,
                "pitch": 33,
                "velocity": 64,
                "duration": 0.36136363636364166,
                "tempo": 120.0
            },
            {
                "start_time": 44.375,
                "end_time": 44.709090909090904,
                "pitch": 33,
                "velocity": 64,
                "duration": 0.33409090909090366,
                "tempo": 120.0
            },
            {
                "start_time": 44.72727272727273,
                "end_time": 45.22954545454545,
                "pitch": 33,
                "velocity": 64,
                "duration": 0.5022727272727252,
                "tempo": 120.0
            },
            {
                "start_time": 45.24772727272727,
                "end_time": 45.48181818181818,
                "pitch": 31,
                "velocity": 64,
                "duration": 0.23409090909090935,
                "tempo": 120.0
            },
            {
                "start_time": 45.49772727272727,
                "end_time": 45.986363636363635,
                "pitch": 33,
                "velocity": 64,
                "duration": 0.48863636363636687,
                "tempo": 120.0
            },
            {
                "start_time": 46.00454545454545,
                "end_time": 46.375,
                "pitch": 36,
                "velocity": 64,
                "duration": 0.3704545454545496,
                "tempo": 120.0
            },
            {
                "start_time": 46.39090909090909,
                "end_time": 46.736363636363635,
                "pitch": 36,
                "velocity": 64,
                "duration": 0.3454545454545439,
                "tempo": 120.0
            },
            {
                "start_time": 46.752272727272725,
                "end_time": 47.236363636363635,
                "pitch": 36,
                "velocity": 64,
                "duration": 0.48409090909090935,
                "tempo": 120.0
            },
            {
                "start_time": 47.252272727272725,
                "end_time": 47.486363636363635,
                "pitch": 34,
                "velocity": 64,
                "duration": 0.23409090909090935,
                "tempo": 120.0
            },
            {
                "start_time": 47.502272727272725,
                "end_time": 47.736363636363635,
                "pitch": 36,
                "velocity": 64,
                "duration": 0.23409090909090935,
                "tempo": 120.0
            },
            {
                "start_time": 47.752272727272725,
                "end_time": 47.99090909090909,
                "pitch": 36,
                "velocity": 64,
                "duration": 0.23863636363636687,
                "tempo": 120.0
            },
            {
                "start_time": 48.00909090909091,
                "end_time": 48.37272727272727,
                "pitch": 38,
                "velocity": 64,
                "duration": 0.36363636363635976,
                "tempo": 120.0
            },
            {
                "start_time": 48.38863636363636,
                "end_time": 48.720454545454544,
                "pitch": 38,
                "velocity": 64,
                "duration": 0.33181818181818556,
                "tempo": 120.0
            },
            {
                "start_time": 48.736363636363635,
                "end_time": 49.23863636363636,
                "pitch": 38,
                "velocity": 64,
                "duration": 0.5022727272727252,
                "tempo": 120.0
            },
            {
                "start_time": 49.25681818181818,
                "end_time": 49.490909090909085,
                "pitch": 36,
                "velocity": 64,
                "duration": 0.23409090909090224,
                "tempo": 120.0
            },
            {
                "start_time": 49.50681818181818,
                "end_time": 49.740909090909085,
                "pitch": 38,
                "velocity": 64,
                "duration": 0.23409090909090224,
                "tempo": 120.0
            }
        ]
    }
}