{
    "track_id": "F1_Douchuuki_(MSX2,_OPLL)_01 Title Screen",
    "mood": "angry",
    "instruments": {
        "Trumpet": [
            {
                "start_time": 0.8818181818181817,
                "end_time": 1.3227272727272728,
                "pitch": 64,
                "velocity": 127,
                "duration": 0.44090909090909103,
                "tempo": 120.0
            },
            {
                "start_time": 1.3227272727272728,
                "end_time": 1.734090909090909,
                "pitch": 69,
                "velocity": 127,
                "duration": 0.41136363636363615,
                "tempo": 120.0
            },
            {
                "start_time": 1.734090909090909,
                "end_time": 2.565909090909091,
                "pitch": 71,
                "velocity": 127,
                "duration": 0.831818181818182,
                "tempo": 120.0
            },
            {
                "start_time": 2.565909090909091,
                "end_time": 3.4499999999999997,
                "pitch": 74,
                "velocity": 127,
                "duration": 0.8840909090909088,
                "tempo": 120.0
            },
            {
                "start_time": 3.4499999999999997,
                "end_time": 4.25,
                "pitch": 73,
                "velocity": 127,
                "duration": 0.8000000000000003,
                "tempo": 120.0
            },
            {
                "start_time": 4.25,
                "end_time": 5.134090909090909,
                "pitch": 76,
                "velocity": 127,
                "duration": 0.8840909090909088,
                "tempo": 120.0
            },
            {
                "start_time": 5.134090909090909,
                "end_time": 5.765909090909091,
                "pitch": 74,
                "velocity": 127,
                "duration": 0.6318181818181818,
                "tempo": 120.0
            },
            {
                "start_time": 5.765909090909091,
                "end_time": 6.820454545454545,
                "pitch": 71,
                "velocity": 127,
                "duration": 1.0545454545454547,
                "tempo": 120.0
            },
            {
                "start_time": 7.252272727272727,
                "end_time": 7.702272727272727,
                "pitch": 67,
                "velocity": 127,
                "duration": 0.4500000000000002,
                "tempo": 120.0
            },
            {
                "start_time": 7.702272727272727,
                "end_time": 8.104545454545454,
                "pitch": 62,
                "velocity": 127,
                "duration": 0.40227272727272645,
                "tempo": 120.0
            },
            {
                "start_time": 8.104545454545454,
                "end_time": 8.504545454545454,
                "pitch": 67,
                "velocity": 127,
                "duration": 0.40000000000000036,
                "tempo": 120.0
            },
            {
                "start_time": 8.504545454545454,
                "end_time": 9.377272727272727,
                "pitch": 69,
                "velocity": 127,
                "duration": 0.872727272727273,
                "tempo": 120.0
            },
            {
                "start_time": 9.377272727272727,
                "end_time": 9.818181818181818,
                "pitch": 74,
                "velocity": 127,
                "duration": 0.44090909090909136,
                "tempo": 120.0
            },
            {
                "start_time": 9.818181818181818,
                "end_time": 10.220454545454546,
                "pitch": 69,
                "velocity": 127,
                "duration": 0.40227272727272734,
                "tempo": 120.0
            },
            {
                "start_time": 10.220454545454546,
                "end_time": 11.506818181818181,
                "pitch": 67,
                "velocity": 127,
                "duration": 1.2863636363636353,
                "tempo": 120.0
            },
            {
                "start_time": 11.506818181818181,
                "end_time": 11.706818181818182,
                "pitch": 67,
                "velocity": 127,
                "duration": 0.20000000000000107,
                "tempo": 120.0
            },
            {
                "start_time": 11.706818181818182,
                "end_time": 13.625,
                "pitch": 68,
                "velocity": 127,
                "duration": 1.918181818181818,
                "tempo": 120.0
            },
            {
                "start_time": 14.075,
                "end_time": 14.477272727272727,
                "pitch": 69,
                "velocity": 127,
                "duration": 0.40227272727272734,
                "tempo": 120.0
            },
            {
                "start_time": 14.477272727272727,
                "end_time": 14.879545454545454,
                "pitch": 64,
                "velocity": 127,
                "duration": 0.40227272727272734,
                "tempo": 120.0
            },
            {
                "start_time": 14.879545454545454,
                "end_time": 15.322727272727272,
                "pitch": 69,
                "velocity": 127,
                "duration": 0.44318181818181834,
                "tempo": 120.0
            },
            {
                "start_time": 15.322727272727272,
                "end_time": 16.195454545454545,
                "pitch": 71,
                "velocity": 127,
                "duration": 0.872727272727273,
                "tempo": 120.0
            },
            {
                "start_time": 16.195454545454545,
                "end_time": 17.004545454545454,
                "pitch": 74,
                "velocity": 127,
                "duration": 0.8090909090909086,
                "tempo": 120.0
            },
            {
                "start_time": 17.004545454545454,
                "end_time": 17.879545454545454,
                "pitch": 73,
                "velocity": 127,
                "duration": 0.875,
                "tempo": 120.0
            },
            {
                "start_time": 17.879545454545454,
                "end_time": 18.73181818181818,
                "pitch": 76,
                "velocity": 127,
                "duration": 0.8522727272727266,
                "tempo": 120.0
            },
            {
                "start_time": 18.73181818181818,
                "end_time": 19.361363636363635,
                "pitch": 74,
                "velocity": 127,
                "duration": 0.629545454545454,
                "tempo": 120.0
            },
            {
                "start_time": 19.361363636363635,
                "end_time": 20.445454545454545,
                "pitch": 71,
                "velocity": 127,
                "duration": 1.0840909090909108,
                "tempo": 120.0
            },
            {
                "start_time": 20.847727272727273,
                "end_time": 21.25,
                "pitch": 72,
                "velocity": 127,
                "duration": 0.40227272727272734,
                "tempo": 120.0
            },
            {
                "start_time": 21.25,
                "end_time": 21.7,
                "pitch": 69,
                "velocity": 127,
                "duration": 0.4499999999999993,
                "tempo": 120.0
            },
            {
                "start_time": 21.7,
                "end_time": 22.13181818181818,
                "pitch": 72,
                "velocity": 127,
                "duration": 0.4318181818181799,
                "tempo": 120.0
            },
            {
                "start_time": 22.13181818181818,
                "end_time": 22.96590909090909,
                "pitch": 74,
                "velocity": 127,
                "duration": 0.8340909090909108,
                "tempo": 120.0
            },
            {
                "start_time": 22.96590909090909,
                "end_time": 23.386363636363637,
                "pitch": 71,
                "velocity": 127,
                "duration": 0.42045454545454675,
                "tempo": 120.0
            },
            {
                "start_time": 23.386363636363637,
                "end_time": 23.818181818181817,
                "pitch": 67,
                "velocity": 127,
                "duration": 0.4318181818181799,
                "tempo": 120.0
            },
            {
                "start_time": 23.818181818181817,
                "end_time": 25.318181818181817,
                "pitch": 69,
                "velocity": 127,
                "duration": 1.5,
                "tempo": 120.0
            },
            {
                "start_time": 25.318181818181817,
                "end_time": 27.220454545454544,
                "pitch": 71,
                "velocity": 127,
                "duration": 1.9022727272727273,
                "tempo": 120.0
            },
            {
                "start_time": 27.63181818181818,
                "end_time": 28.075,
                "pitch": 69,
                "velocity": 127,
                "duration": 0.4431818181818201,
                "tempo": 120.0
            },
            {
                "start_time": 28.075,
                "end_time": 28.50681818181818,
                "pitch": 64,
                "velocity": 127,
                "duration": 0.4318181818181799,
                "tempo": 120.0
            },
            {
                "start_time": 28.50681818181818,
                "end_time": 28.938636363636363,
                "pitch": 69,
                "velocity": 127,
                "duration": 0.43181818181818343,
                "tempo": 120.0
            },
            {
                "start_time": 28.938636363636363,
                "end_time": 29.761363636363637,
                "pitch": 71,
                "velocity": 127,
                "duration": 0.8227272727272741,
                "tempo": 120.0
            },
            {
                "start_time": 29.761363636363637,
                "end_time": 30.625,
                "pitch": 74,
                "velocity": 127,
                "duration": 0.8636363636363633,
                "tempo": 120.0
            },
            {
                "start_time": 30.625,
                "end_time": 31.477272727272727,
                "pitch": 73,
                "velocity": 127,
                "duration": 0.8522727272727266,
                "tempo": 120.0
            },
            {
                "start_time": 31.477272727272727,
                "end_time": 32.31818181818182,
                "pitch": 76,
                "velocity": 127,
                "duration": 0.8409090909090935,
                "tempo": 120.0
            },
            {
                "start_time": 32.31818181818182,
                "end_time": 32.961363636363636,
                "pitch": 74,
                "velocity": 127,
                "duration": 0.6431818181818159,
                "tempo": 120.0
            },
            {
                "start_time": 32.961363636363636,
                "end_time": 34.002272727272725,
                "pitch": 71,
                "velocity": 127,
                "duration": 1.0409090909090892,
                "tempo": 120.0
            },
            {
                "start_time": 34.44318181818181,
                "end_time": 34.875,
                "pitch": 67,
                "velocity": 127,
                "duration": 0.431818181818187,
                "tempo": 120.0
            },
            {
                "start_time": 34.875,
                "end_time": 35.31818181818181,
                "pitch": 62,
                "velocity": 127,
                "duration": 0.443181818181813,
                "tempo": 120.0
            },
            {
                "start_time": 35.31818181818181,
                "end_time": 35.72727272727273,
                "pitch": 67,
                "velocity": 127,
                "duration": 0.4090909090909136,
                "tempo": 120.0
            },
            {
                "start_time": 35.72727272727273,
                "end_time": 36.559090909090905,
                "pitch": 69,
                "velocity": 127,
                "duration": 0.8318181818181785,
                "tempo": 120.0
            },
            {
                "start_time": 36.559090909090905,
                "end_time": 37.002272727272725,
                "pitch": 74,
                "velocity": 127,
                "duration": 0.4431818181818201,
                "tempo": 120.0
            },
            {
                "start_time": 37.002272727272725,
                "end_time": 37.44318181818181,
                "pitch": 69,
                "velocity": 127,
                "duration": 0.4409090909090878,
                "tempo": 120.0
            },
            {
                "start_time": 37.44318181818181,
                "end_time": 38.68636363636364,
                "pitch": 67,
                "velocity": 127,
                "duration": 1.2431818181818244,
                "tempo": 120.0
            },
            {
                "start_time": 38.68636363636364,
                "end_time": 38.89090909090909,
                "pitch": 67,
                "velocity": 127,
                "duration": 0.20454545454545325,
                "tempo": 120.0
            },
            {
                "start_time": 38.89090909090909,
                "end_time": 40.79772727272727,
                "pitch": 68,
                "velocity": 127,
                "duration": 1.9068181818181813,
                "tempo": 120.0
            }
        ],
        "French Horn": [
            {
                "start_time": 0.65,
                "end_time": 0.8818181818181817,
                "pitch": 64,
                "velocity": 80,
                "duration": 0.2318181818181817,
                "tempo": 120.0
            },
            {
                "start_time": 1.0818181818181818,
                "end_time": 1.3227272727272728,
                "pitch": 64,
                "velocity": 80,
                "duration": 0.24090909090909096,
                "tempo": 120.0
            },
            {
                "start_time": 1.5295454545454545,
                "end_time": 1.734090909090909,
                "pitch": 64,
                "velocity": 80,
                "duration": 0.20454545454545436,
                "tempo": 120.0
            },
            {
                "start_time": 1.734090909090909,
                "end_time": 2.3659090909090907,
                "pitch": 64,
                "velocity": 80,
                "duration": 0.6318181818181818,
                "tempo": 120.0
            },
            {
                "start_time": 2.3659090909090907,
                "end_time": 2.565909090909091,
                "pitch": 64,
                "velocity": 80,
                "duration": 0.20000000000000018,
                "tempo": 120.0
            },
            {
                "start_time": 2.7659090909090907,
                "end_time": 3.006818181818182,
                "pitch": 64,
                "velocity": 80,
                "duration": 0.24090909090909118,
                "tempo": 120.0
            },
            {
                "start_time": 3.2136363636363634,
                "end_time": 3.4499999999999997,
                "pitch": 64,
                "velocity": 80,
                "duration": 0.23636363636363633,
                "tempo": 120.0
            },
            {
                "start_time": 3.4499999999999997,
                "end_time": 4.0636363636363635,
                "pitch": 64,
                "velocity": 80,
                "duration": 0.6136363636363638,
                "tempo": 120.0
            },
            {
                "start_time": 4.0636363636363635,
                "end_time": 4.25,
                "pitch": 64,
                "velocity": 80,
                "duration": 0.1863636363636365,
                "tempo": 120.0
            },
            {
                "start_time": 4.495454545454545,
                "end_time": 4.702272727272727,
                "pitch": 64,
                "velocity": 80,
                "duration": 0.206818181818182,
                "tempo": 120.0
            },
            {
                "start_time": 4.902272727272727,
                "end_time": 5.134090909090909,
                "pitch": 64,
                "velocity": 80,
                "duration": 0.23181818181818148,
                "tempo": 120.0
            },
            {
                "start_time": 5.134090909090909,
                "end_time": 5.765909090909091,
                "pitch": 62,
                "velocity": 80,
                "duration": 0.6318181818181818,
                "tempo": 120.0
            },
            {
                "start_time": 5.765909090909091,
                "end_time": 5.965909090909091,
                "pitch": 62,
                "velocity": 80,
                "duration": 0.20000000000000018,
                "tempo": 120.0
            },
            {
                "start_time": 6.1909090909090905,
                "end_time": 6.379545454545454,
                "pitch": 62,
                "velocity": 80,
                "duration": 0.1886363636363635,
                "tempo": 120.0
            },
            {
                "start_time": 6.613636363636363,
                "end_time": 6.820454545454545,
                "pitch": 62,
                "velocity": 80,
                "duration": 0.206818181818182,
                "tempo": 120.0
            },
            {
                "start_time": 6.820454545454545,
                "end_time": 7.456818181818181,
                "pitch": 62,
                "velocity": 80,
                "duration": 0.6363636363636358,
                "tempo": 120.0
            },
            {
                "start_time": 7.456818181818181,
                "end_time": 7.702272727272727,
                "pitch": 62,
                "velocity": 80,
                "duration": 0.24545454545454604,
                "tempo": 120.0
            },
            {
                "start_time": 7.904545454545454,
                "end_time": 8.104545454545454,
                "pitch": 62,
                "velocity": 80,
                "duration": 0.1999999999999993,
                "tempo": 120.0
            },
            {
                "start_time": 8.318181818181818,
                "end_time": 8.504545454545454,
                "pitch": 62,
                "velocity": 80,
                "duration": 0.18636363636363562,
                "tempo": 120.0
            },
            {
                "start_time": 8.504545454545454,
                "end_time": 9.136363636363637,
                "pitch": 62,
                "velocity": 80,
                "duration": 0.6318181818181827,
                "tempo": 120.0
            },
            {
                "start_time": 9.136363636363637,
                "end_time": 9.377272727272727,
                "pitch": 62,
                "velocity": 80,
                "duration": 0.2409090909090903,
                "tempo": 120.0
            },
            {
                "start_time": 9.584090909090909,
                "end_time": 9.818181818181818,
                "pitch": 62,
                "velocity": 80,
                "duration": 0.23409090909090935,
                "tempo": 120.0
            },
            {
                "start_time": 10.020454545454545,
                "end_time": 10.220454545454546,
                "pitch": 62,
                "velocity": 80,
                "duration": 0.20000000000000107,
                "tempo": 120.0
            },
            {
                "start_time": 10.220454545454546,
                "end_time": 10.868181818181817,
                "pitch": 64,
                "velocity": 80,
                "duration": 0.6477272727272716,
                "tempo": 120.0
            },
            {
                "start_time": 10.868181818181817,
                "end_time": 11.075,
                "pitch": 64,
                "velocity": 80,
                "duration": 0.206818181818182,
                "tempo": 120.0
            },
            {
                "start_time": 11.274999999999999,
                "end_time": 11.506818181818181,
                "pitch": 64,
                "velocity": 80,
                "duration": 0.23181818181818237,
                "tempo": 120.0
            },
            {
                "start_time": 11.706818181818182,
                "end_time": 11.947727272727272,
                "pitch": 64,
                "velocity": 80,
                "duration": 0.2409090909090903,
                "tempo": 120.0
            },
            {
                "start_time": 11.947727272727272,
                "end_time": 12.572727272727272,
                "pitch": 64,
                "velocity": 80,
                "duration": 0.625,
                "tempo": 120.0
            },
            {
                "start_time": 12.572727272727272,
                "end_time": 12.761363636363635,
                "pitch": 64,
                "velocity": 80,
                "duration": 0.1886363636363626,
                "tempo": 120.0
            },
            {
                "start_time": 12.99090909090909,
                "end_time": 13.193181818181818,
                "pitch": 64,
                "velocity": 80,
                "duration": 0.20227272727272805,
                "tempo": 120.0
            },
            {
                "start_time": 13.393181818181818,
                "end_time": 13.634090909090908,
                "pitch": 64,
                "velocity": 80,
                "duration": 0.2409090909090903,
                "tempo": 120.0
            },
            {
                "start_time": 13.634090909090908,
                "end_time": 14.277272727272727,
                "pitch": 64,
                "velocity": 80,
                "duration": 0.6431818181818194,
                "tempo": 120.0
            },
            {
                "start_time": 14.277272727272727,
                "end_time": 14.477272727272727,
                "pitch": 64,
                "velocity": 80,
                "duration": 0.1999999999999993,
                "tempo": 120.0
            },
            {
                "start_time": 14.693181818181818,
                "end_time": 14.879545454545454,
                "pitch": 64,
                "velocity": 80,
                "duration": 0.18636363636363562,
                "tempo": 120.0
            },
            {
                "start_time": 15.120454545454544,
                "end_time": 15.322727272727272,
                "pitch": 64,
                "velocity": 80,
                "duration": 0.20227272727272805,
                "tempo": 120.0
            },
            {
                "start_time": 15.322727272727272,
                "end_time": 15.963636363636363,
                "pitch": 64,
                "velocity": 80,
                "duration": 0.6409090909090907,
                "tempo": 120.0
            },
            {
                "start_time": 15.963636363636363,
                "end_time": 16.195454545454545,
                "pitch": 64,
                "velocity": 80,
                "duration": 0.23181818181818237,
                "tempo": 120.0
            },
            {
                "start_time": 16.395454545454545,
                "end_time": 16.595454545454544,
                "pitch": 64,
                "velocity": 80,
                "duration": 0.1999999999999993,
                "tempo": 120.0
            },
            {
                "start_time": 16.820454545454545,
                "end_time": 17.004545454545454,
                "pitch": 64,
                "velocity": 80,
                "duration": 0.18409090909090864,
                "tempo": 120.0
            },
            {
                "start_time": 17.004545454545454,
                "end_time": 17.647727272727273,
                "pitch": 62,
                "velocity": 80,
                "duration": 0.6431818181818194,
                "tempo": 120.0
            },
            {
                "start_time": 17.647727272727273,
                "end_time": 17.879545454545454,
                "pitch": 62,
                "velocity": 80,
                "duration": 0.2318181818181806,
                "tempo": 120.0
            },
            {
                "start_time": 18.079545454545453,
                "end_time": 18.320454545454545,
                "pitch": 62,
                "velocity": 80,
                "duration": 0.24090909090909207,
                "tempo": 120.0
            },
            {
                "start_time": 18.525,
                "end_time": 18.73181818181818,
                "pitch": 62,
                "velocity": 80,
                "duration": 0.206818181818182,
                "tempo": 120.0
            },
            {
                "start_time": 18.73181818181818,
                "end_time": 19.361363636363635,
                "pitch": 62,
                "velocity": 80,
                "duration": 0.629545454545454,
                "tempo": 120.0
            },
            {
                "start_time": 19.361363636363635,
                "end_time": 19.563636363636363,
                "pitch": 62,
                "velocity": 80,
                "duration": 0.20227272727272805,
                "tempo": 120.0
            },
            {
                "start_time": 19.763636363636362,
                "end_time": 20.004545454545454,
                "pitch": 62,
                "velocity": 80,
                "duration": 0.24090909090909207,
                "tempo": 120.0
            },
            {
                "start_time": 20.209090909090907,
                "end_time": 20.445454545454545,
                "pitch": 62,
                "velocity": 80,
                "duration": 0.2363636363636381,
                "tempo": 120.0
            },
            {
                "start_time": 20.445454545454545,
                "end_time": 21.063636363636363,
                "pitch": 62,
                "velocity": 80,
                "duration": 0.6181818181818173,
                "tempo": 120.0
            },
            {
                "start_time": 21.063636363636363,
                "end_time": 21.25,
                "pitch": 62,
                "velocity": 80,
                "duration": 0.1863636363636374,
                "tempo": 120.0
            },
            {
                "start_time": 21.495454545454546,
                "end_time": 21.7,
                "pitch": 62,
                "velocity": 80,
                "duration": 0.20454545454545325,
                "tempo": 120.0
            },
            {
                "start_time": 21.902272727272727,
                "end_time": 22.13181818181818,
                "pitch": 62,
                "velocity": 80,
                "duration": 0.22954545454545183,
                "tempo": 120.0
            },
            {
                "start_time": 22.13181818181818,
                "end_time": 22.763636363636362,
                "pitch": 62,
                "velocity": 80,
                "duration": 0.6318181818181827,
                "tempo": 120.0
            },
            {
                "start_time": 22.763636363636362,
                "end_time": 22.96590909090909,
                "pitch": 62,
                "velocity": 80,
                "duration": 0.20227272727272805,
                "tempo": 120.0
            },
            {
                "start_time": 23.195454545454545,
                "end_time": 23.386363636363637,
                "pitch": 62,
                "velocity": 80,
                "duration": 0.19090909090909136,
                "tempo": 120.0
            },
            {
                "start_time": 23.618181818181817,
                "end_time": 23.818181818181817,
                "pitch": 62,
                "velocity": 80,
                "duration": 0.1999999999999993,
                "tempo": 120.0
            },
            {
                "start_time": 23.818181818181817,
                "end_time": 24.45,
                "pitch": 62,
                "velocity": 80,
                "duration": 0.6318181818181827,
                "tempo": 120.0
            },
            {
                "start_time": 24.45,
                "end_time": 24.69090909090909,
                "pitch": 62,
                "velocity": 80,
                "duration": 0.24090909090909207,
                "tempo": 120.0
            },
            {
                "start_time": 24.89772727272727,
                "end_time": 25.102272727272727,
                "pitch": 62,
                "velocity": 80,
                "duration": 0.2045454545454568,
                "tempo": 120.0
            },
            {
                "start_time": 25.318181818181817,
                "end_time": 25.504545454545454,
                "pitch": 62,
                "velocity": 80,
                "duration": 0.1863636363636374,
                "tempo": 120.0
            },
            {
                "start_time": 25.504545454545454,
                "end_time": 26.14090909090909,
                "pitch": 64,
                "velocity": 80,
                "duration": 0.6363636363636367,
                "tempo": 120.0
            },
            {
                "start_time": 26.14090909090909,
                "end_time": 26.388636363636362,
                "pitch": 64,
                "velocity": 80,
                "duration": 0.24772727272727124,
                "tempo": 120.0
            },
            {
                "start_time": 26.58863636363636,
                "end_time": 26.820454545454545,
                "pitch": 64,
                "velocity": 80,
                "duration": 0.23181818181818414,
                "tempo": 120.0
            },
            {
                "start_time": 27.020454545454545,
                "end_time": 27.220454545454544,
                "pitch": 64,
                "velocity": 80,
                "duration": 0.1999999999999993,
                "tempo": 120.0
            },
            {
                "start_time": 27.23181818181818,
                "end_time": 27.87272727272727,
                "pitch": 64,
                "velocity": 80,
                "duration": 0.6409090909090907,
                "tempo": 120.0
            },
            {
                "start_time": 27.87272727272727,
                "end_time": 28.075,
                "pitch": 64,
                "velocity": 80,
                "duration": 0.20227272727272805,
                "tempo": 120.0
            },
            {
                "start_time": 28.275,
                "end_time": 28.50681818181818,
                "pitch": 64,
                "velocity": 80,
                "duration": 0.2318181818181806,
                "tempo": 120.0
            },
            {
                "start_time": 28.706818181818182,
                "end_time": 28.94772727272727,
                "pitch": 64,
                "velocity": 80,
                "duration": 0.24090909090908852,
                "tempo": 120.0
            },
            {
                "start_time": 28.94772727272727,
                "end_time": 29.57272727272727,
                "pitch": 64,
                "velocity": 80,
                "duration": 0.625,
                "tempo": 120.0
            },
            {
                "start_time": 29.57272727272727,
                "end_time": 29.761363636363637,
                "pitch": 64,
                "velocity": 80,
                "duration": 0.18863636363636616,
                "tempo": 120.0
            },
            {
                "start_time": 29.99090909090909,
                "end_time": 30.193181818181817,
                "pitch": 64,
                "velocity": 80,
                "duration": 0.20227272727272805,
                "tempo": 120.0
            },
            {
                "start_time": 30.393181818181816,
                "end_time": 30.634090909090908,
                "pitch": 64,
                "velocity": 80,
                "duration": 0.24090909090909207,
                "tempo": 120.0
            },
            {
                "start_time": 30.634090909090908,
                "end_time": 31.277272727272727,
                "pitch": 64,
                "velocity": 80,
                "duration": 0.6431818181818194,
                "tempo": 120.0
            },
            {
                "start_time": 31.277272727272727,
                "end_time": 31.477272727272727,
                "pitch": 64,
                "velocity": 80,
                "duration": 0.1999999999999993,
                "tempo": 120.0
            },
            {
                "start_time": 31.690909090909088,
                "end_time": 31.877272727272725,
                "pitch": 64,
                "velocity": 80,
                "duration": 0.1863636363636374,
                "tempo": 120.0
            },
            {
                "start_time": 32.11818181818182,
                "end_time": 32.31818181818182,
                "pitch": 64,
                "velocity": 80,
                "duration": 0.20000000000000284,
                "tempo": 120.0
            },
            {
                "start_time": 32.31818181818182,
                "end_time": 32.961363636363636,
                "pitch": 62,
                "velocity": 80,
                "duration": 0.6431818181818159,
                "tempo": 120.0
            },
            {
                "start_time": 32.961363636363636,
                "end_time": 33.19090909090909,
                "pitch": 62,
                "velocity": 80,
                "duration": 0.22954545454545183,
                "tempo": 120.0
            },
            {
                "start_time": 33.393181818181816,
                "end_time": 33.59318181818182,
                "pitch": 62,
                "velocity": 80,
                "duration": 0.20000000000000284,
                "tempo": 120.0
            },
            {
                "start_time": 33.81590909090909,
                "end_time": 34.002272727272725,
                "pitch": 62,
                "velocity": 80,
                "duration": 0.1863636363636374,
                "tempo": 120.0
            },
            {
                "start_time": 34.002272727272725,
                "end_time": 34.64545454545454,
                "pitch": 62,
                "velocity": 80,
                "duration": 0.6431818181818159,
                "tempo": 120.0
            },
            {
                "start_time": 34.64545454545454,
                "end_time": 34.875,
                "pitch": 62,
                "velocity": 80,
                "duration": 0.22954545454545894,
                "tempo": 120.0
            },
            {
                "start_time": 35.07727272727273,
                "end_time": 35.31818181818181,
                "pitch": 62,
                "velocity": 80,
                "duration": 0.24090909090908497,
                "tempo": 120.0
            },
            {
                "start_time": 35.52272727272727,
                "end_time": 35.72727272727273,
                "pitch": 62,
                "velocity": 80,
                "duration": 0.20454545454545325,
                "tempo": 120.0
            },
            {
                "start_time": 35.72727272727273,
                "end_time": 36.35909090909091,
                "pitch": 62,
                "velocity": 80,
                "duration": 0.6318181818181827,
                "tempo": 120.0
            },
            {
                "start_time": 36.35909090909091,
                "end_time": 36.559090909090905,
                "pitch": 62,
                "velocity": 80,
                "duration": 0.19999999999999574,
                "tempo": 120.0
            },
            {
                "start_time": 36.76136363636363,
                "end_time": 37.002272727272725,
                "pitch": 62,
                "velocity": 80,
                "duration": 0.24090909090909207,
                "tempo": 120.0
            },
            {
                "start_time": 37.20681818181818,
                "end_time": 37.44318181818181,
                "pitch": 62,
                "velocity": 80,
                "duration": 0.23636363636363455,
                "tempo": 120.0
            },
            {
                "start_time": 37.44318181818181,
                "end_time": 38.059090909090905,
                "pitch": 64,
                "velocity": 80,
                "duration": 0.6159090909090921,
                "tempo": 120.0
            },
            {
                "start_time": 38.059090909090905,
                "end_time": 38.24545454545454,
                "pitch": 64,
                "velocity": 80,
                "duration": 0.1863636363636374,
                "tempo": 120.0
            },
            {
                "start_time": 38.486363636363635,
                "end_time": 38.68636363636364,
                "pitch": 64,
                "velocity": 80,
                "duration": 0.20000000000000284,
                "tempo": 120.0
            },
            {
                "start_time": 38.89090909090909,
                "end_time": 39.127272727272725,
                "pitch": 64,
                "velocity": 80,
                "duration": 0.23636363636363455,
                "tempo": 120.0
            },
            {
                "start_time": 39.127272727272725,
                "end_time": 39.75909090909091,
                "pitch": 64,
                "velocity": 80,
                "duration": 0.6318181818181827,
                "tempo": 120.0
            },
            {
                "start_time": 39.75909090909091,
                "end_time": 39.961363636363636,
                "pitch": 64,
                "velocity": 80,
                "duration": 0.20227272727272805,
                "tempo": 120.0
            },
            {
                "start_time": 40.184090909090905,
                "end_time": 40.37045454545454,
                "pitch": 64,
                "velocity": 80,
                "duration": 0.1863636363636374,
                "tempo": 120.0
            },
            {
                "start_time": 40.60681818181818,
                "end_time": 40.79772727272727,
                "pitch": 64,
                "velocity": 80,
                "duration": 0.19090909090909491,
                "tempo": 120.0
            }
        ],
        "Electric Guitar (clean)": [
            {
                "start_time": 0.25,
                "end_time": 0.44999999999999996,
                "pitch": 45,
                "velocity": 127,
                "duration": 0.19999999999999996,
                "tempo": 120.0
            },
            {
                "start_time": 0.44999999999999996,
                "end_time": 0.65,
                "pitch": 45,
                "velocity": 127,
                "duration": 0.20000000000000007,
                "tempo": 120.0
            },
            {
                "start_time": 0.65,
                "end_time": 0.8818181818181817,
                "pitch": 45,
                "velocity": 127,
                "duration": 0.2318181818181817,
                "tempo": 120.0
            },
            {
                "start_time": 0.8818181818181817,
                "end_time": 1.0818181818181818,
                "pitch": 45,
                "velocity": 127,
                "duration": 0.20000000000000007,
                "tempo": 120.0
            },
            {
                "start_time": 1.0818181818181818,
                "end_time": 1.3227272727272728,
                "pitch": 45,
                "velocity": 127,
                "duration": 0.24090909090909096,
                "tempo": 120.0
            },
            {
                "start_time": 1.3227272727272728,
                "end_time": 1.5295454545454545,
                "pitch": 45,
                "velocity": 127,
                "duration": 0.2068181818181818,
                "tempo": 120.0
            },
            {
                "start_time": 1.5295454545454545,
                "end_time": 1.734090909090909,
                "pitch": 45,
                "velocity": 127,
                "duration": 0.20454545454545436,
                "tempo": 120.0
            },
            {
                "start_time": 1.734090909090909,
                "end_time": 1.9477272727272725,
                "pitch": 44,
                "velocity": 127,
                "duration": 0.21363636363636362,
                "tempo": 120.0
            },
            {
                "start_time": 1.9477272727272725,
                "end_time": 2.134090909090909,
                "pitch": 44,
                "velocity": 127,
                "duration": 0.1863636363636363,
                "tempo": 120.0
            },
            {
                "start_time": 2.134090909090909,
                "end_time": 2.3659090909090907,
                "pitch": 44,
                "velocity": 127,
                "duration": 0.23181818181818192,
                "tempo": 120.0
            },
            {
                "start_time": 2.3659090909090907,
                "end_time": 2.565909090909091,
                "pitch": 44,
                "velocity": 127,
                "duration": 0.20000000000000018,
                "tempo": 120.0
            },
            {
                "start_time": 2.565909090909091,
                "end_time": 2.7659090909090907,
                "pitch": 44,
                "velocity": 127,
                "duration": 0.19999999999999973,
                "tempo": 120.0
            },
            {
                "start_time": 2.7659090909090907,
                "end_time": 3.006818181818182,
                "pitch": 44,
                "velocity": 127,
                "duration": 0.24090909090909118,
                "tempo": 120.0
            },
            {
                "start_time": 3.006818181818182,
                "end_time": 3.2136363636363634,
                "pitch": 44,
                "velocity": 127,
                "duration": 0.20681818181818157,
                "tempo": 120.0
            },
            {
                "start_time": 3.2136363636363634,
                "end_time": 3.4499999999999997,
                "pitch": 44,
                "velocity": 127,
                "duration": 0.23636363636363633,
                "tempo": 120.0
            },
            {
                "start_time": 3.4499999999999997,
                "end_time": 3.65,
                "pitch": 43,
                "velocity": 127,
                "duration": 0.20000000000000018,
                "tempo": 120.0
            },
            {
                "start_time": 3.65,
                "end_time": 3.8499999999999996,
                "pitch": 43,
                "velocity": 127,
                "duration": 0.19999999999999973,
                "tempo": 120.0
            },
            {
                "start_time": 3.8499999999999996,
                "end_time": 4.0636363636363635,
                "pitch": 43,
                "velocity": 127,
                "duration": 0.21363636363636385,
                "tempo": 120.0
            },
            {
                "start_time": 4.0636363636363635,
                "end_time": 4.25,
                "pitch": 43,
                "velocity": 127,
                "duration": 0.1863636363636365,
                "tempo": 120.0
            },
            {
                "start_time": 4.25,
                "end_time": 4.495454545454545,
                "pitch": 43,
                "velocity": 127,
                "duration": 0.24545454545454515,
                "tempo": 120.0
            },
            {
                "start_time": 4.495454545454545,
                "end_time": 4.702272727272727,
                "pitch": 43,
                "velocity": 127,
                "duration": 0.206818181818182,
                "tempo": 120.0
            },
            {
                "start_time": 4.702272727272727,
                "end_time": 4.902272727272727,
                "pitch": 43,
                "velocity": 127,
                "duration": 0.20000000000000018,
                "tempo": 120.0
            },
            {
                "start_time": 4.902272727272727,
                "end_time": 5.134090909090909,
                "pitch": 43,
                "velocity": 127,
                "duration": 0.23181818181818148,
                "tempo": 120.0
            },
            {
                "start_time": 5.134090909090909,
                "end_time": 5.334090909090909,
                "pitch": 42,
                "velocity": 127,
                "duration": 0.20000000000000018,
                "tempo": 120.0
            },
            {
                "start_time": 5.334090909090909,
                "end_time": 5.5636363636363635,
                "pitch": 42,
                "velocity": 127,
                "duration": 0.2295454545454545,
                "tempo": 120.0
            },
            {
                "start_time": 5.5636363636363635,
                "end_time": 5.7749999999999995,
                "pitch": 42,
                "velocity": 127,
                "duration": 0.21136363636363598,
                "tempo": 120.0
            },
            {
                "start_time": 5.7749999999999995,
                "end_time": 5.965909090909091,
                "pitch": 42,
                "velocity": 127,
                "duration": 0.19090909090909136,
                "tempo": 120.0
            },
            {
                "start_time": 5.965909090909091,
                "end_time": 6.1909090909090905,
                "pitch": 42,
                "velocity": 127,
                "duration": 0.22499999999999964,
                "tempo": 120.0
            },
            {
                "start_time": 6.1909090909090905,
                "end_time": 6.379545454545454,
                "pitch": 42,
                "velocity": 127,
                "duration": 0.1886363636363635,
                "tempo": 120.0
            },
            {
                "start_time": 6.379545454545454,
                "end_time": 6.613636363636363,
                "pitch": 42,
                "velocity": 127,
                "duration": 0.23409090909090935,
                "tempo": 120.0
            },
            {
                "start_time": 6.613636363636363,
                "end_time": 6.820454545454545,
                "pitch": 42,
                "velocity": 127,
                "duration": 0.206818181818182,
                "tempo": 120.0
            },
            {
                "start_time": 6.820454545454545,
                "end_time": 7.0204545454545455,
                "pitch": 43,
                "velocity": 127,
                "duration": 0.20000000000000018,
                "tempo": 120.0
            },
            {
                "start_time": 7.0204545454545455,
                "end_time": 7.252272727272727,
                "pitch": 43,
                "velocity": 127,
                "duration": 0.23181818181818148,
                "tempo": 120.0
            },
            {
                "start_time": 7.252272727272727,
                "end_time": 7.465909090909091,
                "pitch": 43,
                "velocity": 127,
                "duration": 0.21363636363636385,
                "tempo": 120.0
            },
            {
                "start_time": 7.465909090909091,
                "end_time": 7.702272727272727,
                "pitch": 43,
                "velocity": 127,
                "duration": 0.23636363636363633,
                "tempo": 120.0
            },
            {
                "start_time": 7.702272727272727,
                "end_time": 7.904545454545454,
                "pitch": 43,
                "velocity": 127,
                "duration": 0.20227272727272716,
                "tempo": 120.0
            },
            {
                "start_time": 7.904545454545454,
                "end_time": 8.104545454545454,
                "pitch": 43,
                "velocity": 127,
                "duration": 0.1999999999999993,
                "tempo": 120.0
            },
            {
                "start_time": 8.104545454545454,
                "end_time": 8.318181818181818,
                "pitch": 43,
                "velocity": 127,
                "duration": 0.21363636363636473,
                "tempo": 120.0
            },
            {
                "start_time": 8.318181818181818,
                "end_time": 8.504545454545454,
                "pitch": 43,
                "velocity": 127,
                "duration": 0.18636363636363562,
                "tempo": 120.0
            },
            {
                "start_time": 8.504545454545454,
                "end_time": 8.736363636363636,
                "pitch": 42,
                "velocity": 127,
                "duration": 0.23181818181818237,
                "tempo": 120.0
            },
            {
                "start_time": 8.736363636363636,
                "end_time": 8.936363636363636,
                "pitch": 42,
                "velocity": 127,
                "duration": 0.1999999999999993,
                "tempo": 120.0
            },
            {
                "start_time": 8.936363636363636,
                "end_time": 9.147727272727272,
                "pitch": 42,
                "velocity": 127,
                "duration": 0.21136363636363598,
                "tempo": 120.0
            },
            {
                "start_time": 9.147727272727272,
                "end_time": 9.377272727272727,
                "pitch": 42,
                "velocity": 127,
                "duration": 0.22954545454545539,
                "tempo": 120.0
            },
            {
                "start_time": 9.377272727272727,
                "end_time": 9.584090909090909,
                "pitch": 42,
                "velocity": 127,
                "duration": 0.206818181818182,
                "tempo": 120.0
            },
            {
                "start_time": 9.584090909090909,
                "end_time": 9.818181818181818,
                "pitch": 42,
                "velocity": 127,
                "duration": 0.23409090909090935,
                "tempo": 120.0
            },
            {
                "start_time": 9.818181818181818,
                "end_time": 10.020454545454545,
                "pitch": 42,
                "velocity": 127,
                "duration": 0.20227272727272627,
                "tempo": 120.0
            },
            {
                "start_time": 10.020454545454545,
                "end_time": 10.220454545454546,
                "pitch": 42,
                "velocity": 127,
                "duration": 0.20000000000000107,
                "tempo": 120.0
            },
            {
                "start_time": 10.220454545454546,
                "end_time": 10.436363636363636,
                "pitch": 41,
                "velocity": 127,
                "duration": 0.21590909090908994,
                "tempo": 120.0
            },
            {
                "start_time": 10.436363636363636,
                "end_time": 10.622727272727273,
                "pitch": 41,
                "velocity": 127,
                "duration": 0.1863636363636374,
                "tempo": 120.0
            },
            {
                "start_time": 10.622727272727273,
                "end_time": 10.868181818181817,
                "pitch": 41,
                "velocity": 127,
                "duration": 0.24545454545454426,
                "tempo": 120.0
            },
            {
                "start_time": 10.868181818181817,
                "end_time": 11.075,
                "pitch": 41,
                "velocity": 127,
                "duration": 0.206818181818182,
                "tempo": 120.0
            },
            {
                "start_time": 11.075,
                "end_time": 11.274999999999999,
                "pitch": 41,
                "velocity": 127,
                "duration": 0.1999999999999993,
                "tempo": 120.0
            },
            {
                "start_time": 11.274999999999999,
                "end_time": 11.506818181818181,
                "pitch": 41,
                "velocity": 127,
                "duration": 0.23181818181818237,
                "tempo": 120.0
            },
            {
                "start_time": 11.506818181818181,
                "end_time": 11.706818181818182,
                "pitch": 41,
                "velocity": 127,
                "duration": 0.20000000000000107,
                "tempo": 120.0
            },
            {
                "start_time": 11.706818181818182,
                "end_time": 11.947727272727272,
                "pitch": 41,
                "velocity": 127,
                "duration": 0.2409090909090903,
                "tempo": 120.0
            },
            {
                "start_time": 11.947727272727272,
                "end_time": 12.143181818181818,
                "pitch": 44,
                "velocity": 127,
                "duration": 0.19545454545454533,
                "tempo": 120.0
            },
            {
                "start_time": 12.143181818181818,
                "end_time": 12.347727272727273,
                "pitch": 44,
                "velocity": 127,
                "duration": 0.20454545454545503,
                "tempo": 120.0
            },
            {
                "start_time": 12.347727272727273,
                "end_time": 12.572727272727272,
                "pitch": 44,
                "velocity": 127,
                "duration": 0.22499999999999964,
                "tempo": 120.0
            },
            {
                "start_time": 12.572727272727272,
                "end_time": 12.761363636363635,
                "pitch": 44,
                "velocity": 127,
                "duration": 0.1886363636363626,
                "tempo": 120.0
            },
            {
                "start_time": 12.761363636363635,
                "end_time": 12.99090909090909,
                "pitch": 44,
                "velocity": 127,
                "duration": 0.22954545454545539,
                "tempo": 120.0
            },
            {
                "start_time": 12.99090909090909,
                "end_time": 13.193181818181818,
                "pitch": 44,
                "velocity": 127,
                "duration": 0.20227272727272805,
                "tempo": 120.0
            },
            {
                "start_time": 13.193181818181818,
                "end_time": 13.393181818181818,
                "pitch": 44,
                "velocity": 127,
                "duration": 0.1999999999999993,
                "tempo": 120.0
            },
            {
                "start_time": 13.393181818181818,
                "end_time": 13.634090909090908,
                "pitch": 44,
                "velocity": 127,
                "duration": 0.2409090909090903,
                "tempo": 120.0
            },
            {
                "start_time": 13.634090909090908,
                "end_time": 13.829545454545453,
                "pitch": 45,
                "velocity": 127,
                "duration": 0.19545454545454533,
                "tempo": 120.0
            },
            {
                "start_time": 13.838636363636363,
                "end_time": 14.075,
                "pitch": 45,
                "velocity": 127,
                "duration": 0.23636363636363633,
                "tempo": 120.0
            },
            {
                "start_time": 14.075,
                "end_time": 14.277272727272727,
                "pitch": 45,
                "velocity": 127,
                "duration": 0.20227272727272805,
                "tempo": 120.0
            },
            {
                "start_time": 14.277272727272727,
                "end_time": 14.477272727272727,
                "pitch": 45,
                "velocity": 127,
                "duration": 0.1999999999999993,
                "tempo": 120.0
            },
            {
                "start_time": 14.477272727272727,
                "end_time": 14.693181818181818,
                "pitch": 45,
                "velocity": 127,
                "duration": 0.21590909090909172,
                "tempo": 120.0
            },
            {
                "start_time": 14.693181818181818,
                "end_time": 14.879545454545454,
                "pitch": 45,
                "velocity": 127,
                "duration": 0.18636363636363562,
                "tempo": 120.0
            },
            {
                "start_time": 14.879545454545454,
                "end_time": 15.120454545454544,
                "pitch": 45,
                "velocity": 127,
                "duration": 0.2409090909090903,
                "tempo": 120.0
            },
            {
                "start_time": 15.120454545454544,
                "end_time": 15.322727272727272,
                "pitch": 45,
                "velocity": 127,
                "duration": 0.20227272727272805,
                "tempo": 120.0
            },
            {
                "start_time": 15.322727272727272,
                "end_time": 15.527272727272727,
                "pitch": 44,
                "velocity": 127,
                "duration": 0.20454545454545503,
                "tempo": 120.0
            },
            {
                "start_time": 15.527272727272727,
                "end_time": 15.763636363636364,
                "pitch": 44,
                "velocity": 127,
                "duration": 0.23636363636363633,
                "tempo": 120.0
            },
            {
                "start_time": 15.763636363636364,
                "end_time": 15.963636363636363,
                "pitch": 44,
                "velocity": 127,
                "duration": 0.1999999999999993,
                "tempo": 120.0
            },
            {
                "start_time": 15.963636363636363,
                "end_time": 16.195454545454545,
                "pitch": 44,
                "velocity": 127,
                "duration": 0.23181818181818237,
                "tempo": 120.0
            },
            {
                "start_time": 16.195454545454545,
                "end_time": 16.395454545454545,
                "pitch": 44,
                "velocity": 127,
                "duration": 0.1999999999999993,
                "tempo": 120.0
            },
            {
                "start_time": 16.395454545454545,
                "end_time": 16.595454545454544,
                "pitch": 44,
                "velocity": 127,
                "duration": 0.1999999999999993,
                "tempo": 120.0
            },
            {
                "start_time": 16.595454545454544,
                "end_time": 16.820454545454545,
                "pitch": 44,
                "velocity": 127,
                "duration": 0.22500000000000142,
                "tempo": 120.0
            },
            {
                "start_time": 16.820454545454545,
                "end_time": 17.004545454545454,
                "pitch": 44,
                "velocity": 127,
                "duration": 0.18409090909090864,
                "tempo": 120.0
            },
            {
                "start_time": 17.004545454545454,
                "end_time": 17.24090909090909,
                "pitch": 43,
                "velocity": 127,
                "duration": 0.23636363636363455,
                "tempo": 120.0
            },
            {
                "start_time": 17.24090909090909,
                "end_time": 17.44772727272727,
                "pitch": 43,
                "velocity": 127,
                "duration": 0.206818181818182,
                "tempo": 120.0
            },
            {
                "start_time": 17.44772727272727,
                "end_time": 17.647727272727273,
                "pitch": 43,
                "velocity": 127,
                "duration": 0.20000000000000284,
                "tempo": 120.0
            },
            {
                "start_time": 17.647727272727273,
                "end_time": 17.879545454545454,
                "pitch": 43,
                "velocity": 127,
                "duration": 0.2318181818181806,
                "tempo": 120.0
            },
            {
                "start_time": 17.879545454545454,
                "end_time": 18.079545454545453,
                "pitch": 43,
                "velocity": 127,
                "duration": 0.1999999999999993,
                "tempo": 120.0
            },
            {
                "start_time": 18.079545454545453,
                "end_time": 18.320454545454545,
                "pitch": 43,
                "velocity": 127,
                "duration": 0.24090909090909207,
                "tempo": 120.0
            },
            {
                "start_time": 18.320454545454545,
                "end_time": 18.525,
                "pitch": 43,
                "velocity": 127,
                "duration": 0.20454545454545325,
                "tempo": 120.0
            },
            {
                "start_time": 18.525,
                "end_time": 18.73181818181818,
                "pitch": 43,
                "velocity": 127,
                "duration": 0.206818181818182,
                "tempo": 120.0
            },
            {
                "start_time": 18.73181818181818,
                "end_time": 18.945454545454545,
                "pitch": 42,
                "velocity": 127,
                "duration": 0.21363636363636473,
                "tempo": 120.0
            },
            {
                "start_time": 18.945454545454545,
                "end_time": 19.13181818181818,
                "pitch": 42,
                "velocity": 127,
                "duration": 0.18636363636363384,
                "tempo": 120.0
            },
            {
                "start_time": 19.13181818181818,
                "end_time": 19.361363636363635,
                "pitch": 42,
                "velocity": 127,
                "duration": 0.22954545454545539,
                "tempo": 120.0
            },
            {
                "start_time": 19.361363636363635,
                "end_time": 19.563636363636363,
                "pitch": 42,
                "velocity": 127,
                "duration": 0.20227272727272805,
                "tempo": 120.0
            },
            {
                "start_time": 19.563636363636363,
                "end_time": 19.763636363636362,
                "pitch": 42,
                "velocity": 127,
                "duration": 0.1999999999999993,
                "tempo": 120.0
            },
            {
                "start_time": 19.763636363636362,
                "end_time": 20.004545454545454,
                "pitch": 42,
                "velocity": 127,
                "duration": 0.24090909090909207,
                "tempo": 120.0
            },
            {
                "start_time": 20.004545454545454,
                "end_time": 20.209090909090907,
                "pitch": 42,
                "velocity": 127,
                "duration": 0.20454545454545325,
                "tempo": 120.0
            },
            {
                "start_time": 20.209090909090907,
                "end_time": 20.445454545454545,
                "pitch": 42,
                "velocity": 127,
                "duration": 0.2363636363636381,
                "tempo": 120.0
            },
            {
                "start_time": 20.445454545454545,
                "end_time": 20.645454545454545,
                "pitch": 41,
                "velocity": 127,
                "duration": 0.1999999999999993,
                "tempo": 120.0
            },
            {
                "start_time": 20.645454545454545,
                "end_time": 20.847727272727273,
                "pitch": 41,
                "velocity": 127,
                "duration": 0.20227272727272805,
                "tempo": 120.0
            },
            {
                "start_time": 20.847727272727273,
                "end_time": 21.063636363636363,
                "pitch": 41,
                "velocity": 127,
                "duration": 0.21590909090908994,
                "tempo": 120.0
            },
            {
                "start_time": 21.063636363636363,
                "end_time": 21.25,
                "pitch": 41,
                "velocity": 127,
                "duration": 0.1863636363636374,
                "tempo": 120.0
            },
            {
                "start_time": 21.25,
                "end_time": 21.495454545454546,
                "pitch": 41,
                "velocity": 127,
                "duration": 0.24545454545454604,
                "tempo": 120.0
            },
            {
                "start_time": 21.495454545454546,
                "end_time": 21.7,
                "pitch": 41,
                "velocity": 127,
                "duration": 0.20454545454545325,
                "tempo": 120.0
            },
            {
                "start_time": 21.7,
                "end_time": 21.902272727272727,
                "pitch": 41,
                "velocity": 127,
                "duration": 0.20227272727272805,
                "tempo": 120.0
            },
            {
                "start_time": 21.902272727272727,
                "end_time": 22.13181818181818,
                "pitch": 41,
                "velocity": 127,
                "duration": 0.22954545454545183,
                "tempo": 120.0
            },
            {
                "start_time": 22.13181818181818,
                "end_time": 22.334090909090907,
                "pitch": 43,
                "velocity": 127,
                "duration": 0.20227272727272805,
                "tempo": 120.0
            },
            {
                "start_time": 22.334090909090907,
                "end_time": 22.563636363636363,
                "pitch": 43,
                "velocity": 127,
                "duration": 0.22954545454545539,
                "tempo": 120.0
            },
            {
                "start_time": 22.563636363636363,
                "end_time": 22.763636363636362,
                "pitch": 43,
                "velocity": 127,
                "duration": 0.1999999999999993,
                "tempo": 120.0
            },
            {
                "start_time": 22.763636363636362,
                "end_time": 22.96590909090909,
                "pitch": 43,
                "velocity": 127,
                "duration": 0.20227272727272805,
                "tempo": 120.0
            },
            {
                "start_time": 22.96590909090909,
                "end_time": 23.195454545454545,
                "pitch": 43,
                "velocity": 127,
                "duration": 0.22954545454545539,
                "tempo": 120.0
            },
            {
                "start_time": 23.195454545454545,
                "end_time": 23.386363636363637,
                "pitch": 43,
                "velocity": 127,
                "duration": 0.19090909090909136,
                "tempo": 120.0
            },
            {
                "start_time": 23.386363636363637,
                "end_time": 23.618181818181817,
                "pitch": 43,
                "velocity": 127,
                "duration": 0.2318181818181806,
                "tempo": 120.0
            },
            {
                "start_time": 23.618181818181817,
                "end_time": 23.818181818181817,
                "pitch": 43,
                "velocity": 127,
                "duration": 0.1999999999999993,
                "tempo": 120.0
            },
            {
                "start_time": 23.818181818181817,
                "end_time": 24.018181818181816,
                "pitch": 41,
                "velocity": 127,
                "duration": 0.1999999999999993,
                "tempo": 120.0
            },
            {
                "start_time": 24.018181818181816,
                "end_time": 24.25,
                "pitch": 41,
                "velocity": 127,
                "duration": 0.23181818181818414,
                "tempo": 120.0
            },
            {
                "start_time": 24.25,
                "end_time": 24.461363636363636,
                "pitch": 41,
                "velocity": 127,
                "duration": 0.21136363636363598,
                "tempo": 120.0
            },
            {
                "start_time": 24.461363636363636,
                "end_time": 24.69090909090909,
                "pitch": 41,
                "velocity": 127,
                "duration": 0.22954545454545539,
                "tempo": 120.0
            },
            {
                "start_time": 24.69090909090909,
                "end_time": 24.89772727272727,
                "pitch": 41,
                "velocity": 127,
                "duration": 0.20681818181817846,
                "tempo": 120.0
            },
            {
                "start_time": 24.89772727272727,
                "end_time": 25.102272727272727,
                "pitch": 41,
                "velocity": 127,
                "duration": 0.2045454545454568,
                "tempo": 120.0
            },
            {
                "start_time": 25.102272727272727,
                "end_time": 25.318181818181817,
                "pitch": 41,
                "velocity": 127,
                "duration": 0.21590909090908994,
                "tempo": 120.0
            },
            {
                "start_time": 25.318181818181817,
                "end_time": 25.504545454545454,
                "pitch": 41,
                "velocity": 127,
                "duration": 0.1863636363636374,
                "tempo": 120.0
            },
            {
                "start_time": 25.504545454545454,
                "end_time": 25.736363636363635,
                "pitch": 40,
                "velocity": 127,
                "duration": 0.2318181818181806,
                "tempo": 120.0
            },
            {
                "start_time": 25.736363636363635,
                "end_time": 25.936363636363634,
                "pitch": 40,
                "velocity": 127,
                "duration": 0.1999999999999993,
                "tempo": 120.0
            },
            {
                "start_time": 25.936363636363634,
                "end_time": 26.152272727272727,
                "pitch": 40,
                "velocity": 127,
                "duration": 0.2159090909090935,
                "tempo": 120.0
            },
            {
                "start_time": 26.152272727272727,
                "end_time": 26.388636363636362,
                "pitch": 40,
                "velocity": 127,
                "duration": 0.23636363636363455,
                "tempo": 120.0
            },
            {
                "start_time": 26.388636363636362,
                "end_time": 26.58863636363636,
                "pitch": 40,
                "velocity": 127,
                "duration": 0.1999999999999993,
                "tempo": 120.0
            },
            {
                "start_time": 26.58863636363636,
                "end_time": 26.820454545454545,
                "pitch": 40,
                "velocity": 127,
                "duration": 0.23181818181818414,
                "tempo": 120.0
            },
            {
                "start_time": 26.820454545454545,
                "end_time": 27.020454545454545,
                "pitch": 40,
                "velocity": 127,
                "duration": 0.1999999999999993,
                "tempo": 120.0
            },
            {
                "start_time": 27.020454545454545,
                "end_time": 27.220454545454544,
                "pitch": 40,
                "velocity": 127,
                "duration": 0.1999999999999993,
                "tempo": 120.0
            },
            {
                "start_time": 27.23181818181818,
                "end_time": 27.440909090909088,
                "pitch": 45,
                "velocity": 127,
                "duration": 0.20909090909090722,
                "tempo": 120.0
            },
            {
                "start_time": 27.440909090909088,
                "end_time": 27.63181818181818,
                "pitch": 45,
                "velocity": 127,
                "duration": 0.19090909090909136,
                "tempo": 120.0
            },
            {
                "start_time": 27.643181818181816,
                "end_time": 27.87272727272727,
                "pitch": 45,
                "velocity": 127,
                "duration": 0.22954545454545539,
                "tempo": 120.0
            },
            {
                "start_time": 27.87272727272727,
                "end_time": 28.075,
                "pitch": 45,
                "velocity": 127,
                "duration": 0.20227272727272805,
                "tempo": 120.0
            },
            {
                "start_time": 28.075,
                "end_time": 28.275,
                "pitch": 45,
                "velocity": 127,
                "duration": 0.1999999999999993,
                "tempo": 120.0
            },
            {
                "start_time": 28.275,
                "end_time": 28.50681818181818,
                "pitch": 45,
                "velocity": 127,
                "duration": 0.2318181818181806,
                "tempo": 120.0
            },
            {
                "start_time": 28.50681818181818,
                "end_time": 28.706818181818182,
                "pitch": 45,
                "velocity": 127,
                "duration": 0.20000000000000284,
                "tempo": 120.0
            },
            {
                "start_time": 28.706818181818182,
                "end_time": 28.94772727272727,
                "pitch": 45,
                "velocity": 127,
                "duration": 0.24090909090908852,
                "tempo": 120.0
            },
            {
                "start_time": 28.94772727272727,
                "end_time": 29.143181818181816,
                "pitch": 44,
                "velocity": 127,
                "duration": 0.19545454545454533,
                "tempo": 120.0
            },
            {
                "start_time": 29.143181818181816,
                "end_time": 29.347727272727273,
                "pitch": 44,
                "velocity": 127,
                "duration": 0.2045454545454568,
                "tempo": 120.0
            },
            {
                "start_time": 29.347727272727273,
                "end_time": 29.57272727272727,
                "pitch": 44,
                "velocity": 127,
                "duration": 0.22499999999999787,
                "tempo": 120.0
            },
            {
                "start_time": 29.57272727272727,
                "end_time": 29.761363636363637,
                "pitch": 44,
                "velocity": 127,
                "duration": 0.18863636363636616,
                "tempo": 120.0
            },
            {
                "start_time": 29.761363636363637,
                "end_time": 29.99090909090909,
                "pitch": 44,
                "velocity": 127,
                "duration": 0.22954545454545183,
                "tempo": 120.0
            },
            {
                "start_time": 29.99090909090909,
                "end_time": 30.193181818181817,
                "pitch": 44,
                "velocity": 127,
                "duration": 0.20227272727272805,
                "tempo": 120.0
            },
            {
                "start_time": 30.193181818181817,
                "end_time": 30.393181818181816,
                "pitch": 44,
                "velocity": 127,
                "duration": 0.1999999999999993,
                "tempo": 120.0
            },
            {
                "start_time": 30.393181818181816,
                "end_time": 30.634090909090908,
                "pitch": 44,
                "velocity": 127,
                "duration": 0.24090909090909207,
                "tempo": 120.0
            },
            {
                "start_time": 30.634090909090908,
                "end_time": 30.829545454545453,
                "pitch": 43,
                "velocity": 127,
                "duration": 0.19545454545454533,
                "tempo": 120.0
            },
            {
                "start_time": 30.829545454545453,
                "end_time": 31.075,
                "pitch": 43,
                "velocity": 127,
                "duration": 0.24545454545454604,
                "tempo": 120.0
            },
            {
                "start_time": 31.075,
                "end_time": 31.277272727272727,
                "pitch": 43,
                "velocity": 127,
                "duration": 0.20227272727272805,
                "tempo": 120.0
            },
            {
                "start_time": 31.277272727272727,
                "end_time": 31.477272727272727,
                "pitch": 43,
                "velocity": 127,
                "duration": 0.1999999999999993,
                "tempo": 120.0
            },
            {
                "start_time": 31.477272727272727,
                "end_time": 31.690909090909088,
                "pitch": 43,
                "velocity": 127,
                "duration": 0.21363636363636118,
                "tempo": 120.0
            },
            {
                "start_time": 31.690909090909088,
                "end_time": 31.877272727272725,
                "pitch": 43,
                "velocity": 127,
                "duration": 0.1863636363636374,
                "tempo": 120.0
            },
            {
                "start_time": 31.877272727272725,
                "end_time": 32.11818181818182,
                "pitch": 43,
                "velocity": 127,
                "duration": 0.24090909090909207,
                "tempo": 120.0
            },
            {
                "start_time": 32.11818181818182,
                "end_time": 32.31818181818182,
                "pitch": 43,
                "velocity": 127,
                "duration": 0.20000000000000284,
                "tempo": 120.0
            },
            {
                "start_time": 32.31818181818182,
                "end_time": 32.525,
                "pitch": 42,
                "velocity": 127,
                "duration": 0.20681818181817846,
                "tempo": 120.0
            },
            {
                "start_time": 32.525,
                "end_time": 32.76136363636363,
                "pitch": 42,
                "velocity": 127,
                "duration": 0.23636363636363455,
                "tempo": 120.0
            },
            {
                "start_time": 32.76136363636363,
                "end_time": 32.961363636363636,
                "pitch": 42,
                "velocity": 127,
                "duration": 0.20000000000000284,
                "tempo": 120.0
            },
            {
                "start_time": 32.961363636363636,
                "end_time": 33.19090909090909,
                "pitch": 42,
                "velocity": 127,
                "duration": 0.22954545454545183,
                "tempo": 120.0
            },
            {
                "start_time": 33.19090909090909,
                "end_time": 33.393181818181816,
                "pitch": 42,
                "velocity": 127,
                "duration": 0.20227272727272805,
                "tempo": 120.0
            },
            {
                "start_time": 33.393181818181816,
                "end_time": 33.59318181818182,
                "pitch": 42,
                "velocity": 127,
                "duration": 0.20000000000000284,
                "tempo": 120.0
            },
            {
                "start_time": 33.59318181818182,
                "end_time": 33.81590909090909,
                "pitch": 42,
                "velocity": 127,
                "duration": 0.2227272727272691,
                "tempo": 120.0
            },
            {
                "start_time": 33.81590909090909,
                "end_time": 34.002272727272725,
                "pitch": 42,
                "velocity": 127,
                "duration": 0.1863636363636374,
                "tempo": 120.0
            },
            {
                "start_time": 34.002272727272725,
                "end_time": 34.23863636363636,
                "pitch": 43,
                "velocity": 127,
                "duration": 0.23636363636363455,
                "tempo": 120.0
            },
            {
                "start_time": 34.23863636363636,
                "end_time": 34.44318181818181,
                "pitch": 43,
                "velocity": 127,
                "duration": 0.20454545454545325,
                "tempo": 120.0
            },
            {
                "start_time": 34.44318181818181,
                "end_time": 34.64545454545454,
                "pitch": 43,
                "velocity": 127,
                "duration": 0.20227272727272805,
                "tempo": 120.0
            },
            {
                "start_time": 34.64545454545454,
                "end_time": 34.875,
                "pitch": 43,
                "velocity": 127,
                "duration": 0.22954545454545894,
                "tempo": 120.0
            },
            {
                "start_time": 34.875,
                "end_time": 35.07727272727273,
                "pitch": 43,
                "velocity": 127,
                "duration": 0.20227272727272805,
                "tempo": 120.0
            },
            {
                "start_time": 35.07727272727273,
                "end_time": 35.31818181818181,
                "pitch": 43,
                "velocity": 127,
                "duration": 0.24090909090908497,
                "tempo": 120.0
            },
            {
                "start_time": 35.31818181818181,
                "end_time": 35.52272727272727,
                "pitch": 43,
                "velocity": 127,
                "duration": 0.20454545454546036,
                "tempo": 120.0
            },
            {
                "start_time": 35.52272727272727,
                "end_time": 35.72727272727273,
                "pitch": 43,
                "velocity": 127,
                "duration": 0.20454545454545325,
                "tempo": 120.0
            },
            {
                "start_time": 35.72727272727273,
                "end_time": 35.94318181818181,
                "pitch": 42,
                "velocity": 127,
                "duration": 0.2159090909090864,
                "tempo": 120.0
            },
            {
                "start_time": 35.94318181818181,
                "end_time": 36.127272727272725,
                "pitch": 42,
                "velocity": 127,
                "duration": 0.1840909090909122,
                "tempo": 120.0
            },
            {
                "start_time": 36.127272727272725,
                "end_time": 36.35909090909091,
                "pitch": 42,
                "velocity": 127,
                "duration": 0.23181818181818414,
                "tempo": 120.0
            },
            {
                "start_time": 36.35909090909091,
                "end_time": 36.559090909090905,
                "pitch": 42,
                "velocity": 127,
                "duration": 0.19999999999999574,
                "tempo": 120.0
            },
            {
                "start_time": 36.559090909090905,
                "end_time": 36.76136363636363,
                "pitch": 42,
                "velocity": 127,
                "duration": 0.20227272727272805,
                "tempo": 120.0
            },
            {
                "start_time": 36.76136363636363,
                "end_time": 37.002272727272725,
                "pitch": 42,
                "velocity": 127,
                "duration": 0.24090909090909207,
                "tempo": 120.0
            },
            {
                "start_time": 37.002272727272725,
                "end_time": 37.20681818181818,
                "pitch": 42,
                "velocity": 127,
                "duration": 0.20454545454545325,
                "tempo": 120.0
            },
            {
                "start_time": 37.20681818181818,
                "end_time": 37.44318181818181,
                "pitch": 42,
                "velocity": 127,
                "duration": 0.23636363636363455,
                "tempo": 120.0
            },
            {
                "start_time": 37.44318181818181,
                "end_time": 37.643181818181816,
                "pitch": 41,
                "velocity": 127,
                "duration": 0.20000000000000284,
                "tempo": 120.0
            },
            {
                "start_time": 37.643181818181816,
                "end_time": 37.845454545454544,
                "pitch": 41,
                "velocity": 127,
                "duration": 0.20227272727272805,
                "tempo": 120.0
            },
            {
                "start_time": 37.845454545454544,
                "end_time": 38.059090909090905,
                "pitch": 41,
                "velocity": 127,
                "duration": 0.21363636363636118,
                "tempo": 120.0
            },
            {
                "start_time": 38.059090909090905,
                "end_time": 38.24545454545454,
                "pitch": 41,
                "velocity": 127,
                "duration": 0.1863636363636374,
                "tempo": 120.0
            },
            {
                "start_time": 38.24545454545454,
                "end_time": 38.486363636363635,
                "pitch": 41,
                "velocity": 127,
                "duration": 0.24090909090909207,
                "tempo": 120.0
            },
            {
                "start_time": 38.486363636363635,
                "end_time": 38.68636363636364,
                "pitch": 41,
                "velocity": 127,
                "duration": 0.20000000000000284,
                "tempo": 120.0
            },
            {
                "start_time": 38.68636363636364,
                "end_time": 38.89090909090909,
                "pitch": 41,
                "velocity": 127,
                "duration": 0.20454545454545325,
                "tempo": 120.0
            },
            {
                "start_time": 38.89090909090909,
                "end_time": 39.127272727272725,
                "pitch": 41,
                "velocity": 127,
                "duration": 0.23636363636363455,
                "tempo": 120.0
            },
            {
                "start_time": 39.127272727272725,
                "end_time": 39.32954545454545,
                "pitch": 44,
                "velocity": 127,
                "duration": 0.20227272727272805,
                "tempo": 120.0
            },
            {
                "start_time": 39.32954545454545,
                "end_time": 39.559090909090905,
                "pitch": 44,
                "velocity": 127,
                "duration": 0.22954545454545183,
                "tempo": 120.0
            },
            {
                "start_time": 39.559090909090905,
                "end_time": 39.75909090909091,
                "pitch": 44,
                "velocity": 127,
                "duration": 0.20000000000000284,
                "tempo": 120.0
            },
            {
                "start_time": 39.75909090909091,
                "end_time": 39.961363636363636,
                "pitch": 44,
                "velocity": 127,
                "duration": 0.20227272727272805,
                "tempo": 120.0
            },
            {
                "start_time": 39.961363636363636,
                "end_time": 40.184090909090905,
                "pitch": 44,
                "velocity": 127,
                "duration": 0.2227272727272691,
                "tempo": 120.0
            },
            {
                "start_time": 40.184090909090905,
                "end_time": 40.37045454545454,
                "pitch": 44,
                "velocity": 127,
                "duration": 0.1863636363636374,
                "tempo": 120.0
            },
            {
                "start_time": 40.37045454545454,
                "end_time": 40.60681818181818,
                "pitch": 44,
                "velocity": 127,
                "duration": 0.23636363636363455,
                "tempo": 120.0
            },
            {
                "start_time": 40.60681818181818,
                "end_time": 40.79772727272727,
                "pitch": 44,
                "velocity": 127,
                "duration": 0.19090909090909491,
                "tempo": 120.0
            }
        ]
    }
}