{
    "track_id": "Galaxy Force (FM) - 04 - Defeat",
    "mood": "angry",
    "instruments": {
        "Harpsichord": [
            {
                "start_time": 0.0,
                "end_time": 1.5045454545454544,
                "pitch": 61,
                "velocity": 64,
                "duration": 1.5045454545454544,
                "tempo": 120.0
            },
            {
                "start_time": 1.6568181818181817,
                "end_time": 1.7704545454545453,
                "pitch": 61,
                "velocity": 64,
                "duration": 0.11363636363636354,
                "tempo": 120.0
            },
            {
                "start_time": 1.9227272727272726,
                "end_time": 4.195454545454545,
                "pitch": 61,
                "velocity": 64,
                "duration": 2.2727272727272725,
                "tempo": 120.0
            },
            {
                "start_time": 4.213636363636364,
                "end_time": 5.006818181818182,
                "pitch": 72,
                "velocity": 64,
                "duration": 0.793181818181818,
                "tempo": 120.0
            },
            {
                "start_time": 5.0249999999999995,
                "end_time": 5.8159090909090905,
                "pitch": 74,
                "velocity": 64,
                "duration": 0.790909090909091,
                "tempo": 120.0
            },
            {
                "start_time": 5.968181818181818,
                "end_time": 6.081818181818181,
                "pitch": 74,
                "velocity": 64,
                "duration": 0.11363636363636331,
                "tempo": 120.0
            },
            {
                "start_time": 6.2295454545454545,
                "end_time": 7.420454545454545,
                "pitch": 74,
                "velocity": 64,
                "duration": 1.1909090909090905,
                "tempo": 120.0
            },
            {
                "start_time": 7.4386363636363635,
                "end_time": 7.554545454545454,
                "pitch": 72,
                "velocity": 64,
                "duration": 0.1159090909090903,
                "tempo": 120.0
            },
            {
                "start_time": 7.572727272727272,
                "end_time": 7.820454545454545,
                "pitch": 72,
                "velocity": 64,
                "duration": 0.24772727272727302,
                "tempo": 120.0
            },
            {
                "start_time": 7.838636363636363,
                "end_time": 8.088636363636363,
                "pitch": 70,
                "velocity": 64,
                "duration": 0.25,
                "tempo": 120.0
            },
            {
                "start_time": 8.10681818181818,
                "end_time": 8.361363636363636,
                "pitch": 65,
                "velocity": 64,
                "duration": 0.25454545454545574,
                "tempo": 120.0
            },
            {
                "start_time": 8.379545454545454,
                "end_time": 10.102272727272727,
                "pitch": 61,
                "velocity": 64,
                "duration": 1.7227272727272727,
                "tempo": 120.0
            },
            {
                "start_time": 10.254545454545454,
                "end_time": 10.370454545454544,
                "pitch": 61,
                "velocity": 64,
                "duration": 0.1159090909090903,
                "tempo": 120.0
            },
            {
                "start_time": 10.520454545454545,
                "end_time": 12.793181818181818,
                "pitch": 61,
                "velocity": 64,
                "duration": 2.2727272727272734,
                "tempo": 120.0
            },
            {
                "start_time": 12.811363636363636,
                "end_time": 13.597727272727273,
                "pitch": 72,
                "velocity": 64,
                "duration": 0.786363636363637,
                "tempo": 120.0
            },
            {
                "start_time": 13.61590909090909,
                "end_time": 15.075,
                "pitch": 74,
                "velocity": 64,
                "duration": 1.459090909090909,
                "tempo": 120.0
            },
            {
                "start_time": 16.98181818181818,
                "end_time": 18.711363636363636,
                "pitch": 65,
                "velocity": 64,
                "duration": 1.7295454545454554,
                "tempo": 120.0
            },
            {
                "start_time": 18.729545454545455,
                "end_time": 19.518181818181816,
                "pitch": 65,
                "velocity": 64,
                "duration": 0.7886363636363605,
                "tempo": 120.0
            },
            {
                "start_time": 19.536363636363635,
                "end_time": 20.325,
                "pitch": 65,
                "velocity": 64,
                "duration": 0.788636363636364,
                "tempo": 120.0
            },
            {
                "start_time": 20.34318181818182,
                "end_time": 20.729545454545452,
                "pitch": 72,
                "velocity": 64,
                "duration": 0.38636363636363313,
                "tempo": 120.0
            },
            {
                "start_time": 20.74772727272727,
                "end_time": 21.134090909090908,
                "pitch": 72,
                "velocity": 64,
                "duration": 0.3863636363636367,
                "tempo": 120.0
            },
            {
                "start_time": 21.152272727272727,
                "end_time": 21.402272727272727,
                "pitch": 70,
                "velocity": 64,
                "duration": 0.25,
                "tempo": 120.0
            },
            {
                "start_time": 21.420454545454543,
                "end_time": 22.209090909090907,
                "pitch": 72,
                "velocity": 64,
                "duration": 0.788636363636364,
                "tempo": 120.0
            },
            {
                "start_time": 22.227272727272727,
                "end_time": 23.020454545454545,
                "pitch": 74,
                "velocity": 64,
                "duration": 0.793181818181818,
                "tempo": 120.0
            },
            {
                "start_time": 23.174999999999997,
                "end_time": 23.288636363636364,
                "pitch": 74,
                "velocity": 64,
                "duration": 0.11363636363636687,
                "tempo": 120.0
            },
            {
                "start_time": 23.436363636363634,
                "end_time": 24.625,
                "pitch": 74,
                "velocity": 64,
                "duration": 1.1886363636363662,
                "tempo": 120.0
            },
            {
                "start_time": 24.643181818181816,
                "end_time": 24.761363636363637,
                "pitch": 72,
                "velocity": 64,
                "duration": 0.11818181818182083,
                "tempo": 120.0
            },
            {
                "start_time": 24.779545454545453,
                "end_time": 25.034090909090907,
                "pitch": 72,
                "velocity": 64,
                "duration": 0.25454545454545396,
                "tempo": 120.0
            },
            {
                "start_time": 25.052272727272726,
                "end_time": 25.170454545454543,
                "pitch": 70,
                "velocity": 64,
                "duration": 0.11818181818181728,
                "tempo": 120.0
            },
            {
                "start_time": 25.188636363636363,
                "end_time": 25.56590909090909,
                "pitch": 65,
                "velocity": 64,
                "duration": 0.37727272727272876,
                "tempo": 120.0
            },
            {
                "start_time": 25.584090909090907,
                "end_time": 27.30909090909091,
                "pitch": 75,
                "velocity": 64,
                "duration": 1.7250000000000014,
                "tempo": 120.0
            },
            {
                "start_time": 27.327272727272724,
                "end_time": 27.71590909090909,
                "pitch": 65,
                "velocity": 64,
                "duration": 0.38863636363636545,
                "tempo": 120.0
            },
            {
                "start_time": 27.73409090909091,
                "end_time": 28.924999999999997,
                "pitch": 65,
                "velocity": 64,
                "duration": 1.1909090909090878,
                "tempo": 120.0
            },
            {
                "start_time": 28.943181818181817,
                "end_time": 29.329545454545453,
                "pitch": 72,
                "velocity": 64,
                "duration": 0.3863636363636367,
                "tempo": 120.0
            },
            {
                "start_time": 29.347727272727273,
                "end_time": 29.73409090909091,
                "pitch": 72,
                "velocity": 64,
                "duration": 0.3863636363636367,
                "tempo": 120.0
            },
            {
                "start_time": 29.752272727272725,
                "end_time": 30.0,
                "pitch": 74,
                "velocity": 64,
                "duration": 0.2477272727272748,
                "tempo": 120.0
            },
            {
                "start_time": 30.018181818181816,
                "end_time": 30.793181818181818,
                "pitch": 72,
                "velocity": 64,
                "duration": 0.7750000000000021,
                "tempo": 120.0
            },
            {
                "start_time": 30.811363636363634,
                "end_time": 32.28409090909091,
                "pitch": 74,
                "velocity": 64,
                "duration": 1.4727272727272727,
                "tempo": 120.0
            },
            {
                "start_time": 53.93181818181818,
                "end_time": 54.32727272727273,
                "pitch": 61,
                "velocity": 64,
                "duration": 0.39545454545454817,
                "tempo": 120.0
            },
            {
                "start_time": 54.345454545454544,
                "end_time": 54.86363636363636,
                "pitch": 72,
                "velocity": 64,
                "duration": 0.5181818181818159,
                "tempo": 120.0
            },
            {
                "start_time": 54.881818181818176,
                "end_time": 55.41590909090909,
                "pitch": 65,
                "velocity": 64,
                "duration": 0.5340909090909136,
                "tempo": 120.0
            },
            {
                "start_time": 55.43181818181818,
                "end_time": 55.809090909090905,
                "pitch": 65,
                "velocity": 64,
                "duration": 0.3772727272727252,
                "tempo": 120.0
            },
            {
                "start_time": 56.09318181818182,
                "end_time": 56.474999999999994,
                "pitch": 61,
                "velocity": 64,
                "duration": 0.3818181818181756,
                "tempo": 120.0
            },
            {
                "start_time": 56.49318181818182,
                "end_time": 57.01136363636363,
                "pitch": 72,
                "velocity": 64,
                "duration": 0.5181818181818159,
                "tempo": 120.0
            },
            {
                "start_time": 57.02954545454545,
                "end_time": 57.56363636363636,
                "pitch": 65,
                "velocity": 64,
                "duration": 0.5340909090909136,
                "tempo": 120.0
            },
            {
                "start_time": 57.58181818181818,
                "end_time": 57.96363636363636,
                "pitch": 65,
                "velocity": 64,
                "duration": 0.3818181818181827,
                "tempo": 120.0
            },
            {
                "start_time": 58.25,
                "end_time": 58.631818181818176,
                "pitch": 60,
                "velocity": 64,
                "duration": 0.3818181818181756,
                "tempo": 120.0
            },
            {
                "start_time": 58.65,
                "end_time": 59.168181818181814,
                "pitch": 72,
                "velocity": 64,
                "duration": 0.5181818181818159,
                "tempo": 120.0
            },
            {
                "start_time": 59.18636363636363,
                "end_time": 59.720454545454544,
                "pitch": 65,
                "velocity": 64,
                "duration": 0.5340909090909136,
                "tempo": 120.0
            },
            {
                "start_time": 59.736363636363635,
                "end_time": 60.11363636363636,
                "pitch": 65,
                "velocity": 64,
                "duration": 0.3772727272727252,
                "tempo": 120.0
            },
            {
                "start_time": 60.39545454545454,
                "end_time": 60.77954545454545,
                "pitch": 60,
                "velocity": 64,
                "duration": 0.38409090909090793,
                "tempo": 120.0
            },
            {
                "start_time": 60.79772727272727,
                "end_time": 61.31590909090909,
                "pitch": 60,
                "velocity": 64,
                "duration": 0.5181818181818159,
                "tempo": 120.0
            },
            {
                "start_time": 61.334090909090904,
                "end_time": 61.865909090909085,
                "pitch": 65,
                "velocity": 64,
                "duration": 0.5318181818181813,
                "tempo": 120.0
            },
            {
                "start_time": 61.88409090909091,
                "end_time": 62.26136363636363,
                "pitch": 65,
                "velocity": 64,
                "duration": 0.3772727272727252,
                "tempo": 120.0
            },
            {
                "start_time": 62.543181818181814,
                "end_time": 62.92727272727272,
                "pitch": 60,
                "velocity": 64,
                "duration": 0.38409090909090793,
                "tempo": 120.0
            },
            {
                "start_time": 62.945454545454545,
                "end_time": 63.47272727272727,
                "pitch": 70,
                "velocity": 64,
                "duration": 0.5272727272727238,
                "tempo": 120.0
            },
            {
                "start_time": 63.490909090909085,
                "end_time": 64.01590909090909,
                "pitch": 70,
                "velocity": 64,
                "duration": 0.5250000000000057,
                "tempo": 120.0
            },
            {
                "start_time": 64.03181818181818,
                "end_time": 64.41590909090908,
                "pitch": 60,
                "velocity": 64,
                "duration": 0.3840909090909008,
                "tempo": 120.0
            },
            {
                "start_time": 64.7,
                "end_time": 65.0840909090909,
                "pitch": 60,
                "velocity": 64,
                "duration": 0.3840909090909008,
                "tempo": 120.0
            },
            {
                "start_time": 65.10227272727272,
                "end_time": 65.61818181818181,
                "pitch": 70,
                "velocity": 64,
                "duration": 0.5159090909090907,
                "tempo": 120.0
            },
            {
                "start_time": 65.63636363636364,
                "end_time": 66.16363636363636,
                "pitch": 70,
                "velocity": 64,
                "duration": 0.5272727272727167,
                "tempo": 120.0
            },
            {
                "start_time": 66.17954545454545,
                "end_time": 66.56363636363636,
                "pitch": 60,
                "velocity": 64,
                "duration": 0.38409090909091503,
                "tempo": 120.0
            },
            {
                "start_time": 66.84772727272727,
                "end_time": 67.23181818181818,
                "pitch": 60,
                "velocity": 64,
                "duration": 0.38409090909091503,
                "tempo": 120.0
            },
            {
                "start_time": 67.24772727272727,
                "end_time": 67.76590909090909,
                "pitch": 72,
                "velocity": 64,
                "duration": 0.5181818181818159,
                "tempo": 120.0
            },
            {
                "start_time": 67.7840909090909,
                "end_time": 68.31818181818181,
                "pitch": 65,
                "velocity": 64,
                "duration": 0.5340909090909065,
                "tempo": 120.0
            },
            {
                "start_time": 68.33636363636363,
                "end_time": 68.71136363636363,
                "pitch": 63,
                "velocity": 64,
                "duration": 0.375,
                "tempo": 120.0
            },
            {
                "start_time": 68.99545454545454,
                "end_time": 69.37954545454545,
                "pitch": 67,
                "velocity": 64,
                "duration": 0.38409090909091503,
                "tempo": 120.0
            },
            {
                "start_time": 69.39545454545454,
                "end_time": 69.91363636363636,
                "pitch": 70,
                "velocity": 64,
                "duration": 0.5181818181818159,
                "tempo": 120.0
            },
            {
                "start_time": 69.93181818181817,
                "end_time": 70.5909090909091,
                "pitch": 67,
                "velocity": 64,
                "duration": 0.6590909090909207,
                "tempo": 120.0
            },
            {
                "start_time": 70.60681818181818,
                "end_time": 70.85909090909091,
                "pitch": 67,
                "velocity": 64,
                "duration": 0.2522727272727252,
                "tempo": 120.0
            },
            {
                "start_time": 71.14318181818182,
                "end_time": 71.52727272727273,
                "pitch": 55,
                "velocity": 64,
                "duration": 0.38409090909091503,
                "tempo": 120.0
            },
            {
                "start_time": 71.54318181818182,
                "end_time": 72.07045454545454,
                "pitch": 63,
                "velocity": 64,
                "duration": 0.5272727272727167,
                "tempo": 120.0
            },
            {
                "start_time": 72.08863636363635,
                "end_time": 72.61363636363636,
                "pitch": 65,
                "velocity": 64,
                "duration": 0.5250000000000057,
                "tempo": 120.0
            },
            {
                "start_time": 72.63181818181818,
                "end_time": 72.74772727272727,
                "pitch": 62,
                "velocity": 64,
                "duration": 0.11590909090909918,
                "tempo": 120.0
            },
            {
                "start_time": 73.3,
                "end_time": 73.68181818181817,
                "pitch": 55,
                "velocity": 64,
                "duration": 0.3818181818181756,
                "tempo": 120.0
            },
            {
                "start_time": 73.7,
                "end_time": 74.21818181818182,
                "pitch": 67,
                "velocity": 64,
                "duration": 0.5181818181818159,
                "tempo": 120.0
            },
            {
                "start_time": 74.23636363636363,
                "end_time": 74.77045454545454,
                "pitch": 63,
                "velocity": 64,
                "duration": 0.5340909090909065,
                "tempo": 120.0
            },
            {
                "start_time": 74.78636363636363,
                "end_time": 74.89999999999999,
                "pitch": 60,
                "velocity": 64,
                "duration": 0.11363636363635976,
                "tempo": 120.0
            },
            {
                "start_time": 75.44772727272726,
                "end_time": 75.82954545454545,
                "pitch": 57,
                "velocity": 64,
                "duration": 0.38181818181818983,
                "tempo": 120.0
            },
            {
                "start_time": 75.84772727272727,
                "end_time": 76.36590909090908,
                "pitch": 67,
                "velocity": 64,
                "duration": 0.5181818181818159,
                "tempo": 120.0
            },
            {
                "start_time": 76.3840909090909,
                "end_time": 76.91818181818182,
                "pitch": 63,
                "velocity": 64,
                "duration": 0.5340909090909207,
                "tempo": 120.0
            },
            {
                "start_time": 76.93409090909091,
                "end_time": 77.04772727272727,
                "pitch": 60,
                "velocity": 64,
                "duration": 0.11363636363635976,
                "tempo": 120.0
            },
            {
                "start_time": 77.59318181818182,
                "end_time": 77.97727272727272,
                "pitch": 57,
                "velocity": 64,
                "duration": 0.3840909090909008,
                "tempo": 120.0
            },
            {
                "start_time": 77.99545454545454,
                "end_time": 78.52045454545454,
                "pitch": 67,
                "velocity": 64,
                "duration": 0.5250000000000057,
                "tempo": 120.0
            },
            {
                "start_time": 78.53863636363636,
                "end_time": 79.05681818181817,
                "pitch": 63,
                "velocity": 64,
                "duration": 0.5181818181818159,
                "tempo": 120.0
            },
            {
                "start_time": 79.075,
                "end_time": 79.19318181818181,
                "pitch": 63,
                "velocity": 64,
                "duration": 0.11818181818181017,
                "tempo": 120.0
            },
            {
                "start_time": 79.75,
                "end_time": 80.1340909090909,
                "pitch": 55,
                "velocity": 64,
                "duration": 0.3840909090909008,
                "tempo": 120.0
            },
            {
                "start_time": 80.15227272727272,
                "end_time": 80.67045454545455,
                "pitch": 63,
                "velocity": 64,
                "duration": 0.5181818181818301,
                "tempo": 120.0
            },
            {
                "start_time": 80.68863636363636,
                "end_time": 81.22045454545454,
                "pitch": 65,
                "velocity": 64,
                "duration": 0.5318181818181813,
                "tempo": 120.0
            },
            {
                "start_time": 81.23863636363636,
                "end_time": 81.35227272727272,
                "pitch": 62,
                "velocity": 64,
                "duration": 0.11363636363635976,
                "tempo": 120.0
            },
            {
                "start_time": 81.89772727272727,
                "end_time": 82.28181818181818,
                "pitch": 55,
                "velocity": 64,
                "duration": 0.38409090909091503,
                "tempo": 120.0
            },
            {
                "start_time": 82.29772727272727,
                "end_time": 82.81818181818181,
                "pitch": 67,
                "velocity": 64,
                "duration": 0.5204545454545411,
                "tempo": 120.0
            },
            {
                "start_time": 82.83636363636363,
                "end_time": 83.37045454545454,
                "pitch": 63,
                "velocity": 64,
                "duration": 0.5340909090909065,
                "tempo": 120.0
            },
            {
                "start_time": 83.38636363636363,
                "end_time": 83.50454545454545,
                "pitch": 60,
                "velocity": 64,
                "duration": 0.11818181818182438,
                "tempo": 120.0
            },
            {
                "start_time": 84.05227272727272,
                "end_time": 84.42954545454545,
                "pitch": 56,
                "velocity": 64,
                "duration": 0.3772727272727252,
                "tempo": 120.0
            },
            {
                "start_time": 84.44772727272726,
                "end_time": 84.975,
                "pitch": 67,
                "velocity": 64,
                "duration": 0.5272727272727309,
                "tempo": 120.0
            },
            {
                "start_time": 84.99090909090908,
                "end_time": 85.51818181818182,
                "pitch": 60,
                "velocity": 64,
                "duration": 0.5272727272727309,
                "tempo": 120.0
            },
            {
                "start_time": 85.5340909090909,
                "end_time": 85.91818181818181,
                "pitch": 63,
                "velocity": 64,
                "duration": 0.3840909090909008,
                "tempo": 120.0
            },
            {
                "start_time": 86.20227272727273,
                "end_time": 86.58636363636363,
                "pitch": 68,
                "velocity": 64,
                "duration": 0.3840909090909008,
                "tempo": 120.0
            },
            {
                "start_time": 86.60454545454544,
                "end_time": 87.12045454545454,
                "pitch": 75,
                "velocity": 64,
                "duration": 0.5159090909090907,
                "tempo": 120.0
            },
            {
                "start_time": 87.13863636363637,
                "end_time": 87.65681818181818,
                "pitch": 79,
                "velocity": 64,
                "duration": 0.5181818181818159,
                "tempo": 120.0
            },
            {
                "start_time": 87.67272727272727,
                "end_time": 88.06363636363636,
                "pitch": 84,
                "velocity": 64,
                "duration": 0.39090909090909065,
                "tempo": 120.0
            }
        ],
        "Acoustic Bass": [
            {
                "start_time": 0.0,
                "end_time": 0.08636363636363636,
                "pitch": 29,
                "velocity": 80,
                "duration": 0.08636363636363636,
                "tempo": 120.0
            },
            {
                "start_time": 0.09772727272727272,
                "end_time": 0.18636363636363634,
                "pitch": 31,
                "velocity": 80,
                "duration": 0.08863636363636362,
                "tempo": 120.0
            },
            {
                "start_time": 0.19999999999999998,
                "end_time": 0.5068181818181818,
                "pitch": 31,
                "velocity": 80,
                "duration": 0.3068181818181819,
                "tempo": 120.0
            },
            {
                "start_time": 0.525,
                "end_time": 0.8068181818181818,
                "pitch": 29,
                "velocity": 80,
                "duration": 0.28181818181818175,
                "tempo": 120.0
            },
            {
                "start_time": 0.8272727272727273,
                "end_time": 0.959090909090909,
                "pitch": 31,
                "velocity": 80,
                "duration": 0.13181818181818172,
                "tempo": 120.0
            },
            {
                "start_time": 0.9772727272727272,
                "end_time": 1.2363636363636363,
                "pitch": 48,
                "velocity": 80,
                "duration": 0.25909090909090915,
                "tempo": 120.0
            },
            {
                "start_time": 1.2545454545454544,
                "end_time": 1.3704545454545454,
                "pitch": 48,
                "velocity": 80,
                "duration": 0.11590909090909096,
                "tempo": 120.0
            },
            {
                "start_time": 1.3863636363636362,
                "end_time": 1.5045454545454544,
                "pitch": 46,
                "velocity": 80,
                "duration": 0.11818181818181817,
                "tempo": 120.0
            },
            {
                "start_time": 1.6545454545454545,
                "end_time": 1.7704545454545453,
                "pitch": 41,
                "velocity": 80,
                "duration": 0.11590909090909074,
                "tempo": 120.0
            },
            {
                "start_time": 1.7886363636363636,
                "end_time": 1.9045454545454545,
                "pitch": 41,
                "velocity": 80,
                "duration": 0.11590909090909096,
                "tempo": 120.0
            },
            {
                "start_time": 1.9227272727272726,
                "end_time": 2.0386363636363636,
                "pitch": 43,
                "velocity": 80,
                "duration": 0.11590909090909096,
                "tempo": 120.0
            },
            {
                "start_time": 2.0545454545454542,
                "end_time": 2.172727272727273,
                "pitch": 31,
                "velocity": 80,
                "duration": 0.11818181818181861,
                "tempo": 120.0
            },
            {
                "start_time": 2.190909090909091,
                "end_time": 2.309090909090909,
                "pitch": 34,
                "velocity": 80,
                "duration": 0.11818181818181817,
                "tempo": 120.0
            },
            {
                "start_time": 2.3249999999999997,
                "end_time": 2.715909090909091,
                "pitch": 29,
                "velocity": 80,
                "duration": 0.3909090909090911,
                "tempo": 120.0
            },
            {
                "start_time": 2.7318181818181815,
                "end_time": 2.984090909090909,
                "pitch": 31,
                "velocity": 80,
                "duration": 0.2522727272727274,
                "tempo": 120.0
            },
            {
                "start_time": 3.0,
                "end_time": 3.1159090909090907,
                "pitch": 29,
                "velocity": 80,
                "duration": 0.11590909090909074,
                "tempo": 120.0
            },
            {
                "start_time": 3.134090909090909,
                "end_time": 3.25,
                "pitch": 36,
                "velocity": 80,
                "duration": 0.11590909090909118,
                "tempo": 120.0
            },
            {
                "start_time": 3.268181818181818,
                "end_time": 3.3863636363636362,
                "pitch": 48,
                "velocity": 80,
                "duration": 0.11818181818181817,
                "tempo": 120.0
            },
            {
                "start_time": 3.4045454545454543,
                "end_time": 3.5227272727272725,
                "pitch": 36,
                "velocity": 80,
                "duration": 0.11818181818181817,
                "tempo": 120.0
            },
            {
                "start_time": 3.5409090909090906,
                "end_time": 3.6590909090909087,
                "pitch": 36,
                "velocity": 80,
                "duration": 0.11818181818181817,
                "tempo": 120.0
            },
            {
                "start_time": 3.6772727272727272,
                "end_time": 3.793181818181818,
                "pitch": 50,
                "velocity": 80,
                "duration": 0.11590909090909074,
                "tempo": 120.0
            },
            {
                "start_time": 3.811363636363636,
                "end_time": 4.195454545454545,
                "pitch": 48,
                "velocity": 80,
                "duration": 0.38409090909090926,
                "tempo": 120.0
            },
            {
                "start_time": 4.211363636363636,
                "end_time": 4.329545454545454,
                "pitch": 41,
                "velocity": 80,
                "duration": 0.11818181818181817,
                "tempo": 120.0
            },
            {
                "start_time": 4.345454545454546,
                "end_time": 4.465909090909091,
                "pitch": 43,
                "velocity": 80,
                "duration": 0.12045454545454515,
                "tempo": 120.0
            },
            {
                "start_time": 4.4818181818181815,
                "end_time": 4.872727272727272,
                "pitch": 31,
                "velocity": 80,
                "duration": 0.39090909090909065,
                "tempo": 120.0
            },
            {
                "start_time": 4.888636363636364,
                "end_time": 5.138636363636364,
                "pitch": 29,
                "velocity": 80,
                "duration": 0.25,
                "tempo": 120.0
            },
            {
                "start_time": 5.156818181818181,
                "end_time": 5.2727272727272725,
                "pitch": 31,
                "velocity": 80,
                "duration": 0.11590909090909118,
                "tempo": 120.0
            },
            {
                "start_time": 5.290909090909091,
                "end_time": 5.406818181818181,
                "pitch": 34,
                "velocity": 80,
                "duration": 0.1159090909090903,
                "tempo": 120.0
            },
            {
                "start_time": 5.425,
                "end_time": 5.543181818181818,
                "pitch": 48,
                "velocity": 80,
                "duration": 0.11818181818181817,
                "tempo": 120.0
            },
            {
                "start_time": 5.5613636363636365,
                "end_time": 5.679545454545455,
                "pitch": 29,
                "velocity": 80,
                "duration": 0.11818181818181817,
                "tempo": 120.0
            },
            {
                "start_time": 5.697727272727272,
                "end_time": 5.8159090909090905,
                "pitch": 29,
                "velocity": 80,
                "duration": 0.11818181818181817,
                "tempo": 120.0
            },
            {
                "start_time": 5.831818181818181,
                "end_time": 5.949999999999999,
                "pitch": 29,
                "velocity": 80,
                "duration": 0.11818181818181817,
                "tempo": 120.0
            },
            {
                "start_time": 5.965909090909091,
                "end_time": 6.343181818181818,
                "pitch": 31,
                "velocity": 80,
                "duration": 0.377272727272727,
                "tempo": 120.0
            },
            {
                "start_time": 6.361363636363636,
                "end_time": 6.477272727272727,
                "pitch": 41,
                "velocity": 80,
                "duration": 0.1159090909090903,
                "tempo": 120.0
            },
            {
                "start_time": 6.493181818181818,
                "end_time": 6.611363636363636,
                "pitch": 43,
                "velocity": 80,
                "duration": 0.11818181818181817,
                "tempo": 120.0
            },
            {
                "start_time": 6.629545454545454,
                "end_time": 7.0204545454545455,
                "pitch": 31,
                "velocity": 80,
                "duration": 0.39090909090909154,
                "tempo": 120.0
            },
            {
                "start_time": 7.036363636363636,
                "end_time": 7.286363636363636,
                "pitch": 36,
                "velocity": 80,
                "duration": 0.25,
                "tempo": 120.0
            },
            {
                "start_time": 7.304545454545454,
                "end_time": 7.420454545454545,
                "pitch": 34,
                "velocity": 80,
                "duration": 0.11590909090909118,
                "tempo": 120.0
            },
            {
                "start_time": 7.436363636363636,
                "end_time": 7.554545454545454,
                "pitch": 29,
                "velocity": 80,
                "duration": 0.11818181818181817,
                "tempo": 120.0
            },
            {
                "start_time": 7.570454545454545,
                "end_time": 7.6886363636363635,
                "pitch": 31,
                "velocity": 80,
                "duration": 0.11818181818181817,
                "tempo": 120.0
            },
            {
                "start_time": 7.704545454545454,
                "end_time": 7.820454545454545,
                "pitch": 43,
                "velocity": 80,
                "duration": 0.11590909090909118,
                "tempo": 120.0
            },
            {
                "start_time": 7.838636363636363,
                "end_time": 7.954545454545454,
                "pitch": 31,
                "velocity": 80,
                "duration": 0.11590909090909118,
                "tempo": 120.0
            },
            {
                "start_time": 7.972727272727273,
                "end_time": 8.088636363636363,
                "pitch": 46,
                "velocity": 80,
                "duration": 0.1159090909090903,
                "tempo": 120.0
            },
            {
                "start_time": 8.10681818181818,
                "end_time": 8.361363636363636,
                "pitch": 31,
                "velocity": 80,
                "duration": 0.25454545454545574,
                "tempo": 120.0
            },
            {
                "start_time": 8.379545454545454,
                "end_time": 8.634090909090908,
                "pitch": 29,
                "velocity": 80,
                "duration": 0.25454545454545396,
                "tempo": 120.0
            },
            {
                "start_time": 8.65,
                "end_time": 8.768181818181818,
                "pitch": 31,
                "velocity": 80,
                "duration": 0.11818181818181728,
                "tempo": 120.0
            },
            {
                "start_time": 8.786363636363635,
                "end_time": 9.174999999999999,
                "pitch": 31,
                "velocity": 80,
                "duration": 0.38863636363636367,
                "tempo": 120.0
            },
            {
                "start_time": 9.193181818181818,
                "end_time": 9.438636363636363,
                "pitch": 29,
                "velocity": 80,
                "duration": 0.24545454545454426,
                "tempo": 120.0
            },
            {
                "start_time": 9.454545454545453,
                "end_time": 9.568181818181818,
                "pitch": 31,
                "velocity": 80,
                "duration": 0.11363636363636509,
                "tempo": 120.0
            },
            {
                "start_time": 9.586363636363636,
                "end_time": 9.834090909090909,
                "pitch": 48,
                "velocity": 80,
                "duration": 0.24772727272727302,
                "tempo": 120.0
            },
            {
                "start_time": 9.852272727272727,
                "end_time": 9.968181818181817,
                "pitch": 48,
                "velocity": 80,
                "duration": 0.1159090909090903,
                "tempo": 120.0
            },
            {
                "start_time": 9.986363636363636,
                "end_time": 10.102272727272727,
                "pitch": 46,
                "velocity": 80,
                "duration": 0.1159090909090903,
                "tempo": 120.0
            },
            {
                "start_time": 10.252272727272727,
                "end_time": 10.370454545454544,
                "pitch": 41,
                "velocity": 80,
                "duration": 0.11818181818181728,
                "tempo": 120.0
            },
            {
                "start_time": 10.386363636363637,
                "end_time": 10.502272727272727,
                "pitch": 41,
                "velocity": 80,
                "duration": 0.1159090909090903,
                "tempo": 120.0
            },
            {
                "start_time": 10.520454545454545,
                "end_time": 10.636363636363637,
                "pitch": 43,
                "velocity": 80,
                "duration": 0.11590909090909207,
                "tempo": 120.0
            },
            {
                "start_time": 10.654545454545454,
                "end_time": 10.772727272727272,
                "pitch": 31,
                "velocity": 80,
                "duration": 0.11818181818181728,
                "tempo": 120.0
            },
            {
                "start_time": 10.788636363636362,
                "end_time": 10.909090909090908,
                "pitch": 34,
                "velocity": 80,
                "duration": 0.12045454545454604,
                "tempo": 120.0
            },
            {
                "start_time": 10.927272727272726,
                "end_time": 11.325,
                "pitch": 29,
                "velocity": 80,
                "duration": 0.3977272727272734,
                "tempo": 120.0
            },
            {
                "start_time": 11.34090909090909,
                "end_time": 11.59090909090909,
                "pitch": 31,
                "velocity": 80,
                "duration": 0.25,
                "tempo": 120.0
            },
            {
                "start_time": 11.60909090909091,
                "end_time": 11.725,
                "pitch": 29,
                "velocity": 80,
                "duration": 0.1159090909090903,
                "tempo": 120.0
            },
            {
                "start_time": 11.743181818181817,
                "end_time": 11.85909090909091,
                "pitch": 36,
                "velocity": 80,
                "duration": 0.11590909090909207,
                "tempo": 120.0
            },
            {
                "start_time": 11.875,
                "end_time": 11.993181818181817,
                "pitch": 48,
                "velocity": 80,
                "duration": 0.11818181818181728,
                "tempo": 120.0
            },
            {
                "start_time": 12.009090909090908,
                "end_time": 12.125,
                "pitch": 36,
                "velocity": 80,
                "duration": 0.11590909090909207,
                "tempo": 120.0
            },
            {
                "start_time": 12.143181818181818,
                "end_time": 12.259090909090908,
                "pitch": 36,
                "velocity": 80,
                "duration": 0.1159090909090903,
                "tempo": 120.0
            },
            {
                "start_time": 12.277272727272727,
                "end_time": 12.393181818181818,
                "pitch": 50,
                "velocity": 80,
                "duration": 0.1159090909090903,
                "tempo": 120.0
            },
            {
                "start_time": 12.409090909090908,
                "end_time": 12.793181818181818,
                "pitch": 48,
                "velocity": 80,
                "duration": 0.3840909090909097,
                "tempo": 120.0
            },
            {
                "start_time": 12.811363636363636,
                "end_time": 12.927272727272726,
                "pitch": 41,
                "velocity": 80,
                "duration": 0.1159090909090903,
                "tempo": 120.0
            },
            {
                "start_time": 12.943181818181818,
                "end_time": 13.061363636363636,
                "pitch": 43,
                "velocity": 80,
                "duration": 0.11818181818181728,
                "tempo": 120.0
            },
            {
                "start_time": 13.077272727272726,
                "end_time": 13.461363636363636,
                "pitch": 31,
                "velocity": 80,
                "duration": 0.3840909090909097,
                "tempo": 120.0
            },
            {
                "start_time": 13.479545454545454,
                "end_time": 13.734090909090908,
                "pitch": 29,
                "velocity": 80,
                "duration": 0.25454545454545396,
                "tempo": 120.0
            },
            {
                "start_time": 13.752272727272727,
                "end_time": 13.870454545454544,
                "pitch": 31,
                "velocity": 80,
                "duration": 0.11818181818181728,
                "tempo": 120.0
            },
            {
                "start_time": 13.888636363636364,
                "end_time": 14.004545454545454,
                "pitch": 34,
                "velocity": 80,
                "duration": 0.1159090909090903,
                "tempo": 120.0
            },
            {
                "start_time": 14.022727272727272,
                "end_time": 14.138636363636364,
                "pitch": 48,
                "velocity": 80,
                "duration": 0.11590909090909207,
                "tempo": 120.0
            },
            {
                "start_time": 14.156818181818181,
                "end_time": 14.272727272727272,
                "pitch": 29,
                "velocity": 80,
                "duration": 0.1159090909090903,
                "tempo": 120.0
            },
            {
                "start_time": 14.288636363636362,
                "end_time": 14.406818181818181,
                "pitch": 29,
                "velocity": 80,
                "duration": 0.11818181818181905,
                "tempo": 120.0
            },
            {
                "start_time": 14.422727272727272,
                "end_time": 14.540909090909091,
                "pitch": 29,
                "velocity": 80,
                "duration": 0.11818181818181905,
                "tempo": 120.0
            },
            {
                "start_time": 14.556818181818182,
                "end_time": 14.94090909090909,
                "pitch": 31,
                "velocity": 80,
                "duration": 0.38409090909090793,
                "tempo": 120.0
            },
            {
                "start_time": 14.95681818181818,
                "end_time": 15.075,
                "pitch": 41,
                "velocity": 80,
                "duration": 0.11818181818181905,
                "tempo": 120.0
            },
            {
                "start_time": 15.093181818181817,
                "end_time": 15.211363636363636,
                "pitch": 43,
                "velocity": 80,
                "duration": 0.11818181818181905,
                "tempo": 120.0
            },
            {
                "start_time": 15.229545454545454,
                "end_time": 15.618181818181817,
                "pitch": 31,
                "velocity": 80,
                "duration": 0.38863636363636367,
                "tempo": 120.0
            },
            {
                "start_time": 15.636363636363635,
                "end_time": 15.886363636363635,
                "pitch": 36,
                "velocity": 80,
                "duration": 0.25,
                "tempo": 120.0
            },
            {
                "start_time": 15.902272727272727,
                "end_time": 16.018181818181816,
                "pitch": 34,
                "velocity": 80,
                "duration": 0.11590909090908852,
                "tempo": 120.0
            },
            {
                "start_time": 16.036363636363635,
                "end_time": 16.154545454545453,
                "pitch": 29,
                "velocity": 80,
                "duration": 0.11818181818181728,
                "tempo": 120.0
            },
            {
                "start_time": 16.170454545454543,
                "end_time": 16.288636363636364,
                "pitch": 31,
                "velocity": 80,
                "duration": 0.11818181818182083,
                "tempo": 120.0
            },
            {
                "start_time": 16.30681818181818,
                "end_time": 16.425,
                "pitch": 43,
                "velocity": 80,
                "duration": 0.11818181818182083,
                "tempo": 120.0
            },
            {
                "start_time": 16.443181818181817,
                "end_time": 16.561363636363634,
                "pitch": 31,
                "velocity": 80,
                "duration": 0.11818181818181728,
                "tempo": 120.0
            },
            {
                "start_time": 16.579545454545453,
                "end_time": 16.69772727272727,
                "pitch": 46,
                "velocity": 80,
                "duration": 0.11818181818181728,
                "tempo": 120.0
            },
            {
                "start_time": 16.71363636363636,
                "end_time": 16.96363636363636,
                "pitch": 31,
                "velocity": 80,
                "duration": 0.25,
                "tempo": 120.0
            },
            {
                "start_time": 16.98181818181818,
                "end_time": 17.23181818181818,
                "pitch": 39,
                "velocity": 80,
                "duration": 0.25,
                "tempo": 120.0
            },
            {
                "start_time": 17.25,
                "end_time": 17.370454545454546,
                "pitch": 41,
                "velocity": 80,
                "duration": 0.12045454545454604,
                "tempo": 120.0
            },
            {
                "start_time": 17.388636363636362,
                "end_time": 17.784090909090907,
                "pitch": 32,
                "velocity": 80,
                "duration": 0.3954545454545446,
                "tempo": 120.0
            },
            {
                "start_time": 17.8,
                "end_time": 18.045454545454543,
                "pitch": 39,
                "velocity": 80,
                "duration": 0.24545454545454248,
                "tempo": 120.0
            },
            {
                "start_time": 18.063636363636363,
                "end_time": 18.177272727272726,
                "pitch": 38,
                "velocity": 80,
                "duration": 0.11363636363636331,
                "tempo": 120.0
            },
            {
                "start_time": 18.327272727272728,
                "end_time": 18.443181818181817,
                "pitch": 29,
                "velocity": 80,
                "duration": 0.11590909090908852,
                "tempo": 120.0
            },
            {
                "start_time": 18.459090909090907,
                "end_time": 18.577272727272728,
                "pitch": 41,
                "velocity": 80,
                "duration": 0.11818181818182083,
                "tempo": 120.0
            },
            {
                "start_time": 18.59318181818182,
                "end_time": 18.711363636363636,
                "pitch": 29,
                "velocity": 80,
                "duration": 0.11818181818181728,
                "tempo": 120.0
            },
            {
                "start_time": 18.727272727272727,
                "end_time": 18.84318181818182,
                "pitch": 31,
                "velocity": 80,
                "duration": 0.11590909090909207,
                "tempo": 120.0
            },
            {
                "start_time": 18.861363636363635,
                "end_time": 19.111363636363635,
                "pitch": 43,
                "velocity": 80,
                "duration": 0.25,
                "tempo": 120.0
            },
            {
                "start_time": 19.129545454545454,
                "end_time": 19.245454545454546,
                "pitch": 31,
                "velocity": 80,
                "duration": 0.11590909090909207,
                "tempo": 120.0
            },
            {
                "start_time": 19.261363636363637,
                "end_time": 19.379545454545454,
                "pitch": 43,
                "velocity": 80,
                "duration": 0.11818181818181728,
                "tempo": 120.0
            },
            {
                "start_time": 19.397727272727273,
                "end_time": 19.518181818181816,
                "pitch": 44,
                "velocity": 80,
                "duration": 0.12045454545454248,
                "tempo": 120.0
            },
            {
                "start_time": 19.536363636363635,
                "end_time": 19.93181818181818,
                "pitch": 32,
                "velocity": 80,
                "duration": 0.3954545454545446,
                "tempo": 120.0
            },
            {
                "start_time": 19.94772727272727,
                "end_time": 20.193181818181817,
                "pitch": 32,
                "velocity": 80,
                "duration": 0.24545454545454604,
                "tempo": 120.0
            },
            {
                "start_time": 20.211363636363636,
                "end_time": 20.325,
                "pitch": 32,
                "velocity": 80,
                "duration": 0.11363636363636331,
                "tempo": 120.0
            },
            {
                "start_time": 20.474999999999998,
                "end_time": 20.59318181818182,
                "pitch": 29,
                "velocity": 80,
                "duration": 0.11818181818182083,
                "tempo": 120.0
            },
            {
                "start_time": 20.611363636363635,
                "end_time": 20.729545454545452,
                "pitch": 41,
                "velocity": 80,
                "duration": 0.11818181818181728,
                "tempo": 120.0
            },
            {
                "start_time": 20.74772727272727,
                "end_time": 20.86590909090909,
                "pitch": 29,
                "velocity": 80,
                "duration": 0.11818181818181728,
                "tempo": 120.0
            },
            {
                "start_time": 20.88181818181818,
                "end_time": 21.0,
                "pitch": 46,
                "velocity": 80,
                "duration": 0.11818181818182083,
                "tempo": 120.0
            },
            {
                "start_time": 21.018181818181816,
                "end_time": 21.268181818181816,
                "pitch": 41,
                "velocity": 80,
                "duration": 0.25,
                "tempo": 120.0
            },
            {
                "start_time": 21.284090909090907,
                "end_time": 21.402272727272727,
                "pitch": 34,
                "velocity": 80,
                "duration": 0.11818181818182083,
                "tempo": 120.0
            },
            {
                "start_time": 21.418181818181818,
                "end_time": 21.536363636363635,
                "pitch": 31,
                "velocity": 80,
                "duration": 0.11818181818181728,
                "tempo": 120.0
            },
            {
                "start_time": 21.552272727272726,
                "end_time": 21.672727272727272,
                "pitch": 43,
                "velocity": 80,
                "duration": 0.12045454545454604,
                "tempo": 120.0
            },
            {
                "start_time": 21.688636363636363,
                "end_time": 22.077272727272724,
                "pitch": 31,
                "velocity": 80,
                "duration": 0.3886363636363619,
                "tempo": 120.0
            },
            {
                "start_time": 22.095454545454544,
                "end_time": 22.34090909090909,
                "pitch": 29,
                "velocity": 80,
                "duration": 0.24545454545454604,
                "tempo": 120.0
            },
            {
                "start_time": 22.35681818181818,
                "end_time": 22.472727272727273,
                "pitch": 43,
                "velocity": 80,
                "duration": 0.11590909090909207,
                "tempo": 120.0
            },
            {
                "start_time": 22.488636363636363,
                "end_time": 22.604545454545452,
                "pitch": 36,
                "velocity": 80,
                "duration": 0.11590909090908852,
                "tempo": 120.0
            },
            {
                "start_time": 22.62272727272727,
                "end_time": 22.743181818181817,
                "pitch": 43,
                "velocity": 80,
                "duration": 0.12045454545454604,
                "tempo": 120.0
            },
            {
                "start_time": 22.761363636363637,
                "end_time": 22.88181818181818,
                "pitch": 46,
                "velocity": 80,
                "duration": 0.12045454545454248,
                "tempo": 120.0
            },
            {
                "start_time": 22.9,
                "end_time": 23.020454545454545,
                "pitch": 48,
                "velocity": 80,
                "duration": 0.12045454545454604,
                "tempo": 120.0
            },
            {
                "start_time": 23.038636363636364,
                "end_time": 23.15681818181818,
                "pitch": 29,
                "velocity": 80,
                "duration": 0.11818181818181728,
                "tempo": 120.0
            },
            {
                "start_time": 23.172727272727272,
                "end_time": 23.418181818181818,
                "pitch": 29,
                "velocity": 80,
                "duration": 0.24545454545454604,
                "tempo": 120.0
            },
            {
                "start_time": 23.436363636363634,
                "end_time": 23.549999999999997,
                "pitch": 31,
                "velocity": 80,
                "duration": 0.11363636363636331,
                "tempo": 120.0
            },
            {
                "start_time": 23.568181818181817,
                "end_time": 23.68181818181818,
                "pitch": 31,
                "velocity": 80,
                "duration": 0.11363636363636331,
                "tempo": 120.0
            },
            {
                "start_time": 23.7,
                "end_time": 23.81590909090909,
                "pitch": 31,
                "velocity": 80,
                "duration": 0.11590909090909207,
                "tempo": 120.0
            },
            {
                "start_time": 23.834090909090907,
                "end_time": 24.21818181818182,
                "pitch": 29,
                "velocity": 80,
                "duration": 0.3840909090909115,
                "tempo": 120.0
            },
            {
                "start_time": 24.23409090909091,
                "end_time": 24.488636363636363,
                "pitch": 34,
                "velocity": 80,
                "duration": 0.25454545454545396,
                "tempo": 120.0
            },
            {
                "start_time": 24.50681818181818,
                "end_time": 24.625,
                "pitch": 29,
                "velocity": 80,
                "duration": 0.11818181818182083,
                "tempo": 120.0
            },
            {
                "start_time": 24.643181818181816,
                "end_time": 24.761363636363637,
                "pitch": 34,
                "velocity": 80,
                "duration": 0.11818181818182083,
                "tempo": 120.0
            },
            {
                "start_time": 24.779545454545453,
                "end_time": 24.89772727272727,
                "pitch": 48,
                "velocity": 80,
                "duration": 0.11818181818181728,
                "tempo": 120.0
            },
            {
                "start_time": 24.91590909090909,
                "end_time": 25.034090909090907,
                "pitch": 38,
                "velocity": 80,
                "duration": 0.11818181818181728,
                "tempo": 120.0
            },
            {
                "start_time": 25.049999999999997,
                "end_time": 25.170454545454543,
                "pitch": 29,
                "velocity": 80,
                "duration": 0.12045454545454604,
                "tempo": 120.0
            },
            {
                "start_time": 25.186363636363634,
                "end_time": 25.304545454545455,
                "pitch": 41,
                "velocity": 80,
                "duration": 0.11818181818182083,
                "tempo": 120.0
            },
            {
                "start_time": 25.320454545454545,
                "end_time": 25.56590909090909,
                "pitch": 43,
                "velocity": 80,
                "duration": 0.24545454545454604,
                "tempo": 120.0
            },
            {
                "start_time": 25.584090909090907,
                "end_time": 25.831818181818182,
                "pitch": 39,
                "velocity": 80,
                "duration": 0.2477272727272748,
                "tempo": 120.0
            },
            {
                "start_time": 25.847727272727273,
                "end_time": 25.968181818181815,
                "pitch": 41,
                "velocity": 80,
                "duration": 0.12045454545454248,
                "tempo": 120.0
            },
            {
                "start_time": 25.986363636363635,
                "end_time": 26.38181818181818,
                "pitch": 32,
                "velocity": 80,
                "duration": 0.3954545454545446,
                "tempo": 120.0
            },
            {
                "start_time": 26.4,
                "end_time": 26.645454545454545,
                "pitch": 39,
                "velocity": 80,
                "duration": 0.24545454545454604,
                "tempo": 120.0
            },
            {
                "start_time": 26.661363636363635,
                "end_time": 26.775,
                "pitch": 38,
                "velocity": 80,
                "duration": 0.11363636363636331,
                "tempo": 120.0
            },
            {
                "start_time": 26.924999999999997,
                "end_time": 27.04090909090909,
                "pitch": 29,
                "velocity": 80,
                "duration": 0.11590909090909207,
                "tempo": 120.0
            },
            {
                "start_time": 27.05909090909091,
                "end_time": 27.174999999999997,
                "pitch": 41,
                "velocity": 80,
                "duration": 0.11590909090908852,
                "tempo": 120.0
            },
            {
                "start_time": 27.193181818181817,
                "end_time": 27.30909090909091,
                "pitch": 29,
                "velocity": 80,
                "duration": 0.11590909090909207,
                "tempo": 120.0
            },
            {
                "start_time": 27.327272727272724,
                "end_time": 27.443181818181817,
                "pitch": 31,
                "velocity": 80,
                "duration": 0.11590909090909207,
                "tempo": 120.0
            },
            {
                "start_time": 27.461363636363636,
                "end_time": 27.71590909090909,
                "pitch": 43,
                "velocity": 80,
                "duration": 0.25454545454545396,
                "tempo": 120.0
            },
            {
                "start_time": 27.73409090909091,
                "end_time": 27.852272727272727,
                "pitch": 31,
                "velocity": 80,
                "duration": 0.11818181818181728,
                "tempo": 120.0
            },
            {
                "start_time": 27.868181818181817,
                "end_time": 27.988636363636363,
                "pitch": 43,
                "velocity": 80,
                "duration": 0.12045454545454604,
                "tempo": 120.0
            },
            {
                "start_time": 28.004545454545454,
                "end_time": 28.127272727272725,
                "pitch": 44,
                "velocity": 80,
                "duration": 0.12272727272727124,
                "tempo": 120.0
            },
            {
                "start_time": 28.143181818181816,
                "end_time": 28.538636363636364,
                "pitch": 32,
                "velocity": 80,
                "duration": 0.39545454545454817,
                "tempo": 120.0
            },
            {
                "start_time": 28.554545454545455,
                "end_time": 28.795454545454543,
                "pitch": 32,
                "velocity": 80,
                "duration": 0.24090909090908852,
                "tempo": 120.0
            },
            {
                "start_time": 28.813636363636363,
                "end_time": 28.924999999999997,
                "pitch": 32,
                "velocity": 80,
                "duration": 0.11136363636363455,
                "tempo": 120.0
            },
            {
                "start_time": 29.075,
                "end_time": 29.193181818181817,
                "pitch": 29,
                "velocity": 80,
                "duration": 0.11818181818181728,
                "tempo": 120.0
            },
            {
                "start_time": 29.209090909090907,
                "end_time": 29.329545454545453,
                "pitch": 41,
                "velocity": 80,
                "duration": 0.12045454545454604,
                "tempo": 120.0
            },
            {
                "start_time": 29.345454545454544,
                "end_time": 29.46363636363636,
                "pitch": 29,
                "velocity": 80,
                "duration": 0.11818181818181728,
                "tempo": 120.0
            },
            {
                "start_time": 29.48181818181818,
                "end_time": 29.599999999999998,
                "pitch": 46,
                "velocity": 80,
                "duration": 0.11818181818181728,
                "tempo": 120.0
            },
            {
                "start_time": 29.61590909090909,
                "end_time": 29.868181818181817,
                "pitch": 41,
                "velocity": 80,
                "duration": 0.25227272727272876,
                "tempo": 120.0
            },
            {
                "start_time": 29.884090909090908,
                "end_time": 30.0,
                "pitch": 34,
                "velocity": 80,
                "duration": 0.11590909090909207,
                "tempo": 120.0
            },
            {
                "start_time": 30.018181818181816,
                "end_time": 30.13181818181818,
                "pitch": 31,
                "velocity": 80,
                "duration": 0.11363636363636331,
                "tempo": 120.0
            },
            {
                "start_time": 30.14772727272727,
                "end_time": 30.261363636363633,
                "pitch": 43,
                "velocity": 80,
                "duration": 0.11363636363636331,
                "tempo": 120.0
            },
            {
                "start_time": 30.277272727272727,
                "end_time": 30.652272727272727,
                "pitch": 31,
                "velocity": 80,
                "duration": 0.375,
                "tempo": 120.0
            },
            {
                "start_time": 30.670454545454543,
                "end_time": 30.93409090909091,
                "pitch": 29,
                "velocity": 80,
                "duration": 0.26363636363636545,
                "tempo": 120.0
            },
            {
                "start_time": 30.952272727272724,
                "end_time": 31.075,
                "pitch": 43,
                "velocity": 80,
                "duration": 0.1227272727272748,
                "tempo": 120.0
            },
            {
                "start_time": 31.093181818181815,
                "end_time": 31.21590909090909,
                "pitch": 36,
                "velocity": 80,
                "duration": 0.1227272727272748,
                "tempo": 120.0
            },
            {
                "start_time": 31.23181818181818,
                "end_time": 31.349999999999998,
                "pitch": 43,
                "velocity": 80,
                "duration": 0.11818181818181728,
                "tempo": 120.0
            },
            {
                "start_time": 31.368181818181817,
                "end_time": 31.486363636363635,
                "pitch": 46,
                "velocity": 80,
                "duration": 0.11818181818181728,
                "tempo": 120.0
            },
            {
                "start_time": 31.504545454545454,
                "end_time": 31.62272727272727,
                "pitch": 48,
                "velocity": 80,
                "duration": 0.11818181818181728,
                "tempo": 120.0
            },
            {
                "start_time": 31.64090909090909,
                "end_time": 31.75681818181818,
                "pitch": 29,
                "velocity": 80,
                "duration": 0.11590909090908852,
                "tempo": 120.0
            },
            {
                "start_time": 31.77272727272727,
                "end_time": 32.02045454545454,
                "pitch": 29,
                "velocity": 80,
                "duration": 0.24772727272727124,
                "tempo": 120.0
            },
            {
                "start_time": 32.03636363636363,
                "end_time": 32.15,
                "pitch": 31,
                "velocity": 80,
                "duration": 0.11363636363636687,
                "tempo": 120.0
            },
            {
                "start_time": 32.168181818181814,
                "end_time": 32.28409090909091,
                "pitch": 31,
                "velocity": 80,
                "duration": 0.11590909090909207,
                "tempo": 120.0
            },
            {
                "start_time": 32.3,
                "end_time": 32.684090909090905,
                "pitch": 43,
                "velocity": 80,
                "duration": 0.38409090909090793,
                "tempo": 120.0
            },
            {
                "start_time": 32.699999999999996,
                "end_time": 32.81818181818182,
                "pitch": 33,
                "velocity": 80,
                "duration": 0.11818181818182438,
                "tempo": 120.0
            },
            {
                "start_time": 32.83409090909091,
                "end_time": 33.21818181818182,
                "pitch": 45,
                "velocity": 80,
                "duration": 0.38409090909090793,
                "tempo": 120.0
            },
            {
                "start_time": 33.236363636363635,
                "end_time": 33.35227272727273,
                "pitch": 34,
                "velocity": 80,
                "duration": 0.11590909090909207,
                "tempo": 120.0
            },
            {
                "start_time": 33.37045454545454,
                "end_time": 33.76136363636363,
                "pitch": 46,
                "velocity": 80,
                "duration": 0.39090909090909065,
                "tempo": 120.0
            },
            {
                "start_time": 33.777272727272724,
                "end_time": 33.89545454545454,
                "pitch": 48,
                "velocity": 80,
                "duration": 0.11818181818181728,
                "tempo": 120.0
            },
            {
                "start_time": 33.913636363636364,
                "end_time": 34.29772727272727,
                "pitch": 31,
                "velocity": 80,
                "duration": 0.38409090909090793,
                "tempo": 120.0
            },
            {
                "start_time": 34.31363636363636,
                "end_time": 34.43181818181818,
                "pitch": 36,
                "velocity": 80,
                "duration": 0.11818181818181728,
                "tempo": 120.0
            },
            {
                "start_time": 34.44772727272727,
                "end_time": 34.56818181818181,
                "pitch": 38,
                "velocity": 80,
                "duration": 0.12045454545454248,
                "tempo": 120.0
            },
            {
                "start_time": 34.58409090909091,
                "end_time": 34.70227272727273,
                "pitch": 31,
                "velocity": 80,
                "duration": 0.11818181818181728,
                "tempo": 120.0
            },
            {
                "start_time": 34.720454545454544,
                "end_time": 34.975,
                "pitch": 34,
                "velocity": 80,
                "duration": 0.2545454545454575,
                "tempo": 120.0
            },
            {
                "start_time": 34.99090909090909,
                "end_time": 35.10681818181818,
                "pitch": 34,
                "velocity": 80,
                "duration": 0.11590909090908497,
                "tempo": 120.0
            },
            {
                "start_time": 35.125,
                "end_time": 35.64545454545454,
                "pitch": 31,
                "velocity": 80,
                "duration": 0.5204545454545411,
                "tempo": 120.0
            },
            {
                "start_time": 35.663636363636364,
                "end_time": 35.78181818181818,
                "pitch": 31,
                "velocity": 80,
                "duration": 0.11818181818181728,
                "tempo": 120.0
            },
            {
                "start_time": 35.79772727272727,
                "end_time": 35.918181818181814,
                "pitch": 31,
                "velocity": 80,
                "duration": 0.12045454545454248,
                "tempo": 120.0
            },
            {
                "start_time": 35.934090909090905,
                "end_time": 36.05227272727272,
                "pitch": 39,
                "velocity": 80,
                "duration": 0.11818181818181728,
                "tempo": 120.0
            },
            {
                "start_time": 36.070454545454545,
                "end_time": 36.18636363636364,
                "pitch": 31,
                "velocity": 80,
                "duration": 0.11590909090909207,
                "tempo": 120.0
            },
            {
                "start_time": 36.336363636363636,
                "end_time": 36.45227272727273,
                "pitch": 38,
                "velocity": 80,
                "duration": 0.11590909090909207,
                "tempo": 120.0
            },
            {
                "start_time": 36.470454545454544,
                "end_time": 36.58863636363636,
                "pitch": 39,
                "velocity": 80,
                "duration": 0.11818181818181728,
                "tempo": 120.0
            },
            {
                "start_time": 36.60454545454545,
                "end_time": 36.72272727272727,
                "pitch": 31,
                "velocity": 80,
                "duration": 0.11818181818181728,
                "tempo": 120.0
            },
            {
                "start_time": 36.74090909090909,
                "end_time": 36.85909090909091,
                "pitch": 31,
                "velocity": 80,
                "duration": 0.11818181818181728,
                "tempo": 120.0
            },
            {
                "start_time": 36.877272727272725,
                "end_time": 36.99545454545454,
                "pitch": 31,
                "velocity": 80,
                "duration": 0.11818181818181728,
                "tempo": 120.0
            },
            {
                "start_time": 37.01363636363636,
                "end_time": 37.13181818181818,
                "pitch": 34,
                "velocity": 80,
                "duration": 0.11818181818182438,
                "tempo": 120.0
            },
            {
                "start_time": 37.14772727272727,
                "end_time": 37.26363636363636,
                "pitch": 31,
                "velocity": 80,
                "duration": 0.11590909090908497,
                "tempo": 120.0
            },
            {
                "start_time": 37.81590909090909,
                "end_time": 37.93181818181818,
                "pitch": 31,
                "velocity": 80,
                "duration": 0.11590909090909207,
                "tempo": 120.0
            },
            {
                "start_time": 37.949999999999996,
                "end_time": 38.06590909090909,
                "pitch": 31,
                "velocity": 80,
                "duration": 0.11590909090909207,
                "tempo": 120.0
            },
            {
                "start_time": 38.08409090909091,
                "end_time": 38.199999999999996,
                "pitch": 39,
                "velocity": 80,
                "duration": 0.11590909090908497,
                "tempo": 120.0
            },
            {
                "start_time": 38.215909090909086,
                "end_time": 38.6,
                "pitch": 31,
                "velocity": 80,
                "duration": 0.38409090909091503,
                "tempo": 120.0
            },
            {
                "start_time": 38.61818181818182,
                "end_time": 38.73409090909091,
                "pitch": 41,
                "velocity": 80,
                "duration": 0.11590909090909207,
                "tempo": 120.0
            },
            {
                "start_time": 38.75,
                "end_time": 38.86818181818182,
                "pitch": 42,
                "velocity": 80,
                "duration": 0.11818181818181728,
                "tempo": 120.0
            },
            {
                "start_time": 38.88409090909091,
                "end_time": 39.002272727272725,
                "pitch": 30,
                "velocity": 80,
                "duration": 0.11818181818181728,
                "tempo": 120.0
            },
            {
                "start_time": 39.018181818181816,
                "end_time": 39.268181818181816,
                "pitch": 37,
                "velocity": 80,
                "duration": 0.25,
                "tempo": 120.0
            },
            {
                "start_time": 39.28636363636363,
                "end_time": 39.404545454545456,
                "pitch": 37,
                "velocity": 80,
                "duration": 0.11818181818182438,
                "tempo": 120.0
            },
            {
                "start_time": 39.42272727272727,
                "end_time": 39.949999999999996,
                "pitch": 30,
                "velocity": 80,
                "duration": 0.5272727272727238,
                "tempo": 120.0
            },
            {
                "start_time": 39.965909090909086,
                "end_time": 40.086363636363636,
                "pitch": 30,
                "velocity": 80,
                "duration": 0.12045454545454959,
                "tempo": 120.0
            },
            {
                "start_time": 40.10227272727273,
                "end_time": 40.220454545454544,
                "pitch": 30,
                "velocity": 80,
                "duration": 0.11818181818181728,
                "tempo": 120.0
            },
            {
                "start_time": 40.23863636363636,
                "end_time": 40.35681818181818,
                "pitch": 42,
                "velocity": 80,
                "duration": 0.11818181818181728,
                "tempo": 120.0
            },
            {
                "start_time": 40.37272727272727,
                "end_time": 40.49090909090909,
                "pitch": 30,
                "velocity": 80,
                "duration": 0.11818181818182438,
                "tempo": 120.0
            },
            {
                "start_time": 40.64090909090909,
                "end_time": 40.75681818181818,
                "pitch": 41,
                "velocity": 80,
                "duration": 0.11590909090909207,
                "tempo": 120.0
            },
            {
                "start_time": 40.775,
                "end_time": 40.89090909090909,
                "pitch": 42,
                "velocity": 80,
                "duration": 0.11590909090909207,
                "tempo": 120.0
            },
            {
                "start_time": 40.90909090909091,
                "end_time": 41.027272727272724,
                "pitch": 30,
                "velocity": 80,
                "duration": 0.11818181818181728,
                "tempo": 120.0
            },
            {
                "start_time": 41.04545454545455,
                "end_time": 41.163636363636364,
                "pitch": 30,
                "velocity": 80,
                "duration": 0.11818181818181728,
                "tempo": 120.0
            },
            {
                "start_time": 41.18181818181818,
                "end_time": 41.3,
                "pitch": 30,
                "velocity": 80,
                "duration": 0.11818181818181728,
                "tempo": 120.0
            },
            {
                "start_time": 41.31590909090909,
                "end_time": 41.434090909090905,
                "pitch": 37,
                "velocity": 80,
                "duration": 0.11818181818181728,
                "tempo": 120.0
            },
            {
                "start_time": 41.449999999999996,
                "end_time": 41.56590909090909,
                "pitch": 30,
                "velocity": 80,
                "duration": 0.11590909090909207,
                "tempo": 120.0
            },
            {
                "start_time": 42.111363636363635,
                "end_time": 42.22727272727273,
                "pitch": 30,
                "velocity": 80,
                "duration": 0.11590909090909207,
                "tempo": 120.0
            },
            {
                "start_time": 42.24318181818182,
                "end_time": 42.361363636363635,
                "pitch": 30,
                "velocity": 80,
                "duration": 0.11818181818181728,
                "tempo": 120.0
            },
            {
                "start_time": 42.377272727272725,
                "end_time": 42.49545454545454,
                "pitch": 42,
                "velocity": 80,
                "duration": 0.11818181818181728,
                "tempo": 120.0
            },
            {
                "start_time": 42.51136363636363,
                "end_time": 42.902272727272724,
                "pitch": 30,
                "velocity": 80,
                "duration": 0.39090909090909065,
                "tempo": 120.0
            },
            {
                "start_time": 42.92045454545455,
                "end_time": 43.038636363636364,
                "pitch": 36,
                "velocity": 80,
                "duration": 0.11818181818181728,
                "tempo": 120.0
            },
            {
                "start_time": 43.054545454545455,
                "end_time": 43.17272727272727,
                "pitch": 38,
                "velocity": 80,
                "duration": 0.11818181818181728,
                "tempo": 120.0
            },
            {
                "start_time": 43.18863636363636,
                "end_time": 43.304545454545455,
                "pitch": 31,
                "velocity": 80,
                "duration": 0.11590909090909207,
                "tempo": 120.0
            },
            {
                "start_time": 43.32272727272727,
                "end_time": 43.57272727272727,
                "pitch": 34,
                "velocity": 80,
                "duration": 0.25,
                "tempo": 120.0
            },
            {
                "start_time": 43.590909090909086,
                "end_time": 43.709090909090904,
                "pitch": 34,
                "velocity": 80,
                "duration": 0.11818181818181728,
                "tempo": 120.0
            },
            {
                "start_time": 43.72727272727273,
                "end_time": 44.252272727272725,
                "pitch": 31,
                "velocity": 80,
                "duration": 0.5249999999999986,
                "tempo": 120.0
            },
            {
                "start_time": 44.27045454545454,
                "end_time": 44.38863636363636,
                "pitch": 31,
                "velocity": 80,
                "duration": 0.11818181818181728,
                "tempo": 120.0
            },
            {
                "start_time": 44.40681818181818,
                "end_time": 44.525,
                "pitch": 31,
                "velocity": 80,
                "duration": 0.11818181818181728,
                "tempo": 120.0
            },
            {
                "start_time": 44.543181818181814,
                "end_time": 44.66136363636363,
                "pitch": 39,
                "velocity": 80,
                "duration": 0.11818181818181728,
                "tempo": 120.0
            },
            {
                "start_time": 44.67727272727272,
                "end_time": 44.793181818181814,
                "pitch": 31,
                "velocity": 80,
                "duration": 0.11590909090909207,
                "tempo": 120.0
            },
            {
                "start_time": 44.945454545454545,
                "end_time": 45.06136363636364,
                "pitch": 38,
                "velocity": 80,
                "duration": 0.11590909090909207,
                "tempo": 120.0
            },
            {
                "start_time": 45.07954545454545,
                "end_time": 45.195454545454545,
                "pitch": 39,
                "velocity": 80,
                "duration": 0.11590909090909207,
                "tempo": 120.0
            },
            {
                "start_time": 45.211363636363636,
                "end_time": 45.32954545454545,
                "pitch": 31,
                "velocity": 80,
                "duration": 0.11818181818181728,
                "tempo": 120.0
            },
            {
                "start_time": 45.345454545454544,
                "end_time": 45.461363636363636,
                "pitch": 31,
                "velocity": 80,
                "duration": 0.11590909090909207,
                "tempo": 120.0
            },
            {
                "start_time": 45.47954545454545,
                "end_time": 45.595454545454544,
                "pitch": 31,
                "velocity": 80,
                "duration": 0.11590909090909207,
                "tempo": 120.0
            },
            {
                "start_time": 45.61363636363636,
                "end_time": 45.72954545454545,
                "pitch": 34,
                "velocity": 80,
                "duration": 0.11590909090909207,
                "tempo": 120.0
            },
            {
                "start_time": 45.74545454545454,
                "end_time": 45.86363636363636,
                "pitch": 31,
                "velocity": 80,
                "duration": 0.11818181818181728,
                "tempo": 120.0
            },
            {
                "start_time": 46.413636363636364,
                "end_time": 46.53181818181818,
                "pitch": 31,
                "velocity": 80,
                "duration": 0.11818181818181728,
                "tempo": 120.0
            },
            {
                "start_time": 46.54772727272727,
                "end_time": 46.663636363636364,
                "pitch": 31,
                "velocity": 80,
                "duration": 0.11590909090909207,
                "tempo": 120.0
            },
            {
                "start_time": 46.68181818181818,
                "end_time": 46.8,
                "pitch": 39,
                "velocity": 80,
                "duration": 0.11818181818181728,
                "tempo": 120.0
            },
            {
                "start_time": 46.81590909090909,
                "end_time": 47.20681818181818,
                "pitch": 31,
                "velocity": 80,
                "duration": 0.39090909090909065,
                "tempo": 120.0
            },
            {
                "start_time": 47.224999999999994,
                "end_time": 47.34318181818182,
                "pitch": 41,
                "velocity": 80,
                "duration": 0.11818181818182438,
                "tempo": 120.0
            },
            {
                "start_time": 47.35909090909091,
                "end_time": 47.474999999999994,
                "pitch": 43,
                "velocity": 80,
                "duration": 0.11590909090908497,
                "tempo": 120.0
            },
            {
                "start_time": 47.49318181818182,
                "end_time": 47.60909090909091,
                "pitch": 31,
                "velocity": 80,
                "duration": 0.11590909090909207,
                "tempo": 120.0
            },
            {
                "start_time": 47.627272727272725,
                "end_time": 47.877272727272725,
                "pitch": 31,
                "velocity": 80,
                "duration": 0.25,
                "tempo": 120.0
            },
            {
                "start_time": 47.893181818181816,
                "end_time": 48.143181818181816,
                "pitch": 41,
                "velocity": 80,
                "duration": 0.25,
                "tempo": 120.0
            },
            {
                "start_time": 48.16136363636363,
                "end_time": 48.41136363636363,
                "pitch": 39,
                "velocity": 80,
                "duration": 0.25,
                "tempo": 120.0
            },
            {
                "start_time": 48.429545454545455,
                "end_time": 48.55,
                "pitch": 39,
                "velocity": 80,
                "duration": 0.12045454545454248,
                "tempo": 120.0
            },
            {
                "start_time": 48.56818181818181,
                "end_time": 48.68863636363636,
                "pitch": 38,
                "velocity": 80,
                "duration": 0.12045454545454959,
                "tempo": 120.0
            },
            {
                "start_time": 48.845454545454544,
                "end_time": 48.96363636363636,
                "pitch": 36,
                "velocity": 80,
                "duration": 0.11818181818181728,
                "tempo": 120.0
            },
            {
                "start_time": 48.97954545454545,
                "end_time": 49.35681818181818,
                "pitch": 38,
                "velocity": 80,
                "duration": 0.3772727272727252,
                "tempo": 120.0
            },
            {
                "start_time": 49.375,
                "end_time": 49.490909090909085,
                "pitch": 37,
                "velocity": 80,
                "duration": 0.11590909090908497,
                "tempo": 120.0
            },
            {
                "start_time": 49.50681818181818,
                "end_time": 49.625,
                "pitch": 37,
                "velocity": 80,
                "duration": 0.11818181818181728,
                "tempo": 120.0
            },
            {
                "start_time": 49.77954545454545,
                "end_time": 49.89772727272727,
                "pitch": 37,
                "velocity": 80,
                "duration": 0.11818181818182438,
                "tempo": 120.0
            },
            {
                "start_time": 50.04772727272727,
                "end_time": 50.163636363636364,
                "pitch": 37,
                "velocity": 80,
                "duration": 0.11590909090909207,
                "tempo": 120.0
            },
            {
                "start_time": 50.31136363636364,
                "end_time": 50.559090909090905,
                "pitch": 37,
                "velocity": 80,
                "duration": 0.2477272727272677,
                "tempo": 120.0
            },
            {
                "start_time": 50.57727272727273,
                "end_time": 50.695454545454545,
                "pitch": 37,
                "velocity": 80,
                "duration": 0.11818181818181728,
                "tempo": 120.0
            },
            {
                "start_time": 50.711363636363636,
                "end_time": 50.83181818181818,
                "pitch": 49,
                "velocity": 80,
                "duration": 0.12045454545454248,
                "tempo": 120.0
            },
            {
                "start_time": 50.84772727272727,
                "end_time": 50.965909090909086,
                "pitch": 37,
                "velocity": 80,
                "duration": 0.11818181818181728,
                "tempo": 120.0
            },
            {
                "start_time": 50.98409090909091,
                "end_time": 51.10227272727273,
                "pitch": 47,
                "velocity": 80,
                "duration": 0.11818181818181728,
                "tempo": 120.0
            },
            {
                "start_time": 51.11818181818182,
                "end_time": 51.236363636363635,
                "pitch": 49,
                "velocity": 80,
                "duration": 0.11818181818181728,
                "tempo": 120.0
            },
            {
                "start_time": 51.252272727272725,
                "end_time": 51.36818181818182,
                "pitch": 37,
                "velocity": 80,
                "duration": 0.11590909090909207,
                "tempo": 120.0
            },
            {
                "start_time": 51.38636363636363,
                "end_time": 51.63636363636363,
                "pitch": 47,
                "velocity": 80,
                "duration": 0.25,
                "tempo": 120.0
            },
            {
                "start_time": 51.65454545454545,
                "end_time": 51.77272727272727,
                "pitch": 37,
                "velocity": 80,
                "duration": 0.11818181818182438,
                "tempo": 120.0
            },
            {
                "start_time": 51.79090909090909,
                "end_time": 51.90909090909091,
                "pitch": 49,
                "velocity": 80,
                "duration": 0.11818181818181728,
                "tempo": 120.0
            },
            {
                "start_time": 51.92727272727272,
                "end_time": 52.04545454545454,
                "pitch": 37,
                "velocity": 80,
                "duration": 0.11818181818181728,
                "tempo": 120.0
            },
            {
                "start_time": 52.06363636363636,
                "end_time": 52.179545454545455,
                "pitch": 47,
                "velocity": 80,
                "duration": 0.11590909090909207,
                "tempo": 120.0
            },
            {
                "start_time": 52.19772727272727,
                "end_time": 52.58181818181818,
                "pitch": 48,
                "velocity": 80,
                "duration": 0.38409090909090793,
                "tempo": 120.0
            },
            {
                "start_time": 52.59772727272727,
                "end_time": 52.98181818181818,
                "pitch": 41,
                "velocity": 80,
                "duration": 0.38409090909090793,
                "tempo": 120.0
            },
            {
                "start_time": 53.0,
                "end_time": 53.37954545454545,
                "pitch": 39,
                "velocity": 80,
                "duration": 0.3795454545454504,
                "tempo": 120.0
            },
            {
                "start_time": 53.39545454545454,
                "end_time": 53.64090909090909,
                "pitch": 38,
                "velocity": 80,
                "duration": 0.2454545454545496,
                "tempo": 120.0
            },
            {
                "start_time": 53.65909090909091,
                "end_time": 53.775,
                "pitch": 46,
                "velocity": 80,
                "duration": 0.11590909090909207,
                "tempo": 120.0
            },
            {
                "start_time": 53.793181818181814,
                "end_time": 53.913636363636364,
                "pitch": 34,
                "velocity": 80,
                "duration": 0.12045454545454959,
                "tempo": 120.0
            },
            {
                "start_time": 54.070454545454545,
                "end_time": 54.19090909090909,
                "pitch": 34,
                "velocity": 80,
                "duration": 0.12045454545454248,
                "tempo": 120.0
            },
            {
                "start_time": 54.881818181818176,
                "end_time": 55.002272727272725,
                "pitch": 44,
                "velocity": 80,
                "duration": 0.12045454545454959,
                "tempo": 120.0
            },
            {
                "start_time": 55.02045454545454,
                "end_time": 55.14090909090909,
                "pitch": 46,
                "velocity": 80,
                "duration": 0.12045454545454959,
                "tempo": 120.0
            },
            {
                "start_time": 55.15909090909091,
                "end_time": 55.27954545454545,
                "pitch": 34,
                "velocity": 80,
                "duration": 0.12045454545454248,
                "tempo": 120.0
            },
            {
                "start_time": 55.29545454545454,
                "end_time": 55.41590909090909,
                "pitch": 41,
                "velocity": 80,
                "duration": 0.12045454545454959,
                "tempo": 120.0
            },
            {
                "start_time": 55.43181818181818,
                "end_time": 55.54545454545454,
                "pitch": 34,
                "velocity": 80,
                "duration": 0.11363636363635976,
                "tempo": 120.0
            },
            {
                "start_time": 55.824999999999996,
                "end_time": 55.94090909090909,
                "pitch": 34,
                "velocity": 80,
                "duration": 0.11590909090909207,
                "tempo": 120.0
            },
            {
                "start_time": 55.95681818181818,
                "end_time": 56.074999999999996,
                "pitch": 34,
                "velocity": 80,
                "duration": 0.11818181818181728,
                "tempo": 120.0
            },
            {
                "start_time": 56.224999999999994,
                "end_time": 56.340909090909086,
                "pitch": 34,
                "velocity": 80,
                "duration": 0.11590909090909207,
                "tempo": 120.0
            },
            {
                "start_time": 57.02954545454545,
                "end_time": 57.15,
                "pitch": 34,
                "velocity": 80,
                "duration": 0.12045454545454959,
                "tempo": 120.0
            },
            {
                "start_time": 57.168181818181814,
                "end_time": 57.288636363636364,
                "pitch": 41,
                "velocity": 80,
                "duration": 0.12045454545454959,
                "tempo": 120.0
            },
            {
                "start_time": 57.304545454545455,
                "end_time": 57.42727272727272,
                "pitch": 34,
                "velocity": 80,
                "duration": 0.12272727272726769,
                "tempo": 120.0
            },
            {
                "start_time": 57.445454545454545,
                "end_time": 57.56363636363636,
                "pitch": 44,
                "velocity": 80,
                "duration": 0.11818181818181728,
                "tempo": 120.0
            },
            {
                "start_time": 57.57954545454545,
                "end_time": 57.96363636363636,
                "pitch": 46,
                "velocity": 80,
                "duration": 0.38409090909090793,
                "tempo": 120.0
            },
            {
                "start_time": 57.98181818181818,
                "end_time": 58.09772727272727,
                "pitch": 45,
                "velocity": 80,
                "duration": 0.11590909090909207,
                "tempo": 120.0
            },
            {
                "start_time": 58.115909090909085,
                "end_time": 58.23181818181818,
                "pitch": 33,
                "velocity": 80,
                "duration": 0.11590909090909207,
                "tempo": 120.0
            },
            {
                "start_time": 58.381818181818176,
                "end_time": 58.49772727272727,
                "pitch": 33,
                "velocity": 80,
                "duration": 0.11590909090909207,
                "tempo": 120.0
            },
            {
                "start_time": 59.18636363636363,
                "end_time": 59.30681818181818,
                "pitch": 43,
                "velocity": 80,
                "duration": 0.12045454545454959,
                "tempo": 120.0
            },
            {
                "start_time": 59.324999999999996,
                "end_time": 59.445454545454545,
                "pitch": 45,
                "velocity": 80,
                "duration": 0.12045454545454959,
                "tempo": 120.0
            },
            {
                "start_time": 59.461363636363636,
                "end_time": 59.584090909090904,
                "pitch": 33,
                "velocity": 80,
                "duration": 0.12272727272726769,
                "tempo": 120.0
            },
            {
                "start_time": 59.599999999999994,
                "end_time": 59.720454545454544,
                "pitch": 39,
                "velocity": 80,
                "duration": 0.12045454545454959,
                "tempo": 120.0
            },
            {
                "start_time": 59.736363636363635,
                "end_time": 59.849999999999994,
                "pitch": 33,
                "velocity": 80,
                "duration": 0.11363636363635976,
                "tempo": 120.0
            },
            {
                "start_time": 60.12954545454545,
                "end_time": 60.24545454545454,
                "pitch": 33,
                "velocity": 80,
                "duration": 0.11590909090909207,
                "tempo": 120.0
            },
            {
                "start_time": 60.26136363636363,
                "end_time": 60.37954545454545,
                "pitch": 33,
                "velocity": 80,
                "duration": 0.11818181818181728,
                "tempo": 120.0
            },
            {
                "start_time": 60.52954545454545,
                "end_time": 60.64545454545454,
                "pitch": 33,
                "velocity": 80,
                "duration": 0.11590909090909207,
                "tempo": 120.0
            },
            {
                "start_time": 61.33181818181818,
                "end_time": 61.45454545454545,
                "pitch": 33,
                "velocity": 80,
                "duration": 0.1227272727272748,
                "tempo": 120.0
            },
            {
                "start_time": 61.470454545454544,
                "end_time": 61.59318181818182,
                "pitch": 45,
                "velocity": 80,
                "duration": 0.1227272727272748,
                "tempo": 120.0
            },
            {
                "start_time": 61.60909090909091,
                "end_time": 61.73181818181818,
                "pitch": 33,
                "velocity": 80,
                "duration": 0.12272727272726769,
                "tempo": 120.0
            },
            {
                "start_time": 61.74772727272727,
                "end_time": 61.865909090909085,
                "pitch": 43,
                "velocity": 80,
                "duration": 0.11818181818181728,
                "tempo": 120.0
            },
            {
                "start_time": 61.88409090909091,
                "end_time": 62.26136363636363,
                "pitch": 45,
                "velocity": 80,
                "duration": 0.3772727272727252,
                "tempo": 120.0
            },
            {
                "start_time": 62.277272727272724,
                "end_time": 62.393181818181816,
                "pitch": 44,
                "velocity": 80,
                "duration": 0.11590909090909207,
                "tempo": 120.0
            },
            {
                "start_time": 62.40909090909091,
                "end_time": 62.527272727272724,
                "pitch": 32,
                "velocity": 80,
                "duration": 0.11818181818181728,
                "tempo": 120.0
            },
            {
                "start_time": 62.67727272727272,
                "end_time": 62.793181818181814,
                "pitch": 32,
                "velocity": 80,
                "duration": 0.11590909090909207,
                "tempo": 120.0
            },
            {
                "start_time": 63.48863636363636,
                "end_time": 63.60681818181818,
                "pitch": 43,
                "velocity": 80,
                "duration": 0.11818181818181728,
                "tempo": 120.0
            },
            {
                "start_time": 63.625,
                "end_time": 63.74318181818182,
                "pitch": 44,
                "velocity": 80,
                "duration": 0.11818181818181728,
                "tempo": 120.0
            },
            {
                "start_time": 63.76136363636363,
                "end_time": 63.87954545454545,
                "pitch": 32,
                "velocity": 80,
                "duration": 0.11818181818181728,
                "tempo": 120.0
            },
            {
                "start_time": 63.897727272727266,
                "end_time": 64.01590909090909,
                "pitch": 41,
                "velocity": 80,
                "duration": 0.11818181818182438,
                "tempo": 120.0
            },
            {
                "start_time": 64.03181818181818,
                "end_time": 64.14772727272727,
                "pitch": 32,
                "velocity": 80,
                "duration": 0.11590909090908497,
                "tempo": 120.0
            },
            {
                "start_time": 64.43409090909091,
                "end_time": 64.55,
                "pitch": 44,
                "velocity": 80,
                "duration": 0.11590909090908497,
                "tempo": 120.0
            },
            {
                "start_time": 64.56590909090909,
                "end_time": 64.68409090909091,
                "pitch": 32,
                "velocity": 80,
                "duration": 0.11818181818182438,
                "tempo": 120.0
            },
            {
                "start_time": 64.8340909090909,
                "end_time": 64.95,
                "pitch": 32,
                "velocity": 80,
                "duration": 0.11590909090909918,
                "tempo": 120.0
            },
            {
                "start_time": 65.63636363636364,
                "end_time": 65.75454545454545,
                "pitch": 43,
                "velocity": 80,
                "duration": 0.11818181818181017,
                "tempo": 120.0
            },
            {
                "start_time": 65.77272727272727,
                "end_time": 65.89090909090909,
                "pitch": 44,
                "velocity": 80,
                "duration": 0.11818181818182438,
                "tempo": 120.0
            },
            {
                "start_time": 65.9090909090909,
                "end_time": 66.02727272727273,
                "pitch": 32,
                "velocity": 80,
                "duration": 0.11818181818182438,
                "tempo": 120.0
            },
            {
                "start_time": 66.04545454545455,
                "end_time": 66.16136363636363,
                "pitch": 41,
                "velocity": 80,
                "duration": 0.11590909090908497,
                "tempo": 120.0
            },
            {
                "start_time": 66.17954545454545,
                "end_time": 66.29545454545455,
                "pitch": 32,
                "velocity": 80,
                "duration": 0.11590909090909918,
                "tempo": 120.0
            },
            {
                "start_time": 66.57954545454545,
                "end_time": 66.69772727272726,
                "pitch": 46,
                "velocity": 80,
                "duration": 0.11818181818181017,
                "tempo": 120.0
            },
            {
                "start_time": 66.71363636363635,
                "end_time": 66.82954545454545,
                "pitch": 48,
                "velocity": 80,
                "duration": 0.11590909090909918,
                "tempo": 120.0
            },
            {
                "start_time": 66.84772727272727,
                "end_time": 66.96363636363635,
                "pitch": 41,
                "velocity": 80,
                "duration": 0.11590909090908497,
                "tempo": 120.0
            },
            {
                "start_time": 66.98181818181818,
                "end_time": 67.23181818181818,
                "pitch": 36,
                "velocity": 80,
                "duration": 0.25,
                "tempo": 120.0
            },
            {
                "start_time": 67.24772727272727,
                "end_time": 67.49772727272727,
                "pitch": 48,
                "velocity": 80,
                "duration": 0.25,
                "tempo": 120.0
            },
            {
                "start_time": 67.51590909090909,
                "end_time": 67.63181818181818,
                "pitch": 35,
                "velocity": 80,
                "duration": 0.11590909090908497,
                "tempo": 120.0
            },
            {
                "start_time": 67.7840909090909,
                "end_time": 67.90454545454546,
                "pitch": 35,
                "velocity": 80,
                "duration": 0.12045454545454959,
                "tempo": 120.0
            },
            {
                "start_time": 67.92272727272727,
                "end_time": 68.04318181818182,
                "pitch": 34,
                "velocity": 80,
                "duration": 0.12045454545454959,
                "tempo": 120.0
            },
            {
                "start_time": 68.2,
                "end_time": 68.31818181818181,
                "pitch": 27,
                "velocity": 80,
                "duration": 0.11818181818181017,
                "tempo": 120.0
            },
            {
                "start_time": 68.3340909090909,
                "end_time": 68.71136363636363,
                "pitch": 32,
                "velocity": 80,
                "duration": 0.3772727272727252,
                "tempo": 120.0
            },
            {
                "start_time": 68.72954545454544,
                "end_time": 68.97727272727272,
                "pitch": 44,
                "velocity": 80,
                "duration": 0.2477272727272748,
                "tempo": 120.0
            },
            {
                "start_time": 68.99545454545454,
                "end_time": 69.11136363636363,
                "pitch": 32,
                "velocity": 80,
                "duration": 0.11590909090909918,
                "tempo": 120.0
            },
            {
                "start_time": 69.12727272727273,
                "end_time": 69.24545454545454,
                "pitch": 39,
                "velocity": 80,
                "duration": 0.11818181818181017,
                "tempo": 120.0
            },
            {
                "start_time": 69.39545454545454,
                "end_time": 69.51136363636363,
                "pitch": 44,
                "velocity": 80,
                "duration": 0.11590909090908497,
                "tempo": 120.0
            },
            {
                "start_time": 69.66363636363636,
                "end_time": 69.91363636363636,
                "pitch": 43,
                "velocity": 80,
                "duration": 0.25,
                "tempo": 120.0
            },
            {
                "start_time": 69.93181818181817,
                "end_time": 70.05,
                "pitch": 32,
                "velocity": 80,
                "duration": 0.11818181818182438,
                "tempo": 120.0
            },
            {
                "start_time": 70.06590909090909,
                "end_time": 70.18636363636364,
                "pitch": 32,
                "velocity": 80,
                "duration": 0.12045454545454959,
                "tempo": 120.0
            },
            {
                "start_time": 70.33863636363635,
                "end_time": 70.45681818181818,
                "pitch": 51,
                "velocity": 80,
                "duration": 0.11818181818182438,
                "tempo": 120.0
            },
            {
                "start_time": 70.47272727272727,
                "end_time": 70.85681818181818,
                "pitch": 44,
                "velocity": 80,
                "duration": 0.38409090909091503,
                "tempo": 120.0
            },
            {
                "start_time": 70.875,
                "end_time": 70.99090909090908,
                "pitch": 44,
                "velocity": 80,
                "duration": 0.11590909090908497,
                "tempo": 120.0
            },
            {
                "start_time": 71.0090909090909,
                "end_time": 71.125,
                "pitch": 32,
                "velocity": 80,
                "duration": 0.11590909090909918,
                "tempo": 120.0
            },
            {
                "start_time": 71.27499999999999,
                "end_time": 71.39090909090909,
                "pitch": 32,
                "velocity": 80,
                "duration": 0.11590909090909918,
                "tempo": 120.0
            },
            {
                "start_time": 72.08863636363635,
                "end_time": 72.34318181818182,
                "pitch": 29,
                "velocity": 80,
                "duration": 0.2545454545454646,
                "tempo": 120.0
            },
            {
                "start_time": 72.35909090909091,
                "end_time": 72.47954545454544,
                "pitch": 29,
                "velocity": 80,
                "duration": 0.12045454545453538,
                "tempo": 120.0
            },
            {
                "start_time": 72.49545454545454,
                "end_time": 72.61363636363636,
                "pitch": 31,
                "velocity": 80,
                "duration": 0.11818181818182438,
                "tempo": 120.0
            },
            {
                "start_time": 72.62954545454545,
                "end_time": 72.74772727272727,
                "pitch": 43,
                "velocity": 80,
                "duration": 0.11818181818182438,
                "tempo": 120.0
            },
            {
                "start_time": 72.76363636363637,
                "end_time": 72.88181818181818,
                "pitch": 31,
                "velocity": 80,
                "duration": 0.11818181818181017,
                "tempo": 120.0
            },
            {
                "start_time": 73.03181818181818,
                "end_time": 73.14772727272727,
                "pitch": 44,
                "velocity": 80,
                "duration": 0.11590909090908497,
                "tempo": 120.0
            },
            {
                "start_time": 73.16590909090908,
                "end_time": 73.28181818181818,
                "pitch": 32,
                "velocity": 80,
                "duration": 0.11590909090909918,
                "tempo": 120.0
            },
            {
                "start_time": 73.43181818181817,
                "end_time": 73.55,
                "pitch": 32,
                "velocity": 80,
                "duration": 0.11818181818182438,
                "tempo": 120.0
            },
            {
                "start_time": 74.23636363636363,
                "end_time": 74.35681818181818,
                "pitch": 43,
                "velocity": 80,
                "duration": 0.12045454545454959,
                "tempo": 120.0
            },
            {
                "start_time": 74.375,
                "end_time": 74.49545454545454,
                "pitch": 44,
                "velocity": 80,
                "duration": 0.12045454545453538,
                "tempo": 120.0
            },
            {
                "start_time": 74.51363636363637,
                "end_time": 74.6340909090909,
                "pitch": 36,
                "velocity": 80,
                "duration": 0.12045454545453538,
                "tempo": 120.0
            },
            {
                "start_time": 74.65227272727272,
                "end_time": 74.77045454545454,
                "pitch": 43,
                "velocity": 80,
                "duration": 0.11818181818182438,
                "tempo": 120.0
            },
            {
                "start_time": 74.78636363636363,
                "end_time": 75.16363636363636,
                "pitch": 44,
                "velocity": 80,
                "duration": 0.3772727272727252,
                "tempo": 120.0
            },
            {
                "start_time": 75.17954545454545,
                "end_time": 75.29545454545455,
                "pitch": 44,
                "velocity": 80,
                "duration": 0.11590909090909918,
                "tempo": 120.0
            },
            {
                "start_time": 75.31136363636364,
                "end_time": 75.42954545454545,
                "pitch": 32,
                "velocity": 80,
                "duration": 0.11818181818181017,
                "tempo": 120.0
            },
            {
                "start_time": 75.57954545454545,
                "end_time": 75.69545454545454,
                "pitch": 32,
                "velocity": 80,
                "duration": 0.11590909090908497,
                "tempo": 120.0
            },
            {
                "start_time": 76.3840909090909,
                "end_time": 76.50454545454545,
                "pitch": 41,
                "velocity": 80,
                "duration": 0.12045454545454959,
                "tempo": 120.0
            },
            {
                "start_time": 76.52272727272727,
                "end_time": 76.64318181818182,
                "pitch": 43,
                "velocity": 80,
                "duration": 0.12045454545454959,
                "tempo": 120.0
            },
            {
                "start_time": 76.66136363636363,
                "end_time": 76.78181818181818,
                "pitch": 40,
                "velocity": 80,
                "duration": 0.12045454545454959,
                "tempo": 120.0
            },
            {
                "start_time": 76.79772727272727,
                "end_time": 76.91590909090908,
                "pitch": 41,
                "velocity": 80,
                "duration": 0.11818181818181017,
                "tempo": 120.0
            },
            {
                "start_time": 76.93409090909091,
                "end_time": 77.31136363636364,
                "pitch": 43,
                "velocity": 80,
                "duration": 0.3772727272727252,
                "tempo": 120.0
            },
            {
                "start_time": 77.32727272727273,
                "end_time": 77.44318181818181,
                "pitch": 45,
                "velocity": 80,
                "duration": 0.11590909090908497,
                "tempo": 120.0
            },
            {
                "start_time": 77.4590909090909,
                "end_time": 77.57727272727273,
                "pitch": 33,
                "velocity": 80,
                "duration": 0.11818181818182438,
                "tempo": 120.0
            },
            {
                "start_time": 77.72727272727272,
                "end_time": 77.84318181818182,
                "pitch": 33,
                "velocity": 80,
                "duration": 0.11590909090909918,
                "tempo": 120.0
            },
            {
                "start_time": 78.53863636363636,
                "end_time": 78.65454545454546,
                "pitch": 43,
                "velocity": 80,
                "duration": 0.11590909090909918,
                "tempo": 120.0
            },
            {
                "start_time": 78.67272727272727,
                "end_time": 78.78863636363636,
                "pitch": 45,
                "velocity": 80,
                "duration": 0.11590909090908497,
                "tempo": 120.0
            },
            {
                "start_time": 78.80454545454545,
                "end_time": 78.92272727272727,
                "pitch": 41,
                "velocity": 80,
                "duration": 0.11818181818182438,
                "tempo": 120.0
            },
            {
                "start_time": 78.93863636363636,
                "end_time": 79.05681818181817,
                "pitch": 40,
                "velocity": 80,
                "duration": 0.11818181818181017,
                "tempo": 120.0
            },
            {
                "start_time": 79.07272727272726,
                "end_time": 79.46363636363635,
                "pitch": 43,
                "velocity": 80,
                "duration": 0.39090909090909065,
                "tempo": 120.0
            },
            {
                "start_time": 79.48181818181818,
                "end_time": 79.6,
                "pitch": 44,
                "velocity": 80,
                "duration": 0.11818181818181017,
                "tempo": 120.0
            },
            {
                "start_time": 79.61590909090908,
                "end_time": 79.73409090909091,
                "pitch": 32,
                "velocity": 80,
                "duration": 0.11818181818182438,
                "tempo": 120.0
            },
            {
                "start_time": 79.8840909090909,
                "end_time": 80.0,
                "pitch": 32,
                "velocity": 80,
                "duration": 0.11590909090909918,
                "tempo": 120.0
            },
            {
                "start_time": 80.68636363636364,
                "end_time": 80.94772727272726,
                "pitch": 29,
                "velocity": 80,
                "duration": 0.26136363636362603,
                "tempo": 120.0
            },
            {
                "start_time": 80.96363636363635,
                "end_time": 81.0840909090909,
                "pitch": 29,
                "velocity": 80,
                "duration": 0.12045454545454959,
                "tempo": 120.0
            },
            {
                "start_time": 81.10227272727272,
                "end_time": 81.22045454545454,
                "pitch": 31,
                "velocity": 80,
                "duration": 0.11818181818182438,
                "tempo": 120.0
            },
            {
                "start_time": 81.23863636363636,
                "end_time": 81.35227272727272,
                "pitch": 43,
                "velocity": 80,
                "duration": 0.11363636363635976,
                "tempo": 120.0
            },
            {
                "start_time": 81.36818181818181,
                "end_time": 81.48409090909091,
                "pitch": 31,
                "velocity": 80,
                "duration": 0.11590909090909918,
                "tempo": 120.0
            },
            {
                "start_time": 81.63181818181818,
                "end_time": 81.74772727272727,
                "pitch": 44,
                "velocity": 80,
                "duration": 0.11590909090909918,
                "tempo": 120.0
            },
            {
                "start_time": 81.76363636363637,
                "end_time": 81.87954545454545,
                "pitch": 32,
                "velocity": 80,
                "duration": 0.11590909090908497,
                "tempo": 120.0
            },
            {
                "start_time": 82.03181818181818,
                "end_time": 82.14772727272727,
                "pitch": 32,
                "velocity": 80,
                "duration": 0.11590909090908497,
                "tempo": 120.0
            },
            {
                "start_time": 82.8340909090909,
                "end_time": 82.95681818181818,
                "pitch": 43,
                "velocity": 80,
                "duration": 0.1227272727272748,
                "tempo": 120.0
            },
            {
                "start_time": 82.97272727272727,
                "end_time": 83.09318181818182,
                "pitch": 44,
                "velocity": 80,
                "duration": 0.12045454545454959,
                "tempo": 120.0
            },
            {
                "start_time": 83.11136363636363,
                "end_time": 83.23181818181818,
                "pitch": 36,
                "velocity": 80,
                "duration": 0.12045454545454959,
                "tempo": 120.0
            },
            {
                "start_time": 83.25,
                "end_time": 83.37045454545454,
                "pitch": 43,
                "velocity": 80,
                "duration": 0.12045454545453538,
                "tempo": 120.0
            },
            {
                "start_time": 83.38636363636363,
                "end_time": 83.77045454545454,
                "pitch": 44,
                "velocity": 80,
                "duration": 0.38409090909091503,
                "tempo": 120.0
            },
            {
                "start_time": 83.78863636363636,
                "end_time": 83.90227272727272,
                "pitch": 34,
                "velocity": 80,
                "duration": 0.11363636363635976,
                "tempo": 120.0
            },
            {
                "start_time": 83.92045454545455,
                "end_time": 84.0340909090909,
                "pitch": 34,
                "velocity": 80,
                "duration": 0.11363636363635976,
                "tempo": 120.0
            },
            {
                "start_time": 84.05,
                "end_time": 84.16590909090908,
                "pitch": 46,
                "velocity": 80,
                "duration": 0.11590909090908497,
                "tempo": 120.0
            },
            {
                "start_time": 84.18181818181817,
                "end_time": 84.29772727272727,
                "pitch": 34,
                "velocity": 80,
                "duration": 0.11590909090909918,
                "tempo": 120.0
            },
            {
                "start_time": 84.31363636363636,
                "end_time": 84.42954545454545,
                "pitch": 34,
                "velocity": 80,
                "duration": 0.11590909090908497,
                "tempo": 120.0
            },
            {
                "start_time": 84.44772727272726,
                "end_time": 84.56590909090909,
                "pitch": 34,
                "velocity": 80,
                "duration": 0.11818181818182438,
                "tempo": 120.0
            },
            {
                "start_time": 84.71818181818182,
                "end_time": 84.83863636363635,
                "pitch": 44,
                "velocity": 80,
                "duration": 0.12045454545453538,
                "tempo": 120.0
            },
            {
                "start_time": 84.85454545454544,
                "end_time": 84.975,
                "pitch": 46,
                "velocity": 80,
                "duration": 0.12045454545454959,
                "tempo": 120.0
            },
            {
                "start_time": 84.99090909090908,
                "end_time": 85.24545454545454,
                "pitch": 34,
                "velocity": 80,
                "duration": 0.2545454545454504,
                "tempo": 120.0
            },
            {
                "start_time": 85.26363636363637,
                "end_time": 85.38181818181818,
                "pitch": 34,
                "velocity": 80,
                "duration": 0.11818181818181017,
                "tempo": 120.0
            },
            {
                "start_time": 85.39999999999999,
                "end_time": 85.51818181818182,
                "pitch": 32,
                "velocity": 80,
                "duration": 0.11818181818182438,
                "tempo": 120.0
            },
            {
                "start_time": 85.5340909090909,
                "end_time": 85.64999999999999,
                "pitch": 32,
                "velocity": 80,
                "duration": 0.11590909090908497,
                "tempo": 120.0
            },
            {
                "start_time": 85.66818181818181,
                "end_time": 85.91818181818181,
                "pitch": 34,
                "velocity": 80,
                "duration": 0.25,
                "tempo": 120.0
            },
            {
                "start_time": 85.9340909090909,
                "end_time": 86.05227272727272,
                "pitch": 44,
                "velocity": 80,
                "duration": 0.11818181818182438,
                "tempo": 120.0
            },
            {
                "start_time": 86.06818181818181,
                "end_time": 86.1840909090909,
                "pitch": 46,
                "velocity": 80,
                "duration": 0.11590909090908497,
                "tempo": 120.0
            },
            {
                "start_time": 86.20227272727273,
                "end_time": 86.31818181818181,
                "pitch": 34,
                "velocity": 80,
                "duration": 0.11590909090908497,
                "tempo": 120.0
            },
            {
                "start_time": 86.33636363636363,
                "end_time": 86.45227272727273,
                "pitch": 34,
                "velocity": 80,
                "duration": 0.11590909090909918,
                "tempo": 120.0
            },
            {
                "start_time": 86.60227272727272,
                "end_time": 86.72045454545454,
                "pitch": 32,
                "velocity": 80,
                "duration": 0.11818181818182438,
                "tempo": 120.0
            },
            {
                "start_time": 86.87045454545454,
                "end_time": 86.98636363636363,
                "pitch": 29,
                "velocity": 80,
                "duration": 0.11590909090909918,
                "tempo": 120.0
            },
            {
                "start_time": 87.13636363636363,
                "end_time": 87.25454545454545,
                "pitch": 29,
                "velocity": 80,
                "duration": 0.11818181818182438,
                "tempo": 120.0
            },
            {
                "start_time": 87.27045454545454,
                "end_time": 87.38636363636363,
                "pitch": 43,
                "velocity": 80,
                "duration": 0.11590909090908497,
                "tempo": 120.0
            },
            {
                "start_time": 87.53863636363636,
                "end_time": 87.65454545454546,
                "pitch": 32,
                "velocity": 80,
                "duration": 0.11590909090909918,
                "tempo": 120.0
            },
            {
                "start_time": 87.67272727272727,
                "end_time": 88.06363636363636,
                "pitch": 46,
                "velocity": 80,
                "duration": 0.39090909090909065,
                "tempo": 120.0
            },
            {
                "start_time": 88.08181818181818,
                "end_time": 88.0840909090909,
                "pitch": 29,
                "velocity": 80,
                "duration": 0.0022727272727252057,
                "tempo": 120.0
            }
        ],
        "Vibraphone": [
            {
                "start_time": 15.229545454545454,
                "end_time": 15.618181818181817,
                "pitch": 70,
                "velocity": 64,
                "duration": 0.38863636363636367,
                "tempo": 120.0
            },
            {
                "start_time": 15.636363636363635,
                "end_time": 16.020454545454545,
                "pitch": 72,
                "velocity": 64,
                "duration": 0.3840909090909097,
                "tempo": 120.0
            },
            {
                "start_time": 16.036363636363635,
                "end_time": 16.425,
                "pitch": 70,
                "velocity": 64,
                "duration": 0.38863636363636545,
                "tempo": 120.0
            },
            {
                "start_time": 16.443181818181817,
                "end_time": 16.561363636363634,
                "pitch": 68,
                "velocity": 64,
                "duration": 0.11818181818181728,
                "tempo": 120.0
            },
            {
                "start_time": 16.71363636363636,
                "end_time": 16.96363636363636,
                "pitch": 67,
                "velocity": 64,
                "duration": 0.25,
                "tempo": 120.0
            },
            {
                "start_time": 32.434090909090905,
                "end_time": 32.81818181818182,
                "pitch": 70,
                "velocity": 64,
                "duration": 0.38409090909091503,
                "tempo": 120.0
            },
            {
                "start_time": 32.836363636363636,
                "end_time": 33.21818181818182,
                "pitch": 72,
                "velocity": 64,
                "duration": 0.3818181818181827,
                "tempo": 120.0
            },
            {
                "start_time": 33.236363636363635,
                "end_time": 33.625,
                "pitch": 70,
                "velocity": 64,
                "duration": 0.38863636363636545,
                "tempo": 120.0
            },
            {
                "start_time": 33.643181818181816,
                "end_time": 33.76136363636363,
                "pitch": 68,
                "velocity": 64,
                "duration": 0.11818181818181728,
                "tempo": 120.0
            },
            {
                "start_time": 33.913636363636364,
                "end_time": 34.29772727272727,
                "pitch": 67,
                "velocity": 64,
                "duration": 0.38409090909090793,
                "tempo": 120.0
            }
        ],
        "Violin": [
            {
                "start_time": 34.31590909090909,
                "end_time": 35.918181818181814,
                "pitch": 62,
                "velocity": 64,
                "duration": 1.6022727272727266,
                "tempo": 120.0
            },
            {
                "start_time": 35.93636363636364,
                "end_time": 36.45454545454545,
                "pitch": 67,
                "velocity": 64,
                "duration": 0.5181818181818159,
                "tempo": 120.0
            },
            {
                "start_time": 36.470454545454544,
                "end_time": 38.6,
                "pitch": 65,
                "velocity": 64,
                "duration": 2.1295454545454575,
                "tempo": 120.0
            },
            {
                "start_time": 38.61818181818182,
                "end_time": 40.220454545454544,
                "pitch": 65,
                "velocity": 64,
                "duration": 1.6022727272727266,
                "tempo": 120.0
            },
            {
                "start_time": 40.23863636363636,
                "end_time": 40.75681818181818,
                "pitch": 68,
                "velocity": 64,
                "duration": 0.518181818181823,
                "tempo": 120.0
            },
            {
                "start_time": 40.775,
                "end_time": 42.902272727272724,
                "pitch": 70,
                "velocity": 64,
                "duration": 2.127272727272725,
                "tempo": 120.0
            },
            {
                "start_time": 42.92045454545455,
                "end_time": 44.525,
                "pitch": 63,
                "velocity": 64,
                "duration": 1.6045454545454518,
                "tempo": 120.0
            },
            {
                "start_time": 44.543181818181814,
                "end_time": 45.06136363636364,
                "pitch": 67,
                "velocity": 64,
                "duration": 0.518181818181823,
                "tempo": 120.0
            },
            {
                "start_time": 45.07954545454545,
                "end_time": 47.20681818181818,
                "pitch": 67,
                "velocity": 64,
                "duration": 2.127272727272725,
                "tempo": 120.0
            },
            {
                "start_time": 47.224999999999994,
                "end_time": 48.82727272727273,
                "pitch": 62,
                "velocity": 64,
                "duration": 1.6022727272727337,
                "tempo": 120.0
            },
            {
                "start_time": 48.845454545454544,
                "end_time": 49.35681818181818,
                "pitch": 62,
                "velocity": 64,
                "duration": 0.5113636363636331,
                "tempo": 120.0
            },
            {
                "start_time": 49.375,
                "end_time": 51.77272727272727,
                "pitch": 63,
                "velocity": 64,
                "duration": 2.3977272727272734,
                "tempo": 120.0
            },
            {
                "start_time": 51.79090909090909,
                "end_time": 52.179545454545455,
                "pitch": 63,
                "velocity": 64,
                "duration": 0.38863636363636545,
                "tempo": 120.0
            },
            {
                "start_time": 52.19772727272727,
                "end_time": 52.58181818181818,
                "pitch": 62,
                "velocity": 64,
                "duration": 0.38409090909090793,
                "tempo": 120.0
            },
            {
                "start_time": 52.599999999999994,
                "end_time": 52.98181818181818,
                "pitch": 64,
                "velocity": 64,
                "duration": 0.3818181818181827,
                "tempo": 120.0
            },
            {
                "start_time": 53.0,
                "end_time": 53.37954545454545,
                "pitch": 65,
                "velocity": 64,
                "duration": 0.3795454545454504,
                "tempo": 120.0
            },
            {
                "start_time": 53.39772727272727,
                "end_time": 53.643181818181816,
                "pitch": 67,
                "velocity": 64,
                "duration": 0.24545454545454248,
                "tempo": 120.0
            }
        ]
    }
}