{
    "track_id": "Galaxy Force (FM) - 02 - Beyond the Galaxy",
    "mood": "angry",
    "instruments": {
        "Vibraphone": [
            {
                "start_time": 0.18181818181818182,
                "end_time": 0.3727272727272727,
                "pitch": 64,
                "velocity": 80,
                "duration": 0.19090909090909086,
                "tempo": 120.0
            },
            {
                "start_time": 0.39545454545454545,
                "end_time": 0.634090909090909,
                "pitch": 64,
                "velocity": 80,
                "duration": 0.2386363636363636,
                "tempo": 120.0
            },
            {
                "start_time": 0.65,
                "end_time": 1.0318181818181817,
                "pitch": 71,
                "velocity": 80,
                "duration": 0.3818181818181817,
                "tempo": 120.0
            },
            {
                "start_time": 1.05,
                "end_time": 1.2954545454545454,
                "pitch": 76,
                "velocity": 80,
                "duration": 0.24545454545454537,
                "tempo": 120.0
            },
            {
                "start_time": 1.3113636363636363,
                "end_time": 1.6931818181818181,
                "pitch": 76,
                "velocity": 80,
                "duration": 0.38181818181818183,
                "tempo": 120.0
            },
            {
                "start_time": 1.977272727272727,
                "end_time": 2.227272727272727,
                "pitch": 64,
                "velocity": 80,
                "duration": 0.25,
                "tempo": 120.0
            },
            {
                "start_time": 2.245454545454545,
                "end_time": 2.495454545454545,
                "pitch": 64,
                "velocity": 80,
                "duration": 0.25,
                "tempo": 120.0
            },
            {
                "start_time": 2.5113636363636362,
                "end_time": 2.9022727272727273,
                "pitch": 71,
                "velocity": 80,
                "duration": 0.3909090909090911,
                "tempo": 120.0
            },
            {
                "start_time": 2.9204545454545454,
                "end_time": 3.1727272727272724,
                "pitch": 76,
                "velocity": 80,
                "duration": 0.252272727272727,
                "tempo": 120.0
            },
            {
                "start_time": 3.1886363636363635,
                "end_time": 3.5727272727272728,
                "pitch": 76,
                "velocity": 80,
                "duration": 0.38409090909090926,
                "tempo": 120.0
            },
            {
                "start_time": 3.8568181818181815,
                "end_time": 4.1068181818181815,
                "pitch": 64,
                "velocity": 80,
                "duration": 0.25,
                "tempo": 120.0
            },
            {
                "start_time": 4.125,
                "end_time": 4.379545454545454,
                "pitch": 64,
                "velocity": 80,
                "duration": 0.25454545454545396,
                "tempo": 120.0
            },
            {
                "start_time": 4.3954545454545455,
                "end_time": 4.784090909090909,
                "pitch": 71,
                "velocity": 80,
                "duration": 0.38863636363636367,
                "tempo": 120.0
            },
            {
                "start_time": 4.802272727272727,
                "end_time": 5.052272727272727,
                "pitch": 76,
                "velocity": 80,
                "duration": 0.25,
                "tempo": 120.0
            },
            {
                "start_time": 5.068181818181818,
                "end_time": 5.452272727272727,
                "pitch": 76,
                "velocity": 80,
                "duration": 0.3840909090909088,
                "tempo": 120.0
            },
            {
                "start_time": 5.736363636363636,
                "end_time": 5.99090909090909,
                "pitch": 64,
                "velocity": 80,
                "duration": 0.25454545454545396,
                "tempo": 120.0
            },
            {
                "start_time": 6.009090909090909,
                "end_time": 6.263636363636364,
                "pitch": 64,
                "velocity": 80,
                "duration": 0.25454545454545485,
                "tempo": 120.0
            },
            {
                "start_time": 6.281818181818181,
                "end_time": 6.656818181818181,
                "pitch": 71,
                "velocity": 80,
                "duration": 0.375,
                "tempo": 120.0
            },
            {
                "start_time": 6.675,
                "end_time": 6.925,
                "pitch": 76,
                "velocity": 80,
                "duration": 0.25,
                "tempo": 120.0
            },
            {
                "start_time": 6.9431818181818175,
                "end_time": 7.331818181818181,
                "pitch": 76,
                "velocity": 80,
                "duration": 0.38863636363636367,
                "tempo": 120.0
            },
            {
                "start_time": 7.622727272727272,
                "end_time": 7.877272727272727,
                "pitch": 62,
                "velocity": 80,
                "duration": 0.25454545454545485,
                "tempo": 120.0
            },
            {
                "start_time": 7.893181818181818,
                "end_time": 8.143181818181818,
                "pitch": 62,
                "velocity": 80,
                "duration": 0.25,
                "tempo": 120.0
            },
            {
                "start_time": 8.161363636363635,
                "end_time": 8.545454545454545,
                "pitch": 68,
                "velocity": 80,
                "duration": 0.3840909090909097,
                "tempo": 120.0
            },
            {
                "start_time": 8.561363636363636,
                "end_time": 8.811363636363636,
                "pitch": 73,
                "velocity": 80,
                "duration": 0.25,
                "tempo": 120.0
            },
            {
                "start_time": 8.829545454545453,
                "end_time": 9.218181818181817,
                "pitch": 73,
                "velocity": 80,
                "duration": 0.38863636363636367,
                "tempo": 120.0
            },
            {
                "start_time": 9.506818181818181,
                "end_time": 9.756818181818181,
                "pitch": 62,
                "velocity": 80,
                "duration": 0.25,
                "tempo": 120.0
            },
            {
                "start_time": 9.772727272727272,
                "end_time": 10.025,
                "pitch": 62,
                "velocity": 80,
                "duration": 0.25227272727272876,
                "tempo": 120.0
            },
            {
                "start_time": 10.040909090909091,
                "end_time": 10.431818181818182,
                "pitch": 69,
                "velocity": 80,
                "duration": 0.39090909090909065,
                "tempo": 120.0
            },
            {
                "start_time": 10.45,
                "end_time": 10.702272727272726,
                "pitch": 74,
                "velocity": 80,
                "duration": 0.252272727272727,
                "tempo": 120.0
            },
            {
                "start_time": 10.718181818181817,
                "end_time": 11.102272727272727,
                "pitch": 74,
                "velocity": 80,
                "duration": 0.3840909090909097,
                "tempo": 120.0
            },
            {
                "start_time": 11.386363636363637,
                "end_time": 11.636363636363637,
                "pitch": 60,
                "velocity": 80,
                "duration": 0.25,
                "tempo": 120.0
            },
            {
                "start_time": 11.654545454545454,
                "end_time": 11.904545454545454,
                "pitch": 60,
                "velocity": 80,
                "duration": 0.25,
                "tempo": 120.0
            },
            {
                "start_time": 11.920454545454545,
                "end_time": 12.306818181818182,
                "pitch": 66,
                "velocity": 80,
                "duration": 0.3863636363636367,
                "tempo": 120.0
            },
            {
                "start_time": 12.325,
                "end_time": 12.579545454545453,
                "pitch": 71,
                "velocity": 80,
                "duration": 0.25454545454545396,
                "tempo": 120.0
            },
            {
                "start_time": 12.595454545454546,
                "end_time": 12.98181818181818,
                "pitch": 71,
                "velocity": 80,
                "duration": 0.3863636363636349,
                "tempo": 120.0
            },
            {
                "start_time": 13.26590909090909,
                "end_time": 13.520454545454545,
                "pitch": 60,
                "velocity": 80,
                "duration": 0.25454545454545396,
                "tempo": 120.0
            },
            {
                "start_time": 13.538636363636362,
                "end_time": 13.793181818181818,
                "pitch": 60,
                "velocity": 80,
                "duration": 0.25454545454545574,
                "tempo": 120.0
            },
            {
                "start_time": 13.811363636363636,
                "end_time": 14.193181818181818,
                "pitch": 68,
                "velocity": 80,
                "duration": 0.3818181818181827,
                "tempo": 120.0
            },
            {
                "start_time": 14.211363636363636,
                "end_time": 14.461363636363636,
                "pitch": 71,
                "velocity": 80,
                "duration": 0.25,
                "tempo": 120.0
            },
            {
                "start_time": 14.479545454545454,
                "end_time": 14.861363636363636,
                "pitch": 71,
                "velocity": 80,
                "duration": 0.3818181818181827,
                "tempo": 120.0
            },
            {
                "start_time": 15.149999999999999,
                "end_time": 15.404545454545454,
                "pitch": 64,
                "velocity": 80,
                "duration": 0.25454545454545574,
                "tempo": 120.0
            },
            {
                "start_time": 15.422727272727272,
                "end_time": 15.672727272727272,
                "pitch": 64,
                "velocity": 80,
                "duration": 0.25,
                "tempo": 120.0
            },
            {
                "start_time": 15.69090909090909,
                "end_time": 16.075,
                "pitch": 71,
                "velocity": 80,
                "duration": 0.3840909090909097,
                "tempo": 120.0
            },
            {
                "start_time": 16.09090909090909,
                "end_time": 16.34090909090909,
                "pitch": 76,
                "velocity": 80,
                "duration": 0.25,
                "tempo": 120.0
            },
            {
                "start_time": 16.35909090909091,
                "end_time": 16.743181818181817,
                "pitch": 76,
                "velocity": 80,
                "duration": 0.38409090909090793,
                "tempo": 120.0
            },
            {
                "start_time": 17.027272727272727,
                "end_time": 17.28181818181818,
                "pitch": 64,
                "velocity": 80,
                "duration": 0.25454545454545396,
                "tempo": 120.0
            },
            {
                "start_time": 17.297727272727272,
                "end_time": 17.552272727272726,
                "pitch": 64,
                "velocity": 80,
                "duration": 0.25454545454545396,
                "tempo": 120.0
            },
            {
                "start_time": 17.570454545454545,
                "end_time": 17.961363636363636,
                "pitch": 71,
                "velocity": 80,
                "duration": 0.39090909090909065,
                "tempo": 120.0
            },
            {
                "start_time": 17.979545454545455,
                "end_time": 18.229545454545455,
                "pitch": 76,
                "velocity": 80,
                "duration": 0.25,
                "tempo": 120.0
            },
            {
                "start_time": 18.245454545454546,
                "end_time": 18.62272727272727,
                "pitch": 76,
                "velocity": 80,
                "duration": 0.3772727272727252,
                "tempo": 120.0
            },
            {
                "start_time": 18.911363636363635,
                "end_time": 19.16590909090909,
                "pitch": 64,
                "velocity": 80,
                "duration": 0.25454545454545396,
                "tempo": 120.0
            },
            {
                "start_time": 19.18409090909091,
                "end_time": 19.43409090909091,
                "pitch": 64,
                "velocity": 80,
                "duration": 0.25,
                "tempo": 120.0
            },
            {
                "start_time": 19.45,
                "end_time": 19.836363636363636,
                "pitch": 71,
                "velocity": 80,
                "duration": 0.3863636363636367,
                "tempo": 120.0
            },
            {
                "start_time": 19.854545454545452,
                "end_time": 20.10909090909091,
                "pitch": 76,
                "velocity": 80,
                "duration": 0.2545454545454575,
                "tempo": 120.0
            },
            {
                "start_time": 20.125,
                "end_time": 20.511363636363637,
                "pitch": 76,
                "velocity": 80,
                "duration": 0.3863636363636367,
                "tempo": 120.0
            },
            {
                "start_time": 20.795454545454543,
                "end_time": 21.045454545454543,
                "pitch": 64,
                "velocity": 80,
                "duration": 0.25,
                "tempo": 120.0
            },
            {
                "start_time": 21.063636363636363,
                "end_time": 21.313636363636363,
                "pitch": 64,
                "velocity": 80,
                "duration": 0.25,
                "tempo": 120.0
            },
            {
                "start_time": 21.329545454545453,
                "end_time": 21.71363636363636,
                "pitch": 71,
                "velocity": 80,
                "duration": 0.38409090909090793,
                "tempo": 120.0
            },
            {
                "start_time": 21.73181818181818,
                "end_time": 21.98181818181818,
                "pitch": 76,
                "velocity": 80,
                "duration": 0.25,
                "tempo": 120.0
            },
            {
                "start_time": 21.99772727272727,
                "end_time": 22.38181818181818,
                "pitch": 76,
                "velocity": 80,
                "duration": 0.38409090909090793,
                "tempo": 120.0
            },
            {
                "start_time": 22.670454545454543,
                "end_time": 22.924999999999997,
                "pitch": 62,
                "velocity": 80,
                "duration": 0.25454545454545396,
                "tempo": 120.0
            },
            {
                "start_time": 22.943181818181817,
                "end_time": 23.193181818181817,
                "pitch": 62,
                "velocity": 80,
                "duration": 0.25,
                "tempo": 120.0
            },
            {
                "start_time": 23.211363636363636,
                "end_time": 23.595454545454544,
                "pitch": 68,
                "velocity": 80,
                "duration": 0.38409090909090793,
                "tempo": 120.0
            },
            {
                "start_time": 23.613636363636363,
                "end_time": 23.868181818181817,
                "pitch": 73,
                "velocity": 80,
                "duration": 0.25454545454545396,
                "tempo": 120.0
            },
            {
                "start_time": 23.886363636363637,
                "end_time": 24.275,
                "pitch": 73,
                "velocity": 80,
                "duration": 0.3886363636363619,
                "tempo": 120.0
            },
            {
                "start_time": 24.56590909090909,
                "end_time": 24.81590909090909,
                "pitch": 62,
                "velocity": 80,
                "duration": 0.25,
                "tempo": 120.0
            },
            {
                "start_time": 24.831818181818182,
                "end_time": 25.081818181818182,
                "pitch": 62,
                "velocity": 80,
                "duration": 0.25,
                "tempo": 120.0
            },
            {
                "start_time": 25.099999999999998,
                "end_time": 25.48409090909091,
                "pitch": 69,
                "velocity": 80,
                "duration": 0.3840909090909115,
                "tempo": 120.0
            },
            {
                "start_time": 25.5,
                "end_time": 25.75,
                "pitch": 74,
                "velocity": 80,
                "duration": 0.25,
                "tempo": 120.0
            },
            {
                "start_time": 25.768181818181816,
                "end_time": 26.152272727272727,
                "pitch": 74,
                "velocity": 80,
                "duration": 0.3840909090909115,
                "tempo": 120.0
            },
            {
                "start_time": 26.436363636363634,
                "end_time": 26.686363636363634,
                "pitch": 60,
                "velocity": 80,
                "duration": 0.25,
                "tempo": 120.0
            },
            {
                "start_time": 26.702272727272724,
                "end_time": 26.956818181818182,
                "pitch": 60,
                "velocity": 80,
                "duration": 0.2545454545454575,
                "tempo": 120.0
            },
            {
                "start_time": 26.974999999999998,
                "end_time": 27.36590909090909,
                "pitch": 66,
                "velocity": 80,
                "duration": 0.39090909090909065,
                "tempo": 120.0
            },
            {
                "start_time": 27.384090909090908,
                "end_time": 27.638636363636362,
                "pitch": 71,
                "velocity": 80,
                "duration": 0.25454545454545396,
                "tempo": 120.0
            },
            {
                "start_time": 27.654545454545453,
                "end_time": 28.04090909090909,
                "pitch": 71,
                "velocity": 80,
                "duration": 0.3863636363636367,
                "tempo": 120.0
            },
            {
                "start_time": 28.325,
                "end_time": 28.575,
                "pitch": 60,
                "velocity": 80,
                "duration": 0.25,
                "tempo": 120.0
            },
            {
                "start_time": 28.593181818181815,
                "end_time": 28.843181818181815,
                "pitch": 60,
                "velocity": 80,
                "duration": 0.25,
                "tempo": 120.0
            },
            {
                "start_time": 28.85909090909091,
                "end_time": 29.243181818181817,
                "pitch": 68,
                "velocity": 80,
                "duration": 0.38409090909090793,
                "tempo": 120.0
            },
            {
                "start_time": 29.261363636363637,
                "end_time": 29.513636363636362,
                "pitch": 71,
                "velocity": 80,
                "duration": 0.2522727272727252,
                "tempo": 120.0
            },
            {
                "start_time": 29.529545454545453,
                "end_time": 29.920454545454543,
                "pitch": 71,
                "velocity": 80,
                "duration": 0.39090909090909065,
                "tempo": 120.0
            },
            {
                "start_time": 29.938636363636363,
                "end_time": 30.188636363636363,
                "pitch": 61,
                "velocity": 64,
                "duration": 0.25,
                "tempo": 120.0
            },
            {
                "start_time": 30.204545454545453,
                "end_time": 30.32272727272727,
                "pitch": 64,
                "velocity": 64,
                "duration": 0.11818181818181728,
                "tempo": 120.0
            },
            {
                "start_time": 30.33863636363636,
                "end_time": 30.454545454545453,
                "pitch": 71,
                "velocity": 64,
                "duration": 0.11590909090909207,
                "tempo": 120.0
            },
            {
                "start_time": 30.472727272727273,
                "end_time": 30.58863636363636,
                "pitch": 64,
                "velocity": 64,
                "duration": 0.11590909090908852,
                "tempo": 120.0
            },
            {
                "start_time": 30.60681818181818,
                "end_time": 30.722727272727273,
                "pitch": 75,
                "velocity": 64,
                "duration": 0.11590909090909207,
                "tempo": 120.0
            },
            {
                "start_time": 30.74090909090909,
                "end_time": 30.85681818181818,
                "pitch": 71,
                "velocity": 64,
                "duration": 0.11590909090909207,
                "tempo": 120.0
            },
            {
                "start_time": 30.87272727272727,
                "end_time": 31.125,
                "pitch": 76,
                "velocity": 64,
                "duration": 0.25227272727272876,
                "tempo": 120.0
            },
            {
                "start_time": 31.143181818181816,
                "end_time": 31.261363636363633,
                "pitch": 75,
                "velocity": 64,
                "duration": 0.11818181818181728,
                "tempo": 120.0
            },
            {
                "start_time": 31.279545454545453,
                "end_time": 31.39772727272727,
                "pitch": 71,
                "velocity": 64,
                "duration": 0.11818181818181728,
                "tempo": 120.0
            },
            {
                "start_time": 31.41590909090909,
                "end_time": 31.534090909090907,
                "pitch": 75,
                "velocity": 64,
                "duration": 0.11818181818181728,
                "tempo": 120.0
            },
            {
                "start_time": 31.552272727272726,
                "end_time": 31.799999999999997,
                "pitch": 61,
                "velocity": 64,
                "duration": 0.24772727272727124,
                "tempo": 120.0
            },
            {
                "start_time": 31.818181818181817,
                "end_time": 31.93409090909091,
                "pitch": 64,
                "velocity": 64,
                "duration": 0.11590909090909207,
                "tempo": 120.0
            },
            {
                "start_time": 31.952272727272724,
                "end_time": 32.06818181818182,
                "pitch": 71,
                "velocity": 64,
                "duration": 0.11590909090909562,
                "tempo": 120.0
            },
            {
                "start_time": 32.086363636363636,
                "end_time": 32.336363636363636,
                "pitch": 61,
                "velocity": 64,
                "duration": 0.25,
                "tempo": 120.0
            },
            {
                "start_time": 32.35227272727273,
                "end_time": 32.46818181818182,
                "pitch": 64,
                "velocity": 64,
                "duration": 0.11590909090909207,
                "tempo": 120.0
            },
            {
                "start_time": 32.486363636363635,
                "end_time": 32.60227272727273,
                "pitch": 71,
                "velocity": 64,
                "duration": 0.11590909090909207,
                "tempo": 120.0
            },
            {
                "start_time": 32.62045454545454,
                "end_time": 32.736363636363635,
                "pitch": 64,
                "velocity": 64,
                "duration": 0.11590909090909207,
                "tempo": 120.0
            },
            {
                "start_time": 32.752272727272725,
                "end_time": 32.87045454545454,
                "pitch": 75,
                "velocity": 64,
                "duration": 0.11818181818181728,
                "tempo": 120.0
            },
            {
                "start_time": 32.88636363636363,
                "end_time": 33.002272727272725,
                "pitch": 71,
                "velocity": 64,
                "duration": 0.11590909090909207,
                "tempo": 120.0
            },
            {
                "start_time": 33.02045454545454,
                "end_time": 33.27272727272727,
                "pitch": 76,
                "velocity": 64,
                "duration": 0.2522727272727323,
                "tempo": 120.0
            },
            {
                "start_time": 33.29090909090909,
                "end_time": 33.40909090909091,
                "pitch": 75,
                "velocity": 64,
                "duration": 0.11818181818181728,
                "tempo": 120.0
            },
            {
                "start_time": 33.425,
                "end_time": 33.54545454545455,
                "pitch": 71,
                "velocity": 64,
                "duration": 0.12045454545454959,
                "tempo": 120.0
            },
            {
                "start_time": 33.56136363636364,
                "end_time": 33.679545454545455,
                "pitch": 75,
                "velocity": 64,
                "duration": 0.11818181818181728,
                "tempo": 120.0
            },
            {
                "start_time": 33.69772727272727,
                "end_time": 33.94772727272727,
                "pitch": 61,
                "velocity": 64,
                "duration": 0.25,
                "tempo": 120.0
            },
            {
                "start_time": 33.965909090909086,
                "end_time": 34.08181818181818,
                "pitch": 64,
                "velocity": 64,
                "duration": 0.11590909090909207,
                "tempo": 120.0
            },
            {
                "start_time": 34.1,
                "end_time": 34.215909090909086,
                "pitch": 71,
                "velocity": 64,
                "duration": 0.11590909090908497,
                "tempo": 120.0
            },
            {
                "start_time": 34.23409090909091,
                "end_time": 34.486363636363635,
                "pitch": 60,
                "velocity": 64,
                "duration": 0.2522727272727252,
                "tempo": 120.0
            },
            {
                "start_time": 34.50454545454545,
                "end_time": 34.62272727272727,
                "pitch": 64,
                "velocity": 64,
                "duration": 0.11818181818181728,
                "tempo": 120.0
            },
            {
                "start_time": 34.64090909090909,
                "end_time": 34.75909090909091,
                "pitch": 70,
                "velocity": 64,
                "duration": 0.11818181818181728,
                "tempo": 120.0
            },
            {
                "start_time": 34.777272727272724,
                "end_time": 34.893181818181816,
                "pitch": 64,
                "velocity": 64,
                "duration": 0.11590909090909207,
                "tempo": 120.0
            },
            {
                "start_time": 34.90909090909091,
                "end_time": 35.027272727272724,
                "pitch": 75,
                "velocity": 64,
                "duration": 0.11818181818181728,
                "tempo": 120.0
            },
            {
                "start_time": 35.043181818181814,
                "end_time": 35.15909090909091,
                "pitch": 70,
                "velocity": 64,
                "duration": 0.11590909090909207,
                "tempo": 120.0
            },
            {
                "start_time": 35.17727272727272,
                "end_time": 35.429545454545455,
                "pitch": 76,
                "velocity": 64,
                "duration": 0.2522727272727323,
                "tempo": 120.0
            },
            {
                "start_time": 35.445454545454545,
                "end_time": 35.56590909090909,
                "pitch": 75,
                "velocity": 64,
                "duration": 0.12045454545454248,
                "tempo": 120.0
            },
            {
                "start_time": 35.58181818181818,
                "end_time": 35.70227272727273,
                "pitch": 70,
                "velocity": 64,
                "duration": 0.12045454545454959,
                "tempo": 120.0
            },
            {
                "start_time": 35.71818181818182,
                "end_time": 35.836363636363636,
                "pitch": 75,
                "velocity": 64,
                "duration": 0.11818181818181728,
                "tempo": 120.0
            },
            {
                "start_time": 35.85454545454545,
                "end_time": 36.10454545454545,
                "pitch": 60,
                "velocity": 64,
                "duration": 0.25,
                "tempo": 120.0
            },
            {
                "start_time": 36.12272727272727,
                "end_time": 36.23863636363636,
                "pitch": 64,
                "velocity": 64,
                "duration": 0.11590909090909207,
                "tempo": 120.0
            },
            {
                "start_time": 36.25454545454545,
                "end_time": 36.37272727272727,
                "pitch": 70,
                "velocity": 64,
                "duration": 0.11818181818181728,
                "tempo": 120.0
            },
            {
                "start_time": 36.38863636363636,
                "end_time": 36.643181818181816,
                "pitch": 60,
                "velocity": 64,
                "duration": 0.2545454545454575,
                "tempo": 120.0
            },
            {
                "start_time": 36.66136363636363,
                "end_time": 36.779545454545456,
                "pitch": 64,
                "velocity": 64,
                "duration": 0.11818181818182438,
                "tempo": 120.0
            },
            {
                "start_time": 36.79772727272727,
                "end_time": 36.91590909090909,
                "pitch": 70,
                "velocity": 64,
                "duration": 0.11818181818181728,
                "tempo": 120.0
            },
            {
                "start_time": 36.934090909090905,
                "end_time": 37.04772727272727,
                "pitch": 64,
                "velocity": 64,
                "duration": 0.11363636363636687,
                "tempo": 120.0
            },
            {
                "start_time": 37.06363636363636,
                "end_time": 37.179545454545455,
                "pitch": 75,
                "velocity": 64,
                "duration": 0.11590909090909207,
                "tempo": 120.0
            },
            {
                "start_time": 37.195454545454545,
                "end_time": 37.309090909090905,
                "pitch": 70,
                "velocity": 64,
                "duration": 0.11363636363635976,
                "tempo": 120.0
            },
            {
                "start_time": 37.32727272727273,
                "end_time": 37.574999999999996,
                "pitch": 76,
                "velocity": 64,
                "duration": 0.2477272727272677,
                "tempo": 120.0
            },
            {
                "start_time": 37.590909090909086,
                "end_time": 37.70909090909091,
                "pitch": 75,
                "velocity": 64,
                "duration": 0.11818181818182438,
                "tempo": 120.0
            },
            {
                "start_time": 37.725,
                "end_time": 37.840909090909086,
                "pitch": 70,
                "velocity": 64,
                "duration": 0.11590909090908497,
                "tempo": 120.0
            },
            {
                "start_time": 37.85909090909091,
                "end_time": 37.975,
                "pitch": 75,
                "velocity": 64,
                "duration": 0.11590909090909207,
                "tempo": 120.0
            },
            {
                "start_time": 37.99318181818182,
                "end_time": 38.24772727272727,
                "pitch": 60,
                "velocity": 64,
                "duration": 0.2545454545454504,
                "tempo": 120.0
            },
            {
                "start_time": 38.26590909090909,
                "end_time": 38.38409090909091,
                "pitch": 64,
                "velocity": 64,
                "duration": 0.11818181818181728,
                "tempo": 120.0
            },
            {
                "start_time": 38.4,
                "end_time": 38.518181818181816,
                "pitch": 70,
                "velocity": 64,
                "duration": 0.11818181818181728,
                "tempo": 120.0
            },
            {
                "start_time": 38.53636363636363,
                "end_time": 38.78636363636363,
                "pitch": 61,
                "velocity": 64,
                "duration": 0.25,
                "tempo": 120.0
            },
            {
                "start_time": 38.804545454545455,
                "end_time": 38.92045454545455,
                "pitch": 64,
                "velocity": 64,
                "duration": 0.11590909090909207,
                "tempo": 120.0
            },
            {
                "start_time": 38.93636363636364,
                "end_time": 39.054545454545455,
                "pitch": 71,
                "velocity": 64,
                "duration": 0.11818181818181728,
                "tempo": 120.0
            },
            {
                "start_time": 39.070454545454545,
                "end_time": 39.18636363636364,
                "pitch": 64,
                "velocity": 64,
                "duration": 0.11590909090909207,
                "tempo": 120.0
            },
            {
                "start_time": 39.20454545454545,
                "end_time": 39.320454545454545,
                "pitch": 75,
                "velocity": 64,
                "duration": 0.11590909090909207,
                "tempo": 120.0
            },
            {
                "start_time": 39.33863636363636,
                "end_time": 39.45454545454545,
                "pitch": 71,
                "velocity": 64,
                "duration": 0.11590909090909207,
                "tempo": 120.0
            },
            {
                "start_time": 39.470454545454544,
                "end_time": 39.72272727272727,
                "pitch": 76,
                "velocity": 64,
                "duration": 0.2522727272727252,
                "tempo": 120.0
            },
            {
                "start_time": 39.74090909090909,
                "end_time": 39.85909090909091,
                "pitch": 75,
                "velocity": 64,
                "duration": 0.11818181818181728,
                "tempo": 120.0
            },
            {
                "start_time": 39.877272727272725,
                "end_time": 39.99545454545454,
                "pitch": 71,
                "velocity": 64,
                "duration": 0.11818181818181728,
                "tempo": 120.0
            },
            {
                "start_time": 40.01363636363636,
                "end_time": 40.13181818181818,
                "pitch": 75,
                "velocity": 64,
                "duration": 0.11818181818182438,
                "tempo": 120.0
            },
            {
                "start_time": 40.15,
                "end_time": 40.4,
                "pitch": 61,
                "velocity": 64,
                "duration": 0.25,
                "tempo": 120.0
            },
            {
                "start_time": 40.41590909090909,
                "end_time": 40.53181818181818,
                "pitch": 64,
                "velocity": 64,
                "duration": 0.11590909090909207,
                "tempo": 120.0
            },
            {
                "start_time": 40.55,
                "end_time": 40.66590909090909,
                "pitch": 71,
                "velocity": 64,
                "duration": 0.11590909090909207,
                "tempo": 120.0
            },
            {
                "start_time": 40.684090909090905,
                "end_time": 40.934090909090905,
                "pitch": 61,
                "velocity": 64,
                "duration": 0.25,
                "tempo": 120.0
            },
            {
                "start_time": 40.949999999999996,
                "end_time": 41.06818181818181,
                "pitch": 64,
                "velocity": 64,
                "duration": 0.11818181818181728,
                "tempo": 120.0
            },
            {
                "start_time": 41.084090909090904,
                "end_time": 41.199999999999996,
                "pitch": 71,
                "velocity": 64,
                "duration": 0.11590909090909207,
                "tempo": 120.0
            },
            {
                "start_time": 41.21818181818182,
                "end_time": 41.336363636363636,
                "pitch": 64,
                "velocity": 64,
                "duration": 0.11818181818181728,
                "tempo": 120.0
            },
            {
                "start_time": 41.35454545454545,
                "end_time": 41.47272727272727,
                "pitch": 75,
                "velocity": 64,
                "duration": 0.11818181818181728,
                "tempo": 120.0
            },
            {
                "start_time": 41.49090909090909,
                "end_time": 41.60909090909091,
                "pitch": 71,
                "velocity": 64,
                "duration": 0.11818181818181728,
                "tempo": 120.0
            },
            {
                "start_time": 41.625,
                "end_time": 41.87954545454545,
                "pitch": 76,
                "velocity": 64,
                "duration": 0.2545454545454504,
                "tempo": 120.0
            },
            {
                "start_time": 41.89772727272727,
                "end_time": 42.01590909090909,
                "pitch": 75,
                "velocity": 64,
                "duration": 0.11818181818181728,
                "tempo": 120.0
            },
            {
                "start_time": 42.03409090909091,
                "end_time": 42.152272727272724,
                "pitch": 71,
                "velocity": 64,
                "duration": 0.11818181818181728,
                "tempo": 120.0
            },
            {
                "start_time": 42.17045454545455,
                "end_time": 42.288636363636364,
                "pitch": 75,
                "velocity": 64,
                "duration": 0.11818181818181728,
                "tempo": 120.0
            },
            {
                "start_time": 42.30681818181818,
                "end_time": 42.55681818181818,
                "pitch": 61,
                "velocity": 64,
                "duration": 0.25,
                "tempo": 120.0
            },
            {
                "start_time": 42.57272727272727,
                "end_time": 42.68863636363636,
                "pitch": 64,
                "velocity": 64,
                "duration": 0.11590909090909207,
                "tempo": 120.0
            },
            {
                "start_time": 42.70681818181818,
                "end_time": 42.82272727272727,
                "pitch": 71,
                "velocity": 64,
                "duration": 0.11590909090909207,
                "tempo": 120.0
            },
            {
                "start_time": 42.840909090909086,
                "end_time": 43.090909090909086,
                "pitch": 60,
                "velocity": 64,
                "duration": 0.25,
                "tempo": 120.0
            },
            {
                "start_time": 43.10681818181818,
                "end_time": 43.225,
                "pitch": 64,
                "velocity": 64,
                "duration": 0.11818181818182438,
                "tempo": 120.0
            },
            {
                "start_time": 43.24090909090909,
                "end_time": 43.35681818181818,
                "pitch": 70,
                "velocity": 64,
                "duration": 0.11590909090908497,
                "tempo": 120.0
            },
            {
                "start_time": 43.375,
                "end_time": 43.49090909090909,
                "pitch": 64,
                "velocity": 64,
                "duration": 0.11590909090909207,
                "tempo": 120.0
            },
            {
                "start_time": 43.50909090909091,
                "end_time": 43.625,
                "pitch": 75,
                "velocity": 64,
                "duration": 0.11590909090909207,
                "tempo": 120.0
            },
            {
                "start_time": 43.64090909090909,
                "end_time": 43.75909090909091,
                "pitch": 70,
                "velocity": 64,
                "duration": 0.11818181818181728,
                "tempo": 120.0
            },
            {
                "start_time": 43.775,
                "end_time": 44.027272727272724,
                "pitch": 76,
                "velocity": 64,
                "duration": 0.2522727272727252,
                "tempo": 120.0
            },
            {
                "start_time": 44.04545454545455,
                "end_time": 44.163636363636364,
                "pitch": 75,
                "velocity": 64,
                "duration": 0.11818181818181728,
                "tempo": 120.0
            },
            {
                "start_time": 44.18181818181818,
                "end_time": 44.3,
                "pitch": 70,
                "velocity": 64,
                "duration": 0.11818181818181728,
                "tempo": 120.0
            },
            {
                "start_time": 44.31590909090909,
                "end_time": 44.43636363636364,
                "pitch": 75,
                "velocity": 64,
                "duration": 0.12045454545454959,
                "tempo": 120.0
            },
            {
                "start_time": 44.45227272727273,
                "end_time": 44.70227272727273,
                "pitch": 60,
                "velocity": 64,
                "duration": 0.25,
                "tempo": 120.0
            },
            {
                "start_time": 44.720454545454544,
                "end_time": 44.836363636363636,
                "pitch": 64,
                "velocity": 64,
                "duration": 0.11590909090909207,
                "tempo": 120.0
            },
            {
                "start_time": 44.85454545454545,
                "end_time": 44.970454545454544,
                "pitch": 70,
                "velocity": 64,
                "duration": 0.11590909090909207,
                "tempo": 120.0
            },
            {
                "start_time": 44.98863636363636,
                "end_time": 45.23863636363636,
                "pitch": 60,
                "velocity": 64,
                "duration": 0.25,
                "tempo": 120.0
            },
            {
                "start_time": 45.25454545454545,
                "end_time": 45.37045454545454,
                "pitch": 64,
                "velocity": 64,
                "duration": 0.11590909090909207,
                "tempo": 120.0
            },
            {
                "start_time": 45.38863636363636,
                "end_time": 45.50454545454545,
                "pitch": 70,
                "velocity": 64,
                "duration": 0.11590909090909207,
                "tempo": 120.0
            },
            {
                "start_time": 45.52272727272727,
                "end_time": 45.63863636363636,
                "pitch": 64,
                "velocity": 64,
                "duration": 0.11590909090908497,
                "tempo": 120.0
            },
            {
                "start_time": 45.65454545454545,
                "end_time": 45.77272727272727,
                "pitch": 75,
                "velocity": 64,
                "duration": 0.11818181818182438,
                "tempo": 120.0
            },
            {
                "start_time": 45.788636363636364,
                "end_time": 45.90454545454545,
                "pitch": 70,
                "velocity": 64,
                "duration": 0.11590909090908497,
                "tempo": 120.0
            },
            {
                "start_time": 45.92272727272727,
                "end_time": 46.175,
                "pitch": 76,
                "velocity": 64,
                "duration": 0.2522727272727252,
                "tempo": 120.0
            },
            {
                "start_time": 46.19318181818181,
                "end_time": 46.31136363636364,
                "pitch": 75,
                "velocity": 64,
                "duration": 0.11818181818182438,
                "tempo": 120.0
            },
            {
                "start_time": 46.32727272727273,
                "end_time": 46.44772727272727,
                "pitch": 70,
                "velocity": 64,
                "duration": 0.12045454545454248,
                "tempo": 120.0
            },
            {
                "start_time": 46.46363636363636,
                "end_time": 46.58181818181818,
                "pitch": 75,
                "velocity": 64,
                "duration": 0.11818181818181728,
                "tempo": 120.0
            },
            {
                "start_time": 46.599999999999994,
                "end_time": 46.849999999999994,
                "pitch": 60,
                "velocity": 64,
                "duration": 0.25,
                "tempo": 120.0
            },
            {
                "start_time": 46.86818181818182,
                "end_time": 46.98409090909091,
                "pitch": 64,
                "velocity": 64,
                "duration": 0.11590909090909207,
                "tempo": 120.0
            },
            {
                "start_time": 47.0,
                "end_time": 47.11818181818182,
                "pitch": 70,
                "velocity": 64,
                "duration": 0.11818181818181728,
                "tempo": 120.0
            },
            {
                "start_time": 77.5090909090909,
                "end_time": 77.7590909090909,
                "pitch": 64,
                "velocity": 51,
                "duration": 0.25,
                "tempo": 120.0
            },
            {
                "start_time": 77.77727272727272,
                "end_time": 78.02727272727272,
                "pitch": 64,
                "velocity": 51,
                "duration": 0.25,
                "tempo": 120.0
            },
            {
                "start_time": 78.04318181818181,
                "end_time": 78.42954545454545,
                "pitch": 71,
                "velocity": 51,
                "duration": 0.38636363636364024,
                "tempo": 120.0
            },
            {
                "start_time": 78.44772727272726,
                "end_time": 78.70227272727273,
                "pitch": 76,
                "velocity": 51,
                "duration": 0.2545454545454646,
                "tempo": 120.0
            },
            {
                "start_time": 78.71818181818182,
                "end_time": 79.1,
                "pitch": 76,
                "velocity": 51,
                "duration": 0.3818181818181756,
                "tempo": 120.0
            },
            {
                "start_time": 79.11590909090908,
                "end_time": 79.36363636363636,
                "pitch": 64,
                "velocity": 51,
                "duration": 0.2477272727272748,
                "tempo": 120.0
            },
            {
                "start_time": 79.65681818181818,
                "end_time": 79.91590909090908,
                "pitch": 64,
                "velocity": 51,
                "duration": 0.2590909090909008,
                "tempo": 120.0
            },
            {
                "start_time": 79.93409090909091,
                "end_time": 80.18409090909091,
                "pitch": 64,
                "velocity": 51,
                "duration": 0.25,
                "tempo": 120.0
            },
            {
                "start_time": 80.2,
                "end_time": 80.5840909090909,
                "pitch": 71,
                "velocity": 51,
                "duration": 0.3840909090909008,
                "tempo": 120.0
            },
            {
                "start_time": 80.60227272727272,
                "end_time": 80.85227272727272,
                "pitch": 76,
                "velocity": 51,
                "duration": 0.25,
                "tempo": 120.0
            },
            {
                "start_time": 80.86818181818181,
                "end_time": 81.25681818181818,
                "pitch": 76,
                "velocity": 51,
                "duration": 0.38863636363636545,
                "tempo": 120.0
            },
            {
                "start_time": 81.27499999999999,
                "end_time": 81.52954545454546,
                "pitch": 64,
                "velocity": 51,
                "duration": 0.2545454545454646,
                "tempo": 120.0
            },
            {
                "start_time": 81.81363636363636,
                "end_time": 82.06363636363636,
                "pitch": 64,
                "velocity": 51,
                "duration": 0.25,
                "tempo": 120.0
            },
            {
                "start_time": 82.07954545454545,
                "end_time": 82.32954545454545,
                "pitch": 64,
                "velocity": 51,
                "duration": 0.25,
                "tempo": 120.0
            },
            {
                "start_time": 82.34772727272727,
                "end_time": 82.73181818181818,
                "pitch": 71,
                "velocity": 51,
                "duration": 0.38409090909091503,
                "tempo": 120.0
            },
            {
                "start_time": 82.74772727272727,
                "end_time": 82.99772727272727,
                "pitch": 76,
                "velocity": 51,
                "duration": 0.25,
                "tempo": 120.0
            },
            {
                "start_time": 83.01590909090909,
                "end_time": 83.39999999999999,
                "pitch": 76,
                "velocity": 51,
                "duration": 0.3840909090909008,
                "tempo": 120.0
            },
            {
                "start_time": 83.41590909090908,
                "end_time": 83.66590909090908,
                "pitch": 64,
                "velocity": 51,
                "duration": 0.25,
                "tempo": 120.0
            },
            {
                "start_time": 83.95454545454545,
                "end_time": 84.2090909090909,
                "pitch": 64,
                "velocity": 51,
                "duration": 0.2545454545454504,
                "tempo": 120.0
            },
            {
                "start_time": 84.22727272727272,
                "end_time": 84.48181818181818,
                "pitch": 64,
                "velocity": 51,
                "duration": 0.2545454545454646,
                "tempo": 120.0
            },
            {
                "start_time": 84.5,
                "end_time": 84.88863636363637,
                "pitch": 71,
                "velocity": 51,
                "duration": 0.38863636363636545,
                "tempo": 120.0
            },
            {
                "start_time": 84.90454545454546,
                "end_time": 85.15454545454546,
                "pitch": 76,
                "velocity": 51,
                "duration": 0.25,
                "tempo": 120.0
            },
            {
                "start_time": 85.17272727272727,
                "end_time": 85.55681818181817,
                "pitch": 76,
                "velocity": 51,
                "duration": 0.3840909090909008,
                "tempo": 120.0
            },
            {
                "start_time": 85.57272727272726,
                "end_time": 85.82272727272726,
                "pitch": 64,
                "velocity": 51,
                "duration": 0.25,
                "tempo": 120.0
            },
            {
                "start_time": 86.10681818181818,
                "end_time": 86.35681818181818,
                "pitch": 64,
                "velocity": 51,
                "duration": 0.25,
                "tempo": 120.0
            },
            {
                "start_time": 86.375,
                "end_time": 86.62954545454545,
                "pitch": 64,
                "velocity": 51,
                "duration": 0.2545454545454504,
                "tempo": 120.0
            },
            {
                "start_time": 86.64772727272727,
                "end_time": 87.0340909090909,
                "pitch": 71,
                "velocity": 51,
                "duration": 0.38636363636364024,
                "tempo": 120.0
            },
            {
                "start_time": 87.05227272727272,
                "end_time": 87.30227272727272,
                "pitch": 76,
                "velocity": 51,
                "duration": 0.25,
                "tempo": 120.0
            },
            {
                "start_time": 87.32045454545454,
                "end_time": 87.69772727272726,
                "pitch": 76,
                "velocity": 51,
                "duration": 0.3772727272727252,
                "tempo": 120.0
            },
            {
                "start_time": 87.7159090909091,
                "end_time": 87.96136363636363,
                "pitch": 64,
                "velocity": 51,
                "duration": 0.24545454545453538,
                "tempo": 120.0
            },
            {
                "start_time": 88.25454545454545,
                "end_time": 88.51363636363637,
                "pitch": 64,
                "velocity": 51,
                "duration": 0.25909090909091503,
                "tempo": 120.0
            },
            {
                "start_time": 88.53181818181818,
                "end_time": 88.78636363636363,
                "pitch": 64,
                "velocity": 51,
                "duration": 0.2545454545454504,
                "tempo": 120.0
            },
            {
                "start_time": 88.80454545454545,
                "end_time": 89.19090909090909,
                "pitch": 71,
                "velocity": 51,
                "duration": 0.38636363636364024,
                "tempo": 120.0
            },
            {
                "start_time": 89.20681818181818,
                "end_time": 89.45227272727273,
                "pitch": 76,
                "velocity": 51,
                "duration": 0.2454545454545496,
                "tempo": 120.0
            },
            {
                "start_time": 89.47045454545454,
                "end_time": 89.85454545454544,
                "pitch": 76,
                "velocity": 51,
                "duration": 0.3840909090909008,
                "tempo": 120.0
            },
            {
                "start_time": 89.87272727272727,
                "end_time": 90.12727272727273,
                "pitch": 64,
                "velocity": 51,
                "duration": 0.2545454545454504,
                "tempo": 120.0
            },
            {
                "start_time": 90.41136363636363,
                "end_time": 90.66136363636363,
                "pitch": 64,
                "velocity": 51,
                "duration": 0.25,
                "tempo": 120.0
            },
            {
                "start_time": 90.67954545454545,
                "end_time": 90.92954545454545,
                "pitch": 64,
                "velocity": 51,
                "duration": 0.25,
                "tempo": 120.0
            },
            {
                "start_time": 90.94545454545454,
                "end_time": 91.33181818181818,
                "pitch": 71,
                "velocity": 51,
                "duration": 0.38636363636364024,
                "tempo": 120.0
            },
            {
                "start_time": 91.35,
                "end_time": 91.60454545454544,
                "pitch": 76,
                "velocity": 51,
                "duration": 0.2545454545454504,
                "tempo": 120.0
            },
            {
                "start_time": 91.62045454545454,
                "end_time": 92.00227272727273,
                "pitch": 76,
                "velocity": 51,
                "duration": 0.38181818181818983,
                "tempo": 120.0
            },
            {
                "start_time": 92.02045454545454,
                "end_time": 92.26590909090909,
                "pitch": 64,
                "velocity": 51,
                "duration": 0.2454545454545496,
                "tempo": 120.0
            },
            {
                "start_time": 92.5590909090909,
                "end_time": 92.81818181818181,
                "pitch": 64,
                "velocity": 51,
                "duration": 0.25909090909091503,
                "tempo": 120.0
            },
            {
                "start_time": 92.83636363636363,
                "end_time": 93.08636363636363,
                "pitch": 64,
                "velocity": 51,
                "duration": 0.25,
                "tempo": 120.0
            },
            {
                "start_time": 93.10454545454544,
                "end_time": 93.48636363636363,
                "pitch": 71,
                "velocity": 51,
                "duration": 0.38181818181818983,
                "tempo": 120.0
            },
            {
                "start_time": 93.50454545454545,
                "end_time": 93.75454545454545,
                "pitch": 76,
                "velocity": 51,
                "duration": 0.25,
                "tempo": 120.0
            },
            {
                "start_time": 93.77045454545454,
                "end_time": 94.15454545454546,
                "pitch": 76,
                "velocity": 51,
                "duration": 0.38409090909091503,
                "tempo": 120.0
            },
            {
                "start_time": 94.17272727272727,
                "end_time": 94.42272727272727,
                "pitch": 64,
                "velocity": 51,
                "duration": 0.25,
                "tempo": 120.0
            }
        ],
        "Flute": [
            {
                "start_time": 29.938636363636363,
                "end_time": 31.549999999999997,
                "pitch": 74,
                "velocity": 80,
                "duration": 1.6113636363636346,
                "tempo": 120.0
            },
            {
                "start_time": 31.549999999999997,
                "end_time": 31.799999999999997,
                "pitch": 71,
                "velocity": 80,
                "duration": 0.25,
                "tempo": 120.0
            },
            {
                "start_time": 31.818181818181817,
                "end_time": 31.93409090909091,
                "pitch": 73,
                "velocity": 80,
                "duration": 0.11590909090909207,
                "tempo": 120.0
            },
            {
                "start_time": 31.952272727272724,
                "end_time": 32.87045454545454,
                "pitch": 75,
                "velocity": 80,
                "duration": 0.918181818181818,
                "tempo": 120.0
            },
            {
                "start_time": 32.88636363636363,
                "end_time": 33.13636363636363,
                "pitch": 73,
                "velocity": 80,
                "duration": 0.25,
                "tempo": 120.0
            },
            {
                "start_time": 33.154545454545456,
                "end_time": 33.54545454545455,
                "pitch": 75,
                "velocity": 80,
                "duration": 0.39090909090909065,
                "tempo": 120.0
            },
            {
                "start_time": 33.56136363636364,
                "end_time": 33.94772727272727,
                "pitch": 76,
                "velocity": 80,
                "duration": 0.38636363636363313,
                "tempo": 120.0
            },
            {
                "start_time": 33.965909090909086,
                "end_time": 34.215909090909086,
                "pitch": 78,
                "velocity": 80,
                "duration": 0.25,
                "tempo": 120.0
            },
            {
                "start_time": 34.23181818181818,
                "end_time": 36.91590909090909,
                "pitch": 75,
                "velocity": 80,
                "duration": 2.684090909090912,
                "tempo": 120.0
            },
            {
                "start_time": 37.99318181818182,
                "end_time": 38.111363636363635,
                "pitch": 68,
                "velocity": 80,
                "duration": 0.11818181818181728,
                "tempo": 120.0
            },
            {
                "start_time": 38.127272727272725,
                "end_time": 38.24772727272727,
                "pitch": 70,
                "velocity": 80,
                "duration": 0.12045454545454248,
                "tempo": 120.0
            },
            {
                "start_time": 38.26363636363636,
                "end_time": 38.38181818181818,
                "pitch": 71,
                "velocity": 80,
                "duration": 0.11818181818182438,
                "tempo": 120.0
            },
            {
                "start_time": 38.4,
                "end_time": 38.518181818181816,
                "pitch": 73,
                "velocity": 80,
                "duration": 0.11818181818181728,
                "tempo": 120.0
            },
            {
                "start_time": 38.53636363636363,
                "end_time": 40.13181818181818,
                "pitch": 75,
                "velocity": 80,
                "duration": 1.595454545454551,
                "tempo": 120.0
            },
            {
                "start_time": 40.14772727272727,
                "end_time": 40.4,
                "pitch": 71,
                "velocity": 80,
                "duration": 0.2522727272727252,
                "tempo": 120.0
            },
            {
                "start_time": 40.41590909090909,
                "end_time": 40.53181818181818,
                "pitch": 73,
                "velocity": 80,
                "duration": 0.11590909090909207,
                "tempo": 120.0
            },
            {
                "start_time": 40.55,
                "end_time": 41.47272727272727,
                "pitch": 75,
                "velocity": 80,
                "duration": 0.922727272727272,
                "tempo": 120.0
            },
            {
                "start_time": 41.48863636363636,
                "end_time": 41.74318181818182,
                "pitch": 73,
                "velocity": 80,
                "duration": 0.2545454545454575,
                "tempo": 120.0
            },
            {
                "start_time": 41.76136363636363,
                "end_time": 42.152272727272724,
                "pitch": 75,
                "velocity": 80,
                "duration": 0.39090909090909065,
                "tempo": 120.0
            },
            {
                "start_time": 42.17045454545455,
                "end_time": 42.55681818181818,
                "pitch": 76,
                "velocity": 80,
                "duration": 0.38636363636363313,
                "tempo": 120.0
            },
            {
                "start_time": 42.57272727272727,
                "end_time": 42.82272727272727,
                "pitch": 78,
                "velocity": 80,
                "duration": 0.25,
                "tempo": 120.0
            },
            {
                "start_time": 42.840909090909086,
                "end_time": 47.11818181818182,
                "pitch": 75,
                "velocity": 80,
                "duration": 4.277272727272731,
                "tempo": 120.0
            },
            {
                "start_time": 47.13409090909091,
                "end_time": 49.002272727272725,
                "pitch": 76,
                "velocity": 101,
                "duration": 1.8681818181818173,
                "tempo": 120.0
            },
            {
                "start_time": 49.018181818181816,
                "end_time": 49.13863636363636,
                "pitch": 74,
                "velocity": 101,
                "duration": 0.12045454545454248,
                "tempo": 120.0
            },
            {
                "start_time": 49.15454545454545,
                "end_time": 49.27272727272727,
                "pitch": 73,
                "velocity": 101,
                "duration": 0.11818181818182438,
                "tempo": 120.0
            },
            {
                "start_time": 49.29090909090909,
                "end_time": 51.14772727272727,
                "pitch": 74,
                "velocity": 101,
                "duration": 1.8568181818181841,
                "tempo": 120.0
            },
            {
                "start_time": 51.16590909090909,
                "end_time": 51.28409090909091,
                "pitch": 73,
                "velocity": 101,
                "duration": 0.11818181818181728,
                "tempo": 120.0
            },
            {
                "start_time": 51.30227272727272,
                "end_time": 51.42045454545454,
                "pitch": 74,
                "velocity": 101,
                "duration": 0.11818181818181728,
                "tempo": 120.0
            },
            {
                "start_time": 51.43863636363636,
                "end_time": 52.5,
                "pitch": 73,
                "velocity": 101,
                "duration": 1.0613636363636374,
                "tempo": 120.0
            },
            {
                "start_time": 52.51590909090909,
                "end_time": 53.3,
                "pitch": 72,
                "velocity": 101,
                "duration": 0.7840909090909065,
                "tempo": 120.0
            },
            {
                "start_time": 53.31818181818181,
                "end_time": 53.56818181818181,
                "pitch": 69,
                "velocity": 101,
                "duration": 0.25,
                "tempo": 120.0
            },
            {
                "start_time": 53.584090909090904,
                "end_time": 53.836363636363636,
                "pitch": 68,
                "velocity": 101,
                "duration": 0.2522727272727323,
                "tempo": 120.0
            },
            {
                "start_time": 53.85227272727273,
                "end_time": 53.96818181818182,
                "pitch": 69,
                "velocity": 101,
                "duration": 0.11590909090909207,
                "tempo": 120.0
            },
            {
                "start_time": 53.986363636363635,
                "end_time": 55.18181818181818,
                "pitch": 71,
                "velocity": 101,
                "duration": 1.1954545454545453,
                "tempo": 120.0
            },
            {
                "start_time": 55.19772727272727,
                "end_time": 55.31363636363636,
                "pitch": 64,
                "velocity": 101,
                "duration": 0.11590909090909207,
                "tempo": 120.0
            },
            {
                "start_time": 55.33181818181818,
                "end_time": 55.44772727272727,
                "pitch": 66,
                "velocity": 101,
                "duration": 0.11590909090909207,
                "tempo": 120.0
            },
            {
                "start_time": 55.465909090909086,
                "end_time": 55.58181818181818,
                "pitch": 67,
                "velocity": 101,
                "duration": 0.11590909090909207,
                "tempo": 120.0
            },
            {
                "start_time": 55.59772727272727,
                "end_time": 55.715909090909086,
                "pitch": 69,
                "velocity": 101,
                "duration": 0.11818181818181728,
                "tempo": 120.0
            },
            {
                "start_time": 55.73181818181818,
                "end_time": 56.527272727272724,
                "pitch": 70,
                "velocity": 101,
                "duration": 0.7954545454545467,
                "tempo": 120.0
            },
            {
                "start_time": 56.543181818181814,
                "end_time": 56.793181818181814,
                "pitch": 69,
                "velocity": 101,
                "duration": 0.25,
                "tempo": 120.0
            },
            {
                "start_time": 56.81136363636363,
                "end_time": 57.06136363636363,
                "pitch": 70,
                "velocity": 101,
                "duration": 0.25,
                "tempo": 120.0
            },
            {
                "start_time": 57.07727272727273,
                "end_time": 57.195454545454545,
                "pitch": 72,
                "velocity": 101,
                "duration": 0.11818181818181728,
                "tempo": 120.0
            },
            {
                "start_time": 57.211363636363636,
                "end_time": 57.32727272727272,
                "pitch": 74,
                "velocity": 101,
                "duration": 0.11590909090908497,
                "tempo": 120.0
            },
            {
                "start_time": 57.88863636363636,
                "end_time": 58.13863636363636,
                "pitch": 72,
                "velocity": 101,
                "duration": 0.25,
                "tempo": 120.0
            },
            {
                "start_time": 58.15681818181818,
                "end_time": 58.27272727272727,
                "pitch": 74,
                "velocity": 101,
                "duration": 0.11590909090909207,
                "tempo": 120.0
            },
            {
                "start_time": 58.288636363636364,
                "end_time": 58.67727272727272,
                "pitch": 76,
                "velocity": 101,
                "duration": 0.38863636363635834,
                "tempo": 120.0
            },
            {
                "start_time": 58.695454545454545,
                "end_time": 58.949999999999996,
                "pitch": 76,
                "velocity": 101,
                "duration": 0.2545454545454504,
                "tempo": 120.0
            },
            {
                "start_time": 58.96818181818182,
                "end_time": 59.349999999999994,
                "pitch": 76,
                "velocity": 101,
                "duration": 0.3818181818181756,
                "tempo": 120.0
            },
            {
                "start_time": 59.36818181818182,
                "end_time": 59.752272727272725,
                "pitch": 77,
                "velocity": 101,
                "duration": 0.38409090909090793,
                "tempo": 120.0
            },
            {
                "start_time": 59.768181818181816,
                "end_time": 60.018181818181816,
                "pitch": 78,
                "velocity": 101,
                "duration": 0.25,
                "tempo": 120.0
            },
            {
                "start_time": 60.03636363636363,
                "end_time": 62.175,
                "pitch": 78,
                "velocity": 101,
                "duration": 2.1386363636363654,
                "tempo": 120.0
            },
            {
                "start_time": 62.19318181818181,
                "end_time": 64.06818181818181,
                "pitch": 77,
                "velocity": 101,
                "duration": 1.875,
                "tempo": 120.0
            },
            {
                "start_time": 64.3409090909091,
                "end_time": 66.20227272727273,
                "pitch": 76,
                "velocity": 101,
                "duration": 1.8613636363636346,
                "tempo": 120.0
            },
            {
                "start_time": 66.22045454545454,
                "end_time": 66.33636363636363,
                "pitch": 74,
                "velocity": 101,
                "duration": 0.11590909090908497,
                "tempo": 120.0
            },
            {
                "start_time": 66.35227272727272,
                "end_time": 66.47045454545454,
                "pitch": 73,
                "velocity": 101,
                "duration": 0.11818181818182438,
                "tempo": 120.0
            },
            {
                "start_time": 66.48636363636363,
                "end_time": 66.60454545454544,
                "pitch": 74,
                "velocity": 101,
                "duration": 0.11818181818181017,
                "tempo": 120.0
            },
            {
                "start_time": 66.62272727272727,
                "end_time": 66.74090909090908,
                "pitch": 73,
                "velocity": 101,
                "duration": 0.11818181818181017,
                "tempo": 120.0
            },
            {
                "start_time": 66.7590909090909,
                "end_time": 67.54772727272727,
                "pitch": 71,
                "velocity": 101,
                "duration": 0.7886363636363711,
                "tempo": 120.0
            },
            {
                "start_time": 67.56590909090909,
                "end_time": 67.95,
                "pitch": 69,
                "velocity": 101,
                "duration": 0.38409090909091503,
                "tempo": 120.0
            },
            {
                "start_time": 67.9659090909091,
                "end_time": 68.35454545454544,
                "pitch": 71,
                "velocity": 101,
                "duration": 0.38863636363635123,
                "tempo": 120.0
            },
            {
                "start_time": 68.37045454545454,
                "end_time": 68.62727272727273,
                "pitch": 73,
                "velocity": 101,
                "duration": 0.25681818181818983,
                "tempo": 120.0
            },
            {
                "start_time": 68.64318181818182,
                "end_time": 68.91136363636363,
                "pitch": 71,
                "velocity": 101,
                "duration": 0.26818181818181586,
                "tempo": 120.0
            },
            {
                "start_time": 68.91136363636363,
                "end_time": 69.44545454545454,
                "pitch": 73,
                "velocity": 101,
                "duration": 0.5340909090909065,
                "tempo": 120.0
            },
            {
                "start_time": 69.44545454545454,
                "end_time": 69.56136363636364,
                "pitch": 71,
                "velocity": 101,
                "duration": 0.11590909090909918,
                "tempo": 120.0
            },
            {
                "start_time": 69.57954545454545,
                "end_time": 69.69545454545454,
                "pitch": 69,
                "velocity": 101,
                "duration": 0.11590909090908497,
                "tempo": 120.0
            },
            {
                "start_time": 69.71136363636363,
                "end_time": 70.10227272727272,
                "pitch": 68,
                "velocity": 101,
                "duration": 0.39090909090909065,
                "tempo": 120.0
            },
            {
                "start_time": 70.12045454545454,
                "end_time": 70.50681818181818,
                "pitch": 69,
                "velocity": 101,
                "duration": 0.38636363636364024,
                "tempo": 120.0
            },
            {
                "start_time": 70.52272727272727,
                "end_time": 70.77272727272727,
                "pitch": 71,
                "velocity": 101,
                "duration": 0.25,
                "tempo": 120.0
            },
            {
                "start_time": 70.79090909090908,
                "end_time": 71.04090909090908,
                "pitch": 68,
                "velocity": 101,
                "duration": 0.25,
                "tempo": 120.0
            },
            {
                "start_time": 71.05681818181817,
                "end_time": 71.57954545454545,
                "pitch": 64,
                "velocity": 101,
                "duration": 0.5227272727272805,
                "tempo": 120.0
            },
            {
                "start_time": 71.59772727272727,
                "end_time": 71.7159090909091,
                "pitch": 64,
                "velocity": 101,
                "duration": 0.11818181818182438,
                "tempo": 120.0
            },
            {
                "start_time": 71.73409090909091,
                "end_time": 71.85227272727272,
                "pitch": 62,
                "velocity": 101,
                "duration": 0.11818181818181017,
                "tempo": 120.0
            },
            {
                "start_time": 71.86818181818181,
                "end_time": 71.98636363636363,
                "pitch": 61,
                "velocity": 101,
                "duration": 0.11818181818182438,
                "tempo": 120.0
            },
            {
                "start_time": 72.00227272727273,
                "end_time": 72.12045454545454,
                "pitch": 62,
                "velocity": 101,
                "duration": 0.11818181818181017,
                "tempo": 120.0
            },
            {
                "start_time": 72.13636363636363,
                "end_time": 72.25227272727273,
                "pitch": 64,
                "velocity": 101,
                "duration": 0.11590909090909918,
                "tempo": 120.0
            },
            {
                "start_time": 72.27045454545454,
                "end_time": 72.38636363636363,
                "pitch": 66,
                "velocity": 101,
                "duration": 0.11590909090908497,
                "tempo": 120.0
            },
            {
                "start_time": 72.40454545454546,
                "end_time": 72.52272727272727,
                "pitch": 68,
                "velocity": 101,
                "duration": 0.11818181818181017,
                "tempo": 120.0
            },
            {
                "start_time": 72.53863636363636,
                "end_time": 72.6590909090909,
                "pitch": 69,
                "velocity": 101,
                "duration": 0.12045454545454959,
                "tempo": 120.0
            },
            {
                "start_time": 72.675,
                "end_time": 72.79318181818182,
                "pitch": 71,
                "velocity": 101,
                "duration": 0.11818181818182438,
                "tempo": 120.0
            },
            {
                "start_time": 72.81136363636364,
                "end_time": 72.92954545454545,
                "pitch": 74,
                "velocity": 101,
                "duration": 0.11818181818181017,
                "tempo": 120.0
            },
            {
                "start_time": 72.94772727272726,
                "end_time": 77.225,
                "pitch": 73,
                "velocity": 101,
                "duration": 4.277272727272731,
                "tempo": 120.0
            },
            {
                "start_time": 94.43863636363636,
                "end_time": 96.31136363636364,
                "pitch": 76,
                "velocity": 101,
                "duration": 1.8727272727272748,
                "tempo": 120.0
            },
            {
                "start_time": 96.32954545454545,
                "end_time": 96.44545454545454,
                "pitch": 74,
                "velocity": 101,
                "duration": 0.11590909090908497,
                "tempo": 120.0
            },
            {
                "start_time": 96.46136363636363,
                "end_time": 96.57954545454545,
                "pitch": 73,
                "velocity": 101,
                "duration": 0.11818181818182438,
                "tempo": 120.0
            },
            {
                "start_time": 96.59545454545454,
                "end_time": 98.4590909090909,
                "pitch": 74,
                "velocity": 101,
                "duration": 1.8636363636363598,
                "tempo": 120.0
            },
            {
                "start_time": 98.475,
                "end_time": 98.59318181818182,
                "pitch": 73,
                "velocity": 101,
                "duration": 0.11818181818182438,
                "tempo": 120.0
            },
            {
                "start_time": 98.60909090909091,
                "end_time": 98.725,
                "pitch": 74,
                "velocity": 101,
                "duration": 0.11590909090908497,
                "tempo": 120.0
            },
            {
                "start_time": 98.74318181818181,
                "end_time": 99.80454545454545,
                "pitch": 73,
                "velocity": 101,
                "duration": 1.0613636363636374,
                "tempo": 120.0
            },
            {
                "start_time": 99.82045454545454,
                "end_time": 100.60681818181817,
                "pitch": 72,
                "velocity": 101,
                "duration": 0.7863636363636317,
                "tempo": 120.0
            },
            {
                "start_time": 100.62272727272727,
                "end_time": 100.87272727272727,
                "pitch": 69,
                "velocity": 101,
                "duration": 0.25,
                "tempo": 120.0
            },
            {
                "start_time": 100.89090909090909,
                "end_time": 101.14545454545454,
                "pitch": 68,
                "velocity": 101,
                "duration": 0.2545454545454504,
                "tempo": 120.0
            },
            {
                "start_time": 101.16136363636363,
                "end_time": 101.28181818181818,
                "pitch": 69,
                "velocity": 101,
                "duration": 0.12045454545454959,
                "tempo": 120.0
            },
            {
                "start_time": 101.29772727272727,
                "end_time": 102.49545454545454,
                "pitch": 71,
                "velocity": 101,
                "duration": 1.1977272727272634,
                "tempo": 120.0
            },
            {
                "start_time": 102.51136363636363,
                "end_time": 102.62954545454545,
                "pitch": 64,
                "velocity": 101,
                "duration": 0.11818181818182438,
                "tempo": 120.0
            },
            {
                "start_time": 102.64545454545454,
                "end_time": 102.76363636363637,
                "pitch": 66,
                "velocity": 101,
                "duration": 0.11818181818182438,
                "tempo": 120.0
            },
            {
                "start_time": 64.06818181818181,
                "end_time": 102.89545454545454,
                "pitch": 67,
                "velocity": 101,
                "duration": 38.82727272727273,
                "tempo": 120.0
            },
            {
                "start_time": 102.77954545454546,
                "end_time": 102.89545454545454,
                "pitch": 67,
                "velocity": 101,
                "duration": 0.11590909090908497,
                "tempo": 120.0
            },
            {
                "start_time": 102.91363636363636,
                "end_time": 103.02954545454546,
                "pitch": 69,
                "velocity": 101,
                "duration": 0.11590909090909918,
                "tempo": 120.0
            },
            {
                "start_time": 103.04772727272727,
                "end_time": 103.83636363636363,
                "pitch": 70,
                "velocity": 101,
                "duration": 0.7886363636363569,
                "tempo": 120.0
            },
            {
                "start_time": 103.85227272727272,
                "end_time": 104.10681818181817,
                "pitch": 69,
                "velocity": 101,
                "duration": 0.2545454545454504,
                "tempo": 120.0
            },
            {
                "start_time": 104.125,
                "end_time": 104.375,
                "pitch": 70,
                "velocity": 101,
                "duration": 0.25,
                "tempo": 120.0
            },
            {
                "start_time": 104.39318181818182,
                "end_time": 104.5090909090909,
                "pitch": 72,
                "velocity": 101,
                "duration": 0.11590909090908497,
                "tempo": 120.0
            },
            {
                "start_time": 104.52499999999999,
                "end_time": 104.64318181818182,
                "pitch": 74,
                "velocity": 101,
                "duration": 0.11818181818182438,
                "tempo": 120.0
            },
            {
                "start_time": 105.19318181818181,
                "end_time": 105.44318181818181,
                "pitch": 72,
                "velocity": 101,
                "duration": 0.25,
                "tempo": 120.0
            },
            {
                "start_time": 105.46136363636363,
                "end_time": 105.57727272727273,
                "pitch": 74,
                "velocity": 101,
                "duration": 0.11590909090909918,
                "tempo": 120.0
            },
            {
                "start_time": 105.59545454545454,
                "end_time": 105.98409090909091,
                "pitch": 76,
                "velocity": 101,
                "duration": 0.38863636363636545,
                "tempo": 120.0
            },
            {
                "start_time": 106.0,
                "end_time": 106.25454545454545,
                "pitch": 76,
                "velocity": 101,
                "duration": 0.2545454545454504,
                "tempo": 120.0
            },
            {
                "start_time": 106.27272727272727,
                "end_time": 106.65681818181818,
                "pitch": 76,
                "velocity": 101,
                "duration": 0.38409090909091503,
                "tempo": 120.0
            },
            {
                "start_time": 106.67272727272727,
                "end_time": 107.06136363636364,
                "pitch": 77,
                "velocity": 101,
                "duration": 0.38863636363636545,
                "tempo": 120.0
            },
            {
                "start_time": 107.07954545454545,
                "end_time": 107.3340909090909,
                "pitch": 78,
                "velocity": 101,
                "duration": 0.2545454545454504,
                "tempo": 120.0
            },
            {
                "start_time": 107.35,
                "end_time": 109.48181818181817,
                "pitch": 78,
                "velocity": 101,
                "duration": 2.1318181818181756,
                "tempo": 120.0
            },
            {
                "start_time": 109.49772727272726,
                "end_time": 111.37727272727273,
                "pitch": 77,
                "velocity": 101,
                "duration": 1.8795454545454646,
                "tempo": 120.0
            },
            {
                "start_time": 111.91590909090908,
                "end_time": 113.24090909090908,
                "pitch": 83,
                "velocity": 101,
                "duration": 1.3250000000000028,
                "tempo": 120.0
            },
            {
                "start_time": 113.39318181818182,
                "end_time": 113.64772727272727,
                "pitch": 81,
                "velocity": 101,
                "duration": 0.2545454545454504,
                "tempo": 120.0
            },
            {
                "start_time": 113.66590909090908,
                "end_time": 113.7840909090909,
                "pitch": 79,
                "velocity": 101,
                "duration": 0.11818181818182438,
                "tempo": 120.0
            },
            {
                "start_time": 113.80227272727272,
                "end_time": 114.05227272727272,
                "pitch": 78,
                "velocity": 101,
                "duration": 0.25,
                "tempo": 120.0
            },
            {
                "start_time": 114.06818181818181,
                "end_time": 114.18636363636364,
                "pitch": 79,
                "velocity": 101,
                "duration": 0.11818181818182438,
                "tempo": 120.0
            },
            {
                "start_time": 114.20227272727273,
                "end_time": 114.45454545454545,
                "pitch": 81,
                "velocity": 101,
                "duration": 0.2522727272727252,
                "tempo": 120.0
            },
            {
                "start_time": 114.47272727272727,
                "end_time": 114.72727272727272,
                "pitch": 78,
                "velocity": 101,
                "duration": 0.2545454545454504,
                "tempo": 120.0
            },
            {
                "start_time": 114.74318181818181,
                "end_time": 115.79545454545455,
                "pitch": 74,
                "velocity": 101,
                "duration": 1.0522727272727366,
                "tempo": 120.0
            },
            {
                "start_time": 115.94772727272726,
                "end_time": 117.67727272727272,
                "pitch": 71,
                "velocity": 101,
                "duration": 1.729545454545459,
                "tempo": 120.0
            },
            {
                "start_time": 117.69545454545454,
                "end_time": 118.07954545454545,
                "pitch": 83,
                "velocity": 101,
                "duration": 0.38409090909091503,
                "tempo": 120.0
            },
            {
                "start_time": 118.23181818181817,
                "end_time": 118.48636363636363,
                "pitch": 81,
                "velocity": 101,
                "duration": 0.2545454545454646,
                "tempo": 120.0
            },
            {
                "start_time": 118.50454545454545,
                "end_time": 118.75681818181818,
                "pitch": 79,
                "velocity": 101,
                "duration": 0.2522727272727252,
                "tempo": 120.0
            },
            {
                "start_time": 118.77272727272727,
                "end_time": 118.89090909090909,
                "pitch": 78,
                "velocity": 101,
                "duration": 0.11818181818182438,
                "tempo": 120.0
            },
            {
                "start_time": 118.90681818181818,
                "end_time": 119.02272727272727,
                "pitch": 80,
                "velocity": 101,
                "duration": 0.11590909090908497,
                "tempo": 120.0
            },
            {
                "start_time": 119.04090909090908,
                "end_time": 119.15681818181818,
                "pitch": 81,
                "velocity": 101,
                "duration": 0.11590909090909918,
                "tempo": 120.0
            },
            {
                "start_time": 119.30681818181817,
                "end_time": 119.5590909090909,
                "pitch": 78,
                "velocity": 101,
                "duration": 0.2522727272727252,
                "tempo": 120.0
            },
            {
                "start_time": 119.57499999999999,
                "end_time": 119.69090909090909,
                "pitch": 74,
                "velocity": 101,
                "duration": 0.11590909090909918,
                "tempo": 120.0
            },
            {
                "start_time": 119.7090909090909,
                "end_time": 120.23409090909091,
                "pitch": 76,
                "velocity": 101,
                "duration": 0.5250000000000057,
                "tempo": 120.0
            },
            {
                "start_time": 120.92045454545453,
                "end_time": 121.03636363636363,
                "pitch": 76,
                "velocity": 101,
                "duration": 0.11590909090909918,
                "tempo": 120.0
            },
            {
                "start_time": 121.05454545454545,
                "end_time": 121.17045454545453,
                "pitch": 81,
                "velocity": 101,
                "duration": 0.11590909090908497,
                "tempo": 120.0
            },
            {
                "start_time": 121.18863636363636,
                "end_time": 121.30454545454545,
                "pitch": 83,
                "velocity": 101,
                "duration": 0.11590909090908497,
                "tempo": 120.0
            },
            {
                "start_time": 121.32045454545454,
                "end_time": 121.57499999999999,
                "pitch": 83,
                "velocity": 101,
                "duration": 0.2545454545454504,
                "tempo": 120.0
            },
            {
                "start_time": 121.59318181818182,
                "end_time": 121.71136363636363,
                "pitch": 81,
                "velocity": 101,
                "duration": 0.11818181818181017,
                "tempo": 120.0
            },
            {
                "start_time": 121.72954545454544,
                "end_time": 121.84772727272727,
                "pitch": 83,
                "velocity": 101,
                "duration": 0.11818181818182438,
                "tempo": 120.0
            },
            {
                "start_time": 121.99772727272726,
                "end_time": 122.11590909090908,
                "pitch": 81,
                "velocity": 101,
                "duration": 0.11818181818182438,
                "tempo": 120.0
            },
            {
                "start_time": 122.26590909090909,
                "end_time": 122.38181818181818,
                "pitch": 83,
                "velocity": 101,
                "duration": 0.11590909090908497,
                "tempo": 120.0
            },
            {
                "start_time": 122.5340909090909,
                "end_time": 124.12954545454545,
                "pitch": 88,
                "velocity": 101,
                "duration": 1.595454545454544,
                "tempo": 120.0
            },
            {
                "start_time": 124.14545454545454,
                "end_time": 124.26363636363635,
                "pitch": 86,
                "velocity": 101,
                "duration": 0.11818181818181017,
                "tempo": 120.0
            },
            {
                "start_time": 124.27954545454544,
                "end_time": 124.52954545454544,
                "pitch": 84,
                "velocity": 101,
                "duration": 0.25,
                "tempo": 120.0
            },
            {
                "start_time": 124.54772727272727,
                "end_time": 126.14318181818182,
                "pitch": 83,
                "velocity": 101,
                "duration": 1.595454545454544,
                "tempo": 120.0
            },
            {
                "start_time": 126.70227272727273,
                "end_time": 126.82045454545454,
                "pitch": 66,
                "velocity": 101,
                "duration": 0.11818181818181017,
                "tempo": 120.0
            },
            {
                "start_time": 126.83636363636363,
                "end_time": 126.95454545454545,
                "pitch": 69,
                "velocity": 101,
                "duration": 0.11818181818182438,
                "tempo": 120.0
            },
            {
                "start_time": 126.97045454545454,
                "end_time": 127.08636363636363,
                "pitch": 72,
                "velocity": 101,
                "duration": 0.11590909090908497,
                "tempo": 120.0
            },
            {
                "start_time": 127.10454545454544,
                "end_time": 127.22045454545454,
                "pitch": 75,
                "velocity": 101,
                "duration": 0.11590909090909918,
                "tempo": 120.0
            },
            {
                "start_time": 127.23863636363636,
                "end_time": 127.35454545454544,
                "pitch": 69,
                "velocity": 101,
                "duration": 0.11590909090908497,
                "tempo": 120.0
            },
            {
                "start_time": 127.37045454545454,
                "end_time": 127.48863636363636,
                "pitch": 72,
                "velocity": 101,
                "duration": 0.11818181818182438,
                "tempo": 120.0
            },
            {
                "start_time": 127.50454545454545,
                "end_time": 127.62272727272726,
                "pitch": 75,
                "velocity": 101,
                "duration": 0.11818181818181017,
                "tempo": 120.0
            },
            {
                "start_time": 127.63863636363635,
                "end_time": 127.75454545454545,
                "pitch": 77,
                "velocity": 101,
                "duration": 0.11590909090909918,
                "tempo": 120.0
            },
            {
                "start_time": 127.77272727272727,
                "end_time": 127.89090909090909,
                "pitch": 75,
                "velocity": 101,
                "duration": 0.11818181818182438,
                "tempo": 120.0
            },
            {
                "start_time": 127.9090909090909,
                "end_time": 128.02727272727273,
                "pitch": 81,
                "velocity": 101,
                "duration": 0.11818181818182438,
                "tempo": 120.0
            },
            {
                "start_time": 128.0431818181818,
                "end_time": 128.16363636363636,
                "pitch": 84,
                "velocity": 101,
                "duration": 0.12045454545454959,
                "tempo": 120.0
            },
            {
                "start_time": 128.17954545454546,
                "end_time": 128.29772727272726,
                "pitch": 90,
                "velocity": 101,
                "duration": 0.11818181818179596,
                "tempo": 120.0
            },
            {
                "start_time": 128.3159090909091,
                "end_time": 128.4318181818182,
                "pitch": 92,
                "velocity": 101,
                "duration": 0.11590909090909918,
                "tempo": 120.0
            },
            {
                "start_time": 128.45,
                "end_time": 128.7,
                "pitch": 95,
                "velocity": 101,
                "duration": 0.25,
                "tempo": 120.0
            },
            {
                "start_time": 128.7159090909091,
                "end_time": 128.8340909090909,
                "pitch": 93,
                "velocity": 101,
                "duration": 0.11818181818179596,
                "tempo": 120.0
            },
            {
                "start_time": 128.85,
                "end_time": 129.1,
                "pitch": 92,
                "velocity": 101,
                "duration": 0.25,
                "tempo": 120.0
            }
        ],
        "Trumpet": [
            {
                "start_time": 47.13636363636363,
                "end_time": 47.518181818181816,
                "pitch": 67,
                "velocity": 51,
                "duration": 0.3818181818181827,
                "tempo": 120.0
            },
            {
                "start_time": 47.53636363636363,
                "end_time": 47.652272727272724,
                "pitch": 67,
                "velocity": 51,
                "duration": 0.11590909090909207,
                "tempo": 120.0
            },
            {
                "start_time": 47.804545454545455,
                "end_time": 47.92272727272727,
                "pitch": 67,
                "velocity": 51,
                "duration": 0.11818181818181728,
                "tempo": 120.0
            },
            {
                "start_time": 48.07727272727273,
                "end_time": 49.13863636363636,
                "pitch": 67,
                "velocity": 51,
                "duration": 1.0613636363636303,
                "tempo": 120.0
            },
            {
                "start_time": 49.293181818181814,
                "end_time": 51.42045454545454,
                "pitch": 58,
                "velocity": 51,
                "duration": 2.127272727272725,
                "tempo": 120.0
            },
            {
                "start_time": 51.43863636363636,
                "end_time": 51.82272727272727,
                "pitch": 69,
                "velocity": 51,
                "duration": 0.38409090909090793,
                "tempo": 120.0
            },
            {
                "start_time": 51.83863636363636,
                "end_time": 51.95681818181818,
                "pitch": 69,
                "velocity": 51,
                "duration": 0.11818181818181728,
                "tempo": 120.0
            },
            {
                "start_time": 52.10909090909091,
                "end_time": 52.22727272727273,
                "pitch": 69,
                "velocity": 51,
                "duration": 0.11818181818181728,
                "tempo": 120.0
            },
            {
                "start_time": 52.38181818181818,
                "end_time": 53.434090909090905,
                "pitch": 69,
                "velocity": 51,
                "duration": 1.0522727272727224,
                "tempo": 120.0
            },
            {
                "start_time": 53.586363636363636,
                "end_time": 53.970454545454544,
                "pitch": 68,
                "velocity": 51,
                "duration": 0.38409090909090793,
                "tempo": 120.0
            },
            {
                "start_time": 53.986363636363635,
                "end_time": 54.10227272727273,
                "pitch": 68,
                "velocity": 51,
                "duration": 0.11590909090909207,
                "tempo": 120.0
            },
            {
                "start_time": 54.25681818181818,
                "end_time": 54.375,
                "pitch": 68,
                "velocity": 51,
                "duration": 0.11818181818181728,
                "tempo": 120.0
            },
            {
                "start_time": 54.52954545454545,
                "end_time": 54.64545454545454,
                "pitch": 68,
                "velocity": 51,
                "duration": 0.11590909090909207,
                "tempo": 120.0
            },
            {
                "start_time": 54.663636363636364,
                "end_time": 54.913636363636364,
                "pitch": 68,
                "velocity": 51,
                "duration": 0.25,
                "tempo": 120.0
            },
            {
                "start_time": 54.93181818181818,
                "end_time": 55.04772727272727,
                "pitch": 68,
                "velocity": 51,
                "duration": 0.11590909090909207,
                "tempo": 120.0
            },
            {
                "start_time": 55.199999999999996,
                "end_time": 55.44772727272727,
                "pitch": 68,
                "velocity": 51,
                "duration": 0.2477272727272748,
                "tempo": 120.0
            },
            {
                "start_time": 55.465909090909086,
                "end_time": 55.58181818181818,
                "pitch": 68,
                "velocity": 51,
                "duration": 0.11590909090909207,
                "tempo": 120.0
            },
            {
                "start_time": 55.73409090909091,
                "end_time": 56.12272727272727,
                "pitch": 65,
                "velocity": 51,
                "duration": 0.38863636363635834,
                "tempo": 120.0
            },
            {
                "start_time": 56.14090909090909,
                "end_time": 56.25909090909091,
                "pitch": 65,
                "velocity": 51,
                "duration": 0.11818181818181728,
                "tempo": 120.0
            },
            {
                "start_time": 56.41136363636363,
                "end_time": 56.527272727272724,
                "pitch": 65,
                "velocity": 51,
                "duration": 0.11590909090909207,
                "tempo": 120.0
            },
            {
                "start_time": 56.67727272727272,
                "end_time": 57.736363636363635,
                "pitch": 65,
                "velocity": 51,
                "duration": 1.0590909090909122,
                "tempo": 120.0
            },
            {
                "start_time": 57.89090909090909,
                "end_time": 58.27272727272727,
                "pitch": 67,
                "velocity": 51,
                "duration": 0.3818181818181827,
                "tempo": 120.0
            },
            {
                "start_time": 58.29090909090909,
                "end_time": 58.40681818181818,
                "pitch": 67,
                "velocity": 51,
                "duration": 0.11590909090909207,
                "tempo": 120.0
            },
            {
                "start_time": 58.559090909090905,
                "end_time": 58.67727272727272,
                "pitch": 67,
                "velocity": 51,
                "duration": 0.11818181818181728,
                "tempo": 120.0
            },
            {
                "start_time": 58.83181818181818,
                "end_time": 59.88636363636363,
                "pitch": 67,
                "velocity": 51,
                "duration": 1.0545454545454547,
                "tempo": 120.0
            },
            {
                "start_time": 60.03636363636363,
                "end_time": 60.42045454545454,
                "pitch": 69,
                "velocity": 51,
                "duration": 0.38409090909090793,
                "tempo": 120.0
            },
            {
                "start_time": 60.43863636363636,
                "end_time": 60.554545454545455,
                "pitch": 69,
                "velocity": 51,
                "duration": 0.11590909090909207,
                "tempo": 120.0
            },
            {
                "start_time": 60.70681818181818,
                "end_time": 60.824999999999996,
                "pitch": 69,
                "velocity": 51,
                "duration": 0.11818181818181728,
                "tempo": 120.0
            },
            {
                "start_time": 60.97954545454545,
                "end_time": 61.09772727272727,
                "pitch": 69,
                "velocity": 51,
                "duration": 0.11818181818181728,
                "tempo": 120.0
            },
            {
                "start_time": 61.115909090909085,
                "end_time": 62.175,
                "pitch": 69,
                "velocity": 51,
                "duration": 1.0590909090909122,
                "tempo": 120.0
            },
            {
                "start_time": 62.19318181818181,
                "end_time": 62.845454545454544,
                "pitch": 69,
                "velocity": 51,
                "duration": 0.6522727272727309,
                "tempo": 120.0
            },
            {
                "start_time": 64.3409090909091,
                "end_time": 66.47045454545454,
                "pitch": 71,
                "velocity": 51,
                "duration": 2.1295454545454504,
                "tempo": 120.0
            },
            {
                "start_time": 66.48863636363636,
                "end_time": 68.62727272727273,
                "pitch": 74,
                "velocity": 51,
                "duration": 2.1386363636363654,
                "tempo": 120.0
            },
            {
                "start_time": 68.64545454545454,
                "end_time": 70.77499999999999,
                "pitch": 71,
                "velocity": 51,
                "duration": 2.1295454545454504,
                "tempo": 120.0
            },
            {
                "start_time": 70.79090909090908,
                "end_time": 72.92954545454545,
                "pitch": 74,
                "velocity": 51,
                "duration": 2.1386363636363654,
                "tempo": 120.0
            },
            {
                "start_time": 72.95,
                "end_time": 77.225,
                "pitch": 65,
                "velocity": 51,
                "duration": 4.2749999999999915,
                "tempo": 120.0
            },
            {
                "start_time": 94.44318181818181,
                "end_time": 94.82954545454545,
                "pitch": 67,
                "velocity": 51,
                "duration": 0.38636363636364024,
                "tempo": 120.0
            },
            {
                "start_time": 94.84772727272727,
                "end_time": 94.96590909090908,
                "pitch": 67,
                "velocity": 51,
                "duration": 0.11818181818181017,
                "tempo": 120.0
            },
            {
                "start_time": 95.12045454545454,
                "end_time": 95.23863636363636,
                "pitch": 67,
                "velocity": 51,
                "duration": 0.11818181818182438,
                "tempo": 120.0
            },
            {
                "start_time": 95.39090909090909,
                "end_time": 96.44545454545454,
                "pitch": 67,
                "velocity": 51,
                "duration": 1.0545454545454476,
                "tempo": 120.0
            },
            {
                "start_time": 96.59772727272727,
                "end_time": 98.72727272727272,
                "pitch": 58,
                "velocity": 51,
                "duration": 2.1295454545454504,
                "tempo": 120.0
            },
            {
                "start_time": 98.74545454545454,
                "end_time": 99.1340909090909,
                "pitch": 69,
                "velocity": 51,
                "duration": 0.38863636363636545,
                "tempo": 120.0
            },
            {
                "start_time": 99.15227272727272,
                "end_time": 99.27045454545454,
                "pitch": 69,
                "velocity": 51,
                "duration": 0.11818181818182438,
                "tempo": 120.0
            },
            {
                "start_time": 99.42045454545455,
                "end_time": 99.53636363636363,
                "pitch": 69,
                "velocity": 51,
                "duration": 0.11590909090908497,
                "tempo": 120.0
            },
            {
                "start_time": 99.68863636363636,
                "end_time": 100.74090909090908,
                "pitch": 69,
                "velocity": 51,
                "duration": 1.0522727272727224,
                "tempo": 120.0
            },
            {
                "start_time": 100.89090909090909,
                "end_time": 101.28181818181818,
                "pitch": 68,
                "velocity": 51,
                "duration": 0.39090909090909065,
                "tempo": 120.0
            },
            {
                "start_time": 101.3,
                "end_time": 101.41818181818181,
                "pitch": 68,
                "velocity": 51,
                "duration": 0.11818181818181017,
                "tempo": 120.0
            },
            {
                "start_time": 101.57045454545454,
                "end_time": 101.68863636363636,
                "pitch": 68,
                "velocity": 51,
                "duration": 0.11818181818182438,
                "tempo": 120.0
            },
            {
                "start_time": 101.84318181818182,
                "end_time": 101.96136363636363,
                "pitch": 68,
                "velocity": 51,
                "duration": 0.11818181818181017,
                "tempo": 120.0
            },
            {
                "start_time": 101.97954545454544,
                "end_time": 102.22954545454544,
                "pitch": 68,
                "velocity": 51,
                "duration": 0.25,
                "tempo": 120.0
            },
            {
                "start_time": 102.24545454545454,
                "end_time": 102.36136363636363,
                "pitch": 68,
                "velocity": 51,
                "duration": 0.11590909090909918,
                "tempo": 120.0
            },
            {
                "start_time": 102.51363636363637,
                "end_time": 102.76363636363637,
                "pitch": 68,
                "velocity": 51,
                "duration": 0.25,
                "tempo": 120.0
            },
            {
                "start_time": 102.78181818181818,
                "end_time": 102.89772727272727,
                "pitch": 68,
                "velocity": 51,
                "duration": 0.11590909090908497,
                "tempo": 120.0
            },
            {
                "start_time": 103.04772727272727,
                "end_time": 103.43181818181817,
                "pitch": 65,
                "velocity": 51,
                "duration": 0.3840909090909008,
                "tempo": 120.0
            },
            {
                "start_time": 103.44772727272726,
                "end_time": 103.56363636363636,
                "pitch": 65,
                "velocity": 51,
                "duration": 0.11590909090909918,
                "tempo": 120.0
            },
            {
                "start_time": 103.71818181818182,
                "end_time": 103.83636363636363,
                "pitch": 65,
                "velocity": 51,
                "duration": 0.11818181818181017,
                "tempo": 120.0
            },
            {
                "start_time": 103.99090909090908,
                "end_time": 105.04318181818181,
                "pitch": 65,
                "velocity": 51,
                "duration": 1.0522727272727224,
                "tempo": 120.0
            },
            {
                "start_time": 105.19545454545454,
                "end_time": 105.57727272727273,
                "pitch": 67,
                "velocity": 51,
                "duration": 0.38181818181818983,
                "tempo": 120.0
            },
            {
                "start_time": 105.59545454545454,
                "end_time": 105.71136363636363,
                "pitch": 67,
                "velocity": 51,
                "duration": 0.11590909090908497,
                "tempo": 120.0
            },
            {
                "start_time": 105.86590909090908,
                "end_time": 105.98409090909091,
                "pitch": 67,
                "velocity": 51,
                "duration": 0.11818181818182438,
                "tempo": 120.0
            },
            {
                "start_time": 106.13863636363637,
                "end_time": 107.19772727272726,
                "pitch": 67,
                "velocity": 51,
                "duration": 1.059090909090898,
                "tempo": 120.0
            },
            {
                "start_time": 107.35227272727272,
                "end_time": 107.73409090909091,
                "pitch": 69,
                "velocity": 51,
                "duration": 0.38181818181818983,
                "tempo": 120.0
            },
            {
                "start_time": 107.75227272727273,
                "end_time": 107.86818181818181,
                "pitch": 69,
                "velocity": 51,
                "duration": 0.11590909090908497,
                "tempo": 120.0
            },
            {
                "start_time": 108.02272727272727,
                "end_time": 108.14090909090909,
                "pitch": 69,
                "velocity": 51,
                "duration": 0.11818181818182438,
                "tempo": 120.0
            },
            {
                "start_time": 108.29318181818181,
                "end_time": 108.41136363636363,
                "pitch": 69,
                "velocity": 51,
                "duration": 0.11818181818182438,
                "tempo": 120.0
            },
            {
                "start_time": 108.42954545454545,
                "end_time": 109.48181818181817,
                "pitch": 69,
                "velocity": 51,
                "duration": 1.0522727272727224,
                "tempo": 120.0
            },
            {
                "start_time": 109.5,
                "end_time": 110.14999999999999,
                "pitch": 69,
                "velocity": 51,
                "duration": 0.6499999999999915,
                "tempo": 120.0
            },
            {
                "start_time": 111.64772727272727,
                "end_time": 113.7840909090909,
                "pitch": 71,
                "velocity": 51,
                "duration": 2.1363636363636402,
                "tempo": 120.0
            },
            {
                "start_time": 113.80454545454545,
                "end_time": 115.93181818181817,
                "pitch": 74,
                "velocity": 51,
                "duration": 2.127272727272725,
                "tempo": 120.0
            },
            {
                "start_time": 115.94999999999999,
                "end_time": 118.07954545454545,
                "pitch": 71,
                "velocity": 51,
                "duration": 2.1295454545454646,
                "tempo": 120.0
            },
            {
                "start_time": 118.09772727272727,
                "end_time": 120.23636363636363,
                "pitch": 74,
                "velocity": 51,
                "duration": 2.1386363636363654,
                "tempo": 120.0
            },
            {
                "start_time": 120.25454545454545,
                "end_time": 122.3840909090909,
                "pitch": 71,
                "velocity": 51,
                "duration": 2.1295454545454504,
                "tempo": 120.0
            },
            {
                "start_time": 122.40227272727272,
                "end_time": 124.52954545454544,
                "pitch": 74,
                "velocity": 51,
                "duration": 2.127272727272725,
                "tempo": 120.0
            },
            {
                "start_time": 124.54772727272727,
                "end_time": 126.68636363636362,
                "pitch": 71,
                "velocity": 51,
                "duration": 2.1386363636363512,
                "tempo": 120.0
            },
            {
                "start_time": 126.70454545454545,
                "end_time": 128.8340909090909,
                "pitch": 74,
                "velocity": 51,
                "duration": 2.129545454545436,
                "tempo": 120.0
            },
            {
                "start_time": 128.85227272727272,
                "end_time": 129.2340909090909,
                "pitch": 62,
                "velocity": 51,
                "duration": 0.3818181818181756,
                "tempo": 120.0
            },
            {
                "start_time": 129.25227272727273,
                "end_time": 129.36818181818182,
                "pitch": 62,
                "velocity": 51,
                "duration": 0.11590909090909918,
                "tempo": 120.0
            },
            {
                "start_time": 133.14545454545453,
                "end_time": 133.52954545454546,
                "pitch": 62,
                "velocity": 51,
                "duration": 0.38409090909092924,
                "tempo": 120.0
            },
            {
                "start_time": 133.54772727272726,
                "end_time": 133.66363636363636,
                "pitch": 62,
                "velocity": 51,
                "duration": 0.11590909090909918,
                "tempo": 120.0
            },
            {
                "start_time": 133.8159090909091,
                "end_time": 133.9340909090909,
                "pitch": 62,
                "velocity": 51,
                "duration": 0.11818181818182438,
                "tempo": 120.0
            },
            {
                "start_time": 137.45,
                "end_time": 137.83181818181816,
                "pitch": 62,
                "velocity": 51,
                "duration": 0.3818181818181756,
                "tempo": 120.0
            },
            {
                "start_time": 137.85,
                "end_time": 137.9659090909091,
                "pitch": 62,
                "velocity": 51,
                "duration": 0.11590909090909918,
                "tempo": 120.0
            },
            {
                "start_time": 138.12272727272727,
                "end_time": 138.24318181818182,
                "pitch": 62,
                "velocity": 51,
                "duration": 0.12045454545454959,
                "tempo": 120.0
            },
            {
                "start_time": 138.4,
                "end_time": 138.5181818181818,
                "pitch": 62,
                "velocity": 51,
                "duration": 0.11818181818179596,
                "tempo": 120.0
            },
            {
                "start_time": 141.75454545454545,
                "end_time": 142.13636363636363,
                "pitch": 86,
                "velocity": 51,
                "duration": 0.3818181818181756,
                "tempo": 120.0
            },
            {
                "start_time": 142.15454545454546,
                "end_time": 142.27045454545453,
                "pitch": 86,
                "velocity": 51,
                "duration": 0.11590909090907076,
                "tempo": 120.0
            },
            {
                "start_time": 142.42045454545453,
                "end_time": 142.5340909090909,
                "pitch": 86,
                "velocity": 51,
                "duration": 0.11363636363637397,
                "tempo": 120.0
            },
            {
                "start_time": 142.6818181818182,
                "end_time": 142.79545454545453,
                "pitch": 86,
                "velocity": 51,
                "duration": 0.11363636363634555,
                "tempo": 120.0
            },
            {
                "start_time": 143.8931818181818,
                "end_time": 146.04090909090908,
                "pitch": 71,
                "velocity": 64,
                "duration": 2.1477272727272805,
                "tempo": 120.0
            },
            {
                "start_time": 146.0590909090909,
                "end_time": 148.18863636363636,
                "pitch": 70,
                "velocity": 64,
                "duration": 2.1295454545454504,
                "tempo": 120.0
            },
            {
                "start_time": 148.20681818181816,
                "end_time": 150.34318181818182,
                "pitch": 69,
                "velocity": 64,
                "duration": 2.1363636363636545,
                "tempo": 120.0
            },
            {
                "start_time": 150.36136363636362,
                "end_time": 152.49090909090907,
                "pitch": 68,
                "velocity": 64,
                "duration": 2.1295454545454504,
                "tempo": 120.0
            },
            {
                "start_time": 152.6431818181818,
                "end_time": 153.025,
                "pitch": 62,
                "velocity": 64,
                "duration": 0.38181818181820404,
                "tempo": 120.0
            },
            {
                "start_time": 153.0431818181818,
                "end_time": 153.56136363636364,
                "pitch": 64,
                "velocity": 64,
                "duration": 0.5181818181818301,
                "tempo": 120.0
            },
            {
                "start_time": 153.71363636363637,
                "end_time": 154.10454545454544,
                "pitch": 64,
                "velocity": 64,
                "duration": 0.39090909090907644,
                "tempo": 120.0
            },
            {
                "start_time": 154.12272727272727,
                "end_time": 154.63863636363635,
                "pitch": 66,
                "velocity": 64,
                "duration": 0.5159090909090764,
                "tempo": 120.0
            },
            {
                "start_time": 154.79090909090908,
                "end_time": 155.17272727272726,
                "pitch": 66,
                "velocity": 64,
                "duration": 0.3818181818181756,
                "tempo": 120.0
            },
            {
                "start_time": 155.1909090909091,
                "end_time": 155.7159090909091,
                "pitch": 68,
                "velocity": 64,
                "duration": 0.5250000000000057,
                "tempo": 120.0
            },
            {
                "start_time": 156.80454545454543,
                "end_time": 158.9409090909091,
                "pitch": 71,
                "velocity": 64,
                "duration": 2.1363636363636545,
                "tempo": 120.0
            },
            {
                "start_time": 158.96136363636361,
                "end_time": 161.08863636363637,
                "pitch": 70,
                "velocity": 64,
                "duration": 2.1272727272727536,
                "tempo": 120.0
            },
            {
                "start_time": 161.10681818181817,
                "end_time": 163.24545454545455,
                "pitch": 69,
                "velocity": 64,
                "duration": 2.1386363636363797,
                "tempo": 120.0
            },
            {
                "start_time": 163.26363636363635,
                "end_time": 165.3931818181818,
                "pitch": 68,
                "velocity": 64,
                "duration": 2.1295454545454504,
                "tempo": 120.0
            },
            {
                "start_time": 165.54545454545453,
                "end_time": 165.9272727272727,
                "pitch": 62,
                "velocity": 64,
                "duration": 0.3818181818181756,
                "tempo": 120.0
            },
            {
                "start_time": 165.94545454545454,
                "end_time": 166.46136363636361,
                "pitch": 64,
                "velocity": 64,
                "duration": 0.5159090909090764,
                "tempo": 120.0
            },
            {
                "start_time": 166.61590909090907,
                "end_time": 167.00681818181818,
                "pitch": 64,
                "velocity": 64,
                "duration": 0.39090909090910486,
                "tempo": 120.0
            },
            {
                "start_time": 167.025,
                "end_time": 167.54090909090908,
                "pitch": 66,
                "velocity": 64,
                "duration": 0.5159090909090764,
                "tempo": 120.0
            },
            {
                "start_time": 167.6931818181818,
                "end_time": 168.0840909090909,
                "pitch": 66,
                "velocity": 64,
                "duration": 0.39090909090907644,
                "tempo": 120.0
            },
            {
                "start_time": 168.10227272727272,
                "end_time": 168.6181818181818,
                "pitch": 68,
                "velocity": 64,
                "duration": 0.5159090909090764,
                "tempo": 120.0
            }
        ],
        "Acoustic Bass": [
            {
                "start_time": 0.0,
                "end_time": 0.634090909090909,
                "pitch": 37,
                "velocity": 80,
                "duration": 0.634090909090909,
                "tempo": 120.0
            },
            {
                "start_time": 0.7840909090909091,
                "end_time": 0.8999999999999999,
                "pitch": 44,
                "velocity": 80,
                "duration": 0.11590909090909085,
                "tempo": 120.0
            },
            {
                "start_time": 0.9181818181818181,
                "end_time": 1.0318181818181817,
                "pitch": 49,
                "velocity": 80,
                "duration": 0.11363636363636365,
                "tempo": 120.0
            },
            {
                "start_time": 1.0477272727272726,
                "end_time": 1.1636363636363636,
                "pitch": 47,
                "velocity": 80,
                "duration": 0.11590909090909096,
                "tempo": 120.0
            },
            {
                "start_time": 1.1795454545454545,
                "end_time": 1.2954545454545454,
                "pitch": 44,
                "velocity": 80,
                "duration": 0.11590909090909096,
                "tempo": 120.0
            },
            {
                "start_time": 1.3113636363636363,
                "end_time": 1.4249999999999998,
                "pitch": 43,
                "velocity": 80,
                "duration": 0.11363636363636354,
                "tempo": 120.0
            },
            {
                "start_time": 1.4431818181818181,
                "end_time": 1.559090909090909,
                "pitch": 42,
                "velocity": 80,
                "duration": 0.11590909090909096,
                "tempo": 120.0
            },
            {
                "start_time": 1.5772727272727272,
                "end_time": 1.6931818181818181,
                "pitch": 40,
                "velocity": 80,
                "duration": 0.11590909090909096,
                "tempo": 120.0
            },
            {
                "start_time": 1.709090909090909,
                "end_time": 2.495454545454545,
                "pitch": 36,
                "velocity": 80,
                "duration": 0.7863636363636362,
                "tempo": 120.0
            },
            {
                "start_time": 2.6477272727272725,
                "end_time": 2.7659090909090907,
                "pitch": 43,
                "velocity": 80,
                "duration": 0.11818181818181817,
                "tempo": 120.0
            },
            {
                "start_time": 2.9204545454545454,
                "end_time": 3.0386363636363636,
                "pitch": 43,
                "velocity": 80,
                "duration": 0.11818181818181817,
                "tempo": 120.0
            },
            {
                "start_time": 3.1886363636363635,
                "end_time": 3.3045454545454542,
                "pitch": 37,
                "velocity": 80,
                "duration": 0.11590909090909074,
                "tempo": 120.0
            },
            {
                "start_time": 3.3227272727272728,
                "end_time": 3.4386363636363635,
                "pitch": 43,
                "velocity": 80,
                "duration": 0.11590909090909074,
                "tempo": 120.0
            },
            {
                "start_time": 3.590909090909091,
                "end_time": 4.379545454545454,
                "pitch": 37,
                "velocity": 80,
                "duration": 0.7886363636363631,
                "tempo": 120.0
            },
            {
                "start_time": 4.531818181818181,
                "end_time": 4.6499999999999995,
                "pitch": 44,
                "velocity": 80,
                "duration": 0.11818181818181817,
                "tempo": 120.0
            },
            {
                "start_time": 4.668181818181818,
                "end_time": 4.784090909090909,
                "pitch": 49,
                "velocity": 80,
                "duration": 0.11590909090909118,
                "tempo": 120.0
            },
            {
                "start_time": 4.802272727272727,
                "end_time": 4.918181818181818,
                "pitch": 47,
                "velocity": 80,
                "duration": 0.11590909090909118,
                "tempo": 120.0
            },
            {
                "start_time": 4.9363636363636365,
                "end_time": 5.052272727272727,
                "pitch": 44,
                "velocity": 80,
                "duration": 0.1159090909090903,
                "tempo": 120.0
            },
            {
                "start_time": 5.068181818181818,
                "end_time": 5.1863636363636365,
                "pitch": 43,
                "velocity": 80,
                "duration": 0.11818181818181817,
                "tempo": 120.0
            },
            {
                "start_time": 5.202272727272727,
                "end_time": 5.318181818181818,
                "pitch": 42,
                "velocity": 80,
                "duration": 0.11590909090909118,
                "tempo": 120.0
            },
            {
                "start_time": 5.336363636363636,
                "end_time": 5.452272727272727,
                "pitch": 40,
                "velocity": 80,
                "duration": 0.11590909090909118,
                "tempo": 120.0
            },
            {
                "start_time": 5.470454545454545,
                "end_time": 6.263636363636364,
                "pitch": 36,
                "velocity": 80,
                "duration": 0.7931818181818189,
                "tempo": 120.0
            },
            {
                "start_time": 6.411363636363636,
                "end_time": 6.527272727272727,
                "pitch": 43,
                "velocity": 80,
                "duration": 0.11590909090909118,
                "tempo": 120.0
            },
            {
                "start_time": 6.675,
                "end_time": 6.788636363636363,
                "pitch": 43,
                "velocity": 80,
                "duration": 0.11363636363636331,
                "tempo": 120.0
            },
            {
                "start_time": 6.9409090909090905,
                "end_time": 7.061363636363636,
                "pitch": 37,
                "velocity": 80,
                "duration": 0.12045454545454515,
                "tempo": 120.0
            },
            {
                "start_time": 7.077272727272727,
                "end_time": 7.195454545454545,
                "pitch": 43,
                "velocity": 80,
                "duration": 0.11818181818181817,
                "tempo": 120.0
            },
            {
                "start_time": 7.35,
                "end_time": 8.143181818181818,
                "pitch": 34,
                "velocity": 80,
                "duration": 0.793181818181818,
                "tempo": 120.0
            },
            {
                "start_time": 8.295454545454545,
                "end_time": 8.411363636363635,
                "pitch": 41,
                "velocity": 80,
                "duration": 0.1159090909090903,
                "tempo": 120.0
            },
            {
                "start_time": 8.427272727272728,
                "end_time": 8.545454545454545,
                "pitch": 46,
                "velocity": 80,
                "duration": 0.11818181818181728,
                "tempo": 120.0
            },
            {
                "start_time": 8.561363636363636,
                "end_time": 8.677272727272728,
                "pitch": 44,
                "velocity": 80,
                "duration": 0.11590909090909207,
                "tempo": 120.0
            },
            {
                "start_time": 8.695454545454545,
                "end_time": 8.811363636363636,
                "pitch": 41,
                "velocity": 80,
                "duration": 0.1159090909090903,
                "tempo": 120.0
            },
            {
                "start_time": 8.829545454545453,
                "end_time": 8.945454545454545,
                "pitch": 40,
                "velocity": 80,
                "duration": 0.11590909090909207,
                "tempo": 120.0
            },
            {
                "start_time": 8.963636363636363,
                "end_time": 9.081818181818182,
                "pitch": 39,
                "velocity": 80,
                "duration": 0.11818181818181905,
                "tempo": 120.0
            },
            {
                "start_time": 9.097727272727273,
                "end_time": 9.218181818181817,
                "pitch": 37,
                "velocity": 80,
                "duration": 0.12045454545454426,
                "tempo": 120.0
            },
            {
                "start_time": 9.23409090909091,
                "end_time": 10.022727272727272,
                "pitch": 35,
                "velocity": 80,
                "duration": 0.7886363636363622,
                "tempo": 120.0
            },
            {
                "start_time": 10.177272727272726,
                "end_time": 10.295454545454545,
                "pitch": 42,
                "velocity": 80,
                "duration": 0.11818181818181905,
                "tempo": 120.0
            },
            {
                "start_time": 10.313636363636363,
                "end_time": 10.431818181818182,
                "pitch": 47,
                "velocity": 80,
                "duration": 0.11818181818181905,
                "tempo": 120.0
            },
            {
                "start_time": 10.447727272727272,
                "end_time": 10.568181818181818,
                "pitch": 45,
                "velocity": 80,
                "duration": 0.12045454545454604,
                "tempo": 120.0
            },
            {
                "start_time": 10.584090909090909,
                "end_time": 10.702272727272726,
                "pitch": 42,
                "velocity": 80,
                "duration": 0.11818181818181728,
                "tempo": 120.0
            },
            {
                "start_time": 10.718181818181817,
                "end_time": 10.834090909090909,
                "pitch": 41,
                "velocity": 80,
                "duration": 0.11590909090909207,
                "tempo": 120.0
            },
            {
                "start_time": 10.852272727272727,
                "end_time": 10.968181818181817,
                "pitch": 40,
                "velocity": 80,
                "duration": 0.1159090909090903,
                "tempo": 120.0
            },
            {
                "start_time": 10.986363636363636,
                "end_time": 11.102272727272727,
                "pitch": 38,
                "velocity": 80,
                "duration": 0.1159090909090903,
                "tempo": 120.0
            },
            {
                "start_time": 11.120454545454544,
                "end_time": 11.904545454545454,
                "pitch": 32,
                "velocity": 80,
                "duration": 0.7840909090909101,
                "tempo": 120.0
            },
            {
                "start_time": 12.054545454545455,
                "end_time": 12.170454545454545,
                "pitch": 39,
                "velocity": 80,
                "duration": 0.1159090909090903,
                "tempo": 120.0
            },
            {
                "start_time": 12.188636363636363,
                "end_time": 12.306818181818182,
                "pitch": 44,
                "velocity": 80,
                "duration": 0.11818181818181905,
                "tempo": 120.0
            },
            {
                "start_time": 12.325,
                "end_time": 12.443181818181818,
                "pitch": 42,
                "velocity": 80,
                "duration": 0.11818181818181905,
                "tempo": 120.0
            },
            {
                "start_time": 12.459090909090909,
                "end_time": 12.579545454545453,
                "pitch": 39,
                "velocity": 80,
                "duration": 0.12045454545454426,
                "tempo": 120.0
            },
            {
                "start_time": 12.595454545454546,
                "end_time": 12.713636363636363,
                "pitch": 38,
                "velocity": 80,
                "duration": 0.11818181818181728,
                "tempo": 120.0
            },
            {
                "start_time": 12.73181818181818,
                "end_time": 12.847727272727273,
                "pitch": 37,
                "velocity": 80,
                "duration": 0.11590909090909207,
                "tempo": 120.0
            },
            {
                "start_time": 12.86590909090909,
                "end_time": 12.98181818181818,
                "pitch": 35,
                "velocity": 80,
                "duration": 0.1159090909090903,
                "tempo": 120.0
            },
            {
                "start_time": 13.0,
                "end_time": 13.793181818181818,
                "pitch": 33,
                "velocity": 80,
                "duration": 0.793181818181818,
                "tempo": 120.0
            },
            {
                "start_time": 13.943181818181818,
                "end_time": 14.061363636363636,
                "pitch": 40,
                "velocity": 80,
                "duration": 0.11818181818181728,
                "tempo": 120.0
            },
            {
                "start_time": 14.077272727272726,
                "end_time": 14.193181818181818,
                "pitch": 45,
                "velocity": 80,
                "duration": 0.11590909090909207,
                "tempo": 120.0
            },
            {
                "start_time": 14.211363636363636,
                "end_time": 14.327272727272726,
                "pitch": 43,
                "velocity": 80,
                "duration": 0.1159090909090903,
                "tempo": 120.0
            },
            {
                "start_time": 14.345454545454544,
                "end_time": 14.461363636363636,
                "pitch": 40,
                "velocity": 80,
                "duration": 0.11590909090909207,
                "tempo": 120.0
            },
            {
                "start_time": 14.477272727272727,
                "end_time": 14.595454545454544,
                "pitch": 39,
                "velocity": 80,
                "duration": 0.11818181818181728,
                "tempo": 120.0
            },
            {
                "start_time": 14.611363636363636,
                "end_time": 14.729545454545454,
                "pitch": 38,
                "velocity": 80,
                "duration": 0.11818181818181728,
                "tempo": 120.0
            },
            {
                "start_time": 14.745454545454544,
                "end_time": 14.861363636363636,
                "pitch": 36,
                "velocity": 80,
                "duration": 0.11590909090909207,
                "tempo": 120.0
            },
            {
                "start_time": 14.879545454545454,
                "end_time": 15.672727272727272,
                "pitch": 37,
                "velocity": 80,
                "duration": 0.793181818181818,
                "tempo": 120.0
            },
            {
                "start_time": 15.825,
                "end_time": 15.94090909090909,
                "pitch": 44,
                "velocity": 80,
                "duration": 0.1159090909090903,
                "tempo": 120.0
            },
            {
                "start_time": 15.95681818181818,
                "end_time": 16.075,
                "pitch": 49,
                "velocity": 80,
                "duration": 0.11818181818181905,
                "tempo": 120.0
            },
            {
                "start_time": 16.09090909090909,
                "end_time": 16.206818181818182,
                "pitch": 47,
                "velocity": 80,
                "duration": 0.11590909090909207,
                "tempo": 120.0
            },
            {
                "start_time": 16.224999999999998,
                "end_time": 16.34090909090909,
                "pitch": 44,
                "velocity": 80,
                "duration": 0.11590909090909207,
                "tempo": 120.0
            },
            {
                "start_time": 16.35909090909091,
                "end_time": 16.474999999999998,
                "pitch": 43,
                "velocity": 80,
                "duration": 0.11590909090908852,
                "tempo": 120.0
            },
            {
                "start_time": 16.49090909090909,
                "end_time": 16.60909090909091,
                "pitch": 42,
                "velocity": 80,
                "duration": 0.11818181818182083,
                "tempo": 120.0
            },
            {
                "start_time": 16.625,
                "end_time": 16.74090909090909,
                "pitch": 40,
                "velocity": 80,
                "duration": 0.11590909090908852,
                "tempo": 120.0
            },
            {
                "start_time": 16.759090909090908,
                "end_time": 17.552272727272726,
                "pitch": 36,
                "velocity": 80,
                "duration": 0.793181818181818,
                "tempo": 120.0
            },
            {
                "start_time": 17.706818181818182,
                "end_time": 17.825,
                "pitch": 43,
                "velocity": 80,
                "duration": 0.11818181818181728,
                "tempo": 120.0
            },
            {
                "start_time": 17.977272727272727,
                "end_time": 18.097727272727273,
                "pitch": 43,
                "velocity": 80,
                "duration": 0.12045454545454604,
                "tempo": 120.0
            },
            {
                "start_time": 18.245454545454546,
                "end_time": 18.35909090909091,
                "pitch": 37,
                "velocity": 80,
                "duration": 0.11363636363636331,
                "tempo": 120.0
            },
            {
                "start_time": 18.377272727272725,
                "end_time": 18.49090909090909,
                "pitch": 43,
                "velocity": 80,
                "duration": 0.11363636363636331,
                "tempo": 120.0
            },
            {
                "start_time": 18.638636363636362,
                "end_time": 19.43409090909091,
                "pitch": 37,
                "velocity": 80,
                "duration": 0.7954545454545467,
                "tempo": 120.0
            },
            {
                "start_time": 19.584090909090907,
                "end_time": 19.7,
                "pitch": 44,
                "velocity": 80,
                "duration": 0.11590909090909207,
                "tempo": 120.0
            },
            {
                "start_time": 19.71818181818182,
                "end_time": 19.836363636363636,
                "pitch": 49,
                "velocity": 80,
                "duration": 0.11818181818181728,
                "tempo": 120.0
            },
            {
                "start_time": 19.852272727272727,
                "end_time": 19.972727272727273,
                "pitch": 47,
                "velocity": 80,
                "duration": 0.12045454545454604,
                "tempo": 120.0
            },
            {
                "start_time": 19.988636363636363,
                "end_time": 20.10681818181818,
                "pitch": 44,
                "velocity": 80,
                "duration": 0.11818181818181728,
                "tempo": 120.0
            },
            {
                "start_time": 20.125,
                "end_time": 20.243181818181817,
                "pitch": 43,
                "velocity": 80,
                "duration": 0.11818181818181728,
                "tempo": 120.0
            },
            {
                "start_time": 20.261363636363637,
                "end_time": 20.377272727272725,
                "pitch": 42,
                "velocity": 80,
                "duration": 0.11590909090908852,
                "tempo": 120.0
            },
            {
                "start_time": 20.395454545454545,
                "end_time": 20.511363636363637,
                "pitch": 40,
                "velocity": 80,
                "duration": 0.11590909090909207,
                "tempo": 120.0
            },
            {
                "start_time": 20.529545454545453,
                "end_time": 21.313636363636363,
                "pitch": 36,
                "velocity": 80,
                "duration": 0.7840909090909101,
                "tempo": 120.0
            },
            {
                "start_time": 21.46363636363636,
                "end_time": 21.579545454545453,
                "pitch": 43,
                "velocity": 80,
                "duration": 0.11590909090909207,
                "tempo": 120.0
            },
            {
                "start_time": 21.73181818181818,
                "end_time": 21.847727272727273,
                "pitch": 43,
                "velocity": 80,
                "duration": 0.11590909090909207,
                "tempo": 120.0
            },
            {
                "start_time": 21.99772727272727,
                "end_time": 22.113636363636363,
                "pitch": 37,
                "velocity": 80,
                "duration": 0.11590909090909207,
                "tempo": 120.0
            },
            {
                "start_time": 22.13181818181818,
                "end_time": 22.24772727272727,
                "pitch": 43,
                "velocity": 80,
                "duration": 0.11590909090909207,
                "tempo": 120.0
            },
            {
                "start_time": 22.4,
                "end_time": 23.193181818181817,
                "pitch": 34,
                "velocity": 80,
                "duration": 0.793181818181818,
                "tempo": 120.0
            },
            {
                "start_time": 23.34318181818182,
                "end_time": 23.459090909090907,
                "pitch": 41,
                "velocity": 80,
                "duration": 0.11590909090908852,
                "tempo": 120.0
            },
            {
                "start_time": 23.477272727272727,
                "end_time": 23.595454545454544,
                "pitch": 46,
                "velocity": 80,
                "duration": 0.11818181818181728,
                "tempo": 120.0
            },
            {
                "start_time": 23.613636363636363,
                "end_time": 23.73181818181818,
                "pitch": 44,
                "velocity": 80,
                "duration": 0.11818181818181728,
                "tempo": 120.0
            },
            {
                "start_time": 23.75,
                "end_time": 23.868181818181817,
                "pitch": 41,
                "velocity": 80,
                "duration": 0.11818181818181728,
                "tempo": 120.0
            },
            {
                "start_time": 23.884090909090908,
                "end_time": 24.004545454545454,
                "pitch": 40,
                "velocity": 80,
                "duration": 0.12045454545454604,
                "tempo": 120.0
            },
            {
                "start_time": 24.020454545454545,
                "end_time": 24.14090909090909,
                "pitch": 39,
                "velocity": 80,
                "duration": 0.12045454545454604,
                "tempo": 120.0
            },
            {
                "start_time": 24.15681818181818,
                "end_time": 24.275,
                "pitch": 37,
                "velocity": 80,
                "duration": 0.11818181818181728,
                "tempo": 120.0
            },
            {
                "start_time": 24.293181818181818,
                "end_time": 25.081818181818182,
                "pitch": 35,
                "velocity": 80,
                "duration": 0.788636363636364,
                "tempo": 120.0
            },
            {
                "start_time": 25.23409090909091,
                "end_time": 25.349999999999998,
                "pitch": 42,
                "velocity": 80,
                "duration": 0.11590909090908852,
                "tempo": 120.0
            },
            {
                "start_time": 25.36590909090909,
                "end_time": 25.48409090909091,
                "pitch": 47,
                "velocity": 80,
                "duration": 0.11818181818182083,
                "tempo": 120.0
            },
            {
                "start_time": 25.5,
                "end_time": 25.618181818181817,
                "pitch": 45,
                "velocity": 80,
                "duration": 0.11818181818181728,
                "tempo": 120.0
            },
            {
                "start_time": 25.634090909090908,
                "end_time": 25.75,
                "pitch": 42,
                "velocity": 80,
                "duration": 0.11590909090909207,
                "tempo": 120.0
            },
            {
                "start_time": 25.768181818181816,
                "end_time": 25.884090909090908,
                "pitch": 41,
                "velocity": 80,
                "duration": 0.11590909090909207,
                "tempo": 120.0
            },
            {
                "start_time": 25.902272727272727,
                "end_time": 26.018181818181816,
                "pitch": 40,
                "velocity": 80,
                "duration": 0.11590909090908852,
                "tempo": 120.0
            },
            {
                "start_time": 26.034090909090907,
                "end_time": 26.152272727272727,
                "pitch": 38,
                "velocity": 80,
                "duration": 0.11818181818182083,
                "tempo": 120.0
            },
            {
                "start_time": 26.168181818181818,
                "end_time": 26.956818181818182,
                "pitch": 32,
                "velocity": 80,
                "duration": 0.788636363636364,
                "tempo": 120.0
            },
            {
                "start_time": 27.111363636363635,
                "end_time": 27.229545454545452,
                "pitch": 39,
                "velocity": 80,
                "duration": 0.11818181818181728,
                "tempo": 120.0
            },
            {
                "start_time": 27.24772727272727,
                "end_time": 27.36590909090909,
                "pitch": 44,
                "velocity": 80,
                "duration": 0.11818181818181728,
                "tempo": 120.0
            },
            {
                "start_time": 27.38181818181818,
                "end_time": 27.502272727272725,
                "pitch": 42,
                "velocity": 80,
                "duration": 0.12045454545454604,
                "tempo": 120.0
            },
            {
                "start_time": 27.518181818181816,
                "end_time": 27.636363636363637,
                "pitch": 39,
                "velocity": 80,
                "duration": 0.11818181818182083,
                "tempo": 120.0
            },
            {
                "start_time": 27.654545454545453,
                "end_time": 27.77272727272727,
                "pitch": 38,
                "velocity": 80,
                "duration": 0.11818181818181728,
                "tempo": 120.0
            },
            {
                "start_time": 27.79090909090909,
                "end_time": 27.90681818181818,
                "pitch": 37,
                "velocity": 80,
                "duration": 0.11590909090909207,
                "tempo": 120.0
            },
            {
                "start_time": 27.924999999999997,
                "end_time": 28.04090909090909,
                "pitch": 35,
                "velocity": 80,
                "duration": 0.11590909090909207,
                "tempo": 120.0
            },
            {
                "start_time": 28.05909090909091,
                "end_time": 28.843181818181815,
                "pitch": 33,
                "velocity": 80,
                "duration": 0.7840909090909065,
                "tempo": 120.0
            },
            {
                "start_time": 28.993181818181817,
                "end_time": 29.10909090909091,
                "pitch": 40,
                "velocity": 80,
                "duration": 0.11590909090909207,
                "tempo": 120.0
            },
            {
                "start_time": 29.127272727272725,
                "end_time": 29.243181818181817,
                "pitch": 45,
                "velocity": 80,
                "duration": 0.11590909090909207,
                "tempo": 120.0
            },
            {
                "start_time": 29.261363636363637,
                "end_time": 29.377272727272725,
                "pitch": 43,
                "velocity": 80,
                "duration": 0.11590909090908852,
                "tempo": 120.0
            },
            {
                "start_time": 29.393181818181816,
                "end_time": 29.513636363636362,
                "pitch": 40,
                "velocity": 80,
                "duration": 0.12045454545454604,
                "tempo": 120.0
            },
            {
                "start_time": 29.529545454545453,
                "end_time": 29.64772727272727,
                "pitch": 39,
                "velocity": 80,
                "duration": 0.11818181818181728,
                "tempo": 120.0
            },
            {
                "start_time": 29.66590909090909,
                "end_time": 29.784090909090907,
                "pitch": 38,
                "velocity": 80,
                "duration": 0.11818181818181728,
                "tempo": 120.0
            },
            {
                "start_time": 29.802272727272726,
                "end_time": 29.920454545454543,
                "pitch": 36,
                "velocity": 80,
                "duration": 0.11818181818181728,
                "tempo": 120.0
            },
            {
                "start_time": 29.938636363636363,
                "end_time": 32.06818181818182,
                "pitch": 37,
                "velocity": 80,
                "duration": 2.1295454545454575,
                "tempo": 120.0
            },
            {
                "start_time": 32.08409090909091,
                "end_time": 33.679545454545455,
                "pitch": 49,
                "velocity": 80,
                "duration": 1.595454545454544,
                "tempo": 120.0
            },
            {
                "start_time": 33.69772727272727,
                "end_time": 33.81363636363636,
                "pitch": 38,
                "velocity": 80,
                "duration": 0.11590909090909207,
                "tempo": 120.0
            },
            {
                "start_time": 33.83181818181818,
                "end_time": 33.94772727272727,
                "pitch": 40,
                "velocity": 80,
                "duration": 0.11590909090909207,
                "tempo": 120.0
            },
            {
                "start_time": 33.965909090909086,
                "end_time": 34.08181818181818,
                "pitch": 42,
                "velocity": 80,
                "duration": 0.11590909090909207,
                "tempo": 120.0
            },
            {
                "start_time": 34.09772727272727,
                "end_time": 34.215909090909086,
                "pitch": 49,
                "velocity": 80,
                "duration": 0.11818181818181728,
                "tempo": 120.0
            },
            {
                "start_time": 34.23181818181818,
                "end_time": 36.10454545454545,
                "pitch": 48,
                "velocity": 80,
                "duration": 1.8727272727272748,
                "tempo": 120.0
            },
            {
                "start_time": 36.12272727272727,
                "end_time": 36.37272727272727,
                "pitch": 43,
                "velocity": 80,
                "duration": 0.25,
                "tempo": 120.0
            },
            {
                "start_time": 36.38863636363636,
                "end_time": 36.779545454545456,
                "pitch": 48,
                "velocity": 80,
                "duration": 0.39090909090909776,
                "tempo": 120.0
            },
            {
                "start_time": 36.79772727272727,
                "end_time": 37.179545454545455,
                "pitch": 43,
                "velocity": 80,
                "duration": 0.3818181818181827,
                "tempo": 120.0
            },
            {
                "start_time": 37.195454545454545,
                "end_time": 38.24772727272727,
                "pitch": 36,
                "velocity": 80,
                "duration": 1.0522727272727224,
                "tempo": 120.0
            },
            {
                "start_time": 38.53636363636363,
                "end_time": 40.66590909090909,
                "pitch": 37,
                "velocity": 80,
                "duration": 2.1295454545454575,
                "tempo": 120.0
            },
            {
                "start_time": 40.684090909090905,
                "end_time": 42.288636363636364,
                "pitch": 49,
                "velocity": 80,
                "duration": 1.604545454545459,
                "tempo": 120.0
            },
            {
                "start_time": 42.304545454545455,
                "end_time": 42.42272727272727,
                "pitch": 38,
                "velocity": 80,
                "duration": 0.11818181818181728,
                "tempo": 120.0
            },
            {
                "start_time": 42.43863636363636,
                "end_time": 42.55681818181818,
                "pitch": 40,
                "velocity": 80,
                "duration": 0.11818181818181728,
                "tempo": 120.0
            },
            {
                "start_time": 42.57272727272727,
                "end_time": 42.68863636363636,
                "pitch": 42,
                "velocity": 80,
                "duration": 0.11590909090909207,
                "tempo": 120.0
            },
            {
                "start_time": 42.70681818181818,
                "end_time": 42.82272727272727,
                "pitch": 49,
                "velocity": 80,
                "duration": 0.11590909090909207,
                "tempo": 120.0
            },
            {
                "start_time": 42.840909090909086,
                "end_time": 44.70227272727273,
                "pitch": 48,
                "velocity": 80,
                "duration": 1.8613636363636417,
                "tempo": 120.0
            },
            {
                "start_time": 44.720454545454544,
                "end_time": 44.970454545454544,
                "pitch": 43,
                "velocity": 80,
                "duration": 0.25,
                "tempo": 120.0
            },
            {
                "start_time": 44.986363636363635,
                "end_time": 45.37045454545454,
                "pitch": 48,
                "velocity": 80,
                "duration": 0.38409090909090793,
                "tempo": 120.0
            },
            {
                "start_time": 45.38863636363636,
                "end_time": 45.77272727272727,
                "pitch": 43,
                "velocity": 80,
                "duration": 0.38409090909091503,
                "tempo": 120.0
            },
            {
                "start_time": 45.788636363636364,
                "end_time": 46.849999999999994,
                "pitch": 36,
                "velocity": 80,
                "duration": 1.0613636363636303,
                "tempo": 120.0
            },
            {
                "start_time": 47.13409090909091,
                "end_time": 47.25,
                "pitch": 28,
                "velocity": 80,
                "duration": 0.11590909090909207,
                "tempo": 120.0
            },
            {
                "start_time": 47.402272727272724,
                "end_time": 47.652272727272724,
                "pitch": 28,
                "velocity": 80,
                "duration": 0.25,
                "tempo": 120.0
            },
            {
                "start_time": 47.668181818181814,
                "end_time": 47.78636363636363,
                "pitch": 28,
                "velocity": 80,
                "duration": 0.11818181818181728,
                "tempo": 120.0
            },
            {
                "start_time": 47.804545454545455,
                "end_time": 47.92272727272727,
                "pitch": 40,
                "velocity": 80,
                "duration": 0.11818181818181728,
                "tempo": 120.0
            },
            {
                "start_time": 47.94090909090909,
                "end_time": 48.059090909090905,
                "pitch": 28,
                "velocity": 80,
                "duration": 0.11818181818181728,
                "tempo": 120.0
            },
            {
                "start_time": 48.07727272727273,
                "end_time": 48.195454545454545,
                "pitch": 28,
                "velocity": 80,
                "duration": 0.11818181818181728,
                "tempo": 120.0
            },
            {
                "start_time": 48.21363636363636,
                "end_time": 48.46363636363636,
                "pitch": 28,
                "velocity": 80,
                "duration": 0.25,
                "tempo": 120.0
            },
            {
                "start_time": 48.47954545454545,
                "end_time": 48.595454545454544,
                "pitch": 28,
                "velocity": 80,
                "duration": 0.11590909090909207,
                "tempo": 120.0
            },
            {
                "start_time": 48.61363636363636,
                "end_time": 48.72954545454545,
                "pitch": 40,
                "velocity": 80,
                "duration": 0.11590909090909207,
                "tempo": 120.0
            },
            {
                "start_time": 48.74772727272727,
                "end_time": 48.86590909090909,
                "pitch": 28,
                "velocity": 80,
                "duration": 0.11818181818182438,
                "tempo": 120.0
            },
            {
                "start_time": 48.88409090909091,
                "end_time": 49.002272727272725,
                "pitch": 28,
                "velocity": 80,
                "duration": 0.11818181818181728,
                "tempo": 120.0
            },
            {
                "start_time": 49.018181818181816,
                "end_time": 49.13863636363636,
                "pitch": 38,
                "velocity": 80,
                "duration": 0.12045454545454248,
                "tempo": 120.0
            },
            {
                "start_time": 49.15454545454545,
                "end_time": 49.27272727272727,
                "pitch": 40,
                "velocity": 80,
                "duration": 0.11818181818182438,
                "tempo": 120.0
            },
            {
                "start_time": 49.29090909090909,
                "end_time": 49.40681818181818,
                "pitch": 36,
                "velocity": 80,
                "duration": 0.11590909090909207,
                "tempo": 120.0
            },
            {
                "start_time": 49.559090909090905,
                "end_time": 49.809090909090905,
                "pitch": 36,
                "velocity": 80,
                "duration": 0.25,
                "tempo": 120.0
            },
            {
                "start_time": 49.824999999999996,
                "end_time": 49.94318181818181,
                "pitch": 36,
                "velocity": 80,
                "duration": 0.11818181818181728,
                "tempo": 120.0
            },
            {
                "start_time": 49.961363636363636,
                "end_time": 50.07954545454545,
                "pitch": 48,
                "velocity": 80,
                "duration": 0.11818181818181728,
                "tempo": 120.0
            },
            {
                "start_time": 50.09772727272727,
                "end_time": 50.215909090909086,
                "pitch": 36,
                "velocity": 80,
                "duration": 0.11818181818181728,
                "tempo": 120.0
            },
            {
                "start_time": 50.23409090909091,
                "end_time": 50.35227272727273,
                "pitch": 36,
                "velocity": 80,
                "duration": 0.11818181818181728,
                "tempo": 120.0
            },
            {
                "start_time": 50.36818181818182,
                "end_time": 50.48409090909091,
                "pitch": 41,
                "velocity": 80,
                "duration": 0.11590909090909207,
                "tempo": 120.0
            },
            {
                "start_time": 50.5,
                "end_time": 50.615909090909085,
                "pitch": 43,
                "velocity": 80,
                "duration": 0.11590909090908497,
                "tempo": 120.0
            },
            {
                "start_time": 50.63181818181818,
                "end_time": 50.74545454545454,
                "pitch": 31,
                "velocity": 80,
                "duration": 0.11363636363635976,
                "tempo": 120.0
            },
            {
                "start_time": 50.76363636363636,
                "end_time": 50.877272727272725,
                "pitch": 39,
                "velocity": 80,
                "duration": 0.11363636363636687,
                "tempo": 120.0
            },
            {
                "start_time": 50.893181818181816,
                "end_time": 51.01363636363636,
                "pitch": 41,
                "velocity": 80,
                "duration": 0.12045454545454248,
                "tempo": 120.0
            },
            {
                "start_time": 51.02954545454545,
                "end_time": 51.15,
                "pitch": 29,
                "velocity": 80,
                "duration": 0.12045454545454959,
                "tempo": 120.0
            },
            {
                "start_time": 51.16590909090909,
                "end_time": 51.28409090909091,
                "pitch": 34,
                "velocity": 80,
                "duration": 0.11818181818181728,
                "tempo": 120.0
            },
            {
                "start_time": 51.30227272727272,
                "end_time": 51.42045454545454,
                "pitch": 36,
                "velocity": 80,
                "duration": 0.11818181818181728,
                "tempo": 120.0
            },
            {
                "start_time": 51.43863636363636,
                "end_time": 51.554545454545455,
                "pitch": 35,
                "velocity": 80,
                "duration": 0.11590909090909207,
                "tempo": 120.0
            },
            {
                "start_time": 51.70454545454545,
                "end_time": 51.95454545454545,
                "pitch": 35,
                "velocity": 80,
                "duration": 0.25,
                "tempo": 120.0
            },
            {
                "start_time": 51.97272727272727,
                "end_time": 52.090909090909086,
                "pitch": 35,
                "velocity": 80,
                "duration": 0.11818181818181728,
                "tempo": 120.0
            },
            {
                "start_time": 52.10909090909091,
                "end_time": 52.22727272727273,
                "pitch": 47,
                "velocity": 80,
                "duration": 0.11818181818181728,
                "tempo": 120.0
            },
            {
                "start_time": 52.24545454545454,
                "end_time": 52.36363636363636,
                "pitch": 35,
                "velocity": 80,
                "duration": 0.11818181818181728,
                "tempo": 120.0
            },
            {
                "start_time": 52.37954545454545,
                "end_time": 52.5,
                "pitch": 35,
                "velocity": 80,
                "duration": 0.12045454545454959,
                "tempo": 120.0
            },
            {
                "start_time": 52.51590909090909,
                "end_time": 52.63409090909091,
                "pitch": 40,
                "velocity": 80,
                "duration": 0.11818181818181728,
                "tempo": 120.0
            },
            {
                "start_time": 52.65,
                "end_time": 52.76590909090909,
                "pitch": 42,
                "velocity": 80,
                "duration": 0.11590909090909207,
                "tempo": 120.0
            },
            {
                "start_time": 52.78409090909091,
                "end_time": 52.9,
                "pitch": 35,
                "velocity": 80,
                "duration": 0.11590909090909207,
                "tempo": 120.0
            },
            {
                "start_time": 52.918181818181814,
                "end_time": 53.168181818181814,
                "pitch": 35,
                "velocity": 80,
                "duration": 0.25,
                "tempo": 120.0
            },
            {
                "start_time": 53.184090909090905,
                "end_time": 53.3,
                "pitch": 35,
                "velocity": 80,
                "duration": 0.11590909090909207,
                "tempo": 120.0
            },
            {
                "start_time": 53.31818181818181,
                "end_time": 53.434090909090905,
                "pitch": 35,
                "velocity": 80,
                "duration": 0.11590909090909207,
                "tempo": 120.0
            },
            {
                "start_time": 53.45227272727273,
                "end_time": 53.56818181818181,
                "pitch": 47,
                "velocity": 80,
                "duration": 0.11590909090908497,
                "tempo": 120.0
            },
            {
                "start_time": 53.586363636363636,
                "end_time": 53.70227272727273,
                "pitch": 35,
                "velocity": 80,
                "duration": 0.11590909090909207,
                "tempo": 120.0
            },
            {
                "start_time": 53.85227272727273,
                "end_time": 54.10227272727273,
                "pitch": 35,
                "velocity": 80,
                "duration": 0.25,
                "tempo": 120.0
            },
            {
                "start_time": 54.12045454545454,
                "end_time": 54.23863636363636,
                "pitch": 35,
                "velocity": 80,
                "duration": 0.11818181818181728,
                "tempo": 120.0
            },
            {
                "start_time": 54.25454545454545,
                "end_time": 54.375,
                "pitch": 47,
                "velocity": 80,
                "duration": 0.12045454545454959,
                "tempo": 120.0
            },
            {
                "start_time": 54.39090909090909,
                "end_time": 54.51136363636363,
                "pitch": 35,
                "velocity": 80,
                "duration": 0.12045454545454248,
                "tempo": 120.0
            },
            {
                "start_time": 54.527272727272724,
                "end_time": 54.64545454545454,
                "pitch": 35,
                "velocity": 80,
                "duration": 0.11818181818181728,
                "tempo": 120.0
            },
            {
                "start_time": 54.663636363636364,
                "end_time": 54.913636363636364,
                "pitch": 35,
                "velocity": 80,
                "duration": 0.25,
                "tempo": 120.0
            },
            {
                "start_time": 54.93181818181818,
                "end_time": 55.04772727272727,
                "pitch": 35,
                "velocity": 80,
                "duration": 0.11590909090909207,
                "tempo": 120.0
            },
            {
                "start_time": 55.06363636363636,
                "end_time": 55.18181818181818,
                "pitch": 47,
                "velocity": 80,
                "duration": 0.11818181818181728,
                "tempo": 120.0
            },
            {
                "start_time": 55.19772727272727,
                "end_time": 55.31363636363636,
                "pitch": 35,
                "velocity": 80,
                "duration": 0.11590909090909207,
                "tempo": 120.0
            },
            {
                "start_time": 55.33181818181818,
                "end_time": 55.44772727272727,
                "pitch": 35,
                "velocity": 80,
                "duration": 0.11590909090909207,
                "tempo": 120.0
            },
            {
                "start_time": 55.465909090909086,
                "end_time": 55.58181818181818,
                "pitch": 45,
                "velocity": 80,
                "duration": 0.11590909090909207,
                "tempo": 120.0
            },
            {
                "start_time": 55.599999999999994,
                "end_time": 55.715909090909086,
                "pitch": 47,
                "velocity": 80,
                "duration": 0.11590909090909207,
                "tempo": 120.0
            },
            {
                "start_time": 55.73181818181818,
                "end_time": 55.849999999999994,
                "pitch": 31,
                "velocity": 80,
                "duration": 0.11818181818181728,
                "tempo": 120.0
            },
            {
                "start_time": 56.00454545454545,
                "end_time": 56.25909090909091,
                "pitch": 31,
                "velocity": 80,
                "duration": 0.2545454545454575,
                "tempo": 120.0
            },
            {
                "start_time": 56.277272727272724,
                "end_time": 56.393181818181816,
                "pitch": 31,
                "velocity": 80,
                "duration": 0.11590909090909207,
                "tempo": 120.0
            },
            {
                "start_time": 56.40909090909091,
                "end_time": 56.527272727272724,
                "pitch": 43,
                "velocity": 80,
                "duration": 0.11818181818181728,
                "tempo": 120.0
            },
            {
                "start_time": 56.543181818181814,
                "end_time": 56.65909090909091,
                "pitch": 31,
                "velocity": 80,
                "duration": 0.11590909090909207,
                "tempo": 120.0
            },
            {
                "start_time": 56.81136363636363,
                "end_time": 57.06136363636363,
                "pitch": 31,
                "velocity": 80,
                "duration": 0.25,
                "tempo": 120.0
            },
            {
                "start_time": 57.211363636363636,
                "end_time": 57.32727272727272,
                "pitch": 43,
                "velocity": 80,
                "duration": 0.11590909090908497,
                "tempo": 120.0
            },
            {
                "start_time": 57.345454545454544,
                "end_time": 57.46363636363636,
                "pitch": 31,
                "velocity": 80,
                "duration": 0.11818181818181728,
                "tempo": 120.0
            },
            {
                "start_time": 57.48181818181818,
                "end_time": 57.599999999999994,
                "pitch": 31,
                "velocity": 80,
                "duration": 0.11818181818181728,
                "tempo": 120.0
            },
            {
                "start_time": 57.615909090909085,
                "end_time": 57.736363636363635,
                "pitch": 36,
                "velocity": 80,
                "duration": 0.12045454545454959,
                "tempo": 120.0
            },
            {
                "start_time": 57.752272727272725,
                "end_time": 57.87272727272727,
                "pitch": 38,
                "velocity": 80,
                "duration": 0.12045454545454248,
                "tempo": 120.0
            },
            {
                "start_time": 57.88863636363636,
                "end_time": 58.00454545454545,
                "pitch": 33,
                "velocity": 80,
                "duration": 0.11590909090909207,
                "tempo": 120.0
            },
            {
                "start_time": 58.15681818181818,
                "end_time": 58.40681818181818,
                "pitch": 33,
                "velocity": 80,
                "duration": 0.25,
                "tempo": 120.0
            },
            {
                "start_time": 58.42272727272727,
                "end_time": 58.54090909090909,
                "pitch": 33,
                "velocity": 80,
                "duration": 0.11818181818181728,
                "tempo": 120.0
            },
            {
                "start_time": 58.559090909090905,
                "end_time": 58.67727272727272,
                "pitch": 45,
                "velocity": 80,
                "duration": 0.11818181818181728,
                "tempo": 120.0
            },
            {
                "start_time": 58.695454545454545,
                "end_time": 58.81363636363636,
                "pitch": 33,
                "velocity": 80,
                "duration": 0.11818181818181728,
                "tempo": 120.0
            },
            {
                "start_time": 58.83181818181818,
                "end_time": 58.949999999999996,
                "pitch": 33,
                "velocity": 80,
                "duration": 0.11818181818181728,
                "tempo": 120.0
            },
            {
                "start_time": 58.96818181818182,
                "end_time": 59.084090909090904,
                "pitch": 38,
                "velocity": 80,
                "duration": 0.11590909090908497,
                "tempo": 120.0
            },
            {
                "start_time": 59.099999999999994,
                "end_time": 59.21818181818182,
                "pitch": 40,
                "velocity": 80,
                "duration": 0.11818181818182438,
                "tempo": 120.0
            },
            {
                "start_time": 59.23409090909091,
                "end_time": 59.35227272727273,
                "pitch": 33,
                "velocity": 80,
                "duration": 0.11818181818181728,
                "tempo": 120.0
            },
            {
                "start_time": 59.36818181818182,
                "end_time": 59.48409090909091,
                "pitch": 33,
                "velocity": 80,
                "duration": 0.11590909090909207,
                "tempo": 120.0
            },
            {
                "start_time": 59.502272727272725,
                "end_time": 59.61818181818182,
                "pitch": 35,
                "velocity": 80,
                "duration": 0.11590909090909207,
                "tempo": 120.0
            },
            {
                "start_time": 59.63636363636363,
                "end_time": 59.752272727272725,
                "pitch": 35,
                "velocity": 80,
                "duration": 0.11590909090909207,
                "tempo": 120.0
            },
            {
                "start_time": 59.768181818181816,
                "end_time": 59.88636363636363,
                "pitch": 40,
                "velocity": 80,
                "duration": 0.11818181818181728,
                "tempo": 120.0
            },
            {
                "start_time": 59.902272727272724,
                "end_time": 60.018181818181816,
                "pitch": 42,
                "velocity": 80,
                "duration": 0.11590909090909207,
                "tempo": 120.0
            },
            {
                "start_time": 60.03636363636363,
                "end_time": 60.152272727272724,
                "pitch": 35,
                "velocity": 80,
                "duration": 0.11590909090909207,
                "tempo": 120.0
            },
            {
                "start_time": 60.30227272727272,
                "end_time": 60.554545454545455,
                "pitch": 35,
                "velocity": 80,
                "duration": 0.2522727272727323,
                "tempo": 120.0
            },
            {
                "start_time": 60.570454545454545,
                "end_time": 60.68863636363636,
                "pitch": 35,
                "velocity": 80,
                "duration": 0.11818181818181728,
                "tempo": 120.0
            },
            {
                "start_time": 60.70681818181818,
                "end_time": 60.824999999999996,
                "pitch": 47,
                "velocity": 80,
                "duration": 0.11818181818181728,
                "tempo": 120.0
            },
            {
                "start_time": 60.84318181818182,
                "end_time": 60.961363636363636,
                "pitch": 35,
                "velocity": 80,
                "duration": 0.11818181818181728,
                "tempo": 120.0
            },
            {
                "start_time": 60.97954545454545,
                "end_time": 61.09772727272727,
                "pitch": 35,
                "velocity": 80,
                "duration": 0.11818181818181728,
                "tempo": 120.0
            },
            {
                "start_time": 61.11363636363636,
                "end_time": 61.23181818181818,
                "pitch": 40,
                "velocity": 80,
                "duration": 0.11818181818181728,
                "tempo": 120.0
            },
            {
                "start_time": 61.24772727272727,
                "end_time": 61.36363636363636,
                "pitch": 42,
                "velocity": 80,
                "duration": 0.11590909090909207,
                "tempo": 120.0
            },
            {
                "start_time": 61.51590909090909,
                "end_time": 61.631818181818176,
                "pitch": 38,
                "velocity": 80,
                "duration": 0.11590909090908497,
                "tempo": 120.0
            },
            {
                "start_time": 61.647727272727266,
                "end_time": 61.768181818181816,
                "pitch": 40,
                "velocity": 80,
                "duration": 0.12045454545454959,
                "tempo": 120.0
            },
            {
                "start_time": 61.92045454545454,
                "end_time": 62.038636363636364,
                "pitch": 33,
                "velocity": 80,
                "duration": 0.11818181818182438,
                "tempo": 120.0
            },
            {
                "start_time": 62.05681818181818,
                "end_time": 62.175,
                "pitch": 35,
                "velocity": 80,
                "duration": 0.11818181818181728,
                "tempo": 120.0
            },
            {
                "start_time": 62.19318181818181,
                "end_time": 62.309090909090905,
                "pitch": 35,
                "velocity": 80,
                "duration": 0.11590909090909207,
                "tempo": 120.0
            },
            {
                "start_time": 62.459090909090904,
                "end_time": 62.711363636363636,
                "pitch": 35,
                "velocity": 80,
                "duration": 0.2522727272727323,
                "tempo": 120.0
            },
            {
                "start_time": 62.72727272727273,
                "end_time": 62.845454545454544,
                "pitch": 35,
                "velocity": 80,
                "duration": 0.11818181818181728,
                "tempo": 120.0
            },
            {
                "start_time": 62.86363636363636,
                "end_time": 62.98181818181818,
                "pitch": 47,
                "velocity": 80,
                "duration": 0.11818181818181728,
                "tempo": 120.0
            },
            {
                "start_time": 63.0,
                "end_time": 63.11818181818182,
                "pitch": 35,
                "velocity": 80,
                "duration": 0.11818181818181728,
                "tempo": 120.0
            },
            {
                "start_time": 63.13409090909091,
                "end_time": 63.25454545454545,
                "pitch": 35,
                "velocity": 80,
                "duration": 0.12045454545454248,
                "tempo": 120.0
            },
            {
                "start_time": 63.27045454545454,
                "end_time": 63.51590909090909,
                "pitch": 35,
                "velocity": 80,
                "duration": 0.2454545454545496,
                "tempo": 120.0
            },
            {
                "start_time": 63.53409090909091,
                "end_time": 63.77954545454545,
                "pitch": 47,
                "velocity": 80,
                "duration": 0.24545454545454248,
                "tempo": 120.0
            },
            {
                "start_time": 63.79545454545454,
                "end_time": 64.05,
                "pitch": 35,
                "velocity": 80,
                "duration": 0.2545454545454575,
                "tempo": 120.0
            },
            {
                "start_time": 64.06818181818181,
                "end_time": 64.32272727272726,
                "pitch": 47,
                "velocity": 80,
                "duration": 0.2545454545454504,
                "tempo": 120.0
            },
            {
                "start_time": 64.3409090909091,
                "end_time": 64.5909090909091,
                "pitch": 28,
                "velocity": 80,
                "duration": 0.25,
                "tempo": 120.0
            },
            {
                "start_time": 64.60681818181818,
                "end_time": 64.85681818181818,
                "pitch": 40,
                "velocity": 80,
                "duration": 0.25,
                "tempo": 120.0
            },
            {
                "start_time": 64.875,
                "end_time": 65.12954545454545,
                "pitch": 28,
                "velocity": 80,
                "duration": 0.2545454545454504,
                "tempo": 120.0
            },
            {
                "start_time": 65.14545454545454,
                "end_time": 65.39999999999999,
                "pitch": 40,
                "velocity": 80,
                "duration": 0.2545454545454504,
                "tempo": 120.0
            },
            {
                "start_time": 65.41818181818182,
                "end_time": 65.66818181818182,
                "pitch": 28,
                "velocity": 80,
                "duration": 0.25,
                "tempo": 120.0
            },
            {
                "start_time": 65.68636363636364,
                "end_time": 65.93636363636364,
                "pitch": 40,
                "velocity": 80,
                "duration": 0.25,
                "tempo": 120.0
            },
            {
                "start_time": 65.95227272727273,
                "end_time": 66.20227272727273,
                "pitch": 28,
                "velocity": 80,
                "duration": 0.25,
                "tempo": 120.0
            },
            {
                "start_time": 66.22045454545454,
                "end_time": 66.47045454545454,
                "pitch": 40,
                "velocity": 80,
                "duration": 0.25,
                "tempo": 120.0
            },
            {
                "start_time": 66.48636363636363,
                "end_time": 66.74090909090908,
                "pitch": 31,
                "velocity": 80,
                "duration": 0.2545454545454504,
                "tempo": 120.0
            },
            {
                "start_time": 66.7590909090909,
                "end_time": 67.01363636363637,
                "pitch": 43,
                "velocity": 80,
                "duration": 0.2545454545454646,
                "tempo": 120.0
            },
            {
                "start_time": 67.03181818181818,
                "end_time": 67.28181818181818,
                "pitch": 31,
                "velocity": 80,
                "duration": 0.25,
                "tempo": 120.0
            },
            {
                "start_time": 67.29772727272727,
                "end_time": 67.54772727272727,
                "pitch": 43,
                "velocity": 80,
                "duration": 0.25,
                "tempo": 120.0
            },
            {
                "start_time": 67.56590909090909,
                "end_time": 67.81590909090909,
                "pitch": 31,
                "velocity": 80,
                "duration": 0.25,
                "tempo": 120.0
            },
            {
                "start_time": 67.83181818181818,
                "end_time": 68.08181818181818,
                "pitch": 43,
                "velocity": 80,
                "duration": 0.25,
                "tempo": 120.0
            },
            {
                "start_time": 68.1,
                "end_time": 68.35454545454544,
                "pitch": 31,
                "velocity": 80,
                "duration": 0.2545454545454504,
                "tempo": 120.0
            },
            {
                "start_time": 68.37272727272727,
                "end_time": 68.62727272727273,
                "pitch": 43,
                "velocity": 80,
                "duration": 0.2545454545454504,
                "tempo": 120.0
            },
            {
                "start_time": 68.64318181818182,
                "end_time": 68.89318181818182,
                "pitch": 28,
                "velocity": 80,
                "duration": 0.25,
                "tempo": 120.0
            },
            {
                "start_time": 68.91136363636363,
                "end_time": 69.16136363636363,
                "pitch": 40,
                "velocity": 80,
                "duration": 0.25,
                "tempo": 120.0
            },
            {
                "start_time": 69.17727272727272,
                "end_time": 69.42727272727272,
                "pitch": 28,
                "velocity": 80,
                "duration": 0.25,
                "tempo": 120.0
            },
            {
                "start_time": 69.44545454545454,
                "end_time": 69.69545454545454,
                "pitch": 40,
                "velocity": 80,
                "duration": 0.25,
                "tempo": 120.0
            },
            {
                "start_time": 69.71363636363635,
                "end_time": 69.96818181818182,
                "pitch": 28,
                "velocity": 80,
                "duration": 0.2545454545454646,
                "tempo": 120.0
            },
            {
                "start_time": 69.98409090909091,
                "end_time": 70.23863636363636,
                "pitch": 40,
                "velocity": 80,
                "duration": 0.2545454545454504,
                "tempo": 120.0
            },
            {
                "start_time": 70.25681818181818,
                "end_time": 70.50681818181818,
                "pitch": 28,
                "velocity": 80,
                "duration": 0.25,
                "tempo": 120.0
            },
            {
                "start_time": 70.52499999999999,
                "end_time": 70.77499999999999,
                "pitch": 40,
                "velocity": 80,
                "duration": 0.25,
                "tempo": 120.0
            },
            {
                "start_time": 70.79090909090908,
                "end_time": 71.04090909090908,
                "pitch": 31,
                "velocity": 80,
                "duration": 0.25,
                "tempo": 120.0
            },
            {
                "start_time": 71.05909090909091,
                "end_time": 71.30909090909091,
                "pitch": 43,
                "velocity": 80,
                "duration": 0.25,
                "tempo": 120.0
            },
            {
                "start_time": 71.325,
                "end_time": 71.57954545454545,
                "pitch": 31,
                "velocity": 80,
                "duration": 0.2545454545454504,
                "tempo": 120.0
            },
            {
                "start_time": 71.59772727272727,
                "end_time": 71.85227272727272,
                "pitch": 43,
                "velocity": 80,
                "duration": 0.2545454545454504,
                "tempo": 120.0
            },
            {
                "start_time": 71.87045454545454,
                "end_time": 72.12045454545454,
                "pitch": 31,
                "velocity": 80,
                "duration": 0.25,
                "tempo": 120.0
            },
            {
                "start_time": 72.13636363636363,
                "end_time": 72.38636363636363,
                "pitch": 43,
                "velocity": 80,
                "duration": 0.25,
                "tempo": 120.0
            },
            {
                "start_time": 72.40454545454546,
                "end_time": 72.6590909090909,
                "pitch": 31,
                "velocity": 80,
                "duration": 0.2545454545454504,
                "tempo": 120.0
            },
            {
                "start_time": 72.675,
                "end_time": 72.92954545454545,
                "pitch": 43,
                "velocity": 80,
                "duration": 0.2545454545454504,
                "tempo": 120.0
            },
            {
                "start_time": 72.94772727272726,
                "end_time": 75.06818181818181,
                "pitch": 25,
                "velocity": 80,
                "duration": 2.1204545454545496,
                "tempo": 120.0
            },
            {
                "start_time": 77.24318181818181,
                "end_time": 79.36363636363636,
                "pitch": 37,
                "velocity": 80,
                "duration": 2.1204545454545496,
                "tempo": 120.0
            },
            {
                "start_time": 79.37954545454545,
                "end_time": 80.98409090909091,
                "pitch": 49,
                "velocity": 80,
                "duration": 1.604545454545459,
                "tempo": 120.0
            },
            {
                "start_time": 81.00227272727273,
                "end_time": 81.12045454545454,
                "pitch": 38,
                "velocity": 80,
                "duration": 0.11818181818181017,
                "tempo": 120.0
            },
            {
                "start_time": 81.13863636363637,
                "end_time": 81.25681818181818,
                "pitch": 40,
                "velocity": 80,
                "duration": 0.11818181818181017,
                "tempo": 120.0
            },
            {
                "start_time": 81.27272727272727,
                "end_time": 81.39318181818182,
                "pitch": 44,
                "velocity": 80,
                "duration": 0.12045454545454959,
                "tempo": 120.0
            },
            {
                "start_time": 81.4090909090909,
                "end_time": 81.52954545454546,
                "pitch": 49,
                "velocity": 80,
                "duration": 0.12045454545454959,
                "tempo": 120.0
            },
            {
                "start_time": 81.54545454545455,
                "end_time": 83.39999999999999,
                "pitch": 48,
                "velocity": 80,
                "duration": 1.8545454545454447,
                "tempo": 120.0
            },
            {
                "start_time": 83.41590909090908,
                "end_time": 83.66590909090908,
                "pitch": 43,
                "velocity": 80,
                "duration": 0.25,
                "tempo": 120.0
            },
            {
                "start_time": 83.6840909090909,
                "end_time": 84.075,
                "pitch": 48,
                "velocity": 80,
                "duration": 0.39090909090910486,
                "tempo": 120.0
            },
            {
                "start_time": 84.0909090909091,
                "end_time": 84.48181818181818,
                "pitch": 43,
                "velocity": 80,
                "duration": 0.39090909090909065,
                "tempo": 120.0
            },
            {
                "start_time": 84.5,
                "end_time": 85.68863636363636,
                "pitch": 36,
                "velocity": 80,
                "duration": 1.1886363636363626,
                "tempo": 120.0
            },
            {
                "start_time": 85.8409090909091,
                "end_time": 87.96136363636363,
                "pitch": 37,
                "velocity": 80,
                "duration": 2.1204545454545354,
                "tempo": 120.0
            },
            {
                "start_time": 87.97727272727272,
                "end_time": 89.5840909090909,
                "pitch": 49,
                "velocity": 80,
                "duration": 1.6068181818181841,
                "tempo": 120.0
            },
            {
                "start_time": 89.6,
                "end_time": 89.72045454545454,
                "pitch": 38,
                "velocity": 80,
                "duration": 0.12045454545454959,
                "tempo": 120.0
            },
            {
                "start_time": 89.73636363636363,
                "end_time": 89.85454545454544,
                "pitch": 40,
                "velocity": 80,
                "duration": 0.11818181818181017,
                "tempo": 120.0
            },
            {
                "start_time": 89.87272727272727,
                "end_time": 89.99090909090908,
                "pitch": 44,
                "velocity": 80,
                "duration": 0.11818181818181017,
                "tempo": 120.0
            },
            {
                "start_time": 90.0090909090909,
                "end_time": 90.12727272727273,
                "pitch": 49,
                "velocity": 80,
                "duration": 0.11818181818182438,
                "tempo": 120.0
            },
            {
                "start_time": 90.14545454545454,
                "end_time": 92.00227272727273,
                "pitch": 48,
                "velocity": 80,
                "duration": 1.8568181818181841,
                "tempo": 120.0
            },
            {
                "start_time": 92.02045454545454,
                "end_time": 92.26590909090909,
                "pitch": 43,
                "velocity": 80,
                "duration": 0.2454545454545496,
                "tempo": 120.0
            },
            {
                "start_time": 92.28181818181818,
                "end_time": 92.67954545454545,
                "pitch": 48,
                "velocity": 80,
                "duration": 0.39772727272726627,
                "tempo": 120.0
            },
            {
                "start_time": 92.69772727272726,
                "end_time": 93.08636363636363,
                "pitch": 43,
                "velocity": 80,
                "duration": 0.38863636363636545,
                "tempo": 120.0
            },
            {
                "start_time": 93.10227272727272,
                "end_time": 94.28863636363636,
                "pitch": 36,
                "velocity": 80,
                "duration": 1.1863636363636374,
                "tempo": 120.0
            },
            {
                "start_time": 94.44090909090909,
                "end_time": 94.55681818181817,
                "pitch": 28,
                "velocity": 80,
                "duration": 0.11590909090908497,
                "tempo": 120.0
            },
            {
                "start_time": 94.71136363636363,
                "end_time": 94.96590909090908,
                "pitch": 28,
                "velocity": 80,
                "duration": 0.2545454545454504,
                "tempo": 120.0
            },
            {
                "start_time": 94.98409090909091,
                "end_time": 95.10227272727272,
                "pitch": 28,
                "velocity": 80,
                "duration": 0.11818181818181017,
                "tempo": 120.0
            },
            {
                "start_time": 95.11818181818181,
                "end_time": 95.23863636363636,
                "pitch": 40,
                "velocity": 80,
                "duration": 0.12045454545454959,
                "tempo": 120.0
            },
            {
                "start_time": 95.25454545454545,
                "end_time": 95.37272727272727,
                "pitch": 28,
                "velocity": 80,
                "duration": 0.11818181818182438,
                "tempo": 120.0
            },
            {
                "start_time": 95.39090909090909,
                "end_time": 95.5090909090909,
                "pitch": 28,
                "velocity": 80,
                "duration": 0.11818181818181017,
                "tempo": 120.0
            },
            {
                "start_time": 95.52727272727272,
                "end_time": 95.77727272727272,
                "pitch": 28,
                "velocity": 80,
                "duration": 0.25,
                "tempo": 120.0
            },
            {
                "start_time": 95.79545454545455,
                "end_time": 95.91136363636363,
                "pitch": 28,
                "velocity": 80,
                "duration": 0.11590909090908497,
                "tempo": 120.0
            },
            {
                "start_time": 95.92727272727272,
                "end_time": 96.04545454545455,
                "pitch": 40,
                "velocity": 80,
                "duration": 0.11818181818182438,
                "tempo": 120.0
            },
            {
                "start_time": 96.06136363636364,
                "end_time": 96.17727272727272,
                "pitch": 28,
                "velocity": 80,
                "duration": 0.11590909090908497,
                "tempo": 120.0
            },
            {
                "start_time": 96.19545454545454,
                "end_time": 96.31136363636364,
                "pitch": 28,
                "velocity": 80,
                "duration": 0.11590909090909918,
                "tempo": 120.0
            },
            {
                "start_time": 96.32954545454545,
                "end_time": 96.44545454545454,
                "pitch": 38,
                "velocity": 80,
                "duration": 0.11590909090908497,
                "tempo": 120.0
            },
            {
                "start_time": 96.46363636363635,
                "end_time": 96.57954545454545,
                "pitch": 40,
                "velocity": 80,
                "duration": 0.11590909090909918,
                "tempo": 120.0
            },
            {
                "start_time": 96.59545454545454,
                "end_time": 96.71363636363635,
                "pitch": 36,
                "velocity": 80,
                "duration": 0.11818181818181017,
                "tempo": 120.0
            },
            {
                "start_time": 96.86363636363636,
                "end_time": 97.11363636363636,
                "pitch": 36,
                "velocity": 80,
                "duration": 0.25,
                "tempo": 120.0
            },
            {
                "start_time": 97.12954545454545,
                "end_time": 97.25,
                "pitch": 36,
                "velocity": 80,
                "duration": 0.12045454545454959,
                "tempo": 120.0
            },
            {
                "start_time": 97.26590909090909,
                "end_time": 97.3840909090909,
                "pitch": 48,
                "velocity": 80,
                "duration": 0.11818181818181017,
                "tempo": 120.0
            },
            {
                "start_time": 97.40227272727272,
                "end_time": 97.52045454545454,
                "pitch": 36,
                "velocity": 80,
                "duration": 0.11818181818182438,
                "tempo": 120.0
            },
            {
                "start_time": 97.53863636363636,
                "end_time": 97.65681818181818,
                "pitch": 36,
                "velocity": 80,
                "duration": 0.11818181818182438,
                "tempo": 120.0
            },
            {
                "start_time": 97.675,
                "end_time": 97.79090909090908,
                "pitch": 41,
                "velocity": 80,
                "duration": 0.11590909090908497,
                "tempo": 120.0
            },
            {
                "start_time": 97.80681818181817,
                "end_time": 97.925,
                "pitch": 43,
                "velocity": 80,
                "duration": 0.11818181818182438,
                "tempo": 120.0
            },
            {
                "start_time": 97.94090909090909,
                "end_time": 98.0590909090909,
                "pitch": 31,
                "velocity": 80,
                "duration": 0.11818181818181017,
                "tempo": 120.0
            },
            {
                "start_time": 98.07499999999999,
                "end_time": 98.19090909090909,
                "pitch": 39,
                "velocity": 80,
                "duration": 0.11590909090909918,
                "tempo": 120.0
            },
            {
                "start_time": 98.2090909090909,
                "end_time": 98.32499999999999,
                "pitch": 41,
                "velocity": 80,
                "duration": 0.11590909090908497,
                "tempo": 120.0
            },
            {
                "start_time": 98.34318181818182,
                "end_time": 98.4590909090909,
                "pitch": 29,
                "velocity": 80,
                "duration": 0.11590909090908497,
                "tempo": 120.0
            },
            {
                "start_time": 98.475,
                "end_time": 98.59318181818182,
                "pitch": 34,
                "velocity": 80,
                "duration": 0.11818181818182438,
                "tempo": 120.0
            },
            {
                "start_time": 98.60909090909091,
                "end_time": 98.725,
                "pitch": 36,
                "velocity": 80,
                "duration": 0.11590909090908497,
                "tempo": 120.0
            },
            {
                "start_time": 98.74318181818181,
                "end_time": 98.86136363636363,
                "pitch": 35,
                "velocity": 80,
                "duration": 0.11818181818182438,
                "tempo": 120.0
            },
            {
                "start_time": 99.01590909090909,
                "end_time": 99.27045454545454,
                "pitch": 35,
                "velocity": 80,
                "duration": 0.2545454545454504,
                "tempo": 120.0
            },
            {
                "start_time": 99.28636363636363,
                "end_time": 99.40454545454546,
                "pitch": 35,
                "velocity": 80,
                "duration": 0.11818181818182438,
                "tempo": 120.0
            },
            {
                "start_time": 99.42045454545455,
                "end_time": 99.53636363636363,
                "pitch": 47,
                "velocity": 80,
                "duration": 0.11590909090908497,
                "tempo": 120.0
            },
            {
                "start_time": 99.55454545454545,
                "end_time": 99.67045454545455,
                "pitch": 35,
                "velocity": 80,
                "duration": 0.11590909090909918,
                "tempo": 120.0
            },
            {
                "start_time": 99.68863636363636,
                "end_time": 99.80454545454545,
                "pitch": 35,
                "velocity": 80,
                "duration": 0.11590909090908497,
                "tempo": 120.0
            },
            {
                "start_time": 99.82272727272726,
                "end_time": 99.93863636363636,
                "pitch": 40,
                "velocity": 80,
                "duration": 0.11590909090909918,
                "tempo": 120.0
            },
            {
                "start_time": 99.95454545454545,
                "end_time": 100.07045454545454,
                "pitch": 42,
                "velocity": 80,
                "duration": 0.11590909090908497,
                "tempo": 120.0
            },
            {
                "start_time": 100.08863636363635,
                "end_time": 100.20454545454545,
                "pitch": 35,
                "velocity": 80,
                "duration": 0.11590909090909918,
                "tempo": 120.0
            },
            {
                "start_time": 100.22272727272727,
                "end_time": 100.47272727272727,
                "pitch": 35,
                "velocity": 80,
                "duration": 0.25,
                "tempo": 120.0
            },
            {
                "start_time": 100.48863636363636,
                "end_time": 100.60681818181817,
                "pitch": 35,
                "velocity": 80,
                "duration": 0.11818181818181017,
                "tempo": 120.0
            },
            {
                "start_time": 100.62272727272727,
                "end_time": 100.73863636363636,
                "pitch": 35,
                "velocity": 80,
                "duration": 0.11590909090908497,
                "tempo": 120.0
            },
            {
                "start_time": 100.75681818181818,
                "end_time": 100.87272727272727,
                "pitch": 47,
                "velocity": 80,
                "duration": 0.11590909090909918,
                "tempo": 120.0
            },
            {
                "start_time": 100.89090909090909,
                "end_time": 101.0090909090909,
                "pitch": 35,
                "velocity": 80,
                "duration": 0.11818181818181017,
                "tempo": 120.0
            },
            {
                "start_time": 101.16136363636363,
                "end_time": 101.41590909090908,
                "pitch": 35,
                "velocity": 80,
                "duration": 0.2545454545454504,
                "tempo": 120.0
            },
            {
                "start_time": 101.4340909090909,
                "end_time": 101.55227272727272,
                "pitch": 35,
                "velocity": 80,
                "duration": 0.11818181818182438,
                "tempo": 120.0
            },
            {
                "start_time": 101.57045454545454,
                "end_time": 101.68863636363636,
                "pitch": 47,
                "velocity": 80,
                "duration": 0.11818181818182438,
                "tempo": 120.0
            },
            {
                "start_time": 101.70681818181818,
                "end_time": 101.82499999999999,
                "pitch": 35,
                "velocity": 80,
                "duration": 0.11818181818181017,
                "tempo": 120.0
            },
            {
                "start_time": 101.84318181818182,
                "end_time": 101.96136363636363,
                "pitch": 35,
                "velocity": 80,
                "duration": 0.11818181818181017,
                "tempo": 120.0
            },
            {
                "start_time": 101.97727272727272,
                "end_time": 102.22954545454544,
                "pitch": 35,
                "velocity": 80,
                "duration": 0.2522727272727252,
                "tempo": 120.0
            },
            {
                "start_time": 102.24545454545454,
                "end_time": 102.36136363636363,
                "pitch": 35,
                "velocity": 80,
                "duration": 0.11590909090909918,
                "tempo": 120.0
            },
            {
                "start_time": 102.37954545454545,
                "end_time": 102.49545454545454,
                "pitch": 47,
                "velocity": 80,
                "duration": 0.11590909090908497,
                "tempo": 120.0
            },
            {
                "start_time": 102.51363636363637,
                "end_time": 102.62954545454545,
                "pitch": 35,
                "velocity": 80,
                "duration": 0.11590909090908497,
                "tempo": 120.0
            },
            {
                "start_time": 102.64545454545454,
                "end_time": 102.76363636363637,
                "pitch": 35,
                "velocity": 80,
                "duration": 0.11818181818182438,
                "tempo": 120.0
            },
            {
                "start_time": 102.77954545454546,
                "end_time": 102.89545454545454,
                "pitch": 45,
                "velocity": 80,
                "duration": 0.11590909090908497,
                "tempo": 120.0
            },
            {
                "start_time": 102.91363636363636,
                "end_time": 103.02954545454546,
                "pitch": 47,
                "velocity": 80,
                "duration": 0.11590909090909918,
                "tempo": 120.0
            },
            {
                "start_time": 103.04772727272727,
                "end_time": 103.16363636363636,
                "pitch": 31,
                "velocity": 80,
                "duration": 0.11590909090908497,
                "tempo": 120.0
            },
            {
                "start_time": 103.31363636363636,
                "end_time": 103.56363636363636,
                "pitch": 31,
                "velocity": 80,
                "duration": 0.25,
                "tempo": 120.0
            },
            {
                "start_time": 103.58181818181818,
                "end_time": 103.69999999999999,
                "pitch": 31,
                "velocity": 80,
                "duration": 0.11818181818181017,
                "tempo": 120.0
            },
            {
                "start_time": 103.71818181818182,
                "end_time": 103.83636363636363,
                "pitch": 43,
                "velocity": 80,
                "duration": 0.11818181818181017,
                "tempo": 120.0
            },
            {
                "start_time": 103.85454545454544,
                "end_time": 103.97272727272727,
                "pitch": 31,
                "velocity": 80,
                "duration": 0.11818181818182438,
                "tempo": 120.0
            },
            {
                "start_time": 104.125,
                "end_time": 104.375,
                "pitch": 31,
                "velocity": 80,
                "duration": 0.25,
                "tempo": 120.0
            },
            {
                "start_time": 104.52727272727272,
                "end_time": 104.64318181818182,
                "pitch": 43,
                "velocity": 80,
                "duration": 0.11590909090909918,
                "tempo": 120.0
            },
            {
                "start_time": 104.6590909090909,
                "end_time": 104.77727272727272,
                "pitch": 31,
                "velocity": 80,
                "duration": 0.11818181818181017,
                "tempo": 120.0
            },
            {
                "start_time": 104.79318181818181,
                "end_time": 104.9090909090909,
                "pitch": 31,
                "velocity": 80,
                "duration": 0.11590909090909918,
                "tempo": 120.0
            },
            {
                "start_time": 104.92727272727272,
                "end_time": 105.04318181818181,
                "pitch": 36,
                "velocity": 80,
                "duration": 0.11590909090908497,
                "tempo": 120.0
            },
            {
                "start_time": 105.06136363636364,
                "end_time": 105.17727272727272,
                "pitch": 38,
                "velocity": 80,
                "duration": 0.11590909090908497,
                "tempo": 120.0
            },
            {
                "start_time": 105.19545454545454,
                "end_time": 105.31136363636364,
                "pitch": 33,
                "velocity": 80,
                "duration": 0.11590909090909918,
                "tempo": 120.0
            },
            {
                "start_time": 105.46136363636363,
                "end_time": 105.71136363636363,
                "pitch": 33,
                "velocity": 80,
                "duration": 0.25,
                "tempo": 120.0
            },
            {
                "start_time": 105.72954545454544,
                "end_time": 105.84772727272727,
                "pitch": 33,
                "velocity": 80,
                "duration": 0.11818181818182438,
                "tempo": 120.0
            },
            {
                "start_time": 105.86363636363636,
                "end_time": 105.98409090909091,
                "pitch": 45,
                "velocity": 80,
                "duration": 0.12045454545454959,
                "tempo": 120.0
            },
            {
                "start_time": 106.0,
                "end_time": 106.11818181818181,
                "pitch": 33,
                "velocity": 80,
                "duration": 0.11818181818181017,
                "tempo": 120.0
            },
            {
                "start_time": 106.13636363636363,
                "end_time": 106.25454545454545,
                "pitch": 33,
                "velocity": 80,
                "duration": 0.11818181818182438,
                "tempo": 120.0
            },
            {
                "start_time": 106.27272727272727,
                "end_time": 106.38863636363637,
                "pitch": 38,
                "velocity": 80,
                "duration": 0.11590909090909918,
                "tempo": 120.0
            },
            {
                "start_time": 106.40681818181818,
                "end_time": 106.52272727272727,
                "pitch": 40,
                "velocity": 80,
                "duration": 0.11590909090908497,
                "tempo": 120.0
            },
            {
                "start_time": 106.53863636363636,
                "end_time": 106.65681818181818,
                "pitch": 33,
                "velocity": 80,
                "duration": 0.11818181818182438,
                "tempo": 120.0
            },
            {
                "start_time": 106.67272727272727,
                "end_time": 106.79090909090908,
                "pitch": 33,
                "velocity": 80,
                "duration": 0.11818181818181017,
                "tempo": 120.0
            },
            {
                "start_time": 106.80681818181817,
                "end_time": 106.925,
                "pitch": 35,
                "velocity": 80,
                "duration": 0.11818181818182438,
                "tempo": 120.0
            },
            {
                "start_time": 106.94318181818181,
                "end_time": 107.06136363636364,
                "pitch": 35,
                "velocity": 80,
                "duration": 0.11818181818182438,
                "tempo": 120.0
            },
            {
                "start_time": 107.07954545454545,
                "end_time": 107.19772727272726,
                "pitch": 40,
                "velocity": 80,
                "duration": 0.11818181818181017,
                "tempo": 120.0
            },
            {
                "start_time": 107.21363636363635,
                "end_time": 107.3340909090909,
                "pitch": 42,
                "velocity": 80,
                "duration": 0.12045454545454959,
                "tempo": 120.0
            },
            {
                "start_time": 107.35,
                "end_time": 107.46818181818182,
                "pitch": 35,
                "velocity": 80,
                "duration": 0.11818181818182438,
                "tempo": 120.0
            },
            {
                "start_time": 107.61818181818181,
                "end_time": 107.86818181818181,
                "pitch": 35,
                "velocity": 80,
                "duration": 0.25,
                "tempo": 120.0
            },
            {
                "start_time": 107.8840909090909,
                "end_time": 108.00454545454545,
                "pitch": 35,
                "velocity": 80,
                "duration": 0.12045454545454959,
                "tempo": 120.0
            },
            {
                "start_time": 108.02045454545454,
                "end_time": 108.13863636363637,
                "pitch": 47,
                "velocity": 80,
                "duration": 0.11818181818182438,
                "tempo": 120.0
            },
            {
                "start_time": 108.15681818181818,
                "end_time": 108.27499999999999,
                "pitch": 35,
                "velocity": 80,
                "duration": 0.11818181818181017,
                "tempo": 120.0
            },
            {
                "start_time": 108.29318181818181,
                "end_time": 108.41136363636363,
                "pitch": 35,
                "velocity": 80,
                "duration": 0.11818181818182438,
                "tempo": 120.0
            },
            {
                "start_time": 108.42954545454545,
                "end_time": 108.54545454545455,
                "pitch": 40,
                "velocity": 80,
                "duration": 0.11590909090909918,
                "tempo": 120.0
            },
            {
                "start_time": 108.56363636363636,
                "end_time": 108.67954545454545,
                "pitch": 42,
                "velocity": 80,
                "duration": 0.11590909090908497,
                "tempo": 120.0
            },
            {
                "start_time": 108.82954545454545,
                "end_time": 108.94545454545454,
                "pitch": 38,
                "velocity": 80,
                "duration": 0.11590909090908497,
                "tempo": 120.0
            },
            {
                "start_time": 108.96363636363635,
                "end_time": 109.07954545454545,
                "pitch": 40,
                "velocity": 80,
                "duration": 0.11590909090909918,
                "tempo": 120.0
            },
            {
                "start_time": 109.23181818181817,
                "end_time": 109.34772727272727,
                "pitch": 33,
                "velocity": 80,
                "duration": 0.11590909090909918,
                "tempo": 120.0
            },
            {
                "start_time": 109.36363636363636,
                "end_time": 109.48181818181817,
                "pitch": 35,
                "velocity": 80,
                "duration": 0.11818181818181017,
                "tempo": 120.0
            },
            {
                "start_time": 109.49772727272726,
                "end_time": 109.61363636363636,
                "pitch": 35,
                "velocity": 80,
                "duration": 0.11590909090909918,
                "tempo": 120.0
            },
            {
                "start_time": 109.76590909090909,
                "end_time": 110.01590909090909,
                "pitch": 35,
                "velocity": 80,
                "duration": 0.25,
                "tempo": 120.0
            },
            {
                "start_time": 110.03181818181818,
                "end_time": 110.14999999999999,
                "pitch": 35,
                "velocity": 80,
                "duration": 0.11818181818181017,
                "tempo": 120.0
            },
            {
                "start_time": 110.16818181818181,
                "end_time": 110.28636363636363,
                "pitch": 47,
                "velocity": 80,
                "duration": 0.11818181818182438,
                "tempo": 120.0
            },
            {
                "start_time": 110.30454545454545,
                "end_time": 110.42272727272727,
                "pitch": 35,
                "velocity": 80,
                "duration": 0.11818181818182438,
                "tempo": 120.0
            },
            {
                "start_time": 110.44090909090909,
                "end_time": 110.5590909090909,
                "pitch": 35,
                "velocity": 80,
                "duration": 0.11818181818181017,
                "tempo": 120.0
            },
            {
                "start_time": 110.57727272727273,
                "end_time": 110.82727272727273,
                "pitch": 35,
                "velocity": 80,
                "duration": 0.25,
                "tempo": 120.0
            },
            {
                "start_time": 110.84318181818182,
                "end_time": 111.09318181818182,
                "pitch": 47,
                "velocity": 80,
                "duration": 0.25,
                "tempo": 120.0
            },
            {
                "start_time": 111.11136363636363,
                "end_time": 111.36136363636363,
                "pitch": 35,
                "velocity": 80,
                "duration": 0.25,
                "tempo": 120.0
            },
            {
                "start_time": 111.37727272727273,
                "end_time": 111.62727272727273,
                "pitch": 47,
                "velocity": 80,
                "duration": 0.25,
                "tempo": 120.0
            },
            {
                "start_time": 111.64545454545454,
                "end_time": 111.89999999999999,
                "pitch": 28,
                "velocity": 80,
                "duration": 0.2545454545454504,
                "tempo": 120.0
            },
            {
                "start_time": 111.91818181818181,
                "end_time": 112.17272727272727,
                "pitch": 40,
                "velocity": 80,
                "duration": 0.2545454545454646,
                "tempo": 120.0
            },
            {
                "start_time": 112.18863636363636,
                "end_time": 112.43863636363636,
                "pitch": 28,
                "velocity": 80,
                "duration": 0.25,
                "tempo": 120.0
            },
            {
                "start_time": 112.45681818181818,
                "end_time": 112.70681818181818,
                "pitch": 40,
                "velocity": 80,
                "duration": 0.25,
                "tempo": 120.0
            },
            {
                "start_time": 112.72272727272727,
                "end_time": 112.97272727272727,
                "pitch": 28,
                "velocity": 80,
                "duration": 0.25,
                "tempo": 120.0
            },
            {
                "start_time": 112.99090909090908,
                "end_time": 113.24090909090908,
                "pitch": 40,
                "velocity": 80,
                "duration": 0.25,
                "tempo": 120.0
            },
            {
                "start_time": 113.2590909090909,
                "end_time": 113.51136363636363,
                "pitch": 28,
                "velocity": 80,
                "duration": 0.2522727272727252,
                "tempo": 120.0
            },
            {
                "start_time": 113.52954545454546,
                "end_time": 113.7840909090909,
                "pitch": 40,
                "velocity": 80,
                "duration": 0.2545454545454504,
                "tempo": 120.0
            },
            {
                "start_time": 113.80227272727272,
                "end_time": 114.05227272727272,
                "pitch": 31,
                "velocity": 80,
                "duration": 0.25,
                "tempo": 120.0
            },
            {
                "start_time": 114.06818181818181,
                "end_time": 114.31818181818181,
                "pitch": 43,
                "velocity": 80,
                "duration": 0.25,
                "tempo": 120.0
            },
            {
                "start_time": 114.33636363636363,
                "end_time": 114.59090909090908,
                "pitch": 31,
                "velocity": 80,
                "duration": 0.2545454545454504,
                "tempo": 120.0
            },
            {
                "start_time": 114.60681818181817,
                "end_time": 114.86363636363636,
                "pitch": 43,
                "velocity": 80,
                "duration": 0.25681818181818983,
                "tempo": 120.0
            },
            {
                "start_time": 114.87954545454545,
                "end_time": 115.125,
                "pitch": 31,
                "velocity": 80,
                "duration": 0.2454545454545496,
                "tempo": 120.0
            },
            {
                "start_time": 115.14318181818182,
                "end_time": 115.38863636363635,
                "pitch": 43,
                "velocity": 80,
                "duration": 0.24545454545453538,
                "tempo": 120.0
            },
            {
                "start_time": 115.40454545454544,
                "end_time": 115.6590909090909,
                "pitch": 31,
                "velocity": 80,
                "duration": 0.2545454545454646,
                "tempo": 120.0
            },
            {
                "start_time": 115.67727272727272,
                "end_time": 115.93181818181817,
                "pitch": 43,
                "velocity": 80,
                "duration": 0.2545454545454504,
                "tempo": 120.0
            },
            {
                "start_time": 115.94999999999999,
                "end_time": 116.19999999999999,
                "pitch": 28,
                "velocity": 80,
                "duration": 0.25,
                "tempo": 120.0
            },
            {
                "start_time": 116.21590909090908,
                "end_time": 116.46590909090908,
                "pitch": 40,
                "velocity": 80,
                "duration": 0.25,
                "tempo": 120.0
            },
            {
                "start_time": 116.48409090909091,
                "end_time": 116.73863636363636,
                "pitch": 28,
                "velocity": 80,
                "duration": 0.2545454545454504,
                "tempo": 120.0
            },
            {
                "start_time": 116.75454545454545,
                "end_time": 117.0090909090909,
                "pitch": 40,
                "velocity": 80,
                "duration": 0.2545454545454504,
                "tempo": 120.0
            },
            {
                "start_time": 117.02727272727272,
                "end_time": 117.27727272727272,
                "pitch": 28,
                "velocity": 80,
                "duration": 0.25,
                "tempo": 120.0
            },
            {
                "start_time": 117.29545454545455,
                "end_time": 117.54545454545455,
                "pitch": 40,
                "velocity": 80,
                "duration": 0.25,
                "tempo": 120.0
            },
            {
                "start_time": 117.56136363636364,
                "end_time": 117.81136363636364,
                "pitch": 28,
                "velocity": 80,
                "duration": 0.25,
                "tempo": 120.0
            },
            {
                "start_time": 117.82954545454545,
                "end_time": 118.07954545454545,
                "pitch": 40,
                "velocity": 80,
                "duration": 0.25,
                "tempo": 120.0
            },
            {
                "start_time": 118.09545454545454,
                "end_time": 118.35,
                "pitch": 31,
                "velocity": 80,
                "duration": 0.2545454545454504,
                "tempo": 120.0
            },
            {
                "start_time": 118.36818181818181,
                "end_time": 118.62272727272726,
                "pitch": 43,
                "velocity": 80,
                "duration": 0.2545454545454504,
                "tempo": 120.0
            },
            {
                "start_time": 118.64090909090909,
                "end_time": 118.89090909090909,
                "pitch": 31,
                "velocity": 80,
                "duration": 0.25,
                "tempo": 120.0
            },
            {
                "start_time": 118.90681818181818,
                "end_time": 119.15681818181818,
                "pitch": 43,
                "velocity": 80,
                "duration": 0.25,
                "tempo": 120.0
            },
            {
                "start_time": 119.175,
                "end_time": 119.425,
                "pitch": 31,
                "velocity": 80,
                "duration": 0.25,
                "tempo": 120.0
            },
            {
                "start_time": 119.44090909090909,
                "end_time": 119.69090909090909,
                "pitch": 43,
                "velocity": 80,
                "duration": 0.25,
                "tempo": 120.0
            },
            {
                "start_time": 119.7090909090909,
                "end_time": 119.96363636363635,
                "pitch": 31,
                "velocity": 80,
                "duration": 0.2545454545454504,
                "tempo": 120.0
            },
            {
                "start_time": 119.97954545454544,
                "end_time": 120.23636363636363,
                "pitch": 43,
                "velocity": 80,
                "duration": 0.25681818181818983,
                "tempo": 120.0
            },
            {
                "start_time": 120.25227272727273,
                "end_time": 120.50227272727273,
                "pitch": 28,
                "velocity": 80,
                "duration": 0.25,
                "tempo": 120.0
            },
            {
                "start_time": 120.52045454545454,
                "end_time": 120.77045454545454,
                "pitch": 40,
                "velocity": 80,
                "duration": 0.25,
                "tempo": 120.0
            },
            {
                "start_time": 120.78636363636363,
                "end_time": 121.03636363636363,
                "pitch": 28,
                "velocity": 80,
                "duration": 0.25,
                "tempo": 120.0
            },
            {
                "start_time": 121.05454545454545,
                "end_time": 121.30454545454545,
                "pitch": 40,
                "velocity": 80,
                "duration": 0.25,
                "tempo": 120.0
            },
            {
                "start_time": 121.32272727272726,
                "end_time": 121.57499999999999,
                "pitch": 28,
                "velocity": 80,
                "duration": 0.2522727272727252,
                "tempo": 120.0
            },
            {
                "start_time": 121.59318181818182,
                "end_time": 121.84772727272727,
                "pitch": 40,
                "velocity": 80,
                "duration": 0.2545454545454504,
                "tempo": 120.0
            },
            {
                "start_time": 121.86590909090908,
                "end_time": 122.11590909090908,
                "pitch": 28,
                "velocity": 80,
                "duration": 0.25,
                "tempo": 120.0
            },
            {
                "start_time": 122.13181818181818,
                "end_time": 122.38181818181818,
                "pitch": 40,
                "velocity": 80,
                "duration": 0.25,
                "tempo": 120.0
            },
            {
                "start_time": 122.39999999999999,
                "end_time": 122.64999999999999,
                "pitch": 31,
                "velocity": 80,
                "duration": 0.25,
                "tempo": 120.0
            },
            {
                "start_time": 122.66590909090908,
                "end_time": 122.91818181818181,
                "pitch": 43,
                "velocity": 80,
                "duration": 0.2522727272727252,
                "tempo": 120.0
            },
            {
                "start_time": 122.9340909090909,
                "end_time": 123.18863636363636,
                "pitch": 31,
                "velocity": 80,
                "duration": 0.2545454545454646,
                "tempo": 120.0
            },
            {
                "start_time": 123.20681818181818,
                "end_time": 123.46136363636363,
                "pitch": 43,
                "velocity": 80,
                "duration": 0.2545454545454504,
                "tempo": 120.0
            },
            {
                "start_time": 123.47727272727272,
                "end_time": 123.72727272727272,
                "pitch": 31,
                "velocity": 80,
                "duration": 0.25,
                "tempo": 120.0
            },
            {
                "start_time": 123.74545454545454,
                "end_time": 123.99545454545454,
                "pitch": 43,
                "velocity": 80,
                "duration": 0.25,
                "tempo": 120.0
            },
            {
                "start_time": 124.01136363636363,
                "end_time": 124.26363636363635,
                "pitch": 31,
                "velocity": 80,
                "duration": 0.2522727272727252,
                "tempo": 120.0
            },
            {
                "start_time": 124.27954545454544,
                "end_time": 124.52954545454544,
                "pitch": 43,
                "velocity": 80,
                "duration": 0.25,
                "tempo": 120.0
            },
            {
                "start_time": 124.54772727272727,
                "end_time": 124.80227272727272,
                "pitch": 28,
                "velocity": 80,
                "duration": 0.2545454545454504,
                "tempo": 120.0
            },
            {
                "start_time": 124.81818181818181,
                "end_time": 125.07272727272726,
                "pitch": 40,
                "velocity": 80,
                "duration": 0.2545454545454504,
                "tempo": 120.0
            },
            {
                "start_time": 125.09090909090908,
                "end_time": 125.34090909090908,
                "pitch": 28,
                "velocity": 80,
                "duration": 0.25,
                "tempo": 120.0
            },
            {
                "start_time": 125.35681818181817,
                "end_time": 125.60909090909091,
                "pitch": 40,
                "velocity": 80,
                "duration": 0.2522727272727394,
                "tempo": 120.0
            },
            {
                "start_time": 125.625,
                "end_time": 125.875,
                "pitch": 28,
                "velocity": 80,
                "duration": 0.25,
                "tempo": 120.0
            },
            {
                "start_time": 125.89318181818182,
                "end_time": 126.14318181818182,
                "pitch": 40,
                "velocity": 80,
                "duration": 0.25,
                "tempo": 120.0
            },
            {
                "start_time": 126.1590909090909,
                "end_time": 126.41363636363636,
                "pitch": 28,
                "velocity": 80,
                "duration": 0.2545454545454504,
                "tempo": 120.0
            },
            {
                "start_time": 126.43181818181817,
                "end_time": 126.68636363636362,
                "pitch": 40,
                "velocity": 80,
                "duration": 0.2545454545454504,
                "tempo": 120.0
            },
            {
                "start_time": 126.70454545454545,
                "end_time": 126.95454545454545,
                "pitch": 31,
                "velocity": 80,
                "duration": 0.25,
                "tempo": 120.0
            },
            {
                "start_time": 126.97045454545454,
                "end_time": 127.22045454545454,
                "pitch": 43,
                "velocity": 80,
                "duration": 0.25,
                "tempo": 120.0
            },
            {
                "start_time": 127.23863636363636,
                "end_time": 127.48863636363636,
                "pitch": 31,
                "velocity": 80,
                "duration": 0.25,
                "tempo": 120.0
            },
            {
                "start_time": 127.50454545454545,
                "end_time": 127.75454545454545,
                "pitch": 43,
                "velocity": 80,
                "duration": 0.25,
                "tempo": 120.0
            },
            {
                "start_time": 127.77272727272727,
                "end_time": 128.02727272727273,
                "pitch": 31,
                "velocity": 80,
                "duration": 0.2545454545454646,
                "tempo": 120.0
            },
            {
                "start_time": 128.04545454545453,
                "end_time": 128.29999999999998,
                "pitch": 43,
                "velocity": 80,
                "duration": 0.2545454545454504,
                "tempo": 120.0
            },
            {
                "start_time": 128.3159090909091,
                "end_time": 128.5659090909091,
                "pitch": 31,
                "velocity": 80,
                "duration": 0.25,
                "tempo": 120.0
            },
            {
                "start_time": 128.5840909090909,
                "end_time": 128.8340909090909,
                "pitch": 43,
                "velocity": 80,
                "duration": 0.25,
                "tempo": 120.0
            },
            {
                "start_time": 128.85,
                "end_time": 129.2340909090909,
                "pitch": 28,
                "velocity": 80,
                "duration": 0.3840909090909008,
                "tempo": 120.0
            },
            {
                "start_time": 129.25227272727273,
                "end_time": 129.36818181818182,
                "pitch": 28,
                "velocity": 80,
                "duration": 0.11590909090909918,
                "tempo": 120.0
            },
            {
                "start_time": 133.14545454545453,
                "end_time": 133.52954545454546,
                "pitch": 28,
                "velocity": 80,
                "duration": 0.38409090909092924,
                "tempo": 120.0
            },
            {
                "start_time": 133.54545454545453,
                "end_time": 133.66136363636363,
                "pitch": 28,
                "velocity": 80,
                "duration": 0.11590909090909918,
                "tempo": 120.0
            },
            {
                "start_time": 133.8159090909091,
                "end_time": 133.9340909090909,
                "pitch": 28,
                "velocity": 80,
                "duration": 0.11818181818182438,
                "tempo": 120.0
            },
            {
                "start_time": 137.44772727272726,
                "end_time": 137.83181818181816,
                "pitch": 28,
                "velocity": 80,
                "duration": 0.3840909090909008,
                "tempo": 120.0
            },
            {
                "start_time": 137.85,
                "end_time": 137.9659090909091,
                "pitch": 28,
                "velocity": 80,
                "duration": 0.11590909090909918,
                "tempo": 120.0
            },
            {
                "start_time": 138.12045454545455,
                "end_time": 138.24090909090907,
                "pitch": 28,
                "velocity": 80,
                "duration": 0.12045454545452117,
                "tempo": 120.0
            },
            {
                "start_time": 138.39772727272725,
                "end_time": 138.5181818181818,
                "pitch": 28,
                "velocity": 80,
                "duration": 0.12045454545454959,
                "tempo": 120.0
            },
            {
                "start_time": 141.75227272727273,
                "end_time": 142.13636363636363,
                "pitch": 28,
                "velocity": 80,
                "duration": 0.3840909090909008,
                "tempo": 120.0
            },
            {
                "start_time": 142.15454545454546,
                "end_time": 142.27045454545453,
                "pitch": 28,
                "velocity": 80,
                "duration": 0.11590909090907076,
                "tempo": 120.0
            },
            {
                "start_time": 142.4181818181818,
                "end_time": 142.53181818181818,
                "pitch": 28,
                "velocity": 80,
                "duration": 0.11363636363637397,
                "tempo": 120.0
            },
            {
                "start_time": 142.6818181818182,
                "end_time": 142.79545454545453,
                "pitch": 28,
                "velocity": 80,
                "duration": 0.11363636363634555,
                "tempo": 120.0
            },
            {
                "start_time": 143.89090909090908,
                "end_time": 144.4181818181818,
                "pitch": 25,
                "velocity": 101,
                "duration": 0.5272727272727309,
                "tempo": 120.0
            },
            {
                "start_time": 144.84318181818182,
                "end_time": 144.96136363636364,
                "pitch": 47,
                "velocity": 101,
                "duration": 0.11818181818182438,
                "tempo": 120.0
            },
            {
                "start_time": 144.97954545454544,
                "end_time": 145.09545454545454,
                "pitch": 49,
                "velocity": 101,
                "duration": 0.11590909090909918,
                "tempo": 120.0
            },
            {
                "start_time": 145.11363636363635,
                "end_time": 145.22954545454544,
                "pitch": 42,
                "velocity": 101,
                "duration": 0.11590909090909918,
                "tempo": 120.0
            },
            {
                "start_time": 145.24545454545455,
                "end_time": 145.36363636363635,
                "pitch": 42,
                "velocity": 101,
                "duration": 0.11818181818179596,
                "tempo": 120.0
            },
            {
                "start_time": 145.37954545454545,
                "end_time": 145.49545454545455,
                "pitch": 44,
                "velocity": 101,
                "duration": 0.11590909090909918,
                "tempo": 120.0
            },
            {
                "start_time": 145.51363636363635,
                "end_time": 145.63181818181818,
                "pitch": 40,
                "velocity": 101,
                "duration": 0.11818181818182438,
                "tempo": 120.0
            },
            {
                "start_time": 145.65,
                "end_time": 145.7681818181818,
                "pitch": 42,
                "velocity": 101,
                "duration": 0.11818181818179596,
                "tempo": 120.0
            },
            {
                "start_time": 145.78636363636363,
                "end_time": 145.90454545454546,
                "pitch": 35,
                "velocity": 101,
                "duration": 0.11818181818182438,
                "tempo": 120.0
            },
            {
                "start_time": 145.92045454545453,
                "end_time": 146.04090909090908,
                "pitch": 37,
                "velocity": 101,
                "duration": 0.12045454545454959,
                "tempo": 120.0
            },
            {
                "start_time": 146.4590909090909,
                "end_time": 146.575,
                "pitch": 40,
                "velocity": 101,
                "duration": 0.11590909090909918,
                "tempo": 120.0
            },
            {
                "start_time": 146.5909090909091,
                "end_time": 146.7090909090909,
                "pitch": 25,
                "velocity": 101,
                "duration": 0.11818181818179596,
                "tempo": 120.0
            },
            {
                "start_time": 146.72727272727272,
                "end_time": 146.84545454545454,
                "pitch": 25,
                "velocity": 101,
                "duration": 0.11818181818182438,
                "tempo": 120.0
            },
            {
                "start_time": 146.86363636363635,
                "end_time": 146.98181818181817,
                "pitch": 35,
                "velocity": 101,
                "duration": 0.11818181818182438,
                "tempo": 120.0
            },
            {
                "start_time": 147.0,
                "end_time": 147.11818181818182,
                "pitch": 37,
                "velocity": 101,
                "duration": 0.11818181818182438,
                "tempo": 120.0
            },
            {
                "start_time": 147.13636363636363,
                "end_time": 147.25227272727273,
                "pitch": 30,
                "velocity": 101,
                "duration": 0.11590909090909918,
                "tempo": 120.0
            },
            {
                "start_time": 147.27045454545453,
                "end_time": 147.38636363636363,
                "pitch": 30,
                "velocity": 101,
                "duration": 0.11590909090909918,
                "tempo": 120.0
            },
            {
                "start_time": 147.40227272727273,
                "end_time": 147.52045454545453,
                "pitch": 32,
                "velocity": 101,
                "duration": 0.11818181818179596,
                "tempo": 120.0
            },
            {
                "start_time": 147.53636363636363,
                "end_time": 147.65227272727273,
                "pitch": 35,
                "velocity": 101,
                "duration": 0.11590909090909918,
                "tempo": 120.0
            },
            {
                "start_time": 147.67045454545453,
                "end_time": 147.78636363636363,
                "pitch": 35,
                "velocity": 101,
                "duration": 0.11590909090909918,
                "tempo": 120.0
            },
            {
                "start_time": 147.80454545454543,
                "end_time": 147.92045454545453,
                "pitch": 37,
                "velocity": 101,
                "duration": 0.11590909090909918,
                "tempo": 120.0
            },
            {
                "start_time": 147.93636363636364,
                "end_time": 148.05454545454543,
                "pitch": 40,
                "velocity": 101,
                "duration": 0.11818181818179596,
                "tempo": 120.0
            },
            {
                "start_time": 148.07045454545454,
                "end_time": 148.18636363636364,
                "pitch": 42,
                "velocity": 101,
                "duration": 0.11590909090909918,
                "tempo": 120.0
            },
            {
                "start_time": 148.20454545454544,
                "end_time": 148.32272727272726,
                "pitch": 34,
                "velocity": 101,
                "duration": 0.11818181818182438,
                "tempo": 120.0
            },
            {
                "start_time": 148.3409090909091,
                "end_time": 148.4590909090909,
                "pitch": 35,
                "velocity": 101,
                "duration": 0.11818181818179596,
                "tempo": 120.0
            },
            {
                "start_time": 148.47727272727272,
                "end_time": 148.59545454545454,
                "pitch": 35,
                "velocity": 101,
                "duration": 0.11818181818182438,
                "tempo": 120.0
            },
            {
                "start_time": 148.61136363636362,
                "end_time": 148.73181818181817,
                "pitch": 47,
                "velocity": 101,
                "duration": 0.12045454545454959,
                "tempo": 120.0
            },
            {
                "start_time": 148.74772727272727,
                "end_time": 148.86590909090907,
                "pitch": 35,
                "velocity": 101,
                "duration": 0.11818181818179596,
                "tempo": 120.0
            },
            {
                "start_time": 148.88181818181818,
                "end_time": 148.99772727272727,
                "pitch": 35,
                "velocity": 101,
                "duration": 0.11590909090909918,
                "tempo": 120.0
            },
            {
                "start_time": 149.01590909090908,
                "end_time": 149.13181818181818,
                "pitch": 45,
                "velocity": 101,
                "duration": 0.11590909090909918,
                "tempo": 120.0
            },
            {
                "start_time": 149.15,
                "end_time": 149.26590909090908,
                "pitch": 47,
                "velocity": 101,
                "duration": 0.11590909090907076,
                "tempo": 120.0
            },
            {
                "start_time": 149.28181818181818,
                "end_time": 149.4,
                "pitch": 40,
                "velocity": 101,
                "duration": 0.11818181818182438,
                "tempo": 120.0
            },
            {
                "start_time": 149.41590909090908,
                "end_time": 149.53181818181818,
                "pitch": 40,
                "velocity": 101,
                "duration": 0.11590909090909918,
                "tempo": 120.0
            },
            {
                "start_time": 149.54999999999998,
                "end_time": 149.66590909090908,
                "pitch": 42,
                "velocity": 101,
                "duration": 0.11590909090909918,
                "tempo": 120.0
            },
            {
                "start_time": 149.6840909090909,
                "end_time": 149.79999999999998,
                "pitch": 35,
                "velocity": 101,
                "duration": 0.11590909090907076,
                "tempo": 120.0
            },
            {
                "start_time": 149.8181818181818,
                "end_time": 149.93636363636364,
                "pitch": 35,
                "velocity": 101,
                "duration": 0.11818181818182438,
                "tempo": 120.0
            },
            {
                "start_time": 149.9522727272727,
                "end_time": 150.07272727272726,
                "pitch": 37,
                "velocity": 101,
                "duration": 0.12045454545454959,
                "tempo": 120.0
            },
            {
                "start_time": 150.08863636363637,
                "end_time": 150.20681818181816,
                "pitch": 33,
                "velocity": 101,
                "duration": 0.11818181818179596,
                "tempo": 120.0
            },
            {
                "start_time": 150.225,
                "end_time": 150.34318181818182,
                "pitch": 35,
                "velocity": 101,
                "duration": 0.11818181818182438,
                "tempo": 120.0
            },
            {
                "start_time": 150.36136363636362,
                "end_time": 150.61136363636362,
                "pitch": 28,
                "velocity": 101,
                "duration": 0.25,
                "tempo": 120.0
            },
            {
                "start_time": 150.62954545454545,
                "end_time": 150.74545454545455,
                "pitch": 28,
                "velocity": 101,
                "duration": 0.11590909090909918,
                "tempo": 120.0
            },
            {
                "start_time": 150.76136363636363,
                "end_time": 150.87954545454545,
                "pitch": 40,
                "velocity": 101,
                "duration": 0.11818181818182438,
                "tempo": 120.0
            },
            {
                "start_time": 150.89545454545453,
                "end_time": 151.01136363636363,
                "pitch": 28,
                "velocity": 101,
                "duration": 0.11590909090909918,
                "tempo": 120.0
            },
            {
                "start_time": 151.02954545454546,
                "end_time": 151.14545454545453,
                "pitch": 28,
                "velocity": 101,
                "duration": 0.11590909090907076,
                "tempo": 120.0
            },
            {
                "start_time": 151.16363636363636,
                "end_time": 151.41363636363636,
                "pitch": 38,
                "velocity": 101,
                "duration": 0.25,
                "tempo": 120.0
            },
            {
                "start_time": 151.42954545454543,
                "end_time": 151.54772727272726,
                "pitch": 28,
                "velocity": 101,
                "duration": 0.11818181818182438,
                "tempo": 120.0
            },
            {
                "start_time": 151.5659090909091,
                "end_time": 151.6840909090909,
                "pitch": 28,
                "velocity": 101,
                "duration": 0.11818181818182438,
                "tempo": 120.0
            },
            {
                "start_time": 151.7022727272727,
                "end_time": 151.82045454545454,
                "pitch": 30,
                "velocity": 101,
                "duration": 0.11818181818182438,
                "tempo": 120.0
            },
            {
                "start_time": 151.83863636363637,
                "end_time": 151.95681818181816,
                "pitch": 33,
                "velocity": 101,
                "duration": 0.11818181818179596,
                "tempo": 120.0
            },
            {
                "start_time": 151.97272727272727,
                "end_time": 152.0909090909091,
                "pitch": 33,
                "velocity": 101,
                "duration": 0.11818181818182438,
                "tempo": 120.0
            },
            {
                "start_time": 152.10681818181817,
                "end_time": 152.225,
                "pitch": 35,
                "velocity": 101,
                "duration": 0.11818181818182438,
                "tempo": 120.0
            },
            {
                "start_time": 152.24090909090907,
                "end_time": 152.35681818181817,
                "pitch": 38,
                "velocity": 101,
                "duration": 0.11590909090909918,
                "tempo": 120.0
            },
            {
                "start_time": 152.375,
                "end_time": 152.49090909090907,
                "pitch": 40,
                "velocity": 101,
                "duration": 0.11590909090907076,
                "tempo": 120.0
            },
            {
                "start_time": 152.64090909090908,
                "end_time": 153.025,
                "pitch": 26,
                "velocity": 101,
                "duration": 0.38409090909092924,
                "tempo": 120.0
            },
            {
                "start_time": 153.0431818181818,
                "end_time": 153.5590909090909,
                "pitch": 28,
                "velocity": 101,
                "duration": 0.5159090909091049,
                "tempo": 120.0
            },
            {
                "start_time": 153.71363636363637,
                "end_time": 154.10454545454544,
                "pitch": 28,
                "velocity": 101,
                "duration": 0.39090909090907644,
                "tempo": 120.0
            },
            {
                "start_time": 154.12045454545455,
                "end_time": 154.63863636363635,
                "pitch": 30,
                "velocity": 101,
                "duration": 0.5181818181818016,
                "tempo": 120.0
            },
            {
                "start_time": 154.78863636363636,
                "end_time": 155.17272727272726,
                "pitch": 30,
                "velocity": 101,
                "duration": 0.3840909090909008,
                "tempo": 120.0
            },
            {
                "start_time": 155.1909090909091,
                "end_time": 155.7159090909091,
                "pitch": 32,
                "velocity": 101,
                "duration": 0.5250000000000057,
                "tempo": 120.0
            },
            {
                "start_time": 156.8022727272727,
                "end_time": 157.32954545454544,
                "pitch": 25,
                "velocity": 101,
                "duration": 0.5272727272727309,
                "tempo": 120.0
            },
            {
                "start_time": 157.74772727272727,
                "end_time": 157.86363636363635,
                "pitch": 47,
                "velocity": 101,
                "duration": 0.11590909090907076,
                "tempo": 120.0
            },
            {
                "start_time": 157.88181818181818,
                "end_time": 157.99772727272727,
                "pitch": 49,
                "velocity": 101,
                "duration": 0.11590909090909918,
                "tempo": 120.0
            },
            {
                "start_time": 158.01363636363635,
                "end_time": 158.13181818181818,
                "pitch": 42,
                "velocity": 101,
                "duration": 0.11818181818182438,
                "tempo": 120.0
            },
            {
                "start_time": 158.14772727272725,
                "end_time": 158.26363636363635,
                "pitch": 42,
                "velocity": 101,
                "duration": 0.11590909090909918,
                "tempo": 120.0
            },
            {
                "start_time": 158.28181818181818,
                "end_time": 158.39772727272725,
                "pitch": 44,
                "velocity": 101,
                "duration": 0.11590909090907076,
                "tempo": 120.0
            },
            {
                "start_time": 158.41590909090908,
                "end_time": 158.5340909090909,
                "pitch": 40,
                "velocity": 101,
                "duration": 0.11818181818182438,
                "tempo": 120.0
            },
            {
                "start_time": 158.5522727272727,
                "end_time": 158.67045454545453,
                "pitch": 42,
                "velocity": 101,
                "duration": 0.11818181818182438,
                "tempo": 120.0
            },
            {
                "start_time": 158.68636363636364,
                "end_time": 158.8068181818182,
                "pitch": 35,
                "velocity": 101,
                "duration": 0.12045454545454959,
                "tempo": 120.0
            },
            {
                "start_time": 158.82272727272726,
                "end_time": 158.9409090909091,
                "pitch": 37,
                "velocity": 101,
                "duration": 0.11818181818182438,
                "tempo": 120.0
            },
            {
                "start_time": 159.3590909090909,
                "end_time": 159.47727272727272,
                "pitch": 40,
                "velocity": 101,
                "duration": 0.11818181818182438,
                "tempo": 120.0
            },
            {
                "start_time": 159.49318181818182,
                "end_time": 159.6090909090909,
                "pitch": 25,
                "velocity": 101,
                "duration": 0.11590909090907076,
                "tempo": 120.0
            },
            {
                "start_time": 159.62727272727273,
                "end_time": 159.74318181818182,
                "pitch": 25,
                "velocity": 101,
                "duration": 0.11590909090909918,
                "tempo": 120.0
            },
            {
                "start_time": 159.76136363636363,
                "end_time": 159.87727272727273,
                "pitch": 35,
                "velocity": 101,
                "duration": 0.11590909090909918,
                "tempo": 120.0
            },
            {
                "start_time": 159.89545454545453,
                "end_time": 160.01136363636363,
                "pitch": 37,
                "velocity": 101,
                "duration": 0.11590909090909918,
                "tempo": 120.0
            },
            {
                "start_time": 160.02727272727273,
                "end_time": 160.14545454545453,
                "pitch": 30,
                "velocity": 101,
                "duration": 0.11818181818179596,
                "tempo": 120.0
            },
            {
                "start_time": 160.16363636363636,
                "end_time": 160.28181818181818,
                "pitch": 30,
                "velocity": 101,
                "duration": 0.11818181818182438,
                "tempo": 120.0
            },
            {
                "start_time": 160.29999999999998,
                "end_time": 160.4181818181818,
                "pitch": 32,
                "velocity": 101,
                "duration": 0.11818181818182438,
                "tempo": 120.0
            },
            {
                "start_time": 160.43636363636364,
                "end_time": 160.55454545454543,
                "pitch": 35,
                "velocity": 101,
                "duration": 0.11818181818179596,
                "tempo": 120.0
            },
            {
                "start_time": 160.57272727272726,
                "end_time": 160.68863636363636,
                "pitch": 35,
                "velocity": 101,
                "duration": 0.11590909090909918,
                "tempo": 120.0
            },
            {
                "start_time": 160.70454545454544,
                "end_time": 160.82272727272726,
                "pitch": 37,
                "velocity": 101,
                "duration": 0.11818181818182438,
                "tempo": 120.0
            },
            {
                "start_time": 160.83863636363637,
                "end_time": 160.95454545454544,
                "pitch": 40,
                "velocity": 101,
                "duration": 0.11590909090907076,
                "tempo": 120.0
            },
            {
                "start_time": 160.97272727272727,
                "end_time": 161.08863636363637,
                "pitch": 42,
                "velocity": 101,
                "duration": 0.11590909090909918,
                "tempo": 120.0
            },
            {
                "start_time": 161.10681818181817,
                "end_time": 161.225,
                "pitch": 34,
                "velocity": 101,
                "duration": 0.11818181818182438,
                "tempo": 120.0
            },
            {
                "start_time": 161.24090909090907,
                "end_time": 161.36136363636362,
                "pitch": 35,
                "velocity": 101,
                "duration": 0.12045454545454959,
                "tempo": 120.0
            },
            {
                "start_time": 161.37727272727273,
                "end_time": 161.49772727272727,
                "pitch": 35,
                "velocity": 101,
                "duration": 0.12045454545454959,
                "tempo": 120.0
            },
            {
                "start_time": 161.51363636363635,
                "end_time": 161.63181818181818,
                "pitch": 47,
                "velocity": 101,
                "duration": 0.11818181818182438,
                "tempo": 120.0
            },
            {
                "start_time": 161.65,
                "end_time": 161.76590909090908,
                "pitch": 35,
                "velocity": 101,
                "duration": 0.11590909090907076,
                "tempo": 120.0
            },
            {
                "start_time": 161.7840909090909,
                "end_time": 161.9,
                "pitch": 35,
                "velocity": 101,
                "duration": 0.11590909090909918,
                "tempo": 120.0
            },
            {
                "start_time": 161.9181818181818,
                "end_time": 162.0340909090909,
                "pitch": 45,
                "velocity": 101,
                "duration": 0.11590909090909918,
                "tempo": 120.0
            },
            {
                "start_time": 162.04999999999998,
                "end_time": 162.1681818181818,
                "pitch": 47,
                "velocity": 101,
                "duration": 0.11818181818182438,
                "tempo": 120.0
            },
            {
                "start_time": 162.1840909090909,
                "end_time": 162.29999999999998,
                "pitch": 40,
                "velocity": 101,
                "duration": 0.11590909090907076,
                "tempo": 120.0
            },
            {
                "start_time": 162.3181818181818,
                "end_time": 162.4340909090909,
                "pitch": 40,
                "velocity": 101,
                "duration": 0.11590909090909918,
                "tempo": 120.0
            },
            {
                "start_time": 162.4522727272727,
                "end_time": 162.5681818181818,
                "pitch": 42,
                "velocity": 101,
                "duration": 0.11590909090909918,
                "tempo": 120.0
            },
            {
                "start_time": 162.58636363636361,
                "end_time": 162.7022727272727,
                "pitch": 35,
                "velocity": 101,
                "duration": 0.11590909090909918,
                "tempo": 120.0
            },
            {
                "start_time": 162.71818181818182,
                "end_time": 162.83636363636361,
                "pitch": 35,
                "velocity": 101,
                "duration": 0.11818181818179596,
                "tempo": 120.0
            },
            {
                "start_time": 162.85454545454544,
                "end_time": 162.97272727272727,
                "pitch": 37,
                "velocity": 101,
                "duration": 0.11818181818182438,
                "tempo": 120.0
            },
            {
                "start_time": 162.99090909090907,
                "end_time": 163.1090909090909,
                "pitch": 33,
                "velocity": 101,
                "duration": 0.11818181818182438,
                "tempo": 120.0
            },
            {
                "start_time": 163.12727272727273,
                "end_time": 163.24545454545455,
                "pitch": 35,
                "velocity": 101,
                "duration": 0.11818181818182438,
                "tempo": 120.0
            },
            {
                "start_time": 163.26363636363635,
                "end_time": 163.51363636363635,
                "pitch": 28,
                "velocity": 101,
                "duration": 0.25,
                "tempo": 120.0
            },
            {
                "start_time": 163.52954545454546,
                "end_time": 163.64772727272725,
                "pitch": 28,
                "velocity": 101,
                "duration": 0.11818181818179596,
                "tempo": 120.0
            },
            {
                "start_time": 163.66363636363636,
                "end_time": 163.77954545454546,
                "pitch": 40,
                "velocity": 101,
                "duration": 0.11590909090909918,
                "tempo": 120.0
            },
            {
                "start_time": 163.79772727272726,
                "end_time": 163.91363636363636,
                "pitch": 28,
                "velocity": 101,
                "duration": 0.11590909090909918,
                "tempo": 120.0
            },
            {
                "start_time": 163.9318181818182,
                "end_time": 164.04772727272726,
                "pitch": 28,
                "velocity": 101,
                "duration": 0.11590909090907076,
                "tempo": 120.0
            },
            {
                "start_time": 164.06363636363636,
                "end_time": 164.31363636363636,
                "pitch": 38,
                "velocity": 101,
                "duration": 0.25,
                "tempo": 120.0
            },
            {
                "start_time": 164.33181818181816,
                "end_time": 164.45,
                "pitch": 28,
                "velocity": 101,
                "duration": 0.11818181818182438,
                "tempo": 120.0
            },
            {
                "start_time": 164.46818181818182,
                "end_time": 164.58636363636361,
                "pitch": 28,
                "velocity": 101,
                "duration": 0.11818181818179596,
                "tempo": 120.0
            },
            {
                "start_time": 164.60454545454544,
                "end_time": 164.72272727272727,
                "pitch": 30,
                "velocity": 101,
                "duration": 0.11818181818182438,
                "tempo": 120.0
            },
            {
                "start_time": 164.73863636363635,
                "end_time": 164.8590909090909,
                "pitch": 33,
                "velocity": 101,
                "duration": 0.12045454545454959,
                "tempo": 120.0
            },
            {
                "start_time": 164.875,
                "end_time": 164.9931818181818,
                "pitch": 33,
                "velocity": 101,
                "duration": 0.11818181818179596,
                "tempo": 120.0
            },
            {
                "start_time": 165.0090909090909,
                "end_time": 165.125,
                "pitch": 35,
                "velocity": 101,
                "duration": 0.11590909090909918,
                "tempo": 120.0
            },
            {
                "start_time": 165.1431818181818,
                "end_time": 165.2590909090909,
                "pitch": 38,
                "velocity": 101,
                "duration": 0.11590909090909918,
                "tempo": 120.0
            },
            {
                "start_time": 165.27727272727273,
                "end_time": 165.3931818181818,
                "pitch": 40,
                "velocity": 101,
                "duration": 0.11590909090907076,
                "tempo": 120.0
            },
            {
                "start_time": 165.5431818181818,
                "end_time": 165.9272727272727,
                "pitch": 26,
                "velocity": 101,
                "duration": 0.3840909090909008,
                "tempo": 120.0
            },
            {
                "start_time": 165.94545454545454,
                "end_time": 166.46136363636361,
                "pitch": 28,
                "velocity": 101,
                "duration": 0.5159090909090764,
                "tempo": 120.0
            },
            {
                "start_time": 166.61590909090907,
                "end_time": 167.00454545454545,
                "pitch": 28,
                "velocity": 101,
                "duration": 0.38863636363637966,
                "tempo": 120.0
            },
            {
                "start_time": 167.02272727272725,
                "end_time": 167.54090909090908,
                "pitch": 30,
                "velocity": 101,
                "duration": 0.5181818181818301,
                "tempo": 120.0
            },
            {
                "start_time": 167.6931818181818,
                "end_time": 168.0840909090909,
                "pitch": 30,
                "velocity": 101,
                "duration": 0.39090909090907644,
                "tempo": 120.0
            },
            {
                "start_time": 168.10227272727272,
                "end_time": 168.6181818181818,
                "pitch": 32,
                "velocity": 101,
                "duration": 0.5159090909090764,
                "tempo": 120.0
            },
            {
                "start_time": 169.70454545454544,
                "end_time": 169.70681818181816,
                "pitch": 37,
                "velocity": 80,
                "duration": 0.0022727272727252057,
                "tempo": 120.0
            }
        ]
    }
}