{
    "track_id": "Galaxy Force (FM) - 05 - Take Back",
    "mood": "angry",
    "instruments": {
        "Acoustic Bass": [
            {
                "start_time": 2.7704545454545455,
                "end_time": 2.959090909090909,
                "pitch": 43,
                "velocity": 80,
                "duration": 0.1886363636363635,
                "tempo": 120.0
            },
            {
                "start_time": 2.9977272727272726,
                "end_time": 3.186363636363636,
                "pitch": 45,
                "velocity": 80,
                "duration": 0.1886363636363635,
                "tempo": 120.0
            },
            {
                "start_time": 3.2249999999999996,
                "end_time": 3.4136363636363636,
                "pitch": 40,
                "velocity": 80,
                "duration": 0.18863636363636394,
                "tempo": 120.0
            },
            {
                "start_time": 3.452272727272727,
                "end_time": 3.6409090909090907,
                "pitch": 43,
                "velocity": 80,
                "duration": 0.1886363636363635,
                "tempo": 120.0
            },
            {
                "start_time": 3.9068181818181817,
                "end_time": 4.095454545454546,
                "pitch": 36,
                "velocity": 80,
                "duration": 0.18863636363636394,
                "tempo": 120.0
            },
            {
                "start_time": 4.361363636363636,
                "end_time": 5.459090909090909,
                "pitch": 33,
                "velocity": 80,
                "duration": 1.0977272727272727,
                "tempo": 120.0
            },
            {
                "start_time": 5.954545454545454,
                "end_time": 5.961363636363636,
                "pitch": 33,
                "velocity": 80,
                "duration": 0.006818181818181834,
                "tempo": 120.0
            },
            {
                "start_time": 5.961363636363636,
                "end_time": 6.140909090909091,
                "pitch": 33,
                "velocity": 80,
                "duration": 0.17954545454545467,
                "tempo": 120.0
            },
            {
                "start_time": 6.179545454545455,
                "end_time": 6.345454545454545,
                "pitch": 33,
                "velocity": 80,
                "duration": 0.16590909090909012,
                "tempo": 120.0
            },
            {
                "start_time": 7.779545454545454,
                "end_time": 7.947727272727272,
                "pitch": 33,
                "velocity": 80,
                "duration": 0.168181818181818,
                "tempo": 120.0
            },
            {
                "start_time": 8.184090909090909,
                "end_time": 8.354545454545454,
                "pitch": 33,
                "velocity": 80,
                "duration": 0.17045454545454497,
                "tempo": 120.0
            },
            {
                "start_time": 8.388636363636364,
                "end_time": 8.556818181818182,
                "pitch": 45,
                "velocity": 80,
                "duration": 0.168181818181818,
                "tempo": 120.0
            },
            {
                "start_time": 8.59090909090909,
                "end_time": 8.759090909090908,
                "pitch": 33,
                "velocity": 80,
                "duration": 0.168181818181818,
                "tempo": 120.0
            },
            {
                "start_time": 9.402272727272727,
                "end_time": 9.568181818181818,
                "pitch": 33,
                "velocity": 80,
                "duration": 0.165909090909091,
                "tempo": 120.0
            },
            {
                "start_time": 9.802272727272726,
                "end_time": 9.968181818181817,
                "pitch": 33,
                "velocity": 80,
                "duration": 0.165909090909091,
                "tempo": 120.0
            },
            {
                "start_time": 10.002272727272727,
                "end_time": 10.168181818181818,
                "pitch": 33,
                "velocity": 80,
                "duration": 0.165909090909091,
                "tempo": 120.0
            },
            {
                "start_time": 10.402272727272727,
                "end_time": 10.768181818181818,
                "pitch": 33,
                "velocity": 80,
                "duration": 0.3659090909090903,
                "tempo": 120.0
            },
            {
                "start_time": 10.802272727272726,
                "end_time": 10.968181818181817,
                "pitch": 35,
                "velocity": 80,
                "duration": 0.165909090909091,
                "tempo": 120.0
            },
            {
                "start_time": 11.002272727272727,
                "end_time": 11.968181818181817,
                "pitch": 36,
                "velocity": 80,
                "duration": 0.9659090909090899,
                "tempo": 120.0
            },
            {
                "start_time": 12.402272727272727,
                "end_time": 12.568181818181818,
                "pitch": 36,
                "velocity": 80,
                "duration": 0.165909090909091,
                "tempo": 120.0
            },
            {
                "start_time": 12.602272727272727,
                "end_time": 12.770454545454545,
                "pitch": 36,
                "velocity": 80,
                "duration": 0.168181818181818,
                "tempo": 120.0
            },
            {
                "start_time": 14.222727272727273,
                "end_time": 15.788636363636362,
                "pitch": 38,
                "velocity": 80,
                "duration": 1.5659090909090896,
                "tempo": 120.0
            },
            {
                "start_time": 15.822727272727272,
                "end_time": 15.988636363636363,
                "pitch": 38,
                "velocity": 80,
                "duration": 0.165909090909091,
                "tempo": 120.0
            },
            {
                "start_time": 16.222727272727273,
                "end_time": 16.388636363636362,
                "pitch": 38,
                "velocity": 80,
                "duration": 0.16590909090908923,
                "tempo": 120.0
            },
            {
                "start_time": 16.422727272727272,
                "end_time": 16.58863636363636,
                "pitch": 43,
                "velocity": 80,
                "duration": 0.16590909090908923,
                "tempo": 120.0
            },
            {
                "start_time": 16.62272727272727,
                "end_time": 16.788636363636364,
                "pitch": 38,
                "velocity": 80,
                "duration": 0.16590909090909278,
                "tempo": 120.0
            },
            {
                "start_time": 17.625,
                "end_time": 17.793181818181818,
                "pitch": 43,
                "velocity": 80,
                "duration": 0.168181818181818,
                "tempo": 120.0
            },
            {
                "start_time": 17.827272727272728,
                "end_time": 17.995454545454546,
                "pitch": 45,
                "velocity": 80,
                "duration": 0.168181818181818,
                "tempo": 120.0
            },
            {
                "start_time": 18.03181818181818,
                "end_time": 18.2,
                "pitch": 40,
                "velocity": 80,
                "duration": 0.168181818181818,
                "tempo": 120.0
            },
            {
                "start_time": 18.23409090909091,
                "end_time": 18.402272727272727,
                "pitch": 43,
                "velocity": 80,
                "duration": 0.168181818181818,
                "tempo": 120.0
            },
            {
                "start_time": 18.638636363636362,
                "end_time": 18.80681818181818,
                "pitch": 36,
                "velocity": 80,
                "duration": 0.168181818181818,
                "tempo": 120.0
            },
            {
                "start_time": 19.045454545454543,
                "end_time": 20.411363636363635,
                "pitch": 33,
                "velocity": 80,
                "duration": 1.365909090909092,
                "tempo": 120.0
            },
            {
                "start_time": 20.445454545454545,
                "end_time": 20.811363636363634,
                "pitch": 33,
                "velocity": 80,
                "duration": 0.3659090909090885,
                "tempo": 120.0
            },
            {
                "start_time": 22.245454545454546,
                "end_time": 22.413636363636364,
                "pitch": 33,
                "velocity": 80,
                "duration": 0.168181818181818,
                "tempo": 120.0
            },
            {
                "start_time": 22.65,
                "end_time": 22.818181818181817,
                "pitch": 33,
                "velocity": 80,
                "duration": 0.168181818181818,
                "tempo": 120.0
            },
            {
                "start_time": 22.852272727272727,
                "end_time": 23.020454545454545,
                "pitch": 36,
                "velocity": 80,
                "duration": 0.168181818181818,
                "tempo": 120.0
            },
            {
                "start_time": 23.054545454545455,
                "end_time": 23.222727272727273,
                "pitch": 33,
                "velocity": 80,
                "duration": 0.168181818181818,
                "tempo": 120.0
            },
            {
                "start_time": 23.86590909090909,
                "end_time": 24.034090909090907,
                "pitch": 33,
                "velocity": 80,
                "duration": 0.168181818181818,
                "tempo": 120.0
            },
            {
                "start_time": 24.270454545454545,
                "end_time": 24.44090909090909,
                "pitch": 33,
                "velocity": 80,
                "duration": 0.17045454545454675,
                "tempo": 120.0
            },
            {
                "start_time": 24.474999999999998,
                "end_time": 24.643181818181816,
                "pitch": 33,
                "velocity": 80,
                "duration": 0.168181818181818,
                "tempo": 120.0
            },
            {
                "start_time": 25.286363636363635,
                "end_time": 25.454545454545453,
                "pitch": 35,
                "velocity": 80,
                "duration": 0.168181818181818,
                "tempo": 120.0
            },
            {
                "start_time": 25.488636363636363,
                "end_time": 27.075,
                "pitch": 36,
                "velocity": 80,
                "duration": 1.586363636363636,
                "tempo": 120.0
            },
            {
                "start_time": 27.10909090909091,
                "end_time": 27.275,
                "pitch": 36,
                "velocity": 80,
                "duration": 0.16590909090908923,
                "tempo": 120.0
            },
            {
                "start_time": 28.709090909090907,
                "end_time": 30.297727272727272,
                "pitch": 38,
                "velocity": 80,
                "duration": 1.5886363636363647,
                "tempo": 120.0
            },
            {
                "start_time": 30.331818181818182,
                "end_time": 30.49772727272727,
                "pitch": 38,
                "velocity": 80,
                "duration": 0.16590909090908923,
                "tempo": 120.0
            },
            {
                "start_time": 30.73181818181818,
                "end_time": 30.89772727272727,
                "pitch": 38,
                "velocity": 80,
                "duration": 0.16590909090908923,
                "tempo": 120.0
            },
            {
                "start_time": 30.93181818181818,
                "end_time": 31.69772727272727,
                "pitch": 43,
                "velocity": 80,
                "duration": 0.7659090909090907,
                "tempo": 120.0
            },
            {
                "start_time": 32.13409090909091,
                "end_time": 32.30227272727272,
                "pitch": 43,
                "velocity": 80,
                "duration": 0.16818181818181444,
                "tempo": 120.0
            },
            {
                "start_time": 32.336363636363636,
                "end_time": 32.50454545454545,
                "pitch": 45,
                "velocity": 80,
                "duration": 0.16818181818181444,
                "tempo": 120.0
            },
            {
                "start_time": 32.538636363636364,
                "end_time": 32.70681818181818,
                "pitch": 40,
                "velocity": 80,
                "duration": 0.16818181818181444,
                "tempo": 120.0
            },
            {
                "start_time": 32.74090909090909,
                "end_time": 32.90909090909091,
                "pitch": 43,
                "velocity": 80,
                "duration": 0.16818181818181444,
                "tempo": 120.0
            },
            {
                "start_time": 33.14772727272727,
                "end_time": 33.31590909090909,
                "pitch": 36,
                "velocity": 80,
                "duration": 0.16818181818181444,
                "tempo": 120.0
            },
            {
                "start_time": 33.55227272727272,
                "end_time": 35.14090909090909,
                "pitch": 33,
                "velocity": 80,
                "duration": 1.5886363636363683,
                "tempo": 120.0
            },
            {
                "start_time": 35.175,
                "end_time": 35.34318181818182,
                "pitch": 33,
                "velocity": 80,
                "duration": 0.16818181818182154,
                "tempo": 120.0
            },
            {
                "start_time": 35.57954545454545,
                "end_time": 35.74772727272727,
                "pitch": 33,
                "velocity": 80,
                "duration": 0.16818181818181444,
                "tempo": 120.0
            },
            {
                "start_time": 35.78181818181818,
                "end_time": 35.949999999999996,
                "pitch": 33,
                "velocity": 80,
                "duration": 0.16818181818181444,
                "tempo": 120.0
            },
            {
                "start_time": 36.79545454545455,
                "end_time": 36.961363636363636,
                "pitch": 33,
                "velocity": 80,
                "duration": 0.16590909090908923,
                "tempo": 120.0
            },
            {
                "start_time": 38.39545454545454,
                "end_time": 38.56363636363636,
                "pitch": 33,
                "velocity": 80,
                "duration": 0.16818181818182154,
                "tempo": 120.0
            },
            {
                "start_time": 39.40909090909091,
                "end_time": 39.779545454545456,
                "pitch": 33,
                "velocity": 80,
                "duration": 0.3704545454545496,
                "tempo": 120.0
            },
            {
                "start_time": 39.81590909090909,
                "end_time": 39.98409090909091,
                "pitch": 35,
                "velocity": 80,
                "duration": 0.16818181818182154,
                "tempo": 120.0
            },
            {
                "start_time": 40.018181818181816,
                "end_time": 41.402272727272724,
                "pitch": 36,
                "velocity": 80,
                "duration": 1.384090909090908,
                "tempo": 120.0
            },
            {
                "start_time": 41.43636363636364,
                "end_time": 41.804545454545455,
                "pitch": 36,
                "velocity": 80,
                "duration": 0.3681818181818173,
                "tempo": 120.0
            },
            {
                "start_time": 42.83863636363636,
                "end_time": 43.00454545454545,
                "pitch": 36,
                "velocity": 80,
                "duration": 0.16590909090908923,
                "tempo": 120.0
            },
            {
                "start_time": 43.23863636363636,
                "end_time": 44.82727272727273,
                "pitch": 38,
                "velocity": 80,
                "duration": 1.5886363636363683,
                "tempo": 120.0
            },
            {
                "start_time": 44.861363636363635,
                "end_time": 45.025,
                "pitch": 38,
                "velocity": 80,
                "duration": 0.16363636363636402,
                "tempo": 120.0
            },
            {
                "start_time": 45.25454545454545,
                "end_time": 46.60681818181818,
                "pitch": 40,
                "velocity": 80,
                "duration": 1.3522727272727266,
                "tempo": 120.0
            },
            {
                "start_time": 46.643181818181816,
                "end_time": 46.809090909090905,
                "pitch": 43,
                "velocity": 80,
                "duration": 0.16590909090908923,
                "tempo": 120.0
            },
            {
                "start_time": 46.845454545454544,
                "end_time": 47.01363636363636,
                "pitch": 45,
                "velocity": 80,
                "duration": 0.16818181818181444,
                "tempo": 120.0
            },
            {
                "start_time": 47.04772727272727,
                "end_time": 47.215909090909086,
                "pitch": 40,
                "velocity": 80,
                "duration": 0.16818181818181444,
                "tempo": 120.0
            },
            {
                "start_time": 47.25,
                "end_time": 47.418181818181814,
                "pitch": 43,
                "velocity": 80,
                "duration": 0.16818181818181444,
                "tempo": 120.0
            },
            {
                "start_time": 47.65454545454545,
                "end_time": 47.82272727272727,
                "pitch": 36,
                "velocity": 80,
                "duration": 0.16818181818182154,
                "tempo": 120.0
            },
            {
                "start_time": 48.06136363636364,
                "end_time": 49.627272727272725,
                "pitch": 33,
                "velocity": 80,
                "duration": 1.5659090909090878,
                "tempo": 120.0
            },
            {
                "start_time": 49.66136363636363,
                "end_time": 49.82727272727273,
                "pitch": 33,
                "velocity": 80,
                "duration": 0.16590909090909634,
                "tempo": 120.0
            },
            {
                "start_time": 51.26136363636363,
                "end_time": 51.429545454545455,
                "pitch": 33,
                "velocity": 80,
                "duration": 0.16818181818182154,
                "tempo": 120.0
            },
            {
                "start_time": 51.66590909090909,
                "end_time": 51.834090909090904,
                "pitch": 33,
                "velocity": 80,
                "duration": 0.16818181818181444,
                "tempo": 120.0
            },
            {
                "start_time": 51.86818181818182,
                "end_time": 52.03636363636363,
                "pitch": 33,
                "velocity": 80,
                "duration": 0.16818181818181444,
                "tempo": 120.0
            },
            {
                "start_time": 52.88181818181818,
                "end_time": 53.84772727272727,
                "pitch": 33,
                "velocity": 80,
                "duration": 0.9659090909090864,
                "tempo": 120.0
            },
            {
                "start_time": 53.88181818181818,
                "end_time": 54.24772727272727,
                "pitch": 33,
                "velocity": 80,
                "duration": 0.36590909090908497,
                "tempo": 120.0
            },
            {
                "start_time": 54.28181818181818,
                "end_time": 54.44772727272727,
                "pitch": 40,
                "velocity": 80,
                "duration": 0.16590909090908923,
                "tempo": 120.0
            },
            {
                "start_time": 54.48181818181818,
                "end_time": 55.663636363636364,
                "pitch": 38,
                "velocity": 80,
                "duration": 1.181818181818187,
                "tempo": 120.0
            },
            {
                "start_time": 55.699999999999996,
                "end_time": 56.27045454545454,
                "pitch": 38,
                "velocity": 80,
                "duration": 0.5704545454545453,
                "tempo": 120.0
            },
            {
                "start_time": 56.304545454545455,
                "end_time": 57.67045454545454,
                "pitch": 40,
                "velocity": 80,
                "duration": 1.365909090909085,
                "tempo": 120.0
            },
            {
                "start_time": 57.70454545454545,
                "end_time": 59.29090909090909,
                "pitch": 43,
                "velocity": 80,
                "duration": 1.586363636363636,
                "tempo": 120.0
            },
            {
                "start_time": 59.324999999999996,
                "end_time": 59.49318181818182,
                "pitch": 47,
                "velocity": 80,
                "duration": 0.16818181818182154,
                "tempo": 120.0
            },
            {
                "start_time": 59.73181818181818,
                "end_time": 60.913636363636364,
                "pitch": 45,
                "velocity": 80,
                "duration": 1.181818181818187,
                "tempo": 120.0
            },
            {
                "start_time": 60.94772727272727,
                "end_time": 62.736363636363635,
                "pitch": 40,
                "velocity": 80,
                "duration": 1.788636363636364,
                "tempo": 120.0
            },
            {
                "start_time": 62.772727272727266,
                "end_time": 63.40681818181818,
                "pitch": 39,
                "velocity": 80,
                "duration": 0.634090909090915,
                "tempo": 120.0
            },
            {
                "start_time": 63.44318181818181,
                "end_time": 64.30227272727272,
                "pitch": 40,
                "velocity": 80,
                "duration": 0.8590909090909093,
                "tempo": 120.0
            },
            {
                "start_time": 64.33863636363635,
                "end_time": 65.74545454545454,
                "pitch": 35,
                "velocity": 80,
                "duration": 1.4068181818181813,
                "tempo": 120.0
            },
            {
                "start_time": 65.78181818181818,
                "end_time": 66.15227272727273,
                "pitch": 38,
                "velocity": 80,
                "duration": 0.3704545454545496,
                "tempo": 120.0
            },
            {
                "start_time": 66.18636363636364,
                "end_time": 66.95227272727273,
                "pitch": 36,
                "velocity": 80,
                "duration": 0.7659090909090907,
                "tempo": 120.0
            },
            {
                "start_time": 66.98636363636363,
                "end_time": 67.55227272727272,
                "pitch": 38,
                "velocity": 80,
                "duration": 0.5659090909090878,
                "tempo": 120.0
            },
            {
                "start_time": 67.58636363636363,
                "end_time": 69.37272727272727,
                "pitch": 40,
                "velocity": 80,
                "duration": 1.786363636363646,
                "tempo": 120.0
            },
            {
                "start_time": 69.40681818181818,
                "end_time": 69.97272727272727,
                "pitch": 39,
                "velocity": 80,
                "duration": 0.5659090909090878,
                "tempo": 120.0
            },
            {
                "start_time": 70.00681818181818,
                "end_time": 70.97272727272727,
                "pitch": 40,
                "velocity": 80,
                "duration": 0.9659090909090935,
                "tempo": 120.0
            },
            {
                "start_time": 71.00681818181818,
                "end_time": 71.7840909090909,
                "pitch": 35,
                "velocity": 80,
                "duration": 0.7772727272727309,
                "tempo": 120.0
            },
            {
                "start_time": 71.81818181818181,
                "end_time": 72.39090909090909,
                "pitch": 35,
                "velocity": 80,
                "duration": 0.5727272727272776,
                "tempo": 120.0
            },
            {
                "start_time": 72.42727272727272,
                "end_time": 73.99545454545454,
                "pitch": 33,
                "velocity": 80,
                "duration": 1.568181818181813,
                "tempo": 120.0
            },
            {
                "start_time": 74.02954545454546,
                "end_time": 77.2159090909091,
                "pitch": 38,
                "velocity": 80,
                "duration": 3.1863636363636374,
                "tempo": 120.0
            },
            {
                "start_time": 77.25,
                "end_time": 77.81590909090909,
                "pitch": 40,
                "velocity": 80,
                "duration": 0.5659090909090878,
                "tempo": 120.0
            },
            {
                "start_time": 77.85,
                "end_time": 80.23181818181818,
                "pitch": 43,
                "velocity": 80,
                "duration": 2.38181818181819,
                "tempo": 120.0
            },
            {
                "start_time": 80.67272727272727,
                "end_time": 82.05681818181817,
                "pitch": 41,
                "velocity": 80,
                "duration": 1.3840909090909008,
                "tempo": 120.0
            },
            {
                "start_time": 82.0909090909091,
                "end_time": 83.67727272727272,
                "pitch": 43,
                "velocity": 80,
                "duration": 1.5863636363636289,
                "tempo": 120.0
            },
            {
                "start_time": 83.71363636363635,
                "end_time": 86.06590909090909,
                "pitch": 45,
                "velocity": 80,
                "duration": 2.3522727272727337,
                "tempo": 120.0
            },
            {
                "start_time": 86.87727272727273,
                "end_time": 87.21363636363635,
                "pitch": 45,
                "velocity": 80,
                "duration": 0.33636363636362887,
                "tempo": 120.0
            },
            {
                "start_time": 87.24545454545454,
                "end_time": 87.39545454545454,
                "pitch": 55,
                "velocity": 80,
                "duration": 0.15000000000000568,
                "tempo": 120.0
            },
            {
                "start_time": 87.42727272727272,
                "end_time": 87.57954545454545,
                "pitch": 57,
                "velocity": 80,
                "duration": 0.1522727272727309,
                "tempo": 120.0
            },
            {
                "start_time": 87.60909090909091,
                "end_time": 87.76136363636363,
                "pitch": 52,
                "velocity": 80,
                "duration": 0.15227272727271668,
                "tempo": 120.0
            },
            {
                "start_time": 87.79318181818181,
                "end_time": 87.94545454545454,
                "pitch": 55,
                "velocity": 80,
                "duration": 0.1522727272727309,
                "tempo": 120.0
            },
            {
                "start_time": 87.975,
                "end_time": 88.12727272727273,
                "pitch": 48,
                "velocity": 80,
                "duration": 0.1522727272727309,
                "tempo": 120.0
            },
            {
                "start_time": 88.34318181818182,
                "end_time": 88.7090909090909,
                "pitch": 45,
                "velocity": 80,
                "duration": 0.36590909090908497,
                "tempo": 120.0
            },
            {
                "start_time": 88.74318181818181,
                "end_time": 88.9090909090909,
                "pitch": 50,
                "velocity": 80,
                "duration": 0.16590909090909634,
                "tempo": 120.0
            },
            {
                "start_time": 88.94318181818181,
                "end_time": 89.10909090909091,
                "pitch": 52,
                "velocity": 80,
                "duration": 0.16590909090909634,
                "tempo": 120.0
            },
            {
                "start_time": 89.14318181818182,
                "end_time": 89.3090909090909,
                "pitch": 48,
                "velocity": 80,
                "duration": 0.16590909090908212,
                "tempo": 120.0
            },
            {
                "start_time": 89.34318181818182,
                "end_time": 89.5090909090909,
                "pitch": 50,
                "velocity": 80,
                "duration": 0.16590909090908212,
                "tempo": 120.0
            },
            {
                "start_time": 89.54318181818181,
                "end_time": 89.7090909090909,
                "pitch": 47,
                "velocity": 80,
                "duration": 0.16590909090909634,
                "tempo": 120.0
            },
            {
                "start_time": 89.94318181818181,
                "end_time": 90.31363636363636,
                "pitch": 45,
                "velocity": 80,
                "duration": 0.3704545454545496,
                "tempo": 120.0
            },
            {
                "start_time": 90.34772727272727,
                "end_time": 90.51590909090909,
                "pitch": 43,
                "velocity": 80,
                "duration": 0.16818181818182154,
                "tempo": 120.0
            },
            {
                "start_time": 90.55,
                "end_time": 90.71818181818182,
                "pitch": 45,
                "velocity": 80,
                "duration": 0.16818181818182154,
                "tempo": 120.0
            },
            {
                "start_time": 90.75227272727273,
                "end_time": 90.92272727272727,
                "pitch": 40,
                "velocity": 80,
                "duration": 0.17045454545454675,
                "tempo": 120.0
            },
            {
                "start_time": 90.95681818181818,
                "end_time": 91.125,
                "pitch": 43,
                "velocity": 80,
                "duration": 0.16818181818182154,
                "tempo": 120.0
            },
            {
                "start_time": 91.1590909090909,
                "end_time": 91.32727272727273,
                "pitch": 36,
                "velocity": 80,
                "duration": 0.16818181818182154,
                "tempo": 120.0
            },
            {
                "start_time": 91.56363636363636,
                "end_time": 92.52954545454546,
                "pitch": 33,
                "velocity": 80,
                "duration": 0.9659090909090935,
                "tempo": 120.0
            },
            {
                "start_time": 92.96363636363635,
                "end_time": 93.12954545454545,
                "pitch": 33,
                "velocity": 80,
                "duration": 0.16590909090909634,
                "tempo": 120.0
            },
            {
                "start_time": 93.16363636363636,
                "end_time": 93.33181818181818,
                "pitch": 33,
                "velocity": 80,
                "duration": 0.16818181818182154,
                "tempo": 120.0
            },
            {
                "start_time": 94.78636363636363,
                "end_time": 94.95227272727273,
                "pitch": 33,
                "velocity": 80,
                "duration": 0.16590909090909634,
                "tempo": 120.0
            },
            {
                "start_time": 95.18636363636364,
                "end_time": 95.35227272727272,
                "pitch": 33,
                "velocity": 80,
                "duration": 0.16590909090908212,
                "tempo": 120.0
            },
            {
                "start_time": 95.38636363636363,
                "end_time": 95.55227272727272,
                "pitch": 45,
                "velocity": 80,
                "duration": 0.16590909090909634,
                "tempo": 120.0
            },
            {
                "start_time": 95.58636363636363,
                "end_time": 95.75227272727273,
                "pitch": 33,
                "velocity": 80,
                "duration": 0.16590909090909634,
                "tempo": 120.0
            },
            {
                "start_time": 96.38636363636363,
                "end_time": 96.55227272727272,
                "pitch": 33,
                "velocity": 80,
                "duration": 0.16590909090909634,
                "tempo": 120.0
            },
            {
                "start_time": 96.78636363636363,
                "end_time": 96.95227272727273,
                "pitch": 33,
                "velocity": 80,
                "duration": 0.16590909090909634,
                "tempo": 120.0
            },
            {
                "start_time": 96.98636363636363,
                "end_time": 97.15227272727272,
                "pitch": 33,
                "velocity": 80,
                "duration": 0.16590909090908212,
                "tempo": 120.0
            },
            {
                "start_time": 97.38636363636363,
                "end_time": 97.75227272727273,
                "pitch": 33,
                "velocity": 80,
                "duration": 0.3659090909090992,
                "tempo": 120.0
            },
            {
                "start_time": 97.78636363636363,
                "end_time": 97.95227272727273,
                "pitch": 35,
                "velocity": 80,
                "duration": 0.16590909090909634,
                "tempo": 120.0
            },
            {
                "start_time": 97.98636363636363,
                "end_time": 98.96590909090908,
                "pitch": 36,
                "velocity": 80,
                "duration": 0.9795454545454447,
                "tempo": 120.0
            },
            {
                "start_time": 99.40454545454546,
                "end_time": 99.57272727272726,
                "pitch": 36,
                "velocity": 80,
                "duration": 0.16818181818180733,
                "tempo": 120.0
            },
            {
                "start_time": 99.60681818181817,
                "end_time": 99.77499999999999,
                "pitch": 36,
                "velocity": 80,
                "duration": 0.16818181818182154,
                "tempo": 120.0
            },
            {
                "start_time": 101.22954545454544,
                "end_time": 102.79545454545455,
                "pitch": 38,
                "velocity": 80,
                "duration": 1.565909090909102,
                "tempo": 120.0
            },
            {
                "start_time": 102.82954545454545,
                "end_time": 102.99545454545454,
                "pitch": 38,
                "velocity": 80,
                "duration": 0.16590909090908212,
                "tempo": 120.0
            },
            {
                "start_time": 103.22954545454544,
                "end_time": 103.39545454545454,
                "pitch": 38,
                "velocity": 80,
                "duration": 0.16590909090909634,
                "tempo": 120.0
            },
            {
                "start_time": 103.42954545454545,
                "end_time": 103.59545454545454,
                "pitch": 43,
                "velocity": 80,
                "duration": 0.16590909090909634,
                "tempo": 120.0
            },
            {
                "start_time": 103.62954545454545,
                "end_time": 103.79545454545455,
                "pitch": 38,
                "velocity": 80,
                "duration": 0.16590909090909634,
                "tempo": 120.0
            },
            {
                "start_time": 104.63181818181818,
                "end_time": 104.8,
                "pitch": 43,
                "velocity": 80,
                "duration": 0.16818181818182154,
                "tempo": 120.0
            },
            {
                "start_time": 104.8340909090909,
                "end_time": 105.00227272727273,
                "pitch": 45,
                "velocity": 80,
                "duration": 0.16818181818182154,
                "tempo": 120.0
            },
            {
                "start_time": 105.03636363636363,
                "end_time": 105.20454545454545,
                "pitch": 40,
                "velocity": 80,
                "duration": 0.16818181818182154,
                "tempo": 120.0
            },
            {
                "start_time": 105.24090909090908,
                "end_time": 105.4090909090909,
                "pitch": 43,
                "velocity": 80,
                "duration": 0.16818181818182154,
                "tempo": 120.0
            },
            {
                "start_time": 105.64545454545454,
                "end_time": 105.81363636363636,
                "pitch": 36,
                "velocity": 80,
                "duration": 0.16818181818182154,
                "tempo": 120.0
            },
            {
                "start_time": 106.05227272727272,
                "end_time": 107.41818181818181,
                "pitch": 33,
                "velocity": 80,
                "duration": 1.365909090909085,
                "tempo": 120.0
            },
            {
                "start_time": 107.45227272727273,
                "end_time": 107.81818181818181,
                "pitch": 33,
                "velocity": 80,
                "duration": 0.36590909090908497,
                "tempo": 120.0
            },
            {
                "start_time": 109.25227272727273,
                "end_time": 109.42045454545455,
                "pitch": 33,
                "velocity": 80,
                "duration": 0.16818181818182154,
                "tempo": 120.0
            },
            {
                "start_time": 109.65681818181818,
                "end_time": 109.82499999999999,
                "pitch": 33,
                "velocity": 80,
                "duration": 0.16818181818180733,
                "tempo": 120.0
            },
            {
                "start_time": 109.85909090909091,
                "end_time": 110.02727272727272,
                "pitch": 36,
                "velocity": 80,
                "duration": 0.16818181818180733,
                "tempo": 120.0
            },
            {
                "start_time": 110.06136363636364,
                "end_time": 110.22954545454544,
                "pitch": 33,
                "velocity": 80,
                "duration": 0.16818181818180733,
                "tempo": 120.0
            },
            {
                "start_time": 110.87272727272726,
                "end_time": 111.03863636363636,
                "pitch": 33,
                "velocity": 80,
                "duration": 0.16590909090909634,
                "tempo": 120.0
            },
            {
                "start_time": 111.27272727272727,
                "end_time": 111.43863636363636,
                "pitch": 33,
                "velocity": 80,
                "duration": 0.16590909090909634,
                "tempo": 120.0
            },
            {
                "start_time": 111.47272727272727,
                "end_time": 111.63863636363635,
                "pitch": 33,
                "velocity": 80,
                "duration": 0.16590909090908212,
                "tempo": 120.0
            },
            {
                "start_time": 112.27272727272727,
                "end_time": 112.43863636363636,
                "pitch": 35,
                "velocity": 80,
                "duration": 0.16590909090909634,
                "tempo": 120.0
            },
            {
                "start_time": 112.47272727272727,
                "end_time": 114.03863636363636,
                "pitch": 36,
                "velocity": 80,
                "duration": 1.5659090909090878,
                "tempo": 120.0
            },
            {
                "start_time": 114.07272727272726,
                "end_time": 114.24090909090908,
                "pitch": 36,
                "velocity": 80,
                "duration": 0.16818181818182154,
                "tempo": 120.0
            },
            {
                "start_time": 115.69545454545454,
                "end_time": 117.2590909090909,
                "pitch": 38,
                "velocity": 80,
                "duration": 1.5636363636363626,
                "tempo": 120.0
            },
            {
                "start_time": 117.29318181818181,
                "end_time": 117.46136363636363,
                "pitch": 38,
                "velocity": 80,
                "duration": 0.16818181818182154,
                "tempo": 120.0
            },
            {
                "start_time": 117.69999999999999,
                "end_time": 117.86818181818181,
                "pitch": 38,
                "velocity": 80,
                "duration": 0.16818181818182154,
                "tempo": 120.0
            },
            {
                "start_time": 117.90227272727272,
                "end_time": 118.67954545454545,
                "pitch": 43,
                "velocity": 80,
                "duration": 0.7772727272727309,
                "tempo": 120.0
            },
            {
                "start_time": 119.11590909090908,
                "end_time": 119.28181818181818,
                "pitch": 43,
                "velocity": 80,
                "duration": 0.16590909090909634,
                "tempo": 120.0
            },
            {
                "start_time": 119.31590909090909,
                "end_time": 119.48181818181817,
                "pitch": 45,
                "velocity": 80,
                "duration": 0.16590909090908212,
                "tempo": 120.0
            },
            {
                "start_time": 119.51590909090909,
                "end_time": 119.68181818181817,
                "pitch": 40,
                "velocity": 80,
                "duration": 0.16590909090908212,
                "tempo": 120.0
            },
            {
                "start_time": 119.71590909090908,
                "end_time": 119.88181818181818,
                "pitch": 43,
                "velocity": 80,
                "duration": 0.16590909090909634,
                "tempo": 120.0
            },
            {
                "start_time": 120.11590909090908,
                "end_time": 120.28181818181818,
                "pitch": 36,
                "velocity": 80,
                "duration": 0.16590909090909634,
                "tempo": 120.0
            },
            {
                "start_time": 120.51590909090909,
                "end_time": 122.125,
                "pitch": 33,
                "velocity": 80,
                "duration": 1.6090909090909093,
                "tempo": 120.0
            },
            {
                "start_time": 122.1590909090909,
                "end_time": 122.32499999999999,
                "pitch": 33,
                "velocity": 80,
                "duration": 0.16590909090908212,
                "tempo": 120.0
            },
            {
                "start_time": 122.5590909090909,
                "end_time": 122.725,
                "pitch": 33,
                "velocity": 80,
                "duration": 0.16590909090909634,
                "tempo": 120.0
            },
            {
                "start_time": 122.7590909090909,
                "end_time": 122.925,
                "pitch": 33,
                "velocity": 80,
                "duration": 0.16590909090909634,
                "tempo": 120.0
            },
            {
                "start_time": 123.7590909090909,
                "end_time": 123.925,
                "pitch": 33,
                "velocity": 80,
                "duration": 0.16590909090909634,
                "tempo": 120.0
            },
            {
                "start_time": 125.35909090909091,
                "end_time": 125.52727272727272,
                "pitch": 33,
                "velocity": 80,
                "duration": 0.16818181818180733,
                "tempo": 120.0
            },
            {
                "start_time": 126.37272727272726,
                "end_time": 126.74318181818181,
                "pitch": 33,
                "velocity": 80,
                "duration": 0.3704545454545496,
                "tempo": 120.0
            },
            {
                "start_time": 126.77727272727272,
                "end_time": 126.94545454545454,
                "pitch": 35,
                "velocity": 80,
                "duration": 0.16818181818182154,
                "tempo": 120.0
            },
            {
                "start_time": 126.97954545454544,
                "end_time": 128.34772727272727,
                "pitch": 36,
                "velocity": 80,
                "duration": 1.3681818181818244,
                "tempo": 120.0
            },
            {
                "start_time": 128.38181818181818,
                "end_time": 128.74772727272727,
                "pitch": 36,
                "velocity": 80,
                "duration": 0.3659090909090992,
                "tempo": 120.0
            },
            {
                "start_time": 129.79545454545453,
                "end_time": 129.9659090909091,
                "pitch": 36,
                "velocity": 80,
                "duration": 0.17045454545456096,
                "tempo": 120.0
            },
            {
                "start_time": 130.2022727272727,
                "end_time": 131.7681818181818,
                "pitch": 38,
                "velocity": 80,
                "duration": 1.5659090909090878,
                "tempo": 120.0
            },
            {
                "start_time": 131.8022727272727,
                "end_time": 131.96818181818182,
                "pitch": 38,
                "velocity": 80,
                "duration": 0.16590909090911055,
                "tempo": 120.0
            },
            {
                "start_time": 132.2022727272727,
                "end_time": 133.57045454545454,
                "pitch": 40,
                "velocity": 80,
                "duration": 1.3681818181818244,
                "tempo": 120.0
            },
            {
                "start_time": 133.60454545454544,
                "end_time": 133.77272727272725,
                "pitch": 43,
                "velocity": 80,
                "duration": 0.16818181818180733,
                "tempo": 120.0
            },
            {
                "start_time": 133.8068181818182,
                "end_time": 133.975,
                "pitch": 45,
                "velocity": 80,
                "duration": 0.16818181818180733,
                "tempo": 120.0
            },
            {
                "start_time": 134.0090909090909,
                "end_time": 134.1772727272727,
                "pitch": 40,
                "velocity": 80,
                "duration": 0.16818181818180733,
                "tempo": 120.0
            },
            {
                "start_time": 134.21363636363637,
                "end_time": 134.38181818181818,
                "pitch": 43,
                "velocity": 80,
                "duration": 0.16818181818180733,
                "tempo": 120.0
            },
            {
                "start_time": 134.61818181818182,
                "end_time": 134.78636363636363,
                "pitch": 36,
                "velocity": 80,
                "duration": 0.16818181818180733,
                "tempo": 120.0
            },
            {
                "start_time": 135.02272727272725,
                "end_time": 136.58863636363637,
                "pitch": 33,
                "velocity": 80,
                "duration": 1.5659090909091162,
                "tempo": 120.0
            },
            {
                "start_time": 136.625,
                "end_time": 136.7931818181818,
                "pitch": 33,
                "velocity": 80,
                "duration": 0.16818181818180733,
                "tempo": 120.0
            },
            {
                "start_time": 138.26590909090908,
                "end_time": 138.4318181818182,
                "pitch": 33,
                "velocity": 80,
                "duration": 0.16590909090911055,
                "tempo": 120.0
            },
            {
                "start_time": 138.66590909090908,
                "end_time": 138.83181818181816,
                "pitch": 33,
                "velocity": 80,
                "duration": 0.16590909090908212,
                "tempo": 120.0
            },
            {
                "start_time": 138.86590909090907,
                "end_time": 139.03181818181818,
                "pitch": 33,
                "velocity": 80,
                "duration": 0.16590909090911055,
                "tempo": 120.0
            },
            {
                "start_time": 139.86590909090907,
                "end_time": 140.8340909090909,
                "pitch": 33,
                "velocity": 80,
                "duration": 0.9681818181818187,
                "tempo": 120.0
            },
            {
                "start_time": 140.86818181818182,
                "end_time": 141.2340909090909,
                "pitch": 33,
                "velocity": 80,
                "duration": 0.36590909090907076,
                "tempo": 120.0
            },
            {
                "start_time": 141.2681818181818,
                "end_time": 141.4318181818182,
                "pitch": 40,
                "velocity": 80,
                "duration": 0.16363636363638534,
                "tempo": 120.0
            },
            {
                "start_time": 141.4659090909091,
                "end_time": 142.64772727272725,
                "pitch": 38,
                "velocity": 80,
                "duration": 1.1818181818181586,
                "tempo": 120.0
            },
            {
                "start_time": 142.6818181818182,
                "end_time": 143.25454545454545,
                "pitch": 38,
                "velocity": 80,
                "duration": 0.5727272727272634,
                "tempo": 120.0
            },
            {
                "start_time": 143.28863636363636,
                "end_time": 144.65454545454546,
                "pitch": 40,
                "velocity": 80,
                "duration": 1.3659090909090992,
                "tempo": 120.0
            },
            {
                "start_time": 144.68863636363636,
                "end_time": 146.275,
                "pitch": 43,
                "velocity": 80,
                "duration": 1.586363636363643,
                "tempo": 120.0
            },
            {
                "start_time": 146.3090909090909,
                "end_time": 146.47727272727272,
                "pitch": 47,
                "velocity": 80,
                "duration": 0.16818181818180733,
                "tempo": 120.0
            },
            {
                "start_time": 146.7159090909091,
                "end_time": 147.89772727272725,
                "pitch": 45,
                "velocity": 80,
                "duration": 1.1818181818181586,
                "tempo": 120.0
            },
            {
                "start_time": 147.9318181818182,
                "end_time": 149.69772727272726,
                "pitch": 40,
                "velocity": 80,
                "duration": 1.7659090909090764,
                "tempo": 120.0
            },
            {
                "start_time": 149.73181818181817,
                "end_time": 150.36590909090907,
                "pitch": 39,
                "velocity": 80,
                "duration": 0.6340909090909008,
                "tempo": 120.0
            },
            {
                "start_time": 150.40454545454546,
                "end_time": 151.26136363636363,
                "pitch": 40,
                "velocity": 80,
                "duration": 0.8568181818181699,
                "tempo": 120.0
            },
            {
                "start_time": 151.29999999999998,
                "end_time": 152.70681818181816,
                "pitch": 35,
                "velocity": 80,
                "duration": 1.4068181818181813,
                "tempo": 120.0
            },
            {
                "start_time": 152.74090909090907,
                "end_time": 153.11136363636362,
                "pitch": 38,
                "velocity": 80,
                "duration": 0.3704545454545496,
                "tempo": 120.0
            },
            {
                "start_time": 153.14772727272725,
                "end_time": 153.91363636363636,
                "pitch": 36,
                "velocity": 80,
                "duration": 0.7659090909091049,
                "tempo": 120.0
            },
            {
                "start_time": 153.94545454545454,
                "end_time": 154.51363636363635,
                "pitch": 38,
                "velocity": 80,
                "duration": 0.568181818181813,
                "tempo": 120.0
            },
            {
                "start_time": 154.54545454545453,
                "end_time": 156.31363636363636,
                "pitch": 40,
                "velocity": 80,
                "duration": 1.76818181818183,
                "tempo": 120.0
            },
            {
                "start_time": 156.34545454545454,
                "end_time": 156.91363636363636,
                "pitch": 39,
                "velocity": 80,
                "duration": 0.568181818181813,
                "tempo": 120.0
            },
            {
                "start_time": 156.94545454545454,
                "end_time": 157.91363636363636,
                "pitch": 40,
                "velocity": 80,
                "duration": 0.9681818181818187,
                "tempo": 120.0
            },
            {
                "start_time": 157.94545454545454,
                "end_time": 158.72272727272727,
                "pitch": 35,
                "velocity": 80,
                "duration": 0.7772727272727309,
                "tempo": 120.0
            },
            {
                "start_time": 158.75681818181818,
                "end_time": 159.33181818181816,
                "pitch": 35,
                "velocity": 80,
                "duration": 0.5749999999999886,
                "tempo": 120.0
            },
            {
                "start_time": 159.36590909090907,
                "end_time": 160.9340909090909,
                "pitch": 33,
                "velocity": 80,
                "duration": 1.5681818181818414,
                "tempo": 120.0
            },
            {
                "start_time": 160.96818181818182,
                "end_time": 164.15681818181818,
                "pitch": 38,
                "velocity": 80,
                "duration": 3.1886363636363626,
                "tempo": 120.0
            },
            {
                "start_time": 164.18863636363636,
                "end_time": 164.75681818181818,
                "pitch": 40,
                "velocity": 80,
                "duration": 0.568181818181813,
                "tempo": 120.0
            },
            {
                "start_time": 164.78863636363636,
                "end_time": 167.15681818181818,
                "pitch": 43,
                "velocity": 80,
                "duration": 2.3681818181818244,
                "tempo": 120.0
            },
            {
                "start_time": 167.58863636363637,
                "end_time": 168.975,
                "pitch": 41,
                "velocity": 80,
                "duration": 1.386363636363626,
                "tempo": 120.0
            },
            {
                "start_time": 169.0090909090909,
                "end_time": 170.59545454545454,
                "pitch": 43,
                "velocity": 80,
                "duration": 1.586363636363643,
                "tempo": 120.0
            },
            {
                "start_time": 170.62954545454545,
                "end_time": 172.9840909090909,
                "pitch": 45,
                "velocity": 80,
                "duration": 2.3545454545454447,
                "tempo": 120.0
            },
            {
                "start_time": 173.79545454545453,
                "end_time": 174.13181818181818,
                "pitch": 45,
                "velocity": 80,
                "duration": 0.3363636363636431,
                "tempo": 120.0
            },
            {
                "start_time": 174.16136363636363,
                "end_time": 174.31363636363636,
                "pitch": 55,
                "velocity": 80,
                "duration": 0.1522727272727309,
                "tempo": 120.0
            },
            {
                "start_time": 174.34545454545454,
                "end_time": 174.49772727272727,
                "pitch": 57,
                "velocity": 80,
                "duration": 0.1522727272727309,
                "tempo": 120.0
            },
            {
                "start_time": 174.52727272727273,
                "end_time": 174.67954545454543,
                "pitch": 52,
                "velocity": 80,
                "duration": 0.15227272727270247,
                "tempo": 120.0
            },
            {
                "start_time": 174.71136363636361,
                "end_time": 174.86363636363635,
                "pitch": 55,
                "velocity": 80,
                "duration": 0.1522727272727309,
                "tempo": 120.0
            },
            {
                "start_time": 174.8931818181818,
                "end_time": 175.04545454545453,
                "pitch": 48,
                "velocity": 80,
                "duration": 0.1522727272727309,
                "tempo": 120.0
            },
            {
                "start_time": 175.2590909090909,
                "end_time": 175.62727272727273,
                "pitch": 45,
                "velocity": 80,
                "duration": 0.3681818181818244,
                "tempo": 120.0
            },
            {
                "start_time": 175.6590909090909,
                "end_time": 175.8272727272727,
                "pitch": 50,
                "velocity": 80,
                "duration": 0.16818181818180733,
                "tempo": 120.0
            },
            {
                "start_time": 175.8590909090909,
                "end_time": 176.02727272727273,
                "pitch": 52,
                "velocity": 80,
                "duration": 0.16818181818183575,
                "tempo": 120.0
            },
            {
                "start_time": 176.0590909090909,
                "end_time": 176.22727272727272,
                "pitch": 48,
                "velocity": 80,
                "duration": 0.16818181818180733,
                "tempo": 120.0
            },
            {
                "start_time": 176.2590909090909,
                "end_time": 176.4272727272727,
                "pitch": 50,
                "velocity": 80,
                "duration": 0.16818181818180733,
                "tempo": 120.0
            },
            {
                "start_time": 176.4590909090909,
                "end_time": 176.62727272727273,
                "pitch": 47,
                "velocity": 80,
                "duration": 0.16818181818183575,
                "tempo": 120.0
            },
            {
                "start_time": 176.8590909090909,
                "end_time": 177.22727272727272,
                "pitch": 45,
                "velocity": 80,
                "duration": 0.3681818181818244,
                "tempo": 120.0
            },
            {
                "start_time": 177.2590909090909,
                "end_time": 177.4272727272727,
                "pitch": 43,
                "velocity": 80,
                "duration": 0.16818181818180733,
                "tempo": 120.0
            },
            {
                "start_time": 177.4590909090909,
                "end_time": 177.62727272727273,
                "pitch": 45,
                "velocity": 80,
                "duration": 0.16818181818183575,
                "tempo": 120.0
            },
            {
                "start_time": 177.6590909090909,
                "end_time": 177.8272727272727,
                "pitch": 40,
                "velocity": 80,
                "duration": 0.16818181818180733,
                "tempo": 120.0
            },
            {
                "start_time": 177.8590909090909,
                "end_time": 178.02727272727273,
                "pitch": 43,
                "velocity": 80,
                "duration": 0.16818181818183575,
                "tempo": 120.0
            },
            {
                "start_time": 178.0590909090909,
                "end_time": 178.22727272727272,
                "pitch": 36,
                "velocity": 80,
                "duration": 0.16818181818180733,
                "tempo": 120.0
            },
            {
                "start_time": 178.4590909090909,
                "end_time": 179.4272727272727,
                "pitch": 33,
                "velocity": 80,
                "duration": 0.9681818181818187,
                "tempo": 120.0
            }
        ],
        "Harpsichord": [
            {
                "start_time": 0.20909090909090908,
                "end_time": 0.4954545454545454,
                "pitch": 77,
                "velocity": 64,
                "duration": 0.2863636363636364,
                "tempo": 120.0
            },
            {
                "start_time": 0.5181818181818182,
                "end_time": 1.0818181818181818,
                "pitch": 75,
                "velocity": 64,
                "duration": 0.5636363636363636,
                "tempo": 120.0
            },
            {
                "start_time": 1.1181818181818182,
                "end_time": 1.2818181818181817,
                "pitch": 74,
                "velocity": 64,
                "duration": 0.16363636363636358,
                "tempo": 120.0
            },
            {
                "start_time": 1.3181818181818181,
                "end_time": 1.4818181818181817,
                "pitch": 74,
                "velocity": 64,
                "duration": 0.16363636363636358,
                "tempo": 120.0
            },
            {
                "start_time": 2.318181818181818,
                "end_time": 3.1886363636363635,
                "pitch": 74,
                "velocity": 64,
                "duration": 0.8704545454545456,
                "tempo": 120.0
            },
            {
                "start_time": 5.502272727272727,
                "end_time": 5.961363636363636,
                "pitch": 74,
                "velocity": 64,
                "duration": 0.459090909090909,
                "tempo": 120.0
            },
            {
                "start_time": 5.961363636363636,
                "end_time": 6.345454545454545,
                "pitch": 74,
                "velocity": 64,
                "duration": 0.3840909090909088,
                "tempo": 120.0
            },
            {
                "start_time": 6.381818181818182,
                "end_time": 7.1454545454545455,
                "pitch": 74,
                "velocity": 64,
                "duration": 0.7636363636363637,
                "tempo": 120.0
            },
            {
                "start_time": 7.181818181818182,
                "end_time": 7.745454545454545,
                "pitch": 71,
                "velocity": 64,
                "duration": 0.5636363636363635,
                "tempo": 120.0
            },
            {
                "start_time": 7.781818181818181,
                "end_time": 8.354545454545454,
                "pitch": 74,
                "velocity": 64,
                "duration": 0.5727272727272723,
                "tempo": 120.0
            },
            {
                "start_time": 12.004545454545454,
                "end_time": 12.568181818181818,
                "pitch": 74,
                "velocity": 64,
                "duration": 0.5636363636363644,
                "tempo": 120.0
            },
            {
                "start_time": 12.602272727272727,
                "end_time": 14.588636363636363,
                "pitch": 78,
                "velocity": 64,
                "duration": 1.9863636363636363,
                "tempo": 120.0
            },
            {
                "start_time": 15.225,
                "end_time": 15.788636363636362,
                "pitch": 81,
                "velocity": 64,
                "duration": 0.5636363636363626,
                "tempo": 120.0
            },
            {
                "start_time": 15.825,
                "end_time": 16.388636363636362,
                "pitch": 81,
                "velocity": 64,
                "duration": 0.5636363636363626,
                "tempo": 120.0
            },
            {
                "start_time": 16.425,
                "end_time": 16.988636363636363,
                "pitch": 74,
                "velocity": 64,
                "duration": 0.5636363636363626,
                "tempo": 120.0
            },
            {
                "start_time": 17.025,
                "end_time": 17.59090909090909,
                "pitch": 74,
                "velocity": 64,
                "duration": 0.5659090909090914,
                "tempo": 120.0
            },
            {
                "start_time": 17.627272727272725,
                "end_time": 17.795454545454543,
                "pitch": 67,
                "velocity": 64,
                "duration": 0.168181818181818,
                "tempo": 120.0
            },
            {
                "start_time": 17.829545454545453,
                "end_time": 17.99772727272727,
                "pitch": 69,
                "velocity": 64,
                "duration": 0.168181818181818,
                "tempo": 120.0
            },
            {
                "start_time": 18.034090909090907,
                "end_time": 18.2,
                "pitch": 64,
                "velocity": 64,
                "duration": 0.16590909090909278,
                "tempo": 120.0
            },
            {
                "start_time": 18.236363636363635,
                "end_time": 18.402272727272727,
                "pitch": 67,
                "velocity": 64,
                "duration": 0.16590909090909278,
                "tempo": 120.0
            },
            {
                "start_time": 18.64090909090909,
                "end_time": 18.80681818181818,
                "pitch": 60,
                "velocity": 64,
                "duration": 0.16590909090908923,
                "tempo": 120.0
            },
            {
                "start_time": 19.045454545454543,
                "end_time": 20.011363636363637,
                "pitch": 57,
                "velocity": 64,
                "duration": 0.9659090909090935,
                "tempo": 120.0
            },
            {
                "start_time": 20.045454545454543,
                "end_time": 20.811363636363634,
                "pitch": 74,
                "velocity": 64,
                "duration": 0.7659090909090907,
                "tempo": 120.0
            },
            {
                "start_time": 20.847727272727273,
                "end_time": 21.611363636363635,
                "pitch": 74,
                "velocity": 64,
                "duration": 0.7636363636363619,
                "tempo": 120.0
            },
            {
                "start_time": 21.645454545454545,
                "end_time": 22.211363636363636,
                "pitch": 71,
                "velocity": 64,
                "duration": 0.5659090909090914,
                "tempo": 120.0
            },
            {
                "start_time": 22.24772727272727,
                "end_time": 22.818181818181817,
                "pitch": 74,
                "velocity": 64,
                "duration": 0.5704545454545453,
                "tempo": 120.0
            },
            {
                "start_time": 26.502272727272725,
                "end_time": 27.075,
                "pitch": 74,
                "velocity": 64,
                "duration": 0.5727272727272741,
                "tempo": 120.0
            },
            {
                "start_time": 27.111363636363635,
                "end_time": 29.081818181818182,
                "pitch": 78,
                "velocity": 64,
                "duration": 1.9704545454545475,
                "tempo": 120.0
            },
            {
                "start_time": 29.724999999999998,
                "end_time": 30.297727272727272,
                "pitch": 81,
                "velocity": 64,
                "duration": 0.5727272727272741,
                "tempo": 120.0
            },
            {
                "start_time": 30.334090909090907,
                "end_time": 30.49772727272727,
                "pitch": 81,
                "velocity": 64,
                "duration": 0.16363636363636402,
                "tempo": 120.0
            },
            {
                "start_time": 30.73409090909091,
                "end_time": 30.89772727272727,
                "pitch": 74,
                "velocity": 64,
                "duration": 0.16363636363636047,
                "tempo": 120.0
            },
            {
                "start_time": 31.13181818181818,
                "end_time": 31.89772727272727,
                "pitch": 74,
                "velocity": 64,
                "duration": 0.7659090909090907,
                "tempo": 120.0
            },
            {
                "start_time": 32.13636363636363,
                "end_time": 32.30227272727272,
                "pitch": 67,
                "velocity": 64,
                "duration": 0.16590909090908923,
                "tempo": 120.0
            },
            {
                "start_time": 32.33863636363636,
                "end_time": 32.50454545454545,
                "pitch": 69,
                "velocity": 64,
                "duration": 0.16590909090908923,
                "tempo": 120.0
            },
            {
                "start_time": 32.54090909090909,
                "end_time": 32.70909090909091,
                "pitch": 64,
                "velocity": 64,
                "duration": 0.16818181818182154,
                "tempo": 120.0
            },
            {
                "start_time": 32.74318181818182,
                "end_time": 32.91136363636363,
                "pitch": 67,
                "velocity": 64,
                "duration": 0.16818181818181444,
                "tempo": 120.0
            },
            {
                "start_time": 33.15,
                "end_time": 33.31590909090909,
                "pitch": 60,
                "velocity": 64,
                "duration": 0.16590909090908923,
                "tempo": 120.0
            },
            {
                "start_time": 33.554545454545455,
                "end_time": 34.53181818181818,
                "pitch": 57,
                "velocity": 64,
                "duration": 0.9772727272727266,
                "tempo": 120.0
            },
            {
                "start_time": 34.56818181818181,
                "end_time": 35.34318181818182,
                "pitch": 74,
                "velocity": 64,
                "duration": 0.7750000000000057,
                "tempo": 120.0
            },
            {
                "start_time": 35.37954545454545,
                "end_time": 36.154545454545456,
                "pitch": 74,
                "velocity": 64,
                "duration": 0.7750000000000057,
                "tempo": 120.0
            },
            {
                "start_time": 36.18863636363636,
                "end_time": 36.76136363636363,
                "pitch": 71,
                "velocity": 64,
                "duration": 0.5727272727272705,
                "tempo": 120.0
            },
            {
                "start_time": 36.79772727272727,
                "end_time": 37.361363636363635,
                "pitch": 74,
                "velocity": 64,
                "duration": 0.5636363636363626,
                "tempo": 120.0
            },
            {
                "start_time": 41.03181818181818,
                "end_time": 41.60454545454545,
                "pitch": 74,
                "velocity": 64,
                "duration": 0.5727272727272705,
                "tempo": 120.0
            },
            {
                "start_time": 41.64090909090909,
                "end_time": 43.611363636363635,
                "pitch": 78,
                "velocity": 64,
                "duration": 1.970454545454544,
                "tempo": 120.0
            },
            {
                "start_time": 44.25454545454545,
                "end_time": 44.82727272727273,
                "pitch": 81,
                "velocity": 64,
                "duration": 0.5727272727272776,
                "tempo": 120.0
            },
            {
                "start_time": 44.86363636363636,
                "end_time": 45.42045454545455,
                "pitch": 81,
                "velocity": 64,
                "duration": 0.556818181818187,
                "tempo": 120.0
            },
            {
                "start_time": 45.45454545454545,
                "end_time": 46.01136363636363,
                "pitch": 74,
                "velocity": 64,
                "duration": 0.5568181818181799,
                "tempo": 120.0
            },
            {
                "start_time": 46.04545454545455,
                "end_time": 46.60909090909091,
                "pitch": 74,
                "velocity": 64,
                "duration": 0.5636363636363626,
                "tempo": 120.0
            },
            {
                "start_time": 46.643181818181816,
                "end_time": 46.81136363636364,
                "pitch": 67,
                "velocity": 64,
                "duration": 0.16818181818182154,
                "tempo": 120.0
            },
            {
                "start_time": 46.845454545454544,
                "end_time": 47.01363636363636,
                "pitch": 69,
                "velocity": 64,
                "duration": 0.16818181818181444,
                "tempo": 120.0
            },
            {
                "start_time": 47.05,
                "end_time": 47.215909090909086,
                "pitch": 64,
                "velocity": 64,
                "duration": 0.16590909090908923,
                "tempo": 120.0
            },
            {
                "start_time": 47.252272727272725,
                "end_time": 47.418181818181814,
                "pitch": 67,
                "velocity": 64,
                "duration": 0.16590909090908923,
                "tempo": 120.0
            },
            {
                "start_time": 47.65681818181818,
                "end_time": 47.824999999999996,
                "pitch": 60,
                "velocity": 64,
                "duration": 0.16818181818181444,
                "tempo": 120.0
            },
            {
                "start_time": 48.06136363636364,
                "end_time": 49.027272727272724,
                "pitch": 57,
                "velocity": 64,
                "duration": 0.9659090909090864,
                "tempo": 120.0
            },
            {
                "start_time": 49.06136363636364,
                "end_time": 49.82727272727273,
                "pitch": 74,
                "velocity": 64,
                "duration": 0.7659090909090907,
                "tempo": 120.0
            },
            {
                "start_time": 49.86363636363636,
                "end_time": 50.627272727272725,
                "pitch": 74,
                "velocity": 64,
                "duration": 0.7636363636363654,
                "tempo": 120.0
            },
            {
                "start_time": 50.66136363636363,
                "end_time": 51.22727272727273,
                "pitch": 71,
                "velocity": 64,
                "duration": 0.5659090909090949,
                "tempo": 120.0
            },
            {
                "start_time": 51.26363636363636,
                "end_time": 51.834090909090904,
                "pitch": 74,
                "velocity": 64,
                "duration": 0.5704545454545453,
                "tempo": 120.0
            },
            {
                "start_time": 55.699999999999996,
                "end_time": 56.27045454545454,
                "pitch": 77,
                "velocity": 64,
                "duration": 0.5704545454545453,
                "tempo": 120.0
            },
            {
                "start_time": 56.30681818181818,
                "end_time": 57.87272727272727,
                "pitch": 76,
                "velocity": 64,
                "duration": 1.5659090909090878,
                "tempo": 120.0
            },
            {
                "start_time": 58.71818181818182,
                "end_time": 59.29090909090909,
                "pitch": 79,
                "velocity": 64,
                "duration": 0.5727272727272705,
                "tempo": 120.0
            },
            {
                "start_time": 59.32727272727272,
                "end_time": 59.49545454545454,
                "pitch": 79,
                "velocity": 64,
                "duration": 0.16818181818182154,
                "tempo": 120.0
            },
            {
                "start_time": 59.73409090909091,
                "end_time": 60.913636363636364,
                "pitch": 78,
                "velocity": 64,
                "duration": 1.1795454545454547,
                "tempo": 120.0
            },
            {
                "start_time": 60.949999999999996,
                "end_time": 63.18181818181818,
                "pitch": 80,
                "velocity": 64,
                "duration": 2.231818181818184,
                "tempo": 120.0
            },
            {
                "start_time": 63.220454545454544,
                "end_time": 63.40681818181818,
                "pitch": 75,
                "velocity": 64,
                "duration": 0.1863636363636374,
                "tempo": 120.0
            },
            {
                "start_time": 63.445454545454545,
                "end_time": 63.62954545454545,
                "pitch": 78,
                "velocity": 64,
                "duration": 0.18409090909090509,
                "tempo": 120.0
            },
            {
                "start_time": 63.893181818181816,
                "end_time": 64.07727272727273,
                "pitch": 78,
                "velocity": 64,
                "duration": 0.1840909090909122,
                "tempo": 120.0
            },
            {
                "start_time": 64.3409090909091,
                "end_time": 66.15227272727273,
                "pitch": 78,
                "velocity": 64,
                "duration": 1.8113636363636374,
                "tempo": 120.0
            },
            {
                "start_time": 66.18863636363636,
                "end_time": 66.75227272727273,
                "pitch": 78,
                "velocity": 64,
                "duration": 0.5636363636363626,
                "tempo": 120.0
            },
            {
                "start_time": 66.78636363636363,
                "end_time": 67.55227272727272,
                "pitch": 78,
                "velocity": 64,
                "duration": 0.7659090909090907,
                "tempo": 120.0
            },
            {
                "start_time": 67.58863636363635,
                "end_time": 69.77499999999999,
                "pitch": 78,
                "velocity": 64,
                "duration": 2.1863636363636374,
                "tempo": 120.0
            },
            {
                "start_time": 70.0090909090909,
                "end_time": 71.7840909090909,
                "pitch": 80,
                "velocity": 64,
                "duration": 1.7750000000000057,
                "tempo": 120.0
            },
            {
                "start_time": 71.82045454545454,
                "end_time": 71.98636363636363,
                "pitch": 75,
                "velocity": 64,
                "duration": 0.16590909090909634,
                "tempo": 120.0
            },
            {
                "start_time": 72.42954545454545,
                "end_time": 73.59545454545454,
                "pitch": 73,
                "velocity": 64,
                "duration": 1.1659090909090963,
                "tempo": 120.0
            },
            {
                "start_time": 73.82954545454545,
                "end_time": 74.19545454545454,
                "pitch": 73,
                "velocity": 64,
                "duration": 0.36590909090908497,
                "tempo": 120.0
            },
            {
                "start_time": 74.22954545454544,
                "end_time": 75.2090909090909,
                "pitch": 72,
                "velocity": 64,
                "duration": 0.9795454545454589,
                "tempo": 120.0
            },
            {
                "start_time": 75.24318181818181,
                "end_time": 75.81590909090909,
                "pitch": 72,
                "velocity": 64,
                "duration": 0.5727272727272776,
                "tempo": 120.0
            },
            {
                "start_time": 75.85227272727272,
                "end_time": 76.41590909090908,
                "pitch": 76,
                "velocity": 64,
                "duration": 0.5636363636363626,
                "tempo": 120.0
            },
            {
                "start_time": 76.45227272727273,
                "end_time": 76.81590909090909,
                "pitch": 76,
                "velocity": 64,
                "duration": 0.36363636363635976,
                "tempo": 120.0
            },
            {
                "start_time": 76.85227272727272,
                "end_time": 77.41590909090908,
                "pitch": 72,
                "velocity": 64,
                "duration": 0.5636363636363626,
                "tempo": 120.0
            },
            {
                "start_time": 77.45227272727273,
                "end_time": 79.01590909090909,
                "pitch": 79,
                "velocity": 64,
                "duration": 1.5636363636363626,
                "tempo": 120.0
            },
            {
                "start_time": 79.05227272727272,
                "end_time": 79.625,
                "pitch": 76,
                "velocity": 64,
                "duration": 0.5727272727272776,
                "tempo": 120.0
            },
            {
                "start_time": 79.6590909090909,
                "end_time": 80.02954545454546,
                "pitch": 76,
                "velocity": 64,
                "duration": 0.3704545454545496,
                "tempo": 120.0
            },
            {
                "start_time": 80.06590909090909,
                "end_time": 80.63863636363637,
                "pitch": 76,
                "velocity": 64,
                "duration": 0.5727272727272776,
                "tempo": 120.0
            },
            {
                "start_time": 80.675,
                "end_time": 82.05681818181817,
                "pitch": 79,
                "velocity": 64,
                "duration": 1.3818181818181756,
                "tempo": 120.0
            },
            {
                "start_time": 82.09318181818182,
                "end_time": 83.67954545454545,
                "pitch": 81,
                "velocity": 64,
                "duration": 1.5863636363636289,
                "tempo": 120.0
            },
            {
                "start_time": 83.7159090909091,
                "end_time": 86.84545454545454,
                "pitch": 83,
                "velocity": 64,
                "duration": 3.1295454545454504,
                "tempo": 120.0
            },
            {
                "start_time": 86.87954545454545,
                "end_time": 87.03181818181818,
                "pitch": 86,
                "velocity": 64,
                "duration": 0.1522727272727309,
                "tempo": 120.0
            },
            {
                "start_time": 87.24772727272727,
                "end_time": 87.39772727272727,
                "pitch": 67,
                "velocity": 64,
                "duration": 0.14999999999999147,
                "tempo": 120.0
            },
            {
                "start_time": 87.42954545454545,
                "end_time": 87.57954545454545,
                "pitch": 69,
                "velocity": 64,
                "duration": 0.15000000000000568,
                "tempo": 120.0
            },
            {
                "start_time": 87.61136363636363,
                "end_time": 87.76136363636363,
                "pitch": 64,
                "velocity": 64,
                "duration": 0.14999999999999147,
                "tempo": 120.0
            },
            {
                "start_time": 87.79545454545455,
                "end_time": 87.94545454545454,
                "pitch": 67,
                "velocity": 64,
                "duration": 0.14999999999999147,
                "tempo": 120.0
            },
            {
                "start_time": 87.97727272727272,
                "end_time": 88.12727272727273,
                "pitch": 60,
                "velocity": 64,
                "duration": 0.15000000000000568,
                "tempo": 120.0
            },
            {
                "start_time": 88.34318181818182,
                "end_time": 88.7090909090909,
                "pitch": 57,
                "velocity": 64,
                "duration": 0.36590909090908497,
                "tempo": 120.0
            },
            {
                "start_time": 88.74318181818181,
                "end_time": 88.9090909090909,
                "pitch": 62,
                "velocity": 64,
                "duration": 0.16590909090909634,
                "tempo": 120.0
            },
            {
                "start_time": 88.94545454545454,
                "end_time": 89.10909090909091,
                "pitch": 64,
                "velocity": 64,
                "duration": 0.16363636363637113,
                "tempo": 120.0
            },
            {
                "start_time": 89.14318181818182,
                "end_time": 89.3090909090909,
                "pitch": 60,
                "velocity": 64,
                "duration": 0.16590909090908212,
                "tempo": 120.0
            },
            {
                "start_time": 89.34318181818182,
                "end_time": 89.5090909090909,
                "pitch": 62,
                "velocity": 64,
                "duration": 0.16590909090908212,
                "tempo": 120.0
            },
            {
                "start_time": 89.54318181818181,
                "end_time": 89.7090909090909,
                "pitch": 59,
                "velocity": 64,
                "duration": 0.16590909090909634,
                "tempo": 120.0
            },
            {
                "start_time": 89.94318181818181,
                "end_time": 90.31363636363636,
                "pitch": 57,
                "velocity": 64,
                "duration": 0.3704545454545496,
                "tempo": 120.0
            },
            {
                "start_time": 90.35,
                "end_time": 90.51590909090909,
                "pitch": 55,
                "velocity": 64,
                "duration": 0.16590909090909634,
                "tempo": 120.0
            },
            {
                "start_time": 90.55227272727272,
                "end_time": 90.72045454545454,
                "pitch": 57,
                "velocity": 64,
                "duration": 0.16818181818182154,
                "tempo": 120.0
            },
            {
                "start_time": 90.75454545454545,
                "end_time": 90.92272727272727,
                "pitch": 52,
                "velocity": 64,
                "duration": 0.16818181818182154,
                "tempo": 120.0
            },
            {
                "start_time": 90.95681818181818,
                "end_time": 91.125,
                "pitch": 55,
                "velocity": 64,
                "duration": 0.16818181818182154,
                "tempo": 120.0
            },
            {
                "start_time": 91.16136363636363,
                "end_time": 91.32727272727273,
                "pitch": 48,
                "velocity": 64,
                "duration": 0.16590909090909634,
                "tempo": 120.0
            },
            {
                "start_time": 91.56590909090909,
                "end_time": 92.52954545454546,
                "pitch": 45,
                "velocity": 64,
                "duration": 0.9636363636363683,
                "tempo": 120.0
            },
            {
                "start_time": 92.56590909090909,
                "end_time": 93.3340909090909,
                "pitch": 74,
                "velocity": 64,
                "duration": 0.7681818181818159,
                "tempo": 120.0
            },
            {
                "start_time": 93.37045454545454,
                "end_time": 94.14318181818182,
                "pitch": 74,
                "velocity": 64,
                "duration": 0.7727272727272805,
                "tempo": 120.0
            },
            {
                "start_time": 94.17954545454545,
                "end_time": 94.75227272727273,
                "pitch": 71,
                "velocity": 64,
                "duration": 0.5727272727272776,
                "tempo": 120.0
            },
            {
                "start_time": 94.78863636363636,
                "end_time": 95.35227272727272,
                "pitch": 74,
                "velocity": 64,
                "duration": 0.5636363636363626,
                "tempo": 120.0
            },
            {
                "start_time": 99.00227272727273,
                "end_time": 99.57272727272726,
                "pitch": 74,
                "velocity": 64,
                "duration": 0.5704545454545382,
                "tempo": 120.0
            },
            {
                "start_time": 99.60909090909091,
                "end_time": 101.59545454545454,
                "pitch": 78,
                "velocity": 64,
                "duration": 1.9863636363636346,
                "tempo": 120.0
            },
            {
                "start_time": 102.23181818181817,
                "end_time": 102.79545454545455,
                "pitch": 81,
                "velocity": 64,
                "duration": 0.5636363636363768,
                "tempo": 120.0
            },
            {
                "start_time": 102.83181818181818,
                "end_time": 103.39545454545454,
                "pitch": 81,
                "velocity": 64,
                "duration": 0.5636363636363626,
                "tempo": 120.0
            },
            {
                "start_time": 103.43181818181817,
                "end_time": 103.99545454545454,
                "pitch": 74,
                "velocity": 64,
                "duration": 0.5636363636363626,
                "tempo": 120.0
            },
            {
                "start_time": 104.02954545454546,
                "end_time": 104.59772727272727,
                "pitch": 74,
                "velocity": 64,
                "duration": 0.568181818181813,
                "tempo": 120.0
            },
            {
                "start_time": 104.6340909090909,
                "end_time": 104.8,
                "pitch": 67,
                "velocity": 64,
                "duration": 0.16590909090909634,
                "tempo": 120.0
            },
            {
                "start_time": 104.83636363636363,
                "end_time": 105.00454545454545,
                "pitch": 69,
                "velocity": 64,
                "duration": 0.16818181818182154,
                "tempo": 120.0
            },
            {
                "start_time": 105.03863636363636,
                "end_time": 105.20681818181818,
                "pitch": 64,
                "velocity": 64,
                "duration": 0.16818181818182154,
                "tempo": 120.0
            },
            {
                "start_time": 105.24090909090908,
                "end_time": 105.4090909090909,
                "pitch": 67,
                "velocity": 64,
                "duration": 0.16818181818182154,
                "tempo": 120.0
            },
            {
                "start_time": 105.64772727272727,
                "end_time": 105.81363636363636,
                "pitch": 60,
                "velocity": 64,
                "duration": 0.16590909090909634,
                "tempo": 120.0
            },
            {
                "start_time": 106.05454545454545,
                "end_time": 107.01818181818182,
                "pitch": 57,
                "velocity": 64,
                "duration": 0.9636363636363683,
                "tempo": 120.0
            },
            {
                "start_time": 107.05227272727272,
                "end_time": 107.81818181818181,
                "pitch": 74,
                "velocity": 64,
                "duration": 0.7659090909090907,
                "tempo": 120.0
            },
            {
                "start_time": 107.85454545454544,
                "end_time": 108.61818181818181,
                "pitch": 74,
                "velocity": 64,
                "duration": 0.7636363636363654,
                "tempo": 120.0
            },
            {
                "start_time": 108.65227272727272,
                "end_time": 109.21818181818182,
                "pitch": 71,
                "velocity": 64,
                "duration": 0.565909090909102,
                "tempo": 120.0
            },
            {
                "start_time": 109.25454545454545,
                "end_time": 109.82499999999999,
                "pitch": 74,
                "velocity": 64,
                "duration": 0.5704545454545382,
                "tempo": 120.0
            },
            {
                "start_time": 113.475,
                "end_time": 114.03863636363636,
                "pitch": 74,
                "velocity": 64,
                "duration": 0.5636363636363626,
                "tempo": 120.0
            },
            {
                "start_time": 114.07499999999999,
                "end_time": 116.06136363636364,
                "pitch": 78,
                "velocity": 64,
                "duration": 1.9863636363636488,
                "tempo": 120.0
            },
            {
                "start_time": 116.69545454545454,
                "end_time": 117.26136363636363,
                "pitch": 81,
                "velocity": 64,
                "duration": 0.5659090909090878,
                "tempo": 120.0
            },
            {
                "start_time": 117.29545454545455,
                "end_time": 117.46363636363635,
                "pitch": 81,
                "velocity": 64,
                "duration": 0.16818181818180733,
                "tempo": 120.0
            },
            {
                "start_time": 117.70227272727273,
                "end_time": 117.86818181818181,
                "pitch": 74,
                "velocity": 64,
                "duration": 0.16590909090908212,
                "tempo": 120.0
            },
            {
                "start_time": 118.10681818181817,
                "end_time": 118.88181818181818,
                "pitch": 74,
                "velocity": 64,
                "duration": 0.7750000000000057,
                "tempo": 120.0
            },
            {
                "start_time": 119.11818181818181,
                "end_time": 119.28181818181818,
                "pitch": 67,
                "velocity": 64,
                "duration": 0.16363636363637113,
                "tempo": 120.0
            },
            {
                "start_time": 119.31818181818181,
                "end_time": 119.48181818181817,
                "pitch": 69,
                "velocity": 64,
                "duration": 0.16363636363635692,
                "tempo": 120.0
            },
            {
                "start_time": 119.51818181818182,
                "end_time": 119.68181818181817,
                "pitch": 64,
                "velocity": 64,
                "duration": 0.16363636363635692,
                "tempo": 120.0
            },
            {
                "start_time": 119.71818181818182,
                "end_time": 119.88181818181818,
                "pitch": 67,
                "velocity": 64,
                "duration": 0.16363636363635692,
                "tempo": 120.0
            },
            {
                "start_time": 120.11818181818181,
                "end_time": 120.28181818181818,
                "pitch": 60,
                "velocity": 64,
                "duration": 0.16363636363637113,
                "tempo": 120.0
            },
            {
                "start_time": 120.51818181818182,
                "end_time": 121.5090909090909,
                "pitch": 57,
                "velocity": 64,
                "duration": 0.990909090909085,
                "tempo": 120.0
            },
            {
                "start_time": 121.54545454545453,
                "end_time": 122.32499999999999,
                "pitch": 74,
                "velocity": 64,
                "duration": 0.7795454545454561,
                "tempo": 120.0
            },
            {
                "start_time": 122.36136363636363,
                "end_time": 123.125,
                "pitch": 74,
                "velocity": 64,
                "duration": 0.7636363636363654,
                "tempo": 120.0
            },
            {
                "start_time": 123.1590909090909,
                "end_time": 123.725,
                "pitch": 71,
                "velocity": 64,
                "duration": 0.5659090909090878,
                "tempo": 120.0
            },
            {
                "start_time": 123.76136363636363,
                "end_time": 124.32499999999999,
                "pitch": 74,
                "velocity": 64,
                "duration": 0.5636363636363626,
                "tempo": 120.0
            },
            {
                "start_time": 127.98181818181817,
                "end_time": 128.54772727272726,
                "pitch": 74,
                "velocity": 64,
                "duration": 0.5659090909090878,
                "tempo": 120.0
            },
            {
                "start_time": 128.58181818181816,
                "end_time": 130.5681818181818,
                "pitch": 78,
                "velocity": 64,
                "duration": 1.9863636363636488,
                "tempo": 120.0
            },
            {
                "start_time": 131.20454545454544,
                "end_time": 131.7681818181818,
                "pitch": 81,
                "velocity": 64,
                "duration": 0.5636363636363626,
                "tempo": 120.0
            },
            {
                "start_time": 131.80454545454546,
                "end_time": 132.36818181818182,
                "pitch": 81,
                "velocity": 64,
                "duration": 0.5636363636363626,
                "tempo": 120.0
            },
            {
                "start_time": 132.40227272727273,
                "end_time": 132.96818181818182,
                "pitch": 74,
                "velocity": 64,
                "duration": 0.5659090909090878,
                "tempo": 120.0
            },
            {
                "start_time": 133.00227272727273,
                "end_time": 133.57045454545454,
                "pitch": 74,
                "velocity": 64,
                "duration": 0.568181818181813,
                "tempo": 120.0
            },
            {
                "start_time": 133.60681818181817,
                "end_time": 133.77272727272725,
                "pitch": 67,
                "velocity": 64,
                "duration": 0.16590909090908212,
                "tempo": 120.0
            },
            {
                "start_time": 133.8090909090909,
                "end_time": 133.97727272727272,
                "pitch": 69,
                "velocity": 64,
                "duration": 0.16818181818180733,
                "tempo": 120.0
            },
            {
                "start_time": 134.01136363636363,
                "end_time": 134.17954545454546,
                "pitch": 64,
                "velocity": 64,
                "duration": 0.16818181818183575,
                "tempo": 120.0
            },
            {
                "start_time": 134.21363636363637,
                "end_time": 134.38181818181818,
                "pitch": 67,
                "velocity": 64,
                "duration": 0.16818181818180733,
                "tempo": 120.0
            },
            {
                "start_time": 134.62045454545455,
                "end_time": 134.78636363636363,
                "pitch": 60,
                "velocity": 64,
                "duration": 0.16590909090908212,
                "tempo": 120.0
            },
            {
                "start_time": 135.025,
                "end_time": 135.99090909090907,
                "pitch": 57,
                "velocity": 64,
                "duration": 0.9659090909090651,
                "tempo": 120.0
            },
            {
                "start_time": 136.025,
                "end_time": 136.7931818181818,
                "pitch": 74,
                "velocity": 64,
                "duration": 0.7681818181818016,
                "tempo": 120.0
            },
            {
                "start_time": 136.83181818181816,
                "end_time": 137.61590909090907,
                "pitch": 74,
                "velocity": 64,
                "duration": 0.7840909090909065,
                "tempo": 120.0
            },
            {
                "start_time": 137.65227272727273,
                "end_time": 138.23181818181817,
                "pitch": 71,
                "velocity": 64,
                "duration": 0.579545454545439,
                "tempo": 120.0
            },
            {
                "start_time": 138.27045454545453,
                "end_time": 138.8340909090909,
                "pitch": 74,
                "velocity": 64,
                "duration": 0.5636363636363626,
                "tempo": 120.0
            },
            {
                "start_time": 142.6840909090909,
                "end_time": 143.25454545454545,
                "pitch": 77,
                "velocity": 64,
                "duration": 0.5704545454545382,
                "tempo": 120.0
            },
            {
                "start_time": 143.29090909090908,
                "end_time": 144.85681818181817,
                "pitch": 76,
                "velocity": 64,
                "duration": 1.5659090909090878,
                "tempo": 120.0
            },
            {
                "start_time": 145.7022727272727,
                "end_time": 146.275,
                "pitch": 79,
                "velocity": 64,
                "duration": 0.5727272727272918,
                "tempo": 120.0
            },
            {
                "start_time": 146.31136363636364,
                "end_time": 146.47954545454544,
                "pitch": 79,
                "velocity": 64,
                "duration": 0.16818181818180733,
                "tempo": 120.0
            },
            {
                "start_time": 146.7159090909091,
                "end_time": 147.89772727272725,
                "pitch": 78,
                "velocity": 64,
                "duration": 1.1818181818181586,
                "tempo": 120.0
            },
            {
                "start_time": 147.9340909090909,
                "end_time": 150.1431818181818,
                "pitch": 80,
                "velocity": 64,
                "duration": 2.2090909090908895,
                "tempo": 120.0
            },
            {
                "start_time": 150.1818181818182,
                "end_time": 150.36590909090907,
                "pitch": 75,
                "velocity": 64,
                "duration": 0.18409090909088377,
                "tempo": 120.0
            },
            {
                "start_time": 150.40681818181818,
                "end_time": 150.5909090909091,
                "pitch": 78,
                "velocity": 64,
                "duration": 0.1840909090909122,
                "tempo": 120.0
            },
            {
                "start_time": 150.85227272727272,
                "end_time": 151.03863636363636,
                "pitch": 78,
                "velocity": 64,
                "duration": 0.1863636363636374,
                "tempo": 120.0
            },
            {
                "start_time": 151.3022727272727,
                "end_time": 153.11363636363635,
                "pitch": 78,
                "velocity": 64,
                "duration": 1.8113636363636374,
                "tempo": 120.0
            },
            {
                "start_time": 153.14772727272725,
                "end_time": 153.71363636363637,
                "pitch": 78,
                "velocity": 64,
                "duration": 0.5659090909091162,
                "tempo": 120.0
            },
            {
                "start_time": 153.74772727272727,
                "end_time": 154.51363636363635,
                "pitch": 78,
                "velocity": 64,
                "duration": 0.7659090909090764,
                "tempo": 120.0
            },
            {
                "start_time": 154.54772727272726,
                "end_time": 156.71363636363637,
                "pitch": 78,
                "velocity": 64,
                "duration": 2.1659090909091105,
                "tempo": 120.0
            },
            {
                "start_time": 156.94772727272726,
                "end_time": 158.72272727272727,
                "pitch": 80,
                "velocity": 64,
                "duration": 1.7750000000000057,
                "tempo": 120.0
            },
            {
                "start_time": 158.7590909090909,
                "end_time": 158.92499999999998,
                "pitch": 75,
                "velocity": 64,
                "duration": 0.16590909090908212,
                "tempo": 120.0
            },
            {
                "start_time": 159.36818181818182,
                "end_time": 160.5340909090909,
                "pitch": 73,
                "velocity": 64,
                "duration": 1.1659090909090821,
                "tempo": 120.0
            },
            {
                "start_time": 160.7681818181818,
                "end_time": 161.1340909090909,
                "pitch": 73,
                "velocity": 64,
                "duration": 0.3659090909090992,
                "tempo": 120.0
            },
            {
                "start_time": 161.17045454545453,
                "end_time": 162.14772727272725,
                "pitch": 72,
                "velocity": 64,
                "duration": 0.9772727272727195,
                "tempo": 120.0
            },
            {
                "start_time": 162.1818181818182,
                "end_time": 162.75681818181818,
                "pitch": 72,
                "velocity": 64,
                "duration": 0.5749999999999886,
                "tempo": 120.0
            },
            {
                "start_time": 162.79090909090908,
                "end_time": 163.35681818181817,
                "pitch": 76,
                "velocity": 64,
                "duration": 0.5659090909090878,
                "tempo": 120.0
            },
            {
                "start_time": 163.39090909090908,
                "end_time": 163.75681818181818,
                "pitch": 76,
                "velocity": 64,
                "duration": 0.3659090909090992,
                "tempo": 120.0
            },
            {
                "start_time": 163.79090909090908,
                "end_time": 164.35681818181817,
                "pitch": 72,
                "velocity": 64,
                "duration": 0.5659090909090878,
                "tempo": 120.0
            },
            {
                "start_time": 164.39090909090908,
                "end_time": 165.95681818181816,
                "pitch": 79,
                "velocity": 64,
                "duration": 1.5659090909090878,
                "tempo": 120.0
            },
            {
                "start_time": 165.99090909090907,
                "end_time": 166.5568181818182,
                "pitch": 76,
                "velocity": 64,
                "duration": 0.5659090909091162,
                "tempo": 120.0
            },
            {
                "start_time": 166.5909090909091,
                "end_time": 166.95681818181816,
                "pitch": 76,
                "velocity": 64,
                "duration": 0.36590909090907076,
                "tempo": 120.0
            },
            {
                "start_time": 166.99090909090907,
                "end_time": 167.5568181818182,
                "pitch": 76,
                "velocity": 64,
                "duration": 0.5659090909091162,
                "tempo": 120.0
            },
            {
                "start_time": 167.5909090909091,
                "end_time": 168.975,
                "pitch": 79,
                "velocity": 64,
                "duration": 1.3840909090909008,
                "tempo": 120.0
            },
            {
                "start_time": 169.01136363636363,
                "end_time": 170.59545454545454,
                "pitch": 81,
                "velocity": 64,
                "duration": 1.5840909090909179,
                "tempo": 120.0
            },
            {
                "start_time": 170.63181818181818,
                "end_time": 173.76363636363635,
                "pitch": 83,
                "velocity": 64,
                "duration": 3.1318181818181756,
                "tempo": 120.0
            },
            {
                "start_time": 173.79772727272726,
                "end_time": 173.94772727272726,
                "pitch": 86,
                "velocity": 64,
                "duration": 0.15000000000000568,
                "tempo": 120.0
            },
            {
                "start_time": 174.16363636363636,
                "end_time": 174.31363636363636,
                "pitch": 67,
                "velocity": 64,
                "duration": 0.15000000000000568,
                "tempo": 120.0
            },
            {
                "start_time": 174.34545454545454,
                "end_time": 174.49772727272727,
                "pitch": 69,
                "velocity": 64,
                "duration": 0.1522727272727309,
                "tempo": 120.0
            },
            {
                "start_time": 174.52954545454546,
                "end_time": 174.67954545454543,
                "pitch": 64,
                "velocity": 64,
                "duration": 0.14999999999997726,
                "tempo": 120.0
            },
            {
                "start_time": 174.71136363636361,
                "end_time": 174.86363636363635,
                "pitch": 67,
                "velocity": 64,
                "duration": 0.1522727272727309,
                "tempo": 120.0
            },
            {
                "start_time": 174.89545454545453,
                "end_time": 175.04545454545453,
                "pitch": 60,
                "velocity": 64,
                "duration": 0.15000000000000568,
                "tempo": 120.0
            },
            {
                "start_time": 175.26136363636363,
                "end_time": 175.62727272727273,
                "pitch": 57,
                "velocity": 64,
                "duration": 0.3659090909090992,
                "tempo": 120.0
            },
            {
                "start_time": 175.66136363636363,
                "end_time": 175.8272727272727,
                "pitch": 62,
                "velocity": 64,
                "duration": 0.16590909090908212,
                "tempo": 120.0
            },
            {
                "start_time": 175.86136363636362,
                "end_time": 176.02727272727273,
                "pitch": 64,
                "velocity": 64,
                "duration": 0.16590909090911055,
                "tempo": 120.0
            },
            {
                "start_time": 176.06136363636364,
                "end_time": 176.22727272727272,
                "pitch": 60,
                "velocity": 64,
                "duration": 0.16590909090908212,
                "tempo": 120.0
            },
            {
                "start_time": 176.26136363636363,
                "end_time": 176.4272727272727,
                "pitch": 62,
                "velocity": 64,
                "duration": 0.16590909090908212,
                "tempo": 120.0
            },
            {
                "start_time": 176.46136363636361,
                "end_time": 176.62727272727273,
                "pitch": 59,
                "velocity": 64,
                "duration": 0.16590909090911055,
                "tempo": 120.0
            },
            {
                "start_time": 176.86136363636362,
                "end_time": 177.22727272727272,
                "pitch": 57,
                "velocity": 64,
                "duration": 0.3659090909090992,
                "tempo": 120.0
            },
            {
                "start_time": 177.26136363636363,
                "end_time": 177.4272727272727,
                "pitch": 55,
                "velocity": 64,
                "duration": 0.16590909090908212,
                "tempo": 120.0
            },
            {
                "start_time": 177.46136363636361,
                "end_time": 177.62727272727273,
                "pitch": 57,
                "velocity": 64,
                "duration": 0.16590909090911055,
                "tempo": 120.0
            },
            {
                "start_time": 177.66136363636363,
                "end_time": 177.8272727272727,
                "pitch": 52,
                "velocity": 64,
                "duration": 0.16590909090908212,
                "tempo": 120.0
            },
            {
                "start_time": 177.86136363636362,
                "end_time": 178.02727272727273,
                "pitch": 55,
                "velocity": 64,
                "duration": 0.16590909090911055,
                "tempo": 120.0
            },
            {
                "start_time": 178.06136363636364,
                "end_time": 178.22727272727272,
                "pitch": 48,
                "velocity": 64,
                "duration": 0.16590909090908212,
                "tempo": 120.0
            },
            {
                "start_time": 178.46136363636361,
                "end_time": 179.4272727272727,
                "pitch": 45,
                "velocity": 64,
                "duration": 0.9659090909090935,
                "tempo": 120.0
            }
        ],
        "Lead 2 (sawtooth)": [
            {
                "start_time": 0.0,
                "end_time": 0.19545454545454544,
                "pitch": 64,
                "velocity": 64,
                "duration": 0.19545454545454544,
                "tempo": 120.0
            },
            {
                "start_time": 5.954545454545454,
                "end_time": 5.961363636363636,
                "pitch": 76,
                "velocity": 64,
                "duration": 0.006818181818181834,
                "tempo": 120.0
            },
            {
                "start_time": 5.961363636363636,
                "end_time": 6.143181818181818,
                "pitch": 76,
                "velocity": 64,
                "duration": 0.18181818181818166,
                "tempo": 120.0
            },
            {
                "start_time": 6.181818181818182,
                "end_time": 6.345454545454545,
                "pitch": 79,
                "velocity": 64,
                "duration": 0.16363636363636314,
                "tempo": 120.0
            },
            {
                "start_time": 6.381818181818182,
                "end_time": 6.545454545454545,
                "pitch": 76,
                "velocity": 64,
                "duration": 0.16363636363636314,
                "tempo": 120.0
            },
            {
                "start_time": 6.579545454545454,
                "end_time": 7.745454545454545,
                "pitch": 83,
                "velocity": 64,
                "duration": 1.165909090909091,
                "tempo": 120.0
            },
            {
                "start_time": 7.781818181818181,
                "end_time": 7.947727272727272,
                "pitch": 81,
                "velocity": 64,
                "duration": 0.165909090909091,
                "tempo": 120.0
            },
            {
                "start_time": 7.9840909090909085,
                "end_time": 8.15,
                "pitch": 79,
                "velocity": 64,
                "duration": 0.1659090909090919,
                "tempo": 120.0
            },
            {
                "start_time": 8.388636363636364,
                "end_time": 9.568181818181818,
                "pitch": 78,
                "velocity": 64,
                "duration": 1.1795454545454547,
                "tempo": 120.0
            },
            {
                "start_time": 9.602272727272727,
                "end_time": 9.768181818181818,
                "pitch": 74,
                "velocity": 64,
                "duration": 0.165909090909091,
                "tempo": 120.0
            },
            {
                "start_time": 9.802272727272726,
                "end_time": 10.768181818181818,
                "pitch": 69,
                "velocity": 64,
                "duration": 0.9659090909090917,
                "tempo": 120.0
            },
            {
                "start_time": 10.802272727272726,
                "end_time": 11.368181818181817,
                "pitch": 76,
                "velocity": 64,
                "duration": 0.5659090909090914,
                "tempo": 120.0
            },
            {
                "start_time": 11.402272727272727,
                "end_time": 11.568181818181818,
                "pitch": 74,
                "velocity": 64,
                "duration": 0.165909090909091,
                "tempo": 120.0
            },
            {
                "start_time": 11.802272727272726,
                "end_time": 11.968181818181817,
                "pitch": 72,
                "velocity": 64,
                "duration": 0.165909090909091,
                "tempo": 120.0
            },
            {
                "start_time": 12.202272727272726,
                "end_time": 13.986363636363636,
                "pitch": 69,
                "velocity": 64,
                "duration": 1.78409090909091,
                "tempo": 120.0
            },
            {
                "start_time": 14.020454545454545,
                "end_time": 14.388636363636364,
                "pitch": 67,
                "velocity": 64,
                "duration": 0.36818181818181905,
                "tempo": 120.0
            },
            {
                "start_time": 14.422727272727272,
                "end_time": 14.588636363636363,
                "pitch": 69,
                "velocity": 64,
                "duration": 0.165909090909091,
                "tempo": 120.0
            },
            {
                "start_time": 14.625,
                "end_time": 15.588636363636363,
                "pitch": 72,
                "velocity": 64,
                "duration": 0.963636363636363,
                "tempo": 120.0
            },
            {
                "start_time": 15.622727272727271,
                "end_time": 16.188636363636363,
                "pitch": 76,
                "velocity": 64,
                "duration": 0.5659090909090914,
                "tempo": 120.0
            },
            {
                "start_time": 16.224999999999998,
                "end_time": 17.99772727272727,
                "pitch": 74,
                "velocity": 64,
                "duration": 1.7727272727272734,
                "tempo": 120.0
            },
            {
                "start_time": 20.445454545454545,
                "end_time": 20.611363636363635,
                "pitch": 76,
                "velocity": 64,
                "duration": 0.16590909090908923,
                "tempo": 120.0
            },
            {
                "start_time": 20.645454545454545,
                "end_time": 20.811363636363634,
                "pitch": 79,
                "velocity": 64,
                "duration": 0.16590909090908923,
                "tempo": 120.0
            },
            {
                "start_time": 20.845454545454544,
                "end_time": 21.011363636363637,
                "pitch": 76,
                "velocity": 64,
                "duration": 0.16590909090909278,
                "tempo": 120.0
            },
            {
                "start_time": 21.045454545454543,
                "end_time": 22.211363636363636,
                "pitch": 83,
                "velocity": 64,
                "duration": 1.1659090909090928,
                "tempo": 120.0
            },
            {
                "start_time": 22.245454545454546,
                "end_time": 22.413636363636364,
                "pitch": 81,
                "velocity": 64,
                "duration": 0.168181818181818,
                "tempo": 120.0
            },
            {
                "start_time": 22.44772727272727,
                "end_time": 22.818181818181817,
                "pitch": 79,
                "velocity": 64,
                "duration": 0.37045454545454604,
                "tempo": 120.0
            },
            {
                "start_time": 22.854545454545452,
                "end_time": 24.034090909090907,
                "pitch": 78,
                "velocity": 64,
                "duration": 1.1795454545454547,
                "tempo": 120.0
            },
            {
                "start_time": 24.070454545454545,
                "end_time": 24.236363636363635,
                "pitch": 74,
                "velocity": 64,
                "duration": 0.16590909090908923,
                "tempo": 120.0
            },
            {
                "start_time": 24.27272727272727,
                "end_time": 25.25,
                "pitch": 76,
                "velocity": 64,
                "duration": 0.9772727272727302,
                "tempo": 120.0
            },
            {
                "start_time": 25.286363636363635,
                "end_time": 25.454545454545453,
                "pitch": 76,
                "velocity": 64,
                "duration": 0.168181818181818,
                "tempo": 120.0
            },
            {
                "start_time": 25.488636363636363,
                "end_time": 25.65681818181818,
                "pitch": 74,
                "velocity": 64,
                "duration": 0.168181818181818,
                "tempo": 120.0
            },
            {
                "start_time": 25.69090909090909,
                "end_time": 25.85909090909091,
                "pitch": 72,
                "velocity": 64,
                "duration": 0.168181818181818,
                "tempo": 120.0
            },
            {
                "start_time": 25.893181818181816,
                "end_time": 26.468181818181815,
                "pitch": 76,
                "velocity": 64,
                "duration": 0.5749999999999993,
                "tempo": 120.0
            },
            {
                "start_time": 26.502272727272725,
                "end_time": 28.474999999999998,
                "pitch": 74,
                "velocity": 64,
                "duration": 1.9727272727272727,
                "tempo": 120.0
            },
            {
                "start_time": 28.511363636363637,
                "end_time": 28.674999999999997,
                "pitch": 69,
                "velocity": 64,
                "duration": 0.16363636363636047,
                "tempo": 120.0
            },
            {
                "start_time": 28.711363636363636,
                "end_time": 28.877272727272725,
                "pitch": 72,
                "velocity": 64,
                "duration": 0.16590909090908923,
                "tempo": 120.0
            },
            {
                "start_time": 28.91363636363636,
                "end_time": 29.081818181818182,
                "pitch": 69,
                "velocity": 64,
                "duration": 0.16818181818182154,
                "tempo": 120.0
            },
            {
                "start_time": 29.11590909090909,
                "end_time": 29.688636363636363,
                "pitch": 75,
                "velocity": 64,
                "duration": 0.5727272727272741,
                "tempo": 120.0
            },
            {
                "start_time": 29.724999999999998,
                "end_time": 30.093181818181815,
                "pitch": 74,
                "velocity": 64,
                "duration": 0.3681818181818173,
                "tempo": 120.0
            },
            {
                "start_time": 30.129545454545454,
                "end_time": 30.49772727272727,
                "pitch": 72,
                "velocity": 64,
                "duration": 0.3681818181818173,
                "tempo": 120.0
            },
            {
                "start_time": 30.534090909090907,
                "end_time": 30.69772727272727,
                "pitch": 69,
                "velocity": 64,
                "duration": 0.16363636363636402,
                "tempo": 120.0
            },
            {
                "start_time": 30.73409090909091,
                "end_time": 30.89772727272727,
                "pitch": 72,
                "velocity": 64,
                "duration": 0.16363636363636047,
                "tempo": 120.0
            },
            {
                "start_time": 31.13181818181818,
                "end_time": 32.50454545454545,
                "pitch": 69,
                "velocity": 64,
                "duration": 1.3727272727272712,
                "tempo": 120.0
            },
            {
                "start_time": 34.97272727272727,
                "end_time": 35.14090909090909,
                "pitch": 76,
                "velocity": 64,
                "duration": 0.16818181818182154,
                "tempo": 120.0
            },
            {
                "start_time": 35.175,
                "end_time": 35.34318181818182,
                "pitch": 79,
                "velocity": 64,
                "duration": 0.16818181818182154,
                "tempo": 120.0
            },
            {
                "start_time": 35.37954545454545,
                "end_time": 35.54545454545455,
                "pitch": 76,
                "velocity": 64,
                "duration": 0.16590909090909634,
                "tempo": 120.0
            },
            {
                "start_time": 35.58181818181818,
                "end_time": 36.76136363636363,
                "pitch": 83,
                "velocity": 64,
                "duration": 1.1795454545454547,
                "tempo": 120.0
            },
            {
                "start_time": 36.79772727272727,
                "end_time": 36.961363636363636,
                "pitch": 81,
                "velocity": 64,
                "duration": 0.16363636363636402,
                "tempo": 120.0
            },
            {
                "start_time": 36.99772727272727,
                "end_time": 37.16136363636363,
                "pitch": 79,
                "velocity": 64,
                "duration": 0.16363636363636402,
                "tempo": 120.0
            },
            {
                "start_time": 37.39772727272727,
                "end_time": 38.768181818181816,
                "pitch": 78,
                "velocity": 64,
                "duration": 1.3704545454545425,
                "tempo": 120.0
            },
            {
                "start_time": 38.80227272727272,
                "end_time": 39.375,
                "pitch": 86,
                "velocity": 64,
                "duration": 0.5727272727272776,
                "tempo": 120.0
            },
            {
                "start_time": 39.81590909090909,
                "end_time": 40.38863636363636,
                "pitch": 88,
                "velocity": 64,
                "duration": 0.5727272727272705,
                "tempo": 120.0
            },
            {
                "start_time": 40.425,
                "end_time": 40.590909090909086,
                "pitch": 86,
                "velocity": 64,
                "duration": 0.16590909090908923,
                "tempo": 120.0
            },
            {
                "start_time": 40.82954545454545,
                "end_time": 40.99772727272727,
                "pitch": 84,
                "velocity": 64,
                "duration": 0.16818181818181444,
                "tempo": 120.0
            },
            {
                "start_time": 41.23409090909091,
                "end_time": 43.40681818181818,
                "pitch": 81,
                "velocity": 64,
                "duration": 2.172727272727272,
                "tempo": 120.0
            },
            {
                "start_time": 43.44318181818181,
                "end_time": 43.81363636363636,
                "pitch": 79,
                "velocity": 64,
                "duration": 0.3704545454545496,
                "tempo": 120.0
            },
            {
                "start_time": 43.84772727272727,
                "end_time": 44.62272727272727,
                "pitch": 81,
                "velocity": 64,
                "duration": 0.7749999999999986,
                "tempo": 120.0
            },
            {
                "start_time": 44.65909090909091,
                "end_time": 45.22272727272727,
                "pitch": 88,
                "velocity": 64,
                "duration": 0.5636363636363626,
                "tempo": 120.0
            },
            {
                "start_time": 45.25681818181818,
                "end_time": 47.01363636363636,
                "pitch": 86,
                "velocity": 64,
                "duration": 1.7568181818181756,
                "tempo": 120.0
            },
            {
                "start_time": 49.461363636363636,
                "end_time": 49.627272727272725,
                "pitch": 76,
                "velocity": 64,
                "duration": 0.16590909090908923,
                "tempo": 120.0
            },
            {
                "start_time": 49.66136363636363,
                "end_time": 49.82727272727273,
                "pitch": 79,
                "velocity": 64,
                "duration": 0.16590909090909634,
                "tempo": 120.0
            },
            {
                "start_time": 49.861363636363635,
                "end_time": 50.027272727272724,
                "pitch": 76,
                "velocity": 64,
                "duration": 0.16590909090908923,
                "tempo": 120.0
            },
            {
                "start_time": 50.06136363636364,
                "end_time": 51.22727272727273,
                "pitch": 83,
                "velocity": 64,
                "duration": 1.1659090909090892,
                "tempo": 120.0
            },
            {
                "start_time": 51.26363636363636,
                "end_time": 51.429545454545455,
                "pitch": 81,
                "velocity": 64,
                "duration": 0.16590909090909634,
                "tempo": 120.0
            },
            {
                "start_time": 51.465909090909086,
                "end_time": 51.63181818181818,
                "pitch": 79,
                "velocity": 64,
                "duration": 0.16590909090909634,
                "tempo": 120.0
            },
            {
                "start_time": 51.87045454545454,
                "end_time": 53.04772727272727,
                "pitch": 78,
                "velocity": 64,
                "duration": 1.1772727272727295,
                "tempo": 120.0
            },
            {
                "start_time": 53.084090909090904,
                "end_time": 53.24772727272727,
                "pitch": 74,
                "velocity": 64,
                "duration": 0.16363636363636402,
                "tempo": 120.0
            },
            {
                "start_time": 53.28181818181818,
                "end_time": 53.84772727272727,
                "pitch": 69,
                "velocity": 64,
                "duration": 0.5659090909090878,
                "tempo": 120.0
            },
            {
                "start_time": 55.902272727272724,
                "end_time": 56.070454545454545,
                "pitch": 69,
                "velocity": 64,
                "duration": 0.16818181818182154,
                "tempo": 120.0
            },
            {
                "start_time": 56.10454545454545,
                "end_time": 56.27045454545454,
                "pitch": 72,
                "velocity": 64,
                "duration": 0.16590909090908923,
                "tempo": 120.0
            },
            {
                "start_time": 56.50454545454545,
                "end_time": 59.08863636363636,
                "pitch": 76,
                "velocity": 64,
                "duration": 2.5840909090909108,
                "tempo": 120.0
            },
            {
                "start_time": 59.12272727272727,
                "end_time": 59.29090909090909,
                "pitch": 79,
                "velocity": 64,
                "duration": 0.16818181818182154,
                "tempo": 120.0
            },
            {
                "start_time": 59.52954545454545,
                "end_time": 59.69772727272727,
                "pitch": 81,
                "velocity": 64,
                "duration": 0.16818181818182154,
                "tempo": 120.0
            },
            {
                "start_time": 59.934090909090905,
                "end_time": 60.506818181818176,
                "pitch": 83,
                "velocity": 64,
                "duration": 0.5727272727272705,
                "tempo": 120.0
            },
            {
                "start_time": 60.543181818181814,
                "end_time": 61.31818181818181,
                "pitch": 81,
                "velocity": 64,
                "duration": 0.7749999999999986,
                "tempo": 120.0
            },
            {
                "start_time": 61.35227272727273,
                "end_time": 64.52499999999999,
                "pitch": 83,
                "velocity": 64,
                "duration": 3.172727272727265,
                "tempo": 120.0
            },
            {
                "start_time": 64.56363636363636,
                "end_time": 64.93636363636364,
                "pitch": 81,
                "velocity": 64,
                "duration": 0.3727272727272748,
                "tempo": 120.0
            },
            {
                "start_time": 64.97045454545454,
                "end_time": 65.54318181818182,
                "pitch": 80,
                "velocity": 64,
                "duration": 0.5727272727272776,
                "tempo": 120.0
            },
            {
                "start_time": 65.57954545454545,
                "end_time": 66.55227272727272,
                "pitch": 81,
                "velocity": 64,
                "duration": 0.9727272727272691,
                "tempo": 120.0
            },
            {
                "start_time": 66.58636363636363,
                "end_time": 67.15227272727273,
                "pitch": 88,
                "velocity": 64,
                "duration": 0.565909090909102,
                "tempo": 120.0
            },
            {
                "start_time": 67.18636363636364,
                "end_time": 67.75227272727273,
                "pitch": 87,
                "velocity": 64,
                "duration": 0.5659090909090878,
                "tempo": 120.0
            },
            {
                "start_time": 67.78636363636363,
                "end_time": 68.15681818181818,
                "pitch": 88,
                "velocity": 64,
                "duration": 0.3704545454545496,
                "tempo": 120.0
            },
            {
                "start_time": 68.19090909090909,
                "end_time": 68.76590909090909,
                "pitch": 81,
                "velocity": 64,
                "duration": 0.5750000000000028,
                "tempo": 120.0
            },
            {
                "start_time": 68.8,
                "end_time": 72.18863636363636,
                "pitch": 83,
                "velocity": 64,
                "duration": 3.3886363636363654,
                "tempo": 120.0
            },
            {
                "start_time": 72.225,
                "end_time": 72.79545454545455,
                "pitch": 81,
                "velocity": 64,
                "duration": 0.5704545454545524,
                "tempo": 120.0
            },
            {
                "start_time": 72.82954545454545,
                "end_time": 73.79545454545455,
                "pitch": 80,
                "velocity": 64,
                "duration": 0.9659090909090935,
                "tempo": 120.0
            },
            {
                "start_time": 75.44545454545454,
                "end_time": 76.01590909090909,
                "pitch": 79,
                "velocity": 64,
                "duration": 0.5704545454545524,
                "tempo": 120.0
            },
            {
                "start_time": 76.05227272727272,
                "end_time": 76.2159090909091,
                "pitch": 78,
                "velocity": 64,
                "duration": 0.16363636363637113,
                "tempo": 120.0
            },
            {
                "start_time": 76.45227272727273,
                "end_time": 76.61590909090908,
                "pitch": 76,
                "velocity": 64,
                "duration": 0.16363636363635692,
                "tempo": 120.0
            },
            {
                "start_time": 77.85227272727272,
                "end_time": 78.41590909090908,
                "pitch": 83,
                "velocity": 64,
                "duration": 0.5636363636363626,
                "tempo": 120.0
            },
            {
                "start_time": 78.45227272727273,
                "end_time": 78.61590909090908,
                "pitch": 81,
                "velocity": 64,
                "duration": 0.16363636363635692,
                "tempo": 120.0
            },
            {
                "start_time": 78.85,
                "end_time": 79.01590909090909,
                "pitch": 79,
                "velocity": 64,
                "duration": 0.16590909090909634,
                "tempo": 120.0
            },
            {
                "start_time": 79.45681818181818,
                "end_time": 80.02954545454546,
                "pitch": 78,
                "velocity": 64,
                "duration": 0.5727272727272776,
                "tempo": 120.0
            },
            {
                "start_time": 80.06363636363636,
                "end_time": 80.63863636363637,
                "pitch": 79,
                "velocity": 64,
                "duration": 0.5750000000000028,
                "tempo": 120.0
            },
            {
                "start_time": 81.88863636363637,
                "end_time": 82.05681818181817,
                "pitch": 79,
                "velocity": 64,
                "duration": 0.16818181818180733,
                "tempo": 120.0
            },
            {
                "start_time": 82.09318181818182,
                "end_time": 82.2590909090909,
                "pitch": 78,
                "velocity": 64,
                "duration": 0.16590909090908212,
                "tempo": 120.0
            },
            {
                "start_time": 82.29318181818181,
                "end_time": 82.46136363636363,
                "pitch": 76,
                "velocity": 64,
                "duration": 0.16818181818182154,
                "tempo": 120.0
            },
            {
                "start_time": 82.49545454545454,
                "end_time": 83.475,
                "pitch": 81,
                "velocity": 64,
                "duration": 0.9795454545454589,
                "tempo": 120.0
            },
            {
                "start_time": 83.51136363636363,
                "end_time": 83.67954545454545,
                "pitch": 81,
                "velocity": 64,
                "duration": 0.16818181818182154,
                "tempo": 120.0
            },
            {
                "start_time": 83.71363636363635,
                "end_time": 83.88181818181818,
                "pitch": 79,
                "velocity": 64,
                "duration": 0.16818181818182154,
                "tempo": 120.0
            },
            {
                "start_time": 83.91590909090908,
                "end_time": 84.08181818181818,
                "pitch": 78,
                "velocity": 64,
                "duration": 0.16590909090909634,
                "tempo": 120.0
            },
            {
                "start_time": 84.11590909090908,
                "end_time": 85.87045454545454,
                "pitch": 86,
                "velocity": 64,
                "duration": 1.7545454545454504,
                "tempo": 120.0
            },
            {
                "start_time": 86.1,
                "end_time": 86.26136363636363,
                "pitch": 81,
                "velocity": 64,
                "duration": 0.1613636363636317,
                "tempo": 120.0
            },
            {
                "start_time": 86.29318181818181,
                "end_time": 86.45454545454545,
                "pitch": 84,
                "velocity": 64,
                "duration": 0.16136363636364592,
                "tempo": 120.0
            },
            {
                "start_time": 86.48863636363636,
                "end_time": 86.64999999999999,
                "pitch": 81,
                "velocity": 64,
                "duration": 0.1613636363636317,
                "tempo": 120.0
            },
            {
                "start_time": 86.6840909090909,
                "end_time": 86.84545454545454,
                "pitch": 86,
                "velocity": 64,
                "duration": 0.16136363636364592,
                "tempo": 120.0
            },
            {
                "start_time": 86.87954545454545,
                "end_time": 87.02954545454546,
                "pitch": 81,
                "velocity": 64,
                "duration": 0.15000000000000568,
                "tempo": 120.0
            },
            {
                "start_time": 87.24545454545454,
                "end_time": 87.57954545454545,
                "pitch": 88,
                "velocity": 64,
                "duration": 0.3340909090909179,
                "tempo": 120.0
            },
            {
                "start_time": 93.16590909090908,
                "end_time": 93.3340909090909,
                "pitch": 78,
                "velocity": 64,
                "duration": 0.16818181818182154,
                "tempo": 120.0
            },
            {
                "start_time": 93.77272727272727,
                "end_time": 93.94090909090909,
                "pitch": 79,
                "velocity": 64,
                "duration": 0.16818181818182154,
                "tempo": 120.0
            },
            {
                "start_time": 94.17954545454545,
                "end_time": 94.34545454545454,
                "pitch": 81,
                "velocity": 64,
                "duration": 0.16590909090909634,
                "tempo": 120.0
            },
            {
                "start_time": 94.5840909090909,
                "end_time": 95.15227272727272,
                "pitch": 76,
                "velocity": 64,
                "duration": 0.568181818181813,
                "tempo": 120.0
            },
            {
                "start_time": 95.18636363636364,
                "end_time": 95.35227272727272,
                "pitch": 74,
                "velocity": 64,
                "duration": 0.16590909090908212,
                "tempo": 120.0
            },
            {
                "start_time": 96.38636363636363,
                "end_time": 96.55227272727272,
                "pitch": 71,
                "velocity": 64,
                "duration": 0.16590909090909634,
                "tempo": 120.0
            },
            {
                "start_time": 96.58636363636363,
                "end_time": 96.75227272727273,
                "pitch": 72,
                "velocity": 64,
                "duration": 0.16590909090909634,
                "tempo": 120.0
            },
            {
                "start_time": 96.98636363636363,
                "end_time": 97.15227272727272,
                "pitch": 79,
                "velocity": 64,
                "duration": 0.16590909090908212,
                "tempo": 120.0
            },
            {
                "start_time": 97.38636363636363,
                "end_time": 97.55227272727272,
                "pitch": 76,
                "velocity": 64,
                "duration": 0.16590909090909634,
                "tempo": 120.0
            },
            {
                "start_time": 97.78636363636363,
                "end_time": 97.95227272727273,
                "pitch": 81,
                "velocity": 64,
                "duration": 0.16590909090909634,
                "tempo": 120.0
            },
            {
                "start_time": 97.98636363636363,
                "end_time": 100.58636363636363,
                "pitch": 83,
                "velocity": 64,
                "duration": 2.5999999999999943,
                "tempo": 120.0
            },
            {
                "start_time": 100.62272727272727,
                "end_time": 100.78863636363636,
                "pitch": 81,
                "velocity": 64,
                "duration": 0.16590909090908212,
                "tempo": 120.0
            },
            {
                "start_time": 101.02727272727272,
                "end_time": 101.19545454545454,
                "pitch": 84,
                "velocity": 64,
                "duration": 0.16818181818182154,
                "tempo": 120.0
            },
            {
                "start_time": 101.22954545454544,
                "end_time": 101.39545454545454,
                "pitch": 81,
                "velocity": 64,
                "duration": 0.16590909090909634,
                "tempo": 120.0
            },
            {
                "start_time": 101.62954545454545,
                "end_time": 102.19545454545454,
                "pitch": 88,
                "velocity": 64,
                "duration": 0.5659090909090878,
                "tempo": 120.0
            },
            {
                "start_time": 102.23181818181817,
                "end_time": 102.59545454545454,
                "pitch": 86,
                "velocity": 64,
                "duration": 0.36363636363637397,
                "tempo": 120.0
            },
            {
                "start_time": 102.62954545454545,
                "end_time": 102.79545454545455,
                "pitch": 81,
                "velocity": 64,
                "duration": 0.16590909090909634,
                "tempo": 120.0
            },
            {
                "start_time": 102.83181818181818,
                "end_time": 103.19545454545454,
                "pitch": 84,
                "velocity": 64,
                "duration": 0.36363636363635976,
                "tempo": 120.0
            },
            {
                "start_time": 103.22954545454544,
                "end_time": 103.79545454545455,
                "pitch": 88,
                "velocity": 64,
                "duration": 0.565909090909102,
                "tempo": 120.0
            },
            {
                "start_time": 103.82954545454545,
                "end_time": 105.00227272727273,
                "pitch": 86,
                "velocity": 64,
                "duration": 1.172727272727272,
                "tempo": 120.0
            },
            {
                "start_time": 106.05227272727272,
                "end_time": 106.21818181818182,
                "pitch": 78,
                "velocity": 64,
                "duration": 0.16590909090909634,
                "tempo": 120.0
            },
            {
                "start_time": 106.25227272727273,
                "end_time": 106.41818181818181,
                "pitch": 79,
                "velocity": 64,
                "duration": 0.16590909090908212,
                "tempo": 120.0
            },
            {
                "start_time": 106.45227272727273,
                "end_time": 106.61818181818181,
                "pitch": 83,
                "velocity": 64,
                "duration": 0.16590909090908212,
                "tempo": 120.0
            },
            {
                "start_time": 106.65227272727272,
                "end_time": 106.81818181818181,
                "pitch": 86,
                "velocity": 64,
                "duration": 0.16590909090909634,
                "tempo": 120.0
            },
            {
                "start_time": 107.05227272727272,
                "end_time": 107.21818181818182,
                "pitch": 84,
                "velocity": 64,
                "duration": 0.16590909090909634,
                "tempo": 120.0
            },
            {
                "start_time": 107.45227272727273,
                "end_time": 107.61818181818181,
                "pitch": 83,
                "velocity": 64,
                "duration": 0.16590909090908212,
                "tempo": 120.0
            },
            {
                "start_time": 107.65227272727272,
                "end_time": 107.81818181818181,
                "pitch": 86,
                "velocity": 64,
                "duration": 0.16590909090909634,
                "tempo": 120.0
            },
            {
                "start_time": 108.05227272727272,
                "end_time": 108.21818181818182,
                "pitch": 84,
                "velocity": 64,
                "duration": 0.16590909090909634,
                "tempo": 120.0
            },
            {
                "start_time": 109.25227272727273,
                "end_time": 109.42045454545455,
                "pitch": 83,
                "velocity": 64,
                "duration": 0.16818181818182154,
                "tempo": 120.0
            },
            {
                "start_time": 109.45454545454545,
                "end_time": 109.62272727272726,
                "pitch": 84,
                "velocity": 64,
                "duration": 0.16818181818180733,
                "tempo": 120.0
            },
            {
                "start_time": 109.6590909090909,
                "end_time": 109.82499999999999,
                "pitch": 83,
                "velocity": 64,
                "duration": 0.16590909090908212,
                "tempo": 120.0
            },
            {
                "start_time": 109.86136363636363,
                "end_time": 110.02727272727272,
                "pitch": 82,
                "velocity": 64,
                "duration": 0.16590909090908212,
                "tempo": 120.0
            },
            {
                "start_time": 110.06363636363636,
                "end_time": 110.22954545454544,
                "pitch": 81,
                "velocity": 64,
                "duration": 0.16590909090908212,
                "tempo": 120.0
            },
            {
                "start_time": 110.26590909090909,
                "end_time": 110.4340909090909,
                "pitch": 80,
                "velocity": 64,
                "duration": 0.16818181818180733,
                "tempo": 120.0
            },
            {
                "start_time": 110.46818181818182,
                "end_time": 110.63636363636363,
                "pitch": 79,
                "velocity": 64,
                "duration": 0.16818181818180733,
                "tempo": 120.0
            },
            {
                "start_time": 110.67045454545455,
                "end_time": 110.83863636363635,
                "pitch": 78,
                "velocity": 64,
                "duration": 0.16818181818180733,
                "tempo": 120.0
            },
            {
                "start_time": 110.875,
                "end_time": 111.03863636363636,
                "pitch": 76,
                "velocity": 64,
                "duration": 0.16363636363635692,
                "tempo": 120.0
            },
            {
                "start_time": 111.27272727272727,
                "end_time": 111.43863636363636,
                "pitch": 81,
                "velocity": 64,
                "duration": 0.16590909090909634,
                "tempo": 120.0
            },
            {
                "start_time": 112.47272727272727,
                "end_time": 113.03863636363636,
                "pitch": 79,
                "velocity": 64,
                "duration": 0.5659090909090878,
                "tempo": 120.0
            },
            {
                "start_time": 113.07272727272726,
                "end_time": 113.23863636363636,
                "pitch": 78,
                "velocity": 64,
                "duration": 0.16590909090909634,
                "tempo": 120.0
            },
            {
                "start_time": 113.87272727272726,
                "end_time": 114.44318181818181,
                "pitch": 83,
                "velocity": 64,
                "duration": 0.5704545454545524,
                "tempo": 120.0
            },
            {
                "start_time": 114.47727272727272,
                "end_time": 115.6590909090909,
                "pitch": 81,
                "velocity": 64,
                "duration": 1.181818181818187,
                "tempo": 120.0
            },
            {
                "start_time": 115.69545454545454,
                "end_time": 115.86136363636363,
                "pitch": 78,
                "velocity": 64,
                "duration": 0.16590909090909634,
                "tempo": 120.0
            },
            {
                "start_time": 115.89545454545454,
                "end_time": 116.06136363636364,
                "pitch": 79,
                "velocity": 64,
                "duration": 0.16590909090909634,
                "tempo": 120.0
            },
            {
                "start_time": 116.29545454545455,
                "end_time": 116.86136363636363,
                "pitch": 88,
                "velocity": 64,
                "duration": 0.5659090909090878,
                "tempo": 120.0
            },
            {
                "start_time": 116.89545454545454,
                "end_time": 119.48181818181817,
                "pitch": 86,
                "velocity": 64,
                "duration": 2.586363636363629,
                "tempo": 120.0
            },
            {
                "start_time": 120.51818181818182,
                "end_time": 120.68636363636364,
                "pitch": 78,
                "velocity": 64,
                "duration": 0.16818181818182154,
                "tempo": 120.0
            },
            {
                "start_time": 120.72272727272727,
                "end_time": 120.89090909090909,
                "pitch": 79,
                "velocity": 64,
                "duration": 0.16818181818182154,
                "tempo": 120.0
            },
            {
                "start_time": 120.92727272727272,
                "end_time": 121.09772727272727,
                "pitch": 78,
                "velocity": 64,
                "duration": 0.17045454545454675,
                "tempo": 120.0
            },
            {
                "start_time": 121.13181818181818,
                "end_time": 121.30227272727272,
                "pitch": 76,
                "velocity": 64,
                "duration": 0.17045454545454675,
                "tempo": 120.0
            },
            {
                "start_time": 121.33863636363635,
                "end_time": 121.5090909090909,
                "pitch": 74,
                "velocity": 64,
                "duration": 0.17045454545454675,
                "tempo": 120.0
            },
            {
                "start_time": 121.54318181818181,
                "end_time": 121.71363636363635,
                "pitch": 72,
                "velocity": 64,
                "duration": 0.17045454545454675,
                "tempo": 120.0
            },
            {
                "start_time": 121.75,
                "end_time": 121.91818181818181,
                "pitch": 71,
                "velocity": 64,
                "duration": 0.16818181818180733,
                "tempo": 120.0
            },
            {
                "start_time": 121.95454545454545,
                "end_time": 122.125,
                "pitch": 74,
                "velocity": 64,
                "duration": 0.17045454545454675,
                "tempo": 120.0
            },
            {
                "start_time": 122.16136363636363,
                "end_time": 122.32499999999999,
                "pitch": 72,
                "velocity": 64,
                "duration": 0.16363636363635692,
                "tempo": 120.0
            },
            {
                "start_time": 122.5590909090909,
                "end_time": 122.725,
                "pitch": 69,
                "velocity": 64,
                "duration": 0.16590909090909634,
                "tempo": 120.0
            },
            {
                "start_time": 123.76136363636363,
                "end_time": 123.925,
                "pitch": 69,
                "velocity": 64,
                "duration": 0.16363636363637113,
                "tempo": 120.0
            },
            {
                "start_time": 123.96136363636363,
                "end_time": 124.125,
                "pitch": 72,
                "velocity": 64,
                "duration": 0.16363636363637113,
                "tempo": 120.0
            },
            {
                "start_time": 124.1590909090909,
                "end_time": 124.32499999999999,
                "pitch": 69,
                "velocity": 64,
                "duration": 0.16590909090908212,
                "tempo": 120.0
            },
            {
                "start_time": 124.36136363636363,
                "end_time": 124.725,
                "pitch": 76,
                "velocity": 64,
                "duration": 0.36363636363635976,
                "tempo": 120.0
            },
            {
                "start_time": 124.9590909090909,
                "end_time": 125.125,
                "pitch": 74,
                "velocity": 64,
                "duration": 0.16590909090909634,
                "tempo": 120.0
            },
            {
                "start_time": 125.1590909090909,
                "end_time": 125.52727272727272,
                "pitch": 72,
                "velocity": 64,
                "duration": 0.36818181818181017,
                "tempo": 120.0
            },
            {
                "start_time": 125.56363636363636,
                "end_time": 125.72954545454544,
                "pitch": 74,
                "velocity": 64,
                "duration": 0.16590909090908212,
                "tempo": 120.0
            },
            {
                "start_time": 125.76590909090909,
                "end_time": 127.54772727272727,
                "pitch": 81,
                "velocity": 64,
                "duration": 1.7818181818181813,
                "tempo": 120.0
            },
            {
                "start_time": 128.58181818181816,
                "end_time": 128.75,
                "pitch": 84,
                "velocity": 64,
                "duration": 0.16818181818183575,
                "tempo": 120.0
            },
            {
                "start_time": 128.7840909090909,
                "end_time": 128.9522727272727,
                "pitch": 83,
                "velocity": 64,
                "duration": 0.16818181818180733,
                "tempo": 120.0
            },
            {
                "start_time": 128.98636363636362,
                "end_time": 129.15454545454546,
                "pitch": 81,
                "velocity": 64,
                "duration": 0.16818181818183575,
                "tempo": 120.0
            },
            {
                "start_time": 129.18863636363636,
                "end_time": 129.35681818181817,
                "pitch": 79,
                "velocity": 64,
                "duration": 0.16818181818180733,
                "tempo": 120.0
            },
            {
                "start_time": 130.0,
                "end_time": 130.5681818181818,
                "pitch": 76,
                "velocity": 64,
                "duration": 0.568181818181813,
                "tempo": 120.0
            },
            {
                "start_time": 130.60454545454544,
                "end_time": 130.7681818181818,
                "pitch": 79,
                "velocity": 64,
                "duration": 0.16363636363635692,
                "tempo": 120.0
            },
            {
                "start_time": 131.00227272727273,
                "end_time": 131.5681818181818,
                "pitch": 83,
                "velocity": 64,
                "duration": 0.5659090909090878,
                "tempo": 120.0
            },
            {
                "start_time": 131.60227272727272,
                "end_time": 133.975,
                "pitch": 81,
                "velocity": 64,
                "duration": 2.372727272727275,
                "tempo": 120.0
            },
            {
                "start_time": 136.625,
                "end_time": 136.7931818181818,
                "pitch": 71,
                "velocity": 64,
                "duration": 0.16818181818180733,
                "tempo": 120.0
            },
            {
                "start_time": 136.82954545454544,
                "end_time": 137.0,
                "pitch": 72,
                "velocity": 64,
                "duration": 0.17045454545456096,
                "tempo": 120.0
            },
            {
                "start_time": 137.0340909090909,
                "end_time": 137.20454545454544,
                "pitch": 69,
                "velocity": 64,
                "duration": 0.17045454545453254,
                "tempo": 120.0
            },
            {
                "start_time": 137.24090909090907,
                "end_time": 137.4090909090909,
                "pitch": 74,
                "velocity": 64,
                "duration": 0.16818181818183575,
                "tempo": 120.0
            },
            {
                "start_time": 137.65227272727273,
                "end_time": 137.82045454545454,
                "pitch": 76,
                "velocity": 64,
                "duration": 0.16818181818180733,
                "tempo": 120.0
            },
            {
                "start_time": 138.06136363636364,
                "end_time": 138.23181818181817,
                "pitch": 72,
                "velocity": 64,
                "duration": 0.17045454545453254,
                "tempo": 120.0
            },
            {
                "start_time": 138.2681818181818,
                "end_time": 138.4340909090909,
                "pitch": 79,
                "velocity": 64,
                "duration": 0.16590909090911055,
                "tempo": 120.0
            },
            {
                "start_time": 138.6681818181818,
                "end_time": 139.6340909090909,
                "pitch": 83,
                "velocity": 64,
                "duration": 0.9659090909090935,
                "tempo": 120.0
            },
            {
                "start_time": 141.2681818181818,
                "end_time": 141.4340909090909,
                "pitch": 84,
                "velocity": 64,
                "duration": 0.16590909090911055,
                "tempo": 120.0
            },
            {
                "start_time": 141.46818181818182,
                "end_time": 141.63636363636363,
                "pitch": 81,
                "velocity": 64,
                "duration": 0.16818181818180733,
                "tempo": 120.0
            },
            {
                "start_time": 142.075,
                "end_time": 144.45454545454544,
                "pitch": 88,
                "velocity": 64,
                "duration": 2.3795454545454504,
                "tempo": 120.0
            },
            {
                "start_time": 144.48863636363635,
                "end_time": 144.65454545454546,
                "pitch": 88,
                "velocity": 64,
                "duration": 0.16590909090911055,
                "tempo": 120.0
            },
            {
                "start_time": 144.68863636363636,
                "end_time": 144.85681818181817,
                "pitch": 86,
                "velocity": 64,
                "duration": 0.16818181818180733,
                "tempo": 120.0
            },
            {
                "start_time": 144.89090909090908,
                "end_time": 145.0590909090909,
                "pitch": 81,
                "velocity": 64,
                "duration": 0.16818181818183575,
                "tempo": 120.0
            },
            {
                "start_time": 145.09318181818182,
                "end_time": 145.6681818181818,
                "pitch": 84,
                "velocity": 64,
                "duration": 0.5749999999999886,
                "tempo": 120.0
            },
            {
                "start_time": 145.7022727272727,
                "end_time": 145.87045454545455,
                "pitch": 86,
                "velocity": 64,
                "duration": 0.16818181818183575,
                "tempo": 120.0
            },
            {
                "start_time": 146.9181818181818,
                "end_time": 147.49090909090907,
                "pitch": 84,
                "velocity": 64,
                "duration": 0.5727272727272634,
                "tempo": 120.0
            },
            {
                "start_time": 147.52727272727273,
                "end_time": 148.29772727272726,
                "pitch": 83,
                "velocity": 64,
                "duration": 0.7704545454545269,
                "tempo": 120.0
            },
            {
                "start_time": 148.33181818181816,
                "end_time": 151.48636363636362,
                "pitch": 83,
                "velocity": 64,
                "duration": 3.154545454545456,
                "tempo": 120.0
            },
            {
                "start_time": 151.525,
                "end_time": 151.89545454545453,
                "pitch": 81,
                "velocity": 64,
                "duration": 0.37045454545452117,
                "tempo": 120.0
            },
            {
                "start_time": 151.92954545454543,
                "end_time": 152.50454545454545,
                "pitch": 80,
                "velocity": 64,
                "duration": 0.575000000000017,
                "tempo": 120.0
            },
            {
                "start_time": 152.53863636363636,
                "end_time": 153.51363636363635,
                "pitch": 81,
                "velocity": 64,
                "duration": 0.9749999999999943,
                "tempo": 120.0
            },
            {
                "start_time": 153.54772727272726,
                "end_time": 154.11363636363635,
                "pitch": 88,
                "velocity": 64,
                "duration": 0.5659090909090878,
                "tempo": 120.0
            },
            {
                "start_time": 154.14772727272725,
                "end_time": 154.71363636363637,
                "pitch": 87,
                "velocity": 64,
                "duration": 0.5659090909091162,
                "tempo": 120.0
            },
            {
                "start_time": 154.74772727272727,
                "end_time": 155.11363636363635,
                "pitch": 88,
                "velocity": 64,
                "duration": 0.36590909090907076,
                "tempo": 120.0
            },
            {
                "start_time": 155.14772727272725,
                "end_time": 155.71363636363637,
                "pitch": 81,
                "velocity": 64,
                "duration": 0.5659090909091162,
                "tempo": 120.0
            },
            {
                "start_time": 155.74772727272727,
                "end_time": 159.12954545454545,
                "pitch": 83,
                "velocity": 64,
                "duration": 3.3818181818181756,
                "tempo": 120.0
            },
            {
                "start_time": 159.16363636363636,
                "end_time": 159.7340909090909,
                "pitch": 81,
                "velocity": 64,
                "duration": 0.5704545454545382,
                "tempo": 120.0
            },
            {
                "start_time": 159.7681818181818,
                "end_time": 160.7340909090909,
                "pitch": 80,
                "velocity": 64,
                "duration": 0.9659090909090935,
                "tempo": 120.0
            },
            {
                "start_time": 162.3840909090909,
                "end_time": 162.95681818181816,
                "pitch": 79,
                "velocity": 64,
                "duration": 0.5727272727272634,
                "tempo": 120.0
            },
            {
                "start_time": 162.99090909090907,
                "end_time": 163.15681818181818,
                "pitch": 78,
                "velocity": 64,
                "duration": 0.16590909090911055,
                "tempo": 120.0
            },
            {
                "start_time": 163.39090909090908,
                "end_time": 163.5568181818182,
                "pitch": 76,
                "velocity": 64,
                "duration": 0.16590909090911055,
                "tempo": 120.0
            },
            {
                "start_time": 164.79090909090908,
                "end_time": 165.35681818181817,
                "pitch": 83,
                "velocity": 64,
                "duration": 0.5659090909090878,
                "tempo": 120.0
            },
            {
                "start_time": 165.39090909090908,
                "end_time": 165.5568181818182,
                "pitch": 81,
                "velocity": 64,
                "duration": 0.16590909090911055,
                "tempo": 120.0
            },
            {
                "start_time": 165.79090909090908,
                "end_time": 165.95681818181816,
                "pitch": 79,
                "velocity": 64,
                "duration": 0.16590909090908212,
                "tempo": 120.0
            },
            {
                "start_time": 166.39090909090908,
                "end_time": 166.95681818181816,
                "pitch": 78,
                "velocity": 64,
                "duration": 0.5659090909090878,
                "tempo": 120.0
            },
            {
                "start_time": 166.99090909090907,
                "end_time": 167.5568181818182,
                "pitch": 79,
                "velocity": 64,
                "duration": 0.5659090909091162,
                "tempo": 120.0
            },
            {
                "start_time": 168.8068181818182,
                "end_time": 168.975,
                "pitch": 79,
                "velocity": 64,
                "duration": 0.16818181818180733,
                "tempo": 120.0
            },
            {
                "start_time": 169.01136363636363,
                "end_time": 169.1772727272727,
                "pitch": 78,
                "velocity": 64,
                "duration": 0.16590909090908212,
                "tempo": 120.0
            },
            {
                "start_time": 169.21136363636361,
                "end_time": 169.37954545454545,
                "pitch": 76,
                "velocity": 64,
                "duration": 0.16818181818183575,
                "tempo": 120.0
            },
            {
                "start_time": 169.41363636363636,
                "end_time": 170.3931818181818,
                "pitch": 81,
                "velocity": 64,
                "duration": 0.9795454545454447,
                "tempo": 120.0
            },
            {
                "start_time": 170.4272727272727,
                "end_time": 170.59545454545454,
                "pitch": 81,
                "velocity": 64,
                "duration": 0.16818181818183575,
                "tempo": 120.0
            },
            {
                "start_time": 170.63181818181818,
                "end_time": 170.79772727272726,
                "pitch": 79,
                "velocity": 64,
                "duration": 0.16590909090908212,
                "tempo": 120.0
            },
            {
                "start_time": 170.8340909090909,
                "end_time": 171.0,
                "pitch": 78,
                "velocity": 64,
                "duration": 0.16590909090911055,
                "tempo": 120.0
            },
            {
                "start_time": 171.0340909090909,
                "end_time": 172.78863636363636,
                "pitch": 86,
                "velocity": 64,
                "duration": 1.7545454545454504,
                "tempo": 120.0
            },
            {
                "start_time": 173.0181818181818,
                "end_time": 173.1772727272727,
                "pitch": 81,
                "velocity": 64,
                "duration": 0.1590909090909065,
                "tempo": 120.0
            },
            {
                "start_time": 173.21136363636361,
                "end_time": 173.37272727272727,
                "pitch": 84,
                "velocity": 64,
                "duration": 0.16136363636366013,
                "tempo": 120.0
            },
            {
                "start_time": 173.40681818181818,
                "end_time": 173.5681818181818,
                "pitch": 81,
                "velocity": 64,
                "duration": 0.1613636363636317,
                "tempo": 120.0
            },
            {
                "start_time": 173.60227272727272,
                "end_time": 173.76363636363635,
                "pitch": 86,
                "velocity": 64,
                "duration": 0.1613636363636317,
                "tempo": 120.0
            },
            {
                "start_time": 173.79772727272726,
                "end_time": 173.94772727272726,
                "pitch": 81,
                "velocity": 64,
                "duration": 0.15000000000000568,
                "tempo": 120.0
            },
            {
                "start_time": 174.16363636363636,
                "end_time": 174.49772727272727,
                "pitch": 88,
                "velocity": 64,
                "duration": 0.3340909090909179,
                "tempo": 120.0
            }
        ]
    }
}