{
    "track_id": "Golvellius - Valley of Doom (FM) - 18 - Dina",
    "mood": "angry",
    "instruments": {
        "Clarinet": [
            {
                "start_time": 0.2318181818181818,
                "end_time": 0.7181818181818181,
                "pitch": 62,
                "velocity": 40,
                "duration": 0.48636363636363633,
                "tempo": 120.0
            },
            {
                "start_time": 0.7181818181818181,
                "end_time": 0.95,
                "pitch": 74,
                "velocity": 40,
                "duration": 0.2318181818181818,
                "tempo": 120.0
            },
            {
                "start_time": 0.95,
                "end_time": 1.2045454545454546,
                "pitch": 69,
                "velocity": 40,
                "duration": 0.25454545454545463,
                "tempo": 120.0
            },
            {
                "start_time": 1.2045454545454546,
                "end_time": 1.325,
                "pitch": 69,
                "velocity": 40,
                "duration": 0.12045454545454537,
                "tempo": 120.0
            },
            {
                "start_time": 1.325,
                "end_time": 1.4113636363636364,
                "pitch": 69,
                "velocity": 40,
                "duration": 0.08636363636363642,
                "tempo": 120.0
            },
            {
                "start_time": 1.4113636363636364,
                "end_time": 1.4454545454545453,
                "pitch": 71,
                "velocity": 40,
                "duration": 0.03409090909090895,
                "tempo": 120.0
            },
            {
                "start_time": 1.4454545454545453,
                "end_time": 1.6954545454545453,
                "pitch": 71,
                "velocity": 40,
                "duration": 0.25,
                "tempo": 120.0
            },
            {
                "start_time": 1.6954545454545453,
                "end_time": 1.9295454545454545,
                "pitch": 72,
                "velocity": 40,
                "duration": 0.23409090909090913,
                "tempo": 120.0
            },
            {
                "start_time": 1.9295454545454545,
                "end_time": 1.9954545454545454,
                "pitch": 67,
                "velocity": 40,
                "duration": 0.06590909090909092,
                "tempo": 120.0
            },
            {
                "start_time": 1.9954545454545454,
                "end_time": 2.1295454545454544,
                "pitch": 67,
                "velocity": 40,
                "duration": 0.13409090909090904,
                "tempo": 120.0
            },
            {
                "start_time": 2.1295454545454544,
                "end_time": 2.161363636363636,
                "pitch": 67,
                "velocity": 40,
                "duration": 0.031818181818181746,
                "tempo": 120.0
            },
            {
                "start_time": 2.161363636363636,
                "end_time": 2.65,
                "pitch": 62,
                "velocity": 40,
                "duration": 0.48863636363636376,
                "tempo": 120.0
            },
            {
                "start_time": 2.65,
                "end_time": 2.9068181818181817,
                "pitch": 74,
                "velocity": 40,
                "duration": 0.25681818181818183,
                "tempo": 120.0
            },
            {
                "start_time": 2.9068181818181817,
                "end_time": 3.1409090909090907,
                "pitch": 69,
                "velocity": 40,
                "duration": 0.2340909090909089,
                "tempo": 120.0
            },
            {
                "start_time": 3.1409090909090907,
                "end_time": 3.2068181818181816,
                "pitch": 79,
                "velocity": 40,
                "duration": 0.06590909090909092,
                "tempo": 120.0
            },
            {
                "start_time": 3.2068181818181816,
                "end_time": 3.2727272727272725,
                "pitch": 79,
                "velocity": 40,
                "duration": 0.06590909090909092,
                "tempo": 120.0
            },
            {
                "start_time": 3.2727272727272725,
                "end_time": 3.506818181818182,
                "pitch": 78,
                "velocity": 40,
                "duration": 0.23409090909090935,
                "tempo": 120.0
            },
            {
                "start_time": 3.506818181818182,
                "end_time": 3.6227272727272726,
                "pitch": 78,
                "velocity": 40,
                "duration": 0.11590909090909074,
                "tempo": 120.0
            },
            {
                "start_time": 3.6227272727272726,
                "end_time": 3.8727272727272726,
                "pitch": 74,
                "velocity": 40,
                "duration": 0.25,
                "tempo": 120.0
            },
            {
                "start_time": 3.8727272727272726,
                "end_time": 4.111363636363636,
                "pitch": 72,
                "velocity": 40,
                "duration": 0.23863636363636376,
                "tempo": 120.0
            },
            {
                "start_time": 4.111363636363636,
                "end_time": 4.602272727272727,
                "pitch": 60,
                "velocity": 40,
                "duration": 0.4909090909090903,
                "tempo": 120.0
            },
            {
                "start_time": 4.602272727272727,
                "end_time": 4.852272727272727,
                "pitch": 74,
                "velocity": 40,
                "duration": 0.25,
                "tempo": 120.0
            },
            {
                "start_time": 4.852272727272727,
                "end_time": 5.086363636363636,
                "pitch": 69,
                "velocity": 40,
                "duration": 0.23409090909090935,
                "tempo": 120.0
            },
            {
                "start_time": 5.086363636363636,
                "end_time": 5.218181818181818,
                "pitch": 69,
                "velocity": 40,
                "duration": 0.13181818181818183,
                "tempo": 120.0
            },
            {
                "start_time": 5.218181818181818,
                "end_time": 5.302272727272727,
                "pitch": 69,
                "velocity": 40,
                "duration": 0.084090909090909,
                "tempo": 120.0
            },
            {
                "start_time": 5.302272727272727,
                "end_time": 5.336363636363636,
                "pitch": 71,
                "velocity": 40,
                "duration": 0.03409090909090917,
                "tempo": 120.0
            },
            {
                "start_time": 5.336363636363636,
                "end_time": 5.572727272727272,
                "pitch": 71,
                "velocity": 40,
                "duration": 0.23636363636363633,
                "tempo": 120.0
            },
            {
                "start_time": 5.572727272727272,
                "end_time": 5.829545454545454,
                "pitch": 72,
                "velocity": 40,
                "duration": 0.25681818181818183,
                "tempo": 120.0
            },
            {
                "start_time": 5.829545454545454,
                "end_time": 5.8977272727272725,
                "pitch": 67,
                "velocity": 40,
                "duration": 0.06818181818181834,
                "tempo": 120.0
            },
            {
                "start_time": 5.8977272727272725,
                "end_time": 6.031818181818181,
                "pitch": 67,
                "velocity": 40,
                "duration": 0.13409090909090882,
                "tempo": 120.0
            },
            {
                "start_time": 6.031818181818181,
                "end_time": 6.0659090909090905,
                "pitch": 67,
                "velocity": 40,
                "duration": 0.03409090909090917,
                "tempo": 120.0
            },
            {
                "start_time": 6.0659090909090905,
                "end_time": 6.55,
                "pitch": 70,
                "velocity": 40,
                "duration": 0.48409090909090935,
                "tempo": 120.0
            },
            {
                "start_time": 6.55,
                "end_time": 6.8,
                "pitch": 77,
                "velocity": 40,
                "duration": 0.25,
                "tempo": 120.0
            },
            {
                "start_time": 6.8,
                "end_time": 7.038636363636363,
                "pitch": 70,
                "velocity": 40,
                "duration": 0.2386363636363633,
                "tempo": 120.0
            },
            {
                "start_time": 7.038636363636363,
                "end_time": 8.013636363636364,
                "pitch": 70,
                "velocity": 40,
                "duration": 0.9750000000000005,
                "tempo": 120.0
            },
            {
                "start_time": 8.013636363636364,
                "end_time": 8.504545454545454,
                "pitch": 69,
                "velocity": 40,
                "duration": 0.4909090909090903,
                "tempo": 120.0
            },
            {
                "start_time": 8.504545454545454,
                "end_time": 8.761363636363637,
                "pitch": 75,
                "velocity": 40,
                "duration": 0.2568181818181827,
                "tempo": 120.0
            },
            {
                "start_time": 8.761363636363637,
                "end_time": 8.995454545454544,
                "pitch": 68,
                "velocity": 40,
                "duration": 0.23409090909090757,
                "tempo": 120.0
            },
            {
                "start_time": 8.995454545454544,
                "end_time": 9.063636363636363,
                "pitch": 67,
                "velocity": 40,
                "duration": 0.06818181818181834,
                "tempo": 120.0
            },
            {
                "start_time": 9.063636363636363,
                "end_time": 9.197727272727272,
                "pitch": 67,
                "velocity": 40,
                "duration": 0.1340909090909097,
                "tempo": 120.0
            },
            {
                "start_time": 9.197727272727272,
                "end_time": 9.331818181818182,
                "pitch": 67,
                "velocity": 40,
                "duration": 0.1340909090909097,
                "tempo": 120.0
            },
            {
                "start_time": 9.331818181818182,
                "end_time": 9.46590909090909,
                "pitch": 67,
                "velocity": 40,
                "duration": 0.13409090909090793,
                "tempo": 120.0
            },
            {
                "start_time": 9.46590909090909,
                "end_time": 9.597727272727273,
                "pitch": 67,
                "velocity": 40,
                "duration": 0.13181818181818272,
                "tempo": 120.0
            },
            {
                "start_time": 9.597727272727273,
                "end_time": 9.73181818181818,
                "pitch": 67,
                "velocity": 40,
                "duration": 0.13409090909090793,
                "tempo": 120.0
            },
            {
                "start_time": 9.73181818181818,
                "end_time": 9.868181818181817,
                "pitch": 67,
                "velocity": 40,
                "duration": 0.1363636363636367,
                "tempo": 120.0
            },
            {
                "start_time": 9.868181818181817,
                "end_time": 9.970454545454546,
                "pitch": 67,
                "velocity": 40,
                "duration": 0.1022727272727284,
                "tempo": 120.0
            },
            {
                "start_time": 9.970454545454546,
                "end_time": 10.227272727272727,
                "pitch": 67,
                "velocity": 40,
                "duration": 0.25681818181818095,
                "tempo": 120.0
            },
            {
                "start_time": 10.227272727272727,
                "end_time": 10.461363636363636,
                "pitch": 68,
                "velocity": 40,
                "duration": 0.23409090909090935,
                "tempo": 120.0
            },
            {
                "start_time": 10.461363636363636,
                "end_time": 10.713636363636363,
                "pitch": 68,
                "velocity": 40,
                "duration": 0.252272727272727,
                "tempo": 120.0
            },
            {
                "start_time": 10.713636363636363,
                "end_time": 10.797727272727272,
                "pitch": 70,
                "velocity": 40,
                "duration": 0.084090909090909,
                "tempo": 120.0
            },
            {
                "start_time": 10.797727272727272,
                "end_time": 11.202272727272726,
                "pitch": 72,
                "velocity": 40,
                "duration": 0.4045454545454543,
                "tempo": 120.0
            },
            {
                "start_time": 11.202272727272726,
                "end_time": 11.438636363636363,
                "pitch": 70,
                "velocity": 40,
                "duration": 0.23636363636363633,
                "tempo": 120.0
            },
            {
                "start_time": 11.438636363636363,
                "end_time": 11.695454545454545,
                "pitch": 68,
                "velocity": 40,
                "duration": 0.2568181818181827,
                "tempo": 120.0
            },
            {
                "start_time": 11.695454545454545,
                "end_time": 11.929545454545455,
                "pitch": 66,
                "velocity": 40,
                "duration": 0.23409090909090935,
                "tempo": 120.0
            },
            {
                "start_time": 11.929545454545455,
                "end_time": 12.179545454545455,
                "pitch": 69,
                "velocity": 40,
                "duration": 0.25,
                "tempo": 120.0
            },
            {
                "start_time": 12.179545454545455,
                "end_time": 12.263636363636364,
                "pitch": 69,
                "velocity": 40,
                "duration": 0.084090909090909,
                "tempo": 120.0
            },
            {
                "start_time": 12.263636363636364,
                "end_time": 12.415909090909091,
                "pitch": 71,
                "velocity": 40,
                "duration": 0.15227272727272734,
                "tempo": 120.0
            },
            {
                "start_time": 12.415909090909091,
                "end_time": 12.5,
                "pitch": 71,
                "velocity": 40,
                "duration": 0.084090909090909,
                "tempo": 120.0
            },
            {
                "start_time": 12.5,
                "end_time": 12.665909090909091,
                "pitch": 73,
                "velocity": 40,
                "duration": 0.165909090909091,
                "tempo": 120.0
            },
            {
                "start_time": 12.665909090909091,
                "end_time": 12.75,
                "pitch": 73,
                "velocity": 40,
                "duration": 0.084090909090909,
                "tempo": 120.0
            },
            {
                "start_time": 12.75,
                "end_time": 13.154545454545454,
                "pitch": 75,
                "velocity": 40,
                "duration": 0.4045454545454543,
                "tempo": 120.0
            },
            {
                "start_time": 13.154545454545454,
                "end_time": 13.393181818181818,
                "pitch": 73,
                "velocity": 40,
                "duration": 0.2386363636363633,
                "tempo": 120.0
            },
            {
                "start_time": 13.393181818181818,
                "end_time": 13.647727272727272,
                "pitch": 71,
                "velocity": 40,
                "duration": 0.25454545454545396,
                "tempo": 120.0
            },
            {
                "start_time": 13.647727272727272,
                "end_time": 13.884090909090908,
                "pitch": 69,
                "velocity": 40,
                "duration": 0.23636363636363633,
                "tempo": 120.0
            },
            {
                "start_time": 13.884090909090908,
                "end_time": 14.136363636363635,
                "pitch": 66,
                "velocity": 40,
                "duration": 0.252272727272727,
                "tempo": 120.0
            },
            {
                "start_time": 14.136363636363635,
                "end_time": 14.375,
                "pitch": 68,
                "velocity": 40,
                "duration": 0.2386363636363651,
                "tempo": 120.0
            },
            {
                "start_time": 14.375,
                "end_time": 14.631818181818181,
                "pitch": 68,
                "velocity": 40,
                "duration": 0.25681818181818095,
                "tempo": 120.0
            },
            {
                "start_time": 14.631818181818181,
                "end_time": 14.71590909090909,
                "pitch": 70,
                "velocity": 40,
                "duration": 0.084090909090909,
                "tempo": 120.0
            },
            {
                "start_time": 14.71590909090909,
                "end_time": 15.102272727272727,
                "pitch": 72,
                "velocity": 40,
                "duration": 0.3863636363636367,
                "tempo": 120.0
            },
            {
                "start_time": 15.102272727272727,
                "end_time": 15.354545454545454,
                "pitch": 70,
                "velocity": 40,
                "duration": 0.252272727272727,
                "tempo": 120.0
            },
            {
                "start_time": 15.354545454545454,
                "end_time": 15.588636363636363,
                "pitch": 68,
                "velocity": 40,
                "duration": 0.23409090909090935,
                "tempo": 120.0
            },
            {
                "start_time": 15.588636363636363,
                "end_time": 15.843181818181817,
                "pitch": 66,
                "velocity": 40,
                "duration": 0.25454545454545396,
                "tempo": 120.0
            },
            {
                "start_time": 15.843181818181817,
                "end_time": 16.084090909090907,
                "pitch": 69,
                "velocity": 40,
                "duration": 0.2409090909090903,
                "tempo": 120.0
            },
            {
                "start_time": 16.084090909090907,
                "end_time": 16.168181818181818,
                "pitch": 69,
                "velocity": 40,
                "duration": 0.08409090909091077,
                "tempo": 120.0
            },
            {
                "start_time": 16.168181818181818,
                "end_time": 16.336363636363636,
                "pitch": 71,
                "velocity": 40,
                "duration": 0.168181818181818,
                "tempo": 120.0
            },
            {
                "start_time": 16.336363636363636,
                "end_time": 16.420454545454543,
                "pitch": 71,
                "velocity": 40,
                "duration": 0.08409090909090722,
                "tempo": 120.0
            },
            {
                "start_time": 16.420454545454543,
                "end_time": 16.570454545454545,
                "pitch": 73,
                "velocity": 40,
                "duration": 0.15000000000000213,
                "tempo": 120.0
            },
            {
                "start_time": 16.570454545454545,
                "end_time": 16.654545454545453,
                "pitch": 73,
                "velocity": 40,
                "duration": 0.08409090909090722,
                "tempo": 120.0
            },
            {
                "start_time": 16.654545454545453,
                "end_time": 17.054545454545455,
                "pitch": 75,
                "velocity": 40,
                "duration": 0.40000000000000213,
                "tempo": 120.0
            },
            {
                "start_time": 17.054545454545455,
                "end_time": 17.30909090909091,
                "pitch": 73,
                "velocity": 40,
                "duration": 0.25454545454545396,
                "tempo": 120.0
            },
            {
                "start_time": 17.30909090909091,
                "end_time": 17.547727272727272,
                "pitch": 71,
                "velocity": 40,
                "duration": 0.2386363636363633,
                "tempo": 120.0
            },
            {
                "start_time": 17.547727272727272,
                "end_time": 17.804545454545455,
                "pitch": 69,
                "velocity": 40,
                "duration": 0.2568181818181827,
                "tempo": 120.0
            },
            {
                "start_time": 17.804545454545455,
                "end_time": 18.043181818181818,
                "pitch": 72,
                "velocity": 40,
                "duration": 0.2386363636363633,
                "tempo": 120.0
            },
            {
                "start_time": 18.043181818181818,
                "end_time": 18.293181818181818,
                "pitch": 70,
                "velocity": 40,
                "duration": 0.25,
                "tempo": 120.0
            },
            {
                "start_time": 18.293181818181818,
                "end_time": 18.522727272727273,
                "pitch": 70,
                "velocity": 40,
                "duration": 0.22954545454545539,
                "tempo": 120.0
            },
            {
                "start_time": 18.522727272727273,
                "end_time": 19.00681818181818,
                "pitch": 72,
                "velocity": 40,
                "duration": 0.4840909090909058,
                "tempo": 120.0
            },
            {
                "start_time": 19.00681818181818,
                "end_time": 19.143181818181816,
                "pitch": 70,
                "velocity": 40,
                "duration": 0.1363636363636367,
                "tempo": 120.0
            },
            {
                "start_time": 19.143181818181816,
                "end_time": 19.263636363636362,
                "pitch": 70,
                "velocity": 40,
                "duration": 0.12045454545454604,
                "tempo": 120.0
            },
            {
                "start_time": 19.263636363636362,
                "end_time": 19.502272727272725,
                "pitch": 72,
                "velocity": 40,
                "duration": 0.2386363636363633,
                "tempo": 120.0
            },
            {
                "start_time": 19.502272727272725,
                "end_time": 19.754545454545454,
                "pitch": 70,
                "velocity": 40,
                "duration": 0.25227272727272876,
                "tempo": 120.0
            },
            {
                "start_time": 19.754545454545454,
                "end_time": 19.83863636363636,
                "pitch": 70,
                "velocity": 40,
                "duration": 0.08409090909090722,
                "tempo": 120.0
            },
            {
                "start_time": 19.83863636363636,
                "end_time": 19.99090909090909,
                "pitch": 72,
                "velocity": 40,
                "duration": 0.15227272727272734,
                "tempo": 120.0
            },
            {
                "start_time": 19.99090909090909,
                "end_time": 20.245454545454546,
                "pitch": 70,
                "velocity": 40,
                "duration": 0.2545454545454575,
                "tempo": 120.0
            },
            {
                "start_time": 20.245454545454546,
                "end_time": 20.48409090909091,
                "pitch": 70,
                "velocity": 40,
                "duration": 0.2386363636363633,
                "tempo": 120.0
            },
            {
                "start_time": 20.48409090909091,
                "end_time": 20.972727272727273,
                "pitch": 72,
                "velocity": 40,
                "duration": 0.4886363636363633,
                "tempo": 120.0
            },
            {
                "start_time": 20.972727272727273,
                "end_time": 21.10681818181818,
                "pitch": 70,
                "velocity": 40,
                "duration": 0.13409090909090793,
                "tempo": 120.0
            },
            {
                "start_time": 21.10681818181818,
                "end_time": 21.224999999999998,
                "pitch": 70,
                "velocity": 40,
                "duration": 0.11818181818181728,
                "tempo": 120.0
            },
            {
                "start_time": 21.224999999999998,
                "end_time": 21.459090909090907,
                "pitch": 72,
                "velocity": 40,
                "duration": 0.23409090909090935,
                "tempo": 120.0
            },
            {
                "start_time": 21.459090909090907,
                "end_time": 21.71363636363636,
                "pitch": 70,
                "velocity": 40,
                "duration": 0.25454545454545396,
                "tempo": 120.0
            },
            {
                "start_time": 21.71363636363636,
                "end_time": 22.004545454545454,
                "pitch": 62,
                "velocity": 40,
                "duration": 0.2909090909090928,
                "tempo": 120.0
            }
        ],
        "Vibraphone": [
            {
                "start_time": 0.013636363636363636,
                "end_time": 0.5,
                "pitch": 74,
                "velocity": 51,
                "duration": 0.4863636363636364,
                "tempo": 120.0
            },
            {
                "start_time": 0.5,
                "end_time": 0.75,
                "pitch": 86,
                "velocity": 51,
                "duration": 0.25,
                "tempo": 120.0
            },
            {
                "start_time": 0.75,
                "end_time": 0.984090909090909,
                "pitch": 81,
                "velocity": 51,
                "duration": 0.23409090909090902,
                "tempo": 120.0
            },
            {
                "start_time": 0.984090909090909,
                "end_time": 1.1204545454545454,
                "pitch": 81,
                "velocity": 51,
                "duration": 0.13636363636363635,
                "tempo": 120.0
            },
            {
                "start_time": 1.1204545454545454,
                "end_time": 1.2386363636363635,
                "pitch": 81,
                "velocity": 51,
                "duration": 0.11818181818181817,
                "tempo": 120.0
            },
            {
                "start_time": 1.2386363636363635,
                "end_time": 1.4795454545454545,
                "pitch": 83,
                "velocity": 51,
                "duration": 0.24090909090909096,
                "tempo": 120.0
            },
            {
                "start_time": 1.4795454545454545,
                "end_time": 1.7295454545454545,
                "pitch": 84,
                "velocity": 51,
                "duration": 0.25,
                "tempo": 120.0
            },
            {
                "start_time": 1.7295454545454545,
                "end_time": 1.9613636363636362,
                "pitch": 79,
                "velocity": 51,
                "duration": 0.2318181818181817,
                "tempo": 120.0
            },
            {
                "start_time": 1.9613636363636362,
                "end_time": 2.4454545454545453,
                "pitch": 74,
                "velocity": 51,
                "duration": 0.4840909090909091,
                "tempo": 120.0
            },
            {
                "start_time": 2.4454545454545453,
                "end_time": 2.702272727272727,
                "pitch": 86,
                "velocity": 51,
                "duration": 0.25681818181818183,
                "tempo": 120.0
            },
            {
                "start_time": 2.702272727272727,
                "end_time": 2.940909090909091,
                "pitch": 81,
                "velocity": 51,
                "duration": 0.23863636363636376,
                "tempo": 120.0
            },
            {
                "start_time": 2.940909090909091,
                "end_time": 3.0727272727272728,
                "pitch": 93,
                "velocity": 51,
                "duration": 0.13181818181818183,
                "tempo": 120.0
            },
            {
                "start_time": 3.0727272727272728,
                "end_time": 3.3068181818181817,
                "pitch": 90,
                "velocity": 51,
                "duration": 0.2340909090909089,
                "tempo": 120.0
            },
            {
                "start_time": 3.3068181818181817,
                "end_time": 3.4227272727272724,
                "pitch": 90,
                "velocity": 51,
                "duration": 0.11590909090909074,
                "tempo": 120.0
            },
            {
                "start_time": 3.4227272727272724,
                "end_time": 3.6727272727272724,
                "pitch": 86,
                "velocity": 51,
                "duration": 0.25,
                "tempo": 120.0
            },
            {
                "start_time": 3.6727272727272724,
                "end_time": 3.9068181818181817,
                "pitch": 86,
                "velocity": 51,
                "duration": 0.23409090909090935,
                "tempo": 120.0
            },
            {
                "start_time": 3.9068181818181817,
                "end_time": 4.402272727272727,
                "pitch": 72,
                "velocity": 51,
                "duration": 0.4954545454545456,
                "tempo": 120.0
            },
            {
                "start_time": 4.402272727272727,
                "end_time": 4.652272727272727,
                "pitch": 86,
                "velocity": 51,
                "duration": 0.25,
                "tempo": 120.0
            },
            {
                "start_time": 4.652272727272727,
                "end_time": 4.886363636363636,
                "pitch": 81,
                "velocity": 51,
                "duration": 0.23409090909090846,
                "tempo": 120.0
            },
            {
                "start_time": 4.886363636363636,
                "end_time": 5.018181818181818,
                "pitch": 81,
                "velocity": 51,
                "duration": 0.13181818181818183,
                "tempo": 120.0
            },
            {
                "start_time": 5.018181818181818,
                "end_time": 5.136363636363636,
                "pitch": 81,
                "velocity": 51,
                "duration": 0.11818181818181817,
                "tempo": 120.0
            },
            {
                "start_time": 5.136363636363636,
                "end_time": 5.368181818181818,
                "pitch": 83,
                "velocity": 51,
                "duration": 0.23181818181818237,
                "tempo": 120.0
            },
            {
                "start_time": 5.368181818181818,
                "end_time": 5.625,
                "pitch": 84,
                "velocity": 51,
                "duration": 0.25681818181818183,
                "tempo": 120.0
            },
            {
                "start_time": 5.625,
                "end_time": 5.863636363636363,
                "pitch": 79,
                "velocity": 51,
                "duration": 0.2386363636363633,
                "tempo": 120.0
            },
            {
                "start_time": 5.863636363636363,
                "end_time": 6.35,
                "pitch": 82,
                "velocity": 51,
                "duration": 0.48636363636363633,
                "tempo": 120.0
            },
            {
                "start_time": 6.35,
                "end_time": 6.6,
                "pitch": 89,
                "velocity": 51,
                "duration": 0.25,
                "tempo": 120.0
            },
            {
                "start_time": 6.6,
                "end_time": 6.834090909090909,
                "pitch": 82,
                "velocity": 51,
                "duration": 0.23409090909090935,
                "tempo": 120.0
            },
            {
                "start_time": 6.834090909090909,
                "end_time": 7.8136363636363635,
                "pitch": 82,
                "velocity": 51,
                "duration": 0.9795454545454545,
                "tempo": 120.0
            },
            {
                "start_time": 7.8136363636363635,
                "end_time": 8.299999999999999,
                "pitch": 81,
                "velocity": 51,
                "duration": 0.48636363636363544,
                "tempo": 120.0
            },
            {
                "start_time": 8.299999999999999,
                "end_time": 8.556818181818182,
                "pitch": 87,
                "velocity": 51,
                "duration": 0.2568181818181827,
                "tempo": 120.0
            },
            {
                "start_time": 8.556818181818182,
                "end_time": 8.795454545454545,
                "pitch": 80,
                "velocity": 51,
                "duration": 0.2386363636363633,
                "tempo": 120.0
            },
            {
                "start_time": 8.795454545454545,
                "end_time": 9.76590909090909,
                "pitch": 80,
                "velocity": 51,
                "duration": 0.9704545454545457,
                "tempo": 120.0
            },
            {
                "start_time": 9.76590909090909,
                "end_time": 10.020454545454545,
                "pitch": 78,
                "velocity": 51,
                "duration": 0.25454545454545396,
                "tempo": 120.0
            },
            {
                "start_time": 10.020454545454545,
                "end_time": 10.261363636363637,
                "pitch": 80,
                "velocity": 51,
                "duration": 0.24090909090909207,
                "tempo": 120.0
            },
            {
                "start_time": 10.261363636363637,
                "end_time": 10.513636363636364,
                "pitch": 80,
                "velocity": 51,
                "duration": 0.252272727272727,
                "tempo": 120.0
            },
            {
                "start_time": 10.513636363636364,
                "end_time": 11.0,
                "pitch": 84,
                "velocity": 51,
                "duration": 0.48636363636363633,
                "tempo": 120.0
            },
            {
                "start_time": 11.0,
                "end_time": 11.23409090909091,
                "pitch": 82,
                "velocity": 51,
                "duration": 0.23409090909090935,
                "tempo": 120.0
            },
            {
                "start_time": 11.23409090909091,
                "end_time": 11.49090909090909,
                "pitch": 82,
                "velocity": 51,
                "duration": 0.25681818181818095,
                "tempo": 120.0
            },
            {
                "start_time": 11.49090909090909,
                "end_time": 11.729545454545454,
                "pitch": 78,
                "velocity": 51,
                "duration": 0.2386363636363633,
                "tempo": 120.0
            },
            {
                "start_time": 11.729545454545454,
                "end_time": 11.979545454545454,
                "pitch": 81,
                "velocity": 51,
                "duration": 0.25,
                "tempo": 120.0
            },
            {
                "start_time": 11.979545454545454,
                "end_time": 12.213636363636363,
                "pitch": 81,
                "velocity": 51,
                "duration": 0.23409090909090935,
                "tempo": 120.0
            },
            {
                "start_time": 12.213636363636363,
                "end_time": 12.46590909090909,
                "pitch": 85,
                "velocity": 51,
                "duration": 0.252272727272727,
                "tempo": 120.0
            },
            {
                "start_time": 12.46590909090909,
                "end_time": 12.936363636363636,
                "pitch": 87,
                "velocity": 51,
                "duration": 0.4704545454545457,
                "tempo": 120.0
            },
            {
                "start_time": 12.936363636363636,
                "end_time": 13.188636363636363,
                "pitch": 85,
                "velocity": 51,
                "duration": 0.252272727272727,
                "tempo": 120.0
            },
            {
                "start_time": 13.188636363636363,
                "end_time": 13.427272727272726,
                "pitch": 83,
                "velocity": 51,
                "duration": 0.2386363636363633,
                "tempo": 120.0
            },
            {
                "start_time": 13.427272727272726,
                "end_time": 13.681818181818182,
                "pitch": 83,
                "velocity": 51,
                "duration": 0.25454545454545574,
                "tempo": 120.0
            },
            {
                "start_time": 13.681818181818182,
                "end_time": 13.918181818181818,
                "pitch": 78,
                "velocity": 51,
                "duration": 0.23636363636363633,
                "tempo": 120.0
            },
            {
                "start_time": 13.918181818181818,
                "end_time": 14.170454545454545,
                "pitch": 80,
                "velocity": 51,
                "duration": 0.252272727272727,
                "tempo": 120.0
            },
            {
                "start_time": 14.170454545454545,
                "end_time": 14.409090909090908,
                "pitch": 80,
                "velocity": 51,
                "duration": 0.2386363636363633,
                "tempo": 120.0
            },
            {
                "start_time": 14.409090909090908,
                "end_time": 14.899999999999999,
                "pitch": 84,
                "velocity": 51,
                "duration": 0.4909090909090903,
                "tempo": 120.0
            },
            {
                "start_time": 14.899999999999999,
                "end_time": 15.152272727272727,
                "pitch": 82,
                "velocity": 51,
                "duration": 0.25227272727272876,
                "tempo": 120.0
            },
            {
                "start_time": 15.152272727272727,
                "end_time": 15.386363636363635,
                "pitch": 82,
                "velocity": 51,
                "duration": 0.23409090909090757,
                "tempo": 120.0
            },
            {
                "start_time": 15.386363636363635,
                "end_time": 15.638636363636364,
                "pitch": 78,
                "velocity": 51,
                "duration": 0.25227272727272876,
                "tempo": 120.0
            },
            {
                "start_time": 15.638636363636364,
                "end_time": 15.879545454545454,
                "pitch": 81,
                "velocity": 51,
                "duration": 0.2409090909090903,
                "tempo": 120.0
            },
            {
                "start_time": 15.879545454545454,
                "end_time": 16.134090909090908,
                "pitch": 81,
                "velocity": 51,
                "duration": 0.25454545454545396,
                "tempo": 120.0
            },
            {
                "start_time": 16.134090909090908,
                "end_time": 16.370454545454546,
                "pitch": 85,
                "velocity": 51,
                "duration": 0.2363636363636381,
                "tempo": 120.0
            },
            {
                "start_time": 16.370454545454546,
                "end_time": 16.854545454545455,
                "pitch": 87,
                "velocity": 51,
                "duration": 0.48409090909090935,
                "tempo": 120.0
            },
            {
                "start_time": 16.854545454545455,
                "end_time": 17.104545454545455,
                "pitch": 85,
                "velocity": 51,
                "duration": 0.25,
                "tempo": 120.0
            },
            {
                "start_time": 17.104545454545455,
                "end_time": 17.34318181818182,
                "pitch": 83,
                "velocity": 51,
                "duration": 0.2386363636363633,
                "tempo": 120.0
            },
            {
                "start_time": 17.34318181818182,
                "end_time": 17.599999999999998,
                "pitch": 83,
                "velocity": 51,
                "duration": 0.25681818181817917,
                "tempo": 120.0
            },
            {
                "start_time": 17.618181818181817,
                "end_time": 17.83863636363636,
                "pitch": 84,
                "velocity": 51,
                "duration": 0.2204545454545439,
                "tempo": 120.0
            },
            {
                "start_time": 17.83863636363636,
                "end_time": 18.095454545454544,
                "pitch": 82,
                "velocity": 51,
                "duration": 0.2568181818181827,
                "tempo": 120.0
            },
            {
                "start_time": 18.095454545454544,
                "end_time": 18.325,
                "pitch": 82,
                "velocity": 51,
                "duration": 0.22954545454545539,
                "tempo": 120.0
            },
            {
                "start_time": 18.325,
                "end_time": 18.80681818181818,
                "pitch": 84,
                "velocity": 51,
                "duration": 0.4818181818181806,
                "tempo": 120.0
            },
            {
                "start_time": 18.80681818181818,
                "end_time": 18.94090909090909,
                "pitch": 82,
                "velocity": 51,
                "duration": 0.13409090909091148,
                "tempo": 120.0
            },
            {
                "start_time": 18.94090909090909,
                "end_time": 19.05909090909091,
                "pitch": 82,
                "velocity": 51,
                "duration": 0.11818181818181728,
                "tempo": 120.0
            },
            {
                "start_time": 19.05909090909091,
                "end_time": 19.297727272727272,
                "pitch": 84,
                "velocity": 51,
                "duration": 0.2386363636363633,
                "tempo": 120.0
            },
            {
                "start_time": 19.297727272727272,
                "end_time": 19.552272727272726,
                "pitch": 82,
                "velocity": 51,
                "duration": 0.25454545454545396,
                "tempo": 120.0
            },
            {
                "start_time": 19.552272727272726,
                "end_time": 19.788636363636364,
                "pitch": 84,
                "velocity": 51,
                "duration": 0.2363636363636381,
                "tempo": 120.0
            },
            {
                "start_time": 19.788636363636364,
                "end_time": 20.04090909090909,
                "pitch": 82,
                "velocity": 51,
                "duration": 0.2522727272727252,
                "tempo": 120.0
            },
            {
                "start_time": 20.04090909090909,
                "end_time": 20.279545454545453,
                "pitch": 82,
                "velocity": 51,
                "duration": 0.2386363636363633,
                "tempo": 120.0
            },
            {
                "start_time": 20.279545454545453,
                "end_time": 20.770454545454545,
                "pitch": 84,
                "velocity": 51,
                "duration": 0.49090909090909207,
                "tempo": 120.0
            },
            {
                "start_time": 20.770454545454545,
                "end_time": 20.888636363636362,
                "pitch": 82,
                "velocity": 51,
                "duration": 0.11818181818181728,
                "tempo": 120.0
            },
            {
                "start_time": 20.888636363636362,
                "end_time": 21.022727272727273,
                "pitch": 82,
                "velocity": 51,
                "duration": 0.13409090909091148,
                "tempo": 120.0
            },
            {
                "start_time": 21.022727272727273,
                "end_time": 21.259090909090908,
                "pitch": 84,
                "velocity": 51,
                "duration": 0.23636363636363455,
                "tempo": 120.0
            },
            {
                "start_time": 21.259090909090908,
                "end_time": 21.509090909090908,
                "pitch": 82,
                "velocity": 51,
                "duration": 0.25,
                "tempo": 120.0
            },
            {
                "start_time": 21.509090909090908,
                "end_time": 22.004545454545454,
                "pitch": 74,
                "velocity": 51,
                "duration": 0.49545454545454604,
                "tempo": 120.0
            }
        ],
        "Acoustic Bass": [
            {
                "start_time": 0.013636363636363636,
                "end_time": 0.2659090909090909,
                "pitch": 38,
                "velocity": 80,
                "duration": 0.25227272727272726,
                "tempo": 120.0
            },
            {
                "start_time": 0.2659090909090909,
                "end_time": 0.3818181818181818,
                "pitch": 50,
                "velocity": 80,
                "duration": 0.1159090909090909,
                "tempo": 120.0
            },
            {
                "start_time": 0.3818181818181818,
                "end_time": 0.5,
                "pitch": 38,
                "velocity": 80,
                "duration": 0.11818181818181822,
                "tempo": 120.0
            },
            {
                "start_time": 0.5,
                "end_time": 0.75,
                "pitch": 38,
                "velocity": 80,
                "duration": 0.25,
                "tempo": 120.0
            },
            {
                "start_time": 0.75,
                "end_time": 0.8681818181818182,
                "pitch": 62,
                "velocity": 80,
                "duration": 0.11818181818181817,
                "tempo": 120.0
            },
            {
                "start_time": 0.8681818181818182,
                "end_time": 0.984090909090909,
                "pitch": 50,
                "velocity": 80,
                "duration": 0.11590909090909085,
                "tempo": 120.0
            },
            {
                "start_time": 0.984090909090909,
                "end_time": 1.2386363636363635,
                "pitch": 43,
                "velocity": 80,
                "duration": 0.2545454545454545,
                "tempo": 120.0
            },
            {
                "start_time": 1.2386363636363635,
                "end_time": 1.3590909090909091,
                "pitch": 55,
                "velocity": 80,
                "duration": 0.12045454545454559,
                "tempo": 120.0
            },
            {
                "start_time": 1.3590909090909091,
                "end_time": 1.4795454545454545,
                "pitch": 43,
                "velocity": 80,
                "duration": 0.12045454545454537,
                "tempo": 120.0
            },
            {
                "start_time": 1.4795454545454545,
                "end_time": 1.7295454545454545,
                "pitch": 43,
                "velocity": 80,
                "duration": 0.25,
                "tempo": 120.0
            },
            {
                "start_time": 1.7295454545454545,
                "end_time": 1.8454545454545455,
                "pitch": 67,
                "velocity": 80,
                "duration": 0.11590909090909096,
                "tempo": 120.0
            },
            {
                "start_time": 1.8454545454545455,
                "end_time": 1.9613636363636362,
                "pitch": 55,
                "velocity": 80,
                "duration": 0.11590909090909074,
                "tempo": 120.0
            },
            {
                "start_time": 1.9613636363636362,
                "end_time": 2.2113636363636364,
                "pitch": 38,
                "velocity": 80,
                "duration": 0.2500000000000002,
                "tempo": 120.0
            },
            {
                "start_time": 2.2113636363636364,
                "end_time": 2.3295454545454546,
                "pitch": 50,
                "velocity": 80,
                "duration": 0.11818181818181817,
                "tempo": 120.0
            },
            {
                "start_time": 2.3295454545454546,
                "end_time": 2.4454545454545453,
                "pitch": 38,
                "velocity": 80,
                "duration": 0.11590909090909074,
                "tempo": 120.0
            },
            {
                "start_time": 2.4454545454545453,
                "end_time": 2.702272727272727,
                "pitch": 38,
                "velocity": 80,
                "duration": 0.25681818181818183,
                "tempo": 120.0
            },
            {
                "start_time": 2.702272727272727,
                "end_time": 2.8204545454545453,
                "pitch": 62,
                "velocity": 80,
                "duration": 0.11818181818181817,
                "tempo": 120.0
            },
            {
                "start_time": 2.8204545454545453,
                "end_time": 2.940909090909091,
                "pitch": 50,
                "velocity": 80,
                "duration": 0.12045454545454559,
                "tempo": 120.0
            },
            {
                "start_time": 2.940909090909091,
                "end_time": 3.190909090909091,
                "pitch": 43,
                "velocity": 80,
                "duration": 0.25,
                "tempo": 120.0
            },
            {
                "start_time": 3.190909090909091,
                "end_time": 3.3068181818181817,
                "pitch": 55,
                "velocity": 80,
                "duration": 0.11590909090909074,
                "tempo": 120.0
            },
            {
                "start_time": 3.3068181818181817,
                "end_time": 3.4227272727272724,
                "pitch": 43,
                "velocity": 80,
                "duration": 0.11590909090909074,
                "tempo": 120.0
            },
            {
                "start_time": 3.4227272727272724,
                "end_time": 3.6727272727272724,
                "pitch": 43,
                "velocity": 80,
                "duration": 0.25,
                "tempo": 120.0
            },
            {
                "start_time": 3.6727272727272724,
                "end_time": 3.7909090909090906,
                "pitch": 67,
                "velocity": 80,
                "duration": 0.11818181818181817,
                "tempo": 120.0
            },
            {
                "start_time": 3.7909090909090906,
                "end_time": 3.9068181818181817,
                "pitch": 55,
                "velocity": 80,
                "duration": 0.11590909090909118,
                "tempo": 120.0
            },
            {
                "start_time": 3.9068181818181817,
                "end_time": 4.163636363636363,
                "pitch": 38,
                "velocity": 80,
                "duration": 0.2568181818181814,
                "tempo": 120.0
            },
            {
                "start_time": 4.163636363636363,
                "end_time": 4.281818181818181,
                "pitch": 50,
                "velocity": 80,
                "duration": 0.11818181818181817,
                "tempo": 120.0
            },
            {
                "start_time": 4.281818181818181,
                "end_time": 4.402272727272727,
                "pitch": 38,
                "velocity": 80,
                "duration": 0.12045454545454604,
                "tempo": 120.0
            },
            {
                "start_time": 4.402272727272727,
                "end_time": 4.652272727272727,
                "pitch": 38,
                "velocity": 80,
                "duration": 0.25,
                "tempo": 120.0
            },
            {
                "start_time": 4.652272727272727,
                "end_time": 4.768181818181818,
                "pitch": 62,
                "velocity": 80,
                "duration": 0.1159090909090903,
                "tempo": 120.0
            },
            {
                "start_time": 4.768181818181818,
                "end_time": 4.886363636363636,
                "pitch": 50,
                "velocity": 80,
                "duration": 0.11818181818181817,
                "tempo": 120.0
            },
            {
                "start_time": 4.886363636363636,
                "end_time": 5.136363636363636,
                "pitch": 43,
                "velocity": 80,
                "duration": 0.25,
                "tempo": 120.0
            },
            {
                "start_time": 5.136363636363636,
                "end_time": 5.252272727272727,
                "pitch": 55,
                "velocity": 80,
                "duration": 0.11590909090909118,
                "tempo": 120.0
            },
            {
                "start_time": 5.252272727272727,
                "end_time": 5.368181818181818,
                "pitch": 43,
                "velocity": 80,
                "duration": 0.11590909090909118,
                "tempo": 120.0
            },
            {
                "start_time": 5.368181818181818,
                "end_time": 5.625,
                "pitch": 43,
                "velocity": 80,
                "duration": 0.25681818181818183,
                "tempo": 120.0
            },
            {
                "start_time": 5.625,
                "end_time": 5.743181818181818,
                "pitch": 67,
                "velocity": 80,
                "duration": 0.11818181818181817,
                "tempo": 120.0
            },
            {
                "start_time": 5.743181818181818,
                "end_time": 5.863636363636363,
                "pitch": 55,
                "velocity": 80,
                "duration": 0.12045454545454515,
                "tempo": 120.0
            },
            {
                "start_time": 5.863636363636363,
                "end_time": 5.997727272727272,
                "pitch": 39,
                "velocity": 80,
                "duration": 0.13409090909090882,
                "tempo": 120.0
            },
            {
                "start_time": 5.997727272727272,
                "end_time": 6.11590909090909,
                "pitch": 51,
                "velocity": 80,
                "duration": 0.11818181818181817,
                "tempo": 120.0
            },
            {
                "start_time": 6.11590909090909,
                "end_time": 6.2340909090909085,
                "pitch": 39,
                "velocity": 80,
                "duration": 0.11818181818181817,
                "tempo": 120.0
            },
            {
                "start_time": 6.2340909090909085,
                "end_time": 6.35,
                "pitch": 51,
                "velocity": 80,
                "duration": 0.11590909090909118,
                "tempo": 120.0
            },
            {
                "start_time": 6.35,
                "end_time": 6.6,
                "pitch": 39,
                "velocity": 80,
                "duration": 0.25,
                "tempo": 120.0
            },
            {
                "start_time": 6.6,
                "end_time": 6.834090909090909,
                "pitch": 51,
                "velocity": 80,
                "duration": 0.23409090909090935,
                "tempo": 120.0
            },
            {
                "start_time": 6.834090909090909,
                "end_time": 6.954545454545454,
                "pitch": 39,
                "velocity": 80,
                "duration": 0.12045454545454515,
                "tempo": 120.0
            },
            {
                "start_time": 6.954545454545454,
                "end_time": 7.090909090909091,
                "pitch": 50,
                "velocity": 80,
                "duration": 0.1363636363636367,
                "tempo": 120.0
            },
            {
                "start_time": 7.090909090909091,
                "end_time": 7.209090909090909,
                "pitch": 38,
                "velocity": 80,
                "duration": 0.11818181818181817,
                "tempo": 120.0
            },
            {
                "start_time": 7.209090909090909,
                "end_time": 7.329545454545454,
                "pitch": 50,
                "velocity": 80,
                "duration": 0.12045454545454515,
                "tempo": 120.0
            },
            {
                "start_time": 7.329545454545454,
                "end_time": 7.579545454545454,
                "pitch": 38,
                "velocity": 80,
                "duration": 0.25,
                "tempo": 120.0
            },
            {
                "start_time": 7.579545454545454,
                "end_time": 7.8136363636363635,
                "pitch": 50,
                "velocity": 80,
                "duration": 0.23409090909090935,
                "tempo": 120.0
            },
            {
                "start_time": 7.8136363636363635,
                "end_time": 7.929545454545454,
                "pitch": 38,
                "velocity": 80,
                "duration": 0.1159090909090903,
                "tempo": 120.0
            },
            {
                "start_time": 7.929545454545454,
                "end_time": 8.063636363636363,
                "pitch": 49,
                "velocity": 80,
                "duration": 0.13409090909090882,
                "tempo": 120.0
            },
            {
                "start_time": 8.063636363636363,
                "end_time": 8.181818181818182,
                "pitch": 37,
                "velocity": 80,
                "duration": 0.11818181818181905,
                "tempo": 120.0
            },
            {
                "start_time": 8.181818181818182,
                "end_time": 8.299999999999999,
                "pitch": 49,
                "velocity": 80,
                "duration": 0.11818181818181728,
                "tempo": 120.0
            },
            {
                "start_time": 8.299999999999999,
                "end_time": 8.556818181818182,
                "pitch": 37,
                "velocity": 80,
                "duration": 0.2568181818181827,
                "tempo": 120.0
            },
            {
                "start_time": 8.556818181818182,
                "end_time": 8.795454545454545,
                "pitch": 49,
                "velocity": 80,
                "duration": 0.2386363636363633,
                "tempo": 120.0
            },
            {
                "start_time": 8.795454545454545,
                "end_time": 8.913636363636364,
                "pitch": 37,
                "velocity": 80,
                "duration": 0.11818181818181905,
                "tempo": 120.0
            },
            {
                "start_time": 8.913636363636364,
                "end_time": 9.047727272727272,
                "pitch": 48,
                "velocity": 80,
                "duration": 0.13409090909090793,
                "tempo": 120.0
            },
            {
                "start_time": 9.047727272727272,
                "end_time": 9.163636363636364,
                "pitch": 36,
                "velocity": 80,
                "duration": 0.11590909090909207,
                "tempo": 120.0
            },
            {
                "start_time": 9.163636363636364,
                "end_time": 9.281818181818181,
                "pitch": 48,
                "velocity": 80,
                "duration": 0.11818181818181728,
                "tempo": 120.0
            },
            {
                "start_time": 9.281818181818181,
                "end_time": 9.531818181818181,
                "pitch": 36,
                "velocity": 80,
                "duration": 0.25,
                "tempo": 120.0
            },
            {
                "start_time": 9.531818181818181,
                "end_time": 9.76590909090909,
                "pitch": 48,
                "velocity": 80,
                "duration": 0.23409090909090935,
                "tempo": 120.0
            },
            {
                "start_time": 9.76590909090909,
                "end_time": 10.020454545454545,
                "pitch": 38,
                "velocity": 80,
                "duration": 0.25454545454545396,
                "tempo": 120.0
            },
            {
                "start_time": 10.020454545454545,
                "end_time": 10.14090909090909,
                "pitch": 50,
                "velocity": 80,
                "duration": 0.12045454545454604,
                "tempo": 120.0
            },
            {
                "start_time": 10.14090909090909,
                "end_time": 10.261363636363637,
                "pitch": 38,
                "velocity": 80,
                "duration": 0.12045454545454604,
                "tempo": 120.0
            },
            {
                "start_time": 10.261363636363637,
                "end_time": 10.513636363636364,
                "pitch": 38,
                "velocity": 80,
                "duration": 0.252272727272727,
                "tempo": 120.0
            },
            {
                "start_time": 10.513636363636364,
                "end_time": 10.747727272727273,
                "pitch": 50,
                "velocity": 80,
                "duration": 0.23409090909090935,
                "tempo": 120.0
            },
            {
                "start_time": 10.747727272727273,
                "end_time": 11.0,
                "pitch": 38,
                "velocity": 80,
                "duration": 0.252272727272727,
                "tempo": 120.0
            },
            {
                "start_time": 11.0,
                "end_time": 11.118181818181817,
                "pitch": 50,
                "velocity": 80,
                "duration": 0.11818181818181728,
                "tempo": 120.0
            },
            {
                "start_time": 11.118181818181817,
                "end_time": 11.23409090909091,
                "pitch": 38,
                "velocity": 80,
                "duration": 0.11590909090909207,
                "tempo": 120.0
            },
            {
                "start_time": 11.23409090909091,
                "end_time": 11.49090909090909,
                "pitch": 38,
                "velocity": 80,
                "duration": 0.25681818181818095,
                "tempo": 120.0
            },
            {
                "start_time": 11.49090909090909,
                "end_time": 11.729545454545454,
                "pitch": 50,
                "velocity": 80,
                "duration": 0.2386363636363633,
                "tempo": 120.0
            },
            {
                "start_time": 11.729545454545454,
                "end_time": 11.979545454545454,
                "pitch": 38,
                "velocity": 80,
                "duration": 0.25,
                "tempo": 120.0
            },
            {
                "start_time": 11.979545454545454,
                "end_time": 12.097727272727273,
                "pitch": 51,
                "velocity": 80,
                "duration": 0.11818181818181905,
                "tempo": 120.0
            },
            {
                "start_time": 12.097727272727273,
                "end_time": 12.213636363636363,
                "pitch": 39,
                "velocity": 80,
                "duration": 0.1159090909090903,
                "tempo": 120.0
            },
            {
                "start_time": 12.213636363636363,
                "end_time": 12.46590909090909,
                "pitch": 39,
                "velocity": 80,
                "duration": 0.252272727272727,
                "tempo": 120.0
            },
            {
                "start_time": 12.46590909090909,
                "end_time": 12.7,
                "pitch": 51,
                "velocity": 80,
                "duration": 0.23409090909090935,
                "tempo": 120.0
            },
            {
                "start_time": 12.7,
                "end_time": 12.936363636363636,
                "pitch": 39,
                "velocity": 80,
                "duration": 0.23636363636363633,
                "tempo": 120.0
            },
            {
                "start_time": 12.936363636363636,
                "end_time": 13.070454545454545,
                "pitch": 51,
                "velocity": 80,
                "duration": 0.1340909090909097,
                "tempo": 120.0
            },
            {
                "start_time": 13.070454545454545,
                "end_time": 13.188636363636363,
                "pitch": 39,
                "velocity": 80,
                "duration": 0.11818181818181728,
                "tempo": 120.0
            },
            {
                "start_time": 13.188636363636363,
                "end_time": 13.427272727272726,
                "pitch": 39,
                "velocity": 80,
                "duration": 0.2386363636363633,
                "tempo": 120.0
            },
            {
                "start_time": 13.427272727272726,
                "end_time": 13.681818181818182,
                "pitch": 51,
                "velocity": 80,
                "duration": 0.25454545454545574,
                "tempo": 120.0
            },
            {
                "start_time": 13.681818181818182,
                "end_time": 13.918181818181818,
                "pitch": 39,
                "velocity": 80,
                "duration": 0.23636363636363633,
                "tempo": 120.0
            },
            {
                "start_time": 13.918181818181818,
                "end_time": 14.052272727272726,
                "pitch": 50,
                "velocity": 80,
                "duration": 0.13409090909090793,
                "tempo": 120.0
            },
            {
                "start_time": 14.052272727272726,
                "end_time": 14.170454545454545,
                "pitch": 38,
                "velocity": 80,
                "duration": 0.11818181818181905,
                "tempo": 120.0
            },
            {
                "start_time": 14.170454545454545,
                "end_time": 14.409090909090908,
                "pitch": 38,
                "velocity": 80,
                "duration": 0.2386363636363633,
                "tempo": 120.0
            },
            {
                "start_time": 14.409090909090908,
                "end_time": 14.665909090909091,
                "pitch": 50,
                "velocity": 80,
                "duration": 0.2568181818181827,
                "tempo": 120.0
            },
            {
                "start_time": 14.665909090909091,
                "end_time": 14.899999999999999,
                "pitch": 38,
                "velocity": 80,
                "duration": 0.23409090909090757,
                "tempo": 120.0
            },
            {
                "start_time": 14.899999999999999,
                "end_time": 15.034090909090908,
                "pitch": 50,
                "velocity": 80,
                "duration": 0.1340909090909097,
                "tempo": 120.0
            },
            {
                "start_time": 15.034090909090908,
                "end_time": 15.152272727272727,
                "pitch": 38,
                "velocity": 80,
                "duration": 0.11818181818181905,
                "tempo": 120.0
            },
            {
                "start_time": 15.152272727272727,
                "end_time": 15.386363636363635,
                "pitch": 38,
                "velocity": 80,
                "duration": 0.23409090909090757,
                "tempo": 120.0
            },
            {
                "start_time": 15.386363636363635,
                "end_time": 15.638636363636364,
                "pitch": 50,
                "velocity": 80,
                "duration": 0.25227272727272876,
                "tempo": 120.0
            },
            {
                "start_time": 15.638636363636364,
                "end_time": 15.879545454545454,
                "pitch": 38,
                "velocity": 80,
                "duration": 0.2409090909090903,
                "tempo": 120.0
            },
            {
                "start_time": 15.879545454545454,
                "end_time": 16.01590909090909,
                "pitch": 51,
                "velocity": 80,
                "duration": 0.1363636363636367,
                "tempo": 120.0
            },
            {
                "start_time": 16.01590909090909,
                "end_time": 16.134090909090908,
                "pitch": 39,
                "velocity": 80,
                "duration": 0.11818181818181728,
                "tempo": 120.0
            },
            {
                "start_time": 16.134090909090908,
                "end_time": 16.370454545454546,
                "pitch": 39,
                "velocity": 80,
                "duration": 0.2363636363636381,
                "tempo": 120.0
            },
            {
                "start_time": 16.370454545454546,
                "end_time": 16.62272727272727,
                "pitch": 51,
                "velocity": 80,
                "duration": 0.2522727272727252,
                "tempo": 120.0
            },
            {
                "start_time": 16.62272727272727,
                "end_time": 16.854545454545455,
                "pitch": 39,
                "velocity": 80,
                "duration": 0.23181818181818414,
                "tempo": 120.0
            },
            {
                "start_time": 16.854545454545455,
                "end_time": 16.988636363636363,
                "pitch": 51,
                "velocity": 80,
                "duration": 0.13409090909090793,
                "tempo": 120.0
            },
            {
                "start_time": 16.988636363636363,
                "end_time": 17.104545454545455,
                "pitch": 39,
                "velocity": 80,
                "duration": 0.11590909090909207,
                "tempo": 120.0
            },
            {
                "start_time": 17.104545454545455,
                "end_time": 17.34318181818182,
                "pitch": 39,
                "velocity": 80,
                "duration": 0.2386363636363633,
                "tempo": 120.0
            },
            {
                "start_time": 17.34318181818182,
                "end_time": 17.618181818181817,
                "pitch": 51,
                "velocity": 80,
                "duration": 0.2749999999999986,
                "tempo": 120.0
            },
            {
                "start_time": 17.618181818181817,
                "end_time": 17.83863636363636,
                "pitch": 41,
                "velocity": 80,
                "duration": 0.2204545454545439,
                "tempo": 120.0
            },
            {
                "start_time": 17.83863636363636,
                "end_time": 17.974999999999998,
                "pitch": 53,
                "velocity": 80,
                "duration": 0.1363636363636367,
                "tempo": 120.0
            },
            {
                "start_time": 17.974999999999998,
                "end_time": 18.095454545454544,
                "pitch": 41,
                "velocity": 80,
                "duration": 0.12045454545454604,
                "tempo": 120.0
            },
            {
                "start_time": 18.095454545454544,
                "end_time": 18.325,
                "pitch": 41,
                "velocity": 80,
                "duration": 0.22954545454545539,
                "tempo": 120.0
            },
            {
                "start_time": 18.325,
                "end_time": 18.570454545454545,
                "pitch": 53,
                "velocity": 80,
                "duration": 0.24545454545454604,
                "tempo": 120.0
            },
            {
                "start_time": 18.570454545454545,
                "end_time": 18.80681818181818,
                "pitch": 41,
                "velocity": 80,
                "duration": 0.23636363636363455,
                "tempo": 120.0
            },
            {
                "start_time": 18.80681818181818,
                "end_time": 18.94090909090909,
                "pitch": 53,
                "velocity": 80,
                "duration": 0.13409090909091148,
                "tempo": 120.0
            },
            {
                "start_time": 18.94090909090909,
                "end_time": 19.05909090909091,
                "pitch": 41,
                "velocity": 80,
                "duration": 0.11818181818181728,
                "tempo": 120.0
            },
            {
                "start_time": 19.05909090909091,
                "end_time": 19.177272727272726,
                "pitch": 41,
                "velocity": 80,
                "duration": 0.11818181818181728,
                "tempo": 120.0
            },
            {
                "start_time": 19.177272727272726,
                "end_time": 19.297727272727272,
                "pitch": 53,
                "velocity": 80,
                "duration": 0.12045454545454604,
                "tempo": 120.0
            },
            {
                "start_time": 19.297727272727272,
                "end_time": 19.41590909090909,
                "pitch": 41,
                "velocity": 80,
                "duration": 0.11818181818181728,
                "tempo": 120.0
            },
            {
                "start_time": 19.41590909090909,
                "end_time": 19.552272727272726,
                "pitch": 53,
                "velocity": 80,
                "duration": 0.1363636363636367,
                "tempo": 120.0
            },
            {
                "start_time": 19.552272727272726,
                "end_time": 19.788636363636364,
                "pitch": 41,
                "velocity": 80,
                "duration": 0.2363636363636381,
                "tempo": 120.0
            },
            {
                "start_time": 19.788636363636364,
                "end_time": 19.90681818181818,
                "pitch": 53,
                "velocity": 80,
                "duration": 0.11818181818181728,
                "tempo": 120.0
            },
            {
                "start_time": 19.90681818181818,
                "end_time": 20.04090909090909,
                "pitch": 41,
                "velocity": 80,
                "duration": 0.13409090909090793,
                "tempo": 120.0
            },
            {
                "start_time": 20.04090909090909,
                "end_time": 20.279545454545453,
                "pitch": 41,
                "velocity": 80,
                "duration": 0.2386363636363633,
                "tempo": 120.0
            },
            {
                "start_time": 20.279545454545453,
                "end_time": 20.536363636363635,
                "pitch": 53,
                "velocity": 80,
                "duration": 0.2568181818181827,
                "tempo": 120.0
            },
            {
                "start_time": 20.536363636363635,
                "end_time": 20.770454545454545,
                "pitch": 41,
                "velocity": 80,
                "duration": 0.23409090909090935,
                "tempo": 120.0
            },
            {
                "start_time": 20.770454545454545,
                "end_time": 20.888636363636362,
                "pitch": 53,
                "velocity": 80,
                "duration": 0.11818181818181728,
                "tempo": 120.0
            },
            {
                "start_time": 20.888636363636362,
                "end_time": 21.022727272727273,
                "pitch": 41,
                "velocity": 80,
                "duration": 0.13409090909091148,
                "tempo": 120.0
            },
            {
                "start_time": 21.022727272727273,
                "end_time": 21.14090909090909,
                "pitch": 41,
                "velocity": 80,
                "duration": 0.11818181818181728,
                "tempo": 120.0
            },
            {
                "start_time": 21.14090909090909,
                "end_time": 21.259090909090908,
                "pitch": 53,
                "velocity": 80,
                "duration": 0.11818181818181728,
                "tempo": 120.0
            },
            {
                "start_time": 21.259090909090908,
                "end_time": 21.375,
                "pitch": 41,
                "velocity": 80,
                "duration": 0.11590909090909207,
                "tempo": 120.0
            },
            {
                "start_time": 21.375,
                "end_time": 21.509090909090908,
                "pitch": 53,
                "velocity": 80,
                "duration": 0.13409090909090793,
                "tempo": 120.0
            },
            {
                "start_time": 21.509090909090908,
                "end_time": 21.527272727272727,
                "pitch": 41,
                "velocity": 80,
                "duration": 0.01818181818181941,
                "tempo": 120.0
            },
            {
                "start_time": 21.527272727272727,
                "end_time": 21.75,
                "pitch": 38,
                "velocity": 80,
                "duration": 0.22272727272727266,
                "tempo": 120.0
            },
            {
                "start_time": 21.75,
                "end_time": 21.868181818181817,
                "pitch": 50,
                "velocity": 80,
                "duration": 0.11818181818181728,
                "tempo": 120.0
            },
            {
                "start_time": 21.868181818181817,
                "end_time": 22.004545454545454,
                "pitch": 38,
                "velocity": 80,
                "duration": 0.1363636363636367,
                "tempo": 120.0
            }
        ]
    }
}