{
    "track_id": "Golvellius - Valley of Doom (FM) - 01 - Title",
    "mood": "angry",
    "instruments": {
        "Electric Piano 1": [
            {
                "start_time": 0.23409090909090907,
                "end_time": 0.4340909090909091,
                "pitch": 35,
                "velocity": 127,
                "duration": 0.2,
                "tempo": 120.0
            },
            {
                "start_time": 0.4340909090909091,
                "end_time": 0.634090909090909,
                "pitch": 47,
                "velocity": 127,
                "duration": 0.19999999999999996,
                "tempo": 120.0
            },
            {
                "start_time": 0.634090909090909,
                "end_time": 0.8340909090909091,
                "pitch": 35,
                "velocity": 127,
                "duration": 0.20000000000000007,
                "tempo": 120.0
            },
            {
                "start_time": 0.8340909090909091,
                "end_time": 1.034090909090909,
                "pitch": 47,
                "velocity": 127,
                "duration": 0.19999999999999984,
                "tempo": 120.0
            },
            {
                "start_time": 1.034090909090909,
                "end_time": 1.2340909090909091,
                "pitch": 35,
                "velocity": 127,
                "duration": 0.20000000000000018,
                "tempo": 120.0
            },
            {
                "start_time": 1.2340909090909091,
                "end_time": 1.434090909090909,
                "pitch": 47,
                "velocity": 127,
                "duration": 0.19999999999999996,
                "tempo": 120.0
            },
            {
                "start_time": 1.434090909090909,
                "end_time": 1.634090909090909,
                "pitch": 35,
                "velocity": 127,
                "duration": 0.19999999999999996,
                "tempo": 120.0
            },
            {
                "start_time": 1.634090909090909,
                "end_time": 1.834090909090909,
                "pitch": 47,
                "velocity": 127,
                "duration": 0.19999999999999996,
                "tempo": 120.0
            },
            {
                "start_time": 1.834090909090909,
                "end_time": 2.034090909090909,
                "pitch": 35,
                "velocity": 127,
                "duration": 0.20000000000000018,
                "tempo": 120.0
            },
            {
                "start_time": 2.034090909090909,
                "end_time": 2.2363636363636363,
                "pitch": 47,
                "velocity": 127,
                "duration": 0.20227272727272716,
                "tempo": 120.0
            },
            {
                "start_time": 2.2363636363636363,
                "end_time": 2.436363636363636,
                "pitch": 35,
                "velocity": 127,
                "duration": 0.19999999999999973,
                "tempo": 120.0
            },
            {
                "start_time": 2.436363636363636,
                "end_time": 2.6363636363636362,
                "pitch": 47,
                "velocity": 127,
                "duration": 0.20000000000000018,
                "tempo": 120.0
            },
            {
                "start_time": 2.6363636363636362,
                "end_time": 2.8363636363636364,
                "pitch": 35,
                "velocity": 127,
                "duration": 0.20000000000000018,
                "tempo": 120.0
            },
            {
                "start_time": 2.8363636363636364,
                "end_time": 3.036363636363636,
                "pitch": 47,
                "velocity": 127,
                "duration": 0.19999999999999973,
                "tempo": 120.0
            },
            {
                "start_time": 3.036363636363636,
                "end_time": 3.2363636363636363,
                "pitch": 35,
                "velocity": 127,
                "duration": 0.20000000000000018,
                "tempo": 120.0
            },
            {
                "start_time": 3.2363636363636363,
                "end_time": 3.436363636363636,
                "pitch": 47,
                "velocity": 127,
                "duration": 0.19999999999999973,
                "tempo": 120.0
            },
            {
                "start_time": 3.436363636363636,
                "end_time": 3.620454545454545,
                "pitch": 35,
                "velocity": 127,
                "duration": 0.18409090909090908,
                "tempo": 120.0
            },
            {
                "start_time": 3.620454545454545,
                "end_time": 3.8227272727272728,
                "pitch": 47,
                "velocity": 127,
                "duration": 0.2022727272727276,
                "tempo": 120.0
            },
            {
                "start_time": 3.8227272727272728,
                "end_time": 4.018181818181818,
                "pitch": 35,
                "velocity": 127,
                "duration": 0.19545454545454488,
                "tempo": 120.0
            },
            {
                "start_time": 4.018181818181818,
                "end_time": 4.213636363636364,
                "pitch": 47,
                "velocity": 127,
                "duration": 0.1954545454545462,
                "tempo": 120.0
            },
            {
                "start_time": 4.2318181818181815,
                "end_time": 4.413636363636363,
                "pitch": 35,
                "velocity": 127,
                "duration": 0.18181818181818166,
                "tempo": 120.0
            },
            {
                "start_time": 4.413636363636363,
                "end_time": 4.613636363636363,
                "pitch": 47,
                "velocity": 127,
                "duration": 0.20000000000000018,
                "tempo": 120.0
            },
            {
                "start_time": 4.613636363636363,
                "end_time": 4.8159090909090905,
                "pitch": 35,
                "velocity": 127,
                "duration": 0.20227272727272716,
                "tempo": 120.0
            },
            {
                "start_time": 4.8159090909090905,
                "end_time": 5.034090909090909,
                "pitch": 47,
                "velocity": 127,
                "duration": 0.2181818181818187,
                "tempo": 120.0
            },
            {
                "start_time": 5.034090909090909,
                "end_time": 5.245454545454545,
                "pitch": 35,
                "velocity": 127,
                "duration": 0.21136363636363598,
                "tempo": 120.0
            },
            {
                "start_time": 5.245454545454545,
                "end_time": 5.454545454545454,
                "pitch": 47,
                "velocity": 127,
                "duration": 0.209090909090909,
                "tempo": 120.0
            },
            {
                "start_time": 5.454545454545454,
                "end_time": 5.652272727272727,
                "pitch": 35,
                "velocity": 127,
                "duration": 0.1977272727272732,
                "tempo": 120.0
            },
            {
                "start_time": 5.652272727272727,
                "end_time": 5.847727272727273,
                "pitch": 47,
                "velocity": 127,
                "duration": 0.19545454545454533,
                "tempo": 120.0
            },
            {
                "start_time": 5.847727272727273,
                "end_time": 6.05,
                "pitch": 35,
                "velocity": 127,
                "duration": 0.20227272727272716,
                "tempo": 120.0
            },
            {
                "start_time": 6.05,
                "end_time": 6.25,
                "pitch": 47,
                "velocity": 127,
                "duration": 0.20000000000000018,
                "tempo": 120.0
            },
            {
                "start_time": 6.25,
                "end_time": 6.452272727272727,
                "pitch": 35,
                "velocity": 127,
                "duration": 0.20227272727272716,
                "tempo": 120.0
            },
            {
                "start_time": 6.452272727272727,
                "end_time": 6.652272727272727,
                "pitch": 47,
                "velocity": 127,
                "duration": 0.20000000000000018,
                "tempo": 120.0
            },
            {
                "start_time": 6.652272727272727,
                "end_time": 6.852272727272727,
                "pitch": 35,
                "velocity": 127,
                "duration": 0.1999999999999993,
                "tempo": 120.0
            },
            {
                "start_time": 6.852272727272727,
                "end_time": 7.052272727272727,
                "pitch": 47,
                "velocity": 127,
                "duration": 0.20000000000000018,
                "tempo": 120.0
            },
            {
                "start_time": 7.052272727272727,
                "end_time": 7.254545454545454,
                "pitch": 35,
                "velocity": 127,
                "duration": 0.20227272727272716,
                "tempo": 120.0
            },
            {
                "start_time": 7.254545454545454,
                "end_time": 7.456818181818181,
                "pitch": 47,
                "velocity": 127,
                "duration": 0.20227272727272716,
                "tempo": 120.0
            },
            {
                "start_time": 7.456818181818181,
                "end_time": 7.661363636363636,
                "pitch": 35,
                "velocity": 127,
                "duration": 0.20454545454545503,
                "tempo": 120.0
            },
            {
                "start_time": 7.661363636363636,
                "end_time": 7.86590909090909,
                "pitch": 47,
                "velocity": 127,
                "duration": 0.20454545454545414,
                "tempo": 120.0
            },
            {
                "start_time": 7.86590909090909,
                "end_time": 8.063636363636363,
                "pitch": 35,
                "velocity": 127,
                "duration": 0.1977272727272723,
                "tempo": 120.0
            },
            {
                "start_time": 8.063636363636363,
                "end_time": 8.259090909090908,
                "pitch": 47,
                "velocity": 127,
                "duration": 0.19545454545454533,
                "tempo": 120.0
            },
            {
                "start_time": 8.259090909090908,
                "end_time": 8.443181818181818,
                "pitch": 35,
                "velocity": 127,
                "duration": 0.18409090909091042,
                "tempo": 120.0
            },
            {
                "start_time": 8.443181818181818,
                "end_time": 8.645454545454545,
                "pitch": 47,
                "velocity": 127,
                "duration": 0.20227272727272627,
                "tempo": 120.0
            },
            {
                "start_time": 8.645454545454545,
                "end_time": 8.84090909090909,
                "pitch": 35,
                "velocity": 127,
                "duration": 0.19545454545454533,
                "tempo": 120.0
            },
            {
                "start_time": 8.84090909090909,
                "end_time": 9.036363636363635,
                "pitch": 47,
                "velocity": 127,
                "duration": 0.19545454545454533,
                "tempo": 120.0
            },
            {
                "start_time": 9.036363636363635,
                "end_time": 9.238636363636363,
                "pitch": 35,
                "velocity": 127,
                "duration": 0.20227272727272805,
                "tempo": 120.0
            },
            {
                "start_time": 9.238636363636363,
                "end_time": 9.438636363636363,
                "pitch": 47,
                "velocity": 127,
                "duration": 0.1999999999999993,
                "tempo": 120.0
            },
            {
                "start_time": 9.438636363636363,
                "end_time": 9.64090909090909,
                "pitch": 35,
                "velocity": 127,
                "duration": 0.20227272727272805,
                "tempo": 120.0
            },
            {
                "start_time": 9.64090909090909,
                "end_time": 9.85909090909091,
                "pitch": 47,
                "velocity": 127,
                "duration": 0.2181818181818187,
                "tempo": 120.0
            },
            {
                "start_time": 9.85909090909091,
                "end_time": 10.070454545454545,
                "pitch": 33,
                "velocity": 127,
                "duration": 0.21136363636363598,
                "tempo": 120.0
            },
            {
                "start_time": 10.070454545454545,
                "end_time": 10.281818181818181,
                "pitch": 45,
                "velocity": 127,
                "duration": 0.21136363636363598,
                "tempo": 120.0
            },
            {
                "start_time": 10.281818181818181,
                "end_time": 10.48181818181818,
                "pitch": 33,
                "velocity": 127,
                "duration": 0.1999999999999993,
                "tempo": 120.0
            },
            {
                "start_time": 10.48181818181818,
                "end_time": 10.684090909090909,
                "pitch": 45,
                "velocity": 127,
                "duration": 0.20227272727272805,
                "tempo": 120.0
            },
            {
                "start_time": 10.684090909090909,
                "end_time": 10.886363636363637,
                "pitch": 33,
                "velocity": 127,
                "duration": 0.20227272727272805,
                "tempo": 120.0
            },
            {
                "start_time": 10.886363636363637,
                "end_time": 11.086363636363636,
                "pitch": 45,
                "velocity": 127,
                "duration": 0.1999999999999993,
                "tempo": 120.0
            },
            {
                "start_time": 11.086363636363636,
                "end_time": 11.286363636363635,
                "pitch": 33,
                "velocity": 127,
                "duration": 0.1999999999999993,
                "tempo": 120.0
            },
            {
                "start_time": 11.286363636363635,
                "end_time": 11.486363636363636,
                "pitch": 45,
                "velocity": 127,
                "duration": 0.20000000000000107,
                "tempo": 120.0
            },
            {
                "start_time": 11.486363636363636,
                "end_time": 11.688636363636363,
                "pitch": 33,
                "velocity": 127,
                "duration": 0.20227272727272627,
                "tempo": 120.0
            },
            {
                "start_time": 11.688636363636363,
                "end_time": 11.888636363636364,
                "pitch": 45,
                "velocity": 127,
                "duration": 0.20000000000000107,
                "tempo": 120.0
            },
            {
                "start_time": 11.888636363636364,
                "end_time": 12.086363636363636,
                "pitch": 33,
                "velocity": 127,
                "duration": 0.1977272727272723,
                "tempo": 120.0
            },
            {
                "start_time": 12.086363636363636,
                "end_time": 12.281818181818181,
                "pitch": 45,
                "velocity": 127,
                "duration": 0.19545454545454533,
                "tempo": 120.0
            },
            {
                "start_time": 12.281818181818181,
                "end_time": 12.486363636363636,
                "pitch": 33,
                "velocity": 127,
                "duration": 0.20454545454545503,
                "tempo": 120.0
            },
            {
                "start_time": 12.486363636363636,
                "end_time": 12.693181818181818,
                "pitch": 45,
                "velocity": 127,
                "duration": 0.206818181818182,
                "tempo": 120.0
            },
            {
                "start_time": 12.693181818181818,
                "end_time": 12.893181818181818,
                "pitch": 33,
                "velocity": 127,
                "duration": 0.1999999999999993,
                "tempo": 120.0
            },
            {
                "start_time": 12.893181818181818,
                "end_time": 13.095454545454546,
                "pitch": 45,
                "velocity": 127,
                "duration": 0.20227272727272805,
                "tempo": 120.0
            },
            {
                "start_time": 13.095454545454546,
                "end_time": 13.279545454545454,
                "pitch": 35,
                "velocity": 127,
                "duration": 0.18409090909090864,
                "tempo": 120.0
            },
            {
                "start_time": 13.279545454545454,
                "end_time": 13.479545454545454,
                "pitch": 47,
                "velocity": 127,
                "duration": 0.1999999999999993,
                "tempo": 120.0
            },
            {
                "start_time": 13.479545454545454,
                "end_time": 13.674999999999999,
                "pitch": 35,
                "velocity": 127,
                "duration": 0.19545454545454533,
                "tempo": 120.0
            },
            {
                "start_time": 13.674999999999999,
                "end_time": 13.886363636363635,
                "pitch": 47,
                "velocity": 127,
                "duration": 0.21136363636363598,
                "tempo": 120.0
            },
            {
                "start_time": 13.886363636363635,
                "end_time": 14.075,
                "pitch": 35,
                "velocity": 127,
                "duration": 0.18863636363636438,
                "tempo": 120.0
            },
            {
                "start_time": 14.075,
                "end_time": 14.281818181818181,
                "pitch": 47,
                "velocity": 127,
                "duration": 0.206818181818182,
                "tempo": 120.0
            },
            {
                "start_time": 14.281818181818181,
                "end_time": 14.477272727272727,
                "pitch": 35,
                "velocity": 127,
                "duration": 0.19545454545454533,
                "tempo": 120.0
            },
            {
                "start_time": 14.477272727272727,
                "end_time": 14.69090909090909,
                "pitch": 47,
                "velocity": 127,
                "duration": 0.21363636363636296,
                "tempo": 120.0
            },
            {
                "start_time": 14.69090909090909,
                "end_time": 14.895454545454545,
                "pitch": 33,
                "velocity": 127,
                "duration": 0.20454545454545503,
                "tempo": 120.0
            },
            {
                "start_time": 14.895454545454545,
                "end_time": 15.1,
                "pitch": 45,
                "velocity": 127,
                "duration": 0.20454545454545503,
                "tempo": 120.0
            },
            {
                "start_time": 15.1,
                "end_time": 15.295454545454545,
                "pitch": 33,
                "velocity": 127,
                "duration": 0.19545454545454533,
                "tempo": 120.0
            },
            {
                "start_time": 15.295454545454545,
                "end_time": 15.493181818181817,
                "pitch": 45,
                "velocity": 127,
                "duration": 0.1977272727272723,
                "tempo": 120.0
            },
            {
                "start_time": 15.493181818181817,
                "end_time": 15.697727272727272,
                "pitch": 33,
                "velocity": 127,
                "duration": 0.20454545454545503,
                "tempo": 120.0
            },
            {
                "start_time": 15.697727272727272,
                "end_time": 15.902272727272727,
                "pitch": 45,
                "velocity": 127,
                "duration": 0.20454545454545503,
                "tempo": 120.0
            },
            {
                "start_time": 15.902272727272727,
                "end_time": 16.104545454545455,
                "pitch": 33,
                "velocity": 127,
                "duration": 0.20227272727272805,
                "tempo": 120.0
            },
            {
                "start_time": 16.104545454545455,
                "end_time": 16.30681818181818,
                "pitch": 45,
                "velocity": 127,
                "duration": 0.2022727272727245,
                "tempo": 120.0
            },
            {
                "start_time": 16.30681818181818,
                "end_time": 16.506818181818183,
                "pitch": 33,
                "velocity": 127,
                "duration": 0.20000000000000284,
                "tempo": 120.0
            },
            {
                "start_time": 16.506818181818183,
                "end_time": 16.706818181818182,
                "pitch": 45,
                "velocity": 127,
                "duration": 0.1999999999999993,
                "tempo": 120.0
            },
            {
                "start_time": 16.706818181818182,
                "end_time": 16.902272727272727,
                "pitch": 33,
                "velocity": 127,
                "duration": 0.19545454545454533,
                "tempo": 120.0
            },
            {
                "start_time": 16.902272727272727,
                "end_time": 17.097727272727273,
                "pitch": 45,
                "velocity": 127,
                "duration": 0.19545454545454533,
                "tempo": 120.0
            },
            {
                "start_time": 17.097727272727273,
                "end_time": 17.302272727272726,
                "pitch": 33,
                "velocity": 127,
                "duration": 0.20454545454545325,
                "tempo": 120.0
            },
            {
                "start_time": 17.302272727272726,
                "end_time": 17.509090909090908,
                "pitch": 45,
                "velocity": 127,
                "duration": 0.206818181818182,
                "tempo": 120.0
            },
            {
                "start_time": 17.509090909090908,
                "end_time": 17.709090909090907,
                "pitch": 33,
                "velocity": 127,
                "duration": 0.1999999999999993,
                "tempo": 120.0
            },
            {
                "start_time": 17.709090909090907,
                "end_time": 17.911363636363635,
                "pitch": 45,
                "velocity": 127,
                "duration": 0.20227272727272805,
                "tempo": 120.0
            },
            {
                "start_time": 17.911363636363635,
                "end_time": 18.09090909090909,
                "pitch": 35,
                "velocity": 127,
                "duration": 0.17954545454545467,
                "tempo": 120.0
            },
            {
                "start_time": 18.09090909090909,
                "end_time": 18.286363636363635,
                "pitch": 47,
                "velocity": 127,
                "duration": 0.19545454545454533,
                "tempo": 120.0
            },
            {
                "start_time": 18.286363636363635,
                "end_time": 18.488636363636363,
                "pitch": 35,
                "velocity": 127,
                "duration": 0.20227272727272805,
                "tempo": 120.0
            },
            {
                "start_time": 18.488636363636363,
                "end_time": 18.706818181818182,
                "pitch": 47,
                "velocity": 127,
                "duration": 0.2181818181818187,
                "tempo": 120.0
            },
            {
                "start_time": 18.706818181818182,
                "end_time": 18.888636363636362,
                "pitch": 35,
                "velocity": 127,
                "duration": 0.18181818181817988,
                "tempo": 120.0
            },
            {
                "start_time": 18.888636363636362,
                "end_time": 19.08863636363636,
                "pitch": 47,
                "velocity": 127,
                "duration": 0.1999999999999993,
                "tempo": 120.0
            },
            {
                "start_time": 19.08863636363636,
                "end_time": 19.29090909090909,
                "pitch": 35,
                "velocity": 127,
                "duration": 0.20227272727272805,
                "tempo": 120.0
            },
            {
                "start_time": 19.29090909090909,
                "end_time": 19.509090909090908,
                "pitch": 47,
                "velocity": 127,
                "duration": 0.2181818181818187,
                "tempo": 120.0
            },
            {
                "start_time": 19.509090909090908,
                "end_time": 19.709090909090907,
                "pitch": 35,
                "velocity": 127,
                "duration": 0.1999999999999993,
                "tempo": 120.0
            },
            {
                "start_time": 19.709090909090907,
                "end_time": 19.909090909090907,
                "pitch": 48,
                "velocity": 127,
                "duration": 0.1999999999999993,
                "tempo": 120.0
            },
            {
                "start_time": 19.909090909090907,
                "end_time": 20.113636363636363,
                "pitch": 36,
                "velocity": 127,
                "duration": 0.2045454545454568,
                "tempo": 120.0
            },
            {
                "start_time": 20.113636363636363,
                "end_time": 20.320454545454545,
                "pitch": 48,
                "velocity": 127,
                "duration": 0.206818181818182,
                "tempo": 120.0
            },
            {
                "start_time": 20.320454545454545,
                "end_time": 20.520454545454545,
                "pitch": 36,
                "velocity": 127,
                "duration": 0.1999999999999993,
                "tempo": 120.0
            },
            {
                "start_time": 20.520454545454545,
                "end_time": 20.720454545454544,
                "pitch": 48,
                "velocity": 127,
                "duration": 0.1999999999999993,
                "tempo": 120.0
            },
            {
                "start_time": 20.720454545454544,
                "end_time": 20.91590909090909,
                "pitch": 36,
                "velocity": 127,
                "duration": 0.19545454545454533,
                "tempo": 120.0
            },
            {
                "start_time": 20.91590909090909,
                "end_time": 21.111363636363635,
                "pitch": 48,
                "velocity": 127,
                "duration": 0.19545454545454533,
                "tempo": 120.0
            },
            {
                "start_time": 21.111363636363635,
                "end_time": 21.318181818181817,
                "pitch": 36,
                "velocity": 127,
                "duration": 0.206818181818182,
                "tempo": 120.0
            },
            {
                "start_time": 21.318181818181817,
                "end_time": 21.522727272727273,
                "pitch": 48,
                "velocity": 127,
                "duration": 0.2045454545454568,
                "tempo": 120.0
            },
            {
                "start_time": 21.522727272727273,
                "end_time": 21.724999999999998,
                "pitch": 36,
                "velocity": 127,
                "duration": 0.2022727272727245,
                "tempo": 120.0
            },
            {
                "start_time": 21.724999999999998,
                "end_time": 21.925,
                "pitch": 48,
                "velocity": 127,
                "duration": 0.20000000000000284,
                "tempo": 120.0
            },
            {
                "start_time": 21.925,
                "end_time": 22.125,
                "pitch": 36,
                "velocity": 127,
                "duration": 0.1999999999999993,
                "tempo": 120.0
            },
            {
                "start_time": 22.125,
                "end_time": 22.325,
                "pitch": 48,
                "velocity": 127,
                "duration": 0.1999999999999993,
                "tempo": 120.0
            },
            {
                "start_time": 22.325,
                "end_time": 22.522727272727273,
                "pitch": 36,
                "velocity": 127,
                "duration": 0.19772727272727408,
                "tempo": 120.0
            },
            {
                "start_time": 22.522727272727273,
                "end_time": 22.71818181818182,
                "pitch": 48,
                "velocity": 127,
                "duration": 0.19545454545454533,
                "tempo": 120.0
            },
            {
                "start_time": 22.71818181818182,
                "end_time": 22.922727272727272,
                "pitch": 36,
                "velocity": 127,
                "duration": 0.20454545454545325,
                "tempo": 120.0
            },
            {
                "start_time": 22.922727272727272,
                "end_time": 23.127272727272725,
                "pitch": 47,
                "velocity": 127,
                "duration": 0.20454545454545325,
                "tempo": 120.0
            },
            {
                "start_time": 23.127272727272725,
                "end_time": 23.325,
                "pitch": 35,
                "velocity": 127,
                "duration": 0.19772727272727408,
                "tempo": 120.0
            },
            {
                "start_time": 23.325,
                "end_time": 23.520454545454545,
                "pitch": 47,
                "velocity": 127,
                "duration": 0.19545454545454533,
                "tempo": 120.0
            },
            {
                "start_time": 23.520454545454545,
                "end_time": 23.720454545454544,
                "pitch": 35,
                "velocity": 127,
                "duration": 0.1999999999999993,
                "tempo": 120.0
            },
            {
                "start_time": 23.720454545454544,
                "end_time": 23.920454545454543,
                "pitch": 47,
                "velocity": 127,
                "duration": 0.1999999999999993,
                "tempo": 120.0
            },
            {
                "start_time": 23.920454545454543,
                "end_time": 24.120454545454546,
                "pitch": 35,
                "velocity": 127,
                "duration": 0.20000000000000284,
                "tempo": 120.0
            },
            {
                "start_time": 24.120454545454546,
                "end_time": 24.320454545454545,
                "pitch": 47,
                "velocity": 127,
                "duration": 0.1999999999999993,
                "tempo": 120.0
            },
            {
                "start_time": 24.320454545454545,
                "end_time": 24.52272727272727,
                "pitch": 35,
                "velocity": 127,
                "duration": 0.2022727272727245,
                "tempo": 120.0
            },
            {
                "start_time": 24.52272727272727,
                "end_time": 24.722727272727273,
                "pitch": 47,
                "velocity": 127,
                "duration": 0.20000000000000284,
                "tempo": 120.0
            },
            {
                "start_time": 24.722727272727273,
                "end_time": 24.922727272727272,
                "pitch": 35,
                "velocity": 127,
                "duration": 0.1999999999999993,
                "tempo": 120.0
            },
            {
                "start_time": 24.922727272727272,
                "end_time": 25.12272727272727,
                "pitch": 47,
                "velocity": 127,
                "duration": 0.1999999999999993,
                "tempo": 120.0
            },
            {
                "start_time": 25.12272727272727,
                "end_time": 25.325,
                "pitch": 35,
                "velocity": 127,
                "duration": 0.20227272727272805,
                "tempo": 120.0
            },
            {
                "start_time": 25.325,
                "end_time": 25.525,
                "pitch": 47,
                "velocity": 127,
                "duration": 0.1999999999999993,
                "tempo": 120.0
            },
            {
                "start_time": 25.525,
                "end_time": 25.724999999999998,
                "pitch": 35,
                "velocity": 127,
                "duration": 0.1999999999999993,
                "tempo": 120.0
            },
            {
                "start_time": 25.724999999999998,
                "end_time": 25.924999999999997,
                "pitch": 47,
                "velocity": 127,
                "duration": 0.1999999999999993,
                "tempo": 120.0
            },
            {
                "start_time": 25.924999999999997,
                "end_time": 26.125,
                "pitch": 35,
                "velocity": 127,
                "duration": 0.20000000000000284,
                "tempo": 120.0
            },
            {
                "start_time": 26.125,
                "end_time": 26.325,
                "pitch": 48,
                "velocity": 127,
                "duration": 0.1999999999999993,
                "tempo": 120.0
            },
            {
                "start_time": 26.325,
                "end_time": 26.527272727272727,
                "pitch": 36,
                "velocity": 127,
                "duration": 0.20227272727272805,
                "tempo": 120.0
            },
            {
                "start_time": 26.527272727272727,
                "end_time": 26.729545454545452,
                "pitch": 48,
                "velocity": 127,
                "duration": 0.2022727272727245,
                "tempo": 120.0
            },
            {
                "start_time": 26.729545454545452,
                "end_time": 26.929545454545455,
                "pitch": 36,
                "velocity": 127,
                "duration": 0.20000000000000284,
                "tempo": 120.0
            },
            {
                "start_time": 26.929545454545455,
                "end_time": 27.129545454545454,
                "pitch": 48,
                "velocity": 127,
                "duration": 0.1999999999999993,
                "tempo": 120.0
            },
            {
                "start_time": 27.129545454545454,
                "end_time": 27.329545454545453,
                "pitch": 36,
                "velocity": 127,
                "duration": 0.1999999999999993,
                "tempo": 120.0
            },
            {
                "start_time": 27.329545454545453,
                "end_time": 27.53181818181818,
                "pitch": 48,
                "velocity": 127,
                "duration": 0.20227272727272805,
                "tempo": 120.0
            },
            {
                "start_time": 27.53181818181818,
                "end_time": 27.736363636363635,
                "pitch": 36,
                "velocity": 127,
                "duration": 0.20454545454545325,
                "tempo": 120.0
            },
            {
                "start_time": 27.736363636363635,
                "end_time": 27.940909090909088,
                "pitch": 48,
                "velocity": 127,
                "duration": 0.20454545454545325,
                "tempo": 120.0
            },
            {
                "start_time": 27.940909090909088,
                "end_time": 28.138636363636362,
                "pitch": 36,
                "velocity": 127,
                "duration": 0.19772727272727408,
                "tempo": 120.0
            },
            {
                "start_time": 28.138636363636362,
                "end_time": 28.334090909090907,
                "pitch": 48,
                "velocity": 127,
                "duration": 0.19545454545454533,
                "tempo": 120.0
            },
            {
                "start_time": 28.334090909090907,
                "end_time": 28.538636363636364,
                "pitch": 36,
                "velocity": 127,
                "duration": 0.2045454545454568,
                "tempo": 120.0
            },
            {
                "start_time": 28.538636363636364,
                "end_time": 28.745454545454542,
                "pitch": 48,
                "velocity": 127,
                "duration": 0.20681818181817846,
                "tempo": 120.0
            },
            {
                "start_time": 28.745454545454542,
                "end_time": 28.940909090909088,
                "pitch": 36,
                "velocity": 127,
                "duration": 0.19545454545454533,
                "tempo": 120.0
            },
            {
                "start_time": 28.940909090909088,
                "end_time": 29.136363636363637,
                "pitch": 48,
                "velocity": 127,
                "duration": 0.19545454545454888,
                "tempo": 120.0
            },
            {
                "start_time": 29.136363636363637,
                "end_time": 29.34090909090909,
                "pitch": 38,
                "velocity": 127,
                "duration": 0.20454545454545325,
                "tempo": 120.0
            },
            {
                "start_time": 29.34090909090909,
                "end_time": 29.547727272727272,
                "pitch": 50,
                "velocity": 127,
                "duration": 0.206818181818182,
                "tempo": 120.0
            },
            {
                "start_time": 29.547727272727272,
                "end_time": 29.743181818181817,
                "pitch": 38,
                "velocity": 127,
                "duration": 0.19545454545454533,
                "tempo": 120.0
            },
            {
                "start_time": 29.743181818181817,
                "end_time": 29.938636363636363,
                "pitch": 50,
                "velocity": 127,
                "duration": 0.19545454545454533,
                "tempo": 120.0
            },
            {
                "start_time": 29.938636363636363,
                "end_time": 30.138636363636362,
                "pitch": 38,
                "velocity": 127,
                "duration": 0.1999999999999993,
                "tempo": 120.0
            },
            {
                "start_time": 30.138636363636362,
                "end_time": 30.33863636363636,
                "pitch": 50,
                "velocity": 127,
                "duration": 0.1999999999999993,
                "tempo": 120.0
            },
            {
                "start_time": 30.33863636363636,
                "end_time": 30.545454545454543,
                "pitch": 38,
                "velocity": 127,
                "duration": 0.206818181818182,
                "tempo": 120.0
            },
            {
                "start_time": 30.545454545454543,
                "end_time": 30.75,
                "pitch": 50,
                "velocity": 127,
                "duration": 0.2045454545454568,
                "tempo": 120.0
            },
            {
                "start_time": 30.75,
                "end_time": 30.945454545454545,
                "pitch": 36,
                "velocity": 127,
                "duration": 0.19545454545454533,
                "tempo": 120.0
            },
            {
                "start_time": 30.945454545454545,
                "end_time": 31.143181818181816,
                "pitch": 48,
                "velocity": 127,
                "duration": 0.19772727272727053,
                "tempo": 120.0
            },
            {
                "start_time": 31.143181818181816,
                "end_time": 31.343181818181815,
                "pitch": 36,
                "velocity": 127,
                "duration": 0.1999999999999993,
                "tempo": 120.0
            },
            {
                "start_time": 31.343181818181815,
                "end_time": 31.545454545454543,
                "pitch": 48,
                "velocity": 127,
                "duration": 0.20227272727272805,
                "tempo": 120.0
            },
            {
                "start_time": 31.545454545454543,
                "end_time": 31.745454545454542,
                "pitch": 36,
                "velocity": 127,
                "duration": 0.1999999999999993,
                "tempo": 120.0
            },
            {
                "start_time": 31.745454545454542,
                "end_time": 31.945454545454545,
                "pitch": 48,
                "velocity": 127,
                "duration": 0.20000000000000284,
                "tempo": 120.0
            },
            {
                "start_time": 31.945454545454545,
                "end_time": 32.14545454545454,
                "pitch": 36,
                "velocity": 127,
                "duration": 0.19999999999999574,
                "tempo": 120.0
            },
            {
                "start_time": 32.14545454545454,
                "end_time": 32.345454545454544,
                "pitch": 48,
                "velocity": 127,
                "duration": 0.20000000000000284,
                "tempo": 120.0
            },
            {
                "start_time": 32.345454545454544,
                "end_time": 32.527272727272724,
                "pitch": 36,
                "velocity": 127,
                "duration": 0.18181818181817988,
                "tempo": 120.0
            },
            {
                "start_time": 32.527272727272724,
                "end_time": 32.72727272727273,
                "pitch": 47,
                "velocity": 127,
                "duration": 0.20000000000000284,
                "tempo": 120.0
            },
            {
                "start_time": 32.72727272727273,
                "end_time": 32.929545454545455,
                "pitch": 35,
                "velocity": 127,
                "duration": 0.20227272727272805,
                "tempo": 120.0
            },
            {
                "start_time": 32.929545454545455,
                "end_time": 33.14772727272727,
                "pitch": 47,
                "velocity": 127,
                "duration": 0.2181818181818187,
                "tempo": 120.0
            },
            {
                "start_time": 33.14772727272727,
                "end_time": 33.33181818181818,
                "pitch": 35,
                "velocity": 127,
                "duration": 0.18409090909090509,
                "tempo": 120.0
            },
            {
                "start_time": 33.33181818181818,
                "end_time": 33.53181818181818,
                "pitch": 47,
                "velocity": 127,
                "duration": 0.20000000000000284,
                "tempo": 120.0
            },
            {
                "start_time": 33.53181818181818,
                "end_time": 33.72727272727273,
                "pitch": 35,
                "velocity": 127,
                "duration": 0.19545454545454533,
                "tempo": 120.0
            },
            {
                "start_time": 33.72727272727273,
                "end_time": 33.93863636363636,
                "pitch": 47,
                "velocity": 127,
                "duration": 0.21136363636363598,
                "tempo": 120.0
            }
        ]
    }
}