{
    "track_id": "Golvellius - Valley of Doom (FM) - 19 - Fourth Boss - Fosbus",
    "mood": "angry",
    "instruments": {
        "Trumpet": [
            {
                "start_time": 0.031818181818181815,
                "end_time": 0.08181818181818182,
                "pitch": 55,
                "velocity": 64,
                "duration": 0.05,
                "tempo": 120.0
            },
            {
                "start_time": 0.08181818181818182,
                "end_time": 0.15,
                "pitch": 55,
                "velocity": 64,
                "duration": 0.06818181818181818,
                "tempo": 120.0
            },
            {
                "start_time": 0.15,
                "end_time": 0.2159090909090909,
                "pitch": 55,
                "velocity": 64,
                "duration": 0.06590909090909092,
                "tempo": 120.0
            },
            {
                "start_time": 0.2159090909090909,
                "end_time": 0.28409090909090906,
                "pitch": 55,
                "velocity": 64,
                "duration": 0.06818181818181815,
                "tempo": 120.0
            },
            {
                "start_time": 0.28409090909090906,
                "end_time": 0.35,
                "pitch": 55,
                "velocity": 64,
                "duration": 0.06590909090909092,
                "tempo": 120.0
            },
            {
                "start_time": 0.35,
                "end_time": 0.4159090909090909,
                "pitch": 55,
                "velocity": 64,
                "duration": 0.06590909090909092,
                "tempo": 120.0
            },
            {
                "start_time": 0.4159090909090909,
                "end_time": 0.48409090909090907,
                "pitch": 55,
                "velocity": 64,
                "duration": 0.06818181818181818,
                "tempo": 120.0
            },
            {
                "start_time": 0.48409090909090907,
                "end_time": 0.5499999999999999,
                "pitch": 55,
                "velocity": 64,
                "duration": 0.06590909090909086,
                "tempo": 120.0
            },
            {
                "start_time": 0.5499999999999999,
                "end_time": 0.6181818181818182,
                "pitch": 55,
                "velocity": 64,
                "duration": 0.06818181818181823,
                "tempo": 120.0
            },
            {
                "start_time": 0.6181818181818182,
                "end_time": 0.6840909090909091,
                "pitch": 55,
                "velocity": 64,
                "duration": 0.06590909090909092,
                "tempo": 120.0
            },
            {
                "start_time": 0.6840909090909091,
                "end_time": 0.75,
                "pitch": 55,
                "velocity": 64,
                "duration": 0.06590909090909092,
                "tempo": 120.0
            },
            {
                "start_time": 0.75,
                "end_time": 0.8181818181818181,
                "pitch": 55,
                "velocity": 64,
                "duration": 0.06818181818181812,
                "tempo": 120.0
            },
            {
                "start_time": 0.8181818181818181,
                "end_time": 0.884090909090909,
                "pitch": 55,
                "velocity": 64,
                "duration": 0.06590909090909092,
                "tempo": 120.0
            },
            {
                "start_time": 0.884090909090909,
                "end_time": 0.9522727272727273,
                "pitch": 55,
                "velocity": 64,
                "duration": 0.06818181818181823,
                "tempo": 120.0
            },
            {
                "start_time": 0.9522727272727273,
                "end_time": 1.018181818181818,
                "pitch": 55,
                "velocity": 64,
                "duration": 0.0659090909090908,
                "tempo": 120.0
            },
            {
                "start_time": 1.018181818181818,
                "end_time": 1.084090909090909,
                "pitch": 55,
                "velocity": 64,
                "duration": 0.06590909090909092,
                "tempo": 120.0
            },
            {
                "start_time": 1.084090909090909,
                "end_time": 1.1522727272727271,
                "pitch": 55,
                "velocity": 64,
                "duration": 0.06818181818181812,
                "tempo": 120.0
            },
            {
                "start_time": 1.1522727272727271,
                "end_time": 1.218181818181818,
                "pitch": 55,
                "velocity": 64,
                "duration": 0.06590909090909092,
                "tempo": 120.0
            },
            {
                "start_time": 1.218181818181818,
                "end_time": 1.2863636363636364,
                "pitch": 55,
                "velocity": 64,
                "duration": 0.06818181818181834,
                "tempo": 120.0
            },
            {
                "start_time": 1.2863636363636364,
                "end_time": 1.3545454545454545,
                "pitch": 55,
                "velocity": 64,
                "duration": 0.06818181818181812,
                "tempo": 120.0
            },
            {
                "start_time": 1.3545454545454545,
                "end_time": 1.4227272727272726,
                "pitch": 55,
                "velocity": 64,
                "duration": 0.06818181818181812,
                "tempo": 120.0
            },
            {
                "start_time": 1.4227272727272726,
                "end_time": 1.4931818181818182,
                "pitch": 55,
                "velocity": 64,
                "duration": 0.07045454545454555,
                "tempo": 120.0
            },
            {
                "start_time": 1.4931818181818182,
                "end_time": 1.5613636363636363,
                "pitch": 55,
                "velocity": 64,
                "duration": 0.06818181818181812,
                "tempo": 120.0
            },
            {
                "start_time": 1.5613636363636363,
                "end_time": 1.6295454545454544,
                "pitch": 55,
                "velocity": 64,
                "duration": 0.06818181818181812,
                "tempo": 120.0
            },
            {
                "start_time": 1.6295454545454544,
                "end_time": 1.6818181818181817,
                "pitch": 55,
                "velocity": 64,
                "duration": 0.05227272727272725,
                "tempo": 120.0
            },
            {
                "start_time": 1.6818181818181817,
                "end_time": 3.286363636363636,
                "pitch": 62,
                "velocity": 64,
                "duration": 1.6045454545454545,
                "tempo": 120.0
            },
            {
                "start_time": 3.286363636363636,
                "end_time": 4.909090909090909,
                "pitch": 58,
                "velocity": 64,
                "duration": 1.622727272727273,
                "tempo": 120.0
            },
            {
                "start_time": 4.909090909090909,
                "end_time": 6.518181818181818,
                "pitch": 65,
                "velocity": 64,
                "duration": 1.6090909090909085,
                "tempo": 120.0
            },
            {
                "start_time": 6.518181818181818,
                "end_time": 8.143181818181818,
                "pitch": 65,
                "velocity": 64,
                "duration": 1.625,
                "tempo": 120.0
            },
            {
                "start_time": 8.143181818181818,
                "end_time": 9.763636363636364,
                "pitch": 60,
                "velocity": 64,
                "duration": 1.620454545454546,
                "tempo": 120.0
            },
            {
                "start_time": 9.763636363636364,
                "end_time": 11.375,
                "pitch": 63,
                "velocity": 64,
                "duration": 1.6113636363636363,
                "tempo": 120.0
            },
            {
                "start_time": 11.375,
                "end_time": 12.997727272727271,
                "pitch": 57,
                "velocity": 64,
                "duration": 1.6227272727272712,
                "tempo": 120.0
            }
        ],
        "Acoustic Bass": [
            {
                "start_time": 0.031818181818181815,
                "end_time": 0.25,
                "pitch": 28,
                "velocity": 101,
                "duration": 0.2181818181818182,
                "tempo": 120.0
            },
            {
                "start_time": 0.25,
                "end_time": 0.44999999999999996,
                "pitch": 28,
                "velocity": 101,
                "duration": 0.19999999999999996,
                "tempo": 120.0
            },
            {
                "start_time": 0.44999999999999996,
                "end_time": 0.65,
                "pitch": 28,
                "velocity": 101,
                "duration": 0.20000000000000007,
                "tempo": 120.0
            },
            {
                "start_time": 0.65,
                "end_time": 0.8522727272727272,
                "pitch": 28,
                "velocity": 101,
                "duration": 0.20227272727272716,
                "tempo": 120.0
            },
            {
                "start_time": 0.8522727272727272,
                "end_time": 1.0522727272727272,
                "pitch": 28,
                "velocity": 101,
                "duration": 0.20000000000000007,
                "tempo": 120.0
            },
            {
                "start_time": 1.0522727272727272,
                "end_time": 1.2522727272727272,
                "pitch": 28,
                "velocity": 101,
                "duration": 0.19999999999999996,
                "tempo": 120.0
            },
            {
                "start_time": 1.268181818181818,
                "end_time": 1.4568181818181818,
                "pitch": 28,
                "velocity": 101,
                "duration": 0.1886363636363637,
                "tempo": 120.0
            },
            {
                "start_time": 1.4749999999999999,
                "end_time": 1.6818181818181817,
                "pitch": 28,
                "velocity": 101,
                "duration": 0.2068181818181818,
                "tempo": 120.0
            },
            {
                "start_time": 1.6818181818181817,
                "end_time": 1.8772727272727272,
                "pitch": 25,
                "velocity": 101,
                "duration": 0.19545454545454555,
                "tempo": 120.0
            },
            {
                "start_time": 1.8772727272727272,
                "end_time": 2.0545454545454542,
                "pitch": 25,
                "velocity": 101,
                "duration": 0.17727272727272703,
                "tempo": 120.0
            },
            {
                "start_time": 2.0545454545454542,
                "end_time": 2.2818181818181817,
                "pitch": 25,
                "velocity": 101,
                "duration": 0.22727272727272751,
                "tempo": 120.0
            },
            {
                "start_time": 2.2818181818181817,
                "end_time": 2.477272727272727,
                "pitch": 25,
                "velocity": 101,
                "duration": 0.19545454545454533,
                "tempo": 120.0
            },
            {
                "start_time": 2.477272727272727,
                "end_time": 2.6795454545454542,
                "pitch": 25,
                "velocity": 101,
                "duration": 0.20227272727272716,
                "tempo": 120.0
            },
            {
                "start_time": 2.6795454545454542,
                "end_time": 2.8795454545454544,
                "pitch": 25,
                "velocity": 101,
                "duration": 0.20000000000000018,
                "tempo": 120.0
            },
            {
                "start_time": 2.8795454545454544,
                "end_time": 3.0749999999999997,
                "pitch": 25,
                "velocity": 101,
                "duration": 0.19545454545454533,
                "tempo": 120.0
            },
            {
                "start_time": 3.0749999999999997,
                "end_time": 3.286363636363636,
                "pitch": 25,
                "velocity": 101,
                "duration": 0.21136363636363642,
                "tempo": 120.0
            },
            {
                "start_time": 3.286363636363636,
                "end_time": 3.4909090909090907,
                "pitch": 31,
                "velocity": 101,
                "duration": 0.20454545454545459,
                "tempo": 120.0
            },
            {
                "start_time": 3.4909090909090907,
                "end_time": 3.6795454545454542,
                "pitch": 31,
                "velocity": 101,
                "duration": 0.1886363636363635,
                "tempo": 120.0
            },
            {
                "start_time": 3.6795454545454542,
                "end_time": 3.877272727272727,
                "pitch": 31,
                "velocity": 101,
                "duration": 0.19772727272727275,
                "tempo": 120.0
            },
            {
                "start_time": 3.877272727272727,
                "end_time": 4.090909090909091,
                "pitch": 31,
                "velocity": 101,
                "duration": 0.21363636363636385,
                "tempo": 120.0
            },
            {
                "start_time": 4.090909090909091,
                "end_time": 4.2704545454545455,
                "pitch": 31,
                "velocity": 101,
                "duration": 0.17954545454545467,
                "tempo": 120.0
            },
            {
                "start_time": 4.2704545454545455,
                "end_time": 4.497727272727272,
                "pitch": 31,
                "velocity": 101,
                "duration": 0.22727272727272663,
                "tempo": 120.0
            },
            {
                "start_time": 4.497727272727272,
                "end_time": 4.702272727272727,
                "pitch": 31,
                "velocity": 101,
                "duration": 0.20454545454545503,
                "tempo": 120.0
            },
            {
                "start_time": 4.702272727272727,
                "end_time": 4.909090909090909,
                "pitch": 31,
                "velocity": 101,
                "duration": 0.206818181818182,
                "tempo": 120.0
            },
            {
                "start_time": 4.909090909090909,
                "end_time": 5.1068181818181815,
                "pitch": 31,
                "velocity": 101,
                "duration": 0.1977272727272723,
                "tempo": 120.0
            },
            {
                "start_time": 5.1068181818181815,
                "end_time": 5.302272727272727,
                "pitch": 33,
                "velocity": 101,
                "duration": 0.19545454545454533,
                "tempo": 120.0
            },
            {
                "start_time": 5.302272727272727,
                "end_time": 5.497727272727272,
                "pitch": 33,
                "velocity": 101,
                "duration": 0.19545454545454533,
                "tempo": 120.0
            },
            {
                "start_time": 5.497727272727272,
                "end_time": 5.711363636363636,
                "pitch": 33,
                "velocity": 101,
                "duration": 0.21363636363636385,
                "tempo": 120.0
            },
            {
                "start_time": 5.711363636363636,
                "end_time": 5.8954545454545455,
                "pitch": 33,
                "velocity": 101,
                "duration": 0.18409090909090953,
                "tempo": 120.0
            },
            {
                "start_time": 5.8954545454545455,
                "end_time": 6.111363636363636,
                "pitch": 33,
                "velocity": 101,
                "duration": 0.21590909090909083,
                "tempo": 120.0
            },
            {
                "start_time": 6.111363636363636,
                "end_time": 6.306818181818182,
                "pitch": 33,
                "velocity": 101,
                "duration": 0.19545454545454533,
                "tempo": 120.0
            },
            {
                "start_time": 6.306818181818182,
                "end_time": 6.518181818181818,
                "pitch": 33,
                "velocity": 101,
                "duration": 0.21136363636363598,
                "tempo": 120.0
            },
            {
                "start_time": 6.518181818181818,
                "end_time": 6.725,
                "pitch": 28,
                "velocity": 101,
                "duration": 0.206818181818182,
                "tempo": 120.0
            },
            {
                "start_time": 6.725,
                "end_time": 6.931818181818182,
                "pitch": 28,
                "velocity": 101,
                "duration": 0.206818181818182,
                "tempo": 120.0
            },
            {
                "start_time": 6.931818181818182,
                "end_time": 7.127272727272727,
                "pitch": 28,
                "velocity": 101,
                "duration": 0.19545454545454533,
                "tempo": 120.0
            },
            {
                "start_time": 7.127272727272727,
                "end_time": 7.324999999999999,
                "pitch": 28,
                "velocity": 101,
                "duration": 0.1977272727272723,
                "tempo": 120.0
            },
            {
                "start_time": 7.324999999999999,
                "end_time": 7.518181818181818,
                "pitch": 28,
                "velocity": 101,
                "duration": 0.19318181818181834,
                "tempo": 120.0
            },
            {
                "start_time": 7.518181818181818,
                "end_time": 7.7295454545454545,
                "pitch": 28,
                "velocity": 101,
                "duration": 0.21136363636363686,
                "tempo": 120.0
            },
            {
                "start_time": 7.7295454545454545,
                "end_time": 7.936363636363636,
                "pitch": 28,
                "velocity": 101,
                "duration": 0.20681818181818112,
                "tempo": 120.0
            },
            {
                "start_time": 7.936363636363636,
                "end_time": 8.143181818181818,
                "pitch": 28,
                "velocity": 101,
                "duration": 0.206818181818182,
                "tempo": 120.0
            },
            {
                "start_time": 8.143181818181818,
                "end_time": 8.338636363636363,
                "pitch": 25,
                "velocity": 101,
                "duration": 0.19545454545454533,
                "tempo": 120.0
            },
            {
                "start_time": 8.338636363636363,
                "end_time": 8.520454545454545,
                "pitch": 25,
                "velocity": 101,
                "duration": 0.18181818181818166,
                "tempo": 120.0
            },
            {
                "start_time": 8.520454545454545,
                "end_time": 8.752272727272727,
                "pitch": 25,
                "velocity": 101,
                "duration": 0.23181818181818237,
                "tempo": 120.0
            },
            {
                "start_time": 8.752272727272727,
                "end_time": 8.952272727272726,
                "pitch": 25,
                "velocity": 101,
                "duration": 0.1999999999999993,
                "tempo": 120.0
            },
            {
                "start_time": 8.952272727272726,
                "end_time": 9.154545454545454,
                "pitch": 25,
                "velocity": 101,
                "duration": 0.20227272727272805,
                "tempo": 120.0
            },
            {
                "start_time": 9.154545454545454,
                "end_time": 9.354545454545454,
                "pitch": 25,
                "velocity": 101,
                "duration": 0.1999999999999993,
                "tempo": 120.0
            },
            {
                "start_time": 9.354545454545454,
                "end_time": 9.549999999999999,
                "pitch": 25,
                "velocity": 101,
                "duration": 0.19545454545454533,
                "tempo": 120.0
            },
            {
                "start_time": 9.549999999999999,
                "end_time": 9.763636363636364,
                "pitch": 25,
                "velocity": 101,
                "duration": 0.21363636363636473,
                "tempo": 120.0
            },
            {
                "start_time": 9.763636363636364,
                "end_time": 9.963636363636363,
                "pitch": 31,
                "velocity": 101,
                "duration": 0.1999999999999993,
                "tempo": 120.0
            },
            {
                "start_time": 9.963636363636363,
                "end_time": 10.147727272727272,
                "pitch": 31,
                "velocity": 101,
                "duration": 0.18409090909090864,
                "tempo": 120.0
            },
            {
                "start_time": 10.147727272727272,
                "end_time": 10.343181818181817,
                "pitch": 31,
                "velocity": 101,
                "duration": 0.19545454545454533,
                "tempo": 120.0
            },
            {
                "start_time": 10.343181818181817,
                "end_time": 10.554545454545455,
                "pitch": 31,
                "velocity": 101,
                "duration": 0.21136363636363775,
                "tempo": 120.0
            },
            {
                "start_time": 10.554545454545455,
                "end_time": 10.768181818181818,
                "pitch": 31,
                "velocity": 101,
                "duration": 0.21363636363636296,
                "tempo": 120.0
            },
            {
                "start_time": 10.768181818181818,
                "end_time": 10.963636363636363,
                "pitch": 31,
                "velocity": 101,
                "duration": 0.19545454545454533,
                "tempo": 120.0
            },
            {
                "start_time": 10.963636363636363,
                "end_time": 11.170454545454545,
                "pitch": 31,
                "velocity": 101,
                "duration": 0.206818181818182,
                "tempo": 120.0
            },
            {
                "start_time": 11.170454545454545,
                "end_time": 11.375,
                "pitch": 31,
                "velocity": 101,
                "duration": 0.20454545454545503,
                "tempo": 120.0
            },
            {
                "start_time": 11.375,
                "end_time": 11.572727272727272,
                "pitch": 31,
                "velocity": 101,
                "duration": 0.1977272727272723,
                "tempo": 120.0
            },
            {
                "start_time": 11.572727272727272,
                "end_time": 11.768181818181818,
                "pitch": 33,
                "velocity": 101,
                "duration": 0.19545454545454533,
                "tempo": 120.0
            },
            {
                "start_time": 11.768181818181818,
                "end_time": 11.970454545454546,
                "pitch": 33,
                "velocity": 101,
                "duration": 0.20227272727272805,
                "tempo": 120.0
            },
            {
                "start_time": 11.970454545454546,
                "end_time": 12.186363636363636,
                "pitch": 33,
                "velocity": 101,
                "duration": 0.21590909090908994,
                "tempo": 120.0
            },
            {
                "start_time": 12.186363636363636,
                "end_time": 12.36590909090909,
                "pitch": 33,
                "velocity": 101,
                "duration": 0.17954545454545467,
                "tempo": 120.0
            },
            {
                "start_time": 12.36590909090909,
                "end_time": 12.579545454545453,
                "pitch": 33,
                "velocity": 101,
                "duration": 0.21363636363636296,
                "tempo": 120.0
            },
            {
                "start_time": 12.579545454545453,
                "end_time": 12.779545454545454,
                "pitch": 33,
                "velocity": 101,
                "duration": 0.20000000000000107,
                "tempo": 120.0
            },
            {
                "start_time": 12.779545454545454,
                "end_time": 12.997727272727271,
                "pitch": 33,
                "velocity": 101,
                "duration": 0.21818181818181692,
                "tempo": 120.0
            }
        ]
    }
}