{
    "track_id": "Golvellius - Valley of Doom (FM) - 04 - First Cave",
    "mood": "angry",
    "instruments": {
        "Acoustic Bass": [
            {
                "start_time": 0.02727272727272727,
                "end_time": 0.1431818181818182,
                "pitch": 43,
                "velocity": 80,
                "duration": 0.11590909090909092,
                "tempo": 120.0
            },
            {
                "start_time": 0.1431818181818182,
                "end_time": 0.2772727272727273,
                "pitch": 43,
                "velocity": 80,
                "duration": 0.1340909090909091,
                "tempo": 120.0
            },
            {
                "start_time": 0.2772727272727273,
                "end_time": 0.3931818181818182,
                "pitch": 43,
                "velocity": 80,
                "duration": 0.1159090909090909,
                "tempo": 120.0
            },
            {
                "start_time": 0.3931818181818182,
                "end_time": 0.5272727272727272,
                "pitch": 43,
                "velocity": 80,
                "duration": 0.13409090909090904,
                "tempo": 120.0
            },
            {
                "start_time": 0.5272727272727272,
                "end_time": 0.6477272727272727,
                "pitch": 43,
                "velocity": 80,
                "duration": 0.12045454545454548,
                "tempo": 120.0
            },
            {
                "start_time": 0.6477272727272727,
                "end_time": 0.7840909090909091,
                "pitch": 43,
                "velocity": 80,
                "duration": 0.13636363636363635,
                "tempo": 120.0
            },
            {
                "start_time": 0.7840909090909091,
                "end_time": 0.9022727272727272,
                "pitch": 43,
                "velocity": 80,
                "duration": 0.11818181818181817,
                "tempo": 120.0
            },
            {
                "start_time": 0.9022727272727272,
                "end_time": 1.0409090909090908,
                "pitch": 43,
                "velocity": 80,
                "duration": 0.13863636363636356,
                "tempo": 120.0
            },
            {
                "start_time": 1.0409090909090908,
                "end_time": 1.1568181818181817,
                "pitch": 43,
                "velocity": 80,
                "duration": 0.11590909090909096,
                "tempo": 120.0
            },
            {
                "start_time": 1.1568181818181817,
                "end_time": 1.2909090909090908,
                "pitch": 43,
                "velocity": 80,
                "duration": 0.13409090909090904,
                "tempo": 120.0
            },
            {
                "start_time": 1.2909090909090908,
                "end_time": 1.4068181818181817,
                "pitch": 43,
                "velocity": 80,
                "duration": 0.11590909090909096,
                "tempo": 120.0
            },
            {
                "start_time": 1.4068181818181817,
                "end_time": 1.5409090909090908,
                "pitch": 43,
                "velocity": 80,
                "duration": 0.13409090909090904,
                "tempo": 120.0
            },
            {
                "start_time": 1.5409090909090908,
                "end_time": 1.6568181818181817,
                "pitch": 43,
                "velocity": 80,
                "duration": 0.11590909090909096,
                "tempo": 120.0
            },
            {
                "start_time": 1.6568181818181817,
                "end_time": 1.7909090909090908,
                "pitch": 43,
                "velocity": 80,
                "duration": 0.13409090909090904,
                "tempo": 120.0
            },
            {
                "start_time": 1.7909090909090908,
                "end_time": 1.9068181818181817,
                "pitch": 43,
                "velocity": 80,
                "duration": 0.11590909090909096,
                "tempo": 120.0
            },
            {
                "start_time": 1.9068181818181817,
                "end_time": 2.040909090909091,
                "pitch": 43,
                "velocity": 80,
                "duration": 0.13409090909090926,
                "tempo": 120.0
            },
            {
                "start_time": 2.040909090909091,
                "end_time": 2.159090909090909,
                "pitch": 43,
                "velocity": 80,
                "duration": 0.11818181818181817,
                "tempo": 120.0
            },
            {
                "start_time": 2.159090909090909,
                "end_time": 2.2954545454545454,
                "pitch": 43,
                "velocity": 80,
                "duration": 0.13636363636363624,
                "tempo": 120.0
            },
            {
                "start_time": 2.2954545454545454,
                "end_time": 2.4318181818181817,
                "pitch": 43,
                "velocity": 80,
                "duration": 0.13636363636363624,
                "tempo": 120.0
            },
            {
                "start_time": 2.4318181818181817,
                "end_time": 2.5522727272727272,
                "pitch": 43,
                "velocity": 80,
                "duration": 0.12045454545454559,
                "tempo": 120.0
            },
            {
                "start_time": 2.5522727272727272,
                "end_time": 2.684090909090909,
                "pitch": 43,
                "velocity": 80,
                "duration": 0.13181818181818183,
                "tempo": 120.0
            },
            {
                "start_time": 2.684090909090909,
                "end_time": 2.7977272727272724,
                "pitch": 43,
                "velocity": 80,
                "duration": 0.11363636363636331,
                "tempo": 120.0
            },
            {
                "start_time": 2.7977272727272724,
                "end_time": 2.9295454545454542,
                "pitch": 43,
                "velocity": 80,
                "duration": 0.13181818181818183,
                "tempo": 120.0
            },
            {
                "start_time": 2.9295454545454542,
                "end_time": 3.0454545454545454,
                "pitch": 43,
                "velocity": 80,
                "duration": 0.11590909090909118,
                "tempo": 120.0
            },
            {
                "start_time": 3.0454545454545454,
                "end_time": 3.1772727272727272,
                "pitch": 43,
                "velocity": 80,
                "duration": 0.13181818181818183,
                "tempo": 120.0
            },
            {
                "start_time": 3.1772727272727272,
                "end_time": 3.2954545454545454,
                "pitch": 43,
                "velocity": 80,
                "duration": 0.11818181818181817,
                "tempo": 120.0
            },
            {
                "start_time": 3.2954545454545454,
                "end_time": 3.4272727272727272,
                "pitch": 43,
                "velocity": 80,
                "duration": 0.13181818181818183,
                "tempo": 120.0
            },
            {
                "start_time": 3.4272727272727272,
                "end_time": 3.5454545454545454,
                "pitch": 43,
                "velocity": 80,
                "duration": 0.11818181818181817,
                "tempo": 120.0
            },
            {
                "start_time": 3.5454545454545454,
                "end_time": 3.675,
                "pitch": 43,
                "velocity": 80,
                "duration": 0.1295454545454544,
                "tempo": 120.0
            },
            {
                "start_time": 3.675,
                "end_time": 3.7909090909090906,
                "pitch": 43,
                "velocity": 80,
                "duration": 0.11590909090909074,
                "tempo": 120.0
            },
            {
                "start_time": 3.7909090909090906,
                "end_time": 3.9204545454545454,
                "pitch": 43,
                "velocity": 80,
                "duration": 0.12954545454545485,
                "tempo": 120.0
            },
            {
                "start_time": 3.9204545454545454,
                "end_time": 4.052272727272727,
                "pitch": 43,
                "velocity": 80,
                "duration": 0.1318181818181814,
                "tempo": 120.0
            },
            {
                "start_time": 4.052272727272727,
                "end_time": 4.175,
                "pitch": 41,
                "velocity": 80,
                "duration": 0.12272727272727302,
                "tempo": 120.0
            },
            {
                "start_time": 4.175,
                "end_time": 4.295454545454545,
                "pitch": 41,
                "velocity": 80,
                "duration": 0.12045454545454515,
                "tempo": 120.0
            },
            {
                "start_time": 4.295454545454545,
                "end_time": 4.4363636363636365,
                "pitch": 41,
                "velocity": 80,
                "duration": 0.14090909090909154,
                "tempo": 120.0
            },
            {
                "start_time": 4.4363636363636365,
                "end_time": 4.575,
                "pitch": 41,
                "velocity": 80,
                "duration": 0.13863636363636367,
                "tempo": 120.0
            },
            {
                "start_time": 4.575,
                "end_time": 4.6909090909090905,
                "pitch": 41,
                "velocity": 80,
                "duration": 0.1159090909090903,
                "tempo": 120.0
            },
            {
                "start_time": 4.6909090909090905,
                "end_time": 4.825,
                "pitch": 41,
                "velocity": 80,
                "duration": 0.1340909090909097,
                "tempo": 120.0
            },
            {
                "start_time": 4.825,
                "end_time": 4.9409090909090905,
                "pitch": 41,
                "velocity": 80,
                "duration": 0.1159090909090903,
                "tempo": 120.0
            },
            {
                "start_time": 4.9409090909090905,
                "end_time": 5.075,
                "pitch": 41,
                "velocity": 80,
                "duration": 0.1340909090909097,
                "tempo": 120.0
            },
            {
                "start_time": 5.075,
                "end_time": 5.1909090909090905,
                "pitch": 41,
                "velocity": 80,
                "duration": 0.1159090909090903,
                "tempo": 120.0
            },
            {
                "start_time": 5.1909090909090905,
                "end_time": 5.325,
                "pitch": 41,
                "velocity": 80,
                "duration": 0.1340909090909097,
                "tempo": 120.0
            },
            {
                "start_time": 5.325,
                "end_time": 5.4409090909090905,
                "pitch": 41,
                "velocity": 80,
                "duration": 0.1159090909090903,
                "tempo": 120.0
            },
            {
                "start_time": 5.4409090909090905,
                "end_time": 5.574999999999999,
                "pitch": 41,
                "velocity": 80,
                "duration": 0.13409090909090882,
                "tempo": 120.0
            },
            {
                "start_time": 5.574999999999999,
                "end_time": 5.6909090909090905,
                "pitch": 41,
                "velocity": 80,
                "duration": 0.11590909090909118,
                "tempo": 120.0
            },
            {
                "start_time": 5.6909090909090905,
                "end_time": 5.824999999999999,
                "pitch": 41,
                "velocity": 80,
                "duration": 0.13409090909090882,
                "tempo": 120.0
            },
            {
                "start_time": 5.824999999999999,
                "end_time": 5.9409090909090905,
                "pitch": 41,
                "velocity": 80,
                "duration": 0.11590909090909118,
                "tempo": 120.0
            },
            {
                "start_time": 5.9409090909090905,
                "end_time": 6.074999999999999,
                "pitch": 41,
                "velocity": 80,
                "duration": 0.13409090909090882,
                "tempo": 120.0
            },
            {
                "start_time": 6.074999999999999,
                "end_time": 6.1909090909090905,
                "pitch": 41,
                "velocity": 80,
                "duration": 0.11590909090909118,
                "tempo": 120.0
            },
            {
                "start_time": 6.1909090909090905,
                "end_time": 6.324999999999999,
                "pitch": 41,
                "velocity": 80,
                "duration": 0.13409090909090882,
                "tempo": 120.0
            },
            {
                "start_time": 6.324999999999999,
                "end_time": 6.4409090909090905,
                "pitch": 41,
                "velocity": 80,
                "duration": 0.11590909090909118,
                "tempo": 120.0
            },
            {
                "start_time": 6.4409090909090905,
                "end_time": 6.574999999999999,
                "pitch": 41,
                "velocity": 80,
                "duration": 0.13409090909090882,
                "tempo": 120.0
            },
            {
                "start_time": 6.574999999999999,
                "end_time": 6.706818181818181,
                "pitch": 41,
                "velocity": 80,
                "duration": 0.13181818181818183,
                "tempo": 120.0
            },
            {
                "start_time": 6.706818181818181,
                "end_time": 6.824999999999999,
                "pitch": 41,
                "velocity": 80,
                "duration": 0.11818181818181817,
                "tempo": 120.0
            },
            {
                "start_time": 6.824999999999999,
                "end_time": 6.956818181818181,
                "pitch": 41,
                "velocity": 80,
                "duration": 0.13181818181818183,
                "tempo": 120.0
            },
            {
                "start_time": 6.956818181818181,
                "end_time": 7.074999999999999,
                "pitch": 41,
                "velocity": 80,
                "duration": 0.11818181818181817,
                "tempo": 120.0
            },
            {
                "start_time": 7.074999999999999,
                "end_time": 7.206818181818181,
                "pitch": 41,
                "velocity": 80,
                "duration": 0.13181818181818183,
                "tempo": 120.0
            },
            {
                "start_time": 7.206818181818181,
                "end_time": 7.324999999999999,
                "pitch": 41,
                "velocity": 80,
                "duration": 0.11818181818181817,
                "tempo": 120.0
            },
            {
                "start_time": 7.324999999999999,
                "end_time": 7.456818181818181,
                "pitch": 41,
                "velocity": 80,
                "duration": 0.13181818181818183,
                "tempo": 120.0
            },
            {
                "start_time": 7.456818181818181,
                "end_time": 7.574999999999999,
                "pitch": 41,
                "velocity": 80,
                "duration": 0.11818181818181817,
                "tempo": 120.0
            },
            {
                "start_time": 7.574999999999999,
                "end_time": 7.706818181818181,
                "pitch": 41,
                "velocity": 80,
                "duration": 0.13181818181818183,
                "tempo": 120.0
            },
            {
                "start_time": 7.706818181818181,
                "end_time": 7.824999999999999,
                "pitch": 41,
                "velocity": 80,
                "duration": 0.11818181818181817,
                "tempo": 120.0
            },
            {
                "start_time": 7.824999999999999,
                "end_time": 7.956818181818181,
                "pitch": 41,
                "velocity": 80,
                "duration": 0.13181818181818183,
                "tempo": 120.0
            },
            {
                "start_time": 7.956818181818181,
                "end_time": 8.09090909090909,
                "pitch": 41,
                "velocity": 80,
                "duration": 0.13409090909090882,
                "tempo": 120.0
            },
            {
                "start_time": 8.09090909090909,
                "end_time": 8.211363636363636,
                "pitch": 39,
                "velocity": 80,
                "duration": 0.12045454545454604,
                "tempo": 120.0
            },
            {
                "start_time": 8.211363636363636,
                "end_time": 8.329545454545453,
                "pitch": 39,
                "velocity": 80,
                "duration": 0.11818181818181728,
                "tempo": 120.0
            },
            {
                "start_time": 8.329545454545453,
                "end_time": 8.468181818181817,
                "pitch": 39,
                "velocity": 80,
                "duration": 0.13863636363636367,
                "tempo": 120.0
            },
            {
                "start_time": 8.468181818181817,
                "end_time": 8.586363636363636,
                "pitch": 39,
                "velocity": 80,
                "duration": 0.11818181818181905,
                "tempo": 120.0
            },
            {
                "start_time": 8.586363636363636,
                "end_time": 8.718181818181817,
                "pitch": 39,
                "velocity": 80,
                "duration": 0.13181818181818095,
                "tempo": 120.0
            },
            {
                "start_time": 8.718181818181817,
                "end_time": 8.85,
                "pitch": 39,
                "velocity": 80,
                "duration": 0.13181818181818272,
                "tempo": 120.0
            },
            {
                "start_time": 8.85,
                "end_time": 8.963636363636363,
                "pitch": 39,
                "velocity": 80,
                "duration": 0.11363636363636331,
                "tempo": 120.0
            },
            {
                "start_time": 8.963636363636363,
                "end_time": 9.095454545454546,
                "pitch": 39,
                "velocity": 80,
                "duration": 0.13181818181818272,
                "tempo": 120.0
            },
            {
                "start_time": 9.095454545454546,
                "end_time": 9.21590909090909,
                "pitch": 39,
                "velocity": 80,
                "duration": 0.12045454545454426,
                "tempo": 120.0
            },
            {
                "start_time": 9.21590909090909,
                "end_time": 9.35681818181818,
                "pitch": 39,
                "velocity": 80,
                "duration": 0.14090909090909065,
                "tempo": 120.0
            },
            {
                "start_time": 9.35681818181818,
                "end_time": 9.477272727272727,
                "pitch": 39,
                "velocity": 80,
                "duration": 0.12045454545454604,
                "tempo": 120.0
            },
            {
                "start_time": 9.477272727272727,
                "end_time": 9.61590909090909,
                "pitch": 39,
                "velocity": 80,
                "duration": 0.13863636363636367,
                "tempo": 120.0
            },
            {
                "start_time": 9.61590909090909,
                "end_time": 9.73409090909091,
                "pitch": 39,
                "velocity": 80,
                "duration": 0.11818181818181905,
                "tempo": 120.0
            },
            {
                "start_time": 9.73409090909091,
                "end_time": 9.86590909090909,
                "pitch": 39,
                "velocity": 80,
                "duration": 0.13181818181818095,
                "tempo": 120.0
            },
            {
                "start_time": 9.86590909090909,
                "end_time": 9.98409090909091,
                "pitch": 39,
                "velocity": 80,
                "duration": 0.11818181818181905,
                "tempo": 120.0
            },
            {
                "start_time": 9.98409090909091,
                "end_time": 10.134090909090908,
                "pitch": 39,
                "velocity": 80,
                "duration": 0.14999999999999858,
                "tempo": 120.0
            },
            {
                "start_time": 10.134090909090908,
                "end_time": 10.238636363636363,
                "pitch": 39,
                "velocity": 80,
                "duration": 0.10454545454545539,
                "tempo": 120.0
            },
            {
                "start_time": 10.238636363636363,
                "end_time": 10.377272727272727,
                "pitch": 39,
                "velocity": 80,
                "duration": 0.13863636363636367,
                "tempo": 120.0
            },
            {
                "start_time": 10.377272727272727,
                "end_time": 10.497727272727273,
                "pitch": 39,
                "velocity": 80,
                "duration": 0.12045454545454604,
                "tempo": 120.0
            },
            {
                "start_time": 10.497727272727273,
                "end_time": 10.638636363636364,
                "pitch": 39,
                "velocity": 80,
                "duration": 0.14090909090909065,
                "tempo": 120.0
            },
            {
                "start_time": 10.638636363636364,
                "end_time": 10.75,
                "pitch": 39,
                "velocity": 80,
                "duration": 0.11136363636363633,
                "tempo": 120.0
            },
            {
                "start_time": 10.75,
                "end_time": 10.879545454545454,
                "pitch": 39,
                "velocity": 80,
                "duration": 0.12954545454545396,
                "tempo": 120.0
            },
            {
                "start_time": 10.879545454545454,
                "end_time": 11.009090909090908,
                "pitch": 39,
                "velocity": 80,
                "duration": 0.12954545454545396,
                "tempo": 120.0
            },
            {
                "start_time": 11.009090909090908,
                "end_time": 11.122727272727273,
                "pitch": 39,
                "velocity": 80,
                "duration": 0.11363636363636509,
                "tempo": 120.0
            },
            {
                "start_time": 11.122727272727273,
                "end_time": 11.254545454545454,
                "pitch": 39,
                "velocity": 80,
                "duration": 0.13181818181818095,
                "tempo": 120.0
            },
            {
                "start_time": 11.254545454545454,
                "end_time": 11.370454545454544,
                "pitch": 39,
                "velocity": 80,
                "duration": 0.1159090909090903,
                "tempo": 120.0
            },
            {
                "start_time": 11.370454545454544,
                "end_time": 11.504545454545454,
                "pitch": 39,
                "velocity": 80,
                "duration": 0.1340909090909097,
                "tempo": 120.0
            },
            {
                "start_time": 11.504545454545454,
                "end_time": 11.620454545454544,
                "pitch": 39,
                "velocity": 80,
                "duration": 0.1159090909090903,
                "tempo": 120.0
            },
            {
                "start_time": 11.620454545454544,
                "end_time": 11.754545454545454,
                "pitch": 39,
                "velocity": 80,
                "duration": 0.1340909090909097,
                "tempo": 120.0
            },
            {
                "start_time": 11.754545454545454,
                "end_time": 11.870454545454544,
                "pitch": 39,
                "velocity": 80,
                "duration": 0.1159090909090903,
                "tempo": 120.0
            },
            {
                "start_time": 11.870454545454544,
                "end_time": 12.004545454545454,
                "pitch": 39,
                "velocity": 80,
                "duration": 0.1340909090909097,
                "tempo": 120.0
            },
            {
                "start_time": 12.004545454545454,
                "end_time": 12.138636363636364,
                "pitch": 39,
                "velocity": 80,
                "duration": 0.1340909090909097,
                "tempo": 120.0
            },
            {
                "start_time": 12.138636363636364,
                "end_time": 12.259090909090908,
                "pitch": 39,
                "velocity": 80,
                "duration": 0.12045454545454426,
                "tempo": 120.0
            },
            {
                "start_time": 12.259090909090908,
                "end_time": 12.381818181818181,
                "pitch": 38,
                "velocity": 80,
                "duration": 0.12272727272727302,
                "tempo": 120.0
            },
            {
                "start_time": 12.381818181818181,
                "end_time": 12.520454545454545,
                "pitch": 38,
                "velocity": 80,
                "duration": 0.13863636363636367,
                "tempo": 120.0
            },
            {
                "start_time": 12.520454545454545,
                "end_time": 12.643181818181818,
                "pitch": 38,
                "velocity": 80,
                "duration": 0.12272727272727302,
                "tempo": 120.0
            },
            {
                "start_time": 12.643181818181818,
                "end_time": 12.772727272727272,
                "pitch": 38,
                "velocity": 80,
                "duration": 0.12954545454545396,
                "tempo": 120.0
            },
            {
                "start_time": 12.772727272727272,
                "end_time": 12.884090909090908,
                "pitch": 38,
                "velocity": 80,
                "duration": 0.11136363636363633,
                "tempo": 120.0
            },
            {
                "start_time": 12.884090909090908,
                "end_time": 13.013636363636364,
                "pitch": 38,
                "velocity": 80,
                "duration": 0.12954545454545574,
                "tempo": 120.0
            },
            {
                "start_time": 13.013636363636364,
                "end_time": 13.143181818181818,
                "pitch": 38,
                "velocity": 80,
                "duration": 0.12954545454545396,
                "tempo": 120.0
            },
            {
                "start_time": 13.143181818181818,
                "end_time": 13.263636363636364,
                "pitch": 38,
                "velocity": 80,
                "duration": 0.12045454545454604,
                "tempo": 120.0
            },
            {
                "start_time": 13.263636363636364,
                "end_time": 13.402272727272727,
                "pitch": 38,
                "velocity": 80,
                "duration": 0.13863636363636367,
                "tempo": 120.0
            },
            {
                "start_time": 13.402272727272727,
                "end_time": 13.524999999999999,
                "pitch": 38,
                "velocity": 80,
                "duration": 0.12272727272727124,
                "tempo": 120.0
            },
            {
                "start_time": 13.524999999999999,
                "end_time": 13.663636363636362,
                "pitch": 38,
                "velocity": 80,
                "duration": 0.13863636363636367,
                "tempo": 120.0
            },
            {
                "start_time": 13.663636363636362,
                "end_time": 13.781818181818181,
                "pitch": 38,
                "velocity": 80,
                "duration": 0.11818181818181905,
                "tempo": 120.0
            },
            {
                "start_time": 13.781818181818181,
                "end_time": 13.913636363636362,
                "pitch": 38,
                "velocity": 80,
                "duration": 0.13181818181818095,
                "tempo": 120.0
            },
            {
                "start_time": 13.913636363636362,
                "end_time": 14.031818181818181,
                "pitch": 38,
                "velocity": 80,
                "duration": 0.11818181818181905,
                "tempo": 120.0
            },
            {
                "start_time": 14.031818181818181,
                "end_time": 14.181818181818182,
                "pitch": 38,
                "velocity": 80,
                "duration": 0.15000000000000036,
                "tempo": 120.0
            },
            {
                "start_time": 14.181818181818182,
                "end_time": 14.284090909090908,
                "pitch": 38,
                "velocity": 80,
                "duration": 0.10227272727272663,
                "tempo": 120.0
            },
            {
                "start_time": 14.284090909090908,
                "end_time": 14.420454545454545,
                "pitch": 38,
                "velocity": 80,
                "duration": 0.1363636363636367,
                "tempo": 120.0
            },
            {
                "start_time": 14.420454545454545,
                "end_time": 14.538636363636362,
                "pitch": 38,
                "velocity": 80,
                "duration": 0.11818181818181728,
                "tempo": 120.0
            },
            {
                "start_time": 14.538636363636362,
                "end_time": 14.677272727272726,
                "pitch": 38,
                "velocity": 80,
                "duration": 0.13863636363636367,
                "tempo": 120.0
            },
            {
                "start_time": 14.677272727272726,
                "end_time": 14.790909090909091,
                "pitch": 38,
                "velocity": 80,
                "duration": 0.11363636363636509,
                "tempo": 120.0
            },
            {
                "start_time": 14.790909090909091,
                "end_time": 14.922727272727272,
                "pitch": 38,
                "velocity": 80,
                "duration": 0.13181818181818095,
                "tempo": 120.0
            },
            {
                "start_time": 14.922727272727272,
                "end_time": 15.036363636363635,
                "pitch": 38,
                "velocity": 80,
                "duration": 0.11363636363636331,
                "tempo": 120.0
            },
            {
                "start_time": 15.036363636363635,
                "end_time": 15.168181818181818,
                "pitch": 38,
                "velocity": 80,
                "duration": 0.13181818181818272,
                "tempo": 120.0
            },
            {
                "start_time": 15.168181818181818,
                "end_time": 15.299999999999999,
                "pitch": 38,
                "velocity": 80,
                "duration": 0.13181818181818095,
                "tempo": 120.0
            },
            {
                "start_time": 15.299999999999999,
                "end_time": 15.431818181818182,
                "pitch": 38,
                "velocity": 80,
                "duration": 0.13181818181818272,
                "tempo": 120.0
            },
            {
                "start_time": 15.431818181818182,
                "end_time": 15.545454545454545,
                "pitch": 38,
                "velocity": 80,
                "duration": 0.11363636363636331,
                "tempo": 120.0
            },
            {
                "start_time": 15.545454545454545,
                "end_time": 15.661363636363635,
                "pitch": 38,
                "velocity": 80,
                "duration": 0.1159090909090903,
                "tempo": 120.0
            },
            {
                "start_time": 15.661363636363635,
                "end_time": 15.797727272727272,
                "pitch": 38,
                "velocity": 80,
                "duration": 0.1363636363636367,
                "tempo": 120.0
            },
            {
                "start_time": 15.797727272727272,
                "end_time": 15.915909090909091,
                "pitch": 38,
                "velocity": 80,
                "duration": 0.11818181818181905,
                "tempo": 120.0
            },
            {
                "start_time": 15.915909090909091,
                "end_time": 16.052272727272726,
                "pitch": 38,
                "velocity": 80,
                "duration": 0.1363636363636349,
                "tempo": 120.0
            },
            {
                "start_time": 16.052272727272726,
                "end_time": 16.19090909090909,
                "pitch": 38,
                "velocity": 80,
                "duration": 0.13863636363636545,
                "tempo": 120.0
            },
            {
                "start_time": 16.19090909090909,
                "end_time": 16.30909090909091,
                "pitch": 43,
                "velocity": 80,
                "duration": 0.11818181818181728,
                "tempo": 120.0
            },
            {
                "start_time": 16.30909090909091,
                "end_time": 16.429545454545455,
                "pitch": 43,
                "velocity": 80,
                "duration": 0.12045454545454604,
                "tempo": 120.0
            },
            {
                "start_time": 16.429545454545455,
                "end_time": 16.56590909090909,
                "pitch": 43,
                "velocity": 80,
                "duration": 0.1363636363636367,
                "tempo": 120.0
            },
            {
                "start_time": 16.56590909090909,
                "end_time": 16.686363636363634,
                "pitch": 43,
                "velocity": 80,
                "duration": 0.12045454545454248,
                "tempo": 120.0
            },
            {
                "start_time": 16.686363636363634,
                "end_time": 16.818181818181817,
                "pitch": 43,
                "velocity": 80,
                "duration": 0.13181818181818272,
                "tempo": 120.0
            },
            {
                "start_time": 16.818181818181817,
                "end_time": 16.93181818181818,
                "pitch": 43,
                "velocity": 80,
                "duration": 0.11363636363636331,
                "tempo": 120.0
            },
            {
                "start_time": 16.93181818181818,
                "end_time": 17.063636363636363,
                "pitch": 43,
                "velocity": 80,
                "duration": 0.13181818181818272,
                "tempo": 120.0
            },
            {
                "start_time": 17.063636363636363,
                "end_time": 17.177272727272726,
                "pitch": 43,
                "velocity": 80,
                "duration": 0.11363636363636331,
                "tempo": 120.0
            },
            {
                "start_time": 17.177272727272726,
                "end_time": 17.311363636363634,
                "pitch": 43,
                "velocity": 80,
                "duration": 0.13409090909090793,
                "tempo": 120.0
            },
            {
                "start_time": 17.311363636363634,
                "end_time": 17.445454545454545,
                "pitch": 43,
                "velocity": 80,
                "duration": 0.13409090909091148,
                "tempo": 120.0
            },
            {
                "start_time": 17.445454545454545,
                "end_time": 17.561363636363634,
                "pitch": 43,
                "velocity": 80,
                "duration": 0.11590909090908852,
                "tempo": 120.0
            },
            {
                "start_time": 17.561363636363634,
                "end_time": 17.695454545454545,
                "pitch": 43,
                "velocity": 80,
                "duration": 0.13409090909091148,
                "tempo": 120.0
            },
            {
                "start_time": 17.695454545454545,
                "end_time": 17.81590909090909,
                "pitch": 43,
                "velocity": 80,
                "duration": 0.12045454545454604,
                "tempo": 120.0
            },
            {
                "start_time": 17.81590909090909,
                "end_time": 17.954545454545453,
                "pitch": 43,
                "velocity": 80,
                "duration": 0.1386363636363619,
                "tempo": 120.0
            },
            {
                "start_time": 17.954545454545453,
                "end_time": 18.077272727272728,
                "pitch": 43,
                "velocity": 80,
                "duration": 0.1227272727272748,
                "tempo": 120.0
            },
            {
                "start_time": 18.077272727272728,
                "end_time": 18.21590909090909,
                "pitch": 43,
                "velocity": 80,
                "duration": 0.1386363636363619,
                "tempo": 120.0
            },
            {
                "start_time": 18.23409090909091,
                "end_time": 18.336363636363636,
                "pitch": 43,
                "velocity": 80,
                "duration": 0.10227272727272663,
                "tempo": 120.0
            },
            {
                "start_time": 18.336363636363636,
                "end_time": 18.472727272727273,
                "pitch": 43,
                "velocity": 80,
                "duration": 0.1363636363636367,
                "tempo": 120.0
            },
            {
                "start_time": 18.472727272727273,
                "end_time": 18.59318181818182,
                "pitch": 43,
                "velocity": 80,
                "duration": 0.12045454545454604,
                "tempo": 120.0
            },
            {
                "start_time": 18.59318181818182,
                "end_time": 18.729545454545455,
                "pitch": 43,
                "velocity": 80,
                "duration": 0.1363636363636367,
                "tempo": 120.0
            },
            {
                "start_time": 18.729545454545455,
                "end_time": 18.84090909090909,
                "pitch": 43,
                "velocity": 80,
                "duration": 0.11136363636363455,
                "tempo": 120.0
            },
            {
                "start_time": 18.84090909090909,
                "end_time": 18.970454545454544,
                "pitch": 43,
                "velocity": 80,
                "duration": 0.12954545454545396,
                "tempo": 120.0
            },
            {
                "start_time": 18.970454545454544,
                "end_time": 19.084090909090907,
                "pitch": 43,
                "velocity": 80,
                "duration": 0.11363636363636331,
                "tempo": 120.0
            },
            {
                "start_time": 19.084090909090907,
                "end_time": 19.21363636363636,
                "pitch": 43,
                "velocity": 80,
                "duration": 0.12954545454545396,
                "tempo": 120.0
            },
            {
                "start_time": 19.21363636363636,
                "end_time": 19.329545454545453,
                "pitch": 43,
                "velocity": 80,
                "duration": 0.11590909090909207,
                "tempo": 120.0
            },
            {
                "start_time": 19.329545454545453,
                "end_time": 19.46363636363636,
                "pitch": 43,
                "velocity": 80,
                "duration": 0.13409090909090793,
                "tempo": 120.0
            },
            {
                "start_time": 19.46363636363636,
                "end_time": 19.595454545454544,
                "pitch": 43,
                "velocity": 80,
                "duration": 0.13181818181818272,
                "tempo": 120.0
            },
            {
                "start_time": 19.595454545454544,
                "end_time": 19.71363636363636,
                "pitch": 43,
                "velocity": 80,
                "duration": 0.11818181818181728,
                "tempo": 120.0
            },
            {
                "start_time": 19.71363636363636,
                "end_time": 19.845454545454544,
                "pitch": 43,
                "velocity": 80,
                "duration": 0.13181818181818272,
                "tempo": 120.0
            },
            {
                "start_time": 19.845454545454544,
                "end_time": 19.96363636363636,
                "pitch": 43,
                "velocity": 80,
                "duration": 0.11818181818181728,
                "tempo": 120.0
            },
            {
                "start_time": 19.96363636363636,
                "end_time": 20.095454545454544,
                "pitch": 43,
                "velocity": 80,
                "duration": 0.13181818181818272,
                "tempo": 120.0
            },
            {
                "start_time": 20.095454545454544,
                "end_time": 20.229545454545452,
                "pitch": 43,
                "velocity": 80,
                "duration": 0.13409090909090793,
                "tempo": 120.0
            },
            {
                "start_time": 20.229545454545452,
                "end_time": 20.349999999999998,
                "pitch": 41,
                "velocity": 80,
                "duration": 0.12045454545454604,
                "tempo": 120.0
            },
            {
                "start_time": 20.349999999999998,
                "end_time": 20.472727272727273,
                "pitch": 41,
                "velocity": 80,
                "duration": 0.1227272727272748,
                "tempo": 120.0
            },
            {
                "start_time": 20.472727272727273,
                "end_time": 20.611363636363635,
                "pitch": 41,
                "velocity": 80,
                "duration": 0.1386363636363619,
                "tempo": 120.0
            },
            {
                "start_time": 20.611363636363635,
                "end_time": 20.73409090909091,
                "pitch": 41,
                "velocity": 80,
                "duration": 0.1227272727272748,
                "tempo": 120.0
            },
            {
                "start_time": 20.73409090909091,
                "end_time": 20.863636363636363,
                "pitch": 41,
                "velocity": 80,
                "duration": 0.12954545454545396,
                "tempo": 120.0
            },
            {
                "start_time": 20.863636363636363,
                "end_time": 20.974999999999998,
                "pitch": 41,
                "velocity": 80,
                "duration": 0.11136363636363455,
                "tempo": 120.0
            },
            {
                "start_time": 20.974999999999998,
                "end_time": 21.104545454545452,
                "pitch": 41,
                "velocity": 80,
                "duration": 0.12954545454545396,
                "tempo": 120.0
            },
            {
                "start_time": 21.104545454545452,
                "end_time": 21.23409090909091,
                "pitch": 41,
                "velocity": 80,
                "duration": 0.12954545454545752,
                "tempo": 120.0
            },
            {
                "start_time": 21.23409090909091,
                "end_time": 21.354545454545452,
                "pitch": 41,
                "velocity": 80,
                "duration": 0.12045454545454248,
                "tempo": 120.0
            },
            {
                "start_time": 21.354545454545452,
                "end_time": 21.477272727272727,
                "pitch": 41,
                "velocity": 80,
                "duration": 0.1227272727272748,
                "tempo": 120.0
            },
            {
                "start_time": 21.477272727272727,
                "end_time": 21.61590909090909,
                "pitch": 41,
                "velocity": 80,
                "duration": 0.1386363636363619,
                "tempo": 120.0
            },
            {
                "start_time": 21.61590909090909,
                "end_time": 21.754545454545454,
                "pitch": 41,
                "velocity": 80,
                "duration": 0.13863636363636545,
                "tempo": 120.0
            },
            {
                "start_time": 21.754545454545454,
                "end_time": 21.87272727272727,
                "pitch": 41,
                "velocity": 80,
                "duration": 0.11818181818181728,
                "tempo": 120.0
            },
            {
                "start_time": 21.87272727272727,
                "end_time": 22.004545454545454,
                "pitch": 41,
                "velocity": 80,
                "duration": 0.13181818181818272,
                "tempo": 120.0
            },
            {
                "start_time": 22.004545454545454,
                "end_time": 22.12272727272727,
                "pitch": 41,
                "velocity": 80,
                "duration": 0.11818181818181728,
                "tempo": 120.0
            },
            {
                "start_time": 22.12272727272727,
                "end_time": 22.254545454545454,
                "pitch": 41,
                "velocity": 80,
                "duration": 0.13181818181818272,
                "tempo": 120.0
            },
            {
                "start_time": 22.254545454545454,
                "end_time": 22.375,
                "pitch": 41,
                "velocity": 80,
                "duration": 0.12045454545454604,
                "tempo": 120.0
            },
            {
                "start_time": 22.375,
                "end_time": 22.511363636363637,
                "pitch": 41,
                "velocity": 80,
                "duration": 0.1363636363636367,
                "tempo": 120.0
            },
            {
                "start_time": 22.511363636363637,
                "end_time": 22.63181818181818,
                "pitch": 41,
                "velocity": 80,
                "duration": 0.12045454545454248,
                "tempo": 120.0
            },
            {
                "start_time": 22.63181818181818,
                "end_time": 22.768181818181816,
                "pitch": 41,
                "velocity": 80,
                "duration": 0.1363636363636367,
                "tempo": 120.0
            },
            {
                "start_time": 22.768181818181816,
                "end_time": 22.88181818181818,
                "pitch": 41,
                "velocity": 80,
                "duration": 0.11363636363636331,
                "tempo": 120.0
            },
            {
                "start_time": 22.88181818181818,
                "end_time": 23.013636363636362,
                "pitch": 41,
                "velocity": 80,
                "duration": 0.13181818181818272,
                "tempo": 120.0
            },
            {
                "start_time": 23.013636363636362,
                "end_time": 23.129545454545454,
                "pitch": 41,
                "velocity": 80,
                "duration": 0.11590909090909207,
                "tempo": 120.0
            },
            {
                "start_time": 23.129545454545454,
                "end_time": 23.259090909090908,
                "pitch": 41,
                "velocity": 80,
                "duration": 0.12954545454545396,
                "tempo": 120.0
            },
            {
                "start_time": 23.259090909090908,
                "end_time": 23.377272727272725,
                "pitch": 41,
                "velocity": 80,
                "duration": 0.11818181818181728,
                "tempo": 120.0
            },
            {
                "start_time": 23.377272727272725,
                "end_time": 23.509090909090908,
                "pitch": 41,
                "velocity": 80,
                "duration": 0.13181818181818272,
                "tempo": 120.0
            },
            {
                "start_time": 23.509090909090908,
                "end_time": 23.627272727272725,
                "pitch": 41,
                "velocity": 80,
                "duration": 0.11818181818181728,
                "tempo": 120.0
            },
            {
                "start_time": 23.627272727272725,
                "end_time": 23.759090909090908,
                "pitch": 41,
                "velocity": 80,
                "duration": 0.13181818181818272,
                "tempo": 120.0
            },
            {
                "start_time": 23.759090909090908,
                "end_time": 23.893181818181816,
                "pitch": 41,
                "velocity": 80,
                "duration": 0.13409090909090793,
                "tempo": 120.0
            },
            {
                "start_time": 23.893181818181816,
                "end_time": 24.009090909090908,
                "pitch": 41,
                "velocity": 80,
                "duration": 0.11590909090909207,
                "tempo": 120.0
            },
            {
                "start_time": 24.009090909090908,
                "end_time": 24.143181818181816,
                "pitch": 41,
                "velocity": 80,
                "duration": 0.13409090909090793,
                "tempo": 120.0
            },
            {
                "start_time": 24.143181818181816,
                "end_time": 24.277272727272727,
                "pitch": 41,
                "velocity": 80,
                "duration": 0.13409090909091148,
                "tempo": 120.0
            },
            {
                "start_time": 24.277272727272727,
                "end_time": 24.395454545454545,
                "pitch": 39,
                "velocity": 80,
                "duration": 0.11818181818181728,
                "tempo": 120.0
            },
            {
                "start_time": 24.395454545454545,
                "end_time": 24.51590909090909,
                "pitch": 39,
                "velocity": 80,
                "duration": 0.12045454545454604,
                "tempo": 120.0
            },
            {
                "start_time": 24.51590909090909,
                "end_time": 24.652272727272727,
                "pitch": 39,
                "velocity": 80,
                "duration": 0.1363636363636367,
                "tempo": 120.0
            },
            {
                "start_time": 24.652272727272727,
                "end_time": 24.77272727272727,
                "pitch": 39,
                "velocity": 80,
                "duration": 0.12045454545454248,
                "tempo": 120.0
            },
            {
                "start_time": 24.77272727272727,
                "end_time": 24.902272727272727,
                "pitch": 39,
                "velocity": 80,
                "duration": 0.12954545454545752,
                "tempo": 120.0
            },
            {
                "start_time": 24.902272727272727,
                "end_time": 25.018181818181816,
                "pitch": 39,
                "velocity": 80,
                "duration": 0.11590909090908852,
                "tempo": 120.0
            },
            {
                "start_time": 25.018181818181816,
                "end_time": 25.15,
                "pitch": 39,
                "velocity": 80,
                "duration": 0.13181818181818272,
                "tempo": 120.0
            },
            {
                "start_time": 25.15,
                "end_time": 25.263636363636362,
                "pitch": 39,
                "velocity": 80,
                "duration": 0.11363636363636331,
                "tempo": 120.0
            },
            {
                "start_time": 25.263636363636362,
                "end_time": 25.39772727272727,
                "pitch": 39,
                "velocity": 80,
                "duration": 0.13409090909090793,
                "tempo": 120.0
            },
            {
                "start_time": 25.39772727272727,
                "end_time": 25.513636363636362,
                "pitch": 39,
                "velocity": 80,
                "duration": 0.11590909090909207,
                "tempo": 120.0
            },
            {
                "start_time": 25.513636363636362,
                "end_time": 25.64772727272727,
                "pitch": 39,
                "velocity": 80,
                "duration": 0.13409090909090793,
                "tempo": 120.0
            },
            {
                "start_time": 25.64772727272727,
                "end_time": 25.763636363636362,
                "pitch": 39,
                "velocity": 80,
                "duration": 0.11590909090909207,
                "tempo": 120.0
            },
            {
                "start_time": 25.763636363636362,
                "end_time": 25.89772727272727,
                "pitch": 39,
                "velocity": 80,
                "duration": 0.13409090909090793,
                "tempo": 120.0
            },
            {
                "start_time": 25.89772727272727,
                "end_time": 26.029545454545453,
                "pitch": 39,
                "velocity": 80,
                "duration": 0.13181818181818272,
                "tempo": 120.0
            },
            {
                "start_time": 26.029545454545453,
                "end_time": 26.14772727272727,
                "pitch": 39,
                "velocity": 80,
                "duration": 0.11818181818181728,
                "tempo": 120.0
            },
            {
                "start_time": 26.14772727272727,
                "end_time": 26.297727272727272,
                "pitch": 39,
                "velocity": 80,
                "duration": 0.15000000000000213,
                "tempo": 120.0
            },
            {
                "start_time": 26.297727272727272,
                "end_time": 26.404545454545453,
                "pitch": 39,
                "velocity": 80,
                "duration": 0.10681818181818059,
                "tempo": 120.0
            },
            {
                "start_time": 26.404545454545453,
                "end_time": 26.545454545454543,
                "pitch": 39,
                "velocity": 80,
                "duration": 0.14090909090909065,
                "tempo": 120.0
            },
            {
                "start_time": 26.545454545454543,
                "end_time": 26.668181818181818,
                "pitch": 39,
                "velocity": 80,
                "duration": 0.1227272727272748,
                "tempo": 120.0
            },
            {
                "start_time": 26.668181818181818,
                "end_time": 26.827272727272724,
                "pitch": 39,
                "velocity": 80,
                "duration": 0.1590909090909065,
                "tempo": 120.0
            },
            {
                "start_time": 26.827272727272724,
                "end_time": 26.927272727272726,
                "pitch": 39,
                "velocity": 80,
                "duration": 0.10000000000000142,
                "tempo": 120.0
            },
            {
                "start_time": 26.927272727272726,
                "end_time": 27.061363636363634,
                "pitch": 39,
                "velocity": 80,
                "duration": 0.13409090909090793,
                "tempo": 120.0
            },
            {
                "start_time": 27.061363636363634,
                "end_time": 27.177272727272726,
                "pitch": 39,
                "velocity": 80,
                "duration": 0.11590909090909207,
                "tempo": 120.0
            },
            {
                "start_time": 27.177272727272726,
                "end_time": 27.327272727272724,
                "pitch": 39,
                "velocity": 80,
                "duration": 0.14999999999999858,
                "tempo": 120.0
            },
            {
                "start_time": 27.327272727272724,
                "end_time": 27.427272727272726,
                "pitch": 39,
                "velocity": 80,
                "duration": 0.10000000000000142,
                "tempo": 120.0
            },
            {
                "start_time": 27.427272727272726,
                "end_time": 27.561363636363634,
                "pitch": 39,
                "velocity": 80,
                "duration": 0.13409090909090793,
                "tempo": 120.0
            },
            {
                "start_time": 27.561363636363634,
                "end_time": 27.677272727272726,
                "pitch": 39,
                "velocity": 80,
                "duration": 0.11590909090909207,
                "tempo": 120.0
            },
            {
                "start_time": 27.677272727272726,
                "end_time": 27.827272727272724,
                "pitch": 39,
                "velocity": 80,
                "duration": 0.14999999999999858,
                "tempo": 120.0
            },
            {
                "start_time": 27.827272727272724,
                "end_time": 27.927272727272726,
                "pitch": 39,
                "velocity": 80,
                "duration": 0.10000000000000142,
                "tempo": 120.0
            },
            {
                "start_time": 27.927272727272726,
                "end_time": 28.061363636363634,
                "pitch": 39,
                "velocity": 80,
                "duration": 0.13409090909090793,
                "tempo": 120.0
            },
            {
                "start_time": 28.061363636363634,
                "end_time": 28.195454545454545,
                "pitch": 39,
                "velocity": 80,
                "duration": 0.13409090909091148,
                "tempo": 120.0
            },
            {
                "start_time": 28.195454545454545,
                "end_time": 28.327272727272724,
                "pitch": 39,
                "velocity": 80,
                "duration": 0.13181818181817917,
                "tempo": 120.0
            },
            {
                "start_time": 28.327272727272724,
                "end_time": 28.445454545454545,
                "pitch": 39,
                "velocity": 80,
                "duration": 0.11818181818182083,
                "tempo": 120.0
            },
            {
                "start_time": 28.445454545454545,
                "end_time": 28.561363636363634,
                "pitch": 38,
                "velocity": 80,
                "duration": 0.11590909090908852,
                "tempo": 120.0
            },
            {
                "start_time": 28.561363636363634,
                "end_time": 28.695454545454545,
                "pitch": 38,
                "velocity": 80,
                "duration": 0.13409090909091148,
                "tempo": 120.0
            },
            {
                "start_time": 28.695454545454545,
                "end_time": 28.811363636363634,
                "pitch": 38,
                "velocity": 80,
                "duration": 0.11590909090908852,
                "tempo": 120.0
            },
            {
                "start_time": 28.811363636363634,
                "end_time": 28.943181818181817,
                "pitch": 38,
                "velocity": 80,
                "duration": 0.13181818181818272,
                "tempo": 120.0
            },
            {
                "start_time": 28.943181818181817,
                "end_time": 29.05681818181818,
                "pitch": 38,
                "velocity": 80,
                "duration": 0.11363636363636331,
                "tempo": 120.0
            },
            {
                "start_time": 29.05681818181818,
                "end_time": 29.188636363636363,
                "pitch": 38,
                "velocity": 80,
                "duration": 0.13181818181818272,
                "tempo": 120.0
            },
            {
                "start_time": 29.188636363636363,
                "end_time": 29.304545454545455,
                "pitch": 38,
                "velocity": 80,
                "duration": 0.11590909090909207,
                "tempo": 120.0
            },
            {
                "start_time": 29.304545454545455,
                "end_time": 29.436363636363634,
                "pitch": 38,
                "velocity": 80,
                "duration": 0.13181818181817917,
                "tempo": 120.0
            },
            {
                "start_time": 29.436363636363634,
                "end_time": 29.552272727272726,
                "pitch": 38,
                "velocity": 80,
                "duration": 0.11590909090909207,
                "tempo": 120.0
            },
            {
                "start_time": 29.552272727272726,
                "end_time": 29.686363636363634,
                "pitch": 38,
                "velocity": 80,
                "duration": 0.13409090909090793,
                "tempo": 120.0
            },
            {
                "start_time": 29.686363636363634,
                "end_time": 29.802272727272726,
                "pitch": 38,
                "velocity": 80,
                "duration": 0.11590909090909207,
                "tempo": 120.0
            },
            {
                "start_time": 29.802272727272726,
                "end_time": 29.936363636363634,
                "pitch": 38,
                "velocity": 80,
                "duration": 0.13409090909090793,
                "tempo": 120.0
            },
            {
                "start_time": 29.936363636363634,
                "end_time": 30.052272727272726,
                "pitch": 38,
                "velocity": 80,
                "duration": 0.11590909090909207,
                "tempo": 120.0
            },
            {
                "start_time": 30.052272727272726,
                "end_time": 30.186363636363634,
                "pitch": 38,
                "velocity": 80,
                "duration": 0.13409090909090793,
                "tempo": 120.0
            },
            {
                "start_time": 30.186363636363634,
                "end_time": 30.336363636363636,
                "pitch": 38,
                "velocity": 80,
                "duration": 0.15000000000000213,
                "tempo": 120.0
            },
            {
                "start_time": 30.336363636363636,
                "end_time": 30.443181818181817,
                "pitch": 38,
                "velocity": 80,
                "duration": 0.10681818181818059,
                "tempo": 120.0
            },
            {
                "start_time": 30.443181818181817,
                "end_time": 30.584090909090907,
                "pitch": 38,
                "velocity": 80,
                "duration": 0.14090909090909065,
                "tempo": 120.0
            },
            {
                "start_time": 30.584090909090907,
                "end_time": 30.709090909090907,
                "pitch": 38,
                "velocity": 80,
                "duration": 0.125,
                "tempo": 120.0
            },
            {
                "start_time": 30.709090909090907,
                "end_time": 30.849999999999998,
                "pitch": 38,
                "velocity": 80,
                "duration": 0.14090909090909065,
                "tempo": 120.0
            },
            {
                "start_time": 30.849999999999998,
                "end_time": 30.961363636363636,
                "pitch": 38,
                "velocity": 80,
                "duration": 0.11136363636363811,
                "tempo": 120.0
            },
            {
                "start_time": 30.961363636363636,
                "end_time": 31.09090909090909,
                "pitch": 38,
                "velocity": 80,
                "duration": 0.12954545454545396,
                "tempo": 120.0
            },
            {
                "start_time": 31.09090909090909,
                "end_time": 31.202272727272724,
                "pitch": 38,
                "velocity": 80,
                "duration": 0.11136363636363455,
                "tempo": 120.0
            },
            {
                "start_time": 31.202272727272724,
                "end_time": 31.329545454545453,
                "pitch": 38,
                "velocity": 80,
                "duration": 0.12727272727272876,
                "tempo": 120.0
            },
            {
                "start_time": 31.329545454545453,
                "end_time": 31.44772727272727,
                "pitch": 38,
                "velocity": 80,
                "duration": 0.11818181818181728,
                "tempo": 120.0
            },
            {
                "start_time": 31.44772727272727,
                "end_time": 31.586363636363636,
                "pitch": 38,
                "velocity": 80,
                "duration": 0.13863636363636545,
                "tempo": 120.0
            },
            {
                "start_time": 31.586363636363636,
                "end_time": 31.704545454545453,
                "pitch": 38,
                "velocity": 80,
                "duration": 0.11818181818181728,
                "tempo": 120.0
            },
            {
                "start_time": 31.704545454545453,
                "end_time": 31.84090909090909,
                "pitch": 38,
                "velocity": 80,
                "duration": 0.1363636363636367,
                "tempo": 120.0
            },
            {
                "start_time": 31.84090909090909,
                "end_time": 31.959090909090907,
                "pitch": 38,
                "velocity": 80,
                "duration": 0.11818181818181728,
                "tempo": 120.0
            },
            {
                "start_time": 31.959090909090907,
                "end_time": 32.09318181818182,
                "pitch": 38,
                "velocity": 80,
                "duration": 0.13409090909091148,
                "tempo": 120.0
            },
            {
                "start_time": 32.09318181818182,
                "end_time": 32.20909090909091,
                "pitch": 38,
                "velocity": 80,
                "duration": 0.11590909090909207,
                "tempo": 120.0
            },
            {
                "start_time": 32.20909090909091,
                "end_time": 32.35909090909091,
                "pitch": 38,
                "velocity": 80,
                "duration": 0.14999999999999858,
                "tempo": 120.0
            },
            {
                "start_time": 32.35909090909091,
                "end_time": 32.47954545454545,
                "pitch": 43,
                "velocity": 80,
                "duration": 0.12045454545454248,
                "tempo": 120.0
            },
            {
                "start_time": 32.47954545454545,
                "end_time": 32.59772727272727,
                "pitch": 43,
                "velocity": 80,
                "duration": 0.11818181818181728,
                "tempo": 120.0
            },
            {
                "start_time": 32.59772727272727,
                "end_time": 32.73409090909091,
                "pitch": 43,
                "velocity": 80,
                "duration": 0.13636363636364024,
                "tempo": 120.0
            },
            {
                "start_time": 32.73409090909091,
                "end_time": 32.85454545454545,
                "pitch": 43,
                "velocity": 80,
                "duration": 0.12045454545454248,
                "tempo": 120.0
            },
            {
                "start_time": 32.85454545454545,
                "end_time": 32.98181818181818,
                "pitch": 43,
                "velocity": 80,
                "duration": 0.1272727272727252,
                "tempo": 120.0
            },
            {
                "start_time": 32.98181818181818,
                "end_time": 33.095454545454544,
                "pitch": 43,
                "velocity": 80,
                "duration": 0.11363636363636687,
                "tempo": 120.0
            },
            {
                "start_time": 33.095454545454544,
                "end_time": 33.22272727272727,
                "pitch": 43,
                "velocity": 80,
                "duration": 0.1272727272727252,
                "tempo": 120.0
            },
            {
                "start_time": 33.22272727272727,
                "end_time": 33.33409090909091,
                "pitch": 43,
                "velocity": 80,
                "duration": 0.11136363636364166,
                "tempo": 120.0
            },
            {
                "start_time": 33.33409090909091,
                "end_time": 33.46818181818182,
                "pitch": 43,
                "velocity": 80,
                "duration": 0.13409090909090793,
                "tempo": 120.0
            },
            {
                "start_time": 33.46818181818182,
                "end_time": 33.58409090909091,
                "pitch": 43,
                "velocity": 80,
                "duration": 0.11590909090909207,
                "tempo": 120.0
            },
            {
                "start_time": 33.58409090909091,
                "end_time": 33.71818181818182,
                "pitch": 43,
                "velocity": 80,
                "duration": 0.13409090909090793,
                "tempo": 120.0
            },
            {
                "start_time": 33.71818181818182,
                "end_time": 33.83409090909091,
                "pitch": 43,
                "velocity": 80,
                "duration": 0.11590909090909207,
                "tempo": 120.0
            },
            {
                "start_time": 33.83409090909091,
                "end_time": 33.96818181818182,
                "pitch": 43,
                "velocity": 80,
                "duration": 0.13409090909090793,
                "tempo": 120.0
            },
            {
                "start_time": 33.96818181818182,
                "end_time": 34.08409090909091,
                "pitch": 43,
                "velocity": 80,
                "duration": 0.11590909090909207,
                "tempo": 120.0
            },
            {
                "start_time": 34.08409090909091,
                "end_time": 34.21818181818182,
                "pitch": 43,
                "velocity": 80,
                "duration": 0.13409090909090793,
                "tempo": 120.0
            },
            {
                "start_time": 34.21818181818182,
                "end_time": 34.33409090909091,
                "pitch": 43,
                "velocity": 80,
                "duration": 0.11590909090909207,
                "tempo": 120.0
            },
            {
                "start_time": 34.33409090909091,
                "end_time": 34.46818181818182,
                "pitch": 43,
                "velocity": 80,
                "duration": 0.13409090909090793,
                "tempo": 120.0
            },
            {
                "start_time": 34.46818181818182,
                "end_time": 34.60227272727273,
                "pitch": 43,
                "velocity": 80,
                "duration": 0.13409090909090793,
                "tempo": 120.0
            },
            {
                "start_time": 34.60227272727273,
                "end_time": 34.71818181818182,
                "pitch": 43,
                "velocity": 80,
                "duration": 0.11590909090909207,
                "tempo": 120.0
            },
            {
                "start_time": 34.71818181818182,
                "end_time": 34.85227272727273,
                "pitch": 43,
                "velocity": 80,
                "duration": 0.13409090909090793,
                "tempo": 120.0
            },
            {
                "start_time": 34.85227272727273,
                "end_time": 34.975,
                "pitch": 43,
                "velocity": 80,
                "duration": 0.1227272727272748,
                "tempo": 120.0
            },
            {
                "start_time": 34.975,
                "end_time": 35.11590909090909,
                "pitch": 43,
                "velocity": 80,
                "duration": 0.14090909090909065,
                "tempo": 120.0
            },
            {
                "start_time": 35.11590909090909,
                "end_time": 35.23863636363636,
                "pitch": 43,
                "velocity": 80,
                "duration": 0.12272727272726769,
                "tempo": 120.0
            },
            {
                "start_time": 35.23863636363636,
                "end_time": 35.38181818181818,
                "pitch": 43,
                "velocity": 80,
                "duration": 0.14318181818182296,
                "tempo": 120.0
            },
            {
                "start_time": 35.38181818181818,
                "end_time": 35.49545454545454,
                "pitch": 43,
                "velocity": 80,
                "duration": 0.11363636363635976,
                "tempo": 120.0
            },
            {
                "start_time": 35.49545454545454,
                "end_time": 35.627272727272725,
                "pitch": 43,
                "velocity": 80,
                "duration": 0.13181818181818272,
                "tempo": 120.0
            },
            {
                "start_time": 35.627272727272725,
                "end_time": 35.74318181818182,
                "pitch": 43,
                "velocity": 80,
                "duration": 0.11590909090909207,
                "tempo": 120.0
            },
            {
                "start_time": 35.74318181818182,
                "end_time": 35.87272727272727,
                "pitch": 43,
                "velocity": 80,
                "duration": 0.1295454545454504,
                "tempo": 120.0
            },
            {
                "start_time": 35.87272727272727,
                "end_time": 35.99090909090909,
                "pitch": 43,
                "velocity": 80,
                "duration": 0.11818181818182438,
                "tempo": 120.0
            },
            {
                "start_time": 35.99090909090909,
                "end_time": 36.12272727272727,
                "pitch": 43,
                "velocity": 80,
                "duration": 0.13181818181817562,
                "tempo": 120.0
            },
            {
                "start_time": 36.12272727272727,
                "end_time": 36.24090909090909,
                "pitch": 43,
                "velocity": 80,
                "duration": 0.11818181818182438,
                "tempo": 120.0
            },
            {
                "start_time": 36.24090909090909,
                "end_time": 36.39090909090909,
                "pitch": 43,
                "velocity": 80,
                "duration": 0.14999999999999858,
                "tempo": 120.0
            },
            {
                "start_time": 36.39090909090909,
                "end_time": 36.49318181818182,
                "pitch": 41,
                "velocity": 80,
                "duration": 0.10227272727272663,
                "tempo": 120.0
            },
            {
                "start_time": 36.49318181818182,
                "end_time": 36.62954545454545,
                "pitch": 41,
                "velocity": 80,
                "duration": 0.13636363636363313,
                "tempo": 120.0
            },
            {
                "start_time": 36.62954545454545,
                "end_time": 36.76590909090909,
                "pitch": 41,
                "velocity": 80,
                "duration": 0.13636363636364024,
                "tempo": 120.0
            },
            {
                "start_time": 36.76590909090909,
                "end_time": 36.88636363636363,
                "pitch": 41,
                "velocity": 80,
                "duration": 0.12045454545454248,
                "tempo": 120.0
            },
            {
                "start_time": 36.88636363636363,
                "end_time": 37.018181818181816,
                "pitch": 41,
                "velocity": 80,
                "duration": 0.13181818181818272,
                "tempo": 120.0
            },
            {
                "start_time": 37.018181818181816,
                "end_time": 37.13181818181818,
                "pitch": 41,
                "velocity": 80,
                "duration": 0.11363636363636687,
                "tempo": 120.0
            },
            {
                "start_time": 37.13181818181818,
                "end_time": 37.26363636363636,
                "pitch": 41,
                "velocity": 80,
                "duration": 0.13181818181817562,
                "tempo": 120.0
            },
            {
                "start_time": 37.26363636363636,
                "end_time": 37.377272727272725,
                "pitch": 41,
                "velocity": 80,
                "duration": 0.11363636363636687,
                "tempo": 120.0
            },
            {
                "start_time": 37.377272727272725,
                "end_time": 37.51363636363636,
                "pitch": 41,
                "velocity": 80,
                "duration": 0.13636363636363313,
                "tempo": 120.0
            },
            {
                "start_time": 37.51363636363636,
                "end_time": 37.63409090909091,
                "pitch": 41,
                "velocity": 80,
                "duration": 0.12045454545454959,
                "tempo": 120.0
            },
            {
                "start_time": 37.63409090909091,
                "end_time": 37.77045454545454,
                "pitch": 41,
                "velocity": 80,
                "duration": 0.13636363636363313,
                "tempo": 120.0
            },
            {
                "start_time": 37.77045454545454,
                "end_time": 37.89090909090909,
                "pitch": 41,
                "velocity": 80,
                "duration": 0.12045454545454959,
                "tempo": 120.0
            },
            {
                "start_time": 37.89090909090909,
                "end_time": 38.02272727272727,
                "pitch": 41,
                "velocity": 80,
                "duration": 0.13181818181818272,
                "tempo": 120.0
            },
            {
                "start_time": 38.02272727272727,
                "end_time": 38.14090909090909,
                "pitch": 41,
                "velocity": 80,
                "duration": 0.11818181818181728,
                "tempo": 120.0
            },
            {
                "start_time": 38.14090909090909,
                "end_time": 38.27272727272727,
                "pitch": 41,
                "velocity": 80,
                "duration": 0.13181818181818272,
                "tempo": 120.0
            },
            {
                "start_time": 38.27272727272727,
                "end_time": 38.39090909090909,
                "pitch": 41,
                "velocity": 80,
                "duration": 0.11818181818181728,
                "tempo": 120.0
            },
            {
                "start_time": 38.39090909090909,
                "end_time": 38.52045454545454,
                "pitch": 41,
                "velocity": 80,
                "duration": 0.1295454545454504,
                "tempo": 120.0
            },
            {
                "start_time": 38.52045454545454,
                "end_time": 38.63636363636363,
                "pitch": 41,
                "velocity": 80,
                "duration": 0.11590909090909207,
                "tempo": 120.0
            },
            {
                "start_time": 38.63636363636363,
                "end_time": 38.768181818181816,
                "pitch": 41,
                "velocity": 80,
                "duration": 0.13181818181818272,
                "tempo": 120.0
            },
            {
                "start_time": 38.768181818181816,
                "end_time": 38.89772727272727,
                "pitch": 41,
                "velocity": 80,
                "duration": 0.12954545454545752,
                "tempo": 120.0
            },
            {
                "start_time": 38.89772727272727,
                "end_time": 39.02045454545454,
                "pitch": 41,
                "velocity": 80,
                "duration": 0.12272727272726769,
                "tempo": 120.0
            },
            {
                "start_time": 39.02045454545454,
                "end_time": 39.15909090909091,
                "pitch": 41,
                "velocity": 80,
                "duration": 0.13863636363636545,
                "tempo": 120.0
            },
            {
                "start_time": 39.15909090909091,
                "end_time": 39.28181818181818,
                "pitch": 41,
                "velocity": 80,
                "duration": 0.1227272727272748,
                "tempo": 120.0
            },
            {
                "start_time": 39.28181818181818,
                "end_time": 39.42045454545455,
                "pitch": 41,
                "velocity": 80,
                "duration": 0.13863636363636545,
                "tempo": 120.0
            },
            {
                "start_time": 39.42045454545455,
                "end_time": 39.53636363636363,
                "pitch": 41,
                "velocity": 80,
                "duration": 0.11590909090908497,
                "tempo": 120.0
            },
            {
                "start_time": 39.53636363636363,
                "end_time": 39.67045454545455,
                "pitch": 41,
                "velocity": 80,
                "duration": 0.13409090909091503,
                "tempo": 120.0
            },
            {
                "start_time": 39.67045454545455,
                "end_time": 39.78636363636363,
                "pitch": 41,
                "velocity": 80,
                "duration": 0.11590909090908497,
                "tempo": 120.0
            },
            {
                "start_time": 39.78636363636363,
                "end_time": 39.92045454545455,
                "pitch": 41,
                "velocity": 80,
                "duration": 0.13409090909091503,
                "tempo": 120.0
            },
            {
                "start_time": 39.92045454545455,
                "end_time": 40.03409090909091,
                "pitch": 41,
                "velocity": 80,
                "duration": 0.11363636363635976,
                "tempo": 120.0
            },
            {
                "start_time": 40.03409090909091,
                "end_time": 40.16590909090909,
                "pitch": 41,
                "velocity": 80,
                "duration": 0.13181818181818272,
                "tempo": 120.0
            },
            {
                "start_time": 40.16590909090909,
                "end_time": 40.28181818181818,
                "pitch": 41,
                "velocity": 80,
                "duration": 0.11590909090909207,
                "tempo": 120.0
            },
            {
                "start_time": 40.28181818181818,
                "end_time": 40.42727272727272,
                "pitch": 41,
                "velocity": 80,
                "duration": 0.14545454545454106,
                "tempo": 120.0
            },
            {
                "start_time": 40.42727272727272,
                "end_time": 40.53181818181818,
                "pitch": 39,
                "velocity": 80,
                "duration": 0.10454545454545894,
                "tempo": 120.0
            },
            {
                "start_time": 40.53181818181818,
                "end_time": 40.67272727272727,
                "pitch": 39,
                "velocity": 80,
                "duration": 0.14090909090909065,
                "tempo": 120.0
            },
            {
                "start_time": 40.67272727272727,
                "end_time": 40.793181818181814,
                "pitch": 39,
                "velocity": 80,
                "duration": 0.12045454545454248,
                "tempo": 120.0
            },
            {
                "start_time": 40.793181818181814,
                "end_time": 40.93181818181818,
                "pitch": 39,
                "velocity": 80,
                "duration": 0.13863636363636545,
                "tempo": 120.0
            },
            {
                "start_time": 40.93181818181818,
                "end_time": 41.06363636363636,
                "pitch": 39,
                "velocity": 80,
                "duration": 0.13181818181818272,
                "tempo": 120.0
            },
            {
                "start_time": 41.06363636363636,
                "end_time": 41.179545454545455,
                "pitch": 39,
                "velocity": 80,
                "duration": 0.11590909090909207,
                "tempo": 120.0
            },
            {
                "start_time": 41.179545454545455,
                "end_time": 41.309090909090905,
                "pitch": 39,
                "velocity": 80,
                "duration": 0.1295454545454504,
                "tempo": 120.0
            },
            {
                "start_time": 41.309090909090905,
                "end_time": 41.425,
                "pitch": 39,
                "velocity": 80,
                "duration": 0.11590909090909207,
                "tempo": 120.0
            },
            {
                "start_time": 41.425,
                "end_time": 41.559090909090905,
                "pitch": 39,
                "velocity": 80,
                "duration": 0.13409090909090793,
                "tempo": 120.0
            },
            {
                "start_time": 41.559090909090905,
                "end_time": 41.675,
                "pitch": 39,
                "velocity": 80,
                "duration": 0.11590909090909207,
                "tempo": 120.0
            },
            {
                "start_time": 41.675,
                "end_time": 41.809090909090905,
                "pitch": 39,
                "velocity": 80,
                "duration": 0.13409090909090793,
                "tempo": 120.0
            },
            {
                "start_time": 41.809090909090905,
                "end_time": 41.925,
                "pitch": 39,
                "velocity": 80,
                "duration": 0.11590909090909207,
                "tempo": 120.0
            },
            {
                "start_time": 41.925,
                "end_time": 42.059090909090905,
                "pitch": 39,
                "velocity": 80,
                "duration": 0.13409090909090793,
                "tempo": 120.0
            },
            {
                "start_time": 42.059090909090905,
                "end_time": 42.175,
                "pitch": 39,
                "velocity": 80,
                "duration": 0.11590909090909207,
                "tempo": 120.0
            },
            {
                "start_time": 42.175,
                "end_time": 42.309090909090905,
                "pitch": 39,
                "velocity": 80,
                "duration": 0.13409090909090793,
                "tempo": 120.0
            },
            {
                "start_time": 42.309090909090905,
                "end_time": 42.44090909090909,
                "pitch": 39,
                "velocity": 80,
                "duration": 0.13181818181818272,
                "tempo": 120.0
            },
            {
                "start_time": 42.44090909090909,
                "end_time": 42.56136363636364,
                "pitch": 39,
                "velocity": 80,
                "duration": 0.12045454545454959,
                "tempo": 120.0
            },
            {
                "start_time": 42.56136363636364,
                "end_time": 42.68181818181818,
                "pitch": 39,
                "velocity": 80,
                "duration": 0.12045454545454248,
                "tempo": 120.0
            },
            {
                "start_time": 42.68181818181818,
                "end_time": 42.81818181818181,
                "pitch": 39,
                "velocity": 80,
                "duration": 0.13636363636363313,
                "tempo": 120.0
            },
            {
                "start_time": 42.81818181818181,
                "end_time": 42.93636363636364,
                "pitch": 39,
                "velocity": 80,
                "duration": 0.11818181818182438,
                "tempo": 120.0
            },
            {
                "start_time": 42.93636363636364,
                "end_time": 43.06818181818181,
                "pitch": 39,
                "velocity": 80,
                "duration": 0.13181818181817562,
                "tempo": 120.0
            },
            {
                "start_time": 43.06818181818181,
                "end_time": 43.199999999999996,
                "pitch": 39,
                "velocity": 80,
                "duration": 0.13181818181818272,
                "tempo": 120.0
            },
            {
                "start_time": 43.199999999999996,
                "end_time": 43.31363636363636,
                "pitch": 39,
                "velocity": 80,
                "duration": 0.11363636363636687,
                "tempo": 120.0
            },
            {
                "start_time": 43.31363636363636,
                "end_time": 43.445454545454545,
                "pitch": 39,
                "velocity": 80,
                "duration": 0.13181818181818272,
                "tempo": 120.0
            },
            {
                "start_time": 43.445454545454545,
                "end_time": 43.56590909090909,
                "pitch": 39,
                "velocity": 80,
                "duration": 0.12045454545454248,
                "tempo": 120.0
            },
            {
                "start_time": 43.56590909090909,
                "end_time": 43.70681818181818,
                "pitch": 39,
                "velocity": 80,
                "duration": 0.14090909090909065,
                "tempo": 120.0
            },
            {
                "start_time": 43.70681818181818,
                "end_time": 43.82727272727273,
                "pitch": 39,
                "velocity": 80,
                "duration": 0.12045454545454959,
                "tempo": 120.0
            },
            {
                "start_time": 43.82727272727273,
                "end_time": 43.965909090909086,
                "pitch": 39,
                "velocity": 80,
                "duration": 0.13863636363635834,
                "tempo": 120.0
            },
            {
                "start_time": 43.965909090909086,
                "end_time": 44.086363636363636,
                "pitch": 39,
                "velocity": 80,
                "duration": 0.12045454545454959,
                "tempo": 120.0
            },
            {
                "start_time": 44.086363636363636,
                "end_time": 44.22272727272727,
                "pitch": 39,
                "velocity": 80,
                "duration": 0.13636363636363313,
                "tempo": 120.0
            },
            {
                "start_time": 44.22272727272727,
                "end_time": 44.34318181818182,
                "pitch": 39,
                "velocity": 80,
                "duration": 0.12045454545454959,
                "tempo": 120.0
            },
            {
                "start_time": 44.34318181818182,
                "end_time": 44.49772727272727,
                "pitch": 39,
                "velocity": 80,
                "duration": 0.154545454545449,
                "tempo": 120.0
            },
            {
                "start_time": 44.49772727272727,
                "end_time": 44.59772727272727,
                "pitch": 39,
                "velocity": 80,
                "duration": 0.10000000000000142,
                "tempo": 120.0
            },
            {
                "start_time": 44.59772727272727,
                "end_time": 44.72954545454545,
                "pitch": 38,
                "velocity": 80,
                "duration": 0.13181818181818272,
                "tempo": 120.0
            },
            {
                "start_time": 44.72954545454545,
                "end_time": 44.84772727272727,
                "pitch": 38,
                "velocity": 80,
                "duration": 0.11818181818181728,
                "tempo": 120.0
            },
            {
                "start_time": 44.84772727272727,
                "end_time": 44.97954545454545,
                "pitch": 38,
                "velocity": 80,
                "duration": 0.13181818181818272,
                "tempo": 120.0
            },
            {
                "start_time": 44.97954545454545,
                "end_time": 45.09318181818182,
                "pitch": 38,
                "velocity": 80,
                "duration": 0.11363636363636687,
                "tempo": 120.0
            },
            {
                "start_time": 45.09318181818182,
                "end_time": 45.22272727272727,
                "pitch": 38,
                "velocity": 80,
                "duration": 0.1295454545454504,
                "tempo": 120.0
            },
            {
                "start_time": 45.22272727272727,
                "end_time": 45.35227272727273,
                "pitch": 38,
                "velocity": 80,
                "duration": 0.12954545454545752,
                "tempo": 120.0
            },
            {
                "start_time": 45.35227272727273,
                "end_time": 45.46363636363636,
                "pitch": 38,
                "velocity": 80,
                "duration": 0.11136363636363455,
                "tempo": 120.0
            },
            {
                "start_time": 45.46363636363636,
                "end_time": 45.59772727272727,
                "pitch": 38,
                "velocity": 80,
                "duration": 0.13409090909090793,
                "tempo": 120.0
            },
            {
                "start_time": 45.59772727272727,
                "end_time": 45.71363636363636,
                "pitch": 38,
                "velocity": 80,
                "duration": 0.11590909090909207,
                "tempo": 120.0
            },
            {
                "start_time": 45.71363636363636,
                "end_time": 45.84772727272727,
                "pitch": 38,
                "velocity": 80,
                "duration": 0.13409090909090793,
                "tempo": 120.0
            },
            {
                "start_time": 45.84772727272727,
                "end_time": 45.96363636363636,
                "pitch": 38,
                "velocity": 80,
                "duration": 0.11590909090909207,
                "tempo": 120.0
            },
            {
                "start_time": 45.96363636363636,
                "end_time": 46.09772727272727,
                "pitch": 38,
                "velocity": 80,
                "duration": 0.13409090909090793,
                "tempo": 120.0
            },
            {
                "start_time": 46.09772727272727,
                "end_time": 46.21363636363636,
                "pitch": 38,
                "velocity": 80,
                "duration": 0.11590909090909207,
                "tempo": 120.0
            },
            {
                "start_time": 46.21363636363636,
                "end_time": 46.34772727272727,
                "pitch": 38,
                "velocity": 80,
                "duration": 0.13409090909090793,
                "tempo": 120.0
            },
            {
                "start_time": 46.34772727272727,
                "end_time": 46.48181818181818,
                "pitch": 38,
                "velocity": 80,
                "duration": 0.13409090909090793,
                "tempo": 120.0
            },
            {
                "start_time": 46.48181818181818,
                "end_time": 46.60227272727273,
                "pitch": 38,
                "velocity": 80,
                "duration": 0.12045454545454959,
                "tempo": 120.0
            },
            {
                "start_time": 46.60227272727273,
                "end_time": 46.724999999999994,
                "pitch": 38,
                "velocity": 80,
                "duration": 0.12272727272726769,
                "tempo": 120.0
            },
            {
                "start_time": 46.724999999999994,
                "end_time": 46.86363636363636,
                "pitch": 38,
                "velocity": 80,
                "duration": 0.13863636363636545,
                "tempo": 120.0
            },
            {
                "start_time": 46.86363636363636,
                "end_time": 46.986363636363635,
                "pitch": 38,
                "velocity": 80,
                "duration": 0.1227272727272748,
                "tempo": 120.0
            },
            {
                "start_time": 46.986363636363635,
                "end_time": 47.11363636363636,
                "pitch": 38,
                "velocity": 80,
                "duration": 0.1272727272727252,
                "tempo": 120.0
            },
            {
                "start_time": 47.11363636363636,
                "end_time": 47.22727272727273,
                "pitch": 38,
                "velocity": 80,
                "duration": 0.11363636363636687,
                "tempo": 120.0
            },
            {
                "start_time": 47.22727272727273,
                "end_time": 47.35681818181818,
                "pitch": 38,
                "velocity": 80,
                "duration": 0.1295454545454504,
                "tempo": 120.0
            },
            {
                "start_time": 47.35681818181818,
                "end_time": 47.486363636363635,
                "pitch": 38,
                "velocity": 80,
                "duration": 0.12954545454545752,
                "tempo": 120.0
            },
            {
                "start_time": 47.486363636363635,
                "end_time": 47.60681818181818,
                "pitch": 38,
                "velocity": 80,
                "duration": 0.12045454545454248,
                "tempo": 120.0
            },
            {
                "start_time": 47.60681818181818,
                "end_time": 47.76363636363636,
                "pitch": 38,
                "velocity": 80,
                "duration": 0.1568181818181813,
                "tempo": 120.0
            },
            {
                "start_time": 47.76363636363636,
                "end_time": 47.86818181818182,
                "pitch": 38,
                "velocity": 80,
                "duration": 0.10454545454545894,
                "tempo": 120.0
            },
            {
                "start_time": 47.86818181818182,
                "end_time": 48.00681818181818,
                "pitch": 38,
                "velocity": 80,
                "duration": 0.13863636363636545,
                "tempo": 120.0
            },
            {
                "start_time": 48.00681818181818,
                "end_time": 48.12272727272727,
                "pitch": 38,
                "velocity": 80,
                "duration": 0.11590909090908497,
                "tempo": 120.0
            },
            {
                "start_time": 48.12272727272727,
                "end_time": 48.25681818181818,
                "pitch": 38,
                "velocity": 80,
                "duration": 0.13409090909091503,
                "tempo": 120.0
            },
            {
                "start_time": 48.25681818181818,
                "end_time": 48.37272727272727,
                "pitch": 38,
                "velocity": 80,
                "duration": 0.11590909090908497,
                "tempo": 120.0
            },
            {
                "start_time": 48.37272727272727,
                "end_time": 48.52272727272727,
                "pitch": 38,
                "velocity": 80,
                "duration": 0.15000000000000568,
                "tempo": 120.0
            },
            {
                "start_time": 48.52272727272727,
                "end_time": 48.627272727272725,
                "pitch": 43,
                "velocity": 80,
                "duration": 0.10454545454545183,
                "tempo": 120.0
            },
            {
                "start_time": 48.627272727272725,
                "end_time": 48.76590909090909,
                "pitch": 43,
                "velocity": 80,
                "duration": 0.13863636363636545,
                "tempo": 120.0
            },
            {
                "start_time": 48.76590909090909,
                "end_time": 48.88863636363636,
                "pitch": 43,
                "velocity": 80,
                "duration": 0.12272727272726769,
                "tempo": 120.0
            },
            {
                "start_time": 48.88863636363636,
                "end_time": 49.027272727272724,
                "pitch": 43,
                "velocity": 80,
                "duration": 0.13863636363636545,
                "tempo": 120.0
            },
            {
                "start_time": 49.027272727272724,
                "end_time": 49.14090909090909,
                "pitch": 43,
                "velocity": 80,
                "duration": 0.11363636363636687,
                "tempo": 120.0
            },
            {
                "start_time": 49.14090909090909,
                "end_time": 49.268181818181816,
                "pitch": 43,
                "velocity": 80,
                "duration": 0.1272727272727252,
                "tempo": 120.0
            },
            {
                "start_time": 49.268181818181816,
                "end_time": 49.37954545454545,
                "pitch": 43,
                "velocity": 80,
                "duration": 0.11136363636363455,
                "tempo": 120.0
            },
            {
                "start_time": 49.37954545454545,
                "end_time": 49.50681818181818,
                "pitch": 43,
                "velocity": 80,
                "duration": 0.1272727272727323,
                "tempo": 120.0
            },
            {
                "start_time": 49.50681818181818,
                "end_time": 49.64090909090909,
                "pitch": 43,
                "velocity": 80,
                "duration": 0.13409090909090793,
                "tempo": 120.0
            },
            {
                "start_time": 49.64090909090909,
                "end_time": 49.75681818181818,
                "pitch": 43,
                "velocity": 80,
                "duration": 0.11590909090909207,
                "tempo": 120.0
            },
            {
                "start_time": 49.75681818181818,
                "end_time": 49.89090909090909,
                "pitch": 43,
                "velocity": 80,
                "duration": 0.13409090909090793,
                "tempo": 120.0
            },
            {
                "start_time": 49.89090909090909,
                "end_time": 50.00681818181818,
                "pitch": 43,
                "velocity": 80,
                "duration": 0.11590909090909207,
                "tempo": 120.0
            },
            {
                "start_time": 50.00681818181818,
                "end_time": 50.14090909090909,
                "pitch": 43,
                "velocity": 80,
                "duration": 0.13409090909090793,
                "tempo": 120.0
            },
            {
                "start_time": 50.14090909090909,
                "end_time": 50.25681818181818,
                "pitch": 43,
                "velocity": 80,
                "duration": 0.11590909090909207,
                "tempo": 120.0
            },
            {
                "start_time": 50.25681818181818,
                "end_time": 50.39090909090909,
                "pitch": 43,
                "velocity": 80,
                "duration": 0.13409090909090793,
                "tempo": 120.0
            },
            {
                "start_time": 50.39090909090909,
                "end_time": 50.50681818181818,
                "pitch": 43,
                "velocity": 80,
                "duration": 0.11590909090909207,
                "tempo": 120.0
            },
            {
                "start_time": 50.50681818181818,
                "end_time": 50.643181818181816,
                "pitch": 43,
                "velocity": 80,
                "duration": 0.13636363636363313,
                "tempo": 120.0
            },
            {
                "start_time": 50.643181818181816,
                "end_time": 50.76363636363636,
                "pitch": 43,
                "velocity": 80,
                "duration": 0.12045454545454248,
                "tempo": 120.0
            },
            {
                "start_time": 50.78181818181818,
                "end_time": 50.9,
                "pitch": 43,
                "velocity": 80,
                "duration": 0.11818181818181728,
                "tempo": 120.0
            },
            {
                "start_time": 50.9,
                "end_time": 51.02045454545454,
                "pitch": 43,
                "velocity": 80,
                "duration": 0.12045454545454248,
                "tempo": 120.0
            },
            {
                "start_time": 51.02045454545454,
                "end_time": 51.15454545454545,
                "pitch": 43,
                "velocity": 80,
                "duration": 0.13409090909090793,
                "tempo": 120.0
            },
            {
                "start_time": 51.15454545454545,
                "end_time": 51.27045454545454,
                "pitch": 43,
                "velocity": 80,
                "duration": 0.11590909090909207,
                "tempo": 120.0
            },
            {
                "start_time": 51.27045454545454,
                "end_time": 51.40454545454545,
                "pitch": 43,
                "velocity": 80,
                "duration": 0.13409090909090793,
                "tempo": 120.0
            },
            {
                "start_time": 51.40454545454545,
                "end_time": 51.52045454545454,
                "pitch": 43,
                "velocity": 80,
                "duration": 0.11590909090909207,
                "tempo": 120.0
            },
            {
                "start_time": 51.52045454545454,
                "end_time": 51.652272727272724,
                "pitch": 43,
                "velocity": 80,
                "duration": 0.13181818181818272,
                "tempo": 120.0
            },
            {
                "start_time": 51.652272727272724,
                "end_time": 51.78409090909091,
                "pitch": 43,
                "velocity": 80,
                "duration": 0.13181818181818272,
                "tempo": 120.0
            },
            {
                "start_time": 51.78409090909091,
                "end_time": 51.89772727272727,
                "pitch": 43,
                "velocity": 80,
                "duration": 0.11363636363636687,
                "tempo": 120.0
            },
            {
                "start_time": 51.89772727272727,
                "end_time": 52.04545454545454,
                "pitch": 43,
                "velocity": 80,
                "duration": 0.14772727272726627,
                "tempo": 120.0
            },
            {
                "start_time": 52.04545454545454,
                "end_time": 52.152272727272724,
                "pitch": 43,
                "velocity": 80,
                "duration": 0.10681818181818414,
                "tempo": 120.0
            },
            {
                "start_time": 52.152272727272724,
                "end_time": 52.293181818181814,
                "pitch": 43,
                "velocity": 80,
                "duration": 0.14090909090909065,
                "tempo": 120.0
            },
            {
                "start_time": 52.293181818181814,
                "end_time": 52.41590909090909,
                "pitch": 43,
                "velocity": 80,
                "duration": 0.1227272727272748,
                "tempo": 120.0
            },
            {
                "start_time": 52.41590909090909,
                "end_time": 52.57727272727273,
                "pitch": 43,
                "velocity": 80,
                "duration": 0.16136363636363882,
                "tempo": 120.0
            },
            {
                "start_time": 52.57727272727273,
                "end_time": 52.679545454545455,
                "pitch": 41,
                "velocity": 80,
                "duration": 0.10227272727272663,
                "tempo": 120.0
            },
            {
                "start_time": 52.679545454545455,
                "end_time": 52.81590909090909,
                "pitch": 41,
                "velocity": 80,
                "duration": 0.13636363636363313,
                "tempo": 120.0
            },
            {
                "start_time": 52.81590909090909,
                "end_time": 52.93636363636363,
                "pitch": 41,
                "velocity": 80,
                "duration": 0.12045454545454248,
                "tempo": 120.0
            },
            {
                "start_time": 52.93636363636363,
                "end_time": 53.07272727272727,
                "pitch": 41,
                "velocity": 80,
                "duration": 0.13636363636364024,
                "tempo": 120.0
            },
            {
                "start_time": 53.07272727272727,
                "end_time": 53.18636363636363,
                "pitch": 41,
                "velocity": 80,
                "duration": 0.11363636363635976,
                "tempo": 120.0
            },
            {
                "start_time": 53.18636363636363,
                "end_time": 53.31363636363636,
                "pitch": 41,
                "velocity": 80,
                "duration": 0.1272727272727323,
                "tempo": 120.0
            },
            {
                "start_time": 53.31363636363636,
                "end_time": 53.42727272727272,
                "pitch": 41,
                "velocity": 80,
                "duration": 0.11363636363635976,
                "tempo": 120.0
            },
            {
                "start_time": 53.42727272727272,
                "end_time": 53.57272727272727,
                "pitch": 41,
                "velocity": 80,
                "duration": 0.14545454545454817,
                "tempo": 120.0
            },
            {
                "start_time": 53.57272727272727,
                "end_time": 53.675,
                "pitch": 41,
                "velocity": 80,
                "duration": 0.10227272727272663,
                "tempo": 120.0
            },
            {
                "start_time": 53.675,
                "end_time": 53.81136363636363,
                "pitch": 41,
                "velocity": 80,
                "duration": 0.13636363636363313,
                "tempo": 120.0
            },
            {
                "start_time": 53.81136363636363,
                "end_time": 53.94772727272727,
                "pitch": 41,
                "velocity": 80,
                "duration": 0.13636363636364024,
                "tempo": 120.0
            },
            {
                "start_time": 53.94772727272727,
                "end_time": 54.06818181818181,
                "pitch": 41,
                "velocity": 80,
                "duration": 0.12045454545454248,
                "tempo": 120.0
            },
            {
                "start_time": 54.06818181818181,
                "end_time": 54.20227272727273,
                "pitch": 41,
                "velocity": 80,
                "duration": 0.13409090909091503,
                "tempo": 120.0
            },
            {
                "start_time": 54.20227272727273,
                "end_time": 54.31818181818181,
                "pitch": 41,
                "velocity": 80,
                "duration": 0.11590909090908497,
                "tempo": 120.0
            },
            {
                "start_time": 54.31818181818181,
                "end_time": 54.45227272727273,
                "pitch": 41,
                "velocity": 80,
                "duration": 0.13409090909091503,
                "tempo": 120.0
            },
            {
                "start_time": 54.45227272727273,
                "end_time": 54.586363636363636,
                "pitch": 41,
                "velocity": 80,
                "duration": 0.13409090909090793,
                "tempo": 120.0
            },
            {
                "start_time": 54.586363636363636,
                "end_time": 54.70227272727273,
                "pitch": 41,
                "velocity": 80,
                "duration": 0.11590909090909207,
                "tempo": 120.0
            },
            {
                "start_time": 54.70227272727273,
                "end_time": 54.81818181818181,
                "pitch": 41,
                "velocity": 80,
                "duration": 0.11590909090908497,
                "tempo": 120.0
            },
            {
                "start_time": 54.81818181818181,
                "end_time": 54.95227272727273,
                "pitch": 41,
                "velocity": 80,
                "duration": 0.13409090909091503,
                "tempo": 120.0
            },
            {
                "start_time": 54.95227272727273,
                "end_time": 55.086363636363636,
                "pitch": 41,
                "velocity": 80,
                "duration": 0.13409090909090793,
                "tempo": 120.0
            },
            {
                "start_time": 55.086363636363636,
                "end_time": 55.20227272727273,
                "pitch": 41,
                "velocity": 80,
                "duration": 0.11590909090909207,
                "tempo": 120.0
            },
            {
                "start_time": 55.20227272727273,
                "end_time": 55.31818181818181,
                "pitch": 41,
                "velocity": 80,
                "duration": 0.11590909090908497,
                "tempo": 120.0
            },
            {
                "start_time": 55.31818181818181,
                "end_time": 55.45227272727273,
                "pitch": 41,
                "velocity": 80,
                "duration": 0.13409090909091503,
                "tempo": 120.0
            },
            {
                "start_time": 55.45227272727273,
                "end_time": 55.56818181818181,
                "pitch": 41,
                "velocity": 80,
                "duration": 0.11590909090908497,
                "tempo": 120.0
            },
            {
                "start_time": 55.56818181818181,
                "end_time": 55.70227272727273,
                "pitch": 41,
                "velocity": 80,
                "duration": 0.13409090909091503,
                "tempo": 120.0
            },
            {
                "start_time": 55.70227272727273,
                "end_time": 55.81818181818181,
                "pitch": 41,
                "velocity": 80,
                "duration": 0.11590909090908497,
                "tempo": 120.0
            },
            {
                "start_time": 55.81818181818181,
                "end_time": 55.95227272727273,
                "pitch": 41,
                "velocity": 80,
                "duration": 0.13409090909091503,
                "tempo": 120.0
            },
            {
                "start_time": 55.95227272727273,
                "end_time": 56.086363636363636,
                "pitch": 41,
                "velocity": 80,
                "duration": 0.13409090909090793,
                "tempo": 120.0
            },
            {
                "start_time": 56.086363636363636,
                "end_time": 56.20681818181818,
                "pitch": 41,
                "velocity": 80,
                "duration": 0.12045454545454248,
                "tempo": 120.0
            },
            {
                "start_time": 56.20681818181818,
                "end_time": 56.345454545454544,
                "pitch": 41,
                "velocity": 80,
                "duration": 0.13863636363636545,
                "tempo": 120.0
            },
            {
                "start_time": 56.345454545454544,
                "end_time": 56.46818181818182,
                "pitch": 41,
                "velocity": 80,
                "duration": 0.1227272727272748,
                "tempo": 120.0
            },
            {
                "start_time": 56.46818181818182,
                "end_time": 56.62272727272727,
                "pitch": 41,
                "velocity": 80,
                "duration": 0.154545454545449,
                "tempo": 120.0
            },
            {
                "start_time": 56.62272727272727,
                "end_time": 56.724999999999994,
                "pitch": 39,
                "velocity": 80,
                "duration": 0.10227272727272663,
                "tempo": 120.0
            },
            {
                "start_time": 56.724999999999994,
                "end_time": 56.85681818181818,
                "pitch": 39,
                "velocity": 80,
                "duration": 0.13181818181818272,
                "tempo": 120.0
            },
            {
                "start_time": 56.85681818181818,
                "end_time": 56.974999999999994,
                "pitch": 39,
                "velocity": 80,
                "duration": 0.11818181818181728,
                "tempo": 120.0
            },
            {
                "start_time": 56.974999999999994,
                "end_time": 57.10681818181818,
                "pitch": 39,
                "velocity": 80,
                "duration": 0.13181818181818272,
                "tempo": 120.0
            },
            {
                "start_time": 57.10681818181818,
                "end_time": 57.21818181818182,
                "pitch": 39,
                "velocity": 80,
                "duration": 0.11136363636364166,
                "tempo": 120.0
            },
            {
                "start_time": 57.21818181818182,
                "end_time": 57.34772727272727,
                "pitch": 39,
                "velocity": 80,
                "duration": 0.1295454545454504,
                "tempo": 120.0
            },
            {
                "start_time": 57.34772727272727,
                "end_time": 57.459090909090904,
                "pitch": 39,
                "velocity": 80,
                "duration": 0.11136363636363455,
                "tempo": 120.0
            },
            {
                "start_time": 57.459090909090904,
                "end_time": 57.586363636363636,
                "pitch": 39,
                "velocity": 80,
                "duration": 0.1272727272727323,
                "tempo": 120.0
            },
            {
                "start_time": 57.586363636363636,
                "end_time": 57.70454545454545,
                "pitch": 39,
                "velocity": 80,
                "duration": 0.11818181818181728,
                "tempo": 120.0
            },
            {
                "start_time": 57.70454545454545,
                "end_time": 57.836363636363636,
                "pitch": 39,
                "velocity": 80,
                "duration": 0.13181818181818272,
                "tempo": 120.0
            },
            {
                "start_time": 57.836363636363636,
                "end_time": 57.95454545454545,
                "pitch": 39,
                "velocity": 80,
                "duration": 0.11818181818181728,
                "tempo": 120.0
            },
            {
                "start_time": 57.95454545454545,
                "end_time": 58.086363636363636,
                "pitch": 39,
                "velocity": 80,
                "duration": 0.13181818181818272,
                "tempo": 120.0
            },
            {
                "start_time": 58.086363636363636,
                "end_time": 58.220454545454544,
                "pitch": 39,
                "velocity": 80,
                "duration": 0.13409090909090793,
                "tempo": 120.0
            },
            {
                "start_time": 58.220454545454544,
                "end_time": 58.336363636363636,
                "pitch": 39,
                "velocity": 80,
                "duration": 0.11590909090909207,
                "tempo": 120.0
            },
            {
                "start_time": 58.336363636363636,
                "end_time": 58.470454545454544,
                "pitch": 39,
                "velocity": 80,
                "duration": 0.13409090909090793,
                "tempo": 120.0
            },
            {
                "start_time": 58.470454545454544,
                "end_time": 58.60454545454545,
                "pitch": 39,
                "velocity": 80,
                "duration": 0.13409090909090793,
                "tempo": 120.0
            },
            {
                "start_time": 58.60454545454545,
                "end_time": 58.724999999999994,
                "pitch": 39,
                "velocity": 80,
                "duration": 0.12045454545454248,
                "tempo": 120.0
            },
            {
                "start_time": 58.724999999999994,
                "end_time": 58.84772727272727,
                "pitch": 39,
                "velocity": 80,
                "duration": 0.1227272727272748,
                "tempo": 120.0
            },
            {
                "start_time": 58.84772727272727,
                "end_time": 58.986363636363635,
                "pitch": 39,
                "velocity": 80,
                "duration": 0.13863636363636545,
                "tempo": 120.0
            },
            {
                "start_time": 58.986363636363635,
                "end_time": 59.125,
                "pitch": 39,
                "velocity": 80,
                "duration": 0.13863636363636545,
                "tempo": 120.0
            },
            {
                "start_time": 59.125,
                "end_time": 59.240909090909085,
                "pitch": 39,
                "velocity": 80,
                "duration": 0.11590909090908497,
                "tempo": 120.0
            },
            {
                "start_time": 59.240909090909085,
                "end_time": 59.35454545454545,
                "pitch": 39,
                "velocity": 80,
                "duration": 0.11363636363636687,
                "tempo": 120.0
            },
            {
                "start_time": 59.35454545454545,
                "end_time": 59.486363636363635,
                "pitch": 39,
                "velocity": 80,
                "duration": 0.13181818181818272,
                "tempo": 120.0
            },
            {
                "start_time": 59.486363636363635,
                "end_time": 59.615909090909085,
                "pitch": 39,
                "velocity": 80,
                "duration": 0.1295454545454504,
                "tempo": 120.0
            },
            {
                "start_time": 59.615909090909085,
                "end_time": 59.73409090909091,
                "pitch": 39,
                "velocity": 80,
                "duration": 0.11818181818182438,
                "tempo": 120.0
            },
            {
                "start_time": 59.73409090909091,
                "end_time": 59.849999999999994,
                "pitch": 39,
                "velocity": 80,
                "duration": 0.11590909090908497,
                "tempo": 120.0
            },
            {
                "start_time": 59.849999999999994,
                "end_time": 59.98409090909091,
                "pitch": 39,
                "velocity": 80,
                "duration": 0.13409090909091503,
                "tempo": 120.0
            },
            {
                "start_time": 59.98409090909091,
                "end_time": 60.115909090909085,
                "pitch": 39,
                "velocity": 80,
                "duration": 0.13181818181817562,
                "tempo": 120.0
            },
            {
                "start_time": 60.115909090909085,
                "end_time": 60.236363636363635,
                "pitch": 39,
                "velocity": 80,
                "duration": 0.12045454545454959,
                "tempo": 120.0
            },
            {
                "start_time": 60.236363636363635,
                "end_time": 60.37272727272727,
                "pitch": 39,
                "velocity": 80,
                "duration": 0.13636363636363313,
                "tempo": 120.0
            },
            {
                "start_time": 60.37272727272727,
                "end_time": 60.49318181818182,
                "pitch": 39,
                "velocity": 80,
                "duration": 0.12045454545454959,
                "tempo": 120.0
            },
            {
                "start_time": 60.49318181818182,
                "end_time": 60.647727272727266,
                "pitch": 39,
                "velocity": 80,
                "duration": 0.154545454545449,
                "tempo": 120.0
            },
            {
                "start_time": 60.647727272727266,
                "end_time": 60.75,
                "pitch": 39,
                "velocity": 80,
                "duration": 0.10227272727273373,
                "tempo": 120.0
            },
            {
                "start_time": 60.75,
                "end_time": 60.88636363636363,
                "pitch": 38,
                "velocity": 80,
                "duration": 0.13636363636363313,
                "tempo": 120.0
            },
            {
                "start_time": 60.88636363636363,
                "end_time": 61.006818181818176,
                "pitch": 38,
                "velocity": 80,
                "duration": 0.12045454545454248,
                "tempo": 120.0
            },
            {
                "start_time": 61.006818181818176,
                "end_time": 61.143181818181816,
                "pitch": 38,
                "velocity": 80,
                "duration": 0.13636363636364024,
                "tempo": 120.0
            },
            {
                "start_time": 61.143181818181816,
                "end_time": 61.256818181818176,
                "pitch": 38,
                "velocity": 80,
                "duration": 0.11363636363635976,
                "tempo": 120.0
            },
            {
                "start_time": 61.256818181818176,
                "end_time": 61.38863636363636,
                "pitch": 38,
                "velocity": 80,
                "duration": 0.13181818181818272,
                "tempo": 120.0
            },
            {
                "start_time": 61.38863636363636,
                "end_time": 61.502272727272725,
                "pitch": 38,
                "velocity": 80,
                "duration": 0.11363636363636687,
                "tempo": 120.0
            },
            {
                "start_time": 61.502272727272725,
                "end_time": 61.63409090909091,
                "pitch": 38,
                "velocity": 80,
                "duration": 0.13181818181818272,
                "tempo": 120.0
            },
            {
                "start_time": 61.63409090909091,
                "end_time": 61.752272727272725,
                "pitch": 38,
                "velocity": 80,
                "duration": 0.11818181818181728,
                "tempo": 120.0
            },
            {
                "start_time": 61.752272727272725,
                "end_time": 61.88409090909091,
                "pitch": 38,
                "velocity": 80,
                "duration": 0.13181818181818272,
                "tempo": 120.0
            },
            {
                "start_time": 61.88409090909091,
                "end_time": 62.002272727272725,
                "pitch": 38,
                "velocity": 80,
                "duration": 0.11818181818181728,
                "tempo": 120.0
            },
            {
                "start_time": 62.002272727272725,
                "end_time": 62.13409090909091,
                "pitch": 38,
                "velocity": 80,
                "duration": 0.13181818181818272,
                "tempo": 120.0
            },
            {
                "start_time": 62.13409090909091,
                "end_time": 62.252272727272725,
                "pitch": 38,
                "velocity": 80,
                "duration": 0.11818181818181728,
                "tempo": 120.0
            },
            {
                "start_time": 62.252272727272725,
                "end_time": 62.38409090909091,
                "pitch": 38,
                "velocity": 80,
                "duration": 0.13181818181818272,
                "tempo": 120.0
            },
            {
                "start_time": 62.38409090909091,
                "end_time": 62.518181818181816,
                "pitch": 38,
                "velocity": 80,
                "duration": 0.13409090909090793,
                "tempo": 120.0
            },
            {
                "start_time": 62.518181818181816,
                "end_time": 62.652272727272724,
                "pitch": 38,
                "velocity": 80,
                "duration": 0.13409090909090793,
                "tempo": 120.0
            },
            {
                "start_time": 62.652272727272724,
                "end_time": 62.772727272727266,
                "pitch": 38,
                "velocity": 80,
                "duration": 0.12045454545454248,
                "tempo": 120.0
            },
            {
                "start_time": 62.772727272727266,
                "end_time": 62.89545454545454,
                "pitch": 38,
                "velocity": 80,
                "duration": 0.1227272727272748,
                "tempo": 120.0
            },
            {
                "start_time": 62.89545454545454,
                "end_time": 63.03409090909091,
                "pitch": 38,
                "velocity": 80,
                "duration": 0.13863636363636545,
                "tempo": 120.0
            },
            {
                "start_time": 63.03409090909091,
                "end_time": 63.15454545454545,
                "pitch": 38,
                "velocity": 80,
                "duration": 0.12045454545454248,
                "tempo": 120.0
            },
            {
                "start_time": 63.15454545454545,
                "end_time": 63.28636363636363,
                "pitch": 38,
                "velocity": 80,
                "duration": 0.13181818181818272,
                "tempo": 120.0
            },
            {
                "start_time": 63.28636363636363,
                "end_time": 63.402272727272724,
                "pitch": 38,
                "velocity": 80,
                "duration": 0.11590909090909207,
                "tempo": 120.0
            },
            {
                "start_time": 63.402272727272724,
                "end_time": 63.53409090909091,
                "pitch": 38,
                "velocity": 80,
                "duration": 0.13181818181818272,
                "tempo": 120.0
            },
            {
                "start_time": 63.53409090909091,
                "end_time": 63.663636363636364,
                "pitch": 38,
                "velocity": 80,
                "duration": 0.12954545454545752,
                "tempo": 120.0
            },
            {
                "start_time": 63.663636363636364,
                "end_time": 63.78181818181818,
                "pitch": 38,
                "velocity": 80,
                "duration": 0.11818181818181728,
                "tempo": 120.0
            },
            {
                "start_time": 63.78181818181818,
                "end_time": 63.897727272727266,
                "pitch": 38,
                "velocity": 80,
                "duration": 0.11590909090908497,
                "tempo": 120.0
            },
            {
                "start_time": 63.897727272727266,
                "end_time": 64.03181818181818,
                "pitch": 38,
                "velocity": 80,
                "duration": 0.13409090909091503,
                "tempo": 120.0
            },
            {
                "start_time": 64.03181818181818,
                "end_time": 64.14772727272727,
                "pitch": 38,
                "velocity": 80,
                "duration": 0.11590909090908497,
                "tempo": 120.0
            },
            {
                "start_time": 64.14772727272727,
                "end_time": 64.2840909090909,
                "pitch": 38,
                "velocity": 80,
                "duration": 0.13636363636364024,
                "tempo": 120.0
            },
            {
                "start_time": 64.2840909090909,
                "end_time": 64.40227272727273,
                "pitch": 38,
                "velocity": 80,
                "duration": 0.11818181818182438,
                "tempo": 120.0
            },
            {
                "start_time": 64.40227272727273,
                "end_time": 64.54090909090908,
                "pitch": 38,
                "velocity": 80,
                "duration": 0.13863636363635123,
                "tempo": 120.0
            },
            {
                "start_time": 64.54090909090908,
                "end_time": 64.69318181818181,
                "pitch": 38,
                "velocity": 80,
                "duration": 0.1522727272727309,
                "tempo": 120.0
            },
            {
                "start_time": 64.69318181818181,
                "end_time": 64.79545454545455,
                "pitch": 43,
                "velocity": 80,
                "duration": 0.10227272727273373,
                "tempo": 120.0
            },
            {
                "start_time": 64.79545454545455,
                "end_time": 64.93409090909091,
                "pitch": 43,
                "velocity": 80,
                "duration": 0.13863636363636545,
                "tempo": 120.0
            },
            {
                "start_time": 64.93409090909091,
                "end_time": 65.05227272727272,
                "pitch": 43,
                "velocity": 80,
                "duration": 0.11818181818181017,
                "tempo": 120.0
            },
            {
                "start_time": 65.05227272727272,
                "end_time": 65.18863636363636,
                "pitch": 43,
                "velocity": 80,
                "duration": 0.13636363636364024,
                "tempo": 120.0
            },
            {
                "start_time": 65.18863636363636,
                "end_time": 65.30454545454545,
                "pitch": 43,
                "velocity": 80,
                "duration": 0.11590909090908497,
                "tempo": 120.0
            },
            {
                "start_time": 65.30454545454545,
                "end_time": 65.43636363636364,
                "pitch": 43,
                "velocity": 80,
                "duration": 0.13181818181818983,
                "tempo": 120.0
            },
            {
                "start_time": 65.43636363636364,
                "end_time": 65.55,
                "pitch": 43,
                "velocity": 80,
                "duration": 0.11363636363635976,
                "tempo": 120.0
            },
            {
                "start_time": 65.55,
                "end_time": 65.68181818181817,
                "pitch": 43,
                "velocity": 80,
                "duration": 0.13181818181817562,
                "tempo": 120.0
            },
            {
                "start_time": 65.68181818181817,
                "end_time": 65.79772727272727,
                "pitch": 43,
                "velocity": 80,
                "duration": 0.11590909090909918,
                "tempo": 120.0
            },
            {
                "start_time": 65.79772727272727,
                "end_time": 65.93181818181817,
                "pitch": 43,
                "velocity": 80,
                "duration": 0.13409090909090082,
                "tempo": 120.0
            },
            {
                "start_time": 65.93181818181817,
                "end_time": 66.04772727272727,
                "pitch": 43,
                "velocity": 80,
                "duration": 0.11590909090909918,
                "tempo": 120.0
            },
            {
                "start_time": 66.04772727272727,
                "end_time": 66.18181818181817,
                "pitch": 43,
                "velocity": 80,
                "duration": 0.13409090909090082,
                "tempo": 120.0
            },
            {
                "start_time": 66.18181818181817,
                "end_time": 66.29772727272727,
                "pitch": 43,
                "velocity": 80,
                "duration": 0.11590909090909918,
                "tempo": 120.0
            },
            {
                "start_time": 66.29772727272727,
                "end_time": 66.43181818181817,
                "pitch": 43,
                "velocity": 80,
                "duration": 0.13409090909090082,
                "tempo": 120.0
            },
            {
                "start_time": 66.43181818181817,
                "end_time": 66.54772727272727,
                "pitch": 43,
                "velocity": 80,
                "duration": 0.11590909090909918,
                "tempo": 120.0
            },
            {
                "start_time": 66.54772727272727,
                "end_time": 66.68181818181817,
                "pitch": 43,
                "velocity": 80,
                "duration": 0.13409090909090082,
                "tempo": 120.0
            },
            {
                "start_time": 66.68181818181817,
                "end_time": 66.81590909090909,
                "pitch": 43,
                "velocity": 80,
                "duration": 0.13409090909091503,
                "tempo": 120.0
            },
            {
                "start_time": 66.81590909090909,
                "end_time": 66.93181818181817,
                "pitch": 43,
                "velocity": 80,
                "duration": 0.11590909090908497,
                "tempo": 120.0
            },
            {
                "start_time": 66.93181818181817,
                "end_time": 67.06590909090909,
                "pitch": 43,
                "velocity": 80,
                "duration": 0.13409090909091503,
                "tempo": 120.0
            },
            {
                "start_time": 67.06590909090909,
                "end_time": 67.18181818181817,
                "pitch": 43,
                "velocity": 80,
                "duration": 0.11590909090908497,
                "tempo": 120.0
            },
            {
                "start_time": 67.18181818181817,
                "end_time": 67.31590909090909,
                "pitch": 43,
                "velocity": 80,
                "duration": 0.13409090909091503,
                "tempo": 120.0
            },
            {
                "start_time": 67.31590909090909,
                "end_time": 67.43181818181817,
                "pitch": 43,
                "velocity": 80,
                "duration": 0.11590909090908497,
                "tempo": 120.0
            },
            {
                "start_time": 67.43181818181817,
                "end_time": 67.56590909090909,
                "pitch": 43,
                "velocity": 80,
                "duration": 0.13409090909091503,
                "tempo": 120.0
            },
            {
                "start_time": 67.56590909090909,
                "end_time": 67.68181818181817,
                "pitch": 43,
                "velocity": 80,
                "duration": 0.11590909090908497,
                "tempo": 120.0
            },
            {
                "start_time": 67.68181818181817,
                "end_time": 67.81590909090909,
                "pitch": 43,
                "velocity": 80,
                "duration": 0.13409090909091503,
                "tempo": 120.0
            },
            {
                "start_time": 67.81590909090909,
                "end_time": 67.93181818181817,
                "pitch": 43,
                "velocity": 80,
                "duration": 0.11590909090908497,
                "tempo": 120.0
            },
            {
                "start_time": 67.93181818181817,
                "end_time": 68.06590909090909,
                "pitch": 43,
                "velocity": 80,
                "duration": 0.13409090909091503,
                "tempo": 120.0
            },
            {
                "start_time": 68.06590909090909,
                "end_time": 68.18181818181817,
                "pitch": 43,
                "velocity": 80,
                "duration": 0.11590909090908497,
                "tempo": 120.0
            },
            {
                "start_time": 68.18181818181817,
                "end_time": 68.31363636363636,
                "pitch": 43,
                "velocity": 80,
                "duration": 0.13181818181818983,
                "tempo": 120.0
            },
            {
                "start_time": 68.31363636363636,
                "end_time": 68.42727272727272,
                "pitch": 43,
                "velocity": 80,
                "duration": 0.11363636363635976,
                "tempo": 120.0
            },
            {
                "start_time": 68.42727272727272,
                "end_time": 68.55909090909091,
                "pitch": 43,
                "velocity": 80,
                "duration": 0.13181818181818983,
                "tempo": 120.0
            },
            {
                "start_time": 68.55909090909091,
                "end_time": 68.69090909090909,
                "pitch": 43,
                "velocity": 80,
                "duration": 0.13181818181817562,
                "tempo": 120.0
            },
            {
                "start_time": 68.69090909090909,
                "end_time": 68.81136363636364,
                "pitch": 41,
                "velocity": 80,
                "duration": 0.12045454545454959,
                "tempo": 120.0
            },
            {
                "start_time": 68.81136363636364,
                "end_time": 68.95,
                "pitch": 41,
                "velocity": 80,
                "duration": 0.13863636363636545,
                "tempo": 120.0
            },
            {
                "start_time": 68.95,
                "end_time": 69.07272727272726,
                "pitch": 41,
                "velocity": 80,
                "duration": 0.12272727272726058,
                "tempo": 120.0
            },
            {
                "start_time": 69.07272727272726,
                "end_time": 69.21136363636363,
                "pitch": 41,
                "velocity": 80,
                "duration": 0.13863636363636545,
                "tempo": 120.0
            },
            {
                "start_time": 69.21136363636363,
                "end_time": 69.32727272727273,
                "pitch": 41,
                "velocity": 80,
                "duration": 0.11590909090909918,
                "tempo": 120.0
            },
            {
                "start_time": 69.32727272727273,
                "end_time": 69.46136363636363,
                "pitch": 41,
                "velocity": 80,
                "duration": 0.13409090909090082,
                "tempo": 120.0
            },
            {
                "start_time": 69.46136363636363,
                "end_time": 69.57727272727273,
                "pitch": 41,
                "velocity": 80,
                "duration": 0.11590909090909918,
                "tempo": 120.0
            },
            {
                "start_time": 69.57727272727273,
                "end_time": 69.71136363636363,
                "pitch": 41,
                "velocity": 80,
                "duration": 0.13409090909090082,
                "tempo": 120.0
            },
            {
                "start_time": 69.71136363636363,
                "end_time": 69.83181818181818,
                "pitch": 41,
                "velocity": 80,
                "duration": 0.12045454545454959,
                "tempo": 120.0
            },
            {
                "start_time": 69.83181818181818,
                "end_time": 69.97045454545454,
                "pitch": 41,
                "velocity": 80,
                "duration": 0.13863636363636545,
                "tempo": 120.0
            },
            {
                "start_time": 69.97045454545454,
                "end_time": 70.09318181818182,
                "pitch": 41,
                "velocity": 80,
                "duration": 0.1227272727272748,
                "tempo": 120.0
            },
            {
                "start_time": 70.09318181818182,
                "end_time": 70.23181818181818,
                "pitch": 41,
                "velocity": 80,
                "duration": 0.13863636363636545,
                "tempo": 120.0
            },
            {
                "start_time": 70.23181818181818,
                "end_time": 70.34772727272727,
                "pitch": 41,
                "velocity": 80,
                "duration": 0.11590909090908497,
                "tempo": 120.0
            },
            {
                "start_time": 70.34772727272727,
                "end_time": 70.47954545454544,
                "pitch": 41,
                "velocity": 80,
                "duration": 0.13181818181817562,
                "tempo": 120.0
            },
            {
                "start_time": 70.47954545454544,
                "end_time": 70.59318181818182,
                "pitch": 41,
                "velocity": 80,
                "duration": 0.11363636363637397,
                "tempo": 120.0
            },
            {
                "start_time": 70.59318181818182,
                "end_time": 70.725,
                "pitch": 41,
                "velocity": 80,
                "duration": 0.13181818181817562,
                "tempo": 120.0
            },
            {
                "start_time": 70.725,
                "end_time": 70.83863636363635,
                "pitch": 41,
                "velocity": 80,
                "duration": 0.11363636363635976,
                "tempo": 120.0
            },
            {
                "start_time": 70.83863636363635,
                "end_time": 70.97045454545454,
                "pitch": 41,
                "velocity": 80,
                "duration": 0.13181818181818983,
                "tempo": 120.0
            },
            {
                "start_time": 70.97045454545454,
                "end_time": 71.10227272727272,
                "pitch": 41,
                "velocity": 80,
                "duration": 0.13181818181817562,
                "tempo": 120.0
            },
            {
                "start_time": 71.10227272727272,
                "end_time": 71.2159090909091,
                "pitch": 41,
                "velocity": 80,
                "duration": 0.11363636363637397,
                "tempo": 120.0
            },
            {
                "start_time": 71.2159090909091,
                "end_time": 71.35,
                "pitch": 41,
                "velocity": 80,
                "duration": 0.13409090909090082,
                "tempo": 120.0
            },
            {
                "start_time": 71.35,
                "end_time": 71.4659090909091,
                "pitch": 41,
                "velocity": 80,
                "duration": 0.11590909090909918,
                "tempo": 120.0
            },
            {
                "start_time": 71.4659090909091,
                "end_time": 71.6,
                "pitch": 41,
                "velocity": 80,
                "duration": 0.13409090909090082,
                "tempo": 120.0
            },
            {
                "start_time": 71.6,
                "end_time": 71.7159090909091,
                "pitch": 41,
                "velocity": 80,
                "duration": 0.11590909090909918,
                "tempo": 120.0
            },
            {
                "start_time": 71.7159090909091,
                "end_time": 71.85,
                "pitch": 41,
                "velocity": 80,
                "duration": 0.13409090909090082,
                "tempo": 120.0
            },
            {
                "start_time": 71.85,
                "end_time": 71.9659090909091,
                "pitch": 41,
                "velocity": 80,
                "duration": 0.11590909090909918,
                "tempo": 120.0
            },
            {
                "start_time": 71.9659090909091,
                "end_time": 72.1,
                "pitch": 41,
                "velocity": 80,
                "duration": 0.13409090909090082,
                "tempo": 120.0
            },
            {
                "start_time": 72.1,
                "end_time": 72.2159090909091,
                "pitch": 41,
                "velocity": 80,
                "duration": 0.11590909090909918,
                "tempo": 120.0
            },
            {
                "start_time": 72.2159090909091,
                "end_time": 72.35,
                "pitch": 41,
                "velocity": 80,
                "duration": 0.13409090909090082,
                "tempo": 120.0
            },
            {
                "start_time": 72.35,
                "end_time": 72.4659090909091,
                "pitch": 41,
                "velocity": 80,
                "duration": 0.11590909090909918,
                "tempo": 120.0
            },
            {
                "start_time": 72.4659090909091,
                "end_time": 72.6,
                "pitch": 41,
                "velocity": 80,
                "duration": 0.13409090909090082,
                "tempo": 120.0
            },
            {
                "start_time": 72.6,
                "end_time": 72.73409090909091,
                "pitch": 41,
                "velocity": 80,
                "duration": 0.13409090909091503,
                "tempo": 120.0
            },
            {
                "start_time": 72.73409090909091,
                "end_time": 72.85227272727272,
                "pitch": 39,
                "velocity": 80,
                "duration": 0.11818181818181017,
                "tempo": 120.0
            },
            {
                "start_time": 72.85227272727272,
                "end_time": 72.97272727272727,
                "pitch": 39,
                "velocity": 80,
                "duration": 0.12045454545454959,
                "tempo": 120.0
            },
            {
                "start_time": 72.97272727272727,
                "end_time": 73.10909090909091,
                "pitch": 39,
                "velocity": 80,
                "duration": 0.13636363636364024,
                "tempo": 120.0
            },
            {
                "start_time": 73.10909090909091,
                "end_time": 73.24545454545454,
                "pitch": 39,
                "velocity": 80,
                "duration": 0.13636363636362603,
                "tempo": 120.0
            },
            {
                "start_time": 73.24545454545454,
                "end_time": 73.36590909090908,
                "pitch": 39,
                "velocity": 80,
                "duration": 0.12045454545454959,
                "tempo": 120.0
            },
            {
                "start_time": 73.36590909090908,
                "end_time": 73.50227272727273,
                "pitch": 39,
                "velocity": 80,
                "duration": 0.13636363636364024,
                "tempo": 120.0
            },
            {
                "start_time": 73.50227272727273,
                "end_time": 73.62272727272727,
                "pitch": 39,
                "velocity": 80,
                "duration": 0.12045454545454959,
                "tempo": 120.0
            },
            {
                "start_time": 73.62272727272727,
                "end_time": 73.7590909090909,
                "pitch": 39,
                "velocity": 80,
                "duration": 0.13636363636362603,
                "tempo": 120.0
            },
            {
                "start_time": 73.7590909090909,
                "end_time": 73.875,
                "pitch": 39,
                "velocity": 80,
                "duration": 0.11590909090909918,
                "tempo": 120.0
            },
            {
                "start_time": 73.875,
                "end_time": 74.0090909090909,
                "pitch": 39,
                "velocity": 80,
                "duration": 0.13409090909090082,
                "tempo": 120.0
            },
            {
                "start_time": 74.0090909090909,
                "end_time": 74.125,
                "pitch": 39,
                "velocity": 80,
                "duration": 0.11590909090909918,
                "tempo": 120.0
            },
            {
                "start_time": 74.125,
                "end_time": 74.2590909090909,
                "pitch": 39,
                "velocity": 80,
                "duration": 0.13409090909090082,
                "tempo": 120.0
            },
            {
                "start_time": 74.2590909090909,
                "end_time": 74.375,
                "pitch": 39,
                "velocity": 80,
                "duration": 0.11590909090909918,
                "tempo": 120.0
            },
            {
                "start_time": 74.375,
                "end_time": 74.5090909090909,
                "pitch": 39,
                "velocity": 80,
                "duration": 0.13409090909090082,
                "tempo": 120.0
            },
            {
                "start_time": 74.5090909090909,
                "end_time": 74.625,
                "pitch": 39,
                "velocity": 80,
                "duration": 0.11590909090909918,
                "tempo": 120.0
            },
            {
                "start_time": 74.625,
                "end_time": 74.77499999999999,
                "pitch": 39,
                "velocity": 80,
                "duration": 0.14999999999999147,
                "tempo": 120.0
            },
            {
                "start_time": 74.77499999999999,
                "end_time": 74.87954545454545,
                "pitch": 39,
                "velocity": 80,
                "duration": 0.10454545454545894,
                "tempo": 120.0
            },
            {
                "start_time": 74.87954545454545,
                "end_time": 75.01818181818182,
                "pitch": 39,
                "velocity": 80,
                "duration": 0.13863636363636545,
                "tempo": 120.0
            },
            {
                "start_time": 75.01818181818182,
                "end_time": 75.14090909090909,
                "pitch": 39,
                "velocity": 80,
                "duration": 0.1227272727272748,
                "tempo": 120.0
            },
            {
                "start_time": 75.14090909090909,
                "end_time": 75.27954545454546,
                "pitch": 39,
                "velocity": 80,
                "duration": 0.13863636363636545,
                "tempo": 120.0
            },
            {
                "start_time": 75.27954545454546,
                "end_time": 75.4090909090909,
                "pitch": 39,
                "velocity": 80,
                "duration": 0.1295454545454504,
                "tempo": 120.0
            },
            {
                "start_time": 75.4090909090909,
                "end_time": 75.52045454545454,
                "pitch": 39,
                "velocity": 80,
                "duration": 0.11136363636363455,
                "tempo": 120.0
            },
            {
                "start_time": 75.52045454545454,
                "end_time": 75.64772727272727,
                "pitch": 39,
                "velocity": 80,
                "duration": 0.1272727272727252,
                "tempo": 120.0
            },
            {
                "start_time": 75.64772727272727,
                "end_time": 75.7590909090909,
                "pitch": 39,
                "velocity": 80,
                "duration": 0.11136363636363455,
                "tempo": 120.0
            },
            {
                "start_time": 75.7590909090909,
                "end_time": 75.89318181818182,
                "pitch": 39,
                "velocity": 80,
                "duration": 0.13409090909091503,
                "tempo": 120.0
            },
            {
                "start_time": 75.89318181818182,
                "end_time": 76.0090909090909,
                "pitch": 39,
                "velocity": 80,
                "duration": 0.11590909090908497,
                "tempo": 120.0
            },
            {
                "start_time": 76.0090909090909,
                "end_time": 76.14318181818182,
                "pitch": 39,
                "velocity": 80,
                "duration": 0.13409090909091503,
                "tempo": 120.0
            },
            {
                "start_time": 76.14318181818182,
                "end_time": 76.2590909090909,
                "pitch": 39,
                "velocity": 80,
                "duration": 0.11590909090908497,
                "tempo": 120.0
            },
            {
                "start_time": 76.2590909090909,
                "end_time": 76.39318181818182,
                "pitch": 39,
                "velocity": 80,
                "duration": 0.13409090909091503,
                "tempo": 120.0
            },
            {
                "start_time": 76.39318181818182,
                "end_time": 76.5090909090909,
                "pitch": 39,
                "velocity": 80,
                "duration": 0.11590909090908497,
                "tempo": 120.0
            },
            {
                "start_time": 76.5090909090909,
                "end_time": 76.64318181818182,
                "pitch": 39,
                "velocity": 80,
                "duration": 0.13409090909091503,
                "tempo": 120.0
            },
            {
                "start_time": 76.64318181818182,
                "end_time": 76.77727272727272,
                "pitch": 39,
                "velocity": 80,
                "duration": 0.13409090909090082,
                "tempo": 120.0
            },
            {
                "start_time": 76.77727272727272,
                "end_time": 76.89545454545454,
                "pitch": 39,
                "velocity": 80,
                "duration": 0.11818181818182438,
                "tempo": 120.0
            },
            {
                "start_time": 76.89545454545454,
                "end_time": 77.01590909090909,
                "pitch": 38,
                "velocity": 80,
                "duration": 0.12045454545454959,
                "tempo": 120.0
            },
            {
                "start_time": 77.01590909090909,
                "end_time": 77.15227272727272,
                "pitch": 38,
                "velocity": 80,
                "duration": 0.13636363636362603,
                "tempo": 120.0
            },
            {
                "start_time": 77.15227272727272,
                "end_time": 77.27272727272727,
                "pitch": 38,
                "velocity": 80,
                "duration": 0.12045454545454959,
                "tempo": 120.0
            },
            {
                "start_time": 77.27272727272727,
                "end_time": 77.40454545454546,
                "pitch": 38,
                "velocity": 80,
                "duration": 0.13181818181818983,
                "tempo": 120.0
            },
            {
                "start_time": 77.40454545454546,
                "end_time": 77.5340909090909,
                "pitch": 38,
                "velocity": 80,
                "duration": 0.1295454545454504,
                "tempo": 120.0
            },
            {
                "start_time": 77.5340909090909,
                "end_time": 77.64999999999999,
                "pitch": 38,
                "velocity": 80,
                "duration": 0.11590909090908497,
                "tempo": 120.0
            },
            {
                "start_time": 77.64999999999999,
                "end_time": 77.78181818181818,
                "pitch": 38,
                "velocity": 80,
                "duration": 0.13181818181818983,
                "tempo": 120.0
            },
            {
                "start_time": 77.78181818181818,
                "end_time": 77.90227272727272,
                "pitch": 38,
                "velocity": 80,
                "duration": 0.12045454545453538,
                "tempo": 120.0
            },
            {
                "start_time": 77.90227272727272,
                "end_time": 78.04090909090908,
                "pitch": 38,
                "velocity": 80,
                "duration": 0.13863636363636545,
                "tempo": 120.0
            },
            {
                "start_time": 78.04090909090908,
                "end_time": 78.16363636363636,
                "pitch": 38,
                "velocity": 80,
                "duration": 0.1227272727272748,
                "tempo": 120.0
            },
            {
                "start_time": 78.16363636363636,
                "end_time": 78.30227272727272,
                "pitch": 38,
                "velocity": 80,
                "duration": 0.13863636363636545,
                "tempo": 120.0
            },
            {
                "start_time": 78.30227272727272,
                "end_time": 78.41818181818181,
                "pitch": 38,
                "velocity": 80,
                "duration": 0.11590909090908497,
                "tempo": 120.0
            },
            {
                "start_time": 78.41818181818181,
                "end_time": 78.55227272727272,
                "pitch": 38,
                "velocity": 80,
                "duration": 0.13409090909091503,
                "tempo": 120.0
            },
            {
                "start_time": 78.55227272727272,
                "end_time": 78.66818181818181,
                "pitch": 38,
                "velocity": 80,
                "duration": 0.11590909090908497,
                "tempo": 120.0
            },
            {
                "start_time": 78.66818181818181,
                "end_time": 78.81818181818181,
                "pitch": 38,
                "velocity": 80,
                "duration": 0.15000000000000568,
                "tempo": 120.0
            },
            {
                "start_time": 78.81818181818181,
                "end_time": 78.92272727272727,
                "pitch": 38,
                "velocity": 80,
                "duration": 0.10454545454545894,
                "tempo": 120.0
            },
            {
                "start_time": 78.92272727272727,
                "end_time": 79.05909090909091,
                "pitch": 38,
                "velocity": 80,
                "duration": 0.13636363636364024,
                "tempo": 120.0
            },
            {
                "start_time": 79.05909090909091,
                "end_time": 79.17727272727272,
                "pitch": 38,
                "velocity": 80,
                "duration": 0.11818181818181017,
                "tempo": 120.0
            },
            {
                "start_time": 79.17727272727272,
                "end_time": 79.31590909090909,
                "pitch": 38,
                "velocity": 80,
                "duration": 0.13863636363636545,
                "tempo": 120.0
            },
            {
                "start_time": 79.31590909090909,
                "end_time": 79.42954545454545,
                "pitch": 38,
                "velocity": 80,
                "duration": 0.11363636363635976,
                "tempo": 120.0
            },
            {
                "start_time": 79.42954545454545,
                "end_time": 79.56136363636364,
                "pitch": 38,
                "velocity": 80,
                "duration": 0.13181818181818983,
                "tempo": 120.0
            },
            {
                "start_time": 79.56136363636364,
                "end_time": 79.69318181818181,
                "pitch": 38,
                "velocity": 80,
                "duration": 0.13181818181817562,
                "tempo": 120.0
            },
            {
                "start_time": 79.69318181818181,
                "end_time": 79.80681818181817,
                "pitch": 38,
                "velocity": 80,
                "duration": 0.11363636363635976,
                "tempo": 120.0
            },
            {
                "start_time": 79.80681818181817,
                "end_time": 79.94318181818181,
                "pitch": 38,
                "velocity": 80,
                "duration": 0.13636363636364024,
                "tempo": 120.0
            },
            {
                "start_time": 79.94318181818181,
                "end_time": 80.06363636363636,
                "pitch": 38,
                "velocity": 80,
                "duration": 0.12045454545454959,
                "tempo": 120.0
            },
            {
                "start_time": 80.07954545454545,
                "end_time": 80.2,
                "pitch": 38,
                "velocity": 80,
                "duration": 0.12045454545454959,
                "tempo": 120.0
            },
            {
                "start_time": 80.2,
                "end_time": 80.31818181818181,
                "pitch": 38,
                "velocity": 80,
                "duration": 0.11818181818181017,
                "tempo": 120.0
            },
            {
                "start_time": 80.31818181818181,
                "end_time": 80.45,
                "pitch": 38,
                "velocity": 80,
                "duration": 0.13181818181818983,
                "tempo": 120.0
            },
            {
                "start_time": 80.45,
                "end_time": 80.56590909090909,
                "pitch": 38,
                "velocity": 80,
                "duration": 0.11590909090908497,
                "tempo": 120.0
            },
            {
                "start_time": 80.56590909090909,
                "end_time": 80.69545454545454,
                "pitch": 38,
                "velocity": 80,
                "duration": 0.1295454545454504,
                "tempo": 120.0
            },
            {
                "start_time": 80.69545454545454,
                "end_time": 80.82727272727273,
                "pitch": 38,
                "velocity": 80,
                "duration": 0.13181818181818983,
                "tempo": 120.0
            }
        ]
    }
}