{
    "track_id": "Golvellius - Valley of Doom (FM) - 30 - Unknown",
    "mood": "angry",
    "instruments": {
        "Trumpet": [
            {
                "start_time": 0.20454545454545453,
                "end_time": 0.5499999999999999,
                "pitch": 62,
                "velocity": 40,
                "duration": 0.3454545454545454,
                "tempo": 120.0
            },
            {
                "start_time": 0.5499999999999999,
                "end_time": 0.7272727272727273,
                "pitch": 62,
                "velocity": 32,
                "duration": 0.17727272727272736,
                "tempo": 120.0
            },
            {
                "start_time": 0.7272727272727273,
                "end_time": 1.0613636363636363,
                "pitch": 69,
                "velocity": 40,
                "duration": 0.334090909090909,
                "tempo": 120.0
            },
            {
                "start_time": 1.0613636363636363,
                "end_time": 1.2386363636363635,
                "pitch": 69,
                "velocity": 32,
                "duration": 0.17727272727272725,
                "tempo": 120.0
            },
            {
                "start_time": 1.2386363636363635,
                "end_time": 1.584090909090909,
                "pitch": 65,
                "velocity": 40,
                "duration": 0.34545454545454546,
                "tempo": 120.0
            },
            {
                "start_time": 1.584090909090909,
                "end_time": 1.9136363636363636,
                "pitch": 68,
                "velocity": 40,
                "duration": 0.3295454545454546,
                "tempo": 120.0
            },
            {
                "start_time": 1.9136363636363636,
                "end_time": 2.0749999999999997,
                "pitch": 68,
                "velocity": 32,
                "duration": 0.16136363636363615,
                "tempo": 120.0
            },
            {
                "start_time": 2.0749999999999997,
                "end_time": 2.418181818181818,
                "pitch": 68,
                "velocity": 32,
                "duration": 0.34318181818181825,
                "tempo": 120.0
            },
            {
                "start_time": 2.418181818181818,
                "end_time": 2.7704545454545455,
                "pitch": 69,
                "velocity": 25,
                "duration": 0.3522727272727275,
                "tempo": 120.0
            },
            {
                "start_time": 2.7704545454545455,
                "end_time": 2.925,
                "pitch": 69,
                "velocity": 20,
                "duration": 0.15454545454545432,
                "tempo": 120.0
            },
            {
                "start_time": 2.925,
                "end_time": 3.2659090909090907,
                "pitch": 62,
                "velocity": 40,
                "duration": 0.34090909090909083,
                "tempo": 120.0
            },
            {
                "start_time": 3.2659090909090907,
                "end_time": 3.434090909090909,
                "pitch": 62,
                "velocity": 32,
                "duration": 0.16818181818181843,
                "tempo": 120.0
            },
            {
                "start_time": 3.434090909090909,
                "end_time": 3.768181818181818,
                "pitch": 70,
                "velocity": 40,
                "duration": 0.334090909090909,
                "tempo": 120.0
            },
            {
                "start_time": 3.768181818181818,
                "end_time": 3.9454545454545453,
                "pitch": 70,
                "velocity": 32,
                "duration": 0.17727272727272725,
                "tempo": 120.0
            },
            {
                "start_time": 3.9454545454545453,
                "end_time": 4.284090909090909,
                "pitch": 70,
                "velocity": 40,
                "duration": 0.33863636363636385,
                "tempo": 120.0
            },
            {
                "start_time": 4.284090909090909,
                "end_time": 4.634090909090909,
                "pitch": 69,
                "velocity": 40,
                "duration": 0.34999999999999964,
                "tempo": 120.0
            },
            {
                "start_time": 4.634090909090909,
                "end_time": 4.806818181818182,
                "pitch": 68,
                "velocity": 32,
                "duration": 0.17272727272727284,
                "tempo": 120.0
            },
            {
                "start_time": 4.806818181818182,
                "end_time": 5.152272727272727,
                "pitch": 64,
                "velocity": 32,
                "duration": 0.3454545454545457,
                "tempo": 120.0
            },
            {
                "start_time": 5.152272727272727,
                "end_time": 5.486363636363636,
                "pitch": 64,
                "velocity": 25,
                "duration": 0.334090909090909,
                "tempo": 120.0
            },
            {
                "start_time": 5.486363636363636,
                "end_time": 5.663636363636363,
                "pitch": 64,
                "velocity": 20,
                "duration": 0.1772727272727268,
                "tempo": 120.0
            },
            {
                "start_time": 5.663636363636363,
                "end_time": 6.002272727272727,
                "pitch": 64,
                "velocity": 40,
                "duration": 0.33863636363636385,
                "tempo": 120.0
            },
            {
                "start_time": 6.002272727272727,
                "end_time": 6.331818181818181,
                "pitch": 65,
                "velocity": 32,
                "duration": 0.32954545454545414,
                "tempo": 120.0
            },
            {
                "start_time": 6.331818181818181,
                "end_time": 6.665909090909091,
                "pitch": 65,
                "velocity": 25,
                "duration": 0.3340909090909099,
                "tempo": 120.0
            },
            {
                "start_time": 6.665909090909091,
                "end_time": 7.006818181818182,
                "pitch": 65,
                "velocity": 20,
                "duration": 0.34090909090909083,
                "tempo": 120.0
            },
            {
                "start_time": 7.006818181818182,
                "end_time": 7.345454545454545,
                "pitch": 65,
                "velocity": 40,
                "duration": 0.33863636363636296,
                "tempo": 120.0
            },
            {
                "start_time": 7.345454545454545,
                "end_time": 7.513636363636364,
                "pitch": 64,
                "velocity": 32,
                "duration": 0.16818181818181888,
                "tempo": 120.0
            },
            {
                "start_time": 7.513636363636364,
                "end_time": 7.8568181818181815,
                "pitch": 64,
                "velocity": 40,
                "duration": 0.3431818181818178,
                "tempo": 120.0
            },
            {
                "start_time": 7.8568181818181815,
                "end_time": 8.029545454545454,
                "pitch": 65,
                "velocity": 32,
                "duration": 0.17272727272727284,
                "tempo": 120.0
            },
            {
                "start_time": 8.029545454545454,
                "end_time": 8.370454545454544,
                "pitch": 68,
                "velocity": 40,
                "duration": 0.34090909090908994,
                "tempo": 120.0
            },
            {
                "start_time": 8.370454545454544,
                "end_time": 8.704545454545453,
                "pitch": 68,
                "velocity": 40,
                "duration": 0.334090909090909,
                "tempo": 120.0
            },
            {
                "start_time": 8.704545454545453,
                "end_time": 9.061363636363636,
                "pitch": 69,
                "velocity": 32,
                "duration": 0.35681818181818237,
                "tempo": 120.0
            },
            {
                "start_time": 9.061363636363636,
                "end_time": 9.406818181818181,
                "pitch": 69,
                "velocity": 25,
                "duration": 0.3454545454545457,
                "tempo": 120.0
            },
            {
                "start_time": 9.406818181818181,
                "end_time": 9.745454545454544,
                "pitch": 69,
                "velocity": 20,
                "duration": 0.33863636363636296,
                "tempo": 120.0
            },
            {
                "start_time": 9.745454545454544,
                "end_time": 10.084090909090909,
                "pitch": 64,
                "velocity": 40,
                "duration": 0.33863636363636473,
                "tempo": 120.0
            },
            {
                "start_time": 10.084090909090909,
                "end_time": 10.424999999999999,
                "pitch": 64,
                "velocity": 32,
                "duration": 0.34090909090908994,
                "tempo": 120.0
            },
            {
                "start_time": 10.424999999999999,
                "end_time": 10.759090909090908,
                "pitch": 64,
                "velocity": 25,
                "duration": 0.334090909090909,
                "tempo": 120.0
            },
            {
                "start_time": 10.759090909090908,
                "end_time": 11.1,
                "pitch": 64,
                "velocity": 20,
                "duration": 0.3409090909090917,
                "tempo": 120.0
            },
            {
                "start_time": 11.1,
                "end_time": 11.438636363636363,
                "pitch": 62,
                "velocity": 40,
                "duration": 0.33863636363636296,
                "tempo": 120.0
            },
            {
                "start_time": 11.438636363636363,
                "end_time": 11.772727272727272,
                "pitch": 62,
                "velocity": 32,
                "duration": 0.334090909090909,
                "tempo": 120.0
            },
            {
                "start_time": 11.772727272727272,
                "end_time": 12.113636363636363,
                "pitch": 62,
                "velocity": 25,
                "duration": 0.3409090909090917,
                "tempo": 120.0
            },
            {
                "start_time": 12.113636363636363,
                "end_time": 12.456818181818182,
                "pitch": 62,
                "velocity": 20,
                "duration": 0.3431818181818187,
                "tempo": 120.0
            },
            {
                "start_time": 12.456818181818182,
                "end_time": 12.790909090909091,
                "pitch": 57,
                "velocity": 40,
                "duration": 0.334090909090909,
                "tempo": 120.0
            },
            {
                "start_time": 12.790909090909091,
                "end_time": 13.143181818181818,
                "pitch": 57,
                "velocity": 32,
                "duration": 0.3522727272727266,
                "tempo": 120.0
            },
            {
                "start_time": 13.143181818181818,
                "end_time": 13.488636363636363,
                "pitch": 57,
                "velocity": 25,
                "duration": 0.3454545454545457,
                "tempo": 120.0
            },
            {
                "start_time": 13.488636363636363,
                "end_time": 13.831818181818182,
                "pitch": 57,
                "velocity": 20,
                "duration": 0.3431818181818187,
                "tempo": 120.0
            },
            {
                "start_time": 13.831818181818182,
                "end_time": 13.899999999999999,
                "pitch": 55,
                "velocity": 40,
                "duration": 0.06818181818181657,
                "tempo": 120.0
            },
            {
                "start_time": 13.899999999999999,
                "end_time": 13.970454545454544,
                "pitch": 55,
                "velocity": 40,
                "duration": 0.07045454545454533,
                "tempo": 120.0
            },
            {
                "start_time": 13.970454545454544,
                "end_time": 14.038636363636362,
                "pitch": 55,
                "velocity": 40,
                "duration": 0.06818181818181834,
                "tempo": 120.0
            },
            {
                "start_time": 14.038636363636362,
                "end_time": 14.104545454545454,
                "pitch": 55,
                "velocity": 40,
                "duration": 0.06590909090909136,
                "tempo": 120.0
            },
            {
                "start_time": 14.104545454545454,
                "end_time": 14.172727272727272,
                "pitch": 55,
                "velocity": 40,
                "duration": 0.06818181818181834,
                "tempo": 120.0
            },
            {
                "start_time": 14.172727272727272,
                "end_time": 14.238636363636363,
                "pitch": 55,
                "velocity": 32,
                "duration": 0.06590909090909136,
                "tempo": 120.0
            },
            {
                "start_time": 14.238636363636363,
                "end_time": 14.304545454545455,
                "pitch": 55,
                "velocity": 32,
                "duration": 0.06590909090909136,
                "tempo": 120.0
            },
            {
                "start_time": 14.304545454545455,
                "end_time": 14.372727272727271,
                "pitch": 55,
                "velocity": 32,
                "duration": 0.06818181818181657,
                "tempo": 120.0
            },
            {
                "start_time": 14.372727272727271,
                "end_time": 14.438636363636363,
                "pitch": 55,
                "velocity": 32,
                "duration": 0.06590909090909136,
                "tempo": 120.0
            },
            {
                "start_time": 14.438636363636363,
                "end_time": 14.506818181818181,
                "pitch": 55,
                "velocity": 32,
                "duration": 0.06818181818181834,
                "tempo": 120.0
            },
            {
                "start_time": 14.506818181818181,
                "end_time": 14.572727272727272,
                "pitch": 55,
                "velocity": 25,
                "duration": 0.06590909090909136,
                "tempo": 120.0
            },
            {
                "start_time": 14.572727272727272,
                "end_time": 14.64090909090909,
                "pitch": 55,
                "velocity": 25,
                "duration": 0.06818181818181834,
                "tempo": 120.0
            },
            {
                "start_time": 14.64090909090909,
                "end_time": 14.709090909090909,
                "pitch": 55,
                "velocity": 25,
                "duration": 0.06818181818181834,
                "tempo": 120.0
            },
            {
                "start_time": 14.709090909090909,
                "end_time": 14.777272727272727,
                "pitch": 55,
                "velocity": 25,
                "duration": 0.06818181818181834,
                "tempo": 120.0
            },
            {
                "start_time": 14.777272727272727,
                "end_time": 14.845454545454544,
                "pitch": 55,
                "velocity": 25,
                "duration": 0.06818181818181657,
                "tempo": 120.0
            },
            {
                "start_time": 14.845454545454544,
                "end_time": 14.915909090909091,
                "pitch": 55,
                "velocity": 20,
                "duration": 0.0704545454545471,
                "tempo": 120.0
            },
            {
                "start_time": 14.915909090909091,
                "end_time": 14.984090909090908,
                "pitch": 55,
                "velocity": 20,
                "duration": 0.06818181818181657,
                "tempo": 120.0
            },
            {
                "start_time": 14.984090909090908,
                "end_time": 15.052272727272726,
                "pitch": 55,
                "velocity": 20,
                "duration": 0.06818181818181834,
                "tempo": 120.0
            },
            {
                "start_time": 15.052272727272726,
                "end_time": 15.118181818181817,
                "pitch": 55,
                "velocity": 20,
                "duration": 0.06590909090909136,
                "tempo": 120.0
            },
            {
                "start_time": 15.118181818181817,
                "end_time": 15.186363636363636,
                "pitch": 55,
                "velocity": 20,
                "duration": 0.06818181818181834,
                "tempo": 120.0
            },
            {
                "start_time": 15.186363636363636,
                "end_time": 15.520454545454545,
                "pitch": 58,
                "velocity": 40,
                "duration": 0.334090909090909,
                "tempo": 120.0
            },
            {
                "start_time": 15.520454545454545,
                "end_time": 15.688636363636363,
                "pitch": 58,
                "velocity": 32,
                "duration": 0.168181818181818,
                "tempo": 120.0
            },
            {
                "start_time": 15.688636363636363,
                "end_time": 16.03181818181818,
                "pitch": 61,
                "velocity": 40,
                "duration": 0.3431818181818187,
                "tempo": 120.0
            },
            {
                "start_time": 16.03181818181818,
                "end_time": 16.204545454545453,
                "pitch": 61,
                "velocity": 32,
                "duration": 0.17272727272727195,
                "tempo": 120.0
            },
            {
                "start_time": 16.204545454545453,
                "end_time": 16.377272727272725,
                "pitch": 64,
                "velocity": 40,
                "duration": 0.17272727272727195,
                "tempo": 120.0
            }
        ],
        "Acoustic Bass": [
            {
                "start_time": 0.020454545454545454,
                "end_time": 0.20454545454545453,
                "pitch": 50,
                "velocity": 80,
                "duration": 0.18409090909090908,
                "tempo": 120.0
            },
            {
                "start_time": 0.20454545454545453,
                "end_time": 0.3727272727272727,
                "pitch": 50,
                "velocity": 80,
                "duration": 0.16818181818181815,
                "tempo": 120.0
            },
            {
                "start_time": 0.3727272727272727,
                "end_time": 0.5681818181818181,
                "pitch": 50,
                "velocity": 80,
                "duration": 0.19545454545454544,
                "tempo": 120.0
            },
            {
                "start_time": 0.5681818181818181,
                "end_time": 0.7272727272727273,
                "pitch": 50,
                "velocity": 80,
                "duration": 0.15909090909090917,
                "tempo": 120.0
            },
            {
                "start_time": 0.7272727272727273,
                "end_time": 0.8931818181818182,
                "pitch": 50,
                "velocity": 80,
                "duration": 0.1659090909090909,
                "tempo": 120.0
            },
            {
                "start_time": 0.8931818181818182,
                "end_time": 1.0795454545454546,
                "pitch": 50,
                "velocity": 80,
                "duration": 0.1863636363636364,
                "tempo": 120.0
            },
            {
                "start_time": 1.0795454545454546,
                "end_time": 1.2386363636363635,
                "pitch": 50,
                "velocity": 80,
                "duration": 0.15909090909090895,
                "tempo": 120.0
            },
            {
                "start_time": 1.2386363636363635,
                "end_time": 1.4159090909090908,
                "pitch": 50,
                "velocity": 80,
                "duration": 0.17727272727272725,
                "tempo": 120.0
            },
            {
                "start_time": 1.4159090909090908,
                "end_time": 1.584090909090909,
                "pitch": 53,
                "velocity": 80,
                "duration": 0.1681818181818182,
                "tempo": 120.0
            },
            {
                "start_time": 1.584090909090909,
                "end_time": 1.75,
                "pitch": 53,
                "velocity": 80,
                "duration": 0.165909090909091,
                "tempo": 120.0
            },
            {
                "start_time": 1.75,
                "end_time": 1.9136363636363636,
                "pitch": 53,
                "velocity": 80,
                "duration": 0.16363636363636358,
                "tempo": 120.0
            },
            {
                "start_time": 1.9136363636363636,
                "end_time": 2.0749999999999997,
                "pitch": 53,
                "velocity": 80,
                "duration": 0.16136363636363615,
                "tempo": 120.0
            },
            {
                "start_time": 2.0749999999999997,
                "end_time": 2.2477272727272726,
                "pitch": 53,
                "velocity": 80,
                "duration": 0.17272727272727284,
                "tempo": 120.0
            },
            {
                "start_time": 2.2477272727272726,
                "end_time": 2.418181818181818,
                "pitch": 53,
                "velocity": 80,
                "duration": 0.17045454545454541,
                "tempo": 120.0
            },
            {
                "start_time": 2.418181818181818,
                "end_time": 2.5863636363636364,
                "pitch": 53,
                "velocity": 80,
                "duration": 0.16818181818181843,
                "tempo": 120.0
            },
            {
                "start_time": 2.5863636363636364,
                "end_time": 2.7704545454545455,
                "pitch": 53,
                "velocity": 80,
                "duration": 0.18409090909090908,
                "tempo": 120.0
            },
            {
                "start_time": 2.7704545454545455,
                "end_time": 2.925,
                "pitch": 50,
                "velocity": 80,
                "duration": 0.15454545454545432,
                "tempo": 120.0
            },
            {
                "start_time": 2.925,
                "end_time": 3.0977272727272727,
                "pitch": 50,
                "velocity": 80,
                "duration": 0.17272727272727284,
                "tempo": 120.0
            },
            {
                "start_time": 3.0977272727272727,
                "end_time": 3.2818181818181817,
                "pitch": 50,
                "velocity": 80,
                "duration": 0.18409090909090908,
                "tempo": 120.0
            },
            {
                "start_time": 3.2818181818181817,
                "end_time": 3.434090909090909,
                "pitch": 50,
                "velocity": 80,
                "duration": 0.15227272727272734,
                "tempo": 120.0
            },
            {
                "start_time": 3.434090909090909,
                "end_time": 3.5999999999999996,
                "pitch": 50,
                "velocity": 80,
                "duration": 0.16590909090909056,
                "tempo": 120.0
            },
            {
                "start_time": 3.5999999999999996,
                "end_time": 3.7840909090909087,
                "pitch": 50,
                "velocity": 80,
                "duration": 0.18409090909090908,
                "tempo": 120.0
            },
            {
                "start_time": 3.7840909090909087,
                "end_time": 3.9454545454545453,
                "pitch": 50,
                "velocity": 80,
                "duration": 0.1613636363636366,
                "tempo": 120.0
            },
            {
                "start_time": 3.9454545454545453,
                "end_time": 4.122727272727272,
                "pitch": 50,
                "velocity": 80,
                "duration": 0.1772727272727268,
                "tempo": 120.0
            },
            {
                "start_time": 4.122727272727272,
                "end_time": 4.284090909090909,
                "pitch": 53,
                "velocity": 80,
                "duration": 0.16136363636363704,
                "tempo": 120.0
            },
            {
                "start_time": 4.284090909090909,
                "end_time": 4.463636363636364,
                "pitch": 53,
                "velocity": 80,
                "duration": 0.17954545454545467,
                "tempo": 120.0
            },
            {
                "start_time": 4.463636363636364,
                "end_time": 4.634090909090909,
                "pitch": 53,
                "velocity": 80,
                "duration": 0.17045454545454497,
                "tempo": 120.0
            },
            {
                "start_time": 4.634090909090909,
                "end_time": 4.806818181818182,
                "pitch": 53,
                "velocity": 80,
                "duration": 0.17272727272727284,
                "tempo": 120.0
            },
            {
                "start_time": 4.806818181818182,
                "end_time": 4.9795454545454545,
                "pitch": 53,
                "velocity": 80,
                "duration": 0.17272727272727284,
                "tempo": 120.0
            },
            {
                "start_time": 4.9795454545454545,
                "end_time": 5.152272727272727,
                "pitch": 53,
                "velocity": 80,
                "duration": 0.17272727272727284,
                "tempo": 120.0
            },
            {
                "start_time": 5.152272727272727,
                "end_time": 5.318181818181818,
                "pitch": 53,
                "velocity": 80,
                "duration": 0.165909090909091,
                "tempo": 120.0
            },
            {
                "start_time": 5.318181818181818,
                "end_time": 5.502272727272727,
                "pitch": 53,
                "velocity": 80,
                "duration": 0.18409090909090864,
                "tempo": 120.0
            },
            {
                "start_time": 5.502272727272727,
                "end_time": 5.663636363636363,
                "pitch": 50,
                "velocity": 80,
                "duration": 0.16136363636363615,
                "tempo": 120.0
            },
            {
                "start_time": 5.663636363636363,
                "end_time": 5.840909090909091,
                "pitch": 50,
                "velocity": 80,
                "duration": 0.1772727272727277,
                "tempo": 120.0
            },
            {
                "start_time": 5.840909090909091,
                "end_time": 6.002272727272727,
                "pitch": 50,
                "velocity": 80,
                "duration": 0.16136363636363615,
                "tempo": 120.0
            },
            {
                "start_time": 6.002272727272727,
                "end_time": 6.163636363636363,
                "pitch": 50,
                "velocity": 80,
                "duration": 0.16136363636363615,
                "tempo": 120.0
            },
            {
                "start_time": 6.163636363636363,
                "end_time": 6.331818181818181,
                "pitch": 50,
                "velocity": 80,
                "duration": 0.168181818181818,
                "tempo": 120.0
            },
            {
                "start_time": 6.331818181818181,
                "end_time": 6.5,
                "pitch": 50,
                "velocity": 80,
                "duration": 0.16818181818181888,
                "tempo": 120.0
            },
            {
                "start_time": 6.5,
                "end_time": 6.665909090909091,
                "pitch": 50,
                "velocity": 80,
                "duration": 0.165909090909091,
                "tempo": 120.0
            },
            {
                "start_time": 6.665909090909091,
                "end_time": 6.834090909090909,
                "pitch": 50,
                "velocity": 80,
                "duration": 0.168181818181818,
                "tempo": 120.0
            },
            {
                "start_time": 6.834090909090909,
                "end_time": 7.006818181818182,
                "pitch": 53,
                "velocity": 80,
                "duration": 0.17272727272727284,
                "tempo": 120.0
            },
            {
                "start_time": 7.006818181818182,
                "end_time": 7.179545454545454,
                "pitch": 53,
                "velocity": 80,
                "duration": 0.17272727272727195,
                "tempo": 120.0
            },
            {
                "start_time": 7.179545454545454,
                "end_time": 7.345454545454545,
                "pitch": 53,
                "velocity": 80,
                "duration": 0.165909090909091,
                "tempo": 120.0
            },
            {
                "start_time": 7.345454545454545,
                "end_time": 7.513636363636364,
                "pitch": 53,
                "velocity": 80,
                "duration": 0.16818181818181888,
                "tempo": 120.0
            },
            {
                "start_time": 7.513636363636364,
                "end_time": 7.686363636363636,
                "pitch": 53,
                "velocity": 80,
                "duration": 0.17272727272727195,
                "tempo": 120.0
            },
            {
                "start_time": 7.686363636363636,
                "end_time": 7.8568181818181815,
                "pitch": 53,
                "velocity": 80,
                "duration": 0.17045454545454586,
                "tempo": 120.0
            },
            {
                "start_time": 7.8568181818181815,
                "end_time": 8.029545454545454,
                "pitch": 53,
                "velocity": 80,
                "duration": 0.17272727272727284,
                "tempo": 120.0
            },
            {
                "start_time": 8.029545454545454,
                "end_time": 8.202272727272726,
                "pitch": 53,
                "velocity": 80,
                "duration": 0.17272727272727195,
                "tempo": 120.0
            },
            {
                "start_time": 8.202272727272726,
                "end_time": 8.370454545454544,
                "pitch": 50,
                "velocity": 80,
                "duration": 0.168181818181818,
                "tempo": 120.0
            },
            {
                "start_time": 8.370454545454544,
                "end_time": 8.536363636363635,
                "pitch": 50,
                "velocity": 80,
                "duration": 0.165909090909091,
                "tempo": 120.0
            },
            {
                "start_time": 8.536363636363635,
                "end_time": 8.704545454545453,
                "pitch": 50,
                "velocity": 80,
                "duration": 0.168181818181818,
                "tempo": 120.0
            },
            {
                "start_time": 8.704545454545453,
                "end_time": 8.888636363636364,
                "pitch": 50,
                "velocity": 80,
                "duration": 0.18409090909091042,
                "tempo": 120.0
            },
            {
                "start_time": 8.888636363636364,
                "end_time": 9.061363636363636,
                "pitch": 50,
                "velocity": 80,
                "duration": 0.17272727272727195,
                "tempo": 120.0
            },
            {
                "start_time": 9.061363636363636,
                "end_time": 9.23409090909091,
                "pitch": 50,
                "velocity": 80,
                "duration": 0.17272727272727373,
                "tempo": 120.0
            },
            {
                "start_time": 9.23409090909091,
                "end_time": 9.406818181818181,
                "pitch": 50,
                "velocity": 80,
                "duration": 0.17272727272727195,
                "tempo": 120.0
            },
            {
                "start_time": 9.406818181818181,
                "end_time": 9.577272727272726,
                "pitch": 50,
                "velocity": 80,
                "duration": 0.17045454545454497,
                "tempo": 120.0
            },
            {
                "start_time": 9.577272727272726,
                "end_time": 9.745454545454544,
                "pitch": 45,
                "velocity": 80,
                "duration": 0.168181818181818,
                "tempo": 120.0
            },
            {
                "start_time": 9.745454545454544,
                "end_time": 9.913636363636364,
                "pitch": 45,
                "velocity": 80,
                "duration": 0.16818181818181976,
                "tempo": 120.0
            },
            {
                "start_time": 9.913636363636364,
                "end_time": 10.084090909090909,
                "pitch": 45,
                "velocity": 80,
                "duration": 0.17045454545454497,
                "tempo": 120.0
            },
            {
                "start_time": 10.084090909090909,
                "end_time": 10.256818181818181,
                "pitch": 45,
                "velocity": 80,
                "duration": 0.17272727272727195,
                "tempo": 120.0
            },
            {
                "start_time": 10.256818181818181,
                "end_time": 10.424999999999999,
                "pitch": 45,
                "velocity": 80,
                "duration": 0.168181818181818,
                "tempo": 120.0
            },
            {
                "start_time": 10.424999999999999,
                "end_time": 10.593181818181817,
                "pitch": 45,
                "velocity": 80,
                "duration": 0.168181818181818,
                "tempo": 120.0
            },
            {
                "start_time": 10.593181818181817,
                "end_time": 10.759090909090908,
                "pitch": 45,
                "velocity": 80,
                "duration": 0.165909090909091,
                "tempo": 120.0
            },
            {
                "start_time": 10.759090909090908,
                "end_time": 10.927272727272726,
                "pitch": 45,
                "velocity": 80,
                "duration": 0.168181818181818,
                "tempo": 120.0
            },
            {
                "start_time": 10.927272727272726,
                "end_time": 11.1,
                "pitch": 50,
                "velocity": 80,
                "duration": 0.17272727272727373,
                "tempo": 120.0
            },
            {
                "start_time": 11.1,
                "end_time": 11.270454545454545,
                "pitch": 50,
                "velocity": 80,
                "duration": 0.17045454545454497,
                "tempo": 120.0
            },
            {
                "start_time": 11.270454545454545,
                "end_time": 11.438636363636363,
                "pitch": 50,
                "velocity": 80,
                "duration": 0.168181818181818,
                "tempo": 120.0
            },
            {
                "start_time": 11.438636363636363,
                "end_time": 11.60681818181818,
                "pitch": 50,
                "velocity": 80,
                "duration": 0.168181818181818,
                "tempo": 120.0
            },
            {
                "start_time": 11.60681818181818,
                "end_time": 11.772727272727272,
                "pitch": 50,
                "velocity": 80,
                "duration": 0.165909090909091,
                "tempo": 120.0
            },
            {
                "start_time": 11.772727272727272,
                "end_time": 11.94090909090909,
                "pitch": 50,
                "velocity": 80,
                "duration": 0.168181818181818,
                "tempo": 120.0
            },
            {
                "start_time": 11.94090909090909,
                "end_time": 12.113636363636363,
                "pitch": 50,
                "velocity": 80,
                "duration": 0.17272727272727373,
                "tempo": 120.0
            },
            {
                "start_time": 12.113636363636363,
                "end_time": 12.286363636363635,
                "pitch": 50,
                "velocity": 80,
                "duration": 0.17272727272727195,
                "tempo": 120.0
            },
            {
                "start_time": 12.286363636363635,
                "end_time": 12.456818181818182,
                "pitch": 50,
                "velocity": 80,
                "duration": 0.17045454545454675,
                "tempo": 120.0
            },
            {
                "start_time": 12.456818181818182,
                "end_time": 12.629545454545454,
                "pitch": 49,
                "velocity": 80,
                "duration": 0.17272727272727195,
                "tempo": 120.0
            },
            {
                "start_time": 12.629545454545454,
                "end_time": 12.790909090909091,
                "pitch": 49,
                "velocity": 80,
                "duration": 0.16136363636363704,
                "tempo": 120.0
            },
            {
                "start_time": 12.790909090909091,
                "end_time": 12.954545454545453,
                "pitch": 49,
                "velocity": 80,
                "duration": 0.16363636363636225,
                "tempo": 120.0
            },
            {
                "start_time": 12.954545454545453,
                "end_time": 13.143181818181818,
                "pitch": 49,
                "velocity": 80,
                "duration": 0.18863636363636438,
                "tempo": 120.0
            },
            {
                "start_time": 13.143181818181818,
                "end_time": 13.31590909090909,
                "pitch": 49,
                "velocity": 80,
                "duration": 0.17272727272727195,
                "tempo": 120.0
            },
            {
                "start_time": 13.31590909090909,
                "end_time": 13.488636363636363,
                "pitch": 49,
                "velocity": 80,
                "duration": 0.17272727272727373,
                "tempo": 120.0
            },
            {
                "start_time": 13.488636363636363,
                "end_time": 13.659090909090908,
                "pitch": 49,
                "velocity": 80,
                "duration": 0.17045454545454497,
                "tempo": 120.0
            },
            {
                "start_time": 13.659090909090908,
                "end_time": 13.831818181818182,
                "pitch": 52,
                "velocity": 80,
                "duration": 0.17272727272727373,
                "tempo": 120.0
            },
            {
                "start_time": 13.831818181818182,
                "end_time": 14.004545454545454,
                "pitch": 52,
                "velocity": 80,
                "duration": 0.17272727272727195,
                "tempo": 120.0
            },
            {
                "start_time": 14.004545454545454,
                "end_time": 14.172727272727272,
                "pitch": 52,
                "velocity": 80,
                "duration": 0.168181818181818,
                "tempo": 120.0
            },
            {
                "start_time": 14.172727272727272,
                "end_time": 14.338636363636363,
                "pitch": 52,
                "velocity": 80,
                "duration": 0.165909090909091,
                "tempo": 120.0
            },
            {
                "start_time": 14.338636363636363,
                "end_time": 14.506818181818181,
                "pitch": 52,
                "velocity": 80,
                "duration": 0.168181818181818,
                "tempo": 120.0
            },
            {
                "start_time": 14.506818181818181,
                "end_time": 14.674999999999999,
                "pitch": 52,
                "velocity": 80,
                "duration": 0.168181818181818,
                "tempo": 120.0
            },
            {
                "start_time": 14.674999999999999,
                "end_time": 14.845454545454544,
                "pitch": 52,
                "velocity": 80,
                "duration": 0.17045454545454497,
                "tempo": 120.0
            },
            {
                "start_time": 14.845454545454544,
                "end_time": 15.018181818181818,
                "pitch": 52,
                "velocity": 80,
                "duration": 0.17272727272727373,
                "tempo": 120.0
            },
            {
                "start_time": 15.018181818181818,
                "end_time": 15.186363636363636,
                "pitch": 46,
                "velocity": 80,
                "duration": 0.168181818181818,
                "tempo": 120.0
            },
            {
                "start_time": 15.186363636363636,
                "end_time": 15.352272727272727,
                "pitch": 46,
                "velocity": 80,
                "duration": 0.165909090909091,
                "tempo": 120.0
            },
            {
                "start_time": 15.352272727272727,
                "end_time": 15.520454545454545,
                "pitch": 46,
                "velocity": 80,
                "duration": 0.168181818181818,
                "tempo": 120.0
            },
            {
                "start_time": 15.520454545454545,
                "end_time": 15.688636363636363,
                "pitch": 46,
                "velocity": 80,
                "duration": 0.168181818181818,
                "tempo": 120.0
            },
            {
                "start_time": 15.688636363636363,
                "end_time": 15.861363636363636,
                "pitch": 46,
                "velocity": 80,
                "duration": 0.17272727272727373,
                "tempo": 120.0
            },
            {
                "start_time": 15.861363636363636,
                "end_time": 16.03181818181818,
                "pitch": 46,
                "velocity": 80,
                "duration": 0.17045454545454497,
                "tempo": 120.0
            },
            {
                "start_time": 16.03181818181818,
                "end_time": 16.204545454545453,
                "pitch": 46,
                "velocity": 80,
                "duration": 0.17272727272727195,
                "tempo": 120.0
            },
            {
                "start_time": 16.204545454545453,
                "end_time": 16.377272727272725,
                "pitch": 46,
                "velocity": 80,
                "duration": 0.17272727272727195,
                "tempo": 120.0
            }
        ]
    }
}