{
    "track_id": "Golvellius - Valley of Doom (FM) - 26 - Final Boss - Golvellius",
    "mood": "angry",
    "instruments": {
        "Lead 2 (sawtooth)": [
            {
                "start_time": 0.03409090909090909,
                "end_time": 0.2159090909090909,
                "pitch": 81,
                "velocity": 51,
                "duration": 0.18181818181818182,
                "tempo": 120.0
            },
            {
                "start_time": 0.2159090909090909,
                "end_time": 0.4159090909090909,
                "pitch": 69,
                "velocity": 51,
                "duration": 0.19999999999999998,
                "tempo": 120.0
            },
            {
                "start_time": 0.4340909090909091,
                "end_time": 0.6386363636363636,
                "pitch": 72,
                "velocity": 51,
                "duration": 0.20454545454545447,
                "tempo": 120.0
            },
            {
                "start_time": 0.6386363636363636,
                "end_time": 1.018181818181818,
                "pitch": 75,
                "velocity": 51,
                "duration": 0.3795454545454545,
                "tempo": 120.0
            },
            {
                "start_time": 1.018181818181818,
                "end_time": 1.409090909090909,
                "pitch": 72,
                "velocity": 51,
                "duration": 0.3909090909090909,
                "tempo": 120.0
            },
            {
                "start_time": 1.409090909090909,
                "end_time": 1.625,
                "pitch": 68,
                "velocity": 51,
                "duration": 0.21590909090909105,
                "tempo": 120.0
            },
            {
                "start_time": 1.625,
                "end_time": 1.8181818181818181,
                "pitch": 68,
                "velocity": 51,
                "duration": 0.19318181818181812,
                "tempo": 120.0
            },
            {
                "start_time": 1.8181818181818181,
                "end_time": 2.0295454545454543,
                "pitch": 57,
                "velocity": 51,
                "duration": 0.2113636363636362,
                "tempo": 120.0
            },
            {
                "start_time": 2.047727272727273,
                "end_time": 2.25,
                "pitch": 60,
                "velocity": 51,
                "duration": 0.20227272727272716,
                "tempo": 120.0
            },
            {
                "start_time": 2.25,
                "end_time": 2.625,
                "pitch": 63,
                "velocity": 51,
                "duration": 0.375,
                "tempo": 120.0
            },
            {
                "start_time": 2.625,
                "end_time": 3.0159090909090907,
                "pitch": 60,
                "velocity": 51,
                "duration": 0.39090909090909065,
                "tempo": 120.0
            },
            {
                "start_time": 3.0159090909090907,
                "end_time": 3.234090909090909,
                "pitch": 56,
                "velocity": 51,
                "duration": 0.21818181818181825,
                "tempo": 120.0
            },
            {
                "start_time": 3.234090909090909,
                "end_time": 3.4272727272727272,
                "pitch": 80,
                "velocity": 51,
                "duration": 0.19318181818181834,
                "tempo": 120.0
            },
            {
                "start_time": 3.4272727272727272,
                "end_time": 3.6386363636363637,
                "pitch": 69,
                "velocity": 51,
                "duration": 0.21136363636363642,
                "tempo": 120.0
            },
            {
                "start_time": 3.6545454545454543,
                "end_time": 3.8568181818181815,
                "pitch": 72,
                "velocity": 51,
                "duration": 0.20227272727272716,
                "tempo": 120.0
            },
            {
                "start_time": 3.8568181818181815,
                "end_time": 4.2295454545454545,
                "pitch": 75,
                "velocity": 51,
                "duration": 0.372727272727273,
                "tempo": 120.0
            },
            {
                "start_time": 4.2295454545454545,
                "end_time": 4.622727272727272,
                "pitch": 72,
                "velocity": 51,
                "duration": 0.39318181818181763,
                "tempo": 120.0
            },
            {
                "start_time": 4.622727272727272,
                "end_time": 4.840909090909091,
                "pitch": 68,
                "velocity": 51,
                "duration": 0.2181818181818187,
                "tempo": 120.0
            },
            {
                "start_time": 4.840909090909091,
                "end_time": 5.034090909090909,
                "pitch": 75,
                "velocity": 51,
                "duration": 0.19318181818181834,
                "tempo": 120.0
            },
            {
                "start_time": 5.034090909090909,
                "end_time": 5.245454545454545,
                "pitch": 72,
                "velocity": 51,
                "duration": 0.21136363636363598,
                "tempo": 120.0
            },
            {
                "start_time": 5.263636363636364,
                "end_time": 5.463636363636363,
                "pitch": 69,
                "velocity": 51,
                "duration": 0.1999999999999993,
                "tempo": 120.0
            },
            {
                "start_time": 5.463636363636363,
                "end_time": 5.6499999999999995,
                "pitch": 69,
                "velocity": 51,
                "duration": 0.1863636363636365,
                "tempo": 120.0
            },
            {
                "start_time": 5.6499999999999995,
                "end_time": 5.665909090909091,
                "pitch": 56,
                "velocity": 51,
                "duration": 0.01590909090909154,
                "tempo": 120.0
            },
            {
                "start_time": 5.665909090909091,
                "end_time": 5.85,
                "pitch": 64,
                "velocity": 51,
                "duration": 0.18409090909090864,
                "tempo": 120.0
            },
            {
                "start_time": 5.85,
                "end_time": 6.05,
                "pitch": 64,
                "velocity": 51,
                "duration": 0.20000000000000018,
                "tempo": 120.0
            },
            {
                "start_time": 6.05,
                "end_time": 6.0659090909090905,
                "pitch": 63,
                "velocity": 51,
                "duration": 0.01590909090909065,
                "tempo": 120.0
            },
            {
                "start_time": 6.0659090909090905,
                "end_time": 6.25,
                "pitch": 60,
                "velocity": 51,
                "duration": 0.18409090909090953,
                "tempo": 120.0
            },
            {
                "start_time": 6.25,
                "end_time": 6.468181818181818,
                "pitch": 57,
                "velocity": 51,
                "duration": 0.2181818181818178,
                "tempo": 120.0
            },
            {
                "start_time": 6.468181818181818,
                "end_time": 6.652272727272727,
                "pitch": 81,
                "velocity": 51,
                "duration": 0.18409090909090953,
                "tempo": 120.0
            },
            {
                "start_time": 6.652272727272727,
                "end_time": 6.8545454545454545,
                "pitch": 69,
                "velocity": 51,
                "duration": 0.20227272727272716,
                "tempo": 120.0
            },
            {
                "start_time": 6.870454545454545,
                "end_time": 7.070454545454545,
                "pitch": 72,
                "velocity": 51,
                "duration": 0.20000000000000018,
                "tempo": 120.0
            },
            {
                "start_time": 7.070454545454545,
                "end_time": 7.445454545454545,
                "pitch": 75,
                "velocity": 51,
                "duration": 0.375,
                "tempo": 120.0
            },
            {
                "start_time": 7.445454545454545,
                "end_time": 7.838636363636363,
                "pitch": 72,
                "velocity": 51,
                "duration": 0.39318181818181763,
                "tempo": 120.0
            },
            {
                "start_time": 7.838636363636363,
                "end_time": 8.056818181818182,
                "pitch": 68,
                "velocity": 51,
                "duration": 0.2181818181818187,
                "tempo": 120.0
            },
            {
                "start_time": 8.056818181818182,
                "end_time": 8.25,
                "pitch": 68,
                "velocity": 51,
                "duration": 0.19318181818181834,
                "tempo": 120.0
            },
            {
                "start_time": 8.25,
                "end_time": 8.461363636363636,
                "pitch": 57,
                "velocity": 51,
                "duration": 0.21136363636363598,
                "tempo": 120.0
            },
            {
                "start_time": 8.479545454545454,
                "end_time": 8.679545454545455,
                "pitch": 60,
                "velocity": 51,
                "duration": 0.20000000000000107,
                "tempo": 120.0
            },
            {
                "start_time": 8.679545454545455,
                "end_time": 9.056818181818182,
                "pitch": 63,
                "velocity": 51,
                "duration": 0.377272727272727,
                "tempo": 120.0
            },
            {
                "start_time": 9.056818181818182,
                "end_time": 9.447727272727272,
                "pitch": 60,
                "velocity": 51,
                "duration": 0.39090909090909065,
                "tempo": 120.0
            },
            {
                "start_time": 9.447727272727272,
                "end_time": 9.665909090909091,
                "pitch": 56,
                "velocity": 51,
                "duration": 0.2181818181818187,
                "tempo": 120.0
            },
            {
                "start_time": 9.665909090909091,
                "end_time": 9.85909090909091,
                "pitch": 80,
                "velocity": 51,
                "duration": 0.19318181818181834,
                "tempo": 120.0
            },
            {
                "start_time": 9.85909090909091,
                "end_time": 10.070454545454545,
                "pitch": 69,
                "velocity": 51,
                "duration": 0.21136363636363598,
                "tempo": 120.0
            },
            {
                "start_time": 10.088636363636363,
                "end_time": 10.288636363636364,
                "pitch": 72,
                "velocity": 51,
                "duration": 0.20000000000000107,
                "tempo": 120.0
            },
            {
                "start_time": 10.288636363636364,
                "end_time": 10.663636363636362,
                "pitch": 75,
                "velocity": 51,
                "duration": 0.3749999999999982,
                "tempo": 120.0
            },
            {
                "start_time": 10.663636363636362,
                "end_time": 11.056818181818182,
                "pitch": 72,
                "velocity": 51,
                "duration": 0.3931818181818194,
                "tempo": 120.0
            },
            {
                "start_time": 11.056818181818182,
                "end_time": 11.272727272727272,
                "pitch": 68,
                "velocity": 51,
                "duration": 0.21590909090908994,
                "tempo": 120.0
            },
            {
                "start_time": 11.272727272727272,
                "end_time": 11.538636363636362,
                "pitch": 75,
                "velocity": 51,
                "duration": 0.26590909090909065,
                "tempo": 120.0
            },
            {
                "start_time": 11.538636363636362,
                "end_time": 11.806818181818182,
                "pitch": 72,
                "velocity": 51,
                "duration": 0.2681818181818194,
                "tempo": 120.0
            },
            {
                "start_time": 11.806818181818182,
                "end_time": 12.061363636363636,
                "pitch": 69,
                "velocity": 51,
                "duration": 0.25454545454545396,
                "tempo": 120.0
            },
            {
                "start_time": 12.061363636363636,
                "end_time": 12.34090909090909,
                "pitch": 63,
                "velocity": 51,
                "duration": 0.2795454545454543,
                "tempo": 120.0
            },
            {
                "start_time": 12.34090909090909,
                "end_time": 12.60909090909091,
                "pitch": 60,
                "velocity": 51,
                "duration": 0.2681818181818194,
                "tempo": 120.0
            },
            {
                "start_time": 12.60909090909091,
                "end_time": 14.488636363636363,
                "pitch": 57,
                "velocity": 51,
                "duration": 1.879545454545454,
                "tempo": 120.0
            },
            {
                "start_time": 14.488636363636363,
                "end_time": 14.677272727272726,
                "pitch": 84,
                "velocity": 51,
                "duration": 0.1886363636363626,
                "tempo": 120.0
            },
            {
                "start_time": 14.677272727272726,
                "end_time": 14.899999999999999,
                "pitch": 72,
                "velocity": 51,
                "duration": 0.22272727272727266,
                "tempo": 120.0
            },
            {
                "start_time": 14.899999999999999,
                "end_time": 15.104545454545454,
                "pitch": 75,
                "velocity": 51,
                "duration": 0.20454545454545503,
                "tempo": 120.0
            },
            {
                "start_time": 15.104545454545454,
                "end_time": 15.484090909090908,
                "pitch": 78,
                "velocity": 51,
                "duration": 0.37954545454545396,
                "tempo": 120.0
            },
            {
                "start_time": 15.484090909090908,
                "end_time": 15.875,
                "pitch": 75,
                "velocity": 51,
                "duration": 0.3909090909090924,
                "tempo": 120.0
            },
            {
                "start_time": 15.875,
                "end_time": 16.09318181818182,
                "pitch": 71,
                "velocity": 51,
                "duration": 0.2181818181818187,
                "tempo": 120.0
            },
            {
                "start_time": 16.09318181818182,
                "end_time": 16.286363636363635,
                "pitch": 71,
                "velocity": 51,
                "duration": 0.19318181818181657,
                "tempo": 120.0
            },
            {
                "start_time": 16.286363636363635,
                "end_time": 16.513636363636362,
                "pitch": 60,
                "velocity": 51,
                "duration": 0.22727272727272663,
                "tempo": 120.0
            },
            {
                "start_time": 16.513636363636362,
                "end_time": 16.71590909090909,
                "pitch": 63,
                "velocity": 51,
                "duration": 0.20227272727272805,
                "tempo": 120.0
            },
            {
                "start_time": 16.71590909090909,
                "end_time": 17.09090909090909,
                "pitch": 66,
                "velocity": 51,
                "duration": 0.375,
                "tempo": 120.0
            },
            {
                "start_time": 17.09090909090909,
                "end_time": 17.48181818181818,
                "pitch": 63,
                "velocity": 51,
                "duration": 0.39090909090909065,
                "tempo": 120.0
            },
            {
                "start_time": 17.48181818181818,
                "end_time": 17.7,
                "pitch": 59,
                "velocity": 51,
                "duration": 0.2181818181818187,
                "tempo": 120.0
            },
            {
                "start_time": 17.7,
                "end_time": 17.893181818181816,
                "pitch": 83,
                "velocity": 51,
                "duration": 0.19318181818181657,
                "tempo": 120.0
            },
            {
                "start_time": 17.893181818181816,
                "end_time": 18.12272727272727,
                "pitch": 72,
                "velocity": 51,
                "duration": 0.22954545454545539,
                "tempo": 120.0
            },
            {
                "start_time": 18.12272727272727,
                "end_time": 18.32272727272727,
                "pitch": 75,
                "velocity": 51,
                "duration": 0.1999999999999993,
                "tempo": 120.0
            },
            {
                "start_time": 18.32272727272727,
                "end_time": 18.69772727272727,
                "pitch": 78,
                "velocity": 51,
                "duration": 0.375,
                "tempo": 120.0
            },
            {
                "start_time": 18.69772727272727,
                "end_time": 19.08863636363636,
                "pitch": 75,
                "velocity": 51,
                "duration": 0.39090909090909065,
                "tempo": 120.0
            },
            {
                "start_time": 19.08863636363636,
                "end_time": 19.304545454545455,
                "pitch": 71,
                "velocity": 51,
                "duration": 0.2159090909090935,
                "tempo": 120.0
            },
            {
                "start_time": 19.304545454545455,
                "end_time": 19.49772727272727,
                "pitch": 78,
                "velocity": 51,
                "duration": 0.19318181818181657,
                "tempo": 120.0
            },
            {
                "start_time": 19.49772727272727,
                "end_time": 19.727272727272727,
                "pitch": 75,
                "velocity": 51,
                "duration": 0.22954545454545539,
                "tempo": 120.0
            },
            {
                "start_time": 19.727272727272727,
                "end_time": 19.927272727272726,
                "pitch": 72,
                "velocity": 51,
                "duration": 0.1999999999999993,
                "tempo": 120.0
            },
            {
                "start_time": 19.927272727272726,
                "end_time": 20.129545454545454,
                "pitch": 72,
                "velocity": 51,
                "duration": 0.20227272727272805,
                "tempo": 120.0
            },
            {
                "start_time": 20.129545454545454,
                "end_time": 20.313636363636363,
                "pitch": 67,
                "velocity": 51,
                "duration": 0.18409090909090864,
                "tempo": 120.0
            },
            {
                "start_time": 20.313636363636363,
                "end_time": 20.529545454545453,
                "pitch": 66,
                "velocity": 51,
                "duration": 0.21590909090908994,
                "tempo": 120.0
            },
            {
                "start_time": 20.529545454545453,
                "end_time": 20.71363636363636,
                "pitch": 63,
                "velocity": 51,
                "duration": 0.18409090909090864,
                "tempo": 120.0
            },
            {
                "start_time": 20.71363636363636,
                "end_time": 20.93181818181818,
                "pitch": 60,
                "velocity": 51,
                "duration": 0.2181818181818187,
                "tempo": 120.0
            },
            {
                "start_time": 20.93181818181818,
                "end_time": 21.11590909090909,
                "pitch": 84,
                "velocity": 51,
                "duration": 0.18409090909090864,
                "tempo": 120.0
            },
            {
                "start_time": 21.11590909090909,
                "end_time": 21.331818181818182,
                "pitch": 72,
                "velocity": 51,
                "duration": 0.2159090909090935,
                "tempo": 120.0
            },
            {
                "start_time": 21.331818181818182,
                "end_time": 21.53181818181818,
                "pitch": 75,
                "velocity": 51,
                "duration": 0.1999999999999993,
                "tempo": 120.0
            },
            {
                "start_time": 21.53181818181818,
                "end_time": 21.90681818181818,
                "pitch": 78,
                "velocity": 51,
                "duration": 0.375,
                "tempo": 120.0
            },
            {
                "start_time": 21.90681818181818,
                "end_time": 22.297727272727272,
                "pitch": 75,
                "velocity": 51,
                "duration": 0.39090909090909065,
                "tempo": 120.0
            },
            {
                "start_time": 22.297727272727272,
                "end_time": 22.513636363636362,
                "pitch": 71,
                "velocity": 51,
                "duration": 0.21590909090908994,
                "tempo": 120.0
            },
            {
                "start_time": 22.513636363636362,
                "end_time": 22.706818181818182,
                "pitch": 71,
                "velocity": 51,
                "duration": 0.19318181818182012,
                "tempo": 120.0
            },
            {
                "start_time": 22.706818181818182,
                "end_time": 22.936363636363634,
                "pitch": 60,
                "velocity": 51,
                "duration": 0.22954545454545183,
                "tempo": 120.0
            },
            {
                "start_time": 22.936363636363634,
                "end_time": 23.136363636363637,
                "pitch": 63,
                "velocity": 51,
                "duration": 0.20000000000000284,
                "tempo": 120.0
            },
            {
                "start_time": 23.136363636363637,
                "end_time": 23.511363636363637,
                "pitch": 66,
                "velocity": 51,
                "duration": 0.375,
                "tempo": 120.0
            },
            {
                "start_time": 23.511363636363637,
                "end_time": 23.904545454545453,
                "pitch": 63,
                "velocity": 51,
                "duration": 0.39318181818181586,
                "tempo": 120.0
            },
            {
                "start_time": 23.904545454545453,
                "end_time": 24.12272727272727,
                "pitch": 59,
                "velocity": 51,
                "duration": 0.2181818181818187,
                "tempo": 120.0
            },
            {
                "start_time": 24.12272727272727,
                "end_time": 24.31590909090909,
                "pitch": 83,
                "velocity": 51,
                "duration": 0.19318181818182012,
                "tempo": 120.0
            },
            {
                "start_time": 24.31590909090909,
                "end_time": 24.543181818181818,
                "pitch": 72,
                "velocity": 51,
                "duration": 0.22727272727272663,
                "tempo": 120.0
            },
            {
                "start_time": 24.543181818181818,
                "end_time": 24.745454545454542,
                "pitch": 75,
                "velocity": 51,
                "duration": 0.2022727272727245,
                "tempo": 120.0
            },
            {
                "start_time": 24.745454545454542,
                "end_time": 25.120454545454542,
                "pitch": 78,
                "velocity": 51,
                "duration": 0.375,
                "tempo": 120.0
            },
            {
                "start_time": 25.120454545454542,
                "end_time": 25.511363636363637,
                "pitch": 75,
                "velocity": 51,
                "duration": 0.3909090909090942,
                "tempo": 120.0
            },
            {
                "start_time": 25.511363636363637,
                "end_time": 25.729545454545452,
                "pitch": 71,
                "velocity": 51,
                "duration": 0.21818181818181515,
                "tempo": 120.0
            },
            {
                "start_time": 25.729545454545452,
                "end_time": 25.993181818181817,
                "pitch": 78,
                "velocity": 51,
                "duration": 0.26363636363636545,
                "tempo": 120.0
            },
            {
                "start_time": 25.993181818181817,
                "end_time": 26.261363636363637,
                "pitch": 75,
                "velocity": 51,
                "duration": 0.2681818181818194,
                "tempo": 120.0
            },
            {
                "start_time": 26.261363636363637,
                "end_time": 26.51590909090909,
                "pitch": 72,
                "velocity": 51,
                "duration": 0.25454545454545396,
                "tempo": 120.0
            },
            {
                "start_time": 26.51590909090909,
                "end_time": 26.795454545454543,
                "pitch": 66,
                "velocity": 51,
                "duration": 0.27954545454545254,
                "tempo": 120.0
            },
            {
                "start_time": 26.795454545454543,
                "end_time": 27.063636363636363,
                "pitch": 63,
                "velocity": 51,
                "duration": 0.2681818181818194,
                "tempo": 120.0
            },
            {
                "start_time": 27.063636363636363,
                "end_time": 28.940909090909088,
                "pitch": 60,
                "velocity": 51,
                "duration": 1.8772727272727252,
                "tempo": 120.0
            },
            {
                "start_time": 28.940909090909088,
                "end_time": 29.129545454545454,
                "pitch": 81,
                "velocity": 51,
                "duration": 0.18863636363636616,
                "tempo": 120.0
            },
            {
                "start_time": 29.129545454545454,
                "end_time": 29.352272727272727,
                "pitch": 69,
                "velocity": 51,
                "duration": 0.22272727272727266,
                "tempo": 120.0
            },
            {
                "start_time": 29.352272727272727,
                "end_time": 29.55681818181818,
                "pitch": 72,
                "velocity": 51,
                "duration": 0.20454545454545325,
                "tempo": 120.0
            },
            {
                "start_time": 29.55681818181818,
                "end_time": 29.936363636363634,
                "pitch": 75,
                "velocity": 51,
                "duration": 0.37954545454545396,
                "tempo": 120.0
            },
            {
                "start_time": 29.936363636363634,
                "end_time": 30.327272727272724,
                "pitch": 72,
                "velocity": 51,
                "duration": 0.39090909090909065,
                "tempo": 120.0
            },
            {
                "start_time": 30.327272727272724,
                "end_time": 30.545454545454543,
                "pitch": 68,
                "velocity": 51,
                "duration": 0.2181818181818187,
                "tempo": 120.0
            },
            {
                "start_time": 30.545454545454543,
                "end_time": 30.738636363636363,
                "pitch": 68,
                "velocity": 51,
                "duration": 0.19318181818182012,
                "tempo": 120.0
            },
            {
                "start_time": 30.738636363636363,
                "end_time": 30.96590909090909,
                "pitch": 57,
                "velocity": 51,
                "duration": 0.22727272727272663,
                "tempo": 120.0
            },
            {
                "start_time": 30.96590909090909,
                "end_time": 31.168181818181818,
                "pitch": 60,
                "velocity": 51,
                "duration": 0.20227272727272805,
                "tempo": 120.0
            },
            {
                "start_time": 31.168181818181818,
                "end_time": 31.54090909090909,
                "pitch": 63,
                "velocity": 51,
                "duration": 0.37272727272727124,
                "tempo": 120.0
            },
            {
                "start_time": 31.54090909090909,
                "end_time": 31.93409090909091,
                "pitch": 60,
                "velocity": 51,
                "duration": 0.3931818181818194,
                "tempo": 120.0
            },
            {
                "start_time": 31.93409090909091,
                "end_time": 32.152272727272724,
                "pitch": 56,
                "velocity": 51,
                "duration": 0.21818181818181515,
                "tempo": 120.0
            },
            {
                "start_time": 32.152272727272724,
                "end_time": 32.345454545454544,
                "pitch": 80,
                "velocity": 51,
                "duration": 0.19318181818182012,
                "tempo": 120.0
            },
            {
                "start_time": 32.345454545454544,
                "end_time": 32.574999999999996,
                "pitch": 69,
                "velocity": 51,
                "duration": 0.22954545454545183,
                "tempo": 120.0
            },
            {
                "start_time": 32.574999999999996,
                "end_time": 32.775,
                "pitch": 72,
                "velocity": 51,
                "duration": 0.20000000000000284,
                "tempo": 120.0
            },
            {
                "start_time": 32.775,
                "end_time": 33.15,
                "pitch": 75,
                "velocity": 51,
                "duration": 0.375,
                "tempo": 120.0
            },
            {
                "start_time": 33.15,
                "end_time": 33.54090909090909,
                "pitch": 72,
                "velocity": 51,
                "duration": 0.39090909090909065,
                "tempo": 120.0
            },
            {
                "start_time": 33.54090909090909,
                "end_time": 33.75681818181818,
                "pitch": 68,
                "velocity": 51,
                "duration": 0.2159090909090935,
                "tempo": 120.0
            },
            {
                "start_time": 33.75681818181818,
                "end_time": 33.949999999999996,
                "pitch": 75,
                "velocity": 51,
                "duration": 0.19318181818181301,
                "tempo": 120.0
            },
            {
                "start_time": 33.949999999999996,
                "end_time": 34.179545454545455,
                "pitch": 72,
                "velocity": 51,
                "duration": 0.22954545454545894,
                "tempo": 120.0
            },
            {
                "start_time": 34.179545454545455,
                "end_time": 34.37954545454545,
                "pitch": 69,
                "velocity": 51,
                "duration": 0.19999999999999574,
                "tempo": 120.0
            },
            {
                "start_time": 34.37954545454545,
                "end_time": 34.57954545454545,
                "pitch": 69,
                "velocity": 51,
                "duration": 0.20000000000000284,
                "tempo": 120.0
            },
            {
                "start_time": 34.57954545454545,
                "end_time": 34.763636363636365,
                "pitch": 64,
                "velocity": 51,
                "duration": 0.1840909090909122,
                "tempo": 120.0
            },
            {
                "start_time": 34.763636363636365,
                "end_time": 34.97954545454545,
                "pitch": 64,
                "velocity": 51,
                "duration": 0.2159090909090864,
                "tempo": 120.0
            },
            {
                "start_time": 34.97954545454545,
                "end_time": 35.163636363636364,
                "pitch": 60,
                "velocity": 51,
                "duration": 0.1840909090909122,
                "tempo": 120.0
            },
            {
                "start_time": 35.163636363636364,
                "end_time": 35.38181818181818,
                "pitch": 57,
                "velocity": 51,
                "duration": 0.2181818181818187,
                "tempo": 120.0
            },
            {
                "start_time": 35.38181818181818,
                "end_time": 35.56590909090909,
                "pitch": 81,
                "velocity": 51,
                "duration": 0.18409090909090509,
                "tempo": 120.0
            },
            {
                "start_time": 35.56590909090909,
                "end_time": 35.78181818181818,
                "pitch": 69,
                "velocity": 51,
                "duration": 0.2159090909090935,
                "tempo": 120.0
            },
            {
                "start_time": 35.78181818181818,
                "end_time": 35.98181818181818,
                "pitch": 72,
                "velocity": 51,
                "duration": 0.19999999999999574,
                "tempo": 120.0
            },
            {
                "start_time": 35.98181818181818,
                "end_time": 36.35681818181818,
                "pitch": 75,
                "velocity": 51,
                "duration": 0.375,
                "tempo": 120.0
            },
            {
                "start_time": 36.35681818181818,
                "end_time": 36.74772727272727,
                "pitch": 72,
                "velocity": 51,
                "duration": 0.39090909090909065,
                "tempo": 120.0
            },
            {
                "start_time": 36.74772727272727,
                "end_time": 36.96363636363636,
                "pitch": 68,
                "velocity": 51,
                "duration": 0.2159090909090935,
                "tempo": 120.0
            },
            {
                "start_time": 36.96363636363636,
                "end_time": 37.15681818181818,
                "pitch": 68,
                "velocity": 51,
                "duration": 0.19318181818182012,
                "tempo": 120.0
            },
            {
                "start_time": 37.15681818181818,
                "end_time": 37.38636363636363,
                "pitch": 57,
                "velocity": 51,
                "duration": 0.22954545454545183,
                "tempo": 120.0
            },
            {
                "start_time": 37.38636363636363,
                "end_time": 37.586363636363636,
                "pitch": 60,
                "velocity": 51,
                "duration": 0.20000000000000284,
                "tempo": 120.0
            },
            {
                "start_time": 37.586363636363636,
                "end_time": 37.961363636363636,
                "pitch": 63,
                "velocity": 51,
                "duration": 0.375,
                "tempo": 120.0
            },
            {
                "start_time": 37.961363636363636,
                "end_time": 38.35454545454545,
                "pitch": 60,
                "velocity": 51,
                "duration": 0.39318181818181586,
                "tempo": 120.0
            },
            {
                "start_time": 38.35454545454545,
                "end_time": 38.57272727272727,
                "pitch": 56,
                "velocity": 51,
                "duration": 0.2181818181818187,
                "tempo": 120.0
            },
            {
                "start_time": 38.57272727272727,
                "end_time": 38.76590909090909,
                "pitch": 80,
                "velocity": 51,
                "duration": 0.19318181818182012,
                "tempo": 120.0
            },
            {
                "start_time": 38.76590909090909,
                "end_time": 38.99318181818182,
                "pitch": 69,
                "velocity": 51,
                "duration": 0.22727272727272663,
                "tempo": 120.0
            },
            {
                "start_time": 38.99318181818182,
                "end_time": 39.195454545454545,
                "pitch": 72,
                "velocity": 51,
                "duration": 0.20227272727272805,
                "tempo": 120.0
            },
            {
                "start_time": 39.195454545454545,
                "end_time": 39.570454545454545,
                "pitch": 75,
                "velocity": 51,
                "duration": 0.375,
                "tempo": 120.0
            },
            {
                "start_time": 39.570454545454545,
                "end_time": 39.961363636363636,
                "pitch": 72,
                "velocity": 51,
                "duration": 0.39090909090909065,
                "tempo": 120.0
            },
            {
                "start_time": 39.961363636363636,
                "end_time": 40.179545454545455,
                "pitch": 68,
                "velocity": 51,
                "duration": 0.2181818181818187,
                "tempo": 120.0
            },
            {
                "start_time": 40.179545454545455,
                "end_time": 40.44318181818181,
                "pitch": 75,
                "velocity": 51,
                "duration": 0.26363636363635834,
                "tempo": 120.0
            },
            {
                "start_time": 40.44318181818181,
                "end_time": 40.711363636363636,
                "pitch": 72,
                "velocity": 51,
                "duration": 0.26818181818182296,
                "tempo": 120.0
            },
            {
                "start_time": 40.711363636363636,
                "end_time": 40.965909090909086,
                "pitch": 69,
                "velocity": 51,
                "duration": 0.2545454545454504,
                "tempo": 120.0
            },
            {
                "start_time": 40.965909090909086,
                "end_time": 41.24545454545454,
                "pitch": 63,
                "velocity": 51,
                "duration": 0.2795454545454561,
                "tempo": 120.0
            },
            {
                "start_time": 41.24545454545454,
                "end_time": 41.51363636363636,
                "pitch": 60,
                "velocity": 51,
                "duration": 0.26818181818181586,
                "tempo": 120.0
            },
            {
                "start_time": 41.51363636363636,
                "end_time": 41.78409090909091,
                "pitch": 57,
                "velocity": 51,
                "duration": 0.27045454545454817,
                "tempo": 120.0
            }
        ],
        "Acoustic Bass": [
            {
                "start_time": 0.03409090909090909,
                "end_time": 0.23409090909090907,
                "pitch": 45,
                "velocity": 40,
                "duration": 0.19999999999999998,
                "tempo": 120.0
            },
            {
                "start_time": 0.23409090909090907,
                "end_time": 0.4340909090909091,
                "pitch": 51,
                "velocity": 40,
                "duration": 0.2,
                "tempo": 120.0
            },
            {
                "start_time": 0.4340909090909091,
                "end_time": 0.6386363636363636,
                "pitch": 45,
                "velocity": 40,
                "duration": 0.20454545454545447,
                "tempo": 120.0
            },
            {
                "start_time": 0.6386363636363636,
                "end_time": 0.8272727272727273,
                "pitch": 51,
                "velocity": 40,
                "duration": 0.1886363636363637,
                "tempo": 120.0
            },
            {
                "start_time": 0.8272727272727273,
                "end_time": 1.034090909090909,
                "pitch": 45,
                "velocity": 40,
                "duration": 0.20681818181818168,
                "tempo": 120.0
            },
            {
                "start_time": 1.034090909090909,
                "end_time": 1.209090909090909,
                "pitch": 51,
                "velocity": 40,
                "duration": 0.17500000000000004,
                "tempo": 120.0
            },
            {
                "start_time": 1.209090909090909,
                "end_time": 1.4249999999999998,
                "pitch": 45,
                "velocity": 40,
                "duration": 0.21590909090909083,
                "tempo": 120.0
            },
            {
                "start_time": 1.4249999999999998,
                "end_time": 1.625,
                "pitch": 51,
                "velocity": 40,
                "duration": 0.20000000000000018,
                "tempo": 120.0
            },
            {
                "start_time": 1.625,
                "end_time": 1.8363636363636362,
                "pitch": 45,
                "velocity": 40,
                "duration": 0.2113636363636362,
                "tempo": 120.0
            },
            {
                "start_time": 1.8363636363636362,
                "end_time": 2.047727272727273,
                "pitch": 51,
                "velocity": 40,
                "duration": 0.21136363636363664,
                "tempo": 120.0
            },
            {
                "start_time": 2.047727272727273,
                "end_time": 2.25,
                "pitch": 45,
                "velocity": 40,
                "duration": 0.20227272727272716,
                "tempo": 120.0
            },
            {
                "start_time": 2.25,
                "end_time": 2.434090909090909,
                "pitch": 51,
                "velocity": 40,
                "duration": 0.18409090909090908,
                "tempo": 120.0
            },
            {
                "start_time": 2.434090909090909,
                "end_time": 2.6409090909090907,
                "pitch": 45,
                "velocity": 40,
                "duration": 0.20681818181818157,
                "tempo": 120.0
            },
            {
                "start_time": 2.6409090909090907,
                "end_time": 2.815909090909091,
                "pitch": 51,
                "velocity": 40,
                "duration": 0.17500000000000027,
                "tempo": 120.0
            },
            {
                "start_time": 2.815909090909091,
                "end_time": 3.0340909090909087,
                "pitch": 45,
                "velocity": 40,
                "duration": 0.2181818181818178,
                "tempo": 120.0
            },
            {
                "start_time": 3.0340909090909087,
                "end_time": 3.234090909090909,
                "pitch": 51,
                "velocity": 40,
                "duration": 0.20000000000000018,
                "tempo": 120.0
            },
            {
                "start_time": 3.234090909090909,
                "end_time": 3.443181818181818,
                "pitch": 45,
                "velocity": 40,
                "duration": 0.209090909090909,
                "tempo": 120.0
            },
            {
                "start_time": 3.443181818181818,
                "end_time": 3.6545454545454543,
                "pitch": 51,
                "velocity": 40,
                "duration": 0.21136363636363642,
                "tempo": 120.0
            },
            {
                "start_time": 3.6545454545454543,
                "end_time": 3.8568181818181815,
                "pitch": 45,
                "velocity": 40,
                "duration": 0.20227272727272716,
                "tempo": 120.0
            },
            {
                "start_time": 3.8568181818181815,
                "end_time": 4.038636363636363,
                "pitch": 51,
                "velocity": 40,
                "duration": 0.18181818181818166,
                "tempo": 120.0
            },
            {
                "start_time": 4.038636363636363,
                "end_time": 4.245454545454545,
                "pitch": 45,
                "velocity": 40,
                "duration": 0.206818181818182,
                "tempo": 120.0
            },
            {
                "start_time": 4.245454545454545,
                "end_time": 4.420454545454545,
                "pitch": 51,
                "velocity": 40,
                "duration": 0.17499999999999982,
                "tempo": 120.0
            },
            {
                "start_time": 4.420454545454545,
                "end_time": 4.638636363636364,
                "pitch": 45,
                "velocity": 40,
                "duration": 0.2181818181818187,
                "tempo": 120.0
            },
            {
                "start_time": 4.638636363636364,
                "end_time": 4.840909090909091,
                "pitch": 51,
                "velocity": 40,
                "duration": 0.20227272727272716,
                "tempo": 120.0
            },
            {
                "start_time": 4.840909090909091,
                "end_time": 5.052272727272727,
                "pitch": 45,
                "velocity": 40,
                "duration": 0.21136363636363598,
                "tempo": 120.0
            },
            {
                "start_time": 5.052272727272727,
                "end_time": 5.263636363636364,
                "pitch": 51,
                "velocity": 40,
                "duration": 0.21136363636363686,
                "tempo": 120.0
            },
            {
                "start_time": 5.263636363636364,
                "end_time": 5.463636363636363,
                "pitch": 45,
                "velocity": 40,
                "duration": 0.1999999999999993,
                "tempo": 120.0
            },
            {
                "start_time": 5.463636363636363,
                "end_time": 5.665909090909091,
                "pitch": 51,
                "velocity": 40,
                "duration": 0.20227272727272805,
                "tempo": 120.0
            },
            {
                "start_time": 5.665909090909091,
                "end_time": 5.86590909090909,
                "pitch": 45,
                "velocity": 40,
                "duration": 0.1999999999999993,
                "tempo": 120.0
            },
            {
                "start_time": 5.86590909090909,
                "end_time": 6.0659090909090905,
                "pitch": 51,
                "velocity": 40,
                "duration": 0.20000000000000018,
                "tempo": 120.0
            },
            {
                "start_time": 6.0659090909090905,
                "end_time": 6.268181818181818,
                "pitch": 45,
                "velocity": 40,
                "duration": 0.20227272727272716,
                "tempo": 120.0
            },
            {
                "start_time": 6.268181818181818,
                "end_time": 6.468181818181818,
                "pitch": 51,
                "velocity": 40,
                "duration": 0.20000000000000018,
                "tempo": 120.0
            },
            {
                "start_time": 6.468181818181818,
                "end_time": 6.670454545454545,
                "pitch": 45,
                "velocity": 40,
                "duration": 0.20227272727272716,
                "tempo": 120.0
            },
            {
                "start_time": 6.670454545454545,
                "end_time": 6.870454545454545,
                "pitch": 51,
                "velocity": 40,
                "duration": 0.20000000000000018,
                "tempo": 120.0
            },
            {
                "start_time": 6.870454545454545,
                "end_time": 7.070454545454545,
                "pitch": 45,
                "velocity": 40,
                "duration": 0.20000000000000018,
                "tempo": 120.0
            },
            {
                "start_time": 7.070454545454545,
                "end_time": 7.254545454545454,
                "pitch": 51,
                "velocity": 40,
                "duration": 0.18409090909090864,
                "tempo": 120.0
            },
            {
                "start_time": 7.254545454545454,
                "end_time": 7.461363636363636,
                "pitch": 45,
                "velocity": 40,
                "duration": 0.206818181818182,
                "tempo": 120.0
            },
            {
                "start_time": 7.461363636363636,
                "end_time": 7.636363636363636,
                "pitch": 51,
                "velocity": 40,
                "duration": 0.17499999999999982,
                "tempo": 120.0
            },
            {
                "start_time": 7.636363636363636,
                "end_time": 7.8545454545454545,
                "pitch": 45,
                "velocity": 40,
                "duration": 0.2181818181818187,
                "tempo": 120.0
            },
            {
                "start_time": 7.8545454545454545,
                "end_time": 8.056818181818182,
                "pitch": 51,
                "velocity": 40,
                "duration": 0.20227272727272716,
                "tempo": 120.0
            },
            {
                "start_time": 8.056818181818182,
                "end_time": 8.268181818181818,
                "pitch": 45,
                "velocity": 40,
                "duration": 0.21136363636363598,
                "tempo": 120.0
            },
            {
                "start_time": 8.268181818181818,
                "end_time": 8.479545454545454,
                "pitch": 51,
                "velocity": 40,
                "duration": 0.21136363636363598,
                "tempo": 120.0
            },
            {
                "start_time": 8.479545454545454,
                "end_time": 8.679545454545455,
                "pitch": 45,
                "velocity": 40,
                "duration": 0.20000000000000107,
                "tempo": 120.0
            },
            {
                "start_time": 8.679545454545455,
                "end_time": 8.863636363636363,
                "pitch": 51,
                "velocity": 40,
                "duration": 0.18409090909090864,
                "tempo": 120.0
            },
            {
                "start_time": 8.863636363636363,
                "end_time": 9.072727272727272,
                "pitch": 45,
                "velocity": 40,
                "duration": 0.209090909090909,
                "tempo": 120.0
            },
            {
                "start_time": 9.072727272727272,
                "end_time": 9.247727272727273,
                "pitch": 51,
                "velocity": 40,
                "duration": 0.1750000000000007,
                "tempo": 120.0
            },
            {
                "start_time": 9.247727272727273,
                "end_time": 9.46590909090909,
                "pitch": 45,
                "velocity": 40,
                "duration": 0.21818181818181692,
                "tempo": 120.0
            },
            {
                "start_time": 9.46590909090909,
                "end_time": 9.665909090909091,
                "pitch": 51,
                "velocity": 40,
                "duration": 0.20000000000000107,
                "tempo": 120.0
            },
            {
                "start_time": 9.665909090909091,
                "end_time": 9.877272727272727,
                "pitch": 45,
                "velocity": 40,
                "duration": 0.21136363636363598,
                "tempo": 120.0
            },
            {
                "start_time": 9.877272727272727,
                "end_time": 10.088636363636363,
                "pitch": 51,
                "velocity": 40,
                "duration": 0.21136363636363598,
                "tempo": 120.0
            },
            {
                "start_time": 10.088636363636363,
                "end_time": 10.288636363636364,
                "pitch": 45,
                "velocity": 40,
                "duration": 0.20000000000000107,
                "tempo": 120.0
            },
            {
                "start_time": 10.288636363636364,
                "end_time": 10.472727272727273,
                "pitch": 51,
                "velocity": 40,
                "duration": 0.18409090909090864,
                "tempo": 120.0
            },
            {
                "start_time": 10.472727272727273,
                "end_time": 10.679545454545455,
                "pitch": 45,
                "velocity": 40,
                "duration": 0.206818181818182,
                "tempo": 120.0
            },
            {
                "start_time": 10.679545454545455,
                "end_time": 10.854545454545454,
                "pitch": 51,
                "velocity": 40,
                "duration": 0.17499999999999893,
                "tempo": 120.0
            },
            {
                "start_time": 10.854545454545454,
                "end_time": 11.072727272727272,
                "pitch": 45,
                "velocity": 40,
                "duration": 0.2181818181818187,
                "tempo": 120.0
            },
            {
                "start_time": 11.072727272727272,
                "end_time": 11.272727272727272,
                "pitch": 51,
                "velocity": 40,
                "duration": 0.1999999999999993,
                "tempo": 120.0
            },
            {
                "start_time": 11.272727272727272,
                "end_time": 11.468181818181817,
                "pitch": 45,
                "velocity": 40,
                "duration": 0.19545454545454533,
                "tempo": 120.0
            },
            {
                "start_time": 11.468181818181817,
                "end_time": 11.677272727272726,
                "pitch": 51,
                "velocity": 40,
                "duration": 0.209090909090909,
                "tempo": 120.0
            },
            {
                "start_time": 11.677272727272726,
                "end_time": 11.870454545454544,
                "pitch": 45,
                "velocity": 40,
                "duration": 0.19318181818181834,
                "tempo": 120.0
            },
            {
                "start_time": 11.870454545454544,
                "end_time": 12.077272727272726,
                "pitch": 51,
                "velocity": 40,
                "duration": 0.206818181818182,
                "tempo": 120.0
            },
            {
                "start_time": 12.077272727272726,
                "end_time": 12.270454545454545,
                "pitch": 45,
                "velocity": 40,
                "duration": 0.19318181818181834,
                "tempo": 120.0
            },
            {
                "start_time": 12.270454545454545,
                "end_time": 12.48181818181818,
                "pitch": 51,
                "velocity": 40,
                "duration": 0.21136363636363598,
                "tempo": 120.0
            },
            {
                "start_time": 12.48181818181818,
                "end_time": 12.672727272727272,
                "pitch": 45,
                "velocity": 40,
                "duration": 0.19090909090909136,
                "tempo": 120.0
            },
            {
                "start_time": 12.672727272727272,
                "end_time": 12.879545454545454,
                "pitch": 51,
                "velocity": 40,
                "duration": 0.206818181818182,
                "tempo": 120.0
            },
            {
                "start_time": 12.879545454545454,
                "end_time": 13.072727272727272,
                "pitch": 44,
                "velocity": 40,
                "duration": 0.19318181818181834,
                "tempo": 120.0
            },
            {
                "start_time": 13.072727272727272,
                "end_time": 13.284090909090908,
                "pitch": 50,
                "velocity": 40,
                "duration": 0.21136363636363598,
                "tempo": 120.0
            },
            {
                "start_time": 13.284090909090908,
                "end_time": 13.48181818181818,
                "pitch": 45,
                "velocity": 40,
                "duration": 0.1977272727272723,
                "tempo": 120.0
            },
            {
                "start_time": 13.48181818181818,
                "end_time": 13.677272727272726,
                "pitch": 51,
                "velocity": 40,
                "duration": 0.19545454545454533,
                "tempo": 120.0
            },
            {
                "start_time": 13.677272727272726,
                "end_time": 13.872727272727271,
                "pitch": 46,
                "velocity": 40,
                "duration": 0.19545454545454533,
                "tempo": 120.0
            },
            {
                "start_time": 13.872727272727271,
                "end_time": 14.068181818181818,
                "pitch": 52,
                "velocity": 40,
                "duration": 0.1954545454545471,
                "tempo": 120.0
            },
            {
                "start_time": 14.068181818181818,
                "end_time": 14.270454545454545,
                "pitch": 47,
                "velocity": 40,
                "duration": 0.20227272727272627,
                "tempo": 120.0
            },
            {
                "start_time": 14.270454545454545,
                "end_time": 14.488636363636363,
                "pitch": 53,
                "velocity": 40,
                "duration": 0.2181818181818187,
                "tempo": 120.0
            },
            {
                "start_time": 14.488636363636363,
                "end_time": 14.693181818181818,
                "pitch": 48,
                "velocity": 40,
                "duration": 0.20454545454545503,
                "tempo": 120.0
            },
            {
                "start_time": 14.693181818181818,
                "end_time": 14.899999999999999,
                "pitch": 54,
                "velocity": 40,
                "duration": 0.20681818181818024,
                "tempo": 120.0
            },
            {
                "start_time": 14.899999999999999,
                "end_time": 15.104545454545454,
                "pitch": 48,
                "velocity": 40,
                "duration": 0.20454545454545503,
                "tempo": 120.0
            },
            {
                "start_time": 15.104545454545454,
                "end_time": 15.293181818181818,
                "pitch": 54,
                "velocity": 40,
                "duration": 0.18863636363636438,
                "tempo": 120.0
            },
            {
                "start_time": 15.293181818181818,
                "end_time": 15.5,
                "pitch": 48,
                "velocity": 40,
                "duration": 0.206818181818182,
                "tempo": 120.0
            },
            {
                "start_time": 15.5,
                "end_time": 15.674999999999999,
                "pitch": 54,
                "velocity": 40,
                "duration": 0.17499999999999893,
                "tempo": 120.0
            },
            {
                "start_time": 15.674999999999999,
                "end_time": 15.893181818181818,
                "pitch": 48,
                "velocity": 40,
                "duration": 0.2181818181818187,
                "tempo": 120.0
            },
            {
                "start_time": 15.893181818181818,
                "end_time": 16.09318181818182,
                "pitch": 54,
                "velocity": 40,
                "duration": 0.20000000000000107,
                "tempo": 120.0
            },
            {
                "start_time": 16.09318181818182,
                "end_time": 16.302272727272726,
                "pitch": 48,
                "velocity": 40,
                "duration": 0.20909090909090722,
                "tempo": 120.0
            },
            {
                "start_time": 16.302272727272726,
                "end_time": 16.513636363636362,
                "pitch": 54,
                "velocity": 40,
                "duration": 0.21136363636363598,
                "tempo": 120.0
            },
            {
                "start_time": 16.513636363636362,
                "end_time": 16.71590909090909,
                "pitch": 48,
                "velocity": 40,
                "duration": 0.20227272727272805,
                "tempo": 120.0
            },
            {
                "start_time": 16.71590909090909,
                "end_time": 16.9,
                "pitch": 54,
                "velocity": 40,
                "duration": 0.18409090909090864,
                "tempo": 120.0
            },
            {
                "start_time": 16.9,
                "end_time": 17.10681818181818,
                "pitch": 48,
                "velocity": 40,
                "duration": 0.206818181818182,
                "tempo": 120.0
            },
            {
                "start_time": 17.10681818181818,
                "end_time": 17.284090909090907,
                "pitch": 54,
                "velocity": 40,
                "duration": 0.17727272727272592,
                "tempo": 120.0
            },
            {
                "start_time": 17.284090909090907,
                "end_time": 17.5,
                "pitch": 48,
                "velocity": 40,
                "duration": 0.2159090909090935,
                "tempo": 120.0
            },
            {
                "start_time": 17.5,
                "end_time": 17.7,
                "pitch": 54,
                "velocity": 40,
                "duration": 0.1999999999999993,
                "tempo": 120.0
            },
            {
                "start_time": 17.7,
                "end_time": 17.911363636363635,
                "pitch": 48,
                "velocity": 40,
                "duration": 0.21136363636363598,
                "tempo": 120.0
            },
            {
                "start_time": 17.911363636363635,
                "end_time": 18.12272727272727,
                "pitch": 54,
                "velocity": 40,
                "duration": 0.21136363636363598,
                "tempo": 120.0
            },
            {
                "start_time": 18.12272727272727,
                "end_time": 18.32272727272727,
                "pitch": 48,
                "velocity": 40,
                "duration": 0.1999999999999993,
                "tempo": 120.0
            },
            {
                "start_time": 18.32272727272727,
                "end_time": 18.504545454545454,
                "pitch": 54,
                "velocity": 40,
                "duration": 0.18181818181818343,
                "tempo": 120.0
            },
            {
                "start_time": 18.504545454545454,
                "end_time": 18.71363636363636,
                "pitch": 48,
                "velocity": 40,
                "duration": 0.20909090909090722,
                "tempo": 120.0
            },
            {
                "start_time": 18.71363636363636,
                "end_time": 18.888636363636362,
                "pitch": 54,
                "velocity": 40,
                "duration": 0.1750000000000007,
                "tempo": 120.0
            },
            {
                "start_time": 18.888636363636362,
                "end_time": 19.104545454545455,
                "pitch": 48,
                "velocity": 40,
                "duration": 0.2159090909090935,
                "tempo": 120.0
            },
            {
                "start_time": 19.104545454545455,
                "end_time": 19.304545454545455,
                "pitch": 54,
                "velocity": 40,
                "duration": 0.1999999999999993,
                "tempo": 120.0
            },
            {
                "start_time": 19.304545454545455,
                "end_time": 19.51590909090909,
                "pitch": 48,
                "velocity": 40,
                "duration": 0.21136363636363598,
                "tempo": 120.0
            },
            {
                "start_time": 19.51590909090909,
                "end_time": 19.727272727272727,
                "pitch": 54,
                "velocity": 40,
                "duration": 0.21136363636363598,
                "tempo": 120.0
            },
            {
                "start_time": 19.727272727272727,
                "end_time": 19.927272727272726,
                "pitch": 48,
                "velocity": 40,
                "duration": 0.1999999999999993,
                "tempo": 120.0
            },
            {
                "start_time": 19.927272727272726,
                "end_time": 20.129545454545454,
                "pitch": 54,
                "velocity": 40,
                "duration": 0.20227272727272805,
                "tempo": 120.0
            },
            {
                "start_time": 20.129545454545454,
                "end_time": 20.329545454545453,
                "pitch": 48,
                "velocity": 40,
                "duration": 0.1999999999999993,
                "tempo": 120.0
            },
            {
                "start_time": 20.329545454545453,
                "end_time": 20.529545454545453,
                "pitch": 54,
                "velocity": 40,
                "duration": 0.1999999999999993,
                "tempo": 120.0
            },
            {
                "start_time": 20.529545454545453,
                "end_time": 20.73181818181818,
                "pitch": 48,
                "velocity": 40,
                "duration": 0.20227272727272805,
                "tempo": 120.0
            },
            {
                "start_time": 20.73181818181818,
                "end_time": 20.93181818181818,
                "pitch": 54,
                "velocity": 40,
                "duration": 0.1999999999999993,
                "tempo": 120.0
            },
            {
                "start_time": 20.93181818181818,
                "end_time": 21.13181818181818,
                "pitch": 48,
                "velocity": 40,
                "duration": 0.1999999999999993,
                "tempo": 120.0
            },
            {
                "start_time": 21.13181818181818,
                "end_time": 21.331818181818182,
                "pitch": 54,
                "velocity": 40,
                "duration": 0.20000000000000284,
                "tempo": 120.0
            },
            {
                "start_time": 21.331818181818182,
                "end_time": 21.53181818181818,
                "pitch": 48,
                "velocity": 40,
                "duration": 0.1999999999999993,
                "tempo": 120.0
            },
            {
                "start_time": 21.53181818181818,
                "end_time": 21.71590909090909,
                "pitch": 54,
                "velocity": 40,
                "duration": 0.18409090909090864,
                "tempo": 120.0
            },
            {
                "start_time": 21.71590909090909,
                "end_time": 21.922727272727272,
                "pitch": 48,
                "velocity": 40,
                "duration": 0.206818181818182,
                "tempo": 120.0
            },
            {
                "start_time": 21.922727272727272,
                "end_time": 22.097727272727273,
                "pitch": 54,
                "velocity": 40,
                "duration": 0.1750000000000007,
                "tempo": 120.0
            },
            {
                "start_time": 22.097727272727273,
                "end_time": 22.313636363636363,
                "pitch": 48,
                "velocity": 40,
                "duration": 0.21590909090908994,
                "tempo": 120.0
            },
            {
                "start_time": 22.313636363636363,
                "end_time": 22.513636363636362,
                "pitch": 54,
                "velocity": 40,
                "duration": 0.1999999999999993,
                "tempo": 120.0
            },
            {
                "start_time": 22.513636363636362,
                "end_time": 22.724999999999998,
                "pitch": 48,
                "velocity": 40,
                "duration": 0.21136363636363598,
                "tempo": 120.0
            },
            {
                "start_time": 22.724999999999998,
                "end_time": 22.936363636363634,
                "pitch": 54,
                "velocity": 40,
                "duration": 0.21136363636363598,
                "tempo": 120.0
            },
            {
                "start_time": 22.936363636363634,
                "end_time": 23.136363636363637,
                "pitch": 48,
                "velocity": 40,
                "duration": 0.20000000000000284,
                "tempo": 120.0
            },
            {
                "start_time": 23.136363636363637,
                "end_time": 23.320454545454545,
                "pitch": 54,
                "velocity": 40,
                "duration": 0.18409090909090864,
                "tempo": 120.0
            },
            {
                "start_time": 23.320454545454545,
                "end_time": 23.527272727272727,
                "pitch": 48,
                "velocity": 40,
                "duration": 0.206818181818182,
                "tempo": 120.0
            },
            {
                "start_time": 23.527272727272727,
                "end_time": 23.702272727272724,
                "pitch": 54,
                "velocity": 40,
                "duration": 0.17499999999999716,
                "tempo": 120.0
            },
            {
                "start_time": 23.702272727272724,
                "end_time": 23.920454545454543,
                "pitch": 48,
                "velocity": 40,
                "duration": 0.2181818181818187,
                "tempo": 120.0
            },
            {
                "start_time": 23.920454545454543,
                "end_time": 24.12272727272727,
                "pitch": 54,
                "velocity": 40,
                "duration": 0.20227272727272805,
                "tempo": 120.0
            },
            {
                "start_time": 24.12272727272727,
                "end_time": 24.331818181818182,
                "pitch": 48,
                "velocity": 40,
                "duration": 0.20909090909091077,
                "tempo": 120.0
            },
            {
                "start_time": 24.331818181818182,
                "end_time": 24.543181818181818,
                "pitch": 54,
                "velocity": 40,
                "duration": 0.21136363636363598,
                "tempo": 120.0
            },
            {
                "start_time": 24.543181818181818,
                "end_time": 24.745454545454542,
                "pitch": 48,
                "velocity": 40,
                "duration": 0.2022727272727245,
                "tempo": 120.0
            },
            {
                "start_time": 24.745454545454542,
                "end_time": 24.929545454545455,
                "pitch": 54,
                "velocity": 40,
                "duration": 0.1840909090909122,
                "tempo": 120.0
            },
            {
                "start_time": 24.929545454545455,
                "end_time": 25.136363636363637,
                "pitch": 48,
                "velocity": 40,
                "duration": 0.206818181818182,
                "tempo": 120.0
            },
            {
                "start_time": 25.136363636363637,
                "end_time": 25.313636363636363,
                "pitch": 54,
                "velocity": 40,
                "duration": 0.17727272727272592,
                "tempo": 120.0
            },
            {
                "start_time": 25.313636363636363,
                "end_time": 25.529545454545453,
                "pitch": 48,
                "velocity": 40,
                "duration": 0.21590909090908994,
                "tempo": 120.0
            },
            {
                "start_time": 25.529545454545453,
                "end_time": 25.729545454545452,
                "pitch": 54,
                "velocity": 40,
                "duration": 0.1999999999999993,
                "tempo": 120.0
            },
            {
                "start_time": 25.729545454545452,
                "end_time": 25.922727272727272,
                "pitch": 48,
                "velocity": 40,
                "duration": 0.19318181818182012,
                "tempo": 120.0
            },
            {
                "start_time": 25.922727272727272,
                "end_time": 26.134090909090908,
                "pitch": 54,
                "velocity": 40,
                "duration": 0.21136363636363598,
                "tempo": 120.0
            },
            {
                "start_time": 26.134090909090908,
                "end_time": 26.325,
                "pitch": 48,
                "velocity": 40,
                "duration": 0.19090909090909136,
                "tempo": 120.0
            },
            {
                "start_time": 26.325,
                "end_time": 26.53181818181818,
                "pitch": 54,
                "velocity": 40,
                "duration": 0.206818181818182,
                "tempo": 120.0
            },
            {
                "start_time": 26.53181818181818,
                "end_time": 26.724999999999998,
                "pitch": 48,
                "velocity": 40,
                "duration": 0.19318181818181657,
                "tempo": 120.0
            },
            {
                "start_time": 26.724999999999998,
                "end_time": 26.936363636363634,
                "pitch": 54,
                "velocity": 40,
                "duration": 0.21136363636363598,
                "tempo": 120.0
            },
            {
                "start_time": 26.936363636363634,
                "end_time": 27.127272727272725,
                "pitch": 48,
                "velocity": 40,
                "duration": 0.19090909090909136,
                "tempo": 120.0
            },
            {
                "start_time": 27.127272727272725,
                "end_time": 27.334090909090907,
                "pitch": 54,
                "velocity": 40,
                "duration": 0.206818181818182,
                "tempo": 120.0
            },
            {
                "start_time": 27.334090909090907,
                "end_time": 27.527272727272727,
                "pitch": 52,
                "velocity": 40,
                "duration": 0.19318181818182012,
                "tempo": 120.0
            },
            {
                "start_time": 27.527272727272727,
                "end_time": 27.738636363636363,
                "pitch": 58,
                "velocity": 40,
                "duration": 0.21136363636363598,
                "tempo": 120.0
            },
            {
                "start_time": 27.738636363636363,
                "end_time": 27.929545454545455,
                "pitch": 51,
                "velocity": 40,
                "duration": 0.19090909090909136,
                "tempo": 120.0
            },
            {
                "start_time": 27.929545454545455,
                "end_time": 28.120454545454542,
                "pitch": 57,
                "velocity": 40,
                "duration": 0.1909090909090878,
                "tempo": 120.0
            },
            {
                "start_time": 28.120454545454542,
                "end_time": 28.320454545454545,
                "pitch": 50,
                "velocity": 40,
                "duration": 0.20000000000000284,
                "tempo": 120.0
            },
            {
                "start_time": 28.320454545454545,
                "end_time": 28.520454545454545,
                "pitch": 56,
                "velocity": 40,
                "duration": 0.1999999999999993,
                "tempo": 120.0
            },
            {
                "start_time": 28.520454545454545,
                "end_time": 28.722727272727273,
                "pitch": 49,
                "velocity": 40,
                "duration": 0.20227272727272805,
                "tempo": 120.0
            },
            {
                "start_time": 28.722727272727273,
                "end_time": 28.940909090909088,
                "pitch": 55,
                "velocity": 40,
                "duration": 0.21818181818181515,
                "tempo": 120.0
            },
            {
                "start_time": 28.940909090909088,
                "end_time": 29.145454545454545,
                "pitch": 43,
                "velocity": 40,
                "duration": 0.2045454545454568,
                "tempo": 120.0
            },
            {
                "start_time": 29.145454545454545,
                "end_time": 29.352272727272727,
                "pitch": 51,
                "velocity": 40,
                "duration": 0.206818181818182,
                "tempo": 120.0
            },
            {
                "start_time": 29.352272727272727,
                "end_time": 29.55681818181818,
                "pitch": 45,
                "velocity": 40,
                "duration": 0.20454545454545325,
                "tempo": 120.0
            },
            {
                "start_time": 29.55681818181818,
                "end_time": 29.745454545454542,
                "pitch": 51,
                "velocity": 40,
                "duration": 0.1886363636363626,
                "tempo": 120.0
            },
            {
                "start_time": 29.745454545454542,
                "end_time": 29.952272727272724,
                "pitch": 45,
                "velocity": 40,
                "duration": 0.206818181818182,
                "tempo": 120.0
            },
            {
                "start_time": 29.952272727272724,
                "end_time": 30.127272727272725,
                "pitch": 51,
                "velocity": 40,
                "duration": 0.1750000000000007,
                "tempo": 120.0
            },
            {
                "start_time": 30.127272727272725,
                "end_time": 30.345454545454544,
                "pitch": 45,
                "velocity": 40,
                "duration": 0.2181818181818187,
                "tempo": 120.0
            },
            {
                "start_time": 30.345454545454544,
                "end_time": 30.545454545454543,
                "pitch": 51,
                "velocity": 40,
                "duration": 0.1999999999999993,
                "tempo": 120.0
            },
            {
                "start_time": 30.545454545454543,
                "end_time": 30.754545454545454,
                "pitch": 45,
                "velocity": 40,
                "duration": 0.20909090909091077,
                "tempo": 120.0
            },
            {
                "start_time": 30.754545454545454,
                "end_time": 30.96590909090909,
                "pitch": 51,
                "velocity": 40,
                "duration": 0.21136363636363598,
                "tempo": 120.0
            },
            {
                "start_time": 30.96590909090909,
                "end_time": 31.168181818181818,
                "pitch": 45,
                "velocity": 40,
                "duration": 0.20227272727272805,
                "tempo": 120.0
            },
            {
                "start_time": 31.168181818181818,
                "end_time": 31.349999999999998,
                "pitch": 51,
                "velocity": 40,
                "duration": 0.18181818181817988,
                "tempo": 120.0
            },
            {
                "start_time": 31.349999999999998,
                "end_time": 31.55681818181818,
                "pitch": 45,
                "velocity": 40,
                "duration": 0.206818181818182,
                "tempo": 120.0
            },
            {
                "start_time": 31.55681818181818,
                "end_time": 31.73181818181818,
                "pitch": 51,
                "velocity": 40,
                "duration": 0.1750000000000007,
                "tempo": 120.0
            },
            {
                "start_time": 31.73181818181818,
                "end_time": 31.95,
                "pitch": 45,
                "velocity": 40,
                "duration": 0.2181818181818187,
                "tempo": 120.0
            },
            {
                "start_time": 31.95,
                "end_time": 32.152272727272724,
                "pitch": 51,
                "velocity": 40,
                "duration": 0.2022727272727245,
                "tempo": 120.0
            },
            {
                "start_time": 32.152272727272724,
                "end_time": 32.36363636363636,
                "pitch": 45,
                "velocity": 40,
                "duration": 0.21136363636363598,
                "tempo": 120.0
            },
            {
                "start_time": 32.36363636363636,
                "end_time": 32.574999999999996,
                "pitch": 51,
                "velocity": 40,
                "duration": 0.21136363636363598,
                "tempo": 120.0
            },
            {
                "start_time": 32.574999999999996,
                "end_time": 32.775,
                "pitch": 45,
                "velocity": 40,
                "duration": 0.20000000000000284,
                "tempo": 120.0
            },
            {
                "start_time": 32.775,
                "end_time": 32.95681818181818,
                "pitch": 51,
                "velocity": 40,
                "duration": 0.18181818181817988,
                "tempo": 120.0
            },
            {
                "start_time": 32.95681818181818,
                "end_time": 33.16590909090909,
                "pitch": 45,
                "velocity": 40,
                "duration": 0.20909090909091077,
                "tempo": 120.0
            },
            {
                "start_time": 33.16590909090909,
                "end_time": 33.340909090909086,
                "pitch": 51,
                "velocity": 40,
                "duration": 0.17499999999999716,
                "tempo": 120.0
            },
            {
                "start_time": 33.340909090909086,
                "end_time": 33.55681818181818,
                "pitch": 45,
                "velocity": 40,
                "duration": 0.2159090909090935,
                "tempo": 120.0
            },
            {
                "start_time": 33.55681818181818,
                "end_time": 33.75681818181818,
                "pitch": 51,
                "velocity": 40,
                "duration": 0.20000000000000284,
                "tempo": 120.0
            },
            {
                "start_time": 33.75681818181818,
                "end_time": 33.96818181818182,
                "pitch": 45,
                "velocity": 40,
                "duration": 0.21136363636363598,
                "tempo": 120.0
            },
            {
                "start_time": 33.96818181818182,
                "end_time": 34.179545454545455,
                "pitch": 51,
                "velocity": 40,
                "duration": 0.21136363636363598,
                "tempo": 120.0
            },
            {
                "start_time": 34.179545454545455,
                "end_time": 34.37954545454545,
                "pitch": 45,
                "velocity": 40,
                "duration": 0.19999999999999574,
                "tempo": 120.0
            },
            {
                "start_time": 34.37954545454545,
                "end_time": 34.57954545454545,
                "pitch": 51,
                "velocity": 40,
                "duration": 0.20000000000000284,
                "tempo": 120.0
            },
            {
                "start_time": 34.57954545454545,
                "end_time": 34.779545454545456,
                "pitch": 45,
                "velocity": 40,
                "duration": 0.20000000000000284,
                "tempo": 120.0
            },
            {
                "start_time": 34.779545454545456,
                "end_time": 34.97954545454545,
                "pitch": 51,
                "velocity": 40,
                "duration": 0.19999999999999574,
                "tempo": 120.0
            },
            {
                "start_time": 34.97954545454545,
                "end_time": 35.179545454545455,
                "pitch": 45,
                "velocity": 40,
                "duration": 0.20000000000000284,
                "tempo": 120.0
            },
            {
                "start_time": 35.179545454545455,
                "end_time": 35.38181818181818,
                "pitch": 51,
                "velocity": 40,
                "duration": 0.20227272727272805,
                "tempo": 120.0
            },
            {
                "start_time": 35.38181818181818,
                "end_time": 35.58181818181818,
                "pitch": 45,
                "velocity": 40,
                "duration": 0.19999999999999574,
                "tempo": 120.0
            },
            {
                "start_time": 35.58181818181818,
                "end_time": 35.78181818181818,
                "pitch": 51,
                "velocity": 40,
                "duration": 0.20000000000000284,
                "tempo": 120.0
            },
            {
                "start_time": 35.78181818181818,
                "end_time": 35.98181818181818,
                "pitch": 45,
                "velocity": 40,
                "duration": 0.19999999999999574,
                "tempo": 120.0
            },
            {
                "start_time": 35.98181818181818,
                "end_time": 36.16590909090909,
                "pitch": 51,
                "velocity": 40,
                "duration": 0.1840909090909122,
                "tempo": 120.0
            },
            {
                "start_time": 36.16590909090909,
                "end_time": 36.37272727272727,
                "pitch": 45,
                "velocity": 40,
                "duration": 0.20681818181817846,
                "tempo": 120.0
            },
            {
                "start_time": 36.37272727272727,
                "end_time": 36.54772727272727,
                "pitch": 51,
                "velocity": 40,
                "duration": 0.17500000000000426,
                "tempo": 120.0
            },
            {
                "start_time": 36.54772727272727,
                "end_time": 36.76363636363636,
                "pitch": 45,
                "velocity": 40,
                "duration": 0.2159090909090864,
                "tempo": 120.0
            },
            {
                "start_time": 36.76363636363636,
                "end_time": 36.96363636363636,
                "pitch": 51,
                "velocity": 40,
                "duration": 0.20000000000000284,
                "tempo": 120.0
            },
            {
                "start_time": 36.96363636363636,
                "end_time": 37.175,
                "pitch": 45,
                "velocity": 40,
                "duration": 0.21136363636363598,
                "tempo": 120.0
            },
            {
                "start_time": 37.175,
                "end_time": 37.38636363636363,
                "pitch": 51,
                "velocity": 40,
                "duration": 0.21136363636363598,
                "tempo": 120.0
            },
            {
                "start_time": 37.38636363636363,
                "end_time": 37.586363636363636,
                "pitch": 45,
                "velocity": 40,
                "duration": 0.20000000000000284,
                "tempo": 120.0
            },
            {
                "start_time": 37.586363636363636,
                "end_time": 37.77045454545454,
                "pitch": 51,
                "velocity": 40,
                "duration": 0.18409090909090509,
                "tempo": 120.0
            },
            {
                "start_time": 37.77045454545454,
                "end_time": 37.97727272727273,
                "pitch": 45,
                "velocity": 40,
                "duration": 0.20681818181818556,
                "tempo": 120.0
            },
            {
                "start_time": 37.97727272727273,
                "end_time": 38.152272727272724,
                "pitch": 51,
                "velocity": 40,
                "duration": 0.17499999999999716,
                "tempo": 120.0
            },
            {
                "start_time": 38.152272727272724,
                "end_time": 38.37045454545454,
                "pitch": 45,
                "velocity": 40,
                "duration": 0.2181818181818187,
                "tempo": 120.0
            },
            {
                "start_time": 38.37045454545454,
                "end_time": 38.57272727272727,
                "pitch": 51,
                "velocity": 40,
                "duration": 0.20227272727272805,
                "tempo": 120.0
            },
            {
                "start_time": 38.57272727272727,
                "end_time": 38.78181818181818,
                "pitch": 45,
                "velocity": 40,
                "duration": 0.20909090909091077,
                "tempo": 120.0
            },
            {
                "start_time": 38.78181818181818,
                "end_time": 38.99318181818182,
                "pitch": 51,
                "velocity": 40,
                "duration": 0.21136363636363598,
                "tempo": 120.0
            },
            {
                "start_time": 38.99318181818182,
                "end_time": 39.195454545454545,
                "pitch": 45,
                "velocity": 40,
                "duration": 0.20227272727272805,
                "tempo": 120.0
            },
            {
                "start_time": 39.195454545454545,
                "end_time": 39.37954545454545,
                "pitch": 51,
                "velocity": 40,
                "duration": 0.18409090909090509,
                "tempo": 120.0
            },
            {
                "start_time": 39.37954545454545,
                "end_time": 39.586363636363636,
                "pitch": 45,
                "velocity": 40,
                "duration": 0.20681818181818556,
                "tempo": 120.0
            },
            {
                "start_time": 39.586363636363636,
                "end_time": 39.76136363636363,
                "pitch": 51,
                "velocity": 40,
                "duration": 0.17499999999999716,
                "tempo": 120.0
            },
            {
                "start_time": 39.76136363636363,
                "end_time": 39.97954545454545,
                "pitch": 45,
                "velocity": 40,
                "duration": 0.2181818181818187,
                "tempo": 120.0
            },
            {
                "start_time": 39.97954545454545,
                "end_time": 40.179545454545455,
                "pitch": 51,
                "velocity": 40,
                "duration": 0.20000000000000284,
                "tempo": 120.0
            },
            {
                "start_time": 40.179545454545455,
                "end_time": 40.37272727272727,
                "pitch": 45,
                "velocity": 40,
                "duration": 0.19318181818181301,
                "tempo": 120.0
            },
            {
                "start_time": 40.37272727272727,
                "end_time": 40.584090909090904,
                "pitch": 51,
                "velocity": 40,
                "duration": 0.21136363636363598,
                "tempo": 120.0
            },
            {
                "start_time": 40.584090909090904,
                "end_time": 40.775,
                "pitch": 45,
                "velocity": 40,
                "duration": 0.19090909090909491,
                "tempo": 120.0
            },
            {
                "start_time": 40.775,
                "end_time": 40.98181818181818,
                "pitch": 51,
                "velocity": 40,
                "duration": 0.20681818181817846,
                "tempo": 120.0
            },
            {
                "start_time": 40.98181818181818,
                "end_time": 41.175,
                "pitch": 45,
                "velocity": 40,
                "duration": 0.19318181818182012,
                "tempo": 120.0
            },
            {
                "start_time": 41.175,
                "end_time": 41.38636363636363,
                "pitch": 51,
                "velocity": 40,
                "duration": 0.21136363636363598,
                "tempo": 120.0
            },
            {
                "start_time": 41.38636363636363,
                "end_time": 41.57727272727273,
                "pitch": 45,
                "velocity": 40,
                "duration": 0.19090909090909491,
                "tempo": 120.0
            },
            {
                "start_time": 41.57727272727273,
                "end_time": 41.78409090909091,
                "pitch": 51,
                "velocity": 40,
                "duration": 0.20681818181817846,
                "tempo": 120.0
            }
        ],
        "Trumpet": [
            {
                "start_time": 0.03409090909090909,
                "end_time": 0.08409090909090909,
                "pitch": 79,
                "velocity": 40,
                "duration": 0.05,
                "tempo": 120.0
            },
            {
                "start_time": 0.08409090909090909,
                "end_time": 0.6386363636363636,
                "pitch": 81,
                "velocity": 40,
                "duration": 0.5545454545454545,
                "tempo": 120.0
            },
            {
                "start_time": 0.6386363636363636,
                "end_time": 1.625,
                "pitch": 87,
                "velocity": 40,
                "duration": 0.9863636363636364,
                "tempo": 120.0
            },
            {
                "start_time": 1.625,
                "end_time": 2.25,
                "pitch": 81,
                "velocity": 40,
                "duration": 0.625,
                "tempo": 120.0
            },
            {
                "start_time": 2.25,
                "end_time": 3.234090909090909,
                "pitch": 87,
                "velocity": 40,
                "duration": 0.9840909090909089,
                "tempo": 120.0
            },
            {
                "start_time": 3.234090909090909,
                "end_time": 3.8568181818181815,
                "pitch": 81,
                "velocity": 40,
                "duration": 0.6227272727272726,
                "tempo": 120.0
            },
            {
                "start_time": 3.8568181818181815,
                "end_time": 4.840909090909091,
                "pitch": 87,
                "velocity": 40,
                "duration": 0.9840909090909093,
                "tempo": 120.0
            },
            {
                "start_time": 4.840909090909091,
                "end_time": 5.463636363636363,
                "pitch": 81,
                "velocity": 40,
                "duration": 0.6227272727272721,
                "tempo": 120.0
            },
            {
                "start_time": 5.463636363636363,
                "end_time": 6.468181818181818,
                "pitch": 87,
                "velocity": 40,
                "duration": 1.0045454545454549,
                "tempo": 120.0
            },
            {
                "start_time": 6.468181818181818,
                "end_time": 7.070454545454545,
                "pitch": 81,
                "velocity": 40,
                "duration": 0.6022727272727275,
                "tempo": 120.0
            },
            {
                "start_time": 7.070454545454545,
                "end_time": 8.056818181818182,
                "pitch": 87,
                "velocity": 40,
                "duration": 0.9863636363636363,
                "tempo": 120.0
            },
            {
                "start_time": 8.056818181818182,
                "end_time": 8.679545454545455,
                "pitch": 81,
                "velocity": 40,
                "duration": 0.622727272727273,
                "tempo": 120.0
            },
            {
                "start_time": 8.679545454545455,
                "end_time": 9.665909090909091,
                "pitch": 87,
                "velocity": 40,
                "duration": 0.9863636363636363,
                "tempo": 120.0
            },
            {
                "start_time": 9.665909090909091,
                "end_time": 10.288636363636364,
                "pitch": 81,
                "velocity": 40,
                "duration": 0.622727272727273,
                "tempo": 120.0
            },
            {
                "start_time": 10.288636363636364,
                "end_time": 11.272727272727272,
                "pitch": 87,
                "velocity": 40,
                "duration": 0.9840909090909076,
                "tempo": 120.0
            },
            {
                "start_time": 11.272727272727272,
                "end_time": 11.886363636363635,
                "pitch": 81,
                "velocity": 40,
                "duration": 0.6136363636363633,
                "tempo": 120.0
            },
            {
                "start_time": 11.886363636363635,
                "end_time": 12.879545454545454,
                "pitch": 87,
                "velocity": 40,
                "duration": 0.993181818181819,
                "tempo": 120.0
            },
            {
                "start_time": 12.879545454545454,
                "end_time": 13.072727272727272,
                "pitch": 80,
                "velocity": 64,
                "duration": 0.19318181818181834,
                "tempo": 120.0
            },
            {
                "start_time": 13.072727272727272,
                "end_time": 13.284090909090908,
                "pitch": 88,
                "velocity": 64,
                "duration": 0.21136363636363598,
                "tempo": 120.0
            },
            {
                "start_time": 13.284090909090908,
                "end_time": 13.48181818181818,
                "pitch": 81,
                "velocity": 64,
                "duration": 0.1977272727272723,
                "tempo": 120.0
            },
            {
                "start_time": 13.48181818181818,
                "end_time": 13.677272727272726,
                "pitch": 89,
                "velocity": 64,
                "duration": 0.19545454545454533,
                "tempo": 120.0
            },
            {
                "start_time": 13.677272727272726,
                "end_time": 13.872727272727271,
                "pitch": 82,
                "velocity": 64,
                "duration": 0.19545454545454533,
                "tempo": 120.0
            },
            {
                "start_time": 13.872727272727271,
                "end_time": 14.068181818181818,
                "pitch": 90,
                "velocity": 64,
                "duration": 0.1954545454545471,
                "tempo": 120.0
            },
            {
                "start_time": 14.068181818181818,
                "end_time": 14.270454545454545,
                "pitch": 83,
                "velocity": 64,
                "duration": 0.20227272727272627,
                "tempo": 120.0
            },
            {
                "start_time": 14.270454545454545,
                "end_time": 14.336363636363636,
                "pitch": 91,
                "velocity": 64,
                "duration": 0.06590909090909136,
                "tempo": 120.0
            },
            {
                "start_time": 14.336363636363636,
                "end_time": 14.488636363636363,
                "pitch": 91,
                "velocity": 64,
                "duration": 0.15227272727272734,
                "tempo": 120.0
            },
            {
                "start_time": 14.488636363636363,
                "end_time": 15.104545454545454,
                "pitch": 84,
                "velocity": 8,
                "duration": 0.6159090909090903,
                "tempo": 120.0
            },
            {
                "start_time": 15.104545454545454,
                "end_time": 16.09318181818182,
                "pitch": 90,
                "velocity": 8,
                "duration": 0.9886363636363651,
                "tempo": 120.0
            },
            {
                "start_time": 16.09318181818182,
                "end_time": 16.71590909090909,
                "pitch": 84,
                "velocity": 8,
                "duration": 0.6227272727272712,
                "tempo": 120.0
            },
            {
                "start_time": 16.71590909090909,
                "end_time": 17.7,
                "pitch": 90,
                "velocity": 8,
                "duration": 0.9840909090909093,
                "tempo": 120.0
            },
            {
                "start_time": 17.7,
                "end_time": 18.32272727272727,
                "pitch": 84,
                "velocity": 8,
                "duration": 0.6227272727272712,
                "tempo": 120.0
            },
            {
                "start_time": 18.32272727272727,
                "end_time": 19.304545454545455,
                "pitch": 90,
                "velocity": 8,
                "duration": 0.9818181818181841,
                "tempo": 120.0
            },
            {
                "start_time": 19.304545454545455,
                "end_time": 19.927272727272726,
                "pitch": 84,
                "velocity": 8,
                "duration": 0.6227272727272712,
                "tempo": 120.0
            },
            {
                "start_time": 19.927272727272726,
                "end_time": 20.93181818181818,
                "pitch": 90,
                "velocity": 8,
                "duration": 1.004545454545454,
                "tempo": 120.0
            },
            {
                "start_time": 20.93181818181818,
                "end_time": 21.53181818181818,
                "pitch": 84,
                "velocity": 8,
                "duration": 0.6000000000000014,
                "tempo": 120.0
            },
            {
                "start_time": 21.53181818181818,
                "end_time": 22.513636363636362,
                "pitch": 90,
                "velocity": 8,
                "duration": 0.9818181818181806,
                "tempo": 120.0
            },
            {
                "start_time": 22.513636363636362,
                "end_time": 23.136363636363637,
                "pitch": 84,
                "velocity": 8,
                "duration": 0.6227272727272748,
                "tempo": 120.0
            },
            {
                "start_time": 23.136363636363637,
                "end_time": 24.12272727272727,
                "pitch": 90,
                "velocity": 8,
                "duration": 0.9863636363636346,
                "tempo": 120.0
            },
            {
                "start_time": 24.12272727272727,
                "end_time": 24.745454545454542,
                "pitch": 84,
                "velocity": 8,
                "duration": 0.6227272727272712,
                "tempo": 120.0
            },
            {
                "start_time": 24.745454545454542,
                "end_time": 25.729545454545452,
                "pitch": 90,
                "velocity": 8,
                "duration": 0.9840909090909093,
                "tempo": 120.0
            },
            {
                "start_time": 25.729545454545452,
                "end_time": 26.34090909090909,
                "pitch": 84,
                "velocity": 8,
                "duration": 0.6113636363636381,
                "tempo": 120.0
            },
            {
                "start_time": 26.34090909090909,
                "end_time": 27.334090909090907,
                "pitch": 90,
                "velocity": 8,
                "duration": 0.9931818181818173,
                "tempo": 120.0
            },
            {
                "start_time": 27.334090909090907,
                "end_time": 27.527272727272727,
                "pitch": 88,
                "velocity": 64,
                "duration": 0.19318181818182012,
                "tempo": 120.0
            },
            {
                "start_time": 27.527272727272727,
                "end_time": 27.738636363636363,
                "pitch": 96,
                "velocity": 64,
                "duration": 0.21136363636363598,
                "tempo": 120.0
            },
            {
                "start_time": 27.738636363636363,
                "end_time": 27.929545454545455,
                "pitch": 87,
                "velocity": 64,
                "duration": 0.19090909090909136,
                "tempo": 120.0
            },
            {
                "start_time": 27.929545454545455,
                "end_time": 28.120454545454542,
                "pitch": 95,
                "velocity": 64,
                "duration": 0.1909090909090878,
                "tempo": 120.0
            },
            {
                "start_time": 28.120454545454542,
                "end_time": 28.320454545454545,
                "pitch": 86,
                "velocity": 64,
                "duration": 0.20000000000000284,
                "tempo": 120.0
            },
            {
                "start_time": 28.320454545454545,
                "end_time": 28.520454545454545,
                "pitch": 94,
                "velocity": 64,
                "duration": 0.1999999999999993,
                "tempo": 120.0
            },
            {
                "start_time": 28.520454545454545,
                "end_time": 28.722727272727273,
                "pitch": 85,
                "velocity": 64,
                "duration": 0.20227272727272805,
                "tempo": 120.0
            },
            {
                "start_time": 28.722727272727273,
                "end_time": 28.940909090909088,
                "pitch": 93,
                "velocity": 64,
                "duration": 0.21818181818181515,
                "tempo": 120.0
            },
            {
                "start_time": 28.940909090909088,
                "end_time": 29.55681818181818,
                "pitch": 81,
                "velocity": 40,
                "duration": 0.6159090909090921,
                "tempo": 120.0
            },
            {
                "start_time": 29.55681818181818,
                "end_time": 30.545454545454543,
                "pitch": 87,
                "velocity": 40,
                "duration": 0.9886363636363633,
                "tempo": 120.0
            },
            {
                "start_time": 30.545454545454543,
                "end_time": 31.168181818181818,
                "pitch": 81,
                "velocity": 40,
                "duration": 0.6227272727272748,
                "tempo": 120.0
            },
            {
                "start_time": 31.168181818181818,
                "end_time": 32.152272727272724,
                "pitch": 87,
                "velocity": 40,
                "duration": 0.9840909090909058,
                "tempo": 120.0
            },
            {
                "start_time": 32.152272727272724,
                "end_time": 32.775,
                "pitch": 81,
                "velocity": 40,
                "duration": 0.6227272727272748,
                "tempo": 120.0
            },
            {
                "start_time": 32.775,
                "end_time": 33.75681818181818,
                "pitch": 87,
                "velocity": 40,
                "duration": 0.9818181818181841,
                "tempo": 120.0
            },
            {
                "start_time": 33.75681818181818,
                "end_time": 34.37954545454545,
                "pitch": 81,
                "velocity": 40,
                "duration": 0.6227272727272677,
                "tempo": 120.0
            },
            {
                "start_time": 34.37954545454545,
                "end_time": 35.38181818181818,
                "pitch": 87,
                "velocity": 40,
                "duration": 1.0022727272727323,
                "tempo": 120.0
            },
            {
                "start_time": 35.38181818181818,
                "end_time": 35.98181818181818,
                "pitch": 81,
                "velocity": 40,
                "duration": 0.5999999999999943,
                "tempo": 120.0
            },
            {
                "start_time": 35.98181818181818,
                "end_time": 36.96363636363636,
                "pitch": 87,
                "velocity": 40,
                "duration": 0.9818181818181841,
                "tempo": 120.0
            },
            {
                "start_time": 36.96363636363636,
                "end_time": 37.586363636363636,
                "pitch": 81,
                "velocity": 40,
                "duration": 0.6227272727272748,
                "tempo": 120.0
            },
            {
                "start_time": 37.586363636363636,
                "end_time": 38.57272727272727,
                "pitch": 87,
                "velocity": 40,
                "duration": 0.9863636363636346,
                "tempo": 120.0
            },
            {
                "start_time": 38.57272727272727,
                "end_time": 39.195454545454545,
                "pitch": 81,
                "velocity": 40,
                "duration": 0.6227272727272748,
                "tempo": 120.0
            },
            {
                "start_time": 39.195454545454545,
                "end_time": 40.179545454545455,
                "pitch": 87,
                "velocity": 40,
                "duration": 0.9840909090909093,
                "tempo": 120.0
            },
            {
                "start_time": 40.179545454545455,
                "end_time": 40.79090909090909,
                "pitch": 81,
                "velocity": 40,
                "duration": 0.6113636363636346,
                "tempo": 120.0
            },
            {
                "start_time": 40.79090909090909,
                "end_time": 41.78409090909091,
                "pitch": 87,
                "velocity": 40,
                "duration": 0.9931818181818173,
                "tempo": 120.0
            }
        ]
    }
}