{
    "track_id": "Kenseiden (FM) - 04 - Chizuken and Kaga",
    "mood": "angry",
    "instruments": {
        "Flute": [
            {
                "start_time": 0.0,
                "end_time": 0.19999999999999998,
                "pitch": 76,
                "velocity": 101,
                "duration": 0.19999999999999998,
                "tempo": 120.0
            },
            {
                "start_time": 0.19999999999999998,
                "end_time": 0.39999999999999997,
                "pitch": 81,
                "velocity": 101,
                "duration": 0.19999999999999998,
                "tempo": 120.0
            },
            {
                "start_time": 0.39999999999999997,
                "end_time": 0.4977272727272727,
                "pitch": 86,
                "velocity": 101,
                "duration": 0.09772727272727272,
                "tempo": 120.0
            },
            {
                "start_time": 0.4977272727272727,
                "end_time": 3.2204545454545452,
                "pitch": 88,
                "velocity": 101,
                "duration": 2.7227272727272727,
                "tempo": 120.0
            },
            {
                "start_time": 3.2204545454545452,
                "end_time": 3.318181818181818,
                "pitch": 86,
                "velocity": 101,
                "duration": 0.09772727272727266,
                "tempo": 120.0
            },
            {
                "start_time": 3.318181818181818,
                "end_time": 3.4159090909090906,
                "pitch": 88,
                "velocity": 101,
                "duration": 0.09772727272727266,
                "tempo": 120.0
            },
            {
                "start_time": 3.4159090909090906,
                "end_time": 3.6113636363636363,
                "pitch": 76,
                "velocity": 101,
                "duration": 0.19545454545454577,
                "tempo": 120.0
            },
            {
                "start_time": 3.6113636363636363,
                "end_time": 4.822727272727272,
                "pitch": 81,
                "velocity": 101,
                "duration": 1.211363636363636,
                "tempo": 120.0
            },
            {
                "start_time": 4.822727272727272,
                "end_time": 4.956818181818182,
                "pitch": 83,
                "velocity": 101,
                "duration": 0.1340909090909097,
                "tempo": 120.0
            },
            {
                "start_time": 4.956818181818182,
                "end_time": 5.090909090909091,
                "pitch": 85,
                "velocity": 101,
                "duration": 0.13409090909090882,
                "tempo": 120.0
            },
            {
                "start_time": 5.090909090909091,
                "end_time": 6.434090909090909,
                "pitch": 83,
                "velocity": 101,
                "duration": 1.3431818181818178,
                "tempo": 120.0
            },
            {
                "start_time": 6.434090909090909,
                "end_time": 6.629545454545454,
                "pitch": 76,
                "velocity": 101,
                "duration": 0.19545454545454533,
                "tempo": 120.0
            },
            {
                "start_time": 6.629545454545454,
                "end_time": 6.827272727272727,
                "pitch": 81,
                "velocity": 101,
                "duration": 0.1977272727272732,
                "tempo": 120.0
            },
            {
                "start_time": 6.827272727272727,
                "end_time": 6.925,
                "pitch": 86,
                "velocity": 101,
                "duration": 0.09772727272727266,
                "tempo": 120.0
            },
            {
                "start_time": 6.925,
                "end_time": 9.647727272727272,
                "pitch": 88,
                "velocity": 101,
                "duration": 2.7227272727272718,
                "tempo": 120.0
            },
            {
                "start_time": 9.647727272727272,
                "end_time": 9.747727272727273,
                "pitch": 86,
                "velocity": 101,
                "duration": 0.10000000000000142,
                "tempo": 120.0
            },
            {
                "start_time": 9.747727272727273,
                "end_time": 9.845454545454546,
                "pitch": 88,
                "velocity": 101,
                "duration": 0.09772727272727266,
                "tempo": 120.0
            },
            {
                "start_time": 9.845454545454546,
                "end_time": 10.040909090909091,
                "pitch": 76,
                "velocity": 101,
                "duration": 0.19545454545454533,
                "tempo": 120.0
            },
            {
                "start_time": 10.040909090909091,
                "end_time": 11.252272727272727,
                "pitch": 81,
                "velocity": 101,
                "duration": 1.211363636363636,
                "tempo": 120.0
            },
            {
                "start_time": 11.252272727272727,
                "end_time": 11.386363636363637,
                "pitch": 83,
                "velocity": 101,
                "duration": 0.1340909090909097,
                "tempo": 120.0
            },
            {
                "start_time": 11.386363636363637,
                "end_time": 11.520454545454545,
                "pitch": 85,
                "velocity": 101,
                "duration": 0.13409090909090793,
                "tempo": 120.0
            },
            {
                "start_time": 11.520454545454545,
                "end_time": 12.518181818181818,
                "pitch": 83,
                "velocity": 101,
                "duration": 0.997727272727273,
                "tempo": 120.0
            }
        ],
        "Electric Guitar (clean)": [
            {
                "start_time": 0.0,
                "end_time": 0.08409090909090909,
                "pitch": 28,
                "velocity": 80,
                "duration": 0.08409090909090909,
                "tempo": 120.0
            },
            {
                "start_time": 0.5636363636363636,
                "end_time": 0.7749999999999999,
                "pitch": 28,
                "velocity": 80,
                "duration": 0.2113636363636363,
                "tempo": 120.0
            },
            {
                "start_time": 0.7909090909090909,
                "end_time": 0.8772727272727272,
                "pitch": 28,
                "velocity": 80,
                "duration": 0.08636363636363631,
                "tempo": 120.0
            },
            {
                "start_time": 0.8954545454545454,
                "end_time": 0.9795454545454545,
                "pitch": 31,
                "velocity": 80,
                "duration": 0.0840909090909091,
                "tempo": 120.0
            },
            {
                "start_time": 0.9977272727272727,
                "end_time": 1.084090909090909,
                "pitch": 33,
                "velocity": 80,
                "duration": 0.08636363636363631,
                "tempo": 120.0
            },
            {
                "start_time": 1.0999999999999999,
                "end_time": 1.1863636363636363,
                "pitch": 35,
                "velocity": 80,
                "duration": 0.08636363636363642,
                "tempo": 120.0
            },
            {
                "start_time": 1.2022727272727272,
                "end_time": 1.4795454545454545,
                "pitch": 40,
                "velocity": 80,
                "duration": 0.27727272727272734,
                "tempo": 120.0
            },
            {
                "start_time": 1.4954545454545454,
                "end_time": 1.784090909090909,
                "pitch": 38,
                "velocity": 80,
                "duration": 0.2886363636363636,
                "tempo": 120.0
            },
            {
                "start_time": 1.7999999999999998,
                "end_time": 1.9886363636363635,
                "pitch": 37,
                "velocity": 80,
                "duration": 0.1886363636363637,
                "tempo": 120.0
            },
            {
                "start_time": 2.0045454545454544,
                "end_time": 2.193181818181818,
                "pitch": 37,
                "velocity": 80,
                "duration": 0.1886363636363635,
                "tempo": 120.0
            },
            {
                "start_time": 2.2113636363636364,
                "end_time": 2.590909090909091,
                "pitch": 37,
                "velocity": 80,
                "duration": 0.3795454545454544,
                "tempo": 120.0
            },
            {
                "start_time": 2.6068181818181815,
                "end_time": 2.7818181818181817,
                "pitch": 35,
                "velocity": 80,
                "duration": 0.17500000000000027,
                "tempo": 120.0
            },
            {
                "start_time": 2.7977272727272724,
                "end_time": 3.202272727272727,
                "pitch": 33,
                "velocity": 80,
                "duration": 0.40454545454545476,
                "tempo": 120.0
            },
            {
                "start_time": 3.2204545454545452,
                "end_time": 3.3022727272727272,
                "pitch": 28,
                "velocity": 80,
                "duration": 0.08181818181818201,
                "tempo": 120.0
            },
            {
                "start_time": 3.775,
                "end_time": 3.9863636363636363,
                "pitch": 28,
                "velocity": 80,
                "duration": 0.21136363636363642,
                "tempo": 120.0
            },
            {
                "start_time": 4.004545454545454,
                "end_time": 4.088636363636364,
                "pitch": 28,
                "velocity": 80,
                "duration": 0.08409090909090988,
                "tempo": 120.0
            },
            {
                "start_time": 4.1068181818181815,
                "end_time": 4.193181818181818,
                "pitch": 31,
                "velocity": 80,
                "duration": 0.08636363636363686,
                "tempo": 120.0
            },
            {
                "start_time": 4.209090909090909,
                "end_time": 4.295454545454545,
                "pitch": 33,
                "velocity": 80,
                "duration": 0.08636363636363598,
                "tempo": 120.0
            },
            {
                "start_time": 4.3113636363636365,
                "end_time": 4.3977272727272725,
                "pitch": 35,
                "velocity": 80,
                "duration": 0.08636363636363598,
                "tempo": 120.0
            },
            {
                "start_time": 4.413636363636363,
                "end_time": 4.693181818181818,
                "pitch": 40,
                "velocity": 80,
                "duration": 0.2795454545454552,
                "tempo": 120.0
            },
            {
                "start_time": 4.709090909090909,
                "end_time": 4.99090909090909,
                "pitch": 38,
                "velocity": 80,
                "duration": 0.2818181818181813,
                "tempo": 120.0
            },
            {
                "start_time": 5.009090909090909,
                "end_time": 5.193181818181818,
                "pitch": 37,
                "velocity": 80,
                "duration": 0.18409090909090953,
                "tempo": 120.0
            },
            {
                "start_time": 5.209090909090909,
                "end_time": 5.402272727272727,
                "pitch": 37,
                "velocity": 80,
                "duration": 0.19318181818181834,
                "tempo": 120.0
            },
            {
                "start_time": 5.420454545454545,
                "end_time": 5.804545454545455,
                "pitch": 45,
                "velocity": 80,
                "duration": 0.3840909090909097,
                "tempo": 120.0
            },
            {
                "start_time": 5.820454545454545,
                "end_time": 5.997727272727272,
                "pitch": 43,
                "velocity": 80,
                "duration": 0.1772727272727268,
                "tempo": 120.0
            },
            {
                "start_time": 6.013636363636364,
                "end_time": 6.415909090909091,
                "pitch": 42,
                "velocity": 80,
                "duration": 0.40227272727272734,
                "tempo": 120.0
            },
            {
                "start_time": 6.434090909090909,
                "end_time": 6.515909090909091,
                "pitch": 28,
                "velocity": 80,
                "duration": 0.08181818181818201,
                "tempo": 120.0
            },
            {
                "start_time": 6.988636363636363,
                "end_time": 7.202272727272727,
                "pitch": 28,
                "velocity": 80,
                "duration": 0.21363636363636385,
                "tempo": 120.0
            },
            {
                "start_time": 7.218181818181818,
                "end_time": 7.304545454545454,
                "pitch": 28,
                "velocity": 80,
                "duration": 0.08636363636363598,
                "tempo": 120.0
            },
            {
                "start_time": 7.320454545454545,
                "end_time": 7.406818181818181,
                "pitch": 31,
                "velocity": 80,
                "duration": 0.08636363636363598,
                "tempo": 120.0
            },
            {
                "start_time": 7.425,
                "end_time": 7.509090909090909,
                "pitch": 33,
                "velocity": 80,
                "duration": 0.084090909090909,
                "tempo": 120.0
            },
            {
                "start_time": 7.527272727272727,
                "end_time": 7.611363636363636,
                "pitch": 35,
                "velocity": 80,
                "duration": 0.084090909090909,
                "tempo": 120.0
            },
            {
                "start_time": 7.629545454545454,
                "end_time": 7.906818181818181,
                "pitch": 40,
                "velocity": 80,
                "duration": 0.27727272727272734,
                "tempo": 120.0
            },
            {
                "start_time": 7.922727272727272,
                "end_time": 8.206818181818182,
                "pitch": 38,
                "velocity": 80,
                "duration": 0.28409090909091006,
                "tempo": 120.0
            },
            {
                "start_time": 8.222727272727273,
                "end_time": 8.406818181818181,
                "pitch": 37,
                "velocity": 80,
                "duration": 0.18409090909090864,
                "tempo": 120.0
            },
            {
                "start_time": 8.424999999999999,
                "end_time": 8.618181818181817,
                "pitch": 37,
                "velocity": 80,
                "duration": 0.19318181818181834,
                "tempo": 120.0
            },
            {
                "start_time": 8.634090909090908,
                "end_time": 9.025,
                "pitch": 37,
                "velocity": 80,
                "duration": 0.3909090909090924,
                "tempo": 120.0
            },
            {
                "start_time": 9.043181818181818,
                "end_time": 9.222727272727273,
                "pitch": 35,
                "velocity": 80,
                "duration": 0.17954545454545467,
                "tempo": 120.0
            },
            {
                "start_time": 9.238636363636363,
                "end_time": 9.631818181818181,
                "pitch": 33,
                "velocity": 80,
                "duration": 0.39318181818181763,
                "tempo": 120.0
            },
            {
                "start_time": 9.647727272727272,
                "end_time": 9.729545454545454,
                "pitch": 28,
                "velocity": 80,
                "duration": 0.08181818181818201,
                "tempo": 120.0
            },
            {
                "start_time": 10.209090909090909,
                "end_time": 10.427272727272726,
                "pitch": 28,
                "velocity": 80,
                "duration": 0.21818181818181692,
                "tempo": 120.0
            },
            {
                "start_time": 10.443181818181818,
                "end_time": 10.529545454545454,
                "pitch": 28,
                "velocity": 80,
                "duration": 0.08636363636363598,
                "tempo": 120.0
            },
            {
                "start_time": 10.545454545454545,
                "end_time": 10.631818181818181,
                "pitch": 31,
                "velocity": 80,
                "duration": 0.08636363636363598,
                "tempo": 120.0
            },
            {
                "start_time": 10.647727272727272,
                "end_time": 10.73409090909091,
                "pitch": 33,
                "velocity": 80,
                "duration": 0.08636363636363775,
                "tempo": 120.0
            },
            {
                "start_time": 10.752272727272727,
                "end_time": 10.836363636363636,
                "pitch": 35,
                "velocity": 80,
                "duration": 0.084090909090909,
                "tempo": 120.0
            },
            {
                "start_time": 10.854545454545454,
                "end_time": 11.125,
                "pitch": 40,
                "velocity": 80,
                "duration": 0.2704545454545464,
                "tempo": 120.0
            },
            {
                "start_time": 11.14090909090909,
                "end_time": 11.420454545454545,
                "pitch": 38,
                "velocity": 80,
                "duration": 0.2795454545454543,
                "tempo": 120.0
            },
            {
                "start_time": 11.438636363636363,
                "end_time": 11.622727272727273,
                "pitch": 37,
                "velocity": 80,
                "duration": 0.18409090909091042,
                "tempo": 120.0
            },
            {
                "start_time": 11.638636363636364,
                "end_time": 11.831818181818182,
                "pitch": 37,
                "velocity": 80,
                "duration": 0.19318181818181834,
                "tempo": 120.0
            },
            {
                "start_time": 11.85,
                "end_time": 12.24090909090909,
                "pitch": 45,
                "velocity": 80,
                "duration": 0.39090909090909065,
                "tempo": 120.0
            },
            {
                "start_time": 12.256818181818181,
                "end_time": 12.436363636363636,
                "pitch": 43,
                "velocity": 80,
                "duration": 0.17954545454545467,
                "tempo": 120.0
            },
            {
                "start_time": 12.452272727272726,
                "end_time": 12.829545454545453,
                "pitch": 42,
                "velocity": 80,
                "duration": 0.377272727272727,
                "tempo": 120.0
            },
            {
                "start_time": 12.845454545454546,
                "end_time": 13.029545454545454,
                "pitch": 45,
                "velocity": 80,
                "duration": 0.18409090909090864,
                "tempo": 120.0
            },
            {
                "start_time": 13.045454545454545,
                "end_time": 13.229545454545454,
                "pitch": 45,
                "velocity": 80,
                "duration": 0.18409090909090864,
                "tempo": 120.0
            },
            {
                "start_time": 13.245454545454544,
                "end_time": 13.331818181818182,
                "pitch": 45,
                "velocity": 80,
                "duration": 0.08636363636363775,
                "tempo": 120.0
            },
            {
                "start_time": 13.347727272727273,
                "end_time": 13.536363636363635,
                "pitch": 43,
                "velocity": 80,
                "duration": 0.1886363636363626,
                "tempo": 120.0
            },
            {
                "start_time": 13.554545454545455,
                "end_time": 13.74090909090909,
                "pitch": 42,
                "velocity": 80,
                "duration": 0.18636363636363562,
                "tempo": 120.0
            },
            {
                "start_time": 13.756818181818181,
                "end_time": 13.94090909090909,
                "pitch": 43,
                "velocity": 80,
                "duration": 0.18409090909090864,
                "tempo": 120.0
            },
            {
                "start_time": 13.959090909090909,
                "end_time": 14.043181818181818,
                "pitch": 42,
                "velocity": 80,
                "duration": 0.084090909090909,
                "tempo": 120.0
            },
            {
                "start_time": 14.059090909090909,
                "end_time": 14.238636363636363,
                "pitch": 38,
                "velocity": 80,
                "duration": 0.17954545454545467,
                "tempo": 120.0
            },
            {
                "start_time": 14.254545454545454,
                "end_time": 14.434090909090909,
                "pitch": 40,
                "velocity": 80,
                "duration": 0.17954545454545467,
                "tempo": 120.0
            },
            {
                "start_time": 14.452272727272726,
                "end_time": 14.636363636363635,
                "pitch": 45,
                "velocity": 80,
                "duration": 0.18409090909090864,
                "tempo": 120.0
            },
            {
                "start_time": 14.652272727272727,
                "end_time": 14.836363636363636,
                "pitch": 45,
                "velocity": 80,
                "duration": 0.18409090909090864,
                "tempo": 120.0
            },
            {
                "start_time": 14.854545454545454,
                "end_time": 14.938636363636363,
                "pitch": 45,
                "velocity": 80,
                "duration": 0.084090909090909,
                "tempo": 120.0
            },
            {
                "start_time": 14.95681818181818,
                "end_time": 15.145454545454545,
                "pitch": 43,
                "velocity": 80,
                "duration": 0.18863636363636438,
                "tempo": 120.0
            },
            {
                "start_time": 15.161363636363635,
                "end_time": 15.345454545454544,
                "pitch": 42,
                "velocity": 80,
                "duration": 0.18409090909090864,
                "tempo": 120.0
            },
            {
                "start_time": 15.363636363636363,
                "end_time": 15.443181818181817,
                "pitch": 43,
                "velocity": 80,
                "duration": 0.07954545454545325,
                "tempo": 120.0
            },
            {
                "start_time": 15.461363636363636,
                "end_time": 16.043181818181818,
                "pitch": 50,
                "velocity": 80,
                "duration": 0.581818181818182,
                "tempo": 120.0
            },
            {
                "start_time": 16.05909090909091,
                "end_time": 16.243181818181817,
                "pitch": 45,
                "velocity": 80,
                "duration": 0.18409090909090864,
                "tempo": 120.0
            },
            {
                "start_time": 16.261363636363637,
                "end_time": 16.445454545454545,
                "pitch": 45,
                "velocity": 80,
                "duration": 0.18409090909090864,
                "tempo": 120.0
            },
            {
                "start_time": 16.461363636363636,
                "end_time": 16.547727272727272,
                "pitch": 45,
                "velocity": 80,
                "duration": 0.08636363636363598,
                "tempo": 120.0
            },
            {
                "start_time": 16.56590909090909,
                "end_time": 16.752272727272725,
                "pitch": 43,
                "velocity": 80,
                "duration": 0.18636363636363384,
                "tempo": 120.0
            },
            {
                "start_time": 16.770454545454545,
                "end_time": 16.956818181818182,
                "pitch": 42,
                "velocity": 80,
                "duration": 0.1863636363636374,
                "tempo": 120.0
            },
            {
                "start_time": 16.974999999999998,
                "end_time": 17.159090909090907,
                "pitch": 43,
                "velocity": 80,
                "duration": 0.18409090909090864,
                "tempo": 120.0
            },
            {
                "start_time": 17.175,
                "end_time": 17.259090909090908,
                "pitch": 42,
                "velocity": 80,
                "duration": 0.08409090909090722,
                "tempo": 120.0
            },
            {
                "start_time": 17.275,
                "end_time": 17.454545454545453,
                "pitch": 38,
                "velocity": 80,
                "duration": 0.17954545454545467,
                "tempo": 120.0
            },
            {
                "start_time": 17.472727272727273,
                "end_time": 17.652272727272727,
                "pitch": 40,
                "velocity": 80,
                "duration": 0.17954545454545467,
                "tempo": 120.0
            },
            {
                "start_time": 17.668181818181818,
                "end_time": 17.85681818181818,
                "pitch": 45,
                "velocity": 80,
                "duration": 0.1886363636363626,
                "tempo": 120.0
            },
            {
                "start_time": 17.87272727272727,
                "end_time": 18.061363636363634,
                "pitch": 45,
                "velocity": 80,
                "duration": 0.1886363636363626,
                "tempo": 120.0
            },
            {
                "start_time": 18.079545454545453,
                "end_time": 18.161363636363635,
                "pitch": 45,
                "velocity": 80,
                "duration": 0.08181818181818201,
                "tempo": 120.0
            },
            {
                "start_time": 18.179545454545455,
                "end_time": 18.361363636363635,
                "pitch": 43,
                "velocity": 80,
                "duration": 0.18181818181817988,
                "tempo": 120.0
            },
            {
                "start_time": 18.379545454545454,
                "end_time": 18.561363636363634,
                "pitch": 42,
                "velocity": 80,
                "duration": 0.18181818181817988,
                "tempo": 120.0
            },
            {
                "start_time": 18.577272727272728,
                "end_time": 18.659090909090907,
                "pitch": 43,
                "velocity": 80,
                "duration": 0.08181818181817846,
                "tempo": 120.0
            },
            {
                "start_time": 18.675,
                "end_time": 19.254545454545454,
                "pitch": 50,
                "velocity": 80,
                "duration": 0.5795454545454533,
                "tempo": 120.0
            }
        ],
        "Harpsichord": [
            {
                "start_time": 0.0,
                "end_time": 0.08409090909090909,
                "pitch": 52,
                "velocity": 64,
                "duration": 0.08409090909090909,
                "tempo": 120.0
            },
            {
                "start_time": 0.5636363636363636,
                "end_time": 0.7749999999999999,
                "pitch": 52,
                "velocity": 64,
                "duration": 0.2113636363636363,
                "tempo": 120.0
            },
            {
                "start_time": 0.7909090909090909,
                "end_time": 0.8772727272727272,
                "pitch": 52,
                "velocity": 64,
                "duration": 0.08636363636363631,
                "tempo": 120.0
            },
            {
                "start_time": 0.8954545454545454,
                "end_time": 0.9795454545454545,
                "pitch": 55,
                "velocity": 64,
                "duration": 0.0840909090909091,
                "tempo": 120.0
            },
            {
                "start_time": 0.9977272727272727,
                "end_time": 1.084090909090909,
                "pitch": 57,
                "velocity": 64,
                "duration": 0.08636363636363631,
                "tempo": 120.0
            },
            {
                "start_time": 1.0999999999999999,
                "end_time": 1.1863636363636363,
                "pitch": 59,
                "velocity": 64,
                "duration": 0.08636363636363642,
                "tempo": 120.0
            },
            {
                "start_time": 1.2022727272727272,
                "end_time": 1.4795454545454545,
                "pitch": 64,
                "velocity": 64,
                "duration": 0.27727272727272734,
                "tempo": 120.0
            },
            {
                "start_time": 1.4954545454545454,
                "end_time": 1.784090909090909,
                "pitch": 62,
                "velocity": 64,
                "duration": 0.2886363636363636,
                "tempo": 120.0
            },
            {
                "start_time": 1.7999999999999998,
                "end_time": 1.9886363636363635,
                "pitch": 61,
                "velocity": 64,
                "duration": 0.1886363636363637,
                "tempo": 120.0
            },
            {
                "start_time": 2.0045454545454544,
                "end_time": 2.193181818181818,
                "pitch": 61,
                "velocity": 64,
                "duration": 0.1886363636363635,
                "tempo": 120.0
            },
            {
                "start_time": 2.2113636363636364,
                "end_time": 2.590909090909091,
                "pitch": 61,
                "velocity": 64,
                "duration": 0.3795454545454544,
                "tempo": 120.0
            },
            {
                "start_time": 2.6068181818181815,
                "end_time": 2.7818181818181817,
                "pitch": 59,
                "velocity": 64,
                "duration": 0.17500000000000027,
                "tempo": 120.0
            },
            {
                "start_time": 2.7977272727272724,
                "end_time": 3.202272727272727,
                "pitch": 57,
                "velocity": 64,
                "duration": 0.40454545454545476,
                "tempo": 120.0
            },
            {
                "start_time": 3.2204545454545452,
                "end_time": 3.3022727272727272,
                "pitch": 52,
                "velocity": 64,
                "duration": 0.08181818181818201,
                "tempo": 120.0
            },
            {
                "start_time": 3.775,
                "end_time": 3.9863636363636363,
                "pitch": 52,
                "velocity": 64,
                "duration": 0.21136363636363642,
                "tempo": 120.0
            },
            {
                "start_time": 4.004545454545454,
                "end_time": 4.088636363636364,
                "pitch": 52,
                "velocity": 64,
                "duration": 0.08409090909090988,
                "tempo": 120.0
            },
            {
                "start_time": 4.1068181818181815,
                "end_time": 4.193181818181818,
                "pitch": 55,
                "velocity": 64,
                "duration": 0.08636363636363686,
                "tempo": 120.0
            },
            {
                "start_time": 4.209090909090909,
                "end_time": 4.295454545454545,
                "pitch": 57,
                "velocity": 64,
                "duration": 0.08636363636363598,
                "tempo": 120.0
            },
            {
                "start_time": 4.3113636363636365,
                "end_time": 4.3977272727272725,
                "pitch": 59,
                "velocity": 64,
                "duration": 0.08636363636363598,
                "tempo": 120.0
            },
            {
                "start_time": 4.413636363636363,
                "end_time": 4.693181818181818,
                "pitch": 64,
                "velocity": 64,
                "duration": 0.2795454545454552,
                "tempo": 120.0
            },
            {
                "start_time": 4.709090909090909,
                "end_time": 4.99090909090909,
                "pitch": 62,
                "velocity": 64,
                "duration": 0.2818181818181813,
                "tempo": 120.0
            },
            {
                "start_time": 5.009090909090909,
                "end_time": 5.193181818181818,
                "pitch": 61,
                "velocity": 64,
                "duration": 0.18409090909090953,
                "tempo": 120.0
            },
            {
                "start_time": 5.209090909090909,
                "end_time": 5.402272727272727,
                "pitch": 61,
                "velocity": 64,
                "duration": 0.19318181818181834,
                "tempo": 120.0
            },
            {
                "start_time": 5.420454545454545,
                "end_time": 5.804545454545455,
                "pitch": 69,
                "velocity": 64,
                "duration": 0.3840909090909097,
                "tempo": 120.0
            },
            {
                "start_time": 5.820454545454545,
                "end_time": 5.997727272727272,
                "pitch": 67,
                "velocity": 64,
                "duration": 0.1772727272727268,
                "tempo": 120.0
            },
            {
                "start_time": 6.013636363636364,
                "end_time": 6.415909090909091,
                "pitch": 66,
                "velocity": 64,
                "duration": 0.40227272727272734,
                "tempo": 120.0
            },
            {
                "start_time": 6.434090909090909,
                "end_time": 6.515909090909091,
                "pitch": 52,
                "velocity": 64,
                "duration": 0.08181818181818201,
                "tempo": 120.0
            },
            {
                "start_time": 6.988636363636363,
                "end_time": 7.202272727272727,
                "pitch": 52,
                "velocity": 64,
                "duration": 0.21363636363636385,
                "tempo": 120.0
            },
            {
                "start_time": 7.218181818181818,
                "end_time": 7.304545454545454,
                "pitch": 52,
                "velocity": 64,
                "duration": 0.08636363636363598,
                "tempo": 120.0
            },
            {
                "start_time": 7.320454545454545,
                "end_time": 7.406818181818181,
                "pitch": 55,
                "velocity": 64,
                "duration": 0.08636363636363598,
                "tempo": 120.0
            },
            {
                "start_time": 7.425,
                "end_time": 7.509090909090909,
                "pitch": 57,
                "velocity": 64,
                "duration": 0.084090909090909,
                "tempo": 120.0
            },
            {
                "start_time": 7.527272727272727,
                "end_time": 7.611363636363636,
                "pitch": 59,
                "velocity": 64,
                "duration": 0.084090909090909,
                "tempo": 120.0
            },
            {
                "start_time": 7.629545454545454,
                "end_time": 7.906818181818181,
                "pitch": 64,
                "velocity": 64,
                "duration": 0.27727272727272734,
                "tempo": 120.0
            },
            {
                "start_time": 7.922727272727272,
                "end_time": 8.206818181818182,
                "pitch": 62,
                "velocity": 64,
                "duration": 0.28409090909091006,
                "tempo": 120.0
            },
            {
                "start_time": 8.222727272727273,
                "end_time": 8.406818181818181,
                "pitch": 61,
                "velocity": 64,
                "duration": 0.18409090909090864,
                "tempo": 120.0
            },
            {
                "start_time": 8.424999999999999,
                "end_time": 8.618181818181817,
                "pitch": 61,
                "velocity": 64,
                "duration": 0.19318181818181834,
                "tempo": 120.0
            },
            {
                "start_time": 8.634090909090908,
                "end_time": 9.025,
                "pitch": 61,
                "velocity": 64,
                "duration": 0.3909090909090924,
                "tempo": 120.0
            },
            {
                "start_time": 9.043181818181818,
                "end_time": 9.222727272727273,
                "pitch": 59,
                "velocity": 64,
                "duration": 0.17954545454545467,
                "tempo": 120.0
            },
            {
                "start_time": 9.238636363636363,
                "end_time": 9.631818181818181,
                "pitch": 57,
                "velocity": 64,
                "duration": 0.39318181818181763,
                "tempo": 120.0
            },
            {
                "start_time": 9.647727272727272,
                "end_time": 9.729545454545454,
                "pitch": 52,
                "velocity": 64,
                "duration": 0.08181818181818201,
                "tempo": 120.0
            },
            {
                "start_time": 10.209090909090909,
                "end_time": 10.427272727272726,
                "pitch": 52,
                "velocity": 64,
                "duration": 0.21818181818181692,
                "tempo": 120.0
            },
            {
                "start_time": 10.443181818181818,
                "end_time": 10.529545454545454,
                "pitch": 52,
                "velocity": 64,
                "duration": 0.08636363636363598,
                "tempo": 120.0
            },
            {
                "start_time": 10.545454545454545,
                "end_time": 10.631818181818181,
                "pitch": 55,
                "velocity": 64,
                "duration": 0.08636363636363598,
                "tempo": 120.0
            },
            {
                "start_time": 10.647727272727272,
                "end_time": 10.73409090909091,
                "pitch": 57,
                "velocity": 64,
                "duration": 0.08636363636363775,
                "tempo": 120.0
            },
            {
                "start_time": 10.752272727272727,
                "end_time": 10.836363636363636,
                "pitch": 59,
                "velocity": 64,
                "duration": 0.084090909090909,
                "tempo": 120.0
            },
            {
                "start_time": 10.854545454545454,
                "end_time": 11.125,
                "pitch": 64,
                "velocity": 64,
                "duration": 0.2704545454545464,
                "tempo": 120.0
            },
            {
                "start_time": 11.14090909090909,
                "end_time": 11.420454545454545,
                "pitch": 62,
                "velocity": 64,
                "duration": 0.2795454545454543,
                "tempo": 120.0
            },
            {
                "start_time": 11.438636363636363,
                "end_time": 11.622727272727273,
                "pitch": 61,
                "velocity": 64,
                "duration": 0.18409090909091042,
                "tempo": 120.0
            },
            {
                "start_time": 11.638636363636364,
                "end_time": 11.831818181818182,
                "pitch": 61,
                "velocity": 64,
                "duration": 0.19318181818181834,
                "tempo": 120.0
            },
            {
                "start_time": 11.85,
                "end_time": 12.24090909090909,
                "pitch": 69,
                "velocity": 64,
                "duration": 0.39090909090909065,
                "tempo": 120.0
            },
            {
                "start_time": 12.256818181818181,
                "end_time": 12.436363636363636,
                "pitch": 67,
                "velocity": 64,
                "duration": 0.17954545454545467,
                "tempo": 120.0
            },
            {
                "start_time": 12.452272727272726,
                "end_time": 12.829545454545453,
                "pitch": 66,
                "velocity": 64,
                "duration": 0.377272727272727,
                "tempo": 120.0
            },
            {
                "start_time": 12.845454545454546,
                "end_time": 13.029545454545454,
                "pitch": 69,
                "velocity": 64,
                "duration": 0.18409090909090864,
                "tempo": 120.0
            },
            {
                "start_time": 13.045454545454545,
                "end_time": 13.229545454545454,
                "pitch": 69,
                "velocity": 64,
                "duration": 0.18409090909090864,
                "tempo": 120.0
            },
            {
                "start_time": 13.245454545454544,
                "end_time": 13.331818181818182,
                "pitch": 69,
                "velocity": 64,
                "duration": 0.08636363636363775,
                "tempo": 120.0
            },
            {
                "start_time": 13.347727272727273,
                "end_time": 13.536363636363635,
                "pitch": 67,
                "velocity": 64,
                "duration": 0.1886363636363626,
                "tempo": 120.0
            },
            {
                "start_time": 13.554545454545455,
                "end_time": 13.74090909090909,
                "pitch": 66,
                "velocity": 64,
                "duration": 0.18636363636363562,
                "tempo": 120.0
            },
            {
                "start_time": 13.756818181818181,
                "end_time": 13.94090909090909,
                "pitch": 67,
                "velocity": 64,
                "duration": 0.18409090909090864,
                "tempo": 120.0
            },
            {
                "start_time": 13.959090909090909,
                "end_time": 14.043181818181818,
                "pitch": 66,
                "velocity": 64,
                "duration": 0.084090909090909,
                "tempo": 120.0
            },
            {
                "start_time": 14.059090909090909,
                "end_time": 14.238636363636363,
                "pitch": 62,
                "velocity": 64,
                "duration": 0.17954545454545467,
                "tempo": 120.0
            },
            {
                "start_time": 14.254545454545454,
                "end_time": 14.434090909090909,
                "pitch": 64,
                "velocity": 64,
                "duration": 0.17954545454545467,
                "tempo": 120.0
            },
            {
                "start_time": 14.452272727272726,
                "end_time": 14.636363636363635,
                "pitch": 69,
                "velocity": 64,
                "duration": 0.18409090909090864,
                "tempo": 120.0
            },
            {
                "start_time": 14.652272727272727,
                "end_time": 14.836363636363636,
                "pitch": 69,
                "velocity": 64,
                "duration": 0.18409090909090864,
                "tempo": 120.0
            },
            {
                "start_time": 14.854545454545454,
                "end_time": 14.938636363636363,
                "pitch": 69,
                "velocity": 64,
                "duration": 0.084090909090909,
                "tempo": 120.0
            },
            {
                "start_time": 14.95681818181818,
                "end_time": 15.145454545454545,
                "pitch": 67,
                "velocity": 64,
                "duration": 0.18863636363636438,
                "tempo": 120.0
            },
            {
                "start_time": 15.161363636363635,
                "end_time": 15.345454545454544,
                "pitch": 66,
                "velocity": 64,
                "duration": 0.18409090909090864,
                "tempo": 120.0
            },
            {
                "start_time": 15.363636363636363,
                "end_time": 15.443181818181817,
                "pitch": 67,
                "velocity": 64,
                "duration": 0.07954545454545325,
                "tempo": 120.0
            },
            {
                "start_time": 15.461363636363636,
                "end_time": 16.043181818181818,
                "pitch": 74,
                "velocity": 64,
                "duration": 0.581818181818182,
                "tempo": 120.0
            },
            {
                "start_time": 16.05909090909091,
                "end_time": 16.243181818181817,
                "pitch": 69,
                "velocity": 64,
                "duration": 0.18409090909090864,
                "tempo": 120.0
            },
            {
                "start_time": 16.261363636363637,
                "end_time": 16.445454545454545,
                "pitch": 69,
                "velocity": 64,
                "duration": 0.18409090909090864,
                "tempo": 120.0
            },
            {
                "start_time": 16.461363636363636,
                "end_time": 16.547727272727272,
                "pitch": 69,
                "velocity": 64,
                "duration": 0.08636363636363598,
                "tempo": 120.0
            },
            {
                "start_time": 16.56590909090909,
                "end_time": 16.752272727272725,
                "pitch": 67,
                "velocity": 64,
                "duration": 0.18636363636363384,
                "tempo": 120.0
            },
            {
                "start_time": 16.770454545454545,
                "end_time": 16.956818181818182,
                "pitch": 66,
                "velocity": 64,
                "duration": 0.1863636363636374,
                "tempo": 120.0
            },
            {
                "start_time": 16.974999999999998,
                "end_time": 17.159090909090907,
                "pitch": 67,
                "velocity": 64,
                "duration": 0.18409090909090864,
                "tempo": 120.0
            },
            {
                "start_time": 17.175,
                "end_time": 17.259090909090908,
                "pitch": 66,
                "velocity": 64,
                "duration": 0.08409090909090722,
                "tempo": 120.0
            },
            {
                "start_time": 17.275,
                "end_time": 17.454545454545453,
                "pitch": 62,
                "velocity": 64,
                "duration": 0.17954545454545467,
                "tempo": 120.0
            },
            {
                "start_time": 17.472727272727273,
                "end_time": 17.652272727272727,
                "pitch": 64,
                "velocity": 64,
                "duration": 0.17954545454545467,
                "tempo": 120.0
            },
            {
                "start_time": 17.668181818181818,
                "end_time": 17.85681818181818,
                "pitch": 69,
                "velocity": 64,
                "duration": 0.1886363636363626,
                "tempo": 120.0
            },
            {
                "start_time": 17.87272727272727,
                "end_time": 18.061363636363634,
                "pitch": 69,
                "velocity": 64,
                "duration": 0.1886363636363626,
                "tempo": 120.0
            },
            {
                "start_time": 18.079545454545453,
                "end_time": 18.161363636363635,
                "pitch": 69,
                "velocity": 64,
                "duration": 0.08181818181818201,
                "tempo": 120.0
            },
            {
                "start_time": 18.179545454545455,
                "end_time": 18.361363636363635,
                "pitch": 67,
                "velocity": 64,
                "duration": 0.18181818181817988,
                "tempo": 120.0
            },
            {
                "start_time": 18.379545454545454,
                "end_time": 18.561363636363634,
                "pitch": 66,
                "velocity": 64,
                "duration": 0.18181818181817988,
                "tempo": 120.0
            },
            {
                "start_time": 18.577272727272728,
                "end_time": 18.659090909090907,
                "pitch": 67,
                "velocity": 64,
                "duration": 0.08181818181817846,
                "tempo": 120.0
            },
            {
                "start_time": 18.675,
                "end_time": 19.270454545454545,
                "pitch": 74,
                "velocity": 64,
                "duration": 0.5954545454545439,
                "tempo": 120.0
            }
        ]
    }
}