{
    "track_id": "Kenseiden (FM) - 01 - Title Screen",
    "mood": "angry",
    "instruments": {
        "Acoustic Bass": [
            {
                "start_time": 0.0,
                "end_time": 0.12954545454545455,
                "pitch": 38,
                "velocity": 80,
                "duration": 0.12954545454545455,
                "tempo": 120.0
            },
            {
                "start_time": 0.1477272727272727,
                "end_time": 0.27954545454545454,
                "pitch": 38,
                "velocity": 80,
                "duration": 0.13181818181818183,
                "tempo": 120.0
            },
            {
                "start_time": 0.29772727272727273,
                "end_time": 0.32954545454545453,
                "pitch": 50,
                "velocity": 80,
                "duration": 0.0318181818181818,
                "tempo": 120.0
            },
            {
                "start_time": 0.3477272727272727,
                "end_time": 0.4295454545454545,
                "pitch": 50,
                "velocity": 80,
                "duration": 0.08181818181818179,
                "tempo": 120.0
            },
            {
                "start_time": 0.4477272727272727,
                "end_time": 1.775,
                "pitch": 38,
                "velocity": 80,
                "duration": 1.3272727272727272,
                "tempo": 120.0
            },
            {
                "start_time": 1.7909090909090908,
                "end_time": 1.9249999999999998,
                "pitch": 40,
                "velocity": 80,
                "duration": 0.13409090909090904,
                "tempo": 120.0
            },
            {
                "start_time": 1.9431818181818181,
                "end_time": 2.077272727272727,
                "pitch": 40,
                "velocity": 80,
                "duration": 0.13409090909090904,
                "tempo": 120.0
            },
            {
                "start_time": 2.0931818181818183,
                "end_time": 2.127272727272727,
                "pitch": 52,
                "velocity": 80,
                "duration": 0.03409090909090873,
                "tempo": 120.0
            },
            {
                "start_time": 2.143181818181818,
                "end_time": 2.2295454545454545,
                "pitch": 52,
                "velocity": 80,
                "duration": 0.08636363636363642,
                "tempo": 120.0
            },
            {
                "start_time": 2.245454545454545,
                "end_time": 3.586363636363636,
                "pitch": 40,
                "velocity": 80,
                "duration": 1.3409090909090908,
                "tempo": 120.0
            },
            {
                "start_time": 3.602272727272727,
                "end_time": 3.7386363636363633,
                "pitch": 38,
                "velocity": 80,
                "duration": 0.13636363636363624,
                "tempo": 120.0
            },
            {
                "start_time": 3.7545454545454544,
                "end_time": 3.8886363636363637,
                "pitch": 38,
                "velocity": 80,
                "duration": 0.13409090909090926,
                "tempo": 120.0
            },
            {
                "start_time": 3.9068181818181817,
                "end_time": 3.9386363636363635,
                "pitch": 50,
                "velocity": 80,
                "duration": 0.031818181818181746,
                "tempo": 120.0
            },
            {
                "start_time": 3.9568181818181816,
                "end_time": 4.040909090909091,
                "pitch": 50,
                "velocity": 80,
                "duration": 0.08409090909090944,
                "tempo": 120.0
            },
            {
                "start_time": 4.056818181818182,
                "end_time": 5.3977272727272725,
                "pitch": 38,
                "velocity": 80,
                "duration": 1.3409090909090908,
                "tempo": 120.0
            },
            {
                "start_time": 5.415909090909091,
                "end_time": 5.55,
                "pitch": 40,
                "velocity": 80,
                "duration": 0.13409090909090882,
                "tempo": 120.0
            },
            {
                "start_time": 5.5659090909090905,
                "end_time": 5.702272727272727,
                "pitch": 40,
                "velocity": 80,
                "duration": 0.1363636363636367,
                "tempo": 120.0
            },
            {
                "start_time": 5.718181818181818,
                "end_time": 5.752272727272727,
                "pitch": 52,
                "velocity": 80,
                "duration": 0.03409090909090917,
                "tempo": 120.0
            },
            {
                "start_time": 5.768181818181818,
                "end_time": 5.852272727272727,
                "pitch": 52,
                "velocity": 80,
                "duration": 0.084090909090909,
                "tempo": 120.0
            },
            {
                "start_time": 5.870454545454545,
                "end_time": 7.204545454545454,
                "pitch": 40,
                "velocity": 80,
                "duration": 1.334090909090909,
                "tempo": 120.0
            },
            {
                "start_time": 7.220454545454545,
                "end_time": 7.3568181818181815,
                "pitch": 26,
                "velocity": 101,
                "duration": 0.1363636363636367,
                "tempo": 120.0
            },
            {
                "start_time": 7.372727272727272,
                "end_time": 7.506818181818182,
                "pitch": 26,
                "velocity": 101,
                "duration": 0.1340909090909097,
                "tempo": 120.0
            },
            {
                "start_time": 7.5249999999999995,
                "end_time": 7.659090909090908,
                "pitch": 26,
                "velocity": 101,
                "duration": 0.13409090909090882,
                "tempo": 120.0
            },
            {
                "start_time": 7.675,
                "end_time": 7.811363636363636,
                "pitch": 26,
                "velocity": 101,
                "duration": 0.1363636363636358,
                "tempo": 120.0
            },
            {
                "start_time": 7.827272727272727,
                "end_time": 7.961363636363636,
                "pitch": 38,
                "velocity": 101,
                "duration": 0.13409090909090882,
                "tempo": 120.0
            },
            {
                "start_time": 7.977272727272727,
                "end_time": 8.111363636363636,
                "pitch": 26,
                "velocity": 101,
                "duration": 0.1340909090909097,
                "tempo": 120.0
            },
            {
                "start_time": 8.127272727272727,
                "end_time": 8.261363636363637,
                "pitch": 26,
                "velocity": 101,
                "duration": 0.1340909090909097,
                "tempo": 120.0
            },
            {
                "start_time": 8.277272727272727,
                "end_time": 8.411363636363635,
                "pitch": 26,
                "velocity": 101,
                "duration": 0.13409090909090793,
                "tempo": 120.0
            },
            {
                "start_time": 8.427272727272728,
                "end_time": 8.561363636363636,
                "pitch": 26,
                "velocity": 101,
                "duration": 0.13409090909090793,
                "tempo": 120.0
            },
            {
                "start_time": 8.579545454545453,
                "end_time": 8.713636363636363,
                "pitch": 26,
                "velocity": 101,
                "duration": 0.1340909090909097,
                "tempo": 120.0
            },
            {
                "start_time": 8.729545454545454,
                "end_time": 8.86590909090909,
                "pitch": 26,
                "velocity": 101,
                "duration": 0.1363636363636367,
                "tempo": 120.0
            },
            {
                "start_time": 8.881818181818181,
                "end_time": 9.01590909090909,
                "pitch": 26,
                "velocity": 101,
                "duration": 0.1340909090909097,
                "tempo": 120.0
            },
            {
                "start_time": 9.034090909090908,
                "end_time": 9.165909090909091,
                "pitch": 26,
                "velocity": 101,
                "duration": 0.13181818181818272,
                "tempo": 120.0
            },
            {
                "start_time": 9.184090909090909,
                "end_time": 9.31590909090909,
                "pitch": 26,
                "velocity": 101,
                "duration": 0.13181818181818095,
                "tempo": 120.0
            },
            {
                "start_time": 9.334090909090909,
                "end_time": 9.46590909090909,
                "pitch": 26,
                "velocity": 101,
                "duration": 0.13181818181818095,
                "tempo": 120.0
            },
            {
                "start_time": 9.48409090909091,
                "end_time": 9.61590909090909,
                "pitch": 26,
                "velocity": 101,
                "duration": 0.13181818181818095,
                "tempo": 120.0
            },
            {
                "start_time": 9.634090909090908,
                "end_time": 9.76590909090909,
                "pitch": 28,
                "velocity": 101,
                "duration": 0.13181818181818272,
                "tempo": 120.0
            },
            {
                "start_time": 9.784090909090908,
                "end_time": 9.915909090909091,
                "pitch": 28,
                "velocity": 101,
                "duration": 0.13181818181818272,
                "tempo": 120.0
            },
            {
                "start_time": 9.934090909090909,
                "end_time": 10.06590909090909,
                "pitch": 28,
                "velocity": 101,
                "duration": 0.13181818181818095,
                "tempo": 120.0
            },
            {
                "start_time": 10.084090909090909,
                "end_time": 10.21590909090909,
                "pitch": 28,
                "velocity": 101,
                "duration": 0.13181818181818095,
                "tempo": 120.0
            },
            {
                "start_time": 10.23409090909091,
                "end_time": 10.36590909090909,
                "pitch": 28,
                "velocity": 101,
                "duration": 0.13181818181818095,
                "tempo": 120.0
            },
            {
                "start_time": 10.384090909090908,
                "end_time": 10.51590909090909,
                "pitch": 40,
                "velocity": 101,
                "duration": 0.13181818181818272,
                "tempo": 120.0
            },
            {
                "start_time": 10.534090909090908,
                "end_time": 10.665909090909091,
                "pitch": 28,
                "velocity": 101,
                "duration": 0.13181818181818272,
                "tempo": 120.0
            },
            {
                "start_time": 10.684090909090909,
                "end_time": 10.81590909090909,
                "pitch": 28,
                "velocity": 101,
                "duration": 0.13181818181818095,
                "tempo": 120.0
            },
            {
                "start_time": 10.834090909090909,
                "end_time": 10.968181818181817,
                "pitch": 28,
                "velocity": 101,
                "duration": 0.13409090909090793,
                "tempo": 120.0
            },
            {
                "start_time": 10.98409090909091,
                "end_time": 11.120454545454544,
                "pitch": 28,
                "velocity": 101,
                "duration": 0.1363636363636349,
                "tempo": 120.0
            },
            {
                "start_time": 11.136363636363637,
                "end_time": 11.270454545454545,
                "pitch": 28,
                "velocity": 101,
                "duration": 0.13409090909090793,
                "tempo": 120.0
            },
            {
                "start_time": 11.288636363636362,
                "end_time": 11.422727272727272,
                "pitch": 28,
                "velocity": 101,
                "duration": 0.1340909090909097,
                "tempo": 120.0
            },
            {
                "start_time": 11.438636363636363,
                "end_time": 11.572727272727272,
                "pitch": 28,
                "velocity": 101,
                "duration": 0.1340909090909097,
                "tempo": 120.0
            },
            {
                "start_time": 11.588636363636363,
                "end_time": 11.722727272727273,
                "pitch": 40,
                "velocity": 101,
                "duration": 0.1340909090909097,
                "tempo": 120.0
            },
            {
                "start_time": 11.738636363636363,
                "end_time": 11.872727272727273,
                "pitch": 28,
                "velocity": 101,
                "duration": 0.1340909090909097,
                "tempo": 120.0
            },
            {
                "start_time": 11.888636363636364,
                "end_time": 12.022727272727272,
                "pitch": 28,
                "velocity": 101,
                "duration": 0.13409090909090793,
                "tempo": 120.0
            },
            {
                "start_time": 12.038636363636362,
                "end_time": 12.172727272727272,
                "pitch": 31,
                "velocity": 101,
                "duration": 0.1340909090909097,
                "tempo": 120.0
            },
            {
                "start_time": 12.188636363636363,
                "end_time": 12.322727272727272,
                "pitch": 31,
                "velocity": 101,
                "duration": 0.1340909090909097,
                "tempo": 120.0
            },
            {
                "start_time": 12.338636363636363,
                "end_time": 12.472727272727273,
                "pitch": 31,
                "velocity": 101,
                "duration": 0.1340909090909097,
                "tempo": 120.0
            },
            {
                "start_time": 12.488636363636363,
                "end_time": 12.622727272727271,
                "pitch": 31,
                "velocity": 101,
                "duration": 0.13409090909090793,
                "tempo": 120.0
            },
            {
                "start_time": 12.638636363636364,
                "end_time": 12.772727272727272,
                "pitch": 31,
                "velocity": 101,
                "duration": 0.13409090909090793,
                "tempo": 120.0
            },
            {
                "start_time": 12.788636363636362,
                "end_time": 12.922727272727272,
                "pitch": 43,
                "velocity": 101,
                "duration": 0.1340909090909097,
                "tempo": 120.0
            },
            {
                "start_time": 12.938636363636363,
                "end_time": 13.072727272727272,
                "pitch": 31,
                "velocity": 101,
                "duration": 0.1340909090909097,
                "tempo": 120.0
            },
            {
                "start_time": 13.088636363636363,
                "end_time": 13.222727272727273,
                "pitch": 31,
                "velocity": 101,
                "duration": 0.1340909090909097,
                "tempo": 120.0
            },
            {
                "start_time": 13.238636363636363,
                "end_time": 13.372727272727271,
                "pitch": 31,
                "velocity": 101,
                "duration": 0.13409090909090793,
                "tempo": 120.0
            },
            {
                "start_time": 13.388636363636364,
                "end_time": 13.522727272727272,
                "pitch": 31,
                "velocity": 101,
                "duration": 0.13409090909090793,
                "tempo": 120.0
            },
            {
                "start_time": 13.538636363636362,
                "end_time": 13.672727272727272,
                "pitch": 31,
                "velocity": 101,
                "duration": 0.1340909090909097,
                "tempo": 120.0
            },
            {
                "start_time": 13.688636363636363,
                "end_time": 13.822727272727272,
                "pitch": 31,
                "velocity": 101,
                "duration": 0.1340909090909097,
                "tempo": 120.0
            },
            {
                "start_time": 13.838636363636363,
                "end_time": 13.975,
                "pitch": 31,
                "velocity": 101,
                "duration": 0.1363636363636367,
                "tempo": 120.0
            },
            {
                "start_time": 13.99090909090909,
                "end_time": 14.125,
                "pitch": 43,
                "velocity": 101,
                "duration": 0.1340909090909097,
                "tempo": 120.0
            },
            {
                "start_time": 14.143181818181818,
                "end_time": 14.277272727272727,
                "pitch": 31,
                "velocity": 101,
                "duration": 0.1340909090909097,
                "tempo": 120.0
            },
            {
                "start_time": 14.293181818181818,
                "end_time": 14.429545454545455,
                "pitch": 31,
                "velocity": 101,
                "duration": 0.1363636363636367,
                "tempo": 120.0
            },
            {
                "start_time": 14.445454545454545,
                "end_time": 14.579545454545453,
                "pitch": 33,
                "velocity": 101,
                "duration": 0.13409090909090793,
                "tempo": 120.0
            },
            {
                "start_time": 14.595454545454544,
                "end_time": 14.729545454545454,
                "pitch": 33,
                "velocity": 101,
                "duration": 0.1340909090909097,
                "tempo": 120.0
            },
            {
                "start_time": 14.745454545454544,
                "end_time": 14.879545454545454,
                "pitch": 33,
                "velocity": 101,
                "duration": 0.1340909090909097,
                "tempo": 120.0
            },
            {
                "start_time": 14.895454545454545,
                "end_time": 15.029545454545454,
                "pitch": 33,
                "velocity": 101,
                "duration": 0.1340909090909097,
                "tempo": 120.0
            },
            {
                "start_time": 15.045454545454545,
                "end_time": 15.179545454545455,
                "pitch": 33,
                "velocity": 101,
                "duration": 0.1340909090909097,
                "tempo": 120.0
            },
            {
                "start_time": 15.195454545454545,
                "end_time": 15.329545454545453,
                "pitch": 45,
                "velocity": 101,
                "duration": 0.13409090909090793,
                "tempo": 120.0
            },
            {
                "start_time": 15.345454545454544,
                "end_time": 15.479545454545454,
                "pitch": 33,
                "velocity": 101,
                "duration": 0.1340909090909097,
                "tempo": 120.0
            },
            {
                "start_time": 15.495454545454544,
                "end_time": 15.629545454545454,
                "pitch": 33,
                "velocity": 101,
                "duration": 0.1340909090909097,
                "tempo": 120.0
            },
            {
                "start_time": 15.645454545454545,
                "end_time": 15.779545454545454,
                "pitch": 33,
                "velocity": 101,
                "duration": 0.1340909090909097,
                "tempo": 120.0
            },
            {
                "start_time": 15.795454545454545,
                "end_time": 15.929545454545453,
                "pitch": 33,
                "velocity": 101,
                "duration": 0.13409090909090793,
                "tempo": 120.0
            },
            {
                "start_time": 15.945454545454545,
                "end_time": 16.079545454545453,
                "pitch": 33,
                "velocity": 101,
                "duration": 0.13409090909090793,
                "tempo": 120.0
            },
            {
                "start_time": 16.095454545454544,
                "end_time": 16.229545454545455,
                "pitch": 33,
                "velocity": 101,
                "duration": 0.13409090909091148,
                "tempo": 120.0
            },
            {
                "start_time": 16.245454545454546,
                "end_time": 16.381818181818183,
                "pitch": 33,
                "velocity": 101,
                "duration": 0.1363636363636367,
                "tempo": 120.0
            },
            {
                "start_time": 16.397727272727273,
                "end_time": 16.53409090909091,
                "pitch": 45,
                "velocity": 101,
                "duration": 0.1363636363636367,
                "tempo": 120.0
            },
            {
                "start_time": 16.552272727272726,
                "end_time": 16.686363636363634,
                "pitch": 33,
                "velocity": 101,
                "duration": 0.13409090909090793,
                "tempo": 120.0
            },
            {
                "start_time": 16.704545454545453,
                "end_time": 16.84090909090909,
                "pitch": 33,
                "velocity": 101,
                "duration": 0.1363636363636367,
                "tempo": 120.0
            }
        ],
        "Harpsichord": [
            {
                "start_time": 0.8931818181818182,
                "end_time": 1.025,
                "pitch": 50,
                "velocity": 51,
                "duration": 0.13181818181818172,
                "tempo": 120.0
            },
            {
                "start_time": 1.0431818181818182,
                "end_time": 1.175,
                "pitch": 52,
                "velocity": 51,
                "duration": 0.13181818181818183,
                "tempo": 120.0
            },
            {
                "start_time": 1.190909090909091,
                "end_time": 1.325,
                "pitch": 55,
                "velocity": 51,
                "duration": 0.13409090909090904,
                "tempo": 120.0
            },
            {
                "start_time": 1.3409090909090908,
                "end_time": 1.4749999999999999,
                "pitch": 57,
                "velocity": 51,
                "duration": 0.13409090909090904,
                "tempo": 120.0
            },
            {
                "start_time": 1.4909090909090907,
                "end_time": 1.625,
                "pitch": 60,
                "velocity": 51,
                "duration": 0.13409090909090926,
                "tempo": 120.0
            },
            {
                "start_time": 1.6409090909090909,
                "end_time": 1.775,
                "pitch": 62,
                "velocity": 51,
                "duration": 0.13409090909090904,
                "tempo": 120.0
            },
            {
                "start_time": 2.6977272727272728,
                "end_time": 2.8295454545454546,
                "pitch": 50,
                "velocity": 51,
                "duration": 0.13181818181818183,
                "tempo": 120.0
            },
            {
                "start_time": 2.8477272727272727,
                "end_time": 2.9795454545454545,
                "pitch": 52,
                "velocity": 51,
                "duration": 0.13181818181818183,
                "tempo": 120.0
            },
            {
                "start_time": 2.9977272727272726,
                "end_time": 3.131818181818182,
                "pitch": 55,
                "velocity": 51,
                "duration": 0.13409090909090926,
                "tempo": 120.0
            },
            {
                "start_time": 3.1477272727272725,
                "end_time": 3.2840909090909087,
                "pitch": 57,
                "velocity": 51,
                "duration": 0.13636363636363624,
                "tempo": 120.0
            },
            {
                "start_time": 3.3,
                "end_time": 3.434090909090909,
                "pitch": 60,
                "velocity": 51,
                "duration": 0.13409090909090926,
                "tempo": 120.0
            },
            {
                "start_time": 3.452272727272727,
                "end_time": 3.586363636363636,
                "pitch": 62,
                "velocity": 51,
                "duration": 0.13409090909090882,
                "tempo": 120.0
            },
            {
                "start_time": 4.511363636363636,
                "end_time": 4.6477272727272725,
                "pitch": 50,
                "velocity": 51,
                "duration": 0.1363636363636367,
                "tempo": 120.0
            },
            {
                "start_time": 4.663636363636363,
                "end_time": 4.797727272727273,
                "pitch": 52,
                "velocity": 51,
                "duration": 0.1340909090909097,
                "tempo": 120.0
            },
            {
                "start_time": 4.8159090909090905,
                "end_time": 4.947727272727272,
                "pitch": 55,
                "velocity": 51,
                "duration": 0.13181818181818183,
                "tempo": 120.0
            },
            {
                "start_time": 4.965909090909091,
                "end_time": 5.097727272727273,
                "pitch": 57,
                "velocity": 51,
                "duration": 0.13181818181818183,
                "tempo": 120.0
            },
            {
                "start_time": 5.11590909090909,
                "end_time": 5.247727272727272,
                "pitch": 60,
                "velocity": 51,
                "duration": 0.13181818181818183,
                "tempo": 120.0
            },
            {
                "start_time": 5.265909090909091,
                "end_time": 5.3977272727272725,
                "pitch": 62,
                "velocity": 51,
                "duration": 0.13181818181818183,
                "tempo": 120.0
            },
            {
                "start_time": 6.320454545454545,
                "end_time": 6.454545454545454,
                "pitch": 50,
                "velocity": 51,
                "duration": 0.13409090909090882,
                "tempo": 120.0
            },
            {
                "start_time": 6.470454545454545,
                "end_time": 6.6045454545454545,
                "pitch": 52,
                "velocity": 51,
                "duration": 0.1340909090909097,
                "tempo": 120.0
            },
            {
                "start_time": 6.620454545454545,
                "end_time": 6.754545454545454,
                "pitch": 55,
                "velocity": 51,
                "duration": 0.13409090909090882,
                "tempo": 120.0
            },
            {
                "start_time": 6.7704545454545455,
                "end_time": 6.904545454545454,
                "pitch": 57,
                "velocity": 51,
                "duration": 0.13409090909090882,
                "tempo": 120.0
            },
            {
                "start_time": 6.920454545454545,
                "end_time": 7.054545454545454,
                "pitch": 60,
                "velocity": 51,
                "duration": 0.13409090909090882,
                "tempo": 120.0
            },
            {
                "start_time": 7.070454545454545,
                "end_time": 7.204545454545454,
                "pitch": 62,
                "velocity": 51,
                "duration": 0.13409090909090882,
                "tempo": 120.0
            },
            {
                "start_time": 7.220454545454545,
                "end_time": 7.3568181818181815,
                "pitch": 57,
                "velocity": 51,
                "duration": 0.1363636363636367,
                "tempo": 120.0
            },
            {
                "start_time": 7.372727272727272,
                "end_time": 7.506818181818182,
                "pitch": 67,
                "velocity": 51,
                "duration": 0.1340909090909097,
                "tempo": 120.0
            },
            {
                "start_time": 7.5249999999999995,
                "end_time": 7.659090909090908,
                "pitch": 65,
                "velocity": 51,
                "duration": 0.13409090909090882,
                "tempo": 120.0
            },
            {
                "start_time": 7.675,
                "end_time": 7.811363636363636,
                "pitch": 62,
                "velocity": 51,
                "duration": 0.1363636363636358,
                "tempo": 120.0
            },
            {
                "start_time": 7.827272727272727,
                "end_time": 7.961363636363636,
                "pitch": 57,
                "velocity": 51,
                "duration": 0.13409090909090882,
                "tempo": 120.0
            },
            {
                "start_time": 7.977272727272727,
                "end_time": 8.111363636363636,
                "pitch": 67,
                "velocity": 51,
                "duration": 0.1340909090909097,
                "tempo": 120.0
            },
            {
                "start_time": 8.127272727272727,
                "end_time": 8.261363636363637,
                "pitch": 65,
                "velocity": 51,
                "duration": 0.1340909090909097,
                "tempo": 120.0
            },
            {
                "start_time": 8.277272727272727,
                "end_time": 8.411363636363635,
                "pitch": 62,
                "velocity": 51,
                "duration": 0.13409090909090793,
                "tempo": 120.0
            },
            {
                "start_time": 8.427272727272728,
                "end_time": 8.561363636363636,
                "pitch": 57,
                "velocity": 51,
                "duration": 0.13409090909090793,
                "tempo": 120.0
            },
            {
                "start_time": 8.579545454545453,
                "end_time": 8.713636363636363,
                "pitch": 67,
                "velocity": 51,
                "duration": 0.1340909090909097,
                "tempo": 120.0
            },
            {
                "start_time": 8.729545454545454,
                "end_time": 8.86590909090909,
                "pitch": 65,
                "velocity": 51,
                "duration": 0.1363636363636367,
                "tempo": 120.0
            },
            {
                "start_time": 8.881818181818181,
                "end_time": 9.01590909090909,
                "pitch": 62,
                "velocity": 51,
                "duration": 0.1340909090909097,
                "tempo": 120.0
            },
            {
                "start_time": 9.034090909090908,
                "end_time": 9.165909090909091,
                "pitch": 57,
                "velocity": 51,
                "duration": 0.13181818181818272,
                "tempo": 120.0
            },
            {
                "start_time": 9.184090909090909,
                "end_time": 9.31590909090909,
                "pitch": 67,
                "velocity": 51,
                "duration": 0.13181818181818095,
                "tempo": 120.0
            },
            {
                "start_time": 9.334090909090909,
                "end_time": 9.46590909090909,
                "pitch": 65,
                "velocity": 51,
                "duration": 0.13181818181818095,
                "tempo": 120.0
            },
            {
                "start_time": 9.48409090909091,
                "end_time": 9.61590909090909,
                "pitch": 62,
                "velocity": 51,
                "duration": 0.13181818181818095,
                "tempo": 120.0
            },
            {
                "start_time": 9.634090909090908,
                "end_time": 9.76590909090909,
                "pitch": 59,
                "velocity": 51,
                "duration": 0.13181818181818272,
                "tempo": 120.0
            },
            {
                "start_time": 9.784090909090908,
                "end_time": 9.915909090909091,
                "pitch": 71,
                "velocity": 51,
                "duration": 0.13181818181818272,
                "tempo": 120.0
            },
            {
                "start_time": 9.934090909090909,
                "end_time": 10.06590909090909,
                "pitch": 69,
                "velocity": 51,
                "duration": 0.13181818181818095,
                "tempo": 120.0
            },
            {
                "start_time": 10.084090909090909,
                "end_time": 10.21590909090909,
                "pitch": 65,
                "velocity": 51,
                "duration": 0.13181818181818095,
                "tempo": 120.0
            },
            {
                "start_time": 10.23409090909091,
                "end_time": 10.36590909090909,
                "pitch": 59,
                "velocity": 51,
                "duration": 0.13181818181818095,
                "tempo": 120.0
            },
            {
                "start_time": 10.384090909090908,
                "end_time": 10.51590909090909,
                "pitch": 71,
                "velocity": 51,
                "duration": 0.13181818181818272,
                "tempo": 120.0
            },
            {
                "start_time": 10.534090909090908,
                "end_time": 10.665909090909091,
                "pitch": 69,
                "velocity": 51,
                "duration": 0.13181818181818272,
                "tempo": 120.0
            },
            {
                "start_time": 10.684090909090909,
                "end_time": 10.81590909090909,
                "pitch": 65,
                "velocity": 51,
                "duration": 0.13181818181818095,
                "tempo": 120.0
            },
            {
                "start_time": 10.834090909090909,
                "end_time": 10.968181818181817,
                "pitch": 59,
                "velocity": 51,
                "duration": 0.13409090909090793,
                "tempo": 120.0
            },
            {
                "start_time": 10.98409090909091,
                "end_time": 11.120454545454544,
                "pitch": 71,
                "velocity": 51,
                "duration": 0.1363636363636349,
                "tempo": 120.0
            },
            {
                "start_time": 11.136363636363637,
                "end_time": 11.270454545454545,
                "pitch": 69,
                "velocity": 51,
                "duration": 0.13409090909090793,
                "tempo": 120.0
            },
            {
                "start_time": 11.288636363636362,
                "end_time": 11.422727272727272,
                "pitch": 65,
                "velocity": 51,
                "duration": 0.1340909090909097,
                "tempo": 120.0
            },
            {
                "start_time": 11.438636363636363,
                "end_time": 11.572727272727272,
                "pitch": 59,
                "velocity": 51,
                "duration": 0.1340909090909097,
                "tempo": 120.0
            },
            {
                "start_time": 11.588636363636363,
                "end_time": 11.722727272727273,
                "pitch": 71,
                "velocity": 51,
                "duration": 0.1340909090909097,
                "tempo": 120.0
            },
            {
                "start_time": 11.738636363636363,
                "end_time": 11.872727272727273,
                "pitch": 69,
                "velocity": 51,
                "duration": 0.1340909090909097,
                "tempo": 120.0
            },
            {
                "start_time": 11.888636363636364,
                "end_time": 12.022727272727272,
                "pitch": 65,
                "velocity": 51,
                "duration": 0.13409090909090793,
                "tempo": 120.0
            },
            {
                "start_time": 12.038636363636362,
                "end_time": 12.172727272727272,
                "pitch": 57,
                "velocity": 51,
                "duration": 0.1340909090909097,
                "tempo": 120.0
            },
            {
                "start_time": 12.188636363636363,
                "end_time": 12.322727272727272,
                "pitch": 67,
                "velocity": 51,
                "duration": 0.1340909090909097,
                "tempo": 120.0
            },
            {
                "start_time": 12.338636363636363,
                "end_time": 12.472727272727273,
                "pitch": 65,
                "velocity": 51,
                "duration": 0.1340909090909097,
                "tempo": 120.0
            },
            {
                "start_time": 12.488636363636363,
                "end_time": 12.622727272727271,
                "pitch": 62,
                "velocity": 51,
                "duration": 0.13409090909090793,
                "tempo": 120.0
            },
            {
                "start_time": 12.638636363636364,
                "end_time": 12.772727272727272,
                "pitch": 57,
                "velocity": 51,
                "duration": 0.13409090909090793,
                "tempo": 120.0
            },
            {
                "start_time": 12.788636363636362,
                "end_time": 12.922727272727272,
                "pitch": 67,
                "velocity": 51,
                "duration": 0.1340909090909097,
                "tempo": 120.0
            },
            {
                "start_time": 12.938636363636363,
                "end_time": 13.072727272727272,
                "pitch": 65,
                "velocity": 51,
                "duration": 0.1340909090909097,
                "tempo": 120.0
            },
            {
                "start_time": 13.088636363636363,
                "end_time": 13.222727272727273,
                "pitch": 62,
                "velocity": 51,
                "duration": 0.1340909090909097,
                "tempo": 120.0
            },
            {
                "start_time": 13.238636363636363,
                "end_time": 13.372727272727271,
                "pitch": 57,
                "velocity": 51,
                "duration": 0.13409090909090793,
                "tempo": 120.0
            },
            {
                "start_time": 13.388636363636364,
                "end_time": 13.522727272727272,
                "pitch": 67,
                "velocity": 51,
                "duration": 0.13409090909090793,
                "tempo": 120.0
            },
            {
                "start_time": 13.538636363636362,
                "end_time": 13.672727272727272,
                "pitch": 65,
                "velocity": 51,
                "duration": 0.1340909090909097,
                "tempo": 120.0
            },
            {
                "start_time": 13.688636363636363,
                "end_time": 13.822727272727272,
                "pitch": 62,
                "velocity": 51,
                "duration": 0.1340909090909097,
                "tempo": 120.0
            },
            {
                "start_time": 13.838636363636363,
                "end_time": 13.975,
                "pitch": 57,
                "velocity": 51,
                "duration": 0.1363636363636367,
                "tempo": 120.0
            },
            {
                "start_time": 13.99090909090909,
                "end_time": 14.125,
                "pitch": 67,
                "velocity": 51,
                "duration": 0.1340909090909097,
                "tempo": 120.0
            },
            {
                "start_time": 14.143181818181818,
                "end_time": 14.277272727272727,
                "pitch": 65,
                "velocity": 51,
                "duration": 0.1340909090909097,
                "tempo": 120.0
            },
            {
                "start_time": 14.293181818181818,
                "end_time": 14.429545454545455,
                "pitch": 62,
                "velocity": 51,
                "duration": 0.1363636363636367,
                "tempo": 120.0
            },
            {
                "start_time": 14.445454545454545,
                "end_time": 14.579545454545453,
                "pitch": 59,
                "velocity": 51,
                "duration": 0.13409090909090793,
                "tempo": 120.0
            },
            {
                "start_time": 14.595454545454544,
                "end_time": 14.729545454545454,
                "pitch": 72,
                "velocity": 51,
                "duration": 0.1340909090909097,
                "tempo": 120.0
            },
            {
                "start_time": 14.745454545454544,
                "end_time": 14.879545454545454,
                "pitch": 71,
                "velocity": 51,
                "duration": 0.1340909090909097,
                "tempo": 120.0
            },
            {
                "start_time": 14.895454545454545,
                "end_time": 15.029545454545454,
                "pitch": 69,
                "velocity": 51,
                "duration": 0.1340909090909097,
                "tempo": 120.0
            },
            {
                "start_time": 15.045454545454545,
                "end_time": 15.179545454545455,
                "pitch": 59,
                "velocity": 51,
                "duration": 0.1340909090909097,
                "tempo": 120.0
            },
            {
                "start_time": 15.195454545454545,
                "end_time": 15.329545454545453,
                "pitch": 72,
                "velocity": 51,
                "duration": 0.13409090909090793,
                "tempo": 120.0
            },
            {
                "start_time": 15.345454545454544,
                "end_time": 15.479545454545454,
                "pitch": 71,
                "velocity": 51,
                "duration": 0.1340909090909097,
                "tempo": 120.0
            },
            {
                "start_time": 15.495454545454544,
                "end_time": 15.629545454545454,
                "pitch": 69,
                "velocity": 51,
                "duration": 0.1340909090909097,
                "tempo": 120.0
            },
            {
                "start_time": 15.645454545454545,
                "end_time": 15.779545454545454,
                "pitch": 59,
                "velocity": 51,
                "duration": 0.1340909090909097,
                "tempo": 120.0
            },
            {
                "start_time": 15.795454545454545,
                "end_time": 15.929545454545453,
                "pitch": 72,
                "velocity": 51,
                "duration": 0.13409090909090793,
                "tempo": 120.0
            },
            {
                "start_time": 15.945454545454545,
                "end_time": 16.079545454545453,
                "pitch": 71,
                "velocity": 51,
                "duration": 0.13409090909090793,
                "tempo": 120.0
            },
            {
                "start_time": 16.095454545454544,
                "end_time": 16.229545454545455,
                "pitch": 69,
                "velocity": 51,
                "duration": 0.13409090909091148,
                "tempo": 120.0
            },
            {
                "start_time": 16.245454545454546,
                "end_time": 16.381818181818183,
                "pitch": 59,
                "velocity": 51,
                "duration": 0.1363636363636367,
                "tempo": 120.0
            },
            {
                "start_time": 16.397727272727273,
                "end_time": 16.53409090909091,
                "pitch": 72,
                "velocity": 51,
                "duration": 0.1363636363636367,
                "tempo": 120.0
            },
            {
                "start_time": 16.552272727272726,
                "end_time": 16.686363636363634,
                "pitch": 71,
                "velocity": 51,
                "duration": 0.13409090909090793,
                "tempo": 120.0
            },
            {
                "start_time": 16.704545454545453,
                "end_time": 16.84090909090909,
                "pitch": 69,
                "velocity": 51,
                "duration": 0.1363636363636367,
                "tempo": 120.0
            }
        ],
        "Vibraphone": [
            {
                "start_time": 0.0,
                "end_time": 0.029545454545454545,
                "pitch": 69,
                "velocity": 51,
                "duration": 0.029545454545454545,
                "tempo": 120.0
            },
            {
                "start_time": 0.04772727272727272,
                "end_time": 0.17954545454545454,
                "pitch": 62,
                "velocity": 51,
                "duration": 0.1318181818181818,
                "tempo": 120.0
            },
            {
                "start_time": 0.19772727272727272,
                "end_time": 0.32954545454545453,
                "pitch": 64,
                "velocity": 51,
                "duration": 0.1318181818181818,
                "tempo": 120.0
            },
            {
                "start_time": 0.3477272727272727,
                "end_time": 0.4795454545454545,
                "pitch": 67,
                "velocity": 51,
                "duration": 0.13181818181818178,
                "tempo": 120.0
            },
            {
                "start_time": 0.4977272727272727,
                "end_time": 0.6295454545454545,
                "pitch": 69,
                "velocity": 51,
                "duration": 0.13181818181818183,
                "tempo": 120.0
            },
            {
                "start_time": 0.6454545454545454,
                "end_time": 0.7772727272727272,
                "pitch": 72,
                "velocity": 51,
                "duration": 0.13181818181818183,
                "tempo": 120.0
            },
            {
                "start_time": 0.7954545454545454,
                "end_time": 0.9272727272727272,
                "pitch": 74,
                "velocity": 51,
                "duration": 0.13181818181818183,
                "tempo": 120.0
            },
            {
                "start_time": 0.9431818181818181,
                "end_time": 1.075,
                "pitch": 62,
                "velocity": 51,
                "duration": 0.13181818181818183,
                "tempo": 120.0
            },
            {
                "start_time": 1.0909090909090908,
                "end_time": 1.2249999999999999,
                "pitch": 64,
                "velocity": 51,
                "duration": 0.13409090909090904,
                "tempo": 120.0
            },
            {
                "start_time": 1.2409090909090907,
                "end_time": 1.375,
                "pitch": 67,
                "velocity": 51,
                "duration": 0.13409090909090926,
                "tempo": 120.0
            },
            {
                "start_time": 1.3909090909090909,
                "end_time": 1.525,
                "pitch": 69,
                "velocity": 51,
                "duration": 0.13409090909090904,
                "tempo": 120.0
            },
            {
                "start_time": 1.5409090909090908,
                "end_time": 1.6749999999999998,
                "pitch": 72,
                "velocity": 51,
                "duration": 0.13409090909090904,
                "tempo": 120.0
            },
            {
                "start_time": 1.690909090909091,
                "end_time": 1.825,
                "pitch": 74,
                "velocity": 51,
                "duration": 0.13409090909090904,
                "tempo": 120.0
            },
            {
                "start_time": 1.8409090909090908,
                "end_time": 1.9749999999999999,
                "pitch": 62,
                "velocity": 51,
                "duration": 0.13409090909090904,
                "tempo": 120.0
            },
            {
                "start_time": 1.9931818181818182,
                "end_time": 2.127272727272727,
                "pitch": 64,
                "velocity": 51,
                "duration": 0.13409090909090882,
                "tempo": 120.0
            },
            {
                "start_time": 2.143181818181818,
                "end_time": 2.2795454545454543,
                "pitch": 67,
                "velocity": 51,
                "duration": 0.13636363636363624,
                "tempo": 120.0
            },
            {
                "start_time": 2.2954545454545454,
                "end_time": 2.4295454545454542,
                "pitch": 69,
                "velocity": 51,
                "duration": 0.13409090909090882,
                "tempo": 120.0
            },
            {
                "start_time": 2.4477272727272728,
                "end_time": 2.5795454545454546,
                "pitch": 72,
                "velocity": 51,
                "duration": 0.13181818181818183,
                "tempo": 120.0
            },
            {
                "start_time": 2.5977272727272727,
                "end_time": 2.7295454545454545,
                "pitch": 74,
                "velocity": 51,
                "duration": 0.13181818181818183,
                "tempo": 120.0
            },
            {
                "start_time": 2.7477272727272726,
                "end_time": 2.8795454545454544,
                "pitch": 62,
                "velocity": 51,
                "duration": 0.13181818181818183,
                "tempo": 120.0
            },
            {
                "start_time": 2.8977272727272725,
                "end_time": 3.0295454545454543,
                "pitch": 64,
                "velocity": 51,
                "duration": 0.13181818181818183,
                "tempo": 120.0
            },
            {
                "start_time": 3.0477272727272724,
                "end_time": 3.1818181818181817,
                "pitch": 67,
                "velocity": 51,
                "duration": 0.13409090909090926,
                "tempo": 120.0
            },
            {
                "start_time": 3.1977272727272728,
                "end_time": 3.334090909090909,
                "pitch": 69,
                "velocity": 51,
                "duration": 0.13636363636363624,
                "tempo": 120.0
            },
            {
                "start_time": 3.3499999999999996,
                "end_time": 3.484090909090909,
                "pitch": 72,
                "velocity": 51,
                "duration": 0.13409090909090926,
                "tempo": 120.0
            },
            {
                "start_time": 3.502272727272727,
                "end_time": 3.6363636363636362,
                "pitch": 74,
                "velocity": 51,
                "duration": 0.13409090909090926,
                "tempo": 120.0
            },
            {
                "start_time": 3.652272727272727,
                "end_time": 3.7886363636363636,
                "pitch": 62,
                "velocity": 51,
                "duration": 0.1363636363636367,
                "tempo": 120.0
            },
            {
                "start_time": 3.8045454545454542,
                "end_time": 3.9386363636363635,
                "pitch": 64,
                "velocity": 51,
                "duration": 0.13409090909090926,
                "tempo": 120.0
            },
            {
                "start_time": 3.9568181818181816,
                "end_time": 4.090909090909091,
                "pitch": 67,
                "velocity": 51,
                "duration": 0.13409090909090926,
                "tempo": 120.0
            },
            {
                "start_time": 4.1068181818181815,
                "end_time": 4.243181818181818,
                "pitch": 69,
                "velocity": 51,
                "duration": 0.1363636363636367,
                "tempo": 120.0
            },
            {
                "start_time": 4.259090909090909,
                "end_time": 4.393181818181818,
                "pitch": 72,
                "velocity": 51,
                "duration": 0.13409090909090882,
                "tempo": 120.0
            },
            {
                "start_time": 4.411363636363636,
                "end_time": 4.545454545454545,
                "pitch": 74,
                "velocity": 51,
                "duration": 0.13409090909090882,
                "tempo": 120.0
            },
            {
                "start_time": 4.5613636363636365,
                "end_time": 4.697727272727272,
                "pitch": 62,
                "velocity": 51,
                "duration": 0.1363636363636358,
                "tempo": 120.0
            },
            {
                "start_time": 4.713636363636364,
                "end_time": 4.847727272727273,
                "pitch": 64,
                "velocity": 51,
                "duration": 0.13409090909090882,
                "tempo": 120.0
            },
            {
                "start_time": 4.86590909090909,
                "end_time": 4.997727272727272,
                "pitch": 67,
                "velocity": 51,
                "duration": 0.13181818181818183,
                "tempo": 120.0
            },
            {
                "start_time": 5.015909090909091,
                "end_time": 5.1477272727272725,
                "pitch": 69,
                "velocity": 51,
                "duration": 0.13181818181818183,
                "tempo": 120.0
            },
            {
                "start_time": 5.165909090909091,
                "end_time": 5.297727272727273,
                "pitch": 72,
                "velocity": 51,
                "duration": 0.13181818181818183,
                "tempo": 120.0
            },
            {
                "start_time": 5.3159090909090905,
                "end_time": 5.447727272727272,
                "pitch": 74,
                "velocity": 51,
                "duration": 0.13181818181818183,
                "tempo": 120.0
            },
            {
                "start_time": 5.465909090909091,
                "end_time": 5.6,
                "pitch": 62,
                "velocity": 51,
                "duration": 0.13409090909090882,
                "tempo": 120.0
            },
            {
                "start_time": 5.61590909090909,
                "end_time": 5.752272727272727,
                "pitch": 64,
                "velocity": 51,
                "duration": 0.1363636363636367,
                "tempo": 120.0
            },
            {
                "start_time": 5.768181818181818,
                "end_time": 5.902272727272727,
                "pitch": 67,
                "velocity": 51,
                "duration": 0.1340909090909097,
                "tempo": 120.0
            },
            {
                "start_time": 5.920454545454545,
                "end_time": 6.054545454545455,
                "pitch": 69,
                "velocity": 51,
                "duration": 0.1340909090909097,
                "tempo": 120.0
            },
            {
                "start_time": 6.070454545454545,
                "end_time": 6.204545454545454,
                "pitch": 72,
                "velocity": 51,
                "duration": 0.13409090909090882,
                "tempo": 120.0
            },
            {
                "start_time": 6.220454545454545,
                "end_time": 6.3545454545454545,
                "pitch": 74,
                "velocity": 51,
                "duration": 0.1340909090909097,
                "tempo": 120.0
            },
            {
                "start_time": 6.370454545454545,
                "end_time": 6.504545454545454,
                "pitch": 62,
                "velocity": 51,
                "duration": 0.13409090909090882,
                "tempo": 120.0
            },
            {
                "start_time": 6.5204545454545455,
                "end_time": 6.654545454545454,
                "pitch": 64,
                "velocity": 51,
                "duration": 0.13409090909090882,
                "tempo": 120.0
            },
            {
                "start_time": 6.670454545454545,
                "end_time": 6.804545454545454,
                "pitch": 67,
                "velocity": 51,
                "duration": 0.13409090909090882,
                "tempo": 120.0
            },
            {
                "start_time": 6.820454545454545,
                "end_time": 6.954545454545454,
                "pitch": 69,
                "velocity": 51,
                "duration": 0.13409090909090882,
                "tempo": 120.0
            },
            {
                "start_time": 6.970454545454545,
                "end_time": 7.1045454545454545,
                "pitch": 72,
                "velocity": 51,
                "duration": 0.1340909090909097,
                "tempo": 120.0
            },
            {
                "start_time": 7.120454545454545,
                "end_time": 7.254545454545454,
                "pitch": 74,
                "velocity": 51,
                "duration": 0.13409090909090882,
                "tempo": 120.0
            },
            {
                "start_time": 7.2704545454545455,
                "end_time": 7.406818181818181,
                "pitch": 38,
                "velocity": 51,
                "duration": 0.1363636363636358,
                "tempo": 120.0
            },
            {
                "start_time": 7.422727272727272,
                "end_time": 7.556818181818182,
                "pitch": 38,
                "velocity": 51,
                "duration": 0.1340909090909097,
                "tempo": 120.0
            },
            {
                "start_time": 7.574999999999999,
                "end_time": 7.709090909090909,
                "pitch": 38,
                "velocity": 51,
                "duration": 0.1340909090909097,
                "tempo": 120.0
            },
            {
                "start_time": 7.725,
                "end_time": 7.861363636363636,
                "pitch": 38,
                "velocity": 51,
                "duration": 0.1363636363636367,
                "tempo": 120.0
            },
            {
                "start_time": 7.877272727272727,
                "end_time": 8.011363636363637,
                "pitch": 45,
                "velocity": 51,
                "duration": 0.1340909090909097,
                "tempo": 120.0
            },
            {
                "start_time": 8.027272727272727,
                "end_time": 8.161363636363635,
                "pitch": 38,
                "velocity": 51,
                "duration": 0.13409090909090793,
                "tempo": 120.0
            },
            {
                "start_time": 8.177272727272728,
                "end_time": 8.311363636363636,
                "pitch": 38,
                "velocity": 51,
                "duration": 0.13409090909090793,
                "tempo": 120.0
            },
            {
                "start_time": 8.327272727272726,
                "end_time": 8.461363636363636,
                "pitch": 38,
                "velocity": 51,
                "duration": 0.1340909090909097,
                "tempo": 120.0
            },
            {
                "start_time": 8.477272727272727,
                "end_time": 8.611363636363636,
                "pitch": 38,
                "velocity": 51,
                "duration": 0.1340909090909097,
                "tempo": 120.0
            },
            {
                "start_time": 8.629545454545454,
                "end_time": 8.763636363636364,
                "pitch": 38,
                "velocity": 51,
                "duration": 0.1340909090909097,
                "tempo": 120.0
            },
            {
                "start_time": 8.779545454545454,
                "end_time": 8.915909090909091,
                "pitch": 38,
                "velocity": 51,
                "duration": 0.1363636363636367,
                "tempo": 120.0
            },
            {
                "start_time": 8.931818181818182,
                "end_time": 9.06590909090909,
                "pitch": 38,
                "velocity": 51,
                "duration": 0.13409090909090793,
                "tempo": 120.0
            },
            {
                "start_time": 9.084090909090909,
                "end_time": 9.21590909090909,
                "pitch": 45,
                "velocity": 51,
                "duration": 0.13181818181818095,
                "tempo": 120.0
            },
            {
                "start_time": 9.23409090909091,
                "end_time": 9.36590909090909,
                "pitch": 38,
                "velocity": 51,
                "duration": 0.13181818181818095,
                "tempo": 120.0
            },
            {
                "start_time": 9.384090909090908,
                "end_time": 9.51590909090909,
                "pitch": 38,
                "velocity": 51,
                "duration": 0.13181818181818272,
                "tempo": 120.0
            },
            {
                "start_time": 9.534090909090908,
                "end_time": 9.665909090909091,
                "pitch": 38,
                "velocity": 51,
                "duration": 0.13181818181818272,
                "tempo": 120.0
            },
            {
                "start_time": 9.684090909090909,
                "end_time": 9.81590909090909,
                "pitch": 40,
                "velocity": 51,
                "duration": 0.13181818181818095,
                "tempo": 120.0
            },
            {
                "start_time": 9.834090909090909,
                "end_time": 9.96590909090909,
                "pitch": 40,
                "velocity": 51,
                "duration": 0.13181818181818095,
                "tempo": 120.0
            },
            {
                "start_time": 9.98409090909091,
                "end_time": 10.11590909090909,
                "pitch": 40,
                "velocity": 51,
                "duration": 0.13181818181818095,
                "tempo": 120.0
            },
            {
                "start_time": 10.134090909090908,
                "end_time": 10.26590909090909,
                "pitch": 40,
                "velocity": 51,
                "duration": 0.13181818181818272,
                "tempo": 120.0
            },
            {
                "start_time": 10.284090909090908,
                "end_time": 10.415909090909091,
                "pitch": 47,
                "velocity": 51,
                "duration": 0.13181818181818272,
                "tempo": 120.0
            },
            {
                "start_time": 10.434090909090909,
                "end_time": 10.56590909090909,
                "pitch": 40,
                "velocity": 51,
                "duration": 0.13181818181818095,
                "tempo": 120.0
            },
            {
                "start_time": 10.584090909090909,
                "end_time": 10.71590909090909,
                "pitch": 40,
                "velocity": 51,
                "duration": 0.13181818181818095,
                "tempo": 120.0
            },
            {
                "start_time": 10.73409090909091,
                "end_time": 10.86590909090909,
                "pitch": 40,
                "velocity": 51,
                "duration": 0.13181818181818095,
                "tempo": 120.0
            },
            {
                "start_time": 10.884090909090908,
                "end_time": 11.018181818181818,
                "pitch": 40,
                "velocity": 51,
                "duration": 0.1340909090909097,
                "tempo": 120.0
            },
            {
                "start_time": 11.034090909090908,
                "end_time": 11.170454545454545,
                "pitch": 40,
                "velocity": 51,
                "duration": 0.1363636363636367,
                "tempo": 120.0
            },
            {
                "start_time": 11.186363636363636,
                "end_time": 11.320454545454545,
                "pitch": 40,
                "velocity": 51,
                "duration": 0.1340909090909097,
                "tempo": 120.0
            },
            {
                "start_time": 11.338636363636363,
                "end_time": 11.472727272727273,
                "pitch": 40,
                "velocity": 51,
                "duration": 0.1340909090909097,
                "tempo": 120.0
            },
            {
                "start_time": 11.488636363636363,
                "end_time": 11.622727272727273,
                "pitch": 47,
                "velocity": 51,
                "duration": 0.1340909090909097,
                "tempo": 120.0
            },
            {
                "start_time": 11.638636363636364,
                "end_time": 11.772727272727272,
                "pitch": 40,
                "velocity": 51,
                "duration": 0.13409090909090793,
                "tempo": 120.0
            },
            {
                "start_time": 11.788636363636362,
                "end_time": 11.922727272727272,
                "pitch": 40,
                "velocity": 51,
                "duration": 0.1340909090909097,
                "tempo": 120.0
            },
            {
                "start_time": 11.938636363636363,
                "end_time": 12.072727272727272,
                "pitch": 43,
                "velocity": 51,
                "duration": 0.1340909090909097,
                "tempo": 120.0
            },
            {
                "start_time": 12.088636363636363,
                "end_time": 12.222727272727273,
                "pitch": 43,
                "velocity": 51,
                "duration": 0.1340909090909097,
                "tempo": 120.0
            },
            {
                "start_time": 12.238636363636363,
                "end_time": 12.372727272727271,
                "pitch": 43,
                "velocity": 51,
                "duration": 0.13409090909090793,
                "tempo": 120.0
            },
            {
                "start_time": 12.388636363636364,
                "end_time": 12.522727272727272,
                "pitch": 43,
                "velocity": 51,
                "duration": 0.13409090909090793,
                "tempo": 120.0
            },
            {
                "start_time": 12.538636363636362,
                "end_time": 12.672727272727272,
                "pitch": 50,
                "velocity": 51,
                "duration": 0.1340909090909097,
                "tempo": 120.0
            },
            {
                "start_time": 12.688636363636363,
                "end_time": 12.822727272727272,
                "pitch": 43,
                "velocity": 51,
                "duration": 0.1340909090909097,
                "tempo": 120.0
            },
            {
                "start_time": 12.838636363636363,
                "end_time": 12.972727272727273,
                "pitch": 43,
                "velocity": 51,
                "duration": 0.1340909090909097,
                "tempo": 120.0
            },
            {
                "start_time": 12.988636363636363,
                "end_time": 13.122727272727271,
                "pitch": 43,
                "velocity": 51,
                "duration": 0.13409090909090793,
                "tempo": 120.0
            },
            {
                "start_time": 13.138636363636364,
                "end_time": 13.272727272727272,
                "pitch": 43,
                "velocity": 51,
                "duration": 0.13409090909090793,
                "tempo": 120.0
            },
            {
                "start_time": 13.288636363636362,
                "end_time": 13.422727272727272,
                "pitch": 43,
                "velocity": 51,
                "duration": 0.1340909090909097,
                "tempo": 120.0
            },
            {
                "start_time": 13.438636363636363,
                "end_time": 13.572727272727272,
                "pitch": 43,
                "velocity": 51,
                "duration": 0.1340909090909097,
                "tempo": 120.0
            },
            {
                "start_time": 13.588636363636363,
                "end_time": 13.722727272727273,
                "pitch": 43,
                "velocity": 51,
                "duration": 0.1340909090909097,
                "tempo": 120.0
            },
            {
                "start_time": 13.738636363636363,
                "end_time": 13.872727272727271,
                "pitch": 50,
                "velocity": 51,
                "duration": 0.13409090909090793,
                "tempo": 120.0
            },
            {
                "start_time": 13.888636363636364,
                "end_time": 14.024999999999999,
                "pitch": 43,
                "velocity": 51,
                "duration": 0.1363636363636349,
                "tempo": 120.0
            },
            {
                "start_time": 14.040909090909091,
                "end_time": 14.174999999999999,
                "pitch": 43,
                "velocity": 51,
                "duration": 0.13409090909090793,
                "tempo": 120.0
            },
            {
                "start_time": 14.193181818181818,
                "end_time": 14.327272727272726,
                "pitch": 43,
                "velocity": 51,
                "duration": 0.13409090909090793,
                "tempo": 120.0
            },
            {
                "start_time": 14.343181818181817,
                "end_time": 14.479545454545454,
                "pitch": 45,
                "velocity": 51,
                "duration": 0.1363636363636367,
                "tempo": 120.0
            },
            {
                "start_time": 14.495454545454544,
                "end_time": 14.629545454545454,
                "pitch": 45,
                "velocity": 51,
                "duration": 0.1340909090909097,
                "tempo": 120.0
            },
            {
                "start_time": 14.645454545454545,
                "end_time": 14.779545454545454,
                "pitch": 45,
                "velocity": 51,
                "duration": 0.1340909090909097,
                "tempo": 120.0
            },
            {
                "start_time": 14.795454545454545,
                "end_time": 14.929545454545455,
                "pitch": 45,
                "velocity": 51,
                "duration": 0.1340909090909097,
                "tempo": 120.0
            },
            {
                "start_time": 14.945454545454545,
                "end_time": 15.079545454545453,
                "pitch": 52,
                "velocity": 51,
                "duration": 0.13409090909090793,
                "tempo": 120.0
            },
            {
                "start_time": 15.095454545454544,
                "end_time": 15.229545454545454,
                "pitch": 45,
                "velocity": 51,
                "duration": 0.1340909090909097,
                "tempo": 120.0
            },
            {
                "start_time": 15.245454545454544,
                "end_time": 15.379545454545454,
                "pitch": 45,
                "velocity": 51,
                "duration": 0.1340909090909097,
                "tempo": 120.0
            },
            {
                "start_time": 15.395454545454545,
                "end_time": 15.529545454545454,
                "pitch": 45,
                "velocity": 51,
                "duration": 0.1340909090909097,
                "tempo": 120.0
            },
            {
                "start_time": 15.545454545454545,
                "end_time": 15.679545454545453,
                "pitch": 45,
                "velocity": 51,
                "duration": 0.13409090909090793,
                "tempo": 120.0
            },
            {
                "start_time": 15.695454545454545,
                "end_time": 15.829545454545453,
                "pitch": 45,
                "velocity": 51,
                "duration": 0.13409090909090793,
                "tempo": 120.0
            },
            {
                "start_time": 15.845454545454544,
                "end_time": 15.979545454545454,
                "pitch": 45,
                "velocity": 51,
                "duration": 0.1340909090909097,
                "tempo": 120.0
            },
            {
                "start_time": 15.995454545454544,
                "end_time": 16.129545454545454,
                "pitch": 45,
                "velocity": 51,
                "duration": 0.1340909090909097,
                "tempo": 120.0
            },
            {
                "start_time": 16.145454545454545,
                "end_time": 16.279545454545453,
                "pitch": 52,
                "velocity": 51,
                "duration": 0.13409090909090793,
                "tempo": 120.0
            },
            {
                "start_time": 16.295454545454543,
                "end_time": 16.43181818181818,
                "pitch": 45,
                "velocity": 51,
                "duration": 0.1363636363636367,
                "tempo": 120.0
            },
            {
                "start_time": 16.45,
                "end_time": 16.584090909090907,
                "pitch": 45,
                "velocity": 51,
                "duration": 0.13409090909090793,
                "tempo": 120.0
            },
            {
                "start_time": 16.602272727272727,
                "end_time": 16.738636363636363,
                "pitch": 45,
                "velocity": 51,
                "duration": 0.1363636363636367,
                "tempo": 120.0
            }
        ]
    }
}