{
    "track_id": "Kenseiden (FM) - 02 - Higo, Nagato, Settsu, Owari and Echyu",
    "mood": "angry",
    "instruments": {
        "Harpsichord": [
            {
                "start_time": 0.0,
                "end_time": 1.093181818181818,
                "pitch": 33,
                "velocity": 64,
                "duration": 1.093181818181818,
                "tempo": 120.0
            },
            {
                "start_time": 1.1090909090909091,
                "end_time": 2.2977272727272724,
                "pitch": 45,
                "velocity": 64,
                "duration": 1.1886363636363633,
                "tempo": 120.0
            },
            {
                "start_time": 2.315909090909091,
                "end_time": 3.506818181818182,
                "pitch": 33,
                "velocity": 64,
                "duration": 1.190909090909091,
                "tempo": 120.0
            },
            {
                "start_time": 3.525,
                "end_time": 4.715909090909091,
                "pitch": 45,
                "velocity": 64,
                "duration": 1.190909090909091,
                "tempo": 120.0
            },
            {
                "start_time": 4.7340909090909085,
                "end_time": 5.922727272727273,
                "pitch": 35,
                "velocity": 64,
                "duration": 1.1886363636363644,
                "tempo": 120.0
            },
            {
                "start_time": 5.9386363636363635,
                "end_time": 7.129545454545454,
                "pitch": 47,
                "velocity": 64,
                "duration": 1.1909090909090905,
                "tempo": 120.0
            },
            {
                "start_time": 7.1454545454545455,
                "end_time": 8.331818181818182,
                "pitch": 35,
                "velocity": 64,
                "duration": 1.1863636363636365,
                "tempo": 120.0
            },
            {
                "start_time": 8.347727272727273,
                "end_time": 9.534090909090908,
                "pitch": 47,
                "velocity": 64,
                "duration": 1.1863636363636356,
                "tempo": 120.0
            },
            {
                "start_time": 9.552272727272728,
                "end_time": 10.738636363636363,
                "pitch": 33,
                "velocity": 64,
                "duration": 1.1863636363636356,
                "tempo": 120.0
            },
            {
                "start_time": 10.754545454545454,
                "end_time": 11.938636363636363,
                "pitch": 45,
                "velocity": 64,
                "duration": 1.1840909090909086,
                "tempo": 120.0
            },
            {
                "start_time": 11.954545454545453,
                "end_time": 13.143181818181818,
                "pitch": 33,
                "velocity": 64,
                "duration": 1.1886363636363644,
                "tempo": 120.0
            },
            {
                "start_time": 13.161363636363635,
                "end_time": 14.343181818181817,
                "pitch": 45,
                "velocity": 64,
                "duration": 1.1818181818181817,
                "tempo": 120.0
            },
            {
                "start_time": 14.361363636363636,
                "end_time": 15.547727272727272,
                "pitch": 35,
                "velocity": 64,
                "duration": 1.1863636363636356,
                "tempo": 120.0
            },
            {
                "start_time": 15.563636363636363,
                "end_time": 16.75,
                "pitch": 47,
                "velocity": 64,
                "duration": 1.1863636363636374,
                "tempo": 120.0
            },
            {
                "start_time": 16.76590909090909,
                "end_time": 17.956818181818182,
                "pitch": 35,
                "velocity": 64,
                "duration": 1.1909090909090914,
                "tempo": 120.0
            },
            {
                "start_time": 17.972727272727273,
                "end_time": 19.161363636363635,
                "pitch": 47,
                "velocity": 64,
                "duration": 1.1886363636363626,
                "tempo": 120.0
            },
            {
                "start_time": 19.179545454545455,
                "end_time": 19.311363636363634,
                "pitch": 40,
                "velocity": 64,
                "duration": 0.13181818181817917,
                "tempo": 120.0
            },
            {
                "start_time": 19.329545454545453,
                "end_time": 19.461363636363636,
                "pitch": 41,
                "velocity": 64,
                "duration": 0.13181818181818272,
                "tempo": 120.0
            },
            {
                "start_time": 19.479545454545452,
                "end_time": 19.613636363636363,
                "pitch": 52,
                "velocity": 64,
                "duration": 0.13409090909091148,
                "tempo": 120.0
            },
            {
                "start_time": 19.629545454545454,
                "end_time": 19.76590909090909,
                "pitch": 53,
                "velocity": 64,
                "duration": 0.1363636363636367,
                "tempo": 120.0
            },
            {
                "start_time": 19.78181818181818,
                "end_time": 19.91590909090909,
                "pitch": 55,
                "velocity": 64,
                "duration": 0.13409090909090793,
                "tempo": 120.0
            },
            {
                "start_time": 19.93409090909091,
                "end_time": 20.068181818181817,
                "pitch": 57,
                "velocity": 64,
                "duration": 0.13409090909090793,
                "tempo": 120.0
            },
            {
                "start_time": 20.084090909090907,
                "end_time": 20.220454545454544,
                "pitch": 40,
                "velocity": 64,
                "duration": 0.1363636363636367,
                "tempo": 120.0
            },
            {
                "start_time": 20.236363636363635,
                "end_time": 20.370454545454546,
                "pitch": 41,
                "velocity": 64,
                "duration": 0.13409090909091148,
                "tempo": 120.0
            },
            {
                "start_time": 20.388636363636362,
                "end_time": 20.522727272727273,
                "pitch": 52,
                "velocity": 64,
                "duration": 0.13409090909091148,
                "tempo": 120.0
            },
            {
                "start_time": 20.538636363636364,
                "end_time": 20.675,
                "pitch": 53,
                "velocity": 64,
                "duration": 0.1363636363636367,
                "tempo": 120.0
            },
            {
                "start_time": 20.69090909090909,
                "end_time": 20.825,
                "pitch": 55,
                "velocity": 64,
                "duration": 0.13409090909090793,
                "tempo": 120.0
            },
            {
                "start_time": 20.84090909090909,
                "end_time": 20.974999999999998,
                "pitch": 57,
                "velocity": 64,
                "duration": 0.13409090909090793,
                "tempo": 120.0
            },
            {
                "start_time": 20.99090909090909,
                "end_time": 21.125,
                "pitch": 38,
                "velocity": 64,
                "duration": 0.13409090909091148,
                "tempo": 120.0
            },
            {
                "start_time": 21.14090909090909,
                "end_time": 21.275,
                "pitch": 40,
                "velocity": 64,
                "duration": 0.13409090909090793,
                "tempo": 120.0
            },
            {
                "start_time": 21.29090909090909,
                "end_time": 21.425,
                "pitch": 50,
                "velocity": 64,
                "duration": 0.13409090909091148,
                "tempo": 120.0
            },
            {
                "start_time": 21.443181818181817,
                "end_time": 21.577272727272724,
                "pitch": 52,
                "velocity": 64,
                "duration": 0.13409090909090793,
                "tempo": 120.0
            },
            {
                "start_time": 21.59318181818182,
                "end_time": 21.729545454545452,
                "pitch": 53,
                "velocity": 64,
                "duration": 0.13636363636363313,
                "tempo": 120.0
            },
            {
                "start_time": 21.745454545454546,
                "end_time": 21.879545454545454,
                "pitch": 55,
                "velocity": 64,
                "duration": 0.13409090909090793,
                "tempo": 120.0
            },
            {
                "start_time": 21.897727272727273,
                "end_time": 22.03181818181818,
                "pitch": 38,
                "velocity": 64,
                "duration": 0.13409090909090793,
                "tempo": 120.0
            },
            {
                "start_time": 22.049999999999997,
                "end_time": 22.186363636363634,
                "pitch": 40,
                "velocity": 64,
                "duration": 0.1363636363636367,
                "tempo": 120.0
            },
            {
                "start_time": 22.202272727272724,
                "end_time": 22.33863636363636,
                "pitch": 50,
                "velocity": 64,
                "duration": 0.1363636363636367,
                "tempo": 120.0
            },
            {
                "start_time": 22.35681818181818,
                "end_time": 22.493181818181817,
                "pitch": 52,
                "velocity": 64,
                "duration": 0.1363636363636367,
                "tempo": 120.0
            },
            {
                "start_time": 22.509090909090908,
                "end_time": 22.64090909090909,
                "pitch": 53,
                "velocity": 64,
                "duration": 0.13181818181818272,
                "tempo": 120.0
            },
            {
                "start_time": 22.65681818181818,
                "end_time": 22.788636363636364,
                "pitch": 55,
                "velocity": 64,
                "duration": 0.13181818181818272,
                "tempo": 120.0
            },
            {
                "start_time": 22.80681818181818,
                "end_time": 22.938636363636363,
                "pitch": 40,
                "velocity": 64,
                "duration": 0.13181818181818272,
                "tempo": 120.0
            },
            {
                "start_time": 22.954545454545453,
                "end_time": 23.086363636363636,
                "pitch": 41,
                "velocity": 64,
                "duration": 0.13181818181818272,
                "tempo": 120.0
            },
            {
                "start_time": 23.102272727272727,
                "end_time": 23.238636363636363,
                "pitch": 52,
                "velocity": 64,
                "duration": 0.1363636363636367,
                "tempo": 120.0
            },
            {
                "start_time": 23.254545454545454,
                "end_time": 23.388636363636362,
                "pitch": 53,
                "velocity": 64,
                "duration": 0.13409090909090793,
                "tempo": 120.0
            },
            {
                "start_time": 23.40681818181818,
                "end_time": 23.54090909090909,
                "pitch": 55,
                "velocity": 64,
                "duration": 0.13409090909090793,
                "tempo": 120.0
            },
            {
                "start_time": 23.55681818181818,
                "end_time": 23.693181818181817,
                "pitch": 57,
                "velocity": 64,
                "duration": 0.1363636363636367,
                "tempo": 120.0
            },
            {
                "start_time": 23.709090909090907,
                "end_time": 23.84318181818182,
                "pitch": 40,
                "velocity": 64,
                "duration": 0.13409090909091148,
                "tempo": 120.0
            },
            {
                "start_time": 23.85909090909091,
                "end_time": 23.993181818181817,
                "pitch": 41,
                "velocity": 64,
                "duration": 0.13409090909090793,
                "tempo": 120.0
            },
            {
                "start_time": 24.009090909090908,
                "end_time": 24.143181818181816,
                "pitch": 52,
                "velocity": 64,
                "duration": 0.13409090909090793,
                "tempo": 120.0
            },
            {
                "start_time": 24.159090909090907,
                "end_time": 24.293181818181818,
                "pitch": 53,
                "velocity": 64,
                "duration": 0.13409090909091148,
                "tempo": 120.0
            },
            {
                "start_time": 24.30909090909091,
                "end_time": 24.443181818181817,
                "pitch": 55,
                "velocity": 64,
                "duration": 0.13409090909090793,
                "tempo": 120.0
            },
            {
                "start_time": 24.461363636363636,
                "end_time": 24.595454545454544,
                "pitch": 57,
                "velocity": 64,
                "duration": 0.13409090909090793,
                "tempo": 120.0
            },
            {
                "start_time": 24.611363636363635,
                "end_time": 24.74772727272727,
                "pitch": 38,
                "velocity": 64,
                "duration": 0.1363636363636367,
                "tempo": 120.0
            },
            {
                "start_time": 24.763636363636362,
                "end_time": 24.89772727272727,
                "pitch": 40,
                "velocity": 64,
                "duration": 0.13409090909090793,
                "tempo": 120.0
            },
            {
                "start_time": 24.91590909090909,
                "end_time": 25.047727272727272,
                "pitch": 50,
                "velocity": 64,
                "duration": 0.13181818181818272,
                "tempo": 120.0
            },
            {
                "start_time": 25.06590909090909,
                "end_time": 25.19772727272727,
                "pitch": 52,
                "velocity": 64,
                "duration": 0.13181818181817917,
                "tempo": 120.0
            },
            {
                "start_time": 25.21590909090909,
                "end_time": 25.347727272727273,
                "pitch": 53,
                "velocity": 64,
                "duration": 0.13181818181818272,
                "tempo": 120.0
            },
            {
                "start_time": 25.36590909090909,
                "end_time": 25.49772727272727,
                "pitch": 55,
                "velocity": 64,
                "duration": 0.13181818181818272,
                "tempo": 120.0
            },
            {
                "start_time": 25.51590909090909,
                "end_time": 25.652272727272727,
                "pitch": 38,
                "velocity": 64,
                "duration": 0.1363636363636367,
                "tempo": 120.0
            },
            {
                "start_time": 25.668181818181818,
                "end_time": 25.804545454545455,
                "pitch": 40,
                "velocity": 64,
                "duration": 0.1363636363636367,
                "tempo": 120.0
            },
            {
                "start_time": 25.820454545454545,
                "end_time": 25.956818181818182,
                "pitch": 50,
                "velocity": 64,
                "duration": 0.1363636363636367,
                "tempo": 120.0
            },
            {
                "start_time": 25.974999999999998,
                "end_time": 26.111363636363635,
                "pitch": 52,
                "velocity": 64,
                "duration": 0.1363636363636367,
                "tempo": 120.0
            },
            {
                "start_time": 26.127272727272725,
                "end_time": 26.259090909090908,
                "pitch": 53,
                "velocity": 64,
                "duration": 0.13181818181818272,
                "tempo": 120.0
            },
            {
                "start_time": 26.275,
                "end_time": 26.40681818181818,
                "pitch": 55,
                "velocity": 64,
                "duration": 0.13181818181818272,
                "tempo": 120.0
            }
        ],
        "Flute": [
            {
                "start_time": 0.0,
                "end_time": 0.022727272727272728,
                "pitch": 45,
                "velocity": 64,
                "duration": 0.022727272727272728,
                "tempo": 120.0
            },
            {
                "start_time": 0.03409090909090909,
                "end_time": 0.12272727272727273,
                "pitch": 69,
                "velocity": 64,
                "duration": 0.08863636363636364,
                "tempo": 120.0
            },
            {
                "start_time": 0.1340909090909091,
                "end_time": 0.23409090909090907,
                "pitch": 88,
                "velocity": 64,
                "duration": 0.09999999999999998,
                "tempo": 120.0
            },
            {
                "start_time": 0.25,
                "end_time": 0.3840909090909091,
                "pitch": 86,
                "velocity": 64,
                "duration": 0.1340909090909091,
                "tempo": 120.0
            },
            {
                "start_time": 0.4022727272727272,
                "end_time": 0.5363636363636364,
                "pitch": 83,
                "velocity": 64,
                "duration": 0.13409090909090915,
                "tempo": 120.0
            },
            {
                "start_time": 0.5545454545454546,
                "end_time": 0.6886363636363636,
                "pitch": 81,
                "velocity": 64,
                "duration": 0.13409090909090904,
                "tempo": 120.0
            },
            {
                "start_time": 0.7045454545454545,
                "end_time": 0.8386363636363636,
                "pitch": 83,
                "velocity": 64,
                "duration": 0.13409090909090915,
                "tempo": 120.0
            },
            {
                "start_time": 0.8568181818181818,
                "end_time": 0.9909090909090909,
                "pitch": 76,
                "velocity": 64,
                "duration": 0.13409090909090904,
                "tempo": 120.0
            },
            {
                "start_time": 1.009090909090909,
                "end_time": 1.143181818181818,
                "pitch": 77,
                "velocity": 64,
                "duration": 0.13409090909090904,
                "tempo": 120.0
            },
            {
                "start_time": 1.159090909090909,
                "end_time": 1.2931818181818182,
                "pitch": 69,
                "velocity": 64,
                "duration": 0.13409090909090926,
                "tempo": 120.0
            },
            {
                "start_time": 1.3113636363636363,
                "end_time": 1.4454545454545453,
                "pitch": 76,
                "velocity": 64,
                "duration": 0.13409090909090904,
                "tempo": 120.0
            },
            {
                "start_time": 1.4613636363636362,
                "end_time": 1.5954545454545455,
                "pitch": 77,
                "velocity": 64,
                "duration": 0.13409090909090926,
                "tempo": 120.0
            },
            {
                "start_time": 1.6113636363636363,
                "end_time": 1.7454545454545454,
                "pitch": 81,
                "velocity": 64,
                "duration": 0.13409090909090904,
                "tempo": 120.0
            },
            {
                "start_time": 1.7613636363636362,
                "end_time": 1.8954545454545453,
                "pitch": 83,
                "velocity": 64,
                "duration": 0.13409090909090904,
                "tempo": 120.0
            },
            {
                "start_time": 1.9113636363636364,
                "end_time": 2.0454545454545454,
                "pitch": 81,
                "velocity": 64,
                "duration": 0.13409090909090904,
                "tempo": 120.0
            },
            {
                "start_time": 2.0636363636363635,
                "end_time": 2.1977272727272728,
                "pitch": 76,
                "velocity": 64,
                "duration": 0.13409090909090926,
                "tempo": 120.0
            },
            {
                "start_time": 2.2136363636363634,
                "end_time": 2.3477272727272727,
                "pitch": 77,
                "velocity": 64,
                "duration": 0.13409090909090926,
                "tempo": 120.0
            },
            {
                "start_time": 2.3659090909090907,
                "end_time": 2.5,
                "pitch": 69,
                "velocity": 64,
                "duration": 0.13409090909090926,
                "tempo": 120.0
            },
            {
                "start_time": 2.518181818181818,
                "end_time": 2.6522727272727273,
                "pitch": 88,
                "velocity": 64,
                "duration": 0.13409090909090926,
                "tempo": 120.0
            },
            {
                "start_time": 2.668181818181818,
                "end_time": 2.8022727272727272,
                "pitch": 86,
                "velocity": 64,
                "duration": 0.13409090909090926,
                "tempo": 120.0
            },
            {
                "start_time": 2.8204545454545453,
                "end_time": 2.9545454545454546,
                "pitch": 83,
                "velocity": 64,
                "duration": 0.13409090909090926,
                "tempo": 120.0
            },
            {
                "start_time": 2.9727272727272727,
                "end_time": 3.1068181818181815,
                "pitch": 81,
                "velocity": 64,
                "duration": 0.13409090909090882,
                "tempo": 120.0
            },
            {
                "start_time": 3.1227272727272726,
                "end_time": 3.256818181818182,
                "pitch": 83,
                "velocity": 64,
                "duration": 0.13409090909090926,
                "tempo": 120.0
            },
            {
                "start_time": 3.275,
                "end_time": 3.4068181818181817,
                "pitch": 76,
                "velocity": 64,
                "duration": 0.13181818181818183,
                "tempo": 120.0
            },
            {
                "start_time": 3.425,
                "end_time": 3.5568181818181817,
                "pitch": 77,
                "velocity": 64,
                "duration": 0.13181818181818183,
                "tempo": 120.0
            },
            {
                "start_time": 3.5749999999999997,
                "end_time": 3.7068181818181816,
                "pitch": 69,
                "velocity": 64,
                "duration": 0.13181818181818183,
                "tempo": 120.0
            },
            {
                "start_time": 3.7249999999999996,
                "end_time": 3.8568181818181815,
                "pitch": 76,
                "velocity": 64,
                "duration": 0.13181818181818183,
                "tempo": 120.0
            },
            {
                "start_time": 3.875,
                "end_time": 4.009090909090909,
                "pitch": 77,
                "velocity": 64,
                "duration": 0.13409090909090882,
                "tempo": 120.0
            },
            {
                "start_time": 4.027272727272727,
                "end_time": 4.161363636363636,
                "pitch": 81,
                "velocity": 64,
                "duration": 0.13409090909090882,
                "tempo": 120.0
            },
            {
                "start_time": 4.177272727272727,
                "end_time": 4.3113636363636365,
                "pitch": 83,
                "velocity": 64,
                "duration": 0.1340909090909097,
                "tempo": 120.0
            },
            {
                "start_time": 4.329545454545454,
                "end_time": 4.463636363636364,
                "pitch": 81,
                "velocity": 64,
                "duration": 0.1340909090909097,
                "tempo": 120.0
            },
            {
                "start_time": 4.4818181818181815,
                "end_time": 4.61590909090909,
                "pitch": 77,
                "velocity": 64,
                "duration": 0.13409090909090882,
                "tempo": 120.0
            },
            {
                "start_time": 4.631818181818182,
                "end_time": 4.765909090909091,
                "pitch": 76,
                "velocity": 64,
                "duration": 0.13409090909090882,
                "tempo": 120.0
            },
            {
                "start_time": 4.784090909090909,
                "end_time": 4.918181818181818,
                "pitch": 71,
                "velocity": 64,
                "duration": 0.13409090909090882,
                "tempo": 120.0
            },
            {
                "start_time": 4.9363636363636365,
                "end_time": 5.070454545454545,
                "pitch": 76,
                "velocity": 64,
                "duration": 0.13409090909090882,
                "tempo": 120.0
            },
            {
                "start_time": 5.086363636363636,
                "end_time": 5.220454545454545,
                "pitch": 77,
                "velocity": 64,
                "duration": 0.13409090909090882,
                "tempo": 120.0
            },
            {
                "start_time": 5.236363636363636,
                "end_time": 5.370454545454545,
                "pitch": 71,
                "velocity": 64,
                "duration": 0.13409090909090882,
                "tempo": 120.0
            },
            {
                "start_time": 5.386363636363636,
                "end_time": 5.5204545454545455,
                "pitch": 83,
                "velocity": 64,
                "duration": 0.1340909090909097,
                "tempo": 120.0
            },
            {
                "start_time": 5.536363636363636,
                "end_time": 5.670454545454545,
                "pitch": 81,
                "velocity": 64,
                "duration": 0.13409090909090882,
                "tempo": 120.0
            },
            {
                "start_time": 5.6863636363636365,
                "end_time": 5.820454545454545,
                "pitch": 71,
                "velocity": 64,
                "duration": 0.13409090909090882,
                "tempo": 120.0
            },
            {
                "start_time": 5.838636363636363,
                "end_time": 5.972727272727273,
                "pitch": 76,
                "velocity": 64,
                "duration": 0.1340909090909097,
                "tempo": 120.0
            },
            {
                "start_time": 5.99090909090909,
                "end_time": 6.125,
                "pitch": 77,
                "velocity": 64,
                "duration": 0.1340909090909097,
                "tempo": 120.0
            },
            {
                "start_time": 6.140909090909091,
                "end_time": 6.2749999999999995,
                "pitch": 71,
                "velocity": 64,
                "duration": 0.13409090909090882,
                "tempo": 120.0
            },
            {
                "start_time": 6.293181818181818,
                "end_time": 6.425,
                "pitch": 84,
                "velocity": 64,
                "duration": 0.13181818181818183,
                "tempo": 120.0
            },
            {
                "start_time": 6.4431818181818175,
                "end_time": 6.574999999999999,
                "pitch": 83,
                "velocity": 64,
                "duration": 0.13181818181818183,
                "tempo": 120.0
            },
            {
                "start_time": 6.593181818181818,
                "end_time": 6.725,
                "pitch": 81,
                "velocity": 64,
                "duration": 0.13181818181818183,
                "tempo": 120.0
            },
            {
                "start_time": 6.743181818181818,
                "end_time": 6.875,
                "pitch": 83,
                "velocity": 64,
                "duration": 0.13181818181818183,
                "tempo": 120.0
            },
            {
                "start_time": 6.893181818181818,
                "end_time": 7.027272727272727,
                "pitch": 84,
                "velocity": 64,
                "duration": 0.1340909090909097,
                "tempo": 120.0
            },
            {
                "start_time": 7.045454545454545,
                "end_time": 7.179545454545454,
                "pitch": 83,
                "velocity": 64,
                "duration": 0.13409090909090882,
                "tempo": 120.0
            },
            {
                "start_time": 7.195454545454545,
                "end_time": 7.329545454545454,
                "pitch": 71,
                "velocity": 64,
                "duration": 0.13409090909090882,
                "tempo": 120.0
            },
            {
                "start_time": 7.347727272727273,
                "end_time": 7.4818181818181815,
                "pitch": 76,
                "velocity": 64,
                "duration": 0.13409090909090882,
                "tempo": 120.0
            },
            {
                "start_time": 7.497727272727272,
                "end_time": 7.631818181818182,
                "pitch": 77,
                "velocity": 64,
                "duration": 0.1340909090909097,
                "tempo": 120.0
            },
            {
                "start_time": 7.6477272727272725,
                "end_time": 7.781818181818181,
                "pitch": 71,
                "velocity": 64,
                "duration": 0.13409090909090882,
                "tempo": 120.0
            },
            {
                "start_time": 7.797727272727272,
                "end_time": 7.931818181818182,
                "pitch": 83,
                "velocity": 64,
                "duration": 0.1340909090909097,
                "tempo": 120.0
            },
            {
                "start_time": 7.947727272727272,
                "end_time": 8.081818181818182,
                "pitch": 81,
                "velocity": 64,
                "duration": 0.1340909090909097,
                "tempo": 120.0
            },
            {
                "start_time": 8.097727272727273,
                "end_time": 8.23181818181818,
                "pitch": 71,
                "velocity": 64,
                "duration": 0.13409090909090793,
                "tempo": 120.0
            },
            {
                "start_time": 8.247727272727273,
                "end_time": 8.381818181818181,
                "pitch": 76,
                "velocity": 64,
                "duration": 0.13409090909090793,
                "tempo": 120.0
            },
            {
                "start_time": 8.397727272727272,
                "end_time": 8.531818181818181,
                "pitch": 77,
                "velocity": 64,
                "duration": 0.1340909090909097,
                "tempo": 120.0
            },
            {
                "start_time": 8.547727272727272,
                "end_time": 8.681818181818182,
                "pitch": 71,
                "velocity": 64,
                "duration": 0.1340909090909097,
                "tempo": 120.0
            },
            {
                "start_time": 8.697727272727272,
                "end_time": 8.831818181818182,
                "pitch": 84,
                "velocity": 64,
                "duration": 0.1340909090909097,
                "tempo": 120.0
            },
            {
                "start_time": 8.847727272727273,
                "end_time": 8.98181818181818,
                "pitch": 83,
                "velocity": 64,
                "duration": 0.13409090909090793,
                "tempo": 120.0
            },
            {
                "start_time": 8.997727272727273,
                "end_time": 9.131818181818181,
                "pitch": 81,
                "velocity": 64,
                "duration": 0.13409090909090793,
                "tempo": 120.0
            },
            {
                "start_time": 9.147727272727272,
                "end_time": 9.281818181818181,
                "pitch": 83,
                "velocity": 64,
                "duration": 0.1340909090909097,
                "tempo": 120.0
            },
            {
                "start_time": 9.299999999999999,
                "end_time": 9.434090909090909,
                "pitch": 84,
                "velocity": 64,
                "duration": 0.1340909090909097,
                "tempo": 120.0
            },
            {
                "start_time": 9.45,
                "end_time": 9.584090909090909,
                "pitch": 83,
                "velocity": 64,
                "duration": 0.1340909090909097,
                "tempo": 120.0
            },
            {
                "start_time": 9.602272727272727,
                "end_time": 9.736363636363636,
                "pitch": 69,
                "velocity": 64,
                "duration": 0.1340909090909097,
                "tempo": 120.0
            },
            {
                "start_time": 9.754545454545454,
                "end_time": 9.888636363636364,
                "pitch": 88,
                "velocity": 64,
                "duration": 0.1340909090909097,
                "tempo": 120.0
            },
            {
                "start_time": 9.904545454545454,
                "end_time": 10.038636363636364,
                "pitch": 86,
                "velocity": 64,
                "duration": 0.1340909090909097,
                "tempo": 120.0
            },
            {
                "start_time": 10.054545454545455,
                "end_time": 10.188636363636363,
                "pitch": 83,
                "velocity": 64,
                "duration": 0.13409090909090793,
                "tempo": 120.0
            },
            {
                "start_time": 10.204545454545453,
                "end_time": 10.338636363636363,
                "pitch": 81,
                "velocity": 64,
                "duration": 0.1340909090909097,
                "tempo": 120.0
            },
            {
                "start_time": 10.354545454545454,
                "end_time": 10.488636363636363,
                "pitch": 83,
                "velocity": 64,
                "duration": 0.1340909090909097,
                "tempo": 120.0
            },
            {
                "start_time": 10.504545454545454,
                "end_time": 10.638636363636364,
                "pitch": 76,
                "velocity": 64,
                "duration": 0.1340909090909097,
                "tempo": 120.0
            },
            {
                "start_time": 10.654545454545454,
                "end_time": 10.788636363636362,
                "pitch": 77,
                "velocity": 64,
                "duration": 0.13409090909090793,
                "tempo": 120.0
            },
            {
                "start_time": 10.804545454545455,
                "end_time": 10.938636363636363,
                "pitch": 69,
                "velocity": 64,
                "duration": 0.13409090909090793,
                "tempo": 120.0
            },
            {
                "start_time": 10.954545454545453,
                "end_time": 11.088636363636363,
                "pitch": 76,
                "velocity": 64,
                "duration": 0.1340909090909097,
                "tempo": 120.0
            },
            {
                "start_time": 11.104545454545454,
                "end_time": 11.238636363636363,
                "pitch": 77,
                "velocity": 64,
                "duration": 0.1340909090909097,
                "tempo": 120.0
            },
            {
                "start_time": 11.254545454545454,
                "end_time": 11.388636363636364,
                "pitch": 79,
                "velocity": 64,
                "duration": 0.1340909090909097,
                "tempo": 120.0
            },
            {
                "start_time": 11.404545454545454,
                "end_time": 11.538636363636362,
                "pitch": 83,
                "velocity": 64,
                "duration": 0.13409090909090793,
                "tempo": 120.0
            },
            {
                "start_time": 11.554545454545455,
                "end_time": 11.688636363636363,
                "pitch": 81,
                "velocity": 64,
                "duration": 0.13409090909090793,
                "tempo": 120.0
            },
            {
                "start_time": 11.704545454545453,
                "end_time": 11.838636363636363,
                "pitch": 76,
                "velocity": 64,
                "duration": 0.1340909090909097,
                "tempo": 120.0
            },
            {
                "start_time": 11.854545454545454,
                "end_time": 11.988636363636363,
                "pitch": 77,
                "velocity": 64,
                "duration": 0.1340909090909097,
                "tempo": 120.0
            },
            {
                "start_time": 12.004545454545454,
                "end_time": 12.138636363636364,
                "pitch": 69,
                "velocity": 64,
                "duration": 0.1340909090909097,
                "tempo": 120.0
            },
            {
                "start_time": 12.154545454545454,
                "end_time": 12.288636363636362,
                "pitch": 88,
                "velocity": 64,
                "duration": 0.13409090909090793,
                "tempo": 120.0
            },
            {
                "start_time": 12.304545454545455,
                "end_time": 12.438636363636363,
                "pitch": 86,
                "velocity": 64,
                "duration": 0.13409090909090793,
                "tempo": 120.0
            },
            {
                "start_time": 12.456818181818182,
                "end_time": 12.59090909090909,
                "pitch": 83,
                "velocity": 64,
                "duration": 0.13409090909090793,
                "tempo": 120.0
            },
            {
                "start_time": 12.60909090909091,
                "end_time": 12.743181818181817,
                "pitch": 81,
                "velocity": 64,
                "duration": 0.13409090909090793,
                "tempo": 120.0
            },
            {
                "start_time": 12.759090909090908,
                "end_time": 12.893181818181818,
                "pitch": 83,
                "velocity": 64,
                "duration": 0.1340909090909097,
                "tempo": 120.0
            },
            {
                "start_time": 12.911363636363635,
                "end_time": 13.043181818181818,
                "pitch": 76,
                "velocity": 64,
                "duration": 0.13181818181818272,
                "tempo": 120.0
            },
            {
                "start_time": 13.061363636363636,
                "end_time": 13.193181818181818,
                "pitch": 77,
                "velocity": 64,
                "duration": 0.13181818181818272,
                "tempo": 120.0
            },
            {
                "start_time": 13.211363636363636,
                "end_time": 13.343181818181817,
                "pitch": 69,
                "velocity": 64,
                "duration": 0.13181818181818095,
                "tempo": 120.0
            },
            {
                "start_time": 13.361363636363636,
                "end_time": 13.493181818181817,
                "pitch": 76,
                "velocity": 64,
                "duration": 0.13181818181818095,
                "tempo": 120.0
            },
            {
                "start_time": 13.511363636363635,
                "end_time": 13.643181818181818,
                "pitch": 77,
                "velocity": 64,
                "duration": 0.13181818181818272,
                "tempo": 120.0
            },
            {
                "start_time": 13.661363636363635,
                "end_time": 13.793181818181818,
                "pitch": 69,
                "velocity": 64,
                "duration": 0.13181818181818272,
                "tempo": 120.0
            },
            {
                "start_time": 13.811363636363636,
                "end_time": 13.943181818181818,
                "pitch": 83,
                "velocity": 64,
                "duration": 0.13181818181818272,
                "tempo": 120.0
            },
            {
                "start_time": 13.961363636363636,
                "end_time": 14.093181818181817,
                "pitch": 81,
                "velocity": 64,
                "duration": 0.13181818181818095,
                "tempo": 120.0
            },
            {
                "start_time": 14.111363636363636,
                "end_time": 14.243181818181817,
                "pitch": 76,
                "velocity": 64,
                "duration": 0.13181818181818095,
                "tempo": 120.0
            },
            {
                "start_time": 14.261363636363635,
                "end_time": 14.393181818181818,
                "pitch": 77,
                "velocity": 64,
                "duration": 0.13181818181818272,
                "tempo": 120.0
            },
            {
                "start_time": 14.411363636363635,
                "end_time": 14.543181818181818,
                "pitch": 71,
                "velocity": 64,
                "duration": 0.13181818181818272,
                "tempo": 120.0
            },
            {
                "start_time": 14.561363636363636,
                "end_time": 14.693181818181818,
                "pitch": 76,
                "velocity": 64,
                "duration": 0.13181818181818272,
                "tempo": 120.0
            },
            {
                "start_time": 14.711363636363636,
                "end_time": 14.843181818181817,
                "pitch": 77,
                "velocity": 64,
                "duration": 0.13181818181818095,
                "tempo": 120.0
            },
            {
                "start_time": 14.861363636363636,
                "end_time": 14.993181818181817,
                "pitch": 71,
                "velocity": 64,
                "duration": 0.13181818181818095,
                "tempo": 120.0
            },
            {
                "start_time": 15.011363636363635,
                "end_time": 15.143181818181818,
                "pitch": 84,
                "velocity": 64,
                "duration": 0.13181818181818272,
                "tempo": 120.0
            },
            {
                "start_time": 15.161363636363635,
                "end_time": 15.293181818181818,
                "pitch": 83,
                "velocity": 64,
                "duration": 0.13181818181818272,
                "tempo": 120.0
            },
            {
                "start_time": 15.311363636363636,
                "end_time": 15.445454545454545,
                "pitch": 81,
                "velocity": 64,
                "duration": 0.1340909090909097,
                "tempo": 120.0
            },
            {
                "start_time": 15.463636363636363,
                "end_time": 15.597727272727273,
                "pitch": 83,
                "velocity": 64,
                "duration": 0.1340909090909097,
                "tempo": 120.0
            },
            {
                "start_time": 15.613636363636363,
                "end_time": 15.747727272727271,
                "pitch": 71,
                "velocity": 64,
                "duration": 0.13409090909090793,
                "tempo": 120.0
            },
            {
                "start_time": 15.76590909090909,
                "end_time": 15.899999999999999,
                "pitch": 76,
                "velocity": 64,
                "duration": 0.13409090909090793,
                "tempo": 120.0
            },
            {
                "start_time": 15.915909090909091,
                "end_time": 16.05,
                "pitch": 77,
                "velocity": 64,
                "duration": 0.1340909090909097,
                "tempo": 120.0
            },
            {
                "start_time": 16.06590909090909,
                "end_time": 16.2,
                "pitch": 71,
                "velocity": 64,
                "duration": 0.13409090909090793,
                "tempo": 120.0
            },
            {
                "start_time": 16.21590909090909,
                "end_time": 16.349999999999998,
                "pitch": 83,
                "velocity": 64,
                "duration": 0.13409090909090793,
                "tempo": 120.0
            },
            {
                "start_time": 16.36590909090909,
                "end_time": 16.5,
                "pitch": 81,
                "velocity": 64,
                "duration": 0.13409090909091148,
                "tempo": 120.0
            },
            {
                "start_time": 16.51590909090909,
                "end_time": 16.65,
                "pitch": 83,
                "velocity": 64,
                "duration": 0.13409090909090793,
                "tempo": 120.0
            },
            {
                "start_time": 16.66590909090909,
                "end_time": 16.8,
                "pitch": 84,
                "velocity": 64,
                "duration": 0.13409090909091148,
                "tempo": 120.0
            },
            {
                "start_time": 16.81590909090909,
                "end_time": 16.95,
                "pitch": 71,
                "velocity": 64,
                "duration": 0.13409090909090793,
                "tempo": 120.0
            },
            {
                "start_time": 16.96590909090909,
                "end_time": 17.099999999999998,
                "pitch": 76,
                "velocity": 64,
                "duration": 0.13409090909090793,
                "tempo": 120.0
            },
            {
                "start_time": 17.118181818181817,
                "end_time": 17.252272727272725,
                "pitch": 77,
                "velocity": 64,
                "duration": 0.13409090909090793,
                "tempo": 120.0
            },
            {
                "start_time": 17.268181818181816,
                "end_time": 17.402272727272727,
                "pitch": 71,
                "velocity": 64,
                "duration": 0.13409090909091148,
                "tempo": 120.0
            },
            {
                "start_time": 17.420454545454543,
                "end_time": 17.554545454545455,
                "pitch": 84,
                "velocity": 64,
                "duration": 0.13409090909091148,
                "tempo": 120.0
            },
            {
                "start_time": 17.57272727272727,
                "end_time": 17.706818181818182,
                "pitch": 83,
                "velocity": 64,
                "duration": 0.13409090909091148,
                "tempo": 120.0
            },
            {
                "start_time": 17.722727272727273,
                "end_time": 17.85681818181818,
                "pitch": 81,
                "velocity": 64,
                "duration": 0.13409090909090793,
                "tempo": 120.0
            },
            {
                "start_time": 17.87272727272727,
                "end_time": 18.00681818181818,
                "pitch": 83,
                "velocity": 64,
                "duration": 0.13409090909090793,
                "tempo": 120.0
            },
            {
                "start_time": 18.022727272727273,
                "end_time": 18.15681818181818,
                "pitch": 71,
                "velocity": 64,
                "duration": 0.13409090909090793,
                "tempo": 120.0
            },
            {
                "start_time": 18.172727272727272,
                "end_time": 18.30681818181818,
                "pitch": 81,
                "velocity": 64,
                "duration": 0.13409090909090793,
                "tempo": 120.0
            },
            {
                "start_time": 18.32272727272727,
                "end_time": 18.456818181818182,
                "pitch": 83,
                "velocity": 64,
                "duration": 0.13409090909091148,
                "tempo": 120.0
            },
            {
                "start_time": 18.474999999999998,
                "end_time": 18.60909090909091,
                "pitch": 84,
                "velocity": 64,
                "duration": 0.13409090909091148,
                "tempo": 120.0
            },
            {
                "start_time": 18.627272727272725,
                "end_time": 18.761363636363637,
                "pitch": 83,
                "velocity": 64,
                "duration": 0.13409090909091148,
                "tempo": 120.0
            },
            {
                "start_time": 18.777272727272727,
                "end_time": 18.911363636363635,
                "pitch": 81,
                "velocity": 64,
                "duration": 0.13409090909090793,
                "tempo": 120.0
            },
            {
                "start_time": 18.929545454545455,
                "end_time": 19.061363636363634,
                "pitch": 83,
                "velocity": 64,
                "duration": 0.13181818181817917,
                "tempo": 120.0
            },
            {
                "start_time": 19.079545454545453,
                "end_time": 19.211363636363636,
                "pitch": 84,
                "velocity": 64,
                "duration": 0.13181818181818272,
                "tempo": 120.0
            },
            {
                "start_time": 19.229545454545455,
                "end_time": 20.118181818181817,
                "pitch": 83,
                "velocity": 64,
                "duration": 0.8886363636363619,
                "tempo": 120.0
            },
            {
                "start_time": 20.136363636363637,
                "end_time": 20.270454545454545,
                "pitch": 86,
                "velocity": 64,
                "duration": 0.13409090909090793,
                "tempo": 120.0
            },
            {
                "start_time": 20.286363636363635,
                "end_time": 21.025,
                "pitch": 88,
                "velocity": 64,
                "duration": 0.7386363636363633,
                "tempo": 120.0
            },
            {
                "start_time": 21.04090909090909,
                "end_time": 21.93181818181818,
                "pitch": 81,
                "velocity": 64,
                "duration": 0.8909090909090907,
                "tempo": 120.0
            },
            {
                "start_time": 21.94772727272727,
                "end_time": 22.83863636363636,
                "pitch": 81,
                "velocity": 64,
                "duration": 0.8909090909090907,
                "tempo": 120.0
            },
            {
                "start_time": 22.854545454545452,
                "end_time": 23.743181818181817,
                "pitch": 83,
                "velocity": 64,
                "duration": 0.8886363636363654,
                "tempo": 120.0
            },
            {
                "start_time": 23.759090909090908,
                "end_time": 23.893181818181816,
                "pitch": 86,
                "velocity": 64,
                "duration": 0.13409090909090793,
                "tempo": 120.0
            },
            {
                "start_time": 23.909090909090907,
                "end_time": 24.645454545454545,
                "pitch": 88,
                "velocity": 64,
                "duration": 0.7363636363636381,
                "tempo": 120.0
            },
            {
                "start_time": 24.663636363636364,
                "end_time": 25.549999999999997,
                "pitch": 81,
                "velocity": 64,
                "duration": 0.8863636363636331,
                "tempo": 120.0
            },
            {
                "start_time": 25.56590909090909,
                "end_time": 26.424999999999997,
                "pitch": 81,
                "velocity": 64,
                "duration": 0.8590909090909058,
                "tempo": 120.0
            }
        ]
    }
}