{
    "track_id": "Kenseiden (FM) - 11 - Black Magic Castle",
    "mood": "angry",
    "instruments": {
        "Acoustic Bass": [
            {
                "start_time": 0.0,
                "end_time": 2.5954545454545452,
                "pitch": 24,
                "velocity": 101,
                "duration": 2.5954545454545452,
                "tempo": 120.0
            },
            {
                "start_time": 2.6136363636363633,
                "end_time": 3.0568181818181817,
                "pitch": 25,
                "velocity": 101,
                "duration": 0.44318181818181834,
                "tempo": 120.0
            },
            {
                "start_time": 3.0749999999999997,
                "end_time": 6.6,
                "pitch": 32,
                "velocity": 101,
                "duration": 3.525,
                "tempo": 120.0
            },
            {
                "start_time": 6.618181818181818,
                "end_time": 7.129545454545454,
                "pitch": 31,
                "velocity": 101,
                "duration": 0.5113636363636358,
                "tempo": 120.0
            },
            {
                "start_time": 7.1477272727272725,
                "end_time": 10.279545454545454,
                "pitch": 36,
                "velocity": 101,
                "duration": 3.131818181818182,
                "tempo": 120.0
            },
            {
                "start_time": 10.295454545454545,
                "end_time": 10.74090909090909,
                "pitch": 32,
                "velocity": 101,
                "duration": 0.4454545454545453,
                "tempo": 120.0
            },
            {
                "start_time": 10.756818181818181,
                "end_time": 14.34090909090909,
                "pitch": 24,
                "velocity": 101,
                "duration": 3.584090909090909,
                "tempo": 120.0
            },
            {
                "start_time": 14.35681818181818,
                "end_time": 16.60681818181818,
                "pitch": 24,
                "velocity": 101,
                "duration": 2.25,
                "tempo": 120.0
            },
            {
                "start_time": 16.625,
                "end_time": 17.05909090909091,
                "pitch": 25,
                "velocity": 101,
                "duration": 0.43409090909090864,
                "tempo": 120.0
            },
            {
                "start_time": 17.075,
                "end_time": 17.5,
                "pitch": 31,
                "velocity": 101,
                "duration": 0.4250000000000007,
                "tempo": 120.0
            },
            {
                "start_time": 17.51590909090909,
                "end_time": 20.21818181818182,
                "pitch": 32,
                "velocity": 101,
                "duration": 2.702272727272728,
                "tempo": 120.0
            },
            {
                "start_time": 20.23409090909091,
                "end_time": 21.111363636363635,
                "pitch": 36,
                "velocity": 101,
                "duration": 0.8772727272727252,
                "tempo": 120.0
            },
            {
                "start_time": 21.127272727272725,
                "end_time": 21.57272727272727,
                "pitch": 31,
                "velocity": 101,
                "duration": 0.4454545454545453,
                "tempo": 120.0
            },
            {
                "start_time": 21.58863636363636,
                "end_time": 25.172727272727272,
                "pitch": 32,
                "velocity": 101,
                "duration": 3.5840909090909108,
                "tempo": 120.0
            },
            {
                "start_time": 25.188636363636363,
                "end_time": 28.78181818181818,
                "pitch": 24,
                "velocity": 101,
                "duration": 3.5931818181818187,
                "tempo": 120.0
            },
            {
                "start_time": 28.799999999999997,
                "end_time": 31.049999999999997,
                "pitch": 24,
                "velocity": 101,
                "duration": 2.25,
                "tempo": 120.0
            },
            {
                "start_time": 31.065909090909088,
                "end_time": 31.5,
                "pitch": 25,
                "velocity": 101,
                "duration": 0.4340909090909122,
                "tempo": 120.0
            },
            {
                "start_time": 31.518181818181816,
                "end_time": 31.943181818181817,
                "pitch": 31,
                "velocity": 101,
                "duration": 0.4250000000000007,
                "tempo": 120.0
            },
            {
                "start_time": 31.959090909090907,
                "end_time": 34.65909090909091,
                "pitch": 32,
                "velocity": 101,
                "duration": 2.6999999999999993,
                "tempo": 120.0
            },
            {
                "start_time": 34.67727272727272,
                "end_time": 35.55227272727272,
                "pitch": 36,
                "velocity": 101,
                "duration": 0.875,
                "tempo": 120.0
            },
            {
                "start_time": 35.570454545454545,
                "end_time": 36.01363636363636,
                "pitch": 32,
                "velocity": 101,
                "duration": 0.443181818181813,
                "tempo": 120.0
            },
            {
                "start_time": 36.029545454545456,
                "end_time": 38.27045454545454,
                "pitch": 31,
                "velocity": 101,
                "duration": 2.240909090909085,
                "tempo": 120.0
            },
            {
                "start_time": 38.28636363636363,
                "end_time": 39.163636363636364,
                "pitch": 32,
                "velocity": 101,
                "duration": 0.8772727272727323,
                "tempo": 120.0
            },
            {
                "start_time": 39.179545454545455,
                "end_time": 39.625,
                "pitch": 25,
                "velocity": 101,
                "duration": 0.4454545454545453,
                "tempo": 120.0
            },
            {
                "start_time": 39.64090909090909,
                "end_time": 43.225,
                "pitch": 24,
                "velocity": 101,
                "duration": 3.5840909090909108,
                "tempo": 120.0
            }
        ],
        "Synth Bass 1": [
            {
                "start_time": 0.0,
                "end_time": 2.5954545454545452,
                "pitch": 48,
                "velocity": 80,
                "duration": 2.5954545454545452,
                "tempo": 120.0
            },
            {
                "start_time": 2.6136363636363633,
                "end_time": 3.0568181818181817,
                "pitch": 49,
                "velocity": 80,
                "duration": 0.44318181818181834,
                "tempo": 120.0
            },
            {
                "start_time": 3.0749999999999997,
                "end_time": 6.668181818181818,
                "pitch": 56,
                "velocity": 80,
                "duration": 3.5931818181818183,
                "tempo": 120.0
            },
            {
                "start_time": 6.686363636363636,
                "end_time": 7.129545454545454,
                "pitch": 55,
                "velocity": 80,
                "duration": 0.44318181818181834,
                "tempo": 120.0
            },
            {
                "start_time": 7.1477272727272725,
                "end_time": 10.279545454545454,
                "pitch": 60,
                "velocity": 80,
                "duration": 3.131818181818182,
                "tempo": 120.0
            },
            {
                "start_time": 10.295454545454545,
                "end_time": 10.74090909090909,
                "pitch": 56,
                "velocity": 80,
                "duration": 0.4454545454545453,
                "tempo": 120.0
            },
            {
                "start_time": 10.756818181818181,
                "end_time": 14.34090909090909,
                "pitch": 48,
                "velocity": 80,
                "duration": 3.584090909090909,
                "tempo": 120.0
            },
            {
                "start_time": 14.35681818181818,
                "end_time": 16.60681818181818,
                "pitch": 48,
                "velocity": 80,
                "duration": 2.25,
                "tempo": 120.0
            },
            {
                "start_time": 16.625,
                "end_time": 17.05909090909091,
                "pitch": 49,
                "velocity": 80,
                "duration": 0.43409090909090864,
                "tempo": 120.0
            },
            {
                "start_time": 17.075,
                "end_time": 17.5,
                "pitch": 55,
                "velocity": 80,
                "duration": 0.4250000000000007,
                "tempo": 120.0
            },
            {
                "start_time": 17.51590909090909,
                "end_time": 20.21818181818182,
                "pitch": 56,
                "velocity": 80,
                "duration": 2.702272727272728,
                "tempo": 120.0
            },
            {
                "start_time": 20.23409090909091,
                "end_time": 21.111363636363635,
                "pitch": 60,
                "velocity": 80,
                "duration": 0.8772727272727252,
                "tempo": 120.0
            },
            {
                "start_time": 21.127272727272725,
                "end_time": 21.57272727272727,
                "pitch": 55,
                "velocity": 80,
                "duration": 0.4454545454545453,
                "tempo": 120.0
            },
            {
                "start_time": 21.58863636363636,
                "end_time": 25.172727272727272,
                "pitch": 56,
                "velocity": 80,
                "duration": 3.5840909090909108,
                "tempo": 120.0
            },
            {
                "start_time": 25.188636363636363,
                "end_time": 28.78181818181818,
                "pitch": 48,
                "velocity": 80,
                "duration": 3.5931818181818187,
                "tempo": 120.0
            },
            {
                "start_time": 28.799999999999997,
                "end_time": 31.049999999999997,
                "pitch": 48,
                "velocity": 80,
                "duration": 2.25,
                "tempo": 120.0
            },
            {
                "start_time": 31.065909090909088,
                "end_time": 31.5,
                "pitch": 49,
                "velocity": 80,
                "duration": 0.4340909090909122,
                "tempo": 120.0
            },
            {
                "start_time": 31.518181818181816,
                "end_time": 31.877272727272725,
                "pitch": 55,
                "velocity": 80,
                "duration": 0.35909090909090935,
                "tempo": 120.0
            },
            {
                "start_time": 31.893181818181816,
                "end_time": 34.65909090909091,
                "pitch": 56,
                "velocity": 80,
                "duration": 2.7659090909090907,
                "tempo": 120.0
            },
            {
                "start_time": 34.67727272727272,
                "end_time": 35.55227272727272,
                "pitch": 60,
                "velocity": 80,
                "duration": 0.875,
                "tempo": 120.0
            },
            {
                "start_time": 35.570454545454545,
                "end_time": 36.01363636363636,
                "pitch": 56,
                "velocity": 80,
                "duration": 0.443181818181813,
                "tempo": 120.0
            },
            {
                "start_time": 36.029545454545456,
                "end_time": 38.27045454545454,
                "pitch": 55,
                "velocity": 80,
                "duration": 2.240909090909085,
                "tempo": 120.0
            },
            {
                "start_time": 38.28636363636363,
                "end_time": 39.163636363636364,
                "pitch": 56,
                "velocity": 80,
                "duration": 0.8772727272727323,
                "tempo": 120.0
            },
            {
                "start_time": 39.179545454545455,
                "end_time": 39.625,
                "pitch": 49,
                "velocity": 80,
                "duration": 0.4454545454545453,
                "tempo": 120.0
            },
            {
                "start_time": 39.64090909090909,
                "end_time": 43.225,
                "pitch": 48,
                "velocity": 80,
                "duration": 3.5840909090909108,
                "tempo": 120.0
            }
        ]
    }
}