{
    "track_id": "Kenseiden (FM) - 05 - Iyo and Suraga",
    "mood": "angry",
    "instruments": {
        "Harpsichord": [
            {
                "start_time": 0.0,
                "end_time": 0.08409090909090909,
                "pitch": 60,
                "velocity": 101,
                "duration": 0.08409090909090909,
                "tempo": 120.0
            },
            {
                "start_time": 0.09999999999999999,
                "end_time": 0.18409090909090908,
                "pitch": 58,
                "velocity": 101,
                "duration": 0.08409090909090909,
                "tempo": 120.0
            },
            {
                "start_time": 0.19999999999999998,
                "end_time": 0.28409090909090906,
                "pitch": 56,
                "velocity": 101,
                "duration": 0.08409090909090908,
                "tempo": 120.0
            },
            {
                "start_time": 0.3,
                "end_time": 1.584090909090909,
                "pitch": 55,
                "velocity": 101,
                "duration": 1.284090909090909,
                "tempo": 120.0
            },
            {
                "start_time": 1.5999999999999999,
                "end_time": 1.684090909090909,
                "pitch": 49,
                "velocity": 101,
                "duration": 0.08409090909090922,
                "tempo": 120.0
            },
            {
                "start_time": 1.7,
                "end_time": 1.784090909090909,
                "pitch": 51,
                "velocity": 101,
                "duration": 0.084090909090909,
                "tempo": 120.0
            },
            {
                "start_time": 1.8022727272727272,
                "end_time": 1.8863636363636362,
                "pitch": 53,
                "velocity": 101,
                "duration": 0.084090909090909,
                "tempo": 120.0
            },
            {
                "start_time": 1.9022727272727271,
                "end_time": 1.9863636363636363,
                "pitch": 55,
                "velocity": 101,
                "duration": 0.08409090909090922,
                "tempo": 120.0
            },
            {
                "start_time": 2.002272727272727,
                "end_time": 2.0863636363636364,
                "pitch": 56,
                "velocity": 101,
                "duration": 0.08409090909090944,
                "tempo": 120.0
            },
            {
                "start_time": 2.102272727272727,
                "end_time": 2.286363636363636,
                "pitch": 58,
                "velocity": 101,
                "duration": 0.18409090909090908,
                "tempo": 120.0
            },
            {
                "start_time": 2.3022727272727272,
                "end_time": 2.4863636363636363,
                "pitch": 56,
                "velocity": 101,
                "duration": 0.18409090909090908,
                "tempo": 120.0
            },
            {
                "start_time": 2.502272727272727,
                "end_time": 2.5863636363636364,
                "pitch": 55,
                "velocity": 101,
                "duration": 0.08409090909090944,
                "tempo": 120.0
            },
            {
                "start_time": 2.602272727272727,
                "end_time": 2.786363636363636,
                "pitch": 53,
                "velocity": 101,
                "duration": 0.18409090909090908,
                "tempo": 120.0
            },
            {
                "start_time": 2.8022727272727272,
                "end_time": 2.8863636363636362,
                "pitch": 55,
                "velocity": 101,
                "duration": 0.084090909090909,
                "tempo": 120.0
            },
            {
                "start_time": 2.9022727272727273,
                "end_time": 3.0863636363636364,
                "pitch": 56,
                "velocity": 101,
                "duration": 0.18409090909090908,
                "tempo": 120.0
            },
            {
                "start_time": 3.102272727272727,
                "end_time": 3.186363636363636,
                "pitch": 58,
                "velocity": 101,
                "duration": 0.084090909090909,
                "tempo": 120.0
            },
            {
                "start_time": 3.202272727272727,
                "end_time": 3.286363636363636,
                "pitch": 61,
                "velocity": 101,
                "duration": 0.084090909090909,
                "tempo": 120.0
            },
            {
                "start_time": 3.3022727272727272,
                "end_time": 3.3863636363636362,
                "pitch": 60,
                "velocity": 101,
                "duration": 0.084090909090909,
                "tempo": 120.0
            },
            {
                "start_time": 3.4045454545454543,
                "end_time": 3.4886363636363633,
                "pitch": 58,
                "velocity": 101,
                "duration": 0.084090909090909,
                "tempo": 120.0
            },
            {
                "start_time": 3.5045454545454544,
                "end_time": 4.088636363636364,
                "pitch": 56,
                "velocity": 101,
                "duration": 0.5840909090909094,
                "tempo": 120.0
            },
            {
                "start_time": 4.1045454545454545,
                "end_time": 4.288636363636363,
                "pitch": 63,
                "velocity": 101,
                "duration": 0.18409090909090864,
                "tempo": 120.0
            },
            {
                "start_time": 4.304545454545455,
                "end_time": 4.488636363636363,
                "pitch": 61,
                "velocity": 101,
                "duration": 0.18409090909090864,
                "tempo": 120.0
            },
            {
                "start_time": 4.506818181818182,
                "end_time": 4.590909090909091,
                "pitch": 60,
                "velocity": 101,
                "duration": 0.084090909090909,
                "tempo": 120.0
            },
            {
                "start_time": 4.6068181818181815,
                "end_time": 4.790909090909091,
                "pitch": 60,
                "velocity": 101,
                "duration": 0.18409090909090953,
                "tempo": 120.0
            },
            {
                "start_time": 4.809090909090909,
                "end_time": 5.090909090909091,
                "pitch": 58,
                "velocity": 101,
                "duration": 0.2818181818181822,
                "tempo": 120.0
            },
            {
                "start_time": 5.1090909090909085,
                "end_time": 5.393181818181818,
                "pitch": 60,
                "velocity": 101,
                "duration": 0.28409090909090917,
                "tempo": 120.0
            },
            {
                "start_time": 5.409090909090909,
                "end_time": 5.593181818181818,
                "pitch": 61,
                "velocity": 101,
                "duration": 0.18409090909090864,
                "tempo": 120.0
            },
            {
                "start_time": 5.611363636363636,
                "end_time": 5.893181818181818,
                "pitch": 56,
                "velocity": 101,
                "duration": 0.2818181818181813,
                "tempo": 120.0
            },
            {
                "start_time": 5.911363636363636,
                "end_time": 6.3977272727272725,
                "pitch": 58,
                "velocity": 101,
                "duration": 0.48636363636363633,
                "tempo": 120.0
            },
            {
                "start_time": 6.413636363636363,
                "end_time": 6.497727272727272,
                "pitch": 60,
                "velocity": 101,
                "duration": 0.084090909090909,
                "tempo": 120.0
            },
            {
                "start_time": 6.513636363636364,
                "end_time": 6.597727272727273,
                "pitch": 58,
                "velocity": 101,
                "duration": 0.084090909090909,
                "tempo": 120.0
            },
            {
                "start_time": 6.613636363636363,
                "end_time": 6.697727272727272,
                "pitch": 56,
                "velocity": 101,
                "duration": 0.084090909090909,
                "tempo": 120.0
            },
            {
                "start_time": 6.715909090909091,
                "end_time": 7.3,
                "pitch": 55,
                "velocity": 101,
                "duration": 0.584090909090909,
                "tempo": 120.0
            },
            {
                "start_time": 7.3159090909090905,
                "end_time": 7.3999999999999995,
                "pitch": 48,
                "velocity": 101,
                "duration": 0.084090909090909,
                "tempo": 120.0
            },
            {
                "start_time": 7.418181818181818,
                "end_time": 7.502272727272727,
                "pitch": 49,
                "velocity": 101,
                "duration": 0.084090909090909,
                "tempo": 120.0
            },
            {
                "start_time": 7.518181818181818,
                "end_time": 7.602272727272727,
                "pitch": 51,
                "velocity": 101,
                "duration": 0.084090909090909,
                "tempo": 120.0
            },
            {
                "start_time": 7.618181818181818,
                "end_time": 7.702272727272727,
                "pitch": 53,
                "velocity": 101,
                "duration": 0.084090909090909,
                "tempo": 120.0
            },
            {
                "start_time": 7.718181818181818,
                "end_time": 7.802272727272727,
                "pitch": 55,
                "velocity": 101,
                "duration": 0.084090909090909,
                "tempo": 120.0
            },
            {
                "start_time": 7.8181818181818175,
                "end_time": 7.9022727272727264,
                "pitch": 53,
                "velocity": 101,
                "duration": 0.084090909090909,
                "tempo": 120.0
            },
            {
                "start_time": 7.918181818181818,
                "end_time": 8.60681818181818,
                "pitch": 51,
                "velocity": 101,
                "duration": 0.6886363636363626,
                "tempo": 120.0
            },
            {
                "start_time": 8.622727272727273,
                "end_time": 8.706818181818182,
                "pitch": 51,
                "velocity": 101,
                "duration": 0.084090909090909,
                "tempo": 120.0
            },
            {
                "start_time": 8.722727272727273,
                "end_time": 8.806818181818182,
                "pitch": 51,
                "velocity": 101,
                "duration": 0.084090909090909,
                "tempo": 120.0
            },
            {
                "start_time": 8.825,
                "end_time": 8.909090909090908,
                "pitch": 53,
                "velocity": 101,
                "duration": 0.084090909090909,
                "tempo": 120.0
            },
            {
                "start_time": 8.924999999999999,
                "end_time": 9.10909090909091,
                "pitch": 55,
                "velocity": 101,
                "duration": 0.18409090909091042,
                "tempo": 120.0
            },
            {
                "start_time": 9.127272727272727,
                "end_time": 9.309090909090909,
                "pitch": 53,
                "velocity": 101,
                "duration": 0.18181818181818166,
                "tempo": 120.0
            },
            {
                "start_time": 9.327272727272726,
                "end_time": 9.409090909090908,
                "pitch": 51,
                "velocity": 101,
                "duration": 0.08181818181818201,
                "tempo": 120.0
            },
            {
                "start_time": 9.427272727272728,
                "end_time": 9.60909090909091,
                "pitch": 51,
                "velocity": 101,
                "duration": 0.18181818181818166,
                "tempo": 120.0
            },
            {
                "start_time": 9.627272727272727,
                "end_time": 9.711363636363636,
                "pitch": 61,
                "velocity": 101,
                "duration": 0.084090909090909,
                "tempo": 120.0
            },
            {
                "start_time": 9.727272727272727,
                "end_time": 9.811363636363636,
                "pitch": 60,
                "velocity": 101,
                "duration": 0.084090909090909,
                "tempo": 120.0
            },
            {
                "start_time": 9.827272727272726,
                "end_time": 9.911363636363635,
                "pitch": 58,
                "velocity": 101,
                "duration": 0.084090909090909,
                "tempo": 120.0
            },
            {
                "start_time": 9.929545454545455,
                "end_time": 10.113636363636363,
                "pitch": 56,
                "velocity": 101,
                "duration": 0.18409090909090864,
                "tempo": 120.0
            },
            {
                "start_time": 10.129545454545454,
                "end_time": 10.213636363636363,
                "pitch": 58,
                "velocity": 101,
                "duration": 0.084090909090909,
                "tempo": 120.0
            },
            {
                "start_time": 10.23181818181818,
                "end_time": 10.415909090909091,
                "pitch": 56,
                "velocity": 101,
                "duration": 0.18409090909091042,
                "tempo": 120.0
            },
            {
                "start_time": 10.431818181818182,
                "end_time": 10.718181818181817,
                "pitch": 55,
                "velocity": 101,
                "duration": 0.28636363636363527,
                "tempo": 120.0
            },
            {
                "start_time": 10.73409090909091,
                "end_time": 11.220454545454546,
                "pitch": 56,
                "velocity": 101,
                "duration": 0.48636363636363633,
                "tempo": 120.0
            },
            {
                "start_time": 11.238636363636363,
                "end_time": 11.320454545454545,
                "pitch": 61,
                "velocity": 101,
                "duration": 0.08181818181818201,
                "tempo": 120.0
            },
            {
                "start_time": 11.338636363636363,
                "end_time": 11.420454545454545,
                "pitch": 60,
                "velocity": 101,
                "duration": 0.08181818181818201,
                "tempo": 120.0
            },
            {
                "start_time": 11.438636363636363,
                "end_time": 11.520454545454545,
                "pitch": 58,
                "velocity": 101,
                "duration": 0.08181818181818201,
                "tempo": 120.0
            },
            {
                "start_time": 11.538636363636362,
                "end_time": 11.720454545454546,
                "pitch": 56,
                "velocity": 101,
                "duration": 0.18181818181818343,
                "tempo": 120.0
            },
            {
                "start_time": 11.738636363636363,
                "end_time": 11.822727272727272,
                "pitch": 58,
                "velocity": 101,
                "duration": 0.084090909090909,
                "tempo": 120.0
            },
            {
                "start_time": 11.838636363636363,
                "end_time": 12.022727272727272,
                "pitch": 56,
                "velocity": 101,
                "duration": 0.18409090909090864,
                "tempo": 120.0
            },
            {
                "start_time": 12.040909090909091,
                "end_time": 12.325,
                "pitch": 55,
                "velocity": 101,
                "duration": 0.2840909090909083,
                "tempo": 120.0
            },
            {
                "start_time": 12.343181818181817,
                "end_time": 12.829545454545453,
                "pitch": 56,
                "velocity": 101,
                "duration": 0.48636363636363633,
                "tempo": 120.0
            },
            {
                "start_time": 12.845454545454546,
                "end_time": 14.236363636363636,
                "pitch": 48,
                "velocity": 101,
                "duration": 1.3909090909090907,
                "tempo": 120.0
            },
            {
                "start_time": 14.252272727272727,
                "end_time": 14.638636363636364,
                "pitch": 60,
                "velocity": 101,
                "duration": 0.3863636363636367,
                "tempo": 120.0
            },
            {
                "start_time": 14.654545454545454,
                "end_time": 15.040909090909091,
                "pitch": 58,
                "velocity": 101,
                "duration": 0.3863636363636367,
                "tempo": 120.0
            },
            {
                "start_time": 15.056818181818182,
                "end_time": 15.438636363636363,
                "pitch": 56,
                "velocity": 101,
                "duration": 0.38181818181818095,
                "tempo": 120.0
            },
            {
                "start_time": 15.454545454545453,
                "end_time": 15.634090909090908,
                "pitch": 55,
                "velocity": 101,
                "duration": 0.17954545454545467,
                "tempo": 120.0
            },
            {
                "start_time": 15.652272727272727,
                "end_time": 15.836363636363636,
                "pitch": 56,
                "velocity": 101,
                "duration": 0.18409090909090864,
                "tempo": 120.0
            },
            {
                "start_time": 15.852272727272727,
                "end_time": 16.036363636363635,
                "pitch": 58,
                "velocity": 101,
                "duration": 0.18409090909090864,
                "tempo": 120.0
            },
            {
                "start_time": 16.054545454545455,
                "end_time": 17.44090909090909,
                "pitch": 48,
                "velocity": 101,
                "duration": 1.3863636363636367,
                "tempo": 120.0
            },
            {
                "start_time": 17.459090909090907,
                "end_time": 17.84318181818182,
                "pitch": 60,
                "velocity": 101,
                "duration": 0.3840909090909115,
                "tempo": 120.0
            },
            {
                "start_time": 17.85909090909091,
                "end_time": 18.243181818181817,
                "pitch": 58,
                "velocity": 101,
                "duration": 0.38409090909090793,
                "tempo": 120.0
            },
            {
                "start_time": 18.259090909090908,
                "end_time": 18.643181818181816,
                "pitch": 56,
                "velocity": 101,
                "duration": 0.38409090909090793,
                "tempo": 120.0
            },
            {
                "start_time": 18.661363636363635,
                "end_time": 18.845454545454544,
                "pitch": 55,
                "velocity": 101,
                "duration": 0.18409090909090864,
                "tempo": 120.0
            },
            {
                "start_time": 18.861363636363635,
                "end_time": 19.045454545454543,
                "pitch": 56,
                "velocity": 101,
                "duration": 0.18409090909090864,
                "tempo": 120.0
            },
            {
                "start_time": 19.061363636363634,
                "end_time": 19.245454545454546,
                "pitch": 58,
                "velocity": 101,
                "duration": 0.1840909090909122,
                "tempo": 120.0
            },
            {
                "start_time": 19.261363636363637,
                "end_time": 20.65,
                "pitch": 48,
                "velocity": 101,
                "duration": 1.388636363636362,
                "tempo": 120.0
            },
            {
                "start_time": 20.66590909090909,
                "end_time": 21.05681818181818,
                "pitch": 60,
                "velocity": 101,
                "duration": 0.39090909090909065,
                "tempo": 120.0
            },
            {
                "start_time": 21.07272727272727,
                "end_time": 21.456818181818182,
                "pitch": 58,
                "velocity": 101,
                "duration": 0.3840909090909115,
                "tempo": 120.0
            },
            {
                "start_time": 21.474999999999998,
                "end_time": 21.854545454545452,
                "pitch": 56,
                "velocity": 101,
                "duration": 0.37954545454545396,
                "tempo": 120.0
            },
            {
                "start_time": 21.870454545454546,
                "end_time": 22.054545454545455,
                "pitch": 55,
                "velocity": 101,
                "duration": 0.18409090909090864,
                "tempo": 120.0
            },
            {
                "start_time": 22.070454545454545,
                "end_time": 22.254545454545454,
                "pitch": 56,
                "velocity": 101,
                "duration": 0.18409090909090864,
                "tempo": 120.0
            },
            {
                "start_time": 22.270454545454545,
                "end_time": 22.454545454545453,
                "pitch": 58,
                "velocity": 101,
                "duration": 0.18409090909090864,
                "tempo": 120.0
            },
            {
                "start_time": 22.470454545454544,
                "end_time": 23.863636363636363,
                "pitch": 48,
                "velocity": 101,
                "duration": 1.3931818181818194,
                "tempo": 120.0
            },
            {
                "start_time": 23.88181818181818,
                "end_time": 24.26590909090909,
                "pitch": 60,
                "velocity": 101,
                "duration": 0.3840909090909115,
                "tempo": 120.0
            },
            {
                "start_time": 24.28181818181818,
                "end_time": 24.66590909090909,
                "pitch": 58,
                "velocity": 101,
                "duration": 0.38409090909090793,
                "tempo": 120.0
            },
            {
                "start_time": 24.68409090909091,
                "end_time": 25.068181818181817,
                "pitch": 56,
                "velocity": 101,
                "duration": 0.38409090909090793,
                "tempo": 120.0
            },
            {
                "start_time": 25.084090909090907,
                "end_time": 25.26590909090909,
                "pitch": 55,
                "velocity": 101,
                "duration": 0.18181818181818343,
                "tempo": 120.0
            },
            {
                "start_time": 25.28181818181818,
                "end_time": 25.46590909090909,
                "pitch": 56,
                "velocity": 101,
                "duration": 0.18409090909090864,
                "tempo": 120.0
            },
            {
                "start_time": 25.48181818181818,
                "end_time": 25.668181818181818,
                "pitch": 58,
                "velocity": 101,
                "duration": 0.1863636363636374,
                "tempo": 120.0
            }
        ],
        "Electric Guitar (clean)": [
            {
                "start_time": 0.0,
                "end_time": 0.884090909090909,
                "pitch": 36,
                "velocity": 64,
                "duration": 0.884090909090909,
                "tempo": 120.0
            },
            {
                "start_time": 0.8999999999999999,
                "end_time": 0.984090909090909,
                "pitch": 37,
                "velocity": 64,
                "duration": 0.0840909090909091,
                "tempo": 120.0
            },
            {
                "start_time": 1.0,
                "end_time": 1.084090909090909,
                "pitch": 39,
                "velocity": 64,
                "duration": 0.084090909090909,
                "tempo": 120.0
            },
            {
                "start_time": 1.0999999999999999,
                "end_time": 1.184090909090909,
                "pitch": 41,
                "velocity": 64,
                "duration": 0.08409090909090922,
                "tempo": 120.0
            },
            {
                "start_time": 1.2,
                "end_time": 1.284090909090909,
                "pitch": 43,
                "velocity": 64,
                "duration": 0.084090909090909,
                "tempo": 120.0
            },
            {
                "start_time": 1.3,
                "end_time": 1.384090909090909,
                "pitch": 44,
                "velocity": 64,
                "duration": 0.084090909090909,
                "tempo": 120.0
            },
            {
                "start_time": 1.4,
                "end_time": 1.584090909090909,
                "pitch": 43,
                "velocity": 64,
                "duration": 0.18409090909090908,
                "tempo": 120.0
            },
            {
                "start_time": 1.5999999999999999,
                "end_time": 2.3863636363636362,
                "pitch": 36,
                "velocity": 64,
                "duration": 0.7863636363636364,
                "tempo": 120.0
            },
            {
                "start_time": 2.4022727272727273,
                "end_time": 3.186363636363636,
                "pitch": 36,
                "velocity": 64,
                "duration": 0.7840909090909087,
                "tempo": 120.0
            },
            {
                "start_time": 3.202272727272727,
                "end_time": 4.088636363636364,
                "pitch": 37,
                "velocity": 64,
                "duration": 0.8863636363636367,
                "tempo": 120.0
            },
            {
                "start_time": 4.1045454545454545,
                "end_time": 4.1886363636363635,
                "pitch": 39,
                "velocity": 64,
                "duration": 0.084090909090909,
                "tempo": 120.0
            },
            {
                "start_time": 4.204545454545454,
                "end_time": 4.288636363636363,
                "pitch": 41,
                "velocity": 64,
                "duration": 0.084090909090909,
                "tempo": 120.0
            },
            {
                "start_time": 4.304545454545455,
                "end_time": 4.388636363636364,
                "pitch": 43,
                "velocity": 64,
                "duration": 0.084090909090909,
                "tempo": 120.0
            },
            {
                "start_time": 4.404545454545454,
                "end_time": 4.488636363636363,
                "pitch": 44,
                "velocity": 64,
                "duration": 0.084090909090909,
                "tempo": 120.0
            },
            {
                "start_time": 4.506818181818182,
                "end_time": 4.590909090909091,
                "pitch": 46,
                "velocity": 64,
                "duration": 0.084090909090909,
                "tempo": 120.0
            },
            {
                "start_time": 4.6068181818181815,
                "end_time": 4.790909090909091,
                "pitch": 44,
                "velocity": 64,
                "duration": 0.18409090909090953,
                "tempo": 120.0
            },
            {
                "start_time": 4.809090909090909,
                "end_time": 5.593181818181818,
                "pitch": 37,
                "velocity": 64,
                "duration": 0.7840909090909092,
                "tempo": 120.0
            },
            {
                "start_time": 5.611363636363636,
                "end_time": 6.3977272727272725,
                "pitch": 37,
                "velocity": 64,
                "duration": 0.7863636363636362,
                "tempo": 120.0
            },
            {
                "start_time": 6.413636363636363,
                "end_time": 7.3,
                "pitch": 36,
                "velocity": 64,
                "duration": 0.8863636363636367,
                "tempo": 120.0
            },
            {
                "start_time": 7.3159090909090905,
                "end_time": 7.3999999999999995,
                "pitch": 37,
                "velocity": 64,
                "duration": 0.084090909090909,
                "tempo": 120.0
            },
            {
                "start_time": 7.418181818181818,
                "end_time": 7.502272727272727,
                "pitch": 39,
                "velocity": 64,
                "duration": 0.084090909090909,
                "tempo": 120.0
            },
            {
                "start_time": 7.518181818181818,
                "end_time": 7.602272727272727,
                "pitch": 41,
                "velocity": 64,
                "duration": 0.084090909090909,
                "tempo": 120.0
            },
            {
                "start_time": 7.618181818181818,
                "end_time": 7.702272727272727,
                "pitch": 43,
                "velocity": 64,
                "duration": 0.084090909090909,
                "tempo": 120.0
            },
            {
                "start_time": 7.718181818181818,
                "end_time": 7.802272727272727,
                "pitch": 44,
                "velocity": 64,
                "duration": 0.084090909090909,
                "tempo": 120.0
            },
            {
                "start_time": 7.8181818181818175,
                "end_time": 8.002272727272727,
                "pitch": 43,
                "velocity": 64,
                "duration": 0.18409090909090953,
                "tempo": 120.0
            },
            {
                "start_time": 8.018181818181818,
                "end_time": 8.806818181818182,
                "pitch": 36,
                "velocity": 64,
                "duration": 0.788636363636364,
                "tempo": 120.0
            },
            {
                "start_time": 8.825,
                "end_time": 9.60909090909091,
                "pitch": 36,
                "velocity": 64,
                "duration": 0.7840909090909101,
                "tempo": 120.0
            },
            {
                "start_time": 9.627272727272727,
                "end_time": 10.51590909090909,
                "pitch": 37,
                "velocity": 64,
                "duration": 0.8886363636363637,
                "tempo": 120.0
            },
            {
                "start_time": 10.531818181818181,
                "end_time": 10.61590909090909,
                "pitch": 39,
                "velocity": 64,
                "duration": 0.084090909090909,
                "tempo": 120.0
            },
            {
                "start_time": 10.634090909090908,
                "end_time": 10.718181818181817,
                "pitch": 41,
                "velocity": 64,
                "duration": 0.084090909090909,
                "tempo": 120.0
            },
            {
                "start_time": 10.73409090909091,
                "end_time": 10.818181818181818,
                "pitch": 43,
                "velocity": 64,
                "duration": 0.084090909090909,
                "tempo": 120.0
            },
            {
                "start_time": 10.834090909090909,
                "end_time": 10.918181818181818,
                "pitch": 44,
                "velocity": 64,
                "duration": 0.084090909090909,
                "tempo": 120.0
            },
            {
                "start_time": 10.936363636363636,
                "end_time": 11.020454545454545,
                "pitch": 46,
                "velocity": 64,
                "duration": 0.084090909090909,
                "tempo": 120.0
            },
            {
                "start_time": 11.036363636363635,
                "end_time": 11.220454545454546,
                "pitch": 44,
                "velocity": 64,
                "duration": 0.18409090909091042,
                "tempo": 120.0
            },
            {
                "start_time": 11.238636363636363,
                "end_time": 12.022727272727272,
                "pitch": 37,
                "velocity": 64,
                "duration": 0.7840909090909083,
                "tempo": 120.0
            },
            {
                "start_time": 12.040909090909091,
                "end_time": 12.829545454545453,
                "pitch": 37,
                "velocity": 64,
                "duration": 0.7886363636363622,
                "tempo": 120.0
            },
            {
                "start_time": 12.845454545454546,
                "end_time": 13.029545454545454,
                "pitch": 36,
                "velocity": 64,
                "duration": 0.18409090909090864,
                "tempo": 120.0
            },
            {
                "start_time": 13.047727272727272,
                "end_time": 13.23181818181818,
                "pitch": 36,
                "velocity": 64,
                "duration": 0.18409090909090864,
                "tempo": 120.0
            },
            {
                "start_time": 13.247727272727271,
                "end_time": 13.431818181818182,
                "pitch": 36,
                "velocity": 64,
                "duration": 0.18409090909091042,
                "tempo": 120.0
            },
            {
                "start_time": 13.447727272727272,
                "end_time": 13.831818181818182,
                "pitch": 31,
                "velocity": 64,
                "duration": 0.3840909090909097,
                "tempo": 120.0
            },
            {
                "start_time": 13.85,
                "end_time": 14.034090909090908,
                "pitch": 31,
                "velocity": 64,
                "duration": 0.18409090909090864,
                "tempo": 120.0
            },
            {
                "start_time": 14.049999999999999,
                "end_time": 14.236363636363636,
                "pitch": 31,
                "velocity": 64,
                "duration": 0.1863636363636374,
                "tempo": 120.0
            },
            {
                "start_time": 14.252272727272727,
                "end_time": 14.638636363636364,
                "pitch": 32,
                "velocity": 64,
                "duration": 0.3863636363636367,
                "tempo": 120.0
            },
            {
                "start_time": 14.654545454545454,
                "end_time": 14.838636363636363,
                "pitch": 32,
                "velocity": 64,
                "duration": 0.18409090909090864,
                "tempo": 120.0
            },
            {
                "start_time": 14.85681818181818,
                "end_time": 15.040909090909091,
                "pitch": 32,
                "velocity": 64,
                "duration": 0.18409090909091042,
                "tempo": 120.0
            },
            {
                "start_time": 15.056818181818182,
                "end_time": 15.438636363636363,
                "pitch": 34,
                "velocity": 64,
                "duration": 0.38181818181818095,
                "tempo": 120.0
            },
            {
                "start_time": 15.454545454545453,
                "end_time": 15.634090909090908,
                "pitch": 34,
                "velocity": 64,
                "duration": 0.17954545454545467,
                "tempo": 120.0
            },
            {
                "start_time": 15.652272727272727,
                "end_time": 16.036363636363635,
                "pitch": 34,
                "velocity": 64,
                "duration": 0.38409090909090793,
                "tempo": 120.0
            },
            {
                "start_time": 16.054545454545455,
                "end_time": 16.209090909090907,
                "pitch": 36,
                "velocity": 64,
                "duration": 0.15454545454545254,
                "tempo": 120.0
            },
            {
                "start_time": 16.224999999999998,
                "end_time": 16.44772727272727,
                "pitch": 36,
                "velocity": 64,
                "duration": 0.22272727272727266,
                "tempo": 120.0
            },
            {
                "start_time": 16.46363636363636,
                "end_time": 16.643181818181816,
                "pitch": 36,
                "velocity": 64,
                "duration": 0.17954545454545467,
                "tempo": 120.0
            },
            {
                "start_time": 16.661363636363635,
                "end_time": 17.04090909090909,
                "pitch": 31,
                "velocity": 64,
                "duration": 0.37954545454545396,
                "tempo": 120.0
            },
            {
                "start_time": 17.05681818181818,
                "end_time": 17.24090909090909,
                "pitch": 31,
                "velocity": 64,
                "duration": 0.18409090909090864,
                "tempo": 120.0
            },
            {
                "start_time": 17.256818181818183,
                "end_time": 17.40681818181818,
                "pitch": 31,
                "velocity": 64,
                "duration": 0.14999999999999858,
                "tempo": 120.0
            },
            {
                "start_time": 17.425,
                "end_time": 17.84318181818182,
                "pitch": 32,
                "velocity": 64,
                "duration": 0.418181818181818,
                "tempo": 120.0
            },
            {
                "start_time": 17.85909090909091,
                "end_time": 18.043181818181818,
                "pitch": 32,
                "velocity": 64,
                "duration": 0.18409090909090864,
                "tempo": 120.0
            },
            {
                "start_time": 18.05909090909091,
                "end_time": 18.243181818181817,
                "pitch": 32,
                "velocity": 64,
                "duration": 0.18409090909090864,
                "tempo": 120.0
            },
            {
                "start_time": 18.259090909090908,
                "end_time": 18.643181818181816,
                "pitch": 34,
                "velocity": 64,
                "duration": 0.38409090909090793,
                "tempo": 120.0
            },
            {
                "start_time": 18.661363636363635,
                "end_time": 18.845454545454544,
                "pitch": 34,
                "velocity": 64,
                "duration": 0.18409090909090864,
                "tempo": 120.0
            },
            {
                "start_time": 18.861363636363635,
                "end_time": 19.245454545454546,
                "pitch": 34,
                "velocity": 64,
                "duration": 0.3840909090909115,
                "tempo": 120.0
            },
            {
                "start_time": 19.261363636363637,
                "end_time": 19.44772727272727,
                "pitch": 36,
                "velocity": 64,
                "duration": 0.18636363636363384,
                "tempo": 120.0
            },
            {
                "start_time": 19.46363636363636,
                "end_time": 19.647727272727273,
                "pitch": 36,
                "velocity": 64,
                "duration": 0.1840909090909122,
                "tempo": 120.0
            },
            {
                "start_time": 19.66590909090909,
                "end_time": 19.847727272727273,
                "pitch": 36,
                "velocity": 64,
                "duration": 0.18181818181818343,
                "tempo": 120.0
            },
            {
                "start_time": 19.86590909090909,
                "end_time": 20.24772727272727,
                "pitch": 31,
                "velocity": 64,
                "duration": 0.3818181818181827,
                "tempo": 120.0
            },
            {
                "start_time": 20.26590909090909,
                "end_time": 20.44772727272727,
                "pitch": 31,
                "velocity": 64,
                "duration": 0.18181818181817988,
                "tempo": 120.0
            },
            {
                "start_time": 20.46590909090909,
                "end_time": 20.65,
                "pitch": 31,
                "velocity": 64,
                "duration": 0.18409090909090864,
                "tempo": 120.0
            },
            {
                "start_time": 20.66590909090909,
                "end_time": 21.05681818181818,
                "pitch": 32,
                "velocity": 64,
                "duration": 0.39090909090909065,
                "tempo": 120.0
            },
            {
                "start_time": 21.07272727272727,
                "end_time": 21.261363636363637,
                "pitch": 32,
                "velocity": 64,
                "duration": 0.18863636363636616,
                "tempo": 120.0
            },
            {
                "start_time": 21.277272727272727,
                "end_time": 21.456818181818182,
                "pitch": 32,
                "velocity": 64,
                "duration": 0.17954545454545467,
                "tempo": 120.0
            },
            {
                "start_time": 21.474999999999998,
                "end_time": 21.854545454545452,
                "pitch": 34,
                "velocity": 64,
                "duration": 0.37954545454545396,
                "tempo": 120.0
            },
            {
                "start_time": 21.870454545454546,
                "end_time": 22.054545454545455,
                "pitch": 34,
                "velocity": 64,
                "duration": 0.18409090909090864,
                "tempo": 120.0
            },
            {
                "start_time": 22.070454545454545,
                "end_time": 22.454545454545453,
                "pitch": 34,
                "velocity": 64,
                "duration": 0.38409090909090793,
                "tempo": 120.0
            },
            {
                "start_time": 22.470454545454544,
                "end_time": 22.625,
                "pitch": 36,
                "velocity": 64,
                "duration": 0.1545454545454561,
                "tempo": 120.0
            },
            {
                "start_time": 22.64090909090909,
                "end_time": 22.863636363636363,
                "pitch": 36,
                "velocity": 64,
                "duration": 0.22272727272727266,
                "tempo": 120.0
            },
            {
                "start_time": 22.88181818181818,
                "end_time": 23.061363636363634,
                "pitch": 36,
                "velocity": 64,
                "duration": 0.17954545454545467,
                "tempo": 120.0
            },
            {
                "start_time": 23.077272727272724,
                "end_time": 23.456818181818182,
                "pitch": 31,
                "velocity": 64,
                "duration": 0.3795454545454575,
                "tempo": 120.0
            },
            {
                "start_time": 23.474999999999998,
                "end_time": 23.659090909090907,
                "pitch": 31,
                "velocity": 64,
                "duration": 0.18409090909090864,
                "tempo": 120.0
            },
            {
                "start_time": 23.674999999999997,
                "end_time": 23.829545454545453,
                "pitch": 31,
                "velocity": 64,
                "duration": 0.1545454545454561,
                "tempo": 120.0
            },
            {
                "start_time": 23.847727272727273,
                "end_time": 24.26590909090909,
                "pitch": 32,
                "velocity": 64,
                "duration": 0.418181818181818,
                "tempo": 120.0
            },
            {
                "start_time": 24.28181818181818,
                "end_time": 24.461363636363636,
                "pitch": 32,
                "velocity": 64,
                "duration": 0.17954545454545467,
                "tempo": 120.0
            },
            {
                "start_time": 24.479545454545452,
                "end_time": 24.66590909090909,
                "pitch": 32,
                "velocity": 64,
                "duration": 0.1863636363636374,
                "tempo": 120.0
            },
            {
                "start_time": 24.68409090909091,
                "end_time": 25.068181818181817,
                "pitch": 34,
                "velocity": 64,
                "duration": 0.38409090909090793,
                "tempo": 120.0
            },
            {
                "start_time": 25.084090909090907,
                "end_time": 25.26590909090909,
                "pitch": 34,
                "velocity": 64,
                "duration": 0.18181818181818343,
                "tempo": 120.0
            },
            {
                "start_time": 25.28181818181818,
                "end_time": 25.668181818181818,
                "pitch": 34,
                "velocity": 64,
                "duration": 0.3863636363636367,
                "tempo": 120.0
            }
        ],
        "Vibraphone": [
            {
                "start_time": 0.0,
                "end_time": 0.03409090909090909,
                "pitch": 45,
                "velocity": 51,
                "duration": 0.03409090909090909,
                "tempo": 120.0
            },
            {
                "start_time": 0.03409090909090909,
                "end_time": 0.1340909090909091,
                "pitch": 60,
                "velocity": 51,
                "duration": 0.1,
                "tempo": 120.0
            },
            {
                "start_time": 0.1340909090909091,
                "end_time": 0.33409090909090905,
                "pitch": 58,
                "velocity": 51,
                "duration": 0.19999999999999996,
                "tempo": 120.0
            },
            {
                "start_time": 0.33409090909090905,
                "end_time": 1.634090909090909,
                "pitch": 55,
                "velocity": 51,
                "duration": 1.3,
                "tempo": 120.0
            },
            {
                "start_time": 1.634090909090909,
                "end_time": 1.734090909090909,
                "pitch": 49,
                "velocity": 51,
                "duration": 0.09999999999999987,
                "tempo": 120.0
            },
            {
                "start_time": 1.734090909090909,
                "end_time": 1.834090909090909,
                "pitch": 51,
                "velocity": 51,
                "duration": 0.10000000000000009,
                "tempo": 120.0
            },
            {
                "start_time": 1.834090909090909,
                "end_time": 1.9363636363636363,
                "pitch": 53,
                "velocity": 51,
                "duration": 0.10227272727272729,
                "tempo": 120.0
            },
            {
                "start_time": 1.9363636363636363,
                "end_time": 2.1363636363636362,
                "pitch": 55,
                "velocity": 51,
                "duration": 0.19999999999999996,
                "tempo": 120.0
            },
            {
                "start_time": 2.1363636363636362,
                "end_time": 2.536363636363636,
                "pitch": 58,
                "velocity": 51,
                "duration": 0.3999999999999999,
                "tempo": 120.0
            },
            {
                "start_time": 2.536363636363636,
                "end_time": 2.6363636363636362,
                "pitch": 55,
                "velocity": 51,
                "duration": 0.10000000000000009,
                "tempo": 120.0
            },
            {
                "start_time": 2.6363636363636362,
                "end_time": 2.8363636363636364,
                "pitch": 53,
                "velocity": 51,
                "duration": 0.20000000000000018,
                "tempo": 120.0
            },
            {
                "start_time": 2.8363636363636364,
                "end_time": 3.1363636363636362,
                "pitch": 55,
                "velocity": 51,
                "duration": 0.2999999999999998,
                "tempo": 120.0
            },
            {
                "start_time": 3.1363636363636362,
                "end_time": 3.2363636363636363,
                "pitch": 58,
                "velocity": 51,
                "duration": 0.10000000000000009,
                "tempo": 120.0
            },
            {
                "start_time": 3.2363636363636363,
                "end_time": 3.4386363636363635,
                "pitch": 61,
                "velocity": 51,
                "duration": 0.20227272727272716,
                "tempo": 120.0
            },
            {
                "start_time": 3.4386363636363635,
                "end_time": 4.138636363636364,
                "pitch": 58,
                "velocity": 51,
                "duration": 0.7000000000000002,
                "tempo": 120.0
            },
            {
                "start_time": 4.138636363636364,
                "end_time": 4.338636363636364,
                "pitch": 63,
                "velocity": 51,
                "duration": 0.20000000000000018,
                "tempo": 120.0
            },
            {
                "start_time": 4.338636363636364,
                "end_time": 4.840909090909091,
                "pitch": 61,
                "velocity": 51,
                "duration": 0.502272727272727,
                "tempo": 120.0
            },
            {
                "start_time": 4.840909090909091,
                "end_time": 5.140909090909091,
                "pitch": 58,
                "velocity": 51,
                "duration": 0.2999999999999998,
                "tempo": 120.0
            },
            {
                "start_time": 5.140909090909091,
                "end_time": 5.643181818181818,
                "pitch": 60,
                "velocity": 51,
                "duration": 0.502272727272727,
                "tempo": 120.0
            },
            {
                "start_time": 5.643181818181818,
                "end_time": 6.447727272727272,
                "pitch": 56,
                "velocity": 51,
                "duration": 0.8045454545454547,
                "tempo": 120.0
            },
            {
                "start_time": 6.447727272727272,
                "end_time": 6.547727272727273,
                "pitch": 60,
                "velocity": 51,
                "duration": 0.10000000000000053,
                "tempo": 120.0
            },
            {
                "start_time": 6.547727272727273,
                "end_time": 6.75,
                "pitch": 58,
                "velocity": 51,
                "duration": 0.20227272727272716,
                "tempo": 120.0
            },
            {
                "start_time": 6.75,
                "end_time": 7.35,
                "pitch": 55,
                "velocity": 51,
                "duration": 0.5999999999999996,
                "tempo": 120.0
            },
            {
                "start_time": 7.35,
                "end_time": 7.552272727272727,
                "pitch": 48,
                "velocity": 51,
                "duration": 0.20227272727272716,
                "tempo": 120.0
            },
            {
                "start_time": 7.552272727272727,
                "end_time": 7.652272727272727,
                "pitch": 51,
                "velocity": 51,
                "duration": 0.10000000000000053,
                "tempo": 120.0
            },
            {
                "start_time": 7.652272727272727,
                "end_time": 7.752272727272727,
                "pitch": 53,
                "velocity": 51,
                "duration": 0.09999999999999964,
                "tempo": 120.0
            },
            {
                "start_time": 7.752272727272727,
                "end_time": 7.852272727272727,
                "pitch": 55,
                "velocity": 51,
                "duration": 0.09999999999999964,
                "tempo": 120.0
            },
            {
                "start_time": 7.852272727272727,
                "end_time": 7.952272727272727,
                "pitch": 53,
                "velocity": 51,
                "duration": 0.10000000000000053,
                "tempo": 120.0
            },
            {
                "start_time": 7.952272727272727,
                "end_time": 8.85681818181818,
                "pitch": 51,
                "velocity": 51,
                "duration": 0.9045454545454534,
                "tempo": 120.0
            },
            {
                "start_time": 8.85681818181818,
                "end_time": 8.959090909090909,
                "pitch": 53,
                "velocity": 51,
                "duration": 0.1022727272727284,
                "tempo": 120.0
            },
            {
                "start_time": 8.959090909090909,
                "end_time": 9.159090909090908,
                "pitch": 55,
                "velocity": 51,
                "duration": 0.1999999999999993,
                "tempo": 120.0
            },
            {
                "start_time": 9.159090909090908,
                "end_time": 9.35909090909091,
                "pitch": 53,
                "velocity": 51,
                "duration": 0.20000000000000107,
                "tempo": 120.0
            },
            {
                "start_time": 9.35909090909091,
                "end_time": 9.661363636363635,
                "pitch": 51,
                "velocity": 51,
                "duration": 0.3022727272727259,
                "tempo": 120.0
            },
            {
                "start_time": 9.661363636363635,
                "end_time": 9.861363636363636,
                "pitch": 61,
                "velocity": 51,
                "duration": 0.20000000000000107,
                "tempo": 120.0
            },
            {
                "start_time": 9.861363636363636,
                "end_time": 10.46590909090909,
                "pitch": 58,
                "velocity": 51,
                "duration": 0.6045454545454536,
                "tempo": 120.0
            },
            {
                "start_time": 10.46590909090909,
                "end_time": 11.270454545454545,
                "pitch": 55,
                "velocity": 51,
                "duration": 0.8045454545454547,
                "tempo": 120.0
            },
            {
                "start_time": 11.270454545454545,
                "end_time": 11.470454545454546,
                "pitch": 61,
                "velocity": 51,
                "duration": 0.20000000000000107,
                "tempo": 120.0
            },
            {
                "start_time": 11.470454545454546,
                "end_time": 12.072727272727272,
                "pitch": 58,
                "velocity": 51,
                "duration": 0.6022727272727266,
                "tempo": 120.0
            },
            {
                "start_time": 12.072727272727272,
                "end_time": 12.879545454545454,
                "pitch": 55,
                "velocity": 51,
                "duration": 0.8068181818181817,
                "tempo": 120.0
            },
            {
                "start_time": 12.879545454545454,
                "end_time": 14.286363636363635,
                "pitch": 48,
                "velocity": 51,
                "duration": 1.4068181818181813,
                "tempo": 120.0
            },
            {
                "start_time": 14.286363636363635,
                "end_time": 14.688636363636363,
                "pitch": 60,
                "velocity": 51,
                "duration": 0.40227272727272734,
                "tempo": 120.0
            },
            {
                "start_time": 14.688636363636363,
                "end_time": 15.488636363636363,
                "pitch": 58,
                "velocity": 51,
                "duration": 0.8000000000000007,
                "tempo": 120.0
            },
            {
                "start_time": 15.488636363636363,
                "end_time": 15.886363636363635,
                "pitch": 55,
                "velocity": 51,
                "duration": 0.3977272727272716,
                "tempo": 120.0
            },
            {
                "start_time": 15.886363636363635,
                "end_time": 16.08863636363636,
                "pitch": 58,
                "velocity": 51,
                "duration": 0.20227272727272627,
                "tempo": 120.0
            },
            {
                "start_time": 16.08863636363636,
                "end_time": 17.49090909090909,
                "pitch": 48,
                "velocity": 51,
                "duration": 1.4022727272727273,
                "tempo": 120.0
            },
            {
                "start_time": 17.49090909090909,
                "end_time": 17.893181818181816,
                "pitch": 60,
                "velocity": 51,
                "duration": 0.40227272727272734,
                "tempo": 120.0
            },
            {
                "start_time": 17.893181818181816,
                "end_time": 18.695454545454545,
                "pitch": 58,
                "velocity": 51,
                "duration": 0.8022727272727295,
                "tempo": 120.0
            },
            {
                "start_time": 18.695454545454545,
                "end_time": 19.095454545454544,
                "pitch": 55,
                "velocity": 51,
                "duration": 0.3999999999999986,
                "tempo": 120.0
            },
            {
                "start_time": 19.095454545454544,
                "end_time": 19.295454545454543,
                "pitch": 58,
                "velocity": 51,
                "duration": 0.1999999999999993,
                "tempo": 120.0
            },
            {
                "start_time": 19.295454545454543,
                "end_time": 20.7,
                "pitch": 48,
                "velocity": 51,
                "duration": 1.404545454545456,
                "tempo": 120.0
            },
            {
                "start_time": 20.7,
                "end_time": 21.10681818181818,
                "pitch": 60,
                "velocity": 51,
                "duration": 0.4068181818181813,
                "tempo": 120.0
            },
            {
                "start_time": 21.10681818181818,
                "end_time": 21.904545454545453,
                "pitch": 58,
                "velocity": 51,
                "duration": 0.797727272727272,
                "tempo": 120.0
            },
            {
                "start_time": 21.904545454545453,
                "end_time": 22.304545454545455,
                "pitch": 55,
                "velocity": 51,
                "duration": 0.40000000000000213,
                "tempo": 120.0
            },
            {
                "start_time": 22.304545454545455,
                "end_time": 22.504545454545454,
                "pitch": 58,
                "velocity": 51,
                "duration": 0.1999999999999993,
                "tempo": 120.0
            },
            {
                "start_time": 22.504545454545454,
                "end_time": 23.91590909090909,
                "pitch": 48,
                "velocity": 51,
                "duration": 1.4113636363636353,
                "tempo": 120.0
            },
            {
                "start_time": 23.91590909090909,
                "end_time": 24.31590909090909,
                "pitch": 60,
                "velocity": 51,
                "duration": 0.40000000000000213,
                "tempo": 120.0
            },
            {
                "start_time": 24.31590909090909,
                "end_time": 25.118181818181817,
                "pitch": 58,
                "velocity": 51,
                "duration": 0.8022727272727259,
                "tempo": 120.0
            },
            {
                "start_time": 25.118181818181817,
                "end_time": 25.51590909090909,
                "pitch": 55,
                "velocity": 51,
                "duration": 0.3977272727272734,
                "tempo": 120.0
            },
            {
                "start_time": 25.51590909090909,
                "end_time": 25.68409090909091,
                "pitch": 58,
                "velocity": 51,
                "duration": 0.168181818181818,
                "tempo": 120.0
            }
        ],
        "Acoustic Bass": [
            {
                "start_time": 0.0,
                "end_time": 0.049999999999999996,
                "pitch": 45,
                "velocity": 64,
                "duration": 0.049999999999999996,
                "tempo": 120.0
            },
            {
                "start_time": 0.0659090909090909,
                "end_time": 0.25,
                "pitch": 24,
                "velocity": 64,
                "duration": 0.18409090909090908,
                "tempo": 120.0
            },
            {
                "start_time": 0.2659090909090909,
                "end_time": 0.35,
                "pitch": 24,
                "velocity": 64,
                "duration": 0.0840909090909091,
                "tempo": 120.0
            },
            {
                "start_time": 0.3659090909090909,
                "end_time": 0.44999999999999996,
                "pitch": 24,
                "velocity": 64,
                "duration": 0.08409090909090905,
                "tempo": 120.0
            },
            {
                "start_time": 0.4659090909090909,
                "end_time": 0.65,
                "pitch": 36,
                "velocity": 64,
                "duration": 0.18409090909090914,
                "tempo": 120.0
            },
            {
                "start_time": 0.6659090909090909,
                "end_time": 0.75,
                "pitch": 36,
                "velocity": 64,
                "duration": 0.0840909090909091,
                "tempo": 120.0
            },
            {
                "start_time": 0.7659090909090909,
                "end_time": 0.85,
                "pitch": 36,
                "velocity": 64,
                "duration": 0.0840909090909091,
                "tempo": 120.0
            },
            {
                "start_time": 0.8659090909090909,
                "end_time": 1.05,
                "pitch": 24,
                "velocity": 64,
                "duration": 0.1840909090909092,
                "tempo": 120.0
            },
            {
                "start_time": 1.065909090909091,
                "end_time": 1.15,
                "pitch": 24,
                "velocity": 64,
                "duration": 0.084090909090909,
                "tempo": 120.0
            },
            {
                "start_time": 1.1659090909090908,
                "end_time": 1.25,
                "pitch": 24,
                "velocity": 64,
                "duration": 0.08409090909090922,
                "tempo": 120.0
            },
            {
                "start_time": 1.2659090909090909,
                "end_time": 1.45,
                "pitch": 36,
                "velocity": 64,
                "duration": 0.18409090909090908,
                "tempo": 120.0
            },
            {
                "start_time": 1.4659090909090908,
                "end_time": 1.5499999999999998,
                "pitch": 36,
                "velocity": 64,
                "duration": 0.084090909090909,
                "tempo": 120.0
            },
            {
                "start_time": 1.565909090909091,
                "end_time": 1.65,
                "pitch": 36,
                "velocity": 64,
                "duration": 0.084090909090909,
                "tempo": 120.0
            },
            {
                "start_time": 1.6681818181818182,
                "end_time": 1.8522727272727273,
                "pitch": 24,
                "velocity": 64,
                "duration": 0.18409090909090908,
                "tempo": 120.0
            },
            {
                "start_time": 1.8681818181818182,
                "end_time": 1.9522727272727272,
                "pitch": 24,
                "velocity": 64,
                "duration": 0.084090909090909,
                "tempo": 120.0
            },
            {
                "start_time": 1.968181818181818,
                "end_time": 2.0522727272727272,
                "pitch": 24,
                "velocity": 64,
                "duration": 0.08409090909090922,
                "tempo": 120.0
            },
            {
                "start_time": 2.0704545454545453,
                "end_time": 2.252272727272727,
                "pitch": 36,
                "velocity": 64,
                "duration": 0.18181818181818166,
                "tempo": 120.0
            },
            {
                "start_time": 2.2704545454545455,
                "end_time": 2.352272727272727,
                "pitch": 36,
                "velocity": 64,
                "duration": 0.08181818181818157,
                "tempo": 120.0
            },
            {
                "start_time": 2.370454545454545,
                "end_time": 2.452272727272727,
                "pitch": 36,
                "velocity": 64,
                "duration": 0.08181818181818201,
                "tempo": 120.0
            },
            {
                "start_time": 2.4704545454545452,
                "end_time": 2.6522727272727273,
                "pitch": 24,
                "velocity": 64,
                "duration": 0.1818181818181821,
                "tempo": 120.0
            },
            {
                "start_time": 2.6704545454545454,
                "end_time": 2.752272727272727,
                "pitch": 24,
                "velocity": 64,
                "duration": 0.08181818181818157,
                "tempo": 120.0
            },
            {
                "start_time": 2.7704545454545455,
                "end_time": 2.852272727272727,
                "pitch": 24,
                "velocity": 64,
                "duration": 0.08181818181818157,
                "tempo": 120.0
            },
            {
                "start_time": 2.870454545454545,
                "end_time": 3.0522727272727272,
                "pitch": 36,
                "velocity": 64,
                "duration": 0.1818181818181821,
                "tempo": 120.0
            },
            {
                "start_time": 3.0704545454545453,
                "end_time": 3.1522727272727273,
                "pitch": 36,
                "velocity": 64,
                "duration": 0.08181818181818201,
                "tempo": 120.0
            },
            {
                "start_time": 3.1704545454545454,
                "end_time": 3.252272727272727,
                "pitch": 36,
                "velocity": 64,
                "duration": 0.08181818181818157,
                "tempo": 120.0
            },
            {
                "start_time": 3.2704545454545455,
                "end_time": 3.4545454545454546,
                "pitch": 25,
                "velocity": 64,
                "duration": 0.18409090909090908,
                "tempo": 120.0
            },
            {
                "start_time": 3.4704545454545452,
                "end_time": 3.5545454545454542,
                "pitch": 25,
                "velocity": 64,
                "duration": 0.084090909090909,
                "tempo": 120.0
            },
            {
                "start_time": 3.5727272727272728,
                "end_time": 3.6545454545454543,
                "pitch": 25,
                "velocity": 64,
                "duration": 0.08181818181818157,
                "tempo": 120.0
            },
            {
                "start_time": 3.6727272727272724,
                "end_time": 3.8545454545454545,
                "pitch": 37,
                "velocity": 64,
                "duration": 0.1818181818181821,
                "tempo": 120.0
            },
            {
                "start_time": 3.8727272727272726,
                "end_time": 3.954545454545454,
                "pitch": 37,
                "velocity": 64,
                "duration": 0.08181818181818157,
                "tempo": 120.0
            },
            {
                "start_time": 3.9727272727272727,
                "end_time": 4.054545454545455,
                "pitch": 37,
                "velocity": 64,
                "duration": 0.08181818181818201,
                "tempo": 120.0
            },
            {
                "start_time": 4.072727272727272,
                "end_time": 4.254545454545454,
                "pitch": 25,
                "velocity": 64,
                "duration": 0.18181818181818166,
                "tempo": 120.0
            },
            {
                "start_time": 4.2727272727272725,
                "end_time": 4.3545454545454545,
                "pitch": 25,
                "velocity": 64,
                "duration": 0.08181818181818201,
                "tempo": 120.0
            },
            {
                "start_time": 4.372727272727272,
                "end_time": 4.456818181818182,
                "pitch": 25,
                "velocity": 64,
                "duration": 0.08409090909090988,
                "tempo": 120.0
            },
            {
                "start_time": 4.472727272727273,
                "end_time": 4.656818181818181,
                "pitch": 37,
                "velocity": 64,
                "duration": 0.18409090909090864,
                "tempo": 120.0
            },
            {
                "start_time": 4.672727272727273,
                "end_time": 4.756818181818182,
                "pitch": 37,
                "velocity": 64,
                "duration": 0.084090909090909,
                "tempo": 120.0
            },
            {
                "start_time": 4.7749999999999995,
                "end_time": 4.8590909090909085,
                "pitch": 37,
                "velocity": 64,
                "duration": 0.084090909090909,
                "tempo": 120.0
            },
            {
                "start_time": 4.875,
                "end_time": 5.059090909090909,
                "pitch": 25,
                "velocity": 64,
                "duration": 0.18409090909090864,
                "tempo": 120.0
            },
            {
                "start_time": 5.075,
                "end_time": 5.159090909090909,
                "pitch": 25,
                "velocity": 64,
                "duration": 0.084090909090909,
                "tempo": 120.0
            },
            {
                "start_time": 5.175,
                "end_time": 5.259090909090909,
                "pitch": 25,
                "velocity": 64,
                "duration": 0.084090909090909,
                "tempo": 120.0
            },
            {
                "start_time": 5.2749999999999995,
                "end_time": 5.459090909090909,
                "pitch": 37,
                "velocity": 64,
                "duration": 0.18409090909090953,
                "tempo": 120.0
            },
            {
                "start_time": 5.477272727272727,
                "end_time": 5.5613636363636365,
                "pitch": 37,
                "velocity": 64,
                "duration": 0.08409090909090988,
                "tempo": 120.0
            },
            {
                "start_time": 5.577272727272727,
                "end_time": 5.661363636363636,
                "pitch": 37,
                "velocity": 64,
                "duration": 0.084090909090909,
                "tempo": 120.0
            },
            {
                "start_time": 5.677272727272727,
                "end_time": 5.861363636363636,
                "pitch": 25,
                "velocity": 64,
                "duration": 0.18409090909090953,
                "tempo": 120.0
            },
            {
                "start_time": 5.877272727272727,
                "end_time": 5.961363636363636,
                "pitch": 25,
                "velocity": 64,
                "duration": 0.084090909090909,
                "tempo": 120.0
            },
            {
                "start_time": 5.977272727272727,
                "end_time": 6.0613636363636365,
                "pitch": 25,
                "velocity": 64,
                "duration": 0.08409090909090988,
                "tempo": 120.0
            },
            {
                "start_time": 6.077272727272727,
                "end_time": 6.261363636363636,
                "pitch": 37,
                "velocity": 64,
                "duration": 0.18409090909090864,
                "tempo": 120.0
            },
            {
                "start_time": 6.279545454545454,
                "end_time": 6.363636363636363,
                "pitch": 37,
                "velocity": 64,
                "duration": 0.084090909090909,
                "tempo": 120.0
            },
            {
                "start_time": 6.379545454545454,
                "end_time": 6.463636363636363,
                "pitch": 37,
                "velocity": 64,
                "duration": 0.084090909090909,
                "tempo": 120.0
            },
            {
                "start_time": 6.4795454545454545,
                "end_time": 6.665909090909091,
                "pitch": 24,
                "velocity": 64,
                "duration": 0.1863636363636365,
                "tempo": 120.0
            },
            {
                "start_time": 6.681818181818182,
                "end_time": 6.765909090909091,
                "pitch": 24,
                "velocity": 64,
                "duration": 0.084090909090909,
                "tempo": 120.0
            },
            {
                "start_time": 6.781818181818181,
                "end_time": 6.86590909090909,
                "pitch": 24,
                "velocity": 64,
                "duration": 0.084090909090909,
                "tempo": 120.0
            },
            {
                "start_time": 6.881818181818182,
                "end_time": 7.0659090909090905,
                "pitch": 36,
                "velocity": 64,
                "duration": 0.18409090909090864,
                "tempo": 120.0
            },
            {
                "start_time": 7.081818181818181,
                "end_time": 7.16590909090909,
                "pitch": 36,
                "velocity": 64,
                "duration": 0.084090909090909,
                "tempo": 120.0
            },
            {
                "start_time": 7.181818181818182,
                "end_time": 7.265909090909091,
                "pitch": 36,
                "velocity": 64,
                "duration": 0.084090909090909,
                "tempo": 120.0
            },
            {
                "start_time": 7.284090909090909,
                "end_time": 7.468181818181818,
                "pitch": 24,
                "velocity": 64,
                "duration": 0.18409090909090864,
                "tempo": 120.0
            },
            {
                "start_time": 7.4840909090909085,
                "end_time": 7.5681818181818175,
                "pitch": 24,
                "velocity": 64,
                "duration": 0.084090909090909,
                "tempo": 120.0
            },
            {
                "start_time": 7.586363636363636,
                "end_time": 7.668181818181818,
                "pitch": 24,
                "velocity": 64,
                "duration": 0.08181818181818201,
                "tempo": 120.0
            },
            {
                "start_time": 7.686363636363636,
                "end_time": 7.868181818181818,
                "pitch": 36,
                "velocity": 64,
                "duration": 0.18181818181818254,
                "tempo": 120.0
            },
            {
                "start_time": 7.886363636363636,
                "end_time": 7.968181818181818,
                "pitch": 36,
                "velocity": 64,
                "duration": 0.08181818181818201,
                "tempo": 120.0
            },
            {
                "start_time": 7.986363636363636,
                "end_time": 8.068181818181818,
                "pitch": 36,
                "velocity": 64,
                "duration": 0.08181818181818201,
                "tempo": 120.0
            },
            {
                "start_time": 8.086363636363636,
                "end_time": 8.270454545454545,
                "pitch": 24,
                "velocity": 64,
                "duration": 0.18409090909090864,
                "tempo": 120.0
            },
            {
                "start_time": 8.286363636363635,
                "end_time": 8.370454545454544,
                "pitch": 24,
                "velocity": 64,
                "duration": 0.084090909090909,
                "tempo": 120.0
            },
            {
                "start_time": 8.388636363636364,
                "end_time": 8.472727272727273,
                "pitch": 24,
                "velocity": 64,
                "duration": 0.084090909090909,
                "tempo": 120.0
            },
            {
                "start_time": 8.488636363636363,
                "end_time": 8.672727272727272,
                "pitch": 36,
                "velocity": 64,
                "duration": 0.18409090909090864,
                "tempo": 120.0
            },
            {
                "start_time": 8.690909090909091,
                "end_time": 8.772727272727272,
                "pitch": 36,
                "velocity": 64,
                "duration": 0.08181818181818024,
                "tempo": 120.0
            },
            {
                "start_time": 8.790909090909091,
                "end_time": 8.875,
                "pitch": 36,
                "velocity": 64,
                "duration": 0.084090909090909,
                "tempo": 120.0
            },
            {
                "start_time": 8.89090909090909,
                "end_time": 9.075,
                "pitch": 24,
                "velocity": 64,
                "duration": 0.18409090909090864,
                "tempo": 120.0
            },
            {
                "start_time": 9.093181818181817,
                "end_time": 9.177272727272728,
                "pitch": 24,
                "velocity": 64,
                "duration": 0.08409090909091077,
                "tempo": 120.0
            },
            {
                "start_time": 9.193181818181818,
                "end_time": 9.277272727272727,
                "pitch": 24,
                "velocity": 64,
                "duration": 0.084090909090909,
                "tempo": 120.0
            },
            {
                "start_time": 9.293181818181818,
                "end_time": 9.477272727272727,
                "pitch": 36,
                "velocity": 64,
                "duration": 0.18409090909090864,
                "tempo": 120.0
            },
            {
                "start_time": 9.493181818181817,
                "end_time": 9.577272727272726,
                "pitch": 36,
                "velocity": 64,
                "duration": 0.084090909090909,
                "tempo": 120.0
            },
            {
                "start_time": 9.593181818181817,
                "end_time": 9.677272727272726,
                "pitch": 36,
                "velocity": 64,
                "duration": 0.084090909090909,
                "tempo": 120.0
            },
            {
                "start_time": 9.693181818181818,
                "end_time": 9.879545454545454,
                "pitch": 25,
                "velocity": 64,
                "duration": 0.18636363636363562,
                "tempo": 120.0
            },
            {
                "start_time": 9.895454545454545,
                "end_time": 9.979545454545454,
                "pitch": 25,
                "velocity": 64,
                "duration": 0.084090909090909,
                "tempo": 120.0
            },
            {
                "start_time": 9.995454545454544,
                "end_time": 10.079545454545453,
                "pitch": 25,
                "velocity": 64,
                "duration": 0.084090909090909,
                "tempo": 120.0
            },
            {
                "start_time": 10.097727272727273,
                "end_time": 10.281818181818181,
                "pitch": 37,
                "velocity": 64,
                "duration": 0.18409090909090864,
                "tempo": 120.0
            },
            {
                "start_time": 10.297727272727272,
                "end_time": 10.381818181818181,
                "pitch": 37,
                "velocity": 64,
                "duration": 0.084090909090909,
                "tempo": 120.0
            },
            {
                "start_time": 10.397727272727272,
                "end_time": 10.48181818181818,
                "pitch": 37,
                "velocity": 64,
                "duration": 0.084090909090909,
                "tempo": 120.0
            },
            {
                "start_time": 10.5,
                "end_time": 10.684090909090909,
                "pitch": 25,
                "velocity": 64,
                "duration": 0.18409090909090864,
                "tempo": 120.0
            },
            {
                "start_time": 10.7,
                "end_time": 10.784090909090908,
                "pitch": 25,
                "velocity": 64,
                "duration": 0.084090909090909,
                "tempo": 120.0
            },
            {
                "start_time": 10.802272727272726,
                "end_time": 10.886363636363637,
                "pitch": 25,
                "velocity": 64,
                "duration": 0.08409090909091077,
                "tempo": 120.0
            },
            {
                "start_time": 10.902272727272727,
                "end_time": 11.086363636363636,
                "pitch": 37,
                "velocity": 64,
                "duration": 0.18409090909090864,
                "tempo": 120.0
            },
            {
                "start_time": 11.102272727272727,
                "end_time": 11.186363636363636,
                "pitch": 37,
                "velocity": 64,
                "duration": 0.084090909090909,
                "tempo": 120.0
            },
            {
                "start_time": 11.204545454545453,
                "end_time": 11.288636363636362,
                "pitch": 37,
                "velocity": 64,
                "duration": 0.084090909090909,
                "tempo": 120.0
            },
            {
                "start_time": 11.304545454545455,
                "end_time": 11.488636363636363,
                "pitch": 25,
                "velocity": 64,
                "duration": 0.18409090909090864,
                "tempo": 120.0
            },
            {
                "start_time": 11.504545454545454,
                "end_time": 11.588636363636363,
                "pitch": 25,
                "velocity": 64,
                "duration": 0.084090909090909,
                "tempo": 120.0
            },
            {
                "start_time": 11.604545454545454,
                "end_time": 11.688636363636363,
                "pitch": 25,
                "velocity": 64,
                "duration": 0.084090909090909,
                "tempo": 120.0
            },
            {
                "start_time": 11.704545454545453,
                "end_time": 11.888636363636364,
                "pitch": 37,
                "velocity": 64,
                "duration": 0.18409090909091042,
                "tempo": 120.0
            },
            {
                "start_time": 11.906818181818181,
                "end_time": 11.99090909090909,
                "pitch": 37,
                "velocity": 64,
                "duration": 0.084090909090909,
                "tempo": 120.0
            },
            {
                "start_time": 12.006818181818181,
                "end_time": 12.09090909090909,
                "pitch": 37,
                "velocity": 64,
                "duration": 0.084090909090909,
                "tempo": 120.0
            },
            {
                "start_time": 12.10681818181818,
                "end_time": 12.290909090909091,
                "pitch": 25,
                "velocity": 64,
                "duration": 0.18409090909091042,
                "tempo": 120.0
            },
            {
                "start_time": 12.309090909090909,
                "end_time": 12.393181818181818,
                "pitch": 25,
                "velocity": 64,
                "duration": 0.084090909090909,
                "tempo": 120.0
            },
            {
                "start_time": 12.409090909090908,
                "end_time": 12.493181818181817,
                "pitch": 25,
                "velocity": 64,
                "duration": 0.084090909090909,
                "tempo": 120.0
            },
            {
                "start_time": 12.509090909090908,
                "end_time": 12.695454545454545,
                "pitch": 37,
                "velocity": 64,
                "duration": 0.1863636363636374,
                "tempo": 120.0
            },
            {
                "start_time": 12.711363636363636,
                "end_time": 12.795454545454545,
                "pitch": 37,
                "velocity": 64,
                "duration": 0.084090909090909,
                "tempo": 120.0
            },
            {
                "start_time": 12.811363636363636,
                "end_time": 12.895454545454545,
                "pitch": 37,
                "velocity": 64,
                "duration": 0.084090909090909,
                "tempo": 120.0
            },
            {
                "start_time": 12.913636363636362,
                "end_time": 13.097727272727273,
                "pitch": 60,
                "velocity": 64,
                "duration": 0.18409090909091042,
                "tempo": 120.0
            },
            {
                "start_time": 13.113636363636363,
                "end_time": 13.297727272727272,
                "pitch": 63,
                "velocity": 64,
                "duration": 0.18409090909090864,
                "tempo": 120.0
            },
            {
                "start_time": 13.31590909090909,
                "end_time": 13.497727272727271,
                "pitch": 67,
                "velocity": 64,
                "duration": 0.18181818181818166,
                "tempo": 120.0
            },
            {
                "start_time": 13.51590909090909,
                "end_time": 13.697727272727272,
                "pitch": 70,
                "velocity": 64,
                "duration": 0.18181818181818166,
                "tempo": 120.0
            },
            {
                "start_time": 13.71590909090909,
                "end_time": 13.899999999999999,
                "pitch": 58,
                "velocity": 64,
                "duration": 0.18409090909090864,
                "tempo": 120.0
            },
            {
                "start_time": 13.915909090909091,
                "end_time": 14.102272727272727,
                "pitch": 61,
                "velocity": 64,
                "duration": 0.18636363636363562,
                "tempo": 120.0
            },
            {
                "start_time": 14.118181818181817,
                "end_time": 14.302272727272726,
                "pitch": 65,
                "velocity": 64,
                "duration": 0.18409090909090864,
                "tempo": 120.0
            },
            {
                "start_time": 14.320454545454545,
                "end_time": 14.504545454545454,
                "pitch": 68,
                "velocity": 64,
                "duration": 0.18409090909090864,
                "tempo": 120.0
            },
            {
                "start_time": 14.520454545454545,
                "end_time": 14.704545454545453,
                "pitch": 55,
                "velocity": 64,
                "duration": 0.18409090909090864,
                "tempo": 120.0
            },
            {
                "start_time": 14.722727272727273,
                "end_time": 14.906818181818181,
                "pitch": 58,
                "velocity": 64,
                "duration": 0.18409090909090864,
                "tempo": 120.0
            },
            {
                "start_time": 14.922727272727272,
                "end_time": 15.109090909090908,
                "pitch": 61,
                "velocity": 64,
                "duration": 0.18636363636363562,
                "tempo": 120.0
            },
            {
                "start_time": 15.125,
                "end_time": 15.306818181818182,
                "pitch": 65,
                "velocity": 64,
                "duration": 0.18181818181818166,
                "tempo": 120.0
            },
            {
                "start_time": 15.325,
                "end_time": 15.504545454545454,
                "pitch": 56,
                "velocity": 64,
                "duration": 0.17954545454545467,
                "tempo": 120.0
            },
            {
                "start_time": 15.520454545454545,
                "end_time": 15.702272727272726,
                "pitch": 60,
                "velocity": 64,
                "duration": 0.18181818181818166,
                "tempo": 120.0
            },
            {
                "start_time": 15.718181818181817,
                "end_time": 15.902272727272727,
                "pitch": 63,
                "velocity": 64,
                "duration": 0.18409090909091042,
                "tempo": 120.0
            },
            {
                "start_time": 15.920454545454545,
                "end_time": 16.104545454545455,
                "pitch": 67,
                "velocity": 64,
                "duration": 0.18409090909091042,
                "tempo": 120.0
            },
            {
                "start_time": 16.12272727272727,
                "end_time": 16.311363636363634,
                "pitch": 60,
                "velocity": 64,
                "duration": 0.1886363636363626,
                "tempo": 120.0
            },
            {
                "start_time": 16.327272727272728,
                "end_time": 16.513636363636362,
                "pitch": 63,
                "velocity": 64,
                "duration": 0.18636363636363384,
                "tempo": 120.0
            },
            {
                "start_time": 16.529545454545453,
                "end_time": 16.709090909090907,
                "pitch": 67,
                "velocity": 64,
                "duration": 0.17954545454545467,
                "tempo": 120.0
            },
            {
                "start_time": 16.724999999999998,
                "end_time": 16.90681818181818,
                "pitch": 70,
                "velocity": 64,
                "duration": 0.18181818181818343,
                "tempo": 120.0
            },
            {
                "start_time": 16.922727272727272,
                "end_time": 17.10681818181818,
                "pitch": 58,
                "velocity": 64,
                "duration": 0.18409090909090864,
                "tempo": 120.0
            },
            {
                "start_time": 17.12272727272727,
                "end_time": 17.30681818181818,
                "pitch": 61,
                "velocity": 64,
                "duration": 0.18409090909090864,
                "tempo": 120.0
            },
            {
                "start_time": 17.325,
                "end_time": 17.509090909090908,
                "pitch": 65,
                "velocity": 64,
                "duration": 0.18409090909090864,
                "tempo": 120.0
            },
            {
                "start_time": 17.525,
                "end_time": 17.709090909090907,
                "pitch": 68,
                "velocity": 64,
                "duration": 0.18409090909090864,
                "tempo": 120.0
            },
            {
                "start_time": 17.724999999999998,
                "end_time": 17.909090909090907,
                "pitch": 55,
                "velocity": 64,
                "duration": 0.18409090909090864,
                "tempo": 120.0
            },
            {
                "start_time": 17.925,
                "end_time": 18.10909090909091,
                "pitch": 58,
                "velocity": 64,
                "duration": 0.18409090909090864,
                "tempo": 120.0
            },
            {
                "start_time": 18.125,
                "end_time": 18.30909090909091,
                "pitch": 61,
                "velocity": 64,
                "duration": 0.18409090909090864,
                "tempo": 120.0
            },
            {
                "start_time": 18.325,
                "end_time": 18.509090909090908,
                "pitch": 65,
                "velocity": 64,
                "duration": 0.18409090909090864,
                "tempo": 120.0
            },
            {
                "start_time": 18.527272727272727,
                "end_time": 18.711363636363636,
                "pitch": 56,
                "velocity": 64,
                "duration": 0.18409090909090864,
                "tempo": 120.0
            },
            {
                "start_time": 18.727272727272727,
                "end_time": 18.911363636363635,
                "pitch": 60,
                "velocity": 64,
                "duration": 0.18409090909090864,
                "tempo": 120.0
            },
            {
                "start_time": 18.929545454545455,
                "end_time": 19.111363636363635,
                "pitch": 63,
                "velocity": 64,
                "duration": 0.18181818181817988,
                "tempo": 120.0
            },
            {
                "start_time": 19.129545454545454,
                "end_time": 19.313636363636363,
                "pitch": 67,
                "velocity": 64,
                "duration": 0.18409090909090864,
                "tempo": 120.0
            },
            {
                "start_time": 19.329545454545453,
                "end_time": 19.513636363636362,
                "pitch": 60,
                "velocity": 64,
                "duration": 0.18409090909090864,
                "tempo": 120.0
            },
            {
                "start_time": 19.529545454545453,
                "end_time": 19.71590909090909,
                "pitch": 63,
                "velocity": 64,
                "duration": 0.1863636363636374,
                "tempo": 120.0
            },
            {
                "start_time": 19.73181818181818,
                "end_time": 19.91590909090909,
                "pitch": 67,
                "velocity": 64,
                "duration": 0.18409090909090864,
                "tempo": 120.0
            },
            {
                "start_time": 19.93181818181818,
                "end_time": 20.11590909090909,
                "pitch": 70,
                "velocity": 64,
                "duration": 0.18409090909090864,
                "tempo": 120.0
            },
            {
                "start_time": 20.13181818181818,
                "end_time": 20.31590909090909,
                "pitch": 58,
                "velocity": 64,
                "duration": 0.1840909090909122,
                "tempo": 120.0
            },
            {
                "start_time": 20.331818181818182,
                "end_time": 20.51590909090909,
                "pitch": 61,
                "velocity": 64,
                "duration": 0.18409090909090864,
                "tempo": 120.0
            },
            {
                "start_time": 20.53181818181818,
                "end_time": 20.71590909090909,
                "pitch": 65,
                "velocity": 64,
                "duration": 0.18409090909090864,
                "tempo": 120.0
            },
            {
                "start_time": 20.73409090909091,
                "end_time": 20.918181818181818,
                "pitch": 68,
                "velocity": 64,
                "duration": 0.18409090909090864,
                "tempo": 120.0
            },
            {
                "start_time": 20.936363636363634,
                "end_time": 21.125,
                "pitch": 55,
                "velocity": 64,
                "duration": 0.18863636363636616,
                "tempo": 120.0
            },
            {
                "start_time": 21.14090909090909,
                "end_time": 21.327272727272724,
                "pitch": 58,
                "velocity": 64,
                "duration": 0.18636363636363384,
                "tempo": 120.0
            },
            {
                "start_time": 21.34318181818182,
                "end_time": 21.522727272727273,
                "pitch": 61,
                "velocity": 64,
                "duration": 0.17954545454545467,
                "tempo": 120.0
            },
            {
                "start_time": 21.538636363636364,
                "end_time": 21.720454545454544,
                "pitch": 65,
                "velocity": 64,
                "duration": 0.18181818181817988,
                "tempo": 120.0
            },
            {
                "start_time": 21.736363636363635,
                "end_time": 21.920454545454543,
                "pitch": 56,
                "velocity": 64,
                "duration": 0.18409090909090864,
                "tempo": 120.0
            },
            {
                "start_time": 21.936363636363634,
                "end_time": 22.120454545454546,
                "pitch": 60,
                "velocity": 64,
                "duration": 0.1840909090909122,
                "tempo": 120.0
            },
            {
                "start_time": 22.136363636363637,
                "end_time": 22.320454545454545,
                "pitch": 63,
                "velocity": 64,
                "duration": 0.18409090909090864,
                "tempo": 120.0
            },
            {
                "start_time": 22.336363636363636,
                "end_time": 22.522727272727273,
                "pitch": 67,
                "velocity": 64,
                "duration": 0.1863636363636374,
                "tempo": 120.0
            },
            {
                "start_time": 22.538636363636364,
                "end_time": 22.727272727272727,
                "pitch": 60,
                "velocity": 64,
                "duration": 0.1886363636363626,
                "tempo": 120.0
            },
            {
                "start_time": 22.745454545454546,
                "end_time": 22.929545454545455,
                "pitch": 63,
                "velocity": 64,
                "duration": 0.18409090909090864,
                "tempo": 120.0
            },
            {
                "start_time": 22.945454545454545,
                "end_time": 23.125,
                "pitch": 67,
                "velocity": 64,
                "duration": 0.17954545454545467,
                "tempo": 120.0
            },
            {
                "start_time": 23.143181818181816,
                "end_time": 23.32272727272727,
                "pitch": 70,
                "velocity": 64,
                "duration": 0.17954545454545467,
                "tempo": 120.0
            },
            {
                "start_time": 23.34090909090909,
                "end_time": 23.525,
                "pitch": 58,
                "velocity": 64,
                "duration": 0.18409090909090864,
                "tempo": 120.0
            },
            {
                "start_time": 23.54090909090909,
                "end_time": 23.727272727272727,
                "pitch": 61,
                "velocity": 64,
                "duration": 0.1863636363636374,
                "tempo": 120.0
            },
            {
                "start_time": 23.745454545454546,
                "end_time": 23.93181818181818,
                "pitch": 65,
                "velocity": 64,
                "duration": 0.18636363636363384,
                "tempo": 120.0
            },
            {
                "start_time": 23.95,
                "end_time": 24.136363636363637,
                "pitch": 68,
                "velocity": 64,
                "duration": 0.1863636363636374,
                "tempo": 120.0
            },
            {
                "start_time": 24.152272727272727,
                "end_time": 24.331818181818182,
                "pitch": 55,
                "velocity": 64,
                "duration": 0.17954545454545467,
                "tempo": 120.0
            },
            {
                "start_time": 24.347727272727273,
                "end_time": 24.529545454545453,
                "pitch": 58,
                "velocity": 64,
                "duration": 0.18181818181817988,
                "tempo": 120.0
            },
            {
                "start_time": 24.547727272727272,
                "end_time": 24.736363636363635,
                "pitch": 61,
                "velocity": 64,
                "duration": 0.1886363636363626,
                "tempo": 120.0
            },
            {
                "start_time": 24.752272727272725,
                "end_time": 24.938636363636363,
                "pitch": 65,
                "velocity": 64,
                "duration": 0.1863636363636374,
                "tempo": 120.0
            },
            {
                "start_time": 24.954545454545453,
                "end_time": 25.134090909090908,
                "pitch": 56,
                "velocity": 64,
                "duration": 0.17954545454545467,
                "tempo": 120.0
            },
            {
                "start_time": 25.15,
                "end_time": 25.331818181818182,
                "pitch": 60,
                "velocity": 64,
                "duration": 0.18181818181818343,
                "tempo": 120.0
            },
            {
                "start_time": 25.347727272727273,
                "end_time": 25.534090909090907,
                "pitch": 63,
                "velocity": 64,
                "duration": 0.18636363636363384,
                "tempo": 120.0
            },
            {
                "start_time": 25.549999999999997,
                "end_time": 25.68409090909091,
                "pitch": 67,
                "velocity": 64,
                "duration": 0.13409090909091148,
                "tempo": 120.0
            }
        ]
    }
}