{
    "track_id": "Kenseiden (FM) - 12 - Warlock Battle",
    "mood": "angry",
    "instruments": {
        "Harpsichord": [
            {
                "start_time": 0.0,
                "end_time": 0.05454545454545454,
                "pitch": 53,
                "velocity": 51,
                "duration": 0.05454545454545454,
                "tempo": 120.0
            },
            {
                "start_time": 0.0659090909090909,
                "end_time": 0.8909090909090909,
                "pitch": 48,
                "velocity": 51,
                "duration": 0.825,
                "tempo": 120.0
            },
            {
                "start_time": 0.9068181818181817,
                "end_time": 1.0409090909090908,
                "pitch": 46,
                "velocity": 51,
                "duration": 0.13409090909090904,
                "tempo": 120.0
            },
            {
                "start_time": 1.059090909090909,
                "end_time": 1.9454545454545453,
                "pitch": 48,
                "velocity": 51,
                "duration": 0.8863636363636362,
                "tempo": 120.0
            },
            {
                "start_time": 1.9613636363636362,
                "end_time": 2.2477272727272726,
                "pitch": 43,
                "velocity": 51,
                "duration": 0.2863636363636364,
                "tempo": 120.0
            },
            {
                "start_time": 2.2636363636363637,
                "end_time": 2.4,
                "pitch": 41,
                "velocity": 51,
                "duration": 0.13636363636363624,
                "tempo": 120.0
            },
            {
                "start_time": 2.415909090909091,
                "end_time": 3.1568181818181817,
                "pitch": 39,
                "velocity": 51,
                "duration": 0.7409090909090907,
                "tempo": 120.0
            },
            {
                "start_time": 3.1727272727272724,
                "end_time": 3.6068181818181815,
                "pitch": 41,
                "velocity": 51,
                "duration": 0.4340909090909091,
                "tempo": 120.0
            },
            {
                "start_time": 3.625,
                "end_time": 4.818181818181818,
                "pitch": 43,
                "velocity": 51,
                "duration": 1.1931818181818183,
                "tempo": 120.0
            },
            {
                "start_time": 4.834090909090909,
                "end_time": 5.720454545454545,
                "pitch": 49,
                "velocity": 51,
                "duration": 0.8863636363636358,
                "tempo": 120.0
            },
            {
                "start_time": 5.736363636363636,
                "end_time": 5.872727272727272,
                "pitch": 48,
                "velocity": 51,
                "duration": 0.1363636363636358,
                "tempo": 120.0
            },
            {
                "start_time": 5.888636363636364,
                "end_time": 6.0227272727272725,
                "pitch": 49,
                "velocity": 51,
                "duration": 0.13409090909090882,
                "tempo": 120.0
            },
            {
                "start_time": 6.040909090909091,
                "end_time": 6.475,
                "pitch": 53,
                "velocity": 51,
                "duration": 0.43409090909090864,
                "tempo": 120.0
            },
            {
                "start_time": 6.493181818181818,
                "end_time": 6.7749999999999995,
                "pitch": 53,
                "velocity": 51,
                "duration": 0.2818181818181813,
                "tempo": 120.0
            },
            {
                "start_time": 6.793181818181818,
                "end_time": 6.927272727272727,
                "pitch": 48,
                "velocity": 51,
                "duration": 0.13409090909090882,
                "tempo": 120.0
            },
            {
                "start_time": 6.9431818181818175,
                "end_time": 7.077272727272727,
                "pitch": 49,
                "velocity": 51,
                "duration": 0.1340909090909097,
                "tempo": 120.0
            },
            {
                "start_time": 7.095454545454545,
                "end_time": 8.131818181818181,
                "pitch": 53,
                "velocity": 51,
                "duration": 1.0363636363636362,
                "tempo": 120.0
            },
            {
                "start_time": 8.147727272727272,
                "end_time": 8.281818181818181,
                "pitch": 53,
                "velocity": 51,
                "duration": 0.1340909090909097,
                "tempo": 120.0
            },
            {
                "start_time": 8.297727272727272,
                "end_time": 8.431818181818182,
                "pitch": 53,
                "velocity": 51,
                "duration": 0.1340909090909097,
                "tempo": 120.0
            },
            {
                "start_time": 8.447727272727272,
                "end_time": 8.881818181818181,
                "pitch": 49,
                "velocity": 51,
                "duration": 0.43409090909090864,
                "tempo": 120.0
            },
            {
                "start_time": 8.897727272727272,
                "end_time": 9.181818181818182,
                "pitch": 51,
                "velocity": 51,
                "duration": 0.28409090909091006,
                "tempo": 120.0
            },
            {
                "start_time": 9.197727272727272,
                "end_time": 9.331818181818182,
                "pitch": 49,
                "velocity": 51,
                "duration": 0.1340909090909097,
                "tempo": 120.0
            },
            {
                "start_time": 9.35,
                "end_time": 9.636363636363637,
                "pitch": 48,
                "velocity": 51,
                "duration": 0.28636363636363704,
                "tempo": 120.0
            },
            {
                "start_time": 9.652272727272727,
                "end_time": 10.538636363636362,
                "pitch": 48,
                "velocity": 51,
                "duration": 0.8863636363636349,
                "tempo": 120.0
            },
            {
                "start_time": 10.554545454545455,
                "end_time": 10.688636363636363,
                "pitch": 46,
                "velocity": 51,
                "duration": 0.13409090909090793,
                "tempo": 120.0
            },
            {
                "start_time": 10.704545454545453,
                "end_time": 11.738636363636363,
                "pitch": 48,
                "velocity": 51,
                "duration": 1.03409090909091,
                "tempo": 120.0
            },
            {
                "start_time": 11.754545454545454,
                "end_time": 11.888636363636364,
                "pitch": 41,
                "velocity": 51,
                "duration": 0.1340909090909097,
                "tempo": 120.0
            },
            {
                "start_time": 11.904545454545454,
                "end_time": 12.793181818181818,
                "pitch": 43,
                "velocity": 51,
                "duration": 0.8886363636363637,
                "tempo": 120.0
            },
            {
                "start_time": 12.809090909090909,
                "end_time": 12.943181818181818,
                "pitch": 41,
                "velocity": 51,
                "duration": 0.1340909090909097,
                "tempo": 120.0
            },
            {
                "start_time": 12.961363636363636,
                "end_time": 13.093181818181817,
                "pitch": 43,
                "velocity": 51,
                "duration": 0.13181818181818095,
                "tempo": 120.0
            },
            {
                "start_time": 13.111363636363636,
                "end_time": 13.243181818181817,
                "pitch": 46,
                "velocity": 51,
                "duration": 0.13181818181818095,
                "tempo": 120.0
            },
            {
                "start_time": 13.261363636363635,
                "end_time": 13.393181818181818,
                "pitch": 46,
                "velocity": 51,
                "duration": 0.13181818181818272,
                "tempo": 120.0
            },
            {
                "start_time": 13.411363636363635,
                "end_time": 13.543181818181818,
                "pitch": 46,
                "velocity": 51,
                "duration": 0.13181818181818272,
                "tempo": 120.0
            },
            {
                "start_time": 13.561363636363636,
                "end_time": 13.693181818181818,
                "pitch": 46,
                "velocity": 51,
                "duration": 0.13181818181818272,
                "tempo": 120.0
            },
            {
                "start_time": 13.711363636363636,
                "end_time": 13.843181818181817,
                "pitch": 46,
                "velocity": 51,
                "duration": 0.13181818181818095,
                "tempo": 120.0
            },
            {
                "start_time": 13.861363636363636,
                "end_time": 13.993181818181817,
                "pitch": 43,
                "velocity": 51,
                "duration": 0.13181818181818095,
                "tempo": 120.0
            },
            {
                "start_time": 14.011363636363635,
                "end_time": 14.143181818181818,
                "pitch": 46,
                "velocity": 51,
                "duration": 0.13181818181818272,
                "tempo": 120.0
            },
            {
                "start_time": 14.161363636363635,
                "end_time": 14.443181818181818,
                "pitch": 48,
                "velocity": 51,
                "duration": 0.2818181818181831,
                "tempo": 120.0
            },
            {
                "start_time": 14.461363636363636,
                "end_time": 15.193181818181817,
                "pitch": 49,
                "velocity": 51,
                "duration": 0.7318181818181806,
                "tempo": 120.0
            },
            {
                "start_time": 15.211363636363636,
                "end_time": 15.345454545454544,
                "pitch": 48,
                "velocity": 51,
                "duration": 0.13409090909090793,
                "tempo": 120.0
            },
            {
                "start_time": 15.361363636363636,
                "end_time": 15.495454545454544,
                "pitch": 49,
                "velocity": 51,
                "duration": 0.13409090909090793,
                "tempo": 120.0
            },
            {
                "start_time": 15.513636363636364,
                "end_time": 15.647727272727272,
                "pitch": 53,
                "velocity": 51,
                "duration": 0.13409090909090793,
                "tempo": 120.0
            },
            {
                "start_time": 15.663636363636362,
                "end_time": 16.099999999999998,
                "pitch": 51,
                "velocity": 51,
                "duration": 0.4363636363636356,
                "tempo": 120.0
            },
            {
                "start_time": 16.11590909090909,
                "end_time": 16.849999999999998,
                "pitch": 51,
                "velocity": 51,
                "duration": 0.7340909090909093,
                "tempo": 120.0
            },
            {
                "start_time": 16.86590909090909,
                "end_time": 17.302272727272726,
                "pitch": 48,
                "velocity": 51,
                "duration": 0.4363636363636374,
                "tempo": 120.0
            },
            {
                "start_time": 17.318181818181817,
                "end_time": 17.756818181818183,
                "pitch": 49,
                "velocity": 51,
                "duration": 0.43863636363636616,
                "tempo": 120.0
            },
            {
                "start_time": 17.772727272727273,
                "end_time": 18.05681818181818,
                "pitch": 51,
                "velocity": 51,
                "duration": 0.2840909090909065,
                "tempo": 120.0
            },
            {
                "start_time": 18.07272727272727,
                "end_time": 18.509090909090908,
                "pitch": 48,
                "velocity": 51,
                "duration": 0.4363636363636374,
                "tempo": 120.0
            },
            {
                "start_time": 18.525,
                "end_time": 19.261363636363637,
                "pitch": 49,
                "velocity": 51,
                "duration": 0.7363636363636381,
                "tempo": 120.0
            },
            {
                "start_time": 19.279545454545453,
                "end_time": 19.411363636363635,
                "pitch": 48,
                "velocity": 51,
                "duration": 0.13181818181818272,
                "tempo": 120.0
            },
            {
                "start_time": 19.429545454545455,
                "end_time": 19.563636363636363,
                "pitch": 49,
                "velocity": 51,
                "duration": 0.13409090909090793,
                "tempo": 120.0
            },
            {
                "start_time": 19.579545454545453,
                "end_time": 19.71363636363636,
                "pitch": 53,
                "velocity": 51,
                "duration": 0.13409090909090793,
                "tempo": 120.0
            },
            {
                "start_time": 19.73181818181818,
                "end_time": 19.86590909090909,
                "pitch": 55,
                "velocity": 51,
                "duration": 0.13409090909090793,
                "tempo": 120.0
            },
            {
                "start_time": 19.88181818181818,
                "end_time": 20.018181818181816,
                "pitch": 60,
                "velocity": 51,
                "duration": 0.1363636363636367,
                "tempo": 120.0
            },
            {
                "start_time": 20.034090909090907,
                "end_time": 20.168181818181818,
                "pitch": 58,
                "velocity": 51,
                "duration": 0.13409090909091148,
                "tempo": 120.0
            },
            {
                "start_time": 20.186363636363634,
                "end_time": 20.320454545454545,
                "pitch": 58,
                "velocity": 51,
                "duration": 0.13409090909091148,
                "tempo": 120.0
            },
            {
                "start_time": 20.336363636363636,
                "end_time": 20.472727272727273,
                "pitch": 60,
                "velocity": 51,
                "duration": 0.1363636363636367,
                "tempo": 120.0
            },
            {
                "start_time": 20.488636363636363,
                "end_time": 20.62272727272727,
                "pitch": 63,
                "velocity": 51,
                "duration": 0.13409090909090793,
                "tempo": 120.0
            },
            {
                "start_time": 20.64090909090909,
                "end_time": 20.772727272727273,
                "pitch": 65,
                "velocity": 51,
                "duration": 0.13181818181818272,
                "tempo": 120.0
            },
            {
                "start_time": 20.788636363636364,
                "end_time": 20.922727272727272,
                "pitch": 63,
                "velocity": 51,
                "duration": 0.13409090909090793,
                "tempo": 120.0
            },
            {
                "start_time": 20.938636363636363,
                "end_time": 21.070454545454545,
                "pitch": 60,
                "velocity": 51,
                "duration": 0.13181818181818272,
                "tempo": 120.0
            },
            {
                "start_time": 21.086363636363636,
                "end_time": 21.21818181818182,
                "pitch": 58,
                "velocity": 51,
                "duration": 0.13181818181818272,
                "tempo": 120.0
            },
            {
                "start_time": 21.236363636363635,
                "end_time": 21.370454545454546,
                "pitch": 60,
                "velocity": 51,
                "duration": 0.13409090909091148,
                "tempo": 120.0
            },
            {
                "start_time": 21.388636363636362,
                "end_time": 21.527272727272727,
                "pitch": 55,
                "velocity": 51,
                "duration": 0.13863636363636545,
                "tempo": 120.0
            },
            {
                "start_time": 21.545454545454543,
                "end_time": 21.68409090909091,
                "pitch": 53,
                "velocity": 51,
                "duration": 0.13863636363636545,
                "tempo": 120.0
            },
            {
                "start_time": 21.7,
                "end_time": 21.84090909090909,
                "pitch": 55,
                "velocity": 51,
                "duration": 0.14090909090909065,
                "tempo": 120.0
            },
            {
                "start_time": 21.85681818181818,
                "end_time": 21.99090909090909,
                "pitch": 48,
                "velocity": 51,
                "duration": 0.13409090909090793,
                "tempo": 120.0
            },
            {
                "start_time": 22.009090909090908,
                "end_time": 22.14090909090909,
                "pitch": 49,
                "velocity": 51,
                "duration": 0.13181818181818272,
                "tempo": 120.0
            },
            {
                "start_time": 22.15681818181818,
                "end_time": 22.288636363636364,
                "pitch": 53,
                "velocity": 51,
                "duration": 0.13181818181818272,
                "tempo": 120.0
            },
            {
                "start_time": 22.304545454545455,
                "end_time": 22.436363636363634,
                "pitch": 55,
                "velocity": 51,
                "duration": 0.13181818181817917,
                "tempo": 120.0
            },
            {
                "start_time": 22.454545454545453,
                "end_time": 22.586363636363636,
                "pitch": 58,
                "velocity": 51,
                "duration": 0.13181818181818272,
                "tempo": 120.0
            },
            {
                "start_time": 22.604545454545452,
                "end_time": 22.738636363636363,
                "pitch": 60,
                "velocity": 51,
                "duration": 0.13409090909091148,
                "tempo": 120.0
            },
            {
                "start_time": 22.75681818181818,
                "end_time": 22.89090909090909,
                "pitch": 58,
                "velocity": 51,
                "duration": 0.13409090909091148,
                "tempo": 120.0
            },
            {
                "start_time": 22.90681818181818,
                "end_time": 23.04090909090909,
                "pitch": 58,
                "velocity": 51,
                "duration": 0.13409090909090793,
                "tempo": 120.0
            },
            {
                "start_time": 23.05909090909091,
                "end_time": 23.19090909090909,
                "pitch": 60,
                "velocity": 51,
                "duration": 0.13181818181818272,
                "tempo": 120.0
            },
            {
                "start_time": 23.209090909090907,
                "end_time": 23.34090909090909,
                "pitch": 63,
                "velocity": 51,
                "duration": 0.13181818181818272,
                "tempo": 120.0
            },
            {
                "start_time": 23.35681818181818,
                "end_time": 23.488636363636363,
                "pitch": 65,
                "velocity": 51,
                "duration": 0.13181818181818272,
                "tempo": 120.0
            },
            {
                "start_time": 23.504545454545454,
                "end_time": 23.636363636363637,
                "pitch": 63,
                "velocity": 51,
                "duration": 0.13181818181818272,
                "tempo": 120.0
            },
            {
                "start_time": 23.654545454545453,
                "end_time": 23.788636363636364,
                "pitch": 60,
                "velocity": 51,
                "duration": 0.13409090909091148,
                "tempo": 120.0
            },
            {
                "start_time": 23.80681818181818,
                "end_time": 23.945454545454545,
                "pitch": 58,
                "velocity": 51,
                "duration": 0.13863636363636545,
                "tempo": 120.0
            },
            {
                "start_time": 23.96363636363636,
                "end_time": 24.102272727272727,
                "pitch": 60,
                "velocity": 51,
                "duration": 0.13863636363636545,
                "tempo": 120.0
            },
            {
                "start_time": 24.120454545454546,
                "end_time": 24.259090909090908,
                "pitch": 48,
                "velocity": 51,
                "duration": 0.1386363636363619,
                "tempo": 120.0
            },
            {
                "start_time": 24.275,
                "end_time": 24.411363636363635,
                "pitch": 49,
                "velocity": 51,
                "duration": 0.1363636363636367,
                "tempo": 120.0
            },
            {
                "start_time": 24.427272727272726,
                "end_time": 24.55909090909091,
                "pitch": 53,
                "velocity": 51,
                "duration": 0.13181818181818272,
                "tempo": 120.0
            },
            {
                "start_time": 24.575,
                "end_time": 24.706818181818182,
                "pitch": 55,
                "velocity": 51,
                "duration": 0.13181818181818272,
                "tempo": 120.0
            },
            {
                "start_time": 24.722727272727273,
                "end_time": 24.85681818181818,
                "pitch": 58,
                "velocity": 51,
                "duration": 0.13409090909090793,
                "tempo": 120.0
            },
            {
                "start_time": 24.87272727272727,
                "end_time": 25.004545454545454,
                "pitch": 60,
                "velocity": 51,
                "duration": 0.13181818181818272,
                "tempo": 120.0
            },
            {
                "start_time": 25.02272727272727,
                "end_time": 25.154545454545453,
                "pitch": 58,
                "velocity": 51,
                "duration": 0.13181818181818272,
                "tempo": 120.0
            },
            {
                "start_time": 25.172727272727272,
                "end_time": 25.304545454545455,
                "pitch": 60,
                "velocity": 51,
                "duration": 0.13181818181818272,
                "tempo": 120.0
            },
            {
                "start_time": 25.32272727272727,
                "end_time": 25.454545454545453,
                "pitch": 55,
                "velocity": 51,
                "duration": 0.13181818181818272,
                "tempo": 120.0
            },
            {
                "start_time": 25.472727272727273,
                "end_time": 25.60681818181818,
                "pitch": 53,
                "velocity": 51,
                "duration": 0.13409090909090793,
                "tempo": 120.0
            },
            {
                "start_time": 25.62272727272727,
                "end_time": 26.51590909090909,
                "pitch": 53,
                "velocity": 51,
                "duration": 0.8931818181818194,
                "tempo": 120.0
            },
            {
                "start_time": 26.53181818181818,
                "end_time": 26.66590909090909,
                "pitch": 46,
                "velocity": 51,
                "duration": 0.13409090909090793,
                "tempo": 120.0
            },
            {
                "start_time": 26.68409090909091,
                "end_time": 26.818181818181817,
                "pitch": 48,
                "velocity": 51,
                "duration": 0.13409090909090793,
                "tempo": 120.0
            },
            {
                "start_time": 26.834090909090907,
                "end_time": 26.968181818181815,
                "pitch": 53,
                "velocity": 51,
                "duration": 0.13409090909090793,
                "tempo": 120.0
            },
            {
                "start_time": 26.98409090909091,
                "end_time": 27.118181818181817,
                "pitch": 55,
                "velocity": 51,
                "duration": 0.13409090909090793,
                "tempo": 120.0
            },
            {
                "start_time": 27.134090909090908,
                "end_time": 27.268181818181816,
                "pitch": 58,
                "velocity": 51,
                "duration": 0.13409090909090793,
                "tempo": 120.0
            },
            {
                "start_time": 27.284090909090907,
                "end_time": 27.418181818181818,
                "pitch": 60,
                "velocity": 51,
                "duration": 0.13409090909091148,
                "tempo": 120.0
            },
            {
                "start_time": 27.43409090909091,
                "end_time": 27.570454545454545,
                "pitch": 58,
                "velocity": 51,
                "duration": 0.1363636363636367,
                "tempo": 120.0
            },
            {
                "start_time": 27.586363636363636,
                "end_time": 27.720454545454544,
                "pitch": 55,
                "velocity": 51,
                "duration": 0.13409090909090793,
                "tempo": 120.0
            },
            {
                "start_time": 27.738636363636363,
                "end_time": 27.87272727272727,
                "pitch": 53,
                "velocity": 51,
                "duration": 0.13409090909090793,
                "tempo": 120.0
            },
            {
                "start_time": 27.888636363636362,
                "end_time": 28.02272727272727,
                "pitch": 55,
                "velocity": 51,
                "duration": 0.13409090909090793,
                "tempo": 120.0
            },
            {
                "start_time": 28.04090909090909,
                "end_time": 28.843181818181815,
                "pitch": 53,
                "velocity": 51,
                "duration": 0.8022727272727259,
                "tempo": 120.0
            }
        ],
        "Acoustic Bass": [
            {
                "start_time": 0.0,
                "end_time": 0.18863636363636363,
                "pitch": 36,
                "velocity": 64,
                "duration": 0.18863636363636363,
                "tempo": 120.0
            },
            {
                "start_time": 0.19999999999999998,
                "end_time": 0.33409090909090905,
                "pitch": 34,
                "velocity": 64,
                "duration": 0.13409090909090907,
                "tempo": 120.0
            },
            {
                "start_time": 0.35227272727272724,
                "end_time": 0.48636363636363633,
                "pitch": 36,
                "velocity": 64,
                "duration": 0.1340909090909091,
                "tempo": 120.0
            },
            {
                "start_time": 0.5022727272727272,
                "end_time": 0.6386363636363636,
                "pitch": 34,
                "velocity": 64,
                "duration": 0.13636363636363635,
                "tempo": 120.0
            },
            {
                "start_time": 0.6545454545454545,
                "end_time": 0.7886363636363636,
                "pitch": 36,
                "velocity": 64,
                "duration": 0.13409090909090904,
                "tempo": 120.0
            },
            {
                "start_time": 0.8068181818181818,
                "end_time": 0.9409090909090909,
                "pitch": 34,
                "velocity": 64,
                "duration": 0.13409090909090915,
                "tempo": 120.0
            },
            {
                "start_time": 0.9568181818181818,
                "end_time": 1.093181818181818,
                "pitch": 36,
                "velocity": 64,
                "duration": 0.13636363636363624,
                "tempo": 120.0
            },
            {
                "start_time": 1.1090909090909091,
                "end_time": 1.3954545454545453,
                "pitch": 36,
                "velocity": 64,
                "duration": 0.28636363636363615,
                "tempo": 120.0
            },
            {
                "start_time": 1.4113636363636364,
                "end_time": 1.5454545454545454,
                "pitch": 34,
                "velocity": 64,
                "duration": 0.13409090909090904,
                "tempo": 120.0
            },
            {
                "start_time": 1.5613636363636363,
                "end_time": 1.6954545454545453,
                "pitch": 36,
                "velocity": 64,
                "duration": 0.13409090909090904,
                "tempo": 120.0
            },
            {
                "start_time": 1.7113636363636362,
                "end_time": 1.8454545454545455,
                "pitch": 34,
                "velocity": 64,
                "duration": 0.13409090909090926,
                "tempo": 120.0
            },
            {
                "start_time": 1.8613636363636363,
                "end_time": 1.9954545454545454,
                "pitch": 36,
                "velocity": 64,
                "duration": 0.13409090909090904,
                "tempo": 120.0
            },
            {
                "start_time": 2.0113636363636362,
                "end_time": 2.1477272727272725,
                "pitch": 34,
                "velocity": 64,
                "duration": 0.13636363636363624,
                "tempo": 120.0
            },
            {
                "start_time": 2.1636363636363636,
                "end_time": 2.2977272727272724,
                "pitch": 36,
                "velocity": 64,
                "duration": 0.13409090909090882,
                "tempo": 120.0
            },
            {
                "start_time": 2.315909090909091,
                "end_time": 2.602272727272727,
                "pitch": 36,
                "velocity": 64,
                "duration": 0.28636363636363615,
                "tempo": 120.0
            },
            {
                "start_time": 2.618181818181818,
                "end_time": 2.752272727272727,
                "pitch": 34,
                "velocity": 64,
                "duration": 0.13409090909090882,
                "tempo": 120.0
            },
            {
                "start_time": 2.7704545454545455,
                "end_time": 2.9045454545454543,
                "pitch": 36,
                "velocity": 64,
                "duration": 0.13409090909090882,
                "tempo": 120.0
            },
            {
                "start_time": 2.9204545454545454,
                "end_time": 3.0568181818181817,
                "pitch": 34,
                "velocity": 64,
                "duration": 0.13636363636363624,
                "tempo": 120.0
            },
            {
                "start_time": 3.0727272727272728,
                "end_time": 3.2068181818181816,
                "pitch": 36,
                "velocity": 64,
                "duration": 0.13409090909090882,
                "tempo": 120.0
            },
            {
                "start_time": 3.2249999999999996,
                "end_time": 3.3568181818181815,
                "pitch": 34,
                "velocity": 64,
                "duration": 0.13181818181818183,
                "tempo": 120.0
            },
            {
                "start_time": 3.375,
                "end_time": 3.506818181818182,
                "pitch": 36,
                "velocity": 64,
                "duration": 0.13181818181818183,
                "tempo": 120.0
            },
            {
                "start_time": 3.525,
                "end_time": 3.8068181818181817,
                "pitch": 36,
                "velocity": 64,
                "duration": 0.28181818181818175,
                "tempo": 120.0
            },
            {
                "start_time": 3.8249999999999997,
                "end_time": 3.959090909090909,
                "pitch": 34,
                "velocity": 64,
                "duration": 0.13409090909090926,
                "tempo": 120.0
            },
            {
                "start_time": 3.9749999999999996,
                "end_time": 4.111363636363636,
                "pitch": 36,
                "velocity": 64,
                "duration": 0.1363636363636367,
                "tempo": 120.0
            },
            {
                "start_time": 4.127272727272727,
                "end_time": 4.261363636363636,
                "pitch": 34,
                "velocity": 64,
                "duration": 0.13409090909090882,
                "tempo": 120.0
            },
            {
                "start_time": 4.279545454545454,
                "end_time": 4.413636363636363,
                "pitch": 36,
                "velocity": 64,
                "duration": 0.13409090909090882,
                "tempo": 120.0
            },
            {
                "start_time": 4.429545454545455,
                "end_time": 4.5659090909090905,
                "pitch": 34,
                "velocity": 64,
                "duration": 0.1363636363636358,
                "tempo": 120.0
            },
            {
                "start_time": 4.581818181818182,
                "end_time": 4.715909090909091,
                "pitch": 36,
                "velocity": 64,
                "duration": 0.13409090909090882,
                "tempo": 120.0
            },
            {
                "start_time": 4.7340909090909085,
                "end_time": 5.0204545454545455,
                "pitch": 37,
                "velocity": 64,
                "duration": 0.28636363636363704,
                "tempo": 120.0
            },
            {
                "start_time": 5.036363636363636,
                "end_time": 5.170454545454545,
                "pitch": 37,
                "velocity": 64,
                "duration": 0.13409090909090882,
                "tempo": 120.0
            },
            {
                "start_time": 5.1863636363636365,
                "end_time": 5.320454545454545,
                "pitch": 37,
                "velocity": 64,
                "duration": 0.13409090909090882,
                "tempo": 120.0
            },
            {
                "start_time": 5.336363636363636,
                "end_time": 5.470454545454545,
                "pitch": 36,
                "velocity": 64,
                "duration": 0.13409090909090882,
                "tempo": 120.0
            },
            {
                "start_time": 5.486363636363636,
                "end_time": 5.620454545454545,
                "pitch": 37,
                "velocity": 64,
                "duration": 0.13409090909090882,
                "tempo": 120.0
            },
            {
                "start_time": 5.636363636363636,
                "end_time": 5.7704545454545455,
                "pitch": 36,
                "velocity": 64,
                "duration": 0.1340909090909097,
                "tempo": 120.0
            },
            {
                "start_time": 5.788636363636363,
                "end_time": 5.922727272727273,
                "pitch": 37,
                "velocity": 64,
                "duration": 0.1340909090909097,
                "tempo": 120.0
            },
            {
                "start_time": 5.9386363636363635,
                "end_time": 6.225,
                "pitch": 37,
                "velocity": 64,
                "duration": 0.28636363636363615,
                "tempo": 120.0
            },
            {
                "start_time": 6.243181818181818,
                "end_time": 6.375,
                "pitch": 36,
                "velocity": 64,
                "duration": 0.13181818181818183,
                "tempo": 120.0
            },
            {
                "start_time": 6.393181818181818,
                "end_time": 6.5249999999999995,
                "pitch": 37,
                "velocity": 64,
                "duration": 0.13181818181818183,
                "tempo": 120.0
            },
            {
                "start_time": 6.543181818181818,
                "end_time": 6.675,
                "pitch": 36,
                "velocity": 64,
                "duration": 0.13181818181818183,
                "tempo": 120.0
            },
            {
                "start_time": 6.6931818181818175,
                "end_time": 6.824999999999999,
                "pitch": 37,
                "velocity": 64,
                "duration": 0.13181818181818183,
                "tempo": 120.0
            },
            {
                "start_time": 6.843181818181818,
                "end_time": 6.977272727272727,
                "pitch": 36,
                "velocity": 64,
                "duration": 0.13409090909090882,
                "tempo": 120.0
            },
            {
                "start_time": 6.993181818181818,
                "end_time": 7.129545454545454,
                "pitch": 37,
                "velocity": 64,
                "duration": 0.1363636363636358,
                "tempo": 120.0
            },
            {
                "start_time": 7.1454545454545455,
                "end_time": 7.431818181818182,
                "pitch": 37,
                "velocity": 64,
                "duration": 0.28636363636363615,
                "tempo": 120.0
            },
            {
                "start_time": 7.447727272727272,
                "end_time": 7.581818181818181,
                "pitch": 36,
                "velocity": 64,
                "duration": 0.13409090909090882,
                "tempo": 120.0
            },
            {
                "start_time": 7.597727272727273,
                "end_time": 7.7318181818181815,
                "pitch": 37,
                "velocity": 64,
                "duration": 0.13409090909090882,
                "tempo": 120.0
            },
            {
                "start_time": 7.747727272727272,
                "end_time": 7.881818181818182,
                "pitch": 36,
                "velocity": 64,
                "duration": 0.1340909090909097,
                "tempo": 120.0
            },
            {
                "start_time": 7.8977272727272725,
                "end_time": 8.031818181818181,
                "pitch": 37,
                "velocity": 64,
                "duration": 0.13409090909090882,
                "tempo": 120.0
            },
            {
                "start_time": 8.047727272727272,
                "end_time": 8.181818181818182,
                "pitch": 36,
                "velocity": 64,
                "duration": 0.1340909090909097,
                "tempo": 120.0
            },
            {
                "start_time": 8.197727272727272,
                "end_time": 8.331818181818182,
                "pitch": 37,
                "velocity": 64,
                "duration": 0.1340909090909097,
                "tempo": 120.0
            },
            {
                "start_time": 8.347727272727273,
                "end_time": 8.631818181818181,
                "pitch": 37,
                "velocity": 64,
                "duration": 0.2840909090909083,
                "tempo": 120.0
            },
            {
                "start_time": 8.647727272727272,
                "end_time": 8.781818181818181,
                "pitch": 36,
                "velocity": 64,
                "duration": 0.1340909090909097,
                "tempo": 120.0
            },
            {
                "start_time": 8.797727272727272,
                "end_time": 8.931818181818182,
                "pitch": 37,
                "velocity": 64,
                "duration": 0.1340909090909097,
                "tempo": 120.0
            },
            {
                "start_time": 8.947727272727272,
                "end_time": 9.081818181818182,
                "pitch": 36,
                "velocity": 64,
                "duration": 0.1340909090909097,
                "tempo": 120.0
            },
            {
                "start_time": 9.097727272727273,
                "end_time": 9.23181818181818,
                "pitch": 37,
                "velocity": 64,
                "duration": 0.13409090909090793,
                "tempo": 120.0
            },
            {
                "start_time": 9.247727272727273,
                "end_time": 9.384090909090908,
                "pitch": 36,
                "velocity": 64,
                "duration": 0.1363636363636349,
                "tempo": 120.0
            },
            {
                "start_time": 9.4,
                "end_time": 9.534090909090908,
                "pitch": 37,
                "velocity": 64,
                "duration": 0.13409090909090793,
                "tempo": 120.0
            },
            {
                "start_time": 9.552272727272728,
                "end_time": 9.838636363636363,
                "pitch": 36,
                "velocity": 64,
                "duration": 0.28636363636363527,
                "tempo": 120.0
            },
            {
                "start_time": 9.854545454545454,
                "end_time": 9.988636363636363,
                "pitch": 34,
                "velocity": 64,
                "duration": 0.1340909090909097,
                "tempo": 120.0
            },
            {
                "start_time": 10.004545454545454,
                "end_time": 10.138636363636364,
                "pitch": 36,
                "velocity": 64,
                "duration": 0.1340909090909097,
                "tempo": 120.0
            },
            {
                "start_time": 10.154545454545454,
                "end_time": 10.288636363636364,
                "pitch": 34,
                "velocity": 64,
                "duration": 0.1340909090909097,
                "tempo": 120.0
            },
            {
                "start_time": 10.304545454545455,
                "end_time": 10.438636363636363,
                "pitch": 36,
                "velocity": 64,
                "duration": 0.13409090909090793,
                "tempo": 120.0
            },
            {
                "start_time": 10.454545454545453,
                "end_time": 10.588636363636363,
                "pitch": 34,
                "velocity": 64,
                "duration": 0.1340909090909097,
                "tempo": 120.0
            },
            {
                "start_time": 10.604545454545454,
                "end_time": 10.738636363636363,
                "pitch": 36,
                "velocity": 64,
                "duration": 0.1340909090909097,
                "tempo": 120.0
            },
            {
                "start_time": 10.754545454545454,
                "end_time": 11.038636363636362,
                "pitch": 36,
                "velocity": 64,
                "duration": 0.2840909090909083,
                "tempo": 120.0
            },
            {
                "start_time": 11.054545454545455,
                "end_time": 11.188636363636363,
                "pitch": 34,
                "velocity": 64,
                "duration": 0.13409090909090793,
                "tempo": 120.0
            },
            {
                "start_time": 11.204545454545453,
                "end_time": 11.338636363636363,
                "pitch": 36,
                "velocity": 64,
                "duration": 0.1340909090909097,
                "tempo": 120.0
            },
            {
                "start_time": 11.354545454545454,
                "end_time": 11.488636363636363,
                "pitch": 34,
                "velocity": 64,
                "duration": 0.1340909090909097,
                "tempo": 120.0
            },
            {
                "start_time": 11.504545454545454,
                "end_time": 11.638636363636364,
                "pitch": 36,
                "velocity": 64,
                "duration": 0.1340909090909097,
                "tempo": 120.0
            },
            {
                "start_time": 11.654545454545454,
                "end_time": 11.788636363636362,
                "pitch": 34,
                "velocity": 64,
                "duration": 0.13409090909090793,
                "tempo": 120.0
            },
            {
                "start_time": 11.804545454545455,
                "end_time": 11.938636363636363,
                "pitch": 36,
                "velocity": 64,
                "duration": 0.13409090909090793,
                "tempo": 120.0
            },
            {
                "start_time": 11.954545454545453,
                "end_time": 12.238636363636363,
                "pitch": 36,
                "velocity": 64,
                "duration": 0.28409090909091006,
                "tempo": 120.0
            },
            {
                "start_time": 12.254545454545454,
                "end_time": 12.388636363636364,
                "pitch": 34,
                "velocity": 64,
                "duration": 0.1340909090909097,
                "tempo": 120.0
            },
            {
                "start_time": 12.406818181818181,
                "end_time": 12.540909090909091,
                "pitch": 36,
                "velocity": 64,
                "duration": 0.1340909090909097,
                "tempo": 120.0
            },
            {
                "start_time": 12.556818181818182,
                "end_time": 12.693181818181818,
                "pitch": 34,
                "velocity": 64,
                "duration": 0.1363636363636367,
                "tempo": 120.0
            },
            {
                "start_time": 12.709090909090909,
                "end_time": 12.843181818181817,
                "pitch": 36,
                "velocity": 64,
                "duration": 0.13409090909090793,
                "tempo": 120.0
            },
            {
                "start_time": 12.861363636363636,
                "end_time": 12.993181818181817,
                "pitch": 34,
                "velocity": 64,
                "duration": 0.13181818181818095,
                "tempo": 120.0
            },
            {
                "start_time": 13.011363636363635,
                "end_time": 13.143181818181818,
                "pitch": 36,
                "velocity": 64,
                "duration": 0.13181818181818272,
                "tempo": 120.0
            },
            {
                "start_time": 13.161363636363635,
                "end_time": 13.443181818181818,
                "pitch": 36,
                "velocity": 64,
                "duration": 0.2818181818181831,
                "tempo": 120.0
            },
            {
                "start_time": 13.461363636363636,
                "end_time": 13.593181818181817,
                "pitch": 34,
                "velocity": 64,
                "duration": 0.13181818181818095,
                "tempo": 120.0
            },
            {
                "start_time": 13.611363636363636,
                "end_time": 13.743181818181817,
                "pitch": 36,
                "velocity": 64,
                "duration": 0.13181818181818095,
                "tempo": 120.0
            },
            {
                "start_time": 13.761363636363635,
                "end_time": 13.893181818181818,
                "pitch": 34,
                "velocity": 64,
                "duration": 0.13181818181818272,
                "tempo": 120.0
            },
            {
                "start_time": 13.911363636363635,
                "end_time": 14.043181818181818,
                "pitch": 36,
                "velocity": 64,
                "duration": 0.13181818181818272,
                "tempo": 120.0
            },
            {
                "start_time": 14.061363636363636,
                "end_time": 14.193181818181818,
                "pitch": 34,
                "velocity": 64,
                "duration": 0.13181818181818272,
                "tempo": 120.0
            },
            {
                "start_time": 14.211363636363636,
                "end_time": 14.343181818181817,
                "pitch": 36,
                "velocity": 64,
                "duration": 0.13181818181818095,
                "tempo": 120.0
            },
            {
                "start_time": 14.361363636363636,
                "end_time": 14.643181818181818,
                "pitch": 37,
                "velocity": 64,
                "duration": 0.2818181818181813,
                "tempo": 120.0
            },
            {
                "start_time": 14.661363636363635,
                "end_time": 14.793181818181818,
                "pitch": 37,
                "velocity": 64,
                "duration": 0.13181818181818272,
                "tempo": 120.0
            },
            {
                "start_time": 14.811363636363636,
                "end_time": 14.943181818181818,
                "pitch": 37,
                "velocity": 64,
                "duration": 0.13181818181818272,
                "tempo": 120.0
            },
            {
                "start_time": 14.961363636363636,
                "end_time": 15.093181818181817,
                "pitch": 36,
                "velocity": 64,
                "duration": 0.13181818181818095,
                "tempo": 120.0
            },
            {
                "start_time": 15.111363636363636,
                "end_time": 15.243181818181817,
                "pitch": 37,
                "velocity": 64,
                "duration": 0.13181818181818095,
                "tempo": 120.0
            },
            {
                "start_time": 15.261363636363635,
                "end_time": 15.395454545454545,
                "pitch": 36,
                "velocity": 64,
                "duration": 0.1340909090909097,
                "tempo": 120.0
            },
            {
                "start_time": 15.411363636363635,
                "end_time": 15.547727272727272,
                "pitch": 37,
                "velocity": 64,
                "duration": 0.1363636363636367,
                "tempo": 120.0
            },
            {
                "start_time": 15.563636363636363,
                "end_time": 15.85,
                "pitch": 37,
                "velocity": 64,
                "duration": 0.28636363636363704,
                "tempo": 120.0
            },
            {
                "start_time": 15.86590909090909,
                "end_time": 16.0,
                "pitch": 36,
                "velocity": 64,
                "duration": 0.1340909090909097,
                "tempo": 120.0
            },
            {
                "start_time": 16.01590909090909,
                "end_time": 16.15,
                "pitch": 37,
                "velocity": 64,
                "duration": 0.13409090909090793,
                "tempo": 120.0
            },
            {
                "start_time": 16.16590909090909,
                "end_time": 16.3,
                "pitch": 36,
                "velocity": 64,
                "duration": 0.13409090909091148,
                "tempo": 120.0
            },
            {
                "start_time": 16.31590909090909,
                "end_time": 16.45,
                "pitch": 37,
                "velocity": 64,
                "duration": 0.13409090909090793,
                "tempo": 120.0
            },
            {
                "start_time": 16.46590909090909,
                "end_time": 16.599999999999998,
                "pitch": 36,
                "velocity": 64,
                "duration": 0.13409090909090793,
                "tempo": 120.0
            },
            {
                "start_time": 16.61590909090909,
                "end_time": 16.75,
                "pitch": 37,
                "velocity": 64,
                "duration": 0.13409090909091148,
                "tempo": 120.0
            },
            {
                "start_time": 16.76590909090909,
                "end_time": 17.05,
                "pitch": 37,
                "velocity": 64,
                "duration": 0.28409090909091006,
                "tempo": 120.0
            },
            {
                "start_time": 17.06590909090909,
                "end_time": 17.202272727272728,
                "pitch": 36,
                "velocity": 64,
                "duration": 0.1363636363636367,
                "tempo": 120.0
            },
            {
                "start_time": 17.21818181818182,
                "end_time": 17.352272727272727,
                "pitch": 37,
                "velocity": 64,
                "duration": 0.13409090909090793,
                "tempo": 120.0
            },
            {
                "start_time": 17.370454545454546,
                "end_time": 17.504545454545454,
                "pitch": 36,
                "velocity": 64,
                "duration": 0.13409090909090793,
                "tempo": 120.0
            },
            {
                "start_time": 17.520454545454545,
                "end_time": 17.65681818181818,
                "pitch": 37,
                "velocity": 64,
                "duration": 0.1363636363636367,
                "tempo": 120.0
            },
            {
                "start_time": 17.672727272727272,
                "end_time": 17.80681818181818,
                "pitch": 36,
                "velocity": 64,
                "duration": 0.13409090909090793,
                "tempo": 120.0
            },
            {
                "start_time": 17.82272727272727,
                "end_time": 17.956818181818182,
                "pitch": 37,
                "velocity": 64,
                "duration": 0.13409090909091148,
                "tempo": 120.0
            },
            {
                "start_time": 17.972727272727273,
                "end_time": 18.25681818181818,
                "pitch": 37,
                "velocity": 64,
                "duration": 0.2840909090909065,
                "tempo": 120.0
            },
            {
                "start_time": 18.272727272727273,
                "end_time": 18.40681818181818,
                "pitch": 36,
                "velocity": 64,
                "duration": 0.13409090909090793,
                "tempo": 120.0
            },
            {
                "start_time": 18.425,
                "end_time": 18.55909090909091,
                "pitch": 37,
                "velocity": 64,
                "duration": 0.13409090909090793,
                "tempo": 120.0
            },
            {
                "start_time": 18.575,
                "end_time": 18.711363636363636,
                "pitch": 36,
                "velocity": 64,
                "duration": 0.1363636363636367,
                "tempo": 120.0
            },
            {
                "start_time": 18.727272727272727,
                "end_time": 18.861363636363635,
                "pitch": 37,
                "velocity": 64,
                "duration": 0.13409090909090793,
                "tempo": 120.0
            },
            {
                "start_time": 18.879545454545454,
                "end_time": 19.011363636363637,
                "pitch": 36,
                "velocity": 64,
                "duration": 0.13181818181818272,
                "tempo": 120.0
            },
            {
                "start_time": 19.029545454545453,
                "end_time": 19.161363636363635,
                "pitch": 37,
                "velocity": 64,
                "duration": 0.13181818181818272,
                "tempo": 120.0
            },
            {
                "start_time": 19.179545454545455,
                "end_time": 19.461363636363636,
                "pitch": 24,
                "velocity": 64,
                "duration": 0.2818181818181813,
                "tempo": 120.0
            },
            {
                "start_time": 19.479545454545452,
                "end_time": 19.76590909090909,
                "pitch": 24,
                "velocity": 64,
                "duration": 0.2863636363636388,
                "tempo": 120.0
            },
            {
                "start_time": 19.78181818181818,
                "end_time": 20.068181818181817,
                "pitch": 36,
                "velocity": 64,
                "duration": 0.28636363636363527,
                "tempo": 120.0
            },
            {
                "start_time": 20.084090909090907,
                "end_time": 20.220454545454544,
                "pitch": 24,
                "velocity": 64,
                "duration": 0.1363636363636367,
                "tempo": 120.0
            },
            {
                "start_time": 20.236363636363635,
                "end_time": 20.522727272727273,
                "pitch": 24,
                "velocity": 64,
                "duration": 0.2863636363636388,
                "tempo": 120.0
            },
            {
                "start_time": 20.538636363636364,
                "end_time": 20.675,
                "pitch": 24,
                "velocity": 64,
                "duration": 0.1363636363636367,
                "tempo": 120.0
            },
            {
                "start_time": 20.69090909090909,
                "end_time": 20.970454545454544,
                "pitch": 24,
                "velocity": 64,
                "duration": 0.27954545454545254,
                "tempo": 120.0
            },
            {
                "start_time": 20.988636363636363,
                "end_time": 21.268181818181816,
                "pitch": 36,
                "velocity": 64,
                "duration": 0.27954545454545254,
                "tempo": 120.0
            },
            {
                "start_time": 21.284090909090907,
                "end_time": 21.579545454545453,
                "pitch": 24,
                "velocity": 64,
                "duration": 0.29545454545454675,
                "tempo": 120.0
            },
            {
                "start_time": 21.597727272727273,
                "end_time": 21.89090909090909,
                "pitch": 24,
                "velocity": 64,
                "duration": 0.293181818181818,
                "tempo": 120.0
            },
            {
                "start_time": 21.909090909090907,
                "end_time": 22.19090909090909,
                "pitch": 24,
                "velocity": 64,
                "duration": 0.28181818181818485,
                "tempo": 120.0
            },
            {
                "start_time": 22.206818181818182,
                "end_time": 22.486363636363635,
                "pitch": 36,
                "velocity": 64,
                "duration": 0.27954545454545254,
                "tempo": 120.0
            },
            {
                "start_time": 22.502272727272725,
                "end_time": 22.638636363636362,
                "pitch": 24,
                "velocity": 64,
                "duration": 0.1363636363636367,
                "tempo": 120.0
            },
            {
                "start_time": 22.654545454545453,
                "end_time": 22.94090909090909,
                "pitch": 24,
                "velocity": 64,
                "duration": 0.2863636363636388,
                "tempo": 120.0
            },
            {
                "start_time": 22.956818181818182,
                "end_time": 23.09318181818182,
                "pitch": 24,
                "velocity": 64,
                "duration": 0.1363636363636367,
                "tempo": 120.0
            },
            {
                "start_time": 23.10909090909091,
                "end_time": 23.388636363636362,
                "pitch": 24,
                "velocity": 64,
                "duration": 0.27954545454545254,
                "tempo": 120.0
            },
            {
                "start_time": 23.40681818181818,
                "end_time": 23.686363636363634,
                "pitch": 36,
                "velocity": 64,
                "duration": 0.27954545454545254,
                "tempo": 120.0
            },
            {
                "start_time": 23.702272727272724,
                "end_time": 23.99772727272727,
                "pitch": 24,
                "velocity": 64,
                "duration": 0.29545454545454675,
                "tempo": 120.0
            },
            {
                "start_time": 24.01590909090909,
                "end_time": 24.311363636363634,
                "pitch": 24,
                "velocity": 64,
                "duration": 0.2954545454545432,
                "tempo": 120.0
            },
            {
                "start_time": 24.327272727272724,
                "end_time": 24.60909090909091,
                "pitch": 24,
                "velocity": 64,
                "duration": 0.28181818181818485,
                "tempo": 120.0
            },
            {
                "start_time": 24.625,
                "end_time": 24.904545454545453,
                "pitch": 36,
                "velocity": 64,
                "duration": 0.27954545454545254,
                "tempo": 120.0
            },
            {
                "start_time": 24.922727272727272,
                "end_time": 25.054545454545455,
                "pitch": 24,
                "velocity": 64,
                "duration": 0.13181818181818272,
                "tempo": 120.0
            },
            {
                "start_time": 25.07272727272727,
                "end_time": 25.354545454545452,
                "pitch": 24,
                "velocity": 64,
                "duration": 0.2818181818181813,
                "tempo": 120.0
            },
            {
                "start_time": 25.37272727272727,
                "end_time": 25.504545454545454,
                "pitch": 24,
                "velocity": 64,
                "duration": 0.13181818181818272,
                "tempo": 120.0
            },
            {
                "start_time": 25.52272727272727,
                "end_time": 25.80909090909091,
                "pitch": 24,
                "velocity": 64,
                "duration": 0.2863636363636388,
                "tempo": 120.0
            },
            {
                "start_time": 25.825,
                "end_time": 26.111363636363635,
                "pitch": 36,
                "velocity": 64,
                "duration": 0.28636363636363527,
                "tempo": 120.0
            },
            {
                "start_time": 26.127272727272725,
                "end_time": 26.413636363636364,
                "pitch": 24,
                "velocity": 64,
                "duration": 0.2863636363636388,
                "tempo": 120.0
            },
            {
                "start_time": 26.43181818181818,
                "end_time": 26.718181818181815,
                "pitch": 24,
                "velocity": 64,
                "duration": 0.28636363636363527,
                "tempo": 120.0
            },
            {
                "start_time": 26.73409090909091,
                "end_time": 27.018181818181816,
                "pitch": 24,
                "velocity": 64,
                "duration": 0.2840909090909065,
                "tempo": 120.0
            },
            {
                "start_time": 27.034090909090907,
                "end_time": 27.318181818181817,
                "pitch": 36,
                "velocity": 64,
                "duration": 0.28409090909091006,
                "tempo": 120.0
            },
            {
                "start_time": 27.334090909090907,
                "end_time": 27.468181818181815,
                "pitch": 24,
                "velocity": 64,
                "duration": 0.13409090909090793,
                "tempo": 120.0
            },
            {
                "start_time": 27.486363636363635,
                "end_time": 27.77272727272727,
                "pitch": 24,
                "velocity": 64,
                "duration": 0.28636363636363527,
                "tempo": 120.0
            },
            {
                "start_time": 27.788636363636364,
                "end_time": 27.922727272727272,
                "pitch": 24,
                "velocity": 64,
                "duration": 0.13409090909090793,
                "tempo": 120.0
            },
            {
                "start_time": 27.940909090909088,
                "end_time": 28.222727272727273,
                "pitch": 24,
                "velocity": 64,
                "duration": 0.28181818181818485,
                "tempo": 120.0
            },
            {
                "start_time": 28.24090909090909,
                "end_time": 28.52272727272727,
                "pitch": 36,
                "velocity": 64,
                "duration": 0.2818181818181813,
                "tempo": 120.0
            },
            {
                "start_time": 28.54090909090909,
                "end_time": 28.827272727272724,
                "pitch": 24,
                "velocity": 64,
                "duration": 0.28636363636363527,
                "tempo": 120.0
            }
        ]
    }
}