{
    "track_id": "Kenseiden (FM) - 08 - Training Round",
    "mood": "angry",
    "instruments": {
        "Electric Guitar (clean)": [
            {
                "start_time": 0.0,
                "end_time": 0.18863636363636363,
                "pitch": 28,
                "velocity": 64,
                "duration": 0.18863636363636363,
                "tempo": 120.0
            },
            {
                "start_time": 0.19999999999999998,
                "end_time": 0.28863636363636364,
                "pitch": 40,
                "velocity": 64,
                "duration": 0.08863636363636365,
                "tempo": 120.0
            },
            {
                "start_time": 0.3,
                "end_time": 0.3886363636363636,
                "pitch": 40,
                "velocity": 64,
                "duration": 0.08863636363636362,
                "tempo": 120.0
            },
            {
                "start_time": 0.39999999999999997,
                "end_time": 0.6840909090909091,
                "pitch": 28,
                "velocity": 64,
                "duration": 0.2840909090909091,
                "tempo": 120.0
            },
            {
                "start_time": 0.7,
                "end_time": 0.8340909090909091,
                "pitch": 40,
                "velocity": 64,
                "duration": 0.13409090909090915,
                "tempo": 120.0
            },
            {
                "start_time": 0.85,
                "end_time": 0.984090909090909,
                "pitch": 40,
                "velocity": 64,
                "duration": 0.13409090909090904,
                "tempo": 120.0
            },
            {
                "start_time": 1.0,
                "end_time": 1.134090909090909,
                "pitch": 40,
                "velocity": 64,
                "duration": 0.13409090909090904,
                "tempo": 120.0
            },
            {
                "start_time": 1.15,
                "end_time": 1.284090909090909,
                "pitch": 40,
                "velocity": 64,
                "duration": 0.13409090909090904,
                "tempo": 120.0
            },
            {
                "start_time": 1.3,
                "end_time": 1.584090909090909,
                "pitch": 38,
                "velocity": 64,
                "duration": 0.28409090909090895,
                "tempo": 120.0
            },
            {
                "start_time": 1.5999999999999999,
                "end_time": 1.8863636363636362,
                "pitch": 35,
                "velocity": 64,
                "duration": 0.2863636363636364,
                "tempo": 120.0
            },
            {
                "start_time": 1.9022727272727271,
                "end_time": 2.1886363636363635,
                "pitch": 33,
                "velocity": 64,
                "duration": 0.2863636363636364,
                "tempo": 120.0
            },
            {
                "start_time": 2.2068181818181816,
                "end_time": 2.4886363636363633,
                "pitch": 28,
                "velocity": 64,
                "duration": 0.28181818181818175,
                "tempo": 120.0
            },
            {
                "start_time": 2.506818181818182,
                "end_time": 2.6386363636363637,
                "pitch": 40,
                "velocity": 64,
                "duration": 0.13181818181818183,
                "tempo": 120.0
            },
            {
                "start_time": 2.6568181818181817,
                "end_time": 2.7886363636363636,
                "pitch": 40,
                "velocity": 64,
                "duration": 0.13181818181818183,
                "tempo": 120.0
            },
            {
                "start_time": 2.8068181818181817,
                "end_time": 3.093181818181818,
                "pitch": 28,
                "velocity": 64,
                "duration": 0.28636363636363615,
                "tempo": 120.0
            },
            {
                "start_time": 3.109090909090909,
                "end_time": 3.243181818181818,
                "pitch": 28,
                "velocity": 64,
                "duration": 0.13409090909090926,
                "tempo": 120.0
            },
            {
                "start_time": 3.2613636363636362,
                "end_time": 3.3954545454545455,
                "pitch": 28,
                "velocity": 64,
                "duration": 0.13409090909090926,
                "tempo": 120.0
            },
            {
                "start_time": 3.411363636363636,
                "end_time": 3.5477272727272724,
                "pitch": 41,
                "velocity": 64,
                "duration": 0.13636363636363624,
                "tempo": 120.0
            },
            {
                "start_time": 3.5636363636363635,
                "end_time": 3.6977272727272728,
                "pitch": 45,
                "velocity": 64,
                "duration": 0.13409090909090926,
                "tempo": 120.0
            },
            {
                "start_time": 3.715909090909091,
                "end_time": 3.8499999999999996,
                "pitch": 47,
                "velocity": 64,
                "duration": 0.13409090909090882,
                "tempo": 120.0
            },
            {
                "start_time": 3.8659090909090907,
                "end_time": 4.002272727272727,
                "pitch": 50,
                "velocity": 64,
                "duration": 0.13636363636363624,
                "tempo": 120.0
            },
            {
                "start_time": 4.018181818181818,
                "end_time": 4.152272727272727,
                "pitch": 52,
                "velocity": 64,
                "duration": 0.1340909090909097,
                "tempo": 120.0
            },
            {
                "start_time": 4.170454545454545,
                "end_time": 4.304545454545455,
                "pitch": 50,
                "velocity": 64,
                "duration": 0.1340909090909097,
                "tempo": 120.0
            },
            {
                "start_time": 4.320454545454545,
                "end_time": 4.456818181818182,
                "pitch": 47,
                "velocity": 64,
                "duration": 0.1363636363636367,
                "tempo": 120.0
            },
            {
                "start_time": 4.472727272727273,
                "end_time": 4.6068181818181815,
                "pitch": 45,
                "velocity": 64,
                "duration": 0.13409090909090882,
                "tempo": 120.0
            },
            {
                "start_time": 4.625,
                "end_time": 4.906818181818181,
                "pitch": 28,
                "velocity": 64,
                "duration": 0.2818181818181813,
                "tempo": 120.0
            },
            {
                "start_time": 4.925,
                "end_time": 5.056818181818182,
                "pitch": 40,
                "velocity": 64,
                "duration": 0.13181818181818183,
                "tempo": 120.0
            },
            {
                "start_time": 5.075,
                "end_time": 5.206818181818181,
                "pitch": 40,
                "velocity": 64,
                "duration": 0.13181818181818095,
                "tempo": 120.0
            },
            {
                "start_time": 5.225,
                "end_time": 5.511363636363636,
                "pitch": 28,
                "velocity": 64,
                "duration": 0.28636363636363615,
                "tempo": 120.0
            },
            {
                "start_time": 5.527272727272727,
                "end_time": 5.661363636363636,
                "pitch": 40,
                "velocity": 64,
                "duration": 0.13409090909090882,
                "tempo": 120.0
            },
            {
                "start_time": 5.679545454545455,
                "end_time": 5.8136363636363635,
                "pitch": 40,
                "velocity": 64,
                "duration": 0.13409090909090882,
                "tempo": 120.0
            },
            {
                "start_time": 5.829545454545454,
                "end_time": 5.963636363636363,
                "pitch": 40,
                "velocity": 64,
                "duration": 0.13409090909090882,
                "tempo": 120.0
            },
            {
                "start_time": 5.9795454545454545,
                "end_time": 6.113636363636363,
                "pitch": 40,
                "velocity": 64,
                "duration": 0.13409090909090882,
                "tempo": 120.0
            },
            {
                "start_time": 6.129545454545454,
                "end_time": 6.413636363636363,
                "pitch": 38,
                "velocity": 64,
                "duration": 0.28409090909090917,
                "tempo": 120.0
            },
            {
                "start_time": 6.429545454545455,
                "end_time": 6.713636363636363,
                "pitch": 35,
                "velocity": 64,
                "duration": 0.2840909090909083,
                "tempo": 120.0
            },
            {
                "start_time": 6.7295454545454545,
                "end_time": 7.013636363636364,
                "pitch": 33,
                "velocity": 64,
                "duration": 0.28409090909090917,
                "tempo": 120.0
            },
            {
                "start_time": 7.029545454545454,
                "end_time": 7.3159090909090905,
                "pitch": 28,
                "velocity": 64,
                "duration": 0.28636363636363615,
                "tempo": 120.0
            },
            {
                "start_time": 7.334090909090909,
                "end_time": 7.468181818181818,
                "pitch": 40,
                "velocity": 64,
                "duration": 0.13409090909090882,
                "tempo": 120.0
            },
            {
                "start_time": 7.4840909090909085,
                "end_time": 7.620454545454545,
                "pitch": 40,
                "velocity": 64,
                "duration": 0.1363636363636367,
                "tempo": 120.0
            },
            {
                "start_time": 7.636363636363636,
                "end_time": 7.920454545454545,
                "pitch": 28,
                "velocity": 64,
                "duration": 0.28409090909090917,
                "tempo": 120.0
            },
            {
                "start_time": 7.936363636363636,
                "end_time": 8.070454545454545,
                "pitch": 28,
                "velocity": 64,
                "duration": 0.1340909090909097,
                "tempo": 120.0
            },
            {
                "start_time": 8.086363636363636,
                "end_time": 8.220454545454546,
                "pitch": 28,
                "velocity": 64,
                "duration": 0.1340909090909097,
                "tempo": 120.0
            },
            {
                "start_time": 8.236363636363636,
                "end_time": 8.370454545454544,
                "pitch": 41,
                "velocity": 64,
                "duration": 0.13409090909090793,
                "tempo": 120.0
            },
            {
                "start_time": 8.388636363636364,
                "end_time": 8.522727272727272,
                "pitch": 45,
                "velocity": 64,
                "duration": 0.13409090909090793,
                "tempo": 120.0
            },
            {
                "start_time": 8.538636363636364,
                "end_time": 8.674999999999999,
                "pitch": 47,
                "velocity": 64,
                "duration": 0.1363636363636349,
                "tempo": 120.0
            },
            {
                "start_time": 8.690909090909091,
                "end_time": 8.825,
                "pitch": 50,
                "velocity": 64,
                "duration": 0.13409090909090793,
                "tempo": 120.0
            },
            {
                "start_time": 8.843181818181817,
                "end_time": 8.975,
                "pitch": 52,
                "velocity": 64,
                "duration": 0.13181818181818272,
                "tempo": 120.0
            },
            {
                "start_time": 8.993181818181817,
                "end_time": 9.125,
                "pitch": 50,
                "velocity": 64,
                "duration": 0.13181818181818272,
                "tempo": 120.0
            },
            {
                "start_time": 9.143181818181818,
                "end_time": 9.275,
                "pitch": 47,
                "velocity": 64,
                "duration": 0.13181818181818272,
                "tempo": 120.0
            },
            {
                "start_time": 9.293181818181818,
                "end_time": 9.424999999999999,
                "pitch": 45,
                "velocity": 64,
                "duration": 0.13181818181818095,
                "tempo": 120.0
            },
            {
                "start_time": 9.443181818181818,
                "end_time": 9.725,
                "pitch": 30,
                "velocity": 64,
                "duration": 0.2818181818181813,
                "tempo": 120.0
            },
            {
                "start_time": 9.743181818181817,
                "end_time": 9.875,
                "pitch": 42,
                "velocity": 64,
                "duration": 0.13181818181818272,
                "tempo": 120.0
            },
            {
                "start_time": 9.893181818181818,
                "end_time": 10.025,
                "pitch": 42,
                "velocity": 64,
                "duration": 0.13181818181818272,
                "tempo": 120.0
            },
            {
                "start_time": 10.043181818181818,
                "end_time": 10.325,
                "pitch": 30,
                "velocity": 64,
                "duration": 0.2818181818181813,
                "tempo": 120.0
            },
            {
                "start_time": 10.343181818181817,
                "end_time": 10.475,
                "pitch": 42,
                "velocity": 64,
                "duration": 0.13181818181818272,
                "tempo": 120.0
            },
            {
                "start_time": 10.493181818181817,
                "end_time": 10.625,
                "pitch": 42,
                "velocity": 64,
                "duration": 0.13181818181818272,
                "tempo": 120.0
            },
            {
                "start_time": 10.643181818181818,
                "end_time": 10.777272727272727,
                "pitch": 42,
                "velocity": 64,
                "duration": 0.1340909090909097,
                "tempo": 120.0
            },
            {
                "start_time": 10.793181818181818,
                "end_time": 10.929545454545455,
                "pitch": 42,
                "velocity": 64,
                "duration": 0.1363636363636367,
                "tempo": 120.0
            },
            {
                "start_time": 10.945454545454545,
                "end_time": 11.23181818181818,
                "pitch": 40,
                "velocity": 64,
                "duration": 0.28636363636363527,
                "tempo": 120.0
            },
            {
                "start_time": 11.247727272727273,
                "end_time": 11.531818181818181,
                "pitch": 37,
                "velocity": 64,
                "duration": 0.2840909090909083,
                "tempo": 120.0
            },
            {
                "start_time": 11.547727272727272,
                "end_time": 11.831818181818182,
                "pitch": 35,
                "velocity": 64,
                "duration": 0.28409090909091006,
                "tempo": 120.0
            },
            {
                "start_time": 11.847727272727273,
                "end_time": 12.131818181818181,
                "pitch": 30,
                "velocity": 64,
                "duration": 0.2840909090909083,
                "tempo": 120.0
            },
            {
                "start_time": 12.147727272727272,
                "end_time": 12.281818181818181,
                "pitch": 42,
                "velocity": 64,
                "duration": 0.1340909090909097,
                "tempo": 120.0
            },
            {
                "start_time": 12.297727272727272,
                "end_time": 12.431818181818182,
                "pitch": 42,
                "velocity": 64,
                "duration": 0.1340909090909097,
                "tempo": 120.0
            },
            {
                "start_time": 12.447727272727272,
                "end_time": 12.73181818181818,
                "pitch": 30,
                "velocity": 64,
                "duration": 0.2840909090909083,
                "tempo": 120.0
            },
            {
                "start_time": 12.747727272727271,
                "end_time": 12.881818181818181,
                "pitch": 30,
                "velocity": 64,
                "duration": 0.1340909090909097,
                "tempo": 120.0
            },
            {
                "start_time": 12.897727272727272,
                "end_time": 13.031818181818181,
                "pitch": 30,
                "velocity": 64,
                "duration": 0.1340909090909097,
                "tempo": 120.0
            },
            {
                "start_time": 13.047727272727272,
                "end_time": 13.181818181818182,
                "pitch": 43,
                "velocity": 64,
                "duration": 0.1340909090909097,
                "tempo": 120.0
            },
            {
                "start_time": 13.197727272727272,
                "end_time": 13.331818181818182,
                "pitch": 47,
                "velocity": 64,
                "duration": 0.1340909090909097,
                "tempo": 120.0
            },
            {
                "start_time": 13.347727272727273,
                "end_time": 13.48181818181818,
                "pitch": 49,
                "velocity": 64,
                "duration": 0.13409090909090793,
                "tempo": 120.0
            },
            {
                "start_time": 13.497727272727271,
                "end_time": 13.631818181818181,
                "pitch": 52,
                "velocity": 64,
                "duration": 0.1340909090909097,
                "tempo": 120.0
            },
            {
                "start_time": 13.647727272727272,
                "end_time": 13.784090909090908,
                "pitch": 54,
                "velocity": 64,
                "duration": 0.1363636363636367,
                "tempo": 120.0
            },
            {
                "start_time": 13.799999999999999,
                "end_time": 13.934090909090909,
                "pitch": 52,
                "velocity": 64,
                "duration": 0.1340909090909097,
                "tempo": 120.0
            },
            {
                "start_time": 13.952272727272726,
                "end_time": 14.086363636363636,
                "pitch": 49,
                "velocity": 64,
                "duration": 0.1340909090909097,
                "tempo": 120.0
            },
            {
                "start_time": 14.102272727272727,
                "end_time": 14.238636363636363,
                "pitch": 47,
                "velocity": 64,
                "duration": 0.1363636363636367,
                "tempo": 120.0
            },
            {
                "start_time": 14.254545454545454,
                "end_time": 14.538636363636362,
                "pitch": 30,
                "velocity": 64,
                "duration": 0.2840909090909083,
                "tempo": 120.0
            },
            {
                "start_time": 14.554545454545455,
                "end_time": 14.688636363636363,
                "pitch": 42,
                "velocity": 64,
                "duration": 0.13409090909090793,
                "tempo": 120.0
            },
            {
                "start_time": 14.704545454545453,
                "end_time": 14.838636363636363,
                "pitch": 42,
                "velocity": 64,
                "duration": 0.1340909090909097,
                "tempo": 120.0
            },
            {
                "start_time": 14.854545454545454,
                "end_time": 15.138636363636364,
                "pitch": 30,
                "velocity": 64,
                "duration": 0.28409090909091006,
                "tempo": 120.0
            },
            {
                "start_time": 15.154545454545454,
                "end_time": 15.288636363636362,
                "pitch": 42,
                "velocity": 64,
                "duration": 0.13409090909090793,
                "tempo": 120.0
            },
            {
                "start_time": 15.304545454545455,
                "end_time": 15.438636363636363,
                "pitch": 42,
                "velocity": 64,
                "duration": 0.13409090909090793,
                "tempo": 120.0
            },
            {
                "start_time": 15.454545454545453,
                "end_time": 15.588636363636363,
                "pitch": 42,
                "velocity": 64,
                "duration": 0.1340909090909097,
                "tempo": 120.0
            },
            {
                "start_time": 15.604545454545454,
                "end_time": 15.738636363636363,
                "pitch": 42,
                "velocity": 64,
                "duration": 0.1340909090909097,
                "tempo": 120.0
            },
            {
                "start_time": 15.754545454545454,
                "end_time": 16.038636363636364,
                "pitch": 40,
                "velocity": 64,
                "duration": 0.28409090909091006,
                "tempo": 120.0
            },
            {
                "start_time": 16.054545454545455,
                "end_time": 16.33863636363636,
                "pitch": 37,
                "velocity": 64,
                "duration": 0.2840909090909065,
                "tempo": 120.0
            },
            {
                "start_time": 16.354545454545455,
                "end_time": 16.638636363636362,
                "pitch": 35,
                "velocity": 64,
                "duration": 0.2840909090909065,
                "tempo": 120.0
            },
            {
                "start_time": 16.654545454545453,
                "end_time": 16.94090909090909,
                "pitch": 30,
                "velocity": 64,
                "duration": 0.2863636363636388,
                "tempo": 120.0
            },
            {
                "start_time": 16.956818181818182,
                "end_time": 17.09318181818182,
                "pitch": 42,
                "velocity": 64,
                "duration": 0.1363636363636367,
                "tempo": 120.0
            },
            {
                "start_time": 17.10909090909091,
                "end_time": 17.243181818181817,
                "pitch": 42,
                "velocity": 64,
                "duration": 0.13409090909090793,
                "tempo": 120.0
            },
            {
                "start_time": 17.261363636363637,
                "end_time": 17.543181818181818,
                "pitch": 30,
                "velocity": 64,
                "duration": 0.2818181818181813,
                "tempo": 120.0
            },
            {
                "start_time": 17.561363636363634,
                "end_time": 17.693181818181817,
                "pitch": 30,
                "velocity": 64,
                "duration": 0.13181818181818272,
                "tempo": 120.0
            },
            {
                "start_time": 17.711363636363636,
                "end_time": 17.84318181818182,
                "pitch": 30,
                "velocity": 64,
                "duration": 0.13181818181818272,
                "tempo": 120.0
            },
            {
                "start_time": 17.861363636363635,
                "end_time": 17.995454545454546,
                "pitch": 43,
                "velocity": 64,
                "duration": 0.13409090909091148,
                "tempo": 120.0
            },
            {
                "start_time": 18.011363636363637,
                "end_time": 18.147727272727273,
                "pitch": 47,
                "velocity": 64,
                "duration": 0.1363636363636367,
                "tempo": 120.0
            },
            {
                "start_time": 18.163636363636364,
                "end_time": 18.297727272727272,
                "pitch": 49,
                "velocity": 64,
                "duration": 0.13409090909090793,
                "tempo": 120.0
            },
            {
                "start_time": 18.31590909090909,
                "end_time": 18.45,
                "pitch": 52,
                "velocity": 64,
                "duration": 0.13409090909090793,
                "tempo": 120.0
            },
            {
                "start_time": 18.46590909090909,
                "end_time": 18.602272727272727,
                "pitch": 54,
                "velocity": 64,
                "duration": 0.1363636363636367,
                "tempo": 120.0
            },
            {
                "start_time": 18.618181818181817,
                "end_time": 18.752272727272725,
                "pitch": 52,
                "velocity": 64,
                "duration": 0.13409090909090793,
                "tempo": 120.0
            },
            {
                "start_time": 18.770454545454545,
                "end_time": 18.904545454545453,
                "pitch": 49,
                "velocity": 64,
                "duration": 0.13409090909090793,
                "tempo": 120.0
            },
            {
                "start_time": 18.920454545454543,
                "end_time": 19.05681818181818,
                "pitch": 47,
                "velocity": 64,
                "duration": 0.1363636363636367,
                "tempo": 120.0
            },
            {
                "start_time": 19.07272727272727,
                "end_time": 19.35681818181818,
                "pitch": 26,
                "velocity": 64,
                "duration": 0.28409090909091006,
                "tempo": 120.0
            },
            {
                "start_time": 19.37272727272727,
                "end_time": 19.50681818181818,
                "pitch": 38,
                "velocity": 64,
                "duration": 0.13409090909090793,
                "tempo": 120.0
            },
            {
                "start_time": 19.522727272727273,
                "end_time": 19.65681818181818,
                "pitch": 38,
                "velocity": 64,
                "duration": 0.13409090909090793,
                "tempo": 120.0
            },
            {
                "start_time": 19.672727272727272,
                "end_time": 19.959090909090907,
                "pitch": 26,
                "velocity": 64,
                "duration": 0.28636363636363527,
                "tempo": 120.0
            },
            {
                "start_time": 19.974999999999998,
                "end_time": 20.111363636363635,
                "pitch": 38,
                "velocity": 64,
                "duration": 0.1363636363636367,
                "tempo": 120.0
            },
            {
                "start_time": 20.127272727272725,
                "end_time": 20.261363636363637,
                "pitch": 38,
                "velocity": 64,
                "duration": 0.13409090909091148,
                "tempo": 120.0
            },
            {
                "start_time": 20.279545454545453,
                "end_time": 20.411363636363635,
                "pitch": 38,
                "velocity": 64,
                "duration": 0.13181818181818272,
                "tempo": 120.0
            },
            {
                "start_time": 20.429545454545455,
                "end_time": 20.561363636363634,
                "pitch": 38,
                "velocity": 64,
                "duration": 0.13181818181817917,
                "tempo": 120.0
            },
            {
                "start_time": 20.579545454545453,
                "end_time": 20.861363636363635,
                "pitch": 36,
                "velocity": 64,
                "duration": 0.2818181818181813,
                "tempo": 120.0
            },
            {
                "start_time": 20.879545454545454,
                "end_time": 21.16590909090909,
                "pitch": 33,
                "velocity": 64,
                "duration": 0.28636363636363527,
                "tempo": 120.0
            },
            {
                "start_time": 21.18181818181818,
                "end_time": 21.46818181818182,
                "pitch": 31,
                "velocity": 64,
                "duration": 0.2863636363636388,
                "tempo": 120.0
            },
            {
                "start_time": 21.48409090909091,
                "end_time": 21.770454545454545,
                "pitch": 26,
                "velocity": 64,
                "duration": 0.28636363636363527,
                "tempo": 120.0
            },
            {
                "start_time": 21.788636363636364,
                "end_time": 21.922727272727272,
                "pitch": 38,
                "velocity": 64,
                "duration": 0.13409090909090793,
                "tempo": 120.0
            },
            {
                "start_time": 21.938636363636363,
                "end_time": 22.075,
                "pitch": 38,
                "velocity": 64,
                "duration": 0.1363636363636367,
                "tempo": 120.0
            },
            {
                "start_time": 22.09090909090909,
                "end_time": 22.375,
                "pitch": 26,
                "velocity": 64,
                "duration": 0.28409090909091006,
                "tempo": 120.0
            },
            {
                "start_time": 22.39090909090909,
                "end_time": 22.525,
                "pitch": 26,
                "velocity": 64,
                "duration": 0.13409090909090793,
                "tempo": 120.0
            },
            {
                "start_time": 22.54090909090909,
                "end_time": 22.674999999999997,
                "pitch": 26,
                "velocity": 64,
                "duration": 0.13409090909090793,
                "tempo": 120.0
            },
            {
                "start_time": 22.69090909090909,
                "end_time": 22.825,
                "pitch": 39,
                "velocity": 64,
                "duration": 0.13409090909090793,
                "tempo": 120.0
            },
            {
                "start_time": 22.84318181818182,
                "end_time": 22.977272727272727,
                "pitch": 43,
                "velocity": 64,
                "duration": 0.13409090909090793,
                "tempo": 120.0
            },
            {
                "start_time": 22.993181818181817,
                "end_time": 23.129545454545454,
                "pitch": 45,
                "velocity": 64,
                "duration": 0.1363636363636367,
                "tempo": 120.0
            },
            {
                "start_time": 23.145454545454545,
                "end_time": 23.279545454545453,
                "pitch": 48,
                "velocity": 64,
                "duration": 0.13409090909090793,
                "tempo": 120.0
            },
            {
                "start_time": 23.297727272727272,
                "end_time": 23.429545454545455,
                "pitch": 50,
                "velocity": 64,
                "duration": 0.13181818181818272,
                "tempo": 120.0
            },
            {
                "start_time": 23.44772727272727,
                "end_time": 23.579545454545453,
                "pitch": 48,
                "velocity": 64,
                "duration": 0.13181818181818272,
                "tempo": 120.0
            },
            {
                "start_time": 23.597727272727273,
                "end_time": 23.729545454545452,
                "pitch": 45,
                "velocity": 64,
                "duration": 0.13181818181817917,
                "tempo": 120.0
            },
            {
                "start_time": 23.74772727272727,
                "end_time": 23.879545454545454,
                "pitch": 43,
                "velocity": 64,
                "duration": 0.13181818181818272,
                "tempo": 120.0
            },
            {
                "start_time": 23.89772727272727,
                "end_time": 24.18409090909091,
                "pitch": 26,
                "velocity": 64,
                "duration": 0.2863636363636388,
                "tempo": 120.0
            },
            {
                "start_time": 24.2,
                "end_time": 24.334090909090907,
                "pitch": 38,
                "velocity": 64,
                "duration": 0.13409090909090793,
                "tempo": 120.0
            },
            {
                "start_time": 24.352272727272727,
                "end_time": 24.486363636363635,
                "pitch": 38,
                "velocity": 64,
                "duration": 0.13409090909090793,
                "tempo": 120.0
            },
            {
                "start_time": 24.502272727272725,
                "end_time": 24.788636363636364,
                "pitch": 26,
                "velocity": 64,
                "duration": 0.2863636363636388,
                "tempo": 120.0
            },
            {
                "start_time": 24.80681818181818,
                "end_time": 24.94090909090909,
                "pitch": 38,
                "velocity": 64,
                "duration": 0.13409090909091148,
                "tempo": 120.0
            },
            {
                "start_time": 24.956818181818182,
                "end_time": 25.09318181818182,
                "pitch": 38,
                "velocity": 64,
                "duration": 0.1363636363636367,
                "tempo": 120.0
            },
            {
                "start_time": 25.10909090909091,
                "end_time": 25.243181818181817,
                "pitch": 38,
                "velocity": 64,
                "duration": 0.13409090909090793,
                "tempo": 120.0
            },
            {
                "start_time": 25.259090909090908,
                "end_time": 25.393181818181816,
                "pitch": 38,
                "velocity": 64,
                "duration": 0.13409090909090793,
                "tempo": 120.0
            },
            {
                "start_time": 25.409090909090907,
                "end_time": 25.693181818181817,
                "pitch": 36,
                "velocity": 64,
                "duration": 0.28409090909091006,
                "tempo": 120.0
            },
            {
                "start_time": 25.709090909090907,
                "end_time": 25.995454545454542,
                "pitch": 33,
                "velocity": 64,
                "duration": 0.28636363636363527,
                "tempo": 120.0
            },
            {
                "start_time": 26.011363636363637,
                "end_time": 26.297727272727272,
                "pitch": 31,
                "velocity": 64,
                "duration": 0.28636363636363527,
                "tempo": 120.0
            },
            {
                "start_time": 26.31590909090909,
                "end_time": 26.597727272727273,
                "pitch": 26,
                "velocity": 64,
                "duration": 0.2818181818181813,
                "tempo": 120.0
            },
            {
                "start_time": 26.61590909090909,
                "end_time": 26.74772727272727,
                "pitch": 38,
                "velocity": 64,
                "duration": 0.13181818181818272,
                "tempo": 120.0
            },
            {
                "start_time": 26.76590909090909,
                "end_time": 26.89772727272727,
                "pitch": 38,
                "velocity": 64,
                "duration": 0.13181818181817917,
                "tempo": 120.0
            },
            {
                "start_time": 26.91590909090909,
                "end_time": 27.202272727272724,
                "pitch": 26,
                "velocity": 64,
                "duration": 0.28636363636363527,
                "tempo": 120.0
            },
            {
                "start_time": 27.218181818181815,
                "end_time": 27.352272727272727,
                "pitch": 26,
                "velocity": 64,
                "duration": 0.13409090909091148,
                "tempo": 120.0
            },
            {
                "start_time": 27.370454545454542,
                "end_time": 27.504545454545454,
                "pitch": 26,
                "velocity": 64,
                "duration": 0.13409090909091148,
                "tempo": 120.0
            },
            {
                "start_time": 27.520454545454545,
                "end_time": 27.65681818181818,
                "pitch": 39,
                "velocity": 64,
                "duration": 0.1363636363636367,
                "tempo": 120.0
            },
            {
                "start_time": 27.672727272727272,
                "end_time": 27.80681818181818,
                "pitch": 43,
                "velocity": 64,
                "duration": 0.13409090909090793,
                "tempo": 120.0
            },
            {
                "start_time": 27.825,
                "end_time": 27.959090909090907,
                "pitch": 45,
                "velocity": 64,
                "duration": 0.13409090909090793,
                "tempo": 120.0
            },
            {
                "start_time": 27.974999999999998,
                "end_time": 28.111363636363635,
                "pitch": 48,
                "velocity": 64,
                "duration": 0.1363636363636367,
                "tempo": 120.0
            },
            {
                "start_time": 28.127272727272725,
                "end_time": 28.261363636363637,
                "pitch": 50,
                "velocity": 64,
                "duration": 0.13409090909091148,
                "tempo": 120.0
            },
            {
                "start_time": 28.277272727272727,
                "end_time": 28.411363636363635,
                "pitch": 48,
                "velocity": 64,
                "duration": 0.13409090909090793,
                "tempo": 120.0
            },
            {
                "start_time": 28.427272727272726,
                "end_time": 28.561363636363634,
                "pitch": 45,
                "velocity": 64,
                "duration": 0.13409090909090793,
                "tempo": 120.0
            },
            {
                "start_time": 28.577272727272724,
                "end_time": 28.711363636363636,
                "pitch": 43,
                "velocity": 64,
                "duration": 0.13409090909091148,
                "tempo": 120.0
            }
        ],
        "Harpsichord": [
            {
                "start_time": 0.0,
                "end_time": 0.022727272727272728,
                "pitch": 83,
                "velocity": 51,
                "duration": 0.022727272727272728,
                "tempo": 120.0
            },
            {
                "start_time": 0.03409090909090909,
                "end_time": 0.08863636363636364,
                "pitch": 83,
                "velocity": 51,
                "duration": 0.05454545454545455,
                "tempo": 120.0
            },
            {
                "start_time": 0.09999999999999999,
                "end_time": 0.18863636363636363,
                "pitch": 74,
                "velocity": 51,
                "duration": 0.08863636363636364,
                "tempo": 120.0
            },
            {
                "start_time": 0.19999999999999998,
                "end_time": 0.28863636363636364,
                "pitch": 76,
                "velocity": 51,
                "duration": 0.08863636363636365,
                "tempo": 120.0
            },
            {
                "start_time": 0.3,
                "end_time": 0.3886363636363636,
                "pitch": 79,
                "velocity": 51,
                "duration": 0.08863636363636362,
                "tempo": 120.0
            },
            {
                "start_time": 0.39999999999999997,
                "end_time": 0.5340909090909091,
                "pitch": 81,
                "velocity": 51,
                "duration": 0.1340909090909091,
                "tempo": 120.0
            },
            {
                "start_time": 0.5499999999999999,
                "end_time": 0.6840909090909091,
                "pitch": 81,
                "velocity": 51,
                "duration": 0.13409090909090915,
                "tempo": 120.0
            },
            {
                "start_time": 0.7,
                "end_time": 0.8340909090909091,
                "pitch": 79,
                "velocity": 51,
                "duration": 0.13409090909090915,
                "tempo": 120.0
            },
            {
                "start_time": 0.85,
                "end_time": 0.984090909090909,
                "pitch": 74,
                "velocity": 51,
                "duration": 0.13409090909090904,
                "tempo": 120.0
            },
            {
                "start_time": 1.0,
                "end_time": 1.134090909090909,
                "pitch": 76,
                "velocity": 51,
                "duration": 0.13409090909090904,
                "tempo": 120.0
            },
            {
                "start_time": 1.15,
                "end_time": 1.284090909090909,
                "pitch": 74,
                "velocity": 51,
                "duration": 0.13409090909090904,
                "tempo": 120.0
            },
            {
                "start_time": 1.3,
                "end_time": 1.434090909090909,
                "pitch": 76,
                "velocity": 51,
                "duration": 0.13409090909090904,
                "tempo": 120.0
            },
            {
                "start_time": 1.45,
                "end_time": 1.584090909090909,
                "pitch": 79,
                "velocity": 51,
                "duration": 0.13409090909090904,
                "tempo": 120.0
            },
            {
                "start_time": 1.5999999999999999,
                "end_time": 1.734090909090909,
                "pitch": 81,
                "velocity": 51,
                "duration": 0.13409090909090904,
                "tempo": 120.0
            },
            {
                "start_time": 1.7522727272727272,
                "end_time": 1.8863636363636362,
                "pitch": 81,
                "velocity": 51,
                "duration": 0.13409090909090904,
                "tempo": 120.0
            },
            {
                "start_time": 1.9022727272727271,
                "end_time": 2.0386363636363636,
                "pitch": 79,
                "velocity": 51,
                "duration": 0.13636363636363646,
                "tempo": 120.0
            },
            {
                "start_time": 2.0545454545454542,
                "end_time": 2.1886363636363635,
                "pitch": 74,
                "velocity": 51,
                "duration": 0.13409090909090926,
                "tempo": 120.0
            },
            {
                "start_time": 2.2068181818181816,
                "end_time": 2.3386363636363634,
                "pitch": 76,
                "velocity": 51,
                "duration": 0.13181818181818183,
                "tempo": 120.0
            },
            {
                "start_time": 2.356818181818182,
                "end_time": 2.4886363636363633,
                "pitch": 74,
                "velocity": 51,
                "duration": 0.1318181818181814,
                "tempo": 120.0
            },
            {
                "start_time": 2.506818181818182,
                "end_time": 2.6386363636363637,
                "pitch": 76,
                "velocity": 51,
                "duration": 0.13181818181818183,
                "tempo": 120.0
            },
            {
                "start_time": 2.6568181818181817,
                "end_time": 2.7886363636363636,
                "pitch": 79,
                "velocity": 51,
                "duration": 0.13181818181818183,
                "tempo": 120.0
            },
            {
                "start_time": 2.8068181818181817,
                "end_time": 2.940909090909091,
                "pitch": 81,
                "velocity": 51,
                "duration": 0.13409090909090926,
                "tempo": 120.0
            },
            {
                "start_time": 2.9568181818181816,
                "end_time": 3.093181818181818,
                "pitch": 81,
                "velocity": 51,
                "duration": 0.13636363636363624,
                "tempo": 120.0
            },
            {
                "start_time": 3.109090909090909,
                "end_time": 3.243181818181818,
                "pitch": 79,
                "velocity": 51,
                "duration": 0.13409090909090926,
                "tempo": 120.0
            },
            {
                "start_time": 3.2613636363636362,
                "end_time": 3.3954545454545455,
                "pitch": 74,
                "velocity": 51,
                "duration": 0.13409090909090926,
                "tempo": 120.0
            },
            {
                "start_time": 3.411363636363636,
                "end_time": 3.6977272727272728,
                "pitch": 76,
                "velocity": 51,
                "duration": 0.2863636363636366,
                "tempo": 120.0
            },
            {
                "start_time": 3.715909090909091,
                "end_time": 3.8499999999999996,
                "pitch": 84,
                "velocity": 51,
                "duration": 0.13409090909090882,
                "tempo": 120.0
            },
            {
                "start_time": 3.8659090909090907,
                "end_time": 4.152272727272727,
                "pitch": 83,
                "velocity": 51,
                "duration": 0.2863636363636366,
                "tempo": 120.0
            },
            {
                "start_time": 4.170454545454545,
                "end_time": 4.456818181818182,
                "pitch": 79,
                "velocity": 51,
                "duration": 0.28636363636363704,
                "tempo": 120.0
            },
            {
                "start_time": 4.472727272727273,
                "end_time": 4.756818181818182,
                "pitch": 77,
                "velocity": 51,
                "duration": 0.28409090909090917,
                "tempo": 120.0
            },
            {
                "start_time": 4.7749999999999995,
                "end_time": 4.906818181818181,
                "pitch": 74,
                "velocity": 51,
                "duration": 0.13181818181818183,
                "tempo": 120.0
            },
            {
                "start_time": 4.925,
                "end_time": 5.056818181818182,
                "pitch": 76,
                "velocity": 51,
                "duration": 0.13181818181818183,
                "tempo": 120.0
            },
            {
                "start_time": 5.075,
                "end_time": 5.206818181818181,
                "pitch": 79,
                "velocity": 51,
                "duration": 0.13181818181818095,
                "tempo": 120.0
            },
            {
                "start_time": 5.225,
                "end_time": 5.3590909090909085,
                "pitch": 81,
                "velocity": 51,
                "duration": 0.13409090909090882,
                "tempo": 120.0
            },
            {
                "start_time": 5.375,
                "end_time": 5.511363636363636,
                "pitch": 81,
                "velocity": 51,
                "duration": 0.1363636363636358,
                "tempo": 120.0
            },
            {
                "start_time": 5.527272727272727,
                "end_time": 5.661363636363636,
                "pitch": 79,
                "velocity": 51,
                "duration": 0.13409090909090882,
                "tempo": 120.0
            },
            {
                "start_time": 5.679545454545455,
                "end_time": 5.8136363636363635,
                "pitch": 74,
                "velocity": 51,
                "duration": 0.13409090909090882,
                "tempo": 120.0
            },
            {
                "start_time": 5.829545454545454,
                "end_time": 5.963636363636363,
                "pitch": 76,
                "velocity": 51,
                "duration": 0.13409090909090882,
                "tempo": 120.0
            },
            {
                "start_time": 5.9795454545454545,
                "end_time": 6.113636363636363,
                "pitch": 74,
                "velocity": 51,
                "duration": 0.13409090909090882,
                "tempo": 120.0
            },
            {
                "start_time": 6.129545454545454,
                "end_time": 6.263636363636364,
                "pitch": 76,
                "velocity": 51,
                "duration": 0.1340909090909097,
                "tempo": 120.0
            },
            {
                "start_time": 6.279545454545454,
                "end_time": 6.413636363636363,
                "pitch": 79,
                "velocity": 51,
                "duration": 0.13409090909090882,
                "tempo": 120.0
            },
            {
                "start_time": 6.429545454545455,
                "end_time": 6.5636363636363635,
                "pitch": 81,
                "velocity": 51,
                "duration": 0.13409090909090882,
                "tempo": 120.0
            },
            {
                "start_time": 6.579545454545454,
                "end_time": 6.713636363636363,
                "pitch": 81,
                "velocity": 51,
                "duration": 0.13409090909090882,
                "tempo": 120.0
            },
            {
                "start_time": 6.7295454545454545,
                "end_time": 6.863636363636363,
                "pitch": 79,
                "velocity": 51,
                "duration": 0.13409090909090882,
                "tempo": 120.0
            },
            {
                "start_time": 6.879545454545454,
                "end_time": 7.013636363636364,
                "pitch": 74,
                "velocity": 51,
                "duration": 0.1340909090909097,
                "tempo": 120.0
            },
            {
                "start_time": 7.029545454545454,
                "end_time": 7.16590909090909,
                "pitch": 76,
                "velocity": 51,
                "duration": 0.1363636363636358,
                "tempo": 120.0
            },
            {
                "start_time": 7.181818181818182,
                "end_time": 7.3159090909090905,
                "pitch": 74,
                "velocity": 51,
                "duration": 0.13409090909090882,
                "tempo": 120.0
            },
            {
                "start_time": 7.334090909090909,
                "end_time": 7.468181818181818,
                "pitch": 76,
                "velocity": 51,
                "duration": 0.13409090909090882,
                "tempo": 120.0
            },
            {
                "start_time": 7.4840909090909085,
                "end_time": 7.620454545454545,
                "pitch": 79,
                "velocity": 51,
                "duration": 0.1363636363636367,
                "tempo": 120.0
            },
            {
                "start_time": 7.636363636363636,
                "end_time": 7.7704545454545455,
                "pitch": 81,
                "velocity": 51,
                "duration": 0.1340909090909097,
                "tempo": 120.0
            },
            {
                "start_time": 7.786363636363636,
                "end_time": 7.920454545454545,
                "pitch": 81,
                "velocity": 51,
                "duration": 0.13409090909090882,
                "tempo": 120.0
            },
            {
                "start_time": 7.936363636363636,
                "end_time": 8.070454545454545,
                "pitch": 79,
                "velocity": 51,
                "duration": 0.1340909090909097,
                "tempo": 120.0
            },
            {
                "start_time": 8.086363636363636,
                "end_time": 8.220454545454546,
                "pitch": 74,
                "velocity": 51,
                "duration": 0.1340909090909097,
                "tempo": 120.0
            },
            {
                "start_time": 8.236363636363636,
                "end_time": 8.522727272727272,
                "pitch": 76,
                "velocity": 51,
                "duration": 0.28636363636363527,
                "tempo": 120.0
            },
            {
                "start_time": 8.538636363636364,
                "end_time": 8.674999999999999,
                "pitch": 84,
                "velocity": 51,
                "duration": 0.1363636363636349,
                "tempo": 120.0
            },
            {
                "start_time": 8.690909090909091,
                "end_time": 8.975,
                "pitch": 83,
                "velocity": 51,
                "duration": 0.2840909090909083,
                "tempo": 120.0
            },
            {
                "start_time": 8.993181818181817,
                "end_time": 9.275,
                "pitch": 79,
                "velocity": 51,
                "duration": 0.2818181818181831,
                "tempo": 120.0
            },
            {
                "start_time": 9.293181818181818,
                "end_time": 9.575,
                "pitch": 77,
                "velocity": 51,
                "duration": 0.2818181818181813,
                "tempo": 120.0
            },
            {
                "start_time": 9.593181818181817,
                "end_time": 9.725,
                "pitch": 76,
                "velocity": 51,
                "duration": 0.13181818181818272,
                "tempo": 120.0
            },
            {
                "start_time": 9.743181818181817,
                "end_time": 9.875,
                "pitch": 78,
                "velocity": 51,
                "duration": 0.13181818181818272,
                "tempo": 120.0
            },
            {
                "start_time": 9.893181818181818,
                "end_time": 10.025,
                "pitch": 81,
                "velocity": 51,
                "duration": 0.13181818181818272,
                "tempo": 120.0
            },
            {
                "start_time": 10.043181818181818,
                "end_time": 10.174999999999999,
                "pitch": 83,
                "velocity": 51,
                "duration": 0.13181818181818095,
                "tempo": 120.0
            },
            {
                "start_time": 10.193181818181818,
                "end_time": 10.325,
                "pitch": 83,
                "velocity": 51,
                "duration": 0.13181818181818095,
                "tempo": 120.0
            },
            {
                "start_time": 10.343181818181817,
                "end_time": 10.475,
                "pitch": 81,
                "velocity": 51,
                "duration": 0.13181818181818272,
                "tempo": 120.0
            },
            {
                "start_time": 10.493181818181817,
                "end_time": 10.625,
                "pitch": 76,
                "velocity": 51,
                "duration": 0.13181818181818272,
                "tempo": 120.0
            },
            {
                "start_time": 10.643181818181818,
                "end_time": 10.777272727272727,
                "pitch": 78,
                "velocity": 51,
                "duration": 0.1340909090909097,
                "tempo": 120.0
            },
            {
                "start_time": 10.793181818181818,
                "end_time": 10.929545454545455,
                "pitch": 76,
                "velocity": 51,
                "duration": 0.1363636363636367,
                "tempo": 120.0
            },
            {
                "start_time": 10.945454545454545,
                "end_time": 11.079545454545453,
                "pitch": 78,
                "velocity": 51,
                "duration": 0.13409090909090793,
                "tempo": 120.0
            },
            {
                "start_time": 11.097727272727273,
                "end_time": 11.23181818181818,
                "pitch": 81,
                "velocity": 51,
                "duration": 0.13409090909090793,
                "tempo": 120.0
            },
            {
                "start_time": 11.247727272727273,
                "end_time": 11.381818181818181,
                "pitch": 83,
                "velocity": 51,
                "duration": 0.13409090909090793,
                "tempo": 120.0
            },
            {
                "start_time": 11.397727272727272,
                "end_time": 11.531818181818181,
                "pitch": 83,
                "velocity": 51,
                "duration": 0.1340909090909097,
                "tempo": 120.0
            },
            {
                "start_time": 11.547727272727272,
                "end_time": 11.681818181818182,
                "pitch": 81,
                "velocity": 51,
                "duration": 0.1340909090909097,
                "tempo": 120.0
            },
            {
                "start_time": 11.697727272727272,
                "end_time": 11.831818181818182,
                "pitch": 76,
                "velocity": 51,
                "duration": 0.1340909090909097,
                "tempo": 120.0
            },
            {
                "start_time": 11.847727272727273,
                "end_time": 11.98181818181818,
                "pitch": 78,
                "velocity": 51,
                "duration": 0.13409090909090793,
                "tempo": 120.0
            },
            {
                "start_time": 11.997727272727273,
                "end_time": 12.131818181818181,
                "pitch": 76,
                "velocity": 51,
                "duration": 0.13409090909090793,
                "tempo": 120.0
            },
            {
                "start_time": 12.147727272727272,
                "end_time": 12.281818181818181,
                "pitch": 78,
                "velocity": 51,
                "duration": 0.1340909090909097,
                "tempo": 120.0
            },
            {
                "start_time": 12.297727272727272,
                "end_time": 12.431818181818182,
                "pitch": 81,
                "velocity": 51,
                "duration": 0.1340909090909097,
                "tempo": 120.0
            },
            {
                "start_time": 12.447727272727272,
                "end_time": 12.581818181818182,
                "pitch": 83,
                "velocity": 51,
                "duration": 0.1340909090909097,
                "tempo": 120.0
            },
            {
                "start_time": 12.597727272727273,
                "end_time": 12.73181818181818,
                "pitch": 83,
                "velocity": 51,
                "duration": 0.13409090909090793,
                "tempo": 120.0
            },
            {
                "start_time": 12.747727272727271,
                "end_time": 12.881818181818181,
                "pitch": 81,
                "velocity": 51,
                "duration": 0.1340909090909097,
                "tempo": 120.0
            },
            {
                "start_time": 12.897727272727272,
                "end_time": 13.031818181818181,
                "pitch": 76,
                "velocity": 51,
                "duration": 0.1340909090909097,
                "tempo": 120.0
            },
            {
                "start_time": 13.047727272727272,
                "end_time": 13.331818181818182,
                "pitch": 78,
                "velocity": 51,
                "duration": 0.28409090909091006,
                "tempo": 120.0
            },
            {
                "start_time": 13.347727272727273,
                "end_time": 13.48181818181818,
                "pitch": 86,
                "velocity": 51,
                "duration": 0.13409090909090793,
                "tempo": 120.0
            },
            {
                "start_time": 13.497727272727271,
                "end_time": 13.784090909090908,
                "pitch": 85,
                "velocity": 51,
                "duration": 0.28636363636363704,
                "tempo": 120.0
            },
            {
                "start_time": 13.799999999999999,
                "end_time": 14.086363636363636,
                "pitch": 81,
                "velocity": 51,
                "duration": 0.28636363636363704,
                "tempo": 120.0
            },
            {
                "start_time": 14.102272727272727,
                "end_time": 14.388636363636364,
                "pitch": 79,
                "velocity": 51,
                "duration": 0.28636363636363704,
                "tempo": 120.0
            },
            {
                "start_time": 14.404545454545454,
                "end_time": 14.538636363636362,
                "pitch": 76,
                "velocity": 51,
                "duration": 0.13409090909090793,
                "tempo": 120.0
            },
            {
                "start_time": 14.554545454545455,
                "end_time": 14.688636363636363,
                "pitch": 78,
                "velocity": 51,
                "duration": 0.13409090909090793,
                "tempo": 120.0
            },
            {
                "start_time": 14.704545454545453,
                "end_time": 14.838636363636363,
                "pitch": 81,
                "velocity": 51,
                "duration": 0.1340909090909097,
                "tempo": 120.0
            },
            {
                "start_time": 14.854545454545454,
                "end_time": 14.988636363636363,
                "pitch": 83,
                "velocity": 51,
                "duration": 0.1340909090909097,
                "tempo": 120.0
            },
            {
                "start_time": 15.004545454545454,
                "end_time": 15.138636363636364,
                "pitch": 83,
                "velocity": 51,
                "duration": 0.1340909090909097,
                "tempo": 120.0
            },
            {
                "start_time": 15.154545454545454,
                "end_time": 15.288636363636362,
                "pitch": 81,
                "velocity": 51,
                "duration": 0.13409090909090793,
                "tempo": 120.0
            },
            {
                "start_time": 15.304545454545455,
                "end_time": 15.438636363636363,
                "pitch": 76,
                "velocity": 51,
                "duration": 0.13409090909090793,
                "tempo": 120.0
            },
            {
                "start_time": 15.454545454545453,
                "end_time": 15.588636363636363,
                "pitch": 78,
                "velocity": 51,
                "duration": 0.1340909090909097,
                "tempo": 120.0
            },
            {
                "start_time": 15.604545454545454,
                "end_time": 15.738636363636363,
                "pitch": 76,
                "velocity": 51,
                "duration": 0.1340909090909097,
                "tempo": 120.0
            },
            {
                "start_time": 15.754545454545454,
                "end_time": 15.888636363636364,
                "pitch": 78,
                "velocity": 51,
                "duration": 0.1340909090909097,
                "tempo": 120.0
            },
            {
                "start_time": 15.904545454545454,
                "end_time": 16.038636363636364,
                "pitch": 81,
                "velocity": 51,
                "duration": 0.1340909090909097,
                "tempo": 120.0
            },
            {
                "start_time": 16.054545454545455,
                "end_time": 16.188636363636363,
                "pitch": 83,
                "velocity": 51,
                "duration": 0.13409090909090793,
                "tempo": 120.0
            },
            {
                "start_time": 16.204545454545453,
                "end_time": 16.33863636363636,
                "pitch": 83,
                "velocity": 51,
                "duration": 0.13409090909090793,
                "tempo": 120.0
            },
            {
                "start_time": 16.354545454545455,
                "end_time": 16.488636363636363,
                "pitch": 81,
                "velocity": 51,
                "duration": 0.13409090909090793,
                "tempo": 120.0
            },
            {
                "start_time": 16.504545454545454,
                "end_time": 16.638636363636362,
                "pitch": 76,
                "velocity": 51,
                "duration": 0.13409090909090793,
                "tempo": 120.0
            },
            {
                "start_time": 16.654545454545453,
                "end_time": 16.788636363636364,
                "pitch": 78,
                "velocity": 51,
                "duration": 0.13409090909091148,
                "tempo": 120.0
            },
            {
                "start_time": 16.80681818181818,
                "end_time": 16.94090909090909,
                "pitch": 76,
                "velocity": 51,
                "duration": 0.13409090909091148,
                "tempo": 120.0
            },
            {
                "start_time": 16.956818181818182,
                "end_time": 17.09318181818182,
                "pitch": 78,
                "velocity": 51,
                "duration": 0.1363636363636367,
                "tempo": 120.0
            },
            {
                "start_time": 17.10909090909091,
                "end_time": 17.243181818181817,
                "pitch": 81,
                "velocity": 51,
                "duration": 0.13409090909090793,
                "tempo": 120.0
            },
            {
                "start_time": 17.261363636363637,
                "end_time": 17.393181818181816,
                "pitch": 83,
                "velocity": 51,
                "duration": 0.13181818181817917,
                "tempo": 120.0
            },
            {
                "start_time": 17.411363636363635,
                "end_time": 17.543181818181818,
                "pitch": 83,
                "velocity": 51,
                "duration": 0.13181818181818272,
                "tempo": 120.0
            },
            {
                "start_time": 17.561363636363634,
                "end_time": 17.693181818181817,
                "pitch": 81,
                "velocity": 51,
                "duration": 0.13181818181818272,
                "tempo": 120.0
            },
            {
                "start_time": 17.711363636363636,
                "end_time": 17.84318181818182,
                "pitch": 76,
                "velocity": 51,
                "duration": 0.13181818181818272,
                "tempo": 120.0
            },
            {
                "start_time": 17.861363636363635,
                "end_time": 18.147727272727273,
                "pitch": 78,
                "velocity": 51,
                "duration": 0.2863636363636388,
                "tempo": 120.0
            },
            {
                "start_time": 18.163636363636364,
                "end_time": 18.297727272727272,
                "pitch": 86,
                "velocity": 51,
                "duration": 0.13409090909090793,
                "tempo": 120.0
            },
            {
                "start_time": 18.31590909090909,
                "end_time": 18.602272727272727,
                "pitch": 85,
                "velocity": 51,
                "duration": 0.28636363636363527,
                "tempo": 120.0
            },
            {
                "start_time": 18.618181818181817,
                "end_time": 18.904545454545453,
                "pitch": 81,
                "velocity": 51,
                "duration": 0.28636363636363527,
                "tempo": 120.0
            },
            {
                "start_time": 18.920454545454543,
                "end_time": 19.206818181818182,
                "pitch": 79,
                "velocity": 51,
                "duration": 0.2863636363636388,
                "tempo": 120.0
            },
            {
                "start_time": 19.222727272727273,
                "end_time": 19.35681818181818,
                "pitch": 72,
                "velocity": 51,
                "duration": 0.13409090909090793,
                "tempo": 120.0
            },
            {
                "start_time": 19.37272727272727,
                "end_time": 19.50681818181818,
                "pitch": 74,
                "velocity": 51,
                "duration": 0.13409090909090793,
                "tempo": 120.0
            },
            {
                "start_time": 19.522727272727273,
                "end_time": 19.65681818181818,
                "pitch": 77,
                "velocity": 51,
                "duration": 0.13409090909090793,
                "tempo": 120.0
            },
            {
                "start_time": 19.672727272727272,
                "end_time": 19.80681818181818,
                "pitch": 79,
                "velocity": 51,
                "duration": 0.13409090909090793,
                "tempo": 120.0
            },
            {
                "start_time": 19.825,
                "end_time": 19.959090909090907,
                "pitch": 79,
                "velocity": 51,
                "duration": 0.13409090909090793,
                "tempo": 120.0
            },
            {
                "start_time": 19.974999999999998,
                "end_time": 20.111363636363635,
                "pitch": 77,
                "velocity": 51,
                "duration": 0.1363636363636367,
                "tempo": 120.0
            },
            {
                "start_time": 20.127272727272725,
                "end_time": 20.261363636363637,
                "pitch": 72,
                "velocity": 51,
                "duration": 0.13409090909091148,
                "tempo": 120.0
            },
            {
                "start_time": 20.279545454545453,
                "end_time": 20.411363636363635,
                "pitch": 74,
                "velocity": 51,
                "duration": 0.13181818181818272,
                "tempo": 120.0
            },
            {
                "start_time": 20.429545454545455,
                "end_time": 20.561363636363634,
                "pitch": 72,
                "velocity": 51,
                "duration": 0.13181818181817917,
                "tempo": 120.0
            },
            {
                "start_time": 20.579545454545453,
                "end_time": 20.711363636363636,
                "pitch": 74,
                "velocity": 51,
                "duration": 0.13181818181818272,
                "tempo": 120.0
            },
            {
                "start_time": 20.729545454545452,
                "end_time": 20.861363636363635,
                "pitch": 77,
                "velocity": 51,
                "duration": 0.13181818181818272,
                "tempo": 120.0
            },
            {
                "start_time": 20.879545454545454,
                "end_time": 21.013636363636362,
                "pitch": 79,
                "velocity": 51,
                "duration": 0.13409090909090793,
                "tempo": 120.0
            },
            {
                "start_time": 21.029545454545453,
                "end_time": 21.16590909090909,
                "pitch": 79,
                "velocity": 51,
                "duration": 0.1363636363636367,
                "tempo": 120.0
            },
            {
                "start_time": 21.18181818181818,
                "end_time": 21.31590909090909,
                "pitch": 77,
                "velocity": 51,
                "duration": 0.13409090909091148,
                "tempo": 120.0
            },
            {
                "start_time": 21.334090909090907,
                "end_time": 21.46818181818182,
                "pitch": 72,
                "velocity": 51,
                "duration": 0.13409090909091148,
                "tempo": 120.0
            },
            {
                "start_time": 21.48409090909091,
                "end_time": 21.620454545454546,
                "pitch": 74,
                "velocity": 51,
                "duration": 0.1363636363636367,
                "tempo": 120.0
            },
            {
                "start_time": 21.636363636363637,
                "end_time": 21.770454545454545,
                "pitch": 72,
                "velocity": 51,
                "duration": 0.13409090909090793,
                "tempo": 120.0
            },
            {
                "start_time": 21.788636363636364,
                "end_time": 21.922727272727272,
                "pitch": 74,
                "velocity": 51,
                "duration": 0.13409090909090793,
                "tempo": 120.0
            },
            {
                "start_time": 21.938636363636363,
                "end_time": 22.075,
                "pitch": 77,
                "velocity": 51,
                "duration": 0.1363636363636367,
                "tempo": 120.0
            },
            {
                "start_time": 22.09090909090909,
                "end_time": 22.224999999999998,
                "pitch": 79,
                "velocity": 51,
                "duration": 0.13409090909090793,
                "tempo": 120.0
            },
            {
                "start_time": 22.24090909090909,
                "end_time": 22.375,
                "pitch": 79,
                "velocity": 51,
                "duration": 0.13409090909091148,
                "tempo": 120.0
            },
            {
                "start_time": 22.39090909090909,
                "end_time": 22.525,
                "pitch": 77,
                "velocity": 51,
                "duration": 0.13409090909090793,
                "tempo": 120.0
            },
            {
                "start_time": 22.54090909090909,
                "end_time": 22.674999999999997,
                "pitch": 72,
                "velocity": 51,
                "duration": 0.13409090909090793,
                "tempo": 120.0
            },
            {
                "start_time": 22.69090909090909,
                "end_time": 22.977272727272727,
                "pitch": 74,
                "velocity": 51,
                "duration": 0.28636363636363527,
                "tempo": 120.0
            },
            {
                "start_time": 22.993181818181817,
                "end_time": 23.129545454545454,
                "pitch": 82,
                "velocity": 51,
                "duration": 0.1363636363636367,
                "tempo": 120.0
            },
            {
                "start_time": 23.145454545454545,
                "end_time": 23.429545454545455,
                "pitch": 81,
                "velocity": 51,
                "duration": 0.28409090909091006,
                "tempo": 120.0
            },
            {
                "start_time": 23.44772727272727,
                "end_time": 23.729545454545452,
                "pitch": 77,
                "velocity": 51,
                "duration": 0.2818181818181813,
                "tempo": 120.0
            },
            {
                "start_time": 23.74772727272727,
                "end_time": 24.03181818181818,
                "pitch": 75,
                "velocity": 51,
                "duration": 0.28409090909091006,
                "tempo": 120.0
            },
            {
                "start_time": 24.047727272727272,
                "end_time": 24.18409090909091,
                "pitch": 72,
                "velocity": 51,
                "duration": 0.1363636363636367,
                "tempo": 120.0
            },
            {
                "start_time": 24.2,
                "end_time": 24.334090909090907,
                "pitch": 74,
                "velocity": 51,
                "duration": 0.13409090909090793,
                "tempo": 120.0
            },
            {
                "start_time": 24.352272727272727,
                "end_time": 24.486363636363635,
                "pitch": 77,
                "velocity": 51,
                "duration": 0.13409090909090793,
                "tempo": 120.0
            },
            {
                "start_time": 24.502272727272725,
                "end_time": 24.638636363636362,
                "pitch": 79,
                "velocity": 51,
                "duration": 0.1363636363636367,
                "tempo": 120.0
            },
            {
                "start_time": 24.654545454545453,
                "end_time": 24.788636363636364,
                "pitch": 79,
                "velocity": 51,
                "duration": 0.13409090909091148,
                "tempo": 120.0
            },
            {
                "start_time": 24.80681818181818,
                "end_time": 24.94090909090909,
                "pitch": 77,
                "velocity": 51,
                "duration": 0.13409090909091148,
                "tempo": 120.0
            },
            {
                "start_time": 24.956818181818182,
                "end_time": 25.09318181818182,
                "pitch": 72,
                "velocity": 51,
                "duration": 0.1363636363636367,
                "tempo": 120.0
            },
            {
                "start_time": 25.10909090909091,
                "end_time": 25.243181818181817,
                "pitch": 74,
                "velocity": 51,
                "duration": 0.13409090909090793,
                "tempo": 120.0
            },
            {
                "start_time": 25.259090909090908,
                "end_time": 25.393181818181816,
                "pitch": 72,
                "velocity": 51,
                "duration": 0.13409090909090793,
                "tempo": 120.0
            },
            {
                "start_time": 25.409090909090907,
                "end_time": 25.543181818181818,
                "pitch": 74,
                "velocity": 51,
                "duration": 0.13409090909091148,
                "tempo": 120.0
            },
            {
                "start_time": 25.55909090909091,
                "end_time": 25.693181818181817,
                "pitch": 77,
                "velocity": 51,
                "duration": 0.13409090909090793,
                "tempo": 120.0
            },
            {
                "start_time": 25.709090909090907,
                "end_time": 25.84318181818182,
                "pitch": 79,
                "velocity": 51,
                "duration": 0.13409090909091148,
                "tempo": 120.0
            },
            {
                "start_time": 25.861363636363635,
                "end_time": 25.995454545454542,
                "pitch": 79,
                "velocity": 51,
                "duration": 0.13409090909090793,
                "tempo": 120.0
            },
            {
                "start_time": 26.011363636363637,
                "end_time": 26.14772727272727,
                "pitch": 77,
                "velocity": 51,
                "duration": 0.13636363636363313,
                "tempo": 120.0
            },
            {
                "start_time": 26.163636363636364,
                "end_time": 26.297727272727272,
                "pitch": 72,
                "velocity": 51,
                "duration": 0.13409090909090793,
                "tempo": 120.0
            },
            {
                "start_time": 26.31590909090909,
                "end_time": 26.44772727272727,
                "pitch": 74,
                "velocity": 51,
                "duration": 0.13181818181817917,
                "tempo": 120.0
            },
            {
                "start_time": 26.46590909090909,
                "end_time": 26.597727272727273,
                "pitch": 72,
                "velocity": 51,
                "duration": 0.13181818181818272,
                "tempo": 120.0
            },
            {
                "start_time": 26.61590909090909,
                "end_time": 26.74772727272727,
                "pitch": 74,
                "velocity": 51,
                "duration": 0.13181818181818272,
                "tempo": 120.0
            },
            {
                "start_time": 26.76590909090909,
                "end_time": 26.89772727272727,
                "pitch": 77,
                "velocity": 51,
                "duration": 0.13181818181817917,
                "tempo": 120.0
            },
            {
                "start_time": 26.91590909090909,
                "end_time": 27.049999999999997,
                "pitch": 79,
                "velocity": 51,
                "duration": 0.13409090909090793,
                "tempo": 120.0
            },
            {
                "start_time": 27.06590909090909,
                "end_time": 27.202272727272724,
                "pitch": 79,
                "velocity": 51,
                "duration": 0.13636363636363313,
                "tempo": 120.0
            },
            {
                "start_time": 27.218181818181815,
                "end_time": 27.352272727272727,
                "pitch": 77,
                "velocity": 51,
                "duration": 0.13409090909091148,
                "tempo": 120.0
            },
            {
                "start_time": 27.370454545454542,
                "end_time": 27.504545454545454,
                "pitch": 72,
                "velocity": 51,
                "duration": 0.13409090909091148,
                "tempo": 120.0
            },
            {
                "start_time": 27.520454545454545,
                "end_time": 27.80681818181818,
                "pitch": 74,
                "velocity": 51,
                "duration": 0.28636363636363527,
                "tempo": 120.0
            },
            {
                "start_time": 27.825,
                "end_time": 27.959090909090907,
                "pitch": 82,
                "velocity": 51,
                "duration": 0.13409090909090793,
                "tempo": 120.0
            },
            {
                "start_time": 27.974999999999998,
                "end_time": 28.261363636363637,
                "pitch": 81,
                "velocity": 51,
                "duration": 0.2863636363636388,
                "tempo": 120.0
            },
            {
                "start_time": 28.277272727272727,
                "end_time": 28.561363636363634,
                "pitch": 77,
                "velocity": 51,
                "duration": 0.2840909090909065,
                "tempo": 120.0
            },
            {
                "start_time": 28.577272727272724,
                "end_time": 28.727272727272727,
                "pitch": 75,
                "velocity": 51,
                "duration": 0.15000000000000213,
                "tempo": 120.0
            }
        ]
    }
}