{
    "track_id": "Maze Hunter 3-D (FM) - 04 - Jungle Area",
    "mood": "angry",
    "instruments": {
        "Violin": [
            {
                "start_time": 0.0,
                "end_time": 0.28863636363636364,
                "pitch": 72,
                "velocity": 101,
                "duration": 0.28863636363636364,
                "tempo": 120.0
            },
            {
                "start_time": 0.3068181818181818,
                "end_time": 0.6568181818181817,
                "pitch": 65,
                "velocity": 101,
                "duration": 0.3499999999999999,
                "tempo": 120.0
            },
            {
                "start_time": 0.6727272727272727,
                "end_time": 1.1568181818181817,
                "pitch": 72,
                "velocity": 101,
                "duration": 0.484090909090909,
                "tempo": 120.0
            },
            {
                "start_time": 1.1727272727272726,
                "end_time": 1.2886363636363636,
                "pitch": 72,
                "velocity": 101,
                "duration": 0.11590909090909096,
                "tempo": 120.0
            },
            {
                "start_time": 1.3068181818181817,
                "end_time": 1.4068181818181817,
                "pitch": 75,
                "velocity": 101,
                "duration": 0.10000000000000009,
                "tempo": 120.0
            },
            {
                "start_time": 1.4227272727272726,
                "end_time": 1.6568181818181817,
                "pitch": 72,
                "velocity": 101,
                "duration": 0.23409090909090913,
                "tempo": 120.0
            },
            {
                "start_time": 1.6727272727272726,
                "end_time": 1.9068181818181817,
                "pitch": 71,
                "velocity": 101,
                "duration": 0.23409090909090913,
                "tempo": 120.0
            },
            {
                "start_time": 1.9227272727272726,
                "end_time": 2.290909090909091,
                "pitch": 72,
                "velocity": 101,
                "duration": 0.3681818181818184,
                "tempo": 120.0
            },
            {
                "start_time": 2.3068181818181817,
                "end_time": 2.659090909090909,
                "pitch": 65,
                "velocity": 101,
                "duration": 0.3522727272727275,
                "tempo": 120.0
            },
            {
                "start_time": 2.6772727272727272,
                "end_time": 3.1590909090909087,
                "pitch": 72,
                "velocity": 101,
                "duration": 0.4818181818181815,
                "tempo": 120.0
            },
            {
                "start_time": 3.1772727272727272,
                "end_time": 3.293181818181818,
                "pitch": 72,
                "velocity": 101,
                "duration": 0.11590909090909074,
                "tempo": 120.0
            },
            {
                "start_time": 3.309090909090909,
                "end_time": 3.4090909090909087,
                "pitch": 75,
                "velocity": 101,
                "duration": 0.09999999999999964,
                "tempo": 120.0
            },
            {
                "start_time": 3.4272727272727272,
                "end_time": 3.6590909090909087,
                "pitch": 72,
                "velocity": 101,
                "duration": 0.23181818181818148,
                "tempo": 120.0
            },
            {
                "start_time": 3.6772727272727272,
                "end_time": 3.9090909090909087,
                "pitch": 71,
                "velocity": 101,
                "duration": 0.23181818181818148,
                "tempo": 120.0
            },
            {
                "start_time": 3.9272727272727272,
                "end_time": 4.293181818181818,
                "pitch": 72,
                "velocity": 101,
                "duration": 0.36590909090909074,
                "tempo": 120.0
            },
            {
                "start_time": 4.309090909090909,
                "end_time": 4.659090909090909,
                "pitch": 65,
                "velocity": 101,
                "duration": 0.35000000000000053,
                "tempo": 120.0
            },
            {
                "start_time": 4.677272727272727,
                "end_time": 5.159090909090909,
                "pitch": 72,
                "velocity": 101,
                "duration": 0.48181818181818237,
                "tempo": 120.0
            },
            {
                "start_time": 5.177272727272727,
                "end_time": 5.293181818181818,
                "pitch": 72,
                "velocity": 101,
                "duration": 0.11590909090909118,
                "tempo": 120.0
            },
            {
                "start_time": 5.309090909090909,
                "end_time": 5.409090909090909,
                "pitch": 75,
                "velocity": 101,
                "duration": 0.10000000000000053,
                "tempo": 120.0
            },
            {
                "start_time": 5.427272727272727,
                "end_time": 5.659090909090909,
                "pitch": 72,
                "velocity": 101,
                "duration": 0.23181818181818237,
                "tempo": 120.0
            },
            {
                "start_time": 5.677272727272727,
                "end_time": 5.909090909090909,
                "pitch": 71,
                "velocity": 101,
                "duration": 0.23181818181818237,
                "tempo": 120.0
            },
            {
                "start_time": 5.927272727272727,
                "end_time": 6.293181818181818,
                "pitch": 72,
                "velocity": 101,
                "duration": 0.3659090909090912,
                "tempo": 120.0
            },
            {
                "start_time": 6.309090909090909,
                "end_time": 6.659090909090909,
                "pitch": 65,
                "velocity": 101,
                "duration": 0.35000000000000053,
                "tempo": 120.0
            },
            {
                "start_time": 6.677272727272727,
                "end_time": 7.159090909090909,
                "pitch": 72,
                "velocity": 101,
                "duration": 0.48181818181818237,
                "tempo": 120.0
            },
            {
                "start_time": 7.177272727272727,
                "end_time": 7.293181818181818,
                "pitch": 72,
                "velocity": 101,
                "duration": 0.11590909090909118,
                "tempo": 120.0
            },
            {
                "start_time": 7.309090909090909,
                "end_time": 7.409090909090909,
                "pitch": 75,
                "velocity": 101,
                "duration": 0.10000000000000053,
                "tempo": 120.0
            },
            {
                "start_time": 7.427272727272727,
                "end_time": 7.659090909090908,
                "pitch": 72,
                "velocity": 101,
                "duration": 0.23181818181818148,
                "tempo": 120.0
            },
            {
                "start_time": 7.677272727272727,
                "end_time": 7.909090909090908,
                "pitch": 71,
                "velocity": 101,
                "duration": 0.23181818181818148,
                "tempo": 120.0
            },
            {
                "start_time": 7.927272727272727,
                "end_time": 8.295454545454545,
                "pitch": 65,
                "velocity": 101,
                "duration": 0.36818181818181817,
                "tempo": 120.0
            },
            {
                "start_time": 8.311363636363636,
                "end_time": 8.663636363636364,
                "pitch": 58,
                "velocity": 101,
                "duration": 0.3522727272727284,
                "tempo": 120.0
            },
            {
                "start_time": 8.681818181818182,
                "end_time": 9.163636363636364,
                "pitch": 65,
                "velocity": 101,
                "duration": 0.48181818181818237,
                "tempo": 120.0
            },
            {
                "start_time": 9.181818181818182,
                "end_time": 9.297727272727272,
                "pitch": 65,
                "velocity": 101,
                "duration": 0.1159090909090903,
                "tempo": 120.0
            },
            {
                "start_time": 9.313636363636363,
                "end_time": 9.413636363636364,
                "pitch": 68,
                "velocity": 101,
                "duration": 0.10000000000000142,
                "tempo": 120.0
            },
            {
                "start_time": 9.431818181818182,
                "end_time": 9.663636363636364,
                "pitch": 65,
                "velocity": 101,
                "duration": 0.23181818181818237,
                "tempo": 120.0
            },
            {
                "start_time": 9.681818181818182,
                "end_time": 9.913636363636364,
                "pitch": 64,
                "velocity": 101,
                "duration": 0.23181818181818237,
                "tempo": 120.0
            },
            {
                "start_time": 9.931818181818182,
                "end_time": 10.295454545454545,
                "pitch": 65,
                "velocity": 101,
                "duration": 0.3636363636363633,
                "tempo": 120.0
            },
            {
                "start_time": 10.311363636363636,
                "end_time": 10.656818181818181,
                "pitch": 58,
                "velocity": 101,
                "duration": 0.3454545454545457,
                "tempo": 120.0
            },
            {
                "start_time": 10.672727272727272,
                "end_time": 11.168181818181818,
                "pitch": 65,
                "velocity": 101,
                "duration": 0.49545454545454604,
                "tempo": 120.0
            },
            {
                "start_time": 11.186363636363636,
                "end_time": 11.302272727272726,
                "pitch": 65,
                "velocity": 101,
                "duration": 0.1159090909090903,
                "tempo": 120.0
            },
            {
                "start_time": 11.318181818181818,
                "end_time": 11.418181818181818,
                "pitch": 68,
                "velocity": 101,
                "duration": 0.09999999999999964,
                "tempo": 120.0
            },
            {
                "start_time": 11.436363636363636,
                "end_time": 11.668181818181818,
                "pitch": 65,
                "velocity": 101,
                "duration": 0.23181818181818237,
                "tempo": 120.0
            },
            {
                "start_time": 11.686363636363636,
                "end_time": 11.918181818181818,
                "pitch": 64,
                "velocity": 101,
                "duration": 0.23181818181818237,
                "tempo": 120.0
            },
            {
                "start_time": 11.936363636363636,
                "end_time": 12.302272727272726,
                "pitch": 65,
                "velocity": 101,
                "duration": 0.3659090909090903,
                "tempo": 120.0
            },
            {
                "start_time": 12.318181818181818,
                "end_time": 12.668181818181818,
                "pitch": 58,
                "velocity": 101,
                "duration": 0.34999999999999964,
                "tempo": 120.0
            },
            {
                "start_time": 12.686363636363636,
                "end_time": 13.168181818181818,
                "pitch": 65,
                "velocity": 101,
                "duration": 0.48181818181818237,
                "tempo": 120.0
            },
            {
                "start_time": 13.186363636363636,
                "end_time": 13.302272727272726,
                "pitch": 65,
                "velocity": 101,
                "duration": 0.1159090909090903,
                "tempo": 120.0
            },
            {
                "start_time": 13.318181818181818,
                "end_time": 13.418181818181818,
                "pitch": 68,
                "velocity": 101,
                "duration": 0.09999999999999964,
                "tempo": 120.0
            },
            {
                "start_time": 13.436363636363636,
                "end_time": 13.668181818181818,
                "pitch": 65,
                "velocity": 101,
                "duration": 0.23181818181818237,
                "tempo": 120.0
            },
            {
                "start_time": 13.686363636363636,
                "end_time": 13.918181818181818,
                "pitch": 64,
                "velocity": 101,
                "duration": 0.23181818181818237,
                "tempo": 120.0
            },
            {
                "start_time": 13.936363636363636,
                "end_time": 14.302272727272726,
                "pitch": 65,
                "velocity": 101,
                "duration": 0.3659090909090903,
                "tempo": 120.0
            },
            {
                "start_time": 14.318181818181818,
                "end_time": 14.668181818181818,
                "pitch": 58,
                "velocity": 101,
                "duration": 0.34999999999999964,
                "tempo": 120.0
            },
            {
                "start_time": 14.686363636363636,
                "end_time": 15.168181818181818,
                "pitch": 65,
                "velocity": 101,
                "duration": 0.48181818181818237,
                "tempo": 120.0
            },
            {
                "start_time": 15.186363636363636,
                "end_time": 15.302272727272726,
                "pitch": 65,
                "velocity": 101,
                "duration": 0.1159090909090903,
                "tempo": 120.0
            },
            {
                "start_time": 15.318181818181817,
                "end_time": 15.418181818181818,
                "pitch": 68,
                "velocity": 101,
                "duration": 0.10000000000000142,
                "tempo": 120.0
            },
            {
                "start_time": 15.436363636363636,
                "end_time": 15.668181818181818,
                "pitch": 65,
                "velocity": 101,
                "duration": 0.23181818181818237,
                "tempo": 120.0
            },
            {
                "start_time": 15.686363636363636,
                "end_time": 15.918181818181818,
                "pitch": 64,
                "velocity": 101,
                "duration": 0.23181818181818237,
                "tempo": 120.0
            },
            {
                "start_time": 15.936363636363636,
                "end_time": 16.302272727272726,
                "pitch": 72,
                "velocity": 101,
                "duration": 0.3659090909090903,
                "tempo": 120.0
            },
            {
                "start_time": 16.318181818181817,
                "end_time": 16.668181818181818,
                "pitch": 65,
                "velocity": 101,
                "duration": 0.3500000000000014,
                "tempo": 120.0
            },
            {
                "start_time": 16.686363636363634,
                "end_time": 17.168181818181818,
                "pitch": 72,
                "velocity": 101,
                "duration": 0.48181818181818414,
                "tempo": 120.0
            },
            {
                "start_time": 17.186363636363634,
                "end_time": 17.302272727272726,
                "pitch": 72,
                "velocity": 101,
                "duration": 0.11590909090909207,
                "tempo": 120.0
            },
            {
                "start_time": 17.318181818181817,
                "end_time": 17.418181818181818,
                "pitch": 75,
                "velocity": 101,
                "duration": 0.10000000000000142,
                "tempo": 120.0
            },
            {
                "start_time": 17.436363636363634,
                "end_time": 17.668181818181818,
                "pitch": 72,
                "velocity": 101,
                "duration": 0.23181818181818414,
                "tempo": 120.0
            },
            {
                "start_time": 17.686363636363634,
                "end_time": 17.918181818181818,
                "pitch": 71,
                "velocity": 101,
                "duration": 0.23181818181818414,
                "tempo": 120.0
            },
            {
                "start_time": 17.936363636363634,
                "end_time": 18.302272727272726,
                "pitch": 72,
                "velocity": 101,
                "duration": 0.36590909090909207,
                "tempo": 120.0
            },
            {
                "start_time": 18.318181818181817,
                "end_time": 18.668181818181818,
                "pitch": 65,
                "velocity": 101,
                "duration": 0.3500000000000014,
                "tempo": 120.0
            },
            {
                "start_time": 18.686363636363634,
                "end_time": 19.168181818181818,
                "pitch": 72,
                "velocity": 101,
                "duration": 0.48181818181818414,
                "tempo": 120.0
            },
            {
                "start_time": 19.186363636363634,
                "end_time": 19.302272727272726,
                "pitch": 72,
                "velocity": 101,
                "duration": 0.11590909090909207,
                "tempo": 120.0
            },
            {
                "start_time": 19.318181818181817,
                "end_time": 19.418181818181818,
                "pitch": 75,
                "velocity": 101,
                "duration": 0.10000000000000142,
                "tempo": 120.0
            },
            {
                "start_time": 19.436363636363634,
                "end_time": 19.668181818181818,
                "pitch": 72,
                "velocity": 101,
                "duration": 0.23181818181818414,
                "tempo": 120.0
            },
            {
                "start_time": 19.686363636363634,
                "end_time": 19.918181818181818,
                "pitch": 71,
                "velocity": 101,
                "duration": 0.23181818181818414,
                "tempo": 120.0
            },
            {
                "start_time": 19.936363636363634,
                "end_time": 20.302272727272726,
                "pitch": 72,
                "velocity": 101,
                "duration": 0.36590909090909207,
                "tempo": 120.0
            },
            {
                "start_time": 20.318181818181817,
                "end_time": 20.668181818181818,
                "pitch": 65,
                "velocity": 101,
                "duration": 0.3500000000000014,
                "tempo": 120.0
            },
            {
                "start_time": 20.686363636363634,
                "end_time": 21.168181818181818,
                "pitch": 72,
                "velocity": 101,
                "duration": 0.48181818181818414,
                "tempo": 120.0
            },
            {
                "start_time": 21.186363636363634,
                "end_time": 21.302272727272726,
                "pitch": 72,
                "velocity": 101,
                "duration": 0.11590909090909207,
                "tempo": 120.0
            },
            {
                "start_time": 21.318181818181817,
                "end_time": 21.418181818181818,
                "pitch": 75,
                "velocity": 101,
                "duration": 0.10000000000000142,
                "tempo": 120.0
            },
            {
                "start_time": 21.436363636363634,
                "end_time": 21.668181818181818,
                "pitch": 72,
                "velocity": 101,
                "duration": 0.23181818181818414,
                "tempo": 120.0
            },
            {
                "start_time": 21.686363636363634,
                "end_time": 21.918181818181818,
                "pitch": 71,
                "velocity": 101,
                "duration": 0.23181818181818414,
                "tempo": 120.0
            },
            {
                "start_time": 21.936363636363634,
                "end_time": 23.918181818181818,
                "pitch": 72,
                "velocity": 101,
                "duration": 1.9818181818181841,
                "tempo": 120.0
            },
            {
                "start_time": 23.936363636363634,
                "end_time": 24.052272727272726,
                "pitch": 67,
                "velocity": 101,
                "duration": 0.11590909090909207,
                "tempo": 120.0
            },
            {
                "start_time": 24.068181818181817,
                "end_time": 25.302272727272726,
                "pitch": 68,
                "velocity": 101,
                "duration": 1.2340909090909093,
                "tempo": 120.0
            },
            {
                "start_time": 25.318181818181817,
                "end_time": 25.418181818181818,
                "pitch": 67,
                "velocity": 101,
                "duration": 0.10000000000000142,
                "tempo": 120.0
            },
            {
                "start_time": 25.436363636363634,
                "end_time": 25.636363636363637,
                "pitch": 68,
                "velocity": 101,
                "duration": 0.20000000000000284,
                "tempo": 120.0
            },
            {
                "start_time": 25.652272727272727,
                "end_time": 25.918181818181818,
                "pitch": 67,
                "velocity": 101,
                "duration": 0.26590909090909065,
                "tempo": 120.0
            },
            {
                "start_time": 25.936363636363634,
                "end_time": 27.918181818181818,
                "pitch": 60,
                "velocity": 101,
                "duration": 1.9818181818181841,
                "tempo": 120.0
            },
            {
                "start_time": 27.936363636363634,
                "end_time": 28.052272727272726,
                "pitch": 67,
                "velocity": 101,
                "duration": 0.11590909090909207,
                "tempo": 120.0
            },
            {
                "start_time": 28.068181818181817,
                "end_time": 29.668181818181818,
                "pitch": 68,
                "velocity": 101,
                "duration": 1.6000000000000014,
                "tempo": 120.0
            },
            {
                "start_time": 29.686363636363634,
                "end_time": 29.918181818181818,
                "pitch": 67,
                "velocity": 101,
                "duration": 0.23181818181818414,
                "tempo": 120.0
            },
            {
                "start_time": 29.936363636363634,
                "end_time": 31.918181818181818,
                "pitch": 70,
                "velocity": 101,
                "duration": 1.9818181818181841,
                "tempo": 120.0
            },
            {
                "start_time": 31.936363636363634,
                "end_time": 32.05227272727272,
                "pitch": 65,
                "velocity": 101,
                "duration": 0.11590909090908852,
                "tempo": 120.0
            },
            {
                "start_time": 32.06818181818182,
                "end_time": 32.30227272727272,
                "pitch": 68,
                "velocity": 101,
                "duration": 0.23409090909090224,
                "tempo": 120.0
            },
            {
                "start_time": 32.31818181818182,
                "end_time": 32.418181818181814,
                "pitch": 65,
                "velocity": 101,
                "duration": 0.09999999999999432,
                "tempo": 120.0
            },
            {
                "start_time": 32.43636363636364,
                "end_time": 32.668181818181814,
                "pitch": 70,
                "velocity": 101,
                "duration": 0.23181818181817704,
                "tempo": 120.0
            },
            {
                "start_time": 32.68636363636364,
                "end_time": 32.752272727272725,
                "pitch": 65,
                "velocity": 101,
                "duration": 0.06590909090908781,
                "tempo": 120.0
            },
            {
                "start_time": 32.768181818181816,
                "end_time": 33.918181818181814,
                "pitch": 73,
                "velocity": 101,
                "duration": 1.1499999999999986,
                "tempo": 120.0
            },
            {
                "start_time": 33.93636363636364,
                "end_time": 34.05227272727272,
                "pitch": 65,
                "velocity": 101,
                "duration": 0.11590909090908497,
                "tempo": 120.0
            },
            {
                "start_time": 34.06818181818181,
                "end_time": 34.30227272727272,
                "pitch": 68,
                "velocity": 101,
                "duration": 0.23409090909090935,
                "tempo": 120.0
            },
            {
                "start_time": 34.31818181818181,
                "end_time": 34.418181818181814,
                "pitch": 65,
                "velocity": 101,
                "duration": 0.10000000000000142,
                "tempo": 120.0
            },
            {
                "start_time": 34.43636363636364,
                "end_time": 34.668181818181814,
                "pitch": 70,
                "velocity": 101,
                "duration": 0.23181818181817704,
                "tempo": 120.0
            },
            {
                "start_time": 34.68636363636364,
                "end_time": 34.80227272727272,
                "pitch": 65,
                "velocity": 101,
                "duration": 0.11590909090908497,
                "tempo": 120.0
            },
            {
                "start_time": 34.81818181818181,
                "end_time": 35.918181818181814,
                "pitch": 72,
                "velocity": 101,
                "duration": 1.1000000000000014,
                "tempo": 120.0
            },
            {
                "start_time": 35.93636363636364,
                "end_time": 36.05227272727272,
                "pitch": 65,
                "velocity": 101,
                "duration": 0.11590909090908497,
                "tempo": 120.0
            },
            {
                "start_time": 36.06818181818181,
                "end_time": 36.30227272727272,
                "pitch": 68,
                "velocity": 101,
                "duration": 0.23409090909090935,
                "tempo": 120.0
            },
            {
                "start_time": 36.31818181818181,
                "end_time": 36.418181818181814,
                "pitch": 65,
                "velocity": 101,
                "duration": 0.10000000000000142,
                "tempo": 120.0
            },
            {
                "start_time": 36.43636363636364,
                "end_time": 36.46818181818182,
                "pitch": 68,
                "velocity": 101,
                "duration": 0.0318181818181813,
                "tempo": 120.0
            },
            {
                "start_time": 36.486363636363635,
                "end_time": 36.668181818181814,
                "pitch": 70,
                "velocity": 101,
                "duration": 0.18181818181817988,
                "tempo": 120.0
            },
            {
                "start_time": 36.68636363636364,
                "end_time": 36.80227272727272,
                "pitch": 65,
                "velocity": 101,
                "duration": 0.11590909090908497,
                "tempo": 120.0
            },
            {
                "start_time": 36.81818181818181,
                "end_time": 37.918181818181814,
                "pitch": 73,
                "velocity": 101,
                "duration": 1.1000000000000014,
                "tempo": 120.0
            },
            {
                "start_time": 37.93636363636364,
                "end_time": 38.05227272727272,
                "pitch": 65,
                "velocity": 101,
                "duration": 0.11590909090908497,
                "tempo": 120.0
            },
            {
                "start_time": 38.06818181818181,
                "end_time": 38.30227272727272,
                "pitch": 68,
                "velocity": 101,
                "duration": 0.23409090909090935,
                "tempo": 120.0
            },
            {
                "start_time": 38.31818181818181,
                "end_time": 38.418181818181814,
                "pitch": 65,
                "velocity": 101,
                "duration": 0.10000000000000142,
                "tempo": 120.0
            },
            {
                "start_time": 38.43636363636364,
                "end_time": 38.668181818181814,
                "pitch": 70,
                "velocity": 101,
                "duration": 0.23181818181817704,
                "tempo": 120.0
            },
            {
                "start_time": 38.68636363636364,
                "end_time": 38.80227272727272,
                "pitch": 65,
                "velocity": 101,
                "duration": 0.11590909090908497,
                "tempo": 120.0
            },
            {
                "start_time": 38.81818181818181,
                "end_time": 39.918181818181814,
                "pitch": 68,
                "velocity": 101,
                "duration": 1.1000000000000014,
                "tempo": 120.0
            },
            {
                "start_time": 39.93636363636364,
                "end_time": 40.05227272727272,
                "pitch": 58,
                "velocity": 101,
                "duration": 0.11590909090908497,
                "tempo": 120.0
            },
            {
                "start_time": 40.06818181818181,
                "end_time": 40.30227272727272,
                "pitch": 61,
                "velocity": 101,
                "duration": 0.23409090909090935,
                "tempo": 120.0
            },
            {
                "start_time": 40.31818181818181,
                "end_time": 40.418181818181814,
                "pitch": 58,
                "velocity": 101,
                "duration": 0.10000000000000142,
                "tempo": 120.0
            },
            {
                "start_time": 40.43636363636364,
                "end_time": 40.668181818181814,
                "pitch": 63,
                "velocity": 101,
                "duration": 0.23181818181817704,
                "tempo": 120.0
            },
            {
                "start_time": 40.68636363636364,
                "end_time": 40.80227272727272,
                "pitch": 58,
                "velocity": 101,
                "duration": 0.11590909090908497,
                "tempo": 120.0
            },
            {
                "start_time": 40.81818181818181,
                "end_time": 41.918181818181814,
                "pitch": 61,
                "velocity": 101,
                "duration": 1.1000000000000014,
                "tempo": 120.0
            },
            {
                "start_time": 41.93636363636364,
                "end_time": 42.05227272727272,
                "pitch": 58,
                "velocity": 101,
                "duration": 0.11590909090908497,
                "tempo": 120.0
            },
            {
                "start_time": 42.06818181818181,
                "end_time": 42.30227272727272,
                "pitch": 61,
                "velocity": 101,
                "duration": 0.23409090909090935,
                "tempo": 120.0
            },
            {
                "start_time": 42.31818181818181,
                "end_time": 42.418181818181814,
                "pitch": 58,
                "velocity": 101,
                "duration": 0.10000000000000142,
                "tempo": 120.0
            },
            {
                "start_time": 42.43636363636364,
                "end_time": 42.668181818181814,
                "pitch": 63,
                "velocity": 101,
                "duration": 0.23181818181817704,
                "tempo": 120.0
            },
            {
                "start_time": 42.68636363636364,
                "end_time": 42.80227272727272,
                "pitch": 58,
                "velocity": 101,
                "duration": 0.11590909090908497,
                "tempo": 120.0
            },
            {
                "start_time": 42.81818181818181,
                "end_time": 43.918181818181814,
                "pitch": 66,
                "velocity": 101,
                "duration": 1.1000000000000014,
                "tempo": 120.0
            },
            {
                "start_time": 43.93636363636364,
                "end_time": 44.05227272727272,
                "pitch": 58,
                "velocity": 101,
                "duration": 0.11590909090908497,
                "tempo": 120.0
            },
            {
                "start_time": 44.06818181818181,
                "end_time": 44.30227272727272,
                "pitch": 61,
                "velocity": 101,
                "duration": 0.23409090909090935,
                "tempo": 120.0
            },
            {
                "start_time": 44.31818181818181,
                "end_time": 44.418181818181814,
                "pitch": 58,
                "velocity": 101,
                "duration": 0.10000000000000142,
                "tempo": 120.0
            },
            {
                "start_time": 44.43636363636364,
                "end_time": 44.668181818181814,
                "pitch": 63,
                "velocity": 101,
                "duration": 0.23181818181817704,
                "tempo": 120.0
            },
            {
                "start_time": 44.68636363636364,
                "end_time": 44.80227272727272,
                "pitch": 58,
                "velocity": 101,
                "duration": 0.11590909090908497,
                "tempo": 120.0
            },
            {
                "start_time": 44.81818181818181,
                "end_time": 45.918181818181814,
                "pitch": 61,
                "velocity": 101,
                "duration": 1.1000000000000014,
                "tempo": 120.0
            },
            {
                "start_time": 45.93636363636364,
                "end_time": 46.05227272727272,
                "pitch": 58,
                "velocity": 101,
                "duration": 0.11590909090908497,
                "tempo": 120.0
            },
            {
                "start_time": 46.06818181818181,
                "end_time": 46.30227272727272,
                "pitch": 61,
                "velocity": 101,
                "duration": 0.23409090909090935,
                "tempo": 120.0
            },
            {
                "start_time": 46.31818181818181,
                "end_time": 46.418181818181814,
                "pitch": 58,
                "velocity": 101,
                "duration": 0.10000000000000142,
                "tempo": 120.0
            },
            {
                "start_time": 46.43636363636364,
                "end_time": 46.668181818181814,
                "pitch": 63,
                "velocity": 101,
                "duration": 0.23181818181817704,
                "tempo": 120.0
            },
            {
                "start_time": 46.68636363636364,
                "end_time": 46.80227272727272,
                "pitch": 58,
                "velocity": 101,
                "duration": 0.11590909090908497,
                "tempo": 120.0
            },
            {
                "start_time": 46.81818181818181,
                "end_time": 47.918181818181814,
                "pitch": 66,
                "velocity": 101,
                "duration": 1.1000000000000014,
                "tempo": 120.0
            },
            {
                "start_time": 47.93636363636364,
                "end_time": 48.05227272727272,
                "pitch": 67,
                "velocity": 101,
                "duration": 0.11590909090908497,
                "tempo": 120.0
            },
            {
                "start_time": 48.06818181818181,
                "end_time": 49.668181818181814,
                "pitch": 68,
                "velocity": 101,
                "duration": 1.6000000000000014,
                "tempo": 120.0
            },
            {
                "start_time": 49.68636363636364,
                "end_time": 49.918181818181814,
                "pitch": 67,
                "velocity": 101,
                "duration": 0.23181818181817704,
                "tempo": 120.0
            },
            {
                "start_time": 49.93636363636364,
                "end_time": 51.668181818181814,
                "pitch": 65,
                "velocity": 101,
                "duration": 1.731818181818177,
                "tempo": 120.0
            },
            {
                "start_time": 51.68636363636364,
                "end_time": 51.918181818181814,
                "pitch": 59,
                "velocity": 101,
                "duration": 0.23181818181817704,
                "tempo": 120.0
            },
            {
                "start_time": 51.93636363636363,
                "end_time": 52.168181818181814,
                "pitch": 75,
                "velocity": 101,
                "duration": 0.23181818181818414,
                "tempo": 120.0
            },
            {
                "start_time": 52.18636363636363,
                "end_time": 54.086363636363636,
                "pitch": 72,
                "velocity": 101,
                "duration": 1.9000000000000057,
                "tempo": 120.0
            }
        ],
        "Electric Guitar (clean)": [
            {
                "start_time": 0.0,
                "end_time": 0.1590909090909091,
                "pitch": 41,
                "velocity": 51,
                "duration": 0.1590909090909091,
                "tempo": 120.0
            },
            {
                "start_time": 0.17272727272727273,
                "end_time": 0.28863636363636364,
                "pitch": 41,
                "velocity": 51,
                "duration": 0.1159090909090909,
                "tempo": 120.0
            },
            {
                "start_time": 0.3068181818181818,
                "end_time": 0.6568181818181817,
                "pitch": 41,
                "velocity": 51,
                "duration": 0.3499999999999999,
                "tempo": 120.0
            },
            {
                "start_time": 0.6727272727272727,
                "end_time": 0.9068181818181817,
                "pitch": 44,
                "velocity": 51,
                "duration": 0.23409090909090902,
                "tempo": 120.0
            },
            {
                "start_time": 0.9227272727272727,
                "end_time": 1.1568181818181817,
                "pitch": 41,
                "velocity": 51,
                "duration": 0.23409090909090902,
                "tempo": 120.0
            },
            {
                "start_time": 1.1727272727272726,
                "end_time": 1.2886363636363636,
                "pitch": 41,
                "velocity": 51,
                "duration": 0.11590909090909096,
                "tempo": 120.0
            },
            {
                "start_time": 1.3068181818181817,
                "end_time": 1.6568181818181817,
                "pitch": 41,
                "velocity": 51,
                "duration": 0.3500000000000001,
                "tempo": 120.0
            },
            {
                "start_time": 1.6727272727272726,
                "end_time": 1.9068181818181817,
                "pitch": 44,
                "velocity": 51,
                "duration": 0.23409090909090913,
                "tempo": 120.0
            },
            {
                "start_time": 1.9227272727272726,
                "end_time": 2.1568181818181817,
                "pitch": 41,
                "velocity": 51,
                "duration": 0.23409090909090913,
                "tempo": 120.0
            },
            {
                "start_time": 2.172727272727273,
                "end_time": 2.290909090909091,
                "pitch": 41,
                "velocity": 51,
                "duration": 0.11818181818181817,
                "tempo": 120.0
            },
            {
                "start_time": 2.3068181818181817,
                "end_time": 2.659090909090909,
                "pitch": 41,
                "velocity": 51,
                "duration": 0.3522727272727275,
                "tempo": 120.0
            },
            {
                "start_time": 2.6772727272727272,
                "end_time": 2.909090909090909,
                "pitch": 44,
                "velocity": 51,
                "duration": 0.23181818181818192,
                "tempo": 120.0
            },
            {
                "start_time": 2.9272727272727272,
                "end_time": 3.1590909090909087,
                "pitch": 41,
                "velocity": 51,
                "duration": 0.23181818181818148,
                "tempo": 120.0
            },
            {
                "start_time": 3.1772727272727272,
                "end_time": 3.293181818181818,
                "pitch": 41,
                "velocity": 51,
                "duration": 0.11590909090909074,
                "tempo": 120.0
            },
            {
                "start_time": 3.309090909090909,
                "end_time": 3.6590909090909087,
                "pitch": 41,
                "velocity": 51,
                "duration": 0.34999999999999964,
                "tempo": 120.0
            },
            {
                "start_time": 3.6772727272727272,
                "end_time": 3.9090909090909087,
                "pitch": 44,
                "velocity": 51,
                "duration": 0.23181818181818148,
                "tempo": 120.0
            },
            {
                "start_time": 3.9272727272727272,
                "end_time": 4.159090909090909,
                "pitch": 41,
                "velocity": 51,
                "duration": 0.23181818181818192,
                "tempo": 120.0
            },
            {
                "start_time": 4.177272727272727,
                "end_time": 4.293181818181818,
                "pitch": 41,
                "velocity": 51,
                "duration": 0.11590909090909118,
                "tempo": 120.0
            },
            {
                "start_time": 4.309090909090909,
                "end_time": 4.659090909090909,
                "pitch": 41,
                "velocity": 51,
                "duration": 0.35000000000000053,
                "tempo": 120.0
            },
            {
                "start_time": 4.677272727272727,
                "end_time": 4.909090909090909,
                "pitch": 44,
                "velocity": 51,
                "duration": 0.23181818181818237,
                "tempo": 120.0
            },
            {
                "start_time": 4.927272727272727,
                "end_time": 5.159090909090909,
                "pitch": 41,
                "velocity": 51,
                "duration": 0.23181818181818237,
                "tempo": 120.0
            },
            {
                "start_time": 5.177272727272727,
                "end_time": 5.293181818181818,
                "pitch": 41,
                "velocity": 51,
                "duration": 0.11590909090909118,
                "tempo": 120.0
            },
            {
                "start_time": 5.309090909090909,
                "end_time": 5.659090909090909,
                "pitch": 41,
                "velocity": 51,
                "duration": 0.35000000000000053,
                "tempo": 120.0
            },
            {
                "start_time": 5.677272727272727,
                "end_time": 5.909090909090909,
                "pitch": 44,
                "velocity": 51,
                "duration": 0.23181818181818237,
                "tempo": 120.0
            },
            {
                "start_time": 5.927272727272727,
                "end_time": 6.159090909090909,
                "pitch": 41,
                "velocity": 51,
                "duration": 0.23181818181818237,
                "tempo": 120.0
            },
            {
                "start_time": 6.177272727272727,
                "end_time": 6.293181818181818,
                "pitch": 41,
                "velocity": 51,
                "duration": 0.11590909090909118,
                "tempo": 120.0
            },
            {
                "start_time": 6.309090909090909,
                "end_time": 6.659090909090909,
                "pitch": 41,
                "velocity": 51,
                "duration": 0.35000000000000053,
                "tempo": 120.0
            },
            {
                "start_time": 6.677272727272727,
                "end_time": 6.909090909090909,
                "pitch": 44,
                "velocity": 51,
                "duration": 0.23181818181818237,
                "tempo": 120.0
            },
            {
                "start_time": 6.927272727272727,
                "end_time": 7.159090909090909,
                "pitch": 41,
                "velocity": 51,
                "duration": 0.23181818181818237,
                "tempo": 120.0
            },
            {
                "start_time": 7.177272727272727,
                "end_time": 7.293181818181818,
                "pitch": 41,
                "velocity": 51,
                "duration": 0.11590909090909118,
                "tempo": 120.0
            },
            {
                "start_time": 7.309090909090909,
                "end_time": 7.659090909090908,
                "pitch": 41,
                "velocity": 51,
                "duration": 0.34999999999999964,
                "tempo": 120.0
            },
            {
                "start_time": 7.677272727272727,
                "end_time": 7.909090909090908,
                "pitch": 44,
                "velocity": 51,
                "duration": 0.23181818181818148,
                "tempo": 120.0
            },
            {
                "start_time": 7.927272727272727,
                "end_time": 8.159090909090908,
                "pitch": 41,
                "velocity": 51,
                "duration": 0.23181818181818148,
                "tempo": 120.0
            },
            {
                "start_time": 8.177272727272728,
                "end_time": 8.295454545454545,
                "pitch": 41,
                "velocity": 51,
                "duration": 0.11818181818181728,
                "tempo": 120.0
            },
            {
                "start_time": 8.311363636363636,
                "end_time": 8.663636363636364,
                "pitch": 41,
                "velocity": 51,
                "duration": 0.3522727272727284,
                "tempo": 120.0
            },
            {
                "start_time": 8.681818181818182,
                "end_time": 8.913636363636364,
                "pitch": 44,
                "velocity": 51,
                "duration": 0.23181818181818237,
                "tempo": 120.0
            },
            {
                "start_time": 8.931818181818182,
                "end_time": 9.163636363636364,
                "pitch": 41,
                "velocity": 51,
                "duration": 0.23181818181818237,
                "tempo": 120.0
            },
            {
                "start_time": 9.181818181818182,
                "end_time": 9.297727272727272,
                "pitch": 41,
                "velocity": 51,
                "duration": 0.1159090909090903,
                "tempo": 120.0
            },
            {
                "start_time": 9.313636363636363,
                "end_time": 9.663636363636364,
                "pitch": 41,
                "velocity": 51,
                "duration": 0.3500000000000014,
                "tempo": 120.0
            },
            {
                "start_time": 9.681818181818182,
                "end_time": 9.913636363636364,
                "pitch": 44,
                "velocity": 51,
                "duration": 0.23181818181818237,
                "tempo": 120.0
            },
            {
                "start_time": 9.931818181818182,
                "end_time": 10.163636363636364,
                "pitch": 41,
                "velocity": 51,
                "duration": 0.23181818181818237,
                "tempo": 120.0
            },
            {
                "start_time": 10.181818181818182,
                "end_time": 10.295454545454545,
                "pitch": 41,
                "velocity": 51,
                "duration": 0.11363636363636331,
                "tempo": 120.0
            },
            {
                "start_time": 10.311363636363636,
                "end_time": 10.656818181818181,
                "pitch": 41,
                "velocity": 51,
                "duration": 0.3454545454545457,
                "tempo": 120.0
            },
            {
                "start_time": 10.672727272727272,
                "end_time": 10.911363636363635,
                "pitch": 44,
                "velocity": 51,
                "duration": 0.2386363636363633,
                "tempo": 120.0
            },
            {
                "start_time": 10.929545454545455,
                "end_time": 11.168181818181818,
                "pitch": 41,
                "velocity": 51,
                "duration": 0.2386363636363633,
                "tempo": 120.0
            },
            {
                "start_time": 11.186363636363636,
                "end_time": 11.302272727272726,
                "pitch": 41,
                "velocity": 51,
                "duration": 0.1159090909090903,
                "tempo": 120.0
            },
            {
                "start_time": 11.318181818181818,
                "end_time": 11.668181818181818,
                "pitch": 41,
                "velocity": 51,
                "duration": 0.34999999999999964,
                "tempo": 120.0
            },
            {
                "start_time": 11.686363636363636,
                "end_time": 11.918181818181818,
                "pitch": 44,
                "velocity": 51,
                "duration": 0.23181818181818237,
                "tempo": 120.0
            },
            {
                "start_time": 11.936363636363636,
                "end_time": 12.168181818181818,
                "pitch": 41,
                "velocity": 51,
                "duration": 0.23181818181818237,
                "tempo": 120.0
            },
            {
                "start_time": 12.186363636363636,
                "end_time": 12.302272727272726,
                "pitch": 41,
                "velocity": 51,
                "duration": 0.1159090909090903,
                "tempo": 120.0
            },
            {
                "start_time": 12.318181818181818,
                "end_time": 12.668181818181818,
                "pitch": 41,
                "velocity": 51,
                "duration": 0.34999999999999964,
                "tempo": 120.0
            },
            {
                "start_time": 12.686363636363636,
                "end_time": 12.918181818181818,
                "pitch": 44,
                "velocity": 51,
                "duration": 0.23181818181818237,
                "tempo": 120.0
            },
            {
                "start_time": 12.936363636363636,
                "end_time": 13.168181818181818,
                "pitch": 41,
                "velocity": 51,
                "duration": 0.23181818181818237,
                "tempo": 120.0
            },
            {
                "start_time": 13.186363636363636,
                "end_time": 13.302272727272726,
                "pitch": 41,
                "velocity": 51,
                "duration": 0.1159090909090903,
                "tempo": 120.0
            },
            {
                "start_time": 13.318181818181818,
                "end_time": 13.668181818181818,
                "pitch": 41,
                "velocity": 51,
                "duration": 0.34999999999999964,
                "tempo": 120.0
            },
            {
                "start_time": 13.686363636363636,
                "end_time": 13.918181818181818,
                "pitch": 44,
                "velocity": 51,
                "duration": 0.23181818181818237,
                "tempo": 120.0
            },
            {
                "start_time": 13.936363636363636,
                "end_time": 14.168181818181818,
                "pitch": 41,
                "velocity": 51,
                "duration": 0.23181818181818237,
                "tempo": 120.0
            },
            {
                "start_time": 14.186363636363636,
                "end_time": 14.302272727272726,
                "pitch": 41,
                "velocity": 51,
                "duration": 0.1159090909090903,
                "tempo": 120.0
            },
            {
                "start_time": 14.318181818181818,
                "end_time": 14.668181818181818,
                "pitch": 41,
                "velocity": 51,
                "duration": 0.34999999999999964,
                "tempo": 120.0
            },
            {
                "start_time": 14.686363636363636,
                "end_time": 14.918181818181818,
                "pitch": 44,
                "velocity": 51,
                "duration": 0.23181818181818237,
                "tempo": 120.0
            },
            {
                "start_time": 14.936363636363636,
                "end_time": 15.168181818181818,
                "pitch": 41,
                "velocity": 51,
                "duration": 0.23181818181818237,
                "tempo": 120.0
            },
            {
                "start_time": 15.186363636363636,
                "end_time": 15.302272727272726,
                "pitch": 41,
                "velocity": 51,
                "duration": 0.1159090909090903,
                "tempo": 120.0
            },
            {
                "start_time": 15.318181818181817,
                "end_time": 15.668181818181818,
                "pitch": 41,
                "velocity": 51,
                "duration": 0.3500000000000014,
                "tempo": 120.0
            },
            {
                "start_time": 15.686363636363636,
                "end_time": 15.918181818181818,
                "pitch": 44,
                "velocity": 51,
                "duration": 0.23181818181818237,
                "tempo": 120.0
            },
            {
                "start_time": 15.936363636363636,
                "end_time": 16.168181818181818,
                "pitch": 41,
                "velocity": 51,
                "duration": 0.23181818181818237,
                "tempo": 120.0
            },
            {
                "start_time": 16.186363636363634,
                "end_time": 16.302272727272726,
                "pitch": 41,
                "velocity": 51,
                "duration": 0.11590909090909207,
                "tempo": 120.0
            },
            {
                "start_time": 16.318181818181817,
                "end_time": 16.668181818181818,
                "pitch": 41,
                "velocity": 51,
                "duration": 0.3500000000000014,
                "tempo": 120.0
            },
            {
                "start_time": 16.686363636363634,
                "end_time": 16.918181818181818,
                "pitch": 44,
                "velocity": 51,
                "duration": 0.23181818181818414,
                "tempo": 120.0
            },
            {
                "start_time": 16.936363636363634,
                "end_time": 17.168181818181818,
                "pitch": 41,
                "velocity": 51,
                "duration": 0.23181818181818414,
                "tempo": 120.0
            },
            {
                "start_time": 17.186363636363634,
                "end_time": 17.302272727272726,
                "pitch": 41,
                "velocity": 51,
                "duration": 0.11590909090909207,
                "tempo": 120.0
            },
            {
                "start_time": 17.318181818181817,
                "end_time": 17.668181818181818,
                "pitch": 41,
                "velocity": 51,
                "duration": 0.3500000000000014,
                "tempo": 120.0
            },
            {
                "start_time": 17.686363636363634,
                "end_time": 17.918181818181818,
                "pitch": 44,
                "velocity": 51,
                "duration": 0.23181818181818414,
                "tempo": 120.0
            },
            {
                "start_time": 17.936363636363634,
                "end_time": 18.168181818181818,
                "pitch": 41,
                "velocity": 51,
                "duration": 0.23181818181818414,
                "tempo": 120.0
            },
            {
                "start_time": 18.186363636363634,
                "end_time": 18.302272727272726,
                "pitch": 41,
                "velocity": 51,
                "duration": 0.11590909090909207,
                "tempo": 120.0
            },
            {
                "start_time": 18.318181818181817,
                "end_time": 18.668181818181818,
                "pitch": 41,
                "velocity": 51,
                "duration": 0.3500000000000014,
                "tempo": 120.0
            },
            {
                "start_time": 18.686363636363634,
                "end_time": 18.918181818181818,
                "pitch": 44,
                "velocity": 51,
                "duration": 0.23181818181818414,
                "tempo": 120.0
            },
            {
                "start_time": 18.936363636363634,
                "end_time": 19.168181818181818,
                "pitch": 41,
                "velocity": 51,
                "duration": 0.23181818181818414,
                "tempo": 120.0
            },
            {
                "start_time": 19.186363636363634,
                "end_time": 19.302272727272726,
                "pitch": 41,
                "velocity": 51,
                "duration": 0.11590909090909207,
                "tempo": 120.0
            },
            {
                "start_time": 19.318181818181817,
                "end_time": 19.668181818181818,
                "pitch": 41,
                "velocity": 51,
                "duration": 0.3500000000000014,
                "tempo": 120.0
            },
            {
                "start_time": 19.686363636363634,
                "end_time": 19.918181818181818,
                "pitch": 44,
                "velocity": 51,
                "duration": 0.23181818181818414,
                "tempo": 120.0
            },
            {
                "start_time": 19.936363636363634,
                "end_time": 20.168181818181818,
                "pitch": 41,
                "velocity": 51,
                "duration": 0.23181818181818414,
                "tempo": 120.0
            },
            {
                "start_time": 20.186363636363634,
                "end_time": 20.302272727272726,
                "pitch": 41,
                "velocity": 51,
                "duration": 0.11590909090909207,
                "tempo": 120.0
            },
            {
                "start_time": 20.318181818181817,
                "end_time": 20.668181818181818,
                "pitch": 41,
                "velocity": 51,
                "duration": 0.3500000000000014,
                "tempo": 120.0
            },
            {
                "start_time": 20.686363636363634,
                "end_time": 20.918181818181818,
                "pitch": 44,
                "velocity": 51,
                "duration": 0.23181818181818414,
                "tempo": 120.0
            },
            {
                "start_time": 20.936363636363634,
                "end_time": 21.168181818181818,
                "pitch": 41,
                "velocity": 51,
                "duration": 0.23181818181818414,
                "tempo": 120.0
            },
            {
                "start_time": 21.186363636363634,
                "end_time": 21.302272727272726,
                "pitch": 41,
                "velocity": 51,
                "duration": 0.11590909090909207,
                "tempo": 120.0
            },
            {
                "start_time": 21.318181818181817,
                "end_time": 21.668181818181818,
                "pitch": 41,
                "velocity": 51,
                "duration": 0.3500000000000014,
                "tempo": 120.0
            },
            {
                "start_time": 21.686363636363634,
                "end_time": 21.918181818181818,
                "pitch": 44,
                "velocity": 51,
                "duration": 0.23181818181818414,
                "tempo": 120.0
            },
            {
                "start_time": 21.936363636363634,
                "end_time": 22.168181818181818,
                "pitch": 41,
                "velocity": 51,
                "duration": 0.23181818181818414,
                "tempo": 120.0
            },
            {
                "start_time": 22.186363636363634,
                "end_time": 22.302272727272726,
                "pitch": 41,
                "velocity": 51,
                "duration": 0.11590909090909207,
                "tempo": 120.0
            },
            {
                "start_time": 22.318181818181817,
                "end_time": 22.668181818181818,
                "pitch": 41,
                "velocity": 51,
                "duration": 0.3500000000000014,
                "tempo": 120.0
            },
            {
                "start_time": 22.686363636363634,
                "end_time": 22.918181818181818,
                "pitch": 44,
                "velocity": 51,
                "duration": 0.23181818181818414,
                "tempo": 120.0
            },
            {
                "start_time": 22.936363636363634,
                "end_time": 23.168181818181818,
                "pitch": 41,
                "velocity": 51,
                "duration": 0.23181818181818414,
                "tempo": 120.0
            },
            {
                "start_time": 23.186363636363634,
                "end_time": 23.302272727272726,
                "pitch": 41,
                "velocity": 51,
                "duration": 0.11590909090909207,
                "tempo": 120.0
            },
            {
                "start_time": 23.318181818181817,
                "end_time": 23.918181818181818,
                "pitch": 41,
                "velocity": 51,
                "duration": 0.6000000000000014,
                "tempo": 120.0
            },
            {
                "start_time": 23.936363636363634,
                "end_time": 24.168181818181818,
                "pitch": 41,
                "velocity": 51,
                "duration": 0.23181818181818414,
                "tempo": 120.0
            },
            {
                "start_time": 24.186363636363634,
                "end_time": 24.302272727272726,
                "pitch": 41,
                "velocity": 51,
                "duration": 0.11590909090909207,
                "tempo": 120.0
            },
            {
                "start_time": 24.318181818181817,
                "end_time": 24.668181818181818,
                "pitch": 41,
                "velocity": 51,
                "duration": 0.3500000000000014,
                "tempo": 120.0
            },
            {
                "start_time": 24.686363636363634,
                "end_time": 24.918181818181818,
                "pitch": 44,
                "velocity": 51,
                "duration": 0.23181818181818414,
                "tempo": 120.0
            },
            {
                "start_time": 24.936363636363634,
                "end_time": 25.168181818181818,
                "pitch": 41,
                "velocity": 51,
                "duration": 0.23181818181818414,
                "tempo": 120.0
            },
            {
                "start_time": 25.186363636363634,
                "end_time": 25.302272727272726,
                "pitch": 41,
                "velocity": 51,
                "duration": 0.11590909090909207,
                "tempo": 120.0
            },
            {
                "start_time": 25.318181818181817,
                "end_time": 25.668181818181818,
                "pitch": 41,
                "velocity": 51,
                "duration": 0.3500000000000014,
                "tempo": 120.0
            },
            {
                "start_time": 25.686363636363634,
                "end_time": 25.918181818181818,
                "pitch": 44,
                "velocity": 51,
                "duration": 0.23181818181818414,
                "tempo": 120.0
            },
            {
                "start_time": 25.936363636363634,
                "end_time": 26.168181818181818,
                "pitch": 41,
                "velocity": 51,
                "duration": 0.23181818181818414,
                "tempo": 120.0
            },
            {
                "start_time": 26.186363636363634,
                "end_time": 26.302272727272726,
                "pitch": 41,
                "velocity": 51,
                "duration": 0.11590909090909207,
                "tempo": 120.0
            },
            {
                "start_time": 26.318181818181817,
                "end_time": 26.668181818181818,
                "pitch": 41,
                "velocity": 51,
                "duration": 0.3500000000000014,
                "tempo": 120.0
            },
            {
                "start_time": 26.686363636363634,
                "end_time": 26.918181818181818,
                "pitch": 44,
                "velocity": 51,
                "duration": 0.23181818181818414,
                "tempo": 120.0
            },
            {
                "start_time": 26.936363636363634,
                "end_time": 27.168181818181818,
                "pitch": 41,
                "velocity": 51,
                "duration": 0.23181818181818414,
                "tempo": 120.0
            },
            {
                "start_time": 27.186363636363634,
                "end_time": 27.302272727272726,
                "pitch": 41,
                "velocity": 51,
                "duration": 0.11590909090909207,
                "tempo": 120.0
            },
            {
                "start_time": 27.318181818181817,
                "end_time": 27.668181818181818,
                "pitch": 41,
                "velocity": 51,
                "duration": 0.3500000000000014,
                "tempo": 120.0
            },
            {
                "start_time": 27.686363636363634,
                "end_time": 27.918181818181818,
                "pitch": 44,
                "velocity": 51,
                "duration": 0.23181818181818414,
                "tempo": 120.0
            },
            {
                "start_time": 27.936363636363634,
                "end_time": 28.168181818181818,
                "pitch": 41,
                "velocity": 51,
                "duration": 0.23181818181818414,
                "tempo": 120.0
            },
            {
                "start_time": 28.186363636363634,
                "end_time": 28.302272727272726,
                "pitch": 41,
                "velocity": 51,
                "duration": 0.11590909090909207,
                "tempo": 120.0
            },
            {
                "start_time": 28.318181818181817,
                "end_time": 28.668181818181818,
                "pitch": 41,
                "velocity": 51,
                "duration": 0.3500000000000014,
                "tempo": 120.0
            },
            {
                "start_time": 28.686363636363634,
                "end_time": 28.918181818181818,
                "pitch": 44,
                "velocity": 51,
                "duration": 0.23181818181818414,
                "tempo": 120.0
            },
            {
                "start_time": 28.936363636363634,
                "end_time": 29.168181818181818,
                "pitch": 41,
                "velocity": 51,
                "duration": 0.23181818181818414,
                "tempo": 120.0
            },
            {
                "start_time": 29.186363636363634,
                "end_time": 29.302272727272726,
                "pitch": 41,
                "velocity": 51,
                "duration": 0.11590909090909207,
                "tempo": 120.0
            },
            {
                "start_time": 29.318181818181817,
                "end_time": 29.668181818181818,
                "pitch": 41,
                "velocity": 51,
                "duration": 0.3500000000000014,
                "tempo": 120.0
            },
            {
                "start_time": 29.686363636363634,
                "end_time": 29.918181818181818,
                "pitch": 44,
                "velocity": 51,
                "duration": 0.23181818181818414,
                "tempo": 120.0
            },
            {
                "start_time": 29.936363636363634,
                "end_time": 30.168181818181818,
                "pitch": 41,
                "velocity": 51,
                "duration": 0.23181818181818414,
                "tempo": 120.0
            },
            {
                "start_time": 30.186363636363634,
                "end_time": 30.302272727272726,
                "pitch": 41,
                "velocity": 51,
                "duration": 0.11590909090909207,
                "tempo": 120.0
            },
            {
                "start_time": 30.318181818181817,
                "end_time": 30.668181818181818,
                "pitch": 41,
                "velocity": 51,
                "duration": 0.3500000000000014,
                "tempo": 120.0
            },
            {
                "start_time": 30.686363636363634,
                "end_time": 30.918181818181818,
                "pitch": 44,
                "velocity": 51,
                "duration": 0.23181818181818414,
                "tempo": 120.0
            },
            {
                "start_time": 30.936363636363634,
                "end_time": 31.168181818181818,
                "pitch": 41,
                "velocity": 51,
                "duration": 0.23181818181818414,
                "tempo": 120.0
            },
            {
                "start_time": 31.186363636363634,
                "end_time": 31.302272727272726,
                "pitch": 41,
                "velocity": 51,
                "duration": 0.11590909090909207,
                "tempo": 120.0
            },
            {
                "start_time": 31.318181818181817,
                "end_time": 31.668181818181818,
                "pitch": 41,
                "velocity": 51,
                "duration": 0.3500000000000014,
                "tempo": 120.0
            },
            {
                "start_time": 31.686363636363634,
                "end_time": 31.918181818181818,
                "pitch": 44,
                "velocity": 51,
                "duration": 0.23181818181818414,
                "tempo": 120.0
            },
            {
                "start_time": 31.936363636363634,
                "end_time": 32.168181818181814,
                "pitch": 41,
                "velocity": 51,
                "duration": 0.2318181818181806,
                "tempo": 120.0
            },
            {
                "start_time": 32.18636363636364,
                "end_time": 32.30227272727272,
                "pitch": 41,
                "velocity": 51,
                "duration": 0.11590909090908497,
                "tempo": 120.0
            },
            {
                "start_time": 32.31818181818182,
                "end_time": 32.668181818181814,
                "pitch": 41,
                "velocity": 51,
                "duration": 0.3499999999999943,
                "tempo": 120.0
            },
            {
                "start_time": 32.68636363636364,
                "end_time": 32.918181818181814,
                "pitch": 44,
                "velocity": 51,
                "duration": 0.23181818181817704,
                "tempo": 120.0
            },
            {
                "start_time": 32.93636363636364,
                "end_time": 33.168181818181814,
                "pitch": 41,
                "velocity": 51,
                "duration": 0.23181818181817704,
                "tempo": 120.0
            },
            {
                "start_time": 33.18636363636364,
                "end_time": 33.30227272727272,
                "pitch": 41,
                "velocity": 51,
                "duration": 0.11590909090908497,
                "tempo": 120.0
            },
            {
                "start_time": 33.31818181818181,
                "end_time": 33.668181818181814,
                "pitch": 41,
                "velocity": 51,
                "duration": 0.3500000000000014,
                "tempo": 120.0
            },
            {
                "start_time": 33.68636363636364,
                "end_time": 33.918181818181814,
                "pitch": 44,
                "velocity": 51,
                "duration": 0.23181818181817704,
                "tempo": 120.0
            },
            {
                "start_time": 33.93636363636364,
                "end_time": 34.168181818181814,
                "pitch": 41,
                "velocity": 51,
                "duration": 0.23181818181817704,
                "tempo": 120.0
            },
            {
                "start_time": 34.18636363636364,
                "end_time": 34.30227272727272,
                "pitch": 41,
                "velocity": 51,
                "duration": 0.11590909090908497,
                "tempo": 120.0
            },
            {
                "start_time": 34.31818181818181,
                "end_time": 34.668181818181814,
                "pitch": 41,
                "velocity": 51,
                "duration": 0.3500000000000014,
                "tempo": 120.0
            },
            {
                "start_time": 34.68636363636364,
                "end_time": 34.918181818181814,
                "pitch": 44,
                "velocity": 51,
                "duration": 0.23181818181817704,
                "tempo": 120.0
            },
            {
                "start_time": 34.93636363636364,
                "end_time": 35.168181818181814,
                "pitch": 41,
                "velocity": 51,
                "duration": 0.23181818181817704,
                "tempo": 120.0
            },
            {
                "start_time": 35.18636363636364,
                "end_time": 35.30227272727272,
                "pitch": 41,
                "velocity": 51,
                "duration": 0.11590909090908497,
                "tempo": 120.0
            },
            {
                "start_time": 35.31818181818181,
                "end_time": 35.668181818181814,
                "pitch": 41,
                "velocity": 51,
                "duration": 0.3500000000000014,
                "tempo": 120.0
            },
            {
                "start_time": 35.68636363636364,
                "end_time": 35.918181818181814,
                "pitch": 44,
                "velocity": 51,
                "duration": 0.23181818181817704,
                "tempo": 120.0
            },
            {
                "start_time": 35.93636363636364,
                "end_time": 36.168181818181814,
                "pitch": 41,
                "velocity": 51,
                "duration": 0.23181818181817704,
                "tempo": 120.0
            },
            {
                "start_time": 36.18636363636364,
                "end_time": 36.30227272727272,
                "pitch": 41,
                "velocity": 51,
                "duration": 0.11590909090908497,
                "tempo": 120.0
            },
            {
                "start_time": 36.31818181818181,
                "end_time": 36.668181818181814,
                "pitch": 41,
                "velocity": 51,
                "duration": 0.3500000000000014,
                "tempo": 120.0
            },
            {
                "start_time": 36.68636363636364,
                "end_time": 36.918181818181814,
                "pitch": 44,
                "velocity": 51,
                "duration": 0.23181818181817704,
                "tempo": 120.0
            },
            {
                "start_time": 36.93636363636364,
                "end_time": 37.168181818181814,
                "pitch": 41,
                "velocity": 51,
                "duration": 0.23181818181817704,
                "tempo": 120.0
            },
            {
                "start_time": 37.18636363636364,
                "end_time": 37.30227272727272,
                "pitch": 41,
                "velocity": 51,
                "duration": 0.11590909090908497,
                "tempo": 120.0
            },
            {
                "start_time": 37.31818181818181,
                "end_time": 37.668181818181814,
                "pitch": 41,
                "velocity": 51,
                "duration": 0.3500000000000014,
                "tempo": 120.0
            },
            {
                "start_time": 37.68636363636364,
                "end_time": 37.918181818181814,
                "pitch": 44,
                "velocity": 51,
                "duration": 0.23181818181817704,
                "tempo": 120.0
            },
            {
                "start_time": 37.93636363636364,
                "end_time": 38.168181818181814,
                "pitch": 41,
                "velocity": 51,
                "duration": 0.23181818181817704,
                "tempo": 120.0
            },
            {
                "start_time": 38.18636363636364,
                "end_time": 38.30227272727272,
                "pitch": 41,
                "velocity": 51,
                "duration": 0.11590909090908497,
                "tempo": 120.0
            },
            {
                "start_time": 38.31818181818181,
                "end_time": 38.668181818181814,
                "pitch": 41,
                "velocity": 51,
                "duration": 0.3500000000000014,
                "tempo": 120.0
            },
            {
                "start_time": 38.68636363636364,
                "end_time": 38.918181818181814,
                "pitch": 44,
                "velocity": 51,
                "duration": 0.23181818181817704,
                "tempo": 120.0
            },
            {
                "start_time": 38.93636363636364,
                "end_time": 39.168181818181814,
                "pitch": 41,
                "velocity": 51,
                "duration": 0.23181818181817704,
                "tempo": 120.0
            },
            {
                "start_time": 39.18636363636364,
                "end_time": 39.30227272727272,
                "pitch": 41,
                "velocity": 51,
                "duration": 0.11590909090908497,
                "tempo": 120.0
            },
            {
                "start_time": 39.31818181818181,
                "end_time": 39.668181818181814,
                "pitch": 41,
                "velocity": 51,
                "duration": 0.3500000000000014,
                "tempo": 120.0
            },
            {
                "start_time": 39.68636363636364,
                "end_time": 39.918181818181814,
                "pitch": 44,
                "velocity": 51,
                "duration": 0.23181818181817704,
                "tempo": 120.0
            },
            {
                "start_time": 39.93636363636364,
                "end_time": 40.168181818181814,
                "pitch": 46,
                "velocity": 51,
                "duration": 0.23181818181817704,
                "tempo": 120.0
            },
            {
                "start_time": 40.18636363636364,
                "end_time": 40.30227272727272,
                "pitch": 46,
                "velocity": 51,
                "duration": 0.11590909090908497,
                "tempo": 120.0
            },
            {
                "start_time": 40.31818181818181,
                "end_time": 40.668181818181814,
                "pitch": 46,
                "velocity": 51,
                "duration": 0.3500000000000014,
                "tempo": 120.0
            },
            {
                "start_time": 40.68636363636364,
                "end_time": 40.71818181818182,
                "pitch": 48,
                "velocity": 51,
                "duration": 0.0318181818181813,
                "tempo": 120.0
            },
            {
                "start_time": 40.736363636363635,
                "end_time": 40.918181818181814,
                "pitch": 49,
                "velocity": 51,
                "duration": 0.18181818181817988,
                "tempo": 120.0
            },
            {
                "start_time": 40.93636363636364,
                "end_time": 41.168181818181814,
                "pitch": 46,
                "velocity": 51,
                "duration": 0.23181818181817704,
                "tempo": 120.0
            },
            {
                "start_time": 41.18636363636364,
                "end_time": 41.30227272727272,
                "pitch": 46,
                "velocity": 51,
                "duration": 0.11590909090908497,
                "tempo": 120.0
            },
            {
                "start_time": 41.31818181818181,
                "end_time": 41.668181818181814,
                "pitch": 46,
                "velocity": 51,
                "duration": 0.3500000000000014,
                "tempo": 120.0
            },
            {
                "start_time": 41.68636363636364,
                "end_time": 41.918181818181814,
                "pitch": 49,
                "velocity": 51,
                "duration": 0.23181818181817704,
                "tempo": 120.0
            },
            {
                "start_time": 41.93636363636364,
                "end_time": 42.168181818181814,
                "pitch": 46,
                "velocity": 51,
                "duration": 0.23181818181817704,
                "tempo": 120.0
            },
            {
                "start_time": 42.18636363636364,
                "end_time": 42.30227272727272,
                "pitch": 46,
                "velocity": 51,
                "duration": 0.11590909090908497,
                "tempo": 120.0
            },
            {
                "start_time": 42.31818181818181,
                "end_time": 42.668181818181814,
                "pitch": 46,
                "velocity": 51,
                "duration": 0.3500000000000014,
                "tempo": 120.0
            },
            {
                "start_time": 42.68636363636364,
                "end_time": 42.71818181818182,
                "pitch": 48,
                "velocity": 51,
                "duration": 0.0318181818181813,
                "tempo": 120.0
            },
            {
                "start_time": 42.736363636363635,
                "end_time": 42.918181818181814,
                "pitch": 49,
                "velocity": 51,
                "duration": 0.18181818181817988,
                "tempo": 120.0
            },
            {
                "start_time": 42.93636363636364,
                "end_time": 43.168181818181814,
                "pitch": 46,
                "velocity": 51,
                "duration": 0.23181818181817704,
                "tempo": 120.0
            },
            {
                "start_time": 43.18636363636364,
                "end_time": 43.30227272727272,
                "pitch": 46,
                "velocity": 51,
                "duration": 0.11590909090908497,
                "tempo": 120.0
            },
            {
                "start_time": 43.31818181818181,
                "end_time": 43.668181818181814,
                "pitch": 46,
                "velocity": 51,
                "duration": 0.3500000000000014,
                "tempo": 120.0
            },
            {
                "start_time": 43.68636363636364,
                "end_time": 43.918181818181814,
                "pitch": 49,
                "velocity": 51,
                "duration": 0.23181818181817704,
                "tempo": 120.0
            },
            {
                "start_time": 43.93636363636364,
                "end_time": 44.168181818181814,
                "pitch": 46,
                "velocity": 51,
                "duration": 0.23181818181817704,
                "tempo": 120.0
            },
            {
                "start_time": 44.18636363636364,
                "end_time": 44.30227272727272,
                "pitch": 46,
                "velocity": 51,
                "duration": 0.11590909090908497,
                "tempo": 120.0
            },
            {
                "start_time": 44.31818181818181,
                "end_time": 44.668181818181814,
                "pitch": 46,
                "velocity": 51,
                "duration": 0.3500000000000014,
                "tempo": 120.0
            },
            {
                "start_time": 44.68636363636364,
                "end_time": 44.71818181818182,
                "pitch": 48,
                "velocity": 51,
                "duration": 0.0318181818181813,
                "tempo": 120.0
            },
            {
                "start_time": 44.736363636363635,
                "end_time": 44.918181818181814,
                "pitch": 49,
                "velocity": 51,
                "duration": 0.18181818181817988,
                "tempo": 120.0
            },
            {
                "start_time": 44.93636363636364,
                "end_time": 45.168181818181814,
                "pitch": 46,
                "velocity": 51,
                "duration": 0.23181818181817704,
                "tempo": 120.0
            },
            {
                "start_time": 45.18636363636364,
                "end_time": 45.30227272727272,
                "pitch": 46,
                "velocity": 51,
                "duration": 0.11590909090908497,
                "tempo": 120.0
            },
            {
                "start_time": 45.31818181818181,
                "end_time": 45.668181818181814,
                "pitch": 46,
                "velocity": 51,
                "duration": 0.3500000000000014,
                "tempo": 120.0
            },
            {
                "start_time": 45.68636363636364,
                "end_time": 45.918181818181814,
                "pitch": 49,
                "velocity": 51,
                "duration": 0.23181818181817704,
                "tempo": 120.0
            },
            {
                "start_time": 45.93636363636364,
                "end_time": 46.168181818181814,
                "pitch": 46,
                "velocity": 51,
                "duration": 0.23181818181817704,
                "tempo": 120.0
            },
            {
                "start_time": 46.18636363636364,
                "end_time": 46.30227272727272,
                "pitch": 46,
                "velocity": 51,
                "duration": 0.11590909090908497,
                "tempo": 120.0
            },
            {
                "start_time": 46.31818181818181,
                "end_time": 46.668181818181814,
                "pitch": 46,
                "velocity": 51,
                "duration": 0.3500000000000014,
                "tempo": 120.0
            },
            {
                "start_time": 46.68636363636364,
                "end_time": 46.71818181818182,
                "pitch": 48,
                "velocity": 51,
                "duration": 0.0318181818181813,
                "tempo": 120.0
            },
            {
                "start_time": 46.736363636363635,
                "end_time": 46.918181818181814,
                "pitch": 49,
                "velocity": 51,
                "duration": 0.18181818181817988,
                "tempo": 120.0
            },
            {
                "start_time": 46.93636363636364,
                "end_time": 47.168181818181814,
                "pitch": 46,
                "velocity": 51,
                "duration": 0.23181818181817704,
                "tempo": 120.0
            },
            {
                "start_time": 47.18636363636364,
                "end_time": 47.30227272727272,
                "pitch": 46,
                "velocity": 51,
                "duration": 0.11590909090908497,
                "tempo": 120.0
            },
            {
                "start_time": 47.31818181818181,
                "end_time": 47.668181818181814,
                "pitch": 46,
                "velocity": 51,
                "duration": 0.3500000000000014,
                "tempo": 120.0
            },
            {
                "start_time": 47.68636363636364,
                "end_time": 47.918181818181814,
                "pitch": 49,
                "velocity": 51,
                "duration": 0.23181818181817704,
                "tempo": 120.0
            },
            {
                "start_time": 47.93636363636364,
                "end_time": 48.168181818181814,
                "pitch": 41,
                "velocity": 51,
                "duration": 0.23181818181817704,
                "tempo": 120.0
            },
            {
                "start_time": 48.18636363636364,
                "end_time": 48.30227272727272,
                "pitch": 41,
                "velocity": 51,
                "duration": 0.11590909090908497,
                "tempo": 120.0
            },
            {
                "start_time": 48.31818181818181,
                "end_time": 48.668181818181814,
                "pitch": 41,
                "velocity": 51,
                "duration": 0.3500000000000014,
                "tempo": 120.0
            },
            {
                "start_time": 48.68636363636364,
                "end_time": 48.918181818181814,
                "pitch": 44,
                "velocity": 51,
                "duration": 0.23181818181817704,
                "tempo": 120.0
            },
            {
                "start_time": 48.93636363636364,
                "end_time": 49.168181818181814,
                "pitch": 41,
                "velocity": 51,
                "duration": 0.23181818181817704,
                "tempo": 120.0
            },
            {
                "start_time": 49.18636363636364,
                "end_time": 49.30227272727272,
                "pitch": 41,
                "velocity": 51,
                "duration": 0.11590909090908497,
                "tempo": 120.0
            },
            {
                "start_time": 49.31818181818181,
                "end_time": 49.668181818181814,
                "pitch": 41,
                "velocity": 51,
                "duration": 0.3500000000000014,
                "tempo": 120.0
            },
            {
                "start_time": 49.68636363636364,
                "end_time": 49.918181818181814,
                "pitch": 44,
                "velocity": 51,
                "duration": 0.23181818181817704,
                "tempo": 120.0
            },
            {
                "start_time": 49.93636363636364,
                "end_time": 50.168181818181814,
                "pitch": 41,
                "velocity": 51,
                "duration": 0.23181818181817704,
                "tempo": 120.0
            },
            {
                "start_time": 50.18636363636364,
                "end_time": 50.30227272727272,
                "pitch": 41,
                "velocity": 51,
                "duration": 0.11590909090908497,
                "tempo": 120.0
            },
            {
                "start_time": 50.31818181818181,
                "end_time": 50.668181818181814,
                "pitch": 41,
                "velocity": 51,
                "duration": 0.3500000000000014,
                "tempo": 120.0
            },
            {
                "start_time": 50.68636363636364,
                "end_time": 50.918181818181814,
                "pitch": 44,
                "velocity": 51,
                "duration": 0.23181818181817704,
                "tempo": 120.0
            },
            {
                "start_time": 50.93636363636364,
                "end_time": 51.168181818181814,
                "pitch": 41,
                "velocity": 51,
                "duration": 0.23181818181817704,
                "tempo": 120.0
            },
            {
                "start_time": 51.18636363636364,
                "end_time": 51.30227272727272,
                "pitch": 41,
                "velocity": 51,
                "duration": 0.11590909090908497,
                "tempo": 120.0
            },
            {
                "start_time": 51.31818181818181,
                "end_time": 51.668181818181814,
                "pitch": 41,
                "velocity": 51,
                "duration": 0.3500000000000014,
                "tempo": 120.0
            },
            {
                "start_time": 51.68636363636364,
                "end_time": 51.918181818181814,
                "pitch": 44,
                "velocity": 51,
                "duration": 0.23181818181817704,
                "tempo": 120.0
            },
            {
                "start_time": 51.93636363636363,
                "end_time": 52.168181818181814,
                "pitch": 41,
                "velocity": 51,
                "duration": 0.23181818181818414,
                "tempo": 120.0
            },
            {
                "start_time": 52.18636363636363,
                "end_time": 52.30227272727272,
                "pitch": 41,
                "velocity": 51,
                "duration": 0.11590909090909207,
                "tempo": 120.0
            },
            {
                "start_time": 52.31818181818181,
                "end_time": 52.668181818181814,
                "pitch": 41,
                "velocity": 51,
                "duration": 0.3500000000000014,
                "tempo": 120.0
            },
            {
                "start_time": 52.68636363636363,
                "end_time": 52.918181818181814,
                "pitch": 44,
                "velocity": 51,
                "duration": 0.23181818181818414,
                "tempo": 120.0
            },
            {
                "start_time": 52.93636363636363,
                "end_time": 53.168181818181814,
                "pitch": 41,
                "velocity": 51,
                "duration": 0.23181818181818414,
                "tempo": 120.0
            },
            {
                "start_time": 53.18636363636363,
                "end_time": 53.30227272727272,
                "pitch": 41,
                "velocity": 51,
                "duration": 0.11590909090909207,
                "tempo": 120.0
            },
            {
                "start_time": 53.31818181818181,
                "end_time": 53.668181818181814,
                "pitch": 41,
                "velocity": 51,
                "duration": 0.3500000000000014,
                "tempo": 120.0
            },
            {
                "start_time": 53.68636363636363,
                "end_time": 53.918181818181814,
                "pitch": 44,
                "velocity": 51,
                "duration": 0.23181818181818414,
                "tempo": 120.0
            },
            {
                "start_time": 53.93636363636363,
                "end_time": 54.168181818181814,
                "pitch": 41,
                "velocity": 51,
                "duration": 0.23181818181818414,
                "tempo": 120.0
            },
            {
                "start_time": 54.18636363636363,
                "end_time": 54.30227272727272,
                "pitch": 41,
                "velocity": 51,
                "duration": 0.11590909090909207,
                "tempo": 120.0
            },
            {
                "start_time": 54.31818181818181,
                "end_time": 54.668181818181814,
                "pitch": 41,
                "velocity": 51,
                "duration": 0.3500000000000014,
                "tempo": 120.0
            },
            {
                "start_time": 54.68636363636363,
                "end_time": 54.918181818181814,
                "pitch": 44,
                "velocity": 51,
                "duration": 0.23181818181818414,
                "tempo": 120.0
            },
            {
                "start_time": 54.93636363636363,
                "end_time": 55.168181818181814,
                "pitch": 41,
                "velocity": 51,
                "duration": 0.23181818181818414,
                "tempo": 120.0
            },
            {
                "start_time": 55.18636363636363,
                "end_time": 55.3,
                "pitch": 41,
                "velocity": 51,
                "duration": 0.11363636363636687,
                "tempo": 120.0
            },
            {
                "start_time": 55.31590909090909,
                "end_time": 55.66136363636363,
                "pitch": 41,
                "velocity": 51,
                "duration": 0.3454545454545439,
                "tempo": 120.0
            },
            {
                "start_time": 55.67727272727272,
                "end_time": 55.92727272727272,
                "pitch": 44,
                "velocity": 51,
                "duration": 0.25,
                "tempo": 120.0
            }
        ],
        "Harpsichord": [
            {
                "start_time": 0.0,
                "end_time": 0.28863636363636364,
                "pitch": 72,
                "velocity": 40,
                "duration": 0.28863636363636364,
                "tempo": 120.0
            },
            {
                "start_time": 0.3068181818181818,
                "end_time": 0.6568181818181817,
                "pitch": 65,
                "velocity": 40,
                "duration": 0.3499999999999999,
                "tempo": 120.0
            },
            {
                "start_time": 0.6727272727272727,
                "end_time": 1.1568181818181817,
                "pitch": 72,
                "velocity": 40,
                "duration": 0.484090909090909,
                "tempo": 120.0
            },
            {
                "start_time": 1.1727272727272726,
                "end_time": 1.2886363636363636,
                "pitch": 72,
                "velocity": 40,
                "duration": 0.11590909090909096,
                "tempo": 120.0
            },
            {
                "start_time": 1.3068181818181817,
                "end_time": 1.4068181818181817,
                "pitch": 75,
                "velocity": 40,
                "duration": 0.10000000000000009,
                "tempo": 120.0
            },
            {
                "start_time": 1.4227272727272726,
                "end_time": 1.6568181818181817,
                "pitch": 72,
                "velocity": 40,
                "duration": 0.23409090909090913,
                "tempo": 120.0
            },
            {
                "start_time": 1.6727272727272726,
                "end_time": 1.9068181818181817,
                "pitch": 71,
                "velocity": 40,
                "duration": 0.23409090909090913,
                "tempo": 120.0
            },
            {
                "start_time": 1.9227272727272726,
                "end_time": 2.290909090909091,
                "pitch": 72,
                "velocity": 40,
                "duration": 0.3681818181818184,
                "tempo": 120.0
            },
            {
                "start_time": 2.3068181818181817,
                "end_time": 2.659090909090909,
                "pitch": 65,
                "velocity": 40,
                "duration": 0.3522727272727275,
                "tempo": 120.0
            },
            {
                "start_time": 2.6772727272727272,
                "end_time": 3.1590909090909087,
                "pitch": 72,
                "velocity": 40,
                "duration": 0.4818181818181815,
                "tempo": 120.0
            },
            {
                "start_time": 3.1772727272727272,
                "end_time": 3.293181818181818,
                "pitch": 72,
                "velocity": 40,
                "duration": 0.11590909090909074,
                "tempo": 120.0
            },
            {
                "start_time": 3.309090909090909,
                "end_time": 3.4090909090909087,
                "pitch": 75,
                "velocity": 40,
                "duration": 0.09999999999999964,
                "tempo": 120.0
            },
            {
                "start_time": 3.4272727272727272,
                "end_time": 3.6590909090909087,
                "pitch": 72,
                "velocity": 40,
                "duration": 0.23181818181818148,
                "tempo": 120.0
            },
            {
                "start_time": 3.6772727272727272,
                "end_time": 3.9090909090909087,
                "pitch": 71,
                "velocity": 40,
                "duration": 0.23181818181818148,
                "tempo": 120.0
            },
            {
                "start_time": 3.9272727272727272,
                "end_time": 4.293181818181818,
                "pitch": 72,
                "velocity": 40,
                "duration": 0.36590909090909074,
                "tempo": 120.0
            },
            {
                "start_time": 4.309090909090909,
                "end_time": 4.659090909090909,
                "pitch": 65,
                "velocity": 40,
                "duration": 0.35000000000000053,
                "tempo": 120.0
            },
            {
                "start_time": 4.677272727272727,
                "end_time": 5.159090909090909,
                "pitch": 72,
                "velocity": 40,
                "duration": 0.48181818181818237,
                "tempo": 120.0
            },
            {
                "start_time": 5.177272727272727,
                "end_time": 5.293181818181818,
                "pitch": 72,
                "velocity": 40,
                "duration": 0.11590909090909118,
                "tempo": 120.0
            },
            {
                "start_time": 5.309090909090909,
                "end_time": 5.409090909090909,
                "pitch": 75,
                "velocity": 40,
                "duration": 0.10000000000000053,
                "tempo": 120.0
            },
            {
                "start_time": 5.427272727272727,
                "end_time": 5.659090909090909,
                "pitch": 72,
                "velocity": 40,
                "duration": 0.23181818181818237,
                "tempo": 120.0
            },
            {
                "start_time": 5.677272727272727,
                "end_time": 5.909090909090909,
                "pitch": 71,
                "velocity": 40,
                "duration": 0.23181818181818237,
                "tempo": 120.0
            },
            {
                "start_time": 5.927272727272727,
                "end_time": 6.293181818181818,
                "pitch": 72,
                "velocity": 40,
                "duration": 0.3659090909090912,
                "tempo": 120.0
            },
            {
                "start_time": 6.309090909090909,
                "end_time": 6.659090909090909,
                "pitch": 65,
                "velocity": 40,
                "duration": 0.35000000000000053,
                "tempo": 120.0
            },
            {
                "start_time": 6.677272727272727,
                "end_time": 7.159090909090909,
                "pitch": 72,
                "velocity": 40,
                "duration": 0.48181818181818237,
                "tempo": 120.0
            },
            {
                "start_time": 7.177272727272727,
                "end_time": 7.293181818181818,
                "pitch": 72,
                "velocity": 40,
                "duration": 0.11590909090909118,
                "tempo": 120.0
            },
            {
                "start_time": 7.309090909090909,
                "end_time": 7.409090909090909,
                "pitch": 75,
                "velocity": 40,
                "duration": 0.10000000000000053,
                "tempo": 120.0
            },
            {
                "start_time": 7.427272727272727,
                "end_time": 7.659090909090908,
                "pitch": 72,
                "velocity": 40,
                "duration": 0.23181818181818148,
                "tempo": 120.0
            },
            {
                "start_time": 7.677272727272727,
                "end_time": 7.909090909090908,
                "pitch": 71,
                "velocity": 40,
                "duration": 0.23181818181818148,
                "tempo": 120.0
            },
            {
                "start_time": 7.927272727272727,
                "end_time": 8.295454545454545,
                "pitch": 65,
                "velocity": 40,
                "duration": 0.36818181818181817,
                "tempo": 120.0
            },
            {
                "start_time": 8.311363636363636,
                "end_time": 8.663636363636364,
                "pitch": 58,
                "velocity": 40,
                "duration": 0.3522727272727284,
                "tempo": 120.0
            },
            {
                "start_time": 8.681818181818182,
                "end_time": 9.163636363636364,
                "pitch": 65,
                "velocity": 40,
                "duration": 0.48181818181818237,
                "tempo": 120.0
            },
            {
                "start_time": 9.181818181818182,
                "end_time": 9.297727272727272,
                "pitch": 65,
                "velocity": 40,
                "duration": 0.1159090909090903,
                "tempo": 120.0
            },
            {
                "start_time": 9.313636363636363,
                "end_time": 9.413636363636364,
                "pitch": 68,
                "velocity": 40,
                "duration": 0.10000000000000142,
                "tempo": 120.0
            },
            {
                "start_time": 9.431818181818182,
                "end_time": 9.663636363636364,
                "pitch": 65,
                "velocity": 40,
                "duration": 0.23181818181818237,
                "tempo": 120.0
            },
            {
                "start_time": 9.681818181818182,
                "end_time": 9.913636363636364,
                "pitch": 64,
                "velocity": 40,
                "duration": 0.23181818181818237,
                "tempo": 120.0
            },
            {
                "start_time": 9.931818181818182,
                "end_time": 10.295454545454545,
                "pitch": 65,
                "velocity": 40,
                "duration": 0.3636363636363633,
                "tempo": 120.0
            },
            {
                "start_time": 10.311363636363636,
                "end_time": 10.656818181818181,
                "pitch": 58,
                "velocity": 40,
                "duration": 0.3454545454545457,
                "tempo": 120.0
            },
            {
                "start_time": 10.672727272727272,
                "end_time": 11.168181818181818,
                "pitch": 65,
                "velocity": 40,
                "duration": 0.49545454545454604,
                "tempo": 120.0
            },
            {
                "start_time": 11.186363636363636,
                "end_time": 11.302272727272726,
                "pitch": 65,
                "velocity": 40,
                "duration": 0.1159090909090903,
                "tempo": 120.0
            },
            {
                "start_time": 11.318181818181818,
                "end_time": 11.418181818181818,
                "pitch": 68,
                "velocity": 40,
                "duration": 0.09999999999999964,
                "tempo": 120.0
            },
            {
                "start_time": 11.436363636363636,
                "end_time": 11.668181818181818,
                "pitch": 65,
                "velocity": 40,
                "duration": 0.23181818181818237,
                "tempo": 120.0
            },
            {
                "start_time": 11.686363636363636,
                "end_time": 11.918181818181818,
                "pitch": 64,
                "velocity": 40,
                "duration": 0.23181818181818237,
                "tempo": 120.0
            },
            {
                "start_time": 11.936363636363636,
                "end_time": 12.302272727272726,
                "pitch": 65,
                "velocity": 40,
                "duration": 0.3659090909090903,
                "tempo": 120.0
            },
            {
                "start_time": 12.318181818181818,
                "end_time": 12.668181818181818,
                "pitch": 58,
                "velocity": 40,
                "duration": 0.34999999999999964,
                "tempo": 120.0
            },
            {
                "start_time": 12.686363636363636,
                "end_time": 13.168181818181818,
                "pitch": 65,
                "velocity": 40,
                "duration": 0.48181818181818237,
                "tempo": 120.0
            },
            {
                "start_time": 13.186363636363636,
                "end_time": 13.302272727272726,
                "pitch": 65,
                "velocity": 40,
                "duration": 0.1159090909090903,
                "tempo": 120.0
            },
            {
                "start_time": 13.318181818181818,
                "end_time": 13.418181818181818,
                "pitch": 68,
                "velocity": 40,
                "duration": 0.09999999999999964,
                "tempo": 120.0
            },
            {
                "start_time": 13.436363636363636,
                "end_time": 13.668181818181818,
                "pitch": 65,
                "velocity": 40,
                "duration": 0.23181818181818237,
                "tempo": 120.0
            },
            {
                "start_time": 13.686363636363636,
                "end_time": 13.918181818181818,
                "pitch": 64,
                "velocity": 40,
                "duration": 0.23181818181818237,
                "tempo": 120.0
            },
            {
                "start_time": 13.936363636363636,
                "end_time": 14.302272727272726,
                "pitch": 65,
                "velocity": 40,
                "duration": 0.3659090909090903,
                "tempo": 120.0
            },
            {
                "start_time": 14.318181818181818,
                "end_time": 14.668181818181818,
                "pitch": 58,
                "velocity": 40,
                "duration": 0.34999999999999964,
                "tempo": 120.0
            },
            {
                "start_time": 14.686363636363636,
                "end_time": 15.168181818181818,
                "pitch": 65,
                "velocity": 40,
                "duration": 0.48181818181818237,
                "tempo": 120.0
            },
            {
                "start_time": 15.186363636363636,
                "end_time": 15.302272727272726,
                "pitch": 65,
                "velocity": 40,
                "duration": 0.1159090909090903,
                "tempo": 120.0
            },
            {
                "start_time": 15.318181818181817,
                "end_time": 15.418181818181818,
                "pitch": 68,
                "velocity": 40,
                "duration": 0.10000000000000142,
                "tempo": 120.0
            },
            {
                "start_time": 15.436363636363636,
                "end_time": 15.668181818181818,
                "pitch": 65,
                "velocity": 40,
                "duration": 0.23181818181818237,
                "tempo": 120.0
            },
            {
                "start_time": 15.686363636363636,
                "end_time": 15.918181818181818,
                "pitch": 64,
                "velocity": 40,
                "duration": 0.23181818181818237,
                "tempo": 120.0
            },
            {
                "start_time": 15.936363636363636,
                "end_time": 16.302272727272726,
                "pitch": 72,
                "velocity": 40,
                "duration": 0.3659090909090903,
                "tempo": 120.0
            },
            {
                "start_time": 16.318181818181817,
                "end_time": 16.668181818181818,
                "pitch": 65,
                "velocity": 40,
                "duration": 0.3500000000000014,
                "tempo": 120.0
            },
            {
                "start_time": 16.686363636363634,
                "end_time": 17.168181818181818,
                "pitch": 72,
                "velocity": 40,
                "duration": 0.48181818181818414,
                "tempo": 120.0
            },
            {
                "start_time": 17.186363636363634,
                "end_time": 17.302272727272726,
                "pitch": 72,
                "velocity": 40,
                "duration": 0.11590909090909207,
                "tempo": 120.0
            },
            {
                "start_time": 17.318181818181817,
                "end_time": 17.418181818181818,
                "pitch": 75,
                "velocity": 40,
                "duration": 0.10000000000000142,
                "tempo": 120.0
            },
            {
                "start_time": 17.436363636363634,
                "end_time": 17.668181818181818,
                "pitch": 72,
                "velocity": 40,
                "duration": 0.23181818181818414,
                "tempo": 120.0
            },
            {
                "start_time": 17.686363636363634,
                "end_time": 17.918181818181818,
                "pitch": 71,
                "velocity": 40,
                "duration": 0.23181818181818414,
                "tempo": 120.0
            },
            {
                "start_time": 17.936363636363634,
                "end_time": 18.302272727272726,
                "pitch": 72,
                "velocity": 40,
                "duration": 0.36590909090909207,
                "tempo": 120.0
            },
            {
                "start_time": 18.318181818181817,
                "end_time": 18.668181818181818,
                "pitch": 65,
                "velocity": 40,
                "duration": 0.3500000000000014,
                "tempo": 120.0
            },
            {
                "start_time": 18.686363636363634,
                "end_time": 19.168181818181818,
                "pitch": 72,
                "velocity": 40,
                "duration": 0.48181818181818414,
                "tempo": 120.0
            },
            {
                "start_time": 19.186363636363634,
                "end_time": 19.302272727272726,
                "pitch": 72,
                "velocity": 40,
                "duration": 0.11590909090909207,
                "tempo": 120.0
            },
            {
                "start_time": 19.318181818181817,
                "end_time": 19.418181818181818,
                "pitch": 75,
                "velocity": 40,
                "duration": 0.10000000000000142,
                "tempo": 120.0
            },
            {
                "start_time": 19.436363636363634,
                "end_time": 19.668181818181818,
                "pitch": 72,
                "velocity": 40,
                "duration": 0.23181818181818414,
                "tempo": 120.0
            },
            {
                "start_time": 19.686363636363634,
                "end_time": 19.918181818181818,
                "pitch": 71,
                "velocity": 40,
                "duration": 0.23181818181818414,
                "tempo": 120.0
            },
            {
                "start_time": 19.936363636363634,
                "end_time": 20.302272727272726,
                "pitch": 72,
                "velocity": 40,
                "duration": 0.36590909090909207,
                "tempo": 120.0
            },
            {
                "start_time": 20.318181818181817,
                "end_time": 20.668181818181818,
                "pitch": 65,
                "velocity": 40,
                "duration": 0.3500000000000014,
                "tempo": 120.0
            },
            {
                "start_time": 20.686363636363634,
                "end_time": 21.168181818181818,
                "pitch": 72,
                "velocity": 40,
                "duration": 0.48181818181818414,
                "tempo": 120.0
            },
            {
                "start_time": 21.186363636363634,
                "end_time": 21.302272727272726,
                "pitch": 72,
                "velocity": 40,
                "duration": 0.11590909090909207,
                "tempo": 120.0
            },
            {
                "start_time": 21.318181818181817,
                "end_time": 21.418181818181818,
                "pitch": 75,
                "velocity": 40,
                "duration": 0.10000000000000142,
                "tempo": 120.0
            },
            {
                "start_time": 21.436363636363634,
                "end_time": 21.668181818181818,
                "pitch": 72,
                "velocity": 40,
                "duration": 0.23181818181818414,
                "tempo": 120.0
            },
            {
                "start_time": 21.686363636363634,
                "end_time": 21.918181818181818,
                "pitch": 71,
                "velocity": 40,
                "duration": 0.23181818181818414,
                "tempo": 120.0
            },
            {
                "start_time": 21.936363636363634,
                "end_time": 23.918181818181818,
                "pitch": 72,
                "velocity": 40,
                "duration": 1.9818181818181841,
                "tempo": 120.0
            },
            {
                "start_time": 23.936363636363634,
                "end_time": 24.302272727272726,
                "pitch": 72,
                "velocity": 40,
                "duration": 0.36590909090909207,
                "tempo": 120.0
            },
            {
                "start_time": 24.318181818181817,
                "end_time": 24.668181818181818,
                "pitch": 65,
                "velocity": 40,
                "duration": 0.3500000000000014,
                "tempo": 120.0
            },
            {
                "start_time": 24.686363636363634,
                "end_time": 25.168181818181818,
                "pitch": 72,
                "velocity": 40,
                "duration": 0.48181818181818414,
                "tempo": 120.0
            },
            {
                "start_time": 25.186363636363634,
                "end_time": 25.302272727272726,
                "pitch": 72,
                "velocity": 40,
                "duration": 0.11590909090909207,
                "tempo": 120.0
            },
            {
                "start_time": 25.318181818181817,
                "end_time": 25.418181818181818,
                "pitch": 75,
                "velocity": 40,
                "duration": 0.10000000000000142,
                "tempo": 120.0
            },
            {
                "start_time": 25.436363636363634,
                "end_time": 25.668181818181818,
                "pitch": 72,
                "velocity": 40,
                "duration": 0.23181818181818414,
                "tempo": 120.0
            },
            {
                "start_time": 25.686363636363634,
                "end_time": 25.918181818181818,
                "pitch": 71,
                "velocity": 40,
                "duration": 0.23181818181818414,
                "tempo": 120.0
            },
            {
                "start_time": 25.936363636363634,
                "end_time": 26.302272727272726,
                "pitch": 72,
                "velocity": 40,
                "duration": 0.36590909090909207,
                "tempo": 120.0
            },
            {
                "start_time": 26.318181818181817,
                "end_time": 26.668181818181818,
                "pitch": 65,
                "velocity": 40,
                "duration": 0.3500000000000014,
                "tempo": 120.0
            },
            {
                "start_time": 26.686363636363634,
                "end_time": 27.168181818181818,
                "pitch": 72,
                "velocity": 40,
                "duration": 0.48181818181818414,
                "tempo": 120.0
            },
            {
                "start_time": 27.186363636363634,
                "end_time": 27.302272727272726,
                "pitch": 72,
                "velocity": 40,
                "duration": 0.11590909090909207,
                "tempo": 120.0
            },
            {
                "start_time": 27.318181818181817,
                "end_time": 27.418181818181818,
                "pitch": 75,
                "velocity": 40,
                "duration": 0.10000000000000142,
                "tempo": 120.0
            },
            {
                "start_time": 27.436363636363634,
                "end_time": 27.668181818181818,
                "pitch": 72,
                "velocity": 40,
                "duration": 0.23181818181818414,
                "tempo": 120.0
            },
            {
                "start_time": 27.686363636363634,
                "end_time": 27.918181818181818,
                "pitch": 71,
                "velocity": 40,
                "duration": 0.23181818181818414,
                "tempo": 120.0
            },
            {
                "start_time": 27.936363636363634,
                "end_time": 28.302272727272726,
                "pitch": 72,
                "velocity": 40,
                "duration": 0.36590909090909207,
                "tempo": 120.0
            },
            {
                "start_time": 28.318181818181817,
                "end_time": 28.668181818181818,
                "pitch": 65,
                "velocity": 40,
                "duration": 0.3500000000000014,
                "tempo": 120.0
            },
            {
                "start_time": 28.686363636363634,
                "end_time": 29.168181818181818,
                "pitch": 72,
                "velocity": 40,
                "duration": 0.48181818181818414,
                "tempo": 120.0
            },
            {
                "start_time": 29.186363636363634,
                "end_time": 29.302272727272726,
                "pitch": 72,
                "velocity": 40,
                "duration": 0.11590909090909207,
                "tempo": 120.0
            },
            {
                "start_time": 29.318181818181817,
                "end_time": 29.418181818181818,
                "pitch": 75,
                "velocity": 40,
                "duration": 0.10000000000000142,
                "tempo": 120.0
            },
            {
                "start_time": 29.436363636363634,
                "end_time": 29.668181818181818,
                "pitch": 72,
                "velocity": 40,
                "duration": 0.23181818181818414,
                "tempo": 120.0
            },
            {
                "start_time": 29.686363636363634,
                "end_time": 29.918181818181818,
                "pitch": 71,
                "velocity": 40,
                "duration": 0.23181818181818414,
                "tempo": 120.0
            },
            {
                "start_time": 29.936363636363634,
                "end_time": 30.302272727272726,
                "pitch": 72,
                "velocity": 40,
                "duration": 0.36590909090909207,
                "tempo": 120.0
            },
            {
                "start_time": 30.318181818181817,
                "end_time": 30.668181818181818,
                "pitch": 65,
                "velocity": 40,
                "duration": 0.3500000000000014,
                "tempo": 120.0
            },
            {
                "start_time": 30.686363636363634,
                "end_time": 31.168181818181818,
                "pitch": 72,
                "velocity": 40,
                "duration": 0.48181818181818414,
                "tempo": 120.0
            },
            {
                "start_time": 31.186363636363634,
                "end_time": 31.302272727272726,
                "pitch": 72,
                "velocity": 40,
                "duration": 0.11590909090909207,
                "tempo": 120.0
            },
            {
                "start_time": 31.318181818181817,
                "end_time": 31.418181818181818,
                "pitch": 75,
                "velocity": 40,
                "duration": 0.10000000000000142,
                "tempo": 120.0
            },
            {
                "start_time": 31.436363636363634,
                "end_time": 31.668181818181818,
                "pitch": 72,
                "velocity": 40,
                "duration": 0.23181818181818414,
                "tempo": 120.0
            },
            {
                "start_time": 31.686363636363634,
                "end_time": 31.918181818181818,
                "pitch": 71,
                "velocity": 40,
                "duration": 0.23181818181818414,
                "tempo": 120.0
            },
            {
                "start_time": 31.936363636363634,
                "end_time": 32.30227272727272,
                "pitch": 72,
                "velocity": 40,
                "duration": 0.3659090909090885,
                "tempo": 120.0
            },
            {
                "start_time": 32.31818181818182,
                "end_time": 32.668181818181814,
                "pitch": 65,
                "velocity": 40,
                "duration": 0.3499999999999943,
                "tempo": 120.0
            },
            {
                "start_time": 32.68636363636364,
                "end_time": 33.168181818181814,
                "pitch": 72,
                "velocity": 40,
                "duration": 0.48181818181817704,
                "tempo": 120.0
            },
            {
                "start_time": 33.18636363636364,
                "end_time": 33.30227272727272,
                "pitch": 72,
                "velocity": 40,
                "duration": 0.11590909090908497,
                "tempo": 120.0
            },
            {
                "start_time": 33.31818181818181,
                "end_time": 33.418181818181814,
                "pitch": 75,
                "velocity": 40,
                "duration": 0.10000000000000142,
                "tempo": 120.0
            },
            {
                "start_time": 33.43636363636364,
                "end_time": 33.668181818181814,
                "pitch": 72,
                "velocity": 40,
                "duration": 0.23181818181817704,
                "tempo": 120.0
            },
            {
                "start_time": 33.68636363636364,
                "end_time": 33.918181818181814,
                "pitch": 71,
                "velocity": 40,
                "duration": 0.23181818181817704,
                "tempo": 120.0
            },
            {
                "start_time": 33.93636363636364,
                "end_time": 34.30227272727272,
                "pitch": 72,
                "velocity": 40,
                "duration": 0.36590909090908497,
                "tempo": 120.0
            },
            {
                "start_time": 34.31818181818181,
                "end_time": 34.668181818181814,
                "pitch": 65,
                "velocity": 40,
                "duration": 0.3500000000000014,
                "tempo": 120.0
            },
            {
                "start_time": 34.68636363636364,
                "end_time": 35.168181818181814,
                "pitch": 72,
                "velocity": 40,
                "duration": 0.48181818181817704,
                "tempo": 120.0
            },
            {
                "start_time": 35.18636363636364,
                "end_time": 35.30227272727272,
                "pitch": 72,
                "velocity": 40,
                "duration": 0.11590909090908497,
                "tempo": 120.0
            },
            {
                "start_time": 35.31818181818181,
                "end_time": 35.418181818181814,
                "pitch": 75,
                "velocity": 40,
                "duration": 0.10000000000000142,
                "tempo": 120.0
            },
            {
                "start_time": 35.43636363636364,
                "end_time": 35.668181818181814,
                "pitch": 72,
                "velocity": 40,
                "duration": 0.23181818181817704,
                "tempo": 120.0
            },
            {
                "start_time": 35.68636363636364,
                "end_time": 35.918181818181814,
                "pitch": 71,
                "velocity": 40,
                "duration": 0.23181818181817704,
                "tempo": 120.0
            },
            {
                "start_time": 35.93636363636364,
                "end_time": 36.30227272727272,
                "pitch": 72,
                "velocity": 40,
                "duration": 0.36590909090908497,
                "tempo": 120.0
            },
            {
                "start_time": 36.31818181818181,
                "end_time": 36.668181818181814,
                "pitch": 65,
                "velocity": 40,
                "duration": 0.3500000000000014,
                "tempo": 120.0
            },
            {
                "start_time": 36.68636363636364,
                "end_time": 37.168181818181814,
                "pitch": 72,
                "velocity": 40,
                "duration": 0.48181818181817704,
                "tempo": 120.0
            },
            {
                "start_time": 37.18636363636364,
                "end_time": 37.30227272727272,
                "pitch": 72,
                "velocity": 40,
                "duration": 0.11590909090908497,
                "tempo": 120.0
            },
            {
                "start_time": 37.31818181818181,
                "end_time": 37.418181818181814,
                "pitch": 75,
                "velocity": 40,
                "duration": 0.10000000000000142,
                "tempo": 120.0
            },
            {
                "start_time": 37.43636363636364,
                "end_time": 37.668181818181814,
                "pitch": 72,
                "velocity": 40,
                "duration": 0.23181818181817704,
                "tempo": 120.0
            },
            {
                "start_time": 37.68636363636364,
                "end_time": 37.918181818181814,
                "pitch": 71,
                "velocity": 40,
                "duration": 0.23181818181817704,
                "tempo": 120.0
            },
            {
                "start_time": 37.93636363636364,
                "end_time": 38.30227272727272,
                "pitch": 72,
                "velocity": 40,
                "duration": 0.36590909090908497,
                "tempo": 120.0
            },
            {
                "start_time": 38.31818181818181,
                "end_time": 38.668181818181814,
                "pitch": 65,
                "velocity": 40,
                "duration": 0.3500000000000014,
                "tempo": 120.0
            },
            {
                "start_time": 38.68636363636364,
                "end_time": 39.168181818181814,
                "pitch": 72,
                "velocity": 40,
                "duration": 0.48181818181817704,
                "tempo": 120.0
            },
            {
                "start_time": 39.18636363636364,
                "end_time": 39.30227272727272,
                "pitch": 72,
                "velocity": 40,
                "duration": 0.11590909090908497,
                "tempo": 120.0
            },
            {
                "start_time": 39.31818181818181,
                "end_time": 39.418181818181814,
                "pitch": 75,
                "velocity": 40,
                "duration": 0.10000000000000142,
                "tempo": 120.0
            },
            {
                "start_time": 39.43636363636364,
                "end_time": 39.668181818181814,
                "pitch": 72,
                "velocity": 40,
                "duration": 0.23181818181817704,
                "tempo": 120.0
            },
            {
                "start_time": 39.68636363636364,
                "end_time": 39.918181818181814,
                "pitch": 71,
                "velocity": 40,
                "duration": 0.23181818181817704,
                "tempo": 120.0
            },
            {
                "start_time": 39.93636363636364,
                "end_time": 40.30227272727272,
                "pitch": 65,
                "velocity": 40,
                "duration": 0.36590909090908497,
                "tempo": 120.0
            },
            {
                "start_time": 40.31818181818181,
                "end_time": 40.668181818181814,
                "pitch": 58,
                "velocity": 40,
                "duration": 0.3500000000000014,
                "tempo": 120.0
            },
            {
                "start_time": 40.68636363636364,
                "end_time": 41.168181818181814,
                "pitch": 65,
                "velocity": 40,
                "duration": 0.48181818181817704,
                "tempo": 120.0
            },
            {
                "start_time": 41.18636363636364,
                "end_time": 41.30227272727272,
                "pitch": 65,
                "velocity": 40,
                "duration": 0.11590909090908497,
                "tempo": 120.0
            },
            {
                "start_time": 41.31818181818181,
                "end_time": 41.418181818181814,
                "pitch": 68,
                "velocity": 40,
                "duration": 0.10000000000000142,
                "tempo": 120.0
            },
            {
                "start_time": 41.43636363636364,
                "end_time": 41.668181818181814,
                "pitch": 65,
                "velocity": 40,
                "duration": 0.23181818181817704,
                "tempo": 120.0
            },
            {
                "start_time": 41.68636363636364,
                "end_time": 41.918181818181814,
                "pitch": 64,
                "velocity": 40,
                "duration": 0.23181818181817704,
                "tempo": 120.0
            },
            {
                "start_time": 41.93636363636364,
                "end_time": 42.30227272727272,
                "pitch": 65,
                "velocity": 40,
                "duration": 0.36590909090908497,
                "tempo": 120.0
            },
            {
                "start_time": 42.31818181818181,
                "end_time": 42.668181818181814,
                "pitch": 58,
                "velocity": 40,
                "duration": 0.3500000000000014,
                "tempo": 120.0
            },
            {
                "start_time": 42.68636363636364,
                "end_time": 43.168181818181814,
                "pitch": 65,
                "velocity": 40,
                "duration": 0.48181818181817704,
                "tempo": 120.0
            },
            {
                "start_time": 43.18636363636364,
                "end_time": 43.30227272727272,
                "pitch": 65,
                "velocity": 40,
                "duration": 0.11590909090908497,
                "tempo": 120.0
            },
            {
                "start_time": 43.31818181818181,
                "end_time": 43.418181818181814,
                "pitch": 68,
                "velocity": 40,
                "duration": 0.10000000000000142,
                "tempo": 120.0
            },
            {
                "start_time": 43.43636363636364,
                "end_time": 43.668181818181814,
                "pitch": 65,
                "velocity": 40,
                "duration": 0.23181818181817704,
                "tempo": 120.0
            },
            {
                "start_time": 43.68636363636364,
                "end_time": 43.918181818181814,
                "pitch": 64,
                "velocity": 40,
                "duration": 0.23181818181817704,
                "tempo": 120.0
            },
            {
                "start_time": 43.93636363636364,
                "end_time": 44.30227272727272,
                "pitch": 65,
                "velocity": 40,
                "duration": 0.36590909090908497,
                "tempo": 120.0
            },
            {
                "start_time": 44.31818181818181,
                "end_time": 44.668181818181814,
                "pitch": 58,
                "velocity": 40,
                "duration": 0.3500000000000014,
                "tempo": 120.0
            },
            {
                "start_time": 44.68636363636364,
                "end_time": 45.168181818181814,
                "pitch": 65,
                "velocity": 40,
                "duration": 0.48181818181817704,
                "tempo": 120.0
            },
            {
                "start_time": 45.18636363636364,
                "end_time": 45.30227272727272,
                "pitch": 65,
                "velocity": 40,
                "duration": 0.11590909090908497,
                "tempo": 120.0
            },
            {
                "start_time": 45.31818181818181,
                "end_time": 45.418181818181814,
                "pitch": 68,
                "velocity": 40,
                "duration": 0.10000000000000142,
                "tempo": 120.0
            },
            {
                "start_time": 45.43636363636364,
                "end_time": 45.668181818181814,
                "pitch": 65,
                "velocity": 40,
                "duration": 0.23181818181817704,
                "tempo": 120.0
            },
            {
                "start_time": 45.68636363636364,
                "end_time": 45.918181818181814,
                "pitch": 64,
                "velocity": 40,
                "duration": 0.23181818181817704,
                "tempo": 120.0
            },
            {
                "start_time": 45.93636363636364,
                "end_time": 46.30227272727272,
                "pitch": 65,
                "velocity": 40,
                "duration": 0.36590909090908497,
                "tempo": 120.0
            },
            {
                "start_time": 46.31818181818181,
                "end_time": 46.668181818181814,
                "pitch": 58,
                "velocity": 40,
                "duration": 0.3500000000000014,
                "tempo": 120.0
            },
            {
                "start_time": 46.68636363636364,
                "end_time": 47.168181818181814,
                "pitch": 65,
                "velocity": 40,
                "duration": 0.48181818181817704,
                "tempo": 120.0
            },
            {
                "start_time": 47.18636363636364,
                "end_time": 47.30227272727272,
                "pitch": 65,
                "velocity": 40,
                "duration": 0.11590909090908497,
                "tempo": 120.0
            },
            {
                "start_time": 47.31818181818181,
                "end_time": 47.418181818181814,
                "pitch": 68,
                "velocity": 40,
                "duration": 0.10000000000000142,
                "tempo": 120.0
            },
            {
                "start_time": 47.43636363636364,
                "end_time": 47.668181818181814,
                "pitch": 65,
                "velocity": 40,
                "duration": 0.23181818181817704,
                "tempo": 120.0
            },
            {
                "start_time": 47.68636363636364,
                "end_time": 47.918181818181814,
                "pitch": 64,
                "velocity": 40,
                "duration": 0.23181818181817704,
                "tempo": 120.0
            },
            {
                "start_time": 47.93636363636364,
                "end_time": 48.30227272727272,
                "pitch": 72,
                "velocity": 40,
                "duration": 0.36590909090908497,
                "tempo": 120.0
            },
            {
                "start_time": 48.31818181818181,
                "end_time": 48.668181818181814,
                "pitch": 65,
                "velocity": 40,
                "duration": 0.3500000000000014,
                "tempo": 120.0
            },
            {
                "start_time": 48.68636363636364,
                "end_time": 49.168181818181814,
                "pitch": 72,
                "velocity": 40,
                "duration": 0.48181818181817704,
                "tempo": 120.0
            },
            {
                "start_time": 49.18636363636364,
                "end_time": 49.30227272727272,
                "pitch": 72,
                "velocity": 40,
                "duration": 0.11590909090908497,
                "tempo": 120.0
            },
            {
                "start_time": 49.31818181818181,
                "end_time": 49.418181818181814,
                "pitch": 75,
                "velocity": 40,
                "duration": 0.10000000000000142,
                "tempo": 120.0
            },
            {
                "start_time": 49.43636363636364,
                "end_time": 49.668181818181814,
                "pitch": 72,
                "velocity": 40,
                "duration": 0.23181818181817704,
                "tempo": 120.0
            },
            {
                "start_time": 49.68636363636364,
                "end_time": 49.918181818181814,
                "pitch": 71,
                "velocity": 40,
                "duration": 0.23181818181817704,
                "tempo": 120.0
            },
            {
                "start_time": 49.93636363636364,
                "end_time": 50.30227272727272,
                "pitch": 72,
                "velocity": 40,
                "duration": 0.36590909090908497,
                "tempo": 120.0
            },
            {
                "start_time": 50.31818181818181,
                "end_time": 50.668181818181814,
                "pitch": 65,
                "velocity": 40,
                "duration": 0.3500000000000014,
                "tempo": 120.0
            },
            {
                "start_time": 50.68636363636364,
                "end_time": 51.168181818181814,
                "pitch": 72,
                "velocity": 40,
                "duration": 0.48181818181817704,
                "tempo": 120.0
            },
            {
                "start_time": 51.18636363636364,
                "end_time": 51.30227272727272,
                "pitch": 72,
                "velocity": 40,
                "duration": 0.11590909090908497,
                "tempo": 120.0
            },
            {
                "start_time": 51.31818181818181,
                "end_time": 51.418181818181814,
                "pitch": 75,
                "velocity": 40,
                "duration": 0.10000000000000142,
                "tempo": 120.0
            },
            {
                "start_time": 51.43636363636364,
                "end_time": 51.668181818181814,
                "pitch": 72,
                "velocity": 40,
                "duration": 0.23181818181817704,
                "tempo": 120.0
            },
            {
                "start_time": 51.68636363636364,
                "end_time": 51.918181818181814,
                "pitch": 71,
                "velocity": 40,
                "duration": 0.23181818181817704,
                "tempo": 120.0
            },
            {
                "start_time": 51.93636363636363,
                "end_time": 52.30227272727272,
                "pitch": 72,
                "velocity": 40,
                "duration": 0.36590909090909207,
                "tempo": 120.0
            },
            {
                "start_time": 52.31818181818181,
                "end_time": 52.668181818181814,
                "pitch": 65,
                "velocity": 40,
                "duration": 0.3500000000000014,
                "tempo": 120.0
            },
            {
                "start_time": 52.68636363636363,
                "end_time": 53.168181818181814,
                "pitch": 72,
                "velocity": 40,
                "duration": 0.48181818181818414,
                "tempo": 120.0
            },
            {
                "start_time": 53.18636363636363,
                "end_time": 53.30227272727272,
                "pitch": 72,
                "velocity": 40,
                "duration": 0.11590909090909207,
                "tempo": 120.0
            },
            {
                "start_time": 53.31818181818181,
                "end_time": 53.418181818181814,
                "pitch": 75,
                "velocity": 40,
                "duration": 0.10000000000000142,
                "tempo": 120.0
            },
            {
                "start_time": 53.43636363636363,
                "end_time": 53.668181818181814,
                "pitch": 72,
                "velocity": 40,
                "duration": 0.23181818181818414,
                "tempo": 120.0
            },
            {
                "start_time": 53.68636363636363,
                "end_time": 53.918181818181814,
                "pitch": 71,
                "velocity": 40,
                "duration": 0.23181818181818414,
                "tempo": 120.0
            },
            {
                "start_time": 53.93636363636363,
                "end_time": 54.30227272727272,
                "pitch": 72,
                "velocity": 40,
                "duration": 0.36590909090909207,
                "tempo": 120.0
            },
            {
                "start_time": 54.31818181818181,
                "end_time": 54.668181818181814,
                "pitch": 65,
                "velocity": 40,
                "duration": 0.3500000000000014,
                "tempo": 120.0
            },
            {
                "start_time": 54.68636363636363,
                "end_time": 55.168181818181814,
                "pitch": 72,
                "velocity": 40,
                "duration": 0.48181818181818414,
                "tempo": 120.0
            },
            {
                "start_time": 55.18636363636363,
                "end_time": 55.3,
                "pitch": 72,
                "velocity": 40,
                "duration": 0.11363636363636687,
                "tempo": 120.0
            },
            {
                "start_time": 55.31590909090909,
                "end_time": 55.41590909090909,
                "pitch": 75,
                "velocity": 40,
                "duration": 0.10000000000000142,
                "tempo": 120.0
            },
            {
                "start_time": 55.43181818181818,
                "end_time": 55.66136363636363,
                "pitch": 72,
                "velocity": 40,
                "duration": 0.22954545454545183,
                "tempo": 120.0
            },
            {
                "start_time": 55.67727272727272,
                "end_time": 55.92727272727272,
                "pitch": 71,
                "velocity": 40,
                "duration": 0.25,
                "tempo": 120.0
            }
        ]
    }
}