{
    "track_id": "Maze Hunter 3-D (FM) - 03 - Rugged Area",
    "mood": "angry",
    "instruments": {
        "Clarinet": [
            {
                "start_time": 0.0,
                "end_time": 0.07954545454545454,
                "pitch": 76,
                "velocity": 64,
                "duration": 0.07954545454545454,
                "tempo": 120.0
            },
            {
                "start_time": 0.09772727272727272,
                "end_time": 0.17954545454545454,
                "pitch": 61,
                "velocity": 64,
                "duration": 0.08181818181818182,
                "tempo": 120.0
            },
            {
                "start_time": 0.19772727272727272,
                "end_time": 0.7727272727272727,
                "pitch": 76,
                "velocity": 64,
                "duration": 0.575,
                "tempo": 120.0
            },
            {
                "start_time": 0.7886363636363636,
                "end_time": 1.4727272727272727,
                "pitch": 77,
                "velocity": 64,
                "duration": 0.6840909090909091,
                "tempo": 120.0
            },
            {
                "start_time": 1.4886363636363635,
                "end_time": 1.5068181818181818,
                "pitch": 78,
                "velocity": 64,
                "duration": 0.0181818181818183,
                "tempo": 120.0
            },
            {
                "start_time": 1.5227272727272727,
                "end_time": 2.775,
                "pitch": 79,
                "velocity": 64,
                "duration": 1.2522727272727272,
                "tempo": 120.0
            },
            {
                "start_time": 2.7909090909090906,
                "end_time": 3.0749999999999997,
                "pitch": 77,
                "velocity": 64,
                "duration": 0.28409090909090917,
                "tempo": 120.0
            },
            {
                "start_time": 3.090909090909091,
                "end_time": 3.877272727272727,
                "pitch": 76,
                "velocity": 64,
                "duration": 0.7863636363636362,
                "tempo": 120.0
            },
            {
                "start_time": 3.895454545454545,
                "end_time": 3.977272727272727,
                "pitch": 75,
                "velocity": 64,
                "duration": 0.08181818181818201,
                "tempo": 120.0
            },
            {
                "start_time": 3.995454545454545,
                "end_time": 4.377272727272727,
                "pitch": 74,
                "velocity": 64,
                "duration": 0.38181818181818183,
                "tempo": 120.0
            },
            {
                "start_time": 4.3954545454545455,
                "end_time": 4.579545454545454,
                "pitch": 76,
                "velocity": 64,
                "duration": 0.18409090909090864,
                "tempo": 120.0
            },
            {
                "start_time": 4.595454545454545,
                "end_time": 4.679545454545455,
                "pitch": 77,
                "velocity": 64,
                "duration": 0.08409090909090988,
                "tempo": 120.0
            },
            {
                "start_time": 4.697727272727272,
                "end_time": 4.9795454545454545,
                "pitch": 77,
                "velocity": 64,
                "duration": 0.2818181818181822,
                "tempo": 120.0
            },
            {
                "start_time": 4.997727272727272,
                "end_time": 5.179545454545455,
                "pitch": 76,
                "velocity": 64,
                "duration": 0.18181818181818254,
                "tempo": 120.0
            },
            {
                "start_time": 5.197727272727272,
                "end_time": 5.381818181818182,
                "pitch": 74,
                "velocity": 64,
                "duration": 0.18409090909090953,
                "tempo": 120.0
            },
            {
                "start_time": 5.3977272727272725,
                "end_time": 5.4818181818181815,
                "pitch": 73,
                "velocity": 64,
                "duration": 0.084090909090909,
                "tempo": 120.0
            },
            {
                "start_time": 5.5,
                "end_time": 5.9840909090909085,
                "pitch": 72,
                "velocity": 64,
                "duration": 0.48409090909090846,
                "tempo": 120.0
            },
            {
                "start_time": 6.0,
                "end_time": 6.184090909090909,
                "pitch": 74,
                "velocity": 64,
                "duration": 0.18409090909090864,
                "tempo": 120.0
            },
            {
                "start_time": 6.202272727272727,
                "end_time": 6.386363636363636,
                "pitch": 77,
                "velocity": 64,
                "duration": 0.18409090909090864,
                "tempo": 120.0
            },
            {
                "start_time": 6.402272727272727,
                "end_time": 7.99090909090909,
                "pitch": 76,
                "velocity": 64,
                "duration": 1.588636363636363,
                "tempo": 120.0
            },
            {
                "start_time": 8.009090909090908,
                "end_time": 9.197727272727272,
                "pitch": 79,
                "velocity": 64,
                "duration": 1.1886363636363644,
                "tempo": 120.0
            },
            {
                "start_time": 9.213636363636363,
                "end_time": 9.397727272727272,
                "pitch": 77,
                "velocity": 64,
                "duration": 0.18409090909090864,
                "tempo": 120.0
            },
            {
                "start_time": 9.413636363636364,
                "end_time": 10.704545454545453,
                "pitch": 76,
                "velocity": 64,
                "duration": 1.2909090909090892,
                "tempo": 120.0
            },
            {
                "start_time": 10.720454545454546,
                "end_time": 11.006818181818181,
                "pitch": 75,
                "velocity": 64,
                "duration": 0.28636363636363527,
                "tempo": 120.0
            },
            {
                "start_time": 11.022727272727272,
                "end_time": 11.206818181818182,
                "pitch": 76,
                "velocity": 64,
                "duration": 0.18409090909091042,
                "tempo": 120.0
            },
            {
                "start_time": 11.225,
                "end_time": 12.513636363636364,
                "pitch": 72,
                "velocity": 64,
                "duration": 1.288636363636364,
                "tempo": 120.0
            },
            {
                "start_time": 12.531818181818181,
                "end_time": 12.613636363636363,
                "pitch": 73,
                "velocity": 64,
                "duration": 0.08181818181818201,
                "tempo": 120.0
            },
            {
                "start_time": 12.631818181818181,
                "end_time": 12.81590909090909,
                "pitch": 75,
                "velocity": 64,
                "duration": 0.18409090909090864,
                "tempo": 120.0
            },
            {
                "start_time": 12.831818181818182,
                "end_time": 14.725,
                "pitch": 76,
                "velocity": 64,
                "duration": 1.8931818181818176,
                "tempo": 120.0
            },
            {
                "start_time": 14.743181818181817,
                "end_time": 14.827272727272726,
                "pitch": 74,
                "velocity": 64,
                "duration": 0.084090909090909,
                "tempo": 120.0
            },
            {
                "start_time": 14.843181818181817,
                "end_time": 15.027272727272727,
                "pitch": 76,
                "velocity": 64,
                "duration": 0.18409090909091042,
                "tempo": 120.0
            },
            {
                "start_time": 15.045454545454545,
                "end_time": 15.229545454545454,
                "pitch": 77,
                "velocity": 64,
                "duration": 0.18409090909090864,
                "tempo": 120.0
            },
            {
                "start_time": 15.245454545454544,
                "end_time": 15.429545454545455,
                "pitch": 79,
                "velocity": 64,
                "duration": 0.18409090909091042,
                "tempo": 120.0
            },
            {
                "start_time": 15.445454545454545,
                "end_time": 15.529545454545454,
                "pitch": 77,
                "velocity": 64,
                "duration": 0.084090909090909,
                "tempo": 120.0
            },
            {
                "start_time": 15.545454545454545,
                "end_time": 15.729545454545454,
                "pitch": 76,
                "velocity": 64,
                "duration": 0.18409090909090864,
                "tempo": 120.0
            },
            {
                "start_time": 15.747727272727271,
                "end_time": 15.83181818181818,
                "pitch": 74,
                "velocity": 64,
                "duration": 0.084090909090909,
                "tempo": 120.0
            },
            {
                "start_time": 15.847727272727273,
                "end_time": 15.931818181818182,
                "pitch": 74,
                "velocity": 64,
                "duration": 0.084090909090909,
                "tempo": 120.0
            },
            {
                "start_time": 15.947727272727272,
                "end_time": 16.03181818181818,
                "pitch": 72,
                "velocity": 64,
                "duration": 0.084090909090909,
                "tempo": 120.0
            },
            {
                "start_time": 16.05,
                "end_time": 16.06590909090909,
                "pitch": 73,
                "velocity": 64,
                "duration": 0.01590909090909065,
                "tempo": 120.0
            },
            {
                "start_time": 16.081818181818182,
                "end_time": 16.936363636363634,
                "pitch": 74,
                "velocity": 64,
                "duration": 0.8545454545454518,
                "tempo": 120.0
            },
            {
                "start_time": 16.952272727272728,
                "end_time": 17.036363636363635,
                "pitch": 73,
                "velocity": 64,
                "duration": 0.08409090909090722,
                "tempo": 120.0
            },
            {
                "start_time": 17.052272727272726,
                "end_time": 17.136363636363637,
                "pitch": 72,
                "velocity": 64,
                "duration": 0.08409090909091077,
                "tempo": 120.0
            },
            {
                "start_time": 17.154545454545453,
                "end_time": 17.236363636363635,
                "pitch": 67,
                "velocity": 64,
                "duration": 0.08181818181818201,
                "tempo": 120.0
            },
            {
                "start_time": 17.254545454545454,
                "end_time": 17.33863636363636,
                "pitch": 69,
                "velocity": 64,
                "duration": 0.08409090909090722,
                "tempo": 120.0
            },
            {
                "start_time": 17.354545454545455,
                "end_time": 17.438636363636363,
                "pitch": 70,
                "velocity": 64,
                "duration": 0.08409090909090722,
                "tempo": 120.0
            },
            {
                "start_time": 17.454545454545453,
                "end_time": 17.538636363636364,
                "pitch": 72,
                "velocity": 64,
                "duration": 0.08409090909091077,
                "tempo": 120.0
            },
            {
                "start_time": 17.554545454545455,
                "end_time": 17.638636363636362,
                "pitch": 74,
                "velocity": 64,
                "duration": 0.08409090909090722,
                "tempo": 120.0
            },
            {
                "start_time": 17.654545454545453,
                "end_time": 18.04090909090909,
                "pitch": 76,
                "velocity": 64,
                "duration": 0.3863636363636367,
                "tempo": 120.0
            },
            {
                "start_time": 18.05681818181818,
                "end_time": 18.14090909090909,
                "pitch": 76,
                "velocity": 64,
                "duration": 0.08409090909091077,
                "tempo": 120.0
            },
            {
                "start_time": 18.15681818181818,
                "end_time": 18.24090909090909,
                "pitch": 77,
                "velocity": 64,
                "duration": 0.08409090909090722,
                "tempo": 120.0
            },
            {
                "start_time": 18.25681818181818,
                "end_time": 18.54090909090909,
                "pitch": 76,
                "velocity": 64,
                "duration": 0.28409090909091006,
                "tempo": 120.0
            },
            {
                "start_time": 18.55681818181818,
                "end_time": 18.84090909090909,
                "pitch": 74,
                "velocity": 64,
                "duration": 0.28409090909091006,
                "tempo": 120.0
            },
            {
                "start_time": 18.85681818181818,
                "end_time": 18.94090909090909,
                "pitch": 72,
                "velocity": 64,
                "duration": 0.08409090909091077,
                "tempo": 120.0
            },
            {
                "start_time": 18.956818181818182,
                "end_time": 19.243181818181817,
                "pitch": 72,
                "velocity": 64,
                "duration": 0.28636363636363527,
                "tempo": 120.0
            },
            {
                "start_time": 19.259090909090908,
                "end_time": 19.643181818181816,
                "pitch": 79,
                "velocity": 64,
                "duration": 0.38409090909090793,
                "tempo": 120.0
            },
            {
                "start_time": 19.659090909090907,
                "end_time": 19.84318181818182,
                "pitch": 77,
                "velocity": 64,
                "duration": 0.1840909090909122,
                "tempo": 120.0
            },
            {
                "start_time": 19.861363636363635,
                "end_time": 20.245454545454546,
                "pitch": 76,
                "velocity": 64,
                "duration": 0.3840909090909115,
                "tempo": 120.0
            },
            {
                "start_time": 20.261363636363637,
                "end_time": 20.445454545454545,
                "pitch": 74,
                "velocity": 64,
                "duration": 0.18409090909090864,
                "tempo": 120.0
            },
            {
                "start_time": 20.461363636363636,
                "end_time": 20.645454545454545,
                "pitch": 72,
                "velocity": 64,
                "duration": 0.18409090909090864,
                "tempo": 120.0
            },
            {
                "start_time": 20.661363636363635,
                "end_time": 20.845454545454544,
                "pitch": 74,
                "velocity": 64,
                "duration": 0.18409090909090864,
                "tempo": 120.0
            },
            {
                "start_time": 20.861363636363635,
                "end_time": 20.945454545454545,
                "pitch": 72,
                "velocity": 64,
                "duration": 0.08409090909091077,
                "tempo": 120.0
            },
            {
                "start_time": 20.96363636363636,
                "end_time": 21.849999999999998,
                "pitch": 64,
                "velocity": 64,
                "duration": 0.8863636363636367,
                "tempo": 120.0
            },
            {
                "start_time": 21.86590909090909,
                "end_time": 21.95,
                "pitch": 62,
                "velocity": 64,
                "duration": 0.08409090909091077,
                "tempo": 120.0
            },
            {
                "start_time": 21.96590909090909,
                "end_time": 22.049999999999997,
                "pitch": 64,
                "velocity": 64,
                "duration": 0.08409090909090722,
                "tempo": 120.0
            },
            {
                "start_time": 22.068181818181817,
                "end_time": 22.15,
                "pitch": 65,
                "velocity": 64,
                "duration": 0.08181818181818201,
                "tempo": 120.0
            },
            {
                "start_time": 22.168181818181818,
                "end_time": 22.25,
                "pitch": 67,
                "velocity": 64,
                "duration": 0.08181818181818201,
                "tempo": 120.0
            },
            {
                "start_time": 22.268181818181816,
                "end_time": 22.349999999999998,
                "pitch": 69,
                "velocity": 64,
                "duration": 0.08181818181818201,
                "tempo": 120.0
            },
            {
                "start_time": 22.368181818181817,
                "end_time": 22.45,
                "pitch": 70,
                "velocity": 64,
                "duration": 0.08181818181818201,
                "tempo": 120.0
            },
            {
                "start_time": 22.46818181818182,
                "end_time": 22.849999999999998,
                "pitch": 64,
                "velocity": 64,
                "duration": 0.38181818181817917,
                "tempo": 120.0
            },
            {
                "start_time": 22.868181818181817,
                "end_time": 23.052272727272726,
                "pitch": 69,
                "velocity": 64,
                "duration": 0.18409090909090864,
                "tempo": 120.0
            },
            {
                "start_time": 23.068181818181817,
                "end_time": 23.454545454545453,
                "pitch": 76,
                "velocity": 64,
                "duration": 0.3863636363636367,
                "tempo": 120.0
            },
            {
                "start_time": 23.470454545454544,
                "end_time": 23.654545454545453,
                "pitch": 77,
                "velocity": 64,
                "duration": 0.18409090909090864,
                "tempo": 120.0
            },
            {
                "start_time": 23.670454545454543,
                "end_time": 23.686363636363634,
                "pitch": 78,
                "velocity": 64,
                "duration": 0.01590909090909065,
                "tempo": 120.0
            },
            {
                "start_time": 23.704545454545453,
                "end_time": 23.854545454545452,
                "pitch": 79,
                "velocity": 64,
                "duration": 0.14999999999999858,
                "tempo": 120.0
            },
            {
                "start_time": 23.87272727272727,
                "end_time": 24.05681818181818,
                "pitch": 77,
                "velocity": 64,
                "duration": 0.18409090909090864,
                "tempo": 120.0
            },
            {
                "start_time": 24.07272727272727,
                "end_time": 24.456818181818182,
                "pitch": 76,
                "velocity": 64,
                "duration": 0.3840909090909115,
                "tempo": 120.0
            },
            {
                "start_time": 24.472727272727273,
                "end_time": 24.65681818181818,
                "pitch": 74,
                "velocity": 64,
                "duration": 0.18409090909090864,
                "tempo": 120.0
            },
            {
                "start_time": 24.672727272727272,
                "end_time": 24.75681818181818,
                "pitch": 76,
                "velocity": 64,
                "duration": 0.08409090909090722,
                "tempo": 120.0
            },
            {
                "start_time": 24.77272727272727,
                "end_time": 25.05681818181818,
                "pitch": 74,
                "velocity": 64,
                "duration": 0.28409090909091006,
                "tempo": 120.0
            },
            {
                "start_time": 25.075,
                "end_time": 25.259090909090908,
                "pitch": 72,
                "velocity": 64,
                "duration": 0.18409090909090864,
                "tempo": 120.0
            },
            {
                "start_time": 25.275,
                "end_time": 25.459090909090907,
                "pitch": 74,
                "velocity": 64,
                "duration": 0.18409090909090864,
                "tempo": 120.0
            },
            {
                "start_time": 25.474999999999998,
                "end_time": 25.659090909090907,
                "pitch": 76,
                "velocity": 64,
                "duration": 0.18409090909090864,
                "tempo": 120.0
            },
            {
                "start_time": 25.674999999999997,
                "end_time": 26.961363636363636,
                "pitch": 72,
                "velocity": 64,
                "duration": 1.2863636363636388,
                "tempo": 120.0
            },
            {
                "start_time": 26.979545454545452,
                "end_time": 27.063636363636363,
                "pitch": 67,
                "velocity": 64,
                "duration": 0.08409090909091077,
                "tempo": 120.0
            },
            {
                "start_time": 27.079545454545453,
                "end_time": 27.163636363636364,
                "pitch": 69,
                "velocity": 64,
                "duration": 0.08409090909091077,
                "tempo": 120.0
            },
            {
                "start_time": 27.179545454545455,
                "end_time": 27.263636363636362,
                "pitch": 72,
                "velocity": 64,
                "duration": 0.08409090909090722,
                "tempo": 120.0
            },
            {
                "start_time": 27.28181818181818,
                "end_time": 27.363636363636363,
                "pitch": 72,
                "velocity": 64,
                "duration": 0.08181818181818201,
                "tempo": 120.0
            },
            {
                "start_time": 27.38181818181818,
                "end_time": 28.065909090909088,
                "pitch": 76,
                "velocity": 64,
                "duration": 0.6840909090909086,
                "tempo": 120.0
            },
            {
                "start_time": 28.084090909090907,
                "end_time": 28.468181818181815,
                "pitch": 79,
                "velocity": 64,
                "duration": 0.38409090909090793,
                "tempo": 120.0
            },
            {
                "start_time": 28.48409090909091,
                "end_time": 28.668181818181818,
                "pitch": 77,
                "velocity": 64,
                "duration": 0.18409090909090864,
                "tempo": 120.0
            },
            {
                "start_time": 28.68409090909091,
                "end_time": 29.870454545454542,
                "pitch": 76,
                "velocity": 64,
                "duration": 1.1863636363636338,
                "tempo": 120.0
            },
            {
                "start_time": 29.888636363636362,
                "end_time": 30.27272727272727,
                "pitch": 74,
                "velocity": 64,
                "duration": 0.38409090909090793,
                "tempo": 120.0
            },
            {
                "start_time": 30.28863636363636,
                "end_time": 30.472727272727273,
                "pitch": 72,
                "velocity": 64,
                "duration": 0.1840909090909122,
                "tempo": 120.0
            },
            {
                "start_time": 30.488636363636363,
                "end_time": 30.77272727272727,
                "pitch": 74,
                "velocity": 64,
                "duration": 0.2840909090909065,
                "tempo": 120.0
            },
            {
                "start_time": 30.78863636363636,
                "end_time": 31.07272727272727,
                "pitch": 76,
                "velocity": 64,
                "duration": 0.28409090909091006,
                "tempo": 120.0
            },
            {
                "start_time": 31.09090909090909,
                "end_time": 31.275,
                "pitch": 77,
                "velocity": 64,
                "duration": 0.18409090909090864,
                "tempo": 120.0
            },
            {
                "start_time": 31.29090909090909,
                "end_time": 31.674999999999997,
                "pitch": 79,
                "velocity": 64,
                "duration": 0.38409090909090793,
                "tempo": 120.0
            },
            {
                "start_time": 31.690909090909088,
                "end_time": 32.07727272727273,
                "pitch": 77,
                "velocity": 64,
                "duration": 0.38636363636364024,
                "tempo": 120.0
            },
            {
                "start_time": 32.095454545454544,
                "end_time": 33.08181818181818,
                "pitch": 76,
                "velocity": 64,
                "duration": 0.9863636363636346,
                "tempo": 120.0
            },
            {
                "start_time": 33.09772727272727,
                "end_time": 33.28181818181818,
                "pitch": 74,
                "velocity": 64,
                "duration": 0.1840909090909122,
                "tempo": 120.0
            },
            {
                "start_time": 33.29772727272727,
                "end_time": 33.38181818181818,
                "pitch": 74,
                "velocity": 64,
                "duration": 0.08409090909091077,
                "tempo": 120.0
            },
            {
                "start_time": 33.39772727272727,
                "end_time": 33.48181818181818,
                "pitch": 76,
                "velocity": 64,
                "duration": 0.08409090909090366,
                "tempo": 120.0
            },
            {
                "start_time": 33.49772727272727,
                "end_time": 33.58181818181818,
                "pitch": 77,
                "velocity": 64,
                "duration": 0.08409090909091077,
                "tempo": 120.0
            },
            {
                "start_time": 33.6,
                "end_time": 33.684090909090905,
                "pitch": 76,
                "velocity": 64,
                "duration": 0.08409090909090366,
                "tempo": 120.0
            },
            {
                "start_time": 33.699999999999996,
                "end_time": 34.08409090909091,
                "pitch": 79,
                "velocity": 64,
                "duration": 0.38409090909091503,
                "tempo": 120.0
            },
            {
                "start_time": 34.1,
                "end_time": 34.48409090909091,
                "pitch": 77,
                "velocity": 64,
                "duration": 0.38409090909090793,
                "tempo": 120.0
            },
            {
                "start_time": 34.5,
                "end_time": 34.78409090909091,
                "pitch": 76,
                "velocity": 64,
                "duration": 0.2840909090909065,
                "tempo": 120.0
            },
            {
                "start_time": 34.8,
                "end_time": 35.08409090909091,
                "pitch": 74,
                "velocity": 64,
                "duration": 0.2840909090909136,
                "tempo": 120.0
            },
            {
                "start_time": 35.1,
                "end_time": 35.28409090909091,
                "pitch": 72,
                "velocity": 64,
                "duration": 0.18409090909090509,
                "tempo": 120.0
            },
            {
                "start_time": 35.3,
                "end_time": 36.086363636363636,
                "pitch": 72,
                "velocity": 64,
                "duration": 0.7863636363636388,
                "tempo": 120.0
            },
            {
                "start_time": 36.10227272727273,
                "end_time": 36.38636363636363,
                "pitch": 79,
                "velocity": 64,
                "duration": 0.2840909090909065,
                "tempo": 120.0
            },
            {
                "start_time": 36.402272727272724,
                "end_time": 36.68636363636364,
                "pitch": 72,
                "velocity": 64,
                "duration": 0.2840909090909136,
                "tempo": 120.0
            },
            {
                "start_time": 36.70227272727273,
                "end_time": 36.88636363636363,
                "pitch": 74,
                "velocity": 64,
                "duration": 0.18409090909090509,
                "tempo": 120.0
            },
            {
                "start_time": 36.902272727272724,
                "end_time": 37.18636363636364,
                "pitch": 76,
                "velocity": 64,
                "duration": 0.2840909090909136,
                "tempo": 120.0
            },
            {
                "start_time": 37.20227272727273,
                "end_time": 37.486363636363635,
                "pitch": 77,
                "velocity": 64,
                "duration": 0.2840909090909065,
                "tempo": 120.0
            },
            {
                "start_time": 37.50454545454545,
                "end_time": 37.68863636363636,
                "pitch": 79,
                "velocity": 64,
                "duration": 0.1840909090909122,
                "tempo": 120.0
            },
            {
                "start_time": 37.70454545454545,
                "end_time": 37.98863636363636,
                "pitch": 79,
                "velocity": 64,
                "duration": 0.2840909090909065,
                "tempo": 120.0
            },
            {
                "start_time": 38.00454545454545,
                "end_time": 38.18863636363636,
                "pitch": 76,
                "velocity": 64,
                "duration": 0.1840909090909122,
                "tempo": 120.0
            },
            {
                "start_time": 38.20454545454545,
                "end_time": 38.48863636363636,
                "pitch": 74,
                "velocity": 64,
                "duration": 0.2840909090909065,
                "tempo": 120.0
            },
            {
                "start_time": 38.50454545454545,
                "end_time": 40.29090909090909,
                "pitch": 72,
                "velocity": 64,
                "duration": 1.7863636363636388,
                "tempo": 120.0
            },
            {
                "start_time": 40.309090909090905,
                "end_time": 40.39090909090909,
                "pitch": 62,
                "velocity": 64,
                "duration": 0.08181818181818556,
                "tempo": 120.0
            },
            {
                "start_time": 40.40909090909091,
                "end_time": 40.49090909090909,
                "pitch": 64,
                "velocity": 64,
                "duration": 0.08181818181818556,
                "tempo": 120.0
            },
            {
                "start_time": 40.50909090909091,
                "end_time": 40.590909090909086,
                "pitch": 65,
                "velocity": 64,
                "duration": 0.08181818181817846,
                "tempo": 120.0
            },
            {
                "start_time": 40.60909090909091,
                "end_time": 40.69090909090909,
                "pitch": 67,
                "velocity": 64,
                "duration": 0.08181818181817846,
                "tempo": 120.0
            },
            {
                "start_time": 40.709090909090904,
                "end_time": 40.79090909090909,
                "pitch": 69,
                "velocity": 64,
                "duration": 0.08181818181818556,
                "tempo": 120.0
            },
            {
                "start_time": 40.809090909090905,
                "end_time": 40.89090909090909,
                "pitch": 70,
                "velocity": 64,
                "duration": 0.08181818181818556,
                "tempo": 120.0
            },
            {
                "start_time": 40.90909090909091,
                "end_time": 41.19090909090909,
                "pitch": 72,
                "velocity": 64,
                "duration": 0.2818181818181813,
                "tempo": 120.0
            },
            {
                "start_time": 41.209090909090904,
                "end_time": 41.49318181818182,
                "pitch": 76,
                "velocity": 64,
                "duration": 0.2840909090909136,
                "tempo": 120.0
            },
            {
                "start_time": 41.50909090909091,
                "end_time": 41.69318181818181,
                "pitch": 79,
                "velocity": 64,
                "duration": 0.18409090909090509,
                "tempo": 120.0
            },
            {
                "start_time": 41.711363636363636,
                "end_time": 42.293181818181814,
                "pitch": 77,
                "velocity": 64,
                "duration": 0.5818181818181785,
                "tempo": 120.0
            },
            {
                "start_time": 42.31136363636364,
                "end_time": 42.49318181818182,
                "pitch": 76,
                "velocity": 64,
                "duration": 0.18181818181817988,
                "tempo": 120.0
            },
            {
                "start_time": 42.51136363636363,
                "end_time": 43.09318181818182,
                "pitch": 74,
                "velocity": 64,
                "duration": 0.5818181818181856,
                "tempo": 120.0
            },
            {
                "start_time": 43.111363636363635,
                "end_time": 43.293181818181814,
                "pitch": 72,
                "velocity": 64,
                "duration": 0.18181818181817988,
                "tempo": 120.0
            },
            {
                "start_time": 43.31136363636364,
                "end_time": 43.49545454545454,
                "pitch": 74,
                "velocity": 64,
                "duration": 0.18409090909090509,
                "tempo": 120.0
            },
            {
                "start_time": 43.51136363636363,
                "end_time": 43.89772727272727,
                "pitch": 76,
                "velocity": 64,
                "duration": 0.38636363636364024,
                "tempo": 120.0
            },
            {
                "start_time": 43.913636363636364,
                "end_time": 44.09772727272727,
                "pitch": 72,
                "velocity": 64,
                "duration": 0.18409090909090509,
                "tempo": 120.0
            },
            {
                "start_time": 44.11363636363636,
                "end_time": 44.29772727272727,
                "pitch": 69,
                "velocity": 64,
                "duration": 0.1840909090909122,
                "tempo": 120.0
            },
            {
                "start_time": 44.31363636363636,
                "end_time": 44.59772727272727,
                "pitch": 71,
                "velocity": 64,
                "duration": 0.2840909090909065,
                "tempo": 120.0
            },
            {
                "start_time": 44.61363636363636,
                "end_time": 44.89772727272727,
                "pitch": 72,
                "velocity": 64,
                "duration": 0.2840909090909136,
                "tempo": 120.0
            },
            {
                "start_time": 44.913636363636364,
                "end_time": 45.30681818181818,
                "pitch": 74,
                "velocity": 64,
                "duration": 0.39318181818181586,
                "tempo": 120.0
            },
            {
                "start_time": 46.215909090909086,
                "end_time": 46.3,
                "pitch": 62,
                "velocity": 64,
                "duration": 0.08409090909091077,
                "tempo": 120.0
            },
            {
                "start_time": 46.31590909090909,
                "end_time": 46.4,
                "pitch": 64,
                "velocity": 64,
                "duration": 0.08409090909091077,
                "tempo": 120.0
            },
            {
                "start_time": 46.41590909090909,
                "end_time": 46.5,
                "pitch": 64,
                "velocity": 64,
                "duration": 0.08409090909091077,
                "tempo": 120.0
            },
            {
                "start_time": 46.51590909090909,
                "end_time": 46.599999999999994,
                "pitch": 69,
                "velocity": 64,
                "duration": 0.08409090909090366,
                "tempo": 120.0
            },
            {
                "start_time": 46.61590909090909,
                "end_time": 47.3,
                "pitch": 71,
                "velocity": 64,
                "duration": 0.6840909090909051,
                "tempo": 120.0
            },
            {
                "start_time": 47.71818181818182,
                "end_time": 48.10227272727273,
                "pitch": 74,
                "velocity": 64,
                "duration": 0.38409090909090793,
                "tempo": 120.0
            },
            {
                "start_time": 48.11818181818182,
                "end_time": 49.804545454545455,
                "pitch": 79,
                "velocity": 64,
                "duration": 1.6863636363636374,
                "tempo": 120.0
            },
            {
                "start_time": 49.82272727272727,
                "end_time": 50.40454545454545,
                "pitch": 77,
                "velocity": 64,
                "duration": 0.5818181818181785,
                "tempo": 120.0
            },
            {
                "start_time": 50.42272727272727,
                "end_time": 50.804545454545455,
                "pitch": 76,
                "velocity": 64,
                "duration": 0.3818181818181827,
                "tempo": 120.0
            },
            {
                "start_time": 50.82272727272727,
                "end_time": 51.10454545454545,
                "pitch": 74,
                "velocity": 64,
                "duration": 0.2818181818181813,
                "tempo": 120.0
            },
            {
                "start_time": 51.12272727272727,
                "end_time": 51.31590909090909,
                "pitch": 72,
                "velocity": 64,
                "duration": 0.19318181818182012,
                "tempo": 120.0
            }
        ],
        "Acoustic Bass": [
            {
                "start_time": 0.013636363636363636,
                "end_time": 0.5772727272727273,
                "pitch": 30,
                "velocity": 51,
                "duration": 0.5636363636363636,
                "tempo": 120.0
            },
            {
                "start_time": 0.5931818181818181,
                "end_time": 0.9727272727272727,
                "pitch": 42,
                "velocity": 51,
                "duration": 0.3795454545454545,
                "tempo": 120.0
            },
            {
                "start_time": 0.9886363636363635,
                "end_time": 1.0727272727272728,
                "pitch": 35,
                "velocity": 51,
                "duration": 0.08409090909090922,
                "tempo": 120.0
            },
            {
                "start_time": 1.0886363636363636,
                "end_time": 1.1727272727272726,
                "pitch": 36,
                "velocity": 51,
                "duration": 0.084090909090909,
                "tempo": 120.0
            },
            {
                "start_time": 1.1886363636363635,
                "end_time": 1.3727272727272726,
                "pitch": 37,
                "velocity": 51,
                "duration": 0.18409090909090908,
                "tempo": 120.0
            },
            {
                "start_time": 1.3886363636363637,
                "end_time": 1.7727272727272727,
                "pitch": 40,
                "velocity": 51,
                "duration": 0.38409090909090904,
                "tempo": 120.0
            },
            {
                "start_time": 1.7909090909090908,
                "end_time": 1.9749999999999999,
                "pitch": 42,
                "velocity": 51,
                "duration": 0.18409090909090908,
                "tempo": 120.0
            },
            {
                "start_time": 1.9909090909090907,
                "end_time": 2.0749999999999997,
                "pitch": 45,
                "velocity": 51,
                "duration": 0.084090909090909,
                "tempo": 120.0
            },
            {
                "start_time": 2.090909090909091,
                "end_time": 2.175,
                "pitch": 47,
                "velocity": 51,
                "duration": 0.084090909090909,
                "tempo": 120.0
            },
            {
                "start_time": 2.190909090909091,
                "end_time": 2.775,
                "pitch": 31,
                "velocity": 51,
                "duration": 0.584090909090909,
                "tempo": 120.0
            },
            {
                "start_time": 2.7909090909090906,
                "end_time": 3.175,
                "pitch": 42,
                "velocity": 51,
                "duration": 0.38409090909090926,
                "tempo": 120.0
            },
            {
                "start_time": 3.190909090909091,
                "end_time": 3.777272727272727,
                "pitch": 30,
                "velocity": 51,
                "duration": 0.586363636363636,
                "tempo": 120.0
            },
            {
                "start_time": 3.7954545454545454,
                "end_time": 4.177272727272727,
                "pitch": 42,
                "velocity": 51,
                "duration": 0.3818181818181814,
                "tempo": 120.0
            },
            {
                "start_time": 4.195454545454545,
                "end_time": 4.277272727272727,
                "pitch": 35,
                "velocity": 51,
                "duration": 0.08181818181818201,
                "tempo": 120.0
            },
            {
                "start_time": 4.295454545454545,
                "end_time": 4.377272727272727,
                "pitch": 36,
                "velocity": 51,
                "duration": 0.08181818181818201,
                "tempo": 120.0
            },
            {
                "start_time": 4.3954545454545455,
                "end_time": 4.579545454545454,
                "pitch": 37,
                "velocity": 51,
                "duration": 0.18409090909090864,
                "tempo": 120.0
            },
            {
                "start_time": 4.595454545454545,
                "end_time": 4.9795454545454545,
                "pitch": 40,
                "velocity": 51,
                "duration": 0.3840909090909097,
                "tempo": 120.0
            },
            {
                "start_time": 4.997727272727272,
                "end_time": 5.179545454545455,
                "pitch": 42,
                "velocity": 51,
                "duration": 0.18181818181818254,
                "tempo": 120.0
            },
            {
                "start_time": 5.197727272727272,
                "end_time": 5.281818181818181,
                "pitch": 45,
                "velocity": 51,
                "duration": 0.084090909090909,
                "tempo": 120.0
            },
            {
                "start_time": 5.297727272727273,
                "end_time": 5.381818181818182,
                "pitch": 47,
                "velocity": 51,
                "duration": 0.084090909090909,
                "tempo": 120.0
            },
            {
                "start_time": 5.3977272727272725,
                "end_time": 5.9840909090909085,
                "pitch": 31,
                "velocity": 51,
                "duration": 0.586363636363636,
                "tempo": 120.0
            },
            {
                "start_time": 6.0,
                "end_time": 6.386363636363636,
                "pitch": 42,
                "velocity": 51,
                "duration": 0.3863636363636358,
                "tempo": 120.0
            },
            {
                "start_time": 6.402272727272727,
                "end_time": 6.993181818181818,
                "pitch": 30,
                "velocity": 51,
                "duration": 0.5909090909090908,
                "tempo": 120.0
            },
            {
                "start_time": 7.009090909090909,
                "end_time": 7.390909090909091,
                "pitch": 42,
                "velocity": 51,
                "duration": 0.38181818181818183,
                "tempo": 120.0
            },
            {
                "start_time": 7.406818181818181,
                "end_time": 7.49090909090909,
                "pitch": 35,
                "velocity": 51,
                "duration": 0.084090909090909,
                "tempo": 120.0
            },
            {
                "start_time": 7.506818181818182,
                "end_time": 7.590909090909091,
                "pitch": 36,
                "velocity": 51,
                "duration": 0.084090909090909,
                "tempo": 120.0
            },
            {
                "start_time": 7.6090909090909085,
                "end_time": 7.79090909090909,
                "pitch": 37,
                "velocity": 51,
                "duration": 0.18181818181818166,
                "tempo": 120.0
            },
            {
                "start_time": 7.809090909090909,
                "end_time": 8.195454545454545,
                "pitch": 40,
                "velocity": 51,
                "duration": 0.3863636363636367,
                "tempo": 120.0
            },
            {
                "start_time": 8.213636363636363,
                "end_time": 8.402272727272727,
                "pitch": 42,
                "velocity": 51,
                "duration": 0.18863636363636438,
                "tempo": 120.0
            },
            {
                "start_time": 8.418181818181818,
                "end_time": 8.5,
                "pitch": 45,
                "velocity": 51,
                "duration": 0.08181818181818201,
                "tempo": 120.0
            },
            {
                "start_time": 8.51590909090909,
                "end_time": 8.597727272727273,
                "pitch": 47,
                "velocity": 51,
                "duration": 0.08181818181818201,
                "tempo": 120.0
            },
            {
                "start_time": 8.61590909090909,
                "end_time": 9.197727272727272,
                "pitch": 31,
                "velocity": 51,
                "duration": 0.581818181818182,
                "tempo": 120.0
            },
            {
                "start_time": 9.213636363636363,
                "end_time": 9.597727272727273,
                "pitch": 42,
                "velocity": 51,
                "duration": 0.3840909090909097,
                "tempo": 120.0
            },
            {
                "start_time": 9.613636363636363,
                "end_time": 10.2,
                "pitch": 30,
                "velocity": 51,
                "duration": 0.586363636363636,
                "tempo": 120.0
            },
            {
                "start_time": 10.218181818181817,
                "end_time": 10.604545454545454,
                "pitch": 42,
                "velocity": 51,
                "duration": 0.3863636363636367,
                "tempo": 120.0
            },
            {
                "start_time": 10.620454545454544,
                "end_time": 10.704545454545453,
                "pitch": 35,
                "velocity": 51,
                "duration": 0.084090909090909,
                "tempo": 120.0
            },
            {
                "start_time": 10.720454545454546,
                "end_time": 10.804545454545455,
                "pitch": 36,
                "velocity": 51,
                "duration": 0.084090909090909,
                "tempo": 120.0
            },
            {
                "start_time": 10.822727272727272,
                "end_time": 11.006818181818181,
                "pitch": 37,
                "velocity": 51,
                "duration": 0.18409090909090864,
                "tempo": 120.0
            },
            {
                "start_time": 11.022727272727272,
                "end_time": 11.413636363636362,
                "pitch": 40,
                "velocity": 51,
                "duration": 0.39090909090909065,
                "tempo": 120.0
            },
            {
                "start_time": 11.429545454545455,
                "end_time": 11.618181818181817,
                "pitch": 42,
                "velocity": 51,
                "duration": 0.1886363636363626,
                "tempo": 120.0
            },
            {
                "start_time": 11.634090909090908,
                "end_time": 11.71590909090909,
                "pitch": 45,
                "velocity": 51,
                "duration": 0.08181818181818201,
                "tempo": 120.0
            },
            {
                "start_time": 11.73409090909091,
                "end_time": 11.81590909090909,
                "pitch": 47,
                "velocity": 51,
                "duration": 0.08181818181818024,
                "tempo": 120.0
            },
            {
                "start_time": 11.831818181818182,
                "end_time": 12.413636363636362,
                "pitch": 31,
                "velocity": 51,
                "duration": 0.5818181818181802,
                "tempo": 120.0
            },
            {
                "start_time": 12.429545454545455,
                "end_time": 12.81590909090909,
                "pitch": 42,
                "velocity": 51,
                "duration": 0.3863636363636349,
                "tempo": 120.0
            },
            {
                "start_time": 12.831818181818182,
                "end_time": 13.018181818181818,
                "pitch": 36,
                "velocity": 51,
                "duration": 0.18636363636363562,
                "tempo": 120.0
            },
            {
                "start_time": 13.034090909090908,
                "end_time": 13.218181818181817,
                "pitch": 36,
                "velocity": 51,
                "duration": 0.18409090909090864,
                "tempo": 120.0
            },
            {
                "start_time": 13.236363636363636,
                "end_time": 13.418181818181818,
                "pitch": 36,
                "velocity": 51,
                "duration": 0.18181818181818166,
                "tempo": 120.0
            },
            {
                "start_time": 13.436363636363636,
                "end_time": 13.518181818181818,
                "pitch": 43,
                "velocity": 51,
                "duration": 0.08181818181818201,
                "tempo": 120.0
            },
            {
                "start_time": 13.536363636363635,
                "end_time": 13.820454545454545,
                "pitch": 36,
                "velocity": 51,
                "duration": 0.28409090909091006,
                "tempo": 120.0
            },
            {
                "start_time": 13.836363636363636,
                "end_time": 14.020454545454545,
                "pitch": 38,
                "velocity": 51,
                "duration": 0.18409090909090864,
                "tempo": 120.0
            },
            {
                "start_time": 14.038636363636362,
                "end_time": 14.222727272727273,
                "pitch": 31,
                "velocity": 51,
                "duration": 0.18409090909091042,
                "tempo": 120.0
            },
            {
                "start_time": 14.238636363636363,
                "end_time": 14.322727272727272,
                "pitch": 33,
                "velocity": 51,
                "duration": 0.084090909090909,
                "tempo": 120.0
            },
            {
                "start_time": 14.34090909090909,
                "end_time": 14.827272727272726,
                "pitch": 36,
                "velocity": 51,
                "duration": 0.48636363636363633,
                "tempo": 120.0
            },
            {
                "start_time": 14.843181818181817,
                "end_time": 15.027272727272727,
                "pitch": 40,
                "velocity": 51,
                "duration": 0.18409090909091042,
                "tempo": 120.0
            },
            {
                "start_time": 15.045454545454545,
                "end_time": 15.129545454545454,
                "pitch": 43,
                "velocity": 51,
                "duration": 0.084090909090909,
                "tempo": 120.0
            },
            {
                "start_time": 15.145454545454545,
                "end_time": 15.429545454545455,
                "pitch": 36,
                "velocity": 51,
                "duration": 0.28409090909091006,
                "tempo": 120.0
            },
            {
                "start_time": 15.445454545454545,
                "end_time": 15.629545454545454,
                "pitch": 38,
                "velocity": 51,
                "duration": 0.18409090909090864,
                "tempo": 120.0
            },
            {
                "start_time": 15.645454545454545,
                "end_time": 16.03181818181818,
                "pitch": 31,
                "velocity": 51,
                "duration": 0.3863636363636367,
                "tempo": 120.0
            },
            {
                "start_time": 16.05,
                "end_time": 16.43409090909091,
                "pitch": 33,
                "velocity": 51,
                "duration": 0.38409090909090793,
                "tempo": 120.0
            },
            {
                "start_time": 16.452272727272728,
                "end_time": 16.634090909090908,
                "pitch": 33,
                "velocity": 51,
                "duration": 0.18181818181817988,
                "tempo": 120.0
            },
            {
                "start_time": 16.652272727272727,
                "end_time": 16.73409090909091,
                "pitch": 40,
                "velocity": 51,
                "duration": 0.08181818181818201,
                "tempo": 120.0
            },
            {
                "start_time": 16.752272727272725,
                "end_time": 17.036363636363635,
                "pitch": 33,
                "velocity": 51,
                "duration": 0.28409090909091006,
                "tempo": 120.0
            },
            {
                "start_time": 17.052272727272726,
                "end_time": 17.236363636363635,
                "pitch": 33,
                "velocity": 51,
                "duration": 0.18409090909090864,
                "tempo": 120.0
            },
            {
                "start_time": 17.254545454545454,
                "end_time": 17.438636363636363,
                "pitch": 38,
                "velocity": 51,
                "duration": 0.18409090909090864,
                "tempo": 120.0
            },
            {
                "start_time": 17.454545454545453,
                "end_time": 17.638636363636362,
                "pitch": 40,
                "velocity": 51,
                "duration": 0.18409090909090864,
                "tempo": 120.0
            },
            {
                "start_time": 17.654545454545453,
                "end_time": 18.04090909090909,
                "pitch": 38,
                "velocity": 51,
                "duration": 0.3863636363636367,
                "tempo": 120.0
            },
            {
                "start_time": 18.05681818181818,
                "end_time": 18.14090909090909,
                "pitch": 38,
                "velocity": 51,
                "duration": 0.08409090909091077,
                "tempo": 120.0
            },
            {
                "start_time": 18.15681818181818,
                "end_time": 18.24090909090909,
                "pitch": 43,
                "velocity": 51,
                "duration": 0.08409090909090722,
                "tempo": 120.0
            },
            {
                "start_time": 18.25681818181818,
                "end_time": 18.34090909090909,
                "pitch": 45,
                "velocity": 51,
                "duration": 0.08409090909091077,
                "tempo": 120.0
            },
            {
                "start_time": 18.35681818181818,
                "end_time": 19.243181818181817,
                "pitch": 38,
                "velocity": 51,
                "duration": 0.8863636363636367,
                "tempo": 120.0
            },
            {
                "start_time": 19.259090909090908,
                "end_time": 19.443181818181817,
                "pitch": 35,
                "velocity": 51,
                "duration": 0.18409090909090864,
                "tempo": 120.0
            },
            {
                "start_time": 19.459090909090907,
                "end_time": 19.643181818181816,
                "pitch": 35,
                "velocity": 51,
                "duration": 0.18409090909090864,
                "tempo": 120.0
            },
            {
                "start_time": 19.659090909090907,
                "end_time": 19.84318181818182,
                "pitch": 52,
                "velocity": 51,
                "duration": 0.1840909090909122,
                "tempo": 120.0
            },
            {
                "start_time": 19.861363636363635,
                "end_time": 20.045454545454543,
                "pitch": 35,
                "velocity": 51,
                "duration": 0.18409090909090864,
                "tempo": 120.0
            },
            {
                "start_time": 20.061363636363634,
                "end_time": 20.245454545454546,
                "pitch": 35,
                "velocity": 51,
                "duration": 0.1840909090909122,
                "tempo": 120.0
            },
            {
                "start_time": 20.261363636363637,
                "end_time": 20.445454545454545,
                "pitch": 35,
                "velocity": 51,
                "duration": 0.18409090909090864,
                "tempo": 120.0
            },
            {
                "start_time": 20.461363636363636,
                "end_time": 20.645454545454545,
                "pitch": 39,
                "velocity": 51,
                "duration": 0.18409090909090864,
                "tempo": 120.0
            },
            {
                "start_time": 20.661363636363635,
                "end_time": 20.745454545454546,
                "pitch": 35,
                "velocity": 51,
                "duration": 0.08409090909091077,
                "tempo": 120.0
            },
            {
                "start_time": 20.761363636363637,
                "end_time": 21.047727272727272,
                "pitch": 40,
                "velocity": 51,
                "duration": 0.28636363636363527,
                "tempo": 120.0
            },
            {
                "start_time": 21.063636363636363,
                "end_time": 21.24772727272727,
                "pitch": 35,
                "velocity": 51,
                "duration": 0.18409090909090864,
                "tempo": 120.0
            },
            {
                "start_time": 21.26590909090909,
                "end_time": 21.44772727272727,
                "pitch": 42,
                "velocity": 51,
                "duration": 0.18181818181817988,
                "tempo": 120.0
            },
            {
                "start_time": 21.46590909090909,
                "end_time": 21.647727272727273,
                "pitch": 35,
                "velocity": 51,
                "duration": 0.18181818181818343,
                "tempo": 120.0
            },
            {
                "start_time": 21.66590909090909,
                "end_time": 21.849999999999998,
                "pitch": 40,
                "velocity": 51,
                "duration": 0.18409090909090864,
                "tempo": 120.0
            },
            {
                "start_time": 21.86590909090909,
                "end_time": 22.049999999999997,
                "pitch": 35,
                "velocity": 51,
                "duration": 0.18409090909090864,
                "tempo": 120.0
            },
            {
                "start_time": 22.068181818181817,
                "end_time": 22.21818181818182,
                "pitch": 42,
                "velocity": 51,
                "duration": 0.15000000000000213,
                "tempo": 120.0
            },
            {
                "start_time": 22.23409090909091,
                "end_time": 22.349999999999998,
                "pitch": 35,
                "velocity": 51,
                "duration": 0.11590909090908852,
                "tempo": 120.0
            },
            {
                "start_time": 22.368181818181817,
                "end_time": 22.45,
                "pitch": 36,
                "velocity": 51,
                "duration": 0.08181818181818201,
                "tempo": 120.0
            },
            {
                "start_time": 22.46818181818182,
                "end_time": 22.65,
                "pitch": 37,
                "velocity": 51,
                "duration": 0.18181818181817988,
                "tempo": 120.0
            },
            {
                "start_time": 22.668181818181818,
                "end_time": 22.849999999999998,
                "pitch": 37,
                "velocity": 51,
                "duration": 0.18181818181817988,
                "tempo": 120.0
            },
            {
                "start_time": 22.868181818181817,
                "end_time": 23.052272727272726,
                "pitch": 44,
                "velocity": 51,
                "duration": 0.18409090909090864,
                "tempo": 120.0
            },
            {
                "start_time": 23.068181818181817,
                "end_time": 23.152272727272727,
                "pitch": 37,
                "velocity": 51,
                "duration": 0.08409090909091077,
                "tempo": 120.0
            },
            {
                "start_time": 23.170454545454543,
                "end_time": 23.454545454545453,
                "pitch": 42,
                "velocity": 51,
                "duration": 0.28409090909091006,
                "tempo": 120.0
            },
            {
                "start_time": 23.470454545454544,
                "end_time": 23.654545454545453,
                "pitch": 44,
                "velocity": 51,
                "duration": 0.18409090909090864,
                "tempo": 120.0
            },
            {
                "start_time": 23.670454545454543,
                "end_time": 23.854545454545452,
                "pitch": 43,
                "velocity": 51,
                "duration": 0.18409090909090864,
                "tempo": 120.0
            },
            {
                "start_time": 23.87272727272727,
                "end_time": 24.05681818181818,
                "pitch": 42,
                "velocity": 51,
                "duration": 0.18409090909090864,
                "tempo": 120.0
            },
            {
                "start_time": 24.07272727272727,
                "end_time": 24.15681818181818,
                "pitch": 44,
                "velocity": 51,
                "duration": 0.08409090909091077,
                "tempo": 120.0
            },
            {
                "start_time": 24.172727272727272,
                "end_time": 24.456818181818182,
                "pitch": 44,
                "velocity": 51,
                "duration": 0.28409090909091006,
                "tempo": 120.0
            },
            {
                "start_time": 24.472727272727273,
                "end_time": 24.65681818181818,
                "pitch": 37,
                "velocity": 51,
                "duration": 0.18409090909090864,
                "tempo": 120.0
            },
            {
                "start_time": 24.672727272727272,
                "end_time": 25.659090909090907,
                "pitch": 37,
                "velocity": 51,
                "duration": 0.9863636363636346,
                "tempo": 120.0
            },
            {
                "start_time": 25.674999999999997,
                "end_time": 26.261363636363637,
                "pitch": 30,
                "velocity": 51,
                "duration": 0.5863636363636395,
                "tempo": 120.0
            },
            {
                "start_time": 26.279545454545453,
                "end_time": 26.661363636363635,
                "pitch": 42,
                "velocity": 51,
                "duration": 0.3818181818181827,
                "tempo": 120.0
            },
            {
                "start_time": 26.679545454545455,
                "end_time": 26.761363636363637,
                "pitch": 35,
                "velocity": 51,
                "duration": 0.08181818181818201,
                "tempo": 120.0
            },
            {
                "start_time": 26.779545454545453,
                "end_time": 26.861363636363635,
                "pitch": 36,
                "velocity": 51,
                "duration": 0.08181818181818201,
                "tempo": 120.0
            },
            {
                "start_time": 26.879545454545454,
                "end_time": 27.063636363636363,
                "pitch": 37,
                "velocity": 51,
                "duration": 0.18409090909090864,
                "tempo": 120.0
            },
            {
                "start_time": 27.079545454545453,
                "end_time": 27.46363636363636,
                "pitch": 40,
                "velocity": 51,
                "duration": 0.38409090909090793,
                "tempo": 120.0
            },
            {
                "start_time": 27.48181818181818,
                "end_time": 27.663636363636364,
                "pitch": 42,
                "velocity": 51,
                "duration": 0.18181818181818343,
                "tempo": 120.0
            },
            {
                "start_time": 27.68181818181818,
                "end_time": 27.76590909090909,
                "pitch": 45,
                "velocity": 51,
                "duration": 0.08409090909091077,
                "tempo": 120.0
            },
            {
                "start_time": 27.78181818181818,
                "end_time": 27.86590909090909,
                "pitch": 47,
                "velocity": 51,
                "duration": 0.08409090909090722,
                "tempo": 120.0
            },
            {
                "start_time": 27.88181818181818,
                "end_time": 28.468181818181815,
                "pitch": 31,
                "velocity": 51,
                "duration": 0.586363636363636,
                "tempo": 120.0
            },
            {
                "start_time": 28.48409090909091,
                "end_time": 28.868181818181817,
                "pitch": 42,
                "velocity": 51,
                "duration": 0.38409090909090793,
                "tempo": 120.0
            },
            {
                "start_time": 28.884090909090908,
                "end_time": 29.470454545454544,
                "pitch": 30,
                "velocity": 51,
                "duration": 0.586363636363636,
                "tempo": 120.0
            },
            {
                "start_time": 29.486363636363635,
                "end_time": 29.870454545454542,
                "pitch": 42,
                "velocity": 51,
                "duration": 0.38409090909090793,
                "tempo": 120.0
            },
            {
                "start_time": 29.888636363636362,
                "end_time": 29.972727272727273,
                "pitch": 35,
                "velocity": 51,
                "duration": 0.08409090909091077,
                "tempo": 120.0
            },
            {
                "start_time": 29.988636363636363,
                "end_time": 30.07272727272727,
                "pitch": 36,
                "velocity": 51,
                "duration": 0.08409090909090722,
                "tempo": 120.0
            },
            {
                "start_time": 30.08863636363636,
                "end_time": 30.27272727272727,
                "pitch": 37,
                "velocity": 51,
                "duration": 0.18409090909090864,
                "tempo": 120.0
            },
            {
                "start_time": 30.28863636363636,
                "end_time": 30.672727272727272,
                "pitch": 40,
                "velocity": 51,
                "duration": 0.3840909090909115,
                "tempo": 120.0
            },
            {
                "start_time": 30.688636363636363,
                "end_time": 30.87272727272727,
                "pitch": 42,
                "velocity": 51,
                "duration": 0.18409090909090864,
                "tempo": 120.0
            },
            {
                "start_time": 30.888636363636362,
                "end_time": 30.972727272727273,
                "pitch": 45,
                "velocity": 51,
                "duration": 0.08409090909091077,
                "tempo": 120.0
            },
            {
                "start_time": 30.99090909090909,
                "end_time": 31.07272727272727,
                "pitch": 47,
                "velocity": 51,
                "duration": 0.08181818181818201,
                "tempo": 120.0
            },
            {
                "start_time": 31.09090909090909,
                "end_time": 31.674999999999997,
                "pitch": 31,
                "velocity": 51,
                "duration": 0.5840909090909072,
                "tempo": 120.0
            },
            {
                "start_time": 31.690909090909088,
                "end_time": 32.07727272727273,
                "pitch": 42,
                "velocity": 51,
                "duration": 0.38636363636364024,
                "tempo": 120.0
            },
            {
                "start_time": 32.095454545454544,
                "end_time": 32.684090909090905,
                "pitch": 30,
                "velocity": 51,
                "duration": 0.5886363636363612,
                "tempo": 120.0
            },
            {
                "start_time": 32.70227272727273,
                "end_time": 33.08181818181818,
                "pitch": 42,
                "velocity": 51,
                "duration": 0.3795454545454504,
                "tempo": 120.0
            },
            {
                "start_time": 33.09772727272727,
                "end_time": 33.18181818181818,
                "pitch": 35,
                "velocity": 51,
                "duration": 0.08409090909091077,
                "tempo": 120.0
            },
            {
                "start_time": 33.19772727272727,
                "end_time": 33.28181818181818,
                "pitch": 36,
                "velocity": 51,
                "duration": 0.08409090909091077,
                "tempo": 120.0
            },
            {
                "start_time": 33.29772727272727,
                "end_time": 33.48181818181818,
                "pitch": 37,
                "velocity": 51,
                "duration": 0.18409090909090509,
                "tempo": 120.0
            },
            {
                "start_time": 33.49772727272727,
                "end_time": 33.88409090909091,
                "pitch": 40,
                "velocity": 51,
                "duration": 0.38636363636364024,
                "tempo": 120.0
            },
            {
                "start_time": 33.9,
                "end_time": 34.08409090909091,
                "pitch": 42,
                "velocity": 51,
                "duration": 0.1840909090909122,
                "tempo": 120.0
            },
            {
                "start_time": 34.1,
                "end_time": 34.184090909090905,
                "pitch": 45,
                "velocity": 51,
                "duration": 0.08409090909090366,
                "tempo": 120.0
            },
            {
                "start_time": 34.199999999999996,
                "end_time": 34.28409090909091,
                "pitch": 47,
                "velocity": 51,
                "duration": 0.08409090909091077,
                "tempo": 120.0
            },
            {
                "start_time": 34.3,
                "end_time": 34.88409090909091,
                "pitch": 31,
                "velocity": 51,
                "duration": 0.5840909090909108,
                "tempo": 120.0
            },
            {
                "start_time": 34.9,
                "end_time": 35.28409090909091,
                "pitch": 42,
                "velocity": 51,
                "duration": 0.38409090909090793,
                "tempo": 120.0
            },
            {
                "start_time": 35.3,
                "end_time": 35.88636363636363,
                "pitch": 30,
                "velocity": 51,
                "duration": 0.586363636363636,
                "tempo": 120.0
            },
            {
                "start_time": 35.902272727272724,
                "end_time": 36.28636363636363,
                "pitch": 42,
                "velocity": 51,
                "duration": 0.38409090909090793,
                "tempo": 120.0
            },
            {
                "start_time": 36.30227272727272,
                "end_time": 36.38636363636363,
                "pitch": 35,
                "velocity": 51,
                "duration": 0.08409090909091077,
                "tempo": 120.0
            },
            {
                "start_time": 36.402272727272724,
                "end_time": 36.486363636363635,
                "pitch": 36,
                "velocity": 51,
                "duration": 0.08409090909091077,
                "tempo": 120.0
            },
            {
                "start_time": 36.502272727272725,
                "end_time": 36.68636363636364,
                "pitch": 37,
                "velocity": 51,
                "duration": 0.1840909090909122,
                "tempo": 120.0
            },
            {
                "start_time": 36.70227272727273,
                "end_time": 37.086363636363636,
                "pitch": 40,
                "velocity": 51,
                "duration": 0.38409090909090793,
                "tempo": 120.0
            },
            {
                "start_time": 37.10227272727273,
                "end_time": 37.28636363636363,
                "pitch": 42,
                "velocity": 51,
                "duration": 0.18409090909090509,
                "tempo": 120.0
            },
            {
                "start_time": 37.30227272727272,
                "end_time": 37.38636363636363,
                "pitch": 45,
                "velocity": 51,
                "duration": 0.08409090909091077,
                "tempo": 120.0
            },
            {
                "start_time": 37.404545454545456,
                "end_time": 37.486363636363635,
                "pitch": 47,
                "velocity": 51,
                "duration": 0.08181818181817846,
                "tempo": 120.0
            },
            {
                "start_time": 37.50454545454545,
                "end_time": 38.08863636363636,
                "pitch": 31,
                "velocity": 51,
                "duration": 0.5840909090909108,
                "tempo": 120.0
            },
            {
                "start_time": 38.10454545454545,
                "end_time": 38.48863636363636,
                "pitch": 42,
                "velocity": 51,
                "duration": 0.38409090909090793,
                "tempo": 120.0
            },
            {
                "start_time": 38.50454545454545,
                "end_time": 38.68863636363636,
                "pitch": 36,
                "velocity": 51,
                "duration": 0.1840909090909122,
                "tempo": 120.0
            },
            {
                "start_time": 38.70454545454545,
                "end_time": 38.88863636363636,
                "pitch": 36,
                "velocity": 51,
                "duration": 0.18409090909090509,
                "tempo": 120.0
            },
            {
                "start_time": 38.904545454545456,
                "end_time": 39.08863636363636,
                "pitch": 36,
                "velocity": 51,
                "duration": 0.18409090909090509,
                "tempo": 120.0
            },
            {
                "start_time": 39.10454545454545,
                "end_time": 39.18863636363636,
                "pitch": 43,
                "velocity": 51,
                "duration": 0.08409090909091077,
                "tempo": 120.0
            },
            {
                "start_time": 39.20454545454545,
                "end_time": 39.49090909090909,
                "pitch": 36,
                "velocity": 51,
                "duration": 0.2863636363636388,
                "tempo": 120.0
            },
            {
                "start_time": 39.50681818181818,
                "end_time": 39.69090909090909,
                "pitch": 38,
                "velocity": 51,
                "duration": 0.18409090909090509,
                "tempo": 120.0
            },
            {
                "start_time": 39.709090909090904,
                "end_time": 39.89090909090909,
                "pitch": 31,
                "velocity": 51,
                "duration": 0.18181818181818699,
                "tempo": 120.0
            },
            {
                "start_time": 39.90909090909091,
                "end_time": 39.99090909090909,
                "pitch": 33,
                "velocity": 51,
                "duration": 0.08181818181818556,
                "tempo": 120.0
            },
            {
                "start_time": 40.00909090909091,
                "end_time": 40.49090909090909,
                "pitch": 36,
                "velocity": 51,
                "duration": 0.48181818181818414,
                "tempo": 120.0
            },
            {
                "start_time": 40.50909090909091,
                "end_time": 40.69090909090909,
                "pitch": 40,
                "velocity": 51,
                "duration": 0.18181818181817988,
                "tempo": 120.0
            },
            {
                "start_time": 40.709090909090904,
                "end_time": 40.79090909090909,
                "pitch": 43,
                "velocity": 51,
                "duration": 0.08181818181818556,
                "tempo": 120.0
            },
            {
                "start_time": 40.809090909090905,
                "end_time": 41.090909090909086,
                "pitch": 36,
                "velocity": 51,
                "duration": 0.2818181818181813,
                "tempo": 120.0
            },
            {
                "start_time": 41.10909090909091,
                "end_time": 41.29090909090909,
                "pitch": 38,
                "velocity": 51,
                "duration": 0.18181818181817988,
                "tempo": 120.0
            },
            {
                "start_time": 41.309090909090905,
                "end_time": 41.69318181818181,
                "pitch": 31,
                "velocity": 51,
                "duration": 0.38409090909090793,
                "tempo": 120.0
            },
            {
                "start_time": 41.711363636363636,
                "end_time": 42.09318181818182,
                "pitch": 33,
                "velocity": 51,
                "duration": 0.3818181818181827,
                "tempo": 120.0
            },
            {
                "start_time": 42.111363636363635,
                "end_time": 42.293181818181814,
                "pitch": 33,
                "velocity": 51,
                "duration": 0.18181818181817988,
                "tempo": 120.0
            },
            {
                "start_time": 42.31136363636364,
                "end_time": 42.393181818181816,
                "pitch": 40,
                "velocity": 51,
                "duration": 0.08181818181817846,
                "tempo": 120.0
            },
            {
                "start_time": 42.41136363636363,
                "end_time": 42.69318181818181,
                "pitch": 33,
                "velocity": 51,
                "duration": 0.2818181818181813,
                "tempo": 120.0
            },
            {
                "start_time": 42.711363636363636,
                "end_time": 42.893181818181816,
                "pitch": 33,
                "velocity": 51,
                "duration": 0.18181818181817988,
                "tempo": 120.0
            },
            {
                "start_time": 42.91136363636363,
                "end_time": 43.09318181818182,
                "pitch": 38,
                "velocity": 51,
                "duration": 0.18181818181818699,
                "tempo": 120.0
            },
            {
                "start_time": 43.111363636363635,
                "end_time": 43.293181818181814,
                "pitch": 40,
                "velocity": 51,
                "duration": 0.18181818181817988,
                "tempo": 120.0
            },
            {
                "start_time": 43.31136363636364,
                "end_time": 43.69772727272727,
                "pitch": 38,
                "velocity": 51,
                "duration": 0.38636363636363313,
                "tempo": 120.0
            },
            {
                "start_time": 43.71363636363636,
                "end_time": 43.79772727272727,
                "pitch": 38,
                "velocity": 51,
                "duration": 0.08409090909091077,
                "tempo": 120.0
            },
            {
                "start_time": 43.81363636363636,
                "end_time": 43.89772727272727,
                "pitch": 43,
                "velocity": 51,
                "duration": 0.08409090909091077,
                "tempo": 120.0
            },
            {
                "start_time": 43.913636363636364,
                "end_time": 43.99772727272727,
                "pitch": 45,
                "velocity": 51,
                "duration": 0.08409090909090366,
                "tempo": 120.0
            },
            {
                "start_time": 44.01363636363636,
                "end_time": 44.89772727272727,
                "pitch": 38,
                "velocity": 51,
                "duration": 0.884090909090915,
                "tempo": 120.0
            },
            {
                "start_time": 44.913636363636364,
                "end_time": 45.10227272727273,
                "pitch": 35,
                "velocity": 51,
                "duration": 0.1886363636363626,
                "tempo": 120.0
            },
            {
                "start_time": 45.11818181818182,
                "end_time": 45.30681818181818,
                "pitch": 35,
                "velocity": 51,
                "duration": 0.1886363636363626,
                "tempo": 120.0
            },
            {
                "start_time": 45.324999999999996,
                "end_time": 45.50454545454545,
                "pitch": 52,
                "velocity": 51,
                "duration": 0.17954545454545467,
                "tempo": 120.0
            },
            {
                "start_time": 45.52045454545454,
                "end_time": 45.699999999999996,
                "pitch": 35,
                "velocity": 51,
                "duration": 0.17954545454545467,
                "tempo": 120.0
            },
            {
                "start_time": 45.715909090909086,
                "end_time": 45.9,
                "pitch": 35,
                "velocity": 51,
                "duration": 0.1840909090909122,
                "tempo": 120.0
            },
            {
                "start_time": 45.91590909090909,
                "end_time": 46.099999999999994,
                "pitch": 35,
                "velocity": 51,
                "duration": 0.18409090909090509,
                "tempo": 120.0
            },
            {
                "start_time": 46.11590909090909,
                "end_time": 46.3,
                "pitch": 39,
                "velocity": 51,
                "duration": 0.18409090909090509,
                "tempo": 120.0
            },
            {
                "start_time": 46.31590909090909,
                "end_time": 46.4,
                "pitch": 35,
                "velocity": 51,
                "duration": 0.08409090909091077,
                "tempo": 120.0
            },
            {
                "start_time": 46.41590909090909,
                "end_time": 46.699999999999996,
                "pitch": 40,
                "velocity": 51,
                "duration": 0.2840909090909065,
                "tempo": 120.0
            },
            {
                "start_time": 46.715909090909086,
                "end_time": 46.9,
                "pitch": 35,
                "velocity": 51,
                "duration": 0.1840909090909122,
                "tempo": 120.0
            },
            {
                "start_time": 46.91590909090909,
                "end_time": 47.099999999999994,
                "pitch": 42,
                "velocity": 51,
                "duration": 0.18409090909090509,
                "tempo": 120.0
            },
            {
                "start_time": 47.11590909090909,
                "end_time": 47.3,
                "pitch": 35,
                "velocity": 51,
                "duration": 0.18409090909090509,
                "tempo": 120.0
            },
            {
                "start_time": 47.31590909090909,
                "end_time": 47.5,
                "pitch": 40,
                "velocity": 51,
                "duration": 0.1840909090909122,
                "tempo": 120.0
            },
            {
                "start_time": 47.518181818181816,
                "end_time": 47.70227272727273,
                "pitch": 35,
                "velocity": 51,
                "duration": 0.1840909090909122,
                "tempo": 120.0
            },
            {
                "start_time": 47.71818181818182,
                "end_time": 47.86818181818182,
                "pitch": 42,
                "velocity": 51,
                "duration": 0.14999999999999858,
                "tempo": 120.0
            },
            {
                "start_time": 47.88636363636363,
                "end_time": 48.002272727272725,
                "pitch": 35,
                "velocity": 51,
                "duration": 0.11590909090909207,
                "tempo": 120.0
            },
            {
                "start_time": 48.018181818181816,
                "end_time": 48.10227272727273,
                "pitch": 36,
                "velocity": 51,
                "duration": 0.08409090909091077,
                "tempo": 120.0
            },
            {
                "start_time": 48.11818181818182,
                "end_time": 48.30227272727272,
                "pitch": 37,
                "velocity": 51,
                "duration": 0.18409090909090509,
                "tempo": 120.0
            },
            {
                "start_time": 48.31818181818181,
                "end_time": 48.502272727272725,
                "pitch": 37,
                "velocity": 51,
                "duration": 0.1840909090909122,
                "tempo": 120.0
            },
            {
                "start_time": 48.518181818181816,
                "end_time": 48.70227272727273,
                "pitch": 44,
                "velocity": 51,
                "duration": 0.1840909090909122,
                "tempo": 120.0
            },
            {
                "start_time": 48.71818181818182,
                "end_time": 48.80227272727272,
                "pitch": 37,
                "velocity": 51,
                "duration": 0.08409090909090366,
                "tempo": 120.0
            },
            {
                "start_time": 48.81818181818181,
                "end_time": 49.10227272727273,
                "pitch": 42,
                "velocity": 51,
                "duration": 0.2840909090909136,
                "tempo": 120.0
            },
            {
                "start_time": 49.11818181818182,
                "end_time": 49.30227272727272,
                "pitch": 44,
                "velocity": 51,
                "duration": 0.18409090909090509,
                "tempo": 120.0
            },
            {
                "start_time": 49.31818181818181,
                "end_time": 49.50454545454545,
                "pitch": 43,
                "velocity": 51,
                "duration": 0.1863636363636374,
                "tempo": 120.0
            },
            {
                "start_time": 49.52045454545454,
                "end_time": 49.70454545454545,
                "pitch": 42,
                "velocity": 51,
                "duration": 0.1840909090909122,
                "tempo": 120.0
            },
            {
                "start_time": 49.72272727272727,
                "end_time": 49.804545454545455,
                "pitch": 44,
                "velocity": 51,
                "duration": 0.08181818181818556,
                "tempo": 120.0
            },
            {
                "start_time": 49.82272727272727,
                "end_time": 50.10454545454545,
                "pitch": 44,
                "velocity": 51,
                "duration": 0.2818181818181813,
                "tempo": 120.0
            },
            {
                "start_time": 50.12272727272727,
                "end_time": 50.304545454545455,
                "pitch": 37,
                "velocity": 51,
                "duration": 0.18181818181818699,
                "tempo": 120.0
            },
            {
                "start_time": 50.32272727272727,
                "end_time": 51.31590909090909,
                "pitch": 37,
                "velocity": 51,
                "duration": 0.9931818181818173,
                "tempo": 120.0
            }
        ],
        "Trumpet": [
            {
                "start_time": 0.029545454545454545,
                "end_time": 0.21363636363636362,
                "pitch": 54,
                "velocity": 51,
                "duration": 0.18409090909090908,
                "tempo": 120.0
            },
            {
                "start_time": 0.22954545454545452,
                "end_time": 0.41363636363636364,
                "pitch": 54,
                "velocity": 51,
                "duration": 0.1840909090909091,
                "tempo": 120.0
            },
            {
                "start_time": 0.4295454545454545,
                "end_time": 0.609090909090909,
                "pitch": 54,
                "velocity": 51,
                "duration": 0.1795454545454545,
                "tempo": 120.0
            },
            {
                "start_time": 0.625,
                "end_time": 0.8068181818181818,
                "pitch": 54,
                "velocity": 51,
                "duration": 0.18181818181818177,
                "tempo": 120.0
            },
            {
                "start_time": 0.8227272727272726,
                "end_time": 1.0068181818181818,
                "pitch": 54,
                "velocity": 51,
                "duration": 0.1840909090909092,
                "tempo": 120.0
            },
            {
                "start_time": 1.0227272727272727,
                "end_time": 1.2068181818181818,
                "pitch": 54,
                "velocity": 51,
                "duration": 0.18409090909090908,
                "tempo": 120.0
            },
            {
                "start_time": 1.2227272727272727,
                "end_time": 1.4068181818181817,
                "pitch": 54,
                "velocity": 51,
                "duration": 0.18409090909090908,
                "tempo": 120.0
            },
            {
                "start_time": 1.4227272727272726,
                "end_time": 1.5068181818181818,
                "pitch": 57,
                "velocity": 51,
                "duration": 0.08409090909090922,
                "tempo": 120.0
            },
            {
                "start_time": 1.5227272727272727,
                "end_time": 1.6068181818181817,
                "pitch": 59,
                "velocity": 51,
                "duration": 0.084090909090909,
                "tempo": 120.0
            },
            {
                "start_time": 1.6227272727272726,
                "end_time": 1.8068181818181817,
                "pitch": 54,
                "velocity": 51,
                "duration": 0.18409090909090908,
                "tempo": 120.0
            },
            {
                "start_time": 1.825,
                "end_time": 2.009090909090909,
                "pitch": 54,
                "velocity": 51,
                "duration": 0.18409090909090886,
                "tempo": 120.0
            },
            {
                "start_time": 2.025,
                "end_time": 2.209090909090909,
                "pitch": 54,
                "velocity": 51,
                "duration": 0.18409090909090908,
                "tempo": 120.0
            },
            {
                "start_time": 2.225,
                "end_time": 2.309090909090909,
                "pitch": 55,
                "velocity": 51,
                "duration": 0.084090909090909,
                "tempo": 120.0
            },
            {
                "start_time": 2.3249999999999997,
                "end_time": 2.609090909090909,
                "pitch": 55,
                "velocity": 51,
                "duration": 0.28409090909090917,
                "tempo": 120.0
            },
            {
                "start_time": 2.625,
                "end_time": 2.809090909090909,
                "pitch": 55,
                "velocity": 51,
                "duration": 0.18409090909090908,
                "tempo": 120.0
            },
            {
                "start_time": 2.8249999999999997,
                "end_time": 3.009090909090909,
                "pitch": 57,
                "velocity": 51,
                "duration": 0.18409090909090908,
                "tempo": 120.0
            },
            {
                "start_time": 3.025,
                "end_time": 3.209090909090909,
                "pitch": 59,
                "velocity": 51,
                "duration": 0.18409090909090908,
                "tempo": 120.0
            },
            {
                "start_time": 3.2249999999999996,
                "end_time": 3.4090909090909087,
                "pitch": 54,
                "velocity": 51,
                "duration": 0.18409090909090908,
                "tempo": 120.0
            },
            {
                "start_time": 3.4272727272727272,
                "end_time": 3.6113636363636363,
                "pitch": 54,
                "velocity": 51,
                "duration": 0.18409090909090908,
                "tempo": 120.0
            },
            {
                "start_time": 3.627272727272727,
                "end_time": 3.811363636363636,
                "pitch": 54,
                "velocity": 51,
                "duration": 0.18409090909090908,
                "tempo": 120.0
            },
            {
                "start_time": 3.827272727272727,
                "end_time": 4.011363636363636,
                "pitch": 54,
                "velocity": 51,
                "duration": 0.18409090909090864,
                "tempo": 120.0
            },
            {
                "start_time": 4.027272727272727,
                "end_time": 4.211363636363636,
                "pitch": 54,
                "velocity": 51,
                "duration": 0.18409090909090864,
                "tempo": 120.0
            },
            {
                "start_time": 4.227272727272727,
                "end_time": 4.411363636363636,
                "pitch": 54,
                "velocity": 51,
                "duration": 0.18409090909090953,
                "tempo": 120.0
            },
            {
                "start_time": 4.427272727272727,
                "end_time": 4.613636363636363,
                "pitch": 54,
                "velocity": 51,
                "duration": 0.1863636363636365,
                "tempo": 120.0
            },
            {
                "start_time": 4.629545454545454,
                "end_time": 4.713636363636364,
                "pitch": 57,
                "velocity": 51,
                "duration": 0.08409090909090988,
                "tempo": 120.0
            },
            {
                "start_time": 4.7295454545454545,
                "end_time": 4.8136363636363635,
                "pitch": 59,
                "velocity": 51,
                "duration": 0.084090909090909,
                "tempo": 120.0
            },
            {
                "start_time": 4.829545454545454,
                "end_time": 5.013636363636364,
                "pitch": 54,
                "velocity": 51,
                "duration": 0.18409090909090953,
                "tempo": 120.0
            },
            {
                "start_time": 5.029545454545454,
                "end_time": 5.213636363636363,
                "pitch": 54,
                "velocity": 51,
                "duration": 0.18409090909090864,
                "tempo": 120.0
            },
            {
                "start_time": 5.2318181818181815,
                "end_time": 5.415909090909091,
                "pitch": 54,
                "velocity": 51,
                "duration": 0.18409090909090953,
                "tempo": 120.0
            },
            {
                "start_time": 5.431818181818182,
                "end_time": 5.515909090909091,
                "pitch": 55,
                "velocity": 51,
                "duration": 0.084090909090909,
                "tempo": 120.0
            },
            {
                "start_time": 5.531818181818181,
                "end_time": 5.8159090909090905,
                "pitch": 55,
                "velocity": 51,
                "duration": 0.28409090909090917,
                "tempo": 120.0
            },
            {
                "start_time": 5.834090909090909,
                "end_time": 6.015909090909091,
                "pitch": 55,
                "velocity": 51,
                "duration": 0.18181818181818166,
                "tempo": 120.0
            },
            {
                "start_time": 6.034090909090909,
                "end_time": 6.218181818181818,
                "pitch": 57,
                "velocity": 51,
                "duration": 0.18409090909090864,
                "tempo": 120.0
            },
            {
                "start_time": 6.2340909090909085,
                "end_time": 6.420454545454545,
                "pitch": 59,
                "velocity": 51,
                "duration": 0.1863636363636365,
                "tempo": 120.0
            },
            {
                "start_time": 6.436363636363636,
                "end_time": 6.625,
                "pitch": 54,
                "velocity": 51,
                "duration": 0.18863636363636438,
                "tempo": 120.0
            },
            {
                "start_time": 6.643181818181818,
                "end_time": 6.829545454545454,
                "pitch": 54,
                "velocity": 51,
                "duration": 0.1863636363636365,
                "tempo": 120.0
            },
            {
                "start_time": 6.845454545454545,
                "end_time": 7.0249999999999995,
                "pitch": 54,
                "velocity": 51,
                "duration": 0.17954545454545467,
                "tempo": 120.0
            },
            {
                "start_time": 7.043181818181818,
                "end_time": 7.222727272727273,
                "pitch": 54,
                "velocity": 51,
                "duration": 0.17954545454545467,
                "tempo": 120.0
            },
            {
                "start_time": 7.238636363636363,
                "end_time": 7.422727272727272,
                "pitch": 54,
                "velocity": 51,
                "duration": 0.18409090909090864,
                "tempo": 120.0
            },
            {
                "start_time": 7.4409090909090905,
                "end_time": 7.625,
                "pitch": 54,
                "velocity": 51,
                "duration": 0.18409090909090953,
                "tempo": 120.0
            },
            {
                "start_time": 7.640909090909091,
                "end_time": 7.824999999999999,
                "pitch": 54,
                "velocity": 51,
                "duration": 0.18409090909090864,
                "tempo": 120.0
            },
            {
                "start_time": 7.840909090909091,
                "end_time": 7.925,
                "pitch": 57,
                "velocity": 51,
                "duration": 0.084090909090909,
                "tempo": 120.0
            },
            {
                "start_time": 7.9409090909090905,
                "end_time": 8.025,
                "pitch": 59,
                "velocity": 51,
                "duration": 0.08409090909090988,
                "tempo": 120.0
            },
            {
                "start_time": 8.043181818181818,
                "end_time": 8.229545454545454,
                "pitch": 54,
                "velocity": 51,
                "duration": 0.18636363636363562,
                "tempo": 120.0
            },
            {
                "start_time": 8.247727272727273,
                "end_time": 8.436363636363636,
                "pitch": 54,
                "velocity": 51,
                "duration": 0.1886363636363626,
                "tempo": 120.0
            },
            {
                "start_time": 8.452272727272726,
                "end_time": 8.631818181818181,
                "pitch": 54,
                "velocity": 51,
                "duration": 0.17954545454545467,
                "tempo": 120.0
            },
            {
                "start_time": 8.647727272727272,
                "end_time": 8.729545454545454,
                "pitch": 55,
                "velocity": 51,
                "duration": 0.08181818181818201,
                "tempo": 120.0
            },
            {
                "start_time": 8.745454545454544,
                "end_time": 9.029545454545454,
                "pitch": 55,
                "velocity": 51,
                "duration": 0.28409090909091006,
                "tempo": 120.0
            },
            {
                "start_time": 9.045454545454545,
                "end_time": 9.229545454545454,
                "pitch": 55,
                "velocity": 51,
                "duration": 0.18409090909090864,
                "tempo": 120.0
            },
            {
                "start_time": 9.247727272727273,
                "end_time": 9.429545454545455,
                "pitch": 57,
                "velocity": 51,
                "duration": 0.18181818181818166,
                "tempo": 120.0
            },
            {
                "start_time": 9.447727272727272,
                "end_time": 9.629545454545454,
                "pitch": 59,
                "velocity": 51,
                "duration": 0.18181818181818166,
                "tempo": 120.0
            },
            {
                "start_time": 9.647727272727272,
                "end_time": 9.831818181818182,
                "pitch": 54,
                "velocity": 51,
                "duration": 0.18409090909091042,
                "tempo": 120.0
            },
            {
                "start_time": 9.847727272727273,
                "end_time": 10.034090909090908,
                "pitch": 54,
                "velocity": 51,
                "duration": 0.18636363636363562,
                "tempo": 120.0
            },
            {
                "start_time": 10.049999999999999,
                "end_time": 10.23409090909091,
                "pitch": 54,
                "velocity": 51,
                "duration": 0.18409090909091042,
                "tempo": 120.0
            },
            {
                "start_time": 10.252272727272727,
                "end_time": 10.436363636363636,
                "pitch": 54,
                "velocity": 51,
                "duration": 0.18409090909090864,
                "tempo": 120.0
            },
            {
                "start_time": 10.452272727272726,
                "end_time": 10.636363636363637,
                "pitch": 54,
                "velocity": 51,
                "duration": 0.18409090909091042,
                "tempo": 120.0
            },
            {
                "start_time": 10.654545454545454,
                "end_time": 10.838636363636363,
                "pitch": 54,
                "velocity": 51,
                "duration": 0.18409090909090864,
                "tempo": 120.0
            },
            {
                "start_time": 10.854545454545454,
                "end_time": 11.040909090909091,
                "pitch": 54,
                "velocity": 51,
                "duration": 0.1863636363636374,
                "tempo": 120.0
            },
            {
                "start_time": 11.056818181818182,
                "end_time": 11.14090909090909,
                "pitch": 57,
                "velocity": 51,
                "duration": 0.084090909090909,
                "tempo": 120.0
            },
            {
                "start_time": 11.156818181818181,
                "end_time": 11.24090909090909,
                "pitch": 59,
                "velocity": 51,
                "duration": 0.084090909090909,
                "tempo": 120.0
            },
            {
                "start_time": 11.259090909090908,
                "end_time": 11.447727272727272,
                "pitch": 54,
                "velocity": 51,
                "duration": 0.18863636363636438,
                "tempo": 120.0
            },
            {
                "start_time": 11.463636363636363,
                "end_time": 11.652272727272727,
                "pitch": 54,
                "velocity": 51,
                "duration": 0.18863636363636438,
                "tempo": 120.0
            },
            {
                "start_time": 11.668181818181818,
                "end_time": 11.847727272727273,
                "pitch": 54,
                "velocity": 51,
                "duration": 0.17954545454545467,
                "tempo": 120.0
            },
            {
                "start_time": 11.863636363636363,
                "end_time": 11.945454545454545,
                "pitch": 55,
                "velocity": 51,
                "duration": 0.08181818181818201,
                "tempo": 120.0
            },
            {
                "start_time": 11.961363636363636,
                "end_time": 12.245454545454544,
                "pitch": 55,
                "velocity": 51,
                "duration": 0.2840909090909083,
                "tempo": 120.0
            },
            {
                "start_time": 12.261363636363635,
                "end_time": 12.447727272727272,
                "pitch": 55,
                "velocity": 51,
                "duration": 0.1863636363636374,
                "tempo": 120.0
            },
            {
                "start_time": 12.463636363636363,
                "end_time": 12.647727272727272,
                "pitch": 57,
                "velocity": 51,
                "duration": 0.18409090909090864,
                "tempo": 120.0
            },
            {
                "start_time": 12.665909090909091,
                "end_time": 12.85,
                "pitch": 59,
                "velocity": 51,
                "duration": 0.18409090909090864,
                "tempo": 120.0
            },
            {
                "start_time": 12.86590909090909,
                "end_time": 13.049999999999999,
                "pitch": 60,
                "velocity": 51,
                "duration": 0.18409090909090864,
                "tempo": 120.0
            },
            {
                "start_time": 13.068181818181818,
                "end_time": 13.252272727272727,
                "pitch": 60,
                "velocity": 51,
                "duration": 0.18409090909090864,
                "tempo": 120.0
            },
            {
                "start_time": 13.268181818181818,
                "end_time": 13.452272727272726,
                "pitch": 60,
                "velocity": 51,
                "duration": 0.18409090909090864,
                "tempo": 120.0
            },
            {
                "start_time": 13.468181818181817,
                "end_time": 13.652272727272727,
                "pitch": 60,
                "velocity": 51,
                "duration": 0.18409090909091042,
                "tempo": 120.0
            },
            {
                "start_time": 13.668181818181818,
                "end_time": 13.854545454545454,
                "pitch": 60,
                "velocity": 51,
                "duration": 0.18636363636363562,
                "tempo": 120.0
            },
            {
                "start_time": 13.870454545454544,
                "end_time": 14.054545454545455,
                "pitch": 60,
                "velocity": 51,
                "duration": 0.18409090909091042,
                "tempo": 120.0
            },
            {
                "start_time": 14.072727272727272,
                "end_time": 14.256818181818181,
                "pitch": 65,
                "velocity": 51,
                "duration": 0.18409090909090864,
                "tempo": 120.0
            },
            {
                "start_time": 14.272727272727272,
                "end_time": 14.45681818181818,
                "pitch": 67,
                "velocity": 51,
                "duration": 0.18409090909090864,
                "tempo": 120.0
            },
            {
                "start_time": 14.475,
                "end_time": 14.659090909090908,
                "pitch": 60,
                "velocity": 51,
                "duration": 0.18409090909090864,
                "tempo": 120.0
            },
            {
                "start_time": 14.674999999999999,
                "end_time": 14.861363636363636,
                "pitch": 60,
                "velocity": 51,
                "duration": 0.1863636363636374,
                "tempo": 120.0
            },
            {
                "start_time": 14.877272727272727,
                "end_time": 15.061363636363636,
                "pitch": 60,
                "velocity": 51,
                "duration": 0.18409090909090864,
                "tempo": 120.0
            },
            {
                "start_time": 15.079545454545453,
                "end_time": 15.263636363636364,
                "pitch": 60,
                "velocity": 51,
                "duration": 0.18409090909091042,
                "tempo": 120.0
            },
            {
                "start_time": 15.279545454545454,
                "end_time": 15.463636363636363,
                "pitch": 60,
                "velocity": 51,
                "duration": 0.18409090909090864,
                "tempo": 120.0
            },
            {
                "start_time": 15.479545454545454,
                "end_time": 15.663636363636362,
                "pitch": 60,
                "velocity": 51,
                "duration": 0.18409090909090864,
                "tempo": 120.0
            },
            {
                "start_time": 15.679545454545453,
                "end_time": 15.863636363636363,
                "pitch": 60,
                "velocity": 51,
                "duration": 0.18409090909091042,
                "tempo": 120.0
            },
            {
                "start_time": 15.881818181818181,
                "end_time": 15.96590909090909,
                "pitch": 60,
                "velocity": 51,
                "duration": 0.084090909090909,
                "tempo": 120.0
            },
            {
                "start_time": 15.98181818181818,
                "end_time": 15.997727272727271,
                "pitch": 61,
                "velocity": 51,
                "duration": 0.01590909090909065,
                "tempo": 120.0
            },
            {
                "start_time": 16.01590909090909,
                "end_time": 16.06590909090909,
                "pitch": 62,
                "velocity": 51,
                "duration": 0.05000000000000071,
                "tempo": 120.0
            },
            {
                "start_time": 16.081818181818182,
                "end_time": 16.26590909090909,
                "pitch": 62,
                "velocity": 51,
                "duration": 0.18409090909090864,
                "tempo": 120.0
            },
            {
                "start_time": 16.28409090909091,
                "end_time": 16.46818181818182,
                "pitch": 62,
                "velocity": 51,
                "duration": 0.18409090909090864,
                "tempo": 120.0
            },
            {
                "start_time": 16.48409090909091,
                "end_time": 16.668181818181818,
                "pitch": 62,
                "velocity": 51,
                "duration": 0.18409090909090864,
                "tempo": 120.0
            },
            {
                "start_time": 16.68409090909091,
                "end_time": 16.868181818181817,
                "pitch": 69,
                "velocity": 51,
                "duration": 0.18409090909090864,
                "tempo": 120.0
            },
            {
                "start_time": 16.884090909090908,
                "end_time": 17.070454545454545,
                "pitch": 62,
                "velocity": 51,
                "duration": 0.1863636363636374,
                "tempo": 120.0
            },
            {
                "start_time": 17.086363636363636,
                "end_time": 17.270454545454545,
                "pitch": 62,
                "velocity": 51,
                "duration": 0.18409090909090864,
                "tempo": 120.0
            },
            {
                "start_time": 17.288636363636364,
                "end_time": 17.470454545454544,
                "pitch": 62,
                "velocity": 51,
                "duration": 0.18181818181817988,
                "tempo": 120.0
            },
            {
                "start_time": 17.488636363636363,
                "end_time": 17.570454545454545,
                "pitch": 57,
                "velocity": 51,
                "duration": 0.08181818181818201,
                "tempo": 120.0
            },
            {
                "start_time": 17.58863636363636,
                "end_time": 17.87272727272727,
                "pitch": 62,
                "velocity": 51,
                "duration": 0.28409090909091006,
                "tempo": 120.0
            },
            {
                "start_time": 17.888636363636362,
                "end_time": 18.07272727272727,
                "pitch": 62,
                "velocity": 51,
                "duration": 0.18409090909090864,
                "tempo": 120.0
            },
            {
                "start_time": 18.09090909090909,
                "end_time": 18.272727272727273,
                "pitch": 62,
                "velocity": 51,
                "duration": 0.18181818181818343,
                "tempo": 120.0
            },
            {
                "start_time": 18.29090909090909,
                "end_time": 18.37272727272727,
                "pitch": 69,
                "velocity": 51,
                "duration": 0.08181818181818201,
                "tempo": 120.0
            },
            {
                "start_time": 18.39090909090909,
                "end_time": 18.672727272727272,
                "pitch": 62,
                "velocity": 51,
                "duration": 0.2818181818181813,
                "tempo": 120.0
            },
            {
                "start_time": 18.69090909090909,
                "end_time": 18.87272727272727,
                "pitch": 62,
                "velocity": 51,
                "duration": 0.18181818181817988,
                "tempo": 120.0
            },
            {
                "start_time": 18.89090909090909,
                "end_time": 19.075,
                "pitch": 62,
                "velocity": 51,
                "duration": 0.18409090909090864,
                "tempo": 120.0
            },
            {
                "start_time": 19.09090909090909,
                "end_time": 19.175,
                "pitch": 62,
                "velocity": 51,
                "duration": 0.08409090909091077,
                "tempo": 120.0
            },
            {
                "start_time": 19.193181818181817,
                "end_time": 19.277272727272727,
                "pitch": 60,
                "velocity": 51,
                "duration": 0.08409090909091077,
                "tempo": 120.0
            },
            {
                "start_time": 19.293181818181818,
                "end_time": 19.477272727272727,
                "pitch": 59,
                "velocity": 51,
                "duration": 0.18409090909090864,
                "tempo": 120.0
            },
            {
                "start_time": 19.493181818181817,
                "end_time": 19.677272727272726,
                "pitch": 59,
                "velocity": 51,
                "duration": 0.18409090909090864,
                "tempo": 120.0
            },
            {
                "start_time": 19.693181818181817,
                "end_time": 19.877272727272725,
                "pitch": 59,
                "velocity": 51,
                "duration": 0.18409090909090864,
                "tempo": 120.0
            },
            {
                "start_time": 19.895454545454545,
                "end_time": 20.079545454545453,
                "pitch": 59,
                "velocity": 51,
                "duration": 0.18409090909090864,
                "tempo": 120.0
            },
            {
                "start_time": 20.095454545454544,
                "end_time": 20.279545454545453,
                "pitch": 66,
                "velocity": 51,
                "duration": 0.18409090909090864,
                "tempo": 120.0
            },
            {
                "start_time": 20.295454545454543,
                "end_time": 20.379545454545454,
                "pitch": 59,
                "velocity": 51,
                "duration": 0.08409090909091077,
                "tempo": 120.0
            },
            {
                "start_time": 20.395454545454545,
                "end_time": 20.679545454545455,
                "pitch": 59,
                "velocity": 51,
                "duration": 0.28409090909091006,
                "tempo": 120.0
            },
            {
                "start_time": 20.695454545454545,
                "end_time": 20.879545454545454,
                "pitch": 59,
                "velocity": 51,
                "duration": 0.18409090909090864,
                "tempo": 120.0
            },
            {
                "start_time": 20.895454545454545,
                "end_time": 21.079545454545453,
                "pitch": 61,
                "velocity": 51,
                "duration": 0.18409090909090864,
                "tempo": 120.0
            },
            {
                "start_time": 21.097727272727273,
                "end_time": 21.28181818181818,
                "pitch": 59,
                "velocity": 51,
                "duration": 0.18409090909090864,
                "tempo": 120.0
            },
            {
                "start_time": 21.297727272727272,
                "end_time": 21.48181818181818,
                "pitch": 59,
                "velocity": 51,
                "duration": 0.18409090909090864,
                "tempo": 120.0
            },
            {
                "start_time": 21.49772727272727,
                "end_time": 21.68181818181818,
                "pitch": 59,
                "velocity": 51,
                "duration": 0.18409090909090864,
                "tempo": 120.0
            },
            {
                "start_time": 21.69772727272727,
                "end_time": 21.884090909090908,
                "pitch": 64,
                "velocity": 51,
                "duration": 0.1863636363636374,
                "tempo": 120.0
            },
            {
                "start_time": 21.9,
                "end_time": 22.084090909090907,
                "pitch": 59,
                "velocity": 51,
                "duration": 0.18409090909090864,
                "tempo": 120.0
            },
            {
                "start_time": 22.099999999999998,
                "end_time": 22.284090909090907,
                "pitch": 59,
                "velocity": 51,
                "duration": 0.18409090909090864,
                "tempo": 120.0
            },
            {
                "start_time": 22.299999999999997,
                "end_time": 22.48409090909091,
                "pitch": 59,
                "velocity": 51,
                "duration": 0.1840909090909122,
                "tempo": 120.0
            },
            {
                "start_time": 22.5,
                "end_time": 22.68409090909091,
                "pitch": 61,
                "velocity": 51,
                "duration": 0.18409090909090864,
                "tempo": 120.0
            },
            {
                "start_time": 22.7,
                "end_time": 22.884090909090908,
                "pitch": 61,
                "velocity": 51,
                "duration": 0.18409090909090864,
                "tempo": 120.0
            },
            {
                "start_time": 22.902272727272727,
                "end_time": 23.086363636363636,
                "pitch": 68,
                "velocity": 51,
                "duration": 0.18409090909090864,
                "tempo": 120.0
            },
            {
                "start_time": 23.102272727272727,
                "end_time": 23.286363636363635,
                "pitch": 61,
                "velocity": 51,
                "duration": 0.18409090909090864,
                "tempo": 120.0
            },
            {
                "start_time": 23.304545454545455,
                "end_time": 23.486363636363635,
                "pitch": 61,
                "velocity": 51,
                "duration": 0.18181818181817988,
                "tempo": 120.0
            },
            {
                "start_time": 23.504545454545454,
                "end_time": 23.686363636363634,
                "pitch": 61,
                "velocity": 51,
                "duration": 0.18181818181817988,
                "tempo": 120.0
            },
            {
                "start_time": 23.704545454545453,
                "end_time": 23.888636363636362,
                "pitch": 66,
                "velocity": 51,
                "duration": 0.18409090909090864,
                "tempo": 120.0
            },
            {
                "start_time": 23.904545454545453,
                "end_time": 23.988636363636363,
                "pitch": 61,
                "velocity": 51,
                "duration": 0.08409090909091077,
                "tempo": 120.0
            },
            {
                "start_time": 24.00681818181818,
                "end_time": 24.288636363636364,
                "pitch": 61,
                "velocity": 51,
                "duration": 0.28181818181818485,
                "tempo": 120.0
            },
            {
                "start_time": 24.30681818181818,
                "end_time": 24.488636363636363,
                "pitch": 61,
                "velocity": 51,
                "duration": 0.18181818181818343,
                "tempo": 120.0
            },
            {
                "start_time": 24.50681818181818,
                "end_time": 24.688636363636363,
                "pitch": 61,
                "velocity": 51,
                "duration": 0.18181818181818343,
                "tempo": 120.0
            },
            {
                "start_time": 24.706818181818182,
                "end_time": 24.89090909090909,
                "pitch": 61,
                "velocity": 51,
                "duration": 0.18409090909090864,
                "tempo": 120.0
            },
            {
                "start_time": 24.90681818181818,
                "end_time": 25.09090909090909,
                "pitch": 61,
                "velocity": 51,
                "duration": 0.18409090909090864,
                "tempo": 120.0
            },
            {
                "start_time": 25.10681818181818,
                "end_time": 25.293181818181818,
                "pitch": 61,
                "velocity": 51,
                "duration": 0.1863636363636374,
                "tempo": 120.0
            },
            {
                "start_time": 25.30909090909091,
                "end_time": 25.493181818181817,
                "pitch": 61,
                "velocity": 51,
                "duration": 0.18409090909090864,
                "tempo": 120.0
            },
            {
                "start_time": 25.509090909090908,
                "end_time": 25.693181818181817,
                "pitch": 61,
                "velocity": 51,
                "duration": 0.18409090909090864,
                "tempo": 120.0
            },
            {
                "start_time": 25.709090909090907,
                "end_time": 25.893181818181816,
                "pitch": 54,
                "velocity": 51,
                "duration": 0.18409090909090864,
                "tempo": 120.0
            },
            {
                "start_time": 25.911363636363635,
                "end_time": 26.095454545454544,
                "pitch": 54,
                "velocity": 51,
                "duration": 0.18409090909090864,
                "tempo": 120.0
            },
            {
                "start_time": 26.111363636363635,
                "end_time": 26.295454545454543,
                "pitch": 54,
                "velocity": 51,
                "duration": 0.18409090909090864,
                "tempo": 120.0
            },
            {
                "start_time": 26.311363636363634,
                "end_time": 26.495454545454542,
                "pitch": 54,
                "velocity": 51,
                "duration": 0.18409090909090864,
                "tempo": 120.0
            },
            {
                "start_time": 26.511363636363637,
                "end_time": 26.695454545454545,
                "pitch": 54,
                "velocity": 51,
                "duration": 0.18409090909090864,
                "tempo": 120.0
            },
            {
                "start_time": 26.711363636363636,
                "end_time": 26.895454545454545,
                "pitch": 54,
                "velocity": 51,
                "duration": 0.18409090909090864,
                "tempo": 120.0
            },
            {
                "start_time": 26.911363636363635,
                "end_time": 27.095454545454544,
                "pitch": 54,
                "velocity": 51,
                "duration": 0.18409090909090864,
                "tempo": 120.0
            },
            {
                "start_time": 27.113636363636363,
                "end_time": 27.19772727272727,
                "pitch": 57,
                "velocity": 51,
                "duration": 0.08409090909090722,
                "tempo": 120.0
            },
            {
                "start_time": 27.21363636363636,
                "end_time": 27.297727272727272,
                "pitch": 59,
                "velocity": 51,
                "duration": 0.08409090909091077,
                "tempo": 120.0
            },
            {
                "start_time": 27.313636363636363,
                "end_time": 27.49772727272727,
                "pitch": 54,
                "velocity": 51,
                "duration": 0.18409090909090864,
                "tempo": 120.0
            },
            {
                "start_time": 27.513636363636362,
                "end_time": 27.69772727272727,
                "pitch": 54,
                "velocity": 51,
                "duration": 0.18409090909090864,
                "tempo": 120.0
            },
            {
                "start_time": 27.71363636363636,
                "end_time": 27.9,
                "pitch": 54,
                "velocity": 51,
                "duration": 0.1863636363636374,
                "tempo": 120.0
            },
            {
                "start_time": 27.91590909090909,
                "end_time": 28.0,
                "pitch": 55,
                "velocity": 51,
                "duration": 0.08409090909091077,
                "tempo": 120.0
            },
            {
                "start_time": 28.01590909090909,
                "end_time": 28.299999999999997,
                "pitch": 55,
                "velocity": 51,
                "duration": 0.2840909090909065,
                "tempo": 120.0
            },
            {
                "start_time": 28.318181818181817,
                "end_time": 28.5,
                "pitch": 55,
                "velocity": 51,
                "duration": 0.18181818181818343,
                "tempo": 120.0
            },
            {
                "start_time": 28.518181818181816,
                "end_time": 28.7,
                "pitch": 57,
                "velocity": 51,
                "duration": 0.18181818181818343,
                "tempo": 120.0
            },
            {
                "start_time": 28.718181818181815,
                "end_time": 28.9,
                "pitch": 59,
                "velocity": 51,
                "duration": 0.18181818181818343,
                "tempo": 120.0
            },
            {
                "start_time": 28.918181818181818,
                "end_time": 29.102272727272727,
                "pitch": 54,
                "velocity": 51,
                "duration": 0.18409090909090864,
                "tempo": 120.0
            },
            {
                "start_time": 29.118181818181817,
                "end_time": 29.302272727272726,
                "pitch": 54,
                "velocity": 51,
                "duration": 0.18409090909090864,
                "tempo": 120.0
            },
            {
                "start_time": 29.320454545454545,
                "end_time": 29.502272727272725,
                "pitch": 54,
                "velocity": 51,
                "duration": 0.18181818181817988,
                "tempo": 120.0
            },
            {
                "start_time": 29.520454545454545,
                "end_time": 29.702272727272724,
                "pitch": 54,
                "velocity": 51,
                "duration": 0.18181818181817988,
                "tempo": 120.0
            },
            {
                "start_time": 29.720454545454544,
                "end_time": 29.904545454545453,
                "pitch": 54,
                "velocity": 51,
                "duration": 0.18409090909090864,
                "tempo": 120.0
            },
            {
                "start_time": 29.920454545454543,
                "end_time": 30.10681818181818,
                "pitch": 54,
                "velocity": 51,
                "duration": 0.1863636363636374,
                "tempo": 120.0
            },
            {
                "start_time": 30.12272727272727,
                "end_time": 30.30681818181818,
                "pitch": 54,
                "velocity": 51,
                "duration": 0.18409090909090864,
                "tempo": 120.0
            },
            {
                "start_time": 30.32272727272727,
                "end_time": 30.40681818181818,
                "pitch": 57,
                "velocity": 51,
                "duration": 0.08409090909091077,
                "tempo": 120.0
            },
            {
                "start_time": 30.422727272727272,
                "end_time": 30.50681818181818,
                "pitch": 59,
                "velocity": 51,
                "duration": 0.08409090909090722,
                "tempo": 120.0
            },
            {
                "start_time": 30.52272727272727,
                "end_time": 30.706818181818182,
                "pitch": 54,
                "velocity": 51,
                "duration": 0.1840909090909122,
                "tempo": 120.0
            },
            {
                "start_time": 30.722727272727273,
                "end_time": 30.90681818181818,
                "pitch": 54,
                "velocity": 51,
                "duration": 0.18409090909090864,
                "tempo": 120.0
            },
            {
                "start_time": 30.922727272727272,
                "end_time": 31.10681818181818,
                "pitch": 54,
                "velocity": 51,
                "duration": 0.18409090909090864,
                "tempo": 120.0
            },
            {
                "start_time": 31.125,
                "end_time": 31.206818181818182,
                "pitch": 55,
                "velocity": 51,
                "duration": 0.08181818181818201,
                "tempo": 120.0
            },
            {
                "start_time": 31.224999999999998,
                "end_time": 31.509090909090908,
                "pitch": 55,
                "velocity": 51,
                "duration": 0.28409090909091006,
                "tempo": 120.0
            },
            {
                "start_time": 31.525,
                "end_time": 31.709090909090907,
                "pitch": 55,
                "velocity": 51,
                "duration": 0.18409090909090864,
                "tempo": 120.0
            },
            {
                "start_time": 31.724999999999998,
                "end_time": 31.909090909090907,
                "pitch": 57,
                "velocity": 51,
                "duration": 0.18409090909090864,
                "tempo": 120.0
            },
            {
                "start_time": 31.927272727272726,
                "end_time": 32.111363636363635,
                "pitch": 59,
                "velocity": 51,
                "duration": 0.18409090909090864,
                "tempo": 120.0
            },
            {
                "start_time": 32.12954545454545,
                "end_time": 32.31590909090909,
                "pitch": 54,
                "velocity": 51,
                "duration": 0.1863636363636374,
                "tempo": 120.0
            },
            {
                "start_time": 32.33409090909091,
                "end_time": 32.52272727272727,
                "pitch": 54,
                "velocity": 51,
                "duration": 0.1886363636363626,
                "tempo": 120.0
            },
            {
                "start_time": 32.538636363636364,
                "end_time": 32.71818181818182,
                "pitch": 54,
                "velocity": 51,
                "duration": 0.17954545454545467,
                "tempo": 120.0
            },
            {
                "start_time": 32.73409090909091,
                "end_time": 32.913636363636364,
                "pitch": 54,
                "velocity": 51,
                "duration": 0.17954545454545467,
                "tempo": 120.0
            },
            {
                "start_time": 32.93181818181818,
                "end_time": 33.11363636363636,
                "pitch": 54,
                "velocity": 51,
                "duration": 0.18181818181817988,
                "tempo": 120.0
            },
            {
                "start_time": 33.13181818181818,
                "end_time": 33.31363636363636,
                "pitch": 54,
                "velocity": 51,
                "duration": 0.18181818181817988,
                "tempo": 120.0
            },
            {
                "start_time": 33.33181818181818,
                "end_time": 33.51590909090909,
                "pitch": 54,
                "velocity": 51,
                "duration": 0.1840909090909122,
                "tempo": 120.0
            },
            {
                "start_time": 33.53181818181818,
                "end_time": 33.61590909090909,
                "pitch": 57,
                "velocity": 51,
                "duration": 0.08409090909091077,
                "tempo": 120.0
            },
            {
                "start_time": 33.63409090909091,
                "end_time": 33.715909090909086,
                "pitch": 59,
                "velocity": 51,
                "duration": 0.08181818181817846,
                "tempo": 120.0
            },
            {
                "start_time": 33.73409090909091,
                "end_time": 33.91590909090909,
                "pitch": 54,
                "velocity": 51,
                "duration": 0.18181818181817988,
                "tempo": 120.0
            },
            {
                "start_time": 33.934090909090905,
                "end_time": 34.11590909090909,
                "pitch": 54,
                "velocity": 51,
                "duration": 0.18181818181818699,
                "tempo": 120.0
            },
            {
                "start_time": 34.13409090909091,
                "end_time": 34.31590909090909,
                "pitch": 54,
                "velocity": 51,
                "duration": 0.18181818181817988,
                "tempo": 120.0
            },
            {
                "start_time": 34.33409090909091,
                "end_time": 34.41590909090909,
                "pitch": 55,
                "velocity": 51,
                "duration": 0.08181818181817846,
                "tempo": 120.0
            },
            {
                "start_time": 34.434090909090905,
                "end_time": 34.715909090909086,
                "pitch": 55,
                "velocity": 51,
                "duration": 0.2818181818181813,
                "tempo": 120.0
            },
            {
                "start_time": 34.73409090909091,
                "end_time": 34.91590909090909,
                "pitch": 55,
                "velocity": 51,
                "duration": 0.18181818181817988,
                "tempo": 120.0
            },
            {
                "start_time": 34.934090909090905,
                "end_time": 35.11590909090909,
                "pitch": 57,
                "velocity": 51,
                "duration": 0.18181818181818699,
                "tempo": 120.0
            },
            {
                "start_time": 35.13409090909091,
                "end_time": 35.31590909090909,
                "pitch": 59,
                "velocity": 51,
                "duration": 0.18181818181817988,
                "tempo": 120.0
            },
            {
                "start_time": 35.33409090909091,
                "end_time": 35.518181818181816,
                "pitch": 54,
                "velocity": 51,
                "duration": 0.18409090909090509,
                "tempo": 120.0
            },
            {
                "start_time": 35.53409090909091,
                "end_time": 35.720454545454544,
                "pitch": 54,
                "velocity": 51,
                "duration": 0.1863636363636374,
                "tempo": 120.0
            },
            {
                "start_time": 35.736363636363635,
                "end_time": 35.92045454545455,
                "pitch": 54,
                "velocity": 51,
                "duration": 0.1840909090909122,
                "tempo": 120.0
            },
            {
                "start_time": 35.93636363636364,
                "end_time": 36.12045454545454,
                "pitch": 54,
                "velocity": 51,
                "duration": 0.18409090909090509,
                "tempo": 120.0
            },
            {
                "start_time": 36.13636363636363,
                "end_time": 36.320454545454545,
                "pitch": 54,
                "velocity": 51,
                "duration": 0.1840909090909122,
                "tempo": 120.0
            },
            {
                "start_time": 36.336363636363636,
                "end_time": 36.52045454545454,
                "pitch": 54,
                "velocity": 51,
                "duration": 0.18409090909090509,
                "tempo": 120.0
            },
            {
                "start_time": 36.53636363636363,
                "end_time": 36.720454545454544,
                "pitch": 54,
                "velocity": 51,
                "duration": 0.1840909090909122,
                "tempo": 120.0
            },
            {
                "start_time": 36.736363636363635,
                "end_time": 36.820454545454545,
                "pitch": 57,
                "velocity": 51,
                "duration": 0.08409090909091077,
                "tempo": 120.0
            },
            {
                "start_time": 36.836363636363636,
                "end_time": 36.92045454545455,
                "pitch": 59,
                "velocity": 51,
                "duration": 0.08409090909091077,
                "tempo": 120.0
            },
            {
                "start_time": 36.93636363636364,
                "end_time": 37.12045454545454,
                "pitch": 54,
                "velocity": 51,
                "duration": 0.18409090909090509,
                "tempo": 120.0
            },
            {
                "start_time": 37.13636363636363,
                "end_time": 37.320454545454545,
                "pitch": 54,
                "velocity": 51,
                "duration": 0.1840909090909122,
                "tempo": 120.0
            },
            {
                "start_time": 37.336363636363636,
                "end_time": 37.52045454545454,
                "pitch": 54,
                "velocity": 51,
                "duration": 0.18409090909090509,
                "tempo": 120.0
            },
            {
                "start_time": 37.538636363636364,
                "end_time": 37.62272727272727,
                "pitch": 55,
                "velocity": 51,
                "duration": 0.08409090909090366,
                "tempo": 120.0
            },
            {
                "start_time": 37.63863636363636,
                "end_time": 37.92272727272727,
                "pitch": 55,
                "velocity": 51,
                "duration": 0.2840909090909136,
                "tempo": 120.0
            },
            {
                "start_time": 37.93863636363636,
                "end_time": 38.12272727272727,
                "pitch": 55,
                "velocity": 51,
                "duration": 0.18409090909090509,
                "tempo": 120.0
            },
            {
                "start_time": 38.13863636363636,
                "end_time": 38.32272727272727,
                "pitch": 57,
                "velocity": 51,
                "duration": 0.1840909090909122,
                "tempo": 120.0
            },
            {
                "start_time": 38.33863636363636,
                "end_time": 38.52272727272727,
                "pitch": 59,
                "velocity": 51,
                "duration": 0.1840909090909122,
                "tempo": 120.0
            },
            {
                "start_time": 38.538636363636364,
                "end_time": 38.72272727272727,
                "pitch": 60,
                "velocity": 51,
                "duration": 0.18409090909090509,
                "tempo": 120.0
            },
            {
                "start_time": 38.73863636363636,
                "end_time": 38.92272727272727,
                "pitch": 60,
                "velocity": 51,
                "duration": 0.1840909090909122,
                "tempo": 120.0
            },
            {
                "start_time": 38.93863636363636,
                "end_time": 39.12272727272727,
                "pitch": 60,
                "velocity": 51,
                "duration": 0.18409090909090509,
                "tempo": 120.0
            },
            {
                "start_time": 39.13863636363636,
                "end_time": 39.32272727272727,
                "pitch": 60,
                "velocity": 51,
                "duration": 0.1840909090909122,
                "tempo": 120.0
            },
            {
                "start_time": 39.33863636363636,
                "end_time": 39.52272727272727,
                "pitch": 60,
                "velocity": 51,
                "duration": 0.1840909090909122,
                "tempo": 120.0
            },
            {
                "start_time": 39.54090909090909,
                "end_time": 39.725,
                "pitch": 60,
                "velocity": 51,
                "duration": 0.1840909090909122,
                "tempo": 120.0
            },
            {
                "start_time": 39.74090909090909,
                "end_time": 39.925,
                "pitch": 65,
                "velocity": 51,
                "duration": 0.18409090909090509,
                "tempo": 120.0
            },
            {
                "start_time": 39.94090909090909,
                "end_time": 40.125,
                "pitch": 67,
                "velocity": 51,
                "duration": 0.1840909090909122,
                "tempo": 120.0
            },
            {
                "start_time": 40.14090909090909,
                "end_time": 40.324999999999996,
                "pitch": 60,
                "velocity": 51,
                "duration": 0.18409090909090509,
                "tempo": 120.0
            },
            {
                "start_time": 40.340909090909086,
                "end_time": 40.525,
                "pitch": 60,
                "velocity": 51,
                "duration": 0.1840909090909122,
                "tempo": 120.0
            },
            {
                "start_time": 40.54090909090909,
                "end_time": 40.725,
                "pitch": 60,
                "velocity": 51,
                "duration": 0.1840909090909122,
                "tempo": 120.0
            },
            {
                "start_time": 40.74090909090909,
                "end_time": 40.925,
                "pitch": 60,
                "velocity": 51,
                "duration": 0.18409090909090509,
                "tempo": 120.0
            },
            {
                "start_time": 40.94090909090909,
                "end_time": 41.125,
                "pitch": 60,
                "velocity": 51,
                "duration": 0.1840909090909122,
                "tempo": 120.0
            },
            {
                "start_time": 41.14090909090909,
                "end_time": 41.324999999999996,
                "pitch": 60,
                "velocity": 51,
                "duration": 0.18409090909090509,
                "tempo": 120.0
            },
            {
                "start_time": 41.340909090909086,
                "end_time": 41.527272727272724,
                "pitch": 60,
                "velocity": 51,
                "duration": 0.1863636363636374,
                "tempo": 120.0
            },
            {
                "start_time": 41.543181818181814,
                "end_time": 41.627272727272725,
                "pitch": 60,
                "velocity": 51,
                "duration": 0.08409090909091077,
                "tempo": 120.0
            },
            {
                "start_time": 41.643181818181816,
                "end_time": 41.66136363636363,
                "pitch": 61,
                "velocity": 51,
                "duration": 0.018181818181815856,
                "tempo": 120.0
            },
            {
                "start_time": 41.67727272727272,
                "end_time": 41.72727272727273,
                "pitch": 62,
                "velocity": 51,
                "duration": 0.05000000000000426,
                "tempo": 120.0
            },
            {
                "start_time": 41.74318181818182,
                "end_time": 41.92727272727272,
                "pitch": 62,
                "velocity": 51,
                "duration": 0.18409090909090509,
                "tempo": 120.0
            },
            {
                "start_time": 41.94318181818181,
                "end_time": 42.127272727272725,
                "pitch": 62,
                "velocity": 51,
                "duration": 0.1840909090909122,
                "tempo": 120.0
            },
            {
                "start_time": 42.143181818181816,
                "end_time": 42.32727272727273,
                "pitch": 62,
                "velocity": 51,
                "duration": 0.1840909090909122,
                "tempo": 120.0
            },
            {
                "start_time": 42.34318181818182,
                "end_time": 42.527272727272724,
                "pitch": 69,
                "velocity": 51,
                "duration": 0.18409090909090509,
                "tempo": 120.0
            },
            {
                "start_time": 42.543181818181814,
                "end_time": 42.72727272727273,
                "pitch": 62,
                "velocity": 51,
                "duration": 0.1840909090909122,
                "tempo": 120.0
            },
            {
                "start_time": 42.74318181818182,
                "end_time": 42.92727272727272,
                "pitch": 62,
                "velocity": 51,
                "duration": 0.18409090909090509,
                "tempo": 120.0
            },
            {
                "start_time": 42.94318181818181,
                "end_time": 43.127272727272725,
                "pitch": 62,
                "velocity": 51,
                "duration": 0.1840909090909122,
                "tempo": 120.0
            },
            {
                "start_time": 43.143181818181816,
                "end_time": 43.22727272727273,
                "pitch": 57,
                "velocity": 51,
                "duration": 0.08409090909091077,
                "tempo": 120.0
            },
            {
                "start_time": 43.24318181818182,
                "end_time": 43.52954545454545,
                "pitch": 62,
                "velocity": 51,
                "duration": 0.2863636363636317,
                "tempo": 120.0
            },
            {
                "start_time": 43.54545454545455,
                "end_time": 43.72954545454545,
                "pitch": 62,
                "velocity": 51,
                "duration": 0.18409090909090509,
                "tempo": 120.0
            },
            {
                "start_time": 43.74772727272727,
                "end_time": 43.929545454545455,
                "pitch": 62,
                "velocity": 51,
                "duration": 0.18181818181818699,
                "tempo": 120.0
            },
            {
                "start_time": 43.94772727272727,
                "end_time": 44.02954545454545,
                "pitch": 69,
                "velocity": 51,
                "duration": 0.08181818181817846,
                "tempo": 120.0
            },
            {
                "start_time": 44.04772727272727,
                "end_time": 44.32954545454545,
                "pitch": 62,
                "velocity": 51,
                "duration": 0.2818181818181813,
                "tempo": 120.0
            },
            {
                "start_time": 44.34772727272727,
                "end_time": 44.52954545454545,
                "pitch": 62,
                "velocity": 51,
                "duration": 0.18181818181817988,
                "tempo": 120.0
            },
            {
                "start_time": 44.54772727272727,
                "end_time": 44.72954545454545,
                "pitch": 62,
                "velocity": 51,
                "duration": 0.18181818181817988,
                "tempo": 120.0
            },
            {
                "start_time": 44.74772727272727,
                "end_time": 44.82954545454545,
                "pitch": 62,
                "velocity": 51,
                "duration": 0.08181818181818556,
                "tempo": 120.0
            },
            {
                "start_time": 44.84772727272727,
                "end_time": 44.929545454545455,
                "pitch": 60,
                "velocity": 51,
                "duration": 0.08181818181818556,
                "tempo": 120.0
            },
            {
                "start_time": 44.94772727272727,
                "end_time": 45.13636363636363,
                "pitch": 59,
                "velocity": 51,
                "duration": 0.1886363636363626,
                "tempo": 120.0
            },
            {
                "start_time": 45.152272727272724,
                "end_time": 45.340909090909086,
                "pitch": 59,
                "velocity": 51,
                "duration": 0.1886363636363626,
                "tempo": 120.0
            },
            {
                "start_time": 45.35681818181818,
                "end_time": 45.53636363636363,
                "pitch": 59,
                "velocity": 51,
                "duration": 0.17954545454545467,
                "tempo": 120.0
            },
            {
                "start_time": 45.55227272727272,
                "end_time": 45.73409090909091,
                "pitch": 59,
                "velocity": 51,
                "duration": 0.18181818181818699,
                "tempo": 120.0
            },
            {
                "start_time": 45.75,
                "end_time": 45.934090909090905,
                "pitch": 66,
                "velocity": 51,
                "duration": 0.18409090909090509,
                "tempo": 120.0
            },
            {
                "start_time": 45.949999999999996,
                "end_time": 46.03409090909091,
                "pitch": 59,
                "velocity": 51,
                "duration": 0.08409090909091077,
                "tempo": 120.0
            },
            {
                "start_time": 46.05,
                "end_time": 46.334090909090904,
                "pitch": 59,
                "velocity": 51,
                "duration": 0.2840909090909065,
                "tempo": 120.0
            },
            {
                "start_time": 46.349999999999994,
                "end_time": 46.53409090909091,
                "pitch": 59,
                "velocity": 51,
                "duration": 0.1840909090909122,
                "tempo": 120.0
            },
            {
                "start_time": 46.55,
                "end_time": 46.73409090909091,
                "pitch": 61,
                "velocity": 51,
                "duration": 0.1840909090909122,
                "tempo": 120.0
            },
            {
                "start_time": 46.75,
                "end_time": 46.934090909090905,
                "pitch": 59,
                "velocity": 51,
                "duration": 0.18409090909090509,
                "tempo": 120.0
            },
            {
                "start_time": 46.949999999999996,
                "end_time": 47.13409090909091,
                "pitch": 59,
                "velocity": 51,
                "duration": 0.1840909090909122,
                "tempo": 120.0
            },
            {
                "start_time": 47.15,
                "end_time": 47.334090909090904,
                "pitch": 59,
                "velocity": 51,
                "duration": 0.18409090909090509,
                "tempo": 120.0
            },
            {
                "start_time": 47.349999999999994,
                "end_time": 47.53409090909091,
                "pitch": 64,
                "velocity": 51,
                "duration": 0.1840909090909122,
                "tempo": 120.0
            },
            {
                "start_time": 47.55227272727272,
                "end_time": 47.736363636363635,
                "pitch": 59,
                "velocity": 51,
                "duration": 0.1840909090909122,
                "tempo": 120.0
            },
            {
                "start_time": 47.752272727272725,
                "end_time": 47.93636363636364,
                "pitch": 59,
                "velocity": 51,
                "duration": 0.1840909090909122,
                "tempo": 120.0
            },
            {
                "start_time": 47.95227272727273,
                "end_time": 48.13636363636363,
                "pitch": 59,
                "velocity": 51,
                "duration": 0.18409090909090509,
                "tempo": 120.0
            },
            {
                "start_time": 48.152272727272724,
                "end_time": 48.336363636363636,
                "pitch": 61,
                "velocity": 51,
                "duration": 0.1840909090909122,
                "tempo": 120.0
            },
            {
                "start_time": 48.35227272727273,
                "end_time": 48.53636363636363,
                "pitch": 61,
                "velocity": 51,
                "duration": 0.18409090909090509,
                "tempo": 120.0
            },
            {
                "start_time": 48.55227272727272,
                "end_time": 48.736363636363635,
                "pitch": 68,
                "velocity": 51,
                "duration": 0.1840909090909122,
                "tempo": 120.0
            },
            {
                "start_time": 48.752272727272725,
                "end_time": 48.93636363636364,
                "pitch": 61,
                "velocity": 51,
                "duration": 0.1840909090909122,
                "tempo": 120.0
            },
            {
                "start_time": 48.95227272727273,
                "end_time": 49.13636363636363,
                "pitch": 61,
                "velocity": 51,
                "duration": 0.18409090909090509,
                "tempo": 120.0
            },
            {
                "start_time": 49.152272727272724,
                "end_time": 49.336363636363636,
                "pitch": 61,
                "velocity": 51,
                "duration": 0.1840909090909122,
                "tempo": 120.0
            },
            {
                "start_time": 49.35227272727273,
                "end_time": 49.53636363636363,
                "pitch": 66,
                "velocity": 51,
                "duration": 0.18409090909090509,
                "tempo": 120.0
            },
            {
                "start_time": 49.554545454545455,
                "end_time": 49.63863636363636,
                "pitch": 61,
                "velocity": 51,
                "duration": 0.08409090909090366,
                "tempo": 120.0
            },
            {
                "start_time": 49.65454545454545,
                "end_time": 49.93863636363636,
                "pitch": 61,
                "velocity": 51,
                "duration": 0.2840909090909136,
                "tempo": 120.0
            },
            {
                "start_time": 49.95454545454545,
                "end_time": 50.13863636363636,
                "pitch": 61,
                "velocity": 51,
                "duration": 0.18409090909090509,
                "tempo": 120.0
            },
            {
                "start_time": 50.15454545454545,
                "end_time": 50.33863636363636,
                "pitch": 61,
                "velocity": 51,
                "duration": 0.1840909090909122,
                "tempo": 120.0
            },
            {
                "start_time": 50.35454545454545,
                "end_time": 50.538636363636364,
                "pitch": 61,
                "velocity": 51,
                "duration": 0.1840909090909122,
                "tempo": 120.0
            },
            {
                "start_time": 50.554545454545455,
                "end_time": 50.73863636363636,
                "pitch": 61,
                "velocity": 51,
                "duration": 0.18409090909090509,
                "tempo": 120.0
            },
            {
                "start_time": 50.75454545454545,
                "end_time": 50.93863636363636,
                "pitch": 61,
                "velocity": 51,
                "duration": 0.1840909090909122,
                "tempo": 120.0
            },
            {
                "start_time": 50.95454545454545,
                "end_time": 51.13863636363636,
                "pitch": 61,
                "velocity": 51,
                "duration": 0.18409090909090509,
                "tempo": 120.0
            },
            {
                "start_time": 51.15454545454545,
                "end_time": 51.31590909090909,
                "pitch": 61,
                "velocity": 51,
                "duration": 0.16136363636363882,
                "tempo": 120.0
            }
        ],
        "Electric Guitar (clean)": [
            {
                "start_time": 0.029545454545454545,
                "end_time": 0.609090909090909,
                "pitch": 42,
                "velocity": 40,
                "duration": 0.5795454545454545,
                "tempo": 120.0
            },
            {
                "start_time": 0.625,
                "end_time": 1.0068181818181818,
                "pitch": 54,
                "velocity": 40,
                "duration": 0.38181818181818183,
                "tempo": 120.0
            },
            {
                "start_time": 1.0227272727272727,
                "end_time": 1.1068181818181817,
                "pitch": 47,
                "velocity": 40,
                "duration": 0.084090909090909,
                "tempo": 120.0
            },
            {
                "start_time": 1.1227272727272726,
                "end_time": 1.2068181818181818,
                "pitch": 48,
                "velocity": 40,
                "duration": 0.08409090909090922,
                "tempo": 120.0
            },
            {
                "start_time": 1.2227272727272727,
                "end_time": 1.4068181818181817,
                "pitch": 49,
                "velocity": 40,
                "duration": 0.18409090909090908,
                "tempo": 120.0
            },
            {
                "start_time": 1.4227272727272726,
                "end_time": 1.8068181818181817,
                "pitch": 52,
                "velocity": 40,
                "duration": 0.38409090909090904,
                "tempo": 120.0
            },
            {
                "start_time": 1.825,
                "end_time": 2.009090909090909,
                "pitch": 54,
                "velocity": 40,
                "duration": 0.18409090909090886,
                "tempo": 120.0
            },
            {
                "start_time": 2.025,
                "end_time": 2.109090909090909,
                "pitch": 57,
                "velocity": 40,
                "duration": 0.084090909090909,
                "tempo": 120.0
            },
            {
                "start_time": 2.125,
                "end_time": 2.209090909090909,
                "pitch": 59,
                "velocity": 40,
                "duration": 0.084090909090909,
                "tempo": 120.0
            },
            {
                "start_time": 2.225,
                "end_time": 2.809090909090909,
                "pitch": 43,
                "velocity": 40,
                "duration": 0.584090909090909,
                "tempo": 120.0
            },
            {
                "start_time": 2.8249999999999997,
                "end_time": 3.209090909090909,
                "pitch": 54,
                "velocity": 40,
                "duration": 0.38409090909090926,
                "tempo": 120.0
            },
            {
                "start_time": 3.2249999999999996,
                "end_time": 3.811363636363636,
                "pitch": 42,
                "velocity": 40,
                "duration": 0.5863636363636364,
                "tempo": 120.0
            },
            {
                "start_time": 3.827272727272727,
                "end_time": 4.211363636363636,
                "pitch": 54,
                "velocity": 40,
                "duration": 0.3840909090909088,
                "tempo": 120.0
            },
            {
                "start_time": 4.227272727272727,
                "end_time": 4.3113636363636365,
                "pitch": 47,
                "velocity": 40,
                "duration": 0.08409090909090988,
                "tempo": 120.0
            },
            {
                "start_time": 4.327272727272727,
                "end_time": 4.411363636363636,
                "pitch": 48,
                "velocity": 40,
                "duration": 0.084090909090909,
                "tempo": 120.0
            },
            {
                "start_time": 4.427272727272727,
                "end_time": 4.613636363636363,
                "pitch": 49,
                "velocity": 40,
                "duration": 0.1863636363636365,
                "tempo": 120.0
            },
            {
                "start_time": 4.629545454545454,
                "end_time": 5.013636363636364,
                "pitch": 52,
                "velocity": 40,
                "duration": 0.3840909090909097,
                "tempo": 120.0
            },
            {
                "start_time": 5.029545454545454,
                "end_time": 5.213636363636363,
                "pitch": 54,
                "velocity": 40,
                "duration": 0.18409090909090864,
                "tempo": 120.0
            },
            {
                "start_time": 5.2318181818181815,
                "end_time": 5.3136363636363635,
                "pitch": 57,
                "velocity": 40,
                "duration": 0.08181818181818201,
                "tempo": 120.0
            },
            {
                "start_time": 5.331818181818181,
                "end_time": 5.415909090909091,
                "pitch": 59,
                "velocity": 40,
                "duration": 0.08409090909090988,
                "tempo": 120.0
            },
            {
                "start_time": 5.431818181818182,
                "end_time": 6.015909090909091,
                "pitch": 43,
                "velocity": 40,
                "duration": 0.584090909090909,
                "tempo": 120.0
            },
            {
                "start_time": 6.034090909090909,
                "end_time": 6.420454545454545,
                "pitch": 54,
                "velocity": 40,
                "duration": 0.3863636363636358,
                "tempo": 120.0
            },
            {
                "start_time": 6.436363636363636,
                "end_time": 7.0249999999999995,
                "pitch": 42,
                "velocity": 40,
                "duration": 0.5886363636363638,
                "tempo": 120.0
            },
            {
                "start_time": 7.043181818181818,
                "end_time": 7.422727272727272,
                "pitch": 54,
                "velocity": 40,
                "duration": 0.37954545454545396,
                "tempo": 120.0
            },
            {
                "start_time": 7.4409090909090905,
                "end_time": 7.5249999999999995,
                "pitch": 47,
                "velocity": 40,
                "duration": 0.084090909090909,
                "tempo": 120.0
            },
            {
                "start_time": 7.54090909090909,
                "end_time": 7.625,
                "pitch": 48,
                "velocity": 40,
                "duration": 0.08409090909090988,
                "tempo": 120.0
            },
            {
                "start_time": 7.640909090909091,
                "end_time": 7.824999999999999,
                "pitch": 49,
                "velocity": 40,
                "duration": 0.18409090909090864,
                "tempo": 120.0
            },
            {
                "start_time": 7.840909090909091,
                "end_time": 8.229545454545454,
                "pitch": 52,
                "velocity": 40,
                "duration": 0.3886363636363628,
                "tempo": 120.0
            },
            {
                "start_time": 8.247727272727273,
                "end_time": 8.436363636363636,
                "pitch": 54,
                "velocity": 40,
                "duration": 0.1886363636363626,
                "tempo": 120.0
            },
            {
                "start_time": 8.452272727272726,
                "end_time": 8.534090909090908,
                "pitch": 57,
                "velocity": 40,
                "duration": 0.08181818181818201,
                "tempo": 120.0
            },
            {
                "start_time": 8.549999999999999,
                "end_time": 8.631818181818181,
                "pitch": 59,
                "velocity": 40,
                "duration": 0.08181818181818201,
                "tempo": 120.0
            },
            {
                "start_time": 8.647727272727272,
                "end_time": 9.229545454545454,
                "pitch": 43,
                "velocity": 40,
                "duration": 0.581818181818182,
                "tempo": 120.0
            },
            {
                "start_time": 9.247727272727273,
                "end_time": 9.629545454545454,
                "pitch": 54,
                "velocity": 40,
                "duration": 0.38181818181818095,
                "tempo": 120.0
            },
            {
                "start_time": 9.647727272727272,
                "end_time": 10.23409090909091,
                "pitch": 42,
                "velocity": 40,
                "duration": 0.5863636363636378,
                "tempo": 120.0
            },
            {
                "start_time": 10.252272727272727,
                "end_time": 10.636363636363637,
                "pitch": 54,
                "velocity": 40,
                "duration": 0.3840909090909097,
                "tempo": 120.0
            },
            {
                "start_time": 10.654545454545454,
                "end_time": 10.738636363636363,
                "pitch": 47,
                "velocity": 40,
                "duration": 0.084090909090909,
                "tempo": 120.0
            },
            {
                "start_time": 10.754545454545454,
                "end_time": 10.838636363636363,
                "pitch": 48,
                "velocity": 40,
                "duration": 0.084090909090909,
                "tempo": 120.0
            },
            {
                "start_time": 10.854545454545454,
                "end_time": 11.040909090909091,
                "pitch": 49,
                "velocity": 40,
                "duration": 0.1863636363636374,
                "tempo": 120.0
            },
            {
                "start_time": 11.056818181818182,
                "end_time": 11.447727272727272,
                "pitch": 52,
                "velocity": 40,
                "duration": 0.39090909090909065,
                "tempo": 120.0
            },
            {
                "start_time": 11.463636363636363,
                "end_time": 11.652272727272727,
                "pitch": 54,
                "velocity": 40,
                "duration": 0.18863636363636438,
                "tempo": 120.0
            },
            {
                "start_time": 11.668181818181818,
                "end_time": 11.75,
                "pitch": 57,
                "velocity": 40,
                "duration": 0.08181818181818201,
                "tempo": 120.0
            },
            {
                "start_time": 11.76590909090909,
                "end_time": 11.847727272727273,
                "pitch": 59,
                "velocity": 40,
                "duration": 0.08181818181818201,
                "tempo": 120.0
            },
            {
                "start_time": 11.863636363636363,
                "end_time": 12.447727272727272,
                "pitch": 43,
                "velocity": 40,
                "duration": 0.584090909090909,
                "tempo": 120.0
            },
            {
                "start_time": 12.463636363636363,
                "end_time": 12.85,
                "pitch": 54,
                "velocity": 40,
                "duration": 0.3863636363636367,
                "tempo": 120.0
            },
            {
                "start_time": 12.86590909090909,
                "end_time": 13.049999999999999,
                "pitch": 48,
                "velocity": 40,
                "duration": 0.18409090909090864,
                "tempo": 120.0
            },
            {
                "start_time": 13.068181818181818,
                "end_time": 13.252272727272727,
                "pitch": 48,
                "velocity": 40,
                "duration": 0.18409090909090864,
                "tempo": 120.0
            },
            {
                "start_time": 13.268181818181818,
                "end_time": 13.452272727272726,
                "pitch": 48,
                "velocity": 40,
                "duration": 0.18409090909090864,
                "tempo": 120.0
            },
            {
                "start_time": 13.468181818181817,
                "end_time": 13.552272727272726,
                "pitch": 55,
                "velocity": 40,
                "duration": 0.084090909090909,
                "tempo": 120.0
            },
            {
                "start_time": 13.568181818181818,
                "end_time": 13.854545454545454,
                "pitch": 48,
                "velocity": 40,
                "duration": 0.28636363636363527,
                "tempo": 120.0
            },
            {
                "start_time": 13.870454545454544,
                "end_time": 14.054545454545455,
                "pitch": 50,
                "velocity": 40,
                "duration": 0.18409090909091042,
                "tempo": 120.0
            },
            {
                "start_time": 14.072727272727272,
                "end_time": 14.256818181818181,
                "pitch": 43,
                "velocity": 40,
                "duration": 0.18409090909090864,
                "tempo": 120.0
            },
            {
                "start_time": 14.272727272727272,
                "end_time": 14.35681818181818,
                "pitch": 45,
                "velocity": 40,
                "duration": 0.084090909090909,
                "tempo": 120.0
            },
            {
                "start_time": 14.372727272727271,
                "end_time": 14.861363636363636,
                "pitch": 48,
                "velocity": 40,
                "duration": 0.4886363636363651,
                "tempo": 120.0
            },
            {
                "start_time": 14.877272727272727,
                "end_time": 15.061363636363636,
                "pitch": 52,
                "velocity": 40,
                "duration": 0.18409090909090864,
                "tempo": 120.0
            },
            {
                "start_time": 15.079545454545453,
                "end_time": 15.161363636363635,
                "pitch": 55,
                "velocity": 40,
                "duration": 0.08181818181818201,
                "tempo": 120.0
            },
            {
                "start_time": 15.179545454545455,
                "end_time": 15.463636363636363,
                "pitch": 48,
                "velocity": 40,
                "duration": 0.2840909090909083,
                "tempo": 120.0
            },
            {
                "start_time": 15.479545454545454,
                "end_time": 15.663636363636362,
                "pitch": 50,
                "velocity": 40,
                "duration": 0.18409090909090864,
                "tempo": 120.0
            },
            {
                "start_time": 15.679545454545453,
                "end_time": 16.06590909090909,
                "pitch": 43,
                "velocity": 40,
                "duration": 0.38636363636363846,
                "tempo": 120.0
            },
            {
                "start_time": 16.081818181818182,
                "end_time": 16.46818181818182,
                "pitch": 45,
                "velocity": 40,
                "duration": 0.3863636363636367,
                "tempo": 120.0
            },
            {
                "start_time": 16.48409090909091,
                "end_time": 16.668181818181818,
                "pitch": 45,
                "velocity": 40,
                "duration": 0.18409090909090864,
                "tempo": 120.0
            },
            {
                "start_time": 16.68409090909091,
                "end_time": 16.768181818181816,
                "pitch": 52,
                "velocity": 40,
                "duration": 0.08409090909090722,
                "tempo": 120.0
            },
            {
                "start_time": 16.784090909090907,
                "end_time": 17.070454545454545,
                "pitch": 45,
                "velocity": 40,
                "duration": 0.2863636363636388,
                "tempo": 120.0
            },
            {
                "start_time": 17.086363636363636,
                "end_time": 17.270454545454545,
                "pitch": 45,
                "velocity": 40,
                "duration": 0.18409090909090864,
                "tempo": 120.0
            },
            {
                "start_time": 17.288636363636364,
                "end_time": 17.470454545454544,
                "pitch": 50,
                "velocity": 40,
                "duration": 0.18181818181817988,
                "tempo": 120.0
            },
            {
                "start_time": 17.488636363636363,
                "end_time": 17.670454545454543,
                "pitch": 52,
                "velocity": 40,
                "duration": 0.18181818181817988,
                "tempo": 120.0
            },
            {
                "start_time": 17.688636363636363,
                "end_time": 18.07272727272727,
                "pitch": 50,
                "velocity": 40,
                "duration": 0.38409090909090793,
                "tempo": 120.0
            },
            {
                "start_time": 18.09090909090909,
                "end_time": 18.172727272727272,
                "pitch": 50,
                "velocity": 40,
                "duration": 0.08181818181818201,
                "tempo": 120.0
            },
            {
                "start_time": 18.19090909090909,
                "end_time": 18.272727272727273,
                "pitch": 55,
                "velocity": 40,
                "duration": 0.08181818181818201,
                "tempo": 120.0
            },
            {
                "start_time": 18.29090909090909,
                "end_time": 18.37272727272727,
                "pitch": 57,
                "velocity": 40,
                "duration": 0.08181818181818201,
                "tempo": 120.0
            },
            {
                "start_time": 18.39090909090909,
                "end_time": 19.277272727272727,
                "pitch": 50,
                "velocity": 40,
                "duration": 0.8863636363636367,
                "tempo": 120.0
            },
            {
                "start_time": 19.293181818181818,
                "end_time": 19.477272727272727,
                "pitch": 47,
                "velocity": 40,
                "duration": 0.18409090909090864,
                "tempo": 120.0
            },
            {
                "start_time": 19.493181818181817,
                "end_time": 19.677272727272726,
                "pitch": 47,
                "velocity": 40,
                "duration": 0.18409090909090864,
                "tempo": 120.0
            },
            {
                "start_time": 19.693181818181817,
                "end_time": 19.877272727272725,
                "pitch": 64,
                "velocity": 40,
                "duration": 0.18409090909090864,
                "tempo": 120.0
            },
            {
                "start_time": 19.895454545454545,
                "end_time": 20.079545454545453,
                "pitch": 47,
                "velocity": 40,
                "duration": 0.18409090909090864,
                "tempo": 120.0
            },
            {
                "start_time": 20.095454545454544,
                "end_time": 20.279545454545453,
                "pitch": 47,
                "velocity": 40,
                "duration": 0.18409090909090864,
                "tempo": 120.0
            },
            {
                "start_time": 20.295454545454543,
                "end_time": 20.479545454545452,
                "pitch": 47,
                "velocity": 40,
                "duration": 0.18409090909090864,
                "tempo": 120.0
            },
            {
                "start_time": 20.495454545454546,
                "end_time": 20.679545454545455,
                "pitch": 51,
                "velocity": 40,
                "duration": 0.18409090909090864,
                "tempo": 120.0
            },
            {
                "start_time": 20.695454545454545,
                "end_time": 20.779545454545453,
                "pitch": 47,
                "velocity": 40,
                "duration": 0.08409090909090722,
                "tempo": 120.0
            },
            {
                "start_time": 20.795454545454543,
                "end_time": 21.079545454545453,
                "pitch": 52,
                "velocity": 40,
                "duration": 0.28409090909091006,
                "tempo": 120.0
            },
            {
                "start_time": 21.097727272727273,
                "end_time": 21.28181818181818,
                "pitch": 47,
                "velocity": 40,
                "duration": 0.18409090909090864,
                "tempo": 120.0
            },
            {
                "start_time": 21.297727272727272,
                "end_time": 21.48181818181818,
                "pitch": 54,
                "velocity": 40,
                "duration": 0.18409090909090864,
                "tempo": 120.0
            },
            {
                "start_time": 21.49772727272727,
                "end_time": 21.68181818181818,
                "pitch": 47,
                "velocity": 40,
                "duration": 0.18409090909090864,
                "tempo": 120.0
            },
            {
                "start_time": 21.69772727272727,
                "end_time": 21.884090909090908,
                "pitch": 52,
                "velocity": 40,
                "duration": 0.1863636363636374,
                "tempo": 120.0
            },
            {
                "start_time": 21.9,
                "end_time": 22.084090909090907,
                "pitch": 47,
                "velocity": 40,
                "duration": 0.18409090909090864,
                "tempo": 120.0
            },
            {
                "start_time": 22.099999999999998,
                "end_time": 22.25,
                "pitch": 54,
                "velocity": 40,
                "duration": 0.15000000000000213,
                "tempo": 120.0
            },
            {
                "start_time": 22.268181818181816,
                "end_time": 22.384090909090908,
                "pitch": 47,
                "velocity": 40,
                "duration": 0.11590909090909207,
                "tempo": 120.0
            },
            {
                "start_time": 22.4,
                "end_time": 22.48409090909091,
                "pitch": 48,
                "velocity": 40,
                "duration": 0.08409090909091077,
                "tempo": 120.0
            },
            {
                "start_time": 22.5,
                "end_time": 22.68409090909091,
                "pitch": 49,
                "velocity": 40,
                "duration": 0.18409090909090864,
                "tempo": 120.0
            },
            {
                "start_time": 22.7,
                "end_time": 22.884090909090908,
                "pitch": 49,
                "velocity": 40,
                "duration": 0.18409090909090864,
                "tempo": 120.0
            },
            {
                "start_time": 22.902272727272727,
                "end_time": 23.086363636363636,
                "pitch": 56,
                "velocity": 40,
                "duration": 0.18409090909090864,
                "tempo": 120.0
            },
            {
                "start_time": 23.102272727272727,
                "end_time": 23.186363636363634,
                "pitch": 49,
                "velocity": 40,
                "duration": 0.08409090909090722,
                "tempo": 120.0
            },
            {
                "start_time": 23.202272727272724,
                "end_time": 23.486363636363635,
                "pitch": 54,
                "velocity": 40,
                "duration": 0.28409090909091006,
                "tempo": 120.0
            },
            {
                "start_time": 23.504545454545454,
                "end_time": 23.686363636363634,
                "pitch": 56,
                "velocity": 40,
                "duration": 0.18181818181817988,
                "tempo": 120.0
            },
            {
                "start_time": 23.704545454545453,
                "end_time": 23.888636363636362,
                "pitch": 55,
                "velocity": 40,
                "duration": 0.18409090909090864,
                "tempo": 120.0
            },
            {
                "start_time": 23.904545454545453,
                "end_time": 24.08863636363636,
                "pitch": 54,
                "velocity": 40,
                "duration": 0.18409090909090864,
                "tempo": 120.0
            },
            {
                "start_time": 24.10681818181818,
                "end_time": 24.188636363636363,
                "pitch": 56,
                "velocity": 40,
                "duration": 0.08181818181818201,
                "tempo": 120.0
            },
            {
                "start_time": 24.206818181818182,
                "end_time": 24.488636363636363,
                "pitch": 56,
                "velocity": 40,
                "duration": 0.2818181818181813,
                "tempo": 120.0
            },
            {
                "start_time": 24.50681818181818,
                "end_time": 24.688636363636363,
                "pitch": 49,
                "velocity": 40,
                "duration": 0.18181818181818343,
                "tempo": 120.0
            },
            {
                "start_time": 24.706818181818182,
                "end_time": 25.693181818181817,
                "pitch": 49,
                "velocity": 40,
                "duration": 0.9863636363636346,
                "tempo": 120.0
            },
            {
                "start_time": 25.709090909090907,
                "end_time": 26.295454545454543,
                "pitch": 42,
                "velocity": 40,
                "duration": 0.586363636363636,
                "tempo": 120.0
            },
            {
                "start_time": 26.311363636363634,
                "end_time": 26.695454545454545,
                "pitch": 54,
                "velocity": 40,
                "duration": 0.3840909090909115,
                "tempo": 120.0
            },
            {
                "start_time": 26.711363636363636,
                "end_time": 26.795454545454543,
                "pitch": 47,
                "velocity": 40,
                "duration": 0.08409090909090722,
                "tempo": 120.0
            },
            {
                "start_time": 26.811363636363634,
                "end_time": 26.895454545454545,
                "pitch": 48,
                "velocity": 40,
                "duration": 0.08409090909091077,
                "tempo": 120.0
            },
            {
                "start_time": 26.911363636363635,
                "end_time": 27.095454545454544,
                "pitch": 49,
                "velocity": 40,
                "duration": 0.18409090909090864,
                "tempo": 120.0
            },
            {
                "start_time": 27.113636363636363,
                "end_time": 27.49772727272727,
                "pitch": 52,
                "velocity": 40,
                "duration": 0.38409090909090793,
                "tempo": 120.0
            },
            {
                "start_time": 27.513636363636362,
                "end_time": 27.69772727272727,
                "pitch": 54,
                "velocity": 40,
                "duration": 0.18409090909090864,
                "tempo": 120.0
            },
            {
                "start_time": 27.71363636363636,
                "end_time": 27.797727272727272,
                "pitch": 57,
                "velocity": 40,
                "duration": 0.08409090909091077,
                "tempo": 120.0
            },
            {
                "start_time": 27.815909090909088,
                "end_time": 27.9,
                "pitch": 59,
                "velocity": 40,
                "duration": 0.08409090909091077,
                "tempo": 120.0
            },
            {
                "start_time": 27.91590909090909,
                "end_time": 28.5,
                "pitch": 43,
                "velocity": 40,
                "duration": 0.5840909090909108,
                "tempo": 120.0
            },
            {
                "start_time": 28.518181818181816,
                "end_time": 28.9,
                "pitch": 54,
                "velocity": 40,
                "duration": 0.3818181818181827,
                "tempo": 120.0
            },
            {
                "start_time": 28.918181818181818,
                "end_time": 29.502272727272725,
                "pitch": 42,
                "velocity": 40,
                "duration": 0.5840909090909072,
                "tempo": 120.0
            },
            {
                "start_time": 29.520454545454545,
                "end_time": 29.904545454545453,
                "pitch": 54,
                "velocity": 40,
                "duration": 0.38409090909090793,
                "tempo": 120.0
            },
            {
                "start_time": 29.920454545454543,
                "end_time": 30.004545454545454,
                "pitch": 47,
                "velocity": 40,
                "duration": 0.08409090909091077,
                "tempo": 120.0
            },
            {
                "start_time": 30.02272727272727,
                "end_time": 30.10681818181818,
                "pitch": 48,
                "velocity": 40,
                "duration": 0.08409090909091077,
                "tempo": 120.0
            },
            {
                "start_time": 30.12272727272727,
                "end_time": 30.30681818181818,
                "pitch": 49,
                "velocity": 40,
                "duration": 0.18409090909090864,
                "tempo": 120.0
            },
            {
                "start_time": 30.32272727272727,
                "end_time": 30.706818181818182,
                "pitch": 52,
                "velocity": 40,
                "duration": 0.3840909090909115,
                "tempo": 120.0
            },
            {
                "start_time": 30.722727272727273,
                "end_time": 30.90681818181818,
                "pitch": 54,
                "velocity": 40,
                "duration": 0.18409090909090864,
                "tempo": 120.0
            },
            {
                "start_time": 30.922727272727272,
                "end_time": 31.00681818181818,
                "pitch": 57,
                "velocity": 40,
                "duration": 0.08409090909090722,
                "tempo": 120.0
            },
            {
                "start_time": 31.02272727272727,
                "end_time": 31.10681818181818,
                "pitch": 59,
                "velocity": 40,
                "duration": 0.08409090909091077,
                "tempo": 120.0
            },
            {
                "start_time": 31.125,
                "end_time": 31.709090909090907,
                "pitch": 43,
                "velocity": 40,
                "duration": 0.5840909090909072,
                "tempo": 120.0
            },
            {
                "start_time": 31.724999999999998,
                "end_time": 32.111363636363635,
                "pitch": 54,
                "velocity": 40,
                "duration": 0.3863636363636367,
                "tempo": 120.0
            },
            {
                "start_time": 32.12954545454545,
                "end_time": 32.71818181818182,
                "pitch": 42,
                "velocity": 40,
                "duration": 0.5886363636363683,
                "tempo": 120.0
            },
            {
                "start_time": 32.73409090909091,
                "end_time": 33.11363636363636,
                "pitch": 54,
                "velocity": 40,
                "duration": 0.3795454545454504,
                "tempo": 120.0
            },
            {
                "start_time": 33.13181818181818,
                "end_time": 33.21363636363636,
                "pitch": 47,
                "velocity": 40,
                "duration": 0.08181818181817846,
                "tempo": 120.0
            },
            {
                "start_time": 33.23181818181818,
                "end_time": 33.31363636363636,
                "pitch": 48,
                "velocity": 40,
                "duration": 0.08181818181818556,
                "tempo": 120.0
            },
            {
                "start_time": 33.33181818181818,
                "end_time": 33.51590909090909,
                "pitch": 49,
                "velocity": 40,
                "duration": 0.1840909090909122,
                "tempo": 120.0
            },
            {
                "start_time": 33.53181818181818,
                "end_time": 33.91590909090909,
                "pitch": 52,
                "velocity": 40,
                "duration": 0.38409090909090793,
                "tempo": 120.0
            },
            {
                "start_time": 33.934090909090905,
                "end_time": 34.11590909090909,
                "pitch": 54,
                "velocity": 40,
                "duration": 0.18181818181818699,
                "tempo": 120.0
            },
            {
                "start_time": 34.13409090909091,
                "end_time": 34.215909090909086,
                "pitch": 57,
                "velocity": 40,
                "duration": 0.08181818181817846,
                "tempo": 120.0
            },
            {
                "start_time": 34.23409090909091,
                "end_time": 34.31590909090909,
                "pitch": 59,
                "velocity": 40,
                "duration": 0.08181818181817846,
                "tempo": 120.0
            },
            {
                "start_time": 34.33409090909091,
                "end_time": 34.91590909090909,
                "pitch": 43,
                "velocity": 40,
                "duration": 0.5818181818181785,
                "tempo": 120.0
            },
            {
                "start_time": 34.934090909090905,
                "end_time": 35.31590909090909,
                "pitch": 54,
                "velocity": 40,
                "duration": 0.3818181818181827,
                "tempo": 120.0
            },
            {
                "start_time": 35.33409090909091,
                "end_time": 35.92045454545455,
                "pitch": 42,
                "velocity": 40,
                "duration": 0.586363636363636,
                "tempo": 120.0
            },
            {
                "start_time": 35.93636363636364,
                "end_time": 36.320454545454545,
                "pitch": 54,
                "velocity": 40,
                "duration": 0.38409090909090793,
                "tempo": 120.0
            },
            {
                "start_time": 36.336363636363636,
                "end_time": 36.42045454545455,
                "pitch": 47,
                "velocity": 40,
                "duration": 0.08409090909091077,
                "tempo": 120.0
            },
            {
                "start_time": 36.43636363636364,
                "end_time": 36.52045454545454,
                "pitch": 48,
                "velocity": 40,
                "duration": 0.08409090909090366,
                "tempo": 120.0
            },
            {
                "start_time": 36.53636363636363,
                "end_time": 36.720454545454544,
                "pitch": 49,
                "velocity": 40,
                "duration": 0.1840909090909122,
                "tempo": 120.0
            },
            {
                "start_time": 36.736363636363635,
                "end_time": 37.12045454545454,
                "pitch": 52,
                "velocity": 40,
                "duration": 0.38409090909090793,
                "tempo": 120.0
            },
            {
                "start_time": 37.13636363636363,
                "end_time": 37.320454545454545,
                "pitch": 54,
                "velocity": 40,
                "duration": 0.1840909090909122,
                "tempo": 120.0
            },
            {
                "start_time": 37.336363636363636,
                "end_time": 37.42045454545455,
                "pitch": 57,
                "velocity": 40,
                "duration": 0.08409090909091077,
                "tempo": 120.0
            },
            {
                "start_time": 37.43636363636364,
                "end_time": 37.52045454545454,
                "pitch": 59,
                "velocity": 40,
                "duration": 0.08409090909090366,
                "tempo": 120.0
            },
            {
                "start_time": 37.538636363636364,
                "end_time": 38.12272727272727,
                "pitch": 43,
                "velocity": 40,
                "duration": 0.5840909090909037,
                "tempo": 120.0
            },
            {
                "start_time": 38.13863636363636,
                "end_time": 38.52272727272727,
                "pitch": 54,
                "velocity": 40,
                "duration": 0.38409090909091503,
                "tempo": 120.0
            },
            {
                "start_time": 38.538636363636364,
                "end_time": 38.72272727272727,
                "pitch": 48,
                "velocity": 40,
                "duration": 0.18409090909090509,
                "tempo": 120.0
            },
            {
                "start_time": 38.73863636363636,
                "end_time": 38.92272727272727,
                "pitch": 48,
                "velocity": 40,
                "duration": 0.1840909090909122,
                "tempo": 120.0
            },
            {
                "start_time": 38.93863636363636,
                "end_time": 39.12272727272727,
                "pitch": 48,
                "velocity": 40,
                "duration": 0.18409090909090509,
                "tempo": 120.0
            },
            {
                "start_time": 39.13863636363636,
                "end_time": 39.22272727272727,
                "pitch": 55,
                "velocity": 40,
                "duration": 0.08409090909091077,
                "tempo": 120.0
            },
            {
                "start_time": 39.23863636363636,
                "end_time": 39.52272727272727,
                "pitch": 48,
                "velocity": 40,
                "duration": 0.2840909090909136,
                "tempo": 120.0
            },
            {
                "start_time": 39.54090909090909,
                "end_time": 39.725,
                "pitch": 50,
                "velocity": 40,
                "duration": 0.1840909090909122,
                "tempo": 120.0
            },
            {
                "start_time": 39.74090909090909,
                "end_time": 39.925,
                "pitch": 43,
                "velocity": 40,
                "duration": 0.18409090909090509,
                "tempo": 120.0
            },
            {
                "start_time": 39.94090909090909,
                "end_time": 40.025,
                "pitch": 45,
                "velocity": 40,
                "duration": 0.08409090909091077,
                "tempo": 120.0
            },
            {
                "start_time": 40.04090909090909,
                "end_time": 40.525,
                "pitch": 48,
                "velocity": 40,
                "duration": 0.48409090909090935,
                "tempo": 120.0
            },
            {
                "start_time": 40.54090909090909,
                "end_time": 40.725,
                "pitch": 52,
                "velocity": 40,
                "duration": 0.1840909090909122,
                "tempo": 120.0
            },
            {
                "start_time": 40.74090909090909,
                "end_time": 40.824999999999996,
                "pitch": 55,
                "velocity": 40,
                "duration": 0.08409090909090366,
                "tempo": 120.0
            },
            {
                "start_time": 40.840909090909086,
                "end_time": 41.125,
                "pitch": 48,
                "velocity": 40,
                "duration": 0.2840909090909136,
                "tempo": 120.0
            },
            {
                "start_time": 41.14090909090909,
                "end_time": 41.324999999999996,
                "pitch": 50,
                "velocity": 40,
                "duration": 0.18409090909090509,
                "tempo": 120.0
            },
            {
                "start_time": 41.340909090909086,
                "end_time": 41.72727272727273,
                "pitch": 43,
                "velocity": 40,
                "duration": 0.38636363636364024,
                "tempo": 120.0
            },
            {
                "start_time": 41.74318181818182,
                "end_time": 42.127272727272725,
                "pitch": 45,
                "velocity": 40,
                "duration": 0.38409090909090793,
                "tempo": 120.0
            },
            {
                "start_time": 42.143181818181816,
                "end_time": 42.32727272727273,
                "pitch": 45,
                "velocity": 40,
                "duration": 0.1840909090909122,
                "tempo": 120.0
            },
            {
                "start_time": 42.34318181818182,
                "end_time": 42.42727272727272,
                "pitch": 52,
                "velocity": 40,
                "duration": 0.08409090909090366,
                "tempo": 120.0
            },
            {
                "start_time": 42.44318181818181,
                "end_time": 42.72727272727273,
                "pitch": 45,
                "velocity": 40,
                "duration": 0.2840909090909136,
                "tempo": 120.0
            },
            {
                "start_time": 42.74318181818182,
                "end_time": 42.92727272727272,
                "pitch": 45,
                "velocity": 40,
                "duration": 0.18409090909090509,
                "tempo": 120.0
            },
            {
                "start_time": 42.94318181818181,
                "end_time": 43.127272727272725,
                "pitch": 50,
                "velocity": 40,
                "duration": 0.1840909090909122,
                "tempo": 120.0
            },
            {
                "start_time": 43.143181818181816,
                "end_time": 43.32727272727273,
                "pitch": 52,
                "velocity": 40,
                "duration": 0.1840909090909122,
                "tempo": 120.0
            },
            {
                "start_time": 43.345454545454544,
                "end_time": 43.72954545454545,
                "pitch": 50,
                "velocity": 40,
                "duration": 0.38409090909090793,
                "tempo": 120.0
            },
            {
                "start_time": 43.74772727272727,
                "end_time": 43.82954545454545,
                "pitch": 50,
                "velocity": 40,
                "duration": 0.08181818181818556,
                "tempo": 120.0
            },
            {
                "start_time": 43.84772727272727,
                "end_time": 43.929545454545455,
                "pitch": 55,
                "velocity": 40,
                "duration": 0.08181818181818556,
                "tempo": 120.0
            },
            {
                "start_time": 43.94772727272727,
                "end_time": 44.02954545454545,
                "pitch": 57,
                "velocity": 40,
                "duration": 0.08181818181817846,
                "tempo": 120.0
            },
            {
                "start_time": 44.04772727272727,
                "end_time": 44.929545454545455,
                "pitch": 50,
                "velocity": 40,
                "duration": 0.8818181818181827,
                "tempo": 120.0
            },
            {
                "start_time": 44.94772727272727,
                "end_time": 45.13636363636363,
                "pitch": 47,
                "velocity": 40,
                "duration": 0.1886363636363626,
                "tempo": 120.0
            },
            {
                "start_time": 45.152272727272724,
                "end_time": 45.340909090909086,
                "pitch": 47,
                "velocity": 40,
                "duration": 0.1886363636363626,
                "tempo": 120.0
            },
            {
                "start_time": 45.35681818181818,
                "end_time": 45.53636363636363,
                "pitch": 64,
                "velocity": 40,
                "duration": 0.17954545454545467,
                "tempo": 120.0
            },
            {
                "start_time": 45.55227272727272,
                "end_time": 45.73409090909091,
                "pitch": 47,
                "velocity": 40,
                "duration": 0.18181818181818699,
                "tempo": 120.0
            },
            {
                "start_time": 45.75,
                "end_time": 45.934090909090905,
                "pitch": 47,
                "velocity": 40,
                "duration": 0.18409090909090509,
                "tempo": 120.0
            },
            {
                "start_time": 45.949999999999996,
                "end_time": 46.13409090909091,
                "pitch": 47,
                "velocity": 40,
                "duration": 0.1840909090909122,
                "tempo": 120.0
            },
            {
                "start_time": 46.15,
                "end_time": 46.334090909090904,
                "pitch": 51,
                "velocity": 40,
                "duration": 0.18409090909090509,
                "tempo": 120.0
            },
            {
                "start_time": 46.349999999999994,
                "end_time": 46.434090909090905,
                "pitch": 47,
                "velocity": 40,
                "duration": 0.08409090909091077,
                "tempo": 120.0
            },
            {
                "start_time": 46.449999999999996,
                "end_time": 46.73409090909091,
                "pitch": 52,
                "velocity": 40,
                "duration": 0.2840909090909136,
                "tempo": 120.0
            },
            {
                "start_time": 46.75,
                "end_time": 46.934090909090905,
                "pitch": 47,
                "velocity": 40,
                "duration": 0.18409090909090509,
                "tempo": 120.0
            },
            {
                "start_time": 46.949999999999996,
                "end_time": 47.13409090909091,
                "pitch": 54,
                "velocity": 40,
                "duration": 0.1840909090909122,
                "tempo": 120.0
            },
            {
                "start_time": 47.15,
                "end_time": 47.334090909090904,
                "pitch": 47,
                "velocity": 40,
                "duration": 0.18409090909090509,
                "tempo": 120.0
            },
            {
                "start_time": 47.349999999999994,
                "end_time": 47.53409090909091,
                "pitch": 52,
                "velocity": 40,
                "duration": 0.1840909090909122,
                "tempo": 120.0
            },
            {
                "start_time": 47.55227272727272,
                "end_time": 47.736363636363635,
                "pitch": 47,
                "velocity": 40,
                "duration": 0.1840909090909122,
                "tempo": 120.0
            },
            {
                "start_time": 47.752272727272725,
                "end_time": 47.902272727272724,
                "pitch": 54,
                "velocity": 40,
                "duration": 0.14999999999999858,
                "tempo": 120.0
            },
            {
                "start_time": 47.918181818181814,
                "end_time": 48.03636363636363,
                "pitch": 47,
                "velocity": 40,
                "duration": 0.11818181818181728,
                "tempo": 120.0
            },
            {
                "start_time": 48.05227272727272,
                "end_time": 48.13636363636363,
                "pitch": 48,
                "velocity": 40,
                "duration": 0.08409090909091077,
                "tempo": 120.0
            },
            {
                "start_time": 48.152272727272724,
                "end_time": 48.336363636363636,
                "pitch": 49,
                "velocity": 40,
                "duration": 0.1840909090909122,
                "tempo": 120.0
            },
            {
                "start_time": 48.35227272727273,
                "end_time": 48.53636363636363,
                "pitch": 49,
                "velocity": 40,
                "duration": 0.18409090909090509,
                "tempo": 120.0
            },
            {
                "start_time": 48.55227272727272,
                "end_time": 48.736363636363635,
                "pitch": 56,
                "velocity": 40,
                "duration": 0.1840909090909122,
                "tempo": 120.0
            },
            {
                "start_time": 48.752272727272725,
                "end_time": 48.836363636363636,
                "pitch": 49,
                "velocity": 40,
                "duration": 0.08409090909091077,
                "tempo": 120.0
            },
            {
                "start_time": 48.85227272727273,
                "end_time": 49.13636363636363,
                "pitch": 54,
                "velocity": 40,
                "duration": 0.2840909090909065,
                "tempo": 120.0
            },
            {
                "start_time": 49.152272727272724,
                "end_time": 49.336363636363636,
                "pitch": 56,
                "velocity": 40,
                "duration": 0.1840909090909122,
                "tempo": 120.0
            },
            {
                "start_time": 49.35227272727273,
                "end_time": 49.53636363636363,
                "pitch": 55,
                "velocity": 40,
                "duration": 0.18409090909090509,
                "tempo": 120.0
            },
            {
                "start_time": 49.554545454545455,
                "end_time": 49.73863636363636,
                "pitch": 54,
                "velocity": 40,
                "duration": 0.18409090909090509,
                "tempo": 120.0
            },
            {
                "start_time": 49.75454545454545,
                "end_time": 49.83863636363636,
                "pitch": 56,
                "velocity": 40,
                "duration": 0.08409090909091077,
                "tempo": 120.0
            },
            {
                "start_time": 49.85454545454545,
                "end_time": 50.13863636363636,
                "pitch": 56,
                "velocity": 40,
                "duration": 0.2840909090909065,
                "tempo": 120.0
            },
            {
                "start_time": 50.15454545454545,
                "end_time": 50.33863636363636,
                "pitch": 49,
                "velocity": 40,
                "duration": 0.1840909090909122,
                "tempo": 120.0
            },
            {
                "start_time": 50.35454545454545,
                "end_time": 51.31590909090909,
                "pitch": 49,
                "velocity": 40,
                "duration": 0.961363636363636,
                "tempo": 120.0
            }
        ]
    }
}