{
    "track_id": "Miracle Warriors - Seal of the Dark Lord (FM) - 11 - Terrarin",
    "mood": "angry",
    "instruments": {
        "Violin": [
            {
                "start_time": 1.593181818181818,
                "end_time": 1.8477272727272727,
                "pitch": 74,
                "velocity": 64,
                "duration": 0.25454545454545463,
                "tempo": 120.0
            },
            {
                "start_time": 1.8659090909090907,
                "end_time": 1.9863636363636363,
                "pitch": 74,
                "velocity": 64,
                "duration": 0.12045454545454559,
                "tempo": 120.0
            },
            {
                "start_time": 2.002272727272727,
                "end_time": 2.2477272727272726,
                "pitch": 74,
                "velocity": 64,
                "duration": 0.2454545454545456,
                "tempo": 120.0
            },
            {
                "start_time": 2.2636363636363637,
                "end_time": 2.3795454545454544,
                "pitch": 74,
                "velocity": 64,
                "duration": 0.11590909090909074,
                "tempo": 120.0
            },
            {
                "start_time": 2.3954545454545455,
                "end_time": 2.6454545454545455,
                "pitch": 74,
                "velocity": 64,
                "duration": 0.25,
                "tempo": 120.0
            },
            {
                "start_time": 2.661363636363636,
                "end_time": 2.7772727272727273,
                "pitch": 74,
                "velocity": 64,
                "duration": 0.11590909090909118,
                "tempo": 120.0
            },
            {
                "start_time": 2.7954545454545454,
                "end_time": 3.0454545454545454,
                "pitch": 74,
                "velocity": 64,
                "duration": 0.25,
                "tempo": 120.0
            },
            {
                "start_time": 3.061363636363636,
                "end_time": 3.1772727272727272,
                "pitch": 74,
                "velocity": 64,
                "duration": 0.11590909090909118,
                "tempo": 120.0
            },
            {
                "start_time": 4.8,
                "end_time": 5.05,
                "pitch": 74,
                "velocity": 64,
                "duration": 0.25,
                "tempo": 120.0
            },
            {
                "start_time": 5.0659090909090905,
                "end_time": 5.184090909090909,
                "pitch": 74,
                "velocity": 64,
                "duration": 0.11818181818181817,
                "tempo": 120.0
            },
            {
                "start_time": 5.2,
                "end_time": 5.452272727272727,
                "pitch": 74,
                "velocity": 64,
                "duration": 0.252272727272727,
                "tempo": 120.0
            },
            {
                "start_time": 5.468181818181818,
                "end_time": 5.586363636363636,
                "pitch": 74,
                "velocity": 64,
                "duration": 0.11818181818181817,
                "tempo": 120.0
            },
            {
                "start_time": 5.602272727272727,
                "end_time": 5.852272727272727,
                "pitch": 74,
                "velocity": 64,
                "duration": 0.25,
                "tempo": 120.0
            },
            {
                "start_time": 5.870454545454545,
                "end_time": 5.986363636363636,
                "pitch": 74,
                "velocity": 64,
                "duration": 0.11590909090909118,
                "tempo": 120.0
            },
            {
                "start_time": 6.002272727272727,
                "end_time": 6.254545454545454,
                "pitch": 74,
                "velocity": 64,
                "duration": 0.252272727272727,
                "tempo": 120.0
            },
            {
                "start_time": 6.2704545454545455,
                "end_time": 6.388636363636364,
                "pitch": 74,
                "velocity": 64,
                "duration": 0.11818181818181817,
                "tempo": 120.0
            },
            {
                "start_time": 8.011363636363637,
                "end_time": 8.263636363636364,
                "pitch": 74,
                "velocity": 64,
                "duration": 0.252272727272727,
                "tempo": 120.0
            },
            {
                "start_time": 8.279545454545454,
                "end_time": 8.397727272727272,
                "pitch": 74,
                "velocity": 64,
                "duration": 0.11818181818181728,
                "tempo": 120.0
            },
            {
                "start_time": 8.413636363636364,
                "end_time": 8.665909090909091,
                "pitch": 74,
                "velocity": 64,
                "duration": 0.252272727272727,
                "tempo": 120.0
            },
            {
                "start_time": 8.681818181818182,
                "end_time": 8.799999999999999,
                "pitch": 74,
                "velocity": 64,
                "duration": 0.11818181818181728,
                "tempo": 120.0
            },
            {
                "start_time": 8.815909090909091,
                "end_time": 9.068181818181818,
                "pitch": 74,
                "velocity": 64,
                "duration": 0.252272727272727,
                "tempo": 120.0
            },
            {
                "start_time": 9.084090909090909,
                "end_time": 9.202272727272726,
                "pitch": 74,
                "velocity": 64,
                "duration": 0.11818181818181728,
                "tempo": 120.0
            },
            {
                "start_time": 9.218181818181817,
                "end_time": 9.468181818181817,
                "pitch": 74,
                "velocity": 64,
                "duration": 0.25,
                "tempo": 120.0
            },
            {
                "start_time": 9.486363636363636,
                "end_time": 9.602272727272727,
                "pitch": 74,
                "velocity": 64,
                "duration": 0.1159090909090903,
                "tempo": 120.0
            },
            {
                "start_time": 11.229545454545454,
                "end_time": 11.479545454545454,
                "pitch": 74,
                "velocity": 64,
                "duration": 0.25,
                "tempo": 120.0
            },
            {
                "start_time": 11.495454545454544,
                "end_time": 11.613636363636363,
                "pitch": 74,
                "velocity": 64,
                "duration": 0.11818181818181905,
                "tempo": 120.0
            },
            {
                "start_time": 11.629545454545454,
                "end_time": 11.875,
                "pitch": 74,
                "velocity": 64,
                "duration": 0.24545454545454604,
                "tempo": 120.0
            },
            {
                "start_time": 11.89090909090909,
                "end_time": 12.004545454545454,
                "pitch": 74,
                "velocity": 64,
                "duration": 0.11363636363636331,
                "tempo": 120.0
            },
            {
                "start_time": 12.022727272727272,
                "end_time": 12.279545454545454,
                "pitch": 74,
                "velocity": 64,
                "duration": 0.2568181818181827,
                "tempo": 120.0
            },
            {
                "start_time": 12.295454545454545,
                "end_time": 12.415909090909091,
                "pitch": 74,
                "velocity": 64,
                "duration": 0.12045454545454604,
                "tempo": 120.0
            },
            {
                "start_time": 12.431818181818182,
                "end_time": 12.684090909090909,
                "pitch": 74,
                "velocity": 64,
                "duration": 0.252272727272727,
                "tempo": 120.0
            },
            {
                "start_time": 12.702272727272726,
                "end_time": 12.818181818181818,
                "pitch": 74,
                "velocity": 64,
                "duration": 0.11590909090909207,
                "tempo": 120.0
            },
            {
                "start_time": 33.70227272727273,
                "end_time": 33.95227272727273,
                "pitch": 74,
                "velocity": 64,
                "duration": 0.25,
                "tempo": 120.0
            }
        ],
        "Electric Guitar (clean)": [
            {
                "start_time": 0.015909090909090907,
                "end_time": 0.1159090909090909,
                "pitch": 62,
                "velocity": 64,
                "duration": 0.1,
                "tempo": 120.0
            },
            {
                "start_time": 0.1340909090909091,
                "end_time": 0.25,
                "pitch": 62,
                "velocity": 64,
                "duration": 0.1159090909090909,
                "tempo": 120.0
            },
            {
                "start_time": 0.2659090909090909,
                "end_time": 0.3840909090909091,
                "pitch": 62,
                "velocity": 64,
                "duration": 0.11818181818181822,
                "tempo": 120.0
            },
            {
                "start_time": 0.39999999999999997,
                "end_time": 0.6454545454545454,
                "pitch": 62,
                "velocity": 64,
                "duration": 0.24545454545454543,
                "tempo": 120.0
            },
            {
                "start_time": 0.6613636363636364,
                "end_time": 0.7749999999999999,
                "pitch": 62,
                "velocity": 64,
                "duration": 0.11363636363636354,
                "tempo": 120.0
            },
            {
                "start_time": 0.7931818181818181,
                "end_time": 0.9090909090909091,
                "pitch": 62,
                "velocity": 64,
                "duration": 0.11590909090909096,
                "tempo": 120.0
            },
            {
                "start_time": 0.9249999999999999,
                "end_time": 1.0431818181818182,
                "pitch": 62,
                "velocity": 64,
                "duration": 0.11818181818181828,
                "tempo": 120.0
            },
            {
                "start_time": 1.059090909090909,
                "end_time": 1.175,
                "pitch": 62,
                "velocity": 64,
                "duration": 0.11590909090909096,
                "tempo": 120.0
            },
            {
                "start_time": 1.1931818181818181,
                "end_time": 1.4431818181818181,
                "pitch": 62,
                "velocity": 64,
                "duration": 0.25,
                "tempo": 120.0
            },
            {
                "start_time": 1.459090909090909,
                "end_time": 1.575,
                "pitch": 62,
                "velocity": 64,
                "duration": 0.11590909090909096,
                "tempo": 120.0
            },
            {
                "start_time": 14.443181818181818,
                "end_time": 15.097727272727273,
                "pitch": 26,
                "velocity": 64,
                "duration": 0.6545454545454543,
                "tempo": 120.0
            },
            {
                "start_time": 15.113636363636363,
                "end_time": 15.23181818181818,
                "pitch": 26,
                "velocity": 64,
                "duration": 0.11818181818181728,
                "tempo": 120.0
            },
            {
                "start_time": 15.25,
                "end_time": 15.899999999999999,
                "pitch": 26,
                "velocity": 64,
                "duration": 0.6499999999999986,
                "tempo": 120.0
            },
            {
                "start_time": 15.918181818181818,
                "end_time": 16.03409090909091,
                "pitch": 26,
                "velocity": 64,
                "duration": 0.11590909090909207,
                "tempo": 120.0
            },
            {
                "start_time": 16.052272727272726,
                "end_time": 16.704545454545453,
                "pitch": 26,
                "velocity": 64,
                "duration": 0.6522727272727273,
                "tempo": 120.0
            },
            {
                "start_time": 16.720454545454544,
                "end_time": 16.83863636363636,
                "pitch": 26,
                "velocity": 64,
                "duration": 0.11818181818181728,
                "tempo": 120.0
            },
            {
                "start_time": 16.854545454545455,
                "end_time": 17.64090909090909,
                "pitch": 26,
                "velocity": 64,
                "duration": 0.7863636363636353,
                "tempo": 120.0
            },
            {
                "start_time": 17.65681818181818,
                "end_time": 18.313636363636363,
                "pitch": 38,
                "velocity": 64,
                "duration": 0.6568181818181813,
                "tempo": 120.0
            },
            {
                "start_time": 18.329545454545453,
                "end_time": 18.443181818181817,
                "pitch": 38,
                "velocity": 64,
                "duration": 0.11363636363636331,
                "tempo": 120.0
            },
            {
                "start_time": 18.459090909090907,
                "end_time": 19.111363636363635,
                "pitch": 38,
                "velocity": 64,
                "duration": 0.6522727272727273,
                "tempo": 120.0
            },
            {
                "start_time": 19.127272727272725,
                "end_time": 19.245454545454546,
                "pitch": 38,
                "velocity": 64,
                "duration": 0.11818181818182083,
                "tempo": 120.0
            },
            {
                "start_time": 19.263636363636362,
                "end_time": 19.913636363636364,
                "pitch": 38,
                "velocity": 64,
                "duration": 0.6500000000000021,
                "tempo": 120.0
            },
            {
                "start_time": 19.93181818181818,
                "end_time": 20.047727272727272,
                "pitch": 38,
                "velocity": 64,
                "duration": 0.11590909090909207,
                "tempo": 120.0
            },
            {
                "start_time": 20.06590909090909,
                "end_time": 20.847727272727273,
                "pitch": 38,
                "velocity": 64,
                "duration": 0.7818181818181813,
                "tempo": 120.0
            },
            {
                "start_time": 20.86590909090909,
                "end_time": 21.518181818181816,
                "pitch": 38,
                "velocity": 64,
                "duration": 0.6522727272727273,
                "tempo": 120.0
            },
            {
                "start_time": 21.534090909090907,
                "end_time": 21.652272727272727,
                "pitch": 38,
                "velocity": 64,
                "duration": 0.11818181818182083,
                "tempo": 120.0
            },
            {
                "start_time": 21.668181818181818,
                "end_time": 22.320454545454545,
                "pitch": 38,
                "velocity": 64,
                "duration": 0.6522727272727273,
                "tempo": 120.0
            },
            {
                "start_time": 22.336363636363636,
                "end_time": 22.454545454545453,
                "pitch": 38,
                "velocity": 64,
                "duration": 0.11818181818181728,
                "tempo": 120.0
            },
            {
                "start_time": 22.470454545454544,
                "end_time": 23.12272727272727,
                "pitch": 38,
                "velocity": 64,
                "duration": 0.6522727272727273,
                "tempo": 120.0
            },
            {
                "start_time": 23.138636363636362,
                "end_time": 23.25681818181818,
                "pitch": 38,
                "velocity": 64,
                "duration": 0.11818181818181728,
                "tempo": 120.0
            },
            {
                "start_time": 23.272727272727273,
                "end_time": 24.05909090909091,
                "pitch": 38,
                "velocity": 64,
                "duration": 0.7863636363636353,
                "tempo": 120.0
            },
            {
                "start_time": 24.075,
                "end_time": 24.193181818181817,
                "pitch": 50,
                "velocity": 64,
                "duration": 0.11818181818181728,
                "tempo": 120.0
            },
            {
                "start_time": 24.209090909090907,
                "end_time": 24.325,
                "pitch": 50,
                "velocity": 64,
                "duration": 0.11590909090909207,
                "tempo": 120.0
            },
            {
                "start_time": 24.34318181818182,
                "end_time": 24.459090909090907,
                "pitch": 50,
                "velocity": 64,
                "duration": 0.11590909090908852,
                "tempo": 120.0
            },
            {
                "start_time": 24.474999999999998,
                "end_time": 24.85909090909091,
                "pitch": 50,
                "velocity": 64,
                "duration": 0.3840909090909115,
                "tempo": 120.0
            },
            {
                "start_time": 24.875,
                "end_time": 24.993181818181817,
                "pitch": 50,
                "velocity": 64,
                "duration": 0.11818181818181728,
                "tempo": 120.0
            },
            {
                "start_time": 25.009090909090908,
                "end_time": 25.127272727272725,
                "pitch": 50,
                "velocity": 64,
                "duration": 0.11818181818181728,
                "tempo": 120.0
            },
            {
                "start_time": 25.145454545454545,
                "end_time": 25.261363636363637,
                "pitch": 50,
                "velocity": 64,
                "duration": 0.11590909090909207,
                "tempo": 120.0
            },
            {
                "start_time": 25.279545454545453,
                "end_time": 25.661363636363635,
                "pitch": 50,
                "velocity": 64,
                "duration": 0.3818181818181827,
                "tempo": 120.0
            },
            {
                "start_time": 25.679545454545455,
                "end_time": 25.795454545454543,
                "pitch": 50,
                "velocity": 64,
                "duration": 0.11590909090908852,
                "tempo": 120.0
            },
            {
                "start_time": 25.813636363636363,
                "end_time": 25.929545454545455,
                "pitch": 50,
                "velocity": 64,
                "duration": 0.11590909090909207,
                "tempo": 120.0
            },
            {
                "start_time": 25.94772727272727,
                "end_time": 26.063636363636363,
                "pitch": 50,
                "velocity": 64,
                "duration": 0.11590909090909207,
                "tempo": 120.0
            },
            {
                "start_time": 26.081818181818182,
                "end_time": 26.33863636363636,
                "pitch": 50,
                "velocity": 64,
                "duration": 0.25681818181817917,
                "tempo": 120.0
            },
            {
                "start_time": 26.354545454545452,
                "end_time": 26.474999999999998,
                "pitch": 50,
                "velocity": 64,
                "duration": 0.12045454545454604,
                "tempo": 120.0
            },
            {
                "start_time": 26.493181818181817,
                "end_time": 27.270454545454545,
                "pitch": 50,
                "velocity": 64,
                "duration": 0.7772727272727273,
                "tempo": 120.0
            }
        ],
        "Synth Bass 1": [
            {
                "start_time": 3.1954545454545453,
                "end_time": 3.311363636363636,
                "pitch": 53,
                "velocity": 64,
                "duration": 0.11590909090909074,
                "tempo": 120.0
            },
            {
                "start_time": 3.3295454545454546,
                "end_time": 3.4477272727272728,
                "pitch": 52,
                "velocity": 64,
                "duration": 0.11818181818181817,
                "tempo": 120.0
            },
            {
                "start_time": 3.4636363636363634,
                "end_time": 3.5818181818181816,
                "pitch": 53,
                "velocity": 64,
                "duration": 0.11818181818181817,
                "tempo": 120.0
            },
            {
                "start_time": 3.5977272727272727,
                "end_time": 3.7136363636363634,
                "pitch": 55,
                "velocity": 64,
                "duration": 0.11590909090909074,
                "tempo": 120.0
            },
            {
                "start_time": 3.7318181818181815,
                "end_time": 3.8477272727272727,
                "pitch": 53,
                "velocity": 64,
                "duration": 0.11590909090909118,
                "tempo": 120.0
            },
            {
                "start_time": 3.8636363636363633,
                "end_time": 3.9818181818181815,
                "pitch": 52,
                "velocity": 64,
                "duration": 0.11818181818181817,
                "tempo": 120.0
            },
            {
                "start_time": 3.9977272727272726,
                "end_time": 4.113636363636363,
                "pitch": 53,
                "velocity": 64,
                "duration": 0.11590909090909074,
                "tempo": 120.0
            },
            {
                "start_time": 4.131818181818182,
                "end_time": 4.247727272727272,
                "pitch": 52,
                "velocity": 64,
                "duration": 0.1159090909090903,
                "tempo": 120.0
            },
            {
                "start_time": 4.263636363636364,
                "end_time": 4.381818181818182,
                "pitch": 53,
                "velocity": 64,
                "duration": 0.11818181818181817,
                "tempo": 120.0
            },
            {
                "start_time": 4.3977272727272725,
                "end_time": 4.515909090909091,
                "pitch": 55,
                "velocity": 64,
                "duration": 0.11818181818181817,
                "tempo": 120.0
            },
            {
                "start_time": 4.531818181818181,
                "end_time": 4.6499999999999995,
                "pitch": 53,
                "velocity": 64,
                "duration": 0.11818181818181817,
                "tempo": 120.0
            },
            {
                "start_time": 4.665909090909091,
                "end_time": 4.784090909090909,
                "pitch": 52,
                "velocity": 64,
                "duration": 0.11818181818181817,
                "tempo": 120.0
            },
            {
                "start_time": 6.406818181818181,
                "end_time": 6.5227272727272725,
                "pitch": 53,
                "velocity": 64,
                "duration": 0.11590909090909118,
                "tempo": 120.0
            },
            {
                "start_time": 6.540909090909091,
                "end_time": 6.656818181818181,
                "pitch": 52,
                "velocity": 64,
                "duration": 0.1159090909090903,
                "tempo": 120.0
            },
            {
                "start_time": 6.675,
                "end_time": 6.790909090909091,
                "pitch": 53,
                "velocity": 64,
                "duration": 0.11590909090909118,
                "tempo": 120.0
            },
            {
                "start_time": 6.809090909090909,
                "end_time": 6.925,
                "pitch": 55,
                "velocity": 64,
                "duration": 0.11590909090909118,
                "tempo": 120.0
            },
            {
                "start_time": 6.9409090909090905,
                "end_time": 7.059090909090909,
                "pitch": 53,
                "velocity": 64,
                "duration": 0.11818181818181817,
                "tempo": 120.0
            },
            {
                "start_time": 7.074999999999999,
                "end_time": 7.1909090909090905,
                "pitch": 52,
                "velocity": 64,
                "duration": 0.11590909090909118,
                "tempo": 120.0
            },
            {
                "start_time": 7.209090909090909,
                "end_time": 7.324999999999999,
                "pitch": 53,
                "velocity": 64,
                "duration": 0.1159090909090903,
                "tempo": 120.0
            },
            {
                "start_time": 7.343181818181818,
                "end_time": 7.459090909090909,
                "pitch": 52,
                "velocity": 64,
                "duration": 0.11590909090909118,
                "tempo": 120.0
            },
            {
                "start_time": 7.477272727272727,
                "end_time": 7.595454545454545,
                "pitch": 53,
                "velocity": 64,
                "duration": 0.11818181818181817,
                "tempo": 120.0
            },
            {
                "start_time": 7.611363636363636,
                "end_time": 7.727272727272727,
                "pitch": 55,
                "velocity": 64,
                "duration": 0.1159090909090903,
                "tempo": 120.0
            },
            {
                "start_time": 7.745454545454545,
                "end_time": 7.861363636363636,
                "pitch": 53,
                "velocity": 64,
                "duration": 0.11590909090909118,
                "tempo": 120.0
            },
            {
                "start_time": 7.877272727272727,
                "end_time": 7.995454545454545,
                "pitch": 52,
                "velocity": 64,
                "duration": 0.11818181818181817,
                "tempo": 120.0
            },
            {
                "start_time": 9.618181818181817,
                "end_time": 9.736363636363636,
                "pitch": 53,
                "velocity": 64,
                "duration": 0.11818181818181905,
                "tempo": 120.0
            },
            {
                "start_time": 9.752272727272727,
                "end_time": 9.870454545454544,
                "pitch": 52,
                "velocity": 64,
                "duration": 0.11818181818181728,
                "tempo": 120.0
            },
            {
                "start_time": 9.888636363636364,
                "end_time": 10.004545454545454,
                "pitch": 53,
                "velocity": 64,
                "duration": 0.1159090909090903,
                "tempo": 120.0
            },
            {
                "start_time": 10.022727272727272,
                "end_time": 10.138636363636364,
                "pitch": 55,
                "velocity": 64,
                "duration": 0.11590909090909207,
                "tempo": 120.0
            },
            {
                "start_time": 10.156818181818181,
                "end_time": 10.272727272727272,
                "pitch": 53,
                "velocity": 64,
                "duration": 0.1159090909090903,
                "tempo": 120.0
            },
            {
                "start_time": 10.290909090909091,
                "end_time": 10.406818181818181,
                "pitch": 52,
                "velocity": 64,
                "duration": 0.1159090909090903,
                "tempo": 120.0
            },
            {
                "start_time": 10.424999999999999,
                "end_time": 10.540909090909091,
                "pitch": 53,
                "velocity": 64,
                "duration": 0.11590909090909207,
                "tempo": 120.0
            },
            {
                "start_time": 10.559090909090909,
                "end_time": 10.677272727272726,
                "pitch": 52,
                "velocity": 64,
                "duration": 0.11818181818181728,
                "tempo": 120.0
            },
            {
                "start_time": 10.693181818181818,
                "end_time": 10.811363636363636,
                "pitch": 53,
                "velocity": 64,
                "duration": 0.11818181818181728,
                "tempo": 120.0
            },
            {
                "start_time": 10.827272727272726,
                "end_time": 10.945454545454545,
                "pitch": 55,
                "velocity": 64,
                "duration": 0.11818181818181905,
                "tempo": 120.0
            },
            {
                "start_time": 10.961363636363636,
                "end_time": 11.079545454545453,
                "pitch": 53,
                "velocity": 64,
                "duration": 0.11818181818181728,
                "tempo": 120.0
            },
            {
                "start_time": 11.095454545454546,
                "end_time": 11.213636363636363,
                "pitch": 52,
                "velocity": 64,
                "duration": 0.11818181818181728,
                "tempo": 120.0
            },
            {
                "start_time": 12.836363636363636,
                "end_time": 12.952272727272726,
                "pitch": 53,
                "velocity": 64,
                "duration": 0.1159090909090903,
                "tempo": 120.0
            },
            {
                "start_time": 12.970454545454546,
                "end_time": 13.086363636363636,
                "pitch": 52,
                "velocity": 64,
                "duration": 0.1159090909090903,
                "tempo": 120.0
            },
            {
                "start_time": 13.104545454545454,
                "end_time": 13.220454545454546,
                "pitch": 53,
                "velocity": 64,
                "duration": 0.11590909090909207,
                "tempo": 120.0
            },
            {
                "start_time": 13.238636363636363,
                "end_time": 13.354545454545454,
                "pitch": 55,
                "velocity": 64,
                "duration": 0.1159090909090903,
                "tempo": 120.0
            },
            {
                "start_time": 13.370454545454544,
                "end_time": 13.488636363636363,
                "pitch": 53,
                "velocity": 64,
                "duration": 0.11818181818181905,
                "tempo": 120.0
            },
            {
                "start_time": 13.504545454545454,
                "end_time": 13.620454545454544,
                "pitch": 52,
                "velocity": 64,
                "duration": 0.1159090909090903,
                "tempo": 120.0
            },
            {
                "start_time": 13.638636363636364,
                "end_time": 13.754545454545454,
                "pitch": 53,
                "velocity": 64,
                "duration": 0.1159090909090903,
                "tempo": 120.0
            },
            {
                "start_time": 13.772727272727272,
                "end_time": 13.89090909090909,
                "pitch": 52,
                "velocity": 64,
                "duration": 0.11818181818181905,
                "tempo": 120.0
            },
            {
                "start_time": 13.906818181818181,
                "end_time": 14.024999999999999,
                "pitch": 53,
                "velocity": 64,
                "duration": 0.11818181818181728,
                "tempo": 120.0
            },
            {
                "start_time": 14.040909090909091,
                "end_time": 14.159090909090908,
                "pitch": 55,
                "velocity": 64,
                "duration": 0.11818181818181728,
                "tempo": 120.0
            },
            {
                "start_time": 14.174999999999999,
                "end_time": 14.293181818181818,
                "pitch": 53,
                "velocity": 64,
                "duration": 0.11818181818181905,
                "tempo": 120.0
            },
            {
                "start_time": 14.309090909090909,
                "end_time": 14.427272727272726,
                "pitch": 52,
                "velocity": 64,
                "duration": 0.11818181818181728,
                "tempo": 120.0
            }
        ],
        "Oboe": [
            {
                "start_time": 0.015909090909090907,
                "end_time": 0.1159090909090909,
                "pitch": 79,
                "velocity": 80,
                "duration": 0.1,
                "tempo": 120.0
            },
            {
                "start_time": 0.1340909090909091,
                "end_time": 0.25,
                "pitch": 79,
                "velocity": 80,
                "duration": 0.1159090909090909,
                "tempo": 120.0
            },
            {
                "start_time": 0.2659090909090909,
                "end_time": 0.3840909090909091,
                "pitch": 79,
                "velocity": 80,
                "duration": 0.11818181818181822,
                "tempo": 120.0
            },
            {
                "start_time": 0.39999999999999997,
                "end_time": 0.6454545454545454,
                "pitch": 79,
                "velocity": 80,
                "duration": 0.24545454545454543,
                "tempo": 120.0
            },
            {
                "start_time": 0.6613636363636364,
                "end_time": 0.7749999999999999,
                "pitch": 79,
                "velocity": 80,
                "duration": 0.11363636363636354,
                "tempo": 120.0
            },
            {
                "start_time": 0.7931818181818181,
                "end_time": 0.9090909090909091,
                "pitch": 79,
                "velocity": 80,
                "duration": 0.11590909090909096,
                "tempo": 120.0
            },
            {
                "start_time": 0.9249999999999999,
                "end_time": 1.0431818181818182,
                "pitch": 79,
                "velocity": 80,
                "duration": 0.11818181818181828,
                "tempo": 120.0
            },
            {
                "start_time": 1.059090909090909,
                "end_time": 1.175,
                "pitch": 79,
                "velocity": 80,
                "duration": 0.11590909090909096,
                "tempo": 120.0
            },
            {
                "start_time": 1.1931818181818181,
                "end_time": 1.4431818181818181,
                "pitch": 79,
                "velocity": 80,
                "duration": 0.25,
                "tempo": 120.0
            },
            {
                "start_time": 1.459090909090909,
                "end_time": 1.575,
                "pitch": 79,
                "velocity": 80,
                "duration": 0.11590909090909096,
                "tempo": 120.0
            },
            {
                "start_time": 1.593181818181818,
                "end_time": 1.7113636363636362,
                "pitch": 62,
                "velocity": 80,
                "duration": 0.11818181818181817,
                "tempo": 120.0
            },
            {
                "start_time": 1.7295454545454545,
                "end_time": 1.8477272727272727,
                "pitch": 50,
                "velocity": 80,
                "duration": 0.11818181818181817,
                "tempo": 120.0
            },
            {
                "start_time": 1.8659090909090907,
                "end_time": 1.9863636363636363,
                "pitch": 62,
                "velocity": 80,
                "duration": 0.12045454545454559,
                "tempo": 120.0
            },
            {
                "start_time": 2.002272727272727,
                "end_time": 2.118181818181818,
                "pitch": 60,
                "velocity": 80,
                "duration": 0.11590909090909118,
                "tempo": 120.0
            },
            {
                "start_time": 2.134090909090909,
                "end_time": 2.2477272727272726,
                "pitch": 50,
                "velocity": 80,
                "duration": 0.11363636363636376,
                "tempo": 120.0
            },
            {
                "start_time": 2.2636363636363637,
                "end_time": 2.3795454545454544,
                "pitch": 60,
                "velocity": 80,
                "duration": 0.11590909090909074,
                "tempo": 120.0
            },
            {
                "start_time": 2.3954545454545455,
                "end_time": 2.5113636363636362,
                "pitch": 59,
                "velocity": 80,
                "duration": 0.11590909090909074,
                "tempo": 120.0
            },
            {
                "start_time": 2.5272727272727273,
                "end_time": 2.6454545454545455,
                "pitch": 50,
                "velocity": 80,
                "duration": 0.11818181818181817,
                "tempo": 120.0
            },
            {
                "start_time": 2.661363636363636,
                "end_time": 2.7772727272727273,
                "pitch": 59,
                "velocity": 80,
                "duration": 0.11590909090909118,
                "tempo": 120.0
            },
            {
                "start_time": 2.7954545454545454,
                "end_time": 2.911363636363636,
                "pitch": 56,
                "velocity": 80,
                "duration": 0.11590909090909074,
                "tempo": 120.0
            },
            {
                "start_time": 2.9272727272727272,
                "end_time": 3.0454545454545454,
                "pitch": 52,
                "velocity": 80,
                "duration": 0.11818181818181817,
                "tempo": 120.0
            },
            {
                "start_time": 3.061363636363636,
                "end_time": 3.1772727272727272,
                "pitch": 56,
                "velocity": 80,
                "duration": 0.11590909090909118,
                "tempo": 120.0
            },
            {
                "start_time": 3.1954545454545453,
                "end_time": 3.311363636363636,
                "pitch": 53,
                "velocity": 80,
                "duration": 0.11590909090909074,
                "tempo": 120.0
            },
            {
                "start_time": 3.3295454545454546,
                "end_time": 3.4477272727272728,
                "pitch": 52,
                "velocity": 80,
                "duration": 0.11818181818181817,
                "tempo": 120.0
            },
            {
                "start_time": 3.4636363636363634,
                "end_time": 3.5818181818181816,
                "pitch": 53,
                "velocity": 80,
                "duration": 0.11818181818181817,
                "tempo": 120.0
            },
            {
                "start_time": 3.5977272727272727,
                "end_time": 3.7136363636363634,
                "pitch": 55,
                "velocity": 80,
                "duration": 0.11590909090909074,
                "tempo": 120.0
            },
            {
                "start_time": 3.7318181818181815,
                "end_time": 3.8477272727272727,
                "pitch": 53,
                "velocity": 80,
                "duration": 0.11590909090909118,
                "tempo": 120.0
            },
            {
                "start_time": 3.8636363636363633,
                "end_time": 3.9818181818181815,
                "pitch": 52,
                "velocity": 80,
                "duration": 0.11818181818181817,
                "tempo": 120.0
            },
            {
                "start_time": 3.9977272727272726,
                "end_time": 4.113636363636363,
                "pitch": 53,
                "velocity": 80,
                "duration": 0.11590909090909074,
                "tempo": 120.0
            },
            {
                "start_time": 4.131818181818182,
                "end_time": 4.247727272727272,
                "pitch": 52,
                "velocity": 80,
                "duration": 0.1159090909090903,
                "tempo": 120.0
            },
            {
                "start_time": 4.263636363636364,
                "end_time": 4.381818181818182,
                "pitch": 53,
                "velocity": 80,
                "duration": 0.11818181818181817,
                "tempo": 120.0
            },
            {
                "start_time": 4.3977272727272725,
                "end_time": 4.515909090909091,
                "pitch": 55,
                "velocity": 80,
                "duration": 0.11818181818181817,
                "tempo": 120.0
            },
            {
                "start_time": 4.531818181818181,
                "end_time": 4.6499999999999995,
                "pitch": 53,
                "velocity": 80,
                "duration": 0.11818181818181817,
                "tempo": 120.0
            },
            {
                "start_time": 4.665909090909091,
                "end_time": 4.784090909090909,
                "pitch": 52,
                "velocity": 80,
                "duration": 0.11818181818181817,
                "tempo": 120.0
            },
            {
                "start_time": 4.8,
                "end_time": 4.915909090909091,
                "pitch": 62,
                "velocity": 80,
                "duration": 0.11590909090909118,
                "tempo": 120.0
            },
            {
                "start_time": 4.934090909090909,
                "end_time": 5.05,
                "pitch": 50,
                "velocity": 80,
                "duration": 0.11590909090909118,
                "tempo": 120.0
            },
            {
                "start_time": 5.0659090909090905,
                "end_time": 5.184090909090909,
                "pitch": 62,
                "velocity": 80,
                "duration": 0.11818181818181817,
                "tempo": 120.0
            },
            {
                "start_time": 5.2,
                "end_time": 5.318181818181818,
                "pitch": 60,
                "velocity": 80,
                "duration": 0.11818181818181817,
                "tempo": 120.0
            },
            {
                "start_time": 5.334090909090909,
                "end_time": 5.452272727272727,
                "pitch": 50,
                "velocity": 80,
                "duration": 0.11818181818181817,
                "tempo": 120.0
            },
            {
                "start_time": 5.468181818181818,
                "end_time": 5.586363636363636,
                "pitch": 60,
                "velocity": 80,
                "duration": 0.11818181818181817,
                "tempo": 120.0
            },
            {
                "start_time": 5.602272727272727,
                "end_time": 5.720454545454545,
                "pitch": 59,
                "velocity": 80,
                "duration": 0.11818181818181817,
                "tempo": 120.0
            },
            {
                "start_time": 5.736363636363636,
                "end_time": 5.852272727272727,
                "pitch": 50,
                "velocity": 80,
                "duration": 0.1159090909090903,
                "tempo": 120.0
            },
            {
                "start_time": 5.870454545454545,
                "end_time": 5.986363636363636,
                "pitch": 59,
                "velocity": 80,
                "duration": 0.11590909090909118,
                "tempo": 120.0
            },
            {
                "start_time": 6.002272727272727,
                "end_time": 6.120454545454545,
                "pitch": 56,
                "velocity": 80,
                "duration": 0.11818181818181817,
                "tempo": 120.0
            },
            {
                "start_time": 6.136363636363636,
                "end_time": 6.254545454545454,
                "pitch": 52,
                "velocity": 80,
                "duration": 0.11818181818181817,
                "tempo": 120.0
            },
            {
                "start_time": 6.2704545454545455,
                "end_time": 6.388636363636364,
                "pitch": 56,
                "velocity": 80,
                "duration": 0.11818181818181817,
                "tempo": 120.0
            },
            {
                "start_time": 6.406818181818181,
                "end_time": 6.5227272727272725,
                "pitch": 53,
                "velocity": 80,
                "duration": 0.11590909090909118,
                "tempo": 120.0
            },
            {
                "start_time": 6.540909090909091,
                "end_time": 6.656818181818181,
                "pitch": 52,
                "velocity": 80,
                "duration": 0.1159090909090903,
                "tempo": 120.0
            },
            {
                "start_time": 6.675,
                "end_time": 6.790909090909091,
                "pitch": 53,
                "velocity": 80,
                "duration": 0.11590909090909118,
                "tempo": 120.0
            },
            {
                "start_time": 6.809090909090909,
                "end_time": 6.925,
                "pitch": 55,
                "velocity": 80,
                "duration": 0.11590909090909118,
                "tempo": 120.0
            },
            {
                "start_time": 6.9409090909090905,
                "end_time": 7.059090909090909,
                "pitch": 53,
                "velocity": 80,
                "duration": 0.11818181818181817,
                "tempo": 120.0
            },
            {
                "start_time": 7.074999999999999,
                "end_time": 7.1909090909090905,
                "pitch": 52,
                "velocity": 80,
                "duration": 0.11590909090909118,
                "tempo": 120.0
            },
            {
                "start_time": 7.209090909090909,
                "end_time": 7.324999999999999,
                "pitch": 53,
                "velocity": 80,
                "duration": 0.1159090909090903,
                "tempo": 120.0
            },
            {
                "start_time": 7.343181818181818,
                "end_time": 7.459090909090909,
                "pitch": 52,
                "velocity": 80,
                "duration": 0.11590909090909118,
                "tempo": 120.0
            },
            {
                "start_time": 7.477272727272727,
                "end_time": 7.595454545454545,
                "pitch": 53,
                "velocity": 80,
                "duration": 0.11818181818181817,
                "tempo": 120.0
            },
            {
                "start_time": 7.611363636363636,
                "end_time": 7.727272727272727,
                "pitch": 55,
                "velocity": 80,
                "duration": 0.1159090909090903,
                "tempo": 120.0
            },
            {
                "start_time": 7.745454545454545,
                "end_time": 7.861363636363636,
                "pitch": 53,
                "velocity": 80,
                "duration": 0.11590909090909118,
                "tempo": 120.0
            },
            {
                "start_time": 7.877272727272727,
                "end_time": 7.995454545454545,
                "pitch": 52,
                "velocity": 80,
                "duration": 0.11818181818181817,
                "tempo": 120.0
            },
            {
                "start_time": 8.011363636363637,
                "end_time": 8.129545454545454,
                "pitch": 62,
                "velocity": 80,
                "duration": 0.11818181818181728,
                "tempo": 120.0
            },
            {
                "start_time": 8.145454545454545,
                "end_time": 8.263636363636364,
                "pitch": 50,
                "velocity": 80,
                "duration": 0.11818181818181905,
                "tempo": 120.0
            },
            {
                "start_time": 8.279545454545454,
                "end_time": 8.397727272727272,
                "pitch": 62,
                "velocity": 80,
                "duration": 0.11818181818181728,
                "tempo": 120.0
            },
            {
                "start_time": 8.413636363636364,
                "end_time": 8.531818181818181,
                "pitch": 60,
                "velocity": 80,
                "duration": 0.11818181818181728,
                "tempo": 120.0
            },
            {
                "start_time": 8.547727272727272,
                "end_time": 8.665909090909091,
                "pitch": 50,
                "velocity": 80,
                "duration": 0.11818181818181905,
                "tempo": 120.0
            },
            {
                "start_time": 8.681818181818182,
                "end_time": 8.799999999999999,
                "pitch": 60,
                "velocity": 80,
                "duration": 0.11818181818181728,
                "tempo": 120.0
            },
            {
                "start_time": 8.815909090909091,
                "end_time": 8.934090909090909,
                "pitch": 59,
                "velocity": 80,
                "duration": 0.11818181818181728,
                "tempo": 120.0
            },
            {
                "start_time": 8.95,
                "end_time": 9.068181818181818,
                "pitch": 50,
                "velocity": 80,
                "duration": 0.11818181818181905,
                "tempo": 120.0
            },
            {
                "start_time": 9.084090909090909,
                "end_time": 9.202272727272726,
                "pitch": 59,
                "velocity": 80,
                "duration": 0.11818181818181728,
                "tempo": 120.0
            },
            {
                "start_time": 9.218181818181817,
                "end_time": 9.336363636363636,
                "pitch": 56,
                "velocity": 80,
                "duration": 0.11818181818181905,
                "tempo": 120.0
            },
            {
                "start_time": 9.352272727272727,
                "end_time": 9.468181818181817,
                "pitch": 52,
                "velocity": 80,
                "duration": 0.1159090909090903,
                "tempo": 120.0
            },
            {
                "start_time": 9.486363636363636,
                "end_time": 9.602272727272727,
                "pitch": 56,
                "velocity": 80,
                "duration": 0.1159090909090903,
                "tempo": 120.0
            },
            {
                "start_time": 9.618181818181817,
                "end_time": 9.736363636363636,
                "pitch": 53,
                "velocity": 80,
                "duration": 0.11818181818181905,
                "tempo": 120.0
            },
            {
                "start_time": 9.752272727272727,
                "end_time": 9.870454545454544,
                "pitch": 52,
                "velocity": 80,
                "duration": 0.11818181818181728,
                "tempo": 120.0
            },
            {
                "start_time": 9.888636363636364,
                "end_time": 10.004545454545454,
                "pitch": 53,
                "velocity": 80,
                "duration": 0.1159090909090903,
                "tempo": 120.0
            },
            {
                "start_time": 10.022727272727272,
                "end_time": 10.138636363636364,
                "pitch": 55,
                "velocity": 80,
                "duration": 0.11590909090909207,
                "tempo": 120.0
            },
            {
                "start_time": 10.156818181818181,
                "end_time": 10.272727272727272,
                "pitch": 53,
                "velocity": 80,
                "duration": 0.1159090909090903,
                "tempo": 120.0
            },
            {
                "start_time": 10.290909090909091,
                "end_time": 10.406818181818181,
                "pitch": 52,
                "velocity": 80,
                "duration": 0.1159090909090903,
                "tempo": 120.0
            },
            {
                "start_time": 10.424999999999999,
                "end_time": 10.540909090909091,
                "pitch": 53,
                "velocity": 80,
                "duration": 0.11590909090909207,
                "tempo": 120.0
            },
            {
                "start_time": 10.559090909090909,
                "end_time": 10.677272727272726,
                "pitch": 52,
                "velocity": 80,
                "duration": 0.11818181818181728,
                "tempo": 120.0
            },
            {
                "start_time": 10.693181818181818,
                "end_time": 10.811363636363636,
                "pitch": 53,
                "velocity": 80,
                "duration": 0.11818181818181728,
                "tempo": 120.0
            },
            {
                "start_time": 10.827272727272726,
                "end_time": 10.945454545454545,
                "pitch": 55,
                "velocity": 80,
                "duration": 0.11818181818181905,
                "tempo": 120.0
            },
            {
                "start_time": 10.961363636363636,
                "end_time": 11.079545454545453,
                "pitch": 53,
                "velocity": 80,
                "duration": 0.11818181818181728,
                "tempo": 120.0
            },
            {
                "start_time": 11.095454545454546,
                "end_time": 11.213636363636363,
                "pitch": 52,
                "velocity": 80,
                "duration": 0.11818181818181728,
                "tempo": 120.0
            },
            {
                "start_time": 11.229545454545454,
                "end_time": 11.345454545454546,
                "pitch": 62,
                "velocity": 80,
                "duration": 0.11590909090909207,
                "tempo": 120.0
            },
            {
                "start_time": 11.363636363636363,
                "end_time": 11.479545454545454,
                "pitch": 50,
                "velocity": 80,
                "duration": 0.1159090909090903,
                "tempo": 120.0
            },
            {
                "start_time": 11.495454545454544,
                "end_time": 11.613636363636363,
                "pitch": 62,
                "velocity": 80,
                "duration": 0.11818181818181905,
                "tempo": 120.0
            },
            {
                "start_time": 11.629545454545454,
                "end_time": 11.743181818181817,
                "pitch": 60,
                "velocity": 80,
                "duration": 0.11363636363636331,
                "tempo": 120.0
            },
            {
                "start_time": 11.761363636363635,
                "end_time": 11.875,
                "pitch": 50,
                "velocity": 80,
                "duration": 0.11363636363636509,
                "tempo": 120.0
            },
            {
                "start_time": 11.89090909090909,
                "end_time": 12.004545454545454,
                "pitch": 60,
                "velocity": 80,
                "duration": 0.11363636363636331,
                "tempo": 120.0
            },
            {
                "start_time": 12.022727272727272,
                "end_time": 12.14090909090909,
                "pitch": 59,
                "velocity": 80,
                "duration": 0.11818181818181905,
                "tempo": 120.0
            },
            {
                "start_time": 12.159090909090908,
                "end_time": 12.279545454545454,
                "pitch": 50,
                "velocity": 80,
                "duration": 0.12045454545454604,
                "tempo": 120.0
            },
            {
                "start_time": 12.295454545454545,
                "end_time": 12.415909090909091,
                "pitch": 59,
                "velocity": 80,
                "duration": 0.12045454545454604,
                "tempo": 120.0
            },
            {
                "start_time": 12.431818181818182,
                "end_time": 12.549999999999999,
                "pitch": 56,
                "velocity": 80,
                "duration": 0.11818181818181728,
                "tempo": 120.0
            },
            {
                "start_time": 12.568181818181818,
                "end_time": 12.684090909090909,
                "pitch": 52,
                "velocity": 80,
                "duration": 0.1159090909090903,
                "tempo": 120.0
            },
            {
                "start_time": 12.702272727272726,
                "end_time": 12.818181818181818,
                "pitch": 56,
                "velocity": 80,
                "duration": 0.11590909090909207,
                "tempo": 120.0
            },
            {
                "start_time": 12.836363636363636,
                "end_time": 12.952272727272726,
                "pitch": 53,
                "velocity": 80,
                "duration": 0.1159090909090903,
                "tempo": 120.0
            },
            {
                "start_time": 12.970454545454546,
                "end_time": 13.086363636363636,
                "pitch": 52,
                "velocity": 80,
                "duration": 0.1159090909090903,
                "tempo": 120.0
            },
            {
                "start_time": 13.104545454545454,
                "end_time": 13.220454545454546,
                "pitch": 53,
                "velocity": 80,
                "duration": 0.11590909090909207,
                "tempo": 120.0
            },
            {
                "start_time": 13.238636363636363,
                "end_time": 13.354545454545454,
                "pitch": 55,
                "velocity": 80,
                "duration": 0.1159090909090903,
                "tempo": 120.0
            },
            {
                "start_time": 13.370454545454544,
                "end_time": 13.488636363636363,
                "pitch": 53,
                "velocity": 80,
                "duration": 0.11818181818181905,
                "tempo": 120.0
            },
            {
                "start_time": 13.504545454545454,
                "end_time": 13.620454545454544,
                "pitch": 52,
                "velocity": 80,
                "duration": 0.1159090909090903,
                "tempo": 120.0
            },
            {
                "start_time": 13.638636363636364,
                "end_time": 13.754545454545454,
                "pitch": 53,
                "velocity": 80,
                "duration": 0.1159090909090903,
                "tempo": 120.0
            },
            {
                "start_time": 13.772727272727272,
                "end_time": 13.89090909090909,
                "pitch": 52,
                "velocity": 80,
                "duration": 0.11818181818181905,
                "tempo": 120.0
            },
            {
                "start_time": 13.906818181818181,
                "end_time": 14.024999999999999,
                "pitch": 53,
                "velocity": 80,
                "duration": 0.11818181818181728,
                "tempo": 120.0
            },
            {
                "start_time": 14.040909090909091,
                "end_time": 14.159090909090908,
                "pitch": 55,
                "velocity": 80,
                "duration": 0.11818181818181728,
                "tempo": 120.0
            },
            {
                "start_time": 14.174999999999999,
                "end_time": 14.293181818181818,
                "pitch": 53,
                "velocity": 80,
                "duration": 0.11818181818181905,
                "tempo": 120.0
            },
            {
                "start_time": 14.309090909090909,
                "end_time": 14.427272727272726,
                "pitch": 52,
                "velocity": 80,
                "duration": 0.11818181818181728,
                "tempo": 120.0
            },
            {
                "start_time": 14.443181818181818,
                "end_time": 14.561363636363636,
                "pitch": 56,
                "velocity": 80,
                "duration": 0.11818181818181728,
                "tempo": 120.0
            },
            {
                "start_time": 14.577272727272726,
                "end_time": 14.695454545454545,
                "pitch": 52,
                "velocity": 80,
                "duration": 0.11818181818181905,
                "tempo": 120.0
            },
            {
                "start_time": 14.711363636363636,
                "end_time": 14.829545454545453,
                "pitch": 56,
                "velocity": 80,
                "duration": 0.11818181818181728,
                "tempo": 120.0
            },
            {
                "start_time": 14.845454545454544,
                "end_time": 14.963636363636363,
                "pitch": 53,
                "velocity": 80,
                "duration": 0.11818181818181905,
                "tempo": 120.0
            },
            {
                "start_time": 14.979545454545454,
                "end_time": 15.097727272727273,
                "pitch": 50,
                "velocity": 80,
                "duration": 0.11818181818181905,
                "tempo": 120.0
            },
            {
                "start_time": 15.113636363636363,
                "end_time": 15.23181818181818,
                "pitch": 53,
                "velocity": 80,
                "duration": 0.11818181818181728,
                "tempo": 120.0
            },
            {
                "start_time": 15.25,
                "end_time": 15.36590909090909,
                "pitch": 56,
                "velocity": 80,
                "duration": 0.1159090909090903,
                "tempo": 120.0
            },
            {
                "start_time": 15.381818181818181,
                "end_time": 15.5,
                "pitch": 52,
                "velocity": 80,
                "duration": 0.11818181818181905,
                "tempo": 120.0
            },
            {
                "start_time": 15.51590909090909,
                "end_time": 15.631818181818181,
                "pitch": 56,
                "velocity": 80,
                "duration": 0.1159090909090903,
                "tempo": 120.0
            },
            {
                "start_time": 15.649999999999999,
                "end_time": 15.76590909090909,
                "pitch": 53,
                "velocity": 80,
                "duration": 0.11590909090909207,
                "tempo": 120.0
            },
            {
                "start_time": 15.784090909090908,
                "end_time": 15.899999999999999,
                "pitch": 50,
                "velocity": 80,
                "duration": 0.1159090909090903,
                "tempo": 120.0
            },
            {
                "start_time": 15.918181818181818,
                "end_time": 16.03409090909091,
                "pitch": 53,
                "velocity": 80,
                "duration": 0.11590909090909207,
                "tempo": 120.0
            },
            {
                "start_time": 16.052272727272726,
                "end_time": 16.168181818181818,
                "pitch": 50,
                "velocity": 80,
                "duration": 0.11590909090909207,
                "tempo": 120.0
            },
            {
                "start_time": 16.186363636363634,
                "end_time": 16.302272727272726,
                "pitch": 52,
                "velocity": 80,
                "duration": 0.11590909090909207,
                "tempo": 120.0
            },
            {
                "start_time": 16.320454545454545,
                "end_time": 16.438636363636363,
                "pitch": 53,
                "velocity": 80,
                "duration": 0.11818181818181728,
                "tempo": 120.0
            },
            {
                "start_time": 16.454545454545453,
                "end_time": 16.570454545454545,
                "pitch": 56,
                "velocity": 80,
                "duration": 0.11590909090909207,
                "tempo": 120.0
            },
            {
                "start_time": 16.58863636363636,
                "end_time": 16.704545454545453,
                "pitch": 53,
                "velocity": 80,
                "duration": 0.11590909090909207,
                "tempo": 120.0
            },
            {
                "start_time": 16.720454545454544,
                "end_time": 16.83863636363636,
                "pitch": 56,
                "velocity": 80,
                "duration": 0.11818181818181728,
                "tempo": 120.0
            },
            {
                "start_time": 16.854545454545455,
                "end_time": 17.64090909090909,
                "pitch": 57,
                "velocity": 80,
                "duration": 0.7863636363636353,
                "tempo": 120.0
            },
            {
                "start_time": 17.65681818181818,
                "end_time": 17.777272727272727,
                "pitch": 56,
                "velocity": 80,
                "duration": 0.12045454545454604,
                "tempo": 120.0
            },
            {
                "start_time": 17.793181818181818,
                "end_time": 17.913636363636364,
                "pitch": 52,
                "velocity": 80,
                "duration": 0.12045454545454604,
                "tempo": 120.0
            },
            {
                "start_time": 17.93181818181818,
                "end_time": 18.05,
                "pitch": 56,
                "velocity": 80,
                "duration": 0.11818181818182083,
                "tempo": 120.0
            },
            {
                "start_time": 18.068181818181817,
                "end_time": 18.18181818181818,
                "pitch": 53,
                "velocity": 80,
                "duration": 0.11363636363636331,
                "tempo": 120.0
            },
            {
                "start_time": 18.19772727272727,
                "end_time": 18.313636363636363,
                "pitch": 50,
                "velocity": 80,
                "duration": 0.11590909090909207,
                "tempo": 120.0
            },
            {
                "start_time": 18.329545454545453,
                "end_time": 18.443181818181817,
                "pitch": 53,
                "velocity": 80,
                "duration": 0.11363636363636331,
                "tempo": 120.0
            },
            {
                "start_time": 18.459090909090907,
                "end_time": 18.577272727272728,
                "pitch": 56,
                "velocity": 80,
                "duration": 0.11818181818182083,
                "tempo": 120.0
            },
            {
                "start_time": 18.59318181818182,
                "end_time": 18.709090909090907,
                "pitch": 52,
                "velocity": 80,
                "duration": 0.11590909090908852,
                "tempo": 120.0
            },
            {
                "start_time": 18.727272727272727,
                "end_time": 18.84318181818182,
                "pitch": 56,
                "velocity": 80,
                "duration": 0.11590909090909207,
                "tempo": 120.0
            },
            {
                "start_time": 18.85909090909091,
                "end_time": 18.977272727272727,
                "pitch": 53,
                "velocity": 80,
                "duration": 0.11818181818181728,
                "tempo": 120.0
            },
            {
                "start_time": 18.993181818181817,
                "end_time": 19.111363636363635,
                "pitch": 50,
                "velocity": 80,
                "duration": 0.11818181818181728,
                "tempo": 120.0
            },
            {
                "start_time": 19.127272727272725,
                "end_time": 19.245454545454546,
                "pitch": 53,
                "velocity": 80,
                "duration": 0.11818181818182083,
                "tempo": 120.0
            },
            {
                "start_time": 19.263636363636362,
                "end_time": 19.379545454545454,
                "pitch": 50,
                "velocity": 80,
                "duration": 0.11590909090909207,
                "tempo": 120.0
            },
            {
                "start_time": 19.395454545454545,
                "end_time": 19.513636363636362,
                "pitch": 52,
                "velocity": 80,
                "duration": 0.11818181818181728,
                "tempo": 120.0
            },
            {
                "start_time": 19.529545454545453,
                "end_time": 19.645454545454545,
                "pitch": 53,
                "velocity": 80,
                "duration": 0.11590909090909207,
                "tempo": 120.0
            },
            {
                "start_time": 19.663636363636364,
                "end_time": 19.779545454545453,
                "pitch": 56,
                "velocity": 80,
                "duration": 0.11590909090908852,
                "tempo": 120.0
            },
            {
                "start_time": 19.797727272727272,
                "end_time": 19.913636363636364,
                "pitch": 53,
                "velocity": 80,
                "duration": 0.11590909090909207,
                "tempo": 120.0
            },
            {
                "start_time": 19.93181818181818,
                "end_time": 20.047727272727272,
                "pitch": 56,
                "velocity": 80,
                "duration": 0.11590909090909207,
                "tempo": 120.0
            },
            {
                "start_time": 20.06590909090909,
                "end_time": 20.847727272727273,
                "pitch": 57,
                "velocity": 80,
                "duration": 0.7818181818181813,
                "tempo": 120.0
            },
            {
                "start_time": 20.86590909090909,
                "end_time": 20.98181818181818,
                "pitch": 68,
                "velocity": 80,
                "duration": 0.11590909090909207,
                "tempo": 120.0
            },
            {
                "start_time": 21.0,
                "end_time": 21.11590909090909,
                "pitch": 64,
                "velocity": 80,
                "duration": 0.11590909090908852,
                "tempo": 120.0
            },
            {
                "start_time": 21.134090909090908,
                "end_time": 21.25,
                "pitch": 68,
                "velocity": 80,
                "duration": 0.11590909090909207,
                "tempo": 120.0
            },
            {
                "start_time": 21.268181818181816,
                "end_time": 21.384090909090908,
                "pitch": 65,
                "velocity": 80,
                "duration": 0.11590909090909207,
                "tempo": 120.0
            },
            {
                "start_time": 21.402272727272727,
                "end_time": 21.518181818181816,
                "pitch": 62,
                "velocity": 80,
                "duration": 0.11590909090908852,
                "tempo": 120.0
            },
            {
                "start_time": 21.534090909090907,
                "end_time": 21.652272727272727,
                "pitch": 65,
                "velocity": 80,
                "duration": 0.11818181818182083,
                "tempo": 120.0
            },
            {
                "start_time": 21.668181818181818,
                "end_time": 21.786363636363635,
                "pitch": 68,
                "velocity": 80,
                "duration": 0.11818181818181728,
                "tempo": 120.0
            },
            {
                "start_time": 21.802272727272726,
                "end_time": 21.920454545454543,
                "pitch": 64,
                "velocity": 80,
                "duration": 0.11818181818181728,
                "tempo": 120.0
            },
            {
                "start_time": 21.936363636363634,
                "end_time": 22.054545454545455,
                "pitch": 68,
                "velocity": 80,
                "duration": 0.11818181818182083,
                "tempo": 120.0
            },
            {
                "start_time": 22.070454545454545,
                "end_time": 22.186363636363634,
                "pitch": 65,
                "velocity": 80,
                "duration": 0.11590909090908852,
                "tempo": 120.0
            },
            {
                "start_time": 22.204545454545453,
                "end_time": 22.320454545454545,
                "pitch": 62,
                "velocity": 80,
                "duration": 0.11590909090909207,
                "tempo": 120.0
            },
            {
                "start_time": 22.336363636363636,
                "end_time": 22.454545454545453,
                "pitch": 65,
                "velocity": 80,
                "duration": 0.11818181818181728,
                "tempo": 120.0
            },
            {
                "start_time": 22.470454545454544,
                "end_time": 22.586363636363636,
                "pitch": 62,
                "velocity": 80,
                "duration": 0.11590909090909207,
                "tempo": 120.0
            },
            {
                "start_time": 22.604545454545452,
                "end_time": 22.720454545454544,
                "pitch": 64,
                "velocity": 80,
                "duration": 0.11590909090909207,
                "tempo": 120.0
            },
            {
                "start_time": 22.736363636363635,
                "end_time": 22.854545454545452,
                "pitch": 65,
                "velocity": 80,
                "duration": 0.11818181818181728,
                "tempo": 120.0
            },
            {
                "start_time": 22.870454545454546,
                "end_time": 22.988636363636363,
                "pitch": 68,
                "velocity": 80,
                "duration": 0.11818181818181728,
                "tempo": 120.0
            },
            {
                "start_time": 23.004545454545454,
                "end_time": 23.12272727272727,
                "pitch": 65,
                "velocity": 80,
                "duration": 0.11818181818181728,
                "tempo": 120.0
            },
            {
                "start_time": 23.138636363636362,
                "end_time": 23.25681818181818,
                "pitch": 68,
                "velocity": 80,
                "duration": 0.11818181818181728,
                "tempo": 120.0
            },
            {
                "start_time": 23.272727272727273,
                "end_time": 24.05909090909091,
                "pitch": 69,
                "velocity": 80,
                "duration": 0.7863636363636353,
                "tempo": 120.0
            },
            {
                "start_time": 24.075,
                "end_time": 24.193181818181817,
                "pitch": 80,
                "velocity": 80,
                "duration": 0.11818181818181728,
                "tempo": 120.0
            },
            {
                "start_time": 24.209090909090907,
                "end_time": 24.325,
                "pitch": 76,
                "velocity": 80,
                "duration": 0.11590909090909207,
                "tempo": 120.0
            },
            {
                "start_time": 24.34318181818182,
                "end_time": 24.459090909090907,
                "pitch": 80,
                "velocity": 80,
                "duration": 0.11590909090908852,
                "tempo": 120.0
            },
            {
                "start_time": 24.474999999999998,
                "end_time": 24.59318181818182,
                "pitch": 77,
                "velocity": 80,
                "duration": 0.11818181818182083,
                "tempo": 120.0
            },
            {
                "start_time": 24.60909090909091,
                "end_time": 24.724999999999998,
                "pitch": 74,
                "velocity": 80,
                "duration": 0.11590909090908852,
                "tempo": 120.0
            },
            {
                "start_time": 24.743181818181817,
                "end_time": 24.85909090909091,
                "pitch": 77,
                "velocity": 80,
                "duration": 0.11590909090909207,
                "tempo": 120.0
            },
            {
                "start_time": 24.875,
                "end_time": 24.993181818181817,
                "pitch": 80,
                "velocity": 80,
                "duration": 0.11818181818181728,
                "tempo": 120.0
            },
            {
                "start_time": 25.009090909090908,
                "end_time": 25.127272727272725,
                "pitch": 76,
                "velocity": 80,
                "duration": 0.11818181818181728,
                "tempo": 120.0
            },
            {
                "start_time": 25.145454545454545,
                "end_time": 25.261363636363637,
                "pitch": 80,
                "velocity": 80,
                "duration": 0.11590909090909207,
                "tempo": 120.0
            },
            {
                "start_time": 25.279545454545453,
                "end_time": 25.395454545454545,
                "pitch": 77,
                "velocity": 80,
                "duration": 0.11590909090909207,
                "tempo": 120.0
            },
            {
                "start_time": 25.411363636363635,
                "end_time": 25.529545454545453,
                "pitch": 74,
                "velocity": 80,
                "duration": 0.11818181818181728,
                "tempo": 120.0
            },
            {
                "start_time": 25.545454545454543,
                "end_time": 25.661363636363635,
                "pitch": 77,
                "velocity": 80,
                "duration": 0.11590909090909207,
                "tempo": 120.0
            },
            {
                "start_time": 25.679545454545455,
                "end_time": 25.795454545454543,
                "pitch": 74,
                "velocity": 80,
                "duration": 0.11590909090908852,
                "tempo": 120.0
            },
            {
                "start_time": 25.813636363636363,
                "end_time": 25.929545454545455,
                "pitch": 76,
                "velocity": 80,
                "duration": 0.11590909090909207,
                "tempo": 120.0
            },
            {
                "start_time": 25.94772727272727,
                "end_time": 26.063636363636363,
                "pitch": 77,
                "velocity": 80,
                "duration": 0.11590909090909207,
                "tempo": 120.0
            },
            {
                "start_time": 26.081818181818182,
                "end_time": 26.2,
                "pitch": 80,
                "velocity": 80,
                "duration": 0.11818181818181728,
                "tempo": 120.0
            },
            {
                "start_time": 26.218181818181815,
                "end_time": 26.33863636363636,
                "pitch": 77,
                "velocity": 80,
                "duration": 0.12045454545454604,
                "tempo": 120.0
            },
            {
                "start_time": 26.354545454545452,
                "end_time": 26.474999999999998,
                "pitch": 80,
                "velocity": 80,
                "duration": 0.12045454545454604,
                "tempo": 120.0
            },
            {
                "start_time": 26.493181818181817,
                "end_time": 27.270454545454545,
                "pitch": 81,
                "velocity": 80,
                "duration": 0.7772727272727273,
                "tempo": 120.0
            }
        ],
        "Harpsichord": [
            {
                "start_time": 27.286363636363635,
                "end_time": 27.404545454545453,
                "pitch": 53,
                "velocity": 80,
                "duration": 0.11818181818181728,
                "tempo": 120.0
            },
            {
                "start_time": 27.420454545454543,
                "end_time": 27.536363636363635,
                "pitch": 50,
                "velocity": 80,
                "duration": 0.11590909090909207,
                "tempo": 120.0
            },
            {
                "start_time": 27.554545454545455,
                "end_time": 27.670454545454543,
                "pitch": 50,
                "velocity": 80,
                "duration": 0.11590909090908852,
                "tempo": 120.0
            },
            {
                "start_time": 27.686363636363634,
                "end_time": 28.07272727272727,
                "pitch": 50,
                "velocity": 80,
                "duration": 0.3863636363636367,
                "tempo": 120.0
            },
            {
                "start_time": 28.08863636363636,
                "end_time": 28.206818181818182,
                "pitch": 55,
                "velocity": 80,
                "duration": 0.11818181818182083,
                "tempo": 120.0
            },
            {
                "start_time": 28.222727272727273,
                "end_time": 28.33863636363636,
                "pitch": 50,
                "velocity": 80,
                "duration": 0.11590909090908852,
                "tempo": 120.0
            },
            {
                "start_time": 28.35681818181818,
                "end_time": 28.472727272727273,
                "pitch": 50,
                "velocity": 80,
                "duration": 0.11590909090909207,
                "tempo": 120.0
            },
            {
                "start_time": 28.488636363636363,
                "end_time": 28.87272727272727,
                "pitch": 50,
                "velocity": 80,
                "duration": 0.38409090909090793,
                "tempo": 120.0
            },
            {
                "start_time": 28.888636363636362,
                "end_time": 29.00681818181818,
                "pitch": 57,
                "velocity": 80,
                "duration": 0.11818181818181728,
                "tempo": 120.0
            },
            {
                "start_time": 29.02272727272727,
                "end_time": 29.14090909090909,
                "pitch": 50,
                "velocity": 80,
                "duration": 0.11818181818182083,
                "tempo": 120.0
            },
            {
                "start_time": 29.159090909090907,
                "end_time": 29.275,
                "pitch": 50,
                "velocity": 80,
                "duration": 0.11590909090909207,
                "tempo": 120.0
            },
            {
                "start_time": 29.293181818181818,
                "end_time": 29.409090909090907,
                "pitch": 56,
                "velocity": 80,
                "duration": 0.11590909090908852,
                "tempo": 120.0
            },
            {
                "start_time": 29.424999999999997,
                "end_time": 29.543181818181818,
                "pitch": 50,
                "velocity": 80,
                "duration": 0.11818181818182083,
                "tempo": 120.0
            },
            {
                "start_time": 29.55909090909091,
                "end_time": 29.674999999999997,
                "pitch": 50,
                "velocity": 80,
                "duration": 0.11590909090908852,
                "tempo": 120.0
            },
            {
                "start_time": 29.693181818181817,
                "end_time": 29.80909090909091,
                "pitch": 55,
                "velocity": 80,
                "duration": 0.11590909090909207,
                "tempo": 120.0
            },
            {
                "start_time": 29.827272727272724,
                "end_time": 29.943181818181817,
                "pitch": 50,
                "velocity": 80,
                "duration": 0.11590909090909207,
                "tempo": 120.0
            },
            {
                "start_time": 29.961363636363636,
                "end_time": 30.077272727272724,
                "pitch": 50,
                "velocity": 80,
                "duration": 0.11590909090908852,
                "tempo": 120.0
            },
            {
                "start_time": 30.095454545454544,
                "end_time": 30.477272727272727,
                "pitch": 48,
                "velocity": 80,
                "duration": 0.3818181818181827,
                "tempo": 120.0
            },
            {
                "start_time": 30.495454545454542,
                "end_time": 30.611363636363635,
                "pitch": 53,
                "velocity": 80,
                "duration": 0.11590909090909207,
                "tempo": 120.0
            },
            {
                "start_time": 30.627272727272725,
                "end_time": 30.745454545454542,
                "pitch": 50,
                "velocity": 80,
                "duration": 0.11818181818181728,
                "tempo": 120.0
            },
            {
                "start_time": 30.761363636363633,
                "end_time": 30.877272727272725,
                "pitch": 50,
                "velocity": 80,
                "duration": 0.11590909090909207,
                "tempo": 120.0
            },
            {
                "start_time": 30.895454545454545,
                "end_time": 31.28181818181818,
                "pitch": 50,
                "velocity": 80,
                "duration": 0.3863636363636367,
                "tempo": 120.0
            },
            {
                "start_time": 31.297727272727272,
                "end_time": 31.41363636363636,
                "pitch": 55,
                "velocity": 80,
                "duration": 0.11590909090908852,
                "tempo": 120.0
            },
            {
                "start_time": 31.43181818181818,
                "end_time": 31.547727272727272,
                "pitch": 50,
                "velocity": 80,
                "duration": 0.11590909090909207,
                "tempo": 120.0
            },
            {
                "start_time": 31.563636363636363,
                "end_time": 31.68181818181818,
                "pitch": 50,
                "velocity": 80,
                "duration": 0.11818181818181728,
                "tempo": 120.0
            },
            {
                "start_time": 31.69772727272727,
                "end_time": 32.08409090909091,
                "pitch": 50,
                "velocity": 80,
                "duration": 0.38636363636364024,
                "tempo": 120.0
            },
            {
                "start_time": 32.1,
                "end_time": 32.215909090909086,
                "pitch": 57,
                "velocity": 80,
                "duration": 0.11590909090908497,
                "tempo": 120.0
            },
            {
                "start_time": 32.23409090909091,
                "end_time": 32.35,
                "pitch": 50,
                "velocity": 80,
                "duration": 0.11590909090909207,
                "tempo": 120.0
            },
            {
                "start_time": 32.36590909090909,
                "end_time": 32.48409090909091,
                "pitch": 50,
                "velocity": 80,
                "duration": 0.11818181818181728,
                "tempo": 120.0
            },
            {
                "start_time": 32.5,
                "end_time": 32.61590909090909,
                "pitch": 56,
                "velocity": 80,
                "duration": 0.11590909090909207,
                "tempo": 120.0
            },
            {
                "start_time": 32.63409090909091,
                "end_time": 32.75,
                "pitch": 50,
                "velocity": 80,
                "duration": 0.11590909090909207,
                "tempo": 120.0
            },
            {
                "start_time": 32.76590909090909,
                "end_time": 32.88409090909091,
                "pitch": 50,
                "velocity": 80,
                "duration": 0.11818181818181728,
                "tempo": 120.0
            },
            {
                "start_time": 32.9,
                "end_time": 33.01590909090909,
                "pitch": 55,
                "velocity": 80,
                "duration": 0.11590909090909207,
                "tempo": 120.0
            },
            {
                "start_time": 33.03409090909091,
                "end_time": 33.15,
                "pitch": 50,
                "velocity": 80,
                "duration": 0.11590909090909207,
                "tempo": 120.0
            },
            {
                "start_time": 33.16590909090909,
                "end_time": 33.28409090909091,
                "pitch": 50,
                "velocity": 80,
                "duration": 0.11818181818181728,
                "tempo": 120.0
            },
            {
                "start_time": 33.3,
                "end_time": 33.68636363636364,
                "pitch": 48,
                "velocity": 80,
                "duration": 0.38636363636364024,
                "tempo": 120.0
            },
            {
                "start_time": 33.70227272727273,
                "end_time": 33.820454545454545,
                "pitch": 62,
                "velocity": 80,
                "duration": 0.11818181818181728,
                "tempo": 120.0
            },
            {
                "start_time": 33.836363636363636,
                "end_time": 33.95227272727273,
                "pitch": 50,
                "velocity": 80,
                "duration": 0.11590909090909207,
                "tempo": 120.0
            }
        ],
        "Vibraphone": [
            {
                "start_time": 0.015909090909090907,
                "end_time": 0.1159090909090909,
                "pitch": 72,
                "velocity": 25,
                "duration": 0.1,
                "tempo": 120.0
            },
            {
                "start_time": 0.1340909090909091,
                "end_time": 0.25,
                "pitch": 72,
                "velocity": 25,
                "duration": 0.1159090909090909,
                "tempo": 120.0
            },
            {
                "start_time": 0.2659090909090909,
                "end_time": 0.3840909090909091,
                "pitch": 72,
                "velocity": 25,
                "duration": 0.11818181818181822,
                "tempo": 120.0
            },
            {
                "start_time": 0.39999999999999997,
                "end_time": 0.6454545454545454,
                "pitch": 72,
                "velocity": 25,
                "duration": 0.24545454545454543,
                "tempo": 120.0
            },
            {
                "start_time": 0.6613636363636364,
                "end_time": 0.7749999999999999,
                "pitch": 72,
                "velocity": 25,
                "duration": 0.11363636363636354,
                "tempo": 120.0
            },
            {
                "start_time": 0.7931818181818181,
                "end_time": 0.9090909090909091,
                "pitch": 72,
                "velocity": 25,
                "duration": 0.11590909090909096,
                "tempo": 120.0
            },
            {
                "start_time": 0.9249999999999999,
                "end_time": 1.0431818181818182,
                "pitch": 72,
                "velocity": 25,
                "duration": 0.11818181818181828,
                "tempo": 120.0
            },
            {
                "start_time": 1.059090909090909,
                "end_time": 1.175,
                "pitch": 72,
                "velocity": 25,
                "duration": 0.11590909090909096,
                "tempo": 120.0
            },
            {
                "start_time": 1.1931818181818181,
                "end_time": 1.4431818181818181,
                "pitch": 72,
                "velocity": 25,
                "duration": 0.25,
                "tempo": 120.0
            },
            {
                "start_time": 1.459090909090909,
                "end_time": 1.575,
                "pitch": 72,
                "velocity": 25,
                "duration": 0.11590909090909096,
                "tempo": 120.0
            },
            {
                "start_time": 1.593181818181818,
                "end_time": 1.7113636363636362,
                "pitch": 69,
                "velocity": 25,
                "duration": 0.11818181818181817,
                "tempo": 120.0
            },
            {
                "start_time": 1.7295454545454545,
                "end_time": 1.8477272727272727,
                "pitch": 69,
                "velocity": 25,
                "duration": 0.11818181818181817,
                "tempo": 120.0
            },
            {
                "start_time": 1.8659090909090907,
                "end_time": 1.9863636363636363,
                "pitch": 69,
                "velocity": 25,
                "duration": 0.12045454545454559,
                "tempo": 120.0
            },
            {
                "start_time": 2.002272727272727,
                "end_time": 2.118181818181818,
                "pitch": 67,
                "velocity": 25,
                "duration": 0.11590909090909118,
                "tempo": 120.0
            },
            {
                "start_time": 2.134090909090909,
                "end_time": 2.2477272727272726,
                "pitch": 67,
                "velocity": 25,
                "duration": 0.11363636363636376,
                "tempo": 120.0
            },
            {
                "start_time": 2.2636363636363637,
                "end_time": 2.3795454545454544,
                "pitch": 67,
                "velocity": 25,
                "duration": 0.11590909090909074,
                "tempo": 120.0
            },
            {
                "start_time": 2.3954545454545455,
                "end_time": 2.5113636363636362,
                "pitch": 66,
                "velocity": 25,
                "duration": 0.11590909090909074,
                "tempo": 120.0
            },
            {
                "start_time": 2.5272727272727273,
                "end_time": 2.6454545454545455,
                "pitch": 66,
                "velocity": 25,
                "duration": 0.11818181818181817,
                "tempo": 120.0
            },
            {
                "start_time": 2.661363636363636,
                "end_time": 2.7772727272727273,
                "pitch": 66,
                "velocity": 25,
                "duration": 0.11590909090909118,
                "tempo": 120.0
            },
            {
                "start_time": 2.7954545454545454,
                "end_time": 2.911363636363636,
                "pitch": 64,
                "velocity": 25,
                "duration": 0.11590909090909074,
                "tempo": 120.0
            },
            {
                "start_time": 2.9272727272727272,
                "end_time": 3.0454545454545454,
                "pitch": 59,
                "velocity": 25,
                "duration": 0.11818181818181817,
                "tempo": 120.0
            },
            {
                "start_time": 3.061363636363636,
                "end_time": 3.1113636363636363,
                "pitch": 64,
                "velocity": 25,
                "duration": 0.050000000000000266,
                "tempo": 120.0
            },
            {
                "start_time": 4.8,
                "end_time": 4.915909090909091,
                "pitch": 69,
                "velocity": 25,
                "duration": 0.11590909090909118,
                "tempo": 120.0
            },
            {
                "start_time": 4.934090909090909,
                "end_time": 5.05,
                "pitch": 69,
                "velocity": 25,
                "duration": 0.11590909090909118,
                "tempo": 120.0
            },
            {
                "start_time": 5.0659090909090905,
                "end_time": 5.184090909090909,
                "pitch": 69,
                "velocity": 25,
                "duration": 0.11818181818181817,
                "tempo": 120.0
            },
            {
                "start_time": 5.2,
                "end_time": 5.318181818181818,
                "pitch": 67,
                "velocity": 25,
                "duration": 0.11818181818181817,
                "tempo": 120.0
            },
            {
                "start_time": 5.334090909090909,
                "end_time": 5.452272727272727,
                "pitch": 67,
                "velocity": 25,
                "duration": 0.11818181818181817,
                "tempo": 120.0
            },
            {
                "start_time": 5.468181818181818,
                "end_time": 5.586363636363636,
                "pitch": 67,
                "velocity": 25,
                "duration": 0.11818181818181817,
                "tempo": 120.0
            },
            {
                "start_time": 5.602272727272727,
                "end_time": 5.720454545454545,
                "pitch": 66,
                "velocity": 25,
                "duration": 0.11818181818181817,
                "tempo": 120.0
            },
            {
                "start_time": 5.736363636363636,
                "end_time": 5.852272727272727,
                "pitch": 66,
                "velocity": 25,
                "duration": 0.1159090909090903,
                "tempo": 120.0
            },
            {
                "start_time": 5.870454545454545,
                "end_time": 5.986363636363636,
                "pitch": 66,
                "velocity": 25,
                "duration": 0.11590909090909118,
                "tempo": 120.0
            },
            {
                "start_time": 6.002272727272727,
                "end_time": 6.120454545454545,
                "pitch": 64,
                "velocity": 25,
                "duration": 0.11818181818181817,
                "tempo": 120.0
            },
            {
                "start_time": 6.136363636363636,
                "end_time": 6.254545454545454,
                "pitch": 59,
                "velocity": 25,
                "duration": 0.11818181818181817,
                "tempo": 120.0
            },
            {
                "start_time": 6.2704545454545455,
                "end_time": 6.288636363636363,
                "pitch": 64,
                "velocity": 25,
                "duration": 0.018181818181817633,
                "tempo": 120.0
            },
            {
                "start_time": 8.011363636363637,
                "end_time": 8.129545454545454,
                "pitch": 71,
                "velocity": 25,
                "duration": 0.11818181818181728,
                "tempo": 120.0
            },
            {
                "start_time": 8.145454545454545,
                "end_time": 8.263636363636364,
                "pitch": 71,
                "velocity": 25,
                "duration": 0.11818181818181905,
                "tempo": 120.0
            },
            {
                "start_time": 8.279545454545454,
                "end_time": 8.397727272727272,
                "pitch": 71,
                "velocity": 25,
                "duration": 0.11818181818181728,
                "tempo": 120.0
            },
            {
                "start_time": 8.413636363636364,
                "end_time": 8.531818181818181,
                "pitch": 69,
                "velocity": 25,
                "duration": 0.11818181818181728,
                "tempo": 120.0
            },
            {
                "start_time": 8.547727272727272,
                "end_time": 8.665909090909091,
                "pitch": 69,
                "velocity": 25,
                "duration": 0.11818181818181905,
                "tempo": 120.0
            },
            {
                "start_time": 8.681818181818182,
                "end_time": 8.799999999999999,
                "pitch": 69,
                "velocity": 25,
                "duration": 0.11818181818181728,
                "tempo": 120.0
            },
            {
                "start_time": 8.815909090909091,
                "end_time": 8.934090909090909,
                "pitch": 68,
                "velocity": 25,
                "duration": 0.11818181818181728,
                "tempo": 120.0
            },
            {
                "start_time": 8.95,
                "end_time": 9.068181818181818,
                "pitch": 68,
                "velocity": 25,
                "duration": 0.11818181818181905,
                "tempo": 120.0
            },
            {
                "start_time": 9.084090909090909,
                "end_time": 9.202272727272726,
                "pitch": 68,
                "velocity": 25,
                "duration": 0.11818181818181728,
                "tempo": 120.0
            },
            {
                "start_time": 9.218181818181817,
                "end_time": 9.336363636363636,
                "pitch": 64,
                "velocity": 25,
                "duration": 0.11818181818181905,
                "tempo": 120.0
            },
            {
                "start_time": 9.352272727272727,
                "end_time": 9.468181818181817,
                "pitch": 59,
                "velocity": 25,
                "duration": 0.1159090909090903,
                "tempo": 120.0
            },
            {
                "start_time": 9.486363636363636,
                "end_time": 9.502272727272727,
                "pitch": 64,
                "velocity": 25,
                "duration": 0.01590909090909065,
                "tempo": 120.0
            },
            {
                "start_time": 11.229545454545454,
                "end_time": 11.345454545454546,
                "pitch": 71,
                "velocity": 25,
                "duration": 0.11590909090909207,
                "tempo": 120.0
            },
            {
                "start_time": 11.363636363636363,
                "end_time": 11.479545454545454,
                "pitch": 71,
                "velocity": 25,
                "duration": 0.1159090909090903,
                "tempo": 120.0
            },
            {
                "start_time": 11.495454545454544,
                "end_time": 11.613636363636363,
                "pitch": 71,
                "velocity": 25,
                "duration": 0.11818181818181905,
                "tempo": 120.0
            },
            {
                "start_time": 11.629545454545454,
                "end_time": 11.743181818181817,
                "pitch": 69,
                "velocity": 25,
                "duration": 0.11363636363636331,
                "tempo": 120.0
            },
            {
                "start_time": 11.761363636363635,
                "end_time": 11.875,
                "pitch": 69,
                "velocity": 25,
                "duration": 0.11363636363636509,
                "tempo": 120.0
            },
            {
                "start_time": 11.89090909090909,
                "end_time": 12.004545454545454,
                "pitch": 69,
                "velocity": 25,
                "duration": 0.11363636363636331,
                "tempo": 120.0
            },
            {
                "start_time": 12.022727272727272,
                "end_time": 12.14090909090909,
                "pitch": 68,
                "velocity": 25,
                "duration": 0.11818181818181905,
                "tempo": 120.0
            },
            {
                "start_time": 12.159090909090908,
                "end_time": 12.279545454545454,
                "pitch": 68,
                "velocity": 25,
                "duration": 0.12045454545454604,
                "tempo": 120.0
            },
            {
                "start_time": 12.295454545454545,
                "end_time": 12.415909090909091,
                "pitch": 68,
                "velocity": 25,
                "duration": 0.12045454545454604,
                "tempo": 120.0
            },
            {
                "start_time": 12.431818181818182,
                "end_time": 12.549999999999999,
                "pitch": 64,
                "velocity": 25,
                "duration": 0.11818181818181728,
                "tempo": 120.0
            },
            {
                "start_time": 12.568181818181818,
                "end_time": 12.684090909090909,
                "pitch": 59,
                "velocity": 25,
                "duration": 0.1159090909090903,
                "tempo": 120.0
            },
            {
                "start_time": 12.702272727272726,
                "end_time": 12.718181818181817,
                "pitch": 64,
                "velocity": 25,
                "duration": 0.01590909090909065,
                "tempo": 120.0
            },
            {
                "start_time": 24.075,
                "end_time": 24.193181818181817,
                "pitch": 76,
                "velocity": 25,
                "duration": 0.11818181818181728,
                "tempo": 120.0
            },
            {
                "start_time": 24.209090909090907,
                "end_time": 24.325,
                "pitch": 74,
                "velocity": 25,
                "duration": 0.11590909090909207,
                "tempo": 120.0
            },
            {
                "start_time": 24.34318181818182,
                "end_time": 24.459090909090907,
                "pitch": 69,
                "velocity": 25,
                "duration": 0.11590909090908852,
                "tempo": 120.0
            },
            {
                "start_time": 24.474999999999998,
                "end_time": 24.59318181818182,
                "pitch": 73,
                "velocity": 25,
                "duration": 0.11818181818182083,
                "tempo": 120.0
            },
            {
                "start_time": 24.60909090909091,
                "end_time": 24.724999999999998,
                "pitch": 74,
                "velocity": 25,
                "duration": 0.11590909090908852,
                "tempo": 120.0
            },
            {
                "start_time": 24.743181818181817,
                "end_time": 24.85909090909091,
                "pitch": 76,
                "velocity": 25,
                "duration": 0.11590909090909207,
                "tempo": 120.0
            },
            {
                "start_time": 24.875,
                "end_time": 24.993181818181817,
                "pitch": 76,
                "velocity": 25,
                "duration": 0.11818181818181728,
                "tempo": 120.0
            },
            {
                "start_time": 25.009090909090908,
                "end_time": 25.127272727272725,
                "pitch": 74,
                "velocity": 25,
                "duration": 0.11818181818181728,
                "tempo": 120.0
            },
            {
                "start_time": 25.145454545454545,
                "end_time": 25.261363636363637,
                "pitch": 73,
                "velocity": 25,
                "duration": 0.11590909090909207,
                "tempo": 120.0
            },
            {
                "start_time": 25.279545454545453,
                "end_time": 25.395454545454545,
                "pitch": 69,
                "velocity": 25,
                "duration": 0.11590909090909207,
                "tempo": 120.0
            },
            {
                "start_time": 25.411363636363635,
                "end_time": 25.529545454545453,
                "pitch": 74,
                "velocity": 25,
                "duration": 0.11818181818181728,
                "tempo": 120.0
            },
            {
                "start_time": 25.545454545454543,
                "end_time": 25.595454545454544,
                "pitch": 76,
                "velocity": 25,
                "duration": 0.05000000000000071,
                "tempo": 120.0
            },
            {
                "start_time": 26.493181818181817,
                "end_time": 26.968181818181815,
                "pitch": 76,
                "velocity": 25,
                "duration": 0.47499999999999787,
                "tempo": 120.0
            },
            {
                "start_time": 30.495454545454542,
                "end_time": 30.611363636363635,
                "pitch": 74,
                "velocity": 25,
                "duration": 0.11590909090909207,
                "tempo": 120.0
            },
            {
                "start_time": 30.627272727272725,
                "end_time": 30.745454545454542,
                "pitch": 73,
                "velocity": 25,
                "duration": 0.11818181818181728,
                "tempo": 120.0
            },
            {
                "start_time": 30.761363636363633,
                "end_time": 30.877272727272725,
                "pitch": 69,
                "velocity": 25,
                "duration": 0.11590909090909207,
                "tempo": 120.0
            },
            {
                "start_time": 30.895454545454545,
                "end_time": 31.011363636363633,
                "pitch": 74,
                "velocity": 25,
                "duration": 0.11590909090908852,
                "tempo": 120.0
            },
            {
                "start_time": 31.029545454545453,
                "end_time": 31.14772727272727,
                "pitch": 73,
                "velocity": 25,
                "duration": 0.11818181818181728,
                "tempo": 120.0
            },
            {
                "start_time": 31.16363636363636,
                "end_time": 31.28181818181818,
                "pitch": 69,
                "velocity": 25,
                "duration": 0.11818181818182083,
                "tempo": 120.0
            },
            {
                "start_time": 31.297727272727272,
                "end_time": 31.41363636363636,
                "pitch": 74,
                "velocity": 25,
                "duration": 0.11590909090908852,
                "tempo": 120.0
            },
            {
                "start_time": 31.43181818181818,
                "end_time": 31.547727272727272,
                "pitch": 73,
                "velocity": 25,
                "duration": 0.11590909090909207,
                "tempo": 120.0
            },
            {
                "start_time": 31.563636363636363,
                "end_time": 31.68181818181818,
                "pitch": 67,
                "velocity": 25,
                "duration": 0.11818181818181728,
                "tempo": 120.0
            },
            {
                "start_time": 31.69772727272727,
                "end_time": 31.815909090909088,
                "pitch": 76,
                "velocity": 25,
                "duration": 0.11818181818181728,
                "tempo": 120.0
            },
            {
                "start_time": 31.831818181818182,
                "end_time": 31.847727272727273,
                "pitch": 74,
                "velocity": 25,
                "duration": 0.01590909090909065,
                "tempo": 120.0
            },
            {
                "start_time": 31.86590909090909,
                "end_time": 31.95,
                "pitch": 76,
                "velocity": 25,
                "duration": 0.08409090909091077,
                "tempo": 120.0
            },
            {
                "start_time": 31.96590909090909,
                "end_time": 32.08409090909091,
                "pitch": 67,
                "velocity": 25,
                "duration": 0.11818181818182083,
                "tempo": 120.0
            },
            {
                "start_time": 32.1,
                "end_time": 32.11590909090909,
                "pitch": 72,
                "velocity": 25,
                "duration": 0.01590909090909065,
                "tempo": 120.0
            },
            {
                "start_time": 32.13409090909091,
                "end_time": 32.215909090909086,
                "pitch": 71,
                "velocity": 25,
                "duration": 0.08181818181817846,
                "tempo": 120.0
            },
            {
                "start_time": 32.23409090909091,
                "end_time": 32.35,
                "pitch": 67,
                "velocity": 25,
                "duration": 0.11590909090909207,
                "tempo": 120.0
            },
            {
                "start_time": 32.36590909090909,
                "end_time": 32.48409090909091,
                "pitch": 71,
                "velocity": 25,
                "duration": 0.11818181818181728,
                "tempo": 120.0
            },
            {
                "start_time": 32.5,
                "end_time": 32.61590909090909,
                "pitch": 67,
                "velocity": 25,
                "duration": 0.11590909090909207,
                "tempo": 120.0
            },
            {
                "start_time": 32.63409090909091,
                "end_time": 32.75,
                "pitch": 72,
                "velocity": 25,
                "duration": 0.11590909090909207,
                "tempo": 120.0
            },
            {
                "start_time": 32.76590909090909,
                "end_time": 32.88409090909091,
                "pitch": 67,
                "velocity": 25,
                "duration": 0.11818181818181728,
                "tempo": 120.0
            },
            {
                "start_time": 32.9,
                "end_time": 32.98409090909091,
                "pitch": 74,
                "velocity": 25,
                "duration": 0.08409090909091077,
                "tempo": 120.0
            },
            {
                "start_time": 33.70227272727273,
                "end_time": 33.820454545454545,
                "pitch": 69,
                "velocity": 25,
                "duration": 0.11818181818181728,
                "tempo": 120.0
            },
            {
                "start_time": 33.836363636363636,
                "end_time": 33.95227272727273,
                "pitch": 69,
                "velocity": 25,
                "duration": 0.11590909090909207,
                "tempo": 120.0
            }
        ]
    }
}