{
    "track_id": "Miracle Warriors - Seal of the Dark Lord (FM) - 01 - Title",
    "mood": "angry",
    "instruments": {
        "Church Organ": [
            {
                "start_time": 0.4113636363636363,
                "end_time": 0.5863636363636363,
                "pitch": 70,
                "velocity": 32,
                "duration": 0.175,
                "tempo": 120.0
            },
            {
                "start_time": 0.6022727272727273,
                "end_time": 0.7772727272727272,
                "pitch": 78,
                "velocity": 32,
                "duration": 0.17499999999999993,
                "tempo": 120.0
            },
            {
                "start_time": 0.7931818181818181,
                "end_time": 0.975,
                "pitch": 75,
                "velocity": 32,
                "duration": 0.18181818181818188,
                "tempo": 120.0
            },
            {
                "start_time": 0.9931818181818182,
                "end_time": 1.3727272727272726,
                "pitch": 68,
                "velocity": 32,
                "duration": 0.3795454545454544,
                "tempo": 120.0
            },
            {
                "start_time": 1.3886363636363637,
                "end_time": 1.5681818181818181,
                "pitch": 77,
                "velocity": 32,
                "duration": 0.17954545454545445,
                "tempo": 120.0
            },
            {
                "start_time": 1.584090909090909,
                "end_time": 1.7727272727272727,
                "pitch": 73,
                "velocity": 32,
                "duration": 0.1886363636363637,
                "tempo": 120.0
            },
            {
                "start_time": 1.7909090909090908,
                "end_time": 1.977272727272727,
                "pitch": 68,
                "velocity": 32,
                "duration": 0.1863636363636363,
                "tempo": 120.0
            },
            {
                "start_time": 1.9954545454545454,
                "end_time": 2.175,
                "pitch": 66,
                "velocity": 32,
                "duration": 0.17954545454545445,
                "tempo": 120.0
            },
            {
                "start_time": 2.190909090909091,
                "end_time": 2.370454545454545,
                "pitch": 75,
                "velocity": 32,
                "duration": 0.17954545454545423,
                "tempo": 120.0
            },
            {
                "start_time": 2.3863636363636362,
                "end_time": 2.5749999999999997,
                "pitch": 71,
                "velocity": 32,
                "duration": 0.1886363636363635,
                "tempo": 120.0
            },
            {
                "start_time": 2.5931818181818183,
                "end_time": 2.977272727272727,
                "pitch": 68,
                "velocity": 32,
                "duration": 0.3840909090909088,
                "tempo": 120.0
            },
            {
                "start_time": 2.993181818181818,
                "end_time": 3.1727272727272724,
                "pitch": 77,
                "velocity": 32,
                "duration": 0.17954545454545423,
                "tempo": 120.0
            },
            {
                "start_time": 3.190909090909091,
                "end_time": 3.377272727272727,
                "pitch": 73,
                "velocity": 32,
                "duration": 0.18636363636363606,
                "tempo": 120.0
            },
            {
                "start_time": 3.3954545454545455,
                "end_time": 3.584090909090909,
                "pitch": 68,
                "velocity": 32,
                "duration": 0.1886363636363635,
                "tempo": 120.0
            },
            {
                "start_time": 3.5999999999999996,
                "end_time": 3.7840909090909087,
                "pitch": 70,
                "velocity": 32,
                "duration": 0.18409090909090908,
                "tempo": 120.0
            },
            {
                "start_time": 3.8,
                "end_time": 3.984090909090909,
                "pitch": 78,
                "velocity": 32,
                "duration": 0.18409090909090908,
                "tempo": 120.0
            },
            {
                "start_time": 4.0,
                "end_time": 4.184090909090909,
                "pitch": 75,
                "velocity": 32,
                "duration": 0.18409090909090864,
                "tempo": 120.0
            },
            {
                "start_time": 4.2,
                "end_time": 4.579545454545454,
                "pitch": 68,
                "velocity": 32,
                "duration": 0.37954545454545396,
                "tempo": 120.0
            },
            {
                "start_time": 4.597727272727273,
                "end_time": 4.777272727272727,
                "pitch": 77,
                "velocity": 32,
                "duration": 0.17954545454545467,
                "tempo": 120.0
            },
            {
                "start_time": 4.793181818181818,
                "end_time": 4.9818181818181815,
                "pitch": 73,
                "velocity": 32,
                "duration": 0.1886363636363635,
                "tempo": 120.0
            },
            {
                "start_time": 4.997727272727272,
                "end_time": 5.1863636363636365,
                "pitch": 68,
                "velocity": 32,
                "duration": 0.18863636363636438,
                "tempo": 120.0
            },
            {
                "start_time": 5.202272727272727,
                "end_time": 5.384090909090909,
                "pitch": 66,
                "velocity": 32,
                "duration": 0.18181818181818166,
                "tempo": 120.0
            },
            {
                "start_time": 5.3999999999999995,
                "end_time": 5.579545454545454,
                "pitch": 75,
                "velocity": 32,
                "duration": 0.17954545454545467,
                "tempo": 120.0
            },
            {
                "start_time": 5.595454545454545,
                "end_time": 5.784090909090909,
                "pitch": 71,
                "velocity": 32,
                "duration": 0.18863636363636438,
                "tempo": 120.0
            },
            {
                "start_time": 5.8,
                "end_time": 6.1909090909090905,
                "pitch": 68,
                "velocity": 32,
                "duration": 0.39090909090909065,
                "tempo": 120.0
            },
            {
                "start_time": 6.206818181818181,
                "end_time": 6.393181818181818,
                "pitch": 77,
                "velocity": 32,
                "duration": 0.1863636363636365,
                "tempo": 120.0
            },
            {
                "start_time": 6.409090909090909,
                "end_time": 6.593181818181818,
                "pitch": 73,
                "velocity": 32,
                "duration": 0.18409090909090864,
                "tempo": 120.0
            },
            {
                "start_time": 6.611363636363636,
                "end_time": 6.795454545454545,
                "pitch": 68,
                "velocity": 32,
                "duration": 0.18409090909090864,
                "tempo": 120.0
            },
            {
                "start_time": 6.811363636363636,
                "end_time": 6.995454545454545,
                "pitch": 70,
                "velocity": 32,
                "duration": 0.18409090909090953,
                "tempo": 120.0
            },
            {
                "start_time": 7.011363636363636,
                "end_time": 7.195454545454545,
                "pitch": 78,
                "velocity": 32,
                "duration": 0.18409090909090953,
                "tempo": 120.0
            },
            {
                "start_time": 7.211363636363636,
                "end_time": 7.3954545454545455,
                "pitch": 75,
                "velocity": 32,
                "duration": 0.18409090909090953,
                "tempo": 120.0
            },
            {
                "start_time": 7.413636363636363,
                "end_time": 7.793181818181818,
                "pitch": 68,
                "velocity": 32,
                "duration": 0.37954545454545485,
                "tempo": 120.0
            },
            {
                "start_time": 7.809090909090909,
                "end_time": 7.99090909090909,
                "pitch": 77,
                "velocity": 32,
                "duration": 0.18181818181818166,
                "tempo": 120.0
            },
            {
                "start_time": 8.006818181818181,
                "end_time": 8.195454545454545,
                "pitch": 73,
                "velocity": 32,
                "duration": 0.18863636363636438,
                "tempo": 120.0
            },
            {
                "start_time": 8.211363636363636,
                "end_time": 8.4,
                "pitch": 68,
                "velocity": 32,
                "duration": 0.18863636363636438,
                "tempo": 120.0
            },
            {
                "start_time": 8.415909090909091,
                "end_time": 8.595454545454546,
                "pitch": 66,
                "velocity": 32,
                "duration": 0.17954545454545467,
                "tempo": 120.0
            },
            {
                "start_time": 8.613636363636363,
                "end_time": 8.793181818181818,
                "pitch": 75,
                "velocity": 32,
                "duration": 0.17954545454545467,
                "tempo": 120.0
            },
            {
                "start_time": 8.809090909090909,
                "end_time": 8.997727272727273,
                "pitch": 71,
                "velocity": 32,
                "duration": 0.18863636363636438,
                "tempo": 120.0
            },
            {
                "start_time": 9.013636363636364,
                "end_time": 9.4,
                "pitch": 68,
                "velocity": 32,
                "duration": 0.3863636363636367,
                "tempo": 120.0
            },
            {
                "start_time": 9.415909090909091,
                "end_time": 9.595454545454546,
                "pitch": 77,
                "velocity": 32,
                "duration": 0.17954545454545467,
                "tempo": 120.0
            },
            {
                "start_time": 9.611363636363636,
                "end_time": 9.799999999999999,
                "pitch": 73,
                "velocity": 32,
                "duration": 0.1886363636363626,
                "tempo": 120.0
            },
            {
                "start_time": 9.818181818181818,
                "end_time": 10.004545454545454,
                "pitch": 68,
                "velocity": 32,
                "duration": 0.18636363636363562,
                "tempo": 120.0
            },
            {
                "start_time": 10.022727272727272,
                "end_time": 10.206818181818182,
                "pitch": 70,
                "velocity": 32,
                "duration": 0.18409090909091042,
                "tempo": 120.0
            },
            {
                "start_time": 10.225,
                "end_time": 10.409090909090908,
                "pitch": 78,
                "velocity": 32,
                "duration": 0.18409090909090864,
                "tempo": 120.0
            },
            {
                "start_time": 10.424999999999999,
                "end_time": 10.60909090909091,
                "pitch": 75,
                "velocity": 32,
                "duration": 0.18409090909091042,
                "tempo": 120.0
            },
            {
                "start_time": 10.627272727272727,
                "end_time": 11.006818181818181,
                "pitch": 68,
                "velocity": 32,
                "duration": 0.37954545454545396,
                "tempo": 120.0
            },
            {
                "start_time": 11.022727272727272,
                "end_time": 11.204545454545453,
                "pitch": 77,
                "velocity": 32,
                "duration": 0.18181818181818166,
                "tempo": 120.0
            },
            {
                "start_time": 11.220454545454546,
                "end_time": 11.404545454545454,
                "pitch": 73,
                "velocity": 32,
                "duration": 0.18409090909090864,
                "tempo": 120.0
            },
            {
                "start_time": 11.420454545454545,
                "end_time": 11.60681818181818,
                "pitch": 68,
                "velocity": 32,
                "duration": 0.18636363636363562,
                "tempo": 120.0
            },
            {
                "start_time": 11.622727272727273,
                "end_time": 11.811363636363636,
                "pitch": 66,
                "velocity": 32,
                "duration": 0.1886363636363626,
                "tempo": 120.0
            },
            {
                "start_time": 11.827272727272726,
                "end_time": 12.01590909090909,
                "pitch": 75,
                "velocity": 32,
                "duration": 0.18863636363636438,
                "tempo": 120.0
            },
            {
                "start_time": 12.034090909090908,
                "end_time": 12.218181818181817,
                "pitch": 71,
                "velocity": 32,
                "duration": 0.18409090909090864,
                "tempo": 120.0
            },
            {
                "start_time": 12.23409090909091,
                "end_time": 12.620454545454544,
                "pitch": 68,
                "velocity": 32,
                "duration": 0.3863636363636349,
                "tempo": 120.0
            },
            {
                "start_time": 12.638636363636364,
                "end_time": 12.822727272727272,
                "pitch": 77,
                "velocity": 32,
                "duration": 0.18409090909090864,
                "tempo": 120.0
            },
            {
                "start_time": 12.838636363636363,
                "end_time": 13.022727272727272,
                "pitch": 73,
                "velocity": 32,
                "duration": 0.18409090909090864,
                "tempo": 120.0
            },
            {
                "start_time": 13.040909090909091,
                "end_time": 13.225,
                "pitch": 68,
                "velocity": 32,
                "duration": 0.18409090909090864,
                "tempo": 120.0
            }
        ],
        "Acoustic Bass": [
            {
                "start_time": 12.838636363636363,
                "end_time": 12.922727272727272,
                "pitch": 82,
                "velocity": 64,
                "duration": 0.084090909090909,
                "tempo": 120.0
            },
            {
                "start_time": 12.938636363636363,
                "end_time": 13.022727272727272,
                "pitch": 83,
                "velocity": 64,
                "duration": 0.084090909090909,
                "tempo": 120.0
            },
            {
                "start_time": 13.040909090909091,
                "end_time": 13.125,
                "pitch": 80,
                "velocity": 64,
                "duration": 0.084090909090909,
                "tempo": 120.0
            },
            {
                "start_time": 13.14090909090909,
                "end_time": 13.225,
                "pitch": 83,
                "velocity": 64,
                "duration": 0.084090909090909,
                "tempo": 120.0
            },
            {
                "start_time": 13.24090909090909,
                "end_time": 13.325,
                "pitch": 78,
                "velocity": 64,
                "duration": 0.084090909090909,
                "tempo": 120.0
            },
            {
                "start_time": 13.34090909090909,
                "end_time": 13.424999999999999,
                "pitch": 83,
                "velocity": 64,
                "duration": 0.084090909090909,
                "tempo": 120.0
            },
            {
                "start_time": 13.44090909090909,
                "end_time": 13.524999999999999,
                "pitch": 82,
                "velocity": 64,
                "duration": 0.084090909090909,
                "tempo": 120.0
            },
            {
                "start_time": 13.540909090909091,
                "end_time": 13.625,
                "pitch": 83,
                "velocity": 64,
                "duration": 0.084090909090909,
                "tempo": 120.0
            },
            {
                "start_time": 13.64090909090909,
                "end_time": 13.725,
                "pitch": 80,
                "velocity": 64,
                "duration": 0.084090909090909,
                "tempo": 120.0
            },
            {
                "start_time": 13.743181818181817,
                "end_time": 13.827272727272726,
                "pitch": 83,
                "velocity": 64,
                "duration": 0.084090909090909,
                "tempo": 120.0
            },
            {
                "start_time": 13.843181818181817,
                "end_time": 13.927272727272726,
                "pitch": 78,
                "velocity": 64,
                "duration": 0.084090909090909,
                "tempo": 120.0
            },
            {
                "start_time": 13.943181818181818,
                "end_time": 14.027272727272727,
                "pitch": 83,
                "velocity": 64,
                "duration": 0.084090909090909,
                "tempo": 120.0
            },
            {
                "start_time": 14.043181818181818,
                "end_time": 14.125,
                "pitch": 82,
                "velocity": 64,
                "duration": 0.08181818181818201,
                "tempo": 120.0
            },
            {
                "start_time": 14.143181818181818,
                "end_time": 14.225,
                "pitch": 83,
                "velocity": 64,
                "duration": 0.08181818181818201,
                "tempo": 120.0
            },
            {
                "start_time": 14.24090909090909,
                "end_time": 14.322727272727272,
                "pitch": 80,
                "velocity": 64,
                "duration": 0.08181818181818201,
                "tempo": 120.0
            },
            {
                "start_time": 14.338636363636363,
                "end_time": 14.420454545454545,
                "pitch": 83,
                "velocity": 64,
                "duration": 0.08181818181818201,
                "tempo": 120.0
            },
            {
                "start_time": 14.436363636363636,
                "end_time": 14.520454545454545,
                "pitch": 82,
                "velocity": 64,
                "duration": 0.084090909090909,
                "tempo": 120.0
            },
            {
                "start_time": 14.536363636363635,
                "end_time": 14.620454545454544,
                "pitch": 83,
                "velocity": 64,
                "duration": 0.084090909090909,
                "tempo": 120.0
            },
            {
                "start_time": 14.638636363636364,
                "end_time": 14.722727272727273,
                "pitch": 80,
                "velocity": 64,
                "duration": 0.084090909090909,
                "tempo": 120.0
            },
            {
                "start_time": 14.738636363636363,
                "end_time": 14.822727272727272,
                "pitch": 83,
                "velocity": 64,
                "duration": 0.084090909090909,
                "tempo": 120.0
            },
            {
                "start_time": 14.838636363636363,
                "end_time": 14.922727272727272,
                "pitch": 78,
                "velocity": 64,
                "duration": 0.084090909090909,
                "tempo": 120.0
            },
            {
                "start_time": 14.938636363636363,
                "end_time": 15.022727272727272,
                "pitch": 83,
                "velocity": 64,
                "duration": 0.084090909090909,
                "tempo": 120.0
            },
            {
                "start_time": 15.038636363636362,
                "end_time": 15.122727272727271,
                "pitch": 82,
                "velocity": 64,
                "duration": 0.084090909090909,
                "tempo": 120.0
            },
            {
                "start_time": 15.138636363636364,
                "end_time": 15.222727272727273,
                "pitch": 83,
                "velocity": 64,
                "duration": 0.084090909090909,
                "tempo": 120.0
            },
            {
                "start_time": 15.238636363636363,
                "end_time": 15.325,
                "pitch": 80,
                "velocity": 64,
                "duration": 0.08636363636363598,
                "tempo": 120.0
            },
            {
                "start_time": 15.34090909090909,
                "end_time": 15.427272727272726,
                "pitch": 83,
                "velocity": 64,
                "duration": 0.08636363636363598,
                "tempo": 120.0
            },
            {
                "start_time": 15.445454545454545,
                "end_time": 15.529545454545454,
                "pitch": 78,
                "velocity": 64,
                "duration": 0.084090909090909,
                "tempo": 120.0
            },
            {
                "start_time": 15.547727272727272,
                "end_time": 15.634090909090908,
                "pitch": 83,
                "velocity": 64,
                "duration": 0.08636363636363598,
                "tempo": 120.0
            },
            {
                "start_time": 15.649999999999999,
                "end_time": 15.73181818181818,
                "pitch": 82,
                "velocity": 64,
                "duration": 0.08181818181818201,
                "tempo": 120.0
            },
            {
                "start_time": 15.747727272727271,
                "end_time": 15.829545454545453,
                "pitch": 83,
                "velocity": 64,
                "duration": 0.08181818181818201,
                "tempo": 120.0
            },
            {
                "start_time": 15.845454545454544,
                "end_time": 15.927272727272726,
                "pitch": 80,
                "velocity": 64,
                "duration": 0.08181818181818201,
                "tempo": 120.0
            },
            {
                "start_time": 15.943181818181817,
                "end_time": 16.025,
                "pitch": 83,
                "velocity": 64,
                "duration": 0.08181818181818201,
                "tempo": 120.0
            },
            {
                "start_time": 16.04090909090909,
                "end_time": 16.127272727272725,
                "pitch": 75,
                "velocity": 64,
                "duration": 0.08636363636363598,
                "tempo": 120.0
            },
            {
                "start_time": 16.145454545454545,
                "end_time": 16.229545454545455,
                "pitch": 78,
                "velocity": 64,
                "duration": 0.08409090909091077,
                "tempo": 120.0
            },
            {
                "start_time": 16.24772727272727,
                "end_time": 16.334090909090907,
                "pitch": 82,
                "velocity": 64,
                "duration": 0.08636363636363598,
                "tempo": 120.0
            },
            {
                "start_time": 16.349999999999998,
                "end_time": 16.436363636363634,
                "pitch": 78,
                "velocity": 64,
                "duration": 0.08636363636363598,
                "tempo": 120.0
            },
            {
                "start_time": 16.452272727272728,
                "end_time": 16.53409090909091,
                "pitch": 77,
                "velocity": 64,
                "duration": 0.08181818181818201,
                "tempo": 120.0
            },
            {
                "start_time": 16.55,
                "end_time": 16.631818181818183,
                "pitch": 75,
                "velocity": 64,
                "duration": 0.08181818181818201,
                "tempo": 120.0
            },
            {
                "start_time": 16.647727272727273,
                "end_time": 16.827272727272728,
                "pitch": 73,
                "velocity": 64,
                "duration": 0.17954545454545467,
                "tempo": 120.0
            },
            {
                "start_time": 16.845454545454544,
                "end_time": 16.929545454545455,
                "pitch": 75,
                "velocity": 64,
                "duration": 0.08409090909091077,
                "tempo": 120.0
            },
            {
                "start_time": 16.94772727272727,
                "end_time": 17.03181818181818,
                "pitch": 78,
                "velocity": 64,
                "duration": 0.08409090909091077,
                "tempo": 120.0
            },
            {
                "start_time": 17.05,
                "end_time": 17.136363636363637,
                "pitch": 77,
                "velocity": 64,
                "duration": 0.08636363636363598,
                "tempo": 120.0
            },
            {
                "start_time": 17.152272727272727,
                "end_time": 17.238636363636363,
                "pitch": 80,
                "velocity": 64,
                "duration": 0.08636363636363598,
                "tempo": 120.0
            },
            {
                "start_time": 17.254545454545454,
                "end_time": 17.336363636363636,
                "pitch": 78,
                "velocity": 64,
                "duration": 0.08181818181818201,
                "tempo": 120.0
            },
            {
                "start_time": 17.352272727272727,
                "end_time": 17.43409090909091,
                "pitch": 82,
                "velocity": 64,
                "duration": 0.08181818181818201,
                "tempo": 120.0
            },
            {
                "start_time": 17.45,
                "end_time": 17.53181818181818,
                "pitch": 80,
                "velocity": 64,
                "duration": 0.08181818181818201,
                "tempo": 120.0
            },
            {
                "start_time": 17.55,
                "end_time": 17.631818181818183,
                "pitch": 83,
                "velocity": 64,
                "duration": 0.08181818181818201,
                "tempo": 120.0
            },
            {
                "start_time": 17.647727272727273,
                "end_time": 17.831818181818182,
                "pitch": 82,
                "velocity": 64,
                "duration": 0.18409090909090864,
                "tempo": 120.0
            },
            {
                "start_time": 17.847727272727273,
                "end_time": 18.03181818181818,
                "pitch": 80,
                "velocity": 64,
                "duration": 0.18409090909090864,
                "tempo": 120.0
            },
            {
                "start_time": 18.047727272727272,
                "end_time": 18.236363636363635,
                "pitch": 78,
                "velocity": 64,
                "duration": 0.1886363636363626,
                "tempo": 120.0
            },
            {
                "start_time": 18.252272727272725,
                "end_time": 18.44090909090909,
                "pitch": 77,
                "velocity": 64,
                "duration": 0.18863636363636616,
                "tempo": 120.0
            },
            {
                "start_time": 18.459090909090907,
                "end_time": 18.64090909090909,
                "pitch": 80,
                "velocity": 64,
                "duration": 0.18181818181818343,
                "tempo": 120.0
            },
            {
                "start_time": 18.659090909090907,
                "end_time": 18.84090909090909,
                "pitch": 78,
                "velocity": 64,
                "duration": 0.18181818181818343,
                "tempo": 120.0
            },
            {
                "start_time": 18.85909090909091,
                "end_time": 19.038636363636364,
                "pitch": 77,
                "velocity": 64,
                "duration": 0.17954545454545467,
                "tempo": 120.0
            },
            {
                "start_time": 19.054545454545455,
                "end_time": 19.23409090909091,
                "pitch": 74,
                "velocity": 64,
                "duration": 0.17954545454545467,
                "tempo": 120.0
            },
            {
                "start_time": 19.25,
                "end_time": 22.46818181818182,
                "pitch": 75,
                "velocity": 64,
                "duration": 3.2181818181818187,
                "tempo": 120.0
            }
        ],
        "Electric Guitar (clean)": [
            {
                "start_time": 0.015909090909090907,
                "end_time": 3.1727272727272724,
                "pitch": 39,
                "velocity": 51,
                "duration": 3.1568181818181813,
                "tempo": 120.0
            },
            {
                "start_time": 3.190909090909091,
                "end_time": 6.393181818181818,
                "pitch": 39,
                "velocity": 51,
                "duration": 3.2022727272727267,
                "tempo": 120.0
            },
            {
                "start_time": 6.409090909090909,
                "end_time": 9.595454545454546,
                "pitch": 39,
                "velocity": 51,
                "duration": 3.1863636363636365,
                "tempo": 120.0
            },
            {
                "start_time": 9.611363636363636,
                "end_time": 12.822727272727272,
                "pitch": 39,
                "velocity": 51,
                "duration": 3.211363636363636,
                "tempo": 120.0
            },
            {
                "start_time": 12.838636363636363,
                "end_time": 16.025,
                "pitch": 35,
                "velocity": 51,
                "duration": 3.1863636363636356,
                "tempo": 120.0
            },
            {
                "start_time": 16.04090909090909,
                "end_time": 19.23409090909091,
                "pitch": 37,
                "velocity": 51,
                "duration": 3.19318181818182,
                "tempo": 120.0
            },
            {
                "start_time": 19.25,
                "end_time": 22.46818181818182,
                "pitch": 39,
                "velocity": 51,
                "duration": 3.2181818181818187,
                "tempo": 120.0
            }
        ],
        "Acoustic Grand Piano": [
            {
                "start_time": 0.015909090909090907,
                "end_time": 3.1727272727272724,
                "pitch": 58,
                "velocity": 40,
                "duration": 3.1568181818181813,
                "tempo": 120.0
            },
            {
                "start_time": 3.190909090909091,
                "end_time": 6.393181818181818,
                "pitch": 58,
                "velocity": 40,
                "duration": 3.2022727272727267,
                "tempo": 120.0
            },
            {
                "start_time": 6.409090909090909,
                "end_time": 9.595454545454546,
                "pitch": 58,
                "velocity": 40,
                "duration": 3.1863636363636365,
                "tempo": 120.0
            },
            {
                "start_time": 9.611363636363636,
                "end_time": 12.822727272727272,
                "pitch": 58,
                "velocity": 40,
                "duration": 3.211363636363636,
                "tempo": 120.0
            },
            {
                "start_time": 12.838636363636363,
                "end_time": 16.025,
                "pitch": 54,
                "velocity": 40,
                "duration": 3.1863636363636356,
                "tempo": 120.0
            },
            {
                "start_time": 16.04090909090909,
                "end_time": 19.23409090909091,
                "pitch": 56,
                "velocity": 40,
                "duration": 3.19318181818182,
                "tempo": 120.0
            },
            {
                "start_time": 19.25,
                "end_time": 22.46818181818182,
                "pitch": 58,
                "velocity": 40,
                "duration": 3.2181818181818187,
                "tempo": 120.0
            }
        ]
    }
}