{
    "track_id": "Miracle Warriors - Seal of the Dark Lord (FM) - 07 - Battle",
    "mood": "angry",
    "instruments": {
        "Violin": [
            {
                "start_time": 0.0659090909090909,
                "end_time": 1.634090909090909,
                "pitch": 71,
                "velocity": 40,
                "duration": 1.5681818181818181,
                "tempo": 120.0
            },
            {
                "start_time": 1.6522727272727271,
                "end_time": 3.2386363636363633,
                "pitch": 71,
                "velocity": 40,
                "duration": 1.5863636363636362,
                "tempo": 120.0
            },
            {
                "start_time": 38.57272727272727,
                "end_time": 40.15909090909091,
                "pitch": 71,
                "velocity": 40,
                "duration": 1.586363636363636,
                "tempo": 120.0
            },
            {
                "start_time": 40.175,
                "end_time": 41.76136363636363,
                "pitch": 71,
                "velocity": 40,
                "duration": 1.586363636363636,
                "tempo": 120.0
            },
            {
                "start_time": 77.06590909090909,
                "end_time": 78.65454545454546,
                "pitch": 71,
                "velocity": 40,
                "duration": 1.5886363636363683,
                "tempo": 120.0
            },
            {
                "start_time": 78.67045454545455,
                "end_time": 80.2590909090909,
                "pitch": 71,
                "velocity": 40,
                "duration": 1.588636363636354,
                "tempo": 120.0
            },
            {
                "start_time": 115.61590909090908,
                "end_time": 117.20454545454545,
                "pitch": 71,
                "velocity": 40,
                "duration": 1.5886363636363683,
                "tempo": 120.0
            },
            {
                "start_time": 117.22045454545454,
                "end_time": 118.81136363636364,
                "pitch": 71,
                "velocity": 40,
                "duration": 1.5909090909090935,
                "tempo": 120.0
            },
            {
                "start_time": 154.21136363636364,
                "end_time": 154.29545454545453,
                "pitch": 71,
                "velocity": 40,
                "duration": 0.08409090909088945,
                "tempo": 120.0
            }
        ],
        "Harpsichord": [
            {
                "start_time": 3.186363636363636,
                "end_time": 3.3045454545454542,
                "pitch": 53,
                "velocity": 64,
                "duration": 0.11818181818181817,
                "tempo": 120.0
            },
            {
                "start_time": 3.3227272727272728,
                "end_time": 3.4386363636363635,
                "pitch": 53,
                "velocity": 64,
                "duration": 0.11590909090909074,
                "tempo": 120.0
            },
            {
                "start_time": 3.4568181818181816,
                "end_time": 3.5727272727272728,
                "pitch": 53,
                "velocity": 64,
                "duration": 0.11590909090909118,
                "tempo": 120.0
            },
            {
                "start_time": 3.590909090909091,
                "end_time": 3.7068181818181816,
                "pitch": 54,
                "velocity": 64,
                "duration": 0.11590909090909074,
                "tempo": 120.0
            },
            {
                "start_time": 3.7227272727272727,
                "end_time": 3.840909090909091,
                "pitch": 53,
                "velocity": 64,
                "duration": 0.11818181818181817,
                "tempo": 120.0
            },
            {
                "start_time": 3.8568181818181815,
                "end_time": 3.9727272727272727,
                "pitch": 53,
                "velocity": 64,
                "duration": 0.11590909090909118,
                "tempo": 120.0
            },
            {
                "start_time": 3.9909090909090907,
                "end_time": 4.1068181818181815,
                "pitch": 56,
                "velocity": 64,
                "duration": 0.11590909090909074,
                "tempo": 120.0
            },
            {
                "start_time": 4.122727272727272,
                "end_time": 4.24090909090909,
                "pitch": 54,
                "velocity": 64,
                "duration": 0.11818181818181817,
                "tempo": 120.0
            },
            {
                "start_time": 4.256818181818182,
                "end_time": 4.372727272727272,
                "pitch": 53,
                "velocity": 64,
                "duration": 0.1159090909090903,
                "tempo": 120.0
            },
            {
                "start_time": 4.390909090909091,
                "end_time": 4.506818181818182,
                "pitch": 58,
                "velocity": 64,
                "duration": 0.11590909090909118,
                "tempo": 120.0
            },
            {
                "start_time": 4.5249999999999995,
                "end_time": 4.640909090909091,
                "pitch": 56,
                "velocity": 64,
                "duration": 0.11590909090909118,
                "tempo": 120.0
            },
            {
                "start_time": 4.659090909090909,
                "end_time": 4.7749999999999995,
                "pitch": 54,
                "velocity": 64,
                "duration": 0.1159090909090903,
                "tempo": 120.0
            },
            {
                "start_time": 4.793181818181818,
                "end_time": 4.909090909090909,
                "pitch": 53,
                "velocity": 64,
                "duration": 0.11590909090909118,
                "tempo": 120.0
            },
            {
                "start_time": 4.925,
                "end_time": 5.043181818181818,
                "pitch": 53,
                "velocity": 64,
                "duration": 0.11818181818181817,
                "tempo": 120.0
            },
            {
                "start_time": 5.059090909090909,
                "end_time": 5.175,
                "pitch": 53,
                "velocity": 64,
                "duration": 0.11590909090909118,
                "tempo": 120.0
            },
            {
                "start_time": 5.193181818181818,
                "end_time": 5.309090909090909,
                "pitch": 54,
                "velocity": 64,
                "duration": 0.1159090909090903,
                "tempo": 120.0
            },
            {
                "start_time": 5.327272727272727,
                "end_time": 5.445454545454545,
                "pitch": 53,
                "velocity": 64,
                "duration": 0.11818181818181817,
                "tempo": 120.0
            },
            {
                "start_time": 5.461363636363636,
                "end_time": 5.579545454545454,
                "pitch": 53,
                "velocity": 64,
                "duration": 0.11818181818181817,
                "tempo": 120.0
            },
            {
                "start_time": 5.595454545454545,
                "end_time": 5.711363636363636,
                "pitch": 56,
                "velocity": 64,
                "duration": 0.11590909090909118,
                "tempo": 120.0
            },
            {
                "start_time": 5.7295454545454545,
                "end_time": 5.845454545454545,
                "pitch": 54,
                "velocity": 64,
                "duration": 0.1159090909090903,
                "tempo": 120.0
            },
            {
                "start_time": 5.861363636363636,
                "end_time": 5.9795454545454545,
                "pitch": 53,
                "velocity": 64,
                "duration": 0.11818181818181817,
                "tempo": 120.0
            },
            {
                "start_time": 5.995454545454545,
                "end_time": 6.113636363636363,
                "pitch": 61,
                "velocity": 64,
                "duration": 0.11818181818181817,
                "tempo": 120.0
            },
            {
                "start_time": 6.129545454545454,
                "end_time": 6.247727272727272,
                "pitch": 60,
                "velocity": 64,
                "duration": 0.11818181818181817,
                "tempo": 120.0
            },
            {
                "start_time": 6.263636363636364,
                "end_time": 6.381818181818182,
                "pitch": 54,
                "velocity": 64,
                "duration": 0.11818181818181817,
                "tempo": 120.0
            },
            {
                "start_time": 6.3977272727272725,
                "end_time": 6.515909090909091,
                "pitch": 53,
                "velocity": 64,
                "duration": 0.11818181818181817,
                "tempo": 120.0
            },
            {
                "start_time": 6.531818181818181,
                "end_time": 6.6499999999999995,
                "pitch": 53,
                "velocity": 64,
                "duration": 0.11818181818181817,
                "tempo": 120.0
            },
            {
                "start_time": 6.665909090909091,
                "end_time": 6.784090909090909,
                "pitch": 53,
                "velocity": 64,
                "duration": 0.11818181818181817,
                "tempo": 120.0
            },
            {
                "start_time": 6.8,
                "end_time": 6.918181818181818,
                "pitch": 54,
                "velocity": 64,
                "duration": 0.11818181818181817,
                "tempo": 120.0
            },
            {
                "start_time": 6.934090909090909,
                "end_time": 7.05,
                "pitch": 53,
                "velocity": 64,
                "duration": 0.11590909090909118,
                "tempo": 120.0
            },
            {
                "start_time": 7.0681818181818175,
                "end_time": 7.184090909090909,
                "pitch": 53,
                "velocity": 64,
                "duration": 0.11590909090909118,
                "tempo": 120.0
            },
            {
                "start_time": 7.199999999999999,
                "end_time": 7.3181818181818175,
                "pitch": 56,
                "velocity": 64,
                "duration": 0.11818181818181817,
                "tempo": 120.0
            },
            {
                "start_time": 7.334090909090909,
                "end_time": 7.452272727272727,
                "pitch": 54,
                "velocity": 64,
                "duration": 0.11818181818181817,
                "tempo": 120.0
            },
            {
                "start_time": 7.468181818181818,
                "end_time": 7.586363636363636,
                "pitch": 53,
                "velocity": 64,
                "duration": 0.11818181818181817,
                "tempo": 120.0
            },
            {
                "start_time": 7.6045454545454545,
                "end_time": 7.720454545454545,
                "pitch": 58,
                "velocity": 64,
                "duration": 0.1159090909090903,
                "tempo": 120.0
            },
            {
                "start_time": 7.736363636363636,
                "end_time": 7.8545454545454545,
                "pitch": 56,
                "velocity": 64,
                "duration": 0.11818181818181817,
                "tempo": 120.0
            },
            {
                "start_time": 7.870454545454545,
                "end_time": 7.986363636363636,
                "pitch": 54,
                "velocity": 64,
                "duration": 0.11590909090909118,
                "tempo": 120.0
            },
            {
                "start_time": 8.004545454545454,
                "end_time": 8.120454545454544,
                "pitch": 53,
                "velocity": 64,
                "duration": 0.1159090909090903,
                "tempo": 120.0
            },
            {
                "start_time": 8.138636363636364,
                "end_time": 8.254545454545454,
                "pitch": 54,
                "velocity": 64,
                "duration": 0.1159090909090903,
                "tempo": 120.0
            },
            {
                "start_time": 8.272727272727272,
                "end_time": 8.388636363636364,
                "pitch": 56,
                "velocity": 64,
                "duration": 0.11590909090909207,
                "tempo": 120.0
            },
            {
                "start_time": 8.406818181818181,
                "end_time": 8.522727272727272,
                "pitch": 58,
                "velocity": 64,
                "duration": 0.1159090909090903,
                "tempo": 120.0
            },
            {
                "start_time": 8.540909090909091,
                "end_time": 8.656818181818181,
                "pitch": 60,
                "velocity": 64,
                "duration": 0.1159090909090903,
                "tempo": 120.0
            },
            {
                "start_time": 8.674999999999999,
                "end_time": 8.793181818181818,
                "pitch": 61,
                "velocity": 64,
                "duration": 0.11818181818181905,
                "tempo": 120.0
            },
            {
                "start_time": 8.809090909090909,
                "end_time": 9.061363636363636,
                "pitch": 63,
                "velocity": 64,
                "duration": 0.252272727272727,
                "tempo": 120.0
            },
            {
                "start_time": 9.077272727272726,
                "end_time": 9.327272727272726,
                "pitch": 65,
                "velocity": 64,
                "duration": 0.25,
                "tempo": 120.0
            },
            {
                "start_time": 9.345454545454546,
                "end_time": 9.595454545454546,
                "pitch": 66,
                "velocity": 64,
                "duration": 0.25,
                "tempo": 120.0
            },
            {
                "start_time": 9.611363636363636,
                "end_time": 9.729545454545454,
                "pitch": 53,
                "velocity": 64,
                "duration": 0.11818181818181728,
                "tempo": 120.0
            },
            {
                "start_time": 9.745454545454544,
                "end_time": 9.863636363636363,
                "pitch": 53,
                "velocity": 64,
                "duration": 0.11818181818181905,
                "tempo": 120.0
            },
            {
                "start_time": 9.879545454545454,
                "end_time": 9.997727272727273,
                "pitch": 53,
                "velocity": 64,
                "duration": 0.11818181818181905,
                "tempo": 120.0
            },
            {
                "start_time": 10.013636363636364,
                "end_time": 10.131818181818181,
                "pitch": 54,
                "velocity": 64,
                "duration": 0.11818181818181728,
                "tempo": 120.0
            },
            {
                "start_time": 10.147727272727272,
                "end_time": 10.26590909090909,
                "pitch": 53,
                "velocity": 64,
                "duration": 0.11818181818181905,
                "tempo": 120.0
            },
            {
                "start_time": 10.281818181818181,
                "end_time": 10.4,
                "pitch": 53,
                "velocity": 64,
                "duration": 0.11818181818181905,
                "tempo": 120.0
            },
            {
                "start_time": 10.415909090909091,
                "end_time": 10.534090909090908,
                "pitch": 56,
                "velocity": 64,
                "duration": 0.11818181818181728,
                "tempo": 120.0
            },
            {
                "start_time": 10.552272727272726,
                "end_time": 10.668181818181818,
                "pitch": 54,
                "velocity": 64,
                "duration": 0.11590909090909207,
                "tempo": 120.0
            },
            {
                "start_time": 10.686363636363636,
                "end_time": 10.802272727272726,
                "pitch": 53,
                "velocity": 64,
                "duration": 0.1159090909090903,
                "tempo": 120.0
            },
            {
                "start_time": 10.820454545454545,
                "end_time": 10.936363636363636,
                "pitch": 58,
                "velocity": 64,
                "duration": 0.1159090909090903,
                "tempo": 120.0
            },
            {
                "start_time": 10.954545454545453,
                "end_time": 11.070454545454545,
                "pitch": 56,
                "velocity": 64,
                "duration": 0.11590909090909207,
                "tempo": 120.0
            },
            {
                "start_time": 11.088636363636363,
                "end_time": 11.204545454545453,
                "pitch": 54,
                "velocity": 64,
                "duration": 0.1159090909090903,
                "tempo": 120.0
            },
            {
                "start_time": 11.222727272727273,
                "end_time": 11.338636363636363,
                "pitch": 53,
                "velocity": 64,
                "duration": 0.1159090909090903,
                "tempo": 120.0
            },
            {
                "start_time": 11.354545454545454,
                "end_time": 11.472727272727273,
                "pitch": 53,
                "velocity": 64,
                "duration": 0.11818181818181905,
                "tempo": 120.0
            },
            {
                "start_time": 11.488636363636363,
                "end_time": 11.604545454545454,
                "pitch": 53,
                "velocity": 64,
                "duration": 0.1159090909090903,
                "tempo": 120.0
            },
            {
                "start_time": 11.622727272727273,
                "end_time": 11.738636363636363,
                "pitch": 54,
                "velocity": 64,
                "duration": 0.1159090909090903,
                "tempo": 120.0
            },
            {
                "start_time": 11.756818181818181,
                "end_time": 11.875,
                "pitch": 53,
                "velocity": 64,
                "duration": 0.11818181818181905,
                "tempo": 120.0
            },
            {
                "start_time": 11.89090909090909,
                "end_time": 12.009090909090908,
                "pitch": 53,
                "velocity": 64,
                "duration": 0.11818181818181728,
                "tempo": 120.0
            },
            {
                "start_time": 12.024999999999999,
                "end_time": 12.143181818181818,
                "pitch": 56,
                "velocity": 64,
                "duration": 0.11818181818181905,
                "tempo": 120.0
            },
            {
                "start_time": 12.159090909090908,
                "end_time": 12.277272727272727,
                "pitch": 54,
                "velocity": 64,
                "duration": 0.11818181818181905,
                "tempo": 120.0
            },
            {
                "start_time": 12.293181818181818,
                "end_time": 12.411363636363635,
                "pitch": 53,
                "velocity": 64,
                "duration": 0.11818181818181728,
                "tempo": 120.0
            },
            {
                "start_time": 12.427272727272726,
                "end_time": 12.545454545454545,
                "pitch": 61,
                "velocity": 64,
                "duration": 0.11818181818181905,
                "tempo": 120.0
            },
            {
                "start_time": 12.561363636363636,
                "end_time": 12.679545454545455,
                "pitch": 60,
                "velocity": 64,
                "duration": 0.11818181818181905,
                "tempo": 120.0
            },
            {
                "start_time": 12.695454545454545,
                "end_time": 12.813636363636363,
                "pitch": 54,
                "velocity": 64,
                "duration": 0.11818181818181728,
                "tempo": 120.0
            },
            {
                "start_time": 12.829545454545453,
                "end_time": 12.947727272727272,
                "pitch": 53,
                "velocity": 64,
                "duration": 0.11818181818181905,
                "tempo": 120.0
            },
            {
                "start_time": 12.963636363636363,
                "end_time": 13.081818181818182,
                "pitch": 53,
                "velocity": 64,
                "duration": 0.11818181818181905,
                "tempo": 120.0
            },
            {
                "start_time": 13.097727272727273,
                "end_time": 13.21590909090909,
                "pitch": 53,
                "velocity": 64,
                "duration": 0.11818181818181728,
                "tempo": 120.0
            },
            {
                "start_time": 13.234090909090908,
                "end_time": 13.35,
                "pitch": 54,
                "velocity": 64,
                "duration": 0.11590909090909207,
                "tempo": 120.0
            },
            {
                "start_time": 13.36590909090909,
                "end_time": 13.484090909090908,
                "pitch": 53,
                "velocity": 64,
                "duration": 0.11818181818181728,
                "tempo": 120.0
            },
            {
                "start_time": 13.5,
                "end_time": 13.61590909090909,
                "pitch": 53,
                "velocity": 64,
                "duration": 0.1159090909090903,
                "tempo": 120.0
            },
            {
                "start_time": 13.634090909090908,
                "end_time": 13.75,
                "pitch": 56,
                "velocity": 64,
                "duration": 0.11590909090909207,
                "tempo": 120.0
            },
            {
                "start_time": 13.768181818181818,
                "end_time": 13.884090909090908,
                "pitch": 54,
                "velocity": 64,
                "duration": 0.1159090909090903,
                "tempo": 120.0
            },
            {
                "start_time": 13.902272727272727,
                "end_time": 14.018181818181818,
                "pitch": 53,
                "velocity": 64,
                "duration": 0.1159090909090903,
                "tempo": 120.0
            },
            {
                "start_time": 14.036363636363635,
                "end_time": 14.152272727272727,
                "pitch": 58,
                "velocity": 64,
                "duration": 0.11590909090909207,
                "tempo": 120.0
            },
            {
                "start_time": 14.170454545454545,
                "end_time": 14.286363636363635,
                "pitch": 56,
                "velocity": 64,
                "duration": 0.1159090909090903,
                "tempo": 120.0
            },
            {
                "start_time": 14.304545454545455,
                "end_time": 14.422727272727272,
                "pitch": 54,
                "velocity": 64,
                "duration": 0.11818181818181728,
                "tempo": 120.0
            },
            {
                "start_time": 14.438636363636363,
                "end_time": 14.556818181818182,
                "pitch": 53,
                "velocity": 64,
                "duration": 0.11818181818181905,
                "tempo": 120.0
            },
            {
                "start_time": 14.572727272727272,
                "end_time": 14.69090909090909,
                "pitch": 54,
                "velocity": 64,
                "duration": 0.11818181818181728,
                "tempo": 120.0
            },
            {
                "start_time": 14.70681818181818,
                "end_time": 14.825,
                "pitch": 56,
                "velocity": 64,
                "duration": 0.11818181818181905,
                "tempo": 120.0
            },
            {
                "start_time": 14.84090909090909,
                "end_time": 14.959090909090909,
                "pitch": 58,
                "velocity": 64,
                "duration": 0.11818181818181905,
                "tempo": 120.0
            },
            {
                "start_time": 14.975,
                "end_time": 15.093181818181817,
                "pitch": 60,
                "velocity": 64,
                "duration": 0.11818181818181728,
                "tempo": 120.0
            },
            {
                "start_time": 15.109090909090908,
                "end_time": 15.227272727272727,
                "pitch": 61,
                "velocity": 64,
                "duration": 0.11818181818181905,
                "tempo": 120.0
            },
            {
                "start_time": 15.243181818181817,
                "end_time": 15.361363636363636,
                "pitch": 63,
                "velocity": 64,
                "duration": 0.11818181818181905,
                "tempo": 120.0
            },
            {
                "start_time": 15.377272727272727,
                "end_time": 15.493181818181817,
                "pitch": 65,
                "velocity": 64,
                "duration": 0.1159090909090903,
                "tempo": 120.0
            },
            {
                "start_time": 15.511363636363635,
                "end_time": 15.627272727272727,
                "pitch": 66,
                "velocity": 64,
                "duration": 0.11590909090909207,
                "tempo": 120.0
            },
            {
                "start_time": 15.643181818181818,
                "end_time": 15.761363636363635,
                "pitch": 76,
                "velocity": 64,
                "duration": 0.11818181818181728,
                "tempo": 120.0
            },
            {
                "start_time": 15.777272727272727,
                "end_time": 15.895454545454545,
                "pitch": 75,
                "velocity": 64,
                "duration": 0.11818181818181728,
                "tempo": 120.0
            },
            {
                "start_time": 15.911363636363635,
                "end_time": 16.029545454545453,
                "pitch": 73,
                "velocity": 64,
                "duration": 0.11818181818181728,
                "tempo": 120.0
            },
            {
                "start_time": 32.08409090909091,
                "end_time": 32.340909090909086,
                "pitch": 46,
                "velocity": 64,
                "duration": 0.2568181818181756,
                "tempo": 120.0
            },
            {
                "start_time": 32.35909090909091,
                "end_time": 32.47727272727273,
                "pitch": 46,
                "velocity": 64,
                "duration": 0.11818181818181728,
                "tempo": 120.0
            },
            {
                "start_time": 32.49545454545454,
                "end_time": 32.611363636363635,
                "pitch": 46,
                "velocity": 64,
                "duration": 0.11590909090909207,
                "tempo": 120.0
            },
            {
                "start_time": 32.62954545454545,
                "end_time": 32.74545454545454,
                "pitch": 46,
                "velocity": 64,
                "duration": 0.11590909090909207,
                "tempo": 120.0
            },
            {
                "start_time": 32.76136363636363,
                "end_time": 32.87954545454545,
                "pitch": 46,
                "velocity": 64,
                "duration": 0.11818181818181728,
                "tempo": 120.0
            },
            {
                "start_time": 32.89545454545454,
                "end_time": 33.14545454545454,
                "pitch": 58,
                "velocity": 64,
                "duration": 0.25,
                "tempo": 120.0
            },
            {
                "start_time": 33.16136363636363,
                "end_time": 33.279545454545456,
                "pitch": 56,
                "velocity": 64,
                "duration": 0.11818181818182438,
                "tempo": 120.0
            },
            {
                "start_time": 33.29545454545455,
                "end_time": 33.54772727272727,
                "pitch": 56,
                "velocity": 64,
                "duration": 0.2522727272727252,
                "tempo": 120.0
            },
            {
                "start_time": 33.56363636363636,
                "end_time": 33.68181818181818,
                "pitch": 58,
                "velocity": 64,
                "duration": 0.11818181818181728,
                "tempo": 120.0
            },
            {
                "start_time": 33.69772727272727,
                "end_time": 33.94772727272727,
                "pitch": 46,
                "velocity": 64,
                "duration": 0.25,
                "tempo": 120.0
            },
            {
                "start_time": 33.96363636363636,
                "end_time": 34.08181818181818,
                "pitch": 46,
                "velocity": 64,
                "duration": 0.11818181818181728,
                "tempo": 120.0
            },
            {
                "start_time": 34.09772727272727,
                "end_time": 34.21363636363636,
                "pitch": 46,
                "velocity": 64,
                "duration": 0.11590909090909207,
                "tempo": 120.0
            },
            {
                "start_time": 34.23181818181818,
                "end_time": 34.34772727272727,
                "pitch": 46,
                "velocity": 64,
                "duration": 0.11590909090909207,
                "tempo": 120.0
            },
            {
                "start_time": 34.36363636363636,
                "end_time": 34.48181818181818,
                "pitch": 46,
                "velocity": 64,
                "duration": 0.11818181818181728,
                "tempo": 120.0
            },
            {
                "start_time": 34.49772727272727,
                "end_time": 34.74772727272727,
                "pitch": 54,
                "velocity": 64,
                "duration": 0.25,
                "tempo": 120.0
            },
            {
                "start_time": 34.763636363636365,
                "end_time": 34.88181818181818,
                "pitch": 56,
                "velocity": 64,
                "duration": 0.11818181818181728,
                "tempo": 120.0
            },
            {
                "start_time": 34.89772727272727,
                "end_time": 35.013636363636365,
                "pitch": 56,
                "velocity": 64,
                "duration": 0.11590909090909207,
                "tempo": 120.0
            },
            {
                "start_time": 35.03181818181818,
                "end_time": 35.14772727272727,
                "pitch": 46,
                "velocity": 64,
                "duration": 0.11590909090909207,
                "tempo": 120.0
            },
            {
                "start_time": 35.163636363636364,
                "end_time": 35.28181818181818,
                "pitch": 46,
                "velocity": 64,
                "duration": 0.11818181818181728,
                "tempo": 120.0
            },
            {
                "start_time": 35.29772727272727,
                "end_time": 35.55,
                "pitch": 46,
                "velocity": 64,
                "duration": 0.2522727272727252,
                "tempo": 120.0
            },
            {
                "start_time": 35.56590909090909,
                "end_time": 35.684090909090905,
                "pitch": 46,
                "velocity": 64,
                "duration": 0.11818181818181728,
                "tempo": 120.0
            },
            {
                "start_time": 35.699999999999996,
                "end_time": 35.81818181818181,
                "pitch": 46,
                "velocity": 64,
                "duration": 0.11818181818181728,
                "tempo": 120.0
            },
            {
                "start_time": 35.83409090909091,
                "end_time": 35.949999999999996,
                "pitch": 46,
                "velocity": 64,
                "duration": 0.11590909090908497,
                "tempo": 120.0
            },
            {
                "start_time": 35.96818181818182,
                "end_time": 36.08409090909091,
                "pitch": 46,
                "velocity": 64,
                "duration": 0.11590909090909207,
                "tempo": 120.0
            },
            {
                "start_time": 36.1,
                "end_time": 36.35,
                "pitch": 58,
                "velocity": 64,
                "duration": 0.25,
                "tempo": 120.0
            },
            {
                "start_time": 36.36818181818182,
                "end_time": 36.48409090909091,
                "pitch": 56,
                "velocity": 64,
                "duration": 0.11590909090909207,
                "tempo": 120.0
            },
            {
                "start_time": 36.5,
                "end_time": 36.75,
                "pitch": 56,
                "velocity": 64,
                "duration": 0.25,
                "tempo": 120.0
            },
            {
                "start_time": 36.768181818181816,
                "end_time": 36.88409090909091,
                "pitch": 58,
                "velocity": 64,
                "duration": 0.11590909090909207,
                "tempo": 120.0
            },
            {
                "start_time": 36.9,
                "end_time": 37.15,
                "pitch": 46,
                "velocity": 64,
                "duration": 0.25,
                "tempo": 120.0
            },
            {
                "start_time": 37.168181818181814,
                "end_time": 37.28409090909091,
                "pitch": 46,
                "velocity": 64,
                "duration": 0.11590909090909207,
                "tempo": 120.0
            },
            {
                "start_time": 37.3,
                "end_time": 37.418181818181814,
                "pitch": 46,
                "velocity": 64,
                "duration": 0.11818181818181728,
                "tempo": 120.0
            },
            {
                "start_time": 37.434090909090905,
                "end_time": 37.55227272727272,
                "pitch": 46,
                "velocity": 64,
                "duration": 0.11818181818181728,
                "tempo": 120.0
            },
            {
                "start_time": 37.56818181818181,
                "end_time": 37.68636363636364,
                "pitch": 46,
                "velocity": 64,
                "duration": 0.11818181818182438,
                "tempo": 120.0
            },
            {
                "start_time": 37.70454545454545,
                "end_time": 37.95454545454545,
                "pitch": 54,
                "velocity": 64,
                "duration": 0.25,
                "tempo": 120.0
            },
            {
                "start_time": 37.970454545454544,
                "end_time": 38.086363636363636,
                "pitch": 56,
                "velocity": 64,
                "duration": 0.11590909090909207,
                "tempo": 120.0
            },
            {
                "start_time": 38.10454545454545,
                "end_time": 38.220454545454544,
                "pitch": 56,
                "velocity": 64,
                "duration": 0.11590909090909207,
                "tempo": 120.0
            },
            {
                "start_time": 38.236363636363635,
                "end_time": 38.35454545454545,
                "pitch": 46,
                "velocity": 64,
                "duration": 0.11818181818181728,
                "tempo": 120.0
            },
            {
                "start_time": 38.37045454545454,
                "end_time": 38.486363636363635,
                "pitch": 46,
                "velocity": 64,
                "duration": 0.11590909090909207,
                "tempo": 120.0
            },
            {
                "start_time": 41.711363636363636,
                "end_time": 41.82727272727273,
                "pitch": 53,
                "velocity": 64,
                "duration": 0.11590909090909207,
                "tempo": 120.0
            },
            {
                "start_time": 41.845454545454544,
                "end_time": 41.961363636363636,
                "pitch": 53,
                "velocity": 64,
                "duration": 0.11590909090909207,
                "tempo": 120.0
            },
            {
                "start_time": 41.97727272727273,
                "end_time": 42.095454545454544,
                "pitch": 53,
                "velocity": 64,
                "duration": 0.11818181818181728,
                "tempo": 120.0
            },
            {
                "start_time": 42.111363636363635,
                "end_time": 42.22727272727273,
                "pitch": 54,
                "velocity": 64,
                "duration": 0.11590909090909207,
                "tempo": 120.0
            },
            {
                "start_time": 42.24545454545454,
                "end_time": 42.361363636363635,
                "pitch": 53,
                "velocity": 64,
                "duration": 0.11590909090909207,
                "tempo": 120.0
            },
            {
                "start_time": 42.377272727272725,
                "end_time": 42.49545454545454,
                "pitch": 53,
                "velocity": 64,
                "duration": 0.11818181818181728,
                "tempo": 120.0
            },
            {
                "start_time": 42.51136363636363,
                "end_time": 42.627272727272725,
                "pitch": 56,
                "velocity": 64,
                "duration": 0.11590909090909207,
                "tempo": 120.0
            },
            {
                "start_time": 42.64545454545454,
                "end_time": 42.76136363636363,
                "pitch": 54,
                "velocity": 64,
                "duration": 0.11590909090909207,
                "tempo": 120.0
            },
            {
                "start_time": 42.777272727272724,
                "end_time": 42.89545454545454,
                "pitch": 53,
                "velocity": 64,
                "duration": 0.11818181818181728,
                "tempo": 120.0
            },
            {
                "start_time": 42.91136363636363,
                "end_time": 43.027272727272724,
                "pitch": 58,
                "velocity": 64,
                "duration": 0.11590909090909207,
                "tempo": 120.0
            },
            {
                "start_time": 43.04545454545455,
                "end_time": 43.16136363636363,
                "pitch": 56,
                "velocity": 64,
                "duration": 0.11590909090908497,
                "tempo": 120.0
            },
            {
                "start_time": 43.17727272727272,
                "end_time": 43.29545454545455,
                "pitch": 54,
                "velocity": 64,
                "duration": 0.11818181818182438,
                "tempo": 120.0
            },
            {
                "start_time": 43.31136363636364,
                "end_time": 43.429545454545455,
                "pitch": 53,
                "velocity": 64,
                "duration": 0.11818181818181728,
                "tempo": 120.0
            },
            {
                "start_time": 43.445454545454545,
                "end_time": 43.56363636363636,
                "pitch": 53,
                "velocity": 64,
                "duration": 0.11818181818181728,
                "tempo": 120.0
            },
            {
                "start_time": 43.57954545454545,
                "end_time": 43.69772727272727,
                "pitch": 53,
                "velocity": 64,
                "duration": 0.11818181818181728,
                "tempo": 120.0
            },
            {
                "start_time": 43.71363636363636,
                "end_time": 43.83181818181818,
                "pitch": 54,
                "velocity": 64,
                "duration": 0.11818181818181728,
                "tempo": 120.0
            },
            {
                "start_time": 43.84772727272727,
                "end_time": 43.96363636363636,
                "pitch": 53,
                "velocity": 64,
                "duration": 0.11590909090909207,
                "tempo": 120.0
            },
            {
                "start_time": 43.98181818181818,
                "end_time": 44.09772727272727,
                "pitch": 53,
                "velocity": 64,
                "duration": 0.11590909090909207,
                "tempo": 120.0
            },
            {
                "start_time": 44.11363636363636,
                "end_time": 44.23181818181818,
                "pitch": 56,
                "velocity": 64,
                "duration": 0.11818181818181728,
                "tempo": 120.0
            },
            {
                "start_time": 44.24772727272727,
                "end_time": 44.36363636363636,
                "pitch": 54,
                "velocity": 64,
                "duration": 0.11590909090909207,
                "tempo": 120.0
            },
            {
                "start_time": 44.38181818181818,
                "end_time": 44.49772727272727,
                "pitch": 53,
                "velocity": 64,
                "duration": 0.11590909090908497,
                "tempo": 120.0
            },
            {
                "start_time": 44.51363636363636,
                "end_time": 44.63181818181818,
                "pitch": 61,
                "velocity": 64,
                "duration": 0.11818181818182438,
                "tempo": 120.0
            },
            {
                "start_time": 44.64772727272727,
                "end_time": 44.76363636363636,
                "pitch": 60,
                "velocity": 64,
                "duration": 0.11590909090908497,
                "tempo": 120.0
            },
            {
                "start_time": 44.78181818181818,
                "end_time": 44.89772727272727,
                "pitch": 54,
                "velocity": 64,
                "duration": 0.11590909090909207,
                "tempo": 120.0
            },
            {
                "start_time": 44.913636363636364,
                "end_time": 45.03181818181818,
                "pitch": 53,
                "velocity": 64,
                "duration": 0.11818181818181728,
                "tempo": 120.0
            },
            {
                "start_time": 45.04772727272727,
                "end_time": 45.163636363636364,
                "pitch": 53,
                "velocity": 64,
                "duration": 0.11590909090909207,
                "tempo": 120.0
            },
            {
                "start_time": 45.18181818181818,
                "end_time": 45.29772727272727,
                "pitch": 53,
                "velocity": 64,
                "duration": 0.11590909090909207,
                "tempo": 120.0
            },
            {
                "start_time": 45.31363636363636,
                "end_time": 45.43181818181818,
                "pitch": 54,
                "velocity": 64,
                "duration": 0.11818181818181728,
                "tempo": 120.0
            },
            {
                "start_time": 45.44772727272727,
                "end_time": 45.56590909090909,
                "pitch": 53,
                "velocity": 64,
                "duration": 0.11818181818181728,
                "tempo": 120.0
            },
            {
                "start_time": 45.58181818181818,
                "end_time": 45.699999999999996,
                "pitch": 53,
                "velocity": 64,
                "duration": 0.11818181818181728,
                "tempo": 120.0
            },
            {
                "start_time": 45.715909090909086,
                "end_time": 45.834090909090904,
                "pitch": 56,
                "velocity": 64,
                "duration": 0.11818181818181728,
                "tempo": 120.0
            },
            {
                "start_time": 45.849999999999994,
                "end_time": 45.965909090909086,
                "pitch": 54,
                "velocity": 64,
                "duration": 0.11590909090909207,
                "tempo": 120.0
            },
            {
                "start_time": 45.98409090909091,
                "end_time": 46.099999999999994,
                "pitch": 53,
                "velocity": 64,
                "duration": 0.11590909090908497,
                "tempo": 120.0
            },
            {
                "start_time": 46.11590909090909,
                "end_time": 46.23409090909091,
                "pitch": 58,
                "velocity": 64,
                "duration": 0.11818181818181728,
                "tempo": 120.0
            },
            {
                "start_time": 46.25,
                "end_time": 46.36590909090909,
                "pitch": 56,
                "velocity": 64,
                "duration": 0.11590909090909207,
                "tempo": 120.0
            },
            {
                "start_time": 46.38409090909091,
                "end_time": 46.5,
                "pitch": 54,
                "velocity": 64,
                "duration": 0.11590909090909207,
                "tempo": 120.0
            },
            {
                "start_time": 46.51590909090909,
                "end_time": 46.63409090909091,
                "pitch": 53,
                "velocity": 64,
                "duration": 0.11818181818181728,
                "tempo": 120.0
            },
            {
                "start_time": 46.65,
                "end_time": 46.76590909090909,
                "pitch": 54,
                "velocity": 64,
                "duration": 0.11590909090909207,
                "tempo": 120.0
            },
            {
                "start_time": 46.78409090909091,
                "end_time": 46.9,
                "pitch": 56,
                "velocity": 64,
                "duration": 0.11590909090909207,
                "tempo": 120.0
            },
            {
                "start_time": 46.91590909090909,
                "end_time": 47.03409090909091,
                "pitch": 58,
                "velocity": 64,
                "duration": 0.11818181818181728,
                "tempo": 120.0
            },
            {
                "start_time": 47.05,
                "end_time": 47.16590909090909,
                "pitch": 60,
                "velocity": 64,
                "duration": 0.11590909090909207,
                "tempo": 120.0
            },
            {
                "start_time": 47.184090909090905,
                "end_time": 47.3,
                "pitch": 61,
                "velocity": 64,
                "duration": 0.11590909090909207,
                "tempo": 120.0
            },
            {
                "start_time": 47.31590909090909,
                "end_time": 47.56818181818181,
                "pitch": 63,
                "velocity": 64,
                "duration": 0.2522727272727252,
                "tempo": 120.0
            },
            {
                "start_time": 47.586363636363636,
                "end_time": 47.834090909090904,
                "pitch": 65,
                "velocity": 64,
                "duration": 0.2477272727272677,
                "tempo": 120.0
            },
            {
                "start_time": 47.849999999999994,
                "end_time": 48.095454545454544,
                "pitch": 66,
                "velocity": 64,
                "duration": 0.2454545454545496,
                "tempo": 120.0
            },
            {
                "start_time": 48.111363636363635,
                "end_time": 48.23181818181818,
                "pitch": 53,
                "velocity": 64,
                "duration": 0.12045454545454248,
                "tempo": 120.0
            },
            {
                "start_time": 48.24772727272727,
                "end_time": 48.36818181818182,
                "pitch": 53,
                "velocity": 64,
                "duration": 0.12045454545454959,
                "tempo": 120.0
            },
            {
                "start_time": 48.38636363636363,
                "end_time": 48.50454545454545,
                "pitch": 53,
                "velocity": 64,
                "duration": 0.11818181818181728,
                "tempo": 120.0
            },
            {
                "start_time": 48.52272727272727,
                "end_time": 48.63863636363636,
                "pitch": 54,
                "velocity": 64,
                "duration": 0.11590909090908497,
                "tempo": 120.0
            },
            {
                "start_time": 48.65681818181818,
                "end_time": 48.77272727272727,
                "pitch": 53,
                "velocity": 64,
                "duration": 0.11590909090909207,
                "tempo": 120.0
            },
            {
                "start_time": 48.788636363636364,
                "end_time": 48.90681818181818,
                "pitch": 53,
                "velocity": 64,
                "duration": 0.11818181818181728,
                "tempo": 120.0
            },
            {
                "start_time": 48.92272727272727,
                "end_time": 49.038636363636364,
                "pitch": 56,
                "velocity": 64,
                "duration": 0.11590909090909207,
                "tempo": 120.0
            },
            {
                "start_time": 49.05681818181818,
                "end_time": 49.17272727272727,
                "pitch": 54,
                "velocity": 64,
                "duration": 0.11590909090909207,
                "tempo": 120.0
            },
            {
                "start_time": 49.18863636363636,
                "end_time": 49.30681818181818,
                "pitch": 53,
                "velocity": 64,
                "duration": 0.11818181818181728,
                "tempo": 120.0
            },
            {
                "start_time": 49.32272727272727,
                "end_time": 49.44090909090909,
                "pitch": 58,
                "velocity": 64,
                "duration": 0.11818181818181728,
                "tempo": 120.0
            },
            {
                "start_time": 49.45681818181818,
                "end_time": 49.574999999999996,
                "pitch": 56,
                "velocity": 64,
                "duration": 0.11818181818181728,
                "tempo": 120.0
            },
            {
                "start_time": 49.590909090909086,
                "end_time": 49.709090909090904,
                "pitch": 54,
                "velocity": 64,
                "duration": 0.11818181818181728,
                "tempo": 120.0
            },
            {
                "start_time": 49.724999999999994,
                "end_time": 49.840909090909086,
                "pitch": 53,
                "velocity": 64,
                "duration": 0.11590909090909207,
                "tempo": 120.0
            },
            {
                "start_time": 49.85909090909091,
                "end_time": 49.974999999999994,
                "pitch": 53,
                "velocity": 64,
                "duration": 0.11590909090908497,
                "tempo": 120.0
            },
            {
                "start_time": 49.990909090909085,
                "end_time": 50.10909090909091,
                "pitch": 53,
                "velocity": 64,
                "duration": 0.11818181818182438,
                "tempo": 120.0
            },
            {
                "start_time": 50.125,
                "end_time": 50.240909090909085,
                "pitch": 54,
                "velocity": 64,
                "duration": 0.11590909090908497,
                "tempo": 120.0
            },
            {
                "start_time": 50.25909090909091,
                "end_time": 50.375,
                "pitch": 53,
                "velocity": 64,
                "duration": 0.11590909090909207,
                "tempo": 120.0
            },
            {
                "start_time": 50.39090909090909,
                "end_time": 50.50909090909091,
                "pitch": 53,
                "velocity": 64,
                "duration": 0.11818181818181728,
                "tempo": 120.0
            },
            {
                "start_time": 50.525,
                "end_time": 50.64090909090909,
                "pitch": 56,
                "velocity": 64,
                "duration": 0.11590909090909207,
                "tempo": 120.0
            },
            {
                "start_time": 50.65909090909091,
                "end_time": 50.775,
                "pitch": 54,
                "velocity": 64,
                "duration": 0.11590909090909207,
                "tempo": 120.0
            },
            {
                "start_time": 50.79090909090909,
                "end_time": 50.90909090909091,
                "pitch": 53,
                "velocity": 64,
                "duration": 0.11818181818181728,
                "tempo": 120.0
            },
            {
                "start_time": 50.925,
                "end_time": 51.04090909090909,
                "pitch": 61,
                "velocity": 64,
                "duration": 0.11590909090909207,
                "tempo": 120.0
            },
            {
                "start_time": 51.059090909090905,
                "end_time": 51.175,
                "pitch": 60,
                "velocity": 64,
                "duration": 0.11590909090909207,
                "tempo": 120.0
            },
            {
                "start_time": 51.19090909090909,
                "end_time": 51.309090909090905,
                "pitch": 54,
                "velocity": 64,
                "duration": 0.11818181818181728,
                "tempo": 120.0
            },
            {
                "start_time": 51.324999999999996,
                "end_time": 51.44318181818181,
                "pitch": 53,
                "velocity": 64,
                "duration": 0.11818181818181728,
                "tempo": 120.0
            },
            {
                "start_time": 51.459090909090904,
                "end_time": 51.57727272727273,
                "pitch": 53,
                "velocity": 64,
                "duration": 0.11818181818182438,
                "tempo": 120.0
            },
            {
                "start_time": 51.59318181818182,
                "end_time": 51.711363636363636,
                "pitch": 53,
                "velocity": 64,
                "duration": 0.11818181818181728,
                "tempo": 120.0
            },
            {
                "start_time": 51.72727272727273,
                "end_time": 51.845454545454544,
                "pitch": 54,
                "velocity": 64,
                "duration": 0.11818181818181728,
                "tempo": 120.0
            },
            {
                "start_time": 51.861363636363635,
                "end_time": 51.97727272727273,
                "pitch": 53,
                "velocity": 64,
                "duration": 0.11590909090909207,
                "tempo": 120.0
            },
            {
                "start_time": 51.99545454545454,
                "end_time": 52.111363636363635,
                "pitch": 53,
                "velocity": 64,
                "duration": 0.11590909090909207,
                "tempo": 120.0
            },
            {
                "start_time": 52.127272727272725,
                "end_time": 52.24545454545454,
                "pitch": 56,
                "velocity": 64,
                "duration": 0.11818181818181728,
                "tempo": 120.0
            },
            {
                "start_time": 52.26136363636363,
                "end_time": 52.377272727272725,
                "pitch": 54,
                "velocity": 64,
                "duration": 0.11590909090909207,
                "tempo": 120.0
            },
            {
                "start_time": 52.39545454545454,
                "end_time": 52.51136363636363,
                "pitch": 53,
                "velocity": 64,
                "duration": 0.11590909090909207,
                "tempo": 120.0
            },
            {
                "start_time": 52.527272727272724,
                "end_time": 52.64545454545454,
                "pitch": 58,
                "velocity": 64,
                "duration": 0.11818181818181728,
                "tempo": 120.0
            },
            {
                "start_time": 52.66136363636363,
                "end_time": 52.777272727272724,
                "pitch": 56,
                "velocity": 64,
                "duration": 0.11590909090909207,
                "tempo": 120.0
            },
            {
                "start_time": 52.79545454545454,
                "end_time": 52.91136363636363,
                "pitch": 54,
                "velocity": 64,
                "duration": 0.11590909090909207,
                "tempo": 120.0
            },
            {
                "start_time": 52.92727272727272,
                "end_time": 53.04545454545454,
                "pitch": 53,
                "velocity": 64,
                "duration": 0.11818181818181728,
                "tempo": 120.0
            },
            {
                "start_time": 53.06136363636363,
                "end_time": 53.17727272727272,
                "pitch": 54,
                "velocity": 64,
                "duration": 0.11590909090909207,
                "tempo": 120.0
            },
            {
                "start_time": 53.195454545454545,
                "end_time": 53.31136363636363,
                "pitch": 56,
                "velocity": 64,
                "duration": 0.11590909090908497,
                "tempo": 120.0
            },
            {
                "start_time": 53.32727272727273,
                "end_time": 53.445454545454545,
                "pitch": 58,
                "velocity": 64,
                "duration": 0.11818181818181728,
                "tempo": 120.0
            },
            {
                "start_time": 53.461363636363636,
                "end_time": 53.57954545454545,
                "pitch": 60,
                "velocity": 64,
                "duration": 0.11818181818181728,
                "tempo": 120.0
            },
            {
                "start_time": 53.595454545454544,
                "end_time": 53.71363636363636,
                "pitch": 61,
                "velocity": 64,
                "duration": 0.11818181818181728,
                "tempo": 120.0
            },
            {
                "start_time": 53.72954545454545,
                "end_time": 53.84772727272727,
                "pitch": 63,
                "velocity": 64,
                "duration": 0.11818181818181728,
                "tempo": 120.0
            },
            {
                "start_time": 53.86363636363636,
                "end_time": 53.97954545454545,
                "pitch": 65,
                "velocity": 64,
                "duration": 0.11590909090909207,
                "tempo": 120.0
            },
            {
                "start_time": 53.99772727272727,
                "end_time": 54.11363636363636,
                "pitch": 66,
                "velocity": 64,
                "duration": 0.11590909090909207,
                "tempo": 120.0
            },
            {
                "start_time": 54.12954545454545,
                "end_time": 54.24772727272727,
                "pitch": 76,
                "velocity": 64,
                "duration": 0.11818181818181728,
                "tempo": 120.0
            },
            {
                "start_time": 54.26363636363636,
                "end_time": 54.37954545454545,
                "pitch": 75,
                "velocity": 64,
                "duration": 0.11590909090909207,
                "tempo": 120.0
            },
            {
                "start_time": 54.39772727272727,
                "end_time": 54.51363636363636,
                "pitch": 73,
                "velocity": 64,
                "duration": 0.11590909090908497,
                "tempo": 120.0
            },
            {
                "start_time": 70.57045454545454,
                "end_time": 70.82272727272726,
                "pitch": 46,
                "velocity": 64,
                "duration": 0.2522727272727252,
                "tempo": 120.0
            },
            {
                "start_time": 70.83863636363635,
                "end_time": 70.95681818181818,
                "pitch": 46,
                "velocity": 64,
                "duration": 0.11818181818182438,
                "tempo": 120.0
            },
            {
                "start_time": 70.97272727272727,
                "end_time": 71.0909090909091,
                "pitch": 46,
                "velocity": 64,
                "duration": 0.11818181818182438,
                "tempo": 120.0
            },
            {
                "start_time": 71.10681818181818,
                "end_time": 71.22272727272727,
                "pitch": 46,
                "velocity": 64,
                "duration": 0.11590909090908497,
                "tempo": 120.0
            },
            {
                "start_time": 71.24090909090908,
                "end_time": 71.35681818181818,
                "pitch": 46,
                "velocity": 64,
                "duration": 0.11590909090909918,
                "tempo": 120.0
            },
            {
                "start_time": 71.37272727272727,
                "end_time": 71.625,
                "pitch": 58,
                "velocity": 64,
                "duration": 0.2522727272727252,
                "tempo": 120.0
            },
            {
                "start_time": 71.64318181818182,
                "end_time": 71.7590909090909,
                "pitch": 56,
                "velocity": 64,
                "duration": 0.11590909090908497,
                "tempo": 120.0
            },
            {
                "start_time": 71.77727272727273,
                "end_time": 72.02727272727272,
                "pitch": 56,
                "velocity": 64,
                "duration": 0.2499999999999858,
                "tempo": 120.0
            },
            {
                "start_time": 72.04318181818182,
                "end_time": 72.1590909090909,
                "pitch": 58,
                "velocity": 64,
                "duration": 0.11590909090908497,
                "tempo": 120.0
            },
            {
                "start_time": 72.17727272727272,
                "end_time": 72.42727272727272,
                "pitch": 46,
                "velocity": 64,
                "duration": 0.25,
                "tempo": 120.0
            },
            {
                "start_time": 72.44545454545454,
                "end_time": 72.56136363636364,
                "pitch": 46,
                "velocity": 64,
                "duration": 0.11590909090909918,
                "tempo": 120.0
            },
            {
                "start_time": 72.57954545454545,
                "end_time": 72.69545454545454,
                "pitch": 46,
                "velocity": 64,
                "duration": 0.11590909090908497,
                "tempo": 120.0
            },
            {
                "start_time": 72.71363636363635,
                "end_time": 72.83181818181818,
                "pitch": 46,
                "velocity": 64,
                "duration": 0.11818181818182438,
                "tempo": 120.0
            },
            {
                "start_time": 72.84772727272727,
                "end_time": 72.9659090909091,
                "pitch": 46,
                "velocity": 64,
                "duration": 0.11818181818182438,
                "tempo": 120.0
            },
            {
                "start_time": 72.98181818181818,
                "end_time": 73.23181818181818,
                "pitch": 54,
                "velocity": 64,
                "duration": 0.25,
                "tempo": 120.0
            },
            {
                "start_time": 73.24772727272727,
                "end_time": 73.36590909090908,
                "pitch": 56,
                "velocity": 64,
                "duration": 0.11818181818181017,
                "tempo": 120.0
            },
            {
                "start_time": 73.38181818181818,
                "end_time": 73.50227272727273,
                "pitch": 56,
                "velocity": 64,
                "duration": 0.12045454545454959,
                "tempo": 120.0
            },
            {
                "start_time": 73.51818181818182,
                "end_time": 73.63863636363637,
                "pitch": 46,
                "velocity": 64,
                "duration": 0.12045454545454959,
                "tempo": 120.0
            },
            {
                "start_time": 73.65454545454546,
                "end_time": 73.77499999999999,
                "pitch": 46,
                "velocity": 64,
                "duration": 0.12045454545453538,
                "tempo": 120.0
            },
            {
                "start_time": 73.79318181818182,
                "end_time": 74.03863636363636,
                "pitch": 46,
                "velocity": 64,
                "duration": 0.24545454545453538,
                "tempo": 120.0
            },
            {
                "start_time": 74.05454545454545,
                "end_time": 74.16818181818182,
                "pitch": 46,
                "velocity": 64,
                "duration": 0.11363636363637397,
                "tempo": 120.0
            },
            {
                "start_time": 74.18409090909091,
                "end_time": 74.30227272727272,
                "pitch": 46,
                "velocity": 64,
                "duration": 0.11818181818181017,
                "tempo": 120.0
            },
            {
                "start_time": 74.31818181818181,
                "end_time": 74.43636363636364,
                "pitch": 46,
                "velocity": 64,
                "duration": 0.11818181818182438,
                "tempo": 120.0
            },
            {
                "start_time": 74.45227272727273,
                "end_time": 74.57045454545454,
                "pitch": 46,
                "velocity": 64,
                "duration": 0.11818181818181017,
                "tempo": 120.0
            },
            {
                "start_time": 74.58636363636363,
                "end_time": 74.83863636363635,
                "pitch": 58,
                "velocity": 64,
                "duration": 0.2522727272727252,
                "tempo": 120.0
            },
            {
                "start_time": 74.85681818181818,
                "end_time": 74.97272727272727,
                "pitch": 56,
                "velocity": 64,
                "duration": 0.11590909090908497,
                "tempo": 120.0
            },
            {
                "start_time": 74.99090909090908,
                "end_time": 75.24090909090908,
                "pitch": 56,
                "velocity": 64,
                "duration": 0.25,
                "tempo": 120.0
            },
            {
                "start_time": 75.25681818181818,
                "end_time": 75.37272727272727,
                "pitch": 58,
                "velocity": 64,
                "duration": 0.11590909090909918,
                "tempo": 120.0
            },
            {
                "start_time": 75.39090909090909,
                "end_time": 75.64090909090909,
                "pitch": 46,
                "velocity": 64,
                "duration": 0.25,
                "tempo": 120.0
            },
            {
                "start_time": 75.6590909090909,
                "end_time": 75.77499999999999,
                "pitch": 46,
                "velocity": 64,
                "duration": 0.11590909090908497,
                "tempo": 120.0
            },
            {
                "start_time": 75.79318181818182,
                "end_time": 75.9090909090909,
                "pitch": 46,
                "velocity": 64,
                "duration": 0.11590909090908497,
                "tempo": 120.0
            },
            {
                "start_time": 75.925,
                "end_time": 76.04318181818182,
                "pitch": 46,
                "velocity": 64,
                "duration": 0.11818181818182438,
                "tempo": 120.0
            },
            {
                "start_time": 76.05909090909091,
                "end_time": 76.175,
                "pitch": 46,
                "velocity": 64,
                "duration": 0.11590909090908497,
                "tempo": 120.0
            },
            {
                "start_time": 76.19318181818181,
                "end_time": 76.44318181818181,
                "pitch": 54,
                "velocity": 64,
                "duration": 0.25,
                "tempo": 120.0
            },
            {
                "start_time": 76.46136363636363,
                "end_time": 76.57954545454545,
                "pitch": 56,
                "velocity": 64,
                "duration": 0.11818181818182438,
                "tempo": 120.0
            },
            {
                "start_time": 76.59545454545454,
                "end_time": 76.71363636363635,
                "pitch": 56,
                "velocity": 64,
                "duration": 0.11818181818181017,
                "tempo": 120.0
            },
            {
                "start_time": 76.72954545454544,
                "end_time": 76.84772727272727,
                "pitch": 46,
                "velocity": 64,
                "duration": 0.11818181818182438,
                "tempo": 120.0
            },
            {
                "start_time": 76.86363636363636,
                "end_time": 76.98181818181818,
                "pitch": 46,
                "velocity": 64,
                "duration": 0.11818181818182438,
                "tempo": 120.0
            },
            {
                "start_time": 80.2090909090909,
                "end_time": 80.32727272727273,
                "pitch": 53,
                "velocity": 64,
                "duration": 0.11818181818182438,
                "tempo": 120.0
            },
            {
                "start_time": 80.34318181818182,
                "end_time": 80.46136363636363,
                "pitch": 53,
                "velocity": 64,
                "duration": 0.11818181818181017,
                "tempo": 120.0
            },
            {
                "start_time": 80.47727272727272,
                "end_time": 80.59545454545454,
                "pitch": 53,
                "velocity": 64,
                "duration": 0.11818181818182438,
                "tempo": 120.0
            },
            {
                "start_time": 80.61136363636363,
                "end_time": 80.72954545454544,
                "pitch": 54,
                "velocity": 64,
                "duration": 0.11818181818181017,
                "tempo": 120.0
            },
            {
                "start_time": 80.74545454545454,
                "end_time": 80.86363636363636,
                "pitch": 53,
                "velocity": 64,
                "duration": 0.11818181818182438,
                "tempo": 120.0
            },
            {
                "start_time": 80.87954545454545,
                "end_time": 80.99772727272727,
                "pitch": 53,
                "velocity": 64,
                "duration": 0.11818181818182438,
                "tempo": 120.0
            },
            {
                "start_time": 81.01363636363637,
                "end_time": 81.13181818181818,
                "pitch": 56,
                "velocity": 64,
                "duration": 0.11818181818181017,
                "tempo": 120.0
            },
            {
                "start_time": 81.14772727272727,
                "end_time": 81.26363636363637,
                "pitch": 54,
                "velocity": 64,
                "duration": 0.11590909090909918,
                "tempo": 120.0
            },
            {
                "start_time": 81.28181818181818,
                "end_time": 81.39772727272727,
                "pitch": 53,
                "velocity": 64,
                "duration": 0.11590909090908497,
                "tempo": 120.0
            },
            {
                "start_time": 81.41363636363636,
                "end_time": 81.53181818181818,
                "pitch": 58,
                "velocity": 64,
                "duration": 0.11818181818182438,
                "tempo": 120.0
            },
            {
                "start_time": 81.54772727272727,
                "end_time": 81.66590909090908,
                "pitch": 56,
                "velocity": 64,
                "duration": 0.11818181818181017,
                "tempo": 120.0
            },
            {
                "start_time": 81.68181818181817,
                "end_time": 81.8,
                "pitch": 54,
                "velocity": 64,
                "duration": 0.11818181818182438,
                "tempo": 120.0
            },
            {
                "start_time": 81.81590909090909,
                "end_time": 81.93409090909091,
                "pitch": 53,
                "velocity": 64,
                "duration": 0.11818181818182438,
                "tempo": 120.0
            },
            {
                "start_time": 81.95,
                "end_time": 82.06590909090909,
                "pitch": 53,
                "velocity": 64,
                "duration": 0.11590909090908497,
                "tempo": 120.0
            },
            {
                "start_time": 82.0840909090909,
                "end_time": 82.2,
                "pitch": 53,
                "velocity": 64,
                "duration": 0.11590909090909918,
                "tempo": 120.0
            },
            {
                "start_time": 82.2159090909091,
                "end_time": 82.3340909090909,
                "pitch": 54,
                "velocity": 64,
                "duration": 0.11818181818181017,
                "tempo": 120.0
            },
            {
                "start_time": 82.35227272727272,
                "end_time": 82.46818181818182,
                "pitch": 53,
                "velocity": 64,
                "duration": 0.11590909090909918,
                "tempo": 120.0
            },
            {
                "start_time": 82.48636363636363,
                "end_time": 82.60227272727272,
                "pitch": 53,
                "velocity": 64,
                "duration": 0.11590909090908497,
                "tempo": 120.0
            },
            {
                "start_time": 82.62045454545454,
                "end_time": 82.73636363636363,
                "pitch": 56,
                "velocity": 64,
                "duration": 0.11590909090909918,
                "tempo": 120.0
            },
            {
                "start_time": 82.75454545454545,
                "end_time": 82.87045454545454,
                "pitch": 54,
                "velocity": 64,
                "duration": 0.11590909090908497,
                "tempo": 120.0
            },
            {
                "start_time": 82.88863636363637,
                "end_time": 83.00454545454545,
                "pitch": 53,
                "velocity": 64,
                "duration": 0.11590909090908497,
                "tempo": 120.0
            },
            {
                "start_time": 83.02272727272727,
                "end_time": 83.13863636363637,
                "pitch": 61,
                "velocity": 64,
                "duration": 0.11590909090909918,
                "tempo": 120.0
            },
            {
                "start_time": 83.15681818181818,
                "end_time": 83.27272727272727,
                "pitch": 60,
                "velocity": 64,
                "duration": 0.11590909090908497,
                "tempo": 120.0
            },
            {
                "start_time": 83.28863636363636,
                "end_time": 83.40681818181818,
                "pitch": 54,
                "velocity": 64,
                "duration": 0.11818181818182438,
                "tempo": 120.0
            },
            {
                "start_time": 83.42272727272727,
                "end_time": 83.54090909090908,
                "pitch": 53,
                "velocity": 64,
                "duration": 0.11818181818181017,
                "tempo": 120.0
            },
            {
                "start_time": 83.55681818181817,
                "end_time": 83.675,
                "pitch": 53,
                "velocity": 64,
                "duration": 0.11818181818182438,
                "tempo": 120.0
            },
            {
                "start_time": 83.69090909090909,
                "end_time": 83.8090909090909,
                "pitch": 53,
                "velocity": 64,
                "duration": 0.11818181818181017,
                "tempo": 120.0
            },
            {
                "start_time": 83.825,
                "end_time": 83.94090909090909,
                "pitch": 54,
                "velocity": 64,
                "duration": 0.11590909090908497,
                "tempo": 120.0
            },
            {
                "start_time": 83.9590909090909,
                "end_time": 84.075,
                "pitch": 53,
                "velocity": 64,
                "duration": 0.11590909090909918,
                "tempo": 120.0
            },
            {
                "start_time": 84.0909090909091,
                "end_time": 84.2090909090909,
                "pitch": 53,
                "velocity": 64,
                "duration": 0.11818181818181017,
                "tempo": 120.0
            },
            {
                "start_time": 84.225,
                "end_time": 84.34318181818182,
                "pitch": 56,
                "velocity": 64,
                "duration": 0.11818181818182438,
                "tempo": 120.0
            },
            {
                "start_time": 84.35909090909091,
                "end_time": 84.47727272727272,
                "pitch": 54,
                "velocity": 64,
                "duration": 0.11818181818181017,
                "tempo": 120.0
            },
            {
                "start_time": 84.49318181818181,
                "end_time": 84.61136363636363,
                "pitch": 53,
                "velocity": 64,
                "duration": 0.11818181818182438,
                "tempo": 120.0
            },
            {
                "start_time": 84.62727272727273,
                "end_time": 84.74545454545454,
                "pitch": 58,
                "velocity": 64,
                "duration": 0.11818181818181017,
                "tempo": 120.0
            },
            {
                "start_time": 84.76136363636363,
                "end_time": 84.87954545454545,
                "pitch": 56,
                "velocity": 64,
                "duration": 0.11818181818182438,
                "tempo": 120.0
            },
            {
                "start_time": 84.89545454545454,
                "end_time": 85.01363636363637,
                "pitch": 54,
                "velocity": 64,
                "duration": 0.11818181818182438,
                "tempo": 120.0
            },
            {
                "start_time": 85.02954545454546,
                "end_time": 85.14772727272727,
                "pitch": 53,
                "velocity": 64,
                "duration": 0.11818181818181017,
                "tempo": 120.0
            },
            {
                "start_time": 85.16363636363636,
                "end_time": 85.27954545454546,
                "pitch": 54,
                "velocity": 64,
                "duration": 0.11590909090909918,
                "tempo": 120.0
            },
            {
                "start_time": 85.29772727272727,
                "end_time": 85.41363636363636,
                "pitch": 56,
                "velocity": 64,
                "duration": 0.11590909090908497,
                "tempo": 120.0
            },
            {
                "start_time": 85.42954545454545,
                "end_time": 85.54772727272727,
                "pitch": 58,
                "velocity": 64,
                "duration": 0.11818181818182438,
                "tempo": 120.0
            },
            {
                "start_time": 85.56363636363636,
                "end_time": 85.68181818181817,
                "pitch": 60,
                "velocity": 64,
                "duration": 0.11818181818181017,
                "tempo": 120.0
            },
            {
                "start_time": 85.7,
                "end_time": 85.81590909090909,
                "pitch": 61,
                "velocity": 64,
                "duration": 0.11590909090908497,
                "tempo": 120.0
            },
            {
                "start_time": 85.8340909090909,
                "end_time": 86.0840909090909,
                "pitch": 63,
                "velocity": 64,
                "duration": 0.25,
                "tempo": 120.0
            },
            {
                "start_time": 86.1,
                "end_time": 86.35,
                "pitch": 65,
                "velocity": 64,
                "duration": 0.25,
                "tempo": 120.0
            },
            {
                "start_time": 86.36818181818181,
                "end_time": 86.61818181818181,
                "pitch": 66,
                "velocity": 64,
                "duration": 0.25,
                "tempo": 120.0
            },
            {
                "start_time": 86.63636363636363,
                "end_time": 86.75227272727273,
                "pitch": 53,
                "velocity": 64,
                "duration": 0.11590909090909918,
                "tempo": 120.0
            },
            {
                "start_time": 86.77045454545454,
                "end_time": 86.88636363636363,
                "pitch": 53,
                "velocity": 64,
                "duration": 0.11590909090908497,
                "tempo": 120.0
            },
            {
                "start_time": 86.90454545454546,
                "end_time": 87.02272727272727,
                "pitch": 53,
                "velocity": 64,
                "duration": 0.11818181818181017,
                "tempo": 120.0
            },
            {
                "start_time": 87.03863636363636,
                "end_time": 87.15454545454546,
                "pitch": 54,
                "velocity": 64,
                "duration": 0.11590909090909918,
                "tempo": 120.0
            },
            {
                "start_time": 87.17272727272727,
                "end_time": 87.28863636363636,
                "pitch": 53,
                "velocity": 64,
                "duration": 0.11590909090908497,
                "tempo": 120.0
            },
            {
                "start_time": 87.30454545454545,
                "end_time": 87.42272727272727,
                "pitch": 53,
                "velocity": 64,
                "duration": 0.11818181818182438,
                "tempo": 120.0
            },
            {
                "start_time": 87.43863636363636,
                "end_time": 87.55681818181817,
                "pitch": 56,
                "velocity": 64,
                "duration": 0.11818181818181017,
                "tempo": 120.0
            },
            {
                "start_time": 87.57272727272726,
                "end_time": 87.69090909090909,
                "pitch": 54,
                "velocity": 64,
                "duration": 0.11818181818182438,
                "tempo": 120.0
            },
            {
                "start_time": 87.70681818181818,
                "end_time": 87.82499999999999,
                "pitch": 53,
                "velocity": 64,
                "duration": 0.11818181818181017,
                "tempo": 120.0
            },
            {
                "start_time": 87.8409090909091,
                "end_time": 87.95681818181818,
                "pitch": 58,
                "velocity": 64,
                "duration": 0.11590909090908497,
                "tempo": 120.0
            },
            {
                "start_time": 87.975,
                "end_time": 88.0909090909091,
                "pitch": 56,
                "velocity": 64,
                "duration": 0.11590909090909918,
                "tempo": 120.0
            },
            {
                "start_time": 88.10681818181818,
                "end_time": 88.225,
                "pitch": 54,
                "velocity": 64,
                "duration": 0.11818181818181017,
                "tempo": 120.0
            },
            {
                "start_time": 88.24090909090908,
                "end_time": 88.35909090909091,
                "pitch": 53,
                "velocity": 64,
                "duration": 0.11818181818182438,
                "tempo": 120.0
            },
            {
                "start_time": 88.375,
                "end_time": 88.49318181818181,
                "pitch": 53,
                "velocity": 64,
                "duration": 0.11818181818181017,
                "tempo": 120.0
            },
            {
                "start_time": 88.5090909090909,
                "end_time": 88.62727272727273,
                "pitch": 53,
                "velocity": 64,
                "duration": 0.11818181818182438,
                "tempo": 120.0
            },
            {
                "start_time": 88.64318181818182,
                "end_time": 88.76136363636363,
                "pitch": 54,
                "velocity": 64,
                "duration": 0.11818181818181017,
                "tempo": 120.0
            },
            {
                "start_time": 88.77727272727272,
                "end_time": 88.89545454545454,
                "pitch": 53,
                "velocity": 64,
                "duration": 0.11818181818182438,
                "tempo": 120.0
            },
            {
                "start_time": 88.91136363636363,
                "end_time": 89.02954545454546,
                "pitch": 53,
                "velocity": 64,
                "duration": 0.11818181818182438,
                "tempo": 120.0
            },
            {
                "start_time": 89.04545454545455,
                "end_time": 89.16363636363636,
                "pitch": 56,
                "velocity": 64,
                "duration": 0.11818181818181017,
                "tempo": 120.0
            },
            {
                "start_time": 89.17954545454545,
                "end_time": 89.29545454545455,
                "pitch": 54,
                "velocity": 64,
                "duration": 0.11590909090909918,
                "tempo": 120.0
            },
            {
                "start_time": 89.31363636363636,
                "end_time": 89.42954545454545,
                "pitch": 53,
                "velocity": 64,
                "duration": 0.11590909090908497,
                "tempo": 120.0
            },
            {
                "start_time": 89.44545454545454,
                "end_time": 89.56363636363636,
                "pitch": 61,
                "velocity": 64,
                "duration": 0.11818181818182438,
                "tempo": 120.0
            },
            {
                "start_time": 89.58181818181818,
                "end_time": 89.69772727272726,
                "pitch": 60,
                "velocity": 64,
                "duration": 0.11590909090908497,
                "tempo": 120.0
            },
            {
                "start_time": 89.7159090909091,
                "end_time": 89.83181818181818,
                "pitch": 54,
                "velocity": 64,
                "duration": 0.11590909090908497,
                "tempo": 120.0
            },
            {
                "start_time": 89.85,
                "end_time": 89.9659090909091,
                "pitch": 53,
                "velocity": 64,
                "duration": 0.11590909090909918,
                "tempo": 120.0
            },
            {
                "start_time": 89.98181818181818,
                "end_time": 90.1,
                "pitch": 53,
                "velocity": 64,
                "duration": 0.11818181818181017,
                "tempo": 120.0
            },
            {
                "start_time": 90.11590909090908,
                "end_time": 90.23181818181818,
                "pitch": 53,
                "velocity": 64,
                "duration": 0.11590909090909918,
                "tempo": 120.0
            },
            {
                "start_time": 90.25,
                "end_time": 90.36590909090908,
                "pitch": 54,
                "velocity": 64,
                "duration": 0.11590909090908497,
                "tempo": 120.0
            },
            {
                "start_time": 90.3840909090909,
                "end_time": 90.5,
                "pitch": 53,
                "velocity": 64,
                "duration": 0.11590909090909918,
                "tempo": 120.0
            },
            {
                "start_time": 90.51818181818182,
                "end_time": 90.6340909090909,
                "pitch": 53,
                "velocity": 64,
                "duration": 0.11590909090908497,
                "tempo": 120.0
            },
            {
                "start_time": 90.65227272727272,
                "end_time": 90.77045454545454,
                "pitch": 56,
                "velocity": 64,
                "duration": 0.11818181818182438,
                "tempo": 120.0
            },
            {
                "start_time": 90.78636363636363,
                "end_time": 90.90454545454546,
                "pitch": 54,
                "velocity": 64,
                "duration": 0.11818181818182438,
                "tempo": 120.0
            },
            {
                "start_time": 90.92045454545455,
                "end_time": 91.03863636363636,
                "pitch": 53,
                "velocity": 64,
                "duration": 0.11818181818181017,
                "tempo": 120.0
            },
            {
                "start_time": 91.05454545454545,
                "end_time": 91.17045454545455,
                "pitch": 58,
                "velocity": 64,
                "duration": 0.11590909090909918,
                "tempo": 120.0
            },
            {
                "start_time": 91.18863636363636,
                "end_time": 91.30454545454545,
                "pitch": 56,
                "velocity": 64,
                "duration": 0.11590909090908497,
                "tempo": 120.0
            },
            {
                "start_time": 91.32045454545454,
                "end_time": 91.43863636363636,
                "pitch": 54,
                "velocity": 64,
                "duration": 0.11818181818182438,
                "tempo": 120.0
            },
            {
                "start_time": 91.45454545454545,
                "end_time": 91.57272727272726,
                "pitch": 53,
                "velocity": 64,
                "duration": 0.11818181818181017,
                "tempo": 120.0
            },
            {
                "start_time": 91.58863636363635,
                "end_time": 91.70681818181818,
                "pitch": 54,
                "velocity": 64,
                "duration": 0.11818181818182438,
                "tempo": 120.0
            },
            {
                "start_time": 91.72272727272727,
                "end_time": 91.8409090909091,
                "pitch": 56,
                "velocity": 64,
                "duration": 0.11818181818182438,
                "tempo": 120.0
            },
            {
                "start_time": 91.85681818181818,
                "end_time": 91.975,
                "pitch": 58,
                "velocity": 64,
                "duration": 0.11818181818181017,
                "tempo": 120.0
            },
            {
                "start_time": 91.99090909090908,
                "end_time": 92.10681818181818,
                "pitch": 60,
                "velocity": 64,
                "duration": 0.11590909090909918,
                "tempo": 120.0
            },
            {
                "start_time": 92.125,
                "end_time": 92.24090909090908,
                "pitch": 61,
                "velocity": 64,
                "duration": 0.11590909090908497,
                "tempo": 120.0
            },
            {
                "start_time": 92.25681818181818,
                "end_time": 92.375,
                "pitch": 63,
                "velocity": 64,
                "duration": 0.11818181818182438,
                "tempo": 120.0
            },
            {
                "start_time": 92.39090909090909,
                "end_time": 92.5090909090909,
                "pitch": 65,
                "velocity": 64,
                "duration": 0.11818181818181017,
                "tempo": 120.0
            },
            {
                "start_time": 92.52499999999999,
                "end_time": 92.64318181818182,
                "pitch": 66,
                "velocity": 64,
                "duration": 0.11818181818182438,
                "tempo": 120.0
            },
            {
                "start_time": 92.6590909090909,
                "end_time": 92.77727272727272,
                "pitch": 76,
                "velocity": 64,
                "duration": 0.11818181818181017,
                "tempo": 120.0
            },
            {
                "start_time": 92.79318181818181,
                "end_time": 92.91136363636363,
                "pitch": 75,
                "velocity": 64,
                "duration": 0.11818181818182438,
                "tempo": 120.0
            },
            {
                "start_time": 92.92954545454545,
                "end_time": 93.04545454545455,
                "pitch": 73,
                "velocity": 64,
                "duration": 0.11590909090909918,
                "tempo": 120.0
            },
            {
                "start_time": 109.12272727272726,
                "end_time": 109.37272727272726,
                "pitch": 46,
                "velocity": 64,
                "duration": 0.25,
                "tempo": 120.0
            },
            {
                "start_time": 109.38863636363635,
                "end_time": 109.50681818181818,
                "pitch": 46,
                "velocity": 64,
                "duration": 0.11818181818182438,
                "tempo": 120.0
            },
            {
                "start_time": 109.52272727272727,
                "end_time": 109.64090909090909,
                "pitch": 46,
                "velocity": 64,
                "duration": 0.11818181818182438,
                "tempo": 120.0
            },
            {
                "start_time": 109.65681818181818,
                "end_time": 109.77499999999999,
                "pitch": 46,
                "velocity": 64,
                "duration": 0.11818181818181017,
                "tempo": 120.0
            },
            {
                "start_time": 109.79090909090908,
                "end_time": 109.9090909090909,
                "pitch": 46,
                "velocity": 64,
                "duration": 0.11818181818182438,
                "tempo": 120.0
            },
            {
                "start_time": 109.925,
                "end_time": 110.175,
                "pitch": 58,
                "velocity": 64,
                "duration": 0.25,
                "tempo": 120.0
            },
            {
                "start_time": 110.19090909090909,
                "end_time": 110.3090909090909,
                "pitch": 56,
                "velocity": 64,
                "duration": 0.11818181818181017,
                "tempo": 120.0
            },
            {
                "start_time": 110.32499999999999,
                "end_time": 110.57727272727273,
                "pitch": 56,
                "velocity": 64,
                "duration": 0.2522727272727394,
                "tempo": 120.0
            },
            {
                "start_time": 110.59318181818182,
                "end_time": 110.71136363636363,
                "pitch": 58,
                "velocity": 64,
                "duration": 0.11818181818181017,
                "tempo": 120.0
            },
            {
                "start_time": 110.72727272727272,
                "end_time": 110.97954545454544,
                "pitch": 46,
                "velocity": 64,
                "duration": 0.2522727272727252,
                "tempo": 120.0
            },
            {
                "start_time": 110.99545454545454,
                "end_time": 111.11363636363636,
                "pitch": 46,
                "velocity": 64,
                "duration": 0.11818181818182438,
                "tempo": 120.0
            },
            {
                "start_time": 111.12954545454545,
                "end_time": 111.24772727272726,
                "pitch": 46,
                "velocity": 64,
                "duration": 0.11818181818181017,
                "tempo": 120.0
            },
            {
                "start_time": 111.26363636363635,
                "end_time": 111.37954545454545,
                "pitch": 46,
                "velocity": 64,
                "duration": 0.11590909090909918,
                "tempo": 120.0
            },
            {
                "start_time": 111.39772727272727,
                "end_time": 111.51363636363635,
                "pitch": 46,
                "velocity": 64,
                "duration": 0.11590909090908497,
                "tempo": 120.0
            },
            {
                "start_time": 111.52954545454546,
                "end_time": 111.78181818181818,
                "pitch": 54,
                "velocity": 64,
                "duration": 0.2522727272727252,
                "tempo": 120.0
            },
            {
                "start_time": 111.8,
                "end_time": 111.91590909090908,
                "pitch": 56,
                "velocity": 64,
                "duration": 0.11590909090908497,
                "tempo": 120.0
            },
            {
                "start_time": 111.9340909090909,
                "end_time": 112.05,
                "pitch": 56,
                "velocity": 64,
                "duration": 0.11590909090909918,
                "tempo": 120.0
            },
            {
                "start_time": 112.06590909090909,
                "end_time": 112.1840909090909,
                "pitch": 46,
                "velocity": 64,
                "duration": 0.11818181818181017,
                "tempo": 120.0
            },
            {
                "start_time": 112.19999999999999,
                "end_time": 112.31590909090909,
                "pitch": 46,
                "velocity": 64,
                "duration": 0.11590909090909918,
                "tempo": 120.0
            },
            {
                "start_time": 112.3340909090909,
                "end_time": 112.5840909090909,
                "pitch": 46,
                "velocity": 64,
                "duration": 0.25,
                "tempo": 120.0
            },
            {
                "start_time": 112.60227272727272,
                "end_time": 112.71818181818182,
                "pitch": 46,
                "velocity": 64,
                "duration": 0.11590909090909918,
                "tempo": 120.0
            },
            {
                "start_time": 112.73636363636363,
                "end_time": 112.85227272727272,
                "pitch": 46,
                "velocity": 64,
                "duration": 0.11590909090908497,
                "tempo": 120.0
            },
            {
                "start_time": 112.87045454545454,
                "end_time": 112.98863636363636,
                "pitch": 46,
                "velocity": 64,
                "duration": 0.11818181818182438,
                "tempo": 120.0
            },
            {
                "start_time": 113.00454545454545,
                "end_time": 113.12272727272726,
                "pitch": 46,
                "velocity": 64,
                "duration": 0.11818181818181017,
                "tempo": 120.0
            },
            {
                "start_time": 113.13863636363635,
                "end_time": 113.38863636363635,
                "pitch": 58,
                "velocity": 64,
                "duration": 0.25,
                "tempo": 120.0
            },
            {
                "start_time": 113.40454545454546,
                "end_time": 113.52272727272727,
                "pitch": 56,
                "velocity": 64,
                "duration": 0.11818181818181017,
                "tempo": 120.0
            },
            {
                "start_time": 113.53863636363636,
                "end_time": 113.79090909090908,
                "pitch": 56,
                "velocity": 64,
                "duration": 0.2522727272727252,
                "tempo": 120.0
            },
            {
                "start_time": 113.80681818181817,
                "end_time": 113.925,
                "pitch": 58,
                "velocity": 64,
                "duration": 0.11818181818182438,
                "tempo": 120.0
            },
            {
                "start_time": 113.94090909090909,
                "end_time": 114.19090909090909,
                "pitch": 46,
                "velocity": 64,
                "duration": 0.25,
                "tempo": 120.0
            },
            {
                "start_time": 114.20681818181818,
                "end_time": 114.32499999999999,
                "pitch": 46,
                "velocity": 64,
                "duration": 0.11818181818181017,
                "tempo": 120.0
            },
            {
                "start_time": 114.34090909090908,
                "end_time": 114.4590909090909,
                "pitch": 46,
                "velocity": 64,
                "duration": 0.11818181818182438,
                "tempo": 120.0
            },
            {
                "start_time": 114.475,
                "end_time": 114.59318181818182,
                "pitch": 46,
                "velocity": 64,
                "duration": 0.11818181818182438,
                "tempo": 120.0
            },
            {
                "start_time": 114.60909090909091,
                "end_time": 114.72727272727272,
                "pitch": 46,
                "velocity": 64,
                "duration": 0.11818181818181017,
                "tempo": 120.0
            },
            {
                "start_time": 114.74318181818181,
                "end_time": 114.99545454545454,
                "pitch": 54,
                "velocity": 64,
                "duration": 0.2522727272727252,
                "tempo": 120.0
            },
            {
                "start_time": 115.01136363636363,
                "end_time": 115.12954545454545,
                "pitch": 56,
                "velocity": 64,
                "duration": 0.11818181818182438,
                "tempo": 120.0
            },
            {
                "start_time": 115.14772727272727,
                "end_time": 115.26363636363635,
                "pitch": 56,
                "velocity": 64,
                "duration": 0.11590909090908497,
                "tempo": 120.0
            },
            {
                "start_time": 115.27954545454544,
                "end_time": 115.39772727272727,
                "pitch": 46,
                "velocity": 64,
                "duration": 0.11818181818182438,
                "tempo": 120.0
            },
            {
                "start_time": 115.41363636363636,
                "end_time": 115.52954545454544,
                "pitch": 46,
                "velocity": 64,
                "duration": 0.11590909090908497,
                "tempo": 120.0
            },
            {
                "start_time": 118.7590909090909,
                "end_time": 118.87727272727273,
                "pitch": 53,
                "velocity": 64,
                "duration": 0.11818181818182438,
                "tempo": 120.0
            },
            {
                "start_time": 118.89545454545454,
                "end_time": 119.01136363636363,
                "pitch": 53,
                "velocity": 64,
                "duration": 0.11590909090908497,
                "tempo": 120.0
            },
            {
                "start_time": 119.02954545454544,
                "end_time": 119.14545454545454,
                "pitch": 53,
                "velocity": 64,
                "duration": 0.11590909090909918,
                "tempo": 120.0
            },
            {
                "start_time": 119.16363636363636,
                "end_time": 119.27954545454544,
                "pitch": 54,
                "velocity": 64,
                "duration": 0.11590909090908497,
                "tempo": 120.0
            },
            {
                "start_time": 119.29545454545455,
                "end_time": 119.41363636363636,
                "pitch": 53,
                "velocity": 64,
                "duration": 0.11818181818181017,
                "tempo": 120.0
            },
            {
                "start_time": 119.42954545454545,
                "end_time": 119.54545454545455,
                "pitch": 53,
                "velocity": 64,
                "duration": 0.11590909090909918,
                "tempo": 120.0
            },
            {
                "start_time": 119.56363636363636,
                "end_time": 119.67954545454545,
                "pitch": 56,
                "velocity": 64,
                "duration": 0.11590909090908497,
                "tempo": 120.0
            },
            {
                "start_time": 119.69772727272726,
                "end_time": 119.81363636363636,
                "pitch": 54,
                "velocity": 64,
                "duration": 0.11590909090909918,
                "tempo": 120.0
            },
            {
                "start_time": 119.83181818181818,
                "end_time": 119.94772727272726,
                "pitch": 53,
                "velocity": 64,
                "duration": 0.11590909090908497,
                "tempo": 120.0
            },
            {
                "start_time": 119.96590909090908,
                "end_time": 120.08181818181818,
                "pitch": 58,
                "velocity": 64,
                "duration": 0.11590909090909918,
                "tempo": 120.0
            },
            {
                "start_time": 120.1,
                "end_time": 120.21590909090908,
                "pitch": 56,
                "velocity": 64,
                "duration": 0.11590909090908497,
                "tempo": 120.0
            },
            {
                "start_time": 120.23181818181817,
                "end_time": 120.35,
                "pitch": 54,
                "velocity": 64,
                "duration": 0.11818181818182438,
                "tempo": 120.0
            },
            {
                "start_time": 120.36590909090908,
                "end_time": 120.48409090909091,
                "pitch": 53,
                "velocity": 64,
                "duration": 0.11818181818182438,
                "tempo": 120.0
            },
            {
                "start_time": 120.5,
                "end_time": 120.61818181818181,
                "pitch": 53,
                "velocity": 64,
                "duration": 0.11818181818181017,
                "tempo": 120.0
            },
            {
                "start_time": 120.6340909090909,
                "end_time": 120.75227272727273,
                "pitch": 53,
                "velocity": 64,
                "duration": 0.11818181818182438,
                "tempo": 120.0
            },
            {
                "start_time": 120.76818181818182,
                "end_time": 120.88636363636363,
                "pitch": 54,
                "velocity": 64,
                "duration": 0.11818181818181017,
                "tempo": 120.0
            },
            {
                "start_time": 120.90227272727272,
                "end_time": 121.02045454545454,
                "pitch": 53,
                "velocity": 64,
                "duration": 0.11818181818182438,
                "tempo": 120.0
            },
            {
                "start_time": 121.03636363636363,
                "end_time": 121.15454545454544,
                "pitch": 53,
                "velocity": 64,
                "duration": 0.11818181818181017,
                "tempo": 120.0
            },
            {
                "start_time": 121.17045454545453,
                "end_time": 121.28863636363636,
                "pitch": 56,
                "velocity": 64,
                "duration": 0.11818181818182438,
                "tempo": 120.0
            },
            {
                "start_time": 121.30454545454545,
                "end_time": 121.42045454545453,
                "pitch": 54,
                "velocity": 64,
                "duration": 0.11590909090908497,
                "tempo": 120.0
            },
            {
                "start_time": 121.43863636363636,
                "end_time": 121.55454545454545,
                "pitch": 53,
                "velocity": 64,
                "duration": 0.11590909090908497,
                "tempo": 120.0
            },
            {
                "start_time": 121.57045454545454,
                "end_time": 121.68863636363636,
                "pitch": 61,
                "velocity": 64,
                "duration": 0.11818181818182438,
                "tempo": 120.0
            },
            {
                "start_time": 121.70454545454545,
                "end_time": 121.82272727272726,
                "pitch": 60,
                "velocity": 64,
                "duration": 0.11818181818181017,
                "tempo": 120.0
            },
            {
                "start_time": 121.83863636363635,
                "end_time": 121.95681818181818,
                "pitch": 54,
                "velocity": 64,
                "duration": 0.11818181818182438,
                "tempo": 120.0
            },
            {
                "start_time": 121.97272727272727,
                "end_time": 122.09090909090908,
                "pitch": 53,
                "velocity": 64,
                "duration": 0.11818181818181017,
                "tempo": 120.0
            },
            {
                "start_time": 122.10681818181817,
                "end_time": 122.22272727272727,
                "pitch": 53,
                "velocity": 64,
                "duration": 0.11590909090909918,
                "tempo": 120.0
            },
            {
                "start_time": 122.24090909090908,
                "end_time": 122.35681818181817,
                "pitch": 53,
                "velocity": 64,
                "duration": 0.11590909090908497,
                "tempo": 120.0
            },
            {
                "start_time": 122.37272727272726,
                "end_time": 122.49090909090908,
                "pitch": 54,
                "velocity": 64,
                "duration": 0.11818181818182438,
                "tempo": 120.0
            },
            {
                "start_time": 122.50681818181818,
                "end_time": 122.625,
                "pitch": 53,
                "velocity": 64,
                "duration": 0.11818181818182438,
                "tempo": 120.0
            },
            {
                "start_time": 122.64318181818182,
                "end_time": 122.7590909090909,
                "pitch": 53,
                "velocity": 64,
                "duration": 0.11590909090908497,
                "tempo": 120.0
            },
            {
                "start_time": 122.77727272727272,
                "end_time": 122.89318181818182,
                "pitch": 56,
                "velocity": 64,
                "duration": 0.11590909090909918,
                "tempo": 120.0
            },
            {
                "start_time": 122.91136363636363,
                "end_time": 123.02727272727272,
                "pitch": 54,
                "velocity": 64,
                "duration": 0.11590909090908497,
                "tempo": 120.0
            },
            {
                "start_time": 123.04545454545453,
                "end_time": 123.16136363636363,
                "pitch": 53,
                "velocity": 64,
                "duration": 0.11590909090909918,
                "tempo": 120.0
            },
            {
                "start_time": 123.17954545454545,
                "end_time": 123.29545454545453,
                "pitch": 58,
                "velocity": 64,
                "duration": 0.11590909090908497,
                "tempo": 120.0
            },
            {
                "start_time": 123.31136363636364,
                "end_time": 123.42954545454545,
                "pitch": 56,
                "velocity": 64,
                "duration": 0.11818181818181017,
                "tempo": 120.0
            },
            {
                "start_time": 123.44545454545454,
                "end_time": 123.56136363636364,
                "pitch": 54,
                "velocity": 64,
                "duration": 0.11590909090909918,
                "tempo": 120.0
            },
            {
                "start_time": 123.57954545454545,
                "end_time": 123.69545454545454,
                "pitch": 53,
                "velocity": 64,
                "duration": 0.11590909090908497,
                "tempo": 120.0
            },
            {
                "start_time": 123.71363636363635,
                "end_time": 123.82954545454545,
                "pitch": 54,
                "velocity": 64,
                "duration": 0.11590909090909918,
                "tempo": 120.0
            },
            {
                "start_time": 123.84772727272727,
                "end_time": 123.96590909090908,
                "pitch": 56,
                "velocity": 64,
                "duration": 0.11818181818181017,
                "tempo": 120.0
            },
            {
                "start_time": 123.98181818181817,
                "end_time": 124.09772727272727,
                "pitch": 58,
                "velocity": 64,
                "duration": 0.11590909090909918,
                "tempo": 120.0
            },
            {
                "start_time": 124.11590909090908,
                "end_time": 124.23181818181817,
                "pitch": 60,
                "velocity": 64,
                "duration": 0.11590909090908497,
                "tempo": 120.0
            },
            {
                "start_time": 124.24772727272726,
                "end_time": 124.36590909090908,
                "pitch": 61,
                "velocity": 64,
                "duration": 0.11818181818182438,
                "tempo": 120.0
            },
            {
                "start_time": 124.38181818181818,
                "end_time": 124.6340909090909,
                "pitch": 63,
                "velocity": 64,
                "duration": 0.2522727272727252,
                "tempo": 120.0
            },
            {
                "start_time": 124.64999999999999,
                "end_time": 124.89772727272727,
                "pitch": 65,
                "velocity": 64,
                "duration": 0.2477272727272748,
                "tempo": 120.0
            },
            {
                "start_time": 124.91590909090908,
                "end_time": 125.1590909090909,
                "pitch": 66,
                "velocity": 64,
                "duration": 0.24318181818182438,
                "tempo": 120.0
            },
            {
                "start_time": 125.17727272727272,
                "end_time": 125.29545454545453,
                "pitch": 53,
                "velocity": 64,
                "duration": 0.11818181818181017,
                "tempo": 120.0
            },
            {
                "start_time": 125.31363636363636,
                "end_time": 125.4340909090909,
                "pitch": 53,
                "velocity": 64,
                "duration": 0.12045454545453538,
                "tempo": 120.0
            },
            {
                "start_time": 125.44999999999999,
                "end_time": 125.57045454545454,
                "pitch": 53,
                "velocity": 64,
                "duration": 0.12045454545454959,
                "tempo": 120.0
            },
            {
                "start_time": 125.58636363636363,
                "end_time": 125.70454545454545,
                "pitch": 54,
                "velocity": 64,
                "duration": 0.11818181818182438,
                "tempo": 120.0
            },
            {
                "start_time": 125.72045454545454,
                "end_time": 125.83863636363635,
                "pitch": 53,
                "velocity": 64,
                "duration": 0.11818181818181017,
                "tempo": 120.0
            },
            {
                "start_time": 125.85454545454544,
                "end_time": 125.97272727272727,
                "pitch": 53,
                "velocity": 64,
                "duration": 0.11818181818182438,
                "tempo": 120.0
            },
            {
                "start_time": 125.99090909090908,
                "end_time": 126.10681818181817,
                "pitch": 56,
                "velocity": 64,
                "duration": 0.11590909090908497,
                "tempo": 120.0
            },
            {
                "start_time": 126.12272727272726,
                "end_time": 126.24090909090908,
                "pitch": 54,
                "velocity": 64,
                "duration": 0.11818181818182438,
                "tempo": 120.0
            },
            {
                "start_time": 126.25681818181818,
                "end_time": 126.37272727272726,
                "pitch": 53,
                "velocity": 64,
                "duration": 0.11590909090908497,
                "tempo": 120.0
            },
            {
                "start_time": 126.39090909090909,
                "end_time": 126.50681818181818,
                "pitch": 58,
                "velocity": 64,
                "duration": 0.11590909090908497,
                "tempo": 120.0
            },
            {
                "start_time": 126.52499999999999,
                "end_time": 126.64090909090909,
                "pitch": 56,
                "velocity": 64,
                "duration": 0.11590909090909918,
                "tempo": 120.0
            },
            {
                "start_time": 126.6590909090909,
                "end_time": 126.77499999999999,
                "pitch": 54,
                "velocity": 64,
                "duration": 0.11590909090908497,
                "tempo": 120.0
            },
            {
                "start_time": 126.79318181818181,
                "end_time": 126.9090909090909,
                "pitch": 53,
                "velocity": 64,
                "duration": 0.11590909090909918,
                "tempo": 120.0
            },
            {
                "start_time": 126.92727272727272,
                "end_time": 127.04318181818181,
                "pitch": 53,
                "velocity": 64,
                "duration": 0.11590909090908497,
                "tempo": 120.0
            },
            {
                "start_time": 127.06136363636362,
                "end_time": 127.17954545454545,
                "pitch": 53,
                "velocity": 64,
                "duration": 0.11818181818182438,
                "tempo": 120.0
            },
            {
                "start_time": 127.19545454545454,
                "end_time": 127.31136363636362,
                "pitch": 54,
                "velocity": 64,
                "duration": 0.11590909090908497,
                "tempo": 120.0
            },
            {
                "start_time": 127.32954545454545,
                "end_time": 127.44545454545454,
                "pitch": 53,
                "velocity": 64,
                "duration": 0.11590909090908497,
                "tempo": 120.0
            },
            {
                "start_time": 127.46136363636363,
                "end_time": 127.57954545454545,
                "pitch": 53,
                "velocity": 64,
                "duration": 0.11818181818182438,
                "tempo": 120.0
            },
            {
                "start_time": 127.59545454545454,
                "end_time": 127.71363636363635,
                "pitch": 56,
                "velocity": 64,
                "duration": 0.11818181818181017,
                "tempo": 120.0
            },
            {
                "start_time": 127.72954545454544,
                "end_time": 127.84772727272727,
                "pitch": 54,
                "velocity": 64,
                "duration": 0.11818181818182438,
                "tempo": 120.0
            },
            {
                "start_time": 127.86363636363636,
                "end_time": 127.98181818181817,
                "pitch": 53,
                "velocity": 64,
                "duration": 0.11818181818181017,
                "tempo": 120.0
            },
            {
                "start_time": 127.99772727272726,
                "end_time": 128.11363636363635,
                "pitch": 61,
                "velocity": 64,
                "duration": 0.11590909090908497,
                "tempo": 120.0
            },
            {
                "start_time": 128.13181818181818,
                "end_time": 128.24772727272727,
                "pitch": 60,
                "velocity": 64,
                "duration": 0.11590909090909918,
                "tempo": 120.0
            },
            {
                "start_time": 128.26363636363635,
                "end_time": 128.38181818181818,
                "pitch": 54,
                "velocity": 64,
                "duration": 0.11818181818182438,
                "tempo": 120.0
            },
            {
                "start_time": 128.39772727272728,
                "end_time": 128.51590909090908,
                "pitch": 53,
                "velocity": 64,
                "duration": 0.11818181818179596,
                "tempo": 120.0
            },
            {
                "start_time": 128.53181818181818,
                "end_time": 128.65,
                "pitch": 53,
                "velocity": 64,
                "duration": 0.11818181818182438,
                "tempo": 120.0
            },
            {
                "start_time": 128.66590909090908,
                "end_time": 128.7840909090909,
                "pitch": 53,
                "velocity": 64,
                "duration": 0.11818181818182438,
                "tempo": 120.0
            },
            {
                "start_time": 128.79999999999998,
                "end_time": 128.9181818181818,
                "pitch": 54,
                "velocity": 64,
                "duration": 0.11818181818182438,
                "tempo": 120.0
            },
            {
                "start_time": 128.9340909090909,
                "end_time": 129.0522727272727,
                "pitch": 53,
                "velocity": 64,
                "duration": 0.11818181818179596,
                "tempo": 120.0
            },
            {
                "start_time": 129.0681818181818,
                "end_time": 129.18636363636364,
                "pitch": 53,
                "velocity": 64,
                "duration": 0.11818181818182438,
                "tempo": 120.0
            },
            {
                "start_time": 129.2022727272727,
                "end_time": 129.32045454545454,
                "pitch": 56,
                "velocity": 64,
                "duration": 0.11818181818182438,
                "tempo": 120.0
            },
            {
                "start_time": 129.33863636363637,
                "end_time": 129.45454545454544,
                "pitch": 54,
                "velocity": 64,
                "duration": 0.11590909090907076,
                "tempo": 120.0
            },
            {
                "start_time": 129.47272727272727,
                "end_time": 129.58863636363637,
                "pitch": 53,
                "velocity": 64,
                "duration": 0.11590909090909918,
                "tempo": 120.0
            },
            {
                "start_time": 129.60681818181817,
                "end_time": 129.72272727272727,
                "pitch": 58,
                "velocity": 64,
                "duration": 0.11590909090909918,
                "tempo": 120.0
            },
            {
                "start_time": 129.73863636363635,
                "end_time": 129.85681818181817,
                "pitch": 56,
                "velocity": 64,
                "duration": 0.11818181818182438,
                "tempo": 120.0
            },
            {
                "start_time": 129.87272727272727,
                "end_time": 129.98863636363635,
                "pitch": 54,
                "velocity": 64,
                "duration": 0.11590909090907076,
                "tempo": 120.0
            },
            {
                "start_time": 130.00681818181818,
                "end_time": 130.12272727272727,
                "pitch": 53,
                "velocity": 64,
                "duration": 0.11590909090909918,
                "tempo": 120.0
            },
            {
                "start_time": 130.14090909090908,
                "end_time": 130.25681818181818,
                "pitch": 54,
                "velocity": 64,
                "duration": 0.11590909090909918,
                "tempo": 120.0
            },
            {
                "start_time": 130.275,
                "end_time": 130.39090909090908,
                "pitch": 56,
                "velocity": 64,
                "duration": 0.11590909090907076,
                "tempo": 120.0
            },
            {
                "start_time": 130.4090909090909,
                "end_time": 130.525,
                "pitch": 58,
                "velocity": 64,
                "duration": 0.11590909090909918,
                "tempo": 120.0
            },
            {
                "start_time": 130.5431818181818,
                "end_time": 130.66136363636363,
                "pitch": 60,
                "velocity": 64,
                "duration": 0.11818181818182438,
                "tempo": 120.0
            },
            {
                "start_time": 130.6772727272727,
                "end_time": 130.79545454545453,
                "pitch": 61,
                "velocity": 64,
                "duration": 0.11818181818182438,
                "tempo": 120.0
            },
            {
                "start_time": 130.81136363636364,
                "end_time": 130.92954545454546,
                "pitch": 63,
                "velocity": 64,
                "duration": 0.11818181818182438,
                "tempo": 120.0
            },
            {
                "start_time": 130.94545454545454,
                "end_time": 131.06363636363636,
                "pitch": 65,
                "velocity": 64,
                "duration": 0.11818181818182438,
                "tempo": 120.0
            },
            {
                "start_time": 131.07954545454544,
                "end_time": 131.19772727272726,
                "pitch": 66,
                "velocity": 64,
                "duration": 0.11818181818182438,
                "tempo": 120.0
            },
            {
                "start_time": 131.21363636363637,
                "end_time": 131.33181818181816,
                "pitch": 76,
                "velocity": 64,
                "duration": 0.11818181818179596,
                "tempo": 120.0
            },
            {
                "start_time": 131.34772727272727,
                "end_time": 131.4659090909091,
                "pitch": 75,
                "velocity": 64,
                "duration": 0.11818181818182438,
                "tempo": 120.0
            },
            {
                "start_time": 131.48181818181817,
                "end_time": 131.6,
                "pitch": 73,
                "velocity": 64,
                "duration": 0.11818181818182438,
                "tempo": 120.0
            },
            {
                "start_time": 147.71136363636364,
                "end_time": 147.95681818181816,
                "pitch": 46,
                "velocity": 64,
                "duration": 0.24545454545452117,
                "tempo": 120.0
            },
            {
                "start_time": 147.97272727272727,
                "end_time": 148.08636363636364,
                "pitch": 46,
                "velocity": 64,
                "duration": 0.11363636363637397,
                "tempo": 120.0
            },
            {
                "start_time": 148.10227272727272,
                "end_time": 148.22045454545454,
                "pitch": 46,
                "velocity": 64,
                "duration": 0.11818181818182438,
                "tempo": 120.0
            },
            {
                "start_time": 148.23636363636362,
                "end_time": 148.35454545454544,
                "pitch": 46,
                "velocity": 64,
                "duration": 0.11818181818182438,
                "tempo": 120.0
            },
            {
                "start_time": 148.37045454545455,
                "end_time": 148.48863636363635,
                "pitch": 46,
                "velocity": 64,
                "duration": 0.11818181818179596,
                "tempo": 120.0
            },
            {
                "start_time": 148.50454545454545,
                "end_time": 148.75681818181818,
                "pitch": 58,
                "velocity": 64,
                "duration": 0.2522727272727252,
                "tempo": 120.0
            },
            {
                "start_time": 148.775,
                "end_time": 148.89090909090908,
                "pitch": 56,
                "velocity": 64,
                "duration": 0.11590909090907076,
                "tempo": 120.0
            },
            {
                "start_time": 148.9090909090909,
                "end_time": 149.1590909090909,
                "pitch": 56,
                "velocity": 64,
                "duration": 0.25,
                "tempo": 120.0
            },
            {
                "start_time": 149.1772727272727,
                "end_time": 149.2931818181818,
                "pitch": 58,
                "velocity": 64,
                "duration": 0.11590909090909918,
                "tempo": 120.0
            },
            {
                "start_time": 149.31136363636364,
                "end_time": 149.56363636363636,
                "pitch": 46,
                "velocity": 64,
                "duration": 0.2522727272727252,
                "tempo": 120.0
            },
            {
                "start_time": 149.57954545454544,
                "end_time": 149.69772727272726,
                "pitch": 46,
                "velocity": 64,
                "duration": 0.11818181818182438,
                "tempo": 120.0
            },
            {
                "start_time": 149.71363636363637,
                "end_time": 149.82954545454544,
                "pitch": 46,
                "velocity": 64,
                "duration": 0.11590909090907076,
                "tempo": 120.0
            },
            {
                "start_time": 149.84772727272727,
                "end_time": 149.96363636363637,
                "pitch": 46,
                "velocity": 64,
                "duration": 0.11590909090909918,
                "tempo": 120.0
            },
            {
                "start_time": 149.97954545454544,
                "end_time": 150.09772727272727,
                "pitch": 46,
                "velocity": 64,
                "duration": 0.11818181818182438,
                "tempo": 120.0
            },
            {
                "start_time": 150.11363636363635,
                "end_time": 150.36590909090907,
                "pitch": 54,
                "velocity": 64,
                "duration": 0.2522727272727252,
                "tempo": 120.0
            },
            {
                "start_time": 150.38181818181818,
                "end_time": 150.5,
                "pitch": 56,
                "velocity": 64,
                "duration": 0.11818181818182438,
                "tempo": 120.0
            },
            {
                "start_time": 150.51590909090908,
                "end_time": 150.63636363636363,
                "pitch": 56,
                "velocity": 64,
                "duration": 0.12045454545454959,
                "tempo": 120.0
            },
            {
                "start_time": 150.65227272727273,
                "end_time": 150.77272727272725,
                "pitch": 46,
                "velocity": 64,
                "duration": 0.12045454545452117,
                "tempo": 120.0
            },
            {
                "start_time": 150.79090909090908,
                "end_time": 150.9090909090909,
                "pitch": 46,
                "velocity": 64,
                "duration": 0.11818181818182438,
                "tempo": 120.0
            },
            {
                "start_time": 150.9272727272727,
                "end_time": 151.17272727272726,
                "pitch": 46,
                "velocity": 64,
                "duration": 0.2454545454545496,
                "tempo": 120.0
            },
            {
                "start_time": 151.18863636363636,
                "end_time": 151.3022727272727,
                "pitch": 46,
                "velocity": 64,
                "duration": 0.11363636363634555,
                "tempo": 120.0
            },
            {
                "start_time": 151.3181818181818,
                "end_time": 151.43636363636364,
                "pitch": 46,
                "velocity": 64,
                "duration": 0.11818181818182438,
                "tempo": 120.0
            },
            {
                "start_time": 151.45454545454544,
                "end_time": 151.57045454545454,
                "pitch": 46,
                "velocity": 64,
                "duration": 0.11590909090909918,
                "tempo": 120.0
            },
            {
                "start_time": 151.58863636363637,
                "end_time": 151.70454545454544,
                "pitch": 46,
                "velocity": 64,
                "duration": 0.11590909090907076,
                "tempo": 120.0
            },
            {
                "start_time": 151.72272727272727,
                "end_time": 151.97272727272727,
                "pitch": 58,
                "velocity": 64,
                "duration": 0.25,
                "tempo": 120.0
            },
            {
                "start_time": 151.98863636363635,
                "end_time": 152.10454545454544,
                "pitch": 56,
                "velocity": 64,
                "duration": 0.11590909090909918,
                "tempo": 120.0
            },
            {
                "start_time": 152.12272727272727,
                "end_time": 152.37272727272727,
                "pitch": 56,
                "velocity": 64,
                "duration": 0.25,
                "tempo": 120.0
            },
            {
                "start_time": 152.39090909090908,
                "end_time": 152.50681818181818,
                "pitch": 58,
                "velocity": 64,
                "duration": 0.11590909090909918,
                "tempo": 120.0
            },
            {
                "start_time": 152.525,
                "end_time": 152.77727272727273,
                "pitch": 46,
                "velocity": 64,
                "duration": 0.2522727272727252,
                "tempo": 120.0
            },
            {
                "start_time": 152.7931818181818,
                "end_time": 152.91136363636363,
                "pitch": 46,
                "velocity": 64,
                "duration": 0.11818181818182438,
                "tempo": 120.0
            },
            {
                "start_time": 152.9272727272727,
                "end_time": 153.04545454545453,
                "pitch": 46,
                "velocity": 64,
                "duration": 0.11818181818182438,
                "tempo": 120.0
            },
            {
                "start_time": 153.06136363636364,
                "end_time": 153.17954545454543,
                "pitch": 46,
                "velocity": 64,
                "duration": 0.11818181818179596,
                "tempo": 120.0
            },
            {
                "start_time": 153.19545454545454,
                "end_time": 153.31363636363636,
                "pitch": 46,
                "velocity": 64,
                "duration": 0.11818181818182438,
                "tempo": 120.0
            },
            {
                "start_time": 153.32954545454544,
                "end_time": 153.58181818181816,
                "pitch": 54,
                "velocity": 64,
                "duration": 0.2522727272727252,
                "tempo": 120.0
            },
            {
                "start_time": 153.59772727272727,
                "end_time": 153.7159090909091,
                "pitch": 56,
                "velocity": 64,
                "duration": 0.11818181818182438,
                "tempo": 120.0
            },
            {
                "start_time": 153.73181818181817,
                "end_time": 153.85227272727272,
                "pitch": 56,
                "velocity": 64,
                "duration": 0.12045454545454959,
                "tempo": 120.0
            },
            {
                "start_time": 153.87045454545455,
                "end_time": 153.98863636363635,
                "pitch": 46,
                "velocity": 64,
                "duration": 0.11818181818179596,
                "tempo": 120.0
            },
            {
                "start_time": 154.00681818181818,
                "end_time": 154.12727272727273,
                "pitch": 46,
                "velocity": 64,
                "duration": 0.12045454545454959,
                "tempo": 120.0
            }
        ],
        "Lead 2 (sawtooth)": [
            {
                "start_time": 16.113636363636363,
                "end_time": 17.702272727272728,
                "pitch": 72,
                "velocity": 20,
                "duration": 1.5886363636363647,
                "tempo": 120.0
            },
            {
                "start_time": 17.71818181818182,
                "end_time": 19.30681818181818,
                "pitch": 77,
                "velocity": 20,
                "duration": 1.5886363636363612,
                "tempo": 120.0
            },
            {
                "start_time": 54.59772727272727,
                "end_time": 56.184090909090905,
                "pitch": 72,
                "velocity": 20,
                "duration": 1.586363636363636,
                "tempo": 120.0
            },
            {
                "start_time": 56.199999999999996,
                "end_time": 57.78636363636363,
                "pitch": 77,
                "velocity": 20,
                "duration": 1.586363636363636,
                "tempo": 120.0
            },
            {
                "start_time": 93.12954545454545,
                "end_time": 94.71818181818182,
                "pitch": 72,
                "velocity": 20,
                "duration": 1.5886363636363683,
                "tempo": 120.0
            },
            {
                "start_time": 94.73409090909091,
                "end_time": 96.32272727272726,
                "pitch": 77,
                "velocity": 20,
                "duration": 1.588636363636354,
                "tempo": 120.0
            },
            {
                "start_time": 131.6840909090909,
                "end_time": 133.275,
                "pitch": 72,
                "velocity": 20,
                "duration": 1.5909090909090935,
                "tempo": 120.0
            },
            {
                "start_time": 133.29090909090908,
                "end_time": 134.8840909090909,
                "pitch": 77,
                "velocity": 20,
                "duration": 1.5931818181818187,
                "tempo": 120.0
            }
        ],
        "Trumpet": [
            {
                "start_time": 19.25681818181818,
                "end_time": 20.443181818181817,
                "pitch": 78,
                "velocity": 64,
                "duration": 1.1863636363636374,
                "tempo": 120.0
            },
            {
                "start_time": 20.459090909090907,
                "end_time": 20.577272727272728,
                "pitch": 78,
                "velocity": 64,
                "duration": 0.11818181818182083,
                "tempo": 120.0
            },
            {
                "start_time": 20.59318181818182,
                "end_time": 20.709090909090907,
                "pitch": 77,
                "velocity": 64,
                "duration": 0.11590909090908852,
                "tempo": 120.0
            },
            {
                "start_time": 20.727272727272727,
                "end_time": 20.84318181818182,
                "pitch": 75,
                "velocity": 64,
                "duration": 0.11590909090909207,
                "tempo": 120.0
            },
            {
                "start_time": 20.85909090909091,
                "end_time": 22.44090909090909,
                "pitch": 70,
                "velocity": 64,
                "duration": 1.581818181818182,
                "tempo": 120.0
            },
            {
                "start_time": 22.456818181818182,
                "end_time": 22.849999999999998,
                "pitch": 77,
                "velocity": 64,
                "duration": 0.39318181818181586,
                "tempo": 120.0
            },
            {
                "start_time": 22.868181818181817,
                "end_time": 23.254545454545454,
                "pitch": 75,
                "velocity": 64,
                "duration": 0.3863636363636367,
                "tempo": 120.0
            },
            {
                "start_time": 23.270454545454545,
                "end_time": 23.654545454545453,
                "pitch": 73,
                "velocity": 64,
                "duration": 0.38409090909090793,
                "tempo": 120.0
            },
            {
                "start_time": 23.670454545454543,
                "end_time": 24.05681818181818,
                "pitch": 72,
                "velocity": 64,
                "duration": 0.3863636363636367,
                "tempo": 120.0
            },
            {
                "start_time": 24.07272727272727,
                "end_time": 24.19090909090909,
                "pitch": 73,
                "velocity": 64,
                "duration": 0.11818181818182083,
                "tempo": 120.0
            },
            {
                "start_time": 24.206818181818182,
                "end_time": 24.32272727272727,
                "pitch": 70,
                "velocity": 64,
                "duration": 0.11590909090908852,
                "tempo": 120.0
            },
            {
                "start_time": 24.34090909090909,
                "end_time": 24.456818181818182,
                "pitch": 66,
                "velocity": 64,
                "duration": 0.11590909090909207,
                "tempo": 120.0
            },
            {
                "start_time": 24.472727272727273,
                "end_time": 24.59090909090909,
                "pitch": 75,
                "velocity": 64,
                "duration": 0.11818181818181728,
                "tempo": 120.0
            },
            {
                "start_time": 24.60681818181818,
                "end_time": 24.722727272727273,
                "pitch": 72,
                "velocity": 64,
                "duration": 0.11590909090909207,
                "tempo": 120.0
            },
            {
                "start_time": 24.74090909090909,
                "end_time": 24.85681818181818,
                "pitch": 68,
                "velocity": 64,
                "duration": 0.11590909090909207,
                "tempo": 120.0
            },
            {
                "start_time": 24.87272727272727,
                "end_time": 25.125,
                "pitch": 73,
                "velocity": 64,
                "duration": 0.25227272727272876,
                "tempo": 120.0
            },
            {
                "start_time": 25.14090909090909,
                "end_time": 25.393181818181816,
                "pitch": 75,
                "velocity": 64,
                "duration": 0.2522727272727252,
                "tempo": 120.0
            },
            {
                "start_time": 25.409090909090907,
                "end_time": 25.659090909090907,
                "pitch": 77,
                "velocity": 64,
                "duration": 0.25,
                "tempo": 120.0
            },
            {
                "start_time": 25.677272727272726,
                "end_time": 26.861363636363635,
                "pitch": 78,
                "velocity": 64,
                "duration": 1.1840909090909086,
                "tempo": 120.0
            },
            {
                "start_time": 26.879545454545454,
                "end_time": 26.995454545454542,
                "pitch": 78,
                "velocity": 64,
                "duration": 0.11590909090908852,
                "tempo": 120.0
            },
            {
                "start_time": 27.013636363636362,
                "end_time": 27.129545454545454,
                "pitch": 77,
                "velocity": 64,
                "duration": 0.11590909090909207,
                "tempo": 120.0
            },
            {
                "start_time": 27.14772727272727,
                "end_time": 27.263636363636362,
                "pitch": 75,
                "velocity": 64,
                "duration": 0.11590909090909207,
                "tempo": 120.0
            },
            {
                "start_time": 27.28181818181818,
                "end_time": 28.868181818181817,
                "pitch": 70,
                "velocity": 64,
                "duration": 1.586363636363636,
                "tempo": 120.0
            },
            {
                "start_time": 28.884090909090908,
                "end_time": 29.270454545454545,
                "pitch": 77,
                "velocity": 64,
                "duration": 0.3863636363636367,
                "tempo": 120.0
            },
            {
                "start_time": 29.286363636363635,
                "end_time": 29.670454545454543,
                "pitch": 75,
                "velocity": 64,
                "duration": 0.38409090909090793,
                "tempo": 120.0
            },
            {
                "start_time": 29.686363636363634,
                "end_time": 30.07272727272727,
                "pitch": 73,
                "velocity": 64,
                "duration": 0.3863636363636367,
                "tempo": 120.0
            },
            {
                "start_time": 30.08863636363636,
                "end_time": 30.472727272727273,
                "pitch": 72,
                "velocity": 64,
                "duration": 0.3840909090909115,
                "tempo": 120.0
            },
            {
                "start_time": 30.488636363636363,
                "end_time": 30.60909090909091,
                "pitch": 69,
                "velocity": 64,
                "duration": 0.12045454545454604,
                "tempo": 120.0
            },
            {
                "start_time": 30.627272727272725,
                "end_time": 30.745454545454542,
                "pitch": 72,
                "velocity": 64,
                "duration": 0.11818181818181728,
                "tempo": 120.0
            },
            {
                "start_time": 30.763636363636362,
                "end_time": 30.884090909090908,
                "pitch": 75,
                "velocity": 64,
                "duration": 0.12045454545454604,
                "tempo": 120.0
            },
            {
                "start_time": 30.9,
                "end_time": 31.013636363636362,
                "pitch": 78,
                "velocity": 64,
                "duration": 0.11363636363636331,
                "tempo": 120.0
            },
            {
                "start_time": 31.03181818181818,
                "end_time": 31.145454545454545,
                "pitch": 75,
                "velocity": 64,
                "duration": 0.11363636363636331,
                "tempo": 120.0
            },
            {
                "start_time": 31.161363636363635,
                "end_time": 31.275,
                "pitch": 78,
                "velocity": 64,
                "duration": 0.11363636363636331,
                "tempo": 120.0
            },
            {
                "start_time": 31.293181818181818,
                "end_time": 32.06818181818182,
                "pitch": 82,
                "velocity": 64,
                "duration": 0.7750000000000021,
                "tempo": 120.0
            },
            {
                "start_time": 57.736363636363635,
                "end_time": 58.918181818181814,
                "pitch": 78,
                "velocity": 64,
                "duration": 1.1818181818181799,
                "tempo": 120.0
            },
            {
                "start_time": 58.93636363636363,
                "end_time": 59.05227272727272,
                "pitch": 78,
                "velocity": 64,
                "duration": 0.11590909090909207,
                "tempo": 120.0
            },
            {
                "start_time": 59.06818181818181,
                "end_time": 59.18636363636363,
                "pitch": 77,
                "velocity": 64,
                "duration": 0.11818181818181728,
                "tempo": 120.0
            },
            {
                "start_time": 59.20227272727272,
                "end_time": 59.31818181818181,
                "pitch": 75,
                "velocity": 64,
                "duration": 0.11590909090909207,
                "tempo": 120.0
            },
            {
                "start_time": 59.336363636363636,
                "end_time": 60.92272727272727,
                "pitch": 70,
                "velocity": 64,
                "duration": 1.586363636363636,
                "tempo": 120.0
            },
            {
                "start_time": 60.93863636363636,
                "end_time": 61.32272727272727,
                "pitch": 77,
                "velocity": 64,
                "duration": 0.38409090909090793,
                "tempo": 120.0
            },
            {
                "start_time": 61.33863636363636,
                "end_time": 61.73181818181818,
                "pitch": 75,
                "velocity": 64,
                "duration": 0.39318181818181586,
                "tempo": 120.0
            },
            {
                "start_time": 61.75,
                "end_time": 62.125,
                "pitch": 73,
                "velocity": 64,
                "duration": 0.375,
                "tempo": 120.0
            },
            {
                "start_time": 62.14090909090909,
                "end_time": 62.53409090909091,
                "pitch": 72,
                "velocity": 64,
                "duration": 0.39318181818181586,
                "tempo": 120.0
            },
            {
                "start_time": 62.55227272727272,
                "end_time": 62.66590909090909,
                "pitch": 73,
                "velocity": 64,
                "duration": 0.11363636363636687,
                "tempo": 120.0
            },
            {
                "start_time": 62.68181818181818,
                "end_time": 62.79772727272727,
                "pitch": 70,
                "velocity": 64,
                "duration": 0.11590909090909207,
                "tempo": 120.0
            },
            {
                "start_time": 62.81363636363636,
                "end_time": 62.92727272727272,
                "pitch": 66,
                "velocity": 64,
                "duration": 0.11363636363635976,
                "tempo": 120.0
            },
            {
                "start_time": 62.94318181818181,
                "end_time": 63.06136363636363,
                "pitch": 75,
                "velocity": 64,
                "duration": 0.11818181818181728,
                "tempo": 120.0
            },
            {
                "start_time": 63.07727272727272,
                "end_time": 63.19318181818181,
                "pitch": 72,
                "velocity": 64,
                "duration": 0.11590909090909207,
                "tempo": 120.0
            },
            {
                "start_time": 63.211363636363636,
                "end_time": 63.32727272727272,
                "pitch": 68,
                "velocity": 64,
                "duration": 0.11590909090908497,
                "tempo": 120.0
            },
            {
                "start_time": 63.34318181818181,
                "end_time": 63.595454545454544,
                "pitch": 73,
                "velocity": 64,
                "duration": 0.2522727272727323,
                "tempo": 120.0
            },
            {
                "start_time": 63.61363636363636,
                "end_time": 63.86363636363636,
                "pitch": 75,
                "velocity": 64,
                "duration": 0.25,
                "tempo": 120.0
            },
            {
                "start_time": 63.87954545454545,
                "end_time": 64.12954545454545,
                "pitch": 77,
                "velocity": 64,
                "duration": 0.25,
                "tempo": 120.0
            },
            {
                "start_time": 64.14772727272727,
                "end_time": 65.33181818181818,
                "pitch": 78,
                "velocity": 64,
                "duration": 1.1840909090909122,
                "tempo": 120.0
            },
            {
                "start_time": 65.35,
                "end_time": 65.4659090909091,
                "pitch": 78,
                "velocity": 64,
                "duration": 0.11590909090909918,
                "tempo": 120.0
            },
            {
                "start_time": 65.48409090909091,
                "end_time": 65.60227272727272,
                "pitch": 77,
                "velocity": 64,
                "duration": 0.11818181818181017,
                "tempo": 120.0
            },
            {
                "start_time": 65.61818181818181,
                "end_time": 65.73636363636363,
                "pitch": 75,
                "velocity": 64,
                "duration": 0.11818181818182438,
                "tempo": 120.0
            },
            {
                "start_time": 65.75227272727273,
                "end_time": 67.3409090909091,
                "pitch": 70,
                "velocity": 64,
                "duration": 1.5886363636363683,
                "tempo": 120.0
            },
            {
                "start_time": 67.35681818181818,
                "end_time": 67.74318181818181,
                "pitch": 77,
                "velocity": 64,
                "duration": 0.38636363636362603,
                "tempo": 120.0
            },
            {
                "start_time": 67.76136363636363,
                "end_time": 68.14318181818182,
                "pitch": 75,
                "velocity": 64,
                "duration": 0.38181818181818983,
                "tempo": 120.0
            },
            {
                "start_time": 68.16136363636363,
                "end_time": 68.54545454545455,
                "pitch": 73,
                "velocity": 64,
                "duration": 0.38409090909091503,
                "tempo": 120.0
            },
            {
                "start_time": 68.56363636363636,
                "end_time": 68.94772727272726,
                "pitch": 72,
                "velocity": 64,
                "duration": 0.3840909090909008,
                "tempo": 120.0
            },
            {
                "start_time": 68.9659090909091,
                "end_time": 69.08181818181818,
                "pitch": 69,
                "velocity": 64,
                "duration": 0.11590909090908497,
                "tempo": 120.0
            },
            {
                "start_time": 69.1,
                "end_time": 69.2159090909091,
                "pitch": 72,
                "velocity": 64,
                "duration": 0.11590909090909918,
                "tempo": 120.0
            },
            {
                "start_time": 69.23181818181818,
                "end_time": 69.35,
                "pitch": 75,
                "velocity": 64,
                "duration": 0.11818181818181017,
                "tempo": 120.0
            },
            {
                "start_time": 69.36590909090908,
                "end_time": 69.48409090909091,
                "pitch": 78,
                "velocity": 64,
                "duration": 0.11818181818182438,
                "tempo": 120.0
            },
            {
                "start_time": 69.5,
                "end_time": 69.61818181818181,
                "pitch": 75,
                "velocity": 64,
                "duration": 0.11818181818181017,
                "tempo": 120.0
            },
            {
                "start_time": 69.6340909090909,
                "end_time": 69.75227272727273,
                "pitch": 78,
                "velocity": 64,
                "duration": 0.11818181818182438,
                "tempo": 120.0
            },
            {
                "start_time": 69.76818181818182,
                "end_time": 70.55454545454545,
                "pitch": 82,
                "velocity": 64,
                "duration": 0.7863636363636317,
                "tempo": 120.0
            },
            {
                "start_time": 96.27272727272727,
                "end_time": 97.46136363636363,
                "pitch": 78,
                "velocity": 64,
                "duration": 1.1886363636363626,
                "tempo": 120.0
            },
            {
                "start_time": 97.47954545454544,
                "end_time": 97.59545454545454,
                "pitch": 78,
                "velocity": 64,
                "duration": 0.11590909090909918,
                "tempo": 120.0
            },
            {
                "start_time": 97.61363636363636,
                "end_time": 97.72954545454544,
                "pitch": 77,
                "velocity": 64,
                "duration": 0.11590909090908497,
                "tempo": 120.0
            },
            {
                "start_time": 97.74772727272727,
                "end_time": 97.86363636363636,
                "pitch": 75,
                "velocity": 64,
                "duration": 0.11590909090908497,
                "tempo": 120.0
            },
            {
                "start_time": 97.88181818181818,
                "end_time": 99.46136363636363,
                "pitch": 70,
                "velocity": 64,
                "duration": 1.5795454545454533,
                "tempo": 120.0
            },
            {
                "start_time": 99.47954545454544,
                "end_time": 99.87272727272727,
                "pitch": 77,
                "velocity": 64,
                "duration": 0.39318181818183007,
                "tempo": 120.0
            },
            {
                "start_time": 99.88863636363637,
                "end_time": 100.27272727272727,
                "pitch": 75,
                "velocity": 64,
                "duration": 0.3840909090909008,
                "tempo": 120.0
            },
            {
                "start_time": 100.28863636363636,
                "end_time": 100.675,
                "pitch": 73,
                "velocity": 64,
                "duration": 0.38636363636364024,
                "tempo": 120.0
            },
            {
                "start_time": 100.69318181818181,
                "end_time": 101.08636363636363,
                "pitch": 72,
                "velocity": 64,
                "duration": 0.39318181818181586,
                "tempo": 120.0
            },
            {
                "start_time": 101.10227272727272,
                "end_time": 101.21818181818182,
                "pitch": 73,
                "velocity": 64,
                "duration": 0.11590909090909918,
                "tempo": 120.0
            },
            {
                "start_time": 101.23409090909091,
                "end_time": 101.34772727272727,
                "pitch": 70,
                "velocity": 64,
                "duration": 0.11363636363635976,
                "tempo": 120.0
            },
            {
                "start_time": 101.36363636363636,
                "end_time": 101.47954545454544,
                "pitch": 66,
                "velocity": 64,
                "duration": 0.11590909090908497,
                "tempo": 120.0
            },
            {
                "start_time": 101.49545454545454,
                "end_time": 101.61363636363636,
                "pitch": 75,
                "velocity": 64,
                "duration": 0.11818181818182438,
                "tempo": 120.0
            },
            {
                "start_time": 101.62954545454545,
                "end_time": 101.74772727272727,
                "pitch": 72,
                "velocity": 64,
                "duration": 0.11818181818182438,
                "tempo": 120.0
            },
            {
                "start_time": 101.76363636363637,
                "end_time": 101.88181818181818,
                "pitch": 68,
                "velocity": 64,
                "duration": 0.11818181818181017,
                "tempo": 120.0
            },
            {
                "start_time": 101.89772727272727,
                "end_time": 102.14772727272727,
                "pitch": 73,
                "velocity": 64,
                "duration": 0.25,
                "tempo": 120.0
            },
            {
                "start_time": 102.16363636363636,
                "end_time": 102.41818181818181,
                "pitch": 75,
                "velocity": 64,
                "duration": 0.2545454545454504,
                "tempo": 120.0
            },
            {
                "start_time": 102.4340909090909,
                "end_time": 102.69090909090909,
                "pitch": 77,
                "velocity": 64,
                "duration": 0.25681818181818983,
                "tempo": 120.0
            },
            {
                "start_time": 102.7090909090909,
                "end_time": 103.88636363636363,
                "pitch": 78,
                "velocity": 64,
                "duration": 1.1772727272727224,
                "tempo": 120.0
            },
            {
                "start_time": 103.90454545454546,
                "end_time": 104.02045454545454,
                "pitch": 78,
                "velocity": 64,
                "duration": 0.11590909090908497,
                "tempo": 120.0
            },
            {
                "start_time": 104.03636363636363,
                "end_time": 104.15454545454546,
                "pitch": 77,
                "velocity": 64,
                "duration": 0.11818181818182438,
                "tempo": 120.0
            },
            {
                "start_time": 104.17045454545455,
                "end_time": 104.28636363636363,
                "pitch": 75,
                "velocity": 64,
                "duration": 0.11590909090908497,
                "tempo": 120.0
            },
            {
                "start_time": 104.30454545454545,
                "end_time": 105.89545454545454,
                "pitch": 70,
                "velocity": 64,
                "duration": 1.5909090909090935,
                "tempo": 120.0
            },
            {
                "start_time": 105.91136363636363,
                "end_time": 106.29545454545455,
                "pitch": 77,
                "velocity": 64,
                "duration": 0.38409090909091503,
                "tempo": 120.0
            },
            {
                "start_time": 106.31136363636364,
                "end_time": 106.70454545454545,
                "pitch": 75,
                "velocity": 64,
                "duration": 0.39318181818181586,
                "tempo": 120.0
            },
            {
                "start_time": 106.72272727272727,
                "end_time": 107.09772727272727,
                "pitch": 73,
                "velocity": 64,
                "duration": 0.375,
                "tempo": 120.0
            },
            {
                "start_time": 107.11363636363636,
                "end_time": 107.49772727272726,
                "pitch": 72,
                "velocity": 64,
                "duration": 0.3840909090909008,
                "tempo": 120.0
            },
            {
                "start_time": 107.51363636363637,
                "end_time": 107.63181818181818,
                "pitch": 69,
                "velocity": 64,
                "duration": 0.11818181818181017,
                "tempo": 120.0
            },
            {
                "start_time": 107.64772727272727,
                "end_time": 107.76590909090909,
                "pitch": 72,
                "velocity": 64,
                "duration": 0.11818181818182438,
                "tempo": 120.0
            },
            {
                "start_time": 107.78181818181818,
                "end_time": 107.89999999999999,
                "pitch": 75,
                "velocity": 64,
                "duration": 0.11818181818181017,
                "tempo": 120.0
            },
            {
                "start_time": 107.91818181818181,
                "end_time": 108.0340909090909,
                "pitch": 78,
                "velocity": 64,
                "duration": 0.11590909090909918,
                "tempo": 120.0
            },
            {
                "start_time": 108.05,
                "end_time": 108.16818181818181,
                "pitch": 75,
                "velocity": 64,
                "duration": 0.11818181818181017,
                "tempo": 120.0
            },
            {
                "start_time": 108.1840909090909,
                "end_time": 108.3,
                "pitch": 78,
                "velocity": 64,
                "duration": 0.11590909090909918,
                "tempo": 120.0
            },
            {
                "start_time": 108.31818181818181,
                "end_time": 109.10454545454544,
                "pitch": 82,
                "velocity": 64,
                "duration": 0.7863636363636317,
                "tempo": 120.0
            },
            {
                "start_time": 134.83181818181816,
                "end_time": 136.02045454545453,
                "pitch": 78,
                "velocity": 64,
                "duration": 1.1886363636363626,
                "tempo": 120.0
            },
            {
                "start_time": 136.03863636363636,
                "end_time": 136.15454545454546,
                "pitch": 78,
                "velocity": 64,
                "duration": 0.11590909090909918,
                "tempo": 120.0
            },
            {
                "start_time": 136.17272727272726,
                "end_time": 136.29090909090908,
                "pitch": 77,
                "velocity": 64,
                "duration": 0.11818181818182438,
                "tempo": 120.0
            },
            {
                "start_time": 136.3068181818182,
                "end_time": 136.42499999999998,
                "pitch": 75,
                "velocity": 64,
                "duration": 0.11818181818179596,
                "tempo": 120.0
            },
            {
                "start_time": 136.4409090909091,
                "end_time": 138.03181818181818,
                "pitch": 70,
                "velocity": 64,
                "duration": 1.5909090909090935,
                "tempo": 120.0
            },
            {
                "start_time": 138.04999999999998,
                "end_time": 138.4340909090909,
                "pitch": 77,
                "velocity": 64,
                "duration": 0.38409090909092924,
                "tempo": 120.0
            },
            {
                "start_time": 138.4522727272727,
                "end_time": 138.83863636363637,
                "pitch": 75,
                "velocity": 64,
                "duration": 0.38636363636365445,
                "tempo": 120.0
            },
            {
                "start_time": 138.85454545454544,
                "end_time": 139.24090909090907,
                "pitch": 73,
                "velocity": 64,
                "duration": 0.38636363636362603,
                "tempo": 120.0
            },
            {
                "start_time": 139.25681818181818,
                "end_time": 139.6431818181818,
                "pitch": 72,
                "velocity": 64,
                "duration": 0.38636363636362603,
                "tempo": 120.0
            },
            {
                "start_time": 139.6590909090909,
                "end_time": 139.77727272727273,
                "pitch": 73,
                "velocity": 64,
                "duration": 0.11818181818182438,
                "tempo": 120.0
            },
            {
                "start_time": 139.7931818181818,
                "end_time": 139.9090909090909,
                "pitch": 70,
                "velocity": 64,
                "duration": 0.11590909090909918,
                "tempo": 120.0
            },
            {
                "start_time": 139.9272727272727,
                "end_time": 140.0431818181818,
                "pitch": 66,
                "velocity": 64,
                "duration": 0.11590909090909918,
                "tempo": 120.0
            },
            {
                "start_time": 140.0590909090909,
                "end_time": 140.1772727272727,
                "pitch": 75,
                "velocity": 64,
                "duration": 0.11818181818179596,
                "tempo": 120.0
            },
            {
                "start_time": 140.1931818181818,
                "end_time": 140.31136363636364,
                "pitch": 72,
                "velocity": 64,
                "duration": 0.11818181818182438,
                "tempo": 120.0
            },
            {
                "start_time": 140.3272727272727,
                "end_time": 140.44545454545454,
                "pitch": 68,
                "velocity": 64,
                "duration": 0.11818181818182438,
                "tempo": 120.0
            },
            {
                "start_time": 140.46136363636364,
                "end_time": 140.71363636363637,
                "pitch": 73,
                "velocity": 64,
                "duration": 0.2522727272727252,
                "tempo": 120.0
            },
            {
                "start_time": 140.73181818181817,
                "end_time": 140.98181818181817,
                "pitch": 75,
                "velocity": 64,
                "duration": 0.25,
                "tempo": 120.0
            },
            {
                "start_time": 141.0,
                "end_time": 141.25,
                "pitch": 77,
                "velocity": 64,
                "duration": 0.25,
                "tempo": 120.0
            },
            {
                "start_time": 141.2681818181818,
                "end_time": 142.45681818181816,
                "pitch": 78,
                "velocity": 64,
                "duration": 1.1886363636363626,
                "tempo": 120.0
            },
            {
                "start_time": 142.47272727272727,
                "end_time": 142.5909090909091,
                "pitch": 78,
                "velocity": 64,
                "duration": 0.11818181818182438,
                "tempo": 120.0
            },
            {
                "start_time": 142.60681818181817,
                "end_time": 142.725,
                "pitch": 77,
                "velocity": 64,
                "duration": 0.11818181818182438,
                "tempo": 120.0
            },
            {
                "start_time": 142.74090909090907,
                "end_time": 142.8590909090909,
                "pitch": 75,
                "velocity": 64,
                "duration": 0.11818181818182438,
                "tempo": 120.0
            },
            {
                "start_time": 142.875,
                "end_time": 144.46818181818182,
                "pitch": 70,
                "velocity": 64,
                "duration": 1.5931818181818187,
                "tempo": 120.0
            },
            {
                "start_time": 144.4840909090909,
                "end_time": 144.87045454545455,
                "pitch": 77,
                "velocity": 64,
                "duration": 0.38636363636365445,
                "tempo": 120.0
            },
            {
                "start_time": 144.88636363636363,
                "end_time": 145.27272727272725,
                "pitch": 75,
                "velocity": 64,
                "duration": 0.38636363636362603,
                "tempo": 120.0
            },
            {
                "start_time": 145.28863636363636,
                "end_time": 145.67499999999998,
                "pitch": 73,
                "velocity": 64,
                "duration": 0.38636363636362603,
                "tempo": 120.0
            },
            {
                "start_time": 145.6909090909091,
                "end_time": 146.075,
                "pitch": 72,
                "velocity": 64,
                "duration": 0.3840909090909008,
                "tempo": 120.0
            },
            {
                "start_time": 146.0909090909091,
                "end_time": 146.2090909090909,
                "pitch": 69,
                "velocity": 64,
                "duration": 0.11818181818179596,
                "tempo": 120.0
            },
            {
                "start_time": 146.225,
                "end_time": 146.34318181818182,
                "pitch": 72,
                "velocity": 64,
                "duration": 0.11818181818182438,
                "tempo": 120.0
            },
            {
                "start_time": 146.36136363636362,
                "end_time": 146.47727272727272,
                "pitch": 75,
                "velocity": 64,
                "duration": 0.11590909090909918,
                "tempo": 120.0
            },
            {
                "start_time": 146.49545454545455,
                "end_time": 146.61136363636362,
                "pitch": 78,
                "velocity": 64,
                "duration": 0.11590909090907076,
                "tempo": 120.0
            },
            {
                "start_time": 146.62954545454545,
                "end_time": 146.74545454545455,
                "pitch": 75,
                "velocity": 64,
                "duration": 0.11590909090909918,
                "tempo": 120.0
            },
            {
                "start_time": 146.76363636363635,
                "end_time": 146.87954545454545,
                "pitch": 78,
                "velocity": 64,
                "duration": 0.11590909090909918,
                "tempo": 120.0
            },
            {
                "start_time": 146.89772727272725,
                "end_time": 147.6931818181818,
                "pitch": 82,
                "velocity": 64,
                "duration": 0.795454545454561,
                "tempo": 120.0
            }
        ],
        "Electric Guitar (clean)": [
            {
                "start_time": 0.015909090909090907,
                "end_time": 0.25227272727272726,
                "pitch": 44,
                "velocity": 51,
                "duration": 0.23636363636363636,
                "tempo": 120.0
            },
            {
                "start_time": 0.2681818181818182,
                "end_time": 0.38636363636363635,
                "pitch": 44,
                "velocity": 51,
                "duration": 0.11818181818181817,
                "tempo": 120.0
            },
            {
                "start_time": 0.4022727272727272,
                "end_time": 0.5136363636363636,
                "pitch": 44,
                "velocity": 51,
                "duration": 0.11136363636363633,
                "tempo": 120.0
            },
            {
                "start_time": 0.5295454545454545,
                "end_time": 0.6409090909090909,
                "pitch": 44,
                "velocity": 51,
                "duration": 0.11136363636363633,
                "tempo": 120.0
            },
            {
                "start_time": 0.6568181818181817,
                "end_time": 0.7681818181818182,
                "pitch": 44,
                "velocity": 51,
                "duration": 0.11136363636363644,
                "tempo": 120.0
            },
            {
                "start_time": 0.7840909090909091,
                "end_time": 1.034090909090909,
                "pitch": 44,
                "velocity": 51,
                "duration": 0.2499999999999999,
                "tempo": 120.0
            },
            {
                "start_time": 1.0522727272727272,
                "end_time": 1.1681818181818182,
                "pitch": 44,
                "velocity": 51,
                "duration": 0.11590909090909096,
                "tempo": 120.0
            },
            {
                "start_time": 1.184090909090909,
                "end_time": 1.3022727272727272,
                "pitch": 44,
                "velocity": 51,
                "duration": 0.11818181818181817,
                "tempo": 120.0
            },
            {
                "start_time": 1.3181818181818181,
                "end_time": 1.434090909090909,
                "pitch": 44,
                "velocity": 51,
                "duration": 0.11590909090909096,
                "tempo": 120.0
            },
            {
                "start_time": 1.4522727272727272,
                "end_time": 1.5681818181818181,
                "pitch": 44,
                "velocity": 51,
                "duration": 0.11590909090909096,
                "tempo": 120.0
            },
            {
                "start_time": 1.584090909090909,
                "end_time": 1.8363636363636362,
                "pitch": 44,
                "velocity": 51,
                "duration": 0.2522727272727272,
                "tempo": 120.0
            },
            {
                "start_time": 1.8522727272727273,
                "end_time": 1.9704545454545455,
                "pitch": 44,
                "velocity": 51,
                "duration": 0.11818181818181817,
                "tempo": 120.0
            },
            {
                "start_time": 1.9863636363636363,
                "end_time": 2.1045454545454545,
                "pitch": 44,
                "velocity": 51,
                "duration": 0.11818181818181817,
                "tempo": 120.0
            },
            {
                "start_time": 2.120454545454545,
                "end_time": 2.2363636363636363,
                "pitch": 44,
                "velocity": 51,
                "duration": 0.11590909090909118,
                "tempo": 120.0
            },
            {
                "start_time": 2.2545454545454544,
                "end_time": 2.370454545454545,
                "pitch": 44,
                "velocity": 51,
                "duration": 0.11590909090909074,
                "tempo": 120.0
            },
            {
                "start_time": 2.3863636363636362,
                "end_time": 2.6363636363636362,
                "pitch": 44,
                "velocity": 51,
                "duration": 0.25,
                "tempo": 120.0
            },
            {
                "start_time": 2.6545454545454543,
                "end_time": 2.7704545454545455,
                "pitch": 44,
                "velocity": 51,
                "duration": 0.11590909090909118,
                "tempo": 120.0
            },
            {
                "start_time": 2.786363636363636,
                "end_time": 2.9045454545454543,
                "pitch": 44,
                "velocity": 51,
                "duration": 0.11818181818181817,
                "tempo": 120.0
            },
            {
                "start_time": 2.9204545454545454,
                "end_time": 3.036363636363636,
                "pitch": 44,
                "velocity": 51,
                "duration": 0.11590909090909074,
                "tempo": 120.0
            },
            {
                "start_time": 3.0545454545454542,
                "end_time": 3.1704545454545454,
                "pitch": 44,
                "velocity": 51,
                "duration": 0.11590909090909118,
                "tempo": 120.0
            },
            {
                "start_time": 3.186363636363636,
                "end_time": 3.3045454545454542,
                "pitch": 41,
                "velocity": 51,
                "duration": 0.11818181818181817,
                "tempo": 120.0
            },
            {
                "start_time": 3.3227272727272728,
                "end_time": 3.4386363636363635,
                "pitch": 41,
                "velocity": 51,
                "duration": 0.11590909090909074,
                "tempo": 120.0
            },
            {
                "start_time": 3.4568181818181816,
                "end_time": 3.5727272727272728,
                "pitch": 41,
                "velocity": 51,
                "duration": 0.11590909090909118,
                "tempo": 120.0
            },
            {
                "start_time": 3.590909090909091,
                "end_time": 3.7068181818181816,
                "pitch": 42,
                "velocity": 51,
                "duration": 0.11590909090909074,
                "tempo": 120.0
            },
            {
                "start_time": 3.7227272727272727,
                "end_time": 3.840909090909091,
                "pitch": 41,
                "velocity": 51,
                "duration": 0.11818181818181817,
                "tempo": 120.0
            },
            {
                "start_time": 3.8568181818181815,
                "end_time": 3.9727272727272727,
                "pitch": 41,
                "velocity": 51,
                "duration": 0.11590909090909118,
                "tempo": 120.0
            },
            {
                "start_time": 3.9909090909090907,
                "end_time": 4.1068181818181815,
                "pitch": 44,
                "velocity": 51,
                "duration": 0.11590909090909074,
                "tempo": 120.0
            },
            {
                "start_time": 4.122727272727272,
                "end_time": 4.24090909090909,
                "pitch": 42,
                "velocity": 51,
                "duration": 0.11818181818181817,
                "tempo": 120.0
            },
            {
                "start_time": 4.256818181818182,
                "end_time": 4.372727272727272,
                "pitch": 41,
                "velocity": 51,
                "duration": 0.1159090909090903,
                "tempo": 120.0
            },
            {
                "start_time": 4.390909090909091,
                "end_time": 4.506818181818182,
                "pitch": 46,
                "velocity": 51,
                "duration": 0.11590909090909118,
                "tempo": 120.0
            },
            {
                "start_time": 4.5249999999999995,
                "end_time": 4.640909090909091,
                "pitch": 44,
                "velocity": 51,
                "duration": 0.11590909090909118,
                "tempo": 120.0
            },
            {
                "start_time": 4.659090909090909,
                "end_time": 4.7749999999999995,
                "pitch": 42,
                "velocity": 51,
                "duration": 0.1159090909090903,
                "tempo": 120.0
            },
            {
                "start_time": 4.793181818181818,
                "end_time": 4.909090909090909,
                "pitch": 41,
                "velocity": 51,
                "duration": 0.11590909090909118,
                "tempo": 120.0
            },
            {
                "start_time": 4.925,
                "end_time": 5.043181818181818,
                "pitch": 41,
                "velocity": 51,
                "duration": 0.11818181818181817,
                "tempo": 120.0
            },
            {
                "start_time": 5.059090909090909,
                "end_time": 5.175,
                "pitch": 41,
                "velocity": 51,
                "duration": 0.11590909090909118,
                "tempo": 120.0
            },
            {
                "start_time": 5.193181818181818,
                "end_time": 5.309090909090909,
                "pitch": 42,
                "velocity": 51,
                "duration": 0.1159090909090903,
                "tempo": 120.0
            },
            {
                "start_time": 5.327272727272727,
                "end_time": 5.445454545454545,
                "pitch": 41,
                "velocity": 51,
                "duration": 0.11818181818181817,
                "tempo": 120.0
            },
            {
                "start_time": 5.461363636363636,
                "end_time": 5.579545454545454,
                "pitch": 41,
                "velocity": 51,
                "duration": 0.11818181818181817,
                "tempo": 120.0
            },
            {
                "start_time": 5.595454545454545,
                "end_time": 5.711363636363636,
                "pitch": 44,
                "velocity": 51,
                "duration": 0.11590909090909118,
                "tempo": 120.0
            },
            {
                "start_time": 5.7295454545454545,
                "end_time": 5.845454545454545,
                "pitch": 42,
                "velocity": 51,
                "duration": 0.1159090909090903,
                "tempo": 120.0
            },
            {
                "start_time": 5.861363636363636,
                "end_time": 5.9795454545454545,
                "pitch": 41,
                "velocity": 51,
                "duration": 0.11818181818181817,
                "tempo": 120.0
            },
            {
                "start_time": 5.995454545454545,
                "end_time": 6.113636363636363,
                "pitch": 49,
                "velocity": 51,
                "duration": 0.11818181818181817,
                "tempo": 120.0
            },
            {
                "start_time": 6.129545454545454,
                "end_time": 6.247727272727272,
                "pitch": 48,
                "velocity": 51,
                "duration": 0.11818181818181817,
                "tempo": 120.0
            },
            {
                "start_time": 6.263636363636364,
                "end_time": 6.381818181818182,
                "pitch": 42,
                "velocity": 51,
                "duration": 0.11818181818181817,
                "tempo": 120.0
            },
            {
                "start_time": 6.3977272727272725,
                "end_time": 6.515909090909091,
                "pitch": 41,
                "velocity": 51,
                "duration": 0.11818181818181817,
                "tempo": 120.0
            },
            {
                "start_time": 6.531818181818181,
                "end_time": 6.6499999999999995,
                "pitch": 41,
                "velocity": 51,
                "duration": 0.11818181818181817,
                "tempo": 120.0
            },
            {
                "start_time": 6.665909090909091,
                "end_time": 6.784090909090909,
                "pitch": 41,
                "velocity": 51,
                "duration": 0.11818181818181817,
                "tempo": 120.0
            },
            {
                "start_time": 6.8,
                "end_time": 6.918181818181818,
                "pitch": 42,
                "velocity": 51,
                "duration": 0.11818181818181817,
                "tempo": 120.0
            },
            {
                "start_time": 6.934090909090909,
                "end_time": 7.05,
                "pitch": 41,
                "velocity": 51,
                "duration": 0.11590909090909118,
                "tempo": 120.0
            },
            {
                "start_time": 7.0681818181818175,
                "end_time": 7.184090909090909,
                "pitch": 41,
                "velocity": 51,
                "duration": 0.11590909090909118,
                "tempo": 120.0
            },
            {
                "start_time": 7.199999999999999,
                "end_time": 7.3181818181818175,
                "pitch": 44,
                "velocity": 51,
                "duration": 0.11818181818181817,
                "tempo": 120.0
            },
            {
                "start_time": 7.334090909090909,
                "end_time": 7.452272727272727,
                "pitch": 42,
                "velocity": 51,
                "duration": 0.11818181818181817,
                "tempo": 120.0
            },
            {
                "start_time": 7.468181818181818,
                "end_time": 7.586363636363636,
                "pitch": 41,
                "velocity": 51,
                "duration": 0.11818181818181817,
                "tempo": 120.0
            },
            {
                "start_time": 7.6045454545454545,
                "end_time": 7.720454545454545,
                "pitch": 46,
                "velocity": 51,
                "duration": 0.1159090909090903,
                "tempo": 120.0
            },
            {
                "start_time": 7.736363636363636,
                "end_time": 7.8545454545454545,
                "pitch": 44,
                "velocity": 51,
                "duration": 0.11818181818181817,
                "tempo": 120.0
            },
            {
                "start_time": 7.870454545454545,
                "end_time": 7.986363636363636,
                "pitch": 42,
                "velocity": 51,
                "duration": 0.11590909090909118,
                "tempo": 120.0
            },
            {
                "start_time": 8.004545454545454,
                "end_time": 8.120454545454544,
                "pitch": 41,
                "velocity": 51,
                "duration": 0.1159090909090903,
                "tempo": 120.0
            },
            {
                "start_time": 8.138636363636364,
                "end_time": 8.254545454545454,
                "pitch": 42,
                "velocity": 51,
                "duration": 0.1159090909090903,
                "tempo": 120.0
            },
            {
                "start_time": 8.272727272727272,
                "end_time": 8.388636363636364,
                "pitch": 44,
                "velocity": 51,
                "duration": 0.11590909090909207,
                "tempo": 120.0
            },
            {
                "start_time": 8.406818181818181,
                "end_time": 8.522727272727272,
                "pitch": 46,
                "velocity": 51,
                "duration": 0.1159090909090903,
                "tempo": 120.0
            },
            {
                "start_time": 8.540909090909091,
                "end_time": 8.656818181818181,
                "pitch": 48,
                "velocity": 51,
                "duration": 0.1159090909090903,
                "tempo": 120.0
            },
            {
                "start_time": 8.674999999999999,
                "end_time": 8.793181818181818,
                "pitch": 49,
                "velocity": 51,
                "duration": 0.11818181818181905,
                "tempo": 120.0
            },
            {
                "start_time": 8.809090909090909,
                "end_time": 9.061363636363636,
                "pitch": 51,
                "velocity": 51,
                "duration": 0.252272727272727,
                "tempo": 120.0
            },
            {
                "start_time": 9.077272727272726,
                "end_time": 9.327272727272726,
                "pitch": 53,
                "velocity": 51,
                "duration": 0.25,
                "tempo": 120.0
            },
            {
                "start_time": 9.345454545454546,
                "end_time": 9.595454545454546,
                "pitch": 54,
                "velocity": 51,
                "duration": 0.25,
                "tempo": 120.0
            },
            {
                "start_time": 9.611363636363636,
                "end_time": 9.729545454545454,
                "pitch": 41,
                "velocity": 51,
                "duration": 0.11818181818181728,
                "tempo": 120.0
            },
            {
                "start_time": 9.745454545454544,
                "end_time": 9.863636363636363,
                "pitch": 41,
                "velocity": 51,
                "duration": 0.11818181818181905,
                "tempo": 120.0
            },
            {
                "start_time": 9.879545454545454,
                "end_time": 9.997727272727273,
                "pitch": 41,
                "velocity": 51,
                "duration": 0.11818181818181905,
                "tempo": 120.0
            },
            {
                "start_time": 10.013636363636364,
                "end_time": 10.131818181818181,
                "pitch": 42,
                "velocity": 51,
                "duration": 0.11818181818181728,
                "tempo": 120.0
            },
            {
                "start_time": 10.147727272727272,
                "end_time": 10.26590909090909,
                "pitch": 41,
                "velocity": 51,
                "duration": 0.11818181818181905,
                "tempo": 120.0
            },
            {
                "start_time": 10.281818181818181,
                "end_time": 10.4,
                "pitch": 41,
                "velocity": 51,
                "duration": 0.11818181818181905,
                "tempo": 120.0
            },
            {
                "start_time": 10.415909090909091,
                "end_time": 10.534090909090908,
                "pitch": 44,
                "velocity": 51,
                "duration": 0.11818181818181728,
                "tempo": 120.0
            },
            {
                "start_time": 10.552272727272726,
                "end_time": 10.668181818181818,
                "pitch": 42,
                "velocity": 51,
                "duration": 0.11590909090909207,
                "tempo": 120.0
            },
            {
                "start_time": 10.686363636363636,
                "end_time": 10.802272727272726,
                "pitch": 41,
                "velocity": 51,
                "duration": 0.1159090909090903,
                "tempo": 120.0
            },
            {
                "start_time": 10.820454545454545,
                "end_time": 10.936363636363636,
                "pitch": 46,
                "velocity": 51,
                "duration": 0.1159090909090903,
                "tempo": 120.0
            },
            {
                "start_time": 10.954545454545453,
                "end_time": 11.070454545454545,
                "pitch": 44,
                "velocity": 51,
                "duration": 0.11590909090909207,
                "tempo": 120.0
            },
            {
                "start_time": 11.088636363636363,
                "end_time": 11.204545454545453,
                "pitch": 42,
                "velocity": 51,
                "duration": 0.1159090909090903,
                "tempo": 120.0
            },
            {
                "start_time": 11.222727272727273,
                "end_time": 11.338636363636363,
                "pitch": 41,
                "velocity": 51,
                "duration": 0.1159090909090903,
                "tempo": 120.0
            },
            {
                "start_time": 11.354545454545454,
                "end_time": 11.472727272727273,
                "pitch": 41,
                "velocity": 51,
                "duration": 0.11818181818181905,
                "tempo": 120.0
            },
            {
                "start_time": 11.488636363636363,
                "end_time": 11.604545454545454,
                "pitch": 41,
                "velocity": 51,
                "duration": 0.1159090909090903,
                "tempo": 120.0
            },
            {
                "start_time": 11.622727272727273,
                "end_time": 11.738636363636363,
                "pitch": 42,
                "velocity": 51,
                "duration": 0.1159090909090903,
                "tempo": 120.0
            },
            {
                "start_time": 11.756818181818181,
                "end_time": 11.875,
                "pitch": 41,
                "velocity": 51,
                "duration": 0.11818181818181905,
                "tempo": 120.0
            },
            {
                "start_time": 11.89090909090909,
                "end_time": 12.009090909090908,
                "pitch": 41,
                "velocity": 51,
                "duration": 0.11818181818181728,
                "tempo": 120.0
            },
            {
                "start_time": 12.024999999999999,
                "end_time": 12.143181818181818,
                "pitch": 44,
                "velocity": 51,
                "duration": 0.11818181818181905,
                "tempo": 120.0
            },
            {
                "start_time": 12.159090909090908,
                "end_time": 12.277272727272727,
                "pitch": 42,
                "velocity": 51,
                "duration": 0.11818181818181905,
                "tempo": 120.0
            },
            {
                "start_time": 12.293181818181818,
                "end_time": 12.411363636363635,
                "pitch": 41,
                "velocity": 51,
                "duration": 0.11818181818181728,
                "tempo": 120.0
            },
            {
                "start_time": 12.427272727272726,
                "end_time": 12.545454545454545,
                "pitch": 49,
                "velocity": 51,
                "duration": 0.11818181818181905,
                "tempo": 120.0
            },
            {
                "start_time": 12.561363636363636,
                "end_time": 12.679545454545455,
                "pitch": 48,
                "velocity": 51,
                "duration": 0.11818181818181905,
                "tempo": 120.0
            },
            {
                "start_time": 12.695454545454545,
                "end_time": 12.813636363636363,
                "pitch": 46,
                "velocity": 51,
                "duration": 0.11818181818181728,
                "tempo": 120.0
            },
            {
                "start_time": 12.829545454545453,
                "end_time": 12.947727272727272,
                "pitch": 41,
                "velocity": 51,
                "duration": 0.11818181818181905,
                "tempo": 120.0
            },
            {
                "start_time": 12.963636363636363,
                "end_time": 13.081818181818182,
                "pitch": 41,
                "velocity": 51,
                "duration": 0.11818181818181905,
                "tempo": 120.0
            },
            {
                "start_time": 13.097727272727273,
                "end_time": 13.21590909090909,
                "pitch": 41,
                "velocity": 51,
                "duration": 0.11818181818181728,
                "tempo": 120.0
            },
            {
                "start_time": 13.234090909090908,
                "end_time": 13.35,
                "pitch": 42,
                "velocity": 51,
                "duration": 0.11590909090909207,
                "tempo": 120.0
            },
            {
                "start_time": 13.36590909090909,
                "end_time": 13.484090909090908,
                "pitch": 41,
                "velocity": 51,
                "duration": 0.11818181818181728,
                "tempo": 120.0
            },
            {
                "start_time": 13.5,
                "end_time": 13.61590909090909,
                "pitch": 41,
                "velocity": 51,
                "duration": 0.1159090909090903,
                "tempo": 120.0
            },
            {
                "start_time": 13.634090909090908,
                "end_time": 13.75,
                "pitch": 44,
                "velocity": 51,
                "duration": 0.11590909090909207,
                "tempo": 120.0
            },
            {
                "start_time": 13.768181818181818,
                "end_time": 13.884090909090908,
                "pitch": 42,
                "velocity": 51,
                "duration": 0.1159090909090903,
                "tempo": 120.0
            },
            {
                "start_time": 13.902272727272727,
                "end_time": 14.018181818181818,
                "pitch": 41,
                "velocity": 51,
                "duration": 0.1159090909090903,
                "tempo": 120.0
            },
            {
                "start_time": 14.036363636363635,
                "end_time": 14.152272727272727,
                "pitch": 46,
                "velocity": 51,
                "duration": 0.11590909090909207,
                "tempo": 120.0
            },
            {
                "start_time": 14.170454545454545,
                "end_time": 14.286363636363635,
                "pitch": 44,
                "velocity": 51,
                "duration": 0.1159090909090903,
                "tempo": 120.0
            },
            {
                "start_time": 14.304545454545455,
                "end_time": 14.422727272727272,
                "pitch": 42,
                "velocity": 51,
                "duration": 0.11818181818181728,
                "tempo": 120.0
            },
            {
                "start_time": 14.438636363636363,
                "end_time": 14.69090909090909,
                "pitch": 41,
                "velocity": 51,
                "duration": 0.252272727272727,
                "tempo": 120.0
            },
            {
                "start_time": 14.70681818181818,
                "end_time": 14.825,
                "pitch": 41,
                "velocity": 51,
                "duration": 0.11818181818181905,
                "tempo": 120.0
            },
            {
                "start_time": 14.84090909090909,
                "end_time": 14.959090909090909,
                "pitch": 41,
                "velocity": 51,
                "duration": 0.11818181818181905,
                "tempo": 120.0
            },
            {
                "start_time": 14.975,
                "end_time": 15.093181818181817,
                "pitch": 41,
                "velocity": 51,
                "duration": 0.11818181818181728,
                "tempo": 120.0
            },
            {
                "start_time": 15.109090909090908,
                "end_time": 15.227272727272727,
                "pitch": 41,
                "velocity": 51,
                "duration": 0.11818181818181905,
                "tempo": 120.0
            },
            {
                "start_time": 15.243181818181817,
                "end_time": 15.493181818181817,
                "pitch": 41,
                "velocity": 51,
                "duration": 0.25,
                "tempo": 120.0
            },
            {
                "start_time": 15.511363636363635,
                "end_time": 15.627272727272727,
                "pitch": 41,
                "velocity": 51,
                "duration": 0.11590909090909207,
                "tempo": 120.0
            },
            {
                "start_time": 15.643181818181818,
                "end_time": 15.761363636363635,
                "pitch": 41,
                "velocity": 51,
                "duration": 0.11818181818181728,
                "tempo": 120.0
            },
            {
                "start_time": 15.777272727272727,
                "end_time": 15.895454545454545,
                "pitch": 41,
                "velocity": 51,
                "duration": 0.11818181818181728,
                "tempo": 120.0
            },
            {
                "start_time": 15.911363636363635,
                "end_time": 16.029545454545453,
                "pitch": 41,
                "velocity": 51,
                "duration": 0.11818181818181728,
                "tempo": 120.0
            },
            {
                "start_time": 16.045454545454543,
                "end_time": 16.297727272727272,
                "pitch": 36,
                "velocity": 51,
                "duration": 0.25227272727272876,
                "tempo": 120.0
            },
            {
                "start_time": 16.31590909090909,
                "end_time": 16.43181818181818,
                "pitch": 36,
                "velocity": 51,
                "duration": 0.11590909090908852,
                "tempo": 120.0
            },
            {
                "start_time": 16.45,
                "end_time": 16.56590909090909,
                "pitch": 36,
                "velocity": 51,
                "duration": 0.11590909090909207,
                "tempo": 120.0
            },
            {
                "start_time": 16.581818181818182,
                "end_time": 16.7,
                "pitch": 36,
                "velocity": 51,
                "duration": 0.11818181818181728,
                "tempo": 120.0
            },
            {
                "start_time": 16.71590909090909,
                "end_time": 16.831818181818182,
                "pitch": 36,
                "velocity": 51,
                "duration": 0.11590909090909207,
                "tempo": 120.0
            },
            {
                "start_time": 16.849999999999998,
                "end_time": 17.099999999999998,
                "pitch": 36,
                "velocity": 51,
                "duration": 0.25,
                "tempo": 120.0
            },
            {
                "start_time": 17.118181818181817,
                "end_time": 17.23409090909091,
                "pitch": 36,
                "velocity": 51,
                "duration": 0.11590909090909207,
                "tempo": 120.0
            },
            {
                "start_time": 17.252272727272725,
                "end_time": 17.368181818181817,
                "pitch": 36,
                "velocity": 51,
                "duration": 0.11590909090909207,
                "tempo": 120.0
            },
            {
                "start_time": 17.384090909090908,
                "end_time": 17.502272727272725,
                "pitch": 36,
                "velocity": 51,
                "duration": 0.11818181818181728,
                "tempo": 120.0
            },
            {
                "start_time": 17.518181818181816,
                "end_time": 17.634090909090908,
                "pitch": 36,
                "velocity": 51,
                "duration": 0.11590909090909207,
                "tempo": 120.0
            },
            {
                "start_time": 17.652272727272727,
                "end_time": 17.904545454545453,
                "pitch": 41,
                "velocity": 51,
                "duration": 0.2522727272727252,
                "tempo": 120.0
            },
            {
                "start_time": 17.920454545454543,
                "end_time": 18.038636363636364,
                "pitch": 41,
                "velocity": 51,
                "duration": 0.11818181818182083,
                "tempo": 120.0
            },
            {
                "start_time": 18.054545454545455,
                "end_time": 18.170454545454543,
                "pitch": 41,
                "velocity": 51,
                "duration": 0.11590909090908852,
                "tempo": 120.0
            },
            {
                "start_time": 18.188636363636363,
                "end_time": 18.304545454545455,
                "pitch": 41,
                "velocity": 51,
                "duration": 0.11590909090909207,
                "tempo": 120.0
            },
            {
                "start_time": 18.320454545454545,
                "end_time": 18.438636363636363,
                "pitch": 41,
                "velocity": 51,
                "duration": 0.11818181818181728,
                "tempo": 120.0
            },
            {
                "start_time": 18.454545454545453,
                "end_time": 18.704545454545453,
                "pitch": 41,
                "velocity": 51,
                "duration": 0.25,
                "tempo": 120.0
            },
            {
                "start_time": 18.720454545454544,
                "end_time": 18.83863636363636,
                "pitch": 41,
                "velocity": 51,
                "duration": 0.11818181818181728,
                "tempo": 120.0
            },
            {
                "start_time": 18.854545454545455,
                "end_time": 18.972727272727273,
                "pitch": 41,
                "velocity": 51,
                "duration": 0.11818181818181728,
                "tempo": 120.0
            },
            {
                "start_time": 18.988636363636363,
                "end_time": 19.10681818181818,
                "pitch": 41,
                "velocity": 51,
                "duration": 0.11818181818181728,
                "tempo": 120.0
            },
            {
                "start_time": 19.12272727272727,
                "end_time": 19.24090909090909,
                "pitch": 41,
                "velocity": 51,
                "duration": 0.11818181818181728,
                "tempo": 120.0
            },
            {
                "start_time": 19.25681818181818,
                "end_time": 19.50681818181818,
                "pitch": 42,
                "velocity": 51,
                "duration": 0.25,
                "tempo": 120.0
            },
            {
                "start_time": 19.525,
                "end_time": 19.64090909090909,
                "pitch": 42,
                "velocity": 51,
                "duration": 0.11590909090909207,
                "tempo": 120.0
            },
            {
                "start_time": 19.65681818181818,
                "end_time": 19.775,
                "pitch": 42,
                "velocity": 51,
                "duration": 0.11818181818181728,
                "tempo": 120.0
            },
            {
                "start_time": 19.79090909090909,
                "end_time": 19.909090909090907,
                "pitch": 42,
                "velocity": 51,
                "duration": 0.11818181818181728,
                "tempo": 120.0
            },
            {
                "start_time": 19.925,
                "end_time": 20.043181818181818,
                "pitch": 42,
                "velocity": 51,
                "duration": 0.11818181818181728,
                "tempo": 120.0
            },
            {
                "start_time": 20.05909090909091,
                "end_time": 20.30909090909091,
                "pitch": 42,
                "velocity": 51,
                "duration": 0.25,
                "tempo": 120.0
            },
            {
                "start_time": 20.327272727272728,
                "end_time": 20.443181818181817,
                "pitch": 42,
                "velocity": 51,
                "duration": 0.11590909090908852,
                "tempo": 120.0
            },
            {
                "start_time": 20.459090909090907,
                "end_time": 20.577272727272728,
                "pitch": 42,
                "velocity": 51,
                "duration": 0.11818181818182083,
                "tempo": 120.0
            },
            {
                "start_time": 20.59318181818182,
                "end_time": 20.709090909090907,
                "pitch": 42,
                "velocity": 51,
                "duration": 0.11590909090908852,
                "tempo": 120.0
            },
            {
                "start_time": 20.727272727272727,
                "end_time": 20.84318181818182,
                "pitch": 42,
                "velocity": 51,
                "duration": 0.11590909090909207,
                "tempo": 120.0
            },
            {
                "start_time": 20.85909090909091,
                "end_time": 21.111363636363635,
                "pitch": 39,
                "velocity": 51,
                "duration": 0.2522727272727252,
                "tempo": 120.0
            },
            {
                "start_time": 21.127272727272725,
                "end_time": 21.245454545454546,
                "pitch": 39,
                "velocity": 51,
                "duration": 0.11818181818182083,
                "tempo": 120.0
            },
            {
                "start_time": 21.263636363636362,
                "end_time": 21.379545454545454,
                "pitch": 39,
                "velocity": 51,
                "duration": 0.11590909090909207,
                "tempo": 120.0
            },
            {
                "start_time": 21.395454545454545,
                "end_time": 21.513636363636362,
                "pitch": 39,
                "velocity": 51,
                "duration": 0.11818181818181728,
                "tempo": 120.0
            },
            {
                "start_time": 21.529545454545453,
                "end_time": 21.645454545454545,
                "pitch": 39,
                "velocity": 51,
                "duration": 0.11590909090909207,
                "tempo": 120.0
            },
            {
                "start_time": 21.663636363636364,
                "end_time": 21.779545454545453,
                "pitch": 39,
                "velocity": 51,
                "duration": 0.11590909090908852,
                "tempo": 120.0
            },
            {
                "start_time": 21.797727272727272,
                "end_time": 21.913636363636364,
                "pitch": 46,
                "velocity": 51,
                "duration": 0.11590909090909207,
                "tempo": 120.0
            },
            {
                "start_time": 21.93181818181818,
                "end_time": 22.047727272727272,
                "pitch": 49,
                "velocity": 51,
                "duration": 0.11590909090909207,
                "tempo": 120.0
            },
            {
                "start_time": 22.06590909090909,
                "end_time": 22.179545454545455,
                "pitch": 53,
                "velocity": 51,
                "duration": 0.11363636363636331,
                "tempo": 120.0
            },
            {
                "start_time": 22.195454545454545,
                "end_time": 22.30909090909091,
                "pitch": 51,
                "velocity": 51,
                "duration": 0.11363636363636331,
                "tempo": 120.0
            },
            {
                "start_time": 22.327272727272724,
                "end_time": 22.44090909090909,
                "pitch": 49,
                "velocity": 51,
                "duration": 0.11363636363636687,
                "tempo": 120.0
            },
            {
                "start_time": 22.456818181818182,
                "end_time": 22.71363636363636,
                "pitch": 37,
                "velocity": 51,
                "duration": 0.25681818181817917,
                "tempo": 120.0
            },
            {
                "start_time": 22.73181818181818,
                "end_time": 22.849999999999998,
                "pitch": 37,
                "velocity": 51,
                "duration": 0.11818181818181728,
                "tempo": 120.0
            },
            {
                "start_time": 22.868181818181817,
                "end_time": 22.986363636363635,
                "pitch": 37,
                "velocity": 51,
                "duration": 0.11818181818181728,
                "tempo": 120.0
            },
            {
                "start_time": 23.002272727272725,
                "end_time": 23.120454545454546,
                "pitch": 37,
                "velocity": 51,
                "duration": 0.11818181818182083,
                "tempo": 120.0
            },
            {
                "start_time": 23.136363636363637,
                "end_time": 23.254545454545454,
                "pitch": 37,
                "velocity": 51,
                "duration": 0.11818181818181728,
                "tempo": 120.0
            },
            {
                "start_time": 23.270454545454545,
                "end_time": 23.520454545454545,
                "pitch": 37,
                "velocity": 51,
                "duration": 0.25,
                "tempo": 120.0
            },
            {
                "start_time": 23.536363636363635,
                "end_time": 23.654545454545453,
                "pitch": 37,
                "velocity": 51,
                "duration": 0.11818181818181728,
                "tempo": 120.0
            },
            {
                "start_time": 23.670454545454543,
                "end_time": 23.788636363636364,
                "pitch": 37,
                "velocity": 51,
                "duration": 0.11818181818182083,
                "tempo": 120.0
            },
            {
                "start_time": 23.804545454545455,
                "end_time": 23.922727272727272,
                "pitch": 37,
                "velocity": 51,
                "duration": 0.11818181818181728,
                "tempo": 120.0
            },
            {
                "start_time": 23.938636363636363,
                "end_time": 24.05681818181818,
                "pitch": 37,
                "velocity": 51,
                "duration": 0.11818181818181728,
                "tempo": 120.0
            },
            {
                "start_time": 24.07272727272727,
                "end_time": 24.456818181818182,
                "pitch": 39,
                "velocity": 51,
                "duration": 0.3840909090909115,
                "tempo": 120.0
            },
            {
                "start_time": 24.472727272727273,
                "end_time": 24.85681818181818,
                "pitch": 41,
                "velocity": 51,
                "duration": 0.38409090909090793,
                "tempo": 120.0
            },
            {
                "start_time": 24.87272727272727,
                "end_time": 25.259090909090908,
                "pitch": 42,
                "velocity": 51,
                "duration": 0.3863636363636367,
                "tempo": 120.0
            },
            {
                "start_time": 25.277272727272727,
                "end_time": 25.659090909090907,
                "pitch": 41,
                "velocity": 51,
                "duration": 0.38181818181817917,
                "tempo": 120.0
            },
            {
                "start_time": 25.677272727272726,
                "end_time": 25.927272727272726,
                "pitch": 42,
                "velocity": 51,
                "duration": 0.25,
                "tempo": 120.0
            },
            {
                "start_time": 25.945454545454545,
                "end_time": 26.061363636363634,
                "pitch": 42,
                "velocity": 51,
                "duration": 0.11590909090908852,
                "tempo": 120.0
            },
            {
                "start_time": 26.079545454545453,
                "end_time": 26.195454545454545,
                "pitch": 42,
                "velocity": 51,
                "duration": 0.11590909090909207,
                "tempo": 120.0
            },
            {
                "start_time": 26.211363636363636,
                "end_time": 26.329545454545453,
                "pitch": 42,
                "velocity": 51,
                "duration": 0.11818181818181728,
                "tempo": 120.0
            },
            {
                "start_time": 26.345454545454544,
                "end_time": 26.461363636363636,
                "pitch": 42,
                "velocity": 51,
                "duration": 0.11590909090909207,
                "tempo": 120.0
            },
            {
                "start_time": 26.479545454545452,
                "end_time": 26.729545454545452,
                "pitch": 42,
                "velocity": 51,
                "duration": 0.25,
                "tempo": 120.0
            },
            {
                "start_time": 26.745454545454542,
                "end_time": 26.861363636363635,
                "pitch": 42,
                "velocity": 51,
                "duration": 0.11590909090909207,
                "tempo": 120.0
            },
            {
                "start_time": 26.879545454545454,
                "end_time": 26.995454545454542,
                "pitch": 42,
                "velocity": 51,
                "duration": 0.11590909090908852,
                "tempo": 120.0
            },
            {
                "start_time": 27.013636363636362,
                "end_time": 27.129545454545454,
                "pitch": 42,
                "velocity": 51,
                "duration": 0.11590909090909207,
                "tempo": 120.0
            },
            {
                "start_time": 27.14772727272727,
                "end_time": 27.263636363636362,
                "pitch": 42,
                "velocity": 51,
                "duration": 0.11590909090909207,
                "tempo": 120.0
            },
            {
                "start_time": 27.28181818181818,
                "end_time": 27.53181818181818,
                "pitch": 39,
                "velocity": 51,
                "duration": 0.25,
                "tempo": 120.0
            },
            {
                "start_time": 27.547727272727272,
                "end_time": 27.66590909090909,
                "pitch": 39,
                "velocity": 51,
                "duration": 0.11818181818181728,
                "tempo": 120.0
            },
            {
                "start_time": 27.68181818181818,
                "end_time": 27.799999999999997,
                "pitch": 39,
                "velocity": 51,
                "duration": 0.11818181818181728,
                "tempo": 120.0
            },
            {
                "start_time": 27.815909090909088,
                "end_time": 27.93409090909091,
                "pitch": 39,
                "velocity": 51,
                "duration": 0.11818181818182083,
                "tempo": 120.0
            },
            {
                "start_time": 27.95,
                "end_time": 28.068181818181817,
                "pitch": 39,
                "velocity": 51,
                "duration": 0.11818181818181728,
                "tempo": 120.0
            },
            {
                "start_time": 28.084090909090907,
                "end_time": 28.2,
                "pitch": 39,
                "velocity": 51,
                "duration": 0.11590909090909207,
                "tempo": 120.0
            },
            {
                "start_time": 28.218181818181815,
                "end_time": 28.334090909090907,
                "pitch": 46,
                "velocity": 51,
                "duration": 0.11590909090909207,
                "tempo": 120.0
            },
            {
                "start_time": 28.349999999999998,
                "end_time": 28.468181818181815,
                "pitch": 49,
                "velocity": 51,
                "duration": 0.11818181818181728,
                "tempo": 120.0
            },
            {
                "start_time": 28.48409090909091,
                "end_time": 28.599999999999998,
                "pitch": 53,
                "velocity": 51,
                "duration": 0.11590909090908852,
                "tempo": 120.0
            },
            {
                "start_time": 28.618181818181817,
                "end_time": 28.73409090909091,
                "pitch": 51,
                "velocity": 51,
                "duration": 0.11590909090909207,
                "tempo": 120.0
            },
            {
                "start_time": 28.75,
                "end_time": 28.868181818181817,
                "pitch": 49,
                "velocity": 51,
                "duration": 0.11818181818181728,
                "tempo": 120.0
            },
            {
                "start_time": 28.884090909090908,
                "end_time": 29.136363636363637,
                "pitch": 37,
                "velocity": 51,
                "duration": 0.25227272727272876,
                "tempo": 120.0
            },
            {
                "start_time": 29.152272727272727,
                "end_time": 29.270454545454545,
                "pitch": 37,
                "velocity": 51,
                "duration": 0.11818181818181728,
                "tempo": 120.0
            },
            {
                "start_time": 29.286363636363635,
                "end_time": 29.404545454545453,
                "pitch": 37,
                "velocity": 51,
                "duration": 0.11818181818181728,
                "tempo": 120.0
            },
            {
                "start_time": 29.420454545454543,
                "end_time": 29.536363636363635,
                "pitch": 37,
                "velocity": 51,
                "duration": 0.11590909090909207,
                "tempo": 120.0
            },
            {
                "start_time": 29.554545454545455,
                "end_time": 29.670454545454543,
                "pitch": 37,
                "velocity": 51,
                "duration": 0.11590909090908852,
                "tempo": 120.0
            },
            {
                "start_time": 29.686363636363634,
                "end_time": 29.938636363636363,
                "pitch": 37,
                "velocity": 51,
                "duration": 0.25227272727272876,
                "tempo": 120.0
            },
            {
                "start_time": 29.954545454545453,
                "end_time": 30.07272727272727,
                "pitch": 37,
                "velocity": 51,
                "duration": 0.11818181818181728,
                "tempo": 120.0
            },
            {
                "start_time": 30.08863636363636,
                "end_time": 30.206818181818182,
                "pitch": 37,
                "velocity": 51,
                "duration": 0.11818181818182083,
                "tempo": 120.0
            },
            {
                "start_time": 30.222727272727273,
                "end_time": 30.33863636363636,
                "pitch": 37,
                "velocity": 51,
                "duration": 0.11590909090908852,
                "tempo": 120.0
            },
            {
                "start_time": 30.35681818181818,
                "end_time": 30.472727272727273,
                "pitch": 37,
                "velocity": 51,
                "duration": 0.11590909090909207,
                "tempo": 120.0
            },
            {
                "start_time": 30.488636363636363,
                "end_time": 30.745454545454542,
                "pitch": 36,
                "velocity": 51,
                "duration": 0.25681818181817917,
                "tempo": 120.0
            },
            {
                "start_time": 30.763636363636362,
                "end_time": 30.884090909090908,
                "pitch": 36,
                "velocity": 51,
                "duration": 0.12045454545454604,
                "tempo": 120.0
            },
            {
                "start_time": 30.9,
                "end_time": 31.013636363636362,
                "pitch": 36,
                "velocity": 51,
                "duration": 0.11363636363636331,
                "tempo": 120.0
            },
            {
                "start_time": 31.03181818181818,
                "end_time": 31.145454545454545,
                "pitch": 36,
                "velocity": 51,
                "duration": 0.11363636363636331,
                "tempo": 120.0
            },
            {
                "start_time": 31.161363636363635,
                "end_time": 31.275,
                "pitch": 36,
                "velocity": 51,
                "duration": 0.11363636363636331,
                "tempo": 120.0
            },
            {
                "start_time": 31.293181818181818,
                "end_time": 31.543181818181818,
                "pitch": 34,
                "velocity": 51,
                "duration": 0.25,
                "tempo": 120.0
            },
            {
                "start_time": 31.55909090909091,
                "end_time": 31.80681818181818,
                "pitch": 41,
                "velocity": 51,
                "duration": 0.24772727272727124,
                "tempo": 120.0
            },
            {
                "start_time": 31.82272727272727,
                "end_time": 32.06818181818182,
                "pitch": 34,
                "velocity": 51,
                "duration": 0.2454545454545496,
                "tempo": 120.0
            },
            {
                "start_time": 32.08409090909091,
                "end_time": 32.340909090909086,
                "pitch": 34,
                "velocity": 51,
                "duration": 0.2568181818181756,
                "tempo": 120.0
            },
            {
                "start_time": 32.35909090909091,
                "end_time": 32.47727272727273,
                "pitch": 34,
                "velocity": 51,
                "duration": 0.11818181818181728,
                "tempo": 120.0
            },
            {
                "start_time": 32.49545454545454,
                "end_time": 32.611363636363635,
                "pitch": 34,
                "velocity": 51,
                "duration": 0.11590909090909207,
                "tempo": 120.0
            },
            {
                "start_time": 32.62954545454545,
                "end_time": 32.74545454545454,
                "pitch": 34,
                "velocity": 51,
                "duration": 0.11590909090909207,
                "tempo": 120.0
            },
            {
                "start_time": 32.76136363636363,
                "end_time": 32.87954545454545,
                "pitch": 34,
                "velocity": 51,
                "duration": 0.11818181818181728,
                "tempo": 120.0
            },
            {
                "start_time": 32.89545454545454,
                "end_time": 33.14545454545454,
                "pitch": 46,
                "velocity": 51,
                "duration": 0.25,
                "tempo": 120.0
            },
            {
                "start_time": 33.16136363636363,
                "end_time": 33.279545454545456,
                "pitch": 44,
                "velocity": 51,
                "duration": 0.11818181818182438,
                "tempo": 120.0
            },
            {
                "start_time": 33.29545454545455,
                "end_time": 33.54772727272727,
                "pitch": 44,
                "velocity": 51,
                "duration": 0.2522727272727252,
                "tempo": 120.0
            },
            {
                "start_time": 33.56363636363636,
                "end_time": 33.68181818181818,
                "pitch": 46,
                "velocity": 51,
                "duration": 0.11818181818181728,
                "tempo": 120.0
            },
            {
                "start_time": 33.69772727272727,
                "end_time": 33.94772727272727,
                "pitch": 34,
                "velocity": 51,
                "duration": 0.25,
                "tempo": 120.0
            },
            {
                "start_time": 33.96363636363636,
                "end_time": 34.08181818181818,
                "pitch": 34,
                "velocity": 51,
                "duration": 0.11818181818181728,
                "tempo": 120.0
            },
            {
                "start_time": 34.09772727272727,
                "end_time": 34.21363636363636,
                "pitch": 34,
                "velocity": 51,
                "duration": 0.11590909090909207,
                "tempo": 120.0
            },
            {
                "start_time": 34.23181818181818,
                "end_time": 34.34772727272727,
                "pitch": 34,
                "velocity": 51,
                "duration": 0.11590909090909207,
                "tempo": 120.0
            },
            {
                "start_time": 34.36363636363636,
                "end_time": 34.48181818181818,
                "pitch": 34,
                "velocity": 51,
                "duration": 0.11818181818181728,
                "tempo": 120.0
            },
            {
                "start_time": 34.49772727272727,
                "end_time": 34.74772727272727,
                "pitch": 42,
                "velocity": 51,
                "duration": 0.25,
                "tempo": 120.0
            },
            {
                "start_time": 34.763636363636365,
                "end_time": 34.88181818181818,
                "pitch": 44,
                "velocity": 51,
                "duration": 0.11818181818181728,
                "tempo": 120.0
            },
            {
                "start_time": 34.89772727272727,
                "end_time": 35.013636363636365,
                "pitch": 44,
                "velocity": 51,
                "duration": 0.11590909090909207,
                "tempo": 120.0
            },
            {
                "start_time": 35.03181818181818,
                "end_time": 35.14772727272727,
                "pitch": 34,
                "velocity": 51,
                "duration": 0.11590909090909207,
                "tempo": 120.0
            },
            {
                "start_time": 35.163636363636364,
                "end_time": 35.28181818181818,
                "pitch": 34,
                "velocity": 51,
                "duration": 0.11818181818181728,
                "tempo": 120.0
            },
            {
                "start_time": 35.29772727272727,
                "end_time": 35.55,
                "pitch": 34,
                "velocity": 51,
                "duration": 0.2522727272727252,
                "tempo": 120.0
            },
            {
                "start_time": 35.56590909090909,
                "end_time": 35.684090909090905,
                "pitch": 34,
                "velocity": 51,
                "duration": 0.11818181818181728,
                "tempo": 120.0
            },
            {
                "start_time": 35.699999999999996,
                "end_time": 35.81818181818181,
                "pitch": 34,
                "velocity": 51,
                "duration": 0.11818181818181728,
                "tempo": 120.0
            },
            {
                "start_time": 35.83409090909091,
                "end_time": 35.949999999999996,
                "pitch": 34,
                "velocity": 51,
                "duration": 0.11590909090908497,
                "tempo": 120.0
            },
            {
                "start_time": 35.96818181818182,
                "end_time": 36.08409090909091,
                "pitch": 34,
                "velocity": 51,
                "duration": 0.11590909090909207,
                "tempo": 120.0
            },
            {
                "start_time": 36.1,
                "end_time": 36.35,
                "pitch": 46,
                "velocity": 51,
                "duration": 0.25,
                "tempo": 120.0
            },
            {
                "start_time": 36.36818181818182,
                "end_time": 36.48409090909091,
                "pitch": 44,
                "velocity": 51,
                "duration": 0.11590909090909207,
                "tempo": 120.0
            },
            {
                "start_time": 36.5,
                "end_time": 36.75,
                "pitch": 44,
                "velocity": 51,
                "duration": 0.25,
                "tempo": 120.0
            },
            {
                "start_time": 36.768181818181816,
                "end_time": 36.88409090909091,
                "pitch": 46,
                "velocity": 51,
                "duration": 0.11590909090909207,
                "tempo": 120.0
            },
            {
                "start_time": 36.9,
                "end_time": 37.15,
                "pitch": 34,
                "velocity": 51,
                "duration": 0.25,
                "tempo": 120.0
            },
            {
                "start_time": 37.168181818181814,
                "end_time": 37.28409090909091,
                "pitch": 34,
                "velocity": 51,
                "duration": 0.11590909090909207,
                "tempo": 120.0
            },
            {
                "start_time": 37.3,
                "end_time": 37.418181818181814,
                "pitch": 34,
                "velocity": 51,
                "duration": 0.11818181818181728,
                "tempo": 120.0
            },
            {
                "start_time": 37.434090909090905,
                "end_time": 37.55227272727272,
                "pitch": 34,
                "velocity": 51,
                "duration": 0.11818181818181728,
                "tempo": 120.0
            },
            {
                "start_time": 37.56818181818181,
                "end_time": 37.68636363636364,
                "pitch": 34,
                "velocity": 51,
                "duration": 0.11818181818182438,
                "tempo": 120.0
            },
            {
                "start_time": 37.70454545454545,
                "end_time": 37.95454545454545,
                "pitch": 42,
                "velocity": 51,
                "duration": 0.25,
                "tempo": 120.0
            },
            {
                "start_time": 37.970454545454544,
                "end_time": 38.086363636363636,
                "pitch": 44,
                "velocity": 51,
                "duration": 0.11590909090909207,
                "tempo": 120.0
            },
            {
                "start_time": 38.10454545454545,
                "end_time": 38.220454545454544,
                "pitch": 44,
                "velocity": 51,
                "duration": 0.11590909090909207,
                "tempo": 120.0
            },
            {
                "start_time": 38.236363636363635,
                "end_time": 38.35454545454545,
                "pitch": 34,
                "velocity": 51,
                "duration": 0.11818181818181728,
                "tempo": 120.0
            },
            {
                "start_time": 38.37045454545454,
                "end_time": 38.486363636363635,
                "pitch": 34,
                "velocity": 51,
                "duration": 0.11590909090909207,
                "tempo": 120.0
            },
            {
                "start_time": 38.50454545454545,
                "end_time": 38.75909090909091,
                "pitch": 44,
                "velocity": 51,
                "duration": 0.2545454545454575,
                "tempo": 120.0
            },
            {
                "start_time": 38.777272727272724,
                "end_time": 38.89772727272727,
                "pitch": 44,
                "velocity": 51,
                "duration": 0.12045454545454959,
                "tempo": 120.0
            },
            {
                "start_time": 38.913636363636364,
                "end_time": 39.029545454545456,
                "pitch": 44,
                "velocity": 51,
                "duration": 0.11590909090909207,
                "tempo": 120.0
            },
            {
                "start_time": 39.04545454545455,
                "end_time": 39.15909090909091,
                "pitch": 44,
                "velocity": 51,
                "duration": 0.11363636363635976,
                "tempo": 120.0
            },
            {
                "start_time": 39.175,
                "end_time": 39.29090909090909,
                "pitch": 44,
                "velocity": 51,
                "duration": 0.11590909090909207,
                "tempo": 120.0
            },
            {
                "start_time": 39.30681818181818,
                "end_time": 39.55681818181818,
                "pitch": 44,
                "velocity": 51,
                "duration": 0.25,
                "tempo": 120.0
            },
            {
                "start_time": 39.574999999999996,
                "end_time": 39.69318181818181,
                "pitch": 44,
                "velocity": 51,
                "duration": 0.11818181818181728,
                "tempo": 120.0
            },
            {
                "start_time": 39.709090909090904,
                "end_time": 39.824999999999996,
                "pitch": 44,
                "velocity": 51,
                "duration": 0.11590909090909207,
                "tempo": 120.0
            },
            {
                "start_time": 39.84318181818182,
                "end_time": 39.959090909090904,
                "pitch": 44,
                "velocity": 51,
                "duration": 0.11590909090908497,
                "tempo": 120.0
            },
            {
                "start_time": 39.975,
                "end_time": 40.09318181818182,
                "pitch": 44,
                "velocity": 51,
                "duration": 0.11818181818181728,
                "tempo": 120.0
            },
            {
                "start_time": 40.10909090909091,
                "end_time": 40.35909090909091,
                "pitch": 44,
                "velocity": 51,
                "duration": 0.25,
                "tempo": 120.0
            },
            {
                "start_time": 40.375,
                "end_time": 40.49318181818182,
                "pitch": 44,
                "velocity": 51,
                "duration": 0.11818181818181728,
                "tempo": 120.0
            },
            {
                "start_time": 40.50909090909091,
                "end_time": 40.625,
                "pitch": 44,
                "velocity": 51,
                "duration": 0.11590909090909207,
                "tempo": 120.0
            },
            {
                "start_time": 40.643181818181816,
                "end_time": 40.75909090909091,
                "pitch": 44,
                "velocity": 51,
                "duration": 0.11590909090909207,
                "tempo": 120.0
            },
            {
                "start_time": 40.775,
                "end_time": 40.893181818181816,
                "pitch": 44,
                "velocity": 51,
                "duration": 0.11818181818181728,
                "tempo": 120.0
            },
            {
                "start_time": 40.90909090909091,
                "end_time": 41.15909090909091,
                "pitch": 44,
                "velocity": 51,
                "duration": 0.25,
                "tempo": 120.0
            },
            {
                "start_time": 41.175,
                "end_time": 41.293181818181814,
                "pitch": 44,
                "velocity": 51,
                "duration": 0.11818181818181728,
                "tempo": 120.0
            },
            {
                "start_time": 41.309090909090905,
                "end_time": 41.42727272727272,
                "pitch": 44,
                "velocity": 51,
                "duration": 0.11818181818181728,
                "tempo": 120.0
            },
            {
                "start_time": 41.44318181818181,
                "end_time": 41.56136363636364,
                "pitch": 44,
                "velocity": 51,
                "duration": 0.11818181818182438,
                "tempo": 120.0
            },
            {
                "start_time": 41.57727272727273,
                "end_time": 41.695454545454545,
                "pitch": 44,
                "velocity": 51,
                "duration": 0.11818181818181728,
                "tempo": 120.0
            },
            {
                "start_time": 41.711363636363636,
                "end_time": 41.82727272727273,
                "pitch": 41,
                "velocity": 51,
                "duration": 0.11590909090909207,
                "tempo": 120.0
            },
            {
                "start_time": 41.845454545454544,
                "end_time": 41.961363636363636,
                "pitch": 41,
                "velocity": 51,
                "duration": 0.11590909090909207,
                "tempo": 120.0
            },
            {
                "start_time": 41.97727272727273,
                "end_time": 42.095454545454544,
                "pitch": 41,
                "velocity": 51,
                "duration": 0.11818181818181728,
                "tempo": 120.0
            },
            {
                "start_time": 42.111363636363635,
                "end_time": 42.22727272727273,
                "pitch": 42,
                "velocity": 51,
                "duration": 0.11590909090909207,
                "tempo": 120.0
            },
            {
                "start_time": 42.24545454545454,
                "end_time": 42.361363636363635,
                "pitch": 41,
                "velocity": 51,
                "duration": 0.11590909090909207,
                "tempo": 120.0
            },
            {
                "start_time": 42.377272727272725,
                "end_time": 42.49545454545454,
                "pitch": 41,
                "velocity": 51,
                "duration": 0.11818181818181728,
                "tempo": 120.0
            },
            {
                "start_time": 42.51136363636363,
                "end_time": 42.627272727272725,
                "pitch": 44,
                "velocity": 51,
                "duration": 0.11590909090909207,
                "tempo": 120.0
            },
            {
                "start_time": 42.64545454545454,
                "end_time": 42.76136363636363,
                "pitch": 42,
                "velocity": 51,
                "duration": 0.11590909090909207,
                "tempo": 120.0
            },
            {
                "start_time": 42.777272727272724,
                "end_time": 42.89545454545454,
                "pitch": 41,
                "velocity": 51,
                "duration": 0.11818181818181728,
                "tempo": 120.0
            },
            {
                "start_time": 42.91136363636363,
                "end_time": 43.027272727272724,
                "pitch": 46,
                "velocity": 51,
                "duration": 0.11590909090909207,
                "tempo": 120.0
            },
            {
                "start_time": 43.04545454545455,
                "end_time": 43.16136363636363,
                "pitch": 44,
                "velocity": 51,
                "duration": 0.11590909090908497,
                "tempo": 120.0
            },
            {
                "start_time": 43.17727272727272,
                "end_time": 43.29545454545455,
                "pitch": 42,
                "velocity": 51,
                "duration": 0.11818181818182438,
                "tempo": 120.0
            },
            {
                "start_time": 43.31136363636364,
                "end_time": 43.429545454545455,
                "pitch": 41,
                "velocity": 51,
                "duration": 0.11818181818181728,
                "tempo": 120.0
            },
            {
                "start_time": 43.445454545454545,
                "end_time": 43.56363636363636,
                "pitch": 41,
                "velocity": 51,
                "duration": 0.11818181818181728,
                "tempo": 120.0
            },
            {
                "start_time": 43.57954545454545,
                "end_time": 43.69772727272727,
                "pitch": 41,
                "velocity": 51,
                "duration": 0.11818181818181728,
                "tempo": 120.0
            },
            {
                "start_time": 43.71363636363636,
                "end_time": 43.83181818181818,
                "pitch": 42,
                "velocity": 51,
                "duration": 0.11818181818181728,
                "tempo": 120.0
            },
            {
                "start_time": 43.84772727272727,
                "end_time": 43.96363636363636,
                "pitch": 41,
                "velocity": 51,
                "duration": 0.11590909090909207,
                "tempo": 120.0
            },
            {
                "start_time": 43.98181818181818,
                "end_time": 44.09772727272727,
                "pitch": 41,
                "velocity": 51,
                "duration": 0.11590909090909207,
                "tempo": 120.0
            },
            {
                "start_time": 44.11363636363636,
                "end_time": 44.23181818181818,
                "pitch": 44,
                "velocity": 51,
                "duration": 0.11818181818181728,
                "tempo": 120.0
            },
            {
                "start_time": 44.24772727272727,
                "end_time": 44.36363636363636,
                "pitch": 42,
                "velocity": 51,
                "duration": 0.11590909090909207,
                "tempo": 120.0
            },
            {
                "start_time": 44.38181818181818,
                "end_time": 44.49772727272727,
                "pitch": 41,
                "velocity": 51,
                "duration": 0.11590909090908497,
                "tempo": 120.0
            },
            {
                "start_time": 44.51363636363636,
                "end_time": 44.63181818181818,
                "pitch": 49,
                "velocity": 51,
                "duration": 0.11818181818182438,
                "tempo": 120.0
            },
            {
                "start_time": 44.64772727272727,
                "end_time": 44.76363636363636,
                "pitch": 48,
                "velocity": 51,
                "duration": 0.11590909090908497,
                "tempo": 120.0
            },
            {
                "start_time": 44.78181818181818,
                "end_time": 44.89772727272727,
                "pitch": 42,
                "velocity": 51,
                "duration": 0.11590909090909207,
                "tempo": 120.0
            },
            {
                "start_time": 44.913636363636364,
                "end_time": 45.03181818181818,
                "pitch": 41,
                "velocity": 51,
                "duration": 0.11818181818181728,
                "tempo": 120.0
            },
            {
                "start_time": 45.04772727272727,
                "end_time": 45.163636363636364,
                "pitch": 41,
                "velocity": 51,
                "duration": 0.11590909090909207,
                "tempo": 120.0
            },
            {
                "start_time": 45.18181818181818,
                "end_time": 45.29772727272727,
                "pitch": 41,
                "velocity": 51,
                "duration": 0.11590909090909207,
                "tempo": 120.0
            },
            {
                "start_time": 45.31363636363636,
                "end_time": 45.43181818181818,
                "pitch": 42,
                "velocity": 51,
                "duration": 0.11818181818181728,
                "tempo": 120.0
            },
            {
                "start_time": 45.44772727272727,
                "end_time": 45.56590909090909,
                "pitch": 41,
                "velocity": 51,
                "duration": 0.11818181818181728,
                "tempo": 120.0
            },
            {
                "start_time": 45.58181818181818,
                "end_time": 45.699999999999996,
                "pitch": 41,
                "velocity": 51,
                "duration": 0.11818181818181728,
                "tempo": 120.0
            },
            {
                "start_time": 45.715909090909086,
                "end_time": 45.834090909090904,
                "pitch": 44,
                "velocity": 51,
                "duration": 0.11818181818181728,
                "tempo": 120.0
            },
            {
                "start_time": 45.849999999999994,
                "end_time": 45.965909090909086,
                "pitch": 42,
                "velocity": 51,
                "duration": 0.11590909090909207,
                "tempo": 120.0
            },
            {
                "start_time": 45.98409090909091,
                "end_time": 46.099999999999994,
                "pitch": 41,
                "velocity": 51,
                "duration": 0.11590909090908497,
                "tempo": 120.0
            },
            {
                "start_time": 46.11590909090909,
                "end_time": 46.23409090909091,
                "pitch": 46,
                "velocity": 51,
                "duration": 0.11818181818181728,
                "tempo": 120.0
            },
            {
                "start_time": 46.25,
                "end_time": 46.36590909090909,
                "pitch": 44,
                "velocity": 51,
                "duration": 0.11590909090909207,
                "tempo": 120.0
            },
            {
                "start_time": 46.38409090909091,
                "end_time": 46.5,
                "pitch": 42,
                "velocity": 51,
                "duration": 0.11590909090909207,
                "tempo": 120.0
            },
            {
                "start_time": 46.51590909090909,
                "end_time": 46.63409090909091,
                "pitch": 41,
                "velocity": 51,
                "duration": 0.11818181818181728,
                "tempo": 120.0
            },
            {
                "start_time": 46.65,
                "end_time": 46.76590909090909,
                "pitch": 42,
                "velocity": 51,
                "duration": 0.11590909090909207,
                "tempo": 120.0
            },
            {
                "start_time": 46.78409090909091,
                "end_time": 46.9,
                "pitch": 44,
                "velocity": 51,
                "duration": 0.11590909090909207,
                "tempo": 120.0
            },
            {
                "start_time": 46.91590909090909,
                "end_time": 47.03409090909091,
                "pitch": 46,
                "velocity": 51,
                "duration": 0.11818181818181728,
                "tempo": 120.0
            },
            {
                "start_time": 47.05,
                "end_time": 47.16590909090909,
                "pitch": 48,
                "velocity": 51,
                "duration": 0.11590909090909207,
                "tempo": 120.0
            },
            {
                "start_time": 47.184090909090905,
                "end_time": 47.3,
                "pitch": 49,
                "velocity": 51,
                "duration": 0.11590909090909207,
                "tempo": 120.0
            },
            {
                "start_time": 47.31590909090909,
                "end_time": 47.56818181818181,
                "pitch": 51,
                "velocity": 51,
                "duration": 0.2522727272727252,
                "tempo": 120.0
            },
            {
                "start_time": 47.586363636363636,
                "end_time": 47.834090909090904,
                "pitch": 53,
                "velocity": 51,
                "duration": 0.2477272727272677,
                "tempo": 120.0
            },
            {
                "start_time": 47.849999999999994,
                "end_time": 48.095454545454544,
                "pitch": 54,
                "velocity": 51,
                "duration": 0.2454545454545496,
                "tempo": 120.0
            },
            {
                "start_time": 48.111363636363635,
                "end_time": 48.23181818181818,
                "pitch": 41,
                "velocity": 51,
                "duration": 0.12045454545454248,
                "tempo": 120.0
            },
            {
                "start_time": 48.24772727272727,
                "end_time": 48.36818181818182,
                "pitch": 41,
                "velocity": 51,
                "duration": 0.12045454545454959,
                "tempo": 120.0
            },
            {
                "start_time": 48.38636363636363,
                "end_time": 48.50454545454545,
                "pitch": 41,
                "velocity": 51,
                "duration": 0.11818181818181728,
                "tempo": 120.0
            },
            {
                "start_time": 48.52272727272727,
                "end_time": 48.63863636363636,
                "pitch": 42,
                "velocity": 51,
                "duration": 0.11590909090908497,
                "tempo": 120.0
            },
            {
                "start_time": 48.65681818181818,
                "end_time": 48.77272727272727,
                "pitch": 41,
                "velocity": 51,
                "duration": 0.11590909090909207,
                "tempo": 120.0
            },
            {
                "start_time": 48.788636363636364,
                "end_time": 48.90681818181818,
                "pitch": 41,
                "velocity": 51,
                "duration": 0.11818181818181728,
                "tempo": 120.0
            },
            {
                "start_time": 48.92272727272727,
                "end_time": 49.038636363636364,
                "pitch": 44,
                "velocity": 51,
                "duration": 0.11590909090909207,
                "tempo": 120.0
            },
            {
                "start_time": 49.05681818181818,
                "end_time": 49.17272727272727,
                "pitch": 42,
                "velocity": 51,
                "duration": 0.11590909090909207,
                "tempo": 120.0
            },
            {
                "start_time": 49.18863636363636,
                "end_time": 49.30681818181818,
                "pitch": 41,
                "velocity": 51,
                "duration": 0.11818181818181728,
                "tempo": 120.0
            },
            {
                "start_time": 49.32272727272727,
                "end_time": 49.44090909090909,
                "pitch": 46,
                "velocity": 51,
                "duration": 0.11818181818181728,
                "tempo": 120.0
            },
            {
                "start_time": 49.45681818181818,
                "end_time": 49.574999999999996,
                "pitch": 44,
                "velocity": 51,
                "duration": 0.11818181818181728,
                "tempo": 120.0
            },
            {
                "start_time": 49.590909090909086,
                "end_time": 49.709090909090904,
                "pitch": 42,
                "velocity": 51,
                "duration": 0.11818181818181728,
                "tempo": 120.0
            },
            {
                "start_time": 49.724999999999994,
                "end_time": 49.840909090909086,
                "pitch": 41,
                "velocity": 51,
                "duration": 0.11590909090909207,
                "tempo": 120.0
            },
            {
                "start_time": 49.85909090909091,
                "end_time": 49.974999999999994,
                "pitch": 41,
                "velocity": 51,
                "duration": 0.11590909090908497,
                "tempo": 120.0
            },
            {
                "start_time": 49.990909090909085,
                "end_time": 50.10909090909091,
                "pitch": 41,
                "velocity": 51,
                "duration": 0.11818181818182438,
                "tempo": 120.0
            },
            {
                "start_time": 50.125,
                "end_time": 50.240909090909085,
                "pitch": 42,
                "velocity": 51,
                "duration": 0.11590909090908497,
                "tempo": 120.0
            },
            {
                "start_time": 50.25909090909091,
                "end_time": 50.375,
                "pitch": 41,
                "velocity": 51,
                "duration": 0.11590909090909207,
                "tempo": 120.0
            },
            {
                "start_time": 50.39090909090909,
                "end_time": 50.50909090909091,
                "pitch": 41,
                "velocity": 51,
                "duration": 0.11818181818181728,
                "tempo": 120.0
            },
            {
                "start_time": 50.525,
                "end_time": 50.64090909090909,
                "pitch": 44,
                "velocity": 51,
                "duration": 0.11590909090909207,
                "tempo": 120.0
            },
            {
                "start_time": 50.65909090909091,
                "end_time": 50.775,
                "pitch": 42,
                "velocity": 51,
                "duration": 0.11590909090909207,
                "tempo": 120.0
            },
            {
                "start_time": 50.79090909090909,
                "end_time": 50.90909090909091,
                "pitch": 41,
                "velocity": 51,
                "duration": 0.11818181818181728,
                "tempo": 120.0
            },
            {
                "start_time": 50.925,
                "end_time": 51.04090909090909,
                "pitch": 49,
                "velocity": 51,
                "duration": 0.11590909090909207,
                "tempo": 120.0
            },
            {
                "start_time": 51.059090909090905,
                "end_time": 51.175,
                "pitch": 48,
                "velocity": 51,
                "duration": 0.11590909090909207,
                "tempo": 120.0
            },
            {
                "start_time": 51.19090909090909,
                "end_time": 51.309090909090905,
                "pitch": 46,
                "velocity": 51,
                "duration": 0.11818181818181728,
                "tempo": 120.0
            },
            {
                "start_time": 51.324999999999996,
                "end_time": 51.44318181818181,
                "pitch": 41,
                "velocity": 51,
                "duration": 0.11818181818181728,
                "tempo": 120.0
            },
            {
                "start_time": 51.459090909090904,
                "end_time": 51.57727272727273,
                "pitch": 41,
                "velocity": 51,
                "duration": 0.11818181818182438,
                "tempo": 120.0
            },
            {
                "start_time": 51.59318181818182,
                "end_time": 51.711363636363636,
                "pitch": 41,
                "velocity": 51,
                "duration": 0.11818181818181728,
                "tempo": 120.0
            },
            {
                "start_time": 51.72727272727273,
                "end_time": 51.845454545454544,
                "pitch": 42,
                "velocity": 51,
                "duration": 0.11818181818181728,
                "tempo": 120.0
            },
            {
                "start_time": 51.861363636363635,
                "end_time": 51.97727272727273,
                "pitch": 41,
                "velocity": 51,
                "duration": 0.11590909090909207,
                "tempo": 120.0
            },
            {
                "start_time": 51.99545454545454,
                "end_time": 52.111363636363635,
                "pitch": 41,
                "velocity": 51,
                "duration": 0.11590909090909207,
                "tempo": 120.0
            },
            {
                "start_time": 52.127272727272725,
                "end_time": 52.24545454545454,
                "pitch": 44,
                "velocity": 51,
                "duration": 0.11818181818181728,
                "tempo": 120.0
            },
            {
                "start_time": 52.26136363636363,
                "end_time": 52.377272727272725,
                "pitch": 42,
                "velocity": 51,
                "duration": 0.11590909090909207,
                "tempo": 120.0
            },
            {
                "start_time": 52.39545454545454,
                "end_time": 52.51136363636363,
                "pitch": 41,
                "velocity": 51,
                "duration": 0.11590909090909207,
                "tempo": 120.0
            },
            {
                "start_time": 52.527272727272724,
                "end_time": 52.64545454545454,
                "pitch": 46,
                "velocity": 51,
                "duration": 0.11818181818181728,
                "tempo": 120.0
            },
            {
                "start_time": 52.66136363636363,
                "end_time": 52.777272727272724,
                "pitch": 44,
                "velocity": 51,
                "duration": 0.11590909090909207,
                "tempo": 120.0
            },
            {
                "start_time": 52.79545454545454,
                "end_time": 52.91136363636363,
                "pitch": 42,
                "velocity": 51,
                "duration": 0.11590909090909207,
                "tempo": 120.0
            },
            {
                "start_time": 52.92727272727272,
                "end_time": 53.17727272727272,
                "pitch": 41,
                "velocity": 51,
                "duration": 0.25,
                "tempo": 120.0
            },
            {
                "start_time": 53.195454545454545,
                "end_time": 53.31136363636363,
                "pitch": 41,
                "velocity": 51,
                "duration": 0.11590909090908497,
                "tempo": 120.0
            },
            {
                "start_time": 53.32727272727273,
                "end_time": 53.445454545454545,
                "pitch": 41,
                "velocity": 51,
                "duration": 0.11818181818181728,
                "tempo": 120.0
            },
            {
                "start_time": 53.461363636363636,
                "end_time": 53.57954545454545,
                "pitch": 41,
                "velocity": 51,
                "duration": 0.11818181818181728,
                "tempo": 120.0
            },
            {
                "start_time": 53.595454545454544,
                "end_time": 53.71363636363636,
                "pitch": 41,
                "velocity": 51,
                "duration": 0.11818181818181728,
                "tempo": 120.0
            },
            {
                "start_time": 53.72954545454545,
                "end_time": 53.97954545454545,
                "pitch": 41,
                "velocity": 51,
                "duration": 0.25,
                "tempo": 120.0
            },
            {
                "start_time": 53.99772727272727,
                "end_time": 54.11363636363636,
                "pitch": 41,
                "velocity": 51,
                "duration": 0.11590909090909207,
                "tempo": 120.0
            },
            {
                "start_time": 54.12954545454545,
                "end_time": 54.24772727272727,
                "pitch": 41,
                "velocity": 51,
                "duration": 0.11818181818181728,
                "tempo": 120.0
            },
            {
                "start_time": 54.26363636363636,
                "end_time": 54.37954545454545,
                "pitch": 41,
                "velocity": 51,
                "duration": 0.11590909090909207,
                "tempo": 120.0
            },
            {
                "start_time": 54.39772727272727,
                "end_time": 54.51363636363636,
                "pitch": 41,
                "velocity": 51,
                "duration": 0.11590909090908497,
                "tempo": 120.0
            },
            {
                "start_time": 54.52954545454545,
                "end_time": 54.77954545454545,
                "pitch": 36,
                "velocity": 51,
                "duration": 0.25,
                "tempo": 120.0
            },
            {
                "start_time": 54.79772727272727,
                "end_time": 54.913636363636364,
                "pitch": 36,
                "velocity": 51,
                "duration": 0.11590909090909207,
                "tempo": 120.0
            },
            {
                "start_time": 54.929545454545455,
                "end_time": 55.04772727272727,
                "pitch": 36,
                "velocity": 51,
                "duration": 0.11818181818181728,
                "tempo": 120.0
            },
            {
                "start_time": 55.06363636363636,
                "end_time": 55.179545454545455,
                "pitch": 36,
                "velocity": 51,
                "duration": 0.11590909090909207,
                "tempo": 120.0
            },
            {
                "start_time": 55.19772727272727,
                "end_time": 55.31363636363636,
                "pitch": 36,
                "velocity": 51,
                "duration": 0.11590909090909207,
                "tempo": 120.0
            },
            {
                "start_time": 55.32954545454545,
                "end_time": 55.58181818181818,
                "pitch": 36,
                "velocity": 51,
                "duration": 0.2522727272727252,
                "tempo": 120.0
            },
            {
                "start_time": 55.599999999999994,
                "end_time": 55.715909090909086,
                "pitch": 36,
                "velocity": 51,
                "duration": 0.11590909090909207,
                "tempo": 120.0
            },
            {
                "start_time": 55.73409090909091,
                "end_time": 55.849999999999994,
                "pitch": 36,
                "velocity": 51,
                "duration": 0.11590909090908497,
                "tempo": 120.0
            },
            {
                "start_time": 55.865909090909085,
                "end_time": 55.98409090909091,
                "pitch": 36,
                "velocity": 51,
                "duration": 0.11818181818182438,
                "tempo": 120.0
            },
            {
                "start_time": 56.0,
                "end_time": 56.115909090909085,
                "pitch": 36,
                "velocity": 51,
                "duration": 0.11590909090908497,
                "tempo": 120.0
            },
            {
                "start_time": 56.13409090909091,
                "end_time": 56.38409090909091,
                "pitch": 41,
                "velocity": 51,
                "duration": 0.25,
                "tempo": 120.0
            },
            {
                "start_time": 56.4,
                "end_time": 56.51590909090909,
                "pitch": 41,
                "velocity": 51,
                "duration": 0.11590909090909207,
                "tempo": 120.0
            },
            {
                "start_time": 56.53409090909091,
                "end_time": 56.65,
                "pitch": 41,
                "velocity": 51,
                "duration": 0.11590909090909207,
                "tempo": 120.0
            },
            {
                "start_time": 56.66590909090909,
                "end_time": 56.78409090909091,
                "pitch": 41,
                "velocity": 51,
                "duration": 0.11818181818181728,
                "tempo": 120.0
            },
            {
                "start_time": 56.8,
                "end_time": 56.91590909090909,
                "pitch": 41,
                "velocity": 51,
                "duration": 0.11590909090909207,
                "tempo": 120.0
            },
            {
                "start_time": 56.934090909090905,
                "end_time": 57.184090909090905,
                "pitch": 41,
                "velocity": 51,
                "duration": 0.25,
                "tempo": 120.0
            },
            {
                "start_time": 57.199999999999996,
                "end_time": 57.31590909090909,
                "pitch": 41,
                "velocity": 51,
                "duration": 0.11590909090909207,
                "tempo": 120.0
            },
            {
                "start_time": 57.334090909090904,
                "end_time": 57.449999999999996,
                "pitch": 41,
                "velocity": 51,
                "duration": 0.11590909090909207,
                "tempo": 120.0
            },
            {
                "start_time": 57.46818181818182,
                "end_time": 57.584090909090904,
                "pitch": 41,
                "velocity": 51,
                "duration": 0.11590909090908497,
                "tempo": 120.0
            },
            {
                "start_time": 57.60227272727273,
                "end_time": 57.71818181818182,
                "pitch": 41,
                "velocity": 51,
                "duration": 0.11590909090909207,
                "tempo": 120.0
            },
            {
                "start_time": 57.736363636363635,
                "end_time": 57.986363636363635,
                "pitch": 42,
                "velocity": 51,
                "duration": 0.25,
                "tempo": 120.0
            },
            {
                "start_time": 58.002272727272725,
                "end_time": 58.11818181818182,
                "pitch": 42,
                "velocity": 51,
                "duration": 0.11590909090909207,
                "tempo": 120.0
            },
            {
                "start_time": 58.13636363636363,
                "end_time": 58.252272727272725,
                "pitch": 42,
                "velocity": 51,
                "duration": 0.11590909090909207,
                "tempo": 120.0
            },
            {
                "start_time": 58.268181818181816,
                "end_time": 58.38636363636363,
                "pitch": 42,
                "velocity": 51,
                "duration": 0.11818181818181728,
                "tempo": 120.0
            },
            {
                "start_time": 58.402272727272724,
                "end_time": 58.518181818181816,
                "pitch": 42,
                "velocity": 51,
                "duration": 0.11590909090909207,
                "tempo": 120.0
            },
            {
                "start_time": 58.53636363636363,
                "end_time": 58.78636363636363,
                "pitch": 42,
                "velocity": 51,
                "duration": 0.25,
                "tempo": 120.0
            },
            {
                "start_time": 58.80227272727272,
                "end_time": 58.918181818181814,
                "pitch": 42,
                "velocity": 51,
                "duration": 0.11590909090909207,
                "tempo": 120.0
            },
            {
                "start_time": 58.93636363636363,
                "end_time": 59.05227272727272,
                "pitch": 42,
                "velocity": 51,
                "duration": 0.11590909090909207,
                "tempo": 120.0
            },
            {
                "start_time": 59.06818181818181,
                "end_time": 59.18636363636363,
                "pitch": 42,
                "velocity": 51,
                "duration": 0.11818181818181728,
                "tempo": 120.0
            },
            {
                "start_time": 59.20227272727272,
                "end_time": 59.31818181818181,
                "pitch": 42,
                "velocity": 51,
                "duration": 0.11590909090909207,
                "tempo": 120.0
            },
            {
                "start_time": 59.336363636363636,
                "end_time": 59.58863636363636,
                "pitch": 39,
                "velocity": 51,
                "duration": 0.2522727272727252,
                "tempo": 120.0
            },
            {
                "start_time": 59.60454545454545,
                "end_time": 59.72272727272727,
                "pitch": 39,
                "velocity": 51,
                "duration": 0.11818181818181728,
                "tempo": 120.0
            },
            {
                "start_time": 59.73863636363636,
                "end_time": 59.85454545454545,
                "pitch": 39,
                "velocity": 51,
                "duration": 0.11590909090909207,
                "tempo": 120.0
            },
            {
                "start_time": 59.87272727272727,
                "end_time": 59.98863636363636,
                "pitch": 39,
                "velocity": 51,
                "duration": 0.11590909090909207,
                "tempo": 120.0
            },
            {
                "start_time": 60.00454545454545,
                "end_time": 60.12272727272727,
                "pitch": 39,
                "velocity": 51,
                "duration": 0.11818181818181728,
                "tempo": 120.0
            },
            {
                "start_time": 60.13863636363636,
                "end_time": 60.25454545454545,
                "pitch": 39,
                "velocity": 51,
                "duration": 0.11590909090909207,
                "tempo": 120.0
            },
            {
                "start_time": 60.272727272727266,
                "end_time": 60.38863636363636,
                "pitch": 46,
                "velocity": 51,
                "duration": 0.11590909090909207,
                "tempo": 120.0
            },
            {
                "start_time": 60.40454545454545,
                "end_time": 60.522727272727266,
                "pitch": 49,
                "velocity": 51,
                "duration": 0.11818181818181728,
                "tempo": 120.0
            },
            {
                "start_time": 60.538636363636364,
                "end_time": 60.65454545454545,
                "pitch": 53,
                "velocity": 51,
                "duration": 0.11590909090908497,
                "tempo": 120.0
            },
            {
                "start_time": 60.67272727272727,
                "end_time": 60.788636363636364,
                "pitch": 51,
                "velocity": 51,
                "duration": 0.11590909090909207,
                "tempo": 120.0
            },
            {
                "start_time": 60.804545454545455,
                "end_time": 60.92272727272727,
                "pitch": 49,
                "velocity": 51,
                "duration": 0.11818181818181728,
                "tempo": 120.0
            },
            {
                "start_time": 60.93863636363636,
                "end_time": 61.18863636363636,
                "pitch": 37,
                "velocity": 51,
                "duration": 0.25,
                "tempo": 120.0
            },
            {
                "start_time": 61.20454545454545,
                "end_time": 61.32272727272727,
                "pitch": 37,
                "velocity": 51,
                "duration": 0.11818181818181728,
                "tempo": 120.0
            },
            {
                "start_time": 61.33863636363636,
                "end_time": 61.459090909090904,
                "pitch": 37,
                "velocity": 51,
                "duration": 0.12045454545454248,
                "tempo": 120.0
            },
            {
                "start_time": 61.474999999999994,
                "end_time": 61.595454545454544,
                "pitch": 37,
                "velocity": 51,
                "duration": 0.12045454545454959,
                "tempo": 120.0
            },
            {
                "start_time": 61.611363636363635,
                "end_time": 61.73181818181818,
                "pitch": 37,
                "velocity": 51,
                "duration": 0.12045454545454248,
                "tempo": 120.0
            },
            {
                "start_time": 61.75,
                "end_time": 61.99545454545454,
                "pitch": 37,
                "velocity": 51,
                "duration": 0.24545454545454248,
                "tempo": 120.0
            },
            {
                "start_time": 62.01136363636363,
                "end_time": 62.125,
                "pitch": 37,
                "velocity": 51,
                "duration": 0.11363636363636687,
                "tempo": 120.0
            },
            {
                "start_time": 62.14090909090909,
                "end_time": 62.26136363636363,
                "pitch": 37,
                "velocity": 51,
                "duration": 0.12045454545454248,
                "tempo": 120.0
            },
            {
                "start_time": 62.277272727272724,
                "end_time": 62.397727272727266,
                "pitch": 37,
                "velocity": 51,
                "duration": 0.12045454545454248,
                "tempo": 120.0
            },
            {
                "start_time": 62.41590909090909,
                "end_time": 62.53409090909091,
                "pitch": 37,
                "velocity": 51,
                "duration": 0.11818181818181728,
                "tempo": 120.0
            },
            {
                "start_time": 62.55227272727272,
                "end_time": 62.92727272727272,
                "pitch": 39,
                "velocity": 51,
                "duration": 0.375,
                "tempo": 120.0
            },
            {
                "start_time": 62.94318181818181,
                "end_time": 63.32727272727272,
                "pitch": 41,
                "velocity": 51,
                "duration": 0.38409090909090793,
                "tempo": 120.0
            },
            {
                "start_time": 63.34318181818181,
                "end_time": 63.72954545454545,
                "pitch": 42,
                "velocity": 51,
                "duration": 0.38636363636364024,
                "tempo": 120.0
            },
            {
                "start_time": 63.74772727272727,
                "end_time": 64.12954545454545,
                "pitch": 41,
                "velocity": 51,
                "duration": 0.3818181818181827,
                "tempo": 120.0
            },
            {
                "start_time": 64.14772727272727,
                "end_time": 64.39772727272727,
                "pitch": 42,
                "velocity": 51,
                "duration": 0.25,
                "tempo": 120.0
            },
            {
                "start_time": 64.41363636363636,
                "end_time": 64.52954545454546,
                "pitch": 42,
                "velocity": 51,
                "duration": 0.11590909090909918,
                "tempo": 120.0
            },
            {
                "start_time": 64.54772727272727,
                "end_time": 64.66363636363636,
                "pitch": 42,
                "velocity": 51,
                "duration": 0.11590909090908497,
                "tempo": 120.0
            },
            {
                "start_time": 64.68181818181817,
                "end_time": 64.79772727272727,
                "pitch": 42,
                "velocity": 51,
                "duration": 0.11590909090909918,
                "tempo": 120.0
            },
            {
                "start_time": 64.81590909090909,
                "end_time": 64.93181818181817,
                "pitch": 42,
                "velocity": 51,
                "duration": 0.11590909090908497,
                "tempo": 120.0
            },
            {
                "start_time": 64.95,
                "end_time": 65.2,
                "pitch": 42,
                "velocity": 51,
                "duration": 0.25,
                "tempo": 120.0
            },
            {
                "start_time": 65.2159090909091,
                "end_time": 65.33181818181818,
                "pitch": 42,
                "velocity": 51,
                "duration": 0.11590909090908497,
                "tempo": 120.0
            },
            {
                "start_time": 65.35,
                "end_time": 65.4659090909091,
                "pitch": 42,
                "velocity": 51,
                "duration": 0.11590909090909918,
                "tempo": 120.0
            },
            {
                "start_time": 65.48409090909091,
                "end_time": 65.60227272727272,
                "pitch": 42,
                "velocity": 51,
                "duration": 0.11818181818181017,
                "tempo": 120.0
            },
            {
                "start_time": 65.61818181818181,
                "end_time": 65.73636363636363,
                "pitch": 42,
                "velocity": 51,
                "duration": 0.11818181818182438,
                "tempo": 120.0
            },
            {
                "start_time": 65.75227272727273,
                "end_time": 66.00227272727273,
                "pitch": 39,
                "velocity": 51,
                "duration": 0.25,
                "tempo": 120.0
            },
            {
                "start_time": 66.01818181818182,
                "end_time": 66.13636363636364,
                "pitch": 39,
                "velocity": 51,
                "duration": 0.11818181818182438,
                "tempo": 120.0
            },
            {
                "start_time": 66.15227272727273,
                "end_time": 66.27045454545454,
                "pitch": 39,
                "velocity": 51,
                "duration": 0.11818181818181017,
                "tempo": 120.0
            },
            {
                "start_time": 66.28636363636363,
                "end_time": 66.40454545454546,
                "pitch": 39,
                "velocity": 51,
                "duration": 0.11818181818182438,
                "tempo": 120.0
            },
            {
                "start_time": 66.42045454545455,
                "end_time": 66.53863636363636,
                "pitch": 39,
                "velocity": 51,
                "duration": 0.11818181818181017,
                "tempo": 120.0
            },
            {
                "start_time": 66.55454545454545,
                "end_time": 66.67272727272727,
                "pitch": 39,
                "velocity": 51,
                "duration": 0.11818181818182438,
                "tempo": 120.0
            },
            {
                "start_time": 66.68863636363636,
                "end_time": 66.80681818181817,
                "pitch": 46,
                "velocity": 51,
                "duration": 0.11818181818181017,
                "tempo": 120.0
            },
            {
                "start_time": 66.82272727272726,
                "end_time": 66.94090909090909,
                "pitch": 49,
                "velocity": 51,
                "duration": 0.11818181818182438,
                "tempo": 120.0
            },
            {
                "start_time": 66.95681818181818,
                "end_time": 67.075,
                "pitch": 53,
                "velocity": 51,
                "duration": 0.11818181818182438,
                "tempo": 120.0
            },
            {
                "start_time": 67.0909090909091,
                "end_time": 67.20681818181818,
                "pitch": 51,
                "velocity": 51,
                "duration": 0.11590909090908497,
                "tempo": 120.0
            },
            {
                "start_time": 67.225,
                "end_time": 67.3409090909091,
                "pitch": 49,
                "velocity": 51,
                "duration": 0.11590909090909918,
                "tempo": 120.0
            },
            {
                "start_time": 67.35681818181818,
                "end_time": 67.60909090909091,
                "pitch": 37,
                "velocity": 51,
                "duration": 0.2522727272727252,
                "tempo": 120.0
            },
            {
                "start_time": 67.625,
                "end_time": 67.74318181818181,
                "pitch": 37,
                "velocity": 51,
                "duration": 0.11818181818181017,
                "tempo": 120.0
            },
            {
                "start_time": 67.76136363636363,
                "end_time": 67.87727272727273,
                "pitch": 37,
                "velocity": 51,
                "duration": 0.11590909090909918,
                "tempo": 120.0
            },
            {
                "start_time": 67.89318181818182,
                "end_time": 68.01136363636363,
                "pitch": 37,
                "velocity": 51,
                "duration": 0.11818181818181017,
                "tempo": 120.0
            },
            {
                "start_time": 68.02727272727273,
                "end_time": 68.14318181818182,
                "pitch": 37,
                "velocity": 51,
                "duration": 0.11590909090908497,
                "tempo": 120.0
            },
            {
                "start_time": 68.16136363636363,
                "end_time": 68.41136363636363,
                "pitch": 37,
                "velocity": 51,
                "duration": 0.25,
                "tempo": 120.0
            },
            {
                "start_time": 68.42954545454545,
                "end_time": 68.54545454545455,
                "pitch": 37,
                "velocity": 51,
                "duration": 0.11590909090909918,
                "tempo": 120.0
            },
            {
                "start_time": 68.56363636363636,
                "end_time": 68.67954545454545,
                "pitch": 37,
                "velocity": 51,
                "duration": 0.11590909090908497,
                "tempo": 120.0
            },
            {
                "start_time": 68.69772727272726,
                "end_time": 68.81363636363636,
                "pitch": 37,
                "velocity": 51,
                "duration": 0.11590909090909918,
                "tempo": 120.0
            },
            {
                "start_time": 68.83181818181818,
                "end_time": 68.94772727272726,
                "pitch": 37,
                "velocity": 51,
                "duration": 0.11590909090908497,
                "tempo": 120.0
            },
            {
                "start_time": 68.9659090909091,
                "end_time": 69.2159090909091,
                "pitch": 36,
                "velocity": 51,
                "duration": 0.25,
                "tempo": 120.0
            },
            {
                "start_time": 69.23181818181818,
                "end_time": 69.35,
                "pitch": 36,
                "velocity": 51,
                "duration": 0.11818181818181017,
                "tempo": 120.0
            },
            {
                "start_time": 69.36590909090908,
                "end_time": 69.48409090909091,
                "pitch": 36,
                "velocity": 51,
                "duration": 0.11818181818182438,
                "tempo": 120.0
            },
            {
                "start_time": 69.5,
                "end_time": 69.61818181818181,
                "pitch": 36,
                "velocity": 51,
                "duration": 0.11818181818181017,
                "tempo": 120.0
            },
            {
                "start_time": 69.6340909090909,
                "end_time": 69.75227272727273,
                "pitch": 36,
                "velocity": 51,
                "duration": 0.11818181818182438,
                "tempo": 120.0
            },
            {
                "start_time": 69.76818181818182,
                "end_time": 70.01818181818182,
                "pitch": 34,
                "velocity": 51,
                "duration": 0.25,
                "tempo": 120.0
            },
            {
                "start_time": 70.0340909090909,
                "end_time": 70.28636363636363,
                "pitch": 41,
                "velocity": 51,
                "duration": 0.2522727272727252,
                "tempo": 120.0
            },
            {
                "start_time": 70.30227272727272,
                "end_time": 70.55454545454545,
                "pitch": 34,
                "velocity": 51,
                "duration": 0.2522727272727252,
                "tempo": 120.0
            },
            {
                "start_time": 70.57045454545454,
                "end_time": 70.82272727272726,
                "pitch": 34,
                "velocity": 51,
                "duration": 0.2522727272727252,
                "tempo": 120.0
            },
            {
                "start_time": 70.83863636363635,
                "end_time": 70.95681818181818,
                "pitch": 34,
                "velocity": 51,
                "duration": 0.11818181818182438,
                "tempo": 120.0
            },
            {
                "start_time": 70.97272727272727,
                "end_time": 71.0909090909091,
                "pitch": 34,
                "velocity": 51,
                "duration": 0.11818181818182438,
                "tempo": 120.0
            },
            {
                "start_time": 71.10681818181818,
                "end_time": 71.22272727272727,
                "pitch": 34,
                "velocity": 51,
                "duration": 0.11590909090908497,
                "tempo": 120.0
            },
            {
                "start_time": 71.24090909090908,
                "end_time": 71.35681818181818,
                "pitch": 34,
                "velocity": 51,
                "duration": 0.11590909090909918,
                "tempo": 120.0
            },
            {
                "start_time": 71.37272727272727,
                "end_time": 71.625,
                "pitch": 46,
                "velocity": 51,
                "duration": 0.2522727272727252,
                "tempo": 120.0
            },
            {
                "start_time": 71.64318181818182,
                "end_time": 71.7590909090909,
                "pitch": 44,
                "velocity": 51,
                "duration": 0.11590909090908497,
                "tempo": 120.0
            },
            {
                "start_time": 71.77727272727273,
                "end_time": 72.02727272727272,
                "pitch": 44,
                "velocity": 51,
                "duration": 0.2499999999999858,
                "tempo": 120.0
            },
            {
                "start_time": 72.04318181818182,
                "end_time": 72.1590909090909,
                "pitch": 46,
                "velocity": 51,
                "duration": 0.11590909090908497,
                "tempo": 120.0
            },
            {
                "start_time": 72.17727272727272,
                "end_time": 72.42727272727272,
                "pitch": 34,
                "velocity": 51,
                "duration": 0.25,
                "tempo": 120.0
            },
            {
                "start_time": 72.44545454545454,
                "end_time": 72.56136363636364,
                "pitch": 34,
                "velocity": 51,
                "duration": 0.11590909090909918,
                "tempo": 120.0
            },
            {
                "start_time": 72.57954545454545,
                "end_time": 72.69545454545454,
                "pitch": 34,
                "velocity": 51,
                "duration": 0.11590909090908497,
                "tempo": 120.0
            },
            {
                "start_time": 72.71363636363635,
                "end_time": 72.83181818181818,
                "pitch": 34,
                "velocity": 51,
                "duration": 0.11818181818182438,
                "tempo": 120.0
            },
            {
                "start_time": 72.84772727272727,
                "end_time": 72.9659090909091,
                "pitch": 34,
                "velocity": 51,
                "duration": 0.11818181818182438,
                "tempo": 120.0
            },
            {
                "start_time": 72.98181818181818,
                "end_time": 73.23181818181818,
                "pitch": 42,
                "velocity": 51,
                "duration": 0.25,
                "tempo": 120.0
            },
            {
                "start_time": 73.24772727272727,
                "end_time": 73.36590909090908,
                "pitch": 44,
                "velocity": 51,
                "duration": 0.11818181818181017,
                "tempo": 120.0
            },
            {
                "start_time": 73.38181818181818,
                "end_time": 73.50227272727273,
                "pitch": 44,
                "velocity": 51,
                "duration": 0.12045454545454959,
                "tempo": 120.0
            },
            {
                "start_time": 73.51818181818182,
                "end_time": 73.63863636363637,
                "pitch": 34,
                "velocity": 51,
                "duration": 0.12045454545454959,
                "tempo": 120.0
            },
            {
                "start_time": 73.65454545454546,
                "end_time": 73.77499999999999,
                "pitch": 34,
                "velocity": 51,
                "duration": 0.12045454545453538,
                "tempo": 120.0
            },
            {
                "start_time": 73.79318181818182,
                "end_time": 74.03863636363636,
                "pitch": 34,
                "velocity": 51,
                "duration": 0.24545454545453538,
                "tempo": 120.0
            },
            {
                "start_time": 74.05454545454545,
                "end_time": 74.16818181818182,
                "pitch": 34,
                "velocity": 51,
                "duration": 0.11363636363637397,
                "tempo": 120.0
            },
            {
                "start_time": 74.18409090909091,
                "end_time": 74.30227272727272,
                "pitch": 34,
                "velocity": 51,
                "duration": 0.11818181818181017,
                "tempo": 120.0
            },
            {
                "start_time": 74.31818181818181,
                "end_time": 74.43636363636364,
                "pitch": 34,
                "velocity": 51,
                "duration": 0.11818181818182438,
                "tempo": 120.0
            },
            {
                "start_time": 74.45227272727273,
                "end_time": 74.57045454545454,
                "pitch": 34,
                "velocity": 51,
                "duration": 0.11818181818181017,
                "tempo": 120.0
            },
            {
                "start_time": 74.58636363636363,
                "end_time": 74.83863636363635,
                "pitch": 46,
                "velocity": 51,
                "duration": 0.2522727272727252,
                "tempo": 120.0
            },
            {
                "start_time": 74.85681818181818,
                "end_time": 74.97272727272727,
                "pitch": 44,
                "velocity": 51,
                "duration": 0.11590909090908497,
                "tempo": 120.0
            },
            {
                "start_time": 74.99090909090908,
                "end_time": 75.24090909090908,
                "pitch": 44,
                "velocity": 51,
                "duration": 0.25,
                "tempo": 120.0
            },
            {
                "start_time": 75.25681818181818,
                "end_time": 75.37272727272727,
                "pitch": 46,
                "velocity": 51,
                "duration": 0.11590909090909918,
                "tempo": 120.0
            },
            {
                "start_time": 75.39090909090909,
                "end_time": 75.64090909090909,
                "pitch": 34,
                "velocity": 51,
                "duration": 0.25,
                "tempo": 120.0
            },
            {
                "start_time": 75.6590909090909,
                "end_time": 75.77499999999999,
                "pitch": 34,
                "velocity": 51,
                "duration": 0.11590909090908497,
                "tempo": 120.0
            },
            {
                "start_time": 75.79318181818182,
                "end_time": 75.9090909090909,
                "pitch": 34,
                "velocity": 51,
                "duration": 0.11590909090908497,
                "tempo": 120.0
            },
            {
                "start_time": 75.925,
                "end_time": 76.04318181818182,
                "pitch": 34,
                "velocity": 51,
                "duration": 0.11818181818182438,
                "tempo": 120.0
            },
            {
                "start_time": 76.05909090909091,
                "end_time": 76.175,
                "pitch": 34,
                "velocity": 51,
                "duration": 0.11590909090908497,
                "tempo": 120.0
            },
            {
                "start_time": 76.19318181818181,
                "end_time": 76.44318181818181,
                "pitch": 42,
                "velocity": 51,
                "duration": 0.25,
                "tempo": 120.0
            },
            {
                "start_time": 76.46136363636363,
                "end_time": 76.57954545454545,
                "pitch": 44,
                "velocity": 51,
                "duration": 0.11818181818182438,
                "tempo": 120.0
            },
            {
                "start_time": 76.59545454545454,
                "end_time": 76.71363636363635,
                "pitch": 44,
                "velocity": 51,
                "duration": 0.11818181818181017,
                "tempo": 120.0
            },
            {
                "start_time": 76.72954545454544,
                "end_time": 76.84772727272727,
                "pitch": 34,
                "velocity": 51,
                "duration": 0.11818181818182438,
                "tempo": 120.0
            },
            {
                "start_time": 76.86363636363636,
                "end_time": 76.98181818181818,
                "pitch": 34,
                "velocity": 51,
                "duration": 0.11818181818182438,
                "tempo": 120.0
            },
            {
                "start_time": 76.99772727272727,
                "end_time": 77.25454545454545,
                "pitch": 44,
                "velocity": 51,
                "duration": 0.2568181818181756,
                "tempo": 120.0
            },
            {
                "start_time": 77.27272727272727,
                "end_time": 77.39090909090909,
                "pitch": 44,
                "velocity": 51,
                "duration": 0.11818181818182438,
                "tempo": 120.0
            },
            {
                "start_time": 77.4090909090909,
                "end_time": 77.52272727272727,
                "pitch": 44,
                "velocity": 51,
                "duration": 0.11363636363635976,
                "tempo": 120.0
            },
            {
                "start_time": 77.53863636363636,
                "end_time": 77.65454545454546,
                "pitch": 44,
                "velocity": 51,
                "duration": 0.11590909090909918,
                "tempo": 120.0
            },
            {
                "start_time": 77.67045454545455,
                "end_time": 77.7840909090909,
                "pitch": 44,
                "velocity": 51,
                "duration": 0.11363636363635976,
                "tempo": 120.0
            },
            {
                "start_time": 77.8,
                "end_time": 78.05,
                "pitch": 44,
                "velocity": 51,
                "duration": 0.25,
                "tempo": 120.0
            },
            {
                "start_time": 78.06818181818181,
                "end_time": 78.18409090909091,
                "pitch": 44,
                "velocity": 51,
                "duration": 0.11590909090909918,
                "tempo": 120.0
            },
            {
                "start_time": 78.2,
                "end_time": 78.31818181818181,
                "pitch": 44,
                "velocity": 51,
                "duration": 0.11818181818181017,
                "tempo": 120.0
            },
            {
                "start_time": 78.3340909090909,
                "end_time": 78.45227272727273,
                "pitch": 44,
                "velocity": 51,
                "duration": 0.11818181818182438,
                "tempo": 120.0
            },
            {
                "start_time": 78.47045454545454,
                "end_time": 78.58636363636363,
                "pitch": 44,
                "velocity": 51,
                "duration": 0.11590909090908497,
                "tempo": 120.0
            },
            {
                "start_time": 78.60454545454544,
                "end_time": 78.85454545454544,
                "pitch": 44,
                "velocity": 51,
                "duration": 0.25,
                "tempo": 120.0
            },
            {
                "start_time": 78.87272727272727,
                "end_time": 78.98863636363636,
                "pitch": 44,
                "velocity": 51,
                "duration": 0.11590909090908497,
                "tempo": 120.0
            },
            {
                "start_time": 79.00681818181818,
                "end_time": 79.12272727272727,
                "pitch": 44,
                "velocity": 51,
                "duration": 0.11590909090909918,
                "tempo": 120.0
            },
            {
                "start_time": 79.13863636363637,
                "end_time": 79.25681818181818,
                "pitch": 44,
                "velocity": 51,
                "duration": 0.11818181818181017,
                "tempo": 120.0
            },
            {
                "start_time": 79.27272727272727,
                "end_time": 79.38863636363637,
                "pitch": 44,
                "velocity": 51,
                "duration": 0.11590909090909918,
                "tempo": 120.0
            },
            {
                "start_time": 79.40681818181818,
                "end_time": 79.65681818181818,
                "pitch": 44,
                "velocity": 51,
                "duration": 0.25,
                "tempo": 120.0
            },
            {
                "start_time": 79.675,
                "end_time": 79.79318181818181,
                "pitch": 44,
                "velocity": 51,
                "duration": 0.11818181818181017,
                "tempo": 120.0
            },
            {
                "start_time": 79.80909090909091,
                "end_time": 79.925,
                "pitch": 44,
                "velocity": 51,
                "duration": 0.11590909090908497,
                "tempo": 120.0
            },
            {
                "start_time": 79.94318181818181,
                "end_time": 80.05909090909091,
                "pitch": 44,
                "velocity": 51,
                "duration": 0.11590909090909918,
                "tempo": 120.0
            },
            {
                "start_time": 80.075,
                "end_time": 80.19318181818181,
                "pitch": 44,
                "velocity": 51,
                "duration": 0.11818181818181017,
                "tempo": 120.0
            },
            {
                "start_time": 80.2090909090909,
                "end_time": 80.32727272727273,
                "pitch": 41,
                "velocity": 51,
                "duration": 0.11818181818182438,
                "tempo": 120.0
            },
            {
                "start_time": 80.34318181818182,
                "end_time": 80.46136363636363,
                "pitch": 41,
                "velocity": 51,
                "duration": 0.11818181818181017,
                "tempo": 120.0
            },
            {
                "start_time": 80.47727272727272,
                "end_time": 80.59545454545454,
                "pitch": 41,
                "velocity": 51,
                "duration": 0.11818181818182438,
                "tempo": 120.0
            },
            {
                "start_time": 80.61136363636363,
                "end_time": 80.72954545454544,
                "pitch": 42,
                "velocity": 51,
                "duration": 0.11818181818181017,
                "tempo": 120.0
            },
            {
                "start_time": 80.74545454545454,
                "end_time": 80.86363636363636,
                "pitch": 41,
                "velocity": 51,
                "duration": 0.11818181818182438,
                "tempo": 120.0
            },
            {
                "start_time": 80.87954545454545,
                "end_time": 80.99772727272727,
                "pitch": 41,
                "velocity": 51,
                "duration": 0.11818181818182438,
                "tempo": 120.0
            },
            {
                "start_time": 81.01363636363637,
                "end_time": 81.13181818181818,
                "pitch": 44,
                "velocity": 51,
                "duration": 0.11818181818181017,
                "tempo": 120.0
            },
            {
                "start_time": 81.14772727272727,
                "end_time": 81.26363636363637,
                "pitch": 42,
                "velocity": 51,
                "duration": 0.11590909090909918,
                "tempo": 120.0
            },
            {
                "start_time": 81.28181818181818,
                "end_time": 81.39772727272727,
                "pitch": 41,
                "velocity": 51,
                "duration": 0.11590909090908497,
                "tempo": 120.0
            },
            {
                "start_time": 81.41363636363636,
                "end_time": 81.53181818181818,
                "pitch": 46,
                "velocity": 51,
                "duration": 0.11818181818182438,
                "tempo": 120.0
            },
            {
                "start_time": 81.54772727272727,
                "end_time": 81.66590909090908,
                "pitch": 44,
                "velocity": 51,
                "duration": 0.11818181818181017,
                "tempo": 120.0
            },
            {
                "start_time": 81.68181818181817,
                "end_time": 81.8,
                "pitch": 42,
                "velocity": 51,
                "duration": 0.11818181818182438,
                "tempo": 120.0
            },
            {
                "start_time": 81.81590909090909,
                "end_time": 81.93409090909091,
                "pitch": 41,
                "velocity": 51,
                "duration": 0.11818181818182438,
                "tempo": 120.0
            },
            {
                "start_time": 81.95,
                "end_time": 82.06590909090909,
                "pitch": 41,
                "velocity": 51,
                "duration": 0.11590909090908497,
                "tempo": 120.0
            },
            {
                "start_time": 82.0840909090909,
                "end_time": 82.2,
                "pitch": 41,
                "velocity": 51,
                "duration": 0.11590909090909918,
                "tempo": 120.0
            },
            {
                "start_time": 82.2159090909091,
                "end_time": 82.3340909090909,
                "pitch": 42,
                "velocity": 51,
                "duration": 0.11818181818181017,
                "tempo": 120.0
            },
            {
                "start_time": 82.35227272727272,
                "end_time": 82.46818181818182,
                "pitch": 41,
                "velocity": 51,
                "duration": 0.11590909090909918,
                "tempo": 120.0
            },
            {
                "start_time": 82.48636363636363,
                "end_time": 82.60227272727272,
                "pitch": 41,
                "velocity": 51,
                "duration": 0.11590909090908497,
                "tempo": 120.0
            },
            {
                "start_time": 82.62045454545454,
                "end_time": 82.73636363636363,
                "pitch": 44,
                "velocity": 51,
                "duration": 0.11590909090909918,
                "tempo": 120.0
            },
            {
                "start_time": 82.75454545454545,
                "end_time": 82.87045454545454,
                "pitch": 42,
                "velocity": 51,
                "duration": 0.11590909090908497,
                "tempo": 120.0
            },
            {
                "start_time": 82.88863636363637,
                "end_time": 83.00454545454545,
                "pitch": 41,
                "velocity": 51,
                "duration": 0.11590909090908497,
                "tempo": 120.0
            },
            {
                "start_time": 83.02272727272727,
                "end_time": 83.13863636363637,
                "pitch": 49,
                "velocity": 51,
                "duration": 0.11590909090909918,
                "tempo": 120.0
            },
            {
                "start_time": 83.15681818181818,
                "end_time": 83.27272727272727,
                "pitch": 48,
                "velocity": 51,
                "duration": 0.11590909090908497,
                "tempo": 120.0
            },
            {
                "start_time": 83.28863636363636,
                "end_time": 83.40681818181818,
                "pitch": 42,
                "velocity": 51,
                "duration": 0.11818181818182438,
                "tempo": 120.0
            },
            {
                "start_time": 83.42272727272727,
                "end_time": 83.54090909090908,
                "pitch": 41,
                "velocity": 51,
                "duration": 0.11818181818181017,
                "tempo": 120.0
            },
            {
                "start_time": 83.55681818181817,
                "end_time": 83.675,
                "pitch": 41,
                "velocity": 51,
                "duration": 0.11818181818182438,
                "tempo": 120.0
            },
            {
                "start_time": 83.69090909090909,
                "end_time": 83.8090909090909,
                "pitch": 41,
                "velocity": 51,
                "duration": 0.11818181818181017,
                "tempo": 120.0
            },
            {
                "start_time": 83.825,
                "end_time": 83.94090909090909,
                "pitch": 42,
                "velocity": 51,
                "duration": 0.11590909090908497,
                "tempo": 120.0
            },
            {
                "start_time": 83.9590909090909,
                "end_time": 84.075,
                "pitch": 41,
                "velocity": 51,
                "duration": 0.11590909090909918,
                "tempo": 120.0
            },
            {
                "start_time": 84.0909090909091,
                "end_time": 84.2090909090909,
                "pitch": 41,
                "velocity": 51,
                "duration": 0.11818181818181017,
                "tempo": 120.0
            },
            {
                "start_time": 84.225,
                "end_time": 84.34318181818182,
                "pitch": 44,
                "velocity": 51,
                "duration": 0.11818181818182438,
                "tempo": 120.0
            },
            {
                "start_time": 84.35909090909091,
                "end_time": 84.47727272727272,
                "pitch": 42,
                "velocity": 51,
                "duration": 0.11818181818181017,
                "tempo": 120.0
            },
            {
                "start_time": 84.49318181818181,
                "end_time": 84.61136363636363,
                "pitch": 41,
                "velocity": 51,
                "duration": 0.11818181818182438,
                "tempo": 120.0
            },
            {
                "start_time": 84.62727272727273,
                "end_time": 84.74545454545454,
                "pitch": 46,
                "velocity": 51,
                "duration": 0.11818181818181017,
                "tempo": 120.0
            },
            {
                "start_time": 84.76136363636363,
                "end_time": 84.87954545454545,
                "pitch": 44,
                "velocity": 51,
                "duration": 0.11818181818182438,
                "tempo": 120.0
            },
            {
                "start_time": 84.89545454545454,
                "end_time": 85.01363636363637,
                "pitch": 42,
                "velocity": 51,
                "duration": 0.11818181818182438,
                "tempo": 120.0
            },
            {
                "start_time": 85.02954545454546,
                "end_time": 85.14772727272727,
                "pitch": 41,
                "velocity": 51,
                "duration": 0.11818181818181017,
                "tempo": 120.0
            },
            {
                "start_time": 85.16363636363636,
                "end_time": 85.27954545454546,
                "pitch": 42,
                "velocity": 51,
                "duration": 0.11590909090909918,
                "tempo": 120.0
            },
            {
                "start_time": 85.29772727272727,
                "end_time": 85.41363636363636,
                "pitch": 44,
                "velocity": 51,
                "duration": 0.11590909090908497,
                "tempo": 120.0
            },
            {
                "start_time": 85.42954545454545,
                "end_time": 85.54772727272727,
                "pitch": 46,
                "velocity": 51,
                "duration": 0.11818181818182438,
                "tempo": 120.0
            },
            {
                "start_time": 85.56363636363636,
                "end_time": 85.68181818181817,
                "pitch": 48,
                "velocity": 51,
                "duration": 0.11818181818181017,
                "tempo": 120.0
            },
            {
                "start_time": 85.7,
                "end_time": 85.81590909090909,
                "pitch": 49,
                "velocity": 51,
                "duration": 0.11590909090908497,
                "tempo": 120.0
            },
            {
                "start_time": 85.8340909090909,
                "end_time": 86.0840909090909,
                "pitch": 51,
                "velocity": 51,
                "duration": 0.25,
                "tempo": 120.0
            },
            {
                "start_time": 86.1,
                "end_time": 86.35,
                "pitch": 53,
                "velocity": 51,
                "duration": 0.25,
                "tempo": 120.0
            },
            {
                "start_time": 86.36818181818181,
                "end_time": 86.61818181818181,
                "pitch": 54,
                "velocity": 51,
                "duration": 0.25,
                "tempo": 120.0
            },
            {
                "start_time": 86.63636363636363,
                "end_time": 86.75227272727273,
                "pitch": 41,
                "velocity": 51,
                "duration": 0.11590909090909918,
                "tempo": 120.0
            },
            {
                "start_time": 86.77045454545454,
                "end_time": 86.88636363636363,
                "pitch": 41,
                "velocity": 51,
                "duration": 0.11590909090908497,
                "tempo": 120.0
            },
            {
                "start_time": 86.90454545454546,
                "end_time": 87.02272727272727,
                "pitch": 41,
                "velocity": 51,
                "duration": 0.11818181818181017,
                "tempo": 120.0
            },
            {
                "start_time": 87.03863636363636,
                "end_time": 87.15454545454546,
                "pitch": 42,
                "velocity": 51,
                "duration": 0.11590909090909918,
                "tempo": 120.0
            },
            {
                "start_time": 87.17272727272727,
                "end_time": 87.28863636363636,
                "pitch": 41,
                "velocity": 51,
                "duration": 0.11590909090908497,
                "tempo": 120.0
            },
            {
                "start_time": 87.30454545454545,
                "end_time": 87.42272727272727,
                "pitch": 41,
                "velocity": 51,
                "duration": 0.11818181818182438,
                "tempo": 120.0
            },
            {
                "start_time": 87.43863636363636,
                "end_time": 87.55681818181817,
                "pitch": 44,
                "velocity": 51,
                "duration": 0.11818181818181017,
                "tempo": 120.0
            },
            {
                "start_time": 87.57272727272726,
                "end_time": 87.69090909090909,
                "pitch": 42,
                "velocity": 51,
                "duration": 0.11818181818182438,
                "tempo": 120.0
            },
            {
                "start_time": 87.70681818181818,
                "end_time": 87.82499999999999,
                "pitch": 41,
                "velocity": 51,
                "duration": 0.11818181818181017,
                "tempo": 120.0
            },
            {
                "start_time": 87.8409090909091,
                "end_time": 87.95681818181818,
                "pitch": 46,
                "velocity": 51,
                "duration": 0.11590909090908497,
                "tempo": 120.0
            },
            {
                "start_time": 87.975,
                "end_time": 88.0909090909091,
                "pitch": 44,
                "velocity": 51,
                "duration": 0.11590909090909918,
                "tempo": 120.0
            },
            {
                "start_time": 88.10681818181818,
                "end_time": 88.225,
                "pitch": 42,
                "velocity": 51,
                "duration": 0.11818181818181017,
                "tempo": 120.0
            },
            {
                "start_time": 88.24090909090908,
                "end_time": 88.35909090909091,
                "pitch": 41,
                "velocity": 51,
                "duration": 0.11818181818182438,
                "tempo": 120.0
            },
            {
                "start_time": 88.375,
                "end_time": 88.49318181818181,
                "pitch": 41,
                "velocity": 51,
                "duration": 0.11818181818181017,
                "tempo": 120.0
            },
            {
                "start_time": 88.5090909090909,
                "end_time": 88.62727272727273,
                "pitch": 41,
                "velocity": 51,
                "duration": 0.11818181818182438,
                "tempo": 120.0
            },
            {
                "start_time": 88.64318181818182,
                "end_time": 88.76136363636363,
                "pitch": 42,
                "velocity": 51,
                "duration": 0.11818181818181017,
                "tempo": 120.0
            },
            {
                "start_time": 88.77727272727272,
                "end_time": 88.89545454545454,
                "pitch": 41,
                "velocity": 51,
                "duration": 0.11818181818182438,
                "tempo": 120.0
            },
            {
                "start_time": 88.91136363636363,
                "end_time": 89.02954545454546,
                "pitch": 41,
                "velocity": 51,
                "duration": 0.11818181818182438,
                "tempo": 120.0
            },
            {
                "start_time": 89.04545454545455,
                "end_time": 89.16363636363636,
                "pitch": 44,
                "velocity": 51,
                "duration": 0.11818181818181017,
                "tempo": 120.0
            },
            {
                "start_time": 89.17954545454545,
                "end_time": 89.29545454545455,
                "pitch": 42,
                "velocity": 51,
                "duration": 0.11590909090909918,
                "tempo": 120.0
            },
            {
                "start_time": 89.31363636363636,
                "end_time": 89.42954545454545,
                "pitch": 41,
                "velocity": 51,
                "duration": 0.11590909090908497,
                "tempo": 120.0
            },
            {
                "start_time": 89.44545454545454,
                "end_time": 89.56363636363636,
                "pitch": 49,
                "velocity": 51,
                "duration": 0.11818181818182438,
                "tempo": 120.0
            },
            {
                "start_time": 89.58181818181818,
                "end_time": 89.69772727272726,
                "pitch": 48,
                "velocity": 51,
                "duration": 0.11590909090908497,
                "tempo": 120.0
            },
            {
                "start_time": 89.7159090909091,
                "end_time": 89.83181818181818,
                "pitch": 46,
                "velocity": 51,
                "duration": 0.11590909090908497,
                "tempo": 120.0
            },
            {
                "start_time": 89.85,
                "end_time": 89.9659090909091,
                "pitch": 41,
                "velocity": 51,
                "duration": 0.11590909090909918,
                "tempo": 120.0
            },
            {
                "start_time": 89.98181818181818,
                "end_time": 90.1,
                "pitch": 41,
                "velocity": 51,
                "duration": 0.11818181818181017,
                "tempo": 120.0
            },
            {
                "start_time": 90.11590909090908,
                "end_time": 90.23181818181818,
                "pitch": 41,
                "velocity": 51,
                "duration": 0.11590909090909918,
                "tempo": 120.0
            },
            {
                "start_time": 90.25,
                "end_time": 90.36590909090908,
                "pitch": 42,
                "velocity": 51,
                "duration": 0.11590909090908497,
                "tempo": 120.0
            },
            {
                "start_time": 90.3840909090909,
                "end_time": 90.5,
                "pitch": 41,
                "velocity": 51,
                "duration": 0.11590909090909918,
                "tempo": 120.0
            },
            {
                "start_time": 90.51818181818182,
                "end_time": 90.6340909090909,
                "pitch": 41,
                "velocity": 51,
                "duration": 0.11590909090908497,
                "tempo": 120.0
            },
            {
                "start_time": 90.65227272727272,
                "end_time": 90.77045454545454,
                "pitch": 44,
                "velocity": 51,
                "duration": 0.11818181818182438,
                "tempo": 120.0
            },
            {
                "start_time": 90.78636363636363,
                "end_time": 90.90454545454546,
                "pitch": 42,
                "velocity": 51,
                "duration": 0.11818181818182438,
                "tempo": 120.0
            },
            {
                "start_time": 90.92045454545455,
                "end_time": 91.03863636363636,
                "pitch": 41,
                "velocity": 51,
                "duration": 0.11818181818181017,
                "tempo": 120.0
            },
            {
                "start_time": 91.05454545454545,
                "end_time": 91.17045454545455,
                "pitch": 46,
                "velocity": 51,
                "duration": 0.11590909090909918,
                "tempo": 120.0
            },
            {
                "start_time": 91.18863636363636,
                "end_time": 91.30454545454545,
                "pitch": 44,
                "velocity": 51,
                "duration": 0.11590909090908497,
                "tempo": 120.0
            },
            {
                "start_time": 91.32045454545454,
                "end_time": 91.43863636363636,
                "pitch": 42,
                "velocity": 51,
                "duration": 0.11818181818182438,
                "tempo": 120.0
            },
            {
                "start_time": 91.45454545454545,
                "end_time": 91.70681818181818,
                "pitch": 41,
                "velocity": 51,
                "duration": 0.2522727272727252,
                "tempo": 120.0
            },
            {
                "start_time": 91.72272727272727,
                "end_time": 91.8409090909091,
                "pitch": 41,
                "velocity": 51,
                "duration": 0.11818181818182438,
                "tempo": 120.0
            },
            {
                "start_time": 91.85681818181818,
                "end_time": 91.975,
                "pitch": 41,
                "velocity": 51,
                "duration": 0.11818181818181017,
                "tempo": 120.0
            },
            {
                "start_time": 91.99090909090908,
                "end_time": 92.10681818181818,
                "pitch": 41,
                "velocity": 51,
                "duration": 0.11590909090909918,
                "tempo": 120.0
            },
            {
                "start_time": 92.125,
                "end_time": 92.24090909090908,
                "pitch": 41,
                "velocity": 51,
                "duration": 0.11590909090908497,
                "tempo": 120.0
            },
            {
                "start_time": 92.25681818181818,
                "end_time": 92.5090909090909,
                "pitch": 41,
                "velocity": 51,
                "duration": 0.2522727272727252,
                "tempo": 120.0
            },
            {
                "start_time": 92.52499999999999,
                "end_time": 92.64318181818182,
                "pitch": 41,
                "velocity": 51,
                "duration": 0.11818181818182438,
                "tempo": 120.0
            },
            {
                "start_time": 92.6590909090909,
                "end_time": 92.77727272727272,
                "pitch": 41,
                "velocity": 51,
                "duration": 0.11818181818181017,
                "tempo": 120.0
            },
            {
                "start_time": 92.79318181818181,
                "end_time": 92.91136363636363,
                "pitch": 41,
                "velocity": 51,
                "duration": 0.11818181818182438,
                "tempo": 120.0
            },
            {
                "start_time": 92.92954545454545,
                "end_time": 93.04545454545455,
                "pitch": 41,
                "velocity": 51,
                "duration": 0.11590909090909918,
                "tempo": 120.0
            },
            {
                "start_time": 93.06363636363636,
                "end_time": 93.31363636363636,
                "pitch": 36,
                "velocity": 51,
                "duration": 0.25,
                "tempo": 120.0
            },
            {
                "start_time": 93.32954545454545,
                "end_time": 93.44545454545454,
                "pitch": 36,
                "velocity": 51,
                "duration": 0.11590909090908497,
                "tempo": 120.0
            },
            {
                "start_time": 93.46363636363635,
                "end_time": 93.57954545454545,
                "pitch": 36,
                "velocity": 51,
                "duration": 0.11590909090909918,
                "tempo": 120.0
            },
            {
                "start_time": 93.59772727272727,
                "end_time": 93.71363636363635,
                "pitch": 36,
                "velocity": 51,
                "duration": 0.11590909090908497,
                "tempo": 120.0
            },
            {
                "start_time": 93.73181818181818,
                "end_time": 93.84772727272727,
                "pitch": 36,
                "velocity": 51,
                "duration": 0.11590909090908497,
                "tempo": 120.0
            },
            {
                "start_time": 93.86590909090908,
                "end_time": 94.11590909090908,
                "pitch": 36,
                "velocity": 51,
                "duration": 0.25,
                "tempo": 120.0
            },
            {
                "start_time": 94.13181818181818,
                "end_time": 94.24772727272727,
                "pitch": 36,
                "velocity": 51,
                "duration": 0.11590909090909918,
                "tempo": 120.0
            },
            {
                "start_time": 94.26590909090909,
                "end_time": 94.38181818181818,
                "pitch": 36,
                "velocity": 51,
                "duration": 0.11590909090908497,
                "tempo": 120.0
            },
            {
                "start_time": 94.39999999999999,
                "end_time": 94.51590909090909,
                "pitch": 36,
                "velocity": 51,
                "duration": 0.11590909090909918,
                "tempo": 120.0
            },
            {
                "start_time": 94.5340909090909,
                "end_time": 94.65227272727272,
                "pitch": 36,
                "velocity": 51,
                "duration": 0.11818181818181017,
                "tempo": 120.0
            },
            {
                "start_time": 94.66818181818181,
                "end_time": 94.92045454545455,
                "pitch": 41,
                "velocity": 51,
                "duration": 0.2522727272727394,
                "tempo": 120.0
            },
            {
                "start_time": 94.93636363636364,
                "end_time": 95.05454545454545,
                "pitch": 41,
                "velocity": 51,
                "duration": 0.11818181818181017,
                "tempo": 120.0
            },
            {
                "start_time": 95.07045454545454,
                "end_time": 95.18636363636364,
                "pitch": 41,
                "velocity": 51,
                "duration": 0.11590909090909918,
                "tempo": 120.0
            },
            {
                "start_time": 95.20454545454545,
                "end_time": 95.32045454545454,
                "pitch": 41,
                "velocity": 51,
                "duration": 0.11590909090908497,
                "tempo": 120.0
            },
            {
                "start_time": 95.33636363636363,
                "end_time": 95.45454545454545,
                "pitch": 41,
                "velocity": 51,
                "duration": 0.11818181818182438,
                "tempo": 120.0
            },
            {
                "start_time": 95.47045454545454,
                "end_time": 95.72272727272727,
                "pitch": 41,
                "velocity": 51,
                "duration": 0.2522727272727252,
                "tempo": 120.0
            },
            {
                "start_time": 95.73863636363636,
                "end_time": 95.85681818181818,
                "pitch": 41,
                "velocity": 51,
                "duration": 0.11818181818182438,
                "tempo": 120.0
            },
            {
                "start_time": 95.87272727272727,
                "end_time": 95.99090909090908,
                "pitch": 41,
                "velocity": 51,
                "duration": 0.11818181818181017,
                "tempo": 120.0
            },
            {
                "start_time": 96.00681818181818,
                "end_time": 96.12272727272727,
                "pitch": 41,
                "velocity": 51,
                "duration": 0.11590909090909918,
                "tempo": 120.0
            },
            {
                "start_time": 96.14090909090909,
                "end_time": 96.25681818181818,
                "pitch": 41,
                "velocity": 51,
                "duration": 0.11590909090908497,
                "tempo": 120.0
            },
            {
                "start_time": 96.27272727272727,
                "end_time": 96.52499999999999,
                "pitch": 42,
                "velocity": 51,
                "duration": 0.2522727272727252,
                "tempo": 120.0
            },
            {
                "start_time": 96.54090909090908,
                "end_time": 96.6590909090909,
                "pitch": 42,
                "velocity": 51,
                "duration": 0.11818181818182438,
                "tempo": 120.0
            },
            {
                "start_time": 96.675,
                "end_time": 96.79318181818181,
                "pitch": 42,
                "velocity": 51,
                "duration": 0.11818181818181017,
                "tempo": 120.0
            },
            {
                "start_time": 96.81136363636364,
                "end_time": 96.92727272727272,
                "pitch": 42,
                "velocity": 51,
                "duration": 0.11590909090908497,
                "tempo": 120.0
            },
            {
                "start_time": 96.94545454545454,
                "end_time": 97.06136363636364,
                "pitch": 42,
                "velocity": 51,
                "duration": 0.11590909090909918,
                "tempo": 120.0
            },
            {
                "start_time": 97.07954545454545,
                "end_time": 97.32954545454545,
                "pitch": 42,
                "velocity": 51,
                "duration": 0.25,
                "tempo": 120.0
            },
            {
                "start_time": 97.34545454545454,
                "end_time": 97.46136363636363,
                "pitch": 42,
                "velocity": 51,
                "duration": 0.11590909090908497,
                "tempo": 120.0
            },
            {
                "start_time": 97.47954545454544,
                "end_time": 97.59545454545454,
                "pitch": 42,
                "velocity": 51,
                "duration": 0.11590909090909918,
                "tempo": 120.0
            },
            {
                "start_time": 97.61363636363636,
                "end_time": 97.72954545454544,
                "pitch": 42,
                "velocity": 51,
                "duration": 0.11590909090908497,
                "tempo": 120.0
            },
            {
                "start_time": 97.74772727272727,
                "end_time": 97.86363636363636,
                "pitch": 42,
                "velocity": 51,
                "duration": 0.11590909090908497,
                "tempo": 120.0
            },
            {
                "start_time": 97.88181818181818,
                "end_time": 98.13181818181818,
                "pitch": 39,
                "velocity": 51,
                "duration": 0.25,
                "tempo": 120.0
            },
            {
                "start_time": 98.14772727272727,
                "end_time": 98.26590909090909,
                "pitch": 39,
                "velocity": 51,
                "duration": 0.11818181818182438,
                "tempo": 120.0
            },
            {
                "start_time": 98.28181818181818,
                "end_time": 98.39999999999999,
                "pitch": 39,
                "velocity": 51,
                "duration": 0.11818181818181017,
                "tempo": 120.0
            },
            {
                "start_time": 98.41590909090908,
                "end_time": 98.5340909090909,
                "pitch": 39,
                "velocity": 51,
                "duration": 0.11818181818182438,
                "tempo": 120.0
            },
            {
                "start_time": 98.55,
                "end_time": 98.66818181818181,
                "pitch": 39,
                "velocity": 51,
                "duration": 0.11818181818181017,
                "tempo": 120.0
            },
            {
                "start_time": 98.6840909090909,
                "end_time": 98.80227272727272,
                "pitch": 39,
                "velocity": 51,
                "duration": 0.11818181818182438,
                "tempo": 120.0
            },
            {
                "start_time": 98.81818181818181,
                "end_time": 98.93636363636364,
                "pitch": 46,
                "velocity": 51,
                "duration": 0.11818181818182438,
                "tempo": 120.0
            },
            {
                "start_time": 98.95227272727273,
                "end_time": 99.07045454545454,
                "pitch": 49,
                "velocity": 51,
                "duration": 0.11818181818181017,
                "tempo": 120.0
            },
            {
                "start_time": 99.08636363636363,
                "end_time": 99.19999999999999,
                "pitch": 53,
                "velocity": 51,
                "duration": 0.11363636363635976,
                "tempo": 120.0
            },
            {
                "start_time": 99.21818181818182,
                "end_time": 99.33181818181818,
                "pitch": 51,
                "velocity": 51,
                "duration": 0.11363636363635976,
                "tempo": 120.0
            },
            {
                "start_time": 99.34772727272727,
                "end_time": 99.46136363636363,
                "pitch": 49,
                "velocity": 51,
                "duration": 0.11363636363635976,
                "tempo": 120.0
            },
            {
                "start_time": 99.47954545454544,
                "end_time": 99.73636363636363,
                "pitch": 37,
                "velocity": 51,
                "duration": 0.25681818181818983,
                "tempo": 120.0
            },
            {
                "start_time": 99.75227272727273,
                "end_time": 99.87272727272727,
                "pitch": 37,
                "velocity": 51,
                "duration": 0.12045454545454959,
                "tempo": 120.0
            },
            {
                "start_time": 99.88863636363637,
                "end_time": 100.00681818181818,
                "pitch": 37,
                "velocity": 51,
                "duration": 0.11818181818181017,
                "tempo": 120.0
            },
            {
                "start_time": 100.02272727272727,
                "end_time": 100.13863636363637,
                "pitch": 37,
                "velocity": 51,
                "duration": 0.11590909090909918,
                "tempo": 120.0
            },
            {
                "start_time": 100.15681818181818,
                "end_time": 100.27272727272727,
                "pitch": 37,
                "velocity": 51,
                "duration": 0.11590909090908497,
                "tempo": 120.0
            },
            {
                "start_time": 100.28863636363636,
                "end_time": 100.54090909090908,
                "pitch": 37,
                "velocity": 51,
                "duration": 0.2522727272727252,
                "tempo": 120.0
            },
            {
                "start_time": 100.5590909090909,
                "end_time": 100.675,
                "pitch": 37,
                "velocity": 51,
                "duration": 0.11590909090909918,
                "tempo": 120.0
            },
            {
                "start_time": 100.69318181818181,
                "end_time": 100.81136363636364,
                "pitch": 37,
                "velocity": 51,
                "duration": 0.11818181818182438,
                "tempo": 120.0
            },
            {
                "start_time": 100.82954545454545,
                "end_time": 100.94999999999999,
                "pitch": 37,
                "velocity": 51,
                "duration": 0.12045454545453538,
                "tempo": 120.0
            },
            {
                "start_time": 100.96590909090908,
                "end_time": 101.08636363636363,
                "pitch": 37,
                "velocity": 51,
                "duration": 0.12045454545454959,
                "tempo": 120.0
            },
            {
                "start_time": 101.10227272727272,
                "end_time": 101.47954545454544,
                "pitch": 39,
                "velocity": 51,
                "duration": 0.3772727272727252,
                "tempo": 120.0
            },
            {
                "start_time": 101.49545454545454,
                "end_time": 101.88181818181818,
                "pitch": 41,
                "velocity": 51,
                "duration": 0.38636363636364024,
                "tempo": 120.0
            },
            {
                "start_time": 101.89772727272727,
                "end_time": 102.28181818181818,
                "pitch": 42,
                "velocity": 51,
                "duration": 0.38409090909091503,
                "tempo": 120.0
            },
            {
                "start_time": 102.29772727272727,
                "end_time": 102.69090909090909,
                "pitch": 41,
                "velocity": 51,
                "duration": 0.39318181818181586,
                "tempo": 120.0
            },
            {
                "start_time": 102.7090909090909,
                "end_time": 102.95454545454545,
                "pitch": 42,
                "velocity": 51,
                "duration": 0.2454545454545496,
                "tempo": 120.0
            },
            {
                "start_time": 102.97045454545454,
                "end_time": 103.0840909090909,
                "pitch": 42,
                "velocity": 51,
                "duration": 0.11363636363635976,
                "tempo": 120.0
            },
            {
                "start_time": 103.1,
                "end_time": 103.21818181818182,
                "pitch": 42,
                "velocity": 51,
                "duration": 0.11818181818182438,
                "tempo": 120.0
            },
            {
                "start_time": 103.23409090909091,
                "end_time": 103.35,
                "pitch": 42,
                "velocity": 51,
                "duration": 0.11590909090908497,
                "tempo": 120.0
            },
            {
                "start_time": 103.36818181818181,
                "end_time": 103.48409090909091,
                "pitch": 42,
                "velocity": 51,
                "duration": 0.11590909090909918,
                "tempo": 120.0
            },
            {
                "start_time": 103.5,
                "end_time": 103.75227272727273,
                "pitch": 42,
                "velocity": 51,
                "duration": 0.2522727272727252,
                "tempo": 120.0
            },
            {
                "start_time": 103.76818181818182,
                "end_time": 103.88636363636363,
                "pitch": 42,
                "velocity": 51,
                "duration": 0.11818181818181017,
                "tempo": 120.0
            },
            {
                "start_time": 103.90454545454546,
                "end_time": 104.02045454545454,
                "pitch": 42,
                "velocity": 51,
                "duration": 0.11590909090908497,
                "tempo": 120.0
            },
            {
                "start_time": 104.03636363636363,
                "end_time": 104.15454545454546,
                "pitch": 42,
                "velocity": 51,
                "duration": 0.11818181818182438,
                "tempo": 120.0
            },
            {
                "start_time": 104.17045454545455,
                "end_time": 104.28636363636363,
                "pitch": 42,
                "velocity": 51,
                "duration": 0.11590909090908497,
                "tempo": 120.0
            },
            {
                "start_time": 104.30454545454545,
                "end_time": 104.55454545454545,
                "pitch": 39,
                "velocity": 51,
                "duration": 0.25,
                "tempo": 120.0
            },
            {
                "start_time": 104.57272727272726,
                "end_time": 104.68863636363636,
                "pitch": 39,
                "velocity": 51,
                "duration": 0.11590909090909918,
                "tempo": 120.0
            },
            {
                "start_time": 104.70681818181818,
                "end_time": 104.82272727272726,
                "pitch": 39,
                "velocity": 51,
                "duration": 0.11590909090908497,
                "tempo": 120.0
            },
            {
                "start_time": 104.84090909090908,
                "end_time": 104.95681818181818,
                "pitch": 39,
                "velocity": 51,
                "duration": 0.11590909090909918,
                "tempo": 120.0
            },
            {
                "start_time": 104.975,
                "end_time": 105.09318181818182,
                "pitch": 39,
                "velocity": 51,
                "duration": 0.11818181818182438,
                "tempo": 120.0
            },
            {
                "start_time": 105.10909090909091,
                "end_time": 105.225,
                "pitch": 39,
                "velocity": 51,
                "duration": 0.11590909090908497,
                "tempo": 120.0
            },
            {
                "start_time": 105.24318181818181,
                "end_time": 105.35909090909091,
                "pitch": 46,
                "velocity": 51,
                "duration": 0.11590909090909918,
                "tempo": 120.0
            },
            {
                "start_time": 105.375,
                "end_time": 105.49318181818181,
                "pitch": 49,
                "velocity": 51,
                "duration": 0.11818181818181017,
                "tempo": 120.0
            },
            {
                "start_time": 105.5090909090909,
                "end_time": 105.62727272727273,
                "pitch": 53,
                "velocity": 51,
                "duration": 0.11818181818182438,
                "tempo": 120.0
            },
            {
                "start_time": 105.64318181818182,
                "end_time": 105.76136363636363,
                "pitch": 51,
                "velocity": 51,
                "duration": 0.11818181818181017,
                "tempo": 120.0
            },
            {
                "start_time": 105.77727272727272,
                "end_time": 105.89545454545454,
                "pitch": 49,
                "velocity": 51,
                "duration": 0.11818181818182438,
                "tempo": 120.0
            },
            {
                "start_time": 105.91136363636363,
                "end_time": 106.16136363636363,
                "pitch": 37,
                "velocity": 51,
                "duration": 0.25,
                "tempo": 120.0
            },
            {
                "start_time": 106.17727272727272,
                "end_time": 106.29545454545455,
                "pitch": 37,
                "velocity": 51,
                "duration": 0.11818181818182438,
                "tempo": 120.0
            },
            {
                "start_time": 106.31136363636364,
                "end_time": 106.43181818181817,
                "pitch": 37,
                "velocity": 51,
                "duration": 0.12045454545453538,
                "tempo": 120.0
            },
            {
                "start_time": 106.44772727272726,
                "end_time": 106.56818181818181,
                "pitch": 37,
                "velocity": 51,
                "duration": 0.12045454545454959,
                "tempo": 120.0
            },
            {
                "start_time": 106.58636363636363,
                "end_time": 106.70454545454545,
                "pitch": 37,
                "velocity": 51,
                "duration": 0.11818181818182438,
                "tempo": 120.0
            },
            {
                "start_time": 106.72272727272727,
                "end_time": 106.96818181818182,
                "pitch": 37,
                "velocity": 51,
                "duration": 0.2454545454545496,
                "tempo": 120.0
            },
            {
                "start_time": 106.98409090909091,
                "end_time": 107.09772727272727,
                "pitch": 37,
                "velocity": 51,
                "duration": 0.11363636363635976,
                "tempo": 120.0
            },
            {
                "start_time": 107.11363636363636,
                "end_time": 107.23181818181817,
                "pitch": 37,
                "velocity": 51,
                "duration": 0.11818181818181017,
                "tempo": 120.0
            },
            {
                "start_time": 107.24772727272726,
                "end_time": 107.36363636363636,
                "pitch": 37,
                "velocity": 51,
                "duration": 0.11590909090909918,
                "tempo": 120.0
            },
            {
                "start_time": 107.38181818181818,
                "end_time": 107.49772727272726,
                "pitch": 37,
                "velocity": 51,
                "duration": 0.11590909090908497,
                "tempo": 120.0
            },
            {
                "start_time": 107.51363636363637,
                "end_time": 107.76590909090909,
                "pitch": 36,
                "velocity": 51,
                "duration": 0.2522727272727252,
                "tempo": 120.0
            },
            {
                "start_time": 107.78181818181818,
                "end_time": 107.89999999999999,
                "pitch": 36,
                "velocity": 51,
                "duration": 0.11818181818181017,
                "tempo": 120.0
            },
            {
                "start_time": 107.91818181818181,
                "end_time": 108.0340909090909,
                "pitch": 36,
                "velocity": 51,
                "duration": 0.11590909090909918,
                "tempo": 120.0
            },
            {
                "start_time": 108.05,
                "end_time": 108.16818181818181,
                "pitch": 36,
                "velocity": 51,
                "duration": 0.11818181818181017,
                "tempo": 120.0
            },
            {
                "start_time": 108.1840909090909,
                "end_time": 108.3,
                "pitch": 36,
                "velocity": 51,
                "duration": 0.11590909090909918,
                "tempo": 120.0
            },
            {
                "start_time": 108.31818181818181,
                "end_time": 108.56818181818181,
                "pitch": 34,
                "velocity": 51,
                "duration": 0.25,
                "tempo": 120.0
            },
            {
                "start_time": 108.58636363636363,
                "end_time": 108.83636363636363,
                "pitch": 41,
                "velocity": 51,
                "duration": 0.25,
                "tempo": 120.0
            },
            {
                "start_time": 108.85454545454544,
                "end_time": 109.10454545454544,
                "pitch": 34,
                "velocity": 51,
                "duration": 0.25,
                "tempo": 120.0
            },
            {
                "start_time": 109.12272727272726,
                "end_time": 109.37272727272726,
                "pitch": 34,
                "velocity": 51,
                "duration": 0.25,
                "tempo": 120.0
            },
            {
                "start_time": 109.38863636363635,
                "end_time": 109.50681818181818,
                "pitch": 34,
                "velocity": 51,
                "duration": 0.11818181818182438,
                "tempo": 120.0
            },
            {
                "start_time": 109.52272727272727,
                "end_time": 109.64090909090909,
                "pitch": 34,
                "velocity": 51,
                "duration": 0.11818181818182438,
                "tempo": 120.0
            },
            {
                "start_time": 109.65681818181818,
                "end_time": 109.77499999999999,
                "pitch": 34,
                "velocity": 51,
                "duration": 0.11818181818181017,
                "tempo": 120.0
            },
            {
                "start_time": 109.79090909090908,
                "end_time": 109.9090909090909,
                "pitch": 34,
                "velocity": 51,
                "duration": 0.11818181818182438,
                "tempo": 120.0
            },
            {
                "start_time": 109.925,
                "end_time": 110.175,
                "pitch": 46,
                "velocity": 51,
                "duration": 0.25,
                "tempo": 120.0
            },
            {
                "start_time": 110.19090909090909,
                "end_time": 110.3090909090909,
                "pitch": 44,
                "velocity": 51,
                "duration": 0.11818181818181017,
                "tempo": 120.0
            },
            {
                "start_time": 110.32499999999999,
                "end_time": 110.57727272727273,
                "pitch": 44,
                "velocity": 51,
                "duration": 0.2522727272727394,
                "tempo": 120.0
            },
            {
                "start_time": 110.59318181818182,
                "end_time": 110.71136363636363,
                "pitch": 46,
                "velocity": 51,
                "duration": 0.11818181818181017,
                "tempo": 120.0
            },
            {
                "start_time": 110.72727272727272,
                "end_time": 110.97954545454544,
                "pitch": 34,
                "velocity": 51,
                "duration": 0.2522727272727252,
                "tempo": 120.0
            },
            {
                "start_time": 110.99545454545454,
                "end_time": 111.11363636363636,
                "pitch": 34,
                "velocity": 51,
                "duration": 0.11818181818182438,
                "tempo": 120.0
            },
            {
                "start_time": 111.12954545454545,
                "end_time": 111.24772727272726,
                "pitch": 34,
                "velocity": 51,
                "duration": 0.11818181818181017,
                "tempo": 120.0
            },
            {
                "start_time": 111.26363636363635,
                "end_time": 111.37954545454545,
                "pitch": 34,
                "velocity": 51,
                "duration": 0.11590909090909918,
                "tempo": 120.0
            },
            {
                "start_time": 111.39772727272727,
                "end_time": 111.51363636363635,
                "pitch": 34,
                "velocity": 51,
                "duration": 0.11590909090908497,
                "tempo": 120.0
            },
            {
                "start_time": 111.52954545454546,
                "end_time": 111.78181818181818,
                "pitch": 42,
                "velocity": 51,
                "duration": 0.2522727272727252,
                "tempo": 120.0
            },
            {
                "start_time": 111.8,
                "end_time": 111.91590909090908,
                "pitch": 44,
                "velocity": 51,
                "duration": 0.11590909090908497,
                "tempo": 120.0
            },
            {
                "start_time": 111.9340909090909,
                "end_time": 112.05,
                "pitch": 44,
                "velocity": 51,
                "duration": 0.11590909090909918,
                "tempo": 120.0
            },
            {
                "start_time": 112.06590909090909,
                "end_time": 112.1840909090909,
                "pitch": 34,
                "velocity": 51,
                "duration": 0.11818181818181017,
                "tempo": 120.0
            },
            {
                "start_time": 112.19999999999999,
                "end_time": 112.31590909090909,
                "pitch": 34,
                "velocity": 51,
                "duration": 0.11590909090909918,
                "tempo": 120.0
            },
            {
                "start_time": 112.3340909090909,
                "end_time": 112.5840909090909,
                "pitch": 34,
                "velocity": 51,
                "duration": 0.25,
                "tempo": 120.0
            },
            {
                "start_time": 112.60227272727272,
                "end_time": 112.71818181818182,
                "pitch": 34,
                "velocity": 51,
                "duration": 0.11590909090909918,
                "tempo": 120.0
            },
            {
                "start_time": 112.73636363636363,
                "end_time": 112.85227272727272,
                "pitch": 34,
                "velocity": 51,
                "duration": 0.11590909090908497,
                "tempo": 120.0
            },
            {
                "start_time": 112.87045454545454,
                "end_time": 112.98863636363636,
                "pitch": 34,
                "velocity": 51,
                "duration": 0.11818181818182438,
                "tempo": 120.0
            },
            {
                "start_time": 113.00454545454545,
                "end_time": 113.12272727272726,
                "pitch": 34,
                "velocity": 51,
                "duration": 0.11818181818181017,
                "tempo": 120.0
            },
            {
                "start_time": 113.13863636363635,
                "end_time": 113.38863636363635,
                "pitch": 46,
                "velocity": 51,
                "duration": 0.25,
                "tempo": 120.0
            },
            {
                "start_time": 113.40454545454546,
                "end_time": 113.52272727272727,
                "pitch": 44,
                "velocity": 51,
                "duration": 0.11818181818181017,
                "tempo": 120.0
            },
            {
                "start_time": 113.53863636363636,
                "end_time": 113.79090909090908,
                "pitch": 44,
                "velocity": 51,
                "duration": 0.2522727272727252,
                "tempo": 120.0
            },
            {
                "start_time": 113.80681818181817,
                "end_time": 113.925,
                "pitch": 46,
                "velocity": 51,
                "duration": 0.11818181818182438,
                "tempo": 120.0
            },
            {
                "start_time": 113.94090909090909,
                "end_time": 114.19090909090909,
                "pitch": 34,
                "velocity": 51,
                "duration": 0.25,
                "tempo": 120.0
            },
            {
                "start_time": 114.20681818181818,
                "end_time": 114.32499999999999,
                "pitch": 34,
                "velocity": 51,
                "duration": 0.11818181818181017,
                "tempo": 120.0
            },
            {
                "start_time": 114.34090909090908,
                "end_time": 114.4590909090909,
                "pitch": 34,
                "velocity": 51,
                "duration": 0.11818181818182438,
                "tempo": 120.0
            },
            {
                "start_time": 114.475,
                "end_time": 114.59318181818182,
                "pitch": 34,
                "velocity": 51,
                "duration": 0.11818181818182438,
                "tempo": 120.0
            },
            {
                "start_time": 114.60909090909091,
                "end_time": 114.72727272727272,
                "pitch": 34,
                "velocity": 51,
                "duration": 0.11818181818181017,
                "tempo": 120.0
            },
            {
                "start_time": 114.74318181818181,
                "end_time": 114.99545454545454,
                "pitch": 42,
                "velocity": 51,
                "duration": 0.2522727272727252,
                "tempo": 120.0
            },
            {
                "start_time": 115.01136363636363,
                "end_time": 115.12954545454545,
                "pitch": 44,
                "velocity": 51,
                "duration": 0.11818181818182438,
                "tempo": 120.0
            },
            {
                "start_time": 115.14772727272727,
                "end_time": 115.26363636363635,
                "pitch": 44,
                "velocity": 51,
                "duration": 0.11590909090908497,
                "tempo": 120.0
            },
            {
                "start_time": 115.27954545454544,
                "end_time": 115.39772727272727,
                "pitch": 34,
                "velocity": 51,
                "duration": 0.11818181818182438,
                "tempo": 120.0
            },
            {
                "start_time": 115.41363636363636,
                "end_time": 115.52954545454544,
                "pitch": 34,
                "velocity": 51,
                "duration": 0.11590909090908497,
                "tempo": 120.0
            },
            {
                "start_time": 115.54772727272727,
                "end_time": 115.80227272727272,
                "pitch": 44,
                "velocity": 51,
                "duration": 0.2545454545454504,
                "tempo": 120.0
            },
            {
                "start_time": 115.82045454545454,
                "end_time": 115.94090909090909,
                "pitch": 44,
                "velocity": 51,
                "duration": 0.12045454545454959,
                "tempo": 120.0
            },
            {
                "start_time": 115.95681818181818,
                "end_time": 116.07272727272726,
                "pitch": 44,
                "velocity": 51,
                "duration": 0.11590909090908497,
                "tempo": 120.0
            },
            {
                "start_time": 116.08863636363635,
                "end_time": 116.20227272727273,
                "pitch": 44,
                "velocity": 51,
                "duration": 0.11363636363637397,
                "tempo": 120.0
            },
            {
                "start_time": 116.21818181818182,
                "end_time": 116.3340909090909,
                "pitch": 44,
                "velocity": 51,
                "duration": 0.11590909090908497,
                "tempo": 120.0
            },
            {
                "start_time": 116.35,
                "end_time": 116.6,
                "pitch": 44,
                "velocity": 51,
                "duration": 0.25,
                "tempo": 120.0
            },
            {
                "start_time": 116.61818181818181,
                "end_time": 116.73636363636363,
                "pitch": 44,
                "velocity": 51,
                "duration": 0.11818181818182438,
                "tempo": 120.0
            },
            {
                "start_time": 116.75227272727273,
                "end_time": 116.87045454545454,
                "pitch": 44,
                "velocity": 51,
                "duration": 0.11818181818181017,
                "tempo": 120.0
            },
            {
                "start_time": 116.88636363636363,
                "end_time": 117.00454545454545,
                "pitch": 44,
                "velocity": 51,
                "duration": 0.11818181818182438,
                "tempo": 120.0
            },
            {
                "start_time": 117.02045454545454,
                "end_time": 117.13863636363635,
                "pitch": 44,
                "velocity": 51,
                "duration": 0.11818181818181017,
                "tempo": 120.0
            },
            {
                "start_time": 117.15454545454544,
                "end_time": 117.40454545454544,
                "pitch": 44,
                "velocity": 51,
                "duration": 0.25,
                "tempo": 120.0
            },
            {
                "start_time": 117.42045454545455,
                "end_time": 117.53863636363636,
                "pitch": 44,
                "velocity": 51,
                "duration": 0.11818181818181017,
                "tempo": 120.0
            },
            {
                "start_time": 117.55454545454545,
                "end_time": 117.67272727272727,
                "pitch": 44,
                "velocity": 51,
                "duration": 0.11818181818182438,
                "tempo": 120.0
            },
            {
                "start_time": 117.68863636363636,
                "end_time": 117.80681818181817,
                "pitch": 44,
                "velocity": 51,
                "duration": 0.11818181818181017,
                "tempo": 120.0
            },
            {
                "start_time": 117.82272727272726,
                "end_time": 117.94090909090909,
                "pitch": 44,
                "velocity": 51,
                "duration": 0.11818181818182438,
                "tempo": 120.0
            },
            {
                "start_time": 117.95681818181818,
                "end_time": 118.20681818181818,
                "pitch": 44,
                "velocity": 51,
                "duration": 0.25,
                "tempo": 120.0
            },
            {
                "start_time": 118.225,
                "end_time": 118.34090909090908,
                "pitch": 44,
                "velocity": 51,
                "duration": 0.11590909090908497,
                "tempo": 120.0
            },
            {
                "start_time": 118.35681818181817,
                "end_time": 118.475,
                "pitch": 44,
                "velocity": 51,
                "duration": 0.11818181818182438,
                "tempo": 120.0
            },
            {
                "start_time": 118.49090909090908,
                "end_time": 118.60909090909091,
                "pitch": 44,
                "velocity": 51,
                "duration": 0.11818181818182438,
                "tempo": 120.0
            },
            {
                "start_time": 118.625,
                "end_time": 118.74318181818181,
                "pitch": 44,
                "velocity": 51,
                "duration": 0.11818181818181017,
                "tempo": 120.0
            },
            {
                "start_time": 118.7590909090909,
                "end_time": 118.87727272727273,
                "pitch": 41,
                "velocity": 51,
                "duration": 0.11818181818182438,
                "tempo": 120.0
            },
            {
                "start_time": 118.89545454545454,
                "end_time": 119.01136363636363,
                "pitch": 41,
                "velocity": 51,
                "duration": 0.11590909090908497,
                "tempo": 120.0
            },
            {
                "start_time": 119.02954545454544,
                "end_time": 119.14545454545454,
                "pitch": 41,
                "velocity": 51,
                "duration": 0.11590909090909918,
                "tempo": 120.0
            },
            {
                "start_time": 119.16363636363636,
                "end_time": 119.27954545454544,
                "pitch": 42,
                "velocity": 51,
                "duration": 0.11590909090908497,
                "tempo": 120.0
            },
            {
                "start_time": 119.29545454545455,
                "end_time": 119.41363636363636,
                "pitch": 41,
                "velocity": 51,
                "duration": 0.11818181818181017,
                "tempo": 120.0
            },
            {
                "start_time": 119.42954545454545,
                "end_time": 119.54545454545455,
                "pitch": 41,
                "velocity": 51,
                "duration": 0.11590909090909918,
                "tempo": 120.0
            },
            {
                "start_time": 119.56363636363636,
                "end_time": 119.67954545454545,
                "pitch": 44,
                "velocity": 51,
                "duration": 0.11590909090908497,
                "tempo": 120.0
            },
            {
                "start_time": 119.69772727272726,
                "end_time": 119.81363636363636,
                "pitch": 42,
                "velocity": 51,
                "duration": 0.11590909090909918,
                "tempo": 120.0
            },
            {
                "start_time": 119.83181818181818,
                "end_time": 119.94772727272726,
                "pitch": 41,
                "velocity": 51,
                "duration": 0.11590909090908497,
                "tempo": 120.0
            },
            {
                "start_time": 119.96590909090908,
                "end_time": 120.08181818181818,
                "pitch": 46,
                "velocity": 51,
                "duration": 0.11590909090909918,
                "tempo": 120.0
            },
            {
                "start_time": 120.1,
                "end_time": 120.21590909090908,
                "pitch": 44,
                "velocity": 51,
                "duration": 0.11590909090908497,
                "tempo": 120.0
            },
            {
                "start_time": 120.23181818181817,
                "end_time": 120.35,
                "pitch": 42,
                "velocity": 51,
                "duration": 0.11818181818182438,
                "tempo": 120.0
            },
            {
                "start_time": 120.36590909090908,
                "end_time": 120.48409090909091,
                "pitch": 41,
                "velocity": 51,
                "duration": 0.11818181818182438,
                "tempo": 120.0
            },
            {
                "start_time": 120.5,
                "end_time": 120.61818181818181,
                "pitch": 41,
                "velocity": 51,
                "duration": 0.11818181818181017,
                "tempo": 120.0
            },
            {
                "start_time": 120.6340909090909,
                "end_time": 120.75227272727273,
                "pitch": 41,
                "velocity": 51,
                "duration": 0.11818181818182438,
                "tempo": 120.0
            },
            {
                "start_time": 120.76818181818182,
                "end_time": 120.88636363636363,
                "pitch": 42,
                "velocity": 51,
                "duration": 0.11818181818181017,
                "tempo": 120.0
            },
            {
                "start_time": 120.90227272727272,
                "end_time": 121.02045454545454,
                "pitch": 41,
                "velocity": 51,
                "duration": 0.11818181818182438,
                "tempo": 120.0
            },
            {
                "start_time": 121.03636363636363,
                "end_time": 121.15454545454544,
                "pitch": 41,
                "velocity": 51,
                "duration": 0.11818181818181017,
                "tempo": 120.0
            },
            {
                "start_time": 121.17045454545453,
                "end_time": 121.28863636363636,
                "pitch": 44,
                "velocity": 51,
                "duration": 0.11818181818182438,
                "tempo": 120.0
            },
            {
                "start_time": 121.30454545454545,
                "end_time": 121.42045454545453,
                "pitch": 42,
                "velocity": 51,
                "duration": 0.11590909090908497,
                "tempo": 120.0
            },
            {
                "start_time": 121.43863636363636,
                "end_time": 121.55454545454545,
                "pitch": 41,
                "velocity": 51,
                "duration": 0.11590909090908497,
                "tempo": 120.0
            },
            {
                "start_time": 121.57045454545454,
                "end_time": 121.68863636363636,
                "pitch": 49,
                "velocity": 51,
                "duration": 0.11818181818182438,
                "tempo": 120.0
            },
            {
                "start_time": 121.70454545454545,
                "end_time": 121.82272727272726,
                "pitch": 48,
                "velocity": 51,
                "duration": 0.11818181818181017,
                "tempo": 120.0
            },
            {
                "start_time": 121.83863636363635,
                "end_time": 121.95681818181818,
                "pitch": 42,
                "velocity": 51,
                "duration": 0.11818181818182438,
                "tempo": 120.0
            },
            {
                "start_time": 121.97272727272727,
                "end_time": 122.09090909090908,
                "pitch": 41,
                "velocity": 51,
                "duration": 0.11818181818181017,
                "tempo": 120.0
            },
            {
                "start_time": 122.10681818181817,
                "end_time": 122.22272727272727,
                "pitch": 41,
                "velocity": 51,
                "duration": 0.11590909090909918,
                "tempo": 120.0
            },
            {
                "start_time": 122.24090909090908,
                "end_time": 122.35681818181817,
                "pitch": 41,
                "velocity": 51,
                "duration": 0.11590909090908497,
                "tempo": 120.0
            },
            {
                "start_time": 122.37272727272726,
                "end_time": 122.49090909090908,
                "pitch": 42,
                "velocity": 51,
                "duration": 0.11818181818182438,
                "tempo": 120.0
            },
            {
                "start_time": 122.50681818181818,
                "end_time": 122.625,
                "pitch": 41,
                "velocity": 51,
                "duration": 0.11818181818182438,
                "tempo": 120.0
            },
            {
                "start_time": 122.64318181818182,
                "end_time": 122.7590909090909,
                "pitch": 41,
                "velocity": 51,
                "duration": 0.11590909090908497,
                "tempo": 120.0
            },
            {
                "start_time": 122.77727272727272,
                "end_time": 122.89318181818182,
                "pitch": 44,
                "velocity": 51,
                "duration": 0.11590909090909918,
                "tempo": 120.0
            },
            {
                "start_time": 122.91136363636363,
                "end_time": 123.02727272727272,
                "pitch": 42,
                "velocity": 51,
                "duration": 0.11590909090908497,
                "tempo": 120.0
            },
            {
                "start_time": 123.04545454545453,
                "end_time": 123.16136363636363,
                "pitch": 41,
                "velocity": 51,
                "duration": 0.11590909090909918,
                "tempo": 120.0
            },
            {
                "start_time": 123.17954545454545,
                "end_time": 123.29545454545453,
                "pitch": 46,
                "velocity": 51,
                "duration": 0.11590909090908497,
                "tempo": 120.0
            },
            {
                "start_time": 123.31136363636364,
                "end_time": 123.42954545454545,
                "pitch": 44,
                "velocity": 51,
                "duration": 0.11818181818181017,
                "tempo": 120.0
            },
            {
                "start_time": 123.44545454545454,
                "end_time": 123.56136363636364,
                "pitch": 42,
                "velocity": 51,
                "duration": 0.11590909090909918,
                "tempo": 120.0
            },
            {
                "start_time": 123.57954545454545,
                "end_time": 123.69545454545454,
                "pitch": 41,
                "velocity": 51,
                "duration": 0.11590909090908497,
                "tempo": 120.0
            },
            {
                "start_time": 123.71363636363635,
                "end_time": 123.82954545454545,
                "pitch": 42,
                "velocity": 51,
                "duration": 0.11590909090909918,
                "tempo": 120.0
            },
            {
                "start_time": 123.84772727272727,
                "end_time": 123.96590909090908,
                "pitch": 44,
                "velocity": 51,
                "duration": 0.11818181818181017,
                "tempo": 120.0
            },
            {
                "start_time": 123.98181818181817,
                "end_time": 124.09772727272727,
                "pitch": 46,
                "velocity": 51,
                "duration": 0.11590909090909918,
                "tempo": 120.0
            },
            {
                "start_time": 124.11590909090908,
                "end_time": 124.23181818181817,
                "pitch": 48,
                "velocity": 51,
                "duration": 0.11590909090908497,
                "tempo": 120.0
            },
            {
                "start_time": 124.24772727272726,
                "end_time": 124.36590909090908,
                "pitch": 49,
                "velocity": 51,
                "duration": 0.11818181818182438,
                "tempo": 120.0
            },
            {
                "start_time": 124.38181818181818,
                "end_time": 124.6340909090909,
                "pitch": 51,
                "velocity": 51,
                "duration": 0.2522727272727252,
                "tempo": 120.0
            },
            {
                "start_time": 124.64999999999999,
                "end_time": 124.89772727272727,
                "pitch": 53,
                "velocity": 51,
                "duration": 0.2477272727272748,
                "tempo": 120.0
            },
            {
                "start_time": 124.91590909090908,
                "end_time": 125.1590909090909,
                "pitch": 54,
                "velocity": 51,
                "duration": 0.24318181818182438,
                "tempo": 120.0
            },
            {
                "start_time": 125.17727272727272,
                "end_time": 125.29545454545453,
                "pitch": 41,
                "velocity": 51,
                "duration": 0.11818181818181017,
                "tempo": 120.0
            },
            {
                "start_time": 125.31363636363636,
                "end_time": 125.4340909090909,
                "pitch": 41,
                "velocity": 51,
                "duration": 0.12045454545453538,
                "tempo": 120.0
            },
            {
                "start_time": 125.44999999999999,
                "end_time": 125.57045454545454,
                "pitch": 41,
                "velocity": 51,
                "duration": 0.12045454545454959,
                "tempo": 120.0
            },
            {
                "start_time": 125.58636363636363,
                "end_time": 125.70454545454545,
                "pitch": 42,
                "velocity": 51,
                "duration": 0.11818181818182438,
                "tempo": 120.0
            },
            {
                "start_time": 125.72045454545454,
                "end_time": 125.83863636363635,
                "pitch": 41,
                "velocity": 51,
                "duration": 0.11818181818181017,
                "tempo": 120.0
            },
            {
                "start_time": 125.85454545454544,
                "end_time": 125.97272727272727,
                "pitch": 41,
                "velocity": 51,
                "duration": 0.11818181818182438,
                "tempo": 120.0
            },
            {
                "start_time": 125.99090909090908,
                "end_time": 126.10681818181817,
                "pitch": 44,
                "velocity": 51,
                "duration": 0.11590909090908497,
                "tempo": 120.0
            },
            {
                "start_time": 126.12272727272726,
                "end_time": 126.24090909090908,
                "pitch": 42,
                "velocity": 51,
                "duration": 0.11818181818182438,
                "tempo": 120.0
            },
            {
                "start_time": 126.25681818181818,
                "end_time": 126.37272727272726,
                "pitch": 41,
                "velocity": 51,
                "duration": 0.11590909090908497,
                "tempo": 120.0
            },
            {
                "start_time": 126.39090909090909,
                "end_time": 126.50681818181818,
                "pitch": 46,
                "velocity": 51,
                "duration": 0.11590909090908497,
                "tempo": 120.0
            },
            {
                "start_time": 126.52499999999999,
                "end_time": 126.64090909090909,
                "pitch": 44,
                "velocity": 51,
                "duration": 0.11590909090909918,
                "tempo": 120.0
            },
            {
                "start_time": 126.6590909090909,
                "end_time": 126.77499999999999,
                "pitch": 42,
                "velocity": 51,
                "duration": 0.11590909090908497,
                "tempo": 120.0
            },
            {
                "start_time": 126.79318181818181,
                "end_time": 126.9090909090909,
                "pitch": 41,
                "velocity": 51,
                "duration": 0.11590909090909918,
                "tempo": 120.0
            },
            {
                "start_time": 126.92727272727272,
                "end_time": 127.04318181818181,
                "pitch": 41,
                "velocity": 51,
                "duration": 0.11590909090908497,
                "tempo": 120.0
            },
            {
                "start_time": 127.06136363636362,
                "end_time": 127.17954545454545,
                "pitch": 41,
                "velocity": 51,
                "duration": 0.11818181818182438,
                "tempo": 120.0
            },
            {
                "start_time": 127.19545454545454,
                "end_time": 127.31136363636362,
                "pitch": 42,
                "velocity": 51,
                "duration": 0.11590909090908497,
                "tempo": 120.0
            },
            {
                "start_time": 127.32954545454545,
                "end_time": 127.44545454545454,
                "pitch": 41,
                "velocity": 51,
                "duration": 0.11590909090908497,
                "tempo": 120.0
            },
            {
                "start_time": 127.46136363636363,
                "end_time": 127.57954545454545,
                "pitch": 41,
                "velocity": 51,
                "duration": 0.11818181818182438,
                "tempo": 120.0
            },
            {
                "start_time": 127.59545454545454,
                "end_time": 127.71363636363635,
                "pitch": 44,
                "velocity": 51,
                "duration": 0.11818181818181017,
                "tempo": 120.0
            },
            {
                "start_time": 127.72954545454544,
                "end_time": 127.84772727272727,
                "pitch": 42,
                "velocity": 51,
                "duration": 0.11818181818182438,
                "tempo": 120.0
            },
            {
                "start_time": 127.86363636363636,
                "end_time": 127.98181818181817,
                "pitch": 41,
                "velocity": 51,
                "duration": 0.11818181818181017,
                "tempo": 120.0
            },
            {
                "start_time": 127.99772727272726,
                "end_time": 128.11363636363635,
                "pitch": 49,
                "velocity": 51,
                "duration": 0.11590909090908497,
                "tempo": 120.0
            },
            {
                "start_time": 128.13181818181818,
                "end_time": 128.24772727272727,
                "pitch": 48,
                "velocity": 51,
                "duration": 0.11590909090909918,
                "tempo": 120.0
            },
            {
                "start_time": 128.26363636363635,
                "end_time": 128.38181818181818,
                "pitch": 46,
                "velocity": 51,
                "duration": 0.11818181818182438,
                "tempo": 120.0
            },
            {
                "start_time": 128.39772727272728,
                "end_time": 128.51590909090908,
                "pitch": 41,
                "velocity": 51,
                "duration": 0.11818181818179596,
                "tempo": 120.0
            },
            {
                "start_time": 128.53181818181818,
                "end_time": 128.65,
                "pitch": 41,
                "velocity": 51,
                "duration": 0.11818181818182438,
                "tempo": 120.0
            },
            {
                "start_time": 128.66590909090908,
                "end_time": 128.7840909090909,
                "pitch": 41,
                "velocity": 51,
                "duration": 0.11818181818182438,
                "tempo": 120.0
            },
            {
                "start_time": 128.79999999999998,
                "end_time": 128.9181818181818,
                "pitch": 42,
                "velocity": 51,
                "duration": 0.11818181818182438,
                "tempo": 120.0
            },
            {
                "start_time": 128.9340909090909,
                "end_time": 129.0522727272727,
                "pitch": 41,
                "velocity": 51,
                "duration": 0.11818181818179596,
                "tempo": 120.0
            },
            {
                "start_time": 129.0681818181818,
                "end_time": 129.18636363636364,
                "pitch": 41,
                "velocity": 51,
                "duration": 0.11818181818182438,
                "tempo": 120.0
            },
            {
                "start_time": 129.2022727272727,
                "end_time": 129.32045454545454,
                "pitch": 44,
                "velocity": 51,
                "duration": 0.11818181818182438,
                "tempo": 120.0
            },
            {
                "start_time": 129.33863636363637,
                "end_time": 129.45454545454544,
                "pitch": 42,
                "velocity": 51,
                "duration": 0.11590909090907076,
                "tempo": 120.0
            },
            {
                "start_time": 129.47272727272727,
                "end_time": 129.58863636363637,
                "pitch": 41,
                "velocity": 51,
                "duration": 0.11590909090909918,
                "tempo": 120.0
            },
            {
                "start_time": 129.60681818181817,
                "end_time": 129.72272727272727,
                "pitch": 46,
                "velocity": 51,
                "duration": 0.11590909090909918,
                "tempo": 120.0
            },
            {
                "start_time": 129.73863636363635,
                "end_time": 129.85681818181817,
                "pitch": 44,
                "velocity": 51,
                "duration": 0.11818181818182438,
                "tempo": 120.0
            },
            {
                "start_time": 129.87272727272727,
                "end_time": 129.98863636363635,
                "pitch": 42,
                "velocity": 51,
                "duration": 0.11590909090907076,
                "tempo": 120.0
            },
            {
                "start_time": 130.00681818181818,
                "end_time": 130.25681818181818,
                "pitch": 41,
                "velocity": 51,
                "duration": 0.25,
                "tempo": 120.0
            },
            {
                "start_time": 130.275,
                "end_time": 130.39090909090908,
                "pitch": 41,
                "velocity": 51,
                "duration": 0.11590909090907076,
                "tempo": 120.0
            },
            {
                "start_time": 130.4090909090909,
                "end_time": 130.525,
                "pitch": 41,
                "velocity": 51,
                "duration": 0.11590909090909918,
                "tempo": 120.0
            },
            {
                "start_time": 130.5431818181818,
                "end_time": 130.66136363636363,
                "pitch": 41,
                "velocity": 51,
                "duration": 0.11818181818182438,
                "tempo": 120.0
            },
            {
                "start_time": 130.6772727272727,
                "end_time": 130.79545454545453,
                "pitch": 41,
                "velocity": 51,
                "duration": 0.11818181818182438,
                "tempo": 120.0
            },
            {
                "start_time": 130.81136363636364,
                "end_time": 131.06363636363636,
                "pitch": 41,
                "velocity": 51,
                "duration": 0.2522727272727252,
                "tempo": 120.0
            },
            {
                "start_time": 131.07954545454544,
                "end_time": 131.19772727272726,
                "pitch": 41,
                "velocity": 51,
                "duration": 0.11818181818182438,
                "tempo": 120.0
            },
            {
                "start_time": 131.21363636363637,
                "end_time": 131.33181818181816,
                "pitch": 41,
                "velocity": 51,
                "duration": 0.11818181818179596,
                "tempo": 120.0
            },
            {
                "start_time": 131.34772727272727,
                "end_time": 131.4659090909091,
                "pitch": 41,
                "velocity": 51,
                "duration": 0.11818181818182438,
                "tempo": 120.0
            },
            {
                "start_time": 131.48181818181817,
                "end_time": 131.6,
                "pitch": 41,
                "velocity": 51,
                "duration": 0.11818181818182438,
                "tempo": 120.0
            },
            {
                "start_time": 131.61590909090907,
                "end_time": 131.86590909090907,
                "pitch": 36,
                "velocity": 51,
                "duration": 0.25,
                "tempo": 120.0
            },
            {
                "start_time": 131.8840909090909,
                "end_time": 132.0,
                "pitch": 36,
                "velocity": 51,
                "duration": 0.11590909090909918,
                "tempo": 120.0
            },
            {
                "start_time": 132.01590909090908,
                "end_time": 132.1340909090909,
                "pitch": 36,
                "velocity": 51,
                "duration": 0.11818181818182438,
                "tempo": 120.0
            },
            {
                "start_time": 132.15,
                "end_time": 132.2681818181818,
                "pitch": 36,
                "velocity": 51,
                "duration": 0.11818181818179596,
                "tempo": 120.0
            },
            {
                "start_time": 132.2840909090909,
                "end_time": 132.40227272727273,
                "pitch": 36,
                "velocity": 51,
                "duration": 0.11818181818182438,
                "tempo": 120.0
            },
            {
                "start_time": 132.42045454545453,
                "end_time": 132.67045454545453,
                "pitch": 36,
                "velocity": 51,
                "duration": 0.25,
                "tempo": 120.0
            },
            {
                "start_time": 132.68863636363636,
                "end_time": 132.80454545454546,
                "pitch": 36,
                "velocity": 51,
                "duration": 0.11590909090909918,
                "tempo": 120.0
            },
            {
                "start_time": 132.82272727272726,
                "end_time": 132.93863636363636,
                "pitch": 36,
                "velocity": 51,
                "duration": 0.11590909090909918,
                "tempo": 120.0
            },
            {
                "start_time": 132.95681818181816,
                "end_time": 133.07272727272726,
                "pitch": 36,
                "velocity": 51,
                "duration": 0.11590909090909918,
                "tempo": 120.0
            },
            {
                "start_time": 133.0909090909091,
                "end_time": 133.2090909090909,
                "pitch": 36,
                "velocity": 51,
                "duration": 0.11818181818179596,
                "tempo": 120.0
            },
            {
                "start_time": 133.225,
                "end_time": 133.47727272727272,
                "pitch": 41,
                "velocity": 51,
                "duration": 0.2522727272727252,
                "tempo": 120.0
            },
            {
                "start_time": 133.49318181818182,
                "end_time": 133.61136363636362,
                "pitch": 41,
                "velocity": 51,
                "duration": 0.11818181818179596,
                "tempo": 120.0
            },
            {
                "start_time": 133.62727272727273,
                "end_time": 133.74318181818182,
                "pitch": 41,
                "velocity": 51,
                "duration": 0.11590909090909918,
                "tempo": 120.0
            },
            {
                "start_time": 133.76136363636363,
                "end_time": 133.87727272727273,
                "pitch": 41,
                "velocity": 51,
                "duration": 0.11590909090909918,
                "tempo": 120.0
            },
            {
                "start_time": 133.8931818181818,
                "end_time": 134.01136363636363,
                "pitch": 41,
                "velocity": 51,
                "duration": 0.11818181818182438,
                "tempo": 120.0
            },
            {
                "start_time": 134.02727272727273,
                "end_time": 134.27954545454546,
                "pitch": 41,
                "velocity": 51,
                "duration": 0.2522727272727252,
                "tempo": 120.0
            },
            {
                "start_time": 134.29545454545453,
                "end_time": 134.41363636363636,
                "pitch": 41,
                "velocity": 51,
                "duration": 0.11818181818182438,
                "tempo": 120.0
            },
            {
                "start_time": 134.42954545454546,
                "end_time": 134.54772727272726,
                "pitch": 41,
                "velocity": 51,
                "duration": 0.11818181818179596,
                "tempo": 120.0
            },
            {
                "start_time": 134.56363636363636,
                "end_time": 134.6818181818182,
                "pitch": 41,
                "velocity": 51,
                "duration": 0.11818181818182438,
                "tempo": 120.0
            },
            {
                "start_time": 134.69772727272726,
                "end_time": 134.8159090909091,
                "pitch": 41,
                "velocity": 51,
                "duration": 0.11818181818182438,
                "tempo": 120.0
            },
            {
                "start_time": 134.83181818181816,
                "end_time": 135.0840909090909,
                "pitch": 42,
                "velocity": 51,
                "duration": 0.2522727272727252,
                "tempo": 120.0
            },
            {
                "start_time": 135.10227272727272,
                "end_time": 135.21818181818182,
                "pitch": 42,
                "velocity": 51,
                "duration": 0.11590909090909918,
                "tempo": 120.0
            },
            {
                "start_time": 135.23636363636362,
                "end_time": 135.35227272727272,
                "pitch": 42,
                "velocity": 51,
                "duration": 0.11590909090909918,
                "tempo": 120.0
            },
            {
                "start_time": 135.37045454545455,
                "end_time": 135.48636363636362,
                "pitch": 42,
                "velocity": 51,
                "duration": 0.11590909090907076,
                "tempo": 120.0
            },
            {
                "start_time": 135.50454545454545,
                "end_time": 135.62045454545455,
                "pitch": 42,
                "velocity": 51,
                "duration": 0.11590909090909918,
                "tempo": 120.0
            },
            {
                "start_time": 135.63863636363635,
                "end_time": 135.88863636363635,
                "pitch": 42,
                "velocity": 51,
                "duration": 0.25,
                "tempo": 120.0
            },
            {
                "start_time": 135.90454545454546,
                "end_time": 136.02045454545453,
                "pitch": 42,
                "velocity": 51,
                "duration": 0.11590909090907076,
                "tempo": 120.0
            },
            {
                "start_time": 136.03863636363636,
                "end_time": 136.15454545454546,
                "pitch": 42,
                "velocity": 51,
                "duration": 0.11590909090909918,
                "tempo": 120.0
            },
            {
                "start_time": 136.17272727272726,
                "end_time": 136.29090909090908,
                "pitch": 42,
                "velocity": 51,
                "duration": 0.11818181818182438,
                "tempo": 120.0
            },
            {
                "start_time": 136.3068181818182,
                "end_time": 136.42499999999998,
                "pitch": 42,
                "velocity": 51,
                "duration": 0.11818181818179596,
                "tempo": 120.0
            },
            {
                "start_time": 136.4409090909091,
                "end_time": 136.6931818181818,
                "pitch": 39,
                "velocity": 51,
                "duration": 0.2522727272727252,
                "tempo": 120.0
            },
            {
                "start_time": 136.7090909090909,
                "end_time": 136.8272727272727,
                "pitch": 39,
                "velocity": 51,
                "duration": 0.11818181818182438,
                "tempo": 120.0
            },
            {
                "start_time": 136.84318181818182,
                "end_time": 136.96136363636364,
                "pitch": 39,
                "velocity": 51,
                "duration": 0.11818181818182438,
                "tempo": 120.0
            },
            {
                "start_time": 136.97727272727272,
                "end_time": 137.09545454545454,
                "pitch": 39,
                "velocity": 51,
                "duration": 0.11818181818182438,
                "tempo": 120.0
            },
            {
                "start_time": 137.11136363636362,
                "end_time": 137.22954545454544,
                "pitch": 39,
                "velocity": 51,
                "duration": 0.11818181818182438,
                "tempo": 120.0
            },
            {
                "start_time": 137.24545454545455,
                "end_time": 137.36363636363635,
                "pitch": 39,
                "velocity": 51,
                "duration": 0.11818181818179596,
                "tempo": 120.0
            },
            {
                "start_time": 137.37954545454545,
                "end_time": 137.49772727272727,
                "pitch": 46,
                "velocity": 51,
                "duration": 0.11818181818182438,
                "tempo": 120.0
            },
            {
                "start_time": 137.51363636363635,
                "end_time": 137.63181818181818,
                "pitch": 49,
                "velocity": 51,
                "duration": 0.11818181818182438,
                "tempo": 120.0
            },
            {
                "start_time": 137.65,
                "end_time": 137.76590909090908,
                "pitch": 53,
                "velocity": 51,
                "duration": 0.11590909090907076,
                "tempo": 120.0
            },
            {
                "start_time": 137.78181818181818,
                "end_time": 137.9,
                "pitch": 51,
                "velocity": 51,
                "duration": 0.11818181818182438,
                "tempo": 120.0
            },
            {
                "start_time": 137.91590909090908,
                "end_time": 138.03181818181818,
                "pitch": 49,
                "velocity": 51,
                "duration": 0.11590909090909918,
                "tempo": 120.0
            },
            {
                "start_time": 138.04999999999998,
                "end_time": 138.29999999999998,
                "pitch": 37,
                "velocity": 51,
                "duration": 0.25,
                "tempo": 120.0
            },
            {
                "start_time": 138.3181818181818,
                "end_time": 138.4340909090909,
                "pitch": 37,
                "velocity": 51,
                "duration": 0.11590909090909918,
                "tempo": 120.0
            },
            {
                "start_time": 138.4522727272727,
                "end_time": 138.5681818181818,
                "pitch": 37,
                "velocity": 51,
                "duration": 0.11590909090909918,
                "tempo": 120.0
            },
            {
                "start_time": 138.58636363636364,
                "end_time": 138.7022727272727,
                "pitch": 37,
                "velocity": 51,
                "duration": 0.11590909090907076,
                "tempo": 120.0
            },
            {
                "start_time": 138.72045454545454,
                "end_time": 138.83863636363637,
                "pitch": 37,
                "velocity": 51,
                "duration": 0.11818181818182438,
                "tempo": 120.0
            },
            {
                "start_time": 138.85454545454544,
                "end_time": 139.10681818181817,
                "pitch": 37,
                "velocity": 51,
                "duration": 0.2522727272727252,
                "tempo": 120.0
            },
            {
                "start_time": 139.12272727272727,
                "end_time": 139.24090909090907,
                "pitch": 37,
                "velocity": 51,
                "duration": 0.11818181818179596,
                "tempo": 120.0
            },
            {
                "start_time": 139.25681818181818,
                "end_time": 139.375,
                "pitch": 37,
                "velocity": 51,
                "duration": 0.11818181818182438,
                "tempo": 120.0
            },
            {
                "start_time": 139.39090909090908,
                "end_time": 139.5090909090909,
                "pitch": 37,
                "velocity": 51,
                "duration": 0.11818181818182438,
                "tempo": 120.0
            },
            {
                "start_time": 139.525,
                "end_time": 139.6431818181818,
                "pitch": 37,
                "velocity": 51,
                "duration": 0.11818181818179596,
                "tempo": 120.0
            },
            {
                "start_time": 139.6590909090909,
                "end_time": 140.0431818181818,
                "pitch": 39,
                "velocity": 51,
                "duration": 0.3840909090909008,
                "tempo": 120.0
            },
            {
                "start_time": 140.0590909090909,
                "end_time": 140.44545454545454,
                "pitch": 41,
                "velocity": 51,
                "duration": 0.38636363636362603,
                "tempo": 120.0
            },
            {
                "start_time": 140.46136363636364,
                "end_time": 140.84772727272727,
                "pitch": 42,
                "velocity": 51,
                "duration": 0.38636363636362603,
                "tempo": 120.0
            },
            {
                "start_time": 140.86590909090907,
                "end_time": 141.25,
                "pitch": 41,
                "velocity": 51,
                "duration": 0.38409090909092924,
                "tempo": 120.0
            },
            {
                "start_time": 141.2681818181818,
                "end_time": 141.52045454545453,
                "pitch": 42,
                "velocity": 51,
                "duration": 0.2522727272727252,
                "tempo": 120.0
            },
            {
                "start_time": 141.53636363636363,
                "end_time": 141.65454545454546,
                "pitch": 42,
                "velocity": 51,
                "duration": 0.11818181818182438,
                "tempo": 120.0
            },
            {
                "start_time": 141.67045454545453,
                "end_time": 141.78636363636363,
                "pitch": 42,
                "velocity": 51,
                "duration": 0.11590909090909918,
                "tempo": 120.0
            },
            {
                "start_time": 141.80454545454546,
                "end_time": 141.92045454545453,
                "pitch": 42,
                "velocity": 51,
                "duration": 0.11590909090907076,
                "tempo": 120.0
            },
            {
                "start_time": 141.93636363636364,
                "end_time": 142.05454545454546,
                "pitch": 42,
                "velocity": 51,
                "duration": 0.11818181818182438,
                "tempo": 120.0
            },
            {
                "start_time": 142.07045454545454,
                "end_time": 142.32272727272726,
                "pitch": 42,
                "velocity": 51,
                "duration": 0.2522727272727252,
                "tempo": 120.0
            },
            {
                "start_time": 142.33863636363637,
                "end_time": 142.45681818181816,
                "pitch": 42,
                "velocity": 51,
                "duration": 0.11818181818179596,
                "tempo": 120.0
            },
            {
                "start_time": 142.47272727272727,
                "end_time": 142.5909090909091,
                "pitch": 42,
                "velocity": 51,
                "duration": 0.11818181818182438,
                "tempo": 120.0
            },
            {
                "start_time": 142.60681818181817,
                "end_time": 142.725,
                "pitch": 42,
                "velocity": 51,
                "duration": 0.11818181818182438,
                "tempo": 120.0
            },
            {
                "start_time": 142.74090909090907,
                "end_time": 142.8590909090909,
                "pitch": 42,
                "velocity": 51,
                "duration": 0.11818181818182438,
                "tempo": 120.0
            },
            {
                "start_time": 142.875,
                "end_time": 143.12727272727273,
                "pitch": 39,
                "velocity": 51,
                "duration": 0.2522727272727252,
                "tempo": 120.0
            },
            {
                "start_time": 143.1431818181818,
                "end_time": 143.26136363636363,
                "pitch": 39,
                "velocity": 51,
                "duration": 0.11818181818182438,
                "tempo": 120.0
            },
            {
                "start_time": 143.27954545454546,
                "end_time": 143.39545454545453,
                "pitch": 39,
                "velocity": 51,
                "duration": 0.11590909090907076,
                "tempo": 120.0
            },
            {
                "start_time": 143.41363636363636,
                "end_time": 143.52954545454546,
                "pitch": 39,
                "velocity": 51,
                "duration": 0.11590909090909918,
                "tempo": 120.0
            },
            {
                "start_time": 143.54772727272726,
                "end_time": 143.66363636363636,
                "pitch": 39,
                "velocity": 51,
                "duration": 0.11590909090909918,
                "tempo": 120.0
            },
            {
                "start_time": 143.6818181818182,
                "end_time": 143.79772727272726,
                "pitch": 39,
                "velocity": 51,
                "duration": 0.11590909090907076,
                "tempo": 120.0
            },
            {
                "start_time": 143.81363636363636,
                "end_time": 143.9318181818182,
                "pitch": 46,
                "velocity": 51,
                "duration": 0.11818181818182438,
                "tempo": 120.0
            },
            {
                "start_time": 143.94772727272726,
                "end_time": 144.06363636363636,
                "pitch": 49,
                "velocity": 51,
                "duration": 0.11590909090909918,
                "tempo": 120.0
            },
            {
                "start_time": 144.08181818181816,
                "end_time": 144.19772727272726,
                "pitch": 53,
                "velocity": 51,
                "duration": 0.11590909090909918,
                "tempo": 120.0
            },
            {
                "start_time": 144.2159090909091,
                "end_time": 144.33181818181816,
                "pitch": 51,
                "velocity": 51,
                "duration": 0.11590909090907076,
                "tempo": 120.0
            },
            {
                "start_time": 144.35,
                "end_time": 144.46818181818182,
                "pitch": 49,
                "velocity": 51,
                "duration": 0.11818181818182438,
                "tempo": 120.0
            },
            {
                "start_time": 144.4840909090909,
                "end_time": 144.73636363636362,
                "pitch": 37,
                "velocity": 51,
                "duration": 0.2522727272727252,
                "tempo": 120.0
            },
            {
                "start_time": 144.75227272727273,
                "end_time": 144.87045454545455,
                "pitch": 37,
                "velocity": 51,
                "duration": 0.11818181818182438,
                "tempo": 120.0
            },
            {
                "start_time": 144.88636363636363,
                "end_time": 145.00454545454545,
                "pitch": 37,
                "velocity": 51,
                "duration": 0.11818181818182438,
                "tempo": 120.0
            },
            {
                "start_time": 145.02045454545453,
                "end_time": 145.13863636363635,
                "pitch": 37,
                "velocity": 51,
                "duration": 0.11818181818182438,
                "tempo": 120.0
            },
            {
                "start_time": 145.15454545454546,
                "end_time": 145.27272727272725,
                "pitch": 37,
                "velocity": 51,
                "duration": 0.11818181818179596,
                "tempo": 120.0
            },
            {
                "start_time": 145.28863636363636,
                "end_time": 145.54090909090908,
                "pitch": 37,
                "velocity": 51,
                "duration": 0.2522727272727252,
                "tempo": 120.0
            },
            {
                "start_time": 145.5568181818182,
                "end_time": 145.67499999999998,
                "pitch": 37,
                "velocity": 51,
                "duration": 0.11818181818179596,
                "tempo": 120.0
            },
            {
                "start_time": 145.6909090909091,
                "end_time": 145.8090909090909,
                "pitch": 37,
                "velocity": 51,
                "duration": 0.11818181818182438,
                "tempo": 120.0
            },
            {
                "start_time": 145.825,
                "end_time": 145.9409090909091,
                "pitch": 37,
                "velocity": 51,
                "duration": 0.11590909090909918,
                "tempo": 120.0
            },
            {
                "start_time": 145.9590909090909,
                "end_time": 146.075,
                "pitch": 37,
                "velocity": 51,
                "duration": 0.11590909090909918,
                "tempo": 120.0
            },
            {
                "start_time": 146.0909090909091,
                "end_time": 146.34318181818182,
                "pitch": 36,
                "velocity": 51,
                "duration": 0.2522727272727252,
                "tempo": 120.0
            },
            {
                "start_time": 146.36136363636362,
                "end_time": 146.47727272727272,
                "pitch": 36,
                "velocity": 51,
                "duration": 0.11590909090909918,
                "tempo": 120.0
            },
            {
                "start_time": 146.49545454545455,
                "end_time": 146.61136363636362,
                "pitch": 36,
                "velocity": 51,
                "duration": 0.11590909090907076,
                "tempo": 120.0
            },
            {
                "start_time": 146.62954545454545,
                "end_time": 146.74545454545455,
                "pitch": 36,
                "velocity": 51,
                "duration": 0.11590909090909918,
                "tempo": 120.0
            },
            {
                "start_time": 146.76363636363635,
                "end_time": 146.87954545454545,
                "pitch": 36,
                "velocity": 51,
                "duration": 0.11590909090909918,
                "tempo": 120.0
            },
            {
                "start_time": 146.89772727272725,
                "end_time": 147.15,
                "pitch": 34,
                "velocity": 51,
                "duration": 0.2522727272727536,
                "tempo": 120.0
            },
            {
                "start_time": 147.16590909090908,
                "end_time": 147.42045454545453,
                "pitch": 41,
                "velocity": 51,
                "duration": 0.2545454545454504,
                "tempo": 120.0
            },
            {
                "start_time": 147.43636363636364,
                "end_time": 147.6931818181818,
                "pitch": 34,
                "velocity": 51,
                "duration": 0.2568181818181756,
                "tempo": 120.0
            },
            {
                "start_time": 147.71136363636364,
                "end_time": 147.95681818181816,
                "pitch": 34,
                "velocity": 51,
                "duration": 0.24545454545452117,
                "tempo": 120.0
            },
            {
                "start_time": 147.97272727272727,
                "end_time": 148.08636363636364,
                "pitch": 34,
                "velocity": 51,
                "duration": 0.11363636363637397,
                "tempo": 120.0
            },
            {
                "start_time": 148.10227272727272,
                "end_time": 148.22045454545454,
                "pitch": 34,
                "velocity": 51,
                "duration": 0.11818181818182438,
                "tempo": 120.0
            },
            {
                "start_time": 148.23636363636362,
                "end_time": 148.35454545454544,
                "pitch": 34,
                "velocity": 51,
                "duration": 0.11818181818182438,
                "tempo": 120.0
            },
            {
                "start_time": 148.37045454545455,
                "end_time": 148.48863636363635,
                "pitch": 34,
                "velocity": 51,
                "duration": 0.11818181818179596,
                "tempo": 120.0
            },
            {
                "start_time": 148.50454545454545,
                "end_time": 148.75681818181818,
                "pitch": 46,
                "velocity": 51,
                "duration": 0.2522727272727252,
                "tempo": 120.0
            },
            {
                "start_time": 148.775,
                "end_time": 148.89090909090908,
                "pitch": 44,
                "velocity": 51,
                "duration": 0.11590909090907076,
                "tempo": 120.0
            },
            {
                "start_time": 148.9090909090909,
                "end_time": 149.1590909090909,
                "pitch": 44,
                "velocity": 51,
                "duration": 0.25,
                "tempo": 120.0
            },
            {
                "start_time": 149.1772727272727,
                "end_time": 149.2931818181818,
                "pitch": 46,
                "velocity": 51,
                "duration": 0.11590909090909918,
                "tempo": 120.0
            },
            {
                "start_time": 149.31136363636364,
                "end_time": 149.56363636363636,
                "pitch": 34,
                "velocity": 51,
                "duration": 0.2522727272727252,
                "tempo": 120.0
            },
            {
                "start_time": 149.57954545454544,
                "end_time": 149.69772727272726,
                "pitch": 34,
                "velocity": 51,
                "duration": 0.11818181818182438,
                "tempo": 120.0
            },
            {
                "start_time": 149.71363636363637,
                "end_time": 149.82954545454544,
                "pitch": 34,
                "velocity": 51,
                "duration": 0.11590909090907076,
                "tempo": 120.0
            },
            {
                "start_time": 149.84772727272727,
                "end_time": 149.96363636363637,
                "pitch": 34,
                "velocity": 51,
                "duration": 0.11590909090909918,
                "tempo": 120.0
            },
            {
                "start_time": 149.97954545454544,
                "end_time": 150.09772727272727,
                "pitch": 34,
                "velocity": 51,
                "duration": 0.11818181818182438,
                "tempo": 120.0
            },
            {
                "start_time": 150.11363636363635,
                "end_time": 150.36590909090907,
                "pitch": 42,
                "velocity": 51,
                "duration": 0.2522727272727252,
                "tempo": 120.0
            },
            {
                "start_time": 150.38181818181818,
                "end_time": 150.5,
                "pitch": 44,
                "velocity": 51,
                "duration": 0.11818181818182438,
                "tempo": 120.0
            },
            {
                "start_time": 150.51590909090908,
                "end_time": 150.63636363636363,
                "pitch": 44,
                "velocity": 51,
                "duration": 0.12045454545454959,
                "tempo": 120.0
            },
            {
                "start_time": 150.65227272727273,
                "end_time": 150.77272727272725,
                "pitch": 34,
                "velocity": 51,
                "duration": 0.12045454545452117,
                "tempo": 120.0
            },
            {
                "start_time": 150.79090909090908,
                "end_time": 150.9090909090909,
                "pitch": 34,
                "velocity": 51,
                "duration": 0.11818181818182438,
                "tempo": 120.0
            },
            {
                "start_time": 150.9272727272727,
                "end_time": 151.17272727272726,
                "pitch": 34,
                "velocity": 51,
                "duration": 0.2454545454545496,
                "tempo": 120.0
            },
            {
                "start_time": 151.18863636363636,
                "end_time": 151.3022727272727,
                "pitch": 34,
                "velocity": 51,
                "duration": 0.11363636363634555,
                "tempo": 120.0
            },
            {
                "start_time": 151.3181818181818,
                "end_time": 151.43636363636364,
                "pitch": 34,
                "velocity": 51,
                "duration": 0.11818181818182438,
                "tempo": 120.0
            },
            {
                "start_time": 151.45454545454544,
                "end_time": 151.57045454545454,
                "pitch": 34,
                "velocity": 51,
                "duration": 0.11590909090909918,
                "tempo": 120.0
            },
            {
                "start_time": 151.58863636363637,
                "end_time": 151.70454545454544,
                "pitch": 34,
                "velocity": 51,
                "duration": 0.11590909090907076,
                "tempo": 120.0
            },
            {
                "start_time": 151.72272727272727,
                "end_time": 151.97272727272727,
                "pitch": 46,
                "velocity": 51,
                "duration": 0.25,
                "tempo": 120.0
            },
            {
                "start_time": 151.98863636363635,
                "end_time": 152.10454545454544,
                "pitch": 44,
                "velocity": 51,
                "duration": 0.11590909090909918,
                "tempo": 120.0
            },
            {
                "start_time": 152.12272727272727,
                "end_time": 152.37272727272727,
                "pitch": 44,
                "velocity": 51,
                "duration": 0.25,
                "tempo": 120.0
            },
            {
                "start_time": 152.39090909090908,
                "end_time": 152.50681818181818,
                "pitch": 46,
                "velocity": 51,
                "duration": 0.11590909090909918,
                "tempo": 120.0
            },
            {
                "start_time": 152.525,
                "end_time": 152.77727272727273,
                "pitch": 34,
                "velocity": 51,
                "duration": 0.2522727272727252,
                "tempo": 120.0
            },
            {
                "start_time": 152.7931818181818,
                "end_time": 152.91136363636363,
                "pitch": 34,
                "velocity": 51,
                "duration": 0.11818181818182438,
                "tempo": 120.0
            },
            {
                "start_time": 152.9272727272727,
                "end_time": 153.04545454545453,
                "pitch": 34,
                "velocity": 51,
                "duration": 0.11818181818182438,
                "tempo": 120.0
            },
            {
                "start_time": 153.06136363636364,
                "end_time": 153.17954545454543,
                "pitch": 34,
                "velocity": 51,
                "duration": 0.11818181818179596,
                "tempo": 120.0
            },
            {
                "start_time": 153.19545454545454,
                "end_time": 153.31363636363636,
                "pitch": 34,
                "velocity": 51,
                "duration": 0.11818181818182438,
                "tempo": 120.0
            },
            {
                "start_time": 153.32954545454544,
                "end_time": 153.58181818181816,
                "pitch": 42,
                "velocity": 51,
                "duration": 0.2522727272727252,
                "tempo": 120.0
            },
            {
                "start_time": 153.59772727272727,
                "end_time": 153.7159090909091,
                "pitch": 44,
                "velocity": 51,
                "duration": 0.11818181818182438,
                "tempo": 120.0
            },
            {
                "start_time": 153.73181818181817,
                "end_time": 153.85227272727272,
                "pitch": 44,
                "velocity": 51,
                "duration": 0.12045454545454959,
                "tempo": 120.0
            },
            {
                "start_time": 153.87045454545455,
                "end_time": 153.98863636363635,
                "pitch": 34,
                "velocity": 51,
                "duration": 0.11818181818179596,
                "tempo": 120.0
            },
            {
                "start_time": 154.00681818181818,
                "end_time": 154.12727272727273,
                "pitch": 34,
                "velocity": 51,
                "duration": 0.12045454545454959,
                "tempo": 120.0
            },
            {
                "start_time": 154.1431818181818,
                "end_time": 154.29545454545453,
                "pitch": 44,
                "velocity": 51,
                "duration": 0.1522727272727309,
                "tempo": 120.0
            }
        ]
    }
}