{
    "track_id": "Miracle Warriors - Seal of the Dark Lord (FM) - 08 - Battle Victory",
    "mood": "angry",
    "instruments": {
        "Lead 2 (sawtooth)": [
            {
                "start_time": 0.015909090909090907,
                "end_time": 0.18409090909090908,
                "pitch": 51,
                "velocity": 51,
                "duration": 0.16818181818181818,
                "tempo": 120.0
            },
            {
                "start_time": 0.19999999999999998,
                "end_time": 0.3840909090909091,
                "pitch": 51,
                "velocity": 51,
                "duration": 0.1840909090909091,
                "tempo": 120.0
            },
            {
                "start_time": 0.39999999999999997,
                "end_time": 0.5795454545454545,
                "pitch": 51,
                "velocity": 51,
                "duration": 0.1795454545454545,
                "tempo": 120.0
            },
            {
                "start_time": 0.5954545454545455,
                "end_time": 0.7749999999999999,
                "pitch": 51,
                "velocity": 51,
                "duration": 0.17954545454545445,
                "tempo": 120.0
            },
            {
                "start_time": 0.7931818181818181,
                "end_time": 0.975,
                "pitch": 51,
                "velocity": 51,
                "duration": 0.18181818181818188,
                "tempo": 120.0
            },
            {
                "start_time": 0.9931818181818182,
                "end_time": 1.175,
                "pitch": 51,
                "velocity": 51,
                "duration": 0.18181818181818188,
                "tempo": 120.0
            },
            {
                "start_time": 1.1931818181818181,
                "end_time": 1.3795454545454544,
                "pitch": 51,
                "velocity": 51,
                "duration": 0.1863636363636363,
                "tempo": 120.0
            },
            {
                "start_time": 1.3977272727272727,
                "end_time": 1.5863636363636362,
                "pitch": 51,
                "velocity": 51,
                "duration": 0.1886363636363635,
                "tempo": 120.0
            },
            {
                "start_time": 1.6022727272727273,
                "end_time": 1.7818181818181817,
                "pitch": 44,
                "velocity": 51,
                "duration": 0.17954545454545445,
                "tempo": 120.0
            },
            {
                "start_time": 1.7999999999999998,
                "end_time": 1.8795454545454544,
                "pitch": 44,
                "velocity": 51,
                "duration": 0.07954545454545459,
                "tempo": 120.0
            },
            {
                "start_time": 1.8977272727272727,
                "end_time": 1.9795454545454545,
                "pitch": 44,
                "velocity": 51,
                "duration": 0.08181818181818179,
                "tempo": 120.0
            },
            {
                "start_time": 1.9954545454545454,
                "end_time": 2.1818181818181817,
                "pitch": 44,
                "velocity": 51,
                "duration": 0.1863636363636363,
                "tempo": 120.0
            },
            {
                "start_time": 2.1999999999999997,
                "end_time": 2.286363636363636,
                "pitch": 44,
                "velocity": 51,
                "duration": 0.08636363636363642,
                "tempo": 120.0
            },
            {
                "start_time": 2.3022727272727272,
                "end_time": 2.3886363636363637,
                "pitch": 44,
                "velocity": 51,
                "duration": 0.08636363636363642,
                "tempo": 120.0
            },
            {
                "start_time": 2.4045454545454543,
                "end_time": 2.5863636363636364,
                "pitch": 44,
                "velocity": 51,
                "duration": 0.1818181818181821,
                "tempo": 120.0
            },
            {
                "start_time": 2.602272727272727,
                "end_time": 2.684090909090909,
                "pitch": 44,
                "velocity": 51,
                "duration": 0.08181818181818201,
                "tempo": 120.0
            },
            {
                "start_time": 2.6999999999999997,
                "end_time": 2.7818181818181817,
                "pitch": 44,
                "velocity": 51,
                "duration": 0.08181818181818201,
                "tempo": 120.0
            },
            {
                "start_time": 2.7977272727272724,
                "end_time": 2.9863636363636363,
                "pitch": 44,
                "velocity": 51,
                "duration": 0.18863636363636394,
                "tempo": 120.0
            },
            {
                "start_time": 3.002272727272727,
                "end_time": 3.0886363636363634,
                "pitch": 44,
                "velocity": 51,
                "duration": 0.08636363636363642,
                "tempo": 120.0
            },
            {
                "start_time": 3.1045454545454545,
                "end_time": 3.190909090909091,
                "pitch": 44,
                "velocity": 51,
                "duration": 0.08636363636363642,
                "tempo": 120.0
            },
            {
                "start_time": 3.209090909090909,
                "end_time": 3.3886363636363637,
                "pitch": 44,
                "velocity": 51,
                "duration": 0.17954545454545467,
                "tempo": 120.0
            },
            {
                "start_time": 3.4045454545454543,
                "end_time": 3.4863636363636363,
                "pitch": 44,
                "velocity": 51,
                "duration": 0.08181818181818201,
                "tempo": 120.0
            },
            {
                "start_time": 3.502272727272727,
                "end_time": 3.584090909090909,
                "pitch": 44,
                "velocity": 51,
                "duration": 0.08181818181818201,
                "tempo": 120.0
            },
            {
                "start_time": 3.5999999999999996,
                "end_time": 3.7840909090909087,
                "pitch": 44,
                "velocity": 51,
                "duration": 0.18409090909090908,
                "tempo": 120.0
            },
            {
                "start_time": 3.8,
                "end_time": 3.884090909090909,
                "pitch": 44,
                "velocity": 51,
                "duration": 0.084090909090909,
                "tempo": 120.0
            },
            {
                "start_time": 3.9,
                "end_time": 3.984090909090909,
                "pitch": 44,
                "velocity": 51,
                "duration": 0.084090909090909,
                "tempo": 120.0
            },
            {
                "start_time": 4.0,
                "end_time": 4.184090909090909,
                "pitch": 44,
                "velocity": 51,
                "duration": 0.18409090909090864,
                "tempo": 120.0
            },
            {
                "start_time": 4.2,
                "end_time": 4.284090909090909,
                "pitch": 44,
                "velocity": 51,
                "duration": 0.084090909090909,
                "tempo": 120.0
            },
            {
                "start_time": 4.3,
                "end_time": 4.384090909090909,
                "pitch": 44,
                "velocity": 51,
                "duration": 0.084090909090909,
                "tempo": 120.0
            },
            {
                "start_time": 4.3999999999999995,
                "end_time": 4.584090909090909,
                "pitch": 44,
                "velocity": 51,
                "duration": 0.18409090909090953,
                "tempo": 120.0
            },
            {
                "start_time": 4.602272727272727,
                "end_time": 4.6863636363636365,
                "pitch": 44,
                "velocity": 51,
                "duration": 0.08409090909090988,
                "tempo": 120.0
            },
            {
                "start_time": 4.702272727272727,
                "end_time": 4.786363636363636,
                "pitch": 43,
                "velocity": 51,
                "duration": 0.084090909090909,
                "tempo": 120.0
            },
            {
                "start_time": 4.802272727272727,
                "end_time": 4.986363636363636,
                "pitch": 42,
                "velocity": 51,
                "duration": 0.18409090909090953,
                "tempo": 120.0
            },
            {
                "start_time": 5.002272727272727,
                "end_time": 5.086363636363636,
                "pitch": 42,
                "velocity": 51,
                "duration": 0.084090909090909,
                "tempo": 120.0
            },
            {
                "start_time": 5.102272727272727,
                "end_time": 5.1863636363636365,
                "pitch": 42,
                "velocity": 51,
                "duration": 0.08409090909090988,
                "tempo": 120.0
            },
            {
                "start_time": 5.202272727272727,
                "end_time": 5.390909090909091,
                "pitch": 42,
                "velocity": 51,
                "duration": 0.1886363636363635,
                "tempo": 120.0
            },
            {
                "start_time": 5.409090909090909,
                "end_time": 5.493181818181818,
                "pitch": 42,
                "velocity": 51,
                "duration": 0.084090909090909,
                "tempo": 120.0
            },
            {
                "start_time": 5.511363636363636,
                "end_time": 5.595454545454545,
                "pitch": 42,
                "velocity": 51,
                "duration": 0.084090909090909,
                "tempo": 120.0
            },
            {
                "start_time": 5.613636363636363,
                "end_time": 5.793181818181818,
                "pitch": 42,
                "velocity": 51,
                "duration": 0.17954545454545467,
                "tempo": 120.0
            },
            {
                "start_time": 5.809090909090909,
                "end_time": 5.890909090909091,
                "pitch": 42,
                "velocity": 51,
                "duration": 0.08181818181818201,
                "tempo": 120.0
            },
            {
                "start_time": 5.906818181818181,
                "end_time": 5.988636363636363,
                "pitch": 42,
                "velocity": 51,
                "duration": 0.08181818181818201,
                "tempo": 120.0
            },
            {
                "start_time": 6.006818181818182,
                "end_time": 6.1909090909090905,
                "pitch": 42,
                "velocity": 51,
                "duration": 0.18409090909090864,
                "tempo": 120.0
            },
            {
                "start_time": 6.206818181818181,
                "end_time": 6.290909090909091,
                "pitch": 42,
                "velocity": 51,
                "duration": 0.08409090909090988,
                "tempo": 120.0
            },
            {
                "start_time": 6.306818181818182,
                "end_time": 6.390909090909091,
                "pitch": 42,
                "velocity": 51,
                "duration": 0.084090909090909,
                "tempo": 120.0
            },
            {
                "start_time": 6.409090909090909,
                "end_time": 6.593181818181818,
                "pitch": 42,
                "velocity": 51,
                "duration": 0.18409090909090864,
                "tempo": 120.0
            },
            {
                "start_time": 6.6090909090909085,
                "end_time": 6.6931818181818175,
                "pitch": 42,
                "velocity": 51,
                "duration": 0.084090909090909,
                "tempo": 120.0
            },
            {
                "start_time": 6.711363636363636,
                "end_time": 6.795454545454545,
                "pitch": 42,
                "velocity": 51,
                "duration": 0.084090909090909,
                "tempo": 120.0
            },
            {
                "start_time": 6.811363636363636,
                "end_time": 6.995454545454545,
                "pitch": 42,
                "velocity": 51,
                "duration": 0.18409090909090953,
                "tempo": 120.0
            },
            {
                "start_time": 7.011363636363636,
                "end_time": 7.095454545454545,
                "pitch": 42,
                "velocity": 51,
                "duration": 0.084090909090909,
                "tempo": 120.0
            },
            {
                "start_time": 7.111363636363636,
                "end_time": 7.195454545454545,
                "pitch": 42,
                "velocity": 51,
                "duration": 0.084090909090909,
                "tempo": 120.0
            },
            {
                "start_time": 7.211363636363636,
                "end_time": 7.3954545454545455,
                "pitch": 42,
                "velocity": 51,
                "duration": 0.18409090909090953,
                "tempo": 120.0
            },
            {
                "start_time": 7.413636363636363,
                "end_time": 7.495454545454545,
                "pitch": 42,
                "velocity": 51,
                "duration": 0.08181818181818201,
                "tempo": 120.0
            },
            {
                "start_time": 7.513636363636364,
                "end_time": 7.597727272727273,
                "pitch": 42,
                "velocity": 51,
                "duration": 0.084090909090909,
                "tempo": 120.0
            },
            {
                "start_time": 7.613636363636363,
                "end_time": 7.797727272727272,
                "pitch": 42,
                "velocity": 51,
                "duration": 0.18409090909090864,
                "tempo": 120.0
            },
            {
                "start_time": 7.8136363636363635,
                "end_time": 7.8977272727272725,
                "pitch": 42,
                "velocity": 51,
                "duration": 0.084090909090909,
                "tempo": 120.0
            },
            {
                "start_time": 7.913636363636363,
                "end_time": 7.997727272727272,
                "pitch": 42,
                "velocity": 51,
                "duration": 0.084090909090909,
                "tempo": 120.0
            },
            {
                "start_time": 8.013636363636364,
                "end_time": 8.197727272727272,
                "pitch": 40,
                "velocity": 51,
                "duration": 0.18409090909090864,
                "tempo": 120.0
            },
            {
                "start_time": 8.21590909090909,
                "end_time": 8.299999999999999,
                "pitch": 40,
                "velocity": 51,
                "duration": 0.084090909090909,
                "tempo": 120.0
            },
            {
                "start_time": 8.315909090909091,
                "end_time": 8.4,
                "pitch": 40,
                "velocity": 51,
                "duration": 0.084090909090909,
                "tempo": 120.0
            },
            {
                "start_time": 8.415909090909091,
                "end_time": 8.6,
                "pitch": 40,
                "velocity": 51,
                "duration": 0.18409090909090864,
                "tempo": 120.0
            },
            {
                "start_time": 8.618181818181817,
                "end_time": 8.702272727272726,
                "pitch": 40,
                "velocity": 51,
                "duration": 0.084090909090909,
                "tempo": 120.0
            },
            {
                "start_time": 8.718181818181817,
                "end_time": 8.802272727272728,
                "pitch": 40,
                "velocity": 51,
                "duration": 0.08409090909091077,
                "tempo": 120.0
            },
            {
                "start_time": 8.818181818181818,
                "end_time": 9.004545454545454,
                "pitch": 40,
                "velocity": 51,
                "duration": 0.18636363636363562,
                "tempo": 120.0
            },
            {
                "start_time": 9.020454545454545,
                "end_time": 9.104545454545454,
                "pitch": 40,
                "velocity": 51,
                "duration": 0.084090909090909,
                "tempo": 120.0
            },
            {
                "start_time": 9.120454545454544,
                "end_time": 9.204545454545453,
                "pitch": 40,
                "velocity": 51,
                "duration": 0.084090909090909,
                "tempo": 120.0
            },
            {
                "start_time": 9.222727272727273,
                "end_time": 9.404545454545454,
                "pitch": 40,
                "velocity": 51,
                "duration": 0.18181818181818166,
                "tempo": 120.0
            },
            {
                "start_time": 9.422727272727272,
                "end_time": 9.504545454545454,
                "pitch": 40,
                "velocity": 51,
                "duration": 0.08181818181818201,
                "tempo": 120.0
            },
            {
                "start_time": 9.522727272727272,
                "end_time": 9.604545454545454,
                "pitch": 40,
                "velocity": 51,
                "duration": 0.08181818181818201,
                "tempo": 120.0
            },
            {
                "start_time": 9.622727272727273,
                "end_time": 9.806818181818182,
                "pitch": 40,
                "velocity": 51,
                "duration": 0.18409090909090864,
                "tempo": 120.0
            },
            {
                "start_time": 9.822727272727272,
                "end_time": 9.906818181818181,
                "pitch": 40,
                "velocity": 51,
                "duration": 0.084090909090909,
                "tempo": 120.0
            },
            {
                "start_time": 9.924999999999999,
                "end_time": 10.006818181818181,
                "pitch": 40,
                "velocity": 51,
                "duration": 0.08181818181818201,
                "tempo": 120.0
            },
            {
                "start_time": 10.025,
                "end_time": 10.209090909090909,
                "pitch": 40,
                "velocity": 51,
                "duration": 0.18409090909090864,
                "tempo": 120.0
            },
            {
                "start_time": 10.225,
                "end_time": 10.309090909090909,
                "pitch": 40,
                "velocity": 51,
                "duration": 0.084090909090909,
                "tempo": 120.0
            },
            {
                "start_time": 10.327272727272726,
                "end_time": 10.411363636363635,
                "pitch": 40,
                "velocity": 51,
                "duration": 0.084090909090909,
                "tempo": 120.0
            },
            {
                "start_time": 10.427272727272726,
                "end_time": 10.611363636363636,
                "pitch": 40,
                "velocity": 51,
                "duration": 0.18409090909091042,
                "tempo": 120.0
            },
            {
                "start_time": 10.629545454545454,
                "end_time": 10.713636363636363,
                "pitch": 40,
                "velocity": 51,
                "duration": 0.084090909090909,
                "tempo": 120.0
            },
            {
                "start_time": 10.729545454545454,
                "end_time": 10.813636363636363,
                "pitch": 40,
                "velocity": 51,
                "duration": 0.084090909090909,
                "tempo": 120.0
            },
            {
                "start_time": 10.829545454545453,
                "end_time": 11.013636363636364,
                "pitch": 40,
                "velocity": 51,
                "duration": 0.18409090909091042,
                "tempo": 120.0
            },
            {
                "start_time": 11.031818181818181,
                "end_time": 11.11590909090909,
                "pitch": 40,
                "velocity": 51,
                "duration": 0.084090909090909,
                "tempo": 120.0
            },
            {
                "start_time": 11.131818181818181,
                "end_time": 11.21590909090909,
                "pitch": 40,
                "velocity": 51,
                "duration": 0.084090909090909,
                "tempo": 120.0
            },
            {
                "start_time": 11.23181818181818,
                "end_time": 11.415909090909091,
                "pitch": 42,
                "velocity": 51,
                "duration": 0.18409090909091042,
                "tempo": 120.0
            },
            {
                "start_time": 11.431818181818182,
                "end_time": 11.51590909090909,
                "pitch": 42,
                "velocity": 51,
                "duration": 0.084090909090909,
                "tempo": 120.0
            },
            {
                "start_time": 11.531818181818181,
                "end_time": 11.61590909090909,
                "pitch": 42,
                "velocity": 51,
                "duration": 0.084090909090909,
                "tempo": 120.0
            },
            {
                "start_time": 11.631818181818181,
                "end_time": 11.818181818181818,
                "pitch": 54,
                "velocity": 51,
                "duration": 0.1863636363636374,
                "tempo": 120.0
            },
            {
                "start_time": 11.834090909090909,
                "end_time": 11.918181818181818,
                "pitch": 54,
                "velocity": 51,
                "duration": 0.084090909090909,
                "tempo": 120.0
            },
            {
                "start_time": 11.934090909090909,
                "end_time": 12.018181818181818,
                "pitch": 54,
                "velocity": 51,
                "duration": 0.084090909090909,
                "tempo": 120.0
            },
            {
                "start_time": 12.036363636363635,
                "end_time": 12.220454545454546,
                "pitch": 54,
                "velocity": 51,
                "duration": 0.18409090909091042,
                "tempo": 120.0
            },
            {
                "start_time": 12.236363636363636,
                "end_time": 12.320454545454545,
                "pitch": 54,
                "velocity": 51,
                "duration": 0.084090909090909,
                "tempo": 120.0
            },
            {
                "start_time": 12.336363636363636,
                "end_time": 12.420454545454545,
                "pitch": 54,
                "velocity": 51,
                "duration": 0.084090909090909,
                "tempo": 120.0
            },
            {
                "start_time": 12.438636363636363,
                "end_time": 12.627272727272727,
                "pitch": 54,
                "velocity": 51,
                "duration": 0.18863636363636438,
                "tempo": 120.0
            },
            {
                "start_time": 12.643181818181818,
                "end_time": 12.729545454545454,
                "pitch": 42,
                "velocity": 51,
                "duration": 0.08636363636363598,
                "tempo": 120.0
            },
            {
                "start_time": 12.745454545454544,
                "end_time": 12.831818181818182,
                "pitch": 42,
                "velocity": 51,
                "duration": 0.08636363636363775,
                "tempo": 120.0
            },
            {
                "start_time": 12.847727272727273,
                "end_time": 13.029545454545454,
                "pitch": 42,
                "velocity": 51,
                "duration": 0.18181818181818166,
                "tempo": 120.0
            },
            {
                "start_time": 13.045454545454545,
                "end_time": 13.225,
                "pitch": 54,
                "velocity": 51,
                "duration": 0.17954545454545467,
                "tempo": 120.0
            },
            {
                "start_time": 13.24090909090909,
                "end_time": 13.424999999999999,
                "pitch": 56,
                "velocity": 51,
                "duration": 0.18409090909090864,
                "tempo": 120.0
            },
            {
                "start_time": 13.44090909090909,
                "end_time": 13.625,
                "pitch": 58,
                "velocity": 51,
                "duration": 0.18409090909091042,
                "tempo": 120.0
            },
            {
                "start_time": 13.64090909090909,
                "end_time": 13.825,
                "pitch": 59,
                "velocity": 51,
                "duration": 0.18409090909090864,
                "tempo": 120.0
            },
            {
                "start_time": 13.843181818181817,
                "end_time": 14.027272727272727,
                "pitch": 58,
                "velocity": 51,
                "duration": 0.18409090909091042,
                "tempo": 120.0
            },
            {
                "start_time": 14.043181818181818,
                "end_time": 14.227272727272727,
                "pitch": 56,
                "velocity": 51,
                "duration": 0.18409090909090864,
                "tempo": 120.0
            },
            {
                "start_time": 14.245454545454544,
                "end_time": 14.429545454545455,
                "pitch": 54,
                "velocity": 51,
                "duration": 0.18409090909091042,
                "tempo": 120.0
            },
            {
                "start_time": 14.445454545454545,
                "end_time": 14.631818181818181,
                "pitch": 44,
                "velocity": 51,
                "duration": 0.18636363636363562,
                "tempo": 120.0
            },
            {
                "start_time": 14.647727272727272,
                "end_time": 14.73181818181818,
                "pitch": 44,
                "velocity": 51,
                "duration": 0.084090909090909,
                "tempo": 120.0
            },
            {
                "start_time": 14.747727272727271,
                "end_time": 14.83181818181818,
                "pitch": 44,
                "velocity": 51,
                "duration": 0.084090909090909,
                "tempo": 120.0
            },
            {
                "start_time": 14.85,
                "end_time": 15.036363636363635,
                "pitch": 44,
                "velocity": 51,
                "duration": 0.18636363636363562,
                "tempo": 120.0
            },
            {
                "start_time": 15.054545454545455,
                "end_time": 15.14090909090909,
                "pitch": 44,
                "velocity": 51,
                "duration": 0.08636363636363598,
                "tempo": 120.0
            },
            {
                "start_time": 15.156818181818181,
                "end_time": 15.243181818181817,
                "pitch": 44,
                "velocity": 51,
                "duration": 0.08636363636363598,
                "tempo": 120.0
            },
            {
                "start_time": 15.259090909090908,
                "end_time": 15.438636363636363,
                "pitch": 44,
                "velocity": 51,
                "duration": 0.17954545454545467,
                "tempo": 120.0
            },
            {
                "start_time": 15.45681818181818,
                "end_time": 15.538636363636362,
                "pitch": 44,
                "velocity": 51,
                "duration": 0.08181818181818201,
                "tempo": 120.0
            },
            {
                "start_time": 15.554545454545455,
                "end_time": 15.636363636363635,
                "pitch": 44,
                "velocity": 51,
                "duration": 0.08181818181818024,
                "tempo": 120.0
            },
            {
                "start_time": 15.652272727272727,
                "end_time": 15.836363636363636,
                "pitch": 44,
                "velocity": 51,
                "duration": 0.18409090909090864,
                "tempo": 120.0
            },
            {
                "start_time": 15.852272727272727,
                "end_time": 15.936363636363636,
                "pitch": 44,
                "velocity": 51,
                "duration": 0.084090909090909,
                "tempo": 120.0
            },
            {
                "start_time": 15.954545454545453,
                "end_time": 16.038636363636364,
                "pitch": 44,
                "velocity": 51,
                "duration": 0.08409090909091077,
                "tempo": 120.0
            },
            {
                "start_time": 16.054545454545455,
                "end_time": 16.238636363636363,
                "pitch": 44,
                "velocity": 51,
                "duration": 0.18409090909090864,
                "tempo": 120.0
            },
            {
                "start_time": 16.256818181818183,
                "end_time": 16.34090909090909,
                "pitch": 44,
                "velocity": 51,
                "duration": 0.08409090909090722,
                "tempo": 120.0
            },
            {
                "start_time": 16.35681818181818,
                "end_time": 16.44090909090909,
                "pitch": 44,
                "velocity": 51,
                "duration": 0.08409090909091077,
                "tempo": 120.0
            },
            {
                "start_time": 16.456818181818182,
                "end_time": 16.645454545454545,
                "pitch": 44,
                "velocity": 51,
                "duration": 0.1886363636363626,
                "tempo": 120.0
            },
            {
                "start_time": 16.663636363636364,
                "end_time": 16.74772727272727,
                "pitch": 44,
                "velocity": 51,
                "duration": 0.08409090909090722,
                "tempo": 120.0
            },
            {
                "start_time": 16.76590909090909,
                "end_time": 16.849999999999998,
                "pitch": 44,
                "velocity": 51,
                "duration": 0.08409090909090722,
                "tempo": 120.0
            },
            {
                "start_time": 16.868181818181817,
                "end_time": 17.047727272727272,
                "pitch": 44,
                "velocity": 51,
                "duration": 0.17954545454545467,
                "tempo": 120.0
            },
            {
                "start_time": 17.063636363636363,
                "end_time": 17.145454545454545,
                "pitch": 44,
                "velocity": 51,
                "duration": 0.08181818181818201,
                "tempo": 120.0
            },
            {
                "start_time": 17.161363636363635,
                "end_time": 17.243181818181817,
                "pitch": 44,
                "velocity": 51,
                "duration": 0.08181818181818201,
                "tempo": 120.0
            },
            {
                "start_time": 17.259090909090908,
                "end_time": 17.443181818181817,
                "pitch": 44,
                "velocity": 51,
                "duration": 0.18409090909090864,
                "tempo": 120.0
            },
            {
                "start_time": 17.459090909090907,
                "end_time": 17.543181818181818,
                "pitch": 44,
                "velocity": 51,
                "duration": 0.08409090909091077,
                "tempo": 120.0
            },
            {
                "start_time": 17.55909090909091,
                "end_time": 17.643181818181816,
                "pitch": 43,
                "velocity": 51,
                "duration": 0.08409090909090722,
                "tempo": 120.0
            },
            {
                "start_time": 17.659090909090907,
                "end_time": 17.845454545454544,
                "pitch": 42,
                "velocity": 51,
                "duration": 0.1863636363636374,
                "tempo": 120.0
            },
            {
                "start_time": 17.861363636363635,
                "end_time": 17.945454545454545,
                "pitch": 42,
                "velocity": 51,
                "duration": 0.08409090909091077,
                "tempo": 120.0
            },
            {
                "start_time": 17.961363636363636,
                "end_time": 18.045454545454543,
                "pitch": 42,
                "velocity": 51,
                "duration": 0.08409090909090722,
                "tempo": 120.0
            },
            {
                "start_time": 18.063636363636363,
                "end_time": 18.245454545454546,
                "pitch": 42,
                "velocity": 51,
                "duration": 0.18181818181818343,
                "tempo": 120.0
            },
            {
                "start_time": 18.263636363636362,
                "end_time": 18.345454545454544,
                "pitch": 42,
                "velocity": 51,
                "duration": 0.08181818181818201,
                "tempo": 120.0
            },
            {
                "start_time": 18.363636363636363,
                "end_time": 18.445454545454545,
                "pitch": 42,
                "velocity": 51,
                "duration": 0.08181818181818201,
                "tempo": 120.0
            },
            {
                "start_time": 18.46363636363636,
                "end_time": 18.645454545454545,
                "pitch": 42,
                "velocity": 51,
                "duration": 0.18181818181818343,
                "tempo": 120.0
            },
            {
                "start_time": 18.663636363636364,
                "end_time": 18.745454545454546,
                "pitch": 42,
                "velocity": 51,
                "duration": 0.08181818181818201,
                "tempo": 120.0
            },
            {
                "start_time": 18.763636363636362,
                "end_time": 18.845454545454544,
                "pitch": 42,
                "velocity": 51,
                "duration": 0.08181818181818201,
                "tempo": 120.0
            },
            {
                "start_time": 18.863636363636363,
                "end_time": 19.047727272727272,
                "pitch": 42,
                "velocity": 51,
                "duration": 0.18409090909090864,
                "tempo": 120.0
            },
            {
                "start_time": 19.063636363636363,
                "end_time": 19.147727272727273,
                "pitch": 42,
                "velocity": 51,
                "duration": 0.08409090909091077,
                "tempo": 120.0
            },
            {
                "start_time": 19.16590909090909,
                "end_time": 19.24772727272727,
                "pitch": 42,
                "velocity": 51,
                "duration": 0.08181818181818201,
                "tempo": 120.0
            },
            {
                "start_time": 19.26590909090909,
                "end_time": 19.45,
                "pitch": 42,
                "velocity": 51,
                "duration": 0.18409090909090864,
                "tempo": 120.0
            },
            {
                "start_time": 19.46590909090909,
                "end_time": 19.55,
                "pitch": 42,
                "velocity": 51,
                "duration": 0.08409090909091077,
                "tempo": 120.0
            },
            {
                "start_time": 19.56590909090909,
                "end_time": 19.65,
                "pitch": 42,
                "velocity": 51,
                "duration": 0.08409090909090722,
                "tempo": 120.0
            },
            {
                "start_time": 19.66590909090909,
                "end_time": 19.849999999999998,
                "pitch": 42,
                "velocity": 51,
                "duration": 0.18409090909090864,
                "tempo": 120.0
            },
            {
                "start_time": 19.86590909090909,
                "end_time": 19.95,
                "pitch": 42,
                "velocity": 51,
                "duration": 0.08409090909091077,
                "tempo": 120.0
            },
            {
                "start_time": 19.96818181818182,
                "end_time": 20.052272727272726,
                "pitch": 42,
                "velocity": 51,
                "duration": 0.08409090909090722,
                "tempo": 120.0
            },
            {
                "start_time": 20.068181818181817,
                "end_time": 20.252272727272725,
                "pitch": 42,
                "velocity": 51,
                "duration": 0.18409090909090864,
                "tempo": 120.0
            },
            {
                "start_time": 20.268181818181816,
                "end_time": 20.352272727272727,
                "pitch": 42,
                "velocity": 51,
                "duration": 0.08409090909091077,
                "tempo": 120.0
            },
            {
                "start_time": 20.368181818181817,
                "end_time": 20.452272727272728,
                "pitch": 42,
                "velocity": 51,
                "duration": 0.08409090909091077,
                "tempo": 120.0
            },
            {
                "start_time": 20.46818181818182,
                "end_time": 20.652272727272727,
                "pitch": 42,
                "velocity": 51,
                "duration": 0.18409090909090864,
                "tempo": 120.0
            },
            {
                "start_time": 20.668181818181818,
                "end_time": 20.752272727272725,
                "pitch": 42,
                "velocity": 51,
                "duration": 0.08409090909090722,
                "tempo": 120.0
            },
            {
                "start_time": 20.768181818181816,
                "end_time": 20.852272727272727,
                "pitch": 42,
                "velocity": 51,
                "duration": 0.08409090909091077,
                "tempo": 120.0
            },
            {
                "start_time": 20.868181818181817,
                "end_time": 21.052272727272726,
                "pitch": 40,
                "velocity": 51,
                "duration": 0.18409090909090864,
                "tempo": 120.0
            },
            {
                "start_time": 21.070454545454545,
                "end_time": 21.154545454545453,
                "pitch": 40,
                "velocity": 51,
                "duration": 0.08409090909090722,
                "tempo": 120.0
            },
            {
                "start_time": 21.170454545454543,
                "end_time": 21.254545454545454,
                "pitch": 40,
                "velocity": 51,
                "duration": 0.08409090909091077,
                "tempo": 120.0
            },
            {
                "start_time": 21.270454545454545,
                "end_time": 21.454545454545453,
                "pitch": 40,
                "velocity": 51,
                "duration": 0.18409090909090864,
                "tempo": 120.0
            },
            {
                "start_time": 21.470454545454544,
                "end_time": 21.554545454545455,
                "pitch": 40,
                "velocity": 51,
                "duration": 0.08409090909091077,
                "tempo": 120.0
            },
            {
                "start_time": 21.570454545454545,
                "end_time": 21.654545454545453,
                "pitch": 40,
                "velocity": 51,
                "duration": 0.08409090909090722,
                "tempo": 120.0
            },
            {
                "start_time": 21.670454545454543,
                "end_time": 21.854545454545452,
                "pitch": 40,
                "velocity": 51,
                "duration": 0.18409090909090864,
                "tempo": 120.0
            },
            {
                "start_time": 21.87272727272727,
                "end_time": 21.956818181818182,
                "pitch": 40,
                "velocity": 51,
                "duration": 0.08409090909091077,
                "tempo": 120.0
            },
            {
                "start_time": 21.972727272727273,
                "end_time": 22.05681818181818,
                "pitch": 40,
                "velocity": 51,
                "duration": 0.08409090909090722,
                "tempo": 120.0
            },
            {
                "start_time": 22.07272727272727,
                "end_time": 22.25681818181818,
                "pitch": 40,
                "velocity": 51,
                "duration": 0.18409090909090864,
                "tempo": 120.0
            },
            {
                "start_time": 22.272727272727273,
                "end_time": 22.35681818181818,
                "pitch": 40,
                "velocity": 51,
                "duration": 0.08409090909090722,
                "tempo": 120.0
            },
            {
                "start_time": 22.37272727272727,
                "end_time": 22.456818181818182,
                "pitch": 40,
                "velocity": 51,
                "duration": 0.08409090909091077,
                "tempo": 120.0
            },
            {
                "start_time": 22.472727272727273,
                "end_time": 22.65681818181818,
                "pitch": 40,
                "velocity": 51,
                "duration": 0.18409090909090864,
                "tempo": 120.0
            },
            {
                "start_time": 22.672727272727272,
                "end_time": 22.75681818181818,
                "pitch": 40,
                "velocity": 51,
                "duration": 0.08409090909090722,
                "tempo": 120.0
            },
            {
                "start_time": 22.772727272727273,
                "end_time": 22.85681818181818,
                "pitch": 40,
                "velocity": 51,
                "duration": 0.08409090909090722,
                "tempo": 120.0
            },
            {
                "start_time": 22.87272727272727,
                "end_time": 23.05909090909091,
                "pitch": 40,
                "velocity": 51,
                "duration": 0.1863636363636374,
                "tempo": 120.0
            },
            {
                "start_time": 23.075,
                "end_time": 23.159090909090907,
                "pitch": 40,
                "velocity": 51,
                "duration": 0.08409090909090722,
                "tempo": 120.0
            },
            {
                "start_time": 23.174999999999997,
                "end_time": 23.259090909090908,
                "pitch": 40,
                "velocity": 51,
                "duration": 0.08409090909091077,
                "tempo": 120.0
            },
            {
                "start_time": 23.277272727272727,
                "end_time": 23.459090909090907,
                "pitch": 40,
                "velocity": 51,
                "duration": 0.18181818181817988,
                "tempo": 120.0
            },
            {
                "start_time": 23.477272727272727,
                "end_time": 23.55909090909091,
                "pitch": 40,
                "velocity": 51,
                "duration": 0.08181818181818201,
                "tempo": 120.0
            },
            {
                "start_time": 23.577272727272724,
                "end_time": 23.659090909090907,
                "pitch": 40,
                "velocity": 51,
                "duration": 0.08181818181818201,
                "tempo": 120.0
            },
            {
                "start_time": 23.677272727272726,
                "end_time": 23.861363636363635,
                "pitch": 40,
                "velocity": 51,
                "duration": 0.18409090909090864,
                "tempo": 120.0
            },
            {
                "start_time": 23.877272727272725,
                "end_time": 23.961363636363636,
                "pitch": 40,
                "velocity": 51,
                "duration": 0.08409090909091077,
                "tempo": 120.0
            },
            {
                "start_time": 23.977272727272727,
                "end_time": 24.061363636363634,
                "pitch": 40,
                "velocity": 51,
                "duration": 0.08409090909090722,
                "tempo": 120.0
            },
            {
                "start_time": 24.079545454545453,
                "end_time": 24.261363636363637,
                "pitch": 42,
                "velocity": 51,
                "duration": 0.18181818181818343,
                "tempo": 120.0
            },
            {
                "start_time": 24.279545454545453,
                "end_time": 24.461363636363636,
                "pitch": 42,
                "velocity": 51,
                "duration": 0.18181818181818343,
                "tempo": 120.0
            },
            {
                "start_time": 24.479545454545452,
                "end_time": 24.661363636363635,
                "pitch": 54,
                "velocity": 51,
                "duration": 0.18181818181818343,
                "tempo": 120.0
            },
            {
                "start_time": 24.679545454545455,
                "end_time": 24.761363636363637,
                "pitch": 42,
                "velocity": 51,
                "duration": 0.08181818181818201,
                "tempo": 120.0
            },
            {
                "start_time": 24.779545454545453,
                "end_time": 24.861363636363635,
                "pitch": 42,
                "velocity": 51,
                "duration": 0.08181818181818201,
                "tempo": 120.0
            },
            {
                "start_time": 24.879545454545454,
                "end_time": 25.063636363636363,
                "pitch": 42,
                "velocity": 51,
                "duration": 0.18409090909090864,
                "tempo": 120.0
            },
            {
                "start_time": 25.079545454545453,
                "end_time": 25.163636363636364,
                "pitch": 42,
                "velocity": 51,
                "duration": 0.08409090909091077,
                "tempo": 120.0
            },
            {
                "start_time": 25.18181818181818,
                "end_time": 25.26590909090909,
                "pitch": 42,
                "velocity": 51,
                "duration": 0.08409090909091077,
                "tempo": 120.0
            },
            {
                "start_time": 25.28181818181818,
                "end_time": 25.46590909090909,
                "pitch": 54,
                "velocity": 51,
                "duration": 0.18409090909090864,
                "tempo": 120.0
            },
            {
                "start_time": 25.48181818181818,
                "end_time": 25.66590909090909,
                "pitch": 42,
                "velocity": 51,
                "duration": 0.18409090909090864,
                "tempo": 120.0
            },
            {
                "start_time": 25.68181818181818,
                "end_time": 25.86590909090909,
                "pitch": 42,
                "velocity": 51,
                "duration": 0.18409090909090864,
                "tempo": 120.0
            },
            {
                "start_time": 25.884090909090908,
                "end_time": 26.068181818181817,
                "pitch": 44,
                "velocity": 51,
                "duration": 0.18409090909090864,
                "tempo": 120.0
            },
            {
                "start_time": 26.084090909090907,
                "end_time": 26.268181818181816,
                "pitch": 56,
                "velocity": 51,
                "duration": 0.18409090909090864,
                "tempo": 120.0
            },
            {
                "start_time": 26.284090909090907,
                "end_time": 26.468181818181815,
                "pitch": 44,
                "velocity": 51,
                "duration": 0.18409090909090864,
                "tempo": 120.0
            },
            {
                "start_time": 26.48409090909091,
                "end_time": 26.668181818181818,
                "pitch": 58,
                "velocity": 51,
                "duration": 0.18409090909090864,
                "tempo": 120.0
            },
            {
                "start_time": 26.68409090909091,
                "end_time": 26.868181818181817,
                "pitch": 46,
                "velocity": 51,
                "duration": 0.18409090909090864,
                "tempo": 120.0
            },
            {
                "start_time": 26.884090909090908,
                "end_time": 27.07272727272727,
                "pitch": 59,
                "velocity": 51,
                "duration": 0.1886363636363626,
                "tempo": 120.0
            },
            {
                "start_time": 27.08863636363636,
                "end_time": 27.277272727272727,
                "pitch": 47,
                "velocity": 51,
                "duration": 0.18863636363636616,
                "tempo": 120.0
            },
            {
                "start_time": 27.295454545454543,
                "end_time": 27.379545454545454,
                "pitch": 44,
                "velocity": 51,
                "duration": 0.08409090909091077,
                "tempo": 120.0
            },
            {
                "start_time": 27.395454545454545,
                "end_time": 27.479545454545452,
                "pitch": 44,
                "velocity": 51,
                "duration": 0.08409090909090722,
                "tempo": 120.0
            },
            {
                "start_time": 27.495454545454542,
                "end_time": 27.579545454545453,
                "pitch": 56,
                "velocity": 51,
                "duration": 0.08409090909091077,
                "tempo": 120.0
            },
            {
                "start_time": 27.597727272727273,
                "end_time": 27.68181818181818,
                "pitch": 44,
                "velocity": 51,
                "duration": 0.08409090909090722,
                "tempo": 120.0
            },
            {
                "start_time": 27.69772727272727,
                "end_time": 27.779545454545453,
                "pitch": 44,
                "velocity": 51,
                "duration": 0.08181818181818201,
                "tempo": 120.0
            },
            {
                "start_time": 27.795454545454543,
                "end_time": 27.877272727272725,
                "pitch": 44,
                "velocity": 51,
                "duration": 0.08181818181818201,
                "tempo": 120.0
            },
            {
                "start_time": 27.893181818181816,
                "end_time": 27.974999999999998,
                "pitch": 56,
                "velocity": 51,
                "duration": 0.08181818181818201,
                "tempo": 120.0
            },
            {
                "start_time": 27.993181818181817,
                "end_time": 28.07272727272727,
                "pitch": 44,
                "velocity": 51,
                "duration": 0.07954545454545325,
                "tempo": 120.0
            },
            {
                "start_time": 28.09090909090909,
                "end_time": 28.174999999999997,
                "pitch": 44,
                "velocity": 51,
                "duration": 0.08409090909090722,
                "tempo": 120.0
            },
            {
                "start_time": 28.193181818181817,
                "end_time": 28.277272727272727,
                "pitch": 44,
                "velocity": 51,
                "duration": 0.08409090909091077,
                "tempo": 120.0
            },
            {
                "start_time": 28.295454545454543,
                "end_time": 28.38181818181818,
                "pitch": 56,
                "velocity": 51,
                "duration": 0.08636363636363598,
                "tempo": 120.0
            },
            {
                "start_time": 28.39772727272727,
                "end_time": 28.48409090909091,
                "pitch": 44,
                "velocity": 51,
                "duration": 0.08636363636363953,
                "tempo": 120.0
            },
            {
                "start_time": 28.5,
                "end_time": 28.581818181818182,
                "pitch": 44,
                "velocity": 51,
                "duration": 0.08181818181818201,
                "tempo": 120.0
            },
            {
                "start_time": 28.597727272727273,
                "end_time": 28.679545454545455,
                "pitch": 44,
                "velocity": 51,
                "duration": 0.08181818181818201,
                "tempo": 120.0
            },
            {
                "start_time": 28.69772727272727,
                "end_time": 28.777272727272727,
                "pitch": 56,
                "velocity": 51,
                "duration": 0.0795454545454568,
                "tempo": 120.0
            },
            {
                "start_time": 28.795454545454543,
                "end_time": 28.877272727272725,
                "pitch": 44,
                "velocity": 51,
                "duration": 0.08181818181818201,
                "tempo": 120.0
            },
            {
                "start_time": 28.893181818181816,
                "end_time": 28.977272727272727,
                "pitch": 44,
                "velocity": 51,
                "duration": 0.08409090909091077,
                "tempo": 120.0
            },
            {
                "start_time": 28.993181818181817,
                "end_time": 29.077272727272724,
                "pitch": 44,
                "velocity": 51,
                "duration": 0.08409090909090722,
                "tempo": 120.0
            },
            {
                "start_time": 29.093181818181815,
                "end_time": 29.177272727272726,
                "pitch": 56,
                "velocity": 51,
                "duration": 0.08409090909091077,
                "tempo": 120.0
            },
            {
                "start_time": 29.195454545454545,
                "end_time": 29.279545454545453,
                "pitch": 44,
                "velocity": 51,
                "duration": 0.08409090909090722,
                "tempo": 120.0
            },
            {
                "start_time": 29.295454545454543,
                "end_time": 29.379545454545454,
                "pitch": 44,
                "velocity": 51,
                "duration": 0.08409090909091077,
                "tempo": 120.0
            },
            {
                "start_time": 29.395454545454545,
                "end_time": 29.479545454545452,
                "pitch": 44,
                "velocity": 51,
                "duration": 0.08409090909090722,
                "tempo": 120.0
            },
            {
                "start_time": 29.495454545454542,
                "end_time": 29.579545454545453,
                "pitch": 56,
                "velocity": 51,
                "duration": 0.08409090909091077,
                "tempo": 120.0
            },
            {
                "start_time": 29.595454545454544,
                "end_time": 29.679545454545455,
                "pitch": 44,
                "velocity": 51,
                "duration": 0.08409090909091077,
                "tempo": 120.0
            },
            {
                "start_time": 29.695454545454545,
                "end_time": 29.78181818181818,
                "pitch": 44,
                "velocity": 51,
                "duration": 0.08636363636363598,
                "tempo": 120.0
            },
            {
                "start_time": 29.797727272727272,
                "end_time": 29.884090909090908,
                "pitch": 44,
                "velocity": 51,
                "duration": 0.08636363636363598,
                "tempo": 120.0
            },
            {
                "start_time": 29.9,
                "end_time": 29.986363636363635,
                "pitch": 56,
                "velocity": 51,
                "duration": 0.08636363636363598,
                "tempo": 120.0
            },
            {
                "start_time": 30.002272727272725,
                "end_time": 30.08863636363636,
                "pitch": 44,
                "velocity": 51,
                "duration": 0.08636363636363598,
                "tempo": 120.0
            },
            {
                "start_time": 30.10681818181818,
                "end_time": 30.188636363636363,
                "pitch": 44,
                "velocity": 51,
                "duration": 0.08181818181818201,
                "tempo": 120.0
            },
            {
                "start_time": 30.204545454545453,
                "end_time": 30.286363636363635,
                "pitch": 44,
                "velocity": 51,
                "duration": 0.08181818181818201,
                "tempo": 120.0
            },
            {
                "start_time": 30.302272727272726,
                "end_time": 30.384090909090908,
                "pitch": 56,
                "velocity": 51,
                "duration": 0.08181818181818201,
                "tempo": 120.0
            },
            {
                "start_time": 30.4,
                "end_time": 30.48181818181818,
                "pitch": 44,
                "velocity": 51,
                "duration": 0.08181818181818201,
                "tempo": 120.0
            },
            {
                "start_time": 30.49772727272727,
                "end_time": 30.581818181818182,
                "pitch": 42,
                "velocity": 51,
                "duration": 0.08409090909091077,
                "tempo": 120.0
            },
            {
                "start_time": 30.597727272727273,
                "end_time": 30.68181818181818,
                "pitch": 42,
                "velocity": 51,
                "duration": 0.08409090909090722,
                "tempo": 120.0
            },
            {
                "start_time": 30.69772727272727,
                "end_time": 30.78181818181818,
                "pitch": 54,
                "velocity": 51,
                "duration": 0.08409090909091077,
                "tempo": 120.0
            },
            {
                "start_time": 30.797727272727272,
                "end_time": 30.88181818181818,
                "pitch": 42,
                "velocity": 51,
                "duration": 0.08409090909090722,
                "tempo": 120.0
            },
            {
                "start_time": 30.89772727272727,
                "end_time": 30.98181818181818,
                "pitch": 42,
                "velocity": 51,
                "duration": 0.08409090909091077,
                "tempo": 120.0
            },
            {
                "start_time": 31.0,
                "end_time": 31.081818181818182,
                "pitch": 42,
                "velocity": 51,
                "duration": 0.08181818181818201,
                "tempo": 120.0
            },
            {
                "start_time": 31.099999999999998,
                "end_time": 31.18409090909091,
                "pitch": 54,
                "velocity": 51,
                "duration": 0.08409090909091077,
                "tempo": 120.0
            },
            {
                "start_time": 31.2,
                "end_time": 31.284090909090907,
                "pitch": 42,
                "velocity": 51,
                "duration": 0.08409090909090722,
                "tempo": 120.0
            },
            {
                "start_time": 31.299999999999997,
                "end_time": 31.384090909090908,
                "pitch": 42,
                "velocity": 51,
                "duration": 0.08409090909091077,
                "tempo": 120.0
            },
            {
                "start_time": 31.4,
                "end_time": 31.484090909090906,
                "pitch": 42,
                "velocity": 51,
                "duration": 0.08409090909090722,
                "tempo": 120.0
            },
            {
                "start_time": 31.5,
                "end_time": 31.584090909090907,
                "pitch": 54,
                "velocity": 51,
                "duration": 0.08409090909090722,
                "tempo": 120.0
            },
            {
                "start_time": 31.599999999999998,
                "end_time": 31.68409090909091,
                "pitch": 42,
                "velocity": 51,
                "duration": 0.08409090909091077,
                "tempo": 120.0
            },
            {
                "start_time": 31.7,
                "end_time": 31.784090909090907,
                "pitch": 42,
                "velocity": 51,
                "duration": 0.08409090909090722,
                "tempo": 120.0
            },
            {
                "start_time": 31.802272727272726,
                "end_time": 31.886363636363633,
                "pitch": 42,
                "velocity": 51,
                "duration": 0.08409090909090722,
                "tempo": 120.0
            },
            {
                "start_time": 31.902272727272727,
                "end_time": 31.986363636363635,
                "pitch": 54,
                "velocity": 51,
                "duration": 0.08409090909090722,
                "tempo": 120.0
            },
            {
                "start_time": 32.002272727272725,
                "end_time": 32.086363636363636,
                "pitch": 42,
                "velocity": 51,
                "duration": 0.08409090909091077,
                "tempo": 120.0
            },
            {
                "start_time": 32.10454545454545,
                "end_time": 32.18636363636364,
                "pitch": 42,
                "velocity": 51,
                "duration": 0.08181818181818556,
                "tempo": 120.0
            },
            {
                "start_time": 32.20454545454545,
                "end_time": 32.28636363636363,
                "pitch": 42,
                "velocity": 51,
                "duration": 0.08181818181817846,
                "tempo": 120.0
            },
            {
                "start_time": 32.304545454545455,
                "end_time": 32.38636363636363,
                "pitch": 54,
                "velocity": 51,
                "duration": 0.08181818181817846,
                "tempo": 120.0
            },
            {
                "start_time": 32.404545454545456,
                "end_time": 32.486363636363635,
                "pitch": 42,
                "velocity": 51,
                "duration": 0.08181818181817846,
                "tempo": 120.0
            },
            {
                "start_time": 32.50454545454545,
                "end_time": 32.586363636363636,
                "pitch": 42,
                "velocity": 51,
                "duration": 0.08181818181818556,
                "tempo": 120.0
            },
            {
                "start_time": 32.60454545454545,
                "end_time": 32.68636363636364,
                "pitch": 42,
                "velocity": 51,
                "duration": 0.08181818181818556,
                "tempo": 120.0
            },
            {
                "start_time": 32.70454545454545,
                "end_time": 32.78636363636363,
                "pitch": 54,
                "velocity": 51,
                "duration": 0.08181818181817846,
                "tempo": 120.0
            },
            {
                "start_time": 32.804545454545455,
                "end_time": 32.88636363636363,
                "pitch": 42,
                "velocity": 51,
                "duration": 0.08181818181817846,
                "tempo": 120.0
            },
            {
                "start_time": 32.904545454545456,
                "end_time": 32.98863636363636,
                "pitch": 42,
                "velocity": 51,
                "duration": 0.08409090909090366,
                "tempo": 120.0
            },
            {
                "start_time": 33.00681818181818,
                "end_time": 33.090909090909086,
                "pitch": 42,
                "velocity": 51,
                "duration": 0.08409090909090366,
                "tempo": 120.0
            },
            {
                "start_time": 33.10909090909091,
                "end_time": 33.195454545454545,
                "pitch": 54,
                "velocity": 51,
                "duration": 0.08636363636363598,
                "tempo": 120.0
            },
            {
                "start_time": 33.211363636363636,
                "end_time": 33.29772727272727,
                "pitch": 42,
                "velocity": 51,
                "duration": 0.08636363636363598,
                "tempo": 120.0
            },
            {
                "start_time": 33.31363636363636,
                "end_time": 33.39545454545454,
                "pitch": 42,
                "velocity": 51,
                "duration": 0.08181818181817846,
                "tempo": 120.0
            },
            {
                "start_time": 33.41136363636363,
                "end_time": 33.49318181818182,
                "pitch": 42,
                "velocity": 51,
                "duration": 0.08181818181818556,
                "tempo": 120.0
            },
            {
                "start_time": 33.51136363636363,
                "end_time": 33.59318181818182,
                "pitch": 54,
                "velocity": 51,
                "duration": 0.08181818181818556,
                "tempo": 120.0
            },
            {
                "start_time": 33.60909090909091,
                "end_time": 33.69090909090909,
                "pitch": 42,
                "velocity": 51,
                "duration": 0.08181818181817846,
                "tempo": 120.0
            },
            {
                "start_time": 33.70681818181818,
                "end_time": 33.79090909090909,
                "pitch": 37,
                "velocity": 51,
                "duration": 0.08409090909091077,
                "tempo": 120.0
            },
            {
                "start_time": 33.80681818181818,
                "end_time": 33.89090909090909,
                "pitch": 37,
                "velocity": 51,
                "duration": 0.08409090909091077,
                "tempo": 120.0
            },
            {
                "start_time": 33.90681818181818,
                "end_time": 33.99090909090909,
                "pitch": 49,
                "velocity": 51,
                "duration": 0.08409090909091077,
                "tempo": 120.0
            },
            {
                "start_time": 34.00681818181818,
                "end_time": 34.090909090909086,
                "pitch": 37,
                "velocity": 51,
                "duration": 0.08409090909090366,
                "tempo": 120.0
            },
            {
                "start_time": 34.10681818181818,
                "end_time": 34.19090909090909,
                "pitch": 37,
                "velocity": 51,
                "duration": 0.08409090909091077,
                "tempo": 120.0
            },
            {
                "start_time": 34.20681818181818,
                "end_time": 34.29090909090909,
                "pitch": 37,
                "velocity": 51,
                "duration": 0.08409090909091077,
                "tempo": 120.0
            },
            {
                "start_time": 34.30681818181818,
                "end_time": 34.39090909090909,
                "pitch": 49,
                "velocity": 51,
                "duration": 0.08409090909091077,
                "tempo": 120.0
            },
            {
                "start_time": 34.40681818181818,
                "end_time": 34.49090909090909,
                "pitch": 37,
                "velocity": 51,
                "duration": 0.08409090909091077,
                "tempo": 120.0
            },
            {
                "start_time": 34.50681818181818,
                "end_time": 34.590909090909086,
                "pitch": 37,
                "velocity": 51,
                "duration": 0.08409090909090366,
                "tempo": 120.0
            },
            {
                "start_time": 34.60909090909091,
                "end_time": 34.695454545454545,
                "pitch": 37,
                "velocity": 51,
                "duration": 0.08636363636363598,
                "tempo": 120.0
            },
            {
                "start_time": 34.711363636363636,
                "end_time": 34.79772727272727,
                "pitch": 49,
                "velocity": 51,
                "duration": 0.08636363636363598,
                "tempo": 120.0
            },
            {
                "start_time": 34.81363636363636,
                "end_time": 34.9,
                "pitch": 37,
                "velocity": 51,
                "duration": 0.08636363636363598,
                "tempo": 120.0
            },
            {
                "start_time": 34.918181818181814,
                "end_time": 34.99772727272727,
                "pitch": 37,
                "velocity": 51,
                "duration": 0.07954545454545325,
                "tempo": 120.0
            },
            {
                "start_time": 35.01590909090909,
                "end_time": 35.09772727272727,
                "pitch": 37,
                "velocity": 51,
                "duration": 0.08181818181817846,
                "tempo": 120.0
            },
            {
                "start_time": 35.11363636363636,
                "end_time": 35.195454545454545,
                "pitch": 49,
                "velocity": 51,
                "duration": 0.08181818181818556,
                "tempo": 120.0
            },
            {
                "start_time": 35.211363636363636,
                "end_time": 35.293181818181814,
                "pitch": 37,
                "velocity": 51,
                "duration": 0.08181818181817846,
                "tempo": 120.0
            },
            {
                "start_time": 35.309090909090905,
                "end_time": 35.393181818181816,
                "pitch": 37,
                "velocity": 51,
                "duration": 0.08409090909091077,
                "tempo": 120.0
            },
            {
                "start_time": 35.40909090909091,
                "end_time": 35.49318181818182,
                "pitch": 37,
                "velocity": 51,
                "duration": 0.08409090909091077,
                "tempo": 120.0
            },
            {
                "start_time": 35.51136363636363,
                "end_time": 35.595454545454544,
                "pitch": 49,
                "velocity": 51,
                "duration": 0.08409090909091077,
                "tempo": 120.0
            },
            {
                "start_time": 35.611363636363635,
                "end_time": 35.695454545454545,
                "pitch": 37,
                "velocity": 51,
                "duration": 0.08409090909091077,
                "tempo": 120.0
            },
            {
                "start_time": 35.711363636363636,
                "end_time": 35.79545454545455,
                "pitch": 37,
                "velocity": 51,
                "duration": 0.08409090909091077,
                "tempo": 120.0
            },
            {
                "start_time": 35.81136363636364,
                "end_time": 35.89545454545454,
                "pitch": 37,
                "velocity": 51,
                "duration": 0.08409090909090366,
                "tempo": 120.0
            },
            {
                "start_time": 35.91136363636363,
                "end_time": 35.99545454545454,
                "pitch": 49,
                "velocity": 51,
                "duration": 0.08409090909091077,
                "tempo": 120.0
            },
            {
                "start_time": 36.01136363636363,
                "end_time": 36.095454545454544,
                "pitch": 37,
                "velocity": 51,
                "duration": 0.08409090909091077,
                "tempo": 120.0
            },
            {
                "start_time": 36.111363636363635,
                "end_time": 36.195454545454545,
                "pitch": 37,
                "velocity": 51,
                "duration": 0.08409090909091077,
                "tempo": 120.0
            },
            {
                "start_time": 36.211363636363636,
                "end_time": 36.29545454545455,
                "pitch": 37,
                "velocity": 51,
                "duration": 0.08409090909091077,
                "tempo": 120.0
            },
            {
                "start_time": 36.31136363636364,
                "end_time": 36.39545454545454,
                "pitch": 49,
                "velocity": 51,
                "duration": 0.08409090909090366,
                "tempo": 120.0
            },
            {
                "start_time": 36.41136363636363,
                "end_time": 36.49545454545454,
                "pitch": 37,
                "velocity": 51,
                "duration": 0.08409090909091077,
                "tempo": 120.0
            },
            {
                "start_time": 36.51136363636363,
                "end_time": 36.595454545454544,
                "pitch": 37,
                "velocity": 51,
                "duration": 0.08409090909091077,
                "tempo": 120.0
            },
            {
                "start_time": 36.611363636363635,
                "end_time": 36.695454545454545,
                "pitch": 37,
                "velocity": 51,
                "duration": 0.08409090909091077,
                "tempo": 120.0
            },
            {
                "start_time": 36.711363636363636,
                "end_time": 36.79545454545455,
                "pitch": 49,
                "velocity": 51,
                "duration": 0.08409090909091077,
                "tempo": 120.0
            },
            {
                "start_time": 36.81136363636364,
                "end_time": 36.89545454545454,
                "pitch": 37,
                "velocity": 51,
                "duration": 0.08409090909090366,
                "tempo": 120.0
            },
            {
                "start_time": 36.91136363636363,
                "end_time": 37.095454545454544,
                "pitch": 40,
                "velocity": 51,
                "duration": 0.1840909090909122,
                "tempo": 120.0
            },
            {
                "start_time": 37.111363636363635,
                "end_time": 37.49545454545454,
                "pitch": 40,
                "velocity": 51,
                "duration": 0.38409090909090793,
                "tempo": 120.0
            },
            {
                "start_time": 37.51363636363636,
                "end_time": 37.69772727272727,
                "pitch": 40,
                "velocity": 51,
                "duration": 0.1840909090909122,
                "tempo": 120.0
            },
            {
                "start_time": 37.71363636363636,
                "end_time": 37.902272727272724,
                "pitch": 40,
                "velocity": 51,
                "duration": 0.1886363636363626,
                "tempo": 120.0
            },
            {
                "start_time": 37.92045454545455,
                "end_time": 38.304545454545455,
                "pitch": 40,
                "velocity": 51,
                "duration": 0.38409090909090793,
                "tempo": 120.0
            },
            {
                "start_time": 38.320454545454545,
                "end_time": 38.502272727272725,
                "pitch": 40,
                "velocity": 51,
                "duration": 0.18181818181817988,
                "tempo": 120.0
            },
            {
                "start_time": 38.518181818181816,
                "end_time": 38.699999999999996,
                "pitch": 42,
                "velocity": 51,
                "duration": 0.18181818181817988,
                "tempo": 120.0
            },
            {
                "start_time": 38.71818181818182,
                "end_time": 38.9,
                "pitch": 44,
                "velocity": 51,
                "duration": 0.18181818181817988,
                "tempo": 120.0
            },
            {
                "start_time": 38.918181818181814,
                "end_time": 39.1,
                "pitch": 46,
                "velocity": 51,
                "duration": 0.18181818181818699,
                "tempo": 120.0
            },
            {
                "start_time": 39.11818181818182,
                "end_time": 39.3,
                "pitch": 44,
                "velocity": 51,
                "duration": 0.18181818181817988,
                "tempo": 120.0
            },
            {
                "start_time": 39.31818181818181,
                "end_time": 39.49772727272727,
                "pitch": 46,
                "velocity": 51,
                "duration": 0.17954545454545467,
                "tempo": 120.0
            },
            {
                "start_time": 39.51363636363636,
                "end_time": 39.69318181818181,
                "pitch": 47,
                "velocity": 51,
                "duration": 0.17954545454545467,
                "tempo": 120.0
            },
            {
                "start_time": 39.709090909090904,
                "end_time": 39.89772727272727,
                "pitch": 49,
                "velocity": 51,
                "duration": 0.1886363636363697,
                "tempo": 120.0
            },
            {
                "start_time": 39.91590909090909,
                "end_time": 40.10227272727273,
                "pitch": 47,
                "velocity": 51,
                "duration": 0.1863636363636374,
                "tempo": 120.0
            },
            {
                "start_time": 40.12045454545454,
                "end_time": 40.20681818181818,
                "pitch": 44,
                "velocity": 51,
                "duration": 0.08636363636363598,
                "tempo": 120.0
            },
            {
                "start_time": 40.22272727272727,
                "end_time": 40.309090909090905,
                "pitch": 44,
                "velocity": 51,
                "duration": 0.08636363636363598,
                "tempo": 120.0
            },
            {
                "start_time": 40.324999999999996,
                "end_time": 40.41136363636363,
                "pitch": 56,
                "velocity": 51,
                "duration": 0.08636363636363598,
                "tempo": 120.0
            },
            {
                "start_time": 40.429545454545455,
                "end_time": 40.51363636363636,
                "pitch": 44,
                "velocity": 51,
                "duration": 0.08409090909090366,
                "tempo": 120.0
            },
            {
                "start_time": 40.53181818181818,
                "end_time": 40.61363636363636,
                "pitch": 44,
                "velocity": 51,
                "duration": 0.08181818181817846,
                "tempo": 120.0
            },
            {
                "start_time": 40.62954545454545,
                "end_time": 40.711363636363636,
                "pitch": 44,
                "velocity": 51,
                "duration": 0.08181818181818556,
                "tempo": 120.0
            },
            {
                "start_time": 40.72727272727273,
                "end_time": 40.809090909090905,
                "pitch": 56,
                "velocity": 51,
                "duration": 0.08181818181817846,
                "tempo": 120.0
            },
            {
                "start_time": 40.824999999999996,
                "end_time": 40.90681818181818,
                "pitch": 44,
                "velocity": 51,
                "duration": 0.08181818181818556,
                "tempo": 120.0
            },
            {
                "start_time": 40.92272727272727,
                "end_time": 41.00909090909091,
                "pitch": 44,
                "velocity": 51,
                "duration": 0.08636363636363598,
                "tempo": 120.0
            },
            {
                "start_time": 41.025,
                "end_time": 41.111363636363635,
                "pitch": 44,
                "velocity": 51,
                "duration": 0.08636363636363598,
                "tempo": 120.0
            },
            {
                "start_time": 41.12954545454545,
                "end_time": 41.21363636363636,
                "pitch": 56,
                "velocity": 51,
                "duration": 0.08409090909091077,
                "tempo": 120.0
            },
            {
                "start_time": 41.23181818181818,
                "end_time": 41.31590909090909,
                "pitch": 44,
                "velocity": 51,
                "duration": 0.08409090909091077,
                "tempo": 120.0
            },
            {
                "start_time": 41.334090909090904,
                "end_time": 41.41590909090909,
                "pitch": 44,
                "velocity": 51,
                "duration": 0.08181818181818556,
                "tempo": 120.0
            },
            {
                "start_time": 41.43181818181818,
                "end_time": 41.51363636363636,
                "pitch": 44,
                "velocity": 51,
                "duration": 0.08181818181817846,
                "tempo": 120.0
            },
            {
                "start_time": 41.52954545454545,
                "end_time": 41.611363636363635,
                "pitch": 56,
                "velocity": 51,
                "duration": 0.08181818181818556,
                "tempo": 120.0
            },
            {
                "start_time": 41.627272727272725,
                "end_time": 41.709090909090904,
                "pitch": 44,
                "velocity": 51,
                "duration": 0.08181818181817846,
                "tempo": 120.0
            },
            {
                "start_time": 41.72727272727273,
                "end_time": 41.809090909090905,
                "pitch": 44,
                "velocity": 51,
                "duration": 0.08181818181817846,
                "tempo": 120.0
            },
            {
                "start_time": 41.82727272727273,
                "end_time": 41.90909090909091,
                "pitch": 44,
                "velocity": 51,
                "duration": 0.08181818181817846,
                "tempo": 120.0
            },
            {
                "start_time": 41.92727272727272,
                "end_time": 42.00909090909091,
                "pitch": 56,
                "velocity": 51,
                "duration": 0.08181818181818556,
                "tempo": 120.0
            },
            {
                "start_time": 42.027272727272724,
                "end_time": 42.10909090909091,
                "pitch": 44,
                "velocity": 51,
                "duration": 0.08181818181818556,
                "tempo": 120.0
            },
            {
                "start_time": 42.127272727272725,
                "end_time": 42.209090909090904,
                "pitch": 44,
                "velocity": 51,
                "duration": 0.08181818181817846,
                "tempo": 120.0
            },
            {
                "start_time": 42.22727272727273,
                "end_time": 42.309090909090905,
                "pitch": 44,
                "velocity": 51,
                "duration": 0.08181818181817846,
                "tempo": 120.0
            },
            {
                "start_time": 42.32727272727273,
                "end_time": 42.40909090909091,
                "pitch": 56,
                "velocity": 51,
                "duration": 0.08181818181817846,
                "tempo": 120.0
            },
            {
                "start_time": 42.42727272727272,
                "end_time": 42.50909090909091,
                "pitch": 44,
                "velocity": 51,
                "duration": 0.08181818181818556,
                "tempo": 120.0
            },
            {
                "start_time": 42.527272727272724,
                "end_time": 42.611363636363635,
                "pitch": 44,
                "velocity": 51,
                "duration": 0.08409090909091077,
                "tempo": 120.0
            },
            {
                "start_time": 42.62954545454545,
                "end_time": 42.71363636363636,
                "pitch": 44,
                "velocity": 51,
                "duration": 0.08409090909091077,
                "tempo": 120.0
            },
            {
                "start_time": 42.73181818181818,
                "end_time": 42.81818181818181,
                "pitch": 56,
                "velocity": 51,
                "duration": 0.08636363636363598,
                "tempo": 120.0
            },
            {
                "start_time": 42.834090909090904,
                "end_time": 42.92045454545455,
                "pitch": 44,
                "velocity": 51,
                "duration": 0.08636363636364308,
                "tempo": 120.0
            },
            {
                "start_time": 42.93636363636364,
                "end_time": 43.018181818181816,
                "pitch": 44,
                "velocity": 51,
                "duration": 0.08181818181817846,
                "tempo": 120.0
            },
            {
                "start_time": 43.03409090909091,
                "end_time": 43.11590909090909,
                "pitch": 44,
                "velocity": 51,
                "duration": 0.08181818181818556,
                "tempo": 120.0
            },
            {
                "start_time": 43.13409090909091,
                "end_time": 43.21363636363636,
                "pitch": 56,
                "velocity": 51,
                "duration": 0.07954545454545325,
                "tempo": 120.0
            },
            {
                "start_time": 43.23181818181818,
                "end_time": 43.31363636363636,
                "pitch": 44,
                "velocity": 51,
                "duration": 0.08181818181818556,
                "tempo": 120.0
            },
            {
                "start_time": 43.32954545454545,
                "end_time": 43.413636363636364,
                "pitch": 42,
                "velocity": 51,
                "duration": 0.08409090909091077,
                "tempo": 120.0
            },
            {
                "start_time": 43.429545454545455,
                "end_time": 43.51363636363636,
                "pitch": 42,
                "velocity": 51,
                "duration": 0.08409090909090366,
                "tempo": 120.0
            },
            {
                "start_time": 43.52954545454545,
                "end_time": 43.61363636363636,
                "pitch": 54,
                "velocity": 51,
                "duration": 0.08409090909091077,
                "tempo": 120.0
            },
            {
                "start_time": 43.63181818181818,
                "end_time": 43.715909090909086,
                "pitch": 42,
                "velocity": 51,
                "duration": 0.08409090909090366,
                "tempo": 120.0
            },
            {
                "start_time": 43.73181818181818,
                "end_time": 43.81590909090909,
                "pitch": 42,
                "velocity": 51,
                "duration": 0.08409090909091077,
                "tempo": 120.0
            },
            {
                "start_time": 43.83181818181818,
                "end_time": 43.91590909090909,
                "pitch": 42,
                "velocity": 51,
                "duration": 0.08409090909091077,
                "tempo": 120.0
            },
            {
                "start_time": 43.93181818181818,
                "end_time": 44.01590909090909,
                "pitch": 54,
                "velocity": 51,
                "duration": 0.08409090909091077,
                "tempo": 120.0
            },
            {
                "start_time": 44.03181818181818,
                "end_time": 44.11590909090909,
                "pitch": 42,
                "velocity": 51,
                "duration": 0.08409090909091077,
                "tempo": 120.0
            },
            {
                "start_time": 44.13181818181818,
                "end_time": 44.21818181818182,
                "pitch": 42,
                "velocity": 51,
                "duration": 0.08636363636363598,
                "tempo": 120.0
            },
            {
                "start_time": 44.23409090909091,
                "end_time": 44.320454545454545,
                "pitch": 42,
                "velocity": 51,
                "duration": 0.08636363636363598,
                "tempo": 120.0
            },
            {
                "start_time": 44.336363636363636,
                "end_time": 44.42272727272727,
                "pitch": 54,
                "velocity": 51,
                "duration": 0.08636363636363598,
                "tempo": 120.0
            },
            {
                "start_time": 44.43863636363636,
                "end_time": 44.525,
                "pitch": 42,
                "velocity": 51,
                "duration": 0.08636363636363598,
                "tempo": 120.0
            },
            {
                "start_time": 44.543181818181814,
                "end_time": 44.625,
                "pitch": 42,
                "velocity": 51,
                "duration": 0.08181818181818556,
                "tempo": 120.0
            },
            {
                "start_time": 44.64090909090909,
                "end_time": 44.72272727272727,
                "pitch": 42,
                "velocity": 51,
                "duration": 0.08181818181817846,
                "tempo": 120.0
            },
            {
                "start_time": 44.73863636363636,
                "end_time": 44.820454545454545,
                "pitch": 54,
                "velocity": 51,
                "duration": 0.08181818181818556,
                "tempo": 120.0
            },
            {
                "start_time": 44.836363636363636,
                "end_time": 44.918181818181814,
                "pitch": 42,
                "velocity": 51,
                "duration": 0.08181818181817846,
                "tempo": 120.0
            },
            {
                "start_time": 44.934090909090905,
                "end_time": 45.018181818181816,
                "pitch": 42,
                "velocity": 51,
                "duration": 0.08409090909091077,
                "tempo": 120.0
            },
            {
                "start_time": 45.03409090909091,
                "end_time": 45.11818181818182,
                "pitch": 42,
                "velocity": 51,
                "duration": 0.08409090909091077,
                "tempo": 120.0
            },
            {
                "start_time": 45.13409090909091,
                "end_time": 45.21818181818182,
                "pitch": 54,
                "velocity": 51,
                "duration": 0.08409090909091077,
                "tempo": 120.0
            },
            {
                "start_time": 45.23409090909091,
                "end_time": 45.31818181818181,
                "pitch": 42,
                "velocity": 51,
                "duration": 0.08409090909090366,
                "tempo": 120.0
            },
            {
                "start_time": 45.334090909090904,
                "end_time": 45.418181818181814,
                "pitch": 42,
                "velocity": 51,
                "duration": 0.08409090909091077,
                "tempo": 120.0
            },
            {
                "start_time": 45.43636363636364,
                "end_time": 45.518181818181816,
                "pitch": 42,
                "velocity": 51,
                "duration": 0.08181818181817846,
                "tempo": 120.0
            },
            {
                "start_time": 45.53636363636363,
                "end_time": 45.62045454545454,
                "pitch": 54,
                "velocity": 51,
                "duration": 0.08409090909091077,
                "tempo": 120.0
            },
            {
                "start_time": 45.63636363636363,
                "end_time": 45.720454545454544,
                "pitch": 42,
                "velocity": 51,
                "duration": 0.08409090909091077,
                "tempo": 120.0
            },
            {
                "start_time": 45.736363636363635,
                "end_time": 45.82272727272727,
                "pitch": 42,
                "velocity": 51,
                "duration": 0.08636363636363598,
                "tempo": 120.0
            },
            {
                "start_time": 45.840909090909086,
                "end_time": 45.925,
                "pitch": 42,
                "velocity": 51,
                "duration": 0.08409090909091077,
                "tempo": 120.0
            },
            {
                "start_time": 45.94318181818181,
                "end_time": 46.027272727272724,
                "pitch": 54,
                "velocity": 51,
                "duration": 0.08409090909091077,
                "tempo": 120.0
            },
            {
                "start_time": 46.04545454545455,
                "end_time": 46.13181818181818,
                "pitch": 42,
                "velocity": 51,
                "duration": 0.08636363636363598,
                "tempo": 120.0
            },
            {
                "start_time": 46.14772727272727,
                "end_time": 46.22954545454545,
                "pitch": 42,
                "velocity": 51,
                "duration": 0.08181818181817846,
                "tempo": 120.0
            },
            {
                "start_time": 46.24545454545454,
                "end_time": 46.32727272727273,
                "pitch": 42,
                "velocity": 51,
                "duration": 0.08181818181818556,
                "tempo": 120.0
            },
            {
                "start_time": 46.34318181818182,
                "end_time": 46.425,
                "pitch": 54,
                "velocity": 51,
                "duration": 0.08181818181817846,
                "tempo": 120.0
            },
            {
                "start_time": 46.44318181818181,
                "end_time": 46.525,
                "pitch": 42,
                "velocity": 51,
                "duration": 0.08181818181818556,
                "tempo": 120.0
            },
            {
                "start_time": 46.54090909090909,
                "end_time": 46.62272727272727,
                "pitch": 37,
                "velocity": 51,
                "duration": 0.08181818181817846,
                "tempo": 120.0
            },
            {
                "start_time": 46.64090909090909,
                "end_time": 46.72272727272727,
                "pitch": 37,
                "velocity": 51,
                "duration": 0.08181818181817846,
                "tempo": 120.0
            },
            {
                "start_time": 46.74090909090909,
                "end_time": 46.82272727272727,
                "pitch": 49,
                "velocity": 51,
                "duration": 0.08181818181817846,
                "tempo": 120.0
            },
            {
                "start_time": 46.840909090909086,
                "end_time": 46.92272727272727,
                "pitch": 37,
                "velocity": 51,
                "duration": 0.08181818181818556,
                "tempo": 120.0
            },
            {
                "start_time": 46.94090909090909,
                "end_time": 47.02272727272727,
                "pitch": 37,
                "velocity": 51,
                "duration": 0.08181818181818556,
                "tempo": 120.0
            },
            {
                "start_time": 47.04090909090909,
                "end_time": 47.12272727272727,
                "pitch": 37,
                "velocity": 51,
                "duration": 0.08181818181817846,
                "tempo": 120.0
            },
            {
                "start_time": 47.14090909090909,
                "end_time": 47.22272727272727,
                "pitch": 49,
                "velocity": 51,
                "duration": 0.08181818181817846,
                "tempo": 120.0
            },
            {
                "start_time": 47.24090909090909,
                "end_time": 47.32272727272727,
                "pitch": 37,
                "velocity": 51,
                "duration": 0.08181818181817846,
                "tempo": 120.0
            },
            {
                "start_time": 47.340909090909086,
                "end_time": 47.425,
                "pitch": 37,
                "velocity": 51,
                "duration": 0.08409090909091077,
                "tempo": 120.0
            },
            {
                "start_time": 47.44318181818181,
                "end_time": 47.527272727272724,
                "pitch": 37,
                "velocity": 51,
                "duration": 0.08409090909091077,
                "tempo": 120.0
            },
            {
                "start_time": 47.54545454545454,
                "end_time": 47.63181818181818,
                "pitch": 49,
                "velocity": 51,
                "duration": 0.08636363636364308,
                "tempo": 120.0
            },
            {
                "start_time": 47.64772727272727,
                "end_time": 47.73409090909091,
                "pitch": 37,
                "velocity": 51,
                "duration": 0.08636363636363598,
                "tempo": 120.0
            },
            {
                "start_time": 47.75,
                "end_time": 47.83181818181818,
                "pitch": 37,
                "velocity": 51,
                "duration": 0.08181818181817846,
                "tempo": 120.0
            },
            {
                "start_time": 47.849999999999994,
                "end_time": 47.929545454545455,
                "pitch": 37,
                "velocity": 51,
                "duration": 0.07954545454546036,
                "tempo": 120.0
            },
            {
                "start_time": 47.94772727272727,
                "end_time": 48.02954545454545,
                "pitch": 49,
                "velocity": 51,
                "duration": 0.08181818181817846,
                "tempo": 120.0
            },
            {
                "start_time": 48.04545454545454,
                "end_time": 48.127272727272725,
                "pitch": 37,
                "velocity": 51,
                "duration": 0.08181818181818556,
                "tempo": 120.0
            },
            {
                "start_time": 48.143181818181816,
                "end_time": 48.22727272727273,
                "pitch": 37,
                "velocity": 51,
                "duration": 0.08409090909091077,
                "tempo": 120.0
            },
            {
                "start_time": 48.24318181818182,
                "end_time": 48.32727272727273,
                "pitch": 37,
                "velocity": 51,
                "duration": 0.08409090909091077,
                "tempo": 120.0
            },
            {
                "start_time": 48.34318181818182,
                "end_time": 48.42727272727272,
                "pitch": 49,
                "velocity": 51,
                "duration": 0.08409090909090366,
                "tempo": 120.0
            },
            {
                "start_time": 48.44318181818181,
                "end_time": 48.527272727272724,
                "pitch": 37,
                "velocity": 51,
                "duration": 0.08409090909091077,
                "tempo": 120.0
            },
            {
                "start_time": 48.543181818181814,
                "end_time": 48.627272727272725,
                "pitch": 37,
                "velocity": 51,
                "duration": 0.08409090909091077,
                "tempo": 120.0
            },
            {
                "start_time": 48.643181818181816,
                "end_time": 48.72727272727273,
                "pitch": 37,
                "velocity": 51,
                "duration": 0.08409090909091077,
                "tempo": 120.0
            },
            {
                "start_time": 48.74318181818182,
                "end_time": 48.82727272727273,
                "pitch": 49,
                "velocity": 51,
                "duration": 0.08409090909091077,
                "tempo": 120.0
            },
            {
                "start_time": 48.84318181818182,
                "end_time": 48.92727272727272,
                "pitch": 37,
                "velocity": 51,
                "duration": 0.08409090909090366,
                "tempo": 120.0
            },
            {
                "start_time": 48.94318181818181,
                "end_time": 49.027272727272724,
                "pitch": 37,
                "velocity": 51,
                "duration": 0.08409090909091077,
                "tempo": 120.0
            },
            {
                "start_time": 49.043181818181814,
                "end_time": 49.127272727272725,
                "pitch": 37,
                "velocity": 51,
                "duration": 0.08409090909091077,
                "tempo": 120.0
            },
            {
                "start_time": 49.143181818181816,
                "end_time": 49.22727272727273,
                "pitch": 49,
                "velocity": 51,
                "duration": 0.08409090909091077,
                "tempo": 120.0
            },
            {
                "start_time": 49.24318181818182,
                "end_time": 49.32727272727273,
                "pitch": 37,
                "velocity": 51,
                "duration": 0.08409090909091077,
                "tempo": 120.0
            },
            {
                "start_time": 49.34318181818182,
                "end_time": 49.42727272727272,
                "pitch": 37,
                "velocity": 51,
                "duration": 0.08409090909090366,
                "tempo": 120.0
            },
            {
                "start_time": 49.44318181818181,
                "end_time": 49.527272727272724,
                "pitch": 37,
                "velocity": 51,
                "duration": 0.08409090909091077,
                "tempo": 120.0
            },
            {
                "start_time": 49.54545454545454,
                "end_time": 49.627272727272725,
                "pitch": 49,
                "velocity": 51,
                "duration": 0.08181818181818556,
                "tempo": 120.0
            },
            {
                "start_time": 49.64545454545454,
                "end_time": 49.72954545454545,
                "pitch": 37,
                "velocity": 51,
                "duration": 0.08409090909091077,
                "tempo": 120.0
            },
            {
                "start_time": 49.74545454545454,
                "end_time": 49.929545454545455,
                "pitch": 40,
                "velocity": 51,
                "duration": 0.1840909090909122,
                "tempo": 120.0
            },
            {
                "start_time": 49.945454545454545,
                "end_time": 50.32954545454545,
                "pitch": 40,
                "velocity": 51,
                "duration": 0.38409090909090793,
                "tempo": 120.0
            },
            {
                "start_time": 50.345454545454544,
                "end_time": 50.52954545454545,
                "pitch": 40,
                "velocity": 51,
                "duration": 0.18409090909090509,
                "tempo": 120.0
            },
            {
                "start_time": 50.54545454545454,
                "end_time": 50.73409090909091,
                "pitch": 40,
                "velocity": 51,
                "duration": 0.1886363636363697,
                "tempo": 120.0
            },
            {
                "start_time": 50.75,
                "end_time": 51.13636363636363,
                "pitch": 40,
                "velocity": 51,
                "duration": 0.38636363636363313,
                "tempo": 120.0
            },
            {
                "start_time": 51.152272727272724,
                "end_time": 51.33181818181818,
                "pitch": 40,
                "velocity": 51,
                "duration": 0.17954545454545467,
                "tempo": 120.0
            },
            {
                "start_time": 51.34772727272727,
                "end_time": 51.53409090909091,
                "pitch": 42,
                "velocity": 51,
                "duration": 0.1863636363636374,
                "tempo": 120.0
            },
            {
                "start_time": 51.55,
                "end_time": 51.73409090909091,
                "pitch": 44,
                "velocity": 51,
                "duration": 0.1840909090909122,
                "tempo": 120.0
            },
            {
                "start_time": 51.752272727272725,
                "end_time": 51.934090909090905,
                "pitch": 46,
                "velocity": 51,
                "duration": 0.18181818181817988,
                "tempo": 120.0
            },
            {
                "start_time": 51.95227272727273,
                "end_time": 52.13409090909091,
                "pitch": 44,
                "velocity": 51,
                "duration": 0.18181818181817988,
                "tempo": 120.0
            },
            {
                "start_time": 52.152272727272724,
                "end_time": 52.334090909090904,
                "pitch": 46,
                "velocity": 51,
                "duration": 0.18181818181817988,
                "tempo": 120.0
            },
            {
                "start_time": 52.35227272727273,
                "end_time": 52.53409090909091,
                "pitch": 47,
                "velocity": 51,
                "duration": 0.18181818181817988,
                "tempo": 120.0
            },
            {
                "start_time": 52.55227272727272,
                "end_time": 52.73409090909091,
                "pitch": 49,
                "velocity": 51,
                "duration": 0.18181818181818699,
                "tempo": 120.0
            },
            {
                "start_time": 52.752272727272725,
                "end_time": 52.934090909090905,
                "pitch": 47,
                "velocity": 51,
                "duration": 0.18181818181817988,
                "tempo": 120.0
            },
            {
                "start_time": 52.95227272727273,
                "end_time": 53.13409090909091,
                "pitch": 44,
                "velocity": 51,
                "duration": 0.18181818181817988,
                "tempo": 120.0
            }
        ],
        "Flute": [
            {
                "start_time": 0.015909090909090907,
                "end_time": 0.1159090909090909,
                "pitch": 75,
                "velocity": 40,
                "duration": 0.1,
                "tempo": 120.0
            },
            {
                "start_time": 0.1340909090909091,
                "end_time": 0.25,
                "pitch": 74,
                "velocity": 40,
                "duration": 0.1159090909090909,
                "tempo": 120.0
            },
            {
                "start_time": 0.2659090909090909,
                "end_time": 0.3840909090909091,
                "pitch": 72,
                "velocity": 40,
                "duration": 0.11818181818181822,
                "tempo": 120.0
            },
            {
                "start_time": 0.39999999999999997,
                "end_time": 0.5136363636363636,
                "pitch": 75,
                "velocity": 40,
                "duration": 0.11363636363636359,
                "tempo": 120.0
            },
            {
                "start_time": 0.5318181818181817,
                "end_time": 0.6454545454545454,
                "pitch": 74,
                "velocity": 40,
                "duration": 0.11363636363636365,
                "tempo": 120.0
            },
            {
                "start_time": 0.6613636363636364,
                "end_time": 0.7749999999999999,
                "pitch": 72,
                "velocity": 40,
                "duration": 0.11363636363636354,
                "tempo": 120.0
            },
            {
                "start_time": 0.7931818181818181,
                "end_time": 0.9090909090909091,
                "pitch": 74,
                "velocity": 40,
                "duration": 0.11590909090909096,
                "tempo": 120.0
            },
            {
                "start_time": 0.9249999999999999,
                "end_time": 1.0431818181818182,
                "pitch": 72,
                "velocity": 40,
                "duration": 0.11818181818181828,
                "tempo": 120.0
            },
            {
                "start_time": 1.059090909090909,
                "end_time": 1.175,
                "pitch": 70,
                "velocity": 40,
                "duration": 0.11590909090909096,
                "tempo": 120.0
            },
            {
                "start_time": 1.1931818181818181,
                "end_time": 1.3113636363636363,
                "pitch": 72,
                "velocity": 40,
                "duration": 0.11818181818181817,
                "tempo": 120.0
            },
            {
                "start_time": 1.3295454545454546,
                "end_time": 1.4477272727272728,
                "pitch": 74,
                "velocity": 40,
                "duration": 0.11818181818181817,
                "tempo": 120.0
            },
            {
                "start_time": 1.4659090909090908,
                "end_time": 1.5863636363636362,
                "pitch": 75,
                "velocity": 40,
                "duration": 0.12045454545454537,
                "tempo": 120.0
            }
        ],
        "Clarinet": [
            {
                "start_time": 1.6022727272727273,
                "end_time": 1.7818181818181817,
                "pitch": 68,
                "velocity": 40,
                "duration": 0.17954545454545445,
                "tempo": 120.0
            },
            {
                "start_time": 1.7999999999999998,
                "end_time": 2.3886363636363637,
                "pitch": 63,
                "velocity": 40,
                "duration": 0.5886363636363638,
                "tempo": 120.0
            },
            {
                "start_time": 2.4045454545454543,
                "end_time": 2.5863636363636364,
                "pitch": 71,
                "velocity": 40,
                "duration": 0.1818181818181821,
                "tempo": 120.0
            },
            {
                "start_time": 2.602272727272727,
                "end_time": 2.9863636363636363,
                "pitch": 68,
                "velocity": 40,
                "duration": 0.38409090909090926,
                "tempo": 120.0
            },
            {
                "start_time": 3.002272727272727,
                "end_time": 3.3886363636363637,
                "pitch": 63,
                "velocity": 40,
                "duration": 0.3863636363636367,
                "tempo": 120.0
            },
            {
                "start_time": 3.4045454545454543,
                "end_time": 3.584090909090909,
                "pitch": 68,
                "velocity": 40,
                "duration": 0.17954545454545467,
                "tempo": 120.0
            },
            {
                "start_time": 3.5999999999999996,
                "end_time": 3.684090909090909,
                "pitch": 68,
                "velocity": 40,
                "duration": 0.08409090909090944,
                "tempo": 120.0
            },
            {
                "start_time": 4.2,
                "end_time": 4.384090909090909,
                "pitch": 68,
                "velocity": 40,
                "duration": 0.18409090909090864,
                "tempo": 120.0
            },
            {
                "start_time": 4.3999999999999995,
                "end_time": 5.1863636363636365,
                "pitch": 63,
                "velocity": 40,
                "duration": 0.786363636363637,
                "tempo": 120.0
            },
            {
                "start_time": 5.202272727272727,
                "end_time": 5.390909090909091,
                "pitch": 66,
                "velocity": 40,
                "duration": 0.1886363636363635,
                "tempo": 120.0
            },
            {
                "start_time": 5.409090909090909,
                "end_time": 5.793181818181818,
                "pitch": 61,
                "velocity": 40,
                "duration": 0.3840909090909088,
                "tempo": 120.0
            },
            {
                "start_time": 5.809090909090909,
                "end_time": 5.988636363636363,
                "pitch": 70,
                "velocity": 40,
                "duration": 0.17954545454545467,
                "tempo": 120.0
            },
            {
                "start_time": 6.006818181818182,
                "end_time": 6.1909090909090905,
                "pitch": 66,
                "velocity": 40,
                "duration": 0.18409090909090864,
                "tempo": 120.0
            },
            {
                "start_time": 6.206818181818181,
                "end_time": 6.593181818181818,
                "pitch": 61,
                "velocity": 40,
                "duration": 0.3863636363636367,
                "tempo": 120.0
            },
            {
                "start_time": 6.6090909090909085,
                "end_time": 6.795454545454545,
                "pitch": 61,
                "velocity": 40,
                "duration": 0.1863636363636365,
                "tempo": 120.0
            },
            {
                "start_time": 6.811363636363636,
                "end_time": 6.995454545454545,
                "pitch": 61,
                "velocity": 40,
                "duration": 0.18409090909090953,
                "tempo": 120.0
            },
            {
                "start_time": 7.011363636363636,
                "end_time": 7.3954545454545455,
                "pitch": 70,
                "velocity": 40,
                "duration": 0.3840909090909097,
                "tempo": 120.0
            },
            {
                "start_time": 7.413636363636363,
                "end_time": 7.597727272727273,
                "pitch": 66,
                "velocity": 40,
                "duration": 0.18409090909090953,
                "tempo": 120.0
            },
            {
                "start_time": 7.613636363636363,
                "end_time": 7.997727272727272,
                "pitch": 61,
                "velocity": 40,
                "duration": 0.3840909090909088,
                "tempo": 120.0
            },
            {
                "start_time": 8.013636363636364,
                "end_time": 8.6,
                "pitch": 64,
                "velocity": 40,
                "duration": 0.586363636363636,
                "tempo": 120.0
            },
            {
                "start_time": 8.618181818181817,
                "end_time": 8.802272727272728,
                "pitch": 59,
                "velocity": 40,
                "duration": 0.18409090909091042,
                "tempo": 120.0
            },
            {
                "start_time": 8.818181818181818,
                "end_time": 9.604545454545454,
                "pitch": 59,
                "velocity": 40,
                "duration": 0.7863636363636353,
                "tempo": 120.0
            },
            {
                "start_time": 9.622727272727273,
                "end_time": 10.209090909090909,
                "pitch": 68,
                "velocity": 40,
                "duration": 0.586363636363636,
                "tempo": 120.0
            },
            {
                "start_time": 10.225,
                "end_time": 10.813636363636363,
                "pitch": 64,
                "velocity": 40,
                "duration": 0.588636363636363,
                "tempo": 120.0
            },
            {
                "start_time": 10.829545454545453,
                "end_time": 11.61590909090909,
                "pitch": 59,
                "velocity": 40,
                "duration": 0.786363636363637,
                "tempo": 120.0
            },
            {
                "start_time": 11.631818181818181,
                "end_time": 12.420454545454545,
                "pitch": 66,
                "velocity": 40,
                "duration": 0.788636363636364,
                "tempo": 120.0
            },
            {
                "start_time": 12.438636363636363,
                "end_time": 12.627272727272727,
                "pitch": 61,
                "velocity": 40,
                "duration": 0.18863636363636438,
                "tempo": 120.0
            },
            {
                "start_time": 12.643181818181818,
                "end_time": 13.225,
                "pitch": 61,
                "velocity": 40,
                "duration": 0.581818181818182,
                "tempo": 120.0
            },
            {
                "start_time": 13.24090909090909,
                "end_time": 13.625,
                "pitch": 68,
                "velocity": 40,
                "duration": 0.3840909090909097,
                "tempo": 120.0
            },
            {
                "start_time": 13.64090909090909,
                "end_time": 14.027272727272727,
                "pitch": 71,
                "velocity": 40,
                "duration": 0.3863636363636367,
                "tempo": 120.0
            },
            {
                "start_time": 14.043181818181818,
                "end_time": 14.227272727272727,
                "pitch": 68,
                "velocity": 40,
                "duration": 0.18409090909090864,
                "tempo": 120.0
            },
            {
                "start_time": 14.85,
                "end_time": 15.036363636363635,
                "pitch": 68,
                "velocity": 40,
                "duration": 0.18636363636363562,
                "tempo": 120.0
            },
            {
                "start_time": 15.054545454545455,
                "end_time": 15.438636363636363,
                "pitch": 63,
                "velocity": 40,
                "duration": 0.38409090909090793,
                "tempo": 120.0
            },
            {
                "start_time": 15.45681818181818,
                "end_time": 15.836363636363636,
                "pitch": 71,
                "velocity": 40,
                "duration": 0.37954545454545574,
                "tempo": 120.0
            },
            {
                "start_time": 15.852272727272727,
                "end_time": 15.904545454545454,
                "pitch": 68,
                "velocity": 40,
                "duration": 0.05227272727272769,
                "tempo": 120.0
            },
            {
                "start_time": 16.456818181818182,
                "end_time": 16.645454545454545,
                "pitch": 68,
                "velocity": 40,
                "duration": 0.1886363636363626,
                "tempo": 120.0
            },
            {
                "start_time": 16.663636363636364,
                "end_time": 17.047727272727272,
                "pitch": 63,
                "velocity": 40,
                "duration": 0.38409090909090793,
                "tempo": 120.0
            },
            {
                "start_time": 17.063636363636363,
                "end_time": 17.243181818181817,
                "pitch": 71,
                "velocity": 40,
                "duration": 0.17954545454545467,
                "tempo": 120.0
            },
            {
                "start_time": 17.259090909090908,
                "end_time": 17.377272727272725,
                "pitch": 68,
                "velocity": 40,
                "duration": 0.11818181818181728,
                "tempo": 120.0
            },
            {
                "start_time": 18.063636363636363,
                "end_time": 18.245454545454546,
                "pitch": 66,
                "velocity": 40,
                "duration": 0.18181818181818343,
                "tempo": 120.0
            },
            {
                "start_time": 18.263636363636362,
                "end_time": 18.645454545454545,
                "pitch": 61,
                "velocity": 40,
                "duration": 0.3818181818181827,
                "tempo": 120.0
            },
            {
                "start_time": 18.663636363636364,
                "end_time": 19.047727272727272,
                "pitch": 70,
                "velocity": 40,
                "duration": 0.38409090909090793,
                "tempo": 120.0
            },
            {
                "start_time": 19.063636363636363,
                "end_time": 19.45,
                "pitch": 66,
                "velocity": 40,
                "duration": 0.3863636363636367,
                "tempo": 120.0
            },
            {
                "start_time": 19.46590909090909,
                "end_time": 19.65,
                "pitch": 61,
                "velocity": 40,
                "duration": 0.18409090909090864,
                "tempo": 120.0
            },
            {
                "start_time": 19.66590909090909,
                "end_time": 20.21818181818182,
                "pitch": 66,
                "velocity": 40,
                "duration": 0.5522727272727295,
                "tempo": 120.0
            },
            {
                "start_time": 20.868181818181817,
                "end_time": 21.454545454545453,
                "pitch": 64,
                "velocity": 40,
                "duration": 0.586363636363636,
                "tempo": 120.0
            },
            {
                "start_time": 21.470454545454544,
                "end_time": 21.654545454545453,
                "pitch": 59,
                "velocity": 40,
                "duration": 0.18409090909090864,
                "tempo": 120.0
            },
            {
                "start_time": 21.670454545454543,
                "end_time": 22.456818181818182,
                "pitch": 59,
                "velocity": 40,
                "duration": 0.7863636363636388,
                "tempo": 120.0
            },
            {
                "start_time": 22.472727272727273,
                "end_time": 23.259090909090908,
                "pitch": 68,
                "velocity": 40,
                "duration": 0.7863636363636353,
                "tempo": 120.0
            },
            {
                "start_time": 23.277272727272727,
                "end_time": 23.659090909090907,
                "pitch": 64,
                "velocity": 40,
                "duration": 0.38181818181817917,
                "tempo": 120.0
            },
            {
                "start_time": 23.677272727272726,
                "end_time": 24.461363636363636,
                "pitch": 64,
                "velocity": 40,
                "duration": 0.7840909090909101,
                "tempo": 120.0
            },
            {
                "start_time": 24.479545454545452,
                "end_time": 25.063636363636363,
                "pitch": 66,
                "velocity": 40,
                "duration": 0.5840909090909108,
                "tempo": 120.0
            },
            {
                "start_time": 25.079545454545453,
                "end_time": 25.26590909090909,
                "pitch": 61,
                "velocity": 40,
                "duration": 0.1863636363636374,
                "tempo": 120.0
            },
            {
                "start_time": 25.28181818181818,
                "end_time": 25.597727272727273,
                "pitch": 66,
                "velocity": 40,
                "duration": 0.31590909090909136,
                "tempo": 120.0
            },
            {
                "start_time": 26.084090909090907,
                "end_time": 26.468181818181815,
                "pitch": 68,
                "velocity": 40,
                "duration": 0.38409090909090793,
                "tempo": 120.0
            },
            {
                "start_time": 26.48409090909091,
                "end_time": 26.868181818181817,
                "pitch": 71,
                "velocity": 40,
                "duration": 0.38409090909090793,
                "tempo": 120.0
            },
            {
                "start_time": 26.884090909090908,
                "end_time": 27.277272727272727,
                "pitch": 68,
                "velocity": 40,
                "duration": 0.3931818181818194,
                "tempo": 120.0
            },
            {
                "start_time": 27.295454545454543,
                "end_time": 28.07272727272727,
                "pitch": 73,
                "velocity": 40,
                "duration": 0.7772727272727273,
                "tempo": 120.0
            },
            {
                "start_time": 28.09090909090909,
                "end_time": 28.811363636363634,
                "pitch": 73,
                "velocity": 40,
                "duration": 0.7204545454545439,
                "tempo": 120.0
            },
            {
                "start_time": 28.827272727272724,
                "end_time": 29.479545454545452,
                "pitch": 70,
                "velocity": 40,
                "duration": 0.6522727272727273,
                "tempo": 120.0
            },
            {
                "start_time": 29.495454545454542,
                "end_time": 30.48181818181818,
                "pitch": 71,
                "velocity": 40,
                "duration": 0.9863636363636381,
                "tempo": 120.0
            },
            {
                "start_time": 30.49772727272727,
                "end_time": 31.284090909090907,
                "pitch": 73,
                "velocity": 40,
                "duration": 0.7863636363636353,
                "tempo": 120.0
            },
            {
                "start_time": 31.299999999999997,
                "end_time": 32.086363636363636,
                "pitch": 71,
                "velocity": 40,
                "duration": 0.7863636363636388,
                "tempo": 120.0
            },
            {
                "start_time": 32.10454545454545,
                "end_time": 32.68636363636364,
                "pitch": 70,
                "velocity": 40,
                "duration": 0.5818181818181856,
                "tempo": 120.0
            },
            {
                "start_time": 32.70454545454545,
                "end_time": 33.65681818181818,
                "pitch": 70,
                "velocity": 40,
                "duration": 0.952272727272728,
                "tempo": 120.0
            },
            {
                "start_time": 33.67272727272727,
                "end_time": 34.45681818181818,
                "pitch": 76,
                "velocity": 40,
                "duration": 0.7840909090909065,
                "tempo": 120.0
            },
            {
                "start_time": 34.47272727272727,
                "end_time": 35.293181818181814,
                "pitch": 75,
                "velocity": 40,
                "duration": 0.8204545454545453,
                "tempo": 120.0
            },
            {
                "start_time": 35.309090909090905,
                "end_time": 36.06136363636364,
                "pitch": 73,
                "velocity": 40,
                "duration": 0.7522727272727323,
                "tempo": 120.0
            },
            {
                "start_time": 36.07954545454545,
                "end_time": 36.461363636363636,
                "pitch": 75,
                "velocity": 40,
                "duration": 0.3818181818181827,
                "tempo": 120.0
            },
            {
                "start_time": 36.47954545454545,
                "end_time": 36.89545454545454,
                "pitch": 76,
                "velocity": 40,
                "duration": 0.41590909090908923,
                "tempo": 120.0
            },
            {
                "start_time": 36.91136363636363,
                "end_time": 38.10909090909091,
                "pitch": 76,
                "velocity": 40,
                "duration": 1.1977272727272776,
                "tempo": 120.0
            },
            {
                "start_time": 38.125,
                "end_time": 38.46818181818182,
                "pitch": 75,
                "velocity": 40,
                "duration": 0.3431818181818187,
                "tempo": 120.0
            },
            {
                "start_time": 38.48409090909091,
                "end_time": 39.3,
                "pitch": 78,
                "velocity": 40,
                "duration": 0.8159090909090878,
                "tempo": 120.0
            },
            {
                "start_time": 39.31818181818181,
                "end_time": 40.10227272727273,
                "pitch": 76,
                "velocity": 40,
                "duration": 0.7840909090909136,
                "tempo": 120.0
            },
            {
                "start_time": 52.95227272727273,
                "end_time": 53.13409090909091,
                "pitch": 68,
                "velocity": 40,
                "duration": 0.18181818181817988,
                "tempo": 120.0
            }
        ],
        "Trumpet": [
            {
                "start_time": 40.12045454545454,
                "end_time": 40.875,
                "pitch": 73,
                "velocity": 40,
                "duration": 0.7545454545454575,
                "tempo": 120.0
            },
            {
                "start_time": 40.89090909090909,
                "end_time": 41.709090909090904,
                "pitch": 71,
                "velocity": 40,
                "duration": 0.818181818181813,
                "tempo": 120.0
            },
            {
                "start_time": 41.72727272727273,
                "end_time": 42.309090909090905,
                "pitch": 70,
                "velocity": 40,
                "duration": 0.5818181818181785,
                "tempo": 120.0
            },
            {
                "start_time": 42.32727272727273,
                "end_time": 43.27954545454545,
                "pitch": 71,
                "velocity": 40,
                "duration": 0.9522727272727209,
                "tempo": 120.0
            },
            {
                "start_time": 43.29545454545455,
                "end_time": 44.11590909090909,
                "pitch": 73,
                "velocity": 40,
                "duration": 0.8204545454545453,
                "tempo": 120.0
            },
            {
                "start_time": 44.13181818181818,
                "end_time": 44.918181818181814,
                "pitch": 71,
                "velocity": 40,
                "duration": 0.7863636363636317,
                "tempo": 120.0
            },
            {
                "start_time": 44.934090909090905,
                "end_time": 45.518181818181816,
                "pitch": 70,
                "velocity": 40,
                "duration": 0.5840909090909108,
                "tempo": 120.0
            },
            {
                "start_time": 45.53636363636363,
                "end_time": 46.525,
                "pitch": 71,
                "velocity": 40,
                "duration": 0.9886363636363669,
                "tempo": 120.0
            },
            {
                "start_time": 46.54090909090909,
                "end_time": 47.29090909090909,
                "pitch": 76,
                "velocity": 40,
                "duration": 0.75,
                "tempo": 120.0
            },
            {
                "start_time": 47.30681818181818,
                "end_time": 48.09318181818182,
                "pitch": 75,
                "velocity": 40,
                "duration": 0.7863636363636388,
                "tempo": 120.0
            },
            {
                "start_time": 48.111363636363635,
                "end_time": 48.893181818181816,
                "pitch": 73,
                "velocity": 40,
                "duration": 0.7818181818181813,
                "tempo": 120.0
            },
            {
                "start_time": 48.90909090909091,
                "end_time": 49.32727272727273,
                "pitch": 75,
                "velocity": 40,
                "duration": 0.41818181818182154,
                "tempo": 120.0
            },
            {
                "start_time": 49.34318181818182,
                "end_time": 49.72954545454545,
                "pitch": 76,
                "velocity": 40,
                "duration": 0.38636363636363313,
                "tempo": 120.0
            },
            {
                "start_time": 49.74545454545454,
                "end_time": 50.93863636363636,
                "pitch": 78,
                "velocity": 40,
                "duration": 1.1931818181818201,
                "tempo": 120.0
            },
            {
                "start_time": 50.95681818181818,
                "end_time": 51.33181818181818,
                "pitch": 76,
                "velocity": 40,
                "duration": 0.375,
                "tempo": 120.0
            },
            {
                "start_time": 51.34772727272727,
                "end_time": 52.10227272727273,
                "pitch": 80,
                "velocity": 40,
                "duration": 0.7545454545454575,
                "tempo": 120.0
            },
            {
                "start_time": 52.11818181818182,
                "end_time": 52.934090909090905,
                "pitch": 78,
                "velocity": 40,
                "duration": 0.8159090909090878,
                "tempo": 120.0
            }
        ]
    }
}