{
    "track_id": "Miracle Warriors - Seal of the Dark Lord (FM) - 06 - Cavern",
    "mood": "angry",
    "instruments": {
        "Violin": [
            {
                "start_time": 0.011363636363636364,
                "end_time": 0.875,
                "pitch": 67,
                "velocity": 101,
                "duration": 0.8636363636363636,
                "tempo": 120.0
            },
            {
                "start_time": 0.8909090909090909,
                "end_time": 1.1659090909090908,
                "pitch": 69,
                "velocity": 101,
                "duration": 0.2749999999999999,
                "tempo": 120.0
            },
            {
                "start_time": 1.1818181818181817,
                "end_time": 1.7659090909090909,
                "pitch": 70,
                "velocity": 101,
                "duration": 0.5840909090909092,
                "tempo": 120.0
            },
            {
                "start_time": 1.7818181818181817,
                "end_time": 2.068181818181818,
                "pitch": 69,
                "velocity": 101,
                "duration": 0.28636363636363615,
                "tempo": 120.0
            },
            {
                "start_time": 2.084090909090909,
                "end_time": 2.370454545454545,
                "pitch": 67,
                "velocity": 101,
                "duration": 0.28636363636363615,
                "tempo": 120.0
            },
            {
                "start_time": 2.3886363636363637,
                "end_time": 3.577272727272727,
                "pitch": 74,
                "velocity": 101,
                "duration": 1.1886363636363635,
                "tempo": 120.0
            },
            {
                "start_time": 3.593181818181818,
                "end_time": 4.184090909090909,
                "pitch": 73,
                "velocity": 101,
                "duration": 0.5909090909090908,
                "tempo": 120.0
            },
            {
                "start_time": 4.2,
                "end_time": 4.486363636363636,
                "pitch": 70,
                "velocity": 101,
                "duration": 0.28636363636363615,
                "tempo": 120.0
            },
            {
                "start_time": 4.502272727272727,
                "end_time": 4.788636363636363,
                "pitch": 69,
                "velocity": 101,
                "duration": 0.28636363636363615,
                "tempo": 120.0
            },
            {
                "start_time": 4.806818181818182,
                "end_time": 5.388636363636364,
                "pitch": 63,
                "velocity": 101,
                "duration": 0.581818181818182,
                "tempo": 120.0
            },
            {
                "start_time": 5.406818181818181,
                "end_time": 5.995454545454545,
                "pitch": 67,
                "velocity": 101,
                "duration": 0.5886363636363638,
                "tempo": 120.0
            },
            {
                "start_time": 6.011363636363636,
                "end_time": 7.195454545454545,
                "pitch": 70,
                "velocity": 101,
                "duration": 1.1840909090909095,
                "tempo": 120.0
            },
            {
                "start_time": 7.211363636363636,
                "end_time": 7.6,
                "pitch": 69,
                "velocity": 101,
                "duration": 0.38863636363636367,
                "tempo": 120.0
            },
            {
                "start_time": 7.61590909090909,
                "end_time": 8.002272727272727,
                "pitch": 66,
                "velocity": 101,
                "duration": 0.3863636363636367,
                "tempo": 120.0
            },
            {
                "start_time": 8.018181818181818,
                "end_time": 8.402272727272727,
                "pitch": 63,
                "velocity": 101,
                "duration": 0.3840909090909097,
                "tempo": 120.0
            },
            {
                "start_time": 8.418181818181818,
                "end_time": 8.804545454545455,
                "pitch": 60,
                "velocity": 101,
                "duration": 0.3863636363636367,
                "tempo": 120.0
            },
            {
                "start_time": 8.822727272727272,
                "end_time": 9.206818181818182,
                "pitch": 63,
                "velocity": 101,
                "duration": 0.3840909090909097,
                "tempo": 120.0
            },
            {
                "start_time": 9.225,
                "end_time": 9.60681818181818,
                "pitch": 66,
                "velocity": 101,
                "duration": 0.38181818181818095,
                "tempo": 120.0
            },
            {
                "start_time": 9.625,
                "end_time": 10.506818181818181,
                "pitch": 67,
                "velocity": 101,
                "duration": 0.881818181818181,
                "tempo": 120.0
            },
            {
                "start_time": 10.525,
                "end_time": 10.806818181818182,
                "pitch": 69,
                "velocity": 101,
                "duration": 0.2818181818181813,
                "tempo": 120.0
            },
            {
                "start_time": 10.825,
                "end_time": 11.413636363636362,
                "pitch": 70,
                "velocity": 101,
                "duration": 0.588636363636363,
                "tempo": 120.0
            },
            {
                "start_time": 11.429545454545455,
                "end_time": 11.713636363636363,
                "pitch": 69,
                "velocity": 101,
                "duration": 0.2840909090909083,
                "tempo": 120.0
            },
            {
                "start_time": 11.729545454545454,
                "end_time": 12.013636363636364,
                "pitch": 67,
                "velocity": 101,
                "duration": 0.28409090909091006,
                "tempo": 120.0
            },
            {
                "start_time": 12.029545454545454,
                "end_time": 13.213636363636363,
                "pitch": 74,
                "velocity": 101,
                "duration": 1.1840909090909086,
                "tempo": 120.0
            },
            {
                "start_time": 13.229545454545454,
                "end_time": 13.813636363636363,
                "pitch": 73,
                "velocity": 101,
                "duration": 0.584090909090909,
                "tempo": 120.0
            },
            {
                "start_time": 13.829545454545453,
                "end_time": 14.11590909090909,
                "pitch": 70,
                "velocity": 101,
                "duration": 0.28636363636363704,
                "tempo": 120.0
            },
            {
                "start_time": 14.134090909090908,
                "end_time": 14.420454545454545,
                "pitch": 69,
                "velocity": 101,
                "duration": 0.28636363636363704,
                "tempo": 120.0
            },
            {
                "start_time": 14.436363636363636,
                "end_time": 15.020454545454545,
                "pitch": 63,
                "velocity": 101,
                "duration": 0.584090909090909,
                "tempo": 120.0
            },
            {
                "start_time": 15.036363636363635,
                "end_time": 15.620454545454544,
                "pitch": 67,
                "velocity": 101,
                "duration": 0.584090909090909,
                "tempo": 120.0
            },
            {
                "start_time": 15.636363636363635,
                "end_time": 16.820454545454545,
                "pitch": 70,
                "velocity": 101,
                "duration": 1.1840909090909104,
                "tempo": 120.0
            },
            {
                "start_time": 16.836363636363636,
                "end_time": 17.222727272727273,
                "pitch": 69,
                "velocity": 101,
                "duration": 0.3863636363636367,
                "tempo": 120.0
            },
            {
                "start_time": 17.24090909090909,
                "end_time": 17.625,
                "pitch": 66,
                "velocity": 101,
                "duration": 0.3840909090909115,
                "tempo": 120.0
            },
            {
                "start_time": 17.643181818181816,
                "end_time": 18.025,
                "pitch": 63,
                "velocity": 101,
                "duration": 0.3818181818181827,
                "tempo": 120.0
            },
            {
                "start_time": 18.043181818181818,
                "end_time": 18.429545454545455,
                "pitch": 60,
                "velocity": 101,
                "duration": 0.3863636363636367,
                "tempo": 120.0
            },
            {
                "start_time": 18.445454545454545,
                "end_time": 18.834090909090907,
                "pitch": 63,
                "velocity": 101,
                "duration": 0.3886363636363619,
                "tempo": 120.0
            },
            {
                "start_time": 18.849999999999998,
                "end_time": 19.238636363636363,
                "pitch": 66,
                "velocity": 101,
                "duration": 0.38863636363636545,
                "tempo": 120.0
            },
            {
                "start_time": 19.254545454545454,
                "end_time": 20.14090909090909,
                "pitch": 67,
                "velocity": 101,
                "duration": 0.8863636363636367,
                "tempo": 120.0
            },
            {
                "start_time": 20.15681818181818,
                "end_time": 20.443181818181817,
                "pitch": 69,
                "velocity": 101,
                "duration": 0.28636363636363527,
                "tempo": 120.0
            },
            {
                "start_time": 20.461363636363636,
                "end_time": 21.043181818181818,
                "pitch": 70,
                "velocity": 101,
                "duration": 0.581818181818182,
                "tempo": 120.0
            },
            {
                "start_time": 21.061363636363634,
                "end_time": 21.347727272727273,
                "pitch": 69,
                "velocity": 101,
                "duration": 0.2863636363636388,
                "tempo": 120.0
            },
            {
                "start_time": 21.363636363636363,
                "end_time": 21.65,
                "pitch": 67,
                "velocity": 101,
                "duration": 0.28636363636363527,
                "tempo": 120.0
            },
            {
                "start_time": 21.66590909090909,
                "end_time": 22.85681818181818,
                "pitch": 74,
                "velocity": 101,
                "duration": 1.1909090909090914,
                "tempo": 120.0
            },
            {
                "start_time": 22.87272727272727,
                "end_time": 23.461363636363636,
                "pitch": 73,
                "velocity": 101,
                "duration": 0.5886363636363647,
                "tempo": 120.0
            },
            {
                "start_time": 23.479545454545452,
                "end_time": 23.761363636363637,
                "pitch": 70,
                "velocity": 101,
                "duration": 0.28181818181818485,
                "tempo": 120.0
            },
            {
                "start_time": 23.779545454545453,
                "end_time": 24.061363636363634,
                "pitch": 69,
                "velocity": 101,
                "duration": 0.2818181818181813,
                "tempo": 120.0
            },
            {
                "start_time": 24.079545454545453,
                "end_time": 24.668181818181818,
                "pitch": 63,
                "velocity": 101,
                "duration": 0.5886363636363647,
                "tempo": 120.0
            },
            {
                "start_time": 24.68409090909091,
                "end_time": 25.275,
                "pitch": 67,
                "velocity": 101,
                "duration": 0.5909090909090899,
                "tempo": 120.0
            },
            {
                "start_time": 25.29090909090909,
                "end_time": 26.479545454545452,
                "pitch": 70,
                "velocity": 101,
                "duration": 1.1886363636363626,
                "tempo": 120.0
            },
            {
                "start_time": 26.49772727272727,
                "end_time": 26.879545454545454,
                "pitch": 69,
                "velocity": 101,
                "duration": 0.3818181818181827,
                "tempo": 120.0
            },
            {
                "start_time": 26.89772727272727,
                "end_time": 27.28181818181818,
                "pitch": 66,
                "velocity": 101,
                "duration": 0.3840909090909115,
                "tempo": 120.0
            },
            {
                "start_time": 27.299999999999997,
                "end_time": 27.686363636363634,
                "pitch": 63,
                "velocity": 101,
                "duration": 0.3863636363636367,
                "tempo": 120.0
            },
            {
                "start_time": 27.702272727272724,
                "end_time": 28.09090909090909,
                "pitch": 60,
                "velocity": 101,
                "duration": 0.38863636363636545,
                "tempo": 120.0
            },
            {
                "start_time": 28.10681818181818,
                "end_time": 28.493181818181817,
                "pitch": 63,
                "velocity": 101,
                "duration": 0.3863636363636367,
                "tempo": 120.0
            },
            {
                "start_time": 28.509090909090908,
                "end_time": 28.893181818181816,
                "pitch": 66,
                "velocity": 101,
                "duration": 0.38409090909090793,
                "tempo": 120.0
            },
            {
                "start_time": 28.909090909090907,
                "end_time": 29.797727272727272,
                "pitch": 67,
                "velocity": 101,
                "duration": 0.8886363636363654,
                "tempo": 120.0
            },
            {
                "start_time": 29.815909090909088,
                "end_time": 30.097727272727273,
                "pitch": 69,
                "velocity": 101,
                "duration": 0.28181818181818485,
                "tempo": 120.0
            },
            {
                "start_time": 30.11590909090909,
                "end_time": 30.704545454545453,
                "pitch": 70,
                "velocity": 101,
                "duration": 0.5886363636363647,
                "tempo": 120.0
            },
            {
                "start_time": 30.720454545454544,
                "end_time": 31.00681818181818,
                "pitch": 69,
                "velocity": 101,
                "duration": 0.28636363636363527,
                "tempo": 120.0
            },
            {
                "start_time": 31.025,
                "end_time": 31.311363636363634,
                "pitch": 67,
                "velocity": 101,
                "duration": 0.28636363636363527,
                "tempo": 120.0
            },
            {
                "start_time": 31.327272727272724,
                "end_time": 32.51590909090909,
                "pitch": 74,
                "velocity": 101,
                "duration": 1.1886363636363662,
                "tempo": 120.0
            },
            {
                "start_time": 32.53409090909091,
                "end_time": 33.11590909090909,
                "pitch": 73,
                "velocity": 101,
                "duration": 0.5818181818181856,
                "tempo": 120.0
            },
            {
                "start_time": 33.13409090909091,
                "end_time": 33.42045454545455,
                "pitch": 70,
                "velocity": 101,
                "duration": 0.2863636363636388,
                "tempo": 120.0
            },
            {
                "start_time": 33.43636363636364,
                "end_time": 33.72272727272727,
                "pitch": 69,
                "velocity": 101,
                "duration": 0.2863636363636317,
                "tempo": 120.0
            },
            {
                "start_time": 33.73863636363636,
                "end_time": 34.32954545454545,
                "pitch": 63,
                "velocity": 101,
                "duration": 0.5909090909090935,
                "tempo": 120.0
            },
            {
                "start_time": 34.345454545454544,
                "end_time": 34.934090909090905,
                "pitch": 67,
                "velocity": 101,
                "duration": 0.5886363636363612,
                "tempo": 120.0
            },
            {
                "start_time": 34.95227272727273,
                "end_time": 36.14090909090909,
                "pitch": 70,
                "velocity": 101,
                "duration": 1.1886363636363626,
                "tempo": 120.0
            },
            {
                "start_time": 36.15681818181818,
                "end_time": 36.54545454545455,
                "pitch": 69,
                "velocity": 101,
                "duration": 0.38863636363636545,
                "tempo": 120.0
            },
            {
                "start_time": 36.56136363636364,
                "end_time": 36.94772727272727,
                "pitch": 66,
                "velocity": 101,
                "duration": 0.38636363636363313,
                "tempo": 120.0
            },
            {
                "start_time": 36.965909090909086,
                "end_time": 37.35227272727273,
                "pitch": 63,
                "velocity": 101,
                "duration": 0.38636363636364024,
                "tempo": 120.0
            },
            {
                "start_time": 37.37045454545454,
                "end_time": 37.75681818181818,
                "pitch": 60,
                "velocity": 101,
                "duration": 0.38636363636364024,
                "tempo": 120.0
            },
            {
                "start_time": 37.77272727272727,
                "end_time": 38.15909090909091,
                "pitch": 63,
                "velocity": 101,
                "duration": 0.38636363636363313,
                "tempo": 120.0
            },
            {
                "start_time": 38.175,
                "end_time": 38.559090909090905,
                "pitch": 66,
                "velocity": 101,
                "duration": 0.38409090909090793,
                "tempo": 120.0
            },
            {
                "start_time": 57.934090909090905,
                "end_time": 58.824999999999996,
                "pitch": 67,
                "velocity": 101,
                "duration": 0.8909090909090907,
                "tempo": 120.0
            },
            {
                "start_time": 58.84318181818182,
                "end_time": 59.095454545454544,
                "pitch": 69,
                "velocity": 101,
                "duration": 0.2522727272727252,
                "tempo": 120.0
            }
        ],
        "Acoustic Guitar (nylon)": [
            {
                "start_time": 38.574999999999996,
                "end_time": 40.98409090909091,
                "pitch": 62,
                "velocity": 51,
                "duration": 2.4090909090909136,
                "tempo": 120.0
            },
            {
                "start_time": 41.0,
                "end_time": 41.38409090909091,
                "pitch": 78,
                "velocity": 51,
                "duration": 0.38409090909090793,
                "tempo": 120.0
            },
            {
                "start_time": 41.4,
                "end_time": 41.78409090909091,
                "pitch": 79,
                "velocity": 51,
                "duration": 0.38409090909090793,
                "tempo": 120.0
            },
            {
                "start_time": 41.80227272727272,
                "end_time": 42.18863636363636,
                "pitch": 81,
                "velocity": 51,
                "duration": 0.38636363636364024,
                "tempo": 120.0
            },
            {
                "start_time": 42.20681818181818,
                "end_time": 42.59318181818182,
                "pitch": 82,
                "velocity": 51,
                "duration": 0.38636363636364024,
                "tempo": 120.0
            },
            {
                "start_time": 42.60909090909091,
                "end_time": 42.99772727272727,
                "pitch": 81,
                "velocity": 51,
                "duration": 0.38863636363635834,
                "tempo": 120.0
            },
            {
                "start_time": 43.01363636363636,
                "end_time": 43.402272727272724,
                "pitch": 79,
                "velocity": 51,
                "duration": 0.38863636363636545,
                "tempo": 120.0
            },
            {
                "start_time": 43.418181818181814,
                "end_time": 45.820454545454545,
                "pitch": 75,
                "velocity": 51,
                "duration": 2.402272727272731,
                "tempo": 120.0
            },
            {
                "start_time": 45.836363636363636,
                "end_time": 48.23863636363636,
                "pitch": 75,
                "velocity": 51,
                "duration": 2.402272727272724,
                "tempo": 120.0
            },
            {
                "start_time": 48.25454545454545,
                "end_time": 50.65681818181818,
                "pitch": 62,
                "velocity": 51,
                "duration": 2.402272727272731,
                "tempo": 120.0
            },
            {
                "start_time": 50.67272727272727,
                "end_time": 51.059090909090905,
                "pitch": 78,
                "velocity": 51,
                "duration": 0.38636363636363313,
                "tempo": 120.0
            },
            {
                "start_time": 51.07727272727273,
                "end_time": 51.46363636363636,
                "pitch": 79,
                "velocity": 51,
                "duration": 0.38636363636363313,
                "tempo": 120.0
            },
            {
                "start_time": 51.48181818181818,
                "end_time": 51.86818181818182,
                "pitch": 81,
                "velocity": 51,
                "duration": 0.38636363636364024,
                "tempo": 120.0
            },
            {
                "start_time": 51.88409090909091,
                "end_time": 52.27272727272727,
                "pitch": 82,
                "velocity": 51,
                "duration": 0.38863636363636545,
                "tempo": 120.0
            },
            {
                "start_time": 52.288636363636364,
                "end_time": 52.675,
                "pitch": 81,
                "velocity": 51,
                "duration": 0.38636363636363313,
                "tempo": 120.0
            },
            {
                "start_time": 52.69318181818181,
                "end_time": 53.07954545454545,
                "pitch": 82,
                "velocity": 51,
                "duration": 0.38636363636364024,
                "tempo": 120.0
            },
            {
                "start_time": 53.09772727272727,
                "end_time": 55.49772727272727,
                "pitch": 79,
                "velocity": 51,
                "duration": 2.3999999999999986,
                "tempo": 120.0
            },
            {
                "start_time": 55.51590909090909,
                "end_time": 56.70454545454545,
                "pitch": 79,
                "velocity": 51,
                "duration": 1.1886363636363626,
                "tempo": 120.0
            },
            {
                "start_time": 56.720454545454544,
                "end_time": 57.91590909090909,
                "pitch": 70,
                "velocity": 51,
                "duration": 1.1954545454545453,
                "tempo": 120.0
            }
        ],
        "Oboe": [
            {
                "start_time": 0.011363636363636364,
                "end_time": 0.5818181818181818,
                "pitch": 31,
                "velocity": 51,
                "duration": 0.5704545454545454,
                "tempo": 120.0
            },
            {
                "start_time": 0.6,
                "end_time": 1.1659090909090908,
                "pitch": 31,
                "velocity": 51,
                "duration": 0.5659090909090908,
                "tempo": 120.0
            },
            {
                "start_time": 1.1818181818181817,
                "end_time": 1.7659090909090909,
                "pitch": 31,
                "velocity": 51,
                "duration": 0.5840909090909092,
                "tempo": 120.0
            },
            {
                "start_time": 1.7818181818181817,
                "end_time": 2.068181818181818,
                "pitch": 31,
                "velocity": 51,
                "duration": 0.28636363636363615,
                "tempo": 120.0
            },
            {
                "start_time": 2.084090909090909,
                "end_time": 2.370454545454545,
                "pitch": 37,
                "velocity": 51,
                "duration": 0.28636363636363615,
                "tempo": 120.0
            },
            {
                "start_time": 2.3886363636363637,
                "end_time": 2.9704545454545452,
                "pitch": 38,
                "velocity": 51,
                "duration": 0.5818181818181816,
                "tempo": 120.0
            },
            {
                "start_time": 2.9886363636363633,
                "end_time": 3.577272727272727,
                "pitch": 38,
                "velocity": 51,
                "duration": 0.5886363636363638,
                "tempo": 120.0
            },
            {
                "start_time": 3.593181818181818,
                "end_time": 4.184090909090909,
                "pitch": 38,
                "velocity": 51,
                "duration": 0.5909090909090908,
                "tempo": 120.0
            },
            {
                "start_time": 4.2,
                "end_time": 4.486363636363636,
                "pitch": 38,
                "velocity": 51,
                "duration": 0.28636363636363615,
                "tempo": 120.0
            },
            {
                "start_time": 4.502272727272727,
                "end_time": 4.788636363636363,
                "pitch": 41,
                "velocity": 51,
                "duration": 0.28636363636363615,
                "tempo": 120.0
            },
            {
                "start_time": 4.806818181818182,
                "end_time": 5.388636363636364,
                "pitch": 39,
                "velocity": 51,
                "duration": 0.581818181818182,
                "tempo": 120.0
            },
            {
                "start_time": 5.406818181818181,
                "end_time": 5.995454545454545,
                "pitch": 39,
                "velocity": 51,
                "duration": 0.5886363636363638,
                "tempo": 120.0
            },
            {
                "start_time": 6.011363636363636,
                "end_time": 6.595454545454545,
                "pitch": 39,
                "velocity": 51,
                "duration": 0.584090909090909,
                "tempo": 120.0
            },
            {
                "start_time": 6.611363636363636,
                "end_time": 7.195454545454545,
                "pitch": 39,
                "velocity": 51,
                "duration": 0.584090909090909,
                "tempo": 120.0
            },
            {
                "start_time": 7.211363636363636,
                "end_time": 8.402272727272727,
                "pitch": 33,
                "velocity": 51,
                "duration": 1.1909090909090914,
                "tempo": 120.0
            },
            {
                "start_time": 8.418181818181818,
                "end_time": 9.60681818181818,
                "pitch": 36,
                "velocity": 51,
                "duration": 1.1886363636363626,
                "tempo": 120.0
            },
            {
                "start_time": 9.625,
                "end_time": 10.206818181818182,
                "pitch": 31,
                "velocity": 51,
                "duration": 0.581818181818182,
                "tempo": 120.0
            },
            {
                "start_time": 10.225,
                "end_time": 10.806818181818182,
                "pitch": 31,
                "velocity": 51,
                "duration": 0.581818181818182,
                "tempo": 120.0
            },
            {
                "start_time": 10.825,
                "end_time": 11.413636363636362,
                "pitch": 31,
                "velocity": 51,
                "duration": 0.588636363636363,
                "tempo": 120.0
            },
            {
                "start_time": 11.429545454545455,
                "end_time": 11.713636363636363,
                "pitch": 31,
                "velocity": 51,
                "duration": 0.2840909090909083,
                "tempo": 120.0
            },
            {
                "start_time": 11.729545454545454,
                "end_time": 12.013636363636364,
                "pitch": 37,
                "velocity": 51,
                "duration": 0.28409090909091006,
                "tempo": 120.0
            },
            {
                "start_time": 12.029545454545454,
                "end_time": 12.613636363636363,
                "pitch": 38,
                "velocity": 51,
                "duration": 0.584090909090909,
                "tempo": 120.0
            },
            {
                "start_time": 12.629545454545454,
                "end_time": 13.213636363636363,
                "pitch": 38,
                "velocity": 51,
                "duration": 0.584090909090909,
                "tempo": 120.0
            },
            {
                "start_time": 13.229545454545454,
                "end_time": 13.813636363636363,
                "pitch": 38,
                "velocity": 51,
                "duration": 0.584090909090909,
                "tempo": 120.0
            },
            {
                "start_time": 13.829545454545453,
                "end_time": 14.11590909090909,
                "pitch": 38,
                "velocity": 51,
                "duration": 0.28636363636363704,
                "tempo": 120.0
            },
            {
                "start_time": 14.134090909090908,
                "end_time": 14.420454545454545,
                "pitch": 41,
                "velocity": 51,
                "duration": 0.28636363636363704,
                "tempo": 120.0
            },
            {
                "start_time": 14.436363636363636,
                "end_time": 15.020454545454545,
                "pitch": 39,
                "velocity": 51,
                "duration": 0.584090909090909,
                "tempo": 120.0
            },
            {
                "start_time": 15.036363636363635,
                "end_time": 15.620454545454544,
                "pitch": 39,
                "velocity": 51,
                "duration": 0.584090909090909,
                "tempo": 120.0
            },
            {
                "start_time": 15.636363636363635,
                "end_time": 16.220454545454544,
                "pitch": 39,
                "velocity": 51,
                "duration": 0.584090909090909,
                "tempo": 120.0
            },
            {
                "start_time": 16.236363636363635,
                "end_time": 16.820454545454545,
                "pitch": 39,
                "velocity": 51,
                "duration": 0.5840909090909108,
                "tempo": 120.0
            },
            {
                "start_time": 16.836363636363636,
                "end_time": 18.025,
                "pitch": 33,
                "velocity": 51,
                "duration": 1.1886363636363626,
                "tempo": 120.0
            },
            {
                "start_time": 18.043181818181818,
                "end_time": 19.238636363636363,
                "pitch": 36,
                "velocity": 51,
                "duration": 1.1954545454545453,
                "tempo": 120.0
            },
            {
                "start_time": 19.254545454545454,
                "end_time": 19.83863636363636,
                "pitch": 31,
                "velocity": 51,
                "duration": 0.5840909090909072,
                "tempo": 120.0
            },
            {
                "start_time": 19.854545454545452,
                "end_time": 20.443181818181817,
                "pitch": 31,
                "velocity": 51,
                "duration": 0.5886363636363647,
                "tempo": 120.0
            },
            {
                "start_time": 20.461363636363636,
                "end_time": 21.043181818181818,
                "pitch": 31,
                "velocity": 51,
                "duration": 0.581818181818182,
                "tempo": 120.0
            },
            {
                "start_time": 21.061363636363634,
                "end_time": 21.347727272727273,
                "pitch": 31,
                "velocity": 51,
                "duration": 0.2863636363636388,
                "tempo": 120.0
            },
            {
                "start_time": 21.363636363636363,
                "end_time": 21.65,
                "pitch": 37,
                "velocity": 51,
                "duration": 0.28636363636363527,
                "tempo": 120.0
            },
            {
                "start_time": 21.66590909090909,
                "end_time": 22.25681818181818,
                "pitch": 38,
                "velocity": 51,
                "duration": 0.5909090909090899,
                "tempo": 120.0
            },
            {
                "start_time": 22.272727272727273,
                "end_time": 22.85681818181818,
                "pitch": 38,
                "velocity": 51,
                "duration": 0.5840909090909072,
                "tempo": 120.0
            },
            {
                "start_time": 22.87272727272727,
                "end_time": 23.461363636363636,
                "pitch": 38,
                "velocity": 51,
                "duration": 0.5886363636363647,
                "tempo": 120.0
            },
            {
                "start_time": 23.479545454545452,
                "end_time": 23.761363636363637,
                "pitch": 38,
                "velocity": 51,
                "duration": 0.28181818181818485,
                "tempo": 120.0
            },
            {
                "start_time": 23.779545454545453,
                "end_time": 24.061363636363634,
                "pitch": 41,
                "velocity": 51,
                "duration": 0.2818181818181813,
                "tempo": 120.0
            },
            {
                "start_time": 24.079545454545453,
                "end_time": 24.668181818181818,
                "pitch": 39,
                "velocity": 51,
                "duration": 0.5886363636363647,
                "tempo": 120.0
            },
            {
                "start_time": 24.68409090909091,
                "end_time": 25.275,
                "pitch": 39,
                "velocity": 51,
                "duration": 0.5909090909090899,
                "tempo": 120.0
            },
            {
                "start_time": 25.29090909090909,
                "end_time": 25.875,
                "pitch": 39,
                "velocity": 51,
                "duration": 0.5840909090909108,
                "tempo": 120.0
            },
            {
                "start_time": 25.89090909090909,
                "end_time": 26.479545454545452,
                "pitch": 39,
                "velocity": 51,
                "duration": 0.5886363636363612,
                "tempo": 120.0
            },
            {
                "start_time": 26.49772727272727,
                "end_time": 27.686363636363634,
                "pitch": 33,
                "velocity": 51,
                "duration": 1.1886363636363626,
                "tempo": 120.0
            },
            {
                "start_time": 27.702272727272724,
                "end_time": 28.893181818181816,
                "pitch": 36,
                "velocity": 51,
                "duration": 1.1909090909090914,
                "tempo": 120.0
            },
            {
                "start_time": 28.909090909090907,
                "end_time": 29.49772727272727,
                "pitch": 31,
                "velocity": 51,
                "duration": 0.5886363636363647,
                "tempo": 120.0
            },
            {
                "start_time": 29.51590909090909,
                "end_time": 30.097727272727273,
                "pitch": 31,
                "velocity": 51,
                "duration": 0.581818181818182,
                "tempo": 120.0
            },
            {
                "start_time": 30.11590909090909,
                "end_time": 30.704545454545453,
                "pitch": 31,
                "velocity": 51,
                "duration": 0.5886363636363647,
                "tempo": 120.0
            },
            {
                "start_time": 30.720454545454544,
                "end_time": 31.00681818181818,
                "pitch": 31,
                "velocity": 51,
                "duration": 0.28636363636363527,
                "tempo": 120.0
            },
            {
                "start_time": 31.025,
                "end_time": 31.311363636363634,
                "pitch": 37,
                "velocity": 51,
                "duration": 0.28636363636363527,
                "tempo": 120.0
            },
            {
                "start_time": 31.327272727272724,
                "end_time": 31.911363636363635,
                "pitch": 38,
                "velocity": 51,
                "duration": 0.5840909090909108,
                "tempo": 120.0
            },
            {
                "start_time": 31.927272727272726,
                "end_time": 32.51590909090909,
                "pitch": 38,
                "velocity": 51,
                "duration": 0.5886363636363647,
                "tempo": 120.0
            },
            {
                "start_time": 32.53409090909091,
                "end_time": 33.11590909090909,
                "pitch": 38,
                "velocity": 51,
                "duration": 0.5818181818181856,
                "tempo": 120.0
            },
            {
                "start_time": 33.13409090909091,
                "end_time": 33.42045454545455,
                "pitch": 38,
                "velocity": 51,
                "duration": 0.2863636363636388,
                "tempo": 120.0
            },
            {
                "start_time": 33.43636363636364,
                "end_time": 33.72272727272727,
                "pitch": 41,
                "velocity": 51,
                "duration": 0.2863636363636317,
                "tempo": 120.0
            },
            {
                "start_time": 33.73863636363636,
                "end_time": 34.32954545454545,
                "pitch": 39,
                "velocity": 51,
                "duration": 0.5909090909090935,
                "tempo": 120.0
            },
            {
                "start_time": 34.345454545454544,
                "end_time": 34.934090909090905,
                "pitch": 39,
                "velocity": 51,
                "duration": 0.5886363636363612,
                "tempo": 120.0
            },
            {
                "start_time": 34.95227272727273,
                "end_time": 35.53409090909091,
                "pitch": 39,
                "velocity": 51,
                "duration": 0.5818181818181785,
                "tempo": 120.0
            },
            {
                "start_time": 35.55227272727272,
                "end_time": 36.14090909090909,
                "pitch": 39,
                "velocity": 51,
                "duration": 0.5886363636363683,
                "tempo": 120.0
            },
            {
                "start_time": 36.15681818181818,
                "end_time": 37.35227272727273,
                "pitch": 33,
                "velocity": 51,
                "duration": 1.1954545454545453,
                "tempo": 120.0
            },
            {
                "start_time": 37.37045454545454,
                "end_time": 38.559090909090905,
                "pitch": 36,
                "velocity": 51,
                "duration": 1.1886363636363626,
                "tempo": 120.0
            },
            {
                "start_time": 38.574999999999996,
                "end_time": 39.77045454545454,
                "pitch": 38,
                "velocity": 51,
                "duration": 1.1954545454545453,
                "tempo": 120.0
            },
            {
                "start_time": 39.788636363636364,
                "end_time": 40.074999999999996,
                "pitch": 46,
                "velocity": 51,
                "duration": 0.2863636363636317,
                "tempo": 120.0
            },
            {
                "start_time": 40.090909090909086,
                "end_time": 40.377272727272725,
                "pitch": 45,
                "velocity": 51,
                "duration": 0.2863636363636388,
                "tempo": 120.0
            },
            {
                "start_time": 40.393181818181816,
                "end_time": 40.679545454545455,
                "pitch": 43,
                "velocity": 51,
                "duration": 0.2863636363636388,
                "tempo": 120.0
            },
            {
                "start_time": 40.69772727272727,
                "end_time": 40.98409090909091,
                "pitch": 42,
                "velocity": 51,
                "duration": 0.2863636363636388,
                "tempo": 120.0
            },
            {
                "start_time": 41.0,
                "end_time": 43.402272727272724,
                "pitch": 38,
                "velocity": 51,
                "duration": 2.402272727272724,
                "tempo": 120.0
            },
            {
                "start_time": 43.418181818181814,
                "end_time": 43.804545454545455,
                "pitch": 39,
                "velocity": 51,
                "duration": 0.38636363636364024,
                "tempo": 120.0
            },
            {
                "start_time": 43.82272727272727,
                "end_time": 44.20681818181818,
                "pitch": 43,
                "velocity": 51,
                "duration": 0.38409090909090793,
                "tempo": 120.0
            },
            {
                "start_time": 44.224999999999994,
                "end_time": 44.60681818181818,
                "pitch": 46,
                "velocity": 51,
                "duration": 0.3818181818181827,
                "tempo": 120.0
            },
            {
                "start_time": 44.625,
                "end_time": 45.01136363636363,
                "pitch": 51,
                "velocity": 51,
                "duration": 0.38636363636363313,
                "tempo": 120.0
            },
            {
                "start_time": 45.027272727272724,
                "end_time": 45.41590909090909,
                "pitch": 50,
                "velocity": 51,
                "duration": 0.38863636363636545,
                "tempo": 120.0
            },
            {
                "start_time": 45.43181818181818,
                "end_time": 45.820454545454545,
                "pitch": 51,
                "velocity": 51,
                "duration": 0.38863636363636545,
                "tempo": 120.0
            },
            {
                "start_time": 45.836363636363636,
                "end_time": 46.22272727272727,
                "pitch": 53,
                "velocity": 51,
                "duration": 0.38636363636363313,
                "tempo": 120.0
            },
            {
                "start_time": 46.24090909090909,
                "end_time": 46.627272727272725,
                "pitch": 51,
                "velocity": 51,
                "duration": 0.38636363636363313,
                "tempo": 120.0
            },
            {
                "start_time": 46.64545454545454,
                "end_time": 47.03181818181818,
                "pitch": 46,
                "velocity": 51,
                "duration": 0.38636363636364024,
                "tempo": 120.0
            },
            {
                "start_time": 47.04772727272727,
                "end_time": 47.43181818181818,
                "pitch": 50,
                "velocity": 51,
                "duration": 0.38409090909090793,
                "tempo": 120.0
            },
            {
                "start_time": 47.44772727272727,
                "end_time": 47.834090909090904,
                "pitch": 48,
                "velocity": 51,
                "duration": 0.38636363636363313,
                "tempo": 120.0
            },
            {
                "start_time": 47.849999999999994,
                "end_time": 48.23863636363636,
                "pitch": 42,
                "velocity": 51,
                "duration": 0.38863636363636545,
                "tempo": 120.0
            },
            {
                "start_time": 48.25454545454545,
                "end_time": 49.449999999999996,
                "pitch": 38,
                "velocity": 51,
                "duration": 1.1954545454545453,
                "tempo": 120.0
            },
            {
                "start_time": 49.465909090909086,
                "end_time": 49.752272727272725,
                "pitch": 46,
                "velocity": 51,
                "duration": 0.2863636363636388,
                "tempo": 120.0
            },
            {
                "start_time": 49.77045454545454,
                "end_time": 50.05681818181818,
                "pitch": 45,
                "velocity": 51,
                "duration": 0.2863636363636388,
                "tempo": 120.0
            },
            {
                "start_time": 50.07272727272727,
                "end_time": 50.35681818181818,
                "pitch": 43,
                "velocity": 51,
                "duration": 0.2840909090909065,
                "tempo": 120.0
            },
            {
                "start_time": 50.37272727272727,
                "end_time": 50.65681818181818,
                "pitch": 42,
                "velocity": 51,
                "duration": 0.2840909090909136,
                "tempo": 120.0
            },
            {
                "start_time": 50.67272727272727,
                "end_time": 53.07954545454545,
                "pitch": 38,
                "velocity": 51,
                "duration": 2.4068181818181813,
                "tempo": 120.0
            },
            {
                "start_time": 53.09772727272727,
                "end_time": 53.47954545454545,
                "pitch": 39,
                "velocity": 51,
                "duration": 0.3818181818181827,
                "tempo": 120.0
            },
            {
                "start_time": 53.49772727272727,
                "end_time": 53.88181818181818,
                "pitch": 43,
                "velocity": 51,
                "duration": 0.38409090909091503,
                "tempo": 120.0
            },
            {
                "start_time": 53.9,
                "end_time": 54.28636363636363,
                "pitch": 46,
                "velocity": 51,
                "duration": 0.38636363636363313,
                "tempo": 120.0
            },
            {
                "start_time": 54.30227272727272,
                "end_time": 54.69090909090909,
                "pitch": 51,
                "velocity": 51,
                "duration": 0.38863636363636545,
                "tempo": 120.0
            },
            {
                "start_time": 54.70681818181818,
                "end_time": 55.09318181818182,
                "pitch": 50,
                "velocity": 51,
                "duration": 0.38636363636364024,
                "tempo": 120.0
            },
            {
                "start_time": 55.111363636363635,
                "end_time": 55.49772727272727,
                "pitch": 51,
                "velocity": 51,
                "duration": 0.38636363636363313,
                "tempo": 120.0
            },
            {
                "start_time": 55.51590909090909,
                "end_time": 56.70454545454545,
                "pitch": 40,
                "velocity": 51,
                "duration": 1.1886363636363626,
                "tempo": 120.0
            },
            {
                "start_time": 56.720454545454544,
                "end_time": 57.31136363636363,
                "pitch": 41,
                "velocity": 51,
                "duration": 0.5909090909090864,
                "tempo": 120.0
            },
            {
                "start_time": 57.32727272727272,
                "end_time": 57.91590909090909,
                "pitch": 42,
                "velocity": 51,
                "duration": 0.5886363636363683,
                "tempo": 120.0
            },
            {
                "start_time": 57.934090909090905,
                "end_time": 58.52272727272727,
                "pitch": 31,
                "velocity": 51,
                "duration": 0.5886363636363683,
                "tempo": 120.0
            },
            {
                "start_time": 58.538636363636364,
                "end_time": 59.095454545454544,
                "pitch": 31,
                "velocity": 51,
                "duration": 0.5568181818181799,
                "tempo": 120.0
            }
        ]
    }
}