{
    "track_id": "Miracle Warriors - Seal of the Dark Lord (FM) - 04 - Castle",
    "mood": "angry",
    "instruments": {
        "Violin": [
            {
                "start_time": 0.015909090909090907,
                "end_time": 0.18409090909090908,
                "pitch": 67,
                "velocity": 127,
                "duration": 0.16818181818181818,
                "tempo": 120.0
            },
            {
                "start_time": 0.19999999999999998,
                "end_time": 0.3840909090909091,
                "pitch": 65,
                "velocity": 127,
                "duration": 0.1840909090909091,
                "tempo": 120.0
            },
            {
                "start_time": 0.39999999999999997,
                "end_time": 0.575,
                "pitch": 63,
                "velocity": 127,
                "duration": 0.175,
                "tempo": 120.0
            },
            {
                "start_time": 0.5909090909090908,
                "end_time": 0.7659090909090909,
                "pitch": 60,
                "velocity": 127,
                "duration": 0.17500000000000004,
                "tempo": 120.0
            },
            {
                "start_time": 0.7818181818181817,
                "end_time": 1.1659090909090908,
                "pitch": 60,
                "velocity": 127,
                "duration": 0.38409090909090904,
                "tempo": 120.0
            },
            {
                "start_time": 1.1818181818181817,
                "end_time": 1.3659090909090907,
                "pitch": 63,
                "velocity": 127,
                "duration": 0.18409090909090908,
                "tempo": 120.0
            },
            {
                "start_time": 1.3818181818181818,
                "end_time": 1.565909090909091,
                "pitch": 67,
                "velocity": 127,
                "duration": 0.18409090909090908,
                "tempo": 120.0
            },
            {
                "start_time": 1.5818181818181818,
                "end_time": 1.7659090909090909,
                "pitch": 65,
                "velocity": 127,
                "duration": 0.18409090909090908,
                "tempo": 120.0
            },
            {
                "start_time": 1.784090909090909,
                "end_time": 1.968181818181818,
                "pitch": 63,
                "velocity": 127,
                "duration": 0.18409090909090908,
                "tempo": 120.0
            },
            {
                "start_time": 1.984090909090909,
                "end_time": 2.172727272727273,
                "pitch": 62,
                "velocity": 127,
                "duration": 0.18863636363636394,
                "tempo": 120.0
            },
            {
                "start_time": 2.190909090909091,
                "end_time": 2.3795454545454544,
                "pitch": 58,
                "velocity": 127,
                "duration": 0.1886363636363635,
                "tempo": 120.0
            },
            {
                "start_time": 2.3954545454545455,
                "end_time": 3.1704545454545454,
                "pitch": 58,
                "velocity": 127,
                "duration": 0.7749999999999999,
                "tempo": 120.0
            },
            {
                "start_time": 3.1886363636363635,
                "end_time": 3.3727272727272726,
                "pitch": 67,
                "velocity": 127,
                "duration": 0.18409090909090908,
                "tempo": 120.0
            },
            {
                "start_time": 3.3886363636363637,
                "end_time": 3.5727272727272728,
                "pitch": 65,
                "velocity": 127,
                "duration": 0.18409090909090908,
                "tempo": 120.0
            },
            {
                "start_time": 3.590909090909091,
                "end_time": 3.7795454545454543,
                "pitch": 63,
                "velocity": 127,
                "duration": 0.1886363636363635,
                "tempo": 120.0
            },
            {
                "start_time": 3.7954545454545454,
                "end_time": 3.984090909090909,
                "pitch": 60,
                "velocity": 127,
                "duration": 0.1886363636363635,
                "tempo": 120.0
            },
            {
                "start_time": 4.002272727272727,
                "end_time": 4.377272727272727,
                "pitch": 60,
                "velocity": 127,
                "duration": 0.375,
                "tempo": 120.0
            },
            {
                "start_time": 4.393181818181818,
                "end_time": 4.577272727272727,
                "pitch": 63,
                "velocity": 127,
                "duration": 0.18409090909090953,
                "tempo": 120.0
            },
            {
                "start_time": 4.595454545454545,
                "end_time": 4.779545454545454,
                "pitch": 67,
                "velocity": 127,
                "duration": 0.18409090909090953,
                "tempo": 120.0
            },
            {
                "start_time": 4.795454545454545,
                "end_time": 5.179545454545455,
                "pitch": 67,
                "velocity": 127,
                "duration": 0.3840909090909097,
                "tempo": 120.0
            },
            {
                "start_time": 5.195454545454545,
                "end_time": 5.379545454545454,
                "pitch": 68,
                "velocity": 127,
                "duration": 0.18409090909090864,
                "tempo": 120.0
            },
            {
                "start_time": 5.3977272727272725,
                "end_time": 5.781818181818181,
                "pitch": 65,
                "velocity": 127,
                "duration": 0.3840909090909088,
                "tempo": 120.0
            },
            {
                "start_time": 5.797727272727273,
                "end_time": 5.9818181818181815,
                "pitch": 63,
                "velocity": 127,
                "duration": 0.18409090909090864,
                "tempo": 120.0
            },
            {
                "start_time": 5.997727272727272,
                "end_time": 6.184090909090909,
                "pitch": 62,
                "velocity": 127,
                "duration": 0.1863636363636365,
                "tempo": 120.0
            },
            {
                "start_time": 6.199999999999999,
                "end_time": 6.384090909090909,
                "pitch": 63,
                "velocity": 127,
                "duration": 0.18409090909090953,
                "tempo": 120.0
            },
            {
                "start_time": 6.402272727272727,
                "end_time": 7.186363636363636,
                "pitch": 63,
                "velocity": 127,
                "duration": 0.7840909090909083,
                "tempo": 120.0
            },
            {
                "start_time": 7.204545454545454,
                "end_time": 7.388636363636364,
                "pitch": 60,
                "velocity": 127,
                "duration": 0.18409090909090953,
                "tempo": 120.0
            },
            {
                "start_time": 7.404545454545454,
                "end_time": 7.590909090909091,
                "pitch": 62,
                "velocity": 127,
                "duration": 0.1863636363636365,
                "tempo": 120.0
            },
            {
                "start_time": 7.6068181818181815,
                "end_time": 7.79090909090909,
                "pitch": 63,
                "velocity": 127,
                "duration": 0.18409090909090864,
                "tempo": 120.0
            },
            {
                "start_time": 7.806818181818182,
                "end_time": 7.99090909090909,
                "pitch": 65,
                "velocity": 127,
                "duration": 0.18409090909090864,
                "tempo": 120.0
            },
            {
                "start_time": 8.006818181818181,
                "end_time": 8.190909090909091,
                "pitch": 65,
                "velocity": 127,
                "duration": 0.18409090909091042,
                "tempo": 120.0
            },
            {
                "start_time": 8.209090909090909,
                "end_time": 8.393181818181818,
                "pitch": 62,
                "velocity": 127,
                "duration": 0.18409090909090864,
                "tempo": 120.0
            },
            {
                "start_time": 8.409090909090908,
                "end_time": 8.597727272727273,
                "pitch": 63,
                "velocity": 127,
                "duration": 0.18863636363636438,
                "tempo": 120.0
            },
            {
                "start_time": 8.613636363636363,
                "end_time": 8.802272727272728,
                "pitch": 65,
                "velocity": 127,
                "duration": 0.18863636363636438,
                "tempo": 120.0
            },
            {
                "start_time": 8.820454545454545,
                "end_time": 9.06590909090909,
                "pitch": 67,
                "velocity": 127,
                "duration": 0.24545454545454426,
                "tempo": 120.0
            },
            {
                "start_time": 9.081818181818182,
                "end_time": 9.329545454545453,
                "pitch": 63,
                "velocity": 127,
                "duration": 0.24772727272727124,
                "tempo": 120.0
            },
            {
                "start_time": 9.345454545454546,
                "end_time": 9.595454545454546,
                "pitch": 60,
                "velocity": 127,
                "duration": 0.25,
                "tempo": 120.0
            },
            {
                "start_time": 9.611363636363636,
                "end_time": 9.863636363636363,
                "pitch": 67,
                "velocity": 127,
                "duration": 0.252272727272727,
                "tempo": 120.0
            },
            {
                "start_time": 9.881818181818181,
                "end_time": 10.131818181818181,
                "pitch": 68,
                "velocity": 127,
                "duration": 0.25,
                "tempo": 120.0
            },
            {
                "start_time": 10.15,
                "end_time": 10.4,
                "pitch": 67,
                "velocity": 127,
                "duration": 0.25,
                "tempo": 120.0
            },
            {
                "start_time": 10.418181818181818,
                "end_time": 10.674999999999999,
                "pitch": 65,
                "velocity": 127,
                "duration": 0.25681818181818095,
                "tempo": 120.0
            },
            {
                "start_time": 10.69090909090909,
                "end_time": 10.943181818181818,
                "pitch": 63,
                "velocity": 127,
                "duration": 0.25227272727272876,
                "tempo": 120.0
            },
            {
                "start_time": 10.959090909090909,
                "end_time": 11.204545454545453,
                "pitch": 62,
                "velocity": 127,
                "duration": 0.24545454545454426,
                "tempo": 120.0
            },
            {
                "start_time": 11.220454545454546,
                "end_time": 11.604545454545454,
                "pitch": 67,
                "velocity": 127,
                "duration": 0.38409090909090793,
                "tempo": 120.0
            },
            {
                "start_time": 11.620454545454544,
                "end_time": 11.809090909090909,
                "pitch": 68,
                "velocity": 127,
                "duration": 0.18863636363636438,
                "tempo": 120.0
            },
            {
                "start_time": 11.825,
                "end_time": 12.013636363636364,
                "pitch": 65,
                "velocity": 127,
                "duration": 0.18863636363636438,
                "tempo": 120.0
            },
            {
                "start_time": 12.031818181818181,
                "end_time": 12.809090909090909,
                "pitch": 65,
                "velocity": 127,
                "duration": 0.7772727272727273,
                "tempo": 120.0
            },
            {
                "start_time": 25.668181818181818,
                "end_time": 25.854545454545452,
                "pitch": 75,
                "velocity": 127,
                "duration": 0.18636363636363384,
                "tempo": 120.0
            },
            {
                "start_time": 25.870454545454542,
                "end_time": 26.054545454545455,
                "pitch": 74,
                "velocity": 127,
                "duration": 0.1840909090909122,
                "tempo": 120.0
            },
            {
                "start_time": 26.07272727272727,
                "end_time": 26.254545454545454,
                "pitch": 72,
                "velocity": 127,
                "duration": 0.18181818181818343,
                "tempo": 120.0
            },
            {
                "start_time": 26.27272727272727,
                "end_time": 26.454545454545453,
                "pitch": 67,
                "velocity": 127,
                "duration": 0.18181818181818343,
                "tempo": 120.0
            },
            {
                "start_time": 26.472727272727273,
                "end_time": 26.854545454545452,
                "pitch": 67,
                "velocity": 127,
                "duration": 0.38181818181817917,
                "tempo": 120.0
            },
            {
                "start_time": 26.87272727272727,
                "end_time": 27.05909090909091,
                "pitch": 72,
                "velocity": 127,
                "duration": 0.1863636363636374,
                "tempo": 120.0
            },
            {
                "start_time": 27.077272727272724,
                "end_time": 27.26590909090909,
                "pitch": 75,
                "velocity": 127,
                "duration": 0.18863636363636616,
                "tempo": 120.0
            },
            {
                "start_time": 27.28181818181818,
                "end_time": 27.461363636363636,
                "pitch": 74,
                "velocity": 127,
                "duration": 0.17954545454545467,
                "tempo": 120.0
            },
            {
                "start_time": 27.479545454545452,
                "end_time": 27.659090909090907,
                "pitch": 72,
                "velocity": 127,
                "duration": 0.17954545454545467,
                "tempo": 120.0
            },
            {
                "start_time": 27.674999999999997,
                "end_time": 27.863636363636363,
                "pitch": 70,
                "velocity": 127,
                "duration": 0.18863636363636616,
                "tempo": 120.0
            },
            {
                "start_time": 27.879545454545454,
                "end_time": 28.068181818181817,
                "pitch": 67,
                "velocity": 127,
                "duration": 0.1886363636363626,
                "tempo": 120.0
            },
            {
                "start_time": 28.084090909090907,
                "end_time": 28.861363636363635,
                "pitch": 67,
                "velocity": 127,
                "duration": 0.7772727272727273,
                "tempo": 120.0
            },
            {
                "start_time": 28.877272727272725,
                "end_time": 29.061363636363634,
                "pitch": 75,
                "velocity": 127,
                "duration": 0.18409090909090864,
                "tempo": 120.0
            },
            {
                "start_time": 29.079545454545453,
                "end_time": 29.263636363636362,
                "pitch": 74,
                "velocity": 127,
                "duration": 0.18409090909090864,
                "tempo": 120.0
            },
            {
                "start_time": 29.279545454545453,
                "end_time": 29.46363636363636,
                "pitch": 72,
                "velocity": 127,
                "duration": 0.18409090909090864,
                "tempo": 120.0
            },
            {
                "start_time": 29.479545454545452,
                "end_time": 29.66363636363636,
                "pitch": 67,
                "velocity": 127,
                "duration": 0.18409090909090864,
                "tempo": 120.0
            },
            {
                "start_time": 29.679545454545455,
                "end_time": 30.065909090909088,
                "pitch": 67,
                "velocity": 127,
                "duration": 0.38636363636363313,
                "tempo": 120.0
            },
            {
                "start_time": 30.081818181818182,
                "end_time": 30.26590909090909,
                "pitch": 72,
                "velocity": 127,
                "duration": 0.18409090909090864,
                "tempo": 120.0
            },
            {
                "start_time": 30.28181818181818,
                "end_time": 30.46590909090909,
                "pitch": 75,
                "velocity": 127,
                "duration": 0.18409090909090864,
                "tempo": 120.0
            },
            {
                "start_time": 30.48181818181818,
                "end_time": 31.068181818181817,
                "pitch": 72,
                "velocity": 127,
                "duration": 0.586363636363636,
                "tempo": 120.0
            },
            {
                "start_time": 31.084090909090907,
                "end_time": 31.268181818181816,
                "pitch": 74,
                "velocity": 127,
                "duration": 0.18409090909090864,
                "tempo": 120.0
            },
            {
                "start_time": 31.286363636363635,
                "end_time": 32.070454545454545,
                "pitch": 74,
                "velocity": 127,
                "duration": 0.7840909090909101,
                "tempo": 120.0
            },
            {
                "start_time": 32.08863636363636,
                "end_time": 32.27045454545454,
                "pitch": 75,
                "velocity": 127,
                "duration": 0.18181818181817988,
                "tempo": 120.0
            },
            {
                "start_time": 32.288636363636364,
                "end_time": 32.470454545454544,
                "pitch": 74,
                "velocity": 127,
                "duration": 0.18181818181817988,
                "tempo": 120.0
            },
            {
                "start_time": 32.48863636363636,
                "end_time": 32.67045454545455,
                "pitch": 72,
                "velocity": 127,
                "duration": 0.18181818181818699,
                "tempo": 120.0
            },
            {
                "start_time": 32.68863636363636,
                "end_time": 32.87045454545454,
                "pitch": 67,
                "velocity": 127,
                "duration": 0.18181818181817988,
                "tempo": 120.0
            },
            {
                "start_time": 32.888636363636365,
                "end_time": 33.27045454545454,
                "pitch": 67,
                "velocity": 127,
                "duration": 0.3818181818181756,
                "tempo": 120.0
            },
            {
                "start_time": 33.288636363636364,
                "end_time": 33.47272727272727,
                "pitch": 72,
                "velocity": 127,
                "duration": 0.18409090909090509,
                "tempo": 120.0
            },
            {
                "start_time": 33.48863636363636,
                "end_time": 33.675,
                "pitch": 75,
                "velocity": 127,
                "duration": 0.1863636363636374,
                "tempo": 120.0
            },
            {
                "start_time": 33.69090909090909,
                "end_time": 33.875,
                "pitch": 74,
                "velocity": 127,
                "duration": 0.1840909090909122,
                "tempo": 120.0
            },
            {
                "start_time": 33.89090909090909,
                "end_time": 34.074999999999996,
                "pitch": 72,
                "velocity": 127,
                "duration": 0.18409090909090509,
                "tempo": 120.0
            },
            {
                "start_time": 34.090909090909086,
                "end_time": 34.275,
                "pitch": 70,
                "velocity": 127,
                "duration": 0.1840909090909122,
                "tempo": 120.0
            },
            {
                "start_time": 34.29090909090909,
                "end_time": 34.475,
                "pitch": 67,
                "velocity": 127,
                "duration": 0.1840909090909122,
                "tempo": 120.0
            },
            {
                "start_time": 34.49090909090909,
                "end_time": 35.275,
                "pitch": 67,
                "velocity": 127,
                "duration": 0.7840909090909065,
                "tempo": 120.0
            },
            {
                "start_time": 35.29090909090909,
                "end_time": 35.475,
                "pitch": 75,
                "velocity": 127,
                "duration": 0.1840909090909122,
                "tempo": 120.0
            },
            {
                "start_time": 35.49318181818182,
                "end_time": 35.67727272727272,
                "pitch": 74,
                "velocity": 127,
                "duration": 0.18409090909090509,
                "tempo": 120.0
            },
            {
                "start_time": 35.69318181818181,
                "end_time": 35.877272727272725,
                "pitch": 72,
                "velocity": 127,
                "duration": 0.1840909090909122,
                "tempo": 120.0
            },
            {
                "start_time": 35.893181818181816,
                "end_time": 36.07727272727273,
                "pitch": 67,
                "velocity": 127,
                "duration": 0.1840909090909122,
                "tempo": 120.0
            },
            {
                "start_time": 36.09318181818182,
                "end_time": 36.47727272727273,
                "pitch": 67,
                "velocity": 127,
                "duration": 0.38409090909090793,
                "tempo": 120.0
            },
            {
                "start_time": 36.49318181818182,
                "end_time": 36.67727272727272,
                "pitch": 72,
                "velocity": 127,
                "duration": 0.18409090909090509,
                "tempo": 120.0
            },
            {
                "start_time": 36.69318181818181,
                "end_time": 36.877272727272725,
                "pitch": 75,
                "velocity": 127,
                "duration": 0.1840909090909122,
                "tempo": 120.0
            },
            {
                "start_time": 36.893181818181816,
                "end_time": 38.47954545454545,
                "pitch": 79,
                "velocity": 127,
                "duration": 1.586363636363636,
                "tempo": 120.0
            },
            {
                "start_time": 38.49545454545454,
                "end_time": 38.64545454545454,
                "pitch": 67,
                "velocity": 127,
                "duration": 0.14999999999999858,
                "tempo": 120.0
            }
        ],
        "Trumpet": [
            {
                "start_time": 12.827272727272726,
                "end_time": 13.411363636363635,
                "pitch": 72,
                "velocity": 64,
                "duration": 0.584090909090909,
                "tempo": 120.0
            },
            {
                "start_time": 13.429545454545455,
                "end_time": 14.01590909090909,
                "pitch": 74,
                "velocity": 64,
                "duration": 0.586363636363636,
                "tempo": 120.0
            },
            {
                "start_time": 14.031818181818181,
                "end_time": 14.418181818181818,
                "pitch": 75,
                "velocity": 64,
                "duration": 0.3863636363636367,
                "tempo": 120.0
            },
            {
                "start_time": 14.434090909090909,
                "end_time": 15.020454545454545,
                "pitch": 77,
                "velocity": 64,
                "duration": 0.586363636363636,
                "tempo": 120.0
            },
            {
                "start_time": 15.038636363636362,
                "end_time": 15.622727272727271,
                "pitch": 75,
                "velocity": 64,
                "duration": 0.584090909090909,
                "tempo": 120.0
            },
            {
                "start_time": 15.638636363636364,
                "end_time": 16.025,
                "pitch": 74,
                "velocity": 64,
                "duration": 0.3863636363636349,
                "tempo": 120.0
            },
            {
                "start_time": 16.043181818181818,
                "end_time": 16.627272727272725,
                "pitch": 75,
                "velocity": 64,
                "duration": 0.5840909090909072,
                "tempo": 120.0
            },
            {
                "start_time": 16.645454545454545,
                "end_time": 17.23181818181818,
                "pitch": 74,
                "velocity": 64,
                "duration": 0.586363636363636,
                "tempo": 120.0
            },
            {
                "start_time": 17.24772727272727,
                "end_time": 17.631818181818183,
                "pitch": 72,
                "velocity": 64,
                "duration": 0.3840909090909115,
                "tempo": 120.0
            },
            {
                "start_time": 17.647727272727273,
                "end_time": 18.23409090909091,
                "pitch": 74,
                "velocity": 64,
                "duration": 0.586363636363636,
                "tempo": 120.0
            },
            {
                "start_time": 18.25,
                "end_time": 18.43409090909091,
                "pitch": 70,
                "velocity": 64,
                "duration": 0.18409090909090864,
                "tempo": 120.0
            },
            {
                "start_time": 18.45,
                "end_time": 19.236363636363635,
                "pitch": 70,
                "velocity": 64,
                "duration": 0.7863636363636353,
                "tempo": 120.0
            },
            {
                "start_time": 19.252272727272725,
                "end_time": 19.83863636363636,
                "pitch": 72,
                "velocity": 64,
                "duration": 0.586363636363636,
                "tempo": 120.0
            },
            {
                "start_time": 19.854545454545452,
                "end_time": 20.438636363636363,
                "pitch": 74,
                "velocity": 64,
                "duration": 0.5840909090909108,
                "tempo": 120.0
            },
            {
                "start_time": 20.456818181818182,
                "end_time": 20.83863636363636,
                "pitch": 75,
                "velocity": 64,
                "duration": 0.38181818181817917,
                "tempo": 120.0
            },
            {
                "start_time": 20.85681818181818,
                "end_time": 21.44090909090909,
                "pitch": 77,
                "velocity": 64,
                "duration": 0.5840909090909108,
                "tempo": 120.0
            },
            {
                "start_time": 21.459090909090907,
                "end_time": 22.043181818181818,
                "pitch": 75,
                "velocity": 64,
                "duration": 0.5840909090909108,
                "tempo": 120.0
            },
            {
                "start_time": 22.061363636363634,
                "end_time": 22.445454545454545,
                "pitch": 74,
                "velocity": 64,
                "duration": 0.3840909090909115,
                "tempo": 120.0
            },
            {
                "start_time": 22.461363636363636,
                "end_time": 23.045454545454543,
                "pitch": 75,
                "velocity": 64,
                "duration": 0.5840909090909072,
                "tempo": 120.0
            },
            {
                "start_time": 23.061363636363634,
                "end_time": 23.64772727272727,
                "pitch": 74,
                "velocity": 64,
                "duration": 0.586363636363636,
                "tempo": 120.0
            },
            {
                "start_time": 23.663636363636364,
                "end_time": 24.049999999999997,
                "pitch": 72,
                "velocity": 64,
                "duration": 0.38636363636363313,
                "tempo": 120.0
            },
            {
                "start_time": 24.06590909090909,
                "end_time": 25.652272727272727,
                "pitch": 67,
                "velocity": 64,
                "duration": 1.586363636363636,
                "tempo": 120.0
            }
        ],
        "Electric Guitar (clean)": [
            {
                "start_time": 0.015909090909090907,
                "end_time": 0.18409090909090908,
                "pitch": 36,
                "velocity": 51,
                "duration": 0.16818181818181818,
                "tempo": 120.0
            },
            {
                "start_time": 0.19999999999999998,
                "end_time": 0.3840909090909091,
                "pitch": 36,
                "velocity": 51,
                "duration": 0.1840909090909091,
                "tempo": 120.0
            },
            {
                "start_time": 0.39999999999999997,
                "end_time": 0.575,
                "pitch": 36,
                "velocity": 51,
                "duration": 0.175,
                "tempo": 120.0
            },
            {
                "start_time": 0.5909090909090908,
                "end_time": 0.7659090909090909,
                "pitch": 36,
                "velocity": 51,
                "duration": 0.17500000000000004,
                "tempo": 120.0
            },
            {
                "start_time": 0.7818181818181817,
                "end_time": 0.9659090909090908,
                "pitch": 36,
                "velocity": 51,
                "duration": 0.18409090909090908,
                "tempo": 120.0
            },
            {
                "start_time": 0.9818181818181818,
                "end_time": 1.1659090909090908,
                "pitch": 36,
                "velocity": 51,
                "duration": 0.18409090909090897,
                "tempo": 120.0
            },
            {
                "start_time": 1.1818181818181817,
                "end_time": 1.3659090909090907,
                "pitch": 36,
                "velocity": 51,
                "duration": 0.18409090909090908,
                "tempo": 120.0
            },
            {
                "start_time": 1.3818181818181818,
                "end_time": 1.565909090909091,
                "pitch": 36,
                "velocity": 51,
                "duration": 0.18409090909090908,
                "tempo": 120.0
            },
            {
                "start_time": 1.5818181818181818,
                "end_time": 1.7659090909090909,
                "pitch": 36,
                "velocity": 51,
                "duration": 0.18409090909090908,
                "tempo": 120.0
            },
            {
                "start_time": 1.784090909090909,
                "end_time": 1.968181818181818,
                "pitch": 36,
                "velocity": 51,
                "duration": 0.18409090909090908,
                "tempo": 120.0
            },
            {
                "start_time": 1.984090909090909,
                "end_time": 2.172727272727273,
                "pitch": 36,
                "velocity": 51,
                "duration": 0.18863636363636394,
                "tempo": 120.0
            },
            {
                "start_time": 2.190909090909091,
                "end_time": 2.3795454545454544,
                "pitch": 36,
                "velocity": 51,
                "duration": 0.1886363636363635,
                "tempo": 120.0
            },
            {
                "start_time": 2.3954545454545455,
                "end_time": 2.5749999999999997,
                "pitch": 36,
                "velocity": 51,
                "duration": 0.17954545454545423,
                "tempo": 120.0
            },
            {
                "start_time": 2.590909090909091,
                "end_time": 2.7704545454545455,
                "pitch": 43,
                "velocity": 51,
                "duration": 0.17954545454545467,
                "tempo": 120.0
            },
            {
                "start_time": 2.7886363636363636,
                "end_time": 2.9704545454545452,
                "pitch": 44,
                "velocity": 51,
                "duration": 0.18181818181818166,
                "tempo": 120.0
            },
            {
                "start_time": 2.9886363636363633,
                "end_time": 3.1704545454545454,
                "pitch": 39,
                "velocity": 51,
                "duration": 0.1818181818181821,
                "tempo": 120.0
            },
            {
                "start_time": 3.1886363636363635,
                "end_time": 3.3727272727272726,
                "pitch": 36,
                "velocity": 51,
                "duration": 0.18409090909090908,
                "tempo": 120.0
            },
            {
                "start_time": 3.3886363636363637,
                "end_time": 3.5727272727272728,
                "pitch": 36,
                "velocity": 51,
                "duration": 0.18409090909090908,
                "tempo": 120.0
            },
            {
                "start_time": 3.590909090909091,
                "end_time": 3.7795454545454543,
                "pitch": 36,
                "velocity": 51,
                "duration": 0.1886363636363635,
                "tempo": 120.0
            },
            {
                "start_time": 3.7954545454545454,
                "end_time": 3.984090909090909,
                "pitch": 36,
                "velocity": 51,
                "duration": 0.1886363636363635,
                "tempo": 120.0
            },
            {
                "start_time": 4.002272727272727,
                "end_time": 4.181818181818182,
                "pitch": 36,
                "velocity": 51,
                "duration": 0.17954545454545467,
                "tempo": 120.0
            },
            {
                "start_time": 4.197727272727272,
                "end_time": 4.377272727272727,
                "pitch": 36,
                "velocity": 51,
                "duration": 0.17954545454545467,
                "tempo": 120.0
            },
            {
                "start_time": 4.393181818181818,
                "end_time": 4.577272727272727,
                "pitch": 36,
                "velocity": 51,
                "duration": 0.18409090909090953,
                "tempo": 120.0
            },
            {
                "start_time": 4.595454545454545,
                "end_time": 4.779545454545454,
                "pitch": 39,
                "velocity": 51,
                "duration": 0.18409090909090953,
                "tempo": 120.0
            },
            {
                "start_time": 4.795454545454545,
                "end_time": 4.9795454545454545,
                "pitch": 39,
                "velocity": 51,
                "duration": 0.18409090909090953,
                "tempo": 120.0
            },
            {
                "start_time": 4.995454545454545,
                "end_time": 5.179545454545455,
                "pitch": 39,
                "velocity": 51,
                "duration": 0.18409090909090953,
                "tempo": 120.0
            },
            {
                "start_time": 5.195454545454545,
                "end_time": 5.379545454545454,
                "pitch": 39,
                "velocity": 51,
                "duration": 0.18409090909090864,
                "tempo": 120.0
            },
            {
                "start_time": 5.3977272727272725,
                "end_time": 5.581818181818181,
                "pitch": 46,
                "velocity": 51,
                "duration": 0.18409090909090864,
                "tempo": 120.0
            },
            {
                "start_time": 5.597727272727273,
                "end_time": 5.781818181818181,
                "pitch": 46,
                "velocity": 51,
                "duration": 0.18409090909090864,
                "tempo": 120.0
            },
            {
                "start_time": 5.797727272727273,
                "end_time": 5.9818181818181815,
                "pitch": 46,
                "velocity": 51,
                "duration": 0.18409090909090864,
                "tempo": 120.0
            },
            {
                "start_time": 5.997727272727272,
                "end_time": 6.184090909090909,
                "pitch": 46,
                "velocity": 51,
                "duration": 0.1863636363636365,
                "tempo": 120.0
            },
            {
                "start_time": 6.199999999999999,
                "end_time": 6.384090909090909,
                "pitch": 48,
                "velocity": 51,
                "duration": 0.18409090909090953,
                "tempo": 120.0
            },
            {
                "start_time": 6.402272727272727,
                "end_time": 6.586363636363636,
                "pitch": 36,
                "velocity": 51,
                "duration": 0.18409090909090864,
                "tempo": 120.0
            },
            {
                "start_time": 6.602272727272727,
                "end_time": 6.786363636363636,
                "pitch": 36,
                "velocity": 51,
                "duration": 0.18409090909090953,
                "tempo": 120.0
            },
            {
                "start_time": 6.804545454545454,
                "end_time": 6.986363636363636,
                "pitch": 36,
                "velocity": 51,
                "duration": 0.18181818181818254,
                "tempo": 120.0
            },
            {
                "start_time": 7.004545454545454,
                "end_time": 7.186363636363636,
                "pitch": 36,
                "velocity": 51,
                "duration": 0.18181818181818166,
                "tempo": 120.0
            },
            {
                "start_time": 7.204545454545454,
                "end_time": 7.388636363636364,
                "pitch": 36,
                "velocity": 51,
                "duration": 0.18409090909090953,
                "tempo": 120.0
            },
            {
                "start_time": 7.404545454545454,
                "end_time": 7.590909090909091,
                "pitch": 36,
                "velocity": 51,
                "duration": 0.1863636363636365,
                "tempo": 120.0
            },
            {
                "start_time": 7.6068181818181815,
                "end_time": 7.79090909090909,
                "pitch": 36,
                "velocity": 51,
                "duration": 0.18409090909090864,
                "tempo": 120.0
            },
            {
                "start_time": 7.806818181818182,
                "end_time": 7.99090909090909,
                "pitch": 36,
                "velocity": 51,
                "duration": 0.18409090909090864,
                "tempo": 120.0
            },
            {
                "start_time": 8.006818181818181,
                "end_time": 8.190909090909091,
                "pitch": 36,
                "velocity": 51,
                "duration": 0.18409090909091042,
                "tempo": 120.0
            },
            {
                "start_time": 8.209090909090909,
                "end_time": 8.393181818181818,
                "pitch": 36,
                "velocity": 51,
                "duration": 0.18409090909090864,
                "tempo": 120.0
            },
            {
                "start_time": 8.409090909090908,
                "end_time": 8.597727272727273,
                "pitch": 36,
                "velocity": 51,
                "duration": 0.18863636363636438,
                "tempo": 120.0
            },
            {
                "start_time": 8.613636363636363,
                "end_time": 8.802272727272728,
                "pitch": 36,
                "velocity": 51,
                "duration": 0.18863636363636438,
                "tempo": 120.0
            },
            {
                "start_time": 8.820454545454545,
                "end_time": 9.0,
                "pitch": 36,
                "velocity": 51,
                "duration": 0.17954545454545467,
                "tempo": 120.0
            },
            {
                "start_time": 9.01590909090909,
                "end_time": 9.195454545454545,
                "pitch": 43,
                "velocity": 51,
                "duration": 0.17954545454545467,
                "tempo": 120.0
            },
            {
                "start_time": 9.211363636363636,
                "end_time": 9.395454545454545,
                "pitch": 44,
                "velocity": 51,
                "duration": 0.18409090909090864,
                "tempo": 120.0
            },
            {
                "start_time": 9.411363636363635,
                "end_time": 9.595454545454546,
                "pitch": 39,
                "velocity": 51,
                "duration": 0.18409090909091042,
                "tempo": 120.0
            },
            {
                "start_time": 9.611363636363636,
                "end_time": 9.797727272727272,
                "pitch": 36,
                "velocity": 51,
                "duration": 0.18636363636363562,
                "tempo": 120.0
            },
            {
                "start_time": 9.813636363636363,
                "end_time": 9.997727272727273,
                "pitch": 36,
                "velocity": 51,
                "duration": 0.18409090909091042,
                "tempo": 120.0
            },
            {
                "start_time": 10.01590909090909,
                "end_time": 10.2,
                "pitch": 36,
                "velocity": 51,
                "duration": 0.18409090909090864,
                "tempo": 120.0
            },
            {
                "start_time": 10.21590909090909,
                "end_time": 10.4,
                "pitch": 36,
                "velocity": 51,
                "duration": 0.18409090909091042,
                "tempo": 120.0
            },
            {
                "start_time": 10.418181818181818,
                "end_time": 10.60681818181818,
                "pitch": 36,
                "velocity": 51,
                "duration": 0.1886363636363626,
                "tempo": 120.0
            },
            {
                "start_time": 10.622727272727273,
                "end_time": 10.811363636363636,
                "pitch": 36,
                "velocity": 51,
                "duration": 0.1886363636363626,
                "tempo": 120.0
            },
            {
                "start_time": 10.829545454545453,
                "end_time": 11.009090909090908,
                "pitch": 36,
                "velocity": 51,
                "duration": 0.17954545454545467,
                "tempo": 120.0
            },
            {
                "start_time": 11.024999999999999,
                "end_time": 11.204545454545453,
                "pitch": 39,
                "velocity": 51,
                "duration": 0.17954545454545467,
                "tempo": 120.0
            },
            {
                "start_time": 11.220454545454546,
                "end_time": 11.404545454545454,
                "pitch": 39,
                "velocity": 51,
                "duration": 0.18409090909090864,
                "tempo": 120.0
            },
            {
                "start_time": 11.420454545454545,
                "end_time": 11.604545454545454,
                "pitch": 39,
                "velocity": 51,
                "duration": 0.18409090909090864,
                "tempo": 120.0
            },
            {
                "start_time": 11.620454545454544,
                "end_time": 11.809090909090909,
                "pitch": 39,
                "velocity": 51,
                "duration": 0.18863636363636438,
                "tempo": 120.0
            },
            {
                "start_time": 11.825,
                "end_time": 12.013636363636364,
                "pitch": 46,
                "velocity": 51,
                "duration": 0.18863636363636438,
                "tempo": 120.0
            },
            {
                "start_time": 12.031818181818181,
                "end_time": 12.211363636363636,
                "pitch": 46,
                "velocity": 51,
                "duration": 0.17954545454545467,
                "tempo": 120.0
            },
            {
                "start_time": 12.227272727272727,
                "end_time": 12.406818181818181,
                "pitch": 46,
                "velocity": 51,
                "duration": 0.17954545454545467,
                "tempo": 120.0
            },
            {
                "start_time": 12.422727272727272,
                "end_time": 12.60909090909091,
                "pitch": 46,
                "velocity": 51,
                "duration": 0.1863636363636374,
                "tempo": 120.0
            },
            {
                "start_time": 12.625,
                "end_time": 12.809090909090909,
                "pitch": 44,
                "velocity": 51,
                "duration": 0.18409090909090864,
                "tempo": 120.0
            },
            {
                "start_time": 12.827272727272726,
                "end_time": 13.011363636363635,
                "pitch": 44,
                "velocity": 51,
                "duration": 0.18409090909090864,
                "tempo": 120.0
            },
            {
                "start_time": 13.027272727272727,
                "end_time": 13.211363636363636,
                "pitch": 44,
                "velocity": 51,
                "duration": 0.18409090909090864,
                "tempo": 120.0
            },
            {
                "start_time": 13.229545454545454,
                "end_time": 13.411363636363635,
                "pitch": 44,
                "velocity": 51,
                "duration": 0.18181818181818166,
                "tempo": 120.0
            },
            {
                "start_time": 13.429545454545455,
                "end_time": 13.611363636363636,
                "pitch": 44,
                "velocity": 51,
                "duration": 0.18181818181818166,
                "tempo": 120.0
            },
            {
                "start_time": 13.629545454545454,
                "end_time": 13.813636363636363,
                "pitch": 44,
                "velocity": 51,
                "duration": 0.18409090909090864,
                "tempo": 120.0
            },
            {
                "start_time": 13.829545454545453,
                "end_time": 14.01590909090909,
                "pitch": 44,
                "velocity": 51,
                "duration": 0.1863636363636374,
                "tempo": 120.0
            },
            {
                "start_time": 14.031818181818181,
                "end_time": 14.21590909090909,
                "pitch": 44,
                "velocity": 51,
                "duration": 0.18409090909090864,
                "tempo": 120.0
            },
            {
                "start_time": 14.23181818181818,
                "end_time": 14.418181818181818,
                "pitch": 44,
                "velocity": 51,
                "duration": 0.1863636363636374,
                "tempo": 120.0
            },
            {
                "start_time": 14.434090909090909,
                "end_time": 14.618181818181817,
                "pitch": 44,
                "velocity": 51,
                "duration": 0.18409090909090864,
                "tempo": 120.0
            },
            {
                "start_time": 14.636363636363635,
                "end_time": 14.820454545454545,
                "pitch": 44,
                "velocity": 51,
                "duration": 0.18409090909091042,
                "tempo": 120.0
            },
            {
                "start_time": 14.836363636363636,
                "end_time": 15.020454545454545,
                "pitch": 44,
                "velocity": 51,
                "duration": 0.18409090909090864,
                "tempo": 120.0
            },
            {
                "start_time": 15.038636363636362,
                "end_time": 15.222727272727273,
                "pitch": 44,
                "velocity": 51,
                "duration": 0.18409090909091042,
                "tempo": 120.0
            },
            {
                "start_time": 15.238636363636363,
                "end_time": 15.422727272727272,
                "pitch": 46,
                "velocity": 51,
                "duration": 0.18409090909090864,
                "tempo": 120.0
            },
            {
                "start_time": 15.438636363636363,
                "end_time": 15.622727272727271,
                "pitch": 44,
                "velocity": 51,
                "duration": 0.18409090909090864,
                "tempo": 120.0
            },
            {
                "start_time": 15.638636363636364,
                "end_time": 15.825,
                "pitch": 43,
                "velocity": 51,
                "duration": 0.18636363636363562,
                "tempo": 120.0
            },
            {
                "start_time": 15.84090909090909,
                "end_time": 16.025,
                "pitch": 44,
                "velocity": 51,
                "duration": 0.18409090909090864,
                "tempo": 120.0
            },
            {
                "start_time": 16.043181818181818,
                "end_time": 16.227272727272727,
                "pitch": 44,
                "velocity": 51,
                "duration": 0.18409090909090864,
                "tempo": 120.0
            },
            {
                "start_time": 16.243181818181817,
                "end_time": 16.427272727272726,
                "pitch": 44,
                "velocity": 51,
                "duration": 0.18409090909090864,
                "tempo": 120.0
            },
            {
                "start_time": 16.445454545454545,
                "end_time": 16.627272727272725,
                "pitch": 44,
                "velocity": 51,
                "duration": 0.18181818181817988,
                "tempo": 120.0
            },
            {
                "start_time": 16.645454545454545,
                "end_time": 16.827272727272728,
                "pitch": 44,
                "velocity": 51,
                "duration": 0.18181818181818343,
                "tempo": 120.0
            },
            {
                "start_time": 16.845454545454544,
                "end_time": 17.029545454545453,
                "pitch": 44,
                "velocity": 51,
                "duration": 0.18409090909090864,
                "tempo": 120.0
            },
            {
                "start_time": 17.045454545454543,
                "end_time": 17.23181818181818,
                "pitch": 44,
                "velocity": 51,
                "duration": 0.1863636363636374,
                "tempo": 120.0
            },
            {
                "start_time": 17.24772727272727,
                "end_time": 17.43181818181818,
                "pitch": 44,
                "velocity": 51,
                "duration": 0.18409090909090864,
                "tempo": 120.0
            },
            {
                "start_time": 17.44772727272727,
                "end_time": 17.631818181818183,
                "pitch": 44,
                "velocity": 51,
                "duration": 0.1840909090909122,
                "tempo": 120.0
            },
            {
                "start_time": 17.647727272727273,
                "end_time": 17.831818181818182,
                "pitch": 44,
                "velocity": 51,
                "duration": 0.18409090909090864,
                "tempo": 120.0
            },
            {
                "start_time": 17.849999999999998,
                "end_time": 18.034090909090907,
                "pitch": 44,
                "velocity": 51,
                "duration": 0.18409090909090864,
                "tempo": 120.0
            },
            {
                "start_time": 18.05,
                "end_time": 18.23409090909091,
                "pitch": 44,
                "velocity": 51,
                "duration": 0.18409090909090864,
                "tempo": 120.0
            },
            {
                "start_time": 18.25,
                "end_time": 18.43409090909091,
                "pitch": 44,
                "velocity": 51,
                "duration": 0.18409090909090864,
                "tempo": 120.0
            },
            {
                "start_time": 18.45,
                "end_time": 18.634090909090908,
                "pitch": 46,
                "velocity": 51,
                "duration": 0.18409090909090864,
                "tempo": 120.0
            },
            {
                "start_time": 18.65,
                "end_time": 18.834090909090907,
                "pitch": 44,
                "velocity": 51,
                "duration": 0.18409090909090864,
                "tempo": 120.0
            },
            {
                "start_time": 18.849999999999998,
                "end_time": 19.034090909090907,
                "pitch": 43,
                "velocity": 51,
                "duration": 0.18409090909090864,
                "tempo": 120.0
            },
            {
                "start_time": 19.052272727272726,
                "end_time": 19.236363636363635,
                "pitch": 46,
                "velocity": 51,
                "duration": 0.18409090909090864,
                "tempo": 120.0
            },
            {
                "start_time": 19.252272727272725,
                "end_time": 19.436363636363634,
                "pitch": 46,
                "velocity": 51,
                "duration": 0.18409090909090864,
                "tempo": 120.0
            },
            {
                "start_time": 19.452272727272728,
                "end_time": 19.636363636363637,
                "pitch": 46,
                "velocity": 51,
                "duration": 0.18409090909090864,
                "tempo": 120.0
            },
            {
                "start_time": 19.652272727272727,
                "end_time": 19.83863636363636,
                "pitch": 46,
                "velocity": 51,
                "duration": 0.18636363636363384,
                "tempo": 120.0
            },
            {
                "start_time": 19.854545454545452,
                "end_time": 20.038636363636364,
                "pitch": 46,
                "velocity": 51,
                "duration": 0.1840909090909122,
                "tempo": 120.0
            },
            {
                "start_time": 20.05681818181818,
                "end_time": 20.238636363636363,
                "pitch": 46,
                "velocity": 51,
                "duration": 0.18181818181818343,
                "tempo": 120.0
            },
            {
                "start_time": 20.25681818181818,
                "end_time": 20.438636363636363,
                "pitch": 46,
                "velocity": 51,
                "duration": 0.18181818181818343,
                "tempo": 120.0
            },
            {
                "start_time": 20.456818181818182,
                "end_time": 20.638636363636362,
                "pitch": 46,
                "velocity": 51,
                "duration": 0.18181818181817988,
                "tempo": 120.0
            },
            {
                "start_time": 20.65681818181818,
                "end_time": 20.83863636363636,
                "pitch": 46,
                "velocity": 51,
                "duration": 0.18181818181817988,
                "tempo": 120.0
            },
            {
                "start_time": 20.85681818181818,
                "end_time": 21.04090909090909,
                "pitch": 46,
                "velocity": 51,
                "duration": 0.18409090909090864,
                "tempo": 120.0
            },
            {
                "start_time": 21.05681818181818,
                "end_time": 21.24090909090909,
                "pitch": 46,
                "velocity": 51,
                "duration": 0.18409090909090864,
                "tempo": 120.0
            },
            {
                "start_time": 21.259090909090908,
                "end_time": 21.44090909090909,
                "pitch": 46,
                "velocity": 51,
                "duration": 0.18181818181818343,
                "tempo": 120.0
            },
            {
                "start_time": 21.459090909090907,
                "end_time": 21.64090909090909,
                "pitch": 46,
                "velocity": 51,
                "duration": 0.18181818181818343,
                "tempo": 120.0
            },
            {
                "start_time": 21.659090909090907,
                "end_time": 21.84318181818182,
                "pitch": 46,
                "velocity": 51,
                "duration": 0.1840909090909122,
                "tempo": 120.0
            },
            {
                "start_time": 21.85909090909091,
                "end_time": 22.043181818181818,
                "pitch": 46,
                "velocity": 51,
                "duration": 0.18409090909090864,
                "tempo": 120.0
            },
            {
                "start_time": 22.061363636363634,
                "end_time": 22.245454545454546,
                "pitch": 44,
                "velocity": 51,
                "duration": 0.1840909090909122,
                "tempo": 120.0
            },
            {
                "start_time": 22.261363636363637,
                "end_time": 22.445454545454545,
                "pitch": 46,
                "velocity": 51,
                "duration": 0.18409090909090864,
                "tempo": 120.0
            },
            {
                "start_time": 22.461363636363636,
                "end_time": 22.645454545454545,
                "pitch": 46,
                "velocity": 51,
                "duration": 0.18409090909090864,
                "tempo": 120.0
            },
            {
                "start_time": 22.661363636363635,
                "end_time": 22.845454545454544,
                "pitch": 46,
                "velocity": 51,
                "duration": 0.18409090909090864,
                "tempo": 120.0
            },
            {
                "start_time": 22.861363636363635,
                "end_time": 23.045454545454543,
                "pitch": 46,
                "velocity": 51,
                "duration": 0.18409090909090864,
                "tempo": 120.0
            },
            {
                "start_time": 23.061363636363634,
                "end_time": 23.24772727272727,
                "pitch": 46,
                "velocity": 51,
                "duration": 0.1863636363636374,
                "tempo": 120.0
            },
            {
                "start_time": 23.263636363636362,
                "end_time": 23.44772727272727,
                "pitch": 46,
                "velocity": 51,
                "duration": 0.18409090909090864,
                "tempo": 120.0
            },
            {
                "start_time": 23.46363636363636,
                "end_time": 23.64772727272727,
                "pitch": 46,
                "velocity": 51,
                "duration": 0.18409090909090864,
                "tempo": 120.0
            },
            {
                "start_time": 23.663636363636364,
                "end_time": 23.847727272727273,
                "pitch": 46,
                "velocity": 51,
                "duration": 0.18409090909090864,
                "tempo": 120.0
            },
            {
                "start_time": 23.86590909090909,
                "end_time": 24.049999999999997,
                "pitch": 46,
                "velocity": 51,
                "duration": 0.18409090909090864,
                "tempo": 120.0
            },
            {
                "start_time": 24.06590909090909,
                "end_time": 24.25,
                "pitch": 43,
                "velocity": 51,
                "duration": 0.18409090909090864,
                "tempo": 120.0
            },
            {
                "start_time": 24.26590909090909,
                "end_time": 24.45,
                "pitch": 43,
                "velocity": 51,
                "duration": 0.18409090909090864,
                "tempo": 120.0
            },
            {
                "start_time": 24.46590909090909,
                "end_time": 24.65,
                "pitch": 43,
                "velocity": 51,
                "duration": 0.18409090909090864,
                "tempo": 120.0
            },
            {
                "start_time": 24.66590909090909,
                "end_time": 24.849999999999998,
                "pitch": 43,
                "velocity": 51,
                "duration": 0.18409090909090864,
                "tempo": 120.0
            },
            {
                "start_time": 24.86590909090909,
                "end_time": 25.049999999999997,
                "pitch": 43,
                "velocity": 51,
                "duration": 0.18409090909090864,
                "tempo": 120.0
            },
            {
                "start_time": 25.068181818181817,
                "end_time": 25.252272727272725,
                "pitch": 43,
                "velocity": 51,
                "duration": 0.18409090909090864,
                "tempo": 120.0
            },
            {
                "start_time": 25.268181818181816,
                "end_time": 25.452272727272724,
                "pitch": 43,
                "velocity": 51,
                "duration": 0.18409090909090864,
                "tempo": 120.0
            },
            {
                "start_time": 25.46818181818182,
                "end_time": 25.652272727272727,
                "pitch": 43,
                "velocity": 51,
                "duration": 0.18409090909090864,
                "tempo": 120.0
            },
            {
                "start_time": 25.668181818181818,
                "end_time": 25.854545454545452,
                "pitch": 36,
                "velocity": 51,
                "duration": 0.18636363636363384,
                "tempo": 120.0
            },
            {
                "start_time": 25.870454545454542,
                "end_time": 26.054545454545455,
                "pitch": 36,
                "velocity": 51,
                "duration": 0.1840909090909122,
                "tempo": 120.0
            },
            {
                "start_time": 26.07272727272727,
                "end_time": 26.254545454545454,
                "pitch": 36,
                "velocity": 51,
                "duration": 0.18181818181818343,
                "tempo": 120.0
            },
            {
                "start_time": 26.27272727272727,
                "end_time": 26.454545454545453,
                "pitch": 36,
                "velocity": 51,
                "duration": 0.18181818181818343,
                "tempo": 120.0
            },
            {
                "start_time": 26.472727272727273,
                "end_time": 26.654545454545453,
                "pitch": 36,
                "velocity": 51,
                "duration": 0.18181818181817988,
                "tempo": 120.0
            },
            {
                "start_time": 26.672727272727272,
                "end_time": 26.854545454545452,
                "pitch": 36,
                "velocity": 51,
                "duration": 0.18181818181817988,
                "tempo": 120.0
            },
            {
                "start_time": 26.87272727272727,
                "end_time": 27.05909090909091,
                "pitch": 36,
                "velocity": 51,
                "duration": 0.1863636363636374,
                "tempo": 120.0
            },
            {
                "start_time": 27.077272727272724,
                "end_time": 27.26590909090909,
                "pitch": 36,
                "velocity": 51,
                "duration": 0.18863636363636616,
                "tempo": 120.0
            },
            {
                "start_time": 27.28181818181818,
                "end_time": 27.461363636363636,
                "pitch": 39,
                "velocity": 51,
                "duration": 0.17954545454545467,
                "tempo": 120.0
            },
            {
                "start_time": 27.479545454545452,
                "end_time": 27.659090909090907,
                "pitch": 39,
                "velocity": 51,
                "duration": 0.17954545454545467,
                "tempo": 120.0
            },
            {
                "start_time": 27.674999999999997,
                "end_time": 27.863636363636363,
                "pitch": 39,
                "velocity": 51,
                "duration": 0.18863636363636616,
                "tempo": 120.0
            },
            {
                "start_time": 27.879545454545454,
                "end_time": 28.068181818181817,
                "pitch": 39,
                "velocity": 51,
                "duration": 0.1886363636363626,
                "tempo": 120.0
            },
            {
                "start_time": 28.084090909090907,
                "end_time": 28.26590909090909,
                "pitch": 39,
                "velocity": 51,
                "duration": 0.18181818181818343,
                "tempo": 120.0
            },
            {
                "start_time": 28.28181818181818,
                "end_time": 28.461363636363636,
                "pitch": 39,
                "velocity": 51,
                "duration": 0.17954545454545467,
                "tempo": 120.0
            },
            {
                "start_time": 28.477272727272727,
                "end_time": 28.661363636363635,
                "pitch": 39,
                "velocity": 51,
                "duration": 0.18409090909090864,
                "tempo": 120.0
            },
            {
                "start_time": 28.677272727272726,
                "end_time": 28.861363636363635,
                "pitch": 39,
                "velocity": 51,
                "duration": 0.18409090909090864,
                "tempo": 120.0
            },
            {
                "start_time": 28.877272727272725,
                "end_time": 29.061363636363634,
                "pitch": 44,
                "velocity": 51,
                "duration": 0.18409090909090864,
                "tempo": 120.0
            },
            {
                "start_time": 29.079545454545453,
                "end_time": 29.263636363636362,
                "pitch": 44,
                "velocity": 51,
                "duration": 0.18409090909090864,
                "tempo": 120.0
            },
            {
                "start_time": 29.279545454545453,
                "end_time": 29.46363636363636,
                "pitch": 44,
                "velocity": 51,
                "duration": 0.18409090909090864,
                "tempo": 120.0
            },
            {
                "start_time": 29.479545454545452,
                "end_time": 29.66363636363636,
                "pitch": 44,
                "velocity": 51,
                "duration": 0.18409090909090864,
                "tempo": 120.0
            },
            {
                "start_time": 29.679545454545455,
                "end_time": 29.863636363636363,
                "pitch": 44,
                "velocity": 51,
                "duration": 0.18409090909090864,
                "tempo": 120.0
            },
            {
                "start_time": 29.88181818181818,
                "end_time": 30.065909090909088,
                "pitch": 44,
                "velocity": 51,
                "duration": 0.18409090909090864,
                "tempo": 120.0
            },
            {
                "start_time": 30.081818181818182,
                "end_time": 30.26590909090909,
                "pitch": 44,
                "velocity": 51,
                "duration": 0.18409090909090864,
                "tempo": 120.0
            },
            {
                "start_time": 30.28181818181818,
                "end_time": 30.46590909090909,
                "pitch": 44,
                "velocity": 51,
                "duration": 0.18409090909090864,
                "tempo": 120.0
            },
            {
                "start_time": 30.48181818181818,
                "end_time": 30.66590909090909,
                "pitch": 41,
                "velocity": 51,
                "duration": 0.18409090909090864,
                "tempo": 120.0
            },
            {
                "start_time": 30.68181818181818,
                "end_time": 30.86590909090909,
                "pitch": 41,
                "velocity": 51,
                "duration": 0.18409090909090864,
                "tempo": 120.0
            },
            {
                "start_time": 30.88181818181818,
                "end_time": 31.068181818181817,
                "pitch": 41,
                "velocity": 51,
                "duration": 0.1863636363636374,
                "tempo": 120.0
            },
            {
                "start_time": 31.084090909090907,
                "end_time": 31.268181818181816,
                "pitch": 41,
                "velocity": 51,
                "duration": 0.18409090909090864,
                "tempo": 120.0
            },
            {
                "start_time": 31.286363636363635,
                "end_time": 31.468181818181815,
                "pitch": 41,
                "velocity": 51,
                "duration": 0.18181818181817988,
                "tempo": 120.0
            },
            {
                "start_time": 31.486363636363635,
                "end_time": 31.668181818181818,
                "pitch": 41,
                "velocity": 51,
                "duration": 0.18181818181818343,
                "tempo": 120.0
            },
            {
                "start_time": 31.686363636363634,
                "end_time": 31.870454545454542,
                "pitch": 41,
                "velocity": 51,
                "duration": 0.18409090909090864,
                "tempo": 120.0
            },
            {
                "start_time": 31.886363636363633,
                "end_time": 32.070454545454545,
                "pitch": 41,
                "velocity": 51,
                "duration": 0.1840909090909122,
                "tempo": 120.0
            },
            {
                "start_time": 32.08863636363636,
                "end_time": 32.27045454545454,
                "pitch": 43,
                "velocity": 51,
                "duration": 0.18181818181817988,
                "tempo": 120.0
            },
            {
                "start_time": 32.288636363636364,
                "end_time": 32.470454545454544,
                "pitch": 43,
                "velocity": 51,
                "duration": 0.18181818181817988,
                "tempo": 120.0
            },
            {
                "start_time": 32.48863636363636,
                "end_time": 32.67045454545455,
                "pitch": 43,
                "velocity": 51,
                "duration": 0.18181818181818699,
                "tempo": 120.0
            },
            {
                "start_time": 32.68863636363636,
                "end_time": 32.87045454545454,
                "pitch": 43,
                "velocity": 51,
                "duration": 0.18181818181817988,
                "tempo": 120.0
            },
            {
                "start_time": 32.888636363636365,
                "end_time": 33.070454545454545,
                "pitch": 43,
                "velocity": 51,
                "duration": 0.18181818181817988,
                "tempo": 120.0
            },
            {
                "start_time": 33.08863636363636,
                "end_time": 33.27045454545454,
                "pitch": 43,
                "velocity": 51,
                "duration": 0.18181818181817988,
                "tempo": 120.0
            },
            {
                "start_time": 33.288636363636364,
                "end_time": 33.47272727272727,
                "pitch": 43,
                "velocity": 51,
                "duration": 0.18409090909090509,
                "tempo": 120.0
            },
            {
                "start_time": 33.48863636363636,
                "end_time": 33.675,
                "pitch": 43,
                "velocity": 51,
                "duration": 0.1863636363636374,
                "tempo": 120.0
            },
            {
                "start_time": 33.69090909090909,
                "end_time": 33.875,
                "pitch": 44,
                "velocity": 51,
                "duration": 0.1840909090909122,
                "tempo": 120.0
            },
            {
                "start_time": 33.89090909090909,
                "end_time": 34.074999999999996,
                "pitch": 44,
                "velocity": 51,
                "duration": 0.18409090909090509,
                "tempo": 120.0
            },
            {
                "start_time": 34.090909090909086,
                "end_time": 34.275,
                "pitch": 44,
                "velocity": 51,
                "duration": 0.1840909090909122,
                "tempo": 120.0
            },
            {
                "start_time": 34.29090909090909,
                "end_time": 34.475,
                "pitch": 44,
                "velocity": 51,
                "duration": 0.1840909090909122,
                "tempo": 120.0
            },
            {
                "start_time": 34.49090909090909,
                "end_time": 34.675,
                "pitch": 44,
                "velocity": 51,
                "duration": 0.18409090909090509,
                "tempo": 120.0
            },
            {
                "start_time": 34.69090909090909,
                "end_time": 34.875,
                "pitch": 43,
                "velocity": 51,
                "duration": 0.1840909090909122,
                "tempo": 120.0
            },
            {
                "start_time": 34.89090909090909,
                "end_time": 35.074999999999996,
                "pitch": 44,
                "velocity": 51,
                "duration": 0.18409090909090509,
                "tempo": 120.0
            },
            {
                "start_time": 35.090909090909086,
                "end_time": 35.275,
                "pitch": 46,
                "velocity": 51,
                "duration": 0.1840909090909122,
                "tempo": 120.0
            },
            {
                "start_time": 35.29090909090909,
                "end_time": 35.475,
                "pitch": 46,
                "velocity": 51,
                "duration": 0.1840909090909122,
                "tempo": 120.0
            },
            {
                "start_time": 35.49318181818182,
                "end_time": 35.67727272727272,
                "pitch": 46,
                "velocity": 51,
                "duration": 0.18409090909090509,
                "tempo": 120.0
            },
            {
                "start_time": 35.69318181818181,
                "end_time": 35.877272727272725,
                "pitch": 46,
                "velocity": 51,
                "duration": 0.1840909090909122,
                "tempo": 120.0
            },
            {
                "start_time": 35.893181818181816,
                "end_time": 36.07727272727273,
                "pitch": 46,
                "velocity": 51,
                "duration": 0.1840909090909122,
                "tempo": 120.0
            },
            {
                "start_time": 36.09318181818182,
                "end_time": 36.277272727272724,
                "pitch": 46,
                "velocity": 51,
                "duration": 0.18409090909090509,
                "tempo": 120.0
            },
            {
                "start_time": 36.293181818181814,
                "end_time": 36.47727272727273,
                "pitch": 46,
                "velocity": 51,
                "duration": 0.1840909090909122,
                "tempo": 120.0
            },
            {
                "start_time": 36.49318181818182,
                "end_time": 36.67727272727272,
                "pitch": 46,
                "velocity": 51,
                "duration": 0.18409090909090509,
                "tempo": 120.0
            },
            {
                "start_time": 36.69318181818181,
                "end_time": 36.877272727272725,
                "pitch": 46,
                "velocity": 51,
                "duration": 0.1840909090909122,
                "tempo": 120.0
            },
            {
                "start_time": 36.893181818181816,
                "end_time": 37.07727272727273,
                "pitch": 46,
                "velocity": 51,
                "duration": 0.1840909090909122,
                "tempo": 120.0
            },
            {
                "start_time": 37.09318181818182,
                "end_time": 37.277272727272724,
                "pitch": 46,
                "velocity": 51,
                "duration": 0.18409090909090509,
                "tempo": 120.0
            },
            {
                "start_time": 37.293181818181814,
                "end_time": 37.47727272727273,
                "pitch": 46,
                "velocity": 51,
                "duration": 0.1840909090909122,
                "tempo": 120.0
            },
            {
                "start_time": 37.49545454545454,
                "end_time": 37.679545454545455,
                "pitch": 46,
                "velocity": 51,
                "duration": 0.1840909090909122,
                "tempo": 120.0
            },
            {
                "start_time": 37.695454545454545,
                "end_time": 37.87954545454545,
                "pitch": 46,
                "velocity": 51,
                "duration": 0.18409090909090509,
                "tempo": 120.0
            },
            {
                "start_time": 37.89545454545454,
                "end_time": 38.07954545454545,
                "pitch": 46,
                "velocity": 51,
                "duration": 0.1840909090909122,
                "tempo": 120.0
            },
            {
                "start_time": 38.095454545454544,
                "end_time": 38.279545454545456,
                "pitch": 46,
                "velocity": 51,
                "duration": 0.1840909090909122,
                "tempo": 120.0
            },
            {
                "start_time": 38.29545454545455,
                "end_time": 38.47954545454545,
                "pitch": 46,
                "velocity": 51,
                "duration": 0.18409090909090509,
                "tempo": 120.0
            },
            {
                "start_time": 38.49545454545454,
                "end_time": 38.64545454545454,
                "pitch": 36,
                "velocity": 51,
                "duration": 0.14999999999999858,
                "tempo": 120.0
            }
        ],
        "Flute": [
            {
                "start_time": 0.015909090909090907,
                "end_time": 0.18409090909090908,
                "pitch": 48,
                "velocity": 40,
                "duration": 0.16818181818181818,
                "tempo": 120.0
            },
            {
                "start_time": 0.19999999999999998,
                "end_time": 0.3840909090909091,
                "pitch": 48,
                "velocity": 40,
                "duration": 0.1840909090909091,
                "tempo": 120.0
            },
            {
                "start_time": 0.39999999999999997,
                "end_time": 0.575,
                "pitch": 67,
                "velocity": 40,
                "duration": 0.175,
                "tempo": 120.0
            },
            {
                "start_time": 0.5909090909090908,
                "end_time": 0.7659090909090909,
                "pitch": 48,
                "velocity": 40,
                "duration": 0.17500000000000004,
                "tempo": 120.0
            },
            {
                "start_time": 0.7818181818181817,
                "end_time": 0.9659090909090908,
                "pitch": 48,
                "velocity": 40,
                "duration": 0.18409090909090908,
                "tempo": 120.0
            },
            {
                "start_time": 0.9818181818181818,
                "end_time": 1.1659090909090908,
                "pitch": 67,
                "velocity": 40,
                "duration": 0.18409090909090897,
                "tempo": 120.0
            },
            {
                "start_time": 1.1818181818181817,
                "end_time": 1.3659090909090907,
                "pitch": 48,
                "velocity": 40,
                "duration": 0.18409090909090908,
                "tempo": 120.0
            },
            {
                "start_time": 1.3818181818181818,
                "end_time": 1.565909090909091,
                "pitch": 48,
                "velocity": 40,
                "duration": 0.18409090909090908,
                "tempo": 120.0
            },
            {
                "start_time": 1.5818181818181818,
                "end_time": 1.7659090909090909,
                "pitch": 67,
                "velocity": 40,
                "duration": 0.18409090909090908,
                "tempo": 120.0
            },
            {
                "start_time": 1.784090909090909,
                "end_time": 1.968181818181818,
                "pitch": 48,
                "velocity": 40,
                "duration": 0.18409090909090908,
                "tempo": 120.0
            },
            {
                "start_time": 1.984090909090909,
                "end_time": 2.172727272727273,
                "pitch": 48,
                "velocity": 40,
                "duration": 0.18863636363636394,
                "tempo": 120.0
            },
            {
                "start_time": 2.190909090909091,
                "end_time": 2.3795454545454544,
                "pitch": 67,
                "velocity": 40,
                "duration": 0.1886363636363635,
                "tempo": 120.0
            },
            {
                "start_time": 2.3954545454545455,
                "end_time": 2.5749999999999997,
                "pitch": 48,
                "velocity": 40,
                "duration": 0.17954545454545423,
                "tempo": 120.0
            },
            {
                "start_time": 2.590909090909091,
                "end_time": 2.7704545454545455,
                "pitch": 55,
                "velocity": 40,
                "duration": 0.17954545454545467,
                "tempo": 120.0
            },
            {
                "start_time": 2.7886363636363636,
                "end_time": 2.9704545454545452,
                "pitch": 56,
                "velocity": 40,
                "duration": 0.18181818181818166,
                "tempo": 120.0
            },
            {
                "start_time": 2.9886363636363633,
                "end_time": 3.1704545454545454,
                "pitch": 51,
                "velocity": 40,
                "duration": 0.1818181818181821,
                "tempo": 120.0
            },
            {
                "start_time": 3.1886363636363635,
                "end_time": 3.3727272727272726,
                "pitch": 48,
                "velocity": 40,
                "duration": 0.18409090909090908,
                "tempo": 120.0
            },
            {
                "start_time": 3.3886363636363637,
                "end_time": 3.5727272727272728,
                "pitch": 48,
                "velocity": 40,
                "duration": 0.18409090909090908,
                "tempo": 120.0
            },
            {
                "start_time": 3.590909090909091,
                "end_time": 3.7795454545454543,
                "pitch": 67,
                "velocity": 40,
                "duration": 0.1886363636363635,
                "tempo": 120.0
            },
            {
                "start_time": 3.7954545454545454,
                "end_time": 3.984090909090909,
                "pitch": 48,
                "velocity": 40,
                "duration": 0.1886363636363635,
                "tempo": 120.0
            },
            {
                "start_time": 4.002272727272727,
                "end_time": 4.181818181818182,
                "pitch": 48,
                "velocity": 40,
                "duration": 0.17954545454545467,
                "tempo": 120.0
            },
            {
                "start_time": 4.197727272727272,
                "end_time": 4.377272727272727,
                "pitch": 67,
                "velocity": 40,
                "duration": 0.17954545454545467,
                "tempo": 120.0
            },
            {
                "start_time": 4.393181818181818,
                "end_time": 4.577272727272727,
                "pitch": 48,
                "velocity": 40,
                "duration": 0.18409090909090953,
                "tempo": 120.0
            },
            {
                "start_time": 4.595454545454545,
                "end_time": 4.779545454545454,
                "pitch": 58,
                "velocity": 40,
                "duration": 0.18409090909090953,
                "tempo": 120.0
            },
            {
                "start_time": 4.795454545454545,
                "end_time": 5.379545454545454,
                "pitch": 58,
                "velocity": 40,
                "duration": 0.584090909090909,
                "tempo": 120.0
            },
            {
                "start_time": 5.3977272727272725,
                "end_time": 6.184090909090909,
                "pitch": 65,
                "velocity": 40,
                "duration": 0.7863636363636362,
                "tempo": 120.0
            },
            {
                "start_time": 6.199999999999999,
                "end_time": 6.384090909090909,
                "pitch": 67,
                "velocity": 40,
                "duration": 0.18409090909090953,
                "tempo": 120.0
            },
            {
                "start_time": 6.402272727272727,
                "end_time": 6.586363636363636,
                "pitch": 48,
                "velocity": 40,
                "duration": 0.18409090909090864,
                "tempo": 120.0
            },
            {
                "start_time": 6.602272727272727,
                "end_time": 6.786363636363636,
                "pitch": 48,
                "velocity": 40,
                "duration": 0.18409090909090953,
                "tempo": 120.0
            },
            {
                "start_time": 6.804545454545454,
                "end_time": 6.986363636363636,
                "pitch": 67,
                "velocity": 40,
                "duration": 0.18181818181818254,
                "tempo": 120.0
            },
            {
                "start_time": 7.004545454545454,
                "end_time": 7.186363636363636,
                "pitch": 48,
                "velocity": 40,
                "duration": 0.18181818181818166,
                "tempo": 120.0
            },
            {
                "start_time": 7.204545454545454,
                "end_time": 7.388636363636364,
                "pitch": 48,
                "velocity": 40,
                "duration": 0.18409090909090953,
                "tempo": 120.0
            },
            {
                "start_time": 7.404545454545454,
                "end_time": 7.590909090909091,
                "pitch": 67,
                "velocity": 40,
                "duration": 0.1863636363636365,
                "tempo": 120.0
            },
            {
                "start_time": 7.6068181818181815,
                "end_time": 7.79090909090909,
                "pitch": 48,
                "velocity": 40,
                "duration": 0.18409090909090864,
                "tempo": 120.0
            },
            {
                "start_time": 7.806818181818182,
                "end_time": 7.99090909090909,
                "pitch": 48,
                "velocity": 40,
                "duration": 0.18409090909090864,
                "tempo": 120.0
            },
            {
                "start_time": 8.006818181818181,
                "end_time": 8.190909090909091,
                "pitch": 67,
                "velocity": 40,
                "duration": 0.18409090909091042,
                "tempo": 120.0
            },
            {
                "start_time": 8.209090909090909,
                "end_time": 8.393181818181818,
                "pitch": 48,
                "velocity": 40,
                "duration": 0.18409090909090864,
                "tempo": 120.0
            },
            {
                "start_time": 8.409090909090908,
                "end_time": 8.597727272727273,
                "pitch": 48,
                "velocity": 40,
                "duration": 0.18863636363636438,
                "tempo": 120.0
            },
            {
                "start_time": 8.613636363636363,
                "end_time": 8.802272727272728,
                "pitch": 67,
                "velocity": 40,
                "duration": 0.18863636363636438,
                "tempo": 120.0
            },
            {
                "start_time": 8.820454545454545,
                "end_time": 9.0,
                "pitch": 48,
                "velocity": 40,
                "duration": 0.17954545454545467,
                "tempo": 120.0
            },
            {
                "start_time": 9.01590909090909,
                "end_time": 9.195454545454545,
                "pitch": 55,
                "velocity": 40,
                "duration": 0.17954545454545467,
                "tempo": 120.0
            },
            {
                "start_time": 9.211363636363636,
                "end_time": 9.395454545454545,
                "pitch": 56,
                "velocity": 40,
                "duration": 0.18409090909090864,
                "tempo": 120.0
            },
            {
                "start_time": 9.411363636363635,
                "end_time": 9.595454545454546,
                "pitch": 51,
                "velocity": 40,
                "duration": 0.18409090909091042,
                "tempo": 120.0
            },
            {
                "start_time": 9.611363636363636,
                "end_time": 9.797727272727272,
                "pitch": 48,
                "velocity": 40,
                "duration": 0.18636363636363562,
                "tempo": 120.0
            },
            {
                "start_time": 9.813636363636363,
                "end_time": 9.997727272727273,
                "pitch": 48,
                "velocity": 40,
                "duration": 0.18409090909091042,
                "tempo": 120.0
            },
            {
                "start_time": 10.01590909090909,
                "end_time": 10.2,
                "pitch": 67,
                "velocity": 40,
                "duration": 0.18409090909090864,
                "tempo": 120.0
            },
            {
                "start_time": 10.21590909090909,
                "end_time": 10.4,
                "pitch": 48,
                "velocity": 40,
                "duration": 0.18409090909091042,
                "tempo": 120.0
            },
            {
                "start_time": 10.418181818181818,
                "end_time": 10.60681818181818,
                "pitch": 48,
                "velocity": 40,
                "duration": 0.1886363636363626,
                "tempo": 120.0
            },
            {
                "start_time": 10.622727272727273,
                "end_time": 10.811363636363636,
                "pitch": 67,
                "velocity": 40,
                "duration": 0.1886363636363626,
                "tempo": 120.0
            },
            {
                "start_time": 10.829545454545453,
                "end_time": 11.009090909090908,
                "pitch": 48,
                "velocity": 40,
                "duration": 0.17954545454545467,
                "tempo": 120.0
            },
            {
                "start_time": 11.024999999999999,
                "end_time": 11.204545454545453,
                "pitch": 58,
                "velocity": 40,
                "duration": 0.17954545454545467,
                "tempo": 120.0
            },
            {
                "start_time": 11.220454545454546,
                "end_time": 11.809090909090909,
                "pitch": 58,
                "velocity": 40,
                "duration": 0.588636363636363,
                "tempo": 120.0
            },
            {
                "start_time": 11.825,
                "end_time": 12.60909090909091,
                "pitch": 65,
                "velocity": 40,
                "duration": 0.7840909090909101,
                "tempo": 120.0
            },
            {
                "start_time": 12.625,
                "end_time": 12.809090909090909,
                "pitch": 63,
                "velocity": 40,
                "duration": 0.18409090909090864,
                "tempo": 120.0
            },
            {
                "start_time": 12.827272727272726,
                "end_time": 13.011363636363635,
                "pitch": 56,
                "velocity": 40,
                "duration": 0.18409090909090864,
                "tempo": 120.0
            },
            {
                "start_time": 13.027272727272727,
                "end_time": 13.211363636363636,
                "pitch": 56,
                "velocity": 40,
                "duration": 0.18409090909090864,
                "tempo": 120.0
            },
            {
                "start_time": 13.229545454545454,
                "end_time": 13.411363636363635,
                "pitch": 63,
                "velocity": 40,
                "duration": 0.18181818181818166,
                "tempo": 120.0
            },
            {
                "start_time": 13.429545454545455,
                "end_time": 13.611363636363636,
                "pitch": 56,
                "velocity": 40,
                "duration": 0.18181818181818166,
                "tempo": 120.0
            },
            {
                "start_time": 13.629545454545454,
                "end_time": 13.813636363636363,
                "pitch": 56,
                "velocity": 40,
                "duration": 0.18409090909090864,
                "tempo": 120.0
            },
            {
                "start_time": 13.829545454545453,
                "end_time": 14.01590909090909,
                "pitch": 56,
                "velocity": 40,
                "duration": 0.1863636363636374,
                "tempo": 120.0
            },
            {
                "start_time": 14.031818181818181,
                "end_time": 14.21590909090909,
                "pitch": 63,
                "velocity": 40,
                "duration": 0.18409090909090864,
                "tempo": 120.0
            },
            {
                "start_time": 14.23181818181818,
                "end_time": 14.418181818181818,
                "pitch": 56,
                "velocity": 40,
                "duration": 0.1863636363636374,
                "tempo": 120.0
            },
            {
                "start_time": 14.434090909090909,
                "end_time": 14.618181818181817,
                "pitch": 56,
                "velocity": 40,
                "duration": 0.18409090909090864,
                "tempo": 120.0
            },
            {
                "start_time": 14.636363636363635,
                "end_time": 14.820454545454545,
                "pitch": 56,
                "velocity": 40,
                "duration": 0.18409090909091042,
                "tempo": 120.0
            },
            {
                "start_time": 14.836363636363636,
                "end_time": 15.020454545454545,
                "pitch": 63,
                "velocity": 40,
                "duration": 0.18409090909090864,
                "tempo": 120.0
            },
            {
                "start_time": 15.038636363636362,
                "end_time": 15.222727272727273,
                "pitch": 56,
                "velocity": 40,
                "duration": 0.18409090909091042,
                "tempo": 120.0
            },
            {
                "start_time": 15.238636363636363,
                "end_time": 15.422727272727272,
                "pitch": 58,
                "velocity": 40,
                "duration": 0.18409090909090864,
                "tempo": 120.0
            },
            {
                "start_time": 15.438636363636363,
                "end_time": 15.622727272727271,
                "pitch": 56,
                "velocity": 40,
                "duration": 0.18409090909090864,
                "tempo": 120.0
            },
            {
                "start_time": 15.638636363636364,
                "end_time": 15.825,
                "pitch": 55,
                "velocity": 40,
                "duration": 0.18636363636363562,
                "tempo": 120.0
            },
            {
                "start_time": 15.84090909090909,
                "end_time": 16.025,
                "pitch": 56,
                "velocity": 40,
                "duration": 0.18409090909090864,
                "tempo": 120.0
            },
            {
                "start_time": 16.043181818181818,
                "end_time": 16.227272727272727,
                "pitch": 56,
                "velocity": 40,
                "duration": 0.18409090909090864,
                "tempo": 120.0
            },
            {
                "start_time": 16.243181818181817,
                "end_time": 16.427272727272726,
                "pitch": 56,
                "velocity": 40,
                "duration": 0.18409090909090864,
                "tempo": 120.0
            },
            {
                "start_time": 16.445454545454545,
                "end_time": 16.627272727272725,
                "pitch": 63,
                "velocity": 40,
                "duration": 0.18181818181817988,
                "tempo": 120.0
            },
            {
                "start_time": 16.645454545454545,
                "end_time": 16.827272727272728,
                "pitch": 56,
                "velocity": 40,
                "duration": 0.18181818181818343,
                "tempo": 120.0
            },
            {
                "start_time": 16.845454545454544,
                "end_time": 17.029545454545453,
                "pitch": 56,
                "velocity": 40,
                "duration": 0.18409090909090864,
                "tempo": 120.0
            },
            {
                "start_time": 17.045454545454543,
                "end_time": 17.23181818181818,
                "pitch": 56,
                "velocity": 40,
                "duration": 0.1863636363636374,
                "tempo": 120.0
            },
            {
                "start_time": 17.24772727272727,
                "end_time": 17.43181818181818,
                "pitch": 63,
                "velocity": 40,
                "duration": 0.18409090909090864,
                "tempo": 120.0
            },
            {
                "start_time": 17.44772727272727,
                "end_time": 17.631818181818183,
                "pitch": 56,
                "velocity": 40,
                "duration": 0.1840909090909122,
                "tempo": 120.0
            },
            {
                "start_time": 17.647727272727273,
                "end_time": 17.831818181818182,
                "pitch": 56,
                "velocity": 40,
                "duration": 0.18409090909090864,
                "tempo": 120.0
            },
            {
                "start_time": 17.849999999999998,
                "end_time": 18.034090909090907,
                "pitch": 56,
                "velocity": 40,
                "duration": 0.18409090909090864,
                "tempo": 120.0
            },
            {
                "start_time": 18.05,
                "end_time": 18.23409090909091,
                "pitch": 63,
                "velocity": 40,
                "duration": 0.18409090909090864,
                "tempo": 120.0
            },
            {
                "start_time": 18.25,
                "end_time": 18.43409090909091,
                "pitch": 56,
                "velocity": 40,
                "duration": 0.18409090909090864,
                "tempo": 120.0
            },
            {
                "start_time": 18.45,
                "end_time": 18.634090909090908,
                "pitch": 58,
                "velocity": 40,
                "duration": 0.18409090909090864,
                "tempo": 120.0
            },
            {
                "start_time": 18.65,
                "end_time": 18.834090909090907,
                "pitch": 56,
                "velocity": 40,
                "duration": 0.18409090909090864,
                "tempo": 120.0
            },
            {
                "start_time": 18.849999999999998,
                "end_time": 19.034090909090907,
                "pitch": 55,
                "velocity": 40,
                "duration": 0.18409090909090864,
                "tempo": 120.0
            },
            {
                "start_time": 19.052272727272726,
                "end_time": 19.236363636363635,
                "pitch": 58,
                "velocity": 40,
                "duration": 0.18409090909090864,
                "tempo": 120.0
            },
            {
                "start_time": 19.252272727272725,
                "end_time": 19.436363636363634,
                "pitch": 58,
                "velocity": 40,
                "duration": 0.18409090909090864,
                "tempo": 120.0
            },
            {
                "start_time": 19.452272727272728,
                "end_time": 19.636363636363637,
                "pitch": 58,
                "velocity": 40,
                "duration": 0.18409090909090864,
                "tempo": 120.0
            },
            {
                "start_time": 19.652272727272727,
                "end_time": 19.83863636363636,
                "pitch": 65,
                "velocity": 40,
                "duration": 0.18636363636363384,
                "tempo": 120.0
            },
            {
                "start_time": 19.854545454545452,
                "end_time": 20.038636363636364,
                "pitch": 58,
                "velocity": 40,
                "duration": 0.1840909090909122,
                "tempo": 120.0
            },
            {
                "start_time": 20.05681818181818,
                "end_time": 20.238636363636363,
                "pitch": 58,
                "velocity": 40,
                "duration": 0.18181818181818343,
                "tempo": 120.0
            },
            {
                "start_time": 20.25681818181818,
                "end_time": 20.438636363636363,
                "pitch": 58,
                "velocity": 40,
                "duration": 0.18181818181818343,
                "tempo": 120.0
            },
            {
                "start_time": 20.456818181818182,
                "end_time": 20.638636363636362,
                "pitch": 65,
                "velocity": 40,
                "duration": 0.18181818181817988,
                "tempo": 120.0
            },
            {
                "start_time": 20.65681818181818,
                "end_time": 20.83863636363636,
                "pitch": 58,
                "velocity": 40,
                "duration": 0.18181818181817988,
                "tempo": 120.0
            },
            {
                "start_time": 20.85681818181818,
                "end_time": 21.04090909090909,
                "pitch": 58,
                "velocity": 40,
                "duration": 0.18409090909090864,
                "tempo": 120.0
            },
            {
                "start_time": 21.05681818181818,
                "end_time": 21.24090909090909,
                "pitch": 58,
                "velocity": 40,
                "duration": 0.18409090909090864,
                "tempo": 120.0
            },
            {
                "start_time": 21.259090909090908,
                "end_time": 21.44090909090909,
                "pitch": 65,
                "velocity": 40,
                "duration": 0.18181818181818343,
                "tempo": 120.0
            },
            {
                "start_time": 21.459090909090907,
                "end_time": 21.64090909090909,
                "pitch": 58,
                "velocity": 40,
                "duration": 0.18181818181818343,
                "tempo": 120.0
            },
            {
                "start_time": 21.659090909090907,
                "end_time": 21.84318181818182,
                "pitch": 58,
                "velocity": 40,
                "duration": 0.1840909090909122,
                "tempo": 120.0
            },
            {
                "start_time": 21.85909090909091,
                "end_time": 22.043181818181818,
                "pitch": 58,
                "velocity": 40,
                "duration": 0.18409090909090864,
                "tempo": 120.0
            },
            {
                "start_time": 22.061363636363634,
                "end_time": 22.245454545454546,
                "pitch": 63,
                "velocity": 40,
                "duration": 0.1840909090909122,
                "tempo": 120.0
            },
            {
                "start_time": 22.261363636363637,
                "end_time": 22.445454545454545,
                "pitch": 58,
                "velocity": 40,
                "duration": 0.18409090909090864,
                "tempo": 120.0
            },
            {
                "start_time": 22.461363636363636,
                "end_time": 22.645454545454545,
                "pitch": 58,
                "velocity": 40,
                "duration": 0.18409090909090864,
                "tempo": 120.0
            },
            {
                "start_time": 22.661363636363635,
                "end_time": 22.845454545454544,
                "pitch": 58,
                "velocity": 40,
                "duration": 0.18409090909090864,
                "tempo": 120.0
            },
            {
                "start_time": 22.861363636363635,
                "end_time": 23.045454545454543,
                "pitch": 65,
                "velocity": 40,
                "duration": 0.18409090909090864,
                "tempo": 120.0
            },
            {
                "start_time": 23.061363636363634,
                "end_time": 23.24772727272727,
                "pitch": 58,
                "velocity": 40,
                "duration": 0.1863636363636374,
                "tempo": 120.0
            },
            {
                "start_time": 23.263636363636362,
                "end_time": 23.44772727272727,
                "pitch": 58,
                "velocity": 40,
                "duration": 0.18409090909090864,
                "tempo": 120.0
            },
            {
                "start_time": 23.46363636363636,
                "end_time": 23.64772727272727,
                "pitch": 58,
                "velocity": 40,
                "duration": 0.18409090909090864,
                "tempo": 120.0
            },
            {
                "start_time": 23.663636363636364,
                "end_time": 23.847727272727273,
                "pitch": 65,
                "velocity": 40,
                "duration": 0.18409090909090864,
                "tempo": 120.0
            },
            {
                "start_time": 23.86590909090909,
                "end_time": 24.049999999999997,
                "pitch": 58,
                "velocity": 40,
                "duration": 0.18409090909090864,
                "tempo": 120.0
            },
            {
                "start_time": 24.06590909090909,
                "end_time": 24.25,
                "pitch": 63,
                "velocity": 40,
                "duration": 0.18409090909090864,
                "tempo": 120.0
            },
            {
                "start_time": 24.26590909090909,
                "end_time": 24.45,
                "pitch": 63,
                "velocity": 40,
                "duration": 0.18409090909090864,
                "tempo": 120.0
            },
            {
                "start_time": 24.46590909090909,
                "end_time": 24.65,
                "pitch": 63,
                "velocity": 40,
                "duration": 0.18409090909090864,
                "tempo": 120.0
            },
            {
                "start_time": 24.66590909090909,
                "end_time": 24.849999999999998,
                "pitch": 63,
                "velocity": 40,
                "duration": 0.18409090909090864,
                "tempo": 120.0
            },
            {
                "start_time": 24.86590909090909,
                "end_time": 25.049999999999997,
                "pitch": 63,
                "velocity": 40,
                "duration": 0.18409090909090864,
                "tempo": 120.0
            },
            {
                "start_time": 25.068181818181817,
                "end_time": 25.252272727272725,
                "pitch": 63,
                "velocity": 40,
                "duration": 0.18409090909090864,
                "tempo": 120.0
            },
            {
                "start_time": 25.268181818181816,
                "end_time": 25.452272727272724,
                "pitch": 63,
                "velocity": 40,
                "duration": 0.18409090909090864,
                "tempo": 120.0
            },
            {
                "start_time": 25.46818181818182,
                "end_time": 25.652272727272727,
                "pitch": 63,
                "velocity": 40,
                "duration": 0.18409090909090864,
                "tempo": 120.0
            },
            {
                "start_time": 25.668181818181818,
                "end_time": 27.26590909090909,
                "pitch": 67,
                "velocity": 40,
                "duration": 1.5977272727272727,
                "tempo": 120.0
            },
            {
                "start_time": 27.28181818181818,
                "end_time": 28.861363636363635,
                "pitch": 58,
                "velocity": 40,
                "duration": 1.5795454545454533,
                "tempo": 120.0
            },
            {
                "start_time": 28.877272727272725,
                "end_time": 30.46590909090909,
                "pitch": 63,
                "velocity": 40,
                "duration": 1.5886363636363647,
                "tempo": 120.0
            },
            {
                "start_time": 30.48181818181818,
                "end_time": 32.070454545454545,
                "pitch": 60,
                "velocity": 40,
                "duration": 1.5886363636363647,
                "tempo": 120.0
            },
            {
                "start_time": 32.08863636363636,
                "end_time": 33.27045454545454,
                "pitch": 62,
                "velocity": 40,
                "duration": 1.1818181818181799,
                "tempo": 120.0
            },
            {
                "start_time": 33.288636363636364,
                "end_time": 33.47272727272727,
                "pitch": 62,
                "velocity": 40,
                "duration": 0.18409090909090509,
                "tempo": 120.0
            },
            {
                "start_time": 33.48863636363636,
                "end_time": 33.675,
                "pitch": 63,
                "velocity": 40,
                "duration": 0.1863636363636374,
                "tempo": 120.0
            },
            {
                "start_time": 33.69090909090909,
                "end_time": 34.875,
                "pitch": 63,
                "velocity": 40,
                "duration": 1.1840909090909122,
                "tempo": 120.0
            },
            {
                "start_time": 34.89090909090909,
                "end_time": 35.074999999999996,
                "pitch": 63,
                "velocity": 40,
                "duration": 0.18409090909090509,
                "tempo": 120.0
            },
            {
                "start_time": 35.090909090909086,
                "end_time": 35.275,
                "pitch": 65,
                "velocity": 40,
                "duration": 0.1840909090909122,
                "tempo": 120.0
            },
            {
                "start_time": 35.29090909090909,
                "end_time": 36.877272727272725,
                "pitch": 65,
                "velocity": 40,
                "duration": 1.586363636363636,
                "tempo": 120.0
            },
            {
                "start_time": 36.893181818181816,
                "end_time": 37.47727272727273,
                "pitch": 63,
                "velocity": 40,
                "duration": 0.5840909090909108,
                "tempo": 120.0
            },
            {
                "start_time": 37.49545454545454,
                "end_time": 37.679545454545455,
                "pitch": 62,
                "velocity": 40,
                "duration": 0.1840909090909122,
                "tempo": 120.0
            },
            {
                "start_time": 37.695454545454545,
                "end_time": 38.47954545454545,
                "pitch": 62,
                "velocity": 40,
                "duration": 0.7840909090909065,
                "tempo": 120.0
            },
            {
                "start_time": 38.49545454545454,
                "end_time": 38.64545454545454,
                "pitch": 48,
                "velocity": 40,
                "duration": 0.14999999999999858,
                "tempo": 120.0
            }
        ]
    }
}