{
    "track_id": "Miracle Warriors - Seal of the Dark Lord (FM) - 12 - Ending",
    "mood": "angry",
    "instruments": {
        "Lead 2 (sawtooth)": [
            {
                "start_time": 0.015909090909090907,
                "end_time": 0.18409090909090908,
                "pitch": 55,
                "velocity": 64,
                "duration": 0.16818181818181818,
                "tempo": 120.0
            },
            {
                "start_time": 0.20227272727272727,
                "end_time": 0.38636363636363635,
                "pitch": 70,
                "velocity": 64,
                "duration": 0.18409090909090908,
                "tempo": 120.0
            },
            {
                "start_time": 0.4022727272727272,
                "end_time": 0.5818181818181818,
                "pitch": 62,
                "velocity": 64,
                "duration": 0.17954545454545456,
                "tempo": 120.0
            },
            {
                "start_time": 0.5977272727272727,
                "end_time": 0.7795454545454545,
                "pitch": 69,
                "velocity": 64,
                "duration": 0.18181818181818188,
                "tempo": 120.0
            },
            {
                "start_time": 0.7954545454545454,
                "end_time": 0.9772727272727272,
                "pitch": 62,
                "velocity": 64,
                "duration": 0.18181818181818177,
                "tempo": 120.0
            },
            {
                "start_time": 0.9954545454545454,
                "end_time": 1.1772727272727272,
                "pitch": 65,
                "velocity": 64,
                "duration": 0.18181818181818188,
                "tempo": 120.0
            },
            {
                "start_time": 1.1954545454545453,
                "end_time": 1.3772727272727272,
                "pitch": 62,
                "velocity": 64,
                "duration": 0.18181818181818188,
                "tempo": 120.0
            },
            {
                "start_time": 1.3954545454545453,
                "end_time": 1.5772727272727272,
                "pitch": 67,
                "velocity": 64,
                "duration": 0.18181818181818188,
                "tempo": 120.0
            },
            {
                "start_time": 1.5954545454545455,
                "end_time": 1.7795454545454545,
                "pitch": 55,
                "velocity": 64,
                "duration": 0.18409090909090908,
                "tempo": 120.0
            },
            {
                "start_time": 1.7954545454545454,
                "end_time": 1.9795454545454545,
                "pitch": 70,
                "velocity": 64,
                "duration": 0.18409090909090908,
                "tempo": 120.0
            },
            {
                "start_time": 1.9977272727272726,
                "end_time": 2.1818181818181817,
                "pitch": 62,
                "velocity": 64,
                "duration": 0.18409090909090908,
                "tempo": 120.0
            },
            {
                "start_time": 2.1977272727272728,
                "end_time": 2.381818181818182,
                "pitch": 69,
                "velocity": 64,
                "duration": 0.18409090909090908,
                "tempo": 120.0
            },
            {
                "start_time": 2.3977272727272725,
                "end_time": 2.5818181818181816,
                "pitch": 62,
                "velocity": 64,
                "duration": 0.18409090909090908,
                "tempo": 120.0
            },
            {
                "start_time": 2.5977272727272727,
                "end_time": 2.7818181818181817,
                "pitch": 72,
                "velocity": 64,
                "duration": 0.18409090909090908,
                "tempo": 120.0
            },
            {
                "start_time": 2.7977272727272724,
                "end_time": 2.9818181818181815,
                "pitch": 69,
                "velocity": 64,
                "duration": 0.18409090909090908,
                "tempo": 120.0
            },
            {
                "start_time": 2.9977272727272726,
                "end_time": 3.1818181818181817,
                "pitch": 65,
                "velocity": 64,
                "duration": 0.18409090909090908,
                "tempo": 120.0
            },
            {
                "start_time": 3.1977272727272728,
                "end_time": 3.381818181818182,
                "pitch": 55,
                "velocity": 64,
                "duration": 0.18409090909090908,
                "tempo": 120.0
            },
            {
                "start_time": 3.3977272727272725,
                "end_time": 3.584090909090909,
                "pitch": 70,
                "velocity": 64,
                "duration": 0.1863636363636365,
                "tempo": 120.0
            },
            {
                "start_time": 3.5999999999999996,
                "end_time": 3.7840909090909087,
                "pitch": 62,
                "velocity": 64,
                "duration": 0.18409090909090908,
                "tempo": 120.0
            },
            {
                "start_time": 3.8,
                "end_time": 3.984090909090909,
                "pitch": 69,
                "velocity": 64,
                "duration": 0.18409090909090908,
                "tempo": 120.0
            },
            {
                "start_time": 4.0,
                "end_time": 4.184090909090909,
                "pitch": 62,
                "velocity": 64,
                "duration": 0.18409090909090864,
                "tempo": 120.0
            },
            {
                "start_time": 4.2,
                "end_time": 4.384090909090909,
                "pitch": 65,
                "velocity": 64,
                "duration": 0.18409090909090864,
                "tempo": 120.0
            },
            {
                "start_time": 4.3999999999999995,
                "end_time": 4.584090909090909,
                "pitch": 62,
                "velocity": 64,
                "duration": 0.18409090909090953,
                "tempo": 120.0
            },
            {
                "start_time": 4.602272727272727,
                "end_time": 4.786363636363636,
                "pitch": 67,
                "velocity": 64,
                "duration": 0.18409090909090953,
                "tempo": 120.0
            },
            {
                "start_time": 4.802272727272727,
                "end_time": 4.986363636363636,
                "pitch": 55,
                "velocity": 64,
                "duration": 0.18409090909090953,
                "tempo": 120.0
            },
            {
                "start_time": 5.002272727272727,
                "end_time": 5.1863636363636365,
                "pitch": 70,
                "velocity": 64,
                "duration": 0.18409090909090953,
                "tempo": 120.0
            },
            {
                "start_time": 5.202272727272727,
                "end_time": 5.386363636363636,
                "pitch": 62,
                "velocity": 64,
                "duration": 0.18409090909090864,
                "tempo": 120.0
            },
            {
                "start_time": 5.404545454545454,
                "end_time": 5.588636363636363,
                "pitch": 69,
                "velocity": 64,
                "duration": 0.18409090909090864,
                "tempo": 120.0
            },
            {
                "start_time": 5.6045454545454545,
                "end_time": 5.788636363636363,
                "pitch": 62,
                "velocity": 64,
                "duration": 0.18409090909090864,
                "tempo": 120.0
            },
            {
                "start_time": 5.804545454545455,
                "end_time": 5.988636363636363,
                "pitch": 72,
                "velocity": 64,
                "duration": 0.18409090909090864,
                "tempo": 120.0
            },
            {
                "start_time": 6.004545454545454,
                "end_time": 6.1909090909090905,
                "pitch": 69,
                "velocity": 64,
                "duration": 0.1863636363636365,
                "tempo": 120.0
            },
            {
                "start_time": 6.206818181818181,
                "end_time": 6.390909090909091,
                "pitch": 65,
                "velocity": 64,
                "duration": 0.18409090909090953,
                "tempo": 120.0
            },
            {
                "start_time": 6.409090909090909,
                "end_time": 6.593181818181818,
                "pitch": 55,
                "velocity": 64,
                "duration": 0.18409090909090864,
                "tempo": 120.0
            },
            {
                "start_time": 6.6090909090909085,
                "end_time": 6.793181818181818,
                "pitch": 70,
                "velocity": 64,
                "duration": 0.18409090909090953,
                "tempo": 120.0
            },
            {
                "start_time": 6.811363636363636,
                "end_time": 6.993181818181818,
                "pitch": 62,
                "velocity": 64,
                "duration": 0.18181818181818254,
                "tempo": 120.0
            },
            {
                "start_time": 7.011363636363636,
                "end_time": 7.1931818181818175,
                "pitch": 69,
                "velocity": 64,
                "duration": 0.18181818181818166,
                "tempo": 120.0
            },
            {
                "start_time": 7.211363636363636,
                "end_time": 7.3954545454545455,
                "pitch": 62,
                "velocity": 64,
                "duration": 0.18409090909090953,
                "tempo": 120.0
            },
            {
                "start_time": 7.411363636363636,
                "end_time": 7.597727272727273,
                "pitch": 65,
                "velocity": 64,
                "duration": 0.1863636363636365,
                "tempo": 120.0
            },
            {
                "start_time": 7.613636363636363,
                "end_time": 7.797727272727272,
                "pitch": 62,
                "velocity": 64,
                "duration": 0.18409090909090864,
                "tempo": 120.0
            },
            {
                "start_time": 7.8136363636363635,
                "end_time": 7.997727272727272,
                "pitch": 67,
                "velocity": 64,
                "duration": 0.18409090909090864,
                "tempo": 120.0
            },
            {
                "start_time": 8.013636363636364,
                "end_time": 8.197727272727272,
                "pitch": 55,
                "velocity": 64,
                "duration": 0.18409090909090864,
                "tempo": 120.0
            },
            {
                "start_time": 8.21590909090909,
                "end_time": 8.4,
                "pitch": 70,
                "velocity": 64,
                "duration": 0.18409090909091042,
                "tempo": 120.0
            },
            {
                "start_time": 8.415909090909091,
                "end_time": 8.6,
                "pitch": 62,
                "velocity": 64,
                "duration": 0.18409090909090864,
                "tempo": 120.0
            },
            {
                "start_time": 8.618181818181817,
                "end_time": 8.802272727272728,
                "pitch": 69,
                "velocity": 64,
                "duration": 0.18409090909091042,
                "tempo": 120.0
            },
            {
                "start_time": 8.818181818181818,
                "end_time": 9.004545454545454,
                "pitch": 62,
                "velocity": 64,
                "duration": 0.18636363636363562,
                "tempo": 120.0
            },
            {
                "start_time": 9.020454545454545,
                "end_time": 9.204545454545453,
                "pitch": 72,
                "velocity": 64,
                "duration": 0.18409090909090864,
                "tempo": 120.0
            },
            {
                "start_time": 9.222727272727273,
                "end_time": 9.404545454545454,
                "pitch": 69,
                "velocity": 64,
                "duration": 0.18181818181818166,
                "tempo": 120.0
            },
            {
                "start_time": 9.422727272727272,
                "end_time": 9.604545454545454,
                "pitch": 65,
                "velocity": 64,
                "duration": 0.18181818181818166,
                "tempo": 120.0
            },
            {
                "start_time": 9.622727272727273,
                "end_time": 9.806818181818182,
                "pitch": 55,
                "velocity": 64,
                "duration": 0.18409090909090864,
                "tempo": 120.0
            },
            {
                "start_time": 9.822727272727272,
                "end_time": 10.006818181818181,
                "pitch": 70,
                "velocity": 64,
                "duration": 0.18409090909090864,
                "tempo": 120.0
            },
            {
                "start_time": 10.025,
                "end_time": 10.209090909090909,
                "pitch": 62,
                "velocity": 64,
                "duration": 0.18409090909090864,
                "tempo": 120.0
            },
            {
                "start_time": 10.225,
                "end_time": 10.409090909090908,
                "pitch": 69,
                "velocity": 64,
                "duration": 0.18409090909090864,
                "tempo": 120.0
            },
            {
                "start_time": 10.427272727272726,
                "end_time": 10.611363636363636,
                "pitch": 62,
                "velocity": 64,
                "duration": 0.18409090909091042,
                "tempo": 120.0
            },
            {
                "start_time": 10.627272727272727,
                "end_time": 10.813636363636363,
                "pitch": 65,
                "velocity": 64,
                "duration": 0.18636363636363562,
                "tempo": 120.0
            },
            {
                "start_time": 10.829545454545453,
                "end_time": 11.013636363636364,
                "pitch": 62,
                "velocity": 64,
                "duration": 0.18409090909091042,
                "tempo": 120.0
            },
            {
                "start_time": 11.031818181818181,
                "end_time": 11.21590909090909,
                "pitch": 67,
                "velocity": 64,
                "duration": 0.18409090909090864,
                "tempo": 120.0
            },
            {
                "start_time": 11.23181818181818,
                "end_time": 11.415909090909091,
                "pitch": 55,
                "velocity": 64,
                "duration": 0.18409090909091042,
                "tempo": 120.0
            },
            {
                "start_time": 11.431818181818182,
                "end_time": 11.61590909090909,
                "pitch": 70,
                "velocity": 64,
                "duration": 0.18409090909090864,
                "tempo": 120.0
            },
            {
                "start_time": 11.631818181818181,
                "end_time": 11.81590909090909,
                "pitch": 62,
                "velocity": 64,
                "duration": 0.18409090909090864,
                "tempo": 120.0
            },
            {
                "start_time": 11.834090909090909,
                "end_time": 12.018181818181818,
                "pitch": 69,
                "velocity": 64,
                "duration": 0.18409090909090864,
                "tempo": 120.0
            },
            {
                "start_time": 12.034090909090908,
                "end_time": 12.220454545454546,
                "pitch": 62,
                "velocity": 64,
                "duration": 0.1863636363636374,
                "tempo": 120.0
            },
            {
                "start_time": 12.236363636363636,
                "end_time": 12.420454545454545,
                "pitch": 72,
                "velocity": 64,
                "duration": 0.18409090909090864,
                "tempo": 120.0
            },
            {
                "start_time": 12.438636363636363,
                "end_time": 12.622727272727271,
                "pitch": 69,
                "velocity": 64,
                "duration": 0.18409090909090864,
                "tempo": 120.0
            },
            {
                "start_time": 12.638636363636364,
                "end_time": 12.822727272727272,
                "pitch": 65,
                "velocity": 64,
                "duration": 0.18409090909090864,
                "tempo": 120.0
            },
            {
                "start_time": 19.268181818181816,
                "end_time": 19.45,
                "pitch": 55,
                "velocity": 64,
                "duration": 0.18181818181818343,
                "tempo": 120.0
            },
            {
                "start_time": 19.46818181818182,
                "end_time": 19.65,
                "pitch": 70,
                "velocity": 64,
                "duration": 0.18181818181817988,
                "tempo": 120.0
            },
            {
                "start_time": 19.668181818181818,
                "end_time": 19.852272727272727,
                "pitch": 62,
                "velocity": 64,
                "duration": 0.18409090909090864,
                "tempo": 120.0
            },
            {
                "start_time": 19.868181818181817,
                "end_time": 20.052272727272726,
                "pitch": 69,
                "velocity": 64,
                "duration": 0.18409090909090864,
                "tempo": 120.0
            },
            {
                "start_time": 20.070454545454545,
                "end_time": 20.252272727272725,
                "pitch": 62,
                "velocity": 64,
                "duration": 0.18181818181817988,
                "tempo": 120.0
            },
            {
                "start_time": 20.270454545454545,
                "end_time": 20.452272727272728,
                "pitch": 65,
                "velocity": 64,
                "duration": 0.18181818181818343,
                "tempo": 120.0
            },
            {
                "start_time": 20.470454545454544,
                "end_time": 20.652272727272727,
                "pitch": 62,
                "velocity": 64,
                "duration": 0.18181818181818343,
                "tempo": 120.0
            },
            {
                "start_time": 20.670454545454543,
                "end_time": 20.852272727272727,
                "pitch": 67,
                "velocity": 64,
                "duration": 0.18181818181818343,
                "tempo": 120.0
            },
            {
                "start_time": 20.870454545454546,
                "end_time": 21.054545454545455,
                "pitch": 55,
                "velocity": 64,
                "duration": 0.18409090909090864,
                "tempo": 120.0
            },
            {
                "start_time": 21.070454545454545,
                "end_time": 21.25681818181818,
                "pitch": 70,
                "velocity": 64,
                "duration": 0.18636363636363384,
                "tempo": 120.0
            },
            {
                "start_time": 21.272727272727273,
                "end_time": 21.456818181818182,
                "pitch": 62,
                "velocity": 64,
                "duration": 0.18409090909090864,
                "tempo": 120.0
            },
            {
                "start_time": 21.472727272727273,
                "end_time": 21.65681818181818,
                "pitch": 69,
                "velocity": 64,
                "duration": 0.18409090909090864,
                "tempo": 120.0
            },
            {
                "start_time": 21.672727272727272,
                "end_time": 21.85681818181818,
                "pitch": 62,
                "velocity": 64,
                "duration": 0.18409090909090864,
                "tempo": 120.0
            },
            {
                "start_time": 21.875,
                "end_time": 22.05909090909091,
                "pitch": 72,
                "velocity": 64,
                "duration": 0.18409090909090864,
                "tempo": 120.0
            },
            {
                "start_time": 22.075,
                "end_time": 22.259090909090908,
                "pitch": 69,
                "velocity": 64,
                "duration": 0.18409090909090864,
                "tempo": 120.0
            },
            {
                "start_time": 22.275,
                "end_time": 22.459090909090907,
                "pitch": 65,
                "velocity": 64,
                "duration": 0.18409090909090864,
                "tempo": 120.0
            },
            {
                "start_time": 22.474999999999998,
                "end_time": 22.659090909090907,
                "pitch": 55,
                "velocity": 64,
                "duration": 0.18409090909090864,
                "tempo": 120.0
            },
            {
                "start_time": 22.674999999999997,
                "end_time": 22.85909090909091,
                "pitch": 70,
                "velocity": 64,
                "duration": 0.1840909090909122,
                "tempo": 120.0
            },
            {
                "start_time": 22.875,
                "end_time": 23.05909090909091,
                "pitch": 62,
                "velocity": 64,
                "duration": 0.18409090909090864,
                "tempo": 120.0
            },
            {
                "start_time": 23.077272727272724,
                "end_time": 23.261363636363637,
                "pitch": 69,
                "velocity": 64,
                "duration": 0.1840909090909122,
                "tempo": 120.0
            },
            {
                "start_time": 23.277272727272727,
                "end_time": 23.461363636363636,
                "pitch": 62,
                "velocity": 64,
                "duration": 0.18409090909090864,
                "tempo": 120.0
            },
            {
                "start_time": 23.477272727272727,
                "end_time": 23.661363636363635,
                "pitch": 65,
                "velocity": 64,
                "duration": 0.18409090909090864,
                "tempo": 120.0
            },
            {
                "start_time": 23.677272727272726,
                "end_time": 23.863636363636363,
                "pitch": 62,
                "velocity": 64,
                "duration": 0.1863636363636374,
                "tempo": 120.0
            },
            {
                "start_time": 23.879545454545454,
                "end_time": 24.063636363636363,
                "pitch": 67,
                "velocity": 64,
                "duration": 0.18409090909090864,
                "tempo": 120.0
            },
            {
                "start_time": 24.081818181818182,
                "end_time": 24.263636363636362,
                "pitch": 55,
                "velocity": 64,
                "duration": 0.18181818181817988,
                "tempo": 120.0
            },
            {
                "start_time": 24.28181818181818,
                "end_time": 24.46363636363636,
                "pitch": 70,
                "velocity": 64,
                "duration": 0.18181818181817988,
                "tempo": 120.0
            },
            {
                "start_time": 24.48181818181818,
                "end_time": 24.663636363636364,
                "pitch": 62,
                "velocity": 64,
                "duration": 0.18181818181818343,
                "tempo": 120.0
            },
            {
                "start_time": 24.68181818181818,
                "end_time": 24.863636363636363,
                "pitch": 69,
                "velocity": 64,
                "duration": 0.18181818181818343,
                "tempo": 120.0
            },
            {
                "start_time": 24.88181818181818,
                "end_time": 25.06590909090909,
                "pitch": 62,
                "velocity": 64,
                "duration": 0.1840909090909122,
                "tempo": 120.0
            },
            {
                "start_time": 25.081818181818182,
                "end_time": 25.26590909090909,
                "pitch": 72,
                "velocity": 64,
                "duration": 0.18409090909090864,
                "tempo": 120.0
            },
            {
                "start_time": 25.284090909090907,
                "end_time": 25.46590909090909,
                "pitch": 69,
                "velocity": 64,
                "duration": 0.18181818181818343,
                "tempo": 120.0
            },
            {
                "start_time": 25.48409090909091,
                "end_time": 25.66590909090909,
                "pitch": 65,
                "velocity": 64,
                "duration": 0.18181818181817988,
                "tempo": 120.0
            },
            {
                "start_time": 25.68409090909091,
                "end_time": 25.868181818181817,
                "pitch": 55,
                "velocity": 64,
                "duration": 0.18409090909090864,
                "tempo": 120.0
            },
            {
                "start_time": 25.884090909090908,
                "end_time": 26.068181818181817,
                "pitch": 70,
                "velocity": 64,
                "duration": 0.18409090909090864,
                "tempo": 120.0
            },
            {
                "start_time": 26.086363636363636,
                "end_time": 26.270454545454545,
                "pitch": 62,
                "velocity": 64,
                "duration": 0.18409090909090864,
                "tempo": 120.0
            },
            {
                "start_time": 26.286363636363635,
                "end_time": 26.470454545454544,
                "pitch": 69,
                "velocity": 64,
                "duration": 0.18409090909090864,
                "tempo": 120.0
            },
            {
                "start_time": 26.486363636363635,
                "end_time": 26.670454545454543,
                "pitch": 62,
                "velocity": 64,
                "duration": 0.18409090909090864,
                "tempo": 120.0
            },
            {
                "start_time": 26.686363636363634,
                "end_time": 26.870454545454542,
                "pitch": 65,
                "velocity": 64,
                "duration": 0.18409090909090864,
                "tempo": 120.0
            },
            {
                "start_time": 26.886363636363637,
                "end_time": 27.070454545454545,
                "pitch": 62,
                "velocity": 64,
                "duration": 0.18409090909090864,
                "tempo": 120.0
            },
            {
                "start_time": 27.086363636363636,
                "end_time": 27.27272727272727,
                "pitch": 67,
                "velocity": 64,
                "duration": 0.18636363636363384,
                "tempo": 120.0
            },
            {
                "start_time": 27.288636363636364,
                "end_time": 27.472727272727273,
                "pitch": 55,
                "velocity": 64,
                "duration": 0.18409090909090864,
                "tempo": 120.0
            },
            {
                "start_time": 27.488636363636363,
                "end_time": 27.672727272727272,
                "pitch": 70,
                "velocity": 64,
                "duration": 0.18409090909090864,
                "tempo": 120.0
            },
            {
                "start_time": 27.688636363636363,
                "end_time": 27.87272727272727,
                "pitch": 62,
                "velocity": 64,
                "duration": 0.18409090909090864,
                "tempo": 120.0
            },
            {
                "start_time": 27.89090909090909,
                "end_time": 28.075,
                "pitch": 69,
                "velocity": 64,
                "duration": 0.18409090909090864,
                "tempo": 120.0
            },
            {
                "start_time": 28.09090909090909,
                "end_time": 28.275,
                "pitch": 62,
                "velocity": 64,
                "duration": 0.18409090909090864,
                "tempo": 120.0
            },
            {
                "start_time": 28.29090909090909,
                "end_time": 28.474999999999998,
                "pitch": 72,
                "velocity": 64,
                "duration": 0.18409090909090864,
                "tempo": 120.0
            },
            {
                "start_time": 28.49090909090909,
                "end_time": 28.674999999999997,
                "pitch": 69,
                "velocity": 64,
                "duration": 0.18409090909090864,
                "tempo": 120.0
            },
            {
                "start_time": 28.690909090909088,
                "end_time": 28.875,
                "pitch": 65,
                "velocity": 64,
                "duration": 0.1840909090909122,
                "tempo": 120.0
            },
            {
                "start_time": 28.89090909090909,
                "end_time": 29.075,
                "pitch": 55,
                "velocity": 64,
                "duration": 0.18409090909090864,
                "tempo": 120.0
            },
            {
                "start_time": 29.093181818181815,
                "end_time": 29.277272727272727,
                "pitch": 70,
                "velocity": 64,
                "duration": 0.1840909090909122,
                "tempo": 120.0
            },
            {
                "start_time": 29.293181818181818,
                "end_time": 29.477272727272727,
                "pitch": 62,
                "velocity": 64,
                "duration": 0.18409090909090864,
                "tempo": 120.0
            },
            {
                "start_time": 29.493181818181817,
                "end_time": 29.677272727272726,
                "pitch": 69,
                "velocity": 64,
                "duration": 0.18409090909090864,
                "tempo": 120.0
            },
            {
                "start_time": 29.693181818181817,
                "end_time": 29.879545454545454,
                "pitch": 62,
                "velocity": 64,
                "duration": 0.1863636363636374,
                "tempo": 120.0
            },
            {
                "start_time": 29.895454545454545,
                "end_time": 30.079545454545453,
                "pitch": 65,
                "velocity": 64,
                "duration": 0.18409090909090864,
                "tempo": 120.0
            },
            {
                "start_time": 30.097727272727273,
                "end_time": 30.279545454545453,
                "pitch": 62,
                "velocity": 64,
                "duration": 0.18181818181817988,
                "tempo": 120.0
            },
            {
                "start_time": 30.297727272727272,
                "end_time": 30.479545454545452,
                "pitch": 67,
                "velocity": 64,
                "duration": 0.18181818181817988,
                "tempo": 120.0
            },
            {
                "start_time": 30.49772727272727,
                "end_time": 30.679545454545455,
                "pitch": 55,
                "velocity": 64,
                "duration": 0.18181818181818343,
                "tempo": 120.0
            },
            {
                "start_time": 30.69772727272727,
                "end_time": 30.879545454545454,
                "pitch": 70,
                "velocity": 64,
                "duration": 0.18181818181818343,
                "tempo": 120.0
            },
            {
                "start_time": 30.89772727272727,
                "end_time": 31.081818181818182,
                "pitch": 62,
                "velocity": 64,
                "duration": 0.1840909090909122,
                "tempo": 120.0
            },
            {
                "start_time": 31.097727272727273,
                "end_time": 31.28181818181818,
                "pitch": 69,
                "velocity": 64,
                "duration": 0.18409090909090864,
                "tempo": 120.0
            },
            {
                "start_time": 31.299999999999997,
                "end_time": 31.48181818181818,
                "pitch": 62,
                "velocity": 64,
                "duration": 0.18181818181818343,
                "tempo": 120.0
            },
            {
                "start_time": 31.5,
                "end_time": 31.68181818181818,
                "pitch": 72,
                "velocity": 64,
                "duration": 0.18181818181817988,
                "tempo": 120.0
            },
            {
                "start_time": 31.7,
                "end_time": 31.884090909090908,
                "pitch": 69,
                "velocity": 64,
                "duration": 0.18409090909090864,
                "tempo": 120.0
            },
            {
                "start_time": 31.9,
                "end_time": 32.086363636363636,
                "pitch": 65,
                "velocity": 64,
                "duration": 0.1863636363636374,
                "tempo": 120.0
            },
            {
                "start_time": 49.715909090909086,
                "end_time": 49.90454545454545,
                "pitch": 55,
                "velocity": 64,
                "duration": 0.1886363636363626,
                "tempo": 120.0
            },
            {
                "start_time": 49.92045454545454,
                "end_time": 50.10909090909091,
                "pitch": 70,
                "velocity": 64,
                "duration": 0.1886363636363697,
                "tempo": 120.0
            },
            {
                "start_time": 50.127272727272725,
                "end_time": 50.31136363636364,
                "pitch": 62,
                "velocity": 64,
                "duration": 0.1840909090909122,
                "tempo": 120.0
            },
            {
                "start_time": 50.32727272727273,
                "end_time": 50.51136363636363,
                "pitch": 69,
                "velocity": 64,
                "duration": 0.18409090909090509,
                "tempo": 120.0
            },
            {
                "start_time": 50.527272727272724,
                "end_time": 50.711363636363636,
                "pitch": 62,
                "velocity": 64,
                "duration": 0.1840909090909122,
                "tempo": 120.0
            },
            {
                "start_time": 50.72727272727273,
                "end_time": 50.91136363636363,
                "pitch": 65,
                "velocity": 64,
                "duration": 0.18409090909090509,
                "tempo": 120.0
            },
            {
                "start_time": 50.92727272727272,
                "end_time": 51.111363636363635,
                "pitch": 62,
                "velocity": 64,
                "duration": 0.1840909090909122,
                "tempo": 120.0
            },
            {
                "start_time": 51.127272727272725,
                "end_time": 51.31136363636364,
                "pitch": 67,
                "velocity": 64,
                "duration": 0.1840909090909122,
                "tempo": 120.0
            },
            {
                "start_time": 51.32727272727273,
                "end_time": 51.51136363636363,
                "pitch": 55,
                "velocity": 64,
                "duration": 0.18409090909090509,
                "tempo": 120.0
            },
            {
                "start_time": 51.527272727272724,
                "end_time": 51.71363636363636,
                "pitch": 70,
                "velocity": 64,
                "duration": 0.1863636363636374,
                "tempo": 120.0
            },
            {
                "start_time": 51.72954545454545,
                "end_time": 51.913636363636364,
                "pitch": 62,
                "velocity": 64,
                "duration": 0.1840909090909122,
                "tempo": 120.0
            },
            {
                "start_time": 51.929545454545455,
                "end_time": 52.11363636363636,
                "pitch": 69,
                "velocity": 64,
                "duration": 0.18409090909090509,
                "tempo": 120.0
            },
            {
                "start_time": 52.12954545454545,
                "end_time": 52.31363636363636,
                "pitch": 62,
                "velocity": 64,
                "duration": 0.1840909090909122,
                "tempo": 120.0
            },
            {
                "start_time": 52.32954545454545,
                "end_time": 52.51363636363636,
                "pitch": 72,
                "velocity": 64,
                "duration": 0.18409090909090509,
                "tempo": 120.0
            },
            {
                "start_time": 52.52954545454545,
                "end_time": 52.71363636363636,
                "pitch": 69,
                "velocity": 64,
                "duration": 0.1840909090909122,
                "tempo": 120.0
            },
            {
                "start_time": 52.72954545454545,
                "end_time": 52.913636363636364,
                "pitch": 65,
                "velocity": 64,
                "duration": 0.1840909090909122,
                "tempo": 120.0
            },
            {
                "start_time": 52.929545454545455,
                "end_time": 53.11363636363636,
                "pitch": 55,
                "velocity": 64,
                "duration": 0.18409090909090509,
                "tempo": 120.0
            },
            {
                "start_time": 53.12954545454545,
                "end_time": 53.31363636363636,
                "pitch": 70,
                "velocity": 64,
                "duration": 0.1840909090909122,
                "tempo": 120.0
            },
            {
                "start_time": 53.32954545454545,
                "end_time": 53.51363636363636,
                "pitch": 62,
                "velocity": 64,
                "duration": 0.18409090909090509,
                "tempo": 120.0
            },
            {
                "start_time": 53.53181818181818,
                "end_time": 53.715909090909086,
                "pitch": 69,
                "velocity": 64,
                "duration": 0.18409090909090509,
                "tempo": 120.0
            },
            {
                "start_time": 53.73181818181818,
                "end_time": 53.91590909090909,
                "pitch": 62,
                "velocity": 64,
                "duration": 0.1840909090909122,
                "tempo": 120.0
            },
            {
                "start_time": 53.93181818181818,
                "end_time": 54.115909090909085,
                "pitch": 65,
                "velocity": 64,
                "duration": 0.18409090909090509,
                "tempo": 120.0
            },
            {
                "start_time": 54.13181818181818,
                "end_time": 54.31590909090909,
                "pitch": 62,
                "velocity": 64,
                "duration": 0.18409090909090509,
                "tempo": 120.0
            },
            {
                "start_time": 54.33181818181818,
                "end_time": 54.51590909090909,
                "pitch": 67,
                "velocity": 64,
                "duration": 0.1840909090909122,
                "tempo": 120.0
            },
            {
                "start_time": 54.53181818181818,
                "end_time": 54.715909090909086,
                "pitch": 55,
                "velocity": 64,
                "duration": 0.18409090909090509,
                "tempo": 120.0
            },
            {
                "start_time": 54.73181818181818,
                "end_time": 54.91590909090909,
                "pitch": 70,
                "velocity": 64,
                "duration": 0.1840909090909122,
                "tempo": 120.0
            },
            {
                "start_time": 54.93181818181818,
                "end_time": 55.115909090909085,
                "pitch": 62,
                "velocity": 64,
                "duration": 0.18409090909090509,
                "tempo": 120.0
            },
            {
                "start_time": 55.131818181818176,
                "end_time": 55.31590909090909,
                "pitch": 69,
                "velocity": 64,
                "duration": 0.1840909090909122,
                "tempo": 120.0
            },
            {
                "start_time": 55.33181818181818,
                "end_time": 55.51590909090909,
                "pitch": 62,
                "velocity": 64,
                "duration": 0.1840909090909122,
                "tempo": 120.0
            },
            {
                "start_time": 55.53409090909091,
                "end_time": 55.71818181818182,
                "pitch": 72,
                "velocity": 64,
                "duration": 0.1840909090909122,
                "tempo": 120.0
            },
            {
                "start_time": 55.73409090909091,
                "end_time": 55.918181818181814,
                "pitch": 69,
                "velocity": 64,
                "duration": 0.18409090909090509,
                "tempo": 120.0
            },
            {
                "start_time": 55.934090909090905,
                "end_time": 56.11818181818182,
                "pitch": 65,
                "velocity": 64,
                "duration": 0.1840909090909122,
                "tempo": 120.0
            },
            {
                "start_time": 56.13409090909091,
                "end_time": 56.31818181818181,
                "pitch": 55,
                "velocity": 64,
                "duration": 0.18409090909090509,
                "tempo": 120.0
            },
            {
                "start_time": 56.334090909090904,
                "end_time": 56.518181818181816,
                "pitch": 70,
                "velocity": 64,
                "duration": 0.1840909090909122,
                "tempo": 120.0
            },
            {
                "start_time": 56.53409090909091,
                "end_time": 56.71818181818182,
                "pitch": 62,
                "velocity": 64,
                "duration": 0.1840909090909122,
                "tempo": 120.0
            },
            {
                "start_time": 56.73409090909091,
                "end_time": 56.918181818181814,
                "pitch": 69,
                "velocity": 64,
                "duration": 0.18409090909090509,
                "tempo": 120.0
            },
            {
                "start_time": 56.934090909090905,
                "end_time": 57.11818181818182,
                "pitch": 62,
                "velocity": 64,
                "duration": 0.1840909090909122,
                "tempo": 120.0
            },
            {
                "start_time": 57.13409090909091,
                "end_time": 57.31818181818181,
                "pitch": 65,
                "velocity": 64,
                "duration": 0.18409090909090509,
                "tempo": 120.0
            },
            {
                "start_time": 57.334090909090904,
                "end_time": 57.52045454545454,
                "pitch": 62,
                "velocity": 64,
                "duration": 0.1863636363636374,
                "tempo": 120.0
            },
            {
                "start_time": 57.53636363636363,
                "end_time": 57.720454545454544,
                "pitch": 67,
                "velocity": 64,
                "duration": 0.1840909090909122,
                "tempo": 120.0
            },
            {
                "start_time": 57.73863636363636,
                "end_time": 57.92045454545454,
                "pitch": 55,
                "velocity": 64,
                "duration": 0.18181818181817988,
                "tempo": 120.0
            },
            {
                "start_time": 57.93863636363636,
                "end_time": 58.12045454545454,
                "pitch": 70,
                "velocity": 64,
                "duration": 0.18181818181817988,
                "tempo": 120.0
            },
            {
                "start_time": 58.13863636363636,
                "end_time": 58.320454545454545,
                "pitch": 62,
                "velocity": 64,
                "duration": 0.18181818181818699,
                "tempo": 120.0
            },
            {
                "start_time": 58.33863636363636,
                "end_time": 58.52045454545454,
                "pitch": 69,
                "velocity": 64,
                "duration": 0.18181818181817988,
                "tempo": 120.0
            },
            {
                "start_time": 58.538636363636364,
                "end_time": 58.720454545454544,
                "pitch": 62,
                "velocity": 64,
                "duration": 0.18181818181817988,
                "tempo": 120.0
            },
            {
                "start_time": 58.73863636363636,
                "end_time": 58.92045454545454,
                "pitch": 72,
                "velocity": 64,
                "duration": 0.18181818181817988,
                "tempo": 120.0
            },
            {
                "start_time": 58.93863636363636,
                "end_time": 59.12045454545454,
                "pitch": 69,
                "velocity": 64,
                "duration": 0.18181818181817988,
                "tempo": 120.0
            },
            {
                "start_time": 59.13863636363636,
                "end_time": 59.320454545454545,
                "pitch": 65,
                "velocity": 64,
                "duration": 0.18181818181818699,
                "tempo": 120.0
            },
            {
                "start_time": 59.33863636363636,
                "end_time": 59.52272727272727,
                "pitch": 55,
                "velocity": 64,
                "duration": 0.1840909090909122,
                "tempo": 120.0
            },
            {
                "start_time": 59.538636363636364,
                "end_time": 59.72272727272727,
                "pitch": 70,
                "velocity": 64,
                "duration": 0.18409090909090509,
                "tempo": 120.0
            },
            {
                "start_time": 59.740909090909085,
                "end_time": 59.92272727272727,
                "pitch": 62,
                "velocity": 64,
                "duration": 0.18181818181818699,
                "tempo": 120.0
            },
            {
                "start_time": 59.94090909090909,
                "end_time": 60.12272727272727,
                "pitch": 69,
                "velocity": 64,
                "duration": 0.18181818181817988,
                "tempo": 120.0
            },
            {
                "start_time": 60.14090909090909,
                "end_time": 60.32272727272727,
                "pitch": 62,
                "velocity": 64,
                "duration": 0.18181818181817988,
                "tempo": 120.0
            },
            {
                "start_time": 60.340909090909086,
                "end_time": 60.522727272727266,
                "pitch": 65,
                "velocity": 64,
                "duration": 0.18181818181817988,
                "tempo": 120.0
            },
            {
                "start_time": 60.54090909090909,
                "end_time": 60.72272727272727,
                "pitch": 62,
                "velocity": 64,
                "duration": 0.18181818181817988,
                "tempo": 120.0
            },
            {
                "start_time": 60.740909090909085,
                "end_time": 60.92272727272727,
                "pitch": 67,
                "velocity": 64,
                "duration": 0.18181818181818699,
                "tempo": 120.0
            },
            {
                "start_time": 60.94090909090909,
                "end_time": 61.12272727272727,
                "pitch": 55,
                "velocity": 64,
                "duration": 0.18181818181817988,
                "tempo": 120.0
            },
            {
                "start_time": 61.14090909090909,
                "end_time": 61.32272727272727,
                "pitch": 70,
                "velocity": 64,
                "duration": 0.18181818181817988,
                "tempo": 120.0
            },
            {
                "start_time": 61.340909090909086,
                "end_time": 61.525,
                "pitch": 62,
                "velocity": 64,
                "duration": 0.1840909090909122,
                "tempo": 120.0
            },
            {
                "start_time": 61.54090909090909,
                "end_time": 61.72727272727273,
                "pitch": 69,
                "velocity": 64,
                "duration": 0.1863636363636374,
                "tempo": 120.0
            },
            {
                "start_time": 61.74318181818182,
                "end_time": 61.92727272727272,
                "pitch": 62,
                "velocity": 64,
                "duration": 0.18409090909090509,
                "tempo": 120.0
            },
            {
                "start_time": 61.94318181818181,
                "end_time": 62.127272727272725,
                "pitch": 72,
                "velocity": 64,
                "duration": 0.1840909090909122,
                "tempo": 120.0
            },
            {
                "start_time": 62.143181818181816,
                "end_time": 62.32727272727272,
                "pitch": 69,
                "velocity": 64,
                "duration": 0.18409090909090509,
                "tempo": 120.0
            },
            {
                "start_time": 62.34318181818182,
                "end_time": 62.527272727272724,
                "pitch": 65,
                "velocity": 64,
                "duration": 0.18409090909090509,
                "tempo": 120.0
            },
            {
                "start_time": 70.55909090909091,
                "end_time": 70.74318181818181,
                "pitch": 55,
                "velocity": 64,
                "duration": 0.18409090909089798,
                "tempo": 120.0
            },
            {
                "start_time": 70.76136363636363,
                "end_time": 70.81136363636364,
                "pitch": 70,
                "velocity": 64,
                "duration": 0.05000000000001137,
                "tempo": 120.0
            }
        ],
        "Electric Guitar (clean)": [
            {
                "start_time": 12.84090909090909,
                "end_time": 13.024999999999999,
                "pitch": 63,
                "velocity": 64,
                "duration": 0.18409090909090864,
                "tempo": 120.0
            },
            {
                "start_time": 13.040909090909091,
                "end_time": 13.227272727272727,
                "pitch": 67,
                "velocity": 64,
                "duration": 0.18636363636363562,
                "tempo": 120.0
            },
            {
                "start_time": 13.243181818181817,
                "end_time": 13.427272727272726,
                "pitch": 70,
                "velocity": 64,
                "duration": 0.18409090909090864,
                "tempo": 120.0
            },
            {
                "start_time": 13.443181818181818,
                "end_time": 13.627272727272727,
                "pitch": 74,
                "velocity": 64,
                "duration": 0.18409090909090864,
                "tempo": 120.0
            },
            {
                "start_time": 13.643181818181818,
                "end_time": 14.431818181818182,
                "pitch": 74,
                "velocity": 64,
                "duration": 0.788636363636364,
                "tempo": 120.0
            },
            {
                "start_time": 14.447727272727272,
                "end_time": 14.634090909090908,
                "pitch": 62,
                "velocity": 64,
                "duration": 0.18636363636363562,
                "tempo": 120.0
            },
            {
                "start_time": 14.649999999999999,
                "end_time": 14.834090909090909,
                "pitch": 65,
                "velocity": 64,
                "duration": 0.18409090909091042,
                "tempo": 120.0
            },
            {
                "start_time": 14.852272727272727,
                "end_time": 15.036363636363635,
                "pitch": 70,
                "velocity": 64,
                "duration": 0.18409090909090864,
                "tempo": 120.0
            },
            {
                "start_time": 15.052272727272726,
                "end_time": 15.236363636363636,
                "pitch": 74,
                "velocity": 64,
                "duration": 0.18409090909091042,
                "tempo": 120.0
            },
            {
                "start_time": 15.254545454545454,
                "end_time": 16.038636363636364,
                "pitch": 74,
                "velocity": 64,
                "duration": 0.7840909090909101,
                "tempo": 120.0
            },
            {
                "start_time": 16.05681818181818,
                "end_time": 16.24090909090909,
                "pitch": 60,
                "velocity": 64,
                "duration": 0.18409090909090864,
                "tempo": 120.0
            },
            {
                "start_time": 16.256818181818183,
                "end_time": 16.443181818181817,
                "pitch": 63,
                "velocity": 64,
                "duration": 0.18636363636363384,
                "tempo": 120.0
            },
            {
                "start_time": 16.459090909090907,
                "end_time": 16.643181818181816,
                "pitch": 71,
                "velocity": 64,
                "duration": 0.18409090909090864,
                "tempo": 120.0
            },
            {
                "start_time": 16.659090909090907,
                "end_time": 16.84318181818182,
                "pitch": 72,
                "velocity": 64,
                "duration": 0.1840909090909122,
                "tempo": 120.0
            },
            {
                "start_time": 16.85909090909091,
                "end_time": 17.645454545454545,
                "pitch": 72,
                "velocity": 64,
                "duration": 0.7863636363636353,
                "tempo": 120.0
            },
            {
                "start_time": 17.661363636363635,
                "end_time": 18.047727272727272,
                "pitch": 46,
                "velocity": 64,
                "duration": 0.3863636363636367,
                "tempo": 120.0
            },
            {
                "start_time": 18.063636363636363,
                "end_time": 18.44772727272727,
                "pitch": 45,
                "velocity": 64,
                "duration": 0.38409090909090793,
                "tempo": 120.0
            },
            {
                "start_time": 18.46363636363636,
                "end_time": 18.847727272727273,
                "pitch": 55,
                "velocity": 64,
                "duration": 0.3840909090909115,
                "tempo": 120.0
            },
            {
                "start_time": 18.863636363636363,
                "end_time": 19.25,
                "pitch": 54,
                "velocity": 64,
                "duration": 0.3863636363636367,
                "tempo": 120.0
            },
            {
                "start_time": 32.10227272727273,
                "end_time": 32.28636363636363,
                "pitch": 63,
                "velocity": 64,
                "duration": 0.18409090909090509,
                "tempo": 120.0
            },
            {
                "start_time": 32.30227272727272,
                "end_time": 32.486363636363635,
                "pitch": 67,
                "velocity": 64,
                "duration": 0.1840909090909122,
                "tempo": 120.0
            },
            {
                "start_time": 32.502272727272725,
                "end_time": 32.68636363636364,
                "pitch": 70,
                "velocity": 64,
                "duration": 0.1840909090909122,
                "tempo": 120.0
            },
            {
                "start_time": 32.70227272727273,
                "end_time": 32.88636363636363,
                "pitch": 74,
                "velocity": 64,
                "duration": 0.18409090909090509,
                "tempo": 120.0
            },
            {
                "start_time": 32.902272727272724,
                "end_time": 33.68863636363636,
                "pitch": 74,
                "velocity": 64,
                "duration": 0.7863636363636388,
                "tempo": 120.0
            },
            {
                "start_time": 33.70454545454545,
                "end_time": 33.888636363636365,
                "pitch": 62,
                "velocity": 64,
                "duration": 0.1840909090909122,
                "tempo": 120.0
            },
            {
                "start_time": 33.904545454545456,
                "end_time": 34.08863636363636,
                "pitch": 65,
                "velocity": 64,
                "duration": 0.18409090909090509,
                "tempo": 120.0
            },
            {
                "start_time": 34.10454545454545,
                "end_time": 34.288636363636364,
                "pitch": 70,
                "velocity": 64,
                "duration": 0.1840909090909122,
                "tempo": 120.0
            },
            {
                "start_time": 34.304545454545455,
                "end_time": 34.48863636363636,
                "pitch": 74,
                "velocity": 64,
                "duration": 0.18409090909090509,
                "tempo": 120.0
            },
            {
                "start_time": 34.50454545454545,
                "end_time": 35.288636363636364,
                "pitch": 74,
                "velocity": 64,
                "duration": 0.7840909090909136,
                "tempo": 120.0
            },
            {
                "start_time": 35.304545454545455,
                "end_time": 35.48863636363636,
                "pitch": 60,
                "velocity": 64,
                "duration": 0.18409090909090509,
                "tempo": 120.0
            },
            {
                "start_time": 35.50681818181818,
                "end_time": 35.69090909090909,
                "pitch": 63,
                "velocity": 64,
                "duration": 0.18409090909090509,
                "tempo": 120.0
            },
            {
                "start_time": 35.70681818181818,
                "end_time": 35.89090909090909,
                "pitch": 71,
                "velocity": 64,
                "duration": 0.1840909090909122,
                "tempo": 120.0
            },
            {
                "start_time": 35.90681818181818,
                "end_time": 36.090909090909086,
                "pitch": 72,
                "velocity": 64,
                "duration": 0.18409090909090509,
                "tempo": 120.0
            },
            {
                "start_time": 36.10681818181818,
                "end_time": 36.89090909090909,
                "pitch": 72,
                "velocity": 64,
                "duration": 0.7840909090909136,
                "tempo": 120.0
            },
            {
                "start_time": 36.90681818181818,
                "end_time": 37.29090909090909,
                "pitch": 46,
                "velocity": 64,
                "duration": 0.38409090909090793,
                "tempo": 120.0
            },
            {
                "start_time": 37.30681818181818,
                "end_time": 37.69318181818181,
                "pitch": 45,
                "velocity": 64,
                "duration": 0.38636363636363313,
                "tempo": 120.0
            },
            {
                "start_time": 37.711363636363636,
                "end_time": 38.09318181818182,
                "pitch": 55,
                "velocity": 64,
                "duration": 0.3818181818181827,
                "tempo": 120.0
            },
            {
                "start_time": 38.111363636363635,
                "end_time": 38.49318181818182,
                "pitch": 54,
                "velocity": 64,
                "duration": 0.3818181818181827,
                "tempo": 120.0
            },
            {
                "start_time": 62.543181818181814,
                "end_time": 62.72727272727273,
                "pitch": 63,
                "velocity": 64,
                "duration": 0.1840909090909122,
                "tempo": 120.0
            },
            {
                "start_time": 62.74318181818182,
                "end_time": 62.92727272727272,
                "pitch": 67,
                "velocity": 64,
                "duration": 0.18409090909090509,
                "tempo": 120.0
            },
            {
                "start_time": 62.94318181818181,
                "end_time": 63.127272727272725,
                "pitch": 70,
                "velocity": 64,
                "duration": 0.1840909090909122,
                "tempo": 120.0
            },
            {
                "start_time": 63.143181818181816,
                "end_time": 63.32727272727272,
                "pitch": 74,
                "velocity": 64,
                "duration": 0.18409090909090509,
                "tempo": 120.0
            },
            {
                "start_time": 63.34318181818181,
                "end_time": 64.12954545454545,
                "pitch": 74,
                "velocity": 64,
                "duration": 0.7863636363636388,
                "tempo": 120.0
            },
            {
                "start_time": 64.14545454545454,
                "end_time": 64.32954545454545,
                "pitch": 62,
                "velocity": 64,
                "duration": 0.1840909090909122,
                "tempo": 120.0
            },
            {
                "start_time": 64.34545454545454,
                "end_time": 64.52954545454546,
                "pitch": 65,
                "velocity": 64,
                "duration": 0.1840909090909122,
                "tempo": 120.0
            },
            {
                "start_time": 64.54545454545455,
                "end_time": 64.72954545454544,
                "pitch": 70,
                "velocity": 64,
                "duration": 0.18409090909089798,
                "tempo": 120.0
            },
            {
                "start_time": 64.74772727272727,
                "end_time": 64.93181818181817,
                "pitch": 74,
                "velocity": 64,
                "duration": 0.18409090909089798,
                "tempo": 120.0
            },
            {
                "start_time": 64.94772727272726,
                "end_time": 65.73409090909091,
                "pitch": 74,
                "velocity": 64,
                "duration": 0.7863636363636459,
                "tempo": 120.0
            },
            {
                "start_time": 65.75227272727273,
                "end_time": 65.93409090909091,
                "pitch": 60,
                "velocity": 64,
                "duration": 0.18181818181818699,
                "tempo": 120.0
            },
            {
                "start_time": 65.95227272727273,
                "end_time": 66.1340909090909,
                "pitch": 63,
                "velocity": 64,
                "duration": 0.18181818181817277,
                "tempo": 120.0
            },
            {
                "start_time": 66.15227272727273,
                "end_time": 66.33636363636363,
                "pitch": 71,
                "velocity": 64,
                "duration": 0.18409090909089798,
                "tempo": 120.0
            },
            {
                "start_time": 66.35227272727272,
                "end_time": 66.53636363636363,
                "pitch": 72,
                "velocity": 64,
                "duration": 0.1840909090909122,
                "tempo": 120.0
            },
            {
                "start_time": 66.55454545454545,
                "end_time": 67.3409090909091,
                "pitch": 72,
                "velocity": 64,
                "duration": 0.7863636363636459,
                "tempo": 120.0
            },
            {
                "start_time": 67.35681818181818,
                "end_time": 67.74318181818181,
                "pitch": 46,
                "velocity": 64,
                "duration": 0.38636363636362603,
                "tempo": 120.0
            },
            {
                "start_time": 67.7590909090909,
                "end_time": 68.14318181818182,
                "pitch": 45,
                "velocity": 64,
                "duration": 0.38409090909091503,
                "tempo": 120.0
            },
            {
                "start_time": 68.1590909090909,
                "end_time": 68.54545454545455,
                "pitch": 55,
                "velocity": 64,
                "duration": 0.38636363636364024,
                "tempo": 120.0
            },
            {
                "start_time": 68.56136363636364,
                "end_time": 68.94772727272726,
                "pitch": 54,
                "velocity": 64,
                "duration": 0.38636363636362603,
                "tempo": 120.0
            },
            {
                "start_time": 68.96363636363635,
                "end_time": 70.14318181818182,
                "pitch": 62,
                "velocity": 64,
                "duration": 1.1795454545454618,
                "tempo": 120.0
            }
        ],
        "Oboe": [
            {
                "start_time": 0.015909090909090907,
                "end_time": 1.5772727272727272,
                "pitch": 43,
                "velocity": 51,
                "duration": 1.5613636363636363,
                "tempo": 120.0
            },
            {
                "start_time": 1.5954545454545455,
                "end_time": 2.7818181818181817,
                "pitch": 43,
                "velocity": 51,
                "duration": 1.1863636363636363,
                "tempo": 120.0
            },
            {
                "start_time": 2.7977272727272724,
                "end_time": 2.9818181818181815,
                "pitch": 43,
                "velocity": 51,
                "duration": 0.18409090909090908,
                "tempo": 120.0
            },
            {
                "start_time": 2.9977272727272726,
                "end_time": 3.1818181818181817,
                "pitch": 38,
                "velocity": 51,
                "duration": 0.18409090909090908,
                "tempo": 120.0
            },
            {
                "start_time": 3.1977272727272728,
                "end_time": 4.786363636363636,
                "pitch": 43,
                "velocity": 51,
                "duration": 1.5886363636363634,
                "tempo": 120.0
            },
            {
                "start_time": 4.802272727272727,
                "end_time": 5.588636363636363,
                "pitch": 43,
                "velocity": 51,
                "duration": 0.7863636363636362,
                "tempo": 120.0
            },
            {
                "start_time": 5.6045454545454545,
                "end_time": 5.788636363636363,
                "pitch": 43,
                "velocity": 51,
                "duration": 0.18409090909090864,
                "tempo": 120.0
            },
            {
                "start_time": 5.804545454545455,
                "end_time": 5.988636363636363,
                "pitch": 51,
                "velocity": 51,
                "duration": 0.18409090909090864,
                "tempo": 120.0
            },
            {
                "start_time": 6.004545454545454,
                "end_time": 6.1909090909090905,
                "pitch": 50,
                "velocity": 51,
                "duration": 0.1863636363636365,
                "tempo": 120.0
            },
            {
                "start_time": 6.206818181818181,
                "end_time": 6.390909090909091,
                "pitch": 46,
                "velocity": 51,
                "duration": 0.18409090909090953,
                "tempo": 120.0
            },
            {
                "start_time": 6.409090909090909,
                "end_time": 6.993181818181818,
                "pitch": 43,
                "velocity": 51,
                "duration": 0.584090909090909,
                "tempo": 120.0
            },
            {
                "start_time": 7.011363636363636,
                "end_time": 7.3954545454545455,
                "pitch": 43,
                "velocity": 51,
                "duration": 0.3840909090909097,
                "tempo": 120.0
            },
            {
                "start_time": 7.411363636363636,
                "end_time": 7.797727272727272,
                "pitch": 43,
                "velocity": 51,
                "duration": 0.3863636363636358,
                "tempo": 120.0
            },
            {
                "start_time": 7.8136363636363635,
                "end_time": 7.997727272727272,
                "pitch": 38,
                "velocity": 51,
                "duration": 0.18409090909090864,
                "tempo": 120.0
            },
            {
                "start_time": 8.013636363636364,
                "end_time": 8.6,
                "pitch": 43,
                "velocity": 51,
                "duration": 0.586363636363636,
                "tempo": 120.0
            },
            {
                "start_time": 8.618181818181817,
                "end_time": 9.004545454545454,
                "pitch": 43,
                "velocity": 51,
                "duration": 0.3863636363636367,
                "tempo": 120.0
            },
            {
                "start_time": 9.020454545454545,
                "end_time": 9.204545454545453,
                "pitch": 51,
                "velocity": 51,
                "duration": 0.18409090909090864,
                "tempo": 120.0
            },
            {
                "start_time": 9.222727272727273,
                "end_time": 9.404545454545454,
                "pitch": 50,
                "velocity": 51,
                "duration": 0.18181818181818166,
                "tempo": 120.0
            },
            {
                "start_time": 9.422727272727272,
                "end_time": 9.604545454545454,
                "pitch": 46,
                "velocity": 51,
                "duration": 0.18181818181818166,
                "tempo": 120.0
            },
            {
                "start_time": 9.622727272727273,
                "end_time": 10.209090909090909,
                "pitch": 43,
                "velocity": 51,
                "duration": 0.586363636363636,
                "tempo": 120.0
            },
            {
                "start_time": 10.225,
                "end_time": 10.611363636363636,
                "pitch": 43,
                "velocity": 51,
                "duration": 0.3863636363636367,
                "tempo": 120.0
            },
            {
                "start_time": 10.627272727272727,
                "end_time": 11.013636363636364,
                "pitch": 43,
                "velocity": 51,
                "duration": 0.3863636363636367,
                "tempo": 120.0
            },
            {
                "start_time": 11.031818181818181,
                "end_time": 11.21590909090909,
                "pitch": 38,
                "velocity": 51,
                "duration": 0.18409090909090864,
                "tempo": 120.0
            },
            {
                "start_time": 11.23181818181818,
                "end_time": 11.81590909090909,
                "pitch": 43,
                "velocity": 51,
                "duration": 0.584090909090909,
                "tempo": 120.0
            },
            {
                "start_time": 11.834090909090909,
                "end_time": 12.220454545454546,
                "pitch": 43,
                "velocity": 51,
                "duration": 0.3863636363636367,
                "tempo": 120.0
            },
            {
                "start_time": 12.236363636363636,
                "end_time": 12.420454545454545,
                "pitch": 51,
                "velocity": 51,
                "duration": 0.18409090909090864,
                "tempo": 120.0
            },
            {
                "start_time": 12.438636363636363,
                "end_time": 12.622727272727271,
                "pitch": 50,
                "velocity": 51,
                "duration": 0.18409090909090864,
                "tempo": 120.0
            },
            {
                "start_time": 12.638636363636364,
                "end_time": 12.822727272727272,
                "pitch": 46,
                "velocity": 51,
                "duration": 0.18409090909090864,
                "tempo": 120.0
            },
            {
                "start_time": 12.84090909090909,
                "end_time": 13.427272727272726,
                "pitch": 39,
                "velocity": 51,
                "duration": 0.586363636363636,
                "tempo": 120.0
            },
            {
                "start_time": 13.443181818181818,
                "end_time": 13.827272727272726,
                "pitch": 39,
                "velocity": 51,
                "duration": 0.38409090909090793,
                "tempo": 120.0
            },
            {
                "start_time": 13.845454545454544,
                "end_time": 14.029545454545454,
                "pitch": 39,
                "velocity": 51,
                "duration": 0.18409090909091042,
                "tempo": 120.0
            },
            {
                "start_time": 14.045454545454545,
                "end_time": 14.229545454545454,
                "pitch": 46,
                "velocity": 51,
                "duration": 0.18409090909090864,
                "tempo": 120.0
            },
            {
                "start_time": 14.247727272727271,
                "end_time": 14.431818181818182,
                "pitch": 45,
                "velocity": 51,
                "duration": 0.18409090909091042,
                "tempo": 120.0
            },
            {
                "start_time": 14.447727272727272,
                "end_time": 15.036363636363635,
                "pitch": 38,
                "velocity": 51,
                "duration": 0.588636363636363,
                "tempo": 120.0
            },
            {
                "start_time": 15.052272727272726,
                "end_time": 15.436363636363636,
                "pitch": 38,
                "velocity": 51,
                "duration": 0.3840909090909097,
                "tempo": 120.0
            },
            {
                "start_time": 15.454545454545453,
                "end_time": 15.636363636363635,
                "pitch": 38,
                "velocity": 51,
                "duration": 0.18181818181818166,
                "tempo": 120.0
            },
            {
                "start_time": 15.654545454545454,
                "end_time": 15.838636363636363,
                "pitch": 46,
                "velocity": 51,
                "duration": 0.18409090909090864,
                "tempo": 120.0
            },
            {
                "start_time": 15.854545454545454,
                "end_time": 16.038636363636364,
                "pitch": 45,
                "velocity": 51,
                "duration": 0.18409090909091042,
                "tempo": 120.0
            },
            {
                "start_time": 16.05681818181818,
                "end_time": 16.643181818181816,
                "pitch": 36,
                "velocity": 51,
                "duration": 0.586363636363636,
                "tempo": 120.0
            },
            {
                "start_time": 16.659090909090907,
                "end_time": 17.043181818181818,
                "pitch": 36,
                "velocity": 51,
                "duration": 0.3840909090909115,
                "tempo": 120.0
            },
            {
                "start_time": 17.061363636363634,
                "end_time": 17.245454545454546,
                "pitch": 36,
                "velocity": 51,
                "duration": 0.1840909090909122,
                "tempo": 120.0
            },
            {
                "start_time": 17.261363636363637,
                "end_time": 17.445454545454545,
                "pitch": 46,
                "velocity": 51,
                "duration": 0.18409090909090864,
                "tempo": 120.0
            },
            {
                "start_time": 17.461363636363636,
                "end_time": 17.645454545454545,
                "pitch": 45,
                "velocity": 51,
                "duration": 0.18409090909090864,
                "tempo": 120.0
            },
            {
                "start_time": 17.661363636363635,
                "end_time": 18.047727272727272,
                "pitch": 34,
                "velocity": 51,
                "duration": 0.3863636363636367,
                "tempo": 120.0
            },
            {
                "start_time": 18.063636363636363,
                "end_time": 18.44772727272727,
                "pitch": 33,
                "velocity": 51,
                "duration": 0.38409090909090793,
                "tempo": 120.0
            },
            {
                "start_time": 18.46363636363636,
                "end_time": 18.847727272727273,
                "pitch": 43,
                "velocity": 51,
                "duration": 0.3840909090909115,
                "tempo": 120.0
            },
            {
                "start_time": 18.863636363636363,
                "end_time": 19.25,
                "pitch": 42,
                "velocity": 51,
                "duration": 0.3863636363636367,
                "tempo": 120.0
            },
            {
                "start_time": 19.268181818181816,
                "end_time": 20.852272727272727,
                "pitch": 43,
                "velocity": 51,
                "duration": 1.5840909090909108,
                "tempo": 120.0
            },
            {
                "start_time": 20.870454545454546,
                "end_time": 22.05909090909091,
                "pitch": 43,
                "velocity": 51,
                "duration": 1.1886363636363626,
                "tempo": 120.0
            },
            {
                "start_time": 22.075,
                "end_time": 22.259090909090908,
                "pitch": 43,
                "velocity": 51,
                "duration": 0.18409090909090864,
                "tempo": 120.0
            },
            {
                "start_time": 22.275,
                "end_time": 22.459090909090907,
                "pitch": 38,
                "velocity": 51,
                "duration": 0.18409090909090864,
                "tempo": 120.0
            },
            {
                "start_time": 22.474999999999998,
                "end_time": 24.063636363636363,
                "pitch": 43,
                "velocity": 51,
                "duration": 1.5886363636363647,
                "tempo": 120.0
            },
            {
                "start_time": 24.081818181818182,
                "end_time": 24.863636363636363,
                "pitch": 43,
                "velocity": 51,
                "duration": 0.7818181818181813,
                "tempo": 120.0
            },
            {
                "start_time": 24.88181818181818,
                "end_time": 25.06590909090909,
                "pitch": 43,
                "velocity": 51,
                "duration": 0.1840909090909122,
                "tempo": 120.0
            },
            {
                "start_time": 25.081818181818182,
                "end_time": 25.26590909090909,
                "pitch": 51,
                "velocity": 51,
                "duration": 0.18409090909090864,
                "tempo": 120.0
            },
            {
                "start_time": 25.284090909090907,
                "end_time": 25.46590909090909,
                "pitch": 50,
                "velocity": 51,
                "duration": 0.18181818181818343,
                "tempo": 120.0
            },
            {
                "start_time": 25.48409090909091,
                "end_time": 25.66590909090909,
                "pitch": 46,
                "velocity": 51,
                "duration": 0.18181818181817988,
                "tempo": 120.0
            },
            {
                "start_time": 25.68409090909091,
                "end_time": 26.270454545454545,
                "pitch": 43,
                "velocity": 51,
                "duration": 0.586363636363636,
                "tempo": 120.0
            },
            {
                "start_time": 26.286363636363635,
                "end_time": 26.670454545454543,
                "pitch": 43,
                "velocity": 51,
                "duration": 0.38409090909090793,
                "tempo": 120.0
            },
            {
                "start_time": 26.686363636363634,
                "end_time": 27.070454545454545,
                "pitch": 43,
                "velocity": 51,
                "duration": 0.3840909090909115,
                "tempo": 120.0
            },
            {
                "start_time": 27.086363636363636,
                "end_time": 27.27272727272727,
                "pitch": 38,
                "velocity": 51,
                "duration": 0.18636363636363384,
                "tempo": 120.0
            },
            {
                "start_time": 27.288636363636364,
                "end_time": 27.87272727272727,
                "pitch": 43,
                "velocity": 51,
                "duration": 0.5840909090909072,
                "tempo": 120.0
            },
            {
                "start_time": 27.89090909090909,
                "end_time": 28.275,
                "pitch": 43,
                "velocity": 51,
                "duration": 0.38409090909090793,
                "tempo": 120.0
            },
            {
                "start_time": 28.29090909090909,
                "end_time": 28.474999999999998,
                "pitch": 51,
                "velocity": 51,
                "duration": 0.18409090909090864,
                "tempo": 120.0
            },
            {
                "start_time": 28.49090909090909,
                "end_time": 28.674999999999997,
                "pitch": 50,
                "velocity": 51,
                "duration": 0.18409090909090864,
                "tempo": 120.0
            },
            {
                "start_time": 28.690909090909088,
                "end_time": 28.875,
                "pitch": 46,
                "velocity": 51,
                "duration": 0.1840909090909122,
                "tempo": 120.0
            },
            {
                "start_time": 28.89090909090909,
                "end_time": 29.477272727272727,
                "pitch": 43,
                "velocity": 51,
                "duration": 0.586363636363636,
                "tempo": 120.0
            },
            {
                "start_time": 29.493181818181817,
                "end_time": 29.879545454545454,
                "pitch": 43,
                "velocity": 51,
                "duration": 0.3863636363636367,
                "tempo": 120.0
            },
            {
                "start_time": 29.895454545454545,
                "end_time": 30.279545454545453,
                "pitch": 43,
                "velocity": 51,
                "duration": 0.38409090909090793,
                "tempo": 120.0
            },
            {
                "start_time": 30.297727272727272,
                "end_time": 30.479545454545452,
                "pitch": 38,
                "velocity": 51,
                "duration": 0.18181818181817988,
                "tempo": 120.0
            },
            {
                "start_time": 30.49772727272727,
                "end_time": 31.081818181818182,
                "pitch": 43,
                "velocity": 51,
                "duration": 0.5840909090909108,
                "tempo": 120.0
            },
            {
                "start_time": 31.097727272727273,
                "end_time": 31.48181818181818,
                "pitch": 43,
                "velocity": 51,
                "duration": 0.38409090909090793,
                "tempo": 120.0
            },
            {
                "start_time": 31.5,
                "end_time": 31.68181818181818,
                "pitch": 51,
                "velocity": 51,
                "duration": 0.18181818181817988,
                "tempo": 120.0
            },
            {
                "start_time": 31.7,
                "end_time": 31.884090909090908,
                "pitch": 50,
                "velocity": 51,
                "duration": 0.18409090909090864,
                "tempo": 120.0
            },
            {
                "start_time": 31.9,
                "end_time": 32.086363636363636,
                "pitch": 46,
                "velocity": 51,
                "duration": 0.1863636363636374,
                "tempo": 120.0
            },
            {
                "start_time": 32.10227272727273,
                "end_time": 32.68636363636364,
                "pitch": 39,
                "velocity": 51,
                "duration": 0.5840909090909108,
                "tempo": 120.0
            },
            {
                "start_time": 32.70227272727273,
                "end_time": 33.086363636363636,
                "pitch": 39,
                "velocity": 51,
                "duration": 0.38409090909090793,
                "tempo": 120.0
            },
            {
                "start_time": 33.10227272727273,
                "end_time": 33.28636363636363,
                "pitch": 39,
                "velocity": 51,
                "duration": 0.18409090909090509,
                "tempo": 120.0
            },
            {
                "start_time": 33.30227272727272,
                "end_time": 33.486363636363635,
                "pitch": 46,
                "velocity": 51,
                "duration": 0.1840909090909122,
                "tempo": 120.0
            },
            {
                "start_time": 33.50454545454545,
                "end_time": 33.68863636363636,
                "pitch": 45,
                "velocity": 51,
                "duration": 0.1840909090909122,
                "tempo": 120.0
            },
            {
                "start_time": 33.70454545454545,
                "end_time": 34.288636363636364,
                "pitch": 38,
                "velocity": 51,
                "duration": 0.5840909090909108,
                "tempo": 120.0
            },
            {
                "start_time": 34.304545454545455,
                "end_time": 34.68863636363636,
                "pitch": 38,
                "velocity": 51,
                "duration": 0.38409090909090793,
                "tempo": 120.0
            },
            {
                "start_time": 34.70454545454545,
                "end_time": 34.888636363636365,
                "pitch": 38,
                "velocity": 51,
                "duration": 0.1840909090909122,
                "tempo": 120.0
            },
            {
                "start_time": 34.904545454545456,
                "end_time": 35.08863636363636,
                "pitch": 46,
                "velocity": 51,
                "duration": 0.18409090909090509,
                "tempo": 120.0
            },
            {
                "start_time": 35.10454545454545,
                "end_time": 35.288636363636364,
                "pitch": 45,
                "velocity": 51,
                "duration": 0.1840909090909122,
                "tempo": 120.0
            },
            {
                "start_time": 35.304545454545455,
                "end_time": 35.89090909090909,
                "pitch": 36,
                "velocity": 51,
                "duration": 0.586363636363636,
                "tempo": 120.0
            },
            {
                "start_time": 35.90681818181818,
                "end_time": 36.29090909090909,
                "pitch": 36,
                "velocity": 51,
                "duration": 0.38409090909090793,
                "tempo": 120.0
            },
            {
                "start_time": 36.30681818181818,
                "end_time": 36.49090909090909,
                "pitch": 36,
                "velocity": 51,
                "duration": 0.1840909090909122,
                "tempo": 120.0
            },
            {
                "start_time": 36.50681818181818,
                "end_time": 36.69090909090909,
                "pitch": 46,
                "velocity": 51,
                "duration": 0.18409090909090509,
                "tempo": 120.0
            },
            {
                "start_time": 36.70681818181818,
                "end_time": 36.89090909090909,
                "pitch": 45,
                "velocity": 51,
                "duration": 0.1840909090909122,
                "tempo": 120.0
            },
            {
                "start_time": 36.90681818181818,
                "end_time": 37.29090909090909,
                "pitch": 34,
                "velocity": 51,
                "duration": 0.38409090909090793,
                "tempo": 120.0
            },
            {
                "start_time": 37.30681818181818,
                "end_time": 37.69318181818181,
                "pitch": 33,
                "velocity": 51,
                "duration": 0.38636363636363313,
                "tempo": 120.0
            },
            {
                "start_time": 37.711363636363636,
                "end_time": 38.09318181818182,
                "pitch": 43,
                "velocity": 51,
                "duration": 0.3818181818181827,
                "tempo": 120.0
            },
            {
                "start_time": 38.111363636363635,
                "end_time": 38.49318181818182,
                "pitch": 42,
                "velocity": 51,
                "duration": 0.3818181818181827,
                "tempo": 120.0
            },
            {
                "start_time": 38.51136363636363,
                "end_time": 39.09318181818182,
                "pitch": 43,
                "velocity": 51,
                "duration": 0.5818181818181856,
                "tempo": 120.0
            },
            {
                "start_time": 39.111363636363635,
                "end_time": 39.293181818181814,
                "pitch": 43,
                "velocity": 51,
                "duration": 0.18181818181817988,
                "tempo": 120.0
            },
            {
                "start_time": 39.31136363636364,
                "end_time": 39.56136363636364,
                "pitch": 51,
                "velocity": 51,
                "duration": 0.25,
                "tempo": 120.0
            },
            {
                "start_time": 39.57954545454545,
                "end_time": 39.82954545454545,
                "pitch": 50,
                "velocity": 51,
                "duration": 0.25,
                "tempo": 120.0
            },
            {
                "start_time": 39.845454545454544,
                "end_time": 40.095454545454544,
                "pitch": 46,
                "velocity": 51,
                "duration": 0.25,
                "tempo": 120.0
            },
            {
                "start_time": 40.11363636363636,
                "end_time": 40.695454545454545,
                "pitch": 39,
                "velocity": 51,
                "duration": 0.5818181818181856,
                "tempo": 120.0
            },
            {
                "start_time": 40.71363636363636,
                "end_time": 40.89545454545454,
                "pitch": 39,
                "velocity": 51,
                "duration": 0.18181818181817988,
                "tempo": 120.0
            },
            {
                "start_time": 40.913636363636364,
                "end_time": 41.163636363636364,
                "pitch": 51,
                "velocity": 51,
                "duration": 0.25,
                "tempo": 120.0
            },
            {
                "start_time": 41.179545454545455,
                "end_time": 41.42727272727272,
                "pitch": 50,
                "velocity": 51,
                "duration": 0.2477272727272677,
                "tempo": 120.0
            },
            {
                "start_time": 41.44318181818181,
                "end_time": 41.68863636363636,
                "pitch": 46,
                "velocity": 51,
                "duration": 0.2454545454545496,
                "tempo": 120.0
            },
            {
                "start_time": 41.70454545454545,
                "end_time": 42.3,
                "pitch": 41,
                "velocity": 51,
                "duration": 0.5954545454545439,
                "tempo": 120.0
            },
            {
                "start_time": 42.31590909090909,
                "end_time": 42.5,
                "pitch": 41,
                "velocity": 51,
                "duration": 0.1840909090909122,
                "tempo": 120.0
            },
            {
                "start_time": 42.51590909090909,
                "end_time": 42.76590909090909,
                "pitch": 51,
                "velocity": 51,
                "duration": 0.25,
                "tempo": 120.0
            },
            {
                "start_time": 42.78181818181818,
                "end_time": 43.03181818181818,
                "pitch": 50,
                "velocity": 51,
                "duration": 0.25,
                "tempo": 120.0
            },
            {
                "start_time": 43.05,
                "end_time": 43.3,
                "pitch": 46,
                "velocity": 51,
                "duration": 0.25,
                "tempo": 120.0
            },
            {
                "start_time": 43.31590909090909,
                "end_time": 43.70227272727273,
                "pitch": 38,
                "velocity": 51,
                "duration": 0.38636363636364024,
                "tempo": 120.0
            },
            {
                "start_time": 43.918181818181814,
                "end_time": 44.10227272727273,
                "pitch": 38,
                "velocity": 51,
                "duration": 0.1840909090909122,
                "tempo": 120.0
            },
            {
                "start_time": 44.11818181818182,
                "end_time": 44.36818181818182,
                "pitch": 51,
                "velocity": 51,
                "duration": 0.25,
                "tempo": 120.0
            },
            {
                "start_time": 44.38409090909091,
                "end_time": 44.63409090909091,
                "pitch": 50,
                "velocity": 51,
                "duration": 0.25,
                "tempo": 120.0
            },
            {
                "start_time": 44.652272727272724,
                "end_time": 44.902272727272724,
                "pitch": 46,
                "velocity": 51,
                "duration": 0.25,
                "tempo": 120.0
            },
            {
                "start_time": 44.918181818181814,
                "end_time": 45.502272727272725,
                "pitch": 43,
                "velocity": 51,
                "duration": 0.5840909090909108,
                "tempo": 120.0
            },
            {
                "start_time": 45.52045454545454,
                "end_time": 45.70454545454545,
                "pitch": 43,
                "velocity": 51,
                "duration": 0.1840909090909122,
                "tempo": 120.0
            },
            {
                "start_time": 45.720454545454544,
                "end_time": 45.970454545454544,
                "pitch": 51,
                "velocity": 51,
                "duration": 0.25,
                "tempo": 120.0
            },
            {
                "start_time": 45.98863636363636,
                "end_time": 46.23863636363636,
                "pitch": 50,
                "velocity": 51,
                "duration": 0.25,
                "tempo": 120.0
            },
            {
                "start_time": 46.25454545454545,
                "end_time": 46.50454545454545,
                "pitch": 46,
                "velocity": 51,
                "duration": 0.25,
                "tempo": 120.0
            },
            {
                "start_time": 46.52045454545454,
                "end_time": 47.099999999999994,
                "pitch": 39,
                "velocity": 51,
                "duration": 0.5795454545454533,
                "tempo": 120.0
            },
            {
                "start_time": 47.11818181818182,
                "end_time": 47.29772727272727,
                "pitch": 39,
                "velocity": 51,
                "duration": 0.17954545454545467,
                "tempo": 120.0
            },
            {
                "start_time": 47.31363636363636,
                "end_time": 47.570454545454545,
                "pitch": 51,
                "velocity": 51,
                "duration": 0.2568181818181827,
                "tempo": 120.0
            },
            {
                "start_time": 47.586363636363636,
                "end_time": 47.840909090909086,
                "pitch": 50,
                "velocity": 51,
                "duration": 0.2545454545454504,
                "tempo": 120.0
            },
            {
                "start_time": 47.85681818181818,
                "end_time": 48.10681818181818,
                "pitch": 46,
                "velocity": 51,
                "duration": 0.25,
                "tempo": 120.0
            },
            {
                "start_time": 48.125,
                "end_time": 48.70681818181818,
                "pitch": 41,
                "velocity": 51,
                "duration": 0.5818181818181785,
                "tempo": 120.0
            },
            {
                "start_time": 48.724999999999994,
                "end_time": 48.90681818181818,
                "pitch": 41,
                "velocity": 51,
                "duration": 0.18181818181818699,
                "tempo": 120.0
            },
            {
                "start_time": 48.925,
                "end_time": 49.175,
                "pitch": 51,
                "velocity": 51,
                "duration": 0.25,
                "tempo": 120.0
            },
            {
                "start_time": 49.19090909090909,
                "end_time": 49.43863636363636,
                "pitch": 50,
                "velocity": 51,
                "duration": 0.2477272727272748,
                "tempo": 120.0
            },
            {
                "start_time": 49.45454545454545,
                "end_time": 49.699999999999996,
                "pitch": 46,
                "velocity": 51,
                "duration": 0.24545454545454248,
                "tempo": 120.0
            },
            {
                "start_time": 49.715909090909086,
                "end_time": 51.31136363636364,
                "pitch": 43,
                "velocity": 51,
                "duration": 1.595454545454551,
                "tempo": 120.0
            },
            {
                "start_time": 51.32727272727273,
                "end_time": 52.51363636363636,
                "pitch": 43,
                "velocity": 51,
                "duration": 1.1863636363636303,
                "tempo": 120.0
            },
            {
                "start_time": 52.52954545454545,
                "end_time": 52.71363636363636,
                "pitch": 43,
                "velocity": 51,
                "duration": 0.1840909090909122,
                "tempo": 120.0
            },
            {
                "start_time": 52.72954545454545,
                "end_time": 52.913636363636364,
                "pitch": 38,
                "velocity": 51,
                "duration": 0.1840909090909122,
                "tempo": 120.0
            },
            {
                "start_time": 52.929545454545455,
                "end_time": 54.51590909090909,
                "pitch": 43,
                "velocity": 51,
                "duration": 1.586363636363636,
                "tempo": 120.0
            },
            {
                "start_time": 54.53181818181818,
                "end_time": 55.31590909090909,
                "pitch": 43,
                "velocity": 51,
                "duration": 0.7840909090909065,
                "tempo": 120.0
            },
            {
                "start_time": 55.33181818181818,
                "end_time": 55.51590909090909,
                "pitch": 43,
                "velocity": 51,
                "duration": 0.1840909090909122,
                "tempo": 120.0
            },
            {
                "start_time": 55.53409090909091,
                "end_time": 55.71818181818182,
                "pitch": 51,
                "velocity": 51,
                "duration": 0.1840909090909122,
                "tempo": 120.0
            },
            {
                "start_time": 55.73409090909091,
                "end_time": 55.918181818181814,
                "pitch": 50,
                "velocity": 51,
                "duration": 0.18409090909090509,
                "tempo": 120.0
            },
            {
                "start_time": 55.934090909090905,
                "end_time": 56.11818181818182,
                "pitch": 46,
                "velocity": 51,
                "duration": 0.1840909090909122,
                "tempo": 120.0
            },
            {
                "start_time": 56.13409090909091,
                "end_time": 56.71818181818182,
                "pitch": 43,
                "velocity": 51,
                "duration": 0.5840909090909108,
                "tempo": 120.0
            },
            {
                "start_time": 56.73409090909091,
                "end_time": 57.11818181818182,
                "pitch": 43,
                "velocity": 51,
                "duration": 0.38409090909090793,
                "tempo": 120.0
            },
            {
                "start_time": 57.13409090909091,
                "end_time": 57.52045454545454,
                "pitch": 43,
                "velocity": 51,
                "duration": 0.38636363636363313,
                "tempo": 120.0
            },
            {
                "start_time": 57.53636363636363,
                "end_time": 57.720454545454544,
                "pitch": 38,
                "velocity": 51,
                "duration": 0.1840909090909122,
                "tempo": 120.0
            },
            {
                "start_time": 57.73863636363636,
                "end_time": 58.320454545454545,
                "pitch": 43,
                "velocity": 51,
                "duration": 0.5818181818181856,
                "tempo": 120.0
            },
            {
                "start_time": 58.33863636363636,
                "end_time": 58.720454545454544,
                "pitch": 43,
                "velocity": 51,
                "duration": 0.3818181818181827,
                "tempo": 120.0
            },
            {
                "start_time": 58.73863636363636,
                "end_time": 58.92045454545454,
                "pitch": 51,
                "velocity": 51,
                "duration": 0.18181818181817988,
                "tempo": 120.0
            },
            {
                "start_time": 58.93863636363636,
                "end_time": 59.12045454545454,
                "pitch": 50,
                "velocity": 51,
                "duration": 0.18181818181817988,
                "tempo": 120.0
            },
            {
                "start_time": 59.13863636363636,
                "end_time": 59.320454545454545,
                "pitch": 46,
                "velocity": 51,
                "duration": 0.18181818181818699,
                "tempo": 120.0
            },
            {
                "start_time": 59.33863636363636,
                "end_time": 59.92272727272727,
                "pitch": 43,
                "velocity": 51,
                "duration": 0.5840909090909108,
                "tempo": 120.0
            },
            {
                "start_time": 59.94090909090909,
                "end_time": 60.32272727272727,
                "pitch": 43,
                "velocity": 51,
                "duration": 0.3818181818181827,
                "tempo": 120.0
            },
            {
                "start_time": 60.340909090909086,
                "end_time": 60.72272727272727,
                "pitch": 43,
                "velocity": 51,
                "duration": 0.3818181818181827,
                "tempo": 120.0
            },
            {
                "start_time": 60.740909090909085,
                "end_time": 60.92272727272727,
                "pitch": 38,
                "velocity": 51,
                "duration": 0.18181818181818699,
                "tempo": 120.0
            },
            {
                "start_time": 60.94090909090909,
                "end_time": 61.525,
                "pitch": 43,
                "velocity": 51,
                "duration": 0.5840909090909108,
                "tempo": 120.0
            },
            {
                "start_time": 61.54090909090909,
                "end_time": 61.92727272727272,
                "pitch": 43,
                "velocity": 51,
                "duration": 0.38636363636363313,
                "tempo": 120.0
            },
            {
                "start_time": 61.94318181818181,
                "end_time": 62.127272727272725,
                "pitch": 51,
                "velocity": 51,
                "duration": 0.1840909090909122,
                "tempo": 120.0
            },
            {
                "start_time": 62.143181818181816,
                "end_time": 62.32727272727272,
                "pitch": 50,
                "velocity": 51,
                "duration": 0.18409090909090509,
                "tempo": 120.0
            },
            {
                "start_time": 62.34318181818182,
                "end_time": 62.527272727272724,
                "pitch": 46,
                "velocity": 51,
                "duration": 0.18409090909090509,
                "tempo": 120.0
            },
            {
                "start_time": 62.543181818181814,
                "end_time": 63.127272727272725,
                "pitch": 39,
                "velocity": 51,
                "duration": 0.5840909090909108,
                "tempo": 120.0
            },
            {
                "start_time": 63.143181818181816,
                "end_time": 63.527272727272724,
                "pitch": 39,
                "velocity": 51,
                "duration": 0.38409090909090793,
                "tempo": 120.0
            },
            {
                "start_time": 63.54545454545454,
                "end_time": 63.72954545454545,
                "pitch": 39,
                "velocity": 51,
                "duration": 0.1840909090909122,
                "tempo": 120.0
            },
            {
                "start_time": 63.74545454545454,
                "end_time": 63.929545454545455,
                "pitch": 46,
                "velocity": 51,
                "duration": 0.1840909090909122,
                "tempo": 120.0
            },
            {
                "start_time": 63.945454545454545,
                "end_time": 64.12954545454545,
                "pitch": 45,
                "velocity": 51,
                "duration": 0.18409090909090509,
                "tempo": 120.0
            },
            {
                "start_time": 64.14545454545454,
                "end_time": 64.72954545454544,
                "pitch": 38,
                "velocity": 51,
                "duration": 0.5840909090909037,
                "tempo": 120.0
            },
            {
                "start_time": 64.74772727272727,
                "end_time": 65.13181818181818,
                "pitch": 38,
                "velocity": 51,
                "duration": 0.3840909090909008,
                "tempo": 120.0
            },
            {
                "start_time": 65.14772727272727,
                "end_time": 65.33181818181818,
                "pitch": 38,
                "velocity": 51,
                "duration": 0.1840909090909122,
                "tempo": 120.0
            },
            {
                "start_time": 65.34772727272727,
                "end_time": 65.5340909090909,
                "pitch": 46,
                "velocity": 51,
                "duration": 0.1863636363636374,
                "tempo": 120.0
            },
            {
                "start_time": 65.55,
                "end_time": 65.73409090909091,
                "pitch": 45,
                "velocity": 51,
                "duration": 0.1840909090909122,
                "tempo": 120.0
            },
            {
                "start_time": 65.75227272727273,
                "end_time": 66.33636363636363,
                "pitch": 36,
                "velocity": 51,
                "duration": 0.5840909090909037,
                "tempo": 120.0
            },
            {
                "start_time": 66.35227272727272,
                "end_time": 66.73863636363636,
                "pitch": 36,
                "velocity": 51,
                "duration": 0.38636363636364024,
                "tempo": 120.0
            },
            {
                "start_time": 66.75454545454545,
                "end_time": 66.94090909090909,
                "pitch": 36,
                "velocity": 51,
                "duration": 0.1863636363636374,
                "tempo": 120.0
            },
            {
                "start_time": 66.95681818181818,
                "end_time": 67.14090909090909,
                "pitch": 46,
                "velocity": 51,
                "duration": 0.1840909090909122,
                "tempo": 120.0
            },
            {
                "start_time": 67.15681818181818,
                "end_time": 67.3409090909091,
                "pitch": 45,
                "velocity": 51,
                "duration": 0.1840909090909122,
                "tempo": 120.0
            },
            {
                "start_time": 67.35681818181818,
                "end_time": 67.74318181818181,
                "pitch": 34,
                "velocity": 51,
                "duration": 0.38636363636362603,
                "tempo": 120.0
            },
            {
                "start_time": 67.7590909090909,
                "end_time": 68.14318181818182,
                "pitch": 33,
                "velocity": 51,
                "duration": 0.38409090909091503,
                "tempo": 120.0
            },
            {
                "start_time": 68.1590909090909,
                "end_time": 68.54545454545455,
                "pitch": 43,
                "velocity": 51,
                "duration": 0.38636363636364024,
                "tempo": 120.0
            },
            {
                "start_time": 68.56136363636364,
                "end_time": 68.94772727272726,
                "pitch": 42,
                "velocity": 51,
                "duration": 0.38636363636362603,
                "tempo": 120.0
            },
            {
                "start_time": 68.96363636363635,
                "end_time": 70.14318181818182,
                "pitch": 43,
                "velocity": 51,
                "duration": 1.1795454545454618,
                "tempo": 120.0
            },
            {
                "start_time": 70.55909090909091,
                "end_time": 70.81136363636364,
                "pitch": 43,
                "velocity": 51,
                "duration": 0.2522727272727252,
                "tempo": 120.0
            }
        ],
        "Harpsichord": [
            {
                "start_time": 6.409090909090909,
                "end_time": 6.593181818181818,
                "pitch": 55,
                "velocity": 80,
                "duration": 0.18409090909090864,
                "tempo": 120.0
            },
            {
                "start_time": 6.6090909090909085,
                "end_time": 6.793181818181818,
                "pitch": 74,
                "velocity": 80,
                "duration": 0.18409090909090953,
                "tempo": 120.0
            },
            {
                "start_time": 6.811363636363636,
                "end_time": 6.993181818181818,
                "pitch": 67,
                "velocity": 80,
                "duration": 0.18181818181818254,
                "tempo": 120.0
            },
            {
                "start_time": 7.011363636363636,
                "end_time": 7.1931818181818175,
                "pitch": 72,
                "velocity": 80,
                "duration": 0.18181818181818166,
                "tempo": 120.0
            },
            {
                "start_time": 7.211363636363636,
                "end_time": 7.3954545454545455,
                "pitch": 67,
                "velocity": 80,
                "duration": 0.18409090909090953,
                "tempo": 120.0
            },
            {
                "start_time": 7.411363636363636,
                "end_time": 7.597727272727273,
                "pitch": 69,
                "velocity": 80,
                "duration": 0.1863636363636365,
                "tempo": 120.0
            },
            {
                "start_time": 7.613636363636363,
                "end_time": 7.797727272727272,
                "pitch": 67,
                "velocity": 80,
                "duration": 0.18409090909090864,
                "tempo": 120.0
            },
            {
                "start_time": 7.8136363636363635,
                "end_time": 7.997727272727272,
                "pitch": 70,
                "velocity": 80,
                "duration": 0.18409090909090864,
                "tempo": 120.0
            },
            {
                "start_time": 8.013636363636364,
                "end_time": 8.197727272727272,
                "pitch": 55,
                "velocity": 80,
                "duration": 0.18409090909090864,
                "tempo": 120.0
            },
            {
                "start_time": 8.21590909090909,
                "end_time": 8.4,
                "pitch": 74,
                "velocity": 80,
                "duration": 0.18409090909091042,
                "tempo": 120.0
            },
            {
                "start_time": 8.415909090909091,
                "end_time": 8.6,
                "pitch": 67,
                "velocity": 80,
                "duration": 0.18409090909090864,
                "tempo": 120.0
            },
            {
                "start_time": 8.618181818181817,
                "end_time": 8.802272727272728,
                "pitch": 72,
                "velocity": 80,
                "duration": 0.18409090909091042,
                "tempo": 120.0
            },
            {
                "start_time": 8.818181818181818,
                "end_time": 9.004545454545454,
                "pitch": 67,
                "velocity": 80,
                "duration": 0.18636363636363562,
                "tempo": 120.0
            },
            {
                "start_time": 9.020454545454545,
                "end_time": 9.204545454545453,
                "pitch": 75,
                "velocity": 80,
                "duration": 0.18409090909090864,
                "tempo": 120.0
            },
            {
                "start_time": 9.222727272727273,
                "end_time": 9.404545454545454,
                "pitch": 74,
                "velocity": 80,
                "duration": 0.18181818181818166,
                "tempo": 120.0
            },
            {
                "start_time": 9.422727272727272,
                "end_time": 9.604545454545454,
                "pitch": 69,
                "velocity": 80,
                "duration": 0.18181818181818166,
                "tempo": 120.0
            },
            {
                "start_time": 9.622727272727273,
                "end_time": 9.806818181818182,
                "pitch": 55,
                "velocity": 80,
                "duration": 0.18409090909090864,
                "tempo": 120.0
            },
            {
                "start_time": 9.822727272727272,
                "end_time": 10.006818181818181,
                "pitch": 74,
                "velocity": 80,
                "duration": 0.18409090909090864,
                "tempo": 120.0
            },
            {
                "start_time": 10.025,
                "end_time": 10.209090909090909,
                "pitch": 67,
                "velocity": 80,
                "duration": 0.18409090909090864,
                "tempo": 120.0
            },
            {
                "start_time": 10.225,
                "end_time": 10.409090909090908,
                "pitch": 72,
                "velocity": 80,
                "duration": 0.18409090909090864,
                "tempo": 120.0
            },
            {
                "start_time": 10.427272727272726,
                "end_time": 10.611363636363636,
                "pitch": 67,
                "velocity": 80,
                "duration": 0.18409090909091042,
                "tempo": 120.0
            },
            {
                "start_time": 10.627272727272727,
                "end_time": 10.813636363636363,
                "pitch": 69,
                "velocity": 80,
                "duration": 0.18636363636363562,
                "tempo": 120.0
            },
            {
                "start_time": 10.829545454545453,
                "end_time": 11.013636363636364,
                "pitch": 67,
                "velocity": 80,
                "duration": 0.18409090909091042,
                "tempo": 120.0
            },
            {
                "start_time": 11.031818181818181,
                "end_time": 11.21590909090909,
                "pitch": 70,
                "velocity": 80,
                "duration": 0.18409090909090864,
                "tempo": 120.0
            },
            {
                "start_time": 11.23181818181818,
                "end_time": 11.415909090909091,
                "pitch": 55,
                "velocity": 80,
                "duration": 0.18409090909091042,
                "tempo": 120.0
            },
            {
                "start_time": 11.431818181818182,
                "end_time": 11.61590909090909,
                "pitch": 74,
                "velocity": 80,
                "duration": 0.18409090909090864,
                "tempo": 120.0
            },
            {
                "start_time": 11.631818181818181,
                "end_time": 11.81590909090909,
                "pitch": 67,
                "velocity": 80,
                "duration": 0.18409090909090864,
                "tempo": 120.0
            },
            {
                "start_time": 11.834090909090909,
                "end_time": 12.018181818181818,
                "pitch": 72,
                "velocity": 80,
                "duration": 0.18409090909090864,
                "tempo": 120.0
            },
            {
                "start_time": 12.034090909090908,
                "end_time": 12.220454545454546,
                "pitch": 67,
                "velocity": 80,
                "duration": 0.1863636363636374,
                "tempo": 120.0
            },
            {
                "start_time": 12.236363636363636,
                "end_time": 12.420454545454545,
                "pitch": 75,
                "velocity": 80,
                "duration": 0.18409090909090864,
                "tempo": 120.0
            },
            {
                "start_time": 12.438636363636363,
                "end_time": 12.622727272727271,
                "pitch": 74,
                "velocity": 80,
                "duration": 0.18409090909090864,
                "tempo": 120.0
            },
            {
                "start_time": 12.638636363636364,
                "end_time": 12.822727272727272,
                "pitch": 69,
                "velocity": 80,
                "duration": 0.18409090909090864,
                "tempo": 120.0
            },
            {
                "start_time": 12.84090909090909,
                "end_time": 14.431818181818182,
                "pitch": 58,
                "velocity": 80,
                "duration": 1.5909090909090917,
                "tempo": 120.0
            },
            {
                "start_time": 14.447727272727272,
                "end_time": 16.038636363636364,
                "pitch": 57,
                "velocity": 80,
                "duration": 1.5909090909090917,
                "tempo": 120.0
            },
            {
                "start_time": 16.05681818181818,
                "end_time": 17.645454545454545,
                "pitch": 55,
                "velocity": 80,
                "duration": 1.5886363636363647,
                "tempo": 120.0
            },
            {
                "start_time": 17.661363636363635,
                "end_time": 17.779545454545453,
                "pitch": 75,
                "velocity": 80,
                "duration": 0.11818181818181728,
                "tempo": 120.0
            },
            {
                "start_time": 17.795454545454543,
                "end_time": 17.913636363636364,
                "pitch": 74,
                "velocity": 80,
                "duration": 0.11818181818182083,
                "tempo": 120.0
            },
            {
                "start_time": 17.929545454545455,
                "end_time": 18.047727272727272,
                "pitch": 72,
                "velocity": 80,
                "duration": 0.11818181818181728,
                "tempo": 120.0
            },
            {
                "start_time": 18.063636363636363,
                "end_time": 18.18181818181818,
                "pitch": 70,
                "velocity": 80,
                "duration": 0.11818181818181728,
                "tempo": 120.0
            },
            {
                "start_time": 18.19772727272727,
                "end_time": 18.313636363636363,
                "pitch": 69,
                "velocity": 80,
                "duration": 0.11590909090909207,
                "tempo": 120.0
            },
            {
                "start_time": 18.331818181818182,
                "end_time": 18.44772727272727,
                "pitch": 67,
                "velocity": 80,
                "duration": 0.11590909090908852,
                "tempo": 120.0
            },
            {
                "start_time": 18.46363636363636,
                "end_time": 18.581818181818182,
                "pitch": 66,
                "velocity": 80,
                "duration": 0.11818181818182083,
                "tempo": 120.0
            },
            {
                "start_time": 18.597727272727273,
                "end_time": 18.71363636363636,
                "pitch": 67,
                "velocity": 80,
                "duration": 0.11590909090908852,
                "tempo": 120.0
            },
            {
                "start_time": 18.73181818181818,
                "end_time": 18.847727272727273,
                "pitch": 69,
                "velocity": 80,
                "duration": 0.11590909090909207,
                "tempo": 120.0
            },
            {
                "start_time": 18.863636363636363,
                "end_time": 18.98181818181818,
                "pitch": 63,
                "velocity": 80,
                "duration": 0.11818181818181728,
                "tempo": 120.0
            },
            {
                "start_time": 18.99772727272727,
                "end_time": 19.11590909090909,
                "pitch": 66,
                "velocity": 80,
                "duration": 0.11818181818181728,
                "tempo": 120.0
            },
            {
                "start_time": 19.134090909090908,
                "end_time": 19.25,
                "pitch": 69,
                "velocity": 80,
                "duration": 0.11590909090909207,
                "tempo": 120.0
            },
            {
                "start_time": 19.268181818181816,
                "end_time": 20.852272727272727,
                "pitch": 67,
                "velocity": 80,
                "duration": 1.5840909090909108,
                "tempo": 120.0
            },
            {
                "start_time": 20.870454545454546,
                "end_time": 22.459090909090907,
                "pitch": 67,
                "velocity": 80,
                "duration": 1.5886363636363612,
                "tempo": 120.0
            },
            {
                "start_time": 22.474999999999998,
                "end_time": 24.063636363636363,
                "pitch": 79,
                "velocity": 80,
                "duration": 1.5886363636363647,
                "tempo": 120.0
            },
            {
                "start_time": 24.081818181818182,
                "end_time": 25.66590909090909,
                "pitch": 79,
                "velocity": 80,
                "duration": 1.5840909090909072,
                "tempo": 120.0
            },
            {
                "start_time": 25.68409090909091,
                "end_time": 25.868181818181817,
                "pitch": 55,
                "velocity": 80,
                "duration": 0.18409090909090864,
                "tempo": 120.0
            },
            {
                "start_time": 25.884090909090908,
                "end_time": 26.068181818181817,
                "pitch": 74,
                "velocity": 80,
                "duration": 0.18409090909090864,
                "tempo": 120.0
            },
            {
                "start_time": 26.086363636363636,
                "end_time": 26.270454545454545,
                "pitch": 67,
                "velocity": 80,
                "duration": 0.18409090909090864,
                "tempo": 120.0
            },
            {
                "start_time": 26.286363636363635,
                "end_time": 26.470454545454544,
                "pitch": 72,
                "velocity": 80,
                "duration": 0.18409090909090864,
                "tempo": 120.0
            },
            {
                "start_time": 26.486363636363635,
                "end_time": 26.670454545454543,
                "pitch": 67,
                "velocity": 80,
                "duration": 0.18409090909090864,
                "tempo": 120.0
            },
            {
                "start_time": 26.686363636363634,
                "end_time": 26.870454545454542,
                "pitch": 69,
                "velocity": 80,
                "duration": 0.18409090909090864,
                "tempo": 120.0
            },
            {
                "start_time": 26.886363636363637,
                "end_time": 27.070454545454545,
                "pitch": 67,
                "velocity": 80,
                "duration": 0.18409090909090864,
                "tempo": 120.0
            },
            {
                "start_time": 27.086363636363636,
                "end_time": 27.27272727272727,
                "pitch": 70,
                "velocity": 80,
                "duration": 0.18636363636363384,
                "tempo": 120.0
            },
            {
                "start_time": 27.288636363636364,
                "end_time": 27.472727272727273,
                "pitch": 55,
                "velocity": 80,
                "duration": 0.18409090909090864,
                "tempo": 120.0
            },
            {
                "start_time": 27.488636363636363,
                "end_time": 27.672727272727272,
                "pitch": 74,
                "velocity": 80,
                "duration": 0.18409090909090864,
                "tempo": 120.0
            },
            {
                "start_time": 27.688636363636363,
                "end_time": 27.87272727272727,
                "pitch": 67,
                "velocity": 80,
                "duration": 0.18409090909090864,
                "tempo": 120.0
            },
            {
                "start_time": 27.89090909090909,
                "end_time": 28.075,
                "pitch": 72,
                "velocity": 80,
                "duration": 0.18409090909090864,
                "tempo": 120.0
            },
            {
                "start_time": 28.09090909090909,
                "end_time": 28.275,
                "pitch": 67,
                "velocity": 80,
                "duration": 0.18409090909090864,
                "tempo": 120.0
            },
            {
                "start_time": 28.29090909090909,
                "end_time": 28.474999999999998,
                "pitch": 75,
                "velocity": 80,
                "duration": 0.18409090909090864,
                "tempo": 120.0
            },
            {
                "start_time": 28.49090909090909,
                "end_time": 28.674999999999997,
                "pitch": 74,
                "velocity": 80,
                "duration": 0.18409090909090864,
                "tempo": 120.0
            },
            {
                "start_time": 28.690909090909088,
                "end_time": 28.875,
                "pitch": 69,
                "velocity": 80,
                "duration": 0.1840909090909122,
                "tempo": 120.0
            },
            {
                "start_time": 28.89090909090909,
                "end_time": 29.075,
                "pitch": 55,
                "velocity": 80,
                "duration": 0.18409090909090864,
                "tempo": 120.0
            },
            {
                "start_time": 29.093181818181815,
                "end_time": 29.277272727272727,
                "pitch": 74,
                "velocity": 80,
                "duration": 0.1840909090909122,
                "tempo": 120.0
            },
            {
                "start_time": 29.293181818181818,
                "end_time": 29.477272727272727,
                "pitch": 67,
                "velocity": 80,
                "duration": 0.18409090909090864,
                "tempo": 120.0
            },
            {
                "start_time": 29.493181818181817,
                "end_time": 29.677272727272726,
                "pitch": 72,
                "velocity": 80,
                "duration": 0.18409090909090864,
                "tempo": 120.0
            },
            {
                "start_time": 29.693181818181817,
                "end_time": 29.879545454545454,
                "pitch": 67,
                "velocity": 80,
                "duration": 0.1863636363636374,
                "tempo": 120.0
            },
            {
                "start_time": 29.895454545454545,
                "end_time": 30.079545454545453,
                "pitch": 69,
                "velocity": 80,
                "duration": 0.18409090909090864,
                "tempo": 120.0
            },
            {
                "start_time": 30.097727272727273,
                "end_time": 30.279545454545453,
                "pitch": 67,
                "velocity": 80,
                "duration": 0.18181818181817988,
                "tempo": 120.0
            },
            {
                "start_time": 30.297727272727272,
                "end_time": 30.479545454545452,
                "pitch": 70,
                "velocity": 80,
                "duration": 0.18181818181817988,
                "tempo": 120.0
            },
            {
                "start_time": 30.49772727272727,
                "end_time": 30.679545454545455,
                "pitch": 55,
                "velocity": 80,
                "duration": 0.18181818181818343,
                "tempo": 120.0
            },
            {
                "start_time": 30.69772727272727,
                "end_time": 30.879545454545454,
                "pitch": 74,
                "velocity": 80,
                "duration": 0.18181818181818343,
                "tempo": 120.0
            },
            {
                "start_time": 30.89772727272727,
                "end_time": 31.081818181818182,
                "pitch": 67,
                "velocity": 80,
                "duration": 0.1840909090909122,
                "tempo": 120.0
            },
            {
                "start_time": 31.097727272727273,
                "end_time": 31.28181818181818,
                "pitch": 72,
                "velocity": 80,
                "duration": 0.18409090909090864,
                "tempo": 120.0
            },
            {
                "start_time": 31.299999999999997,
                "end_time": 31.48181818181818,
                "pitch": 67,
                "velocity": 80,
                "duration": 0.18181818181818343,
                "tempo": 120.0
            },
            {
                "start_time": 31.5,
                "end_time": 31.68181818181818,
                "pitch": 75,
                "velocity": 80,
                "duration": 0.18181818181817988,
                "tempo": 120.0
            },
            {
                "start_time": 31.7,
                "end_time": 31.884090909090908,
                "pitch": 74,
                "velocity": 80,
                "duration": 0.18409090909090864,
                "tempo": 120.0
            },
            {
                "start_time": 31.9,
                "end_time": 32.086363636363636,
                "pitch": 69,
                "velocity": 80,
                "duration": 0.1863636363636374,
                "tempo": 120.0
            },
            {
                "start_time": 32.10227272727273,
                "end_time": 33.68863636363636,
                "pitch": 58,
                "velocity": 80,
                "duration": 1.586363636363636,
                "tempo": 120.0
            },
            {
                "start_time": 33.70454545454545,
                "end_time": 35.288636363636364,
                "pitch": 57,
                "velocity": 80,
                "duration": 1.5840909090909108,
                "tempo": 120.0
            },
            {
                "start_time": 35.304545454545455,
                "end_time": 36.89090909090909,
                "pitch": 55,
                "velocity": 80,
                "duration": 1.586363636363636,
                "tempo": 120.0
            },
            {
                "start_time": 36.90681818181818,
                "end_time": 37.025,
                "pitch": 75,
                "velocity": 80,
                "duration": 0.11818181818181728,
                "tempo": 120.0
            },
            {
                "start_time": 37.04090909090909,
                "end_time": 37.15681818181818,
                "pitch": 74,
                "velocity": 80,
                "duration": 0.11590909090909207,
                "tempo": 120.0
            },
            {
                "start_time": 37.175,
                "end_time": 37.29090909090909,
                "pitch": 72,
                "velocity": 80,
                "duration": 0.11590909090909207,
                "tempo": 120.0
            },
            {
                "start_time": 37.30681818181818,
                "end_time": 37.425,
                "pitch": 70,
                "velocity": 80,
                "duration": 0.11818181818181728,
                "tempo": 120.0
            },
            {
                "start_time": 37.44090909090909,
                "end_time": 37.559090909090905,
                "pitch": 69,
                "velocity": 80,
                "duration": 0.11818181818181728,
                "tempo": 120.0
            },
            {
                "start_time": 37.574999999999996,
                "end_time": 37.69318181818181,
                "pitch": 67,
                "velocity": 80,
                "duration": 0.11818181818181728,
                "tempo": 120.0
            },
            {
                "start_time": 37.711363636363636,
                "end_time": 37.82727272727273,
                "pitch": 66,
                "velocity": 80,
                "duration": 0.11590909090909207,
                "tempo": 120.0
            },
            {
                "start_time": 37.84318181818182,
                "end_time": 37.961363636363636,
                "pitch": 67,
                "velocity": 80,
                "duration": 0.11818181818181728,
                "tempo": 120.0
            },
            {
                "start_time": 37.97727272727273,
                "end_time": 38.09318181818182,
                "pitch": 69,
                "velocity": 80,
                "duration": 0.11590909090909207,
                "tempo": 120.0
            },
            {
                "start_time": 38.111363636363635,
                "end_time": 38.22727272727273,
                "pitch": 63,
                "velocity": 80,
                "duration": 0.11590909090909207,
                "tempo": 120.0
            },
            {
                "start_time": 38.24318181818182,
                "end_time": 38.361363636363635,
                "pitch": 66,
                "velocity": 80,
                "duration": 0.11818181818181728,
                "tempo": 120.0
            },
            {
                "start_time": 38.377272727272725,
                "end_time": 38.49318181818182,
                "pitch": 69,
                "velocity": 80,
                "duration": 0.11590909090909207,
                "tempo": 120.0
            },
            {
                "start_time": 38.51136363636363,
                "end_time": 39.293181818181814,
                "pitch": 67,
                "velocity": 80,
                "duration": 0.7818181818181813,
                "tempo": 120.0
            },
            {
                "start_time": 39.31136363636364,
                "end_time": 39.393181818181816,
                "pitch": 67,
                "velocity": 80,
                "duration": 0.08181818181817846,
                "tempo": 120.0
            },
            {
                "start_time": 39.41136363636363,
                "end_time": 39.49545454545454,
                "pitch": 67,
                "velocity": 80,
                "duration": 0.08409090909091077,
                "tempo": 120.0
            },
            {
                "start_time": 39.51136363636363,
                "end_time": 39.595454545454544,
                "pitch": 69,
                "velocity": 80,
                "duration": 0.08409090909091077,
                "tempo": 120.0
            },
            {
                "start_time": 39.611363636363635,
                "end_time": 39.695454545454545,
                "pitch": 70,
                "velocity": 80,
                "duration": 0.08409090909091077,
                "tempo": 120.0
            },
            {
                "start_time": 39.71363636363636,
                "end_time": 39.79545454545455,
                "pitch": 67,
                "velocity": 80,
                "duration": 0.08181818181818556,
                "tempo": 120.0
            },
            {
                "start_time": 39.81363636363636,
                "end_time": 39.89545454545454,
                "pitch": 69,
                "velocity": 80,
                "duration": 0.08181818181817846,
                "tempo": 120.0
            },
            {
                "start_time": 39.913636363636364,
                "end_time": 39.99545454545454,
                "pitch": 70,
                "velocity": 80,
                "duration": 0.08181818181817846,
                "tempo": 120.0
            },
            {
                "start_time": 40.01363636363636,
                "end_time": 40.095454545454544,
                "pitch": 72,
                "velocity": 80,
                "duration": 0.08181818181818556,
                "tempo": 120.0
            },
            {
                "start_time": 40.11363636363636,
                "end_time": 40.195454545454545,
                "pitch": 69,
                "velocity": 80,
                "duration": 0.08181818181818556,
                "tempo": 120.0
            },
            {
                "start_time": 40.21363636363636,
                "end_time": 40.29545454545455,
                "pitch": 70,
                "velocity": 80,
                "duration": 0.08181818181818556,
                "tempo": 120.0
            },
            {
                "start_time": 40.31363636363636,
                "end_time": 40.39545454545454,
                "pitch": 72,
                "velocity": 80,
                "duration": 0.08181818181817846,
                "tempo": 120.0
            },
            {
                "start_time": 40.413636363636364,
                "end_time": 40.49545454545454,
                "pitch": 74,
                "velocity": 80,
                "duration": 0.08181818181817846,
                "tempo": 120.0
            },
            {
                "start_time": 40.51363636363636,
                "end_time": 40.595454545454544,
                "pitch": 70,
                "velocity": 80,
                "duration": 0.08181818181818556,
                "tempo": 120.0
            },
            {
                "start_time": 40.61363636363636,
                "end_time": 40.695454545454545,
                "pitch": 72,
                "velocity": 80,
                "duration": 0.08181818181818556,
                "tempo": 120.0
            },
            {
                "start_time": 40.71363636363636,
                "end_time": 40.79545454545455,
                "pitch": 74,
                "velocity": 80,
                "duration": 0.08181818181818556,
                "tempo": 120.0
            },
            {
                "start_time": 40.81363636363636,
                "end_time": 40.89545454545454,
                "pitch": 75,
                "velocity": 80,
                "duration": 0.08181818181817846,
                "tempo": 120.0
            },
            {
                "start_time": 40.913636363636364,
                "end_time": 40.99545454545454,
                "pitch": 72,
                "velocity": 80,
                "duration": 0.08181818181817846,
                "tempo": 120.0
            },
            {
                "start_time": 41.01363636363636,
                "end_time": 41.095454545454544,
                "pitch": 74,
                "velocity": 80,
                "duration": 0.08181818181818556,
                "tempo": 120.0
            },
            {
                "start_time": 41.11363636363636,
                "end_time": 41.195454545454545,
                "pitch": 75,
                "velocity": 80,
                "duration": 0.08181818181818556,
                "tempo": 120.0
            },
            {
                "start_time": 41.21363636363636,
                "end_time": 41.29545454545455,
                "pitch": 77,
                "velocity": 80,
                "duration": 0.08181818181818556,
                "tempo": 120.0
            },
            {
                "start_time": 41.31363636363636,
                "end_time": 41.39545454545454,
                "pitch": 74,
                "velocity": 80,
                "duration": 0.08181818181817846,
                "tempo": 120.0
            },
            {
                "start_time": 41.41136363636363,
                "end_time": 41.49318181818182,
                "pitch": 75,
                "velocity": 80,
                "duration": 0.08181818181818556,
                "tempo": 120.0
            },
            {
                "start_time": 41.50909090909091,
                "end_time": 41.590909090909086,
                "pitch": 77,
                "velocity": 80,
                "duration": 0.08181818181817846,
                "tempo": 120.0
            },
            {
                "start_time": 41.60681818181818,
                "end_time": 41.68863636363636,
                "pitch": 79,
                "velocity": 80,
                "duration": 0.08181818181818556,
                "tempo": 120.0
            },
            {
                "start_time": 41.70454545454545,
                "end_time": 42.5,
                "pitch": 81,
                "velocity": 80,
                "duration": 0.7954545454545467,
                "tempo": 120.0
            },
            {
                "start_time": 42.51590909090909,
                "end_time": 42.9,
                "pitch": 82,
                "velocity": 80,
                "duration": 0.38409090909090793,
                "tempo": 120.0
            },
            {
                "start_time": 42.91590909090909,
                "end_time": 43.3,
                "pitch": 81,
                "velocity": 80,
                "duration": 0.38409090909090793,
                "tempo": 120.0
            },
            {
                "start_time": 43.31590909090909,
                "end_time": 44.902272727272724,
                "pitch": 74,
                "velocity": 80,
                "duration": 1.586363636363636,
                "tempo": 120.0
            },
            {
                "start_time": 44.918181818181814,
                "end_time": 45.03409090909091,
                "pitch": 82,
                "velocity": 80,
                "duration": 0.11590909090909207,
                "tempo": 120.0
            },
            {
                "start_time": 45.05227272727272,
                "end_time": 45.168181818181814,
                "pitch": 79,
                "velocity": 80,
                "duration": 0.11590909090909207,
                "tempo": 120.0
            },
            {
                "start_time": 45.184090909090905,
                "end_time": 45.30227272727272,
                "pitch": 74,
                "velocity": 80,
                "duration": 0.11818181818181728,
                "tempo": 120.0
            },
            {
                "start_time": 45.31818181818181,
                "end_time": 45.70454545454545,
                "pitch": 70,
                "velocity": 80,
                "duration": 0.38636363636364024,
                "tempo": 120.0
            },
            {
                "start_time": 45.720454545454544,
                "end_time": 45.90454545454545,
                "pitch": 70,
                "velocity": 80,
                "duration": 0.18409090909090509,
                "tempo": 120.0
            },
            {
                "start_time": 45.92045454545455,
                "end_time": 46.10454545454545,
                "pitch": 82,
                "velocity": 80,
                "duration": 0.18409090909090509,
                "tempo": 120.0
            },
            {
                "start_time": 46.12045454545454,
                "end_time": 46.304545454545455,
                "pitch": 79,
                "velocity": 80,
                "duration": 0.1840909090909122,
                "tempo": 120.0
            },
            {
                "start_time": 46.320454545454545,
                "end_time": 46.50454545454545,
                "pitch": 74,
                "velocity": 80,
                "duration": 0.18409090909090509,
                "tempo": 120.0
            },
            {
                "start_time": 46.52045454545454,
                "end_time": 46.60454545454545,
                "pitch": 84,
                "velocity": 80,
                "duration": 0.08409090909091077,
                "tempo": 120.0
            },
            {
                "start_time": 46.62045454545454,
                "end_time": 46.70454545454545,
                "pitch": 81,
                "velocity": 80,
                "duration": 0.08409090909091077,
                "tempo": 120.0
            },
            {
                "start_time": 46.720454545454544,
                "end_time": 46.804545454545455,
                "pitch": 77,
                "velocity": 80,
                "duration": 0.08409090909091077,
                "tempo": 120.0
            },
            {
                "start_time": 46.820454545454545,
                "end_time": 46.90454545454545,
                "pitch": 72,
                "velocity": 80,
                "duration": 0.08409090909090366,
                "tempo": 120.0
            },
            {
                "start_time": 46.92045454545454,
                "end_time": 47.002272727272725,
                "pitch": 77,
                "velocity": 80,
                "duration": 0.08181818181818556,
                "tempo": 120.0
            },
            {
                "start_time": 47.018181818181816,
                "end_time": 47.099999999999994,
                "pitch": 81,
                "velocity": 80,
                "duration": 0.08181818181817846,
                "tempo": 120.0
            },
            {
                "start_time": 47.11818181818182,
                "end_time": 47.19772727272727,
                "pitch": 82,
                "velocity": 80,
                "duration": 0.07954545454545325,
                "tempo": 120.0
            },
            {
                "start_time": 47.215909090909086,
                "end_time": 47.29772727272727,
                "pitch": 84,
                "velocity": 80,
                "duration": 0.08181818181818556,
                "tempo": 120.0
            },
            {
                "start_time": 47.31363636363636,
                "end_time": 48.10681818181818,
                "pitch": 77,
                "velocity": 80,
                "duration": 0.7931818181818144,
                "tempo": 120.0
            },
            {
                "start_time": 48.125,
                "end_time": 48.30681818181818,
                "pitch": 84,
                "velocity": 80,
                "duration": 0.18181818181817988,
                "tempo": 120.0
            },
            {
                "start_time": 48.324999999999996,
                "end_time": 48.50681818181818,
                "pitch": 81,
                "velocity": 80,
                "duration": 0.18181818181818699,
                "tempo": 120.0
            },
            {
                "start_time": 48.525,
                "end_time": 48.70681818181818,
                "pitch": 84,
                "velocity": 80,
                "duration": 0.18181818181817988,
                "tempo": 120.0
            },
            {
                "start_time": 48.724999999999994,
                "end_time": 49.10681818181818,
                "pitch": 81,
                "velocity": 80,
                "duration": 0.3818181818181827,
                "tempo": 120.0
            },
            {
                "start_time": 49.125,
                "end_time": 49.50454545454545,
                "pitch": 77,
                "velocity": 80,
                "duration": 0.3795454545454504,
                "tempo": 120.0
            },
            {
                "start_time": 49.52045454545454,
                "end_time": 49.699999999999996,
                "pitch": 75,
                "velocity": 80,
                "duration": 0.17954545454545467,
                "tempo": 120.0
            },
            {
                "start_time": 49.715909090909086,
                "end_time": 51.31136363636364,
                "pitch": 82,
                "velocity": 80,
                "duration": 1.595454545454551,
                "tempo": 120.0
            },
            {
                "start_time": 51.32727272727273,
                "end_time": 52.913636363636364,
                "pitch": 82,
                "velocity": 80,
                "duration": 1.586363636363636,
                "tempo": 120.0
            },
            {
                "start_time": 56.13409090909091,
                "end_time": 56.31818181818181,
                "pitch": 55,
                "velocity": 80,
                "duration": 0.18409090909090509,
                "tempo": 120.0
            },
            {
                "start_time": 56.334090909090904,
                "end_time": 56.518181818181816,
                "pitch": 74,
                "velocity": 80,
                "duration": 0.1840909090909122,
                "tempo": 120.0
            },
            {
                "start_time": 56.53409090909091,
                "end_time": 56.71818181818182,
                "pitch": 67,
                "velocity": 80,
                "duration": 0.1840909090909122,
                "tempo": 120.0
            },
            {
                "start_time": 56.73409090909091,
                "end_time": 56.918181818181814,
                "pitch": 72,
                "velocity": 80,
                "duration": 0.18409090909090509,
                "tempo": 120.0
            },
            {
                "start_time": 56.934090909090905,
                "end_time": 57.11818181818182,
                "pitch": 67,
                "velocity": 80,
                "duration": 0.1840909090909122,
                "tempo": 120.0
            },
            {
                "start_time": 57.13409090909091,
                "end_time": 57.31818181818181,
                "pitch": 69,
                "velocity": 80,
                "duration": 0.18409090909090509,
                "tempo": 120.0
            },
            {
                "start_time": 57.334090909090904,
                "end_time": 57.52045454545454,
                "pitch": 67,
                "velocity": 80,
                "duration": 0.1863636363636374,
                "tempo": 120.0
            },
            {
                "start_time": 57.53636363636363,
                "end_time": 57.720454545454544,
                "pitch": 70,
                "velocity": 80,
                "duration": 0.1840909090909122,
                "tempo": 120.0
            },
            {
                "start_time": 57.73863636363636,
                "end_time": 57.92045454545454,
                "pitch": 55,
                "velocity": 80,
                "duration": 0.18181818181817988,
                "tempo": 120.0
            },
            {
                "start_time": 57.93863636363636,
                "end_time": 58.12045454545454,
                "pitch": 74,
                "velocity": 80,
                "duration": 0.18181818181817988,
                "tempo": 120.0
            },
            {
                "start_time": 58.13863636363636,
                "end_time": 58.320454545454545,
                "pitch": 67,
                "velocity": 80,
                "duration": 0.18181818181818699,
                "tempo": 120.0
            },
            {
                "start_time": 58.33863636363636,
                "end_time": 58.52045454545454,
                "pitch": 72,
                "velocity": 80,
                "duration": 0.18181818181817988,
                "tempo": 120.0
            },
            {
                "start_time": 58.538636363636364,
                "end_time": 58.720454545454544,
                "pitch": 67,
                "velocity": 80,
                "duration": 0.18181818181817988,
                "tempo": 120.0
            },
            {
                "start_time": 58.73863636363636,
                "end_time": 58.92045454545454,
                "pitch": 75,
                "velocity": 80,
                "duration": 0.18181818181817988,
                "tempo": 120.0
            },
            {
                "start_time": 58.93863636363636,
                "end_time": 59.12045454545454,
                "pitch": 74,
                "velocity": 80,
                "duration": 0.18181818181817988,
                "tempo": 120.0
            },
            {
                "start_time": 59.13863636363636,
                "end_time": 59.320454545454545,
                "pitch": 69,
                "velocity": 80,
                "duration": 0.18181818181818699,
                "tempo": 120.0
            },
            {
                "start_time": 59.33863636363636,
                "end_time": 59.52272727272727,
                "pitch": 55,
                "velocity": 80,
                "duration": 0.1840909090909122,
                "tempo": 120.0
            },
            {
                "start_time": 59.538636363636364,
                "end_time": 59.72272727272727,
                "pitch": 74,
                "velocity": 80,
                "duration": 0.18409090909090509,
                "tempo": 120.0
            },
            {
                "start_time": 59.740909090909085,
                "end_time": 59.92272727272727,
                "pitch": 67,
                "velocity": 80,
                "duration": 0.18181818181818699,
                "tempo": 120.0
            },
            {
                "start_time": 59.94090909090909,
                "end_time": 60.12272727272727,
                "pitch": 72,
                "velocity": 80,
                "duration": 0.18181818181817988,
                "tempo": 120.0
            },
            {
                "start_time": 60.14090909090909,
                "end_time": 60.32272727272727,
                "pitch": 67,
                "velocity": 80,
                "duration": 0.18181818181817988,
                "tempo": 120.0
            },
            {
                "start_time": 60.340909090909086,
                "end_time": 60.522727272727266,
                "pitch": 69,
                "velocity": 80,
                "duration": 0.18181818181817988,
                "tempo": 120.0
            },
            {
                "start_time": 60.54090909090909,
                "end_time": 60.72272727272727,
                "pitch": 67,
                "velocity": 80,
                "duration": 0.18181818181817988,
                "tempo": 120.0
            },
            {
                "start_time": 60.740909090909085,
                "end_time": 60.92272727272727,
                "pitch": 70,
                "velocity": 80,
                "duration": 0.18181818181818699,
                "tempo": 120.0
            },
            {
                "start_time": 60.94090909090909,
                "end_time": 61.12272727272727,
                "pitch": 55,
                "velocity": 80,
                "duration": 0.18181818181817988,
                "tempo": 120.0
            },
            {
                "start_time": 61.14090909090909,
                "end_time": 61.32272727272727,
                "pitch": 74,
                "velocity": 80,
                "duration": 0.18181818181817988,
                "tempo": 120.0
            },
            {
                "start_time": 61.340909090909086,
                "end_time": 61.525,
                "pitch": 67,
                "velocity": 80,
                "duration": 0.1840909090909122,
                "tempo": 120.0
            },
            {
                "start_time": 61.54090909090909,
                "end_time": 61.72727272727273,
                "pitch": 72,
                "velocity": 80,
                "duration": 0.1863636363636374,
                "tempo": 120.0
            },
            {
                "start_time": 61.74318181818182,
                "end_time": 61.92727272727272,
                "pitch": 67,
                "velocity": 80,
                "duration": 0.18409090909090509,
                "tempo": 120.0
            },
            {
                "start_time": 61.94318181818181,
                "end_time": 62.127272727272725,
                "pitch": 75,
                "velocity": 80,
                "duration": 0.1840909090909122,
                "tempo": 120.0
            },
            {
                "start_time": 62.143181818181816,
                "end_time": 62.32727272727272,
                "pitch": 74,
                "velocity": 80,
                "duration": 0.18409090909090509,
                "tempo": 120.0
            },
            {
                "start_time": 62.34318181818182,
                "end_time": 62.527272727272724,
                "pitch": 69,
                "velocity": 80,
                "duration": 0.18409090909090509,
                "tempo": 120.0
            },
            {
                "start_time": 62.543181818181814,
                "end_time": 64.12954545454545,
                "pitch": 58,
                "velocity": 80,
                "duration": 1.586363636363636,
                "tempo": 120.0
            },
            {
                "start_time": 64.14545454545454,
                "end_time": 65.73409090909091,
                "pitch": 57,
                "velocity": 80,
                "duration": 1.5886363636363683,
                "tempo": 120.0
            },
            {
                "start_time": 65.75227272727273,
                "end_time": 67.3409090909091,
                "pitch": 55,
                "velocity": 80,
                "duration": 1.5886363636363683,
                "tempo": 120.0
            },
            {
                "start_time": 67.35681818181818,
                "end_time": 67.475,
                "pitch": 75,
                "velocity": 80,
                "duration": 0.11818181818181017,
                "tempo": 120.0
            },
            {
                "start_time": 67.49090909090908,
                "end_time": 67.60909090909091,
                "pitch": 74,
                "velocity": 80,
                "duration": 0.11818181818182438,
                "tempo": 120.0
            },
            {
                "start_time": 67.625,
                "end_time": 67.74318181818181,
                "pitch": 72,
                "velocity": 80,
                "duration": 0.11818181818181017,
                "tempo": 120.0
            },
            {
                "start_time": 67.7590909090909,
                "end_time": 67.875,
                "pitch": 70,
                "velocity": 80,
                "duration": 0.11590909090909918,
                "tempo": 120.0
            },
            {
                "start_time": 67.89318181818182,
                "end_time": 68.0090909090909,
                "pitch": 69,
                "velocity": 80,
                "duration": 0.11590909090908497,
                "tempo": 120.0
            },
            {
                "start_time": 68.02499999999999,
                "end_time": 68.14318181818182,
                "pitch": 67,
                "velocity": 80,
                "duration": 0.11818181818182438,
                "tempo": 120.0
            },
            {
                "start_time": 68.1590909090909,
                "end_time": 68.27727272727273,
                "pitch": 66,
                "velocity": 80,
                "duration": 0.11818181818182438,
                "tempo": 120.0
            },
            {
                "start_time": 68.29318181818182,
                "end_time": 68.41136363636363,
                "pitch": 67,
                "velocity": 80,
                "duration": 0.11818181818181017,
                "tempo": 120.0
            },
            {
                "start_time": 68.42727272727272,
                "end_time": 68.54545454545455,
                "pitch": 69,
                "velocity": 80,
                "duration": 0.11818181818182438,
                "tempo": 120.0
            },
            {
                "start_time": 68.56136363636364,
                "end_time": 68.67954545454545,
                "pitch": 63,
                "velocity": 80,
                "duration": 0.11818181818181017,
                "tempo": 120.0
            },
            {
                "start_time": 68.69545454545454,
                "end_time": 68.81363636363636,
                "pitch": 66,
                "velocity": 80,
                "duration": 0.11818181818182438,
                "tempo": 120.0
            },
            {
                "start_time": 68.82954545454545,
                "end_time": 68.94772727272726,
                "pitch": 69,
                "velocity": 80,
                "duration": 0.11818181818181017,
                "tempo": 120.0
            },
            {
                "start_time": 68.96363636363635,
                "end_time": 70.14318181818182,
                "pitch": 67,
                "velocity": 80,
                "duration": 1.1795454545454618,
                "tempo": 120.0
            }
        ]
    }
}