{
    "track_id": "Phantasy Star (FM) - 21 - Vehicle (with Airplane SFX)",
    "mood": "angry",
    "instruments": {
        "Electric Piano 1": [
            {
                "start_time": 0.0,
                "end_time": 1.7522727272727272,
                "pitch": 46,
                "velocity": 127,
                "duration": 1.7522727272727272,
                "tempo": 120.0
            },
            {
                "start_time": 1.7522727272727272,
                "end_time": 3.9795454545454545,
                "pitch": 48,
                "velocity": 127,
                "duration": 2.2272727272727275,
                "tempo": 120.0
            },
            {
                "start_time": 3.9795454545454545,
                "end_time": 5.222727272727273,
                "pitch": 50,
                "velocity": 127,
                "duration": 1.2431818181818182,
                "tempo": 120.0
            }
        ],
        "Church Organ": [
            {
                "start_time": 5.222727272727273,
                "end_time": 5.2749999999999995,
                "pitch": 62,
                "velocity": 80,
                "duration": 0.052272727272726804,
                "tempo": 120.0
            },
            {
                "start_time": 5.836363636363636,
                "end_time": 6.822727272727272,
                "pitch": 65,
                "velocity": 80,
                "duration": 0.9863636363636363,
                "tempo": 120.0
            },
            {
                "start_time": 6.840909090909091,
                "end_time": 6.890909090909091,
                "pitch": 62,
                "velocity": 80,
                "duration": 0.04999999999999982,
                "tempo": 120.0
            },
            {
                "start_time": 7.4431818181818175,
                "end_time": 8.393181818181818,
                "pitch": 65,
                "velocity": 80,
                "duration": 0.9500000000000002,
                "tempo": 120.0
            },
            {
                "start_time": 8.836363636363636,
                "end_time": 9.222727272727273,
                "pitch": 67,
                "velocity": 80,
                "duration": 0.3863636363636367,
                "tempo": 120.0
            },
            {
                "start_time": 9.24090909090909,
                "end_time": 9.634090909090908,
                "pitch": 67,
                "velocity": 80,
                "duration": 0.39318181818181763,
                "tempo": 120.0
            },
            {
                "start_time": 9.65,
                "end_time": 9.836363636363636,
                "pitch": 67,
                "velocity": 80,
                "duration": 0.18636363636363562,
                "tempo": 120.0
            },
            {
                "start_time": 9.852272727272727,
                "end_time": 10.23409090909091,
                "pitch": 67,
                "velocity": 80,
                "duration": 0.3818181818181827,
                "tempo": 120.0
            },
            {
                "start_time": 10.25,
                "end_time": 10.429545454545455,
                "pitch": 62,
                "velocity": 80,
                "duration": 0.17954545454545467,
                "tempo": 120.0
            },
            {
                "start_time": 10.445454545454545,
                "end_time": 10.634090909090908,
                "pitch": 62,
                "velocity": 80,
                "duration": 0.1886363636363626,
                "tempo": 120.0
            },
            {
                "start_time": 11.659090909090908,
                "end_time": 11.674999999999999,
                "pitch": 62,
                "velocity": 80,
                "duration": 0.01590909090909065,
                "tempo": 120.0
            },
            {
                "start_time": 12.263636363636364,
                "end_time": 13.25,
                "pitch": 65,
                "velocity": 80,
                "duration": 0.9863636363636363,
                "tempo": 120.0
            },
            {
                "start_time": 13.268181818181818,
                "end_time": 13.284090909090908,
                "pitch": 62,
                "velocity": 80,
                "duration": 0.01590909090909065,
                "tempo": 120.0
            },
            {
                "start_time": 13.870454545454544,
                "end_time": 14.790909090909091,
                "pitch": 65,
                "velocity": 80,
                "duration": 0.9204545454545467,
                "tempo": 120.0
            },
            {
                "start_time": 15.268181818181818,
                "end_time": 15.654545454545454,
                "pitch": 60,
                "velocity": 80,
                "duration": 0.3863636363636367,
                "tempo": 120.0
            },
            {
                "start_time": 15.670454545454545,
                "end_time": 16.063636363636363,
                "pitch": 60,
                "velocity": 80,
                "duration": 0.39318181818181763,
                "tempo": 120.0
            },
            {
                "start_time": 16.081818181818182,
                "end_time": 16.26590909090909,
                "pitch": 60,
                "velocity": 80,
                "duration": 0.18409090909090864,
                "tempo": 120.0
            },
            {
                "start_time": 16.28181818181818,
                "end_time": 16.663636363636364,
                "pitch": 62,
                "velocity": 80,
                "duration": 0.3818181818181827,
                "tempo": 120.0
            },
            {
                "start_time": 16.679545454545455,
                "end_time": 16.85909090909091,
                "pitch": 62,
                "velocity": 80,
                "duration": 0.17954545454545467,
                "tempo": 120.0
            },
            {
                "start_time": 16.875,
                "end_time": 16.995454545454546,
                "pitch": 62,
                "velocity": 80,
                "duration": 0.12045454545454604,
                "tempo": 120.0
            },
            {
                "start_time": 18.086363636363636,
                "end_time": 18.136363636363637,
                "pitch": 62,
                "velocity": 80,
                "duration": 0.05000000000000071,
                "tempo": 120.0
            },
            {
                "start_time": 18.688636363636363,
                "end_time": 19.675,
                "pitch": 65,
                "velocity": 80,
                "duration": 0.9863636363636381,
                "tempo": 120.0
            },
            {
                "start_time": 19.693181818181817,
                "end_time": 19.743181818181817,
                "pitch": 62,
                "velocity": 80,
                "duration": 0.05000000000000071,
                "tempo": 120.0
            },
            {
                "start_time": 20.293181818181818,
                "end_time": 21.245454545454546,
                "pitch": 65,
                "velocity": 80,
                "duration": 0.952272727272728,
                "tempo": 120.0
            },
            {
                "start_time": 21.688636363636363,
                "end_time": 22.07272727272727,
                "pitch": 67,
                "velocity": 80,
                "duration": 0.38409090909090793,
                "tempo": 120.0
            },
            {
                "start_time": 22.09090909090909,
                "end_time": 22.48409090909091,
                "pitch": 67,
                "velocity": 80,
                "duration": 0.3931818181818194,
                "tempo": 120.0
            },
            {
                "start_time": 22.5,
                "end_time": 22.679545454545455,
                "pitch": 67,
                "velocity": 80,
                "duration": 0.17954545454545467,
                "tempo": 120.0
            },
            {
                "start_time": 22.695454545454545,
                "end_time": 23.075,
                "pitch": 67,
                "velocity": 80,
                "duration": 0.37954545454545396,
                "tempo": 120.0
            },
            {
                "start_time": 23.09318181818182,
                "end_time": 23.275,
                "pitch": 62,
                "velocity": 80,
                "duration": 0.18181818181817988,
                "tempo": 120.0
            },
            {
                "start_time": 23.293181818181818,
                "end_time": 23.48181818181818,
                "pitch": 62,
                "velocity": 80,
                "duration": 0.1886363636363626,
                "tempo": 120.0
            },
            {
                "start_time": 24.495454545454546,
                "end_time": 24.513636363636362,
                "pitch": 62,
                "velocity": 80,
                "duration": 0.018181818181815856,
                "tempo": 120.0
            },
            {
                "start_time": 25.10681818181818,
                "end_time": 26.093181818181815,
                "pitch": 65,
                "velocity": 80,
                "duration": 0.9863636363636346,
                "tempo": 120.0
            },
            {
                "start_time": 26.10909090909091,
                "end_time": 26.125,
                "pitch": 62,
                "velocity": 80,
                "duration": 0.01590909090909065,
                "tempo": 120.0
            },
            {
                "start_time": 26.711363636363636,
                "end_time": 27.629545454545454,
                "pitch": 65,
                "velocity": 80,
                "duration": 0.918181818181818,
                "tempo": 120.0
            },
            {
                "start_time": 28.113636363636363,
                "end_time": 28.5,
                "pitch": 60,
                "velocity": 80,
                "duration": 0.3863636363636367,
                "tempo": 120.0
            },
            {
                "start_time": 28.518181818181816,
                "end_time": 28.911363636363635,
                "pitch": 60,
                "velocity": 80,
                "duration": 0.3931818181818194,
                "tempo": 120.0
            },
            {
                "start_time": 28.927272727272726,
                "end_time": 29.10681818181818,
                "pitch": 60,
                "velocity": 80,
                "duration": 0.17954545454545467,
                "tempo": 120.0
            },
            {
                "start_time": 29.125,
                "end_time": 29.5,
                "pitch": 62,
                "velocity": 80,
                "duration": 0.375,
                "tempo": 120.0
            },
            {
                "start_time": 29.51590909090909,
                "end_time": 29.695454545454545,
                "pitch": 62,
                "velocity": 80,
                "duration": 0.17954545454545467,
                "tempo": 120.0
            },
            {
                "start_time": 29.711363636363636,
                "end_time": 30.313636363636363,
                "pitch": 62,
                "velocity": 80,
                "duration": 0.6022727272727266,
                "tempo": 120.0
            },
            {
                "start_time": 30.329545454545453,
                "end_time": 30.509090909090908,
                "pitch": 62,
                "velocity": 80,
                "duration": 0.17954545454545467,
                "tempo": 120.0
            },
            {
                "start_time": 30.527272727272727,
                "end_time": 30.71363636363636,
                "pitch": 62,
                "velocity": 80,
                "duration": 0.18636363636363384,
                "tempo": 120.0
            },
            {
                "start_time": 30.73181818181818,
                "end_time": 30.920454545454543,
                "pitch": 62,
                "velocity": 80,
                "duration": 0.1886363636363626,
                "tempo": 120.0
            },
            {
                "start_time": 30.936363636363634,
                "end_time": 32.52272727272727,
                "pitch": 64,
                "velocity": 80,
                "duration": 1.5863636363636395,
                "tempo": 120.0
            },
            {
                "start_time": 32.54090909090909,
                "end_time": 32.725,
                "pitch": 65,
                "velocity": 80,
                "duration": 0.1840909090909122,
                "tempo": 120.0
            },
            {
                "start_time": 32.74090909090909,
                "end_time": 33.12272727272727,
                "pitch": 64,
                "velocity": 80,
                "duration": 0.3818181818181756,
                "tempo": 120.0
            },
            {
                "start_time": 33.138636363636365,
                "end_time": 34.92727272727272,
                "pitch": 64,
                "velocity": 80,
                "duration": 1.788636363636357,
                "tempo": 120.0
            },
            {
                "start_time": 34.94318181818181,
                "end_time": 35.72727272727273,
                "pitch": 65,
                "velocity": 80,
                "duration": 0.7840909090909136,
                "tempo": 120.0
            },
            {
                "start_time": 35.74318181818182,
                "end_time": 37.33181818181818,
                "pitch": 65,
                "velocity": 80,
                "duration": 1.5886363636363612,
                "tempo": 120.0
            },
            {
                "start_time": 37.34772727272727,
                "end_time": 38.93636363636364,
                "pitch": 62,
                "velocity": 80,
                "duration": 1.5886363636363683,
                "tempo": 120.0
            },
            {
                "start_time": 38.95454545454545,
                "end_time": 39.53636363636363,
                "pitch": 62,
                "velocity": 80,
                "duration": 0.5818181818181785,
                "tempo": 120.0
            },
            {
                "start_time": 39.554545454545455,
                "end_time": 40.74545454545454,
                "pitch": 62,
                "velocity": 80,
                "duration": 1.1909090909090878,
                "tempo": 120.0
            },
            {
                "start_time": 40.76136363636363,
                "end_time": 40.94090909090909,
                "pitch": 60,
                "velocity": 80,
                "duration": 0.17954545454545467,
                "tempo": 120.0
            },
            {
                "start_time": 40.95681818181818,
                "end_time": 41.35,
                "pitch": 60,
                "velocity": 80,
                "duration": 0.39318181818182296,
                "tempo": 120.0
            },
            {
                "start_time": 41.36818181818182,
                "end_time": 41.71818181818182,
                "pitch": 60,
                "velocity": 80,
                "duration": 0.3500000000000014,
                "tempo": 120.0
            },
            {
                "start_time": 41.73409090909091,
                "end_time": 41.94772727272727,
                "pitch": 60,
                "velocity": 80,
                "duration": 0.21363636363636118,
                "tempo": 120.0
            },
            {
                "start_time": 41.96363636363636,
                "end_time": 42.34318181818182,
                "pitch": 62,
                "velocity": 80,
                "duration": 0.3795454545454575,
                "tempo": 120.0
            },
            {
                "start_time": 42.35909090909091,
                "end_time": 42.50909090909091,
                "pitch": 62,
                "velocity": 80,
                "duration": 0.14999999999999858,
                "tempo": 120.0
            },
            {
                "start_time": 42.527272727272724,
                "end_time": 42.91136363636363,
                "pitch": 62,
                "velocity": 80,
                "duration": 0.38409090909090793,
                "tempo": 120.0
            },
            {
                "start_time": 42.929545454545455,
                "end_time": 43.35681818181818,
                "pitch": 64,
                "velocity": 80,
                "duration": 0.42727272727272236,
                "tempo": 120.0
            },
            {
                "start_time": 43.37272727272727,
                "end_time": 43.75,
                "pitch": 64,
                "velocity": 80,
                "duration": 0.3772727272727323,
                "tempo": 120.0
            }
        ],
        "Trumpet": [
            {
                "start_time": 30.936363636363634,
                "end_time": 32.52272727272727,
                "pitch": 71,
                "velocity": 64,
                "duration": 1.5863636363636395,
                "tempo": 120.0
            },
            {
                "start_time": 32.54090909090909,
                "end_time": 32.725,
                "pitch": 72,
                "velocity": 64,
                "duration": 0.1840909090909122,
                "tempo": 120.0
            },
            {
                "start_time": 32.74090909090909,
                "end_time": 33.12272727272727,
                "pitch": 71,
                "velocity": 64,
                "duration": 0.3818181818181756,
                "tempo": 120.0
            },
            {
                "start_time": 33.138636363636365,
                "end_time": 34.92727272727272,
                "pitch": 71,
                "velocity": 64,
                "duration": 1.788636363636357,
                "tempo": 120.0
            },
            {
                "start_time": 34.94318181818181,
                "end_time": 35.72727272727273,
                "pitch": 72,
                "velocity": 64,
                "duration": 0.7840909090909136,
                "tempo": 120.0
            },
            {
                "start_time": 35.74318181818182,
                "end_time": 37.33181818181818,
                "pitch": 72,
                "velocity": 64,
                "duration": 1.5886363636363612,
                "tempo": 120.0
            },
            {
                "start_time": 37.34772727272727,
                "end_time": 38.93636363636364,
                "pitch": 69,
                "velocity": 64,
                "duration": 1.5886363636363683,
                "tempo": 120.0
            },
            {
                "start_time": 38.95454545454545,
                "end_time": 39.53636363636363,
                "pitch": 71,
                "velocity": 64,
                "duration": 0.5818181818181785,
                "tempo": 120.0
            },
            {
                "start_time": 39.554545454545455,
                "end_time": 40.74545454545454,
                "pitch": 71,
                "velocity": 64,
                "duration": 1.1909090909090878,
                "tempo": 120.0
            },
            {
                "start_time": 40.76136363636363,
                "end_time": 40.94090909090909,
                "pitch": 67,
                "velocity": 64,
                "duration": 0.17954545454545467,
                "tempo": 120.0
            },
            {
                "start_time": 40.95681818181818,
                "end_time": 41.35,
                "pitch": 67,
                "velocity": 64,
                "duration": 0.39318181818182296,
                "tempo": 120.0
            },
            {
                "start_time": 41.36818181818182,
                "end_time": 41.75,
                "pitch": 67,
                "velocity": 64,
                "duration": 0.3818181818181827,
                "tempo": 120.0
            },
            {
                "start_time": 41.768181818181816,
                "end_time": 41.94772727272727,
                "pitch": 67,
                "velocity": 64,
                "duration": 0.17954545454545467,
                "tempo": 120.0
            },
            {
                "start_time": 41.96363636363636,
                "end_time": 42.34318181818182,
                "pitch": 69,
                "velocity": 64,
                "duration": 0.3795454545454575,
                "tempo": 120.0
            },
            {
                "start_time": 42.35909090909091,
                "end_time": 42.50909090909091,
                "pitch": 69,
                "velocity": 64,
                "duration": 0.14999999999999858,
                "tempo": 120.0
            },
            {
                "start_time": 42.527272727272724,
                "end_time": 42.945454545454545,
                "pitch": 69,
                "velocity": 64,
                "duration": 0.41818181818182154,
                "tempo": 120.0
            },
            {
                "start_time": 42.961363636363636,
                "end_time": 43.35681818181818,
                "pitch": 71,
                "velocity": 64,
                "duration": 0.39545454545454106,
                "tempo": 120.0
            },
            {
                "start_time": 43.37272727272727,
                "end_time": 43.75,
                "pitch": 71,
                "velocity": 64,
                "duration": 0.3772727272727323,
                "tempo": 120.0
            }
        ],
        "Electric Guitar (clean)": [
            {
                "start_time": 5.222727272727273,
                "end_time": 5.513636363636364,
                "pitch": 38,
                "velocity": 51,
                "duration": 0.290909090909091,
                "tempo": 120.0
            },
            {
                "start_time": 5.531818181818181,
                "end_time": 5.818181818181818,
                "pitch": 38,
                "velocity": 51,
                "duration": 0.28636363636363704,
                "tempo": 120.0
            },
            {
                "start_time": 5.836363636363636,
                "end_time": 6.222727272727273,
                "pitch": 38,
                "velocity": 51,
                "duration": 0.3863636363636367,
                "tempo": 120.0
            },
            {
                "start_time": 6.238636363636363,
                "end_time": 6.422727272727273,
                "pitch": 38,
                "velocity": 51,
                "duration": 0.18409090909090953,
                "tempo": 120.0
            },
            {
                "start_time": 6.4409090909090905,
                "end_time": 6.622727272727272,
                "pitch": 38,
                "velocity": 51,
                "duration": 0.18181818181818166,
                "tempo": 120.0
            },
            {
                "start_time": 6.640909090909091,
                "end_time": 6.822727272727272,
                "pitch": 38,
                "velocity": 51,
                "duration": 0.18181818181818166,
                "tempo": 120.0
            },
            {
                "start_time": 6.840909090909091,
                "end_time": 7.125,
                "pitch": 38,
                "velocity": 51,
                "duration": 0.28409090909090917,
                "tempo": 120.0
            },
            {
                "start_time": 7.140909090909091,
                "end_time": 7.425,
                "pitch": 38,
                "velocity": 51,
                "duration": 0.28409090909090917,
                "tempo": 120.0
            },
            {
                "start_time": 7.4431818181818175,
                "end_time": 7.822727272727272,
                "pitch": 38,
                "velocity": 51,
                "duration": 0.37954545454545485,
                "tempo": 120.0
            },
            {
                "start_time": 7.838636363636363,
                "end_time": 8.018181818181818,
                "pitch": 38,
                "velocity": 51,
                "duration": 0.17954545454545467,
                "tempo": 120.0
            },
            {
                "start_time": 8.034090909090908,
                "end_time": 8.222727272727273,
                "pitch": 38,
                "velocity": 51,
                "duration": 0.18863636363636438,
                "tempo": 120.0
            },
            {
                "start_time": 8.24090909090909,
                "end_time": 8.625,
                "pitch": 38,
                "velocity": 51,
                "duration": 0.3840909090909097,
                "tempo": 120.0
            },
            {
                "start_time": 8.836363636363636,
                "end_time": 9.022727272727272,
                "pitch": 38,
                "velocity": 51,
                "duration": 0.18636363636363562,
                "tempo": 120.0
            },
            {
                "start_time": 9.038636363636364,
                "end_time": 9.222727272727273,
                "pitch": 50,
                "velocity": 51,
                "duration": 0.18409090909090864,
                "tempo": 120.0
            },
            {
                "start_time": 9.24090909090909,
                "end_time": 9.429545454545455,
                "pitch": 50,
                "velocity": 51,
                "duration": 0.18863636363636438,
                "tempo": 120.0
            },
            {
                "start_time": 9.445454545454545,
                "end_time": 9.634090909090908,
                "pitch": 38,
                "velocity": 51,
                "duration": 0.1886363636363626,
                "tempo": 120.0
            },
            {
                "start_time": 9.65,
                "end_time": 9.836363636363636,
                "pitch": 38,
                "velocity": 51,
                "duration": 0.18636363636363562,
                "tempo": 120.0
            },
            {
                "start_time": 9.852272727272727,
                "end_time": 10.134090909090908,
                "pitch": 38,
                "velocity": 51,
                "duration": 0.2818181818181813,
                "tempo": 120.0
            },
            {
                "start_time": 10.152272727272727,
                "end_time": 10.429545454545455,
                "pitch": 38,
                "velocity": 51,
                "duration": 0.27727272727272734,
                "tempo": 120.0
            },
            {
                "start_time": 10.445454545454545,
                "end_time": 11.040909090909091,
                "pitch": 38,
                "velocity": 51,
                "duration": 0.5954545454545457,
                "tempo": 120.0
            },
            {
                "start_time": 11.056818181818182,
                "end_time": 11.24090909090909,
                "pitch": 36,
                "velocity": 51,
                "duration": 0.18409090909090864,
                "tempo": 120.0
            },
            {
                "start_time": 11.256818181818181,
                "end_time": 11.44090909090909,
                "pitch": 36,
                "velocity": 51,
                "duration": 0.18409090909090864,
                "tempo": 120.0
            },
            {
                "start_time": 11.459090909090909,
                "end_time": 11.643181818181818,
                "pitch": 36,
                "velocity": 51,
                "duration": 0.18409090909090864,
                "tempo": 120.0
            },
            {
                "start_time": 11.659090909090908,
                "end_time": 11.945454545454545,
                "pitch": 38,
                "velocity": 51,
                "duration": 0.28636363636363704,
                "tempo": 120.0
            },
            {
                "start_time": 11.961363636363636,
                "end_time": 12.245454545454544,
                "pitch": 38,
                "velocity": 51,
                "duration": 0.2840909090909083,
                "tempo": 120.0
            },
            {
                "start_time": 12.263636363636364,
                "end_time": 12.649999999999999,
                "pitch": 38,
                "velocity": 51,
                "duration": 0.3863636363636349,
                "tempo": 120.0
            },
            {
                "start_time": 12.665909090909091,
                "end_time": 12.85,
                "pitch": 38,
                "velocity": 51,
                "duration": 0.18409090909090864,
                "tempo": 120.0
            },
            {
                "start_time": 12.868181818181817,
                "end_time": 13.049999999999999,
                "pitch": 38,
                "velocity": 51,
                "duration": 0.18181818181818166,
                "tempo": 120.0
            },
            {
                "start_time": 13.068181818181818,
                "end_time": 13.25,
                "pitch": 38,
                "velocity": 51,
                "duration": 0.18181818181818166,
                "tempo": 120.0
            },
            {
                "start_time": 13.268181818181818,
                "end_time": 13.552272727272726,
                "pitch": 38,
                "velocity": 51,
                "duration": 0.2840909090909083,
                "tempo": 120.0
            },
            {
                "start_time": 13.570454545454545,
                "end_time": 13.854545454545454,
                "pitch": 38,
                "velocity": 51,
                "duration": 0.2840909090909083,
                "tempo": 120.0
            },
            {
                "start_time": 13.870454545454544,
                "end_time": 14.252272727272727,
                "pitch": 38,
                "velocity": 51,
                "duration": 0.3818181818181827,
                "tempo": 120.0
            },
            {
                "start_time": 14.268181818181818,
                "end_time": 14.35,
                "pitch": 38,
                "velocity": 51,
                "duration": 0.08181818181818201,
                "tempo": 120.0
            },
            {
                "start_time": 14.36590909090909,
                "end_time": 14.549999999999999,
                "pitch": 38,
                "velocity": 51,
                "duration": 0.18409090909090864,
                "tempo": 120.0
            },
            {
                "start_time": 14.568181818181818,
                "end_time": 14.95681818181818,
                "pitch": 38,
                "velocity": 51,
                "duration": 0.3886363636363619,
                "tempo": 120.0
            },
            {
                "start_time": 15.268181818181818,
                "end_time": 15.654545454545454,
                "pitch": 36,
                "velocity": 51,
                "duration": 0.3863636363636367,
                "tempo": 120.0
            },
            {
                "start_time": 15.670454545454545,
                "end_time": 16.063636363636363,
                "pitch": 36,
                "velocity": 51,
                "duration": 0.39318181818181763,
                "tempo": 120.0
            },
            {
                "start_time": 16.081818181818182,
                "end_time": 16.26590909090909,
                "pitch": 36,
                "velocity": 51,
                "duration": 0.18409090909090864,
                "tempo": 120.0
            },
            {
                "start_time": 16.28181818181818,
                "end_time": 16.663636363636364,
                "pitch": 38,
                "velocity": 51,
                "duration": 0.3818181818181827,
                "tempo": 120.0
            },
            {
                "start_time": 16.679545454545455,
                "end_time": 16.85909090909091,
                "pitch": 38,
                "velocity": 51,
                "duration": 0.17954545454545467,
                "tempo": 120.0
            },
            {
                "start_time": 16.875,
                "end_time": 17.470454545454544,
                "pitch": 38,
                "velocity": 51,
                "duration": 0.5954545454545439,
                "tempo": 120.0
            },
            {
                "start_time": 17.486363636363635,
                "end_time": 17.670454545454543,
                "pitch": 36,
                "velocity": 51,
                "duration": 0.18409090909090864,
                "tempo": 120.0
            },
            {
                "start_time": 17.686363636363634,
                "end_time": 17.870454545454546,
                "pitch": 36,
                "velocity": 51,
                "duration": 0.1840909090909122,
                "tempo": 120.0
            },
            {
                "start_time": 17.886363636363637,
                "end_time": 18.070454545454545,
                "pitch": 36,
                "velocity": 51,
                "duration": 0.18409090909090864,
                "tempo": 120.0
            },
            {
                "start_time": 18.086363636363636,
                "end_time": 18.37272727272727,
                "pitch": 38,
                "velocity": 51,
                "duration": 0.28636363636363527,
                "tempo": 120.0
            },
            {
                "start_time": 18.388636363636362,
                "end_time": 18.672727272727272,
                "pitch": 38,
                "velocity": 51,
                "duration": 0.28409090909091006,
                "tempo": 120.0
            },
            {
                "start_time": 18.688636363636363,
                "end_time": 19.068181818181817,
                "pitch": 38,
                "velocity": 51,
                "duration": 0.37954545454545396,
                "tempo": 120.0
            },
            {
                "start_time": 19.084090909090907,
                "end_time": 19.26590909090909,
                "pitch": 38,
                "velocity": 51,
                "duration": 0.18181818181818343,
                "tempo": 120.0
            },
            {
                "start_time": 19.28181818181818,
                "end_time": 19.470454545454544,
                "pitch": 38,
                "velocity": 51,
                "duration": 0.1886363636363626,
                "tempo": 120.0
            },
            {
                "start_time": 19.486363636363635,
                "end_time": 19.675,
                "pitch": 38,
                "velocity": 51,
                "duration": 0.18863636363636616,
                "tempo": 120.0
            },
            {
                "start_time": 19.693181818181817,
                "end_time": 19.974999999999998,
                "pitch": 38,
                "velocity": 51,
                "duration": 0.2818181818181813,
                "tempo": 120.0
            },
            {
                "start_time": 19.993181818181817,
                "end_time": 20.277272727272727,
                "pitch": 38,
                "velocity": 51,
                "duration": 0.28409090909091006,
                "tempo": 120.0
            },
            {
                "start_time": 20.293181818181818,
                "end_time": 20.675,
                "pitch": 38,
                "velocity": 51,
                "duration": 0.3818181818181827,
                "tempo": 120.0
            },
            {
                "start_time": 20.69090909090909,
                "end_time": 20.870454545454546,
                "pitch": 38,
                "velocity": 51,
                "duration": 0.17954545454545467,
                "tempo": 120.0
            },
            {
                "start_time": 20.886363636363637,
                "end_time": 21.075,
                "pitch": 38,
                "velocity": 51,
                "duration": 0.1886363636363626,
                "tempo": 120.0
            },
            {
                "start_time": 21.09318181818182,
                "end_time": 21.477272727272727,
                "pitch": 38,
                "velocity": 51,
                "duration": 0.38409090909090793,
                "tempo": 120.0
            },
            {
                "start_time": 21.688636363636363,
                "end_time": 21.87272727272727,
                "pitch": 38,
                "velocity": 51,
                "duration": 0.18409090909090864,
                "tempo": 120.0
            },
            {
                "start_time": 21.888636363636362,
                "end_time": 22.07272727272727,
                "pitch": 50,
                "velocity": 51,
                "duration": 0.18409090909090864,
                "tempo": 120.0
            },
            {
                "start_time": 22.09090909090909,
                "end_time": 22.277272727272727,
                "pitch": 50,
                "velocity": 51,
                "duration": 0.1863636363636374,
                "tempo": 120.0
            },
            {
                "start_time": 22.295454545454543,
                "end_time": 22.48409090909091,
                "pitch": 38,
                "velocity": 51,
                "duration": 0.18863636363636616,
                "tempo": 120.0
            },
            {
                "start_time": 22.5,
                "end_time": 22.679545454545455,
                "pitch": 38,
                "velocity": 51,
                "duration": 0.17954545454545467,
                "tempo": 120.0
            },
            {
                "start_time": 22.695454545454545,
                "end_time": 22.974999999999998,
                "pitch": 38,
                "velocity": 51,
                "duration": 0.27954545454545254,
                "tempo": 120.0
            },
            {
                "start_time": 22.993181818181817,
                "end_time": 23.275,
                "pitch": 38,
                "velocity": 51,
                "duration": 0.2818181818181813,
                "tempo": 120.0
            },
            {
                "start_time": 23.293181818181818,
                "end_time": 23.886363636363637,
                "pitch": 38,
                "velocity": 51,
                "duration": 0.5931818181818187,
                "tempo": 120.0
            },
            {
                "start_time": 23.904545454545453,
                "end_time": 24.086363636363636,
                "pitch": 36,
                "velocity": 51,
                "duration": 0.18181818181818343,
                "tempo": 120.0
            },
            {
                "start_time": 24.102272727272727,
                "end_time": 24.284090909090907,
                "pitch": 36,
                "velocity": 51,
                "duration": 0.18181818181817988,
                "tempo": 120.0
            },
            {
                "start_time": 24.299999999999997,
                "end_time": 24.479545454545452,
                "pitch": 36,
                "velocity": 51,
                "duration": 0.17954545454545467,
                "tempo": 120.0
            },
            {
                "start_time": 24.495454545454546,
                "end_time": 24.786363636363635,
                "pitch": 38,
                "velocity": 51,
                "duration": 0.29090909090908923,
                "tempo": 120.0
            },
            {
                "start_time": 24.804545454545455,
                "end_time": 25.09090909090909,
                "pitch": 38,
                "velocity": 51,
                "duration": 0.28636363636363527,
                "tempo": 120.0
            },
            {
                "start_time": 25.10681818181818,
                "end_time": 25.493181818181817,
                "pitch": 38,
                "velocity": 51,
                "duration": 0.3863636363636367,
                "tempo": 120.0
            },
            {
                "start_time": 25.509090909090908,
                "end_time": 25.693181818181817,
                "pitch": 38,
                "velocity": 51,
                "duration": 0.18409090909090864,
                "tempo": 120.0
            },
            {
                "start_time": 25.709090909090907,
                "end_time": 25.893181818181816,
                "pitch": 38,
                "velocity": 51,
                "duration": 0.18409090909090864,
                "tempo": 120.0
            },
            {
                "start_time": 25.909090909090907,
                "end_time": 26.093181818181815,
                "pitch": 38,
                "velocity": 51,
                "duration": 0.18409090909090864,
                "tempo": 120.0
            },
            {
                "start_time": 26.10909090909091,
                "end_time": 26.395454545454545,
                "pitch": 38,
                "velocity": 51,
                "duration": 0.28636363636363527,
                "tempo": 120.0
            },
            {
                "start_time": 26.411363636363635,
                "end_time": 26.695454545454545,
                "pitch": 38,
                "velocity": 51,
                "duration": 0.28409090909091006,
                "tempo": 120.0
            },
            {
                "start_time": 26.711363636363636,
                "end_time": 27.09090909090909,
                "pitch": 38,
                "velocity": 51,
                "duration": 0.37954545454545396,
                "tempo": 120.0
            },
            {
                "start_time": 27.10681818181818,
                "end_time": 27.188636363636363,
                "pitch": 38,
                "velocity": 51,
                "duration": 0.08181818181818201,
                "tempo": 120.0
            },
            {
                "start_time": 27.204545454545453,
                "end_time": 27.388636363636362,
                "pitch": 38,
                "velocity": 51,
                "duration": 0.18409090909090864,
                "tempo": 120.0
            },
            {
                "start_time": 27.40681818181818,
                "end_time": 27.797727272727272,
                "pitch": 38,
                "velocity": 51,
                "duration": 0.39090909090909065,
                "tempo": 120.0
            },
            {
                "start_time": 28.113636363636363,
                "end_time": 28.5,
                "pitch": 36,
                "velocity": 51,
                "duration": 0.3863636363636367,
                "tempo": 120.0
            },
            {
                "start_time": 28.518181818181816,
                "end_time": 28.911363636363635,
                "pitch": 36,
                "velocity": 51,
                "duration": 0.3931818181818194,
                "tempo": 120.0
            },
            {
                "start_time": 28.927272727272726,
                "end_time": 29.10681818181818,
                "pitch": 36,
                "velocity": 51,
                "duration": 0.17954545454545467,
                "tempo": 120.0
            },
            {
                "start_time": 29.125,
                "end_time": 29.5,
                "pitch": 38,
                "velocity": 51,
                "duration": 0.375,
                "tempo": 120.0
            },
            {
                "start_time": 29.51590909090909,
                "end_time": 29.695454545454545,
                "pitch": 38,
                "velocity": 51,
                "duration": 0.17954545454545467,
                "tempo": 120.0
            },
            {
                "start_time": 29.711363636363636,
                "end_time": 30.313636363636363,
                "pitch": 38,
                "velocity": 51,
                "duration": 0.6022727272727266,
                "tempo": 120.0
            },
            {
                "start_time": 30.329545454545453,
                "end_time": 30.509090909090908,
                "pitch": 38,
                "velocity": 51,
                "duration": 0.17954545454545467,
                "tempo": 120.0
            },
            {
                "start_time": 30.527272727272727,
                "end_time": 30.71363636363636,
                "pitch": 38,
                "velocity": 51,
                "duration": 0.18636363636363384,
                "tempo": 120.0
            },
            {
                "start_time": 30.73181818181818,
                "end_time": 30.920454545454543,
                "pitch": 38,
                "velocity": 51,
                "duration": 0.1886363636363626,
                "tempo": 120.0
            },
            {
                "start_time": 30.936363636363634,
                "end_time": 31.11590909090909,
                "pitch": 40,
                "velocity": 51,
                "duration": 0.17954545454545467,
                "tempo": 120.0
            },
            {
                "start_time": 31.13181818181818,
                "end_time": 31.21363636363636,
                "pitch": 40,
                "velocity": 51,
                "duration": 0.08181818181818201,
                "tempo": 120.0
            },
            {
                "start_time": 31.23181818181818,
                "end_time": 31.313636363636363,
                "pitch": 40,
                "velocity": 51,
                "duration": 0.08181818181818201,
                "tempo": 120.0
            },
            {
                "start_time": 31.329545454545453,
                "end_time": 31.511363636363633,
                "pitch": 40,
                "velocity": 51,
                "duration": 0.18181818181817988,
                "tempo": 120.0
            },
            {
                "start_time": 31.529545454545453,
                "end_time": 31.611363636363635,
                "pitch": 40,
                "velocity": 51,
                "duration": 0.08181818181818201,
                "tempo": 120.0
            },
            {
                "start_time": 31.629545454545454,
                "end_time": 31.711363636363636,
                "pitch": 40,
                "velocity": 51,
                "duration": 0.08181818181818201,
                "tempo": 120.0
            },
            {
                "start_time": 31.729545454545452,
                "end_time": 31.911363636363635,
                "pitch": 40,
                "velocity": 51,
                "duration": 0.18181818181818343,
                "tempo": 120.0
            },
            {
                "start_time": 31.929545454545455,
                "end_time": 32.01136363636363,
                "pitch": 40,
                "velocity": 51,
                "duration": 0.08181818181817846,
                "tempo": 120.0
            },
            {
                "start_time": 32.029545454545456,
                "end_time": 32.111363636363635,
                "pitch": 40,
                "velocity": 51,
                "duration": 0.08181818181817846,
                "tempo": 120.0
            },
            {
                "start_time": 32.12954545454545,
                "end_time": 32.31818181818182,
                "pitch": 40,
                "velocity": 51,
                "duration": 0.1886363636363697,
                "tempo": 120.0
            },
            {
                "start_time": 32.33409090909091,
                "end_time": 32.42045454545455,
                "pitch": 40,
                "velocity": 51,
                "duration": 0.08636363636363598,
                "tempo": 120.0
            },
            {
                "start_time": 32.43636363636364,
                "end_time": 32.52272727272727,
                "pitch": 40,
                "velocity": 51,
                "duration": 0.08636363636363598,
                "tempo": 120.0
            },
            {
                "start_time": 32.54090909090909,
                "end_time": 32.725,
                "pitch": 40,
                "velocity": 51,
                "duration": 0.1840909090909122,
                "tempo": 120.0
            },
            {
                "start_time": 32.74090909090909,
                "end_time": 32.824999999999996,
                "pitch": 40,
                "velocity": 51,
                "duration": 0.08409090909090366,
                "tempo": 120.0
            },
            {
                "start_time": 32.840909090909086,
                "end_time": 32.925,
                "pitch": 40,
                "velocity": 51,
                "duration": 0.08409090909091077,
                "tempo": 120.0
            },
            {
                "start_time": 32.94318181818182,
                "end_time": 33.12272727272727,
                "pitch": 40,
                "velocity": 51,
                "duration": 0.17954545454544757,
                "tempo": 120.0
            },
            {
                "start_time": 33.138636363636365,
                "end_time": 33.220454545454544,
                "pitch": 40,
                "velocity": 51,
                "duration": 0.08181818181817846,
                "tempo": 120.0
            },
            {
                "start_time": 33.236363636363635,
                "end_time": 33.31818181818181,
                "pitch": 40,
                "velocity": 51,
                "duration": 0.08181818181817846,
                "tempo": 120.0
            },
            {
                "start_time": 33.33409090909091,
                "end_time": 33.52272727272727,
                "pitch": 40,
                "velocity": 51,
                "duration": 0.1886363636363626,
                "tempo": 120.0
            },
            {
                "start_time": 33.54090909090909,
                "end_time": 33.72727272727273,
                "pitch": 40,
                "velocity": 51,
                "duration": 0.1863636363636374,
                "tempo": 120.0
            },
            {
                "start_time": 33.74545454545454,
                "end_time": 33.929545454545455,
                "pitch": 40,
                "velocity": 51,
                "duration": 0.1840909090909122,
                "tempo": 120.0
            },
            {
                "start_time": 33.94772727272727,
                "end_time": 34.13181818181818,
                "pitch": 40,
                "velocity": 51,
                "duration": 0.1840909090909122,
                "tempo": 120.0
            },
            {
                "start_time": 34.14772727272727,
                "end_time": 34.32727272727273,
                "pitch": 41,
                "velocity": 51,
                "duration": 0.17954545454545467,
                "tempo": 120.0
            },
            {
                "start_time": 34.34318181818182,
                "end_time": 34.425,
                "pitch": 41,
                "velocity": 51,
                "duration": 0.08181818181817846,
                "tempo": 120.0
            },
            {
                "start_time": 34.44318181818181,
                "end_time": 34.525,
                "pitch": 41,
                "velocity": 51,
                "duration": 0.08181818181818556,
                "tempo": 120.0
            },
            {
                "start_time": 34.54090909090909,
                "end_time": 34.725,
                "pitch": 41,
                "velocity": 51,
                "duration": 0.1840909090909122,
                "tempo": 120.0
            },
            {
                "start_time": 34.74090909090909,
                "end_time": 34.824999999999996,
                "pitch": 41,
                "velocity": 51,
                "duration": 0.08409090909090366,
                "tempo": 120.0
            },
            {
                "start_time": 34.84318181818182,
                "end_time": 34.92727272727272,
                "pitch": 41,
                "velocity": 51,
                "duration": 0.08409090909090366,
                "tempo": 120.0
            },
            {
                "start_time": 34.94318181818181,
                "end_time": 35.127272727272725,
                "pitch": 41,
                "velocity": 51,
                "duration": 0.1840909090909122,
                "tempo": 120.0
            },
            {
                "start_time": 35.143181818181816,
                "end_time": 35.22727272727273,
                "pitch": 41,
                "velocity": 51,
                "duration": 0.08409090909091077,
                "tempo": 120.0
            },
            {
                "start_time": 35.24318181818182,
                "end_time": 35.32727272727273,
                "pitch": 41,
                "velocity": 51,
                "duration": 0.08409090909091077,
                "tempo": 120.0
            },
            {
                "start_time": 35.34318181818182,
                "end_time": 35.527272727272724,
                "pitch": 41,
                "velocity": 51,
                "duration": 0.18409090909090509,
                "tempo": 120.0
            },
            {
                "start_time": 35.543181818181814,
                "end_time": 35.627272727272725,
                "pitch": 41,
                "velocity": 51,
                "duration": 0.08409090909091077,
                "tempo": 120.0
            },
            {
                "start_time": 35.643181818181816,
                "end_time": 35.72727272727273,
                "pitch": 41,
                "velocity": 51,
                "duration": 0.08409090909091077,
                "tempo": 120.0
            },
            {
                "start_time": 35.74318181818182,
                "end_time": 35.93181818181818,
                "pitch": 41,
                "velocity": 51,
                "duration": 0.1886363636363626,
                "tempo": 120.0
            },
            {
                "start_time": 35.94772727272727,
                "end_time": 36.03409090909091,
                "pitch": 41,
                "velocity": 51,
                "duration": 0.08636363636363598,
                "tempo": 120.0
            },
            {
                "start_time": 36.05,
                "end_time": 36.13636363636363,
                "pitch": 41,
                "velocity": 51,
                "duration": 0.08636363636363598,
                "tempo": 120.0
            },
            {
                "start_time": 36.154545454545456,
                "end_time": 36.33409090909091,
                "pitch": 41,
                "velocity": 51,
                "duration": 0.17954545454545467,
                "tempo": 120.0
            },
            {
                "start_time": 36.35,
                "end_time": 36.529545454545456,
                "pitch": 41,
                "velocity": 51,
                "duration": 0.17954545454545467,
                "tempo": 120.0
            },
            {
                "start_time": 36.54545454545455,
                "end_time": 36.73409090909091,
                "pitch": 41,
                "velocity": 51,
                "duration": 0.1886363636363626,
                "tempo": 120.0
            },
            {
                "start_time": 36.75,
                "end_time": 36.93863636363636,
                "pitch": 45,
                "velocity": 51,
                "duration": 0.1886363636363626,
                "tempo": 120.0
            },
            {
                "start_time": 36.95681818181818,
                "end_time": 37.13636363636363,
                "pitch": 43,
                "velocity": 51,
                "duration": 0.17954545454545467,
                "tempo": 120.0
            },
            {
                "start_time": 37.152272727272724,
                "end_time": 37.33181818181818,
                "pitch": 41,
                "velocity": 51,
                "duration": 0.17954545454545467,
                "tempo": 120.0
            },
            {
                "start_time": 37.34772727272727,
                "end_time": 37.53181818181818,
                "pitch": 40,
                "velocity": 51,
                "duration": 0.1840909090909122,
                "tempo": 120.0
            },
            {
                "start_time": 37.54772727272727,
                "end_time": 37.63181818181818,
                "pitch": 40,
                "velocity": 51,
                "duration": 0.08409090909091077,
                "tempo": 120.0
            },
            {
                "start_time": 37.64772727272727,
                "end_time": 37.73181818181818,
                "pitch": 40,
                "velocity": 51,
                "duration": 0.08409090909090366,
                "tempo": 120.0
            },
            {
                "start_time": 37.74772727272727,
                "end_time": 37.93636363636364,
                "pitch": 40,
                "velocity": 51,
                "duration": 0.1886363636363697,
                "tempo": 120.0
            },
            {
                "start_time": 37.95454545454545,
                "end_time": 38.038636363636364,
                "pitch": 40,
                "velocity": 51,
                "duration": 0.08409090909091077,
                "tempo": 120.0
            },
            {
                "start_time": 38.05681818181818,
                "end_time": 38.143181818181816,
                "pitch": 40,
                "velocity": 51,
                "duration": 0.08636363636363598,
                "tempo": 120.0
            },
            {
                "start_time": 38.15909090909091,
                "end_time": 38.33863636363636,
                "pitch": 40,
                "velocity": 51,
                "duration": 0.17954545454545467,
                "tempo": 120.0
            },
            {
                "start_time": 38.35454545454545,
                "end_time": 38.43636363636364,
                "pitch": 40,
                "velocity": 51,
                "duration": 0.08181818181818556,
                "tempo": 120.0
            },
            {
                "start_time": 38.45227272727273,
                "end_time": 38.53409090909091,
                "pitch": 40,
                "velocity": 51,
                "duration": 0.08181818181817846,
                "tempo": 120.0
            },
            {
                "start_time": 38.55227272727272,
                "end_time": 38.736363636363635,
                "pitch": 40,
                "velocity": 51,
                "duration": 0.1840909090909122,
                "tempo": 120.0
            },
            {
                "start_time": 38.752272727272725,
                "end_time": 38.836363636363636,
                "pitch": 40,
                "velocity": 51,
                "duration": 0.08409090909091077,
                "tempo": 120.0
            },
            {
                "start_time": 38.85227272727273,
                "end_time": 38.93636363636364,
                "pitch": 40,
                "velocity": 51,
                "duration": 0.08409090909091077,
                "tempo": 120.0
            },
            {
                "start_time": 38.95454545454545,
                "end_time": 39.13636363636363,
                "pitch": 40,
                "velocity": 51,
                "duration": 0.18181818181817988,
                "tempo": 120.0
            },
            {
                "start_time": 39.154545454545456,
                "end_time": 39.236363636363635,
                "pitch": 40,
                "velocity": 51,
                "duration": 0.08181818181817846,
                "tempo": 120.0
            },
            {
                "start_time": 39.25454545454545,
                "end_time": 39.336363636363636,
                "pitch": 40,
                "velocity": 51,
                "duration": 0.08181818181818556,
                "tempo": 120.0
            },
            {
                "start_time": 39.35454545454545,
                "end_time": 39.53636363636363,
                "pitch": 40,
                "velocity": 51,
                "duration": 0.18181818181817988,
                "tempo": 120.0
            },
            {
                "start_time": 39.554545454545455,
                "end_time": 39.63636363636363,
                "pitch": 40,
                "velocity": 51,
                "duration": 0.08181818181817846,
                "tempo": 120.0
            },
            {
                "start_time": 39.654545454545456,
                "end_time": 39.736363636363635,
                "pitch": 40,
                "velocity": 51,
                "duration": 0.08181818181817846,
                "tempo": 120.0
            },
            {
                "start_time": 39.75454545454545,
                "end_time": 39.93636363636364,
                "pitch": 40,
                "velocity": 51,
                "duration": 0.18181818181818699,
                "tempo": 120.0
            },
            {
                "start_time": 39.95454545454545,
                "end_time": 40.03636363636363,
                "pitch": 40,
                "velocity": 51,
                "duration": 0.08181818181817846,
                "tempo": 120.0
            },
            {
                "start_time": 40.054545454545455,
                "end_time": 40.13636363636363,
                "pitch": 40,
                "velocity": 51,
                "duration": 0.08181818181817846,
                "tempo": 120.0
            },
            {
                "start_time": 40.154545454545456,
                "end_time": 40.74545454545454,
                "pitch": 40,
                "velocity": 51,
                "duration": 0.5909090909090864,
                "tempo": 120.0
            },
            {
                "start_time": 40.76136363636363,
                "end_time": 40.94090909090909,
                "pitch": 36,
                "velocity": 51,
                "duration": 0.17954545454545467,
                "tempo": 120.0
            },
            {
                "start_time": 40.95681818181818,
                "end_time": 41.35,
                "pitch": 36,
                "velocity": 51,
                "duration": 0.39318181818182296,
                "tempo": 120.0
            },
            {
                "start_time": 41.36818181818182,
                "end_time": 41.75,
                "pitch": 36,
                "velocity": 51,
                "duration": 0.3818181818181827,
                "tempo": 120.0
            },
            {
                "start_time": 41.768181818181816,
                "end_time": 41.94772727272727,
                "pitch": 36,
                "velocity": 51,
                "duration": 0.17954545454545467,
                "tempo": 120.0
            },
            {
                "start_time": 41.96363636363636,
                "end_time": 42.34318181818182,
                "pitch": 38,
                "velocity": 51,
                "duration": 0.3795454545454575,
                "tempo": 120.0
            },
            {
                "start_time": 42.35909090909091,
                "end_time": 42.543181818181814,
                "pitch": 38,
                "velocity": 51,
                "duration": 0.18409090909090509,
                "tempo": 120.0
            },
            {
                "start_time": 42.559090909090905,
                "end_time": 42.945454545454545,
                "pitch": 38,
                "velocity": 51,
                "duration": 0.38636363636364024,
                "tempo": 120.0
            },
            {
                "start_time": 42.961363636363636,
                "end_time": 43.35681818181818,
                "pitch": 40,
                "velocity": 51,
                "duration": 0.39545454545454106,
                "tempo": 120.0
            },
            {
                "start_time": 43.37272727272727,
                "end_time": 43.75,
                "pitch": 40,
                "velocity": 51,
                "duration": 0.3772727272727323,
                "tempo": 120.0
            }
        ]
    }
}