{
    "track_id": "Phantasy Star (FM) - 08 - Church",
    "mood": "angry",
    "instruments": {
        "Church Organ": [
            {
                "start_time": 0.0,
                "end_time": 0.08409090909090909,
                "pitch": 57,
                "velocity": 80,
                "duration": 0.08409090909090909,
                "tempo": 120.0
            },
            {
                "start_time": 0.09999999999999999,
                "end_time": 0.18409090909090908,
                "pitch": 56,
                "velocity": 80,
                "duration": 0.08409090909090909,
                "tempo": 120.0
            },
            {
                "start_time": 0.19999999999999998,
                "end_time": 1.384090909090909,
                "pitch": 57,
                "velocity": 80,
                "duration": 1.184090909090909,
                "tempo": 120.0
            },
            {
                "start_time": 1.4,
                "end_time": 1.784090909090909,
                "pitch": 52,
                "velocity": 80,
                "duration": 0.38409090909090904,
                "tempo": 120.0
            },
            {
                "start_time": 1.7999999999999998,
                "end_time": 2.186363636363636,
                "pitch": 53,
                "velocity": 80,
                "duration": 0.38636363636363624,
                "tempo": 120.0
            },
            {
                "start_time": 2.202272727272727,
                "end_time": 2.5886363636363634,
                "pitch": 55,
                "velocity": 80,
                "duration": 0.38636363636363624,
                "tempo": 120.0
            },
            {
                "start_time": 2.6045454545454545,
                "end_time": 2.9886363636363633,
                "pitch": 56,
                "velocity": 80,
                "duration": 0.3840909090909088,
                "tempo": 120.0
            },
            {
                "start_time": 3.0045454545454544,
                "end_time": 4.790909090909091,
                "pitch": 57,
                "velocity": 80,
                "duration": 1.7863636363636366,
                "tempo": 120.0
            },
            {
                "start_time": 4.809090909090909,
                "end_time": 4.99090909090909,
                "pitch": 52,
                "velocity": 80,
                "duration": 0.18181818181818166,
                "tempo": 120.0
            },
            {
                "start_time": 5.009090909090909,
                "end_time": 6.3977272727272725,
                "pitch": 52,
                "velocity": 80,
                "duration": 1.3886363636363637,
                "tempo": 120.0
            },
            {
                "start_time": 6.413636363636363,
                "end_time": 6.497727272727272,
                "pitch": 57,
                "velocity": 80,
                "duration": 0.084090909090909,
                "tempo": 120.0
            },
            {
                "start_time": 6.515909090909091,
                "end_time": 6.6,
                "pitch": 56,
                "velocity": 80,
                "duration": 0.084090909090909,
                "tempo": 120.0
            },
            {
                "start_time": 19.272727272727273,
                "end_time": 19.35681818181818,
                "pitch": 57,
                "velocity": 80,
                "duration": 0.08409090909090722,
                "tempo": 120.0
            },
            {
                "start_time": 19.37272727272727,
                "end_time": 19.456818181818182,
                "pitch": 56,
                "velocity": 80,
                "duration": 0.08409090909091077,
                "tempo": 120.0
            }
        ],
        "Electric Guitar (clean)": [
            {
                "start_time": 6.61590909090909,
                "end_time": 7.804545454545454,
                "pitch": 57,
                "velocity": 80,
                "duration": 1.1886363636363635,
                "tempo": 120.0
            },
            {
                "start_time": 7.820454545454545,
                "end_time": 8.204545454545455,
                "pitch": 52,
                "velocity": 80,
                "duration": 0.3840909090909097,
                "tempo": 120.0
            },
            {
                "start_time": 8.220454545454546,
                "end_time": 8.604545454545454,
                "pitch": 53,
                "velocity": 80,
                "duration": 0.38409090909090793,
                "tempo": 120.0
            },
            {
                "start_time": 8.620454545454544,
                "end_time": 9.006818181818181,
                "pitch": 55,
                "velocity": 80,
                "duration": 0.3863636363636367,
                "tempo": 120.0
            },
            {
                "start_time": 9.025,
                "end_time": 9.409090909090908,
                "pitch": 59,
                "velocity": 80,
                "duration": 0.38409090909090793,
                "tempo": 120.0
            },
            {
                "start_time": 9.427272727272728,
                "end_time": 9.813636363636363,
                "pitch": 56,
                "velocity": 80,
                "duration": 0.3863636363636349,
                "tempo": 120.0
            },
            {
                "start_time": 9.829545454545453,
                "end_time": 11.420454545454545,
                "pitch": 57,
                "velocity": 80,
                "duration": 1.5909090909090917,
                "tempo": 120.0
            },
            {
                "start_time": 13.045454545454545,
                "end_time": 13.229545454545454,
                "pitch": 65,
                "velocity": 80,
                "duration": 0.18409090909090864,
                "tempo": 120.0
            },
            {
                "start_time": 13.247727272727271,
                "end_time": 13.431818181818182,
                "pitch": 62,
                "velocity": 80,
                "duration": 0.18409090909091042,
                "tempo": 120.0
            },
            {
                "start_time": 13.447727272727272,
                "end_time": 13.631818181818181,
                "pitch": 64,
                "velocity": 80,
                "duration": 0.18409090909090864,
                "tempo": 120.0
            },
            {
                "start_time": 13.649999999999999,
                "end_time": 13.834090909090909,
                "pitch": 60,
                "velocity": 80,
                "duration": 0.18409090909091042,
                "tempo": 120.0
            },
            {
                "start_time": 13.85,
                "end_time": 14.036363636363635,
                "pitch": 62,
                "velocity": 80,
                "duration": 0.18636363636363562,
                "tempo": 120.0
            },
            {
                "start_time": 14.052272727272726,
                "end_time": 14.236363636363636,
                "pitch": 64,
                "velocity": 80,
                "duration": 0.18409090909091042,
                "tempo": 120.0
            },
            {
                "start_time": 14.254545454545454,
                "end_time": 14.436363636363636,
                "pitch": 59,
                "velocity": 80,
                "duration": 0.18181818181818166,
                "tempo": 120.0
            },
            {
                "start_time": 14.454545454545453,
                "end_time": 14.636363636363635,
                "pitch": 62,
                "velocity": 80,
                "duration": 0.18181818181818166,
                "tempo": 120.0
            },
            {
                "start_time": 14.654545454545454,
                "end_time": 14.838636363636363,
                "pitch": 65,
                "velocity": 80,
                "duration": 0.18409090909090864,
                "tempo": 120.0
            },
            {
                "start_time": 14.854545454545454,
                "end_time": 15.038636363636362,
                "pitch": 62,
                "velocity": 80,
                "duration": 0.18409090909090864,
                "tempo": 120.0
            },
            {
                "start_time": 15.056818181818182,
                "end_time": 15.24090909090909,
                "pitch": 64,
                "velocity": 80,
                "duration": 0.18409090909090864,
                "tempo": 120.0
            },
            {
                "start_time": 15.256818181818181,
                "end_time": 15.443181818181817,
                "pitch": 60,
                "velocity": 80,
                "duration": 0.18636363636363562,
                "tempo": 120.0
            },
            {
                "start_time": 15.459090909090909,
                "end_time": 15.845454545454544,
                "pitch": 62,
                "velocity": 80,
                "duration": 0.3863636363636349,
                "tempo": 120.0
            },
            {
                "start_time": 15.861363636363636,
                "end_time": 16.24772727272727,
                "pitch": 59,
                "velocity": 80,
                "duration": 0.3863636363636349,
                "tempo": 120.0
            },
            {
                "start_time": 16.263636363636362,
                "end_time": 16.44772727272727,
                "pitch": 65,
                "velocity": 80,
                "duration": 0.18409090909090864,
                "tempo": 120.0
            },
            {
                "start_time": 16.46363636363636,
                "end_time": 16.647727272727273,
                "pitch": 62,
                "velocity": 80,
                "duration": 0.1840909090909122,
                "tempo": 120.0
            },
            {
                "start_time": 16.663636363636364,
                "end_time": 16.849999999999998,
                "pitch": 64,
                "velocity": 80,
                "duration": 0.18636363636363384,
                "tempo": 120.0
            },
            {
                "start_time": 16.86590909090909,
                "end_time": 17.05,
                "pitch": 60,
                "velocity": 80,
                "duration": 0.1840909090909122,
                "tempo": 120.0
            },
            {
                "start_time": 17.068181818181817,
                "end_time": 17.25,
                "pitch": 62,
                "velocity": 80,
                "duration": 0.18181818181818343,
                "tempo": 120.0
            },
            {
                "start_time": 17.268181818181816,
                "end_time": 17.45,
                "pitch": 64,
                "velocity": 80,
                "duration": 0.18181818181818343,
                "tempo": 120.0
            },
            {
                "start_time": 17.46818181818182,
                "end_time": 17.65,
                "pitch": 65,
                "velocity": 80,
                "duration": 0.18181818181817988,
                "tempo": 120.0
            },
            {
                "start_time": 17.668181818181818,
                "end_time": 17.849999999999998,
                "pitch": 67,
                "velocity": 80,
                "duration": 0.18181818181817988,
                "tempo": 120.0
            },
            {
                "start_time": 17.868181818181817,
                "end_time": 19.25681818181818,
                "pitch": 67,
                "velocity": 80,
                "duration": 1.388636363636362,
                "tempo": 120.0
            }
        ],
        "Flute": [
            {
                "start_time": 0.19999999999999998,
                "end_time": 0.984090909090909,
                "pitch": 52,
                "velocity": 51,
                "duration": 0.7840909090909091,
                "tempo": 120.0
            },
            {
                "start_time": 1.0,
                "end_time": 1.784090909090909,
                "pitch": 55,
                "velocity": 51,
                "duration": 0.784090909090909,
                "tempo": 120.0
            },
            {
                "start_time": 1.7999999999999998,
                "end_time": 2.5886363636363634,
                "pitch": 57,
                "velocity": 51,
                "duration": 0.7886363636363636,
                "tempo": 120.0
            },
            {
                "start_time": 2.6045454545454545,
                "end_time": 3.3886363636363637,
                "pitch": 50,
                "velocity": 51,
                "duration": 0.7840909090909092,
                "tempo": 120.0
            },
            {
                "start_time": 3.4045454545454543,
                "end_time": 4.99090909090909,
                "pitch": 53,
                "velocity": 51,
                "duration": 1.586363636363636,
                "tempo": 120.0
            },
            {
                "start_time": 5.009090909090909,
                "end_time": 6.6,
                "pitch": 52,
                "velocity": 51,
                "duration": 1.5909090909090908,
                "tempo": 120.0
            },
            {
                "start_time": 6.61590909090909,
                "end_time": 7.402272727272727,
                "pitch": 52,
                "velocity": 51,
                "duration": 0.786363636363637,
                "tempo": 120.0
            },
            {
                "start_time": 7.418181818181818,
                "end_time": 8.204545454545455,
                "pitch": 57,
                "velocity": 51,
                "duration": 0.786363636363637,
                "tempo": 120.0
            },
            {
                "start_time": 8.220454545454546,
                "end_time": 9.006818181818181,
                "pitch": 50,
                "velocity": 51,
                "duration": 0.7863636363636353,
                "tempo": 120.0
            },
            {
                "start_time": 9.025,
                "end_time": 9.813636363636363,
                "pitch": 53,
                "velocity": 51,
                "duration": 0.7886363636363622,
                "tempo": 120.0
            },
            {
                "start_time": 9.829545454545453,
                "end_time": 11.420454545454545,
                "pitch": 52,
                "velocity": 51,
                "duration": 1.5909090909090917,
                "tempo": 120.0
            },
            {
                "start_time": 13.045454545454545,
                "end_time": 13.229545454545454,
                "pitch": 60,
                "velocity": 51,
                "duration": 0.18409090909090864,
                "tempo": 120.0
            },
            {
                "start_time": 13.247727272727271,
                "end_time": 13.431818181818182,
                "pitch": 57,
                "velocity": 51,
                "duration": 0.18409090909091042,
                "tempo": 120.0
            },
            {
                "start_time": 13.447727272727272,
                "end_time": 13.631818181818181,
                "pitch": 59,
                "velocity": 51,
                "duration": 0.18409090909090864,
                "tempo": 120.0
            },
            {
                "start_time": 13.649999999999999,
                "end_time": 14.636363636363635,
                "pitch": 55,
                "velocity": 51,
                "duration": 0.9863636363636363,
                "tempo": 120.0
            },
            {
                "start_time": 14.654545454545454,
                "end_time": 14.838636363636363,
                "pitch": 60,
                "velocity": 51,
                "duration": 0.18409090909090864,
                "tempo": 120.0
            },
            {
                "start_time": 14.854545454545454,
                "end_time": 15.038636363636362,
                "pitch": 57,
                "velocity": 51,
                "duration": 0.18409090909090864,
                "tempo": 120.0
            },
            {
                "start_time": 15.056818181818182,
                "end_time": 15.24090909090909,
                "pitch": 59,
                "velocity": 51,
                "duration": 0.18409090909090864,
                "tempo": 120.0
            },
            {
                "start_time": 15.256818181818181,
                "end_time": 16.24772727272727,
                "pitch": 55,
                "velocity": 51,
                "duration": 0.9909090909090903,
                "tempo": 120.0
            },
            {
                "start_time": 16.263636363636362,
                "end_time": 16.44772727272727,
                "pitch": 55,
                "velocity": 51,
                "duration": 0.18409090909090864,
                "tempo": 120.0
            },
            {
                "start_time": 16.46363636363636,
                "end_time": 16.647727272727273,
                "pitch": 53,
                "velocity": 51,
                "duration": 0.1840909090909122,
                "tempo": 120.0
            },
            {
                "start_time": 16.663636363636364,
                "end_time": 16.849999999999998,
                "pitch": 55,
                "velocity": 51,
                "duration": 0.18636363636363384,
                "tempo": 120.0
            },
            {
                "start_time": 16.86590909090909,
                "end_time": 17.05,
                "pitch": 52,
                "velocity": 51,
                "duration": 0.1840909090909122,
                "tempo": 120.0
            },
            {
                "start_time": 17.068181818181817,
                "end_time": 17.25,
                "pitch": 53,
                "velocity": 51,
                "duration": 0.18181818181818343,
                "tempo": 120.0
            },
            {
                "start_time": 17.268181818181816,
                "end_time": 17.45,
                "pitch": 55,
                "velocity": 51,
                "duration": 0.18181818181818343,
                "tempo": 120.0
            },
            {
                "start_time": 17.46818181818182,
                "end_time": 17.65,
                "pitch": 57,
                "velocity": 51,
                "duration": 0.18181818181817988,
                "tempo": 120.0
            },
            {
                "start_time": 17.668181818181818,
                "end_time": 17.849999999999998,
                "pitch": 59,
                "velocity": 51,
                "duration": 0.18181818181817988,
                "tempo": 120.0
            },
            {
                "start_time": 17.868181818181817,
                "end_time": 18.652272727272727,
                "pitch": 71,
                "velocity": 51,
                "duration": 0.7840909090909101,
                "tempo": 120.0
            },
            {
                "start_time": 18.670454545454543,
                "end_time": 19.25681818181818,
                "pitch": 70,
                "velocity": 51,
                "duration": 0.586363636363636,
                "tempo": 120.0
            }
        ],
        "Acoustic Grand Piano": [
            {
                "start_time": 0.19999999999999998,
                "end_time": 0.984090909090909,
                "pitch": 45,
                "velocity": 51,
                "duration": 0.7840909090909091,
                "tempo": 120.0
            },
            {
                "start_time": 1.0,
                "end_time": 1.784090909090909,
                "pitch": 40,
                "velocity": 51,
                "duration": 0.784090909090909,
                "tempo": 120.0
            },
            {
                "start_time": 1.7999999999999998,
                "end_time": 2.5886363636363634,
                "pitch": 41,
                "velocity": 51,
                "duration": 0.7886363636363636,
                "tempo": 120.0
            },
            {
                "start_time": 2.6045454545454545,
                "end_time": 3.3886363636363637,
                "pitch": 38,
                "velocity": 51,
                "duration": 0.7840909090909092,
                "tempo": 120.0
            },
            {
                "start_time": 3.4045454545454543,
                "end_time": 4.1886363636363635,
                "pitch": 45,
                "velocity": 51,
                "duration": 0.7840909090909092,
                "tempo": 120.0
            },
            {
                "start_time": 4.204545454545454,
                "end_time": 4.99090909090909,
                "pitch": 50,
                "velocity": 51,
                "duration": 0.7863636363636362,
                "tempo": 120.0
            },
            {
                "start_time": 5.009090909090909,
                "end_time": 5.797727272727273,
                "pitch": 45,
                "velocity": 51,
                "duration": 0.788636363636364,
                "tempo": 120.0
            },
            {
                "start_time": 5.8136363636363635,
                "end_time": 6.6,
                "pitch": 40,
                "velocity": 51,
                "duration": 0.7863636363636362,
                "tempo": 120.0
            },
            {
                "start_time": 6.61590909090909,
                "end_time": 7.402272727272727,
                "pitch": 45,
                "velocity": 51,
                "duration": 0.786363636363637,
                "tempo": 120.0
            },
            {
                "start_time": 7.418181818181818,
                "end_time": 8.204545454545455,
                "pitch": 40,
                "velocity": 51,
                "duration": 0.786363636363637,
                "tempo": 120.0
            },
            {
                "start_time": 8.220454545454546,
                "end_time": 9.006818181818181,
                "pitch": 41,
                "velocity": 51,
                "duration": 0.7863636363636353,
                "tempo": 120.0
            },
            {
                "start_time": 9.025,
                "end_time": 9.813636363636363,
                "pitch": 38,
                "velocity": 51,
                "duration": 0.7886363636363622,
                "tempo": 120.0
            },
            {
                "start_time": 9.829545454545453,
                "end_time": 10.61590909090909,
                "pitch": 45,
                "velocity": 51,
                "duration": 0.786363636363637,
                "tempo": 120.0
            },
            {
                "start_time": 10.631818181818181,
                "end_time": 11.420454545454545,
                "pitch": 47,
                "velocity": 51,
                "duration": 0.788636363636364,
                "tempo": 120.0
            },
            {
                "start_time": 11.438636363636363,
                "end_time": 13.029545454545454,
                "pitch": 45,
                "velocity": 51,
                "duration": 1.5909090909090917,
                "tempo": 120.0
            },
            {
                "start_time": 13.045454545454545,
                "end_time": 13.834090909090909,
                "pitch": 41,
                "velocity": 51,
                "duration": 0.788636363636364,
                "tempo": 120.0
            },
            {
                "start_time": 13.85,
                "end_time": 14.636363636363635,
                "pitch": 40,
                "velocity": 51,
                "duration": 0.7863636363636353,
                "tempo": 120.0
            },
            {
                "start_time": 14.654545454545454,
                "end_time": 15.443181818181817,
                "pitch": 38,
                "velocity": 51,
                "duration": 0.7886363636363622,
                "tempo": 120.0
            },
            {
                "start_time": 15.459090909090909,
                "end_time": 16.24772727272727,
                "pitch": 40,
                "velocity": 51,
                "duration": 0.7886363636363622,
                "tempo": 120.0
            },
            {
                "start_time": 16.263636363636362,
                "end_time": 17.05,
                "pitch": 41,
                "velocity": 51,
                "duration": 0.7863636363636388,
                "tempo": 120.0
            },
            {
                "start_time": 17.068181818181817,
                "end_time": 17.849999999999998,
                "pitch": 47,
                "velocity": 51,
                "duration": 0.7818181818181813,
                "tempo": 120.0
            },
            {
                "start_time": 17.868181818181817,
                "end_time": 18.652272727272727,
                "pitch": 45,
                "velocity": 51,
                "duration": 0.7840909090909101,
                "tempo": 120.0
            },
            {
                "start_time": 18.670454545454543,
                "end_time": 19.25681818181818,
                "pitch": 41,
                "velocity": 51,
                "duration": 0.586363636363636,
                "tempo": 120.0
            }
        ]
    }
}