{
    "track_id": "Phantasy Star (FM) - 11 - Motavia",
    "mood": "angry",
    "instruments": {
        "Harpsichord": [
            {
                "start_time": 0.0,
                "end_time": 0.18409090909090908,
                "pitch": 70,
                "velocity": 127,
                "duration": 0.18409090909090908,
                "tempo": 120.0
            },
            {
                "start_time": 0.19999999999999998,
                "end_time": 0.3840909090909091,
                "pitch": 72,
                "velocity": 127,
                "duration": 0.1840909090909091,
                "tempo": 120.0
            },
            {
                "start_time": 0.39999999999999997,
                "end_time": 0.5840909090909091,
                "pitch": 73,
                "velocity": 127,
                "duration": 0.18409090909090914,
                "tempo": 120.0
            },
            {
                "start_time": 0.6,
                "end_time": 0.6840909090909091,
                "pitch": 72,
                "velocity": 127,
                "duration": 0.0840909090909091,
                "tempo": 120.0
            },
            {
                "start_time": 0.7,
                "end_time": 0.984090909090909,
                "pitch": 70,
                "velocity": 127,
                "duration": 0.28409090909090906,
                "tempo": 120.0
            },
            {
                "start_time": 1.0,
                "end_time": 1.184090909090909,
                "pitch": 72,
                "velocity": 127,
                "duration": 0.18409090909090908,
                "tempo": 120.0
            },
            {
                "start_time": 1.2,
                "end_time": 1.384090909090909,
                "pitch": 73,
                "velocity": 127,
                "duration": 0.18409090909090908,
                "tempo": 120.0
            },
            {
                "start_time": 1.4,
                "end_time": 1.9863636363636363,
                "pitch": 75,
                "velocity": 127,
                "duration": 0.5863636363636364,
                "tempo": 120.0
            },
            {
                "start_time": 2.002272727272727,
                "end_time": 2.186363636363636,
                "pitch": 75,
                "velocity": 127,
                "duration": 0.18409090909090908,
                "tempo": 120.0
            },
            {
                "start_time": 2.202272727272727,
                "end_time": 2.3863636363636362,
                "pitch": 72,
                "velocity": 127,
                "duration": 0.18409090909090908,
                "tempo": 120.0
            },
            {
                "start_time": 2.4022727272727273,
                "end_time": 2.5863636363636364,
                "pitch": 73,
                "velocity": 127,
                "duration": 0.18409090909090908,
                "tempo": 120.0
            },
            {
                "start_time": 2.602272727272727,
                "end_time": 2.786363636363636,
                "pitch": 72,
                "velocity": 127,
                "duration": 0.18409090909090908,
                "tempo": 120.0
            },
            {
                "start_time": 2.8022727272727272,
                "end_time": 3.186363636363636,
                "pitch": 70,
                "velocity": 127,
                "duration": 0.3840909090909088,
                "tempo": 120.0
            },
            {
                "start_time": 3.202272727272727,
                "end_time": 4.790909090909091,
                "pitch": 70,
                "velocity": 127,
                "duration": 1.5886363636363638,
                "tempo": 120.0
            },
            {
                "start_time": 4.809090909090909,
                "end_time": 6.3977272727272725,
                "pitch": 65,
                "velocity": 127,
                "duration": 1.5886363636363638,
                "tempo": 120.0
            },
            {
                "start_time": 6.413636363636363,
                "end_time": 6.597727272727273,
                "pitch": 70,
                "velocity": 127,
                "duration": 0.18409090909090953,
                "tempo": 120.0
            },
            {
                "start_time": 6.61590909090909,
                "end_time": 6.8,
                "pitch": 72,
                "velocity": 127,
                "duration": 0.18409090909090953,
                "tempo": 120.0
            },
            {
                "start_time": 6.8159090909090905,
                "end_time": 7.0,
                "pitch": 73,
                "velocity": 127,
                "duration": 0.18409090909090953,
                "tempo": 120.0
            },
            {
                "start_time": 7.015909090909091,
                "end_time": 7.1,
                "pitch": 72,
                "velocity": 127,
                "duration": 0.084090909090909,
                "tempo": 120.0
            },
            {
                "start_time": 7.11590909090909,
                "end_time": 7.3999999999999995,
                "pitch": 70,
                "velocity": 127,
                "duration": 0.28409090909090917,
                "tempo": 120.0
            },
            {
                "start_time": 7.418181818181818,
                "end_time": 7.602272727272727,
                "pitch": 72,
                "velocity": 127,
                "duration": 0.18409090909090864,
                "tempo": 120.0
            },
            {
                "start_time": 7.618181818181818,
                "end_time": 7.802272727272727,
                "pitch": 73,
                "velocity": 127,
                "duration": 0.18409090909090864,
                "tempo": 120.0
            },
            {
                "start_time": 7.8181818181818175,
                "end_time": 8.404545454545454,
                "pitch": 75,
                "velocity": 127,
                "duration": 0.5863636363636369,
                "tempo": 120.0
            },
            {
                "start_time": 8.422727272727272,
                "end_time": 8.60681818181818,
                "pitch": 75,
                "velocity": 127,
                "duration": 0.18409090909090864,
                "tempo": 120.0
            },
            {
                "start_time": 8.622727272727273,
                "end_time": 8.806818181818182,
                "pitch": 72,
                "velocity": 127,
                "duration": 0.18409090909090864,
                "tempo": 120.0
            },
            {
                "start_time": 8.825,
                "end_time": 9.009090909090908,
                "pitch": 73,
                "velocity": 127,
                "duration": 0.18409090909090864,
                "tempo": 120.0
            },
            {
                "start_time": 9.025,
                "end_time": 9.611363636363636,
                "pitch": 72,
                "velocity": 127,
                "duration": 0.586363636363636,
                "tempo": 120.0
            },
            {
                "start_time": 9.627272727272727,
                "end_time": 10.611363636363636,
                "pitch": 78,
                "velocity": 127,
                "duration": 0.9840909090909093,
                "tempo": 120.0
            },
            {
                "start_time": 10.627272727272727,
                "end_time": 10.809090909090909,
                "pitch": 80,
                "velocity": 127,
                "duration": 0.18181818181818166,
                "tempo": 120.0
            },
            {
                "start_time": 10.825,
                "end_time": 11.218181818181817,
                "pitch": 78,
                "velocity": 127,
                "duration": 0.39318181818181763,
                "tempo": 120.0
            },
            {
                "start_time": 11.236363636363636,
                "end_time": 12.827272727272726,
                "pitch": 77,
                "velocity": 127,
                "duration": 1.59090909090909,
                "tempo": 120.0
            },
            {
                "start_time": 12.843181818181817,
                "end_time": 13.027272727272727,
                "pitch": 70,
                "velocity": 127,
                "duration": 0.18409090909091042,
                "tempo": 120.0
            },
            {
                "start_time": 13.045454545454545,
                "end_time": 13.229545454545454,
                "pitch": 72,
                "velocity": 127,
                "duration": 0.18409090909090864,
                "tempo": 120.0
            },
            {
                "start_time": 13.245454545454544,
                "end_time": 13.429545454545455,
                "pitch": 73,
                "velocity": 127,
                "duration": 0.18409090909091042,
                "tempo": 120.0
            },
            {
                "start_time": 13.445454545454545,
                "end_time": 13.529545454545454,
                "pitch": 72,
                "velocity": 127,
                "duration": 0.084090909090909,
                "tempo": 120.0
            },
            {
                "start_time": 13.545454545454545,
                "end_time": 13.829545454545453,
                "pitch": 70,
                "velocity": 127,
                "duration": 0.2840909090909083,
                "tempo": 120.0
            },
            {
                "start_time": 13.847727272727273,
                "end_time": 14.031818181818181,
                "pitch": 72,
                "velocity": 127,
                "duration": 0.18409090909090864,
                "tempo": 120.0
            },
            {
                "start_time": 14.047727272727272,
                "end_time": 14.234090909090908,
                "pitch": 73,
                "velocity": 127,
                "duration": 0.18636363636363562,
                "tempo": 120.0
            },
            {
                "start_time": 14.25,
                "end_time": 14.836363636363636,
                "pitch": 75,
                "velocity": 127,
                "duration": 0.586363636363636,
                "tempo": 120.0
            },
            {
                "start_time": 14.854545454545454,
                "end_time": 15.038636363636362,
                "pitch": 75,
                "velocity": 127,
                "duration": 0.18409090909090864,
                "tempo": 120.0
            },
            {
                "start_time": 15.054545454545455,
                "end_time": 15.24090909090909,
                "pitch": 72,
                "velocity": 127,
                "duration": 0.18636363636363562,
                "tempo": 120.0
            },
            {
                "start_time": 15.256818181818181,
                "end_time": 15.44090909090909,
                "pitch": 73,
                "velocity": 127,
                "duration": 0.18409090909090864,
                "tempo": 120.0
            },
            {
                "start_time": 15.45681818181818,
                "end_time": 15.64090909090909,
                "pitch": 72,
                "velocity": 127,
                "duration": 0.18409090909091042,
                "tempo": 120.0
            },
            {
                "start_time": 15.656818181818181,
                "end_time": 16.043181818181818,
                "pitch": 70,
                "velocity": 127,
                "duration": 0.3863636363636367,
                "tempo": 120.0
            },
            {
                "start_time": 16.05909090909091,
                "end_time": 17.647727272727273,
                "pitch": 70,
                "velocity": 127,
                "duration": 1.5886363636363647,
                "tempo": 120.0
            },
            {
                "start_time": 17.66590909090909,
                "end_time": 19.254545454545454,
                "pitch": 65,
                "velocity": 127,
                "duration": 1.5886363636363647,
                "tempo": 120.0
            },
            {
                "start_time": 19.270454545454545,
                "end_time": 19.454545454545453,
                "pitch": 70,
                "velocity": 127,
                "duration": 0.18409090909090864,
                "tempo": 120.0
            },
            {
                "start_time": 19.470454545454544,
                "end_time": 19.654545454545453,
                "pitch": 72,
                "velocity": 127,
                "duration": 0.18409090909090864,
                "tempo": 120.0
            },
            {
                "start_time": 19.670454545454543,
                "end_time": 19.854545454545452,
                "pitch": 73,
                "velocity": 127,
                "duration": 0.18409090909090864,
                "tempo": 120.0
            },
            {
                "start_time": 19.870454545454546,
                "end_time": 19.954545454545453,
                "pitch": 72,
                "velocity": 127,
                "duration": 0.08409090909090722,
                "tempo": 120.0
            },
            {
                "start_time": 19.972727272727273,
                "end_time": 20.25681818181818,
                "pitch": 70,
                "velocity": 127,
                "duration": 0.2840909090909065,
                "tempo": 120.0
            },
            {
                "start_time": 20.272727272727273,
                "end_time": 20.456818181818182,
                "pitch": 72,
                "velocity": 127,
                "duration": 0.18409090909090864,
                "tempo": 120.0
            },
            {
                "start_time": 20.472727272727273,
                "end_time": 20.65681818181818,
                "pitch": 73,
                "velocity": 127,
                "duration": 0.18409090909090864,
                "tempo": 120.0
            },
            {
                "start_time": 20.672727272727272,
                "end_time": 21.259090909090908,
                "pitch": 75,
                "velocity": 127,
                "duration": 0.586363636363636,
                "tempo": 120.0
            },
            {
                "start_time": 21.275,
                "end_time": 21.459090909090907,
                "pitch": 75,
                "velocity": 127,
                "duration": 0.18409090909090864,
                "tempo": 120.0
            },
            {
                "start_time": 21.474999999999998,
                "end_time": 21.659090909090907,
                "pitch": 72,
                "velocity": 127,
                "duration": 0.18409090909090864,
                "tempo": 120.0
            },
            {
                "start_time": 21.675,
                "end_time": 21.854545454545452,
                "pitch": 73,
                "velocity": 127,
                "duration": 0.17954545454545112,
                "tempo": 120.0
            },
            {
                "start_time": 21.870454545454546,
                "end_time": 22.461363636363636,
                "pitch": 72,
                "velocity": 127,
                "duration": 0.5909090909090899,
                "tempo": 120.0
            },
            {
                "start_time": 22.479545454545452,
                "end_time": 23.46363636363636,
                "pitch": 78,
                "velocity": 127,
                "duration": 0.9840909090909093,
                "tempo": 120.0
            },
            {
                "start_time": 23.48181818181818,
                "end_time": 23.663636363636364,
                "pitch": 77,
                "velocity": 127,
                "duration": 0.18181818181818343,
                "tempo": 120.0
            },
            {
                "start_time": 23.68181818181818,
                "end_time": 24.068181818181817,
                "pitch": 78,
                "velocity": 127,
                "duration": 0.3863636363636367,
                "tempo": 120.0
            },
            {
                "start_time": 24.084090909090907,
                "end_time": 25.670454545454543,
                "pitch": 80,
                "velocity": 127,
                "duration": 1.586363636363636,
                "tempo": 120.0
            }
        ],
        "Trumpet": [
            {
                "start_time": 27.293181818181818,
                "end_time": 27.474999999999998,
                "pitch": 77,
                "velocity": 101,
                "duration": 0.18181818181817988,
                "tempo": 120.0
            },
            {
                "start_time": 27.493181818181817,
                "end_time": 28.077272727272724,
                "pitch": 75,
                "velocity": 101,
                "duration": 0.5840909090909072,
                "tempo": 120.0
            },
            {
                "start_time": 28.095454545454544,
                "end_time": 28.477272727272727,
                "pitch": 74,
                "velocity": 101,
                "duration": 0.3818181818181827,
                "tempo": 120.0
            },
            {
                "start_time": 28.495454545454542,
                "end_time": 28.577272727272724,
                "pitch": 70,
                "velocity": 101,
                "duration": 0.08181818181818201,
                "tempo": 120.0
            },
            {
                "start_time": 28.595454545454544,
                "end_time": 28.677272727272726,
                "pitch": 74,
                "velocity": 101,
                "duration": 0.08181818181818201,
                "tempo": 120.0
            },
            {
                "start_time": 28.695454545454545,
                "end_time": 28.877272727272725,
                "pitch": 75,
                "velocity": 101,
                "duration": 0.18181818181817988,
                "tempo": 120.0
            },
            {
                "start_time": 28.895454545454545,
                "end_time": 29.877272727272725,
                "pitch": 77,
                "velocity": 101,
                "duration": 0.9818181818181806,
                "tempo": 120.0
            },
            {
                "start_time": 29.893181818181816,
                "end_time": 30.48409090909091,
                "pitch": 77,
                "velocity": 101,
                "duration": 0.5909090909090935,
                "tempo": 120.0
            },
            {
                "start_time": 30.5,
                "end_time": 30.68409090909091,
                "pitch": 77,
                "velocity": 101,
                "duration": 0.18409090909090864,
                "tempo": 120.0
            },
            {
                "start_time": 30.7,
                "end_time": 31.286363636363635,
                "pitch": 75,
                "velocity": 101,
                "duration": 0.586363636363636,
                "tempo": 120.0
            },
            {
                "start_time": 31.302272727272726,
                "end_time": 31.686363636363634,
                "pitch": 74,
                "velocity": 101,
                "duration": 0.38409090909090793,
                "tempo": 120.0
            },
            {
                "start_time": 31.702272727272724,
                "end_time": 31.888636363636362,
                "pitch": 72,
                "velocity": 101,
                "duration": 0.1863636363636374,
                "tempo": 120.0
            },
            {
                "start_time": 31.904545454545453,
                "end_time": 33.086363636363636,
                "pitch": 68,
                "velocity": 101,
                "duration": 1.1818181818181834,
                "tempo": 120.0
            },
            {
                "start_time": 33.10227272727273,
                "end_time": 33.486363636363635,
                "pitch": 68,
                "velocity": 101,
                "duration": 0.38409090909090793,
                "tempo": 120.0
            },
            {
                "start_time": 33.502272727272725,
                "end_time": 34.49318181818182,
                "pitch": 70,
                "velocity": 101,
                "duration": 0.9909090909090921,
                "tempo": 120.0
            },
            {
                "start_time": 34.51136363636363,
                "end_time": 35.29545454545455,
                "pitch": 66,
                "velocity": 101,
                "duration": 0.7840909090909136,
                "tempo": 120.0
            },
            {
                "start_time": 35.31136363636364,
                "end_time": 35.69772727272727,
                "pitch": 73,
                "velocity": 101,
                "duration": 0.38636363636363313,
                "tempo": 120.0
            },
            {
                "start_time": 35.71363636363636,
                "end_time": 35.89772727272727,
                "pitch": 70,
                "velocity": 101,
                "duration": 0.1840909090909122,
                "tempo": 120.0
            },
            {
                "start_time": 35.913636363636364,
                "end_time": 36.293181818181814,
                "pitch": 77,
                "velocity": 101,
                "duration": 0.3795454545454504,
                "tempo": 120.0
            },
            {
                "start_time": 36.309090909090905,
                "end_time": 36.48863636363636,
                "pitch": 75,
                "velocity": 101,
                "duration": 0.17954545454545467,
                "tempo": 120.0
            },
            {
                "start_time": 36.50681818181818,
                "end_time": 36.9,
                "pitch": 73,
                "velocity": 101,
                "duration": 0.39318181818181586,
                "tempo": 120.0
            },
            {
                "start_time": 36.91590909090909,
                "end_time": 37.70454545454545,
                "pitch": 75,
                "velocity": 101,
                "duration": 0.788636363636364,
                "tempo": 120.0
            },
            {
                "start_time": 37.720454545454544,
                "end_time": 38.502272727272725,
                "pitch": 73,
                "velocity": 101,
                "duration": 0.7818181818181813,
                "tempo": 120.0
            },
            {
                "start_time": 38.52045454545454,
                "end_time": 38.70227272727273,
                "pitch": 72,
                "velocity": 101,
                "duration": 0.18181818181818699,
                "tempo": 120.0
            },
            {
                "start_time": 38.720454545454544,
                "end_time": 38.902272727272724,
                "pitch": 72,
                "velocity": 101,
                "duration": 0.18181818181817988,
                "tempo": 120.0
            },
            {
                "start_time": 38.92045454545455,
                "end_time": 39.10227272727273,
                "pitch": 75,
                "velocity": 101,
                "duration": 0.18181818181817988,
                "tempo": 120.0
            },
            {
                "start_time": 39.12045454545454,
                "end_time": 39.50454545454545,
                "pitch": 75,
                "velocity": 101,
                "duration": 0.38409090909090793,
                "tempo": 120.0
            },
            {
                "start_time": 39.52045454545454,
                "end_time": 39.70681818181818,
                "pitch": 73,
                "velocity": 101,
                "duration": 0.1863636363636374,
                "tempo": 120.0
            },
            {
                "start_time": 39.72272727272727,
                "end_time": 40.10681818181818,
                "pitch": 72,
                "velocity": 101,
                "duration": 0.38409090909090793,
                "tempo": 120.0
            },
            {
                "start_time": 40.12272727272727,
                "end_time": 40.30681818181818,
                "pitch": 77,
                "velocity": 101,
                "duration": 0.1840909090909122,
                "tempo": 120.0
            },
            {
                "start_time": 40.32272727272727,
                "end_time": 40.90681818181818,
                "pitch": 75,
                "velocity": 101,
                "duration": 0.5840909090909108,
                "tempo": 120.0
            },
            {
                "start_time": 40.92272727272727,
                "end_time": 41.30681818181818,
                "pitch": 74,
                "velocity": 101,
                "duration": 0.38409090909090793,
                "tempo": 120.0
            },
            {
                "start_time": 41.32272727272727,
                "end_time": 41.40681818181818,
                "pitch": 70,
                "velocity": 101,
                "duration": 0.08409090909091077,
                "tempo": 120.0
            },
            {
                "start_time": 41.42272727272727,
                "end_time": 41.50681818181818,
                "pitch": 74,
                "velocity": 101,
                "duration": 0.08409090909091077,
                "tempo": 120.0
            },
            {
                "start_time": 41.525,
                "end_time": 41.709090909090904,
                "pitch": 75,
                "velocity": 101,
                "duration": 0.18409090909090509,
                "tempo": 120.0
            },
            {
                "start_time": 41.725,
                "end_time": 42.70454545454545,
                "pitch": 77,
                "velocity": 101,
                "duration": 0.9795454545454518,
                "tempo": 120.0
            },
            {
                "start_time": 42.720454545454544,
                "end_time": 43.31136363636364,
                "pitch": 77,
                "velocity": 101,
                "duration": 0.5909090909090935,
                "tempo": 120.0
            },
            {
                "start_time": 43.32727272727273,
                "end_time": 43.51363636363636,
                "pitch": 77,
                "velocity": 101,
                "duration": 0.1863636363636303,
                "tempo": 120.0
            },
            {
                "start_time": 43.52954545454545,
                "end_time": 44.11363636363636,
                "pitch": 75,
                "velocity": 101,
                "duration": 0.5840909090909108,
                "tempo": 120.0
            },
            {
                "start_time": 44.13181818181818,
                "end_time": 44.51363636363636,
                "pitch": 74,
                "velocity": 101,
                "duration": 0.3818181818181756,
                "tempo": 120.0
            },
            {
                "start_time": 44.53181818181818,
                "end_time": 44.71363636363636,
                "pitch": 72,
                "velocity": 101,
                "duration": 0.18181818181817988,
                "tempo": 120.0
            },
            {
                "start_time": 44.73181818181818,
                "end_time": 45.91590909090909,
                "pitch": 68,
                "velocity": 101,
                "duration": 1.1840909090909122,
                "tempo": 120.0
            },
            {
                "start_time": 45.934090909090905,
                "end_time": 46.31590909090909,
                "pitch": 68,
                "velocity": 101,
                "duration": 0.3818181818181827,
                "tempo": 120.0
            },
            {
                "start_time": 46.334090909090904,
                "end_time": 47.320454545454545,
                "pitch": 70,
                "velocity": 101,
                "duration": 0.9863636363636417,
                "tempo": 120.0
            },
            {
                "start_time": 47.336363636363636,
                "end_time": 48.12272727272727,
                "pitch": 66,
                "velocity": 101,
                "duration": 0.7863636363636317,
                "tempo": 120.0
            },
            {
                "start_time": 48.13863636363636,
                "end_time": 48.52272727272727,
                "pitch": 73,
                "velocity": 101,
                "duration": 0.38409090909091503,
                "tempo": 120.0
            },
            {
                "start_time": 48.538636363636364,
                "end_time": 48.71818181818182,
                "pitch": 70,
                "velocity": 101,
                "duration": 0.17954545454545467,
                "tempo": 120.0
            },
            {
                "start_time": 48.73409090909091,
                "end_time": 49.11590909090909,
                "pitch": 77,
                "velocity": 101,
                "duration": 0.3818181818181827,
                "tempo": 120.0
            },
            {
                "start_time": 49.13181818181818,
                "end_time": 49.31590909090909,
                "pitch": 75,
                "velocity": 101,
                "duration": 0.18409090909090509,
                "tempo": 120.0
            },
            {
                "start_time": 49.33181818181818,
                "end_time": 49.724999999999994,
                "pitch": 73,
                "velocity": 101,
                "duration": 0.39318181818181586,
                "tempo": 120.0
            },
            {
                "start_time": 49.740909090909085,
                "end_time": 49.92272727272727,
                "pitch": 72,
                "velocity": 101,
                "duration": 0.18181818181818699,
                "tempo": 120.0
            },
            {
                "start_time": 49.93863636363636,
                "end_time": 50.11818181818182,
                "pitch": 73,
                "velocity": 101,
                "duration": 0.17954545454545467,
                "tempo": 120.0
            },
            {
                "start_time": 50.13409090909091,
                "end_time": 50.31818181818181,
                "pitch": 75,
                "velocity": 101,
                "duration": 0.18409090909090509,
                "tempo": 120.0
            },
            {
                "start_time": 50.334090909090904,
                "end_time": 50.518181818181816,
                "pitch": 72,
                "velocity": 101,
                "duration": 0.1840909090909122,
                "tempo": 120.0
            },
            {
                "start_time": 50.53409090909091,
                "end_time": 50.72272727272727,
                "pitch": 73,
                "velocity": 101,
                "duration": 0.1886363636363626,
                "tempo": 120.0
            },
            {
                "start_time": 50.73863636363636,
                "end_time": 50.92727272727272,
                "pitch": 75,
                "velocity": 101,
                "duration": 0.1886363636363626,
                "tempo": 120.0
            },
            {
                "start_time": 50.945454545454545,
                "end_time": 51.12954545454545,
                "pitch": 72,
                "velocity": 101,
                "duration": 0.18409090909090509,
                "tempo": 120.0
            },
            {
                "start_time": 51.14545454545454,
                "end_time": 51.32954545454545,
                "pitch": 75,
                "velocity": 101,
                "duration": 0.1840909090909122,
                "tempo": 120.0
            },
            {
                "start_time": 51.345454545454544,
                "end_time": 52.92272727272727,
                "pitch": 80,
                "velocity": 101,
                "duration": 1.577272727272728,
                "tempo": 120.0
            }
        ],
        "Acoustic Bass": [
            {
                "start_time": 0.0,
                "end_time": 0.3840909090909091,
                "pitch": 39,
                "velocity": 64,
                "duration": 0.3840909090909091,
                "tempo": 120.0
            },
            {
                "start_time": 0.39999999999999997,
                "end_time": 0.7840909090909091,
                "pitch": 39,
                "velocity": 64,
                "duration": 0.3840909090909091,
                "tempo": 120.0
            },
            {
                "start_time": 0.7999999999999999,
                "end_time": 1.184090909090909,
                "pitch": 39,
                "velocity": 64,
                "duration": 0.38409090909090915,
                "tempo": 120.0
            },
            {
                "start_time": 1.2,
                "end_time": 1.584090909090909,
                "pitch": 39,
                "velocity": 64,
                "duration": 0.38409090909090904,
                "tempo": 120.0
            },
            {
                "start_time": 1.5999999999999999,
                "end_time": 1.9863636363636363,
                "pitch": 39,
                "velocity": 64,
                "duration": 0.38636363636363646,
                "tempo": 120.0
            },
            {
                "start_time": 2.002272727272727,
                "end_time": 2.3863636363636362,
                "pitch": 39,
                "velocity": 64,
                "duration": 0.38409090909090926,
                "tempo": 120.0
            },
            {
                "start_time": 2.4022727272727273,
                "end_time": 2.5863636363636364,
                "pitch": 39,
                "velocity": 64,
                "duration": 0.18409090909090908,
                "tempo": 120.0
            },
            {
                "start_time": 2.602272727272727,
                "end_time": 2.786363636363636,
                "pitch": 37,
                "velocity": 64,
                "duration": 0.18409090909090908,
                "tempo": 120.0
            },
            {
                "start_time": 2.8022727272727272,
                "end_time": 3.186363636363636,
                "pitch": 39,
                "velocity": 64,
                "duration": 0.3840909090909088,
                "tempo": 120.0
            },
            {
                "start_time": 3.202272727272727,
                "end_time": 3.5886363636363634,
                "pitch": 46,
                "velocity": 64,
                "duration": 0.38636363636363624,
                "tempo": 120.0
            },
            {
                "start_time": 3.6045454545454545,
                "end_time": 3.9886363636363633,
                "pitch": 46,
                "velocity": 64,
                "duration": 0.3840909090909088,
                "tempo": 120.0
            },
            {
                "start_time": 4.004545454545454,
                "end_time": 4.388636363636364,
                "pitch": 46,
                "velocity": 64,
                "duration": 0.3840909090909097,
                "tempo": 120.0
            },
            {
                "start_time": 4.404545454545454,
                "end_time": 4.790909090909091,
                "pitch": 46,
                "velocity": 64,
                "duration": 0.3863636363636367,
                "tempo": 120.0
            },
            {
                "start_time": 4.809090909090909,
                "end_time": 5.1909090909090905,
                "pitch": 46,
                "velocity": 64,
                "duration": 0.38181818181818183,
                "tempo": 120.0
            },
            {
                "start_time": 5.209090909090909,
                "end_time": 5.593181818181818,
                "pitch": 46,
                "velocity": 64,
                "duration": 0.3840909090909088,
                "tempo": 120.0
            },
            {
                "start_time": 5.611363636363636,
                "end_time": 5.8,
                "pitch": 46,
                "velocity": 64,
                "duration": 0.1886363636363635,
                "tempo": 120.0
            },
            {
                "start_time": 5.8159090909090905,
                "end_time": 6.004545454545454,
                "pitch": 49,
                "velocity": 64,
                "duration": 0.1886363636363635,
                "tempo": 120.0
            },
            {
                "start_time": 6.0204545454545455,
                "end_time": 6.202272727272727,
                "pitch": 46,
                "velocity": 64,
                "duration": 0.18181818181818166,
                "tempo": 120.0
            },
            {
                "start_time": 6.218181818181818,
                "end_time": 6.3977272727272725,
                "pitch": 46,
                "velocity": 64,
                "duration": 0.17954545454545467,
                "tempo": 120.0
            },
            {
                "start_time": 6.413636363636363,
                "end_time": 6.8,
                "pitch": 39,
                "velocity": 64,
                "duration": 0.3863636363636367,
                "tempo": 120.0
            },
            {
                "start_time": 6.8159090909090905,
                "end_time": 7.199999999999999,
                "pitch": 39,
                "velocity": 64,
                "duration": 0.3840909090909088,
                "tempo": 120.0
            },
            {
                "start_time": 7.215909090909091,
                "end_time": 7.602272727272727,
                "pitch": 39,
                "velocity": 64,
                "duration": 0.3863636363636358,
                "tempo": 120.0
            },
            {
                "start_time": 7.618181818181818,
                "end_time": 8.002272727272727,
                "pitch": 39,
                "velocity": 64,
                "duration": 0.3840909090909088,
                "tempo": 120.0
            },
            {
                "start_time": 8.018181818181818,
                "end_time": 8.404545454545454,
                "pitch": 39,
                "velocity": 64,
                "duration": 0.3863636363636367,
                "tempo": 120.0
            },
            {
                "start_time": 8.422727272727272,
                "end_time": 8.806818181818182,
                "pitch": 39,
                "velocity": 64,
                "duration": 0.3840909090909097,
                "tempo": 120.0
            },
            {
                "start_time": 8.825,
                "end_time": 9.009090909090908,
                "pitch": 39,
                "velocity": 64,
                "duration": 0.18409090909090864,
                "tempo": 120.0
            },
            {
                "start_time": 9.025,
                "end_time": 9.211363636363636,
                "pitch": 37,
                "velocity": 64,
                "duration": 0.18636363636363562,
                "tempo": 120.0
            },
            {
                "start_time": 9.227272727272727,
                "end_time": 9.611363636363636,
                "pitch": 39,
                "velocity": 64,
                "duration": 0.3840909090909097,
                "tempo": 120.0
            },
            {
                "start_time": 9.627272727272727,
                "end_time": 10.013636363636364,
                "pitch": 42,
                "velocity": 64,
                "duration": 0.3863636363636367,
                "tempo": 120.0
            },
            {
                "start_time": 10.029545454545454,
                "end_time": 10.415909090909091,
                "pitch": 42,
                "velocity": 64,
                "duration": 0.3863636363636367,
                "tempo": 120.0
            },
            {
                "start_time": 10.431818181818182,
                "end_time": 10.709090909090909,
                "pitch": 42,
                "velocity": 64,
                "duration": 0.27727272727272734,
                "tempo": 120.0
            },
            {
                "start_time": 10.727272727272727,
                "end_time": 10.809090909090909,
                "pitch": 41,
                "velocity": 64,
                "duration": 0.08181818181818201,
                "tempo": 120.0
            },
            {
                "start_time": 10.825,
                "end_time": 11.218181818181817,
                "pitch": 42,
                "velocity": 64,
                "duration": 0.39318181818181763,
                "tempo": 120.0
            },
            {
                "start_time": 11.236363636363636,
                "end_time": 11.618181818181817,
                "pitch": 41,
                "velocity": 64,
                "duration": 0.38181818181818095,
                "tempo": 120.0
            },
            {
                "start_time": 11.636363636363637,
                "end_time": 12.020454545454545,
                "pitch": 41,
                "velocity": 64,
                "duration": 0.38409090909090793,
                "tempo": 120.0
            },
            {
                "start_time": 12.038636363636362,
                "end_time": 12.222727272727273,
                "pitch": 41,
                "velocity": 64,
                "duration": 0.18409090909091042,
                "tempo": 120.0
            },
            {
                "start_time": 12.238636363636363,
                "end_time": 12.424999999999999,
                "pitch": 42,
                "velocity": 64,
                "duration": 0.18636363636363562,
                "tempo": 120.0
            },
            {
                "start_time": 12.44090909090909,
                "end_time": 12.625,
                "pitch": 44,
                "velocity": 64,
                "duration": 0.18409090909091042,
                "tempo": 120.0
            },
            {
                "start_time": 12.64090909090909,
                "end_time": 12.827272727272726,
                "pitch": 42,
                "velocity": 64,
                "duration": 0.18636363636363562,
                "tempo": 120.0
            },
            {
                "start_time": 12.843181818181817,
                "end_time": 13.229545454545454,
                "pitch": 39,
                "velocity": 64,
                "duration": 0.3863636363636367,
                "tempo": 120.0
            },
            {
                "start_time": 13.245454545454544,
                "end_time": 13.629545454545454,
                "pitch": 39,
                "velocity": 64,
                "duration": 0.3840909090909097,
                "tempo": 120.0
            },
            {
                "start_time": 13.645454545454545,
                "end_time": 14.031818181818181,
                "pitch": 39,
                "velocity": 64,
                "duration": 0.3863636363636367,
                "tempo": 120.0
            },
            {
                "start_time": 14.047727272727272,
                "end_time": 14.434090909090909,
                "pitch": 39,
                "velocity": 64,
                "duration": 0.3863636363636367,
                "tempo": 120.0
            },
            {
                "start_time": 14.452272727272726,
                "end_time": 14.836363636363636,
                "pitch": 39,
                "velocity": 64,
                "duration": 0.3840909090909097,
                "tempo": 120.0
            },
            {
                "start_time": 14.854545454545454,
                "end_time": 15.24090909090909,
                "pitch": 39,
                "velocity": 64,
                "duration": 0.3863636363636367,
                "tempo": 120.0
            },
            {
                "start_time": 15.256818181818181,
                "end_time": 15.44090909090909,
                "pitch": 39,
                "velocity": 64,
                "duration": 0.18409090909090864,
                "tempo": 120.0
            },
            {
                "start_time": 15.45681818181818,
                "end_time": 15.64090909090909,
                "pitch": 37,
                "velocity": 64,
                "duration": 0.18409090909091042,
                "tempo": 120.0
            },
            {
                "start_time": 15.656818181818181,
                "end_time": 16.043181818181818,
                "pitch": 39,
                "velocity": 64,
                "duration": 0.3863636363636367,
                "tempo": 120.0
            },
            {
                "start_time": 16.05909090909091,
                "end_time": 16.445454545454545,
                "pitch": 46,
                "velocity": 64,
                "duration": 0.3863636363636367,
                "tempo": 120.0
            },
            {
                "start_time": 16.461363636363636,
                "end_time": 16.845454545454544,
                "pitch": 46,
                "velocity": 64,
                "duration": 0.38409090909090793,
                "tempo": 120.0
            },
            {
                "start_time": 16.861363636363635,
                "end_time": 17.24772727272727,
                "pitch": 46,
                "velocity": 64,
                "duration": 0.3863636363636367,
                "tempo": 120.0
            },
            {
                "start_time": 17.26590909090909,
                "end_time": 17.647727272727273,
                "pitch": 46,
                "velocity": 64,
                "duration": 0.3818181818181827,
                "tempo": 120.0
            },
            {
                "start_time": 17.66590909090909,
                "end_time": 18.05,
                "pitch": 46,
                "velocity": 64,
                "duration": 0.3840909090909115,
                "tempo": 120.0
            },
            {
                "start_time": 18.068181818181817,
                "end_time": 18.45,
                "pitch": 46,
                "velocity": 64,
                "duration": 0.3818181818181827,
                "tempo": 120.0
            },
            {
                "start_time": 18.46818181818182,
                "end_time": 18.65,
                "pitch": 46,
                "velocity": 64,
                "duration": 0.18181818181817988,
                "tempo": 120.0
            },
            {
                "start_time": 18.668181818181818,
                "end_time": 18.849999999999998,
                "pitch": 49,
                "velocity": 64,
                "duration": 0.18181818181817988,
                "tempo": 120.0
            },
            {
                "start_time": 18.868181818181817,
                "end_time": 19.052272727272726,
                "pitch": 46,
                "velocity": 64,
                "duration": 0.18409090909090864,
                "tempo": 120.0
            },
            {
                "start_time": 19.068181818181817,
                "end_time": 19.254545454545454,
                "pitch": 46,
                "velocity": 64,
                "duration": 0.1863636363636374,
                "tempo": 120.0
            },
            {
                "start_time": 19.270454545454545,
                "end_time": 19.654545454545453,
                "pitch": 39,
                "velocity": 64,
                "duration": 0.38409090909090793,
                "tempo": 120.0
            },
            {
                "start_time": 19.670454545454543,
                "end_time": 20.05681818181818,
                "pitch": 39,
                "velocity": 64,
                "duration": 0.3863636363636367,
                "tempo": 120.0
            },
            {
                "start_time": 20.07272727272727,
                "end_time": 20.456818181818182,
                "pitch": 39,
                "velocity": 64,
                "duration": 0.3840909090909115,
                "tempo": 120.0
            },
            {
                "start_time": 20.472727272727273,
                "end_time": 20.85681818181818,
                "pitch": 39,
                "velocity": 64,
                "duration": 0.38409090909090793,
                "tempo": 120.0
            },
            {
                "start_time": 20.87272727272727,
                "end_time": 21.259090909090908,
                "pitch": 39,
                "velocity": 64,
                "duration": 0.3863636363636367,
                "tempo": 120.0
            },
            {
                "start_time": 21.275,
                "end_time": 21.659090909090907,
                "pitch": 39,
                "velocity": 64,
                "duration": 0.38409090909090793,
                "tempo": 120.0
            },
            {
                "start_time": 21.675,
                "end_time": 21.854545454545452,
                "pitch": 39,
                "velocity": 64,
                "duration": 0.17954545454545112,
                "tempo": 120.0
            },
            {
                "start_time": 21.870454545454546,
                "end_time": 22.052272727272726,
                "pitch": 37,
                "velocity": 64,
                "duration": 0.18181818181817988,
                "tempo": 120.0
            },
            {
                "start_time": 22.068181818181817,
                "end_time": 22.461363636363636,
                "pitch": 39,
                "velocity": 64,
                "duration": 0.3931818181818194,
                "tempo": 120.0
            },
            {
                "start_time": 22.479545454545452,
                "end_time": 22.861363636363635,
                "pitch": 42,
                "velocity": 64,
                "duration": 0.3818181818181827,
                "tempo": 120.0
            },
            {
                "start_time": 22.879545454545454,
                "end_time": 23.263636363636362,
                "pitch": 42,
                "velocity": 64,
                "duration": 0.38409090909090793,
                "tempo": 120.0
            },
            {
                "start_time": 23.28181818181818,
                "end_time": 23.46363636363636,
                "pitch": 42,
                "velocity": 64,
                "duration": 0.18181818181817988,
                "tempo": 120.0
            },
            {
                "start_time": 23.48181818181818,
                "end_time": 23.663636363636364,
                "pitch": 41,
                "velocity": 64,
                "duration": 0.18181818181818343,
                "tempo": 120.0
            },
            {
                "start_time": 23.68181818181818,
                "end_time": 24.068181818181817,
                "pitch": 42,
                "velocity": 64,
                "duration": 0.3863636363636367,
                "tempo": 120.0
            },
            {
                "start_time": 24.084090909090907,
                "end_time": 24.46818181818182,
                "pitch": 44,
                "velocity": 64,
                "duration": 0.3840909090909115,
                "tempo": 120.0
            },
            {
                "start_time": 24.48409090909091,
                "end_time": 24.868181818181817,
                "pitch": 44,
                "velocity": 64,
                "duration": 0.38409090909090793,
                "tempo": 120.0
            },
            {
                "start_time": 24.884090909090908,
                "end_time": 25.277272727272727,
                "pitch": 44,
                "velocity": 64,
                "duration": 0.3931818181818194,
                "tempo": 120.0
            },
            {
                "start_time": 25.295454545454543,
                "end_time": 25.670454545454543,
                "pitch": 44,
                "velocity": 64,
                "duration": 0.375,
                "tempo": 120.0
            },
            {
                "start_time": 25.686363636363634,
                "end_time": 25.870454545454542,
                "pitch": 44,
                "velocity": 64,
                "duration": 0.18409090909090864,
                "tempo": 120.0
            },
            {
                "start_time": 25.888636363636362,
                "end_time": 26.07272727272727,
                "pitch": 49,
                "velocity": 64,
                "duration": 0.18409090909090864,
                "tempo": 120.0
            },
            {
                "start_time": 26.08863636363636,
                "end_time": 26.27272727272727,
                "pitch": 48,
                "velocity": 64,
                "duration": 0.18409090909090864,
                "tempo": 120.0
            },
            {
                "start_time": 26.288636363636364,
                "end_time": 26.472727272727273,
                "pitch": 44,
                "velocity": 64,
                "duration": 0.18409090909090864,
                "tempo": 120.0
            },
            {
                "start_time": 26.488636363636363,
                "end_time": 26.672727272727272,
                "pitch": 51,
                "velocity": 64,
                "duration": 0.18409090909090864,
                "tempo": 120.0
            },
            {
                "start_time": 26.688636363636363,
                "end_time": 26.87272727272727,
                "pitch": 49,
                "velocity": 64,
                "duration": 0.18409090909090864,
                "tempo": 120.0
            },
            {
                "start_time": 26.888636363636362,
                "end_time": 27.075,
                "pitch": 48,
                "velocity": 64,
                "duration": 0.1863636363636374,
                "tempo": 120.0
            },
            {
                "start_time": 27.09090909090909,
                "end_time": 27.174999999999997,
                "pitch": 49,
                "velocity": 64,
                "duration": 0.08409090909090722,
                "tempo": 120.0
            },
            {
                "start_time": 27.19090909090909,
                "end_time": 27.275,
                "pitch": 51,
                "velocity": 64,
                "duration": 0.08409090909090722,
                "tempo": 120.0
            },
            {
                "start_time": 27.293181818181818,
                "end_time": 27.674999999999997,
                "pitch": 46,
                "velocity": 64,
                "duration": 0.38181818181817917,
                "tempo": 120.0
            },
            {
                "start_time": 27.693181818181817,
                "end_time": 28.077272727272724,
                "pitch": 46,
                "velocity": 64,
                "duration": 0.38409090909090793,
                "tempo": 120.0
            },
            {
                "start_time": 28.095454545454544,
                "end_time": 28.477272727272727,
                "pitch": 46,
                "velocity": 64,
                "duration": 0.3818181818181827,
                "tempo": 120.0
            },
            {
                "start_time": 28.495454545454542,
                "end_time": 28.777272727272727,
                "pitch": 46,
                "velocity": 64,
                "duration": 0.28181818181818485,
                "tempo": 120.0
            },
            {
                "start_time": 28.795454545454543,
                "end_time": 28.877272727272725,
                "pitch": 46,
                "velocity": 64,
                "duration": 0.08181818181818201,
                "tempo": 120.0
            },
            {
                "start_time": 28.895454545454545,
                "end_time": 29.279545454545453,
                "pitch": 46,
                "velocity": 64,
                "duration": 0.38409090909090793,
                "tempo": 120.0
            },
            {
                "start_time": 29.297727272727272,
                "end_time": 29.68181818181818,
                "pitch": 46,
                "velocity": 64,
                "duration": 0.38409090909090793,
                "tempo": 120.0
            },
            {
                "start_time": 29.69772727272727,
                "end_time": 30.07272727272727,
                "pitch": 46,
                "velocity": 64,
                "duration": 0.375,
                "tempo": 120.0
            },
            {
                "start_time": 30.08863636363636,
                "end_time": 30.379545454545454,
                "pitch": 46,
                "velocity": 64,
                "duration": 0.2909090909090928,
                "tempo": 120.0
            },
            {
                "start_time": 30.39772727272727,
                "end_time": 30.48409090909091,
                "pitch": 46,
                "velocity": 64,
                "duration": 0.08636363636363953,
                "tempo": 120.0
            },
            {
                "start_time": 30.5,
                "end_time": 30.884090909090908,
                "pitch": 44,
                "velocity": 64,
                "duration": 0.38409090909090793,
                "tempo": 120.0
            },
            {
                "start_time": 30.9,
                "end_time": 31.286363636363635,
                "pitch": 44,
                "velocity": 64,
                "duration": 0.3863636363636367,
                "tempo": 120.0
            },
            {
                "start_time": 31.302272727272726,
                "end_time": 31.686363636363634,
                "pitch": 44,
                "velocity": 64,
                "duration": 0.38409090909090793,
                "tempo": 120.0
            },
            {
                "start_time": 31.702272727272724,
                "end_time": 31.988636363636363,
                "pitch": 44,
                "velocity": 64,
                "duration": 0.2863636363636388,
                "tempo": 120.0
            },
            {
                "start_time": 32.00454545454545,
                "end_time": 32.08863636363636,
                "pitch": 44,
                "velocity": 64,
                "duration": 0.08409090909091077,
                "tempo": 120.0
            },
            {
                "start_time": 32.10681818181818,
                "end_time": 32.48863636363636,
                "pitch": 44,
                "velocity": 64,
                "duration": 0.3818181818181827,
                "tempo": 120.0
            },
            {
                "start_time": 32.50681818181818,
                "end_time": 32.888636363636365,
                "pitch": 44,
                "velocity": 64,
                "duration": 0.3818181818181827,
                "tempo": 120.0
            },
            {
                "start_time": 32.904545454545456,
                "end_time": 33.28181818181818,
                "pitch": 44,
                "velocity": 64,
                "duration": 0.3772727272727252,
                "tempo": 120.0
            },
            {
                "start_time": 33.29772727272727,
                "end_time": 33.486363636363635,
                "pitch": 44,
                "velocity": 64,
                "duration": 0.1886363636363626,
                "tempo": 120.0
            },
            {
                "start_time": 33.502272727272725,
                "end_time": 34.08409090909091,
                "pitch": 42,
                "velocity": 64,
                "duration": 0.5818181818181856,
                "tempo": 120.0
            },
            {
                "start_time": 34.1,
                "end_time": 34.49318181818182,
                "pitch": 42,
                "velocity": 64,
                "duration": 0.39318181818181586,
                "tempo": 120.0
            },
            {
                "start_time": 34.51136363636363,
                "end_time": 34.89545454545454,
                "pitch": 42,
                "velocity": 64,
                "duration": 0.38409090909090793,
                "tempo": 120.0
            },
            {
                "start_time": 34.91136363636363,
                "end_time": 35.195454545454545,
                "pitch": 42,
                "velocity": 64,
                "duration": 0.2840909090909136,
                "tempo": 120.0
            },
            {
                "start_time": 35.211363636363636,
                "end_time": 35.29545454545455,
                "pitch": 42,
                "velocity": 64,
                "duration": 0.08409090909091077,
                "tempo": 120.0
            },
            {
                "start_time": 35.31136363636364,
                "end_time": 35.69772727272727,
                "pitch": 42,
                "velocity": 64,
                "duration": 0.38636363636363313,
                "tempo": 120.0
            },
            {
                "start_time": 35.71363636363636,
                "end_time": 36.09772727272727,
                "pitch": 42,
                "velocity": 64,
                "duration": 0.38409090909090793,
                "tempo": 120.0
            },
            {
                "start_time": 36.11363636363636,
                "end_time": 36.48863636363636,
                "pitch": 42,
                "velocity": 64,
                "duration": 0.375,
                "tempo": 120.0
            },
            {
                "start_time": 36.50681818181818,
                "end_time": 36.9,
                "pitch": 42,
                "velocity": 64,
                "duration": 0.39318181818181586,
                "tempo": 120.0
            },
            {
                "start_time": 36.91590909090909,
                "end_time": 37.31136363636364,
                "pitch": 44,
                "velocity": 64,
                "duration": 0.39545454545454817,
                "tempo": 120.0
            },
            {
                "start_time": 37.32727272727273,
                "end_time": 37.70454545454545,
                "pitch": 44,
                "velocity": 64,
                "duration": 0.3772727272727252,
                "tempo": 120.0
            },
            {
                "start_time": 37.720454545454544,
                "end_time": 38.10227272727273,
                "pitch": 44,
                "velocity": 64,
                "duration": 0.3818181818181827,
                "tempo": 120.0
            },
            {
                "start_time": 38.12045454545454,
                "end_time": 38.502272727272725,
                "pitch": 44,
                "velocity": 64,
                "duration": 0.3818181818181827,
                "tempo": 120.0
            },
            {
                "start_time": 38.52045454545454,
                "end_time": 38.70227272727273,
                "pitch": 49,
                "velocity": 64,
                "duration": 0.18181818181818699,
                "tempo": 120.0
            },
            {
                "start_time": 38.720454545454544,
                "end_time": 38.902272727272724,
                "pitch": 48,
                "velocity": 64,
                "duration": 0.18181818181817988,
                "tempo": 120.0
            },
            {
                "start_time": 38.92045454545455,
                "end_time": 39.10227272727273,
                "pitch": 44,
                "velocity": 64,
                "duration": 0.18181818181817988,
                "tempo": 120.0
            },
            {
                "start_time": 39.12045454545454,
                "end_time": 39.30227272727272,
                "pitch": 51,
                "velocity": 64,
                "duration": 0.18181818181817988,
                "tempo": 120.0
            },
            {
                "start_time": 39.320454545454545,
                "end_time": 39.50454545454545,
                "pitch": 49,
                "velocity": 64,
                "duration": 0.18409090909090509,
                "tempo": 120.0
            },
            {
                "start_time": 39.52045454545454,
                "end_time": 39.70681818181818,
                "pitch": 44,
                "velocity": 64,
                "duration": 0.1863636363636374,
                "tempo": 120.0
            },
            {
                "start_time": 39.72272727272727,
                "end_time": 39.90681818181818,
                "pitch": 48,
                "velocity": 64,
                "duration": 0.1840909090909122,
                "tempo": 120.0
            },
            {
                "start_time": 39.92272727272727,
                "end_time": 40.10681818181818,
                "pitch": 49,
                "velocity": 64,
                "duration": 0.18409090909090509,
                "tempo": 120.0
            },
            {
                "start_time": 40.12272727272727,
                "end_time": 40.50681818181818,
                "pitch": 46,
                "velocity": 64,
                "duration": 0.38409090909091503,
                "tempo": 120.0
            },
            {
                "start_time": 40.52272727272727,
                "end_time": 40.90681818181818,
                "pitch": 46,
                "velocity": 64,
                "duration": 0.38409090909090793,
                "tempo": 120.0
            },
            {
                "start_time": 40.92272727272727,
                "end_time": 41.30681818181818,
                "pitch": 46,
                "velocity": 64,
                "duration": 0.38409090909090793,
                "tempo": 120.0
            },
            {
                "start_time": 41.32272727272727,
                "end_time": 41.60681818181818,
                "pitch": 46,
                "velocity": 64,
                "duration": 0.2840909090909065,
                "tempo": 120.0
            },
            {
                "start_time": 41.625,
                "end_time": 41.709090909090904,
                "pitch": 46,
                "velocity": 64,
                "duration": 0.08409090909090366,
                "tempo": 120.0
            },
            {
                "start_time": 41.725,
                "end_time": 42.10909090909091,
                "pitch": 46,
                "velocity": 64,
                "duration": 0.38409090909090793,
                "tempo": 120.0
            },
            {
                "start_time": 42.125,
                "end_time": 42.50909090909091,
                "pitch": 46,
                "velocity": 64,
                "duration": 0.38409090909090793,
                "tempo": 120.0
            },
            {
                "start_time": 42.525,
                "end_time": 42.9,
                "pitch": 46,
                "velocity": 64,
                "duration": 0.375,
                "tempo": 120.0
            },
            {
                "start_time": 42.918181818181814,
                "end_time": 43.209090909090904,
                "pitch": 46,
                "velocity": 64,
                "duration": 0.29090909090908923,
                "tempo": 120.0
            },
            {
                "start_time": 43.225,
                "end_time": 43.31136363636364,
                "pitch": 46,
                "velocity": 64,
                "duration": 0.08636363636363598,
                "tempo": 120.0
            },
            {
                "start_time": 43.32727272727273,
                "end_time": 43.71363636363636,
                "pitch": 44,
                "velocity": 64,
                "duration": 0.38636363636363313,
                "tempo": 120.0
            },
            {
                "start_time": 43.73181818181818,
                "end_time": 44.11363636363636,
                "pitch": 44,
                "velocity": 64,
                "duration": 0.3818181818181827,
                "tempo": 120.0
            },
            {
                "start_time": 44.13181818181818,
                "end_time": 44.51363636363636,
                "pitch": 44,
                "velocity": 64,
                "duration": 0.3818181818181756,
                "tempo": 120.0
            },
            {
                "start_time": 44.53181818181818,
                "end_time": 44.81363636363636,
                "pitch": 44,
                "velocity": 64,
                "duration": 0.2818181818181813,
                "tempo": 120.0
            },
            {
                "start_time": 44.83181818181818,
                "end_time": 44.913636363636364,
                "pitch": 44,
                "velocity": 64,
                "duration": 0.08181818181818556,
                "tempo": 120.0
            },
            {
                "start_time": 44.93181818181818,
                "end_time": 45.31363636363636,
                "pitch": 44,
                "velocity": 64,
                "duration": 0.3818181818181827,
                "tempo": 120.0
            },
            {
                "start_time": 45.33181818181818,
                "end_time": 45.715909090909086,
                "pitch": 44,
                "velocity": 64,
                "duration": 0.38409090909090793,
                "tempo": 120.0
            },
            {
                "start_time": 45.73409090909091,
                "end_time": 46.11590909090909,
                "pitch": 44,
                "velocity": 64,
                "duration": 0.3818181818181827,
                "tempo": 120.0
            },
            {
                "start_time": 46.13409090909091,
                "end_time": 46.31590909090909,
                "pitch": 44,
                "velocity": 64,
                "duration": 0.18181818181817988,
                "tempo": 120.0
            },
            {
                "start_time": 46.334090909090904,
                "end_time": 46.90909090909091,
                "pitch": 42,
                "velocity": 64,
                "duration": 0.5750000000000028,
                "tempo": 120.0
            },
            {
                "start_time": 46.925,
                "end_time": 47.320454545454545,
                "pitch": 42,
                "velocity": 64,
                "duration": 0.39545454545454817,
                "tempo": 120.0
            },
            {
                "start_time": 47.336363636363636,
                "end_time": 47.72272727272727,
                "pitch": 42,
                "velocity": 64,
                "duration": 0.38636363636363313,
                "tempo": 120.0
            },
            {
                "start_time": 47.73863636363636,
                "end_time": 48.12272727272727,
                "pitch": 42,
                "velocity": 64,
                "duration": 0.38409090909090793,
                "tempo": 120.0
            },
            {
                "start_time": 48.13863636363636,
                "end_time": 48.52272727272727,
                "pitch": 42,
                "velocity": 64,
                "duration": 0.38409090909091503,
                "tempo": 120.0
            },
            {
                "start_time": 48.538636363636364,
                "end_time": 48.71818181818182,
                "pitch": 42,
                "velocity": 64,
                "duration": 0.17954545454545467,
                "tempo": 120.0
            },
            {
                "start_time": 48.73409090909091,
                "end_time": 49.11590909090909,
                "pitch": 42,
                "velocity": 64,
                "duration": 0.3818181818181827,
                "tempo": 120.0
            },
            {
                "start_time": 49.13181818181818,
                "end_time": 49.31590909090909,
                "pitch": 42,
                "velocity": 64,
                "duration": 0.18409090909090509,
                "tempo": 120.0
            },
            {
                "start_time": 49.33181818181818,
                "end_time": 49.724999999999994,
                "pitch": 42,
                "velocity": 64,
                "duration": 0.39318181818181586,
                "tempo": 120.0
            },
            {
                "start_time": 49.740909090909085,
                "end_time": 49.92272727272727,
                "pitch": 44,
                "velocity": 64,
                "duration": 0.18181818181818699,
                "tempo": 120.0
            },
            {
                "start_time": 49.93863636363636,
                "end_time": 50.31818181818181,
                "pitch": 44,
                "velocity": 64,
                "duration": 0.3795454545454504,
                "tempo": 120.0
            },
            {
                "start_time": 50.334090909090904,
                "end_time": 50.518181818181816,
                "pitch": 44,
                "velocity": 64,
                "duration": 0.1840909090909122,
                "tempo": 120.0
            },
            {
                "start_time": 50.53409090909091,
                "end_time": 50.72272727272727,
                "pitch": 44,
                "velocity": 64,
                "duration": 0.1886363636363626,
                "tempo": 120.0
            },
            {
                "start_time": 50.73863636363636,
                "end_time": 51.12954545454545,
                "pitch": 44,
                "velocity": 64,
                "duration": 0.39090909090909065,
                "tempo": 120.0
            },
            {
                "start_time": 51.14545454545454,
                "end_time": 51.32954545454545,
                "pitch": 44,
                "velocity": 64,
                "duration": 0.1840909090909122,
                "tempo": 120.0
            },
            {
                "start_time": 51.345454545454544,
                "end_time": 51.525,
                "pitch": 44,
                "velocity": 64,
                "duration": 0.17954545454545467,
                "tempo": 120.0
            },
            {
                "start_time": 51.54090909090909,
                "end_time": 51.720454545454544,
                "pitch": 48,
                "velocity": 64,
                "duration": 0.17954545454545467,
                "tempo": 120.0
            },
            {
                "start_time": 51.736363636363635,
                "end_time": 51.925,
                "pitch": 49,
                "velocity": 64,
                "duration": 0.1886363636363626,
                "tempo": 120.0
            },
            {
                "start_time": 51.94318181818181,
                "end_time": 52.13181818181818,
                "pitch": 51,
                "velocity": 64,
                "duration": 0.1886363636363697,
                "tempo": 120.0
            },
            {
                "start_time": 52.14772727272727,
                "end_time": 52.33181818181818,
                "pitch": 44,
                "velocity": 64,
                "duration": 0.18409090909090509,
                "tempo": 120.0
            },
            {
                "start_time": 52.34772727272727,
                "end_time": 52.53181818181818,
                "pitch": 51,
                "velocity": 64,
                "duration": 0.1840909090909122,
                "tempo": 120.0
            },
            {
                "start_time": 52.54772727272727,
                "end_time": 52.72727272727273,
                "pitch": 49,
                "velocity": 64,
                "duration": 0.17954545454545467,
                "tempo": 120.0
            },
            {
                "start_time": 52.74318181818182,
                "end_time": 52.92272727272727,
                "pitch": 48,
                "velocity": 64,
                "duration": 0.17954545454545467,
                "tempo": 120.0
            },
            {
                "start_time": 52.94090909090909,
                "end_time": 52.974999999999994,
                "pitch": 39,
                "velocity": 64,
                "duration": 0.03409090909090651,
                "tempo": 120.0
            }
        ],
        "Lead 2 (sawtooth)": [
            {
                "start_time": 0.0,
                "end_time": 0.5840909090909091,
                "pitch": 66,
                "velocity": 64,
                "duration": 0.5840909090909091,
                "tempo": 120.0
            },
            {
                "start_time": 0.6,
                "end_time": 1.184090909090909,
                "pitch": 63,
                "velocity": 64,
                "duration": 0.5840909090909091,
                "tempo": 120.0
            },
            {
                "start_time": 1.2,
                "end_time": 1.584090909090909,
                "pitch": 70,
                "velocity": 64,
                "duration": 0.38409090909090904,
                "tempo": 120.0
            },
            {
                "start_time": 1.5999999999999999,
                "end_time": 1.684090909090909,
                "pitch": 70,
                "velocity": 64,
                "duration": 0.08409090909090922,
                "tempo": 120.0
            },
            {
                "start_time": 2.202272727272727,
                "end_time": 3.186363636363636,
                "pitch": 63,
                "velocity": 64,
                "duration": 0.9840909090909089,
                "tempo": 120.0
            },
            {
                "start_time": 3.202272727272727,
                "end_time": 3.286363636363636,
                "pitch": 65,
                "velocity": 64,
                "duration": 0.084090909090909,
                "tempo": 120.0
            },
            {
                "start_time": 3.8045454545454542,
                "end_time": 4.388636363636364,
                "pitch": 61,
                "velocity": 64,
                "duration": 0.5840909090909094,
                "tempo": 120.0
            },
            {
                "start_time": 4.404545454545454,
                "end_time": 4.590909090909091,
                "pitch": 70,
                "velocity": 64,
                "duration": 0.1863636363636365,
                "tempo": 120.0
            },
            {
                "start_time": 4.6068181818181815,
                "end_time": 5.1909090909090905,
                "pitch": 61,
                "velocity": 64,
                "duration": 0.584090909090909,
                "tempo": 120.0
            },
            {
                "start_time": 5.209090909090909,
                "end_time": 5.593181818181818,
                "pitch": 65,
                "velocity": 64,
                "duration": 0.3840909090909088,
                "tempo": 120.0
            },
            {
                "start_time": 5.611363636363636,
                "end_time": 6.004545454545454,
                "pitch": 70,
                "velocity": 64,
                "duration": 0.39318181818181763,
                "tempo": 120.0
            },
            {
                "start_time": 6.0204545454545455,
                "end_time": 6.3977272727272725,
                "pitch": 61,
                "velocity": 64,
                "duration": 0.377272727272727,
                "tempo": 120.0
            },
            {
                "start_time": 6.413636363636363,
                "end_time": 7.0,
                "pitch": 66,
                "velocity": 64,
                "duration": 0.5863636363636369,
                "tempo": 120.0
            },
            {
                "start_time": 7.015909090909091,
                "end_time": 7.602272727272727,
                "pitch": 63,
                "velocity": 64,
                "duration": 0.586363636363636,
                "tempo": 120.0
            },
            {
                "start_time": 7.618181818181818,
                "end_time": 8.002272727272727,
                "pitch": 70,
                "velocity": 64,
                "duration": 0.3840909090909088,
                "tempo": 120.0
            },
            {
                "start_time": 8.018181818181818,
                "end_time": 8.204545454545455,
                "pitch": 70,
                "velocity": 64,
                "duration": 0.1863636363636374,
                "tempo": 120.0
            },
            {
                "start_time": 8.220454545454546,
                "end_time": 9.611363636363636,
                "pitch": 63,
                "velocity": 64,
                "duration": 1.3909090909090907,
                "tempo": 120.0
            },
            {
                "start_time": 9.627272727272727,
                "end_time": 10.611363636363636,
                "pitch": 66,
                "velocity": 64,
                "duration": 0.9840909090909093,
                "tempo": 120.0
            },
            {
                "start_time": 10.627272727272727,
                "end_time": 10.809090909090909,
                "pitch": 68,
                "velocity": 64,
                "duration": 0.18181818181818166,
                "tempo": 120.0
            },
            {
                "start_time": 10.825,
                "end_time": 11.013636363636364,
                "pitch": 70,
                "velocity": 64,
                "duration": 0.18863636363636438,
                "tempo": 120.0
            },
            {
                "start_time": 11.029545454545454,
                "end_time": 11.218181818181817,
                "pitch": 68,
                "velocity": 64,
                "duration": 0.1886363636363626,
                "tempo": 120.0
            },
            {
                "start_time": 11.236363636363636,
                "end_time": 12.020454545454545,
                "pitch": 65,
                "velocity": 64,
                "duration": 0.7840909090909083,
                "tempo": 120.0
            },
            {
                "start_time": 12.038636363636362,
                "end_time": 12.424999999999999,
                "pitch": 66,
                "velocity": 64,
                "duration": 0.3863636363636367,
                "tempo": 120.0
            },
            {
                "start_time": 12.44090909090909,
                "end_time": 12.827272727272726,
                "pitch": 65,
                "velocity": 64,
                "duration": 0.3863636363636367,
                "tempo": 120.0
            },
            {
                "start_time": 12.843181818181817,
                "end_time": 13.429545454545455,
                "pitch": 66,
                "velocity": 64,
                "duration": 0.5863636363636378,
                "tempo": 120.0
            },
            {
                "start_time": 13.445454545454545,
                "end_time": 14.031818181818181,
                "pitch": 63,
                "velocity": 64,
                "duration": 0.586363636363636,
                "tempo": 120.0
            },
            {
                "start_time": 14.047727272727272,
                "end_time": 14.434090909090909,
                "pitch": 70,
                "velocity": 64,
                "duration": 0.3863636363636367,
                "tempo": 120.0
            },
            {
                "start_time": 14.452272727272726,
                "end_time": 14.536363636363635,
                "pitch": 70,
                "velocity": 64,
                "duration": 0.084090909090909,
                "tempo": 120.0
            },
            {
                "start_time": 15.054545454545455,
                "end_time": 16.043181818181818,
                "pitch": 63,
                "velocity": 64,
                "duration": 0.9886363636363633,
                "tempo": 120.0
            },
            {
                "start_time": 16.05909090909091,
                "end_time": 16.143181818181816,
                "pitch": 65,
                "velocity": 64,
                "duration": 0.08409090909090722,
                "tempo": 120.0
            },
            {
                "start_time": 16.661363636363635,
                "end_time": 17.24772727272727,
                "pitch": 61,
                "velocity": 64,
                "duration": 0.586363636363636,
                "tempo": 120.0
            },
            {
                "start_time": 17.26590909090909,
                "end_time": 17.44772727272727,
                "pitch": 70,
                "velocity": 64,
                "duration": 0.18181818181817988,
                "tempo": 120.0
            },
            {
                "start_time": 17.46590909090909,
                "end_time": 18.05,
                "pitch": 61,
                "velocity": 64,
                "duration": 0.5840909090909108,
                "tempo": 120.0
            },
            {
                "start_time": 18.068181818181817,
                "end_time": 18.45,
                "pitch": 65,
                "velocity": 64,
                "duration": 0.3818181818181827,
                "tempo": 120.0
            },
            {
                "start_time": 18.46818181818182,
                "end_time": 18.849999999999998,
                "pitch": 70,
                "velocity": 64,
                "duration": 0.38181818181817917,
                "tempo": 120.0
            },
            {
                "start_time": 18.868181818181817,
                "end_time": 19.254545454545454,
                "pitch": 61,
                "velocity": 64,
                "duration": 0.3863636363636367,
                "tempo": 120.0
            },
            {
                "start_time": 19.270454545454545,
                "end_time": 19.854545454545452,
                "pitch": 66,
                "velocity": 64,
                "duration": 0.5840909090909072,
                "tempo": 120.0
            },
            {
                "start_time": 19.870454545454546,
                "end_time": 20.456818181818182,
                "pitch": 63,
                "velocity": 64,
                "duration": 0.586363636363636,
                "tempo": 120.0
            },
            {
                "start_time": 20.472727272727273,
                "end_time": 20.85681818181818,
                "pitch": 70,
                "velocity": 64,
                "duration": 0.38409090909090793,
                "tempo": 120.0
            },
            {
                "start_time": 20.87272727272727,
                "end_time": 21.05681818181818,
                "pitch": 70,
                "velocity": 64,
                "duration": 0.18409090909090864,
                "tempo": 120.0
            },
            {
                "start_time": 21.075,
                "end_time": 22.461363636363636,
                "pitch": 63,
                "velocity": 64,
                "duration": 1.3863636363636367,
                "tempo": 120.0
            },
            {
                "start_time": 22.479545454545452,
                "end_time": 24.068181818181817,
                "pitch": 66,
                "velocity": 64,
                "duration": 1.5886363636363647,
                "tempo": 120.0
            },
            {
                "start_time": 24.084090909090907,
                "end_time": 24.868181818181817,
                "pitch": 68,
                "velocity": 64,
                "duration": 0.7840909090909101,
                "tempo": 120.0
            },
            {
                "start_time": 24.884090909090908,
                "end_time": 25.670454545454543,
                "pitch": 75,
                "velocity": 64,
                "duration": 0.7863636363636353,
                "tempo": 120.0
            },
            {
                "start_time": 25.686363636363634,
                "end_time": 27.275,
                "pitch": 72,
                "velocity": 64,
                "duration": 1.5886363636363647,
                "tempo": 120.0
            },
            {
                "start_time": 27.293181818181818,
                "end_time": 28.477272727272727,
                "pitch": 70,
                "velocity": 64,
                "duration": 1.1840909090909086,
                "tempo": 120.0
            },
            {
                "start_time": 28.495454545454542,
                "end_time": 28.677272727272726,
                "pitch": 70,
                "velocity": 64,
                "duration": 0.18181818181818343,
                "tempo": 120.0
            },
            {
                "start_time": 28.695454545454545,
                "end_time": 28.877272727272725,
                "pitch": 70,
                "velocity": 64,
                "duration": 0.18181818181817988,
                "tempo": 120.0
            },
            {
                "start_time": 28.895454545454545,
                "end_time": 29.877272727272725,
                "pitch": 70,
                "velocity": 64,
                "duration": 0.9818181818181806,
                "tempo": 120.0
            },
            {
                "start_time": 29.893181818181816,
                "end_time": 30.48409090909091,
                "pitch": 70,
                "velocity": 64,
                "duration": 0.5909090909090935,
                "tempo": 120.0
            },
            {
                "start_time": 30.5,
                "end_time": 30.68409090909091,
                "pitch": 68,
                "velocity": 64,
                "duration": 0.18409090909090864,
                "tempo": 120.0
            },
            {
                "start_time": 30.7,
                "end_time": 31.686363636363634,
                "pitch": 68,
                "velocity": 64,
                "duration": 0.9863636363636346,
                "tempo": 120.0
            },
            {
                "start_time": 31.702272727272724,
                "end_time": 31.888636363636362,
                "pitch": 68,
                "velocity": 64,
                "duration": 0.1863636363636374,
                "tempo": 120.0
            },
            {
                "start_time": 31.904545454545453,
                "end_time": 32.08863636363636,
                "pitch": 68,
                "velocity": 64,
                "duration": 0.18409090909090864,
                "tempo": 120.0
            },
            {
                "start_time": 32.10681818181818,
                "end_time": 33.086363636363636,
                "pitch": 68,
                "velocity": 64,
                "duration": 0.9795454545454589,
                "tempo": 120.0
            },
            {
                "start_time": 33.10227272727273,
                "end_time": 33.486363636363635,
                "pitch": 68,
                "velocity": 64,
                "duration": 0.38409090909090793,
                "tempo": 120.0
            },
            {
                "start_time": 33.502272727272725,
                "end_time": 34.695454545454545,
                "pitch": 66,
                "velocity": 64,
                "duration": 1.1931818181818201,
                "tempo": 120.0
            },
            {
                "start_time": 34.711363636363636,
                "end_time": 35.29545454545455,
                "pitch": 61,
                "velocity": 64,
                "duration": 0.5840909090909108,
                "tempo": 120.0
            },
            {
                "start_time": 35.31136363636364,
                "end_time": 35.69772727272727,
                "pitch": 70,
                "velocity": 64,
                "duration": 0.38636363636363313,
                "tempo": 120.0
            },
            {
                "start_time": 35.71363636363636,
                "end_time": 35.89772727272727,
                "pitch": 66,
                "velocity": 64,
                "duration": 0.1840909090909122,
                "tempo": 120.0
            },
            {
                "start_time": 35.913636363636364,
                "end_time": 36.48863636363636,
                "pitch": 70,
                "velocity": 64,
                "duration": 0.5749999999999957,
                "tempo": 120.0
            },
            {
                "start_time": 36.50681818181818,
                "end_time": 36.9,
                "pitch": 66,
                "velocity": 64,
                "duration": 0.39318181818181586,
                "tempo": 120.0
            },
            {
                "start_time": 36.91590909090909,
                "end_time": 37.70454545454545,
                "pitch": 68,
                "velocity": 64,
                "duration": 0.788636363636364,
                "tempo": 120.0
            },
            {
                "start_time": 37.720454545454544,
                "end_time": 38.502272727272725,
                "pitch": 63,
                "velocity": 64,
                "duration": 0.7818181818181813,
                "tempo": 120.0
            },
            {
                "start_time": 38.52045454545454,
                "end_time": 38.70227272727273,
                "pitch": 68,
                "velocity": 64,
                "duration": 0.18181818181818699,
                "tempo": 120.0
            },
            {
                "start_time": 38.720454545454544,
                "end_time": 38.902272727272724,
                "pitch": 65,
                "velocity": 64,
                "duration": 0.18181818181817988,
                "tempo": 120.0
            },
            {
                "start_time": 38.92045454545455,
                "end_time": 39.10227272727273,
                "pitch": 63,
                "velocity": 64,
                "duration": 0.18181818181817988,
                "tempo": 120.0
            },
            {
                "start_time": 39.12045454545454,
                "end_time": 39.50454545454545,
                "pitch": 65,
                "velocity": 64,
                "duration": 0.38409090909090793,
                "tempo": 120.0
            },
            {
                "start_time": 39.52045454545454,
                "end_time": 39.70681818181818,
                "pitch": 61,
                "velocity": 64,
                "duration": 0.1863636363636374,
                "tempo": 120.0
            },
            {
                "start_time": 39.72272727272727,
                "end_time": 39.90681818181818,
                "pitch": 65,
                "velocity": 64,
                "duration": 0.1840909090909122,
                "tempo": 120.0
            },
            {
                "start_time": 39.92272727272727,
                "end_time": 40.10681818181818,
                "pitch": 68,
                "velocity": 64,
                "duration": 0.18409090909090509,
                "tempo": 120.0
            },
            {
                "start_time": 40.12272727272727,
                "end_time": 40.90681818181818,
                "pitch": 70,
                "velocity": 64,
                "duration": 0.7840909090909136,
                "tempo": 120.0
            },
            {
                "start_time": 40.92272727272727,
                "end_time": 41.30681818181818,
                "pitch": 70,
                "velocity": 64,
                "duration": 0.38409090909090793,
                "tempo": 120.0
            },
            {
                "start_time": 41.32272727272727,
                "end_time": 41.50681818181818,
                "pitch": 70,
                "velocity": 64,
                "duration": 0.1840909090909122,
                "tempo": 120.0
            },
            {
                "start_time": 41.525,
                "end_time": 41.60681818181818,
                "pitch": 70,
                "velocity": 64,
                "duration": 0.08181818181817846,
                "tempo": 120.0
            },
            {
                "start_time": 41.625,
                "end_time": 41.709090909090904,
                "pitch": 70,
                "velocity": 64,
                "duration": 0.08409090909090366,
                "tempo": 120.0
            },
            {
                "start_time": 41.725,
                "end_time": 42.70454545454545,
                "pitch": 70,
                "velocity": 64,
                "duration": 0.9795454545454518,
                "tempo": 120.0
            },
            {
                "start_time": 42.720454545454544,
                "end_time": 43.31136363636364,
                "pitch": 70,
                "velocity": 64,
                "duration": 0.5909090909090935,
                "tempo": 120.0
            },
            {
                "start_time": 43.32727272727273,
                "end_time": 43.61363636363636,
                "pitch": 68,
                "velocity": 64,
                "duration": 0.2863636363636317,
                "tempo": 120.0
            },
            {
                "start_time": 43.62954545454545,
                "end_time": 44.11363636363636,
                "pitch": 68,
                "velocity": 64,
                "duration": 0.48409090909090935,
                "tempo": 120.0
            },
            {
                "start_time": 44.13181818181818,
                "end_time": 44.51363636363636,
                "pitch": 68,
                "velocity": 64,
                "duration": 0.3818181818181756,
                "tempo": 120.0
            },
            {
                "start_time": 44.53181818181818,
                "end_time": 44.71363636363636,
                "pitch": 68,
                "velocity": 64,
                "duration": 0.18181818181817988,
                "tempo": 120.0
            },
            {
                "start_time": 44.73181818181818,
                "end_time": 45.91590909090909,
                "pitch": 68,
                "velocity": 64,
                "duration": 1.1840909090909122,
                "tempo": 120.0
            },
            {
                "start_time": 45.934090909090905,
                "end_time": 46.31590909090909,
                "pitch": 68,
                "velocity": 64,
                "duration": 0.3818181818181827,
                "tempo": 120.0
            },
            {
                "start_time": 46.334090909090904,
                "end_time": 47.320454545454545,
                "pitch": 66,
                "velocity": 64,
                "duration": 0.9863636363636417,
                "tempo": 120.0
            },
            {
                "start_time": 47.336363636363636,
                "end_time": 47.92272727272727,
                "pitch": 61,
                "velocity": 64,
                "duration": 0.586363636363636,
                "tempo": 120.0
            },
            {
                "start_time": 47.93863636363636,
                "end_time": 48.12272727272727,
                "pitch": 66,
                "velocity": 64,
                "duration": 0.18409090909090509,
                "tempo": 120.0
            },
            {
                "start_time": 48.13863636363636,
                "end_time": 48.52272727272727,
                "pitch": 70,
                "velocity": 64,
                "duration": 0.38409090909091503,
                "tempo": 120.0
            },
            {
                "start_time": 48.538636363636364,
                "end_time": 48.71818181818182,
                "pitch": 66,
                "velocity": 64,
                "duration": 0.17954545454545467,
                "tempo": 120.0
            },
            {
                "start_time": 48.73409090909091,
                "end_time": 49.31590909090909,
                "pitch": 70,
                "velocity": 64,
                "duration": 0.5818181818181785,
                "tempo": 120.0
            },
            {
                "start_time": 49.33181818181818,
                "end_time": 49.724999999999994,
                "pitch": 66,
                "velocity": 64,
                "duration": 0.39318181818181586,
                "tempo": 120.0
            },
            {
                "start_time": 49.740909090909085,
                "end_time": 49.92272727272727,
                "pitch": 72,
                "velocity": 64,
                "duration": 0.18181818181818699,
                "tempo": 120.0
            },
            {
                "start_time": 49.93863636363636,
                "end_time": 50.11818181818182,
                "pitch": 68,
                "velocity": 64,
                "duration": 0.17954545454545467,
                "tempo": 120.0
            },
            {
                "start_time": 50.13409090909091,
                "end_time": 50.31818181818181,
                "pitch": 75,
                "velocity": 64,
                "duration": 0.18409090909090509,
                "tempo": 120.0
            },
            {
                "start_time": 50.334090909090904,
                "end_time": 50.518181818181816,
                "pitch": 68,
                "velocity": 64,
                "duration": 0.1840909090909122,
                "tempo": 120.0
            },
            {
                "start_time": 50.53409090909091,
                "end_time": 50.72272727272727,
                "pitch": 72,
                "velocity": 64,
                "duration": 0.1886363636363626,
                "tempo": 120.0
            },
            {
                "start_time": 50.73863636363636,
                "end_time": 50.92727272727272,
                "pitch": 68,
                "velocity": 64,
                "duration": 0.1886363636363626,
                "tempo": 120.0
            },
            {
                "start_time": 50.945454545454545,
                "end_time": 51.12954545454545,
                "pitch": 75,
                "velocity": 64,
                "duration": 0.18409090909090509,
                "tempo": 120.0
            },
            {
                "start_time": 51.14545454545454,
                "end_time": 51.32954545454545,
                "pitch": 68,
                "velocity": 64,
                "duration": 0.1840909090909122,
                "tempo": 120.0
            },
            {
                "start_time": 51.345454545454544,
                "end_time": 51.720454545454544,
                "pitch": 75,
                "velocity": 64,
                "duration": 0.375,
                "tempo": 120.0
            },
            {
                "start_time": 51.736363636363635,
                "end_time": 52.13181818181818,
                "pitch": 72,
                "velocity": 64,
                "duration": 0.39545454545454817,
                "tempo": 120.0
            },
            {
                "start_time": 52.14772727272727,
                "end_time": 52.53181818181818,
                "pitch": 68,
                "velocity": 64,
                "duration": 0.38409090909090793,
                "tempo": 120.0
            },
            {
                "start_time": 52.54772727272727,
                "end_time": 52.92272727272727,
                "pitch": 72,
                "velocity": 64,
                "duration": 0.375,
                "tempo": 120.0
            },
            {
                "start_time": 52.94090909090909,
                "end_time": 52.974999999999994,
                "pitch": 66,
                "velocity": 64,
                "duration": 0.03409090909090651,
                "tempo": 120.0
            }
        ],
        "Vibraphone": [
            {
                "start_time": 0.0,
                "end_time": 0.08409090909090909,
                "pitch": 66,
                "velocity": 80,
                "duration": 0.08409090909090909,
                "tempo": 120.0
            },
            {
                "start_time": 0.6,
                "end_time": 1.184090909090909,
                "pitch": 66,
                "velocity": 80,
                "duration": 0.5840909090909091,
                "tempo": 120.0
            },
            {
                "start_time": 1.2,
                "end_time": 1.584090909090909,
                "pitch": 66,
                "velocity": 80,
                "duration": 0.38409090909090904,
                "tempo": 120.0
            },
            {
                "start_time": 1.5999999999999999,
                "end_time": 1.684090909090909,
                "pitch": 66,
                "velocity": 80,
                "duration": 0.08409090909090922,
                "tempo": 120.0
            },
            {
                "start_time": 2.202272727272727,
                "end_time": 3.186363636363636,
                "pitch": 66,
                "velocity": 80,
                "duration": 0.9840909090909089,
                "tempo": 120.0
            },
            {
                "start_time": 3.202272727272727,
                "end_time": 3.3545454545454545,
                "pitch": 61,
                "velocity": 80,
                "duration": 0.15227272727272734,
                "tempo": 120.0
            },
            {
                "start_time": 3.8045454545454542,
                "end_time": 4.388636363636364,
                "pitch": 61,
                "velocity": 80,
                "duration": 0.5840909090909094,
                "tempo": 120.0
            },
            {
                "start_time": 4.404545454545454,
                "end_time": 4.590909090909091,
                "pitch": 61,
                "velocity": 80,
                "duration": 0.1863636363636365,
                "tempo": 120.0
            },
            {
                "start_time": 4.6068181818181815,
                "end_time": 6.3977272727272725,
                "pitch": 61,
                "velocity": 80,
                "duration": 1.790909090909091,
                "tempo": 120.0
            },
            {
                "start_time": 6.413636363636363,
                "end_time": 6.497727272727272,
                "pitch": 66,
                "velocity": 80,
                "duration": 0.084090909090909,
                "tempo": 120.0
            },
            {
                "start_time": 7.015909090909091,
                "end_time": 7.602272727272727,
                "pitch": 66,
                "velocity": 80,
                "duration": 0.586363636363636,
                "tempo": 120.0
            },
            {
                "start_time": 7.618181818181818,
                "end_time": 8.002272727272727,
                "pitch": 66,
                "velocity": 80,
                "duration": 0.3840909090909088,
                "tempo": 120.0
            },
            {
                "start_time": 8.018181818181818,
                "end_time": 8.102272727272727,
                "pitch": 66,
                "velocity": 80,
                "duration": 0.084090909090909,
                "tempo": 120.0
            },
            {
                "start_time": 8.622727272727273,
                "end_time": 9.611363636363636,
                "pitch": 66,
                "velocity": 80,
                "duration": 0.9886363636363633,
                "tempo": 120.0
            },
            {
                "start_time": 9.627272727272727,
                "end_time": 10.611363636363636,
                "pitch": 70,
                "velocity": 80,
                "duration": 0.9840909090909093,
                "tempo": 120.0
            },
            {
                "start_time": 10.627272727272727,
                "end_time": 10.809090909090909,
                "pitch": 70,
                "velocity": 80,
                "duration": 0.18181818181818166,
                "tempo": 120.0
            },
            {
                "start_time": 10.825,
                "end_time": 11.218181818181817,
                "pitch": 70,
                "velocity": 80,
                "duration": 0.39318181818181763,
                "tempo": 120.0
            },
            {
                "start_time": 11.236363636363636,
                "end_time": 12.827272727272726,
                "pitch": 69,
                "velocity": 80,
                "duration": 1.59090909090909,
                "tempo": 120.0
            },
            {
                "start_time": 12.843181818181817,
                "end_time": 12.927272727272726,
                "pitch": 66,
                "velocity": 80,
                "duration": 0.084090909090909,
                "tempo": 120.0
            },
            {
                "start_time": 13.445454545454545,
                "end_time": 14.031818181818181,
                "pitch": 66,
                "velocity": 80,
                "duration": 0.586363636363636,
                "tempo": 120.0
            },
            {
                "start_time": 14.047727272727272,
                "end_time": 14.434090909090909,
                "pitch": 66,
                "velocity": 80,
                "duration": 0.3863636363636367,
                "tempo": 120.0
            },
            {
                "start_time": 14.452272727272726,
                "end_time": 14.536363636363635,
                "pitch": 66,
                "velocity": 80,
                "duration": 0.084090909090909,
                "tempo": 120.0
            },
            {
                "start_time": 15.054545454545455,
                "end_time": 16.043181818181818,
                "pitch": 66,
                "velocity": 80,
                "duration": 0.9886363636363633,
                "tempo": 120.0
            },
            {
                "start_time": 16.05909090909091,
                "end_time": 16.645454545454545,
                "pitch": 61,
                "velocity": 80,
                "duration": 0.586363636363636,
                "tempo": 120.0
            },
            {
                "start_time": 16.661363636363635,
                "end_time": 17.647727272727273,
                "pitch": 61,
                "velocity": 80,
                "duration": 0.9863636363636381,
                "tempo": 120.0
            },
            {
                "start_time": 17.66590909090909,
                "end_time": 17.78181818181818,
                "pitch": 61,
                "velocity": 80,
                "duration": 0.11590909090909207,
                "tempo": 120.0
            },
            {
                "start_time": 18.268181818181816,
                "end_time": 19.254545454545454,
                "pitch": 61,
                "velocity": 80,
                "duration": 0.9863636363636381,
                "tempo": 120.0
            },
            {
                "start_time": 19.270454545454545,
                "end_time": 19.354545454545452,
                "pitch": 66,
                "velocity": 80,
                "duration": 0.08409090909090722,
                "tempo": 120.0
            },
            {
                "start_time": 19.870454545454546,
                "end_time": 20.456818181818182,
                "pitch": 66,
                "velocity": 80,
                "duration": 0.586363636363636,
                "tempo": 120.0
            },
            {
                "start_time": 20.472727272727273,
                "end_time": 20.85681818181818,
                "pitch": 66,
                "velocity": 80,
                "duration": 0.38409090909090793,
                "tempo": 120.0
            },
            {
                "start_time": 20.87272727272727,
                "end_time": 20.956818181818182,
                "pitch": 66,
                "velocity": 80,
                "duration": 0.08409090909091077,
                "tempo": 120.0
            },
            {
                "start_time": 21.474999999999998,
                "end_time": 22.461363636363636,
                "pitch": 66,
                "velocity": 80,
                "duration": 0.9863636363636381,
                "tempo": 120.0
            },
            {
                "start_time": 22.479545454545452,
                "end_time": 23.46363636363636,
                "pitch": 70,
                "velocity": 80,
                "duration": 0.9840909090909093,
                "tempo": 120.0
            },
            {
                "start_time": 23.48181818181818,
                "end_time": 23.663636363636364,
                "pitch": 70,
                "velocity": 80,
                "duration": 0.18181818181818343,
                "tempo": 120.0
            },
            {
                "start_time": 23.68181818181818,
                "end_time": 24.068181818181817,
                "pitch": 70,
                "velocity": 80,
                "duration": 0.3863636363636367,
                "tempo": 120.0
            },
            {
                "start_time": 24.084090909090907,
                "end_time": 25.870454545454542,
                "pitch": 72,
                "velocity": 80,
                "duration": 1.7863636363636353,
                "tempo": 120.0
            },
            {
                "start_time": 25.888636363636362,
                "end_time": 26.07272727272727,
                "pitch": 72,
                "velocity": 80,
                "duration": 0.18409090909090864,
                "tempo": 120.0
            },
            {
                "start_time": 26.08863636363636,
                "end_time": 26.472727272727273,
                "pitch": 72,
                "velocity": 80,
                "duration": 0.3840909090909115,
                "tempo": 120.0
            },
            {
                "start_time": 26.488636363636363,
                "end_time": 26.87272727272727,
                "pitch": 72,
                "velocity": 80,
                "duration": 0.38409090909090793,
                "tempo": 120.0
            },
            {
                "start_time": 26.888636363636362,
                "end_time": 27.275,
                "pitch": 72,
                "velocity": 80,
                "duration": 0.3863636363636367,
                "tempo": 120.0
            },
            {
                "start_time": 27.293181818181818,
                "end_time": 28.677272727272726,
                "pitch": 74,
                "velocity": 80,
                "duration": 1.384090909090908,
                "tempo": 120.0
            },
            {
                "start_time": 28.695454545454545,
                "end_time": 28.877272727272725,
                "pitch": 62,
                "velocity": 80,
                "duration": 0.18181818181817988,
                "tempo": 120.0
            },
            {
                "start_time": 28.895454545454545,
                "end_time": 29.877272727272725,
                "pitch": 74,
                "velocity": 80,
                "duration": 0.9818181818181806,
                "tempo": 120.0
            },
            {
                "start_time": 29.893181818181816,
                "end_time": 30.48409090909091,
                "pitch": 74,
                "velocity": 80,
                "duration": 0.5909090909090935,
                "tempo": 120.0
            },
            {
                "start_time": 30.5,
                "end_time": 31.686363636363634,
                "pitch": 72,
                "velocity": 80,
                "duration": 1.1863636363636338,
                "tempo": 120.0
            },
            {
                "start_time": 31.702272727272724,
                "end_time": 31.888636363636362,
                "pitch": 60,
                "velocity": 80,
                "duration": 0.1863636363636374,
                "tempo": 120.0
            },
            {
                "start_time": 31.904545454545453,
                "end_time": 33.086363636363636,
                "pitch": 72,
                "velocity": 80,
                "duration": 1.1818181818181834,
                "tempo": 120.0
            },
            {
                "start_time": 33.10227272727273,
                "end_time": 33.486363636363635,
                "pitch": 72,
                "velocity": 80,
                "duration": 0.38409090909090793,
                "tempo": 120.0
            },
            {
                "start_time": 33.502272727272725,
                "end_time": 34.49318181818182,
                "pitch": 70,
                "velocity": 80,
                "duration": 0.9909090909090921,
                "tempo": 120.0
            },
            {
                "start_time": 34.51136363636363,
                "end_time": 35.29545454545455,
                "pitch": 70,
                "velocity": 80,
                "duration": 0.7840909090909136,
                "tempo": 120.0
            },
            {
                "start_time": 35.31136363636364,
                "end_time": 35.69772727272727,
                "pitch": 70,
                "velocity": 80,
                "duration": 0.38636363636363313,
                "tempo": 120.0
            },
            {
                "start_time": 35.71363636363636,
                "end_time": 35.89772727272727,
                "pitch": 70,
                "velocity": 80,
                "duration": 0.1840909090909122,
                "tempo": 120.0
            },
            {
                "start_time": 35.913636363636364,
                "end_time": 36.293181818181814,
                "pitch": 70,
                "velocity": 80,
                "duration": 0.3795454545454504,
                "tempo": 120.0
            },
            {
                "start_time": 36.309090909090905,
                "end_time": 36.48863636363636,
                "pitch": 70,
                "velocity": 80,
                "duration": 0.17954545454545467,
                "tempo": 120.0
            },
            {
                "start_time": 36.50681818181818,
                "end_time": 36.9,
                "pitch": 70,
                "velocity": 80,
                "duration": 0.39318181818181586,
                "tempo": 120.0
            },
            {
                "start_time": 36.91590909090909,
                "end_time": 37.70454545454545,
                "pitch": 72,
                "velocity": 80,
                "duration": 0.788636363636364,
                "tempo": 120.0
            },
            {
                "start_time": 37.720454545454544,
                "end_time": 38.502272727272725,
                "pitch": 72,
                "velocity": 80,
                "duration": 0.7818181818181813,
                "tempo": 120.0
            },
            {
                "start_time": 38.52045454545454,
                "end_time": 38.70227272727273,
                "pitch": 72,
                "velocity": 80,
                "duration": 0.18181818181818699,
                "tempo": 120.0
            },
            {
                "start_time": 38.720454545454544,
                "end_time": 39.10227272727273,
                "pitch": 72,
                "velocity": 80,
                "duration": 0.3818181818181827,
                "tempo": 120.0
            },
            {
                "start_time": 39.12045454545454,
                "end_time": 39.50454545454545,
                "pitch": 72,
                "velocity": 80,
                "duration": 0.38409090909090793,
                "tempo": 120.0
            },
            {
                "start_time": 39.52045454545454,
                "end_time": 39.70681818181818,
                "pitch": 72,
                "velocity": 80,
                "duration": 0.1863636363636374,
                "tempo": 120.0
            },
            {
                "start_time": 39.72272727272727,
                "end_time": 40.10681818181818,
                "pitch": 72,
                "velocity": 80,
                "duration": 0.38409090909090793,
                "tempo": 120.0
            },
            {
                "start_time": 40.12272727272727,
                "end_time": 41.50681818181818,
                "pitch": 74,
                "velocity": 80,
                "duration": 1.384090909090915,
                "tempo": 120.0
            },
            {
                "start_time": 41.525,
                "end_time": 41.709090909090904,
                "pitch": 62,
                "velocity": 80,
                "duration": 0.18409090909090509,
                "tempo": 120.0
            },
            {
                "start_time": 41.725,
                "end_time": 42.70454545454545,
                "pitch": 74,
                "velocity": 80,
                "duration": 0.9795454545454518,
                "tempo": 120.0
            },
            {
                "start_time": 42.720454545454544,
                "end_time": 43.31136363636364,
                "pitch": 74,
                "velocity": 80,
                "duration": 0.5909090909090935,
                "tempo": 120.0
            },
            {
                "start_time": 43.32727272727273,
                "end_time": 44.51363636363636,
                "pitch": 72,
                "velocity": 80,
                "duration": 1.1863636363636303,
                "tempo": 120.0
            },
            {
                "start_time": 44.53181818181818,
                "end_time": 44.71363636363636,
                "pitch": 60,
                "velocity": 80,
                "duration": 0.18181818181817988,
                "tempo": 120.0
            },
            {
                "start_time": 44.73181818181818,
                "end_time": 45.91590909090909,
                "pitch": 72,
                "velocity": 80,
                "duration": 1.1840909090909122,
                "tempo": 120.0
            },
            {
                "start_time": 45.934090909090905,
                "end_time": 46.31590909090909,
                "pitch": 72,
                "velocity": 80,
                "duration": 0.3818181818181827,
                "tempo": 120.0
            },
            {
                "start_time": 46.334090909090904,
                "end_time": 47.320454545454545,
                "pitch": 70,
                "velocity": 80,
                "duration": 0.9863636363636417,
                "tempo": 120.0
            },
            {
                "start_time": 47.336363636363636,
                "end_time": 48.12272727272727,
                "pitch": 70,
                "velocity": 80,
                "duration": 0.7863636363636317,
                "tempo": 120.0
            },
            {
                "start_time": 48.13863636363636,
                "end_time": 48.52272727272727,
                "pitch": 70,
                "velocity": 80,
                "duration": 0.38409090909091503,
                "tempo": 120.0
            },
            {
                "start_time": 48.538636363636364,
                "end_time": 48.71818181818182,
                "pitch": 70,
                "velocity": 80,
                "duration": 0.17954545454545467,
                "tempo": 120.0
            },
            {
                "start_time": 48.73409090909091,
                "end_time": 49.724999999999994,
                "pitch": 70,
                "velocity": 80,
                "duration": 0.990909090909085,
                "tempo": 120.0
            },
            {
                "start_time": 49.740909090909085,
                "end_time": 50.11818181818182,
                "pitch": 72,
                "velocity": 80,
                "duration": 0.3772727272727323,
                "tempo": 120.0
            },
            {
                "start_time": 50.13409090909091,
                "end_time": 50.31818181818181,
                "pitch": 72,
                "velocity": 80,
                "duration": 0.18409090909090509,
                "tempo": 120.0
            },
            {
                "start_time": 50.334090909090904,
                "end_time": 50.518181818181816,
                "pitch": 72,
                "velocity": 80,
                "duration": 0.1840909090909122,
                "tempo": 120.0
            },
            {
                "start_time": 50.53409090909091,
                "end_time": 50.92727272727272,
                "pitch": 72,
                "velocity": 80,
                "duration": 0.39318181818181586,
                "tempo": 120.0
            },
            {
                "start_time": 50.945454545454545,
                "end_time": 51.32954545454545,
                "pitch": 72,
                "velocity": 80,
                "duration": 0.38409090909090793,
                "tempo": 120.0
            },
            {
                "start_time": 51.345454545454544,
                "end_time": 51.720454545454544,
                "pitch": 72,
                "velocity": 80,
                "duration": 0.375,
                "tempo": 120.0
            },
            {
                "start_time": 51.736363636363635,
                "end_time": 52.13181818181818,
                "pitch": 72,
                "velocity": 80,
                "duration": 0.39545454545454817,
                "tempo": 120.0
            },
            {
                "start_time": 52.14772727272727,
                "end_time": 52.53181818181818,
                "pitch": 72,
                "velocity": 80,
                "duration": 0.38409090909090793,
                "tempo": 120.0
            },
            {
                "start_time": 52.54772727272727,
                "end_time": 52.92272727272727,
                "pitch": 72,
                "velocity": 80,
                "duration": 0.375,
                "tempo": 120.0
            },
            {
                "start_time": 52.94090909090909,
                "end_time": 52.974999999999994,
                "pitch": 66,
                "velocity": 80,
                "duration": 0.03409090909090651,
                "tempo": 120.0
            }
        ]
    }
}