{
    "track_id": "Phantasy Star (FM) - 15 - Tower",
    "mood": "angry",
    "instruments": {
        "Trumpet": [
            {
                "start_time": 0.0,
                "end_time": 0.08409090909090909,
                "pitch": 57,
                "velocity": 51,
                "duration": 0.08409090909090909,
                "tempo": 120.0
            },
            {
                "start_time": 0.09999999999999999,
                "end_time": 0.18409090909090908,
                "pitch": 59,
                "velocity": 51,
                "duration": 0.08409090909090909,
                "tempo": 120.0
            },
            {
                "start_time": 0.19999999999999998,
                "end_time": 0.3840909090909091,
                "pitch": 60,
                "velocity": 51,
                "duration": 0.1840909090909091,
                "tempo": 120.0
            },
            {
                "start_time": 0.39999999999999997,
                "end_time": 0.5840909090909091,
                "pitch": 60,
                "velocity": 51,
                "duration": 0.18409090909090914,
                "tempo": 120.0
            },
            {
                "start_time": 0.6,
                "end_time": 0.6840909090909091,
                "pitch": 59,
                "velocity": 51,
                "duration": 0.0840909090909091,
                "tempo": 120.0
            },
            {
                "start_time": 0.7,
                "end_time": 0.75,
                "pitch": 57,
                "velocity": 51,
                "duration": 0.050000000000000044,
                "tempo": 120.0
            },
            {
                "start_time": 1.565909090909091,
                "end_time": 1.684090909090909,
                "pitch": 57,
                "velocity": 51,
                "duration": 0.11818181818181817,
                "tempo": 120.0
            },
            {
                "start_time": 1.7,
                "end_time": 1.784090909090909,
                "pitch": 59,
                "velocity": 51,
                "duration": 0.084090909090909,
                "tempo": 120.0
            },
            {
                "start_time": 1.8022727272727272,
                "end_time": 1.9863636363636363,
                "pitch": 60,
                "velocity": 51,
                "duration": 0.18409090909090908,
                "tempo": 120.0
            },
            {
                "start_time": 2.002272727272727,
                "end_time": 2.186363636363636,
                "pitch": 60,
                "velocity": 51,
                "duration": 0.18409090909090908,
                "tempo": 120.0
            },
            {
                "start_time": 2.202272727272727,
                "end_time": 2.286363636363636,
                "pitch": 59,
                "velocity": 51,
                "duration": 0.084090909090909,
                "tempo": 120.0
            },
            {
                "start_time": 2.3022727272727272,
                "end_time": 3.186363636363636,
                "pitch": 57,
                "velocity": 51,
                "duration": 0.8840909090909088,
                "tempo": 120.0
            },
            {
                "start_time": 3.202272727272727,
                "end_time": 4.590909090909091,
                "pitch": 53,
                "velocity": 51,
                "duration": 1.3886363636363637,
                "tempo": 120.0
            },
            {
                "start_time": 4.6068181818181815,
                "end_time": 4.790909090909091,
                "pitch": 50,
                "velocity": 51,
                "duration": 0.18409090909090953,
                "tempo": 120.0
            },
            {
                "start_time": 4.809090909090909,
                "end_time": 5.927272727272727,
                "pitch": 50,
                "velocity": 51,
                "duration": 1.1181818181818182,
                "tempo": 120.0
            },
            {
                "start_time": 6.413636363636363,
                "end_time": 6.497727272727272,
                "pitch": 57,
                "velocity": 51,
                "duration": 0.084090909090909,
                "tempo": 120.0
            },
            {
                "start_time": 6.513636363636364,
                "end_time": 6.597727272727273,
                "pitch": 59,
                "velocity": 51,
                "duration": 0.084090909090909,
                "tempo": 120.0
            },
            {
                "start_time": 6.613636363636363,
                "end_time": 6.8,
                "pitch": 60,
                "velocity": 51,
                "duration": 0.1863636363636365,
                "tempo": 120.0
            },
            {
                "start_time": 6.8159090909090905,
                "end_time": 7.0,
                "pitch": 60,
                "velocity": 51,
                "duration": 0.18409090909090953,
                "tempo": 120.0
            },
            {
                "start_time": 7.015909090909091,
                "end_time": 7.1,
                "pitch": 59,
                "velocity": 51,
                "duration": 0.084090909090909,
                "tempo": 120.0
            },
            {
                "start_time": 7.11590909090909,
                "end_time": 7.16590909090909,
                "pitch": 57,
                "velocity": 51,
                "duration": 0.04999999999999982,
                "tempo": 120.0
            },
            {
                "start_time": 8.018181818181818,
                "end_time": 8.102272727272727,
                "pitch": 57,
                "velocity": 51,
                "duration": 0.084090909090909,
                "tempo": 120.0
            },
            {
                "start_time": 8.120454545454544,
                "end_time": 8.202272727272726,
                "pitch": 59,
                "velocity": 51,
                "duration": 0.08181818181818201,
                "tempo": 120.0
            },
            {
                "start_time": 8.220454545454546,
                "end_time": 8.404545454545454,
                "pitch": 60,
                "velocity": 51,
                "duration": 0.18409090909090864,
                "tempo": 120.0
            },
            {
                "start_time": 8.420454545454545,
                "end_time": 8.60681818181818,
                "pitch": 60,
                "velocity": 51,
                "duration": 0.18636363636363562,
                "tempo": 120.0
            },
            {
                "start_time": 8.622727272727273,
                "end_time": 8.706818181818182,
                "pitch": 59,
                "velocity": 51,
                "duration": 0.084090909090909,
                "tempo": 120.0
            },
            {
                "start_time": 8.722727272727273,
                "end_time": 9.60909090909091,
                "pitch": 57,
                "velocity": 51,
                "duration": 0.8863636363636367,
                "tempo": 120.0
            },
            {
                "start_time": 9.627272727272727,
                "end_time": 11.220454545454546,
                "pitch": 59,
                "velocity": 51,
                "duration": 1.5931818181818187,
                "tempo": 120.0
            },
            {
                "start_time": 11.238636363636363,
                "end_time": 12.829545454545453,
                "pitch": 59,
                "velocity": 51,
                "duration": 1.59090909090909,
                "tempo": 120.0
            },
            {
                "start_time": 12.845454545454546,
                "end_time": 12.929545454545455,
                "pitch": 57,
                "velocity": 51,
                "duration": 0.084090909090909,
                "tempo": 120.0
            },
            {
                "start_time": 12.945454545454545,
                "end_time": 13.029545454545454,
                "pitch": 59,
                "velocity": 51,
                "duration": 0.084090909090909,
                "tempo": 120.0
            },
            {
                "start_time": 13.047727272727272,
                "end_time": 13.23181818181818,
                "pitch": 60,
                "velocity": 51,
                "duration": 0.18409090909090864,
                "tempo": 120.0
            },
            {
                "start_time": 13.247727272727271,
                "end_time": 13.431818181818182,
                "pitch": 60,
                "velocity": 51,
                "duration": 0.18409090909091042,
                "tempo": 120.0
            },
            {
                "start_time": 13.447727272727272,
                "end_time": 13.531818181818181,
                "pitch": 59,
                "velocity": 51,
                "duration": 0.084090909090909,
                "tempo": 120.0
            },
            {
                "start_time": 13.547727272727272,
                "end_time": 13.597727272727273,
                "pitch": 57,
                "velocity": 51,
                "duration": 0.05000000000000071,
                "tempo": 120.0
            },
            {
                "start_time": 14.454545454545453,
                "end_time": 14.538636363636362,
                "pitch": 57,
                "velocity": 51,
                "duration": 0.084090909090909,
                "tempo": 120.0
            },
            {
                "start_time": 14.554545454545455,
                "end_time": 14.638636363636364,
                "pitch": 59,
                "velocity": 51,
                "duration": 0.084090909090909,
                "tempo": 120.0
            },
            {
                "start_time": 14.654545454545454,
                "end_time": 14.838636363636363,
                "pitch": 60,
                "velocity": 51,
                "duration": 0.18409090909090864,
                "tempo": 120.0
            },
            {
                "start_time": 14.85681818181818,
                "end_time": 15.040909090909091,
                "pitch": 60,
                "velocity": 51,
                "duration": 0.18409090909091042,
                "tempo": 120.0
            },
            {
                "start_time": 15.056818181818182,
                "end_time": 15.14090909090909,
                "pitch": 59,
                "velocity": 51,
                "duration": 0.084090909090909,
                "tempo": 120.0
            },
            {
                "start_time": 15.159090909090908,
                "end_time": 16.045454545454543,
                "pitch": 57,
                "velocity": 51,
                "duration": 0.8863636363636349,
                "tempo": 120.0
            },
            {
                "start_time": 16.061363636363634,
                "end_time": 17.45,
                "pitch": 57,
                "velocity": 51,
                "duration": 1.3886363636363654,
                "tempo": 120.0
            },
            {
                "start_time": 17.46818181818182,
                "end_time": 17.65,
                "pitch": 50,
                "velocity": 51,
                "duration": 0.18181818181817988,
                "tempo": 120.0
            },
            {
                "start_time": 17.668181818181818,
                "end_time": 18.786363636363635,
                "pitch": 50,
                "velocity": 51,
                "duration": 1.1181818181818173,
                "tempo": 120.0
            },
            {
                "start_time": 19.272727272727273,
                "end_time": 19.35681818181818,
                "pitch": 57,
                "velocity": 51,
                "duration": 0.08409090909090722,
                "tempo": 120.0
            },
            {
                "start_time": 19.37272727272727,
                "end_time": 19.456818181818182,
                "pitch": 59,
                "velocity": 51,
                "duration": 0.08409090909091077,
                "tempo": 120.0
            },
            {
                "start_time": 19.472727272727273,
                "end_time": 19.65681818181818,
                "pitch": 60,
                "velocity": 51,
                "duration": 0.18409090909090864,
                "tempo": 120.0
            },
            {
                "start_time": 19.672727272727272,
                "end_time": 19.85681818181818,
                "pitch": 60,
                "velocity": 51,
                "duration": 0.18409090909090864,
                "tempo": 120.0
            },
            {
                "start_time": 19.87272727272727,
                "end_time": 19.956818181818182,
                "pitch": 59,
                "velocity": 51,
                "duration": 0.08409090909091077,
                "tempo": 120.0
            },
            {
                "start_time": 19.974999999999998,
                "end_time": 20.025,
                "pitch": 57,
                "velocity": 51,
                "duration": 0.05000000000000071,
                "tempo": 120.0
            },
            {
                "start_time": 20.875,
                "end_time": 20.959090909090907,
                "pitch": 57,
                "velocity": 51,
                "duration": 0.08409090909090722,
                "tempo": 120.0
            },
            {
                "start_time": 20.974999999999998,
                "end_time": 21.05909090909091,
                "pitch": 59,
                "velocity": 51,
                "duration": 0.08409090909091077,
                "tempo": 120.0
            },
            {
                "start_time": 21.077272727272724,
                "end_time": 21.261363636363637,
                "pitch": 60,
                "velocity": 51,
                "duration": 0.1840909090909122,
                "tempo": 120.0
            },
            {
                "start_time": 21.277272727272727,
                "end_time": 21.461363636363636,
                "pitch": 60,
                "velocity": 51,
                "duration": 0.18409090909090864,
                "tempo": 120.0
            },
            {
                "start_time": 21.477272727272727,
                "end_time": 21.561363636363634,
                "pitch": 59,
                "velocity": 51,
                "duration": 0.08409090909090722,
                "tempo": 120.0
            },
            {
                "start_time": 21.577272727272724,
                "end_time": 22.46363636363636,
                "pitch": 57,
                "velocity": 51,
                "duration": 0.8863636363636367,
                "tempo": 120.0
            },
            {
                "start_time": 22.479545454545452,
                "end_time": 24.068181818181817,
                "pitch": 59,
                "velocity": 51,
                "duration": 1.5886363636363647,
                "tempo": 120.0
            },
            {
                "start_time": 24.086363636363636,
                "end_time": 25.672727272727272,
                "pitch": 64,
                "velocity": 51,
                "duration": 1.586363636363636,
                "tempo": 120.0
            },
            {
                "start_time": 25.688636363636363,
                "end_time": 26.474999999999998,
                "pitch": 64,
                "velocity": 51,
                "duration": 0.7863636363636353,
                "tempo": 120.0
            },
            {
                "start_time": 26.49090909090909,
                "end_time": 27.277272727272727,
                "pitch": 71,
                "velocity": 51,
                "duration": 0.7863636363636388,
                "tempo": 120.0
            },
            {
                "start_time": 27.293181818181818,
                "end_time": 28.079545454545453,
                "pitch": 68,
                "velocity": 51,
                "duration": 0.7863636363636353,
                "tempo": 120.0
            },
            {
                "start_time": 28.097727272727273,
                "end_time": 28.879545454545454,
                "pitch": 64,
                "velocity": 51,
                "duration": 0.7818181818181813,
                "tempo": 120.0
            },
            {
                "start_time": 28.89772727272727,
                "end_time": 29.68181818181818,
                "pitch": 60,
                "velocity": 51,
                "duration": 0.7840909090909101,
                "tempo": 120.0
            },
            {
                "start_time": 29.7,
                "end_time": 30.486363636363635,
                "pitch": 69,
                "velocity": 51,
                "duration": 0.7863636363636353,
                "tempo": 120.0
            },
            {
                "start_time": 30.502272727272725,
                "end_time": 32.090909090909086,
                "pitch": 71,
                "velocity": 51,
                "duration": 1.5886363636363612,
                "tempo": 120.0
            },
            {
                "start_time": 32.10681818181818,
                "end_time": 32.29090909090909,
                "pitch": 65,
                "velocity": 51,
                "duration": 0.1840909090909122,
                "tempo": 120.0
            },
            {
                "start_time": 32.30681818181818,
                "end_time": 32.69090909090909,
                "pitch": 62,
                "velocity": 51,
                "duration": 0.38409090909090793,
                "tempo": 120.0
            },
            {
                "start_time": 32.70681818181818,
                "end_time": 33.090909090909086,
                "pitch": 69,
                "velocity": 51,
                "duration": 0.38409090909090793,
                "tempo": 120.0
            },
            {
                "start_time": 33.10681818181818,
                "end_time": 33.29090909090909,
                "pitch": 62,
                "velocity": 51,
                "duration": 0.1840909090909122,
                "tempo": 120.0
            },
            {
                "start_time": 33.30681818181818,
                "end_time": 33.49090909090909,
                "pitch": 71,
                "velocity": 51,
                "duration": 0.1840909090909122,
                "tempo": 120.0
            },
            {
                "start_time": 33.50909090909091,
                "end_time": 33.69318181818181,
                "pitch": 62,
                "velocity": 51,
                "duration": 0.18409090909090509,
                "tempo": 120.0
            },
            {
                "start_time": 33.70909090909091,
                "end_time": 33.893181818181816,
                "pitch": 65,
                "velocity": 51,
                "duration": 0.18409090909090509,
                "tempo": 120.0
            },
            {
                "start_time": 33.90909090909091,
                "end_time": 34.49318181818182,
                "pitch": 62,
                "velocity": 51,
                "duration": 0.5840909090909108,
                "tempo": 120.0
            },
            {
                "start_time": 34.50909090909091,
                "end_time": 34.893181818181816,
                "pitch": 69,
                "velocity": 51,
                "duration": 0.38409090909090793,
                "tempo": 120.0
            },
            {
                "start_time": 34.90909090909091,
                "end_time": 35.293181818181814,
                "pitch": 62,
                "velocity": 51,
                "duration": 0.38409090909090793,
                "tempo": 120.0
            },
            {
                "start_time": 35.309090909090905,
                "end_time": 35.49545454545454,
                "pitch": 59,
                "velocity": 51,
                "duration": 0.1863636363636374,
                "tempo": 120.0
            },
            {
                "start_time": 35.51136363636363,
                "end_time": 35.89545454545454,
                "pitch": 59,
                "velocity": 51,
                "duration": 0.38409090909090793,
                "tempo": 120.0
            },
            {
                "start_time": 35.913636363636364,
                "end_time": 36.49545454545454,
                "pitch": 59,
                "velocity": 51,
                "duration": 0.5818181818181785,
                "tempo": 120.0
            },
            {
                "start_time": 36.51363636363636,
                "end_time": 38.49772727272727,
                "pitch": 67,
                "velocity": 51,
                "duration": 1.9840909090909093,
                "tempo": 120.0
            },
            {
                "start_time": 38.51590909090909,
                "end_time": 39.29772727272727,
                "pitch": 64,
                "velocity": 51,
                "duration": 0.7818181818181813,
                "tempo": 120.0
            },
            {
                "start_time": 39.31590909090909,
                "end_time": 40.10227272727273,
                "pitch": 71,
                "velocity": 51,
                "duration": 0.7863636363636388,
                "tempo": 120.0
            },
            {
                "start_time": 40.11818181818182,
                "end_time": 40.902272727272724,
                "pitch": 68,
                "velocity": 51,
                "duration": 0.7840909090909065,
                "tempo": 120.0
            },
            {
                "start_time": 40.918181818181814,
                "end_time": 41.70454545454545,
                "pitch": 64,
                "velocity": 51,
                "duration": 0.7863636363636388,
                "tempo": 120.0
            },
            {
                "start_time": 41.720454545454544,
                "end_time": 42.50454545454545,
                "pitch": 60,
                "velocity": 51,
                "duration": 0.7840909090909065,
                "tempo": 120.0
            },
            {
                "start_time": 42.52045454545454,
                "end_time": 43.304545454545455,
                "pitch": 69,
                "velocity": 51,
                "duration": 0.7840909090909136,
                "tempo": 120.0
            },
            {
                "start_time": 43.320454545454545,
                "end_time": 44.90681818181818,
                "pitch": 71,
                "velocity": 51,
                "duration": 1.586363636363636,
                "tempo": 120.0
            },
            {
                "start_time": 44.92272727272727,
                "end_time": 45.10681818181818,
                "pitch": 59,
                "velocity": 51,
                "duration": 0.18409090909090509,
                "tempo": 120.0
            },
            {
                "start_time": 45.12272727272727,
                "end_time": 45.30681818181818,
                "pitch": 55,
                "velocity": 51,
                "duration": 0.1840909090909122,
                "tempo": 120.0
            },
            {
                "start_time": 45.32272727272727,
                "end_time": 45.50909090909091,
                "pitch": 62,
                "velocity": 51,
                "duration": 0.1863636363636374,
                "tempo": 120.0
            },
            {
                "start_time": 45.525,
                "end_time": 45.709090909090904,
                "pitch": 55,
                "velocity": 51,
                "duration": 0.18409090909090509,
                "tempo": 120.0
            },
            {
                "start_time": 45.72727272727273,
                "end_time": 45.90909090909091,
                "pitch": 64,
                "velocity": 51,
                "duration": 0.18181818181817988,
                "tempo": 120.0
            },
            {
                "start_time": 45.92727272727272,
                "end_time": 46.10909090909091,
                "pitch": 55,
                "velocity": 51,
                "duration": 0.18181818181818699,
                "tempo": 120.0
            },
            {
                "start_time": 46.127272727272725,
                "end_time": 46.309090909090905,
                "pitch": 62,
                "velocity": 51,
                "duration": 0.18181818181817988,
                "tempo": 120.0
            },
            {
                "start_time": 46.32727272727273,
                "end_time": 46.50909090909091,
                "pitch": 55,
                "velocity": 51,
                "duration": 0.18181818181817988,
                "tempo": 120.0
            },
            {
                "start_time": 46.527272727272724,
                "end_time": 46.709090909090904,
                "pitch": 59,
                "velocity": 51,
                "duration": 0.18181818181817988,
                "tempo": 120.0
            },
            {
                "start_time": 46.72727272727273,
                "end_time": 46.90909090909091,
                "pitch": 55,
                "velocity": 51,
                "duration": 0.18181818181817988,
                "tempo": 120.0
            },
            {
                "start_time": 46.92727272727272,
                "end_time": 47.10909090909091,
                "pitch": 62,
                "velocity": 51,
                "duration": 0.18181818181818699,
                "tempo": 120.0
            },
            {
                "start_time": 47.127272727272725,
                "end_time": 47.309090909090905,
                "pitch": 55,
                "velocity": 51,
                "duration": 0.18181818181817988,
                "tempo": 120.0
            },
            {
                "start_time": 47.32727272727273,
                "end_time": 47.51136363636363,
                "pitch": 62,
                "velocity": 51,
                "duration": 0.18409090909090509,
                "tempo": 120.0
            },
            {
                "start_time": 47.527272727272724,
                "end_time": 47.711363636363636,
                "pitch": 55,
                "velocity": 51,
                "duration": 0.1840909090909122,
                "tempo": 120.0
            },
            {
                "start_time": 47.72954545454545,
                "end_time": 47.91136363636363,
                "pitch": 62,
                "velocity": 51,
                "duration": 0.18181818181817988,
                "tempo": 120.0
            },
            {
                "start_time": 47.929545454545455,
                "end_time": 48.111363636363635,
                "pitch": 55,
                "velocity": 51,
                "duration": 0.18181818181817988,
                "tempo": 120.0
            },
            {
                "start_time": 48.12954545454545,
                "end_time": 48.31136363636364,
                "pitch": 57,
                "velocity": 51,
                "duration": 0.18181818181818699,
                "tempo": 120.0
            },
            {
                "start_time": 48.32954545454545,
                "end_time": 48.51136363636363,
                "pitch": 59,
                "velocity": 51,
                "duration": 0.18181818181817988,
                "tempo": 120.0
            },
            {
                "start_time": 48.52954545454545,
                "end_time": 48.711363636363636,
                "pitch": 60,
                "velocity": 51,
                "duration": 0.18181818181818699,
                "tempo": 120.0
            },
            {
                "start_time": 48.72954545454545,
                "end_time": 48.91136363636363,
                "pitch": 62,
                "velocity": 51,
                "duration": 0.18181818181817988,
                "tempo": 120.0
            },
            {
                "start_time": 48.929545454545455,
                "end_time": 49.111363636363635,
                "pitch": 59,
                "velocity": 51,
                "duration": 0.18181818181817988,
                "tempo": 120.0
            },
            {
                "start_time": 49.12954545454545,
                "end_time": 49.31136363636364,
                "pitch": 60,
                "velocity": 51,
                "duration": 0.18181818181818699,
                "tempo": 120.0
            },
            {
                "start_time": 49.32954545454545,
                "end_time": 49.51363636363636,
                "pitch": 62,
                "velocity": 51,
                "duration": 0.18409090909090509,
                "tempo": 120.0
            },
            {
                "start_time": 49.52954545454545,
                "end_time": 49.715909090909086,
                "pitch": 64,
                "velocity": 51,
                "duration": 0.1863636363636374,
                "tempo": 120.0
            },
            {
                "start_time": 49.73181818181818,
                "end_time": 49.91590909090909,
                "pitch": 60,
                "velocity": 51,
                "duration": 0.1840909090909122,
                "tempo": 120.0
            },
            {
                "start_time": 49.93181818181818,
                "end_time": 50.115909090909085,
                "pitch": 62,
                "velocity": 51,
                "duration": 0.18409090909090509,
                "tempo": 120.0
            },
            {
                "start_time": 50.13181818181818,
                "end_time": 50.31590909090909,
                "pitch": 64,
                "velocity": 51,
                "duration": 0.18409090909090509,
                "tempo": 120.0
            },
            {
                "start_time": 50.33181818181818,
                "end_time": 50.51590909090909,
                "pitch": 65,
                "velocity": 51,
                "duration": 0.1840909090909122,
                "tempo": 120.0
            },
            {
                "start_time": 50.53181818181818,
                "end_time": 50.91590909090909,
                "pitch": 67,
                "velocity": 51,
                "duration": 0.38409090909090793,
                "tempo": 120.0
            },
            {
                "start_time": 50.93181818181818,
                "end_time": 51.31590909090909,
                "pitch": 67,
                "velocity": 51,
                "duration": 0.38409090909090793,
                "tempo": 120.0
            }
        ],
        "Electric Guitar (clean)": [
            {
                "start_time": 25.688636363636363,
                "end_time": 26.875,
                "pitch": 68,
                "velocity": 80,
                "duration": 1.1863636363636374,
                "tempo": 120.0
            },
            {
                "start_time": 26.89090909090909,
                "end_time": 27.277272727272727,
                "pitch": 64,
                "velocity": 80,
                "duration": 0.3863636363636367,
                "tempo": 120.0
            },
            {
                "start_time": 27.293181818181818,
                "end_time": 28.079545454545453,
                "pitch": 65,
                "velocity": 80,
                "duration": 0.7863636363636353,
                "tempo": 120.0
            },
            {
                "start_time": 28.097727272727273,
                "end_time": 28.479545454545452,
                "pitch": 64,
                "velocity": 80,
                "duration": 0.38181818181817917,
                "tempo": 120.0
            },
            {
                "start_time": 28.49772727272727,
                "end_time": 29.28181818181818,
                "pitch": 62,
                "velocity": 80,
                "duration": 0.7840909090909101,
                "tempo": 120.0
            },
            {
                "start_time": 29.299999999999997,
                "end_time": 29.68181818181818,
                "pitch": 60,
                "velocity": 80,
                "duration": 0.3818181818181827,
                "tempo": 120.0
            },
            {
                "start_time": 29.7,
                "end_time": 30.086363636363636,
                "pitch": 62,
                "velocity": 80,
                "duration": 0.3863636363636367,
                "tempo": 120.0
            },
            {
                "start_time": 30.102272727272727,
                "end_time": 30.486363636363635,
                "pitch": 64,
                "velocity": 80,
                "duration": 0.38409090909090793,
                "tempo": 120.0
            },
            {
                "start_time": 30.502272727272725,
                "end_time": 31.654545454545453,
                "pitch": 55,
                "velocity": 80,
                "duration": 1.1522727272727273,
                "tempo": 120.0
            },
            {
                "start_time": 32.10681818181818,
                "end_time": 33.29090909090909,
                "pitch": 62,
                "velocity": 80,
                "duration": 1.1840909090909122,
                "tempo": 120.0
            },
            {
                "start_time": 33.30681818181818,
                "end_time": 33.69318181818181,
                "pitch": 64,
                "velocity": 80,
                "duration": 0.38636363636363313,
                "tempo": 120.0
            },
            {
                "start_time": 33.70909090909091,
                "end_time": 34.49318181818182,
                "pitch": 65,
                "velocity": 80,
                "duration": 0.7840909090909065,
                "tempo": 120.0
            },
            {
                "start_time": 34.50909090909091,
                "end_time": 34.893181818181816,
                "pitch": 64,
                "velocity": 80,
                "duration": 0.38409090909090793,
                "tempo": 120.0
            },
            {
                "start_time": 34.90909090909091,
                "end_time": 35.293181818181814,
                "pitch": 62,
                "velocity": 80,
                "duration": 0.38409090909090793,
                "tempo": 120.0
            },
            {
                "start_time": 35.309090909090905,
                "end_time": 36.49545454545454,
                "pitch": 59,
                "velocity": 80,
                "duration": 1.1863636363636374,
                "tempo": 120.0
            },
            {
                "start_time": 36.51363636363636,
                "end_time": 36.89545454545454,
                "pitch": 67,
                "velocity": 80,
                "duration": 0.3818181818181827,
                "tempo": 120.0
            },
            {
                "start_time": 36.913636363636364,
                "end_time": 37.69772727272727,
                "pitch": 64,
                "velocity": 80,
                "duration": 0.7840909090909065,
                "tempo": 120.0
            },
            {
                "start_time": 37.715909090909086,
                "end_time": 38.09772727272727,
                "pitch": 64,
                "velocity": 80,
                "duration": 0.3818181818181827,
                "tempo": 120.0
            },
            {
                "start_time": 38.11590909090909,
                "end_time": 38.49772727272727,
                "pitch": 67,
                "velocity": 80,
                "duration": 0.3818181818181756,
                "tempo": 120.0
            },
            {
                "start_time": 38.51590909090909,
                "end_time": 39.70227272727273,
                "pitch": 68,
                "velocity": 80,
                "duration": 1.1863636363636374,
                "tempo": 120.0
            },
            {
                "start_time": 39.71818181818182,
                "end_time": 40.10227272727273,
                "pitch": 64,
                "velocity": 80,
                "duration": 0.38409090909090793,
                "tempo": 120.0
            },
            {
                "start_time": 40.11818181818182,
                "end_time": 40.902272727272724,
                "pitch": 65,
                "velocity": 80,
                "duration": 0.7840909090909065,
                "tempo": 120.0
            },
            {
                "start_time": 40.918181818181814,
                "end_time": 41.30227272727272,
                "pitch": 64,
                "velocity": 80,
                "duration": 0.38409090909090793,
                "tempo": 120.0
            },
            {
                "start_time": 41.31818181818181,
                "end_time": 42.10454545454545,
                "pitch": 62,
                "velocity": 80,
                "duration": 0.7863636363636388,
                "tempo": 120.0
            },
            {
                "start_time": 42.12045454545454,
                "end_time": 42.50454545454545,
                "pitch": 60,
                "velocity": 80,
                "duration": 0.38409090909090793,
                "tempo": 120.0
            },
            {
                "start_time": 42.52045454545454,
                "end_time": 42.90454545454545,
                "pitch": 62,
                "velocity": 80,
                "duration": 0.38409090909090793,
                "tempo": 120.0
            },
            {
                "start_time": 42.92045454545455,
                "end_time": 43.304545454545455,
                "pitch": 64,
                "velocity": 80,
                "duration": 0.38409090909090793,
                "tempo": 120.0
            },
            {
                "start_time": 43.320454545454545,
                "end_time": 44.47272727272727,
                "pitch": 55,
                "velocity": 80,
                "duration": 1.1522727272727238,
                "tempo": 120.0
            },
            {
                "start_time": 44.92272727272727,
                "end_time": 46.10909090909091,
                "pitch": 59,
                "velocity": 80,
                "duration": 1.1863636363636374,
                "tempo": 120.0
            },
            {
                "start_time": 46.127272727272725,
                "end_time": 46.50909090909091,
                "pitch": 69,
                "velocity": 80,
                "duration": 0.3818181818181827,
                "tempo": 120.0
            },
            {
                "start_time": 46.527272727272724,
                "end_time": 47.309090909090905,
                "pitch": 67,
                "velocity": 80,
                "duration": 0.7818181818181813,
                "tempo": 120.0
            },
            {
                "start_time": 47.32727272727273,
                "end_time": 47.711363636363636,
                "pitch": 65,
                "velocity": 80,
                "duration": 0.38409090909090793,
                "tempo": 120.0
            },
            {
                "start_time": 47.72954545454545,
                "end_time": 48.111363636363635,
                "pitch": 64,
                "velocity": 80,
                "duration": 0.3818181818181827,
                "tempo": 120.0
            }
        ],
        "Oboe": [
            {
                "start_time": 48.12954545454545,
                "end_time": 48.31136363636364,
                "pitch": 60,
                "velocity": 80,
                "duration": 0.18181818181818699,
                "tempo": 120.0
            },
            {
                "start_time": 48.32954545454545,
                "end_time": 48.51136363636363,
                "pitch": 62,
                "velocity": 80,
                "duration": 0.18181818181817988,
                "tempo": 120.0
            },
            {
                "start_time": 48.52954545454545,
                "end_time": 48.711363636363636,
                "pitch": 64,
                "velocity": 80,
                "duration": 0.18181818181818699,
                "tempo": 120.0
            },
            {
                "start_time": 48.72954545454545,
                "end_time": 48.91136363636363,
                "pitch": 65,
                "velocity": 80,
                "duration": 0.18181818181817988,
                "tempo": 120.0
            },
            {
                "start_time": 48.929545454545455,
                "end_time": 49.111363636363635,
                "pitch": 62,
                "velocity": 80,
                "duration": 0.18181818181817988,
                "tempo": 120.0
            },
            {
                "start_time": 49.12954545454545,
                "end_time": 49.31136363636364,
                "pitch": 64,
                "velocity": 80,
                "duration": 0.18181818181818699,
                "tempo": 120.0
            },
            {
                "start_time": 49.32954545454545,
                "end_time": 49.51363636363636,
                "pitch": 65,
                "velocity": 80,
                "duration": 0.18409090909090509,
                "tempo": 120.0
            },
            {
                "start_time": 49.52954545454545,
                "end_time": 49.715909090909086,
                "pitch": 67,
                "velocity": 80,
                "duration": 0.1863636363636374,
                "tempo": 120.0
            },
            {
                "start_time": 49.73181818181818,
                "end_time": 49.91590909090909,
                "pitch": 64,
                "velocity": 80,
                "duration": 0.1840909090909122,
                "tempo": 120.0
            },
            {
                "start_time": 49.93181818181818,
                "end_time": 50.115909090909085,
                "pitch": 65,
                "velocity": 80,
                "duration": 0.18409090909090509,
                "tempo": 120.0
            },
            {
                "start_time": 50.13181818181818,
                "end_time": 50.31590909090909,
                "pitch": 67,
                "velocity": 80,
                "duration": 0.18409090909090509,
                "tempo": 120.0
            },
            {
                "start_time": 50.33181818181818,
                "end_time": 50.51590909090909,
                "pitch": 69,
                "velocity": 80,
                "duration": 0.1840909090909122,
                "tempo": 120.0
            },
            {
                "start_time": 50.53181818181818,
                "end_time": 50.91590909090909,
                "pitch": 72,
                "velocity": 80,
                "duration": 0.38409090909090793,
                "tempo": 120.0
            },
            {
                "start_time": 50.93181818181818,
                "end_time": 51.31590909090909,
                "pitch": 71,
                "velocity": 80,
                "duration": 0.38409090909090793,
                "tempo": 120.0
            }
        ],
        "Lead 2 (sawtooth)": [
            {
                "start_time": 0.0,
                "end_time": 0.3840909090909091,
                "pitch": 33,
                "velocity": 51,
                "duration": 0.3840909090909091,
                "tempo": 120.0
            },
            {
                "start_time": 0.39999999999999997,
                "end_time": 0.7840909090909091,
                "pitch": 33,
                "velocity": 51,
                "duration": 0.3840909090909091,
                "tempo": 120.0
            },
            {
                "start_time": 0.7999999999999999,
                "end_time": 1.184090909090909,
                "pitch": 33,
                "velocity": 51,
                "duration": 0.38409090909090915,
                "tempo": 120.0
            },
            {
                "start_time": 1.2,
                "end_time": 1.584090909090909,
                "pitch": 33,
                "velocity": 51,
                "duration": 0.38409090909090904,
                "tempo": 120.0
            },
            {
                "start_time": 1.5999999999999999,
                "end_time": 1.9863636363636363,
                "pitch": 33,
                "velocity": 51,
                "duration": 0.38636363636363646,
                "tempo": 120.0
            },
            {
                "start_time": 2.002272727272727,
                "end_time": 2.3863636363636362,
                "pitch": 33,
                "velocity": 51,
                "duration": 0.38409090909090926,
                "tempo": 120.0
            },
            {
                "start_time": 2.4022727272727273,
                "end_time": 2.786363636363636,
                "pitch": 33,
                "velocity": 51,
                "duration": 0.3840909090909088,
                "tempo": 120.0
            },
            {
                "start_time": 2.8022727272727272,
                "end_time": 3.186363636363636,
                "pitch": 33,
                "velocity": 51,
                "duration": 0.3840909090909088,
                "tempo": 120.0
            },
            {
                "start_time": 3.202272727272727,
                "end_time": 3.5886363636363634,
                "pitch": 29,
                "velocity": 51,
                "duration": 0.38636363636363624,
                "tempo": 120.0
            },
            {
                "start_time": 3.6045454545454545,
                "end_time": 3.9886363636363633,
                "pitch": 29,
                "velocity": 51,
                "duration": 0.3840909090909088,
                "tempo": 120.0
            },
            {
                "start_time": 4.004545454545454,
                "end_time": 4.388636363636364,
                "pitch": 29,
                "velocity": 51,
                "duration": 0.3840909090909097,
                "tempo": 120.0
            },
            {
                "start_time": 4.404545454545454,
                "end_time": 4.790909090909091,
                "pitch": 29,
                "velocity": 51,
                "duration": 0.3863636363636367,
                "tempo": 120.0
            },
            {
                "start_time": 4.809090909090909,
                "end_time": 5.1909090909090905,
                "pitch": 31,
                "velocity": 51,
                "duration": 0.38181818181818183,
                "tempo": 120.0
            },
            {
                "start_time": 5.209090909090909,
                "end_time": 5.593181818181818,
                "pitch": 31,
                "velocity": 51,
                "duration": 0.3840909090909088,
                "tempo": 120.0
            },
            {
                "start_time": 5.611363636363636,
                "end_time": 5.993181818181818,
                "pitch": 31,
                "velocity": 51,
                "duration": 0.38181818181818183,
                "tempo": 120.0
            },
            {
                "start_time": 6.011363636363636,
                "end_time": 6.3977272727272725,
                "pitch": 31,
                "velocity": 51,
                "duration": 0.3863636363636367,
                "tempo": 120.0
            },
            {
                "start_time": 6.413636363636363,
                "end_time": 6.8,
                "pitch": 33,
                "velocity": 51,
                "duration": 0.3863636363636367,
                "tempo": 120.0
            },
            {
                "start_time": 6.8159090909090905,
                "end_time": 7.199999999999999,
                "pitch": 33,
                "velocity": 51,
                "duration": 0.3840909090909088,
                "tempo": 120.0
            },
            {
                "start_time": 7.215909090909091,
                "end_time": 7.602272727272727,
                "pitch": 33,
                "velocity": 51,
                "duration": 0.3863636363636358,
                "tempo": 120.0
            },
            {
                "start_time": 7.618181818181818,
                "end_time": 8.002272727272727,
                "pitch": 33,
                "velocity": 51,
                "duration": 0.3840909090909088,
                "tempo": 120.0
            },
            {
                "start_time": 8.018181818181818,
                "end_time": 8.404545454545454,
                "pitch": 33,
                "velocity": 51,
                "duration": 0.3863636363636367,
                "tempo": 120.0
            },
            {
                "start_time": 8.420454545454545,
                "end_time": 8.806818181818182,
                "pitch": 33,
                "velocity": 51,
                "duration": 0.3863636363636367,
                "tempo": 120.0
            },
            {
                "start_time": 8.825,
                "end_time": 9.209090909090909,
                "pitch": 33,
                "velocity": 51,
                "duration": 0.3840909090909097,
                "tempo": 120.0
            },
            {
                "start_time": 9.227272727272727,
                "end_time": 9.60909090909091,
                "pitch": 33,
                "velocity": 51,
                "duration": 0.3818181818181827,
                "tempo": 120.0
            },
            {
                "start_time": 9.627272727272727,
                "end_time": 10.013636363636364,
                "pitch": 29,
                "velocity": 51,
                "duration": 0.3863636363636367,
                "tempo": 120.0
            },
            {
                "start_time": 10.029545454545454,
                "end_time": 10.415909090909091,
                "pitch": 29,
                "velocity": 51,
                "duration": 0.3863636363636367,
                "tempo": 120.0
            },
            {
                "start_time": 10.431818181818182,
                "end_time": 10.818181818181818,
                "pitch": 29,
                "velocity": 51,
                "duration": 0.3863636363636367,
                "tempo": 120.0
            },
            {
                "start_time": 10.834090909090909,
                "end_time": 11.220454545454546,
                "pitch": 29,
                "velocity": 51,
                "duration": 0.3863636363636367,
                "tempo": 120.0
            },
            {
                "start_time": 11.238636363636363,
                "end_time": 11.620454545454544,
                "pitch": 40,
                "velocity": 51,
                "duration": 0.38181818181818095,
                "tempo": 120.0
            },
            {
                "start_time": 11.638636363636364,
                "end_time": 12.022727272727272,
                "pitch": 40,
                "velocity": 51,
                "duration": 0.38409090909090793,
                "tempo": 120.0
            },
            {
                "start_time": 12.040909090909091,
                "end_time": 12.427272727272726,
                "pitch": 40,
                "velocity": 51,
                "duration": 0.3863636363636349,
                "tempo": 120.0
            },
            {
                "start_time": 12.443181818181818,
                "end_time": 12.829545454545453,
                "pitch": 40,
                "velocity": 51,
                "duration": 0.3863636363636349,
                "tempo": 120.0
            },
            {
                "start_time": 12.845454545454546,
                "end_time": 13.23181818181818,
                "pitch": 33,
                "velocity": 51,
                "duration": 0.3863636363636349,
                "tempo": 120.0
            },
            {
                "start_time": 13.247727272727271,
                "end_time": 13.631818181818181,
                "pitch": 33,
                "velocity": 51,
                "duration": 0.3840909090909097,
                "tempo": 120.0
            },
            {
                "start_time": 13.647727272727272,
                "end_time": 14.034090909090908,
                "pitch": 33,
                "velocity": 51,
                "duration": 0.3863636363636367,
                "tempo": 120.0
            },
            {
                "start_time": 14.049999999999999,
                "end_time": 14.436363636363636,
                "pitch": 33,
                "velocity": 51,
                "duration": 0.3863636363636367,
                "tempo": 120.0
            },
            {
                "start_time": 14.454545454545453,
                "end_time": 14.838636363636363,
                "pitch": 33,
                "velocity": 51,
                "duration": 0.3840909090909097,
                "tempo": 120.0
            },
            {
                "start_time": 14.85681818181818,
                "end_time": 15.243181818181817,
                "pitch": 33,
                "velocity": 51,
                "duration": 0.3863636363636367,
                "tempo": 120.0
            },
            {
                "start_time": 15.259090909090908,
                "end_time": 15.643181818181818,
                "pitch": 33,
                "velocity": 51,
                "duration": 0.3840909090909097,
                "tempo": 120.0
            },
            {
                "start_time": 15.659090909090908,
                "end_time": 16.045454545454543,
                "pitch": 33,
                "velocity": 51,
                "duration": 0.3863636363636349,
                "tempo": 120.0
            },
            {
                "start_time": 16.061363636363634,
                "end_time": 16.44772727272727,
                "pitch": 29,
                "velocity": 51,
                "duration": 0.3863636363636367,
                "tempo": 120.0
            },
            {
                "start_time": 16.46363636363636,
                "end_time": 16.847727272727273,
                "pitch": 29,
                "velocity": 51,
                "duration": 0.3840909090909115,
                "tempo": 120.0
            },
            {
                "start_time": 16.863636363636363,
                "end_time": 17.25,
                "pitch": 29,
                "velocity": 51,
                "duration": 0.3863636363636367,
                "tempo": 120.0
            },
            {
                "start_time": 17.268181818181816,
                "end_time": 17.65,
                "pitch": 29,
                "velocity": 51,
                "duration": 0.3818181818181827,
                "tempo": 120.0
            },
            {
                "start_time": 17.668181818181818,
                "end_time": 18.052272727272726,
                "pitch": 31,
                "velocity": 51,
                "duration": 0.38409090909090793,
                "tempo": 120.0
            },
            {
                "start_time": 18.070454545454545,
                "end_time": 18.452272727272728,
                "pitch": 31,
                "velocity": 51,
                "duration": 0.3818181818181827,
                "tempo": 120.0
            },
            {
                "start_time": 18.470454545454544,
                "end_time": 18.852272727272727,
                "pitch": 31,
                "velocity": 51,
                "duration": 0.3818181818181827,
                "tempo": 120.0
            },
            {
                "start_time": 18.870454545454546,
                "end_time": 19.25681818181818,
                "pitch": 31,
                "velocity": 51,
                "duration": 0.38636363636363313,
                "tempo": 120.0
            },
            {
                "start_time": 19.272727272727273,
                "end_time": 19.65681818181818,
                "pitch": 33,
                "velocity": 51,
                "duration": 0.38409090909090793,
                "tempo": 120.0
            },
            {
                "start_time": 19.672727272727272,
                "end_time": 20.05909090909091,
                "pitch": 33,
                "velocity": 51,
                "duration": 0.3863636363636367,
                "tempo": 120.0
            },
            {
                "start_time": 20.075,
                "end_time": 20.459090909090907,
                "pitch": 33,
                "velocity": 51,
                "duration": 0.38409090909090793,
                "tempo": 120.0
            },
            {
                "start_time": 20.474999999999998,
                "end_time": 20.85909090909091,
                "pitch": 33,
                "velocity": 51,
                "duration": 0.3840909090909115,
                "tempo": 120.0
            },
            {
                "start_time": 20.875,
                "end_time": 21.261363636363637,
                "pitch": 33,
                "velocity": 51,
                "duration": 0.3863636363636367,
                "tempo": 120.0
            },
            {
                "start_time": 21.277272727272727,
                "end_time": 21.661363636363635,
                "pitch": 33,
                "velocity": 51,
                "duration": 0.38409090909090793,
                "tempo": 120.0
            },
            {
                "start_time": 21.677272727272726,
                "end_time": 22.063636363636363,
                "pitch": 33,
                "velocity": 51,
                "duration": 0.3863636363636367,
                "tempo": 120.0
            },
            {
                "start_time": 22.079545454545453,
                "end_time": 22.46363636363636,
                "pitch": 33,
                "velocity": 51,
                "duration": 0.38409090909090793,
                "tempo": 120.0
            },
            {
                "start_time": 22.479545454545452,
                "end_time": 22.863636363636363,
                "pitch": 29,
                "velocity": 51,
                "duration": 0.3840909090909115,
                "tempo": 120.0
            },
            {
                "start_time": 22.879545454545454,
                "end_time": 23.26590909090909,
                "pitch": 29,
                "velocity": 51,
                "duration": 0.3863636363636367,
                "tempo": 120.0
            },
            {
                "start_time": 23.284090909090907,
                "end_time": 23.66590909090909,
                "pitch": 29,
                "velocity": 51,
                "duration": 0.3818181818181827,
                "tempo": 120.0
            },
            {
                "start_time": 23.68409090909091,
                "end_time": 24.068181818181817,
                "pitch": 29,
                "velocity": 51,
                "duration": 0.38409090909090793,
                "tempo": 120.0
            },
            {
                "start_time": 24.086363636363636,
                "end_time": 24.46818181818182,
                "pitch": 31,
                "velocity": 51,
                "duration": 0.3818181818181827,
                "tempo": 120.0
            },
            {
                "start_time": 24.486363636363635,
                "end_time": 24.868181818181817,
                "pitch": 31,
                "velocity": 51,
                "duration": 0.3818181818181827,
                "tempo": 120.0
            },
            {
                "start_time": 24.886363636363637,
                "end_time": 25.27272727272727,
                "pitch": 31,
                "velocity": 51,
                "duration": 0.38636363636363313,
                "tempo": 120.0
            },
            {
                "start_time": 25.288636363636364,
                "end_time": 25.672727272727272,
                "pitch": 31,
                "velocity": 51,
                "duration": 0.38409090909090793,
                "tempo": 120.0
            },
            {
                "start_time": 25.688636363636363,
                "end_time": 26.075,
                "pitch": 40,
                "velocity": 51,
                "duration": 0.3863636363636367,
                "tempo": 120.0
            },
            {
                "start_time": 26.09090909090909,
                "end_time": 26.474999999999998,
                "pitch": 40,
                "velocity": 51,
                "duration": 0.38409090909090793,
                "tempo": 120.0
            },
            {
                "start_time": 26.49090909090909,
                "end_time": 26.875,
                "pitch": 40,
                "velocity": 51,
                "duration": 0.3840909090909115,
                "tempo": 120.0
            },
            {
                "start_time": 26.89090909090909,
                "end_time": 27.277272727272727,
                "pitch": 40,
                "velocity": 51,
                "duration": 0.3863636363636367,
                "tempo": 120.0
            },
            {
                "start_time": 27.293181818181818,
                "end_time": 27.677272727272726,
                "pitch": 40,
                "velocity": 51,
                "duration": 0.38409090909090793,
                "tempo": 120.0
            },
            {
                "start_time": 27.693181818181817,
                "end_time": 28.079545454545453,
                "pitch": 40,
                "velocity": 51,
                "duration": 0.3863636363636367,
                "tempo": 120.0
            },
            {
                "start_time": 28.097727272727273,
                "end_time": 28.479545454545452,
                "pitch": 40,
                "velocity": 51,
                "duration": 0.38181818181817917,
                "tempo": 120.0
            },
            {
                "start_time": 28.49772727272727,
                "end_time": 28.879545454545454,
                "pitch": 40,
                "velocity": 51,
                "duration": 0.3818181818181827,
                "tempo": 120.0
            },
            {
                "start_time": 28.89772727272727,
                "end_time": 29.28181818181818,
                "pitch": 36,
                "velocity": 51,
                "duration": 0.3840909090909115,
                "tempo": 120.0
            },
            {
                "start_time": 29.299999999999997,
                "end_time": 29.68181818181818,
                "pitch": 36,
                "velocity": 51,
                "duration": 0.3818181818181827,
                "tempo": 120.0
            },
            {
                "start_time": 29.7,
                "end_time": 30.086363636363636,
                "pitch": 36,
                "velocity": 51,
                "duration": 0.3863636363636367,
                "tempo": 120.0
            },
            {
                "start_time": 30.102272727272727,
                "end_time": 30.486363636363635,
                "pitch": 36,
                "velocity": 51,
                "duration": 0.38409090909090793,
                "tempo": 120.0
            },
            {
                "start_time": 30.502272727272725,
                "end_time": 30.886363636363633,
                "pitch": 36,
                "velocity": 51,
                "duration": 0.38409090909090793,
                "tempo": 120.0
            },
            {
                "start_time": 30.902272727272727,
                "end_time": 31.28863636363636,
                "pitch": 36,
                "velocity": 51,
                "duration": 0.38636363636363313,
                "tempo": 120.0
            },
            {
                "start_time": 31.304545454545455,
                "end_time": 31.688636363636363,
                "pitch": 36,
                "velocity": 51,
                "duration": 0.38409090909090793,
                "tempo": 120.0
            },
            {
                "start_time": 31.704545454545453,
                "end_time": 32.090909090909086,
                "pitch": 36,
                "velocity": 51,
                "duration": 0.38636363636363313,
                "tempo": 120.0
            },
            {
                "start_time": 32.10681818181818,
                "end_time": 32.49090909090909,
                "pitch": 38,
                "velocity": 51,
                "duration": 0.38409090909091503,
                "tempo": 120.0
            },
            {
                "start_time": 32.50681818181818,
                "end_time": 32.89090909090909,
                "pitch": 38,
                "velocity": 51,
                "duration": 0.38409090909090793,
                "tempo": 120.0
            },
            {
                "start_time": 32.90681818181818,
                "end_time": 33.29090909090909,
                "pitch": 38,
                "velocity": 51,
                "duration": 0.38409090909090793,
                "tempo": 120.0
            },
            {
                "start_time": 33.30681818181818,
                "end_time": 33.69318181818181,
                "pitch": 38,
                "velocity": 51,
                "duration": 0.38636363636363313,
                "tempo": 120.0
            },
            {
                "start_time": 33.70909090909091,
                "end_time": 34.09318181818182,
                "pitch": 38,
                "velocity": 51,
                "duration": 0.38409090909090793,
                "tempo": 120.0
            },
            {
                "start_time": 34.10909090909091,
                "end_time": 34.49318181818182,
                "pitch": 38,
                "velocity": 51,
                "duration": 0.38409090909090793,
                "tempo": 120.0
            },
            {
                "start_time": 34.50909090909091,
                "end_time": 34.893181818181816,
                "pitch": 38,
                "velocity": 51,
                "duration": 0.38409090909090793,
                "tempo": 120.0
            },
            {
                "start_time": 34.90909090909091,
                "end_time": 35.293181818181814,
                "pitch": 38,
                "velocity": 51,
                "duration": 0.38409090909090793,
                "tempo": 120.0
            },
            {
                "start_time": 35.309090909090905,
                "end_time": 35.695454545454545,
                "pitch": 35,
                "velocity": 51,
                "duration": 0.38636363636364024,
                "tempo": 120.0
            },
            {
                "start_time": 35.71363636363636,
                "end_time": 36.095454545454544,
                "pitch": 35,
                "velocity": 51,
                "duration": 0.3818181818181827,
                "tempo": 120.0
            },
            {
                "start_time": 36.11363636363636,
                "end_time": 36.49545454545454,
                "pitch": 35,
                "velocity": 51,
                "duration": 0.3818181818181827,
                "tempo": 120.0
            },
            {
                "start_time": 36.51363636363636,
                "end_time": 36.89545454545454,
                "pitch": 35,
                "velocity": 51,
                "duration": 0.3818181818181827,
                "tempo": 120.0
            },
            {
                "start_time": 36.913636363636364,
                "end_time": 37.29545454545455,
                "pitch": 36,
                "velocity": 51,
                "duration": 0.3818181818181827,
                "tempo": 120.0
            },
            {
                "start_time": 37.31363636363636,
                "end_time": 37.69772727272727,
                "pitch": 36,
                "velocity": 51,
                "duration": 0.38409090909090793,
                "tempo": 120.0
            },
            {
                "start_time": 37.715909090909086,
                "end_time": 38.09772727272727,
                "pitch": 36,
                "velocity": 51,
                "duration": 0.3818181818181827,
                "tempo": 120.0
            },
            {
                "start_time": 38.11590909090909,
                "end_time": 38.49772727272727,
                "pitch": 36,
                "velocity": 51,
                "duration": 0.3818181818181756,
                "tempo": 120.0
            },
            {
                "start_time": 38.51590909090909,
                "end_time": 38.89772727272727,
                "pitch": 40,
                "velocity": 51,
                "duration": 0.3818181818181827,
                "tempo": 120.0
            },
            {
                "start_time": 38.91590909090909,
                "end_time": 39.29772727272727,
                "pitch": 40,
                "velocity": 51,
                "duration": 0.3818181818181827,
                "tempo": 120.0
            },
            {
                "start_time": 39.31590909090909,
                "end_time": 39.70227272727273,
                "pitch": 40,
                "velocity": 51,
                "duration": 0.38636363636364024,
                "tempo": 120.0
            },
            {
                "start_time": 39.71818181818182,
                "end_time": 40.10227272727273,
                "pitch": 40,
                "velocity": 51,
                "duration": 0.38409090909090793,
                "tempo": 120.0
            },
            {
                "start_time": 40.11818181818182,
                "end_time": 40.502272727272725,
                "pitch": 40,
                "velocity": 51,
                "duration": 0.38409090909090793,
                "tempo": 120.0
            },
            {
                "start_time": 40.518181818181816,
                "end_time": 40.902272727272724,
                "pitch": 40,
                "velocity": 51,
                "duration": 0.38409090909090793,
                "tempo": 120.0
            },
            {
                "start_time": 40.918181818181814,
                "end_time": 41.30227272727272,
                "pitch": 40,
                "velocity": 51,
                "duration": 0.38409090909090793,
                "tempo": 120.0
            },
            {
                "start_time": 41.31818181818181,
                "end_time": 41.70454545454545,
                "pitch": 40,
                "velocity": 51,
                "duration": 0.38636363636364024,
                "tempo": 120.0
            },
            {
                "start_time": 41.720454545454544,
                "end_time": 42.10454545454545,
                "pitch": 36,
                "velocity": 51,
                "duration": 0.38409090909090793,
                "tempo": 120.0
            },
            {
                "start_time": 42.12045454545454,
                "end_time": 42.50454545454545,
                "pitch": 36,
                "velocity": 51,
                "duration": 0.38409090909090793,
                "tempo": 120.0
            },
            {
                "start_time": 42.52045454545454,
                "end_time": 42.90454545454545,
                "pitch": 36,
                "velocity": 51,
                "duration": 0.38409090909090793,
                "tempo": 120.0
            },
            {
                "start_time": 42.92045454545455,
                "end_time": 43.304545454545455,
                "pitch": 36,
                "velocity": 51,
                "duration": 0.38409090909090793,
                "tempo": 120.0
            },
            {
                "start_time": 43.320454545454545,
                "end_time": 43.70681818181818,
                "pitch": 36,
                "velocity": 51,
                "duration": 0.38636363636363313,
                "tempo": 120.0
            },
            {
                "start_time": 43.72272727272727,
                "end_time": 44.10681818181818,
                "pitch": 36,
                "velocity": 51,
                "duration": 0.38409090909090793,
                "tempo": 120.0
            },
            {
                "start_time": 44.12272727272727,
                "end_time": 44.50681818181818,
                "pitch": 36,
                "velocity": 51,
                "duration": 0.38409090909091503,
                "tempo": 120.0
            },
            {
                "start_time": 44.52272727272727,
                "end_time": 44.90681818181818,
                "pitch": 36,
                "velocity": 51,
                "duration": 0.38409090909090793,
                "tempo": 120.0
            },
            {
                "start_time": 44.92272727272727,
                "end_time": 45.30681818181818,
                "pitch": 35,
                "velocity": 51,
                "duration": 0.38409090909090793,
                "tempo": 120.0
            },
            {
                "start_time": 45.32272727272727,
                "end_time": 45.709090909090904,
                "pitch": 35,
                "velocity": 51,
                "duration": 0.38636363636363313,
                "tempo": 120.0
            },
            {
                "start_time": 45.72727272727273,
                "end_time": 46.10909090909091,
                "pitch": 35,
                "velocity": 51,
                "duration": 0.3818181818181827,
                "tempo": 120.0
            },
            {
                "start_time": 46.127272727272725,
                "end_time": 46.50909090909091,
                "pitch": 35,
                "velocity": 51,
                "duration": 0.3818181818181827,
                "tempo": 120.0
            },
            {
                "start_time": 46.527272727272724,
                "end_time": 46.90909090909091,
                "pitch": 35,
                "velocity": 51,
                "duration": 0.3818181818181827,
                "tempo": 120.0
            },
            {
                "start_time": 46.92727272727272,
                "end_time": 47.309090909090905,
                "pitch": 35,
                "velocity": 51,
                "duration": 0.3818181818181827,
                "tempo": 120.0
            },
            {
                "start_time": 47.32727272727273,
                "end_time": 47.711363636363636,
                "pitch": 35,
                "velocity": 51,
                "duration": 0.38409090909090793,
                "tempo": 120.0
            },
            {
                "start_time": 47.72954545454545,
                "end_time": 48.111363636363635,
                "pitch": 35,
                "velocity": 51,
                "duration": 0.3818181818181827,
                "tempo": 120.0
            },
            {
                "start_time": 48.12954545454545,
                "end_time": 48.51136363636363,
                "pitch": 29,
                "velocity": 51,
                "duration": 0.3818181818181827,
                "tempo": 120.0
            },
            {
                "start_time": 48.52954545454545,
                "end_time": 48.91136363636363,
                "pitch": 29,
                "velocity": 51,
                "duration": 0.3818181818181827,
                "tempo": 120.0
            },
            {
                "start_time": 48.929545454545455,
                "end_time": 49.31136363636364,
                "pitch": 29,
                "velocity": 51,
                "duration": 0.3818181818181827,
                "tempo": 120.0
            },
            {
                "start_time": 49.32954545454545,
                "end_time": 49.715909090909086,
                "pitch": 29,
                "velocity": 51,
                "duration": 0.38636363636363313,
                "tempo": 120.0
            },
            {
                "start_time": 49.73181818181818,
                "end_time": 50.115909090909085,
                "pitch": 31,
                "velocity": 51,
                "duration": 0.38409090909090793,
                "tempo": 120.0
            },
            {
                "start_time": 50.13181818181818,
                "end_time": 50.51590909090909,
                "pitch": 31,
                "velocity": 51,
                "duration": 0.38409090909090793,
                "tempo": 120.0
            },
            {
                "start_time": 50.53181818181818,
                "end_time": 50.91590909090909,
                "pitch": 31,
                "velocity": 51,
                "duration": 0.38409090909090793,
                "tempo": 120.0
            },
            {
                "start_time": 50.93181818181818,
                "end_time": 51.31590909090909,
                "pitch": 31,
                "velocity": 51,
                "duration": 0.38409090909090793,
                "tempo": 120.0
            }
        ]
    }
}