{
    "track_id": "Phantasy Star (FM) - 07 - Cave",
    "mood": "angry",
    "instruments": {
        "Trumpet": [
            {
                "start_time": 1.4477272727272728,
                "end_time": 1.843181818181818,
                "pitch": 70,
                "velocity": 51,
                "duration": 0.3954545454545453,
                "tempo": 120.0
            },
            {
                "start_time": 1.859090909090909,
                "end_time": 2.245454545454545,
                "pitch": 77,
                "velocity": 51,
                "duration": 0.38636363636363624,
                "tempo": 120.0
            },
            {
                "start_time": 2.2613636363636362,
                "end_time": 2.6454545454545455,
                "pitch": 70,
                "velocity": 51,
                "duration": 0.38409090909090926,
                "tempo": 120.0
            },
            {
                "start_time": 2.661363636363636,
                "end_time": 3.0454545454545454,
                "pitch": 73,
                "velocity": 51,
                "duration": 0.38409090909090926,
                "tempo": 120.0
            },
            {
                "start_time": 3.061363636363636,
                "end_time": 3.4454545454545453,
                "pitch": 70,
                "velocity": 51,
                "duration": 0.38409090909090926,
                "tempo": 120.0
            },
            {
                "start_time": 3.461363636363636,
                "end_time": 3.8477272727272727,
                "pitch": 77,
                "velocity": 51,
                "duration": 0.3863636363636367,
                "tempo": 120.0
            },
            {
                "start_time": 3.8636363636363633,
                "end_time": 4.247727272727272,
                "pitch": 70,
                "velocity": 51,
                "duration": 0.3840909090909088,
                "tempo": 120.0
            },
            {
                "start_time": 4.263636363636364,
                "end_time": 4.6477272727272725,
                "pitch": 73,
                "velocity": 51,
                "duration": 0.3840909090909088,
                "tempo": 120.0
            },
            {
                "start_time": 4.663636363636363,
                "end_time": 5.05,
                "pitch": 70,
                "velocity": 51,
                "duration": 0.3863636363636367,
                "tempo": 120.0
            },
            {
                "start_time": 5.068181818181818,
                "end_time": 5.452272727272727,
                "pitch": 77,
                "velocity": 51,
                "duration": 0.3840909090909088,
                "tempo": 120.0
            },
            {
                "start_time": 5.470454545454545,
                "end_time": 5.8545454545454545,
                "pitch": 73,
                "velocity": 51,
                "duration": 0.3840909090909097,
                "tempo": 120.0
            },
            {
                "start_time": 5.870454545454545,
                "end_time": 6.656818181818181,
                "pitch": 80,
                "velocity": 51,
                "duration": 0.7863636363636362,
                "tempo": 120.0
            },
            {
                "start_time": 6.672727272727273,
                "end_time": 7.059090909090909,
                "pitch": 79,
                "velocity": 51,
                "duration": 0.3863636363636358,
                "tempo": 120.0
            },
            {
                "start_time": 7.074999999999999,
                "end_time": 7.461363636363636,
                "pitch": 77,
                "velocity": 51,
                "duration": 0.3863636363636367,
                "tempo": 120.0
            },
            {
                "start_time": 7.477272727272727,
                "end_time": 7.861363636363636,
                "pitch": 73,
                "velocity": 51,
                "duration": 0.3840909090909097,
                "tempo": 120.0
            },
            {
                "start_time": 7.877272727272727,
                "end_time": 8.263636363636364,
                "pitch": 70,
                "velocity": 51,
                "duration": 0.3863636363636367,
                "tempo": 120.0
            },
            {
                "start_time": 8.281818181818181,
                "end_time": 8.674999999999999,
                "pitch": 77,
                "velocity": 51,
                "duration": 0.39318181818181763,
                "tempo": 120.0
            },
            {
                "start_time": 8.690909090909091,
                "end_time": 9.068181818181818,
                "pitch": 70,
                "velocity": 51,
                "duration": 0.377272727272727,
                "tempo": 120.0
            },
            {
                "start_time": 9.084090909090909,
                "end_time": 9.470454545454546,
                "pitch": 73,
                "velocity": 51,
                "duration": 0.3863636363636367,
                "tempo": 120.0
            },
            {
                "start_time": 9.486363636363636,
                "end_time": 9.872727272727273,
                "pitch": 70,
                "velocity": 51,
                "duration": 0.3863636363636367,
                "tempo": 120.0
            },
            {
                "start_time": 9.888636363636364,
                "end_time": 10.272727272727272,
                "pitch": 77,
                "velocity": 51,
                "duration": 0.38409090909090793,
                "tempo": 120.0
            },
            {
                "start_time": 10.288636363636364,
                "end_time": 10.674999999999999,
                "pitch": 70,
                "velocity": 51,
                "duration": 0.3863636363636349,
                "tempo": 120.0
            },
            {
                "start_time": 10.69090909090909,
                "end_time": 11.077272727272726,
                "pitch": 73,
                "velocity": 51,
                "duration": 0.3863636363636367,
                "tempo": 120.0
            },
            {
                "start_time": 11.095454545454546,
                "end_time": 11.479545454545454,
                "pitch": 70,
                "velocity": 51,
                "duration": 0.38409090909090793,
                "tempo": 120.0
            },
            {
                "start_time": 11.497727272727273,
                "end_time": 11.89090909090909,
                "pitch": 77,
                "velocity": 51,
                "duration": 0.39318181818181763,
                "tempo": 120.0
            },
            {
                "start_time": 11.906818181818181,
                "end_time": 12.284090909090908,
                "pitch": 73,
                "velocity": 51,
                "duration": 0.377272727272727,
                "tempo": 120.0
            },
            {
                "start_time": 12.299999999999999,
                "end_time": 12.48409090909091,
                "pitch": 79,
                "velocity": 51,
                "duration": 0.18409090909091042,
                "tempo": 120.0
            },
            {
                "start_time": 14.311363636363636,
                "end_time": 14.697727272727272,
                "pitch": 70,
                "velocity": 51,
                "duration": 0.3863636363636367,
                "tempo": 120.0
            },
            {
                "start_time": 14.713636363636363,
                "end_time": 15.10681818181818,
                "pitch": 77,
                "velocity": 51,
                "duration": 0.39318181818181763,
                "tempo": 120.0
            },
            {
                "start_time": 15.125,
                "end_time": 15.5,
                "pitch": 73,
                "velocity": 51,
                "duration": 0.375,
                "tempo": 120.0
            },
            {
                "start_time": 15.51590909090909,
                "end_time": 15.7,
                "pitch": 77,
                "velocity": 51,
                "duration": 0.18409090909090864,
                "tempo": 120.0
            },
            {
                "start_time": 15.718181818181817,
                "end_time": 15.902272727272727,
                "pitch": 73,
                "velocity": 51,
                "duration": 0.18409090909091042,
                "tempo": 120.0
            },
            {
                "start_time": 15.918181818181818,
                "end_time": 16.302272727272726,
                "pitch": 70,
                "velocity": 51,
                "duration": 0.38409090909090793,
                "tempo": 120.0
            },
            {
                "start_time": 16.318181818181817,
                "end_time": 16.704545454545453,
                "pitch": 70,
                "velocity": 51,
                "duration": 0.3863636363636367,
                "tempo": 120.0
            },
            {
                "start_time": 16.722727272727273,
                "end_time": 17.10681818181818,
                "pitch": 70,
                "velocity": 51,
                "duration": 0.38409090909090793,
                "tempo": 120.0
            },
            {
                "start_time": 17.125,
                "end_time": 17.506818181818183,
                "pitch": 73,
                "velocity": 51,
                "duration": 0.3818181818181827,
                "tempo": 120.0
            },
            {
                "start_time": 17.525,
                "end_time": 17.90681818181818,
                "pitch": 70,
                "velocity": 51,
                "duration": 0.3818181818181827,
                "tempo": 120.0
            },
            {
                "start_time": 17.925,
                "end_time": 18.311363636363634,
                "pitch": 77,
                "velocity": 51,
                "duration": 0.38636363636363313,
                "tempo": 120.0
            },
            {
                "start_time": 18.327272727272728,
                "end_time": 18.711363636363636,
                "pitch": 70,
                "velocity": 51,
                "duration": 0.38409090909090793,
                "tempo": 120.0
            },
            {
                "start_time": 18.727272727272727,
                "end_time": 19.113636363636363,
                "pitch": 73,
                "velocity": 51,
                "duration": 0.3863636363636367,
                "tempo": 120.0
            },
            {
                "start_time": 19.129545454545454,
                "end_time": 19.513636363636362,
                "pitch": 70,
                "velocity": 51,
                "duration": 0.38409090909090793,
                "tempo": 120.0
            },
            {
                "start_time": 19.529545454545453,
                "end_time": 19.913636363636364,
                "pitch": 77,
                "velocity": 51,
                "duration": 0.3840909090909115,
                "tempo": 120.0
            },
            {
                "start_time": 19.929545454545455,
                "end_time": 20.31590909090909,
                "pitch": 75,
                "velocity": 51,
                "duration": 0.3863636363636367,
                "tempo": 120.0
            },
            {
                "start_time": 20.331818181818182,
                "end_time": 20.71590909090909,
                "pitch": 73,
                "velocity": 51,
                "duration": 0.38409090909090793,
                "tempo": 120.0
            },
            {
                "start_time": 20.73181818181818,
                "end_time": 21.118181818181817,
                "pitch": 70,
                "velocity": 51,
                "duration": 0.3863636363636367,
                "tempo": 120.0
            },
            {
                "start_time": 21.134090909090908,
                "end_time": 21.518181818181816,
                "pitch": 77,
                "velocity": 51,
                "duration": 0.38409090909090793,
                "tempo": 120.0
            },
            {
                "start_time": 21.534090909090907,
                "end_time": 21.918181818181818,
                "pitch": 70,
                "velocity": 51,
                "duration": 0.3840909090909115,
                "tempo": 120.0
            },
            {
                "start_time": 21.93409090909091,
                "end_time": 22.320454545454545,
                "pitch": 73,
                "velocity": 51,
                "duration": 0.3863636363636367,
                "tempo": 120.0
            },
            {
                "start_time": 22.33863636363636,
                "end_time": 22.720454545454544,
                "pitch": 70,
                "velocity": 51,
                "duration": 0.3818181818181827,
                "tempo": 120.0
            },
            {
                "start_time": 22.738636363636363,
                "end_time": 23.12272727272727,
                "pitch": 77,
                "velocity": 51,
                "duration": 0.38409090909090793,
                "tempo": 120.0
            },
            {
                "start_time": 23.14090909090909,
                "end_time": 23.525,
                "pitch": 70,
                "velocity": 51,
                "duration": 0.38409090909090793,
                "tempo": 120.0
            },
            {
                "start_time": 23.54090909090909,
                "end_time": 23.924999999999997,
                "pitch": 73,
                "velocity": 51,
                "duration": 0.38409090909090793,
                "tempo": 120.0
            },
            {
                "start_time": 23.94090909090909,
                "end_time": 24.327272727272724,
                "pitch": 70,
                "velocity": 51,
                "duration": 0.38636363636363313,
                "tempo": 120.0
            },
            {
                "start_time": 24.34318181818182,
                "end_time": 24.736363636363635,
                "pitch": 77,
                "velocity": 51,
                "duration": 0.39318181818181586,
                "tempo": 120.0
            },
            {
                "start_time": 24.754545454545454,
                "end_time": 25.129545454545454,
                "pitch": 73,
                "velocity": 51,
                "duration": 0.375,
                "tempo": 120.0
            },
            {
                "start_time": 25.145454545454545,
                "end_time": 25.329545454545453,
                "pitch": 79,
                "velocity": 51,
                "duration": 0.18409090909090864,
                "tempo": 120.0
            },
            {
                "start_time": 27.152272727272727,
                "end_time": 27.534090909090907,
                "pitch": 77,
                "velocity": 51,
                "duration": 0.38181818181817917,
                "tempo": 120.0
            },
            {
                "start_time": 27.552272727272726,
                "end_time": 27.93409090909091,
                "pitch": 73,
                "velocity": 51,
                "duration": 0.3818181818181827,
                "tempo": 120.0
            },
            {
                "start_time": 27.952272727272724,
                "end_time": 28.336363636363636,
                "pitch": 77,
                "velocity": 51,
                "duration": 0.3840909090909115,
                "tempo": 120.0
            },
            {
                "start_time": 28.354545454545452,
                "end_time": 28.938636363636363,
                "pitch": 80,
                "velocity": 51,
                "duration": 0.5840909090909108,
                "tempo": 120.0
            },
            {
                "start_time": 28.954545454545453,
                "end_time": 30.343181818181815,
                "pitch": 72,
                "velocity": 51,
                "duration": 1.388636363636362,
                "tempo": 120.0
            },
            {
                "start_time": 30.35909090909091,
                "end_time": 31.145454545454545,
                "pitch": 67,
                "velocity": 51,
                "duration": 0.7863636363636353,
                "tempo": 120.0
            },
            {
                "start_time": 31.161363636363635,
                "end_time": 31.545454545454543,
                "pitch": 65,
                "velocity": 51,
                "duration": 0.38409090909090793,
                "tempo": 120.0
            },
            {
                "start_time": 31.561363636363634,
                "end_time": 31.74090909090909,
                "pitch": 67,
                "velocity": 51,
                "duration": 0.17954545454545467,
                "tempo": 120.0
            },
            {
                "start_time": 31.759090909090908,
                "end_time": 32.143181818181816,
                "pitch": 70,
                "velocity": 51,
                "duration": 0.38409090909090793,
                "tempo": 120.0
            },
            {
                "start_time": 32.15909090909091,
                "end_time": 33.152272727272724,
                "pitch": 74,
                "velocity": 51,
                "duration": 0.9931818181818173,
                "tempo": 120.0
            },
            {
                "start_time": 33.168181818181814,
                "end_time": 33.35227272727273,
                "pitch": 73,
                "velocity": 51,
                "duration": 0.1840909090909122,
                "tempo": 120.0
            },
            {
                "start_time": 33.36818181818182,
                "end_time": 33.74772727272727,
                "pitch": 77,
                "velocity": 51,
                "duration": 0.3795454545454504,
                "tempo": 120.0
            },
            {
                "start_time": 33.763636363636365,
                "end_time": 34.35454545454545,
                "pitch": 80,
                "velocity": 51,
                "duration": 0.5909090909090864,
                "tempo": 120.0
            },
            {
                "start_time": 34.37045454545454,
                "end_time": 34.75681818181818,
                "pitch": 73,
                "velocity": 51,
                "duration": 0.38636363636364024,
                "tempo": 120.0
            },
            {
                "start_time": 34.77272727272727,
                "end_time": 35.35454545454545,
                "pitch": 79,
                "velocity": 51,
                "duration": 0.5818181818181785,
                "tempo": 120.0
            },
            {
                "start_time": 35.37045454545454,
                "end_time": 35.95909090909091,
                "pitch": 76,
                "velocity": 51,
                "duration": 0.5886363636363683,
                "tempo": 120.0
            },
            {
                "start_time": 35.97727272727273,
                "end_time": 37.35681818181818,
                "pitch": 72,
                "velocity": 51,
                "duration": 1.3795454545454504,
                "tempo": 120.0
            }
        ],
        "Oboe": [
            {
                "start_time": 26.74772727272727,
                "end_time": 27.334090909090907,
                "pitch": 73,
                "velocity": 80,
                "duration": 0.586363636363636,
                "tempo": 120.0
            },
            {
                "start_time": 27.352272727272727,
                "end_time": 27.93409090909091,
                "pitch": 77,
                "velocity": 80,
                "duration": 0.581818181818182,
                "tempo": 120.0
            },
            {
                "start_time": 27.952272727272724,
                "end_time": 28.336363636363636,
                "pitch": 73,
                "velocity": 80,
                "duration": 0.3840909090909115,
                "tempo": 120.0
            },
            {
                "start_time": 28.354545454545452,
                "end_time": 28.538636363636364,
                "pitch": 76,
                "velocity": 80,
                "duration": 0.1840909090909122,
                "tempo": 120.0
            },
            {
                "start_time": 28.554545454545455,
                "end_time": 28.738636363636363,
                "pitch": 73,
                "velocity": 80,
                "duration": 0.18409090909090864,
                "tempo": 120.0
            },
            {
                "start_time": 28.754545454545454,
                "end_time": 28.938636363636363,
                "pitch": 72,
                "velocity": 80,
                "duration": 0.18409090909090864,
                "tempo": 120.0
            },
            {
                "start_time": 28.954545454545453,
                "end_time": 29.54090909090909,
                "pitch": 70,
                "velocity": 80,
                "duration": 0.586363636363636,
                "tempo": 120.0
            },
            {
                "start_time": 29.55681818181818,
                "end_time": 29.940909090909088,
                "pitch": 72,
                "velocity": 80,
                "duration": 0.38409090909090793,
                "tempo": 120.0
            },
            {
                "start_time": 29.956818181818182,
                "end_time": 30.543181818181818,
                "pitch": 68,
                "velocity": 80,
                "duration": 0.586363636363636,
                "tempo": 120.0
            },
            {
                "start_time": 30.55909090909091,
                "end_time": 31.145454545454545,
                "pitch": 72,
                "velocity": 80,
                "duration": 0.586363636363636,
                "tempo": 120.0
            },
            {
                "start_time": 31.161363636363635,
                "end_time": 31.545454545454543,
                "pitch": 68,
                "velocity": 80,
                "duration": 0.38409090909090793,
                "tempo": 120.0
            },
            {
                "start_time": 31.561363636363634,
                "end_time": 32.143181818181816,
                "pitch": 70,
                "velocity": 80,
                "duration": 0.581818181818182,
                "tempo": 120.0
            },
            {
                "start_time": 32.15909090909091,
                "end_time": 33.152272727272724,
                "pitch": 63,
                "velocity": 80,
                "duration": 0.9931818181818173,
                "tempo": 120.0
            },
            {
                "start_time": 33.168181818181814,
                "end_time": 33.74772727272727,
                "pitch": 73,
                "velocity": 80,
                "duration": 0.5795454545454533,
                "tempo": 120.0
            },
            {
                "start_time": 33.763636363636365,
                "end_time": 34.35454545454545,
                "pitch": 77,
                "velocity": 80,
                "duration": 0.5909090909090864,
                "tempo": 120.0
            },
            {
                "start_time": 34.37045454545454,
                "end_time": 34.75681818181818,
                "pitch": 73,
                "velocity": 80,
                "duration": 0.38636363636364024,
                "tempo": 120.0
            },
            {
                "start_time": 34.77272727272727,
                "end_time": 34.95227272727273,
                "pitch": 76,
                "velocity": 80,
                "duration": 0.17954545454545467,
                "tempo": 120.0
            },
            {
                "start_time": 34.970454545454544,
                "end_time": 35.15,
                "pitch": 73,
                "velocity": 80,
                "duration": 0.17954545454545467,
                "tempo": 120.0
            },
            {
                "start_time": 35.16590909090909,
                "end_time": 35.35454545454545,
                "pitch": 72,
                "velocity": 80,
                "duration": 0.1886363636363626,
                "tempo": 120.0
            },
            {
                "start_time": 35.37045454545454,
                "end_time": 35.95909090909091,
                "pitch": 70,
                "velocity": 80,
                "duration": 0.5886363636363683,
                "tempo": 120.0
            },
            {
                "start_time": 35.97727272727273,
                "end_time": 36.35909090909091,
                "pitch": 72,
                "velocity": 80,
                "duration": 0.3818181818181827,
                "tempo": 120.0
            },
            {
                "start_time": 36.377272727272725,
                "end_time": 36.56136363636364,
                "pitch": 75,
                "velocity": 80,
                "duration": 0.1840909090909122,
                "tempo": 120.0
            },
            {
                "start_time": 36.57727272727273,
                "end_time": 36.76136363636363,
                "pitch": 68,
                "velocity": 80,
                "duration": 0.18409090909090509,
                "tempo": 120.0
            },
            {
                "start_time": 36.779545454545456,
                "end_time": 36.95909090909091,
                "pitch": 68,
                "velocity": 80,
                "duration": 0.17954545454545467,
                "tempo": 120.0
            },
            {
                "start_time": 36.975,
                "end_time": 37.96818181818182,
                "pitch": 69,
                "velocity": 80,
                "duration": 0.9931818181818173,
                "tempo": 120.0
            },
            {
                "start_time": 37.98409090909091,
                "end_time": 38.168181818181814,
                "pitch": 77,
                "velocity": 80,
                "duration": 0.18409090909090509,
                "tempo": 120.0
            },
            {
                "start_time": 38.184090909090905,
                "end_time": 38.36818181818182,
                "pitch": 70,
                "velocity": 80,
                "duration": 0.1840909090909122,
                "tempo": 120.0
            },
            {
                "start_time": 38.38409090909091,
                "end_time": 38.56363636363636,
                "pitch": 70,
                "velocity": 80,
                "duration": 0.17954545454545467,
                "tempo": 120.0
            },
            {
                "start_time": 38.58181818181818,
                "end_time": 39.56363636363636,
                "pitch": 79,
                "velocity": 80,
                "duration": 0.9818181818181841,
                "tempo": 120.0
            }
        ],
        "Clarinet": [
            {
                "start_time": 0.0,
                "end_time": 0.049999999999999996,
                "pitch": 32,
                "velocity": 101,
                "duration": 0.049999999999999996,
                "tempo": 120.0
            },
            {
                "start_time": 0.049999999999999996,
                "end_time": 0.09999999999999999,
                "pitch": 35,
                "velocity": 101,
                "duration": 0.049999999999999996,
                "tempo": 120.0
            },
            {
                "start_time": 0.09999999999999999,
                "end_time": 0.15,
                "pitch": 37,
                "velocity": 101,
                "duration": 0.05,
                "tempo": 120.0
            },
            {
                "start_time": 0.15,
                "end_time": 0.2159090909090909,
                "pitch": 39,
                "velocity": 101,
                "duration": 0.06590909090909092,
                "tempo": 120.0
            },
            {
                "start_time": 0.2159090909090909,
                "end_time": 0.25,
                "pitch": 42,
                "velocity": 101,
                "duration": 0.03409090909090909,
                "tempo": 120.0
            },
            {
                "start_time": 0.25,
                "end_time": 0.28409090909090906,
                "pitch": 43,
                "velocity": 101,
                "duration": 0.03409090909090906,
                "tempo": 120.0
            },
            {
                "start_time": 0.28409090909090906,
                "end_time": 0.33409090909090905,
                "pitch": 45,
                "velocity": 101,
                "duration": 0.04999999999999999,
                "tempo": 120.0
            },
            {
                "start_time": 0.33409090909090905,
                "end_time": 0.3840909090909091,
                "pitch": 48,
                "velocity": 101,
                "duration": 0.050000000000000044,
                "tempo": 120.0
            },
            {
                "start_time": 0.3840909090909091,
                "end_time": 0.4340909090909091,
                "pitch": 50,
                "velocity": 101,
                "duration": 0.04999999999999999,
                "tempo": 120.0
            },
            {
                "start_time": 0.4340909090909091,
                "end_time": 0.5,
                "pitch": 52,
                "velocity": 101,
                "duration": 0.06590909090909092,
                "tempo": 120.0
            },
            {
                "start_time": 0.5,
                "end_time": 0.5159090909090909,
                "pitch": 54,
                "velocity": 101,
                "duration": 0.015909090909090873,
                "tempo": 120.0
            },
            {
                "start_time": 0.5159090909090909,
                "end_time": 0.5499999999999999,
                "pitch": 55,
                "velocity": 101,
                "duration": 0.03409090909090906,
                "tempo": 120.0
            },
            {
                "start_time": 0.5499999999999999,
                "end_time": 0.6,
                "pitch": 57,
                "velocity": 101,
                "duration": 0.050000000000000044,
                "tempo": 120.0
            },
            {
                "start_time": 0.6,
                "end_time": 0.65,
                "pitch": 60,
                "velocity": 101,
                "duration": 0.050000000000000044,
                "tempo": 120.0
            },
            {
                "start_time": 0.65,
                "end_time": 0.7,
                "pitch": 62,
                "velocity": 101,
                "duration": 0.04999999999999993,
                "tempo": 120.0
            },
            {
                "start_time": 0.7,
                "end_time": 0.7659090909090909,
                "pitch": 64,
                "velocity": 101,
                "duration": 0.06590909090909092,
                "tempo": 120.0
            },
            {
                "start_time": 0.7659090909090909,
                "end_time": 0.7840909090909091,
                "pitch": 66,
                "velocity": 101,
                "duration": 0.018181818181818188,
                "tempo": 120.0
            },
            {
                "start_time": 0.7840909090909091,
                "end_time": 0.8159090909090909,
                "pitch": 67,
                "velocity": 101,
                "duration": 0.03181818181818186,
                "tempo": 120.0
            },
            {
                "start_time": 0.8159090909090909,
                "end_time": 0.8659090909090909,
                "pitch": 69,
                "velocity": 101,
                "duration": 0.04999999999999993,
                "tempo": 120.0
            },
            {
                "start_time": 0.8659090909090909,
                "end_time": 0.9159090909090909,
                "pitch": 72,
                "velocity": 101,
                "duration": 0.050000000000000044,
                "tempo": 120.0
            },
            {
                "start_time": 0.9159090909090909,
                "end_time": 0.9659090909090908,
                "pitch": 74,
                "velocity": 101,
                "duration": 0.04999999999999993,
                "tempo": 120.0
            },
            {
                "start_time": 0.9659090909090908,
                "end_time": 1.034090909090909,
                "pitch": 76,
                "velocity": 101,
                "duration": 0.06818181818181812,
                "tempo": 120.0
            },
            {
                "start_time": 1.034090909090909,
                "end_time": 1.05,
                "pitch": 78,
                "velocity": 101,
                "duration": 0.015909090909091095,
                "tempo": 120.0
            }
        ],
        "Acoustic Bass": [
            {
                "start_time": 1.4477272727272728,
                "end_time": 1.843181818181818,
                "pitch": 34,
                "velocity": 64,
                "duration": 0.3954545454545453,
                "tempo": 120.0
            },
            {
                "start_time": 1.859090909090909,
                "end_time": 2.245454545454545,
                "pitch": 34,
                "velocity": 64,
                "duration": 0.38636363636363624,
                "tempo": 120.0
            },
            {
                "start_time": 2.2613636363636362,
                "end_time": 2.6454545454545455,
                "pitch": 34,
                "velocity": 64,
                "duration": 0.38409090909090926,
                "tempo": 120.0
            },
            {
                "start_time": 2.661363636363636,
                "end_time": 3.0454545454545454,
                "pitch": 34,
                "velocity": 64,
                "duration": 0.38409090909090926,
                "tempo": 120.0
            },
            {
                "start_time": 3.061363636363636,
                "end_time": 3.4454545454545453,
                "pitch": 34,
                "velocity": 64,
                "duration": 0.38409090909090926,
                "tempo": 120.0
            },
            {
                "start_time": 3.461363636363636,
                "end_time": 3.8477272727272727,
                "pitch": 34,
                "velocity": 64,
                "duration": 0.3863636363636367,
                "tempo": 120.0
            },
            {
                "start_time": 3.8636363636363633,
                "end_time": 4.247727272727272,
                "pitch": 34,
                "velocity": 64,
                "duration": 0.3840909090909088,
                "tempo": 120.0
            },
            {
                "start_time": 4.263636363636364,
                "end_time": 4.6477272727272725,
                "pitch": 34,
                "velocity": 64,
                "duration": 0.3840909090909088,
                "tempo": 120.0
            },
            {
                "start_time": 4.663636363636363,
                "end_time": 5.05,
                "pitch": 34,
                "velocity": 64,
                "duration": 0.3863636363636367,
                "tempo": 120.0
            },
            {
                "start_time": 5.068181818181818,
                "end_time": 5.452272727272727,
                "pitch": 34,
                "velocity": 64,
                "duration": 0.3840909090909088,
                "tempo": 120.0
            },
            {
                "start_time": 5.470454545454545,
                "end_time": 5.8545454545454545,
                "pitch": 34,
                "velocity": 64,
                "duration": 0.3840909090909097,
                "tempo": 120.0
            },
            {
                "start_time": 5.870454545454545,
                "end_time": 6.256818181818182,
                "pitch": 34,
                "velocity": 64,
                "duration": 0.3863636363636367,
                "tempo": 120.0
            },
            {
                "start_time": 6.2727272727272725,
                "end_time": 6.656818181818181,
                "pitch": 34,
                "velocity": 64,
                "duration": 0.3840909090909088,
                "tempo": 120.0
            },
            {
                "start_time": 6.672727272727273,
                "end_time": 7.059090909090909,
                "pitch": 31,
                "velocity": 64,
                "duration": 0.3863636363636358,
                "tempo": 120.0
            },
            {
                "start_time": 7.074999999999999,
                "end_time": 7.461363636363636,
                "pitch": 32,
                "velocity": 64,
                "duration": 0.3863636363636367,
                "tempo": 120.0
            },
            {
                "start_time": 7.477272727272727,
                "end_time": 7.861363636363636,
                "pitch": 34,
                "velocity": 64,
                "duration": 0.3840909090909097,
                "tempo": 120.0
            },
            {
                "start_time": 7.877272727272727,
                "end_time": 8.263636363636364,
                "pitch": 34,
                "velocity": 64,
                "duration": 0.3863636363636367,
                "tempo": 120.0
            },
            {
                "start_time": 8.281818181818181,
                "end_time": 8.674999999999999,
                "pitch": 34,
                "velocity": 64,
                "duration": 0.39318181818181763,
                "tempo": 120.0
            },
            {
                "start_time": 8.690909090909091,
                "end_time": 9.068181818181818,
                "pitch": 34,
                "velocity": 64,
                "duration": 0.377272727272727,
                "tempo": 120.0
            },
            {
                "start_time": 9.084090909090909,
                "end_time": 9.470454545454546,
                "pitch": 34,
                "velocity": 64,
                "duration": 0.3863636363636367,
                "tempo": 120.0
            },
            {
                "start_time": 9.486363636363636,
                "end_time": 9.872727272727273,
                "pitch": 34,
                "velocity": 64,
                "duration": 0.3863636363636367,
                "tempo": 120.0
            },
            {
                "start_time": 9.888636363636364,
                "end_time": 10.272727272727272,
                "pitch": 34,
                "velocity": 64,
                "duration": 0.38409090909090793,
                "tempo": 120.0
            },
            {
                "start_time": 10.288636363636364,
                "end_time": 10.674999999999999,
                "pitch": 34,
                "velocity": 64,
                "duration": 0.3863636363636349,
                "tempo": 120.0
            },
            {
                "start_time": 10.69090909090909,
                "end_time": 11.077272727272726,
                "pitch": 34,
                "velocity": 64,
                "duration": 0.3863636363636367,
                "tempo": 120.0
            },
            {
                "start_time": 11.095454545454546,
                "end_time": 11.479545454545454,
                "pitch": 34,
                "velocity": 64,
                "duration": 0.38409090909090793,
                "tempo": 120.0
            },
            {
                "start_time": 11.497727272727273,
                "end_time": 11.89090909090909,
                "pitch": 34,
                "velocity": 64,
                "duration": 0.39318181818181763,
                "tempo": 120.0
            },
            {
                "start_time": 11.906818181818181,
                "end_time": 12.284090909090908,
                "pitch": 34,
                "velocity": 64,
                "duration": 0.377272727272727,
                "tempo": 120.0
            },
            {
                "start_time": 12.299999999999999,
                "end_time": 12.686363636363636,
                "pitch": 36,
                "velocity": 64,
                "duration": 0.3863636363636367,
                "tempo": 120.0
            },
            {
                "start_time": 12.702272727272726,
                "end_time": 13.088636363636363,
                "pitch": 36,
                "velocity": 64,
                "duration": 0.3863636363636367,
                "tempo": 120.0
            },
            {
                "start_time": 13.104545454545454,
                "end_time": 13.49090909090909,
                "pitch": 36,
                "velocity": 64,
                "duration": 0.3863636363636367,
                "tempo": 120.0
            },
            {
                "start_time": 13.509090909090908,
                "end_time": 13.893181818181818,
                "pitch": 36,
                "velocity": 64,
                "duration": 0.3840909090909097,
                "tempo": 120.0
            },
            {
                "start_time": 13.911363636363635,
                "end_time": 14.293181818181818,
                "pitch": 34,
                "velocity": 64,
                "duration": 0.3818181818181827,
                "tempo": 120.0
            },
            {
                "start_time": 14.311363636363636,
                "end_time": 14.697727272727272,
                "pitch": 34,
                "velocity": 64,
                "duration": 0.3863636363636367,
                "tempo": 120.0
            },
            {
                "start_time": 14.713636363636363,
                "end_time": 15.10681818181818,
                "pitch": 34,
                "velocity": 64,
                "duration": 0.39318181818181763,
                "tempo": 120.0
            },
            {
                "start_time": 15.125,
                "end_time": 15.5,
                "pitch": 34,
                "velocity": 64,
                "duration": 0.375,
                "tempo": 120.0
            },
            {
                "start_time": 15.51590909090909,
                "end_time": 15.902272727272727,
                "pitch": 34,
                "velocity": 64,
                "duration": 0.3863636363636367,
                "tempo": 120.0
            },
            {
                "start_time": 15.918181818181818,
                "end_time": 16.302272727272726,
                "pitch": 34,
                "velocity": 64,
                "duration": 0.38409090909090793,
                "tempo": 120.0
            },
            {
                "start_time": 16.318181818181817,
                "end_time": 16.704545454545453,
                "pitch": 34,
                "velocity": 64,
                "duration": 0.3863636363636367,
                "tempo": 120.0
            },
            {
                "start_time": 16.722727272727273,
                "end_time": 17.10681818181818,
                "pitch": 34,
                "velocity": 64,
                "duration": 0.38409090909090793,
                "tempo": 120.0
            },
            {
                "start_time": 17.125,
                "end_time": 17.506818181818183,
                "pitch": 34,
                "velocity": 64,
                "duration": 0.3818181818181827,
                "tempo": 120.0
            },
            {
                "start_time": 17.525,
                "end_time": 17.90681818181818,
                "pitch": 34,
                "velocity": 64,
                "duration": 0.3818181818181827,
                "tempo": 120.0
            },
            {
                "start_time": 17.925,
                "end_time": 18.311363636363634,
                "pitch": 34,
                "velocity": 64,
                "duration": 0.38636363636363313,
                "tempo": 120.0
            },
            {
                "start_time": 18.327272727272728,
                "end_time": 18.711363636363636,
                "pitch": 34,
                "velocity": 64,
                "duration": 0.38409090909090793,
                "tempo": 120.0
            },
            {
                "start_time": 18.727272727272727,
                "end_time": 19.113636363636363,
                "pitch": 34,
                "velocity": 64,
                "duration": 0.3863636363636367,
                "tempo": 120.0
            },
            {
                "start_time": 19.129545454545454,
                "end_time": 19.513636363636362,
                "pitch": 34,
                "velocity": 64,
                "duration": 0.38409090909090793,
                "tempo": 120.0
            },
            {
                "start_time": 19.529545454545453,
                "end_time": 19.913636363636364,
                "pitch": 31,
                "velocity": 64,
                "duration": 0.3840909090909115,
                "tempo": 120.0
            },
            {
                "start_time": 19.929545454545455,
                "end_time": 20.31590909090909,
                "pitch": 32,
                "velocity": 64,
                "duration": 0.3863636363636367,
                "tempo": 120.0
            },
            {
                "start_time": 20.331818181818182,
                "end_time": 20.71590909090909,
                "pitch": 34,
                "velocity": 64,
                "duration": 0.38409090909090793,
                "tempo": 120.0
            },
            {
                "start_time": 20.73181818181818,
                "end_time": 21.118181818181817,
                "pitch": 34,
                "velocity": 64,
                "duration": 0.3863636363636367,
                "tempo": 120.0
            },
            {
                "start_time": 21.134090909090908,
                "end_time": 21.518181818181816,
                "pitch": 34,
                "velocity": 64,
                "duration": 0.38409090909090793,
                "tempo": 120.0
            },
            {
                "start_time": 21.534090909090907,
                "end_time": 21.918181818181818,
                "pitch": 34,
                "velocity": 64,
                "duration": 0.3840909090909115,
                "tempo": 120.0
            },
            {
                "start_time": 21.93409090909091,
                "end_time": 22.320454545454545,
                "pitch": 34,
                "velocity": 64,
                "duration": 0.3863636363636367,
                "tempo": 120.0
            },
            {
                "start_time": 22.33863636363636,
                "end_time": 22.720454545454544,
                "pitch": 34,
                "velocity": 64,
                "duration": 0.3818181818181827,
                "tempo": 120.0
            },
            {
                "start_time": 22.738636363636363,
                "end_time": 23.12272727272727,
                "pitch": 34,
                "velocity": 64,
                "duration": 0.38409090909090793,
                "tempo": 120.0
            },
            {
                "start_time": 23.14090909090909,
                "end_time": 23.525,
                "pitch": 34,
                "velocity": 64,
                "duration": 0.38409090909090793,
                "tempo": 120.0
            },
            {
                "start_time": 23.54090909090909,
                "end_time": 23.924999999999997,
                "pitch": 34,
                "velocity": 64,
                "duration": 0.38409090909090793,
                "tempo": 120.0
            },
            {
                "start_time": 23.94090909090909,
                "end_time": 24.327272727272724,
                "pitch": 34,
                "velocity": 64,
                "duration": 0.38636363636363313,
                "tempo": 120.0
            },
            {
                "start_time": 24.34318181818182,
                "end_time": 24.736363636363635,
                "pitch": 34,
                "velocity": 64,
                "duration": 0.39318181818181586,
                "tempo": 120.0
            },
            {
                "start_time": 24.754545454545454,
                "end_time": 25.129545454545454,
                "pitch": 34,
                "velocity": 64,
                "duration": 0.375,
                "tempo": 120.0
            },
            {
                "start_time": 25.145454545454545,
                "end_time": 25.529545454545453,
                "pitch": 36,
                "velocity": 64,
                "duration": 0.38409090909090793,
                "tempo": 120.0
            },
            {
                "start_time": 25.545454545454543,
                "end_time": 25.929545454545455,
                "pitch": 36,
                "velocity": 64,
                "duration": 0.3840909090909115,
                "tempo": 120.0
            },
            {
                "start_time": 25.945454545454545,
                "end_time": 26.331818181818182,
                "pitch": 36,
                "velocity": 64,
                "duration": 0.3863636363636367,
                "tempo": 120.0
            },
            {
                "start_time": 26.347727272727273,
                "end_time": 26.73181818181818,
                "pitch": 36,
                "velocity": 64,
                "duration": 0.38409090909090793,
                "tempo": 120.0
            },
            {
                "start_time": 26.74772727272727,
                "end_time": 27.134090909090908,
                "pitch": 37,
                "velocity": 64,
                "duration": 0.3863636363636367,
                "tempo": 120.0
            },
            {
                "start_time": 27.152272727272727,
                "end_time": 27.534090909090907,
                "pitch": 37,
                "velocity": 64,
                "duration": 0.38181818181817917,
                "tempo": 120.0
            },
            {
                "start_time": 27.552272727272726,
                "end_time": 27.93409090909091,
                "pitch": 37,
                "velocity": 64,
                "duration": 0.3818181818181827,
                "tempo": 120.0
            },
            {
                "start_time": 27.952272727272724,
                "end_time": 28.336363636363636,
                "pitch": 37,
                "velocity": 64,
                "duration": 0.3840909090909115,
                "tempo": 120.0
            },
            {
                "start_time": 28.354545454545452,
                "end_time": 28.738636363636363,
                "pitch": 36,
                "velocity": 64,
                "duration": 0.3840909090909115,
                "tempo": 120.0
            },
            {
                "start_time": 28.754545454545454,
                "end_time": 29.14090909090909,
                "pitch": 36,
                "velocity": 64,
                "duration": 0.3863636363636367,
                "tempo": 120.0
            },
            {
                "start_time": 29.15681818181818,
                "end_time": 29.54090909090909,
                "pitch": 36,
                "velocity": 64,
                "duration": 0.38409090909090793,
                "tempo": 120.0
            },
            {
                "start_time": 29.55681818181818,
                "end_time": 29.940909090909088,
                "pitch": 36,
                "velocity": 64,
                "duration": 0.38409090909090793,
                "tempo": 120.0
            },
            {
                "start_time": 29.956818181818182,
                "end_time": 30.343181818181815,
                "pitch": 29,
                "velocity": 64,
                "duration": 0.38636363636363313,
                "tempo": 120.0
            },
            {
                "start_time": 30.35909090909091,
                "end_time": 30.743181818181817,
                "pitch": 29,
                "velocity": 64,
                "duration": 0.38409090909090793,
                "tempo": 120.0
            },
            {
                "start_time": 30.759090909090908,
                "end_time": 31.145454545454545,
                "pitch": 29,
                "velocity": 64,
                "duration": 0.3863636363636367,
                "tempo": 120.0
            },
            {
                "start_time": 31.161363636363635,
                "end_time": 31.545454545454543,
                "pitch": 29,
                "velocity": 64,
                "duration": 0.38409090909090793,
                "tempo": 120.0
            },
            {
                "start_time": 31.561363636363634,
                "end_time": 31.938636363636363,
                "pitch": 31,
                "velocity": 64,
                "duration": 0.37727272727272876,
                "tempo": 120.0
            },
            {
                "start_time": 31.954545454545453,
                "end_time": 32.34772727272727,
                "pitch": 31,
                "velocity": 64,
                "duration": 0.39318181818181586,
                "tempo": 120.0
            },
            {
                "start_time": 32.36590909090909,
                "end_time": 32.75,
                "pitch": 31,
                "velocity": 64,
                "duration": 0.38409090909090793,
                "tempo": 120.0
            },
            {
                "start_time": 32.768181818181816,
                "end_time": 33.152272727272724,
                "pitch": 31,
                "velocity": 64,
                "duration": 0.38409090909090793,
                "tempo": 120.0
            },
            {
                "start_time": 33.168181818181814,
                "end_time": 33.55227272727272,
                "pitch": 37,
                "velocity": 64,
                "duration": 0.38409090909090793,
                "tempo": 120.0
            },
            {
                "start_time": 33.56818181818181,
                "end_time": 33.94318181818181,
                "pitch": 37,
                "velocity": 64,
                "duration": 0.375,
                "tempo": 120.0
            },
            {
                "start_time": 33.95909090909091,
                "end_time": 34.35454545454545,
                "pitch": 37,
                "velocity": 64,
                "duration": 0.39545454545454106,
                "tempo": 120.0
            },
            {
                "start_time": 34.37045454545454,
                "end_time": 34.75681818181818,
                "pitch": 37,
                "velocity": 64,
                "duration": 0.38636363636364024,
                "tempo": 120.0
            },
            {
                "start_time": 34.77272727272727,
                "end_time": 35.15,
                "pitch": 36,
                "velocity": 64,
                "duration": 0.3772727272727252,
                "tempo": 120.0
            },
            {
                "start_time": 35.16590909090909,
                "end_time": 35.559090909090905,
                "pitch": 36,
                "velocity": 64,
                "duration": 0.39318181818181586,
                "tempo": 120.0
            },
            {
                "start_time": 35.57727272727273,
                "end_time": 35.95909090909091,
                "pitch": 36,
                "velocity": 64,
                "duration": 0.3818181818181827,
                "tempo": 120.0
            },
            {
                "start_time": 35.97727272727273,
                "end_time": 36.35909090909091,
                "pitch": 36,
                "velocity": 64,
                "duration": 0.3818181818181827,
                "tempo": 120.0
            },
            {
                "start_time": 36.377272727272725,
                "end_time": 36.56136363636364,
                "pitch": 32,
                "velocity": 64,
                "duration": 0.1840909090909122,
                "tempo": 120.0
            },
            {
                "start_time": 36.57727272727273,
                "end_time": 36.76136363636363,
                "pitch": 32,
                "velocity": 64,
                "duration": 0.18409090909090509,
                "tempo": 120.0
            },
            {
                "start_time": 36.779545454545456,
                "end_time": 36.95909090909091,
                "pitch": 32,
                "velocity": 64,
                "duration": 0.17954545454545467,
                "tempo": 120.0
            },
            {
                "start_time": 36.975,
                "end_time": 37.96818181818182,
                "pitch": 33,
                "velocity": 64,
                "duration": 0.9931818181818173,
                "tempo": 120.0
            },
            {
                "start_time": 37.98409090909091,
                "end_time": 38.168181818181814,
                "pitch": 34,
                "velocity": 64,
                "duration": 0.18409090909090509,
                "tempo": 120.0
            },
            {
                "start_time": 38.184090909090905,
                "end_time": 38.36818181818182,
                "pitch": 34,
                "velocity": 64,
                "duration": 0.1840909090909122,
                "tempo": 120.0
            },
            {
                "start_time": 38.38409090909091,
                "end_time": 38.56363636363636,
                "pitch": 34,
                "velocity": 64,
                "duration": 0.17954545454545467,
                "tempo": 120.0
            },
            {
                "start_time": 38.58181818181818,
                "end_time": 39.56363636363636,
                "pitch": 36,
                "velocity": 64,
                "duration": 0.9818181818181841,
                "tempo": 120.0
            },
            {
                "start_time": 39.57954545454545,
                "end_time": 39.97272727272727,
                "pitch": 34,
                "velocity": 64,
                "duration": 0.39318181818181586,
                "tempo": 120.0
            }
        ],
        "Electric Guitar (clean)": [
            {
                "start_time": 0.0,
                "end_time": 0.049999999999999996,
                "pitch": 44,
                "velocity": 51,
                "duration": 0.049999999999999996,
                "tempo": 120.0
            },
            {
                "start_time": 0.049999999999999996,
                "end_time": 0.09999999999999999,
                "pitch": 47,
                "velocity": 51,
                "duration": 0.049999999999999996,
                "tempo": 120.0
            },
            {
                "start_time": 0.09999999999999999,
                "end_time": 0.15,
                "pitch": 49,
                "velocity": 51,
                "duration": 0.05,
                "tempo": 120.0
            },
            {
                "start_time": 0.15,
                "end_time": 0.2159090909090909,
                "pitch": 51,
                "velocity": 51,
                "duration": 0.06590909090909092,
                "tempo": 120.0
            },
            {
                "start_time": 0.2159090909090909,
                "end_time": 0.25,
                "pitch": 54,
                "velocity": 51,
                "duration": 0.03409090909090909,
                "tempo": 120.0
            },
            {
                "start_time": 0.25,
                "end_time": 0.28409090909090906,
                "pitch": 55,
                "velocity": 51,
                "duration": 0.03409090909090906,
                "tempo": 120.0
            },
            {
                "start_time": 0.28409090909090906,
                "end_time": 0.33409090909090905,
                "pitch": 57,
                "velocity": 51,
                "duration": 0.04999999999999999,
                "tempo": 120.0
            },
            {
                "start_time": 0.33409090909090905,
                "end_time": 0.3840909090909091,
                "pitch": 60,
                "velocity": 51,
                "duration": 0.050000000000000044,
                "tempo": 120.0
            },
            {
                "start_time": 0.3840909090909091,
                "end_time": 0.4340909090909091,
                "pitch": 62,
                "velocity": 51,
                "duration": 0.04999999999999999,
                "tempo": 120.0
            },
            {
                "start_time": 0.4340909090909091,
                "end_time": 0.5,
                "pitch": 64,
                "velocity": 51,
                "duration": 0.06590909090909092,
                "tempo": 120.0
            },
            {
                "start_time": 0.5,
                "end_time": 0.5159090909090909,
                "pitch": 66,
                "velocity": 51,
                "duration": 0.015909090909090873,
                "tempo": 120.0
            },
            {
                "start_time": 0.5159090909090909,
                "end_time": 0.5499999999999999,
                "pitch": 67,
                "velocity": 51,
                "duration": 0.03409090909090906,
                "tempo": 120.0
            },
            {
                "start_time": 0.5499999999999999,
                "end_time": 0.6,
                "pitch": 69,
                "velocity": 51,
                "duration": 0.050000000000000044,
                "tempo": 120.0
            },
            {
                "start_time": 0.6,
                "end_time": 0.65,
                "pitch": 72,
                "velocity": 51,
                "duration": 0.050000000000000044,
                "tempo": 120.0
            },
            {
                "start_time": 0.65,
                "end_time": 0.7,
                "pitch": 74,
                "velocity": 51,
                "duration": 0.04999999999999993,
                "tempo": 120.0
            },
            {
                "start_time": 0.7,
                "end_time": 0.7659090909090909,
                "pitch": 76,
                "velocity": 51,
                "duration": 0.06590909090909092,
                "tempo": 120.0
            },
            {
                "start_time": 0.7659090909090909,
                "end_time": 0.7840909090909091,
                "pitch": 78,
                "velocity": 51,
                "duration": 0.018181818181818188,
                "tempo": 120.0
            },
            {
                "start_time": 0.7840909090909091,
                "end_time": 0.8159090909090909,
                "pitch": 79,
                "velocity": 51,
                "duration": 0.03181818181818186,
                "tempo": 120.0
            },
            {
                "start_time": 0.8159090909090909,
                "end_time": 0.8659090909090909,
                "pitch": 81,
                "velocity": 51,
                "duration": 0.04999999999999993,
                "tempo": 120.0
            },
            {
                "start_time": 0.8659090909090909,
                "end_time": 0.9159090909090909,
                "pitch": 84,
                "velocity": 51,
                "duration": 0.050000000000000044,
                "tempo": 120.0
            },
            {
                "start_time": 0.9159090909090909,
                "end_time": 0.9659090909090908,
                "pitch": 86,
                "velocity": 51,
                "duration": 0.04999999999999993,
                "tempo": 120.0
            },
            {
                "start_time": 0.9659090909090908,
                "end_time": 1.034090909090909,
                "pitch": 88,
                "velocity": 51,
                "duration": 0.06818181818181812,
                "tempo": 120.0
            },
            {
                "start_time": 1.034090909090909,
                "end_time": 1.05,
                "pitch": 90,
                "velocity": 51,
                "duration": 0.015909090909091095,
                "tempo": 120.0
            },
            {
                "start_time": 1.05,
                "end_time": 1.065909090909091,
                "pitch": 91,
                "velocity": 51,
                "duration": 0.015909090909090873,
                "tempo": 120.0
            },
            {
                "start_time": 1.065909090909091,
                "end_time": 1.4318181818181817,
                "pitch": 46,
                "velocity": 51,
                "duration": 0.36590909090909074,
                "tempo": 120.0
            },
            {
                "start_time": 1.4477272727272728,
                "end_time": 1.843181818181818,
                "pitch": 46,
                "velocity": 51,
                "duration": 0.3954545454545453,
                "tempo": 120.0
            },
            {
                "start_time": 1.859090909090909,
                "end_time": 2.245454545454545,
                "pitch": 46,
                "velocity": 51,
                "duration": 0.38636363636363624,
                "tempo": 120.0
            },
            {
                "start_time": 2.2613636363636362,
                "end_time": 2.6454545454545455,
                "pitch": 46,
                "velocity": 51,
                "duration": 0.38409090909090926,
                "tempo": 120.0
            },
            {
                "start_time": 2.661363636363636,
                "end_time": 3.0454545454545454,
                "pitch": 46,
                "velocity": 51,
                "duration": 0.38409090909090926,
                "tempo": 120.0
            },
            {
                "start_time": 3.061363636363636,
                "end_time": 3.4454545454545453,
                "pitch": 46,
                "velocity": 51,
                "duration": 0.38409090909090926,
                "tempo": 120.0
            },
            {
                "start_time": 3.461363636363636,
                "end_time": 3.8477272727272727,
                "pitch": 46,
                "velocity": 51,
                "duration": 0.3863636363636367,
                "tempo": 120.0
            },
            {
                "start_time": 3.8636363636363633,
                "end_time": 4.247727272727272,
                "pitch": 46,
                "velocity": 51,
                "duration": 0.3840909090909088,
                "tempo": 120.0
            },
            {
                "start_time": 4.263636363636364,
                "end_time": 4.6477272727272725,
                "pitch": 46,
                "velocity": 51,
                "duration": 0.3840909090909088,
                "tempo": 120.0
            },
            {
                "start_time": 4.663636363636363,
                "end_time": 5.05,
                "pitch": 46,
                "velocity": 51,
                "duration": 0.3863636363636367,
                "tempo": 120.0
            },
            {
                "start_time": 5.068181818181818,
                "end_time": 5.452272727272727,
                "pitch": 46,
                "velocity": 51,
                "duration": 0.3840909090909088,
                "tempo": 120.0
            },
            {
                "start_time": 5.470454545454545,
                "end_time": 5.8545454545454545,
                "pitch": 46,
                "velocity": 51,
                "duration": 0.3840909090909097,
                "tempo": 120.0
            },
            {
                "start_time": 5.870454545454545,
                "end_time": 6.256818181818182,
                "pitch": 46,
                "velocity": 51,
                "duration": 0.3863636363636367,
                "tempo": 120.0
            },
            {
                "start_time": 6.2727272727272725,
                "end_time": 6.656818181818181,
                "pitch": 46,
                "velocity": 51,
                "duration": 0.3840909090909088,
                "tempo": 120.0
            },
            {
                "start_time": 6.672727272727273,
                "end_time": 7.059090909090909,
                "pitch": 43,
                "velocity": 51,
                "duration": 0.3863636363636358,
                "tempo": 120.0
            },
            {
                "start_time": 7.074999999999999,
                "end_time": 7.461363636363636,
                "pitch": 44,
                "velocity": 51,
                "duration": 0.3863636363636367,
                "tempo": 120.0
            },
            {
                "start_time": 7.477272727272727,
                "end_time": 7.861363636363636,
                "pitch": 46,
                "velocity": 51,
                "duration": 0.3840909090909097,
                "tempo": 120.0
            },
            {
                "start_time": 7.877272727272727,
                "end_time": 8.263636363636364,
                "pitch": 46,
                "velocity": 51,
                "duration": 0.3863636363636367,
                "tempo": 120.0
            },
            {
                "start_time": 8.281818181818181,
                "end_time": 8.674999999999999,
                "pitch": 46,
                "velocity": 51,
                "duration": 0.39318181818181763,
                "tempo": 120.0
            },
            {
                "start_time": 8.690909090909091,
                "end_time": 9.068181818181818,
                "pitch": 46,
                "velocity": 51,
                "duration": 0.377272727272727,
                "tempo": 120.0
            },
            {
                "start_time": 9.084090909090909,
                "end_time": 9.470454545454546,
                "pitch": 46,
                "velocity": 51,
                "duration": 0.3863636363636367,
                "tempo": 120.0
            },
            {
                "start_time": 9.486363636363636,
                "end_time": 9.872727272727273,
                "pitch": 46,
                "velocity": 51,
                "duration": 0.3863636363636367,
                "tempo": 120.0
            },
            {
                "start_time": 9.888636363636364,
                "end_time": 10.272727272727272,
                "pitch": 46,
                "velocity": 51,
                "duration": 0.38409090909090793,
                "tempo": 120.0
            },
            {
                "start_time": 10.288636363636364,
                "end_time": 10.674999999999999,
                "pitch": 46,
                "velocity": 51,
                "duration": 0.3863636363636349,
                "tempo": 120.0
            },
            {
                "start_time": 10.69090909090909,
                "end_time": 11.077272727272726,
                "pitch": 46,
                "velocity": 51,
                "duration": 0.3863636363636367,
                "tempo": 120.0
            },
            {
                "start_time": 11.095454545454546,
                "end_time": 11.479545454545454,
                "pitch": 46,
                "velocity": 51,
                "duration": 0.38409090909090793,
                "tempo": 120.0
            },
            {
                "start_time": 11.497727272727273,
                "end_time": 11.89090909090909,
                "pitch": 46,
                "velocity": 51,
                "duration": 0.39318181818181763,
                "tempo": 120.0
            },
            {
                "start_time": 11.906818181818181,
                "end_time": 12.284090909090908,
                "pitch": 46,
                "velocity": 51,
                "duration": 0.377272727272727,
                "tempo": 120.0
            },
            {
                "start_time": 12.299999999999999,
                "end_time": 12.686363636363636,
                "pitch": 48,
                "velocity": 51,
                "duration": 0.3863636363636367,
                "tempo": 120.0
            },
            {
                "start_time": 12.702272727272726,
                "end_time": 13.088636363636363,
                "pitch": 48,
                "velocity": 51,
                "duration": 0.3863636363636367,
                "tempo": 120.0
            },
            {
                "start_time": 13.104545454545454,
                "end_time": 13.49090909090909,
                "pitch": 48,
                "velocity": 51,
                "duration": 0.3863636363636367,
                "tempo": 120.0
            },
            {
                "start_time": 13.509090909090908,
                "end_time": 13.893181818181818,
                "pitch": 48,
                "velocity": 51,
                "duration": 0.3840909090909097,
                "tempo": 120.0
            },
            {
                "start_time": 13.911363636363635,
                "end_time": 14.293181818181818,
                "pitch": 46,
                "velocity": 51,
                "duration": 0.3818181818181827,
                "tempo": 120.0
            },
            {
                "start_time": 14.311363636363636,
                "end_time": 14.697727272727272,
                "pitch": 46,
                "velocity": 51,
                "duration": 0.3863636363636367,
                "tempo": 120.0
            },
            {
                "start_time": 14.713636363636363,
                "end_time": 15.10681818181818,
                "pitch": 46,
                "velocity": 51,
                "duration": 0.39318181818181763,
                "tempo": 120.0
            },
            {
                "start_time": 15.125,
                "end_time": 15.5,
                "pitch": 46,
                "velocity": 51,
                "duration": 0.375,
                "tempo": 120.0
            },
            {
                "start_time": 15.51590909090909,
                "end_time": 15.902272727272727,
                "pitch": 46,
                "velocity": 51,
                "duration": 0.3863636363636367,
                "tempo": 120.0
            },
            {
                "start_time": 15.918181818181818,
                "end_time": 16.302272727272726,
                "pitch": 46,
                "velocity": 51,
                "duration": 0.38409090909090793,
                "tempo": 120.0
            },
            {
                "start_time": 16.318181818181817,
                "end_time": 16.704545454545453,
                "pitch": 46,
                "velocity": 51,
                "duration": 0.3863636363636367,
                "tempo": 120.0
            },
            {
                "start_time": 16.722727272727273,
                "end_time": 17.10681818181818,
                "pitch": 46,
                "velocity": 51,
                "duration": 0.38409090909090793,
                "tempo": 120.0
            },
            {
                "start_time": 17.125,
                "end_time": 17.506818181818183,
                "pitch": 46,
                "velocity": 51,
                "duration": 0.3818181818181827,
                "tempo": 120.0
            },
            {
                "start_time": 17.525,
                "end_time": 17.90681818181818,
                "pitch": 46,
                "velocity": 51,
                "duration": 0.3818181818181827,
                "tempo": 120.0
            },
            {
                "start_time": 17.925,
                "end_time": 18.311363636363634,
                "pitch": 46,
                "velocity": 51,
                "duration": 0.38636363636363313,
                "tempo": 120.0
            },
            {
                "start_time": 18.327272727272728,
                "end_time": 18.711363636363636,
                "pitch": 46,
                "velocity": 51,
                "duration": 0.38409090909090793,
                "tempo": 120.0
            },
            {
                "start_time": 18.727272727272727,
                "end_time": 19.113636363636363,
                "pitch": 46,
                "velocity": 51,
                "duration": 0.3863636363636367,
                "tempo": 120.0
            },
            {
                "start_time": 19.129545454545454,
                "end_time": 19.513636363636362,
                "pitch": 46,
                "velocity": 51,
                "duration": 0.38409090909090793,
                "tempo": 120.0
            },
            {
                "start_time": 19.529545454545453,
                "end_time": 19.913636363636364,
                "pitch": 43,
                "velocity": 51,
                "duration": 0.3840909090909115,
                "tempo": 120.0
            },
            {
                "start_time": 19.929545454545455,
                "end_time": 20.31590909090909,
                "pitch": 44,
                "velocity": 51,
                "duration": 0.3863636363636367,
                "tempo": 120.0
            },
            {
                "start_time": 20.331818181818182,
                "end_time": 20.71590909090909,
                "pitch": 46,
                "velocity": 51,
                "duration": 0.38409090909090793,
                "tempo": 120.0
            },
            {
                "start_time": 20.73181818181818,
                "end_time": 21.118181818181817,
                "pitch": 46,
                "velocity": 51,
                "duration": 0.3863636363636367,
                "tempo": 120.0
            },
            {
                "start_time": 21.134090909090908,
                "end_time": 21.518181818181816,
                "pitch": 46,
                "velocity": 51,
                "duration": 0.38409090909090793,
                "tempo": 120.0
            },
            {
                "start_time": 21.534090909090907,
                "end_time": 21.918181818181818,
                "pitch": 46,
                "velocity": 51,
                "duration": 0.3840909090909115,
                "tempo": 120.0
            },
            {
                "start_time": 21.93409090909091,
                "end_time": 22.320454545454545,
                "pitch": 46,
                "velocity": 51,
                "duration": 0.3863636363636367,
                "tempo": 120.0
            },
            {
                "start_time": 22.33863636363636,
                "end_time": 22.720454545454544,
                "pitch": 46,
                "velocity": 51,
                "duration": 0.3818181818181827,
                "tempo": 120.0
            },
            {
                "start_time": 22.738636363636363,
                "end_time": 23.12272727272727,
                "pitch": 46,
                "velocity": 51,
                "duration": 0.38409090909090793,
                "tempo": 120.0
            },
            {
                "start_time": 23.14090909090909,
                "end_time": 23.525,
                "pitch": 46,
                "velocity": 51,
                "duration": 0.38409090909090793,
                "tempo": 120.0
            },
            {
                "start_time": 23.54090909090909,
                "end_time": 23.924999999999997,
                "pitch": 46,
                "velocity": 51,
                "duration": 0.38409090909090793,
                "tempo": 120.0
            },
            {
                "start_time": 23.94090909090909,
                "end_time": 24.327272727272724,
                "pitch": 46,
                "velocity": 51,
                "duration": 0.38636363636363313,
                "tempo": 120.0
            },
            {
                "start_time": 24.34318181818182,
                "end_time": 24.736363636363635,
                "pitch": 46,
                "velocity": 51,
                "duration": 0.39318181818181586,
                "tempo": 120.0
            },
            {
                "start_time": 24.754545454545454,
                "end_time": 25.129545454545454,
                "pitch": 46,
                "velocity": 51,
                "duration": 0.375,
                "tempo": 120.0
            },
            {
                "start_time": 25.145454545454545,
                "end_time": 25.529545454545453,
                "pitch": 48,
                "velocity": 51,
                "duration": 0.38409090909090793,
                "tempo": 120.0
            },
            {
                "start_time": 25.545454545454543,
                "end_time": 25.929545454545455,
                "pitch": 48,
                "velocity": 51,
                "duration": 0.3840909090909115,
                "tempo": 120.0
            },
            {
                "start_time": 25.945454545454545,
                "end_time": 26.331818181818182,
                "pitch": 48,
                "velocity": 51,
                "duration": 0.3863636363636367,
                "tempo": 120.0
            },
            {
                "start_time": 26.347727272727273,
                "end_time": 26.73181818181818,
                "pitch": 48,
                "velocity": 51,
                "duration": 0.38409090909090793,
                "tempo": 120.0
            },
            {
                "start_time": 26.74772727272727,
                "end_time": 27.134090909090908,
                "pitch": 49,
                "velocity": 51,
                "duration": 0.3863636363636367,
                "tempo": 120.0
            },
            {
                "start_time": 27.152272727272727,
                "end_time": 27.534090909090907,
                "pitch": 49,
                "velocity": 51,
                "duration": 0.38181818181817917,
                "tempo": 120.0
            },
            {
                "start_time": 27.552272727272726,
                "end_time": 27.93409090909091,
                "pitch": 49,
                "velocity": 51,
                "duration": 0.3818181818181827,
                "tempo": 120.0
            },
            {
                "start_time": 27.952272727272724,
                "end_time": 28.336363636363636,
                "pitch": 49,
                "velocity": 51,
                "duration": 0.3840909090909115,
                "tempo": 120.0
            },
            {
                "start_time": 28.354545454545452,
                "end_time": 28.738636363636363,
                "pitch": 48,
                "velocity": 51,
                "duration": 0.3840909090909115,
                "tempo": 120.0
            },
            {
                "start_time": 28.754545454545454,
                "end_time": 29.14090909090909,
                "pitch": 48,
                "velocity": 51,
                "duration": 0.3863636363636367,
                "tempo": 120.0
            },
            {
                "start_time": 29.15681818181818,
                "end_time": 29.54090909090909,
                "pitch": 48,
                "velocity": 51,
                "duration": 0.38409090909090793,
                "tempo": 120.0
            },
            {
                "start_time": 29.55681818181818,
                "end_time": 29.940909090909088,
                "pitch": 48,
                "velocity": 51,
                "duration": 0.38409090909090793,
                "tempo": 120.0
            },
            {
                "start_time": 29.956818181818182,
                "end_time": 30.343181818181815,
                "pitch": 41,
                "velocity": 51,
                "duration": 0.38636363636363313,
                "tempo": 120.0
            },
            {
                "start_time": 30.35909090909091,
                "end_time": 30.743181818181817,
                "pitch": 41,
                "velocity": 51,
                "duration": 0.38409090909090793,
                "tempo": 120.0
            },
            {
                "start_time": 30.759090909090908,
                "end_time": 31.145454545454545,
                "pitch": 41,
                "velocity": 51,
                "duration": 0.3863636363636367,
                "tempo": 120.0
            },
            {
                "start_time": 31.161363636363635,
                "end_time": 31.545454545454543,
                "pitch": 41,
                "velocity": 51,
                "duration": 0.38409090909090793,
                "tempo": 120.0
            },
            {
                "start_time": 31.561363636363634,
                "end_time": 31.938636363636363,
                "pitch": 43,
                "velocity": 51,
                "duration": 0.37727272727272876,
                "tempo": 120.0
            },
            {
                "start_time": 31.954545454545453,
                "end_time": 32.34772727272727,
                "pitch": 43,
                "velocity": 51,
                "duration": 0.39318181818181586,
                "tempo": 120.0
            },
            {
                "start_time": 32.36590909090909,
                "end_time": 32.75,
                "pitch": 43,
                "velocity": 51,
                "duration": 0.38409090909090793,
                "tempo": 120.0
            },
            {
                "start_time": 32.768181818181816,
                "end_time": 33.152272727272724,
                "pitch": 43,
                "velocity": 51,
                "duration": 0.38409090909090793,
                "tempo": 120.0
            },
            {
                "start_time": 33.168181818181814,
                "end_time": 33.55227272727272,
                "pitch": 49,
                "velocity": 51,
                "duration": 0.38409090909090793,
                "tempo": 120.0
            },
            {
                "start_time": 33.56818181818181,
                "end_time": 33.94318181818181,
                "pitch": 49,
                "velocity": 51,
                "duration": 0.375,
                "tempo": 120.0
            },
            {
                "start_time": 33.95909090909091,
                "end_time": 34.35454545454545,
                "pitch": 49,
                "velocity": 51,
                "duration": 0.39545454545454106,
                "tempo": 120.0
            },
            {
                "start_time": 34.37045454545454,
                "end_time": 34.75681818181818,
                "pitch": 49,
                "velocity": 51,
                "duration": 0.38636363636364024,
                "tempo": 120.0
            },
            {
                "start_time": 34.77272727272727,
                "end_time": 35.15,
                "pitch": 48,
                "velocity": 51,
                "duration": 0.3772727272727252,
                "tempo": 120.0
            },
            {
                "start_time": 35.16590909090909,
                "end_time": 35.559090909090905,
                "pitch": 48,
                "velocity": 51,
                "duration": 0.39318181818181586,
                "tempo": 120.0
            },
            {
                "start_time": 35.57727272727273,
                "end_time": 35.95909090909091,
                "pitch": 48,
                "velocity": 51,
                "duration": 0.3818181818181827,
                "tempo": 120.0
            },
            {
                "start_time": 35.97727272727273,
                "end_time": 36.35909090909091,
                "pitch": 48,
                "velocity": 51,
                "duration": 0.3818181818181827,
                "tempo": 120.0
            },
            {
                "start_time": 36.377272727272725,
                "end_time": 36.56136363636364,
                "pitch": 44,
                "velocity": 51,
                "duration": 0.1840909090909122,
                "tempo": 120.0
            },
            {
                "start_time": 36.57727272727273,
                "end_time": 36.76136363636363,
                "pitch": 44,
                "velocity": 51,
                "duration": 0.18409090909090509,
                "tempo": 120.0
            },
            {
                "start_time": 36.779545454545456,
                "end_time": 36.95909090909091,
                "pitch": 44,
                "velocity": 51,
                "duration": 0.17954545454545467,
                "tempo": 120.0
            },
            {
                "start_time": 36.975,
                "end_time": 37.96818181818182,
                "pitch": 45,
                "velocity": 51,
                "duration": 0.9931818181818173,
                "tempo": 120.0
            },
            {
                "start_time": 37.98409090909091,
                "end_time": 38.168181818181814,
                "pitch": 46,
                "velocity": 51,
                "duration": 0.18409090909090509,
                "tempo": 120.0
            },
            {
                "start_time": 38.184090909090905,
                "end_time": 38.36818181818182,
                "pitch": 46,
                "velocity": 51,
                "duration": 0.1840909090909122,
                "tempo": 120.0
            },
            {
                "start_time": 38.38409090909091,
                "end_time": 38.56363636363636,
                "pitch": 46,
                "velocity": 51,
                "duration": 0.17954545454545467,
                "tempo": 120.0
            },
            {
                "start_time": 38.58181818181818,
                "end_time": 39.56363636363636,
                "pitch": 48,
                "velocity": 51,
                "duration": 0.9818181818181841,
                "tempo": 120.0
            },
            {
                "start_time": 39.57954545454545,
                "end_time": 39.97272727272727,
                "pitch": 46,
                "velocity": 51,
                "duration": 0.39318181818181586,
                "tempo": 120.0
            }
        ],
        "Vibraphone": [
            {
                "start_time": 0.03409090909090909,
                "end_time": 0.08409090909090909,
                "pitch": 44,
                "velocity": 51,
                "duration": 0.05,
                "tempo": 120.0
            },
            {
                "start_time": 0.08409090909090909,
                "end_time": 0.1340909090909091,
                "pitch": 47,
                "velocity": 51,
                "duration": 0.05,
                "tempo": 120.0
            },
            {
                "start_time": 0.1340909090909091,
                "end_time": 0.18409090909090908,
                "pitch": 49,
                "velocity": 51,
                "duration": 0.04999999999999999,
                "tempo": 120.0
            },
            {
                "start_time": 0.18409090909090908,
                "end_time": 0.25,
                "pitch": 51,
                "velocity": 51,
                "duration": 0.06590909090909092,
                "tempo": 120.0
            },
            {
                "start_time": 0.25,
                "end_time": 0.28409090909090906,
                "pitch": 54,
                "velocity": 51,
                "duration": 0.03409090909090906,
                "tempo": 120.0
            },
            {
                "start_time": 0.28409090909090906,
                "end_time": 0.3159090909090909,
                "pitch": 55,
                "velocity": 51,
                "duration": 0.03181818181818186,
                "tempo": 120.0
            },
            {
                "start_time": 0.3159090909090909,
                "end_time": 0.3659090909090909,
                "pitch": 57,
                "velocity": 51,
                "duration": 0.04999999999999999,
                "tempo": 120.0
            },
            {
                "start_time": 0.3659090909090909,
                "end_time": 0.4159090909090909,
                "pitch": 60,
                "velocity": 51,
                "duration": 0.04999999999999999,
                "tempo": 120.0
            },
            {
                "start_time": 0.4159090909090909,
                "end_time": 0.4659090909090909,
                "pitch": 62,
                "velocity": 51,
                "duration": 0.04999999999999999,
                "tempo": 120.0
            },
            {
                "start_time": 0.4659090909090909,
                "end_time": 0.5340909090909091,
                "pitch": 64,
                "velocity": 51,
                "duration": 0.06818181818181818,
                "tempo": 120.0
            },
            {
                "start_time": 0.5340909090909091,
                "end_time": 0.5499999999999999,
                "pitch": 66,
                "velocity": 51,
                "duration": 0.015909090909090873,
                "tempo": 120.0
            },
            {
                "start_time": 0.5499999999999999,
                "end_time": 0.5840909090909091,
                "pitch": 67,
                "velocity": 51,
                "duration": 0.03409090909090917,
                "tempo": 120.0
            },
            {
                "start_time": 0.5840909090909091,
                "end_time": 0.634090909090909,
                "pitch": 69,
                "velocity": 51,
                "duration": 0.04999999999999993,
                "tempo": 120.0
            },
            {
                "start_time": 0.634090909090909,
                "end_time": 0.6840909090909091,
                "pitch": 72,
                "velocity": 51,
                "duration": 0.050000000000000044,
                "tempo": 120.0
            },
            {
                "start_time": 0.6840909090909091,
                "end_time": 0.734090909090909,
                "pitch": 74,
                "velocity": 51,
                "duration": 0.04999999999999993,
                "tempo": 120.0
            },
            {
                "start_time": 0.734090909090909,
                "end_time": 0.7999999999999999,
                "pitch": 76,
                "velocity": 51,
                "duration": 0.06590909090909092,
                "tempo": 120.0
            },
            {
                "start_time": 0.7999999999999999,
                "end_time": 0.8159090909090909,
                "pitch": 78,
                "velocity": 51,
                "duration": 0.015909090909090984,
                "tempo": 120.0
            },
            {
                "start_time": 0.8159090909090909,
                "end_time": 0.85,
                "pitch": 79,
                "velocity": 51,
                "duration": 0.03409090909090906,
                "tempo": 120.0
            },
            {
                "start_time": 0.85,
                "end_time": 0.8999999999999999,
                "pitch": 81,
                "velocity": 51,
                "duration": 0.04999999999999993,
                "tempo": 120.0
            },
            {
                "start_time": 0.8999999999999999,
                "end_time": 0.95,
                "pitch": 84,
                "velocity": 51,
                "duration": 0.050000000000000044,
                "tempo": 120.0
            },
            {
                "start_time": 0.95,
                "end_time": 1.0,
                "pitch": 86,
                "velocity": 51,
                "duration": 0.050000000000000044,
                "tempo": 120.0
            },
            {
                "start_time": 1.0,
                "end_time": 1.065909090909091,
                "pitch": 88,
                "velocity": 51,
                "duration": 0.06590909090909092,
                "tempo": 120.0
            },
            {
                "start_time": 1.065909090909091,
                "end_time": 1.0818181818181818,
                "pitch": 90,
                "velocity": 51,
                "duration": 0.015909090909090873,
                "tempo": 120.0
            },
            {
                "start_time": 1.0818181818181818,
                "end_time": 1.0977272727272727,
                "pitch": 91,
                "velocity": 51,
                "duration": 0.015909090909090873,
                "tempo": 120.0
            },
            {
                "start_time": 1.0977272727272727,
                "end_time": 1.4659090909090908,
                "pitch": 73,
                "velocity": 51,
                "duration": 0.36818181818181817,
                "tempo": 120.0
            },
            {
                "start_time": 1.4818181818181817,
                "end_time": 1.875,
                "pitch": 70,
                "velocity": 51,
                "duration": 0.3931818181818183,
                "tempo": 120.0
            },
            {
                "start_time": 1.893181818181818,
                "end_time": 2.2795454545454543,
                "pitch": 77,
                "velocity": 51,
                "duration": 0.38636363636363624,
                "tempo": 120.0
            },
            {
                "start_time": 2.2954545454545454,
                "end_time": 2.6795454545454542,
                "pitch": 70,
                "velocity": 51,
                "duration": 0.3840909090909088,
                "tempo": 120.0
            },
            {
                "start_time": 2.6954545454545453,
                "end_time": 3.0795454545454546,
                "pitch": 73,
                "velocity": 51,
                "duration": 0.38409090909090926,
                "tempo": 120.0
            },
            {
                "start_time": 3.0954545454545452,
                "end_time": 3.4795454545454545,
                "pitch": 70,
                "velocity": 51,
                "duration": 0.38409090909090926,
                "tempo": 120.0
            },
            {
                "start_time": 3.495454545454545,
                "end_time": 3.881818181818182,
                "pitch": 77,
                "velocity": 51,
                "duration": 0.3863636363636367,
                "tempo": 120.0
            },
            {
                "start_time": 3.8977272727272725,
                "end_time": 4.281818181818181,
                "pitch": 70,
                "velocity": 51,
                "duration": 0.3840909090909088,
                "tempo": 120.0
            },
            {
                "start_time": 4.297727272727273,
                "end_time": 4.681818181818182,
                "pitch": 73,
                "velocity": 51,
                "duration": 0.3840909090909088,
                "tempo": 120.0
            },
            {
                "start_time": 4.697727272727272,
                "end_time": 5.084090909090909,
                "pitch": 70,
                "velocity": 51,
                "duration": 0.3863636363636367,
                "tempo": 120.0
            },
            {
                "start_time": 5.1,
                "end_time": 5.486363636363636,
                "pitch": 77,
                "velocity": 51,
                "duration": 0.3863636363636367,
                "tempo": 120.0
            },
            {
                "start_time": 5.504545454545454,
                "end_time": 5.886363636363636,
                "pitch": 73,
                "velocity": 51,
                "duration": 0.38181818181818183,
                "tempo": 120.0
            },
            {
                "start_time": 5.904545454545454,
                "end_time": 6.6886363636363635,
                "pitch": 80,
                "velocity": 51,
                "duration": 0.7840909090909092,
                "tempo": 120.0
            },
            {
                "start_time": 6.706818181818181,
                "end_time": 7.093181818181818,
                "pitch": 79,
                "velocity": 51,
                "duration": 0.3863636363636367,
                "tempo": 120.0
            },
            {
                "start_time": 7.1090909090909085,
                "end_time": 7.495454545454545,
                "pitch": 77,
                "velocity": 51,
                "duration": 0.3863636363636367,
                "tempo": 120.0
            },
            {
                "start_time": 7.511363636363636,
                "end_time": 7.8954545454545455,
                "pitch": 73,
                "velocity": 51,
                "duration": 0.3840909090909097,
                "tempo": 120.0
            },
            {
                "start_time": 7.911363636363636,
                "end_time": 8.297727272727272,
                "pitch": 70,
                "velocity": 51,
                "duration": 0.3863636363636358,
                "tempo": 120.0
            },
            {
                "start_time": 8.315909090909091,
                "end_time": 8.709090909090909,
                "pitch": 77,
                "velocity": 51,
                "duration": 0.39318181818181763,
                "tempo": 120.0
            },
            {
                "start_time": 8.725,
                "end_time": 9.1,
                "pitch": 70,
                "velocity": 51,
                "duration": 0.375,
                "tempo": 120.0
            },
            {
                "start_time": 9.118181818181817,
                "end_time": 9.502272727272727,
                "pitch": 73,
                "velocity": 51,
                "duration": 0.3840909090909097,
                "tempo": 120.0
            },
            {
                "start_time": 9.520454545454545,
                "end_time": 9.906818181818181,
                "pitch": 70,
                "velocity": 51,
                "duration": 0.3863636363636367,
                "tempo": 120.0
            },
            {
                "start_time": 9.922727272727272,
                "end_time": 10.306818181818182,
                "pitch": 77,
                "velocity": 51,
                "duration": 0.3840909090909097,
                "tempo": 120.0
            },
            {
                "start_time": 10.322727272727272,
                "end_time": 10.709090909090909,
                "pitch": 70,
                "velocity": 51,
                "duration": 0.3863636363636367,
                "tempo": 120.0
            },
            {
                "start_time": 10.725,
                "end_time": 11.111363636363636,
                "pitch": 73,
                "velocity": 51,
                "duration": 0.3863636363636367,
                "tempo": 120.0
            },
            {
                "start_time": 11.127272727272727,
                "end_time": 11.513636363636364,
                "pitch": 70,
                "velocity": 51,
                "duration": 0.3863636363636367,
                "tempo": 120.0
            },
            {
                "start_time": 11.531818181818181,
                "end_time": 11.924999999999999,
                "pitch": 77,
                "velocity": 51,
                "duration": 0.39318181818181763,
                "tempo": 120.0
            },
            {
                "start_time": 11.94090909090909,
                "end_time": 12.31590909090909,
                "pitch": 73,
                "velocity": 51,
                "duration": 0.375,
                "tempo": 120.0
            },
            {
                "start_time": 12.334090909090909,
                "end_time": 12.518181818181818,
                "pitch": 79,
                "velocity": 51,
                "duration": 0.18409090909090864,
                "tempo": 120.0
            },
            {
                "start_time": 12.534090909090908,
                "end_time": 12.568181818181818,
                "pitch": 66,
                "velocity": 51,
                "duration": 0.03409090909091006,
                "tempo": 120.0
            },
            {
                "start_time": 12.568181818181818,
                "end_time": 12.602272727272727,
                "pitch": 63,
                "velocity": 51,
                "duration": 0.034090909090908283,
                "tempo": 120.0
            },
            {
                "start_time": 12.602272727272727,
                "end_time": 12.636363636363635,
                "pitch": 60,
                "velocity": 51,
                "duration": 0.034090909090908283,
                "tempo": 120.0
            },
            {
                "start_time": 12.636363636363635,
                "end_time": 12.652272727272727,
                "pitch": 57,
                "velocity": 51,
                "duration": 0.015909090909092427,
                "tempo": 120.0
            },
            {
                "start_time": 12.652272727272727,
                "end_time": 12.686363636363636,
                "pitch": 55,
                "velocity": 51,
                "duration": 0.034090909090908283,
                "tempo": 120.0
            },
            {
                "start_time": 12.686363636363636,
                "end_time": 12.720454545454546,
                "pitch": 52,
                "velocity": 51,
                "duration": 0.03409090909091006,
                "tempo": 120.0
            },
            {
                "start_time": 12.720454545454546,
                "end_time": 12.736363636363636,
                "pitch": 50,
                "velocity": 51,
                "duration": 0.01590909090909065,
                "tempo": 120.0
            },
            {
                "start_time": 12.736363636363636,
                "end_time": 12.770454545454545,
                "pitch": 63,
                "velocity": 51,
                "duration": 0.034090909090908283,
                "tempo": 120.0
            },
            {
                "start_time": 12.770454545454545,
                "end_time": 12.786363636363635,
                "pitch": 60,
                "velocity": 51,
                "duration": 0.01590909090909065,
                "tempo": 120.0
            },
            {
                "start_time": 12.786363636363635,
                "end_time": 12.802272727272726,
                "pitch": 58,
                "velocity": 51,
                "duration": 0.01590909090909065,
                "tempo": 120.0
            },
            {
                "start_time": 12.802272727272726,
                "end_time": 12.820454545454545,
                "pitch": 55,
                "velocity": 51,
                "duration": 0.01818181818181941,
                "tempo": 120.0
            },
            {
                "start_time": 12.820454545454545,
                "end_time": 12.854545454545454,
                "pitch": 54,
                "velocity": 51,
                "duration": 0.034090909090908283,
                "tempo": 120.0
            },
            {
                "start_time": 12.854545454545454,
                "end_time": 12.886363636363635,
                "pitch": 51,
                "velocity": 51,
                "duration": 0.0318181818181813,
                "tempo": 120.0
            },
            {
                "start_time": 12.886363636363635,
                "end_time": 12.920454545454545,
                "pitch": 48,
                "velocity": 51,
                "duration": 0.03409090909091006,
                "tempo": 120.0
            },
            {
                "start_time": 12.920454545454545,
                "end_time": 12.938636363636363,
                "pitch": 44,
                "velocity": 51,
                "duration": 0.018181818181817633,
                "tempo": 120.0
            },
            {
                "start_time": 12.938636363636363,
                "end_time": 12.970454545454546,
                "pitch": 42,
                "velocity": 51,
                "duration": 0.03181818181818308,
                "tempo": 120.0
            },
            {
                "start_time": 12.970454545454546,
                "end_time": 13.004545454545454,
                "pitch": 39,
                "velocity": 51,
                "duration": 0.034090909090908283,
                "tempo": 120.0
            },
            {
                "start_time": 13.004545454545454,
                "end_time": 13.038636363636362,
                "pitch": 36,
                "velocity": 51,
                "duration": 0.034090909090908283,
                "tempo": 120.0
            },
            {
                "start_time": 13.038636363636362,
                "end_time": 13.054545454545455,
                "pitch": 32,
                "velocity": 51,
                "duration": 0.015909090909092427,
                "tempo": 120.0
            },
            {
                "start_time": 13.054545454545455,
                "end_time": 13.088636363636363,
                "pitch": 30,
                "velocity": 51,
                "duration": 0.034090909090908283,
                "tempo": 120.0
            },
            {
                "start_time": 13.088636363636363,
                "end_time": 13.122727272727271,
                "pitch": 27,
                "velocity": 51,
                "duration": 0.034090909090908283,
                "tempo": 120.0
            },
            {
                "start_time": 13.122727272727271,
                "end_time": 13.138636363636364,
                "pitch": 24,
                "velocity": 51,
                "duration": 0.015909090909092427,
                "tempo": 120.0
            },
            {
                "start_time": 13.34090909090909,
                "end_time": 13.375,
                "pitch": 66,
                "velocity": 51,
                "duration": 0.03409090909091006,
                "tempo": 120.0
            },
            {
                "start_time": 13.375,
                "end_time": 13.406818181818181,
                "pitch": 63,
                "velocity": 51,
                "duration": 0.0318181818181813,
                "tempo": 120.0
            },
            {
                "start_time": 13.406818181818181,
                "end_time": 13.44090909090909,
                "pitch": 60,
                "velocity": 51,
                "duration": 0.034090909090908283,
                "tempo": 120.0
            },
            {
                "start_time": 13.44090909090909,
                "end_time": 13.456818181818182,
                "pitch": 57,
                "velocity": 51,
                "duration": 0.015909090909092427,
                "tempo": 120.0
            },
            {
                "start_time": 13.456818181818182,
                "end_time": 13.49090909090909,
                "pitch": 55,
                "velocity": 51,
                "duration": 0.034090909090908283,
                "tempo": 120.0
            },
            {
                "start_time": 13.49090909090909,
                "end_time": 13.524999999999999,
                "pitch": 52,
                "velocity": 51,
                "duration": 0.034090909090908283,
                "tempo": 120.0
            },
            {
                "start_time": 13.524999999999999,
                "end_time": 13.540909090909091,
                "pitch": 50,
                "velocity": 51,
                "duration": 0.015909090909092427,
                "tempo": 120.0
            },
            {
                "start_time": 13.540909090909091,
                "end_time": 13.575,
                "pitch": 66,
                "velocity": 51,
                "duration": 0.034090909090908283,
                "tempo": 120.0
            },
            {
                "start_time": 13.575,
                "end_time": 13.609090909090908,
                "pitch": 63,
                "velocity": 51,
                "duration": 0.034090909090908283,
                "tempo": 120.0
            },
            {
                "start_time": 13.609090909090908,
                "end_time": 13.643181818181818,
                "pitch": 60,
                "velocity": 51,
                "duration": 0.03409090909091006,
                "tempo": 120.0
            },
            {
                "start_time": 13.643181818181818,
                "end_time": 13.659090909090908,
                "pitch": 57,
                "velocity": 51,
                "duration": 0.01590909090909065,
                "tempo": 120.0
            },
            {
                "start_time": 13.659090909090908,
                "end_time": 13.693181818181818,
                "pitch": 55,
                "velocity": 51,
                "duration": 0.03409090909091006,
                "tempo": 120.0
            },
            {
                "start_time": 13.693181818181818,
                "end_time": 13.727272727272727,
                "pitch": 52,
                "velocity": 51,
                "duration": 0.034090909090908283,
                "tempo": 120.0
            },
            {
                "start_time": 13.727272727272727,
                "end_time": 13.743181818181817,
                "pitch": 50,
                "velocity": 51,
                "duration": 0.01590909090909065,
                "tempo": 120.0
            },
            {
                "start_time": 13.743181818181817,
                "end_time": 13.777272727272727,
                "pitch": 63,
                "velocity": 51,
                "duration": 0.03409090909091006,
                "tempo": 120.0
            },
            {
                "start_time": 13.777272727272727,
                "end_time": 13.793181818181818,
                "pitch": 60,
                "velocity": 51,
                "duration": 0.01590909090909065,
                "tempo": 120.0
            },
            {
                "start_time": 13.793181818181818,
                "end_time": 13.809090909090909,
                "pitch": 58,
                "velocity": 51,
                "duration": 0.01590909090909065,
                "tempo": 120.0
            },
            {
                "start_time": 13.809090909090909,
                "end_time": 13.827272727272726,
                "pitch": 55,
                "velocity": 51,
                "duration": 0.018181818181817633,
                "tempo": 120.0
            },
            {
                "start_time": 13.827272727272726,
                "end_time": 13.861363636363636,
                "pitch": 54,
                "velocity": 51,
                "duration": 0.03409090909091006,
                "tempo": 120.0
            },
            {
                "start_time": 13.861363636363636,
                "end_time": 13.893181818181818,
                "pitch": 51,
                "velocity": 51,
                "duration": 0.0318181818181813,
                "tempo": 120.0
            },
            {
                "start_time": 13.893181818181818,
                "end_time": 13.927272727272726,
                "pitch": 48,
                "velocity": 51,
                "duration": 0.034090909090908283,
                "tempo": 120.0
            },
            {
                "start_time": 13.927272727272726,
                "end_time": 13.943181818181818,
                "pitch": 44,
                "velocity": 51,
                "duration": 0.015909090909092427,
                "tempo": 120.0
            },
            {
                "start_time": 13.943181818181818,
                "end_time": 14.327272727272726,
                "pitch": 73,
                "velocity": 51,
                "duration": 0.38409090909090793,
                "tempo": 120.0
            },
            {
                "start_time": 14.345454545454544,
                "end_time": 14.729545454545454,
                "pitch": 70,
                "velocity": 51,
                "duration": 0.3840909090909097,
                "tempo": 120.0
            },
            {
                "start_time": 14.747727272727271,
                "end_time": 15.14090909090909,
                "pitch": 77,
                "velocity": 51,
                "duration": 0.3931818181818194,
                "tempo": 120.0
            },
            {
                "start_time": 15.156818181818181,
                "end_time": 15.534090909090908,
                "pitch": 73,
                "velocity": 51,
                "duration": 0.377272727272727,
                "tempo": 120.0
            },
            {
                "start_time": 15.549999999999999,
                "end_time": 15.734090909090908,
                "pitch": 77,
                "velocity": 51,
                "duration": 0.18409090909090864,
                "tempo": 120.0
            },
            {
                "start_time": 15.752272727272727,
                "end_time": 15.936363636363636,
                "pitch": 73,
                "velocity": 51,
                "duration": 0.18409090909090864,
                "tempo": 120.0
            },
            {
                "start_time": 15.952272727272726,
                "end_time": 16.336363636363636,
                "pitch": 70,
                "velocity": 51,
                "duration": 0.3840909090909097,
                "tempo": 120.0
            },
            {
                "start_time": 16.352272727272727,
                "end_time": 16.738636363636363,
                "pitch": 70,
                "velocity": 51,
                "duration": 0.3863636363636367,
                "tempo": 120.0
            },
            {
                "start_time": 16.754545454545454,
                "end_time": 17.14090909090909,
                "pitch": 70,
                "velocity": 51,
                "duration": 0.3863636363636367,
                "tempo": 120.0
            },
            {
                "start_time": 17.15681818181818,
                "end_time": 17.54090909090909,
                "pitch": 73,
                "velocity": 51,
                "duration": 0.38409090909090793,
                "tempo": 120.0
            },
            {
                "start_time": 17.55681818181818,
                "end_time": 17.94090909090909,
                "pitch": 70,
                "velocity": 51,
                "duration": 0.3840909090909115,
                "tempo": 120.0
            },
            {
                "start_time": 17.959090909090907,
                "end_time": 18.34318181818182,
                "pitch": 77,
                "velocity": 51,
                "duration": 0.3840909090909115,
                "tempo": 120.0
            },
            {
                "start_time": 18.361363636363635,
                "end_time": 18.743181818181817,
                "pitch": 70,
                "velocity": 51,
                "duration": 0.3818181818181827,
                "tempo": 120.0
            },
            {
                "start_time": 18.761363636363637,
                "end_time": 19.145454545454545,
                "pitch": 73,
                "velocity": 51,
                "duration": 0.38409090909090793,
                "tempo": 120.0
            },
            {
                "start_time": 19.163636363636364,
                "end_time": 19.545454545454543,
                "pitch": 70,
                "velocity": 51,
                "duration": 0.38181818181817917,
                "tempo": 120.0
            },
            {
                "start_time": 19.563636363636363,
                "end_time": 19.945454545454545,
                "pitch": 77,
                "velocity": 51,
                "duration": 0.3818181818181827,
                "tempo": 120.0
            },
            {
                "start_time": 19.96363636363636,
                "end_time": 20.349999999999998,
                "pitch": 75,
                "velocity": 51,
                "duration": 0.3863636363636367,
                "tempo": 120.0
            },
            {
                "start_time": 20.36590909090909,
                "end_time": 20.75,
                "pitch": 73,
                "velocity": 51,
                "duration": 0.3840909090909115,
                "tempo": 120.0
            },
            {
                "start_time": 20.76590909090909,
                "end_time": 21.152272727272727,
                "pitch": 70,
                "velocity": 51,
                "duration": 0.3863636363636367,
                "tempo": 120.0
            },
            {
                "start_time": 21.168181818181818,
                "end_time": 21.552272727272726,
                "pitch": 77,
                "velocity": 51,
                "duration": 0.38409090909090793,
                "tempo": 120.0
            },
            {
                "start_time": 21.568181818181817,
                "end_time": 21.952272727272724,
                "pitch": 70,
                "velocity": 51,
                "duration": 0.38409090909090793,
                "tempo": 120.0
            },
            {
                "start_time": 21.96818181818182,
                "end_time": 22.354545454545452,
                "pitch": 73,
                "velocity": 51,
                "duration": 0.38636363636363313,
                "tempo": 120.0
            },
            {
                "start_time": 22.370454545454546,
                "end_time": 22.754545454545454,
                "pitch": 70,
                "velocity": 51,
                "duration": 0.38409090909090793,
                "tempo": 120.0
            },
            {
                "start_time": 22.770454545454545,
                "end_time": 23.15681818181818,
                "pitch": 77,
                "velocity": 51,
                "duration": 0.3863636363636367,
                "tempo": 120.0
            },
            {
                "start_time": 23.174999999999997,
                "end_time": 23.55681818181818,
                "pitch": 70,
                "velocity": 51,
                "duration": 0.3818181818181827,
                "tempo": 120.0
            },
            {
                "start_time": 23.575,
                "end_time": 23.956818181818182,
                "pitch": 73,
                "velocity": 51,
                "duration": 0.3818181818181827,
                "tempo": 120.0
            },
            {
                "start_time": 23.974999999999998,
                "end_time": 24.35909090909091,
                "pitch": 70,
                "velocity": 51,
                "duration": 0.3840909090909115,
                "tempo": 120.0
            },
            {
                "start_time": 24.377272727272725,
                "end_time": 24.770454545454545,
                "pitch": 77,
                "velocity": 51,
                "duration": 0.3931818181818194,
                "tempo": 120.0
            },
            {
                "start_time": 24.786363636363635,
                "end_time": 25.163636363636364,
                "pitch": 73,
                "velocity": 51,
                "duration": 0.37727272727272876,
                "tempo": 120.0
            },
            {
                "start_time": 25.179545454545455,
                "end_time": 25.363636363636363,
                "pitch": 79,
                "velocity": 51,
                "duration": 0.18409090909090864,
                "tempo": 120.0
            },
            {
                "start_time": 25.379545454545454,
                "end_time": 25.413636363636364,
                "pitch": 66,
                "velocity": 51,
                "duration": 0.03409090909091006,
                "tempo": 120.0
            },
            {
                "start_time": 25.413636363636364,
                "end_time": 25.445454545454545,
                "pitch": 63,
                "velocity": 51,
                "duration": 0.0318181818181813,
                "tempo": 120.0
            },
            {
                "start_time": 25.445454545454545,
                "end_time": 25.479545454545452,
                "pitch": 60,
                "velocity": 51,
                "duration": 0.03409090909090651,
                "tempo": 120.0
            },
            {
                "start_time": 25.479545454545452,
                "end_time": 25.495454545454542,
                "pitch": 57,
                "velocity": 51,
                "duration": 0.01590909090909065,
                "tempo": 120.0
            },
            {
                "start_time": 25.495454545454542,
                "end_time": 25.529545454545453,
                "pitch": 55,
                "velocity": 51,
                "duration": 0.03409090909091006,
                "tempo": 120.0
            },
            {
                "start_time": 25.529545454545453,
                "end_time": 25.563636363636363,
                "pitch": 52,
                "velocity": 51,
                "duration": 0.03409090909091006,
                "tempo": 120.0
            },
            {
                "start_time": 25.563636363636363,
                "end_time": 25.579545454545453,
                "pitch": 50,
                "velocity": 51,
                "duration": 0.01590909090909065,
                "tempo": 120.0
            },
            {
                "start_time": 25.579545454545453,
                "end_time": 25.613636363636363,
                "pitch": 63,
                "velocity": 51,
                "duration": 0.03409090909091006,
                "tempo": 120.0
            },
            {
                "start_time": 25.613636363636363,
                "end_time": 25.629545454545454,
                "pitch": 60,
                "velocity": 51,
                "duration": 0.01590909090909065,
                "tempo": 120.0
            },
            {
                "start_time": 25.629545454545454,
                "end_time": 25.645454545454545,
                "pitch": 58,
                "velocity": 51,
                "duration": 0.01590909090909065,
                "tempo": 120.0
            },
            {
                "start_time": 25.645454545454545,
                "end_time": 25.663636363636364,
                "pitch": 55,
                "velocity": 51,
                "duration": 0.01818181818181941,
                "tempo": 120.0
            },
            {
                "start_time": 25.663636363636364,
                "end_time": 25.695454545454545,
                "pitch": 54,
                "velocity": 51,
                "duration": 0.0318181818181813,
                "tempo": 120.0
            },
            {
                "start_time": 25.695454545454545,
                "end_time": 25.729545454545452,
                "pitch": 51,
                "velocity": 51,
                "duration": 0.03409090909090651,
                "tempo": 120.0
            },
            {
                "start_time": 25.729545454545452,
                "end_time": 25.763636363636362,
                "pitch": 48,
                "velocity": 51,
                "duration": 0.03409090909091006,
                "tempo": 120.0
            },
            {
                "start_time": 25.763636363636362,
                "end_time": 25.779545454545453,
                "pitch": 44,
                "velocity": 51,
                "duration": 0.01590909090909065,
                "tempo": 120.0
            },
            {
                "start_time": 25.779545454545453,
                "end_time": 25.813636363636363,
                "pitch": 42,
                "velocity": 51,
                "duration": 0.03409090909091006,
                "tempo": 120.0
            },
            {
                "start_time": 25.813636363636363,
                "end_time": 25.845454545454544,
                "pitch": 39,
                "velocity": 51,
                "duration": 0.0318181818181813,
                "tempo": 120.0
            },
            {
                "start_time": 25.845454545454544,
                "end_time": 25.879545454545454,
                "pitch": 36,
                "velocity": 51,
                "duration": 0.03409090909091006,
                "tempo": 120.0
            },
            {
                "start_time": 25.879545454545454,
                "end_time": 25.895454545454545,
                "pitch": 32,
                "velocity": 51,
                "duration": 0.01590909090909065,
                "tempo": 120.0
            },
            {
                "start_time": 25.895454545454545,
                "end_time": 25.929545454545455,
                "pitch": 30,
                "velocity": 51,
                "duration": 0.03409090909091006,
                "tempo": 120.0
            },
            {
                "start_time": 25.929545454545455,
                "end_time": 25.96363636363636,
                "pitch": 27,
                "velocity": 51,
                "duration": 0.03409090909090651,
                "tempo": 120.0
            },
            {
                "start_time": 25.96363636363636,
                "end_time": 25.979545454545452,
                "pitch": 24,
                "velocity": 51,
                "duration": 0.01590909090909065,
                "tempo": 120.0
            },
            {
                "start_time": 26.18181818181818,
                "end_time": 26.21363636363636,
                "pitch": 66,
                "velocity": 51,
                "duration": 0.0318181818181813,
                "tempo": 120.0
            },
            {
                "start_time": 26.21363636363636,
                "end_time": 26.24772727272727,
                "pitch": 63,
                "velocity": 51,
                "duration": 0.03409090909091006,
                "tempo": 120.0
            },
            {
                "start_time": 26.24772727272727,
                "end_time": 26.28181818181818,
                "pitch": 60,
                "velocity": 51,
                "duration": 0.03409090909091006,
                "tempo": 120.0
            },
            {
                "start_time": 26.28181818181818,
                "end_time": 26.297727272727272,
                "pitch": 57,
                "velocity": 51,
                "duration": 0.01590909090909065,
                "tempo": 120.0
            },
            {
                "start_time": 26.297727272727272,
                "end_time": 26.331818181818182,
                "pitch": 55,
                "velocity": 51,
                "duration": 0.03409090909091006,
                "tempo": 120.0
            },
            {
                "start_time": 26.331818181818182,
                "end_time": 26.36590909090909,
                "pitch": 52,
                "velocity": 51,
                "duration": 0.03409090909090651,
                "tempo": 120.0
            },
            {
                "start_time": 26.36590909090909,
                "end_time": 26.38181818181818,
                "pitch": 50,
                "velocity": 51,
                "duration": 0.01590909090909065,
                "tempo": 120.0
            },
            {
                "start_time": 26.38181818181818,
                "end_time": 26.41590909090909,
                "pitch": 66,
                "velocity": 51,
                "duration": 0.03409090909091006,
                "tempo": 120.0
            },
            {
                "start_time": 26.41590909090909,
                "end_time": 26.44772727272727,
                "pitch": 63,
                "velocity": 51,
                "duration": 0.0318181818181813,
                "tempo": 120.0
            },
            {
                "start_time": 26.44772727272727,
                "end_time": 26.48181818181818,
                "pitch": 60,
                "velocity": 51,
                "duration": 0.03409090909091006,
                "tempo": 120.0
            },
            {
                "start_time": 26.48181818181818,
                "end_time": 26.49772727272727,
                "pitch": 57,
                "velocity": 51,
                "duration": 0.01590909090909065,
                "tempo": 120.0
            },
            {
                "start_time": 26.49772727272727,
                "end_time": 26.53181818181818,
                "pitch": 55,
                "velocity": 51,
                "duration": 0.03409090909091006,
                "tempo": 120.0
            },
            {
                "start_time": 26.53181818181818,
                "end_time": 26.56590909090909,
                "pitch": 52,
                "velocity": 51,
                "duration": 0.03409090909091006,
                "tempo": 120.0
            },
            {
                "start_time": 26.56590909090909,
                "end_time": 26.581818181818182,
                "pitch": 50,
                "velocity": 51,
                "duration": 0.01590909090909065,
                "tempo": 120.0
            },
            {
                "start_time": 26.581818181818182,
                "end_time": 26.61590909090909,
                "pitch": 63,
                "velocity": 51,
                "duration": 0.03409090909090651,
                "tempo": 120.0
            },
            {
                "start_time": 26.61590909090909,
                "end_time": 26.63181818181818,
                "pitch": 60,
                "velocity": 51,
                "duration": 0.01590909090909065,
                "tempo": 120.0
            },
            {
                "start_time": 26.63181818181818,
                "end_time": 26.64772727272727,
                "pitch": 58,
                "velocity": 51,
                "duration": 0.01590909090909065,
                "tempo": 120.0
            },
            {
                "start_time": 26.64772727272727,
                "end_time": 26.66590909090909,
                "pitch": 55,
                "velocity": 51,
                "duration": 0.01818181818181941,
                "tempo": 120.0
            },
            {
                "start_time": 26.66590909090909,
                "end_time": 26.69772727272727,
                "pitch": 54,
                "velocity": 51,
                "duration": 0.0318181818181813,
                "tempo": 120.0
            },
            {
                "start_time": 26.69772727272727,
                "end_time": 26.73181818181818,
                "pitch": 51,
                "velocity": 51,
                "duration": 0.03409090909091006,
                "tempo": 120.0
            },
            {
                "start_time": 26.73181818181818,
                "end_time": 26.76590909090909,
                "pitch": 48,
                "velocity": 51,
                "duration": 0.03409090909091006,
                "tempo": 120.0
            },
            {
                "start_time": 26.76590909090909,
                "end_time": 26.78181818181818,
                "pitch": 44,
                "velocity": 51,
                "duration": 0.01590909090909065,
                "tempo": 120.0
            },
            {
                "start_time": 26.78181818181818,
                "end_time": 27.168181818181818,
                "pitch": 80,
                "velocity": 51,
                "duration": 0.3863636363636367,
                "tempo": 120.0
            },
            {
                "start_time": 27.18409090909091,
                "end_time": 27.568181818181817,
                "pitch": 77,
                "velocity": 51,
                "duration": 0.38409090909090793,
                "tempo": 120.0
            },
            {
                "start_time": 27.584090909090907,
                "end_time": 27.968181818181815,
                "pitch": 73,
                "velocity": 51,
                "duration": 0.38409090909090793,
                "tempo": 120.0
            },
            {
                "start_time": 27.98409090909091,
                "end_time": 28.370454545454542,
                "pitch": 77,
                "velocity": 51,
                "duration": 0.38636363636363313,
                "tempo": 120.0
            },
            {
                "start_time": 28.388636363636362,
                "end_time": 28.972727272727273,
                "pitch": 80,
                "velocity": 51,
                "duration": 0.5840909090909108,
                "tempo": 120.0
            },
            {
                "start_time": 28.988636363636363,
                "end_time": 30.377272727272725,
                "pitch": 72,
                "velocity": 51,
                "duration": 1.388636363636362,
                "tempo": 120.0
            },
            {
                "start_time": 30.393181818181816,
                "end_time": 31.179545454545455,
                "pitch": 67,
                "velocity": 51,
                "duration": 0.7863636363636388,
                "tempo": 120.0
            },
            {
                "start_time": 31.195454545454545,
                "end_time": 31.579545454545453,
                "pitch": 65,
                "velocity": 51,
                "duration": 0.38409090909090793,
                "tempo": 120.0
            },
            {
                "start_time": 31.595454545454544,
                "end_time": 31.775,
                "pitch": 67,
                "velocity": 51,
                "duration": 0.17954545454545467,
                "tempo": 120.0
            },
            {
                "start_time": 31.79090909090909,
                "end_time": 32.17727272727272,
                "pitch": 70,
                "velocity": 51,
                "duration": 0.38636363636363313,
                "tempo": 120.0
            },
            {
                "start_time": 32.19318181818182,
                "end_time": 33.184090909090905,
                "pitch": 74,
                "velocity": 51,
                "duration": 0.990909090909085,
                "tempo": 120.0
            },
            {
                "start_time": 33.20227272727273,
                "end_time": 33.38409090909091,
                "pitch": 73,
                "velocity": 51,
                "duration": 0.18181818181817988,
                "tempo": 120.0
            },
            {
                "start_time": 33.402272727272724,
                "end_time": 33.779545454545456,
                "pitch": 77,
                "velocity": 51,
                "duration": 0.3772727272727323,
                "tempo": 120.0
            },
            {
                "start_time": 33.79545454545455,
                "end_time": 34.388636363636365,
                "pitch": 80,
                "velocity": 51,
                "duration": 0.5931818181818187,
                "tempo": 120.0
            },
            {
                "start_time": 34.404545454545456,
                "end_time": 34.788636363636364,
                "pitch": 73,
                "velocity": 51,
                "duration": 0.38409090909090793,
                "tempo": 120.0
            },
            {
                "start_time": 34.80681818181818,
                "end_time": 35.388636363636365,
                "pitch": 79,
                "velocity": 51,
                "duration": 0.5818181818181856,
                "tempo": 120.0
            },
            {
                "start_time": 35.404545454545456,
                "end_time": 35.99318181818182,
                "pitch": 76,
                "velocity": 51,
                "duration": 0.5886363636363612,
                "tempo": 120.0
            },
            {
                "start_time": 36.00909090909091,
                "end_time": 37.38863636363636,
                "pitch": 72,
                "velocity": 51,
                "duration": 1.3795454545454504,
                "tempo": 120.0
            },
            {
                "start_time": 37.40681818181818,
                "end_time": 37.43863636363636,
                "pitch": 66,
                "velocity": 51,
                "duration": 0.0318181818181813,
                "tempo": 120.0
            },
            {
                "start_time": 37.43863636363636,
                "end_time": 37.47272727272727,
                "pitch": 63,
                "velocity": 51,
                "duration": 0.03409090909090651,
                "tempo": 120.0
            },
            {
                "start_time": 37.47272727272727,
                "end_time": 37.50681818181818,
                "pitch": 60,
                "velocity": 51,
                "duration": 0.03409090909091361,
                "tempo": 120.0
            },
            {
                "start_time": 37.50681818181818,
                "end_time": 37.52272727272727,
                "pitch": 57,
                "velocity": 51,
                "duration": 0.01590909090909065,
                "tempo": 120.0
            },
            {
                "start_time": 37.52272727272727,
                "end_time": 37.55681818181818,
                "pitch": 55,
                "velocity": 51,
                "duration": 0.03409090909090651,
                "tempo": 120.0
            },
            {
                "start_time": 37.55681818181818,
                "end_time": 37.590909090909086,
                "pitch": 52,
                "velocity": 51,
                "duration": 0.03409090909090651,
                "tempo": 120.0
            },
            {
                "start_time": 37.590909090909086,
                "end_time": 37.60909090909091,
                "pitch": 50,
                "velocity": 51,
                "duration": 0.018181818181822962,
                "tempo": 120.0
            },
            {
                "start_time": 37.60909090909091,
                "end_time": 37.643181818181816,
                "pitch": 63,
                "velocity": 51,
                "duration": 0.03409090909090651,
                "tempo": 120.0
            },
            {
                "start_time": 37.643181818181816,
                "end_time": 37.65909090909091,
                "pitch": 60,
                "velocity": 51,
                "duration": 0.01590909090909065,
                "tempo": 120.0
            },
            {
                "start_time": 37.65909090909091,
                "end_time": 37.67727272727272,
                "pitch": 58,
                "velocity": 51,
                "duration": 0.018181818181815856,
                "tempo": 120.0
            },
            {
                "start_time": 37.67727272727272,
                "end_time": 37.69318181818181,
                "pitch": 55,
                "velocity": 51,
                "duration": 0.01590909090909065,
                "tempo": 120.0
            },
            {
                "start_time": 37.69318181818181,
                "end_time": 37.72727272727273,
                "pitch": 54,
                "velocity": 51,
                "duration": 0.03409090909091361,
                "tempo": 120.0
            },
            {
                "start_time": 37.72727272727273,
                "end_time": 37.76136363636363,
                "pitch": 51,
                "velocity": 51,
                "duration": 0.03409090909090651,
                "tempo": 120.0
            },
            {
                "start_time": 37.76136363636363,
                "end_time": 37.79545454545455,
                "pitch": 48,
                "velocity": 51,
                "duration": 0.03409090909091361,
                "tempo": 120.0
            },
            {
                "start_time": 37.79545454545455,
                "end_time": 37.81363636363636,
                "pitch": 44,
                "velocity": 51,
                "duration": 0.018181818181815856,
                "tempo": 120.0
            },
            {
                "start_time": 37.81363636363636,
                "end_time": 37.84772727272727,
                "pitch": 42,
                "velocity": 51,
                "duration": 0.03409090909090651,
                "tempo": 120.0
            },
            {
                "start_time": 37.84772727272727,
                "end_time": 37.88181818181818,
                "pitch": 39,
                "velocity": 51,
                "duration": 0.03409090909091361,
                "tempo": 120.0
            },
            {
                "start_time": 37.88181818181818,
                "end_time": 37.91590909090909,
                "pitch": 36,
                "velocity": 51,
                "duration": 0.03409090909090651,
                "tempo": 120.0
            },
            {
                "start_time": 37.91590909090909,
                "end_time": 37.934090909090905,
                "pitch": 32,
                "velocity": 51,
                "duration": 0.018181818181815856,
                "tempo": 120.0
            },
            {
                "start_time": 37.934090909090905,
                "end_time": 37.96818181818182,
                "pitch": 30,
                "velocity": 51,
                "duration": 0.03409090909091361,
                "tempo": 120.0
            },
            {
                "start_time": 37.96818181818182,
                "end_time": 38.002272727272725,
                "pitch": 27,
                "velocity": 51,
                "duration": 0.03409090909090651,
                "tempo": 120.0
            },
            {
                "start_time": 38.002272727272725,
                "end_time": 38.018181818181816,
                "pitch": 24,
                "velocity": 51,
                "duration": 0.01590909090909065,
                "tempo": 120.0
            },
            {
                "start_time": 38.81136363636364,
                "end_time": 38.845454545454544,
                "pitch": 66,
                "velocity": 51,
                "duration": 0.03409090909090651,
                "tempo": 120.0
            },
            {
                "start_time": 38.845454545454544,
                "end_time": 38.87954545454545,
                "pitch": 63,
                "velocity": 51,
                "duration": 0.03409090909090651,
                "tempo": 120.0
            },
            {
                "start_time": 38.87954545454545,
                "end_time": 38.913636363636364,
                "pitch": 60,
                "velocity": 51,
                "duration": 0.03409090909091361,
                "tempo": 120.0
            },
            {
                "start_time": 38.913636363636364,
                "end_time": 38.94772727272727,
                "pitch": 66,
                "velocity": 51,
                "duration": 0.03409090909090651,
                "tempo": 120.0
            },
            {
                "start_time": 38.94772727272727,
                "end_time": 38.98181818181818,
                "pitch": 63,
                "velocity": 51,
                "duration": 0.03409090909090651,
                "tempo": 120.0
            },
            {
                "start_time": 38.98181818181818,
                "end_time": 39.01590909090909,
                "pitch": 60,
                "velocity": 51,
                "duration": 0.03409090909091361,
                "tempo": 120.0
            },
            {
                "start_time": 39.01590909090909,
                "end_time": 39.05,
                "pitch": 66,
                "velocity": 51,
                "duration": 0.03409090909090651,
                "tempo": 120.0
            },
            {
                "start_time": 39.05,
                "end_time": 39.084090909090904,
                "pitch": 63,
                "velocity": 51,
                "duration": 0.03409090909090651,
                "tempo": 120.0
            },
            {
                "start_time": 39.084090909090904,
                "end_time": 39.11818181818182,
                "pitch": 60,
                "velocity": 51,
                "duration": 0.03409090909091361,
                "tempo": 120.0
            },
            {
                "start_time": 39.11818181818182,
                "end_time": 39.152272727272724,
                "pitch": 66,
                "velocity": 51,
                "duration": 0.03409090909090651,
                "tempo": 120.0
            },
            {
                "start_time": 39.152272727272724,
                "end_time": 39.18636363636364,
                "pitch": 63,
                "velocity": 51,
                "duration": 0.03409090909091361,
                "tempo": 120.0
            },
            {
                "start_time": 39.18636363636364,
                "end_time": 39.220454545454544,
                "pitch": 60,
                "velocity": 51,
                "duration": 0.03409090909090651,
                "tempo": 120.0
            },
            {
                "start_time": 39.220454545454544,
                "end_time": 39.252272727272725,
                "pitch": 63,
                "velocity": 51,
                "duration": 0.0318181818181813,
                "tempo": 120.0
            },
            {
                "start_time": 39.252272727272725,
                "end_time": 39.268181818181816,
                "pitch": 60,
                "velocity": 51,
                "duration": 0.01590909090909065,
                "tempo": 120.0
            },
            {
                "start_time": 39.268181818181816,
                "end_time": 39.28636363636363,
                "pitch": 58,
                "velocity": 51,
                "duration": 0.018181818181815856,
                "tempo": 120.0
            },
            {
                "start_time": 39.28636363636363,
                "end_time": 39.30227272727272,
                "pitch": 55,
                "velocity": 51,
                "duration": 0.01590909090909065,
                "tempo": 120.0
            },
            {
                "start_time": 39.30227272727272,
                "end_time": 39.31818181818181,
                "pitch": 54,
                "velocity": 51,
                "duration": 0.01590909090909065,
                "tempo": 120.0
            },
            {
                "start_time": 39.31818181818181,
                "end_time": 39.35,
                "pitch": 63,
                "velocity": 51,
                "duration": 0.03181818181818841,
                "tempo": 120.0
            },
            {
                "start_time": 39.35,
                "end_time": 39.36818181818182,
                "pitch": 60,
                "velocity": 51,
                "duration": 0.018181818181815856,
                "tempo": 120.0
            },
            {
                "start_time": 39.36818181818182,
                "end_time": 39.38409090909091,
                "pitch": 58,
                "velocity": 51,
                "duration": 0.01590909090909065,
                "tempo": 120.0
            },
            {
                "start_time": 39.38409090909091,
                "end_time": 39.4,
                "pitch": 55,
                "velocity": 51,
                "duration": 0.01590909090909065,
                "tempo": 120.0
            },
            {
                "start_time": 39.4,
                "end_time": 39.41590909090909,
                "pitch": 54,
                "velocity": 51,
                "duration": 0.01590909090909065,
                "tempo": 120.0
            },
            {
                "start_time": 39.41590909090909,
                "end_time": 39.48181818181818,
                "pitch": 60,
                "velocity": 51,
                "duration": 0.06590909090908781,
                "tempo": 120.0
            },
            {
                "start_time": 39.48181818181818,
                "end_time": 39.51363636363636,
                "pitch": 58,
                "velocity": 51,
                "duration": 0.0318181818181813,
                "tempo": 120.0
            },
            {
                "start_time": 39.51363636363636,
                "end_time": 39.57954545454545,
                "pitch": 60,
                "velocity": 51,
                "duration": 0.06590909090909491,
                "tempo": 120.0
            },
            {
                "start_time": 39.57954545454545,
                "end_time": 39.61363636363636,
                "pitch": 58,
                "velocity": 51,
                "duration": 0.03409090909090651,
                "tempo": 120.0
            },
            {
                "start_time": 39.61363636363636,
                "end_time": 39.99090909090909,
                "pitch": 73,
                "velocity": 51,
                "duration": 0.3772727272727323,
                "tempo": 120.0
            }
        ]
    }
}