{
    "track_id": "Phantasy Star (FM) - 06 - Battle",
    "mood": "angry",
    "instruments": {
        "Church Organ": [
            {
                "start_time": 1.5999999999999999,
                "end_time": 1.684090909090909,
                "pitch": 74,
                "velocity": 80,
                "duration": 0.08409090909090922,
                "tempo": 120.0
            },
            {
                "start_time": 1.7,
                "end_time": 1.784090909090909,
                "pitch": 73,
                "velocity": 80,
                "duration": 0.084090909090909,
                "tempo": 120.0
            },
            {
                "start_time": 1.8022727272727272,
                "end_time": 1.9863636363636363,
                "pitch": 74,
                "velocity": 80,
                "duration": 0.18409090909090908,
                "tempo": 120.0
            },
            {
                "start_time": 2.002272727272727,
                "end_time": 2.0863636363636364,
                "pitch": 77,
                "velocity": 80,
                "duration": 0.08409090909090944,
                "tempo": 120.0
            },
            {
                "start_time": 2.102272727272727,
                "end_time": 2.186363636363636,
                "pitch": 76,
                "velocity": 80,
                "duration": 0.084090909090909,
                "tempo": 120.0
            },
            {
                "start_time": 2.202272727272727,
                "end_time": 2.3863636363636362,
                "pitch": 77,
                "velocity": 80,
                "duration": 0.18409090909090908,
                "tempo": 120.0
            },
            {
                "start_time": 2.4022727272727273,
                "end_time": 2.4863636363636363,
                "pitch": 80,
                "velocity": 80,
                "duration": 0.084090909090909,
                "tempo": 120.0
            },
            {
                "start_time": 2.502272727272727,
                "end_time": 2.5863636363636364,
                "pitch": 79,
                "velocity": 80,
                "duration": 0.08409090909090944,
                "tempo": 120.0
            },
            {
                "start_time": 2.602272727272727,
                "end_time": 2.786363636363636,
                "pitch": 80,
                "velocity": 80,
                "duration": 0.18409090909090908,
                "tempo": 120.0
            },
            {
                "start_time": 2.8022727272727272,
                "end_time": 2.8886363636363637,
                "pitch": 84,
                "velocity": 80,
                "duration": 0.08636363636363642,
                "tempo": 120.0
            },
            {
                "start_time": 2.9045454545454543,
                "end_time": 2.9909090909090907,
                "pitch": 83,
                "velocity": 80,
                "duration": 0.08636363636363642,
                "tempo": 120.0
            },
            {
                "start_time": 3.006818181818182,
                "end_time": 3.093181818181818,
                "pitch": 84,
                "velocity": 80,
                "duration": 0.08636363636363598,
                "tempo": 120.0
            },
            {
                "start_time": 4.809090909090909,
                "end_time": 4.890909090909091,
                "pitch": 74,
                "velocity": 80,
                "duration": 0.08181818181818201,
                "tempo": 120.0
            },
            {
                "start_time": 4.909090909090909,
                "end_time": 4.99090909090909,
                "pitch": 73,
                "velocity": 80,
                "duration": 0.08181818181818112,
                "tempo": 120.0
            },
            {
                "start_time": 5.009090909090909,
                "end_time": 5.1909090909090905,
                "pitch": 74,
                "velocity": 80,
                "duration": 0.18181818181818166,
                "tempo": 120.0
            },
            {
                "start_time": 5.209090909090909,
                "end_time": 5.293181818181818,
                "pitch": 77,
                "velocity": 80,
                "duration": 0.084090909090909,
                "tempo": 120.0
            },
            {
                "start_time": 5.309090909090909,
                "end_time": 5.393181818181818,
                "pitch": 76,
                "velocity": 80,
                "duration": 0.084090909090909,
                "tempo": 120.0
            },
            {
                "start_time": 5.409090909090909,
                "end_time": 5.593181818181818,
                "pitch": 77,
                "velocity": 80,
                "duration": 0.18409090909090864,
                "tempo": 120.0
            },
            {
                "start_time": 5.611363636363636,
                "end_time": 5.793181818181818,
                "pitch": 80,
                "velocity": 80,
                "duration": 0.18181818181818166,
                "tempo": 120.0
            },
            {
                "start_time": 5.8113636363636365,
                "end_time": 5.993181818181818,
                "pitch": 79,
                "velocity": 80,
                "duration": 0.18181818181818166,
                "tempo": 120.0
            },
            {
                "start_time": 6.011363636363636,
                "end_time": 8.002272727272727,
                "pitch": 84,
                "velocity": 80,
                "duration": 1.9909090909090912,
                "tempo": 120.0
            },
            {
                "start_time": 8.018181818181818,
                "end_time": 8.102272727272727,
                "pitch": 74,
                "velocity": 80,
                "duration": 0.084090909090909,
                "tempo": 120.0
            },
            {
                "start_time": 8.120454545454544,
                "end_time": 8.204545454545455,
                "pitch": 73,
                "velocity": 80,
                "duration": 0.08409090909091077,
                "tempo": 120.0
            },
            {
                "start_time": 8.220454545454546,
                "end_time": 8.404545454545454,
                "pitch": 74,
                "velocity": 80,
                "duration": 0.18409090909090864,
                "tempo": 120.0
            },
            {
                "start_time": 8.422727272727272,
                "end_time": 8.504545454545454,
                "pitch": 77,
                "velocity": 80,
                "duration": 0.08181818181818201,
                "tempo": 120.0
            },
            {
                "start_time": 8.522727272727272,
                "end_time": 8.60681818181818,
                "pitch": 76,
                "velocity": 80,
                "duration": 0.084090909090909,
                "tempo": 120.0
            },
            {
                "start_time": 8.622727272727273,
                "end_time": 8.806818181818182,
                "pitch": 77,
                "velocity": 80,
                "duration": 0.18409090909090864,
                "tempo": 120.0
            },
            {
                "start_time": 8.825,
                "end_time": 8.909090909090908,
                "pitch": 80,
                "velocity": 80,
                "duration": 0.084090909090909,
                "tempo": 120.0
            },
            {
                "start_time": 8.924999999999999,
                "end_time": 9.009090909090908,
                "pitch": 79,
                "velocity": 80,
                "duration": 0.084090909090909,
                "tempo": 120.0
            },
            {
                "start_time": 9.025,
                "end_time": 9.211363636363636,
                "pitch": 80,
                "velocity": 80,
                "duration": 0.18636363636363562,
                "tempo": 120.0
            },
            {
                "start_time": 9.227272727272727,
                "end_time": 9.311363636363636,
                "pitch": 84,
                "velocity": 80,
                "duration": 0.084090909090909,
                "tempo": 120.0
            },
            {
                "start_time": 9.327272727272726,
                "end_time": 9.411363636363635,
                "pitch": 83,
                "velocity": 80,
                "duration": 0.084090909090909,
                "tempo": 120.0
            },
            {
                "start_time": 9.427272727272728,
                "end_time": 9.511363636363637,
                "pitch": 84,
                "velocity": 80,
                "duration": 0.084090909090909,
                "tempo": 120.0
            },
            {
                "start_time": 11.238636363636363,
                "end_time": 11.320454545454545,
                "pitch": 74,
                "velocity": 80,
                "duration": 0.08181818181818201,
                "tempo": 120.0
            },
            {
                "start_time": 11.338636363636363,
                "end_time": 11.420454545454545,
                "pitch": 73,
                "velocity": 80,
                "duration": 0.08181818181818201,
                "tempo": 120.0
            },
            {
                "start_time": 11.438636363636363,
                "end_time": 11.620454545454544,
                "pitch": 74,
                "velocity": 80,
                "duration": 0.18181818181818166,
                "tempo": 120.0
            },
            {
                "start_time": 11.638636363636364,
                "end_time": 11.722727272727273,
                "pitch": 77,
                "velocity": 80,
                "duration": 0.084090909090909,
                "tempo": 120.0
            },
            {
                "start_time": 11.738636363636363,
                "end_time": 11.822727272727272,
                "pitch": 76,
                "velocity": 80,
                "duration": 0.084090909090909,
                "tempo": 120.0
            },
            {
                "start_time": 11.838636363636363,
                "end_time": 12.022727272727272,
                "pitch": 77,
                "velocity": 80,
                "duration": 0.18409090909090864,
                "tempo": 120.0
            },
            {
                "start_time": 12.040909090909091,
                "end_time": 12.125,
                "pitch": 80,
                "velocity": 80,
                "duration": 0.084090909090909,
                "tempo": 120.0
            },
            {
                "start_time": 12.14090909090909,
                "end_time": 12.225,
                "pitch": 79,
                "velocity": 80,
                "duration": 0.084090909090909,
                "tempo": 120.0
            },
            {
                "start_time": 12.24090909090909,
                "end_time": 12.427272727272726,
                "pitch": 80,
                "velocity": 80,
                "duration": 0.18636363636363562,
                "tempo": 120.0
            },
            {
                "start_time": 12.443181818181818,
                "end_time": 12.795454545454545,
                "pitch": 84,
                "velocity": 80,
                "duration": 0.3522727272727266,
                "tempo": 120.0
            },
            {
                "start_time": 14.454545454545453,
                "end_time": 15.040909090909091,
                "pitch": 84,
                "velocity": 80,
                "duration": 0.5863636363636378,
                "tempo": 120.0
            },
            {
                "start_time": 15.056818181818182,
                "end_time": 16.045454545454543,
                "pitch": 87,
                "velocity": 80,
                "duration": 0.9886363636363615,
                "tempo": 120.0
            },
            {
                "start_time": 16.061363636363634,
                "end_time": 16.643181818181816,
                "pitch": 89,
                "velocity": 80,
                "duration": 0.581818181818182,
                "tempo": 120.0
            },
            {
                "start_time": 16.661363636363635,
                "end_time": 17.65,
                "pitch": 88,
                "velocity": 80,
                "duration": 0.9886363636363633,
                "tempo": 120.0
            },
            {
                "start_time": 19.261363636363637,
                "end_time": 19.85681818181818,
                "pitch": 84,
                "velocity": 80,
                "duration": 0.5954545454545439,
                "tempo": 120.0
            },
            {
                "start_time": 19.875,
                "end_time": 20.85909090909091,
                "pitch": 87,
                "velocity": 80,
                "duration": 0.9840909090909093,
                "tempo": 120.0
            },
            {
                "start_time": 22.48181818181818,
                "end_time": 22.563636363636363,
                "pitch": 84,
                "velocity": 80,
                "duration": 0.08181818181818201,
                "tempo": 120.0
            },
            {
                "start_time": 23.081818181818182,
                "end_time": 25.14090909090909,
                "pitch": 80,
                "velocity": 80,
                "duration": 2.0590909090909086,
                "tempo": 120.0
            }
        ],
        "Electric Guitar (clean)": [
            {
                "start_time": 0.0,
                "end_time": 0.08409090909090909,
                "pitch": 38,
                "velocity": 64,
                "duration": 0.08409090909090909,
                "tempo": 120.0
            },
            {
                "start_time": 0.09999999999999999,
                "end_time": 0.18409090909090908,
                "pitch": 37,
                "velocity": 64,
                "duration": 0.08409090909090909,
                "tempo": 120.0
            },
            {
                "start_time": 0.19999999999999998,
                "end_time": 0.3840909090909091,
                "pitch": 38,
                "velocity": 64,
                "duration": 0.1840909090909091,
                "tempo": 120.0
            },
            {
                "start_time": 0.39999999999999997,
                "end_time": 0.5840909090909091,
                "pitch": 41,
                "velocity": 64,
                "duration": 0.18409090909090914,
                "tempo": 120.0
            },
            {
                "start_time": 0.6,
                "end_time": 0.7840909090909091,
                "pitch": 40,
                "velocity": 64,
                "duration": 0.18409090909090908,
                "tempo": 120.0
            },
            {
                "start_time": 0.7999999999999999,
                "end_time": 0.884090909090909,
                "pitch": 38,
                "velocity": 64,
                "duration": 0.0840909090909091,
                "tempo": 120.0
            },
            {
                "start_time": 0.8999999999999999,
                "end_time": 0.984090909090909,
                "pitch": 37,
                "velocity": 64,
                "duration": 0.0840909090909091,
                "tempo": 120.0
            },
            {
                "start_time": 1.0,
                "end_time": 1.184090909090909,
                "pitch": 38,
                "velocity": 64,
                "duration": 0.18409090909090908,
                "tempo": 120.0
            },
            {
                "start_time": 1.2,
                "end_time": 1.384090909090909,
                "pitch": 44,
                "velocity": 64,
                "duration": 0.18409090909090908,
                "tempo": 120.0
            },
            {
                "start_time": 1.4,
                "end_time": 1.584090909090909,
                "pitch": 43,
                "velocity": 64,
                "duration": 0.18409090909090908,
                "tempo": 120.0
            },
            {
                "start_time": 1.5999999999999999,
                "end_time": 1.684090909090909,
                "pitch": 38,
                "velocity": 64,
                "duration": 0.08409090909090922,
                "tempo": 120.0
            },
            {
                "start_time": 1.7,
                "end_time": 1.784090909090909,
                "pitch": 37,
                "velocity": 64,
                "duration": 0.084090909090909,
                "tempo": 120.0
            },
            {
                "start_time": 1.8022727272727272,
                "end_time": 1.9863636363636363,
                "pitch": 38,
                "velocity": 64,
                "duration": 0.18409090909090908,
                "tempo": 120.0
            },
            {
                "start_time": 2.002272727272727,
                "end_time": 2.186363636363636,
                "pitch": 41,
                "velocity": 64,
                "duration": 0.18409090909090908,
                "tempo": 120.0
            },
            {
                "start_time": 2.202272727272727,
                "end_time": 2.3863636363636362,
                "pitch": 40,
                "velocity": 64,
                "duration": 0.18409090909090908,
                "tempo": 120.0
            },
            {
                "start_time": 2.4022727272727273,
                "end_time": 2.786363636363636,
                "pitch": 36,
                "velocity": 64,
                "duration": 0.3840909090909088,
                "tempo": 120.0
            },
            {
                "start_time": 2.8022727272727272,
                "end_time": 3.1954545454545453,
                "pitch": 37,
                "velocity": 64,
                "duration": 0.3931818181818181,
                "tempo": 120.0
            },
            {
                "start_time": 3.2136363636363634,
                "end_time": 3.2954545454545454,
                "pitch": 38,
                "velocity": 64,
                "duration": 0.08181818181818201,
                "tempo": 120.0
            },
            {
                "start_time": 3.311363636363636,
                "end_time": 3.393181818181818,
                "pitch": 38,
                "velocity": 64,
                "duration": 0.08181818181818201,
                "tempo": 120.0
            },
            {
                "start_time": 3.4090909090909087,
                "end_time": 3.5886363636363634,
                "pitch": 38,
                "velocity": 64,
                "duration": 0.17954545454545467,
                "tempo": 120.0
            },
            {
                "start_time": 3.6045454545454545,
                "end_time": 3.7886363636363636,
                "pitch": 41,
                "velocity": 64,
                "duration": 0.18409090909090908,
                "tempo": 120.0
            },
            {
                "start_time": 3.8045454545454542,
                "end_time": 3.9886363636363633,
                "pitch": 40,
                "velocity": 64,
                "duration": 0.18409090909090908,
                "tempo": 120.0
            },
            {
                "start_time": 4.004545454545454,
                "end_time": 4.088636363636364,
                "pitch": 38,
                "velocity": 64,
                "duration": 0.08409090909090988,
                "tempo": 120.0
            },
            {
                "start_time": 4.1045454545454545,
                "end_time": 4.1886363636363635,
                "pitch": 37,
                "velocity": 64,
                "duration": 0.084090909090909,
                "tempo": 120.0
            },
            {
                "start_time": 4.204545454545454,
                "end_time": 4.388636363636364,
                "pitch": 38,
                "velocity": 64,
                "duration": 0.18409090909090953,
                "tempo": 120.0
            },
            {
                "start_time": 4.404545454545454,
                "end_time": 4.590909090909091,
                "pitch": 44,
                "velocity": 64,
                "duration": 0.1863636363636365,
                "tempo": 120.0
            },
            {
                "start_time": 4.6068181818181815,
                "end_time": 4.790909090909091,
                "pitch": 43,
                "velocity": 64,
                "duration": 0.18409090909090953,
                "tempo": 120.0
            },
            {
                "start_time": 4.809090909090909,
                "end_time": 4.890909090909091,
                "pitch": 38,
                "velocity": 64,
                "duration": 0.08181818181818201,
                "tempo": 120.0
            },
            {
                "start_time": 4.909090909090909,
                "end_time": 4.99090909090909,
                "pitch": 37,
                "velocity": 64,
                "duration": 0.08181818181818112,
                "tempo": 120.0
            },
            {
                "start_time": 5.009090909090909,
                "end_time": 5.1909090909090905,
                "pitch": 38,
                "velocity": 64,
                "duration": 0.18181818181818166,
                "tempo": 120.0
            },
            {
                "start_time": 5.209090909090909,
                "end_time": 5.393181818181818,
                "pitch": 41,
                "velocity": 64,
                "duration": 0.18409090909090864,
                "tempo": 120.0
            },
            {
                "start_time": 5.409090909090909,
                "end_time": 5.593181818181818,
                "pitch": 40,
                "velocity": 64,
                "duration": 0.18409090909090864,
                "tempo": 120.0
            },
            {
                "start_time": 5.611363636363636,
                "end_time": 5.793181818181818,
                "pitch": 37,
                "velocity": 64,
                "duration": 0.18181818181818166,
                "tempo": 120.0
            },
            {
                "start_time": 5.8113636363636365,
                "end_time": 5.993181818181818,
                "pitch": 44,
                "velocity": 64,
                "duration": 0.18181818181818166,
                "tempo": 120.0
            },
            {
                "start_time": 6.011363636363636,
                "end_time": 6.3977272727272725,
                "pitch": 43,
                "velocity": 64,
                "duration": 0.3863636363636367,
                "tempo": 120.0
            },
            {
                "start_time": 6.413636363636363,
                "end_time": 6.497727272727272,
                "pitch": 38,
                "velocity": 64,
                "duration": 0.084090909090909,
                "tempo": 120.0
            },
            {
                "start_time": 6.513636363636364,
                "end_time": 6.597727272727273,
                "pitch": 37,
                "velocity": 64,
                "duration": 0.084090909090909,
                "tempo": 120.0
            },
            {
                "start_time": 6.61590909090909,
                "end_time": 6.8,
                "pitch": 38,
                "velocity": 64,
                "duration": 0.18409090909090953,
                "tempo": 120.0
            },
            {
                "start_time": 6.8159090909090905,
                "end_time": 7.0,
                "pitch": 41,
                "velocity": 64,
                "duration": 0.18409090909090953,
                "tempo": 120.0
            },
            {
                "start_time": 7.015909090909091,
                "end_time": 7.199999999999999,
                "pitch": 40,
                "velocity": 64,
                "duration": 0.18409090909090864,
                "tempo": 120.0
            },
            {
                "start_time": 7.215909090909091,
                "end_time": 7.3,
                "pitch": 38,
                "velocity": 64,
                "duration": 0.084090909090909,
                "tempo": 120.0
            },
            {
                "start_time": 7.3159090909090905,
                "end_time": 7.3999999999999995,
                "pitch": 37,
                "velocity": 64,
                "duration": 0.084090909090909,
                "tempo": 120.0
            },
            {
                "start_time": 7.418181818181818,
                "end_time": 7.602272727272727,
                "pitch": 38,
                "velocity": 64,
                "duration": 0.18409090909090864,
                "tempo": 120.0
            },
            {
                "start_time": 7.618181818181818,
                "end_time": 7.802272727272727,
                "pitch": 44,
                "velocity": 64,
                "duration": 0.18409090909090864,
                "tempo": 120.0
            },
            {
                "start_time": 7.8181818181818175,
                "end_time": 8.002272727272727,
                "pitch": 43,
                "velocity": 64,
                "duration": 0.18409090909090953,
                "tempo": 120.0
            },
            {
                "start_time": 8.018181818181818,
                "end_time": 8.102272727272727,
                "pitch": 38,
                "velocity": 64,
                "duration": 0.084090909090909,
                "tempo": 120.0
            },
            {
                "start_time": 8.120454545454544,
                "end_time": 8.204545454545455,
                "pitch": 37,
                "velocity": 64,
                "duration": 0.08409090909091077,
                "tempo": 120.0
            },
            {
                "start_time": 8.220454545454546,
                "end_time": 8.404545454545454,
                "pitch": 38,
                "velocity": 64,
                "duration": 0.18409090909090864,
                "tempo": 120.0
            },
            {
                "start_time": 8.422727272727272,
                "end_time": 8.60681818181818,
                "pitch": 41,
                "velocity": 64,
                "duration": 0.18409090909090864,
                "tempo": 120.0
            },
            {
                "start_time": 8.622727272727273,
                "end_time": 8.806818181818182,
                "pitch": 40,
                "velocity": 64,
                "duration": 0.18409090909090864,
                "tempo": 120.0
            },
            {
                "start_time": 8.825,
                "end_time": 9.211363636363636,
                "pitch": 36,
                "velocity": 64,
                "duration": 0.3863636363636367,
                "tempo": 120.0
            },
            {
                "start_time": 9.227272727272727,
                "end_time": 9.611363636363636,
                "pitch": 37,
                "velocity": 64,
                "duration": 0.3840909090909097,
                "tempo": 120.0
            },
            {
                "start_time": 9.627272727272727,
                "end_time": 9.711363636363636,
                "pitch": 38,
                "velocity": 64,
                "duration": 0.084090909090909,
                "tempo": 120.0
            },
            {
                "start_time": 9.727272727272727,
                "end_time": 9.811363636363636,
                "pitch": 38,
                "velocity": 64,
                "duration": 0.084090909090909,
                "tempo": 120.0
            },
            {
                "start_time": 9.827272727272726,
                "end_time": 10.013636363636364,
                "pitch": 38,
                "velocity": 64,
                "duration": 0.1863636363636374,
                "tempo": 120.0
            },
            {
                "start_time": 10.029545454545454,
                "end_time": 10.213636363636363,
                "pitch": 41,
                "velocity": 64,
                "duration": 0.18409090909090864,
                "tempo": 120.0
            },
            {
                "start_time": 10.23181818181818,
                "end_time": 10.415909090909091,
                "pitch": 40,
                "velocity": 64,
                "duration": 0.18409090909091042,
                "tempo": 120.0
            },
            {
                "start_time": 10.431818181818182,
                "end_time": 10.51590909090909,
                "pitch": 38,
                "velocity": 64,
                "duration": 0.084090909090909,
                "tempo": 120.0
            },
            {
                "start_time": 10.534090909090908,
                "end_time": 10.61590909090909,
                "pitch": 37,
                "velocity": 64,
                "duration": 0.08181818181818201,
                "tempo": 120.0
            },
            {
                "start_time": 10.634090909090908,
                "end_time": 10.818181818181818,
                "pitch": 38,
                "velocity": 64,
                "duration": 0.18409090909091042,
                "tempo": 120.0
            },
            {
                "start_time": 10.834090909090909,
                "end_time": 11.020454545454545,
                "pitch": 44,
                "velocity": 64,
                "duration": 0.18636363636363562,
                "tempo": 120.0
            },
            {
                "start_time": 11.036363636363635,
                "end_time": 11.220454545454546,
                "pitch": 43,
                "velocity": 64,
                "duration": 0.18409090909091042,
                "tempo": 120.0
            },
            {
                "start_time": 11.238636363636363,
                "end_time": 11.320454545454545,
                "pitch": 38,
                "velocity": 64,
                "duration": 0.08181818181818201,
                "tempo": 120.0
            },
            {
                "start_time": 11.338636363636363,
                "end_time": 11.420454545454545,
                "pitch": 37,
                "velocity": 64,
                "duration": 0.08181818181818201,
                "tempo": 120.0
            },
            {
                "start_time": 11.438636363636363,
                "end_time": 11.620454545454544,
                "pitch": 38,
                "velocity": 64,
                "duration": 0.18181818181818166,
                "tempo": 120.0
            },
            {
                "start_time": 11.638636363636364,
                "end_time": 11.822727272727272,
                "pitch": 41,
                "velocity": 64,
                "duration": 0.18409090909090864,
                "tempo": 120.0
            },
            {
                "start_time": 11.838636363636363,
                "end_time": 12.022727272727272,
                "pitch": 40,
                "velocity": 64,
                "duration": 0.18409090909090864,
                "tempo": 120.0
            },
            {
                "start_time": 12.040909090909091,
                "end_time": 12.427272727272726,
                "pitch": 44,
                "velocity": 64,
                "duration": 0.3863636363636349,
                "tempo": 120.0
            },
            {
                "start_time": 12.443181818181818,
                "end_time": 12.829545454545453,
                "pitch": 43,
                "velocity": 64,
                "duration": 0.3863636363636349,
                "tempo": 120.0
            },
            {
                "start_time": 12.845454545454546,
                "end_time": 13.834090909090909,
                "pitch": 41,
                "velocity": 64,
                "duration": 0.9886363636363633,
                "tempo": 120.0
            },
            {
                "start_time": 13.85,
                "end_time": 14.034090909090908,
                "pitch": 40,
                "velocity": 64,
                "duration": 0.18409090909090864,
                "tempo": 120.0
            },
            {
                "start_time": 14.052272727272726,
                "end_time": 14.236363636363636,
                "pitch": 41,
                "velocity": 64,
                "duration": 0.18409090909091042,
                "tempo": 120.0
            },
            {
                "start_time": 14.252272727272727,
                "end_time": 14.436363636363636,
                "pitch": 40,
                "velocity": 64,
                "duration": 0.18409090909090864,
                "tempo": 120.0
            },
            {
                "start_time": 14.454545454545453,
                "end_time": 15.443181818181817,
                "pitch": 37,
                "velocity": 64,
                "duration": 0.9886363636363633,
                "tempo": 120.0
            },
            {
                "start_time": 15.459090909090909,
                "end_time": 15.643181818181818,
                "pitch": 36,
                "velocity": 64,
                "duration": 0.18409090909090864,
                "tempo": 120.0
            },
            {
                "start_time": 15.659090909090908,
                "end_time": 15.843181818181817,
                "pitch": 36,
                "velocity": 64,
                "duration": 0.18409090909090864,
                "tempo": 120.0
            },
            {
                "start_time": 15.861363636363636,
                "end_time": 16.045454545454543,
                "pitch": 37,
                "velocity": 64,
                "duration": 0.18409090909090686,
                "tempo": 120.0
            },
            {
                "start_time": 16.061363636363634,
                "end_time": 16.643181818181816,
                "pitch": 38,
                "velocity": 64,
                "duration": 0.581818181818182,
                "tempo": 120.0
            },
            {
                "start_time": 16.661363636363635,
                "end_time": 18.654545454545453,
                "pitch": 44,
                "velocity": 64,
                "duration": 1.9931818181818173,
                "tempo": 120.0
            },
            {
                "start_time": 18.670454545454543,
                "end_time": 18.854545454545455,
                "pitch": 36,
                "velocity": 64,
                "duration": 0.1840909090909122,
                "tempo": 120.0
            },
            {
                "start_time": 18.870454545454546,
                "end_time": 19.05,
                "pitch": 36,
                "velocity": 64,
                "duration": 0.17954545454545467,
                "tempo": 120.0
            },
            {
                "start_time": 19.06590909090909,
                "end_time": 19.245454545454546,
                "pitch": 37,
                "velocity": 64,
                "duration": 0.17954545454545467,
                "tempo": 120.0
            },
            {
                "start_time": 19.261363636363637,
                "end_time": 19.85681818181818,
                "pitch": 38,
                "velocity": 64,
                "duration": 0.5954545454545439,
                "tempo": 120.0
            },
            {
                "start_time": 19.875,
                "end_time": 21.85909090909091,
                "pitch": 34,
                "velocity": 64,
                "duration": 1.9840909090909093,
                "tempo": 120.0
            },
            {
                "start_time": 21.875,
                "end_time": 22.063636363636363,
                "pitch": 36,
                "velocity": 64,
                "duration": 0.1886363636363626,
                "tempo": 120.0
            },
            {
                "start_time": 22.081818181818182,
                "end_time": 22.263636363636362,
                "pitch": 36,
                "velocity": 64,
                "duration": 0.18181818181817988,
                "tempo": 120.0
            },
            {
                "start_time": 22.28181818181818,
                "end_time": 22.46363636363636,
                "pitch": 37,
                "velocity": 64,
                "duration": 0.18181818181817988,
                "tempo": 120.0
            },
            {
                "start_time": 22.48181818181818,
                "end_time": 23.06590909090909,
                "pitch": 38,
                "velocity": 64,
                "duration": 0.5840909090909108,
                "tempo": 120.0
            },
            {
                "start_time": 23.081818181818182,
                "end_time": 25.075,
                "pitch": 41,
                "velocity": 64,
                "duration": 1.9931818181818173,
                "tempo": 120.0
            },
            {
                "start_time": 25.09090909090909,
                "end_time": 25.275,
                "pitch": 40,
                "velocity": 64,
                "duration": 0.18409090909090864,
                "tempo": 120.0
            },
            {
                "start_time": 25.293181818181818,
                "end_time": 25.474999999999998,
                "pitch": 41,
                "velocity": 64,
                "duration": 0.18181818181817988,
                "tempo": 120.0
            },
            {
                "start_time": 25.493181818181817,
                "end_time": 25.674999999999997,
                "pitch": 43,
                "velocity": 64,
                "duration": 0.18181818181817988,
                "tempo": 120.0
            },
            {
                "start_time": 25.693181818181817,
                "end_time": 25.724999999999998,
                "pitch": 38,
                "velocity": 64,
                "duration": 0.0318181818181813,
                "tempo": 120.0
            }
        ],
        "Synth Bass 1": [
            {
                "start_time": 0.03409090909090909,
                "end_time": 0.1159090909090909,
                "pitch": 62,
                "velocity": 51,
                "duration": 0.08181818181818182,
                "tempo": 120.0
            },
            {
                "start_time": 0.1340909090909091,
                "end_time": 0.2159090909090909,
                "pitch": 61,
                "velocity": 51,
                "duration": 0.08181818181818182,
                "tempo": 120.0
            },
            {
                "start_time": 0.23409090909090907,
                "end_time": 0.4159090909090909,
                "pitch": 62,
                "velocity": 51,
                "duration": 0.18181818181818182,
                "tempo": 120.0
            },
            {
                "start_time": 0.4340909090909091,
                "end_time": 0.5159090909090909,
                "pitch": 65,
                "velocity": 51,
                "duration": 0.08181818181818179,
                "tempo": 120.0
            },
            {
                "start_time": 0.5340909090909091,
                "end_time": 0.6159090909090909,
                "pitch": 64,
                "velocity": 51,
                "duration": 0.08181818181818179,
                "tempo": 120.0
            },
            {
                "start_time": 0.634090909090909,
                "end_time": 0.8159090909090909,
                "pitch": 65,
                "velocity": 51,
                "duration": 0.18181818181818188,
                "tempo": 120.0
            },
            {
                "start_time": 0.8340909090909091,
                "end_time": 0.9159090909090909,
                "pitch": 68,
                "velocity": 51,
                "duration": 0.08181818181818179,
                "tempo": 120.0
            },
            {
                "start_time": 0.9340909090909091,
                "end_time": 1.0159090909090909,
                "pitch": 67,
                "velocity": 51,
                "duration": 0.08181818181818179,
                "tempo": 120.0
            },
            {
                "start_time": 1.034090909090909,
                "end_time": 1.2159090909090908,
                "pitch": 68,
                "velocity": 51,
                "duration": 0.18181818181818188,
                "tempo": 120.0
            },
            {
                "start_time": 1.2340909090909091,
                "end_time": 1.315909090909091,
                "pitch": 72,
                "velocity": 51,
                "duration": 0.08181818181818179,
                "tempo": 120.0
            },
            {
                "start_time": 1.334090909090909,
                "end_time": 1.4159090909090908,
                "pitch": 71,
                "velocity": 51,
                "duration": 0.08181818181818179,
                "tempo": 120.0
            },
            {
                "start_time": 1.434090909090909,
                "end_time": 1.6159090909090907,
                "pitch": 72,
                "velocity": 51,
                "duration": 0.18181818181818166,
                "tempo": 120.0
            },
            {
                "start_time": 1.634090909090909,
                "end_time": 2.620454545454545,
                "pitch": 77,
                "velocity": 51,
                "duration": 0.9863636363636361,
                "tempo": 120.0
            },
            {
                "start_time": 2.6363636363636362,
                "end_time": 2.8204545454545453,
                "pitch": 75,
                "velocity": 51,
                "duration": 0.18409090909090908,
                "tempo": 120.0
            },
            {
                "start_time": 2.8363636363636364,
                "end_time": 3.025,
                "pitch": 77,
                "velocity": 51,
                "duration": 0.1886363636363635,
                "tempo": 120.0
            },
            {
                "start_time": 3.043181818181818,
                "end_time": 3.2295454545454545,
                "pitch": 75,
                "velocity": 51,
                "duration": 0.1863636363636365,
                "tempo": 120.0
            },
            {
                "start_time": 3.245454545454545,
                "end_time": 3.327272727272727,
                "pitch": 75,
                "velocity": 51,
                "duration": 0.08181818181818201,
                "tempo": 120.0
            },
            {
                "start_time": 3.343181818181818,
                "end_time": 3.425,
                "pitch": 74,
                "velocity": 51,
                "duration": 0.08181818181818201,
                "tempo": 120.0
            },
            {
                "start_time": 3.443181818181818,
                "end_time": 4.825,
                "pitch": 72,
                "velocity": 51,
                "duration": 1.3818181818181823,
                "tempo": 120.0
            },
            {
                "start_time": 4.840909090909091,
                "end_time": 4.875,
                "pitch": 50,
                "velocity": 32,
                "duration": 0.03409090909090917,
                "tempo": 120.0
            },
            {
                "start_time": 4.875,
                "end_time": 4.909090909090909,
                "pitch": 47,
                "velocity": 32,
                "duration": 0.03409090909090917,
                "tempo": 120.0
            },
            {
                "start_time": 4.909090909090909,
                "end_time": 4.9409090909090905,
                "pitch": 43,
                "velocity": 32,
                "duration": 0.0318181818181813,
                "tempo": 120.0
            },
            {
                "start_time": 4.9409090909090905,
                "end_time": 4.975,
                "pitch": 50,
                "velocity": 32,
                "duration": 0.03409090909090917,
                "tempo": 120.0
            },
            {
                "start_time": 4.975,
                "end_time": 5.009090909090909,
                "pitch": 47,
                "velocity": 32,
                "duration": 0.03409090909090917,
                "tempo": 120.0
            },
            {
                "start_time": 5.009090909090909,
                "end_time": 5.040909090909091,
                "pitch": 43,
                "velocity": 32,
                "duration": 0.03181818181818219,
                "tempo": 120.0
            },
            {
                "start_time": 5.040909090909091,
                "end_time": 5.075,
                "pitch": 40,
                "velocity": 32,
                "duration": 0.03409090909090917,
                "tempo": 120.0
            },
            {
                "start_time": 5.075,
                "end_time": 5.1090909090909085,
                "pitch": 37,
                "velocity": 32,
                "duration": 0.034090909090908283,
                "tempo": 120.0
            },
            {
                "start_time": 5.1090909090909085,
                "end_time": 5.140909090909091,
                "pitch": 34,
                "velocity": 32,
                "duration": 0.03181818181818219,
                "tempo": 120.0
            },
            {
                "start_time": 5.140909090909091,
                "end_time": 5.159090909090909,
                "pitch": 47,
                "velocity": 32,
                "duration": 0.01818181818181852,
                "tempo": 120.0
            },
            {
                "start_time": 5.159090909090909,
                "end_time": 5.175,
                "pitch": 45,
                "velocity": 32,
                "duration": 0.01590909090909065,
                "tempo": 120.0
            },
            {
                "start_time": 5.175,
                "end_time": 5.209090909090909,
                "pitch": 43,
                "velocity": 32,
                "duration": 0.03409090909090917,
                "tempo": 120.0
            },
            {
                "start_time": 5.209090909090909,
                "end_time": 5.24090909090909,
                "pitch": 40,
                "velocity": 32,
                "duration": 0.0318181818181813,
                "tempo": 120.0
            },
            {
                "start_time": 5.24090909090909,
                "end_time": 5.259090909090909,
                "pitch": 47,
                "velocity": 32,
                "duration": 0.01818181818181852,
                "tempo": 120.0
            },
            {
                "start_time": 5.259090909090909,
                "end_time": 5.2749999999999995,
                "pitch": 45,
                "velocity": 32,
                "duration": 0.01590909090909065,
                "tempo": 120.0
            },
            {
                "start_time": 5.2749999999999995,
                "end_time": 5.309090909090909,
                "pitch": 43,
                "velocity": 32,
                "duration": 0.03409090909090917,
                "tempo": 120.0
            },
            {
                "start_time": 5.309090909090909,
                "end_time": 5.343181818181818,
                "pitch": 40,
                "velocity": 32,
                "duration": 0.03409090909090917,
                "tempo": 120.0
            },
            {
                "start_time": 5.343181818181818,
                "end_time": 5.375,
                "pitch": 50,
                "velocity": 32,
                "duration": 0.03181818181818219,
                "tempo": 120.0
            },
            {
                "start_time": 5.375,
                "end_time": 5.409090909090909,
                "pitch": 47,
                "velocity": 32,
                "duration": 0.03409090909090917,
                "tempo": 120.0
            },
            {
                "start_time": 5.409090909090909,
                "end_time": 5.443181818181818,
                "pitch": 43,
                "velocity": 32,
                "duration": 0.03409090909090917,
                "tempo": 120.0
            },
            {
                "start_time": 5.443181818181818,
                "end_time": 5.477272727272727,
                "pitch": 40,
                "velocity": 32,
                "duration": 0.034090909090908283,
                "tempo": 120.0
            },
            {
                "start_time": 5.477272727272727,
                "end_time": 5.509090909090909,
                "pitch": 37,
                "velocity": 32,
                "duration": 0.03181818181818219,
                "tempo": 120.0
            },
            {
                "start_time": 5.509090909090909,
                "end_time": 5.543181818181818,
                "pitch": 34,
                "velocity": 32,
                "duration": 0.03409090909090917,
                "tempo": 120.0
            },
            {
                "start_time": 5.543181818181818,
                "end_time": 5.5613636363636365,
                "pitch": 47,
                "velocity": 32,
                "duration": 0.01818181818181852,
                "tempo": 120.0
            },
            {
                "start_time": 5.5613636363636365,
                "end_time": 5.577272727272727,
                "pitch": 45,
                "velocity": 32,
                "duration": 0.01590909090909065,
                "tempo": 120.0
            },
            {
                "start_time": 5.577272727272727,
                "end_time": 5.611363636363636,
                "pitch": 43,
                "velocity": 32,
                "duration": 0.03409090909090917,
                "tempo": 120.0
            },
            {
                "start_time": 5.611363636363636,
                "end_time": 5.643181818181818,
                "pitch": 40,
                "velocity": 32,
                "duration": 0.0318181818181813,
                "tempo": 120.0
            },
            {
                "start_time": 5.643181818181818,
                "end_time": 5.677272727272727,
                "pitch": 50,
                "velocity": 32,
                "duration": 0.03409090909090917,
                "tempo": 120.0
            },
            {
                "start_time": 5.677272727272727,
                "end_time": 5.711363636363636,
                "pitch": 47,
                "velocity": 32,
                "duration": 0.03409090909090917,
                "tempo": 120.0
            },
            {
                "start_time": 5.711363636363636,
                "end_time": 5.743181818181818,
                "pitch": 43,
                "velocity": 32,
                "duration": 0.03181818181818219,
                "tempo": 120.0
            },
            {
                "start_time": 5.743181818181818,
                "end_time": 5.777272727272727,
                "pitch": 40,
                "velocity": 32,
                "duration": 0.03409090909090917,
                "tempo": 120.0
            },
            {
                "start_time": 5.777272727272727,
                "end_time": 5.8113636363636365,
                "pitch": 37,
                "velocity": 32,
                "duration": 0.03409090909090917,
                "tempo": 120.0
            },
            {
                "start_time": 5.8113636363636365,
                "end_time": 5.843181818181818,
                "pitch": 34,
                "velocity": 32,
                "duration": 0.0318181818181813,
                "tempo": 120.0
            },
            {
                "start_time": 5.843181818181818,
                "end_time": 5.861363636363636,
                "pitch": 47,
                "velocity": 32,
                "duration": 0.01818181818181852,
                "tempo": 120.0
            },
            {
                "start_time": 5.861363636363636,
                "end_time": 5.877272727272727,
                "pitch": 45,
                "velocity": 32,
                "duration": 0.01590909090909065,
                "tempo": 120.0
            },
            {
                "start_time": 5.877272727272727,
                "end_time": 5.911363636363636,
                "pitch": 43,
                "velocity": 32,
                "duration": 0.03409090909090917,
                "tempo": 120.0
            },
            {
                "start_time": 5.911363636363636,
                "end_time": 5.9431818181818175,
                "pitch": 40,
                "velocity": 32,
                "duration": 0.0318181818181813,
                "tempo": 120.0
            },
            {
                "start_time": 5.9431818181818175,
                "end_time": 5.961363636363636,
                "pitch": 47,
                "velocity": 32,
                "duration": 0.01818181818181852,
                "tempo": 120.0
            },
            {
                "start_time": 5.961363636363636,
                "end_time": 5.977272727272727,
                "pitch": 45,
                "velocity": 32,
                "duration": 0.01590909090909065,
                "tempo": 120.0
            },
            {
                "start_time": 5.977272727272727,
                "end_time": 6.011363636363636,
                "pitch": 43,
                "velocity": 32,
                "duration": 0.03409090909090917,
                "tempo": 120.0
            },
            {
                "start_time": 6.011363636363636,
                "end_time": 6.045454545454545,
                "pitch": 40,
                "velocity": 32,
                "duration": 0.03409090909090917,
                "tempo": 120.0
            },
            {
                "start_time": 6.045454545454545,
                "end_time": 6.077272727272727,
                "pitch": 50,
                "velocity": 32,
                "duration": 0.03181818181818219,
                "tempo": 120.0
            },
            {
                "start_time": 6.077272727272727,
                "end_time": 6.111363636363636,
                "pitch": 47,
                "velocity": 32,
                "duration": 0.03409090909090917,
                "tempo": 120.0
            },
            {
                "start_time": 6.111363636363636,
                "end_time": 6.1454545454545455,
                "pitch": 43,
                "velocity": 32,
                "duration": 0.03409090909090917,
                "tempo": 120.0
            },
            {
                "start_time": 6.1454545454545455,
                "end_time": 6.161363636363636,
                "pitch": 47,
                "velocity": 32,
                "duration": 0.01590909090909065,
                "tempo": 120.0
            },
            {
                "start_time": 6.161363636363636,
                "end_time": 6.179545454545455,
                "pitch": 45,
                "velocity": 32,
                "duration": 0.01818181818181852,
                "tempo": 120.0
            },
            {
                "start_time": 6.179545454545455,
                "end_time": 6.211363636363636,
                "pitch": 43,
                "velocity": 32,
                "duration": 0.0318181818181813,
                "tempo": 120.0
            },
            {
                "start_time": 6.211363636363636,
                "end_time": 6.245454545454545,
                "pitch": 40,
                "velocity": 32,
                "duration": 0.03409090909090917,
                "tempo": 120.0
            },
            {
                "start_time": 6.245454545454545,
                "end_time": 6.263636363636364,
                "pitch": 47,
                "velocity": 32,
                "duration": 0.01818181818181852,
                "tempo": 120.0
            },
            {
                "start_time": 6.263636363636364,
                "end_time": 6.279545454545454,
                "pitch": 45,
                "velocity": 32,
                "duration": 0.01590909090909065,
                "tempo": 120.0
            },
            {
                "start_time": 6.279545454545454,
                "end_time": 6.3136363636363635,
                "pitch": 43,
                "velocity": 32,
                "duration": 0.03409090909090917,
                "tempo": 120.0
            },
            {
                "start_time": 6.3136363636363635,
                "end_time": 6.345454545454545,
                "pitch": 40,
                "velocity": 32,
                "duration": 0.0318181818181813,
                "tempo": 120.0
            },
            {
                "start_time": 6.345454545454545,
                "end_time": 6.379545454545454,
                "pitch": 44,
                "velocity": 32,
                "duration": 0.03409090909090917,
                "tempo": 120.0
            },
            {
                "start_time": 6.379545454545454,
                "end_time": 6.447727272727272,
                "pitch": 43,
                "velocity": 32,
                "duration": 0.06818181818181834,
                "tempo": 120.0
            },
            {
                "start_time": 6.447727272727272,
                "end_time": 6.531818181818181,
                "pitch": 62,
                "velocity": 32,
                "duration": 0.084090909090909,
                "tempo": 120.0
            },
            {
                "start_time": 6.547727272727273,
                "end_time": 6.631818181818182,
                "pitch": 61,
                "velocity": 51,
                "duration": 0.084090909090909,
                "tempo": 120.0
            },
            {
                "start_time": 6.6477272727272725,
                "end_time": 6.831818181818181,
                "pitch": 62,
                "velocity": 51,
                "duration": 0.18409090909090864,
                "tempo": 120.0
            },
            {
                "start_time": 6.85,
                "end_time": 6.931818181818182,
                "pitch": 65,
                "velocity": 51,
                "duration": 0.08181818181818201,
                "tempo": 120.0
            },
            {
                "start_time": 6.949999999999999,
                "end_time": 7.031818181818181,
                "pitch": 64,
                "velocity": 51,
                "duration": 0.08181818181818201,
                "tempo": 120.0
            },
            {
                "start_time": 7.05,
                "end_time": 7.2340909090909085,
                "pitch": 65,
                "velocity": 51,
                "duration": 0.18409090909090864,
                "tempo": 120.0
            },
            {
                "start_time": 7.25,
                "end_time": 7.334090909090909,
                "pitch": 68,
                "velocity": 51,
                "duration": 0.084090909090909,
                "tempo": 120.0
            },
            {
                "start_time": 7.35,
                "end_time": 7.434090909090909,
                "pitch": 67,
                "velocity": 51,
                "duration": 0.084090909090909,
                "tempo": 120.0
            },
            {
                "start_time": 7.452272727272727,
                "end_time": 7.636363636363636,
                "pitch": 68,
                "velocity": 51,
                "duration": 0.18409090909090864,
                "tempo": 120.0
            },
            {
                "start_time": 7.652272727272727,
                "end_time": 7.736363636363636,
                "pitch": 72,
                "velocity": 51,
                "duration": 0.084090909090909,
                "tempo": 120.0
            },
            {
                "start_time": 7.752272727272727,
                "end_time": 7.836363636363636,
                "pitch": 71,
                "velocity": 51,
                "duration": 0.084090909090909,
                "tempo": 120.0
            },
            {
                "start_time": 7.852272727272727,
                "end_time": 8.036363636363635,
                "pitch": 72,
                "velocity": 51,
                "duration": 0.18409090909090864,
                "tempo": 120.0
            },
            {
                "start_time": 8.052272727272728,
                "end_time": 9.043181818181818,
                "pitch": 77,
                "velocity": 51,
                "duration": 0.9909090909090903,
                "tempo": 120.0
            },
            {
                "start_time": 9.059090909090909,
                "end_time": 9.243181818181817,
                "pitch": 75,
                "velocity": 51,
                "duration": 0.18409090909090864,
                "tempo": 120.0
            },
            {
                "start_time": 9.261363636363637,
                "end_time": 9.443181818181818,
                "pitch": 77,
                "velocity": 51,
                "duration": 0.18181818181818166,
                "tempo": 120.0
            },
            {
                "start_time": 9.461363636363636,
                "end_time": 9.643181818181818,
                "pitch": 75,
                "velocity": 51,
                "duration": 0.18181818181818166,
                "tempo": 120.0
            },
            {
                "start_time": 9.661363636363635,
                "end_time": 9.745454545454544,
                "pitch": 74,
                "velocity": 51,
                "duration": 0.084090909090909,
                "tempo": 120.0
            },
            {
                "start_time": 9.761363636363637,
                "end_time": 9.845454545454546,
                "pitch": 75,
                "velocity": 51,
                "duration": 0.084090909090909,
                "tempo": 120.0
            },
            {
                "start_time": 9.861363636363636,
                "end_time": 9.945454545454545,
                "pitch": 77,
                "velocity": 51,
                "duration": 0.084090909090909,
                "tempo": 120.0
            },
            {
                "start_time": 9.963636363636363,
                "end_time": 11.052272727272726,
                "pitch": 72,
                "velocity": 51,
                "duration": 1.088636363636363,
                "tempo": 120.0
            },
            {
                "start_time": 11.070454545454545,
                "end_time": 11.154545454545454,
                "pitch": 80,
                "velocity": 51,
                "duration": 0.084090909090909,
                "tempo": 120.0
            },
            {
                "start_time": 11.170454545454545,
                "end_time": 11.254545454545454,
                "pitch": 79,
                "velocity": 51,
                "duration": 0.084090909090909,
                "tempo": 120.0
            },
            {
                "start_time": 11.270454545454545,
                "end_time": 12.056818181818182,
                "pitch": 77,
                "velocity": 51,
                "duration": 0.786363636363637,
                "tempo": 120.0
            },
            {
                "start_time": 12.075,
                "end_time": 12.10681818181818,
                "pitch": 50,
                "velocity": 32,
                "duration": 0.0318181818181813,
                "tempo": 120.0
            },
            {
                "start_time": 12.10681818181818,
                "end_time": 12.14090909090909,
                "pitch": 47,
                "velocity": 32,
                "duration": 0.03409090909091006,
                "tempo": 120.0
            },
            {
                "start_time": 12.14090909090909,
                "end_time": 12.174999999999999,
                "pitch": 43,
                "velocity": 32,
                "duration": 0.034090909090908283,
                "tempo": 120.0
            },
            {
                "start_time": 12.174999999999999,
                "end_time": 12.209090909090909,
                "pitch": 40,
                "velocity": 32,
                "duration": 0.03409090909091006,
                "tempo": 120.0
            },
            {
                "start_time": 12.209090909090909,
                "end_time": 12.24090909090909,
                "pitch": 37,
                "velocity": 32,
                "duration": 0.0318181818181813,
                "tempo": 120.0
            },
            {
                "start_time": 12.24090909090909,
                "end_time": 12.274999999999999,
                "pitch": 34,
                "velocity": 32,
                "duration": 0.034090909090908283,
                "tempo": 120.0
            },
            {
                "start_time": 12.274999999999999,
                "end_time": 12.293181818181818,
                "pitch": 47,
                "velocity": 32,
                "duration": 0.01818181818181941,
                "tempo": 120.0
            },
            {
                "start_time": 12.293181818181818,
                "end_time": 12.309090909090909,
                "pitch": 45,
                "velocity": 32,
                "duration": 0.01590909090909065,
                "tempo": 120.0
            },
            {
                "start_time": 12.309090909090909,
                "end_time": 12.343181818181817,
                "pitch": 43,
                "velocity": 32,
                "duration": 0.034090909090908283,
                "tempo": 120.0
            },
            {
                "start_time": 12.343181818181817,
                "end_time": 12.375,
                "pitch": 40,
                "velocity": 32,
                "duration": 0.03181818181818308,
                "tempo": 120.0
            },
            {
                "start_time": 12.375,
                "end_time": 12.393181818181818,
                "pitch": 47,
                "velocity": 32,
                "duration": 0.018181818181817633,
                "tempo": 120.0
            },
            {
                "start_time": 12.393181818181818,
                "end_time": 12.409090909090908,
                "pitch": 45,
                "velocity": 32,
                "duration": 0.01590909090909065,
                "tempo": 120.0
            },
            {
                "start_time": 12.409090909090908,
                "end_time": 12.443181818181818,
                "pitch": 43,
                "velocity": 32,
                "duration": 0.03409090909091006,
                "tempo": 120.0
            },
            {
                "start_time": 12.443181818181818,
                "end_time": 12.477272727272727,
                "pitch": 40,
                "velocity": 32,
                "duration": 0.034090909090908283,
                "tempo": 120.0
            },
            {
                "start_time": 12.477272727272727,
                "end_time": 12.511363636363635,
                "pitch": 50,
                "velocity": 32,
                "duration": 0.034090909090908283,
                "tempo": 120.0
            },
            {
                "start_time": 12.511363636363635,
                "end_time": 12.543181818181818,
                "pitch": 47,
                "velocity": 32,
                "duration": 0.03181818181818308,
                "tempo": 120.0
            },
            {
                "start_time": 12.543181818181818,
                "end_time": 12.577272727272726,
                "pitch": 43,
                "velocity": 32,
                "duration": 0.034090909090908283,
                "tempo": 120.0
            },
            {
                "start_time": 12.577272727272726,
                "end_time": 12.611363636363636,
                "pitch": 50,
                "velocity": 32,
                "duration": 0.03409090909091006,
                "tempo": 120.0
            },
            {
                "start_time": 12.611363636363636,
                "end_time": 12.645454545454545,
                "pitch": 47,
                "velocity": 32,
                "duration": 0.034090909090908283,
                "tempo": 120.0
            },
            {
                "start_time": 12.645454545454545,
                "end_time": 12.677272727272726,
                "pitch": 43,
                "velocity": 32,
                "duration": 0.0318181818181813,
                "tempo": 120.0
            },
            {
                "start_time": 12.677272727272726,
                "end_time": 12.695454545454545,
                "pitch": 47,
                "velocity": 32,
                "duration": 0.01818181818181941,
                "tempo": 120.0
            },
            {
                "start_time": 12.695454545454545,
                "end_time": 12.711363636363636,
                "pitch": 45,
                "velocity": 32,
                "duration": 0.01590909090909065,
                "tempo": 120.0
            },
            {
                "start_time": 12.711363636363636,
                "end_time": 12.745454545454544,
                "pitch": 43,
                "velocity": 32,
                "duration": 0.034090909090908283,
                "tempo": 120.0
            },
            {
                "start_time": 12.745454545454544,
                "end_time": 12.779545454545454,
                "pitch": 40,
                "velocity": 32,
                "duration": 0.03409090909091006,
                "tempo": 120.0
            },
            {
                "start_time": 12.779545454545454,
                "end_time": 12.811363636363636,
                "pitch": 44,
                "velocity": 32,
                "duration": 0.0318181818181813,
                "tempo": 120.0
            },
            {
                "start_time": 12.811363636363636,
                "end_time": 12.879545454545454,
                "pitch": 43,
                "velocity": 32,
                "duration": 0.06818181818181834,
                "tempo": 120.0
            },
            {
                "start_time": 12.879545454545454,
                "end_time": 12.963636363636363,
                "pitch": 65,
                "velocity": 32,
                "duration": 0.084090909090909,
                "tempo": 120.0
            },
            {
                "start_time": 13.48181818181818,
                "end_time": 14.470454545454544,
                "pitch": 68,
                "velocity": 51,
                "duration": 0.9886363636363633,
                "tempo": 120.0
            },
            {
                "start_time": 14.486363636363636,
                "end_time": 14.570454545454545,
                "pitch": 67,
                "velocity": 51,
                "duration": 0.084090909090909,
                "tempo": 120.0
            },
            {
                "start_time": 15.09090909090909,
                "end_time": 16.079545454545453,
                "pitch": 65,
                "velocity": 51,
                "duration": 0.9886363636363633,
                "tempo": 120.0
            },
            {
                "start_time": 16.095454545454544,
                "end_time": 16.677272727272726,
                "pitch": 64,
                "velocity": 51,
                "duration": 0.581818181818182,
                "tempo": 120.0
            },
            {
                "start_time": 16.693181818181817,
                "end_time": 17.68409090909091,
                "pitch": 61,
                "velocity": 51,
                "duration": 0.9909090909090921,
                "tempo": 120.0
            },
            {
                "start_time": 17.7,
                "end_time": 17.71818181818182,
                "pitch": 47,
                "velocity": 32,
                "duration": 0.01818181818181941,
                "tempo": 120.0
            },
            {
                "start_time": 17.71818181818182,
                "end_time": 17.73409090909091,
                "pitch": 45,
                "velocity": 32,
                "duration": 0.01590909090909065,
                "tempo": 120.0
            },
            {
                "start_time": 17.73409090909091,
                "end_time": 17.768181818181816,
                "pitch": 43,
                "velocity": 32,
                "duration": 0.03409090909090651,
                "tempo": 120.0
            },
            {
                "start_time": 17.768181818181816,
                "end_time": 17.802272727272726,
                "pitch": 40,
                "velocity": 32,
                "duration": 0.03409090909091006,
                "tempo": 120.0
            },
            {
                "start_time": 17.802272727272726,
                "end_time": 17.836363636363636,
                "pitch": 37,
                "velocity": 32,
                "duration": 0.03409090909091006,
                "tempo": 120.0
            },
            {
                "start_time": 17.836363636363636,
                "end_time": 17.852272727272727,
                "pitch": 33,
                "velocity": 32,
                "duration": 0.01590909090909065,
                "tempo": 120.0
            },
            {
                "start_time": 17.852272727272727,
                "end_time": 17.886363636363637,
                "pitch": 31,
                "velocity": 32,
                "duration": 0.03409090909091006,
                "tempo": 120.0
            },
            {
                "start_time": 17.886363636363637,
                "end_time": 17.902272727272727,
                "pitch": 28,
                "velocity": 32,
                "duration": 0.01590909090909065,
                "tempo": 120.0
            },
            {
                "start_time": 17.902272727272727,
                "end_time": 17.936363636363634,
                "pitch": 50,
                "velocity": 32,
                "duration": 0.03409090909090651,
                "tempo": 120.0
            },
            {
                "start_time": 17.936363636363634,
                "end_time": 17.970454545454544,
                "pitch": 47,
                "velocity": 32,
                "duration": 0.03409090909091006,
                "tempo": 120.0
            },
            {
                "start_time": 17.970454545454544,
                "end_time": 18.002272727272725,
                "pitch": 43,
                "velocity": 32,
                "duration": 0.0318181818181813,
                "tempo": 120.0
            },
            {
                "start_time": 18.002272727272725,
                "end_time": 18.036363636363635,
                "pitch": 40,
                "velocity": 32,
                "duration": 0.03409090909091006,
                "tempo": 120.0
            },
            {
                "start_time": 18.036363636363635,
                "end_time": 18.070454545454545,
                "pitch": 37,
                "velocity": 32,
                "duration": 0.03409090909091006,
                "tempo": 120.0
            },
            {
                "start_time": 18.070454545454545,
                "end_time": 18.104545454545455,
                "pitch": 34,
                "velocity": 32,
                "duration": 0.03409090909091006,
                "tempo": 120.0
            },
            {
                "start_time": 18.104545454545455,
                "end_time": 18.136363636363637,
                "pitch": 50,
                "velocity": 32,
                "duration": 0.0318181818181813,
                "tempo": 120.0
            },
            {
                "start_time": 18.136363636363637,
                "end_time": 18.170454545454543,
                "pitch": 47,
                "velocity": 32,
                "duration": 0.03409090909090651,
                "tempo": 120.0
            },
            {
                "start_time": 18.170454545454543,
                "end_time": 18.204545454545453,
                "pitch": 43,
                "velocity": 32,
                "duration": 0.03409090909091006,
                "tempo": 120.0
            },
            {
                "start_time": 18.204545454545453,
                "end_time": 18.236363636363635,
                "pitch": 40,
                "velocity": 32,
                "duration": 0.0318181818181813,
                "tempo": 120.0
            },
            {
                "start_time": 18.236363636363635,
                "end_time": 18.270454545454545,
                "pitch": 37,
                "velocity": 32,
                "duration": 0.03409090909091006,
                "tempo": 120.0
            },
            {
                "start_time": 18.270454545454545,
                "end_time": 18.304545454545455,
                "pitch": 34,
                "velocity": 32,
                "duration": 0.03409090909091006,
                "tempo": 120.0
            },
            {
                "start_time": 18.304545454545455,
                "end_time": 18.320454545454545,
                "pitch": 47,
                "velocity": 32,
                "duration": 0.01590909090909065,
                "tempo": 120.0
            },
            {
                "start_time": 18.320454545454545,
                "end_time": 18.336363636363636,
                "pitch": 45,
                "velocity": 32,
                "duration": 0.01590909090909065,
                "tempo": 120.0
            },
            {
                "start_time": 18.336363636363636,
                "end_time": 18.370454545454546,
                "pitch": 43,
                "velocity": 32,
                "duration": 0.03409090909091006,
                "tempo": 120.0
            },
            {
                "start_time": 18.370454545454546,
                "end_time": 18.404545454545453,
                "pitch": 40,
                "velocity": 32,
                "duration": 0.03409090909090651,
                "tempo": 120.0
            },
            {
                "start_time": 18.404545454545453,
                "end_time": 18.436363636363634,
                "pitch": 37,
                "velocity": 32,
                "duration": 0.0318181818181813,
                "tempo": 120.0
            },
            {
                "start_time": 18.436363636363634,
                "end_time": 18.454545454545453,
                "pitch": 33,
                "velocity": 32,
                "duration": 0.01818181818181941,
                "tempo": 120.0
            },
            {
                "start_time": 18.454545454545453,
                "end_time": 18.486363636363635,
                "pitch": 31,
                "velocity": 32,
                "duration": 0.0318181818181813,
                "tempo": 120.0
            },
            {
                "start_time": 18.486363636363635,
                "end_time": 18.504545454545454,
                "pitch": 28,
                "velocity": 32,
                "duration": 0.01818181818181941,
                "tempo": 120.0
            },
            {
                "start_time": 18.504545454545454,
                "end_time": 18.536363636363635,
                "pitch": 50,
                "velocity": 32,
                "duration": 0.0318181818181813,
                "tempo": 120.0
            },
            {
                "start_time": 18.536363636363635,
                "end_time": 18.570454545454545,
                "pitch": 47,
                "velocity": 32,
                "duration": 0.03409090909091006,
                "tempo": 120.0
            },
            {
                "start_time": 18.570454545454545,
                "end_time": 18.604545454545455,
                "pitch": 43,
                "velocity": 32,
                "duration": 0.03409090909091006,
                "tempo": 120.0
            },
            {
                "start_time": 18.604545454545455,
                "end_time": 18.636363636363637,
                "pitch": 40,
                "velocity": 32,
                "duration": 0.0318181818181813,
                "tempo": 120.0
            },
            {
                "start_time": 18.636363636363637,
                "end_time": 18.670454545454543,
                "pitch": 37,
                "velocity": 32,
                "duration": 0.03409090909090651,
                "tempo": 120.0
            },
            {
                "start_time": 18.670454545454543,
                "end_time": 18.704545454545453,
                "pitch": 34,
                "velocity": 32,
                "duration": 0.03409090909091006,
                "tempo": 120.0
            },
            {
                "start_time": 18.704545454545453,
                "end_time": 18.736363636363635,
                "pitch": 50,
                "velocity": 32,
                "duration": 0.0318181818181813,
                "tempo": 120.0
            },
            {
                "start_time": 18.736363636363635,
                "end_time": 18.770454545454545,
                "pitch": 47,
                "velocity": 32,
                "duration": 0.03409090909091006,
                "tempo": 120.0
            },
            {
                "start_time": 18.770454545454545,
                "end_time": 18.804545454545455,
                "pitch": 43,
                "velocity": 32,
                "duration": 0.03409090909091006,
                "tempo": 120.0
            },
            {
                "start_time": 18.804545454545455,
                "end_time": 18.836363636363636,
                "pitch": 40,
                "velocity": 32,
                "duration": 0.0318181818181813,
                "tempo": 120.0
            },
            {
                "start_time": 18.836363636363636,
                "end_time": 18.870454545454546,
                "pitch": 37,
                "velocity": 32,
                "duration": 0.03409090909091006,
                "tempo": 120.0
            },
            {
                "start_time": 18.870454545454546,
                "end_time": 18.902272727272727,
                "pitch": 34,
                "velocity": 32,
                "duration": 0.0318181818181813,
                "tempo": 120.0
            },
            {
                "start_time": 18.902272727272727,
                "end_time": 18.918181818181818,
                "pitch": 47,
                "velocity": 32,
                "duration": 0.01590909090909065,
                "tempo": 120.0
            },
            {
                "start_time": 18.918181818181818,
                "end_time": 18.936363636363634,
                "pitch": 45,
                "velocity": 32,
                "duration": 0.018181818181815856,
                "tempo": 120.0
            },
            {
                "start_time": 18.936363636363634,
                "end_time": 18.96818181818182,
                "pitch": 43,
                "velocity": 32,
                "duration": 0.031818181818184854,
                "tempo": 120.0
            },
            {
                "start_time": 18.96818181818182,
                "end_time": 19.0,
                "pitch": 40,
                "velocity": 32,
                "duration": 0.0318181818181813,
                "tempo": 120.0
            },
            {
                "start_time": 19.0,
                "end_time": 19.034090909090907,
                "pitch": 37,
                "velocity": 32,
                "duration": 0.03409090909090651,
                "tempo": 120.0
            },
            {
                "start_time": 19.034090909090907,
                "end_time": 19.05,
                "pitch": 33,
                "velocity": 32,
                "duration": 0.015909090909094203,
                "tempo": 120.0
            },
            {
                "start_time": 19.05,
                "end_time": 19.081818181818182,
                "pitch": 31,
                "velocity": 32,
                "duration": 0.0318181818181813,
                "tempo": 120.0
            },
            {
                "start_time": 19.081818181818182,
                "end_time": 19.097727272727273,
                "pitch": 28,
                "velocity": 32,
                "duration": 0.01590909090909065,
                "tempo": 120.0
            },
            {
                "start_time": 19.097727272727273,
                "end_time": 19.13181818181818,
                "pitch": 44,
                "velocity": 32,
                "duration": 0.03409090909090651,
                "tempo": 120.0
            },
            {
                "start_time": 19.13181818181818,
                "end_time": 19.229545454545455,
                "pitch": 43,
                "velocity": 32,
                "duration": 0.09772727272727622,
                "tempo": 120.0
            },
            {
                "start_time": 19.229545454545455,
                "end_time": 19.295454545454543,
                "pitch": 41,
                "velocity": 32,
                "duration": 0.06590909090908781,
                "tempo": 120.0
            },
            {
                "start_time": 19.295454545454543,
                "end_time": 19.38181818181818,
                "pitch": 65,
                "velocity": 32,
                "duration": 0.08636363636363598,
                "tempo": 120.0
            },
            {
                "start_time": 19.90681818181818,
                "end_time": 20.893181818181816,
                "pitch": 68,
                "velocity": 51,
                "duration": 0.9863636363636346,
                "tempo": 120.0
            },
            {
                "start_time": 20.909090909090907,
                "end_time": 20.993181818181817,
                "pitch": 67,
                "velocity": 51,
                "duration": 0.08409090909091077,
                "tempo": 120.0
            },
            {
                "start_time": 21.50681818181818,
                "end_time": 22.49772727272727,
                "pitch": 65,
                "velocity": 51,
                "duration": 0.9909090909090921,
                "tempo": 120.0
            },
            {
                "start_time": 22.513636363636362,
                "end_time": 23.099999999999998,
                "pitch": 64,
                "velocity": 51,
                "duration": 0.586363636363636,
                "tempo": 120.0
            },
            {
                "start_time": 23.11590909090909,
                "end_time": 24.102272727272727,
                "pitch": 61,
                "velocity": 51,
                "duration": 0.9863636363636381,
                "tempo": 120.0
            },
            {
                "start_time": 24.118181818181817,
                "end_time": 24.152272727272727,
                "pitch": 50,
                "velocity": 32,
                "duration": 0.03409090909091006,
                "tempo": 120.0
            },
            {
                "start_time": 24.152272727272727,
                "end_time": 24.18409090909091,
                "pitch": 47,
                "velocity": 32,
                "duration": 0.0318181818181813,
                "tempo": 120.0
            },
            {
                "start_time": 24.18409090909091,
                "end_time": 24.21818181818182,
                "pitch": 43,
                "velocity": 32,
                "duration": 0.03409090909091006,
                "tempo": 120.0
            },
            {
                "start_time": 24.21818181818182,
                "end_time": 24.25,
                "pitch": 50,
                "velocity": 32,
                "duration": 0.0318181818181813,
                "tempo": 120.0
            },
            {
                "start_time": 24.25,
                "end_time": 24.28181818181818,
                "pitch": 47,
                "velocity": 32,
                "duration": 0.0318181818181813,
                "tempo": 120.0
            },
            {
                "start_time": 24.28181818181818,
                "end_time": 24.31590909090909,
                "pitch": 43,
                "velocity": 32,
                "duration": 0.03409090909091006,
                "tempo": 120.0
            },
            {
                "start_time": 24.31590909090909,
                "end_time": 24.331818181818182,
                "pitch": 47,
                "velocity": 32,
                "duration": 0.01590909090909065,
                "tempo": 120.0
            },
            {
                "start_time": 24.331818181818182,
                "end_time": 24.347727272727273,
                "pitch": 45,
                "velocity": 32,
                "duration": 0.01590909090909065,
                "tempo": 120.0
            },
            {
                "start_time": 24.347727272727273,
                "end_time": 24.379545454545454,
                "pitch": 43,
                "velocity": 32,
                "duration": 0.0318181818181813,
                "tempo": 120.0
            },
            {
                "start_time": 24.379545454545454,
                "end_time": 24.413636363636364,
                "pitch": 40,
                "velocity": 32,
                "duration": 0.03409090909091006,
                "tempo": 120.0
            },
            {
                "start_time": 24.413636363636364,
                "end_time": 24.445454545454545,
                "pitch": 37,
                "velocity": 32,
                "duration": 0.0318181818181813,
                "tempo": 120.0
            },
            {
                "start_time": 24.445454545454545,
                "end_time": 24.461363636363636,
                "pitch": 33,
                "velocity": 32,
                "duration": 0.01590909090909065,
                "tempo": 120.0
            },
            {
                "start_time": 24.461363636363636,
                "end_time": 24.495454545454546,
                "pitch": 31,
                "velocity": 32,
                "duration": 0.03409090909091006,
                "tempo": 120.0
            },
            {
                "start_time": 24.495454545454546,
                "end_time": 24.513636363636362,
                "pitch": 28,
                "velocity": 32,
                "duration": 0.018181818181815856,
                "tempo": 120.0
            },
            {
                "start_time": 24.513636363636362,
                "end_time": 24.547727272727272,
                "pitch": 50,
                "velocity": 32,
                "duration": 0.03409090909091006,
                "tempo": 120.0
            },
            {
                "start_time": 24.547727272727272,
                "end_time": 24.581818181818182,
                "pitch": 47,
                "velocity": 32,
                "duration": 0.03409090909091006,
                "tempo": 120.0
            },
            {
                "start_time": 24.581818181818182,
                "end_time": 24.61590909090909,
                "pitch": 43,
                "velocity": 32,
                "duration": 0.03409090909090651,
                "tempo": 120.0
            },
            {
                "start_time": 24.61590909090909,
                "end_time": 24.65,
                "pitch": 50,
                "velocity": 32,
                "duration": 0.03409090909091006,
                "tempo": 120.0
            },
            {
                "start_time": 24.65,
                "end_time": 24.68409090909091,
                "pitch": 47,
                "velocity": 32,
                "duration": 0.03409090909091006,
                "tempo": 120.0
            },
            {
                "start_time": 24.68409090909091,
                "end_time": 24.71818181818182,
                "pitch": 43,
                "velocity": 32,
                "duration": 0.03409090909091006,
                "tempo": 120.0
            },
            {
                "start_time": 24.71818181818182,
                "end_time": 24.736363636363635,
                "pitch": 47,
                "velocity": 32,
                "duration": 0.018181818181815856,
                "tempo": 120.0
            },
            {
                "start_time": 24.736363636363635,
                "end_time": 24.752272727272725,
                "pitch": 45,
                "velocity": 32,
                "duration": 0.01590909090909065,
                "tempo": 120.0
            },
            {
                "start_time": 24.752272727272725,
                "end_time": 24.786363636363635,
                "pitch": 43,
                "velocity": 32,
                "duration": 0.03409090909091006,
                "tempo": 120.0
            },
            {
                "start_time": 24.786363636363635,
                "end_time": 24.820454545454545,
                "pitch": 40,
                "velocity": 32,
                "duration": 0.03409090909091006,
                "tempo": 120.0
            },
            {
                "start_time": 24.820454545454545,
                "end_time": 24.854545454545452,
                "pitch": 37,
                "velocity": 32,
                "duration": 0.03409090909090651,
                "tempo": 120.0
            },
            {
                "start_time": 24.854545454545452,
                "end_time": 24.87272727272727,
                "pitch": 33,
                "velocity": 32,
                "duration": 0.01818181818181941,
                "tempo": 120.0
            },
            {
                "start_time": 24.87272727272727,
                "end_time": 24.90681818181818,
                "pitch": 31,
                "velocity": 32,
                "duration": 0.03409090909091006,
                "tempo": 120.0
            },
            {
                "start_time": 24.90681818181818,
                "end_time": 24.922727272727272,
                "pitch": 28,
                "velocity": 32,
                "duration": 0.01590909090909065,
                "tempo": 120.0
            },
            {
                "start_time": 24.922727272727272,
                "end_time": 24.956818181818182,
                "pitch": 50,
                "velocity": 32,
                "duration": 0.03409090909091006,
                "tempo": 120.0
            },
            {
                "start_time": 24.956818181818182,
                "end_time": 24.99090909090909,
                "pitch": 47,
                "velocity": 32,
                "duration": 0.03409090909090651,
                "tempo": 120.0
            },
            {
                "start_time": 24.99090909090909,
                "end_time": 25.02272727272727,
                "pitch": 43,
                "velocity": 32,
                "duration": 0.0318181818181813,
                "tempo": 120.0
            },
            {
                "start_time": 25.02272727272727,
                "end_time": 25.05681818181818,
                "pitch": 50,
                "velocity": 32,
                "duration": 0.03409090909091006,
                "tempo": 120.0
            },
            {
                "start_time": 25.05681818181818,
                "end_time": 25.09090909090909,
                "pitch": 47,
                "velocity": 32,
                "duration": 0.03409090909091006,
                "tempo": 120.0
            },
            {
                "start_time": 25.09090909090909,
                "end_time": 25.125,
                "pitch": 43,
                "velocity": 32,
                "duration": 0.03409090909091006,
                "tempo": 120.0
            },
            {
                "start_time": 25.125,
                "end_time": 25.159090909090907,
                "pitch": 50,
                "velocity": 32,
                "duration": 0.03409090909090651,
                "tempo": 120.0
            },
            {
                "start_time": 25.159090909090907,
                "end_time": 25.19090909090909,
                "pitch": 47,
                "velocity": 32,
                "duration": 0.031818181818184854,
                "tempo": 120.0
            },
            {
                "start_time": 25.19090909090909,
                "end_time": 25.224999999999998,
                "pitch": 43,
                "velocity": 32,
                "duration": 0.03409090909090651,
                "tempo": 120.0
            },
            {
                "start_time": 25.224999999999998,
                "end_time": 25.24090909090909,
                "pitch": 47,
                "velocity": 32,
                "duration": 0.01590909090909065,
                "tempo": 120.0
            },
            {
                "start_time": 25.24090909090909,
                "end_time": 25.259090909090908,
                "pitch": 45,
                "velocity": 32,
                "duration": 0.01818181818181941,
                "tempo": 120.0
            },
            {
                "start_time": 25.259090909090908,
                "end_time": 25.293181818181818,
                "pitch": 43,
                "velocity": 32,
                "duration": 0.03409090909091006,
                "tempo": 120.0
            },
            {
                "start_time": 25.293181818181818,
                "end_time": 25.325,
                "pitch": 40,
                "velocity": 32,
                "duration": 0.0318181818181813,
                "tempo": 120.0
            },
            {
                "start_time": 25.325,
                "end_time": 25.34318181818182,
                "pitch": 47,
                "velocity": 32,
                "duration": 0.01818181818181941,
                "tempo": 120.0
            },
            {
                "start_time": 25.34318181818182,
                "end_time": 25.35909090909091,
                "pitch": 45,
                "velocity": 32,
                "duration": 0.01590909090909065,
                "tempo": 120.0
            },
            {
                "start_time": 25.35909090909091,
                "end_time": 25.393181818181816,
                "pitch": 43,
                "velocity": 32,
                "duration": 0.03409090909090651,
                "tempo": 120.0
            },
            {
                "start_time": 25.393181818181816,
                "end_time": 25.424999999999997,
                "pitch": 40,
                "velocity": 32,
                "duration": 0.0318181818181813,
                "tempo": 120.0
            },
            {
                "start_time": 25.424999999999997,
                "end_time": 25.443181818181817,
                "pitch": 47,
                "velocity": 32,
                "duration": 0.01818181818181941,
                "tempo": 120.0
            },
            {
                "start_time": 25.443181818181817,
                "end_time": 25.459090909090907,
                "pitch": 45,
                "velocity": 32,
                "duration": 0.01590909090909065,
                "tempo": 120.0
            },
            {
                "start_time": 25.459090909090907,
                "end_time": 25.493181818181817,
                "pitch": 43,
                "velocity": 32,
                "duration": 0.03409090909091006,
                "tempo": 120.0
            },
            {
                "start_time": 25.493181818181817,
                "end_time": 25.525,
                "pitch": 40,
                "velocity": 32,
                "duration": 0.0318181818181813,
                "tempo": 120.0
            },
            {
                "start_time": 25.525,
                "end_time": 25.55909090909091,
                "pitch": 44,
                "velocity": 32,
                "duration": 0.03409090909091006,
                "tempo": 120.0
            },
            {
                "start_time": 25.55909090909091,
                "end_time": 25.625,
                "pitch": 43,
                "velocity": 32,
                "duration": 0.06590909090909136,
                "tempo": 120.0
            },
            {
                "start_time": 25.625,
                "end_time": 25.659090909090907,
                "pitch": 44,
                "velocity": 32,
                "duration": 0.03409090909090651,
                "tempo": 120.0
            },
            {
                "start_time": 25.659090909090907,
                "end_time": 25.724999999999998,
                "pitch": 43,
                "velocity": 32,
                "duration": 0.06590909090909136,
                "tempo": 120.0
            }
        ]
    }
}