{
    "track_id": "Phantasy Star (FM) - 14 - Dezoris",
    "mood": "angry",
    "instruments": {
        "Electric Guitar (clean)": [
            {
                "start_time": 0.0,
                "end_time": 0.3840909090909091,
                "pitch": 36,
                "velocity": 64,
                "duration": 0.3840909090909091,
                "tempo": 120.0
            },
            {
                "start_time": 0.39999999999999997,
                "end_time": 0.7840909090909091,
                "pitch": 36,
                "velocity": 64,
                "duration": 0.3840909090909091,
                "tempo": 120.0
            },
            {
                "start_time": 0.7999999999999999,
                "end_time": 1.184090909090909,
                "pitch": 41,
                "velocity": 64,
                "duration": 0.38409090909090915,
                "tempo": 120.0
            },
            {
                "start_time": 1.2,
                "end_time": 1.584090909090909,
                "pitch": 41,
                "velocity": 64,
                "duration": 0.38409090909090904,
                "tempo": 120.0
            },
            {
                "start_time": 1.5999999999999999,
                "end_time": 1.9863636363636363,
                "pitch": 41,
                "velocity": 64,
                "duration": 0.38636363636363646,
                "tempo": 120.0
            },
            {
                "start_time": 2.002272727272727,
                "end_time": 2.3863636363636362,
                "pitch": 41,
                "velocity": 64,
                "duration": 0.38409090909090926,
                "tempo": 120.0
            },
            {
                "start_time": 2.4022727272727273,
                "end_time": 2.786363636363636,
                "pitch": 38,
                "velocity": 64,
                "duration": 0.3840909090909088,
                "tempo": 120.0
            },
            {
                "start_time": 2.8022727272727272,
                "end_time": 3.186363636363636,
                "pitch": 38,
                "velocity": 64,
                "duration": 0.3840909090909088,
                "tempo": 120.0
            },
            {
                "start_time": 3.202272727272727,
                "end_time": 3.5886363636363634,
                "pitch": 38,
                "velocity": 64,
                "duration": 0.38636363636363624,
                "tempo": 120.0
            },
            {
                "start_time": 3.6045454545454545,
                "end_time": 3.9886363636363633,
                "pitch": 38,
                "velocity": 64,
                "duration": 0.3840909090909088,
                "tempo": 120.0
            },
            {
                "start_time": 4.004545454545454,
                "end_time": 4.388636363636364,
                "pitch": 34,
                "velocity": 64,
                "duration": 0.3840909090909097,
                "tempo": 120.0
            },
            {
                "start_time": 4.404545454545454,
                "end_time": 4.790909090909091,
                "pitch": 34,
                "velocity": 64,
                "duration": 0.3863636363636367,
                "tempo": 120.0
            },
            {
                "start_time": 4.809090909090909,
                "end_time": 5.1909090909090905,
                "pitch": 36,
                "velocity": 64,
                "duration": 0.38181818181818183,
                "tempo": 120.0
            },
            {
                "start_time": 5.209090909090909,
                "end_time": 5.593181818181818,
                "pitch": 36,
                "velocity": 64,
                "duration": 0.3840909090909088,
                "tempo": 120.0
            },
            {
                "start_time": 5.611363636363636,
                "end_time": 5.993181818181818,
                "pitch": 41,
                "velocity": 64,
                "duration": 0.38181818181818183,
                "tempo": 120.0
            },
            {
                "start_time": 6.011363636363636,
                "end_time": 6.3977272727272725,
                "pitch": 41,
                "velocity": 64,
                "duration": 0.3863636363636367,
                "tempo": 120.0
            },
            {
                "start_time": 6.413636363636363,
                "end_time": 6.8,
                "pitch": 41,
                "velocity": 64,
                "duration": 0.3863636363636367,
                "tempo": 120.0
            },
            {
                "start_time": 6.8159090909090905,
                "end_time": 7.199999999999999,
                "pitch": 41,
                "velocity": 64,
                "duration": 0.3840909090909088,
                "tempo": 120.0
            },
            {
                "start_time": 7.215909090909091,
                "end_time": 7.602272727272727,
                "pitch": 37,
                "velocity": 64,
                "duration": 0.3863636363636358,
                "tempo": 120.0
            },
            {
                "start_time": 7.618181818181818,
                "end_time": 8.002272727272727,
                "pitch": 37,
                "velocity": 64,
                "duration": 0.3840909090909088,
                "tempo": 120.0
            },
            {
                "start_time": 8.018181818181818,
                "end_time": 8.404545454545454,
                "pitch": 37,
                "velocity": 64,
                "duration": 0.3863636363636367,
                "tempo": 120.0
            },
            {
                "start_time": 8.420454545454545,
                "end_time": 8.806818181818182,
                "pitch": 37,
                "velocity": 64,
                "duration": 0.3863636363636367,
                "tempo": 120.0
            },
            {
                "start_time": 8.825,
                "end_time": 9.209090909090909,
                "pitch": 36,
                "velocity": 64,
                "duration": 0.3840909090909097,
                "tempo": 120.0
            },
            {
                "start_time": 9.227272727272727,
                "end_time": 9.620454545454544,
                "pitch": 36,
                "velocity": 64,
                "duration": 0.39318181818181763,
                "tempo": 120.0
            },
            {
                "start_time": 9.638636363636364,
                "end_time": 10.013636363636364,
                "pitch": 36,
                "velocity": 64,
                "duration": 0.375,
                "tempo": 120.0
            },
            {
                "start_time": 10.029545454545454,
                "end_time": 10.415909090909091,
                "pitch": 36,
                "velocity": 64,
                "duration": 0.3863636363636367,
                "tempo": 120.0
            },
            {
                "start_time": 10.431818181818182,
                "end_time": 10.818181818181818,
                "pitch": 41,
                "velocity": 64,
                "duration": 0.3863636363636367,
                "tempo": 120.0
            },
            {
                "start_time": 10.834090909090909,
                "end_time": 11.220454545454546,
                "pitch": 41,
                "velocity": 64,
                "duration": 0.3863636363636367,
                "tempo": 120.0
            },
            {
                "start_time": 11.238636363636363,
                "end_time": 11.620454545454544,
                "pitch": 41,
                "velocity": 64,
                "duration": 0.38181818181818095,
                "tempo": 120.0
            },
            {
                "start_time": 11.638636363636364,
                "end_time": 12.022727272727272,
                "pitch": 41,
                "velocity": 64,
                "duration": 0.38409090909090793,
                "tempo": 120.0
            },
            {
                "start_time": 12.040909090909091,
                "end_time": 12.427272727272726,
                "pitch": 38,
                "velocity": 64,
                "duration": 0.3863636363636349,
                "tempo": 120.0
            },
            {
                "start_time": 12.443181818181818,
                "end_time": 12.829545454545453,
                "pitch": 38,
                "velocity": 64,
                "duration": 0.3863636363636349,
                "tempo": 120.0
            },
            {
                "start_time": 12.845454545454546,
                "end_time": 13.23181818181818,
                "pitch": 38,
                "velocity": 64,
                "duration": 0.3863636363636349,
                "tempo": 120.0
            },
            {
                "start_time": 13.247727272727271,
                "end_time": 13.631818181818181,
                "pitch": 38,
                "velocity": 64,
                "duration": 0.3840909090909097,
                "tempo": 120.0
            },
            {
                "start_time": 13.647727272727272,
                "end_time": 14.034090909090908,
                "pitch": 34,
                "velocity": 64,
                "duration": 0.3863636363636367,
                "tempo": 120.0
            },
            {
                "start_time": 14.052272727272726,
                "end_time": 14.436363636363636,
                "pitch": 34,
                "velocity": 64,
                "duration": 0.3840909090909097,
                "tempo": 120.0
            },
            {
                "start_time": 14.454545454545453,
                "end_time": 14.84090909090909,
                "pitch": 36,
                "velocity": 64,
                "duration": 0.3863636363636367,
                "tempo": 120.0
            },
            {
                "start_time": 14.85681818181818,
                "end_time": 15.243181818181817,
                "pitch": 36,
                "velocity": 64,
                "duration": 0.3863636363636367,
                "tempo": 120.0
            },
            {
                "start_time": 15.259090909090908,
                "end_time": 15.643181818181818,
                "pitch": 41,
                "velocity": 64,
                "duration": 0.3840909090909097,
                "tempo": 120.0
            },
            {
                "start_time": 15.659090909090908,
                "end_time": 16.045454545454543,
                "pitch": 41,
                "velocity": 64,
                "duration": 0.3863636363636349,
                "tempo": 120.0
            },
            {
                "start_time": 16.061363636363634,
                "end_time": 16.44772727272727,
                "pitch": 41,
                "velocity": 64,
                "duration": 0.3863636363636367,
                "tempo": 120.0
            },
            {
                "start_time": 16.46363636363636,
                "end_time": 16.847727272727273,
                "pitch": 41,
                "velocity": 64,
                "duration": 0.3840909090909115,
                "tempo": 120.0
            },
            {
                "start_time": 16.863636363636363,
                "end_time": 17.25,
                "pitch": 37,
                "velocity": 64,
                "duration": 0.3863636363636367,
                "tempo": 120.0
            },
            {
                "start_time": 17.268181818181816,
                "end_time": 17.65,
                "pitch": 37,
                "velocity": 64,
                "duration": 0.3818181818181827,
                "tempo": 120.0
            },
            {
                "start_time": 17.668181818181818,
                "end_time": 18.052272727272726,
                "pitch": 37,
                "velocity": 64,
                "duration": 0.38409090909090793,
                "tempo": 120.0
            },
            {
                "start_time": 18.070454545454545,
                "end_time": 18.452272727272728,
                "pitch": 37,
                "velocity": 64,
                "duration": 0.3818181818181827,
                "tempo": 120.0
            },
            {
                "start_time": 18.470454545454544,
                "end_time": 18.852272727272727,
                "pitch": 36,
                "velocity": 64,
                "duration": 0.3818181818181827,
                "tempo": 120.0
            },
            {
                "start_time": 18.870454545454546,
                "end_time": 19.25681818181818,
                "pitch": 36,
                "velocity": 64,
                "duration": 0.38636363636363313,
                "tempo": 120.0
            },
            {
                "start_time": 19.272727272727273,
                "end_time": 19.65681818181818,
                "pitch": 36,
                "velocity": 64,
                "duration": 0.38409090909090793,
                "tempo": 120.0
            },
            {
                "start_time": 19.672727272727272,
                "end_time": 20.05909090909091,
                "pitch": 36,
                "velocity": 64,
                "duration": 0.3863636363636367,
                "tempo": 120.0
            },
            {
                "start_time": 20.075,
                "end_time": 20.459090909090907,
                "pitch": 36,
                "velocity": 64,
                "duration": 0.38409090909090793,
                "tempo": 120.0
            },
            {
                "start_time": 20.474999999999998,
                "end_time": 20.85909090909091,
                "pitch": 36,
                "velocity": 64,
                "duration": 0.3840909090909115,
                "tempo": 120.0
            },
            {
                "start_time": 20.875,
                "end_time": 21.261363636363637,
                "pitch": 36,
                "velocity": 64,
                "duration": 0.3863636363636367,
                "tempo": 120.0
            },
            {
                "start_time": 21.277272727272727,
                "end_time": 21.661363636363635,
                "pitch": 36,
                "velocity": 64,
                "duration": 0.38409090909090793,
                "tempo": 120.0
            },
            {
                "start_time": 21.677272727272726,
                "end_time": 22.063636363636363,
                "pitch": 31,
                "velocity": 64,
                "duration": 0.3863636363636367,
                "tempo": 120.0
            },
            {
                "start_time": 22.081818181818182,
                "end_time": 22.46363636363636,
                "pitch": 31,
                "velocity": 64,
                "duration": 0.38181818181817917,
                "tempo": 120.0
            },
            {
                "start_time": 22.48181818181818,
                "end_time": 22.875,
                "pitch": 31,
                "velocity": 64,
                "duration": 0.3931818181818194,
                "tempo": 120.0
            },
            {
                "start_time": 22.89090909090909,
                "end_time": 23.268181818181816,
                "pitch": 31,
                "velocity": 64,
                "duration": 0.3772727272727252,
                "tempo": 120.0
            },
            {
                "start_time": 23.284090909090907,
                "end_time": 23.66590909090909,
                "pitch": 37,
                "velocity": 64,
                "duration": 0.3818181818181827,
                "tempo": 120.0
            },
            {
                "start_time": 23.68409090909091,
                "end_time": 24.070454545454545,
                "pitch": 37,
                "velocity": 64,
                "duration": 0.3863636363636367,
                "tempo": 120.0
            },
            {
                "start_time": 24.086363636363636,
                "end_time": 24.470454545454544,
                "pitch": 37,
                "velocity": 64,
                "duration": 0.38409090909090793,
                "tempo": 120.0
            },
            {
                "start_time": 24.486363636363635,
                "end_time": 24.870454545454542,
                "pitch": 37,
                "velocity": 64,
                "duration": 0.38409090909090793,
                "tempo": 120.0
            },
            {
                "start_time": 24.886363636363637,
                "end_time": 25.27272727272727,
                "pitch": 41,
                "velocity": 64,
                "duration": 0.38636363636363313,
                "tempo": 120.0
            },
            {
                "start_time": 25.288636363636364,
                "end_time": 25.672727272727272,
                "pitch": 41,
                "velocity": 64,
                "duration": 0.38409090909090793,
                "tempo": 120.0
            },
            {
                "start_time": 25.688636363636363,
                "end_time": 26.075,
                "pitch": 41,
                "velocity": 64,
                "duration": 0.3863636363636367,
                "tempo": 120.0
            },
            {
                "start_time": 26.09090909090909,
                "end_time": 26.474999999999998,
                "pitch": 41,
                "velocity": 64,
                "duration": 0.38409090909090793,
                "tempo": 120.0
            },
            {
                "start_time": 26.49090909090909,
                "end_time": 26.875,
                "pitch": 36,
                "velocity": 64,
                "duration": 0.3840909090909115,
                "tempo": 120.0
            },
            {
                "start_time": 26.89090909090909,
                "end_time": 27.277272727272727,
                "pitch": 36,
                "velocity": 64,
                "duration": 0.3863636363636367,
                "tempo": 120.0
            },
            {
                "start_time": 27.295454545454543,
                "end_time": 27.677272727272726,
                "pitch": 36,
                "velocity": 64,
                "duration": 0.3818181818181827,
                "tempo": 120.0
            },
            {
                "start_time": 27.695454545454545,
                "end_time": 28.079545454545453,
                "pitch": 36,
                "velocity": 64,
                "duration": 0.38409090909090793,
                "tempo": 120.0
            },
            {
                "start_time": 28.097727272727273,
                "end_time": 28.479545454545452,
                "pitch": 31,
                "velocity": 64,
                "duration": 0.38181818181817917,
                "tempo": 120.0
            },
            {
                "start_time": 28.49772727272727,
                "end_time": 28.879545454545454,
                "pitch": 31,
                "velocity": 64,
                "duration": 0.3818181818181827,
                "tempo": 120.0
            },
            {
                "start_time": 28.89772727272727,
                "end_time": 29.29090909090909,
                "pitch": 31,
                "velocity": 64,
                "duration": 0.3931818181818194,
                "tempo": 120.0
            },
            {
                "start_time": 29.30681818181818,
                "end_time": 29.68409090909091,
                "pitch": 31,
                "velocity": 64,
                "duration": 0.37727272727272876,
                "tempo": 120.0
            },
            {
                "start_time": 29.7,
                "end_time": 30.086363636363636,
                "pitch": 37,
                "velocity": 64,
                "duration": 0.3863636363636367,
                "tempo": 120.0
            },
            {
                "start_time": 30.102272727272727,
                "end_time": 30.486363636363635,
                "pitch": 37,
                "velocity": 64,
                "duration": 0.38409090909090793,
                "tempo": 120.0
            },
            {
                "start_time": 30.502272727272725,
                "end_time": 30.886363636363633,
                "pitch": 37,
                "velocity": 64,
                "duration": 0.38409090909090793,
                "tempo": 120.0
            },
            {
                "start_time": 30.902272727272727,
                "end_time": 31.28863636363636,
                "pitch": 37,
                "velocity": 64,
                "duration": 0.38636363636363313,
                "tempo": 120.0
            },
            {
                "start_time": 31.304545454545455,
                "end_time": 31.688636363636363,
                "pitch": 36,
                "velocity": 64,
                "duration": 0.38409090909090793,
                "tempo": 120.0
            },
            {
                "start_time": 31.704545454545453,
                "end_time": 32.090909090909086,
                "pitch": 36,
                "velocity": 64,
                "duration": 0.38636363636363313,
                "tempo": 120.0
            },
            {
                "start_time": 32.10681818181818,
                "end_time": 32.49090909090909,
                "pitch": 36,
                "velocity": 64,
                "duration": 0.38409090909091503,
                "tempo": 120.0
            },
            {
                "start_time": 32.50681818181818,
                "end_time": 32.89090909090909,
                "pitch": 36,
                "velocity": 64,
                "duration": 0.38409090909090793,
                "tempo": 120.0
            }
        ],
        "Church Organ": [
            {
                "start_time": 0.0,
                "end_time": 0.3840909090909091,
                "pitch": 48,
                "velocity": 64,
                "duration": 0.3840909090909091,
                "tempo": 120.0
            },
            {
                "start_time": 0.39999999999999997,
                "end_time": 0.7840909090909091,
                "pitch": 48,
                "velocity": 64,
                "duration": 0.3840909090909091,
                "tempo": 120.0
            },
            {
                "start_time": 0.7999999999999999,
                "end_time": 1.184090909090909,
                "pitch": 53,
                "velocity": 64,
                "duration": 0.38409090909090915,
                "tempo": 120.0
            },
            {
                "start_time": 1.2,
                "end_time": 1.584090909090909,
                "pitch": 53,
                "velocity": 64,
                "duration": 0.38409090909090904,
                "tempo": 120.0
            },
            {
                "start_time": 1.5999999999999999,
                "end_time": 1.9863636363636363,
                "pitch": 53,
                "velocity": 64,
                "duration": 0.38636363636363646,
                "tempo": 120.0
            },
            {
                "start_time": 2.002272727272727,
                "end_time": 2.3863636363636362,
                "pitch": 53,
                "velocity": 64,
                "duration": 0.38409090909090926,
                "tempo": 120.0
            },
            {
                "start_time": 2.4022727272727273,
                "end_time": 2.786363636363636,
                "pitch": 50,
                "velocity": 64,
                "duration": 0.3840909090909088,
                "tempo": 120.0
            },
            {
                "start_time": 2.8022727272727272,
                "end_time": 3.186363636363636,
                "pitch": 50,
                "velocity": 64,
                "duration": 0.3840909090909088,
                "tempo": 120.0
            },
            {
                "start_time": 3.202272727272727,
                "end_time": 3.5886363636363634,
                "pitch": 50,
                "velocity": 64,
                "duration": 0.38636363636363624,
                "tempo": 120.0
            },
            {
                "start_time": 3.6045454545454545,
                "end_time": 3.9886363636363633,
                "pitch": 50,
                "velocity": 64,
                "duration": 0.3840909090909088,
                "tempo": 120.0
            },
            {
                "start_time": 4.004545454545454,
                "end_time": 4.388636363636364,
                "pitch": 46,
                "velocity": 64,
                "duration": 0.3840909090909097,
                "tempo": 120.0
            },
            {
                "start_time": 4.404545454545454,
                "end_time": 4.790909090909091,
                "pitch": 46,
                "velocity": 64,
                "duration": 0.3863636363636367,
                "tempo": 120.0
            },
            {
                "start_time": 4.809090909090909,
                "end_time": 5.1909090909090905,
                "pitch": 48,
                "velocity": 64,
                "duration": 0.38181818181818183,
                "tempo": 120.0
            },
            {
                "start_time": 5.209090909090909,
                "end_time": 5.593181818181818,
                "pitch": 48,
                "velocity": 64,
                "duration": 0.3840909090909088,
                "tempo": 120.0
            },
            {
                "start_time": 5.611363636363636,
                "end_time": 5.993181818181818,
                "pitch": 53,
                "velocity": 64,
                "duration": 0.38181818181818183,
                "tempo": 120.0
            },
            {
                "start_time": 6.011363636363636,
                "end_time": 6.3977272727272725,
                "pitch": 53,
                "velocity": 64,
                "duration": 0.3863636363636367,
                "tempo": 120.0
            },
            {
                "start_time": 6.413636363636363,
                "end_time": 6.8,
                "pitch": 53,
                "velocity": 64,
                "duration": 0.3863636363636367,
                "tempo": 120.0
            },
            {
                "start_time": 6.8159090909090905,
                "end_time": 7.199999999999999,
                "pitch": 53,
                "velocity": 64,
                "duration": 0.3840909090909088,
                "tempo": 120.0
            },
            {
                "start_time": 7.215909090909091,
                "end_time": 7.602272727272727,
                "pitch": 49,
                "velocity": 64,
                "duration": 0.3863636363636358,
                "tempo": 120.0
            },
            {
                "start_time": 7.618181818181818,
                "end_time": 8.002272727272727,
                "pitch": 49,
                "velocity": 64,
                "duration": 0.3840909090909088,
                "tempo": 120.0
            },
            {
                "start_time": 8.018181818181818,
                "end_time": 8.404545454545454,
                "pitch": 49,
                "velocity": 64,
                "duration": 0.3863636363636367,
                "tempo": 120.0
            },
            {
                "start_time": 8.420454545454545,
                "end_time": 8.806818181818182,
                "pitch": 49,
                "velocity": 64,
                "duration": 0.3863636363636367,
                "tempo": 120.0
            },
            {
                "start_time": 8.825,
                "end_time": 9.209090909090909,
                "pitch": 48,
                "velocity": 64,
                "duration": 0.3840909090909097,
                "tempo": 120.0
            },
            {
                "start_time": 9.227272727272727,
                "end_time": 9.620454545454544,
                "pitch": 48,
                "velocity": 64,
                "duration": 0.39318181818181763,
                "tempo": 120.0
            },
            {
                "start_time": 9.638636363636364,
                "end_time": 10.013636363636364,
                "pitch": 48,
                "velocity": 64,
                "duration": 0.375,
                "tempo": 120.0
            },
            {
                "start_time": 10.029545454545454,
                "end_time": 10.415909090909091,
                "pitch": 48,
                "velocity": 64,
                "duration": 0.3863636363636367,
                "tempo": 120.0
            },
            {
                "start_time": 10.431818181818182,
                "end_time": 10.818181818181818,
                "pitch": 53,
                "velocity": 64,
                "duration": 0.3863636363636367,
                "tempo": 120.0
            },
            {
                "start_time": 10.834090909090909,
                "end_time": 11.220454545454546,
                "pitch": 53,
                "velocity": 64,
                "duration": 0.3863636363636367,
                "tempo": 120.0
            },
            {
                "start_time": 11.238636363636363,
                "end_time": 11.620454545454544,
                "pitch": 53,
                "velocity": 64,
                "duration": 0.38181818181818095,
                "tempo": 120.0
            },
            {
                "start_time": 11.638636363636364,
                "end_time": 12.022727272727272,
                "pitch": 53,
                "velocity": 64,
                "duration": 0.38409090909090793,
                "tempo": 120.0
            },
            {
                "start_time": 12.040909090909091,
                "end_time": 12.427272727272726,
                "pitch": 50,
                "velocity": 64,
                "duration": 0.3863636363636349,
                "tempo": 120.0
            },
            {
                "start_time": 12.443181818181818,
                "end_time": 12.829545454545453,
                "pitch": 50,
                "velocity": 64,
                "duration": 0.3863636363636349,
                "tempo": 120.0
            },
            {
                "start_time": 12.845454545454546,
                "end_time": 13.23181818181818,
                "pitch": 50,
                "velocity": 64,
                "duration": 0.3863636363636349,
                "tempo": 120.0
            },
            {
                "start_time": 13.247727272727271,
                "end_time": 13.631818181818181,
                "pitch": 50,
                "velocity": 64,
                "duration": 0.3840909090909097,
                "tempo": 120.0
            },
            {
                "start_time": 13.647727272727272,
                "end_time": 14.034090909090908,
                "pitch": 46,
                "velocity": 64,
                "duration": 0.3863636363636367,
                "tempo": 120.0
            },
            {
                "start_time": 14.052272727272726,
                "end_time": 14.436363636363636,
                "pitch": 46,
                "velocity": 64,
                "duration": 0.3840909090909097,
                "tempo": 120.0
            },
            {
                "start_time": 14.454545454545453,
                "end_time": 14.84090909090909,
                "pitch": 48,
                "velocity": 64,
                "duration": 0.3863636363636367,
                "tempo": 120.0
            },
            {
                "start_time": 14.85681818181818,
                "end_time": 15.243181818181817,
                "pitch": 48,
                "velocity": 64,
                "duration": 0.3863636363636367,
                "tempo": 120.0
            },
            {
                "start_time": 15.259090909090908,
                "end_time": 15.643181818181818,
                "pitch": 53,
                "velocity": 64,
                "duration": 0.3840909090909097,
                "tempo": 120.0
            },
            {
                "start_time": 15.659090909090908,
                "end_time": 16.045454545454543,
                "pitch": 53,
                "velocity": 64,
                "duration": 0.3863636363636349,
                "tempo": 120.0
            },
            {
                "start_time": 16.061363636363634,
                "end_time": 16.44772727272727,
                "pitch": 53,
                "velocity": 64,
                "duration": 0.3863636363636367,
                "tempo": 120.0
            },
            {
                "start_time": 16.46363636363636,
                "end_time": 16.847727272727273,
                "pitch": 53,
                "velocity": 64,
                "duration": 0.3840909090909115,
                "tempo": 120.0
            },
            {
                "start_time": 16.863636363636363,
                "end_time": 17.25,
                "pitch": 49,
                "velocity": 64,
                "duration": 0.3863636363636367,
                "tempo": 120.0
            },
            {
                "start_time": 17.268181818181816,
                "end_time": 17.65,
                "pitch": 49,
                "velocity": 64,
                "duration": 0.3818181818181827,
                "tempo": 120.0
            },
            {
                "start_time": 17.668181818181818,
                "end_time": 18.052272727272726,
                "pitch": 49,
                "velocity": 64,
                "duration": 0.38409090909090793,
                "tempo": 120.0
            },
            {
                "start_time": 18.070454545454545,
                "end_time": 18.452272727272728,
                "pitch": 49,
                "velocity": 64,
                "duration": 0.3818181818181827,
                "tempo": 120.0
            },
            {
                "start_time": 18.470454545454544,
                "end_time": 18.852272727272727,
                "pitch": 48,
                "velocity": 64,
                "duration": 0.3818181818181827,
                "tempo": 120.0
            },
            {
                "start_time": 18.870454545454546,
                "end_time": 19.25681818181818,
                "pitch": 48,
                "velocity": 64,
                "duration": 0.38636363636363313,
                "tempo": 120.0
            },
            {
                "start_time": 19.272727272727273,
                "end_time": 19.65681818181818,
                "pitch": 48,
                "velocity": 64,
                "duration": 0.38409090909090793,
                "tempo": 120.0
            },
            {
                "start_time": 19.672727272727272,
                "end_time": 20.05909090909091,
                "pitch": 48,
                "velocity": 64,
                "duration": 0.3863636363636367,
                "tempo": 120.0
            },
            {
                "start_time": 20.075,
                "end_time": 20.459090909090907,
                "pitch": 48,
                "velocity": 64,
                "duration": 0.38409090909090793,
                "tempo": 120.0
            },
            {
                "start_time": 20.474999999999998,
                "end_time": 20.85909090909091,
                "pitch": 48,
                "velocity": 64,
                "duration": 0.3840909090909115,
                "tempo": 120.0
            },
            {
                "start_time": 20.875,
                "end_time": 21.261363636363637,
                "pitch": 48,
                "velocity": 64,
                "duration": 0.3863636363636367,
                "tempo": 120.0
            },
            {
                "start_time": 21.277272727272727,
                "end_time": 21.661363636363635,
                "pitch": 48,
                "velocity": 64,
                "duration": 0.38409090909090793,
                "tempo": 120.0
            },
            {
                "start_time": 21.677272727272726,
                "end_time": 22.063636363636363,
                "pitch": 43,
                "velocity": 64,
                "duration": 0.3863636363636367,
                "tempo": 120.0
            },
            {
                "start_time": 22.081818181818182,
                "end_time": 22.46363636363636,
                "pitch": 43,
                "velocity": 64,
                "duration": 0.38181818181817917,
                "tempo": 120.0
            },
            {
                "start_time": 22.48181818181818,
                "end_time": 22.875,
                "pitch": 43,
                "velocity": 64,
                "duration": 0.3931818181818194,
                "tempo": 120.0
            },
            {
                "start_time": 22.89090909090909,
                "end_time": 23.268181818181816,
                "pitch": 43,
                "velocity": 64,
                "duration": 0.3772727272727252,
                "tempo": 120.0
            },
            {
                "start_time": 23.284090909090907,
                "end_time": 23.66590909090909,
                "pitch": 49,
                "velocity": 64,
                "duration": 0.3818181818181827,
                "tempo": 120.0
            },
            {
                "start_time": 23.68409090909091,
                "end_time": 24.070454545454545,
                "pitch": 49,
                "velocity": 64,
                "duration": 0.3863636363636367,
                "tempo": 120.0
            },
            {
                "start_time": 24.086363636363636,
                "end_time": 24.470454545454544,
                "pitch": 49,
                "velocity": 64,
                "duration": 0.38409090909090793,
                "tempo": 120.0
            },
            {
                "start_time": 24.486363636363635,
                "end_time": 24.870454545454542,
                "pitch": 49,
                "velocity": 64,
                "duration": 0.38409090909090793,
                "tempo": 120.0
            },
            {
                "start_time": 24.886363636363637,
                "end_time": 25.27272727272727,
                "pitch": 53,
                "velocity": 64,
                "duration": 0.38636363636363313,
                "tempo": 120.0
            },
            {
                "start_time": 25.288636363636364,
                "end_time": 25.672727272727272,
                "pitch": 53,
                "velocity": 64,
                "duration": 0.38409090909090793,
                "tempo": 120.0
            },
            {
                "start_time": 25.688636363636363,
                "end_time": 26.075,
                "pitch": 53,
                "velocity": 64,
                "duration": 0.3863636363636367,
                "tempo": 120.0
            },
            {
                "start_time": 26.09090909090909,
                "end_time": 26.474999999999998,
                "pitch": 53,
                "velocity": 64,
                "duration": 0.38409090909090793,
                "tempo": 120.0
            },
            {
                "start_time": 26.49090909090909,
                "end_time": 26.875,
                "pitch": 48,
                "velocity": 64,
                "duration": 0.3840909090909115,
                "tempo": 120.0
            },
            {
                "start_time": 26.89090909090909,
                "end_time": 27.277272727272727,
                "pitch": 48,
                "velocity": 64,
                "duration": 0.3863636363636367,
                "tempo": 120.0
            },
            {
                "start_time": 27.295454545454543,
                "end_time": 27.677272727272726,
                "pitch": 48,
                "velocity": 64,
                "duration": 0.3818181818181827,
                "tempo": 120.0
            },
            {
                "start_time": 27.695454545454545,
                "end_time": 28.079545454545453,
                "pitch": 48,
                "velocity": 64,
                "duration": 0.38409090909090793,
                "tempo": 120.0
            },
            {
                "start_time": 28.097727272727273,
                "end_time": 28.479545454545452,
                "pitch": 43,
                "velocity": 64,
                "duration": 0.38181818181817917,
                "tempo": 120.0
            },
            {
                "start_time": 28.49772727272727,
                "end_time": 28.879545454545454,
                "pitch": 43,
                "velocity": 64,
                "duration": 0.3818181818181827,
                "tempo": 120.0
            },
            {
                "start_time": 28.89772727272727,
                "end_time": 29.29090909090909,
                "pitch": 43,
                "velocity": 64,
                "duration": 0.3931818181818194,
                "tempo": 120.0
            },
            {
                "start_time": 29.30681818181818,
                "end_time": 29.68409090909091,
                "pitch": 43,
                "velocity": 64,
                "duration": 0.37727272727272876,
                "tempo": 120.0
            },
            {
                "start_time": 29.7,
                "end_time": 30.086363636363636,
                "pitch": 49,
                "velocity": 64,
                "duration": 0.3863636363636367,
                "tempo": 120.0
            },
            {
                "start_time": 30.102272727272727,
                "end_time": 30.486363636363635,
                "pitch": 49,
                "velocity": 64,
                "duration": 0.38409090909090793,
                "tempo": 120.0
            },
            {
                "start_time": 30.502272727272725,
                "end_time": 30.886363636363633,
                "pitch": 49,
                "velocity": 64,
                "duration": 0.38409090909090793,
                "tempo": 120.0
            },
            {
                "start_time": 30.902272727272727,
                "end_time": 31.28863636363636,
                "pitch": 49,
                "velocity": 64,
                "duration": 0.38636363636363313,
                "tempo": 120.0
            },
            {
                "start_time": 31.304545454545455,
                "end_time": 31.688636363636363,
                "pitch": 48,
                "velocity": 64,
                "duration": 0.38409090909090793,
                "tempo": 120.0
            },
            {
                "start_time": 31.704545454545453,
                "end_time": 32.090909090909086,
                "pitch": 48,
                "velocity": 64,
                "duration": 0.38636363636363313,
                "tempo": 120.0
            },
            {
                "start_time": 32.10681818181818,
                "end_time": 32.49090909090909,
                "pitch": 48,
                "velocity": 64,
                "duration": 0.38409090909091503,
                "tempo": 120.0
            },
            {
                "start_time": 32.50681818181818,
                "end_time": 32.89090909090909,
                "pitch": 48,
                "velocity": 64,
                "duration": 0.38409090909090793,
                "tempo": 120.0
            }
        ],
        "French Horn": [
            {
                "start_time": 0.0,
                "end_time": 0.18409090909090908,
                "pitch": 60,
                "velocity": 51,
                "duration": 0.18409090909090908,
                "tempo": 120.0
            },
            {
                "start_time": 0.19999999999999998,
                "end_time": 0.3840909090909091,
                "pitch": 65,
                "velocity": 51,
                "duration": 0.1840909090909091,
                "tempo": 120.0
            },
            {
                "start_time": 0.39999999999999997,
                "end_time": 0.5840909090909091,
                "pitch": 64,
                "velocity": 51,
                "duration": 0.18409090909090914,
                "tempo": 120.0
            },
            {
                "start_time": 0.6,
                "end_time": 0.7840909090909091,
                "pitch": 65,
                "velocity": 51,
                "duration": 0.18409090909090908,
                "tempo": 120.0
            },
            {
                "start_time": 0.7999999999999999,
                "end_time": 1.784090909090909,
                "pitch": 68,
                "velocity": 51,
                "duration": 0.984090909090909,
                "tempo": 120.0
            },
            {
                "start_time": 1.8022727272727272,
                "end_time": 1.9863636363636363,
                "pitch": 67,
                "velocity": 51,
                "duration": 0.18409090909090908,
                "tempo": 120.0
            },
            {
                "start_time": 2.002272727272727,
                "end_time": 2.186363636363636,
                "pitch": 65,
                "velocity": 51,
                "duration": 0.18409090909090908,
                "tempo": 120.0
            },
            {
                "start_time": 2.202272727272727,
                "end_time": 2.3863636363636362,
                "pitch": 63,
                "velocity": 51,
                "duration": 0.18409090909090908,
                "tempo": 120.0
            },
            {
                "start_time": 2.4022727272727273,
                "end_time": 3.7886363636363636,
                "pitch": 62,
                "velocity": 51,
                "duration": 1.3863636363636362,
                "tempo": 120.0
            },
            {
                "start_time": 3.8045454545454542,
                "end_time": 3.9886363636363633,
                "pitch": 58,
                "velocity": 51,
                "duration": 0.18409090909090908,
                "tempo": 120.0
            },
            {
                "start_time": 4.004545454545454,
                "end_time": 4.790909090909091,
                "pitch": 58,
                "velocity": 51,
                "duration": 0.786363636363637,
                "tempo": 120.0
            },
            {
                "start_time": 4.809090909090909,
                "end_time": 4.99090909090909,
                "pitch": 60,
                "velocity": 51,
                "duration": 0.18181818181818166,
                "tempo": 120.0
            },
            {
                "start_time": 5.009090909090909,
                "end_time": 5.1909090909090905,
                "pitch": 65,
                "velocity": 51,
                "duration": 0.18181818181818166,
                "tempo": 120.0
            },
            {
                "start_time": 5.209090909090909,
                "end_time": 5.393181818181818,
                "pitch": 64,
                "velocity": 51,
                "duration": 0.18409090909090864,
                "tempo": 120.0
            },
            {
                "start_time": 5.409090909090909,
                "end_time": 5.593181818181818,
                "pitch": 65,
                "velocity": 51,
                "duration": 0.18409090909090864,
                "tempo": 120.0
            },
            {
                "start_time": 5.611363636363636,
                "end_time": 6.597727272727273,
                "pitch": 68,
                "velocity": 51,
                "duration": 0.9863636363636363,
                "tempo": 120.0
            },
            {
                "start_time": 6.613636363636363,
                "end_time": 6.8,
                "pitch": 67,
                "velocity": 51,
                "duration": 0.1863636363636365,
                "tempo": 120.0
            },
            {
                "start_time": 6.8159090909090905,
                "end_time": 7.0,
                "pitch": 68,
                "velocity": 51,
                "duration": 0.18409090909090953,
                "tempo": 120.0
            },
            {
                "start_time": 7.015909090909091,
                "end_time": 7.199999999999999,
                "pitch": 70,
                "velocity": 51,
                "duration": 0.18409090909090864,
                "tempo": 120.0
            },
            {
                "start_time": 7.215909090909091,
                "end_time": 8.404545454545454,
                "pitch": 73,
                "velocity": 51,
                "duration": 1.1886363636363635,
                "tempo": 120.0
            },
            {
                "start_time": 8.420454545454545,
                "end_time": 8.60681818181818,
                "pitch": 75,
                "velocity": 51,
                "duration": 0.18636363636363562,
                "tempo": 120.0
            },
            {
                "start_time": 8.622727272727273,
                "end_time": 8.806818181818182,
                "pitch": 73,
                "velocity": 51,
                "duration": 0.18409090909090864,
                "tempo": 120.0
            },
            {
                "start_time": 8.825,
                "end_time": 9.620454545454544,
                "pitch": 72,
                "velocity": 51,
                "duration": 0.795454545454545,
                "tempo": 120.0
            },
            {
                "start_time": 9.638636363636364,
                "end_time": 9.818181818181818,
                "pitch": 60,
                "velocity": 51,
                "duration": 0.17954545454545467,
                "tempo": 120.0
            },
            {
                "start_time": 9.834090909090909,
                "end_time": 10.013636363636364,
                "pitch": 65,
                "velocity": 51,
                "duration": 0.17954545454545467,
                "tempo": 120.0
            },
            {
                "start_time": 10.029545454545454,
                "end_time": 10.213636363636363,
                "pitch": 64,
                "velocity": 51,
                "duration": 0.18409090909090864,
                "tempo": 120.0
            },
            {
                "start_time": 10.23181818181818,
                "end_time": 10.415909090909091,
                "pitch": 65,
                "velocity": 51,
                "duration": 0.18409090909091042,
                "tempo": 120.0
            },
            {
                "start_time": 10.431818181818182,
                "end_time": 11.420454545454545,
                "pitch": 68,
                "velocity": 51,
                "duration": 0.9886363636363633,
                "tempo": 120.0
            },
            {
                "start_time": 11.438636363636363,
                "end_time": 11.620454545454544,
                "pitch": 67,
                "velocity": 51,
                "duration": 0.18181818181818166,
                "tempo": 120.0
            },
            {
                "start_time": 11.638636363636364,
                "end_time": 11.822727272727272,
                "pitch": 65,
                "velocity": 51,
                "duration": 0.18409090909090864,
                "tempo": 120.0
            },
            {
                "start_time": 11.838636363636363,
                "end_time": 12.022727272727272,
                "pitch": 63,
                "velocity": 51,
                "duration": 0.18409090909090864,
                "tempo": 120.0
            },
            {
                "start_time": 12.040909090909091,
                "end_time": 13.431818181818182,
                "pitch": 62,
                "velocity": 51,
                "duration": 1.3909090909090907,
                "tempo": 120.0
            },
            {
                "start_time": 13.447727272727272,
                "end_time": 13.631818181818181,
                "pitch": 58,
                "velocity": 51,
                "duration": 0.18409090909090864,
                "tempo": 120.0
            },
            {
                "start_time": 13.647727272727272,
                "end_time": 14.436363636363636,
                "pitch": 58,
                "velocity": 51,
                "duration": 0.788636363636364,
                "tempo": 120.0
            },
            {
                "start_time": 14.454545454545453,
                "end_time": 14.638636363636364,
                "pitch": 60,
                "velocity": 51,
                "duration": 0.18409090909091042,
                "tempo": 120.0
            },
            {
                "start_time": 14.654545454545454,
                "end_time": 14.84090909090909,
                "pitch": 65,
                "velocity": 51,
                "duration": 0.18636363636363562,
                "tempo": 120.0
            },
            {
                "start_time": 14.85681818181818,
                "end_time": 15.040909090909091,
                "pitch": 64,
                "velocity": 51,
                "duration": 0.18409090909091042,
                "tempo": 120.0
            },
            {
                "start_time": 15.056818181818182,
                "end_time": 15.243181818181817,
                "pitch": 65,
                "velocity": 51,
                "duration": 0.18636363636363562,
                "tempo": 120.0
            },
            {
                "start_time": 15.259090909090908,
                "end_time": 16.245454545454546,
                "pitch": 68,
                "velocity": 51,
                "duration": 0.9863636363636381,
                "tempo": 120.0
            },
            {
                "start_time": 16.263636363636362,
                "end_time": 16.44772727272727,
                "pitch": 67,
                "velocity": 51,
                "duration": 0.18409090909090864,
                "tempo": 120.0
            },
            {
                "start_time": 16.46363636363636,
                "end_time": 16.647727272727273,
                "pitch": 68,
                "velocity": 51,
                "duration": 0.1840909090909122,
                "tempo": 120.0
            },
            {
                "start_time": 16.663636363636364,
                "end_time": 16.847727272727273,
                "pitch": 70,
                "velocity": 51,
                "duration": 0.18409090909090864,
                "tempo": 120.0
            },
            {
                "start_time": 16.863636363636363,
                "end_time": 18.052272727272726,
                "pitch": 73,
                "velocity": 51,
                "duration": 1.1886363636363626,
                "tempo": 120.0
            },
            {
                "start_time": 18.070454545454545,
                "end_time": 18.252272727272725,
                "pitch": 75,
                "velocity": 51,
                "duration": 0.18181818181817988,
                "tempo": 120.0
            },
            {
                "start_time": 18.270454545454545,
                "end_time": 18.452272727272728,
                "pitch": 73,
                "velocity": 51,
                "duration": 0.18181818181818343,
                "tempo": 120.0
            },
            {
                "start_time": 18.470454545454544,
                "end_time": 19.25681818181818,
                "pitch": 72,
                "velocity": 51,
                "duration": 0.7863636363636353,
                "tempo": 120.0
            }
        ],
        "Lead 2 (sawtooth)": [
            {
                "start_time": 19.272727272727273,
                "end_time": 19.456818181818182,
                "pitch": 80,
                "velocity": 51,
                "duration": 0.18409090909090864,
                "tempo": 120.0
            },
            {
                "start_time": 19.472727272727273,
                "end_time": 19.85681818181818,
                "pitch": 79,
                "velocity": 51,
                "duration": 0.38409090909090793,
                "tempo": 120.0
            },
            {
                "start_time": 19.875,
                "end_time": 20.05909090909091,
                "pitch": 77,
                "velocity": 51,
                "duration": 0.18409090909090864,
                "tempo": 120.0
            },
            {
                "start_time": 20.075,
                "end_time": 21.261363636363637,
                "pitch": 76,
                "velocity": 51,
                "duration": 1.1863636363636374,
                "tempo": 120.0
            },
            {
                "start_time": 21.277272727272727,
                "end_time": 21.661363636363635,
                "pitch": 77,
                "velocity": 51,
                "duration": 0.38409090909090793,
                "tempo": 120.0
            },
            {
                "start_time": 21.677272727272726,
                "end_time": 22.46363636363636,
                "pitch": 79,
                "velocity": 51,
                "duration": 0.7863636363636353,
                "tempo": 120.0
            },
            {
                "start_time": 22.48181818181818,
                "end_time": 22.668181818181818,
                "pitch": 79,
                "velocity": 51,
                "duration": 0.1863636363636374,
                "tempo": 120.0
            },
            {
                "start_time": 22.686363636363634,
                "end_time": 23.070454545454545,
                "pitch": 77,
                "velocity": 51,
                "duration": 0.3840909090909115,
                "tempo": 120.0
            },
            {
                "start_time": 23.08863636363636,
                "end_time": 23.268181818181816,
                "pitch": 75,
                "velocity": 51,
                "duration": 0.17954545454545467,
                "tempo": 120.0
            },
            {
                "start_time": 23.284090909090907,
                "end_time": 24.470454545454544,
                "pitch": 73,
                "velocity": 51,
                "duration": 1.1863636363636374,
                "tempo": 120.0
            },
            {
                "start_time": 24.486363636363635,
                "end_time": 24.870454545454542,
                "pitch": 80,
                "velocity": 51,
                "duration": 0.38409090909090793,
                "tempo": 120.0
            },
            {
                "start_time": 24.886363636363637,
                "end_time": 25.672727272727272,
                "pitch": 77,
                "velocity": 51,
                "duration": 0.7863636363636353,
                "tempo": 120.0
            },
            {
                "start_time": 25.688636363636363,
                "end_time": 25.87272727272727,
                "pitch": 80,
                "velocity": 51,
                "duration": 0.18409090909090864,
                "tempo": 120.0
            },
            {
                "start_time": 25.89090909090909,
                "end_time": 26.275,
                "pitch": 79,
                "velocity": 51,
                "duration": 0.38409090909090793,
                "tempo": 120.0
            },
            {
                "start_time": 26.29090909090909,
                "end_time": 26.474999999999998,
                "pitch": 77,
                "velocity": 51,
                "duration": 0.18409090909090864,
                "tempo": 120.0
            },
            {
                "start_time": 26.49090909090909,
                "end_time": 27.677272727272726,
                "pitch": 76,
                "velocity": 51,
                "duration": 1.1863636363636374,
                "tempo": 120.0
            },
            {
                "start_time": 27.695454545454545,
                "end_time": 28.079545454545453,
                "pitch": 77,
                "velocity": 51,
                "duration": 0.38409090909090793,
                "tempo": 120.0
            },
            {
                "start_time": 28.097727272727273,
                "end_time": 28.879545454545454,
                "pitch": 79,
                "velocity": 51,
                "duration": 0.7818181818181813,
                "tempo": 120.0
            },
            {
                "start_time": 28.89772727272727,
                "end_time": 29.68409090909091,
                "pitch": 72,
                "velocity": 51,
                "duration": 0.7863636363636388,
                "tempo": 120.0
            },
            {
                "start_time": 29.7,
                "end_time": 30.886363636363633,
                "pitch": 73,
                "velocity": 51,
                "duration": 1.1863636363636338,
                "tempo": 120.0
            }
        ],
        "Harpsichord": [
            {
                "start_time": 30.902272727272727,
                "end_time": 31.28863636363636,
                "pitch": 75,
                "velocity": 51,
                "duration": 0.38636363636363313,
                "tempo": 120.0
            },
            {
                "start_time": 31.304545454545455,
                "end_time": 32.090909090909086,
                "pitch": 76,
                "velocity": 51,
                "duration": 0.7863636363636317,
                "tempo": 120.0
            },
            {
                "start_time": 32.10681818181818,
                "end_time": 32.29090909090909,
                "pitch": 60,
                "velocity": 51,
                "duration": 0.1840909090909122,
                "tempo": 120.0
            },
            {
                "start_time": 32.30681818181818,
                "end_time": 32.49090909090909,
                "pitch": 65,
                "velocity": 51,
                "duration": 0.1840909090909122,
                "tempo": 120.0
            },
            {
                "start_time": 32.50681818181818,
                "end_time": 32.69090909090909,
                "pitch": 64,
                "velocity": 51,
                "duration": 0.18409090909090509,
                "tempo": 120.0
            },
            {
                "start_time": 32.70681818181818,
                "end_time": 32.89090909090909,
                "pitch": 65,
                "velocity": 51,
                "duration": 0.1840909090909122,
                "tempo": 120.0
            }
        ],
        "Vibraphone": [
            {
                "start_time": 0.7999999999999999,
                "end_time": 1.784090909090909,
                "pitch": 65,
                "velocity": 51,
                "duration": 0.984090909090909,
                "tempo": 120.0
            },
            {
                "start_time": 1.8022727272727272,
                "end_time": 1.9863636363636363,
                "pitch": 63,
                "velocity": 51,
                "duration": 0.18409090909090908,
                "tempo": 120.0
            },
            {
                "start_time": 2.002272727272727,
                "end_time": 2.186363636363636,
                "pitch": 62,
                "velocity": 51,
                "duration": 0.18409090909090908,
                "tempo": 120.0
            },
            {
                "start_time": 2.202272727272727,
                "end_time": 2.3863636363636362,
                "pitch": 60,
                "velocity": 51,
                "duration": 0.18409090909090908,
                "tempo": 120.0
            },
            {
                "start_time": 2.4022727272727273,
                "end_time": 3.7886363636363636,
                "pitch": 58,
                "velocity": 51,
                "duration": 1.3863636363636362,
                "tempo": 120.0
            },
            {
                "start_time": 3.8045454545454542,
                "end_time": 3.9886363636363633,
                "pitch": 53,
                "velocity": 51,
                "duration": 0.18409090909090908,
                "tempo": 120.0
            },
            {
                "start_time": 4.004545454545454,
                "end_time": 4.6909090909090905,
                "pitch": 53,
                "velocity": 51,
                "duration": 0.6863636363636365,
                "tempo": 120.0
            },
            {
                "start_time": 5.611363636363636,
                "end_time": 6.597727272727273,
                "pitch": 65,
                "velocity": 51,
                "duration": 0.9863636363636363,
                "tempo": 120.0
            },
            {
                "start_time": 6.613636363636363,
                "end_time": 6.8,
                "pitch": 63,
                "velocity": 51,
                "duration": 0.1863636363636365,
                "tempo": 120.0
            },
            {
                "start_time": 6.8159090909090905,
                "end_time": 7.0,
                "pitch": 65,
                "velocity": 51,
                "duration": 0.18409090909090953,
                "tempo": 120.0
            },
            {
                "start_time": 7.015909090909091,
                "end_time": 7.199999999999999,
                "pitch": 67,
                "velocity": 51,
                "duration": 0.18409090909090864,
                "tempo": 120.0
            },
            {
                "start_time": 7.215909090909091,
                "end_time": 8.404545454545454,
                "pitch": 68,
                "velocity": 51,
                "duration": 1.1886363636363635,
                "tempo": 120.0
            },
            {
                "start_time": 8.420454545454545,
                "end_time": 8.60681818181818,
                "pitch": 70,
                "velocity": 51,
                "duration": 0.18636363636363562,
                "tempo": 120.0
            },
            {
                "start_time": 8.622727272727273,
                "end_time": 8.806818181818182,
                "pitch": 68,
                "velocity": 51,
                "duration": 0.18409090909090864,
                "tempo": 120.0
            },
            {
                "start_time": 8.825,
                "end_time": 9.620454545454544,
                "pitch": 67,
                "velocity": 51,
                "duration": 0.795454545454545,
                "tempo": 120.0
            },
            {
                "start_time": 10.431818181818182,
                "end_time": 11.420454545454545,
                "pitch": 65,
                "velocity": 51,
                "duration": 0.9886363636363633,
                "tempo": 120.0
            },
            {
                "start_time": 11.438636363636363,
                "end_time": 11.620454545454544,
                "pitch": 63,
                "velocity": 51,
                "duration": 0.18181818181818166,
                "tempo": 120.0
            },
            {
                "start_time": 11.638636363636364,
                "end_time": 11.822727272727272,
                "pitch": 62,
                "velocity": 51,
                "duration": 0.18409090909090864,
                "tempo": 120.0
            },
            {
                "start_time": 11.838636363636363,
                "end_time": 12.022727272727272,
                "pitch": 60,
                "velocity": 51,
                "duration": 0.18409090909090864,
                "tempo": 120.0
            },
            {
                "start_time": 12.040909090909091,
                "end_time": 13.431818181818182,
                "pitch": 58,
                "velocity": 51,
                "duration": 1.3909090909090907,
                "tempo": 120.0
            },
            {
                "start_time": 13.447727272727272,
                "end_time": 13.631818181818181,
                "pitch": 53,
                "velocity": 51,
                "duration": 0.18409090909090864,
                "tempo": 120.0
            },
            {
                "start_time": 13.647727272727272,
                "end_time": 14.336363636363636,
                "pitch": 53,
                "velocity": 51,
                "duration": 0.6886363636363644,
                "tempo": 120.0
            },
            {
                "start_time": 15.259090909090908,
                "end_time": 16.245454545454546,
                "pitch": 65,
                "velocity": 51,
                "duration": 0.9863636363636381,
                "tempo": 120.0
            },
            {
                "start_time": 16.263636363636362,
                "end_time": 16.44772727272727,
                "pitch": 63,
                "velocity": 51,
                "duration": 0.18409090909090864,
                "tempo": 120.0
            },
            {
                "start_time": 16.46363636363636,
                "end_time": 16.647727272727273,
                "pitch": 65,
                "velocity": 51,
                "duration": 0.1840909090909122,
                "tempo": 120.0
            },
            {
                "start_time": 16.663636363636364,
                "end_time": 16.847727272727273,
                "pitch": 67,
                "velocity": 51,
                "duration": 0.18409090909090864,
                "tempo": 120.0
            },
            {
                "start_time": 16.863636363636363,
                "end_time": 18.052272727272726,
                "pitch": 68,
                "velocity": 51,
                "duration": 1.1886363636363626,
                "tempo": 120.0
            },
            {
                "start_time": 18.070454545454545,
                "end_time": 18.252272727272725,
                "pitch": 70,
                "velocity": 51,
                "duration": 0.18181818181817988,
                "tempo": 120.0
            },
            {
                "start_time": 18.270454545454545,
                "end_time": 18.452272727272728,
                "pitch": 68,
                "velocity": 51,
                "duration": 0.18181818181818343,
                "tempo": 120.0
            },
            {
                "start_time": 18.470454545454544,
                "end_time": 19.25681818181818,
                "pitch": 67,
                "velocity": 51,
                "duration": 0.7863636363636353,
                "tempo": 120.0
            },
            {
                "start_time": 19.272727272727273,
                "end_time": 20.05909090909091,
                "pitch": 65,
                "velocity": 51,
                "duration": 0.7863636363636353,
                "tempo": 120.0
            },
            {
                "start_time": 20.075,
                "end_time": 21.661363636363635,
                "pitch": 72,
                "velocity": 51,
                "duration": 1.586363636363636,
                "tempo": 120.0
            },
            {
                "start_time": 21.677272727272726,
                "end_time": 23.268181818181816,
                "pitch": 75,
                "velocity": 51,
                "duration": 1.59090909090909,
                "tempo": 120.0
            },
            {
                "start_time": 23.284090909090907,
                "end_time": 24.870454545454542,
                "pitch": 73,
                "velocity": 51,
                "duration": 1.586363636363636,
                "tempo": 120.0
            },
            {
                "start_time": 24.886363636363637,
                "end_time": 26.474999999999998,
                "pitch": 73,
                "velocity": 51,
                "duration": 1.5886363636363612,
                "tempo": 120.0
            },
            {
                "start_time": 26.49090909090909,
                "end_time": 28.079545454545453,
                "pitch": 72,
                "velocity": 51,
                "duration": 1.5886363636363647,
                "tempo": 120.0
            },
            {
                "start_time": 28.097727272727273,
                "end_time": 29.68409090909091,
                "pitch": 70,
                "velocity": 51,
                "duration": 1.586363636363636,
                "tempo": 120.0
            },
            {
                "start_time": 29.7,
                "end_time": 30.486363636363635,
                "pitch": 73,
                "velocity": 51,
                "duration": 0.7863636363636353,
                "tempo": 120.0
            }
        ]
    }
}