{
    "track_id": "Power Strike, Aleste (FM) - 02 - The Challenger",
    "mood": "angry",
    "instruments": {
        "Violin": [
            {
                "start_time": 0.1477272727272727,
                "end_time": 1.1681818181818182,
                "pitch": 66,
                "velocity": 80,
                "duration": 1.0204545454545455,
                "tempo": 120.0
            },
            {
                "start_time": 1.218181818181818,
                "end_time": 2.584090909090909,
                "pitch": 66,
                "velocity": 80,
                "duration": 1.365909090909091,
                "tempo": 120.0
            },
            {
                "start_time": 2.65,
                "end_time": 3.709090909090909,
                "pitch": 65,
                "velocity": 80,
                "duration": 1.059090909090909,
                "tempo": 120.0
            },
            {
                "start_time": 3.7613636363636362,
                "end_time": 5.136363636363636,
                "pitch": 64,
                "velocity": 80,
                "duration": 1.3749999999999996,
                "tempo": 120.0
            },
            {
                "start_time": 5.1863636363636365,
                "end_time": 6.420454545454545,
                "pitch": 63,
                "velocity": 80,
                "duration": 1.2340909090909085,
                "tempo": 120.0
            },
            {
                "start_time": 6.470454545454545,
                "end_time": 7.377272727272727,
                "pitch": 64,
                "velocity": 80,
                "duration": 0.9068181818181822,
                "tempo": 120.0
            },
            {
                "start_time": 7.513636363636364,
                "end_time": 10.011363636363637,
                "pitch": 54,
                "velocity": 80,
                "duration": 2.497727272727273,
                "tempo": 120.0
            },
            {
                "start_time": 10.309090909090909,
                "end_time": 10.375,
                "pitch": 67,
                "velocity": 80,
                "duration": 0.06590909090909136,
                "tempo": 120.0
            },
            {
                "start_time": 10.375,
                "end_time": 10.572727272727272,
                "pitch": 69,
                "velocity": 80,
                "duration": 0.1977272727272723,
                "tempo": 120.0
            },
            {
                "start_time": 10.622727272727273,
                "end_time": 10.720454545454546,
                "pitch": 66,
                "velocity": 80,
                "duration": 0.09772727272727266,
                "tempo": 120.0
            },
            {
                "start_time": 10.770454545454545,
                "end_time": 11.036363636363635,
                "pitch": 68,
                "velocity": 80,
                "duration": 0.26590909090909065,
                "tempo": 120.0
            },
            {
                "start_time": 11.086363636363636,
                "end_time": 11.186363636363636,
                "pitch": 64,
                "velocity": 80,
                "duration": 0.09999999999999964,
                "tempo": 120.0
            },
            {
                "start_time": 11.252272727272727,
                "end_time": 12.138636363636364,
                "pitch": 66,
                "velocity": 80,
                "duration": 0.8863636363636367,
                "tempo": 120.0
            },
            {
                "start_time": 12.206818181818182,
                "end_time": 12.222727272727273,
                "pitch": 66,
                "velocity": 80,
                "duration": 0.01590909090909065,
                "tempo": 120.0
            },
            {
                "start_time": 12.222727272727273,
                "end_time": 12.461363636363636,
                "pitch": 64,
                "velocity": 80,
                "duration": 0.2386363636363633,
                "tempo": 120.0
            },
            {
                "start_time": 12.511363636363635,
                "end_time": 12.784090909090908,
                "pitch": 66,
                "velocity": 80,
                "duration": 0.2727272727272734,
                "tempo": 120.0
            },
            {
                "start_time": 12.836363636363636,
                "end_time": 15.022727272727272,
                "pitch": 59,
                "velocity": 80,
                "duration": 2.1863636363636356,
                "tempo": 120.0
            },
            {
                "start_time": 15.174999999999999,
                "end_time": 15.424999999999999,
                "pitch": 66,
                "velocity": 80,
                "duration": 0.25,
                "tempo": 120.0
            },
            {
                "start_time": 15.475,
                "end_time": 15.577272727272726,
                "pitch": 63,
                "velocity": 80,
                "duration": 0.10227272727272663,
                "tempo": 120.0
            },
            {
                "start_time": 15.629545454545454,
                "end_time": 15.904545454545454,
                "pitch": 63,
                "velocity": 80,
                "duration": 0.27500000000000036,
                "tempo": 120.0
            },
            {
                "start_time": 15.95681818181818,
                "end_time": 16.077272727272728,
                "pitch": 61,
                "velocity": 80,
                "duration": 0.12045454545454781,
                "tempo": 120.0
            },
            {
                "start_time": 16.129545454545454,
                "end_time": 17.029545454545453,
                "pitch": 63,
                "velocity": 80,
                "duration": 0.8999999999999986,
                "tempo": 120.0
            },
            {
                "start_time": 17.079545454545453,
                "end_time": 17.34318181818182,
                "pitch": 61,
                "velocity": 80,
                "duration": 0.26363636363636545,
                "tempo": 120.0
            },
            {
                "start_time": 17.393181818181816,
                "end_time": 17.652272727272727,
                "pitch": 63,
                "velocity": 80,
                "duration": 0.2590909090909115,
                "tempo": 120.0
            },
            {
                "start_time": 17.720454545454544,
                "end_time": 20.19772727272727,
                "pitch": 54,
                "velocity": 80,
                "duration": 2.4772727272727266,
                "tempo": 120.0
            },
            {
                "start_time": 20.49772727272727,
                "end_time": 20.75,
                "pitch": 47,
                "velocity": 80,
                "duration": 0.25227272727272876,
                "tempo": 120.0
            },
            {
                "start_time": 20.81590909090909,
                "end_time": 20.831818181818182,
                "pitch": 59,
                "velocity": 80,
                "duration": 0.01590909090909065,
                "tempo": 120.0
            },
            {
                "start_time": 20.831818181818182,
                "end_time": 21.06590909090909,
                "pitch": 57,
                "velocity": 80,
                "duration": 0.23409090909090935,
                "tempo": 120.0
            },
            {
                "start_time": 21.11590909090909,
                "end_time": 21.23409090909091,
                "pitch": 57,
                "velocity": 80,
                "duration": 0.11818181818182083,
                "tempo": 120.0
            },
            {
                "start_time": 21.284090909090907,
                "end_time": 21.552272727272726,
                "pitch": 52,
                "velocity": 80,
                "duration": 0.2681818181818194,
                "tempo": 120.0
            }
        ],
        "Vibraphone": [
            {
                "start_time": 21.602272727272727,
                "end_time": 22.018181818181816,
                "pitch": 54,
                "velocity": 80,
                "duration": 0.41590909090908923,
                "tempo": 120.0
            },
            {
                "start_time": 22.070454545454545,
                "end_time": 22.186363636363634,
                "pitch": 57,
                "velocity": 80,
                "duration": 0.11590909090908852,
                "tempo": 120.0
            },
            {
                "start_time": 22.236363636363635,
                "end_time": 22.336363636363636,
                "pitch": 57,
                "velocity": 80,
                "duration": 0.10000000000000142,
                "tempo": 120.0
            },
            {
                "start_time": 22.386363636363637,
                "end_time": 22.504545454545454,
                "pitch": 54,
                "velocity": 80,
                "duration": 0.11818181818181728,
                "tempo": 120.0
            },
            {
                "start_time": 22.554545454545455,
                "end_time": 22.972727272727273,
                "pitch": 59,
                "velocity": 80,
                "duration": 0.418181818181818,
                "tempo": 120.0
            },
            {
                "start_time": 23.022727272727273,
                "end_time": 23.786363636363635,
                "pitch": 64,
                "velocity": 80,
                "duration": 0.7636363636363619,
                "tempo": 120.0
            },
            {
                "start_time": 23.904545454545453,
                "end_time": 25.29090909090909,
                "pitch": 62,
                "velocity": 80,
                "duration": 1.3863636363636367,
                "tempo": 120.0
            },
            {
                "start_time": 25.34090909090909,
                "end_time": 26.40681818181818,
                "pitch": 50,
                "velocity": 80,
                "duration": 1.0659090909090914,
                "tempo": 120.0
            },
            {
                "start_time": 26.456818181818182,
                "end_time": 26.875,
                "pitch": 57,
                "velocity": 80,
                "duration": 0.418181818181818,
                "tempo": 120.0
            },
            {
                "start_time": 26.943181818181817,
                "end_time": 27.045454545454543,
                "pitch": 61,
                "velocity": 80,
                "duration": 0.10227272727272663,
                "tempo": 120.0
            },
            {
                "start_time": 27.095454545454544,
                "end_time": 27.19772727272727,
                "pitch": 59,
                "velocity": 80,
                "duration": 0.10227272727272663,
                "tempo": 120.0
            },
            {
                "start_time": 27.26590909090909,
                "end_time": 27.284090909090907,
                "pitch": 59,
                "velocity": 80,
                "duration": 0.018181818181815856,
                "tempo": 120.0
            },
            {
                "start_time": 27.284090909090907,
                "end_time": 27.368181818181817,
                "pitch": 57,
                "velocity": 80,
                "duration": 0.08409090909091077,
                "tempo": 120.0
            },
            {
                "start_time": 27.420454545454543,
                "end_time": 27.690909090909088,
                "pitch": 62,
                "velocity": 80,
                "duration": 0.2704545454545446,
                "tempo": 120.0
            },
            {
                "start_time": 27.738636363636363,
                "end_time": 30.227272727272727,
                "pitch": 66,
                "velocity": 80,
                "duration": 2.4886363636363633,
                "tempo": 120.0
            }
        ],
        "Lead 2 (sawtooth)": [
            {
                "start_time": 0.011363636363636364,
                "end_time": 0.9340909090909091,
                "pitch": 78,
                "velocity": 64,
                "duration": 0.9227272727272727,
                "tempo": 120.0
            },
            {
                "start_time": 0.9863636363636363,
                "end_time": 2.352272727272727,
                "pitch": 78,
                "velocity": 64,
                "duration": 1.3659090909090907,
                "tempo": 120.0
            },
            {
                "start_time": 2.4022727272727273,
                "end_time": 3.4704545454545452,
                "pitch": 77,
                "velocity": 64,
                "duration": 1.068181818181818,
                "tempo": 120.0
            },
            {
                "start_time": 3.5227272727272725,
                "end_time": 4.902272727272727,
                "pitch": 76,
                "velocity": 64,
                "duration": 1.3795454545454549,
                "tempo": 120.0
            },
            {
                "start_time": 4.952272727272727,
                "end_time": 6.186363636363636,
                "pitch": 75,
                "velocity": 64,
                "duration": 1.2340909090909085,
                "tempo": 120.0
            },
            {
                "start_time": 6.236363636363636,
                "end_time": 7.461363636363636,
                "pitch": 76,
                "velocity": 64,
                "duration": 1.2249999999999996,
                "tempo": 120.0
            },
            {
                "start_time": 7.513636363636364,
                "end_time": 10.011363636363637,
                "pitch": 71,
                "velocity": 64,
                "duration": 2.497727272727273,
                "tempo": 120.0
            },
            {
                "start_time": 10.077272727272726,
                "end_time": 10.325,
                "pitch": 83,
                "velocity": 64,
                "duration": 0.24772727272727302,
                "tempo": 120.0
            },
            {
                "start_time": 10.375,
                "end_time": 10.49090909090909,
                "pitch": 78,
                "velocity": 64,
                "duration": 0.1159090909090903,
                "tempo": 120.0
            },
            {
                "start_time": 10.538636363636362,
                "end_time": 10.804545454545455,
                "pitch": 80,
                "velocity": 64,
                "duration": 0.2659090909090924,
                "tempo": 120.0
            },
            {
                "start_time": 10.854545454545454,
                "end_time": 10.952272727272726,
                "pitch": 76,
                "velocity": 64,
                "duration": 0.09772727272727266,
                "tempo": 120.0
            },
            {
                "start_time": 11.002272727272727,
                "end_time": 11.904545454545454,
                "pitch": 78,
                "velocity": 64,
                "duration": 0.9022727272727273,
                "tempo": 120.0
            },
            {
                "start_time": 11.954545454545453,
                "end_time": 12.222727272727273,
                "pitch": 76,
                "velocity": 64,
                "duration": 0.2681818181818194,
                "tempo": 120.0
            },
            {
                "start_time": 12.272727272727272,
                "end_time": 12.545454545454545,
                "pitch": 78,
                "velocity": 64,
                "duration": 0.2727272727272734,
                "tempo": 120.0
            },
            {
                "start_time": 12.597727272727273,
                "end_time": 15.10681818181818,
                "pitch": 71,
                "velocity": 64,
                "duration": 2.509090909090908,
                "tempo": 120.0
            },
            {
                "start_time": 15.156818181818181,
                "end_time": 15.424999999999999,
                "pitch": 83,
                "velocity": 64,
                "duration": 0.26818181818181763,
                "tempo": 120.0
            },
            {
                "start_time": 15.475,
                "end_time": 15.577272727272726,
                "pitch": 78,
                "velocity": 64,
                "duration": 0.10227272727272663,
                "tempo": 120.0
            },
            {
                "start_time": 15.629545454545454,
                "end_time": 15.904545454545454,
                "pitch": 80,
                "velocity": 64,
                "duration": 0.27500000000000036,
                "tempo": 120.0
            },
            {
                "start_time": 15.95681818181818,
                "end_time": 16.077272727272728,
                "pitch": 76,
                "velocity": 64,
                "duration": 0.12045454545454781,
                "tempo": 120.0
            },
            {
                "start_time": 16.129545454545454,
                "end_time": 17.029545454545453,
                "pitch": 78,
                "velocity": 64,
                "duration": 0.8999999999999986,
                "tempo": 120.0
            },
            {
                "start_time": 17.079545454545453,
                "end_time": 17.34318181818182,
                "pitch": 76,
                "velocity": 64,
                "duration": 0.26363636363636545,
                "tempo": 120.0
            },
            {
                "start_time": 17.393181818181816,
                "end_time": 17.652272727272727,
                "pitch": 78,
                "velocity": 64,
                "duration": 0.2590909090909115,
                "tempo": 120.0
            },
            {
                "start_time": 17.720454545454544,
                "end_time": 20.19772727272727,
                "pitch": 71,
                "velocity": 64,
                "duration": 2.4772727272727266,
                "tempo": 120.0
            }
        ],
        "Acoustic Bass": [
            {
                "start_time": 0.011363636363636364,
                "end_time": 0.09545454545454544,
                "pitch": 45,
                "velocity": 80,
                "duration": 0.08409090909090908,
                "tempo": 120.0
            },
            {
                "start_time": 0.09545454545454544,
                "end_time": 0.19999999999999998,
                "pitch": 47,
                "velocity": 80,
                "duration": 0.10454545454545454,
                "tempo": 120.0
            },
            {
                "start_time": 0.19999999999999998,
                "end_time": 0.35,
                "pitch": 47,
                "velocity": 80,
                "duration": 0.15,
                "tempo": 120.0
            },
            {
                "start_time": 0.35,
                "end_time": 0.5181818181818182,
                "pitch": 45,
                "velocity": 80,
                "duration": 0.1681818181818182,
                "tempo": 120.0
            },
            {
                "start_time": 0.5181818181818182,
                "end_time": 0.6681818181818181,
                "pitch": 47,
                "velocity": 80,
                "duration": 0.1499999999999999,
                "tempo": 120.0
            },
            {
                "start_time": 0.6681818181818181,
                "end_time": 0.8340909090909091,
                "pitch": 47,
                "velocity": 80,
                "duration": 0.165909090909091,
                "tempo": 120.0
            },
            {
                "start_time": 0.8340909090909091,
                "end_time": 0.9863636363636363,
                "pitch": 40,
                "velocity": 80,
                "duration": 0.15227272727272723,
                "tempo": 120.0
            },
            {
                "start_time": 0.9863636363636363,
                "end_time": 1.1522727272727271,
                "pitch": 40,
                "velocity": 80,
                "duration": 0.16590909090909078,
                "tempo": 120.0
            },
            {
                "start_time": 1.1522727272727271,
                "end_time": 1.3022727272727272,
                "pitch": 45,
                "velocity": 80,
                "duration": 0.15000000000000013,
                "tempo": 120.0
            },
            {
                "start_time": 1.3022727272727272,
                "end_time": 1.4704545454545455,
                "pitch": 47,
                "velocity": 80,
                "duration": 0.1681818181818182,
                "tempo": 120.0
            },
            {
                "start_time": 1.4704545454545455,
                "end_time": 1.6204545454545454,
                "pitch": 47,
                "velocity": 80,
                "duration": 0.1499999999999999,
                "tempo": 120.0
            },
            {
                "start_time": 1.6204545454545454,
                "end_time": 1.7704545454545453,
                "pitch": 45,
                "velocity": 80,
                "duration": 0.1499999999999999,
                "tempo": 120.0
            },
            {
                "start_time": 1.7704545454545453,
                "end_time": 1.9386363636363635,
                "pitch": 47,
                "velocity": 80,
                "duration": 0.1681818181818182,
                "tempo": 120.0
            },
            {
                "start_time": 1.9386363636363635,
                "end_time": 2.0886363636363634,
                "pitch": 47,
                "velocity": 80,
                "duration": 0.1499999999999999,
                "tempo": 120.0
            },
            {
                "start_time": 2.0886363636363634,
                "end_time": 2.2545454545454544,
                "pitch": 40,
                "velocity": 80,
                "duration": 0.165909090909091,
                "tempo": 120.0
            },
            {
                "start_time": 2.2545454545454544,
                "end_time": 2.4022727272727273,
                "pitch": 40,
                "velocity": 80,
                "duration": 0.14772727272727293,
                "tempo": 120.0
            },
            {
                "start_time": 2.4022727272727273,
                "end_time": 2.568181818181818,
                "pitch": 45,
                "velocity": 80,
                "duration": 0.16590909090909056,
                "tempo": 120.0
            },
            {
                "start_time": 2.568181818181818,
                "end_time": 2.715909090909091,
                "pitch": 47,
                "velocity": 80,
                "duration": 0.14772727272727293,
                "tempo": 120.0
            },
            {
                "start_time": 2.715909090909091,
                "end_time": 2.884090909090909,
                "pitch": 47,
                "velocity": 80,
                "duration": 0.168181818181818,
                "tempo": 120.0
            },
            {
                "start_time": 2.884090909090909,
                "end_time": 3.0340909090909087,
                "pitch": 45,
                "velocity": 80,
                "duration": 0.1499999999999999,
                "tempo": 120.0
            },
            {
                "start_time": 3.0340909090909087,
                "end_time": 3.1999999999999997,
                "pitch": 47,
                "velocity": 80,
                "duration": 0.165909090909091,
                "tempo": 120.0
            },
            {
                "start_time": 3.1999999999999997,
                "end_time": 3.352272727272727,
                "pitch": 47,
                "velocity": 80,
                "duration": 0.15227272727272734,
                "tempo": 120.0
            },
            {
                "start_time": 3.352272727272727,
                "end_time": 3.5227272727272725,
                "pitch": 40,
                "velocity": 80,
                "duration": 0.17045454545454541,
                "tempo": 120.0
            },
            {
                "start_time": 3.5227272727272725,
                "end_time": 3.675,
                "pitch": 40,
                "velocity": 80,
                "duration": 0.15227272727272734,
                "tempo": 120.0
            },
            {
                "start_time": 3.675,
                "end_time": 3.8454545454545452,
                "pitch": 45,
                "velocity": 80,
                "duration": 0.17045454545454541,
                "tempo": 120.0
            },
            {
                "start_time": 3.8454545454545452,
                "end_time": 4.0,
                "pitch": 47,
                "velocity": 80,
                "duration": 0.15454545454545476,
                "tempo": 120.0
            },
            {
                "start_time": 4.0,
                "end_time": 4.168181818181818,
                "pitch": 47,
                "velocity": 80,
                "duration": 0.168181818181818,
                "tempo": 120.0
            },
            {
                "start_time": 4.168181818181818,
                "end_time": 4.318181818181818,
                "pitch": 45,
                "velocity": 80,
                "duration": 0.15000000000000036,
                "tempo": 120.0
            },
            {
                "start_time": 4.318181818181818,
                "end_time": 4.4840909090909085,
                "pitch": 47,
                "velocity": 80,
                "duration": 0.16590909090909012,
                "tempo": 120.0
            },
            {
                "start_time": 4.4840909090909085,
                "end_time": 4.634090909090909,
                "pitch": 47,
                "velocity": 80,
                "duration": 0.15000000000000036,
                "tempo": 120.0
            },
            {
                "start_time": 4.634090909090909,
                "end_time": 4.802272727272727,
                "pitch": 40,
                "velocity": 80,
                "duration": 0.168181818181818,
                "tempo": 120.0
            },
            {
                "start_time": 4.802272727272727,
                "end_time": 4.952272727272727,
                "pitch": 40,
                "velocity": 80,
                "duration": 0.15000000000000036,
                "tempo": 120.0
            },
            {
                "start_time": 4.952272727272727,
                "end_time": 5.120454545454545,
                "pitch": 43,
                "velocity": 80,
                "duration": 0.168181818181818,
                "tempo": 120.0
            },
            {
                "start_time": 5.120454545454545,
                "end_time": 5.2704545454545455,
                "pitch": 43,
                "velocity": 80,
                "duration": 0.15000000000000036,
                "tempo": 120.0
            },
            {
                "start_time": 5.2704545454545455,
                "end_time": 5.4409090909090905,
                "pitch": 43,
                "velocity": 80,
                "duration": 0.17045454545454497,
                "tempo": 120.0
            },
            {
                "start_time": 5.4409090909090905,
                "end_time": 5.593181818181818,
                "pitch": 43,
                "velocity": 80,
                "duration": 0.15227272727272734,
                "tempo": 120.0
            },
            {
                "start_time": 5.593181818181818,
                "end_time": 5.765909090909091,
                "pitch": 43,
                "velocity": 80,
                "duration": 0.17272727272727284,
                "tempo": 120.0
            },
            {
                "start_time": 5.765909090909091,
                "end_time": 5.918181818181818,
                "pitch": 43,
                "velocity": 80,
                "duration": 0.15227272727272734,
                "tempo": 120.0
            },
            {
                "start_time": 5.918181818181818,
                "end_time": 6.0681818181818175,
                "pitch": 43,
                "velocity": 80,
                "duration": 0.14999999999999947,
                "tempo": 120.0
            },
            {
                "start_time": 6.0681818181818175,
                "end_time": 6.236363636363636,
                "pitch": 43,
                "velocity": 80,
                "duration": 0.16818181818181888,
                "tempo": 120.0
            },
            {
                "start_time": 6.236363636363636,
                "end_time": 6.386363636363636,
                "pitch": 42,
                "velocity": 80,
                "duration": 0.14999999999999947,
                "tempo": 120.0
            },
            {
                "start_time": 6.386363636363636,
                "end_time": 6.554545454545454,
                "pitch": 42,
                "velocity": 80,
                "duration": 0.168181818181818,
                "tempo": 120.0
            },
            {
                "start_time": 6.554545454545454,
                "end_time": 6.704545454545454,
                "pitch": 42,
                "velocity": 80,
                "duration": 0.15000000000000036,
                "tempo": 120.0
            },
            {
                "start_time": 6.704545454545454,
                "end_time": 6.870454545454545,
                "pitch": 42,
                "velocity": 80,
                "duration": 0.165909090909091,
                "tempo": 120.0
            },
            {
                "start_time": 6.870454545454545,
                "end_time": 7.0204545454545455,
                "pitch": 42,
                "velocity": 80,
                "duration": 0.15000000000000036,
                "tempo": 120.0
            },
            {
                "start_time": 7.0204545454545455,
                "end_time": 7.1886363636363635,
                "pitch": 42,
                "velocity": 80,
                "duration": 0.168181818181818,
                "tempo": 120.0
            },
            {
                "start_time": 7.1886363636363635,
                "end_time": 7.343181818181818,
                "pitch": 43,
                "velocity": 80,
                "duration": 0.15454545454545432,
                "tempo": 120.0
            },
            {
                "start_time": 7.343181818181818,
                "end_time": 7.513636363636364,
                "pitch": 43,
                "velocity": 80,
                "duration": 0.17045454545454586,
                "tempo": 120.0
            },
            {
                "start_time": 7.513636363636364,
                "end_time": 7.66590909090909,
                "pitch": 44,
                "velocity": 80,
                "duration": 0.15227272727272645,
                "tempo": 120.0
            },
            {
                "start_time": 7.66590909090909,
                "end_time": 7.836363636363636,
                "pitch": 47,
                "velocity": 80,
                "duration": 0.17045454545454586,
                "tempo": 120.0
            },
            {
                "start_time": 7.836363636363636,
                "end_time": 7.988636363636363,
                "pitch": 47,
                "velocity": 80,
                "duration": 0.15227272727272734,
                "tempo": 120.0
            },
            {
                "start_time": 7.988636363636363,
                "end_time": 8.154545454545454,
                "pitch": 45,
                "velocity": 80,
                "duration": 0.165909090909091,
                "tempo": 120.0
            },
            {
                "start_time": 8.154545454545454,
                "end_time": 8.304545454545455,
                "pitch": 47,
                "velocity": 80,
                "duration": 0.15000000000000036,
                "tempo": 120.0
            },
            {
                "start_time": 8.304545454545455,
                "end_time": 8.472727272727273,
                "pitch": 47,
                "velocity": 80,
                "duration": 0.168181818181818,
                "tempo": 120.0
            },
            {
                "start_time": 8.472727272727273,
                "end_time": 8.622727272727273,
                "pitch": 40,
                "velocity": 80,
                "duration": 0.15000000000000036,
                "tempo": 120.0
            },
            {
                "start_time": 8.622727272727273,
                "end_time": 8.788636363636364,
                "pitch": 40,
                "velocity": 80,
                "duration": 0.165909090909091,
                "tempo": 120.0
            },
            {
                "start_time": 8.788636363636364,
                "end_time": 8.940909090909091,
                "pitch": 45,
                "velocity": 80,
                "duration": 0.15227272727272734,
                "tempo": 120.0
            },
            {
                "start_time": 8.940909090909091,
                "end_time": 9.10681818181818,
                "pitch": 47,
                "velocity": 80,
                "duration": 0.16590909090908923,
                "tempo": 120.0
            },
            {
                "start_time": 9.10681818181818,
                "end_time": 9.261363636363637,
                "pitch": 47,
                "velocity": 80,
                "duration": 0.1545454545454561,
                "tempo": 120.0
            },
            {
                "start_time": 9.261363636363637,
                "end_time": 9.434090909090909,
                "pitch": 45,
                "velocity": 80,
                "duration": 0.17272727272727195,
                "tempo": 120.0
            },
            {
                "start_time": 9.434090909090909,
                "end_time": 9.59090909090909,
                "pitch": 47,
                "velocity": 80,
                "duration": 0.1568181818181813,
                "tempo": 120.0
            },
            {
                "start_time": 9.59090909090909,
                "end_time": 9.761363636363637,
                "pitch": 47,
                "velocity": 80,
                "duration": 0.17045454545454675,
                "tempo": 120.0
            },
            {
                "start_time": 9.761363636363637,
                "end_time": 9.911363636363635,
                "pitch": 40,
                "velocity": 80,
                "duration": 0.14999999999999858,
                "tempo": 120.0
            },
            {
                "start_time": 9.911363636363635,
                "end_time": 10.077272727272726,
                "pitch": 40,
                "velocity": 80,
                "duration": 0.165909090909091,
                "tempo": 120.0
            },
            {
                "start_time": 10.077272727272726,
                "end_time": 10.225,
                "pitch": 45,
                "velocity": 80,
                "duration": 0.14772727272727337,
                "tempo": 120.0
            },
            {
                "start_time": 10.225,
                "end_time": 10.375,
                "pitch": 47,
                "velocity": 80,
                "duration": 0.15000000000000036,
                "tempo": 120.0
            },
            {
                "start_time": 10.375,
                "end_time": 10.538636363636362,
                "pitch": 47,
                "velocity": 80,
                "duration": 0.16363636363636225,
                "tempo": 120.0
            },
            {
                "start_time": 10.538636363636362,
                "end_time": 10.688636363636363,
                "pitch": 45,
                "velocity": 80,
                "duration": 0.15000000000000036,
                "tempo": 120.0
            },
            {
                "start_time": 10.688636363636363,
                "end_time": 10.854545454545454,
                "pitch": 47,
                "velocity": 80,
                "duration": 0.165909090909091,
                "tempo": 120.0
            },
            {
                "start_time": 10.854545454545454,
                "end_time": 11.002272727272727,
                "pitch": 47,
                "velocity": 80,
                "duration": 0.14772727272727337,
                "tempo": 120.0
            },
            {
                "start_time": 11.002272727272727,
                "end_time": 11.170454545454545,
                "pitch": 40,
                "velocity": 80,
                "duration": 0.168181818181818,
                "tempo": 120.0
            },
            {
                "start_time": 11.170454545454545,
                "end_time": 11.320454545454545,
                "pitch": 40,
                "velocity": 80,
                "duration": 0.15000000000000036,
                "tempo": 120.0
            },
            {
                "start_time": 11.320454545454545,
                "end_time": 11.486363636363636,
                "pitch": 45,
                "velocity": 80,
                "duration": 0.165909090909091,
                "tempo": 120.0
            },
            {
                "start_time": 11.486363636363636,
                "end_time": 11.638636363636364,
                "pitch": 47,
                "velocity": 80,
                "duration": 0.15227272727272734,
                "tempo": 120.0
            },
            {
                "start_time": 11.638636363636364,
                "end_time": 11.804545454545455,
                "pitch": 47,
                "velocity": 80,
                "duration": 0.165909090909091,
                "tempo": 120.0
            },
            {
                "start_time": 11.804545454545455,
                "end_time": 11.954545454545453,
                "pitch": 45,
                "velocity": 80,
                "duration": 0.14999999999999858,
                "tempo": 120.0
            },
            {
                "start_time": 11.954545454545453,
                "end_time": 12.122727272727273,
                "pitch": 47,
                "velocity": 80,
                "duration": 0.16818181818181976,
                "tempo": 120.0
            },
            {
                "start_time": 12.122727272727273,
                "end_time": 12.272727272727272,
                "pitch": 47,
                "velocity": 80,
                "duration": 0.14999999999999858,
                "tempo": 120.0
            },
            {
                "start_time": 12.272727272727272,
                "end_time": 12.443181818181818,
                "pitch": 40,
                "velocity": 80,
                "duration": 0.17045454545454675,
                "tempo": 120.0
            },
            {
                "start_time": 12.443181818181818,
                "end_time": 12.597727272727273,
                "pitch": 40,
                "velocity": 80,
                "duration": 0.15454545454545432,
                "tempo": 120.0
            },
            {
                "start_time": 12.597727272727273,
                "end_time": 12.768181818181818,
                "pitch": 45,
                "velocity": 80,
                "duration": 0.17045454545454497,
                "tempo": 120.0
            },
            {
                "start_time": 12.768181818181818,
                "end_time": 12.920454545454545,
                "pitch": 47,
                "velocity": 80,
                "duration": 0.15227272727272734,
                "tempo": 120.0
            },
            {
                "start_time": 12.920454545454545,
                "end_time": 13.088636363636363,
                "pitch": 47,
                "velocity": 80,
                "duration": 0.168181818181818,
                "tempo": 120.0
            },
            {
                "start_time": 13.088636363636363,
                "end_time": 13.238636363636363,
                "pitch": 45,
                "velocity": 80,
                "duration": 0.15000000000000036,
                "tempo": 120.0
            },
            {
                "start_time": 13.238636363636363,
                "end_time": 13.406818181818181,
                "pitch": 47,
                "velocity": 80,
                "duration": 0.168181818181818,
                "tempo": 120.0
            },
            {
                "start_time": 13.406818181818181,
                "end_time": 13.556818181818182,
                "pitch": 47,
                "velocity": 80,
                "duration": 0.15000000000000036,
                "tempo": 120.0
            },
            {
                "start_time": 13.556818181818182,
                "end_time": 13.722727272727273,
                "pitch": 40,
                "velocity": 80,
                "duration": 0.165909090909091,
                "tempo": 120.0
            },
            {
                "start_time": 13.722727272727273,
                "end_time": 13.872727272727271,
                "pitch": 40,
                "velocity": 80,
                "duration": 0.14999999999999858,
                "tempo": 120.0
            },
            {
                "start_time": 13.872727272727271,
                "end_time": 14.040909090909091,
                "pitch": 45,
                "velocity": 80,
                "duration": 0.16818181818181976,
                "tempo": 120.0
            },
            {
                "start_time": 14.040909090909091,
                "end_time": 14.19090909090909,
                "pitch": 47,
                "velocity": 80,
                "duration": 0.14999999999999858,
                "tempo": 120.0
            },
            {
                "start_time": 14.19090909090909,
                "end_time": 14.361363636363636,
                "pitch": 47,
                "velocity": 80,
                "duration": 0.17045454545454675,
                "tempo": 120.0
            },
            {
                "start_time": 14.361363636363636,
                "end_time": 14.51590909090909,
                "pitch": 45,
                "velocity": 80,
                "duration": 0.15454545454545432,
                "tempo": 120.0
            },
            {
                "start_time": 14.51590909090909,
                "end_time": 14.668181818181818,
                "pitch": 47,
                "velocity": 80,
                "duration": 0.15227272727272734,
                "tempo": 120.0
            },
            {
                "start_time": 14.668181818181818,
                "end_time": 14.838636363636363,
                "pitch": 47,
                "velocity": 80,
                "duration": 0.17045454545454497,
                "tempo": 120.0
            },
            {
                "start_time": 14.838636363636363,
                "end_time": 14.99090909090909,
                "pitch": 40,
                "velocity": 80,
                "duration": 0.15227272727272734,
                "tempo": 120.0
            },
            {
                "start_time": 14.99090909090909,
                "end_time": 15.174999999999999,
                "pitch": 40,
                "velocity": 80,
                "duration": 0.18409090909090864,
                "tempo": 120.0
            },
            {
                "start_time": 15.174999999999999,
                "end_time": 15.306818181818182,
                "pitch": 45,
                "velocity": 80,
                "duration": 0.13181818181818272,
                "tempo": 120.0
            },
            {
                "start_time": 15.306818181818182,
                "end_time": 15.475,
                "pitch": 47,
                "velocity": 80,
                "duration": 0.168181818181818,
                "tempo": 120.0
            },
            {
                "start_time": 15.475,
                "end_time": 15.629545454545454,
                "pitch": 47,
                "velocity": 80,
                "duration": 0.15454545454545432,
                "tempo": 120.0
            },
            {
                "start_time": 15.629545454545454,
                "end_time": 15.802272727272726,
                "pitch": 45,
                "velocity": 80,
                "duration": 0.17272727272727195,
                "tempo": 120.0
            },
            {
                "start_time": 15.802272727272726,
                "end_time": 15.95681818181818,
                "pitch": 47,
                "velocity": 80,
                "duration": 0.15454545454545432,
                "tempo": 120.0
            },
            {
                "start_time": 15.95681818181818,
                "end_time": 16.129545454545454,
                "pitch": 47,
                "velocity": 80,
                "duration": 0.17272727272727373,
                "tempo": 120.0
            },
            {
                "start_time": 16.129545454545454,
                "end_time": 16.28181818181818,
                "pitch": 40,
                "velocity": 80,
                "duration": 0.15227272727272734,
                "tempo": 120.0
            },
            {
                "start_time": 16.28181818181818,
                "end_time": 16.44772727272727,
                "pitch": 40,
                "velocity": 80,
                "duration": 0.16590909090908923,
                "tempo": 120.0
            },
            {
                "start_time": 16.44772727272727,
                "end_time": 16.597727272727273,
                "pitch": 45,
                "velocity": 80,
                "duration": 0.15000000000000213,
                "tempo": 120.0
            },
            {
                "start_time": 16.597727272727273,
                "end_time": 16.76590909090909,
                "pitch": 47,
                "velocity": 80,
                "duration": 0.168181818181818,
                "tempo": 120.0
            },
            {
                "start_time": 16.76590909090909,
                "end_time": 16.913636363636364,
                "pitch": 47,
                "velocity": 80,
                "duration": 0.14772727272727337,
                "tempo": 120.0
            },
            {
                "start_time": 16.913636363636364,
                "end_time": 17.079545454545453,
                "pitch": 45,
                "velocity": 80,
                "duration": 0.16590909090908923,
                "tempo": 120.0
            },
            {
                "start_time": 17.079545454545453,
                "end_time": 17.227272727272727,
                "pitch": 47,
                "velocity": 80,
                "duration": 0.14772727272727337,
                "tempo": 120.0
            },
            {
                "start_time": 17.227272727272727,
                "end_time": 17.393181818181816,
                "pitch": 47,
                "velocity": 80,
                "duration": 0.16590909090908923,
                "tempo": 120.0
            },
            {
                "start_time": 17.393181818181816,
                "end_time": 17.547727272727272,
                "pitch": 40,
                "velocity": 80,
                "duration": 0.1545454545454561,
                "tempo": 120.0
            },
            {
                "start_time": 17.547727272727272,
                "end_time": 17.720454545454544,
                "pitch": 40,
                "velocity": 80,
                "duration": 0.17272727272727195,
                "tempo": 120.0
            },
            {
                "start_time": 17.720454545454544,
                "end_time": 17.738636363636363,
                "pitch": 54,
                "velocity": 80,
                "duration": 0.01818181818181941,
                "tempo": 120.0
            },
            {
                "start_time": 17.738636363636363,
                "end_time": 17.875,
                "pitch": 45,
                "velocity": 80,
                "duration": 0.1363636363636367,
                "tempo": 120.0
            },
            {
                "start_time": 17.875,
                "end_time": 18.047727272727272,
                "pitch": 47,
                "velocity": 80,
                "duration": 0.17272727272727195,
                "tempo": 120.0
            },
            {
                "start_time": 18.047727272727272,
                "end_time": 18.19772727272727,
                "pitch": 47,
                "velocity": 80,
                "duration": 0.14999999999999858,
                "tempo": 120.0
            },
            {
                "start_time": 18.19772727272727,
                "end_time": 18.363636363636363,
                "pitch": 45,
                "velocity": 80,
                "duration": 0.16590909090909278,
                "tempo": 120.0
            },
            {
                "start_time": 18.363636363636363,
                "end_time": 18.511363636363637,
                "pitch": 47,
                "velocity": 80,
                "duration": 0.14772727272727337,
                "tempo": 120.0
            },
            {
                "start_time": 18.511363636363637,
                "end_time": 18.677272727272726,
                "pitch": 47,
                "velocity": 80,
                "duration": 0.16590909090908923,
                "tempo": 120.0
            },
            {
                "start_time": 18.677272727272726,
                "end_time": 18.827272727272728,
                "pitch": 40,
                "velocity": 80,
                "duration": 0.15000000000000213,
                "tempo": 120.0
            },
            {
                "start_time": 18.827272727272728,
                "end_time": 18.977272727272727,
                "pitch": 40,
                "velocity": 80,
                "duration": 0.14999999999999858,
                "tempo": 120.0
            },
            {
                "start_time": 18.977272727272727,
                "end_time": 19.145454545454545,
                "pitch": 45,
                "velocity": 80,
                "duration": 0.168181818181818,
                "tempo": 120.0
            },
            {
                "start_time": 19.145454545454545,
                "end_time": 19.295454545454543,
                "pitch": 47,
                "velocity": 80,
                "duration": 0.14999999999999858,
                "tempo": 120.0
            },
            {
                "start_time": 19.295454545454543,
                "end_time": 19.46363636363636,
                "pitch": 47,
                "velocity": 80,
                "duration": 0.168181818181818,
                "tempo": 120.0
            },
            {
                "start_time": 19.46363636363636,
                "end_time": 19.613636363636363,
                "pitch": 45,
                "velocity": 80,
                "duration": 0.15000000000000213,
                "tempo": 120.0
            },
            {
                "start_time": 19.613636363636363,
                "end_time": 19.779545454545453,
                "pitch": 47,
                "velocity": 80,
                "duration": 0.16590909090908923,
                "tempo": 120.0
            },
            {
                "start_time": 19.779545454545453,
                "end_time": 19.929545454545455,
                "pitch": 47,
                "velocity": 80,
                "duration": 0.15000000000000213,
                "tempo": 120.0
            },
            {
                "start_time": 19.929545454545455,
                "end_time": 20.097727272727273,
                "pitch": 40,
                "velocity": 80,
                "duration": 0.168181818181818,
                "tempo": 120.0
            },
            {
                "start_time": 20.097727272727273,
                "end_time": 20.263636363636362,
                "pitch": 40,
                "velocity": 80,
                "duration": 0.16590909090908923,
                "tempo": 120.0
            },
            {
                "start_time": 20.263636363636362,
                "end_time": 20.41590909090909,
                "pitch": 50,
                "velocity": 80,
                "duration": 0.15227272727272734,
                "tempo": 120.0
            },
            {
                "start_time": 20.41590909090909,
                "end_time": 20.56590909090909,
                "pitch": 50,
                "velocity": 80,
                "duration": 0.15000000000000213,
                "tempo": 120.0
            },
            {
                "start_time": 20.56590909090909,
                "end_time": 20.73181818181818,
                "pitch": 50,
                "velocity": 80,
                "duration": 0.16590909090908923,
                "tempo": 120.0
            },
            {
                "start_time": 20.73181818181818,
                "end_time": 20.88181818181818,
                "pitch": 50,
                "velocity": 80,
                "duration": 0.14999999999999858,
                "tempo": 120.0
            },
            {
                "start_time": 20.88181818181818,
                "end_time": 21.05,
                "pitch": 50,
                "velocity": 80,
                "duration": 0.16818181818182154,
                "tempo": 120.0
            },
            {
                "start_time": 21.05,
                "end_time": 21.2,
                "pitch": 50,
                "velocity": 80,
                "duration": 0.14999999999999858,
                "tempo": 120.0
            },
            {
                "start_time": 21.2,
                "end_time": 21.368181818181817,
                "pitch": 50,
                "velocity": 80,
                "duration": 0.168181818181818,
                "tempo": 120.0
            },
            {
                "start_time": 21.368181818181817,
                "end_time": 21.518181818181816,
                "pitch": 50,
                "velocity": 80,
                "duration": 0.14999999999999858,
                "tempo": 120.0
            },
            {
                "start_time": 21.518181818181816,
                "end_time": 21.68409090909091,
                "pitch": 40,
                "velocity": 80,
                "duration": 0.16590909090909278,
                "tempo": 120.0
            },
            {
                "start_time": 21.68409090909091,
                "end_time": 21.836363636363636,
                "pitch": 40,
                "velocity": 80,
                "duration": 0.15227272727272734,
                "tempo": 120.0
            },
            {
                "start_time": 21.836363636363636,
                "end_time": 22.002272727272725,
                "pitch": 40,
                "velocity": 80,
                "duration": 0.16590909090908923,
                "tempo": 120.0
            },
            {
                "start_time": 22.002272727272725,
                "end_time": 22.152272727272727,
                "pitch": 40,
                "velocity": 80,
                "duration": 0.15000000000000213,
                "tempo": 120.0
            },
            {
                "start_time": 22.152272727272727,
                "end_time": 22.320454545454545,
                "pitch": 40,
                "velocity": 80,
                "duration": 0.168181818181818,
                "tempo": 120.0
            },
            {
                "start_time": 22.320454545454545,
                "end_time": 22.470454545454544,
                "pitch": 40,
                "velocity": 80,
                "duration": 0.14999999999999858,
                "tempo": 120.0
            },
            {
                "start_time": 22.470454545454544,
                "end_time": 22.638636363636362,
                "pitch": 40,
                "velocity": 80,
                "duration": 0.168181818181818,
                "tempo": 120.0
            },
            {
                "start_time": 22.638636363636362,
                "end_time": 22.788636363636364,
                "pitch": 40,
                "velocity": 80,
                "duration": 0.15000000000000213,
                "tempo": 120.0
            },
            {
                "start_time": 22.788636363636364,
                "end_time": 22.954545454545453,
                "pitch": 59,
                "velocity": 80,
                "duration": 0.16590909090908923,
                "tempo": 120.0
            },
            {
                "start_time": 22.954545454545453,
                "end_time": 23.104545454545452,
                "pitch": 47,
                "velocity": 80,
                "duration": 0.14999999999999858,
                "tempo": 120.0
            },
            {
                "start_time": 23.104545454545452,
                "end_time": 23.259090909090908,
                "pitch": 47,
                "velocity": 80,
                "duration": 0.1545454545454561,
                "tempo": 120.0
            },
            {
                "start_time": 23.259090909090908,
                "end_time": 23.429545454545455,
                "pitch": 59,
                "velocity": 80,
                "duration": 0.17045454545454675,
                "tempo": 120.0
            },
            {
                "start_time": 23.429545454545455,
                "end_time": 23.584090909090907,
                "pitch": 47,
                "velocity": 80,
                "duration": 0.15454545454545254,
                "tempo": 120.0
            },
            {
                "start_time": 23.584090909090907,
                "end_time": 23.754545454545454,
                "pitch": 47,
                "velocity": 80,
                "duration": 0.17045454545454675,
                "tempo": 120.0
            },
            {
                "start_time": 23.754545454545454,
                "end_time": 23.904545454545453,
                "pitch": 59,
                "velocity": 80,
                "duration": 0.14999999999999858,
                "tempo": 120.0
            },
            {
                "start_time": 23.904545454545453,
                "end_time": 24.070454545454545,
                "pitch": 47,
                "velocity": 80,
                "duration": 0.16590909090909278,
                "tempo": 120.0
            },
            {
                "start_time": 24.070454545454545,
                "end_time": 24.222727272727273,
                "pitch": 47,
                "velocity": 80,
                "duration": 0.15227272727272734,
                "tempo": 120.0
            },
            {
                "start_time": 24.222727272727273,
                "end_time": 24.388636363636362,
                "pitch": 47,
                "velocity": 80,
                "duration": 0.16590909090908923,
                "tempo": 120.0
            },
            {
                "start_time": 24.388636363636362,
                "end_time": 24.538636363636364,
                "pitch": 59,
                "velocity": 80,
                "duration": 0.15000000000000213,
                "tempo": 120.0
            },
            {
                "start_time": 24.538636363636364,
                "end_time": 24.706818181818182,
                "pitch": 47,
                "velocity": 80,
                "duration": 0.168181818181818,
                "tempo": 120.0
            },
            {
                "start_time": 24.706818181818182,
                "end_time": 24.85681818181818,
                "pitch": 47,
                "velocity": 80,
                "duration": 0.14999999999999858,
                "tempo": 120.0
            },
            {
                "start_time": 24.85681818181818,
                "end_time": 25.025,
                "pitch": 59,
                "velocity": 80,
                "duration": 0.168181818181818,
                "tempo": 120.0
            },
            {
                "start_time": 25.025,
                "end_time": 25.174999999999997,
                "pitch": 47,
                "velocity": 80,
                "duration": 0.14999999999999858,
                "tempo": 120.0
            },
            {
                "start_time": 25.174999999999997,
                "end_time": 25.34090909090909,
                "pitch": 47,
                "velocity": 80,
                "duration": 0.16590909090909278,
                "tempo": 120.0
            },
            {
                "start_time": 25.34090909090909,
                "end_time": 25.49090909090909,
                "pitch": 50,
                "velocity": 80,
                "duration": 0.14999999999999858,
                "tempo": 120.0
            },
            {
                "start_time": 25.49090909090909,
                "end_time": 25.659090909090907,
                "pitch": 50,
                "velocity": 80,
                "duration": 0.168181818181818,
                "tempo": 120.0
            },
            {
                "start_time": 25.659090909090907,
                "end_time": 25.813636363636363,
                "pitch": 50,
                "velocity": 80,
                "duration": 0.1545454545454561,
                "tempo": 120.0
            },
            {
                "start_time": 25.813636363636363,
                "end_time": 25.98409090909091,
                "pitch": 50,
                "velocity": 80,
                "duration": 0.17045454545454675,
                "tempo": 120.0
            },
            {
                "start_time": 25.98409090909091,
                "end_time": 26.136363636363637,
                "pitch": 50,
                "velocity": 80,
                "duration": 0.15227272727272734,
                "tempo": 120.0
            },
            {
                "start_time": 26.136363636363637,
                "end_time": 26.30681818181818,
                "pitch": 50,
                "velocity": 80,
                "duration": 0.1704545454545432,
                "tempo": 120.0
            },
            {
                "start_time": 26.30681818181818,
                "end_time": 26.456818181818182,
                "pitch": 50,
                "velocity": 80,
                "duration": 0.15000000000000213,
                "tempo": 120.0
            },
            {
                "start_time": 26.456818181818182,
                "end_time": 26.625,
                "pitch": 50,
                "velocity": 80,
                "duration": 0.168181818181818,
                "tempo": 120.0
            },
            {
                "start_time": 26.625,
                "end_time": 26.775,
                "pitch": 40,
                "velocity": 80,
                "duration": 0.14999999999999858,
                "tempo": 120.0
            },
            {
                "start_time": 26.775,
                "end_time": 26.943181818181817,
                "pitch": 40,
                "velocity": 80,
                "duration": 0.168181818181818,
                "tempo": 120.0
            },
            {
                "start_time": 26.943181818181817,
                "end_time": 27.095454545454544,
                "pitch": 40,
                "velocity": 80,
                "duration": 0.15227272727272734,
                "tempo": 120.0
            },
            {
                "start_time": 27.095454545454544,
                "end_time": 27.26590909090909,
                "pitch": 40,
                "velocity": 80,
                "duration": 0.17045454545454675,
                "tempo": 120.0
            },
            {
                "start_time": 27.26590909090909,
                "end_time": 27.420454545454543,
                "pitch": 40,
                "velocity": 80,
                "duration": 0.15454545454545254,
                "tempo": 120.0
            },
            {
                "start_time": 27.420454545454543,
                "end_time": 27.575,
                "pitch": 40,
                "velocity": 80,
                "duration": 0.1545454545454561,
                "tempo": 120.0
            },
            {
                "start_time": 27.575,
                "end_time": 27.738636363636363,
                "pitch": 40,
                "velocity": 80,
                "duration": 0.16363636363636402,
                "tempo": 120.0
            },
            {
                "start_time": 27.738636363636363,
                "end_time": 27.888636363636362,
                "pitch": 40,
                "velocity": 80,
                "duration": 0.14999999999999858,
                "tempo": 120.0
            },
            {
                "start_time": 27.888636363636362,
                "end_time": 28.054545454545455,
                "pitch": 40,
                "velocity": 80,
                "duration": 0.16590909090909278,
                "tempo": 120.0
            },
            {
                "start_time": 28.054545454545455,
                "end_time": 28.202272727272724,
                "pitch": 42,
                "velocity": 80,
                "duration": 0.14772727272726982,
                "tempo": 120.0
            },
            {
                "start_time": 28.202272727272724,
                "end_time": 28.370454545454542,
                "pitch": 42,
                "velocity": 80,
                "duration": 0.168181818181818,
                "tempo": 120.0
            },
            {
                "start_time": 28.370454545454542,
                "end_time": 28.686363636363634,
                "pitch": 54,
                "velocity": 80,
                "duration": 0.31590909090909136,
                "tempo": 120.0
            },
            {
                "start_time": 28.686363636363634,
                "end_time": 28.83863636363636,
                "pitch": 42,
                "velocity": 80,
                "duration": 0.15227272727272734,
                "tempo": 120.0
            },
            {
                "start_time": 28.83863636363636,
                "end_time": 29.004545454545454,
                "pitch": 42,
                "velocity": 80,
                "duration": 0.16590909090909278,
                "tempo": 120.0
            },
            {
                "start_time": 29.004545454545454,
                "end_time": 29.154545454545453,
                "pitch": 40,
                "velocity": 80,
                "duration": 0.14999999999999858,
                "tempo": 120.0
            },
            {
                "start_time": 29.154545454545453,
                "end_time": 29.32272727272727,
                "pitch": 49,
                "velocity": 80,
                "duration": 0.168181818181818,
                "tempo": 120.0
            },
            {
                "start_time": 29.32272727272727,
                "end_time": 29.472727272727273,
                "pitch": 49,
                "velocity": 80,
                "duration": 0.15000000000000213,
                "tempo": 120.0
            },
            {
                "start_time": 29.472727272727273,
                "end_time": 29.638636363636362,
                "pitch": 54,
                "velocity": 80,
                "duration": 0.16590909090908923,
                "tempo": 120.0
            },
            {
                "start_time": 29.638636363636362,
                "end_time": 29.79090909090909,
                "pitch": 42,
                "velocity": 80,
                "duration": 0.15227272727272734,
                "tempo": 120.0
            },
            {
                "start_time": 29.79090909090909,
                "end_time": 29.956818181818182,
                "pitch": 52,
                "velocity": 80,
                "duration": 0.16590909090909278,
                "tempo": 120.0
            },
            {
                "start_time": 29.956818181818182,
                "end_time": 30.10681818181818,
                "pitch": 40,
                "velocity": 80,
                "duration": 0.14999999999999858,
                "tempo": 120.0
            },
            {
                "start_time": 30.10681818181818,
                "end_time": 30.277272727272727,
                "pitch": 49,
                "velocity": 80,
                "duration": 0.17045454545454675,
                "tempo": 120.0
            },
            {
                "start_time": 30.277272727272727,
                "end_time": 30.44772727272727,
                "pitch": 49,
                "velocity": 80,
                "duration": 0.1704545454545432,
                "tempo": 120.0
            },
            {
                "start_time": 30.44772727272727,
                "end_time": 30.46363636363636,
                "pitch": 45,
                "velocity": 80,
                "duration": 0.01590909090909065,
                "tempo": 120.0
            }
        ]
    }
}