{
    "track_id": "Power Strike, Aleste (FM) - 06 - The Solitude",
    "mood": "angry",
    "instruments": {
        "Violin": [
            {
                "start_time": 0.0,
                "end_time": 0.09999999999999999,
                "pitch": 64,
                "velocity": 127,
                "duration": 0.09999999999999999,
                "tempo": 120.0
            },
            {
                "start_time": 0.09999999999999999,
                "end_time": 0.2159090909090909,
                "pitch": 64,
                "velocity": 127,
                "duration": 0.11590909090909092,
                "tempo": 120.0
            },
            {
                "start_time": 0.2159090909090909,
                "end_time": 0.3159090909090909,
                "pitch": 61,
                "velocity": 127,
                "duration": 0.1,
                "tempo": 120.0
            },
            {
                "start_time": 0.3159090909090909,
                "end_time": 0.4340909090909091,
                "pitch": 61,
                "velocity": 127,
                "duration": 0.11818181818181817,
                "tempo": 120.0
            },
            {
                "start_time": 0.4340909090909091,
                "end_time": 1.8886363636363634,
                "pitch": 59,
                "velocity": 127,
                "duration": 1.4545454545454544,
                "tempo": 120.0
            },
            {
                "start_time": 1.8886363636363634,
                "end_time": 3.8022727272727272,
                "pitch": 61,
                "velocity": 127,
                "duration": 1.9136363636363638,
                "tempo": 120.0
            },
            {
                "start_time": 3.8022727272727272,
                "end_time": 6.788636363636363,
                "pitch": 61,
                "velocity": 127,
                "duration": 2.986363636363636,
                "tempo": 120.0
            },
            {
                "start_time": 6.788636363636363,
                "end_time": 6.890909090909091,
                "pitch": 64,
                "velocity": 127,
                "duration": 0.10227272727272751,
                "tempo": 120.0
            },
            {
                "start_time": 6.890909090909091,
                "end_time": 6.993181818181818,
                "pitch": 64,
                "velocity": 127,
                "duration": 0.10227272727272751,
                "tempo": 120.0
            },
            {
                "start_time": 6.993181818181818,
                "end_time": 7.113636363636363,
                "pitch": 61,
                "velocity": 127,
                "duration": 0.12045454545454515,
                "tempo": 120.0
            },
            {
                "start_time": 7.113636363636363,
                "end_time": 7.215909090909091,
                "pitch": 61,
                "velocity": 127,
                "duration": 0.10227272727272751,
                "tempo": 120.0
            },
            {
                "start_time": 7.215909090909091,
                "end_time": 8.693181818181818,
                "pitch": 59,
                "velocity": 127,
                "duration": 1.4772727272727275,
                "tempo": 120.0
            },
            {
                "start_time": 8.693181818181818,
                "end_time": 10.395454545454545,
                "pitch": 63,
                "velocity": 127,
                "duration": 1.7022727272727263,
                "tempo": 120.0
            },
            {
                "start_time": 10.395454545454545,
                "end_time": 10.825,
                "pitch": 63,
                "velocity": 127,
                "duration": 0.4295454545454547,
                "tempo": 120.0
            },
            {
                "start_time": 10.825,
                "end_time": 11.043181818181818,
                "pitch": 61,
                "velocity": 127,
                "duration": 0.2181818181818187,
                "tempo": 120.0
            },
            {
                "start_time": 11.043181818181818,
                "end_time": 13.593181818181817,
                "pitch": 61,
                "velocity": 127,
                "duration": 2.549999999999999,
                "tempo": 120.0
            },
            {
                "start_time": 13.593181818181817,
                "end_time": 13.704545454545453,
                "pitch": 61,
                "velocity": 127,
                "duration": 0.11136363636363633,
                "tempo": 120.0
            },
            {
                "start_time": 13.704545454545453,
                "end_time": 13.799999999999999,
                "pitch": 59,
                "velocity": 127,
                "duration": 0.09545454545454568,
                "tempo": 120.0
            },
            {
                "start_time": 13.799999999999999,
                "end_time": 13.895454545454545,
                "pitch": 63,
                "velocity": 127,
                "duration": 0.09545454545454568,
                "tempo": 120.0
            },
            {
                "start_time": 13.895454545454545,
                "end_time": 14.009090909090908,
                "pitch": 63,
                "velocity": 127,
                "duration": 0.11363636363636331,
                "tempo": 120.0
            },
            {
                "start_time": 14.009090909090908,
                "end_time": 14.234090909090908,
                "pitch": 68,
                "velocity": 127,
                "duration": 0.22499999999999964,
                "tempo": 120.0
            },
            {
                "start_time": 14.234090909090908,
                "end_time": 14.647727272727272,
                "pitch": 66,
                "velocity": 127,
                "duration": 0.413636363636364,
                "tempo": 120.0
            },
            {
                "start_time": 14.647727272727272,
                "end_time": 15.068181818181817,
                "pitch": 64,
                "velocity": 127,
                "duration": 0.42045454545454497,
                "tempo": 120.0
            },
            {
                "start_time": 15.068181818181817,
                "end_time": 15.284090909090908,
                "pitch": 63,
                "velocity": 127,
                "duration": 0.21590909090909172,
                "tempo": 120.0
            },
            {
                "start_time": 15.284090909090908,
                "end_time": 15.49090909090909,
                "pitch": 59,
                "velocity": 127,
                "duration": 0.206818181818182,
                "tempo": 120.0
            },
            {
                "start_time": 15.49090909090909,
                "end_time": 15.711363636363636,
                "pitch": 59,
                "velocity": 127,
                "duration": 0.22045454545454568,
                "tempo": 120.0
            },
            {
                "start_time": 15.711363636363636,
                "end_time": 15.924999999999999,
                "pitch": 68,
                "velocity": 127,
                "duration": 0.21363636363636296,
                "tempo": 120.0
            },
            {
                "start_time": 15.924999999999999,
                "end_time": 16.35681818181818,
                "pitch": 66,
                "velocity": 127,
                "duration": 0.43181818181818166,
                "tempo": 120.0
            },
            {
                "start_time": 16.35681818181818,
                "end_time": 16.763636363636362,
                "pitch": 64,
                "velocity": 127,
                "duration": 0.4068181818181813,
                "tempo": 120.0
            },
            {
                "start_time": 16.763636363636362,
                "end_time": 16.970454545454544,
                "pitch": 63,
                "velocity": 127,
                "duration": 0.206818181818182,
                "tempo": 120.0
            },
            {
                "start_time": 16.970454545454544,
                "end_time": 17.193181818181817,
                "pitch": 61,
                "velocity": 127,
                "duration": 0.22272727272727266,
                "tempo": 120.0
            },
            {
                "start_time": 17.193181818181817,
                "end_time": 17.41590909090909,
                "pitch": 61,
                "velocity": 127,
                "duration": 0.22272727272727266,
                "tempo": 120.0
            },
            {
                "start_time": 17.41590909090909,
                "end_time": 20.797727272727272,
                "pitch": 59,
                "velocity": 127,
                "duration": 3.3818181818181827,
                "tempo": 120.0
            },
            {
                "start_time": 20.797727272727272,
                "end_time": 21.23181818181818,
                "pitch": 64,
                "velocity": 127,
                "duration": 0.43409090909090864,
                "tempo": 120.0
            },
            {
                "start_time": 21.23181818181818,
                "end_time": 21.66590909090909,
                "pitch": 61,
                "velocity": 127,
                "duration": 0.43409090909090864,
                "tempo": 120.0
            },
            {
                "start_time": 21.66590909090909,
                "end_time": 21.868181818181817,
                "pitch": 66,
                "velocity": 127,
                "duration": 0.20227272727272805,
                "tempo": 120.0
            },
            {
                "start_time": 21.868181818181817,
                "end_time": 22.297727272727272,
                "pitch": 61,
                "velocity": 127,
                "duration": 0.4295454545454547,
                "tempo": 120.0
            },
            {
                "start_time": 22.297727272727272,
                "end_time": 22.729545454545452,
                "pitch": 64,
                "velocity": 127,
                "duration": 0.4318181818181799,
                "tempo": 120.0
            },
            {
                "start_time": 22.729545454545452,
                "end_time": 22.929545454545455,
                "pitch": 61,
                "velocity": 127,
                "duration": 0.20000000000000284,
                "tempo": 120.0
            },
            {
                "start_time": 22.929545454545455,
                "end_time": 23.143181818181816,
                "pitch": 68,
                "velocity": 127,
                "duration": 0.21363636363636118,
                "tempo": 120.0
            },
            {
                "start_time": 23.143181818181816,
                "end_time": 24.209090909090907,
                "pitch": 66,
                "velocity": 127,
                "duration": 1.0659090909090914,
                "tempo": 120.0
            },
            {
                "start_time": 24.209090909090907,
                "end_time": 24.634090909090908,
                "pitch": 64,
                "velocity": 127,
                "duration": 0.4250000000000007,
                "tempo": 120.0
            },
            {
                "start_time": 24.634090909090908,
                "end_time": 25.052272727272726,
                "pitch": 61,
                "velocity": 127,
                "duration": 0.418181818181818,
                "tempo": 120.0
            },
            {
                "start_time": 25.052272727272726,
                "end_time": 25.26590909090909,
                "pitch": 59,
                "velocity": 127,
                "duration": 0.21363636363636473,
                "tempo": 120.0
            },
            {
                "start_time": 25.26590909090909,
                "end_time": 25.69772727272727,
                "pitch": 59,
                "velocity": 127,
                "duration": 0.4318181818181799,
                "tempo": 120.0
            },
            {
                "start_time": 25.69772727272727,
                "end_time": 26.11590909090909,
                "pitch": 59,
                "velocity": 127,
                "duration": 0.418181818181818,
                "tempo": 120.0
            },
            {
                "start_time": 26.11590909090909,
                "end_time": 26.331818181818182,
                "pitch": 61,
                "velocity": 127,
                "duration": 0.2159090909090935,
                "tempo": 120.0
            },
            {
                "start_time": 26.331818181818182,
                "end_time": 27.174999999999997,
                "pitch": 61,
                "velocity": 127,
                "duration": 0.8431818181818151,
                "tempo": 120.0
            },
            {
                "start_time": 27.174999999999997,
                "end_time": 27.19090909090909,
                "pitch": 64,
                "velocity": 127,
                "duration": 0.015909090909094203,
                "tempo": 120.0
            }
        ],
        "Lead 2 (sawtooth)": [
            {
                "start_time": 0.0,
                "end_time": 0.09999999999999999,
                "pitch": 76,
                "velocity": 64,
                "duration": 0.09999999999999999,
                "tempo": 120.0
            },
            {
                "start_time": 0.09999999999999999,
                "end_time": 0.2159090909090909,
                "pitch": 76,
                "velocity": 64,
                "duration": 0.11590909090909092,
                "tempo": 120.0
            },
            {
                "start_time": 0.2159090909090909,
                "end_time": 0.3159090909090909,
                "pitch": 73,
                "velocity": 64,
                "duration": 0.1,
                "tempo": 120.0
            },
            {
                "start_time": 0.3159090909090909,
                "end_time": 0.4340909090909091,
                "pitch": 71,
                "velocity": 64,
                "duration": 0.11818181818181817,
                "tempo": 120.0
            },
            {
                "start_time": 0.4340909090909091,
                "end_time": 1.8886363636363634,
                "pitch": 73,
                "velocity": 64,
                "duration": 1.4545454545454544,
                "tempo": 120.0
            },
            {
                "start_time": 1.8886363636363634,
                "end_time": 3.8022727272727272,
                "pitch": 71,
                "velocity": 64,
                "duration": 1.9136363636363638,
                "tempo": 120.0
            },
            {
                "start_time": 3.8022727272727272,
                "end_time": 6.788636363636363,
                "pitch": 73,
                "velocity": 64,
                "duration": 2.986363636363636,
                "tempo": 120.0
            },
            {
                "start_time": 6.788636363636363,
                "end_time": 6.890909090909091,
                "pitch": 76,
                "velocity": 64,
                "duration": 0.10227272727272751,
                "tempo": 120.0
            },
            {
                "start_time": 6.890909090909091,
                "end_time": 6.993181818181818,
                "pitch": 76,
                "velocity": 64,
                "duration": 0.10227272727272751,
                "tempo": 120.0
            },
            {
                "start_time": 6.993181818181818,
                "end_time": 7.113636363636363,
                "pitch": 73,
                "velocity": 64,
                "duration": 0.12045454545454515,
                "tempo": 120.0
            },
            {
                "start_time": 7.113636363636363,
                "end_time": 7.215909090909091,
                "pitch": 71,
                "velocity": 64,
                "duration": 0.10227272727272751,
                "tempo": 120.0
            },
            {
                "start_time": 7.215909090909091,
                "end_time": 8.693181818181818,
                "pitch": 73,
                "velocity": 64,
                "duration": 1.4772727272727275,
                "tempo": 120.0
            },
            {
                "start_time": 8.693181818181818,
                "end_time": 10.395454545454545,
                "pitch": 75,
                "velocity": 64,
                "duration": 1.7022727272727263,
                "tempo": 120.0
            },
            {
                "start_time": 10.395454545454545,
                "end_time": 10.825,
                "pitch": 75,
                "velocity": 64,
                "duration": 0.4295454545454547,
                "tempo": 120.0
            },
            {
                "start_time": 10.825,
                "end_time": 11.043181818181818,
                "pitch": 73,
                "velocity": 64,
                "duration": 0.2181818181818187,
                "tempo": 120.0
            },
            {
                "start_time": 11.043181818181818,
                "end_time": 13.593181818181817,
                "pitch": 73,
                "velocity": 64,
                "duration": 2.549999999999999,
                "tempo": 120.0
            },
            {
                "start_time": 13.593181818181817,
                "end_time": 13.704545454545453,
                "pitch": 71,
                "velocity": 64,
                "duration": 0.11136363636363633,
                "tempo": 120.0
            },
            {
                "start_time": 13.704545454545453,
                "end_time": 13.799999999999999,
                "pitch": 73,
                "velocity": 64,
                "duration": 0.09545454545454568,
                "tempo": 120.0
            },
            {
                "start_time": 13.799999999999999,
                "end_time": 13.895454545454545,
                "pitch": 75,
                "velocity": 64,
                "duration": 0.09545454545454568,
                "tempo": 120.0
            },
            {
                "start_time": 13.895454545454545,
                "end_time": 14.009090909090908,
                "pitch": 75,
                "velocity": 64,
                "duration": 0.11363636363636331,
                "tempo": 120.0
            },
            {
                "start_time": 14.009090909090908,
                "end_time": 14.234090909090908,
                "pitch": 80,
                "velocity": 64,
                "duration": 0.22499999999999964,
                "tempo": 120.0
            },
            {
                "start_time": 14.234090909090908,
                "end_time": 14.647727272727272,
                "pitch": 78,
                "velocity": 64,
                "duration": 0.413636363636364,
                "tempo": 120.0
            },
            {
                "start_time": 14.647727272727272,
                "end_time": 15.068181818181817,
                "pitch": 76,
                "velocity": 64,
                "duration": 0.42045454545454497,
                "tempo": 120.0
            },
            {
                "start_time": 15.068181818181817,
                "end_time": 15.284090909090908,
                "pitch": 75,
                "velocity": 64,
                "duration": 0.21590909090909172,
                "tempo": 120.0
            },
            {
                "start_time": 15.284090909090908,
                "end_time": 15.49090909090909,
                "pitch": 71,
                "velocity": 64,
                "duration": 0.206818181818182,
                "tempo": 120.0
            },
            {
                "start_time": 15.49090909090909,
                "end_time": 15.711363636363636,
                "pitch": 73,
                "velocity": 64,
                "duration": 0.22045454545454568,
                "tempo": 120.0
            },
            {
                "start_time": 15.711363636363636,
                "end_time": 15.924999999999999,
                "pitch": 80,
                "velocity": 64,
                "duration": 0.21363636363636296,
                "tempo": 120.0
            },
            {
                "start_time": 15.924999999999999,
                "end_time": 16.35681818181818,
                "pitch": 78,
                "velocity": 64,
                "duration": 0.43181818181818166,
                "tempo": 120.0
            },
            {
                "start_time": 16.35681818181818,
                "end_time": 16.763636363636362,
                "pitch": 76,
                "velocity": 64,
                "duration": 0.4068181818181813,
                "tempo": 120.0
            },
            {
                "start_time": 16.763636363636362,
                "end_time": 16.970454545454544,
                "pitch": 75,
                "velocity": 64,
                "duration": 0.206818181818182,
                "tempo": 120.0
            },
            {
                "start_time": 16.970454545454544,
                "end_time": 17.193181818181817,
                "pitch": 73,
                "velocity": 64,
                "duration": 0.22272727272727266,
                "tempo": 120.0
            },
            {
                "start_time": 17.193181818181817,
                "end_time": 17.41590909090909,
                "pitch": 71,
                "velocity": 64,
                "duration": 0.22272727272727266,
                "tempo": 120.0
            },
            {
                "start_time": 17.41590909090909,
                "end_time": 20.797727272727272,
                "pitch": 73,
                "velocity": 64,
                "duration": 3.3818181818181827,
                "tempo": 120.0
            },
            {
                "start_time": 20.797727272727272,
                "end_time": 21.23181818181818,
                "pitch": 76,
                "velocity": 64,
                "duration": 0.43409090909090864,
                "tempo": 120.0
            },
            {
                "start_time": 21.23181818181818,
                "end_time": 21.66590909090909,
                "pitch": 73,
                "velocity": 64,
                "duration": 0.43409090909090864,
                "tempo": 120.0
            },
            {
                "start_time": 21.66590909090909,
                "end_time": 21.868181818181817,
                "pitch": 78,
                "velocity": 64,
                "duration": 0.20227272727272805,
                "tempo": 120.0
            },
            {
                "start_time": 21.868181818181817,
                "end_time": 22.297727272727272,
                "pitch": 73,
                "velocity": 64,
                "duration": 0.4295454545454547,
                "tempo": 120.0
            },
            {
                "start_time": 22.297727272727272,
                "end_time": 22.729545454545452,
                "pitch": 76,
                "velocity": 64,
                "duration": 0.4318181818181799,
                "tempo": 120.0
            },
            {
                "start_time": 22.729545454545452,
                "end_time": 22.929545454545455,
                "pitch": 73,
                "velocity": 64,
                "duration": 0.20000000000000284,
                "tempo": 120.0
            },
            {
                "start_time": 22.929545454545455,
                "end_time": 23.143181818181816,
                "pitch": 80,
                "velocity": 64,
                "duration": 0.21363636363636118,
                "tempo": 120.0
            },
            {
                "start_time": 23.143181818181816,
                "end_time": 24.209090909090907,
                "pitch": 78,
                "velocity": 64,
                "duration": 1.0659090909090914,
                "tempo": 120.0
            },
            {
                "start_time": 24.209090909090907,
                "end_time": 24.634090909090908,
                "pitch": 76,
                "velocity": 64,
                "duration": 0.4250000000000007,
                "tempo": 120.0
            },
            {
                "start_time": 24.634090909090908,
                "end_time": 25.052272727272726,
                "pitch": 73,
                "velocity": 64,
                "duration": 0.418181818181818,
                "tempo": 120.0
            },
            {
                "start_time": 25.052272727272726,
                "end_time": 25.26590909090909,
                "pitch": 71,
                "velocity": 64,
                "duration": 0.21363636363636473,
                "tempo": 120.0
            },
            {
                "start_time": 25.26590909090909,
                "end_time": 25.69772727272727,
                "pitch": 73,
                "velocity": 64,
                "duration": 0.4318181818181799,
                "tempo": 120.0
            },
            {
                "start_time": 25.69772727272727,
                "end_time": 26.11590909090909,
                "pitch": 71,
                "velocity": 64,
                "duration": 0.418181818181818,
                "tempo": 120.0
            },
            {
                "start_time": 26.11590909090909,
                "end_time": 26.331818181818182,
                "pitch": 73,
                "velocity": 64,
                "duration": 0.2159090909090935,
                "tempo": 120.0
            },
            {
                "start_time": 26.331818181818182,
                "end_time": 27.174999999999997,
                "pitch": 73,
                "velocity": 64,
                "duration": 0.8431818181818151,
                "tempo": 120.0
            },
            {
                "start_time": 27.174999999999997,
                "end_time": 27.19090909090909,
                "pitch": 76,
                "velocity": 64,
                "duration": 0.015909090909094203,
                "tempo": 120.0
            }
        ]
    }
}