{
    "track_id": "Power Strike, Aleste (FM) - 07 - Rapid Turning",
    "mood": "angry",
    "instruments": {
        "Harpsichord": [
            {
                "start_time": 0.19999999999999998,
                "end_time": 0.39999999999999997,
                "pitch": 51,
                "velocity": 64,
                "duration": 0.19999999999999998,
                "tempo": 120.0
            },
            {
                "start_time": 0.39999999999999997,
                "end_time": 0.6045454545454545,
                "pitch": 53,
                "velocity": 64,
                "duration": 0.20454545454545453,
                "tempo": 120.0
            },
            {
                "start_time": 0.6045454545454545,
                "end_time": 1.8045454545454545,
                "pitch": 58,
                "velocity": 64,
                "duration": 1.2,
                "tempo": 120.0
            },
            {
                "start_time": 1.8045454545454545,
                "end_time": 2.0045454545454544,
                "pitch": 51,
                "velocity": 64,
                "duration": 0.19999999999999996,
                "tempo": 120.0
            },
            {
                "start_time": 2.0045454545454544,
                "end_time": 2.2113636363636364,
                "pitch": 53,
                "velocity": 64,
                "duration": 0.206818181818182,
                "tempo": 120.0
            },
            {
                "start_time": 2.2113636363636364,
                "end_time": 2.415909090909091,
                "pitch": 58,
                "velocity": 64,
                "duration": 0.20454545454545459,
                "tempo": 120.0
            },
            {
                "start_time": 2.415909090909091,
                "end_time": 3.4090909090909087,
                "pitch": 56,
                "velocity": 64,
                "duration": 0.9931818181818177,
                "tempo": 120.0
            },
            {
                "start_time": 3.4090909090909087,
                "end_time": 3.6113636363636363,
                "pitch": 51,
                "velocity": 64,
                "duration": 0.2022727272727276,
                "tempo": 120.0
            },
            {
                "start_time": 3.6113636363636363,
                "end_time": 3.815909090909091,
                "pitch": 53,
                "velocity": 64,
                "duration": 0.20454545454545459,
                "tempo": 120.0
            },
            {
                "start_time": 3.815909090909091,
                "end_time": 5.015909090909091,
                "pitch": 58,
                "velocity": 64,
                "duration": 1.1999999999999997,
                "tempo": 120.0
            },
            {
                "start_time": 5.015909090909091,
                "end_time": 5.215909090909091,
                "pitch": 51,
                "velocity": 64,
                "duration": 0.20000000000000018,
                "tempo": 120.0
            },
            {
                "start_time": 5.215909090909091,
                "end_time": 5.422727272727273,
                "pitch": 53,
                "velocity": 64,
                "duration": 0.206818181818182,
                "tempo": 120.0
            },
            {
                "start_time": 5.422727272727273,
                "end_time": 5.627272727272727,
                "pitch": 58,
                "velocity": 64,
                "duration": 0.20454545454545414,
                "tempo": 120.0
            },
            {
                "start_time": 5.627272727272727,
                "end_time": 6.622727272727272,
                "pitch": 56,
                "velocity": 64,
                "duration": 0.9954545454545451,
                "tempo": 120.0
            },
            {
                "start_time": 6.622727272727272,
                "end_time": 6.6909090909090905,
                "pitch": 55,
                "velocity": 64,
                "duration": 0.06818181818181834,
                "tempo": 120.0
            },
            {
                "start_time": 6.6909090909090905,
                "end_time": 6.756818181818182,
                "pitch": 55,
                "velocity": 64,
                "duration": 0.06590909090909136,
                "tempo": 120.0
            },
            {
                "start_time": 6.756818181818182,
                "end_time": 6.824999999999999,
                "pitch": 55,
                "velocity": 64,
                "duration": 0.06818181818181746,
                "tempo": 120.0
            },
            {
                "start_time": 6.824999999999999,
                "end_time": 7.029545454545454,
                "pitch": 55,
                "velocity": 64,
                "duration": 0.20454545454545503,
                "tempo": 120.0
            },
            {
                "start_time": 7.029545454545454,
                "end_time": 8.229545454545454,
                "pitch": 60,
                "velocity": 64,
                "duration": 1.1999999999999993,
                "tempo": 120.0
            },
            {
                "start_time": 8.229545454545454,
                "end_time": 8.429545454545455,
                "pitch": 53,
                "velocity": 64,
                "duration": 0.20000000000000107,
                "tempo": 120.0
            },
            {
                "start_time": 8.429545454545455,
                "end_time": 8.497727272727273,
                "pitch": 55,
                "velocity": 64,
                "duration": 0.06818181818181834,
                "tempo": 120.0
            },
            {
                "start_time": 8.497727272727273,
                "end_time": 8.568181818181818,
                "pitch": 55,
                "velocity": 64,
                "duration": 0.07045454545454533,
                "tempo": 120.0
            },
            {
                "start_time": 8.568181818181818,
                "end_time": 8.636363636363637,
                "pitch": 55,
                "velocity": 64,
                "duration": 0.06818181818181834,
                "tempo": 120.0
            },
            {
                "start_time": 8.636363636363637,
                "end_time": 8.84090909090909,
                "pitch": 60,
                "velocity": 64,
                "duration": 0.20454545454545325,
                "tempo": 120.0
            },
            {
                "start_time": 8.84090909090909,
                "end_time": 9.834090909090909,
                "pitch": 58,
                "velocity": 64,
                "duration": 0.993181818181819,
                "tempo": 120.0
            },
            {
                "start_time": 9.834090909090909,
                "end_time": 9.902272727272727,
                "pitch": 55,
                "velocity": 64,
                "duration": 0.06818181818181834,
                "tempo": 120.0
            },
            {
                "start_time": 9.902272727272727,
                "end_time": 9.968181818181817,
                "pitch": 55,
                "velocity": 64,
                "duration": 0.06590909090908958,
                "tempo": 120.0
            },
            {
                "start_time": 9.968181818181817,
                "end_time": 10.036363636363635,
                "pitch": 55,
                "velocity": 64,
                "duration": 0.06818181818181834,
                "tempo": 120.0
            },
            {
                "start_time": 10.036363636363635,
                "end_time": 10.24090909090909,
                "pitch": 55,
                "velocity": 64,
                "duration": 0.20454545454545503,
                "tempo": 120.0
            },
            {
                "start_time": 10.24090909090909,
                "end_time": 11.447727272727272,
                "pitch": 60,
                "velocity": 64,
                "duration": 1.206818181818182,
                "tempo": 120.0
            },
            {
                "start_time": 11.447727272727272,
                "end_time": 11.652272727272727,
                "pitch": 53,
                "velocity": 64,
                "duration": 0.20454545454545503,
                "tempo": 120.0
            },
            {
                "start_time": 11.652272727272727,
                "end_time": 11.720454545454546,
                "pitch": 55,
                "velocity": 64,
                "duration": 0.06818181818181834,
                "tempo": 120.0
            },
            {
                "start_time": 11.720454545454546,
                "end_time": 11.786363636363635,
                "pitch": 55,
                "velocity": 64,
                "duration": 0.06590909090908958,
                "tempo": 120.0
            },
            {
                "start_time": 11.786363636363635,
                "end_time": 11.852272727272727,
                "pitch": 55,
                "velocity": 64,
                "duration": 0.06590909090909136,
                "tempo": 120.0
            },
            {
                "start_time": 11.852272727272727,
                "end_time": 12.052272727272726,
                "pitch": 60,
                "velocity": 64,
                "duration": 0.1999999999999993,
                "tempo": 120.0
            },
            {
                "start_time": 12.052272727272726,
                "end_time": 12.863636363636363,
                "pitch": 58,
                "velocity": 64,
                "duration": 0.8113636363636374,
                "tempo": 120.0
            }
        ],
        "Vibraphone": [
            {
                "start_time": 0.0,
                "end_time": 0.09999999999999999,
                "pitch": 58,
                "velocity": 101,
                "duration": 0.09999999999999999,
                "tempo": 120.0
            },
            {
                "start_time": 0.09999999999999999,
                "end_time": 0.19999999999999998,
                "pitch": 46,
                "velocity": 101,
                "duration": 0.09999999999999999,
                "tempo": 120.0
            },
            {
                "start_time": 0.19999999999999998,
                "end_time": 0.3,
                "pitch": 53,
                "velocity": 101,
                "duration": 0.1,
                "tempo": 120.0
            },
            {
                "start_time": 0.3,
                "end_time": 0.39999999999999997,
                "pitch": 65,
                "velocity": 101,
                "duration": 0.09999999999999998,
                "tempo": 120.0
            },
            {
                "start_time": 0.39999999999999997,
                "end_time": 0.5022727272727272,
                "pitch": 58,
                "velocity": 101,
                "duration": 0.10227272727272724,
                "tempo": 120.0
            },
            {
                "start_time": 0.5022727272727272,
                "end_time": 0.6045454545454545,
                "pitch": 46,
                "velocity": 101,
                "duration": 0.10227272727272729,
                "tempo": 120.0
            },
            {
                "start_time": 0.6045454545454545,
                "end_time": 0.7068181818181818,
                "pitch": 70,
                "velocity": 101,
                "duration": 0.10227272727272729,
                "tempo": 120.0
            },
            {
                "start_time": 0.7068181818181818,
                "end_time": 0.8113636363636363,
                "pitch": 46,
                "velocity": 101,
                "duration": 0.1045454545454545,
                "tempo": 120.0
            },
            {
                "start_time": 0.8113636363636363,
                "end_time": 0.9090909090909091,
                "pitch": 58,
                "velocity": 101,
                "duration": 0.09772727272727277,
                "tempo": 120.0
            },
            {
                "start_time": 0.9090909090909091,
                "end_time": 1.0068181818181818,
                "pitch": 46,
                "velocity": 101,
                "duration": 0.09772727272727277,
                "tempo": 120.0
            },
            {
                "start_time": 1.0068181818181818,
                "end_time": 1.1045454545454545,
                "pitch": 53,
                "velocity": 101,
                "duration": 0.09772727272727266,
                "tempo": 120.0
            },
            {
                "start_time": 1.1045454545454545,
                "end_time": 1.2022727272727272,
                "pitch": 70,
                "velocity": 101,
                "duration": 0.09772727272727266,
                "tempo": 120.0
            },
            {
                "start_time": 1.2022727272727272,
                "end_time": 1.3022727272727272,
                "pitch": 46,
                "velocity": 101,
                "duration": 0.10000000000000009,
                "tempo": 120.0
            },
            {
                "start_time": 1.3022727272727272,
                "end_time": 1.4022727272727271,
                "pitch": 53,
                "velocity": 101,
                "duration": 0.09999999999999987,
                "tempo": 120.0
            },
            {
                "start_time": 1.4022727272727271,
                "end_time": 1.5022727272727272,
                "pitch": 58,
                "velocity": 101,
                "duration": 0.10000000000000009,
                "tempo": 120.0
            },
            {
                "start_time": 1.5022727272727272,
                "end_time": 1.6022727272727273,
                "pitch": 46,
                "velocity": 101,
                "duration": 0.10000000000000009,
                "tempo": 120.0
            },
            {
                "start_time": 1.6022727272727273,
                "end_time": 1.7045454545454544,
                "pitch": 58,
                "velocity": 101,
                "duration": 0.10227272727272707,
                "tempo": 120.0
            },
            {
                "start_time": 1.7045454545454544,
                "end_time": 1.8045454545454545,
                "pitch": 46,
                "velocity": 101,
                "duration": 0.10000000000000009,
                "tempo": 120.0
            },
            {
                "start_time": 1.8045454545454545,
                "end_time": 1.9045454545454545,
                "pitch": 53,
                "velocity": 101,
                "duration": 0.10000000000000009,
                "tempo": 120.0
            },
            {
                "start_time": 1.9045454545454545,
                "end_time": 2.0045454545454544,
                "pitch": 65,
                "velocity": 101,
                "duration": 0.09999999999999987,
                "tempo": 120.0
            },
            {
                "start_time": 2.0045454545454544,
                "end_time": 2.109090909090909,
                "pitch": 58,
                "velocity": 101,
                "duration": 0.1045454545454545,
                "tempo": 120.0
            },
            {
                "start_time": 2.109090909090909,
                "end_time": 2.2113636363636364,
                "pitch": 46,
                "velocity": 101,
                "duration": 0.10227272727272751,
                "tempo": 120.0
            },
            {
                "start_time": 2.2113636363636364,
                "end_time": 2.3136363636363635,
                "pitch": 70,
                "velocity": 101,
                "duration": 0.10227272727272707,
                "tempo": 120.0
            },
            {
                "start_time": 2.3136363636363635,
                "end_time": 2.415909090909091,
                "pitch": 46,
                "velocity": 101,
                "duration": 0.10227272727272751,
                "tempo": 120.0
            },
            {
                "start_time": 2.415909090909091,
                "end_time": 2.5136363636363637,
                "pitch": 58,
                "velocity": 101,
                "duration": 0.09772727272727266,
                "tempo": 120.0
            },
            {
                "start_time": 2.5136363636363637,
                "end_time": 2.6113636363636363,
                "pitch": 46,
                "velocity": 101,
                "duration": 0.09772727272727266,
                "tempo": 120.0
            },
            {
                "start_time": 2.6113636363636363,
                "end_time": 2.7113636363636364,
                "pitch": 53,
                "velocity": 101,
                "duration": 0.10000000000000009,
                "tempo": 120.0
            },
            {
                "start_time": 2.7113636363636364,
                "end_time": 2.809090909090909,
                "pitch": 70,
                "velocity": 101,
                "duration": 0.09772727272727266,
                "tempo": 120.0
            },
            {
                "start_time": 2.809090909090909,
                "end_time": 2.909090909090909,
                "pitch": 46,
                "velocity": 101,
                "duration": 0.10000000000000009,
                "tempo": 120.0
            },
            {
                "start_time": 2.909090909090909,
                "end_time": 3.009090909090909,
                "pitch": 53,
                "velocity": 101,
                "duration": 0.09999999999999964,
                "tempo": 120.0
            },
            {
                "start_time": 3.009090909090909,
                "end_time": 3.109090909090909,
                "pitch": 58,
                "velocity": 101,
                "duration": 0.10000000000000009,
                "tempo": 120.0
            },
            {
                "start_time": 3.109090909090909,
                "end_time": 3.209090909090909,
                "pitch": 46,
                "velocity": 101,
                "duration": 0.10000000000000009,
                "tempo": 120.0
            },
            {
                "start_time": 3.209090909090909,
                "end_time": 3.309090909090909,
                "pitch": 58,
                "velocity": 101,
                "duration": 0.10000000000000009,
                "tempo": 120.0
            },
            {
                "start_time": 3.309090909090909,
                "end_time": 3.4090909090909087,
                "pitch": 46,
                "velocity": 101,
                "duration": 0.09999999999999964,
                "tempo": 120.0
            },
            {
                "start_time": 3.4090909090909087,
                "end_time": 3.5113636363636362,
                "pitch": 53,
                "velocity": 101,
                "duration": 0.10227272727272751,
                "tempo": 120.0
            },
            {
                "start_time": 3.5113636363636362,
                "end_time": 3.6113636363636363,
                "pitch": 65,
                "velocity": 101,
                "duration": 0.10000000000000009,
                "tempo": 120.0
            },
            {
                "start_time": 3.6113636363636363,
                "end_time": 3.7136363636363634,
                "pitch": 58,
                "velocity": 101,
                "duration": 0.10227272727272707,
                "tempo": 120.0
            },
            {
                "start_time": 3.7136363636363634,
                "end_time": 3.815909090909091,
                "pitch": 46,
                "velocity": 101,
                "duration": 0.10227272727272751,
                "tempo": 120.0
            },
            {
                "start_time": 3.815909090909091,
                "end_time": 3.918181818181818,
                "pitch": 70,
                "velocity": 101,
                "duration": 0.10227272727272707,
                "tempo": 120.0
            },
            {
                "start_time": 3.918181818181818,
                "end_time": 4.0227272727272725,
                "pitch": 46,
                "velocity": 101,
                "duration": 0.1045454545454545,
                "tempo": 120.0
            },
            {
                "start_time": 4.0227272727272725,
                "end_time": 4.120454545454545,
                "pitch": 58,
                "velocity": 101,
                "duration": 0.09772727272727266,
                "tempo": 120.0
            },
            {
                "start_time": 4.120454545454545,
                "end_time": 4.218181818181818,
                "pitch": 46,
                "velocity": 101,
                "duration": 0.09772727272727266,
                "tempo": 120.0
            },
            {
                "start_time": 4.218181818181818,
                "end_time": 4.3159090909090905,
                "pitch": 53,
                "velocity": 101,
                "duration": 0.09772727272727266,
                "tempo": 120.0
            },
            {
                "start_time": 4.3159090909090905,
                "end_time": 4.413636363636363,
                "pitch": 70,
                "velocity": 101,
                "duration": 0.09772727272727266,
                "tempo": 120.0
            },
            {
                "start_time": 4.413636363636363,
                "end_time": 4.513636363636364,
                "pitch": 46,
                "velocity": 101,
                "duration": 0.10000000000000053,
                "tempo": 120.0
            },
            {
                "start_time": 4.513636363636364,
                "end_time": 4.61590909090909,
                "pitch": 53,
                "velocity": 101,
                "duration": 0.10227272727272663,
                "tempo": 120.0
            },
            {
                "start_time": 4.61590909090909,
                "end_time": 4.715909090909091,
                "pitch": 58,
                "velocity": 101,
                "duration": 0.10000000000000053,
                "tempo": 120.0
            },
            {
                "start_time": 4.715909090909091,
                "end_time": 4.8159090909090905,
                "pitch": 46,
                "velocity": 101,
                "duration": 0.09999999999999964,
                "tempo": 120.0
            },
            {
                "start_time": 4.8159090909090905,
                "end_time": 4.915909090909091,
                "pitch": 58,
                "velocity": 101,
                "duration": 0.10000000000000053,
                "tempo": 120.0
            },
            {
                "start_time": 4.915909090909091,
                "end_time": 5.015909090909091,
                "pitch": 46,
                "velocity": 101,
                "duration": 0.09999999999999964,
                "tempo": 120.0
            },
            {
                "start_time": 5.015909090909091,
                "end_time": 5.11590909090909,
                "pitch": 53,
                "velocity": 101,
                "duration": 0.09999999999999964,
                "tempo": 120.0
            },
            {
                "start_time": 5.11590909090909,
                "end_time": 5.215909090909091,
                "pitch": 65,
                "velocity": 101,
                "duration": 0.10000000000000053,
                "tempo": 120.0
            },
            {
                "start_time": 5.215909090909091,
                "end_time": 5.318181818181818,
                "pitch": 58,
                "velocity": 101,
                "duration": 0.10227272727272751,
                "tempo": 120.0
            },
            {
                "start_time": 5.318181818181818,
                "end_time": 5.422727272727273,
                "pitch": 46,
                "velocity": 101,
                "duration": 0.1045454545454545,
                "tempo": 120.0
            },
            {
                "start_time": 5.422727272727273,
                "end_time": 5.5249999999999995,
                "pitch": 70,
                "velocity": 101,
                "duration": 0.10227272727272663,
                "tempo": 120.0
            },
            {
                "start_time": 5.5249999999999995,
                "end_time": 5.627272727272727,
                "pitch": 46,
                "velocity": 101,
                "duration": 0.10227272727272751,
                "tempo": 120.0
            },
            {
                "start_time": 5.627272727272727,
                "end_time": 5.725,
                "pitch": 58,
                "velocity": 101,
                "duration": 0.09772727272727266,
                "tempo": 120.0
            },
            {
                "start_time": 5.725,
                "end_time": 5.822727272727272,
                "pitch": 46,
                "velocity": 101,
                "duration": 0.09772727272727266,
                "tempo": 120.0
            },
            {
                "start_time": 5.822727272727272,
                "end_time": 5.920454545454545,
                "pitch": 53,
                "velocity": 101,
                "duration": 0.09772727272727266,
                "tempo": 120.0
            },
            {
                "start_time": 5.920454545454545,
                "end_time": 6.0204545454545455,
                "pitch": 70,
                "velocity": 101,
                "duration": 0.10000000000000053,
                "tempo": 120.0
            },
            {
                "start_time": 6.0204545454545455,
                "end_time": 6.120454545454545,
                "pitch": 46,
                "velocity": 101,
                "duration": 0.09999999999999964,
                "tempo": 120.0
            },
            {
                "start_time": 6.120454545454545,
                "end_time": 6.220454545454545,
                "pitch": 53,
                "velocity": 101,
                "duration": 0.09999999999999964,
                "tempo": 120.0
            },
            {
                "start_time": 6.220454545454545,
                "end_time": 6.320454545454545,
                "pitch": 58,
                "velocity": 101,
                "duration": 0.10000000000000053,
                "tempo": 120.0
            },
            {
                "start_time": 6.320454545454545,
                "end_time": 6.422727272727273,
                "pitch": 46,
                "velocity": 101,
                "duration": 0.10227272727272751,
                "tempo": 120.0
            },
            {
                "start_time": 6.422727272727273,
                "end_time": 6.5227272727272725,
                "pitch": 60,
                "velocity": 101,
                "duration": 0.09999999999999964,
                "tempo": 120.0
            },
            {
                "start_time": 6.5227272727272725,
                "end_time": 6.622727272727272,
                "pitch": 48,
                "velocity": 101,
                "duration": 0.09999999999999964,
                "tempo": 120.0
            },
            {
                "start_time": 6.622727272727272,
                "end_time": 6.725,
                "pitch": 55,
                "velocity": 101,
                "duration": 0.10227272727272751,
                "tempo": 120.0
            },
            {
                "start_time": 6.725,
                "end_time": 6.824999999999999,
                "pitch": 67,
                "velocity": 101,
                "duration": 0.09999999999999964,
                "tempo": 120.0
            },
            {
                "start_time": 6.824999999999999,
                "end_time": 6.927272727272727,
                "pitch": 60,
                "velocity": 101,
                "duration": 0.10227272727272751,
                "tempo": 120.0
            },
            {
                "start_time": 6.927272727272727,
                "end_time": 7.029545454545454,
                "pitch": 48,
                "velocity": 101,
                "duration": 0.10227272727272751,
                "tempo": 120.0
            },
            {
                "start_time": 7.029545454545454,
                "end_time": 7.131818181818182,
                "pitch": 72,
                "velocity": 101,
                "duration": 0.10227272727272751,
                "tempo": 120.0
            },
            {
                "start_time": 7.131818181818182,
                "end_time": 7.236363636363636,
                "pitch": 48,
                "velocity": 101,
                "duration": 0.1045454545454545,
                "tempo": 120.0
            },
            {
                "start_time": 7.236363636363636,
                "end_time": 7.334090909090909,
                "pitch": 60,
                "velocity": 101,
                "duration": 0.09772727272727266,
                "tempo": 120.0
            },
            {
                "start_time": 7.334090909090909,
                "end_time": 7.431818181818182,
                "pitch": 48,
                "velocity": 101,
                "duration": 0.09772727272727266,
                "tempo": 120.0
            },
            {
                "start_time": 7.431818181818182,
                "end_time": 7.529545454545454,
                "pitch": 55,
                "velocity": 101,
                "duration": 0.09772727272727266,
                "tempo": 120.0
            },
            {
                "start_time": 7.529545454545454,
                "end_time": 7.627272727272727,
                "pitch": 72,
                "velocity": 101,
                "duration": 0.09772727272727266,
                "tempo": 120.0
            },
            {
                "start_time": 7.627272727272727,
                "end_time": 7.727272727272727,
                "pitch": 48,
                "velocity": 101,
                "duration": 0.09999999999999964,
                "tempo": 120.0
            },
            {
                "start_time": 7.727272727272727,
                "end_time": 7.827272727272727,
                "pitch": 55,
                "velocity": 101,
                "duration": 0.10000000000000053,
                "tempo": 120.0
            },
            {
                "start_time": 7.827272727272727,
                "end_time": 7.927272727272727,
                "pitch": 60,
                "velocity": 101,
                "duration": 0.09999999999999964,
                "tempo": 120.0
            },
            {
                "start_time": 7.927272727272727,
                "end_time": 8.027272727272727,
                "pitch": 48,
                "velocity": 101,
                "duration": 0.10000000000000053,
                "tempo": 120.0
            },
            {
                "start_time": 8.027272727272727,
                "end_time": 8.129545454545454,
                "pitch": 60,
                "velocity": 101,
                "duration": 0.10227272727272663,
                "tempo": 120.0
            },
            {
                "start_time": 8.129545454545454,
                "end_time": 8.229545454545454,
                "pitch": 48,
                "velocity": 101,
                "duration": 0.09999999999999964,
                "tempo": 120.0
            },
            {
                "start_time": 8.229545454545454,
                "end_time": 8.329545454545453,
                "pitch": 55,
                "velocity": 101,
                "duration": 0.09999999999999964,
                "tempo": 120.0
            },
            {
                "start_time": 8.329545454545453,
                "end_time": 8.429545454545455,
                "pitch": 67,
                "velocity": 101,
                "duration": 0.10000000000000142,
                "tempo": 120.0
            },
            {
                "start_time": 8.429545454545455,
                "end_time": 8.534090909090908,
                "pitch": 60,
                "velocity": 101,
                "duration": 0.10454545454545361,
                "tempo": 120.0
            },
            {
                "start_time": 8.534090909090908,
                "end_time": 8.636363636363637,
                "pitch": 48,
                "velocity": 101,
                "duration": 0.1022727272727284,
                "tempo": 120.0
            },
            {
                "start_time": 8.636363636363637,
                "end_time": 8.738636363636363,
                "pitch": 72,
                "velocity": 101,
                "duration": 0.10227272727272663,
                "tempo": 120.0
            },
            {
                "start_time": 8.738636363636363,
                "end_time": 8.84090909090909,
                "pitch": 48,
                "velocity": 101,
                "duration": 0.10227272727272663,
                "tempo": 120.0
            },
            {
                "start_time": 8.84090909090909,
                "end_time": 8.938636363636363,
                "pitch": 60,
                "velocity": 101,
                "duration": 0.09772727272727266,
                "tempo": 120.0
            },
            {
                "start_time": 8.938636363636363,
                "end_time": 9.036363636363635,
                "pitch": 48,
                "velocity": 101,
                "duration": 0.09772727272727266,
                "tempo": 120.0
            },
            {
                "start_time": 9.036363636363635,
                "end_time": 9.136363636363637,
                "pitch": 55,
                "velocity": 101,
                "duration": 0.10000000000000142,
                "tempo": 120.0
            },
            {
                "start_time": 9.136363636363637,
                "end_time": 9.23409090909091,
                "pitch": 72,
                "velocity": 101,
                "duration": 0.09772727272727266,
                "tempo": 120.0
            },
            {
                "start_time": 9.23409090909091,
                "end_time": 9.334090909090909,
                "pitch": 48,
                "velocity": 101,
                "duration": 0.09999999999999964,
                "tempo": 120.0
            },
            {
                "start_time": 9.334090909090909,
                "end_time": 9.434090909090909,
                "pitch": 55,
                "velocity": 101,
                "duration": 0.09999999999999964,
                "tempo": 120.0
            },
            {
                "start_time": 9.434090909090909,
                "end_time": 9.534090909090908,
                "pitch": 60,
                "velocity": 101,
                "duration": 0.09999999999999964,
                "tempo": 120.0
            },
            {
                "start_time": 9.534090909090908,
                "end_time": 9.634090909090908,
                "pitch": 48,
                "velocity": 101,
                "duration": 0.09999999999999964,
                "tempo": 120.0
            },
            {
                "start_time": 9.634090909090908,
                "end_time": 9.73409090909091,
                "pitch": 60,
                "velocity": 101,
                "duration": 0.10000000000000142,
                "tempo": 120.0
            },
            {
                "start_time": 9.73409090909091,
                "end_time": 9.834090909090909,
                "pitch": 48,
                "velocity": 101,
                "duration": 0.09999999999999964,
                "tempo": 120.0
            },
            {
                "start_time": 9.834090909090909,
                "end_time": 9.936363636363636,
                "pitch": 55,
                "velocity": 101,
                "duration": 0.10227272727272663,
                "tempo": 120.0
            },
            {
                "start_time": 9.936363636363636,
                "end_time": 10.036363636363635,
                "pitch": 67,
                "velocity": 101,
                "duration": 0.09999999999999964,
                "tempo": 120.0
            },
            {
                "start_time": 10.036363636363635,
                "end_time": 10.138636363636364,
                "pitch": 60,
                "velocity": 101,
                "duration": 0.1022727272727284,
                "tempo": 120.0
            },
            {
                "start_time": 10.138636363636364,
                "end_time": 10.24090909090909,
                "pitch": 48,
                "velocity": 101,
                "duration": 0.10227272727272663,
                "tempo": 120.0
            },
            {
                "start_time": 10.24090909090909,
                "end_time": 10.343181818181817,
                "pitch": 72,
                "velocity": 101,
                "duration": 0.10227272727272663,
                "tempo": 120.0
            },
            {
                "start_time": 10.343181818181817,
                "end_time": 10.447727272727272,
                "pitch": 48,
                "velocity": 101,
                "duration": 0.10454545454545539,
                "tempo": 120.0
            },
            {
                "start_time": 10.447727272727272,
                "end_time": 10.545454545454545,
                "pitch": 60,
                "velocity": 101,
                "duration": 0.09772727272727266,
                "tempo": 120.0
            },
            {
                "start_time": 10.545454545454545,
                "end_time": 10.643181818181818,
                "pitch": 48,
                "velocity": 101,
                "duration": 0.09772727272727266,
                "tempo": 120.0
            },
            {
                "start_time": 10.643181818181818,
                "end_time": 10.74090909090909,
                "pitch": 55,
                "velocity": 101,
                "duration": 0.09772727272727266,
                "tempo": 120.0
            },
            {
                "start_time": 10.74090909090909,
                "end_time": 10.838636363636363,
                "pitch": 72,
                "velocity": 101,
                "duration": 0.09772727272727266,
                "tempo": 120.0
            },
            {
                "start_time": 10.838636363636363,
                "end_time": 10.938636363636363,
                "pitch": 48,
                "velocity": 101,
                "duration": 0.09999999999999964,
                "tempo": 120.0
            },
            {
                "start_time": 10.938636363636363,
                "end_time": 11.040909090909091,
                "pitch": 55,
                "velocity": 101,
                "duration": 0.1022727272727284,
                "tempo": 120.0
            },
            {
                "start_time": 11.040909090909091,
                "end_time": 11.14090909090909,
                "pitch": 60,
                "velocity": 101,
                "duration": 0.09999999999999964,
                "tempo": 120.0
            },
            {
                "start_time": 11.14090909090909,
                "end_time": 11.24090909090909,
                "pitch": 48,
                "velocity": 101,
                "duration": 0.09999999999999964,
                "tempo": 120.0
            },
            {
                "start_time": 11.24090909090909,
                "end_time": 11.343181818181817,
                "pitch": 60,
                "velocity": 101,
                "duration": 0.10227272727272663,
                "tempo": 120.0
            },
            {
                "start_time": 11.343181818181817,
                "end_time": 11.447727272727272,
                "pitch": 48,
                "velocity": 101,
                "duration": 0.10454545454545539,
                "tempo": 120.0
            },
            {
                "start_time": 11.447727272727272,
                "end_time": 11.549999999999999,
                "pitch": 55,
                "velocity": 101,
                "duration": 0.10227272727272663,
                "tempo": 120.0
            },
            {
                "start_time": 11.549999999999999,
                "end_time": 11.652272727272727,
                "pitch": 67,
                "velocity": 101,
                "duration": 0.1022727272727284,
                "tempo": 120.0
            },
            {
                "start_time": 11.652272727272727,
                "end_time": 11.752272727272727,
                "pitch": 60,
                "velocity": 101,
                "duration": 0.09999999999999964,
                "tempo": 120.0
            },
            {
                "start_time": 11.752272727272727,
                "end_time": 11.852272727272727,
                "pitch": 48,
                "velocity": 101,
                "duration": 0.09999999999999964,
                "tempo": 120.0
            },
            {
                "start_time": 11.852272727272727,
                "end_time": 11.952272727272726,
                "pitch": 72,
                "velocity": 101,
                "duration": 0.09999999999999964,
                "tempo": 120.0
            },
            {
                "start_time": 11.952272727272726,
                "end_time": 12.052272727272726,
                "pitch": 48,
                "velocity": 101,
                "duration": 0.09999999999999964,
                "tempo": 120.0
            },
            {
                "start_time": 12.052272727272726,
                "end_time": 12.149999999999999,
                "pitch": 60,
                "velocity": 101,
                "duration": 0.09772727272727266,
                "tempo": 120.0
            },
            {
                "start_time": 12.149999999999999,
                "end_time": 12.247727272727273,
                "pitch": 48,
                "velocity": 101,
                "duration": 0.09772727272727444,
                "tempo": 120.0
            },
            {
                "start_time": 12.247727272727273,
                "end_time": 12.347727272727273,
                "pitch": 55,
                "velocity": 101,
                "duration": 0.09999999999999964,
                "tempo": 120.0
            },
            {
                "start_time": 12.347727272727273,
                "end_time": 12.445454545454545,
                "pitch": 72,
                "velocity": 101,
                "duration": 0.09772727272727266,
                "tempo": 120.0
            },
            {
                "start_time": 12.445454545454545,
                "end_time": 12.545454545454545,
                "pitch": 48,
                "velocity": 101,
                "duration": 0.09999999999999964,
                "tempo": 120.0
            },
            {
                "start_time": 12.545454545454545,
                "end_time": 12.645454545454545,
                "pitch": 55,
                "velocity": 101,
                "duration": 0.09999999999999964,
                "tempo": 120.0
            },
            {
                "start_time": 12.645454545454545,
                "end_time": 12.747727272727271,
                "pitch": 60,
                "velocity": 101,
                "duration": 0.10227272727272663,
                "tempo": 120.0
            },
            {
                "start_time": 12.747727272727271,
                "end_time": 12.863636363636363,
                "pitch": 48,
                "velocity": 101,
                "duration": 0.11590909090909207,
                "tempo": 120.0
            }
        ],
        "Acoustic Bass": [
            {
                "start_time": 0.0,
                "end_time": 0.19999999999999998,
                "pitch": 34,
                "velocity": 127,
                "duration": 0.19999999999999998,
                "tempo": 120.0
            },
            {
                "start_time": 0.19999999999999998,
                "end_time": 0.39999999999999997,
                "pitch": 46,
                "velocity": 127,
                "duration": 0.19999999999999998,
                "tempo": 120.0
            },
            {
                "start_time": 0.39999999999999997,
                "end_time": 0.6045454545454545,
                "pitch": 34,
                "velocity": 127,
                "duration": 0.20454545454545453,
                "tempo": 120.0
            },
            {
                "start_time": 0.6045454545454545,
                "end_time": 0.8113636363636363,
                "pitch": 46,
                "velocity": 127,
                "duration": 0.2068181818181818,
                "tempo": 120.0
            },
            {
                "start_time": 0.8113636363636363,
                "end_time": 1.0068181818181818,
                "pitch": 34,
                "velocity": 127,
                "duration": 0.19545454545454555,
                "tempo": 120.0
            },
            {
                "start_time": 1.0068181818181818,
                "end_time": 1.2022727272727272,
                "pitch": 46,
                "velocity": 127,
                "duration": 0.19545454545454533,
                "tempo": 120.0
            },
            {
                "start_time": 1.2022727272727272,
                "end_time": 1.4022727272727271,
                "pitch": 34,
                "velocity": 127,
                "duration": 0.19999999999999996,
                "tempo": 120.0
            },
            {
                "start_time": 1.4022727272727271,
                "end_time": 1.6022727272727273,
                "pitch": 46,
                "velocity": 127,
                "duration": 0.20000000000000018,
                "tempo": 120.0
            },
            {
                "start_time": 1.6022727272727273,
                "end_time": 1.8045454545454545,
                "pitch": 34,
                "velocity": 127,
                "duration": 0.20227272727272716,
                "tempo": 120.0
            },
            {
                "start_time": 1.8045454545454545,
                "end_time": 2.0045454545454544,
                "pitch": 46,
                "velocity": 127,
                "duration": 0.19999999999999996,
                "tempo": 120.0
            },
            {
                "start_time": 2.0045454545454544,
                "end_time": 2.2113636363636364,
                "pitch": 34,
                "velocity": 127,
                "duration": 0.206818181818182,
                "tempo": 120.0
            },
            {
                "start_time": 2.2113636363636364,
                "end_time": 2.415909090909091,
                "pitch": 46,
                "velocity": 127,
                "duration": 0.20454545454545459,
                "tempo": 120.0
            },
            {
                "start_time": 2.415909090909091,
                "end_time": 2.6113636363636363,
                "pitch": 34,
                "velocity": 127,
                "duration": 0.19545454545454533,
                "tempo": 120.0
            },
            {
                "start_time": 2.6113636363636363,
                "end_time": 2.809090909090909,
                "pitch": 46,
                "velocity": 127,
                "duration": 0.19772727272727275,
                "tempo": 120.0
            },
            {
                "start_time": 2.809090909090909,
                "end_time": 3.009090909090909,
                "pitch": 34,
                "velocity": 127,
                "duration": 0.19999999999999973,
                "tempo": 120.0
            },
            {
                "start_time": 3.009090909090909,
                "end_time": 3.209090909090909,
                "pitch": 46,
                "velocity": 127,
                "duration": 0.20000000000000018,
                "tempo": 120.0
            },
            {
                "start_time": 3.2249999999999996,
                "end_time": 3.4090909090909087,
                "pitch": 34,
                "velocity": 127,
                "duration": 0.18409090909090908,
                "tempo": 120.0
            },
            {
                "start_time": 3.4090909090909087,
                "end_time": 3.6113636363636363,
                "pitch": 46,
                "velocity": 127,
                "duration": 0.2022727272727276,
                "tempo": 120.0
            },
            {
                "start_time": 3.6113636363636363,
                "end_time": 3.815909090909091,
                "pitch": 34,
                "velocity": 127,
                "duration": 0.20454545454545459,
                "tempo": 120.0
            },
            {
                "start_time": 3.815909090909091,
                "end_time": 4.0227272727272725,
                "pitch": 46,
                "velocity": 127,
                "duration": 0.20681818181818157,
                "tempo": 120.0
            },
            {
                "start_time": 4.0227272727272725,
                "end_time": 4.218181818181818,
                "pitch": 34,
                "velocity": 127,
                "duration": 0.19545454545454533,
                "tempo": 120.0
            },
            {
                "start_time": 4.218181818181818,
                "end_time": 4.413636363636363,
                "pitch": 46,
                "velocity": 127,
                "duration": 0.19545454545454533,
                "tempo": 120.0
            },
            {
                "start_time": 4.413636363636363,
                "end_time": 4.61590909090909,
                "pitch": 34,
                "velocity": 127,
                "duration": 0.20227272727272716,
                "tempo": 120.0
            },
            {
                "start_time": 4.61590909090909,
                "end_time": 4.8159090909090905,
                "pitch": 46,
                "velocity": 127,
                "duration": 0.20000000000000018,
                "tempo": 120.0
            },
            {
                "start_time": 4.8159090909090905,
                "end_time": 5.015909090909091,
                "pitch": 34,
                "velocity": 127,
                "duration": 0.20000000000000018,
                "tempo": 120.0
            },
            {
                "start_time": 5.015909090909091,
                "end_time": 5.215909090909091,
                "pitch": 46,
                "velocity": 127,
                "duration": 0.20000000000000018,
                "tempo": 120.0
            },
            {
                "start_time": 5.215909090909091,
                "end_time": 5.422727272727273,
                "pitch": 34,
                "velocity": 127,
                "duration": 0.206818181818182,
                "tempo": 120.0
            },
            {
                "start_time": 5.422727272727273,
                "end_time": 5.627272727272727,
                "pitch": 46,
                "velocity": 127,
                "duration": 0.20454545454545414,
                "tempo": 120.0
            },
            {
                "start_time": 5.627272727272727,
                "end_time": 5.822727272727272,
                "pitch": 34,
                "velocity": 127,
                "duration": 0.19545454545454533,
                "tempo": 120.0
            },
            {
                "start_time": 5.822727272727272,
                "end_time": 6.0204545454545455,
                "pitch": 46,
                "velocity": 127,
                "duration": 0.1977272727272732,
                "tempo": 120.0
            },
            {
                "start_time": 6.0204545454545455,
                "end_time": 6.220454545454545,
                "pitch": 34,
                "velocity": 127,
                "duration": 0.1999999999999993,
                "tempo": 120.0
            },
            {
                "start_time": 6.220454545454545,
                "end_time": 6.4386363636363635,
                "pitch": 46,
                "velocity": 127,
                "duration": 0.2181818181818187,
                "tempo": 120.0
            },
            {
                "start_time": 6.4386363636363635,
                "end_time": 6.622727272727272,
                "pitch": 34,
                "velocity": 127,
                "duration": 0.18409090909090864,
                "tempo": 120.0
            },
            {
                "start_time": 6.622727272727272,
                "end_time": 6.824999999999999,
                "pitch": 48,
                "velocity": 127,
                "duration": 0.20227272727272716,
                "tempo": 120.0
            },
            {
                "start_time": 6.824999999999999,
                "end_time": 7.029545454545454,
                "pitch": 36,
                "velocity": 127,
                "duration": 0.20454545454545503,
                "tempo": 120.0
            },
            {
                "start_time": 7.029545454545454,
                "end_time": 7.236363636363636,
                "pitch": 48,
                "velocity": 127,
                "duration": 0.206818181818182,
                "tempo": 120.0
            },
            {
                "start_time": 7.236363636363636,
                "end_time": 7.431818181818182,
                "pitch": 36,
                "velocity": 127,
                "duration": 0.19545454545454533,
                "tempo": 120.0
            },
            {
                "start_time": 7.431818181818182,
                "end_time": 7.627272727272727,
                "pitch": 48,
                "velocity": 127,
                "duration": 0.19545454545454533,
                "tempo": 120.0
            },
            {
                "start_time": 7.627272727272727,
                "end_time": 7.827272727272727,
                "pitch": 36,
                "velocity": 127,
                "duration": 0.20000000000000018,
                "tempo": 120.0
            },
            {
                "start_time": 7.827272727272727,
                "end_time": 8.027272727272727,
                "pitch": 48,
                "velocity": 127,
                "duration": 0.20000000000000018,
                "tempo": 120.0
            },
            {
                "start_time": 8.027272727272727,
                "end_time": 8.229545454545454,
                "pitch": 36,
                "velocity": 127,
                "duration": 0.20227272727272627,
                "tempo": 120.0
            },
            {
                "start_time": 8.229545454545454,
                "end_time": 8.429545454545455,
                "pitch": 48,
                "velocity": 127,
                "duration": 0.20000000000000107,
                "tempo": 120.0
            },
            {
                "start_time": 8.429545454545455,
                "end_time": 8.636363636363637,
                "pitch": 36,
                "velocity": 127,
                "duration": 0.206818181818182,
                "tempo": 120.0
            },
            {
                "start_time": 8.636363636363637,
                "end_time": 8.84090909090909,
                "pitch": 48,
                "velocity": 127,
                "duration": 0.20454545454545325,
                "tempo": 120.0
            },
            {
                "start_time": 8.84090909090909,
                "end_time": 9.036363636363635,
                "pitch": 36,
                "velocity": 127,
                "duration": 0.19545454545454533,
                "tempo": 120.0
            },
            {
                "start_time": 9.036363636363635,
                "end_time": 9.23409090909091,
                "pitch": 48,
                "velocity": 127,
                "duration": 0.19772727272727408,
                "tempo": 120.0
            },
            {
                "start_time": 9.23409090909091,
                "end_time": 9.434090909090909,
                "pitch": 36,
                "velocity": 127,
                "duration": 0.1999999999999993,
                "tempo": 120.0
            },
            {
                "start_time": 9.434090909090909,
                "end_time": 9.634090909090908,
                "pitch": 48,
                "velocity": 127,
                "duration": 0.1999999999999993,
                "tempo": 120.0
            },
            {
                "start_time": 9.634090909090908,
                "end_time": 9.834090909090909,
                "pitch": 36,
                "velocity": 127,
                "duration": 0.20000000000000107,
                "tempo": 120.0
            },
            {
                "start_time": 9.834090909090909,
                "end_time": 10.036363636363635,
                "pitch": 48,
                "velocity": 127,
                "duration": 0.20227272727272627,
                "tempo": 120.0
            },
            {
                "start_time": 10.036363636363635,
                "end_time": 10.24090909090909,
                "pitch": 36,
                "velocity": 127,
                "duration": 0.20454545454545503,
                "tempo": 120.0
            },
            {
                "start_time": 10.24090909090909,
                "end_time": 10.447727272727272,
                "pitch": 48,
                "velocity": 127,
                "duration": 0.206818181818182,
                "tempo": 120.0
            },
            {
                "start_time": 10.447727272727272,
                "end_time": 10.643181818181818,
                "pitch": 36,
                "velocity": 127,
                "duration": 0.19545454545454533,
                "tempo": 120.0
            },
            {
                "start_time": 10.643181818181818,
                "end_time": 10.838636363636363,
                "pitch": 48,
                "velocity": 127,
                "duration": 0.19545454545454533,
                "tempo": 120.0
            },
            {
                "start_time": 10.838636363636363,
                "end_time": 11.040909090909091,
                "pitch": 36,
                "velocity": 127,
                "duration": 0.20227272727272805,
                "tempo": 120.0
            },
            {
                "start_time": 11.040909090909091,
                "end_time": 11.24090909090909,
                "pitch": 48,
                "velocity": 127,
                "duration": 0.1999999999999993,
                "tempo": 120.0
            },
            {
                "start_time": 11.24090909090909,
                "end_time": 11.447727272727272,
                "pitch": 36,
                "velocity": 127,
                "duration": 0.206818181818182,
                "tempo": 120.0
            },
            {
                "start_time": 11.447727272727272,
                "end_time": 11.652272727272727,
                "pitch": 48,
                "velocity": 127,
                "duration": 0.20454545454545503,
                "tempo": 120.0
            },
            {
                "start_time": 11.652272727272727,
                "end_time": 11.852272727272727,
                "pitch": 36,
                "velocity": 127,
                "duration": 0.1999999999999993,
                "tempo": 120.0
            },
            {
                "start_time": 11.852272727272727,
                "end_time": 12.052272727272726,
                "pitch": 48,
                "velocity": 127,
                "duration": 0.1999999999999993,
                "tempo": 120.0
            },
            {
                "start_time": 12.052272727272726,
                "end_time": 12.247727272727273,
                "pitch": 36,
                "velocity": 127,
                "duration": 0.1954545454545471,
                "tempo": 120.0
            },
            {
                "start_time": 12.247727272727273,
                "end_time": 12.445454545454545,
                "pitch": 48,
                "velocity": 127,
                "duration": 0.1977272727272723,
                "tempo": 120.0
            },
            {
                "start_time": 12.445454545454545,
                "end_time": 12.645454545454545,
                "pitch": 36,
                "velocity": 127,
                "duration": 0.1999999999999993,
                "tempo": 120.0
            },
            {
                "start_time": 12.645454545454545,
                "end_time": 12.863636363636363,
                "pitch": 48,
                "velocity": 127,
                "duration": 0.2181818181818187,
                "tempo": 120.0
            }
        ]
    }
}