{
    "track_id": "Power Strike, Aleste (FM) - 12 - Triumph",
    "mood": "angry",
    "instruments": {
        "Lead 2 (sawtooth)": [
            {
                "start_time": 25.7,
                "end_time": 25.902272727272727,
                "pitch": 44,
                "velocity": 80,
                "duration": 0.20227272727272805,
                "tempo": 120.0
            },
            {
                "start_time": 25.902272727272727,
                "end_time": 26.102272727272727,
                "pitch": 44,
                "velocity": 80,
                "duration": 0.1999999999999993,
                "tempo": 120.0
            },
            {
                "start_time": 26.102272727272727,
                "end_time": 26.302272727272726,
                "pitch": 48,
                "velocity": 80,
                "duration": 0.1999999999999993,
                "tempo": 120.0
            },
            {
                "start_time": 26.302272727272726,
                "end_time": 26.502272727272725,
                "pitch": 44,
                "velocity": 80,
                "duration": 0.1999999999999993,
                "tempo": 120.0
            },
            {
                "start_time": 26.502272727272725,
                "end_time": 26.704545454545453,
                "pitch": 51,
                "velocity": 80,
                "duration": 0.20227272727272805,
                "tempo": 120.0
            },
            {
                "start_time": 26.704545454545453,
                "end_time": 26.90681818181818,
                "pitch": 51,
                "velocity": 80,
                "duration": 0.20227272727272805,
                "tempo": 120.0
            },
            {
                "start_time": 26.90681818181818,
                "end_time": 27.10681818181818,
                "pitch": 48,
                "velocity": 80,
                "duration": 0.1999999999999993,
                "tempo": 120.0
            },
            {
                "start_time": 27.10681818181818,
                "end_time": 27.30681818181818,
                "pitch": 51,
                "velocity": 80,
                "duration": 0.1999999999999993,
                "tempo": 120.0
            },
            {
                "start_time": 27.30681818181818,
                "end_time": 27.50681818181818,
                "pitch": 46,
                "velocity": 80,
                "duration": 0.1999999999999993,
                "tempo": 120.0
            },
            {
                "start_time": 27.50681818181818,
                "end_time": 27.706818181818182,
                "pitch": 46,
                "velocity": 80,
                "duration": 0.20000000000000284,
                "tempo": 120.0
            },
            {
                "start_time": 27.706818181818182,
                "end_time": 27.90681818181818,
                "pitch": 50,
                "velocity": 80,
                "duration": 0.1999999999999993,
                "tempo": 120.0
            },
            {
                "start_time": 27.90681818181818,
                "end_time": 28.10909090909091,
                "pitch": 46,
                "velocity": 80,
                "duration": 0.20227272727272805,
                "tempo": 120.0
            },
            {
                "start_time": 28.10909090909091,
                "end_time": 28.30909090909091,
                "pitch": 53,
                "velocity": 80,
                "duration": 0.1999999999999993,
                "tempo": 120.0
            },
            {
                "start_time": 28.30909090909091,
                "end_time": 28.509090909090908,
                "pitch": 51,
                "velocity": 80,
                "duration": 0.1999999999999993,
                "tempo": 120.0
            },
            {
                "start_time": 28.509090909090908,
                "end_time": 28.709090909090907,
                "pitch": 51,
                "velocity": 80,
                "duration": 0.1999999999999993,
                "tempo": 120.0
            },
            {
                "start_time": 28.709090909090907,
                "end_time": 28.911363636363635,
                "pitch": 53,
                "velocity": 80,
                "duration": 0.20227272727272805,
                "tempo": 120.0
            },
            {
                "start_time": 28.911363636363635,
                "end_time": 28.977272727272727,
                "pitch": 43,
                "velocity": 80,
                "duration": 0.06590909090909136,
                "tempo": 120.0
            },
            {
                "start_time": 28.977272727272727,
                "end_time": 29.045454545454543,
                "pitch": 43,
                "velocity": 80,
                "duration": 0.06818181818181657,
                "tempo": 120.0
            },
            {
                "start_time": 29.045454545454543,
                "end_time": 29.111363636363635,
                "pitch": 43,
                "velocity": 80,
                "duration": 0.06590909090909136,
                "tempo": 120.0
            },
            {
                "start_time": 29.111363636363635,
                "end_time": 29.177272727272726,
                "pitch": 43,
                "velocity": 80,
                "duration": 0.06590909090909136,
                "tempo": 120.0
            },
            {
                "start_time": 29.177272727272726,
                "end_time": 29.245454545454542,
                "pitch": 43,
                "velocity": 80,
                "duration": 0.06818181818181657,
                "tempo": 120.0
            },
            {
                "start_time": 29.245454545454542,
                "end_time": 29.311363636363634,
                "pitch": 43,
                "velocity": 80,
                "duration": 0.06590909090909136,
                "tempo": 120.0
            },
            {
                "start_time": 29.311363636363634,
                "end_time": 29.511363636363637,
                "pitch": 46,
                "velocity": 80,
                "duration": 0.20000000000000284,
                "tempo": 120.0
            },
            {
                "start_time": 29.511363636363637,
                "end_time": 29.577272727272724,
                "pitch": 43,
                "velocity": 80,
                "duration": 0.06590909090908781,
                "tempo": 120.0
            },
            {
                "start_time": 29.577272727272724,
                "end_time": 29.645454545454545,
                "pitch": 43,
                "velocity": 80,
                "duration": 0.06818181818182012,
                "tempo": 120.0
            },
            {
                "start_time": 29.645454545454545,
                "end_time": 29.711363636363636,
                "pitch": 43,
                "velocity": 80,
                "duration": 0.06590909090909136,
                "tempo": 120.0
            },
            {
                "start_time": 29.711363636363636,
                "end_time": 29.911363636363635,
                "pitch": 50,
                "velocity": 80,
                "duration": 0.1999999999999993,
                "tempo": 120.0
            },
            {
                "start_time": 29.911363636363635,
                "end_time": 30.113636363636363,
                "pitch": 48,
                "velocity": 80,
                "duration": 0.20227272727272805,
                "tempo": 120.0
            },
            {
                "start_time": 30.113636363636363,
                "end_time": 30.313636363636363,
                "pitch": 46,
                "velocity": 80,
                "duration": 0.1999999999999993,
                "tempo": 120.0
            },
            {
                "start_time": 30.313636363636363,
                "end_time": 30.513636363636362,
                "pitch": 50,
                "velocity": 80,
                "duration": 0.1999999999999993,
                "tempo": 120.0
            },
            {
                "start_time": 30.513636363636362,
                "end_time": 30.71590909090909,
                "pitch": 48,
                "velocity": 80,
                "duration": 0.20227272727272805,
                "tempo": 120.0
            },
            {
                "start_time": 30.71590909090909,
                "end_time": 30.91590909090909,
                "pitch": 48,
                "velocity": 80,
                "duration": 0.1999999999999993,
                "tempo": 120.0
            },
            {
                "start_time": 30.91590909090909,
                "end_time": 31.11590909090909,
                "pitch": 51,
                "velocity": 80,
                "duration": 0.1999999999999993,
                "tempo": 120.0
            },
            {
                "start_time": 31.11590909090909,
                "end_time": 31.315909090909088,
                "pitch": 48,
                "velocity": 80,
                "duration": 0.1999999999999993,
                "tempo": 120.0
            },
            {
                "start_time": 31.315909090909088,
                "end_time": 31.384090909090908,
                "pitch": 55,
                "velocity": 80,
                "duration": 0.06818181818182012,
                "tempo": 120.0
            },
            {
                "start_time": 31.384090909090908,
                "end_time": 31.45,
                "pitch": 55,
                "velocity": 80,
                "duration": 0.06590909090909136,
                "tempo": 120.0
            },
            {
                "start_time": 31.45,
                "end_time": 31.51590909090909,
                "pitch": 55,
                "velocity": 80,
                "duration": 0.06590909090909136,
                "tempo": 120.0
            },
            {
                "start_time": 31.51590909090909,
                "end_time": 31.71590909090909,
                "pitch": 55,
                "velocity": 80,
                "duration": 0.1999999999999993,
                "tempo": 120.0
            },
            {
                "start_time": 31.71590909090909,
                "end_time": 31.918181818181818,
                "pitch": 51,
                "velocity": 80,
                "duration": 0.20227272727272805,
                "tempo": 120.0
            },
            {
                "start_time": 31.918181818181818,
                "end_time": 31.984090909090906,
                "pitch": 43,
                "velocity": 80,
                "duration": 0.06590909090908781,
                "tempo": 120.0
            },
            {
                "start_time": 31.984090909090906,
                "end_time": 32.05227272727272,
                "pitch": 43,
                "velocity": 80,
                "duration": 0.06818181818181657,
                "tempo": 120.0
            },
            {
                "start_time": 32.05227272727272,
                "end_time": 32.11818181818182,
                "pitch": 43,
                "velocity": 80,
                "duration": 0.06590909090909491,
                "tempo": 120.0
            },
            {
                "start_time": 32.11818181818182,
                "end_time": 32.320454545454545,
                "pitch": 44,
                "velocity": 80,
                "duration": 0.20227272727272805,
                "tempo": 120.0
            },
            {
                "start_time": 32.320454545454545,
                "end_time": 32.52272727272727,
                "pitch": 44,
                "velocity": 80,
                "duration": 0.20227272727272805,
                "tempo": 120.0
            },
            {
                "start_time": 32.52272727272727,
                "end_time": 32.72272727272727,
                "pitch": 48,
                "velocity": 80,
                "duration": 0.19999999999999574,
                "tempo": 120.0
            },
            {
                "start_time": 32.72272727272727,
                "end_time": 32.92272727272727,
                "pitch": 44,
                "velocity": 80,
                "duration": 0.20000000000000284,
                "tempo": 120.0
            },
            {
                "start_time": 32.92272727272727,
                "end_time": 33.12272727272727,
                "pitch": 51,
                "velocity": 80,
                "duration": 0.19999999999999574,
                "tempo": 120.0
            },
            {
                "start_time": 33.12272727272727,
                "end_time": 33.32272727272727,
                "pitch": 51,
                "velocity": 80,
                "duration": 0.20000000000000284,
                "tempo": 120.0
            },
            {
                "start_time": 33.32272727272727,
                "end_time": 33.52272727272727,
                "pitch": 48,
                "velocity": 80,
                "duration": 0.20000000000000284,
                "tempo": 120.0
            },
            {
                "start_time": 33.52272727272727,
                "end_time": 33.72272727272727,
                "pitch": 51,
                "velocity": 80,
                "duration": 0.19999999999999574,
                "tempo": 120.0
            },
            {
                "start_time": 33.72272727272727,
                "end_time": 33.92272727272727,
                "pitch": 46,
                "velocity": 80,
                "duration": 0.20000000000000284,
                "tempo": 120.0
            },
            {
                "start_time": 33.92272727272727,
                "end_time": 34.12272727272727,
                "pitch": 46,
                "velocity": 80,
                "duration": 0.19999999999999574,
                "tempo": 120.0
            },
            {
                "start_time": 34.12272727272727,
                "end_time": 34.32272727272727,
                "pitch": 50,
                "velocity": 80,
                "duration": 0.20000000000000284,
                "tempo": 120.0
            },
            {
                "start_time": 34.32272727272727,
                "end_time": 34.525,
                "pitch": 46,
                "velocity": 80,
                "duration": 0.20227272727272805,
                "tempo": 120.0
            },
            {
                "start_time": 34.525,
                "end_time": 34.725,
                "pitch": 53,
                "velocity": 80,
                "duration": 0.20000000000000284,
                "tempo": 120.0
            },
            {
                "start_time": 34.725,
                "end_time": 34.925,
                "pitch": 51,
                "velocity": 80,
                "duration": 0.19999999999999574,
                "tempo": 120.0
            },
            {
                "start_time": 34.925,
                "end_time": 35.125,
                "pitch": 51,
                "velocity": 80,
                "duration": 0.20000000000000284,
                "tempo": 120.0
            },
            {
                "start_time": 35.125,
                "end_time": 35.324999999999996,
                "pitch": 53,
                "velocity": 80,
                "duration": 0.19999999999999574,
                "tempo": 120.0
            },
            {
                "start_time": 35.324999999999996,
                "end_time": 35.39090909090909,
                "pitch": 55,
                "velocity": 80,
                "duration": 0.06590909090909491,
                "tempo": 120.0
            },
            {
                "start_time": 35.39090909090909,
                "end_time": 35.45681818181818,
                "pitch": 55,
                "velocity": 80,
                "duration": 0.06590909090908781,
                "tempo": 120.0
            },
            {
                "start_time": 35.45681818181818,
                "end_time": 35.525,
                "pitch": 55,
                "velocity": 80,
                "duration": 0.06818181818182012,
                "tempo": 120.0
            },
            {
                "start_time": 35.525,
                "end_time": 35.590909090909086,
                "pitch": 55,
                "velocity": 80,
                "duration": 0.06590909090908781,
                "tempo": 120.0
            },
            {
                "start_time": 35.590909090909086,
                "end_time": 35.65681818181818,
                "pitch": 55,
                "velocity": 80,
                "duration": 0.06590909090909491,
                "tempo": 120.0
            },
            {
                "start_time": 35.65681818181818,
                "end_time": 35.725,
                "pitch": 55,
                "velocity": 80,
                "duration": 0.06818181818182012,
                "tempo": 120.0
            },
            {
                "start_time": 35.725,
                "end_time": 35.79090909090909,
                "pitch": 55,
                "velocity": 80,
                "duration": 0.06590909090908781,
                "tempo": 120.0
            },
            {
                "start_time": 35.79090909090909,
                "end_time": 35.85681818181818,
                "pitch": 55,
                "velocity": 80,
                "duration": 0.06590909090908781,
                "tempo": 120.0
            },
            {
                "start_time": 35.85681818181818,
                "end_time": 35.925,
                "pitch": 55,
                "velocity": 80,
                "duration": 0.06818181818182012,
                "tempo": 120.0
            },
            {
                "start_time": 35.925,
                "end_time": 35.99090909090909,
                "pitch": 55,
                "velocity": 80,
                "duration": 0.06590909090909491,
                "tempo": 120.0
            },
            {
                "start_time": 35.99090909090909,
                "end_time": 36.05681818181818,
                "pitch": 55,
                "velocity": 80,
                "duration": 0.06590909090908781,
                "tempo": 120.0
            },
            {
                "start_time": 36.05681818181818,
                "end_time": 36.125,
                "pitch": 55,
                "velocity": 80,
                "duration": 0.06818181818182012,
                "tempo": 120.0
            },
            {
                "start_time": 36.125,
                "end_time": 36.19090909090909,
                "pitch": 55,
                "velocity": 80,
                "duration": 0.06590909090908781,
                "tempo": 120.0
            },
            {
                "start_time": 36.19090909090909,
                "end_time": 36.25909090909091,
                "pitch": 55,
                "velocity": 80,
                "duration": 0.06818181818182012,
                "tempo": 120.0
            },
            {
                "start_time": 36.25909090909091,
                "end_time": 36.324999999999996,
                "pitch": 55,
                "velocity": 80,
                "duration": 0.06590909090908781,
                "tempo": 120.0
            },
            {
                "start_time": 36.324999999999996,
                "end_time": 36.393181818181816,
                "pitch": 55,
                "velocity": 80,
                "duration": 0.06818181818182012,
                "tempo": 120.0
            },
            {
                "start_time": 36.393181818181816,
                "end_time": 36.45909090909091,
                "pitch": 55,
                "velocity": 80,
                "duration": 0.06590909090909491,
                "tempo": 120.0
            },
            {
                "start_time": 36.45909090909091,
                "end_time": 36.527272727272724,
                "pitch": 55,
                "velocity": 80,
                "duration": 0.06818181818181301,
                "tempo": 120.0
            },
            {
                "start_time": 36.527272727272724,
                "end_time": 36.59318181818182,
                "pitch": 55,
                "velocity": 80,
                "duration": 0.06590909090909491,
                "tempo": 120.0
            },
            {
                "start_time": 36.59318181818182,
                "end_time": 36.66136363636363,
                "pitch": 55,
                "velocity": 80,
                "duration": 0.06818181818181301,
                "tempo": 120.0
            },
            {
                "start_time": 36.66136363636363,
                "end_time": 36.72727272727273,
                "pitch": 55,
                "velocity": 80,
                "duration": 0.06590909090909491,
                "tempo": 120.0
            },
            {
                "start_time": 36.72727272727273,
                "end_time": 36.793181818181814,
                "pitch": 55,
                "velocity": 80,
                "duration": 0.06590909090908781,
                "tempo": 120.0
            },
            {
                "start_time": 36.793181818181814,
                "end_time": 36.861363636363635,
                "pitch": 55,
                "velocity": 80,
                "duration": 0.06818181818182012,
                "tempo": 120.0
            }
        ],
        "Acoustic Bass": [
            {
                "start_time": 0.015909090909090907,
                "end_time": 0.2159090909090909,
                "pitch": 48,
                "velocity": 127,
                "duration": 0.2,
                "tempo": 120.0
            },
            {
                "start_time": 0.2159090909090909,
                "end_time": 0.4159090909090909,
                "pitch": 48,
                "velocity": 127,
                "duration": 0.19999999999999998,
                "tempo": 120.0
            },
            {
                "start_time": 0.4159090909090909,
                "end_time": 0.6159090909090909,
                "pitch": 48,
                "velocity": 127,
                "duration": 0.19999999999999996,
                "tempo": 120.0
            },
            {
                "start_time": 0.6159090909090909,
                "end_time": 1.0159090909090909,
                "pitch": 48,
                "velocity": 127,
                "duration": 0.4,
                "tempo": 120.0
            },
            {
                "start_time": 1.0159090909090909,
                "end_time": 1.2159090909090908,
                "pitch": 48,
                "velocity": 127,
                "duration": 0.19999999999999996,
                "tempo": 120.0
            },
            {
                "start_time": 1.2159090909090908,
                "end_time": 1.4159090909090908,
                "pitch": 48,
                "velocity": 127,
                "duration": 0.19999999999999996,
                "tempo": 120.0
            },
            {
                "start_time": 1.4159090909090908,
                "end_time": 1.6159090909090907,
                "pitch": 48,
                "velocity": 127,
                "duration": 0.19999999999999996,
                "tempo": 120.0
            },
            {
                "start_time": 1.6159090909090907,
                "end_time": 1.8181818181818181,
                "pitch": 48,
                "velocity": 127,
                "duration": 0.20227272727272738,
                "tempo": 120.0
            },
            {
                "start_time": 1.8181818181818181,
                "end_time": 2.0204545454545455,
                "pitch": 48,
                "velocity": 127,
                "duration": 0.20227272727272738,
                "tempo": 120.0
            },
            {
                "start_time": 2.0204545454545455,
                "end_time": 2.2204545454545452,
                "pitch": 48,
                "velocity": 127,
                "duration": 0.19999999999999973,
                "tempo": 120.0
            },
            {
                "start_time": 2.2204545454545452,
                "end_time": 2.620454545454545,
                "pitch": 48,
                "velocity": 127,
                "duration": 0.3999999999999999,
                "tempo": 120.0
            },
            {
                "start_time": 2.620454545454545,
                "end_time": 2.8204545454545453,
                "pitch": 48,
                "velocity": 127,
                "duration": 0.20000000000000018,
                "tempo": 120.0
            },
            {
                "start_time": 2.8204545454545453,
                "end_time": 3.0204545454545455,
                "pitch": 48,
                "velocity": 127,
                "duration": 0.20000000000000018,
                "tempo": 120.0
            },
            {
                "start_time": 3.0204545454545455,
                "end_time": 3.2204545454545452,
                "pitch": 48,
                "velocity": 127,
                "duration": 0.19999999999999973,
                "tempo": 120.0
            },
            {
                "start_time": 3.2204545454545452,
                "end_time": 3.4204545454545454,
                "pitch": 44,
                "velocity": 127,
                "duration": 0.20000000000000018,
                "tempo": 120.0
            },
            {
                "start_time": 3.4204545454545454,
                "end_time": 3.6227272727272726,
                "pitch": 44,
                "velocity": 127,
                "duration": 0.20227272727272716,
                "tempo": 120.0
            },
            {
                "start_time": 3.6227272727272726,
                "end_time": 3.8227272727272728,
                "pitch": 44,
                "velocity": 127,
                "duration": 0.20000000000000018,
                "tempo": 120.0
            },
            {
                "start_time": 3.8227272727272728,
                "end_time": 4.222727272727273,
                "pitch": 44,
                "velocity": 127,
                "duration": 0.3999999999999999,
                "tempo": 120.0
            },
            {
                "start_time": 4.222727272727273,
                "end_time": 4.422727272727273,
                "pitch": 44,
                "velocity": 127,
                "duration": 0.20000000000000018,
                "tempo": 120.0
            },
            {
                "start_time": 4.422727272727273,
                "end_time": 4.622727272727272,
                "pitch": 44,
                "velocity": 127,
                "duration": 0.1999999999999993,
                "tempo": 120.0
            },
            {
                "start_time": 4.622727272727272,
                "end_time": 4.825,
                "pitch": 44,
                "velocity": 127,
                "duration": 0.20227272727272805,
                "tempo": 120.0
            },
            {
                "start_time": 4.825,
                "end_time": 5.0249999999999995,
                "pitch": 44,
                "velocity": 127,
                "duration": 0.1999999999999993,
                "tempo": 120.0
            },
            {
                "start_time": 5.0249999999999995,
                "end_time": 5.227272727272727,
                "pitch": 44,
                "velocity": 127,
                "duration": 0.20227272727272716,
                "tempo": 120.0
            },
            {
                "start_time": 5.227272727272727,
                "end_time": 5.427272727272727,
                "pitch": 44,
                "velocity": 127,
                "duration": 0.20000000000000018,
                "tempo": 120.0
            },
            {
                "start_time": 5.427272727272727,
                "end_time": 5.829545454545454,
                "pitch": 44,
                "velocity": 127,
                "duration": 0.40227272727272734,
                "tempo": 120.0
            },
            {
                "start_time": 5.829545454545454,
                "end_time": 6.029545454545454,
                "pitch": 44,
                "velocity": 127,
                "duration": 0.20000000000000018,
                "tempo": 120.0
            },
            {
                "start_time": 6.029545454545454,
                "end_time": 6.2295454545454545,
                "pitch": 44,
                "velocity": 127,
                "duration": 0.20000000000000018,
                "tempo": 120.0
            },
            {
                "start_time": 6.2295454545454545,
                "end_time": 6.429545454545455,
                "pitch": 44,
                "velocity": 127,
                "duration": 0.20000000000000018,
                "tempo": 120.0
            },
            {
                "start_time": 6.429545454545455,
                "end_time": 6.631818181818182,
                "pitch": 46,
                "velocity": 127,
                "duration": 0.20227272727272716,
                "tempo": 120.0
            },
            {
                "start_time": 6.631818181818182,
                "end_time": 6.831818181818181,
                "pitch": 46,
                "velocity": 127,
                "duration": 0.1999999999999993,
                "tempo": 120.0
            },
            {
                "start_time": 6.831818181818181,
                "end_time": 7.034090909090909,
                "pitch": 46,
                "velocity": 127,
                "duration": 0.20227272727272805,
                "tempo": 120.0
            },
            {
                "start_time": 7.034090909090909,
                "end_time": 7.436363636363636,
                "pitch": 46,
                "velocity": 127,
                "duration": 0.40227272727272645,
                "tempo": 120.0
            },
            {
                "start_time": 7.436363636363636,
                "end_time": 7.636363636363636,
                "pitch": 46,
                "velocity": 127,
                "duration": 0.20000000000000018,
                "tempo": 120.0
            },
            {
                "start_time": 7.636363636363636,
                "end_time": 7.836363636363636,
                "pitch": 46,
                "velocity": 127,
                "duration": 0.20000000000000018,
                "tempo": 120.0
            },
            {
                "start_time": 7.836363636363636,
                "end_time": 8.038636363636364,
                "pitch": 46,
                "velocity": 127,
                "duration": 0.20227272727272805,
                "tempo": 120.0
            },
            {
                "start_time": 8.038636363636364,
                "end_time": 8.238636363636363,
                "pitch": 46,
                "velocity": 127,
                "duration": 0.1999999999999993,
                "tempo": 120.0
            },
            {
                "start_time": 8.238636363636363,
                "end_time": 8.438636363636363,
                "pitch": 46,
                "velocity": 127,
                "duration": 0.1999999999999993,
                "tempo": 120.0
            },
            {
                "start_time": 8.438636363636363,
                "end_time": 8.638636363636364,
                "pitch": 46,
                "velocity": 127,
                "duration": 0.20000000000000107,
                "tempo": 120.0
            },
            {
                "start_time": 8.638636363636364,
                "end_time": 9.036363636363635,
                "pitch": 46,
                "velocity": 127,
                "duration": 0.3977272727272716,
                "tempo": 120.0
            },
            {
                "start_time": 9.036363636363635,
                "end_time": 9.23181818181818,
                "pitch": 46,
                "velocity": 127,
                "duration": 0.19545454545454533,
                "tempo": 120.0
            },
            {
                "start_time": 9.23181818181818,
                "end_time": 9.438636363636363,
                "pitch": 46,
                "velocity": 127,
                "duration": 0.206818181818182,
                "tempo": 120.0
            },
            {
                "start_time": 9.438636363636363,
                "end_time": 9.643181818181818,
                "pitch": 46,
                "velocity": 127,
                "duration": 0.20454545454545503,
                "tempo": 120.0
            },
            {
                "start_time": 9.643181818181818,
                "end_time": 9.843181818181817,
                "pitch": 43,
                "velocity": 127,
                "duration": 0.1999999999999993,
                "tempo": 120.0
            },
            {
                "start_time": 9.843181818181817,
                "end_time": 10.043181818181818,
                "pitch": 43,
                "velocity": 127,
                "duration": 0.20000000000000107,
                "tempo": 120.0
            },
            {
                "start_time": 10.043181818181818,
                "end_time": 10.245454545454544,
                "pitch": 43,
                "velocity": 127,
                "duration": 0.20227272727272627,
                "tempo": 120.0
            },
            {
                "start_time": 10.245454545454544,
                "end_time": 10.647727272727272,
                "pitch": 43,
                "velocity": 127,
                "duration": 0.40227272727272734,
                "tempo": 120.0
            },
            {
                "start_time": 10.647727272727272,
                "end_time": 10.85,
                "pitch": 43,
                "velocity": 127,
                "duration": 0.20227272727272805,
                "tempo": 120.0
            },
            {
                "start_time": 10.85,
                "end_time": 11.049999999999999,
                "pitch": 43,
                "velocity": 127,
                "duration": 0.1999999999999993,
                "tempo": 120.0
            },
            {
                "start_time": 11.049999999999999,
                "end_time": 11.252272727272727,
                "pitch": 43,
                "velocity": 127,
                "duration": 0.20227272727272805,
                "tempo": 120.0
            },
            {
                "start_time": 11.252272727272727,
                "end_time": 11.452272727272726,
                "pitch": 43,
                "velocity": 127,
                "duration": 0.1999999999999993,
                "tempo": 120.0
            },
            {
                "start_time": 11.452272727272726,
                "end_time": 11.654545454545454,
                "pitch": 43,
                "velocity": 127,
                "duration": 0.20227272727272805,
                "tempo": 120.0
            },
            {
                "start_time": 11.654545454545454,
                "end_time": 11.85,
                "pitch": 43,
                "velocity": 127,
                "duration": 0.19545454545454533,
                "tempo": 120.0
            },
            {
                "start_time": 11.85,
                "end_time": 12.252272727272727,
                "pitch": 43,
                "velocity": 127,
                "duration": 0.40227272727272734,
                "tempo": 120.0
            },
            {
                "start_time": 12.252272727272727,
                "end_time": 12.456818181818182,
                "pitch": 46,
                "velocity": 127,
                "duration": 0.20454545454545503,
                "tempo": 120.0
            },
            {
                "start_time": 12.456818181818182,
                "end_time": 12.652272727272727,
                "pitch": 46,
                "velocity": 127,
                "duration": 0.19545454545454533,
                "tempo": 120.0
            },
            {
                "start_time": 12.652272727272727,
                "end_time": 12.85,
                "pitch": 46,
                "velocity": 127,
                "duration": 0.1977272727272723,
                "tempo": 120.0
            },
            {
                "start_time": 12.85,
                "end_time": 13.054545454545455,
                "pitch": 46,
                "velocity": 127,
                "duration": 0.20454545454545503,
                "tempo": 120.0
            },
            {
                "start_time": 13.054545454545455,
                "end_time": 13.259090909090908,
                "pitch": 48,
                "velocity": 127,
                "duration": 0.20454545454545325,
                "tempo": 120.0
            },
            {
                "start_time": 13.259090909090908,
                "end_time": 13.461363636363636,
                "pitch": 48,
                "velocity": 127,
                "duration": 0.20227272727272805,
                "tempo": 120.0
            },
            {
                "start_time": 13.461363636363636,
                "end_time": 13.863636363636363,
                "pitch": 48,
                "velocity": 127,
                "duration": 0.40227272727272734,
                "tempo": 120.0
            },
            {
                "start_time": 13.863636363636363,
                "end_time": 14.063636363636363,
                "pitch": 48,
                "velocity": 127,
                "duration": 0.1999999999999993,
                "tempo": 120.0
            },
            {
                "start_time": 14.063636363636363,
                "end_time": 14.263636363636364,
                "pitch": 48,
                "velocity": 127,
                "duration": 0.20000000000000107,
                "tempo": 120.0
            },
            {
                "start_time": 14.263636363636364,
                "end_time": 14.46590909090909,
                "pitch": 48,
                "velocity": 127,
                "duration": 0.20227272727272627,
                "tempo": 120.0
            },
            {
                "start_time": 14.46590909090909,
                "end_time": 14.665909090909091,
                "pitch": 48,
                "velocity": 127,
                "duration": 0.20000000000000107,
                "tempo": 120.0
            },
            {
                "start_time": 14.665909090909091,
                "end_time": 14.868181818181817,
                "pitch": 48,
                "velocity": 127,
                "duration": 0.20227272727272627,
                "tempo": 120.0
            },
            {
                "start_time": 14.868181818181817,
                "end_time": 15.068181818181817,
                "pitch": 48,
                "velocity": 127,
                "duration": 0.1999999999999993,
                "tempo": 120.0
            },
            {
                "start_time": 15.068181818181817,
                "end_time": 15.472727272727273,
                "pitch": 48,
                "velocity": 127,
                "duration": 0.4045454545454561,
                "tempo": 120.0
            },
            {
                "start_time": 15.472727272727273,
                "end_time": 15.672727272727272,
                "pitch": 48,
                "velocity": 127,
                "duration": 0.1999999999999993,
                "tempo": 120.0
            },
            {
                "start_time": 15.672727272727272,
                "end_time": 15.872727272727271,
                "pitch": 48,
                "velocity": 127,
                "duration": 0.1999999999999993,
                "tempo": 120.0
            },
            {
                "start_time": 15.872727272727271,
                "end_time": 16.07272727272727,
                "pitch": 48,
                "velocity": 127,
                "duration": 0.1999999999999993,
                "tempo": 120.0
            },
            {
                "start_time": 16.07272727272727,
                "end_time": 16.275,
                "pitch": 44,
                "velocity": 127,
                "duration": 0.20227272727272805,
                "tempo": 120.0
            },
            {
                "start_time": 16.275,
                "end_time": 16.474999999999998,
                "pitch": 44,
                "velocity": 127,
                "duration": 0.1999999999999993,
                "tempo": 120.0
            },
            {
                "start_time": 16.474999999999998,
                "end_time": 16.677272727272726,
                "pitch": 44,
                "velocity": 127,
                "duration": 0.20227272727272805,
                "tempo": 120.0
            },
            {
                "start_time": 16.677272727272726,
                "end_time": 17.079545454545453,
                "pitch": 44,
                "velocity": 127,
                "duration": 0.40227272727272734,
                "tempo": 120.0
            },
            {
                "start_time": 17.079545454545453,
                "end_time": 17.279545454545453,
                "pitch": 44,
                "velocity": 127,
                "duration": 0.1999999999999993,
                "tempo": 120.0
            },
            {
                "start_time": 17.279545454545453,
                "end_time": 17.479545454545455,
                "pitch": 44,
                "velocity": 127,
                "duration": 0.20000000000000284,
                "tempo": 120.0
            },
            {
                "start_time": 17.479545454545455,
                "end_time": 17.679545454545455,
                "pitch": 44,
                "velocity": 127,
                "duration": 0.1999999999999993,
                "tempo": 120.0
            },
            {
                "start_time": 17.679545454545455,
                "end_time": 17.879545454545454,
                "pitch": 44,
                "velocity": 127,
                "duration": 0.1999999999999993,
                "tempo": 120.0
            },
            {
                "start_time": 17.879545454545454,
                "end_time": 18.081818181818182,
                "pitch": 44,
                "velocity": 127,
                "duration": 0.20227272727272805,
                "tempo": 120.0
            },
            {
                "start_time": 18.081818181818182,
                "end_time": 18.28181818181818,
                "pitch": 44,
                "velocity": 127,
                "duration": 0.1999999999999993,
                "tempo": 120.0
            },
            {
                "start_time": 18.28181818181818,
                "end_time": 18.677272727272726,
                "pitch": 44,
                "velocity": 127,
                "duration": 0.3954545454545446,
                "tempo": 120.0
            },
            {
                "start_time": 18.677272727272726,
                "end_time": 18.87272727272727,
                "pitch": 44,
                "velocity": 127,
                "duration": 0.19545454545454533,
                "tempo": 120.0
            },
            {
                "start_time": 18.87272727272727,
                "end_time": 19.079545454545453,
                "pitch": 44,
                "velocity": 127,
                "duration": 0.206818181818182,
                "tempo": 120.0
            },
            {
                "start_time": 19.079545454545453,
                "end_time": 19.284090909090907,
                "pitch": 44,
                "velocity": 127,
                "duration": 0.20454545454545325,
                "tempo": 120.0
            },
            {
                "start_time": 19.284090909090907,
                "end_time": 19.48409090909091,
                "pitch": 44,
                "velocity": 127,
                "duration": 0.20000000000000284,
                "tempo": 120.0
            },
            {
                "start_time": 19.48409090909091,
                "end_time": 19.68409090909091,
                "pitch": 43,
                "velocity": 127,
                "duration": 0.1999999999999993,
                "tempo": 120.0
            },
            {
                "start_time": 19.68409090909091,
                "end_time": 19.886363636363637,
                "pitch": 43,
                "velocity": 127,
                "duration": 0.20227272727272805,
                "tempo": 120.0
            },
            {
                "start_time": 19.886363636363637,
                "end_time": 20.286363636363635,
                "pitch": 43,
                "velocity": 127,
                "duration": 0.3999999999999986,
                "tempo": 120.0
            },
            {
                "start_time": 20.286363636363635,
                "end_time": 20.486363636363635,
                "pitch": 43,
                "velocity": 127,
                "duration": 0.1999999999999993,
                "tempo": 120.0
            },
            {
                "start_time": 20.486363636363635,
                "end_time": 20.688636363636363,
                "pitch": 43,
                "velocity": 127,
                "duration": 0.20227272727272805,
                "tempo": 120.0
            },
            {
                "start_time": 20.688636363636363,
                "end_time": 20.888636363636362,
                "pitch": 43,
                "velocity": 127,
                "duration": 0.1999999999999993,
                "tempo": 120.0
            },
            {
                "start_time": 20.888636363636362,
                "end_time": 21.08863636363636,
                "pitch": 43,
                "velocity": 127,
                "duration": 0.1999999999999993,
                "tempo": 120.0
            },
            {
                "start_time": 21.08863636363636,
                "end_time": 21.288636363636364,
                "pitch": 43,
                "velocity": 127,
                "duration": 0.20000000000000284,
                "tempo": 120.0
            },
            {
                "start_time": 21.288636363636364,
                "end_time": 21.488636363636363,
                "pitch": 43,
                "velocity": 127,
                "duration": 0.1999999999999993,
                "tempo": 120.0
            },
            {
                "start_time": 21.488636363636363,
                "end_time": 21.89090909090909,
                "pitch": 43,
                "velocity": 127,
                "duration": 0.40227272727272734,
                "tempo": 120.0
            },
            {
                "start_time": 21.89090909090909,
                "end_time": 22.09318181818182,
                "pitch": 43,
                "velocity": 127,
                "duration": 0.20227272727272805,
                "tempo": 120.0
            },
            {
                "start_time": 22.09318181818182,
                "end_time": 22.293181818181818,
                "pitch": 43,
                "velocity": 127,
                "duration": 0.1999999999999993,
                "tempo": 120.0
            },
            {
                "start_time": 22.293181818181818,
                "end_time": 22.493181818181817,
                "pitch": 43,
                "velocity": 127,
                "duration": 0.1999999999999993,
                "tempo": 120.0
            },
            {
                "start_time": 22.493181818181817,
                "end_time": 22.693181818181817,
                "pitch": 48,
                "velocity": 127,
                "duration": 0.1999999999999993,
                "tempo": 120.0
            },
            {
                "start_time": 22.693181818181817,
                "end_time": 22.895454545454545,
                "pitch": 48,
                "velocity": 127,
                "duration": 0.20227272727272805,
                "tempo": 120.0
            },
            {
                "start_time": 22.895454545454545,
                "end_time": 23.095454545454544,
                "pitch": 48,
                "velocity": 127,
                "duration": 0.1999999999999993,
                "tempo": 120.0
            },
            {
                "start_time": 23.095454545454544,
                "end_time": 23.495454545454546,
                "pitch": 48,
                "velocity": 127,
                "duration": 0.40000000000000213,
                "tempo": 120.0
            },
            {
                "start_time": 23.495454545454546,
                "end_time": 23.695454545454545,
                "pitch": 48,
                "velocity": 127,
                "duration": 0.1999999999999993,
                "tempo": 120.0
            },
            {
                "start_time": 23.695454545454545,
                "end_time": 23.895454545454545,
                "pitch": 48,
                "velocity": 127,
                "duration": 0.1999999999999993,
                "tempo": 120.0
            },
            {
                "start_time": 23.895454545454545,
                "end_time": 24.097727272727273,
                "pitch": 48,
                "velocity": 127,
                "duration": 0.20227272727272805,
                "tempo": 120.0
            },
            {
                "start_time": 24.097727272727273,
                "end_time": 24.297727272727272,
                "pitch": 48,
                "velocity": 127,
                "duration": 0.1999999999999993,
                "tempo": 120.0
            },
            {
                "start_time": 24.297727272727272,
                "end_time": 24.49772727272727,
                "pitch": 48,
                "velocity": 127,
                "duration": 0.1999999999999993,
                "tempo": 120.0
            },
            {
                "start_time": 24.49772727272727,
                "end_time": 24.7,
                "pitch": 48,
                "velocity": 127,
                "duration": 0.20227272727272805,
                "tempo": 120.0
            },
            {
                "start_time": 24.7,
                "end_time": 24.9,
                "pitch": 48,
                "velocity": 127,
                "duration": 0.1999999999999993,
                "tempo": 120.0
            },
            {
                "start_time": 24.9,
                "end_time": 25.099999999999998,
                "pitch": 48,
                "velocity": 127,
                "duration": 0.1999999999999993,
                "tempo": 120.0
            },
            {
                "start_time": 25.099999999999998,
                "end_time": 25.299999999999997,
                "pitch": 48,
                "velocity": 127,
                "duration": 0.1999999999999993,
                "tempo": 120.0
            },
            {
                "start_time": 25.299999999999997,
                "end_time": 25.5,
                "pitch": 48,
                "velocity": 127,
                "duration": 0.20000000000000284,
                "tempo": 120.0
            },
            {
                "start_time": 25.5,
                "end_time": 25.7,
                "pitch": 48,
                "velocity": 127,
                "duration": 0.1999999999999993,
                "tempo": 120.0
            },
            {
                "start_time": 25.7,
                "end_time": 25.902272727272727,
                "pitch": 44,
                "velocity": 80,
                "duration": 0.20227272727272805,
                "tempo": 120.0
            },
            {
                "start_time": 25.902272727272727,
                "end_time": 26.102272727272727,
                "pitch": 44,
                "velocity": 80,
                "duration": 0.1999999999999993,
                "tempo": 120.0
            },
            {
                "start_time": 26.102272727272727,
                "end_time": 26.302272727272726,
                "pitch": 44,
                "velocity": 80,
                "duration": 0.1999999999999993,
                "tempo": 120.0
            },
            {
                "start_time": 26.302272727272726,
                "end_time": 26.704545454545453,
                "pitch": 44,
                "velocity": 80,
                "duration": 0.40227272727272734,
                "tempo": 120.0
            },
            {
                "start_time": 26.704545454545453,
                "end_time": 26.90681818181818,
                "pitch": 44,
                "velocity": 80,
                "duration": 0.20227272727272805,
                "tempo": 120.0
            },
            {
                "start_time": 26.90681818181818,
                "end_time": 27.10681818181818,
                "pitch": 44,
                "velocity": 80,
                "duration": 0.1999999999999993,
                "tempo": 120.0
            },
            {
                "start_time": 27.10681818181818,
                "end_time": 27.30681818181818,
                "pitch": 44,
                "velocity": 80,
                "duration": 0.1999999999999993,
                "tempo": 120.0
            },
            {
                "start_time": 27.30681818181818,
                "end_time": 27.50681818181818,
                "pitch": 46,
                "velocity": 80,
                "duration": 0.1999999999999993,
                "tempo": 120.0
            },
            {
                "start_time": 27.50681818181818,
                "end_time": 27.706818181818182,
                "pitch": 46,
                "velocity": 80,
                "duration": 0.20000000000000284,
                "tempo": 120.0
            },
            {
                "start_time": 27.706818181818182,
                "end_time": 27.90681818181818,
                "pitch": 46,
                "velocity": 80,
                "duration": 0.1999999999999993,
                "tempo": 120.0
            },
            {
                "start_time": 27.90681818181818,
                "end_time": 28.30909090909091,
                "pitch": 46,
                "velocity": 80,
                "duration": 0.40227272727272734,
                "tempo": 120.0
            },
            {
                "start_time": 28.30909090909091,
                "end_time": 28.509090909090908,
                "pitch": 46,
                "velocity": 80,
                "duration": 0.1999999999999993,
                "tempo": 120.0
            },
            {
                "start_time": 28.509090909090908,
                "end_time": 28.709090909090907,
                "pitch": 46,
                "velocity": 80,
                "duration": 0.1999999999999993,
                "tempo": 120.0
            },
            {
                "start_time": 28.709090909090907,
                "end_time": 28.911363636363635,
                "pitch": 46,
                "velocity": 80,
                "duration": 0.20227272727272805,
                "tempo": 120.0
            },
            {
                "start_time": 28.911363636363635,
                "end_time": 29.111363636363635,
                "pitch": 43,
                "velocity": 80,
                "duration": 0.1999999999999993,
                "tempo": 120.0
            },
            {
                "start_time": 29.111363636363635,
                "end_time": 29.311363636363634,
                "pitch": 43,
                "velocity": 80,
                "duration": 0.1999999999999993,
                "tempo": 120.0
            },
            {
                "start_time": 29.311363636363634,
                "end_time": 29.511363636363637,
                "pitch": 43,
                "velocity": 80,
                "duration": 0.20000000000000284,
                "tempo": 120.0
            },
            {
                "start_time": 29.511363636363637,
                "end_time": 29.911363636363635,
                "pitch": 43,
                "velocity": 80,
                "duration": 0.3999999999999986,
                "tempo": 120.0
            },
            {
                "start_time": 29.911363636363635,
                "end_time": 30.113636363636363,
                "pitch": 43,
                "velocity": 80,
                "duration": 0.20227272727272805,
                "tempo": 120.0
            },
            {
                "start_time": 30.113636363636363,
                "end_time": 30.313636363636363,
                "pitch": 43,
                "velocity": 80,
                "duration": 0.1999999999999993,
                "tempo": 120.0
            },
            {
                "start_time": 30.313636363636363,
                "end_time": 30.513636363636362,
                "pitch": 43,
                "velocity": 80,
                "duration": 0.1999999999999993,
                "tempo": 120.0
            },
            {
                "start_time": 30.513636363636362,
                "end_time": 30.71590909090909,
                "pitch": 48,
                "velocity": 80,
                "duration": 0.20227272727272805,
                "tempo": 120.0
            },
            {
                "start_time": 30.71590909090909,
                "end_time": 30.91590909090909,
                "pitch": 48,
                "velocity": 80,
                "duration": 0.1999999999999993,
                "tempo": 120.0
            },
            {
                "start_time": 30.91590909090909,
                "end_time": 31.11590909090909,
                "pitch": 48,
                "velocity": 80,
                "duration": 0.1999999999999993,
                "tempo": 120.0
            },
            {
                "start_time": 31.11590909090909,
                "end_time": 31.51590909090909,
                "pitch": 48,
                "velocity": 80,
                "duration": 0.40000000000000213,
                "tempo": 120.0
            },
            {
                "start_time": 31.51590909090909,
                "end_time": 31.71590909090909,
                "pitch": 48,
                "velocity": 80,
                "duration": 0.1999999999999993,
                "tempo": 120.0
            },
            {
                "start_time": 31.71590909090909,
                "end_time": 31.918181818181818,
                "pitch": 48,
                "velocity": 80,
                "duration": 0.20227272727272805,
                "tempo": 120.0
            },
            {
                "start_time": 31.918181818181818,
                "end_time": 32.11818181818182,
                "pitch": 48,
                "velocity": 80,
                "duration": 0.1999999999999993,
                "tempo": 120.0
            },
            {
                "start_time": 32.11818181818182,
                "end_time": 32.320454545454545,
                "pitch": 44,
                "velocity": 80,
                "duration": 0.20227272727272805,
                "tempo": 120.0
            },
            {
                "start_time": 32.320454545454545,
                "end_time": 32.52272727272727,
                "pitch": 44,
                "velocity": 80,
                "duration": 0.20227272727272805,
                "tempo": 120.0
            },
            {
                "start_time": 32.52272727272727,
                "end_time": 32.72272727272727,
                "pitch": 44,
                "velocity": 80,
                "duration": 0.19999999999999574,
                "tempo": 120.0
            },
            {
                "start_time": 32.72272727272727,
                "end_time": 33.12272727272727,
                "pitch": 44,
                "velocity": 80,
                "duration": 0.3999999999999986,
                "tempo": 120.0
            },
            {
                "start_time": 33.12272727272727,
                "end_time": 33.32272727272727,
                "pitch": 44,
                "velocity": 80,
                "duration": 0.20000000000000284,
                "tempo": 120.0
            },
            {
                "start_time": 33.32272727272727,
                "end_time": 33.52272727272727,
                "pitch": 44,
                "velocity": 80,
                "duration": 0.20000000000000284,
                "tempo": 120.0
            },
            {
                "start_time": 33.52272727272727,
                "end_time": 33.72272727272727,
                "pitch": 44,
                "velocity": 80,
                "duration": 0.19999999999999574,
                "tempo": 120.0
            },
            {
                "start_time": 33.72272727272727,
                "end_time": 33.92272727272727,
                "pitch": 46,
                "velocity": 80,
                "duration": 0.20000000000000284,
                "tempo": 120.0
            },
            {
                "start_time": 33.92272727272727,
                "end_time": 34.12272727272727,
                "pitch": 46,
                "velocity": 80,
                "duration": 0.19999999999999574,
                "tempo": 120.0
            },
            {
                "start_time": 34.12272727272727,
                "end_time": 34.32272727272727,
                "pitch": 46,
                "velocity": 80,
                "duration": 0.20000000000000284,
                "tempo": 120.0
            },
            {
                "start_time": 34.32272727272727,
                "end_time": 34.725,
                "pitch": 46,
                "velocity": 80,
                "duration": 0.4022727272727309,
                "tempo": 120.0
            },
            {
                "start_time": 34.725,
                "end_time": 34.925,
                "pitch": 46,
                "velocity": 80,
                "duration": 0.19999999999999574,
                "tempo": 120.0
            },
            {
                "start_time": 34.925,
                "end_time": 35.125,
                "pitch": 46,
                "velocity": 80,
                "duration": 0.20000000000000284,
                "tempo": 120.0
            },
            {
                "start_time": 35.125,
                "end_time": 35.324999999999996,
                "pitch": 46,
                "velocity": 80,
                "duration": 0.19999999999999574,
                "tempo": 120.0
            },
            {
                "start_time": 35.324999999999996,
                "end_time": 35.525,
                "pitch": 43,
                "velocity": 127,
                "duration": 0.20000000000000284,
                "tempo": 120.0
            },
            {
                "start_time": 35.525,
                "end_time": 35.725,
                "pitch": 43,
                "velocity": 127,
                "duration": 0.20000000000000284,
                "tempo": 120.0
            },
            {
                "start_time": 35.725,
                "end_time": 35.925,
                "pitch": 43,
                "velocity": 127,
                "duration": 0.19999999999999574,
                "tempo": 120.0
            },
            {
                "start_time": 35.925,
                "end_time": 36.324999999999996,
                "pitch": 43,
                "velocity": 127,
                "duration": 0.3999999999999986,
                "tempo": 120.0
            },
            {
                "start_time": 36.324999999999996,
                "end_time": 36.527272727272724,
                "pitch": 43,
                "velocity": 127,
                "duration": 0.20227272727272805,
                "tempo": 120.0
            },
            {
                "start_time": 36.527272727272724,
                "end_time": 36.72727272727273,
                "pitch": 43,
                "velocity": 127,
                "duration": 0.20000000000000284,
                "tempo": 120.0
            },
            {
                "start_time": 36.72727272727273,
                "end_time": 36.92727272727272,
                "pitch": 43,
                "velocity": 127,
                "duration": 0.19999999999999574,
                "tempo": 120.0
            },
            {
                "start_time": 36.92727272727272,
                "end_time": 37.127272727272725,
                "pitch": 43,
                "velocity": 127,
                "duration": 0.20000000000000284,
                "tempo": 120.0
            },
            {
                "start_time": 37.127272727272725,
                "end_time": 37.32727272727273,
                "pitch": 43,
                "velocity": 127,
                "duration": 0.20000000000000284,
                "tempo": 120.0
            },
            {
                "start_time": 37.32727272727273,
                "end_time": 37.527272727272724,
                "pitch": 43,
                "velocity": 127,
                "duration": 0.19999999999999574,
                "tempo": 120.0
            },
            {
                "start_time": 37.527272727272724,
                "end_time": 37.92727272727272,
                "pitch": 43,
                "velocity": 127,
                "duration": 0.3999999999999986,
                "tempo": 120.0
            },
            {
                "start_time": 37.92727272727272,
                "end_time": 38.127272727272725,
                "pitch": 43,
                "velocity": 127,
                "duration": 0.20000000000000284,
                "tempo": 120.0
            },
            {
                "start_time": 38.127272727272725,
                "end_time": 38.32954545454545,
                "pitch": 43,
                "velocity": 127,
                "duration": 0.20227272727272805,
                "tempo": 120.0
            },
            {
                "start_time": 38.32954545454545,
                "end_time": 38.529545454545456,
                "pitch": 43,
                "velocity": 127,
                "duration": 0.20000000000000284,
                "tempo": 120.0
            },
            {
                "start_time": 38.529545454545456,
                "end_time": 38.72954545454545,
                "pitch": 43,
                "velocity": 127,
                "duration": 0.19999999999999574,
                "tempo": 120.0
            },
            {
                "start_time": 38.72954545454545,
                "end_time": 38.929545454545455,
                "pitch": 44,
                "velocity": 127,
                "duration": 0.20000000000000284,
                "tempo": 120.0
            },
            {
                "start_time": 38.929545454545455,
                "end_time": 39.12954545454545,
                "pitch": 44,
                "velocity": 127,
                "duration": 0.19999999999999574,
                "tempo": 120.0
            },
            {
                "start_time": 39.12954545454545,
                "end_time": 39.529545454545456,
                "pitch": 44,
                "velocity": 127,
                "duration": 0.4000000000000057,
                "tempo": 120.0
            },
            {
                "start_time": 39.529545454545456,
                "end_time": 39.72954545454545,
                "pitch": 44,
                "velocity": 127,
                "duration": 0.19999999999999574,
                "tempo": 120.0
            },
            {
                "start_time": 39.72954545454545,
                "end_time": 39.929545454545455,
                "pitch": 44,
                "velocity": 127,
                "duration": 0.20000000000000284,
                "tempo": 120.0
            },
            {
                "start_time": 39.929545454545455,
                "end_time": 40.12954545454545,
                "pitch": 44,
                "velocity": 127,
                "duration": 0.19999999999999574,
                "tempo": 120.0
            },
            {
                "start_time": 40.12954545454545,
                "end_time": 40.33181818181818,
                "pitch": 46,
                "velocity": 127,
                "duration": 0.20227272727272805,
                "tempo": 120.0
            },
            {
                "start_time": 40.33181818181818,
                "end_time": 40.53181818181818,
                "pitch": 46,
                "velocity": 127,
                "duration": 0.20000000000000284,
                "tempo": 120.0
            },
            {
                "start_time": 40.53181818181818,
                "end_time": 40.73181818181818,
                "pitch": 46,
                "velocity": 127,
                "duration": 0.19999999999999574,
                "tempo": 120.0
            },
            {
                "start_time": 40.73181818181818,
                "end_time": 41.13181818181818,
                "pitch": 46,
                "velocity": 127,
                "duration": 0.4000000000000057,
                "tempo": 120.0
            },
            {
                "start_time": 41.13181818181818,
                "end_time": 41.33181818181818,
                "pitch": 46,
                "velocity": 127,
                "duration": 0.19999999999999574,
                "tempo": 120.0
            },
            {
                "start_time": 41.33181818181818,
                "end_time": 41.53181818181818,
                "pitch": 46,
                "velocity": 127,
                "duration": 0.20000000000000284,
                "tempo": 120.0
            },
            {
                "start_time": 41.53181818181818,
                "end_time": 41.73181818181818,
                "pitch": 46,
                "velocity": 127,
                "duration": 0.19999999999999574,
                "tempo": 120.0
            },
            {
                "start_time": 41.73181818181818,
                "end_time": 41.93181818181818,
                "pitch": 43,
                "velocity": 127,
                "duration": 0.20000000000000284,
                "tempo": 120.0
            },
            {
                "start_time": 41.93181818181818,
                "end_time": 42.13181818181818,
                "pitch": 43,
                "velocity": 127,
                "duration": 0.20000000000000284,
                "tempo": 120.0
            },
            {
                "start_time": 42.13181818181818,
                "end_time": 42.334090909090904,
                "pitch": 43,
                "velocity": 127,
                "duration": 0.20227272727272094,
                "tempo": 120.0
            },
            {
                "start_time": 42.334090909090904,
                "end_time": 42.736363636363635,
                "pitch": 43,
                "velocity": 127,
                "duration": 0.4022727272727309,
                "tempo": 120.0
            },
            {
                "start_time": 42.736363636363635,
                "end_time": 42.93636363636364,
                "pitch": 43,
                "velocity": 127,
                "duration": 0.20000000000000284,
                "tempo": 120.0
            },
            {
                "start_time": 42.93636363636364,
                "end_time": 43.13636363636363,
                "pitch": 43,
                "velocity": 127,
                "duration": 0.19999999999999574,
                "tempo": 120.0
            },
            {
                "start_time": 43.13636363636363,
                "end_time": 43.336363636363636,
                "pitch": 43,
                "velocity": 127,
                "duration": 0.20000000000000284,
                "tempo": 120.0
            },
            {
                "start_time": 43.336363636363636,
                "end_time": 43.53636363636363,
                "pitch": 48,
                "velocity": 127,
                "duration": 0.19999999999999574,
                "tempo": 120.0
            },
            {
                "start_time": 43.53636363636363,
                "end_time": 43.736363636363635,
                "pitch": 48,
                "velocity": 127,
                "duration": 0.20000000000000284,
                "tempo": 120.0
            },
            {
                "start_time": 43.736363636363635,
                "end_time": 43.93636363636364,
                "pitch": 48,
                "velocity": 127,
                "duration": 0.20000000000000284,
                "tempo": 120.0
            },
            {
                "start_time": 43.93636363636364,
                "end_time": 44.336363636363636,
                "pitch": 48,
                "velocity": 127,
                "duration": 0.3999999999999986,
                "tempo": 120.0
            },
            {
                "start_time": 44.336363636363636,
                "end_time": 44.538636363636364,
                "pitch": 48,
                "velocity": 127,
                "duration": 0.20227272727272805,
                "tempo": 120.0
            },
            {
                "start_time": 44.538636363636364,
                "end_time": 44.73863636363636,
                "pitch": 48,
                "velocity": 127,
                "duration": 0.19999999999999574,
                "tempo": 120.0
            },
            {
                "start_time": 44.73863636363636,
                "end_time": 44.93863636363636,
                "pitch": 48,
                "velocity": 127,
                "duration": 0.20000000000000284,
                "tempo": 120.0
            },
            {
                "start_time": 44.93863636363636,
                "end_time": 45.13863636363636,
                "pitch": 44,
                "velocity": 127,
                "duration": 0.19999999999999574,
                "tempo": 120.0
            },
            {
                "start_time": 45.13863636363636,
                "end_time": 45.33863636363636,
                "pitch": 44,
                "velocity": 127,
                "duration": 0.20000000000000284,
                "tempo": 120.0
            },
            {
                "start_time": 45.33863636363636,
                "end_time": 45.538636363636364,
                "pitch": 44,
                "velocity": 127,
                "duration": 0.20000000000000284,
                "tempo": 120.0
            },
            {
                "start_time": 45.538636363636364,
                "end_time": 45.93863636363636,
                "pitch": 44,
                "velocity": 127,
                "duration": 0.3999999999999986,
                "tempo": 120.0
            },
            {
                "start_time": 45.93863636363636,
                "end_time": 46.13863636363636,
                "pitch": 44,
                "velocity": 127,
                "duration": 0.19999999999999574,
                "tempo": 120.0
            },
            {
                "start_time": 46.13863636363636,
                "end_time": 46.33863636363636,
                "pitch": 44,
                "velocity": 127,
                "duration": 0.20000000000000284,
                "tempo": 120.0
            },
            {
                "start_time": 46.33863636363636,
                "end_time": 46.54090909090909,
                "pitch": 44,
                "velocity": 127,
                "duration": 0.20227272727272805,
                "tempo": 120.0
            },
            {
                "start_time": 46.54090909090909,
                "end_time": 46.74090909090909,
                "pitch": 46,
                "velocity": 127,
                "duration": 0.20000000000000284,
                "tempo": 120.0
            },
            {
                "start_time": 46.74090909090909,
                "end_time": 46.94090909090909,
                "pitch": 46,
                "velocity": 127,
                "duration": 0.19999999999999574,
                "tempo": 120.0
            },
            {
                "start_time": 46.94090909090909,
                "end_time": 47.14090909090909,
                "pitch": 46,
                "velocity": 127,
                "duration": 0.20000000000000284,
                "tempo": 120.0
            },
            {
                "start_time": 47.14090909090909,
                "end_time": 47.54090909090909,
                "pitch": 46,
                "velocity": 127,
                "duration": 0.3999999999999986,
                "tempo": 120.0
            },
            {
                "start_time": 47.54090909090909,
                "end_time": 47.74090909090909,
                "pitch": 46,
                "velocity": 127,
                "duration": 0.20000000000000284,
                "tempo": 120.0
            },
            {
                "start_time": 47.74090909090909,
                "end_time": 47.94090909090909,
                "pitch": 46,
                "velocity": 127,
                "duration": 0.19999999999999574,
                "tempo": 120.0
            },
            {
                "start_time": 47.94090909090909,
                "end_time": 48.14090909090909,
                "pitch": 46,
                "velocity": 127,
                "duration": 0.20000000000000284,
                "tempo": 120.0
            },
            {
                "start_time": 48.14090909090909,
                "end_time": 48.340909090909086,
                "pitch": 50,
                "velocity": 127,
                "duration": 0.19999999999999574,
                "tempo": 120.0
            },
            {
                "start_time": 48.340909090909086,
                "end_time": 48.543181818181814,
                "pitch": 50,
                "velocity": 127,
                "duration": 0.20227272727272805,
                "tempo": 120.0
            },
            {
                "start_time": 48.543181818181814,
                "end_time": 48.74318181818182,
                "pitch": 50,
                "velocity": 127,
                "duration": 0.20000000000000284,
                "tempo": 120.0
            },
            {
                "start_time": 48.74318181818182,
                "end_time": 48.94318181818181,
                "pitch": 50,
                "velocity": 127,
                "duration": 0.19999999999999574,
                "tempo": 120.0
            },
            {
                "start_time": 48.94318181818181,
                "end_time": 49.143181818181816,
                "pitch": 50,
                "velocity": 127,
                "duration": 0.20000000000000284,
                "tempo": 120.0
            },
            {
                "start_time": 49.143181818181816,
                "end_time": 49.34318181818182,
                "pitch": 50,
                "velocity": 127,
                "duration": 0.20000000000000284,
                "tempo": 120.0
            },
            {
                "start_time": 49.34318181818182,
                "end_time": 49.543181818181814,
                "pitch": 50,
                "velocity": 127,
                "duration": 0.19999999999999574,
                "tempo": 120.0
            },
            {
                "start_time": 49.543181818181814,
                "end_time": 49.74318181818182,
                "pitch": 50,
                "velocity": 127,
                "duration": 0.20000000000000284,
                "tempo": 120.0
            },
            {
                "start_time": 49.74318181818182,
                "end_time": 49.94318181818181,
                "pitch": 50,
                "velocity": 127,
                "duration": 0.19999999999999574,
                "tempo": 120.0
            },
            {
                "start_time": 49.94318181818181,
                "end_time": 50.143181818181816,
                "pitch": 50,
                "velocity": 127,
                "duration": 0.20000000000000284,
                "tempo": 120.0
            },
            {
                "start_time": 50.143181818181816,
                "end_time": 50.345454545454544,
                "pitch": 50,
                "velocity": 127,
                "duration": 0.20227272727272805,
                "tempo": 120.0
            },
            {
                "start_time": 50.345454545454544,
                "end_time": 50.74545454545454,
                "pitch": 50,
                "velocity": 127,
                "duration": 0.3999999999999986,
                "tempo": 120.0
            },
            {
                "start_time": 50.74545454545454,
                "end_time": 50.945454545454545,
                "pitch": 50,
                "velocity": 127,
                "duration": 0.20000000000000284,
                "tempo": 120.0
            },
            {
                "start_time": 50.945454545454545,
                "end_time": 51.14545454545454,
                "pitch": 50,
                "velocity": 127,
                "duration": 0.19999999999999574,
                "tempo": 120.0
            },
            {
                "start_time": 51.14545454545454,
                "end_time": 51.345454545454544,
                "pitch": 50,
                "velocity": 127,
                "duration": 0.20000000000000284,
                "tempo": 120.0
            }
        ]
    }
}