{
    "track_id": "Power Strike, Aleste (FM) - 01 - Aleste",
    "mood": "angry",
    "instruments": {
        "Trumpet": [
            {
                "start_time": 0.015909090909090907,
                "end_time": 1.6204545454545454,
                "pitch": 55,
                "velocity": 101,
                "duration": 1.6045454545454545,
                "tempo": 120.0
            },
            {
                "start_time": 1.6204545454545454,
                "end_time": 3.2227272727272727,
                "pitch": 53,
                "velocity": 101,
                "duration": 1.6022727272727273,
                "tempo": 120.0
            },
            {
                "start_time": 3.2227272727272727,
                "end_time": 4.827272727272727,
                "pitch": 53,
                "velocity": 101,
                "duration": 1.6045454545454545,
                "tempo": 120.0
            },
            {
                "start_time": 4.827272727272727,
                "end_time": 6.425,
                "pitch": 52,
                "velocity": 101,
                "duration": 1.5977272727272727,
                "tempo": 120.0
            },
            {
                "start_time": 6.425,
                "end_time": 8.040909090909091,
                "pitch": 60,
                "velocity": 101,
                "duration": 1.6159090909090912,
                "tempo": 120.0
            },
            {
                "start_time": 8.040909090909091,
                "end_time": 9.638636363636364,
                "pitch": 58,
                "velocity": 101,
                "duration": 1.5977272727272727,
                "tempo": 120.0
            },
            {
                "start_time": 9.638636363636364,
                "end_time": 11.256818181818181,
                "pitch": 58,
                "velocity": 101,
                "duration": 1.6181818181818173,
                "tempo": 120.0
            },
            {
                "start_time": 11.256818181818181,
                "end_time": 12.463636363636363,
                "pitch": 57,
                "velocity": 101,
                "duration": 1.206818181818182,
                "tempo": 120.0
            },
            {
                "start_time": 12.463636363636363,
                "end_time": 12.527272727272727,
                "pitch": 58,
                "velocity": 101,
                "duration": 0.06363636363636438,
                "tempo": 120.0
            },
            {
                "start_time": 12.527272727272727,
                "end_time": 12.593181818181817,
                "pitch": 59,
                "velocity": 101,
                "duration": 0.06590909090908958,
                "tempo": 120.0
            },
            {
                "start_time": 12.593181818181817,
                "end_time": 12.659090909090908,
                "pitch": 60,
                "velocity": 101,
                "duration": 0.06590909090909136,
                "tempo": 120.0
            },
            {
                "start_time": 12.659090909090908,
                "end_time": 12.725,
                "pitch": 61,
                "velocity": 101,
                "duration": 0.06590909090909136,
                "tempo": 120.0
            },
            {
                "start_time": 12.725,
                "end_time": 12.788636363636362,
                "pitch": 62,
                "velocity": 101,
                "duration": 0.0636363636363626,
                "tempo": 120.0
            },
            {
                "start_time": 12.788636363636362,
                "end_time": 12.854545454545454,
                "pitch": 63,
                "velocity": 101,
                "duration": 0.06590909090909136,
                "tempo": 120.0
            },
            {
                "start_time": 12.854545454545454,
                "end_time": 14.472727272727273,
                "pitch": 64,
                "velocity": 101,
                "duration": 1.618181818181819,
                "tempo": 120.0
            },
            {
                "start_time": 14.472727272727273,
                "end_time": 16.07272727272727,
                "pitch": 65,
                "velocity": 101,
                "duration": 1.5999999999999979,
                "tempo": 120.0
            },
            {
                "start_time": 16.07272727272727,
                "end_time": 17.677272727272726,
                "pitch": 60,
                "velocity": 101,
                "duration": 1.6045454545454554,
                "tempo": 120.0
            },
            {
                "start_time": 17.677272727272726,
                "end_time": 19.28181818181818,
                "pitch": 62,
                "velocity": 101,
                "duration": 1.6045454545454554,
                "tempo": 120.0
            },
            {
                "start_time": 19.28181818181818,
                "end_time": 20.297727272727272,
                "pitch": 70,
                "velocity": 101,
                "duration": 1.0159090909090907,
                "tempo": 120.0
            },
            {
                "start_time": 20.297727272727272,
                "end_time": 20.49772727272727,
                "pitch": 70,
                "velocity": 101,
                "duration": 0.1999999999999993,
                "tempo": 120.0
            },
            {
                "start_time": 20.49772727272727,
                "end_time": 20.69772727272727,
                "pitch": 70,
                "velocity": 101,
                "duration": 0.1999999999999993,
                "tempo": 120.0
            },
            {
                "start_time": 20.69772727272727,
                "end_time": 20.9,
                "pitch": 69,
                "velocity": 101,
                "duration": 0.20227272727272805,
                "tempo": 120.0
            },
            {
                "start_time": 20.9,
                "end_time": 21.7,
                "pitch": 67,
                "velocity": 101,
                "duration": 0.8000000000000007,
                "tempo": 120.0
            },
            {
                "start_time": 21.7,
                "end_time": 22.502272727272725,
                "pitch": 65,
                "velocity": 101,
                "duration": 0.8022727272727259,
                "tempo": 120.0
            },
            {
                "start_time": 22.502272727272725,
                "end_time": 23.504545454545454,
                "pitch": 60,
                "velocity": 101,
                "duration": 1.0022727272727288,
                "tempo": 120.0
            },
            {
                "start_time": 23.504545454545454,
                "end_time": 23.704545454545453,
                "pitch": 60,
                "velocity": 101,
                "duration": 0.1999999999999993,
                "tempo": 120.0
            },
            {
                "start_time": 23.704545454545453,
                "end_time": 23.90681818181818,
                "pitch": 58,
                "velocity": 101,
                "duration": 0.20227272727272805,
                "tempo": 120.0
            },
            {
                "start_time": 23.90681818181818,
                "end_time": 24.10681818181818,
                "pitch": 60,
                "velocity": 101,
                "duration": 0.1999999999999993,
                "tempo": 120.0
            },
            {
                "start_time": 24.10681818181818,
                "end_time": 25.311363636363634,
                "pitch": 62,
                "velocity": 101,
                "duration": 1.2045454545454533,
                "tempo": 120.0
            },
            {
                "start_time": 25.311363636363634,
                "end_time": 25.377272727272725,
                "pitch": 68,
                "velocity": 101,
                "duration": 0.06590909090909136,
                "tempo": 120.0
            },
            {
                "start_time": 25.377272727272725,
                "end_time": 25.443181818181817,
                "pitch": 68,
                "velocity": 101,
                "duration": 0.06590909090909136,
                "tempo": 120.0
            },
            {
                "start_time": 25.443181818181817,
                "end_time": 25.511363636363637,
                "pitch": 69,
                "velocity": 101,
                "duration": 0.06818181818182012,
                "tempo": 120.0
            },
            {
                "start_time": 25.511363636363637,
                "end_time": 25.577272727272724,
                "pitch": 70,
                "velocity": 101,
                "duration": 0.06590909090908781,
                "tempo": 120.0
            },
            {
                "start_time": 25.577272727272724,
                "end_time": 25.643181818181816,
                "pitch": 71,
                "velocity": 101,
                "duration": 0.06590909090909136,
                "tempo": 120.0
            },
            {
                "start_time": 25.643181818181816,
                "end_time": 25.711363636363636,
                "pitch": 72,
                "velocity": 101,
                "duration": 0.06818181818182012,
                "tempo": 120.0
            },
            {
                "start_time": 25.711363636363636,
                "end_time": 26.71363636363636,
                "pitch": 73,
                "velocity": 101,
                "duration": 1.0022727272727252,
                "tempo": 120.0
            },
            {
                "start_time": 26.71363636363636,
                "end_time": 26.91590909090909,
                "pitch": 74,
                "velocity": 101,
                "duration": 0.20227272727272805,
                "tempo": 120.0
            },
            {
                "start_time": 26.91590909090909,
                "end_time": 27.11590909090909,
                "pitch": 74,
                "velocity": 101,
                "duration": 0.1999999999999993,
                "tempo": 120.0
            },
            {
                "start_time": 27.11590909090909,
                "end_time": 27.315909090909088,
                "pitch": 70,
                "velocity": 101,
                "duration": 0.1999999999999993,
                "tempo": 120.0
            },
            {
                "start_time": 27.315909090909088,
                "end_time": 28.118181818181817,
                "pitch": 72,
                "velocity": 101,
                "duration": 0.8022727272727295,
                "tempo": 120.0
            },
            {
                "start_time": 28.118181818181817,
                "end_time": 28.920454545454543,
                "pitch": 69,
                "velocity": 101,
                "duration": 0.8022727272727259,
                "tempo": 120.0
            },
            {
                "start_time": 28.920454545454543,
                "end_time": 29.924999999999997,
                "pitch": 72,
                "velocity": 101,
                "duration": 1.004545454545454,
                "tempo": 120.0
            },
            {
                "start_time": 29.924999999999997,
                "end_time": 30.127272727272725,
                "pitch": 72,
                "velocity": 101,
                "duration": 0.20227272727272805,
                "tempo": 120.0
            },
            {
                "start_time": 30.127272727272725,
                "end_time": 30.327272727272724,
                "pitch": 70,
                "velocity": 101,
                "duration": 0.1999999999999993,
                "tempo": 120.0
            },
            {
                "start_time": 30.327272727272724,
                "end_time": 30.527272727272727,
                "pitch": 70,
                "velocity": 101,
                "duration": 0.20000000000000284,
                "tempo": 120.0
            },
            {
                "start_time": 30.527272727272727,
                "end_time": 31.329545454545453,
                "pitch": 69,
                "velocity": 101,
                "duration": 0.8022727272727259,
                "tempo": 120.0
            },
            {
                "start_time": 31.329545454545453,
                "end_time": 32.12272727272727,
                "pitch": 67,
                "velocity": 101,
                "duration": 0.7931818181818144,
                "tempo": 120.0
            }
        ],
        "Lead 2 (sawtooth)": [
            {
                "start_time": 0.015909090909090907,
                "end_time": 1.6204545454545454,
                "pitch": 55,
                "velocity": 101,
                "duration": 1.6045454545454545,
                "tempo": 120.0
            },
            {
                "start_time": 1.6204545454545454,
                "end_time": 3.2227272727272727,
                "pitch": 53,
                "velocity": 101,
                "duration": 1.6022727272727273,
                "tempo": 120.0
            },
            {
                "start_time": 3.2227272727272727,
                "end_time": 4.827272727272727,
                "pitch": 53,
                "velocity": 101,
                "duration": 1.6045454545454545,
                "tempo": 120.0
            },
            {
                "start_time": 4.827272727272727,
                "end_time": 6.425,
                "pitch": 52,
                "velocity": 101,
                "duration": 1.5977272727272727,
                "tempo": 120.0
            },
            {
                "start_time": 6.425,
                "end_time": 8.040909090909091,
                "pitch": 55,
                "velocity": 101,
                "duration": 1.6159090909090912,
                "tempo": 120.0
            },
            {
                "start_time": 8.040909090909091,
                "end_time": 9.638636363636364,
                "pitch": 53,
                "velocity": 101,
                "duration": 1.5977272727272727,
                "tempo": 120.0
            },
            {
                "start_time": 9.638636363636364,
                "end_time": 11.256818181818181,
                "pitch": 53,
                "velocity": 101,
                "duration": 1.6181818181818173,
                "tempo": 120.0
            },
            {
                "start_time": 11.256818181818181,
                "end_time": 12.854545454545454,
                "pitch": 52,
                "velocity": 101,
                "duration": 1.5977272727272727,
                "tempo": 120.0
            },
            {
                "start_time": 12.854545454545454,
                "end_time": 14.472727272727273,
                "pitch": 55,
                "velocity": 101,
                "duration": 1.618181818181819,
                "tempo": 120.0
            },
            {
                "start_time": 14.472727272727273,
                "end_time": 16.07272727272727,
                "pitch": 53,
                "velocity": 101,
                "duration": 1.5999999999999979,
                "tempo": 120.0
            },
            {
                "start_time": 16.07272727272727,
                "end_time": 17.677272727272726,
                "pitch": 53,
                "velocity": 101,
                "duration": 1.6045454545454554,
                "tempo": 120.0
            },
            {
                "start_time": 17.677272727272726,
                "end_time": 19.28181818181818,
                "pitch": 52,
                "velocity": 101,
                "duration": 1.6045454545454554,
                "tempo": 120.0
            },
            {
                "start_time": 19.28181818181818,
                "end_time": 19.3,
                "pitch": 65,
                "velocity": 101,
                "duration": 0.01818181818181941,
                "tempo": 120.0
            },
            {
                "start_time": 19.3,
                "end_time": 20.9,
                "pitch": 55,
                "velocity": 101,
                "duration": 1.5999999999999979,
                "tempo": 120.0
            },
            {
                "start_time": 20.9,
                "end_time": 22.502272727272725,
                "pitch": 53,
                "velocity": 101,
                "duration": 1.6022727272727266,
                "tempo": 120.0
            },
            {
                "start_time": 22.502272727272725,
                "end_time": 24.10681818181818,
                "pitch": 53,
                "velocity": 101,
                "duration": 1.6045454545454554,
                "tempo": 120.0
            },
            {
                "start_time": 24.10681818181818,
                "end_time": 25.711363636363636,
                "pitch": 52,
                "velocity": 101,
                "duration": 1.6045454545454554,
                "tempo": 120.0
            },
            {
                "start_time": 25.711363636363636,
                "end_time": 27.315909090909088,
                "pitch": 55,
                "velocity": 101,
                "duration": 1.6045454545454518,
                "tempo": 120.0
            },
            {
                "start_time": 27.315909090909088,
                "end_time": 28.920454545454543,
                "pitch": 53,
                "velocity": 101,
                "duration": 1.6045454545454554,
                "tempo": 120.0
            },
            {
                "start_time": 28.920454545454543,
                "end_time": 30.527272727272727,
                "pitch": 53,
                "velocity": 101,
                "duration": 1.6068181818181841,
                "tempo": 120.0
            },
            {
                "start_time": 30.527272727272727,
                "end_time": 32.12272727272727,
                "pitch": 52,
                "velocity": 101,
                "duration": 1.5954545454545404,
                "tempo": 120.0
            }
        ],
        "Acoustic Bass": [
            {
                "start_time": 0.03409090909090909,
                "end_time": 0.2159090909090909,
                "pitch": 43,
                "velocity": 127,
                "duration": 0.18181818181818182,
                "tempo": 120.0
            },
            {
                "start_time": 0.2159090909090909,
                "end_time": 0.4159090909090909,
                "pitch": 43,
                "velocity": 127,
                "duration": 0.19999999999999998,
                "tempo": 120.0
            },
            {
                "start_time": 0.4159090909090909,
                "end_time": 0.6136363636363636,
                "pitch": 43,
                "velocity": 127,
                "duration": 0.19772727272727275,
                "tempo": 120.0
            },
            {
                "start_time": 0.6136363636363636,
                "end_time": 0.8090909090909091,
                "pitch": 43,
                "velocity": 127,
                "duration": 0.19545454545454544,
                "tempo": 120.0
            },
            {
                "start_time": 0.8090909090909091,
                "end_time": 1.0136363636363637,
                "pitch": 43,
                "velocity": 127,
                "duration": 0.20454545454545459,
                "tempo": 120.0
            },
            {
                "start_time": 1.0136363636363637,
                "end_time": 1.2204545454545455,
                "pitch": 43,
                "velocity": 127,
                "duration": 0.2068181818181818,
                "tempo": 120.0
            },
            {
                "start_time": 1.2204545454545455,
                "end_time": 1.4204545454545454,
                "pitch": 43,
                "velocity": 127,
                "duration": 0.19999999999999996,
                "tempo": 120.0
            },
            {
                "start_time": 1.4204545454545454,
                "end_time": 1.6204545454545454,
                "pitch": 43,
                "velocity": 127,
                "duration": 0.19999999999999996,
                "tempo": 120.0
            },
            {
                "start_time": 1.6204545454545454,
                "end_time": 1.8204545454545453,
                "pitch": 43,
                "velocity": 127,
                "duration": 0.19999999999999996,
                "tempo": 120.0
            },
            {
                "start_time": 1.8204545454545453,
                "end_time": 2.0227272727272725,
                "pitch": 43,
                "velocity": 127,
                "duration": 0.20227272727272716,
                "tempo": 120.0
            },
            {
                "start_time": 2.0227272727272725,
                "end_time": 2.2227272727272727,
                "pitch": 43,
                "velocity": 127,
                "duration": 0.20000000000000018,
                "tempo": 120.0
            },
            {
                "start_time": 2.2227272727272727,
                "end_time": 2.4227272727272724,
                "pitch": 43,
                "velocity": 127,
                "duration": 0.19999999999999973,
                "tempo": 120.0
            },
            {
                "start_time": 2.4227272727272724,
                "end_time": 2.6227272727272726,
                "pitch": 43,
                "velocity": 127,
                "duration": 0.20000000000000018,
                "tempo": 120.0
            },
            {
                "start_time": 2.6227272727272726,
                "end_time": 2.8227272727272728,
                "pitch": 43,
                "velocity": 127,
                "duration": 0.20000000000000018,
                "tempo": 120.0
            },
            {
                "start_time": 2.8227272727272728,
                "end_time": 3.0227272727272725,
                "pitch": 43,
                "velocity": 127,
                "duration": 0.19999999999999973,
                "tempo": 120.0
            },
            {
                "start_time": 3.0227272727272725,
                "end_time": 3.2227272727272727,
                "pitch": 43,
                "velocity": 127,
                "duration": 0.20000000000000018,
                "tempo": 120.0
            },
            {
                "start_time": 3.2227272727272727,
                "end_time": 3.4227272727272724,
                "pitch": 43,
                "velocity": 127,
                "duration": 0.19999999999999973,
                "tempo": 120.0
            },
            {
                "start_time": 3.4227272727272724,
                "end_time": 3.625,
                "pitch": 43,
                "velocity": 127,
                "duration": 0.2022727272727276,
                "tempo": 120.0
            },
            {
                "start_time": 3.625,
                "end_time": 3.8249999999999997,
                "pitch": 43,
                "velocity": 127,
                "duration": 0.19999999999999973,
                "tempo": 120.0
            },
            {
                "start_time": 3.8249999999999997,
                "end_time": 4.0249999999999995,
                "pitch": 43,
                "velocity": 127,
                "duration": 0.19999999999999973,
                "tempo": 120.0
            },
            {
                "start_time": 4.0249999999999995,
                "end_time": 4.225,
                "pitch": 43,
                "velocity": 127,
                "duration": 0.20000000000000018,
                "tempo": 120.0
            },
            {
                "start_time": 4.225,
                "end_time": 4.425,
                "pitch": 43,
                "velocity": 127,
                "duration": 0.20000000000000018,
                "tempo": 120.0
            },
            {
                "start_time": 4.425,
                "end_time": 4.627272727272727,
                "pitch": 43,
                "velocity": 127,
                "duration": 0.20227272727272716,
                "tempo": 120.0
            },
            {
                "start_time": 4.627272727272727,
                "end_time": 4.827272727272727,
                "pitch": 43,
                "velocity": 127,
                "duration": 0.20000000000000018,
                "tempo": 120.0
            },
            {
                "start_time": 4.827272727272727,
                "end_time": 5.029545454545454,
                "pitch": 43,
                "velocity": 127,
                "duration": 0.20227272727272716,
                "tempo": 120.0
            },
            {
                "start_time": 5.029545454545454,
                "end_time": 5.2295454545454545,
                "pitch": 43,
                "velocity": 127,
                "duration": 0.20000000000000018,
                "tempo": 120.0
            },
            {
                "start_time": 5.2295454545454545,
                "end_time": 5.429545454545455,
                "pitch": 43,
                "velocity": 127,
                "duration": 0.20000000000000018,
                "tempo": 120.0
            },
            {
                "start_time": 5.429545454545455,
                "end_time": 5.629545454545454,
                "pitch": 43,
                "velocity": 127,
                "duration": 0.1999999999999993,
                "tempo": 120.0
            },
            {
                "start_time": 5.629545454545454,
                "end_time": 5.831818181818181,
                "pitch": 43,
                "velocity": 127,
                "duration": 0.20227272727272716,
                "tempo": 120.0
            },
            {
                "start_time": 5.831818181818181,
                "end_time": 6.031818181818181,
                "pitch": 43,
                "velocity": 127,
                "duration": 0.20000000000000018,
                "tempo": 120.0
            },
            {
                "start_time": 6.031818181818181,
                "end_time": 6.2295454545454545,
                "pitch": 43,
                "velocity": 127,
                "duration": 0.1977272727272732,
                "tempo": 120.0
            },
            {
                "start_time": 6.2295454545454545,
                "end_time": 6.425,
                "pitch": 43,
                "velocity": 127,
                "duration": 0.19545454545454533,
                "tempo": 120.0
            },
            {
                "start_time": 6.425,
                "end_time": 6.629545454545454,
                "pitch": 43,
                "velocity": 127,
                "duration": 0.20454545454545414,
                "tempo": 120.0
            },
            {
                "start_time": 6.629545454545454,
                "end_time": 6.836363636363636,
                "pitch": 43,
                "velocity": 127,
                "duration": 0.206818181818182,
                "tempo": 120.0
            },
            {
                "start_time": 6.836363636363636,
                "end_time": 7.036363636363636,
                "pitch": 43,
                "velocity": 127,
                "duration": 0.20000000000000018,
                "tempo": 120.0
            },
            {
                "start_time": 7.036363636363636,
                "end_time": 7.238636363636363,
                "pitch": 43,
                "velocity": 127,
                "duration": 0.20227272727272716,
                "tempo": 120.0
            },
            {
                "start_time": 7.238636363636363,
                "end_time": 7.4386363636363635,
                "pitch": 43,
                "velocity": 127,
                "duration": 0.20000000000000018,
                "tempo": 120.0
            },
            {
                "start_time": 7.4386363636363635,
                "end_time": 7.638636363636364,
                "pitch": 43,
                "velocity": 127,
                "duration": 0.20000000000000018,
                "tempo": 120.0
            },
            {
                "start_time": 7.638636363636364,
                "end_time": 7.840909090909091,
                "pitch": 43,
                "velocity": 127,
                "duration": 0.20227272727272716,
                "tempo": 120.0
            },
            {
                "start_time": 7.840909090909091,
                "end_time": 8.040909090909091,
                "pitch": 43,
                "velocity": 127,
                "duration": 0.20000000000000018,
                "tempo": 120.0
            },
            {
                "start_time": 8.040909090909091,
                "end_time": 8.24090909090909,
                "pitch": 43,
                "velocity": 127,
                "duration": 0.1999999999999993,
                "tempo": 120.0
            },
            {
                "start_time": 8.24090909090909,
                "end_time": 8.440909090909091,
                "pitch": 43,
                "velocity": 127,
                "duration": 0.20000000000000107,
                "tempo": 120.0
            },
            {
                "start_time": 8.440909090909091,
                "end_time": 8.643181818181818,
                "pitch": 43,
                "velocity": 127,
                "duration": 0.20227272727272627,
                "tempo": 120.0
            },
            {
                "start_time": 8.643181818181818,
                "end_time": 8.843181818181817,
                "pitch": 43,
                "velocity": 127,
                "duration": 0.1999999999999993,
                "tempo": 120.0
            },
            {
                "start_time": 8.843181818181817,
                "end_time": 9.045454545454545,
                "pitch": 43,
                "velocity": 127,
                "duration": 0.20227272727272805,
                "tempo": 120.0
            },
            {
                "start_time": 9.045454545454545,
                "end_time": 9.245454545454544,
                "pitch": 43,
                "velocity": 127,
                "duration": 0.1999999999999993,
                "tempo": 120.0
            },
            {
                "start_time": 9.245454545454544,
                "end_time": 9.443181818181818,
                "pitch": 43,
                "velocity": 127,
                "duration": 0.19772727272727408,
                "tempo": 120.0
            },
            {
                "start_time": 9.443181818181818,
                "end_time": 9.638636363636364,
                "pitch": 43,
                "velocity": 127,
                "duration": 0.19545454545454533,
                "tempo": 120.0
            },
            {
                "start_time": 9.638636363636364,
                "end_time": 9.847727272727273,
                "pitch": 43,
                "velocity": 127,
                "duration": 0.209090909090909,
                "tempo": 120.0
            },
            {
                "start_time": 9.847727272727273,
                "end_time": 10.059090909090909,
                "pitch": 43,
                "velocity": 127,
                "duration": 0.21136363636363598,
                "tempo": 120.0
            },
            {
                "start_time": 10.059090909090909,
                "end_time": 10.256818181818181,
                "pitch": 43,
                "velocity": 127,
                "duration": 0.1977272727272723,
                "tempo": 120.0
            },
            {
                "start_time": 10.256818181818181,
                "end_time": 10.452272727272726,
                "pitch": 43,
                "velocity": 127,
                "duration": 0.19545454545454533,
                "tempo": 120.0
            },
            {
                "start_time": 10.452272727272726,
                "end_time": 10.654545454545454,
                "pitch": 43,
                "velocity": 127,
                "duration": 0.20227272727272805,
                "tempo": 120.0
            },
            {
                "start_time": 10.654545454545454,
                "end_time": 10.854545454545454,
                "pitch": 43,
                "velocity": 127,
                "duration": 0.1999999999999993,
                "tempo": 120.0
            },
            {
                "start_time": 10.854545454545454,
                "end_time": 11.056818181818182,
                "pitch": 43,
                "velocity": 127,
                "duration": 0.20227272727272805,
                "tempo": 120.0
            },
            {
                "start_time": 11.056818181818182,
                "end_time": 11.256818181818181,
                "pitch": 43,
                "velocity": 127,
                "duration": 0.1999999999999993,
                "tempo": 120.0
            },
            {
                "start_time": 11.256818181818181,
                "end_time": 11.459090909090909,
                "pitch": 43,
                "velocity": 127,
                "duration": 0.20227272727272805,
                "tempo": 120.0
            },
            {
                "start_time": 11.459090909090909,
                "end_time": 11.661363636363635,
                "pitch": 43,
                "velocity": 127,
                "duration": 0.20227272727272627,
                "tempo": 120.0
            },
            {
                "start_time": 11.661363636363635,
                "end_time": 11.861363636363636,
                "pitch": 43,
                "velocity": 127,
                "duration": 0.20000000000000107,
                "tempo": 120.0
            },
            {
                "start_time": 11.861363636363636,
                "end_time": 12.061363636363636,
                "pitch": 43,
                "velocity": 127,
                "duration": 0.1999999999999993,
                "tempo": 120.0
            },
            {
                "start_time": 12.061363636363636,
                "end_time": 12.261363636363635,
                "pitch": 43,
                "velocity": 127,
                "duration": 0.1999999999999993,
                "tempo": 120.0
            },
            {
                "start_time": 12.261363636363635,
                "end_time": 12.463636363636363,
                "pitch": 43,
                "velocity": 127,
                "duration": 0.20227272727272805,
                "tempo": 120.0
            },
            {
                "start_time": 12.463636363636363,
                "end_time": 12.659090909090908,
                "pitch": 43,
                "velocity": 127,
                "duration": 0.19545454545454533,
                "tempo": 120.0
            },
            {
                "start_time": 12.659090909090908,
                "end_time": 12.854545454545454,
                "pitch": 43,
                "velocity": 127,
                "duration": 0.19545454545454533,
                "tempo": 120.0
            },
            {
                "start_time": 12.872727272727271,
                "end_time": 13.06590909090909,
                "pitch": 43,
                "velocity": 127,
                "duration": 0.19318181818181834,
                "tempo": 120.0
            },
            {
                "start_time": 13.06590909090909,
                "end_time": 13.277272727272727,
                "pitch": 43,
                "velocity": 127,
                "duration": 0.21136363636363775,
                "tempo": 120.0
            },
            {
                "start_time": 13.277272727272727,
                "end_time": 13.472727272727273,
                "pitch": 43,
                "velocity": 127,
                "duration": 0.19545454545454533,
                "tempo": 120.0
            },
            {
                "start_time": 13.472727272727273,
                "end_time": 13.668181818181818,
                "pitch": 43,
                "velocity": 127,
                "duration": 0.19545454545454533,
                "tempo": 120.0
            },
            {
                "start_time": 13.668181818181818,
                "end_time": 13.868181818181817,
                "pitch": 43,
                "velocity": 127,
                "duration": 0.1999999999999993,
                "tempo": 120.0
            },
            {
                "start_time": 13.868181818181817,
                "end_time": 14.068181818181818,
                "pitch": 43,
                "velocity": 127,
                "duration": 0.20000000000000107,
                "tempo": 120.0
            },
            {
                "start_time": 14.068181818181818,
                "end_time": 14.270454545454545,
                "pitch": 43,
                "velocity": 127,
                "duration": 0.20227272727272627,
                "tempo": 120.0
            },
            {
                "start_time": 14.270454545454545,
                "end_time": 14.472727272727273,
                "pitch": 43,
                "velocity": 127,
                "duration": 0.20227272727272805,
                "tempo": 120.0
            },
            {
                "start_time": 14.472727272727273,
                "end_time": 14.672727272727272,
                "pitch": 46,
                "velocity": 127,
                "duration": 0.1999999999999993,
                "tempo": 120.0
            },
            {
                "start_time": 14.672727272727272,
                "end_time": 14.875,
                "pitch": 46,
                "velocity": 127,
                "duration": 0.20227272727272805,
                "tempo": 120.0
            },
            {
                "start_time": 14.875,
                "end_time": 15.075,
                "pitch": 46,
                "velocity": 127,
                "duration": 0.1999999999999993,
                "tempo": 120.0
            },
            {
                "start_time": 15.075,
                "end_time": 15.277272727272727,
                "pitch": 46,
                "velocity": 127,
                "duration": 0.20227272727272805,
                "tempo": 120.0
            },
            {
                "start_time": 15.277272727272727,
                "end_time": 15.477272727272727,
                "pitch": 46,
                "velocity": 127,
                "duration": 0.1999999999999993,
                "tempo": 120.0
            },
            {
                "start_time": 15.477272727272727,
                "end_time": 15.679545454545453,
                "pitch": 46,
                "velocity": 127,
                "duration": 0.20227272727272627,
                "tempo": 120.0
            },
            {
                "start_time": 15.679545454545453,
                "end_time": 15.875,
                "pitch": 46,
                "velocity": 127,
                "duration": 0.1954545454545471,
                "tempo": 120.0
            },
            {
                "start_time": 15.875,
                "end_time": 16.07272727272727,
                "pitch": 46,
                "velocity": 127,
                "duration": 0.19772727272727053,
                "tempo": 120.0
            },
            {
                "start_time": 16.07272727272727,
                "end_time": 16.277272727272727,
                "pitch": 46,
                "velocity": 127,
                "duration": 0.2045454545454568,
                "tempo": 120.0
            },
            {
                "start_time": 16.277272727272727,
                "end_time": 16.48181818181818,
                "pitch": 48,
                "velocity": 127,
                "duration": 0.20454545454545325,
                "tempo": 120.0
            },
            {
                "start_time": 16.48181818181818,
                "end_time": 16.68409090909091,
                "pitch": 48,
                "velocity": 127,
                "duration": 0.20227272727272805,
                "tempo": 120.0
            },
            {
                "start_time": 16.68409090909091,
                "end_time": 16.886363636363637,
                "pitch": 48,
                "velocity": 127,
                "duration": 0.20227272727272805,
                "tempo": 120.0
            },
            {
                "start_time": 16.886363636363637,
                "end_time": 17.086363636363636,
                "pitch": 48,
                "velocity": 127,
                "duration": 0.1999999999999993,
                "tempo": 120.0
            },
            {
                "start_time": 17.086363636363636,
                "end_time": 17.284090909090907,
                "pitch": 48,
                "velocity": 127,
                "duration": 0.19772727272727053,
                "tempo": 120.0
            },
            {
                "start_time": 17.284090909090907,
                "end_time": 17.48181818181818,
                "pitch": 48,
                "velocity": 127,
                "duration": 0.19772727272727408,
                "tempo": 120.0
            },
            {
                "start_time": 17.48181818181818,
                "end_time": 17.677272727272726,
                "pitch": 48,
                "velocity": 127,
                "duration": 0.19545454545454533,
                "tempo": 120.0
            },
            {
                "start_time": 17.677272727272726,
                "end_time": 17.881818181818183,
                "pitch": 50,
                "velocity": 127,
                "duration": 0.2045454545454568,
                "tempo": 120.0
            },
            {
                "start_time": 17.881818181818183,
                "end_time": 18.08863636363636,
                "pitch": 50,
                "velocity": 127,
                "duration": 0.20681818181817846,
                "tempo": 120.0
            },
            {
                "start_time": 18.08863636363636,
                "end_time": 18.288636363636364,
                "pitch": 50,
                "velocity": 127,
                "duration": 0.20000000000000284,
                "tempo": 120.0
            },
            {
                "start_time": 18.288636363636364,
                "end_time": 18.488636363636363,
                "pitch": 50,
                "velocity": 127,
                "duration": 0.1999999999999993,
                "tempo": 120.0
            },
            {
                "start_time": 18.488636363636363,
                "end_time": 18.688636363636363,
                "pitch": 50,
                "velocity": 127,
                "duration": 0.1999999999999993,
                "tempo": 120.0
            },
            {
                "start_time": 18.688636363636363,
                "end_time": 18.89090909090909,
                "pitch": 50,
                "velocity": 127,
                "duration": 0.20227272727272805,
                "tempo": 120.0
            },
            {
                "start_time": 18.89090909090909,
                "end_time": 19.086363636363636,
                "pitch": 50,
                "velocity": 127,
                "duration": 0.19545454545454533,
                "tempo": 120.0
            },
            {
                "start_time": 19.086363636363636,
                "end_time": 19.3,
                "pitch": 50,
                "velocity": 127,
                "duration": 0.21363636363636473,
                "tempo": 120.0
            },
            {
                "start_time": 19.3,
                "end_time": 19.493181818181817,
                "pitch": 43,
                "velocity": 127,
                "duration": 0.19318181818181657,
                "tempo": 120.0
            },
            {
                "start_time": 19.493181818181817,
                "end_time": 19.704545454545453,
                "pitch": 43,
                "velocity": 127,
                "duration": 0.21136363636363598,
                "tempo": 120.0
            },
            {
                "start_time": 19.704545454545453,
                "end_time": 19.9,
                "pitch": 43,
                "velocity": 127,
                "duration": 0.19545454545454533,
                "tempo": 120.0
            },
            {
                "start_time": 19.9,
                "end_time": 20.097727272727273,
                "pitch": 43,
                "velocity": 127,
                "duration": 0.19772727272727408,
                "tempo": 120.0
            },
            {
                "start_time": 20.097727272727273,
                "end_time": 20.297727272727272,
                "pitch": 43,
                "velocity": 127,
                "duration": 0.1999999999999993,
                "tempo": 120.0
            },
            {
                "start_time": 20.297727272727272,
                "end_time": 20.49772727272727,
                "pitch": 43,
                "velocity": 127,
                "duration": 0.1999999999999993,
                "tempo": 120.0
            },
            {
                "start_time": 20.49772727272727,
                "end_time": 20.69772727272727,
                "pitch": 43,
                "velocity": 127,
                "duration": 0.1999999999999993,
                "tempo": 120.0
            },
            {
                "start_time": 20.69772727272727,
                "end_time": 20.9,
                "pitch": 43,
                "velocity": 127,
                "duration": 0.20227272727272805,
                "tempo": 120.0
            },
            {
                "start_time": 20.9,
                "end_time": 21.099999999999998,
                "pitch": 46,
                "velocity": 127,
                "duration": 0.1999999999999993,
                "tempo": 120.0
            },
            {
                "start_time": 21.099999999999998,
                "end_time": 21.3,
                "pitch": 46,
                "velocity": 127,
                "duration": 0.20000000000000284,
                "tempo": 120.0
            },
            {
                "start_time": 21.3,
                "end_time": 21.5,
                "pitch": 46,
                "velocity": 127,
                "duration": 0.1999999999999993,
                "tempo": 120.0
            },
            {
                "start_time": 21.5,
                "end_time": 21.7,
                "pitch": 46,
                "velocity": 127,
                "duration": 0.1999999999999993,
                "tempo": 120.0
            },
            {
                "start_time": 21.7,
                "end_time": 21.9,
                "pitch": 46,
                "velocity": 127,
                "duration": 0.1999999999999993,
                "tempo": 120.0
            },
            {
                "start_time": 21.9,
                "end_time": 22.102272727272727,
                "pitch": 46,
                "velocity": 127,
                "duration": 0.20227272727272805,
                "tempo": 120.0
            },
            {
                "start_time": 22.102272727272727,
                "end_time": 22.302272727272726,
                "pitch": 46,
                "velocity": 127,
                "duration": 0.1999999999999993,
                "tempo": 120.0
            },
            {
                "start_time": 22.302272727272726,
                "end_time": 22.502272727272725,
                "pitch": 46,
                "velocity": 127,
                "duration": 0.1999999999999993,
                "tempo": 120.0
            },
            {
                "start_time": 22.502272727272725,
                "end_time": 22.706818181818182,
                "pitch": 46,
                "velocity": 127,
                "duration": 0.2045454545454568,
                "tempo": 120.0
            },
            {
                "start_time": 22.706818181818182,
                "end_time": 22.913636363636364,
                "pitch": 48,
                "velocity": 127,
                "duration": 0.206818181818182,
                "tempo": 120.0
            },
            {
                "start_time": 22.913636363636364,
                "end_time": 23.10909090909091,
                "pitch": 48,
                "velocity": 127,
                "duration": 0.19545454545454533,
                "tempo": 120.0
            },
            {
                "start_time": 23.10909090909091,
                "end_time": 23.304545454545455,
                "pitch": 48,
                "velocity": 127,
                "duration": 0.19545454545454533,
                "tempo": 120.0
            },
            {
                "start_time": 23.304545454545455,
                "end_time": 23.504545454545454,
                "pitch": 48,
                "velocity": 127,
                "duration": 0.1999999999999993,
                "tempo": 120.0
            },
            {
                "start_time": 23.504545454545454,
                "end_time": 23.704545454545453,
                "pitch": 48,
                "velocity": 127,
                "duration": 0.1999999999999993,
                "tempo": 120.0
            },
            {
                "start_time": 23.704545454545453,
                "end_time": 23.90681818181818,
                "pitch": 48,
                "velocity": 127,
                "duration": 0.20227272727272805,
                "tempo": 120.0
            },
            {
                "start_time": 23.90681818181818,
                "end_time": 24.10681818181818,
                "pitch": 48,
                "velocity": 127,
                "duration": 0.1999999999999993,
                "tempo": 120.0
            },
            {
                "start_time": 24.10681818181818,
                "end_time": 24.313636363636363,
                "pitch": 50,
                "velocity": 127,
                "duration": 0.206818181818182,
                "tempo": 120.0
            },
            {
                "start_time": 24.313636363636363,
                "end_time": 24.518181818181816,
                "pitch": 50,
                "velocity": 127,
                "duration": 0.20454545454545325,
                "tempo": 120.0
            },
            {
                "start_time": 24.518181818181816,
                "end_time": 24.71363636363636,
                "pitch": 50,
                "velocity": 127,
                "duration": 0.19545454545454533,
                "tempo": 120.0
            },
            {
                "start_time": 24.71363636363636,
                "end_time": 24.911363636363635,
                "pitch": 50,
                "velocity": 127,
                "duration": 0.19772727272727408,
                "tempo": 120.0
            },
            {
                "start_time": 24.911363636363635,
                "end_time": 25.111363636363635,
                "pitch": 50,
                "velocity": 127,
                "duration": 0.1999999999999993,
                "tempo": 120.0
            },
            {
                "start_time": 25.111363636363635,
                "end_time": 25.311363636363634,
                "pitch": 50,
                "velocity": 127,
                "duration": 0.1999999999999993,
                "tempo": 120.0
            },
            {
                "start_time": 25.311363636363634,
                "end_time": 25.511363636363637,
                "pitch": 50,
                "velocity": 127,
                "duration": 0.20000000000000284,
                "tempo": 120.0
            },
            {
                "start_time": 25.511363636363637,
                "end_time": 25.711363636363636,
                "pitch": 50,
                "velocity": 127,
                "duration": 0.1999999999999993,
                "tempo": 120.0
            },
            {
                "start_time": 25.727272727272727,
                "end_time": 25.91590909090909,
                "pitch": 43,
                "velocity": 127,
                "duration": 0.1886363636363626,
                "tempo": 120.0
            },
            {
                "start_time": 25.91590909090909,
                "end_time": 26.120454545454542,
                "pitch": 43,
                "velocity": 127,
                "duration": 0.20454545454545325,
                "tempo": 120.0
            },
            {
                "start_time": 26.120454545454542,
                "end_time": 26.318181818181817,
                "pitch": 43,
                "velocity": 127,
                "duration": 0.19772727272727408,
                "tempo": 120.0
            },
            {
                "start_time": 26.318181818181817,
                "end_time": 26.513636363636362,
                "pitch": 43,
                "velocity": 127,
                "duration": 0.19545454545454533,
                "tempo": 120.0
            },
            {
                "start_time": 26.513636363636362,
                "end_time": 26.71363636363636,
                "pitch": 43,
                "velocity": 127,
                "duration": 0.1999999999999993,
                "tempo": 120.0
            },
            {
                "start_time": 26.71363636363636,
                "end_time": 26.91590909090909,
                "pitch": 43,
                "velocity": 127,
                "duration": 0.20227272727272805,
                "tempo": 120.0
            },
            {
                "start_time": 26.91590909090909,
                "end_time": 27.11590909090909,
                "pitch": 43,
                "velocity": 127,
                "duration": 0.1999999999999993,
                "tempo": 120.0
            },
            {
                "start_time": 27.11590909090909,
                "end_time": 27.315909090909088,
                "pitch": 43,
                "velocity": 127,
                "duration": 0.1999999999999993,
                "tempo": 120.0
            },
            {
                "start_time": 27.315909090909088,
                "end_time": 27.51590909090909,
                "pitch": 46,
                "velocity": 127,
                "duration": 0.20000000000000284,
                "tempo": 120.0
            },
            {
                "start_time": 27.51590909090909,
                "end_time": 27.71590909090909,
                "pitch": 46,
                "velocity": 127,
                "duration": 0.1999999999999993,
                "tempo": 120.0
            },
            {
                "start_time": 27.71590909090909,
                "end_time": 27.918181818181818,
                "pitch": 46,
                "velocity": 127,
                "duration": 0.20227272727272805,
                "tempo": 120.0
            },
            {
                "start_time": 27.918181818181818,
                "end_time": 28.118181818181817,
                "pitch": 46,
                "velocity": 127,
                "duration": 0.1999999999999993,
                "tempo": 120.0
            },
            {
                "start_time": 28.118181818181817,
                "end_time": 28.318181818181817,
                "pitch": 46,
                "velocity": 127,
                "duration": 0.1999999999999993,
                "tempo": 120.0
            },
            {
                "start_time": 28.318181818181817,
                "end_time": 28.518181818181816,
                "pitch": 46,
                "velocity": 127,
                "duration": 0.1999999999999993,
                "tempo": 120.0
            },
            {
                "start_time": 28.518181818181816,
                "end_time": 28.720454545454544,
                "pitch": 46,
                "velocity": 127,
                "duration": 0.20227272727272805,
                "tempo": 120.0
            },
            {
                "start_time": 28.720454545454544,
                "end_time": 28.920454545454543,
                "pitch": 46,
                "velocity": 127,
                "duration": 0.1999999999999993,
                "tempo": 120.0
            },
            {
                "start_time": 28.920454545454543,
                "end_time": 29.127272727272725,
                "pitch": 46,
                "velocity": 127,
                "duration": 0.206818181818182,
                "tempo": 120.0
            },
            {
                "start_time": 29.127272727272725,
                "end_time": 29.331818181818182,
                "pitch": 48,
                "velocity": 127,
                "duration": 0.2045454545454568,
                "tempo": 120.0
            },
            {
                "start_time": 29.331818181818182,
                "end_time": 29.527272727272727,
                "pitch": 48,
                "velocity": 127,
                "duration": 0.19545454545454533,
                "tempo": 120.0
            },
            {
                "start_time": 29.527272727272727,
                "end_time": 29.724999999999998,
                "pitch": 48,
                "velocity": 127,
                "duration": 0.19772727272727053,
                "tempo": 120.0
            },
            {
                "start_time": 29.724999999999998,
                "end_time": 29.924999999999997,
                "pitch": 48,
                "velocity": 127,
                "duration": 0.1999999999999993,
                "tempo": 120.0
            },
            {
                "start_time": 29.924999999999997,
                "end_time": 30.127272727272725,
                "pitch": 48,
                "velocity": 127,
                "duration": 0.20227272727272805,
                "tempo": 120.0
            },
            {
                "start_time": 30.127272727272725,
                "end_time": 30.327272727272724,
                "pitch": 48,
                "velocity": 127,
                "duration": 0.1999999999999993,
                "tempo": 120.0
            },
            {
                "start_time": 30.327272727272724,
                "end_time": 30.527272727272727,
                "pitch": 48,
                "velocity": 127,
                "duration": 0.20000000000000284,
                "tempo": 120.0
            },
            {
                "start_time": 30.527272727272727,
                "end_time": 30.73181818181818,
                "pitch": 50,
                "velocity": 127,
                "duration": 0.20454545454545325,
                "tempo": 120.0
            },
            {
                "start_time": 30.73181818181818,
                "end_time": 30.938636363636363,
                "pitch": 50,
                "velocity": 127,
                "duration": 0.206818181818182,
                "tempo": 120.0
            },
            {
                "start_time": 30.938636363636363,
                "end_time": 31.134090909090908,
                "pitch": 50,
                "velocity": 127,
                "duration": 0.19545454545454533,
                "tempo": 120.0
            },
            {
                "start_time": 31.134090909090908,
                "end_time": 31.329545454545453,
                "pitch": 50,
                "velocity": 127,
                "duration": 0.19545454545454533,
                "tempo": 120.0
            },
            {
                "start_time": 31.329545454545453,
                "end_time": 31.529545454545453,
                "pitch": 50,
                "velocity": 127,
                "duration": 0.1999999999999993,
                "tempo": 120.0
            },
            {
                "start_time": 31.529545454545453,
                "end_time": 31.729545454545452,
                "pitch": 50,
                "velocity": 127,
                "duration": 0.1999999999999993,
                "tempo": 120.0
            },
            {
                "start_time": 31.729545454545452,
                "end_time": 31.924999999999997,
                "pitch": 50,
                "velocity": 127,
                "duration": 0.19545454545454533,
                "tempo": 120.0
            },
            {
                "start_time": 31.924999999999997,
                "end_time": 32.12272727272727,
                "pitch": 50,
                "velocity": 127,
                "duration": 0.19772727272727053,
                "tempo": 120.0
            }
        ]
    }
}