{
    "track_id": "Power Strike, Aleste (FM) - 05 - The Devastation",
    "mood": "angry",
    "instruments": {
        "Violin": [
            {
                "start_time": 0.0,
                "end_time": 1.3318181818181818,
                "pitch": 59,
                "velocity": 127,
                "duration": 1.3318181818181818,
                "tempo": 120.0
            },
            {
                "start_time": 1.3318181818181818,
                "end_time": 1.575,
                "pitch": 71,
                "velocity": 127,
                "duration": 0.24318181818181817,
                "tempo": 120.0
            },
            {
                "start_time": 1.575,
                "end_time": 3.5886363636363634,
                "pitch": 66,
                "velocity": 127,
                "duration": 2.0136363636363637,
                "tempo": 120.0
            },
            {
                "start_time": 3.5886363636363634,
                "end_time": 4.9795454545454545,
                "pitch": 65,
                "velocity": 127,
                "duration": 1.390909090909091,
                "tempo": 120.0
            },
            {
                "start_time": 4.9795454545454545,
                "end_time": 5.202272727272727,
                "pitch": 57,
                "velocity": 127,
                "duration": 0.22272727272727266,
                "tempo": 120.0
            },
            {
                "start_time": 5.202272727272727,
                "end_time": 7.236363636363636,
                "pitch": 59,
                "velocity": 127,
                "duration": 2.034090909090909,
                "tempo": 120.0
            },
            {
                "start_time": 7.236363636363636,
                "end_time": 8.59090909090909,
                "pitch": 59,
                "velocity": 127,
                "duration": 1.3545454545454536,
                "tempo": 120.0
            },
            {
                "start_time": 8.59090909090909,
                "end_time": 8.829545454545453,
                "pitch": 71,
                "velocity": 127,
                "duration": 0.2386363636363633,
                "tempo": 120.0
            },
            {
                "start_time": 8.829545454545453,
                "end_time": 10.863636363636363,
                "pitch": 66,
                "velocity": 127,
                "duration": 2.03409090909091,
                "tempo": 120.0
            },
            {
                "start_time": 10.863636363636363,
                "end_time": 12.238636363636363,
                "pitch": 65,
                "velocity": 127,
                "duration": 1.375,
                "tempo": 120.0
            },
            {
                "start_time": 12.238636363636363,
                "end_time": 12.461363636363636,
                "pitch": 57,
                "velocity": 127,
                "duration": 0.22272727272727266,
                "tempo": 120.0
            },
            {
                "start_time": 12.461363636363636,
                "end_time": 21.743181818181817,
                "pitch": 59,
                "velocity": 127,
                "duration": 9.281818181818181,
                "tempo": 120.0
            },
            {
                "start_time": 21.743181818181817,
                "end_time": 21.98181818181818,
                "pitch": 62,
                "velocity": 127,
                "duration": 0.2386363636363633,
                "tempo": 120.0
            },
            {
                "start_time": 21.98181818181818,
                "end_time": 22.43409090909091,
                "pitch": 59,
                "velocity": 127,
                "duration": 0.45227272727272805,
                "tempo": 120.0
            },
            {
                "start_time": 22.43409090909091,
                "end_time": 22.645454545454545,
                "pitch": 65,
                "velocity": 127,
                "duration": 0.21136363636363598,
                "tempo": 120.0
            },
            {
                "start_time": 22.645454545454545,
                "end_time": 23.118181818181817,
                "pitch": 59,
                "velocity": 127,
                "duration": 0.47272727272727266,
                "tempo": 120.0
            },
            {
                "start_time": 23.118181818181817,
                "end_time": 23.347727272727273,
                "pitch": 62,
                "velocity": 127,
                "duration": 0.22954545454545539,
                "tempo": 120.0
            },
            {
                "start_time": 23.347727272727273,
                "end_time": 23.793181818181818,
                "pitch": 59,
                "velocity": 127,
                "duration": 0.4454545454545453,
                "tempo": 120.0
            },
            {
                "start_time": 23.793181818181818,
                "end_time": 24.009090909090908,
                "pitch": 66,
                "velocity": 127,
                "duration": 0.21590909090908994,
                "tempo": 120.0
            },
            {
                "start_time": 24.009090909090908,
                "end_time": 24.25,
                "pitch": 66,
                "velocity": 127,
                "duration": 0.24090909090909207,
                "tempo": 120.0
            },
            {
                "start_time": 24.25,
                "end_time": 24.488636363636363,
                "pitch": 62,
                "velocity": 127,
                "duration": 0.2386363636363633,
                "tempo": 120.0
            },
            {
                "start_time": 24.488636363636363,
                "end_time": 24.95,
                "pitch": 69,
                "velocity": 127,
                "duration": 0.461363636363636,
                "tempo": 120.0
            },
            {
                "start_time": 24.95,
                "end_time": 25.168181818181818,
                "pitch": 62,
                "velocity": 127,
                "duration": 0.2181818181818187,
                "tempo": 120.0
            },
            {
                "start_time": 25.168181818181818,
                "end_time": 29.002272727272725,
                "pitch": 69,
                "velocity": 127,
                "duration": 3.834090909090907,
                "tempo": 120.0
            },
            {
                "start_time": 29.002272727272725,
                "end_time": 29.24090909090909,
                "pitch": 62,
                "velocity": 127,
                "duration": 0.2386363636363633,
                "tempo": 120.0
            },
            {
                "start_time": 29.24090909090909,
                "end_time": 29.690909090909088,
                "pitch": 59,
                "velocity": 127,
                "duration": 0.4499999999999993,
                "tempo": 120.0
            },
            {
                "start_time": 29.690909090909088,
                "end_time": 29.904545454545453,
                "pitch": 65,
                "velocity": 127,
                "duration": 0.21363636363636473,
                "tempo": 120.0
            },
            {
                "start_time": 29.904545454545453,
                "end_time": 30.36590909090909,
                "pitch": 59,
                "velocity": 127,
                "duration": 0.461363636363636,
                "tempo": 120.0
            },
            {
                "start_time": 30.36590909090909,
                "end_time": 30.599999999999998,
                "pitch": 62,
                "velocity": 127,
                "duration": 0.23409090909090935,
                "tempo": 120.0
            },
            {
                "start_time": 30.599999999999998,
                "end_time": 31.045454545454543,
                "pitch": 59,
                "velocity": 127,
                "duration": 0.4454545454545453,
                "tempo": 120.0
            },
            {
                "start_time": 31.045454545454543,
                "end_time": 31.259090909090908,
                "pitch": 66,
                "velocity": 127,
                "duration": 0.21363636363636473,
                "tempo": 120.0
            },
            {
                "start_time": 31.259090909090908,
                "end_time": 31.502272727272725,
                "pitch": 66,
                "velocity": 127,
                "duration": 0.24318181818181728,
                "tempo": 120.0
            },
            {
                "start_time": 31.502272727272725,
                "end_time": 31.74772727272727,
                "pitch": 62,
                "velocity": 127,
                "duration": 0.24545454545454604,
                "tempo": 120.0
            },
            {
                "start_time": 31.74772727272727,
                "end_time": 32.20909090909091,
                "pitch": 69,
                "velocity": 127,
                "duration": 0.46136363636363953,
                "tempo": 120.0
            },
            {
                "start_time": 32.20909090909091,
                "end_time": 32.42727272727272,
                "pitch": 62,
                "velocity": 127,
                "duration": 0.2181818181818116,
                "tempo": 120.0
            },
            {
                "start_time": 32.42727272727272,
                "end_time": 36.26136363636363,
                "pitch": 69,
                "velocity": 127,
                "duration": 3.8340909090909108,
                "tempo": 120.0
            },
            {
                "start_time": 36.26136363636363,
                "end_time": 36.377272727272725,
                "pitch": 69,
                "velocity": 127,
                "duration": 0.11590909090909207,
                "tempo": 120.0
            },
            {
                "start_time": 36.377272727272725,
                "end_time": 36.49545454545454,
                "pitch": 69,
                "velocity": 127,
                "duration": 0.11818181818181728,
                "tempo": 120.0
            },
            {
                "start_time": 36.49545454545454,
                "end_time": 36.611363636363635,
                "pitch": 73,
                "velocity": 127,
                "duration": 0.11590909090909207,
                "tempo": 120.0
            },
            {
                "start_time": 36.611363636363635,
                "end_time": 36.711363636363636,
                "pitch": 73,
                "velocity": 127,
                "duration": 0.10000000000000142,
                "tempo": 120.0
            },
            {
                "start_time": 36.711363636363636,
                "end_time": 36.95227272727273,
                "pitch": 78,
                "velocity": 127,
                "duration": 0.24090909090909207,
                "tempo": 120.0
            },
            {
                "start_time": 36.95227272727273,
                "end_time": 37.070454545454545,
                "pitch": 69,
                "velocity": 101,
                "duration": 0.11818181818181728,
                "tempo": 120.0
            },
            {
                "start_time": 37.070454545454545,
                "end_time": 37.17272727272727,
                "pitch": 69,
                "velocity": 101,
                "duration": 0.10227272727272663,
                "tempo": 120.0
            },
            {
                "start_time": 37.17272727272727,
                "end_time": 37.288636363636364,
                "pitch": 73,
                "velocity": 101,
                "duration": 0.11590909090909207,
                "tempo": 120.0
            },
            {
                "start_time": 37.288636363636364,
                "end_time": 37.402272727272724,
                "pitch": 73,
                "velocity": 101,
                "duration": 0.11363636363635976,
                "tempo": 120.0
            },
            {
                "start_time": 37.402272727272724,
                "end_time": 38.06590909090909,
                "pitch": 78,
                "velocity": 101,
                "duration": 0.663636363636364,
                "tempo": 120.0
            },
            {
                "start_time": 38.06590909090909,
                "end_time": 38.184090909090905,
                "pitch": 81,
                "velocity": 127,
                "duration": 0.11818181818181728,
                "tempo": 120.0
            },
            {
                "start_time": 38.184090909090905,
                "end_time": 38.3,
                "pitch": 81,
                "velocity": 127,
                "duration": 0.11590909090909207,
                "tempo": 120.0
            },
            {
                "start_time": 38.3,
                "end_time": 38.418181818181814,
                "pitch": 85,
                "velocity": 127,
                "duration": 0.11818181818181728,
                "tempo": 120.0
            },
            {
                "start_time": 38.418181818181814,
                "end_time": 38.53409090909091,
                "pitch": 85,
                "velocity": 127,
                "duration": 0.11590909090909207,
                "tempo": 120.0
            },
            {
                "start_time": 38.53409090909091,
                "end_time": 38.76363636363636,
                "pitch": 90,
                "velocity": 127,
                "duration": 0.22954545454545183,
                "tempo": 120.0
            },
            {
                "start_time": 38.76363636363636,
                "end_time": 38.88863636363636,
                "pitch": 81,
                "velocity": 101,
                "duration": 0.125,
                "tempo": 120.0
            },
            {
                "start_time": 38.88863636363636,
                "end_time": 39.01363636363636,
                "pitch": 81,
                "velocity": 101,
                "duration": 0.125,
                "tempo": 120.0
            },
            {
                "start_time": 39.01363636363636,
                "end_time": 39.10909090909091,
                "pitch": 85,
                "velocity": 101,
                "duration": 0.09545454545455101,
                "tempo": 120.0
            },
            {
                "start_time": 39.10909090909091,
                "end_time": 39.220454545454544,
                "pitch": 85,
                "velocity": 101,
                "duration": 0.11136363636363455,
                "tempo": 120.0
            },
            {
                "start_time": 39.220454545454544,
                "end_time": 39.445454545454545,
                "pitch": 90,
                "velocity": 101,
                "duration": 0.22500000000000142,
                "tempo": 120.0
            },
            {
                "start_time": 39.445454545454545,
                "end_time": 39.54772727272727,
                "pitch": 81,
                "velocity": 80,
                "duration": 0.10227272727272663,
                "tempo": 120.0
            },
            {
                "start_time": 39.54772727272727,
                "end_time": 39.67045454545455,
                "pitch": 81,
                "velocity": 80,
                "duration": 0.1227272727272748,
                "tempo": 120.0
            },
            {
                "start_time": 39.67045454545455,
                "end_time": 39.793181818181814,
                "pitch": 85,
                "velocity": 80,
                "duration": 0.12272727272726769,
                "tempo": 120.0
            },
            {
                "start_time": 39.793181818181814,
                "end_time": 39.91590909090909,
                "pitch": 85,
                "velocity": 80,
                "duration": 0.1227272727272748,
                "tempo": 120.0
            },
            {
                "start_time": 39.91590909090909,
                "end_time": 43.50681818181818,
                "pitch": 90,
                "velocity": 80,
                "duration": 3.5909090909090935,
                "tempo": 120.0
            },
            {
                "start_time": 43.50681818181818,
                "end_time": 43.74545454545454,
                "pitch": 62,
                "velocity": 127,
                "duration": 0.23863636363635976,
                "tempo": 120.0
            },
            {
                "start_time": 43.74545454545454,
                "end_time": 44.19772727272727,
                "pitch": 59,
                "velocity": 127,
                "duration": 0.45227272727272805,
                "tempo": 120.0
            },
            {
                "start_time": 44.19772727272727,
                "end_time": 44.40909090909091,
                "pitch": 65,
                "velocity": 127,
                "duration": 0.21136363636363598,
                "tempo": 120.0
            },
            {
                "start_time": 44.40909090909091,
                "end_time": 44.88181818181818,
                "pitch": 59,
                "velocity": 127,
                "duration": 0.4727272727272762,
                "tempo": 120.0
            },
            {
                "start_time": 44.88181818181818,
                "end_time": 45.11590909090909,
                "pitch": 62,
                "velocity": 127,
                "duration": 0.23409090909090935,
                "tempo": 120.0
            },
            {
                "start_time": 45.11590909090909,
                "end_time": 45.56818181818181,
                "pitch": 59,
                "velocity": 127,
                "duration": 0.45227272727272094,
                "tempo": 120.0
            },
            {
                "start_time": 45.56818181818181,
                "end_time": 45.8,
                "pitch": 66,
                "velocity": 127,
                "duration": 0.23181818181818414,
                "tempo": 120.0
            },
            {
                "start_time": 45.8,
                "end_time": 46.02272727272727,
                "pitch": 66,
                "velocity": 127,
                "duration": 0.22272727272727622,
                "tempo": 120.0
            },
            {
                "start_time": 46.02272727272727,
                "end_time": 46.26136363636363,
                "pitch": 62,
                "velocity": 127,
                "duration": 0.23863636363635976,
                "tempo": 120.0
            },
            {
                "start_time": 46.26136363636363,
                "end_time": 46.71363636363636,
                "pitch": 69,
                "velocity": 127,
                "duration": 0.45227272727272805,
                "tempo": 120.0
            },
            {
                "start_time": 46.71363636363636,
                "end_time": 46.93181818181818,
                "pitch": 62,
                "velocity": 127,
                "duration": 0.2181818181818187,
                "tempo": 120.0
            },
            {
                "start_time": 46.93181818181818,
                "end_time": 50.76590909090909,
                "pitch": 69,
                "velocity": 127,
                "duration": 3.8340909090909108,
                "tempo": 120.0
            },
            {
                "start_time": 50.76590909090909,
                "end_time": 51.00454545454545,
                "pitch": 62,
                "velocity": 127,
                "duration": 0.23863636363635976,
                "tempo": 120.0
            },
            {
                "start_time": 51.00454545454545,
                "end_time": 51.45454545454545,
                "pitch": 59,
                "velocity": 127,
                "duration": 0.45000000000000284,
                "tempo": 120.0
            },
            {
                "start_time": 51.45454545454545,
                "end_time": 51.668181818181814,
                "pitch": 65,
                "velocity": 127,
                "duration": 0.21363636363636118,
                "tempo": 120.0
            },
            {
                "start_time": 51.668181818181814,
                "end_time": 52.15681818181818,
                "pitch": 59,
                "velocity": 127,
                "duration": 0.48863636363636687,
                "tempo": 120.0
            },
            {
                "start_time": 52.15681818181818,
                "end_time": 52.37954545454545,
                "pitch": 62,
                "velocity": 127,
                "duration": 0.2227272727272691,
                "tempo": 120.0
            },
            {
                "start_time": 52.37954545454545,
                "end_time": 52.82727272727273,
                "pitch": 59,
                "velocity": 127,
                "duration": 0.44772727272727764,
                "tempo": 120.0
            },
            {
                "start_time": 52.82727272727273,
                "end_time": 53.05,
                "pitch": 66,
                "velocity": 127,
                "duration": 0.2227272727272691,
                "tempo": 120.0
            },
            {
                "start_time": 53.05,
                "end_time": 53.275,
                "pitch": 66,
                "velocity": 127,
                "duration": 0.22500000000000142,
                "tempo": 120.0
            },
            {
                "start_time": 53.275,
                "end_time": 53.52045454545454,
                "pitch": 62,
                "velocity": 127,
                "duration": 0.24545454545454248,
                "tempo": 120.0
            },
            {
                "start_time": 53.52045454545454,
                "end_time": 53.97272727272727,
                "pitch": 69,
                "velocity": 127,
                "duration": 0.45227272727272805,
                "tempo": 120.0
            },
            {
                "start_time": 53.97272727272727,
                "end_time": 54.19090909090909,
                "pitch": 62,
                "velocity": 127,
                "duration": 0.2181818181818187,
                "tempo": 120.0
            },
            {
                "start_time": 54.19090909090909,
                "end_time": 58.025,
                "pitch": 69,
                "velocity": 127,
                "duration": 3.8340909090909108,
                "tempo": 120.0
            },
            {
                "start_time": 58.025,
                "end_time": 58.14090909090909,
                "pitch": 69,
                "velocity": 127,
                "duration": 0.11590909090909207,
                "tempo": 120.0
            },
            {
                "start_time": 58.14090909090909,
                "end_time": 58.25909090909091,
                "pitch": 69,
                "velocity": 127,
                "duration": 0.11818181818181728,
                "tempo": 120.0
            },
            {
                "start_time": 58.25909090909091,
                "end_time": 58.375,
                "pitch": 73,
                "velocity": 127,
                "duration": 0.11590909090909207,
                "tempo": 120.0
            },
            {
                "start_time": 58.375,
                "end_time": 58.47727272727273,
                "pitch": 73,
                "velocity": 127,
                "duration": 0.10227272727272663,
                "tempo": 120.0
            },
            {
                "start_time": 58.47727272727273,
                "end_time": 58.715909090909086,
                "pitch": 78,
                "velocity": 127,
                "duration": 0.23863636363635976,
                "tempo": 120.0
            },
            {
                "start_time": 58.715909090909086,
                "end_time": 58.834090909090904,
                "pitch": 69,
                "velocity": 101,
                "duration": 0.11818181818181728,
                "tempo": 120.0
            },
            {
                "start_time": 58.834090909090904,
                "end_time": 58.95454545454545,
                "pitch": 69,
                "velocity": 101,
                "duration": 0.12045454545454959,
                "tempo": 120.0
            },
            {
                "start_time": 58.95454545454545,
                "end_time": 59.054545454545455,
                "pitch": 73,
                "velocity": 101,
                "duration": 0.10000000000000142,
                "tempo": 120.0
            },
            {
                "start_time": 59.054545454545455,
                "end_time": 59.17272727272727,
                "pitch": 73,
                "velocity": 101,
                "duration": 0.11818181818181728,
                "tempo": 120.0
            },
            {
                "start_time": 59.17272727272727,
                "end_time": 59.85681818181818,
                "pitch": 78,
                "velocity": 101,
                "duration": 0.6840909090909051,
                "tempo": 120.0
            },
            {
                "start_time": 59.85681818181818,
                "end_time": 59.959090909090904,
                "pitch": 71,
                "velocity": 127,
                "duration": 0.10227272727272663,
                "tempo": 120.0
            },
            {
                "start_time": 59.959090909090904,
                "end_time": 60.07954545454545,
                "pitch": 73,
                "velocity": 127,
                "duration": 0.12045454545454959,
                "tempo": 120.0
            },
            {
                "start_time": 60.07954545454545,
                "end_time": 60.19772727272727,
                "pitch": 73,
                "velocity": 127,
                "duration": 0.11818181818181728,
                "tempo": 120.0
            },
            {
                "start_time": 60.19772727272727,
                "end_time": 60.31818181818181,
                "pitch": 76,
                "velocity": 127,
                "duration": 0.12045454545454248,
                "tempo": 120.0
            },
            {
                "start_time": 60.31818181818181,
                "end_time": 60.54090909090909,
                "pitch": 81,
                "velocity": 127,
                "duration": 0.22272727272727622,
                "tempo": 120.0
            },
            {
                "start_time": 60.54090909090909,
                "end_time": 60.66136363636363,
                "pitch": 69,
                "velocity": 101,
                "duration": 0.12045454545454248,
                "tempo": 120.0
            },
            {
                "start_time": 60.66136363636363,
                "end_time": 60.77954545454545,
                "pitch": 73,
                "velocity": 101,
                "duration": 0.11818181818181728,
                "tempo": 120.0
            },
            {
                "start_time": 60.77954545454545,
                "end_time": 60.893181818181816,
                "pitch": 73,
                "velocity": 101,
                "duration": 0.11363636363636687,
                "tempo": 120.0
            },
            {
                "start_time": 60.893181818181816,
                "end_time": 60.98863636363636,
                "pitch": 76,
                "velocity": 101,
                "duration": 0.0954545454545439,
                "tempo": 120.0
            },
            {
                "start_time": 60.98863636363636,
                "end_time": 61.211363636363636,
                "pitch": 81,
                "velocity": 101,
                "duration": 0.22272727272727622,
                "tempo": 120.0
            },
            {
                "start_time": 61.211363636363636,
                "end_time": 61.33181818181818,
                "pitch": 69,
                "velocity": 80,
                "duration": 0.12045454545454248,
                "tempo": 120.0
            },
            {
                "start_time": 61.33181818181818,
                "end_time": 61.43863636363636,
                "pitch": 73,
                "velocity": 80,
                "duration": 0.10681818181818414,
                "tempo": 120.0
            },
            {
                "start_time": 61.43863636363636,
                "end_time": 61.559090909090905,
                "pitch": 73,
                "velocity": 80,
                "duration": 0.12045454545454248,
                "tempo": 120.0
            },
            {
                "start_time": 61.559090909090905,
                "end_time": 61.68181818181818,
                "pitch": 76,
                "velocity": 80,
                "duration": 0.1227272727272748,
                "tempo": 120.0
            },
            {
                "start_time": 61.68181818181818,
                "end_time": 65.27499999999999,
                "pitch": 81,
                "velocity": 80,
                "duration": 3.5931818181818116,
                "tempo": 120.0
            },
            {
                "start_time": 65.27499999999999,
                "end_time": 65.325,
                "pitch": 59,
                "velocity": 127,
                "duration": 0.05000000000001137,
                "tempo": 120.0
            }
        ],
        "Acoustic Bass": [
            {
                "start_time": 0.015909090909090907,
                "end_time": 0.2159090909090909,
                "pitch": 35,
                "velocity": 127,
                "duration": 0.2,
                "tempo": 120.0
            },
            {
                "start_time": 0.2159090909090909,
                "end_time": 0.44999999999999996,
                "pitch": 35,
                "velocity": 127,
                "duration": 0.23409090909090904,
                "tempo": 120.0
            },
            {
                "start_time": 0.44999999999999996,
                "end_time": 0.6727272727272727,
                "pitch": 35,
                "velocity": 127,
                "duration": 0.22272727272727277,
                "tempo": 120.0
            },
            {
                "start_time": 0.6727272727272727,
                "end_time": 0.8818181818181817,
                "pitch": 35,
                "velocity": 127,
                "duration": 0.209090909090909,
                "tempo": 120.0
            },
            {
                "start_time": 0.8818181818181817,
                "end_time": 1.1136363636363635,
                "pitch": 35,
                "velocity": 127,
                "duration": 0.2318181818181818,
                "tempo": 120.0
            },
            {
                "start_time": 1.1136363636363635,
                "end_time": 1.3318181818181818,
                "pitch": 35,
                "velocity": 127,
                "duration": 0.21818181818181825,
                "tempo": 120.0
            },
            {
                "start_time": 1.3318181818181818,
                "end_time": 1.575,
                "pitch": 35,
                "velocity": 127,
                "duration": 0.24318181818181817,
                "tempo": 120.0
            },
            {
                "start_time": 1.575,
                "end_time": 1.8045454545454545,
                "pitch": 35,
                "velocity": 127,
                "duration": 0.2295454545454545,
                "tempo": 120.0
            },
            {
                "start_time": 1.8045454545454545,
                "end_time": 2.0272727272727273,
                "pitch": 35,
                "velocity": 127,
                "duration": 0.22272727272727288,
                "tempo": 120.0
            },
            {
                "start_time": 2.0272727272727273,
                "end_time": 2.2363636363636363,
                "pitch": 35,
                "velocity": 127,
                "duration": 0.209090909090909,
                "tempo": 120.0
            },
            {
                "start_time": 2.2363636363636363,
                "end_time": 2.4704545454545452,
                "pitch": 35,
                "velocity": 127,
                "duration": 0.2340909090909089,
                "tempo": 120.0
            },
            {
                "start_time": 2.4704545454545452,
                "end_time": 2.686363636363636,
                "pitch": 35,
                "velocity": 127,
                "duration": 0.21590909090909083,
                "tempo": 120.0
            },
            {
                "start_time": 2.686363636363636,
                "end_time": 2.9204545454545454,
                "pitch": 35,
                "velocity": 127,
                "duration": 0.23409090909090935,
                "tempo": 120.0
            },
            {
                "start_time": 2.9204545454545454,
                "end_time": 3.1386363636363637,
                "pitch": 35,
                "velocity": 127,
                "duration": 0.21818181818181825,
                "tempo": 120.0
            },
            {
                "start_time": 3.1386363636363637,
                "end_time": 3.5886363636363634,
                "pitch": 38,
                "velocity": 127,
                "duration": 0.44999999999999973,
                "tempo": 120.0
            },
            {
                "start_time": 3.5886363636363634,
                "end_time": 3.827272727272727,
                "pitch": 35,
                "velocity": 127,
                "duration": 0.23863636363636376,
                "tempo": 120.0
            },
            {
                "start_time": 3.827272727272727,
                "end_time": 4.068181818181818,
                "pitch": 35,
                "velocity": 127,
                "duration": 0.24090909090909118,
                "tempo": 120.0
            },
            {
                "start_time": 4.068181818181818,
                "end_time": 4.290909090909091,
                "pitch": 35,
                "velocity": 127,
                "duration": 0.22272727272727266,
                "tempo": 120.0
            },
            {
                "start_time": 4.290909090909091,
                "end_time": 4.529545454545454,
                "pitch": 35,
                "velocity": 127,
                "duration": 0.2386363636363633,
                "tempo": 120.0
            },
            {
                "start_time": 4.529545454545454,
                "end_time": 4.747727272727272,
                "pitch": 35,
                "velocity": 127,
                "duration": 0.2181818181818178,
                "tempo": 120.0
            },
            {
                "start_time": 4.747727272727272,
                "end_time": 4.9795454545454545,
                "pitch": 35,
                "velocity": 127,
                "duration": 0.23181818181818237,
                "tempo": 120.0
            },
            {
                "start_time": 4.9795454545454545,
                "end_time": 5.202272727272727,
                "pitch": 35,
                "velocity": 127,
                "duration": 0.22272727272727266,
                "tempo": 120.0
            },
            {
                "start_time": 5.202272727272727,
                "end_time": 5.4409090909090905,
                "pitch": 35,
                "velocity": 127,
                "duration": 0.2386363636363633,
                "tempo": 120.0
            },
            {
                "start_time": 5.4409090909090905,
                "end_time": 5.654545454545454,
                "pitch": 35,
                "velocity": 127,
                "duration": 0.21363636363636385,
                "tempo": 120.0
            },
            {
                "start_time": 5.654545454545454,
                "end_time": 5.884090909090909,
                "pitch": 35,
                "velocity": 127,
                "duration": 0.2295454545454545,
                "tempo": 120.0
            },
            {
                "start_time": 5.884090909090909,
                "end_time": 6.1,
                "pitch": 35,
                "velocity": 127,
                "duration": 0.21590909090909083,
                "tempo": 120.0
            },
            {
                "start_time": 6.1,
                "end_time": 6.334090909090909,
                "pitch": 35,
                "velocity": 127,
                "duration": 0.23409090909090935,
                "tempo": 120.0
            },
            {
                "start_time": 6.334090909090909,
                "end_time": 6.552272727272727,
                "pitch": 35,
                "velocity": 127,
                "duration": 0.2181818181818178,
                "tempo": 120.0
            },
            {
                "start_time": 6.552272727272727,
                "end_time": 6.786363636363636,
                "pitch": 35,
                "velocity": 127,
                "duration": 0.23409090909090935,
                "tempo": 120.0
            },
            {
                "start_time": 6.786363636363636,
                "end_time": 7.236363636363636,
                "pitch": 38,
                "velocity": 127,
                "duration": 0.4500000000000002,
                "tempo": 120.0
            },
            {
                "start_time": 7.236363636363636,
                "end_time": 7.475,
                "pitch": 35,
                "velocity": 127,
                "duration": 0.2386363636363633,
                "tempo": 120.0
            },
            {
                "start_time": 7.475,
                "end_time": 7.697727272727272,
                "pitch": 35,
                "velocity": 127,
                "duration": 0.22272727272727266,
                "tempo": 120.0
            },
            {
                "start_time": 7.697727272727272,
                "end_time": 7.927272727272727,
                "pitch": 35,
                "velocity": 127,
                "duration": 0.2295454545454545,
                "tempo": 120.0
            },
            {
                "start_time": 7.927272727272727,
                "end_time": 8.14090909090909,
                "pitch": 35,
                "velocity": 127,
                "duration": 0.21363636363636385,
                "tempo": 120.0
            },
            {
                "start_time": 8.14090909090909,
                "end_time": 8.372727272727273,
                "pitch": 35,
                "velocity": 127,
                "duration": 0.23181818181818237,
                "tempo": 120.0
            },
            {
                "start_time": 8.372727272727273,
                "end_time": 8.59090909090909,
                "pitch": 35,
                "velocity": 127,
                "duration": 0.21818181818181692,
                "tempo": 120.0
            },
            {
                "start_time": 8.59090909090909,
                "end_time": 8.829545454545453,
                "pitch": 35,
                "velocity": 127,
                "duration": 0.2386363636363633,
                "tempo": 120.0
            },
            {
                "start_time": 8.829545454545453,
                "end_time": 9.052272727272728,
                "pitch": 35,
                "velocity": 127,
                "duration": 0.22272727272727444,
                "tempo": 120.0
            },
            {
                "start_time": 9.052272727272728,
                "end_time": 9.281818181818181,
                "pitch": 35,
                "velocity": 127,
                "duration": 0.2295454545454536,
                "tempo": 120.0
            },
            {
                "start_time": 9.281818181818181,
                "end_time": 9.493181818181817,
                "pitch": 35,
                "velocity": 127,
                "duration": 0.21136363636363598,
                "tempo": 120.0
            },
            {
                "start_time": 9.493181818181817,
                "end_time": 9.727272727272727,
                "pitch": 35,
                "velocity": 127,
                "duration": 0.23409090909090935,
                "tempo": 120.0
            },
            {
                "start_time": 9.727272727272727,
                "end_time": 9.945454545454545,
                "pitch": 35,
                "velocity": 127,
                "duration": 0.2181818181818187,
                "tempo": 120.0
            },
            {
                "start_time": 9.945454545454545,
                "end_time": 10.179545454545455,
                "pitch": 35,
                "velocity": 127,
                "duration": 0.23409090909090935,
                "tempo": 120.0
            },
            {
                "start_time": 10.179545454545455,
                "end_time": 10.395454545454545,
                "pitch": 35,
                "velocity": 127,
                "duration": 0.21590909090908994,
                "tempo": 120.0
            },
            {
                "start_time": 10.395454545454545,
                "end_time": 10.863636363636363,
                "pitch": 38,
                "velocity": 127,
                "duration": 0.4681818181818187,
                "tempo": 120.0
            },
            {
                "start_time": 10.863636363636363,
                "end_time": 11.09090909090909,
                "pitch": 35,
                "velocity": 127,
                "duration": 0.22727272727272663,
                "tempo": 120.0
            },
            {
                "start_time": 11.09090909090909,
                "end_time": 11.336363636363636,
                "pitch": 35,
                "velocity": 127,
                "duration": 0.24545454545454604,
                "tempo": 120.0
            },
            {
                "start_time": 11.336363636363636,
                "end_time": 11.547727272727272,
                "pitch": 35,
                "velocity": 127,
                "duration": 0.21136363636363598,
                "tempo": 120.0
            },
            {
                "start_time": 11.547727272727272,
                "end_time": 11.777272727272727,
                "pitch": 35,
                "velocity": 127,
                "duration": 0.22954545454545539,
                "tempo": 120.0
            },
            {
                "start_time": 11.777272727272727,
                "end_time": 12.0,
                "pitch": 35,
                "velocity": 127,
                "duration": 0.22272727272727266,
                "tempo": 120.0
            },
            {
                "start_time": 12.0,
                "end_time": 12.238636363636363,
                "pitch": 35,
                "velocity": 127,
                "duration": 0.2386363636363633,
                "tempo": 120.0
            },
            {
                "start_time": 12.238636363636363,
                "end_time": 12.7,
                "pitch": 38,
                "velocity": 127,
                "duration": 0.461363636363636,
                "tempo": 120.0
            },
            {
                "start_time": 12.7,
                "end_time": 12.913636363636362,
                "pitch": 35,
                "velocity": 127,
                "duration": 0.21363636363636296,
                "tempo": 120.0
            },
            {
                "start_time": 12.913636363636362,
                "end_time": 13.14090909090909,
                "pitch": 35,
                "velocity": 127,
                "duration": 0.2272727272727284,
                "tempo": 120.0
            },
            {
                "start_time": 13.14090909090909,
                "end_time": 13.593181818181817,
                "pitch": 38,
                "velocity": 127,
                "duration": 0.45227272727272627,
                "tempo": 120.0
            },
            {
                "start_time": 13.593181818181817,
                "end_time": 13.811363636363636,
                "pitch": 38,
                "velocity": 127,
                "duration": 0.2181818181818187,
                "tempo": 120.0
            },
            {
                "start_time": 13.811363636363636,
                "end_time": 14.045454545454545,
                "pitch": 32,
                "velocity": 127,
                "duration": 0.23409090909090935,
                "tempo": 120.0
            },
            {
                "start_time": 14.045454545454545,
                "end_time": 14.277272727272727,
                "pitch": 32,
                "velocity": 127,
                "duration": 0.23181818181818237,
                "tempo": 120.0
            },
            {
                "start_time": 14.277272727272727,
                "end_time": 14.495454545454544,
                "pitch": 33,
                "velocity": 127,
                "duration": 0.21818181818181692,
                "tempo": 120.0
            },
            {
                "start_time": 14.495454545454544,
                "end_time": 14.729545454545454,
                "pitch": 34,
                "velocity": 127,
                "duration": 0.23409090909090935,
                "tempo": 120.0
            },
            {
                "start_time": 14.729545454545454,
                "end_time": 14.947727272727272,
                "pitch": 35,
                "velocity": 127,
                "duration": 0.2181818181818187,
                "tempo": 120.0
            },
            {
                "start_time": 14.947727272727272,
                "end_time": 15.174999999999999,
                "pitch": 35,
                "velocity": 127,
                "duration": 0.22727272727272663,
                "tempo": 120.0
            },
            {
                "start_time": 15.174999999999999,
                "end_time": 15.388636363636364,
                "pitch": 35,
                "velocity": 127,
                "duration": 0.21363636363636473,
                "tempo": 120.0
            },
            {
                "start_time": 15.388636363636364,
                "end_time": 15.627272727272727,
                "pitch": 35,
                "velocity": 127,
                "duration": 0.2386363636363633,
                "tempo": 120.0
            },
            {
                "start_time": 15.627272727272727,
                "end_time": 15.85,
                "pitch": 35,
                "velocity": 127,
                "duration": 0.22272727272727266,
                "tempo": 120.0
            },
            {
                "start_time": 15.85,
                "end_time": 16.077272727272728,
                "pitch": 35,
                "velocity": 127,
                "duration": 0.2272727272727284,
                "tempo": 120.0
            },
            {
                "start_time": 16.077272727272728,
                "end_time": 16.29090909090909,
                "pitch": 35,
                "velocity": 127,
                "duration": 0.21363636363636118,
                "tempo": 120.0
            },
            {
                "start_time": 16.29090909090909,
                "end_time": 16.525,
                "pitch": 35,
                "velocity": 127,
                "duration": 0.23409090909090935,
                "tempo": 120.0
            },
            {
                "start_time": 16.525,
                "end_time": 16.74090909090909,
                "pitch": 35,
                "velocity": 127,
                "duration": 0.21590909090908994,
                "tempo": 120.0
            },
            {
                "start_time": 16.74090909090909,
                "end_time": 16.974999999999998,
                "pitch": 35,
                "velocity": 127,
                "duration": 0.23409090909090935,
                "tempo": 120.0
            },
            {
                "start_time": 16.974999999999998,
                "end_time": 17.193181818181817,
                "pitch": 35,
                "velocity": 127,
                "duration": 0.2181818181818187,
                "tempo": 120.0
            },
            {
                "start_time": 17.193181818181817,
                "end_time": 17.43181818181818,
                "pitch": 35,
                "velocity": 127,
                "duration": 0.2386363636363633,
                "tempo": 120.0
            },
            {
                "start_time": 17.43181818181818,
                "end_time": 17.672727272727272,
                "pitch": 32,
                "velocity": 127,
                "duration": 0.24090909090909207,
                "tempo": 120.0
            },
            {
                "start_time": 17.672727272727272,
                "end_time": 17.893181818181816,
                "pitch": 32,
                "velocity": 127,
                "duration": 0.2204545454545439,
                "tempo": 120.0
            },
            {
                "start_time": 17.893181818181816,
                "end_time": 18.134090909090908,
                "pitch": 33,
                "velocity": 127,
                "duration": 0.24090909090909207,
                "tempo": 120.0
            },
            {
                "start_time": 18.134090909090908,
                "end_time": 18.349999999999998,
                "pitch": 34,
                "velocity": 127,
                "duration": 0.21590909090908994,
                "tempo": 120.0
            },
            {
                "start_time": 18.349999999999998,
                "end_time": 18.584090909090907,
                "pitch": 35,
                "velocity": 127,
                "duration": 0.23409090909090935,
                "tempo": 120.0
            },
            {
                "start_time": 18.584090909090907,
                "end_time": 18.802272727272726,
                "pitch": 35,
                "velocity": 127,
                "duration": 0.2181818181818187,
                "tempo": 120.0
            },
            {
                "start_time": 18.802272727272726,
                "end_time": 19.036363636363635,
                "pitch": 35,
                "velocity": 127,
                "duration": 0.23409090909090935,
                "tempo": 120.0
            },
            {
                "start_time": 19.036363636363635,
                "end_time": 19.252272727272725,
                "pitch": 35,
                "velocity": 127,
                "duration": 0.21590909090908994,
                "tempo": 120.0
            },
            {
                "start_time": 19.252272727272725,
                "end_time": 19.486363636363635,
                "pitch": 35,
                "velocity": 127,
                "duration": 0.23409090909090935,
                "tempo": 120.0
            },
            {
                "start_time": 19.486363636363635,
                "end_time": 19.704545454545453,
                "pitch": 35,
                "velocity": 127,
                "duration": 0.2181818181818187,
                "tempo": 120.0
            },
            {
                "start_time": 19.704545454545453,
                "end_time": 19.938636363636363,
                "pitch": 35,
                "velocity": 127,
                "duration": 0.23409090909090935,
                "tempo": 120.0
            },
            {
                "start_time": 19.938636363636363,
                "end_time": 20.154545454545453,
                "pitch": 35,
                "velocity": 127,
                "duration": 0.21590909090908994,
                "tempo": 120.0
            },
            {
                "start_time": 20.154545454545453,
                "end_time": 20.388636363636362,
                "pitch": 35,
                "velocity": 127,
                "duration": 0.23409090909090935,
                "tempo": 120.0
            },
            {
                "start_time": 20.388636363636362,
                "end_time": 20.60681818181818,
                "pitch": 35,
                "velocity": 127,
                "duration": 0.2181818181818187,
                "tempo": 120.0
            },
            {
                "start_time": 20.60681818181818,
                "end_time": 20.84090909090909,
                "pitch": 35,
                "velocity": 127,
                "duration": 0.23409090909090935,
                "tempo": 120.0
            },
            {
                "start_time": 20.84090909090909,
                "end_time": 21.079545454545453,
                "pitch": 35,
                "velocity": 127,
                "duration": 0.2386363636363633,
                "tempo": 120.0
            },
            {
                "start_time": 21.079545454545453,
                "end_time": 21.302272727272726,
                "pitch": 35,
                "velocity": 127,
                "duration": 0.22272727272727266,
                "tempo": 120.0
            },
            {
                "start_time": 21.302272727272726,
                "end_time": 21.53181818181818,
                "pitch": 35,
                "velocity": 127,
                "duration": 0.22954545454545539,
                "tempo": 120.0
            },
            {
                "start_time": 21.53181818181818,
                "end_time": 21.759090909090908,
                "pitch": 35,
                "velocity": 127,
                "duration": 0.22727272727272663,
                "tempo": 120.0
            },
            {
                "start_time": 21.759090909090908,
                "end_time": 21.98181818181818,
                "pitch": 35,
                "velocity": 127,
                "duration": 0.22272727272727266,
                "tempo": 120.0
            },
            {
                "start_time": 21.98181818181818,
                "end_time": 22.204545454545453,
                "pitch": 35,
                "velocity": 127,
                "duration": 0.22272727272727266,
                "tempo": 120.0
            },
            {
                "start_time": 22.204545454545453,
                "end_time": 22.43409090909091,
                "pitch": 35,
                "velocity": 127,
                "duration": 0.22954545454545539,
                "tempo": 120.0
            },
            {
                "start_time": 22.43409090909091,
                "end_time": 22.645454545454545,
                "pitch": 35,
                "velocity": 127,
                "duration": 0.21136363636363598,
                "tempo": 120.0
            },
            {
                "start_time": 22.645454545454545,
                "end_time": 22.888636363636362,
                "pitch": 35,
                "velocity": 127,
                "duration": 0.24318181818181728,
                "tempo": 120.0
            },
            {
                "start_time": 22.888636363636362,
                "end_time": 23.118181818181817,
                "pitch": 35,
                "velocity": 127,
                "duration": 0.22954545454545539,
                "tempo": 120.0
            },
            {
                "start_time": 23.118181818181817,
                "end_time": 23.347727272727273,
                "pitch": 35,
                "velocity": 127,
                "duration": 0.22954545454545539,
                "tempo": 120.0
            },
            {
                "start_time": 23.347727272727273,
                "end_time": 23.55909090909091,
                "pitch": 35,
                "velocity": 127,
                "duration": 0.21136363636363598,
                "tempo": 120.0
            },
            {
                "start_time": 23.55909090909091,
                "end_time": 23.793181818181818,
                "pitch": 35,
                "velocity": 127,
                "duration": 0.23409090909090935,
                "tempo": 120.0
            },
            {
                "start_time": 23.793181818181818,
                "end_time": 24.009090909090908,
                "pitch": 35,
                "velocity": 127,
                "duration": 0.21590909090908994,
                "tempo": 120.0
            },
            {
                "start_time": 24.009090909090908,
                "end_time": 24.25,
                "pitch": 35,
                "velocity": 127,
                "duration": 0.24090909090909207,
                "tempo": 120.0
            },
            {
                "start_time": 24.25,
                "end_time": 24.488636363636363,
                "pitch": 35,
                "velocity": 127,
                "duration": 0.2386363636363633,
                "tempo": 120.0
            },
            {
                "start_time": 24.488636363636363,
                "end_time": 24.711363636363636,
                "pitch": 35,
                "velocity": 127,
                "duration": 0.22272727272727266,
                "tempo": 120.0
            },
            {
                "start_time": 24.711363636363636,
                "end_time": 24.95,
                "pitch": 35,
                "velocity": 127,
                "duration": 0.2386363636363633,
                "tempo": 120.0
            },
            {
                "start_time": 24.95,
                "end_time": 25.402272727272727,
                "pitch": 38,
                "velocity": 127,
                "duration": 0.45227272727272805,
                "tempo": 120.0
            },
            {
                "start_time": 25.402272727272727,
                "end_time": 25.613636363636363,
                "pitch": 35,
                "velocity": 127,
                "duration": 0.21136363636363598,
                "tempo": 120.0
            },
            {
                "start_time": 25.613636363636363,
                "end_time": 25.84318181818182,
                "pitch": 35,
                "velocity": 127,
                "duration": 0.22954545454545539,
                "tempo": 120.0
            },
            {
                "start_time": 25.84318181818182,
                "end_time": 26.05909090909091,
                "pitch": 35,
                "velocity": 127,
                "duration": 0.21590909090908994,
                "tempo": 120.0
            },
            {
                "start_time": 26.05909090909091,
                "end_time": 26.293181818181818,
                "pitch": 35,
                "velocity": 127,
                "duration": 0.23409090909090935,
                "tempo": 120.0
            },
            {
                "start_time": 26.293181818181818,
                "end_time": 26.511363636363637,
                "pitch": 35,
                "velocity": 127,
                "duration": 0.2181818181818187,
                "tempo": 120.0
            },
            {
                "start_time": 26.511363636363637,
                "end_time": 26.745454545454542,
                "pitch": 35,
                "velocity": 127,
                "duration": 0.2340909090909058,
                "tempo": 120.0
            },
            {
                "start_time": 26.745454545454542,
                "end_time": 26.96363636363636,
                "pitch": 35,
                "velocity": 127,
                "duration": 0.2181818181818187,
                "tempo": 120.0
            },
            {
                "start_time": 26.96363636363636,
                "end_time": 27.19772727272727,
                "pitch": 35,
                "velocity": 127,
                "duration": 0.23409090909090935,
                "tempo": 120.0
            },
            {
                "start_time": 27.19772727272727,
                "end_time": 27.413636363636364,
                "pitch": 35,
                "velocity": 127,
                "duration": 0.2159090909090935,
                "tempo": 120.0
            },
            {
                "start_time": 27.413636363636364,
                "end_time": 27.64772727272727,
                "pitch": 35,
                "velocity": 127,
                "duration": 0.2340909090909058,
                "tempo": 120.0
            },
            {
                "start_time": 27.64772727272727,
                "end_time": 27.86590909090909,
                "pitch": 35,
                "velocity": 127,
                "duration": 0.2181818181818187,
                "tempo": 120.0
            },
            {
                "start_time": 27.86590909090909,
                "end_time": 28.099999999999998,
                "pitch": 35,
                "velocity": 127,
                "duration": 0.23409090909090935,
                "tempo": 120.0
            },
            {
                "start_time": 28.099999999999998,
                "end_time": 28.334090909090907,
                "pitch": 35,
                "velocity": 127,
                "duration": 0.23409090909090935,
                "tempo": 120.0
            },
            {
                "start_time": 28.334090909090907,
                "end_time": 28.549999999999997,
                "pitch": 35,
                "velocity": 127,
                "duration": 0.21590909090908994,
                "tempo": 120.0
            },
            {
                "start_time": 28.549999999999997,
                "end_time": 29.002272727272725,
                "pitch": 38,
                "velocity": 127,
                "duration": 0.45227272727272805,
                "tempo": 120.0
            },
            {
                "start_time": 29.002272727272725,
                "end_time": 29.24090909090909,
                "pitch": 35,
                "velocity": 127,
                "duration": 0.2386363636363633,
                "tempo": 120.0
            },
            {
                "start_time": 29.24090909090909,
                "end_time": 29.46363636363636,
                "pitch": 35,
                "velocity": 127,
                "duration": 0.22272727272727266,
                "tempo": 120.0
            },
            {
                "start_time": 29.46363636363636,
                "end_time": 29.690909090909088,
                "pitch": 35,
                "velocity": 127,
                "duration": 0.22727272727272663,
                "tempo": 120.0
            },
            {
                "start_time": 29.690909090909088,
                "end_time": 29.904545454545453,
                "pitch": 35,
                "velocity": 127,
                "duration": 0.21363636363636473,
                "tempo": 120.0
            },
            {
                "start_time": 29.904545454545453,
                "end_time": 30.143181818181816,
                "pitch": 35,
                "velocity": 127,
                "duration": 0.2386363636363633,
                "tempo": 120.0
            },
            {
                "start_time": 30.143181818181816,
                "end_time": 30.36590909090909,
                "pitch": 35,
                "velocity": 127,
                "duration": 0.22272727272727266,
                "tempo": 120.0
            },
            {
                "start_time": 30.36590909090909,
                "end_time": 30.599999999999998,
                "pitch": 35,
                "velocity": 127,
                "duration": 0.23409090909090935,
                "tempo": 120.0
            },
            {
                "start_time": 30.599999999999998,
                "end_time": 30.815909090909088,
                "pitch": 35,
                "velocity": 127,
                "duration": 0.21590909090908994,
                "tempo": 120.0
            },
            {
                "start_time": 30.815909090909088,
                "end_time": 31.045454545454543,
                "pitch": 35,
                "velocity": 127,
                "duration": 0.22954545454545539,
                "tempo": 120.0
            },
            {
                "start_time": 31.045454545454543,
                "end_time": 31.259090909090908,
                "pitch": 35,
                "velocity": 127,
                "duration": 0.21363636363636473,
                "tempo": 120.0
            },
            {
                "start_time": 31.259090909090908,
                "end_time": 31.502272727272725,
                "pitch": 35,
                "velocity": 127,
                "duration": 0.24318181818181728,
                "tempo": 120.0
            },
            {
                "start_time": 31.502272727272725,
                "end_time": 31.74772727272727,
                "pitch": 35,
                "velocity": 127,
                "duration": 0.24545454545454604,
                "tempo": 120.0
            },
            {
                "start_time": 31.74772727272727,
                "end_time": 31.970454545454544,
                "pitch": 35,
                "velocity": 127,
                "duration": 0.22272727272727266,
                "tempo": 120.0
            },
            {
                "start_time": 31.970454545454544,
                "end_time": 32.20909090909091,
                "pitch": 35,
                "velocity": 127,
                "duration": 0.23863636363636687,
                "tempo": 120.0
            },
            {
                "start_time": 32.20909090909091,
                "end_time": 32.66136363636363,
                "pitch": 38,
                "velocity": 127,
                "duration": 0.45227272727272094,
                "tempo": 120.0
            },
            {
                "start_time": 32.66136363636363,
                "end_time": 32.87272727272727,
                "pitch": 35,
                "velocity": 127,
                "duration": 0.21136363636363598,
                "tempo": 120.0
            },
            {
                "start_time": 32.87272727272727,
                "end_time": 33.10227272727273,
                "pitch": 35,
                "velocity": 127,
                "duration": 0.22954545454545894,
                "tempo": 120.0
            },
            {
                "start_time": 33.10227272727273,
                "end_time": 33.31363636363636,
                "pitch": 35,
                "velocity": 127,
                "duration": 0.21136363636363598,
                "tempo": 120.0
            },
            {
                "start_time": 33.31363636363636,
                "end_time": 33.543181818181814,
                "pitch": 35,
                "velocity": 127,
                "duration": 0.22954545454545183,
                "tempo": 120.0
            },
            {
                "start_time": 33.543181818181814,
                "end_time": 33.76590909090909,
                "pitch": 35,
                "velocity": 127,
                "duration": 0.22272727272727622,
                "tempo": 120.0
            },
            {
                "start_time": 33.76590909090909,
                "end_time": 34.00454545454545,
                "pitch": 35,
                "velocity": 127,
                "duration": 0.23863636363635976,
                "tempo": 120.0
            },
            {
                "start_time": 34.00454545454545,
                "end_time": 34.215909090909086,
                "pitch": 35,
                "velocity": 127,
                "duration": 0.21136363636363598,
                "tempo": 120.0
            },
            {
                "start_time": 34.215909090909086,
                "end_time": 34.445454545454545,
                "pitch": 35,
                "velocity": 127,
                "duration": 0.22954545454545894,
                "tempo": 120.0
            },
            {
                "start_time": 34.445454545454545,
                "end_time": 34.663636363636364,
                "pitch": 35,
                "velocity": 127,
                "duration": 0.2181818181818187,
                "tempo": 120.0
            },
            {
                "start_time": 34.663636363636364,
                "end_time": 34.89772727272727,
                "pitch": 35,
                "velocity": 127,
                "duration": 0.23409090909090935,
                "tempo": 120.0
            },
            {
                "start_time": 34.89772727272727,
                "end_time": 35.13181818181818,
                "pitch": 35,
                "velocity": 127,
                "duration": 0.23409090909090935,
                "tempo": 120.0
            },
            {
                "start_time": 35.13181818181818,
                "end_time": 35.34772727272727,
                "pitch": 35,
                "velocity": 127,
                "duration": 0.2159090909090864,
                "tempo": 120.0
            },
            {
                "start_time": 35.34772727272727,
                "end_time": 35.58181818181818,
                "pitch": 35,
                "velocity": 127,
                "duration": 0.23409090909090935,
                "tempo": 120.0
            },
            {
                "start_time": 35.58181818181818,
                "end_time": 35.8,
                "pitch": 38,
                "velocity": 127,
                "duration": 0.2181818181818187,
                "tempo": 120.0
            },
            {
                "start_time": 35.8,
                "end_time": 36.038636363636364,
                "pitch": 38,
                "velocity": 127,
                "duration": 0.23863636363636687,
                "tempo": 120.0
            },
            {
                "start_time": 36.038636363636364,
                "end_time": 36.26136363636363,
                "pitch": 39,
                "velocity": 127,
                "duration": 0.2227272727272691,
                "tempo": 120.0
            },
            {
                "start_time": 36.26136363636363,
                "end_time": 36.49545454545454,
                "pitch": 40,
                "velocity": 127,
                "duration": 0.23409090909090935,
                "tempo": 120.0
            },
            {
                "start_time": 36.49545454545454,
                "end_time": 36.711363636363636,
                "pitch": 42,
                "velocity": 127,
                "duration": 0.2159090909090935,
                "tempo": 120.0
            },
            {
                "start_time": 36.711363636363636,
                "end_time": 36.95227272727273,
                "pitch": 42,
                "velocity": 127,
                "duration": 0.24090909090909207,
                "tempo": 120.0
            },
            {
                "start_time": 36.95227272727273,
                "end_time": 37.17272727272727,
                "pitch": 42,
                "velocity": 127,
                "duration": 0.2204545454545439,
                "tempo": 120.0
            },
            {
                "start_time": 37.17272727272727,
                "end_time": 37.402272727272724,
                "pitch": 42,
                "velocity": 127,
                "duration": 0.22954545454545183,
                "tempo": 120.0
            },
            {
                "start_time": 37.402272727272724,
                "end_time": 37.61590909090909,
                "pitch": 42,
                "velocity": 127,
                "duration": 0.2136363636363683,
                "tempo": 120.0
            },
            {
                "start_time": 37.61590909090909,
                "end_time": 37.85,
                "pitch": 42,
                "velocity": 127,
                "duration": 0.23409090909090935,
                "tempo": 120.0
            },
            {
                "start_time": 37.85,
                "end_time": 38.06590909090909,
                "pitch": 42,
                "velocity": 127,
                "duration": 0.2159090909090864,
                "tempo": 120.0
            },
            {
                "start_time": 38.06590909090909,
                "end_time": 38.3,
                "pitch": 42,
                "velocity": 127,
                "duration": 0.23409090909090935,
                "tempo": 120.0
            },
            {
                "start_time": 38.3,
                "end_time": 38.53409090909091,
                "pitch": 40,
                "velocity": 127,
                "duration": 0.23409090909090935,
                "tempo": 120.0
            },
            {
                "start_time": 38.53409090909091,
                "end_time": 38.76363636363636,
                "pitch": 40,
                "velocity": 127,
                "duration": 0.22954545454545183,
                "tempo": 120.0
            },
            {
                "start_time": 38.76363636363636,
                "end_time": 39.01363636363636,
                "pitch": 40,
                "velocity": 127,
                "duration": 0.25,
                "tempo": 120.0
            },
            {
                "start_time": 39.01363636363636,
                "end_time": 39.220454545454544,
                "pitch": 40,
                "velocity": 127,
                "duration": 0.20681818181818556,
                "tempo": 120.0
            },
            {
                "start_time": 39.220454545454544,
                "end_time": 39.445454545454545,
                "pitch": 32,
                "velocity": 127,
                "duration": 0.22500000000000142,
                "tempo": 120.0
            },
            {
                "start_time": 39.445454545454545,
                "end_time": 39.67045454545455,
                "pitch": 32,
                "velocity": 127,
                "duration": 0.22500000000000142,
                "tempo": 120.0
            },
            {
                "start_time": 39.67045454545455,
                "end_time": 39.91590909090909,
                "pitch": 33,
                "velocity": 127,
                "duration": 0.24545454545454248,
                "tempo": 120.0
            },
            {
                "start_time": 39.91590909090909,
                "end_time": 40.13409090909091,
                "pitch": 34,
                "velocity": 127,
                "duration": 0.2181818181818187,
                "tempo": 120.0
            },
            {
                "start_time": 40.13409090909091,
                "end_time": 40.36818181818182,
                "pitch": 35,
                "velocity": 127,
                "duration": 0.23409090909090935,
                "tempo": 120.0
            },
            {
                "start_time": 40.36818181818182,
                "end_time": 40.574999999999996,
                "pitch": 35,
                "velocity": 127,
                "duration": 0.20681818181817846,
                "tempo": 120.0
            },
            {
                "start_time": 40.574999999999996,
                "end_time": 40.8,
                "pitch": 35,
                "velocity": 127,
                "duration": 0.22500000000000142,
                "tempo": 120.0
            },
            {
                "start_time": 40.8,
                "end_time": 41.01590909090909,
                "pitch": 35,
                "velocity": 127,
                "duration": 0.2159090909090935,
                "tempo": 120.0
            },
            {
                "start_time": 41.01590909090909,
                "end_time": 41.25,
                "pitch": 35,
                "velocity": 127,
                "duration": 0.23409090909090935,
                "tempo": 120.0
            },
            {
                "start_time": 41.25,
                "end_time": 41.70227272727273,
                "pitch": 38,
                "velocity": 127,
                "duration": 0.45227272727272805,
                "tempo": 120.0
            },
            {
                "start_time": 41.70227272727273,
                "end_time": 41.93636363636364,
                "pitch": 35,
                "velocity": 127,
                "duration": 0.23409090909090935,
                "tempo": 120.0
            },
            {
                "start_time": 41.93636363636364,
                "end_time": 42.152272727272724,
                "pitch": 35,
                "velocity": 127,
                "duration": 0.2159090909090864,
                "tempo": 120.0
            },
            {
                "start_time": 42.152272727272724,
                "end_time": 42.38636363636363,
                "pitch": 35,
                "velocity": 127,
                "duration": 0.23409090909090935,
                "tempo": 120.0
            },
            {
                "start_time": 42.38636363636363,
                "end_time": 42.60454545454545,
                "pitch": 35,
                "velocity": 127,
                "duration": 0.2181818181818187,
                "tempo": 120.0
            },
            {
                "start_time": 42.60454545454545,
                "end_time": 42.83863636363636,
                "pitch": 35,
                "velocity": 127,
                "duration": 0.23409090909090935,
                "tempo": 120.0
            },
            {
                "start_time": 42.83863636363636,
                "end_time": 43.05681818181818,
                "pitch": 35,
                "velocity": 127,
                "duration": 0.2181818181818187,
                "tempo": 120.0
            },
            {
                "start_time": 43.05681818181818,
                "end_time": 43.525,
                "pitch": 38,
                "velocity": 127,
                "duration": 0.4681818181818187,
                "tempo": 120.0
            },
            {
                "start_time": 43.525,
                "end_time": 43.74545454545454,
                "pitch": 35,
                "velocity": 127,
                "duration": 0.2204545454545439,
                "tempo": 120.0
            },
            {
                "start_time": 43.74545454545454,
                "end_time": 43.96818181818182,
                "pitch": 35,
                "velocity": 127,
                "duration": 0.22272727272727622,
                "tempo": 120.0
            },
            {
                "start_time": 43.96818181818182,
                "end_time": 44.19772727272727,
                "pitch": 35,
                "velocity": 127,
                "duration": 0.22954545454545183,
                "tempo": 120.0
            },
            {
                "start_time": 44.19772727272727,
                "end_time": 44.40909090909091,
                "pitch": 35,
                "velocity": 127,
                "duration": 0.21136363636363598,
                "tempo": 120.0
            },
            {
                "start_time": 44.40909090909091,
                "end_time": 44.65454545454545,
                "pitch": 35,
                "velocity": 127,
                "duration": 0.24545454545454248,
                "tempo": 120.0
            },
            {
                "start_time": 44.65454545454545,
                "end_time": 44.88181818181818,
                "pitch": 35,
                "velocity": 127,
                "duration": 0.22727272727273373,
                "tempo": 120.0
            },
            {
                "start_time": 44.88181818181818,
                "end_time": 45.11590909090909,
                "pitch": 35,
                "velocity": 127,
                "duration": 0.23409090909090935,
                "tempo": 120.0
            },
            {
                "start_time": 45.11590909090909,
                "end_time": 45.349999999999994,
                "pitch": 35,
                "velocity": 127,
                "duration": 0.23409090909090224,
                "tempo": 120.0
            },
            {
                "start_time": 45.349999999999994,
                "end_time": 45.56818181818181,
                "pitch": 35,
                "velocity": 127,
                "duration": 0.2181818181818187,
                "tempo": 120.0
            },
            {
                "start_time": 45.56818181818181,
                "end_time": 45.8,
                "pitch": 35,
                "velocity": 127,
                "duration": 0.23181818181818414,
                "tempo": 120.0
            },
            {
                "start_time": 45.8,
                "end_time": 46.02272727272727,
                "pitch": 35,
                "velocity": 127,
                "duration": 0.22272727272727622,
                "tempo": 120.0
            },
            {
                "start_time": 46.02272727272727,
                "end_time": 46.26136363636363,
                "pitch": 35,
                "velocity": 127,
                "duration": 0.23863636363635976,
                "tempo": 120.0
            },
            {
                "start_time": 46.26136363636363,
                "end_time": 46.47954545454545,
                "pitch": 35,
                "velocity": 127,
                "duration": 0.2181818181818187,
                "tempo": 120.0
            },
            {
                "start_time": 46.47954545454545,
                "end_time": 46.71363636363636,
                "pitch": 35,
                "velocity": 127,
                "duration": 0.23409090909090935,
                "tempo": 120.0
            },
            {
                "start_time": 46.71363636363636,
                "end_time": 47.16590909090909,
                "pitch": 38,
                "velocity": 127,
                "duration": 0.45227272727272805,
                "tempo": 120.0
            },
            {
                "start_time": 47.16590909090909,
                "end_time": 47.377272727272725,
                "pitch": 35,
                "velocity": 127,
                "duration": 0.21136363636363598,
                "tempo": 120.0
            },
            {
                "start_time": 47.377272727272725,
                "end_time": 47.60681818181818,
                "pitch": 35,
                "velocity": 127,
                "duration": 0.22954545454545183,
                "tempo": 120.0
            },
            {
                "start_time": 47.60681818181818,
                "end_time": 47.82272727272727,
                "pitch": 35,
                "velocity": 127,
                "duration": 0.2159090909090935,
                "tempo": 120.0
            },
            {
                "start_time": 47.82272727272727,
                "end_time": 48.05681818181818,
                "pitch": 35,
                "velocity": 127,
                "duration": 0.23409090909090935,
                "tempo": 120.0
            },
            {
                "start_time": 48.05681818181818,
                "end_time": 48.275,
                "pitch": 35,
                "velocity": 127,
                "duration": 0.2181818181818187,
                "tempo": 120.0
            },
            {
                "start_time": 48.275,
                "end_time": 48.50909090909091,
                "pitch": 35,
                "velocity": 127,
                "duration": 0.23409090909090935,
                "tempo": 120.0
            },
            {
                "start_time": 48.50909090909091,
                "end_time": 48.74318181818182,
                "pitch": 35,
                "velocity": 127,
                "duration": 0.23409090909090935,
                "tempo": 120.0
            },
            {
                "start_time": 48.74318181818182,
                "end_time": 48.961363636363636,
                "pitch": 35,
                "velocity": 127,
                "duration": 0.2181818181818187,
                "tempo": 120.0
            },
            {
                "start_time": 48.961363636363636,
                "end_time": 49.19318181818181,
                "pitch": 35,
                "velocity": 127,
                "duration": 0.23181818181817704,
                "tempo": 120.0
            },
            {
                "start_time": 49.19318181818181,
                "end_time": 49.41136363636363,
                "pitch": 35,
                "velocity": 127,
                "duration": 0.2181818181818187,
                "tempo": 120.0
            },
            {
                "start_time": 49.41136363636363,
                "end_time": 49.64545454545454,
                "pitch": 35,
                "velocity": 127,
                "duration": 0.23409090909090935,
                "tempo": 120.0
            },
            {
                "start_time": 49.64545454545454,
                "end_time": 49.86363636363636,
                "pitch": 35,
                "velocity": 127,
                "duration": 0.2181818181818187,
                "tempo": 120.0
            },
            {
                "start_time": 49.86363636363636,
                "end_time": 50.09772727272727,
                "pitch": 35,
                "velocity": 127,
                "duration": 0.23409090909090935,
                "tempo": 120.0
            },
            {
                "start_time": 50.09772727272727,
                "end_time": 50.31363636363636,
                "pitch": 35,
                "velocity": 127,
                "duration": 0.2159090909090935,
                "tempo": 120.0
            },
            {
                "start_time": 50.31363636363636,
                "end_time": 50.78181818181818,
                "pitch": 38,
                "velocity": 127,
                "duration": 0.4681818181818187,
                "tempo": 120.0
            },
            {
                "start_time": 50.78181818181818,
                "end_time": 51.00454545454545,
                "pitch": 35,
                "velocity": 127,
                "duration": 0.2227272727272691,
                "tempo": 120.0
            },
            {
                "start_time": 51.00454545454545,
                "end_time": 51.22727272727273,
                "pitch": 35,
                "velocity": 127,
                "duration": 0.22272727272727622,
                "tempo": 120.0
            },
            {
                "start_time": 51.22727272727273,
                "end_time": 51.45454545454545,
                "pitch": 35,
                "velocity": 127,
                "duration": 0.22727272727272663,
                "tempo": 120.0
            },
            {
                "start_time": 51.45454545454545,
                "end_time": 51.668181818181814,
                "pitch": 35,
                "velocity": 127,
                "duration": 0.21363636363636118,
                "tempo": 120.0
            },
            {
                "start_time": 51.668181818181814,
                "end_time": 51.91136363636363,
                "pitch": 35,
                "velocity": 127,
                "duration": 0.24318181818181728,
                "tempo": 120.0
            },
            {
                "start_time": 51.91136363636363,
                "end_time": 52.15681818181818,
                "pitch": 35,
                "velocity": 127,
                "duration": 0.2454545454545496,
                "tempo": 120.0
            },
            {
                "start_time": 52.15681818181818,
                "end_time": 52.37954545454545,
                "pitch": 35,
                "velocity": 127,
                "duration": 0.2227272727272691,
                "tempo": 120.0
            },
            {
                "start_time": 52.37954545454545,
                "end_time": 52.61818181818182,
                "pitch": 35,
                "velocity": 127,
                "duration": 0.23863636363636687,
                "tempo": 120.0
            },
            {
                "start_time": 52.61818181818182,
                "end_time": 52.82727272727273,
                "pitch": 35,
                "velocity": 127,
                "duration": 0.20909090909091077,
                "tempo": 120.0
            },
            {
                "start_time": 52.82727272727273,
                "end_time": 53.05,
                "pitch": 35,
                "velocity": 127,
                "duration": 0.2227272727272691,
                "tempo": 120.0
            },
            {
                "start_time": 53.05,
                "end_time": 53.275,
                "pitch": 35,
                "velocity": 127,
                "duration": 0.22500000000000142,
                "tempo": 120.0
            },
            {
                "start_time": 53.275,
                "end_time": 53.52045454545454,
                "pitch": 35,
                "velocity": 127,
                "duration": 0.24545454545454248,
                "tempo": 120.0
            },
            {
                "start_time": 53.52045454545454,
                "end_time": 53.73863636363636,
                "pitch": 35,
                "velocity": 127,
                "duration": 0.2181818181818187,
                "tempo": 120.0
            },
            {
                "start_time": 53.73863636363636,
                "end_time": 53.97272727272727,
                "pitch": 35,
                "velocity": 127,
                "duration": 0.23409090909090935,
                "tempo": 120.0
            },
            {
                "start_time": 53.97272727272727,
                "end_time": 54.425,
                "pitch": 38,
                "velocity": 127,
                "duration": 0.45227272727272805,
                "tempo": 120.0
            },
            {
                "start_time": 54.425,
                "end_time": 54.63636363636363,
                "pitch": 35,
                "velocity": 127,
                "duration": 0.21136363636363598,
                "tempo": 120.0
            },
            {
                "start_time": 54.63636363636363,
                "end_time": 54.865909090909085,
                "pitch": 35,
                "velocity": 127,
                "duration": 0.22954545454545183,
                "tempo": 120.0
            },
            {
                "start_time": 54.865909090909085,
                "end_time": 55.07727272727273,
                "pitch": 35,
                "velocity": 127,
                "duration": 0.21136363636364308,
                "tempo": 120.0
            },
            {
                "start_time": 55.07727272727273,
                "end_time": 55.30681818181818,
                "pitch": 35,
                "velocity": 127,
                "duration": 0.22954545454545183,
                "tempo": 120.0
            },
            {
                "start_time": 55.30681818181818,
                "end_time": 55.54545454545454,
                "pitch": 35,
                "velocity": 127,
                "duration": 0.23863636363635976,
                "tempo": 120.0
            },
            {
                "start_time": 55.54545454545454,
                "end_time": 55.768181818181816,
                "pitch": 35,
                "velocity": 127,
                "duration": 0.22272727272727622,
                "tempo": 120.0
            },
            {
                "start_time": 55.768181818181816,
                "end_time": 55.99772727272727,
                "pitch": 35,
                "velocity": 127,
                "duration": 0.22954545454545183,
                "tempo": 120.0
            },
            {
                "start_time": 55.99772727272727,
                "end_time": 56.209090909090904,
                "pitch": 35,
                "velocity": 127,
                "duration": 0.21136363636363598,
                "tempo": 120.0
            },
            {
                "start_time": 56.209090909090904,
                "end_time": 56.44318181818181,
                "pitch": 35,
                "velocity": 127,
                "duration": 0.23409090909090935,
                "tempo": 120.0
            },
            {
                "start_time": 56.44318181818181,
                "end_time": 56.66136363636363,
                "pitch": 35,
                "velocity": 127,
                "duration": 0.2181818181818187,
                "tempo": 120.0
            },
            {
                "start_time": 56.66136363636363,
                "end_time": 56.89545454545454,
                "pitch": 35,
                "velocity": 127,
                "duration": 0.23409090909090935,
                "tempo": 120.0
            },
            {
                "start_time": 56.89545454545454,
                "end_time": 57.111363636363635,
                "pitch": 35,
                "velocity": 127,
                "duration": 0.2159090909090935,
                "tempo": 120.0
            },
            {
                "start_time": 57.111363636363635,
                "end_time": 57.345454545454544,
                "pitch": 35,
                "velocity": 127,
                "duration": 0.23409090909090935,
                "tempo": 120.0
            },
            {
                "start_time": 57.345454545454544,
                "end_time": 57.56363636363636,
                "pitch": 38,
                "velocity": 127,
                "duration": 0.2181818181818187,
                "tempo": 120.0
            },
            {
                "start_time": 57.56363636363636,
                "end_time": 57.80227272727272,
                "pitch": 38,
                "velocity": 127,
                "duration": 0.23863636363635976,
                "tempo": 120.0
            },
            {
                "start_time": 57.80227272727272,
                "end_time": 58.025,
                "pitch": 39,
                "velocity": 127,
                "duration": 0.22272727272727622,
                "tempo": 120.0
            },
            {
                "start_time": 58.025,
                "end_time": 58.25909090909091,
                "pitch": 40,
                "velocity": 127,
                "duration": 0.23409090909090935,
                "tempo": 120.0
            },
            {
                "start_time": 58.25909090909091,
                "end_time": 58.47727272727273,
                "pitch": 42,
                "velocity": 127,
                "duration": 0.2181818181818187,
                "tempo": 120.0
            },
            {
                "start_time": 58.47727272727273,
                "end_time": 58.715909090909086,
                "pitch": 42,
                "velocity": 127,
                "duration": 0.23863636363635976,
                "tempo": 120.0
            },
            {
                "start_time": 58.715909090909086,
                "end_time": 58.95454545454545,
                "pitch": 42,
                "velocity": 127,
                "duration": 0.23863636363636687,
                "tempo": 120.0
            },
            {
                "start_time": 58.95454545454545,
                "end_time": 59.17272727272727,
                "pitch": 42,
                "velocity": 127,
                "duration": 0.2181818181818187,
                "tempo": 120.0
            },
            {
                "start_time": 59.17272727272727,
                "end_time": 59.40681818181818,
                "pitch": 42,
                "velocity": 127,
                "duration": 0.23409090909090935,
                "tempo": 120.0
            },
            {
                "start_time": 59.40681818181818,
                "end_time": 59.62272727272727,
                "pitch": 42,
                "velocity": 127,
                "duration": 0.2159090909090864,
                "tempo": 120.0
            },
            {
                "start_time": 59.62272727272727,
                "end_time": 59.85681818181818,
                "pitch": 42,
                "velocity": 127,
                "duration": 0.23409090909090935,
                "tempo": 120.0
            },
            {
                "start_time": 59.85681818181818,
                "end_time": 60.07954545454545,
                "pitch": 42,
                "velocity": 127,
                "duration": 0.22272727272727622,
                "tempo": 120.0
            },
            {
                "start_time": 60.07954545454545,
                "end_time": 60.31818181818181,
                "pitch": 40,
                "velocity": 127,
                "duration": 0.23863636363635976,
                "tempo": 120.0
            },
            {
                "start_time": 60.31818181818181,
                "end_time": 60.54090909090909,
                "pitch": 40,
                "velocity": 127,
                "duration": 0.22272727272727622,
                "tempo": 120.0
            },
            {
                "start_time": 60.54090909090909,
                "end_time": 60.77954545454545,
                "pitch": 40,
                "velocity": 127,
                "duration": 0.23863636363635976,
                "tempo": 120.0
            },
            {
                "start_time": 60.77954545454545,
                "end_time": 60.98863636363636,
                "pitch": 40,
                "velocity": 127,
                "duration": 0.20909090909091077,
                "tempo": 120.0
            },
            {
                "start_time": 60.98863636363636,
                "end_time": 61.211363636363636,
                "pitch": 32,
                "velocity": 127,
                "duration": 0.22272727272727622,
                "tempo": 120.0
            },
            {
                "start_time": 61.211363636363636,
                "end_time": 61.43863636363636,
                "pitch": 32,
                "velocity": 127,
                "duration": 0.22727272727272663,
                "tempo": 120.0
            },
            {
                "start_time": 61.43863636363636,
                "end_time": 61.68181818181818,
                "pitch": 33,
                "velocity": 127,
                "duration": 0.24318181818181728,
                "tempo": 120.0
            },
            {
                "start_time": 61.68181818181818,
                "end_time": 61.9,
                "pitch": 34,
                "velocity": 127,
                "duration": 0.2181818181818187,
                "tempo": 120.0
            },
            {
                "start_time": 61.9,
                "end_time": 62.13409090909091,
                "pitch": 35,
                "velocity": 127,
                "duration": 0.23409090909090935,
                "tempo": 120.0
            },
            {
                "start_time": 62.13409090909091,
                "end_time": 62.35909090909091,
                "pitch": 35,
                "velocity": 127,
                "duration": 0.22500000000000142,
                "tempo": 120.0
            },
            {
                "start_time": 62.35909090909091,
                "end_time": 62.56590909090909,
                "pitch": 35,
                "velocity": 127,
                "duration": 0.20681818181817846,
                "tempo": 120.0
            },
            {
                "start_time": 62.56590909090909,
                "end_time": 62.8,
                "pitch": 35,
                "velocity": 127,
                "duration": 0.23409090909090935,
                "tempo": 120.0
            },
            {
                "start_time": 62.8,
                "end_time": 63.018181818181816,
                "pitch": 35,
                "velocity": 127,
                "duration": 0.2181818181818187,
                "tempo": 120.0
            },
            {
                "start_time": 63.018181818181816,
                "end_time": 63.46818181818181,
                "pitch": 38,
                "velocity": 127,
                "duration": 0.44999999999999574,
                "tempo": 120.0
            },
            {
                "start_time": 63.46818181818181,
                "end_time": 63.70227272727272,
                "pitch": 35,
                "velocity": 127,
                "duration": 0.23409090909090935,
                "tempo": 120.0
            },
            {
                "start_time": 63.70227272727272,
                "end_time": 63.92045454545454,
                "pitch": 35,
                "velocity": 127,
                "duration": 0.2181818181818187,
                "tempo": 120.0
            },
            {
                "start_time": 63.92045454545454,
                "end_time": 64.15454545454546,
                "pitch": 35,
                "velocity": 127,
                "duration": 0.23409090909091645,
                "tempo": 120.0
            },
            {
                "start_time": 64.15454545454546,
                "end_time": 64.37272727272727,
                "pitch": 35,
                "velocity": 127,
                "duration": 0.2181818181818187,
                "tempo": 120.0
            },
            {
                "start_time": 64.37272727272727,
                "end_time": 64.60454545454544,
                "pitch": 35,
                "velocity": 127,
                "duration": 0.23181818181816993,
                "tempo": 120.0
            },
            {
                "start_time": 64.60454545454544,
                "end_time": 64.82272727272726,
                "pitch": 35,
                "velocity": 127,
                "duration": 0.2181818181818187,
                "tempo": 120.0
            },
            {
                "start_time": 64.82272727272726,
                "end_time": 65.29090909090908,
                "pitch": 38,
                "velocity": 127,
                "duration": 0.4681818181818187,
                "tempo": 120.0
            },
            {
                "start_time": 65.29090909090908,
                "end_time": 65.325,
                "pitch": 35,
                "velocity": 127,
                "duration": 0.03409090909092072,
                "tempo": 120.0
            }
        ]
    }
}