{
    "track_id": "Power Strike, Aleste (FM) - 11 - Go Ahead",
    "mood": "angry",
    "instruments": {
        "Trumpet": [
            {
                "start_time": 0.015909090909090907,
                "end_time": 0.44999999999999996,
                "pitch": 60,
                "velocity": 101,
                "duration": 0.434090909090909,
                "tempo": 120.0
            },
            {
                "start_time": 0.44999999999999996,
                "end_time": 0.6522727272727272,
                "pitch": 59,
                "velocity": 101,
                "duration": 0.20227272727272727,
                "tempo": 120.0
            },
            {
                "start_time": 0.6522727272727272,
                "end_time": 2.1227272727272726,
                "pitch": 59,
                "velocity": 101,
                "duration": 1.4704545454545452,
                "tempo": 120.0
            },
            {
                "start_time": 2.1227272727272726,
                "end_time": 2.2545454545454544,
                "pitch": 55,
                "velocity": 101,
                "duration": 0.13181818181818183,
                "tempo": 120.0
            },
            {
                "start_time": 2.2545454545454544,
                "end_time": 2.3863636363636362,
                "pitch": 55,
                "velocity": 101,
                "duration": 0.13181818181818183,
                "tempo": 120.0
            },
            {
                "start_time": 2.3863636363636362,
                "end_time": 2.5159090909090907,
                "pitch": 55,
                "velocity": 101,
                "duration": 0.1295454545454544,
                "tempo": 120.0
            },
            {
                "start_time": 2.5159090909090907,
                "end_time": 2.55,
                "pitch": 55,
                "velocity": 101,
                "duration": 0.03409090909090917,
                "tempo": 120.0
            },
            {
                "start_time": 2.55,
                "end_time": 2.7136363636363634,
                "pitch": 55,
                "velocity": 101,
                "duration": 0.16363636363636358,
                "tempo": 120.0
            },
            {
                "start_time": 2.7136363636363634,
                "end_time": 2.9749999999999996,
                "pitch": 57,
                "velocity": 101,
                "duration": 0.26136363636363624,
                "tempo": 120.0
            },
            {
                "start_time": 2.9749999999999996,
                "end_time": 3.1068181818181815,
                "pitch": 57,
                "velocity": 101,
                "duration": 0.13181818181818183,
                "tempo": 120.0
            },
            {
                "start_time": 3.1068181818181815,
                "end_time": 3.402272727272727,
                "pitch": 59,
                "velocity": 101,
                "duration": 0.2954545454545454,
                "tempo": 120.0
            },
            {
                "start_time": 3.402272727272727,
                "end_time": 3.8068181818181817,
                "pitch": 59,
                "velocity": 101,
                "duration": 0.40454545454545476,
                "tempo": 120.0
            },
            {
                "start_time": 3.8068181818181817,
                "end_time": 4.040909090909091,
                "pitch": 59,
                "velocity": 101,
                "duration": 0.23409090909090935,
                "tempo": 120.0
            },
            {
                "start_time": 4.040909090909091,
                "end_time": 6.7340909090909085,
                "pitch": 59,
                "velocity": 101,
                "duration": 2.6931818181818175,
                "tempo": 120.0
            },
            {
                "start_time": 6.7340909090909085,
                "end_time": 7.306818181818182,
                "pitch": 62,
                "velocity": 101,
                "duration": 0.5727272727272732,
                "tempo": 120.0
            },
            {
                "start_time": 7.306818181818182,
                "end_time": 7.879545454545454,
                "pitch": 64,
                "velocity": 101,
                "duration": 0.5727272727272723,
                "tempo": 120.0
            },
            {
                "start_time": 7.879545454545454,
                "end_time": 8.452272727272726,
                "pitch": 62,
                "velocity": 101,
                "duration": 0.5727272727272723,
                "tempo": 120.0
            },
            {
                "start_time": 8.452272727272726,
                "end_time": 11.0,
                "pitch": 60,
                "velocity": 101,
                "duration": 2.5477272727272737,
                "tempo": 120.0
            },
            {
                "start_time": 11.0,
                "end_time": 11.479545454545454,
                "pitch": 60,
                "velocity": 101,
                "duration": 0.4795454545454536,
                "tempo": 120.0
            },
            {
                "start_time": 11.479545454545454,
                "end_time": 11.702272727272726,
                "pitch": 59,
                "velocity": 101,
                "duration": 0.22272727272727266,
                "tempo": 120.0
            },
            {
                "start_time": 11.702272727272726,
                "end_time": 13.638636363636364,
                "pitch": 59,
                "velocity": 101,
                "duration": 1.9363636363636374,
                "tempo": 120.0
            },
            {
                "start_time": 13.638636363636364,
                "end_time": 13.872727272727271,
                "pitch": 64,
                "velocity": 101,
                "duration": 0.23409090909090757,
                "tempo": 120.0
            },
            {
                "start_time": 13.872727272727271,
                "end_time": 14.070454545454545,
                "pitch": 62,
                "velocity": 101,
                "duration": 0.19772727272727408,
                "tempo": 120.0
            },
            {
                "start_time": 14.070454545454545,
                "end_time": 14.261363636363635,
                "pitch": 62,
                "velocity": 101,
                "duration": 0.19090909090908958,
                "tempo": 120.0
            },
            {
                "start_time": 14.261363636363635,
                "end_time": 14.56590909090909,
                "pitch": 64,
                "velocity": 101,
                "duration": 0.3045454545454547,
                "tempo": 120.0
            }
        ],
        "Electric Piano 1": [
            {
                "start_time": 14.56590909090909,
                "end_time": 14.604545454545454,
                "pitch": 47,
                "velocity": 10,
                "duration": 0.038636363636364024,
                "tempo": 120.0
            },
            {
                "start_time": 14.604545454545454,
                "end_time": 14.643181818181818,
                "pitch": 50,
                "velocity": 10,
                "duration": 0.038636363636364024,
                "tempo": 120.0
            },
            {
                "start_time": 14.643181818181818,
                "end_time": 14.720454545454544,
                "pitch": 52,
                "velocity": 10,
                "duration": 0.07727272727272627,
                "tempo": 120.0
            },
            {
                "start_time": 14.720454545454544,
                "end_time": 14.834090909090909,
                "pitch": 53,
                "velocity": 13,
                "duration": 0.11363636363636509,
                "tempo": 120.0
            },
            {
                "start_time": 14.834090909090909,
                "end_time": 14.872727272727271,
                "pitch": 55,
                "velocity": 13,
                "duration": 0.03863636363636225,
                "tempo": 120.0
            },
            {
                "start_time": 14.872727272727271,
                "end_time": 14.909090909090908,
                "pitch": 54,
                "velocity": 16,
                "duration": 0.03636363636363704,
                "tempo": 120.0
            },
            {
                "start_time": 14.909090909090908,
                "end_time": 15.024999999999999,
                "pitch": 55,
                "velocity": 16,
                "duration": 0.1159090909090903,
                "tempo": 120.0
            },
            {
                "start_time": 15.024999999999999,
                "end_time": 15.138636363636364,
                "pitch": 57,
                "velocity": 20,
                "duration": 0.11363636363636509,
                "tempo": 120.0
            },
            {
                "start_time": 15.138636363636364,
                "end_time": 15.177272727272726,
                "pitch": 59,
                "velocity": 20,
                "duration": 0.03863636363636225,
                "tempo": 120.0
            },
            {
                "start_time": 15.177272727272726,
                "end_time": 15.329545454545453,
                "pitch": 59,
                "velocity": 25,
                "duration": 0.15227272727272734,
                "tempo": 120.0
            },
            {
                "start_time": 15.329545454545453,
                "end_time": 15.443181818181817,
                "pitch": 61,
                "velocity": 32,
                "duration": 0.11363636363636331,
                "tempo": 120.0
            },
            {
                "start_time": 15.443181818181817,
                "end_time": 15.48181818181818,
                "pitch": 63,
                "velocity": 32,
                "duration": 0.038636363636364024,
                "tempo": 120.0
            },
            {
                "start_time": 15.48181818181818,
                "end_time": 15.634090909090908,
                "pitch": 63,
                "velocity": 40,
                "duration": 0.15227272727272734,
                "tempo": 120.0
            },
            {
                "start_time": 15.634090909090908,
                "end_time": 15.747727272727271,
                "pitch": 65,
                "velocity": 51,
                "duration": 0.11363636363636331,
                "tempo": 120.0
            },
            {
                "start_time": 15.747727272727271,
                "end_time": 15.786363636363635,
                "pitch": 67,
                "velocity": 51,
                "duration": 0.038636363636364024,
                "tempo": 120.0
            },
            {
                "start_time": 15.786363636363635,
                "end_time": 15.825,
                "pitch": 66,
                "velocity": 64,
                "duration": 0.038636363636364024,
                "tempo": 120.0
            },
            {
                "start_time": 15.825,
                "end_time": 15.938636363636363,
                "pitch": 67,
                "velocity": 64,
                "duration": 0.11363636363636331,
                "tempo": 120.0
            },
            {
                "start_time": 15.938636363636363,
                "end_time": 16.09090909090909,
                "pitch": 69,
                "velocity": 80,
                "duration": 0.15227272727272734,
                "tempo": 120.0
            },
            {
                "start_time": 16.09090909090909,
                "end_time": 16.206818181818182,
                "pitch": 71,
                "velocity": 101,
                "duration": 0.11590909090909207,
                "tempo": 120.0
            },
            {
                "start_time": 16.206818181818182,
                "end_time": 16.245454545454546,
                "pitch": 73,
                "velocity": 101,
                "duration": 0.038636363636364024,
                "tempo": 120.0
            },
            {
                "start_time": 16.245454545454546,
                "end_time": 16.354545454545455,
                "pitch": 73,
                "velocity": 127,
                "duration": 0.10909090909090935,
                "tempo": 120.0
            },
            {
                "start_time": 16.354545454545455,
                "end_time": 16.393181818181816,
                "pitch": 75,
                "velocity": 127,
                "duration": 0.03863636363636047,
                "tempo": 120.0
            },
            {
                "start_time": 16.393181818181816,
                "end_time": 16.54090909090909,
                "pitch": 75,
                "velocity": 127,
                "duration": 0.14772727272727337,
                "tempo": 120.0
            },
            {
                "start_time": 16.54090909090909,
                "end_time": 16.65,
                "pitch": 77,
                "velocity": 127,
                "duration": 0.10909090909090935,
                "tempo": 120.0
            },
            {
                "start_time": 16.65,
                "end_time": 16.688636363636363,
                "pitch": 79,
                "velocity": 127,
                "duration": 0.038636363636364024,
                "tempo": 120.0
            },
            {
                "start_time": 16.688636363636363,
                "end_time": 16.724999999999998,
                "pitch": 78,
                "velocity": 127,
                "duration": 0.036363636363635266,
                "tempo": 120.0
            },
            {
                "start_time": 16.724999999999998,
                "end_time": 16.836363636363636,
                "pitch": 79,
                "velocity": 127,
                "duration": 0.11136363636363811,
                "tempo": 120.0
            },
            {
                "start_time": 16.836363636363636,
                "end_time": 16.98181818181818,
                "pitch": 81,
                "velocity": 127,
                "duration": 0.14545454545454461,
                "tempo": 120.0
            },
            {
                "start_time": 16.98181818181818,
                "end_time": 17.09318181818182,
                "pitch": 83,
                "velocity": 127,
                "duration": 0.11136363636363811,
                "tempo": 120.0
            },
            {
                "start_time": 17.09318181818182,
                "end_time": 17.129545454545454,
                "pitch": 85,
                "velocity": 127,
                "duration": 0.036363636363635266,
                "tempo": 120.0
            },
            {
                "start_time": 17.129545454545454,
                "end_time": 17.24090909090909,
                "pitch": 85,
                "velocity": 127,
                "duration": 0.11136363636363455,
                "tempo": 120.0
            },
            {
                "start_time": 17.24090909090909,
                "end_time": 17.277272727272727,
                "pitch": 87,
                "velocity": 127,
                "duration": 0.03636363636363882,
                "tempo": 120.0
            },
            {
                "start_time": 17.277272727272727,
                "end_time": 17.425,
                "pitch": 87,
                "velocity": 127,
                "duration": 0.14772727272727337,
                "tempo": 120.0
            },
            {
                "start_time": 17.425,
                "end_time": 17.536363636363635,
                "pitch": 89,
                "velocity": 127,
                "duration": 0.11136363636363455,
                "tempo": 120.0
            },
            {
                "start_time": 17.536363636363635,
                "end_time": 17.57272727272727,
                "pitch": 91,
                "velocity": 127,
                "duration": 0.036363636363635266,
                "tempo": 120.0
            },
            {
                "start_time": 17.57272727272727,
                "end_time": 17.611363636363635,
                "pitch": 90,
                "velocity": 127,
                "duration": 0.038636363636364024,
                "tempo": 120.0
            },
            {
                "start_time": 17.611363636363635,
                "end_time": 17.720454545454544,
                "pitch": 91,
                "velocity": 127,
                "duration": 0.10909090909090935,
                "tempo": 120.0
            },
            {
                "start_time": 17.720454545454544,
                "end_time": 17.795454545454543,
                "pitch": 94,
                "velocity": 127,
                "duration": 0.07499999999999929,
                "tempo": 120.0
            },
            {
                "start_time": 17.795454545454543,
                "end_time": 17.831818181818182,
                "pitch": 90,
                "velocity": 101,
                "duration": 0.03636363636363882,
                "tempo": 120.0
            },
            {
                "start_time": 17.831818181818182,
                "end_time": 17.943181818181817,
                "pitch": 91,
                "velocity": 101,
                "duration": 0.11136363636363455,
                "tempo": 120.0
            },
            {
                "start_time": 17.943181818181817,
                "end_time": 18.01590909090909,
                "pitch": 94,
                "velocity": 101,
                "duration": 0.07272727272727408,
                "tempo": 120.0
            },
            {
                "start_time": 18.01590909090909,
                "end_time": 18.054545454545455,
                "pitch": 90,
                "velocity": 80,
                "duration": 0.038636363636364024,
                "tempo": 120.0
            },
            {
                "start_time": 18.054545454545455,
                "end_time": 18.163636363636364,
                "pitch": 91,
                "velocity": 80,
                "duration": 0.10909090909090935,
                "tempo": 120.0
            },
            {
                "start_time": 18.163636363636364,
                "end_time": 18.238636363636363,
                "pitch": 94,
                "velocity": 80,
                "duration": 0.07499999999999929,
                "tempo": 120.0
            },
            {
                "start_time": 18.238636363636363,
                "end_time": 18.275,
                "pitch": 90,
                "velocity": 64,
                "duration": 0.036363636363635266,
                "tempo": 120.0
            },
            {
                "start_time": 18.275,
                "end_time": 18.386363636363637,
                "pitch": 91,
                "velocity": 64,
                "duration": 0.11136363636363811,
                "tempo": 120.0
            },
            {
                "start_time": 18.386363636363637,
                "end_time": 18.459090909090907,
                "pitch": 94,
                "velocity": 64,
                "duration": 0.07272727272727053,
                "tempo": 120.0
            },
            {
                "start_time": 18.459090909090907,
                "end_time": 18.49772727272727,
                "pitch": 90,
                "velocity": 51,
                "duration": 0.038636363636364024,
                "tempo": 120.0
            },
            {
                "start_time": 18.49772727272727,
                "end_time": 18.611363636363635,
                "pitch": 91,
                "velocity": 51,
                "duration": 0.11363636363636331,
                "tempo": 120.0
            },
            {
                "start_time": 18.611363636363635,
                "end_time": 18.693181818181817,
                "pitch": 94,
                "velocity": 51,
                "duration": 0.08181818181818201,
                "tempo": 120.0
            },
            {
                "start_time": 18.693181818181817,
                "end_time": 18.73409090909091,
                "pitch": 90,
                "velocity": 40,
                "duration": 0.04090909090909278,
                "tempo": 120.0
            },
            {
                "start_time": 18.73409090909091,
                "end_time": 18.85681818181818,
                "pitch": 91,
                "velocity": 40,
                "duration": 0.12272727272727124,
                "tempo": 120.0
            },
            {
                "start_time": 18.85681818181818,
                "end_time": 18.938636363636363,
                "pitch": 94,
                "velocity": 40,
                "duration": 0.08181818181818201,
                "tempo": 120.0
            },
            {
                "start_time": 18.938636363636363,
                "end_time": 18.979545454545455,
                "pitch": 90,
                "velocity": 32,
                "duration": 0.04090909090909278,
                "tempo": 120.0
            },
            {
                "start_time": 18.979545454545455,
                "end_time": 19.099999999999998,
                "pitch": 91,
                "velocity": 32,
                "duration": 0.12045454545454248,
                "tempo": 120.0
            },
            {
                "start_time": 19.099999999999998,
                "end_time": 19.18181818181818,
                "pitch": 94,
                "velocity": 32,
                "duration": 0.08181818181818201,
                "tempo": 120.0
            },
            {
                "start_time": 19.18181818181818,
                "end_time": 19.222727272727273,
                "pitch": 90,
                "velocity": 25,
                "duration": 0.04090909090909278,
                "tempo": 120.0
            },
            {
                "start_time": 19.222727272727273,
                "end_time": 19.345454545454544,
                "pitch": 91,
                "velocity": 25,
                "duration": 0.12272727272727124,
                "tempo": 120.0
            },
            {
                "start_time": 19.345454545454544,
                "end_time": 19.427272727272726,
                "pitch": 94,
                "velocity": 25,
                "duration": 0.08181818181818201,
                "tempo": 120.0
            },
            {
                "start_time": 19.427272727272726,
                "end_time": 19.46818181818182,
                "pitch": 90,
                "velocity": 16,
                "duration": 0.04090909090909278,
                "tempo": 120.0
            },
            {
                "start_time": 19.46818181818182,
                "end_time": 19.59090909090909,
                "pitch": 91,
                "velocity": 16,
                "duration": 0.12272727272727124,
                "tempo": 120.0
            },
            {
                "start_time": 19.59090909090909,
                "end_time": 19.672727272727272,
                "pitch": 94,
                "velocity": 16,
                "duration": 0.08181818181818201,
                "tempo": 120.0
            },
            {
                "start_time": 19.672727272727272,
                "end_time": 19.71363636363636,
                "pitch": 90,
                "velocity": 13,
                "duration": 0.04090909090908923,
                "tempo": 120.0
            },
            {
                "start_time": 19.71363636363636,
                "end_time": 19.836363636363636,
                "pitch": 91,
                "velocity": 13,
                "duration": 0.1227272727272748,
                "tempo": 120.0
            },
            {
                "start_time": 19.836363636363636,
                "end_time": 19.918181818181818,
                "pitch": 94,
                "velocity": 13,
                "duration": 0.08181818181818201,
                "tempo": 120.0
            },
            {
                "start_time": 19.918181818181818,
                "end_time": 19.956818181818182,
                "pitch": 90,
                "velocity": 10,
                "duration": 0.038636363636364024,
                "tempo": 120.0
            },
            {
                "start_time": 19.956818181818182,
                "end_time": 20.079545454545453,
                "pitch": 91,
                "velocity": 10,
                "duration": 0.12272727272727124,
                "tempo": 120.0
            },
            {
                "start_time": 20.079545454545453,
                "end_time": 20.161363636363635,
                "pitch": 94,
                "velocity": 10,
                "duration": 0.08181818181818201,
                "tempo": 120.0
            },
            {
                "start_time": 20.161363636363635,
                "end_time": 20.202272727272728,
                "pitch": 90,
                "velocity": 8,
                "duration": 0.04090909090909278,
                "tempo": 120.0
            },
            {
                "start_time": 20.202272727272728,
                "end_time": 20.325,
                "pitch": 91,
                "velocity": 8,
                "duration": 0.12272727272727124,
                "tempo": 120.0
            },
            {
                "start_time": 20.325,
                "end_time": 20.40681818181818,
                "pitch": 94,
                "velocity": 8,
                "duration": 0.08181818181818201,
                "tempo": 120.0
            },
            {
                "start_time": 20.40681818181818,
                "end_time": 20.44772727272727,
                "pitch": 90,
                "velocity": 6,
                "duration": 0.04090909090908923,
                "tempo": 120.0
            },
            {
                "start_time": 20.44772727272727,
                "end_time": 20.570454545454545,
                "pitch": 91,
                "velocity": 6,
                "duration": 0.1227272727272748,
                "tempo": 120.0
            },
            {
                "start_time": 20.570454545454545,
                "end_time": 20.652272727272727,
                "pitch": 94,
                "velocity": 6,
                "duration": 0.08181818181818201,
                "tempo": 120.0
            },
            {
                "start_time": 20.652272727272727,
                "end_time": 20.693181818181817,
                "pitch": 90,
                "velocity": 5,
                "duration": 0.04090909090908923,
                "tempo": 120.0
            },
            {
                "start_time": 20.693181818181817,
                "end_time": 20.81590909090909,
                "pitch": 91,
                "velocity": 5,
                "duration": 0.1227272727272748,
                "tempo": 120.0
            },
            {
                "start_time": 20.81590909090909,
                "end_time": 20.895454545454545,
                "pitch": 94,
                "velocity": 5,
                "duration": 0.07954545454545325,
                "tempo": 120.0
            },
            {
                "start_time": 20.895454545454545,
                "end_time": 20.936363636363634,
                "pitch": 90,
                "velocity": 4,
                "duration": 0.04090909090908923,
                "tempo": 120.0
            },
            {
                "start_time": 20.936363636363634,
                "end_time": 21.05909090909091,
                "pitch": 91,
                "velocity": 4,
                "duration": 0.1227272727272748,
                "tempo": 120.0
            },
            {
                "start_time": 21.05909090909091,
                "end_time": 21.138636363636362,
                "pitch": 94,
                "velocity": 4,
                "duration": 0.07954545454545325,
                "tempo": 120.0
            }
        ]
    }
}