{
    "track_id": "Power Strike, Aleste (FM) - 09 - Bloody Jewel",
    "mood": "angry",
    "instruments": {
        "Vibraphone": [
            {
                "start_time": 0.3,
                "end_time": 0.3659090909090909,
                "pitch": 67,
                "velocity": 64,
                "duration": 0.06590909090909092,
                "tempo": 120.0
            },
            {
                "start_time": 0.3659090909090909,
                "end_time": 0.5,
                "pitch": 67,
                "velocity": 64,
                "duration": 0.1340909090909091,
                "tempo": 120.0
            },
            {
                "start_time": 0.5,
                "end_time": 0.5659090909090909,
                "pitch": 79,
                "velocity": 64,
                "duration": 0.06590909090909092,
                "tempo": 120.0
            },
            {
                "start_time": 0.5659090909090909,
                "end_time": 0.7,
                "pitch": 79,
                "velocity": 64,
                "duration": 0.13409090909090904,
                "tempo": 120.0
            },
            {
                "start_time": 0.7,
                "end_time": 0.8999999999999999,
                "pitch": 74,
                "velocity": 64,
                "duration": 0.19999999999999996,
                "tempo": 120.0
            },
            {
                "start_time": 0.8999999999999999,
                "end_time": 1.0999999999999999,
                "pitch": 70,
                "velocity": 64,
                "duration": 0.19999999999999996,
                "tempo": 120.0
            },
            {
                "start_time": 1.0999999999999999,
                "end_time": 1.1659090909090908,
                "pitch": 67,
                "velocity": 64,
                "duration": 0.06590909090909092,
                "tempo": 120.0
            },
            {
                "start_time": 1.1659090909090908,
                "end_time": 1.3,
                "pitch": 67,
                "velocity": 64,
                "duration": 0.13409090909090926,
                "tempo": 120.0
            },
            {
                "start_time": 1.3,
                "end_time": 1.5,
                "pitch": 62,
                "velocity": 64,
                "duration": 0.19999999999999996,
                "tempo": 120.0
            },
            {
                "start_time": 1.5,
                "end_time": 1.7,
                "pitch": 72,
                "velocity": 64,
                "duration": 0.19999999999999996,
                "tempo": 120.0
            },
            {
                "start_time": 1.7,
                "end_time": 1.9,
                "pitch": 69,
                "velocity": 64,
                "duration": 0.19999999999999996,
                "tempo": 120.0
            },
            {
                "start_time": 1.9,
                "end_time": 1.968181818181818,
                "pitch": 67,
                "velocity": 64,
                "duration": 0.06818181818181812,
                "tempo": 120.0
            },
            {
                "start_time": 1.968181818181818,
                "end_time": 2.102272727272727,
                "pitch": 67,
                "velocity": 64,
                "duration": 0.13409090909090904,
                "tempo": 120.0
            },
            {
                "start_time": 2.102272727272727,
                "end_time": 2.168181818181818,
                "pitch": 79,
                "velocity": 64,
                "duration": 0.06590909090909092,
                "tempo": 120.0
            },
            {
                "start_time": 2.168181818181818,
                "end_time": 2.3022727272727272,
                "pitch": 79,
                "velocity": 64,
                "duration": 0.13409090909090926,
                "tempo": 120.0
            },
            {
                "start_time": 2.3022727272727272,
                "end_time": 2.502272727272727,
                "pitch": 74,
                "velocity": 64,
                "duration": 0.19999999999999973,
                "tempo": 120.0
            },
            {
                "start_time": 2.502272727272727,
                "end_time": 2.7068181818181816,
                "pitch": 70,
                "velocity": 64,
                "duration": 0.20454545454545459,
                "tempo": 120.0
            },
            {
                "start_time": 2.7068181818181816,
                "end_time": 2.7772727272727273,
                "pitch": 67,
                "velocity": 64,
                "duration": 0.07045454545454577,
                "tempo": 120.0
            },
            {
                "start_time": 2.7772727272727273,
                "end_time": 2.918181818181818,
                "pitch": 67,
                "velocity": 64,
                "duration": 0.14090909090909065,
                "tempo": 120.0
            },
            {
                "start_time": 2.918181818181818,
                "end_time": 3.1227272727272726,
                "pitch": 62,
                "velocity": 64,
                "duration": 0.20454545454545459,
                "tempo": 120.0
            },
            {
                "start_time": 3.1227272727272726,
                "end_time": 3.318181818181818,
                "pitch": 69,
                "velocity": 64,
                "duration": 0.19545454545454533,
                "tempo": 120.0
            },
            {
                "start_time": 3.318181818181818,
                "end_time": 3.5159090909090907,
                "pitch": 72,
                "velocity": 64,
                "duration": 0.19772727272727275,
                "tempo": 120.0
            },
            {
                "start_time": 3.5159090909090907,
                "end_time": 3.5795454545454546,
                "pitch": 67,
                "velocity": 64,
                "duration": 0.06363636363636394,
                "tempo": 120.0
            },
            {
                "start_time": 3.5795454545454546,
                "end_time": 3.711363636363636,
                "pitch": 67,
                "velocity": 64,
                "duration": 0.1318181818181814,
                "tempo": 120.0
            },
            {
                "start_time": 3.711363636363636,
                "end_time": 3.777272727272727,
                "pitch": 79,
                "velocity": 64,
                "duration": 0.06590909090909092,
                "tempo": 120.0
            },
            {
                "start_time": 3.777272727272727,
                "end_time": 3.9090909090909087,
                "pitch": 79,
                "velocity": 64,
                "duration": 0.13181818181818183,
                "tempo": 120.0
            },
            {
                "start_time": 3.9090909090909087,
                "end_time": 4.1090909090909085,
                "pitch": 74,
                "velocity": 64,
                "duration": 0.19999999999999973,
                "tempo": 120.0
            },
            {
                "start_time": 4.1090909090909085,
                "end_time": 4.309090909090909,
                "pitch": 70,
                "velocity": 64,
                "duration": 0.20000000000000018,
                "tempo": 120.0
            },
            {
                "start_time": 4.309090909090909,
                "end_time": 4.377272727272727,
                "pitch": 67,
                "velocity": 64,
                "duration": 0.06818181818181834,
                "tempo": 120.0
            },
            {
                "start_time": 4.377272727272727,
                "end_time": 4.511363636363636,
                "pitch": 67,
                "velocity": 64,
                "duration": 0.13409090909090882,
                "tempo": 120.0
            },
            {
                "start_time": 4.511363636363636,
                "end_time": 4.711363636363636,
                "pitch": 62,
                "velocity": 64,
                "duration": 0.20000000000000018,
                "tempo": 120.0
            },
            {
                "start_time": 4.711363636363636,
                "end_time": 4.911363636363636,
                "pitch": 72,
                "velocity": 64,
                "duration": 0.20000000000000018,
                "tempo": 120.0
            },
            {
                "start_time": 4.911363636363636,
                "end_time": 5.113636363636363,
                "pitch": 69,
                "velocity": 64,
                "duration": 0.20227272727272716,
                "tempo": 120.0
            },
            {
                "start_time": 5.113636363636363,
                "end_time": 5.179545454545455,
                "pitch": 67,
                "velocity": 64,
                "duration": 0.06590909090909136,
                "tempo": 120.0
            },
            {
                "start_time": 5.179545454545455,
                "end_time": 5.3136363636363635,
                "pitch": 67,
                "velocity": 64,
                "duration": 0.13409090909090882,
                "tempo": 120.0
            },
            {
                "start_time": 5.3136363636363635,
                "end_time": 5.381818181818182,
                "pitch": 79,
                "velocity": 64,
                "duration": 0.06818181818181834,
                "tempo": 120.0
            },
            {
                "start_time": 5.381818181818182,
                "end_time": 5.513636363636364,
                "pitch": 79,
                "velocity": 64,
                "duration": 0.13181818181818183,
                "tempo": 120.0
            },
            {
                "start_time": 5.513636363636364,
                "end_time": 5.713636363636363,
                "pitch": 74,
                "velocity": 64,
                "duration": 0.1999999999999993,
                "tempo": 120.0
            },
            {
                "start_time": 5.713636363636363,
                "end_time": 5.915909090909091,
                "pitch": 70,
                "velocity": 64,
                "duration": 0.20227272727272805,
                "tempo": 120.0
            },
            {
                "start_time": 5.915909090909091,
                "end_time": 5.9818181818181815,
                "pitch": 67,
                "velocity": 64,
                "duration": 0.06590909090909047,
                "tempo": 120.0
            },
            {
                "start_time": 5.9818181818181815,
                "end_time": 6.11590909090909,
                "pitch": 67,
                "velocity": 64,
                "duration": 0.13409090909090882,
                "tempo": 120.0
            },
            {
                "start_time": 6.11590909090909,
                "end_time": 6.3181818181818175,
                "pitch": 62,
                "velocity": 64,
                "duration": 0.20227272727272716,
                "tempo": 120.0
            },
            {
                "start_time": 6.3181818181818175,
                "end_time": 6.518181818181818,
                "pitch": 69,
                "velocity": 64,
                "duration": 0.20000000000000018,
                "tempo": 120.0
            },
            {
                "start_time": 6.518181818181818,
                "end_time": 6.722727272727273,
                "pitch": 72,
                "velocity": 64,
                "duration": 0.20454545454545503,
                "tempo": 120.0
            },
            {
                "start_time": 6.722727272727273,
                "end_time": 6.927272727272727,
                "pitch": 62,
                "velocity": 64,
                "duration": 0.20454545454545414,
                "tempo": 120.0
            },
            {
                "start_time": 6.927272727272727,
                "end_time": 7.129545454545454,
                "pitch": 74,
                "velocity": 64,
                "duration": 0.20227272727272716,
                "tempo": 120.0
            },
            {
                "start_time": 7.129545454545454,
                "end_time": 7.324999999999999,
                "pitch": 69,
                "velocity": 64,
                "duration": 0.19545454545454533,
                "tempo": 120.0
            },
            {
                "start_time": 7.324999999999999,
                "end_time": 7.5249999999999995,
                "pitch": 65,
                "velocity": 64,
                "duration": 0.20000000000000018,
                "tempo": 120.0
            },
            {
                "start_time": 7.5249999999999995,
                "end_time": 7.7318181818181815,
                "pitch": 62,
                "velocity": 64,
                "duration": 0.206818181818182,
                "tempo": 120.0
            },
            {
                "start_time": 7.7318181818181815,
                "end_time": 7.931818181818182,
                "pitch": 57,
                "velocity": 64,
                "duration": 0.20000000000000018,
                "tempo": 120.0
            },
            {
                "start_time": 7.931818181818182,
                "end_time": 7.995454545454545,
                "pitch": 67,
                "velocity": 64,
                "duration": 0.06363636363636349,
                "tempo": 120.0
            },
            {
                "start_time": 7.995454545454545,
                "end_time": 8.127272727272727,
                "pitch": 67,
                "velocity": 64,
                "duration": 0.13181818181818183,
                "tempo": 120.0
            },
            {
                "start_time": 8.127272727272727,
                "end_time": 8.325,
                "pitch": 64,
                "velocity": 64,
                "duration": 0.1977272727272723,
                "tempo": 120.0
            },
            {
                "start_time": 8.325,
                "end_time": 8.525,
                "pitch": 62,
                "velocity": 64,
                "duration": 0.20000000000000107,
                "tempo": 120.0
            },
            {
                "start_time": 8.525,
                "end_time": 8.727272727272727,
                "pitch": 74,
                "velocity": 64,
                "duration": 0.20227272727272627,
                "tempo": 120.0
            },
            {
                "start_time": 8.727272727272727,
                "end_time": 8.927272727272728,
                "pitch": 69,
                "velocity": 64,
                "duration": 0.20000000000000107,
                "tempo": 120.0
            },
            {
                "start_time": 8.927272727272728,
                "end_time": 9.131818181818181,
                "pitch": 65,
                "velocity": 64,
                "duration": 0.20454545454545325,
                "tempo": 120.0
            },
            {
                "start_time": 9.131818181818181,
                "end_time": 9.336363636363636,
                "pitch": 62,
                "velocity": 64,
                "duration": 0.20454545454545503,
                "tempo": 120.0
            },
            {
                "start_time": 9.336363636363636,
                "end_time": 9.536363636363635,
                "pitch": 57,
                "velocity": 64,
                "duration": 0.1999999999999993,
                "tempo": 120.0
            },
            {
                "start_time": 9.536363636363635,
                "end_time": 9.73181818181818,
                "pitch": 64,
                "velocity": 64,
                "duration": 0.19545454545454533,
                "tempo": 120.0
            },
            {
                "start_time": 9.73181818181818,
                "end_time": 9.797727272727272,
                "pitch": 67,
                "velocity": 64,
                "duration": 0.06590909090909136,
                "tempo": 120.0
            },
            {
                "start_time": 9.797727272727272,
                "end_time": 9.934090909090909,
                "pitch": 67,
                "velocity": 64,
                "duration": 0.1363636363636367,
                "tempo": 120.0
            },
            {
                "start_time": 9.934090909090909,
                "end_time": 10.138636363636364,
                "pitch": 60,
                "velocity": 64,
                "duration": 0.20454545454545503,
                "tempo": 120.0
            },
            {
                "start_time": 10.138636363636364,
                "end_time": 10.34090909090909,
                "pitch": 72,
                "velocity": 64,
                "duration": 0.20227272727272627,
                "tempo": 120.0
            },
            {
                "start_time": 10.34090909090909,
                "end_time": 10.409090909090908,
                "pitch": 67,
                "velocity": 64,
                "duration": 0.06818181818181834,
                "tempo": 120.0
            },
            {
                "start_time": 10.409090909090908,
                "end_time": 10.540909090909091,
                "pitch": 67,
                "velocity": 64,
                "duration": 0.13181818181818272,
                "tempo": 120.0
            },
            {
                "start_time": 10.540909090909091,
                "end_time": 10.743181818181817,
                "pitch": 63,
                "velocity": 64,
                "duration": 0.20227272727272627,
                "tempo": 120.0
            },
            {
                "start_time": 10.743181818181817,
                "end_time": 10.943181818181818,
                "pitch": 60,
                "velocity": 64,
                "duration": 0.20000000000000107,
                "tempo": 120.0
            },
            {
                "start_time": 10.943181818181818,
                "end_time": 11.011363636363637,
                "pitch": 55,
                "velocity": 64,
                "duration": 0.06818181818181834,
                "tempo": 120.0
            },
            {
                "start_time": 11.011363636363637,
                "end_time": 11.077272727272726,
                "pitch": 55,
                "velocity": 64,
                "duration": 0.06590909090908958,
                "tempo": 120.0
            },
            {
                "start_time": 11.077272727272726,
                "end_time": 11.143181818181818,
                "pitch": 55,
                "velocity": 64,
                "duration": 0.06590909090909136,
                "tempo": 120.0
            },
            {
                "start_time": 11.143181818181818,
                "end_time": 11.338636363636363,
                "pitch": 67,
                "velocity": 64,
                "duration": 0.19545454545454533,
                "tempo": 120.0
            },
            {
                "start_time": 11.338636363636363,
                "end_time": 11.538636363636362,
                "pitch": 62,
                "velocity": 64,
                "duration": 0.1999999999999993,
                "tempo": 120.0
            },
            {
                "start_time": 11.538636363636362,
                "end_time": 11.745454545454544,
                "pitch": 60,
                "velocity": 64,
                "duration": 0.206818181818182,
                "tempo": 120.0
            },
            {
                "start_time": 11.745454545454544,
                "end_time": 11.947727272727272,
                "pitch": 72,
                "velocity": 64,
                "duration": 0.20227272727272805,
                "tempo": 120.0
            },
            {
                "start_time": 11.947727272727272,
                "end_time": 12.01590909090909,
                "pitch": 67,
                "velocity": 64,
                "duration": 0.06818181818181834,
                "tempo": 120.0
            },
            {
                "start_time": 12.01590909090909,
                "end_time": 12.149999999999999,
                "pitch": 67,
                "velocity": 64,
                "duration": 0.13409090909090793,
                "tempo": 120.0
            },
            {
                "start_time": 12.149999999999999,
                "end_time": 12.35,
                "pitch": 63,
                "velocity": 64,
                "duration": 0.20000000000000107,
                "tempo": 120.0
            },
            {
                "start_time": 12.35,
                "end_time": 12.549999999999999,
                "pitch": 60,
                "velocity": 64,
                "duration": 0.1999999999999993,
                "tempo": 120.0
            },
            {
                "start_time": 12.549999999999999,
                "end_time": 12.61590909090909,
                "pitch": 55,
                "velocity": 64,
                "duration": 0.06590909090909136,
                "tempo": 120.0
            },
            {
                "start_time": 12.61590909090909,
                "end_time": 12.681818181818182,
                "pitch": 55,
                "velocity": 64,
                "duration": 0.06590909090909136,
                "tempo": 120.0
            },
            {
                "start_time": 12.681818181818182,
                "end_time": 12.747727272727271,
                "pitch": 55,
                "velocity": 64,
                "duration": 0.06590909090908958,
                "tempo": 120.0
            },
            {
                "start_time": 12.747727272727271,
                "end_time": 12.943181818181818,
                "pitch": 62,
                "velocity": 64,
                "duration": 0.1954545454545471,
                "tempo": 120.0
            },
            {
                "start_time": 12.943181818181818,
                "end_time": 13.143181818181818,
                "pitch": 65,
                "velocity": 64,
                "duration": 0.1999999999999993,
                "tempo": 120.0
            },
            {
                "start_time": 13.143181818181818,
                "end_time": 13.209090909090909,
                "pitch": 67,
                "velocity": 64,
                "duration": 0.06590909090909136,
                "tempo": 120.0
            },
            {
                "start_time": 13.209090909090909,
                "end_time": 13.343181818181817,
                "pitch": 67,
                "velocity": 64,
                "duration": 0.13409090909090793,
                "tempo": 120.0
            },
            {
                "start_time": 13.343181818181817,
                "end_time": 13.411363636363635,
                "pitch": 79,
                "velocity": 64,
                "duration": 0.06818181818181834,
                "tempo": 120.0
            },
            {
                "start_time": 13.411363636363635,
                "end_time": 13.547727272727272,
                "pitch": 79,
                "velocity": 64,
                "duration": 0.1363636363636367,
                "tempo": 120.0
            },
            {
                "start_time": 13.547727272727272,
                "end_time": 13.752272727272727,
                "pitch": 74,
                "velocity": 64,
                "duration": 0.20454545454545503,
                "tempo": 120.0
            },
            {
                "start_time": 13.752272727272727,
                "end_time": 13.954545454545453,
                "pitch": 70,
                "velocity": 64,
                "duration": 0.20227272727272627,
                "tempo": 120.0
            },
            {
                "start_time": 13.954545454545453,
                "end_time": 14.018181818181818,
                "pitch": 67,
                "velocity": 64,
                "duration": 0.06363636363636438,
                "tempo": 120.0
            },
            {
                "start_time": 14.018181818181818,
                "end_time": 14.149999999999999,
                "pitch": 67,
                "velocity": 64,
                "duration": 0.13181818181818095,
                "tempo": 120.0
            },
            {
                "start_time": 14.149999999999999,
                "end_time": 14.347727272727273,
                "pitch": 62,
                "velocity": 64,
                "duration": 0.19772727272727408,
                "tempo": 120.0
            },
            {
                "start_time": 14.347727272727273,
                "end_time": 14.549999999999999,
                "pitch": 72,
                "velocity": 64,
                "duration": 0.20227272727272627,
                "tempo": 120.0
            },
            {
                "start_time": 14.549999999999999,
                "end_time": 14.752272727272727,
                "pitch": 69,
                "velocity": 64,
                "duration": 0.20227272727272805,
                "tempo": 120.0
            },
            {
                "start_time": 14.752272727272727,
                "end_time": 14.822727272727272,
                "pitch": 67,
                "velocity": 64,
                "duration": 0.07045454545454533,
                "tempo": 120.0
            },
            {
                "start_time": 14.822727272727272,
                "end_time": 14.959090909090909,
                "pitch": 67,
                "velocity": 64,
                "duration": 0.1363636363636367,
                "tempo": 120.0
            },
            {
                "start_time": 14.959090909090909,
                "end_time": 15.027272727272727,
                "pitch": 79,
                "velocity": 64,
                "duration": 0.06818181818181834,
                "tempo": 120.0
            },
            {
                "start_time": 15.027272727272727,
                "end_time": 15.161363636363635,
                "pitch": 79,
                "velocity": 64,
                "duration": 0.13409090909090793,
                "tempo": 120.0
            },
            {
                "start_time": 15.161363636363635,
                "end_time": 15.363636363636363,
                "pitch": 74,
                "velocity": 64,
                "duration": 0.20227272727272805,
                "tempo": 120.0
            },
            {
                "start_time": 15.363636363636363,
                "end_time": 15.56590909090909,
                "pitch": 70,
                "velocity": 64,
                "duration": 0.20227272727272627,
                "tempo": 120.0
            },
            {
                "start_time": 15.56590909090909,
                "end_time": 15.631818181818181,
                "pitch": 67,
                "velocity": 64,
                "duration": 0.06590909090909136,
                "tempo": 120.0
            },
            {
                "start_time": 15.631818181818181,
                "end_time": 15.76590909090909,
                "pitch": 67,
                "velocity": 64,
                "duration": 0.1340909090909097,
                "tempo": 120.0
            },
            {
                "start_time": 15.76590909090909,
                "end_time": 15.963636363636363,
                "pitch": 62,
                "velocity": 64,
                "duration": 0.1977272727272723,
                "tempo": 120.0
            },
            {
                "start_time": 15.963636363636363,
                "end_time": 16.045454545454543,
                "pitch": 69,
                "velocity": 64,
                "duration": 0.08181818181818024,
                "tempo": 120.0
            }
        ],
        "Synth Bass 1": [
            {
                "start_time": 3.2204545454545452,
                "end_time": 3.318181818181818,
                "pitch": 55,
                "velocity": 80,
                "duration": 0.09772727272727266,
                "tempo": 120.0
            },
            {
                "start_time": 3.318181818181818,
                "end_time": 3.4159090909090906,
                "pitch": 55,
                "velocity": 80,
                "duration": 0.09772727272727266,
                "tempo": 120.0
            },
            {
                "start_time": 3.4159090909090906,
                "end_time": 3.5159090909090907,
                "pitch": 55,
                "velocity": 80,
                "duration": 0.10000000000000009,
                "tempo": 120.0
            },
            {
                "start_time": 3.5159090909090907,
                "end_time": 3.6136363636363633,
                "pitch": 55,
                "velocity": 80,
                "duration": 0.09772727272727266,
                "tempo": 120.0
            },
            {
                "start_time": 3.6136363636363633,
                "end_time": 3.711363636363636,
                "pitch": 67,
                "velocity": 80,
                "duration": 0.09772727272727266,
                "tempo": 120.0
            },
            {
                "start_time": 3.711363636363636,
                "end_time": 3.809090909090909,
                "pitch": 55,
                "velocity": 80,
                "duration": 0.0977272727272731,
                "tempo": 120.0
            },
            {
                "start_time": 3.809090909090909,
                "end_time": 3.9090909090909087,
                "pitch": 62,
                "velocity": 80,
                "duration": 0.09999999999999964,
                "tempo": 120.0
            },
            {
                "start_time": 3.9090909090909087,
                "end_time": 4.009090909090909,
                "pitch": 55,
                "velocity": 80,
                "duration": 0.10000000000000009,
                "tempo": 120.0
            },
            {
                "start_time": 4.009090909090909,
                "end_time": 4.1090909090909085,
                "pitch": 65,
                "velocity": 80,
                "duration": 0.09999999999999964,
                "tempo": 120.0
            },
            {
                "start_time": 4.1090909090909085,
                "end_time": 4.209090909090909,
                "pitch": 55,
                "velocity": 80,
                "duration": 0.10000000000000053,
                "tempo": 120.0
            },
            {
                "start_time": 4.209090909090909,
                "end_time": 4.309090909090909,
                "pitch": 64,
                "velocity": 80,
                "duration": 0.09999999999999964,
                "tempo": 120.0
            },
            {
                "start_time": 4.309090909090909,
                "end_time": 4.411363636363636,
                "pitch": 55,
                "velocity": 80,
                "duration": 0.10227272727272751,
                "tempo": 120.0
            },
            {
                "start_time": 4.411363636363636,
                "end_time": 4.511363636363636,
                "pitch": 62,
                "velocity": 80,
                "duration": 0.09999999999999964,
                "tempo": 120.0
            },
            {
                "start_time": 4.511363636363636,
                "end_time": 4.611363636363636,
                "pitch": 55,
                "velocity": 80,
                "duration": 0.10000000000000053,
                "tempo": 120.0
            },
            {
                "start_time": 4.611363636363636,
                "end_time": 4.711363636363636,
                "pitch": 67,
                "velocity": 80,
                "duration": 0.09999999999999964,
                "tempo": 120.0
            },
            {
                "start_time": 4.711363636363636,
                "end_time": 4.8113636363636365,
                "pitch": 55,
                "velocity": 80,
                "duration": 0.10000000000000053,
                "tempo": 120.0
            },
            {
                "start_time": 4.8113636363636365,
                "end_time": 4.911363636363636,
                "pitch": 55,
                "velocity": 80,
                "duration": 0.09999999999999964,
                "tempo": 120.0
            },
            {
                "start_time": 4.911363636363636,
                "end_time": 5.011363636363636,
                "pitch": 55,
                "velocity": 80,
                "duration": 0.09999999999999964,
                "tempo": 120.0
            },
            {
                "start_time": 5.011363636363636,
                "end_time": 5.113636363636363,
                "pitch": 55,
                "velocity": 80,
                "duration": 0.10227272727272751,
                "tempo": 120.0
            },
            {
                "start_time": 5.113636363636363,
                "end_time": 5.213636363636363,
                "pitch": 55,
                "velocity": 80,
                "duration": 0.09999999999999964,
                "tempo": 120.0
            },
            {
                "start_time": 5.213636363636363,
                "end_time": 5.3136363636363635,
                "pitch": 67,
                "velocity": 80,
                "duration": 0.10000000000000053,
                "tempo": 120.0
            },
            {
                "start_time": 5.3136363636363635,
                "end_time": 5.413636363636363,
                "pitch": 55,
                "velocity": 80,
                "duration": 0.09999999999999964,
                "tempo": 120.0
            },
            {
                "start_time": 5.413636363636363,
                "end_time": 5.513636363636364,
                "pitch": 62,
                "velocity": 80,
                "duration": 0.10000000000000053,
                "tempo": 120.0
            },
            {
                "start_time": 5.513636363636364,
                "end_time": 5.613636363636363,
                "pitch": 55,
                "velocity": 80,
                "duration": 0.09999999999999964,
                "tempo": 120.0
            },
            {
                "start_time": 5.613636363636363,
                "end_time": 5.713636363636363,
                "pitch": 65,
                "velocity": 80,
                "duration": 0.09999999999999964,
                "tempo": 120.0
            },
            {
                "start_time": 5.713636363636363,
                "end_time": 5.8136363636363635,
                "pitch": 55,
                "velocity": 80,
                "duration": 0.10000000000000053,
                "tempo": 120.0
            },
            {
                "start_time": 5.8136363636363635,
                "end_time": 5.915909090909091,
                "pitch": 64,
                "velocity": 80,
                "duration": 0.10227272727272751,
                "tempo": 120.0
            },
            {
                "start_time": 5.915909090909091,
                "end_time": 6.015909090909091,
                "pitch": 55,
                "velocity": 80,
                "duration": 0.09999999999999964,
                "tempo": 120.0
            },
            {
                "start_time": 6.015909090909091,
                "end_time": 6.11590909090909,
                "pitch": 62,
                "velocity": 80,
                "duration": 0.09999999999999964,
                "tempo": 120.0
            },
            {
                "start_time": 6.11590909090909,
                "end_time": 6.218181818181818,
                "pitch": 55,
                "velocity": 80,
                "duration": 0.10227272727272751,
                "tempo": 120.0
            },
            {
                "start_time": 6.218181818181818,
                "end_time": 6.3181818181818175,
                "pitch": 67,
                "velocity": 80,
                "duration": 0.09999999999999964,
                "tempo": 120.0
            },
            {
                "start_time": 6.3181818181818175,
                "end_time": 6.418181818181818,
                "pitch": 55,
                "velocity": 80,
                "duration": 0.10000000000000053,
                "tempo": 120.0
            },
            {
                "start_time": 6.418181818181818,
                "end_time": 6.518181818181818,
                "pitch": 50,
                "velocity": 80,
                "duration": 0.09999999999999964,
                "tempo": 120.0
            },
            {
                "start_time": 6.518181818181818,
                "end_time": 6.620454545454545,
                "pitch": 50,
                "velocity": 80,
                "duration": 0.10227272727272751,
                "tempo": 120.0
            },
            {
                "start_time": 6.620454545454545,
                "end_time": 6.722727272727273,
                "pitch": 50,
                "velocity": 80,
                "duration": 0.10227272727272751,
                "tempo": 120.0
            },
            {
                "start_time": 6.722727272727273,
                "end_time": 6.824999999999999,
                "pitch": 50,
                "velocity": 80,
                "duration": 0.10227272727272663,
                "tempo": 120.0
            },
            {
                "start_time": 6.824999999999999,
                "end_time": 6.927272727272727,
                "pitch": 62,
                "velocity": 80,
                "duration": 0.10227272727272751,
                "tempo": 120.0
            },
            {
                "start_time": 6.927272727272727,
                "end_time": 7.029545454545454,
                "pitch": 50,
                "velocity": 80,
                "duration": 0.10227272727272751,
                "tempo": 120.0
            },
            {
                "start_time": 7.029545454545454,
                "end_time": 7.129545454545454,
                "pitch": 57,
                "velocity": 80,
                "duration": 0.09999999999999964,
                "tempo": 120.0
            },
            {
                "start_time": 7.129545454545454,
                "end_time": 7.227272727272727,
                "pitch": 50,
                "velocity": 80,
                "duration": 0.09772727272727266,
                "tempo": 120.0
            },
            {
                "start_time": 7.227272727272727,
                "end_time": 7.324999999999999,
                "pitch": 60,
                "velocity": 80,
                "duration": 0.09772727272727266,
                "tempo": 120.0
            },
            {
                "start_time": 7.324999999999999,
                "end_time": 7.422727272727272,
                "pitch": 50,
                "velocity": 80,
                "duration": 0.09772727272727266,
                "tempo": 120.0
            },
            {
                "start_time": 7.422727272727272,
                "end_time": 7.5249999999999995,
                "pitch": 59,
                "velocity": 80,
                "duration": 0.10227272727272751,
                "tempo": 120.0
            },
            {
                "start_time": 7.5249999999999995,
                "end_time": 7.627272727272727,
                "pitch": 50,
                "velocity": 80,
                "duration": 0.10227272727272751,
                "tempo": 120.0
            },
            {
                "start_time": 7.627272727272727,
                "end_time": 7.7318181818181815,
                "pitch": 57,
                "velocity": 80,
                "duration": 0.1045454545454545,
                "tempo": 120.0
            },
            {
                "start_time": 7.7318181818181815,
                "end_time": 7.834090909090909,
                "pitch": 50,
                "velocity": 80,
                "duration": 0.10227272727272751,
                "tempo": 120.0
            },
            {
                "start_time": 7.834090909090909,
                "end_time": 7.931818181818182,
                "pitch": 62,
                "velocity": 80,
                "duration": 0.09772727272727266,
                "tempo": 120.0
            },
            {
                "start_time": 7.931818181818182,
                "end_time": 8.029545454545454,
                "pitch": 50,
                "velocity": 80,
                "duration": 0.09772727272727266,
                "tempo": 120.0
            },
            {
                "start_time": 8.029545454545454,
                "end_time": 8.127272727272727,
                "pitch": 50,
                "velocity": 80,
                "duration": 0.09772727272727266,
                "tempo": 120.0
            },
            {
                "start_time": 8.127272727272727,
                "end_time": 8.225,
                "pitch": 50,
                "velocity": 80,
                "duration": 0.09772727272727266,
                "tempo": 120.0
            },
            {
                "start_time": 8.225,
                "end_time": 8.325,
                "pitch": 50,
                "velocity": 80,
                "duration": 0.09999999999999964,
                "tempo": 120.0
            },
            {
                "start_time": 8.325,
                "end_time": 8.424999999999999,
                "pitch": 50,
                "velocity": 80,
                "duration": 0.09999999999999964,
                "tempo": 120.0
            },
            {
                "start_time": 8.424999999999999,
                "end_time": 8.525,
                "pitch": 62,
                "velocity": 80,
                "duration": 0.10000000000000142,
                "tempo": 120.0
            },
            {
                "start_time": 8.525,
                "end_time": 8.625,
                "pitch": 50,
                "velocity": 80,
                "duration": 0.09999999999999964,
                "tempo": 120.0
            },
            {
                "start_time": 8.625,
                "end_time": 8.727272727272727,
                "pitch": 57,
                "velocity": 80,
                "duration": 0.10227272727272663,
                "tempo": 120.0
            },
            {
                "start_time": 8.727272727272727,
                "end_time": 8.827272727272726,
                "pitch": 50,
                "velocity": 80,
                "duration": 0.09999999999999964,
                "tempo": 120.0
            },
            {
                "start_time": 8.827272727272726,
                "end_time": 8.927272727272728,
                "pitch": 60,
                "velocity": 80,
                "duration": 0.10000000000000142,
                "tempo": 120.0
            },
            {
                "start_time": 8.927272727272728,
                "end_time": 9.027272727272727,
                "pitch": 50,
                "velocity": 80,
                "duration": 0.09999999999999964,
                "tempo": 120.0
            },
            {
                "start_time": 9.027272727272727,
                "end_time": 9.131818181818181,
                "pitch": 59,
                "velocity": 80,
                "duration": 0.10454545454545361,
                "tempo": 120.0
            },
            {
                "start_time": 9.131818181818181,
                "end_time": 9.23409090909091,
                "pitch": 50,
                "velocity": 80,
                "duration": 0.1022727272727284,
                "tempo": 120.0
            },
            {
                "start_time": 9.23409090909091,
                "end_time": 9.336363636363636,
                "pitch": 57,
                "velocity": 80,
                "duration": 0.10227272727272663,
                "tempo": 120.0
            },
            {
                "start_time": 9.336363636363636,
                "end_time": 9.438636363636363,
                "pitch": 50,
                "velocity": 80,
                "duration": 0.10227272727272663,
                "tempo": 120.0
            },
            {
                "start_time": 9.438636363636363,
                "end_time": 9.536363636363635,
                "pitch": 62,
                "velocity": 80,
                "duration": 0.09772727272727266,
                "tempo": 120.0
            },
            {
                "start_time": 9.536363636363635,
                "end_time": 9.634090909090908,
                "pitch": 50,
                "velocity": 80,
                "duration": 0.09772727272727266,
                "tempo": 120.0
            },
            {
                "start_time": 9.634090909090908,
                "end_time": 9.73181818181818,
                "pitch": 48,
                "velocity": 80,
                "duration": 0.09772727272727266,
                "tempo": 120.0
            },
            {
                "start_time": 9.73181818181818,
                "end_time": 9.831818181818182,
                "pitch": 48,
                "velocity": 80,
                "duration": 0.10000000000000142,
                "tempo": 120.0
            },
            {
                "start_time": 9.831818181818182,
                "end_time": 9.934090909090909,
                "pitch": 48,
                "velocity": 80,
                "duration": 0.10227272727272663,
                "tempo": 120.0
            },
            {
                "start_time": 9.934090909090909,
                "end_time": 10.036363636363635,
                "pitch": 48,
                "velocity": 80,
                "duration": 0.10227272727272663,
                "tempo": 120.0
            },
            {
                "start_time": 10.036363636363635,
                "end_time": 10.138636363636364,
                "pitch": 60,
                "velocity": 80,
                "duration": 0.1022727272727284,
                "tempo": 120.0
            },
            {
                "start_time": 10.138636363636364,
                "end_time": 10.24090909090909,
                "pitch": 48,
                "velocity": 80,
                "duration": 0.10227272727272663,
                "tempo": 120.0
            },
            {
                "start_time": 10.24090909090909,
                "end_time": 10.34090909090909,
                "pitch": 55,
                "velocity": 80,
                "duration": 0.09999999999999964,
                "tempo": 120.0
            },
            {
                "start_time": 10.34090909090909,
                "end_time": 10.44090909090909,
                "pitch": 48,
                "velocity": 80,
                "duration": 0.09999999999999964,
                "tempo": 120.0
            },
            {
                "start_time": 10.44090909090909,
                "end_time": 10.540909090909091,
                "pitch": 58,
                "velocity": 80,
                "duration": 0.10000000000000142,
                "tempo": 120.0
            },
            {
                "start_time": 10.540909090909091,
                "end_time": 10.64090909090909,
                "pitch": 46,
                "velocity": 80,
                "duration": 0.09999999999999964,
                "tempo": 120.0
            },
            {
                "start_time": 10.64090909090909,
                "end_time": 10.743181818181817,
                "pitch": 57,
                "velocity": 80,
                "duration": 0.10227272727272663,
                "tempo": 120.0
            },
            {
                "start_time": 10.743181818181817,
                "end_time": 10.843181818181817,
                "pitch": 48,
                "velocity": 80,
                "duration": 0.09999999999999964,
                "tempo": 120.0
            },
            {
                "start_time": 10.843181818181817,
                "end_time": 10.943181818181818,
                "pitch": 55,
                "velocity": 80,
                "duration": 0.10000000000000142,
                "tempo": 120.0
            },
            {
                "start_time": 10.943181818181818,
                "end_time": 11.043181818181818,
                "pitch": 48,
                "velocity": 80,
                "duration": 0.09999999999999964,
                "tempo": 120.0
            },
            {
                "start_time": 11.043181818181818,
                "end_time": 11.143181818181818,
                "pitch": 60,
                "velocity": 80,
                "duration": 0.09999999999999964,
                "tempo": 120.0
            },
            {
                "start_time": 11.143181818181818,
                "end_time": 11.24090909090909,
                "pitch": 48,
                "velocity": 80,
                "duration": 0.09772727272727266,
                "tempo": 120.0
            },
            {
                "start_time": 11.24090909090909,
                "end_time": 11.338636363636363,
                "pitch": 48,
                "velocity": 80,
                "duration": 0.09772727272727266,
                "tempo": 120.0
            },
            {
                "start_time": 11.338636363636363,
                "end_time": 11.436363636363636,
                "pitch": 48,
                "velocity": 80,
                "duration": 0.09772727272727266,
                "tempo": 120.0
            },
            {
                "start_time": 11.436363636363636,
                "end_time": 11.538636363636362,
                "pitch": 48,
                "velocity": 80,
                "duration": 0.10227272727272663,
                "tempo": 120.0
            },
            {
                "start_time": 11.538636363636362,
                "end_time": 11.64090909090909,
                "pitch": 48,
                "velocity": 80,
                "duration": 0.1022727272727284,
                "tempo": 120.0
            },
            {
                "start_time": 11.64090909090909,
                "end_time": 11.745454545454544,
                "pitch": 60,
                "velocity": 80,
                "duration": 0.10454545454545361,
                "tempo": 120.0
            },
            {
                "start_time": 11.745454545454544,
                "end_time": 11.847727272727273,
                "pitch": 48,
                "velocity": 80,
                "duration": 0.1022727272727284,
                "tempo": 120.0
            },
            {
                "start_time": 11.847727272727273,
                "end_time": 11.947727272727272,
                "pitch": 55,
                "velocity": 80,
                "duration": 0.09999999999999964,
                "tempo": 120.0
            },
            {
                "start_time": 11.947727272727272,
                "end_time": 12.047727272727272,
                "pitch": 48,
                "velocity": 80,
                "duration": 0.09999999999999964,
                "tempo": 120.0
            },
            {
                "start_time": 12.047727272727272,
                "end_time": 12.149999999999999,
                "pitch": 58,
                "velocity": 80,
                "duration": 0.10227272727272663,
                "tempo": 120.0
            },
            {
                "start_time": 12.149999999999999,
                "end_time": 12.25,
                "pitch": 46,
                "velocity": 80,
                "duration": 0.10000000000000142,
                "tempo": 120.0
            },
            {
                "start_time": 12.25,
                "end_time": 12.35,
                "pitch": 57,
                "velocity": 80,
                "duration": 0.09999999999999964,
                "tempo": 120.0
            },
            {
                "start_time": 12.35,
                "end_time": 12.45,
                "pitch": 48,
                "velocity": 80,
                "duration": 0.09999999999999964,
                "tempo": 120.0
            },
            {
                "start_time": 12.45,
                "end_time": 12.549999999999999,
                "pitch": 55,
                "velocity": 80,
                "duration": 0.09999999999999964,
                "tempo": 120.0
            },
            {
                "start_time": 12.549999999999999,
                "end_time": 12.649999999999999,
                "pitch": 48,
                "velocity": 80,
                "duration": 0.09999999999999964,
                "tempo": 120.0
            },
            {
                "start_time": 12.649999999999999,
                "end_time": 12.747727272727271,
                "pitch": 60,
                "velocity": 80,
                "duration": 0.09772727272727266,
                "tempo": 120.0
            },
            {
                "start_time": 12.747727272727271,
                "end_time": 12.845454545454546,
                "pitch": 48,
                "velocity": 80,
                "duration": 0.09772727272727444,
                "tempo": 120.0
            },
            {
                "start_time": 12.845454545454546,
                "end_time": 12.943181818181818,
                "pitch": 55,
                "velocity": 80,
                "duration": 0.09772727272727266,
                "tempo": 120.0
            },
            {
                "start_time": 12.943181818181818,
                "end_time": 13.043181818181818,
                "pitch": 55,
                "velocity": 80,
                "duration": 0.09999999999999964,
                "tempo": 120.0
            },
            {
                "start_time": 13.043181818181818,
                "end_time": 13.143181818181818,
                "pitch": 55,
                "velocity": 80,
                "duration": 0.09999999999999964,
                "tempo": 120.0
            },
            {
                "start_time": 13.143181818181818,
                "end_time": 13.243181818181817,
                "pitch": 55,
                "velocity": 80,
                "duration": 0.09999999999999964,
                "tempo": 120.0
            },
            {
                "start_time": 13.243181818181817,
                "end_time": 13.343181818181817,
                "pitch": 67,
                "velocity": 80,
                "duration": 0.09999999999999964,
                "tempo": 120.0
            },
            {
                "start_time": 13.343181818181817,
                "end_time": 13.445454545454545,
                "pitch": 55,
                "velocity": 80,
                "duration": 0.1022727272727284,
                "tempo": 120.0
            },
            {
                "start_time": 13.445454545454545,
                "end_time": 13.547727272727272,
                "pitch": 62,
                "velocity": 80,
                "duration": 0.10227272727272663,
                "tempo": 120.0
            },
            {
                "start_time": 13.547727272727272,
                "end_time": 13.649999999999999,
                "pitch": 55,
                "velocity": 80,
                "duration": 0.10227272727272663,
                "tempo": 120.0
            },
            {
                "start_time": 13.649999999999999,
                "end_time": 13.752272727272727,
                "pitch": 65,
                "velocity": 80,
                "duration": 0.1022727272727284,
                "tempo": 120.0
            },
            {
                "start_time": 13.752272727272727,
                "end_time": 13.854545454545454,
                "pitch": 55,
                "velocity": 80,
                "duration": 0.10227272727272663,
                "tempo": 120.0
            },
            {
                "start_time": 13.854545454545454,
                "end_time": 13.954545454545453,
                "pitch": 64,
                "velocity": 80,
                "duration": 0.09999999999999964,
                "tempo": 120.0
            },
            {
                "start_time": 13.954545454545453,
                "end_time": 14.052272727272726,
                "pitch": 55,
                "velocity": 80,
                "duration": 0.09772727272727266,
                "tempo": 120.0
            },
            {
                "start_time": 14.052272727272726,
                "end_time": 14.149999999999999,
                "pitch": 62,
                "velocity": 80,
                "duration": 0.09772727272727266,
                "tempo": 120.0
            },
            {
                "start_time": 14.149999999999999,
                "end_time": 14.247727272727271,
                "pitch": 55,
                "velocity": 80,
                "duration": 0.09772727272727266,
                "tempo": 120.0
            },
            {
                "start_time": 14.247727272727271,
                "end_time": 14.347727272727273,
                "pitch": 67,
                "velocity": 80,
                "duration": 0.10000000000000142,
                "tempo": 120.0
            },
            {
                "start_time": 14.347727272727273,
                "end_time": 14.45,
                "pitch": 55,
                "velocity": 80,
                "duration": 0.10227272727272663,
                "tempo": 120.0
            },
            {
                "start_time": 14.45,
                "end_time": 14.549999999999999,
                "pitch": 55,
                "velocity": 80,
                "duration": 0.09999999999999964,
                "tempo": 120.0
            },
            {
                "start_time": 14.549999999999999,
                "end_time": 14.649999999999999,
                "pitch": 55,
                "velocity": 80,
                "duration": 0.09999999999999964,
                "tempo": 120.0
            },
            {
                "start_time": 14.649999999999999,
                "end_time": 14.752272727272727,
                "pitch": 55,
                "velocity": 80,
                "duration": 0.1022727272727284,
                "tempo": 120.0
            },
            {
                "start_time": 14.752272727272727,
                "end_time": 14.85681818181818,
                "pitch": 55,
                "velocity": 80,
                "duration": 0.10454545454545361,
                "tempo": 120.0
            },
            {
                "start_time": 14.85681818181818,
                "end_time": 14.959090909090909,
                "pitch": 67,
                "velocity": 80,
                "duration": 0.1022727272727284,
                "tempo": 120.0
            },
            {
                "start_time": 14.959090909090909,
                "end_time": 15.061363636363636,
                "pitch": 55,
                "velocity": 80,
                "duration": 0.10227272727272663,
                "tempo": 120.0
            },
            {
                "start_time": 15.061363636363636,
                "end_time": 15.161363636363635,
                "pitch": 62,
                "velocity": 80,
                "duration": 0.09999999999999964,
                "tempo": 120.0
            },
            {
                "start_time": 15.161363636363635,
                "end_time": 15.263636363636364,
                "pitch": 55,
                "velocity": 80,
                "duration": 0.1022727272727284,
                "tempo": 120.0
            },
            {
                "start_time": 15.263636363636364,
                "end_time": 15.363636363636363,
                "pitch": 65,
                "velocity": 80,
                "duration": 0.09999999999999964,
                "tempo": 120.0
            },
            {
                "start_time": 15.363636363636363,
                "end_time": 15.463636363636363,
                "pitch": 55,
                "velocity": 80,
                "duration": 0.09999999999999964,
                "tempo": 120.0
            },
            {
                "start_time": 15.463636363636363,
                "end_time": 15.56590909090909,
                "pitch": 64,
                "velocity": 80,
                "duration": 0.10227272727272663,
                "tempo": 120.0
            },
            {
                "start_time": 15.56590909090909,
                "end_time": 15.665909090909091,
                "pitch": 55,
                "velocity": 80,
                "duration": 0.10000000000000142,
                "tempo": 120.0
            },
            {
                "start_time": 15.665909090909091,
                "end_time": 15.76590909090909,
                "pitch": 62,
                "velocity": 80,
                "duration": 0.09999999999999964,
                "tempo": 120.0
            },
            {
                "start_time": 15.76590909090909,
                "end_time": 15.86590909090909,
                "pitch": 55,
                "velocity": 80,
                "duration": 0.09999999999999964,
                "tempo": 120.0
            },
            {
                "start_time": 15.86590909090909,
                "end_time": 15.963636363636363,
                "pitch": 67,
                "velocity": 80,
                "duration": 0.09772727272727266,
                "tempo": 120.0
            },
            {
                "start_time": 15.963636363636363,
                "end_time": 16.045454545454543,
                "pitch": 55,
                "velocity": 80,
                "duration": 0.08181818181818024,
                "tempo": 120.0
            }
        ]
    }
}