{
    "track_id": "Rambo III (FM) - 09 - Game Over",
    "mood": "angry",
    "instruments": {
        "Trumpet": [
            {
                "start_time": 0.0,
                "end_time": 0.013636363636363636,
                "pitch": 59,
                "velocity": 80,
                "duration": 0.013636363636363636,
                "tempo": 120.0
            },
            {
                "start_time": 0.02727272727272727,
                "end_time": 1.3499999999999999,
                "pitch": 60,
                "velocity": 80,
                "duration": 1.3227272727272725,
                "tempo": 120.0
            },
            {
                "start_time": 1.3659090909090907,
                "end_time": 1.4840909090909091,
                "pitch": 58,
                "velocity": 80,
                "duration": 0.11818181818181839,
                "tempo": 120.0
            },
            {
                "start_time": 1.5,
                "end_time": 1.734090909090909,
                "pitch": 60,
                "velocity": 80,
                "duration": 0.2340909090909089,
                "tempo": 120.0
            },
            {
                "start_time": 1.75,
                "end_time": 1.984090909090909,
                "pitch": 61,
                "velocity": 80,
                "duration": 0.2340909090909089,
                "tempo": 120.0
            },
            {
                "start_time": 2.0,
                "end_time": 3.0999999999999996,
                "pitch": 60,
                "velocity": 80,
                "duration": 1.0999999999999996,
                "tempo": 120.0
            },
            {
                "start_time": 3.1159090909090907,
                "end_time": 3.234090909090909,
                "pitch": 56,
                "velocity": 80,
                "duration": 0.11818181818181817,
                "tempo": 120.0
            },
            {
                "start_time": 3.25,
                "end_time": 3.3499999999999996,
                "pitch": 58,
                "velocity": 80,
                "duration": 0.09999999999999964,
                "tempo": 120.0
            },
            {
                "start_time": 3.3659090909090907,
                "end_time": 3.484090909090909,
                "pitch": 60,
                "velocity": 80,
                "duration": 0.11818181818181817,
                "tempo": 120.0
            },
            {
                "start_time": 3.5,
                "end_time": 3.5999999999999996,
                "pitch": 61,
                "velocity": 80,
                "duration": 0.09999999999999964,
                "tempo": 120.0
            },
            {
                "start_time": 3.6159090909090907,
                "end_time": 3.8499999999999996,
                "pitch": 60,
                "velocity": 80,
                "duration": 0.2340909090909089,
                "tempo": 120.0
            },
            {
                "start_time": 3.8659090909090907,
                "end_time": 3.984090909090909,
                "pitch": 61,
                "velocity": 80,
                "duration": 0.11818181818181817,
                "tempo": 120.0
            },
            {
                "start_time": 4.0,
                "end_time": 4.1,
                "pitch": 62,
                "velocity": 80,
                "duration": 0.09999999999999964,
                "tempo": 120.0
            },
            {
                "start_time": 4.11590909090909,
                "end_time": 4.35,
                "pitch": 63,
                "velocity": 80,
                "duration": 0.23409090909090935,
                "tempo": 120.0
            },
            {
                "start_time": 4.36590909090909,
                "end_time": 4.8545454545454545,
                "pitch": 61,
                "velocity": 80,
                "duration": 0.4886363636363642,
                "tempo": 120.0
            },
            {
                "start_time": 4.870454545454545,
                "end_time": 5.1045454545454545,
                "pitch": 60,
                "velocity": 80,
                "duration": 0.23409090909090935,
                "tempo": 120.0
            },
            {
                "start_time": 5.120454545454545,
                "end_time": 5.238636363636363,
                "pitch": 58,
                "velocity": 80,
                "duration": 0.11818181818181817,
                "tempo": 120.0
            },
            {
                "start_time": 5.254545454545454,
                "end_time": 5.488636363636363,
                "pitch": 56,
                "velocity": 80,
                "duration": 0.23409090909090935,
                "tempo": 120.0
            },
            {
                "start_time": 5.504545454545454,
                "end_time": 5.738636363636363,
                "pitch": 58,
                "velocity": 80,
                "duration": 0.23409090909090935,
                "tempo": 120.0
            },
            {
                "start_time": 5.754545454545454,
                "end_time": 5.8545454545454545,
                "pitch": 58,
                "velocity": 80,
                "duration": 0.10000000000000053,
                "tempo": 120.0
            },
            {
                "start_time": 5.870454545454545,
                "end_time": 5.904545454545454,
                "pitch": 59,
                "velocity": 80,
                "duration": 0.03409090909090917,
                "tempo": 120.0
            },
            {
                "start_time": 5.920454545454545,
                "end_time": 6.8545454545454545,
                "pitch": 60,
                "velocity": 80,
                "duration": 0.9340909090909095,
                "tempo": 120.0
            },
            {
                "start_time": 6.870454545454545,
                "end_time": 7.1045454545454545,
                "pitch": 60,
                "velocity": 80,
                "duration": 0.23409090909090935,
                "tempo": 120.0
            },
            {
                "start_time": 7.120454545454545,
                "end_time": 7.3545454545454545,
                "pitch": 63,
                "velocity": 80,
                "duration": 0.23409090909090935,
                "tempo": 120.0
            },
            {
                "start_time": 7.370454545454545,
                "end_time": 7.6045454545454545,
                "pitch": 65,
                "velocity": 80,
                "duration": 0.23409090909090935,
                "tempo": 120.0
            },
            {
                "start_time": 7.620454545454545,
                "end_time": 7.8545454545454545,
                "pitch": 63,
                "velocity": 80,
                "duration": 0.23409090909090935,
                "tempo": 120.0
            },
            {
                "start_time": 7.870454545454545,
                "end_time": 7.99090909090909,
                "pitch": 61,
                "velocity": 80,
                "duration": 0.12045454545454515,
                "tempo": 120.0
            },
            {
                "start_time": 8.006818181818181,
                "end_time": 8.025,
                "pitch": 62,
                "velocity": 80,
                "duration": 0.01818181818181941,
                "tempo": 120.0
            },
            {
                "start_time": 8.040909090909091,
                "end_time": 8.85909090909091,
                "pitch": 63,
                "velocity": 80,
                "duration": 0.8181818181818183,
                "tempo": 120.0
            },
            {
                "start_time": 8.875,
                "end_time": 9.243181818181817,
                "pitch": 61,
                "velocity": 80,
                "duration": 0.3681818181818173,
                "tempo": 120.0
            },
            {
                "start_time": 9.259090909090908,
                "end_time": 9.35909090909091,
                "pitch": 60,
                "velocity": 80,
                "duration": 0.10000000000000142,
                "tempo": 120.0
            },
            {
                "start_time": 9.375,
                "end_time": 9.60909090909091,
                "pitch": 60,
                "velocity": 80,
                "duration": 0.23409090909090935,
                "tempo": 120.0
            },
            {
                "start_time": 9.625,
                "end_time": 10.10909090909091,
                "pitch": 58,
                "velocity": 80,
                "duration": 0.48409090909090935,
                "tempo": 120.0
            },
            {
                "start_time": 10.125,
                "end_time": 10.35909090909091,
                "pitch": 56,
                "velocity": 80,
                "duration": 0.23409090909090935,
                "tempo": 120.0
            },
            {
                "start_time": 10.375,
                "end_time": 10.409090909090908,
                "pitch": 55,
                "velocity": 80,
                "duration": 0.034090909090908283,
                "tempo": 120.0
            },
            {
                "start_time": 10.424999999999999,
                "end_time": 11.10909090909091,
                "pitch": 56,
                "velocity": 80,
                "duration": 0.6840909090909104,
                "tempo": 120.0
            },
            {
                "start_time": 11.125,
                "end_time": 11.35909090909091,
                "pitch": 53,
                "velocity": 80,
                "duration": 0.23409090909090935,
                "tempo": 120.0
            },
            {
                "start_time": 11.375,
                "end_time": 11.493181818181817,
                "pitch": 56,
                "velocity": 80,
                "duration": 0.11818181818181728,
                "tempo": 120.0
            },
            {
                "start_time": 11.509090909090908,
                "end_time": 11.60909090909091,
                "pitch": 58,
                "velocity": 80,
                "duration": 0.10000000000000142,
                "tempo": 120.0
            },
            {
                "start_time": 11.625,
                "end_time": 11.85909090909091,
                "pitch": 58,
                "velocity": 80,
                "duration": 0.23409090909090935,
                "tempo": 120.0
            },
            {
                "start_time": 11.875,
                "end_time": 11.993181818181817,
                "pitch": 56,
                "velocity": 80,
                "duration": 0.11818181818181728,
                "tempo": 120.0
            },
            {
                "start_time": 12.009090909090908,
                "end_time": 12.024999999999999,
                "pitch": 57,
                "velocity": 80,
                "duration": 0.01590909090909065,
                "tempo": 120.0
            },
            {
                "start_time": 12.043181818181818,
                "end_time": 12.60909090909091,
                "pitch": 58,
                "velocity": 80,
                "duration": 0.5659090909090914,
                "tempo": 120.0
            },
            {
                "start_time": 12.625,
                "end_time": 12.659090909090908,
                "pitch": 57,
                "velocity": 80,
                "duration": 0.034090909090908283,
                "tempo": 120.0
            },
            {
                "start_time": 12.674999999999999,
                "end_time": 12.693181818181818,
                "pitch": 55,
                "velocity": 80,
                "duration": 0.01818181818181941,
                "tempo": 120.0
            },
            {
                "start_time": 12.709090909090909,
                "end_time": 13.109090909090908,
                "pitch": 56,
                "velocity": 80,
                "duration": 0.3999999999999986,
                "tempo": 120.0
            },
            {
                "start_time": 13.125,
                "end_time": 13.159090909090908,
                "pitch": 60,
                "velocity": 80,
                "duration": 0.034090909090908283,
                "tempo": 120.0
            },
            {
                "start_time": 13.174999999999999,
                "end_time": 13.243181818181817,
                "pitch": 61,
                "velocity": 80,
                "duration": 0.06818181818181834,
                "tempo": 120.0
            },
            {
                "start_time": 13.259090909090908,
                "end_time": 13.274999999999999,
                "pitch": 62,
                "velocity": 80,
                "duration": 0.01590909090909065,
                "tempo": 120.0
            },
            {
                "start_time": 13.293181818181818,
                "end_time": 13.859090909090908,
                "pitch": 63,
                "velocity": 80,
                "duration": 0.5659090909090896,
                "tempo": 120.0
            },
            {
                "start_time": 13.875,
                "end_time": 13.995454545454544,
                "pitch": 60,
                "velocity": 80,
                "duration": 0.12045454545454426,
                "tempo": 120.0
            },
            {
                "start_time": 14.011363636363635,
                "end_time": 14.113636363636363,
                "pitch": 61,
                "velocity": 80,
                "duration": 0.1022727272727284,
                "tempo": 120.0
            },
            {
                "start_time": 14.131818181818181,
                "end_time": 14.252272727272727,
                "pitch": 62,
                "velocity": 80,
                "duration": 0.12045454545454604,
                "tempo": 120.0
            },
            {
                "start_time": 14.268181818181818,
                "end_time": 14.502272727272727,
                "pitch": 63,
                "velocity": 80,
                "duration": 0.23409090909090935,
                "tempo": 120.0
            },
            {
                "start_time": 14.518181818181818,
                "end_time": 14.747727272727271,
                "pitch": 60,
                "velocity": 80,
                "duration": 0.2295454545454536,
                "tempo": 120.0
            },
            {
                "start_time": 14.76590909090909,
                "end_time": 14.995454545454544,
                "pitch": 56,
                "velocity": 80,
                "duration": 0.2295454545454536,
                "tempo": 120.0
            },
            {
                "start_time": 15.013636363636364,
                "end_time": 15.363636363636363,
                "pitch": 54,
                "velocity": 80,
                "duration": 0.34999999999999964,
                "tempo": 120.0
            },
            {
                "start_time": 15.379545454545454,
                "end_time": 15.745454545454544,
                "pitch": 53,
                "velocity": 80,
                "duration": 0.3659090909090903,
                "tempo": 120.0
            }
        ],
        "Acoustic Bass": [
            {
                "start_time": 0.0,
                "end_time": 0.27954545454545454,
                "pitch": 41,
                "velocity": 64,
                "duration": 0.27954545454545454,
                "tempo": 120.0
            },
            {
                "start_time": 0.29318181818181815,
                "end_time": 0.6113636363636363,
                "pitch": 48,
                "velocity": 64,
                "duration": 0.3181818181818182,
                "tempo": 120.0
            },
            {
                "start_time": 0.6272727272727272,
                "end_time": 1.0999999999999999,
                "pitch": 48,
                "velocity": 64,
                "duration": 0.47272727272727266,
                "tempo": 120.0
            },
            {
                "start_time": 1.115909090909091,
                "end_time": 1.3499999999999999,
                "pitch": 48,
                "velocity": 64,
                "duration": 0.2340909090909089,
                "tempo": 120.0
            },
            {
                "start_time": 1.3659090909090907,
                "end_time": 1.5999999999999999,
                "pitch": 46,
                "velocity": 64,
                "duration": 0.23409090909090913,
                "tempo": 120.0
            },
            {
                "start_time": 1.6159090909090907,
                "end_time": 1.8499999999999999,
                "pitch": 48,
                "velocity": 64,
                "duration": 0.23409090909090913,
                "tempo": 120.0
            },
            {
                "start_time": 1.8659090909090907,
                "end_time": 2.234090909090909,
                "pitch": 41,
                "velocity": 64,
                "duration": 0.36818181818181817,
                "tempo": 120.0
            },
            {
                "start_time": 2.25,
                "end_time": 2.6,
                "pitch": 48,
                "velocity": 64,
                "duration": 0.3500000000000001,
                "tempo": 120.0
            },
            {
                "start_time": 2.6159090909090907,
                "end_time": 3.0999999999999996,
                "pitch": 48,
                "velocity": 64,
                "duration": 0.4840909090909089,
                "tempo": 120.0
            },
            {
                "start_time": 3.1159090909090907,
                "end_time": 3.3499999999999996,
                "pitch": 48,
                "velocity": 64,
                "duration": 0.2340909090909089,
                "tempo": 120.0
            },
            {
                "start_time": 3.3659090909090907,
                "end_time": 3.5999999999999996,
                "pitch": 49,
                "velocity": 64,
                "duration": 0.2340909090909089,
                "tempo": 120.0
            },
            {
                "start_time": 3.6159090909090907,
                "end_time": 3.8499999999999996,
                "pitch": 51,
                "velocity": 64,
                "duration": 0.2340909090909089,
                "tempo": 120.0
            },
            {
                "start_time": 3.8659090909090907,
                "end_time": 4.2340909090909085,
                "pitch": 41,
                "velocity": 64,
                "duration": 0.3681818181818177,
                "tempo": 120.0
            },
            {
                "start_time": 4.25,
                "end_time": 4.602272727272727,
                "pitch": 48,
                "velocity": 64,
                "duration": 0.3522727272727266,
                "tempo": 120.0
            },
            {
                "start_time": 4.618181818181818,
                "end_time": 5.1045454545454545,
                "pitch": 48,
                "velocity": 64,
                "duration": 0.48636363636363633,
                "tempo": 120.0
            },
            {
                "start_time": 5.120454545454545,
                "end_time": 5.3545454545454545,
                "pitch": 48,
                "velocity": 64,
                "duration": 0.23409090909090935,
                "tempo": 120.0
            },
            {
                "start_time": 5.370454545454545,
                "end_time": 5.6045454545454545,
                "pitch": 46,
                "velocity": 64,
                "duration": 0.23409090909090935,
                "tempo": 120.0
            },
            {
                "start_time": 5.620454545454545,
                "end_time": 5.8545454545454545,
                "pitch": 48,
                "velocity": 64,
                "duration": 0.23409090909090935,
                "tempo": 120.0
            },
            {
                "start_time": 5.870454545454545,
                "end_time": 6.238636363636363,
                "pitch": 41,
                "velocity": 64,
                "duration": 0.36818181818181817,
                "tempo": 120.0
            },
            {
                "start_time": 6.254545454545454,
                "end_time": 6.6045454545454545,
                "pitch": 48,
                "velocity": 64,
                "duration": 0.35000000000000053,
                "tempo": 120.0
            },
            {
                "start_time": 6.620454545454545,
                "end_time": 7.1045454545454545,
                "pitch": 48,
                "velocity": 64,
                "duration": 0.48409090909090935,
                "tempo": 120.0
            },
            {
                "start_time": 7.120454545454545,
                "end_time": 7.3545454545454545,
                "pitch": 48,
                "velocity": 64,
                "duration": 0.23409090909090935,
                "tempo": 120.0
            },
            {
                "start_time": 7.370454545454545,
                "end_time": 7.6045454545454545,
                "pitch": 49,
                "velocity": 64,
                "duration": 0.23409090909090935,
                "tempo": 120.0
            },
            {
                "start_time": 7.620454545454545,
                "end_time": 7.8545454545454545,
                "pitch": 51,
                "velocity": 64,
                "duration": 0.23409090909090935,
                "tempo": 120.0
            },
            {
                "start_time": 7.870454545454545,
                "end_time": 10.243181818181817,
                "pitch": 44,
                "velocity": 64,
                "duration": 2.372727272727272,
                "tempo": 120.0
            },
            {
                "start_time": 10.625,
                "end_time": 10.85909090909091,
                "pitch": 44,
                "velocity": 64,
                "duration": 0.23409090909090935,
                "tempo": 120.0
            },
            {
                "start_time": 10.875,
                "end_time": 11.10909090909091,
                "pitch": 49,
                "velocity": 64,
                "duration": 0.23409090909090935,
                "tempo": 120.0
            },
            {
                "start_time": 11.125,
                "end_time": 11.60909090909091,
                "pitch": 48,
                "velocity": 64,
                "duration": 0.48409090909090935,
                "tempo": 120.0
            },
            {
                "start_time": 11.625,
                "end_time": 11.743181818181817,
                "pitch": 44,
                "velocity": 64,
                "duration": 0.11818181818181728,
                "tempo": 120.0
            },
            {
                "start_time": 11.759090909090908,
                "end_time": 11.85909090909091,
                "pitch": 46,
                "velocity": 64,
                "duration": 0.10000000000000142,
                "tempo": 120.0
            },
            {
                "start_time": 11.875,
                "end_time": 13.359090909090908,
                "pitch": 49,
                "velocity": 64,
                "duration": 1.4840909090909076,
                "tempo": 120.0
            },
            {
                "start_time": 13.375,
                "end_time": 13.859090909090908,
                "pitch": 51,
                "velocity": 64,
                "duration": 0.4840909090909076,
                "tempo": 120.0
            },
            {
                "start_time": 13.875,
                "end_time": 13.995454545454544,
                "pitch": 48,
                "velocity": 64,
                "duration": 0.12045454545454426,
                "tempo": 120.0
            },
            {
                "start_time": 14.011363636363635,
                "end_time": 14.113636363636363,
                "pitch": 49,
                "velocity": 64,
                "duration": 0.1022727272727284,
                "tempo": 120.0
            },
            {
                "start_time": 14.131818181818181,
                "end_time": 14.252272727272727,
                "pitch": 50,
                "velocity": 64,
                "duration": 0.12045454545454604,
                "tempo": 120.0
            },
            {
                "start_time": 14.268181818181818,
                "end_time": 14.502272727272727,
                "pitch": 51,
                "velocity": 64,
                "duration": 0.23409090909090935,
                "tempo": 120.0
            },
            {
                "start_time": 14.518181818181818,
                "end_time": 14.747727272727271,
                "pitch": 48,
                "velocity": 64,
                "duration": 0.2295454545454536,
                "tempo": 120.0
            },
            {
                "start_time": 14.76590909090909,
                "end_time": 14.995454545454544,
                "pitch": 44,
                "velocity": 64,
                "duration": 0.2295454545454536,
                "tempo": 120.0
            },
            {
                "start_time": 15.013636363636364,
                "end_time": 15.363636363636363,
                "pitch": 42,
                "velocity": 64,
                "duration": 0.34999999999999964,
                "tempo": 120.0
            },
            {
                "start_time": 15.379545454545454,
                "end_time": 15.745454545454544,
                "pitch": 41,
                "velocity": 64,
                "duration": 0.3659090909090903,
                "tempo": 120.0
            }
        ],
        "Clarinet": [
            {
                "start_time": 0.0,
                "end_time": 0.07954545454545454,
                "pitch": 53,
                "velocity": 64,
                "duration": 0.07954545454545454,
                "tempo": 120.0
            },
            {
                "start_time": 0.09318181818181817,
                "end_time": 0.17272727272727273,
                "pitch": 58,
                "velocity": 64,
                "duration": 0.07954545454545456,
                "tempo": 120.0
            },
            {
                "start_time": 0.18636363636363634,
                "end_time": 0.27954545454545454,
                "pitch": 60,
                "velocity": 64,
                "duration": 0.0931818181818182,
                "tempo": 120.0
            },
            {
                "start_time": 0.29318181818181815,
                "end_time": 0.6113636363636363,
                "pitch": 65,
                "velocity": 64,
                "duration": 0.3181818181818182,
                "tempo": 120.0
            },
            {
                "start_time": 0.6272727272727272,
                "end_time": 0.6590909090909091,
                "pitch": 60,
                "velocity": 64,
                "duration": 0.03181818181818186,
                "tempo": 120.0
            },
            {
                "start_time": 0.6749999999999999,
                "end_time": 0.85,
                "pitch": 61,
                "velocity": 64,
                "duration": 0.17500000000000004,
                "tempo": 120.0
            },
            {
                "start_time": 0.8659090909090909,
                "end_time": 1.0999999999999999,
                "pitch": 58,
                "velocity": 64,
                "duration": 0.23409090909090902,
                "tempo": 120.0
            },
            {
                "start_time": 1.115909090909091,
                "end_time": 1.3499999999999999,
                "pitch": 53,
                "velocity": 64,
                "duration": 0.2340909090909089,
                "tempo": 120.0
            },
            {
                "start_time": 1.3659090909090907,
                "end_time": 1.5999999999999999,
                "pitch": 56,
                "velocity": 64,
                "duration": 0.23409090909090913,
                "tempo": 120.0
            },
            {
                "start_time": 1.6159090909090907,
                "end_time": 1.8499999999999999,
                "pitch": 58,
                "velocity": 64,
                "duration": 0.23409090909090913,
                "tempo": 120.0
            },
            {
                "start_time": 1.8659090909090907,
                "end_time": 2.1,
                "pitch": 53,
                "velocity": 64,
                "duration": 0.23409090909090935,
                "tempo": 120.0
            },
            {
                "start_time": 2.1159090909090907,
                "end_time": 2.234090909090909,
                "pitch": 60,
                "velocity": 64,
                "duration": 0.11818181818181817,
                "tempo": 120.0
            },
            {
                "start_time": 2.25,
                "end_time": 2.6,
                "pitch": 65,
                "velocity": 64,
                "duration": 0.3500000000000001,
                "tempo": 120.0
            },
            {
                "start_time": 2.6159090909090907,
                "end_time": 2.8499999999999996,
                "pitch": 60,
                "velocity": 64,
                "duration": 0.2340909090909089,
                "tempo": 120.0
            },
            {
                "start_time": 2.8659090909090907,
                "end_time": 3.0999999999999996,
                "pitch": 58,
                "velocity": 64,
                "duration": 0.2340909090909089,
                "tempo": 120.0
            },
            {
                "start_time": 3.1159090909090907,
                "end_time": 3.3499999999999996,
                "pitch": 56,
                "velocity": 64,
                "duration": 0.2340909090909089,
                "tempo": 120.0
            },
            {
                "start_time": 3.3659090909090907,
                "end_time": 3.5999999999999996,
                "pitch": 53,
                "velocity": 64,
                "duration": 0.2340909090909089,
                "tempo": 120.0
            },
            {
                "start_time": 3.6159090909090907,
                "end_time": 3.8499999999999996,
                "pitch": 56,
                "velocity": 64,
                "duration": 0.2340909090909089,
                "tempo": 120.0
            },
            {
                "start_time": 3.8659090909090907,
                "end_time": 3.984090909090909,
                "pitch": 51,
                "velocity": 64,
                "duration": 0.11818181818181817,
                "tempo": 120.0
            },
            {
                "start_time": 4.0,
                "end_time": 4.1,
                "pitch": 56,
                "velocity": 64,
                "duration": 0.09999999999999964,
                "tempo": 120.0
            },
            {
                "start_time": 4.11590909090909,
                "end_time": 4.2340909090909085,
                "pitch": 63,
                "velocity": 64,
                "duration": 0.11818181818181817,
                "tempo": 120.0
            },
            {
                "start_time": 4.25,
                "end_time": 4.602272727272727,
                "pitch": 63,
                "velocity": 64,
                "duration": 0.3522727272727266,
                "tempo": 120.0
            },
            {
                "start_time": 4.618181818181818,
                "end_time": 4.8545454545454545,
                "pitch": 58,
                "velocity": 64,
                "duration": 0.23636363636363633,
                "tempo": 120.0
            },
            {
                "start_time": 4.870454545454545,
                "end_time": 5.1045454545454545,
                "pitch": 56,
                "velocity": 64,
                "duration": 0.23409090909090935,
                "tempo": 120.0
            },
            {
                "start_time": 5.120454545454545,
                "end_time": 5.3545454545454545,
                "pitch": 51,
                "velocity": 64,
                "duration": 0.23409090909090935,
                "tempo": 120.0
            },
            {
                "start_time": 5.370454545454545,
                "end_time": 5.6045454545454545,
                "pitch": 54,
                "velocity": 64,
                "duration": 0.23409090909090935,
                "tempo": 120.0
            },
            {
                "start_time": 5.620454545454545,
                "end_time": 5.8545454545454545,
                "pitch": 56,
                "velocity": 64,
                "duration": 0.23409090909090935,
                "tempo": 120.0
            },
            {
                "start_time": 5.870454545454545,
                "end_time": 5.988636363636363,
                "pitch": 51,
                "velocity": 64,
                "duration": 0.11818181818181817,
                "tempo": 120.0
            },
            {
                "start_time": 6.004545454545454,
                "end_time": 6.1045454545454545,
                "pitch": 51,
                "velocity": 64,
                "duration": 0.10000000000000053,
                "tempo": 120.0
            },
            {
                "start_time": 6.120454545454545,
                "end_time": 6.238636363636363,
                "pitch": 58,
                "velocity": 64,
                "duration": 0.11818181818181817,
                "tempo": 120.0
            },
            {
                "start_time": 6.254545454545454,
                "end_time": 6.6045454545454545,
                "pitch": 63,
                "velocity": 64,
                "duration": 0.35000000000000053,
                "tempo": 120.0
            },
            {
                "start_time": 6.620454545454545,
                "end_time": 6.8545454545454545,
                "pitch": 63,
                "velocity": 64,
                "duration": 0.23409090909090935,
                "tempo": 120.0
            },
            {
                "start_time": 6.870454545454545,
                "end_time": 6.904545454545454,
                "pitch": 55,
                "velocity": 64,
                "duration": 0.03409090909090917,
                "tempo": 120.0
            },
            {
                "start_time": 6.920454545454545,
                "end_time": 7.1045454545454545,
                "pitch": 56,
                "velocity": 64,
                "duration": 0.18409090909090953,
                "tempo": 120.0
            },
            {
                "start_time": 7.120454545454545,
                "end_time": 7.3545454545454545,
                "pitch": 51,
                "velocity": 64,
                "duration": 0.23409090909090935,
                "tempo": 120.0
            },
            {
                "start_time": 7.370454545454545,
                "end_time": 7.6045454545454545,
                "pitch": 56,
                "velocity": 64,
                "duration": 0.23409090909090935,
                "tempo": 120.0
            },
            {
                "start_time": 7.620454545454545,
                "end_time": 7.8545454545454545,
                "pitch": 58,
                "velocity": 64,
                "duration": 0.23409090909090935,
                "tempo": 120.0
            },
            {
                "start_time": 7.870454545454545,
                "end_time": 7.99090909090909,
                "pitch": 49,
                "velocity": 64,
                "duration": 0.12045454545454515,
                "tempo": 120.0
            },
            {
                "start_time": 8.006818181818181,
                "end_time": 8.10909090909091,
                "pitch": 54,
                "velocity": 64,
                "duration": 0.1022727272727284,
                "tempo": 120.0
            },
            {
                "start_time": 8.127272727272727,
                "end_time": 8.247727272727273,
                "pitch": 56,
                "velocity": 64,
                "duration": 0.12045454545454604,
                "tempo": 120.0
            },
            {
                "start_time": 8.263636363636364,
                "end_time": 8.613636363636363,
                "pitch": 61,
                "velocity": 64,
                "duration": 0.34999999999999964,
                "tempo": 120.0
            },
            {
                "start_time": 8.629545454545454,
                "end_time": 8.85909090909091,
                "pitch": 56,
                "velocity": 64,
                "duration": 0.22954545454545539,
                "tempo": 120.0
            },
            {
                "start_time": 8.875,
                "end_time": 9.10909090909091,
                "pitch": 54,
                "velocity": 64,
                "duration": 0.23409090909090935,
                "tempo": 120.0
            },
            {
                "start_time": 9.125,
                "end_time": 9.35909090909091,
                "pitch": 49,
                "velocity": 64,
                "duration": 0.23409090909090935,
                "tempo": 120.0
            },
            {
                "start_time": 9.375,
                "end_time": 9.60909090909091,
                "pitch": 54,
                "velocity": 64,
                "duration": 0.23409090909090935,
                "tempo": 120.0
            },
            {
                "start_time": 9.625,
                "end_time": 9.743181818181817,
                "pitch": 49,
                "velocity": 64,
                "duration": 0.11818181818181728,
                "tempo": 120.0
            },
            {
                "start_time": 9.759090909090908,
                "end_time": 9.85909090909091,
                "pitch": 53,
                "velocity": 64,
                "duration": 0.10000000000000142,
                "tempo": 120.0
            },
            {
                "start_time": 9.875,
                "end_time": 9.993181818181817,
                "pitch": 37,
                "velocity": 64,
                "duration": 0.11818181818181728,
                "tempo": 120.0
            },
            {
                "start_time": 10.009090909090908,
                "end_time": 10.10909090909091,
                "pitch": 49,
                "velocity": 64,
                "duration": 0.10000000000000142,
                "tempo": 120.0
            },
            {
                "start_time": 10.125,
                "end_time": 10.243181818181817,
                "pitch": 53,
                "velocity": 64,
                "duration": 0.11818181818181728,
                "tempo": 120.0
            },
            {
                "start_time": 10.259090909090908,
                "end_time": 10.60909090909091,
                "pitch": 56,
                "velocity": 64,
                "duration": 0.3500000000000014,
                "tempo": 120.0
            },
            {
                "start_time": 10.625,
                "end_time": 10.85909090909091,
                "pitch": 61,
                "velocity": 64,
                "duration": 0.23409090909090935,
                "tempo": 120.0
            },
            {
                "start_time": 10.875,
                "end_time": 11.10909090909091,
                "pitch": 56,
                "velocity": 64,
                "duration": 0.23409090909090935,
                "tempo": 120.0
            },
            {
                "start_time": 11.125,
                "end_time": 11.35909090909091,
                "pitch": 53,
                "velocity": 64,
                "duration": 0.23409090909090935,
                "tempo": 120.0
            },
            {
                "start_time": 11.375,
                "end_time": 11.60909090909091,
                "pitch": 56,
                "velocity": 64,
                "duration": 0.23409090909090935,
                "tempo": 120.0
            },
            {
                "start_time": 11.625,
                "end_time": 11.85909090909091,
                "pitch": 60,
                "velocity": 64,
                "duration": 0.23409090909090935,
                "tempo": 120.0
            },
            {
                "start_time": 11.875,
                "end_time": 11.993181818181817,
                "pitch": 53,
                "velocity": 64,
                "duration": 0.11818181818181728,
                "tempo": 120.0
            },
            {
                "start_time": 12.009090909090908,
                "end_time": 12.243181818181817,
                "pitch": 58,
                "velocity": 64,
                "duration": 0.23409090909090935,
                "tempo": 120.0
            },
            {
                "start_time": 12.259090909090908,
                "end_time": 12.60909090909091,
                "pitch": 65,
                "velocity": 64,
                "duration": 0.3500000000000014,
                "tempo": 120.0
            },
            {
                "start_time": 12.625,
                "end_time": 12.85909090909091,
                "pitch": 60,
                "velocity": 64,
                "duration": 0.23409090909090935,
                "tempo": 120.0
            },
            {
                "start_time": 12.875,
                "end_time": 13.109090909090908,
                "pitch": 58,
                "velocity": 64,
                "duration": 0.23409090909090757,
                "tempo": 120.0
            },
            {
                "start_time": 13.125,
                "end_time": 13.359090909090908,
                "pitch": 53,
                "velocity": 64,
                "duration": 0.23409090909090757,
                "tempo": 120.0
            },
            {
                "start_time": 13.375,
                "end_time": 13.609090909090908,
                "pitch": 53,
                "velocity": 64,
                "duration": 0.23409090909090757,
                "tempo": 120.0
            },
            {
                "start_time": 13.625,
                "end_time": 13.859090909090908,
                "pitch": 58,
                "velocity": 64,
                "duration": 0.23409090909090757,
                "tempo": 120.0
            },
            {
                "start_time": 13.875,
                "end_time": 14.113636363636363,
                "pitch": 53,
                "velocity": 64,
                "duration": 0.2386363636363633,
                "tempo": 120.0
            },
            {
                "start_time": 14.131818181818181,
                "end_time": 14.252272727272727,
                "pitch": 60,
                "velocity": 64,
                "duration": 0.12045454545454604,
                "tempo": 120.0
            },
            {
                "start_time": 14.268181818181818,
                "end_time": 14.502272727272727,
                "pitch": 65,
                "velocity": 64,
                "duration": 0.23409090909090935,
                "tempo": 120.0
            },
            {
                "start_time": 14.518181818181818,
                "end_time": 14.747727272727271,
                "pitch": 60,
                "velocity": 64,
                "duration": 0.2295454545454536,
                "tempo": 120.0
            },
            {
                "start_time": 14.76590909090909,
                "end_time": 14.995454545454544,
                "pitch": 58,
                "velocity": 64,
                "duration": 0.2295454545454536,
                "tempo": 120.0
            },
            {
                "start_time": 15.013636363636364,
                "end_time": 15.363636363636363,
                "pitch": 56,
                "velocity": 64,
                "duration": 0.34999999999999964,
                "tempo": 120.0
            },
            {
                "start_time": 15.379545454545454,
                "end_time": 15.579545454545453,
                "pitch": 53,
                "velocity": 64,
                "duration": 0.1999999999999993,
                "tempo": 120.0
            }
        ]
    }
}