{
    "track_id": "Rambo III (FM) - 03 - Scene Clear",
    "mood": "angry",
    "instruments": {
        "Violin": [
            {
                "start_time": 0.045454545454545456,
                "end_time": 0.27954545454545454,
                "pitch": 76,
                "velocity": 64,
                "duration": 0.23409090909090907,
                "tempo": 120.0
            },
            {
                "start_time": 0.2954545454545454,
                "end_time": 0.5272727272727272,
                "pitch": 76,
                "velocity": 64,
                "duration": 0.2318181818181818,
                "tempo": 120.0
            },
            {
                "start_time": 0.5431818181818182,
                "end_time": 0.7681818181818182,
                "pitch": 76,
                "velocity": 64,
                "duration": 0.22499999999999998,
                "tempo": 120.0
            },
            {
                "start_time": 0.7840909090909091,
                "end_time": 1.009090909090909,
                "pitch": 76,
                "velocity": 64,
                "duration": 0.22499999999999998,
                "tempo": 120.0
            },
            {
                "start_time": 1.025,
                "end_time": 1.259090909090909,
                "pitch": 76,
                "velocity": 64,
                "duration": 0.23409090909090913,
                "tempo": 120.0
            },
            {
                "start_time": 1.275,
                "end_time": 1.509090909090909,
                "pitch": 76,
                "velocity": 64,
                "duration": 0.23409090909090913,
                "tempo": 120.0
            },
            {
                "start_time": 1.525,
                "end_time": 1.759090909090909,
                "pitch": 76,
                "velocity": 64,
                "duration": 0.23409090909090913,
                "tempo": 120.0
            },
            {
                "start_time": 1.775,
                "end_time": 2.009090909090909,
                "pitch": 76,
                "velocity": 64,
                "duration": 0.2340909090909089,
                "tempo": 120.0
            },
            {
                "start_time": 2.025,
                "end_time": 2.259090909090909,
                "pitch": 76,
                "velocity": 64,
                "duration": 0.2340909090909089,
                "tempo": 120.0
            },
            {
                "start_time": 2.275,
                "end_time": 2.509090909090909,
                "pitch": 76,
                "velocity": 64,
                "duration": 0.2340909090909089,
                "tempo": 120.0
            },
            {
                "start_time": 2.525,
                "end_time": 2.759090909090909,
                "pitch": 76,
                "velocity": 64,
                "duration": 0.2340909090909089,
                "tempo": 120.0
            },
            {
                "start_time": 2.775,
                "end_time": 3.009090909090909,
                "pitch": 76,
                "velocity": 64,
                "duration": 0.2340909090909089,
                "tempo": 120.0
            },
            {
                "start_time": 3.025,
                "end_time": 3.259090909090909,
                "pitch": 76,
                "velocity": 64,
                "duration": 0.2340909090909089,
                "tempo": 120.0
            },
            {
                "start_time": 3.275,
                "end_time": 3.509090909090909,
                "pitch": 76,
                "velocity": 64,
                "duration": 0.2340909090909089,
                "tempo": 120.0
            },
            {
                "start_time": 3.525,
                "end_time": 3.759090909090909,
                "pitch": 76,
                "velocity": 64,
                "duration": 0.2340909090909089,
                "tempo": 120.0
            },
            {
                "start_time": 3.775,
                "end_time": 4.009090909090909,
                "pitch": 76,
                "velocity": 64,
                "duration": 0.2340909090909089,
                "tempo": 120.0
            },
            {
                "start_time": 4.0249999999999995,
                "end_time": 4.259090909090909,
                "pitch": 76,
                "velocity": 64,
                "duration": 0.23409090909090935,
                "tempo": 120.0
            },
            {
                "start_time": 4.2749999999999995,
                "end_time": 4.509090909090909,
                "pitch": 76,
                "velocity": 64,
                "duration": 0.23409090909090935,
                "tempo": 120.0
            },
            {
                "start_time": 4.5249999999999995,
                "end_time": 4.759090909090909,
                "pitch": 76,
                "velocity": 64,
                "duration": 0.23409090909090935,
                "tempo": 120.0
            },
            {
                "start_time": 4.7749999999999995,
                "end_time": 5.009090909090909,
                "pitch": 76,
                "velocity": 64,
                "duration": 0.23409090909090935,
                "tempo": 120.0
            },
            {
                "start_time": 5.0249999999999995,
                "end_time": 5.259090909090909,
                "pitch": 76,
                "velocity": 64,
                "duration": 0.23409090909090935,
                "tempo": 120.0
            },
            {
                "start_time": 5.2749999999999995,
                "end_time": 5.509090909090909,
                "pitch": 76,
                "velocity": 64,
                "duration": 0.23409090909090935,
                "tempo": 120.0
            },
            {
                "start_time": 5.5249999999999995,
                "end_time": 5.759090909090909,
                "pitch": 76,
                "velocity": 64,
                "duration": 0.23409090909090935,
                "tempo": 120.0
            },
            {
                "start_time": 5.7749999999999995,
                "end_time": 6.009090909090909,
                "pitch": 76,
                "velocity": 64,
                "duration": 0.23409090909090935,
                "tempo": 120.0
            },
            {
                "start_time": 6.0249999999999995,
                "end_time": 6.259090909090909,
                "pitch": 76,
                "velocity": 64,
                "duration": 0.23409090909090935,
                "tempo": 120.0
            },
            {
                "start_time": 6.2749999999999995,
                "end_time": 6.509090909090909,
                "pitch": 76,
                "velocity": 64,
                "duration": 0.23409090909090935,
                "tempo": 120.0
            },
            {
                "start_time": 6.5249999999999995,
                "end_time": 6.759090909090909,
                "pitch": 76,
                "velocity": 64,
                "duration": 0.23409090909090935,
                "tempo": 120.0
            },
            {
                "start_time": 6.7749999999999995,
                "end_time": 7.009090909090909,
                "pitch": 76,
                "velocity": 64,
                "duration": 0.23409090909090935,
                "tempo": 120.0
            },
            {
                "start_time": 7.0249999999999995,
                "end_time": 7.259090909090909,
                "pitch": 76,
                "velocity": 64,
                "duration": 0.23409090909090935,
                "tempo": 120.0
            },
            {
                "start_time": 7.2749999999999995,
                "end_time": 7.509090909090909,
                "pitch": 76,
                "velocity": 64,
                "duration": 0.23409090909090935,
                "tempo": 120.0
            },
            {
                "start_time": 7.5249999999999995,
                "end_time": 7.759090909090909,
                "pitch": 76,
                "velocity": 64,
                "duration": 0.23409090909090935,
                "tempo": 120.0
            },
            {
                "start_time": 7.7749999999999995,
                "end_time": 8.009090909090908,
                "pitch": 76,
                "velocity": 64,
                "duration": 0.23409090909090846,
                "tempo": 120.0
            },
            {
                "start_time": 8.025,
                "end_time": 8.259090909090908,
                "pitch": 76,
                "velocity": 64,
                "duration": 0.23409090909090757,
                "tempo": 120.0
            },
            {
                "start_time": 8.275,
                "end_time": 8.509090909090908,
                "pitch": 76,
                "velocity": 64,
                "duration": 0.23409090909090757,
                "tempo": 120.0
            },
            {
                "start_time": 8.525,
                "end_time": 8.759090909090908,
                "pitch": 76,
                "velocity": 64,
                "duration": 0.23409090909090757,
                "tempo": 120.0
            },
            {
                "start_time": 8.775,
                "end_time": 9.009090909090908,
                "pitch": 76,
                "velocity": 64,
                "duration": 0.23409090909090757,
                "tempo": 120.0
            },
            {
                "start_time": 9.025,
                "end_time": 9.259090909090908,
                "pitch": 76,
                "velocity": 64,
                "duration": 0.23409090909090757,
                "tempo": 120.0
            },
            {
                "start_time": 9.275,
                "end_time": 9.509090909090908,
                "pitch": 76,
                "velocity": 64,
                "duration": 0.23409090909090757,
                "tempo": 120.0
            },
            {
                "start_time": 9.525,
                "end_time": 9.759090909090908,
                "pitch": 76,
                "velocity": 64,
                "duration": 0.23409090909090757,
                "tempo": 120.0
            },
            {
                "start_time": 9.775,
                "end_time": 10.009090909090908,
                "pitch": 76,
                "velocity": 64,
                "duration": 0.23409090909090757,
                "tempo": 120.0
            },
            {
                "start_time": 10.025,
                "end_time": 10.254545454545454,
                "pitch": 76,
                "velocity": 64,
                "duration": 0.2295454545454536,
                "tempo": 120.0
            },
            {
                "start_time": 10.270454545454545,
                "end_time": 10.5,
                "pitch": 76,
                "velocity": 64,
                "duration": 0.22954545454545539,
                "tempo": 120.0
            },
            {
                "start_time": 10.518181818181818,
                "end_time": 10.756818181818181,
                "pitch": 76,
                "velocity": 64,
                "duration": 0.2386363636363633,
                "tempo": 120.0
            },
            {
                "start_time": 10.775,
                "end_time": 11.013636363636364,
                "pitch": 76,
                "velocity": 64,
                "duration": 0.2386363636363633,
                "tempo": 120.0
            },
            {
                "start_time": 11.029545454545454,
                "end_time": 11.263636363636364,
                "pitch": 76,
                "velocity": 64,
                "duration": 0.23409090909090935,
                "tempo": 120.0
            },
            {
                "start_time": 11.279545454545454,
                "end_time": 11.513636363636364,
                "pitch": 76,
                "velocity": 64,
                "duration": 0.23409090909090935,
                "tempo": 120.0
            },
            {
                "start_time": 11.529545454545454,
                "end_time": 11.763636363636364,
                "pitch": 76,
                "velocity": 64,
                "duration": 0.23409090909090935,
                "tempo": 120.0
            },
            {
                "start_time": 11.779545454545454,
                "end_time": 12.011363636363635,
                "pitch": 76,
                "velocity": 64,
                "duration": 0.2318181818181806,
                "tempo": 120.0
            },
            {
                "start_time": 12.029545454545454,
                "end_time": 12.259090909090908,
                "pitch": 76,
                "velocity": 64,
                "duration": 0.2295454545454536,
                "tempo": 120.0
            },
            {
                "start_time": 12.274999999999999,
                "end_time": 12.504545454545454,
                "pitch": 76,
                "velocity": 64,
                "duration": 0.22954545454545539,
                "tempo": 120.0
            },
            {
                "start_time": 12.522727272727272,
                "end_time": 12.761363636363635,
                "pitch": 76,
                "velocity": 64,
                "duration": 0.2386363636363633,
                "tempo": 120.0
            },
            {
                "start_time": 12.779545454545454,
                "end_time": 13.018181818181818,
                "pitch": 75,
                "velocity": 64,
                "duration": 0.2386363636363633,
                "tempo": 120.0
            },
            {
                "start_time": 13.034090909090908,
                "end_time": 13.268181818181818,
                "pitch": 75,
                "velocity": 64,
                "duration": 0.23409090909090935,
                "tempo": 120.0
            },
            {
                "start_time": 13.284090909090908,
                "end_time": 13.518181818181818,
                "pitch": 75,
                "velocity": 64,
                "duration": 0.23409090909090935,
                "tempo": 120.0
            },
            {
                "start_time": 13.534090909090908,
                "end_time": 13.768181818181818,
                "pitch": 75,
                "velocity": 64,
                "duration": 0.23409090909090935,
                "tempo": 120.0
            },
            {
                "start_time": 13.784090909090908,
                "end_time": 15.595454545454544,
                "pitch": 74,
                "velocity": 64,
                "duration": 1.8113636363636356,
                "tempo": 120.0
            }
        ],
        "Electric Guitar (clean)": [
            {
                "start_time": 0.013636363636363636,
                "end_time": 0.22954545454545452,
                "pitch": 33,
                "velocity": 80,
                "duration": 0.21590909090909088,
                "tempo": 120.0
            },
            {
                "start_time": 0.24545454545454545,
                "end_time": 0.4795454545454545,
                "pitch": 33,
                "velocity": 80,
                "duration": 0.23409090909090904,
                "tempo": 120.0
            },
            {
                "start_time": 0.4954545454545454,
                "end_time": 0.7204545454545455,
                "pitch": 33,
                "velocity": 80,
                "duration": 0.22500000000000003,
                "tempo": 120.0
            },
            {
                "start_time": 0.7363636363636363,
                "end_time": 0.959090909090909,
                "pitch": 33,
                "velocity": 80,
                "duration": 0.22272727272727266,
                "tempo": 120.0
            },
            {
                "start_time": 0.975,
                "end_time": 1.209090909090909,
                "pitch": 33,
                "velocity": 80,
                "duration": 0.23409090909090902,
                "tempo": 120.0
            },
            {
                "start_time": 1.2249999999999999,
                "end_time": 1.459090909090909,
                "pitch": 33,
                "velocity": 80,
                "duration": 0.23409090909090913,
                "tempo": 120.0
            },
            {
                "start_time": 1.4749999999999999,
                "end_time": 1.709090909090909,
                "pitch": 33,
                "velocity": 80,
                "duration": 0.23409090909090913,
                "tempo": 120.0
            },
            {
                "start_time": 1.7249999999999999,
                "end_time": 1.959090909090909,
                "pitch": 33,
                "velocity": 80,
                "duration": 0.23409090909090913,
                "tempo": 120.0
            },
            {
                "start_time": 1.9749999999999999,
                "end_time": 2.209090909090909,
                "pitch": 33,
                "velocity": 80,
                "duration": 0.23409090909090913,
                "tempo": 120.0
            },
            {
                "start_time": 2.225,
                "end_time": 2.459090909090909,
                "pitch": 43,
                "velocity": 80,
                "duration": 0.2340909090909089,
                "tempo": 120.0
            },
            {
                "start_time": 2.475,
                "end_time": 2.590909090909091,
                "pitch": 33,
                "velocity": 80,
                "duration": 0.11590909090909074,
                "tempo": 120.0
            },
            {
                "start_time": 2.609090909090909,
                "end_time": 2.840909090909091,
                "pitch": 41,
                "velocity": 80,
                "duration": 0.23181818181818192,
                "tempo": 120.0
            },
            {
                "start_time": 2.859090909090909,
                "end_time": 2.959090909090909,
                "pitch": 33,
                "velocity": 80,
                "duration": 0.10000000000000009,
                "tempo": 120.0
            },
            {
                "start_time": 2.9749999999999996,
                "end_time": 3.209090909090909,
                "pitch": 40,
                "velocity": 80,
                "duration": 0.23409090909090935,
                "tempo": 120.0
            },
            {
                "start_time": 3.2249999999999996,
                "end_time": 3.459090909090909,
                "pitch": 35,
                "velocity": 80,
                "duration": 0.23409090909090935,
                "tempo": 120.0
            },
            {
                "start_time": 3.4749999999999996,
                "end_time": 3.709090909090909,
                "pitch": 41,
                "velocity": 80,
                "duration": 0.23409090909090935,
                "tempo": 120.0
            },
            {
                "start_time": 3.7249999999999996,
                "end_time": 3.959090909090909,
                "pitch": 33,
                "velocity": 80,
                "duration": 0.23409090909090935,
                "tempo": 120.0
            },
            {
                "start_time": 3.9749999999999996,
                "end_time": 4.209090909090909,
                "pitch": 33,
                "velocity": 80,
                "duration": 0.23409090909090935,
                "tempo": 120.0
            },
            {
                "start_time": 4.225,
                "end_time": 4.459090909090909,
                "pitch": 33,
                "velocity": 80,
                "duration": 0.23409090909090935,
                "tempo": 120.0
            },
            {
                "start_time": 4.475,
                "end_time": 4.709090909090909,
                "pitch": 33,
                "velocity": 80,
                "duration": 0.23409090909090935,
                "tempo": 120.0
            },
            {
                "start_time": 4.725,
                "end_time": 4.959090909090909,
                "pitch": 33,
                "velocity": 80,
                "duration": 0.23409090909090935,
                "tempo": 120.0
            },
            {
                "start_time": 4.975,
                "end_time": 5.209090909090909,
                "pitch": 33,
                "velocity": 80,
                "duration": 0.23409090909090935,
                "tempo": 120.0
            },
            {
                "start_time": 5.225,
                "end_time": 5.459090909090909,
                "pitch": 33,
                "velocity": 80,
                "duration": 0.23409090909090935,
                "tempo": 120.0
            },
            {
                "start_time": 5.475,
                "end_time": 5.709090909090909,
                "pitch": 33,
                "velocity": 80,
                "duration": 0.23409090909090935,
                "tempo": 120.0
            },
            {
                "start_time": 5.725,
                "end_time": 5.959090909090909,
                "pitch": 33,
                "velocity": 80,
                "duration": 0.23409090909090935,
                "tempo": 120.0
            },
            {
                "start_time": 5.975,
                "end_time": 6.209090909090909,
                "pitch": 33,
                "velocity": 80,
                "duration": 0.23409090909090935,
                "tempo": 120.0
            },
            {
                "start_time": 6.225,
                "end_time": 6.459090909090909,
                "pitch": 33,
                "velocity": 80,
                "duration": 0.23409090909090935,
                "tempo": 120.0
            },
            {
                "start_time": 6.475,
                "end_time": 6.709090909090909,
                "pitch": 33,
                "velocity": 80,
                "duration": 0.23409090909090935,
                "tempo": 120.0
            },
            {
                "start_time": 6.725,
                "end_time": 6.959090909090909,
                "pitch": 33,
                "velocity": 80,
                "duration": 0.23409090909090935,
                "tempo": 120.0
            },
            {
                "start_time": 6.975,
                "end_time": 7.209090909090909,
                "pitch": 33,
                "velocity": 80,
                "duration": 0.23409090909090935,
                "tempo": 120.0
            },
            {
                "start_time": 7.225,
                "end_time": 7.459090909090909,
                "pitch": 33,
                "velocity": 80,
                "duration": 0.23409090909090935,
                "tempo": 120.0
            },
            {
                "start_time": 7.475,
                "end_time": 7.709090909090909,
                "pitch": 33,
                "velocity": 80,
                "duration": 0.23409090909090935,
                "tempo": 120.0
            },
            {
                "start_time": 7.725,
                "end_time": 7.959090909090909,
                "pitch": 33,
                "velocity": 80,
                "duration": 0.23409090909090935,
                "tempo": 120.0
            },
            {
                "start_time": 7.975,
                "end_time": 8.209090909090909,
                "pitch": 29,
                "velocity": 80,
                "duration": 0.23409090909090935,
                "tempo": 120.0
            },
            {
                "start_time": 8.225,
                "end_time": 8.459090909090909,
                "pitch": 33,
                "velocity": 80,
                "duration": 0.23409090909090935,
                "tempo": 120.0
            },
            {
                "start_time": 8.475,
                "end_time": 8.709090909090909,
                "pitch": 40,
                "velocity": 80,
                "duration": 0.23409090909090935,
                "tempo": 120.0
            },
            {
                "start_time": 8.725,
                "end_time": 9.959090909090909,
                "pitch": 31,
                "velocity": 80,
                "duration": 1.2340909090909093,
                "tempo": 120.0
            },
            {
                "start_time": 9.975,
                "end_time": 10.706818181818182,
                "pitch": 31,
                "velocity": 80,
                "duration": 0.7318181818181824,
                "tempo": 120.0
            },
            {
                "start_time": 10.722727272727273,
                "end_time": 11.963636363636363,
                "pitch": 33,
                "velocity": 80,
                "duration": 1.2409090909090903,
                "tempo": 120.0
            },
            {
                "start_time": 11.979545454545454,
                "end_time": 12.209090909090909,
                "pitch": 33,
                "velocity": 80,
                "duration": 0.22954545454545539,
                "tempo": 120.0
            },
            {
                "start_time": 12.225,
                "end_time": 12.454545454545453,
                "pitch": 34,
                "velocity": 80,
                "duration": 0.2295454545454536,
                "tempo": 120.0
            },
            {
                "start_time": 12.470454545454546,
                "end_time": 12.711363636363636,
                "pitch": 40,
                "velocity": 80,
                "duration": 0.2409090909090903,
                "tempo": 120.0
            },
            {
                "start_time": 12.727272727272727,
                "end_time": 13.718181818181817,
                "pitch": 30,
                "velocity": 80,
                "duration": 0.9909090909090903,
                "tempo": 120.0
            },
            {
                "start_time": 13.734090909090908,
                "end_time": 13.968181818181817,
                "pitch": 29,
                "velocity": 80,
                "duration": 0.23409090909090935,
                "tempo": 120.0
            }
        ],
        "Lead 2 (sawtooth)": [
            {
                "start_time": 0.045454545454545456,
                "end_time": 0.27954545454545454,
                "pitch": 72,
                "velocity": 51,
                "duration": 0.23409090909090907,
                "tempo": 120.0
            },
            {
                "start_time": 0.2954545454545454,
                "end_time": 0.5272727272727272,
                "pitch": 72,
                "velocity": 51,
                "duration": 0.2318181818181818,
                "tempo": 120.0
            },
            {
                "start_time": 0.5431818181818182,
                "end_time": 0.7681818181818182,
                "pitch": 72,
                "velocity": 51,
                "duration": 0.22499999999999998,
                "tempo": 120.0
            },
            {
                "start_time": 0.7840909090909091,
                "end_time": 1.009090909090909,
                "pitch": 72,
                "velocity": 51,
                "duration": 0.22499999999999998,
                "tempo": 120.0
            },
            {
                "start_time": 1.025,
                "end_time": 1.259090909090909,
                "pitch": 72,
                "velocity": 51,
                "duration": 0.23409090909090913,
                "tempo": 120.0
            },
            {
                "start_time": 1.275,
                "end_time": 1.509090909090909,
                "pitch": 72,
                "velocity": 51,
                "duration": 0.23409090909090913,
                "tempo": 120.0
            },
            {
                "start_time": 1.525,
                "end_time": 1.759090909090909,
                "pitch": 72,
                "velocity": 51,
                "duration": 0.23409090909090913,
                "tempo": 120.0
            },
            {
                "start_time": 1.775,
                "end_time": 2.009090909090909,
                "pitch": 72,
                "velocity": 51,
                "duration": 0.2340909090909089,
                "tempo": 120.0
            },
            {
                "start_time": 2.025,
                "end_time": 2.259090909090909,
                "pitch": 72,
                "velocity": 51,
                "duration": 0.2340909090909089,
                "tempo": 120.0
            },
            {
                "start_time": 2.275,
                "end_time": 2.509090909090909,
                "pitch": 72,
                "velocity": 51,
                "duration": 0.2340909090909089,
                "tempo": 120.0
            },
            {
                "start_time": 2.525,
                "end_time": 2.759090909090909,
                "pitch": 72,
                "velocity": 51,
                "duration": 0.2340909090909089,
                "tempo": 120.0
            },
            {
                "start_time": 2.775,
                "end_time": 3.009090909090909,
                "pitch": 72,
                "velocity": 51,
                "duration": 0.2340909090909089,
                "tempo": 120.0
            },
            {
                "start_time": 3.025,
                "end_time": 3.259090909090909,
                "pitch": 72,
                "velocity": 51,
                "duration": 0.2340909090909089,
                "tempo": 120.0
            },
            {
                "start_time": 3.275,
                "end_time": 3.509090909090909,
                "pitch": 72,
                "velocity": 51,
                "duration": 0.2340909090909089,
                "tempo": 120.0
            },
            {
                "start_time": 3.525,
                "end_time": 3.759090909090909,
                "pitch": 72,
                "velocity": 51,
                "duration": 0.2340909090909089,
                "tempo": 120.0
            },
            {
                "start_time": 3.775,
                "end_time": 4.009090909090909,
                "pitch": 72,
                "velocity": 51,
                "duration": 0.2340909090909089,
                "tempo": 120.0
            },
            {
                "start_time": 4.0249999999999995,
                "end_time": 4.259090909090909,
                "pitch": 72,
                "velocity": 51,
                "duration": 0.23409090909090935,
                "tempo": 120.0
            },
            {
                "start_time": 4.2749999999999995,
                "end_time": 4.509090909090909,
                "pitch": 72,
                "velocity": 51,
                "duration": 0.23409090909090935,
                "tempo": 120.0
            },
            {
                "start_time": 4.5249999999999995,
                "end_time": 4.759090909090909,
                "pitch": 72,
                "velocity": 51,
                "duration": 0.23409090909090935,
                "tempo": 120.0
            },
            {
                "start_time": 4.7749999999999995,
                "end_time": 5.009090909090909,
                "pitch": 72,
                "velocity": 51,
                "duration": 0.23409090909090935,
                "tempo": 120.0
            },
            {
                "start_time": 5.0249999999999995,
                "end_time": 5.259090909090909,
                "pitch": 72,
                "velocity": 51,
                "duration": 0.23409090909090935,
                "tempo": 120.0
            },
            {
                "start_time": 5.2749999999999995,
                "end_time": 5.509090909090909,
                "pitch": 72,
                "velocity": 51,
                "duration": 0.23409090909090935,
                "tempo": 120.0
            },
            {
                "start_time": 5.5249999999999995,
                "end_time": 5.759090909090909,
                "pitch": 72,
                "velocity": 51,
                "duration": 0.23409090909090935,
                "tempo": 120.0
            },
            {
                "start_time": 5.7749999999999995,
                "end_time": 6.009090909090909,
                "pitch": 72,
                "velocity": 51,
                "duration": 0.23409090909090935,
                "tempo": 120.0
            },
            {
                "start_time": 6.0249999999999995,
                "end_time": 6.259090909090909,
                "pitch": 72,
                "velocity": 51,
                "duration": 0.23409090909090935,
                "tempo": 120.0
            },
            {
                "start_time": 6.2749999999999995,
                "end_time": 6.509090909090909,
                "pitch": 72,
                "velocity": 51,
                "duration": 0.23409090909090935,
                "tempo": 120.0
            },
            {
                "start_time": 6.5249999999999995,
                "end_time": 6.759090909090909,
                "pitch": 72,
                "velocity": 51,
                "duration": 0.23409090909090935,
                "tempo": 120.0
            },
            {
                "start_time": 6.7749999999999995,
                "end_time": 7.009090909090909,
                "pitch": 72,
                "velocity": 51,
                "duration": 0.23409090909090935,
                "tempo": 120.0
            },
            {
                "start_time": 7.0249999999999995,
                "end_time": 7.259090909090909,
                "pitch": 72,
                "velocity": 51,
                "duration": 0.23409090909090935,
                "tempo": 120.0
            },
            {
                "start_time": 7.2749999999999995,
                "end_time": 7.509090909090909,
                "pitch": 72,
                "velocity": 51,
                "duration": 0.23409090909090935,
                "tempo": 120.0
            },
            {
                "start_time": 7.5249999999999995,
                "end_time": 7.759090909090909,
                "pitch": 72,
                "velocity": 51,
                "duration": 0.23409090909090935,
                "tempo": 120.0
            },
            {
                "start_time": 7.7749999999999995,
                "end_time": 8.009090909090908,
                "pitch": 72,
                "velocity": 51,
                "duration": 0.23409090909090846,
                "tempo": 120.0
            },
            {
                "start_time": 8.025,
                "end_time": 8.259090909090908,
                "pitch": 69,
                "velocity": 51,
                "duration": 0.23409090909090757,
                "tempo": 120.0
            },
            {
                "start_time": 8.275,
                "end_time": 8.509090909090908,
                "pitch": 69,
                "velocity": 51,
                "duration": 0.23409090909090757,
                "tempo": 120.0
            },
            {
                "start_time": 8.525,
                "end_time": 8.759090909090908,
                "pitch": 69,
                "velocity": 51,
                "duration": 0.23409090909090757,
                "tempo": 120.0
            },
            {
                "start_time": 8.775,
                "end_time": 9.009090909090908,
                "pitch": 69,
                "velocity": 51,
                "duration": 0.23409090909090757,
                "tempo": 120.0
            },
            {
                "start_time": 9.025,
                "end_time": 9.259090909090908,
                "pitch": 71,
                "velocity": 51,
                "duration": 0.23409090909090757,
                "tempo": 120.0
            },
            {
                "start_time": 9.275,
                "end_time": 9.509090909090908,
                "pitch": 71,
                "velocity": 51,
                "duration": 0.23409090909090757,
                "tempo": 120.0
            },
            {
                "start_time": 9.525,
                "end_time": 9.759090909090908,
                "pitch": 71,
                "velocity": 51,
                "duration": 0.23409090909090757,
                "tempo": 120.0
            },
            {
                "start_time": 9.775,
                "end_time": 10.009090909090908,
                "pitch": 71,
                "velocity": 51,
                "duration": 0.23409090909090757,
                "tempo": 120.0
            },
            {
                "start_time": 10.025,
                "end_time": 10.254545454545454,
                "pitch": 71,
                "velocity": 51,
                "duration": 0.2295454545454536,
                "tempo": 120.0
            },
            {
                "start_time": 10.270454545454545,
                "end_time": 10.5,
                "pitch": 71,
                "velocity": 51,
                "duration": 0.22954545454545539,
                "tempo": 120.0
            },
            {
                "start_time": 10.518181818181818,
                "end_time": 10.706818181818182,
                "pitch": 71,
                "velocity": 51,
                "duration": 0.18863636363636438,
                "tempo": 120.0
            },
            {
                "start_time": 10.722727272727273,
                "end_time": 11.013636363636364,
                "pitch": 72,
                "velocity": 51,
                "duration": 0.290909090909091,
                "tempo": 120.0
            },
            {
                "start_time": 11.029545454545454,
                "end_time": 11.263636363636364,
                "pitch": 72,
                "velocity": 51,
                "duration": 0.23409090909090935,
                "tempo": 120.0
            },
            {
                "start_time": 11.279545454545454,
                "end_time": 11.513636363636364,
                "pitch": 72,
                "velocity": 51,
                "duration": 0.23409090909090935,
                "tempo": 120.0
            },
            {
                "start_time": 11.529545454545454,
                "end_time": 11.763636363636364,
                "pitch": 72,
                "velocity": 51,
                "duration": 0.23409090909090935,
                "tempo": 120.0
            },
            {
                "start_time": 11.779545454545454,
                "end_time": 12.011363636363635,
                "pitch": 72,
                "velocity": 51,
                "duration": 0.2318181818181806,
                "tempo": 120.0
            },
            {
                "start_time": 12.029545454545454,
                "end_time": 12.259090909090908,
                "pitch": 72,
                "velocity": 51,
                "duration": 0.2295454545454536,
                "tempo": 120.0
            },
            {
                "start_time": 12.274999999999999,
                "end_time": 12.504545454545454,
                "pitch": 72,
                "velocity": 51,
                "duration": 0.22954545454545539,
                "tempo": 120.0
            },
            {
                "start_time": 12.522727272727272,
                "end_time": 12.761363636363635,
                "pitch": 72,
                "velocity": 51,
                "duration": 0.2386363636363633,
                "tempo": 120.0
            },
            {
                "start_time": 12.779545454545454,
                "end_time": 13.018181818181818,
                "pitch": 69,
                "velocity": 51,
                "duration": 0.2386363636363633,
                "tempo": 120.0
            },
            {
                "start_time": 13.034090909090908,
                "end_time": 13.268181818181818,
                "pitch": 66,
                "velocity": 51,
                "duration": 0.23409090909090935,
                "tempo": 120.0
            },
            {
                "start_time": 13.284090909090908,
                "end_time": 13.518181818181818,
                "pitch": 66,
                "velocity": 51,
                "duration": 0.23409090909090935,
                "tempo": 120.0
            },
            {
                "start_time": 13.534090909090908,
                "end_time": 13.768181818181818,
                "pitch": 66,
                "velocity": 51,
                "duration": 0.23409090909090935,
                "tempo": 120.0
            },
            {
                "start_time": 13.784090909090908,
                "end_time": 15.595454545454544,
                "pitch": 65,
                "velocity": 51,
                "duration": 1.8113636363636356,
                "tempo": 120.0
            }
        ],
        "Acoustic Bass": [
            {
                "start_time": 0.045454545454545456,
                "end_time": 0.27954545454545454,
                "pitch": 45,
                "velocity": 51,
                "duration": 0.23409090909090907,
                "tempo": 120.0
            },
            {
                "start_time": 0.2954545454545454,
                "end_time": 0.5272727272727272,
                "pitch": 45,
                "velocity": 51,
                "duration": 0.2318181818181818,
                "tempo": 120.0
            },
            {
                "start_time": 0.5431818181818182,
                "end_time": 0.7681818181818182,
                "pitch": 45,
                "velocity": 51,
                "duration": 0.22499999999999998,
                "tempo": 120.0
            },
            {
                "start_time": 0.7840909090909091,
                "end_time": 1.009090909090909,
                "pitch": 45,
                "velocity": 51,
                "duration": 0.22499999999999998,
                "tempo": 120.0
            },
            {
                "start_time": 1.025,
                "end_time": 1.259090909090909,
                "pitch": 45,
                "velocity": 51,
                "duration": 0.23409090909090913,
                "tempo": 120.0
            },
            {
                "start_time": 1.275,
                "end_time": 1.509090909090909,
                "pitch": 45,
                "velocity": 51,
                "duration": 0.23409090909090913,
                "tempo": 120.0
            },
            {
                "start_time": 1.525,
                "end_time": 1.759090909090909,
                "pitch": 45,
                "velocity": 51,
                "duration": 0.23409090909090913,
                "tempo": 120.0
            },
            {
                "start_time": 1.775,
                "end_time": 2.009090909090909,
                "pitch": 45,
                "velocity": 51,
                "duration": 0.2340909090909089,
                "tempo": 120.0
            },
            {
                "start_time": 2.025,
                "end_time": 2.259090909090909,
                "pitch": 45,
                "velocity": 51,
                "duration": 0.2340909090909089,
                "tempo": 120.0
            },
            {
                "start_time": 2.275,
                "end_time": 2.509090909090909,
                "pitch": 55,
                "velocity": 51,
                "duration": 0.2340909090909089,
                "tempo": 120.0
            },
            {
                "start_time": 2.525,
                "end_time": 2.625,
                "pitch": 45,
                "velocity": 51,
                "duration": 0.10000000000000009,
                "tempo": 120.0
            },
            {
                "start_time": 2.6409090909090907,
                "end_time": 2.875,
                "pitch": 53,
                "velocity": 51,
                "duration": 0.23409090909090935,
                "tempo": 120.0
            },
            {
                "start_time": 2.8909090909090907,
                "end_time": 3.009090909090909,
                "pitch": 45,
                "velocity": 51,
                "duration": 0.11818181818181817,
                "tempo": 120.0
            },
            {
                "start_time": 3.025,
                "end_time": 3.259090909090909,
                "pitch": 52,
                "velocity": 51,
                "duration": 0.2340909090909089,
                "tempo": 120.0
            },
            {
                "start_time": 3.275,
                "end_time": 3.509090909090909,
                "pitch": 47,
                "velocity": 51,
                "duration": 0.2340909090909089,
                "tempo": 120.0
            },
            {
                "start_time": 3.525,
                "end_time": 3.759090909090909,
                "pitch": 53,
                "velocity": 51,
                "duration": 0.2340909090909089,
                "tempo": 120.0
            },
            {
                "start_time": 3.775,
                "end_time": 4.009090909090909,
                "pitch": 45,
                "velocity": 51,
                "duration": 0.2340909090909089,
                "tempo": 120.0
            },
            {
                "start_time": 4.0249999999999995,
                "end_time": 4.259090909090909,
                "pitch": 45,
                "velocity": 51,
                "duration": 0.23409090909090935,
                "tempo": 120.0
            },
            {
                "start_time": 4.2749999999999995,
                "end_time": 4.509090909090909,
                "pitch": 45,
                "velocity": 51,
                "duration": 0.23409090909090935,
                "tempo": 120.0
            },
            {
                "start_time": 4.5249999999999995,
                "end_time": 4.759090909090909,
                "pitch": 45,
                "velocity": 51,
                "duration": 0.23409090909090935,
                "tempo": 120.0
            },
            {
                "start_time": 4.7749999999999995,
                "end_time": 5.009090909090909,
                "pitch": 45,
                "velocity": 51,
                "duration": 0.23409090909090935,
                "tempo": 120.0
            },
            {
                "start_time": 5.0249999999999995,
                "end_time": 5.259090909090909,
                "pitch": 45,
                "velocity": 51,
                "duration": 0.23409090909090935,
                "tempo": 120.0
            },
            {
                "start_time": 5.2749999999999995,
                "end_time": 5.509090909090909,
                "pitch": 45,
                "velocity": 51,
                "duration": 0.23409090909090935,
                "tempo": 120.0
            },
            {
                "start_time": 5.5249999999999995,
                "end_time": 5.759090909090909,
                "pitch": 45,
                "velocity": 51,
                "duration": 0.23409090909090935,
                "tempo": 120.0
            },
            {
                "start_time": 5.7749999999999995,
                "end_time": 6.009090909090909,
                "pitch": 45,
                "velocity": 51,
                "duration": 0.23409090909090935,
                "tempo": 120.0
            },
            {
                "start_time": 6.0249999999999995,
                "end_time": 6.259090909090909,
                "pitch": 45,
                "velocity": 51,
                "duration": 0.23409090909090935,
                "tempo": 120.0
            },
            {
                "start_time": 6.2749999999999995,
                "end_time": 6.509090909090909,
                "pitch": 45,
                "velocity": 51,
                "duration": 0.23409090909090935,
                "tempo": 120.0
            },
            {
                "start_time": 6.5249999999999995,
                "end_time": 6.759090909090909,
                "pitch": 45,
                "velocity": 51,
                "duration": 0.23409090909090935,
                "tempo": 120.0
            },
            {
                "start_time": 6.7749999999999995,
                "end_time": 7.009090909090909,
                "pitch": 45,
                "velocity": 51,
                "duration": 0.23409090909090935,
                "tempo": 120.0
            },
            {
                "start_time": 7.0249999999999995,
                "end_time": 7.259090909090909,
                "pitch": 45,
                "velocity": 51,
                "duration": 0.23409090909090935,
                "tempo": 120.0
            },
            {
                "start_time": 7.2749999999999995,
                "end_time": 7.509090909090909,
                "pitch": 45,
                "velocity": 51,
                "duration": 0.23409090909090935,
                "tempo": 120.0
            },
            {
                "start_time": 7.5249999999999995,
                "end_time": 7.759090909090909,
                "pitch": 45,
                "velocity": 51,
                "duration": 0.23409090909090935,
                "tempo": 120.0
            },
            {
                "start_time": 7.7749999999999995,
                "end_time": 8.009090909090908,
                "pitch": 45,
                "velocity": 51,
                "duration": 0.23409090909090846,
                "tempo": 120.0
            },
            {
                "start_time": 8.025,
                "end_time": 8.259090909090908,
                "pitch": 41,
                "velocity": 51,
                "duration": 0.23409090909090757,
                "tempo": 120.0
            },
            {
                "start_time": 8.275,
                "end_time": 8.509090909090908,
                "pitch": 45,
                "velocity": 51,
                "duration": 0.23409090909090757,
                "tempo": 120.0
            },
            {
                "start_time": 8.525,
                "end_time": 8.759090909090908,
                "pitch": 52,
                "velocity": 51,
                "duration": 0.23409090909090757,
                "tempo": 120.0
            },
            {
                "start_time": 8.775,
                "end_time": 10.009090909090908,
                "pitch": 43,
                "velocity": 51,
                "duration": 1.2340909090909076,
                "tempo": 120.0
            },
            {
                "start_time": 10.025,
                "end_time": 10.756818181818181,
                "pitch": 43,
                "velocity": 51,
                "duration": 0.7318181818181806,
                "tempo": 120.0
            },
            {
                "start_time": 10.775,
                "end_time": 12.011363636363635,
                "pitch": 45,
                "velocity": 51,
                "duration": 1.2363636363636346,
                "tempo": 120.0
            },
            {
                "start_time": 12.029545454545454,
                "end_time": 12.259090909090908,
                "pitch": 45,
                "velocity": 51,
                "duration": 0.2295454545454536,
                "tempo": 120.0
            },
            {
                "start_time": 12.274999999999999,
                "end_time": 12.504545454545454,
                "pitch": 46,
                "velocity": 51,
                "duration": 0.22954545454545539,
                "tempo": 120.0
            },
            {
                "start_time": 12.522727272727272,
                "end_time": 12.761363636363635,
                "pitch": 52,
                "velocity": 51,
                "duration": 0.2386363636363633,
                "tempo": 120.0
            },
            {
                "start_time": 12.779545454545454,
                "end_time": 13.768181818181818,
                "pitch": 42,
                "velocity": 51,
                "duration": 0.9886363636363633,
                "tempo": 120.0
            },
            {
                "start_time": 13.784090909090908,
                "end_time": 14.018181818181818,
                "pitch": 41,
                "velocity": 51,
                "duration": 0.23409090909090935,
                "tempo": 120.0
            }
        ]
    }
}