{
    "track_id": "Rambo III (FM) - 02 - Scenes 1 _ 4",
    "mood": "angry",
    "instruments": {
        "Acoustic Bass": [
            {
                "start_time": 0.004545454545454545,
                "end_time": 1.5909090909090908,
                "pitch": 33,
                "velocity": 101,
                "duration": 1.5863636363636362,
                "tempo": 120.0
            },
            {
                "start_time": 3.0113636363636362,
                "end_time": 3.190909090909091,
                "pitch": 29,
                "velocity": 101,
                "duration": 0.17954545454545467,
                "tempo": 120.0
            },
            {
                "start_time": 3.2068181818181816,
                "end_time": 3.7977272727272724,
                "pitch": 31,
                "velocity": 101,
                "duration": 0.5909090909090908,
                "tempo": 120.0
            },
            {
                "start_time": 3.8136363636363635,
                "end_time": 4.402272727272727,
                "pitch": 36,
                "velocity": 101,
                "duration": 0.5886363636363638,
                "tempo": 120.0
            },
            {
                "start_time": 4.420454545454545,
                "end_time": 5.006818181818182,
                "pitch": 35,
                "velocity": 101,
                "duration": 0.5863636363636369,
                "tempo": 120.0
            },
            {
                "start_time": 5.0227272727272725,
                "end_time": 5.597727272727273,
                "pitch": 31,
                "velocity": 101,
                "duration": 0.5750000000000002,
                "tempo": 120.0
            },
            {
                "start_time": 5.61590909090909,
                "end_time": 6.009090909090909,
                "pitch": 29,
                "velocity": 101,
                "duration": 0.3931818181818185,
                "tempo": 120.0
            },
            {
                "start_time": 6.0249999999999995,
                "end_time": 6.3999999999999995,
                "pitch": 31,
                "velocity": 101,
                "duration": 0.375,
                "tempo": 120.0
            },
            {
                "start_time": 6.418181818181818,
                "end_time": 8.006818181818181,
                "pitch": 33,
                "velocity": 101,
                "duration": 1.588636363636363,
                "tempo": 120.0
            },
            {
                "start_time": 9.431818181818182,
                "end_time": 9.611363636363636,
                "pitch": 29,
                "velocity": 101,
                "duration": 0.17954545454545467,
                "tempo": 120.0
            },
            {
                "start_time": 9.627272727272727,
                "end_time": 10.218181818181817,
                "pitch": 31,
                "velocity": 101,
                "duration": 0.5909090909090899,
                "tempo": 120.0
            },
            {
                "start_time": 10.23409090909091,
                "end_time": 10.825,
                "pitch": 31,
                "velocity": 101,
                "duration": 0.5909090909090899,
                "tempo": 120.0
            },
            {
                "start_time": 10.84090909090909,
                "end_time": 12.022727272727272,
                "pitch": 38,
                "velocity": 101,
                "duration": 1.1818181818181817,
                "tempo": 120.0
            },
            {
                "start_time": 12.038636363636362,
                "end_time": 12.424999999999999,
                "pitch": 33,
                "velocity": 101,
                "duration": 0.3863636363636367,
                "tempo": 120.0
            },
            {
                "start_time": 12.44090909090909,
                "end_time": 12.836363636363636,
                "pitch": 31,
                "velocity": 101,
                "duration": 0.3954545454545464,
                "tempo": 120.0
            },
            {
                "start_time": 12.852272727272727,
                "end_time": 14.443181818181818,
                "pitch": 33,
                "velocity": 101,
                "duration": 1.5909090909090917,
                "tempo": 120.0
            },
            {
                "start_time": 15.861363636363636,
                "end_time": 16.04090909090909,
                "pitch": 29,
                "velocity": 101,
                "duration": 0.1795454545454529,
                "tempo": 120.0
            },
            {
                "start_time": 16.05909090909091,
                "end_time": 16.647727272727273,
                "pitch": 31,
                "velocity": 101,
                "duration": 0.5886363636363647,
                "tempo": 120.0
            },
            {
                "start_time": 16.66590909090909,
                "end_time": 17.254545454545454,
                "pitch": 36,
                "velocity": 101,
                "duration": 0.5886363636363647,
                "tempo": 120.0
            },
            {
                "start_time": 17.272727272727273,
                "end_time": 17.85681818181818,
                "pitch": 35,
                "velocity": 101,
                "duration": 0.5840909090909072,
                "tempo": 120.0
            },
            {
                "start_time": 17.875,
                "end_time": 18.45,
                "pitch": 31,
                "velocity": 101,
                "duration": 0.5749999999999993,
                "tempo": 120.0
            },
            {
                "start_time": 18.46590909090909,
                "end_time": 18.85909090909091,
                "pitch": 29,
                "velocity": 101,
                "duration": 0.3931818181818194,
                "tempo": 120.0
            },
            {
                "start_time": 18.877272727272725,
                "end_time": 19.252272727272725,
                "pitch": 31,
                "velocity": 101,
                "duration": 0.375,
                "tempo": 120.0
            },
            {
                "start_time": 19.268181818181816,
                "end_time": 20.85909090909091,
                "pitch": 33,
                "velocity": 101,
                "duration": 1.5909090909090935,
                "tempo": 120.0
            },
            {
                "start_time": 22.284090909090907,
                "end_time": 22.46363636363636,
                "pitch": 29,
                "velocity": 101,
                "duration": 0.17954545454545467,
                "tempo": 120.0
            },
            {
                "start_time": 22.479545454545452,
                "end_time": 23.070454545454545,
                "pitch": 31,
                "velocity": 101,
                "duration": 0.5909090909090935,
                "tempo": 120.0
            },
            {
                "start_time": 23.086363636363636,
                "end_time": 23.674999999999997,
                "pitch": 36,
                "velocity": 101,
                "duration": 0.5886363636363612,
                "tempo": 120.0
            },
            {
                "start_time": 23.693181818181817,
                "end_time": 24.83863636363636,
                "pitch": 38,
                "velocity": 101,
                "duration": 1.1454545454545446,
                "tempo": 120.0
            },
            {
                "start_time": 24.854545454545452,
                "end_time": 25.27272727272727,
                "pitch": 33,
                "velocity": 101,
                "duration": 0.418181818181818,
                "tempo": 120.0
            },
            {
                "start_time": 25.29090909090909,
                "end_time": 25.68409090909091,
                "pitch": 31,
                "velocity": 101,
                "duration": 0.3931818181818194,
                "tempo": 120.0
            },
            {
                "start_time": 25.7,
                "end_time": 26.879545454545454,
                "pitch": 34,
                "velocity": 101,
                "duration": 1.1795454545454547,
                "tempo": 120.0
            },
            {
                "start_time": 26.895454545454545,
                "end_time": 27.288636363636364,
                "pitch": 41,
                "velocity": 101,
                "duration": 0.3931818181818194,
                "tempo": 120.0
            },
            {
                "start_time": 27.30681818181818,
                "end_time": 27.693181818181817,
                "pitch": 44,
                "velocity": 101,
                "duration": 0.3863636363636367,
                "tempo": 120.0
            },
            {
                "start_time": 27.709090909090907,
                "end_time": 28.48409090909091,
                "pitch": 39,
                "velocity": 101,
                "duration": 0.7750000000000021,
                "tempo": 120.0
            },
            {
                "start_time": 28.502272727272725,
                "end_time": 28.884090909090908,
                "pitch": 50,
                "velocity": 101,
                "duration": 0.3818181818181827,
                "tempo": 120.0
            },
            {
                "start_time": 28.902272727272727,
                "end_time": 30.29090909090909,
                "pitch": 44,
                "velocity": 101,
                "duration": 1.388636363636362,
                "tempo": 120.0
            },
            {
                "start_time": 30.30681818181818,
                "end_time": 30.49090909090909,
                "pitch": 48,
                "velocity": 101,
                "duration": 0.18409090909090864,
                "tempo": 120.0
            },
            {
                "start_time": 30.50681818181818,
                "end_time": 31.904545454545453,
                "pitch": 36,
                "velocity": 101,
                "duration": 1.3977272727272734,
                "tempo": 120.0
            },
            {
                "start_time": 31.920454545454543,
                "end_time": 32.10454545454545,
                "pitch": 43,
                "velocity": 101,
                "duration": 0.18409090909090864,
                "tempo": 120.0
            },
            {
                "start_time": 32.12045454545454,
                "end_time": 33.29545454545455,
                "pitch": 41,
                "velocity": 101,
                "duration": 1.1750000000000043,
                "tempo": 120.0
            },
            {
                "start_time": 33.31363636363636,
                "end_time": 33.70681818181818,
                "pitch": 48,
                "velocity": 101,
                "duration": 0.39318181818181586,
                "tempo": 120.0
            },
            {
                "start_time": 33.72272727272727,
                "end_time": 34.89772727272727,
                "pitch": 46,
                "velocity": 101,
                "duration": 1.1750000000000043,
                "tempo": 120.0
            },
            {
                "start_time": 34.91590909090909,
                "end_time": 35.309090909090905,
                "pitch": 53,
                "velocity": 101,
                "duration": 0.39318181818181586,
                "tempo": 120.0
            },
            {
                "start_time": 35.324999999999996,
                "end_time": 36.50454545454545,
                "pitch": 44,
                "velocity": 101,
                "duration": 1.1795454545454547,
                "tempo": 120.0
            },
            {
                "start_time": 36.52045454545454,
                "end_time": 36.913636363636364,
                "pitch": 51,
                "velocity": 101,
                "duration": 0.39318181818182296,
                "tempo": 120.0
            },
            {
                "start_time": 36.93181818181818,
                "end_time": 38.45227272727273,
                "pitch": 50,
                "velocity": 101,
                "duration": 1.5204545454545482,
                "tempo": 120.0
            },
            {
                "start_time": 38.53636363636363,
                "end_time": 40.12272727272727,
                "pitch": 33,
                "velocity": 101,
                "duration": 1.586363636363636,
                "tempo": 120.0
            }
        ],
        "Clarinet": [
            {
                "start_time": 0.07272727272727272,
                "end_time": 1.259090909090909,
                "pitch": 57,
                "velocity": 64,
                "duration": 1.1863636363636363,
                "tempo": 120.0
            },
            {
                "start_time": 1.275,
                "end_time": 1.6568181818181817,
                "pitch": 64,
                "velocity": 64,
                "duration": 0.38181818181818183,
                "tempo": 120.0
            },
            {
                "start_time": 1.6727272727272726,
                "end_time": 1.9931818181818182,
                "pitch": 67,
                "velocity": 64,
                "duration": 0.32045454545454555,
                "tempo": 120.0
            },
            {
                "start_time": 1.9931818181818182,
                "end_time": 2.05,
                "pitch": 67,
                "velocity": 64,
                "duration": 0.05681818181818166,
                "tempo": 120.0
            },
            {
                "start_time": 2.065909090909091,
                "end_time": 3.256818181818182,
                "pitch": 62,
                "velocity": 64,
                "duration": 1.190909090909091,
                "tempo": 120.0
            },
            {
                "start_time": 3.275,
                "end_time": 4.672727272727273,
                "pitch": 62,
                "velocity": 64,
                "duration": 1.397727272727273,
                "tempo": 120.0
            },
            {
                "start_time": 4.6886363636363635,
                "end_time": 4.872727272727272,
                "pitch": 71,
                "velocity": 64,
                "duration": 0.18409090909090864,
                "tempo": 120.0
            },
            {
                "start_time": 4.888636363636364,
                "end_time": 6.2704545454545455,
                "pitch": 59,
                "velocity": 64,
                "duration": 1.3818181818181818,
                "tempo": 120.0
            },
            {
                "start_time": 6.286363636363636,
                "end_time": 6.468181818181818,
                "pitch": 66,
                "velocity": 64,
                "duration": 0.18181818181818166,
                "tempo": 120.0
            },
            {
                "start_time": 6.486363636363636,
                "end_time": 7.679545454545454,
                "pitch": 64,
                "velocity": 64,
                "duration": 1.1931818181818175,
                "tempo": 120.0
            },
            {
                "start_time": 7.695454545454545,
                "end_time": 8.075,
                "pitch": 71,
                "velocity": 64,
                "duration": 0.37954545454545396,
                "tempo": 120.0
            },
            {
                "start_time": 8.09090909090909,
                "end_time": 9.284090909090908,
                "pitch": 69,
                "velocity": 64,
                "duration": 1.1931818181818183,
                "tempo": 120.0
            },
            {
                "start_time": 9.302272727272728,
                "end_time": 9.679545454545455,
                "pitch": 76,
                "velocity": 64,
                "duration": 0.377272727272727,
                "tempo": 120.0
            },
            {
                "start_time": 9.695454545454545,
                "end_time": 10.89090909090909,
                "pitch": 67,
                "velocity": 64,
                "duration": 1.1954545454545453,
                "tempo": 120.0
            },
            {
                "start_time": 10.909090909090908,
                "end_time": 11.295454545454545,
                "pitch": 74,
                "velocity": 64,
                "duration": 0.3863636363636367,
                "tempo": 120.0
            },
            {
                "start_time": 11.311363636363636,
                "end_time": 12.902272727272727,
                "pitch": 73,
                "velocity": 64,
                "duration": 1.5909090909090917,
                "tempo": 120.0
            },
            {
                "start_time": 12.920454545454545,
                "end_time": 14.109090909090908,
                "pitch": 57,
                "velocity": 64,
                "duration": 1.1886363636363626,
                "tempo": 120.0
            },
            {
                "start_time": 14.125,
                "end_time": 14.511363636363635,
                "pitch": 64,
                "velocity": 64,
                "duration": 0.3863636363636349,
                "tempo": 120.0
            },
            {
                "start_time": 14.527272727272727,
                "end_time": 14.911363636363635,
                "pitch": 67,
                "velocity": 64,
                "duration": 0.38409090909090793,
                "tempo": 120.0
            },
            {
                "start_time": 14.929545454545455,
                "end_time": 16.10909090909091,
                "pitch": 62,
                "velocity": 64,
                "duration": 1.1795454545454547,
                "tempo": 120.0
            },
            {
                "start_time": 16.127272727272725,
                "end_time": 17.522727272727273,
                "pitch": 62,
                "velocity": 64,
                "duration": 1.3954545454545482,
                "tempo": 120.0
            },
            {
                "start_time": 17.54090909090909,
                "end_time": 17.724999999999998,
                "pitch": 71,
                "velocity": 64,
                "duration": 0.18409090909090864,
                "tempo": 120.0
            },
            {
                "start_time": 17.74090909090909,
                "end_time": 19.12272727272727,
                "pitch": 59,
                "velocity": 64,
                "duration": 1.3818181818181827,
                "tempo": 120.0
            },
            {
                "start_time": 19.138636363636362,
                "end_time": 19.320454545454545,
                "pitch": 66,
                "velocity": 64,
                "duration": 0.18181818181818343,
                "tempo": 120.0
            },
            {
                "start_time": 19.336363636363636,
                "end_time": 20.53181818181818,
                "pitch": 64,
                "velocity": 64,
                "duration": 1.1954545454545453,
                "tempo": 120.0
            },
            {
                "start_time": 20.547727272727272,
                "end_time": 20.925,
                "pitch": 71,
                "velocity": 64,
                "duration": 0.37727272727272876,
                "tempo": 120.0
            },
            {
                "start_time": 20.943181818181817,
                "end_time": 22.136363636363637,
                "pitch": 69,
                "velocity": 64,
                "duration": 1.1931818181818201,
                "tempo": 120.0
            },
            {
                "start_time": 22.152272727272727,
                "end_time": 22.53181818181818,
                "pitch": 76,
                "velocity": 64,
                "duration": 0.37954545454545396,
                "tempo": 120.0
            },
            {
                "start_time": 22.547727272727272,
                "end_time": 23.74090909090909,
                "pitch": 67,
                "velocity": 64,
                "duration": 1.1931818181818166,
                "tempo": 120.0
            },
            {
                "start_time": 23.759090909090908,
                "end_time": 24.136363636363637,
                "pitch": 74,
                "velocity": 64,
                "duration": 0.37727272727272876,
                "tempo": 120.0
            },
            {
                "start_time": 24.152272727272727,
                "end_time": 25.75,
                "pitch": 73,
                "velocity": 64,
                "duration": 1.5977272727272727,
                "tempo": 120.0
            },
            {
                "start_time": 25.76590909090909,
                "end_time": 26.349999999999998,
                "pitch": 62,
                "velocity": 64,
                "duration": 0.5840909090909072,
                "tempo": 120.0
            },
            {
                "start_time": 26.36590909090909,
                "end_time": 26.94772727272727,
                "pitch": 64,
                "velocity": 64,
                "duration": 0.581818181818182,
                "tempo": 120.0
            },
            {
                "start_time": 26.96363636363636,
                "end_time": 27.35681818181818,
                "pitch": 67,
                "velocity": 64,
                "duration": 0.3931818181818194,
                "tempo": 120.0
            },
            {
                "start_time": 27.37272727272727,
                "end_time": 28.48409090909091,
                "pitch": 62,
                "velocity": 64,
                "duration": 1.111363636363638,
                "tempo": 120.0
            },
            {
                "start_time": 28.968181818181815,
                "end_time": 29.956818181818182,
                "pitch": 65,
                "velocity": 64,
                "duration": 0.9886363636363669,
                "tempo": 120.0
            },
            {
                "start_time": 29.972727272727273,
                "end_time": 30.35681818181818,
                "pitch": 72,
                "velocity": 64,
                "duration": 0.38409090909090793,
                "tempo": 120.0
            },
            {
                "start_time": 30.37272727272727,
                "end_time": 30.55681818181818,
                "pitch": 70,
                "velocity": 64,
                "duration": 0.18409090909090864,
                "tempo": 120.0
            },
            {
                "start_time": 30.57272727272727,
                "end_time": 31.16363636363636,
                "pitch": 69,
                "velocity": 64,
                "duration": 0.5909090909090899,
                "tempo": 120.0
            },
            {
                "start_time": 31.18181818181818,
                "end_time": 31.770454545454545,
                "pitch": 65,
                "velocity": 64,
                "duration": 0.5886363636363647,
                "tempo": 120.0
            },
            {
                "start_time": 31.786363636363635,
                "end_time": 32.17045454545455,
                "pitch": 62,
                "velocity": 64,
                "duration": 0.3840909090909115,
                "tempo": 120.0
            },
            {
                "start_time": 32.18636363636364,
                "end_time": 33.77272727272727,
                "pitch": 62,
                "velocity": 64,
                "duration": 1.586363636363636,
                "tempo": 120.0
            },
            {
                "start_time": 33.788636363636364,
                "end_time": 33.87045454545454,
                "pitch": 57,
                "velocity": 64,
                "duration": 0.08181818181817846,
                "tempo": 120.0
            },
            {
                "start_time": 33.88636363636363,
                "end_time": 33.96818181818182,
                "pitch": 50,
                "velocity": 64,
                "duration": 0.08181818181818556,
                "tempo": 120.0
            },
            {
                "start_time": 33.98409090909091,
                "end_time": 34.06590909090909,
                "pitch": 52,
                "velocity": 64,
                "duration": 0.08181818181817846,
                "tempo": 120.0
            },
            {
                "start_time": 34.08181818181818,
                "end_time": 34.16590909090909,
                "pitch": 53,
                "velocity": 64,
                "duration": 0.08409090909091077,
                "tempo": 120.0
            },
            {
                "start_time": 34.18181818181818,
                "end_time": 34.26590909090909,
                "pitch": 55,
                "velocity": 64,
                "duration": 0.08409090909091077,
                "tempo": 120.0
            },
            {
                "start_time": 34.28181818181818,
                "end_time": 34.36590909090909,
                "pitch": 56,
                "velocity": 64,
                "duration": 0.08409090909091077,
                "tempo": 120.0
            },
            {
                "start_time": 34.38181818181818,
                "end_time": 34.465909090909086,
                "pitch": 58,
                "velocity": 64,
                "duration": 0.08409090909090366,
                "tempo": 120.0
            },
            {
                "start_time": 34.48181818181818,
                "end_time": 34.56590909090909,
                "pitch": 60,
                "velocity": 64,
                "duration": 0.08409090909091077,
                "tempo": 120.0
            },
            {
                "start_time": 34.58181818181818,
                "end_time": 34.66590909090909,
                "pitch": 61,
                "velocity": 64,
                "duration": 0.08409090909091077,
                "tempo": 120.0
            },
            {
                "start_time": 34.68181818181818,
                "end_time": 34.76590909090909,
                "pitch": 63,
                "velocity": 64,
                "duration": 0.08409090909091077,
                "tempo": 120.0
            },
            {
                "start_time": 34.78181818181818,
                "end_time": 35.17272727272727,
                "pitch": 67,
                "velocity": 64,
                "duration": 0.39090909090909065,
                "tempo": 120.0
            },
            {
                "start_time": 35.18863636363636,
                "end_time": 35.375,
                "pitch": 74,
                "velocity": 64,
                "duration": 0.1863636363636374,
                "tempo": 120.0
            },
            {
                "start_time": 35.39090909090909,
                "end_time": 36.37272727272727,
                "pitch": 72,
                "velocity": 64,
                "duration": 0.981818181818177,
                "tempo": 120.0
            },
            {
                "start_time": 36.39090909090909,
                "end_time": 36.777272727272724,
                "pitch": 70,
                "velocity": 64,
                "duration": 0.38636363636363313,
                "tempo": 120.0
            },
            {
                "start_time": 36.79545454545455,
                "end_time": 36.97954545454545,
                "pitch": 72,
                "velocity": 64,
                "duration": 0.18409090909090509,
                "tempo": 120.0
            },
            {
                "start_time": 36.99545454545454,
                "end_time": 38.554545454545455,
                "pitch": 74,
                "velocity": 64,
                "duration": 1.5590909090909122,
                "tempo": 120.0
            },
            {
                "start_time": 38.60454545454545,
                "end_time": 39.79090909090909,
                "pitch": 57,
                "velocity": 64,
                "duration": 1.1863636363636374,
                "tempo": 120.0
            },
            {
                "start_time": 39.80681818181818,
                "end_time": 40.19090909090909,
                "pitch": 64,
                "velocity": 64,
                "duration": 0.38409090909090793,
                "tempo": 120.0
            },
            {
                "start_time": 40.20681818181818,
                "end_time": 40.525,
                "pitch": 67,
                "velocity": 64,
                "duration": 0.3181818181818201,
                "tempo": 120.0
            }
        ],
        "Violin": [
            {
                "start_time": 0.038636363636363635,
                "end_time": 1.2249999999999999,
                "pitch": 69,
                "velocity": 80,
                "duration": 1.1863636363636363,
                "tempo": 120.0
            },
            {
                "start_time": 1.2409090909090907,
                "end_time": 1.625,
                "pitch": 76,
                "velocity": 80,
                "duration": 0.38409090909090926,
                "tempo": 120.0
            },
            {
                "start_time": 1.6409090909090909,
                "end_time": 1.9931818181818182,
                "pitch": 79,
                "velocity": 80,
                "duration": 0.3522727272727273,
                "tempo": 120.0
            },
            {
                "start_time": 1.9931818181818182,
                "end_time": 2.0159090909090907,
                "pitch": 79,
                "velocity": 80,
                "duration": 0.022727272727272485,
                "tempo": 120.0
            },
            {
                "start_time": 2.034090909090909,
                "end_time": 3.2227272727272727,
                "pitch": 74,
                "velocity": 80,
                "duration": 1.1886363636363635,
                "tempo": 120.0
            },
            {
                "start_time": 3.2409090909090907,
                "end_time": 4.638636363636364,
                "pitch": 74,
                "velocity": 80,
                "duration": 1.397727272727273,
                "tempo": 120.0
            },
            {
                "start_time": 4.654545454545454,
                "end_time": 4.838636363636363,
                "pitch": 83,
                "velocity": 80,
                "duration": 0.18409090909090864,
                "tempo": 120.0
            },
            {
                "start_time": 4.8568181818181815,
                "end_time": 6.238636363636363,
                "pitch": 71,
                "velocity": 80,
                "duration": 1.3818181818181818,
                "tempo": 120.0
            },
            {
                "start_time": 6.254545454545454,
                "end_time": 6.434090909090909,
                "pitch": 78,
                "velocity": 80,
                "duration": 0.17954545454545467,
                "tempo": 120.0
            },
            {
                "start_time": 6.452272727272727,
                "end_time": 7.6477272727272725,
                "pitch": 76,
                "velocity": 80,
                "duration": 1.1954545454545453,
                "tempo": 120.0
            },
            {
                "start_time": 7.663636363636363,
                "end_time": 8.038636363636364,
                "pitch": 83,
                "velocity": 80,
                "duration": 0.3750000000000009,
                "tempo": 120.0
            },
            {
                "start_time": 8.056818181818182,
                "end_time": 9.252272727272727,
                "pitch": 81,
                "velocity": 80,
                "duration": 1.1954545454545453,
                "tempo": 120.0
            },
            {
                "start_time": 9.268181818181818,
                "end_time": 9.645454545454545,
                "pitch": 88,
                "velocity": 80,
                "duration": 0.377272727272727,
                "tempo": 120.0
            },
            {
                "start_time": 9.661363636363635,
                "end_time": 10.85909090909091,
                "pitch": 79,
                "velocity": 80,
                "duration": 1.197727272727274,
                "tempo": 120.0
            },
            {
                "start_time": 10.875,
                "end_time": 11.261363636363637,
                "pitch": 86,
                "velocity": 80,
                "duration": 0.3863636363636367,
                "tempo": 120.0
            },
            {
                "start_time": 11.277272727272727,
                "end_time": 12.870454545454544,
                "pitch": 85,
                "velocity": 80,
                "duration": 1.593181818181817,
                "tempo": 120.0
            },
            {
                "start_time": 12.886363636363635,
                "end_time": 14.075,
                "pitch": 69,
                "velocity": 80,
                "duration": 1.1886363636363644,
                "tempo": 120.0
            },
            {
                "start_time": 14.09090909090909,
                "end_time": 14.477272727272727,
                "pitch": 76,
                "velocity": 80,
                "duration": 0.3863636363636367,
                "tempo": 120.0
            },
            {
                "start_time": 14.495454545454544,
                "end_time": 14.879545454545454,
                "pitch": 79,
                "velocity": 80,
                "duration": 0.3840909090909097,
                "tempo": 120.0
            },
            {
                "start_time": 14.895454545454545,
                "end_time": 16.075,
                "pitch": 74,
                "velocity": 80,
                "duration": 1.1795454545454547,
                "tempo": 120.0
            },
            {
                "start_time": 16.09318181818182,
                "end_time": 17.49090909090909,
                "pitch": 74,
                "velocity": 80,
                "duration": 1.3977272727272698,
                "tempo": 120.0
            },
            {
                "start_time": 17.506818181818183,
                "end_time": 17.69090909090909,
                "pitch": 83,
                "velocity": 80,
                "duration": 0.18409090909090864,
                "tempo": 120.0
            },
            {
                "start_time": 17.706818181818182,
                "end_time": 19.08863636363636,
                "pitch": 71,
                "velocity": 80,
                "duration": 1.3818181818181792,
                "tempo": 120.0
            },
            {
                "start_time": 19.10681818181818,
                "end_time": 19.286363636363635,
                "pitch": 78,
                "velocity": 80,
                "duration": 0.17954545454545467,
                "tempo": 120.0
            },
            {
                "start_time": 19.302272727272726,
                "end_time": 20.49772727272727,
                "pitch": 76,
                "velocity": 80,
                "duration": 1.1954545454545453,
                "tempo": 120.0
            },
            {
                "start_time": 20.51590909090909,
                "end_time": 20.89090909090909,
                "pitch": 83,
                "velocity": 80,
                "duration": 0.375,
                "tempo": 120.0
            },
            {
                "start_time": 20.909090909090907,
                "end_time": 22.104545454545452,
                "pitch": 81,
                "velocity": 80,
                "duration": 1.1954545454545453,
                "tempo": 120.0
            },
            {
                "start_time": 22.120454545454546,
                "end_time": 22.49772727272727,
                "pitch": 88,
                "velocity": 80,
                "duration": 0.3772727272727252,
                "tempo": 120.0
            },
            {
                "start_time": 22.513636363636362,
                "end_time": 23.709090909090907,
                "pitch": 79,
                "velocity": 80,
                "duration": 1.1954545454545453,
                "tempo": 120.0
            },
            {
                "start_time": 23.724999999999998,
                "end_time": 24.102272727272727,
                "pitch": 86,
                "velocity": 80,
                "duration": 0.37727272727272876,
                "tempo": 120.0
            },
            {
                "start_time": 24.118181818181817,
                "end_time": 25.71818181818182,
                "pitch": 85,
                "velocity": 80,
                "duration": 1.6000000000000014,
                "tempo": 120.0
            },
            {
                "start_time": 25.73409090909091,
                "end_time": 26.31590909090909,
                "pitch": 74,
                "velocity": 80,
                "duration": 0.581818181818182,
                "tempo": 120.0
            },
            {
                "start_time": 26.331818181818182,
                "end_time": 26.913636363636364,
                "pitch": 76,
                "velocity": 80,
                "duration": 0.581818181818182,
                "tempo": 120.0
            },
            {
                "start_time": 26.929545454545455,
                "end_time": 27.32272727272727,
                "pitch": 79,
                "velocity": 80,
                "duration": 0.39318181818181586,
                "tempo": 120.0
            },
            {
                "start_time": 27.34090909090909,
                "end_time": 28.452272727272724,
                "pitch": 74,
                "velocity": 80,
                "duration": 1.1113636363636346,
                "tempo": 120.0
            },
            {
                "start_time": 28.93409090909091,
                "end_time": 29.922727272727272,
                "pitch": 77,
                "velocity": 80,
                "duration": 0.9886363636363633,
                "tempo": 120.0
            },
            {
                "start_time": 29.938636363636363,
                "end_time": 30.32272727272727,
                "pitch": 84,
                "velocity": 80,
                "duration": 0.38409090909090793,
                "tempo": 120.0
            },
            {
                "start_time": 30.34090909090909,
                "end_time": 30.52272727272727,
                "pitch": 82,
                "velocity": 80,
                "duration": 0.18181818181817988,
                "tempo": 120.0
            },
            {
                "start_time": 30.54090909090909,
                "end_time": 31.129545454545454,
                "pitch": 81,
                "velocity": 80,
                "duration": 0.5886363636363647,
                "tempo": 120.0
            },
            {
                "start_time": 31.145454545454545,
                "end_time": 31.736363636363635,
                "pitch": 77,
                "velocity": 80,
                "duration": 0.5909090909090899,
                "tempo": 120.0
            },
            {
                "start_time": 31.754545454545454,
                "end_time": 32.13636363636363,
                "pitch": 74,
                "velocity": 80,
                "duration": 0.38181818181817917,
                "tempo": 120.0
            },
            {
                "start_time": 32.154545454545456,
                "end_time": 33.73863636363636,
                "pitch": 74,
                "velocity": 80,
                "duration": 1.5840909090909037,
                "tempo": 120.0
            },
            {
                "start_time": 33.75681818181818,
                "end_time": 33.836363636363636,
                "pitch": 69,
                "velocity": 80,
                "duration": 0.07954545454545325,
                "tempo": 120.0
            },
            {
                "start_time": 33.85454545454545,
                "end_time": 33.93636363636364,
                "pitch": 62,
                "velocity": 80,
                "duration": 0.08181818181818556,
                "tempo": 120.0
            },
            {
                "start_time": 33.95227272727273,
                "end_time": 34.03409090909091,
                "pitch": 64,
                "velocity": 80,
                "duration": 0.08181818181817846,
                "tempo": 120.0
            },
            {
                "start_time": 34.05,
                "end_time": 34.13181818181818,
                "pitch": 65,
                "velocity": 80,
                "duration": 0.08181818181818556,
                "tempo": 120.0
            },
            {
                "start_time": 34.14772727272727,
                "end_time": 34.23181818181818,
                "pitch": 67,
                "velocity": 80,
                "duration": 0.08409090909090366,
                "tempo": 120.0
            },
            {
                "start_time": 34.24772727272727,
                "end_time": 34.33181818181818,
                "pitch": 68,
                "velocity": 80,
                "duration": 0.08409090909091077,
                "tempo": 120.0
            },
            {
                "start_time": 34.34772727272727,
                "end_time": 34.43181818181818,
                "pitch": 70,
                "velocity": 80,
                "duration": 0.08409090909091077,
                "tempo": 120.0
            },
            {
                "start_time": 34.44772727272727,
                "end_time": 34.53181818181818,
                "pitch": 72,
                "velocity": 80,
                "duration": 0.08409090909091077,
                "tempo": 120.0
            },
            {
                "start_time": 34.54772727272727,
                "end_time": 34.63181818181818,
                "pitch": 73,
                "velocity": 80,
                "duration": 0.08409090909091077,
                "tempo": 120.0
            },
            {
                "start_time": 34.64772727272727,
                "end_time": 34.73181818181818,
                "pitch": 75,
                "velocity": 80,
                "duration": 0.08409090909090366,
                "tempo": 120.0
            },
            {
                "start_time": 34.74772727272727,
                "end_time": 35.138636363636365,
                "pitch": 79,
                "velocity": 80,
                "duration": 0.39090909090909776,
                "tempo": 120.0
            },
            {
                "start_time": 35.154545454545456,
                "end_time": 35.34318181818182,
                "pitch": 86,
                "velocity": 80,
                "duration": 0.1886363636363626,
                "tempo": 120.0
            },
            {
                "start_time": 35.35909090909091,
                "end_time": 36.340909090909086,
                "pitch": 84,
                "velocity": 80,
                "duration": 0.981818181818177,
                "tempo": 120.0
            },
            {
                "start_time": 36.35681818181818,
                "end_time": 36.74318181818182,
                "pitch": 82,
                "velocity": 80,
                "duration": 0.38636363636364024,
                "tempo": 120.0
            },
            {
                "start_time": 36.76136363636363,
                "end_time": 36.94772727272727,
                "pitch": 84,
                "velocity": 80,
                "duration": 0.1863636363636374,
                "tempo": 120.0
            },
            {
                "start_time": 36.96363636363636,
                "end_time": 38.52045454545454,
                "pitch": 86,
                "velocity": 80,
                "duration": 1.5568181818181799,
                "tempo": 120.0
            },
            {
                "start_time": 38.570454545454545,
                "end_time": 39.75681818181818,
                "pitch": 69,
                "velocity": 80,
                "duration": 1.1863636363636374,
                "tempo": 120.0
            },
            {
                "start_time": 39.77272727272727,
                "end_time": 40.15681818181818,
                "pitch": 76,
                "velocity": 80,
                "duration": 0.38409090909090793,
                "tempo": 120.0
            },
            {
                "start_time": 40.17272727272727,
                "end_time": 40.525,
                "pitch": 79,
                "velocity": 80,
                "duration": 0.3522727272727266,
                "tempo": 120.0
            }
        ]
    }
}