{
    "track_id": "Rambo III (FM) - 06 - Scene 7",
    "mood": "angry",
    "instruments": {
        "Violin": [
            {
                "start_time": 0.0,
                "end_time": 0.08409090909090909,
                "pitch": 54,
                "velocity": 101,
                "duration": 0.08409090909090909,
                "tempo": 120.0
            },
            {
                "start_time": 0.09999999999999999,
                "end_time": 0.9727272727272727,
                "pitch": 56,
                "velocity": 101,
                "duration": 0.8727272727272727,
                "tempo": 120.0
            },
            {
                "start_time": 0.9886363636363635,
                "end_time": 1.1681818181818182,
                "pitch": 59,
                "velocity": 101,
                "duration": 0.17954545454545467,
                "tempo": 120.0
            },
            {
                "start_time": 1.1863636363636363,
                "end_time": 1.3681818181818182,
                "pitch": 66,
                "velocity": 101,
                "duration": 0.18181818181818188,
                "tempo": 120.0
            },
            {
                "start_time": 1.3863636363636362,
                "end_time": 1.7704545454545453,
                "pitch": 64,
                "velocity": 101,
                "duration": 0.38409090909090904,
                "tempo": 120.0
            },
            {
                "start_time": 1.7863636363636364,
                "end_time": 2.1772727272727272,
                "pitch": 63,
                "velocity": 101,
                "duration": 0.3909090909090909,
                "tempo": 120.0
            },
            {
                "start_time": 2.193181818181818,
                "end_time": 2.5795454545454546,
                "pitch": 61,
                "velocity": 101,
                "duration": 0.3863636363636367,
                "tempo": 120.0
            },
            {
                "start_time": 2.5954545454545452,
                "end_time": 2.875,
                "pitch": 59,
                "velocity": 101,
                "duration": 0.27954545454545476,
                "tempo": 120.0
            },
            {
                "start_time": 2.8909090909090907,
                "end_time": 3.175,
                "pitch": 58,
                "velocity": 101,
                "duration": 0.28409090909090917,
                "tempo": 120.0
            },
            {
                "start_time": 3.190909090909091,
                "end_time": 4.179545454545455,
                "pitch": 54,
                "velocity": 101,
                "duration": 0.9886363636363638,
                "tempo": 120.0
            },
            {
                "start_time": 4.195454545454545,
                "end_time": 4.575,
                "pitch": 49,
                "velocity": 101,
                "duration": 0.37954545454545485,
                "tempo": 120.0
            },
            {
                "start_time": 4.590909090909091,
                "end_time": 4.779545454545454,
                "pitch": 51,
                "velocity": 101,
                "duration": 0.1886363636363635,
                "tempo": 120.0
            },
            {
                "start_time": 4.797727272727273,
                "end_time": 5.590909090909091,
                "pitch": 54,
                "velocity": 101,
                "duration": 0.793181818181818,
                "tempo": 120.0
            },
            {
                "start_time": 5.6068181818181815,
                "end_time": 5.781818181818181,
                "pitch": 61,
                "velocity": 101,
                "duration": 0.17499999999999982,
                "tempo": 120.0
            },
            {
                "start_time": 5.797727272727273,
                "end_time": 6.074999999999999,
                "pitch": 59,
                "velocity": 101,
                "duration": 0.27727272727272645,
                "tempo": 120.0
            },
            {
                "start_time": 6.090909090909091,
                "end_time": 6.384090909090909,
                "pitch": 58,
                "velocity": 101,
                "duration": 0.293181818181818,
                "tempo": 120.0
            },
            {
                "start_time": 6.3999999999999995,
                "end_time": 7.195454545454545,
                "pitch": 56,
                "velocity": 101,
                "duration": 0.7954545454545459,
                "tempo": 120.0
            },
            {
                "start_time": 7.213636363636363,
                "end_time": 7.49090909090909,
                "pitch": 66,
                "velocity": 101,
                "duration": 0.27727272727272734,
                "tempo": 120.0
            },
            {
                "start_time": 7.506818181818182,
                "end_time": 7.788636363636363,
                "pitch": 64,
                "velocity": 101,
                "duration": 0.2818181818181813,
                "tempo": 120.0
            },
            {
                "start_time": 7.804545454545454,
                "end_time": 7.988636363636363,
                "pitch": 63,
                "velocity": 101,
                "duration": 0.18409090909090953,
                "tempo": 120.0
            },
            {
                "start_time": 8.006818181818181,
                "end_time": 8.588636363636363,
                "pitch": 61,
                "velocity": 101,
                "duration": 0.581818181818182,
                "tempo": 120.0
            },
            {
                "start_time": 8.604545454545454,
                "end_time": 9.184090909090909,
                "pitch": 59,
                "velocity": 101,
                "duration": 0.579545454545455,
                "tempo": 120.0
            },
            {
                "start_time": 9.2,
                "end_time": 9.593181818181817,
                "pitch": 61,
                "velocity": 101,
                "duration": 0.39318181818181763,
                "tempo": 120.0
            },
            {
                "start_time": 9.611363636363636,
                "end_time": 10.604545454545454,
                "pitch": 63,
                "velocity": 101,
                "duration": 0.9931818181818173,
                "tempo": 120.0
            },
            {
                "start_time": 10.620454545454544,
                "end_time": 10.799999999999999,
                "pitch": 61,
                "velocity": 101,
                "duration": 0.17954545454545467,
                "tempo": 120.0
            },
            {
                "start_time": 10.81590909090909,
                "end_time": 11.002272727272727,
                "pitch": 59,
                "velocity": 101,
                "duration": 0.1863636363636374,
                "tempo": 120.0
            },
            {
                "start_time": 11.018181818181818,
                "end_time": 11.602272727272727,
                "pitch": 64,
                "velocity": 101,
                "duration": 0.584090909090909,
                "tempo": 120.0
            },
            {
                "start_time": 11.620454545454544,
                "end_time": 11.806818181818182,
                "pitch": 63,
                "velocity": 101,
                "duration": 0.1863636363636374,
                "tempo": 120.0
            },
            {
                "start_time": 11.825,
                "end_time": 12.395454545454545,
                "pitch": 66,
                "velocity": 101,
                "duration": 0.5704545454545453,
                "tempo": 120.0
            },
            {
                "start_time": 12.411363636363635,
                "end_time": 12.806818181818182,
                "pitch": 64,
                "velocity": 101,
                "duration": 0.3954545454545464,
                "tempo": 120.0
            },
            {
                "start_time": 12.822727272727272,
                "end_time": 13.811363636363636,
                "pitch": 59,
                "velocity": 101,
                "duration": 0.9886363636363633,
                "tempo": 120.0
            },
            {
                "start_time": 13.827272727272726,
                "end_time": 14.206818181818182,
                "pitch": 58,
                "velocity": 101,
                "duration": 0.37954545454545574,
                "tempo": 120.0
            },
            {
                "start_time": 14.222727272727273,
                "end_time": 14.411363636363635,
                "pitch": 59,
                "velocity": 101,
                "duration": 0.1886363636363626,
                "tempo": 120.0
            },
            {
                "start_time": 14.429545454545455,
                "end_time": 14.613636363636363,
                "pitch": 61,
                "velocity": 101,
                "duration": 0.18409090909090864,
                "tempo": 120.0
            },
            {
                "start_time": 14.629545454545454,
                "end_time": 14.713636363636363,
                "pitch": 63,
                "velocity": 101,
                "duration": 0.084090909090909,
                "tempo": 120.0
            },
            {
                "start_time": 14.729545454545454,
                "end_time": 15.020454545454545,
                "pitch": 64,
                "velocity": 101,
                "duration": 0.290909090909091,
                "tempo": 120.0
            },
            {
                "start_time": 15.036363636363635,
                "end_time": 15.415909090909091,
                "pitch": 63,
                "velocity": 101,
                "duration": 0.37954545454545574,
                "tempo": 120.0
            },
            {
                "start_time": 15.431818181818182,
                "end_time": 15.811363636363636,
                "pitch": 61,
                "velocity": 101,
                "duration": 0.37954545454545396,
                "tempo": 120.0
            },
            {
                "start_time": 15.829545454545453,
                "end_time": 16.018181818181816,
                "pitch": 59,
                "velocity": 101,
                "duration": 0.1886363636363626,
                "tempo": 120.0
            },
            {
                "start_time": 16.03409090909091,
                "end_time": 16.21818181818182,
                "pitch": 66,
                "velocity": 101,
                "duration": 0.18409090909090864,
                "tempo": 120.0
            },
            {
                "start_time": 16.236363636363635,
                "end_time": 16.320454545454545,
                "pitch": 64,
                "velocity": 101,
                "duration": 0.08409090909091077,
                "tempo": 120.0
            },
            {
                "start_time": 16.336363636363636,
                "end_time": 16.420454545454543,
                "pitch": 63,
                "velocity": 101,
                "duration": 0.08409090909090722,
                "tempo": 120.0
            },
            {
                "start_time": 16.436363636363634,
                "end_time": 16.522727272727273,
                "pitch": 61,
                "velocity": 101,
                "duration": 0.08636363636363953,
                "tempo": 120.0
            },
            {
                "start_time": 16.538636363636364,
                "end_time": 16.625,
                "pitch": 63,
                "velocity": 101,
                "duration": 0.08636363636363598,
                "tempo": 120.0
            },
            {
                "start_time": 16.643181818181816,
                "end_time": 16.693181818181817,
                "pitch": 59,
                "velocity": 101,
                "duration": 0.05000000000000071,
                "tempo": 120.0
            },
            {
                "start_time": 16.711363636363636,
                "end_time": 16.831818181818182,
                "pitch": 61,
                "velocity": 101,
                "duration": 0.12045454545454604,
                "tempo": 120.0
            },
            {
                "start_time": 16.847727272727273,
                "end_time": 17.125,
                "pitch": 59,
                "velocity": 101,
                "duration": 0.27727272727272734,
                "tempo": 120.0
            },
            {
                "start_time": 17.14090909090909,
                "end_time": 17.422727272727272,
                "pitch": 58,
                "velocity": 101,
                "duration": 0.2818181818181813,
                "tempo": 120.0
            },
            {
                "start_time": 17.44090909090909,
                "end_time": 18.025,
                "pitch": 56,
                "velocity": 101,
                "duration": 0.5840909090909072,
                "tempo": 120.0
            },
            {
                "start_time": 18.043181818181818,
                "end_time": 18.829545454545453,
                "pitch": 54,
                "velocity": 101,
                "duration": 0.7863636363636353,
                "tempo": 120.0
            },
            {
                "start_time": 18.845454545454544,
                "end_time": 19.029545454545453,
                "pitch": 51,
                "velocity": 101,
                "duration": 0.18409090909090864,
                "tempo": 120.0
            },
            {
                "start_time": 19.047727272727272,
                "end_time": 19.23181818181818,
                "pitch": 52,
                "velocity": 101,
                "duration": 0.18409090909090864,
                "tempo": 120.0
            },
            {
                "start_time": 19.24772727272727,
                "end_time": 19.836363636363636,
                "pitch": 54,
                "velocity": 101,
                "duration": 0.5886363636363647,
                "tempo": 120.0
            },
            {
                "start_time": 19.854545454545452,
                "end_time": 20.238636363636363,
                "pitch": 61,
                "velocity": 101,
                "duration": 0.3840909090909115,
                "tempo": 120.0
            },
            {
                "start_time": 20.254545454545454,
                "end_time": 20.634090909090908,
                "pitch": 59,
                "velocity": 101,
                "duration": 0.37954545454545396,
                "tempo": 120.0
            },
            {
                "start_time": 20.652272727272727,
                "end_time": 20.834090909090907,
                "pitch": 66,
                "velocity": 101,
                "duration": 0.18181818181817988,
                "tempo": 120.0
            },
            {
                "start_time": 20.852272727272727,
                "end_time": 20.93409090909091,
                "pitch": 66,
                "velocity": 101,
                "duration": 0.08181818181818201,
                "tempo": 120.0
            },
            {
                "start_time": 20.952272727272724,
                "end_time": 21.647727272727273,
                "pitch": 68,
                "velocity": 101,
                "duration": 0.6954545454545489,
                "tempo": 120.0
            },
            {
                "start_time": 21.663636363636364,
                "end_time": 21.943181818181817,
                "pitch": 66,
                "velocity": 101,
                "duration": 0.27954545454545254,
                "tempo": 120.0
            },
            {
                "start_time": 21.959090909090907,
                "end_time": 22.04090909090909,
                "pitch": 65,
                "velocity": 101,
                "duration": 0.08181818181818201,
                "tempo": 120.0
            },
            {
                "start_time": 22.05681818181818,
                "end_time": 22.44090909090909,
                "pitch": 64,
                "velocity": 101,
                "duration": 0.3840909090909115,
                "tempo": 120.0
            },
            {
                "start_time": 22.456818181818182,
                "end_time": 22.64090909090909,
                "pitch": 63,
                "velocity": 101,
                "duration": 0.18409090909090864,
                "tempo": 120.0
            },
            {
                "start_time": 22.65681818181818,
                "end_time": 22.74090909090909,
                "pitch": 61,
                "velocity": 101,
                "duration": 0.08409090909090722,
                "tempo": 120.0
            },
            {
                "start_time": 22.75681818181818,
                "end_time": 22.938636363636363,
                "pitch": 59,
                "velocity": 101,
                "duration": 0.18181818181818343,
                "tempo": 120.0
            },
            {
                "start_time": 22.954545454545453,
                "end_time": 23.134090909090908,
                "pitch": 61,
                "velocity": 101,
                "duration": 0.17954545454545467,
                "tempo": 120.0
            },
            {
                "start_time": 23.15,
                "end_time": 23.643181818181816,
                "pitch": 63,
                "velocity": 101,
                "duration": 0.4931818181818173,
                "tempo": 120.0
            },
            {
                "start_time": 23.659090909090907,
                "end_time": 24.045454545454543,
                "pitch": 59,
                "velocity": 101,
                "duration": 0.3863636363636367,
                "tempo": 120.0
            },
            {
                "start_time": 24.061363636363634,
                "end_time": 24.445454545454545,
                "pitch": 66,
                "velocity": 101,
                "duration": 0.3840909090909115,
                "tempo": 120.0
            },
            {
                "start_time": 24.461363636363636,
                "end_time": 24.85681818181818,
                "pitch": 64,
                "velocity": 101,
                "duration": 0.3954545454545446,
                "tempo": 120.0
            },
            {
                "start_time": 24.87272727272727,
                "end_time": 25.25681818181818,
                "pitch": 66,
                "velocity": 101,
                "duration": 0.38409090909090793,
                "tempo": 120.0
            },
            {
                "start_time": 25.27272727272727,
                "end_time": 25.65,
                "pitch": 68,
                "velocity": 101,
                "duration": 0.37727272727272876,
                "tempo": 120.0
            },
            {
                "start_time": 25.66590909090909,
                "end_time": 26.652272727272727,
                "pitch": 71,
                "velocity": 101,
                "duration": 0.9863636363636381,
                "tempo": 120.0
            },
            {
                "start_time": 26.668181818181818,
                "end_time": 26.852272727272727,
                "pitch": 71,
                "velocity": 101,
                "duration": 0.18409090909090864,
                "tempo": 120.0
            },
            {
                "start_time": 26.868181818181817,
                "end_time": 27.052272727272726,
                "pitch": 69,
                "velocity": 101,
                "duration": 0.18409090909090864,
                "tempo": 120.0
            },
            {
                "start_time": 27.070454545454545,
                "end_time": 27.454545454545453,
                "pitch": 76,
                "velocity": 101,
                "duration": 0.38409090909090793,
                "tempo": 120.0
            },
            {
                "start_time": 27.470454545454544,
                "end_time": 27.654545454545453,
                "pitch": 75,
                "velocity": 101,
                "duration": 0.18409090909090864,
                "tempo": 120.0
            },
            {
                "start_time": 27.670454545454543,
                "end_time": 27.854545454545452,
                "pitch": 71,
                "velocity": 101,
                "duration": 0.18409090909090864,
                "tempo": 120.0
            },
            {
                "start_time": 27.87272727272727,
                "end_time": 28.25681818181818,
                "pitch": 73,
                "velocity": 101,
                "duration": 0.38409090909090793,
                "tempo": 120.0
            },
            {
                "start_time": 28.27272727272727,
                "end_time": 28.652272727272727,
                "pitch": 75,
                "velocity": 101,
                "duration": 0.3795454545454575,
                "tempo": 120.0
            },
            {
                "start_time": 28.670454545454543,
                "end_time": 28.849999999999998,
                "pitch": 76,
                "velocity": 101,
                "duration": 0.17954545454545467,
                "tempo": 120.0
            },
            {
                "start_time": 28.86590909090909,
                "end_time": 29.054545454545455,
                "pitch": 73,
                "velocity": 101,
                "duration": 0.18863636363636616,
                "tempo": 120.0
            },
            {
                "start_time": 29.070454545454545,
                "end_time": 29.259090909090908,
                "pitch": 78,
                "velocity": 101,
                "duration": 0.1886363636363626,
                "tempo": 120.0
            },
            {
                "start_time": 29.277272727272727,
                "end_time": 29.459090909090907,
                "pitch": 75,
                "velocity": 101,
                "duration": 0.18181818181817988,
                "tempo": 120.0
            },
            {
                "start_time": 29.477272727272727,
                "end_time": 29.861363636363635,
                "pitch": 76,
                "velocity": 101,
                "duration": 0.38409090909090793,
                "tempo": 120.0
            },
            {
                "start_time": 29.877272727272725,
                "end_time": 30.261363636363633,
                "pitch": 78,
                "velocity": 101,
                "duration": 0.38409090909090793,
                "tempo": 120.0
            },
            {
                "start_time": 30.279545454545453,
                "end_time": 30.661363636363635,
                "pitch": 76,
                "velocity": 101,
                "duration": 0.3818181818181827,
                "tempo": 120.0
            },
            {
                "start_time": 30.679545454545455,
                "end_time": 30.861363636363635,
                "pitch": 78,
                "velocity": 101,
                "duration": 0.18181818181817988,
                "tempo": 120.0
            },
            {
                "start_time": 30.879545454545454,
                "end_time": 31.063636363636363,
                "pitch": 76,
                "velocity": 101,
                "duration": 0.18409090909090864,
                "tempo": 120.0
            },
            {
                "start_time": 31.079545454545453,
                "end_time": 31.26590909090909,
                "pitch": 78,
                "velocity": 101,
                "duration": 0.1863636363636374,
                "tempo": 120.0
            },
            {
                "start_time": 31.28181818181818,
                "end_time": 31.461363636363636,
                "pitch": 75,
                "velocity": 101,
                "duration": 0.17954545454545467,
                "tempo": 120.0
            },
            {
                "start_time": 31.477272727272727,
                "end_time": 31.65681818181818,
                "pitch": 76,
                "velocity": 101,
                "duration": 0.17954545454545467,
                "tempo": 120.0
            },
            {
                "start_time": 31.672727272727272,
                "end_time": 31.759090909090908,
                "pitch": 76,
                "velocity": 101,
                "duration": 0.08636363636363598,
                "tempo": 120.0
            },
            {
                "start_time": 31.777272727272727,
                "end_time": 31.861363636363635,
                "pitch": 75,
                "velocity": 101,
                "duration": 0.08409090909090722,
                "tempo": 120.0
            },
            {
                "start_time": 31.879545454545454,
                "end_time": 32.06818181818182,
                "pitch": 73,
                "velocity": 101,
                "duration": 0.18863636363636616,
                "tempo": 120.0
            },
            {
                "start_time": 32.08409090909091,
                "end_time": 32.46818181818182,
                "pitch": 73,
                "velocity": 101,
                "duration": 0.38409090909090793,
                "tempo": 120.0
            },
            {
                "start_time": 32.48409090909091,
                "end_time": 32.663636363636364,
                "pitch": 76,
                "velocity": 101,
                "duration": 0.17954545454545467,
                "tempo": 120.0
            },
            {
                "start_time": 32.679545454545455,
                "end_time": 33.059090909090905,
                "pitch": 78,
                "velocity": 101,
                "duration": 0.3795454545454504,
                "tempo": 120.0
            },
            {
                "start_time": 33.07727272727273,
                "end_time": 33.25909090909091,
                "pitch": 76,
                "velocity": 101,
                "duration": 0.18181818181817988,
                "tempo": 120.0
            },
            {
                "start_time": 33.277272727272724,
                "end_time": 33.65909090909091,
                "pitch": 75,
                "velocity": 101,
                "duration": 0.3818181818181827,
                "tempo": 120.0
            },
            {
                "start_time": 33.67727272727272,
                "end_time": 33.96818181818182,
                "pitch": 71,
                "velocity": 101,
                "duration": 0.29090909090909634,
                "tempo": 120.0
            },
            {
                "start_time": 33.98409090909091,
                "end_time": 34.070454545454545,
                "pitch": 73,
                "velocity": 101,
                "duration": 0.08636363636363598,
                "tempo": 120.0
            },
            {
                "start_time": 34.08863636363636,
                "end_time": 34.470454545454544,
                "pitch": 71,
                "velocity": 101,
                "duration": 0.3818181818181827,
                "tempo": 120.0
            },
            {
                "start_time": 34.48863636363636,
                "end_time": 34.570454545454545,
                "pitch": 73,
                "velocity": 101,
                "duration": 0.08181818181818556,
                "tempo": 120.0
            },
            {
                "start_time": 34.58863636363636,
                "end_time": 34.67045454545455,
                "pitch": 75,
                "velocity": 101,
                "duration": 0.08181818181818556,
                "tempo": 120.0
            },
            {
                "start_time": 34.68863636363636,
                "end_time": 34.77045454545454,
                "pitch": 76,
                "velocity": 101,
                "duration": 0.08181818181817846,
                "tempo": 120.0
            },
            {
                "start_time": 34.788636363636364,
                "end_time": 35.070454545454545,
                "pitch": 78,
                "velocity": 101,
                "duration": 0.2818181818181813,
                "tempo": 120.0
            },
            {
                "start_time": 35.08863636363636,
                "end_time": 35.27045454545454,
                "pitch": 76,
                "velocity": 101,
                "duration": 0.18181818181817988,
                "tempo": 120.0
            },
            {
                "start_time": 35.288636363636364,
                "end_time": 35.47272727272727,
                "pitch": 75,
                "velocity": 101,
                "duration": 0.18409090909090509,
                "tempo": 120.0
            },
            {
                "start_time": 35.48863636363636,
                "end_time": 35.77272727272727,
                "pitch": 73,
                "velocity": 101,
                "duration": 0.2840909090909136,
                "tempo": 120.0
            },
            {
                "start_time": 35.788636363636364,
                "end_time": 35.96818181818182,
                "pitch": 71,
                "velocity": 101,
                "duration": 0.17954545454545467,
                "tempo": 120.0
            },
            {
                "start_time": 35.98409090909091,
                "end_time": 36.26590909090909,
                "pitch": 75,
                "velocity": 101,
                "duration": 0.2818181818181813,
                "tempo": 120.0
            },
            {
                "start_time": 36.28181818181818,
                "end_time": 36.36590909090909,
                "pitch": 70,
                "velocity": 101,
                "duration": 0.08409090909091077,
                "tempo": 120.0
            },
            {
                "start_time": 36.38181818181818,
                "end_time": 36.67045454545455,
                "pitch": 68,
                "velocity": 101,
                "duration": 0.288636363636364,
                "tempo": 120.0
            },
            {
                "start_time": 36.68863636363636,
                "end_time": 36.877272727272725,
                "pitch": 66,
                "velocity": 101,
                "duration": 0.1886363636363626,
                "tempo": 120.0
            },
            {
                "start_time": 36.893181818181816,
                "end_time": 37.68636363636364,
                "pitch": 68,
                "velocity": 101,
                "duration": 0.7931818181818215,
                "tempo": 120.0
            },
            {
                "start_time": 37.70454545454545,
                "end_time": 37.788636363636364,
                "pitch": 61,
                "velocity": 101,
                "duration": 0.08409090909091077,
                "tempo": 120.0
            },
            {
                "start_time": 37.804545454545455,
                "end_time": 37.88863636363636,
                "pitch": 63,
                "velocity": 101,
                "duration": 0.08409090909090366,
                "tempo": 120.0
            },
            {
                "start_time": 37.904545454545456,
                "end_time": 37.98863636363636,
                "pitch": 64,
                "velocity": 101,
                "duration": 0.08409090909090366,
                "tempo": 120.0
            },
            {
                "start_time": 38.00454545454545,
                "end_time": 38.08863636363636,
                "pitch": 59,
                "velocity": 101,
                "duration": 0.08409090909091077,
                "tempo": 120.0
            },
            {
                "start_time": 38.10454545454545,
                "end_time": 38.18636363636364,
                "pitch": 58,
                "velocity": 101,
                "duration": 0.08181818181818556,
                "tempo": 120.0
            },
            {
                "start_time": 38.20227272727273,
                "end_time": 38.48863636363636,
                "pitch": 54,
                "velocity": 101,
                "duration": 0.2863636363636317,
                "tempo": 120.0
            }
        ],
        "Acoustic Bass": [
            {
                "start_time": 0.0,
                "end_time": 0.18409090909090908,
                "pitch": 44,
                "velocity": 64,
                "duration": 0.18409090909090908,
                "tempo": 120.0
            },
            {
                "start_time": 0.19999999999999998,
                "end_time": 0.28409090909090906,
                "pitch": 44,
                "velocity": 64,
                "duration": 0.08409090909090908,
                "tempo": 120.0
            },
            {
                "start_time": 0.3,
                "end_time": 0.3840909090909091,
                "pitch": 44,
                "velocity": 64,
                "duration": 0.0840909090909091,
                "tempo": 120.0
            },
            {
                "start_time": 0.39999999999999997,
                "end_time": 0.5818181818181818,
                "pitch": 44,
                "velocity": 64,
                "duration": 0.18181818181818182,
                "tempo": 120.0
            },
            {
                "start_time": 0.5977272727272727,
                "end_time": 0.6795454545454546,
                "pitch": 44,
                "velocity": 64,
                "duration": 0.0818181818181819,
                "tempo": 120.0
            },
            {
                "start_time": 0.6954545454545454,
                "end_time": 0.7772727272727272,
                "pitch": 44,
                "velocity": 64,
                "duration": 0.08181818181818179,
                "tempo": 120.0
            },
            {
                "start_time": 0.7931818181818181,
                "end_time": 0.9727272727272727,
                "pitch": 44,
                "velocity": 64,
                "duration": 0.17954545454545456,
                "tempo": 120.0
            },
            {
                "start_time": 0.9886363636363635,
                "end_time": 1.0704545454545453,
                "pitch": 44,
                "velocity": 64,
                "duration": 0.08181818181818179,
                "tempo": 120.0
            },
            {
                "start_time": 1.0863636363636364,
                "end_time": 1.1681818181818182,
                "pitch": 44,
                "velocity": 64,
                "duration": 0.08181818181818179,
                "tempo": 120.0
            },
            {
                "start_time": 1.1863636363636363,
                "end_time": 1.268181818181818,
                "pitch": 42,
                "velocity": 64,
                "duration": 0.08181818181818179,
                "tempo": 120.0
            },
            {
                "start_time": 1.2863636363636364,
                "end_time": 1.3681818181818182,
                "pitch": 44,
                "velocity": 64,
                "duration": 0.08181818181818179,
                "tempo": 120.0
            },
            {
                "start_time": 1.3863636363636362,
                "end_time": 1.468181818181818,
                "pitch": 37,
                "velocity": 64,
                "duration": 0.08181818181818179,
                "tempo": 120.0
            },
            {
                "start_time": 1.4863636363636363,
                "end_time": 1.5681818181818181,
                "pitch": 35,
                "velocity": 64,
                "duration": 0.08181818181818179,
                "tempo": 120.0
            },
            {
                "start_time": 1.5863636363636362,
                "end_time": 1.7704545454545453,
                "pitch": 44,
                "velocity": 64,
                "duration": 0.18409090909090908,
                "tempo": 120.0
            },
            {
                "start_time": 1.7863636363636364,
                "end_time": 1.8704545454545454,
                "pitch": 44,
                "velocity": 64,
                "duration": 0.084090909090909,
                "tempo": 120.0
            },
            {
                "start_time": 1.8886363636363634,
                "end_time": 1.9704545454545455,
                "pitch": 44,
                "velocity": 64,
                "duration": 0.08181818181818201,
                "tempo": 120.0
            },
            {
                "start_time": 1.9886363636363635,
                "end_time": 2.1772727272727272,
                "pitch": 44,
                "velocity": 64,
                "duration": 0.1886363636363637,
                "tempo": 120.0
            },
            {
                "start_time": 2.193181818181818,
                "end_time": 2.2795454545454543,
                "pitch": 44,
                "velocity": 64,
                "duration": 0.08636363636363642,
                "tempo": 120.0
            },
            {
                "start_time": 2.2954545454545454,
                "end_time": 2.381818181818182,
                "pitch": 44,
                "velocity": 64,
                "duration": 0.08636363636363642,
                "tempo": 120.0
            },
            {
                "start_time": 2.4,
                "end_time": 2.5795454545454546,
                "pitch": 44,
                "velocity": 64,
                "duration": 0.17954545454545467,
                "tempo": 120.0
            },
            {
                "start_time": 2.5954545454545452,
                "end_time": 2.6772727272727272,
                "pitch": 44,
                "velocity": 64,
                "duration": 0.08181818181818201,
                "tempo": 120.0
            },
            {
                "start_time": 2.693181818181818,
                "end_time": 2.775,
                "pitch": 44,
                "velocity": 64,
                "duration": 0.08181818181818201,
                "tempo": 120.0
            },
            {
                "start_time": 2.7909090909090906,
                "end_time": 2.875,
                "pitch": 42,
                "velocity": 64,
                "duration": 0.08409090909090944,
                "tempo": 120.0
            },
            {
                "start_time": 2.8909090909090907,
                "end_time": 2.9749999999999996,
                "pitch": 44,
                "velocity": 64,
                "duration": 0.084090909090909,
                "tempo": 120.0
            },
            {
                "start_time": 2.9909090909090907,
                "end_time": 3.0749999999999997,
                "pitch": 37,
                "velocity": 64,
                "duration": 0.084090909090909,
                "tempo": 120.0
            },
            {
                "start_time": 3.090909090909091,
                "end_time": 3.175,
                "pitch": 35,
                "velocity": 64,
                "duration": 0.084090909090909,
                "tempo": 120.0
            },
            {
                "start_time": 3.190909090909091,
                "end_time": 3.375,
                "pitch": 44,
                "velocity": 64,
                "duration": 0.18409090909090908,
                "tempo": 120.0
            },
            {
                "start_time": 3.393181818181818,
                "end_time": 3.477272727272727,
                "pitch": 44,
                "velocity": 64,
                "duration": 0.084090909090909,
                "tempo": 120.0
            },
            {
                "start_time": 3.493181818181818,
                "end_time": 3.577272727272727,
                "pitch": 44,
                "velocity": 64,
                "duration": 0.084090909090909,
                "tempo": 120.0
            },
            {
                "start_time": 3.593181818181818,
                "end_time": 3.7818181818181817,
                "pitch": 44,
                "velocity": 64,
                "duration": 0.18863636363636394,
                "tempo": 120.0
            },
            {
                "start_time": 3.8,
                "end_time": 3.884090909090909,
                "pitch": 44,
                "velocity": 64,
                "duration": 0.084090909090909,
                "tempo": 120.0
            },
            {
                "start_time": 3.902272727272727,
                "end_time": 3.9863636363636363,
                "pitch": 44,
                "velocity": 64,
                "duration": 0.08409090909090944,
                "tempo": 120.0
            },
            {
                "start_time": 4.004545454545454,
                "end_time": 4.179545454545455,
                "pitch": 44,
                "velocity": 64,
                "duration": 0.1750000000000007,
                "tempo": 120.0
            },
            {
                "start_time": 4.195454545454545,
                "end_time": 4.2749999999999995,
                "pitch": 44,
                "velocity": 64,
                "duration": 0.07954545454545414,
                "tempo": 120.0
            },
            {
                "start_time": 4.290909090909091,
                "end_time": 4.370454545454545,
                "pitch": 44,
                "velocity": 64,
                "duration": 0.07954545454545414,
                "tempo": 120.0
            },
            {
                "start_time": 4.386363636363636,
                "end_time": 4.472727272727273,
                "pitch": 42,
                "velocity": 64,
                "duration": 0.08636363636363686,
                "tempo": 120.0
            },
            {
                "start_time": 4.488636363636363,
                "end_time": 4.575,
                "pitch": 44,
                "velocity": 64,
                "duration": 0.08636363636363686,
                "tempo": 120.0
            },
            {
                "start_time": 4.590909090909091,
                "end_time": 4.677272727272727,
                "pitch": 37,
                "velocity": 64,
                "duration": 0.08636363636363598,
                "tempo": 120.0
            },
            {
                "start_time": 4.693181818181818,
                "end_time": 4.779545454545454,
                "pitch": 35,
                "velocity": 64,
                "duration": 0.08636363636363598,
                "tempo": 120.0
            },
            {
                "start_time": 4.797727272727273,
                "end_time": 4.9795454545454545,
                "pitch": 44,
                "velocity": 64,
                "duration": 0.18181818181818166,
                "tempo": 120.0
            },
            {
                "start_time": 4.997727272727272,
                "end_time": 5.079545454545454,
                "pitch": 44,
                "velocity": 64,
                "duration": 0.08181818181818201,
                "tempo": 120.0
            },
            {
                "start_time": 5.097727272727273,
                "end_time": 5.179545454545455,
                "pitch": 44,
                "velocity": 64,
                "duration": 0.08181818181818201,
                "tempo": 120.0
            },
            {
                "start_time": 5.197727272727272,
                "end_time": 5.384090909090909,
                "pitch": 44,
                "velocity": 64,
                "duration": 0.1863636363636365,
                "tempo": 120.0
            },
            {
                "start_time": 5.402272727272727,
                "end_time": 5.488636363636363,
                "pitch": 44,
                "velocity": 64,
                "duration": 0.08636363636363598,
                "tempo": 120.0
            },
            {
                "start_time": 5.504545454545454,
                "end_time": 5.590909090909091,
                "pitch": 44,
                "velocity": 64,
                "duration": 0.08636363636363686,
                "tempo": 120.0
            },
            {
                "start_time": 5.6068181818181815,
                "end_time": 5.781818181818181,
                "pitch": 44,
                "velocity": 64,
                "duration": 0.17499999999999982,
                "tempo": 120.0
            },
            {
                "start_time": 5.797727272727273,
                "end_time": 5.877272727272727,
                "pitch": 44,
                "velocity": 64,
                "duration": 0.07954545454545414,
                "tempo": 120.0
            },
            {
                "start_time": 5.893181818181818,
                "end_time": 5.972727272727273,
                "pitch": 44,
                "velocity": 64,
                "duration": 0.07954545454545503,
                "tempo": 120.0
            },
            {
                "start_time": 5.988636363636363,
                "end_time": 6.074999999999999,
                "pitch": 42,
                "velocity": 64,
                "duration": 0.08636363636363598,
                "tempo": 120.0
            },
            {
                "start_time": 6.090909090909091,
                "end_time": 6.177272727272727,
                "pitch": 44,
                "velocity": 64,
                "duration": 0.08636363636363598,
                "tempo": 120.0
            },
            {
                "start_time": 6.195454545454545,
                "end_time": 6.279545454545454,
                "pitch": 37,
                "velocity": 64,
                "duration": 0.084090909090909,
                "tempo": 120.0
            },
            {
                "start_time": 6.297727272727273,
                "end_time": 6.384090909090909,
                "pitch": 35,
                "velocity": 64,
                "duration": 0.08636363636363598,
                "tempo": 120.0
            },
            {
                "start_time": 6.3999999999999995,
                "end_time": 6.584090909090909,
                "pitch": 42,
                "velocity": 64,
                "duration": 0.18409090909090953,
                "tempo": 120.0
            },
            {
                "start_time": 6.602272727272727,
                "end_time": 6.686363636363636,
                "pitch": 42,
                "velocity": 64,
                "duration": 0.084090909090909,
                "tempo": 120.0
            },
            {
                "start_time": 6.702272727272727,
                "end_time": 6.786363636363636,
                "pitch": 42,
                "velocity": 64,
                "duration": 0.084090909090909,
                "tempo": 120.0
            },
            {
                "start_time": 6.802272727272727,
                "end_time": 6.99090909090909,
                "pitch": 42,
                "velocity": 64,
                "duration": 0.1886363636363635,
                "tempo": 120.0
            },
            {
                "start_time": 7.009090909090909,
                "end_time": 7.093181818181818,
                "pitch": 42,
                "velocity": 64,
                "duration": 0.084090909090909,
                "tempo": 120.0
            },
            {
                "start_time": 7.111363636363636,
                "end_time": 7.195454545454545,
                "pitch": 42,
                "velocity": 64,
                "duration": 0.084090909090909,
                "tempo": 120.0
            },
            {
                "start_time": 7.213636363636363,
                "end_time": 7.393181818181818,
                "pitch": 42,
                "velocity": 64,
                "duration": 0.17954545454545467,
                "tempo": 120.0
            },
            {
                "start_time": 7.409090909090909,
                "end_time": 7.49090909090909,
                "pitch": 42,
                "velocity": 64,
                "duration": 0.08181818181818112,
                "tempo": 120.0
            },
            {
                "start_time": 7.506818181818182,
                "end_time": 7.588636363636363,
                "pitch": 42,
                "velocity": 64,
                "duration": 0.08181818181818112,
                "tempo": 120.0
            },
            {
                "start_time": 7.6045454545454545,
                "end_time": 7.6886363636363635,
                "pitch": 40,
                "velocity": 64,
                "duration": 0.084090909090909,
                "tempo": 120.0
            },
            {
                "start_time": 7.704545454545454,
                "end_time": 7.788636363636363,
                "pitch": 42,
                "velocity": 64,
                "duration": 0.084090909090909,
                "tempo": 120.0
            },
            {
                "start_time": 7.804545454545454,
                "end_time": 7.888636363636364,
                "pitch": 37,
                "velocity": 64,
                "duration": 0.08409090909090988,
                "tempo": 120.0
            },
            {
                "start_time": 7.904545454545454,
                "end_time": 7.988636363636363,
                "pitch": 35,
                "velocity": 64,
                "duration": 0.084090909090909,
                "tempo": 120.0
            },
            {
                "start_time": 8.006818181818181,
                "end_time": 8.190909090909091,
                "pitch": 42,
                "velocity": 64,
                "duration": 0.18409090909091042,
                "tempo": 120.0
            },
            {
                "start_time": 8.206818181818182,
                "end_time": 8.290909090909091,
                "pitch": 42,
                "velocity": 64,
                "duration": 0.084090909090909,
                "tempo": 120.0
            },
            {
                "start_time": 8.306818181818182,
                "end_time": 8.39090909090909,
                "pitch": 42,
                "velocity": 64,
                "duration": 0.084090909090909,
                "tempo": 120.0
            },
            {
                "start_time": 8.409090909090908,
                "end_time": 8.588636363636363,
                "pitch": 42,
                "velocity": 64,
                "duration": 0.17954545454545467,
                "tempo": 120.0
            },
            {
                "start_time": 8.604545454545454,
                "end_time": 8.686363636363636,
                "pitch": 42,
                "velocity": 64,
                "duration": 0.08181818181818201,
                "tempo": 120.0
            },
            {
                "start_time": 8.702272727272726,
                "end_time": 8.784090909090908,
                "pitch": 42,
                "velocity": 64,
                "duration": 0.08181818181818201,
                "tempo": 120.0
            },
            {
                "start_time": 8.799999999999999,
                "end_time": 8.98409090909091,
                "pitch": 42,
                "velocity": 64,
                "duration": 0.18409090909091042,
                "tempo": 120.0
            },
            {
                "start_time": 9.0,
                "end_time": 9.084090909090909,
                "pitch": 42,
                "velocity": 64,
                "duration": 0.084090909090909,
                "tempo": 120.0
            },
            {
                "start_time": 9.1,
                "end_time": 9.184090909090909,
                "pitch": 42,
                "velocity": 64,
                "duration": 0.084090909090909,
                "tempo": 120.0
            },
            {
                "start_time": 9.2,
                "end_time": 9.286363636363635,
                "pitch": 40,
                "velocity": 64,
                "duration": 0.08636363636363598,
                "tempo": 120.0
            },
            {
                "start_time": 9.302272727272728,
                "end_time": 9.388636363636364,
                "pitch": 42,
                "velocity": 64,
                "duration": 0.08636363636363598,
                "tempo": 120.0
            },
            {
                "start_time": 9.406818181818181,
                "end_time": 9.49090909090909,
                "pitch": 37,
                "velocity": 64,
                "duration": 0.084090909090909,
                "tempo": 120.0
            },
            {
                "start_time": 9.509090909090908,
                "end_time": 9.593181818181817,
                "pitch": 35,
                "velocity": 64,
                "duration": 0.084090909090909,
                "tempo": 120.0
            },
            {
                "start_time": 9.611363636363636,
                "end_time": 9.795454545454545,
                "pitch": 40,
                "velocity": 64,
                "duration": 0.18409090909090864,
                "tempo": 120.0
            },
            {
                "start_time": 9.813636363636363,
                "end_time": 9.897727272727272,
                "pitch": 40,
                "velocity": 64,
                "duration": 0.084090909090909,
                "tempo": 120.0
            },
            {
                "start_time": 9.913636363636364,
                "end_time": 9.997727272727273,
                "pitch": 40,
                "velocity": 64,
                "duration": 0.084090909090909,
                "tempo": 120.0
            },
            {
                "start_time": 10.013636363636364,
                "end_time": 10.202272727272726,
                "pitch": 40,
                "velocity": 64,
                "duration": 0.1886363636363626,
                "tempo": 120.0
            },
            {
                "start_time": 10.220454545454546,
                "end_time": 10.304545454545455,
                "pitch": 40,
                "velocity": 64,
                "duration": 0.084090909090909,
                "tempo": 120.0
            },
            {
                "start_time": 10.322727272727272,
                "end_time": 10.406818181818181,
                "pitch": 40,
                "velocity": 64,
                "duration": 0.084090909090909,
                "tempo": 120.0
            },
            {
                "start_time": 10.424999999999999,
                "end_time": 10.604545454545454,
                "pitch": 40,
                "velocity": 64,
                "duration": 0.17954545454545467,
                "tempo": 120.0
            },
            {
                "start_time": 10.620454545454544,
                "end_time": 10.702272727272726,
                "pitch": 40,
                "velocity": 64,
                "duration": 0.08181818181818201,
                "tempo": 120.0
            },
            {
                "start_time": 10.718181818181817,
                "end_time": 10.799999999999999,
                "pitch": 40,
                "velocity": 64,
                "duration": 0.08181818181818201,
                "tempo": 120.0
            },
            {
                "start_time": 10.81590909090909,
                "end_time": 10.9,
                "pitch": 39,
                "velocity": 64,
                "duration": 0.08409090909091077,
                "tempo": 120.0
            },
            {
                "start_time": 10.918181818181818,
                "end_time": 11.002272727272727,
                "pitch": 40,
                "velocity": 64,
                "duration": 0.084090909090909,
                "tempo": 120.0
            },
            {
                "start_time": 11.018181818181818,
                "end_time": 11.102272727272727,
                "pitch": 35,
                "velocity": 64,
                "duration": 0.084090909090909,
                "tempo": 120.0
            },
            {
                "start_time": 11.118181818181817,
                "end_time": 11.202272727272726,
                "pitch": 33,
                "velocity": 64,
                "duration": 0.084090909090909,
                "tempo": 120.0
            },
            {
                "start_time": 11.220454545454546,
                "end_time": 11.402272727272727,
                "pitch": 40,
                "velocity": 64,
                "duration": 0.18181818181818166,
                "tempo": 120.0
            },
            {
                "start_time": 11.420454545454545,
                "end_time": 11.502272727272727,
                "pitch": 40,
                "velocity": 64,
                "duration": 0.08181818181818201,
                "tempo": 120.0
            },
            {
                "start_time": 11.520454545454545,
                "end_time": 11.602272727272727,
                "pitch": 40,
                "velocity": 64,
                "duration": 0.08181818181818201,
                "tempo": 120.0
            },
            {
                "start_time": 11.620454545454544,
                "end_time": 11.806818181818182,
                "pitch": 40,
                "velocity": 64,
                "duration": 0.1863636363636374,
                "tempo": 120.0
            },
            {
                "start_time": 11.825,
                "end_time": 11.911363636363635,
                "pitch": 40,
                "velocity": 64,
                "duration": 0.08636363636363598,
                "tempo": 120.0
            },
            {
                "start_time": 11.927272727272726,
                "end_time": 12.013636363636364,
                "pitch": 40,
                "velocity": 64,
                "duration": 0.08636363636363775,
                "tempo": 120.0
            },
            {
                "start_time": 12.029545454545454,
                "end_time": 12.204545454545453,
                "pitch": 40,
                "velocity": 64,
                "duration": 0.17499999999999893,
                "tempo": 120.0
            },
            {
                "start_time": 12.220454545454546,
                "end_time": 12.299999999999999,
                "pitch": 40,
                "velocity": 64,
                "duration": 0.07954545454545325,
                "tempo": 120.0
            },
            {
                "start_time": 12.31590909090909,
                "end_time": 12.395454545454545,
                "pitch": 40,
                "velocity": 64,
                "duration": 0.07954545454545503,
                "tempo": 120.0
            },
            {
                "start_time": 12.411363636363635,
                "end_time": 12.497727272727271,
                "pitch": 39,
                "velocity": 64,
                "duration": 0.08636363636363598,
                "tempo": 120.0
            },
            {
                "start_time": 12.513636363636364,
                "end_time": 12.6,
                "pitch": 40,
                "velocity": 64,
                "duration": 0.08636363636363598,
                "tempo": 120.0
            },
            {
                "start_time": 12.618181818181817,
                "end_time": 12.702272727272726,
                "pitch": 35,
                "velocity": 64,
                "duration": 0.084090909090909,
                "tempo": 120.0
            },
            {
                "start_time": 12.720454545454546,
                "end_time": 12.806818181818182,
                "pitch": 33,
                "velocity": 64,
                "duration": 0.08636363636363598,
                "tempo": 120.0
            },
            {
                "start_time": 12.822727272727272,
                "end_time": 13.006818181818181,
                "pitch": 44,
                "velocity": 64,
                "duration": 0.18409090909090864,
                "tempo": 120.0
            },
            {
                "start_time": 13.024999999999999,
                "end_time": 13.109090909090908,
                "pitch": 44,
                "velocity": 64,
                "duration": 0.084090909090909,
                "tempo": 120.0
            },
            {
                "start_time": 13.125,
                "end_time": 13.209090909090909,
                "pitch": 44,
                "velocity": 64,
                "duration": 0.084090909090909,
                "tempo": 120.0
            },
            {
                "start_time": 13.225,
                "end_time": 13.413636363636362,
                "pitch": 44,
                "velocity": 64,
                "duration": 0.1886363636363626,
                "tempo": 120.0
            },
            {
                "start_time": 13.431818181818182,
                "end_time": 13.51590909090909,
                "pitch": 44,
                "velocity": 64,
                "duration": 0.084090909090909,
                "tempo": 120.0
            },
            {
                "start_time": 13.534090909090908,
                "end_time": 13.618181818181817,
                "pitch": 44,
                "velocity": 64,
                "duration": 0.084090909090909,
                "tempo": 120.0
            },
            {
                "start_time": 13.636363636363635,
                "end_time": 13.811363636363636,
                "pitch": 44,
                "velocity": 64,
                "duration": 0.1750000000000007,
                "tempo": 120.0
            },
            {
                "start_time": 13.827272727272726,
                "end_time": 13.906818181818181,
                "pitch": 44,
                "velocity": 64,
                "duration": 0.07954545454545503,
                "tempo": 120.0
            },
            {
                "start_time": 13.922727272727272,
                "end_time": 14.002272727272727,
                "pitch": 44,
                "velocity": 64,
                "duration": 0.07954545454545503,
                "tempo": 120.0
            },
            {
                "start_time": 14.018181818181818,
                "end_time": 14.102272727272727,
                "pitch": 42,
                "velocity": 64,
                "duration": 0.084090909090909,
                "tempo": 120.0
            },
            {
                "start_time": 14.120454545454544,
                "end_time": 14.206818181818182,
                "pitch": 44,
                "velocity": 64,
                "duration": 0.08636363636363775,
                "tempo": 120.0
            },
            {
                "start_time": 14.222727272727273,
                "end_time": 14.309090909090909,
                "pitch": 37,
                "velocity": 64,
                "duration": 0.08636363636363598,
                "tempo": 120.0
            },
            {
                "start_time": 14.325,
                "end_time": 14.411363636363635,
                "pitch": 35,
                "velocity": 64,
                "duration": 0.08636363636363598,
                "tempo": 120.0
            },
            {
                "start_time": 14.429545454545455,
                "end_time": 14.613636363636363,
                "pitch": 44,
                "velocity": 64,
                "duration": 0.18409090909090864,
                "tempo": 120.0
            },
            {
                "start_time": 14.629545454545454,
                "end_time": 14.713636363636363,
                "pitch": 44,
                "velocity": 64,
                "duration": 0.084090909090909,
                "tempo": 120.0
            },
            {
                "start_time": 14.729545454545454,
                "end_time": 14.813636363636363,
                "pitch": 44,
                "velocity": 64,
                "duration": 0.084090909090909,
                "tempo": 120.0
            },
            {
                "start_time": 14.83181818181818,
                "end_time": 15.020454545454545,
                "pitch": 44,
                "velocity": 64,
                "duration": 0.18863636363636438,
                "tempo": 120.0
            },
            {
                "start_time": 15.036363636363635,
                "end_time": 15.122727272727271,
                "pitch": 44,
                "velocity": 64,
                "duration": 0.08636363636363598,
                "tempo": 120.0
            },
            {
                "start_time": 15.138636363636364,
                "end_time": 15.225,
                "pitch": 44,
                "velocity": 64,
                "duration": 0.08636363636363598,
                "tempo": 120.0
            },
            {
                "start_time": 15.24090909090909,
                "end_time": 15.415909090909091,
                "pitch": 44,
                "velocity": 64,
                "duration": 0.1750000000000007,
                "tempo": 120.0
            },
            {
                "start_time": 15.431818181818182,
                "end_time": 15.511363636363635,
                "pitch": 44,
                "velocity": 64,
                "duration": 0.07954545454545325,
                "tempo": 120.0
            },
            {
                "start_time": 15.527272727272727,
                "end_time": 15.60681818181818,
                "pitch": 44,
                "velocity": 64,
                "duration": 0.07954545454545325,
                "tempo": 120.0
            },
            {
                "start_time": 15.622727272727271,
                "end_time": 15.709090909090909,
                "pitch": 42,
                "velocity": 64,
                "duration": 0.08636363636363775,
                "tempo": 120.0
            },
            {
                "start_time": 15.727272727272727,
                "end_time": 15.811363636363636,
                "pitch": 44,
                "velocity": 64,
                "duration": 0.084090909090909,
                "tempo": 120.0
            },
            {
                "start_time": 15.829545454545453,
                "end_time": 15.913636363636362,
                "pitch": 37,
                "velocity": 64,
                "duration": 0.084090909090909,
                "tempo": 120.0
            },
            {
                "start_time": 15.931818181818182,
                "end_time": 16.018181818181816,
                "pitch": 35,
                "velocity": 64,
                "duration": 0.0863636363636342,
                "tempo": 120.0
            },
            {
                "start_time": 16.03409090909091,
                "end_time": 16.21818181818182,
                "pitch": 44,
                "velocity": 64,
                "duration": 0.18409090909090864,
                "tempo": 120.0
            },
            {
                "start_time": 16.236363636363635,
                "end_time": 16.320454545454545,
                "pitch": 44,
                "velocity": 64,
                "duration": 0.08409090909091077,
                "tempo": 120.0
            },
            {
                "start_time": 16.336363636363636,
                "end_time": 16.420454545454543,
                "pitch": 44,
                "velocity": 64,
                "duration": 0.08409090909090722,
                "tempo": 120.0
            },
            {
                "start_time": 16.436363636363634,
                "end_time": 16.625,
                "pitch": 44,
                "velocity": 64,
                "duration": 0.18863636363636616,
                "tempo": 120.0
            },
            {
                "start_time": 16.643181818181816,
                "end_time": 16.727272727272727,
                "pitch": 44,
                "velocity": 64,
                "duration": 0.08409090909091077,
                "tempo": 120.0
            },
            {
                "start_time": 16.745454545454546,
                "end_time": 16.831818181818182,
                "pitch": 44,
                "velocity": 64,
                "duration": 0.08636363636363598,
                "tempo": 120.0
            },
            {
                "start_time": 16.847727272727273,
                "end_time": 17.027272727272727,
                "pitch": 44,
                "velocity": 64,
                "duration": 0.17954545454545467,
                "tempo": 120.0
            },
            {
                "start_time": 17.043181818181818,
                "end_time": 17.125,
                "pitch": 44,
                "velocity": 64,
                "duration": 0.08181818181818201,
                "tempo": 120.0
            },
            {
                "start_time": 17.14090909090909,
                "end_time": 17.222727272727273,
                "pitch": 44,
                "velocity": 64,
                "duration": 0.08181818181818201,
                "tempo": 120.0
            },
            {
                "start_time": 17.24090909090909,
                "end_time": 17.32272727272727,
                "pitch": 42,
                "velocity": 64,
                "duration": 0.08181818181818201,
                "tempo": 120.0
            },
            {
                "start_time": 17.34090909090909,
                "end_time": 17.422727272727272,
                "pitch": 44,
                "velocity": 64,
                "duration": 0.08181818181818201,
                "tempo": 120.0
            },
            {
                "start_time": 17.44090909090909,
                "end_time": 17.522727272727273,
                "pitch": 37,
                "velocity": 64,
                "duration": 0.08181818181818201,
                "tempo": 120.0
            },
            {
                "start_time": 17.54090909090909,
                "end_time": 17.62272727272727,
                "pitch": 35,
                "velocity": 64,
                "duration": 0.08181818181818201,
                "tempo": 120.0
            },
            {
                "start_time": 17.64090909090909,
                "end_time": 17.825,
                "pitch": 44,
                "velocity": 64,
                "duration": 0.18409090909090864,
                "tempo": 120.0
            },
            {
                "start_time": 17.84090909090909,
                "end_time": 17.925,
                "pitch": 44,
                "velocity": 64,
                "duration": 0.08409090909091077,
                "tempo": 120.0
            },
            {
                "start_time": 17.943181818181817,
                "end_time": 18.025,
                "pitch": 44,
                "velocity": 64,
                "duration": 0.08181818181818201,
                "tempo": 120.0
            },
            {
                "start_time": 18.043181818181818,
                "end_time": 18.23181818181818,
                "pitch": 44,
                "velocity": 64,
                "duration": 0.1886363636363626,
                "tempo": 120.0
            },
            {
                "start_time": 18.24772727272727,
                "end_time": 18.334090909090907,
                "pitch": 44,
                "velocity": 64,
                "duration": 0.08636363636363598,
                "tempo": 120.0
            },
            {
                "start_time": 18.349999999999998,
                "end_time": 18.436363636363634,
                "pitch": 44,
                "velocity": 64,
                "duration": 0.08636363636363598,
                "tempo": 120.0
            },
            {
                "start_time": 18.454545454545453,
                "end_time": 18.634090909090908,
                "pitch": 44,
                "velocity": 64,
                "duration": 0.17954545454545467,
                "tempo": 120.0
            },
            {
                "start_time": 18.65,
                "end_time": 18.73181818181818,
                "pitch": 44,
                "velocity": 64,
                "duration": 0.08181818181818201,
                "tempo": 120.0
            },
            {
                "start_time": 18.74772727272727,
                "end_time": 18.829545454545453,
                "pitch": 44,
                "velocity": 64,
                "duration": 0.08181818181818201,
                "tempo": 120.0
            },
            {
                "start_time": 18.845454545454544,
                "end_time": 18.929545454545455,
                "pitch": 42,
                "velocity": 64,
                "duration": 0.08409090909091077,
                "tempo": 120.0
            },
            {
                "start_time": 18.945454545454545,
                "end_time": 19.029545454545453,
                "pitch": 44,
                "velocity": 64,
                "duration": 0.08409090909090722,
                "tempo": 120.0
            },
            {
                "start_time": 19.047727272727272,
                "end_time": 19.13181818181818,
                "pitch": 37,
                "velocity": 64,
                "duration": 0.08409090909090722,
                "tempo": 120.0
            },
            {
                "start_time": 19.147727272727273,
                "end_time": 19.23181818181818,
                "pitch": 35,
                "velocity": 64,
                "duration": 0.08409090909090722,
                "tempo": 120.0
            },
            {
                "start_time": 19.24772727272727,
                "end_time": 19.43181818181818,
                "pitch": 42,
                "velocity": 64,
                "duration": 0.18409090909090864,
                "tempo": 120.0
            },
            {
                "start_time": 19.44772727272727,
                "end_time": 19.53181818181818,
                "pitch": 42,
                "velocity": 64,
                "duration": 0.08409090909091077,
                "tempo": 120.0
            },
            {
                "start_time": 19.547727272727272,
                "end_time": 19.63181818181818,
                "pitch": 42,
                "velocity": 64,
                "duration": 0.08409090909090722,
                "tempo": 120.0
            },
            {
                "start_time": 19.647727272727273,
                "end_time": 19.836363636363636,
                "pitch": 42,
                "velocity": 64,
                "duration": 0.1886363636363626,
                "tempo": 120.0
            },
            {
                "start_time": 19.854545454545452,
                "end_time": 19.938636363636363,
                "pitch": 42,
                "velocity": 64,
                "duration": 0.08409090909091077,
                "tempo": 120.0
            },
            {
                "start_time": 19.956818181818182,
                "end_time": 20.04090909090909,
                "pitch": 42,
                "velocity": 64,
                "duration": 0.08409090909090722,
                "tempo": 120.0
            },
            {
                "start_time": 20.05909090909091,
                "end_time": 20.238636363636363,
                "pitch": 42,
                "velocity": 64,
                "duration": 0.17954545454545467,
                "tempo": 120.0
            },
            {
                "start_time": 20.254545454545454,
                "end_time": 20.336363636363636,
                "pitch": 42,
                "velocity": 64,
                "duration": 0.08181818181818201,
                "tempo": 120.0
            },
            {
                "start_time": 20.352272727272727,
                "end_time": 20.43409090909091,
                "pitch": 42,
                "velocity": 64,
                "duration": 0.08181818181818201,
                "tempo": 120.0
            },
            {
                "start_time": 20.452272727272728,
                "end_time": 20.534090909090907,
                "pitch": 40,
                "velocity": 64,
                "duration": 0.08181818181817846,
                "tempo": 120.0
            },
            {
                "start_time": 20.552272727272726,
                "end_time": 20.634090909090908,
                "pitch": 42,
                "velocity": 64,
                "duration": 0.08181818181818201,
                "tempo": 120.0
            },
            {
                "start_time": 20.652272727272727,
                "end_time": 20.73409090909091,
                "pitch": 37,
                "velocity": 64,
                "duration": 0.08181818181818201,
                "tempo": 120.0
            },
            {
                "start_time": 20.752272727272725,
                "end_time": 20.834090909090907,
                "pitch": 35,
                "velocity": 64,
                "duration": 0.08181818181818201,
                "tempo": 120.0
            },
            {
                "start_time": 20.852272727272727,
                "end_time": 21.036363636363635,
                "pitch": 42,
                "velocity": 64,
                "duration": 0.18409090909090864,
                "tempo": 120.0
            },
            {
                "start_time": 21.052272727272726,
                "end_time": 21.136363636363637,
                "pitch": 42,
                "velocity": 64,
                "duration": 0.08409090909091077,
                "tempo": 120.0
            },
            {
                "start_time": 21.152272727272727,
                "end_time": 21.236363636363635,
                "pitch": 42,
                "velocity": 64,
                "duration": 0.08409090909090722,
                "tempo": 120.0
            },
            {
                "start_time": 21.254545454545454,
                "end_time": 21.44090909090909,
                "pitch": 42,
                "velocity": 64,
                "duration": 0.1863636363636374,
                "tempo": 120.0
            },
            {
                "start_time": 21.459090909090907,
                "end_time": 21.545454545454543,
                "pitch": 42,
                "velocity": 64,
                "duration": 0.08636363636363598,
                "tempo": 120.0
            },
            {
                "start_time": 21.561363636363634,
                "end_time": 21.647727272727273,
                "pitch": 42,
                "velocity": 64,
                "duration": 0.08636363636363953,
                "tempo": 120.0
            },
            {
                "start_time": 21.663636363636364,
                "end_time": 21.845454545454544,
                "pitch": 42,
                "velocity": 64,
                "duration": 0.18181818181817988,
                "tempo": 120.0
            },
            {
                "start_time": 21.861363636363635,
                "end_time": 21.943181818181817,
                "pitch": 42,
                "velocity": 64,
                "duration": 0.08181818181818201,
                "tempo": 120.0
            },
            {
                "start_time": 21.959090909090907,
                "end_time": 22.04090909090909,
                "pitch": 42,
                "velocity": 64,
                "duration": 0.08181818181818201,
                "tempo": 120.0
            },
            {
                "start_time": 22.05681818181818,
                "end_time": 22.14090909090909,
                "pitch": 40,
                "velocity": 64,
                "duration": 0.08409090909091077,
                "tempo": 120.0
            },
            {
                "start_time": 22.15681818181818,
                "end_time": 22.24090909090909,
                "pitch": 42,
                "velocity": 64,
                "duration": 0.08409090909090722,
                "tempo": 120.0
            },
            {
                "start_time": 22.25681818181818,
                "end_time": 22.34090909090909,
                "pitch": 37,
                "velocity": 64,
                "duration": 0.08409090909091077,
                "tempo": 120.0
            },
            {
                "start_time": 22.35681818181818,
                "end_time": 22.44090909090909,
                "pitch": 35,
                "velocity": 64,
                "duration": 0.08409090909091077,
                "tempo": 120.0
            },
            {
                "start_time": 22.456818181818182,
                "end_time": 22.64090909090909,
                "pitch": 40,
                "velocity": 64,
                "duration": 0.18409090909090864,
                "tempo": 120.0
            },
            {
                "start_time": 22.65681818181818,
                "end_time": 22.74090909090909,
                "pitch": 40,
                "velocity": 64,
                "duration": 0.08409090909090722,
                "tempo": 120.0
            },
            {
                "start_time": 22.75681818181818,
                "end_time": 22.84090909090909,
                "pitch": 40,
                "velocity": 64,
                "duration": 0.08409090909091077,
                "tempo": 120.0
            },
            {
                "start_time": 22.85681818181818,
                "end_time": 23.036363636363635,
                "pitch": 40,
                "velocity": 64,
                "duration": 0.17954545454545467,
                "tempo": 120.0
            },
            {
                "start_time": 23.052272727272726,
                "end_time": 23.134090909090908,
                "pitch": 40,
                "velocity": 64,
                "duration": 0.08181818181818201,
                "tempo": 120.0
            },
            {
                "start_time": 23.15,
                "end_time": 23.23181818181818,
                "pitch": 40,
                "velocity": 64,
                "duration": 0.08181818181818201,
                "tempo": 120.0
            },
            {
                "start_time": 23.24772727272727,
                "end_time": 23.436363636363634,
                "pitch": 40,
                "velocity": 64,
                "duration": 0.1886363636363626,
                "tempo": 120.0
            },
            {
                "start_time": 23.454545454545453,
                "end_time": 23.54090909090909,
                "pitch": 40,
                "velocity": 64,
                "duration": 0.08636363636363598,
                "tempo": 120.0
            },
            {
                "start_time": 23.55681818181818,
                "end_time": 23.643181818181816,
                "pitch": 40,
                "velocity": 64,
                "duration": 0.08636363636363598,
                "tempo": 120.0
            },
            {
                "start_time": 23.659090909090907,
                "end_time": 23.743181818181817,
                "pitch": 39,
                "velocity": 64,
                "duration": 0.08409090909091077,
                "tempo": 120.0
            },
            {
                "start_time": 23.761363636363637,
                "end_time": 23.84318181818182,
                "pitch": 40,
                "velocity": 64,
                "duration": 0.08181818181818201,
                "tempo": 120.0
            },
            {
                "start_time": 23.861363636363635,
                "end_time": 23.945454545454545,
                "pitch": 35,
                "velocity": 64,
                "duration": 0.08409090909091077,
                "tempo": 120.0
            },
            {
                "start_time": 23.961363636363636,
                "end_time": 24.045454545454543,
                "pitch": 33,
                "velocity": 64,
                "duration": 0.08409090909090722,
                "tempo": 120.0
            },
            {
                "start_time": 24.061363636363634,
                "end_time": 24.245454545454546,
                "pitch": 40,
                "velocity": 64,
                "duration": 0.1840909090909122,
                "tempo": 120.0
            },
            {
                "start_time": 24.261363636363637,
                "end_time": 24.345454545454544,
                "pitch": 40,
                "velocity": 64,
                "duration": 0.08409090909090722,
                "tempo": 120.0
            },
            {
                "start_time": 24.361363636363635,
                "end_time": 24.445454545454545,
                "pitch": 40,
                "velocity": 64,
                "duration": 0.08409090909091077,
                "tempo": 120.0
            },
            {
                "start_time": 24.461363636363636,
                "end_time": 24.65,
                "pitch": 40,
                "velocity": 64,
                "duration": 0.1886363636363626,
                "tempo": 120.0
            },
            {
                "start_time": 24.668181818181818,
                "end_time": 24.752272727272725,
                "pitch": 40,
                "velocity": 64,
                "duration": 0.08409090909090722,
                "tempo": 120.0
            },
            {
                "start_time": 24.770454545454545,
                "end_time": 24.85681818181818,
                "pitch": 40,
                "velocity": 64,
                "duration": 0.08636363636363598,
                "tempo": 120.0
            },
            {
                "start_time": 24.87272727272727,
                "end_time": 25.05681818181818,
                "pitch": 40,
                "velocity": 64,
                "duration": 0.18409090909090864,
                "tempo": 120.0
            },
            {
                "start_time": 25.07272727272727,
                "end_time": 25.15681818181818,
                "pitch": 40,
                "velocity": 64,
                "duration": 0.08409090909091077,
                "tempo": 120.0
            },
            {
                "start_time": 25.172727272727272,
                "end_time": 25.25681818181818,
                "pitch": 40,
                "velocity": 64,
                "duration": 0.08409090909090722,
                "tempo": 120.0
            },
            {
                "start_time": 25.27272727272727,
                "end_time": 25.354545454545452,
                "pitch": 39,
                "velocity": 64,
                "duration": 0.08181818181818201,
                "tempo": 120.0
            },
            {
                "start_time": 25.370454545454542,
                "end_time": 25.452272727272724,
                "pitch": 40,
                "velocity": 64,
                "duration": 0.08181818181818201,
                "tempo": 120.0
            },
            {
                "start_time": 25.470454545454544,
                "end_time": 25.549999999999997,
                "pitch": 35,
                "velocity": 64,
                "duration": 0.07954545454545325,
                "tempo": 120.0
            },
            {
                "start_time": 25.568181818181817,
                "end_time": 25.65,
                "pitch": 33,
                "velocity": 64,
                "duration": 0.08181818181818201,
                "tempo": 120.0
            },
            {
                "start_time": 25.66590909090909,
                "end_time": 25.75,
                "pitch": 35,
                "velocity": 64,
                "duration": 0.08409090909091077,
                "tempo": 120.0
            },
            {
                "start_time": 25.76590909090909,
                "end_time": 25.95,
                "pitch": 35,
                "velocity": 64,
                "duration": 0.18409090909090864,
                "tempo": 120.0
            },
            {
                "start_time": 25.968181818181815,
                "end_time": 26.052272727272726,
                "pitch": 47,
                "velocity": 64,
                "duration": 0.08409090909091077,
                "tempo": 120.0
            },
            {
                "start_time": 26.068181818181817,
                "end_time": 26.152272727272727,
                "pitch": 35,
                "velocity": 64,
                "duration": 0.08409090909091077,
                "tempo": 120.0
            },
            {
                "start_time": 26.168181818181818,
                "end_time": 26.252272727272725,
                "pitch": 35,
                "velocity": 64,
                "duration": 0.08409090909090722,
                "tempo": 120.0
            },
            {
                "start_time": 26.268181818181816,
                "end_time": 26.352272727272727,
                "pitch": 42,
                "velocity": 64,
                "duration": 0.08409090909091077,
                "tempo": 120.0
            },
            {
                "start_time": 26.368181818181817,
                "end_time": 26.552272727272726,
                "pitch": 42,
                "velocity": 64,
                "duration": 0.18409090909090864,
                "tempo": 120.0
            },
            {
                "start_time": 26.568181818181817,
                "end_time": 26.752272727272725,
                "pitch": 39,
                "velocity": 64,
                "duration": 0.18409090909090864,
                "tempo": 120.0
            },
            {
                "start_time": 26.768181818181816,
                "end_time": 26.852272727272727,
                "pitch": 42,
                "velocity": 64,
                "duration": 0.08409090909091077,
                "tempo": 120.0
            },
            {
                "start_time": 26.868181818181817,
                "end_time": 26.952272727272724,
                "pitch": 35,
                "velocity": 64,
                "duration": 0.08409090909090722,
                "tempo": 120.0
            },
            {
                "start_time": 26.968181818181815,
                "end_time": 27.052272727272726,
                "pitch": 35,
                "velocity": 64,
                "duration": 0.08409090909091077,
                "tempo": 120.0
            },
            {
                "start_time": 27.070454545454545,
                "end_time": 27.154545454545453,
                "pitch": 35,
                "velocity": 64,
                "duration": 0.08409090909090722,
                "tempo": 120.0
            },
            {
                "start_time": 27.170454545454543,
                "end_time": 27.254545454545454,
                "pitch": 47,
                "velocity": 64,
                "duration": 0.08409090909091077,
                "tempo": 120.0
            },
            {
                "start_time": 27.270454545454545,
                "end_time": 27.354545454545452,
                "pitch": 35,
                "velocity": 64,
                "duration": 0.08409090909090722,
                "tempo": 120.0
            },
            {
                "start_time": 27.370454545454542,
                "end_time": 27.554545454545455,
                "pitch": 35,
                "velocity": 64,
                "duration": 0.1840909090909122,
                "tempo": 120.0
            },
            {
                "start_time": 27.570454545454545,
                "end_time": 27.654545454545453,
                "pitch": 47,
                "velocity": 64,
                "duration": 0.08409090909090722,
                "tempo": 120.0
            },
            {
                "start_time": 27.670454545454543,
                "end_time": 27.754545454545454,
                "pitch": 35,
                "velocity": 64,
                "duration": 0.08409090909091077,
                "tempo": 120.0
            },
            {
                "start_time": 27.770454545454545,
                "end_time": 27.854545454545452,
                "pitch": 35,
                "velocity": 64,
                "duration": 0.08409090909090722,
                "tempo": 120.0
            },
            {
                "start_time": 27.87272727272727,
                "end_time": 27.956818181818182,
                "pitch": 42,
                "velocity": 64,
                "duration": 0.08409090909091077,
                "tempo": 120.0
            },
            {
                "start_time": 27.972727272727273,
                "end_time": 28.15681818181818,
                "pitch": 42,
                "velocity": 64,
                "duration": 0.18409090909090864,
                "tempo": 120.0
            },
            {
                "start_time": 28.172727272727272,
                "end_time": 28.35681818181818,
                "pitch": 39,
                "velocity": 64,
                "duration": 0.18409090909090864,
                "tempo": 120.0
            },
            {
                "start_time": 28.37272727272727,
                "end_time": 28.456818181818182,
                "pitch": 42,
                "velocity": 64,
                "duration": 0.08409090909091077,
                "tempo": 120.0
            },
            {
                "start_time": 28.472727272727273,
                "end_time": 28.554545454545455,
                "pitch": 35,
                "velocity": 64,
                "duration": 0.08181818181818201,
                "tempo": 120.0
            },
            {
                "start_time": 28.570454545454545,
                "end_time": 28.652272727272727,
                "pitch": 35,
                "velocity": 64,
                "duration": 0.08181818181818201,
                "tempo": 120.0
            },
            {
                "start_time": 28.670454545454543,
                "end_time": 28.75,
                "pitch": 35,
                "velocity": 64,
                "duration": 0.0795454545454568,
                "tempo": 120.0
            },
            {
                "start_time": 28.768181818181816,
                "end_time": 28.849999999999998,
                "pitch": 47,
                "velocity": 64,
                "duration": 0.08181818181818201,
                "tempo": 120.0
            },
            {
                "start_time": 28.86590909090909,
                "end_time": 28.952272727272724,
                "pitch": 35,
                "velocity": 64,
                "duration": 0.08636363636363598,
                "tempo": 120.0
            },
            {
                "start_time": 28.968181818181815,
                "end_time": 29.15681818181818,
                "pitch": 35,
                "velocity": 64,
                "duration": 0.18863636363636616,
                "tempo": 120.0
            },
            {
                "start_time": 29.172727272727272,
                "end_time": 29.259090909090908,
                "pitch": 47,
                "velocity": 64,
                "duration": 0.08636363636363598,
                "tempo": 120.0
            },
            {
                "start_time": 29.277272727272727,
                "end_time": 29.35909090909091,
                "pitch": 35,
                "velocity": 64,
                "duration": 0.08181818181818201,
                "tempo": 120.0
            },
            {
                "start_time": 29.377272727272725,
                "end_time": 29.459090909090907,
                "pitch": 35,
                "velocity": 64,
                "duration": 0.08181818181818201,
                "tempo": 120.0
            },
            {
                "start_time": 29.477272727272727,
                "end_time": 29.55909090909091,
                "pitch": 42,
                "velocity": 64,
                "duration": 0.08181818181818201,
                "tempo": 120.0
            },
            {
                "start_time": 29.577272727272724,
                "end_time": 29.761363636363637,
                "pitch": 42,
                "velocity": 64,
                "duration": 0.1840909090909122,
                "tempo": 120.0
            },
            {
                "start_time": 29.777272727272727,
                "end_time": 29.961363636363636,
                "pitch": 39,
                "velocity": 64,
                "duration": 0.18409090909090864,
                "tempo": 120.0
            },
            {
                "start_time": 29.979545454545452,
                "end_time": 30.061363636363634,
                "pitch": 42,
                "velocity": 64,
                "duration": 0.08181818181818201,
                "tempo": 120.0
            },
            {
                "start_time": 30.079545454545453,
                "end_time": 30.161363636363635,
                "pitch": 35,
                "velocity": 64,
                "duration": 0.08181818181818201,
                "tempo": 120.0
            },
            {
                "start_time": 30.179545454545455,
                "end_time": 30.261363636363633,
                "pitch": 35,
                "velocity": 64,
                "duration": 0.08181818181817846,
                "tempo": 120.0
            },
            {
                "start_time": 30.279545454545453,
                "end_time": 30.361363636363635,
                "pitch": 35,
                "velocity": 64,
                "duration": 0.08181818181818201,
                "tempo": 120.0
            },
            {
                "start_time": 30.379545454545454,
                "end_time": 30.461363636363636,
                "pitch": 47,
                "velocity": 64,
                "duration": 0.08181818181818201,
                "tempo": 120.0
            },
            {
                "start_time": 30.479545454545452,
                "end_time": 30.561363636363634,
                "pitch": 35,
                "velocity": 64,
                "duration": 0.08181818181818201,
                "tempo": 120.0
            },
            {
                "start_time": 30.579545454545453,
                "end_time": 30.761363636363633,
                "pitch": 35,
                "velocity": 64,
                "duration": 0.18181818181817988,
                "tempo": 120.0
            },
            {
                "start_time": 30.779545454545453,
                "end_time": 30.861363636363635,
                "pitch": 47,
                "velocity": 64,
                "duration": 0.08181818181818201,
                "tempo": 120.0
            },
            {
                "start_time": 30.879545454545454,
                "end_time": 30.96363636363636,
                "pitch": 35,
                "velocity": 64,
                "duration": 0.08409090909090722,
                "tempo": 120.0
            },
            {
                "start_time": 30.979545454545452,
                "end_time": 31.063636363636363,
                "pitch": 35,
                "velocity": 64,
                "duration": 0.08409090909091077,
                "tempo": 120.0
            },
            {
                "start_time": 31.079545454545453,
                "end_time": 31.16363636363636,
                "pitch": 42,
                "velocity": 64,
                "duration": 0.08409090909090722,
                "tempo": 120.0
            },
            {
                "start_time": 31.18181818181818,
                "end_time": 31.363636363636363,
                "pitch": 42,
                "velocity": 64,
                "duration": 0.18181818181818343,
                "tempo": 120.0
            },
            {
                "start_time": 31.379545454545454,
                "end_time": 31.55909090909091,
                "pitch": 39,
                "velocity": 64,
                "duration": 0.17954545454545467,
                "tempo": 120.0
            },
            {
                "start_time": 31.575,
                "end_time": 31.65681818181818,
                "pitch": 42,
                "velocity": 64,
                "duration": 0.08181818181818201,
                "tempo": 120.0
            },
            {
                "start_time": 31.672727272727272,
                "end_time": 31.759090909090908,
                "pitch": 35,
                "velocity": 64,
                "duration": 0.08636363636363598,
                "tempo": 120.0
            },
            {
                "start_time": 31.777272727272727,
                "end_time": 31.861363636363635,
                "pitch": 35,
                "velocity": 64,
                "duration": 0.08409090909090722,
                "tempo": 120.0
            },
            {
                "start_time": 31.879545454545454,
                "end_time": 31.96590909090909,
                "pitch": 35,
                "velocity": 64,
                "duration": 0.08636363636363598,
                "tempo": 120.0
            },
            {
                "start_time": 31.98181818181818,
                "end_time": 32.06818181818182,
                "pitch": 47,
                "velocity": 64,
                "duration": 0.08636363636363953,
                "tempo": 120.0
            },
            {
                "start_time": 32.08409090909091,
                "end_time": 32.168181818181814,
                "pitch": 33,
                "velocity": 64,
                "duration": 0.08409090909090366,
                "tempo": 120.0
            },
            {
                "start_time": 32.184090909090905,
                "end_time": 32.36818181818182,
                "pitch": 33,
                "velocity": 64,
                "duration": 0.1840909090909122,
                "tempo": 120.0
            },
            {
                "start_time": 32.38409090909091,
                "end_time": 32.46818181818182,
                "pitch": 45,
                "velocity": 64,
                "duration": 0.08409090909091077,
                "tempo": 120.0
            },
            {
                "start_time": 32.48409090909091,
                "end_time": 32.56590909090909,
                "pitch": 33,
                "velocity": 64,
                "duration": 0.08181818181817846,
                "tempo": 120.0
            },
            {
                "start_time": 32.58181818181818,
                "end_time": 32.663636363636364,
                "pitch": 33,
                "velocity": 64,
                "duration": 0.08181818181818556,
                "tempo": 120.0
            },
            {
                "start_time": 32.679545454545455,
                "end_time": 32.76136363636363,
                "pitch": 40,
                "velocity": 64,
                "duration": 0.08181818181817846,
                "tempo": 120.0
            },
            {
                "start_time": 32.779545454545456,
                "end_time": 32.95909090909091,
                "pitch": 40,
                "velocity": 64,
                "duration": 0.17954545454545467,
                "tempo": 120.0
            },
            {
                "start_time": 32.97727272727273,
                "end_time": 33.15909090909091,
                "pitch": 37,
                "velocity": 64,
                "duration": 0.18181818181817988,
                "tempo": 120.0
            },
            {
                "start_time": 33.17727272727272,
                "end_time": 33.25909090909091,
                "pitch": 40,
                "velocity": 64,
                "duration": 0.08181818181818556,
                "tempo": 120.0
            },
            {
                "start_time": 33.277272727272724,
                "end_time": 33.35909090909091,
                "pitch": 33,
                "velocity": 64,
                "duration": 0.08181818181818556,
                "tempo": 120.0
            },
            {
                "start_time": 33.377272727272725,
                "end_time": 33.45909090909091,
                "pitch": 33,
                "velocity": 64,
                "duration": 0.08181818181818556,
                "tempo": 120.0
            },
            {
                "start_time": 33.47727272727273,
                "end_time": 33.559090909090905,
                "pitch": 33,
                "velocity": 64,
                "duration": 0.08181818181817846,
                "tempo": 120.0
            },
            {
                "start_time": 33.57727272727273,
                "end_time": 33.65909090909091,
                "pitch": 45,
                "velocity": 64,
                "duration": 0.08181818181817846,
                "tempo": 120.0
            },
            {
                "start_time": 33.67727272727272,
                "end_time": 33.76136363636363,
                "pitch": 33,
                "velocity": 64,
                "duration": 0.08409090909091077,
                "tempo": 120.0
            },
            {
                "start_time": 33.779545454545456,
                "end_time": 33.96818181818182,
                "pitch": 33,
                "velocity": 64,
                "duration": 0.1886363636363626,
                "tempo": 120.0
            },
            {
                "start_time": 33.98409090909091,
                "end_time": 34.070454545454545,
                "pitch": 45,
                "velocity": 64,
                "duration": 0.08636363636363598,
                "tempo": 120.0
            },
            {
                "start_time": 34.08863636363636,
                "end_time": 34.17045454545455,
                "pitch": 33,
                "velocity": 64,
                "duration": 0.08181818181818556,
                "tempo": 120.0
            },
            {
                "start_time": 34.18863636363636,
                "end_time": 34.27045454545454,
                "pitch": 33,
                "velocity": 64,
                "duration": 0.08181818181817846,
                "tempo": 120.0
            },
            {
                "start_time": 34.288636363636364,
                "end_time": 34.37045454545454,
                "pitch": 40,
                "velocity": 64,
                "duration": 0.08181818181817846,
                "tempo": 120.0
            },
            {
                "start_time": 34.388636363636365,
                "end_time": 34.570454545454545,
                "pitch": 40,
                "velocity": 64,
                "duration": 0.18181818181817988,
                "tempo": 120.0
            },
            {
                "start_time": 34.58863636363636,
                "end_time": 34.77045454545454,
                "pitch": 37,
                "velocity": 64,
                "duration": 0.18181818181817988,
                "tempo": 120.0
            },
            {
                "start_time": 34.788636363636364,
                "end_time": 34.87045454545454,
                "pitch": 40,
                "velocity": 64,
                "duration": 0.08181818181817846,
                "tempo": 120.0
            },
            {
                "start_time": 34.888636363636365,
                "end_time": 34.970454545454544,
                "pitch": 33,
                "velocity": 64,
                "duration": 0.08181818181817846,
                "tempo": 120.0
            },
            {
                "start_time": 34.98863636363636,
                "end_time": 35.070454545454545,
                "pitch": 33,
                "velocity": 64,
                "duration": 0.08181818181818556,
                "tempo": 120.0
            },
            {
                "start_time": 35.08863636363636,
                "end_time": 35.17045454545455,
                "pitch": 33,
                "velocity": 64,
                "duration": 0.08181818181818556,
                "tempo": 120.0
            },
            {
                "start_time": 35.18863636363636,
                "end_time": 35.27045454545454,
                "pitch": 45,
                "velocity": 64,
                "duration": 0.08181818181817846,
                "tempo": 120.0
            },
            {
                "start_time": 35.288636363636364,
                "end_time": 35.37272727272727,
                "pitch": 33,
                "velocity": 64,
                "duration": 0.08409090909090366,
                "tempo": 120.0
            },
            {
                "start_time": 35.388636363636365,
                "end_time": 35.57272727272727,
                "pitch": 33,
                "velocity": 64,
                "duration": 0.18409090909090509,
                "tempo": 120.0
            },
            {
                "start_time": 35.590909090909086,
                "end_time": 35.67272727272727,
                "pitch": 45,
                "velocity": 64,
                "duration": 0.08181818181818556,
                "tempo": 120.0
            },
            {
                "start_time": 35.69090909090909,
                "end_time": 35.77272727272727,
                "pitch": 33,
                "velocity": 64,
                "duration": 0.08181818181818556,
                "tempo": 120.0
            },
            {
                "start_time": 35.788636363636364,
                "end_time": 35.87045454545454,
                "pitch": 33,
                "velocity": 64,
                "duration": 0.08181818181817846,
                "tempo": 120.0
            },
            {
                "start_time": 35.88636363636363,
                "end_time": 35.96818181818182,
                "pitch": 40,
                "velocity": 64,
                "duration": 0.08181818181818556,
                "tempo": 120.0
            },
            {
                "start_time": 35.98409090909091,
                "end_time": 36.16590909090909,
                "pitch": 40,
                "velocity": 64,
                "duration": 0.18181818181817988,
                "tempo": 120.0
            },
            {
                "start_time": 36.18181818181818,
                "end_time": 36.36590909090909,
                "pitch": 37,
                "velocity": 64,
                "duration": 0.1840909090909122,
                "tempo": 120.0
            },
            {
                "start_time": 36.38181818181818,
                "end_time": 36.465909090909086,
                "pitch": 40,
                "velocity": 64,
                "duration": 0.08409090909090366,
                "tempo": 120.0
            },
            {
                "start_time": 36.48181818181818,
                "end_time": 36.56818181818181,
                "pitch": 33,
                "velocity": 64,
                "duration": 0.08636363636363598,
                "tempo": 120.0
            },
            {
                "start_time": 36.586363636363636,
                "end_time": 36.67045454545455,
                "pitch": 33,
                "velocity": 64,
                "duration": 0.08409090909091077,
                "tempo": 120.0
            },
            {
                "start_time": 36.68863636363636,
                "end_time": 36.77272727272727,
                "pitch": 33,
                "velocity": 64,
                "duration": 0.08409090909091077,
                "tempo": 120.0
            },
            {
                "start_time": 36.79090909090909,
                "end_time": 36.877272727272725,
                "pitch": 45,
                "velocity": 64,
                "duration": 0.08636363636363598,
                "tempo": 120.0
            },
            {
                "start_time": 36.893181818181816,
                "end_time": 36.97727272727273,
                "pitch": 33,
                "velocity": 64,
                "duration": 0.08409090909091077,
                "tempo": 120.0
            },
            {
                "start_time": 36.99318181818182,
                "end_time": 37.17727272727272,
                "pitch": 33,
                "velocity": 64,
                "duration": 0.18409090909090509,
                "tempo": 120.0
            },
            {
                "start_time": 37.19318181818181,
                "end_time": 37.277272727272724,
                "pitch": 45,
                "velocity": 64,
                "duration": 0.08409090909091077,
                "tempo": 120.0
            },
            {
                "start_time": 37.293181818181814,
                "end_time": 37.37954545454545,
                "pitch": 33,
                "velocity": 64,
                "duration": 0.08636363636363598,
                "tempo": 120.0
            },
            {
                "start_time": 37.39545454545454,
                "end_time": 37.48181818181818,
                "pitch": 33,
                "velocity": 64,
                "duration": 0.08636363636363598,
                "tempo": 120.0
            },
            {
                "start_time": 37.49772727272727,
                "end_time": 37.58409090909091,
                "pitch": 40,
                "velocity": 64,
                "duration": 0.08636363636364308,
                "tempo": 120.0
            },
            {
                "start_time": 37.60227272727273,
                "end_time": 37.788636363636364,
                "pitch": 40,
                "velocity": 64,
                "duration": 0.1863636363636374,
                "tempo": 120.0
            },
            {
                "start_time": 37.804545454545455,
                "end_time": 37.98863636363636,
                "pitch": 37,
                "velocity": 64,
                "duration": 0.18409090909090509,
                "tempo": 120.0
            },
            {
                "start_time": 38.00454545454545,
                "end_time": 38.08863636363636,
                "pitch": 40,
                "velocity": 64,
                "duration": 0.08409090909091077,
                "tempo": 120.0
            },
            {
                "start_time": 38.10454545454545,
                "end_time": 38.18636363636364,
                "pitch": 33,
                "velocity": 64,
                "duration": 0.08181818181818556,
                "tempo": 120.0
            },
            {
                "start_time": 38.20227272727273,
                "end_time": 38.28409090909091,
                "pitch": 33,
                "velocity": 64,
                "duration": 0.08181818181817846,
                "tempo": 120.0
            },
            {
                "start_time": 38.3,
                "end_time": 38.38181818181818,
                "pitch": 33,
                "velocity": 64,
                "duration": 0.08181818181818556,
                "tempo": 120.0
            },
            {
                "start_time": 38.39772727272727,
                "end_time": 38.48863636363636,
                "pitch": 45,
                "velocity": 64,
                "duration": 0.09090909090908639,
                "tempo": 120.0
            }
        ]
    }
}