{
    "track_id": "Rambo III (FM) - 07 - Mil Hind Helicopter",
    "mood": "angry",
    "instruments": {
        "Electric Guitar (clean)": [
            {
                "start_time": 0.011363636363636364,
                "end_time": 1.0886363636363636,
                "pitch": 37,
                "velocity": 64,
                "duration": 1.0772727272727272,
                "tempo": 120.0
            },
            {
                "start_time": 1.1045454545454545,
                "end_time": 1.1886363636363635,
                "pitch": 36,
                "velocity": 64,
                "duration": 0.084090909090909,
                "tempo": 120.0
            },
            {
                "start_time": 1.2045454545454546,
                "end_time": 1.2909090909090908,
                "pitch": 37,
                "velocity": 64,
                "duration": 0.0863636363636362,
                "tempo": 120.0
            },
            {
                "start_time": 1.309090909090909,
                "end_time": 1.393181818181818,
                "pitch": 39,
                "velocity": 64,
                "duration": 0.084090909090909,
                "tempo": 120.0
            },
            {
                "start_time": 1.4113636363636364,
                "end_time": 1.4954545454545454,
                "pitch": 41,
                "velocity": 64,
                "duration": 0.084090909090909,
                "tempo": 120.0
            },
            {
                "start_time": 1.5136363636363637,
                "end_time": 1.5999999999999999,
                "pitch": 42,
                "velocity": 64,
                "duration": 0.0863636363636362,
                "tempo": 120.0
            },
            {
                "start_time": 1.6159090909090907,
                "end_time": 2.693181818181818,
                "pitch": 40,
                "velocity": 64,
                "duration": 1.0772727272727272,
                "tempo": 120.0
            },
            {
                "start_time": 2.7113636363636364,
                "end_time": 2.7954545454545454,
                "pitch": 39,
                "velocity": 64,
                "duration": 0.084090909090909,
                "tempo": 120.0
            },
            {
                "start_time": 2.811363636363636,
                "end_time": 2.8977272727272725,
                "pitch": 40,
                "velocity": 64,
                "duration": 0.08636363636363642,
                "tempo": 120.0
            },
            {
                "start_time": 2.9136363636363636,
                "end_time": 3.0,
                "pitch": 42,
                "velocity": 64,
                "duration": 0.08636363636363642,
                "tempo": 120.0
            },
            {
                "start_time": 3.0159090909090907,
                "end_time": 3.102272727272727,
                "pitch": 41,
                "velocity": 64,
                "duration": 0.08636363636363642,
                "tempo": 120.0
            },
            {
                "start_time": 3.118181818181818,
                "end_time": 3.2045454545454546,
                "pitch": 39,
                "velocity": 64,
                "duration": 0.08636363636363642,
                "tempo": 120.0
            },
            {
                "start_time": 3.2204545454545452,
                "end_time": 4.297727272727273,
                "pitch": 37,
                "velocity": 64,
                "duration": 1.0772727272727276,
                "tempo": 120.0
            },
            {
                "start_time": 4.3136363636363635,
                "end_time": 4.3977272727272725,
                "pitch": 36,
                "velocity": 64,
                "duration": 0.084090909090909,
                "tempo": 120.0
            },
            {
                "start_time": 4.413636363636363,
                "end_time": 4.5,
                "pitch": 37,
                "velocity": 64,
                "duration": 0.08636363636363686,
                "tempo": 120.0
            },
            {
                "start_time": 4.515909090909091,
                "end_time": 4.602272727272727,
                "pitch": 39,
                "velocity": 64,
                "duration": 0.08636363636363598,
                "tempo": 120.0
            },
            {
                "start_time": 4.620454545454545,
                "end_time": 4.704545454545454,
                "pitch": 41,
                "velocity": 64,
                "duration": 0.084090909090909,
                "tempo": 120.0
            },
            {
                "start_time": 4.722727272727273,
                "end_time": 4.809090909090909,
                "pitch": 42,
                "velocity": 64,
                "duration": 0.08636363636363598,
                "tempo": 120.0
            },
            {
                "start_time": 4.825,
                "end_time": 5.904545454545454,
                "pitch": 40,
                "velocity": 64,
                "duration": 1.0795454545454541,
                "tempo": 120.0
            },
            {
                "start_time": 5.922727272727273,
                "end_time": 6.006818181818182,
                "pitch": 39,
                "velocity": 64,
                "duration": 0.084090909090909,
                "tempo": 120.0
            },
            {
                "start_time": 6.0227272727272725,
                "end_time": 6.1090909090909085,
                "pitch": 40,
                "velocity": 64,
                "duration": 0.08636363636363598,
                "tempo": 120.0
            },
            {
                "start_time": 6.125,
                "end_time": 6.211363636363636,
                "pitch": 42,
                "velocity": 64,
                "duration": 0.08636363636363598,
                "tempo": 120.0
            },
            {
                "start_time": 6.227272727272727,
                "end_time": 6.3136363636363635,
                "pitch": 41,
                "velocity": 64,
                "duration": 0.08636363636363686,
                "tempo": 120.0
            },
            {
                "start_time": 6.329545454545454,
                "end_time": 6.415909090909091,
                "pitch": 39,
                "velocity": 64,
                "duration": 0.08636363636363686,
                "tempo": 120.0
            },
            {
                "start_time": 6.434090909090909,
                "end_time": 7.502272727272727,
                "pitch": 37,
                "velocity": 64,
                "duration": 1.0681818181818183,
                "tempo": 120.0
            },
            {
                "start_time": 7.5204545454545455,
                "end_time": 7.602272727272727,
                "pitch": 36,
                "velocity": 64,
                "duration": 0.08181818181818112,
                "tempo": 120.0
            },
            {
                "start_time": 7.618181818181818,
                "end_time": 7.704545454545454,
                "pitch": 37,
                "velocity": 64,
                "duration": 0.08636363636363598,
                "tempo": 120.0
            },
            {
                "start_time": 7.722727272727273,
                "end_time": 7.811363636363636,
                "pitch": 39,
                "velocity": 64,
                "duration": 0.08863636363636296,
                "tempo": 120.0
            },
            {
                "start_time": 7.827272727272727,
                "end_time": 7.91590909090909,
                "pitch": 41,
                "velocity": 64,
                "duration": 0.08863636363636296,
                "tempo": 120.0
            },
            {
                "start_time": 7.934090909090909,
                "end_time": 8.022727272727272,
                "pitch": 42,
                "velocity": 64,
                "duration": 0.08863636363636296,
                "tempo": 120.0
            },
            {
                "start_time": 8.038636363636364,
                "end_time": 9.10909090909091,
                "pitch": 40,
                "velocity": 64,
                "duration": 1.0704545454545453,
                "tempo": 120.0
            },
            {
                "start_time": 9.125,
                "end_time": 9.209090909090909,
                "pitch": 39,
                "velocity": 64,
                "duration": 0.084090909090909,
                "tempo": 120.0
            },
            {
                "start_time": 9.227272727272727,
                "end_time": 9.313636363636363,
                "pitch": 40,
                "velocity": 64,
                "duration": 0.08636363636363598,
                "tempo": 120.0
            },
            {
                "start_time": 9.331818181818182,
                "end_time": 9.420454545454545,
                "pitch": 42,
                "velocity": 64,
                "duration": 0.08863636363636296,
                "tempo": 120.0
            },
            {
                "start_time": 9.436363636363636,
                "end_time": 9.525,
                "pitch": 41,
                "velocity": 64,
                "duration": 0.08863636363636473,
                "tempo": 120.0
            },
            {
                "start_time": 9.543181818181818,
                "end_time": 9.631818181818181,
                "pitch": 39,
                "velocity": 64,
                "duration": 0.08863636363636296,
                "tempo": 120.0
            },
            {
                "start_time": 9.647727272727272,
                "end_time": 10.725,
                "pitch": 37,
                "velocity": 64,
                "duration": 1.077272727272728,
                "tempo": 120.0
            },
            {
                "start_time": 10.74090909090909,
                "end_time": 10.827272727272726,
                "pitch": 36,
                "velocity": 64,
                "duration": 0.08636363636363598,
                "tempo": 120.0
            },
            {
                "start_time": 10.843181818181817,
                "end_time": 10.929545454545455,
                "pitch": 37,
                "velocity": 64,
                "duration": 0.08636363636363775,
                "tempo": 120.0
            },
            {
                "start_time": 10.947727272727272,
                "end_time": 11.031818181818181,
                "pitch": 39,
                "velocity": 64,
                "duration": 0.084090909090909,
                "tempo": 120.0
            },
            {
                "start_time": 11.049999999999999,
                "end_time": 11.134090909090908,
                "pitch": 41,
                "velocity": 64,
                "duration": 0.084090909090909,
                "tempo": 120.0
            },
            {
                "start_time": 11.152272727272727,
                "end_time": 11.238636363636363,
                "pitch": 42,
                "velocity": 64,
                "duration": 0.08636363636363598,
                "tempo": 120.0
            },
            {
                "start_time": 11.254545454545454,
                "end_time": 12.331818181818182,
                "pitch": 40,
                "velocity": 64,
                "duration": 1.077272727272728,
                "tempo": 120.0
            },
            {
                "start_time": 12.35,
                "end_time": 12.434090909090909,
                "pitch": 39,
                "velocity": 64,
                "duration": 0.084090909090909,
                "tempo": 120.0
            },
            {
                "start_time": 12.45,
                "end_time": 12.531818181818181,
                "pitch": 40,
                "velocity": 64,
                "duration": 0.08181818181818201,
                "tempo": 120.0
            },
            {
                "start_time": 12.547727272727272,
                "end_time": 12.629545454545454,
                "pitch": 42,
                "velocity": 64,
                "duration": 0.08181818181818201,
                "tempo": 120.0
            },
            {
                "start_time": 12.645454545454545,
                "end_time": 12.727272727272727,
                "pitch": 41,
                "velocity": 64,
                "duration": 0.08181818181818201,
                "tempo": 120.0
            },
            {
                "start_time": 12.743181818181817,
                "end_time": 12.825,
                "pitch": 39,
                "velocity": 64,
                "duration": 0.08181818181818201,
                "tempo": 120.0
            },
            {
                "start_time": 12.84090909090909,
                "end_time": 12.927272727272726,
                "pitch": 32,
                "velocity": 64,
                "duration": 0.08636363636363598,
                "tempo": 120.0
            },
            {
                "start_time": 12.945454545454545,
                "end_time": 13.029545454545454,
                "pitch": 32,
                "velocity": 64,
                "duration": 0.084090909090909,
                "tempo": 120.0
            },
            {
                "start_time": 13.047727272727272,
                "end_time": 13.131818181818181,
                "pitch": 44,
                "velocity": 64,
                "duration": 0.084090909090909,
                "tempo": 120.0
            },
            {
                "start_time": 13.149999999999999,
                "end_time": 13.236363636363636,
                "pitch": 32,
                "velocity": 64,
                "duration": 0.08636363636363775,
                "tempo": 120.0
            },
            {
                "start_time": 13.252272727272727,
                "end_time": 13.336363636363636,
                "pitch": 35,
                "velocity": 64,
                "duration": 0.084090909090909,
                "tempo": 120.0
            },
            {
                "start_time": 13.354545454545454,
                "end_time": 13.436363636363636,
                "pitch": 32,
                "velocity": 64,
                "duration": 0.08181818181818201,
                "tempo": 120.0
            },
            {
                "start_time": 13.454545454545453,
                "end_time": 13.538636363636362,
                "pitch": 34,
                "velocity": 64,
                "duration": 0.084090909090909,
                "tempo": 120.0
            },
            {
                "start_time": 13.554545454545455,
                "end_time": 13.638636363636364,
                "pitch": 35,
                "velocity": 64,
                "duration": 0.084090909090909,
                "tempo": 120.0
            },
            {
                "start_time": 13.654545454545454,
                "end_time": 13.738636363636363,
                "pitch": 39,
                "velocity": 64,
                "duration": 0.084090909090909,
                "tempo": 120.0
            },
            {
                "start_time": 13.754545454545454,
                "end_time": 13.838636363636363,
                "pitch": 32,
                "velocity": 64,
                "duration": 0.084090909090909,
                "tempo": 120.0
            },
            {
                "start_time": 13.854545454545454,
                "end_time": 13.938636363636363,
                "pitch": 39,
                "velocity": 64,
                "duration": 0.084090909090909,
                "tempo": 120.0
            },
            {
                "start_time": 13.954545454545453,
                "end_time": 14.038636363636362,
                "pitch": 32,
                "velocity": 64,
                "duration": 0.084090909090909,
                "tempo": 120.0
            },
            {
                "start_time": 14.054545454545455,
                "end_time": 14.138636363636364,
                "pitch": 44,
                "velocity": 64,
                "duration": 0.084090909090909,
                "tempo": 120.0
            },
            {
                "start_time": 14.156818181818181,
                "end_time": 14.24090909090909,
                "pitch": 32,
                "velocity": 64,
                "duration": 0.084090909090909,
                "tempo": 120.0
            },
            {
                "start_time": 14.256818181818181,
                "end_time": 14.44090909090909,
                "pitch": 32,
                "velocity": 64,
                "duration": 0.18409090909090864,
                "tempo": 120.0
            },
            {
                "start_time": 14.45681818181818,
                "end_time": 14.538636363636362,
                "pitch": 32,
                "velocity": 64,
                "duration": 0.08181818181818201,
                "tempo": 120.0
            },
            {
                "start_time": 14.556818181818182,
                "end_time": 14.638636363636364,
                "pitch": 32,
                "velocity": 64,
                "duration": 0.08181818181818201,
                "tempo": 120.0
            },
            {
                "start_time": 14.654545454545454,
                "end_time": 14.736363636363636,
                "pitch": 44,
                "velocity": 64,
                "duration": 0.08181818181818201,
                "tempo": 120.0
            },
            {
                "start_time": 14.752272727272727,
                "end_time": 14.834090909090909,
                "pitch": 32,
                "velocity": 64,
                "duration": 0.08181818181818201,
                "tempo": 120.0
            },
            {
                "start_time": 14.85,
                "end_time": 14.936363636363636,
                "pitch": 35,
                "velocity": 64,
                "duration": 0.08636363636363598,
                "tempo": 120.0
            },
            {
                "start_time": 14.952272727272726,
                "end_time": 15.038636363636362,
                "pitch": 32,
                "velocity": 64,
                "duration": 0.08636363636363598,
                "tempo": 120.0
            },
            {
                "start_time": 15.054545454545455,
                "end_time": 15.14090909090909,
                "pitch": 34,
                "velocity": 64,
                "duration": 0.08636363636363598,
                "tempo": 120.0
            },
            {
                "start_time": 15.159090909090908,
                "end_time": 15.243181818181817,
                "pitch": 35,
                "velocity": 64,
                "duration": 0.084090909090909,
                "tempo": 120.0
            },
            {
                "start_time": 15.261363636363635,
                "end_time": 15.445454545454545,
                "pitch": 37,
                "velocity": 64,
                "duration": 0.18409090909091042,
                "tempo": 120.0
            },
            {
                "start_time": 15.461363636363636,
                "end_time": 15.545454545454545,
                "pitch": 32,
                "velocity": 64,
                "duration": 0.084090909090909,
                "tempo": 120.0
            },
            {
                "start_time": 15.563636363636363,
                "end_time": 15.75,
                "pitch": 30,
                "velocity": 64,
                "duration": 0.1863636363636374,
                "tempo": 120.0
            },
            {
                "start_time": 15.76590909090909,
                "end_time": 15.852272727272727,
                "pitch": 32,
                "velocity": 64,
                "duration": 0.08636363636363598,
                "tempo": 120.0
            },
            {
                "start_time": 15.868181818181817,
                "end_time": 16.05681818181818,
                "pitch": 30,
                "velocity": 64,
                "duration": 0.1886363636363626,
                "tempo": 120.0
            },
            {
                "start_time": 16.075,
                "end_time": 16.15681818181818,
                "pitch": 32,
                "velocity": 64,
                "duration": 0.08181818181818201,
                "tempo": 120.0
            },
            {
                "start_time": 16.172727272727272,
                "end_time": 16.254545454545454,
                "pitch": 32,
                "velocity": 64,
                "duration": 0.08181818181818201,
                "tempo": 120.0
            },
            {
                "start_time": 16.270454545454545,
                "end_time": 16.352272727272727,
                "pitch": 44,
                "velocity": 64,
                "duration": 0.08181818181818201,
                "tempo": 120.0
            },
            {
                "start_time": 16.368181818181817,
                "end_time": 16.45,
                "pitch": 32,
                "velocity": 64,
                "duration": 0.08181818181818201,
                "tempo": 120.0
            },
            {
                "start_time": 16.46590909090909,
                "end_time": 16.55,
                "pitch": 35,
                "velocity": 64,
                "duration": 0.08409090909091077,
                "tempo": 120.0
            },
            {
                "start_time": 16.56590909090909,
                "end_time": 16.65,
                "pitch": 32,
                "velocity": 64,
                "duration": 0.08409090909090722,
                "tempo": 120.0
            },
            {
                "start_time": 16.66590909090909,
                "end_time": 16.75,
                "pitch": 34,
                "velocity": 64,
                "duration": 0.08409090909091077,
                "tempo": 120.0
            },
            {
                "start_time": 16.76590909090909,
                "end_time": 16.849999999999998,
                "pitch": 35,
                "velocity": 64,
                "duration": 0.08409090909090722,
                "tempo": 120.0
            },
            {
                "start_time": 16.86590909090909,
                "end_time": 16.95,
                "pitch": 39,
                "velocity": 64,
                "duration": 0.08409090909091077,
                "tempo": 120.0
            },
            {
                "start_time": 16.96590909090909,
                "end_time": 17.05,
                "pitch": 32,
                "velocity": 64,
                "duration": 0.08409090909091077,
                "tempo": 120.0
            },
            {
                "start_time": 17.06590909090909,
                "end_time": 17.15,
                "pitch": 39,
                "velocity": 64,
                "duration": 0.08409090909090722,
                "tempo": 120.0
            },
            {
                "start_time": 17.16590909090909,
                "end_time": 17.25,
                "pitch": 32,
                "velocity": 64,
                "duration": 0.08409090909091077,
                "tempo": 120.0
            },
            {
                "start_time": 17.26590909090909,
                "end_time": 17.349999999999998,
                "pitch": 44,
                "velocity": 64,
                "duration": 0.08409090909090722,
                "tempo": 120.0
            },
            {
                "start_time": 17.368181818181817,
                "end_time": 17.452272727272728,
                "pitch": 32,
                "velocity": 64,
                "duration": 0.08409090909091077,
                "tempo": 120.0
            },
            {
                "start_time": 17.46818181818182,
                "end_time": 17.652272727272727,
                "pitch": 32,
                "velocity": 64,
                "duration": 0.18409090909090864,
                "tempo": 120.0
            },
            {
                "start_time": 17.668181818181818,
                "end_time": 17.752272727272725,
                "pitch": 32,
                "velocity": 64,
                "duration": 0.08409090909090722,
                "tempo": 120.0
            },
            {
                "start_time": 17.768181818181816,
                "end_time": 17.852272727272727,
                "pitch": 32,
                "velocity": 64,
                "duration": 0.08409090909091077,
                "tempo": 120.0
            },
            {
                "start_time": 17.868181818181817,
                "end_time": 17.952272727272728,
                "pitch": 44,
                "velocity": 64,
                "duration": 0.08409090909091077,
                "tempo": 120.0
            },
            {
                "start_time": 17.96818181818182,
                "end_time": 18.052272727272726,
                "pitch": 32,
                "velocity": 64,
                "duration": 0.08409090909090722,
                "tempo": 120.0
            },
            {
                "start_time": 18.068181818181817,
                "end_time": 18.152272727272727,
                "pitch": 35,
                "velocity": 64,
                "duration": 0.08409090909091077,
                "tempo": 120.0
            },
            {
                "start_time": 18.170454545454543,
                "end_time": 18.254545454545454,
                "pitch": 32,
                "velocity": 64,
                "duration": 0.08409090909091077,
                "tempo": 120.0
            },
            {
                "start_time": 18.270454545454545,
                "end_time": 18.354545454545455,
                "pitch": 34,
                "velocity": 64,
                "duration": 0.08409090909091077,
                "tempo": 120.0
            },
            {
                "start_time": 18.370454545454546,
                "end_time": 18.454545454545453,
                "pitch": 35,
                "velocity": 64,
                "duration": 0.08409090909090722,
                "tempo": 120.0
            },
            {
                "start_time": 18.472727272727273,
                "end_time": 18.654545454545453,
                "pitch": 37,
                "velocity": 64,
                "duration": 0.18181818181817988,
                "tempo": 120.0
            },
            {
                "start_time": 18.672727272727272,
                "end_time": 18.754545454545454,
                "pitch": 32,
                "velocity": 64,
                "duration": 0.08181818181818201,
                "tempo": 120.0
            },
            {
                "start_time": 18.772727272727273,
                "end_time": 18.956818181818182,
                "pitch": 30,
                "velocity": 64,
                "duration": 0.18409090909090864,
                "tempo": 120.0
            },
            {
                "start_time": 18.974999999999998,
                "end_time": 19.05909090909091,
                "pitch": 32,
                "velocity": 64,
                "duration": 0.08409090909091077,
                "tempo": 120.0
            },
            {
                "start_time": 19.077272727272728,
                "end_time": 19.26590909090909,
                "pitch": 30,
                "velocity": 64,
                "duration": 0.1886363636363626,
                "tempo": 120.0
            },
            {
                "start_time": 19.28181818181818,
                "end_time": 19.363636363636363,
                "pitch": 32,
                "velocity": 64,
                "duration": 0.08181818181818201,
                "tempo": 120.0
            },
            {
                "start_time": 19.38181818181818,
                "end_time": 19.461363636363636,
                "pitch": 32,
                "velocity": 64,
                "duration": 0.0795454545454568,
                "tempo": 120.0
            },
            {
                "start_time": 19.479545454545452,
                "end_time": 19.561363636363634,
                "pitch": 44,
                "velocity": 64,
                "duration": 0.08181818181818201,
                "tempo": 120.0
            },
            {
                "start_time": 19.577272727272728,
                "end_time": 19.659090909090907,
                "pitch": 32,
                "velocity": 64,
                "duration": 0.08181818181817846,
                "tempo": 120.0
            },
            {
                "start_time": 19.675,
                "end_time": 19.759090909090908,
                "pitch": 35,
                "velocity": 64,
                "duration": 0.08409090909090722,
                "tempo": 120.0
            },
            {
                "start_time": 19.775,
                "end_time": 19.85909090909091,
                "pitch": 32,
                "velocity": 64,
                "duration": 0.08409090909091077,
                "tempo": 120.0
            },
            {
                "start_time": 19.875,
                "end_time": 19.959090909090907,
                "pitch": 34,
                "velocity": 64,
                "duration": 0.08409090909090722,
                "tempo": 120.0
            },
            {
                "start_time": 19.974999999999998,
                "end_time": 20.05909090909091,
                "pitch": 35,
                "velocity": 64,
                "duration": 0.08409090909091077,
                "tempo": 120.0
            },
            {
                "start_time": 20.075,
                "end_time": 20.159090909090907,
                "pitch": 39,
                "velocity": 64,
                "duration": 0.08409090909090722,
                "tempo": 120.0
            },
            {
                "start_time": 20.175,
                "end_time": 20.259090909090908,
                "pitch": 32,
                "velocity": 64,
                "duration": 0.08409090909090722,
                "tempo": 120.0
            },
            {
                "start_time": 20.277272727272727,
                "end_time": 20.35909090909091,
                "pitch": 39,
                "velocity": 64,
                "duration": 0.08181818181818201,
                "tempo": 120.0
            },
            {
                "start_time": 20.377272727272725,
                "end_time": 20.461363636363636,
                "pitch": 32,
                "velocity": 64,
                "duration": 0.08409090909091077,
                "tempo": 120.0
            },
            {
                "start_time": 20.477272727272727,
                "end_time": 20.561363636363634,
                "pitch": 44,
                "velocity": 64,
                "duration": 0.08409090909090722,
                "tempo": 120.0
            },
            {
                "start_time": 20.577272727272728,
                "end_time": 20.661363636363635,
                "pitch": 32,
                "velocity": 64,
                "duration": 0.08409090909090722,
                "tempo": 120.0
            },
            {
                "start_time": 20.677272727272726,
                "end_time": 20.861363636363635,
                "pitch": 32,
                "velocity": 64,
                "duration": 0.18409090909090864,
                "tempo": 120.0
            },
            {
                "start_time": 20.877272727272725,
                "end_time": 20.961363636363636,
                "pitch": 32,
                "velocity": 64,
                "duration": 0.08409090909091077,
                "tempo": 120.0
            },
            {
                "start_time": 20.977272727272727,
                "end_time": 21.061363636363634,
                "pitch": 32,
                "velocity": 64,
                "duration": 0.08409090909090722,
                "tempo": 120.0
            },
            {
                "start_time": 21.077272727272724,
                "end_time": 21.161363636363635,
                "pitch": 44,
                "velocity": 64,
                "duration": 0.08409090909091077,
                "tempo": 120.0
            },
            {
                "start_time": 21.177272727272726,
                "end_time": 21.261363636363637,
                "pitch": 32,
                "velocity": 64,
                "duration": 0.08409090909091077,
                "tempo": 120.0
            },
            {
                "start_time": 21.277272727272727,
                "end_time": 21.361363636363635,
                "pitch": 35,
                "velocity": 64,
                "duration": 0.08409090909090722,
                "tempo": 120.0
            },
            {
                "start_time": 21.377272727272725,
                "end_time": 21.461363636363636,
                "pitch": 32,
                "velocity": 64,
                "duration": 0.08409090909091077,
                "tempo": 120.0
            },
            {
                "start_time": 21.479545454545452,
                "end_time": 21.563636363636363,
                "pitch": 34,
                "velocity": 64,
                "duration": 0.08409090909091077,
                "tempo": 120.0
            },
            {
                "start_time": 21.579545454545453,
                "end_time": 21.663636363636364,
                "pitch": 35,
                "velocity": 64,
                "duration": 0.08409090909091077,
                "tempo": 120.0
            },
            {
                "start_time": 21.679545454545455,
                "end_time": 21.863636363636363,
                "pitch": 37,
                "velocity": 64,
                "duration": 0.18409090909090864,
                "tempo": 120.0
            },
            {
                "start_time": 21.879545454545454,
                "end_time": 21.96363636363636,
                "pitch": 32,
                "velocity": 64,
                "duration": 0.08409090909090722,
                "tempo": 120.0
            },
            {
                "start_time": 21.979545454545452,
                "end_time": 22.16590909090909,
                "pitch": 30,
                "velocity": 64,
                "duration": 0.1863636363636374,
                "tempo": 120.0
            },
            {
                "start_time": 22.18181818181818,
                "end_time": 22.268181818181816,
                "pitch": 32,
                "velocity": 64,
                "duration": 0.08636363636363598,
                "tempo": 120.0
            },
            {
                "start_time": 22.286363636363635,
                "end_time": 22.472727272727273,
                "pitch": 30,
                "velocity": 64,
                "duration": 0.1863636363636374,
                "tempo": 120.0
            },
            {
                "start_time": 22.49090909090909,
                "end_time": 22.57272727272727,
                "pitch": 32,
                "velocity": 64,
                "duration": 0.08181818181818201,
                "tempo": 120.0
            },
            {
                "start_time": 22.58863636363636,
                "end_time": 22.670454545454543,
                "pitch": 32,
                "velocity": 64,
                "duration": 0.08181818181818201,
                "tempo": 120.0
            },
            {
                "start_time": 22.686363636363634,
                "end_time": 22.768181818181816,
                "pitch": 44,
                "velocity": 64,
                "duration": 0.08181818181818201,
                "tempo": 120.0
            },
            {
                "start_time": 22.784090909090907,
                "end_time": 22.86590909090909,
                "pitch": 32,
                "velocity": 64,
                "duration": 0.08181818181818201,
                "tempo": 120.0
            },
            {
                "start_time": 22.884090909090908,
                "end_time": 22.96590909090909,
                "pitch": 35,
                "velocity": 64,
                "duration": 0.08181818181818201,
                "tempo": 120.0
            },
            {
                "start_time": 22.98409090909091,
                "end_time": 23.06590909090909,
                "pitch": 32,
                "velocity": 64,
                "duration": 0.08181818181818201,
                "tempo": 120.0
            },
            {
                "start_time": 23.084090909090907,
                "end_time": 23.16590909090909,
                "pitch": 34,
                "velocity": 64,
                "duration": 0.08181818181818201,
                "tempo": 120.0
            },
            {
                "start_time": 23.18409090909091,
                "end_time": 23.26590909090909,
                "pitch": 35,
                "velocity": 64,
                "duration": 0.08181818181818201,
                "tempo": 120.0
            },
            {
                "start_time": 23.284090909090907,
                "end_time": 23.36590909090909,
                "pitch": 39,
                "velocity": 64,
                "duration": 0.08181818181818201,
                "tempo": 120.0
            },
            {
                "start_time": 23.384090909090908,
                "end_time": 23.46818181818182,
                "pitch": 32,
                "velocity": 64,
                "duration": 0.08409090909091077,
                "tempo": 120.0
            },
            {
                "start_time": 23.48409090909091,
                "end_time": 23.568181818181817,
                "pitch": 39,
                "velocity": 64,
                "duration": 0.08409090909090722,
                "tempo": 120.0
            },
            {
                "start_time": 23.584090909090907,
                "end_time": 23.668181818181818,
                "pitch": 32,
                "velocity": 64,
                "duration": 0.08409090909091077,
                "tempo": 120.0
            },
            {
                "start_time": 23.686363636363634,
                "end_time": 23.768181818181816,
                "pitch": 44,
                "velocity": 64,
                "duration": 0.08181818181818201,
                "tempo": 120.0
            },
            {
                "start_time": 23.786363636363635,
                "end_time": 23.868181818181817,
                "pitch": 32,
                "velocity": 64,
                "duration": 0.08181818181818201,
                "tempo": 120.0
            },
            {
                "start_time": 23.886363636363637,
                "end_time": 24.068181818181817,
                "pitch": 32,
                "velocity": 64,
                "duration": 0.18181818181817988,
                "tempo": 120.0
            },
            {
                "start_time": 24.086363636363636,
                "end_time": 24.170454545454543,
                "pitch": 32,
                "velocity": 64,
                "duration": 0.08409090909090722,
                "tempo": 120.0
            },
            {
                "start_time": 24.186363636363634,
                "end_time": 24.270454545454545,
                "pitch": 32,
                "velocity": 64,
                "duration": 0.08409090909091077,
                "tempo": 120.0
            },
            {
                "start_time": 24.286363636363635,
                "end_time": 24.370454545454546,
                "pitch": 44,
                "velocity": 64,
                "duration": 0.08409090909091077,
                "tempo": 120.0
            },
            {
                "start_time": 24.388636363636362,
                "end_time": 24.472727272727273,
                "pitch": 32,
                "velocity": 64,
                "duration": 0.08409090909091077,
                "tempo": 120.0
            },
            {
                "start_time": 24.488636363636363,
                "end_time": 24.57272727272727,
                "pitch": 35,
                "velocity": 64,
                "duration": 0.08409090909090722,
                "tempo": 120.0
            },
            {
                "start_time": 24.58863636363636,
                "end_time": 24.672727272727272,
                "pitch": 32,
                "velocity": 64,
                "duration": 0.08409090909091077,
                "tempo": 120.0
            },
            {
                "start_time": 24.688636363636363,
                "end_time": 24.77272727272727,
                "pitch": 34,
                "velocity": 64,
                "duration": 0.08409090909090722,
                "tempo": 120.0
            },
            {
                "start_time": 24.788636363636364,
                "end_time": 24.87272727272727,
                "pitch": 35,
                "velocity": 64,
                "duration": 0.08409090909090722,
                "tempo": 120.0
            },
            {
                "start_time": 24.888636363636362,
                "end_time": 25.07272727272727,
                "pitch": 37,
                "velocity": 64,
                "duration": 0.18409090909090864,
                "tempo": 120.0
            },
            {
                "start_time": 25.08863636363636,
                "end_time": 25.172727272727272,
                "pitch": 32,
                "velocity": 64,
                "duration": 0.08409090909091077,
                "tempo": 120.0
            },
            {
                "start_time": 25.188636363636363,
                "end_time": 25.37272727272727,
                "pitch": 30,
                "velocity": 64,
                "duration": 0.18409090909090864,
                "tempo": 120.0
            },
            {
                "start_time": 25.39090909090909,
                "end_time": 25.477272727272727,
                "pitch": 32,
                "velocity": 64,
                "duration": 0.08636363636363598,
                "tempo": 120.0
            },
            {
                "start_time": 25.493181818181817,
                "end_time": 25.68181818181818,
                "pitch": 30,
                "velocity": 64,
                "duration": 0.1886363636363626,
                "tempo": 120.0
            },
            {
                "start_time": 25.7,
                "end_time": 25.78181818181818,
                "pitch": 32,
                "velocity": 64,
                "duration": 0.08181818181818201,
                "tempo": 120.0
            },
            {
                "start_time": 25.797727272727272,
                "end_time": 25.879545454545454,
                "pitch": 32,
                "velocity": 64,
                "duration": 0.08181818181818201,
                "tempo": 120.0
            },
            {
                "start_time": 25.895454545454545,
                "end_time": 25.977272727272727,
                "pitch": 44,
                "velocity": 64,
                "duration": 0.08181818181818201,
                "tempo": 120.0
            },
            {
                "start_time": 25.993181818181817,
                "end_time": 26.075,
                "pitch": 32,
                "velocity": 64,
                "duration": 0.08181818181818201,
                "tempo": 120.0
            },
            {
                "start_time": 26.09090909090909,
                "end_time": 26.174999999999997,
                "pitch": 35,
                "velocity": 64,
                "duration": 0.08409090909090722,
                "tempo": 120.0
            },
            {
                "start_time": 26.19090909090909,
                "end_time": 26.275,
                "pitch": 32,
                "velocity": 64,
                "duration": 0.08409090909090722,
                "tempo": 120.0
            },
            {
                "start_time": 26.293181818181818,
                "end_time": 26.377272727272725,
                "pitch": 34,
                "velocity": 64,
                "duration": 0.08409090909090722,
                "tempo": 120.0
            },
            {
                "start_time": 26.393181818181816,
                "end_time": 26.477272727272727,
                "pitch": 35,
                "velocity": 64,
                "duration": 0.08409090909091077,
                "tempo": 120.0
            },
            {
                "start_time": 26.493181818181817,
                "end_time": 26.577272727272724,
                "pitch": 39,
                "velocity": 64,
                "duration": 0.08409090909090722,
                "tempo": 120.0
            },
            {
                "start_time": 26.593181818181815,
                "end_time": 26.677272727272726,
                "pitch": 32,
                "velocity": 64,
                "duration": 0.08409090909091077,
                "tempo": 120.0
            },
            {
                "start_time": 26.693181818181817,
                "end_time": 26.777272727272727,
                "pitch": 39,
                "velocity": 64,
                "duration": 0.08409090909091077,
                "tempo": 120.0
            },
            {
                "start_time": 26.793181818181818,
                "end_time": 26.877272727272725,
                "pitch": 32,
                "velocity": 64,
                "duration": 0.08409090909090722,
                "tempo": 120.0
            },
            {
                "start_time": 26.893181818181816,
                "end_time": 26.977272727272727,
                "pitch": 44,
                "velocity": 64,
                "duration": 0.08409090909091077,
                "tempo": 120.0
            },
            {
                "start_time": 26.993181818181817,
                "end_time": 27.077272727272724,
                "pitch": 32,
                "velocity": 64,
                "duration": 0.08409090909090722,
                "tempo": 120.0
            },
            {
                "start_time": 27.093181818181815,
                "end_time": 27.277272727272727,
                "pitch": 32,
                "velocity": 64,
                "duration": 0.1840909090909122,
                "tempo": 120.0
            },
            {
                "start_time": 27.293181818181818,
                "end_time": 27.377272727272725,
                "pitch": 32,
                "velocity": 64,
                "duration": 0.08409090909090722,
                "tempo": 120.0
            },
            {
                "start_time": 27.395454545454545,
                "end_time": 27.479545454545452,
                "pitch": 32,
                "velocity": 64,
                "duration": 0.08409090909090722,
                "tempo": 120.0
            },
            {
                "start_time": 27.495454545454542,
                "end_time": 27.579545454545453,
                "pitch": 44,
                "velocity": 64,
                "duration": 0.08409090909091077,
                "tempo": 120.0
            },
            {
                "start_time": 27.595454545454544,
                "end_time": 27.679545454545455,
                "pitch": 32,
                "velocity": 64,
                "duration": 0.08409090909091077,
                "tempo": 120.0
            },
            {
                "start_time": 27.69772727272727,
                "end_time": 27.779545454545453,
                "pitch": 35,
                "velocity": 64,
                "duration": 0.08181818181818201,
                "tempo": 120.0
            },
            {
                "start_time": 27.797727272727272,
                "end_time": 27.879545454545454,
                "pitch": 32,
                "velocity": 64,
                "duration": 0.08181818181818201,
                "tempo": 120.0
            },
            {
                "start_time": 27.89772727272727,
                "end_time": 27.979545454545452,
                "pitch": 34,
                "velocity": 64,
                "duration": 0.08181818181818201,
                "tempo": 120.0
            },
            {
                "start_time": 27.99772727272727,
                "end_time": 28.079545454545453,
                "pitch": 35,
                "velocity": 64,
                "duration": 0.08181818181818201,
                "tempo": 120.0
            },
            {
                "start_time": 28.097727272727273,
                "end_time": 28.28181818181818,
                "pitch": 37,
                "velocity": 64,
                "duration": 0.18409090909090864,
                "tempo": 120.0
            },
            {
                "start_time": 28.297727272727272,
                "end_time": 28.38181818181818,
                "pitch": 32,
                "velocity": 64,
                "duration": 0.08409090909090722,
                "tempo": 120.0
            },
            {
                "start_time": 28.39772727272727,
                "end_time": 28.584090909090907,
                "pitch": 30,
                "velocity": 64,
                "duration": 0.1863636363636374,
                "tempo": 120.0
            },
            {
                "start_time": 28.602272727272727,
                "end_time": 28.686363636363634,
                "pitch": 32,
                "velocity": 64,
                "duration": 0.08409090909090722,
                "tempo": 120.0
            },
            {
                "start_time": 28.704545454545453,
                "end_time": 28.893181818181816,
                "pitch": 30,
                "velocity": 64,
                "duration": 0.1886363636363626,
                "tempo": 120.0
            },
            {
                "start_time": 28.909090909090907,
                "end_time": 28.99090909090909,
                "pitch": 32,
                "velocity": 64,
                "duration": 0.08181818181818201,
                "tempo": 120.0
            },
            {
                "start_time": 29.009090909090908,
                "end_time": 29.08863636363636,
                "pitch": 32,
                "velocity": 64,
                "duration": 0.07954545454545325,
                "tempo": 120.0
            },
            {
                "start_time": 29.10681818181818,
                "end_time": 29.188636363636363,
                "pitch": 44,
                "velocity": 64,
                "duration": 0.08181818181818201,
                "tempo": 120.0
            },
            {
                "start_time": 29.204545454545453,
                "end_time": 29.286363636363635,
                "pitch": 32,
                "velocity": 64,
                "duration": 0.08181818181818201,
                "tempo": 120.0
            },
            {
                "start_time": 29.302272727272726,
                "end_time": 29.386363636363637,
                "pitch": 35,
                "velocity": 64,
                "duration": 0.08409090909091077,
                "tempo": 120.0
            },
            {
                "start_time": 29.402272727272727,
                "end_time": 29.486363636363635,
                "pitch": 32,
                "velocity": 64,
                "duration": 0.08409090909090722,
                "tempo": 120.0
            },
            {
                "start_time": 29.504545454545454,
                "end_time": 29.586363636363636,
                "pitch": 34,
                "velocity": 64,
                "duration": 0.08181818181818201,
                "tempo": 120.0
            },
            {
                "start_time": 29.604545454545452,
                "end_time": 29.688636363636363,
                "pitch": 35,
                "velocity": 64,
                "duration": 0.08409090909091077,
                "tempo": 120.0
            },
            {
                "start_time": 29.704545454545453,
                "end_time": 29.78863636363636,
                "pitch": 39,
                "velocity": 64,
                "duration": 0.08409090909090722,
                "tempo": 120.0
            },
            {
                "start_time": 29.804545454545455,
                "end_time": 29.888636363636362,
                "pitch": 32,
                "velocity": 64,
                "duration": 0.08409090909090722,
                "tempo": 120.0
            },
            {
                "start_time": 29.904545454545453,
                "end_time": 29.988636363636363,
                "pitch": 39,
                "velocity": 64,
                "duration": 0.08409090909091077,
                "tempo": 120.0
            },
            {
                "start_time": 30.004545454545454,
                "end_time": 30.08863636363636,
                "pitch": 32,
                "velocity": 64,
                "duration": 0.08409090909090722,
                "tempo": 120.0
            },
            {
                "start_time": 30.104545454545452,
                "end_time": 30.188636363636363,
                "pitch": 44,
                "velocity": 64,
                "duration": 0.08409090909091077,
                "tempo": 120.0
            },
            {
                "start_time": 30.204545454545453,
                "end_time": 30.28863636363636,
                "pitch": 32,
                "velocity": 64,
                "duration": 0.08409090909090722,
                "tempo": 120.0
            },
            {
                "start_time": 30.30681818181818,
                "end_time": 30.49090909090909,
                "pitch": 32,
                "velocity": 64,
                "duration": 0.18409090909090864,
                "tempo": 120.0
            },
            {
                "start_time": 30.50681818181818,
                "end_time": 30.59090909090909,
                "pitch": 32,
                "velocity": 64,
                "duration": 0.08409090909091077,
                "tempo": 120.0
            },
            {
                "start_time": 30.60681818181818,
                "end_time": 30.690909090909088,
                "pitch": 32,
                "velocity": 64,
                "duration": 0.08409090909090722,
                "tempo": 120.0
            },
            {
                "start_time": 30.706818181818182,
                "end_time": 30.79090909090909,
                "pitch": 44,
                "velocity": 64,
                "duration": 0.08409090909090722,
                "tempo": 120.0
            },
            {
                "start_time": 30.80681818181818,
                "end_time": 30.89090909090909,
                "pitch": 32,
                "velocity": 64,
                "duration": 0.08409090909091077,
                "tempo": 120.0
            },
            {
                "start_time": 30.90681818181818,
                "end_time": 30.99090909090909,
                "pitch": 35,
                "velocity": 64,
                "duration": 0.08409090909090722,
                "tempo": 120.0
            },
            {
                "start_time": 31.00681818181818,
                "end_time": 31.09090909090909,
                "pitch": 32,
                "velocity": 64,
                "duration": 0.08409090909091077,
                "tempo": 120.0
            },
            {
                "start_time": 31.10681818181818,
                "end_time": 31.190909090909088,
                "pitch": 34,
                "velocity": 64,
                "duration": 0.08409090909090722,
                "tempo": 120.0
            },
            {
                "start_time": 31.206818181818182,
                "end_time": 31.29090909090909,
                "pitch": 35,
                "velocity": 64,
                "duration": 0.08409090909090722,
                "tempo": 120.0
            },
            {
                "start_time": 31.30681818181818,
                "end_time": 31.493181818181817,
                "pitch": 37,
                "velocity": 64,
                "duration": 0.1863636363636374,
                "tempo": 120.0
            },
            {
                "start_time": 31.509090909090908,
                "end_time": 31.593181818181815,
                "pitch": 32,
                "velocity": 64,
                "duration": 0.08409090909090722,
                "tempo": 120.0
            },
            {
                "start_time": 31.609090909090906,
                "end_time": 31.795454545454543,
                "pitch": 30,
                "velocity": 64,
                "duration": 0.1863636363636374,
                "tempo": 120.0
            },
            {
                "start_time": 31.813636363636363,
                "end_time": 31.89772727272727,
                "pitch": 32,
                "velocity": 64,
                "duration": 0.08409090909090722,
                "tempo": 120.0
            },
            {
                "start_time": 31.91590909090909,
                "end_time": 32.10454545454545,
                "pitch": 30,
                "velocity": 64,
                "duration": 0.1886363636363626,
                "tempo": 120.0
            },
            {
                "start_time": 32.12045454545454,
                "end_time": 32.20227272727273,
                "pitch": 32,
                "velocity": 64,
                "duration": 0.08181818181818556,
                "tempo": 120.0
            },
            {
                "start_time": 32.21818181818182,
                "end_time": 32.3,
                "pitch": 32,
                "velocity": 64,
                "duration": 0.08181818181817846,
                "tempo": 120.0
            },
            {
                "start_time": 32.31818181818182,
                "end_time": 32.39772727272727,
                "pitch": 44,
                "velocity": 64,
                "duration": 0.07954545454545325,
                "tempo": 120.0
            },
            {
                "start_time": 32.41590909090909,
                "end_time": 32.49772727272727,
                "pitch": 32,
                "velocity": 64,
                "duration": 0.08181818181817846,
                "tempo": 120.0
            },
            {
                "start_time": 32.513636363636365,
                "end_time": 32.595454545454544,
                "pitch": 35,
                "velocity": 64,
                "duration": 0.08181818181817846,
                "tempo": 120.0
            },
            {
                "start_time": 32.61363636363636,
                "end_time": 32.695454545454545,
                "pitch": 32,
                "velocity": 64,
                "duration": 0.08181818181818556,
                "tempo": 120.0
            },
            {
                "start_time": 32.71363636363636,
                "end_time": 32.79545454545455,
                "pitch": 34,
                "velocity": 64,
                "duration": 0.08181818181818556,
                "tempo": 120.0
            },
            {
                "start_time": 32.81363636363636,
                "end_time": 32.89545454545454,
                "pitch": 35,
                "velocity": 64,
                "duration": 0.08181818181817846,
                "tempo": 120.0
            },
            {
                "start_time": 32.913636363636364,
                "end_time": 32.99772727272727,
                "pitch": 39,
                "velocity": 64,
                "duration": 0.08409090909090366,
                "tempo": 120.0
            },
            {
                "start_time": 33.013636363636365,
                "end_time": 33.09772727272727,
                "pitch": 32,
                "velocity": 64,
                "duration": 0.08409090909090366,
                "tempo": 120.0
            },
            {
                "start_time": 33.11363636363636,
                "end_time": 33.19772727272727,
                "pitch": 39,
                "velocity": 64,
                "duration": 0.08409090909091077,
                "tempo": 120.0
            },
            {
                "start_time": 33.215909090909086,
                "end_time": 33.3,
                "pitch": 32,
                "velocity": 64,
                "duration": 0.08409090909091077,
                "tempo": 120.0
            },
            {
                "start_time": 33.31590909090909,
                "end_time": 33.4,
                "pitch": 44,
                "velocity": 64,
                "duration": 0.08409090909091077,
                "tempo": 120.0
            },
            {
                "start_time": 33.41590909090909,
                "end_time": 33.5,
                "pitch": 32,
                "velocity": 64,
                "duration": 0.08409090909091077,
                "tempo": 120.0
            },
            {
                "start_time": 33.51590909090909,
                "end_time": 33.699999999999996,
                "pitch": 32,
                "velocity": 64,
                "duration": 0.18409090909090509,
                "tempo": 120.0
            },
            {
                "start_time": 33.715909090909086,
                "end_time": 33.8,
                "pitch": 32,
                "velocity": 64,
                "duration": 0.08409090909091077,
                "tempo": 120.0
            },
            {
                "start_time": 33.81590909090909,
                "end_time": 33.9,
                "pitch": 32,
                "velocity": 64,
                "duration": 0.08409090909091077,
                "tempo": 120.0
            },
            {
                "start_time": 33.91590909090909,
                "end_time": 34.0,
                "pitch": 44,
                "velocity": 64,
                "duration": 0.08409090909091077,
                "tempo": 120.0
            },
            {
                "start_time": 34.01590909090909,
                "end_time": 34.1,
                "pitch": 32,
                "velocity": 64,
                "duration": 0.08409090909091077,
                "tempo": 120.0
            },
            {
                "start_time": 34.11590909090909,
                "end_time": 34.199999999999996,
                "pitch": 35,
                "velocity": 64,
                "duration": 0.08409090909090366,
                "tempo": 120.0
            },
            {
                "start_time": 34.215909090909086,
                "end_time": 34.3,
                "pitch": 32,
                "velocity": 64,
                "duration": 0.08409090909091077,
                "tempo": 120.0
            },
            {
                "start_time": 34.31590909090909,
                "end_time": 34.4,
                "pitch": 34,
                "velocity": 64,
                "duration": 0.08409090909091077,
                "tempo": 120.0
            },
            {
                "start_time": 34.41590909090909,
                "end_time": 34.5,
                "pitch": 35,
                "velocity": 64,
                "duration": 0.08409090909091077,
                "tempo": 120.0
            },
            {
                "start_time": 34.51590909090909,
                "end_time": 34.699999999999996,
                "pitch": 37,
                "velocity": 64,
                "duration": 0.18409090909090509,
                "tempo": 120.0
            },
            {
                "start_time": 34.715909090909086,
                "end_time": 34.8,
                "pitch": 32,
                "velocity": 64,
                "duration": 0.08409090909091077,
                "tempo": 120.0
            },
            {
                "start_time": 34.81590909090909,
                "end_time": 35.002272727272725,
                "pitch": 30,
                "velocity": 64,
                "duration": 0.1863636363636374,
                "tempo": 120.0
            },
            {
                "start_time": 35.018181818181816,
                "end_time": 35.10454545454545,
                "pitch": 32,
                "velocity": 64,
                "duration": 0.08636363636363598,
                "tempo": 120.0
            },
            {
                "start_time": 35.12045454545454,
                "end_time": 35.309090909090905,
                "pitch": 30,
                "velocity": 64,
                "duration": 0.1886363636363626,
                "tempo": 120.0
            },
            {
                "start_time": 35.32727272727273,
                "end_time": 35.40909090909091,
                "pitch": 32,
                "velocity": 64,
                "duration": 0.08181818181817846,
                "tempo": 120.0
            },
            {
                "start_time": 35.425,
                "end_time": 35.50681818181818,
                "pitch": 32,
                "velocity": 64,
                "duration": 0.08181818181818556,
                "tempo": 120.0
            },
            {
                "start_time": 35.52272727272727,
                "end_time": 35.60454545454545,
                "pitch": 44,
                "velocity": 64,
                "duration": 0.08181818181817846,
                "tempo": 120.0
            },
            {
                "start_time": 35.62045454545454,
                "end_time": 35.70227272727273,
                "pitch": 32,
                "velocity": 64,
                "duration": 0.08181818181818556,
                "tempo": 120.0
            },
            {
                "start_time": 35.71818181818182,
                "end_time": 35.80227272727272,
                "pitch": 35,
                "velocity": 64,
                "duration": 0.08409090909090366,
                "tempo": 120.0
            },
            {
                "start_time": 35.81818181818181,
                "end_time": 35.902272727272724,
                "pitch": 32,
                "velocity": 64,
                "duration": 0.08409090909091077,
                "tempo": 120.0
            },
            {
                "start_time": 35.918181818181814,
                "end_time": 36.002272727272725,
                "pitch": 34,
                "velocity": 64,
                "duration": 0.08409090909091077,
                "tempo": 120.0
            },
            {
                "start_time": 36.018181818181816,
                "end_time": 36.10227272727273,
                "pitch": 35,
                "velocity": 64,
                "duration": 0.08409090909091077,
                "tempo": 120.0
            },
            {
                "start_time": 36.11818181818182,
                "end_time": 36.20227272727273,
                "pitch": 39,
                "velocity": 64,
                "duration": 0.08409090909091077,
                "tempo": 120.0
            },
            {
                "start_time": 36.21818181818182,
                "end_time": 36.30227272727272,
                "pitch": 32,
                "velocity": 64,
                "duration": 0.08409090909090366,
                "tempo": 120.0
            },
            {
                "start_time": 36.31818181818181,
                "end_time": 36.402272727272724,
                "pitch": 39,
                "velocity": 64,
                "duration": 0.08409090909091077,
                "tempo": 120.0
            },
            {
                "start_time": 36.418181818181814,
                "end_time": 36.502272727272725,
                "pitch": 32,
                "velocity": 64,
                "duration": 0.08409090909091077,
                "tempo": 120.0
            },
            {
                "start_time": 36.518181818181816,
                "end_time": 36.60227272727273,
                "pitch": 44,
                "velocity": 64,
                "duration": 0.08409090909091077,
                "tempo": 120.0
            },
            {
                "start_time": 36.61818181818182,
                "end_time": 36.70227272727273,
                "pitch": 32,
                "velocity": 64,
                "duration": 0.08409090909091077,
                "tempo": 120.0
            },
            {
                "start_time": 36.71818181818182,
                "end_time": 36.902272727272724,
                "pitch": 32,
                "velocity": 64,
                "duration": 0.18409090909090509,
                "tempo": 120.0
            },
            {
                "start_time": 36.918181818181814,
                "end_time": 37.002272727272725,
                "pitch": 32,
                "velocity": 64,
                "duration": 0.08409090909091077,
                "tempo": 120.0
            },
            {
                "start_time": 37.02045454545454,
                "end_time": 37.10227272727273,
                "pitch": 32,
                "velocity": 64,
                "duration": 0.08181818181818556,
                "tempo": 120.0
            },
            {
                "start_time": 37.12045454545454,
                "end_time": 37.20454545454545,
                "pitch": 44,
                "velocity": 64,
                "duration": 0.08409090909091077,
                "tempo": 120.0
            },
            {
                "start_time": 37.220454545454544,
                "end_time": 37.304545454545455,
                "pitch": 32,
                "velocity": 64,
                "duration": 0.08409090909091077,
                "tempo": 120.0
            },
            {
                "start_time": 37.320454545454545,
                "end_time": 37.404545454545456,
                "pitch": 35,
                "velocity": 64,
                "duration": 0.08409090909091077,
                "tempo": 120.0
            },
            {
                "start_time": 37.42045454545455,
                "end_time": 37.50454545454545,
                "pitch": 32,
                "velocity": 64,
                "duration": 0.08409090909090366,
                "tempo": 120.0
            },
            {
                "start_time": 37.52045454545454,
                "end_time": 37.60454545454545,
                "pitch": 34,
                "velocity": 64,
                "duration": 0.08409090909091077,
                "tempo": 120.0
            },
            {
                "start_time": 37.62045454545454,
                "end_time": 37.70454545454545,
                "pitch": 35,
                "velocity": 64,
                "duration": 0.08409090909091077,
                "tempo": 120.0
            },
            {
                "start_time": 37.720454545454544,
                "end_time": 37.904545454545456,
                "pitch": 37,
                "velocity": 64,
                "duration": 0.1840909090909122,
                "tempo": 120.0
            },
            {
                "start_time": 37.92045454545455,
                "end_time": 38.00454545454545,
                "pitch": 32,
                "velocity": 64,
                "duration": 0.08409090909090366,
                "tempo": 120.0
            },
            {
                "start_time": 38.02045454545454,
                "end_time": 38.20909090909091,
                "pitch": 30,
                "velocity": 64,
                "duration": 0.1886363636363697,
                "tempo": 120.0
            },
            {
                "start_time": 38.225,
                "end_time": 38.31363636363636,
                "pitch": 32,
                "velocity": 64,
                "duration": 0.08863636363636118,
                "tempo": 120.0
            },
            {
                "start_time": 38.33181818181818,
                "end_time": 38.538636363636364,
                "pitch": 30,
                "velocity": 64,
                "duration": 0.20681818181818556,
                "tempo": 120.0
            }
        ],
        "Violin": [
            {
                "start_time": 0.011363636363636364,
                "end_time": 0.19318181818181818,
                "pitch": 48,
                "velocity": 101,
                "duration": 0.18181818181818182,
                "tempo": 120.0
            },
            {
                "start_time": 0.21136363636363636,
                "end_time": 0.3931818181818182,
                "pitch": 53,
                "velocity": 101,
                "duration": 0.18181818181818182,
                "tempo": 120.0
            },
            {
                "start_time": 0.4113636363636363,
                "end_time": 0.5909090909090908,
                "pitch": 55,
                "velocity": 101,
                "duration": 0.1795454545454545,
                "tempo": 120.0
            },
            {
                "start_time": 0.6068181818181818,
                "end_time": 0.6886363636363636,
                "pitch": 53,
                "velocity": 101,
                "duration": 0.08181818181818179,
                "tempo": 120.0
            },
            {
                "start_time": 0.7045454545454545,
                "end_time": 0.9863636363636363,
                "pitch": 60,
                "velocity": 101,
                "duration": 0.28181818181818186,
                "tempo": 120.0
            },
            {
                "start_time": 1.0045454545454544,
                "end_time": 1.1886363636363635,
                "pitch": 55,
                "velocity": 101,
                "duration": 0.18409090909090908,
                "tempo": 120.0
            },
            {
                "start_time": 1.2045454545454546,
                "end_time": 1.393181818181818,
                "pitch": 53,
                "velocity": 101,
                "duration": 0.1886363636363635,
                "tempo": 120.0
            },
            {
                "start_time": 1.4113636363636364,
                "end_time": 1.4954545454545454,
                "pitch": 48,
                "velocity": 101,
                "duration": 0.084090909090909,
                "tempo": 120.0
            },
            {
                "start_time": 1.5136363636363637,
                "end_time": 1.5999999999999999,
                "pitch": 47,
                "velocity": 101,
                "duration": 0.0863636363636362,
                "tempo": 120.0
            },
            {
                "start_time": 1.6159090909090907,
                "end_time": 1.7909090909090908,
                "pitch": 45,
                "velocity": 101,
                "duration": 0.17500000000000004,
                "tempo": 120.0
            },
            {
                "start_time": 1.8068181818181817,
                "end_time": 1.9818181818181817,
                "pitch": 50,
                "velocity": 101,
                "duration": 0.17500000000000004,
                "tempo": 120.0
            },
            {
                "start_time": 1.9977272727272726,
                "end_time": 2.186363636363636,
                "pitch": 52,
                "velocity": 101,
                "duration": 0.1886363636363635,
                "tempo": 120.0
            },
            {
                "start_time": 2.202272727272727,
                "end_time": 2.2886363636363636,
                "pitch": 50,
                "velocity": 101,
                "duration": 0.08636363636363642,
                "tempo": 120.0
            },
            {
                "start_time": 2.3068181818181817,
                "end_time": 2.5931818181818183,
                "pitch": 57,
                "velocity": 101,
                "duration": 0.2863636363636366,
                "tempo": 120.0
            },
            {
                "start_time": 2.609090909090909,
                "end_time": 2.7954545454545454,
                "pitch": 52,
                "velocity": 101,
                "duration": 0.1863636363636365,
                "tempo": 120.0
            },
            {
                "start_time": 2.811363636363636,
                "end_time": 3.0,
                "pitch": 50,
                "velocity": 101,
                "duration": 0.18863636363636394,
                "tempo": 120.0
            },
            {
                "start_time": 3.0159090909090907,
                "end_time": 3.2045454545454546,
                "pitch": 45,
                "velocity": 101,
                "duration": 0.18863636363636394,
                "tempo": 120.0
            },
            {
                "start_time": 3.2204545454545452,
                "end_time": 3.3954545454545455,
                "pitch": 48,
                "velocity": 101,
                "duration": 0.17500000000000027,
                "tempo": 120.0
            },
            {
                "start_time": 3.411363636363636,
                "end_time": 3.5886363636363634,
                "pitch": 53,
                "velocity": 101,
                "duration": 0.17727272727272725,
                "tempo": 120.0
            },
            {
                "start_time": 3.6045454545454545,
                "end_time": 3.7909090909090906,
                "pitch": 55,
                "velocity": 101,
                "duration": 0.18636363636363606,
                "tempo": 120.0
            },
            {
                "start_time": 3.809090909090909,
                "end_time": 3.895454545454545,
                "pitch": 53,
                "velocity": 101,
                "duration": 0.08636363636363598,
                "tempo": 120.0
            },
            {
                "start_time": 3.911363636363636,
                "end_time": 4.197727272727272,
                "pitch": 60,
                "velocity": 101,
                "duration": 0.28636363636363615,
                "tempo": 120.0
            },
            {
                "start_time": 4.213636363636364,
                "end_time": 4.3977272727272725,
                "pitch": 55,
                "velocity": 101,
                "duration": 0.18409090909090864,
                "tempo": 120.0
            },
            {
                "start_time": 4.413636363636363,
                "end_time": 4.602272727272727,
                "pitch": 53,
                "velocity": 101,
                "duration": 0.1886363636363635,
                "tempo": 120.0
            },
            {
                "start_time": 4.620454545454545,
                "end_time": 4.704545454545454,
                "pitch": 48,
                "velocity": 101,
                "duration": 0.084090909090909,
                "tempo": 120.0
            },
            {
                "start_time": 4.722727272727273,
                "end_time": 4.809090909090909,
                "pitch": 47,
                "velocity": 101,
                "duration": 0.08636363636363598,
                "tempo": 120.0
            },
            {
                "start_time": 4.825,
                "end_time": 5.004545454545454,
                "pitch": 45,
                "velocity": 101,
                "duration": 0.1795454545454538,
                "tempo": 120.0
            },
            {
                "start_time": 5.0204545454545455,
                "end_time": 5.2,
                "pitch": 50,
                "velocity": 101,
                "duration": 0.17954545454545467,
                "tempo": 120.0
            },
            {
                "start_time": 5.218181818181818,
                "end_time": 5.402272727272727,
                "pitch": 52,
                "velocity": 101,
                "duration": 0.18409090909090953,
                "tempo": 120.0
            },
            {
                "start_time": 5.418181818181818,
                "end_time": 5.502272727272727,
                "pitch": 50,
                "velocity": 101,
                "duration": 0.084090909090909,
                "tempo": 120.0
            },
            {
                "start_time": 5.518181818181818,
                "end_time": 5.804545454545455,
                "pitch": 57,
                "velocity": 101,
                "duration": 0.28636363636363704,
                "tempo": 120.0
            },
            {
                "start_time": 5.820454545454545,
                "end_time": 6.006818181818182,
                "pitch": 52,
                "velocity": 101,
                "duration": 0.1863636363636365,
                "tempo": 120.0
            },
            {
                "start_time": 6.0227272727272725,
                "end_time": 6.211363636363636,
                "pitch": 50,
                "velocity": 101,
                "duration": 0.1886363636363635,
                "tempo": 120.0
            },
            {
                "start_time": 6.227272727272727,
                "end_time": 6.415909090909091,
                "pitch": 45,
                "velocity": 101,
                "duration": 0.18863636363636438,
                "tempo": 120.0
            },
            {
                "start_time": 6.434090909090909,
                "end_time": 6.613636363636363,
                "pitch": 48,
                "velocity": 101,
                "duration": 0.17954545454545467,
                "tempo": 120.0
            },
            {
                "start_time": 6.629545454545454,
                "end_time": 6.809090909090909,
                "pitch": 53,
                "velocity": 101,
                "duration": 0.17954545454545467,
                "tempo": 120.0
            },
            {
                "start_time": 6.824999999999999,
                "end_time": 7.009090909090909,
                "pitch": 55,
                "velocity": 101,
                "duration": 0.18409090909090953,
                "tempo": 120.0
            },
            {
                "start_time": 7.0249999999999995,
                "end_time": 7.1090909090909085,
                "pitch": 53,
                "velocity": 101,
                "duration": 0.084090909090909,
                "tempo": 120.0
            },
            {
                "start_time": 7.125,
                "end_time": 7.404545454545454,
                "pitch": 60,
                "velocity": 101,
                "duration": 0.2795454545454543,
                "tempo": 120.0
            },
            {
                "start_time": 7.420454545454545,
                "end_time": 7.602272727272727,
                "pitch": 55,
                "velocity": 101,
                "duration": 0.18181818181818166,
                "tempo": 120.0
            },
            {
                "start_time": 7.618181818181818,
                "end_time": 7.811363636363636,
                "pitch": 53,
                "velocity": 101,
                "duration": 0.19318181818181746,
                "tempo": 120.0
            },
            {
                "start_time": 7.827272727272727,
                "end_time": 7.91590909090909,
                "pitch": 48,
                "velocity": 101,
                "duration": 0.08863636363636296,
                "tempo": 120.0
            },
            {
                "start_time": 7.934090909090909,
                "end_time": 8.022727272727272,
                "pitch": 47,
                "velocity": 101,
                "duration": 0.08863636363636296,
                "tempo": 120.0
            },
            {
                "start_time": 8.038636363636364,
                "end_time": 8.218181818181817,
                "pitch": 45,
                "velocity": 101,
                "duration": 0.1795454545454529,
                "tempo": 120.0
            },
            {
                "start_time": 8.236363636363636,
                "end_time": 8.415909090909091,
                "pitch": 50,
                "velocity": 101,
                "duration": 0.17954545454545467,
                "tempo": 120.0
            },
            {
                "start_time": 8.431818181818182,
                "end_time": 8.611363636363636,
                "pitch": 52,
                "velocity": 101,
                "duration": 0.17954545454545467,
                "tempo": 120.0
            },
            {
                "start_time": 8.627272727272727,
                "end_time": 8.709090909090909,
                "pitch": 50,
                "velocity": 101,
                "duration": 0.08181818181818201,
                "tempo": 120.0
            },
            {
                "start_time": 8.725,
                "end_time": 9.009090909090908,
                "pitch": 57,
                "velocity": 101,
                "duration": 0.2840909090909083,
                "tempo": 120.0
            },
            {
                "start_time": 9.025,
                "end_time": 9.209090909090909,
                "pitch": 52,
                "velocity": 101,
                "duration": 0.18409090909090864,
                "tempo": 120.0
            },
            {
                "start_time": 9.227272727272727,
                "end_time": 9.420454545454545,
                "pitch": 50,
                "velocity": 101,
                "duration": 0.19318181818181834,
                "tempo": 120.0
            },
            {
                "start_time": 9.436363636363636,
                "end_time": 9.631818181818181,
                "pitch": 45,
                "velocity": 101,
                "duration": 0.19545454545454533,
                "tempo": 120.0
            },
            {
                "start_time": 9.647727272727272,
                "end_time": 9.822727272727272,
                "pitch": 48,
                "velocity": 101,
                "duration": 0.1750000000000007,
                "tempo": 120.0
            },
            {
                "start_time": 9.838636363636363,
                "end_time": 10.013636363636364,
                "pitch": 53,
                "velocity": 101,
                "duration": 0.1750000000000007,
                "tempo": 120.0
            },
            {
                "start_time": 10.029545454545454,
                "end_time": 10.21590909090909,
                "pitch": 55,
                "velocity": 101,
                "duration": 0.18636363636363562,
                "tempo": 120.0
            },
            {
                "start_time": 10.23181818181818,
                "end_time": 10.31590909090909,
                "pitch": 53,
                "velocity": 101,
                "duration": 0.084090909090909,
                "tempo": 120.0
            },
            {
                "start_time": 10.331818181818182,
                "end_time": 10.620454545454544,
                "pitch": 60,
                "velocity": 101,
                "duration": 0.28863636363636225,
                "tempo": 120.0
            },
            {
                "start_time": 10.638636363636364,
                "end_time": 10.827272727272726,
                "pitch": 55,
                "velocity": 101,
                "duration": 0.1886363636363626,
                "tempo": 120.0
            },
            {
                "start_time": 10.843181818181817,
                "end_time": 11.031818181818181,
                "pitch": 53,
                "velocity": 101,
                "duration": 0.18863636363636438,
                "tempo": 120.0
            },
            {
                "start_time": 11.049999999999999,
                "end_time": 11.134090909090908,
                "pitch": 48,
                "velocity": 101,
                "duration": 0.084090909090909,
                "tempo": 120.0
            },
            {
                "start_time": 11.152272727272727,
                "end_time": 11.238636363636363,
                "pitch": 47,
                "velocity": 101,
                "duration": 0.08636363636363598,
                "tempo": 120.0
            },
            {
                "start_time": 11.254545454545454,
                "end_time": 11.429545454545455,
                "pitch": 45,
                "velocity": 101,
                "duration": 0.1750000000000007,
                "tempo": 120.0
            },
            {
                "start_time": 11.445454545454545,
                "end_time": 11.620454545454544,
                "pitch": 50,
                "velocity": 101,
                "duration": 0.17499999999999893,
                "tempo": 120.0
            },
            {
                "start_time": 11.636363636363637,
                "end_time": 11.825,
                "pitch": 52,
                "velocity": 101,
                "duration": 0.1886363636363626,
                "tempo": 120.0
            },
            {
                "start_time": 11.84090909090909,
                "end_time": 11.927272727272726,
                "pitch": 50,
                "velocity": 101,
                "duration": 0.08636363636363598,
                "tempo": 120.0
            },
            {
                "start_time": 11.945454545454545,
                "end_time": 12.23181818181818,
                "pitch": 57,
                "velocity": 101,
                "duration": 0.28636363636363527,
                "tempo": 120.0
            },
            {
                "start_time": 12.247727272727273,
                "end_time": 12.434090909090909,
                "pitch": 52,
                "velocity": 101,
                "duration": 0.18636363636363562,
                "tempo": 120.0
            },
            {
                "start_time": 12.45,
                "end_time": 12.629545454545454,
                "pitch": 50,
                "velocity": 101,
                "duration": 0.17954545454545467,
                "tempo": 120.0
            },
            {
                "start_time": 12.645454545454545,
                "end_time": 13.029545454545454,
                "pitch": 45,
                "velocity": 101,
                "duration": 0.3840909090909097,
                "tempo": 120.0
            },
            {
                "start_time": 13.047727272727272,
                "end_time": 13.131818181818181,
                "pitch": 68,
                "velocity": 101,
                "duration": 0.084090909090909,
                "tempo": 120.0
            },
            {
                "start_time": 13.149999999999999,
                "end_time": 13.436363636363636,
                "pitch": 70,
                "velocity": 101,
                "duration": 0.28636363636363704,
                "tempo": 120.0
            },
            {
                "start_time": 13.454545454545453,
                "end_time": 13.538636363636362,
                "pitch": 71,
                "velocity": 101,
                "duration": 0.084090909090909,
                "tempo": 120.0
            },
            {
                "start_time": 13.554545454545455,
                "end_time": 13.838636363636363,
                "pitch": 68,
                "velocity": 101,
                "duration": 0.2840909090909083,
                "tempo": 120.0
            },
            {
                "start_time": 13.854545454545454,
                "end_time": 13.938636363636363,
                "pitch": 59,
                "velocity": 101,
                "duration": 0.084090909090909,
                "tempo": 120.0
            },
            {
                "start_time": 13.954545454545453,
                "end_time": 14.038636363636362,
                "pitch": 61,
                "velocity": 101,
                "duration": 0.084090909090909,
                "tempo": 120.0
            },
            {
                "start_time": 14.054545454545455,
                "end_time": 14.138636363636364,
                "pitch": 68,
                "velocity": 101,
                "duration": 0.084090909090909,
                "tempo": 120.0
            },
            {
                "start_time": 14.156818181818181,
                "end_time": 14.24090909090909,
                "pitch": 66,
                "velocity": 101,
                "duration": 0.084090909090909,
                "tempo": 120.0
            },
            {
                "start_time": 14.256818181818181,
                "end_time": 14.34090909090909,
                "pitch": 64,
                "velocity": 101,
                "duration": 0.084090909090909,
                "tempo": 120.0
            },
            {
                "start_time": 14.35681818181818,
                "end_time": 14.44090909090909,
                "pitch": 63,
                "velocity": 101,
                "duration": 0.084090909090909,
                "tempo": 120.0
            },
            {
                "start_time": 14.45681818181818,
                "end_time": 14.638636363636364,
                "pitch": 61,
                "velocity": 101,
                "duration": 0.18181818181818343,
                "tempo": 120.0
            },
            {
                "start_time": 14.654545454545454,
                "end_time": 14.736363636363636,
                "pitch": 68,
                "velocity": 101,
                "duration": 0.08181818181818201,
                "tempo": 120.0
            },
            {
                "start_time": 14.752272727272727,
                "end_time": 15.038636363636362,
                "pitch": 70,
                "velocity": 101,
                "duration": 0.28636363636363527,
                "tempo": 120.0
            },
            {
                "start_time": 15.054545454545455,
                "end_time": 15.14090909090909,
                "pitch": 71,
                "velocity": 101,
                "duration": 0.08636363636363598,
                "tempo": 120.0
            },
            {
                "start_time": 15.159090909090908,
                "end_time": 15.445454545454545,
                "pitch": 68,
                "velocity": 101,
                "duration": 0.28636363636363704,
                "tempo": 120.0
            },
            {
                "start_time": 15.461363636363636,
                "end_time": 15.545454545454545,
                "pitch": 63,
                "velocity": 101,
                "duration": 0.084090909090909,
                "tempo": 120.0
            },
            {
                "start_time": 15.563636363636363,
                "end_time": 15.647727272727272,
                "pitch": 61,
                "velocity": 101,
                "duration": 0.084090909090909,
                "tempo": 120.0
            },
            {
                "start_time": 15.663636363636362,
                "end_time": 15.75,
                "pitch": 59,
                "velocity": 101,
                "duration": 0.08636363636363775,
                "tempo": 120.0
            },
            {
                "start_time": 15.76590909090909,
                "end_time": 15.852272727272727,
                "pitch": 63,
                "velocity": 101,
                "duration": 0.08636363636363598,
                "tempo": 120.0
            },
            {
                "start_time": 15.868181818181817,
                "end_time": 16.254545454545454,
                "pitch": 61,
                "velocity": 101,
                "duration": 0.3863636363636367,
                "tempo": 120.0
            },
            {
                "start_time": 16.270454545454545,
                "end_time": 16.352272727272727,
                "pitch": 68,
                "velocity": 101,
                "duration": 0.08181818181818201,
                "tempo": 120.0
            },
            {
                "start_time": 16.368181818181817,
                "end_time": 16.65,
                "pitch": 70,
                "velocity": 101,
                "duration": 0.2818181818181813,
                "tempo": 120.0
            },
            {
                "start_time": 16.66590909090909,
                "end_time": 16.75,
                "pitch": 71,
                "velocity": 101,
                "duration": 0.08409090909091077,
                "tempo": 120.0
            },
            {
                "start_time": 16.76590909090909,
                "end_time": 17.05,
                "pitch": 68,
                "velocity": 101,
                "duration": 0.28409090909091006,
                "tempo": 120.0
            },
            {
                "start_time": 17.06590909090909,
                "end_time": 17.15,
                "pitch": 59,
                "velocity": 101,
                "duration": 0.08409090909090722,
                "tempo": 120.0
            },
            {
                "start_time": 17.16590909090909,
                "end_time": 17.25,
                "pitch": 61,
                "velocity": 101,
                "duration": 0.08409090909091077,
                "tempo": 120.0
            },
            {
                "start_time": 17.26590909090909,
                "end_time": 17.349999999999998,
                "pitch": 68,
                "velocity": 101,
                "duration": 0.08409090909090722,
                "tempo": 120.0
            },
            {
                "start_time": 17.368181818181817,
                "end_time": 17.452272727272728,
                "pitch": 66,
                "velocity": 101,
                "duration": 0.08409090909091077,
                "tempo": 120.0
            },
            {
                "start_time": 17.46818181818182,
                "end_time": 17.552272727272726,
                "pitch": 64,
                "velocity": 101,
                "duration": 0.08409090909090722,
                "tempo": 120.0
            },
            {
                "start_time": 17.568181818181817,
                "end_time": 17.652272727272727,
                "pitch": 63,
                "velocity": 101,
                "duration": 0.08409090909091077,
                "tempo": 120.0
            },
            {
                "start_time": 17.668181818181818,
                "end_time": 17.852272727272727,
                "pitch": 61,
                "velocity": 101,
                "duration": 0.18409090909090864,
                "tempo": 120.0
            },
            {
                "start_time": 17.868181818181817,
                "end_time": 17.952272727272728,
                "pitch": 68,
                "velocity": 101,
                "duration": 0.08409090909091077,
                "tempo": 120.0
            },
            {
                "start_time": 17.96818181818182,
                "end_time": 18.254545454545454,
                "pitch": 70,
                "velocity": 101,
                "duration": 0.28636363636363527,
                "tempo": 120.0
            },
            {
                "start_time": 18.270454545454545,
                "end_time": 18.354545454545455,
                "pitch": 71,
                "velocity": 101,
                "duration": 0.08409090909091077,
                "tempo": 120.0
            },
            {
                "start_time": 18.370454545454546,
                "end_time": 18.654545454545453,
                "pitch": 68,
                "velocity": 101,
                "duration": 0.2840909090909065,
                "tempo": 120.0
            },
            {
                "start_time": 18.672727272727272,
                "end_time": 18.754545454545454,
                "pitch": 63,
                "velocity": 101,
                "duration": 0.08181818181818201,
                "tempo": 120.0
            },
            {
                "start_time": 18.772727272727273,
                "end_time": 18.854545454545455,
                "pitch": 61,
                "velocity": 101,
                "duration": 0.08181818181818201,
                "tempo": 120.0
            },
            {
                "start_time": 18.87272727272727,
                "end_time": 18.956818181818182,
                "pitch": 59,
                "velocity": 101,
                "duration": 0.08409090909091077,
                "tempo": 120.0
            },
            {
                "start_time": 18.974999999999998,
                "end_time": 19.05909090909091,
                "pitch": 63,
                "velocity": 101,
                "duration": 0.08409090909091077,
                "tempo": 120.0
            },
            {
                "start_time": 19.077272727272728,
                "end_time": 19.461363636363636,
                "pitch": 61,
                "velocity": 101,
                "duration": 0.38409090909090793,
                "tempo": 120.0
            },
            {
                "start_time": 19.479545454545452,
                "end_time": 19.561363636363634,
                "pitch": 68,
                "velocity": 101,
                "duration": 0.08181818181818201,
                "tempo": 120.0
            },
            {
                "start_time": 19.577272727272728,
                "end_time": 19.85909090909091,
                "pitch": 70,
                "velocity": 101,
                "duration": 0.2818181818181813,
                "tempo": 120.0
            },
            {
                "start_time": 19.875,
                "end_time": 19.959090909090907,
                "pitch": 71,
                "velocity": 101,
                "duration": 0.08409090909090722,
                "tempo": 120.0
            },
            {
                "start_time": 19.974999999999998,
                "end_time": 20.259090909090908,
                "pitch": 68,
                "velocity": 101,
                "duration": 0.28409090909091006,
                "tempo": 120.0
            },
            {
                "start_time": 20.277272727272727,
                "end_time": 20.35909090909091,
                "pitch": 59,
                "velocity": 101,
                "duration": 0.08181818181818201,
                "tempo": 120.0
            },
            {
                "start_time": 20.377272727272725,
                "end_time": 20.461363636363636,
                "pitch": 61,
                "velocity": 101,
                "duration": 0.08409090909091077,
                "tempo": 120.0
            },
            {
                "start_time": 20.477272727272727,
                "end_time": 20.561363636363634,
                "pitch": 68,
                "velocity": 101,
                "duration": 0.08409090909090722,
                "tempo": 120.0
            },
            {
                "start_time": 20.577272727272728,
                "end_time": 20.661363636363635,
                "pitch": 66,
                "velocity": 101,
                "duration": 0.08409090909090722,
                "tempo": 120.0
            },
            {
                "start_time": 20.677272727272726,
                "end_time": 20.761363636363637,
                "pitch": 64,
                "velocity": 101,
                "duration": 0.08409090909091077,
                "tempo": 120.0
            },
            {
                "start_time": 20.777272727272727,
                "end_time": 20.861363636363635,
                "pitch": 63,
                "velocity": 101,
                "duration": 0.08409090909090722,
                "tempo": 120.0
            },
            {
                "start_time": 20.877272727272725,
                "end_time": 21.061363636363634,
                "pitch": 61,
                "velocity": 101,
                "duration": 0.18409090909090864,
                "tempo": 120.0
            },
            {
                "start_time": 21.077272727272724,
                "end_time": 21.161363636363635,
                "pitch": 68,
                "velocity": 101,
                "duration": 0.08409090909091077,
                "tempo": 120.0
            },
            {
                "start_time": 21.177272727272726,
                "end_time": 21.461363636363636,
                "pitch": 70,
                "velocity": 101,
                "duration": 0.28409090909091006,
                "tempo": 120.0
            },
            {
                "start_time": 21.479545454545452,
                "end_time": 21.563636363636363,
                "pitch": 71,
                "velocity": 101,
                "duration": 0.08409090909091077,
                "tempo": 120.0
            },
            {
                "start_time": 21.579545454545453,
                "end_time": 21.863636363636363,
                "pitch": 68,
                "velocity": 101,
                "duration": 0.28409090909091006,
                "tempo": 120.0
            },
            {
                "start_time": 21.879545454545454,
                "end_time": 21.96363636363636,
                "pitch": 63,
                "velocity": 101,
                "duration": 0.08409090909090722,
                "tempo": 120.0
            },
            {
                "start_time": 21.979545454545452,
                "end_time": 22.063636363636363,
                "pitch": 61,
                "velocity": 101,
                "duration": 0.08409090909091077,
                "tempo": 120.0
            },
            {
                "start_time": 22.079545454545453,
                "end_time": 22.16590909090909,
                "pitch": 59,
                "velocity": 101,
                "duration": 0.08636363636363598,
                "tempo": 120.0
            },
            {
                "start_time": 22.18181818181818,
                "end_time": 22.268181818181816,
                "pitch": 63,
                "velocity": 101,
                "duration": 0.08636363636363598,
                "tempo": 120.0
            },
            {
                "start_time": 22.286363636363635,
                "end_time": 22.670454545454543,
                "pitch": 61,
                "velocity": 101,
                "duration": 0.38409090909090793,
                "tempo": 120.0
            },
            {
                "start_time": 22.686363636363634,
                "end_time": 22.768181818181816,
                "pitch": 68,
                "velocity": 101,
                "duration": 0.08181818181818201,
                "tempo": 120.0
            },
            {
                "start_time": 22.784090909090907,
                "end_time": 23.06590909090909,
                "pitch": 70,
                "velocity": 101,
                "duration": 0.28181818181818485,
                "tempo": 120.0
            },
            {
                "start_time": 23.084090909090907,
                "end_time": 23.16590909090909,
                "pitch": 71,
                "velocity": 101,
                "duration": 0.08181818181818201,
                "tempo": 120.0
            },
            {
                "start_time": 23.18409090909091,
                "end_time": 23.46818181818182,
                "pitch": 68,
                "velocity": 101,
                "duration": 0.28409090909091006,
                "tempo": 120.0
            },
            {
                "start_time": 23.48409090909091,
                "end_time": 23.568181818181817,
                "pitch": 59,
                "velocity": 101,
                "duration": 0.08409090909090722,
                "tempo": 120.0
            },
            {
                "start_time": 23.584090909090907,
                "end_time": 23.668181818181818,
                "pitch": 61,
                "velocity": 101,
                "duration": 0.08409090909091077,
                "tempo": 120.0
            },
            {
                "start_time": 23.686363636363634,
                "end_time": 23.768181818181816,
                "pitch": 68,
                "velocity": 101,
                "duration": 0.08181818181818201,
                "tempo": 120.0
            },
            {
                "start_time": 23.786363636363635,
                "end_time": 23.868181818181817,
                "pitch": 66,
                "velocity": 101,
                "duration": 0.08181818181818201,
                "tempo": 120.0
            },
            {
                "start_time": 23.886363636363637,
                "end_time": 23.96818181818182,
                "pitch": 64,
                "velocity": 101,
                "duration": 0.08181818181818201,
                "tempo": 120.0
            },
            {
                "start_time": 23.986363636363635,
                "end_time": 24.068181818181817,
                "pitch": 63,
                "velocity": 101,
                "duration": 0.08181818181818201,
                "tempo": 120.0
            },
            {
                "start_time": 24.086363636363636,
                "end_time": 24.270454545454545,
                "pitch": 61,
                "velocity": 101,
                "duration": 0.18409090909090864,
                "tempo": 120.0
            },
            {
                "start_time": 24.286363636363635,
                "end_time": 24.370454545454546,
                "pitch": 68,
                "velocity": 101,
                "duration": 0.08409090909091077,
                "tempo": 120.0
            },
            {
                "start_time": 24.388636363636362,
                "end_time": 24.672727272727272,
                "pitch": 70,
                "velocity": 101,
                "duration": 0.28409090909091006,
                "tempo": 120.0
            },
            {
                "start_time": 24.688636363636363,
                "end_time": 24.77272727272727,
                "pitch": 71,
                "velocity": 101,
                "duration": 0.08409090909090722,
                "tempo": 120.0
            },
            {
                "start_time": 24.788636363636364,
                "end_time": 25.07272727272727,
                "pitch": 68,
                "velocity": 101,
                "duration": 0.2840909090909065,
                "tempo": 120.0
            },
            {
                "start_time": 25.08863636363636,
                "end_time": 25.172727272727272,
                "pitch": 63,
                "velocity": 101,
                "duration": 0.08409090909091077,
                "tempo": 120.0
            },
            {
                "start_time": 25.188636363636363,
                "end_time": 25.27272727272727,
                "pitch": 61,
                "velocity": 101,
                "duration": 0.08409090909090722,
                "tempo": 120.0
            },
            {
                "start_time": 25.288636363636364,
                "end_time": 25.37272727272727,
                "pitch": 59,
                "velocity": 101,
                "duration": 0.08409090909090722,
                "tempo": 120.0
            },
            {
                "start_time": 25.39090909090909,
                "end_time": 25.477272727272727,
                "pitch": 63,
                "velocity": 101,
                "duration": 0.08636363636363598,
                "tempo": 120.0
            },
            {
                "start_time": 25.493181818181817,
                "end_time": 25.879545454545454,
                "pitch": 61,
                "velocity": 101,
                "duration": 0.3863636363636367,
                "tempo": 120.0
            },
            {
                "start_time": 25.895454545454545,
                "end_time": 25.977272727272727,
                "pitch": 68,
                "velocity": 101,
                "duration": 0.08181818181818201,
                "tempo": 120.0
            },
            {
                "start_time": 25.993181818181817,
                "end_time": 26.275,
                "pitch": 70,
                "velocity": 101,
                "duration": 0.2818181818181813,
                "tempo": 120.0
            },
            {
                "start_time": 26.293181818181818,
                "end_time": 26.377272727272725,
                "pitch": 71,
                "velocity": 101,
                "duration": 0.08409090909090722,
                "tempo": 120.0
            },
            {
                "start_time": 26.393181818181816,
                "end_time": 26.677272727272726,
                "pitch": 68,
                "velocity": 101,
                "duration": 0.28409090909091006,
                "tempo": 120.0
            },
            {
                "start_time": 26.693181818181817,
                "end_time": 26.777272727272727,
                "pitch": 59,
                "velocity": 101,
                "duration": 0.08409090909091077,
                "tempo": 120.0
            },
            {
                "start_time": 26.793181818181818,
                "end_time": 26.877272727272725,
                "pitch": 61,
                "velocity": 101,
                "duration": 0.08409090909090722,
                "tempo": 120.0
            },
            {
                "start_time": 26.893181818181816,
                "end_time": 26.977272727272727,
                "pitch": 68,
                "velocity": 101,
                "duration": 0.08409090909091077,
                "tempo": 120.0
            },
            {
                "start_time": 26.993181818181817,
                "end_time": 27.077272727272724,
                "pitch": 66,
                "velocity": 101,
                "duration": 0.08409090909090722,
                "tempo": 120.0
            },
            {
                "start_time": 27.093181818181815,
                "end_time": 27.177272727272726,
                "pitch": 64,
                "velocity": 101,
                "duration": 0.08409090909091077,
                "tempo": 120.0
            },
            {
                "start_time": 27.193181818181817,
                "end_time": 27.277272727272727,
                "pitch": 63,
                "velocity": 101,
                "duration": 0.08409090909091077,
                "tempo": 120.0
            },
            {
                "start_time": 27.293181818181818,
                "end_time": 27.479545454545452,
                "pitch": 61,
                "velocity": 101,
                "duration": 0.18636363636363384,
                "tempo": 120.0
            },
            {
                "start_time": 27.495454545454542,
                "end_time": 27.579545454545453,
                "pitch": 68,
                "velocity": 101,
                "duration": 0.08409090909091077,
                "tempo": 120.0
            },
            {
                "start_time": 27.595454545454544,
                "end_time": 27.879545454545454,
                "pitch": 70,
                "velocity": 101,
                "duration": 0.28409090909091006,
                "tempo": 120.0
            },
            {
                "start_time": 27.89772727272727,
                "end_time": 27.979545454545452,
                "pitch": 71,
                "velocity": 101,
                "duration": 0.08181818181818201,
                "tempo": 120.0
            },
            {
                "start_time": 27.99772727272727,
                "end_time": 28.28181818181818,
                "pitch": 68,
                "velocity": 101,
                "duration": 0.28409090909091006,
                "tempo": 120.0
            },
            {
                "start_time": 28.297727272727272,
                "end_time": 28.38181818181818,
                "pitch": 63,
                "velocity": 101,
                "duration": 0.08409090909090722,
                "tempo": 120.0
            },
            {
                "start_time": 28.39772727272727,
                "end_time": 28.48181818181818,
                "pitch": 61,
                "velocity": 101,
                "duration": 0.08409090909091077,
                "tempo": 120.0
            },
            {
                "start_time": 28.5,
                "end_time": 28.584090909090907,
                "pitch": 59,
                "velocity": 101,
                "duration": 0.08409090909090722,
                "tempo": 120.0
            },
            {
                "start_time": 28.602272727272727,
                "end_time": 28.686363636363634,
                "pitch": 63,
                "velocity": 101,
                "duration": 0.08409090909090722,
                "tempo": 120.0
            },
            {
                "start_time": 28.704545454545453,
                "end_time": 29.08863636363636,
                "pitch": 61,
                "velocity": 101,
                "duration": 0.38409090909090793,
                "tempo": 120.0
            },
            {
                "start_time": 29.10681818181818,
                "end_time": 29.188636363636363,
                "pitch": 68,
                "velocity": 101,
                "duration": 0.08181818181818201,
                "tempo": 120.0
            },
            {
                "start_time": 29.204545454545453,
                "end_time": 29.486363636363635,
                "pitch": 70,
                "velocity": 101,
                "duration": 0.2818181818181813,
                "tempo": 120.0
            },
            {
                "start_time": 29.504545454545454,
                "end_time": 29.586363636363636,
                "pitch": 71,
                "velocity": 101,
                "duration": 0.08181818181818201,
                "tempo": 120.0
            },
            {
                "start_time": 29.604545454545452,
                "end_time": 29.888636363636362,
                "pitch": 68,
                "velocity": 101,
                "duration": 0.28409090909091006,
                "tempo": 120.0
            },
            {
                "start_time": 29.904545454545453,
                "end_time": 29.988636363636363,
                "pitch": 59,
                "velocity": 101,
                "duration": 0.08409090909091077,
                "tempo": 120.0
            },
            {
                "start_time": 30.004545454545454,
                "end_time": 30.08863636363636,
                "pitch": 61,
                "velocity": 101,
                "duration": 0.08409090909090722,
                "tempo": 120.0
            },
            {
                "start_time": 30.104545454545452,
                "end_time": 30.188636363636363,
                "pitch": 68,
                "velocity": 101,
                "duration": 0.08409090909091077,
                "tempo": 120.0
            },
            {
                "start_time": 30.204545454545453,
                "end_time": 30.28863636363636,
                "pitch": 66,
                "velocity": 101,
                "duration": 0.08409090909090722,
                "tempo": 120.0
            },
            {
                "start_time": 30.30681818181818,
                "end_time": 30.39090909090909,
                "pitch": 64,
                "velocity": 101,
                "duration": 0.08409090909091077,
                "tempo": 120.0
            },
            {
                "start_time": 30.40681818181818,
                "end_time": 30.49090909090909,
                "pitch": 63,
                "velocity": 101,
                "duration": 0.08409090909090722,
                "tempo": 120.0
            },
            {
                "start_time": 30.50681818181818,
                "end_time": 30.690909090909088,
                "pitch": 61,
                "velocity": 101,
                "duration": 0.18409090909090864,
                "tempo": 120.0
            },
            {
                "start_time": 30.706818181818182,
                "end_time": 30.79090909090909,
                "pitch": 68,
                "velocity": 101,
                "duration": 0.08409090909090722,
                "tempo": 120.0
            },
            {
                "start_time": 30.80681818181818,
                "end_time": 31.09090909090909,
                "pitch": 70,
                "velocity": 101,
                "duration": 0.28409090909091006,
                "tempo": 120.0
            },
            {
                "start_time": 31.10681818181818,
                "end_time": 31.190909090909088,
                "pitch": 71,
                "velocity": 101,
                "duration": 0.08409090909090722,
                "tempo": 120.0
            },
            {
                "start_time": 31.206818181818182,
                "end_time": 31.493181818181817,
                "pitch": 68,
                "velocity": 101,
                "duration": 0.28636363636363527,
                "tempo": 120.0
            },
            {
                "start_time": 31.509090909090908,
                "end_time": 31.593181818181815,
                "pitch": 63,
                "velocity": 101,
                "duration": 0.08409090909090722,
                "tempo": 120.0
            },
            {
                "start_time": 31.609090909090906,
                "end_time": 31.693181818181817,
                "pitch": 61,
                "velocity": 101,
                "duration": 0.08409090909091077,
                "tempo": 120.0
            },
            {
                "start_time": 31.711363636363636,
                "end_time": 31.795454545454543,
                "pitch": 59,
                "velocity": 101,
                "duration": 0.08409090909090722,
                "tempo": 120.0
            },
            {
                "start_time": 31.813636363636363,
                "end_time": 31.89772727272727,
                "pitch": 63,
                "velocity": 101,
                "duration": 0.08409090909090722,
                "tempo": 120.0
            },
            {
                "start_time": 31.91590909090909,
                "end_time": 32.3,
                "pitch": 61,
                "velocity": 101,
                "duration": 0.38409090909090793,
                "tempo": 120.0
            },
            {
                "start_time": 32.31818181818182,
                "end_time": 32.39772727272727,
                "pitch": 68,
                "velocity": 101,
                "duration": 0.07954545454545325,
                "tempo": 120.0
            },
            {
                "start_time": 32.41590909090909,
                "end_time": 32.695454545454545,
                "pitch": 70,
                "velocity": 101,
                "duration": 0.2795454545454561,
                "tempo": 120.0
            },
            {
                "start_time": 32.71363636363636,
                "end_time": 32.79545454545455,
                "pitch": 71,
                "velocity": 101,
                "duration": 0.08181818181818556,
                "tempo": 120.0
            },
            {
                "start_time": 32.81363636363636,
                "end_time": 33.09772727272727,
                "pitch": 68,
                "velocity": 101,
                "duration": 0.2840909090909065,
                "tempo": 120.0
            },
            {
                "start_time": 33.11363636363636,
                "end_time": 33.19772727272727,
                "pitch": 59,
                "velocity": 101,
                "duration": 0.08409090909091077,
                "tempo": 120.0
            },
            {
                "start_time": 33.215909090909086,
                "end_time": 33.3,
                "pitch": 61,
                "velocity": 101,
                "duration": 0.08409090909091077,
                "tempo": 120.0
            },
            {
                "start_time": 33.31590909090909,
                "end_time": 33.4,
                "pitch": 68,
                "velocity": 101,
                "duration": 0.08409090909091077,
                "tempo": 120.0
            },
            {
                "start_time": 33.41590909090909,
                "end_time": 33.5,
                "pitch": 66,
                "velocity": 101,
                "duration": 0.08409090909091077,
                "tempo": 120.0
            },
            {
                "start_time": 33.51590909090909,
                "end_time": 33.6,
                "pitch": 64,
                "velocity": 101,
                "duration": 0.08409090909091077,
                "tempo": 120.0
            },
            {
                "start_time": 33.61590909090909,
                "end_time": 33.699999999999996,
                "pitch": 63,
                "velocity": 101,
                "duration": 0.08409090909090366,
                "tempo": 120.0
            },
            {
                "start_time": 33.715909090909086,
                "end_time": 33.9,
                "pitch": 61,
                "velocity": 101,
                "duration": 0.1840909090909122,
                "tempo": 120.0
            },
            {
                "start_time": 33.91590909090909,
                "end_time": 34.0,
                "pitch": 68,
                "velocity": 101,
                "duration": 0.08409090909091077,
                "tempo": 120.0
            },
            {
                "start_time": 34.01590909090909,
                "end_time": 34.3,
                "pitch": 70,
                "velocity": 101,
                "duration": 0.2840909090909065,
                "tempo": 120.0
            },
            {
                "start_time": 34.31590909090909,
                "end_time": 34.4,
                "pitch": 71,
                "velocity": 101,
                "duration": 0.08409090909091077,
                "tempo": 120.0
            },
            {
                "start_time": 34.41590909090909,
                "end_time": 34.699999999999996,
                "pitch": 68,
                "velocity": 101,
                "duration": 0.2840909090909065,
                "tempo": 120.0
            },
            {
                "start_time": 34.715909090909086,
                "end_time": 34.8,
                "pitch": 63,
                "velocity": 101,
                "duration": 0.08409090909091077,
                "tempo": 120.0
            },
            {
                "start_time": 34.81590909090909,
                "end_time": 34.9,
                "pitch": 61,
                "velocity": 101,
                "duration": 0.08409090909091077,
                "tempo": 120.0
            },
            {
                "start_time": 34.91590909090909,
                "end_time": 35.002272727272725,
                "pitch": 59,
                "velocity": 101,
                "duration": 0.08636363636363598,
                "tempo": 120.0
            },
            {
                "start_time": 35.018181818181816,
                "end_time": 35.10454545454545,
                "pitch": 63,
                "velocity": 101,
                "duration": 0.08636363636363598,
                "tempo": 120.0
            },
            {
                "start_time": 35.12045454545454,
                "end_time": 35.50681818181818,
                "pitch": 61,
                "velocity": 101,
                "duration": 0.38636363636364024,
                "tempo": 120.0
            },
            {
                "start_time": 35.52272727272727,
                "end_time": 35.60454545454545,
                "pitch": 68,
                "velocity": 101,
                "duration": 0.08181818181817846,
                "tempo": 120.0
            },
            {
                "start_time": 35.62045454545454,
                "end_time": 35.902272727272724,
                "pitch": 70,
                "velocity": 101,
                "duration": 0.2818181818181813,
                "tempo": 120.0
            },
            {
                "start_time": 35.918181818181814,
                "end_time": 36.002272727272725,
                "pitch": 71,
                "velocity": 101,
                "duration": 0.08409090909091077,
                "tempo": 120.0
            },
            {
                "start_time": 36.018181818181816,
                "end_time": 36.30227272727272,
                "pitch": 68,
                "velocity": 101,
                "duration": 0.2840909090909065,
                "tempo": 120.0
            },
            {
                "start_time": 36.31818181818181,
                "end_time": 36.402272727272724,
                "pitch": 59,
                "velocity": 101,
                "duration": 0.08409090909091077,
                "tempo": 120.0
            },
            {
                "start_time": 36.418181818181814,
                "end_time": 36.502272727272725,
                "pitch": 61,
                "velocity": 101,
                "duration": 0.08409090909091077,
                "tempo": 120.0
            },
            {
                "start_time": 36.518181818181816,
                "end_time": 36.60227272727273,
                "pitch": 68,
                "velocity": 101,
                "duration": 0.08409090909091077,
                "tempo": 120.0
            },
            {
                "start_time": 36.61818181818182,
                "end_time": 36.70227272727273,
                "pitch": 66,
                "velocity": 101,
                "duration": 0.08409090909091077,
                "tempo": 120.0
            },
            {
                "start_time": 36.71818181818182,
                "end_time": 36.80227272727272,
                "pitch": 64,
                "velocity": 101,
                "duration": 0.08409090909090366,
                "tempo": 120.0
            },
            {
                "start_time": 36.81818181818181,
                "end_time": 36.902272727272724,
                "pitch": 63,
                "velocity": 101,
                "duration": 0.08409090909091077,
                "tempo": 120.0
            },
            {
                "start_time": 36.918181818181814,
                "end_time": 37.10227272727273,
                "pitch": 61,
                "velocity": 101,
                "duration": 0.1840909090909122,
                "tempo": 120.0
            },
            {
                "start_time": 37.12045454545454,
                "end_time": 37.20454545454545,
                "pitch": 68,
                "velocity": 101,
                "duration": 0.08409090909091077,
                "tempo": 120.0
            },
            {
                "start_time": 37.220454545454544,
                "end_time": 37.50454545454545,
                "pitch": 70,
                "velocity": 101,
                "duration": 0.2840909090909065,
                "tempo": 120.0
            },
            {
                "start_time": 37.52045454545454,
                "end_time": 37.60454545454545,
                "pitch": 71,
                "velocity": 101,
                "duration": 0.08409090909091077,
                "tempo": 120.0
            },
            {
                "start_time": 37.62045454545454,
                "end_time": 37.904545454545456,
                "pitch": 68,
                "velocity": 101,
                "duration": 0.2840909090909136,
                "tempo": 120.0
            },
            {
                "start_time": 37.92045454545455,
                "end_time": 38.00454545454545,
                "pitch": 63,
                "velocity": 101,
                "duration": 0.08409090909090366,
                "tempo": 120.0
            },
            {
                "start_time": 38.02045454545454,
                "end_time": 38.10454545454545,
                "pitch": 61,
                "velocity": 101,
                "duration": 0.08409090909091077,
                "tempo": 120.0
            },
            {
                "start_time": 38.12045454545454,
                "end_time": 38.20909090909091,
                "pitch": 59,
                "velocity": 101,
                "duration": 0.08863636363636829,
                "tempo": 120.0
            },
            {
                "start_time": 38.225,
                "end_time": 38.31363636363636,
                "pitch": 63,
                "velocity": 101,
                "duration": 0.08863636363636118,
                "tempo": 120.0
            },
            {
                "start_time": 38.33181818181818,
                "end_time": 38.538636363636364,
                "pitch": 61,
                "velocity": 101,
                "duration": 0.20681818181818556,
                "tempo": 120.0
            }
        ],
        "Trumpet": [
            {
                "start_time": 0.011363636363636364,
                "end_time": 0.29318181818181815,
                "pitch": 58,
                "velocity": 51,
                "duration": 0.2818181818181818,
                "tempo": 120.0
            },
            {
                "start_time": 0.31136363636363634,
                "end_time": 1.5999999999999999,
                "pitch": 58,
                "velocity": 51,
                "duration": 1.2886363636363636,
                "tempo": 120.0
            },
            {
                "start_time": 1.6159090909090907,
                "end_time": 1.8863636363636362,
                "pitch": 60,
                "velocity": 51,
                "duration": 0.2704545454545455,
                "tempo": 120.0
            },
            {
                "start_time": 1.9022727272727271,
                "end_time": 3.2045454545454546,
                "pitch": 60,
                "velocity": 51,
                "duration": 1.3022727272727275,
                "tempo": 120.0
            },
            {
                "start_time": 3.2204545454545452,
                "end_time": 3.4909090909090907,
                "pitch": 61,
                "velocity": 51,
                "duration": 0.2704545454545455,
                "tempo": 120.0
            },
            {
                "start_time": 3.506818181818182,
                "end_time": 4.809090909090909,
                "pitch": 61,
                "velocity": 51,
                "duration": 1.3022727272727268,
                "tempo": 120.0
            },
            {
                "start_time": 4.825,
                "end_time": 5.102272727272727,
                "pitch": 60,
                "velocity": 51,
                "duration": 0.27727272727272645,
                "tempo": 120.0
            },
            {
                "start_time": 5.118181818181818,
                "end_time": 6.415909090909091,
                "pitch": 60,
                "velocity": 51,
                "duration": 1.2977272727272728,
                "tempo": 120.0
            },
            {
                "start_time": 6.434090909090909,
                "end_time": 6.711363636363636,
                "pitch": 58,
                "velocity": 51,
                "duration": 0.27727272727272734,
                "tempo": 120.0
            },
            {
                "start_time": 6.727272727272727,
                "end_time": 8.022727272727272,
                "pitch": 58,
                "velocity": 51,
                "duration": 1.295454545454545,
                "tempo": 120.0
            },
            {
                "start_time": 8.038636363636364,
                "end_time": 8.315909090909091,
                "pitch": 60,
                "velocity": 51,
                "duration": 0.27727272727272734,
                "tempo": 120.0
            },
            {
                "start_time": 8.334090909090909,
                "end_time": 9.631818181818181,
                "pitch": 60,
                "velocity": 51,
                "duration": 1.297727272727272,
                "tempo": 120.0
            },
            {
                "start_time": 9.647727272727272,
                "end_time": 9.918181818181818,
                "pitch": 61,
                "velocity": 51,
                "duration": 0.2704545454545464,
                "tempo": 120.0
            },
            {
                "start_time": 9.934090909090909,
                "end_time": 11.238636363636363,
                "pitch": 61,
                "velocity": 51,
                "duration": 1.3045454545454547,
                "tempo": 120.0
            },
            {
                "start_time": 11.254545454545454,
                "end_time": 11.524999999999999,
                "pitch": 60,
                "velocity": 51,
                "duration": 0.2704545454545446,
                "tempo": 120.0
            },
            {
                "start_time": 11.540909090909091,
                "end_time": 12.825,
                "pitch": 60,
                "velocity": 51,
                "duration": 1.2840909090909083,
                "tempo": 120.0
            },
            {
                "start_time": 12.84090909090909,
                "end_time": 12.927272727272726,
                "pitch": 66,
                "velocity": 51,
                "duration": 0.08636363636363598,
                "tempo": 120.0
            },
            {
                "start_time": 12.945454545454545,
                "end_time": 13.838636363636363,
                "pitch": 68,
                "velocity": 51,
                "duration": 0.8931818181818176,
                "tempo": 120.0
            },
            {
                "start_time": 13.854545454545454,
                "end_time": 14.24090909090909,
                "pitch": 75,
                "velocity": 51,
                "duration": 0.3863636363636367,
                "tempo": 120.0
            },
            {
                "start_time": 14.256818181818181,
                "end_time": 14.638636363636364,
                "pitch": 73,
                "velocity": 51,
                "duration": 0.3818181818181827,
                "tempo": 120.0
            },
            {
                "start_time": 14.654545454545454,
                "end_time": 15.038636363636362,
                "pitch": 71,
                "velocity": 51,
                "duration": 0.38409090909090793,
                "tempo": 120.0
            },
            {
                "start_time": 15.054545454545455,
                "end_time": 15.14090909090909,
                "pitch": 70,
                "velocity": 51,
                "duration": 0.08636363636363598,
                "tempo": 120.0
            },
            {
                "start_time": 15.159090909090908,
                "end_time": 15.243181818181817,
                "pitch": 71,
                "velocity": 51,
                "duration": 0.084090909090909,
                "tempo": 120.0
            },
            {
                "start_time": 15.261363636363635,
                "end_time": 15.445454545454545,
                "pitch": 73,
                "velocity": 51,
                "duration": 0.18409090909091042,
                "tempo": 120.0
            },
            {
                "start_time": 15.461363636363636,
                "end_time": 15.75,
                "pitch": 73,
                "velocity": 51,
                "duration": 0.288636363636364,
                "tempo": 120.0
            },
            {
                "start_time": 15.76590909090909,
                "end_time": 16.05681818181818,
                "pitch": 70,
                "velocity": 51,
                "duration": 0.29090909090908923,
                "tempo": 120.0
            },
            {
                "start_time": 16.075,
                "end_time": 16.65,
                "pitch": 66,
                "velocity": 51,
                "duration": 0.5749999999999993,
                "tempo": 120.0
            },
            {
                "start_time": 16.66590909090909,
                "end_time": 17.05,
                "pitch": 61,
                "velocity": 51,
                "duration": 0.3840909090909115,
                "tempo": 120.0
            },
            {
                "start_time": 17.06590909090909,
                "end_time": 18.654545454545453,
                "pitch": 63,
                "velocity": 51,
                "duration": 1.5886363636363612,
                "tempo": 120.0
            },
            {
                "start_time": 18.672727272727272,
                "end_time": 18.754545454545454,
                "pitch": 66,
                "velocity": 51,
                "duration": 0.08181818181818201,
                "tempo": 120.0
            },
            {
                "start_time": 18.772727272727273,
                "end_time": 19.05909090909091,
                "pitch": 68,
                "velocity": 51,
                "duration": 0.28636363636363527,
                "tempo": 120.0
            },
            {
                "start_time": 19.077272727272728,
                "end_time": 19.26590909090909,
                "pitch": 66,
                "velocity": 51,
                "duration": 0.1886363636363626,
                "tempo": 120.0
            },
            {
                "start_time": 19.28181818181818,
                "end_time": 19.85909090909091,
                "pitch": 64,
                "velocity": 51,
                "duration": 0.577272727272728,
                "tempo": 120.0
            },
            {
                "start_time": 19.875,
                "end_time": 20.259090909090908,
                "pitch": 63,
                "velocity": 51,
                "duration": 0.38409090909090793,
                "tempo": 120.0
            },
            {
                "start_time": 20.277272727272727,
                "end_time": 20.35909090909091,
                "pitch": 62,
                "velocity": 51,
                "duration": 0.08181818181818201,
                "tempo": 120.0
            },
            {
                "start_time": 20.377272727272725,
                "end_time": 20.661363636363635,
                "pitch": 61,
                "velocity": 51,
                "duration": 0.28409090909091006,
                "tempo": 120.0
            },
            {
                "start_time": 20.677272727272726,
                "end_time": 20.861363636363635,
                "pitch": 66,
                "velocity": 51,
                "duration": 0.18409090909090864,
                "tempo": 120.0
            },
            {
                "start_time": 20.877272727272725,
                "end_time": 20.961363636363636,
                "pitch": 71,
                "velocity": 51,
                "duration": 0.08409090909091077,
                "tempo": 120.0
            },
            {
                "start_time": 20.977272727272727,
                "end_time": 21.663636363636364,
                "pitch": 73,
                "velocity": 51,
                "duration": 0.6863636363636374,
                "tempo": 120.0
            },
            {
                "start_time": 21.679545454545455,
                "end_time": 21.863636363636363,
                "pitch": 71,
                "velocity": 51,
                "duration": 0.18409090909090864,
                "tempo": 120.0
            },
            {
                "start_time": 21.879545454545454,
                "end_time": 22.268181818181816,
                "pitch": 70,
                "velocity": 51,
                "duration": 0.3886363636363619,
                "tempo": 120.0
            },
            {
                "start_time": 22.286363636363635,
                "end_time": 22.472727272727273,
                "pitch": 68,
                "velocity": 51,
                "duration": 0.1863636363636374,
                "tempo": 120.0
            },
            {
                "start_time": 22.49090909090909,
                "end_time": 23.06590909090909,
                "pitch": 66,
                "velocity": 51,
                "duration": 0.5750000000000028,
                "tempo": 120.0
            },
            {
                "start_time": 23.084090909090907,
                "end_time": 23.46818181818182,
                "pitch": 73,
                "velocity": 51,
                "duration": 0.3840909090909115,
                "tempo": 120.0
            },
            {
                "start_time": 23.48409090909091,
                "end_time": 23.768181818181816,
                "pitch": 71,
                "velocity": 51,
                "duration": 0.2840909090909065,
                "tempo": 120.0
            },
            {
                "start_time": 23.786363636363635,
                "end_time": 23.868181818181817,
                "pitch": 70,
                "velocity": 51,
                "duration": 0.08181818181818201,
                "tempo": 120.0
            },
            {
                "start_time": 23.886363636363637,
                "end_time": 24.068181818181817,
                "pitch": 70,
                "velocity": 51,
                "duration": 0.18181818181817988,
                "tempo": 120.0
            },
            {
                "start_time": 24.086363636363636,
                "end_time": 24.370454545454546,
                "pitch": 71,
                "velocity": 51,
                "duration": 0.28409090909091006,
                "tempo": 120.0
            },
            {
                "start_time": 24.388636363636362,
                "end_time": 24.672727272727272,
                "pitch": 73,
                "velocity": 51,
                "duration": 0.28409090909091006,
                "tempo": 120.0
            },
            {
                "start_time": 24.688636363636363,
                "end_time": 24.87272727272727,
                "pitch": 75,
                "velocity": 51,
                "duration": 0.18409090909090864,
                "tempo": 120.0
            },
            {
                "start_time": 24.888636363636362,
                "end_time": 25.172727272727272,
                "pitch": 75,
                "velocity": 51,
                "duration": 0.28409090909091006,
                "tempo": 120.0
            },
            {
                "start_time": 25.188636363636363,
                "end_time": 25.477272727272727,
                "pitch": 75,
                "velocity": 51,
                "duration": 0.288636363636364,
                "tempo": 120.0
            },
            {
                "start_time": 25.493181818181817,
                "end_time": 25.68181818181818,
                "pitch": 76,
                "velocity": 51,
                "duration": 0.1886363636363626,
                "tempo": 120.0
            },
            {
                "start_time": 25.7,
                "end_time": 26.075,
                "pitch": 78,
                "velocity": 51,
                "duration": 0.375,
                "tempo": 120.0
            },
            {
                "start_time": 26.09090909090909,
                "end_time": 26.477272727272727,
                "pitch": 76,
                "velocity": 51,
                "duration": 0.3863636363636367,
                "tempo": 120.0
            },
            {
                "start_time": 26.493181818181817,
                "end_time": 26.677272727272726,
                "pitch": 75,
                "velocity": 51,
                "duration": 0.18409090909090864,
                "tempo": 120.0
            },
            {
                "start_time": 26.693181818181817,
                "end_time": 26.877272727272725,
                "pitch": 75,
                "velocity": 51,
                "duration": 0.18409090909090864,
                "tempo": 120.0
            },
            {
                "start_time": 26.893181818181816,
                "end_time": 27.077272727272724,
                "pitch": 78,
                "velocity": 51,
                "duration": 0.18409090909090864,
                "tempo": 120.0
            },
            {
                "start_time": 27.093181818181815,
                "end_time": 27.177272727272726,
                "pitch": 76,
                "velocity": 51,
                "duration": 0.08409090909091077,
                "tempo": 120.0
            },
            {
                "start_time": 27.193181818181817,
                "end_time": 27.277272727272727,
                "pitch": 75,
                "velocity": 51,
                "duration": 0.08409090909091077,
                "tempo": 120.0
            },
            {
                "start_time": 27.293181818181818,
                "end_time": 27.377272727272725,
                "pitch": 76,
                "velocity": 51,
                "duration": 0.08409090909090722,
                "tempo": 120.0
            },
            {
                "start_time": 27.395454545454545,
                "end_time": 27.479545454545452,
                "pitch": 75,
                "velocity": 51,
                "duration": 0.08409090909090722,
                "tempo": 120.0
            },
            {
                "start_time": 27.495454545454542,
                "end_time": 28.079545454545453,
                "pitch": 71,
                "velocity": 51,
                "duration": 0.5840909090909108,
                "tempo": 120.0
            },
            {
                "start_time": 28.097727272727273,
                "end_time": 28.28181818181818,
                "pitch": 68,
                "velocity": 51,
                "duration": 0.18409090909090864,
                "tempo": 120.0
            },
            {
                "start_time": 28.297727272727272,
                "end_time": 28.686363636363634,
                "pitch": 71,
                "velocity": 51,
                "duration": 0.3886363636363619,
                "tempo": 120.0
            },
            {
                "start_time": 28.704545454545453,
                "end_time": 28.893181818181816,
                "pitch": 73,
                "velocity": 51,
                "duration": 0.1886363636363626,
                "tempo": 120.0
            },
            {
                "start_time": 28.909090909090907,
                "end_time": 29.486363636363635,
                "pitch": 70,
                "velocity": 51,
                "duration": 0.577272727272728,
                "tempo": 120.0
            },
            {
                "start_time": 29.504545454545454,
                "end_time": 30.28863636363636,
                "pitch": 68,
                "velocity": 51,
                "duration": 0.7840909090909065,
                "tempo": 120.0
            },
            {
                "start_time": 30.30681818181818,
                "end_time": 30.49090909090909,
                "pitch": 63,
                "velocity": 51,
                "duration": 0.18409090909090864,
                "tempo": 120.0
            },
            {
                "start_time": 30.50681818181818,
                "end_time": 31.29090909090909,
                "pitch": 66,
                "velocity": 51,
                "duration": 0.7840909090909101,
                "tempo": 120.0
            },
            {
                "start_time": 31.30681818181818,
                "end_time": 31.493181818181817,
                "pitch": 73,
                "velocity": 51,
                "duration": 0.1863636363636374,
                "tempo": 120.0
            },
            {
                "start_time": 31.509090909090908,
                "end_time": 31.693181818181817,
                "pitch": 71,
                "velocity": 51,
                "duration": 0.18409090909090864,
                "tempo": 120.0
            },
            {
                "start_time": 31.711363636363636,
                "end_time": 31.795454545454543,
                "pitch": 70,
                "velocity": 51,
                "duration": 0.08409090909090722,
                "tempo": 120.0
            },
            {
                "start_time": 31.813636363636363,
                "end_time": 32.002272727272725,
                "pitch": 70,
                "velocity": 51,
                "duration": 0.1886363636363626,
                "tempo": 120.0
            },
            {
                "start_time": 32.018181818181816,
                "end_time": 32.695454545454545,
                "pitch": 70,
                "velocity": 51,
                "duration": 0.6772727272727295,
                "tempo": 120.0
            },
            {
                "start_time": 32.71363636363636,
                "end_time": 32.79545454545455,
                "pitch": 68,
                "velocity": 51,
                "duration": 0.08181818181818556,
                "tempo": 120.0
            },
            {
                "start_time": 32.81363636363636,
                "end_time": 32.89545454545454,
                "pitch": 70,
                "velocity": 51,
                "duration": 0.08181818181817846,
                "tempo": 120.0
            },
            {
                "start_time": 32.913636363636364,
                "end_time": 33.19772727272727,
                "pitch": 71,
                "velocity": 51,
                "duration": 0.2840909090909065,
                "tempo": 120.0
            },
            {
                "start_time": 33.215909090909086,
                "end_time": 33.5,
                "pitch": 73,
                "velocity": 51,
                "duration": 0.2840909090909136,
                "tempo": 120.0
            },
            {
                "start_time": 33.51590909090909,
                "end_time": 33.699999999999996,
                "pitch": 78,
                "velocity": 51,
                "duration": 0.18409090909090509,
                "tempo": 120.0
            },
            {
                "start_time": 33.715909090909086,
                "end_time": 34.3,
                "pitch": 76,
                "velocity": 51,
                "duration": 0.5840909090909108,
                "tempo": 120.0
            },
            {
                "start_time": 34.31590909090909,
                "end_time": 34.5,
                "pitch": 75,
                "velocity": 51,
                "duration": 0.1840909090909122,
                "tempo": 120.0
            },
            {
                "start_time": 34.51590909090909,
                "end_time": 34.8,
                "pitch": 73,
                "velocity": 51,
                "duration": 0.2840909090909065,
                "tempo": 120.0
            },
            {
                "start_time": 34.81590909090909,
                "end_time": 35.10454545454545,
                "pitch": 75,
                "velocity": 51,
                "duration": 0.288636363636364,
                "tempo": 120.0
            },
            {
                "start_time": 35.12045454545454,
                "end_time": 35.309090909090905,
                "pitch": 71,
                "velocity": 51,
                "duration": 0.1886363636363626,
                "tempo": 120.0
            },
            {
                "start_time": 35.32727272727273,
                "end_time": 35.50681818181818,
                "pitch": 78,
                "velocity": 51,
                "duration": 0.17954545454545467,
                "tempo": 120.0
            },
            {
                "start_time": 35.918181818181814,
                "end_time": 36.30227272727272,
                "pitch": 76,
                "velocity": 51,
                "duration": 0.38409090909090793,
                "tempo": 120.0
            },
            {
                "start_time": 36.31818181818181,
                "end_time": 36.502272727272725,
                "pitch": 73,
                "velocity": 51,
                "duration": 0.1840909090909122,
                "tempo": 120.0
            },
            {
                "start_time": 36.518181818181816,
                "end_time": 36.70227272727273,
                "pitch": 71,
                "velocity": 51,
                "duration": 0.1840909090909122,
                "tempo": 120.0
            },
            {
                "start_time": 36.71818181818182,
                "end_time": 36.902272727272724,
                "pitch": 70,
                "velocity": 51,
                "duration": 0.18409090909090509,
                "tempo": 120.0
            },
            {
                "start_time": 36.918181818181814,
                "end_time": 38.538636363636364,
                "pitch": 71,
                "velocity": 51,
                "duration": 1.6204545454545496,
                "tempo": 120.0
            }
        ]
    }
}