{
    "track_id": "Rampage (FM) - 03 - Level Theme",
    "mood": "angry",
    "instruments": {
        "Trumpet": [
            {
                "start_time": 0.0,
                "end_time": 0.16363636363636364,
                "pitch": 54,
                "velocity": 51,
                "duration": 0.16363636363636364,
                "tempo": 120.0
            },
            {
                "start_time": 0.175,
                "end_time": 0.36363636363636365,
                "pitch": 60,
                "velocity": 51,
                "duration": 0.18863636363636366,
                "tempo": 120.0
            },
            {
                "start_time": 0.37727272727272726,
                "end_time": 0.49318181818181817,
                "pitch": 61,
                "velocity": 51,
                "duration": 0.1159090909090909,
                "tempo": 120.0
            },
            {
                "start_time": 0.37727272727272726,
                "end_time": 0.49318181818181817,
                "pitch": 61,
                "velocity": 51,
                "duration": 0.1159090909090909,
                "tempo": 120.0
            },
            {
                "start_time": 0.5113636363636364,
                "end_time": 0.7613636363636364,
                "pitch": 61,
                "velocity": 51,
                "duration": 0.25,
                "tempo": 120.0
            },
            {
                "start_time": 0.7772727272727272,
                "end_time": 1.0295454545454545,
                "pitch": 61,
                "velocity": 51,
                "duration": 0.2522727272727273,
                "tempo": 120.0
            },
            {
                "start_time": 1.0454545454545454,
                "end_time": 1.2954545454545454,
                "pitch": 60,
                "velocity": 51,
                "duration": 0.25,
                "tempo": 120.0
            },
            {
                "start_time": 1.3113636363636363,
                "end_time": 1.4295454545454545,
                "pitch": 61,
                "velocity": 51,
                "duration": 0.11818181818181817,
                "tempo": 120.0
            },
            {
                "start_time": 1.4454545454545453,
                "end_time": 1.7,
                "pitch": 63,
                "velocity": 51,
                "duration": 0.25454545454545463,
                "tempo": 120.0
            },
            {
                "start_time": 1.718181818181818,
                "end_time": 1.9727272727272727,
                "pitch": 61,
                "velocity": 51,
                "duration": 0.25454545454545463,
                "tempo": 120.0
            },
            {
                "start_time": 1.9909090909090907,
                "end_time": 2.375,
                "pitch": 60,
                "velocity": 51,
                "duration": 0.38409090909090926,
                "tempo": 120.0
            },
            {
                "start_time": 2.3909090909090907,
                "end_time": 3.309090909090909,
                "pitch": 56,
                "velocity": 51,
                "duration": 0.9181818181818184,
                "tempo": 120.0
            },
            {
                "start_time": 3.3249999999999997,
                "end_time": 3.577272727272727,
                "pitch": 54,
                "velocity": 51,
                "duration": 0.2522727272727274,
                "tempo": 120.0
            },
            {
                "start_time": 3.593181818181818,
                "end_time": 3.711363636363636,
                "pitch": 54,
                "velocity": 51,
                "duration": 0.11818181818181817,
                "tempo": 120.0
            },
            {
                "start_time": 3.7295454545454545,
                "end_time": 4.120454545454545,
                "pitch": 56,
                "velocity": 51,
                "duration": 0.39090909090909065,
                "tempo": 120.0
            },
            {
                "start_time": 4.136363636363636,
                "end_time": 4.388636363636364,
                "pitch": 54,
                "velocity": 51,
                "duration": 0.25227272727272787,
                "tempo": 120.0
            },
            {
                "start_time": 4.404545454545454,
                "end_time": 4.654545454545454,
                "pitch": 60,
                "velocity": 51,
                "duration": 0.25,
                "tempo": 120.0
            },
            {
                "start_time": 4.670454545454545,
                "end_time": 4.790909090909091,
                "pitch": 61,
                "velocity": 51,
                "duration": 0.12045454545454604,
                "tempo": 120.0
            },
            {
                "start_time": 4.806818181818182,
                "end_time": 5.0613636363636365,
                "pitch": 61,
                "velocity": 51,
                "duration": 0.25454545454545485,
                "tempo": 120.0
            },
            {
                "start_time": 5.079545454545454,
                "end_time": 5.331818181818181,
                "pitch": 61,
                "velocity": 51,
                "duration": 0.252272727272727,
                "tempo": 120.0
            },
            {
                "start_time": 5.35,
                "end_time": 5.6,
                "pitch": 60,
                "velocity": 51,
                "duration": 0.25,
                "tempo": 120.0
            },
            {
                "start_time": 5.61590909090909,
                "end_time": 5.7340909090909085,
                "pitch": 61,
                "velocity": 51,
                "duration": 0.11818181818181817,
                "tempo": 120.0
            },
            {
                "start_time": 5.75,
                "end_time": 6.004545454545454,
                "pitch": 63,
                "velocity": 51,
                "duration": 0.25454545454545396,
                "tempo": 120.0
            },
            {
                "start_time": 6.0227272727272725,
                "end_time": 6.277272727272727,
                "pitch": 61,
                "velocity": 51,
                "duration": 0.25454545454545485,
                "tempo": 120.0
            },
            {
                "start_time": 6.293181818181818,
                "end_time": 6.677272727272727,
                "pitch": 60,
                "velocity": 51,
                "duration": 0.3840909090909088,
                "tempo": 120.0
            },
            {
                "start_time": 6.695454545454545,
                "end_time": 7.613636363636363,
                "pitch": 56,
                "velocity": 51,
                "duration": 0.918181818181818,
                "tempo": 120.0
            },
            {
                "start_time": 7.629545454545454,
                "end_time": 7.879545454545454,
                "pitch": 54,
                "velocity": 51,
                "duration": 0.25,
                "tempo": 120.0
            },
            {
                "start_time": 7.8977272727272725,
                "end_time": 8.01590909090909,
                "pitch": 54,
                "velocity": 51,
                "duration": 0.11818181818181817,
                "tempo": 120.0
            },
            {
                "start_time": 8.031818181818181,
                "end_time": 8.422727272727272,
                "pitch": 56,
                "velocity": 51,
                "duration": 0.39090909090909065,
                "tempo": 120.0
            },
            {
                "start_time": 8.440909090909091,
                "end_time": 8.690909090909091,
                "pitch": 63,
                "velocity": 51,
                "duration": 0.25,
                "tempo": 120.0
            },
            {
                "start_time": 8.709090909090909,
                "end_time": 8.959090909090909,
                "pitch": 68,
                "velocity": 51,
                "duration": 0.25,
                "tempo": 120.0
            },
            {
                "start_time": 8.975,
                "end_time": 9.229545454545454,
                "pitch": 63,
                "velocity": 51,
                "duration": 0.25454545454545396,
                "tempo": 120.0
            },
            {
                "start_time": 9.247727272727273,
                "end_time": 9.76590909090909,
                "pitch": 61,
                "velocity": 51,
                "duration": 0.5181818181818176,
                "tempo": 120.0
            },
            {
                "start_time": 9.781818181818181,
                "end_time": 10.299999999999999,
                "pitch": 60,
                "velocity": 51,
                "duration": 0.5181818181818176,
                "tempo": 120.0
            },
            {
                "start_time": 10.31590909090909,
                "end_time": 10.570454545454545,
                "pitch": 54,
                "velocity": 51,
                "duration": 0.25454545454545574,
                "tempo": 120.0
            },
            {
                "start_time": 10.588636363636363,
                "end_time": 12.718181818181817,
                "pitch": 56,
                "velocity": 51,
                "duration": 2.129545454545454,
                "tempo": 120.0
            },
            {
                "start_time": 12.73409090909091,
                "end_time": 12.99090909090909,
                "pitch": 63,
                "velocity": 51,
                "duration": 0.25681818181818095,
                "tempo": 120.0
            },
            {
                "start_time": 13.006818181818181,
                "end_time": 13.261363636363635,
                "pitch": 68,
                "velocity": 51,
                "duration": 0.25454545454545396,
                "tempo": 120.0
            },
            {
                "start_time": 13.279545454545454,
                "end_time": 13.529545454545454,
                "pitch": 63,
                "velocity": 51,
                "duration": 0.25,
                "tempo": 120.0
            },
            {
                "start_time": 13.545454545454545,
                "end_time": 14.063636363636363,
                "pitch": 61,
                "velocity": 51,
                "duration": 0.5181818181818176,
                "tempo": 120.0
            },
            {
                "start_time": 14.079545454545453,
                "end_time": 14.602272727272727,
                "pitch": 60,
                "velocity": 51,
                "duration": 0.5227272727272734,
                "tempo": 120.0
            },
            {
                "start_time": 14.620454545454544,
                "end_time": 14.875,
                "pitch": 54,
                "velocity": 51,
                "duration": 0.25454545454545574,
                "tempo": 120.0
            },
            {
                "start_time": 14.89090909090909,
                "end_time": 17.022727272727273,
                "pitch": 56,
                "velocity": 51,
                "duration": 2.1318181818181827,
                "tempo": 120.0
            },
            {
                "start_time": 17.038636363636364,
                "end_time": 17.422727272727272,
                "pitch": 70,
                "velocity": 51,
                "duration": 0.38409090909090793,
                "tempo": 120.0
            },
            {
                "start_time": 17.438636363636363,
                "end_time": 17.693181818181817,
                "pitch": 70,
                "velocity": 51,
                "duration": 0.25454545454545396,
                "tempo": 120.0
            },
            {
                "start_time": 17.709090909090907,
                "end_time": 17.827272727272728,
                "pitch": 70,
                "velocity": 51,
                "duration": 0.11818181818182083,
                "tempo": 120.0
            },
            {
                "start_time": 17.845454545454544,
                "end_time": 17.96363636363636,
                "pitch": 70,
                "velocity": 51,
                "duration": 0.11818181818181728,
                "tempo": 120.0
            },
            {
                "start_time": 17.98181818181818,
                "end_time": 18.099999999999998,
                "pitch": 70,
                "velocity": 51,
                "duration": 0.11818181818181728,
                "tempo": 120.0
            },
            {
                "start_time": 18.118181818181817,
                "end_time": 19.168181818181818,
                "pitch": 70,
                "velocity": 51,
                "duration": 1.0500000000000007,
                "tempo": 120.0
            },
            {
                "start_time": 19.186363636363634,
                "end_time": 19.577272727272728,
                "pitch": 68,
                "velocity": 51,
                "duration": 0.3909090909090942,
                "tempo": 120.0
            },
            {
                "start_time": 19.59318181818182,
                "end_time": 19.847727272727273,
                "pitch": 68,
                "velocity": 51,
                "duration": 0.25454545454545396,
                "tempo": 120.0
            },
            {
                "start_time": 19.863636363636363,
                "end_time": 19.979545454545452,
                "pitch": 68,
                "velocity": 51,
                "duration": 0.11590909090908852,
                "tempo": 120.0
            },
            {
                "start_time": 19.99772727272727,
                "end_time": 20.113636363636363,
                "pitch": 68,
                "velocity": 51,
                "duration": 0.11590909090909207,
                "tempo": 120.0
            },
            {
                "start_time": 20.129545454545454,
                "end_time": 20.24772727272727,
                "pitch": 68,
                "velocity": 51,
                "duration": 0.11818181818181728,
                "tempo": 120.0
            },
            {
                "start_time": 20.263636363636362,
                "end_time": 21.325,
                "pitch": 68,
                "velocity": 51,
                "duration": 1.0613636363636374,
                "tempo": 120.0
            },
            {
                "start_time": 21.34318181818182,
                "end_time": 21.727272727272727,
                "pitch": 66,
                "velocity": 51,
                "duration": 0.38409090909090793,
                "tempo": 120.0
            },
            {
                "start_time": 21.743181818181817,
                "end_time": 21.993181818181817,
                "pitch": 66,
                "velocity": 51,
                "duration": 0.25,
                "tempo": 120.0
            },
            {
                "start_time": 22.011363636363637,
                "end_time": 22.127272727272725,
                "pitch": 66,
                "velocity": 51,
                "duration": 0.11590909090908852,
                "tempo": 120.0
            },
            {
                "start_time": 22.143181818181816,
                "end_time": 22.261363636363637,
                "pitch": 66,
                "velocity": 51,
                "duration": 0.11818181818182083,
                "tempo": 120.0
            },
            {
                "start_time": 22.277272727272727,
                "end_time": 22.395454545454545,
                "pitch": 66,
                "velocity": 51,
                "duration": 0.11818181818181728,
                "tempo": 120.0
            },
            {
                "start_time": 22.411363636363635,
                "end_time": 23.472727272727273,
                "pitch": 66,
                "velocity": 51,
                "duration": 1.0613636363636374,
                "tempo": 120.0
            },
            {
                "start_time": 23.488636363636363,
                "end_time": 23.87272727272727,
                "pitch": 69,
                "velocity": 51,
                "duration": 0.38409090909090793,
                "tempo": 120.0
            },
            {
                "start_time": 23.89090909090909,
                "end_time": 24.143181818181816,
                "pitch": 69,
                "velocity": 51,
                "duration": 0.2522727272727252,
                "tempo": 120.0
            },
            {
                "start_time": 24.159090909090907,
                "end_time": 24.279545454545453,
                "pitch": 69,
                "velocity": 51,
                "duration": 0.12045454545454604,
                "tempo": 120.0
            },
            {
                "start_time": 24.295454545454543,
                "end_time": 24.41590909090909,
                "pitch": 69,
                "velocity": 51,
                "duration": 0.12045454545454604,
                "tempo": 120.0
            },
            {
                "start_time": 24.43181818181818,
                "end_time": 24.549999999999997,
                "pitch": 69,
                "velocity": 51,
                "duration": 0.11818181818181728,
                "tempo": 120.0
            },
            {
                "start_time": 24.568181818181817,
                "end_time": 25.086363636363636,
                "pitch": 69,
                "velocity": 51,
                "duration": 0.5181818181818194,
                "tempo": 120.0
            },
            {
                "start_time": 25.102272727272727,
                "end_time": 25.620454545454542,
                "pitch": 70,
                "velocity": 51,
                "duration": 0.5181818181818159,
                "tempo": 120.0
            },
            {
                "start_time": 25.636363636363637,
                "end_time": 26.027272727272727,
                "pitch": 70,
                "velocity": 51,
                "duration": 0.39090909090909065,
                "tempo": 120.0
            },
            {
                "start_time": 26.045454545454543,
                "end_time": 26.297727272727272,
                "pitch": 70,
                "velocity": 51,
                "duration": 0.25227272727272876,
                "tempo": 120.0
            },
            {
                "start_time": 26.313636363636363,
                "end_time": 26.43181818181818,
                "pitch": 70,
                "velocity": 51,
                "duration": 0.11818181818181728,
                "tempo": 120.0
            },
            {
                "start_time": 26.44772727272727,
                "end_time": 26.563636363636363,
                "pitch": 70,
                "velocity": 51,
                "duration": 0.11590909090909207,
                "tempo": 120.0
            },
            {
                "start_time": 26.581818181818182,
                "end_time": 26.69772727272727,
                "pitch": 70,
                "velocity": 51,
                "duration": 0.11590909090908852,
                "tempo": 120.0
            },
            {
                "start_time": 26.71590909090909,
                "end_time": 27.777272727272727,
                "pitch": 70,
                "velocity": 51,
                "duration": 1.0613636363636374,
                "tempo": 120.0
            },
            {
                "start_time": 27.793181818181818,
                "end_time": 28.177272727272726,
                "pitch": 68,
                "velocity": 51,
                "duration": 0.38409090909090793,
                "tempo": 120.0
            },
            {
                "start_time": 28.193181818181817,
                "end_time": 28.44772727272727,
                "pitch": 68,
                "velocity": 51,
                "duration": 0.25454545454545396,
                "tempo": 120.0
            },
            {
                "start_time": 28.46363636363636,
                "end_time": 28.581818181818182,
                "pitch": 68,
                "velocity": 51,
                "duration": 0.11818181818182083,
                "tempo": 120.0
            },
            {
                "start_time": 28.599999999999998,
                "end_time": 28.718181818181815,
                "pitch": 68,
                "velocity": 51,
                "duration": 0.11818181818181728,
                "tempo": 120.0
            },
            {
                "start_time": 28.736363636363635,
                "end_time": 28.854545454545452,
                "pitch": 68,
                "velocity": 51,
                "duration": 0.11818181818181728,
                "tempo": 120.0
            },
            {
                "start_time": 28.87272727272727,
                "end_time": 29.922727272727272,
                "pitch": 68,
                "velocity": 51,
                "duration": 1.0500000000000007,
                "tempo": 120.0
            },
            {
                "start_time": 29.940909090909088,
                "end_time": 30.325,
                "pitch": 66,
                "velocity": 51,
                "duration": 0.3840909090909115,
                "tempo": 120.0
            },
            {
                "start_time": 30.34090909090909,
                "end_time": 30.593181818181815,
                "pitch": 66,
                "velocity": 51,
                "duration": 0.2522727272727252,
                "tempo": 120.0
            },
            {
                "start_time": 30.611363636363635,
                "end_time": 30.729545454545452,
                "pitch": 66,
                "velocity": 51,
                "duration": 0.11818181818181728,
                "tempo": 120.0
            },
            {
                "start_time": 30.74772727272727,
                "end_time": 30.86590909090909,
                "pitch": 66,
                "velocity": 51,
                "duration": 0.11818181818181728,
                "tempo": 120.0
            },
            {
                "start_time": 30.88181818181818,
                "end_time": 31.002272727272725,
                "pitch": 66,
                "velocity": 51,
                "duration": 0.12045454545454604,
                "tempo": 120.0
            },
            {
                "start_time": 31.018181818181816,
                "end_time": 32.070454545454545,
                "pitch": 66,
                "velocity": 51,
                "duration": 1.0522727272727295,
                "tempo": 120.0
            },
            {
                "start_time": 32.08863636363636,
                "end_time": 32.47954545454545,
                "pitch": 69,
                "velocity": 51,
                "duration": 0.39090909090909065,
                "tempo": 120.0
            },
            {
                "start_time": 32.49545454545454,
                "end_time": 32.74772727272727,
                "pitch": 69,
                "velocity": 51,
                "duration": 0.2522727272727252,
                "tempo": 120.0
            },
            {
                "start_time": 32.76590909090909,
                "end_time": 32.88181818181818,
                "pitch": 69,
                "velocity": 51,
                "duration": 0.11590909090909207,
                "tempo": 120.0
            },
            {
                "start_time": 32.89772727272727,
                "end_time": 33.01590909090909,
                "pitch": 69,
                "velocity": 51,
                "duration": 0.11818181818181728,
                "tempo": 120.0
            },
            {
                "start_time": 33.03181818181818,
                "end_time": 33.15,
                "pitch": 69,
                "velocity": 51,
                "duration": 0.11818181818181728,
                "tempo": 120.0
            },
            {
                "start_time": 33.16590909090909,
                "end_time": 33.684090909090905,
                "pitch": 69,
                "velocity": 51,
                "duration": 0.5181818181818159,
                "tempo": 120.0
            },
            {
                "start_time": 33.699999999999996,
                "end_time": 34.22727272727273,
                "pitch": 70,
                "velocity": 51,
                "duration": 0.5272727272727309,
                "tempo": 120.0
            },
            {
                "start_time": 34.24318181818182,
                "end_time": 34.49545454545454,
                "pitch": 54,
                "velocity": 51,
                "duration": 0.2522727272727252,
                "tempo": 120.0
            },
            {
                "start_time": 34.51136363636363,
                "end_time": 34.76136363636363,
                "pitch": 60,
                "velocity": 51,
                "duration": 0.25,
                "tempo": 120.0
            },
            {
                "start_time": 34.779545454545456,
                "end_time": 34.89545454545454,
                "pitch": 61,
                "velocity": 51,
                "duration": 0.11590909090908497,
                "tempo": 120.0
            },
            {
                "start_time": 34.91136363636363,
                "end_time": 35.163636363636364,
                "pitch": 61,
                "velocity": 51,
                "duration": 0.2522727272727323,
                "tempo": 120.0
            },
            {
                "start_time": 35.179545454545455,
                "end_time": 35.43181818181818,
                "pitch": 61,
                "velocity": 51,
                "duration": 0.2522727272727252,
                "tempo": 120.0
            },
            {
                "start_time": 35.449999999999996,
                "end_time": 35.70454545454545,
                "pitch": 60,
                "velocity": 51,
                "duration": 0.2545454545454575,
                "tempo": 120.0
            },
            {
                "start_time": 35.720454545454544,
                "end_time": 35.840909090909086,
                "pitch": 61,
                "velocity": 51,
                "duration": 0.12045454545454248,
                "tempo": 120.0
            },
            {
                "start_time": 35.85681818181818,
                "end_time": 36.10681818181818,
                "pitch": 63,
                "velocity": 51,
                "duration": 0.25,
                "tempo": 120.0
            },
            {
                "start_time": 36.125,
                "end_time": 36.375,
                "pitch": 61,
                "velocity": 51,
                "duration": 0.25,
                "tempo": 120.0
            },
            {
                "start_time": 36.39090909090909,
                "end_time": 36.775,
                "pitch": 60,
                "velocity": 51,
                "duration": 0.38409090909090793,
                "tempo": 120.0
            },
            {
                "start_time": 36.793181818181814,
                "end_time": 37.720454545454544,
                "pitch": 56,
                "velocity": 51,
                "duration": 0.9272727272727295,
                "tempo": 120.0
            },
            {
                "start_time": 37.736363636363635,
                "end_time": 37.986363636363635,
                "pitch": 54,
                "velocity": 51,
                "duration": 0.25,
                "tempo": 120.0
            },
            {
                "start_time": 38.00454545454545,
                "end_time": 38.12272727272727,
                "pitch": 54,
                "velocity": 51,
                "duration": 0.11818181818181728,
                "tempo": 120.0
            },
            {
                "start_time": 38.14090909090909,
                "end_time": 38.53181818181818,
                "pitch": 56,
                "velocity": 51,
                "duration": 0.39090909090909065,
                "tempo": 120.0
            },
            {
                "start_time": 38.54772727272727,
                "end_time": 38.793181818181814,
                "pitch": 54,
                "velocity": 51,
                "duration": 0.24545454545454248,
                "tempo": 120.0
            },
            {
                "start_time": 38.809090909090905,
                "end_time": 39.05681818181818,
                "pitch": 60,
                "velocity": 51,
                "duration": 0.2477272727272748,
                "tempo": 120.0
            },
            {
                "start_time": 39.07272727272727,
                "end_time": 39.19090909090909,
                "pitch": 61,
                "velocity": 51,
                "duration": 0.11818181818181728,
                "tempo": 120.0
            },
            {
                "start_time": 39.209090909090904,
                "end_time": 39.46363636363636,
                "pitch": 61,
                "velocity": 51,
                "duration": 0.2545454545454575,
                "tempo": 120.0
            },
            {
                "start_time": 39.48181818181818,
                "end_time": 39.73409090909091,
                "pitch": 61,
                "velocity": 51,
                "duration": 0.2522727272727323,
                "tempo": 120.0
            },
            {
                "start_time": 39.75,
                "end_time": 40.0,
                "pitch": 60,
                "velocity": 51,
                "duration": 0.25,
                "tempo": 120.0
            },
            {
                "start_time": 40.018181818181816,
                "end_time": 40.13409090909091,
                "pitch": 61,
                "velocity": 51,
                "duration": 0.11590909090909207,
                "tempo": 120.0
            },
            {
                "start_time": 40.15,
                "end_time": 40.40681818181818,
                "pitch": 63,
                "velocity": 51,
                "duration": 0.2568181818181827,
                "tempo": 120.0
            },
            {
                "start_time": 40.42272727272727,
                "end_time": 40.67727272727272,
                "pitch": 61,
                "velocity": 51,
                "duration": 0.2545454545454504,
                "tempo": 120.0
            },
            {
                "start_time": 40.695454545454545,
                "end_time": 41.07954545454545,
                "pitch": 60,
                "velocity": 51,
                "duration": 0.38409090909090793,
                "tempo": 120.0
            },
            {
                "start_time": 41.095454545454544,
                "end_time": 42.018181818181816,
                "pitch": 56,
                "velocity": 51,
                "duration": 0.922727272727272,
                "tempo": 120.0
            },
            {
                "start_time": 42.03636363636363,
                "end_time": 42.29090909090909,
                "pitch": 54,
                "velocity": 51,
                "duration": 0.2545454545454575,
                "tempo": 120.0
            },
            {
                "start_time": 42.30681818181818,
                "end_time": 42.425,
                "pitch": 54,
                "velocity": 51,
                "duration": 0.11818181818181728,
                "tempo": 120.0
            },
            {
                "start_time": 42.44090909090909,
                "end_time": 42.824999999999996,
                "pitch": 56,
                "velocity": 51,
                "duration": 0.38409090909090793,
                "tempo": 120.0
            },
            {
                "start_time": 42.84318181818182,
                "end_time": 43.09318181818182,
                "pitch": 63,
                "velocity": 51,
                "duration": 0.25,
                "tempo": 120.0
            },
            {
                "start_time": 43.10909090909091,
                "end_time": 43.35909090909091,
                "pitch": 68,
                "velocity": 51,
                "duration": 0.25,
                "tempo": 120.0
            },
            {
                "start_time": 43.377272727272725,
                "end_time": 43.63181818181818,
                "pitch": 63,
                "velocity": 51,
                "duration": 0.2545454545454575,
                "tempo": 120.0
            },
            {
                "start_time": 43.64772727272727,
                "end_time": 44.17045454545455,
                "pitch": 61,
                "velocity": 51,
                "duration": 0.5227272727272734,
                "tempo": 120.0
            },
            {
                "start_time": 44.18863636363636,
                "end_time": 44.70454545454545,
                "pitch": 60,
                "velocity": 51,
                "duration": 0.5159090909090907,
                "tempo": 120.0
            },
            {
                "start_time": 44.72272727272727,
                "end_time": 44.97272727272727,
                "pitch": 54,
                "velocity": 51,
                "duration": 0.25,
                "tempo": 120.0
            },
            {
                "start_time": 44.98863636363636,
                "end_time": 47.12954545454545,
                "pitch": 56,
                "velocity": 51,
                "duration": 2.1409090909090907,
                "tempo": 120.0
            },
            {
                "start_time": 47.14545454545454,
                "end_time": 47.39545454545454,
                "pitch": 63,
                "velocity": 51,
                "duration": 0.25,
                "tempo": 120.0
            },
            {
                "start_time": 47.413636363636364,
                "end_time": 47.663636363636364,
                "pitch": 68,
                "velocity": 51,
                "duration": 0.25,
                "tempo": 120.0
            },
            {
                "start_time": 47.679545454545455,
                "end_time": 47.93181818181818,
                "pitch": 63,
                "velocity": 51,
                "duration": 0.2522727272727252,
                "tempo": 120.0
            },
            {
                "start_time": 47.94772727272727,
                "end_time": 48.465909090909086,
                "pitch": 61,
                "velocity": 51,
                "duration": 0.5181818181818159,
                "tempo": 120.0
            },
            {
                "start_time": 48.48181818181818,
                "end_time": 49.00454545454545,
                "pitch": 60,
                "velocity": 51,
                "duration": 0.5227272727272734,
                "tempo": 120.0
            },
            {
                "start_time": 49.02045454545454,
                "end_time": 49.275,
                "pitch": 54,
                "velocity": 51,
                "duration": 0.2545454545454575,
                "tempo": 120.0
            },
            {
                "start_time": 49.293181818181814,
                "end_time": 51.52272727272727,
                "pitch": 56,
                "velocity": 51,
                "duration": 2.229545454545459,
                "tempo": 120.0
            },
            {
                "start_time": 51.543181818181814,
                "end_time": 51.85909090909091,
                "pitch": 76,
                "velocity": 51,
                "duration": 0.3159090909090949,
                "tempo": 120.0
            },
            {
                "start_time": 51.87954545454545,
                "end_time": 52.027272727272724,
                "pitch": 75,
                "velocity": 51,
                "duration": 0.14772727272727337,
                "tempo": 120.0
            },
            {
                "start_time": 52.05,
                "end_time": 52.19772727272727,
                "pitch": 73,
                "velocity": 51,
                "duration": 0.14772727272727337,
                "tempo": 120.0
            },
            {
                "start_time": 52.21818181818182,
                "end_time": 53.554545454545455,
                "pitch": 67,
                "velocity": 51,
                "duration": 1.336363636363636,
                "tempo": 120.0
            },
            {
                "start_time": 53.574999999999996,
                "end_time": 53.724999999999994,
                "pitch": 64,
                "velocity": 51,
                "duration": 0.14999999999999858,
                "tempo": 120.0
            },
            {
                "start_time": 53.74545454545454,
                "end_time": 54.06363636363636,
                "pitch": 68,
                "velocity": 51,
                "duration": 0.3181818181818201,
                "tempo": 120.0
            },
            {
                "start_time": 54.084090909090904,
                "end_time": 55.97727272727273,
                "pitch": 70,
                "velocity": 51,
                "duration": 1.893181818181823,
                "tempo": 120.0
            },
            {
                "start_time": 56.002272727272725,
                "end_time": 56.44318181818181,
                "pitch": 73,
                "velocity": 51,
                "duration": 0.4409090909090878,
                "tempo": 120.0
            },
            {
                "start_time": 56.47272727272727,
                "end_time": 56.679545454545455,
                "pitch": 70,
                "velocity": 51,
                "duration": 0.20681818181818556,
                "tempo": 120.0
            },
            {
                "start_time": 56.709090909090904,
                "end_time": 56.91590909090909,
                "pitch": 73,
                "velocity": 51,
                "duration": 0.20681818181818556,
                "tempo": 120.0
            },
            {
                "start_time": 56.945454545454545,
                "end_time": 57.152272727272724,
                "pitch": 73,
                "velocity": 51,
                "duration": 0.20681818181817846,
                "tempo": 120.0
            },
            {
                "start_time": 57.18181818181818,
                "end_time": 57.62272727272727,
                "pitch": 70,
                "velocity": 51,
                "duration": 0.4409090909090878,
                "tempo": 120.0
            },
            {
                "start_time": 57.652272727272724,
                "end_time": 58.095454545454544,
                "pitch": 76,
                "velocity": 51,
                "duration": 0.4431818181818201,
                "tempo": 120.0
            },
            {
                "start_time": 58.125,
                "end_time": 58.33181818181818,
                "pitch": 75,
                "velocity": 51,
                "duration": 0.20681818181817846,
                "tempo": 120.0
            },
            {
                "start_time": 58.361363636363635,
                "end_time": 58.56590909090909,
                "pitch": 73,
                "velocity": 51,
                "duration": 0.20454545454545325,
                "tempo": 120.0
            },
            {
                "start_time": 58.595454545454544,
                "end_time": 60.45454545454545,
                "pitch": 67,
                "velocity": 51,
                "duration": 1.8590909090909093,
                "tempo": 120.0
            },
            {
                "start_time": 60.48409090909091,
                "end_time": 60.69090909090909,
                "pitch": 64,
                "velocity": 51,
                "duration": 0.20681818181817846,
                "tempo": 120.0
            },
            {
                "start_time": 60.71818181818182,
                "end_time": 61.16590909090909,
                "pitch": 68,
                "velocity": 51,
                "duration": 0.44772727272727053,
                "tempo": 120.0
            },
            {
                "start_time": 61.195454545454545,
                "end_time": 63.54545454545454,
                "pitch": 70,
                "velocity": 51,
                "duration": 2.3499999999999943,
                "tempo": 120.0
            },
            {
                "start_time": 63.574999999999996,
                "end_time": 64.01818181818182,
                "pitch": 73,
                "velocity": 51,
                "duration": 0.4431818181818201,
                "tempo": 120.0
            },
            {
                "start_time": 64.04772727272727,
                "end_time": 64.25454545454545,
                "pitch": 70,
                "velocity": 51,
                "duration": 0.20681818181817846,
                "tempo": 120.0
            },
            {
                "start_time": 64.2840909090909,
                "end_time": 64.49318181818181,
                "pitch": 73,
                "velocity": 51,
                "duration": 0.20909090909090366,
                "tempo": 120.0
            },
            {
                "start_time": 64.52272727272727,
                "end_time": 64.73181818181818,
                "pitch": 73,
                "velocity": 51,
                "duration": 0.20909090909091788,
                "tempo": 120.0
            },
            {
                "start_time": 64.76363636363637,
                "end_time": 65.21136363636363,
                "pitch": 70,
                "velocity": 51,
                "duration": 0.4477272727272634,
                "tempo": 120.0
            },
            {
                "start_time": 65.24090909090908,
                "end_time": 65.69090909090909,
                "pitch": 76,
                "velocity": 51,
                "duration": 0.45000000000000284,
                "tempo": 120.0
            },
            {
                "start_time": 65.72045454545454,
                "end_time": 65.93181818181817,
                "pitch": 75,
                "velocity": 51,
                "duration": 0.21136363636362887,
                "tempo": 120.0
            },
            {
                "start_time": 65.96136363636363,
                "end_time": 66.16818181818182,
                "pitch": 73,
                "velocity": 51,
                "duration": 0.20681818181819267,
                "tempo": 120.0
            },
            {
                "start_time": 66.19772727272726,
                "end_time": 68.07727272727273,
                "pitch": 67,
                "velocity": 51,
                "duration": 1.8795454545454646,
                "tempo": 120.0
            },
            {
                "start_time": 68.10909090909091,
                "end_time": 68.32954545454545,
                "pitch": 64,
                "velocity": 51,
                "duration": 0.2204545454545439,
                "tempo": 120.0
            },
            {
                "start_time": 68.35909090909091,
                "end_time": 68.83181818181818,
                "pitch": 68,
                "velocity": 51,
                "duration": 0.4727272727272691,
                "tempo": 120.0
            },
            {
                "start_time": 68.86363636363636,
                "end_time": 71.37727272727273,
                "pitch": 70,
                "velocity": 51,
                "duration": 2.5136363636363654,
                "tempo": 120.0
            },
            {
                "start_time": 71.4090909090909,
                "end_time": 71.85,
                "pitch": 73,
                "velocity": 51,
                "duration": 0.4409090909090878,
                "tempo": 120.0
            },
            {
                "start_time": 71.87954545454545,
                "end_time": 72.08636363636363,
                "pitch": 70,
                "velocity": 51,
                "duration": 0.20681818181817846,
                "tempo": 120.0
            },
            {
                "start_time": 72.11590909090908,
                "end_time": 72.32272727272726,
                "pitch": 73,
                "velocity": 51,
                "duration": 0.20681818181817846,
                "tempo": 120.0
            },
            {
                "start_time": 72.35227272727272,
                "end_time": 72.55909090909091,
                "pitch": 73,
                "velocity": 51,
                "duration": 0.20681818181819267,
                "tempo": 120.0
            },
            {
                "start_time": 72.58863636363635,
                "end_time": 73.02954545454546,
                "pitch": 70,
                "velocity": 51,
                "duration": 0.440909090909102,
                "tempo": 120.0
            },
            {
                "start_time": 73.05909090909091,
                "end_time": 73.5090909090909,
                "pitch": 76,
                "velocity": 51,
                "duration": 0.44999999999998863,
                "tempo": 120.0
            },
            {
                "start_time": 73.53863636363636,
                "end_time": 73.74772727272727,
                "pitch": 75,
                "velocity": 51,
                "duration": 0.20909090909091788,
                "tempo": 120.0
            },
            {
                "start_time": 73.77954545454546,
                "end_time": 73.98863636363636,
                "pitch": 73,
                "velocity": 51,
                "duration": 0.20909090909090366,
                "tempo": 120.0
            },
            {
                "start_time": 74.01818181818182,
                "end_time": 75.88636363636363,
                "pitch": 67,
                "velocity": 51,
                "duration": 1.8681818181818102,
                "tempo": 120.0
            },
            {
                "start_time": 75.91590909090908,
                "end_time": 76.12272727272727,
                "pitch": 64,
                "velocity": 51,
                "duration": 0.20681818181819267,
                "tempo": 120.0
            },
            {
                "start_time": 76.15227272727272,
                "end_time": 76.59772727272727,
                "pitch": 68,
                "velocity": 51,
                "duration": 0.44545454545455243,
                "tempo": 120.0
            },
            {
                "start_time": 76.62727272727273,
                "end_time": 78.97954545454544,
                "pitch": 70,
                "velocity": 51,
                "duration": 2.3522727272727195,
                "tempo": 120.0
            },
            {
                "start_time": 79.0090909090909,
                "end_time": 79.45227272727273,
                "pitch": 73,
                "velocity": 51,
                "duration": 0.4431818181818272,
                "tempo": 120.0
            },
            {
                "start_time": 79.48181818181818,
                "end_time": 79.65681818181818,
                "pitch": 70,
                "velocity": 51,
                "duration": 0.17499999999999716,
                "tempo": 120.0
            },
            {
                "start_time": 79.68409090909091,
                "end_time": 80.06136363636364,
                "pitch": 73,
                "velocity": 51,
                "duration": 0.3772727272727252,
                "tempo": 120.0
            },
            {
                "start_time": 80.08636363636363,
                "end_time": 80.46363636363635,
                "pitch": 70,
                "velocity": 51,
                "duration": 0.3772727272727252,
                "tempo": 120.0
            },
            {
                "start_time": 80.48636363636363,
                "end_time": 80.80227272727272,
                "pitch": 54,
                "velocity": 51,
                "duration": 0.3159090909090878,
                "tempo": 120.0
            },
            {
                "start_time": 80.82272727272726,
                "end_time": 81.13636363636363,
                "pitch": 60,
                "velocity": 51,
                "duration": 0.3136363636363626,
                "tempo": 120.0
            },
            {
                "start_time": 81.1590909090909,
                "end_time": 81.17727272727272,
                "pitch": 61,
                "velocity": 51,
                "duration": 0.018181818181815856,
                "tempo": 120.0
            }
        ],
        "Electric Guitar (clean)": [
            {
                "start_time": 0.0,
                "end_time": 0.06363636363636363,
                "pitch": 42,
                "velocity": 64,
                "duration": 0.06363636363636363,
                "tempo": 120.0
            },
            {
                "start_time": 0.075,
                "end_time": 0.16363636363636364,
                "pitch": 42,
                "velocity": 64,
                "duration": 0.08863636363636364,
                "tempo": 120.0
            },
            {
                "start_time": 0.6454545454545454,
                "end_time": 0.7613636363636364,
                "pitch": 42,
                "velocity": 64,
                "duration": 0.11590909090909096,
                "tempo": 120.0
            },
            {
                "start_time": 0.7772727272727272,
                "end_time": 1.0295454545454545,
                "pitch": 42,
                "velocity": 64,
                "duration": 0.2522727272727273,
                "tempo": 120.0
            },
            {
                "start_time": 1.0454545454545454,
                "end_time": 1.1613636363636364,
                "pitch": 49,
                "velocity": 64,
                "duration": 0.11590909090909096,
                "tempo": 120.0
            },
            {
                "start_time": 1.1795454545454545,
                "end_time": 1.2954545454545454,
                "pitch": 51,
                "velocity": 64,
                "duration": 0.11590909090909096,
                "tempo": 120.0
            },
            {
                "start_time": 1.3113636363636363,
                "end_time": 1.4295454545454545,
                "pitch": 49,
                "velocity": 64,
                "duration": 0.11818181818181817,
                "tempo": 120.0
            },
            {
                "start_time": 1.4454545454545453,
                "end_time": 1.7,
                "pitch": 49,
                "velocity": 64,
                "duration": 0.25454545454545463,
                "tempo": 120.0
            },
            {
                "start_time": 1.718181818181818,
                "end_time": 1.9727272727272727,
                "pitch": 49,
                "velocity": 64,
                "duration": 0.25454545454545463,
                "tempo": 120.0
            },
            {
                "start_time": 1.9909090909090907,
                "end_time": 2.106818181818182,
                "pitch": 42,
                "velocity": 64,
                "duration": 0.11590909090909118,
                "tempo": 120.0
            },
            {
                "start_time": 2.1227272727272726,
                "end_time": 2.2409090909090907,
                "pitch": 42,
                "velocity": 64,
                "duration": 0.11818181818181817,
                "tempo": 120.0
            },
            {
                "start_time": 2.7909090909090906,
                "end_time": 2.909090909090909,
                "pitch": 48,
                "velocity": 64,
                "duration": 0.11818181818181861,
                "tempo": 120.0
            },
            {
                "start_time": 2.925,
                "end_time": 3.175,
                "pitch": 48,
                "velocity": 64,
                "duration": 0.25,
                "tempo": 120.0
            },
            {
                "start_time": 3.193181818181818,
                "end_time": 3.309090909090909,
                "pitch": 49,
                "velocity": 64,
                "duration": 0.11590909090909118,
                "tempo": 120.0
            },
            {
                "start_time": 3.3249999999999997,
                "end_time": 3.443181818181818,
                "pitch": 51,
                "velocity": 64,
                "duration": 0.11818181818181817,
                "tempo": 120.0
            },
            {
                "start_time": 3.459090909090909,
                "end_time": 3.577272727272727,
                "pitch": 49,
                "velocity": 64,
                "duration": 0.11818181818181817,
                "tempo": 120.0
            },
            {
                "start_time": 3.593181818181818,
                "end_time": 3.8477272727272727,
                "pitch": 48,
                "velocity": 64,
                "duration": 0.25454545454545485,
                "tempo": 120.0
            },
            {
                "start_time": 3.8659090909090907,
                "end_time": 3.984090909090909,
                "pitch": 44,
                "velocity": 64,
                "duration": 0.11818181818181817,
                "tempo": 120.0
            },
            {
                "start_time": 4.0,
                "end_time": 4.120454545454545,
                "pitch": 44,
                "velocity": 64,
                "duration": 0.12045454545454515,
                "tempo": 120.0
            },
            {
                "start_time": 4.136363636363636,
                "end_time": 4.254545454545454,
                "pitch": 42,
                "velocity": 64,
                "duration": 0.11818181818181817,
                "tempo": 120.0
            },
            {
                "start_time": 4.2704545454545455,
                "end_time": 4.388636363636364,
                "pitch": 42,
                "velocity": 64,
                "duration": 0.11818181818181817,
                "tempo": 120.0
            },
            {
                "start_time": 4.943181818181818,
                "end_time": 5.0613636363636365,
                "pitch": 42,
                "velocity": 64,
                "duration": 0.11818181818181817,
                "tempo": 120.0
            },
            {
                "start_time": 5.079545454545454,
                "end_time": 5.331818181818181,
                "pitch": 42,
                "velocity": 64,
                "duration": 0.252272727272727,
                "tempo": 120.0
            },
            {
                "start_time": 5.35,
                "end_time": 5.465909090909091,
                "pitch": 49,
                "velocity": 64,
                "duration": 0.11590909090909118,
                "tempo": 120.0
            },
            {
                "start_time": 5.4818181818181815,
                "end_time": 5.6,
                "pitch": 51,
                "velocity": 64,
                "duration": 0.11818181818181817,
                "tempo": 120.0
            },
            {
                "start_time": 5.61590909090909,
                "end_time": 5.7340909090909085,
                "pitch": 49,
                "velocity": 64,
                "duration": 0.11818181818181817,
                "tempo": 120.0
            },
            {
                "start_time": 5.75,
                "end_time": 6.004545454545454,
                "pitch": 49,
                "velocity": 64,
                "duration": 0.25454545454545396,
                "tempo": 120.0
            },
            {
                "start_time": 6.0227272727272725,
                "end_time": 6.277272727272727,
                "pitch": 49,
                "velocity": 64,
                "duration": 0.25454545454545485,
                "tempo": 120.0
            },
            {
                "start_time": 6.293181818181818,
                "end_time": 6.411363636363636,
                "pitch": 42,
                "velocity": 64,
                "duration": 0.11818181818181817,
                "tempo": 120.0
            },
            {
                "start_time": 6.427272727272727,
                "end_time": 6.543181818181818,
                "pitch": 42,
                "velocity": 64,
                "duration": 0.11590909090909118,
                "tempo": 120.0
            },
            {
                "start_time": 7.095454545454545,
                "end_time": 7.211363636363636,
                "pitch": 48,
                "velocity": 64,
                "duration": 0.11590909090909118,
                "tempo": 120.0
            },
            {
                "start_time": 7.2295454545454545,
                "end_time": 7.4795454545454545,
                "pitch": 48,
                "velocity": 64,
                "duration": 0.25,
                "tempo": 120.0
            },
            {
                "start_time": 7.495454545454545,
                "end_time": 7.613636363636363,
                "pitch": 49,
                "velocity": 64,
                "duration": 0.11818181818181817,
                "tempo": 120.0
            },
            {
                "start_time": 7.629545454545454,
                "end_time": 7.745454545454545,
                "pitch": 51,
                "velocity": 64,
                "duration": 0.11590909090909118,
                "tempo": 120.0
            },
            {
                "start_time": 7.763636363636364,
                "end_time": 7.879545454545454,
                "pitch": 49,
                "velocity": 64,
                "duration": 0.1159090909090903,
                "tempo": 120.0
            },
            {
                "start_time": 7.8977272727272725,
                "end_time": 8.152272727272727,
                "pitch": 48,
                "velocity": 64,
                "duration": 0.25454545454545485,
                "tempo": 120.0
            },
            {
                "start_time": 8.168181818181818,
                "end_time": 8.288636363636364,
                "pitch": 44,
                "velocity": 64,
                "duration": 0.12045454545454604,
                "tempo": 120.0
            },
            {
                "start_time": 8.304545454545455,
                "end_time": 8.422727272727272,
                "pitch": 44,
                "velocity": 64,
                "duration": 0.11818181818181728,
                "tempo": 120.0
            },
            {
                "start_time": 8.440909090909091,
                "end_time": 8.556818181818182,
                "pitch": 44,
                "velocity": 64,
                "duration": 0.1159090909090903,
                "tempo": 120.0
            },
            {
                "start_time": 8.575,
                "end_time": 8.690909090909091,
                "pitch": 44,
                "velocity": 64,
                "duration": 0.11590909090909207,
                "tempo": 120.0
            },
            {
                "start_time": 9.247727272727273,
                "end_time": 9.36590909090909,
                "pitch": 42,
                "velocity": 64,
                "duration": 0.11818181818181728,
                "tempo": 120.0
            },
            {
                "start_time": 9.384090909090908,
                "end_time": 9.634090909090908,
                "pitch": 42,
                "velocity": 64,
                "duration": 0.25,
                "tempo": 120.0
            },
            {
                "start_time": 9.65,
                "end_time": 9.76590909090909,
                "pitch": 49,
                "velocity": 64,
                "duration": 0.1159090909090903,
                "tempo": 120.0
            },
            {
                "start_time": 9.781818181818181,
                "end_time": 9.895454545454545,
                "pitch": 51,
                "velocity": 64,
                "duration": 0.11363636363636331,
                "tempo": 120.0
            },
            {
                "start_time": 9.913636363636364,
                "end_time": 10.027272727272727,
                "pitch": 49,
                "velocity": 64,
                "duration": 0.11363636363636331,
                "tempo": 120.0
            },
            {
                "start_time": 10.043181818181818,
                "end_time": 10.163636363636364,
                "pitch": 48,
                "velocity": 64,
                "duration": 0.12045454545454604,
                "tempo": 120.0
            },
            {
                "start_time": 10.179545454545455,
                "end_time": 10.299999999999999,
                "pitch": 48,
                "velocity": 64,
                "duration": 0.12045454545454426,
                "tempo": 120.0
            },
            {
                "start_time": 10.31590909090909,
                "end_time": 10.570454545454545,
                "pitch": 44,
                "velocity": 64,
                "duration": 0.25454545454545574,
                "tempo": 120.0
            },
            {
                "start_time": 10.588636363636363,
                "end_time": 10.704545454545453,
                "pitch": 44,
                "velocity": 64,
                "duration": 0.1159090909090903,
                "tempo": 120.0
            },
            {
                "start_time": 10.720454545454546,
                "end_time": 10.838636363636363,
                "pitch": 44,
                "velocity": 64,
                "duration": 0.11818181818181728,
                "tempo": 120.0
            },
            {
                "start_time": 11.393181818181818,
                "end_time": 11.513636363636364,
                "pitch": 48,
                "velocity": 64,
                "duration": 0.12045454545454604,
                "tempo": 120.0
            },
            {
                "start_time": 11.529545454545454,
                "end_time": 11.784090909090908,
                "pitch": 48,
                "velocity": 64,
                "duration": 0.25454545454545396,
                "tempo": 120.0
            },
            {
                "start_time": 11.799999999999999,
                "end_time": 11.915909090909091,
                "pitch": 49,
                "velocity": 64,
                "duration": 0.11590909090909207,
                "tempo": 120.0
            },
            {
                "start_time": 11.934090909090909,
                "end_time": 12.049999999999999,
                "pitch": 51,
                "velocity": 64,
                "duration": 0.1159090909090903,
                "tempo": 120.0
            },
            {
                "start_time": 12.06590909090909,
                "end_time": 12.184090909090909,
                "pitch": 49,
                "velocity": 64,
                "duration": 0.11818181818181905,
                "tempo": 120.0
            },
            {
                "start_time": 12.2,
                "end_time": 12.318181818181818,
                "pitch": 48,
                "velocity": 64,
                "duration": 0.11818181818181905,
                "tempo": 120.0
            },
            {
                "start_time": 12.334090909090909,
                "end_time": 12.45,
                "pitch": 48,
                "velocity": 64,
                "duration": 0.1159090909090903,
                "tempo": 120.0
            },
            {
                "start_time": 12.468181818181817,
                "end_time": 12.584090909090909,
                "pitch": 44,
                "velocity": 64,
                "duration": 0.11590909090909207,
                "tempo": 120.0
            },
            {
                "start_time": 12.602272727272727,
                "end_time": 12.718181818181817,
                "pitch": 44,
                "velocity": 64,
                "duration": 0.1159090909090903,
                "tempo": 120.0
            },
            {
                "start_time": 12.73409090909091,
                "end_time": 12.854545454545454,
                "pitch": 44,
                "velocity": 64,
                "duration": 0.12045454545454426,
                "tempo": 120.0
            },
            {
                "start_time": 12.870454545454544,
                "end_time": 12.99090909090909,
                "pitch": 44,
                "velocity": 64,
                "duration": 0.12045454545454604,
                "tempo": 120.0
            },
            {
                "start_time": 13.545454545454545,
                "end_time": 13.663636363636362,
                "pitch": 42,
                "velocity": 64,
                "duration": 0.11818181818181728,
                "tempo": 120.0
            },
            {
                "start_time": 13.679545454545455,
                "end_time": 13.929545454545455,
                "pitch": 42,
                "velocity": 64,
                "duration": 0.25,
                "tempo": 120.0
            },
            {
                "start_time": 13.947727272727272,
                "end_time": 14.063636363636363,
                "pitch": 49,
                "velocity": 64,
                "duration": 0.1159090909090903,
                "tempo": 120.0
            },
            {
                "start_time": 14.079545454545453,
                "end_time": 14.197727272727272,
                "pitch": 51,
                "velocity": 64,
                "duration": 0.11818181818181905,
                "tempo": 120.0
            },
            {
                "start_time": 14.213636363636363,
                "end_time": 14.33181818181818,
                "pitch": 49,
                "velocity": 64,
                "duration": 0.11818181818181728,
                "tempo": 120.0
            },
            {
                "start_time": 14.347727272727273,
                "end_time": 14.46590909090909,
                "pitch": 48,
                "velocity": 64,
                "duration": 0.11818181818181728,
                "tempo": 120.0
            },
            {
                "start_time": 14.484090909090908,
                "end_time": 14.602272727272727,
                "pitch": 48,
                "velocity": 64,
                "duration": 0.11818181818181905,
                "tempo": 120.0
            },
            {
                "start_time": 14.620454545454544,
                "end_time": 14.738636363636363,
                "pitch": 44,
                "velocity": 64,
                "duration": 0.11818181818181905,
                "tempo": 120.0
            },
            {
                "start_time": 14.754545454545454,
                "end_time": 14.875,
                "pitch": 44,
                "velocity": 64,
                "duration": 0.12045454545454604,
                "tempo": 120.0
            },
            {
                "start_time": 14.89090909090909,
                "end_time": 15.009090909090908,
                "pitch": 44,
                "velocity": 64,
                "duration": 0.11818181818181728,
                "tempo": 120.0
            },
            {
                "start_time": 15.024999999999999,
                "end_time": 15.143181818181818,
                "pitch": 44,
                "velocity": 64,
                "duration": 0.11818181818181905,
                "tempo": 120.0
            },
            {
                "start_time": 15.693181818181817,
                "end_time": 15.809090909090909,
                "pitch": 48,
                "velocity": 64,
                "duration": 0.11590909090909207,
                "tempo": 120.0
            },
            {
                "start_time": 15.827272727272726,
                "end_time": 16.077272727272728,
                "pitch": 48,
                "velocity": 64,
                "duration": 0.2500000000000018,
                "tempo": 120.0
            },
            {
                "start_time": 16.09318181818182,
                "end_time": 16.211363636363636,
                "pitch": 49,
                "velocity": 64,
                "duration": 0.11818181818181728,
                "tempo": 120.0
            },
            {
                "start_time": 16.227272727272727,
                "end_time": 16.345454545454544,
                "pitch": 51,
                "velocity": 64,
                "duration": 0.11818181818181728,
                "tempo": 120.0
            },
            {
                "start_time": 16.361363636363635,
                "end_time": 16.477272727272727,
                "pitch": 49,
                "velocity": 64,
                "duration": 0.11590909090909207,
                "tempo": 120.0
            },
            {
                "start_time": 16.495454545454546,
                "end_time": 16.613636363636363,
                "pitch": 48,
                "velocity": 64,
                "duration": 0.11818181818181728,
                "tempo": 120.0
            },
            {
                "start_time": 16.631818181818183,
                "end_time": 16.75,
                "pitch": 48,
                "velocity": 64,
                "duration": 0.11818181818181728,
                "tempo": 120.0
            },
            {
                "start_time": 16.76590909090909,
                "end_time": 16.886363636363637,
                "pitch": 44,
                "velocity": 64,
                "duration": 0.12045454545454604,
                "tempo": 120.0
            },
            {
                "start_time": 16.902272727272727,
                "end_time": 17.022727272727273,
                "pitch": 44,
                "velocity": 64,
                "duration": 0.12045454545454604,
                "tempo": 120.0
            },
            {
                "start_time": 17.038636363636364,
                "end_time": 17.288636363636364,
                "pitch": 49,
                "velocity": 64,
                "duration": 0.25,
                "tempo": 120.0
            },
            {
                "start_time": 17.30681818181818,
                "end_time": 17.55681818181818,
                "pitch": 49,
                "velocity": 64,
                "duration": 0.25,
                "tempo": 120.0
            },
            {
                "start_time": 17.57272727272727,
                "end_time": 17.827272727272728,
                "pitch": 49,
                "velocity": 64,
                "duration": 0.2545454545454575,
                "tempo": 120.0
            },
            {
                "start_time": 17.845454545454544,
                "end_time": 18.099999999999998,
                "pitch": 49,
                "velocity": 64,
                "duration": 0.25454545454545396,
                "tempo": 120.0
            },
            {
                "start_time": 18.118181818181817,
                "end_time": 18.368181818181817,
                "pitch": 49,
                "velocity": 64,
                "duration": 0.25,
                "tempo": 120.0
            },
            {
                "start_time": 18.384090909090908,
                "end_time": 18.634090909090908,
                "pitch": 49,
                "velocity": 64,
                "duration": 0.25,
                "tempo": 120.0
            },
            {
                "start_time": 18.652272727272727,
                "end_time": 18.768181818181816,
                "pitch": 49,
                "velocity": 64,
                "duration": 0.11590909090908852,
                "tempo": 120.0
            },
            {
                "start_time": 18.784090909090907,
                "end_time": 19.168181818181818,
                "pitch": 51,
                "velocity": 64,
                "duration": 0.3840909090909115,
                "tempo": 120.0
            },
            {
                "start_time": 19.186363636363634,
                "end_time": 19.44090909090909,
                "pitch": 47,
                "velocity": 64,
                "duration": 0.2545454545454575,
                "tempo": 120.0
            },
            {
                "start_time": 19.456818181818182,
                "end_time": 19.71363636363636,
                "pitch": 47,
                "velocity": 64,
                "duration": 0.25681818181817917,
                "tempo": 120.0
            },
            {
                "start_time": 19.729545454545452,
                "end_time": 19.979545454545452,
                "pitch": 47,
                "velocity": 64,
                "duration": 0.25,
                "tempo": 120.0
            },
            {
                "start_time": 19.99772727272727,
                "end_time": 20.24772727272727,
                "pitch": 47,
                "velocity": 64,
                "duration": 0.25,
                "tempo": 120.0
            },
            {
                "start_time": 20.263636363636362,
                "end_time": 20.513636363636362,
                "pitch": 47,
                "velocity": 64,
                "duration": 0.25,
                "tempo": 120.0
            },
            {
                "start_time": 20.53181818181818,
                "end_time": 20.78181818181818,
                "pitch": 47,
                "velocity": 64,
                "duration": 0.25,
                "tempo": 120.0
            },
            {
                "start_time": 20.797727272727272,
                "end_time": 20.918181818181818,
                "pitch": 47,
                "velocity": 64,
                "duration": 0.12045454545454604,
                "tempo": 120.0
            },
            {
                "start_time": 20.93409090909091,
                "end_time": 21.325,
                "pitch": 49,
                "velocity": 64,
                "duration": 0.39090909090909065,
                "tempo": 120.0
            },
            {
                "start_time": 21.34318181818182,
                "end_time": 21.59318181818182,
                "pitch": 54,
                "velocity": 64,
                "duration": 0.25,
                "tempo": 120.0
            },
            {
                "start_time": 21.60909090909091,
                "end_time": 21.85909090909091,
                "pitch": 54,
                "velocity": 64,
                "duration": 0.25,
                "tempo": 120.0
            },
            {
                "start_time": 21.877272727272725,
                "end_time": 22.127272727272725,
                "pitch": 54,
                "velocity": 64,
                "duration": 0.25,
                "tempo": 120.0
            },
            {
                "start_time": 22.143181818181816,
                "end_time": 22.395454545454545,
                "pitch": 54,
                "velocity": 64,
                "duration": 0.25227272727272876,
                "tempo": 120.0
            },
            {
                "start_time": 22.411363636363635,
                "end_time": 22.661363636363635,
                "pitch": 54,
                "velocity": 64,
                "duration": 0.25,
                "tempo": 120.0
            },
            {
                "start_time": 22.679545454545455,
                "end_time": 22.929545454545455,
                "pitch": 54,
                "velocity": 64,
                "duration": 0.25,
                "tempo": 120.0
            },
            {
                "start_time": 22.945454545454545,
                "end_time": 23.063636363636363,
                "pitch": 54,
                "velocity": 64,
                "duration": 0.11818181818181728,
                "tempo": 120.0
            },
            {
                "start_time": 23.081818181818182,
                "end_time": 23.472727272727273,
                "pitch": 53,
                "velocity": 64,
                "duration": 0.39090909090909065,
                "tempo": 120.0
            },
            {
                "start_time": 23.488636363636363,
                "end_time": 23.74090909090909,
                "pitch": 52,
                "velocity": 64,
                "duration": 0.2522727272727252,
                "tempo": 120.0
            },
            {
                "start_time": 23.75681818181818,
                "end_time": 24.00681818181818,
                "pitch": 52,
                "velocity": 64,
                "duration": 0.25,
                "tempo": 120.0
            },
            {
                "start_time": 24.025,
                "end_time": 24.279545454545453,
                "pitch": 52,
                "velocity": 64,
                "duration": 0.25454545454545396,
                "tempo": 120.0
            },
            {
                "start_time": 24.295454545454543,
                "end_time": 24.549999999999997,
                "pitch": 52,
                "velocity": 64,
                "duration": 0.25454545454545396,
                "tempo": 120.0
            },
            {
                "start_time": 24.568181818181817,
                "end_time": 24.818181818181817,
                "pitch": 52,
                "velocity": 64,
                "duration": 0.25,
                "tempo": 120.0
            },
            {
                "start_time": 24.834090909090907,
                "end_time": 25.086363636363636,
                "pitch": 52,
                "velocity": 64,
                "duration": 0.25227272727272876,
                "tempo": 120.0
            },
            {
                "start_time": 25.102272727272727,
                "end_time": 25.21818181818182,
                "pitch": 52,
                "velocity": 64,
                "duration": 0.11590909090909207,
                "tempo": 120.0
            },
            {
                "start_time": 25.236363636363635,
                "end_time": 25.620454545454542,
                "pitch": 51,
                "velocity": 64,
                "duration": 0.38409090909090793,
                "tempo": 120.0
            },
            {
                "start_time": 25.636363636363637,
                "end_time": 25.89090909090909,
                "pitch": 49,
                "velocity": 64,
                "duration": 0.25454545454545396,
                "tempo": 120.0
            },
            {
                "start_time": 25.909090909090907,
                "end_time": 26.163636363636364,
                "pitch": 49,
                "velocity": 64,
                "duration": 0.2545454545454575,
                "tempo": 120.0
            },
            {
                "start_time": 26.179545454545455,
                "end_time": 26.43181818181818,
                "pitch": 49,
                "velocity": 64,
                "duration": 0.2522727272727252,
                "tempo": 120.0
            },
            {
                "start_time": 26.44772727272727,
                "end_time": 26.69772727272727,
                "pitch": 49,
                "velocity": 64,
                "duration": 0.25,
                "tempo": 120.0
            },
            {
                "start_time": 26.71590909090909,
                "end_time": 26.96590909090909,
                "pitch": 49,
                "velocity": 64,
                "duration": 0.25,
                "tempo": 120.0
            },
            {
                "start_time": 26.98181818181818,
                "end_time": 27.23181818181818,
                "pitch": 49,
                "velocity": 64,
                "duration": 0.25,
                "tempo": 120.0
            },
            {
                "start_time": 27.25,
                "end_time": 27.368181818181817,
                "pitch": 49,
                "velocity": 64,
                "duration": 0.11818181818181728,
                "tempo": 120.0
            },
            {
                "start_time": 27.386363636363637,
                "end_time": 27.777272727272727,
                "pitch": 51,
                "velocity": 64,
                "duration": 0.39090909090909065,
                "tempo": 120.0
            },
            {
                "start_time": 27.793181818181818,
                "end_time": 28.043181818181818,
                "pitch": 47,
                "velocity": 64,
                "duration": 0.25,
                "tempo": 120.0
            },
            {
                "start_time": 28.061363636363634,
                "end_time": 28.311363636363634,
                "pitch": 47,
                "velocity": 64,
                "duration": 0.25,
                "tempo": 120.0
            },
            {
                "start_time": 28.327272727272724,
                "end_time": 28.581818181818182,
                "pitch": 47,
                "velocity": 64,
                "duration": 0.2545454545454575,
                "tempo": 120.0
            },
            {
                "start_time": 28.599999999999998,
                "end_time": 28.854545454545452,
                "pitch": 47,
                "velocity": 64,
                "duration": 0.25454545454545396,
                "tempo": 120.0
            },
            {
                "start_time": 28.87272727272727,
                "end_time": 29.12272727272727,
                "pitch": 47,
                "velocity": 64,
                "duration": 0.25,
                "tempo": 120.0
            },
            {
                "start_time": 29.138636363636362,
                "end_time": 29.388636363636362,
                "pitch": 47,
                "velocity": 64,
                "duration": 0.25,
                "tempo": 120.0
            },
            {
                "start_time": 29.40681818181818,
                "end_time": 29.52272727272727,
                "pitch": 47,
                "velocity": 64,
                "duration": 0.11590909090908852,
                "tempo": 120.0
            },
            {
                "start_time": 29.53863636363636,
                "end_time": 29.922727272727272,
                "pitch": 49,
                "velocity": 64,
                "duration": 0.3840909090909115,
                "tempo": 120.0
            },
            {
                "start_time": 29.940909090909088,
                "end_time": 30.190909090909088,
                "pitch": 54,
                "velocity": 64,
                "duration": 0.25,
                "tempo": 120.0
            },
            {
                "start_time": 30.206818181818182,
                "end_time": 30.459090909090907,
                "pitch": 54,
                "velocity": 64,
                "duration": 0.2522727272727252,
                "tempo": 120.0
            },
            {
                "start_time": 30.474999999999998,
                "end_time": 30.729545454545452,
                "pitch": 54,
                "velocity": 64,
                "duration": 0.25454545454545396,
                "tempo": 120.0
            },
            {
                "start_time": 30.74772727272727,
                "end_time": 31.002272727272725,
                "pitch": 54,
                "velocity": 64,
                "duration": 0.25454545454545396,
                "tempo": 120.0
            },
            {
                "start_time": 31.018181818181816,
                "end_time": 31.268181818181816,
                "pitch": 54,
                "velocity": 64,
                "duration": 0.25,
                "tempo": 120.0
            },
            {
                "start_time": 31.286363636363635,
                "end_time": 31.536363636363635,
                "pitch": 54,
                "velocity": 64,
                "duration": 0.25,
                "tempo": 120.0
            },
            {
                "start_time": 31.552272727272726,
                "end_time": 31.670454545454543,
                "pitch": 54,
                "velocity": 64,
                "duration": 0.11818181818181728,
                "tempo": 120.0
            },
            {
                "start_time": 31.686363636363634,
                "end_time": 32.070454545454545,
                "pitch": 53,
                "velocity": 64,
                "duration": 0.3840909090909115,
                "tempo": 120.0
            },
            {
                "start_time": 32.08863636363636,
                "end_time": 32.34318181818182,
                "pitch": 52,
                "velocity": 64,
                "duration": 0.2545454545454575,
                "tempo": 120.0
            },
            {
                "start_time": 32.35909090909091,
                "end_time": 32.61363636363636,
                "pitch": 52,
                "velocity": 64,
                "duration": 0.2545454545454504,
                "tempo": 120.0
            },
            {
                "start_time": 32.63181818181818,
                "end_time": 32.88181818181818,
                "pitch": 52,
                "velocity": 64,
                "duration": 0.25,
                "tempo": 120.0
            },
            {
                "start_time": 32.89772727272727,
                "end_time": 33.15,
                "pitch": 52,
                "velocity": 64,
                "duration": 0.2522727272727252,
                "tempo": 120.0
            },
            {
                "start_time": 33.16590909090909,
                "end_time": 33.41590909090909,
                "pitch": 52,
                "velocity": 64,
                "duration": 0.25,
                "tempo": 120.0
            },
            {
                "start_time": 33.434090909090905,
                "end_time": 33.684090909090905,
                "pitch": 52,
                "velocity": 64,
                "duration": 0.25,
                "tempo": 120.0
            },
            {
                "start_time": 33.699999999999996,
                "end_time": 33.81818181818181,
                "pitch": 52,
                "velocity": 64,
                "duration": 0.11818181818181728,
                "tempo": 120.0
            },
            {
                "start_time": 33.836363636363636,
                "end_time": 34.22727272727273,
                "pitch": 51,
                "velocity": 64,
                "duration": 0.39090909090909065,
                "tempo": 120.0
            },
            {
                "start_time": 34.24318181818182,
                "end_time": 34.361363636363635,
                "pitch": 42,
                "velocity": 64,
                "duration": 0.11818181818181728,
                "tempo": 120.0
            },
            {
                "start_time": 34.377272727272725,
                "end_time": 34.49545454545454,
                "pitch": 42,
                "velocity": 64,
                "duration": 0.11818181818181728,
                "tempo": 120.0
            },
            {
                "start_time": 35.04545454545455,
                "end_time": 35.163636363636364,
                "pitch": 42,
                "velocity": 64,
                "duration": 0.11818181818181728,
                "tempo": 120.0
            },
            {
                "start_time": 35.179545454545455,
                "end_time": 35.43181818181818,
                "pitch": 42,
                "velocity": 64,
                "duration": 0.2522727272727252,
                "tempo": 120.0
            },
            {
                "start_time": 35.449999999999996,
                "end_time": 35.56818181818181,
                "pitch": 49,
                "velocity": 64,
                "duration": 0.11818181818181728,
                "tempo": 120.0
            },
            {
                "start_time": 35.58409090909091,
                "end_time": 35.70454545454545,
                "pitch": 51,
                "velocity": 64,
                "duration": 0.12045454545454248,
                "tempo": 120.0
            },
            {
                "start_time": 35.720454545454544,
                "end_time": 35.840909090909086,
                "pitch": 49,
                "velocity": 64,
                "duration": 0.12045454545454248,
                "tempo": 120.0
            },
            {
                "start_time": 35.85681818181818,
                "end_time": 36.10681818181818,
                "pitch": 49,
                "velocity": 64,
                "duration": 0.25,
                "tempo": 120.0
            },
            {
                "start_time": 36.125,
                "end_time": 36.375,
                "pitch": 49,
                "velocity": 64,
                "duration": 0.25,
                "tempo": 120.0
            },
            {
                "start_time": 36.39090909090909,
                "end_time": 36.50909090909091,
                "pitch": 42,
                "velocity": 64,
                "duration": 0.11818181818181728,
                "tempo": 120.0
            },
            {
                "start_time": 36.525,
                "end_time": 36.64090909090909,
                "pitch": 42,
                "velocity": 64,
                "duration": 0.11590909090909207,
                "tempo": 120.0
            },
            {
                "start_time": 37.19772727272727,
                "end_time": 37.31590909090909,
                "pitch": 48,
                "velocity": 64,
                "duration": 0.11818181818181728,
                "tempo": 120.0
            },
            {
                "start_time": 37.33409090909091,
                "end_time": 37.586363636363636,
                "pitch": 48,
                "velocity": 64,
                "duration": 0.2522727272727252,
                "tempo": 120.0
            },
            {
                "start_time": 37.60227272727273,
                "end_time": 37.720454545454544,
                "pitch": 49,
                "velocity": 64,
                "duration": 0.11818181818181728,
                "tempo": 120.0
            },
            {
                "start_time": 37.736363636363635,
                "end_time": 37.85454545454545,
                "pitch": 51,
                "velocity": 64,
                "duration": 0.11818181818181728,
                "tempo": 120.0
            },
            {
                "start_time": 37.87045454545454,
                "end_time": 37.986363636363635,
                "pitch": 49,
                "velocity": 64,
                "duration": 0.11590909090909207,
                "tempo": 120.0
            },
            {
                "start_time": 38.00454545454545,
                "end_time": 38.25909090909091,
                "pitch": 48,
                "velocity": 64,
                "duration": 0.2545454545454575,
                "tempo": 120.0
            },
            {
                "start_time": 38.275,
                "end_time": 38.39545454545454,
                "pitch": 44,
                "velocity": 64,
                "duration": 0.12045454545454248,
                "tempo": 120.0
            },
            {
                "start_time": 38.41136363636363,
                "end_time": 38.53181818181818,
                "pitch": 44,
                "velocity": 64,
                "duration": 0.12045454545454959,
                "tempo": 120.0
            },
            {
                "start_time": 38.54772727272727,
                "end_time": 38.663636363636364,
                "pitch": 42,
                "velocity": 64,
                "duration": 0.11590909090909207,
                "tempo": 120.0
            },
            {
                "start_time": 38.679545454545455,
                "end_time": 38.793181818181814,
                "pitch": 42,
                "velocity": 64,
                "duration": 0.11363636363635976,
                "tempo": 120.0
            },
            {
                "start_time": 39.345454545454544,
                "end_time": 39.46363636363636,
                "pitch": 42,
                "velocity": 64,
                "duration": 0.11818181818181728,
                "tempo": 120.0
            },
            {
                "start_time": 39.48181818181818,
                "end_time": 39.73409090909091,
                "pitch": 42,
                "velocity": 64,
                "duration": 0.2522727272727323,
                "tempo": 120.0
            },
            {
                "start_time": 39.75,
                "end_time": 39.86818181818182,
                "pitch": 49,
                "velocity": 64,
                "duration": 0.11818181818181728,
                "tempo": 120.0
            },
            {
                "start_time": 39.88409090909091,
                "end_time": 40.0,
                "pitch": 51,
                "velocity": 64,
                "duration": 0.11590909090909207,
                "tempo": 120.0
            },
            {
                "start_time": 40.018181818181816,
                "end_time": 40.13409090909091,
                "pitch": 49,
                "velocity": 64,
                "duration": 0.11590909090909207,
                "tempo": 120.0
            },
            {
                "start_time": 40.15,
                "end_time": 40.40681818181818,
                "pitch": 49,
                "velocity": 64,
                "duration": 0.2568181818181827,
                "tempo": 120.0
            },
            {
                "start_time": 40.42272727272727,
                "end_time": 40.67727272727272,
                "pitch": 49,
                "velocity": 64,
                "duration": 0.2545454545454504,
                "tempo": 120.0
            },
            {
                "start_time": 40.695454545454545,
                "end_time": 40.81136363636364,
                "pitch": 42,
                "velocity": 64,
                "duration": 0.11590909090909207,
                "tempo": 120.0
            },
            {
                "start_time": 40.82954545454545,
                "end_time": 40.945454545454545,
                "pitch": 42,
                "velocity": 64,
                "duration": 0.11590909090909207,
                "tempo": 120.0
            },
            {
                "start_time": 41.49545454545454,
                "end_time": 41.61363636363636,
                "pitch": 48,
                "velocity": 64,
                "duration": 0.11818181818181728,
                "tempo": 120.0
            },
            {
                "start_time": 41.62954545454545,
                "end_time": 41.88181818181818,
                "pitch": 48,
                "velocity": 64,
                "duration": 0.2522727272727323,
                "tempo": 120.0
            },
            {
                "start_time": 41.9,
                "end_time": 42.018181818181816,
                "pitch": 49,
                "velocity": 64,
                "duration": 0.11818181818181728,
                "tempo": 120.0
            },
            {
                "start_time": 42.03636363636363,
                "end_time": 42.15454545454545,
                "pitch": 51,
                "velocity": 64,
                "duration": 0.11818181818181728,
                "tempo": 120.0
            },
            {
                "start_time": 42.17272727272727,
                "end_time": 42.29090909090909,
                "pitch": 49,
                "velocity": 64,
                "duration": 0.11818181818181728,
                "tempo": 120.0
            },
            {
                "start_time": 42.30681818181818,
                "end_time": 42.559090909090905,
                "pitch": 48,
                "velocity": 64,
                "duration": 0.2522727272727252,
                "tempo": 120.0
            },
            {
                "start_time": 42.574999999999996,
                "end_time": 42.69090909090909,
                "pitch": 44,
                "velocity": 64,
                "duration": 0.11590909090909207,
                "tempo": 120.0
            },
            {
                "start_time": 42.709090909090904,
                "end_time": 42.824999999999996,
                "pitch": 44,
                "velocity": 64,
                "duration": 0.11590909090909207,
                "tempo": 120.0
            },
            {
                "start_time": 42.84318181818182,
                "end_time": 42.959090909090904,
                "pitch": 44,
                "velocity": 64,
                "duration": 0.11590909090908497,
                "tempo": 120.0
            },
            {
                "start_time": 42.975,
                "end_time": 43.09318181818182,
                "pitch": 44,
                "velocity": 64,
                "duration": 0.11818181818181728,
                "tempo": 120.0
            },
            {
                "start_time": 43.64772727272727,
                "end_time": 43.768181818181816,
                "pitch": 42,
                "velocity": 64,
                "duration": 0.12045454545454248,
                "tempo": 120.0
            },
            {
                "start_time": 43.78409090909091,
                "end_time": 44.03636363636363,
                "pitch": 42,
                "velocity": 64,
                "duration": 0.2522727272727252,
                "tempo": 120.0
            },
            {
                "start_time": 44.054545454545455,
                "end_time": 44.17045454545455,
                "pitch": 49,
                "velocity": 64,
                "duration": 0.11590909090909207,
                "tempo": 120.0
            },
            {
                "start_time": 44.18863636363636,
                "end_time": 44.304545454545455,
                "pitch": 51,
                "velocity": 64,
                "duration": 0.11590909090909207,
                "tempo": 120.0
            },
            {
                "start_time": 44.320454545454545,
                "end_time": 44.43863636363636,
                "pitch": 49,
                "velocity": 64,
                "duration": 0.11818181818181728,
                "tempo": 120.0
            },
            {
                "start_time": 44.45454545454545,
                "end_time": 44.57272727272727,
                "pitch": 48,
                "velocity": 64,
                "duration": 0.11818181818181728,
                "tempo": 120.0
            },
            {
                "start_time": 44.58863636363636,
                "end_time": 44.70454545454545,
                "pitch": 48,
                "velocity": 64,
                "duration": 0.11590909090909207,
                "tempo": 120.0
            },
            {
                "start_time": 44.72272727272727,
                "end_time": 44.97272727272727,
                "pitch": 44,
                "velocity": 64,
                "duration": 0.25,
                "tempo": 120.0
            },
            {
                "start_time": 44.98863636363636,
                "end_time": 45.10909090909091,
                "pitch": 44,
                "velocity": 64,
                "duration": 0.12045454545454959,
                "tempo": 120.0
            },
            {
                "start_time": 45.125,
                "end_time": 45.24318181818182,
                "pitch": 44,
                "velocity": 64,
                "duration": 0.11818181818181728,
                "tempo": 120.0
            },
            {
                "start_time": 45.8,
                "end_time": 45.918181818181814,
                "pitch": 48,
                "velocity": 64,
                "duration": 0.11818181818181728,
                "tempo": 120.0
            },
            {
                "start_time": 45.934090909090905,
                "end_time": 46.184090909090905,
                "pitch": 48,
                "velocity": 64,
                "duration": 0.25,
                "tempo": 120.0
            },
            {
                "start_time": 46.199999999999996,
                "end_time": 46.31818181818181,
                "pitch": 49,
                "velocity": 64,
                "duration": 0.11818181818181728,
                "tempo": 120.0
            },
            {
                "start_time": 46.334090909090904,
                "end_time": 46.45227272727273,
                "pitch": 51,
                "velocity": 64,
                "duration": 0.11818181818182438,
                "tempo": 120.0
            },
            {
                "start_time": 46.46818181818182,
                "end_time": 46.584090909090904,
                "pitch": 49,
                "velocity": 64,
                "duration": 0.11590909090908497,
                "tempo": 120.0
            },
            {
                "start_time": 46.60227272727273,
                "end_time": 46.720454545454544,
                "pitch": 48,
                "velocity": 64,
                "duration": 0.11818181818181728,
                "tempo": 120.0
            },
            {
                "start_time": 46.73863636363636,
                "end_time": 46.85681818181818,
                "pitch": 48,
                "velocity": 64,
                "duration": 0.11818181818181728,
                "tempo": 120.0
            },
            {
                "start_time": 46.87272727272727,
                "end_time": 46.99318181818182,
                "pitch": 44,
                "velocity": 64,
                "duration": 0.12045454545454959,
                "tempo": 120.0
            },
            {
                "start_time": 47.00909090909091,
                "end_time": 47.12954545454545,
                "pitch": 44,
                "velocity": 64,
                "duration": 0.12045454545454248,
                "tempo": 120.0
            },
            {
                "start_time": 47.14545454545454,
                "end_time": 47.26363636363636,
                "pitch": 44,
                "velocity": 64,
                "duration": 0.11818181818181728,
                "tempo": 120.0
            },
            {
                "start_time": 47.27954545454545,
                "end_time": 47.39545454545454,
                "pitch": 44,
                "velocity": 64,
                "duration": 0.11590909090909207,
                "tempo": 120.0
            },
            {
                "start_time": 47.94772727272727,
                "end_time": 48.06363636363636,
                "pitch": 42,
                "velocity": 64,
                "duration": 0.11590909090909207,
                "tempo": 120.0
            },
            {
                "start_time": 48.08181818181818,
                "end_time": 48.33181818181818,
                "pitch": 42,
                "velocity": 64,
                "duration": 0.25,
                "tempo": 120.0
            },
            {
                "start_time": 48.34772727272727,
                "end_time": 48.465909090909086,
                "pitch": 49,
                "velocity": 64,
                "duration": 0.11818181818181728,
                "tempo": 120.0
            },
            {
                "start_time": 48.48181818181818,
                "end_time": 48.59772727272727,
                "pitch": 51,
                "velocity": 64,
                "duration": 0.11590909090909207,
                "tempo": 120.0
            },
            {
                "start_time": 48.61590909090909,
                "end_time": 48.73181818181818,
                "pitch": 49,
                "velocity": 64,
                "duration": 0.11590909090908497,
                "tempo": 120.0
            },
            {
                "start_time": 48.75,
                "end_time": 48.86818181818182,
                "pitch": 48,
                "velocity": 64,
                "duration": 0.11818181818181728,
                "tempo": 120.0
            },
            {
                "start_time": 48.88409090909091,
                "end_time": 49.00454545454545,
                "pitch": 48,
                "velocity": 64,
                "duration": 0.12045454545454248,
                "tempo": 120.0
            },
            {
                "start_time": 49.02045454545454,
                "end_time": 49.14090909090909,
                "pitch": 44,
                "velocity": 64,
                "duration": 0.12045454545454959,
                "tempo": 120.0
            },
            {
                "start_time": 49.15681818181818,
                "end_time": 49.275,
                "pitch": 44,
                "velocity": 64,
                "duration": 0.11818181818181728,
                "tempo": 120.0
            },
            {
                "start_time": 49.293181818181814,
                "end_time": 49.40909090909091,
                "pitch": 44,
                "velocity": 64,
                "duration": 0.11590909090909207,
                "tempo": 120.0
            },
            {
                "start_time": 49.42727272727272,
                "end_time": 49.543181818181814,
                "pitch": 44,
                "velocity": 64,
                "duration": 0.11590909090909207,
                "tempo": 120.0
            },
            {
                "start_time": 50.099999999999994,
                "end_time": 50.21818181818182,
                "pitch": 48,
                "velocity": 64,
                "duration": 0.11818181818182438,
                "tempo": 120.0
            },
            {
                "start_time": 50.236363636363635,
                "end_time": 50.48863636363636,
                "pitch": 48,
                "velocity": 64,
                "duration": 0.2522727272727252,
                "tempo": 120.0
            },
            {
                "start_time": 50.50454545454545,
                "end_time": 50.62272727272727,
                "pitch": 49,
                "velocity": 64,
                "duration": 0.11818181818181728,
                "tempo": 120.0
            },
            {
                "start_time": 50.63863636363636,
                "end_time": 50.75454545454545,
                "pitch": 51,
                "velocity": 64,
                "duration": 0.11590909090909207,
                "tempo": 120.0
            },
            {
                "start_time": 50.77272727272727,
                "end_time": 50.88863636363636,
                "pitch": 49,
                "velocity": 64,
                "duration": 0.11590909090908497,
                "tempo": 120.0
            },
            {
                "start_time": 50.90454545454545,
                "end_time": 51.02272727272727,
                "pitch": 48,
                "velocity": 64,
                "duration": 0.11818181818182438,
                "tempo": 120.0
            },
            {
                "start_time": 51.04090909090909,
                "end_time": 51.18863636363636,
                "pitch": 48,
                "velocity": 64,
                "duration": 0.14772727272727337,
                "tempo": 120.0
            },
            {
                "start_time": 51.209090909090904,
                "end_time": 51.35454545454545,
                "pitch": 44,
                "velocity": 64,
                "duration": 0.14545454545454817,
                "tempo": 120.0
            },
            {
                "start_time": 51.377272727272725,
                "end_time": 51.52272727272727,
                "pitch": 44,
                "velocity": 64,
                "duration": 0.14545454545454817,
                "tempo": 120.0
            },
            {
                "start_time": 51.543181818181814,
                "end_time": 51.85909090909091,
                "pitch": 42,
                "velocity": 64,
                "duration": 0.3159090909090949,
                "tempo": 120.0
            },
            {
                "start_time": 51.87954545454545,
                "end_time": 52.19772727272727,
                "pitch": 42,
                "velocity": 64,
                "duration": 0.3181818181818201,
                "tempo": 120.0
            },
            {
                "start_time": 52.21818181818182,
                "end_time": 52.36818181818182,
                "pitch": 49,
                "velocity": 64,
                "duration": 0.14999999999999858,
                "tempo": 120.0
            },
            {
                "start_time": 52.38863636363636,
                "end_time": 52.70681818181818,
                "pitch": 49,
                "velocity": 64,
                "duration": 0.3181818181818201,
                "tempo": 120.0
            },
            {
                "start_time": 52.72727272727273,
                "end_time": 53.04545454545454,
                "pitch": 42,
                "velocity": 64,
                "duration": 0.318181818181813,
                "tempo": 120.0
            },
            {
                "start_time": 53.06590909090909,
                "end_time": 53.38409090909091,
                "pitch": 42,
                "velocity": 64,
                "duration": 0.3181818181818201,
                "tempo": 120.0
            },
            {
                "start_time": 53.40681818181818,
                "end_time": 53.554545454545455,
                "pitch": 49,
                "velocity": 64,
                "duration": 0.14772727272727337,
                "tempo": 120.0
            },
            {
                "start_time": 53.574999999999996,
                "end_time": 53.893181818181816,
                "pitch": 49,
                "velocity": 64,
                "duration": 0.3181818181818201,
                "tempo": 120.0
            },
            {
                "start_time": 53.91590909090909,
                "end_time": 54.23409090909091,
                "pitch": 49,
                "velocity": 64,
                "duration": 0.3181818181818201,
                "tempo": 120.0
            },
            {
                "start_time": 54.25454545454545,
                "end_time": 54.57272727272727,
                "pitch": 44,
                "velocity": 64,
                "duration": 0.3181818181818201,
                "tempo": 120.0
            },
            {
                "start_time": 54.59318181818182,
                "end_time": 54.970454545454544,
                "pitch": 44,
                "velocity": 64,
                "duration": 0.3772727272727252,
                "tempo": 120.0
            },
            {
                "start_time": 54.99545454545454,
                "end_time": 55.17045454545454,
                "pitch": 51,
                "velocity": 64,
                "duration": 0.17499999999999716,
                "tempo": 120.0
            },
            {
                "start_time": 55.19772727272727,
                "end_time": 55.574999999999996,
                "pitch": 51,
                "velocity": 64,
                "duration": 0.3772727272727252,
                "tempo": 120.0
            },
            {
                "start_time": 55.599999999999994,
                "end_time": 55.97727272727273,
                "pitch": 44,
                "velocity": 64,
                "duration": 0.3772727272727323,
                "tempo": 120.0
            },
            {
                "start_time": 56.002272727272725,
                "end_time": 56.44318181818181,
                "pitch": 44,
                "velocity": 64,
                "duration": 0.4409090909090878,
                "tempo": 120.0
            },
            {
                "start_time": 56.47272727272727,
                "end_time": 56.679545454545455,
                "pitch": 51,
                "velocity": 64,
                "duration": 0.20681818181818556,
                "tempo": 120.0
            },
            {
                "start_time": 56.709090909090904,
                "end_time": 57.152272727272724,
                "pitch": 51,
                "velocity": 64,
                "duration": 0.4431818181818201,
                "tempo": 120.0
            },
            {
                "start_time": 57.18181818181818,
                "end_time": 57.62272727272727,
                "pitch": 51,
                "velocity": 64,
                "duration": 0.4409090909090878,
                "tempo": 120.0
            },
            {
                "start_time": 57.652272727272724,
                "end_time": 58.095454545454544,
                "pitch": 42,
                "velocity": 64,
                "duration": 0.4431818181818201,
                "tempo": 120.0
            },
            {
                "start_time": 58.125,
                "end_time": 58.56590909090909,
                "pitch": 42,
                "velocity": 64,
                "duration": 0.4409090909090878,
                "tempo": 120.0
            },
            {
                "start_time": 58.595454545454544,
                "end_time": 58.80227272727272,
                "pitch": 49,
                "velocity": 64,
                "duration": 0.20681818181817846,
                "tempo": 120.0
            },
            {
                "start_time": 58.83181818181818,
                "end_time": 59.275,
                "pitch": 49,
                "velocity": 64,
                "duration": 0.4431818181818201,
                "tempo": 120.0
            },
            {
                "start_time": 59.304545454545455,
                "end_time": 59.74545454545454,
                "pitch": 42,
                "velocity": 64,
                "duration": 0.4409090909090878,
                "tempo": 120.0
            },
            {
                "start_time": 59.775,
                "end_time": 60.21818181818182,
                "pitch": 42,
                "velocity": 64,
                "duration": 0.4431818181818201,
                "tempo": 120.0
            },
            {
                "start_time": 60.24772727272727,
                "end_time": 60.45454545454545,
                "pitch": 49,
                "velocity": 64,
                "duration": 0.20681818181818556,
                "tempo": 120.0
            },
            {
                "start_time": 60.48409090909091,
                "end_time": 60.925,
                "pitch": 49,
                "velocity": 64,
                "duration": 0.4409090909090878,
                "tempo": 120.0
            },
            {
                "start_time": 60.95454545454545,
                "end_time": 61.40454545454545,
                "pitch": 49,
                "velocity": 64,
                "duration": 0.44999999999999574,
                "tempo": 120.0
            },
            {
                "start_time": 61.434090909090905,
                "end_time": 61.88409090909091,
                "pitch": 44,
                "velocity": 64,
                "duration": 0.45000000000000284,
                "tempo": 120.0
            },
            {
                "start_time": 61.913636363636364,
                "end_time": 62.36363636363636,
                "pitch": 44,
                "velocity": 64,
                "duration": 0.44999999999999574,
                "tempo": 120.0
            },
            {
                "start_time": 62.393181818181816,
                "end_time": 62.60227272727273,
                "pitch": 51,
                "velocity": 64,
                "duration": 0.20909090909091077,
                "tempo": 120.0
            },
            {
                "start_time": 62.631818181818176,
                "end_time": 63.074999999999996,
                "pitch": 51,
                "velocity": 64,
                "duration": 0.4431818181818201,
                "tempo": 120.0
            },
            {
                "start_time": 63.10454545454545,
                "end_time": 63.54545454545454,
                "pitch": 44,
                "velocity": 64,
                "duration": 0.4409090909090878,
                "tempo": 120.0
            },
            {
                "start_time": 63.574999999999996,
                "end_time": 64.01818181818182,
                "pitch": 44,
                "velocity": 64,
                "duration": 0.4431818181818201,
                "tempo": 120.0
            },
            {
                "start_time": 64.04772727272727,
                "end_time": 64.25454545454545,
                "pitch": 51,
                "velocity": 64,
                "duration": 0.20681818181817846,
                "tempo": 120.0
            },
            {
                "start_time": 64.2840909090909,
                "end_time": 64.73181818181818,
                "pitch": 51,
                "velocity": 64,
                "duration": 0.44772727272727764,
                "tempo": 120.0
            },
            {
                "start_time": 64.76363636363637,
                "end_time": 65.21136363636363,
                "pitch": 51,
                "velocity": 64,
                "duration": 0.4477272727272634,
                "tempo": 120.0
            },
            {
                "start_time": 65.24090909090908,
                "end_time": 65.69090909090909,
                "pitch": 42,
                "velocity": 64,
                "duration": 0.45000000000000284,
                "tempo": 120.0
            },
            {
                "start_time": 65.72045454545454,
                "end_time": 66.16818181818182,
                "pitch": 42,
                "velocity": 64,
                "duration": 0.44772727272727764,
                "tempo": 120.0
            },
            {
                "start_time": 66.19772727272726,
                "end_time": 66.40227272727273,
                "pitch": 49,
                "velocity": 64,
                "duration": 0.20454545454546746,
                "tempo": 120.0
            },
            {
                "start_time": 66.43181818181817,
                "end_time": 66.875,
                "pitch": 49,
                "velocity": 64,
                "duration": 0.4431818181818272,
                "tempo": 120.0
            },
            {
                "start_time": 66.90454545454546,
                "end_time": 67.34772727272727,
                "pitch": 42,
                "velocity": 64,
                "duration": 0.443181818181813,
                "tempo": 120.0
            },
            {
                "start_time": 67.37727272727273,
                "end_time": 67.825,
                "pitch": 42,
                "velocity": 64,
                "duration": 0.44772727272727764,
                "tempo": 120.0
            },
            {
                "start_time": 67.85681818181818,
                "end_time": 68.07727272727273,
                "pitch": 49,
                "velocity": 64,
                "duration": 0.2204545454545439,
                "tempo": 120.0
            },
            {
                "start_time": 68.10909090909091,
                "end_time": 68.57954545454545,
                "pitch": 49,
                "velocity": 64,
                "duration": 0.4704545454545439,
                "tempo": 120.0
            },
            {
                "start_time": 68.61136363636363,
                "end_time": 69.0840909090909,
                "pitch": 49,
                "velocity": 64,
                "duration": 0.4727272727272691,
                "tempo": 120.0
            },
            {
                "start_time": 69.11590909090908,
                "end_time": 69.58636363636363,
                "pitch": 44,
                "velocity": 64,
                "duration": 0.4704545454545439,
                "tempo": 120.0
            },
            {
                "start_time": 69.61818181818181,
                "end_time": 70.09772727272727,
                "pitch": 44,
                "velocity": 64,
                "duration": 0.47954545454545894,
                "tempo": 120.0
            },
            {
                "start_time": 70.12954545454545,
                "end_time": 70.35454545454544,
                "pitch": 51,
                "velocity": 64,
                "duration": 0.22499999999999432,
                "tempo": 120.0
            },
            {
                "start_time": 70.38636363636363,
                "end_time": 70.86590909090908,
                "pitch": 51,
                "velocity": 64,
                "duration": 0.47954545454545894,
                "tempo": 120.0
            },
            {
                "start_time": 70.89772727272727,
                "end_time": 71.37727272727273,
                "pitch": 44,
                "velocity": 64,
                "duration": 0.47954545454545894,
                "tempo": 120.0
            },
            {
                "start_time": 71.4090909090909,
                "end_time": 71.85,
                "pitch": 44,
                "velocity": 64,
                "duration": 0.4409090909090878,
                "tempo": 120.0
            },
            {
                "start_time": 71.87954545454545,
                "end_time": 72.08636363636363,
                "pitch": 51,
                "velocity": 64,
                "duration": 0.20681818181817846,
                "tempo": 120.0
            },
            {
                "start_time": 72.11590909090908,
                "end_time": 72.55909090909091,
                "pitch": 51,
                "velocity": 64,
                "duration": 0.4431818181818272,
                "tempo": 120.0
            },
            {
                "start_time": 72.58863636363635,
                "end_time": 73.02954545454546,
                "pitch": 51,
                "velocity": 64,
                "duration": 0.440909090909102,
                "tempo": 120.0
            },
            {
                "start_time": 73.05909090909091,
                "end_time": 73.5090909090909,
                "pitch": 42,
                "velocity": 64,
                "duration": 0.44999999999998863,
                "tempo": 120.0
            },
            {
                "start_time": 73.53863636363636,
                "end_time": 73.98863636363636,
                "pitch": 42,
                "velocity": 64,
                "duration": 0.45000000000000284,
                "tempo": 120.0
            },
            {
                "start_time": 74.01818181818182,
                "end_time": 74.22727272727272,
                "pitch": 49,
                "velocity": 64,
                "duration": 0.20909090909090366,
                "tempo": 120.0
            },
            {
                "start_time": 74.25681818181818,
                "end_time": 74.70681818181818,
                "pitch": 49,
                "velocity": 64,
                "duration": 0.45000000000000284,
                "tempo": 120.0
            },
            {
                "start_time": 74.73636363636363,
                "end_time": 75.17954545454545,
                "pitch": 42,
                "velocity": 64,
                "duration": 0.443181818181813,
                "tempo": 120.0
            },
            {
                "start_time": 75.2090909090909,
                "end_time": 75.65227272727272,
                "pitch": 42,
                "velocity": 64,
                "duration": 0.443181818181813,
                "tempo": 120.0
            },
            {
                "start_time": 75.68181818181817,
                "end_time": 75.88636363636363,
                "pitch": 49,
                "velocity": 64,
                "duration": 0.20454545454545325,
                "tempo": 120.0
            },
            {
                "start_time": 75.91590909090908,
                "end_time": 76.35909090909091,
                "pitch": 49,
                "velocity": 64,
                "duration": 0.4431818181818272,
                "tempo": 120.0
            },
            {
                "start_time": 76.38863636363637,
                "end_time": 76.83636363636363,
                "pitch": 49,
                "velocity": 64,
                "duration": 0.4477272727272634,
                "tempo": 120.0
            },
            {
                "start_time": 76.86818181818181,
                "end_time": 77.31590909090909,
                "pitch": 44,
                "velocity": 64,
                "duration": 0.44772727272727764,
                "tempo": 120.0
            },
            {
                "start_time": 77.34772727272727,
                "end_time": 77.79545454545455,
                "pitch": 44,
                "velocity": 64,
                "duration": 0.44772727272727764,
                "tempo": 120.0
            },
            {
                "start_time": 77.825,
                "end_time": 78.03636363636363,
                "pitch": 51,
                "velocity": 64,
                "duration": 0.21136363636362887,
                "tempo": 120.0
            },
            {
                "start_time": 78.06590909090909,
                "end_time": 78.50681818181818,
                "pitch": 51,
                "velocity": 64,
                "duration": 0.4409090909090878,
                "tempo": 120.0
            },
            {
                "start_time": 78.53636363636363,
                "end_time": 78.97954545454544,
                "pitch": 44,
                "velocity": 64,
                "duration": 0.443181818181813,
                "tempo": 120.0
            },
            {
                "start_time": 79.0090909090909,
                "end_time": 79.45227272727273,
                "pitch": 44,
                "velocity": 64,
                "duration": 0.4431818181818272,
                "tempo": 120.0
            },
            {
                "start_time": 79.48181818181818,
                "end_time": 79.65681818181818,
                "pitch": 51,
                "velocity": 64,
                "duration": 0.17499999999999716,
                "tempo": 120.0
            },
            {
                "start_time": 79.68409090909091,
                "end_time": 80.06136363636364,
                "pitch": 51,
                "velocity": 64,
                "duration": 0.3772727272727252,
                "tempo": 120.0
            },
            {
                "start_time": 80.08636363636363,
                "end_time": 80.46363636363635,
                "pitch": 51,
                "velocity": 64,
                "duration": 0.3772727272727252,
                "tempo": 120.0
            },
            {
                "start_time": 80.48636363636363,
                "end_time": 80.6340909090909,
                "pitch": 42,
                "velocity": 64,
                "duration": 0.14772727272726627,
                "tempo": 120.0
            },
            {
                "start_time": 80.65454545454546,
                "end_time": 80.80227272727272,
                "pitch": 42,
                "velocity": 64,
                "duration": 0.14772727272726627,
                "tempo": 120.0
            }
        ],
        "French Horn": [
            {
                "start_time": 0.0,
                "end_time": 0.024999999999999998,
                "pitch": 73,
                "velocity": 51,
                "duration": 0.024999999999999998,
                "tempo": 120.0
            },
            {
                "start_time": 0.049999999999999996,
                "end_time": 0.22727272727272727,
                "pitch": 66,
                "velocity": 51,
                "duration": 0.17727272727272728,
                "tempo": 120.0
            },
            {
                "start_time": 0.25227272727272726,
                "end_time": 0.37727272727272726,
                "pitch": 72,
                "velocity": 51,
                "duration": 0.125,
                "tempo": 120.0
            },
            {
                "start_time": 0.37727272727272726,
                "end_time": 0.4431818181818182,
                "pitch": 72,
                "velocity": 51,
                "duration": 0.06590909090909092,
                "tempo": 120.0
            },
            {
                "start_time": 0.47727272727272724,
                "end_time": 0.5772727272727273,
                "pitch": 73,
                "velocity": 51,
                "duration": 0.10000000000000003,
                "tempo": 120.0
            },
            {
                "start_time": 0.6113636363636363,
                "end_time": 0.8454545454545455,
                "pitch": 73,
                "velocity": 51,
                "duration": 0.23409090909090913,
                "tempo": 120.0
            },
            {
                "start_time": 0.8772727272727272,
                "end_time": 1.1113636363636363,
                "pitch": 73,
                "velocity": 51,
                "duration": 0.23409090909090913,
                "tempo": 120.0
            },
            {
                "start_time": 1.1454545454545455,
                "end_time": 1.3795454545454544,
                "pitch": 72,
                "velocity": 51,
                "duration": 0.2340909090909089,
                "tempo": 120.0
            },
            {
                "start_time": 1.4136363636363636,
                "end_time": 1.5136363636363637,
                "pitch": 73,
                "velocity": 51,
                "duration": 0.10000000000000009,
                "tempo": 120.0
            },
            {
                "start_time": 1.5477272727272726,
                "end_time": 1.7863636363636364,
                "pitch": 75,
                "velocity": 51,
                "duration": 0.23863636363636376,
                "tempo": 120.0
            },
            {
                "start_time": 1.8204545454545453,
                "end_time": 2.0568181818181817,
                "pitch": 73,
                "velocity": 51,
                "duration": 0.23636363636363633,
                "tempo": 120.0
            },
            {
                "start_time": 2.090909090909091,
                "end_time": 2.4568181818181816,
                "pitch": 72,
                "velocity": 51,
                "duration": 0.36590909090909074,
                "tempo": 120.0
            },
            {
                "start_time": 2.4909090909090907,
                "end_time": 3.393181818181818,
                "pitch": 68,
                "velocity": 51,
                "duration": 0.9022727272727273,
                "tempo": 120.0
            },
            {
                "start_time": 3.425,
                "end_time": 3.661363636363636,
                "pitch": 66,
                "velocity": 51,
                "duration": 0.23636363636363633,
                "tempo": 120.0
            },
            {
                "start_time": 3.6954545454545453,
                "end_time": 3.7977272727272724,
                "pitch": 66,
                "velocity": 51,
                "duration": 0.10227272727272707,
                "tempo": 120.0
            },
            {
                "start_time": 3.8318181818181816,
                "end_time": 4.204545454545454,
                "pitch": 68,
                "velocity": 51,
                "duration": 0.3727272727272726,
                "tempo": 120.0
            },
            {
                "start_time": 4.236363636363636,
                "end_time": 4.470454545454546,
                "pitch": 66,
                "velocity": 51,
                "duration": 0.23409090909090935,
                "tempo": 120.0
            },
            {
                "start_time": 4.504545454545454,
                "end_time": 4.738636363636363,
                "pitch": 72,
                "velocity": 51,
                "duration": 0.23409090909090935,
                "tempo": 120.0
            },
            {
                "start_time": 4.7727272727272725,
                "end_time": 4.875,
                "pitch": 73,
                "velocity": 51,
                "duration": 0.10227272727272751,
                "tempo": 120.0
            },
            {
                "start_time": 4.909090909090909,
                "end_time": 5.1477272727272725,
                "pitch": 73,
                "velocity": 51,
                "duration": 0.2386363636363633,
                "tempo": 120.0
            },
            {
                "start_time": 5.181818181818182,
                "end_time": 5.415909090909091,
                "pitch": 73,
                "velocity": 51,
                "duration": 0.23409090909090935,
                "tempo": 120.0
            },
            {
                "start_time": 5.45,
                "end_time": 5.684090909090909,
                "pitch": 72,
                "velocity": 51,
                "duration": 0.23409090909090846,
                "tempo": 120.0
            },
            {
                "start_time": 5.715909090909091,
                "end_time": 5.818181818181818,
                "pitch": 73,
                "velocity": 51,
                "duration": 0.10227272727272751,
                "tempo": 120.0
            },
            {
                "start_time": 5.852272727272727,
                "end_time": 6.088636363636363,
                "pitch": 75,
                "velocity": 51,
                "duration": 0.23636363636363633,
                "tempo": 120.0
            },
            {
                "start_time": 6.122727272727272,
                "end_time": 6.361363636363636,
                "pitch": 73,
                "velocity": 51,
                "duration": 0.2386363636363642,
                "tempo": 120.0
            },
            {
                "start_time": 6.393181818181818,
                "end_time": 6.761363636363636,
                "pitch": 72,
                "velocity": 51,
                "duration": 0.36818181818181817,
                "tempo": 120.0
            },
            {
                "start_time": 6.795454545454545,
                "end_time": 7.695454545454545,
                "pitch": 68,
                "velocity": 51,
                "duration": 0.9000000000000004,
                "tempo": 120.0
            },
            {
                "start_time": 7.7295454545454545,
                "end_time": 7.965909090909091,
                "pitch": 66,
                "velocity": 51,
                "duration": 0.23636363636363633,
                "tempo": 120.0
            },
            {
                "start_time": 7.997727272727272,
                "end_time": 8.1,
                "pitch": 66,
                "velocity": 51,
                "duration": 0.10227272727272751,
                "tempo": 120.0
            },
            {
                "start_time": 8.134090909090908,
                "end_time": 8.506818181818181,
                "pitch": 68,
                "velocity": 51,
                "duration": 0.372727272727273,
                "tempo": 120.0
            },
            {
                "start_time": 8.540909090909091,
                "end_time": 8.775,
                "pitch": 75,
                "velocity": 51,
                "duration": 0.23409090909090935,
                "tempo": 120.0
            },
            {
                "start_time": 8.809090909090909,
                "end_time": 9.043181818181818,
                "pitch": 80,
                "velocity": 51,
                "duration": 0.23409090909090935,
                "tempo": 120.0
            },
            {
                "start_time": 9.077272727272726,
                "end_time": 9.31590909090909,
                "pitch": 75,
                "velocity": 51,
                "duration": 0.2386363636363633,
                "tempo": 120.0
            },
            {
                "start_time": 9.35,
                "end_time": 9.847727272727273,
                "pitch": 73,
                "velocity": 51,
                "duration": 0.497727272727273,
                "tempo": 120.0
            },
            {
                "start_time": 9.879545454545454,
                "end_time": 10.384090909090908,
                "pitch": 72,
                "velocity": 51,
                "duration": 0.504545454545454,
                "tempo": 120.0
            },
            {
                "start_time": 10.418181818181818,
                "end_time": 10.654545454545454,
                "pitch": 66,
                "velocity": 51,
                "duration": 0.23636363636363633,
                "tempo": 120.0
            },
            {
                "start_time": 10.688636363636363,
                "end_time": 11.19090909090909,
                "pitch": 68,
                "velocity": 51,
                "duration": 0.502272727272727,
                "tempo": 120.0
            },
            {
                "start_time": 11.225,
                "end_time": 11.73409090909091,
                "pitch": 72,
                "velocity": 51,
                "duration": 0.5090909090909097,
                "tempo": 120.0
            },
            {
                "start_time": 11.76590909090909,
                "end_time": 12.268181818181818,
                "pitch": 73,
                "velocity": 51,
                "duration": 0.502272727272727,
                "tempo": 120.0
            },
            {
                "start_time": 12.299999999999999,
                "end_time": 12.802272727272726,
                "pitch": 75,
                "velocity": 51,
                "duration": 0.502272727272727,
                "tempo": 120.0
            },
            {
                "start_time": 12.836363636363636,
                "end_time": 13.075,
                "pitch": 75,
                "velocity": 51,
                "duration": 0.2386363636363633,
                "tempo": 120.0
            },
            {
                "start_time": 13.109090909090908,
                "end_time": 13.345454545454546,
                "pitch": 80,
                "velocity": 51,
                "duration": 0.2363636363636381,
                "tempo": 120.0
            },
            {
                "start_time": 13.379545454545454,
                "end_time": 13.613636363636363,
                "pitch": 75,
                "velocity": 51,
                "duration": 0.23409090909090935,
                "tempo": 120.0
            },
            {
                "start_time": 13.645454545454545,
                "end_time": 14.147727272727272,
                "pitch": 73,
                "velocity": 51,
                "duration": 0.502272727272727,
                "tempo": 120.0
            },
            {
                "start_time": 14.181818181818182,
                "end_time": 14.688636363636363,
                "pitch": 72,
                "velocity": 51,
                "duration": 0.506818181818181,
                "tempo": 120.0
            },
            {
                "start_time": 14.722727272727273,
                "end_time": 14.959090909090909,
                "pitch": 66,
                "velocity": 51,
                "duration": 0.23636363636363633,
                "tempo": 120.0
            },
            {
                "start_time": 14.99090909090909,
                "end_time": 15.493181818181817,
                "pitch": 68,
                "velocity": 51,
                "duration": 0.502272727272727,
                "tempo": 120.0
            },
            {
                "start_time": 15.527272727272727,
                "end_time": 16.027272727272727,
                "pitch": 72,
                "velocity": 51,
                "duration": 0.5,
                "tempo": 120.0
            },
            {
                "start_time": 16.061363636363634,
                "end_time": 16.563636363636363,
                "pitch": 73,
                "velocity": 51,
                "duration": 0.5022727272727288,
                "tempo": 120.0
            },
            {
                "start_time": 16.597727272727273,
                "end_time": 17.104545454545455,
                "pitch": 75,
                "velocity": 51,
                "duration": 0.5068181818181827,
                "tempo": 120.0
            },
            {
                "start_time": 17.138636363636362,
                "end_time": 17.506818181818183,
                "pitch": 75,
                "velocity": 51,
                "duration": 0.36818181818182083,
                "tempo": 120.0
            },
            {
                "start_time": 17.538636363636364,
                "end_time": 17.777272727272727,
                "pitch": 75,
                "velocity": 51,
                "duration": 0.2386363636363633,
                "tempo": 120.0
            },
            {
                "start_time": 17.811363636363634,
                "end_time": 17.913636363636364,
                "pitch": 75,
                "velocity": 51,
                "duration": 0.10227272727273018,
                "tempo": 120.0
            },
            {
                "start_time": 17.94772727272727,
                "end_time": 18.05,
                "pitch": 75,
                "velocity": 51,
                "duration": 0.10227272727273018,
                "tempo": 120.0
            },
            {
                "start_time": 18.084090909090907,
                "end_time": 18.18409090909091,
                "pitch": 75,
                "velocity": 51,
                "duration": 0.10000000000000142,
                "tempo": 120.0
            },
            {
                "start_time": 18.21818181818182,
                "end_time": 19.254545454545454,
                "pitch": 75,
                "velocity": 51,
                "duration": 1.0363636363636353,
                "tempo": 120.0
            },
            {
                "start_time": 19.288636363636364,
                "end_time": 19.661363636363635,
                "pitch": 73,
                "velocity": 51,
                "duration": 0.37272727272727124,
                "tempo": 120.0
            },
            {
                "start_time": 19.695454545454545,
                "end_time": 19.929545454545455,
                "pitch": 73,
                "velocity": 51,
                "duration": 0.23409090909090935,
                "tempo": 120.0
            },
            {
                "start_time": 19.96363636363636,
                "end_time": 20.063636363636363,
                "pitch": 73,
                "velocity": 51,
                "duration": 0.10000000000000142,
                "tempo": 120.0
            },
            {
                "start_time": 20.097727272727273,
                "end_time": 20.19772727272727,
                "pitch": 73,
                "velocity": 51,
                "duration": 0.09999999999999787,
                "tempo": 120.0
            },
            {
                "start_time": 20.23181818181818,
                "end_time": 20.331818181818182,
                "pitch": 73,
                "velocity": 51,
                "duration": 0.10000000000000142,
                "tempo": 120.0
            },
            {
                "start_time": 20.363636363636363,
                "end_time": 21.409090909090907,
                "pitch": 73,
                "velocity": 51,
                "duration": 1.0454545454545432,
                "tempo": 120.0
            },
            {
                "start_time": 21.443181818181817,
                "end_time": 21.80909090909091,
                "pitch": 73,
                "velocity": 51,
                "duration": 0.36590909090909207,
                "tempo": 120.0
            },
            {
                "start_time": 21.84318181818182,
                "end_time": 22.077272727272724,
                "pitch": 73,
                "velocity": 51,
                "duration": 0.2340909090909058,
                "tempo": 120.0
            },
            {
                "start_time": 22.111363636363635,
                "end_time": 22.211363636363636,
                "pitch": 73,
                "velocity": 51,
                "duration": 0.10000000000000142,
                "tempo": 120.0
            },
            {
                "start_time": 22.243181818181817,
                "end_time": 22.345454545454544,
                "pitch": 73,
                "velocity": 51,
                "duration": 0.10227272727272663,
                "tempo": 120.0
            },
            {
                "start_time": 22.377272727272725,
                "end_time": 22.477272727272727,
                "pitch": 73,
                "velocity": 51,
                "duration": 0.10000000000000142,
                "tempo": 120.0
            },
            {
                "start_time": 22.511363636363637,
                "end_time": 23.55681818181818,
                "pitch": 73,
                "velocity": 51,
                "duration": 1.0454545454545432,
                "tempo": 120.0
            },
            {
                "start_time": 23.59090909090909,
                "end_time": 23.956818181818182,
                "pitch": 76,
                "velocity": 51,
                "duration": 0.36590909090909207,
                "tempo": 120.0
            },
            {
                "start_time": 23.99090909090909,
                "end_time": 24.227272727272727,
                "pitch": 76,
                "velocity": 51,
                "duration": 0.2363636363636381,
                "tempo": 120.0
            },
            {
                "start_time": 24.261363636363637,
                "end_time": 24.363636363636363,
                "pitch": 76,
                "velocity": 51,
                "duration": 0.10227272727272663,
                "tempo": 120.0
            },
            {
                "start_time": 24.39772727272727,
                "end_time": 24.5,
                "pitch": 76,
                "velocity": 51,
                "duration": 0.10227272727273018,
                "tempo": 120.0
            },
            {
                "start_time": 24.534090909090907,
                "end_time": 24.634090909090908,
                "pitch": 76,
                "velocity": 51,
                "duration": 0.10000000000000142,
                "tempo": 120.0
            },
            {
                "start_time": 24.668181818181818,
                "end_time": 25.168181818181818,
                "pitch": 76,
                "velocity": 51,
                "duration": 0.5,
                "tempo": 120.0
            },
            {
                "start_time": 25.202272727272724,
                "end_time": 25.704545454545453,
                "pitch": 77,
                "velocity": 51,
                "duration": 0.5022727272727288,
                "tempo": 120.0
            },
            {
                "start_time": 25.738636363636363,
                "end_time": 26.113636363636363,
                "pitch": 75,
                "velocity": 51,
                "duration": 0.375,
                "tempo": 120.0
            },
            {
                "start_time": 26.14772727272727,
                "end_time": 26.38181818181818,
                "pitch": 75,
                "velocity": 51,
                "duration": 0.23409090909090935,
                "tempo": 120.0
            },
            {
                "start_time": 26.413636363636364,
                "end_time": 26.513636363636362,
                "pitch": 75,
                "velocity": 51,
                "duration": 0.09999999999999787,
                "tempo": 120.0
            },
            {
                "start_time": 26.547727272727272,
                "end_time": 26.64772727272727,
                "pitch": 75,
                "velocity": 51,
                "duration": 0.09999999999999787,
                "tempo": 120.0
            },
            {
                "start_time": 26.68181818181818,
                "end_time": 26.78181818181818,
                "pitch": 75,
                "velocity": 51,
                "duration": 0.10000000000000142,
                "tempo": 120.0
            },
            {
                "start_time": 26.81590909090909,
                "end_time": 27.85909090909091,
                "pitch": 75,
                "velocity": 51,
                "duration": 1.043181818181818,
                "tempo": 120.0
            },
            {
                "start_time": 27.893181818181816,
                "end_time": 28.261363636363637,
                "pitch": 73,
                "velocity": 51,
                "duration": 0.36818181818182083,
                "tempo": 120.0
            },
            {
                "start_time": 28.295454545454543,
                "end_time": 28.53181818181818,
                "pitch": 73,
                "velocity": 51,
                "duration": 0.2363636363636381,
                "tempo": 120.0
            },
            {
                "start_time": 28.565909090909088,
                "end_time": 28.668181818181818,
                "pitch": 73,
                "velocity": 51,
                "duration": 0.10227272727273018,
                "tempo": 120.0
            },
            {
                "start_time": 28.702272727272724,
                "end_time": 28.804545454545455,
                "pitch": 73,
                "velocity": 51,
                "duration": 0.10227272727273018,
                "tempo": 120.0
            },
            {
                "start_time": 28.83863636363636,
                "end_time": 28.938636363636363,
                "pitch": 73,
                "velocity": 51,
                "duration": 0.10000000000000142,
                "tempo": 120.0
            },
            {
                "start_time": 28.972727272727273,
                "end_time": 30.00681818181818,
                "pitch": 73,
                "velocity": 51,
                "duration": 1.0340909090909065,
                "tempo": 120.0
            },
            {
                "start_time": 30.04090909090909,
                "end_time": 30.409090909090907,
                "pitch": 73,
                "velocity": 51,
                "duration": 0.3681818181818173,
                "tempo": 120.0
            },
            {
                "start_time": 30.440909090909088,
                "end_time": 30.679545454545455,
                "pitch": 73,
                "velocity": 51,
                "duration": 0.23863636363636687,
                "tempo": 120.0
            },
            {
                "start_time": 30.71363636363636,
                "end_time": 30.813636363636363,
                "pitch": 73,
                "velocity": 51,
                "duration": 0.10000000000000142,
                "tempo": 120.0
            },
            {
                "start_time": 30.847727272727273,
                "end_time": 30.95,
                "pitch": 73,
                "velocity": 51,
                "duration": 0.10227272727272663,
                "tempo": 120.0
            },
            {
                "start_time": 30.98409090909091,
                "end_time": 31.086363636363636,
                "pitch": 73,
                "velocity": 51,
                "duration": 0.10227272727272663,
                "tempo": 120.0
            },
            {
                "start_time": 31.118181818181817,
                "end_time": 32.154545454545456,
                "pitch": 73,
                "velocity": 51,
                "duration": 1.0363636363636388,
                "tempo": 120.0
            },
            {
                "start_time": 32.18863636363636,
                "end_time": 32.56363636363636,
                "pitch": 76,
                "velocity": 51,
                "duration": 0.375,
                "tempo": 120.0
            },
            {
                "start_time": 32.59772727272727,
                "end_time": 32.83181818181818,
                "pitch": 76,
                "velocity": 51,
                "duration": 0.23409090909090935,
                "tempo": 120.0
            },
            {
                "start_time": 32.86590909090909,
                "end_time": 32.965909090909086,
                "pitch": 76,
                "velocity": 51,
                "duration": 0.09999999999999432,
                "tempo": 120.0
            },
            {
                "start_time": 32.99772727272727,
                "end_time": 33.1,
                "pitch": 76,
                "velocity": 51,
                "duration": 0.10227272727273373,
                "tempo": 120.0
            },
            {
                "start_time": 33.13181818181818,
                "end_time": 33.23181818181818,
                "pitch": 76,
                "velocity": 51,
                "duration": 0.09999999999999432,
                "tempo": 120.0
            },
            {
                "start_time": 33.26590909090909,
                "end_time": 33.768181818181816,
                "pitch": 76,
                "velocity": 51,
                "duration": 0.5022727272727252,
                "tempo": 120.0
            },
            {
                "start_time": 33.80227272727272,
                "end_time": 34.31136363636364,
                "pitch": 77,
                "velocity": 51,
                "duration": 0.509090909090915,
                "tempo": 120.0
            },
            {
                "start_time": 34.345454545454544,
                "end_time": 34.57727272727273,
                "pitch": 66,
                "velocity": 51,
                "duration": 0.23181818181818414,
                "tempo": 120.0
            },
            {
                "start_time": 34.611363636363635,
                "end_time": 34.845454545454544,
                "pitch": 72,
                "velocity": 51,
                "duration": 0.23409090909090935,
                "tempo": 120.0
            },
            {
                "start_time": 34.87954545454545,
                "end_time": 34.97954545454545,
                "pitch": 73,
                "velocity": 51,
                "duration": 0.10000000000000142,
                "tempo": 120.0
            },
            {
                "start_time": 35.01136363636363,
                "end_time": 35.24545454545454,
                "pitch": 73,
                "velocity": 51,
                "duration": 0.23409090909090935,
                "tempo": 120.0
            },
            {
                "start_time": 35.279545454545456,
                "end_time": 35.51590909090909,
                "pitch": 73,
                "velocity": 51,
                "duration": 0.23636363636363455,
                "tempo": 120.0
            },
            {
                "start_time": 35.55,
                "end_time": 35.788636363636364,
                "pitch": 72,
                "velocity": 51,
                "duration": 0.23863636363636687,
                "tempo": 120.0
            },
            {
                "start_time": 35.82272727272727,
                "end_time": 35.92272727272727,
                "pitch": 73,
                "velocity": 51,
                "duration": 0.10000000000000142,
                "tempo": 120.0
            },
            {
                "start_time": 35.95681818181818,
                "end_time": 36.19090909090909,
                "pitch": 75,
                "velocity": 51,
                "duration": 0.23409090909090935,
                "tempo": 120.0
            },
            {
                "start_time": 36.225,
                "end_time": 36.45909090909091,
                "pitch": 73,
                "velocity": 51,
                "duration": 0.23409090909090935,
                "tempo": 120.0
            },
            {
                "start_time": 36.49090909090909,
                "end_time": 36.85909090909091,
                "pitch": 72,
                "velocity": 51,
                "duration": 0.3681818181818173,
                "tempo": 120.0
            },
            {
                "start_time": 36.893181818181816,
                "end_time": 37.804545454545455,
                "pitch": 68,
                "velocity": 51,
                "duration": 0.9113636363636388,
                "tempo": 120.0
            },
            {
                "start_time": 37.836363636363636,
                "end_time": 38.07272727272727,
                "pitch": 66,
                "velocity": 51,
                "duration": 0.23636363636363455,
                "tempo": 120.0
            },
            {
                "start_time": 38.10681818181818,
                "end_time": 38.20681818181818,
                "pitch": 66,
                "velocity": 51,
                "duration": 0.10000000000000142,
                "tempo": 120.0
            },
            {
                "start_time": 38.24090909090909,
                "end_time": 38.61363636363636,
                "pitch": 68,
                "velocity": 51,
                "duration": 0.3727272727272677,
                "tempo": 120.0
            },
            {
                "start_time": 38.64545454545454,
                "end_time": 38.875,
                "pitch": 66,
                "velocity": 51,
                "duration": 0.22954545454545894,
                "tempo": 120.0
            },
            {
                "start_time": 38.90909090909091,
                "end_time": 39.14090909090909,
                "pitch": 72,
                "velocity": 51,
                "duration": 0.23181818181818414,
                "tempo": 120.0
            },
            {
                "start_time": 39.175,
                "end_time": 39.277272727272724,
                "pitch": 73,
                "velocity": 51,
                "duration": 0.10227272727272663,
                "tempo": 120.0
            },
            {
                "start_time": 39.31136363636364,
                "end_time": 39.54772727272727,
                "pitch": 73,
                "velocity": 51,
                "duration": 0.23636363636363455,
                "tempo": 120.0
            },
            {
                "start_time": 39.58181818181818,
                "end_time": 39.81818181818181,
                "pitch": 73,
                "velocity": 51,
                "duration": 0.23636363636363455,
                "tempo": 120.0
            },
            {
                "start_time": 39.85,
                "end_time": 40.084090909090904,
                "pitch": 72,
                "velocity": 51,
                "duration": 0.23409090909090224,
                "tempo": 120.0
            },
            {
                "start_time": 40.11818181818182,
                "end_time": 40.21818181818182,
                "pitch": 73,
                "velocity": 51,
                "duration": 0.10000000000000142,
                "tempo": 120.0
            },
            {
                "start_time": 40.252272727272725,
                "end_time": 40.49090909090909,
                "pitch": 75,
                "velocity": 51,
                "duration": 0.23863636363636687,
                "tempo": 120.0
            },
            {
                "start_time": 40.525,
                "end_time": 40.76136363636363,
                "pitch": 73,
                "velocity": 51,
                "duration": 0.23636363636363455,
                "tempo": 120.0
            },
            {
                "start_time": 40.79545454545455,
                "end_time": 41.163636363636364,
                "pitch": 72,
                "velocity": 51,
                "duration": 0.3681818181818173,
                "tempo": 120.0
            },
            {
                "start_time": 41.195454545454545,
                "end_time": 42.10454545454545,
                "pitch": 68,
                "velocity": 51,
                "duration": 0.9090909090909065,
                "tempo": 120.0
            },
            {
                "start_time": 42.13863636363636,
                "end_time": 42.375,
                "pitch": 66,
                "velocity": 51,
                "duration": 0.23636363636364166,
                "tempo": 120.0
            },
            {
                "start_time": 42.40681818181818,
                "end_time": 42.50909090909091,
                "pitch": 66,
                "velocity": 51,
                "duration": 0.10227272727272663,
                "tempo": 120.0
            },
            {
                "start_time": 42.54090909090909,
                "end_time": 42.90909090909091,
                "pitch": 68,
                "velocity": 51,
                "duration": 0.3681818181818173,
                "tempo": 120.0
            },
            {
                "start_time": 42.94318181818181,
                "end_time": 43.175,
                "pitch": 75,
                "velocity": 51,
                "duration": 0.23181818181818414,
                "tempo": 120.0
            },
            {
                "start_time": 43.209090909090904,
                "end_time": 43.445454545454545,
                "pitch": 80,
                "velocity": 51,
                "duration": 0.23636363636364166,
                "tempo": 120.0
            },
            {
                "start_time": 43.47954545454545,
                "end_time": 43.715909090909086,
                "pitch": 75,
                "velocity": 51,
                "duration": 0.23636363636363455,
                "tempo": 120.0
            },
            {
                "start_time": 43.75,
                "end_time": 44.25454545454545,
                "pitch": 73,
                "velocity": 51,
                "duration": 0.5045454545454504,
                "tempo": 120.0
            },
            {
                "start_time": 44.288636363636364,
                "end_time": 44.788636363636364,
                "pitch": 72,
                "velocity": 51,
                "duration": 0.5,
                "tempo": 120.0
            },
            {
                "start_time": 44.82272727272727,
                "end_time": 45.05681818181818,
                "pitch": 66,
                "velocity": 51,
                "duration": 0.23409090909090935,
                "tempo": 120.0
            },
            {
                "start_time": 45.090909090909086,
                "end_time": 45.599999999999994,
                "pitch": 68,
                "velocity": 51,
                "duration": 0.5090909090909079,
                "tempo": 120.0
            },
            {
                "start_time": 45.63409090909091,
                "end_time": 46.13409090909091,
                "pitch": 72,
                "velocity": 51,
                "duration": 0.5,
                "tempo": 120.0
            },
            {
                "start_time": 46.168181818181814,
                "end_time": 46.67045454545454,
                "pitch": 73,
                "velocity": 51,
                "duration": 0.5022727272727252,
                "tempo": 120.0
            },
            {
                "start_time": 46.70454545454545,
                "end_time": 47.21363636363636,
                "pitch": 75,
                "velocity": 51,
                "duration": 0.5090909090909079,
                "tempo": 120.0
            },
            {
                "start_time": 47.24545454545454,
                "end_time": 47.47954545454545,
                "pitch": 75,
                "velocity": 51,
                "duration": 0.23409090909090935,
                "tempo": 120.0
            },
            {
                "start_time": 47.51363636363636,
                "end_time": 47.74772727272727,
                "pitch": 80,
                "velocity": 51,
                "duration": 0.23409090909090935,
                "tempo": 120.0
            },
            {
                "start_time": 47.77954545454545,
                "end_time": 48.01363636363636,
                "pitch": 75,
                "velocity": 51,
                "duration": 0.23409090909090935,
                "tempo": 120.0
            },
            {
                "start_time": 48.04772727272727,
                "end_time": 48.54772727272727,
                "pitch": 73,
                "velocity": 51,
                "duration": 0.5,
                "tempo": 120.0
            },
            {
                "start_time": 48.58181818181818,
                "end_time": 49.08863636363636,
                "pitch": 72,
                "velocity": 51,
                "duration": 0.5068181818181827,
                "tempo": 120.0
            },
            {
                "start_time": 49.12272727272727,
                "end_time": 49.35909090909091,
                "pitch": 66,
                "velocity": 51,
                "duration": 0.23636363636364166,
                "tempo": 120.0
            },
            {
                "start_time": 49.393181818181816,
                "end_time": 49.89545454545454,
                "pitch": 68,
                "velocity": 51,
                "duration": 0.5022727272727252,
                "tempo": 120.0
            },
            {
                "start_time": 49.929545454545455,
                "end_time": 50.43863636363636,
                "pitch": 72,
                "velocity": 51,
                "duration": 0.5090909090909079,
                "tempo": 120.0
            },
            {
                "start_time": 50.470454545454544,
                "end_time": 50.97272727272727,
                "pitch": 73,
                "velocity": 51,
                "duration": 0.5022727272727252,
                "tempo": 120.0
            },
            {
                "start_time": 51.00681818181818,
                "end_time": 51.627272727272725,
                "pitch": 75,
                "velocity": 51,
                "duration": 0.6204545454545425,
                "tempo": 120.0
            },
            {
                "start_time": 51.67045454545454,
                "end_time": 51.96363636363636,
                "pitch": 88,
                "velocity": 51,
                "duration": 0.29318181818182154,
                "tempo": 120.0
            },
            {
                "start_time": 52.00681818181818,
                "end_time": 52.13409090909091,
                "pitch": 87,
                "velocity": 51,
                "duration": 0.1272727272727252,
                "tempo": 120.0
            },
            {
                "start_time": 52.17727272727272,
                "end_time": 52.304545454545455,
                "pitch": 85,
                "velocity": 51,
                "duration": 0.1272727272727323,
                "tempo": 120.0
            },
            {
                "start_time": 52.345454545454544,
                "end_time": 53.66136363636363,
                "pitch": 79,
                "velocity": 51,
                "duration": 1.3159090909090878,
                "tempo": 120.0
            },
            {
                "start_time": 53.70227272727273,
                "end_time": 53.82954545454545,
                "pitch": 76,
                "velocity": 51,
                "duration": 0.1272727272727252,
                "tempo": 120.0
            },
            {
                "start_time": 53.87272727272727,
                "end_time": 54.17045454545454,
                "pitch": 80,
                "velocity": 51,
                "duration": 0.29772727272727195,
                "tempo": 120.0
            },
            {
                "start_time": 54.211363636363636,
                "end_time": 56.12045454545454,
                "pitch": 82,
                "velocity": 51,
                "duration": 1.9090909090909065,
                "tempo": 120.0
            },
            {
                "start_time": 56.179545454545455,
                "end_time": 56.590909090909086,
                "pitch": 85,
                "velocity": 51,
                "duration": 0.4113636363636317,
                "tempo": 120.0
            },
            {
                "start_time": 56.65,
                "end_time": 56.82727272727273,
                "pitch": 82,
                "velocity": 51,
                "duration": 0.17727272727272947,
                "tempo": 120.0
            },
            {
                "start_time": 56.88636363636363,
                "end_time": 57.06363636363636,
                "pitch": 85,
                "velocity": 51,
                "duration": 0.17727272727272947,
                "tempo": 120.0
            },
            {
                "start_time": 57.12272727272727,
                "end_time": 57.3,
                "pitch": 85,
                "velocity": 51,
                "duration": 0.17727272727272947,
                "tempo": 120.0
            },
            {
                "start_time": 57.35909090909091,
                "end_time": 57.77045454545454,
                "pitch": 82,
                "velocity": 51,
                "duration": 0.4113636363636317,
                "tempo": 120.0
            },
            {
                "start_time": 57.82954545454545,
                "end_time": 58.24318181818182,
                "pitch": 88,
                "velocity": 51,
                "duration": 0.413636363636364,
                "tempo": 120.0
            },
            {
                "start_time": 58.30227272727272,
                "end_time": 58.47954545454545,
                "pitch": 87,
                "velocity": 51,
                "duration": 0.17727272727272947,
                "tempo": 120.0
            },
            {
                "start_time": 58.53636363636363,
                "end_time": 58.71363636363636,
                "pitch": 85,
                "velocity": 51,
                "duration": 0.17727272727272947,
                "tempo": 120.0
            },
            {
                "start_time": 58.77272727272727,
                "end_time": 60.60227272727273,
                "pitch": 79,
                "velocity": 51,
                "duration": 1.8295454545454533,
                "tempo": 120.0
            },
            {
                "start_time": 60.66136363636363,
                "end_time": 60.836363636363636,
                "pitch": 76,
                "velocity": 51,
                "duration": 0.17500000000000426,
                "tempo": 120.0
            },
            {
                "start_time": 60.89545454545454,
                "end_time": 61.31363636363636,
                "pitch": 80,
                "velocity": 51,
                "duration": 0.41818181818182154,
                "tempo": 120.0
            },
            {
                "start_time": 61.375,
                "end_time": 63.69318181818181,
                "pitch": 82,
                "velocity": 51,
                "duration": 2.318181818181813,
                "tempo": 120.0
            },
            {
                "start_time": 63.752272727272725,
                "end_time": 64.16590909090908,
                "pitch": 85,
                "velocity": 51,
                "duration": 0.4136363636363569,
                "tempo": 120.0
            },
            {
                "start_time": 64.225,
                "end_time": 64.40227272727273,
                "pitch": 82,
                "velocity": 51,
                "duration": 0.17727272727273657,
                "tempo": 120.0
            },
            {
                "start_time": 64.46363636363635,
                "end_time": 64.64318181818182,
                "pitch": 85,
                "velocity": 51,
                "duration": 0.17954545454546178,
                "tempo": 120.0
            },
            {
                "start_time": 64.70227272727273,
                "end_time": 64.88181818181818,
                "pitch": 85,
                "velocity": 51,
                "duration": 0.17954545454544757,
                "tempo": 120.0
            },
            {
                "start_time": 64.94318181818181,
                "end_time": 65.36136363636363,
                "pitch": 82,
                "velocity": 51,
                "duration": 0.41818181818182154,
                "tempo": 120.0
            },
            {
                "start_time": 65.42272727272727,
                "end_time": 65.8409090909091,
                "pitch": 88,
                "velocity": 51,
                "duration": 0.41818181818182154,
                "tempo": 120.0
            },
            {
                "start_time": 65.89999999999999,
                "end_time": 66.07954545454545,
                "pitch": 87,
                "velocity": 51,
                "duration": 0.17954545454546178,
                "tempo": 120.0
            },
            {
                "start_time": 66.13863636363637,
                "end_time": 66.31363636363636,
                "pitch": 85,
                "velocity": 51,
                "duration": 0.17499999999999716,
                "tempo": 120.0
            },
            {
                "start_time": 66.37272727272727,
                "end_time": 68.23409090909091,
                "pitch": 79,
                "velocity": 51,
                "duration": 1.8613636363636346,
                "tempo": 120.0
            },
            {
                "start_time": 68.29772727272727,
                "end_time": 68.48636363636363,
                "pitch": 76,
                "velocity": 51,
                "duration": 0.1886363636363626,
                "tempo": 120.0
            },
            {
                "start_time": 68.54772727272727,
                "end_time": 68.98863636363636,
                "pitch": 80,
                "velocity": 51,
                "duration": 0.4409090909090878,
                "tempo": 120.0
            },
            {
                "start_time": 69.05227272727272,
                "end_time": 71.52727272727273,
                "pitch": 82,
                "velocity": 51,
                "duration": 2.4750000000000085,
                "tempo": 120.0
            },
            {
                "start_time": 71.58636363636363,
                "end_time": 71.99772727272727,
                "pitch": 85,
                "velocity": 51,
                "duration": 0.4113636363636459,
                "tempo": 120.0
            },
            {
                "start_time": 72.05681818181817,
                "end_time": 72.23409090909091,
                "pitch": 82,
                "velocity": 51,
                "duration": 0.17727272727273657,
                "tempo": 120.0
            },
            {
                "start_time": 72.29318181818182,
                "end_time": 72.47045454545454,
                "pitch": 85,
                "velocity": 51,
                "duration": 0.17727272727272236,
                "tempo": 120.0
            },
            {
                "start_time": 72.52954545454546,
                "end_time": 72.70681818181818,
                "pitch": 85,
                "velocity": 51,
                "duration": 0.17727272727272236,
                "tempo": 120.0
            },
            {
                "start_time": 72.76590909090909,
                "end_time": 73.17954545454545,
                "pitch": 82,
                "velocity": 51,
                "duration": 0.4136363636363569,
                "tempo": 120.0
            },
            {
                "start_time": 73.23863636363636,
                "end_time": 73.6590909090909,
                "pitch": 88,
                "velocity": 51,
                "duration": 0.42045454545454675,
                "tempo": 120.0
            },
            {
                "start_time": 73.71818181818182,
                "end_time": 73.89772727272727,
                "pitch": 87,
                "velocity": 51,
                "duration": 0.17954545454544757,
                "tempo": 120.0
            },
            {
                "start_time": 73.9590909090909,
                "end_time": 74.13863636363637,
                "pitch": 85,
                "velocity": 51,
                "duration": 0.17954545454546178,
                "tempo": 120.0
            },
            {
                "start_time": 74.19772727272726,
                "end_time": 76.0340909090909,
                "pitch": 79,
                "velocity": 51,
                "duration": 1.836363636363643,
                "tempo": 120.0
            },
            {
                "start_time": 76.09318181818182,
                "end_time": 76.27045454545454,
                "pitch": 76,
                "velocity": 51,
                "duration": 0.17727272727272236,
                "tempo": 120.0
            },
            {
                "start_time": 76.32954545454545,
                "end_time": 76.74772727272727,
                "pitch": 80,
                "velocity": 51,
                "duration": 0.41818181818182154,
                "tempo": 120.0
            },
            {
                "start_time": 76.80681818181817,
                "end_time": 79.12727272727273,
                "pitch": 82,
                "velocity": 51,
                "duration": 2.3204545454545524,
                "tempo": 120.0
            },
            {
                "start_time": 79.18636363636364,
                "end_time": 79.58181818181818,
                "pitch": 85,
                "velocity": 51,
                "duration": 0.39545454545454106,
                "tempo": 120.0
            },
            {
                "start_time": 79.63181818181818,
                "end_time": 79.7840909090909,
                "pitch": 82,
                "velocity": 51,
                "duration": 0.1522727272727309,
                "tempo": 120.0
            },
            {
                "start_time": 79.8340909090909,
                "end_time": 80.18636363636364,
                "pitch": 85,
                "velocity": 51,
                "duration": 0.35227272727273373,
                "tempo": 120.0
            },
            {
                "start_time": 80.23636363636363,
                "end_time": 80.57045454545454,
                "pitch": 82,
                "velocity": 51,
                "duration": 0.33409090909090366,
                "tempo": 120.0
            },
            {
                "start_time": 80.61363636363636,
                "end_time": 80.90681818181818,
                "pitch": 66,
                "velocity": 51,
                "duration": 0.29318181818182154,
                "tempo": 120.0
            },
            {
                "start_time": 80.94772727272726,
                "end_time": 81.17727272727272,
                "pitch": 72,
                "velocity": 51,
                "duration": 0.22954545454545894,
                "tempo": 120.0
            }
        ]
    }
}