{
    "track_id": "Rampage (FM) - 06 - Unknown",
    "mood": "angry",
    "instruments": {
        "Acoustic Bass": [
            {
                "start_time": 0.0,
                "end_time": 0.17727272727272728,
                "pitch": 48,
                "velocity": 80,
                "duration": 0.17727272727272728,
                "tempo": 120.0
            },
            {
                "start_time": 0.1909090909090909,
                "end_time": 0.3727272727272727,
                "pitch": 49,
                "velocity": 80,
                "duration": 0.1818181818181818,
                "tempo": 120.0
            },
            {
                "start_time": 0.38636363636363635,
                "end_time": 0.5977272727272727,
                "pitch": 51,
                "velocity": 80,
                "duration": 0.2113636363636363,
                "tempo": 120.0
            },
            {
                "start_time": 0.6318181818181818,
                "end_time": 0.8431818181818181,
                "pitch": 52,
                "velocity": 80,
                "duration": 0.2113636363636363,
                "tempo": 120.0
            },
            {
                "start_time": 0.8613636363636363,
                "end_time": 1.0772727272727272,
                "pitch": 51,
                "velocity": 80,
                "duration": 0.21590909090909083,
                "tempo": 120.0
            },
            {
                "start_time": 1.093181818181818,
                "end_time": 1.3272727272727272,
                "pitch": 49,
                "velocity": 80,
                "duration": 0.23409090909090913,
                "tempo": 120.0
            },
            {
                "start_time": 1.343181818181818,
                "end_time": 1.5613636363636363,
                "pitch": 52,
                "velocity": 80,
                "duration": 0.21818181818181825,
                "tempo": 120.0
            },
            {
                "start_time": 1.5772727272727272,
                "end_time": 1.793181818181818,
                "pitch": 54,
                "velocity": 80,
                "duration": 0.21590909090909083,
                "tempo": 120.0
            },
            {
                "start_time": 1.8272727272727272,
                "end_time": 2.043181818181818,
                "pitch": 56,
                "velocity": 80,
                "duration": 0.21590909090909083,
                "tempo": 120.0
            },
            {
                "start_time": 2.061363636363636,
                "end_time": 2.2772727272727273,
                "pitch": 55,
                "velocity": 80,
                "duration": 0.21590909090909127,
                "tempo": 120.0
            },
            {
                "start_time": 2.293181818181818,
                "end_time": 2.5227272727272725,
                "pitch": 56,
                "velocity": 80,
                "duration": 0.2295454545454545,
                "tempo": 120.0
            },
            {
                "start_time": 2.5386363636363636,
                "end_time": 2.752272727272727,
                "pitch": 58,
                "velocity": 80,
                "duration": 0.2136363636363634,
                "tempo": 120.0
            },
            {
                "start_time": 2.7704545454545455,
                "end_time": 2.9909090909090907,
                "pitch": 48,
                "velocity": 80,
                "duration": 0.22045454545454524,
                "tempo": 120.0
            },
            {
                "start_time": 3.025,
                "end_time": 3.2477272727272726,
                "pitch": 49,
                "velocity": 80,
                "duration": 0.22272727272727266,
                "tempo": 120.0
            },
            {
                "start_time": 3.2636363636363637,
                "end_time": 3.4818181818181815,
                "pitch": 51,
                "velocity": 80,
                "duration": 0.2181818181818178,
                "tempo": 120.0
            },
            {
                "start_time": 3.4977272727272726,
                "end_time": 3.7318181818181815,
                "pitch": 52,
                "velocity": 80,
                "duration": 0.2340909090909089,
                "tempo": 120.0
            },
            {
                "start_time": 3.7477272727272726,
                "end_time": 3.9636363636363634,
                "pitch": 51,
                "velocity": 80,
                "duration": 0.21590909090909083,
                "tempo": 120.0
            },
            {
                "start_time": 3.9818181818181815,
                "end_time": 4.197727272727272,
                "pitch": 49,
                "velocity": 80,
                "duration": 0.21590909090909083,
                "tempo": 120.0
            },
            {
                "start_time": 4.2318181818181815,
                "end_time": 4.452272727272727,
                "pitch": 52,
                "velocity": 80,
                "duration": 0.22045454545454568,
                "tempo": 120.0
            },
            {
                "start_time": 4.470454545454546,
                "end_time": 4.6909090909090905,
                "pitch": 54,
                "velocity": 80,
                "duration": 0.2204545454545448,
                "tempo": 120.0
            },
            {
                "start_time": 4.709090909090909,
                "end_time": 4.9386363636363635,
                "pitch": 56,
                "velocity": 80,
                "duration": 0.2295454545454545,
                "tempo": 120.0
            },
            {
                "start_time": 4.954545454545454,
                "end_time": 5.168181818181818,
                "pitch": 55,
                "velocity": 80,
                "duration": 0.21363636363636385,
                "tempo": 120.0
            },
            {
                "start_time": 5.184090909090909,
                "end_time": 5.3977272727272725,
                "pitch": 56,
                "velocity": 80,
                "duration": 0.21363636363636385,
                "tempo": 120.0
            },
            {
                "start_time": 5.431818181818182,
                "end_time": 5.643181818181818,
                "pitch": 58,
                "velocity": 80,
                "duration": 0.21136363636363598,
                "tempo": 120.0
            },
            {
                "start_time": 5.661363636363636,
                "end_time": 5.879545454545454,
                "pitch": 48,
                "velocity": 80,
                "duration": 0.2181818181818178,
                "tempo": 120.0
            },
            {
                "start_time": 5.8954545454545455,
                "end_time": 6.131818181818182,
                "pitch": 49,
                "velocity": 80,
                "duration": 0.23636363636363633,
                "tempo": 120.0
            },
            {
                "start_time": 6.1477272727272725,
                "end_time": 6.370454545454545,
                "pitch": 51,
                "velocity": 80,
                "duration": 0.22272727272727266,
                "tempo": 120.0
            },
            {
                "start_time": 6.386363636363636,
                "end_time": 6.6090909090909085,
                "pitch": 52,
                "velocity": 80,
                "duration": 0.22272727272727266,
                "tempo": 120.0
            },
            {
                "start_time": 6.643181818181818,
                "end_time": 6.86590909090909,
                "pitch": 51,
                "velocity": 80,
                "duration": 0.22272727272727266,
                "tempo": 120.0
            },
            {
                "start_time": 6.881818181818182,
                "end_time": 7.1045454545454545,
                "pitch": 49,
                "velocity": 80,
                "duration": 0.22272727272727266,
                "tempo": 120.0
            },
            {
                "start_time": 7.120454545454545,
                "end_time": 7.345454545454545,
                "pitch": 52,
                "velocity": 80,
                "duration": 0.22499999999999964,
                "tempo": 120.0
            },
            {
                "start_time": 7.361363636363636,
                "end_time": 7.570454545454545,
                "pitch": 54,
                "velocity": 80,
                "duration": 0.209090909090909,
                "tempo": 120.0
            },
            {
                "start_time": 7.586363636363636,
                "end_time": 7.804545454545454,
                "pitch": 56,
                "velocity": 80,
                "duration": 0.2181818181818178,
                "tempo": 120.0
            },
            {
                "start_time": 7.838636363636363,
                "end_time": 8.056818181818182,
                "pitch": 55,
                "velocity": 80,
                "duration": 0.2181818181818187,
                "tempo": 120.0
            },
            {
                "start_time": 8.072727272727272,
                "end_time": 8.295454545454545,
                "pitch": 56,
                "velocity": 80,
                "duration": 0.22272727272727266,
                "tempo": 120.0
            },
            {
                "start_time": 8.311363636363636,
                "end_time": 8.552272727272728,
                "pitch": 58,
                "velocity": 80,
                "duration": 0.24090909090909207,
                "tempo": 120.0
            },
            {
                "start_time": 8.568181818181818,
                "end_time": 8.790909090909091,
                "pitch": 48,
                "velocity": 80,
                "duration": 0.22272727272727266,
                "tempo": 120.0
            },
            {
                "start_time": 8.806818181818182,
                "end_time": 9.029545454545454,
                "pitch": 49,
                "velocity": 80,
                "duration": 0.22272727272727266,
                "tempo": 120.0
            },
            {
                "start_time": 9.063636363636363,
                "end_time": 9.279545454545454,
                "pitch": 51,
                "velocity": 80,
                "duration": 0.21590909090909172,
                "tempo": 120.0
            },
            {
                "start_time": 9.297727272727272,
                "end_time": 9.513636363636364,
                "pitch": 52,
                "velocity": 80,
                "duration": 0.21590909090909172,
                "tempo": 120.0
            },
            {
                "start_time": 9.529545454545454,
                "end_time": 9.754545454545454,
                "pitch": 51,
                "velocity": 80,
                "duration": 0.22499999999999964,
                "tempo": 120.0
            },
            {
                "start_time": 9.770454545454545,
                "end_time": 9.979545454545454,
                "pitch": 49,
                "velocity": 80,
                "duration": 0.209090909090909,
                "tempo": 120.0
            },
            {
                "start_time": 9.995454545454544,
                "end_time": 10.21590909090909,
                "pitch": 52,
                "velocity": 80,
                "duration": 0.22045454545454568,
                "tempo": 120.0
            },
            {
                "start_time": 10.25,
                "end_time": 10.472727272727273,
                "pitch": 54,
                "velocity": 80,
                "duration": 0.22272727272727266,
                "tempo": 120.0
            },
            {
                "start_time": 10.488636363636363,
                "end_time": 10.709090909090909,
                "pitch": 56,
                "velocity": 80,
                "duration": 0.22045454545454568,
                "tempo": 120.0
            },
            {
                "start_time": 10.725,
                "end_time": 10.959090909090909,
                "pitch": 55,
                "velocity": 80,
                "duration": 0.23409090909090935,
                "tempo": 120.0
            },
            {
                "start_time": 10.977272727272727,
                "end_time": 11.193181818181818,
                "pitch": 56,
                "velocity": 80,
                "duration": 0.21590909090909172,
                "tempo": 120.0
            },
            {
                "start_time": 11.211363636363636,
                "end_time": 11.427272727272726,
                "pitch": 58,
                "velocity": 80,
                "duration": 0.21590909090908994,
                "tempo": 120.0
            },
            {
                "start_time": 11.461363636363636,
                "end_time": 11.795454545454545,
                "pitch": 49,
                "velocity": 80,
                "duration": 0.334090909090909,
                "tempo": 120.0
            },
            {
                "start_time": 11.813636363636363,
                "end_time": 11.913636363636362,
                "pitch": 49,
                "velocity": 80,
                "duration": 0.09999999999999964,
                "tempo": 120.0
            },
            {
                "start_time": 11.931818181818182,
                "end_time": 12.165909090909091,
                "pitch": 49,
                "velocity": 80,
                "duration": 0.23409090909090935,
                "tempo": 120.0
            },
            {
                "start_time": 12.181818181818182,
                "end_time": 12.399999999999999,
                "pitch": 47,
                "velocity": 80,
                "duration": 0.21818181818181692,
                "tempo": 120.0
            },
            {
                "start_time": 12.418181818181818,
                "end_time": 12.631818181818181,
                "pitch": 55,
                "velocity": 80,
                "duration": 0.21363636363636296,
                "tempo": 120.0
            },
            {
                "start_time": 12.663636363636362,
                "end_time": 12.877272727272727,
                "pitch": 56,
                "velocity": 80,
                "duration": 0.21363636363636473,
                "tempo": 120.0
            },
            {
                "start_time": 12.893181818181818,
                "end_time": 13.234090909090908,
                "pitch": 49,
                "velocity": 80,
                "duration": 0.34090909090908994,
                "tempo": 120.0
            },
            {
                "start_time": 13.268181818181818,
                "end_time": 13.370454545454544,
                "pitch": 49,
                "velocity": 80,
                "duration": 0.10227272727272663,
                "tempo": 120.0
            },
            {
                "start_time": 13.388636363636364,
                "end_time": 13.60681818181818,
                "pitch": 49,
                "velocity": 80,
                "duration": 0.21818181818181692,
                "tempo": 120.0
            },
            {
                "start_time": 13.622727272727271,
                "end_time": 13.843181818181817,
                "pitch": 47,
                "velocity": 80,
                "duration": 0.22045454545454568,
                "tempo": 120.0
            },
            {
                "start_time": 13.875,
                "end_time": 14.093181818181817,
                "pitch": 55,
                "velocity": 80,
                "duration": 0.21818181818181692,
                "tempo": 120.0
            },
            {
                "start_time": 14.111363636363636,
                "end_time": 14.329545454545453,
                "pitch": 56,
                "velocity": 80,
                "duration": 0.21818181818181692,
                "tempo": 120.0
            },
            {
                "start_time": 14.345454545454544,
                "end_time": 14.69090909090909,
                "pitch": 49,
                "velocity": 80,
                "duration": 0.3454545454545457,
                "tempo": 120.0
            },
            {
                "start_time": 14.70681818181818,
                "end_time": 14.804545454545455,
                "pitch": 49,
                "velocity": 80,
                "duration": 0.09772727272727444,
                "tempo": 120.0
            },
            {
                "start_time": 14.822727272727272,
                "end_time": 15.043181818181818,
                "pitch": 49,
                "velocity": 80,
                "duration": 0.22045454545454568,
                "tempo": 120.0
            },
            {
                "start_time": 15.077272727272726,
                "end_time": 15.299999999999999,
                "pitch": 47,
                "velocity": 80,
                "duration": 0.22272727272727266,
                "tempo": 120.0
            },
            {
                "start_time": 15.31590909090909,
                "end_time": 15.534090909090908,
                "pitch": 55,
                "velocity": 80,
                "duration": 0.2181818181818187,
                "tempo": 120.0
            },
            {
                "start_time": 15.552272727272726,
                "end_time": 15.786363636363635,
                "pitch": 56,
                "velocity": 80,
                "duration": 0.23409090909090935,
                "tempo": 120.0
            },
            {
                "start_time": 15.804545454545453,
                "end_time": 16.14090909090909,
                "pitch": 49,
                "velocity": 80,
                "duration": 0.33636363636363775,
                "tempo": 120.0
            },
            {
                "start_time": 16.15681818181818,
                "end_time": 16.256818181818183,
                "pitch": 49,
                "velocity": 80,
                "duration": 0.10000000000000142,
                "tempo": 120.0
            },
            {
                "start_time": 16.29090909090909,
                "end_time": 16.513636363636362,
                "pitch": 49,
                "velocity": 80,
                "duration": 0.22272727272727266,
                "tempo": 120.0
            },
            {
                "start_time": 16.529545454545453,
                "end_time": 16.752272727272725,
                "pitch": 47,
                "velocity": 80,
                "duration": 0.22272727272727266,
                "tempo": 120.0
            },
            {
                "start_time": 16.768181818181816,
                "end_time": 16.993181818181817,
                "pitch": 55,
                "velocity": 80,
                "duration": 0.22500000000000142,
                "tempo": 120.0
            },
            {
                "start_time": 17.009090909090908,
                "end_time": 17.21818181818182,
                "pitch": 56,
                "velocity": 80,
                "duration": 0.20909090909091077,
                "tempo": 120.0
            },
            {
                "start_time": 17.23409090909091,
                "end_time": 17.586363636363636,
                "pitch": 51,
                "velocity": 80,
                "duration": 0.3522727272727266,
                "tempo": 120.0
            },
            {
                "start_time": 17.604545454545455,
                "end_time": 17.704545454545453,
                "pitch": 51,
                "velocity": 80,
                "duration": 0.09999999999999787,
                "tempo": 120.0
            },
            {
                "start_time": 17.720454545454544,
                "end_time": 17.943181818181817,
                "pitch": 51,
                "velocity": 80,
                "duration": 0.22272727272727266,
                "tempo": 120.0
            },
            {
                "start_time": 17.959090909090907,
                "end_time": 18.2,
                "pitch": 49,
                "velocity": 80,
                "duration": 0.24090909090909207,
                "tempo": 120.0
            },
            {
                "start_time": 18.21590909090909,
                "end_time": 18.43409090909091,
                "pitch": 57,
                "velocity": 80,
                "duration": 0.2181818181818187,
                "tempo": 120.0
            },
            {
                "start_time": 18.452272727272728,
                "end_time": 18.670454545454543,
                "pitch": 58,
                "velocity": 80,
                "duration": 0.21818181818181515,
                "tempo": 120.0
            },
            {
                "start_time": 18.704545454545453,
                "end_time": 19.038636363636364,
                "pitch": 51,
                "velocity": 80,
                "duration": 0.33409090909091077,
                "tempo": 120.0
            },
            {
                "start_time": 19.05681818181818,
                "end_time": 19.15681818181818,
                "pitch": 51,
                "velocity": 80,
                "duration": 0.10000000000000142,
                "tempo": 120.0
            },
            {
                "start_time": 19.172727272727272,
                "end_time": 19.409090909090907,
                "pitch": 51,
                "velocity": 80,
                "duration": 0.23636363636363455,
                "tempo": 120.0
            },
            {
                "start_time": 19.425,
                "end_time": 19.643181818181816,
                "pitch": 49,
                "velocity": 80,
                "duration": 0.21818181818181515,
                "tempo": 120.0
            },
            {
                "start_time": 19.661363636363635,
                "end_time": 19.879545454545454,
                "pitch": 57,
                "velocity": 80,
                "duration": 0.2181818181818187,
                "tempo": 120.0
            },
            {
                "start_time": 19.913636363636364,
                "end_time": 20.13181818181818,
                "pitch": 58,
                "velocity": 80,
                "duration": 0.21818181818181515,
                "tempo": 120.0
            },
            {
                "start_time": 20.147727272727273,
                "end_time": 20.474999999999998,
                "pitch": 51,
                "velocity": 80,
                "duration": 0.3272727272727245,
                "tempo": 120.0
            },
            {
                "start_time": 20.509090909090908,
                "end_time": 20.60681818181818,
                "pitch": 51,
                "velocity": 80,
                "duration": 0.09772727272727266,
                "tempo": 120.0
            },
            {
                "start_time": 20.62272727272727,
                "end_time": 20.845454545454544,
                "pitch": 51,
                "velocity": 80,
                "duration": 0.22272727272727266,
                "tempo": 120.0
            },
            {
                "start_time": 20.863636363636363,
                "end_time": 21.084090909090907,
                "pitch": 49,
                "velocity": 80,
                "duration": 0.2204545454545439,
                "tempo": 120.0
            },
            {
                "start_time": 21.118181818181817,
                "end_time": 21.336363636363636,
                "pitch": 57,
                "velocity": 80,
                "duration": 0.2181818181818187,
                "tempo": 120.0
            },
            {
                "start_time": 21.354545454545452,
                "end_time": 21.57272727272727,
                "pitch": 58,
                "velocity": 80,
                "duration": 0.2181818181818187,
                "tempo": 120.0
            },
            {
                "start_time": 21.58863636363636,
                "end_time": 21.93409090909091,
                "pitch": 51,
                "velocity": 80,
                "duration": 0.34545454545454746,
                "tempo": 120.0
            },
            {
                "start_time": 21.95,
                "end_time": 22.047727272727272,
                "pitch": 51,
                "velocity": 80,
                "duration": 0.09772727272727266,
                "tempo": 120.0
            },
            {
                "start_time": 22.06590909090909,
                "end_time": 22.284090909090907,
                "pitch": 51,
                "velocity": 80,
                "duration": 0.21818181818181515,
                "tempo": 120.0
            },
            {
                "start_time": 22.31590909090909,
                "end_time": 22.536363636363635,
                "pitch": 49,
                "velocity": 80,
                "duration": 0.2204545454545439,
                "tempo": 120.0
            },
            {
                "start_time": 22.552272727272726,
                "end_time": 22.775,
                "pitch": 57,
                "velocity": 80,
                "duration": 0.22272727272727266,
                "tempo": 120.0
            },
            {
                "start_time": 22.79090909090909,
                "end_time": 23.029545454545453,
                "pitch": 58,
                "velocity": 80,
                "duration": 0.2386363636363633,
                "tempo": 120.0
            },
            {
                "start_time": 23.047727272727272,
                "end_time": 23.384090909090908,
                "pitch": 49,
                "velocity": 80,
                "duration": 0.336363636363636,
                "tempo": 120.0
            },
            {
                "start_time": 23.4,
                "end_time": 23.5,
                "pitch": 49,
                "velocity": 80,
                "duration": 0.10000000000000142,
                "tempo": 120.0
            },
            {
                "start_time": 23.534090909090907,
                "end_time": 23.75681818181818,
                "pitch": 49,
                "velocity": 80,
                "duration": 0.22272727272727266,
                "tempo": 120.0
            },
            {
                "start_time": 23.77272727272727,
                "end_time": 23.995454545454546,
                "pitch": 47,
                "velocity": 80,
                "duration": 0.22272727272727622,
                "tempo": 120.0
            },
            {
                "start_time": 24.011363636363637,
                "end_time": 24.236363636363635,
                "pitch": 55,
                "velocity": 80,
                "duration": 0.22499999999999787,
                "tempo": 120.0
            },
            {
                "start_time": 24.252272727272725,
                "end_time": 24.461363636363636,
                "pitch": 56,
                "velocity": 80,
                "duration": 0.20909090909091077,
                "tempo": 120.0
            },
            {
                "start_time": 24.477272727272727,
                "end_time": 24.829545454545453,
                "pitch": 49,
                "velocity": 80,
                "duration": 0.3522727272727266,
                "tempo": 120.0
            },
            {
                "start_time": 24.847727272727273,
                "end_time": 24.94772727272727,
                "pitch": 49,
                "velocity": 80,
                "duration": 0.09999999999999787,
                "tempo": 120.0
            },
            {
                "start_time": 24.96363636363636,
                "end_time": 25.186363636363634,
                "pitch": 49,
                "velocity": 80,
                "duration": 0.22272727272727266,
                "tempo": 120.0
            },
            {
                "start_time": 25.204545454545453,
                "end_time": 25.443181818181817,
                "pitch": 47,
                "velocity": 80,
                "duration": 0.2386363636363633,
                "tempo": 120.0
            },
            {
                "start_time": 25.459090909090907,
                "end_time": 25.677272727272726,
                "pitch": 55,
                "velocity": 80,
                "duration": 0.2181818181818187,
                "tempo": 120.0
            },
            {
                "start_time": 25.695454545454545,
                "end_time": 25.913636363636364,
                "pitch": 56,
                "velocity": 80,
                "duration": 0.2181818181818187,
                "tempo": 120.0
            },
            {
                "start_time": 25.94772727272727,
                "end_time": 26.28181818181818,
                "pitch": 49,
                "velocity": 80,
                "duration": 0.33409090909091077,
                "tempo": 120.0
            },
            {
                "start_time": 26.299999999999997,
                "end_time": 26.4,
                "pitch": 49,
                "velocity": 80,
                "duration": 0.10000000000000142,
                "tempo": 120.0
            },
            {
                "start_time": 26.418181818181818,
                "end_time": 26.652272727272727,
                "pitch": 49,
                "velocity": 80,
                "duration": 0.23409090909090935,
                "tempo": 120.0
            },
            {
                "start_time": 26.668181818181818,
                "end_time": 26.888636363636362,
                "pitch": 47,
                "velocity": 80,
                "duration": 0.2204545454545439,
                "tempo": 120.0
            },
            {
                "start_time": 26.904545454545453,
                "end_time": 27.118181818181817,
                "pitch": 55,
                "velocity": 80,
                "duration": 0.21363636363636473,
                "tempo": 120.0
            },
            {
                "start_time": 27.15,
                "end_time": 27.363636363636363,
                "pitch": 56,
                "velocity": 80,
                "duration": 0.21363636363636473,
                "tempo": 120.0
            },
            {
                "start_time": 27.379545454545454,
                "end_time": 27.71590909090909,
                "pitch": 49,
                "velocity": 80,
                "duration": 0.336363636363636,
                "tempo": 120.0
            },
            {
                "start_time": 27.75,
                "end_time": 27.849999999999998,
                "pitch": 49,
                "velocity": 80,
                "duration": 0.09999999999999787,
                "tempo": 120.0
            },
            {
                "start_time": 27.868181818181817,
                "end_time": 28.08863636363636,
                "pitch": 49,
                "velocity": 80,
                "duration": 0.2204545454545439,
                "tempo": 120.0
            },
            {
                "start_time": 28.10681818181818,
                "end_time": 28.327272727272724,
                "pitch": 47,
                "velocity": 80,
                "duration": 0.2204545454545439,
                "tempo": 120.0
            },
            {
                "start_time": 28.361363636363635,
                "end_time": 28.581818181818182,
                "pitch": 55,
                "velocity": 80,
                "duration": 0.22045454545454746,
                "tempo": 120.0
            },
            {
                "start_time": 28.597727272727273,
                "end_time": 28.815909090909088,
                "pitch": 56,
                "velocity": 80,
                "duration": 0.21818181818181515,
                "tempo": 120.0
            },
            {
                "start_time": 28.831818181818182,
                "end_time": 29.177272727272726,
                "pitch": 51,
                "velocity": 80,
                "duration": 0.3454545454545439,
                "tempo": 120.0
            },
            {
                "start_time": 29.193181818181817,
                "end_time": 29.293181818181818,
                "pitch": 51,
                "velocity": 80,
                "duration": 0.10000000000000142,
                "tempo": 120.0
            },
            {
                "start_time": 29.30909090909091,
                "end_time": 29.529545454545453,
                "pitch": 51,
                "velocity": 80,
                "duration": 0.2204545454545439,
                "tempo": 120.0
            },
            {
                "start_time": 29.563636363636363,
                "end_time": 29.786363636363635,
                "pitch": 49,
                "velocity": 80,
                "duration": 0.22272727272727266,
                "tempo": 120.0
            },
            {
                "start_time": 29.802272727272726,
                "end_time": 30.02272727272727,
                "pitch": 57,
                "velocity": 80,
                "duration": 0.2204545454545439,
                "tempo": 120.0
            },
            {
                "start_time": 30.03863636363636,
                "end_time": 30.27272727272727,
                "pitch": 58,
                "velocity": 80,
                "duration": 0.23409090909090935,
                "tempo": 120.0
            },
            {
                "start_time": 30.29090909090909,
                "end_time": 30.627272727272725,
                "pitch": 51,
                "velocity": 80,
                "duration": 0.336363636363636,
                "tempo": 120.0
            },
            {
                "start_time": 30.643181818181816,
                "end_time": 30.743181818181817,
                "pitch": 51,
                "velocity": 80,
                "duration": 0.10000000000000142,
                "tempo": 120.0
            },
            {
                "start_time": 30.777272727272727,
                "end_time": 31.0,
                "pitch": 51,
                "velocity": 80,
                "duration": 0.22272727272727266,
                "tempo": 120.0
            },
            {
                "start_time": 31.01590909090909,
                "end_time": 31.238636363636363,
                "pitch": 49,
                "velocity": 80,
                "duration": 0.22272727272727266,
                "tempo": 120.0
            },
            {
                "start_time": 31.25681818181818,
                "end_time": 31.479545454545452,
                "pitch": 57,
                "velocity": 80,
                "duration": 0.22272727272727266,
                "tempo": 120.0
            },
            {
                "start_time": 31.495454545454542,
                "end_time": 31.704545454545453,
                "pitch": 58,
                "velocity": 80,
                "duration": 0.20909090909091077,
                "tempo": 120.0
            },
            {
                "start_time": 31.720454545454544,
                "end_time": 32.07272727272727,
                "pitch": 51,
                "velocity": 80,
                "duration": 0.3522727272727266,
                "tempo": 120.0
            },
            {
                "start_time": 32.090909090909086,
                "end_time": 32.19090909090909,
                "pitch": 51,
                "velocity": 80,
                "duration": 0.10000000000000142,
                "tempo": 120.0
            },
            {
                "start_time": 32.20681818181818,
                "end_time": 32.429545454545455,
                "pitch": 51,
                "velocity": 80,
                "duration": 0.22272727272727622,
                "tempo": 120.0
            },
            {
                "start_time": 32.44772727272727,
                "end_time": 32.68636363636364,
                "pitch": 49,
                "velocity": 80,
                "duration": 0.23863636363636687,
                "tempo": 120.0
            },
            {
                "start_time": 32.70227272727273,
                "end_time": 32.92045454545455,
                "pitch": 57,
                "velocity": 80,
                "duration": 0.2181818181818187,
                "tempo": 120.0
            },
            {
                "start_time": 32.93863636363636,
                "end_time": 33.15681818181818,
                "pitch": 58,
                "velocity": 80,
                "duration": 0.2181818181818187,
                "tempo": 120.0
            },
            {
                "start_time": 33.19090909090909,
                "end_time": 33.52272727272727,
                "pitch": 51,
                "velocity": 80,
                "duration": 0.33181818181818556,
                "tempo": 120.0
            },
            {
                "start_time": 33.54090909090909,
                "end_time": 33.64090909090909,
                "pitch": 51,
                "velocity": 80,
                "duration": 0.10000000000000142,
                "tempo": 120.0
            },
            {
                "start_time": 33.65681818181818,
                "end_time": 33.88636363636363,
                "pitch": 51,
                "velocity": 80,
                "duration": 0.22954545454545183,
                "tempo": 120.0
            },
            {
                "start_time": 33.902272727272724,
                "end_time": 34.11590909090909,
                "pitch": 49,
                "velocity": 80,
                "duration": 0.2136363636363683,
                "tempo": 120.0
            },
            {
                "start_time": 34.13181818181818,
                "end_time": 34.35454545454545,
                "pitch": 57,
                "velocity": 80,
                "duration": 0.2227272727272691,
                "tempo": 120.0
            },
            {
                "start_time": 34.388636363636365,
                "end_time": 34.60909090909091,
                "pitch": 58,
                "velocity": 80,
                "duration": 0.2204545454545439,
                "tempo": 120.0
            }
        ],
        "Trumpet": [
            {
                "start_time": 0.0,
                "end_time": 0.17727272727272728,
                "pitch": 72,
                "velocity": 64,
                "duration": 0.17727272727272728,
                "tempo": 120.0
            },
            {
                "start_time": 0.1909090909090909,
                "end_time": 0.3727272727272727,
                "pitch": 73,
                "velocity": 64,
                "duration": 0.1818181818181818,
                "tempo": 120.0
            },
            {
                "start_time": 0.38636363636363635,
                "end_time": 0.5977272727272727,
                "pitch": 75,
                "velocity": 64,
                "duration": 0.2113636363636363,
                "tempo": 120.0
            },
            {
                "start_time": 0.6318181818181818,
                "end_time": 0.8431818181818181,
                "pitch": 76,
                "velocity": 64,
                "duration": 0.2113636363636363,
                "tempo": 120.0
            },
            {
                "start_time": 0.8613636363636363,
                "end_time": 1.0772727272727272,
                "pitch": 75,
                "velocity": 64,
                "duration": 0.21590909090909083,
                "tempo": 120.0
            },
            {
                "start_time": 1.093181818181818,
                "end_time": 1.3272727272727272,
                "pitch": 73,
                "velocity": 64,
                "duration": 0.23409090909090913,
                "tempo": 120.0
            },
            {
                "start_time": 1.343181818181818,
                "end_time": 1.5613636363636363,
                "pitch": 76,
                "velocity": 64,
                "duration": 0.21818181818181825,
                "tempo": 120.0
            },
            {
                "start_time": 1.5772727272727272,
                "end_time": 1.793181818181818,
                "pitch": 78,
                "velocity": 64,
                "duration": 0.21590909090909083,
                "tempo": 120.0
            },
            {
                "start_time": 1.8272727272727272,
                "end_time": 2.043181818181818,
                "pitch": 80,
                "velocity": 64,
                "duration": 0.21590909090909083,
                "tempo": 120.0
            },
            {
                "start_time": 2.061363636363636,
                "end_time": 2.2772727272727273,
                "pitch": 79,
                "velocity": 64,
                "duration": 0.21590909090909127,
                "tempo": 120.0
            },
            {
                "start_time": 2.293181818181818,
                "end_time": 2.5227272727272725,
                "pitch": 80,
                "velocity": 64,
                "duration": 0.2295454545454545,
                "tempo": 120.0
            },
            {
                "start_time": 2.5386363636363636,
                "end_time": 2.752272727272727,
                "pitch": 82,
                "velocity": 64,
                "duration": 0.2136363636363634,
                "tempo": 120.0
            },
            {
                "start_time": 2.7704545454545455,
                "end_time": 2.9909090909090907,
                "pitch": 72,
                "velocity": 64,
                "duration": 0.22045454545454524,
                "tempo": 120.0
            },
            {
                "start_time": 3.025,
                "end_time": 3.2477272727272726,
                "pitch": 73,
                "velocity": 64,
                "duration": 0.22272727272727266,
                "tempo": 120.0
            },
            {
                "start_time": 3.2636363636363637,
                "end_time": 3.4818181818181815,
                "pitch": 75,
                "velocity": 64,
                "duration": 0.2181818181818178,
                "tempo": 120.0
            },
            {
                "start_time": 3.4977272727272726,
                "end_time": 3.7318181818181815,
                "pitch": 76,
                "velocity": 64,
                "duration": 0.2340909090909089,
                "tempo": 120.0
            },
            {
                "start_time": 3.7477272727272726,
                "end_time": 3.9636363636363634,
                "pitch": 75,
                "velocity": 64,
                "duration": 0.21590909090909083,
                "tempo": 120.0
            },
            {
                "start_time": 3.9818181818181815,
                "end_time": 4.197727272727272,
                "pitch": 73,
                "velocity": 64,
                "duration": 0.21590909090909083,
                "tempo": 120.0
            },
            {
                "start_time": 4.2318181818181815,
                "end_time": 4.452272727272727,
                "pitch": 76,
                "velocity": 64,
                "duration": 0.22045454545454568,
                "tempo": 120.0
            },
            {
                "start_time": 4.470454545454546,
                "end_time": 4.6909090909090905,
                "pitch": 78,
                "velocity": 64,
                "duration": 0.2204545454545448,
                "tempo": 120.0
            },
            {
                "start_time": 4.709090909090909,
                "end_time": 4.9386363636363635,
                "pitch": 80,
                "velocity": 64,
                "duration": 0.2295454545454545,
                "tempo": 120.0
            },
            {
                "start_time": 4.954545454545454,
                "end_time": 5.168181818181818,
                "pitch": 79,
                "velocity": 64,
                "duration": 0.21363636363636385,
                "tempo": 120.0
            },
            {
                "start_time": 5.184090909090909,
                "end_time": 5.3977272727272725,
                "pitch": 80,
                "velocity": 64,
                "duration": 0.21363636363636385,
                "tempo": 120.0
            },
            {
                "start_time": 5.431818181818182,
                "end_time": 5.643181818181818,
                "pitch": 82,
                "velocity": 64,
                "duration": 0.21136363636363598,
                "tempo": 120.0
            },
            {
                "start_time": 5.661363636363636,
                "end_time": 5.879545454545454,
                "pitch": 72,
                "velocity": 64,
                "duration": 0.2181818181818178,
                "tempo": 120.0
            },
            {
                "start_time": 5.8954545454545455,
                "end_time": 6.131818181818182,
                "pitch": 73,
                "velocity": 64,
                "duration": 0.23636363636363633,
                "tempo": 120.0
            },
            {
                "start_time": 6.1477272727272725,
                "end_time": 6.370454545454545,
                "pitch": 75,
                "velocity": 64,
                "duration": 0.22272727272727266,
                "tempo": 120.0
            },
            {
                "start_time": 6.386363636363636,
                "end_time": 6.6090909090909085,
                "pitch": 76,
                "velocity": 64,
                "duration": 0.22272727272727266,
                "tempo": 120.0
            },
            {
                "start_time": 6.643181818181818,
                "end_time": 6.86590909090909,
                "pitch": 75,
                "velocity": 64,
                "duration": 0.22272727272727266,
                "tempo": 120.0
            },
            {
                "start_time": 6.881818181818182,
                "end_time": 7.1045454545454545,
                "pitch": 73,
                "velocity": 64,
                "duration": 0.22272727272727266,
                "tempo": 120.0
            },
            {
                "start_time": 7.120454545454545,
                "end_time": 7.345454545454545,
                "pitch": 76,
                "velocity": 64,
                "duration": 0.22499999999999964,
                "tempo": 120.0
            },
            {
                "start_time": 7.361363636363636,
                "end_time": 7.570454545454545,
                "pitch": 78,
                "velocity": 64,
                "duration": 0.209090909090909,
                "tempo": 120.0
            },
            {
                "start_time": 7.586363636363636,
                "end_time": 7.804545454545454,
                "pitch": 80,
                "velocity": 64,
                "duration": 0.2181818181818178,
                "tempo": 120.0
            },
            {
                "start_time": 7.838636363636363,
                "end_time": 8.056818181818182,
                "pitch": 79,
                "velocity": 64,
                "duration": 0.2181818181818187,
                "tempo": 120.0
            },
            {
                "start_time": 8.072727272727272,
                "end_time": 8.295454545454545,
                "pitch": 80,
                "velocity": 64,
                "duration": 0.22272727272727266,
                "tempo": 120.0
            },
            {
                "start_time": 8.311363636363636,
                "end_time": 8.552272727272728,
                "pitch": 82,
                "velocity": 64,
                "duration": 0.24090909090909207,
                "tempo": 120.0
            },
            {
                "start_time": 8.568181818181818,
                "end_time": 8.790909090909091,
                "pitch": 72,
                "velocity": 64,
                "duration": 0.22272727272727266,
                "tempo": 120.0
            },
            {
                "start_time": 8.806818181818182,
                "end_time": 9.029545454545454,
                "pitch": 73,
                "velocity": 64,
                "duration": 0.22272727272727266,
                "tempo": 120.0
            },
            {
                "start_time": 9.063636363636363,
                "end_time": 9.279545454545454,
                "pitch": 75,
                "velocity": 64,
                "duration": 0.21590909090909172,
                "tempo": 120.0
            },
            {
                "start_time": 9.297727272727272,
                "end_time": 9.513636363636364,
                "pitch": 76,
                "velocity": 64,
                "duration": 0.21590909090909172,
                "tempo": 120.0
            },
            {
                "start_time": 9.529545454545454,
                "end_time": 9.754545454545454,
                "pitch": 75,
                "velocity": 64,
                "duration": 0.22499999999999964,
                "tempo": 120.0
            },
            {
                "start_time": 9.770454545454545,
                "end_time": 9.979545454545454,
                "pitch": 73,
                "velocity": 64,
                "duration": 0.209090909090909,
                "tempo": 120.0
            },
            {
                "start_time": 9.995454545454544,
                "end_time": 10.21590909090909,
                "pitch": 76,
                "velocity": 64,
                "duration": 0.22045454545454568,
                "tempo": 120.0
            },
            {
                "start_time": 10.25,
                "end_time": 10.472727272727273,
                "pitch": 78,
                "velocity": 64,
                "duration": 0.22272727272727266,
                "tempo": 120.0
            },
            {
                "start_time": 10.488636363636363,
                "end_time": 10.709090909090909,
                "pitch": 80,
                "velocity": 64,
                "duration": 0.22045454545454568,
                "tempo": 120.0
            },
            {
                "start_time": 10.725,
                "end_time": 10.959090909090909,
                "pitch": 79,
                "velocity": 64,
                "duration": 0.23409090909090935,
                "tempo": 120.0
            },
            {
                "start_time": 10.977272727272727,
                "end_time": 11.193181818181818,
                "pitch": 80,
                "velocity": 64,
                "duration": 0.21590909090909172,
                "tempo": 120.0
            },
            {
                "start_time": 11.211363636363636,
                "end_time": 11.427272727272726,
                "pitch": 82,
                "velocity": 64,
                "duration": 0.21590909090908994,
                "tempo": 120.0
            },
            {
                "start_time": 11.461363636363636,
                "end_time": 12.877272727272727,
                "pitch": 80,
                "velocity": 64,
                "duration": 1.415909090909091,
                "tempo": 120.0
            },
            {
                "start_time": 12.893181818181818,
                "end_time": 14.329545454545453,
                "pitch": 79,
                "velocity": 64,
                "duration": 1.4363636363636356,
                "tempo": 120.0
            },
            {
                "start_time": 14.345454545454544,
                "end_time": 15.786363636363635,
                "pitch": 85,
                "velocity": 64,
                "duration": 1.4409090909090914,
                "tempo": 120.0
            },
            {
                "start_time": 15.804545454545453,
                "end_time": 17.21818181818182,
                "pitch": 84,
                "velocity": 64,
                "duration": 1.4136363636363658,
                "tempo": 120.0
            },
            {
                "start_time": 17.23409090909091,
                "end_time": 18.670454545454543,
                "pitch": 87,
                "velocity": 64,
                "duration": 1.4363636363636338,
                "tempo": 120.0
            },
            {
                "start_time": 18.704545454545453,
                "end_time": 20.13181818181818,
                "pitch": 86,
                "velocity": 64,
                "duration": 1.427272727272726,
                "tempo": 120.0
            },
            {
                "start_time": 20.147727272727273,
                "end_time": 21.57272727272727,
                "pitch": 82,
                "velocity": 64,
                "duration": 1.4249999999999972,
                "tempo": 120.0
            },
            {
                "start_time": 21.58863636363636,
                "end_time": 23.029545454545453,
                "pitch": 81,
                "velocity": 64,
                "duration": 1.4409090909090914,
                "tempo": 120.0
            },
            {
                "start_time": 23.047727272727272,
                "end_time": 24.461363636363636,
                "pitch": 80,
                "velocity": 64,
                "duration": 1.413636363636364,
                "tempo": 120.0
            },
            {
                "start_time": 24.477272727272727,
                "end_time": 25.913636363636364,
                "pitch": 79,
                "velocity": 64,
                "duration": 1.4363636363636374,
                "tempo": 120.0
            },
            {
                "start_time": 25.94772727272727,
                "end_time": 27.363636363636363,
                "pitch": 85,
                "velocity": 64,
                "duration": 1.4159090909090928,
                "tempo": 120.0
            },
            {
                "start_time": 27.379545454545454,
                "end_time": 28.815909090909088,
                "pitch": 84,
                "velocity": 64,
                "duration": 1.4363636363636338,
                "tempo": 120.0
            },
            {
                "start_time": 28.831818181818182,
                "end_time": 30.27272727272727,
                "pitch": 87,
                "velocity": 64,
                "duration": 1.4409090909090878,
                "tempo": 120.0
            },
            {
                "start_time": 30.29090909090909,
                "end_time": 31.704545454545453,
                "pitch": 86,
                "velocity": 64,
                "duration": 1.413636363636364,
                "tempo": 120.0
            },
            {
                "start_time": 31.720454545454544,
                "end_time": 33.15681818181818,
                "pitch": 82,
                "velocity": 64,
                "duration": 1.4363636363636374,
                "tempo": 120.0
            },
            {
                "start_time": 33.19090909090909,
                "end_time": 34.60909090909091,
                "pitch": 81,
                "velocity": 64,
                "duration": 1.4181818181818215,
                "tempo": 120.0
            }
        ],
        "Church Organ": [
            {
                "start_time": 0.0,
                "end_time": 0.038636363636363635,
                "pitch": 73,
                "velocity": 51,
                "duration": 0.038636363636363635,
                "tempo": 120.0
            },
            {
                "start_time": 0.05227272727272727,
                "end_time": 1.393181818181818,
                "pitch": 63,
                "velocity": 51,
                "duration": 1.3409090909090908,
                "tempo": 120.0
            },
            {
                "start_time": 1.4272727272727272,
                "end_time": 2.127272727272727,
                "pitch": 61,
                "velocity": 51,
                "duration": 0.6999999999999997,
                "tempo": 120.0
            },
            {
                "start_time": 2.143181818181818,
                "end_time": 2.243181818181818,
                "pitch": 60,
                "velocity": 51,
                "duration": 0.10000000000000009,
                "tempo": 120.0
            },
            {
                "start_time": 2.2613636363636362,
                "end_time": 2.359090909090909,
                "pitch": 61,
                "velocity": 51,
                "duration": 0.09772727272727266,
                "tempo": 120.0
            },
            {
                "start_time": 2.375,
                "end_time": 2.475,
                "pitch": 63,
                "velocity": 51,
                "duration": 0.10000000000000009,
                "tempo": 120.0
            },
            {
                "start_time": 2.4909090909090907,
                "end_time": 2.5886363636363634,
                "pitch": 64,
                "velocity": 51,
                "duration": 0.09772727272727266,
                "tempo": 120.0
            },
            {
                "start_time": 2.6227272727272726,
                "end_time": 2.7204545454545452,
                "pitch": 63,
                "velocity": 51,
                "duration": 0.09772727272727266,
                "tempo": 120.0
            },
            {
                "start_time": 2.7363636363636363,
                "end_time": 2.8363636363636364,
                "pitch": 61,
                "velocity": 51,
                "duration": 0.10000000000000009,
                "tempo": 120.0
            },
            {
                "start_time": 2.8545454545454545,
                "end_time": 5.727272727272727,
                "pitch": 60,
                "velocity": 51,
                "duration": 2.872727272727272,
                "tempo": 120.0
            },
            {
                "start_time": 5.745454545454545,
                "end_time": 7.186363636363636,
                "pitch": 63,
                "velocity": 51,
                "duration": 1.4409090909090905,
                "tempo": 120.0
            },
            {
                "start_time": 7.202272727272727,
                "end_time": 7.888636363636364,
                "pitch": 61,
                "velocity": 51,
                "duration": 0.6863636363636365,
                "tempo": 120.0
            },
            {
                "start_time": 7.904545454545454,
                "end_time": 8.006818181818181,
                "pitch": 60,
                "velocity": 51,
                "duration": 0.10227272727272663,
                "tempo": 120.0
            },
            {
                "start_time": 8.038636363636364,
                "end_time": 8.14090909090909,
                "pitch": 61,
                "velocity": 51,
                "duration": 0.10227272727272663,
                "tempo": 120.0
            },
            {
                "start_time": 8.159090909090908,
                "end_time": 8.261363636363637,
                "pitch": 63,
                "velocity": 51,
                "duration": 0.1022727272727284,
                "tempo": 120.0
            },
            {
                "start_time": 8.277272727272727,
                "end_time": 8.379545454545454,
                "pitch": 64,
                "velocity": 51,
                "duration": 0.10227272727272663,
                "tempo": 120.0
            },
            {
                "start_time": 8.397727272727272,
                "end_time": 8.5,
                "pitch": 63,
                "velocity": 51,
                "duration": 0.1022727272727284,
                "tempo": 120.0
            },
            {
                "start_time": 8.518181818181818,
                "end_time": 8.620454545454544,
                "pitch": 61,
                "velocity": 51,
                "duration": 0.10227272727272663,
                "tempo": 120.0
            },
            {
                "start_time": 8.654545454545454,
                "end_time": 11.511363636363637,
                "pitch": 60,
                "velocity": 51,
                "duration": 2.8568181818181824,
                "tempo": 120.0
            },
            {
                "start_time": 11.527272727272727,
                "end_time": 12.961363636363636,
                "pitch": 73,
                "velocity": 51,
                "duration": 1.4340909090909086,
                "tempo": 120.0
            },
            {
                "start_time": 12.979545454545454,
                "end_time": 14.411363636363635,
                "pitch": 75,
                "velocity": 51,
                "duration": 1.4318181818181817,
                "tempo": 120.0
            },
            {
                "start_time": 14.427272727272726,
                "end_time": 15.854545454545454,
                "pitch": 76,
                "velocity": 51,
                "duration": 1.4272727272727277,
                "tempo": 120.0
            },
            {
                "start_time": 15.888636363636364,
                "end_time": 15.988636363636363,
                "pitch": 75,
                "velocity": 51,
                "duration": 0.09999999999999964,
                "tempo": 120.0
            },
            {
                "start_time": 16.004545454545454,
                "end_time": 16.10681818181818,
                "pitch": 76,
                "velocity": 51,
                "duration": 0.10227272727272663,
                "tempo": 120.0
            },
            {
                "start_time": 16.12272727272727,
                "end_time": 17.302272727272726,
                "pitch": 78,
                "velocity": 51,
                "duration": 1.1795454545454547,
                "tempo": 120.0
            },
            {
                "start_time": 17.318181818181817,
                "end_time": 18.754545454545454,
                "pitch": 75,
                "velocity": 51,
                "duration": 1.4363636363636374,
                "tempo": 120.0
            },
            {
                "start_time": 18.770454545454545,
                "end_time": 19.477272727272727,
                "pitch": 74,
                "velocity": 51,
                "duration": 0.706818181818182,
                "tempo": 120.0
            },
            {
                "start_time": 19.509090909090908,
                "end_time": 19.611363636363635,
                "pitch": 69,
                "velocity": 51,
                "duration": 0.10227272727272663,
                "tempo": 120.0
            },
            {
                "start_time": 19.627272727272725,
                "end_time": 19.727272727272727,
                "pitch": 70,
                "velocity": 51,
                "duration": 0.10000000000000142,
                "tempo": 120.0
            },
            {
                "start_time": 19.745454545454546,
                "end_time": 19.845454545454544,
                "pitch": 73,
                "velocity": 51,
                "duration": 0.09999999999999787,
                "tempo": 120.0
            },
            {
                "start_time": 19.863636363636363,
                "end_time": 19.96363636363636,
                "pitch": 75,
                "velocity": 51,
                "duration": 0.09999999999999787,
                "tempo": 120.0
            },
            {
                "start_time": 19.979545454545452,
                "end_time": 20.081818181818182,
                "pitch": 73,
                "velocity": 51,
                "duration": 0.10227272727273018,
                "tempo": 120.0
            },
            {
                "start_time": 20.113636363636363,
                "end_time": 20.21363636363636,
                "pitch": 70,
                "velocity": 51,
                "duration": 0.09999999999999787,
                "tempo": 120.0
            },
            {
                "start_time": 20.229545454545452,
                "end_time": 22.74090909090909,
                "pitch": 69,
                "velocity": 51,
                "duration": 2.5113636363636367,
                "tempo": 120.0
            },
            {
                "start_time": 23.13181818181818,
                "end_time": 24.545454545454543,
                "pitch": 73,
                "velocity": 51,
                "duration": 1.413636363636364,
                "tempo": 120.0
            },
            {
                "start_time": 24.561363636363634,
                "end_time": 25.99772727272727,
                "pitch": 75,
                "velocity": 51,
                "duration": 1.4363636363636374,
                "tempo": 120.0
            },
            {
                "start_time": 26.013636363636362,
                "end_time": 27.44772727272727,
                "pitch": 76,
                "velocity": 51,
                "duration": 1.4340909090909086,
                "tempo": 120.0
            },
            {
                "start_time": 27.46363636363636,
                "end_time": 27.565909090909088,
                "pitch": 75,
                "velocity": 51,
                "duration": 0.10227272727272663,
                "tempo": 120.0
            },
            {
                "start_time": 27.581818181818182,
                "end_time": 27.68181818181818,
                "pitch": 76,
                "velocity": 51,
                "duration": 0.09999999999999787,
                "tempo": 120.0
            },
            {
                "start_time": 27.7,
                "end_time": 28.89772727272727,
                "pitch": 78,
                "velocity": 51,
                "duration": 1.1977272727272705,
                "tempo": 120.0
            },
            {
                "start_time": 28.91590909090909,
                "end_time": 30.34090909090909,
                "pitch": 75,
                "velocity": 51,
                "duration": 1.4250000000000007,
                "tempo": 120.0
            },
            {
                "start_time": 30.375,
                "end_time": 31.084090909090907,
                "pitch": 74,
                "velocity": 51,
                "duration": 0.7090909090909072,
                "tempo": 120.0
            },
            {
                "start_time": 31.102272727272727,
                "end_time": 31.204545454545453,
                "pitch": 69,
                "velocity": 51,
                "duration": 0.10227272727272663,
                "tempo": 120.0
            },
            {
                "start_time": 31.222727272727273,
                "end_time": 31.320454545454545,
                "pitch": 70,
                "velocity": 51,
                "duration": 0.09772727272727266,
                "tempo": 120.0
            },
            {
                "start_time": 31.336363636363636,
                "end_time": 31.43181818181818,
                "pitch": 73,
                "velocity": 51,
                "duration": 0.0954545454545439,
                "tempo": 120.0
            },
            {
                "start_time": 31.44772727272727,
                "end_time": 31.543181818181818,
                "pitch": 75,
                "velocity": 51,
                "duration": 0.09545454545454746,
                "tempo": 120.0
            },
            {
                "start_time": 31.577272727272724,
                "end_time": 31.672727272727272,
                "pitch": 73,
                "velocity": 51,
                "duration": 0.09545454545454746,
                "tempo": 120.0
            },
            {
                "start_time": 31.688636363636363,
                "end_time": 31.78863636363636,
                "pitch": 70,
                "velocity": 51,
                "duration": 0.09999999999999787,
                "tempo": 120.0
            },
            {
                "start_time": 31.804545454545455,
                "end_time": 34.627272727272725,
                "pitch": 69,
                "velocity": 51,
                "duration": 2.8227272727272705,
                "tempo": 120.0
            }
        ]
    }
}