{
    "track_id": "Rastan (FM) - 05 - The Devil Boss Carnival",
    "mood": "angry",
    "instruments": {
        "Harpsichord": [
            {
                "start_time": 0.01818181818181818,
                "end_time": 0.19999999999999998,
                "pitch": 107,
                "velocity": 20,
                "duration": 0.1818181818181818,
                "tempo": 120.0
            },
            {
                "start_time": 0.19999999999999998,
                "end_time": 0.3840909090909091,
                "pitch": 107,
                "velocity": 20,
                "duration": 0.1840909090909091,
                "tempo": 120.0
            },
            {
                "start_time": 0.3840909090909091,
                "end_time": 0.5681818181818181,
                "pitch": 107,
                "velocity": 20,
                "duration": 0.18409090909090903,
                "tempo": 120.0
            },
            {
                "start_time": 0.5681818181818181,
                "end_time": 0.7522727272727272,
                "pitch": 108,
                "velocity": 20,
                "duration": 0.18409090909090908,
                "tempo": 120.0
            },
            {
                "start_time": 0.7522727272727272,
                "end_time": 1.125,
                "pitch": 108,
                "velocity": 20,
                "duration": 0.3727272727272728,
                "tempo": 120.0
            }
        ],
        "Trumpet": [
            {
                "start_time": 15.604545454545454,
                "end_time": 18.80909090909091,
                "pitch": 71,
                "velocity": 51,
                "duration": 3.204545454545455,
                "tempo": 120.0
            },
            {
                "start_time": 18.80909090909091,
                "end_time": 22.034090909090907,
                "pitch": 71,
                "velocity": 51,
                "duration": 3.224999999999998,
                "tempo": 120.0
            },
            {
                "start_time": 22.034090909090907,
                "end_time": 25.261363636363637,
                "pitch": 71,
                "velocity": 51,
                "duration": 3.22727272727273,
                "tempo": 120.0
            },
            {
                "start_time": 25.261363636363637,
                "end_time": 28.486363636363635,
                "pitch": 71,
                "velocity": 51,
                "duration": 3.224999999999998,
                "tempo": 120.0
            },
            {
                "start_time": 28.552272727272726,
                "end_time": 28.752272727272725,
                "pitch": 64,
                "velocity": 101,
                "duration": 0.1999999999999993,
                "tempo": 120.0
            },
            {
                "start_time": 28.752272727272725,
                "end_time": 28.952272727272724,
                "pitch": 69,
                "velocity": 80,
                "duration": 0.1999999999999993,
                "tempo": 120.0
            },
            {
                "start_time": 28.952272727272724,
                "end_time": 29.154545454545453,
                "pitch": 71,
                "velocity": 80,
                "duration": 0.20227272727272805,
                "tempo": 120.0
            },
            {
                "start_time": 29.154545454545453,
                "end_time": 29.354545454545452,
                "pitch": 72,
                "velocity": 80,
                "duration": 0.1999999999999993,
                "tempo": 120.0
            },
            {
                "start_time": 29.354545454545452,
                "end_time": 29.554545454545455,
                "pitch": 71,
                "velocity": 80,
                "duration": 0.20000000000000284,
                "tempo": 120.0
            },
            {
                "start_time": 29.554545454545455,
                "end_time": 29.754545454545454,
                "pitch": 68,
                "velocity": 80,
                "duration": 0.1999999999999993,
                "tempo": 120.0
            },
            {
                "start_time": 29.554545454545455,
                "end_time": 29.754545454545454,
                "pitch": 68,
                "velocity": 80,
                "duration": 0.1999999999999993,
                "tempo": 120.0
            },
            {
                "start_time": 29.754545454545454,
                "end_time": 29.954545454545453,
                "pitch": 69,
                "velocity": 80,
                "duration": 0.1999999999999993,
                "tempo": 120.0
            },
            {
                "start_time": 29.954545454545453,
                "end_time": 30.154545454545453,
                "pitch": 65,
                "velocity": 80,
                "duration": 0.1999999999999993,
                "tempo": 120.0
            },
            {
                "start_time": 30.154545454545453,
                "end_time": 30.15681818181818,
                "pitch": 55,
                "velocity": 80,
                "duration": 0.0022727272727287584,
                "tempo": 120.0
            },
            {
                "start_time": 30.15681818181818,
                "end_time": 30.35909090909091,
                "pitch": 67,
                "velocity": 80,
                "duration": 0.20227272727272805,
                "tempo": 120.0
            },
            {
                "start_time": 30.35909090909091,
                "end_time": 30.561363636363634,
                "pitch": 64,
                "velocity": 80,
                "duration": 0.2022727272727245,
                "tempo": 120.0
            },
            {
                "start_time": 30.561363636363634,
                "end_time": 30.763636363636362,
                "pitch": 65,
                "velocity": 80,
                "duration": 0.20227272727272805,
                "tempo": 120.0
            },
            {
                "start_time": 30.763636363636362,
                "end_time": 30.968181818181815,
                "pitch": 62,
                "velocity": 80,
                "duration": 0.20454545454545325,
                "tempo": 120.0
            },
            {
                "start_time": 30.763636363636362,
                "end_time": 30.968181818181815,
                "pitch": 62,
                "velocity": 80,
                "duration": 0.20454545454545325,
                "tempo": 120.0
            },
            {
                "start_time": 30.968181818181815,
                "end_time": 31.170454545454543,
                "pitch": 64,
                "velocity": 80,
                "duration": 0.20227272727272805,
                "tempo": 120.0
            },
            {
                "start_time": 30.968181818181815,
                "end_time": 31.170454545454543,
                "pitch": 64,
                "velocity": 80,
                "duration": 0.20227272727272805,
                "tempo": 120.0
            },
            {
                "start_time": 31.170454545454543,
                "end_time": 31.37272727272727,
                "pitch": 60,
                "velocity": 80,
                "duration": 0.20227272727272805,
                "tempo": 120.0
            },
            {
                "start_time": 31.170454545454543,
                "end_time": 31.37272727272727,
                "pitch": 60,
                "velocity": 80,
                "duration": 0.20227272727272805,
                "tempo": 120.0
            },
            {
                "start_time": 31.37272727272727,
                "end_time": 31.577272727272724,
                "pitch": 62,
                "velocity": 80,
                "duration": 0.20454545454545325,
                "tempo": 120.0
            },
            {
                "start_time": 31.37272727272727,
                "end_time": 31.577272727272724,
                "pitch": 62,
                "velocity": 80,
                "duration": 0.20454545454545325,
                "tempo": 120.0
            },
            {
                "start_time": 31.577272727272724,
                "end_time": 31.779545454545453,
                "pitch": 64,
                "velocity": 80,
                "duration": 0.20227272727272805,
                "tempo": 120.0
            },
            {
                "start_time": 31.577272727272724,
                "end_time": 31.779545454545453,
                "pitch": 64,
                "velocity": 80,
                "duration": 0.20227272727272805,
                "tempo": 120.0
            },
            {
                "start_time": 28.752272727272725,
                "end_time": 31.98181818181818,
                "pitch": 57,
                "velocity": 101,
                "duration": 3.2295454545454554,
                "tempo": 120.0
            },
            {
                "start_time": 31.779545454545453,
                "end_time": 31.98181818181818,
                "pitch": 64,
                "velocity": 101,
                "duration": 0.20227272727272805,
                "tempo": 120.0
            },
            {
                "start_time": 31.98181818181818,
                "end_time": 32.18636363636364,
                "pitch": 69,
                "velocity": 64,
                "duration": 0.2045454545454568,
                "tempo": 120.0
            },
            {
                "start_time": 32.18636363636364,
                "end_time": 32.388636363636365,
                "pitch": 71,
                "velocity": 64,
                "duration": 0.20227272727272805,
                "tempo": 120.0
            },
            {
                "start_time": 32.388636363636365,
                "end_time": 32.590909090909086,
                "pitch": 72,
                "velocity": 64,
                "duration": 0.20227272727272094,
                "tempo": 120.0
            },
            {
                "start_time": 32.590909090909086,
                "end_time": 34.87045454545454,
                "pitch": 71,
                "velocity": 64,
                "duration": 2.279545454545456,
                "tempo": 120.0
            },
            {
                "start_time": 31.98181818181818,
                "end_time": 35.20909090909091,
                "pitch": 57,
                "velocity": 101,
                "duration": 3.22727272727273,
                "tempo": 120.0
            },
            {
                "start_time": 35.00454545454545,
                "end_time": 35.20909090909091,
                "pitch": 64,
                "velocity": 101,
                "duration": 0.20454545454546036,
                "tempo": 120.0
            },
            {
                "start_time": 35.20909090909091,
                "end_time": 35.41136363636363,
                "pitch": 69,
                "velocity": 80,
                "duration": 0.20227272727272094,
                "tempo": 120.0
            },
            {
                "start_time": 35.41136363636363,
                "end_time": 35.61363636363636,
                "pitch": 71,
                "velocity": 80,
                "duration": 0.20227272727272805,
                "tempo": 120.0
            },
            {
                "start_time": 35.61363636363636,
                "end_time": 35.81818181818181,
                "pitch": 72,
                "velocity": 80,
                "duration": 0.20454545454545325,
                "tempo": 120.0
            },
            {
                "start_time": 35.81818181818181,
                "end_time": 36.42045454545455,
                "pitch": 71,
                "velocity": 80,
                "duration": 0.6022727272727337,
                "tempo": 120.0
            },
            {
                "start_time": 36.42045454545455,
                "end_time": 36.949999999999996,
                "pitch": 69,
                "velocity": 80,
                "duration": 0.529545454545449,
                "tempo": 120.0
            },
            {
                "start_time": 36.949999999999996,
                "end_time": 37.65681818181818,
                "pitch": 67,
                "velocity": 101,
                "duration": 0.7068181818181856,
                "tempo": 120.0
            },
            {
                "start_time": 37.65681818181818,
                "end_time": 37.95227272727273,
                "pitch": 62,
                "velocity": 127,
                "duration": 0.29545454545454675,
                "tempo": 120.0
            },
            {
                "start_time": 37.95227272727273,
                "end_time": 38.127272727272725,
                "pitch": 52,
                "velocity": 101,
                "duration": 0.17499999999999716,
                "tempo": 120.0
            },
            {
                "start_time": 38.127272727272725,
                "end_time": 38.304545454545455,
                "pitch": 52,
                "velocity": 101,
                "duration": 0.17727272727272947,
                "tempo": 120.0
            },
            {
                "start_time": 38.65909090909091,
                "end_time": 38.834090909090904,
                "pitch": 53,
                "velocity": 101,
                "duration": 0.17499999999999716,
                "tempo": 120.0
            },
            {
                "start_time": 38.834090909090904,
                "end_time": 39.01363636363636,
                "pitch": 53,
                "velocity": 101,
                "duration": 0.17954545454545467,
                "tempo": 120.0
            },
            {
                "start_time": 39.37045454545454,
                "end_time": 39.55,
                "pitch": 52,
                "velocity": 101,
                "duration": 0.17954545454545467,
                "tempo": 120.0
            },
            {
                "start_time": 39.55,
                "end_time": 39.72954545454545,
                "pitch": 52,
                "velocity": 101,
                "duration": 0.17954545454545467,
                "tempo": 120.0
            },
            {
                "start_time": 40.086363636363636,
                "end_time": 40.26136363636363,
                "pitch": 53,
                "velocity": 101,
                "duration": 0.17499999999999716,
                "tempo": 120.0
            },
            {
                "start_time": 40.26136363636363,
                "end_time": 40.43636363636364,
                "pitch": 53,
                "velocity": 101,
                "duration": 0.17500000000000426,
                "tempo": 120.0
            },
            {
                "start_time": 40.78409090909091,
                "end_time": 40.959090909090904,
                "pitch": 52,
                "velocity": 101,
                "duration": 0.17499999999999716,
                "tempo": 120.0
            },
            {
                "start_time": 40.959090909090904,
                "end_time": 41.13409090909091,
                "pitch": 53,
                "velocity": 101,
                "duration": 0.17500000000000426,
                "tempo": 120.0
            },
            {
                "start_time": 41.13409090909091,
                "end_time": 41.309090909090905,
                "pitch": 53,
                "velocity": 101,
                "duration": 0.17499999999999716,
                "tempo": 120.0
            },
            {
                "start_time": 41.309090909090905,
                "end_time": 41.486363636363635,
                "pitch": 53,
                "velocity": 101,
                "duration": 0.17727272727272947,
                "tempo": 120.0
            },
            {
                "start_time": 42.559090909090905,
                "end_time": 46.42045454545455,
                "pitch": 52,
                "velocity": 80,
                "duration": 3.8613636363636417,
                "tempo": 120.0
            },
            {
                "start_time": 46.42045454545455,
                "end_time": 46.82272727272727,
                "pitch": 59,
                "velocity": 101,
                "duration": 0.4022727272727238,
                "tempo": 120.0
            },
            {
                "start_time": 46.82272727272727,
                "end_time": 47.09318181818182,
                "pitch": 71,
                "velocity": 51,
                "duration": 0.27045454545454817,
                "tempo": 120.0
            }
        ],
        "Lead 2 (sawtooth)": [
            {
                "start_time": 49.643181818181816,
                "end_time": 49.84318181818182,
                "pitch": 47,
                "velocity": 80,
                "duration": 0.20000000000000284,
                "tempo": 120.0
            },
            {
                "start_time": 49.84318181818182,
                "end_time": 50.043181818181814,
                "pitch": 45,
                "velocity": 80,
                "duration": 0.19999999999999574,
                "tempo": 120.0
            },
            {
                "start_time": 49.84318181818182,
                "end_time": 50.043181818181814,
                "pitch": 45,
                "velocity": 80,
                "duration": 0.19999999999999574,
                "tempo": 120.0
            },
            {
                "start_time": 50.043181818181814,
                "end_time": 50.44318181818181,
                "pitch": 47,
                "velocity": 80,
                "duration": 0.3999999999999986,
                "tempo": 120.0
            },
            {
                "start_time": 50.043181818181814,
                "end_time": 50.44318181818181,
                "pitch": 47,
                "velocity": 80,
                "duration": 0.3999999999999986,
                "tempo": 120.0
            }
        ],
        "Electric Guitar (clean)": [
            {
                "start_time": 2.5136363636363637,
                "end_time": 2.734090909090909,
                "pitch": 28,
                "velocity": 25,
                "duration": 0.22045454545454524,
                "tempo": 120.0
            },
            {
                "start_time": 2.734090909090909,
                "end_time": 2.9545454545454546,
                "pitch": 26,
                "velocity": 20,
                "duration": 0.22045454545454568,
                "tempo": 120.0
            },
            {
                "start_time": 2.734090909090909,
                "end_time": 2.9545454545454546,
                "pitch": 26,
                "velocity": 25,
                "duration": 0.22045454545454568,
                "tempo": 120.0
            },
            {
                "start_time": 2.9545454545454546,
                "end_time": 3.175,
                "pitch": 28,
                "velocity": 20,
                "duration": 0.22045454545454524,
                "tempo": 120.0
            },
            {
                "start_time": 2.9545454545454546,
                "end_time": 3.175,
                "pitch": 28,
                "velocity": 20,
                "duration": 0.22045454545454524,
                "tempo": 120.0
            },
            {
                "start_time": 3.175,
                "end_time": 3.3954545454545455,
                "pitch": 26,
                "velocity": 20,
                "duration": 0.22045454545454568,
                "tempo": 120.0
            },
            {
                "start_time": 3.175,
                "end_time": 3.3954545454545455,
                "pitch": 26,
                "velocity": 20,
                "duration": 0.22045454545454568,
                "tempo": 120.0
            },
            {
                "start_time": 3.3954545454545455,
                "end_time": 3.6159090909090907,
                "pitch": 28,
                "velocity": 20,
                "duration": 0.22045454545454524,
                "tempo": 120.0
            },
            {
                "start_time": 3.3954545454545455,
                "end_time": 3.6159090909090907,
                "pitch": 28,
                "velocity": 20,
                "duration": 0.22045454545454524,
                "tempo": 120.0
            },
            {
                "start_time": 3.6159090909090907,
                "end_time": 3.618181818181818,
                "pitch": 26,
                "velocity": 20,
                "duration": 0.002272727272727426,
                "tempo": 120.0
            },
            {
                "start_time": 3.618181818181818,
                "end_time": 3.8386363636363634,
                "pitch": 26,
                "velocity": 20,
                "duration": 0.22045454545454524,
                "tempo": 120.0
            },
            {
                "start_time": 3.8386363636363634,
                "end_time": 4.059090909090909,
                "pitch": 28,
                "velocity": 20,
                "duration": 0.22045454545454524,
                "tempo": 120.0
            },
            {
                "start_time": 3.8386363636363634,
                "end_time": 4.059090909090909,
                "pitch": 28,
                "velocity": 20,
                "duration": 0.22045454545454524,
                "tempo": 120.0
            },
            {
                "start_time": 4.059090909090909,
                "end_time": 4.279545454545454,
                "pitch": 26,
                "velocity": 20,
                "duration": 0.22045454545454568,
                "tempo": 120.0
            },
            {
                "start_time": 4.059090909090909,
                "end_time": 4.279545454545454,
                "pitch": 26,
                "velocity": 20,
                "duration": 0.22045454545454568,
                "tempo": 120.0
            },
            {
                "start_time": 4.279545454545454,
                "end_time": 4.4840909090909085,
                "pitch": 28,
                "velocity": 20,
                "duration": 0.20454545454545414,
                "tempo": 120.0
            },
            {
                "start_time": 4.279545454545454,
                "end_time": 4.4840909090909085,
                "pitch": 28,
                "velocity": 25,
                "duration": 0.20454545454545414,
                "tempo": 120.0
            },
            {
                "start_time": 4.4840909090909085,
                "end_time": 4.6863636363636365,
                "pitch": 26,
                "velocity": 25,
                "duration": 0.20227272727272805,
                "tempo": 120.0
            },
            {
                "start_time": 4.4840909090909085,
                "end_time": 4.6863636363636365,
                "pitch": 26,
                "velocity": 25,
                "duration": 0.20227272727272805,
                "tempo": 120.0
            },
            {
                "start_time": 4.6863636363636365,
                "end_time": 4.890909090909091,
                "pitch": 28,
                "velocity": 25,
                "duration": 0.20454545454545414,
                "tempo": 120.0
            },
            {
                "start_time": 4.6863636363636365,
                "end_time": 4.890909090909091,
                "pitch": 28,
                "velocity": 25,
                "duration": 0.20454545454545414,
                "tempo": 120.0
            },
            {
                "start_time": 4.890909090909091,
                "end_time": 5.093181818181818,
                "pitch": 26,
                "velocity": 25,
                "duration": 0.20227272727272716,
                "tempo": 120.0
            },
            {
                "start_time": 4.890909090909091,
                "end_time": 5.093181818181818,
                "pitch": 26,
                "velocity": 25,
                "duration": 0.20227272727272716,
                "tempo": 120.0
            },
            {
                "start_time": 5.093181818181818,
                "end_time": 5.295454545454545,
                "pitch": 28,
                "velocity": 25,
                "duration": 0.20227272727272716,
                "tempo": 120.0
            },
            {
                "start_time": 5.093181818181818,
                "end_time": 5.295454545454545,
                "pitch": 28,
                "velocity": 25,
                "duration": 0.20227272727272716,
                "tempo": 120.0
            },
            {
                "start_time": 5.295454545454545,
                "end_time": 5.5,
                "pitch": 26,
                "velocity": 25,
                "duration": 0.20454545454545503,
                "tempo": 120.0
            },
            {
                "start_time": 5.295454545454545,
                "end_time": 5.5,
                "pitch": 26,
                "velocity": 25,
                "duration": 0.20454545454545503,
                "tempo": 120.0
            },
            {
                "start_time": 5.5,
                "end_time": 5.702272727272727,
                "pitch": 29,
                "velocity": 25,
                "duration": 0.20227272727272716,
                "tempo": 120.0
            },
            {
                "start_time": 5.5,
                "end_time": 5.702272727272727,
                "pitch": 29,
                "velocity": 32,
                "duration": 0.20227272727272716,
                "tempo": 120.0
            },
            {
                "start_time": 5.702272727272727,
                "end_time": 5.904545454545454,
                "pitch": 26,
                "velocity": 25,
                "duration": 0.20227272727272716,
                "tempo": 120.0
            },
            {
                "start_time": 5.702272727272727,
                "end_time": 5.904545454545454,
                "pitch": 26,
                "velocity": 32,
                "duration": 0.20227272727272716,
                "tempo": 120.0
            },
            {
                "start_time": 5.904545454545454,
                "end_time": 6.1045454545454545,
                "pitch": 28,
                "velocity": 25,
                "duration": 0.20000000000000018,
                "tempo": 120.0
            },
            {
                "start_time": 5.904545454545454,
                "end_time": 6.1045454545454545,
                "pitch": 28,
                "velocity": 32,
                "duration": 0.20000000000000018,
                "tempo": 120.0
            },
            {
                "start_time": 6.1045454545454545,
                "end_time": 6.306818181818182,
                "pitch": 26,
                "velocity": 32,
                "duration": 0.20227272727272716,
                "tempo": 120.0
            },
            {
                "start_time": 6.1068181818181815,
                "end_time": 6.306818181818182,
                "pitch": 26,
                "velocity": 32,
                "duration": 0.20000000000000018,
                "tempo": 120.0
            },
            {
                "start_time": 6.306818181818182,
                "end_time": 6.506818181818182,
                "pitch": 28,
                "velocity": 32,
                "duration": 0.20000000000000018,
                "tempo": 120.0
            },
            {
                "start_time": 6.306818181818182,
                "end_time": 6.506818181818182,
                "pitch": 28,
                "velocity": 32,
                "duration": 0.20000000000000018,
                "tempo": 120.0
            },
            {
                "start_time": 6.506818181818182,
                "end_time": 6.706818181818181,
                "pitch": 26,
                "velocity": 32,
                "duration": 0.1999999999999993,
                "tempo": 120.0
            },
            {
                "start_time": 6.506818181818182,
                "end_time": 6.706818181818181,
                "pitch": 26,
                "velocity": 32,
                "duration": 0.1999999999999993,
                "tempo": 120.0
            },
            {
                "start_time": 6.706818181818181,
                "end_time": 6.906818181818181,
                "pitch": 28,
                "velocity": 32,
                "duration": 0.20000000000000018,
                "tempo": 120.0
            },
            {
                "start_time": 6.706818181818181,
                "end_time": 6.906818181818181,
                "pitch": 28,
                "velocity": 32,
                "duration": 0.20000000000000018,
                "tempo": 120.0
            },
            {
                "start_time": 6.906818181818181,
                "end_time": 7.1068181818181815,
                "pitch": 26,
                "velocity": 32,
                "duration": 0.20000000000000018,
                "tempo": 120.0
            },
            {
                "start_time": 6.906818181818181,
                "end_time": 7.1068181818181815,
                "pitch": 26,
                "velocity": 32,
                "duration": 0.20000000000000018,
                "tempo": 120.0
            },
            {
                "start_time": 7.1068181818181815,
                "end_time": 7.306818181818182,
                "pitch": 28,
                "velocity": 32,
                "duration": 0.20000000000000018,
                "tempo": 120.0
            },
            {
                "start_time": 7.1068181818181815,
                "end_time": 7.306818181818182,
                "pitch": 28,
                "velocity": 32,
                "duration": 0.20000000000000018,
                "tempo": 120.0
            },
            {
                "start_time": 7.306818181818182,
                "end_time": 7.506818181818182,
                "pitch": 26,
                "velocity": 32,
                "duration": 0.20000000000000018,
                "tempo": 120.0
            },
            {
                "start_time": 7.306818181818182,
                "end_time": 7.506818181818182,
                "pitch": 26,
                "velocity": 32,
                "duration": 0.20000000000000018,
                "tempo": 120.0
            },
            {
                "start_time": 7.506818181818182,
                "end_time": 7.711363636363636,
                "pitch": 28,
                "velocity": 32,
                "duration": 0.20454545454545414,
                "tempo": 120.0
            },
            {
                "start_time": 7.506818181818182,
                "end_time": 7.711363636363636,
                "pitch": 28,
                "velocity": 40,
                "duration": 0.20454545454545414,
                "tempo": 120.0
            },
            {
                "start_time": 7.711363636363636,
                "end_time": 7.913636363636363,
                "pitch": 26,
                "velocity": 40,
                "duration": 0.20227272727272716,
                "tempo": 120.0
            },
            {
                "start_time": 7.711363636363636,
                "end_time": 7.913636363636363,
                "pitch": 26,
                "velocity": 40,
                "duration": 0.20227272727272716,
                "tempo": 120.0
            },
            {
                "start_time": 7.913636363636363,
                "end_time": 8.11590909090909,
                "pitch": 28,
                "velocity": 40,
                "duration": 0.20227272727272716,
                "tempo": 120.0
            },
            {
                "start_time": 7.913636363636363,
                "end_time": 8.11590909090909,
                "pitch": 28,
                "velocity": 40,
                "duration": 0.20227272727272716,
                "tempo": 120.0
            },
            {
                "start_time": 8.11590909090909,
                "end_time": 8.318181818181818,
                "pitch": 26,
                "velocity": 40,
                "duration": 0.20227272727272805,
                "tempo": 120.0
            },
            {
                "start_time": 8.11590909090909,
                "end_time": 8.318181818181818,
                "pitch": 26,
                "velocity": 40,
                "duration": 0.20227272727272805,
                "tempo": 120.0
            },
            {
                "start_time": 8.318181818181818,
                "end_time": 8.522727272727272,
                "pitch": 28,
                "velocity": 40,
                "duration": 0.20454545454545325,
                "tempo": 120.0
            },
            {
                "start_time": 8.320454545454545,
                "end_time": 8.522727272727272,
                "pitch": 28,
                "velocity": 51,
                "duration": 0.20227272727272627,
                "tempo": 120.0
            },
            {
                "start_time": 8.522727272727272,
                "end_time": 8.725,
                "pitch": 26,
                "velocity": 40,
                "duration": 0.20227272727272805,
                "tempo": 120.0
            },
            {
                "start_time": 8.522727272727272,
                "end_time": 8.725,
                "pitch": 26,
                "velocity": 51,
                "duration": 0.20227272727272805,
                "tempo": 120.0
            },
            {
                "start_time": 8.725,
                "end_time": 8.927272727272728,
                "pitch": 24,
                "velocity": 40,
                "duration": 0.20227272727272805,
                "tempo": 120.0
            },
            {
                "start_time": 8.725,
                "end_time": 8.927272727272728,
                "pitch": 24,
                "velocity": 40,
                "duration": 0.20227272727272805,
                "tempo": 120.0
            },
            {
                "start_time": 8.927272727272728,
                "end_time": 9.131818181818181,
                "pitch": 26,
                "velocity": 40,
                "duration": 0.20454545454545325,
                "tempo": 120.0
            },
            {
                "start_time": 8.927272727272728,
                "end_time": 9.131818181818181,
                "pitch": 26,
                "velocity": 40,
                "duration": 0.20454545454545325,
                "tempo": 120.0
            },
            {
                "start_time": 9.131818181818181,
                "end_time": 9.334090909090909,
                "pitch": 28,
                "velocity": 40,
                "duration": 0.20227272727272805,
                "tempo": 120.0
            },
            {
                "start_time": 9.131818181818181,
                "end_time": 9.334090909090909,
                "pitch": 28,
                "velocity": 51,
                "duration": 0.20227272727272805,
                "tempo": 120.0
            },
            {
                "start_time": 9.334090909090909,
                "end_time": 9.536363636363635,
                "pitch": 26,
                "velocity": 51,
                "duration": 0.20227272727272627,
                "tempo": 120.0
            },
            {
                "start_time": 9.334090909090909,
                "end_time": 9.536363636363635,
                "pitch": 26,
                "velocity": 51,
                "duration": 0.20227272727272627,
                "tempo": 120.0
            },
            {
                "start_time": 9.536363636363635,
                "end_time": 9.74090909090909,
                "pitch": 28,
                "velocity": 51,
                "duration": 0.20454545454545503,
                "tempo": 120.0
            },
            {
                "start_time": 9.536363636363635,
                "end_time": 9.74090909090909,
                "pitch": 28,
                "velocity": 51,
                "duration": 0.20454545454545503,
                "tempo": 120.0
            },
            {
                "start_time": 9.74090909090909,
                "end_time": 9.943181818181818,
                "pitch": 26,
                "velocity": 51,
                "duration": 0.20227272727272805,
                "tempo": 120.0
            },
            {
                "start_time": 9.74090909090909,
                "end_time": 9.943181818181818,
                "pitch": 26,
                "velocity": 51,
                "duration": 0.20227272727272805,
                "tempo": 120.0
            },
            {
                "start_time": 9.943181818181818,
                "end_time": 10.145454545454545,
                "pitch": 28,
                "velocity": 51,
                "duration": 0.20227272727272627,
                "tempo": 120.0
            },
            {
                "start_time": 9.943181818181818,
                "end_time": 10.145454545454545,
                "pitch": 28,
                "velocity": 51,
                "duration": 0.20227272727272627,
                "tempo": 120.0
            },
            {
                "start_time": 10.145454545454545,
                "end_time": 10.35,
                "pitch": 26,
                "velocity": 51,
                "duration": 0.20454545454545503,
                "tempo": 120.0
            },
            {
                "start_time": 10.145454545454545,
                "end_time": 10.35,
                "pitch": 26,
                "velocity": 51,
                "duration": 0.20454545454545503,
                "tempo": 120.0
            },
            {
                "start_time": 10.35,
                "end_time": 10.552272727272726,
                "pitch": 28,
                "velocity": 51,
                "duration": 0.20227272727272627,
                "tempo": 120.0
            },
            {
                "start_time": 10.35,
                "end_time": 10.552272727272726,
                "pitch": 28,
                "velocity": 51,
                "duration": 0.20227272727272627,
                "tempo": 120.0
            },
            {
                "start_time": 10.552272727272726,
                "end_time": 10.754545454545454,
                "pitch": 26,
                "velocity": 51,
                "duration": 0.20227272727272805,
                "tempo": 120.0
            },
            {
                "start_time": 10.552272727272726,
                "end_time": 10.754545454545454,
                "pitch": 26,
                "velocity": 51,
                "duration": 0.20227272727272805,
                "tempo": 120.0
            },
            {
                "start_time": 10.754545454545454,
                "end_time": 10.954545454545453,
                "pitch": 28,
                "velocity": 51,
                "duration": 0.1999999999999993,
                "tempo": 120.0
            },
            {
                "start_time": 10.754545454545454,
                "end_time": 10.954545454545453,
                "pitch": 28,
                "velocity": 64,
                "duration": 0.1999999999999993,
                "tempo": 120.0
            },
            {
                "start_time": 10.954545454545453,
                "end_time": 11.154545454545454,
                "pitch": 26,
                "velocity": 64,
                "duration": 0.20000000000000107,
                "tempo": 120.0
            },
            {
                "start_time": 10.954545454545453,
                "end_time": 11.154545454545454,
                "pitch": 26,
                "velocity": 64,
                "duration": 0.20000000000000107,
                "tempo": 120.0
            },
            {
                "start_time": 11.154545454545454,
                "end_time": 11.156818181818181,
                "pitch": 28,
                "velocity": 64,
                "duration": 0.002272727272726982,
                "tempo": 120.0
            },
            {
                "start_time": 11.156818181818181,
                "end_time": 11.35681818181818,
                "pitch": 28,
                "velocity": 64,
                "duration": 0.1999999999999993,
                "tempo": 120.0
            },
            {
                "start_time": 11.35681818181818,
                "end_time": 11.556818181818182,
                "pitch": 26,
                "velocity": 64,
                "duration": 0.20000000000000107,
                "tempo": 120.0
            },
            {
                "start_time": 11.35681818181818,
                "end_time": 11.556818181818182,
                "pitch": 26,
                "velocity": 64,
                "duration": 0.20000000000000107,
                "tempo": 120.0
            },
            {
                "start_time": 11.556818181818182,
                "end_time": 11.756818181818181,
                "pitch": 28,
                "velocity": 64,
                "duration": 0.1999999999999993,
                "tempo": 120.0
            },
            {
                "start_time": 11.556818181818182,
                "end_time": 11.756818181818181,
                "pitch": 28,
                "velocity": 64,
                "duration": 0.1999999999999993,
                "tempo": 120.0
            },
            {
                "start_time": 11.756818181818181,
                "end_time": 11.956818181818182,
                "pitch": 26,
                "velocity": 64,
                "duration": 0.20000000000000107,
                "tempo": 120.0
            },
            {
                "start_time": 11.756818181818181,
                "end_time": 11.956818181818182,
                "pitch": 26,
                "velocity": 64,
                "duration": 0.20000000000000107,
                "tempo": 120.0
            },
            {
                "start_time": 11.956818181818182,
                "end_time": 12.156818181818181,
                "pitch": 29,
                "velocity": 64,
                "duration": 0.1999999999999993,
                "tempo": 120.0
            },
            {
                "start_time": 11.956818181818182,
                "end_time": 12.156818181818181,
                "pitch": 29,
                "velocity": 80,
                "duration": 0.1999999999999993,
                "tempo": 120.0
            },
            {
                "start_time": 12.156818181818181,
                "end_time": 12.35681818181818,
                "pitch": 26,
                "velocity": 64,
                "duration": 0.1999999999999993,
                "tempo": 120.0
            },
            {
                "start_time": 12.156818181818181,
                "end_time": 12.35681818181818,
                "pitch": 26,
                "velocity": 80,
                "duration": 0.1999999999999993,
                "tempo": 120.0
            },
            {
                "start_time": 12.35681818181818,
                "end_time": 12.559090909090909,
                "pitch": 28,
                "velocity": 64,
                "duration": 0.20227272727272805,
                "tempo": 120.0
            },
            {
                "start_time": 12.35681818181818,
                "end_time": 12.559090909090909,
                "pitch": 28,
                "velocity": 80,
                "duration": 0.20227272727272805,
                "tempo": 120.0
            },
            {
                "start_time": 12.559090909090909,
                "end_time": 12.763636363636364,
                "pitch": 26,
                "velocity": 80,
                "duration": 0.20454545454545503,
                "tempo": 120.0
            },
            {
                "start_time": 12.559090909090909,
                "end_time": 12.763636363636364,
                "pitch": 26,
                "velocity": 80,
                "duration": 0.20454545454545503,
                "tempo": 120.0
            },
            {
                "start_time": 12.763636363636364,
                "end_time": 12.96590909090909,
                "pitch": 28,
                "velocity": 80,
                "duration": 0.20227272727272627,
                "tempo": 120.0
            },
            {
                "start_time": 12.763636363636364,
                "end_time": 12.96590909090909,
                "pitch": 28,
                "velocity": 80,
                "duration": 0.20227272727272627,
                "tempo": 120.0
            },
            {
                "start_time": 12.96590909090909,
                "end_time": 13.168181818181818,
                "pitch": 26,
                "velocity": 80,
                "duration": 0.20227272727272805,
                "tempo": 120.0
            },
            {
                "start_time": 12.96590909090909,
                "end_time": 13.168181818181818,
                "pitch": 26,
                "velocity": 80,
                "duration": 0.20227272727272805,
                "tempo": 120.0
            },
            {
                "start_time": 13.168181818181818,
                "end_time": 13.372727272727271,
                "pitch": 28,
                "velocity": 80,
                "duration": 0.20454545454545325,
                "tempo": 120.0
            },
            {
                "start_time": 13.168181818181818,
                "end_time": 13.372727272727271,
                "pitch": 28,
                "velocity": 80,
                "duration": 0.20454545454545325,
                "tempo": 120.0
            },
            {
                "start_time": 13.372727272727271,
                "end_time": 13.575,
                "pitch": 26,
                "velocity": 80,
                "duration": 0.20227272727272805,
                "tempo": 120.0
            },
            {
                "start_time": 13.372727272727271,
                "end_time": 13.575,
                "pitch": 26,
                "velocity": 80,
                "duration": 0.20227272727272805,
                "tempo": 120.0
            },
            {
                "start_time": 13.575,
                "end_time": 13.777272727272727,
                "pitch": 28,
                "velocity": 80,
                "duration": 0.20227272727272805,
                "tempo": 120.0
            },
            {
                "start_time": 13.575,
                "end_time": 13.777272727272727,
                "pitch": 28,
                "velocity": 80,
                "duration": 0.20227272727272805,
                "tempo": 120.0
            },
            {
                "start_time": 13.777272727272727,
                "end_time": 13.979545454545454,
                "pitch": 26,
                "velocity": 80,
                "duration": 0.20227272727272627,
                "tempo": 120.0
            },
            {
                "start_time": 13.777272727272727,
                "end_time": 13.979545454545454,
                "pitch": 26,
                "velocity": 80,
                "duration": 0.20227272727272627,
                "tempo": 120.0
            },
            {
                "start_time": 13.979545454545454,
                "end_time": 13.98181818181818,
                "pitch": 28,
                "velocity": 80,
                "duration": 0.002272727272726982,
                "tempo": 120.0
            },
            {
                "start_time": 13.98181818181818,
                "end_time": 14.184090909090909,
                "pitch": 28,
                "velocity": 80,
                "duration": 0.20227272727272805,
                "tempo": 120.0
            },
            {
                "start_time": 14.184090909090909,
                "end_time": 14.386363636363635,
                "pitch": 26,
                "velocity": 80,
                "duration": 0.20227272727272627,
                "tempo": 120.0
            },
            {
                "start_time": 14.184090909090909,
                "end_time": 14.386363636363635,
                "pitch": 26,
                "velocity": 80,
                "duration": 0.20227272727272627,
                "tempo": 120.0
            },
            {
                "start_time": 14.386363636363635,
                "end_time": 14.588636363636363,
                "pitch": 28,
                "velocity": 80,
                "duration": 0.20227272727272805,
                "tempo": 120.0
            },
            {
                "start_time": 14.386363636363635,
                "end_time": 14.588636363636363,
                "pitch": 28,
                "velocity": 80,
                "duration": 0.20227272727272805,
                "tempo": 120.0
            },
            {
                "start_time": 14.588636363636363,
                "end_time": 14.793181818181818,
                "pitch": 26,
                "velocity": 80,
                "duration": 0.20454545454545503,
                "tempo": 120.0
            },
            {
                "start_time": 14.59090909090909,
                "end_time": 14.793181818181818,
                "pitch": 26,
                "velocity": 80,
                "duration": 0.20227272727272805,
                "tempo": 120.0
            },
            {
                "start_time": 14.793181818181818,
                "end_time": 14.995454545454544,
                "pitch": 28,
                "velocity": 80,
                "duration": 0.20227272727272627,
                "tempo": 120.0
            },
            {
                "start_time": 14.793181818181818,
                "end_time": 14.995454545454544,
                "pitch": 28,
                "velocity": 101,
                "duration": 0.20227272727272627,
                "tempo": 120.0
            },
            {
                "start_time": 14.995454545454544,
                "end_time": 15.197727272727272,
                "pitch": 26,
                "velocity": 80,
                "duration": 0.20227272727272805,
                "tempo": 120.0
            },
            {
                "start_time": 14.995454545454544,
                "end_time": 15.197727272727272,
                "pitch": 26,
                "velocity": 101,
                "duration": 0.20227272727272805,
                "tempo": 120.0
            },
            {
                "start_time": 15.197727272727272,
                "end_time": 15.402272727272727,
                "pitch": 24,
                "velocity": 80,
                "duration": 0.20454545454545503,
                "tempo": 120.0
            },
            {
                "start_time": 15.197727272727272,
                "end_time": 15.402272727272727,
                "pitch": 24,
                "velocity": 80,
                "duration": 0.20454545454545503,
                "tempo": 120.0
            },
            {
                "start_time": 15.402272727272727,
                "end_time": 15.604545454545454,
                "pitch": 26,
                "velocity": 80,
                "duration": 0.20227272727272627,
                "tempo": 120.0
            },
            {
                "start_time": 15.402272727272727,
                "end_time": 15.604545454545454,
                "pitch": 26,
                "velocity": 80,
                "duration": 0.20227272727272627,
                "tempo": 120.0
            },
            {
                "start_time": 15.604545454545454,
                "end_time": 15.804545454545453,
                "pitch": 28,
                "velocity": 80,
                "duration": 0.1999999999999993,
                "tempo": 120.0
            },
            {
                "start_time": 15.604545454545454,
                "end_time": 15.804545454545453,
                "pitch": 28,
                "velocity": 127,
                "duration": 0.1999999999999993,
                "tempo": 120.0
            },
            {
                "start_time": 15.804545454545453,
                "end_time": 16.004545454545454,
                "pitch": 26,
                "velocity": 101,
                "duration": 0.20000000000000107,
                "tempo": 120.0
            },
            {
                "start_time": 15.804545454545453,
                "end_time": 16.004545454545454,
                "pitch": 26,
                "velocity": 127,
                "duration": 0.20000000000000107,
                "tempo": 120.0
            },
            {
                "start_time": 16.004545454545454,
                "end_time": 16.204545454545453,
                "pitch": 28,
                "velocity": 101,
                "duration": 0.1999999999999993,
                "tempo": 120.0
            },
            {
                "start_time": 16.004545454545454,
                "end_time": 16.204545454545453,
                "pitch": 28,
                "velocity": 101,
                "duration": 0.1999999999999993,
                "tempo": 120.0
            },
            {
                "start_time": 16.204545454545453,
                "end_time": 16.404545454545453,
                "pitch": 26,
                "velocity": 101,
                "duration": 0.1999999999999993,
                "tempo": 120.0
            },
            {
                "start_time": 16.204545454545453,
                "end_time": 16.404545454545453,
                "pitch": 26,
                "velocity": 101,
                "duration": 0.1999999999999993,
                "tempo": 120.0
            },
            {
                "start_time": 16.404545454545453,
                "end_time": 16.604545454545455,
                "pitch": 28,
                "velocity": 101,
                "duration": 0.20000000000000284,
                "tempo": 120.0
            },
            {
                "start_time": 16.404545454545453,
                "end_time": 16.604545454545455,
                "pitch": 28,
                "velocity": 101,
                "duration": 0.20000000000000284,
                "tempo": 120.0
            },
            {
                "start_time": 16.604545454545455,
                "end_time": 16.80681818181818,
                "pitch": 26,
                "velocity": 101,
                "duration": 0.2022727272727245,
                "tempo": 120.0
            },
            {
                "start_time": 16.60681818181818,
                "end_time": 16.80681818181818,
                "pitch": 26,
                "velocity": 101,
                "duration": 0.1999999999999993,
                "tempo": 120.0
            },
            {
                "start_time": 16.80681818181818,
                "end_time": 17.006818181818183,
                "pitch": 28,
                "velocity": 101,
                "duration": 0.20000000000000284,
                "tempo": 120.0
            },
            {
                "start_time": 16.80681818181818,
                "end_time": 17.006818181818183,
                "pitch": 28,
                "velocity": 101,
                "duration": 0.20000000000000284,
                "tempo": 120.0
            },
            {
                "start_time": 17.006818181818183,
                "end_time": 17.206818181818182,
                "pitch": 26,
                "velocity": 101,
                "duration": 0.1999999999999993,
                "tempo": 120.0
            },
            {
                "start_time": 17.006818181818183,
                "end_time": 17.206818181818182,
                "pitch": 26,
                "velocity": 101,
                "duration": 0.1999999999999993,
                "tempo": 120.0
            },
            {
                "start_time": 17.206818181818182,
                "end_time": 17.40681818181818,
                "pitch": 28,
                "velocity": 101,
                "duration": 0.1999999999999993,
                "tempo": 120.0
            },
            {
                "start_time": 17.206818181818182,
                "end_time": 17.40681818181818,
                "pitch": 28,
                "velocity": 101,
                "duration": 0.1999999999999993,
                "tempo": 120.0
            },
            {
                "start_time": 17.40681818181818,
                "end_time": 17.60681818181818,
                "pitch": 26,
                "velocity": 101,
                "duration": 0.1999999999999993,
                "tempo": 120.0
            },
            {
                "start_time": 17.40681818181818,
                "end_time": 17.60681818181818,
                "pitch": 26,
                "velocity": 101,
                "duration": 0.1999999999999993,
                "tempo": 120.0
            },
            {
                "start_time": 17.60681818181818,
                "end_time": 17.80681818181818,
                "pitch": 28,
                "velocity": 101,
                "duration": 0.1999999999999993,
                "tempo": 120.0
            },
            {
                "start_time": 17.60681818181818,
                "end_time": 17.80681818181818,
                "pitch": 28,
                "velocity": 101,
                "duration": 0.1999999999999993,
                "tempo": 120.0
            },
            {
                "start_time": 17.80681818181818,
                "end_time": 18.00681818181818,
                "pitch": 26,
                "velocity": 101,
                "duration": 0.1999999999999993,
                "tempo": 120.0
            },
            {
                "start_time": 17.80681818181818,
                "end_time": 18.00681818181818,
                "pitch": 26,
                "velocity": 101,
                "duration": 0.1999999999999993,
                "tempo": 120.0
            },
            {
                "start_time": 18.00681818181818,
                "end_time": 18.206818181818182,
                "pitch": 28,
                "velocity": 101,
                "duration": 0.20000000000000284,
                "tempo": 120.0
            },
            {
                "start_time": 18.00681818181818,
                "end_time": 18.206818181818182,
                "pitch": 28,
                "velocity": 101,
                "duration": 0.20000000000000284,
                "tempo": 120.0
            },
            {
                "start_time": 18.206818181818182,
                "end_time": 18.409090909090907,
                "pitch": 26,
                "velocity": 101,
                "duration": 0.2022727272727245,
                "tempo": 120.0
            },
            {
                "start_time": 18.206818181818182,
                "end_time": 18.409090909090907,
                "pitch": 26,
                "velocity": 101,
                "duration": 0.2022727272727245,
                "tempo": 120.0
            },
            {
                "start_time": 18.409090909090907,
                "end_time": 18.60909090909091,
                "pitch": 29,
                "velocity": 101,
                "duration": 0.20000000000000284,
                "tempo": 120.0
            },
            {
                "start_time": 18.409090909090907,
                "end_time": 18.60909090909091,
                "pitch": 29,
                "velocity": 127,
                "duration": 0.20000000000000284,
                "tempo": 120.0
            },
            {
                "start_time": 18.60909090909091,
                "end_time": 18.80909090909091,
                "pitch": 26,
                "velocity": 101,
                "duration": 0.1999999999999993,
                "tempo": 120.0
            },
            {
                "start_time": 18.60909090909091,
                "end_time": 18.80909090909091,
                "pitch": 26,
                "velocity": 127,
                "duration": 0.1999999999999993,
                "tempo": 120.0
            },
            {
                "start_time": 18.80909090909091,
                "end_time": 19.011363636363637,
                "pitch": 28,
                "velocity": 101,
                "duration": 0.20227272727272805,
                "tempo": 120.0
            },
            {
                "start_time": 18.80909090909091,
                "end_time": 19.011363636363637,
                "pitch": 28,
                "velocity": 127,
                "duration": 0.20227272727272805,
                "tempo": 120.0
            },
            {
                "start_time": 19.011363636363637,
                "end_time": 19.21363636363636,
                "pitch": 26,
                "velocity": 101,
                "duration": 0.2022727272727245,
                "tempo": 120.0
            },
            {
                "start_time": 19.011363636363637,
                "end_time": 19.21363636363636,
                "pitch": 26,
                "velocity": 127,
                "duration": 0.2022727272727245,
                "tempo": 120.0
            },
            {
                "start_time": 19.21363636363636,
                "end_time": 19.418181818181818,
                "pitch": 28,
                "velocity": 101,
                "duration": 0.2045454545454568,
                "tempo": 120.0
            },
            {
                "start_time": 19.21363636363636,
                "end_time": 19.418181818181818,
                "pitch": 28,
                "velocity": 101,
                "duration": 0.2045454545454568,
                "tempo": 120.0
            },
            {
                "start_time": 19.418181818181818,
                "end_time": 19.620454545454546,
                "pitch": 26,
                "velocity": 101,
                "duration": 0.20227272727272805,
                "tempo": 120.0
            },
            {
                "start_time": 19.418181818181818,
                "end_time": 19.620454545454546,
                "pitch": 26,
                "velocity": 101,
                "duration": 0.20227272727272805,
                "tempo": 120.0
            },
            {
                "start_time": 19.620454545454546,
                "end_time": 19.82272727272727,
                "pitch": 28,
                "velocity": 101,
                "duration": 0.2022727272727245,
                "tempo": 120.0
            },
            {
                "start_time": 19.620454545454546,
                "end_time": 19.82272727272727,
                "pitch": 28,
                "velocity": 101,
                "duration": 0.2022727272727245,
                "tempo": 120.0
            },
            {
                "start_time": 19.82272727272727,
                "end_time": 20.025,
                "pitch": 26,
                "velocity": 101,
                "duration": 0.20227272727272805,
                "tempo": 120.0
            },
            {
                "start_time": 19.82272727272727,
                "end_time": 20.025,
                "pitch": 26,
                "velocity": 101,
                "duration": 0.20227272727272805,
                "tempo": 120.0
            },
            {
                "start_time": 20.025,
                "end_time": 20.027272727272727,
                "pitch": 28,
                "velocity": 101,
                "duration": 0.0022727272727287584,
                "tempo": 120.0
            },
            {
                "start_time": 20.027272727272727,
                "end_time": 20.229545454545452,
                "pitch": 28,
                "velocity": 101,
                "duration": 0.2022727272727245,
                "tempo": 120.0
            },
            {
                "start_time": 20.229545454545452,
                "end_time": 20.43181818181818,
                "pitch": 26,
                "velocity": 101,
                "duration": 0.20227272727272805,
                "tempo": 120.0
            },
            {
                "start_time": 20.229545454545452,
                "end_time": 20.43181818181818,
                "pitch": 26,
                "velocity": 101,
                "duration": 0.20227272727272805,
                "tempo": 120.0
            },
            {
                "start_time": 20.43181818181818,
                "end_time": 20.63181818181818,
                "pitch": 28,
                "velocity": 101,
                "duration": 0.1999999999999993,
                "tempo": 120.0
            },
            {
                "start_time": 20.43181818181818,
                "end_time": 20.63181818181818,
                "pitch": 28,
                "velocity": 101,
                "duration": 0.1999999999999993,
                "tempo": 120.0
            },
            {
                "start_time": 20.63181818181818,
                "end_time": 20.831818181818182,
                "pitch": 26,
                "velocity": 101,
                "duration": 0.20000000000000284,
                "tempo": 120.0
            },
            {
                "start_time": 20.63181818181818,
                "end_time": 20.831818181818182,
                "pitch": 26,
                "velocity": 101,
                "duration": 0.20000000000000284,
                "tempo": 120.0
            },
            {
                "start_time": 20.831818181818182,
                "end_time": 21.03181818181818,
                "pitch": 28,
                "velocity": 101,
                "duration": 0.1999999999999993,
                "tempo": 120.0
            },
            {
                "start_time": 20.831818181818182,
                "end_time": 21.03181818181818,
                "pitch": 28,
                "velocity": 101,
                "duration": 0.1999999999999993,
                "tempo": 120.0
            },
            {
                "start_time": 21.03181818181818,
                "end_time": 21.034090909090907,
                "pitch": 26,
                "velocity": 101,
                "duration": 0.0022727272727252057,
                "tempo": 120.0
            },
            {
                "start_time": 21.034090909090907,
                "end_time": 21.23409090909091,
                "pitch": 26,
                "velocity": 101,
                "duration": 0.20000000000000284,
                "tempo": 120.0
            },
            {
                "start_time": 21.23409090909091,
                "end_time": 21.43409090909091,
                "pitch": 28,
                "velocity": 101,
                "duration": 0.1999999999999993,
                "tempo": 120.0
            },
            {
                "start_time": 21.23409090909091,
                "end_time": 21.43409090909091,
                "pitch": 28,
                "velocity": 127,
                "duration": 0.1999999999999993,
                "tempo": 120.0
            },
            {
                "start_time": 21.43409090909091,
                "end_time": 21.634090909090908,
                "pitch": 26,
                "velocity": 101,
                "duration": 0.1999999999999993,
                "tempo": 120.0
            },
            {
                "start_time": 21.43409090909091,
                "end_time": 21.634090909090908,
                "pitch": 26,
                "velocity": 127,
                "duration": 0.1999999999999993,
                "tempo": 120.0
            },
            {
                "start_time": 21.634090909090908,
                "end_time": 21.834090909090907,
                "pitch": 24,
                "velocity": 101,
                "duration": 0.1999999999999993,
                "tempo": 120.0
            },
            {
                "start_time": 21.634090909090908,
                "end_time": 21.834090909090907,
                "pitch": 24,
                "velocity": 101,
                "duration": 0.1999999999999993,
                "tempo": 120.0
            },
            {
                "start_time": 21.834090909090907,
                "end_time": 22.034090909090907,
                "pitch": 26,
                "velocity": 101,
                "duration": 0.1999999999999993,
                "tempo": 120.0
            },
            {
                "start_time": 21.834090909090907,
                "end_time": 22.034090909090907,
                "pitch": 26,
                "velocity": 101,
                "duration": 0.1999999999999993,
                "tempo": 120.0
            },
            {
                "start_time": 22.034090909090907,
                "end_time": 22.236363636363635,
                "pitch": 28,
                "velocity": 101,
                "duration": 0.20227272727272805,
                "tempo": 120.0
            },
            {
                "start_time": 22.034090909090907,
                "end_time": 22.236363636363635,
                "pitch": 28,
                "velocity": 127,
                "duration": 0.20227272727272805,
                "tempo": 120.0
            },
            {
                "start_time": 22.236363636363635,
                "end_time": 22.44090909090909,
                "pitch": 26,
                "velocity": 101,
                "duration": 0.2045454545454568,
                "tempo": 120.0
            },
            {
                "start_time": 22.236363636363635,
                "end_time": 22.44090909090909,
                "pitch": 26,
                "velocity": 127,
                "duration": 0.2045454545454568,
                "tempo": 120.0
            },
            {
                "start_time": 22.44090909090909,
                "end_time": 22.643181818181816,
                "pitch": 28,
                "velocity": 101,
                "duration": 0.2022727272727245,
                "tempo": 120.0
            },
            {
                "start_time": 22.44090909090909,
                "end_time": 22.643181818181816,
                "pitch": 28,
                "velocity": 101,
                "duration": 0.2022727272727245,
                "tempo": 120.0
            },
            {
                "start_time": 22.643181818181816,
                "end_time": 22.845454545454544,
                "pitch": 26,
                "velocity": 101,
                "duration": 0.20227272727272805,
                "tempo": 120.0
            },
            {
                "start_time": 22.643181818181816,
                "end_time": 22.845454545454544,
                "pitch": 26,
                "velocity": 101,
                "duration": 0.20227272727272805,
                "tempo": 120.0
            },
            {
                "start_time": 22.845454545454544,
                "end_time": 23.049999999999997,
                "pitch": 28,
                "velocity": 101,
                "duration": 0.20454545454545325,
                "tempo": 120.0
            },
            {
                "start_time": 22.845454545454544,
                "end_time": 23.049999999999997,
                "pitch": 28,
                "velocity": 101,
                "duration": 0.20454545454545325,
                "tempo": 120.0
            },
            {
                "start_time": 23.049999999999997,
                "end_time": 23.252272727272725,
                "pitch": 26,
                "velocity": 101,
                "duration": 0.20227272727272805,
                "tempo": 120.0
            },
            {
                "start_time": 23.049999999999997,
                "end_time": 23.252272727272725,
                "pitch": 26,
                "velocity": 101,
                "duration": 0.20227272727272805,
                "tempo": 120.0
            },
            {
                "start_time": 23.252272727272725,
                "end_time": 23.454545454545453,
                "pitch": 28,
                "velocity": 101,
                "duration": 0.20227272727272805,
                "tempo": 120.0
            },
            {
                "start_time": 23.252272727272725,
                "end_time": 23.454545454545453,
                "pitch": 28,
                "velocity": 101,
                "duration": 0.20227272727272805,
                "tempo": 120.0
            },
            {
                "start_time": 23.454545454545453,
                "end_time": 23.65681818181818,
                "pitch": 26,
                "velocity": 101,
                "duration": 0.20227272727272805,
                "tempo": 120.0
            },
            {
                "start_time": 23.454545454545453,
                "end_time": 23.65681818181818,
                "pitch": 26,
                "velocity": 101,
                "duration": 0.20227272727272805,
                "tempo": 120.0
            },
            {
                "start_time": 23.65681818181818,
                "end_time": 23.85909090909091,
                "pitch": 28,
                "velocity": 101,
                "duration": 0.20227272727272805,
                "tempo": 120.0
            },
            {
                "start_time": 23.659090909090907,
                "end_time": 23.85909090909091,
                "pitch": 28,
                "velocity": 101,
                "duration": 0.20000000000000284,
                "tempo": 120.0
            },
            {
                "start_time": 23.85909090909091,
                "end_time": 24.05909090909091,
                "pitch": 26,
                "velocity": 101,
                "duration": 0.1999999999999993,
                "tempo": 120.0
            },
            {
                "start_time": 23.85909090909091,
                "end_time": 24.05909090909091,
                "pitch": 26,
                "velocity": 101,
                "duration": 0.1999999999999993,
                "tempo": 120.0
            },
            {
                "start_time": 24.05909090909091,
                "end_time": 24.259090909090908,
                "pitch": 28,
                "velocity": 101,
                "duration": 0.1999999999999993,
                "tempo": 120.0
            },
            {
                "start_time": 24.05909090909091,
                "end_time": 24.259090909090908,
                "pitch": 28,
                "velocity": 101,
                "duration": 0.1999999999999993,
                "tempo": 120.0
            },
            {
                "start_time": 24.259090909090908,
                "end_time": 24.459090909090907,
                "pitch": 26,
                "velocity": 101,
                "duration": 0.1999999999999993,
                "tempo": 120.0
            },
            {
                "start_time": 24.259090909090908,
                "end_time": 24.459090909090907,
                "pitch": 26,
                "velocity": 101,
                "duration": 0.1999999999999993,
                "tempo": 120.0
            },
            {
                "start_time": 24.459090909090907,
                "end_time": 24.659090909090907,
                "pitch": 28,
                "velocity": 101,
                "duration": 0.1999999999999993,
                "tempo": 120.0
            },
            {
                "start_time": 24.459090909090907,
                "end_time": 24.659090909090907,
                "pitch": 28,
                "velocity": 101,
                "duration": 0.1999999999999993,
                "tempo": 120.0
            },
            {
                "start_time": 24.659090909090907,
                "end_time": 24.85909090909091,
                "pitch": 26,
                "velocity": 101,
                "duration": 0.20000000000000284,
                "tempo": 120.0
            },
            {
                "start_time": 24.659090909090907,
                "end_time": 24.85909090909091,
                "pitch": 26,
                "velocity": 101,
                "duration": 0.20000000000000284,
                "tempo": 120.0
            },
            {
                "start_time": 24.85909090909091,
                "end_time": 25.061363636363634,
                "pitch": 29,
                "velocity": 101,
                "duration": 0.2022727272727245,
                "tempo": 120.0
            },
            {
                "start_time": 24.85909090909091,
                "end_time": 25.061363636363634,
                "pitch": 29,
                "velocity": 127,
                "duration": 0.2022727272727245,
                "tempo": 120.0
            },
            {
                "start_time": 25.061363636363634,
                "end_time": 25.261363636363637,
                "pitch": 26,
                "velocity": 101,
                "duration": 0.20000000000000284,
                "tempo": 120.0
            },
            {
                "start_time": 25.061363636363634,
                "end_time": 25.261363636363637,
                "pitch": 26,
                "velocity": 127,
                "duration": 0.20000000000000284,
                "tempo": 120.0
            },
            {
                "start_time": 25.261363636363637,
                "end_time": 25.46363636363636,
                "pitch": 28,
                "velocity": 101,
                "duration": 0.2022727272727245,
                "tempo": 120.0
            },
            {
                "start_time": 25.261363636363637,
                "end_time": 25.46363636363636,
                "pitch": 28,
                "velocity": 127,
                "duration": 0.2022727272727245,
                "tempo": 120.0
            },
            {
                "start_time": 25.46363636363636,
                "end_time": 25.66590909090909,
                "pitch": 26,
                "velocity": 101,
                "duration": 0.20227272727272805,
                "tempo": 120.0
            },
            {
                "start_time": 25.46363636363636,
                "end_time": 25.66590909090909,
                "pitch": 26,
                "velocity": 127,
                "duration": 0.20227272727272805,
                "tempo": 120.0
            },
            {
                "start_time": 25.66590909090909,
                "end_time": 25.868181818181817,
                "pitch": 28,
                "velocity": 101,
                "duration": 0.20227272727272805,
                "tempo": 120.0
            },
            {
                "start_time": 25.66590909090909,
                "end_time": 25.868181818181817,
                "pitch": 28,
                "velocity": 101,
                "duration": 0.20227272727272805,
                "tempo": 120.0
            },
            {
                "start_time": 25.868181818181817,
                "end_time": 26.07272727272727,
                "pitch": 26,
                "velocity": 101,
                "duration": 0.20454545454545325,
                "tempo": 120.0
            },
            {
                "start_time": 25.868181818181817,
                "end_time": 26.07272727272727,
                "pitch": 26,
                "velocity": 101,
                "duration": 0.20454545454545325,
                "tempo": 120.0
            },
            {
                "start_time": 26.07272727272727,
                "end_time": 26.275,
                "pitch": 28,
                "velocity": 101,
                "duration": 0.20227272727272805,
                "tempo": 120.0
            },
            {
                "start_time": 26.07272727272727,
                "end_time": 26.275,
                "pitch": 28,
                "velocity": 101,
                "duration": 0.20227272727272805,
                "tempo": 120.0
            },
            {
                "start_time": 26.275,
                "end_time": 26.477272727272727,
                "pitch": 26,
                "velocity": 101,
                "duration": 0.20227272727272805,
                "tempo": 120.0
            },
            {
                "start_time": 26.275,
                "end_time": 26.477272727272727,
                "pitch": 26,
                "velocity": 101,
                "duration": 0.20227272727272805,
                "tempo": 120.0
            },
            {
                "start_time": 26.477272727272727,
                "end_time": 26.679545454545455,
                "pitch": 28,
                "velocity": 101,
                "duration": 0.20227272727272805,
                "tempo": 120.0
            },
            {
                "start_time": 26.477272727272727,
                "end_time": 26.679545454545455,
                "pitch": 28,
                "velocity": 101,
                "duration": 0.20227272727272805,
                "tempo": 120.0
            },
            {
                "start_time": 26.679545454545455,
                "end_time": 26.68181818181818,
                "pitch": 26,
                "velocity": 101,
                "duration": 0.0022727272727252057,
                "tempo": 120.0
            },
            {
                "start_time": 26.68181818181818,
                "end_time": 26.884090909090908,
                "pitch": 26,
                "velocity": 101,
                "duration": 0.20227272727272805,
                "tempo": 120.0
            },
            {
                "start_time": 26.884090909090908,
                "end_time": 27.084090909090907,
                "pitch": 28,
                "velocity": 101,
                "duration": 0.1999999999999993,
                "tempo": 120.0
            },
            {
                "start_time": 26.884090909090908,
                "end_time": 27.084090909090907,
                "pitch": 28,
                "velocity": 101,
                "duration": 0.1999999999999993,
                "tempo": 120.0
            },
            {
                "start_time": 27.084090909090907,
                "end_time": 27.284090909090907,
                "pitch": 26,
                "velocity": 101,
                "duration": 0.1999999999999993,
                "tempo": 120.0
            },
            {
                "start_time": 27.084090909090907,
                "end_time": 27.284090909090907,
                "pitch": 26,
                "velocity": 101,
                "duration": 0.1999999999999993,
                "tempo": 120.0
            },
            {
                "start_time": 27.284090909090907,
                "end_time": 27.48409090909091,
                "pitch": 28,
                "velocity": 101,
                "duration": 0.20000000000000284,
                "tempo": 120.0
            },
            {
                "start_time": 27.284090909090907,
                "end_time": 27.48409090909091,
                "pitch": 28,
                "velocity": 101,
                "duration": 0.20000000000000284,
                "tempo": 120.0
            },
            {
                "start_time": 27.48409090909091,
                "end_time": 27.68409090909091,
                "pitch": 26,
                "velocity": 101,
                "duration": 0.1999999999999993,
                "tempo": 120.0
            },
            {
                "start_time": 27.48409090909091,
                "end_time": 27.68409090909091,
                "pitch": 26,
                "velocity": 101,
                "duration": 0.1999999999999993,
                "tempo": 120.0
            },
            {
                "start_time": 27.68409090909091,
                "end_time": 27.686363636363634,
                "pitch": 28,
                "velocity": 101,
                "duration": 0.0022727272727252057,
                "tempo": 120.0
            },
            {
                "start_time": 27.686363636363634,
                "end_time": 27.886363636363637,
                "pitch": 28,
                "velocity": 127,
                "duration": 0.20000000000000284,
                "tempo": 120.0
            },
            {
                "start_time": 27.886363636363637,
                "end_time": 28.086363636363636,
                "pitch": 26,
                "velocity": 101,
                "duration": 0.1999999999999993,
                "tempo": 120.0
            },
            {
                "start_time": 27.886363636363637,
                "end_time": 28.086363636363636,
                "pitch": 26,
                "velocity": 127,
                "duration": 0.1999999999999993,
                "tempo": 120.0
            },
            {
                "start_time": 28.086363636363636,
                "end_time": 28.286363636363635,
                "pitch": 24,
                "velocity": 101,
                "duration": 0.1999999999999993,
                "tempo": 120.0
            },
            {
                "start_time": 28.086363636363636,
                "end_time": 28.286363636363635,
                "pitch": 24,
                "velocity": 101,
                "duration": 0.1999999999999993,
                "tempo": 120.0
            },
            {
                "start_time": 28.286363636363635,
                "end_time": 28.486363636363635,
                "pitch": 26,
                "velocity": 101,
                "duration": 0.1999999999999993,
                "tempo": 120.0
            },
            {
                "start_time": 28.286363636363635,
                "end_time": 28.486363636363635,
                "pitch": 26,
                "velocity": 101,
                "duration": 0.1999999999999993,
                "tempo": 120.0
            },
            {
                "start_time": 28.486363636363635,
                "end_time": 28.686363636363634,
                "pitch": 28,
                "velocity": 101,
                "duration": 0.1999999999999993,
                "tempo": 120.0
            },
            {
                "start_time": 28.486363636363635,
                "end_time": 28.686363636363634,
                "pitch": 28,
                "velocity": 127,
                "duration": 0.1999999999999993,
                "tempo": 120.0
            },
            {
                "start_time": 28.686363636363634,
                "end_time": 28.886363636363637,
                "pitch": 26,
                "velocity": 101,
                "duration": 0.20000000000000284,
                "tempo": 120.0
            },
            {
                "start_time": 28.686363636363634,
                "end_time": 28.886363636363637,
                "pitch": 26,
                "velocity": 127,
                "duration": 0.20000000000000284,
                "tempo": 120.0
            },
            {
                "start_time": 28.886363636363637,
                "end_time": 29.086363636363636,
                "pitch": 28,
                "velocity": 101,
                "duration": 0.1999999999999993,
                "tempo": 120.0
            },
            {
                "start_time": 28.886363636363637,
                "end_time": 29.086363636363636,
                "pitch": 28,
                "velocity": 101,
                "duration": 0.1999999999999993,
                "tempo": 120.0
            },
            {
                "start_time": 29.086363636363636,
                "end_time": 29.286363636363635,
                "pitch": 26,
                "velocity": 101,
                "duration": 0.1999999999999993,
                "tempo": 120.0
            },
            {
                "start_time": 29.086363636363636,
                "end_time": 29.286363636363635,
                "pitch": 26,
                "velocity": 101,
                "duration": 0.1999999999999993,
                "tempo": 120.0
            },
            {
                "start_time": 29.286363636363635,
                "end_time": 29.488636363636363,
                "pitch": 28,
                "velocity": 101,
                "duration": 0.20227272727272805,
                "tempo": 120.0
            },
            {
                "start_time": 29.286363636363635,
                "end_time": 29.488636363636363,
                "pitch": 28,
                "velocity": 101,
                "duration": 0.20227272727272805,
                "tempo": 120.0
            },
            {
                "start_time": 29.488636363636363,
                "end_time": 29.688636363636363,
                "pitch": 26,
                "velocity": 101,
                "duration": 0.1999999999999993,
                "tempo": 120.0
            },
            {
                "start_time": 29.488636363636363,
                "end_time": 29.688636363636363,
                "pitch": 26,
                "velocity": 101,
                "duration": 0.1999999999999993,
                "tempo": 120.0
            },
            {
                "start_time": 29.688636363636363,
                "end_time": 29.888636363636362,
                "pitch": 28,
                "velocity": 101,
                "duration": 0.1999999999999993,
                "tempo": 120.0
            },
            {
                "start_time": 29.688636363636363,
                "end_time": 29.888636363636362,
                "pitch": 28,
                "velocity": 101,
                "duration": 0.1999999999999993,
                "tempo": 120.0
            },
            {
                "start_time": 29.888636363636362,
                "end_time": 30.08863636363636,
                "pitch": 26,
                "velocity": 101,
                "duration": 0.1999999999999993,
                "tempo": 120.0
            },
            {
                "start_time": 29.888636363636362,
                "end_time": 30.08863636363636,
                "pitch": 26,
                "velocity": 101,
                "duration": 0.1999999999999993,
                "tempo": 120.0
            },
            {
                "start_time": 30.08863636363636,
                "end_time": 30.29090909090909,
                "pitch": 28,
                "velocity": 101,
                "duration": 0.20227272727272805,
                "tempo": 120.0
            },
            {
                "start_time": 30.08863636363636,
                "end_time": 30.29090909090909,
                "pitch": 28,
                "velocity": 101,
                "duration": 0.20227272727272805,
                "tempo": 120.0
            },
            {
                "start_time": 30.29090909090909,
                "end_time": 30.493181818181817,
                "pitch": 26,
                "velocity": 101,
                "duration": 0.20227272727272805,
                "tempo": 120.0
            },
            {
                "start_time": 30.29090909090909,
                "end_time": 30.493181818181817,
                "pitch": 26,
                "velocity": 101,
                "duration": 0.20227272727272805,
                "tempo": 120.0
            },
            {
                "start_time": 30.493181818181817,
                "end_time": 30.495454545454542,
                "pitch": 28,
                "velocity": 101,
                "duration": 0.0022727272727252057,
                "tempo": 120.0
            },
            {
                "start_time": 30.495454545454542,
                "end_time": 30.69772727272727,
                "pitch": 28,
                "velocity": 101,
                "duration": 0.20227272727272805,
                "tempo": 120.0
            },
            {
                "start_time": 30.69772727272727,
                "end_time": 30.9,
                "pitch": 26,
                "velocity": 101,
                "duration": 0.20227272727272805,
                "tempo": 120.0
            },
            {
                "start_time": 30.69772727272727,
                "end_time": 30.9,
                "pitch": 26,
                "velocity": 101,
                "duration": 0.20227272727272805,
                "tempo": 120.0
            },
            {
                "start_time": 30.9,
                "end_time": 31.102272727272727,
                "pitch": 28,
                "velocity": 101,
                "duration": 0.20227272727272805,
                "tempo": 120.0
            },
            {
                "start_time": 30.9,
                "end_time": 31.102272727272727,
                "pitch": 28,
                "velocity": 101,
                "duration": 0.20227272727272805,
                "tempo": 120.0
            },
            {
                "start_time": 31.102272727272727,
                "end_time": 31.30681818181818,
                "pitch": 26,
                "velocity": 101,
                "duration": 0.20454545454545325,
                "tempo": 120.0
            },
            {
                "start_time": 31.104545454545452,
                "end_time": 31.30681818181818,
                "pitch": 26,
                "velocity": 101,
                "duration": 0.20227272727272805,
                "tempo": 120.0
            },
            {
                "start_time": 31.30681818181818,
                "end_time": 31.509090909090908,
                "pitch": 29,
                "velocity": 101,
                "duration": 0.20227272727272805,
                "tempo": 120.0
            },
            {
                "start_time": 31.30681818181818,
                "end_time": 31.509090909090908,
                "pitch": 29,
                "velocity": 127,
                "duration": 0.20227272727272805,
                "tempo": 120.0
            },
            {
                "start_time": 31.509090909090908,
                "end_time": 31.711363636363636,
                "pitch": 26,
                "velocity": 101,
                "duration": 0.20227272727272805,
                "tempo": 120.0
            },
            {
                "start_time": 31.509090909090908,
                "end_time": 31.711363636363636,
                "pitch": 26,
                "velocity": 127,
                "duration": 0.20227272727272805,
                "tempo": 120.0
            },
            {
                "start_time": 31.711363636363636,
                "end_time": 31.91590909090909,
                "pitch": 28,
                "velocity": 101,
                "duration": 0.20454545454545325,
                "tempo": 120.0
            },
            {
                "start_time": 31.711363636363636,
                "end_time": 31.91590909090909,
                "pitch": 28,
                "velocity": 127,
                "duration": 0.20454545454545325,
                "tempo": 120.0
            },
            {
                "start_time": 31.91590909090909,
                "end_time": 32.11818181818182,
                "pitch": 26,
                "velocity": 101,
                "duration": 0.20227272727272805,
                "tempo": 120.0
            },
            {
                "start_time": 31.91590909090909,
                "end_time": 32.11818181818182,
                "pitch": 26,
                "velocity": 127,
                "duration": 0.20227272727272805,
                "tempo": 120.0
            },
            {
                "start_time": 32.11818181818182,
                "end_time": 32.320454545454545,
                "pitch": 28,
                "velocity": 101,
                "duration": 0.20227272727272805,
                "tempo": 120.0
            },
            {
                "start_time": 32.11818181818182,
                "end_time": 32.320454545454545,
                "pitch": 28,
                "velocity": 101,
                "duration": 0.20227272727272805,
                "tempo": 120.0
            },
            {
                "start_time": 32.320454545454545,
                "end_time": 32.525,
                "pitch": 26,
                "velocity": 101,
                "duration": 0.20454545454545325,
                "tempo": 120.0
            },
            {
                "start_time": 32.320454545454545,
                "end_time": 32.525,
                "pitch": 26,
                "velocity": 101,
                "duration": 0.20454545454545325,
                "tempo": 120.0
            },
            {
                "start_time": 32.525,
                "end_time": 32.72727272727273,
                "pitch": 28,
                "velocity": 101,
                "duration": 0.20227272727272805,
                "tempo": 120.0
            },
            {
                "start_time": 32.525,
                "end_time": 32.72727272727273,
                "pitch": 28,
                "velocity": 101,
                "duration": 0.20227272727272805,
                "tempo": 120.0
            },
            {
                "start_time": 32.72727272727273,
                "end_time": 32.929545454545455,
                "pitch": 26,
                "velocity": 101,
                "duration": 0.20227272727272805,
                "tempo": 120.0
            },
            {
                "start_time": 32.72727272727273,
                "end_time": 32.929545454545455,
                "pitch": 26,
                "velocity": 101,
                "duration": 0.20227272727272805,
                "tempo": 120.0
            },
            {
                "start_time": 32.929545454545455,
                "end_time": 33.13181818181818,
                "pitch": 28,
                "velocity": 101,
                "duration": 0.20227272727272805,
                "tempo": 120.0
            },
            {
                "start_time": 32.929545454545455,
                "end_time": 33.13181818181818,
                "pitch": 28,
                "velocity": 101,
                "duration": 0.20227272727272805,
                "tempo": 120.0
            },
            {
                "start_time": 33.13181818181818,
                "end_time": 33.336363636363636,
                "pitch": 26,
                "velocity": 101,
                "duration": 0.20454545454545325,
                "tempo": 120.0
            },
            {
                "start_time": 33.13181818181818,
                "end_time": 33.336363636363636,
                "pitch": 26,
                "velocity": 101,
                "duration": 0.20454545454545325,
                "tempo": 120.0
            },
            {
                "start_time": 33.336363636363636,
                "end_time": 33.53636363636363,
                "pitch": 28,
                "velocity": 101,
                "duration": 0.19999999999999574,
                "tempo": 120.0
            },
            {
                "start_time": 33.336363636363636,
                "end_time": 33.53636363636363,
                "pitch": 28,
                "velocity": 101,
                "duration": 0.19999999999999574,
                "tempo": 120.0
            },
            {
                "start_time": 33.53636363636363,
                "end_time": 33.736363636363635,
                "pitch": 26,
                "velocity": 101,
                "duration": 0.20000000000000284,
                "tempo": 120.0
            },
            {
                "start_time": 33.53636363636363,
                "end_time": 33.736363636363635,
                "pitch": 26,
                "velocity": 101,
                "duration": 0.20000000000000284,
                "tempo": 120.0
            },
            {
                "start_time": 33.736363636363635,
                "end_time": 33.93636363636364,
                "pitch": 28,
                "velocity": 101,
                "duration": 0.20000000000000284,
                "tempo": 120.0
            },
            {
                "start_time": 33.736363636363635,
                "end_time": 33.93636363636364,
                "pitch": 28,
                "velocity": 101,
                "duration": 0.20000000000000284,
                "tempo": 120.0
            },
            {
                "start_time": 33.93636363636364,
                "end_time": 34.13636363636363,
                "pitch": 26,
                "velocity": 101,
                "duration": 0.19999999999999574,
                "tempo": 120.0
            },
            {
                "start_time": 33.93636363636364,
                "end_time": 34.13636363636363,
                "pitch": 26,
                "velocity": 101,
                "duration": 0.19999999999999574,
                "tempo": 120.0
            },
            {
                "start_time": 34.13636363636363,
                "end_time": 34.336363636363636,
                "pitch": 28,
                "velocity": 101,
                "duration": 0.20000000000000284,
                "tempo": 120.0
            },
            {
                "start_time": 34.13636363636363,
                "end_time": 34.336363636363636,
                "pitch": 28,
                "velocity": 127,
                "duration": 0.20000000000000284,
                "tempo": 120.0
            },
            {
                "start_time": 34.336363636363636,
                "end_time": 34.53636363636363,
                "pitch": 26,
                "velocity": 101,
                "duration": 0.19999999999999574,
                "tempo": 120.0
            },
            {
                "start_time": 34.336363636363636,
                "end_time": 34.53636363636363,
                "pitch": 26,
                "velocity": 127,
                "duration": 0.19999999999999574,
                "tempo": 120.0
            },
            {
                "start_time": 34.53636363636363,
                "end_time": 34.73863636363636,
                "pitch": 24,
                "velocity": 101,
                "duration": 0.20227272727272805,
                "tempo": 120.0
            },
            {
                "start_time": 34.53636363636363,
                "end_time": 34.73863636363636,
                "pitch": 24,
                "velocity": 101,
                "duration": 0.20227272727272805,
                "tempo": 120.0
            },
            {
                "start_time": 34.73863636363636,
                "end_time": 34.93863636363636,
                "pitch": 26,
                "velocity": 101,
                "duration": 0.20000000000000284,
                "tempo": 120.0
            },
            {
                "start_time": 34.73863636363636,
                "end_time": 34.93863636363636,
                "pitch": 26,
                "velocity": 101,
                "duration": 0.20000000000000284,
                "tempo": 120.0
            },
            {
                "start_time": 34.93863636363636,
                "end_time": 35.14090909090909,
                "pitch": 28,
                "velocity": 101,
                "duration": 0.20227272727272805,
                "tempo": 120.0
            },
            {
                "start_time": 34.93863636363636,
                "end_time": 35.14090909090909,
                "pitch": 28,
                "velocity": 127,
                "duration": 0.20227272727272805,
                "tempo": 120.0
            },
            {
                "start_time": 35.14090909090909,
                "end_time": 35.34318181818182,
                "pitch": 26,
                "velocity": 101,
                "duration": 0.20227272727272805,
                "tempo": 120.0
            },
            {
                "start_time": 35.14090909090909,
                "end_time": 35.34318181818182,
                "pitch": 26,
                "velocity": 127,
                "duration": 0.20227272727272805,
                "tempo": 120.0
            },
            {
                "start_time": 35.34318181818182,
                "end_time": 35.54772727272727,
                "pitch": 28,
                "velocity": 101,
                "duration": 0.20454545454545325,
                "tempo": 120.0
            },
            {
                "start_time": 35.34318181818182,
                "end_time": 35.54772727272727,
                "pitch": 28,
                "velocity": 101,
                "duration": 0.20454545454545325,
                "tempo": 120.0
            },
            {
                "start_time": 35.54772727272727,
                "end_time": 35.75,
                "pitch": 26,
                "velocity": 101,
                "duration": 0.20227272727272805,
                "tempo": 120.0
            },
            {
                "start_time": 35.54772727272727,
                "end_time": 35.75,
                "pitch": 26,
                "velocity": 101,
                "duration": 0.20227272727272805,
                "tempo": 120.0
            },
            {
                "start_time": 35.75,
                "end_time": 35.95227272727273,
                "pitch": 28,
                "velocity": 101,
                "duration": 0.20227272727272805,
                "tempo": 120.0
            },
            {
                "start_time": 35.75,
                "end_time": 35.95227272727273,
                "pitch": 28,
                "velocity": 101,
                "duration": 0.20227272727272805,
                "tempo": 120.0
            },
            {
                "start_time": 35.95227272727273,
                "end_time": 36.154545454545456,
                "pitch": 26,
                "velocity": 101,
                "duration": 0.20227272727272805,
                "tempo": 120.0
            },
            {
                "start_time": 35.95227272727273,
                "end_time": 36.154545454545456,
                "pitch": 26,
                "velocity": 101,
                "duration": 0.20227272727272805,
                "tempo": 120.0
            },
            {
                "start_time": 36.154545454545456,
                "end_time": 36.35909090909091,
                "pitch": 28,
                "velocity": 101,
                "duration": 0.20454545454545325,
                "tempo": 120.0
            },
            {
                "start_time": 36.154545454545456,
                "end_time": 36.35909090909091,
                "pitch": 28,
                "velocity": 101,
                "duration": 0.20454545454545325,
                "tempo": 120.0
            },
            {
                "start_time": 36.35909090909091,
                "end_time": 36.53636363636363,
                "pitch": 26,
                "velocity": 101,
                "duration": 0.17727272727272236,
                "tempo": 120.0
            },
            {
                "start_time": 36.35909090909091,
                "end_time": 36.53636363636363,
                "pitch": 26,
                "velocity": 101,
                "duration": 0.17727272727272236,
                "tempo": 120.0
            },
            {
                "start_time": 36.53636363636363,
                "end_time": 36.71363636363636,
                "pitch": 28,
                "velocity": 101,
                "duration": 0.17727272727272947,
                "tempo": 120.0
            },
            {
                "start_time": 36.53636363636363,
                "end_time": 36.71363636363636,
                "pitch": 28,
                "velocity": 101,
                "duration": 0.17727272727272947,
                "tempo": 120.0
            },
            {
                "start_time": 36.71363636363636,
                "end_time": 36.89090909090909,
                "pitch": 26,
                "velocity": 101,
                "duration": 0.17727272727272947,
                "tempo": 120.0
            },
            {
                "start_time": 36.71363636363636,
                "end_time": 36.89090909090909,
                "pitch": 26,
                "velocity": 101,
                "duration": 0.17727272727272947,
                "tempo": 120.0
            },
            {
                "start_time": 36.89090909090909,
                "end_time": 37.06818181818181,
                "pitch": 28,
                "velocity": 101,
                "duration": 0.17727272727272236,
                "tempo": 120.0
            },
            {
                "start_time": 36.89090909090909,
                "end_time": 37.06818181818181,
                "pitch": 28,
                "velocity": 101,
                "duration": 0.17727272727272236,
                "tempo": 120.0
            },
            {
                "start_time": 37.06818181818181,
                "end_time": 37.24318181818182,
                "pitch": 26,
                "velocity": 101,
                "duration": 0.17500000000000426,
                "tempo": 120.0
            },
            {
                "start_time": 37.06818181818181,
                "end_time": 37.24318181818182,
                "pitch": 26,
                "velocity": 101,
                "duration": 0.17500000000000426,
                "tempo": 120.0
            },
            {
                "start_time": 37.24318181818182,
                "end_time": 37.42045454545455,
                "pitch": 28,
                "velocity": 101,
                "duration": 0.17727272727272947,
                "tempo": 120.0
            },
            {
                "start_time": 37.24318181818182,
                "end_time": 37.42045454545455,
                "pitch": 28,
                "velocity": 101,
                "duration": 0.17727272727272947,
                "tempo": 120.0
            },
            {
                "start_time": 37.42045454545455,
                "end_time": 37.59772727272727,
                "pitch": 26,
                "velocity": 101,
                "duration": 0.17727272727272236,
                "tempo": 120.0
            },
            {
                "start_time": 37.42045454545455,
                "end_time": 37.59772727272727,
                "pitch": 26,
                "velocity": 101,
                "duration": 0.17727272727272236,
                "tempo": 120.0
            },
            {
                "start_time": 37.59772727272727,
                "end_time": 37.775,
                "pitch": 24,
                "velocity": 101,
                "duration": 0.17727272727272947,
                "tempo": 120.0
            },
            {
                "start_time": 37.59772727272727,
                "end_time": 37.775,
                "pitch": 24,
                "velocity": 101,
                "duration": 0.17727272727272947,
                "tempo": 120.0
            },
            {
                "start_time": 37.775,
                "end_time": 37.95227272727273,
                "pitch": 26,
                "velocity": 101,
                "duration": 0.17727272727272947,
                "tempo": 120.0
            },
            {
                "start_time": 37.775,
                "end_time": 37.95227272727273,
                "pitch": 26,
                "velocity": 101,
                "duration": 0.17727272727272947,
                "tempo": 120.0
            },
            {
                "start_time": 37.95227272727273,
                "end_time": 38.127272727272725,
                "pitch": 28,
                "velocity": 101,
                "duration": 0.17499999999999716,
                "tempo": 120.0
            },
            {
                "start_time": 37.95227272727273,
                "end_time": 38.127272727272725,
                "pitch": 28,
                "velocity": 101,
                "duration": 0.17499999999999716,
                "tempo": 120.0
            },
            {
                "start_time": 38.127272727272725,
                "end_time": 38.304545454545455,
                "pitch": 28,
                "velocity": 101,
                "duration": 0.17727272727272947,
                "tempo": 120.0
            },
            {
                "start_time": 38.65909090909091,
                "end_time": 38.834090909090904,
                "pitch": 29,
                "velocity": 101,
                "duration": 0.17499999999999716,
                "tempo": 120.0
            },
            {
                "start_time": 38.834090909090904,
                "end_time": 39.01363636363636,
                "pitch": 29,
                "velocity": 101,
                "duration": 0.17954545454545467,
                "tempo": 120.0
            },
            {
                "start_time": 39.37045454545454,
                "end_time": 39.55,
                "pitch": 28,
                "velocity": 101,
                "duration": 0.17954545454545467,
                "tempo": 120.0
            },
            {
                "start_time": 39.55,
                "end_time": 39.72954545454545,
                "pitch": 28,
                "velocity": 101,
                "duration": 0.17954545454545467,
                "tempo": 120.0
            },
            {
                "start_time": 40.086363636363636,
                "end_time": 40.26136363636363,
                "pitch": 29,
                "velocity": 101,
                "duration": 0.17499999999999716,
                "tempo": 120.0
            },
            {
                "start_time": 40.26136363636363,
                "end_time": 40.43636363636364,
                "pitch": 29,
                "velocity": 101,
                "duration": 0.17500000000000426,
                "tempo": 120.0
            },
            {
                "start_time": 40.78636363636363,
                "end_time": 40.959090909090904,
                "pitch": 28,
                "velocity": 101,
                "duration": 0.17272727272727195,
                "tempo": 120.0
            },
            {
                "start_time": 40.959090909090904,
                "end_time": 41.13409090909091,
                "pitch": 29,
                "velocity": 101,
                "duration": 0.17500000000000426,
                "tempo": 120.0
            },
            {
                "start_time": 41.13409090909091,
                "end_time": 41.309090909090905,
                "pitch": 29,
                "velocity": 101,
                "duration": 0.17499999999999716,
                "tempo": 120.0
            },
            {
                "start_time": 41.309090909090905,
                "end_time": 41.486363636363635,
                "pitch": 29,
                "velocity": 101,
                "duration": 0.17727272727272947,
                "tempo": 120.0
            },
            {
                "start_time": 42.559090909090905,
                "end_time": 43.584090909090904,
                "pitch": 28,
                "velocity": 127,
                "duration": 1.0249999999999986,
                "tempo": 120.0
            },
            {
                "start_time": 43.584090909090904,
                "end_time": 43.75454545454545,
                "pitch": 28,
                "velocity": 127,
                "duration": 0.17045454545454675,
                "tempo": 120.0
            },
            {
                "start_time": 43.75454545454545,
                "end_time": 43.93181818181818,
                "pitch": 26,
                "velocity": 80,
                "duration": 0.17727272727272947,
                "tempo": 120.0
            },
            {
                "start_time": 43.75454545454545,
                "end_time": 43.93181818181818,
                "pitch": 26,
                "velocity": 127,
                "duration": 0.17727272727272947,
                "tempo": 120.0
            },
            {
                "start_time": 43.93181818181818,
                "end_time": 44.111363636363635,
                "pitch": 28,
                "velocity": 80,
                "duration": 0.17954545454545467,
                "tempo": 120.0
            },
            {
                "start_time": 43.93181818181818,
                "end_time": 44.111363636363635,
                "pitch": 28,
                "velocity": 80,
                "duration": 0.17954545454545467,
                "tempo": 120.0
            },
            {
                "start_time": 44.111363636363635,
                "end_time": 44.29090909090909,
                "pitch": 26,
                "velocity": 80,
                "duration": 0.17954545454545467,
                "tempo": 120.0
            },
            {
                "start_time": 44.111363636363635,
                "end_time": 44.29090909090909,
                "pitch": 26,
                "velocity": 80,
                "duration": 0.17954545454545467,
                "tempo": 120.0
            },
            {
                "start_time": 44.29090909090909,
                "end_time": 44.46818181818182,
                "pitch": 28,
                "velocity": 80,
                "duration": 0.17727272727272947,
                "tempo": 120.0
            },
            {
                "start_time": 44.29090909090909,
                "end_time": 44.46818181818182,
                "pitch": 28,
                "velocity": 80,
                "duration": 0.17727272727272947,
                "tempo": 120.0
            },
            {
                "start_time": 44.46818181818182,
                "end_time": 44.64772727272727,
                "pitch": 26,
                "velocity": 80,
                "duration": 0.17954545454545467,
                "tempo": 120.0
            },
            {
                "start_time": 44.46818181818182,
                "end_time": 44.64772727272727,
                "pitch": 26,
                "velocity": 80,
                "duration": 0.17954545454545467,
                "tempo": 120.0
            },
            {
                "start_time": 44.64772727272727,
                "end_time": 44.82727272727273,
                "pitch": 28,
                "velocity": 80,
                "duration": 0.17954545454545467,
                "tempo": 120.0
            },
            {
                "start_time": 44.64772727272727,
                "end_time": 44.82727272727273,
                "pitch": 28,
                "velocity": 80,
                "duration": 0.17954545454545467,
                "tempo": 120.0
            },
            {
                "start_time": 44.82727272727273,
                "end_time": 45.00454545454545,
                "pitch": 26,
                "velocity": 80,
                "duration": 0.17727272727272236,
                "tempo": 120.0
            },
            {
                "start_time": 44.82727272727273,
                "end_time": 45.00454545454545,
                "pitch": 26,
                "velocity": 80,
                "duration": 0.17727272727272236,
                "tempo": 120.0
            },
            {
                "start_time": 45.00454545454545,
                "end_time": 45.18181818181818,
                "pitch": 28,
                "velocity": 80,
                "duration": 0.17727272727272947,
                "tempo": 120.0
            },
            {
                "start_time": 45.00681818181818,
                "end_time": 45.18181818181818,
                "pitch": 28,
                "velocity": 80,
                "duration": 0.17499999999999716,
                "tempo": 120.0
            },
            {
                "start_time": 45.18181818181818,
                "end_time": 45.35909090909091,
                "pitch": 26,
                "velocity": 80,
                "duration": 0.17727272727272947,
                "tempo": 120.0
            },
            {
                "start_time": 45.18181818181818,
                "end_time": 45.35909090909091,
                "pitch": 26,
                "velocity": 80,
                "duration": 0.17727272727272947,
                "tempo": 120.0
            },
            {
                "start_time": 45.35909090909091,
                "end_time": 45.53636363636363,
                "pitch": 28,
                "velocity": 80,
                "duration": 0.17727272727272236,
                "tempo": 120.0
            },
            {
                "start_time": 45.35909090909091,
                "end_time": 45.53636363636363,
                "pitch": 28,
                "velocity": 80,
                "duration": 0.17727272727272236,
                "tempo": 120.0
            },
            {
                "start_time": 45.53636363636363,
                "end_time": 45.711363636363636,
                "pitch": 26,
                "velocity": 80,
                "duration": 0.17500000000000426,
                "tempo": 120.0
            },
            {
                "start_time": 45.53636363636363,
                "end_time": 45.711363636363636,
                "pitch": 26,
                "velocity": 80,
                "duration": 0.17500000000000426,
                "tempo": 120.0
            },
            {
                "start_time": 45.711363636363636,
                "end_time": 45.88863636363636,
                "pitch": 28,
                "velocity": 80,
                "duration": 0.17727272727272236,
                "tempo": 120.0
            },
            {
                "start_time": 45.71363636363636,
                "end_time": 45.88863636363636,
                "pitch": 28,
                "velocity": 127,
                "duration": 0.17499999999999716,
                "tempo": 120.0
            },
            {
                "start_time": 45.88863636363636,
                "end_time": 46.06590909090909,
                "pitch": 26,
                "velocity": 80,
                "duration": 0.17727272727272947,
                "tempo": 120.0
            },
            {
                "start_time": 45.88863636363636,
                "end_time": 46.06590909090909,
                "pitch": 26,
                "velocity": 127,
                "duration": 0.17727272727272947,
                "tempo": 120.0
            },
            {
                "start_time": 46.06590909090909,
                "end_time": 46.24318181818182,
                "pitch": 24,
                "velocity": 80,
                "duration": 0.17727272727272947,
                "tempo": 120.0
            },
            {
                "start_time": 46.06590909090909,
                "end_time": 46.24318181818182,
                "pitch": 24,
                "velocity": 80,
                "duration": 0.17727272727272947,
                "tempo": 120.0
            },
            {
                "start_time": 46.24318181818182,
                "end_time": 46.42045454545455,
                "pitch": 26,
                "velocity": 80,
                "duration": 0.17727272727272947,
                "tempo": 120.0
            },
            {
                "start_time": 46.24318181818182,
                "end_time": 46.42045454545455,
                "pitch": 26,
                "velocity": 80,
                "duration": 0.17727272727272947,
                "tempo": 120.0
            },
            {
                "start_time": 46.42045454545455,
                "end_time": 46.62045454545454,
                "pitch": 28,
                "velocity": 80,
                "duration": 0.19999999999999574,
                "tempo": 120.0
            },
            {
                "start_time": 46.42045454545455,
                "end_time": 46.62045454545454,
                "pitch": 28,
                "velocity": 127,
                "duration": 0.19999999999999574,
                "tempo": 120.0
            },
            {
                "start_time": 46.62045454545454,
                "end_time": 46.82272727272727,
                "pitch": 26,
                "velocity": 80,
                "duration": 0.20227272727272805,
                "tempo": 120.0
            },
            {
                "start_time": 46.62045454545454,
                "end_time": 46.82272727272727,
                "pitch": 26,
                "velocity": 127,
                "duration": 0.20227272727272805,
                "tempo": 120.0
            },
            {
                "start_time": 46.82272727272727,
                "end_time": 47.025,
                "pitch": 28,
                "velocity": 80,
                "duration": 0.20227272727272805,
                "tempo": 120.0
            },
            {
                "start_time": 46.82272727272727,
                "end_time": 47.025,
                "pitch": 28,
                "velocity": 80,
                "duration": 0.20227272727272805,
                "tempo": 120.0
            },
            {
                "start_time": 47.025,
                "end_time": 47.22954545454545,
                "pitch": 26,
                "velocity": 80,
                "duration": 0.20454545454545325,
                "tempo": 120.0
            },
            {
                "start_time": 47.025,
                "end_time": 47.22954545454545,
                "pitch": 26,
                "velocity": 80,
                "duration": 0.20454545454545325,
                "tempo": 120.0
            },
            {
                "start_time": 47.22954545454545,
                "end_time": 47.43181818181818,
                "pitch": 28,
                "velocity": 80,
                "duration": 0.20227272727272805,
                "tempo": 120.0
            },
            {
                "start_time": 47.22954545454545,
                "end_time": 47.43181818181818,
                "pitch": 28,
                "velocity": 80,
                "duration": 0.20227272727272805,
                "tempo": 120.0
            },
            {
                "start_time": 47.43181818181818,
                "end_time": 47.63409090909091,
                "pitch": 26,
                "velocity": 80,
                "duration": 0.20227272727272805,
                "tempo": 120.0
            },
            {
                "start_time": 47.43181818181818,
                "end_time": 47.63409090909091,
                "pitch": 26,
                "velocity": 80,
                "duration": 0.20227272727272805,
                "tempo": 120.0
            },
            {
                "start_time": 47.63409090909091,
                "end_time": 47.836363636363636,
                "pitch": 28,
                "velocity": 80,
                "duration": 0.20227272727272805,
                "tempo": 120.0
            },
            {
                "start_time": 47.63409090909091,
                "end_time": 47.836363636363636,
                "pitch": 28,
                "velocity": 80,
                "duration": 0.20227272727272805,
                "tempo": 120.0
            },
            {
                "start_time": 47.836363636363636,
                "end_time": 48.04090909090909,
                "pitch": 26,
                "velocity": 80,
                "duration": 0.20454545454545325,
                "tempo": 120.0
            },
            {
                "start_time": 47.83863636363636,
                "end_time": 48.04090909090909,
                "pitch": 26,
                "velocity": 80,
                "duration": 0.20227272727272805,
                "tempo": 120.0
            },
            {
                "start_time": 48.04090909090909,
                "end_time": 48.24090909090909,
                "pitch": 28,
                "velocity": 80,
                "duration": 0.20000000000000284,
                "tempo": 120.0
            },
            {
                "start_time": 48.04090909090909,
                "end_time": 48.24090909090909,
                "pitch": 28,
                "velocity": 80,
                "duration": 0.20000000000000284,
                "tempo": 120.0
            },
            {
                "start_time": 48.24090909090909,
                "end_time": 48.44090909090909,
                "pitch": 26,
                "velocity": 80,
                "duration": 0.19999999999999574,
                "tempo": 120.0
            },
            {
                "start_time": 48.24090909090909,
                "end_time": 48.44090909090909,
                "pitch": 26,
                "velocity": 80,
                "duration": 0.19999999999999574,
                "tempo": 120.0
            },
            {
                "start_time": 48.44090909090909,
                "end_time": 48.64090909090909,
                "pitch": 28,
                "velocity": 80,
                "duration": 0.20000000000000284,
                "tempo": 120.0
            },
            {
                "start_time": 48.44090909090909,
                "end_time": 48.64090909090909,
                "pitch": 28,
                "velocity": 80,
                "duration": 0.20000000000000284,
                "tempo": 120.0
            },
            {
                "start_time": 48.64090909090909,
                "end_time": 48.840909090909086,
                "pitch": 26,
                "velocity": 80,
                "duration": 0.19999999999999574,
                "tempo": 120.0
            },
            {
                "start_time": 48.64090909090909,
                "end_time": 48.840909090909086,
                "pitch": 26,
                "velocity": 80,
                "duration": 0.19999999999999574,
                "tempo": 120.0
            },
            {
                "start_time": 48.840909090909086,
                "end_time": 49.04090909090909,
                "pitch": 28,
                "velocity": 80,
                "duration": 0.20000000000000284,
                "tempo": 120.0
            },
            {
                "start_time": 48.840909090909086,
                "end_time": 49.04090909090909,
                "pitch": 28,
                "velocity": 80,
                "duration": 0.20000000000000284,
                "tempo": 120.0
            },
            {
                "start_time": 49.04090909090909,
                "end_time": 49.240909090909085,
                "pitch": 26,
                "velocity": 80,
                "duration": 0.19999999999999574,
                "tempo": 120.0
            },
            {
                "start_time": 49.04090909090909,
                "end_time": 49.240909090909085,
                "pitch": 26,
                "velocity": 80,
                "duration": 0.19999999999999574,
                "tempo": 120.0
            },
            {
                "start_time": 49.240909090909085,
                "end_time": 49.44318181818181,
                "pitch": 29,
                "velocity": 80,
                "duration": 0.20227272727272805,
                "tempo": 120.0
            },
            {
                "start_time": 49.24318181818182,
                "end_time": 49.44318181818181,
                "pitch": 29,
                "velocity": 127,
                "duration": 0.19999999999999574,
                "tempo": 120.0
            },
            {
                "start_time": 49.44318181818181,
                "end_time": 49.643181818181816,
                "pitch": 26,
                "velocity": 80,
                "duration": 0.20000000000000284,
                "tempo": 120.0
            },
            {
                "start_time": 49.44318181818181,
                "end_time": 49.643181818181816,
                "pitch": 26,
                "velocity": 127,
                "duration": 0.20000000000000284,
                "tempo": 120.0
            },
            {
                "start_time": 49.643181818181816,
                "end_time": 49.84318181818182,
                "pitch": 28,
                "velocity": 80,
                "duration": 0.20000000000000284,
                "tempo": 120.0
            },
            {
                "start_time": 49.643181818181816,
                "end_time": 49.84318181818182,
                "pitch": 28,
                "velocity": 127,
                "duration": 0.20000000000000284,
                "tempo": 120.0
            },
            {
                "start_time": 49.84318181818182,
                "end_time": 50.043181818181814,
                "pitch": 26,
                "velocity": 80,
                "duration": 0.19999999999999574,
                "tempo": 120.0
            },
            {
                "start_time": 49.84318181818182,
                "end_time": 50.043181818181814,
                "pitch": 26,
                "velocity": 127,
                "duration": 0.19999999999999574,
                "tempo": 120.0
            },
            {
                "start_time": 50.043181818181814,
                "end_time": 50.24318181818182,
                "pitch": 28,
                "velocity": 80,
                "duration": 0.20000000000000284,
                "tempo": 120.0
            },
            {
                "start_time": 50.043181818181814,
                "end_time": 50.24318181818182,
                "pitch": 28,
                "velocity": 80,
                "duration": 0.20000000000000284,
                "tempo": 120.0
            },
            {
                "start_time": 50.24318181818182,
                "end_time": 50.44318181818181,
                "pitch": 26,
                "velocity": 80,
                "duration": 0.19999999999999574,
                "tempo": 120.0
            },
            {
                "start_time": 50.24318181818182,
                "end_time": 50.44318181818181,
                "pitch": 26,
                "velocity": 80,
                "duration": 0.19999999999999574,
                "tempo": 120.0
            },
            {
                "start_time": 50.44318181818181,
                "end_time": 50.643181818181816,
                "pitch": 28,
                "velocity": 80,
                "duration": 0.20000000000000284,
                "tempo": 120.0
            },
            {
                "start_time": 50.445454545454545,
                "end_time": 50.643181818181816,
                "pitch": 28,
                "velocity": 80,
                "duration": 0.19772727272727053,
                "tempo": 120.0
            },
            {
                "start_time": 50.643181818181816,
                "end_time": 50.84318181818182,
                "pitch": 26,
                "velocity": 80,
                "duration": 0.20000000000000284,
                "tempo": 120.0
            },
            {
                "start_time": 50.643181818181816,
                "end_time": 50.84318181818182,
                "pitch": 26,
                "velocity": 80,
                "duration": 0.20000000000000284,
                "tempo": 120.0
            },
            {
                "start_time": 50.84318181818182,
                "end_time": 51.04545454545454,
                "pitch": 28,
                "velocity": 80,
                "duration": 0.20227272727272094,
                "tempo": 120.0
            },
            {
                "start_time": 50.84318181818182,
                "end_time": 51.04545454545454,
                "pitch": 28,
                "velocity": 80,
                "duration": 0.20227272727272094,
                "tempo": 120.0
            },
            {
                "start_time": 51.04545454545454,
                "end_time": 51.24545454545454,
                "pitch": 26,
                "velocity": 80,
                "duration": 0.20000000000000284,
                "tempo": 120.0
            },
            {
                "start_time": 51.04545454545454,
                "end_time": 51.24545454545454,
                "pitch": 26,
                "velocity": 80,
                "duration": 0.20000000000000284,
                "tempo": 120.0
            },
            {
                "start_time": 51.24545454545454,
                "end_time": 51.44772727272727,
                "pitch": 28,
                "velocity": 80,
                "duration": 0.20227272727272805,
                "tempo": 120.0
            },
            {
                "start_time": 51.24545454545454,
                "end_time": 51.44772727272727,
                "pitch": 28,
                "velocity": 80,
                "duration": 0.20227272727272805,
                "tempo": 120.0
            },
            {
                "start_time": 51.44772727272727,
                "end_time": 51.65,
                "pitch": 26,
                "velocity": 80,
                "duration": 0.20227272727272805,
                "tempo": 120.0
            },
            {
                "start_time": 51.44772727272727,
                "end_time": 51.65,
                "pitch": 26,
                "velocity": 80,
                "duration": 0.20227272727272805,
                "tempo": 120.0
            },
            {
                "start_time": 51.65,
                "end_time": 51.85454545454545,
                "pitch": 28,
                "velocity": 80,
                "duration": 0.20454545454545325,
                "tempo": 120.0
            },
            {
                "start_time": 51.65,
                "end_time": 51.85454545454545,
                "pitch": 28,
                "velocity": 80,
                "duration": 0.20454545454545325,
                "tempo": 120.0
            },
            {
                "start_time": 51.85454545454545,
                "end_time": 52.05681818181818,
                "pitch": 26,
                "velocity": 80,
                "duration": 0.20227272727272805,
                "tempo": 120.0
            },
            {
                "start_time": 51.85454545454545,
                "end_time": 52.05681818181818,
                "pitch": 26,
                "velocity": 80,
                "duration": 0.20227272727272805,
                "tempo": 120.0
            },
            {
                "start_time": 52.05681818181818,
                "end_time": 52.25909090909091,
                "pitch": 28,
                "velocity": 80,
                "duration": 0.20227272727272805,
                "tempo": 120.0
            },
            {
                "start_time": 52.05681818181818,
                "end_time": 52.25909090909091,
                "pitch": 28,
                "velocity": 127,
                "duration": 0.20227272727272805,
                "tempo": 120.0
            },
            {
                "start_time": 52.25909090909091,
                "end_time": 52.46363636363636,
                "pitch": 26,
                "velocity": 80,
                "duration": 0.20454545454545325,
                "tempo": 120.0
            },
            {
                "start_time": 52.25909090909091,
                "end_time": 52.46363636363636,
                "pitch": 26,
                "velocity": 127,
                "duration": 0.20454545454545325,
                "tempo": 120.0
            },
            {
                "start_time": 52.46363636363636,
                "end_time": 52.66590909090909,
                "pitch": 24,
                "velocity": 80,
                "duration": 0.20227272727272805,
                "tempo": 120.0
            },
            {
                "start_time": 52.46363636363636,
                "end_time": 52.66590909090909,
                "pitch": 24,
                "velocity": 80,
                "duration": 0.20227272727272805,
                "tempo": 120.0
            },
            {
                "start_time": 52.66590909090909,
                "end_time": 52.834090909090904,
                "pitch": 26,
                "velocity": 80,
                "duration": 0.16818181818181444,
                "tempo": 120.0
            },
            {
                "start_time": 52.66590909090909,
                "end_time": 52.834090909090904,
                "pitch": 26,
                "velocity": 80,
                "duration": 0.16818181818181444,
                "tempo": 120.0
            }
        ]
    }
}