{
    "track_id": "Rastan (FM) - 04 - Re-In-Carnation",
    "mood": "angry",
    "instruments": {
        "Lead 2 (sawtooth)": [
            {
                "start_time": 16.818181818181817,
                "end_time": 84.52954545454546,
                "pitch": 93,
                "velocity": 20,
                "duration": 67.71136363636364,
                "tempo": 120.0
            },
            {
                "start_time": 84.52954545454546,
                "end_time": 84.70454545454545,
                "pitch": 65,
                "velocity": 80,
                "duration": 0.17499999999999716,
                "tempo": 120.0
            },
            {
                "start_time": 84.70454545454545,
                "end_time": 84.87727272727273,
                "pitch": 67,
                "velocity": 80,
                "duration": 0.17272727272727195,
                "tempo": 120.0
            },
            {
                "start_time": 84.87727272727273,
                "end_time": 85.05227272727272,
                "pitch": 69,
                "velocity": 80,
                "duration": 0.17499999999999716,
                "tempo": 120.0
            },
            {
                "start_time": 85.05227272727272,
                "end_time": 85.22954545454544,
                "pitch": 67,
                "velocity": 80,
                "duration": 0.17727272727272236,
                "tempo": 120.0
            },
            {
                "start_time": 85.22954545454544,
                "end_time": 85.40681818181818,
                "pitch": 69,
                "velocity": 80,
                "duration": 0.17727272727273657,
                "tempo": 120.0
            },
            {
                "start_time": 84.70454545454545,
                "end_time": 85.58636363636363,
                "pitch": 55,
                "velocity": 80,
                "duration": 0.8818181818181756,
                "tempo": 120.0
            },
            {
                "start_time": 85.40681818181818,
                "end_time": 85.58636363636363,
                "pitch": 65,
                "velocity": 80,
                "duration": 0.17954545454544757,
                "tempo": 120.0
            },
            {
                "start_time": 85.58636363636363,
                "end_time": 85.75681818181818,
                "pitch": 67,
                "velocity": 80,
                "duration": 0.17045454545454675,
                "tempo": 120.0
            },
            {
                "start_time": 85.75681818181818,
                "end_time": 85.92727272727272,
                "pitch": 70,
                "velocity": 80,
                "duration": 0.17045454545454675,
                "tempo": 120.0
            },
            {
                "start_time": 85.75681818181818,
                "end_time": 85.92727272727272,
                "pitch": 70,
                "velocity": 80,
                "duration": 0.17045454545454675,
                "tempo": 120.0
            },
            {
                "start_time": 85.92727272727272,
                "end_time": 86.27954545454546,
                "pitch": 69,
                "velocity": 80,
                "duration": 0.35227272727273373,
                "tempo": 120.0
            },
            {
                "start_time": 85.40681818181818,
                "end_time": 86.27954545454546,
                "pitch": 77,
                "velocity": 80,
                "duration": 0.8727272727272748,
                "tempo": 120.0
            },
            {
                "start_time": 85.58636363636363,
                "end_time": 86.45227272727273,
                "pitch": 55,
                "velocity": 80,
                "duration": 0.8659090909090992,
                "tempo": 120.0
            },
            {
                "start_time": 86.27954545454546,
                "end_time": 86.45227272727273,
                "pitch": 65,
                "velocity": 80,
                "duration": 0.17272727272727195,
                "tempo": 120.0
            },
            {
                "start_time": 86.45227272727273,
                "end_time": 86.62727272727273,
                "pitch": 67,
                "velocity": 80,
                "duration": 0.17499999999999716,
                "tempo": 120.0
            },
            {
                "start_time": 86.62727272727273,
                "end_time": 86.80681818181817,
                "pitch": 69,
                "velocity": 80,
                "duration": 0.17954545454544757,
                "tempo": 120.0
            },
            {
                "start_time": 86.80681818181817,
                "end_time": 86.98409090909091,
                "pitch": 67,
                "velocity": 80,
                "duration": 0.17727272727273657,
                "tempo": 120.0
            },
            {
                "start_time": 86.98409090909091,
                "end_time": 87.16136363636363,
                "pitch": 69,
                "velocity": 80,
                "duration": 0.17727272727272236,
                "tempo": 120.0
            },
            {
                "start_time": 86.27954545454546,
                "end_time": 87.16136363636363,
                "pitch": 77,
                "velocity": 80,
                "duration": 0.8818181818181756,
                "tempo": 120.0
            },
            {
                "start_time": 86.45227272727273,
                "end_time": 87.33636363636363,
                "pitch": 55,
                "velocity": 80,
                "duration": 0.8840909090909008,
                "tempo": 120.0
            },
            {
                "start_time": 87.16136363636363,
                "end_time": 87.33636363636363,
                "pitch": 65,
                "velocity": 80,
                "duration": 0.17499999999999716,
                "tempo": 120.0
            },
            {
                "start_time": 87.33636363636363,
                "end_time": 87.50681818181818,
                "pitch": 67,
                "velocity": 101,
                "duration": 0.17045454545454675,
                "tempo": 120.0
            },
            {
                "start_time": 87.50681818181818,
                "end_time": 87.67727272727272,
                "pitch": 70,
                "velocity": 101,
                "duration": 0.17045454545454675,
                "tempo": 120.0
            },
            {
                "start_time": 87.50681818181818,
                "end_time": 87.67727272727272,
                "pitch": 70,
                "velocity": 101,
                "duration": 0.17045454545454675,
                "tempo": 120.0
            },
            {
                "start_time": 87.67727272727272,
                "end_time": 88.0340909090909,
                "pitch": 69,
                "velocity": 101,
                "duration": 0.35681818181818414,
                "tempo": 120.0
            },
            {
                "start_time": 88.0340909090909,
                "end_time": 89.43636363636364,
                "pitch": 69,
                "velocity": 101,
                "duration": 1.402272727272731,
                "tempo": 120.0
            },
            {
                "start_time": 89.43636363636364,
                "end_time": 89.7840909090909,
                "pitch": 69,
                "velocity": 101,
                "duration": 0.3477272727272691,
                "tempo": 120.0
            },
            {
                "start_time": 89.7840909090909,
                "end_time": 91.1840909090909,
                "pitch": 69,
                "velocity": 101,
                "duration": 1.3999999999999915,
                "tempo": 120.0
            },
            {
                "start_time": 91.1840909090909,
                "end_time": 91.5340909090909,
                "pitch": 69,
                "velocity": 101,
                "duration": 0.3500000000000085,
                "tempo": 120.0
            },
            {
                "start_time": 91.5340909090909,
                "end_time": 92.9340909090909,
                "pitch": 69,
                "velocity": 101,
                "duration": 1.3999999999999915,
                "tempo": 120.0
            },
            {
                "start_time": 92.9340909090909,
                "end_time": 93.28181818181818,
                "pitch": 69,
                "velocity": 101,
                "duration": 0.3477272727272833,
                "tempo": 120.0
            },
            {
                "start_time": 93.28181818181818,
                "end_time": 94.34090909090908,
                "pitch": 69,
                "velocity": 101,
                "duration": 1.059090909090898,
                "tempo": 120.0
            },
            {
                "start_time": 94.34090909090908,
                "end_time": 94.69090909090909,
                "pitch": 69,
                "velocity": 101,
                "duration": 0.3500000000000085,
                "tempo": 120.0
            },
            {
                "start_time": 94.69090909090909,
                "end_time": 95.04090909090908,
                "pitch": 69,
                "velocity": 101,
                "duration": 0.3499999999999943,
                "tempo": 120.0
            },
            {
                "start_time": 95.38181818181818,
                "end_time": 95.725,
                "pitch": 69,
                "velocity": 80,
                "duration": 0.3431818181818187,
                "tempo": 120.0
            },
            {
                "start_time": 95.725,
                "end_time": 96.09090909090908,
                "pitch": 69,
                "velocity": 80,
                "duration": 0.36590909090908497,
                "tempo": 120.0
            },
            {
                "start_time": 96.43863636363636,
                "end_time": 96.77272727272727,
                "pitch": 69,
                "velocity": 64,
                "duration": 0.33409090909090366,
                "tempo": 120.0
            },
            {
                "start_time": 96.77272727272727,
                "end_time": 97.14090909090909,
                "pitch": 69,
                "velocity": 64,
                "duration": 0.3681818181818244,
                "tempo": 120.0
            },
            {
                "start_time": 97.49772727272727,
                "end_time": 97.83181818181818,
                "pitch": 69,
                "velocity": 51,
                "duration": 0.33409090909090366,
                "tempo": 120.0
            },
            {
                "start_time": 97.83181818181818,
                "end_time": 98.18863636363636,
                "pitch": 69,
                "velocity": 51,
                "duration": 0.35681818181818414,
                "tempo": 120.0
            },
            {
                "start_time": 98.54545454545455,
                "end_time": 98.87954545454545,
                "pitch": 69,
                "velocity": 32,
                "duration": 0.33409090909090366,
                "tempo": 120.0
            },
            {
                "start_time": 98.87954545454545,
                "end_time": 99.23636363636363,
                "pitch": 69,
                "velocity": 32,
                "duration": 0.35681818181818414,
                "tempo": 120.0
            },
            {
                "start_time": 99.59318181818182,
                "end_time": 99.92727272727272,
                "pitch": 69,
                "velocity": 20,
                "duration": 0.33409090909090366,
                "tempo": 120.0
            },
            {
                "start_time": 99.92727272727272,
                "end_time": 100.29318181818181,
                "pitch": 69,
                "velocity": 20,
                "duration": 0.36590909090908497,
                "tempo": 120.0
            },
            {
                "start_time": 100.64318181818182,
                "end_time": 100.975,
                "pitch": 69,
                "velocity": 13,
                "duration": 0.33181818181817846,
                "tempo": 120.0
            },
            {
                "start_time": 100.975,
                "end_time": 101.34318181818182,
                "pitch": 69,
                "velocity": 13,
                "duration": 0.3681818181818244,
                "tempo": 120.0
            },
            {
                "start_time": 101.69318181818181,
                "end_time": 102.02727272727272,
                "pitch": 69,
                "velocity": 8,
                "duration": 0.33409090909090366,
                "tempo": 120.0
            },
            {
                "start_time": 102.02727272727272,
                "end_time": 102.39318181818182,
                "pitch": 69,
                "velocity": 8,
                "duration": 0.3659090909090992,
                "tempo": 120.0
            }
        ],
        "Electric Guitar (clean)": [
            {
                "start_time": 14.668181818181818,
                "end_time": 14.788636363636362,
                "pitch": 64,
                "velocity": 80,
                "duration": 0.12045454545454426,
                "tempo": 120.0
            },
            {
                "start_time": 14.788636363636362,
                "end_time": 14.909090909090908,
                "pitch": 69,
                "velocity": 80,
                "duration": 0.12045454545454604,
                "tempo": 120.0
            },
            {
                "start_time": 14.909090909090908,
                "end_time": 15.027272727272727,
                "pitch": 62,
                "velocity": 80,
                "duration": 0.11818181818181905,
                "tempo": 120.0
            },
            {
                "start_time": 15.027272727272727,
                "end_time": 15.147727272727272,
                "pitch": 67,
                "velocity": 80,
                "duration": 0.12045454545454426,
                "tempo": 120.0
            },
            {
                "start_time": 15.147727272727272,
                "end_time": 15.268181818181818,
                "pitch": 60,
                "velocity": 80,
                "duration": 0.12045454545454604,
                "tempo": 120.0
            },
            {
                "start_time": 15.268181818181818,
                "end_time": 15.388636363636364,
                "pitch": 65,
                "velocity": 80,
                "duration": 0.12045454545454604,
                "tempo": 120.0
            },
            {
                "start_time": 15.268181818181818,
                "end_time": 15.388636363636364,
                "pitch": 65,
                "velocity": 80,
                "duration": 0.12045454545454604,
                "tempo": 120.0
            }
        ],
        "Trumpet": [
            {
                "start_time": 0.015909090909090907,
                "end_time": 7.556818181818182,
                "pitch": 81,
                "velocity": 40,
                "duration": 7.540909090909091,
                "tempo": 120.0
            },
            {
                "start_time": 7.556818181818182,
                "end_time": 7.743181818181818,
                "pitch": 81,
                "velocity": 40,
                "duration": 0.1863636363636365,
                "tempo": 120.0
            },
            {
                "start_time": 7.745454545454545,
                "end_time": 8.309090909090909,
                "pitch": 74,
                "velocity": 40,
                "duration": 0.5636363636363635,
                "tempo": 120.0
            },
            {
                "start_time": 8.309090909090909,
                "end_time": 13.311363636363636,
                "pitch": 76,
                "velocity": 40,
                "duration": 5.002272727272727,
                "tempo": 120.0
            },
            {
                "start_time": 8.309090909090909,
                "end_time": 13.311363636363636,
                "pitch": 76,
                "velocity": 40,
                "duration": 5.002272727272727,
                "tempo": 120.0
            },
            {
                "start_time": 13.311363636363636,
                "end_time": 13.768181818181818,
                "pitch": 76,
                "velocity": 80,
                "duration": 0.456818181818182,
                "tempo": 120.0
            },
            {
                "start_time": 13.909090909090908,
                "end_time": 14.047727272727272,
                "pitch": 81,
                "velocity": 64,
                "duration": 0.13863636363636367,
                "tempo": 120.0
            },
            {
                "start_time": 14.047727272727272,
                "end_time": 14.188636363636363,
                "pitch": 81,
                "velocity": 51,
                "duration": 0.14090909090909065,
                "tempo": 120.0
            },
            {
                "start_time": 14.188636363636363,
                "end_time": 14.309090909090909,
                "pitch": 81,
                "velocity": 51,
                "duration": 0.12045454545454604,
                "tempo": 120.0
            },
            {
                "start_time": 14.309090909090909,
                "end_time": 14.427272727272726,
                "pitch": 81,
                "velocity": 51,
                "duration": 0.11818181818181728,
                "tempo": 120.0
            },
            {
                "start_time": 32.87272727272727,
                "end_time": 48.77045454545454,
                "pitch": 81,
                "velocity": 20,
                "duration": 15.897727272727273,
                "tempo": 120.0
            },
            {
                "start_time": 49.39090909090909,
                "end_time": 49.48181818181818,
                "pitch": 79,
                "velocity": 80,
                "duration": 0.09090909090908639,
                "tempo": 120.0
            },
            {
                "start_time": 49.48181818181818,
                "end_time": 49.55,
                "pitch": 81,
                "velocity": 64,
                "duration": 0.06818181818182012,
                "tempo": 120.0
            },
            {
                "start_time": 49.55,
                "end_time": 50.44090909090909,
                "pitch": 82,
                "velocity": 64,
                "duration": 0.8909090909090907,
                "tempo": 120.0
            },
            {
                "start_time": 50.44318181818181,
                "end_time": 50.79772727272727,
                "pitch": 81,
                "velocity": 64,
                "duration": 0.35454545454545894,
                "tempo": 120.0
            },
            {
                "start_time": 50.79772727272727,
                "end_time": 51.12045454545454,
                "pitch": 79,
                "velocity": 64,
                "duration": 0.32272727272727053,
                "tempo": 120.0
            },
            {
                "start_time": 51.12045454545454,
                "end_time": 51.12272727272727,
                "pitch": 90,
                "velocity": 64,
                "duration": 0.0022727272727252057,
                "tempo": 120.0
            },
            {
                "start_time": 51.12272727272727,
                "end_time": 51.38636363636363,
                "pitch": 78,
                "velocity": 64,
                "duration": 0.26363636363636545,
                "tempo": 120.0
            },
            {
                "start_time": 51.38636363636363,
                "end_time": 51.64545454545454,
                "pitch": 75,
                "velocity": 64,
                "duration": 0.25909090909090793,
                "tempo": 120.0
            },
            {
                "start_time": 51.38636363636363,
                "end_time": 51.64545454545454,
                "pitch": 75,
                "velocity": 64,
                "duration": 0.25909090909090793,
                "tempo": 120.0
            },
            {
                "start_time": 51.64545454545454,
                "end_time": 51.87954545454545,
                "pitch": 78,
                "velocity": 64,
                "duration": 0.23409090909090935,
                "tempo": 120.0
            },
            {
                "start_time": 51.64545454545454,
                "end_time": 51.87954545454545,
                "pitch": 78,
                "velocity": 64,
                "duration": 0.23409090909090935,
                "tempo": 120.0
            },
            {
                "start_time": 51.87954545454545,
                "end_time": 52.11363636363636,
                "pitch": 75,
                "velocity": 64,
                "duration": 0.23409090909090935,
                "tempo": 120.0
            },
            {
                "start_time": 51.87954545454545,
                "end_time": 52.11363636363636,
                "pitch": 75,
                "velocity": 64,
                "duration": 0.23409090909090935,
                "tempo": 120.0
            },
            {
                "start_time": 52.11363636363636,
                "end_time": 52.31363636363636,
                "pitch": 78,
                "velocity": 64,
                "duration": 0.20000000000000284,
                "tempo": 120.0
            },
            {
                "start_time": 52.11363636363636,
                "end_time": 52.31363636363636,
                "pitch": 78,
                "velocity": 64,
                "duration": 0.20000000000000284,
                "tempo": 120.0
            },
            {
                "start_time": 52.31363636363636,
                "end_time": 52.51363636363636,
                "pitch": 75,
                "velocity": 64,
                "duration": 0.19999999999999574,
                "tempo": 120.0
            },
            {
                "start_time": 52.31363636363636,
                "end_time": 52.51363636363636,
                "pitch": 75,
                "velocity": 64,
                "duration": 0.19999999999999574,
                "tempo": 120.0
            },
            {
                "start_time": 52.51363636363636,
                "end_time": 52.67045454545454,
                "pitch": 78,
                "velocity": 64,
                "duration": 0.1568181818181813,
                "tempo": 120.0
            },
            {
                "start_time": 52.51363636363636,
                "end_time": 52.67045454545454,
                "pitch": 78,
                "velocity": 64,
                "duration": 0.1568181818181813,
                "tempo": 120.0
            },
            {
                "start_time": 52.67045454545454,
                "end_time": 52.82727272727273,
                "pitch": 75,
                "velocity": 64,
                "duration": 0.1568181818181884,
                "tempo": 120.0
            },
            {
                "start_time": 52.67045454545454,
                "end_time": 52.82727272727273,
                "pitch": 75,
                "velocity": 64,
                "duration": 0.1568181818181884,
                "tempo": 120.0
            },
            {
                "start_time": 52.82727272727273,
                "end_time": 52.95454545454545,
                "pitch": 78,
                "velocity": 64,
                "duration": 0.1272727272727252,
                "tempo": 120.0
            },
            {
                "start_time": 52.82727272727273,
                "end_time": 52.95454545454545,
                "pitch": 78,
                "velocity": 64,
                "duration": 0.1272727272727252,
                "tempo": 120.0
            },
            {
                "start_time": 52.95454545454545,
                "end_time": 53.086363636363636,
                "pitch": 75,
                "velocity": 64,
                "duration": 0.13181818181818272,
                "tempo": 120.0
            },
            {
                "start_time": 52.95454545454545,
                "end_time": 53.086363636363636,
                "pitch": 75,
                "velocity": 64,
                "duration": 0.13181818181818272,
                "tempo": 120.0
            },
            {
                "start_time": 53.086363636363636,
                "end_time": 53.184090909090905,
                "pitch": 78,
                "velocity": 64,
                "duration": 0.09772727272726911,
                "tempo": 120.0
            },
            {
                "start_time": 53.086363636363636,
                "end_time": 53.184090909090905,
                "pitch": 78,
                "velocity": 64,
                "duration": 0.09772727272726911,
                "tempo": 120.0
            },
            {
                "start_time": 53.184090909090905,
                "end_time": 53.28181818181818,
                "pitch": 75,
                "velocity": 64,
                "duration": 0.09772727272727622,
                "tempo": 120.0
            },
            {
                "start_time": 53.184090909090905,
                "end_time": 53.28181818181818,
                "pitch": 75,
                "velocity": 64,
                "duration": 0.09772727272727622,
                "tempo": 120.0
            },
            {
                "start_time": 53.28181818181818,
                "end_time": 53.37954545454545,
                "pitch": 78,
                "velocity": 64,
                "duration": 0.09772727272726911,
                "tempo": 120.0
            },
            {
                "start_time": 53.28181818181818,
                "end_time": 53.37954545454545,
                "pitch": 78,
                "velocity": 64,
                "duration": 0.09772727272726911,
                "tempo": 120.0
            },
            {
                "start_time": 53.37954545454545,
                "end_time": 53.48409090909091,
                "pitch": 75,
                "velocity": 64,
                "duration": 0.10454545454545894,
                "tempo": 120.0
            },
            {
                "start_time": 53.37954545454545,
                "end_time": 53.48409090909091,
                "pitch": 75,
                "velocity": 64,
                "duration": 0.10454545454545894,
                "tempo": 120.0
            },
            {
                "start_time": 53.48409090909091,
                "end_time": 53.57272727272727,
                "pitch": 78,
                "velocity": 64,
                "duration": 0.08863636363636118,
                "tempo": 120.0
            },
            {
                "start_time": 53.48409090909091,
                "end_time": 53.57272727272727,
                "pitch": 78,
                "velocity": 64,
                "duration": 0.08863636363636118,
                "tempo": 120.0
            },
            {
                "start_time": 53.57272727272727,
                "end_time": 53.65909090909091,
                "pitch": 75,
                "velocity": 64,
                "duration": 0.08636363636363598,
                "tempo": 120.0
            },
            {
                "start_time": 53.57272727272727,
                "end_time": 53.65909090909091,
                "pitch": 75,
                "velocity": 64,
                "duration": 0.08636363636363598,
                "tempo": 120.0
            },
            {
                "start_time": 53.65909090909091,
                "end_time": 53.74545454545454,
                "pitch": 78,
                "velocity": 64,
                "duration": 0.08636363636363598,
                "tempo": 120.0
            },
            {
                "start_time": 53.65909090909091,
                "end_time": 53.74545454545454,
                "pitch": 78,
                "velocity": 64,
                "duration": 0.08636363636363598,
                "tempo": 120.0
            },
            {
                "start_time": 53.74545454545454,
                "end_time": 53.81590909090909,
                "pitch": 75,
                "velocity": 64,
                "duration": 0.07045454545454533,
                "tempo": 120.0
            },
            {
                "start_time": 53.74545454545454,
                "end_time": 53.81590909090909,
                "pitch": 75,
                "velocity": 64,
                "duration": 0.07045454545454533,
                "tempo": 120.0
            },
            {
                "start_time": 53.81590909090909,
                "end_time": 54.34772727272727,
                "pitch": 78,
                "velocity": 64,
                "duration": 0.5318181818181813,
                "tempo": 120.0
            },
            {
                "start_time": 53.81590909090909,
                "end_time": 54.34772727272727,
                "pitch": 78,
                "velocity": 64,
                "duration": 0.5318181818181813,
                "tempo": 120.0
            },
            {
                "start_time": 7.743181818181818,
                "end_time": 56.63636363636363,
                "pitch": 86,
                "velocity": 40,
                "duration": 48.893181818181816,
                "tempo": 120.0
            },
            {
                "start_time": 54.486363636363635,
                "end_time": 56.63636363636363,
                "pitch": 86,
                "velocity": 32,
                "duration": 2.1499999999999986,
                "tempo": 120.0
            },
            {
                "start_time": 56.63636363636363,
                "end_time": 56.875,
                "pitch": 84,
                "velocity": 32,
                "duration": 0.23863636363636687,
                "tempo": 120.0
            },
            {
                "start_time": 56.875,
                "end_time": 57.11363636363636,
                "pitch": 86,
                "velocity": 32,
                "duration": 0.23863636363635976,
                "tempo": 120.0
            },
            {
                "start_time": 57.11363636363636,
                "end_time": 57.834090909090904,
                "pitch": 87,
                "velocity": 32,
                "duration": 0.7204545454545439,
                "tempo": 120.0
            },
            {
                "start_time": 57.834090909090904,
                "end_time": 58.074999999999996,
                "pitch": 86,
                "velocity": 32,
                "duration": 0.24090909090909207,
                "tempo": 120.0
            },
            {
                "start_time": 58.074999999999996,
                "end_time": 58.31136363636363,
                "pitch": 84,
                "velocity": 32,
                "duration": 0.23636363636363455,
                "tempo": 120.0
            },
            {
                "start_time": 58.31136363636363,
                "end_time": 58.54545454545454,
                "pitch": 82,
                "velocity": 32,
                "duration": 0.23409090909090935,
                "tempo": 120.0
            },
            {
                "start_time": 58.31136363636363,
                "end_time": 58.54545454545454,
                "pitch": 82,
                "velocity": 32,
                "duration": 0.23409090909090935,
                "tempo": 120.0
            },
            {
                "start_time": 58.54545454545454,
                "end_time": 58.78409090909091,
                "pitch": 84,
                "velocity": 32,
                "duration": 0.23863636363636687,
                "tempo": 120.0
            },
            {
                "start_time": 58.54545454545454,
                "end_time": 58.78409090909091,
                "pitch": 84,
                "velocity": 32,
                "duration": 0.23863636363636687,
                "tempo": 120.0
            },
            {
                "start_time": 58.78409090909091,
                "end_time": 59.02272727272727,
                "pitch": 82,
                "velocity": 32,
                "duration": 0.23863636363636687,
                "tempo": 120.0
            },
            {
                "start_time": 58.78409090909091,
                "end_time": 59.02272727272727,
                "pitch": 82,
                "velocity": 32,
                "duration": 0.23863636363636687,
                "tempo": 120.0
            },
            {
                "start_time": 59.02272727272727,
                "end_time": 60.220454545454544,
                "pitch": 81,
                "velocity": 32,
                "duration": 1.1977272727272705,
                "tempo": 120.0
            },
            {
                "start_time": 60.220454545454544,
                "end_time": 60.69318181818181,
                "pitch": 87,
                "velocity": 32,
                "duration": 0.4727272727272691,
                "tempo": 120.0
            },
            {
                "start_time": 60.220454545454544,
                "end_time": 60.69318181818181,
                "pitch": 87,
                "velocity": 32,
                "duration": 0.4727272727272691,
                "tempo": 120.0
            },
            {
                "start_time": 60.69318181818181,
                "end_time": 60.93181818181818,
                "pitch": 86,
                "velocity": 32,
                "duration": 0.23863636363636687,
                "tempo": 120.0
            },
            {
                "start_time": 60.93181818181818,
                "end_time": 61.17272727272727,
                "pitch": 84,
                "velocity": 32,
                "duration": 0.24090909090909207,
                "tempo": 120.0
            },
            {
                "start_time": 61.17272727272727,
                "end_time": 61.413636363636364,
                "pitch": 86,
                "velocity": 32,
                "duration": 0.24090909090909207,
                "tempo": 120.0
            },
            {
                "start_time": 61.413636363636364,
                "end_time": 61.893181818181816,
                "pitch": 82,
                "velocity": 32,
                "duration": 0.47954545454545183,
                "tempo": 120.0
            },
            {
                "start_time": 61.413636363636364,
                "end_time": 61.893181818181816,
                "pitch": 82,
                "velocity": 32,
                "duration": 0.47954545454545183,
                "tempo": 120.0
            },
            {
                "start_time": 61.893181818181816,
                "end_time": 62.12954545454545,
                "pitch": 84,
                "velocity": 32,
                "duration": 0.23636363636363455,
                "tempo": 120.0
            },
            {
                "start_time": 61.893181818181816,
                "end_time": 62.12954545454545,
                "pitch": 84,
                "velocity": 32,
                "duration": 0.23636363636363455,
                "tempo": 120.0
            },
            {
                "start_time": 62.12954545454545,
                "end_time": 62.36363636363636,
                "pitch": 82,
                "velocity": 32,
                "duration": 0.23409090909090935,
                "tempo": 120.0
            },
            {
                "start_time": 62.12954545454545,
                "end_time": 62.36363636363636,
                "pitch": 82,
                "velocity": 32,
                "duration": 0.23409090909090935,
                "tempo": 120.0
            },
            {
                "start_time": 62.36363636363636,
                "end_time": 62.60227272727273,
                "pitch": 84,
                "velocity": 32,
                "duration": 0.23863636363636687,
                "tempo": 120.0
            },
            {
                "start_time": 62.36363636363636,
                "end_time": 62.60227272727273,
                "pitch": 84,
                "velocity": 32,
                "duration": 0.23863636363636687,
                "tempo": 120.0
            },
            {
                "start_time": 62.60227272727273,
                "end_time": 62.72272727272727,
                "pitch": 82,
                "velocity": 32,
                "duration": 0.12045454545454248,
                "tempo": 120.0
            },
            {
                "start_time": 62.60227272727273,
                "end_time": 62.72272727272727,
                "pitch": 82,
                "velocity": 32,
                "duration": 0.12045454545454248,
                "tempo": 120.0
            },
            {
                "start_time": 62.72272727272727,
                "end_time": 62.840909090909086,
                "pitch": 84,
                "velocity": 32,
                "duration": 0.11818181818181728,
                "tempo": 120.0
            },
            {
                "start_time": 62.72272727272727,
                "end_time": 62.840909090909086,
                "pitch": 84,
                "velocity": 32,
                "duration": 0.11818181818181728,
                "tempo": 120.0
            },
            {
                "start_time": 62.840909090909086,
                "end_time": 62.84318181818181,
                "pitch": 82,
                "velocity": 32,
                "duration": 0.0022727272727252057,
                "tempo": 120.0
            },
            {
                "start_time": 62.84318181818181,
                "end_time": 63.08181818181818,
                "pitch": 82,
                "velocity": 32,
                "duration": 0.23863636363636687,
                "tempo": 120.0
            },
            {
                "start_time": 63.08181818181818,
                "end_time": 77.47272727272727,
                "pitch": 81,
                "velocity": 32,
                "duration": 14.39090909090909,
                "tempo": 120.0
            },
            {
                "start_time": 77.47272727272727,
                "end_time": 79.28181818181818,
                "pitch": 65,
                "velocity": 10,
                "duration": 1.8090909090909122,
                "tempo": 120.0
            },
            {
                "start_time": 79.28181818181818,
                "end_time": 81.03181818181818,
                "pitch": 65,
                "velocity": 16,
                "duration": 1.75,
                "tempo": 120.0
            },
            {
                "start_time": 81.03181818181818,
                "end_time": 82.77954545454546,
                "pitch": 65,
                "velocity": 25,
                "duration": 1.7477272727272748,
                "tempo": 120.0
            },
            {
                "start_time": 82.77954545454546,
                "end_time": 103.08636363636363,
                "pitch": 65,
                "velocity": 40,
                "duration": 20.306818181818173,
                "tempo": 120.0
            },
            {
                "start_time": 103.08636363636363,
                "end_time": 105.74545454545454,
                "pitch": 81,
                "velocity": 40,
                "duration": 2.6590909090909065,
                "tempo": 120.0
            }
        ],
        "Harpsichord": [
            {
                "start_time": 42.92272727272727,
                "end_time": 43.38181818181818,
                "pitch": 45,
                "velocity": 127,
                "duration": 0.45909090909091077,
                "tempo": 120.0
            },
            {
                "start_time": 43.38181818181818,
                "end_time": 43.834090909090904,
                "pitch": 45,
                "velocity": 127,
                "duration": 0.45227272727272094,
                "tempo": 120.0
            },
            {
                "start_time": 47.809090909090905,
                "end_time": 48.288636363636364,
                "pitch": 33,
                "velocity": 101,
                "duration": 0.47954545454545894,
                "tempo": 120.0
            },
            {
                "start_time": 48.29090909090909,
                "end_time": 53.86818181818182,
                "pitch": 33,
                "velocity": 101,
                "duration": 5.577272727272728,
                "tempo": 120.0
            },
            {
                "start_time": 53.86818181818182,
                "end_time": 53.98863636363636,
                "pitch": 38,
                "velocity": 101,
                "duration": 0.12045454545454248,
                "tempo": 120.0
            },
            {
                "start_time": 53.98863636363636,
                "end_time": 54.10909090909091,
                "pitch": 38,
                "velocity": 80,
                "duration": 0.12045454545454959,
                "tempo": 120.0
            },
            {
                "start_time": 54.10909090909091,
                "end_time": 54.22727272727273,
                "pitch": 38,
                "velocity": 101,
                "duration": 0.11818181818181728,
                "tempo": 120.0
            },
            {
                "start_time": 54.22727272727273,
                "end_time": 65.80227272727272,
                "pitch": 38,
                "velocity": 80,
                "duration": 11.574999999999996,
                "tempo": 120.0
            },
            {
                "start_time": 65.80227272727272,
                "end_time": 65.80454545454545,
                "pitch": 82,
                "velocity": 80,
                "duration": 0.0022727272727252057,
                "tempo": 120.0
            },
            {
                "start_time": 65.80454545454545,
                "end_time": 66.04318181818182,
                "pitch": 70,
                "velocity": 32,
                "duration": 0.23863636363637397,
                "tempo": 120.0
            },
            {
                "start_time": 66.04318181818182,
                "end_time": 66.2840909090909,
                "pitch": 65,
                "velocity": 32,
                "duration": 0.24090909090908497,
                "tempo": 120.0
            },
            {
                "start_time": 66.2840909090909,
                "end_time": 66.51818181818182,
                "pitch": 70,
                "velocity": 32,
                "duration": 0.23409090909090935,
                "tempo": 120.0
            },
            {
                "start_time": 66.04318181818182,
                "end_time": 66.51818181818182,
                "pitch": 77,
                "velocity": 32,
                "duration": 0.4749999999999943,
                "tempo": 120.0
            },
            {
                "start_time": 66.51818181818182,
                "end_time": 66.99318181818181,
                "pitch": 77,
                "velocity": 32,
                "duration": 0.4749999999999943,
                "tempo": 120.0
            },
            {
                "start_time": 66.51818181818182,
                "end_time": 66.99318181818181,
                "pitch": 77,
                "velocity": 32,
                "duration": 0.4749999999999943,
                "tempo": 120.0
            },
            {
                "start_time": 66.99318181818181,
                "end_time": 67.46136363636363,
                "pitch": 70,
                "velocity": 32,
                "duration": 0.4681818181818187,
                "tempo": 120.0
            },
            {
                "start_time": 66.99318181818181,
                "end_time": 67.46136363636363,
                "pitch": 70,
                "velocity": 32,
                "duration": 0.4681818181818187,
                "tempo": 120.0
            },
            {
                "start_time": 66.2840909090909,
                "end_time": 67.69090909090909,
                "pitch": 58,
                "velocity": 32,
                "duration": 1.4068181818181813,
                "tempo": 120.0
            },
            {
                "start_time": 67.46136363636363,
                "end_time": 67.69090909090909,
                "pitch": 65,
                "velocity": 32,
                "duration": 0.22954545454545894,
                "tempo": 120.0
            },
            {
                "start_time": 67.69090909090909,
                "end_time": 67.93636363636364,
                "pitch": 70,
                "velocity": 32,
                "duration": 0.2454545454545496,
                "tempo": 120.0
            },
            {
                "start_time": 67.46136363636363,
                "end_time": 67.93636363636364,
                "pitch": 77,
                "velocity": 32,
                "duration": 0.4750000000000085,
                "tempo": 120.0
            },
            {
                "start_time": 67.69090909090909,
                "end_time": 68.18181818181817,
                "pitch": 58,
                "velocity": 32,
                "duration": 0.49090909090908497,
                "tempo": 120.0
            },
            {
                "start_time": 67.93636363636364,
                "end_time": 68.18181818181817,
                "pitch": 65,
                "velocity": 32,
                "duration": 0.24545454545453538,
                "tempo": 120.0
            },
            {
                "start_time": 68.18181818181817,
                "end_time": 68.42272727272727,
                "pitch": 70,
                "velocity": 32,
                "duration": 0.24090909090909918,
                "tempo": 120.0
            },
            {
                "start_time": 67.93636363636364,
                "end_time": 68.42272727272727,
                "pitch": 77,
                "velocity": 32,
                "duration": 0.48636363636363455,
                "tempo": 120.0
            },
            {
                "start_time": 68.42272727272727,
                "end_time": 68.90454545454546,
                "pitch": 77,
                "velocity": 32,
                "duration": 0.48181818181818414,
                "tempo": 120.0
            },
            {
                "start_time": 68.42272727272727,
                "end_time": 68.90454545454546,
                "pitch": 77,
                "velocity": 32,
                "duration": 0.48181818181818414,
                "tempo": 120.0
            },
            {
                "start_time": 68.90454545454546,
                "end_time": 69.3840909090909,
                "pitch": 70,
                "velocity": 32,
                "duration": 0.4795454545454447,
                "tempo": 120.0
            },
            {
                "start_time": 68.90454545454546,
                "end_time": 69.3840909090909,
                "pitch": 70,
                "velocity": 32,
                "duration": 0.4795454545454447,
                "tempo": 120.0
            },
            {
                "start_time": 68.18181818181817,
                "end_time": 69.61818181818181,
                "pitch": 58,
                "velocity": 32,
                "duration": 1.4363636363636374,
                "tempo": 120.0
            },
            {
                "start_time": 69.3840909090909,
                "end_time": 69.61818181818181,
                "pitch": 65,
                "velocity": 32,
                "duration": 0.23409090909090935,
                "tempo": 120.0
            },
            {
                "start_time": 69.61818181818181,
                "end_time": 69.85909090909091,
                "pitch": 70,
                "velocity": 32,
                "duration": 0.24090909090909918,
                "tempo": 120.0
            },
            {
                "start_time": 69.3840909090909,
                "end_time": 69.85909090909091,
                "pitch": 77,
                "velocity": 32,
                "duration": 0.4750000000000085,
                "tempo": 120.0
            },
            {
                "start_time": 69.61818181818181,
                "end_time": 70.09772727272727,
                "pitch": 58,
                "velocity": 32,
                "duration": 0.47954545454545894,
                "tempo": 120.0
            },
            {
                "start_time": 69.85909090909091,
                "end_time": 70.09772727272727,
                "pitch": 65,
                "velocity": 32,
                "duration": 0.23863636363635976,
                "tempo": 120.0
            },
            {
                "start_time": 70.09772727272727,
                "end_time": 70.3340909090909,
                "pitch": 70,
                "velocity": 32,
                "duration": 0.23636363636363455,
                "tempo": 120.0
            },
            {
                "start_time": 69.85909090909091,
                "end_time": 70.3340909090909,
                "pitch": 77,
                "velocity": 32,
                "duration": 0.4749999999999943,
                "tempo": 120.0
            },
            {
                "start_time": 70.3340909090909,
                "end_time": 70.80681818181817,
                "pitch": 77,
                "velocity": 32,
                "duration": 0.4727272727272691,
                "tempo": 120.0
            },
            {
                "start_time": 70.3340909090909,
                "end_time": 70.80681818181817,
                "pitch": 77,
                "velocity": 32,
                "duration": 0.4727272727272691,
                "tempo": 120.0
            },
            {
                "start_time": 70.80681818181817,
                "end_time": 71.28181818181818,
                "pitch": 70,
                "velocity": 32,
                "duration": 0.4750000000000085,
                "tempo": 120.0
            },
            {
                "start_time": 70.80681818181817,
                "end_time": 71.28181818181818,
                "pitch": 70,
                "velocity": 32,
                "duration": 0.4750000000000085,
                "tempo": 120.0
            },
            {
                "start_time": 70.09772727272727,
                "end_time": 71.51590909090909,
                "pitch": 58,
                "velocity": 32,
                "duration": 1.4181818181818215,
                "tempo": 120.0
            },
            {
                "start_time": 71.28181818181818,
                "end_time": 71.51590909090909,
                "pitch": 65,
                "velocity": 32,
                "duration": 0.23409090909090935,
                "tempo": 120.0
            },
            {
                "start_time": 71.51590909090909,
                "end_time": 71.7090909090909,
                "pitch": 70,
                "velocity": 32,
                "duration": 0.19318181818181301,
                "tempo": 120.0
            },
            {
                "start_time": 71.7090909090909,
                "end_time": 71.86818181818181,
                "pitch": 72,
                "velocity": 32,
                "duration": 0.1590909090909065,
                "tempo": 120.0
            },
            {
                "start_time": 71.7090909090909,
                "end_time": 71.86818181818181,
                "pitch": 72,
                "velocity": 32,
                "duration": 0.1590909090909065,
                "tempo": 120.0
            },
            {
                "start_time": 71.28181818181818,
                "end_time": 71.86818181818181,
                "pitch": 77,
                "velocity": 32,
                "duration": 0.5863636363636289,
                "tempo": 120.0
            },
            {
                "start_time": 71.86818181818181,
                "end_time": 72.03636363636363,
                "pitch": 77,
                "velocity": 32,
                "duration": 0.16818181818182154,
                "tempo": 120.0
            },
            {
                "start_time": 71.86818181818181,
                "end_time": 72.03636363636363,
                "pitch": 77,
                "velocity": 32,
                "duration": 0.16818181818182154,
                "tempo": 120.0
            },
            {
                "start_time": 72.03636363636363,
                "end_time": 72.17727272727272,
                "pitch": 70,
                "velocity": 32,
                "duration": 0.14090909090909065,
                "tempo": 120.0
            },
            {
                "start_time": 72.03636363636363,
                "end_time": 72.17727272727272,
                "pitch": 70,
                "velocity": 32,
                "duration": 0.14090909090909065,
                "tempo": 120.0
            },
            {
                "start_time": 72.17727272727272,
                "end_time": 72.31818181818181,
                "pitch": 72,
                "velocity": 32,
                "duration": 0.14090909090909065,
                "tempo": 120.0
            },
            {
                "start_time": 72.17727272727272,
                "end_time": 72.31818181818181,
                "pitch": 72,
                "velocity": 32,
                "duration": 0.14090909090909065,
                "tempo": 120.0
            },
            {
                "start_time": 72.31818181818181,
                "end_time": 72.47272727272727,
                "pitch": 77,
                "velocity": 32,
                "duration": 0.1545454545454561,
                "tempo": 120.0
            },
            {
                "start_time": 72.31818181818181,
                "end_time": 72.47272727272727,
                "pitch": 77,
                "velocity": 32,
                "duration": 0.1545454545454561,
                "tempo": 120.0
            },
            {
                "start_time": 72.47272727272727,
                "end_time": 72.61136363636363,
                "pitch": 70,
                "velocity": 32,
                "duration": 0.13863636363636545,
                "tempo": 120.0
            },
            {
                "start_time": 72.47272727272727,
                "end_time": 72.61136363636363,
                "pitch": 70,
                "velocity": 32,
                "duration": 0.13863636363636545,
                "tempo": 120.0
            },
            {
                "start_time": 72.61136363636363,
                "end_time": 72.74772727272727,
                "pitch": 72,
                "velocity": 32,
                "duration": 0.13636363636364024,
                "tempo": 120.0
            },
            {
                "start_time": 72.61136363636363,
                "end_time": 72.74772727272727,
                "pitch": 72,
                "velocity": 32,
                "duration": 0.13636363636364024,
                "tempo": 120.0
            },
            {
                "start_time": 72.74772727272727,
                "end_time": 72.90227272727272,
                "pitch": 77,
                "velocity": 32,
                "duration": 0.15454545454544188,
                "tempo": 120.0
            },
            {
                "start_time": 72.74772727272727,
                "end_time": 72.90227272727272,
                "pitch": 77,
                "velocity": 32,
                "duration": 0.15454545454544188,
                "tempo": 120.0
            },
            {
                "start_time": 72.90227272727272,
                "end_time": 73.03863636363636,
                "pitch": 70,
                "velocity": 32,
                "duration": 0.13636363636364024,
                "tempo": 120.0
            },
            {
                "start_time": 72.90227272727272,
                "end_time": 73.03863636363636,
                "pitch": 70,
                "velocity": 32,
                "duration": 0.13636363636364024,
                "tempo": 120.0
            },
            {
                "start_time": 73.03863636363636,
                "end_time": 73.17727272727272,
                "pitch": 72,
                "velocity": 32,
                "duration": 0.13863636363636545,
                "tempo": 120.0
            },
            {
                "start_time": 73.04090909090908,
                "end_time": 73.17727272727272,
                "pitch": 72,
                "velocity": 32,
                "duration": 0.13636363636364024,
                "tempo": 120.0
            },
            {
                "start_time": 73.17727272727272,
                "end_time": 73.3409090909091,
                "pitch": 77,
                "velocity": 32,
                "duration": 0.16363636363637113,
                "tempo": 120.0
            },
            {
                "start_time": 73.17727272727272,
                "end_time": 73.3409090909091,
                "pitch": 77,
                "velocity": 32,
                "duration": 0.16363636363637113,
                "tempo": 120.0
            },
            {
                "start_time": 73.3409090909091,
                "end_time": 73.48863636363636,
                "pitch": 70,
                "velocity": 32,
                "duration": 0.14772727272726627,
                "tempo": 120.0
            },
            {
                "start_time": 73.3409090909091,
                "end_time": 73.48863636363636,
                "pitch": 70,
                "velocity": 32,
                "duration": 0.14772727272726627,
                "tempo": 120.0
            },
            {
                "start_time": 73.48863636363636,
                "end_time": 73.63636363636363,
                "pitch": 72,
                "velocity": 32,
                "duration": 0.14772727272726627,
                "tempo": 120.0
            },
            {
                "start_time": 73.48863636363636,
                "end_time": 73.63636363636363,
                "pitch": 72,
                "velocity": 32,
                "duration": 0.14772727272726627,
                "tempo": 120.0
            },
            {
                "start_time": 73.63636363636363,
                "end_time": 73.81136363636364,
                "pitch": 77,
                "velocity": 32,
                "duration": 0.17500000000001137,
                "tempo": 120.0
            },
            {
                "start_time": 73.63636363636363,
                "end_time": 73.81136363636364,
                "pitch": 77,
                "velocity": 32,
                "duration": 0.17500000000001137,
                "tempo": 120.0
            },
            {
                "start_time": 73.81136363636364,
                "end_time": 73.96818181818182,
                "pitch": 70,
                "velocity": 20,
                "duration": 0.1568181818181813,
                "tempo": 120.0
            },
            {
                "start_time": 73.81136363636364,
                "end_time": 73.96818181818182,
                "pitch": 70,
                "velocity": 32,
                "duration": 0.1568181818181813,
                "tempo": 120.0
            },
            {
                "start_time": 73.96818181818182,
                "end_time": 74.14090909090909,
                "pitch": 72,
                "velocity": 20,
                "duration": 0.17272727272727195,
                "tempo": 120.0
            },
            {
                "start_time": 73.96818181818182,
                "end_time": 74.14090909090909,
                "pitch": 72,
                "velocity": 20,
                "duration": 0.17272727272727195,
                "tempo": 120.0
            },
            {
                "start_time": 74.14090909090909,
                "end_time": 74.29090909090908,
                "pitch": 77,
                "velocity": 20,
                "duration": 0.14999999999999147,
                "tempo": 120.0
            },
            {
                "start_time": 74.14090909090909,
                "end_time": 74.29090909090908,
                "pitch": 77,
                "velocity": 20,
                "duration": 0.14999999999999147,
                "tempo": 120.0
            },
            {
                "start_time": 74.29090909090908,
                "end_time": 74.44318181818181,
                "pitch": 70,
                "velocity": 20,
                "duration": 0.1522727272727309,
                "tempo": 120.0
            },
            {
                "start_time": 74.29090909090908,
                "end_time": 74.44318181818181,
                "pitch": 70,
                "velocity": 20,
                "duration": 0.1522727272727309,
                "tempo": 120.0
            },
            {
                "start_time": 74.44318181818181,
                "end_time": 74.60909090909091,
                "pitch": 72,
                "velocity": 20,
                "duration": 0.16590909090909634,
                "tempo": 120.0
            },
            {
                "start_time": 74.44318181818181,
                "end_time": 74.60909090909091,
                "pitch": 72,
                "velocity": 20,
                "duration": 0.16590909090909634,
                "tempo": 120.0
            },
            {
                "start_time": 74.60909090909091,
                "end_time": 74.76363636363637,
                "pitch": 77,
                "velocity": 20,
                "duration": 0.1545454545454561,
                "tempo": 120.0
            },
            {
                "start_time": 74.60909090909091,
                "end_time": 74.76363636363637,
                "pitch": 77,
                "velocity": 20,
                "duration": 0.1545454545454561,
                "tempo": 120.0
            },
            {
                "start_time": 74.76363636363637,
                "end_time": 74.91818181818182,
                "pitch": 70,
                "velocity": 16,
                "duration": 0.1545454545454561,
                "tempo": 120.0
            },
            {
                "start_time": 74.76363636363637,
                "end_time": 74.91818181818182,
                "pitch": 70,
                "velocity": 20,
                "duration": 0.1545454545454561,
                "tempo": 120.0
            },
            {
                "start_time": 74.91818181818182,
                "end_time": 75.08863636363635,
                "pitch": 72,
                "velocity": 16,
                "duration": 0.17045454545453254,
                "tempo": 120.0
            },
            {
                "start_time": 74.91818181818182,
                "end_time": 75.08863636363635,
                "pitch": 72,
                "velocity": 16,
                "duration": 0.17045454545453254,
                "tempo": 120.0
            },
            {
                "start_time": 75.08863636363635,
                "end_time": 75.24090909090908,
                "pitch": 77,
                "velocity": 16,
                "duration": 0.1522727272727309,
                "tempo": 120.0
            },
            {
                "start_time": 75.08863636363635,
                "end_time": 75.24090909090908,
                "pitch": 77,
                "velocity": 16,
                "duration": 0.1522727272727309,
                "tempo": 120.0
            },
            {
                "start_time": 75.24090909090908,
                "end_time": 75.39090909090909,
                "pitch": 70,
                "velocity": 13,
                "duration": 0.15000000000000568,
                "tempo": 120.0
            },
            {
                "start_time": 75.24090909090908,
                "end_time": 75.39090909090909,
                "pitch": 70,
                "velocity": 16,
                "duration": 0.15000000000000568,
                "tempo": 120.0
            },
            {
                "start_time": 75.39090909090909,
                "end_time": 75.55909090909091,
                "pitch": 72,
                "velocity": 13,
                "duration": 0.16818181818182154,
                "tempo": 120.0
            },
            {
                "start_time": 75.39090909090909,
                "end_time": 75.55909090909091,
                "pitch": 72,
                "velocity": 13,
                "duration": 0.16818181818182154,
                "tempo": 120.0
            },
            {
                "start_time": 75.55909090909091,
                "end_time": 75.7159090909091,
                "pitch": 77,
                "velocity": 13,
                "duration": 0.1568181818181813,
                "tempo": 120.0
            },
            {
                "start_time": 75.55909090909091,
                "end_time": 75.7159090909091,
                "pitch": 77,
                "velocity": 13,
                "duration": 0.1568181818181813,
                "tempo": 120.0
            },
            {
                "start_time": 75.7159090909091,
                "end_time": 75.71818181818182,
                "pitch": 70,
                "velocity": 13,
                "duration": 0.0022727272727252057,
                "tempo": 120.0
            },
            {
                "start_time": 75.71818181818182,
                "end_time": 75.875,
                "pitch": 70,
                "velocity": 10,
                "duration": 0.1568181818181813,
                "tempo": 120.0
            },
            {
                "start_time": 75.875,
                "end_time": 76.05,
                "pitch": 72,
                "velocity": 10,
                "duration": 0.17499999999999716,
                "tempo": 120.0
            },
            {
                "start_time": 75.875,
                "end_time": 76.05,
                "pitch": 72,
                "velocity": 10,
                "duration": 0.17499999999999716,
                "tempo": 120.0
            },
            {
                "start_time": 76.05,
                "end_time": 76.20454545454545,
                "pitch": 77,
                "velocity": 10,
                "duration": 0.1545454545454561,
                "tempo": 120.0
            },
            {
                "start_time": 76.05,
                "end_time": 76.20454545454545,
                "pitch": 77,
                "velocity": 10,
                "duration": 0.1545454545454561,
                "tempo": 120.0
            },
            {
                "start_time": 76.20454545454545,
                "end_time": 76.35909090909091,
                "pitch": 70,
                "velocity": 8,
                "duration": 0.1545454545454561,
                "tempo": 120.0
            },
            {
                "start_time": 76.20454545454545,
                "end_time": 76.35909090909091,
                "pitch": 70,
                "velocity": 10,
                "duration": 0.1545454545454561,
                "tempo": 120.0
            },
            {
                "start_time": 76.35909090909091,
                "end_time": 76.52954545454546,
                "pitch": 72,
                "velocity": 8,
                "duration": 0.17045454545454675,
                "tempo": 120.0
            },
            {
                "start_time": 76.35909090909091,
                "end_time": 76.52954545454546,
                "pitch": 72,
                "velocity": 8,
                "duration": 0.17045454545454675,
                "tempo": 120.0
            },
            {
                "start_time": 76.52954545454546,
                "end_time": 76.68181818181817,
                "pitch": 77,
                "velocity": 8,
                "duration": 0.15227272727271668,
                "tempo": 120.0
            },
            {
                "start_time": 76.52954545454546,
                "end_time": 76.68181818181817,
                "pitch": 77,
                "velocity": 8,
                "duration": 0.15227272727271668,
                "tempo": 120.0
            },
            {
                "start_time": 76.68181818181817,
                "end_time": 76.83181818181818,
                "pitch": 70,
                "velocity": 6,
                "duration": 0.15000000000000568,
                "tempo": 120.0
            },
            {
                "start_time": 76.68181818181817,
                "end_time": 76.83181818181818,
                "pitch": 70,
                "velocity": 8,
                "duration": 0.15000000000000568,
                "tempo": 120.0
            },
            {
                "start_time": 76.83181818181818,
                "end_time": 77.0,
                "pitch": 72,
                "velocity": 5,
                "duration": 0.16818181818182154,
                "tempo": 120.0
            },
            {
                "start_time": 76.83181818181818,
                "end_time": 77.0,
                "pitch": 72,
                "velocity": 6,
                "duration": 0.16818181818182154,
                "tempo": 120.0
            }
        ],
        "Oboe": [
            {
                "start_time": 26.134090909090908,
                "end_time": 26.252272727272725,
                "pitch": 62,
                "velocity": 101,
                "duration": 0.11818181818181728,
                "tempo": 120.0
            },
            {
                "start_time": 26.252272727272725,
                "end_time": 26.554545454545455,
                "pitch": 63,
                "velocity": 64,
                "duration": 0.30227272727272947,
                "tempo": 120.0
            },
            {
                "start_time": 26.554545454545455,
                "end_time": 26.80909090909091,
                "pitch": 63,
                "velocity": 80,
                "duration": 0.25454545454545396,
                "tempo": 120.0
            },
            {
                "start_time": 26.80909090909091,
                "end_time": 27.03181818181818,
                "pitch": 63,
                "velocity": 80,
                "duration": 0.22272727272727266,
                "tempo": 120.0
            },
            {
                "start_time": 27.03181818181818,
                "end_time": 27.220454545454544,
                "pitch": 63,
                "velocity": 80,
                "duration": 0.1886363636363626,
                "tempo": 120.0
            },
            {
                "start_time": 27.220454545454544,
                "end_time": 27.393181818181816,
                "pitch": 63,
                "velocity": 80,
                "duration": 0.17272727272727195,
                "tempo": 120.0
            },
            {
                "start_time": 27.393181818181816,
                "end_time": 27.547727272727272,
                "pitch": 63,
                "velocity": 80,
                "duration": 0.1545454545454561,
                "tempo": 120.0
            },
            {
                "start_time": 27.547727272727272,
                "end_time": 27.659090909090907,
                "pitch": 63,
                "velocity": 101,
                "duration": 0.11136363636363455,
                "tempo": 120.0
            },
            {
                "start_time": 27.659090909090907,
                "end_time": 27.754545454545454,
                "pitch": 63,
                "velocity": 101,
                "duration": 0.09545454545454746,
                "tempo": 120.0
            },
            {
                "start_time": 27.754545454545454,
                "end_time": 27.96363636363636,
                "pitch": 63,
                "velocity": 101,
                "duration": 0.20909090909090722,
                "tempo": 120.0
            },
            {
                "start_time": 27.96363636363636,
                "end_time": 28.081818181818182,
                "pitch": 62,
                "velocity": 101,
                "duration": 0.11818181818182083,
                "tempo": 120.0
            },
            {
                "start_time": 28.081818181818182,
                "end_time": 28.206818181818182,
                "pitch": 63,
                "velocity": 101,
                "duration": 0.125,
                "tempo": 120.0
            },
            {
                "start_time": 28.206818181818182,
                "end_time": 28.313636363636363,
                "pitch": 62,
                "velocity": 80,
                "duration": 0.10681818181818059,
                "tempo": 120.0
            },
            {
                "start_time": 28.313636363636363,
                "end_time": 28.420454545454543,
                "pitch": 63,
                "velocity": 80,
                "duration": 0.10681818181818059,
                "tempo": 120.0
            },
            {
                "start_time": 28.420454545454543,
                "end_time": 28.509090909090908,
                "pitch": 62,
                "velocity": 80,
                "duration": 0.08863636363636473,
                "tempo": 120.0
            },
            {
                "start_time": 28.509090909090908,
                "end_time": 28.836363636363636,
                "pitch": 63,
                "velocity": 101,
                "duration": 0.32727272727272805,
                "tempo": 120.0
            }
        ],
        "Acoustic Bass": [
            {
                "start_time": 14.668181818181818,
                "end_time": 14.788636363636362,
                "pitch": 40,
                "velocity": 101,
                "duration": 0.12045454545454426,
                "tempo": 120.0
            },
            {
                "start_time": 14.788636363636362,
                "end_time": 14.909090909090908,
                "pitch": 45,
                "velocity": 101,
                "duration": 0.12045454545454604,
                "tempo": 120.0
            },
            {
                "start_time": 14.909090909090908,
                "end_time": 15.029545454545454,
                "pitch": 38,
                "velocity": 101,
                "duration": 0.12045454545454604,
                "tempo": 120.0
            },
            {
                "start_time": 15.029545454545454,
                "end_time": 15.147727272727272,
                "pitch": 43,
                "velocity": 101,
                "duration": 0.11818181818181728,
                "tempo": 120.0
            },
            {
                "start_time": 15.147727272727272,
                "end_time": 15.268181818181818,
                "pitch": 36,
                "velocity": 101,
                "duration": 0.12045454545454604,
                "tempo": 120.0
            },
            {
                "start_time": 15.268181818181818,
                "end_time": 15.388636363636364,
                "pitch": 41,
                "velocity": 101,
                "duration": 0.12045454545454604,
                "tempo": 120.0
            },
            {
                "start_time": 15.268181818181818,
                "end_time": 15.388636363636364,
                "pitch": 41,
                "velocity": 101,
                "duration": 0.12045454545454604,
                "tempo": 120.0
            },
            {
                "start_time": 14.788636363636362,
                "end_time": 25.402272727272727,
                "pitch": 33,
                "velocity": 101,
                "duration": 10.613636363636365,
                "tempo": 120.0
            },
            {
                "start_time": 25.163636363636364,
                "end_time": 25.402272727272727,
                "pitch": 33,
                "velocity": 127,
                "duration": 0.2386363636363633,
                "tempo": 120.0
            },
            {
                "start_time": 25.643181818181816,
                "end_time": 25.888636363636362,
                "pitch": 33,
                "velocity": 127,
                "duration": 0.24545454545454604,
                "tempo": 120.0
            },
            {
                "start_time": 28.968181818181815,
                "end_time": 29.21363636363636,
                "pitch": 33,
                "velocity": 127,
                "duration": 0.24545454545454604,
                "tempo": 120.0
            },
            {
                "start_time": 29.459090909090907,
                "end_time": 29.7,
                "pitch": 33,
                "velocity": 127,
                "duration": 0.24090909090909207,
                "tempo": 120.0
            },
            {
                "start_time": 42.925,
                "end_time": 43.38181818181818,
                "pitch": 39,
                "velocity": 127,
                "duration": 0.45681818181818556,
                "tempo": 120.0
            },
            {
                "start_time": 43.38181818181818,
                "end_time": 43.834090909090904,
                "pitch": 39,
                "velocity": 127,
                "duration": 0.45227272727272094,
                "tempo": 120.0
            },
            {
                "start_time": 47.809090909090905,
                "end_time": 48.29090909090909,
                "pitch": 39,
                "velocity": 127,
                "duration": 0.48181818181818414,
                "tempo": 120.0
            },
            {
                "start_time": 48.29090909090909,
                "end_time": 48.77045454545454,
                "pitch": 39,
                "velocity": 127,
                "duration": 0.47954545454545183,
                "tempo": 120.0
            },
            {
                "start_time": 53.86818181818182,
                "end_time": 53.98863636363636,
                "pitch": 38,
                "velocity": 101,
                "duration": 0.12045454545454248,
                "tempo": 120.0
            },
            {
                "start_time": 53.98863636363636,
                "end_time": 54.10909090909091,
                "pitch": 38,
                "velocity": 80,
                "duration": 0.12045454545454959,
                "tempo": 120.0
            },
            {
                "start_time": 54.10909090909091,
                "end_time": 54.22727272727273,
                "pitch": 38,
                "velocity": 101,
                "duration": 0.11818181818181728,
                "tempo": 120.0
            }
        ]
    }
}