{
    "track_id": "Rastan (FM) - 03 - Bad Bible",
    "mood": "angry",
    "instruments": {
        "Vibraphone": [
            {
                "start_time": 0.19545454545454544,
                "end_time": 0.36363636363636365,
                "pitch": 66,
                "velocity": 40,
                "duration": 0.1681818181818182,
                "tempo": 120.0
            },
            {
                "start_time": 0.36363636363636365,
                "end_time": 0.5454545454545454,
                "pitch": 66,
                "velocity": 40,
                "duration": 0.18181818181818177,
                "tempo": 120.0
            },
            {
                "start_time": 0.7227272727272727,
                "end_time": 0.884090909090909,
                "pitch": 67,
                "velocity": 40,
                "duration": 0.16136363636363638,
                "tempo": 120.0
            },
            {
                "start_time": 0.884090909090909,
                "end_time": 1.0613636363636363,
                "pitch": 67,
                "velocity": 40,
                "duration": 0.17727272727272725,
                "tempo": 120.0
            },
            {
                "start_time": 1.2454545454545454,
                "end_time": 1.4136363636363636,
                "pitch": 74,
                "velocity": 40,
                "duration": 0.1681818181818182,
                "tempo": 120.0
            },
            {
                "start_time": 1.4136363636363636,
                "end_time": 1.5977272727272727,
                "pitch": 74,
                "velocity": 40,
                "duration": 0.18409090909090908,
                "tempo": 120.0
            },
            {
                "start_time": 1.7818181818181817,
                "end_time": 1.9477272727272725,
                "pitch": 70,
                "velocity": 40,
                "duration": 0.16590909090909078,
                "tempo": 120.0
            },
            {
                "start_time": 1.9477272727272725,
                "end_time": 2.131818181818182,
                "pitch": 70,
                "velocity": 40,
                "duration": 0.1840909090909093,
                "tempo": 120.0
            }
        ],
        "Harpsichord": [
            {
                "start_time": 0.013636363636363636,
                "end_time": 0.27954545454545454,
                "pitch": 78,
                "velocity": 40,
                "duration": 0.26590909090909093,
                "tempo": 120.0
            },
            {
                "start_time": 0.27954545454545454,
                "end_time": 0.5454545454545454,
                "pitch": 78,
                "velocity": 40,
                "duration": 0.2659090909090909,
                "tempo": 120.0
            },
            {
                "start_time": 0.5454545454545454,
                "end_time": 0.8045454545454545,
                "pitch": 78,
                "velocity": 40,
                "duration": 0.25909090909090904,
                "tempo": 120.0
            },
            {
                "start_time": 0.8045454545454545,
                "end_time": 1.0636363636363635,
                "pitch": 78,
                "velocity": 40,
                "duration": 0.25909090909090904,
                "tempo": 120.0
            },
            {
                "start_time": 1.0636363636363635,
                "end_time": 1.3295454545454546,
                "pitch": 78,
                "velocity": 40,
                "duration": 0.2659090909090911,
                "tempo": 120.0
            },
            {
                "start_time": 1.3295454545454546,
                "end_time": 1.5977272727272727,
                "pitch": 78,
                "velocity": 40,
                "duration": 0.2681818181818181,
                "tempo": 120.0
            },
            {
                "start_time": 1.5977272727272727,
                "end_time": 1.8636363636363635,
                "pitch": 78,
                "velocity": 40,
                "duration": 0.2659090909090909,
                "tempo": 120.0
            },
            {
                "start_time": 1.8636363636363635,
                "end_time": 2.131818181818182,
                "pitch": 78,
                "velocity": 40,
                "duration": 0.2681818181818183,
                "tempo": 120.0
            },
            {
                "start_time": 2.131818181818182,
                "end_time": 2.2977272727272724,
                "pitch": 78,
                "velocity": 40,
                "duration": 0.16590909090909056,
                "tempo": 120.0
            }
        ],
        "Acoustic Bass": [
            {
                "start_time": 0.013636363636363636,
                "end_time": 0.27954545454545454,
                "pitch": 30,
                "velocity": 101,
                "duration": 0.26590909090909093,
                "tempo": 120.0
            },
            {
                "start_time": 0.27954545454545454,
                "end_time": 0.5454545454545454,
                "pitch": 30,
                "velocity": 101,
                "duration": 0.2659090909090909,
                "tempo": 120.0
            },
            {
                "start_time": 0.5454545454545454,
                "end_time": 0.8045454545454545,
                "pitch": 30,
                "velocity": 101,
                "duration": 0.25909090909090904,
                "tempo": 120.0
            },
            {
                "start_time": 0.8045454545454545,
                "end_time": 1.0636363636363635,
                "pitch": 30,
                "velocity": 101,
                "duration": 0.25909090909090904,
                "tempo": 120.0
            },
            {
                "start_time": 1.0636363636363635,
                "end_time": 1.3295454545454546,
                "pitch": 30,
                "velocity": 101,
                "duration": 0.2659090909090911,
                "tempo": 120.0
            },
            {
                "start_time": 1.3295454545454546,
                "end_time": 1.5977272727272727,
                "pitch": 30,
                "velocity": 101,
                "duration": 0.2681818181818181,
                "tempo": 120.0
            },
            {
                "start_time": 1.5977272727272727,
                "end_time": 1.8636363636363635,
                "pitch": 30,
                "velocity": 101,
                "duration": 0.2659090909090909,
                "tempo": 120.0
            },
            {
                "start_time": 1.8636363636363635,
                "end_time": 2.131818181818182,
                "pitch": 30,
                "velocity": 101,
                "duration": 0.2681818181818183,
                "tempo": 120.0
            },
            {
                "start_time": 2.131818181818182,
                "end_time": 2.2977272727272724,
                "pitch": 30,
                "velocity": 101,
                "duration": 0.16590909090909056,
                "tempo": 120.0
            }
        ]
    }
}