{
    "track_id": "Rastan (FM) - 08 - Game Over",
    "mood": "angry",
    "instruments": {
        "Lead 2 (sawtooth)": [
            {
                "start_time": 0.01818181818181818,
                "end_time": 0.825,
                "pitch": 74,
                "velocity": 80,
                "duration": 0.8068181818181818,
                "tempo": 120.0
            },
            {
                "start_time": 0.825,
                "end_time": 1.2318181818181817,
                "pitch": 77,
                "velocity": 80,
                "duration": 0.40681818181818175,
                "tempo": 120.0
            },
            {
                "start_time": 0.825,
                "end_time": 1.2318181818181817,
                "pitch": 77,
                "velocity": 80,
                "duration": 0.40681818181818175,
                "tempo": 120.0
            },
            {
                "start_time": 1.2318181818181817,
                "end_time": 1.6386363636363634,
                "pitch": 81,
                "velocity": 80,
                "duration": 0.40681818181818175,
                "tempo": 120.0
            },
            {
                "start_time": 1.6386363636363634,
                "end_time": 2.043181818181818,
                "pitch": 77,
                "velocity": 80,
                "duration": 0.40454545454545454,
                "tempo": 120.0
            },
            {
                "start_time": 2.043181818181818,
                "end_time": 2.4499999999999997,
                "pitch": 86,
                "velocity": 80,
                "duration": 0.40681818181818175,
                "tempo": 120.0
            },
            {
                "start_time": 2.4499999999999997,
                "end_time": 2.8545454545454545,
                "pitch": 79,
                "velocity": 80,
                "duration": 0.40454545454545476,
                "tempo": 120.0
            },
            {
                "start_time": 2.4499999999999997,
                "end_time": 2.8545454545454545,
                "pitch": 79,
                "velocity": 80,
                "duration": 0.40454545454545476,
                "tempo": 120.0
            },
            {
                "start_time": 2.8545454545454545,
                "end_time": 2.8568181818181815,
                "pitch": 83,
                "velocity": 80,
                "duration": 0.002272727272726982,
                "tempo": 120.0
            },
            {
                "start_time": 2.8568181818181815,
                "end_time": 3.2613636363636362,
                "pitch": 83,
                "velocity": 80,
                "duration": 0.40454545454545476,
                "tempo": 120.0
            },
            {
                "start_time": 2.043181818181818,
                "end_time": 4.0636363636363635,
                "pitch": 74,
                "velocity": 80,
                "duration": 2.0204545454545455,
                "tempo": 120.0
            },
            {
                "start_time": 3.2613636363636362,
                "end_time": 4.0636363636363635,
                "pitch": 74,
                "velocity": 80,
                "duration": 0.8022727272727272,
                "tempo": 120.0
            },
            {
                "start_time": 1.2318181818181817,
                "end_time": 4.463636363636364,
                "pitch": 69,
                "velocity": 80,
                "duration": 3.2318181818181824,
                "tempo": 120.0
            },
            {
                "start_time": 4.0636363636363635,
                "end_time": 4.463636363636364,
                "pitch": 77,
                "velocity": 80,
                "duration": 0.40000000000000036,
                "tempo": 120.0
            },
            {
                "start_time": 4.0636363636363635,
                "end_time": 4.463636363636364,
                "pitch": 77,
                "velocity": 80,
                "duration": 0.40000000000000036,
                "tempo": 120.0
            },
            {
                "start_time": 4.463636363636364,
                "end_time": 4.863636363636363,
                "pitch": 81,
                "velocity": 80,
                "duration": 0.39999999999999947,
                "tempo": 120.0
            },
            {
                "start_time": 1.6386363636363634,
                "end_time": 4.863636363636363,
                "pitch": 89,
                "velocity": 80,
                "duration": 3.2249999999999996,
                "tempo": 120.0
            },
            {
                "start_time": 4.863636363636363,
                "end_time": 5.2704545454545455,
                "pitch": 77,
                "velocity": 80,
                "duration": 0.4068181818181822,
                "tempo": 120.0
            },
            {
                "start_time": 3.2613636363636362,
                "end_time": 5.743181818181818,
                "pitch": 86,
                "velocity": 80,
                "duration": 2.481818181818182,
                "tempo": 120.0
            },
            {
                "start_time": 5.2704545454545455,
                "end_time": 5.743181818181818,
                "pitch": 86,
                "velocity": 80,
                "duration": 0.47272727272727266,
                "tempo": 120.0
            },
            {
                "start_time": 5.743181818181818,
                "end_time": 6.420454545454545,
                "pitch": 79,
                "velocity": 64,
                "duration": 0.6772727272727268,
                "tempo": 120.0
            },
            {
                "start_time": 5.743181818181818,
                "end_time": 6.420454545454545,
                "pitch": 79,
                "velocity": 80,
                "duration": 0.6772727272727268,
                "tempo": 120.0
            },
            {
                "start_time": 6.420454545454545,
                "end_time": 7.9818181818181815,
                "pitch": 83,
                "velocity": 51,
                "duration": 1.5613636363636365,
                "tempo": 120.0
            },
            {
                "start_time": 6.420454545454545,
                "end_time": 7.9818181818181815,
                "pitch": 83,
                "velocity": 64,
                "duration": 1.5613636363636365,
                "tempo": 120.0
            },
            {
                "start_time": 7.9818181818181815,
                "end_time": 13.577272727272726,
                "pitch": 81,
                "velocity": 40,
                "duration": 5.595454545454545,
                "tempo": 120.0
            },
            {
                "start_time": 13.577272727272726,
                "end_time": 13.579545454545453,
                "pitch": 79,
                "velocity": 40,
                "duration": 0.002272727272726982,
                "tempo": 120.0
            }
        ],
        "Trumpet": [
            {
                "start_time": 0.01818181818181818,
                "end_time": 0.8272727272727273,
                "pitch": 62,
                "velocity": 80,
                "duration": 0.8090909090909091,
                "tempo": 120.0
            },
            {
                "start_time": 0.8272727272727273,
                "end_time": 1.2318181818181817,
                "pitch": 65,
                "velocity": 80,
                "duration": 0.40454545454545443,
                "tempo": 120.0
            },
            {
                "start_time": 0.8272727272727273,
                "end_time": 1.2318181818181817,
                "pitch": 65,
                "velocity": 80,
                "duration": 0.40454545454545443,
                "tempo": 120.0
            },
            {
                "start_time": 1.2318181818181817,
                "end_time": 1.6386363636363634,
                "pitch": 69,
                "velocity": 80,
                "duration": 0.40681818181818175,
                "tempo": 120.0
            },
            {
                "start_time": 1.6386363636363634,
                "end_time": 2.043181818181818,
                "pitch": 65,
                "velocity": 80,
                "duration": 0.40454545454545454,
                "tempo": 120.0
            },
            {
                "start_time": 2.043181818181818,
                "end_time": 2.4499999999999997,
                "pitch": 74,
                "velocity": 80,
                "duration": 0.40681818181818175,
                "tempo": 120.0
            },
            {
                "start_time": 2.4499999999999997,
                "end_time": 2.8568181818181815,
                "pitch": 67,
                "velocity": 80,
                "duration": 0.40681818181818175,
                "tempo": 120.0
            },
            {
                "start_time": 2.4499999999999997,
                "end_time": 2.8568181818181815,
                "pitch": 67,
                "velocity": 80,
                "duration": 0.40681818181818175,
                "tempo": 120.0
            },
            {
                "start_time": 2.8568181818181815,
                "end_time": 3.2613636363636362,
                "pitch": 71,
                "velocity": 80,
                "duration": 0.40454545454545476,
                "tempo": 120.0
            },
            {
                "start_time": 2.8568181818181815,
                "end_time": 3.2613636363636362,
                "pitch": 71,
                "velocity": 80,
                "duration": 0.40454545454545476,
                "tempo": 120.0
            },
            {
                "start_time": 2.043181818181818,
                "end_time": 4.0636363636363635,
                "pitch": 62,
                "velocity": 80,
                "duration": 2.0204545454545455,
                "tempo": 120.0
            },
            {
                "start_time": 3.2613636363636362,
                "end_time": 4.0636363636363635,
                "pitch": 62,
                "velocity": 80,
                "duration": 0.8022727272727272,
                "tempo": 120.0
            },
            {
                "start_time": 1.2318181818181817,
                "end_time": 4.463636363636364,
                "pitch": 57,
                "velocity": 80,
                "duration": 3.2318181818181824,
                "tempo": 120.0
            },
            {
                "start_time": 4.0636363636363635,
                "end_time": 4.463636363636364,
                "pitch": 65,
                "velocity": 80,
                "duration": 0.40000000000000036,
                "tempo": 120.0
            },
            {
                "start_time": 4.0636363636363635,
                "end_time": 4.463636363636364,
                "pitch": 65,
                "velocity": 80,
                "duration": 0.40000000000000036,
                "tempo": 120.0
            },
            {
                "start_time": 4.463636363636364,
                "end_time": 4.863636363636363,
                "pitch": 69,
                "velocity": 80,
                "duration": 0.39999999999999947,
                "tempo": 120.0
            },
            {
                "start_time": 1.6386363636363634,
                "end_time": 4.863636363636363,
                "pitch": 77,
                "velocity": 80,
                "duration": 3.2249999999999996,
                "tempo": 120.0
            },
            {
                "start_time": 4.863636363636363,
                "end_time": 5.2704545454545455,
                "pitch": 65,
                "velocity": 80,
                "duration": 0.4068181818181822,
                "tempo": 120.0
            },
            {
                "start_time": 3.2613636363636362,
                "end_time": 5.743181818181818,
                "pitch": 74,
                "velocity": 80,
                "duration": 2.481818181818182,
                "tempo": 120.0
            },
            {
                "start_time": 5.2704545454545455,
                "end_time": 5.743181818181818,
                "pitch": 74,
                "velocity": 80,
                "duration": 0.47272727272727266,
                "tempo": 120.0
            },
            {
                "start_time": 5.743181818181818,
                "end_time": 6.420454545454545,
                "pitch": 67,
                "velocity": 64,
                "duration": 0.6772727272727268,
                "tempo": 120.0
            },
            {
                "start_time": 5.743181818181818,
                "end_time": 6.420454545454545,
                "pitch": 67,
                "velocity": 80,
                "duration": 0.6772727272727268,
                "tempo": 120.0
            },
            {
                "start_time": 6.420454545454545,
                "end_time": 7.9818181818181815,
                "pitch": 71,
                "velocity": 51,
                "duration": 1.5613636363636365,
                "tempo": 120.0
            },
            {
                "start_time": 6.420454545454545,
                "end_time": 7.9818181818181815,
                "pitch": 71,
                "velocity": 64,
                "duration": 1.5613636363636365,
                "tempo": 120.0
            },
            {
                "start_time": 7.9818181818181815,
                "end_time": 13.579545454545453,
                "pitch": 69,
                "velocity": 32,
                "duration": 5.597727272727272,
                "tempo": 120.0
            }
        ],
        "Electric Guitar (clean)": [
            {
                "start_time": 0.01818181818181818,
                "end_time": 0.8272727272727273,
                "pitch": 26,
                "velocity": 80,
                "duration": 0.8090909090909091,
                "tempo": 120.0
            },
            {
                "start_time": 0.8272727272727273,
                "end_time": 1.0295454545454545,
                "pitch": 26,
                "velocity": 80,
                "duration": 0.20227272727272727,
                "tempo": 120.0
            },
            {
                "start_time": 1.0295454545454545,
                "end_time": 1.2318181818181817,
                "pitch": 26,
                "velocity": 80,
                "duration": 0.20227272727272716,
                "tempo": 120.0
            },
            {
                "start_time": 1.2318181818181817,
                "end_time": 1.6386363636363634,
                "pitch": 38,
                "velocity": 101,
                "duration": 0.40681818181818175,
                "tempo": 120.0
            },
            {
                "start_time": 1.6386363636363634,
                "end_time": 1.8409090909090908,
                "pitch": 26,
                "velocity": 80,
                "duration": 0.20227272727272738,
                "tempo": 120.0
            },
            {
                "start_time": 1.8409090909090908,
                "end_time": 2.0454545454545454,
                "pitch": 26,
                "velocity": 80,
                "duration": 0.20454545454545459,
                "tempo": 120.0
            },
            {
                "start_time": 2.0454545454545454,
                "end_time": 2.4499999999999997,
                "pitch": 26,
                "velocity": 80,
                "duration": 0.4045454545454543,
                "tempo": 120.0
            },
            {
                "start_time": 2.4499999999999997,
                "end_time": 2.8568181818181815,
                "pitch": 38,
                "velocity": 101,
                "duration": 0.40681818181818175,
                "tempo": 120.0
            },
            {
                "start_time": 2.8568181818181815,
                "end_time": 3.059090909090909,
                "pitch": 26,
                "velocity": 80,
                "duration": 0.2022727272727276,
                "tempo": 120.0
            },
            {
                "start_time": 3.059090909090909,
                "end_time": 3.2613636363636362,
                "pitch": 26,
                "velocity": 80,
                "duration": 0.20227272727272716,
                "tempo": 120.0
            },
            {
                "start_time": 3.2636363636363637,
                "end_time": 4.0636363636363635,
                "pitch": 26,
                "velocity": 80,
                "duration": 0.7999999999999998,
                "tempo": 120.0
            },
            {
                "start_time": 4.0636363636363635,
                "end_time": 4.263636363636364,
                "pitch": 26,
                "velocity": 80,
                "duration": 0.20000000000000018,
                "tempo": 120.0
            },
            {
                "start_time": 4.263636363636364,
                "end_time": 4.463636363636364,
                "pitch": 26,
                "velocity": 80,
                "duration": 0.20000000000000018,
                "tempo": 120.0
            },
            {
                "start_time": 4.463636363636364,
                "end_time": 4.86590909090909,
                "pitch": 38,
                "velocity": 101,
                "duration": 0.40227272727272645,
                "tempo": 120.0
            },
            {
                "start_time": 4.86590909090909,
                "end_time": 5.2704545454545455,
                "pitch": 26,
                "velocity": 80,
                "duration": 0.4045454545454552,
                "tempo": 120.0
            },
            {
                "start_time": 5.2704545454545455,
                "end_time": 5.743181818181818,
                "pitch": 26,
                "velocity": 80,
                "duration": 0.47272727272727266,
                "tempo": 120.0
            },
            {
                "start_time": 5.743181818181818,
                "end_time": 6.420454545454545,
                "pitch": 26,
                "velocity": 80,
                "duration": 0.6772727272727268,
                "tempo": 120.0
            },
            {
                "start_time": 6.420454545454545,
                "end_time": 7.9818181818181815,
                "pitch": 26,
                "velocity": 64,
                "duration": 1.5613636363636365,
                "tempo": 120.0
            },
            {
                "start_time": 7.9818181818181815,
                "end_time": 15.134090909090908,
                "pitch": 26,
                "velocity": 51,
                "duration": 7.1522727272727264,
                "tempo": 120.0
            }
        ]
    }
}