{
    "track_id": "Rastan (FM) - 02 - Aggressive World",
    "mood": "angry",
    "instruments": {
        "Violin": [
            {
                "start_time": 0.01818181818181818,
                "end_time": 3.2249999999999996,
                "pitch": 76,
                "velocity": 80,
                "duration": 3.2068181818181816,
                "tempo": 120.0
            },
            {
                "start_time": 3.2249999999999996,
                "end_time": 6.449999999999999,
                "pitch": 74,
                "velocity": 80,
                "duration": 3.2249999999999996,
                "tempo": 120.0
            },
            {
                "start_time": 3.2249999999999996,
                "end_time": 6.449999999999999,
                "pitch": 74,
                "velocity": 80,
                "duration": 3.2249999999999996,
                "tempo": 120.0
            },
            {
                "start_time": 6.449999999999999,
                "end_time": 9.263636363636364,
                "pitch": 76,
                "velocity": 80,
                "duration": 2.8136363636363644,
                "tempo": 120.0
            },
            {
                "start_time": 6.449999999999999,
                "end_time": 9.263636363636364,
                "pitch": 76,
                "velocity": 80,
                "duration": 2.8136363636363644,
                "tempo": 120.0
            },
            {
                "start_time": 9.263636363636364,
                "end_time": 9.836363636363636,
                "pitch": 74,
                "velocity": 80,
                "duration": 0.5727272727272723,
                "tempo": 120.0
            },
            {
                "start_time": 9.263636363636364,
                "end_time": 9.836363636363636,
                "pitch": 74,
                "velocity": 80,
                "duration": 0.5727272727272723,
                "tempo": 120.0
            },
            {
                "start_time": 9.836363636363636,
                "end_time": 12.09090909090909,
                "pitch": 76,
                "velocity": 80,
                "duration": 2.254545454545454,
                "tempo": 120.0
            },
            {
                "start_time": 23.75681818181818,
                "end_time": 23.85681818181818,
                "pitch": 86,
                "velocity": 101,
                "duration": 0.10000000000000142,
                "tempo": 120.0
            },
            {
                "start_time": 23.85681818181818,
                "end_time": 23.956818181818182,
                "pitch": 88,
                "velocity": 80,
                "duration": 0.10000000000000142,
                "tempo": 120.0
            },
            {
                "start_time": 23.85681818181818,
                "end_time": 23.956818181818182,
                "pitch": 88,
                "velocity": 101,
                "duration": 0.10000000000000142,
                "tempo": 120.0
            },
            {
                "start_time": 23.956818181818182,
                "end_time": 24.05909090909091,
                "pitch": 86,
                "velocity": 80,
                "duration": 0.10227272727272663,
                "tempo": 120.0
            },
            {
                "start_time": 23.956818181818182,
                "end_time": 24.05909090909091,
                "pitch": 86,
                "velocity": 80,
                "duration": 0.10227272727272663,
                "tempo": 120.0
            },
            {
                "start_time": 24.05909090909091,
                "end_time": 24.159090909090907,
                "pitch": 88,
                "velocity": 80,
                "duration": 0.09999999999999787,
                "tempo": 120.0
            },
            {
                "start_time": 24.05909090909091,
                "end_time": 24.159090909090907,
                "pitch": 88,
                "velocity": 80,
                "duration": 0.09999999999999787,
                "tempo": 120.0
            },
            {
                "start_time": 24.159090909090907,
                "end_time": 24.561363636363634,
                "pitch": 89,
                "velocity": 80,
                "duration": 0.40227272727272734,
                "tempo": 120.0
            },
            {
                "start_time": 41.64090909090909,
                "end_time": 41.74090909090909,
                "pitch": 76,
                "velocity": 101,
                "duration": 0.10000000000000142,
                "tempo": 120.0
            },
            {
                "start_time": 41.74090909090909,
                "end_time": 41.84318181818182,
                "pitch": 77,
                "velocity": 101,
                "duration": 0.10227272727272663,
                "tempo": 120.0
            },
            {
                "start_time": 41.84318181818182,
                "end_time": 42.143181818181816,
                "pitch": 76,
                "velocity": 101,
                "duration": 0.29999999999999716,
                "tempo": 120.0
            },
            {
                "start_time": 42.143181818181816,
                "end_time": 42.44772727272727,
                "pitch": 72,
                "velocity": 101,
                "duration": 0.3045454545454547,
                "tempo": 120.0
            },
            {
                "start_time": 42.143181818181816,
                "end_time": 42.44772727272727,
                "pitch": 72,
                "velocity": 101,
                "duration": 0.3045454545454547,
                "tempo": 120.0
            },
            {
                "start_time": 42.44772727272727,
                "end_time": 42.85454545454545,
                "pitch": 67,
                "velocity": 101,
                "duration": 0.4068181818181813,
                "tempo": 120.0
            },
            {
                "start_time": 42.44772727272727,
                "end_time": 42.85454545454545,
                "pitch": 67,
                "velocity": 101,
                "duration": 0.4068181818181813,
                "tempo": 120.0
            },
            {
                "start_time": 42.85454545454545,
                "end_time": 43.25681818181818,
                "pitch": 65,
                "velocity": 101,
                "duration": 0.4022727272727309,
                "tempo": 120.0
            },
            {
                "start_time": 43.25681818181818,
                "end_time": 43.65909090909091,
                "pitch": 64,
                "velocity": 101,
                "duration": 0.4022727272727238,
                "tempo": 120.0
            }
        ],
        "Lead 2 (sawtooth)": [
            {
                "start_time": 12.886363636363635,
                "end_time": 13.088636363636363,
                "pitch": 86,
                "velocity": 80,
                "duration": 0.20227272727272805,
                "tempo": 120.0
            },
            {
                "start_time": 13.088636363636363,
                "end_time": 13.288636363636362,
                "pitch": 81,
                "velocity": 80,
                "duration": 0.1999999999999993,
                "tempo": 120.0
            },
            {
                "start_time": 13.088636363636363,
                "end_time": 13.288636363636362,
                "pitch": 81,
                "velocity": 80,
                "duration": 0.1999999999999993,
                "tempo": 120.0
            },
            {
                "start_time": 13.288636363636362,
                "end_time": 13.495454545454544,
                "pitch": 79,
                "velocity": 80,
                "duration": 0.206818181818182,
                "tempo": 120.0
            },
            {
                "start_time": 13.495454545454544,
                "end_time": 13.7,
                "pitch": 77,
                "velocity": 80,
                "duration": 0.20454545454545503,
                "tempo": 120.0
            },
            {
                "start_time": 13.7,
                "end_time": 13.902272727272727,
                "pitch": 79,
                "velocity": 80,
                "duration": 0.20227272727272805,
                "tempo": 120.0
            },
            {
                "start_time": 13.902272727272727,
                "end_time": 14.104545454545454,
                "pitch": 81,
                "velocity": 80,
                "duration": 0.20227272727272627,
                "tempo": 120.0
            },
            {
                "start_time": 14.104545454545454,
                "end_time": 14.304545454545455,
                "pitch": 74,
                "velocity": 80,
                "duration": 0.20000000000000107,
                "tempo": 120.0
            },
            {
                "start_time": 14.104545454545454,
                "end_time": 17.925,
                "pitch": 86,
                "velocity": 80,
                "duration": 3.820454545454547,
                "tempo": 120.0
            },
            {
                "start_time": 17.722727272727273,
                "end_time": 17.925,
                "pitch": 86,
                "velocity": 80,
                "duration": 0.20227272727272805,
                "tempo": 120.0
            },
            {
                "start_time": 17.925,
                "end_time": 18.125,
                "pitch": 81,
                "velocity": 80,
                "duration": 0.1999999999999993,
                "tempo": 120.0
            },
            {
                "start_time": 17.925,
                "end_time": 18.125,
                "pitch": 81,
                "velocity": 80,
                "duration": 0.1999999999999993,
                "tempo": 120.0
            },
            {
                "start_time": 18.125,
                "end_time": 18.325,
                "pitch": 79,
                "velocity": 80,
                "duration": 0.1999999999999993,
                "tempo": 120.0
            },
            {
                "start_time": 13.495454545454544,
                "end_time": 18.325,
                "pitch": 89,
                "velocity": 80,
                "duration": 4.829545454545455,
                "tempo": 120.0
            },
            {
                "start_time": 13.7,
                "end_time": 18.525,
                "pitch": 67,
                "velocity": 80,
                "duration": 4.824999999999999,
                "tempo": 120.0
            },
            {
                "start_time": 18.325,
                "end_time": 18.525,
                "pitch": 77,
                "velocity": 80,
                "duration": 0.1999999999999993,
                "tempo": 120.0
            },
            {
                "start_time": 18.527272727272727,
                "end_time": 18.727272727272727,
                "pitch": 79,
                "velocity": 80,
                "duration": 0.1999999999999993,
                "tempo": 120.0
            },
            {
                "start_time": 18.727272727272727,
                "end_time": 18.929545454545455,
                "pitch": 81,
                "velocity": 80,
                "duration": 0.20227272727272805,
                "tempo": 120.0
            },
            {
                "start_time": 18.929545454545455,
                "end_time": 19.329545454545453,
                "pitch": 84,
                "velocity": 64,
                "duration": 0.3999999999999986,
                "tempo": 120.0
            },
            {
                "start_time": 18.929545454545455,
                "end_time": 19.329545454545453,
                "pitch": 84,
                "velocity": 80,
                "duration": 0.3999999999999986,
                "tempo": 120.0
            },
            {
                "start_time": 19.529545454545453,
                "end_time": 19.729545454545452,
                "pitch": 82,
                "velocity": 64,
                "duration": 0.1999999999999993,
                "tempo": 120.0
            },
            {
                "start_time": 20.945454545454545,
                "end_time": 21.147727272727273,
                "pitch": 81,
                "velocity": 64,
                "duration": 0.20227272727272805,
                "tempo": 120.0
            },
            {
                "start_time": 25.76590909090909,
                "end_time": 25.96590909090909,
                "pitch": 86,
                "velocity": 80,
                "duration": 0.1999999999999993,
                "tempo": 120.0
            },
            {
                "start_time": 25.96590909090909,
                "end_time": 26.16590909090909,
                "pitch": 81,
                "velocity": 80,
                "duration": 0.1999999999999993,
                "tempo": 120.0
            },
            {
                "start_time": 25.96590909090909,
                "end_time": 26.16590909090909,
                "pitch": 81,
                "velocity": 80,
                "duration": 0.1999999999999993,
                "tempo": 120.0
            },
            {
                "start_time": 26.16590909090909,
                "end_time": 26.37272727272727,
                "pitch": 79,
                "velocity": 80,
                "duration": 0.206818181818182,
                "tempo": 120.0
            },
            {
                "start_time": 18.325,
                "end_time": 26.37272727272727,
                "pitch": 89,
                "velocity": 80,
                "duration": 8.047727272727272,
                "tempo": 120.0
            },
            {
                "start_time": 18.525,
                "end_time": 26.577272727272724,
                "pitch": 67,
                "velocity": 80,
                "duration": 8.052272727272726,
                "tempo": 120.0
            },
            {
                "start_time": 26.37272727272727,
                "end_time": 26.577272727272724,
                "pitch": 77,
                "velocity": 80,
                "duration": 0.20454545454545325,
                "tempo": 120.0
            },
            {
                "start_time": 26.577272727272724,
                "end_time": 26.779545454545453,
                "pitch": 79,
                "velocity": 80,
                "duration": 0.20227272727272805,
                "tempo": 120.0
            },
            {
                "start_time": 26.779545454545453,
                "end_time": 26.98181818181818,
                "pitch": 81,
                "velocity": 80,
                "duration": 0.20227272727272805,
                "tempo": 120.0
            },
            {
                "start_time": 26.98181818181818,
                "end_time": 27.177272727272726,
                "pitch": 74,
                "velocity": 80,
                "duration": 0.19545454545454533,
                "tempo": 120.0
            },
            {
                "start_time": 26.98181818181818,
                "end_time": 30.795454545454543,
                "pitch": 86,
                "velocity": 80,
                "duration": 3.8136363636363626,
                "tempo": 120.0
            },
            {
                "start_time": 30.593181818181815,
                "end_time": 30.795454545454543,
                "pitch": 86,
                "velocity": 80,
                "duration": 0.20227272727272805,
                "tempo": 120.0
            },
            {
                "start_time": 30.795454545454543,
                "end_time": 30.99772727272727,
                "pitch": 81,
                "velocity": 80,
                "duration": 0.20227272727272805,
                "tempo": 120.0
            },
            {
                "start_time": 30.795454545454543,
                "end_time": 30.99772727272727,
                "pitch": 81,
                "velocity": 80,
                "duration": 0.20227272727272805,
                "tempo": 120.0
            },
            {
                "start_time": 30.99772727272727,
                "end_time": 31.19772727272727,
                "pitch": 79,
                "velocity": 80,
                "duration": 0.1999999999999993,
                "tempo": 120.0
            },
            {
                "start_time": 26.37272727272727,
                "end_time": 31.19772727272727,
                "pitch": 89,
                "velocity": 80,
                "duration": 4.824999999999999,
                "tempo": 120.0
            },
            {
                "start_time": 26.577272727272724,
                "end_time": 31.39772727272727,
                "pitch": 67,
                "velocity": 80,
                "duration": 4.820454545454545,
                "tempo": 120.0
            },
            {
                "start_time": 31.19772727272727,
                "end_time": 31.39772727272727,
                "pitch": 77,
                "velocity": 80,
                "duration": 0.1999999999999993,
                "tempo": 120.0
            },
            {
                "start_time": 31.39772727272727,
                "end_time": 31.599999999999998,
                "pitch": 79,
                "velocity": 80,
                "duration": 0.20227272727272805,
                "tempo": 120.0
            },
            {
                "start_time": 31.599999999999998,
                "end_time": 31.802272727272726,
                "pitch": 81,
                "velocity": 80,
                "duration": 0.20227272727272805,
                "tempo": 120.0
            },
            {
                "start_time": 31.802272727272726,
                "end_time": 32.20227272727273,
                "pitch": 84,
                "velocity": 80,
                "duration": 0.40000000000000213,
                "tempo": 120.0
            },
            {
                "start_time": 31.802272727272726,
                "end_time": 32.20227272727273,
                "pitch": 84,
                "velocity": 80,
                "duration": 0.40000000000000213,
                "tempo": 120.0
            },
            {
                "start_time": 32.404545454545456,
                "end_time": 32.60454545454545,
                "pitch": 82,
                "velocity": 80,
                "duration": 0.19999999999999574,
                "tempo": 120.0
            },
            {
                "start_time": 33.809090909090905,
                "end_time": 34.00909090909091,
                "pitch": 81,
                "velocity": 80,
                "duration": 0.20000000000000284,
                "tempo": 120.0
            },
            {
                "start_time": 35.02272727272727,
                "end_time": 35.21818181818182,
                "pitch": 77,
                "velocity": 101,
                "duration": 0.19545454545454533,
                "tempo": 120.0
            },
            {
                "start_time": 35.21818181818182,
                "end_time": 37.027272727272724,
                "pitch": 74,
                "velocity": 64,
                "duration": 1.809090909090905,
                "tempo": 120.0
            },
            {
                "start_time": 35.21818181818182,
                "end_time": 37.027272727272724,
                "pitch": 74,
                "velocity": 101,
                "duration": 1.809090909090905,
                "tempo": 120.0
            },
            {
                "start_time": 37.027272727272724,
                "end_time": 44.65909090909091,
                "pitch": 77,
                "velocity": 64,
                "duration": 7.631818181818183,
                "tempo": 120.0
            },
            {
                "start_time": 37.027272727272724,
                "end_time": 44.65909090909091,
                "pitch": 77,
                "velocity": 64,
                "duration": 7.631818181818183,
                "tempo": 120.0
            },
            {
                "start_time": 44.65909090909091,
                "end_time": 44.85909090909091,
                "pitch": 76,
                "velocity": 80,
                "duration": 0.20000000000000284,
                "tempo": 120.0
            },
            {
                "start_time": 44.85909090909091,
                "end_time": 45.26136363636363,
                "pitch": 74,
                "velocity": 80,
                "duration": 0.4022727272727238,
                "tempo": 120.0
            },
            {
                "start_time": 44.861363636363635,
                "end_time": 45.26136363636363,
                "pitch": 74,
                "velocity": 101,
                "duration": 0.3999999999999986,
                "tempo": 120.0
            },
            {
                "start_time": 45.26136363636363,
                "end_time": 45.46363636363636,
                "pitch": 77,
                "velocity": 80,
                "duration": 0.20227272727272805,
                "tempo": 120.0
            },
            {
                "start_time": 45.26136363636363,
                "end_time": 45.46363636363636,
                "pitch": 77,
                "velocity": 101,
                "duration": 0.20227272727272805,
                "tempo": 120.0
            },
            {
                "start_time": 45.46363636363636,
                "end_time": 45.663636363636364,
                "pitch": 81,
                "velocity": 80,
                "duration": 0.20000000000000284,
                "tempo": 120.0
            },
            {
                "start_time": 31.19772727272727,
                "end_time": 45.663636363636364,
                "pitch": 89,
                "velocity": 80,
                "duration": 14.465909090909093,
                "tempo": 120.0
            },
            {
                "start_time": 45.663636363636364,
                "end_time": 45.86363636363636,
                "pitch": 77,
                "velocity": 80,
                "duration": 0.19999999999999574,
                "tempo": 120.0
            },
            {
                "start_time": 45.86363636363636,
                "end_time": 46.06363636363636,
                "pitch": 86,
                "velocity": 101,
                "duration": 0.20000000000000284,
                "tempo": 120.0
            },
            {
                "start_time": 46.06363636363636,
                "end_time": 46.26363636363636,
                "pitch": 79,
                "velocity": 80,
                "duration": 0.19999999999999574,
                "tempo": 120.0
            },
            {
                "start_time": 46.06363636363636,
                "end_time": 46.26363636363636,
                "pitch": 79,
                "velocity": 101,
                "duration": 0.19999999999999574,
                "tempo": 120.0
            },
            {
                "start_time": 46.26363636363636,
                "end_time": 46.26590909090909,
                "pitch": 83,
                "velocity": 80,
                "duration": 0.002272727272732311,
                "tempo": 120.0
            },
            {
                "start_time": 46.26590909090909,
                "end_time": 46.465909090909086,
                "pitch": 83,
                "velocity": 80,
                "duration": 0.19999999999999574,
                "tempo": 120.0
            },
            {
                "start_time": 45.86363636363636,
                "end_time": 46.86590909090909,
                "pitch": 74,
                "velocity": 80,
                "duration": 1.0022727272727323,
                "tempo": 120.0
            },
            {
                "start_time": 46.465909090909086,
                "end_time": 46.86590909090909,
                "pitch": 74,
                "velocity": 101,
                "duration": 0.4000000000000057,
                "tempo": 120.0
            },
            {
                "start_time": 45.46363636363636,
                "end_time": 47.06590909090909,
                "pitch": 69,
                "velocity": 80,
                "duration": 1.6022727272727266,
                "tempo": 120.0
            },
            {
                "start_time": 46.86590909090909,
                "end_time": 47.06590909090909,
                "pitch": 77,
                "velocity": 80,
                "duration": 0.19999999999999574,
                "tempo": 120.0
            },
            {
                "start_time": 46.86590909090909,
                "end_time": 47.06590909090909,
                "pitch": 77,
                "velocity": 101,
                "duration": 0.19999999999999574,
                "tempo": 120.0
            },
            {
                "start_time": 47.06590909090909,
                "end_time": 47.268181818181816,
                "pitch": 81,
                "velocity": 80,
                "duration": 0.20227272727272805,
                "tempo": 120.0
            },
            {
                "start_time": 45.663636363636364,
                "end_time": 47.268181818181816,
                "pitch": 89,
                "velocity": 80,
                "duration": 1.6045454545454518,
                "tempo": 120.0
            },
            {
                "start_time": 47.268181818181816,
                "end_time": 47.46818181818182,
                "pitch": 77,
                "velocity": 80,
                "duration": 0.20000000000000284,
                "tempo": 120.0
            },
            {
                "start_time": 46.465909090909086,
                "end_time": 47.67045454545454,
                "pitch": 86,
                "velocity": 80,
                "duration": 1.2045454545454533,
                "tempo": 120.0
            },
            {
                "start_time": 47.46818181818182,
                "end_time": 47.67045454545454,
                "pitch": 86,
                "velocity": 101,
                "duration": 0.20227272727272094,
                "tempo": 120.0
            },
            {
                "start_time": 47.67045454545454,
                "end_time": 47.87045454545454,
                "pitch": 79,
                "velocity": 80,
                "duration": 0.20000000000000284,
                "tempo": 120.0
            },
            {
                "start_time": 47.67045454545454,
                "end_time": 47.87045454545454,
                "pitch": 79,
                "velocity": 101,
                "duration": 0.20000000000000284,
                "tempo": 120.0
            },
            {
                "start_time": 47.87045454545454,
                "end_time": 48.074999999999996,
                "pitch": 83,
                "velocity": 80,
                "duration": 0.20454545454545325,
                "tempo": 120.0
            },
            {
                "start_time": 47.87045454545454,
                "end_time": 48.074999999999996,
                "pitch": 83,
                "velocity": 80,
                "duration": 0.20454545454545325,
                "tempo": 120.0
            },
            {
                "start_time": 47.46818181818182,
                "end_time": 48.47727272727273,
                "pitch": 74,
                "velocity": 80,
                "duration": 1.009090909090908,
                "tempo": 120.0
            },
            {
                "start_time": 48.074999999999996,
                "end_time": 48.47727272727273,
                "pitch": 74,
                "velocity": 101,
                "duration": 0.4022727272727309,
                "tempo": 120.0
            },
            {
                "start_time": 47.06590909090909,
                "end_time": 48.67272727272727,
                "pitch": 69,
                "velocity": 80,
                "duration": 1.6068181818181841,
                "tempo": 120.0
            },
            {
                "start_time": 48.47727272727273,
                "end_time": 48.67272727272727,
                "pitch": 77,
                "velocity": 80,
                "duration": 0.19545454545454533,
                "tempo": 120.0
            },
            {
                "start_time": 48.47727272727273,
                "end_time": 48.67272727272727,
                "pitch": 77,
                "velocity": 101,
                "duration": 0.19545454545454533,
                "tempo": 120.0
            },
            {
                "start_time": 48.67272727272727,
                "end_time": 48.87954545454545,
                "pitch": 81,
                "velocity": 80,
                "duration": 0.20681818181817846,
                "tempo": 120.0
            },
            {
                "start_time": 47.268181818181816,
                "end_time": 48.87954545454545,
                "pitch": 89,
                "velocity": 80,
                "duration": 1.6113636363636346,
                "tempo": 120.0
            },
            {
                "start_time": 48.87954545454545,
                "end_time": 49.084090909090904,
                "pitch": 77,
                "velocity": 80,
                "duration": 0.20454545454545325,
                "tempo": 120.0
            },
            {
                "start_time": 48.074999999999996,
                "end_time": 49.28181818181818,
                "pitch": 86,
                "velocity": 80,
                "duration": 1.2068181818181856,
                "tempo": 120.0
            },
            {
                "start_time": 49.084090909090904,
                "end_time": 49.28181818181818,
                "pitch": 86,
                "velocity": 80,
                "duration": 0.19772727272727764,
                "tempo": 120.0
            },
            {
                "start_time": 49.28181818181818,
                "end_time": 49.47727272727273,
                "pitch": 79,
                "velocity": 80,
                "duration": 0.19545454545454533,
                "tempo": 120.0
            },
            {
                "start_time": 49.28181818181818,
                "end_time": 49.47727272727273,
                "pitch": 79,
                "velocity": 80,
                "duration": 0.19545454545454533,
                "tempo": 120.0
            },
            {
                "start_time": 49.47727272727273,
                "end_time": 49.68181818181818,
                "pitch": 83,
                "velocity": 80,
                "duration": 0.20454545454545325,
                "tempo": 120.0
            },
            {
                "start_time": 49.47727272727273,
                "end_time": 49.68181818181818,
                "pitch": 83,
                "velocity": 80,
                "duration": 0.20454545454545325,
                "tempo": 120.0
            },
            {
                "start_time": 49.68181818181818,
                "end_time": 53.09772727272727,
                "pitch": 81,
                "velocity": 101,
                "duration": 3.4159090909090892,
                "tempo": 120.0
            },
            {
                "start_time": 53.09772727272727,
                "end_time": 53.29772727272727,
                "pitch": 86,
                "velocity": 80,
                "duration": 0.20000000000000284,
                "tempo": 120.0
            },
            {
                "start_time": 53.09772727272727,
                "end_time": 53.29772727272727,
                "pitch": 86,
                "velocity": 101,
                "duration": 0.20000000000000284,
                "tempo": 120.0
            },
            {
                "start_time": 53.29772727272727,
                "end_time": 53.48181818181818,
                "pitch": 81,
                "velocity": 80,
                "duration": 0.18409090909090509,
                "tempo": 120.0
            },
            {
                "start_time": 53.29772727272727,
                "end_time": 53.48181818181818,
                "pitch": 81,
                "velocity": 80,
                "duration": 0.18409090909090509,
                "tempo": 120.0
            }
        ],
        "Acoustic Guitar (nylon)": [
            {
                "start_time": 16.518181818181816,
                "end_time": 16.618181818181817,
                "pitch": 74,
                "velocity": 80,
                "duration": 0.10000000000000142,
                "tempo": 120.0
            },
            {
                "start_time": 16.618181818181817,
                "end_time": 16.720454545454544,
                "pitch": 74,
                "velocity": 80,
                "duration": 0.10227272727272663,
                "tempo": 120.0
            },
            {
                "start_time": 16.720454545454544,
                "end_time": 16.820454545454545,
                "pitch": 74,
                "velocity": 80,
                "duration": 0.10000000000000142,
                "tempo": 120.0
            },
            {
                "start_time": 16.820454545454545,
                "end_time": 29.39090909090909,
                "pitch": 81,
                "velocity": 80,
                "duration": 12.570454545454545,
                "tempo": 120.0
            },
            {
                "start_time": 29.39090909090909,
                "end_time": 29.49090909090909,
                "pitch": 74,
                "velocity": 80,
                "duration": 0.09999999999999787,
                "tempo": 120.0
            },
            {
                "start_time": 29.49090909090909,
                "end_time": 29.59090909090909,
                "pitch": 74,
                "velocity": 80,
                "duration": 0.10000000000000142,
                "tempo": 120.0
            },
            {
                "start_time": 16.820454545454545,
                "end_time": 29.693181818181817,
                "pitch": 69,
                "velocity": 80,
                "duration": 12.872727272727271,
                "tempo": 120.0
            },
            {
                "start_time": 29.59090909090909,
                "end_time": 29.693181818181817,
                "pitch": 74,
                "velocity": 80,
                "duration": 0.10227272727272663,
                "tempo": 120.0
            }
        ],
        "Harpsichord": [
            {
                "start_time": 27.177272727272726,
                "end_time": 27.37272727272727,
                "pitch": 89,
                "velocity": 32,
                "duration": 0.19545454545454533,
                "tempo": 120.0
            },
            {
                "start_time": 27.775,
                "end_time": 28.386363636363637,
                "pitch": 88,
                "velocity": 32,
                "duration": 0.6113636363636381,
                "tempo": 120.0
            },
            {
                "start_time": 28.386363636363637,
                "end_time": 28.78863636363636,
                "pitch": 86,
                "velocity": 32,
                "duration": 0.4022727272727238,
                "tempo": 120.0
            },
            {
                "start_time": 28.386363636363637,
                "end_time": 28.78863636363636,
                "pitch": 86,
                "velocity": 32,
                "duration": 0.4022727272727238,
                "tempo": 120.0
            },
            {
                "start_time": 28.78863636363636,
                "end_time": 28.988636363636363,
                "pitch": 88,
                "velocity": 32,
                "duration": 0.20000000000000284,
                "tempo": 120.0
            },
            {
                "start_time": 28.78863636363636,
                "end_time": 28.988636363636363,
                "pitch": 88,
                "velocity": 32,
                "duration": 0.20000000000000284,
                "tempo": 120.0
            },
            {
                "start_time": 29.39090909090909,
                "end_time": 29.993181818181817,
                "pitch": 89,
                "velocity": 32,
                "duration": 0.6022727272727266,
                "tempo": 120.0
            },
            {
                "start_time": 29.993181818181817,
                "end_time": 30.393181818181816,
                "pitch": 81,
                "velocity": 32,
                "duration": 0.3999999999999986,
                "tempo": 120.0
            },
            {
                "start_time": 29.993181818181817,
                "end_time": 30.393181818181816,
                "pitch": 81,
                "velocity": 32,
                "duration": 0.3999999999999986,
                "tempo": 120.0
            },
            {
                "start_time": 30.393181818181816,
                "end_time": 30.595454545454544,
                "pitch": 89,
                "velocity": 32,
                "duration": 0.20227272727272805,
                "tempo": 120.0
            },
            {
                "start_time": 30.393181818181816,
                "end_time": 30.595454545454544,
                "pitch": 89,
                "velocity": 32,
                "duration": 0.20227272727272805,
                "tempo": 120.0
            },
            {
                "start_time": 30.99772727272727,
                "end_time": 31.599999999999998,
                "pitch": 86,
                "velocity": 32,
                "duration": 0.6022727272727266,
                "tempo": 120.0
            },
            {
                "start_time": 31.599999999999998,
                "end_time": 32.002272727272725,
                "pitch": 84,
                "velocity": 32,
                "duration": 0.40227272727272734,
                "tempo": 120.0
            },
            {
                "start_time": 32.002272727272725,
                "end_time": 32.20227272727273,
                "pitch": 86,
                "velocity": 32,
                "duration": 0.20000000000000284,
                "tempo": 120.0
            },
            {
                "start_time": 32.60454545454545,
                "end_time": 33.211363636363636,
                "pitch": 86,
                "velocity": 32,
                "duration": 0.6068181818181841,
                "tempo": 120.0
            },
            {
                "start_time": 33.211363636363636,
                "end_time": 33.61363636363636,
                "pitch": 88,
                "velocity": 32,
                "duration": 0.4022727272727238,
                "tempo": 120.0
            },
            {
                "start_time": 33.211363636363636,
                "end_time": 33.61363636363636,
                "pitch": 88,
                "velocity": 32,
                "duration": 0.4022727272727238,
                "tempo": 120.0
            },
            {
                "start_time": 33.61363636363636,
                "end_time": 33.809090909090905,
                "pitch": 81,
                "velocity": 32,
                "duration": 0.19545454545454533,
                "tempo": 120.0
            },
            {
                "start_time": 33.61363636363636,
                "end_time": 33.809090909090905,
                "pitch": 81,
                "velocity": 32,
                "duration": 0.19545454545454533,
                "tempo": 120.0
            },
            {
                "start_time": 34.211363636363636,
                "end_time": 34.82272727272727,
                "pitch": 91,
                "velocity": 32,
                "duration": 0.6113636363636346,
                "tempo": 120.0
            },
            {
                "start_time": 34.82272727272727,
                "end_time": 35.21818181818182,
                "pitch": 88,
                "velocity": 32,
                "duration": 0.39545454545454817,
                "tempo": 120.0
            },
            {
                "start_time": 35.21818181818182,
                "end_time": 35.41590909090909,
                "pitch": 89,
                "velocity": 32,
                "duration": 0.19772727272727053,
                "tempo": 120.0
            },
            {
                "start_time": 35.61590909090909,
                "end_time": 35.715909090909086,
                "pitch": 89,
                "velocity": 32,
                "duration": 0.09999999999999432,
                "tempo": 120.0
            },
            {
                "start_time": 35.715909090909086,
                "end_time": 35.81590909090909,
                "pitch": 88,
                "velocity": 32,
                "duration": 0.10000000000000142,
                "tempo": 120.0
            },
            {
                "start_time": 35.81590909090909,
                "end_time": 35.918181818181814,
                "pitch": 89,
                "velocity": 32,
                "duration": 0.10227272727272663,
                "tempo": 120.0
            },
            {
                "start_time": 35.918181818181814,
                "end_time": 36.02045454545454,
                "pitch": 88,
                "velocity": 32,
                "duration": 0.10227272727272663,
                "tempo": 120.0
            },
            {
                "start_time": 36.02045454545454,
                "end_time": 36.12272727272727,
                "pitch": 89,
                "velocity": 32,
                "duration": 0.10227272727272663,
                "tempo": 120.0
            },
            {
                "start_time": 36.12272727272727,
                "end_time": 36.125,
                "pitch": 86,
                "velocity": 32,
                "duration": 0.002272727272732311,
                "tempo": 120.0
            },
            {
                "start_time": 36.125,
                "end_time": 36.22727272727273,
                "pitch": 86,
                "velocity": 32,
                "duration": 0.10227272727272663,
                "tempo": 120.0
            },
            {
                "start_time": 36.22727272727273,
                "end_time": 36.32727272727273,
                "pitch": 89,
                "velocity": 32,
                "duration": 0.10000000000000142,
                "tempo": 120.0
            },
            {
                "start_time": 36.22727272727273,
                "end_time": 36.32727272727273,
                "pitch": 89,
                "velocity": 40,
                "duration": 0.10000000000000142,
                "tempo": 120.0
            },
            {
                "start_time": 36.32727272727273,
                "end_time": 36.42727272727272,
                "pitch": 88,
                "velocity": 40,
                "duration": 0.09999999999999432,
                "tempo": 120.0
            },
            {
                "start_time": 36.42727272727272,
                "end_time": 36.527272727272724,
                "pitch": 89,
                "velocity": 40,
                "duration": 0.10000000000000142,
                "tempo": 120.0
            },
            {
                "start_time": 36.527272727272724,
                "end_time": 36.627272727272725,
                "pitch": 88,
                "velocity": 40,
                "duration": 0.10000000000000142,
                "tempo": 120.0
            },
            {
                "start_time": 36.627272727272725,
                "end_time": 36.72727272727273,
                "pitch": 89,
                "velocity": 40,
                "duration": 0.10000000000000142,
                "tempo": 120.0
            },
            {
                "start_time": 36.72727272727273,
                "end_time": 36.82727272727273,
                "pitch": 88,
                "velocity": 40,
                "duration": 0.10000000000000142,
                "tempo": 120.0
            },
            {
                "start_time": 36.82727272727273,
                "end_time": 36.92727272727272,
                "pitch": 89,
                "velocity": 40,
                "duration": 0.09999999999999432,
                "tempo": 120.0
            },
            {
                "start_time": 36.92727272727272,
                "end_time": 37.027272727272724,
                "pitch": 86,
                "velocity": 40,
                "duration": 0.10000000000000142,
                "tempo": 120.0
            },
            {
                "start_time": 36.92727272727272,
                "end_time": 37.027272727272724,
                "pitch": 86,
                "velocity": 40,
                "duration": 0.10000000000000142,
                "tempo": 120.0
            },
            {
                "start_time": 37.027272727272724,
                "end_time": 37.127272727272725,
                "pitch": 89,
                "velocity": 40,
                "duration": 0.10000000000000142,
                "tempo": 120.0
            },
            {
                "start_time": 37.027272727272724,
                "end_time": 37.127272727272725,
                "pitch": 89,
                "velocity": 51,
                "duration": 0.10000000000000142,
                "tempo": 120.0
            },
            {
                "start_time": 37.127272727272725,
                "end_time": 37.22727272727273,
                "pitch": 88,
                "velocity": 51,
                "duration": 0.10000000000000142,
                "tempo": 120.0
            },
            {
                "start_time": 37.22727272727273,
                "end_time": 37.32727272727273,
                "pitch": 89,
                "velocity": 51,
                "duration": 0.10000000000000142,
                "tempo": 120.0
            },
            {
                "start_time": 37.32727272727273,
                "end_time": 37.429545454545455,
                "pitch": 88,
                "velocity": 51,
                "duration": 0.10227272727272663,
                "tempo": 120.0
            },
            {
                "start_time": 37.429545454545455,
                "end_time": 37.529545454545456,
                "pitch": 89,
                "velocity": 51,
                "duration": 0.10000000000000142,
                "tempo": 120.0
            },
            {
                "start_time": 37.529545454545456,
                "end_time": 37.62954545454545,
                "pitch": 88,
                "velocity": 51,
                "duration": 0.09999999999999432,
                "tempo": 120.0
            },
            {
                "start_time": 37.62954545454545,
                "end_time": 37.73181818181818,
                "pitch": 89,
                "velocity": 51,
                "duration": 0.10227272727272663,
                "tempo": 120.0
            },
            {
                "start_time": 37.73181818181818,
                "end_time": 37.83181818181818,
                "pitch": 86,
                "velocity": 51,
                "duration": 0.10000000000000142,
                "tempo": 120.0
            },
            {
                "start_time": 37.73181818181818,
                "end_time": 37.83181818181818,
                "pitch": 86,
                "velocity": 51,
                "duration": 0.10000000000000142,
                "tempo": 120.0
            },
            {
                "start_time": 37.83181818181818,
                "end_time": 37.93181818181818,
                "pitch": 89,
                "velocity": 51,
                "duration": 0.10000000000000142,
                "tempo": 120.0
            },
            {
                "start_time": 37.83181818181818,
                "end_time": 37.93181818181818,
                "pitch": 89,
                "velocity": 64,
                "duration": 0.10000000000000142,
                "tempo": 120.0
            },
            {
                "start_time": 37.93181818181818,
                "end_time": 38.03181818181818,
                "pitch": 88,
                "velocity": 64,
                "duration": 0.10000000000000142,
                "tempo": 120.0
            },
            {
                "start_time": 38.03181818181818,
                "end_time": 38.13181818181818,
                "pitch": 79,
                "velocity": 64,
                "duration": 0.10000000000000142,
                "tempo": 120.0
            },
            {
                "start_time": 38.03181818181818,
                "end_time": 38.13181818181818,
                "pitch": 79,
                "velocity": 64,
                "duration": 0.10000000000000142,
                "tempo": 120.0
            },
            {
                "start_time": 38.13181818181818,
                "end_time": 38.23181818181818,
                "pitch": 81,
                "velocity": 64,
                "duration": 0.09999999999999432,
                "tempo": 120.0
            },
            {
                "start_time": 38.23181818181818,
                "end_time": 38.33181818181818,
                "pitch": 82,
                "velocity": 64,
                "duration": 0.10000000000000142,
                "tempo": 120.0
            },
            {
                "start_time": 38.33181818181818,
                "end_time": 38.43181818181818,
                "pitch": 84,
                "velocity": 64,
                "duration": 0.10000000000000142,
                "tempo": 120.0
            },
            {
                "start_time": 38.33181818181818,
                "end_time": 38.43181818181818,
                "pitch": 84,
                "velocity": 64,
                "duration": 0.10000000000000142,
                "tempo": 120.0
            },
            {
                "start_time": 38.43181818181818,
                "end_time": 38.53181818181818,
                "pitch": 86,
                "velocity": 64,
                "duration": 0.10000000000000142,
                "tempo": 120.0
            },
            {
                "start_time": 38.53181818181818,
                "end_time": 38.63181818181818,
                "pitch": 91,
                "velocity": 64,
                "duration": 0.10000000000000142,
                "tempo": 120.0
            },
            {
                "start_time": 34.82272727272727,
                "end_time": 38.63181818181818,
                "pitch": 100,
                "velocity": 32,
                "duration": 3.809090909090912,
                "tempo": 120.0
            },
            {
                "start_time": 38.63409090909091,
                "end_time": 41.84318181818182,
                "pitch": 88,
                "velocity": 64,
                "duration": 3.2090909090909108,
                "tempo": 120.0
            },
            {
                "start_time": 41.84318181818182,
                "end_time": 42.043181818181814,
                "pitch": 84,
                "velocity": 64,
                "duration": 0.19999999999999574,
                "tempo": 120.0
            },
            {
                "start_time": 41.84318181818182,
                "end_time": 42.043181818181814,
                "pitch": 84,
                "velocity": 64,
                "duration": 0.19999999999999574,
                "tempo": 120.0
            },
            {
                "start_time": 42.043181818181814,
                "end_time": 42.24318181818182,
                "pitch": 88,
                "velocity": 64,
                "duration": 0.20000000000000284,
                "tempo": 120.0
            },
            {
                "start_time": 42.043181818181814,
                "end_time": 42.24318181818182,
                "pitch": 88,
                "velocity": 64,
                "duration": 0.20000000000000284,
                "tempo": 120.0
            },
            {
                "start_time": 42.24318181818182,
                "end_time": 42.44772727272727,
                "pitch": 89,
                "velocity": 64,
                "duration": 0.20454545454545325,
                "tempo": 120.0
            },
            {
                "start_time": 38.53181818181818,
                "end_time": 42.65454545454545,
                "pitch": 79,
                "velocity": 64,
                "duration": 4.122727272727268,
                "tempo": 120.0
            },
            {
                "start_time": 42.44772727272727,
                "end_time": 42.65454545454545,
                "pitch": 88,
                "velocity": 64,
                "duration": 0.20681818181817846,
                "tempo": 120.0
            },
            {
                "start_time": 42.65454545454545,
                "end_time": 42.85454545454545,
                "pitch": 91,
                "velocity": 64,
                "duration": 0.20000000000000284,
                "tempo": 120.0
            },
            {
                "start_time": 38.63181818181818,
                "end_time": 42.85454545454545,
                "pitch": 100,
                "velocity": 64,
                "duration": 4.222727272727269,
                "tempo": 120.0
            },
            {
                "start_time": 42.85454545454545,
                "end_time": 43.054545454545455,
                "pitch": 88,
                "velocity": 64,
                "duration": 0.20000000000000284,
                "tempo": 120.0
            },
            {
                "start_time": 43.054545454545455,
                "end_time": 43.25681818181818,
                "pitch": 89,
                "velocity": 64,
                "duration": 0.20227272727272805,
                "tempo": 120.0
            },
            {
                "start_time": 43.25681818181818,
                "end_time": 43.459090909090904,
                "pitch": 88,
                "velocity": 64,
                "duration": 0.20227272727272094,
                "tempo": 120.0
            },
            {
                "start_time": 43.459090909090904,
                "end_time": 43.65909090909091,
                "pitch": 84,
                "velocity": 64,
                "duration": 0.20000000000000284,
                "tempo": 120.0
            },
            {
                "start_time": 43.459090909090904,
                "end_time": 43.65909090909091,
                "pitch": 84,
                "velocity": 64,
                "duration": 0.20000000000000284,
                "tempo": 120.0
            },
            {
                "start_time": 43.65909090909091,
                "end_time": 43.85909090909091,
                "pitch": 88,
                "velocity": 64,
                "duration": 0.20000000000000284,
                "tempo": 120.0
            },
            {
                "start_time": 43.65909090909091,
                "end_time": 43.85909090909091,
                "pitch": 88,
                "velocity": 64,
                "duration": 0.20000000000000284,
                "tempo": 120.0
            },
            {
                "start_time": 43.85909090909091,
                "end_time": 44.059090909090905,
                "pitch": 89,
                "velocity": 64,
                "duration": 0.19999999999999574,
                "tempo": 120.0
            },
            {
                "start_time": 42.65454545454545,
                "end_time": 44.25909090909091,
                "pitch": 79,
                "velocity": 64,
                "duration": 1.604545454545459,
                "tempo": 120.0
            },
            {
                "start_time": 44.059090909090905,
                "end_time": 44.25909090909091,
                "pitch": 88,
                "velocity": 64,
                "duration": 0.20000000000000284,
                "tempo": 120.0
            },
            {
                "start_time": 44.25909090909091,
                "end_time": 44.459090909090904,
                "pitch": 91,
                "velocity": 64,
                "duration": 0.19999999999999574,
                "tempo": 120.0
            },
            {
                "start_time": 44.459090909090904,
                "end_time": 44.65909090909091,
                "pitch": 89,
                "velocity": 64,
                "duration": 0.20000000000000284,
                "tempo": 120.0
            },
            {
                "start_time": 44.65909090909091,
                "end_time": 44.861363636363635,
                "pitch": 76,
                "velocity": 80,
                "duration": 0.20227272727272805,
                "tempo": 120.0
            },
            {
                "start_time": 44.861363636363635,
                "end_time": 45.26136363636363,
                "pitch": 62,
                "velocity": 101,
                "duration": 0.3999999999999986,
                "tempo": 120.0
            },
            {
                "start_time": 45.26136363636363,
                "end_time": 45.46363636363636,
                "pitch": 65,
                "velocity": 80,
                "duration": 0.20227272727272805,
                "tempo": 120.0
            },
            {
                "start_time": 45.26136363636363,
                "end_time": 45.46363636363636,
                "pitch": 65,
                "velocity": 101,
                "duration": 0.20227272727272805,
                "tempo": 120.0
            },
            {
                "start_time": 45.46363636363636,
                "end_time": 45.663636363636364,
                "pitch": 69,
                "velocity": 80,
                "duration": 0.20000000000000284,
                "tempo": 120.0
            },
            {
                "start_time": 45.663636363636364,
                "end_time": 45.86363636363636,
                "pitch": 65,
                "velocity": 80,
                "duration": 0.19999999999999574,
                "tempo": 120.0
            },
            {
                "start_time": 44.861363636363635,
                "end_time": 46.06363636363636,
                "pitch": 74,
                "velocity": 80,
                "duration": 1.202272727272728,
                "tempo": 120.0
            },
            {
                "start_time": 45.86363636363636,
                "end_time": 46.06363636363636,
                "pitch": 74,
                "velocity": 101,
                "duration": 0.20000000000000284,
                "tempo": 120.0
            },
            {
                "start_time": 46.06363636363636,
                "end_time": 46.26590909090909,
                "pitch": 67,
                "velocity": 80,
                "duration": 0.20227272727272805,
                "tempo": 120.0
            },
            {
                "start_time": 46.06363636363636,
                "end_time": 46.26590909090909,
                "pitch": 67,
                "velocity": 101,
                "duration": 0.20227272727272805,
                "tempo": 120.0
            },
            {
                "start_time": 46.26590909090909,
                "end_time": 46.465909090909086,
                "pitch": 71,
                "velocity": 80,
                "duration": 0.19999999999999574,
                "tempo": 120.0
            },
            {
                "start_time": 46.26590909090909,
                "end_time": 46.465909090909086,
                "pitch": 71,
                "velocity": 80,
                "duration": 0.19999999999999574,
                "tempo": 120.0
            },
            {
                "start_time": 45.86363636363636,
                "end_time": 46.86590909090909,
                "pitch": 62,
                "velocity": 80,
                "duration": 1.0022727272727323,
                "tempo": 120.0
            },
            {
                "start_time": 46.465909090909086,
                "end_time": 46.86590909090909,
                "pitch": 62,
                "velocity": 101,
                "duration": 0.4000000000000057,
                "tempo": 120.0
            },
            {
                "start_time": 45.46363636363636,
                "end_time": 47.06590909090909,
                "pitch": 57,
                "velocity": 80,
                "duration": 1.6022727272727266,
                "tempo": 120.0
            },
            {
                "start_time": 46.86590909090909,
                "end_time": 47.06590909090909,
                "pitch": 65,
                "velocity": 80,
                "duration": 0.19999999999999574,
                "tempo": 120.0
            },
            {
                "start_time": 46.86590909090909,
                "end_time": 47.06590909090909,
                "pitch": 65,
                "velocity": 101,
                "duration": 0.19999999999999574,
                "tempo": 120.0
            },
            {
                "start_time": 47.06590909090909,
                "end_time": 47.268181818181816,
                "pitch": 69,
                "velocity": 80,
                "duration": 0.20227272727272805,
                "tempo": 120.0
            },
            {
                "start_time": 45.663636363636364,
                "end_time": 47.268181818181816,
                "pitch": 77,
                "velocity": 80,
                "duration": 1.6045454545454518,
                "tempo": 120.0
            },
            {
                "start_time": 47.268181818181816,
                "end_time": 47.46818181818182,
                "pitch": 65,
                "velocity": 80,
                "duration": 0.20000000000000284,
                "tempo": 120.0
            },
            {
                "start_time": 46.465909090909086,
                "end_time": 47.67045454545454,
                "pitch": 74,
                "velocity": 80,
                "duration": 1.2045454545454533,
                "tempo": 120.0
            },
            {
                "start_time": 47.470454545454544,
                "end_time": 47.67045454545454,
                "pitch": 74,
                "velocity": 101,
                "duration": 0.19999999999999574,
                "tempo": 120.0
            },
            {
                "start_time": 47.67045454545454,
                "end_time": 47.87045454545454,
                "pitch": 67,
                "velocity": 80,
                "duration": 0.20000000000000284,
                "tempo": 120.0
            },
            {
                "start_time": 47.67045454545454,
                "end_time": 47.87045454545454,
                "pitch": 67,
                "velocity": 101,
                "duration": 0.20000000000000284,
                "tempo": 120.0
            },
            {
                "start_time": 47.87045454545454,
                "end_time": 48.074999999999996,
                "pitch": 71,
                "velocity": 80,
                "duration": 0.20454545454545325,
                "tempo": 120.0
            },
            {
                "start_time": 47.87045454545454,
                "end_time": 48.074999999999996,
                "pitch": 71,
                "velocity": 80,
                "duration": 0.20454545454545325,
                "tempo": 120.0
            },
            {
                "start_time": 47.46818181818182,
                "end_time": 48.47727272727273,
                "pitch": 62,
                "velocity": 80,
                "duration": 1.009090909090908,
                "tempo": 120.0
            },
            {
                "start_time": 48.074999999999996,
                "end_time": 48.47727272727273,
                "pitch": 62,
                "velocity": 101,
                "duration": 0.4022727272727309,
                "tempo": 120.0
            },
            {
                "start_time": 47.06590909090909,
                "end_time": 48.67272727272727,
                "pitch": 57,
                "velocity": 80,
                "duration": 1.6068181818181841,
                "tempo": 120.0
            },
            {
                "start_time": 48.47727272727273,
                "end_time": 48.67272727272727,
                "pitch": 65,
                "velocity": 80,
                "duration": 0.19545454545454533,
                "tempo": 120.0
            },
            {
                "start_time": 48.47727272727273,
                "end_time": 48.67272727272727,
                "pitch": 65,
                "velocity": 101,
                "duration": 0.19545454545454533,
                "tempo": 120.0
            },
            {
                "start_time": 48.67272727272727,
                "end_time": 48.87954545454545,
                "pitch": 69,
                "velocity": 80,
                "duration": 0.20681818181817846,
                "tempo": 120.0
            },
            {
                "start_time": 47.268181818181816,
                "end_time": 48.87954545454545,
                "pitch": 77,
                "velocity": 80,
                "duration": 1.6113636363636346,
                "tempo": 120.0
            },
            {
                "start_time": 48.87954545454545,
                "end_time": 49.084090909090904,
                "pitch": 65,
                "velocity": 80,
                "duration": 0.20454545454545325,
                "tempo": 120.0
            },
            {
                "start_time": 48.074999999999996,
                "end_time": 49.28181818181818,
                "pitch": 74,
                "velocity": 80,
                "duration": 1.2068181818181856,
                "tempo": 120.0
            },
            {
                "start_time": 49.084090909090904,
                "end_time": 49.28181818181818,
                "pitch": 74,
                "velocity": 101,
                "duration": 0.19772727272727764,
                "tempo": 120.0
            },
            {
                "start_time": 49.28181818181818,
                "end_time": 49.47727272727273,
                "pitch": 67,
                "velocity": 80,
                "duration": 0.19545454545454533,
                "tempo": 120.0
            },
            {
                "start_time": 49.28181818181818,
                "end_time": 49.47727272727273,
                "pitch": 67,
                "velocity": 101,
                "duration": 0.19545454545454533,
                "tempo": 120.0
            },
            {
                "start_time": 49.47727272727273,
                "end_time": 49.68181818181818,
                "pitch": 71,
                "velocity": 80,
                "duration": 0.20454545454545325,
                "tempo": 120.0
            },
            {
                "start_time": 49.47727272727273,
                "end_time": 49.68181818181818,
                "pitch": 71,
                "velocity": 80,
                "duration": 0.20454545454545325,
                "tempo": 120.0
            },
            {
                "start_time": 48.67272727272727,
                "end_time": 49.88863636363636,
                "pitch": 57,
                "velocity": 80,
                "duration": 1.2159090909090864,
                "tempo": 120.0
            },
            {
                "start_time": 49.68181818181818,
                "end_time": 49.88863636363636,
                "pitch": 57,
                "velocity": 101,
                "duration": 0.20681818181817846,
                "tempo": 120.0
            },
            {
                "start_time": 49.88863636363636,
                "end_time": 49.98863636363636,
                "pitch": 33,
                "velocity": 101,
                "duration": 0.10000000000000142,
                "tempo": 120.0
            },
            {
                "start_time": 49.98863636363636,
                "end_time": 50.08863636363636,
                "pitch": 33,
                "velocity": 101,
                "duration": 0.10000000000000142,
                "tempo": 120.0
            },
            {
                "start_time": 50.08863636363636,
                "end_time": 50.18863636363636,
                "pitch": 33,
                "velocity": 101,
                "duration": 0.10000000000000142,
                "tempo": 120.0
            },
            {
                "start_time": 50.18863636363636,
                "end_time": 50.288636363636364,
                "pitch": 33,
                "velocity": 101,
                "duration": 0.10000000000000142,
                "tempo": 120.0
            },
            {
                "start_time": 50.288636363636364,
                "end_time": 53.09772727272727,
                "pitch": 33,
                "velocity": 101,
                "duration": 2.809090909090905,
                "tempo": 120.0
            }
        ],
        "Electric Guitar (clean)": [
            {
                "start_time": 0.01818181818181818,
                "end_time": 0.11818181818181818,
                "pitch": 38,
                "velocity": 80,
                "duration": 0.1,
                "tempo": 120.0
            },
            {
                "start_time": 0.11818181818181818,
                "end_time": 0.21818181818181817,
                "pitch": 38,
                "velocity": 80,
                "duration": 0.09999999999999999,
                "tempo": 120.0
            },
            {
                "start_time": 0.21818181818181817,
                "end_time": 0.3181818181818182,
                "pitch": 38,
                "velocity": 80,
                "duration": 0.1,
                "tempo": 120.0
            },
            {
                "start_time": 0.3181818181818182,
                "end_time": 0.41818181818181815,
                "pitch": 38,
                "velocity": 80,
                "duration": 0.09999999999999998,
                "tempo": 120.0
            },
            {
                "start_time": 0.41818181818181815,
                "end_time": 0.6181818181818182,
                "pitch": 50,
                "velocity": 80,
                "duration": 0.2,
                "tempo": 120.0
            },
            {
                "start_time": 0.6181818181818182,
                "end_time": 0.7181818181818181,
                "pitch": 38,
                "velocity": 80,
                "duration": 0.09999999999999998,
                "tempo": 120.0
            },
            {
                "start_time": 0.7181818181818181,
                "end_time": 0.8181818181818181,
                "pitch": 38,
                "velocity": 80,
                "duration": 0.09999999999999998,
                "tempo": 120.0
            },
            {
                "start_time": 0.8181818181818181,
                "end_time": 1.018181818181818,
                "pitch": 38,
                "velocity": 80,
                "duration": 0.19999999999999996,
                "tempo": 120.0
            },
            {
                "start_time": 1.018181818181818,
                "end_time": 1.218181818181818,
                "pitch": 50,
                "velocity": 80,
                "duration": 0.19999999999999996,
                "tempo": 120.0
            },
            {
                "start_time": 1.218181818181818,
                "end_time": 1.3181818181818181,
                "pitch": 38,
                "velocity": 80,
                "duration": 0.10000000000000009,
                "tempo": 120.0
            },
            {
                "start_time": 1.3181818181818181,
                "end_time": 1.4181818181818182,
                "pitch": 38,
                "velocity": 80,
                "duration": 0.10000000000000009,
                "tempo": 120.0
            },
            {
                "start_time": 1.4181818181818182,
                "end_time": 1.6204545454545454,
                "pitch": 50,
                "velocity": 80,
                "duration": 0.20227272727272716,
                "tempo": 120.0
            },
            {
                "start_time": 1.6204545454545454,
                "end_time": 1.7204545454545455,
                "pitch": 38,
                "velocity": 80,
                "duration": 0.10000000000000009,
                "tempo": 120.0
            },
            {
                "start_time": 1.7204545454545455,
                "end_time": 1.8204545454545453,
                "pitch": 38,
                "velocity": 80,
                "duration": 0.09999999999999987,
                "tempo": 120.0
            },
            {
                "start_time": 1.8204545454545453,
                "end_time": 1.9227272727272726,
                "pitch": 38,
                "velocity": 80,
                "duration": 0.10227272727272729,
                "tempo": 120.0
            },
            {
                "start_time": 1.9227272727272726,
                "end_time": 2.0227272727272725,
                "pitch": 38,
                "velocity": 80,
                "duration": 0.09999999999999987,
                "tempo": 120.0
            },
            {
                "start_time": 2.0227272727272725,
                "end_time": 2.2227272727272727,
                "pitch": 50,
                "velocity": 80,
                "duration": 0.20000000000000018,
                "tempo": 120.0
            },
            {
                "start_time": 2.2227272727272727,
                "end_time": 2.3227272727272728,
                "pitch": 38,
                "velocity": 80,
                "duration": 0.10000000000000009,
                "tempo": 120.0
            },
            {
                "start_time": 2.3227272727272728,
                "end_time": 2.4227272727272724,
                "pitch": 38,
                "velocity": 80,
                "duration": 0.09999999999999964,
                "tempo": 120.0
            },
            {
                "start_time": 2.4227272727272724,
                "end_time": 2.6227272727272726,
                "pitch": 38,
                "velocity": 80,
                "duration": 0.20000000000000018,
                "tempo": 120.0
            },
            {
                "start_time": 2.6227272727272726,
                "end_time": 2.8227272727272728,
                "pitch": 50,
                "velocity": 80,
                "duration": 0.20000000000000018,
                "tempo": 120.0
            },
            {
                "start_time": 2.8227272727272728,
                "end_time": 2.9227272727272724,
                "pitch": 38,
                "velocity": 80,
                "duration": 0.09999999999999964,
                "tempo": 120.0
            },
            {
                "start_time": 2.9227272727272724,
                "end_time": 3.025,
                "pitch": 38,
                "velocity": 80,
                "duration": 0.10227272727272751,
                "tempo": 120.0
            },
            {
                "start_time": 3.025,
                "end_time": 3.2249999999999996,
                "pitch": 50,
                "velocity": 80,
                "duration": 0.19999999999999973,
                "tempo": 120.0
            },
            {
                "start_time": 3.2249999999999996,
                "end_time": 3.3249999999999997,
                "pitch": 38,
                "velocity": 80,
                "duration": 0.10000000000000009,
                "tempo": 120.0
            },
            {
                "start_time": 3.3249999999999997,
                "end_time": 3.425,
                "pitch": 38,
                "velocity": 80,
                "duration": 0.10000000000000009,
                "tempo": 120.0
            },
            {
                "start_time": 3.425,
                "end_time": 3.527272727272727,
                "pitch": 38,
                "velocity": 80,
                "duration": 0.10227272727272707,
                "tempo": 120.0
            },
            {
                "start_time": 3.527272727272727,
                "end_time": 3.627272727272727,
                "pitch": 38,
                "velocity": 80,
                "duration": 0.10000000000000009,
                "tempo": 120.0
            },
            {
                "start_time": 3.627272727272727,
                "end_time": 3.827272727272727,
                "pitch": 50,
                "velocity": 80,
                "duration": 0.20000000000000018,
                "tempo": 120.0
            },
            {
                "start_time": 3.827272727272727,
                "end_time": 3.9272727272727272,
                "pitch": 38,
                "velocity": 80,
                "duration": 0.10000000000000009,
                "tempo": 120.0
            },
            {
                "start_time": 3.9272727272727272,
                "end_time": 4.027272727272727,
                "pitch": 38,
                "velocity": 80,
                "duration": 0.10000000000000009,
                "tempo": 120.0
            },
            {
                "start_time": 4.027272727272727,
                "end_time": 4.2340909090909085,
                "pitch": 38,
                "velocity": 80,
                "duration": 0.20681818181818112,
                "tempo": 120.0
            },
            {
                "start_time": 4.2340909090909085,
                "end_time": 4.4386363636363635,
                "pitch": 50,
                "velocity": 80,
                "duration": 0.20454545454545503,
                "tempo": 120.0
            },
            {
                "start_time": 4.4386363636363635,
                "end_time": 4.536363636363636,
                "pitch": 38,
                "velocity": 80,
                "duration": 0.09772727272727266,
                "tempo": 120.0
            },
            {
                "start_time": 4.536363636363636,
                "end_time": 4.636363636363636,
                "pitch": 38,
                "velocity": 80,
                "duration": 0.09999999999999964,
                "tempo": 120.0
            },
            {
                "start_time": 4.636363636363636,
                "end_time": 4.831818181818182,
                "pitch": 50,
                "velocity": 80,
                "duration": 0.1954545454545462,
                "tempo": 120.0
            },
            {
                "start_time": 4.831818181818182,
                "end_time": 4.934090909090909,
                "pitch": 38,
                "velocity": 80,
                "duration": 0.10227272727272663,
                "tempo": 120.0
            },
            {
                "start_time": 4.934090909090909,
                "end_time": 5.036363636363636,
                "pitch": 38,
                "velocity": 80,
                "duration": 0.10227272727272751,
                "tempo": 120.0
            },
            {
                "start_time": 5.036363636363636,
                "end_time": 5.140909090909091,
                "pitch": 38,
                "velocity": 80,
                "duration": 0.1045454545454545,
                "tempo": 120.0
            },
            {
                "start_time": 5.140909090909091,
                "end_time": 5.243181818181818,
                "pitch": 38,
                "velocity": 80,
                "duration": 0.10227272727272751,
                "tempo": 120.0
            },
            {
                "start_time": 5.243181818181818,
                "end_time": 5.445454545454545,
                "pitch": 50,
                "velocity": 80,
                "duration": 0.20227272727272716,
                "tempo": 120.0
            },
            {
                "start_time": 5.445454545454545,
                "end_time": 5.545454545454545,
                "pitch": 38,
                "velocity": 80,
                "duration": 0.09999999999999964,
                "tempo": 120.0
            },
            {
                "start_time": 5.545454545454545,
                "end_time": 5.6454545454545455,
                "pitch": 38,
                "velocity": 80,
                "duration": 0.10000000000000053,
                "tempo": 120.0
            },
            {
                "start_time": 5.6454545454545455,
                "end_time": 5.847727272727273,
                "pitch": 38,
                "velocity": 80,
                "duration": 0.20227272727272716,
                "tempo": 120.0
            },
            {
                "start_time": 5.847727272727273,
                "end_time": 6.047727272727273,
                "pitch": 50,
                "velocity": 80,
                "duration": 0.20000000000000018,
                "tempo": 120.0
            },
            {
                "start_time": 6.047727272727273,
                "end_time": 6.1477272727272725,
                "pitch": 38,
                "velocity": 80,
                "duration": 0.09999999999999964,
                "tempo": 120.0
            },
            {
                "start_time": 6.1477272727272725,
                "end_time": 6.247727272727272,
                "pitch": 38,
                "velocity": 80,
                "duration": 0.09999999999999964,
                "tempo": 120.0
            },
            {
                "start_time": 6.247727272727272,
                "end_time": 6.449999999999999,
                "pitch": 50,
                "velocity": 80,
                "duration": 0.20227272727272716,
                "tempo": 120.0
            },
            {
                "start_time": 6.449999999999999,
                "end_time": 6.55,
                "pitch": 38,
                "velocity": 80,
                "duration": 0.10000000000000053,
                "tempo": 120.0
            },
            {
                "start_time": 6.55,
                "end_time": 6.6499999999999995,
                "pitch": 38,
                "velocity": 80,
                "duration": 0.09999999999999964,
                "tempo": 120.0
            },
            {
                "start_time": 6.6499999999999995,
                "end_time": 6.75,
                "pitch": 38,
                "velocity": 80,
                "duration": 0.10000000000000053,
                "tempo": 120.0
            },
            {
                "start_time": 6.75,
                "end_time": 6.85,
                "pitch": 38,
                "velocity": 80,
                "duration": 0.09999999999999964,
                "tempo": 120.0
            },
            {
                "start_time": 6.85,
                "end_time": 7.052272727272727,
                "pitch": 50,
                "velocity": 80,
                "duration": 0.20227272727272716,
                "tempo": 120.0
            },
            {
                "start_time": 7.052272727272727,
                "end_time": 7.152272727272727,
                "pitch": 38,
                "velocity": 80,
                "duration": 0.10000000000000053,
                "tempo": 120.0
            },
            {
                "start_time": 7.152272727272727,
                "end_time": 7.254545454545454,
                "pitch": 38,
                "velocity": 80,
                "duration": 0.10227272727272663,
                "tempo": 120.0
            },
            {
                "start_time": 7.254545454545454,
                "end_time": 7.454545454545454,
                "pitch": 38,
                "velocity": 80,
                "duration": 0.20000000000000018,
                "tempo": 120.0
            },
            {
                "start_time": 7.456818181818181,
                "end_time": 7.656818181818181,
                "pitch": 50,
                "velocity": 80,
                "duration": 0.20000000000000018,
                "tempo": 120.0
            },
            {
                "start_time": 7.656818181818181,
                "end_time": 7.756818181818182,
                "pitch": 38,
                "velocity": 80,
                "duration": 0.10000000000000053,
                "tempo": 120.0
            },
            {
                "start_time": 7.756818181818182,
                "end_time": 7.8568181818181815,
                "pitch": 38,
                "velocity": 80,
                "duration": 0.09999999999999964,
                "tempo": 120.0
            },
            {
                "start_time": 7.8568181818181815,
                "end_time": 8.056818181818182,
                "pitch": 50,
                "velocity": 80,
                "duration": 0.20000000000000018,
                "tempo": 120.0
            },
            {
                "start_time": 8.056818181818182,
                "end_time": 8.156818181818181,
                "pitch": 38,
                "velocity": 80,
                "duration": 0.09999999999999964,
                "tempo": 120.0
            },
            {
                "start_time": 8.156818181818181,
                "end_time": 8.256818181818181,
                "pitch": 38,
                "velocity": 80,
                "duration": 0.09999999999999964,
                "tempo": 120.0
            },
            {
                "start_time": 8.259090909090908,
                "end_time": 8.35909090909091,
                "pitch": 38,
                "velocity": 80,
                "duration": 0.10000000000000142,
                "tempo": 120.0
            },
            {
                "start_time": 8.35909090909091,
                "end_time": 8.459090909090909,
                "pitch": 38,
                "velocity": 80,
                "duration": 0.09999999999999964,
                "tempo": 120.0
            },
            {
                "start_time": 8.459090909090909,
                "end_time": 8.659090909090908,
                "pitch": 50,
                "velocity": 80,
                "duration": 0.1999999999999993,
                "tempo": 120.0
            },
            {
                "start_time": 8.659090909090908,
                "end_time": 8.761363636363637,
                "pitch": 38,
                "velocity": 80,
                "duration": 0.1022727272727284,
                "tempo": 120.0
            },
            {
                "start_time": 8.761363636363637,
                "end_time": 8.861363636363636,
                "pitch": 38,
                "velocity": 80,
                "duration": 0.09999999999999964,
                "tempo": 120.0
            },
            {
                "start_time": 8.861363636363636,
                "end_time": 9.063636363636363,
                "pitch": 38,
                "velocity": 80,
                "duration": 0.20227272727272627,
                "tempo": 120.0
            },
            {
                "start_time": 9.063636363636363,
                "end_time": 9.26590909090909,
                "pitch": 50,
                "velocity": 80,
                "duration": 0.20227272727272805,
                "tempo": 120.0
            },
            {
                "start_time": 9.26590909090909,
                "end_time": 9.36590909090909,
                "pitch": 38,
                "velocity": 80,
                "duration": 0.09999999999999964,
                "tempo": 120.0
            },
            {
                "start_time": 9.36590909090909,
                "end_time": 9.46590909090909,
                "pitch": 38,
                "velocity": 80,
                "duration": 0.09999999999999964,
                "tempo": 120.0
            },
            {
                "start_time": 9.46590909090909,
                "end_time": 9.668181818181818,
                "pitch": 50,
                "velocity": 80,
                "duration": 0.20227272727272805,
                "tempo": 120.0
            },
            {
                "start_time": 9.668181818181818,
                "end_time": 9.768181818181818,
                "pitch": 38,
                "velocity": 80,
                "duration": 0.09999999999999964,
                "tempo": 120.0
            },
            {
                "start_time": 9.768181818181818,
                "end_time": 9.870454545454544,
                "pitch": 38,
                "velocity": 80,
                "duration": 0.10227272727272663,
                "tempo": 120.0
            },
            {
                "start_time": 9.870454545454544,
                "end_time": 9.970454545454546,
                "pitch": 38,
                "velocity": 80,
                "duration": 0.10000000000000142,
                "tempo": 120.0
            },
            {
                "start_time": 9.970454545454546,
                "end_time": 10.070454545454545,
                "pitch": 38,
                "velocity": 80,
                "duration": 0.09999999999999964,
                "tempo": 120.0
            },
            {
                "start_time": 10.070454545454545,
                "end_time": 10.270454545454545,
                "pitch": 50,
                "velocity": 80,
                "duration": 0.1999999999999993,
                "tempo": 120.0
            },
            {
                "start_time": 10.272727272727272,
                "end_time": 10.370454545454544,
                "pitch": 38,
                "velocity": 80,
                "duration": 0.09772727272727266,
                "tempo": 120.0
            },
            {
                "start_time": 10.370454545454544,
                "end_time": 10.472727272727273,
                "pitch": 38,
                "velocity": 80,
                "duration": 0.1022727272727284,
                "tempo": 120.0
            },
            {
                "start_time": 10.472727272727273,
                "end_time": 10.677272727272726,
                "pitch": 38,
                "velocity": 80,
                "duration": 0.20454545454545325,
                "tempo": 120.0
            },
            {
                "start_time": 10.677272727272726,
                "end_time": 10.881818181818181,
                "pitch": 50,
                "velocity": 80,
                "duration": 0.20454545454545503,
                "tempo": 120.0
            },
            {
                "start_time": 10.881818181818181,
                "end_time": 10.98181818181818,
                "pitch": 38,
                "velocity": 80,
                "duration": 0.09999999999999964,
                "tempo": 120.0
            },
            {
                "start_time": 10.98181818181818,
                "end_time": 11.079545454545453,
                "pitch": 38,
                "velocity": 80,
                "duration": 0.09772727272727266,
                "tempo": 120.0
            },
            {
                "start_time": 11.079545454545453,
                "end_time": 11.274999999999999,
                "pitch": 50,
                "velocity": 80,
                "duration": 0.19545454545454533,
                "tempo": 120.0
            },
            {
                "start_time": 11.274999999999999,
                "end_time": 11.377272727272727,
                "pitch": 38,
                "velocity": 80,
                "duration": 0.1022727272727284,
                "tempo": 120.0
            },
            {
                "start_time": 11.377272727272727,
                "end_time": 11.477272727272727,
                "pitch": 38,
                "velocity": 80,
                "duration": 0.09999999999999964,
                "tempo": 120.0
            },
            {
                "start_time": 11.477272727272727,
                "end_time": 11.577272727272726,
                "pitch": 38,
                "velocity": 80,
                "duration": 0.09999999999999964,
                "tempo": 120.0
            },
            {
                "start_time": 11.577272727272726,
                "end_time": 11.679545454545455,
                "pitch": 38,
                "velocity": 80,
                "duration": 0.1022727272727284,
                "tempo": 120.0
            },
            {
                "start_time": 11.679545454545455,
                "end_time": 11.884090909090908,
                "pitch": 50,
                "velocity": 80,
                "duration": 0.20454545454545325,
                "tempo": 120.0
            },
            {
                "start_time": 11.884090909090908,
                "end_time": 11.986363636363636,
                "pitch": 38,
                "velocity": 80,
                "duration": 0.1022727272727284,
                "tempo": 120.0
            },
            {
                "start_time": 11.986363636363636,
                "end_time": 12.09090909090909,
                "pitch": 38,
                "velocity": 80,
                "duration": 0.10454545454545361,
                "tempo": 120.0
            },
            {
                "start_time": 12.09090909090909,
                "end_time": 12.286363636363635,
                "pitch": 38,
                "velocity": 80,
                "duration": 0.19545454545454533,
                "tempo": 120.0
            },
            {
                "start_time": 12.286363636363635,
                "end_time": 12.48409090909091,
                "pitch": 50,
                "velocity": 80,
                "duration": 0.19772727272727408,
                "tempo": 120.0
            },
            {
                "start_time": 12.48409090909091,
                "end_time": 12.584090909090909,
                "pitch": 38,
                "velocity": 80,
                "duration": 0.09999999999999964,
                "tempo": 120.0
            },
            {
                "start_time": 12.584090909090909,
                "end_time": 12.684090909090909,
                "pitch": 38,
                "velocity": 80,
                "duration": 0.09999999999999964,
                "tempo": 120.0
            },
            {
                "start_time": 12.684090909090909,
                "end_time": 12.886363636363635,
                "pitch": 50,
                "velocity": 80,
                "duration": 0.20227272727272627,
                "tempo": 120.0
            },
            {
                "start_time": 12.886363636363635,
                "end_time": 12.986363636363636,
                "pitch": 38,
                "velocity": 80,
                "duration": 0.10000000000000142,
                "tempo": 120.0
            },
            {
                "start_time": 12.986363636363636,
                "end_time": 13.088636363636363,
                "pitch": 38,
                "velocity": 80,
                "duration": 0.10227272727272663,
                "tempo": 120.0
            },
            {
                "start_time": 13.088636363636363,
                "end_time": 13.188636363636363,
                "pitch": 38,
                "velocity": 80,
                "duration": 0.09999999999999964,
                "tempo": 120.0
            },
            {
                "start_time": 13.188636363636363,
                "end_time": 13.288636363636362,
                "pitch": 38,
                "velocity": 80,
                "duration": 0.09999999999999964,
                "tempo": 120.0
            },
            {
                "start_time": 13.288636363636362,
                "end_time": 13.495454545454544,
                "pitch": 50,
                "velocity": 80,
                "duration": 0.206818181818182,
                "tempo": 120.0
            },
            {
                "start_time": 13.495454545454544,
                "end_time": 13.597727272727273,
                "pitch": 38,
                "velocity": 80,
                "duration": 0.1022727272727284,
                "tempo": 120.0
            },
            {
                "start_time": 13.597727272727273,
                "end_time": 13.7,
                "pitch": 38,
                "velocity": 80,
                "duration": 0.10227272727272663,
                "tempo": 120.0
            },
            {
                "start_time": 13.7,
                "end_time": 13.902272727272727,
                "pitch": 38,
                "velocity": 80,
                "duration": 0.20227272727272805,
                "tempo": 120.0
            },
            {
                "start_time": 13.902272727272727,
                "end_time": 14.104545454545454,
                "pitch": 50,
                "velocity": 80,
                "duration": 0.20227272727272627,
                "tempo": 120.0
            },
            {
                "start_time": 14.104545454545454,
                "end_time": 14.204545454545453,
                "pitch": 38,
                "velocity": 80,
                "duration": 0.09999999999999964,
                "tempo": 120.0
            },
            {
                "start_time": 14.204545454545453,
                "end_time": 14.304545454545455,
                "pitch": 38,
                "velocity": 80,
                "duration": 0.10000000000000142,
                "tempo": 120.0
            },
            {
                "start_time": 14.304545454545455,
                "end_time": 14.504545454545454,
                "pitch": 50,
                "velocity": 80,
                "duration": 0.1999999999999993,
                "tempo": 120.0
            },
            {
                "start_time": 14.504545454545454,
                "end_time": 14.604545454545454,
                "pitch": 38,
                "velocity": 80,
                "duration": 0.09999999999999964,
                "tempo": 120.0
            },
            {
                "start_time": 14.604545454545454,
                "end_time": 14.70681818181818,
                "pitch": 38,
                "velocity": 80,
                "duration": 0.10227272727272663,
                "tempo": 120.0
            },
            {
                "start_time": 14.70681818181818,
                "end_time": 14.806818181818182,
                "pitch": 38,
                "velocity": 80,
                "duration": 0.10000000000000142,
                "tempo": 120.0
            },
            {
                "start_time": 14.806818181818182,
                "end_time": 14.909090909090908,
                "pitch": 38,
                "velocity": 80,
                "duration": 0.10227272727272663,
                "tempo": 120.0
            },
            {
                "start_time": 14.909090909090908,
                "end_time": 15.109090909090908,
                "pitch": 50,
                "velocity": 80,
                "duration": 0.1999999999999993,
                "tempo": 120.0
            },
            {
                "start_time": 15.109090909090908,
                "end_time": 15.211363636363636,
                "pitch": 38,
                "velocity": 80,
                "duration": 0.1022727272727284,
                "tempo": 120.0
            },
            {
                "start_time": 15.211363636363636,
                "end_time": 15.311363636363636,
                "pitch": 38,
                "velocity": 80,
                "duration": 0.09999999999999964,
                "tempo": 120.0
            },
            {
                "start_time": 15.311363636363636,
                "end_time": 15.513636363636364,
                "pitch": 38,
                "velocity": 80,
                "duration": 0.20227272727272805,
                "tempo": 120.0
            },
            {
                "start_time": 15.513636363636364,
                "end_time": 15.713636363636363,
                "pitch": 50,
                "velocity": 80,
                "duration": 0.1999999999999993,
                "tempo": 120.0
            },
            {
                "start_time": 15.713636363636363,
                "end_time": 15.81590909090909,
                "pitch": 38,
                "velocity": 80,
                "duration": 0.10227272727272663,
                "tempo": 120.0
            },
            {
                "start_time": 15.81590909090909,
                "end_time": 15.915909090909091,
                "pitch": 38,
                "velocity": 80,
                "duration": 0.10000000000000142,
                "tempo": 120.0
            },
            {
                "start_time": 15.915909090909091,
                "end_time": 16.118181818181817,
                "pitch": 50,
                "velocity": 80,
                "duration": 0.20227272727272627,
                "tempo": 120.0
            },
            {
                "start_time": 16.118181818181817,
                "end_time": 16.21818181818182,
                "pitch": 38,
                "velocity": 80,
                "duration": 0.10000000000000142,
                "tempo": 120.0
            },
            {
                "start_time": 16.21818181818182,
                "end_time": 16.318181818181817,
                "pitch": 38,
                "velocity": 80,
                "duration": 0.09999999999999787,
                "tempo": 120.0
            },
            {
                "start_time": 16.318181818181817,
                "end_time": 16.418181818181818,
                "pitch": 38,
                "velocity": 80,
                "duration": 0.10000000000000142,
                "tempo": 120.0
            },
            {
                "start_time": 16.418181818181818,
                "end_time": 16.518181818181816,
                "pitch": 38,
                "velocity": 80,
                "duration": 0.09999999999999787,
                "tempo": 120.0
            },
            {
                "start_time": 16.518181818181816,
                "end_time": 16.720454545454544,
                "pitch": 50,
                "velocity": 80,
                "duration": 0.20227272727272805,
                "tempo": 120.0
            },
            {
                "start_time": 16.720454545454544,
                "end_time": 16.820454545454545,
                "pitch": 38,
                "velocity": 80,
                "duration": 0.10000000000000142,
                "tempo": 120.0
            },
            {
                "start_time": 16.820454545454545,
                "end_time": 16.920454545454543,
                "pitch": 38,
                "velocity": 80,
                "duration": 0.09999999999999787,
                "tempo": 120.0
            },
            {
                "start_time": 16.920454545454543,
                "end_time": 17.12272727272727,
                "pitch": 38,
                "velocity": 80,
                "duration": 0.20227272727272805,
                "tempo": 120.0
            },
            {
                "start_time": 17.12272727272727,
                "end_time": 17.32272727272727,
                "pitch": 50,
                "velocity": 80,
                "duration": 0.1999999999999993,
                "tempo": 120.0
            },
            {
                "start_time": 17.32272727272727,
                "end_time": 17.422727272727272,
                "pitch": 38,
                "velocity": 80,
                "duration": 0.10000000000000142,
                "tempo": 120.0
            },
            {
                "start_time": 17.422727272727272,
                "end_time": 17.522727272727273,
                "pitch": 38,
                "velocity": 80,
                "duration": 0.10000000000000142,
                "tempo": 120.0
            },
            {
                "start_time": 17.522727272727273,
                "end_time": 17.722727272727273,
                "pitch": 50,
                "velocity": 80,
                "duration": 0.1999999999999993,
                "tempo": 120.0
            },
            {
                "start_time": 17.722727272727273,
                "end_time": 17.82272727272727,
                "pitch": 38,
                "velocity": 80,
                "duration": 0.09999999999999787,
                "tempo": 120.0
            },
            {
                "start_time": 17.82272727272727,
                "end_time": 17.925,
                "pitch": 38,
                "velocity": 80,
                "duration": 0.10227272727273018,
                "tempo": 120.0
            },
            {
                "start_time": 17.925,
                "end_time": 18.025,
                "pitch": 38,
                "velocity": 80,
                "duration": 0.09999999999999787,
                "tempo": 120.0
            },
            {
                "start_time": 18.025,
                "end_time": 18.125,
                "pitch": 38,
                "velocity": 80,
                "duration": 0.10000000000000142,
                "tempo": 120.0
            },
            {
                "start_time": 18.125,
                "end_time": 18.325,
                "pitch": 50,
                "velocity": 80,
                "duration": 0.1999999999999993,
                "tempo": 120.0
            },
            {
                "start_time": 18.325,
                "end_time": 18.425,
                "pitch": 38,
                "velocity": 80,
                "duration": 0.10000000000000142,
                "tempo": 120.0
            },
            {
                "start_time": 18.425,
                "end_time": 18.527272727272727,
                "pitch": 38,
                "velocity": 80,
                "duration": 0.10227272727272663,
                "tempo": 120.0
            },
            {
                "start_time": 18.527272727272727,
                "end_time": 18.727272727272727,
                "pitch": 38,
                "velocity": 80,
                "duration": 0.1999999999999993,
                "tempo": 120.0
            },
            {
                "start_time": 18.727272727272727,
                "end_time": 18.929545454545455,
                "pitch": 50,
                "velocity": 80,
                "duration": 0.20227272727272805,
                "tempo": 120.0
            },
            {
                "start_time": 18.929545454545455,
                "end_time": 19.029545454545453,
                "pitch": 38,
                "velocity": 80,
                "duration": 0.09999999999999787,
                "tempo": 120.0
            },
            {
                "start_time": 19.029545454545453,
                "end_time": 19.129545454545454,
                "pitch": 38,
                "velocity": 80,
                "duration": 0.10000000000000142,
                "tempo": 120.0
            },
            {
                "start_time": 19.129545454545454,
                "end_time": 19.329545454545453,
                "pitch": 50,
                "velocity": 80,
                "duration": 0.1999999999999993,
                "tempo": 120.0
            },
            {
                "start_time": 19.329545454545453,
                "end_time": 19.429545454545455,
                "pitch": 38,
                "velocity": 80,
                "duration": 0.10000000000000142,
                "tempo": 120.0
            },
            {
                "start_time": 19.429545454545455,
                "end_time": 19.529545454545453,
                "pitch": 38,
                "velocity": 80,
                "duration": 0.09999999999999787,
                "tempo": 120.0
            },
            {
                "start_time": 19.529545454545453,
                "end_time": 19.629545454545454,
                "pitch": 38,
                "velocity": 80,
                "duration": 0.10000000000000142,
                "tempo": 120.0
            },
            {
                "start_time": 19.629545454545454,
                "end_time": 19.73181818181818,
                "pitch": 38,
                "velocity": 80,
                "duration": 0.10227272727272663,
                "tempo": 120.0
            },
            {
                "start_time": 19.73181818181818,
                "end_time": 19.93181818181818,
                "pitch": 50,
                "velocity": 80,
                "duration": 0.1999999999999993,
                "tempo": 120.0
            },
            {
                "start_time": 19.93181818181818,
                "end_time": 20.03181818181818,
                "pitch": 38,
                "velocity": 80,
                "duration": 0.10000000000000142,
                "tempo": 120.0
            },
            {
                "start_time": 20.034090909090907,
                "end_time": 20.134090909090908,
                "pitch": 38,
                "velocity": 80,
                "duration": 0.10000000000000142,
                "tempo": 120.0
            },
            {
                "start_time": 20.134090909090908,
                "end_time": 20.33863636363636,
                "pitch": 38,
                "velocity": 80,
                "duration": 0.20454545454545325,
                "tempo": 120.0
            },
            {
                "start_time": 20.33863636363636,
                "end_time": 20.545454545454543,
                "pitch": 50,
                "velocity": 80,
                "duration": 0.206818181818182,
                "tempo": 120.0
            },
            {
                "start_time": 20.545454545454543,
                "end_time": 20.645454545454545,
                "pitch": 38,
                "velocity": 80,
                "duration": 0.10000000000000142,
                "tempo": 120.0
            },
            {
                "start_time": 20.645454545454545,
                "end_time": 20.745454545454546,
                "pitch": 38,
                "velocity": 80,
                "duration": 0.10000000000000142,
                "tempo": 120.0
            },
            {
                "start_time": 20.745454545454546,
                "end_time": 20.945454545454545,
                "pitch": 50,
                "velocity": 80,
                "duration": 0.1999999999999993,
                "tempo": 120.0
            },
            {
                "start_time": 20.945454545454545,
                "end_time": 21.045454545454543,
                "pitch": 38,
                "velocity": 80,
                "duration": 0.09999999999999787,
                "tempo": 120.0
            },
            {
                "start_time": 21.047727272727272,
                "end_time": 21.147727272727273,
                "pitch": 38,
                "velocity": 80,
                "duration": 0.10000000000000142,
                "tempo": 120.0
            },
            {
                "start_time": 21.147727272727273,
                "end_time": 21.24772727272727,
                "pitch": 38,
                "velocity": 80,
                "duration": 0.09999999999999787,
                "tempo": 120.0
            },
            {
                "start_time": 21.24772727272727,
                "end_time": 21.349999999999998,
                "pitch": 38,
                "velocity": 80,
                "duration": 0.10227272727272663,
                "tempo": 120.0
            },
            {
                "start_time": 21.349999999999998,
                "end_time": 21.55,
                "pitch": 50,
                "velocity": 80,
                "duration": 0.20000000000000284,
                "tempo": 120.0
            },
            {
                "start_time": 21.55,
                "end_time": 21.65,
                "pitch": 38,
                "velocity": 80,
                "duration": 0.09999999999999787,
                "tempo": 120.0
            },
            {
                "start_time": 21.65,
                "end_time": 21.75,
                "pitch": 38,
                "velocity": 80,
                "duration": 0.10000000000000142,
                "tempo": 120.0
            },
            {
                "start_time": 21.75,
                "end_time": 21.95,
                "pitch": 38,
                "velocity": 80,
                "duration": 0.1999999999999993,
                "tempo": 120.0
            },
            {
                "start_time": 21.95,
                "end_time": 22.15,
                "pitch": 50,
                "velocity": 80,
                "duration": 0.1999999999999993,
                "tempo": 120.0
            },
            {
                "start_time": 22.15,
                "end_time": 22.25,
                "pitch": 38,
                "velocity": 80,
                "duration": 0.10000000000000142,
                "tempo": 120.0
            },
            {
                "start_time": 22.25,
                "end_time": 22.352272727272727,
                "pitch": 38,
                "velocity": 80,
                "duration": 0.10227272727272663,
                "tempo": 120.0
            },
            {
                "start_time": 22.352272727272727,
                "end_time": 22.554545454545455,
                "pitch": 50,
                "velocity": 80,
                "duration": 0.20227272727272805,
                "tempo": 120.0
            },
            {
                "start_time": 22.554545454545455,
                "end_time": 22.654545454545453,
                "pitch": 38,
                "velocity": 80,
                "duration": 0.09999999999999787,
                "tempo": 120.0
            },
            {
                "start_time": 22.654545454545453,
                "end_time": 22.754545454545454,
                "pitch": 38,
                "velocity": 80,
                "duration": 0.10000000000000142,
                "tempo": 120.0
            },
            {
                "start_time": 22.754545454545454,
                "end_time": 22.854545454545452,
                "pitch": 38,
                "velocity": 80,
                "duration": 0.09999999999999787,
                "tempo": 120.0
            },
            {
                "start_time": 22.854545454545452,
                "end_time": 22.954545454545453,
                "pitch": 38,
                "velocity": 80,
                "duration": 0.10000000000000142,
                "tempo": 120.0
            },
            {
                "start_time": 22.954545454545453,
                "end_time": 23.154545454545453,
                "pitch": 50,
                "velocity": 80,
                "duration": 0.1999999999999993,
                "tempo": 120.0
            },
            {
                "start_time": 23.154545454545453,
                "end_time": 23.25681818181818,
                "pitch": 38,
                "velocity": 80,
                "duration": 0.10227272727272663,
                "tempo": 120.0
            },
            {
                "start_time": 23.25681818181818,
                "end_time": 23.35681818181818,
                "pitch": 38,
                "velocity": 80,
                "duration": 0.10000000000000142,
                "tempo": 120.0
            },
            {
                "start_time": 23.35681818181818,
                "end_time": 23.55681818181818,
                "pitch": 38,
                "velocity": 80,
                "duration": 0.1999999999999993,
                "tempo": 120.0
            },
            {
                "start_time": 23.55681818181818,
                "end_time": 23.75681818181818,
                "pitch": 50,
                "velocity": 80,
                "duration": 0.1999999999999993,
                "tempo": 120.0
            },
            {
                "start_time": 23.75681818181818,
                "end_time": 23.85681818181818,
                "pitch": 38,
                "velocity": 80,
                "duration": 0.10000000000000142,
                "tempo": 120.0
            },
            {
                "start_time": 23.85909090909091,
                "end_time": 23.959090909090907,
                "pitch": 38,
                "velocity": 80,
                "duration": 0.09999999999999787,
                "tempo": 120.0
            },
            {
                "start_time": 23.959090909090907,
                "end_time": 24.159090909090907,
                "pitch": 50,
                "velocity": 80,
                "duration": 0.1999999999999993,
                "tempo": 120.0
            },
            {
                "start_time": 24.159090909090907,
                "end_time": 24.259090909090908,
                "pitch": 38,
                "velocity": 80,
                "duration": 0.10000000000000142,
                "tempo": 120.0
            },
            {
                "start_time": 24.259090909090908,
                "end_time": 24.35909090909091,
                "pitch": 38,
                "velocity": 80,
                "duration": 0.10000000000000142,
                "tempo": 120.0
            },
            {
                "start_time": 24.35909090909091,
                "end_time": 24.461363636363636,
                "pitch": 38,
                "velocity": 80,
                "duration": 0.10227272727272663,
                "tempo": 120.0
            },
            {
                "start_time": 24.461363636363636,
                "end_time": 24.561363636363634,
                "pitch": 38,
                "velocity": 80,
                "duration": 0.09999999999999787,
                "tempo": 120.0
            },
            {
                "start_time": 24.561363636363634,
                "end_time": 24.761363636363637,
                "pitch": 50,
                "velocity": 80,
                "duration": 0.20000000000000284,
                "tempo": 120.0
            },
            {
                "start_time": 24.761363636363637,
                "end_time": 24.861363636363635,
                "pitch": 38,
                "velocity": 80,
                "duration": 0.09999999999999787,
                "tempo": 120.0
            },
            {
                "start_time": 24.861363636363635,
                "end_time": 24.961363636363636,
                "pitch": 38,
                "velocity": 80,
                "duration": 0.10000000000000142,
                "tempo": 120.0
            },
            {
                "start_time": 24.961363636363636,
                "end_time": 25.163636363636364,
                "pitch": 38,
                "velocity": 80,
                "duration": 0.20227272727272805,
                "tempo": 120.0
            },
            {
                "start_time": 25.163636363636364,
                "end_time": 25.36590909090909,
                "pitch": 50,
                "velocity": 80,
                "duration": 0.2022727272727245,
                "tempo": 120.0
            },
            {
                "start_time": 25.36590909090909,
                "end_time": 25.46590909090909,
                "pitch": 38,
                "velocity": 80,
                "duration": 0.10000000000000142,
                "tempo": 120.0
            },
            {
                "start_time": 25.46590909090909,
                "end_time": 25.56590909090909,
                "pitch": 38,
                "velocity": 80,
                "duration": 0.10000000000000142,
                "tempo": 120.0
            },
            {
                "start_time": 25.56590909090909,
                "end_time": 25.76590909090909,
                "pitch": 50,
                "velocity": 80,
                "duration": 0.1999999999999993,
                "tempo": 120.0
            },
            {
                "start_time": 25.76590909090909,
                "end_time": 25.86590909090909,
                "pitch": 38,
                "velocity": 80,
                "duration": 0.09999999999999787,
                "tempo": 120.0
            },
            {
                "start_time": 25.86590909090909,
                "end_time": 25.96590909090909,
                "pitch": 38,
                "velocity": 80,
                "duration": 0.10000000000000142,
                "tempo": 120.0
            },
            {
                "start_time": 25.96590909090909,
                "end_time": 26.06590909090909,
                "pitch": 38,
                "velocity": 80,
                "duration": 0.10000000000000142,
                "tempo": 120.0
            },
            {
                "start_time": 26.06590909090909,
                "end_time": 26.16590909090909,
                "pitch": 38,
                "velocity": 80,
                "duration": 0.09999999999999787,
                "tempo": 120.0
            },
            {
                "start_time": 26.16590909090909,
                "end_time": 26.37272727272727,
                "pitch": 50,
                "velocity": 80,
                "duration": 0.206818181818182,
                "tempo": 120.0
            },
            {
                "start_time": 26.37272727272727,
                "end_time": 26.474999999999998,
                "pitch": 38,
                "velocity": 80,
                "duration": 0.10227272727272663,
                "tempo": 120.0
            },
            {
                "start_time": 26.474999999999998,
                "end_time": 26.577272727272724,
                "pitch": 38,
                "velocity": 80,
                "duration": 0.10227272727272663,
                "tempo": 120.0
            },
            {
                "start_time": 26.577272727272724,
                "end_time": 26.779545454545453,
                "pitch": 38,
                "velocity": 80,
                "duration": 0.20227272727272805,
                "tempo": 120.0
            },
            {
                "start_time": 26.779545454545453,
                "end_time": 26.98181818181818,
                "pitch": 50,
                "velocity": 80,
                "duration": 0.20227272727272805,
                "tempo": 120.0
            },
            {
                "start_time": 26.98181818181818,
                "end_time": 27.079545454545453,
                "pitch": 38,
                "velocity": 80,
                "duration": 0.09772727272727266,
                "tempo": 120.0
            },
            {
                "start_time": 27.079545454545453,
                "end_time": 27.177272727272726,
                "pitch": 38,
                "velocity": 80,
                "duration": 0.09772727272727266,
                "tempo": 120.0
            },
            {
                "start_time": 27.177272727272726,
                "end_time": 27.375,
                "pitch": 50,
                "velocity": 80,
                "duration": 0.19772727272727408,
                "tempo": 120.0
            },
            {
                "start_time": 27.375,
                "end_time": 27.472727272727273,
                "pitch": 38,
                "velocity": 80,
                "duration": 0.09772727272727266,
                "tempo": 120.0
            },
            {
                "start_time": 27.472727272727273,
                "end_time": 27.575,
                "pitch": 38,
                "velocity": 80,
                "duration": 0.10227272727272663,
                "tempo": 120.0
            },
            {
                "start_time": 27.575,
                "end_time": 27.674999999999997,
                "pitch": 38,
                "velocity": 80,
                "duration": 0.09999999999999787,
                "tempo": 120.0
            },
            {
                "start_time": 27.674999999999997,
                "end_time": 27.775,
                "pitch": 38,
                "velocity": 80,
                "duration": 0.10000000000000142,
                "tempo": 120.0
            },
            {
                "start_time": 27.775,
                "end_time": 27.979545454545452,
                "pitch": 50,
                "velocity": 80,
                "duration": 0.20454545454545325,
                "tempo": 120.0
            },
            {
                "start_time": 27.979545454545452,
                "end_time": 28.081818181818182,
                "pitch": 38,
                "velocity": 80,
                "duration": 0.10227272727273018,
                "tempo": 120.0
            },
            {
                "start_time": 28.081818181818182,
                "end_time": 28.186363636363634,
                "pitch": 38,
                "velocity": 80,
                "duration": 0.10454545454545183,
                "tempo": 120.0
            },
            {
                "start_time": 28.186363636363634,
                "end_time": 28.386363636363637,
                "pitch": 38,
                "velocity": 80,
                "duration": 0.20000000000000284,
                "tempo": 120.0
            },
            {
                "start_time": 28.386363636363637,
                "end_time": 28.586363636363636,
                "pitch": 50,
                "velocity": 80,
                "duration": 0.1999999999999993,
                "tempo": 120.0
            },
            {
                "start_time": 28.586363636363636,
                "end_time": 28.686363636363634,
                "pitch": 38,
                "velocity": 80,
                "duration": 0.09999999999999787,
                "tempo": 120.0
            },
            {
                "start_time": 28.686363636363634,
                "end_time": 28.78863636363636,
                "pitch": 38,
                "velocity": 80,
                "duration": 0.10227272727272663,
                "tempo": 120.0
            },
            {
                "start_time": 28.78863636363636,
                "end_time": 28.988636363636363,
                "pitch": 50,
                "velocity": 80,
                "duration": 0.20000000000000284,
                "tempo": 120.0
            },
            {
                "start_time": 28.988636363636363,
                "end_time": 29.08863636363636,
                "pitch": 38,
                "velocity": 80,
                "duration": 0.09999999999999787,
                "tempo": 120.0
            },
            {
                "start_time": 29.08863636363636,
                "end_time": 29.188636363636363,
                "pitch": 38,
                "velocity": 80,
                "duration": 0.10000000000000142,
                "tempo": 120.0
            },
            {
                "start_time": 29.190909090909088,
                "end_time": 29.29090909090909,
                "pitch": 38,
                "velocity": 80,
                "duration": 0.10000000000000142,
                "tempo": 120.0
            },
            {
                "start_time": 29.29090909090909,
                "end_time": 29.39090909090909,
                "pitch": 38,
                "velocity": 80,
                "duration": 0.10000000000000142,
                "tempo": 120.0
            },
            {
                "start_time": 29.39090909090909,
                "end_time": 29.59090909090909,
                "pitch": 50,
                "velocity": 80,
                "duration": 0.1999999999999993,
                "tempo": 120.0
            },
            {
                "start_time": 29.59090909090909,
                "end_time": 29.693181818181817,
                "pitch": 38,
                "velocity": 80,
                "duration": 0.10227272727272663,
                "tempo": 120.0
            },
            {
                "start_time": 29.693181818181817,
                "end_time": 29.793181818181818,
                "pitch": 38,
                "velocity": 80,
                "duration": 0.10000000000000142,
                "tempo": 120.0
            },
            {
                "start_time": 29.793181818181818,
                "end_time": 29.993181818181817,
                "pitch": 38,
                "velocity": 80,
                "duration": 0.1999999999999993,
                "tempo": 120.0
            },
            {
                "start_time": 29.993181818181817,
                "end_time": 30.193181818181817,
                "pitch": 50,
                "velocity": 80,
                "duration": 0.1999999999999993,
                "tempo": 120.0
            },
            {
                "start_time": 30.193181818181817,
                "end_time": 30.293181818181818,
                "pitch": 38,
                "velocity": 80,
                "duration": 0.10000000000000142,
                "tempo": 120.0
            },
            {
                "start_time": 30.293181818181818,
                "end_time": 30.393181818181816,
                "pitch": 38,
                "velocity": 80,
                "duration": 0.09999999999999787,
                "tempo": 120.0
            },
            {
                "start_time": 30.393181818181816,
                "end_time": 30.595454545454544,
                "pitch": 50,
                "velocity": 80,
                "duration": 0.20227272727272805,
                "tempo": 120.0
            },
            {
                "start_time": 30.595454545454544,
                "end_time": 30.695454545454545,
                "pitch": 38,
                "velocity": 80,
                "duration": 0.10000000000000142,
                "tempo": 120.0
            },
            {
                "start_time": 30.695454545454545,
                "end_time": 30.795454545454543,
                "pitch": 38,
                "velocity": 80,
                "duration": 0.09999999999999787,
                "tempo": 120.0
            },
            {
                "start_time": 30.795454545454543,
                "end_time": 30.89772727272727,
                "pitch": 38,
                "velocity": 80,
                "duration": 0.10227272727272663,
                "tempo": 120.0
            },
            {
                "start_time": 30.89772727272727,
                "end_time": 30.99772727272727,
                "pitch": 38,
                "velocity": 80,
                "duration": 0.10000000000000142,
                "tempo": 120.0
            },
            {
                "start_time": 30.99772727272727,
                "end_time": 31.19772727272727,
                "pitch": 50,
                "velocity": 80,
                "duration": 0.1999999999999993,
                "tempo": 120.0
            },
            {
                "start_time": 31.19772727272727,
                "end_time": 31.297727272727272,
                "pitch": 38,
                "velocity": 80,
                "duration": 0.10000000000000142,
                "tempo": 120.0
            },
            {
                "start_time": 31.297727272727272,
                "end_time": 31.39772727272727,
                "pitch": 38,
                "velocity": 80,
                "duration": 0.09999999999999787,
                "tempo": 120.0
            },
            {
                "start_time": 31.39772727272727,
                "end_time": 31.599999999999998,
                "pitch": 38,
                "velocity": 80,
                "duration": 0.20227272727272805,
                "tempo": 120.0
            },
            {
                "start_time": 31.599999999999998,
                "end_time": 31.802272727272726,
                "pitch": 50,
                "velocity": 80,
                "duration": 0.20227272727272805,
                "tempo": 120.0
            },
            {
                "start_time": 31.802272727272726,
                "end_time": 31.902272727272727,
                "pitch": 38,
                "velocity": 80,
                "duration": 0.10000000000000142,
                "tempo": 120.0
            },
            {
                "start_time": 31.902272727272727,
                "end_time": 32.002272727272725,
                "pitch": 38,
                "velocity": 80,
                "duration": 0.09999999999999787,
                "tempo": 120.0
            },
            {
                "start_time": 32.002272727272725,
                "end_time": 32.20227272727273,
                "pitch": 50,
                "velocity": 80,
                "duration": 0.20000000000000284,
                "tempo": 120.0
            },
            {
                "start_time": 32.20227272727273,
                "end_time": 32.30227272727272,
                "pitch": 38,
                "velocity": 80,
                "duration": 0.09999999999999432,
                "tempo": 120.0
            },
            {
                "start_time": 32.30227272727272,
                "end_time": 32.404545454545456,
                "pitch": 38,
                "velocity": 80,
                "duration": 0.10227272727273373,
                "tempo": 120.0
            },
            {
                "start_time": 32.404545454545456,
                "end_time": 32.50454545454545,
                "pitch": 38,
                "velocity": 80,
                "duration": 0.09999999999999432,
                "tempo": 120.0
            },
            {
                "start_time": 32.50454545454545,
                "end_time": 32.60454545454545,
                "pitch": 38,
                "velocity": 80,
                "duration": 0.10000000000000142,
                "tempo": 120.0
            },
            {
                "start_time": 32.60454545454545,
                "end_time": 32.804545454545455,
                "pitch": 50,
                "velocity": 80,
                "duration": 0.20000000000000284,
                "tempo": 120.0
            },
            {
                "start_time": 32.804545454545455,
                "end_time": 32.904545454545456,
                "pitch": 38,
                "velocity": 80,
                "duration": 0.10000000000000142,
                "tempo": 120.0
            },
            {
                "start_time": 32.904545454545456,
                "end_time": 33.00454545454545,
                "pitch": 38,
                "velocity": 80,
                "duration": 0.09999999999999432,
                "tempo": 120.0
            },
            {
                "start_time": 33.00454545454545,
                "end_time": 33.211363636363636,
                "pitch": 38,
                "velocity": 80,
                "duration": 0.20681818181818556,
                "tempo": 120.0
            },
            {
                "start_time": 33.211363636363636,
                "end_time": 33.41590909090909,
                "pitch": 50,
                "velocity": 80,
                "duration": 0.20454545454545325,
                "tempo": 120.0
            },
            {
                "start_time": 33.41590909090909,
                "end_time": 33.51590909090909,
                "pitch": 38,
                "velocity": 80,
                "duration": 0.10000000000000142,
                "tempo": 120.0
            },
            {
                "start_time": 33.51590909090909,
                "end_time": 33.61363636363636,
                "pitch": 38,
                "velocity": 80,
                "duration": 0.09772727272726911,
                "tempo": 120.0
            },
            {
                "start_time": 33.61363636363636,
                "end_time": 33.809090909090905,
                "pitch": 50,
                "velocity": 80,
                "duration": 0.19545454545454533,
                "tempo": 120.0
            },
            {
                "start_time": 33.809090909090905,
                "end_time": 33.90909090909091,
                "pitch": 38,
                "velocity": 80,
                "duration": 0.10000000000000142,
                "tempo": 120.0
            },
            {
                "start_time": 33.90909090909091,
                "end_time": 34.00909090909091,
                "pitch": 38,
                "velocity": 80,
                "duration": 0.10000000000000142,
                "tempo": 120.0
            },
            {
                "start_time": 34.00909090909091,
                "end_time": 34.10909090909091,
                "pitch": 38,
                "velocity": 80,
                "duration": 0.10000000000000142,
                "tempo": 120.0
            },
            {
                "start_time": 34.10909090909091,
                "end_time": 34.211363636363636,
                "pitch": 38,
                "velocity": 80,
                "duration": 0.10227272727272663,
                "tempo": 120.0
            },
            {
                "start_time": 34.211363636363636,
                "end_time": 34.41590909090909,
                "pitch": 50,
                "velocity": 80,
                "duration": 0.20454545454545325,
                "tempo": 120.0
            },
            {
                "start_time": 34.41590909090909,
                "end_time": 34.518181818181816,
                "pitch": 38,
                "velocity": 80,
                "duration": 0.10227272727272663,
                "tempo": 120.0
            },
            {
                "start_time": 34.518181818181816,
                "end_time": 34.62045454545454,
                "pitch": 38,
                "velocity": 80,
                "duration": 0.10227272727272663,
                "tempo": 120.0
            },
            {
                "start_time": 34.62045454545454,
                "end_time": 34.82272727272727,
                "pitch": 38,
                "velocity": 80,
                "duration": 0.20227272727272805,
                "tempo": 120.0
            },
            {
                "start_time": 34.82272727272727,
                "end_time": 35.02272727272727,
                "pitch": 50,
                "velocity": 80,
                "duration": 0.20000000000000284,
                "tempo": 120.0
            },
            {
                "start_time": 35.02272727272727,
                "end_time": 35.12045454545454,
                "pitch": 38,
                "velocity": 80,
                "duration": 0.09772727272726911,
                "tempo": 120.0
            },
            {
                "start_time": 35.12045454545454,
                "end_time": 35.21818181818182,
                "pitch": 38,
                "velocity": 80,
                "duration": 0.09772727272727622,
                "tempo": 120.0
            },
            {
                "start_time": 35.21818181818182,
                "end_time": 35.41590909090909,
                "pitch": 50,
                "velocity": 80,
                "duration": 0.19772727272727053,
                "tempo": 120.0
            },
            {
                "start_time": 35.41590909090909,
                "end_time": 35.51590909090909,
                "pitch": 38,
                "velocity": 80,
                "duration": 0.10000000000000142,
                "tempo": 120.0
            },
            {
                "start_time": 35.51590909090909,
                "end_time": 35.61590909090909,
                "pitch": 38,
                "velocity": 80,
                "duration": 0.10000000000000142,
                "tempo": 120.0
            },
            {
                "start_time": 35.61590909090909,
                "end_time": 35.715909090909086,
                "pitch": 38,
                "velocity": 80,
                "duration": 0.09999999999999432,
                "tempo": 120.0
            },
            {
                "start_time": 35.715909090909086,
                "end_time": 35.81590909090909,
                "pitch": 38,
                "velocity": 80,
                "duration": 0.10000000000000142,
                "tempo": 120.0
            },
            {
                "start_time": 35.81590909090909,
                "end_time": 36.02045454545454,
                "pitch": 50,
                "velocity": 80,
                "duration": 0.20454545454545325,
                "tempo": 120.0
            },
            {
                "start_time": 36.02045454545454,
                "end_time": 36.125,
                "pitch": 38,
                "velocity": 80,
                "duration": 0.10454545454545894,
                "tempo": 120.0
            },
            {
                "start_time": 36.125,
                "end_time": 36.22727272727273,
                "pitch": 38,
                "velocity": 80,
                "duration": 0.10227272727272663,
                "tempo": 120.0
            },
            {
                "start_time": 36.22727272727273,
                "end_time": 36.42727272727272,
                "pitch": 38,
                "velocity": 80,
                "duration": 0.19999999999999574,
                "tempo": 120.0
            },
            {
                "start_time": 36.42727272727272,
                "end_time": 36.627272727272725,
                "pitch": 50,
                "velocity": 80,
                "duration": 0.20000000000000284,
                "tempo": 120.0
            },
            {
                "start_time": 36.627272727272725,
                "end_time": 36.72727272727273,
                "pitch": 38,
                "velocity": 80,
                "duration": 0.10000000000000142,
                "tempo": 120.0
            },
            {
                "start_time": 36.72727272727273,
                "end_time": 36.82727272727273,
                "pitch": 38,
                "velocity": 80,
                "duration": 0.10000000000000142,
                "tempo": 120.0
            },
            {
                "start_time": 36.82727272727273,
                "end_time": 37.027272727272724,
                "pitch": 50,
                "velocity": 80,
                "duration": 0.19999999999999574,
                "tempo": 120.0
            },
            {
                "start_time": 37.027272727272724,
                "end_time": 37.127272727272725,
                "pitch": 38,
                "velocity": 80,
                "duration": 0.10000000000000142,
                "tempo": 120.0
            },
            {
                "start_time": 37.127272727272725,
                "end_time": 37.22727272727273,
                "pitch": 38,
                "velocity": 80,
                "duration": 0.10000000000000142,
                "tempo": 120.0
            },
            {
                "start_time": 37.22954545454545,
                "end_time": 37.32954545454545,
                "pitch": 38,
                "velocity": 80,
                "duration": 0.10000000000000142,
                "tempo": 120.0
            },
            {
                "start_time": 37.32954545454545,
                "end_time": 37.429545454545455,
                "pitch": 38,
                "velocity": 80,
                "duration": 0.10000000000000142,
                "tempo": 120.0
            },
            {
                "start_time": 37.429545454545455,
                "end_time": 37.62954545454545,
                "pitch": 50,
                "velocity": 80,
                "duration": 0.19999999999999574,
                "tempo": 120.0
            },
            {
                "start_time": 37.62954545454545,
                "end_time": 37.73181818181818,
                "pitch": 38,
                "velocity": 80,
                "duration": 0.10227272727272663,
                "tempo": 120.0
            },
            {
                "start_time": 37.73181818181818,
                "end_time": 37.83181818181818,
                "pitch": 38,
                "velocity": 80,
                "duration": 0.10000000000000142,
                "tempo": 120.0
            },
            {
                "start_time": 37.83181818181818,
                "end_time": 38.03181818181818,
                "pitch": 38,
                "velocity": 80,
                "duration": 0.20000000000000284,
                "tempo": 120.0
            },
            {
                "start_time": 38.03181818181818,
                "end_time": 38.23181818181818,
                "pitch": 50,
                "velocity": 80,
                "duration": 0.19999999999999574,
                "tempo": 120.0
            },
            {
                "start_time": 38.23181818181818,
                "end_time": 38.33181818181818,
                "pitch": 38,
                "velocity": 80,
                "duration": 0.10000000000000142,
                "tempo": 120.0
            },
            {
                "start_time": 38.33181818181818,
                "end_time": 38.43181818181818,
                "pitch": 38,
                "velocity": 80,
                "duration": 0.10000000000000142,
                "tempo": 120.0
            },
            {
                "start_time": 38.43181818181818,
                "end_time": 38.63409090909091,
                "pitch": 50,
                "velocity": 80,
                "duration": 0.20227272727272805,
                "tempo": 120.0
            },
            {
                "start_time": 38.63409090909091,
                "end_time": 38.73409090909091,
                "pitch": 36,
                "velocity": 80,
                "duration": 0.10000000000000142,
                "tempo": 120.0
            },
            {
                "start_time": 38.73409090909091,
                "end_time": 38.834090909090904,
                "pitch": 36,
                "velocity": 80,
                "duration": 0.09999999999999432,
                "tempo": 120.0
            },
            {
                "start_time": 38.834090909090904,
                "end_time": 38.934090909090905,
                "pitch": 36,
                "velocity": 80,
                "duration": 0.10000000000000142,
                "tempo": 120.0
            },
            {
                "start_time": 38.934090909090905,
                "end_time": 39.03409090909091,
                "pitch": 36,
                "velocity": 80,
                "duration": 0.10000000000000142,
                "tempo": 120.0
            },
            {
                "start_time": 38.63409090909091,
                "end_time": 39.23409090909091,
                "pitch": 48,
                "velocity": 80,
                "duration": 0.6000000000000014,
                "tempo": 120.0
            },
            {
                "start_time": 39.03409090909091,
                "end_time": 39.23409090909091,
                "pitch": 48,
                "velocity": 80,
                "duration": 0.20000000000000284,
                "tempo": 120.0
            },
            {
                "start_time": 39.23409090909091,
                "end_time": 39.334090909090904,
                "pitch": 36,
                "velocity": 80,
                "duration": 0.09999999999999432,
                "tempo": 120.0
            },
            {
                "start_time": 39.334090909090904,
                "end_time": 39.434090909090905,
                "pitch": 36,
                "velocity": 80,
                "duration": 0.10000000000000142,
                "tempo": 120.0
            },
            {
                "start_time": 39.434090909090905,
                "end_time": 39.63636363636363,
                "pitch": 36,
                "velocity": 80,
                "duration": 0.20227272727272805,
                "tempo": 120.0
            },
            {
                "start_time": 39.63636363636363,
                "end_time": 39.836363636363636,
                "pitch": 48,
                "velocity": 80,
                "duration": 0.20000000000000284,
                "tempo": 120.0
            },
            {
                "start_time": 39.836363636363636,
                "end_time": 39.93636363636364,
                "pitch": 36,
                "velocity": 80,
                "duration": 0.10000000000000142,
                "tempo": 120.0
            },
            {
                "start_time": 39.93636363636364,
                "end_time": 40.03636363636363,
                "pitch": 36,
                "velocity": 80,
                "duration": 0.09999999999999432,
                "tempo": 120.0
            },
            {
                "start_time": 40.03636363636363,
                "end_time": 40.23863636363636,
                "pitch": 48,
                "velocity": 80,
                "duration": 0.20227272727272805,
                "tempo": 120.0
            },
            {
                "start_time": 40.23863636363636,
                "end_time": 40.33863636363636,
                "pitch": 36,
                "velocity": 80,
                "duration": 0.10000000000000142,
                "tempo": 120.0
            },
            {
                "start_time": 40.33863636363636,
                "end_time": 40.43863636363636,
                "pitch": 36,
                "velocity": 80,
                "duration": 0.10000000000000142,
                "tempo": 120.0
            },
            {
                "start_time": 40.43863636363636,
                "end_time": 40.538636363636364,
                "pitch": 36,
                "velocity": 80,
                "duration": 0.10000000000000142,
                "tempo": 120.0
            },
            {
                "start_time": 40.538636363636364,
                "end_time": 40.63863636363636,
                "pitch": 36,
                "velocity": 80,
                "duration": 0.09999999999999432,
                "tempo": 120.0
            },
            {
                "start_time": 40.63863636363636,
                "end_time": 40.83863636363636,
                "pitch": 48,
                "velocity": 80,
                "duration": 0.20000000000000284,
                "tempo": 120.0
            },
            {
                "start_time": 40.83863636363636,
                "end_time": 40.93863636363636,
                "pitch": 36,
                "velocity": 80,
                "duration": 0.10000000000000142,
                "tempo": 120.0
            },
            {
                "start_time": 40.93863636363636,
                "end_time": 41.038636363636364,
                "pitch": 36,
                "velocity": 80,
                "duration": 0.10000000000000142,
                "tempo": 120.0
            },
            {
                "start_time": 41.038636363636364,
                "end_time": 41.23863636363636,
                "pitch": 36,
                "velocity": 80,
                "duration": 0.19999999999999574,
                "tempo": 120.0
            },
            {
                "start_time": 41.23863636363636,
                "end_time": 41.43863636363636,
                "pitch": 48,
                "velocity": 80,
                "duration": 0.20000000000000284,
                "tempo": 120.0
            },
            {
                "start_time": 41.43863636363636,
                "end_time": 41.54090909090909,
                "pitch": 36,
                "velocity": 80,
                "duration": 0.10227272727272663,
                "tempo": 120.0
            },
            {
                "start_time": 41.54090909090909,
                "end_time": 41.64090909090909,
                "pitch": 36,
                "velocity": 80,
                "duration": 0.10000000000000142,
                "tempo": 120.0
            },
            {
                "start_time": 41.64090909090909,
                "end_time": 41.84318181818182,
                "pitch": 48,
                "velocity": 80,
                "duration": 0.20227272727272805,
                "tempo": 120.0
            },
            {
                "start_time": 41.84318181818182,
                "end_time": 41.94318181818181,
                "pitch": 36,
                "velocity": 80,
                "duration": 0.09999999999999432,
                "tempo": 120.0
            },
            {
                "start_time": 41.94318181818181,
                "end_time": 42.043181818181814,
                "pitch": 36,
                "velocity": 80,
                "duration": 0.10000000000000142,
                "tempo": 120.0
            },
            {
                "start_time": 42.043181818181814,
                "end_time": 42.143181818181816,
                "pitch": 36,
                "velocity": 80,
                "duration": 0.10000000000000142,
                "tempo": 120.0
            },
            {
                "start_time": 42.143181818181816,
                "end_time": 42.24318181818182,
                "pitch": 36,
                "velocity": 80,
                "duration": 0.10000000000000142,
                "tempo": 120.0
            },
            {
                "start_time": 42.24318181818182,
                "end_time": 42.449999999999996,
                "pitch": 48,
                "velocity": 80,
                "duration": 0.20681818181817846,
                "tempo": 120.0
            },
            {
                "start_time": 42.449999999999996,
                "end_time": 42.55227272727272,
                "pitch": 36,
                "velocity": 80,
                "duration": 0.10227272727272663,
                "tempo": 120.0
            },
            {
                "start_time": 42.55227272727272,
                "end_time": 42.65454545454545,
                "pitch": 36,
                "velocity": 80,
                "duration": 0.10227272727272663,
                "tempo": 120.0
            },
            {
                "start_time": 42.65454545454545,
                "end_time": 42.85454545454545,
                "pitch": 36,
                "velocity": 80,
                "duration": 0.20000000000000284,
                "tempo": 120.0
            },
            {
                "start_time": 42.85454545454545,
                "end_time": 43.054545454545455,
                "pitch": 48,
                "velocity": 80,
                "duration": 0.20000000000000284,
                "tempo": 120.0
            },
            {
                "start_time": 43.054545454545455,
                "end_time": 43.15681818181818,
                "pitch": 36,
                "velocity": 80,
                "duration": 0.10227272727272663,
                "tempo": 120.0
            },
            {
                "start_time": 43.15681818181818,
                "end_time": 43.25681818181818,
                "pitch": 36,
                "velocity": 80,
                "duration": 0.10000000000000142,
                "tempo": 120.0
            },
            {
                "start_time": 43.25681818181818,
                "end_time": 43.459090909090904,
                "pitch": 48,
                "velocity": 80,
                "duration": 0.20227272727272094,
                "tempo": 120.0
            },
            {
                "start_time": 43.459090909090904,
                "end_time": 43.559090909090905,
                "pitch": 36,
                "velocity": 80,
                "duration": 0.10000000000000142,
                "tempo": 120.0
            },
            {
                "start_time": 43.559090909090905,
                "end_time": 43.65909090909091,
                "pitch": 36,
                "velocity": 80,
                "duration": 0.10000000000000142,
                "tempo": 120.0
            },
            {
                "start_time": 43.65909090909091,
                "end_time": 43.75909090909091,
                "pitch": 36,
                "velocity": 80,
                "duration": 0.10000000000000142,
                "tempo": 120.0
            },
            {
                "start_time": 43.75909090909091,
                "end_time": 43.85909090909091,
                "pitch": 36,
                "velocity": 80,
                "duration": 0.10000000000000142,
                "tempo": 120.0
            },
            {
                "start_time": 43.85909090909091,
                "end_time": 44.059090909090905,
                "pitch": 48,
                "velocity": 80,
                "duration": 0.19999999999999574,
                "tempo": 120.0
            },
            {
                "start_time": 44.059090909090905,
                "end_time": 44.15909090909091,
                "pitch": 36,
                "velocity": 80,
                "duration": 0.10000000000000142,
                "tempo": 120.0
            },
            {
                "start_time": 44.15909090909091,
                "end_time": 44.25909090909091,
                "pitch": 36,
                "velocity": 80,
                "duration": 0.10000000000000142,
                "tempo": 120.0
            },
            {
                "start_time": 44.25909090909091,
                "end_time": 44.459090909090904,
                "pitch": 36,
                "velocity": 80,
                "duration": 0.19999999999999574,
                "tempo": 120.0
            },
            {
                "start_time": 44.459090909090904,
                "end_time": 44.66136363636363,
                "pitch": 48,
                "velocity": 80,
                "duration": 0.20227272727272805,
                "tempo": 120.0
            },
            {
                "start_time": 44.66136363636363,
                "end_time": 44.75909090909091,
                "pitch": 36,
                "velocity": 80,
                "duration": 0.09772727272727622,
                "tempo": 120.0
            },
            {
                "start_time": 44.75909090909091,
                "end_time": 44.861363636363635,
                "pitch": 36,
                "velocity": 80,
                "duration": 0.10227272727272663,
                "tempo": 120.0
            },
            {
                "start_time": 44.861363636363635,
                "end_time": 45.06136363636364,
                "pitch": 48,
                "velocity": 80,
                "duration": 0.20000000000000284,
                "tempo": 120.0
            },
            {
                "start_time": 45.06136363636364,
                "end_time": 45.16136363636363,
                "pitch": 38,
                "velocity": 80,
                "duration": 0.09999999999999432,
                "tempo": 120.0
            },
            {
                "start_time": 45.16136363636363,
                "end_time": 45.26136363636363,
                "pitch": 38,
                "velocity": 80,
                "duration": 0.10000000000000142,
                "tempo": 120.0
            },
            {
                "start_time": 45.26136363636363,
                "end_time": 45.36363636363636,
                "pitch": 38,
                "velocity": 80,
                "duration": 0.10227272727272663,
                "tempo": 120.0
            },
            {
                "start_time": 45.36363636363636,
                "end_time": 45.46363636363636,
                "pitch": 38,
                "velocity": 80,
                "duration": 0.10000000000000142,
                "tempo": 120.0
            },
            {
                "start_time": 45.06136363636364,
                "end_time": 45.663636363636364,
                "pitch": 50,
                "velocity": 80,
                "duration": 0.6022727272727266,
                "tempo": 120.0
            },
            {
                "start_time": 45.46363636363636,
                "end_time": 45.663636363636364,
                "pitch": 50,
                "velocity": 80,
                "duration": 0.20000000000000284,
                "tempo": 120.0
            },
            {
                "start_time": 45.663636363636364,
                "end_time": 45.76363636363636,
                "pitch": 38,
                "velocity": 80,
                "duration": 0.09999999999999432,
                "tempo": 120.0
            },
            {
                "start_time": 45.76363636363636,
                "end_time": 45.86363636363636,
                "pitch": 38,
                "velocity": 80,
                "duration": 0.10000000000000142,
                "tempo": 120.0
            },
            {
                "start_time": 45.86363636363636,
                "end_time": 46.06590909090909,
                "pitch": 38,
                "velocity": 80,
                "duration": 0.20227272727272805,
                "tempo": 120.0
            },
            {
                "start_time": 46.06590909090909,
                "end_time": 46.26590909090909,
                "pitch": 50,
                "velocity": 80,
                "duration": 0.20000000000000284,
                "tempo": 120.0
            },
            {
                "start_time": 46.26590909090909,
                "end_time": 46.36590909090909,
                "pitch": 38,
                "velocity": 80,
                "duration": 0.10000000000000142,
                "tempo": 120.0
            },
            {
                "start_time": 46.36590909090909,
                "end_time": 46.465909090909086,
                "pitch": 38,
                "velocity": 80,
                "duration": 0.09999999999999432,
                "tempo": 120.0
            },
            {
                "start_time": 46.465909090909086,
                "end_time": 46.66590909090909,
                "pitch": 50,
                "velocity": 80,
                "duration": 0.20000000000000284,
                "tempo": 120.0
            },
            {
                "start_time": 46.66590909090909,
                "end_time": 46.76590909090909,
                "pitch": 38,
                "velocity": 80,
                "duration": 0.10000000000000142,
                "tempo": 120.0
            },
            {
                "start_time": 46.76590909090909,
                "end_time": 46.86590909090909,
                "pitch": 38,
                "velocity": 80,
                "duration": 0.10000000000000142,
                "tempo": 120.0
            },
            {
                "start_time": 46.86590909090909,
                "end_time": 46.965909090909086,
                "pitch": 38,
                "velocity": 80,
                "duration": 0.09999999999999432,
                "tempo": 120.0
            },
            {
                "start_time": 46.965909090909086,
                "end_time": 47.06590909090909,
                "pitch": 38,
                "velocity": 80,
                "duration": 0.10000000000000142,
                "tempo": 120.0
            },
            {
                "start_time": 47.06590909090909,
                "end_time": 47.268181818181816,
                "pitch": 50,
                "velocity": 80,
                "duration": 0.20227272727272805,
                "tempo": 120.0
            },
            {
                "start_time": 47.268181818181816,
                "end_time": 47.36818181818182,
                "pitch": 38,
                "velocity": 80,
                "duration": 0.10000000000000142,
                "tempo": 120.0
            },
            {
                "start_time": 47.36818181818182,
                "end_time": 47.470454545454544,
                "pitch": 38,
                "velocity": 80,
                "duration": 0.10227272727272663,
                "tempo": 120.0
            },
            {
                "start_time": 47.470454545454544,
                "end_time": 47.67045454545454,
                "pitch": 38,
                "velocity": 80,
                "duration": 0.19999999999999574,
                "tempo": 120.0
            },
            {
                "start_time": 47.67045454545454,
                "end_time": 47.87045454545454,
                "pitch": 50,
                "velocity": 80,
                "duration": 0.20000000000000284,
                "tempo": 120.0
            },
            {
                "start_time": 47.87045454545454,
                "end_time": 47.97272727272727,
                "pitch": 38,
                "velocity": 80,
                "duration": 0.10227272727272663,
                "tempo": 120.0
            },
            {
                "start_time": 47.97272727272727,
                "end_time": 48.074999999999996,
                "pitch": 38,
                "velocity": 80,
                "duration": 0.10227272727272663,
                "tempo": 120.0
            },
            {
                "start_time": 48.074999999999996,
                "end_time": 48.28181818181818,
                "pitch": 50,
                "velocity": 80,
                "duration": 0.20681818181818556,
                "tempo": 120.0
            },
            {
                "start_time": 48.28181818181818,
                "end_time": 48.37954545454545,
                "pitch": 38,
                "velocity": 80,
                "duration": 0.09772727272726911,
                "tempo": 120.0
            },
            {
                "start_time": 48.37954545454545,
                "end_time": 48.47727272727273,
                "pitch": 38,
                "velocity": 80,
                "duration": 0.09772727272727622,
                "tempo": 120.0
            },
            {
                "start_time": 48.47727272727273,
                "end_time": 48.574999999999996,
                "pitch": 38,
                "velocity": 80,
                "duration": 0.09772727272726911,
                "tempo": 120.0
            },
            {
                "start_time": 48.574999999999996,
                "end_time": 48.67272727272727,
                "pitch": 38,
                "velocity": 80,
                "duration": 0.09772727272727622,
                "tempo": 120.0
            },
            {
                "start_time": 48.675,
                "end_time": 48.87954545454545,
                "pitch": 50,
                "velocity": 80,
                "duration": 0.20454545454545325,
                "tempo": 120.0
            },
            {
                "start_time": 48.87954545454545,
                "end_time": 48.98181818181818,
                "pitch": 38,
                "velocity": 80,
                "duration": 0.10227272727272663,
                "tempo": 120.0
            },
            {
                "start_time": 48.98181818181818,
                "end_time": 49.084090909090904,
                "pitch": 38,
                "velocity": 80,
                "duration": 0.10227272727272663,
                "tempo": 120.0
            },
            {
                "start_time": 49.084090909090904,
                "end_time": 49.28181818181818,
                "pitch": 38,
                "velocity": 80,
                "duration": 0.19772727272727764,
                "tempo": 120.0
            },
            {
                "start_time": 49.28181818181818,
                "end_time": 49.47727272727273,
                "pitch": 50,
                "velocity": 80,
                "duration": 0.19545454545454533,
                "tempo": 120.0
            },
            {
                "start_time": 49.47727272727273,
                "end_time": 49.57954545454545,
                "pitch": 38,
                "velocity": 80,
                "duration": 0.10227272727272663,
                "tempo": 120.0
            },
            {
                "start_time": 49.57954545454545,
                "end_time": 49.684090909090905,
                "pitch": 38,
                "velocity": 80,
                "duration": 0.10454545454545183,
                "tempo": 120.0
            },
            {
                "start_time": 49.684090909090905,
                "end_time": 49.88863636363636,
                "pitch": 50,
                "velocity": 80,
                "duration": 0.20454545454545325,
                "tempo": 120.0
            },
            {
                "start_time": 49.88863636363636,
                "end_time": 49.98863636363636,
                "pitch": 38,
                "velocity": 80,
                "duration": 0.10000000000000142,
                "tempo": 120.0
            },
            {
                "start_time": 49.98863636363636,
                "end_time": 50.08863636363636,
                "pitch": 38,
                "velocity": 80,
                "duration": 0.10000000000000142,
                "tempo": 120.0
            },
            {
                "start_time": 50.08863636363636,
                "end_time": 50.18863636363636,
                "pitch": 38,
                "velocity": 80,
                "duration": 0.10000000000000142,
                "tempo": 120.0
            },
            {
                "start_time": 50.18863636363636,
                "end_time": 50.288636363636364,
                "pitch": 38,
                "velocity": 80,
                "duration": 0.10000000000000142,
                "tempo": 120.0
            },
            {
                "start_time": 50.288636363636364,
                "end_time": 50.490909090909085,
                "pitch": 50,
                "velocity": 80,
                "duration": 0.20227272727272094,
                "tempo": 120.0
            },
            {
                "start_time": 50.490909090909085,
                "end_time": 50.590909090909086,
                "pitch": 38,
                "velocity": 80,
                "duration": 0.10000000000000142,
                "tempo": 120.0
            },
            {
                "start_time": 50.590909090909086,
                "end_time": 50.69318181818181,
                "pitch": 38,
                "velocity": 80,
                "duration": 0.10227272727272663,
                "tempo": 120.0
            },
            {
                "start_time": 50.69318181818181,
                "end_time": 50.893181818181816,
                "pitch": 38,
                "velocity": 80,
                "duration": 0.20000000000000284,
                "tempo": 120.0
            },
            {
                "start_time": 50.893181818181816,
                "end_time": 51.09318181818182,
                "pitch": 50,
                "velocity": 80,
                "duration": 0.20000000000000284,
                "tempo": 120.0
            },
            {
                "start_time": 51.09318181818182,
                "end_time": 51.19318181818181,
                "pitch": 38,
                "velocity": 80,
                "duration": 0.09999999999999432,
                "tempo": 120.0
            },
            {
                "start_time": 51.19318181818181,
                "end_time": 51.293181818181814,
                "pitch": 38,
                "velocity": 80,
                "duration": 0.10000000000000142,
                "tempo": 120.0
            },
            {
                "start_time": 51.293181818181814,
                "end_time": 51.49318181818182,
                "pitch": 50,
                "velocity": 80,
                "duration": 0.20000000000000284,
                "tempo": 120.0
            },
            {
                "start_time": 51.49318181818182,
                "end_time": 51.59318181818182,
                "pitch": 38,
                "velocity": 80,
                "duration": 0.10000000000000142,
                "tempo": 120.0
            },
            {
                "start_time": 51.59318181818182,
                "end_time": 51.69318181818181,
                "pitch": 38,
                "velocity": 80,
                "duration": 0.09999999999999432,
                "tempo": 120.0
            },
            {
                "start_time": 51.69318181818181,
                "end_time": 51.793181818181814,
                "pitch": 38,
                "velocity": 80,
                "duration": 0.10000000000000142,
                "tempo": 120.0
            },
            {
                "start_time": 51.793181818181814,
                "end_time": 51.893181818181816,
                "pitch": 38,
                "velocity": 80,
                "duration": 0.10000000000000142,
                "tempo": 120.0
            },
            {
                "start_time": 51.893181818181816,
                "end_time": 52.09318181818182,
                "pitch": 50,
                "velocity": 80,
                "duration": 0.20000000000000284,
                "tempo": 120.0
            },
            {
                "start_time": 52.095454545454544,
                "end_time": 52.195454545454545,
                "pitch": 38,
                "velocity": 80,
                "duration": 0.10000000000000142,
                "tempo": 120.0
            },
            {
                "start_time": 52.195454545454545,
                "end_time": 52.29545454545454,
                "pitch": 38,
                "velocity": 80,
                "duration": 0.09999999999999432,
                "tempo": 120.0
            },
            {
                "start_time": 52.29545454545454,
                "end_time": 52.49545454545454,
                "pitch": 38,
                "velocity": 80,
                "duration": 0.20000000000000284,
                "tempo": 120.0
            },
            {
                "start_time": 52.49545454545454,
                "end_time": 52.69772727272727,
                "pitch": 50,
                "velocity": 80,
                "duration": 0.20227272727272805,
                "tempo": 120.0
            },
            {
                "start_time": 52.69772727272727,
                "end_time": 52.79772727272727,
                "pitch": 38,
                "velocity": 80,
                "duration": 0.10000000000000142,
                "tempo": 120.0
            },
            {
                "start_time": 52.79772727272727,
                "end_time": 52.89772727272727,
                "pitch": 38,
                "velocity": 80,
                "duration": 0.10000000000000142,
                "tempo": 120.0
            },
            {
                "start_time": 52.89772727272727,
                "end_time": 53.09772727272727,
                "pitch": 50,
                "velocity": 80,
                "duration": 0.19999999999999574,
                "tempo": 120.0
            },
            {
                "start_time": 53.09772727272727,
                "end_time": 53.19772727272727,
                "pitch": 38,
                "velocity": 80,
                "duration": 0.10000000000000142,
                "tempo": 120.0
            },
            {
                "start_time": 53.19772727272727,
                "end_time": 53.29772727272727,
                "pitch": 38,
                "velocity": 80,
                "duration": 0.10000000000000142,
                "tempo": 120.0
            },
            {
                "start_time": 53.29772727272727,
                "end_time": 53.39772727272727,
                "pitch": 38,
                "velocity": 80,
                "duration": 0.10000000000000142,
                "tempo": 120.0
            },
            {
                "start_time": 53.39772727272727,
                "end_time": 53.48181818181818,
                "pitch": 38,
                "velocity": 80,
                "duration": 0.08409090909090366,
                "tempo": 120.0
            }
        ]
    }
}