{
    "track_id": "Sky_Adventure_(Alpha-68K)_06 Boss",
    "mood": "angry",
    "instruments": {
        "Trumpet": [
            {
                "start_time": 0.03636363636363636,
                "end_time": 0.12045454545454545,
                "pitch": 69,
                "velocity": 127,
                "duration": 0.08409090909090909,
                "tempo": 120.0
            },
            {
                "start_time": 0.13636363636363635,
                "end_time": 0.22045454545454543,
                "pitch": 69,
                "velocity": 127,
                "duration": 0.08409090909090908,
                "tempo": 120.0
            },
            {
                "start_time": 0.23863636363636362,
                "end_time": 0.33409090909090905,
                "pitch": 72,
                "velocity": 127,
                "duration": 0.09545454545454543,
                "tempo": 120.0
            },
            {
                "start_time": 0.35227272727272724,
                "end_time": 0.35454545454545455,
                "pitch": 72,
                "velocity": 127,
                "duration": 0.002272727272727315,
                "tempo": 120.0
            },
            {
                "start_time": 0.35454545454545455,
                "end_time": 0.44999999999999996,
                "pitch": 74,
                "velocity": 127,
                "duration": 0.0954545454545454,
                "tempo": 120.0
            },
            {
                "start_time": 0.47045454545454546,
                "end_time": 0.5659090909090909,
                "pitch": 60,
                "velocity": 127,
                "duration": 0.09545454545454546,
                "tempo": 120.0
            },
            {
                "start_time": 0.5863636363636363,
                "end_time": 0.6818181818181818,
                "pitch": 71,
                "velocity": 127,
                "duration": 0.09545454545454546,
                "tempo": 120.0
            },
            {
                "start_time": 0.03636363636363636,
                "end_time": 0.7977272727272727,
                "pitch": 67,
                "velocity": 127,
                "duration": 0.7613636363636364,
                "tempo": 120.0
            },
            {
                "start_time": 0.7022727272727273,
                "end_time": 0.7977272727272727,
                "pitch": 67,
                "velocity": 127,
                "duration": 0.09545454545454546,
                "tempo": 120.0
            },
            {
                "start_time": 0.8181818181818181,
                "end_time": 0.9136363636363636,
                "pitch": 69,
                "velocity": 127,
                "duration": 0.09545454545454546,
                "tempo": 120.0
            },
            {
                "start_time": 0.9340909090909091,
                "end_time": 1.0295454545454545,
                "pitch": 77,
                "velocity": 127,
                "duration": 0.09545454545454546,
                "tempo": 120.0
            },
            {
                "start_time": 1.05,
                "end_time": 1.1477272727272727,
                "pitch": 77,
                "velocity": 127,
                "duration": 0.09772727272727266,
                "tempo": 120.0
            },
            {
                "start_time": 1.1659090909090908,
                "end_time": 1.2636363636363637,
                "pitch": 77,
                "velocity": 127,
                "duration": 0.09772727272727288,
                "tempo": 120.0
            },
            {
                "start_time": 0.7022727272727273,
                "end_time": 1.3795454545454544,
                "pitch": 71,
                "velocity": 127,
                "duration": 0.6772727272727271,
                "tempo": 120.0
            },
            {
                "start_time": 1.2818181818181817,
                "end_time": 1.3795454545454544,
                "pitch": 71,
                "velocity": 127,
                "duration": 0.09772727272727266,
                "tempo": 120.0
            },
            {
                "start_time": 0.23863636363636362,
                "end_time": 1.3977272727272727,
                "pitch": 56,
                "velocity": 127,
                "duration": 1.1590909090909092,
                "tempo": 120.0
            },
            {
                "start_time": 1.3977272727272727,
                "end_time": 1.4954545454545454,
                "pitch": 74,
                "velocity": 127,
                "duration": 0.09772727272727266,
                "tempo": 120.0
            },
            {
                "start_time": 0.47045454545454546,
                "end_time": 1.6113636363636363,
                "pitch": 62,
                "velocity": 127,
                "duration": 1.1409090909090909,
                "tempo": 120.0
            },
            {
                "start_time": 1.5136363636363637,
                "end_time": 1.6113636363636363,
                "pitch": 62,
                "velocity": 127,
                "duration": 0.09772727272727266,
                "tempo": 120.0
            },
            {
                "start_time": 1.6318181818181818,
                "end_time": 1.7295454545454545,
                "pitch": 72,
                "velocity": 127,
                "duration": 0.09772727272727266,
                "tempo": 120.0
            },
            {
                "start_time": 1.75,
                "end_time": 1.8477272727272727,
                "pitch": 60,
                "velocity": 127,
                "duration": 0.09772727272727266,
                "tempo": 120.0
            },
            {
                "start_time": 0.5863636363636363,
                "end_time": 1.8681818181818182,
                "pitch": 76,
                "velocity": 127,
                "duration": 1.2818181818181817,
                "tempo": 120.0
            },
            {
                "start_time": 1.8681818181818182,
                "end_time": 1.968181818181818,
                "pitch": 69,
                "velocity": 127,
                "duration": 0.09999999999999987,
                "tempo": 120.0
            },
            {
                "start_time": 1.9863636363636363,
                "end_time": 2.0863636363636364,
                "pitch": 69,
                "velocity": 127,
                "duration": 0.10000000000000009,
                "tempo": 120.0
            },
            {
                "start_time": 1.3977272727272727,
                "end_time": 2.106818181818182,
                "pitch": 56,
                "velocity": 127,
                "duration": 0.7090909090909092,
                "tempo": 120.0
            },
            {
                "start_time": 2.106818181818182,
                "end_time": 2.202272727272727,
                "pitch": 72,
                "velocity": 127,
                "duration": 0.09545454545454524,
                "tempo": 120.0
            },
            {
                "start_time": 1.6318181818181818,
                "end_time": 2.318181818181818,
                "pitch": 74,
                "velocity": 127,
                "duration": 0.6863636363636361,
                "tempo": 120.0
            },
            {
                "start_time": 2.2227272727272727,
                "end_time": 2.318181818181818,
                "pitch": 74,
                "velocity": 127,
                "duration": 0.09545454545454524,
                "tempo": 120.0
            },
            {
                "start_time": 2.2227272727272727,
                "end_time": 2.434090909090909,
                "pitch": 72,
                "velocity": 127,
                "duration": 0.21136363636363642,
                "tempo": 120.0
            },
            {
                "start_time": 2.3386363636363634,
                "end_time": 2.434090909090909,
                "pitch": 72,
                "velocity": 127,
                "duration": 0.09545454545454568,
                "tempo": 120.0
            },
            {
                "start_time": 1.8681818181818182,
                "end_time": 2.4545454545454546,
                "pitch": 76,
                "velocity": 127,
                "duration": 0.5863636363636364,
                "tempo": 120.0
            },
            {
                "start_time": 2.4545454545454546,
                "end_time": 2.5522727272727272,
                "pitch": 71,
                "velocity": 127,
                "duration": 0.09772727272727266,
                "tempo": 120.0
            },
            {
                "start_time": 0.8181818181818181,
                "end_time": 2.668181818181818,
                "pitch": 67,
                "velocity": 127,
                "duration": 1.8499999999999999,
                "tempo": 120.0
            },
            {
                "start_time": 2.5704545454545453,
                "end_time": 2.668181818181818,
                "pitch": 67,
                "velocity": 127,
                "duration": 0.09772727272727266,
                "tempo": 120.0
            },
            {
                "start_time": 2.686363636363636,
                "end_time": 2.784090909090909,
                "pitch": 69,
                "velocity": 127,
                "duration": 0.0977272727272731,
                "tempo": 120.0
            },
            {
                "start_time": 0.9340909090909091,
                "end_time": 2.8022727272727272,
                "pitch": 43,
                "velocity": 127,
                "duration": 1.8681818181818182,
                "tempo": 120.0
            },
            {
                "start_time": 2.8022727272727272,
                "end_time": 2.9,
                "pitch": 72,
                "velocity": 127,
                "duration": 0.09772727272727266,
                "tempo": 120.0
            },
            {
                "start_time": 2.4545454545454546,
                "end_time": 2.918181818181818,
                "pitch": 76,
                "velocity": 127,
                "duration": 0.4636363636363634,
                "tempo": 120.0
            },
            {
                "start_time": 2.5704545454545453,
                "end_time": 3.0159090909090907,
                "pitch": 71,
                "velocity": 127,
                "duration": 0.4454545454545453,
                "tempo": 120.0
            },
            {
                "start_time": 2.918181818181818,
                "end_time": 3.0159090909090907,
                "pitch": 71,
                "velocity": 127,
                "duration": 0.09772727272727266,
                "tempo": 120.0
            },
            {
                "start_time": 2.686363636363636,
                "end_time": 3.131818181818182,
                "pitch": 67,
                "velocity": 127,
                "duration": 0.44545454545454577,
                "tempo": 120.0
            },
            {
                "start_time": 3.036363636363636,
                "end_time": 3.131818181818182,
                "pitch": 67,
                "velocity": 127,
                "duration": 0.09545454545454568,
                "tempo": 120.0
            },
            {
                "start_time": 3.1522727272727273,
                "end_time": 3.2477272727272726,
                "pitch": 69,
                "velocity": 127,
                "duration": 0.09545454545454524,
                "tempo": 120.0
            },
            {
                "start_time": 3.268181818181818,
                "end_time": 3.3636363636363633,
                "pitch": 69,
                "velocity": 127,
                "duration": 0.09545454545454524,
                "tempo": 120.0
            },
            {
                "start_time": 3.384090909090909,
                "end_time": 3.5795454545454546,
                "pitch": 64,
                "velocity": 127,
                "duration": 0.19545454545454577,
                "tempo": 120.0
            },
            {
                "start_time": 1.2818181818181817,
                "end_time": 3.7363636363636363,
                "pitch": 78,
                "velocity": 127,
                "duration": 2.4545454545454546,
                "tempo": 120.0
            },
            {
                "start_time": 3.7363636363636363,
                "end_time": 3.836363636363636,
                "pitch": 69,
                "velocity": 127,
                "duration": 0.09999999999999964,
                "tempo": 120.0
            },
            {
                "start_time": 3.8568181818181815,
                "end_time": 3.954545454545454,
                "pitch": 69,
                "velocity": 127,
                "duration": 0.09772727272727266,
                "tempo": 120.0
            },
            {
                "start_time": 2.106818181818182,
                "end_time": 3.9749999999999996,
                "pitch": 56,
                "velocity": 127,
                "duration": 1.8681818181818177,
                "tempo": 120.0
            },
            {
                "start_time": 3.9749999999999996,
                "end_time": 4.072727272727272,
                "pitch": 72,
                "velocity": 127,
                "duration": 0.09772727272727266,
                "tempo": 120.0
            },
            {
                "start_time": 2.3386363636363634,
                "end_time": 4.1886363636363635,
                "pitch": 74,
                "velocity": 127,
                "duration": 1.85,
                "tempo": 120.0
            },
            {
                "start_time": 4.090909090909091,
                "end_time": 4.1886363636363635,
                "pitch": 74,
                "velocity": 127,
                "duration": 0.09772727272727266,
                "tempo": 120.0
            },
            {
                "start_time": 4.090909090909091,
                "end_time": 4.304545454545455,
                "pitch": 72,
                "velocity": 127,
                "duration": 0.21363636363636385,
                "tempo": 120.0
            },
            {
                "start_time": 4.206818181818182,
                "end_time": 4.304545454545455,
                "pitch": 72,
                "velocity": 127,
                "duration": 0.09772727272727266,
                "tempo": 120.0
            },
            {
                "start_time": 2.918181818181818,
                "end_time": 4.322727272727272,
                "pitch": 76,
                "velocity": 127,
                "duration": 1.4045454545454543,
                "tempo": 120.0
            },
            {
                "start_time": 3.036363636363636,
                "end_time": 4.420454545454545,
                "pitch": 71,
                "velocity": 127,
                "duration": 1.3840909090909088,
                "tempo": 120.0
            },
            {
                "start_time": 4.322727272727272,
                "end_time": 4.420454545454545,
                "pitch": 71,
                "velocity": 127,
                "duration": 0.09772727272727266,
                "tempo": 120.0
            },
            {
                "start_time": 4.4386363636363635,
                "end_time": 4.4409090909090905,
                "pitch": 71,
                "velocity": 127,
                "duration": 0.002272727272726982,
                "tempo": 120.0
            },
            {
                "start_time": 3.1522727272727273,
                "end_time": 4.536363636363636,
                "pitch": 67,
                "velocity": 127,
                "duration": 1.3840909090909088,
                "tempo": 120.0
            },
            {
                "start_time": 4.4409090909090905,
                "end_time": 4.536363636363636,
                "pitch": 67,
                "velocity": 127,
                "duration": 0.09545454545454568,
                "tempo": 120.0
            },
            {
                "start_time": 4.556818181818182,
                "end_time": 4.652272727272727,
                "pitch": 69,
                "velocity": 127,
                "duration": 0.09545454545454568,
                "tempo": 120.0
            },
            {
                "start_time": 2.8022727272727272,
                "end_time": 4.672727272727273,
                "pitch": 43,
                "velocity": 127,
                "duration": 1.8704545454545456,
                "tempo": 120.0
            },
            {
                "start_time": 4.672727272727273,
                "end_time": 4.768181818181818,
                "pitch": 77,
                "velocity": 127,
                "duration": 0.09545454545454479,
                "tempo": 120.0
            },
            {
                "start_time": 4.788636363636363,
                "end_time": 4.884090909090909,
                "pitch": 77,
                "velocity": 127,
                "duration": 0.09545454545454568,
                "tempo": 120.0
            },
            {
                "start_time": 4.904545454545454,
                "end_time": 5.002272727272727,
                "pitch": 77,
                "velocity": 127,
                "duration": 0.09772727272727266,
                "tempo": 120.0
            },
            {
                "start_time": 3.7363636363636363,
                "end_time": 5.0227272727272725,
                "pitch": 78,
                "velocity": 127,
                "duration": 1.2863636363636362,
                "tempo": 120.0
            },
            {
                "start_time": 5.0227272727272725,
                "end_time": 5.122727272727272,
                "pitch": 71,
                "velocity": 127,
                "duration": 0.09999999999999964,
                "tempo": 120.0
            },
            {
                "start_time": 3.9749999999999996,
                "end_time": 5.140909090909091,
                "pitch": 56,
                "velocity": 127,
                "duration": 1.165909090909091,
                "tempo": 120.0
            },
            {
                "start_time": 4.206818181818182,
                "end_time": 5.24090909090909,
                "pitch": 74,
                "velocity": 127,
                "duration": 1.0340909090909083,
                "tempo": 120.0
            },
            {
                "start_time": 5.140909090909091,
                "end_time": 5.24090909090909,
                "pitch": 74,
                "velocity": 127,
                "duration": 0.09999999999999964,
                "tempo": 120.0
            },
            {
                "start_time": 5.261363636363636,
                "end_time": 5.3590909090909085,
                "pitch": 62,
                "velocity": 127,
                "duration": 0.09772727272727266,
                "tempo": 120.0
            },
            {
                "start_time": 5.379545454545454,
                "end_time": 5.477272727272727,
                "pitch": 72,
                "velocity": 127,
                "duration": 0.09772727272727266,
                "tempo": 120.0
            },
            {
                "start_time": 5.495454545454545,
                "end_time": 5.593181818181818,
                "pitch": 60,
                "velocity": 127,
                "duration": 0.09772727272727266,
                "tempo": 120.0
            },
            {
                "start_time": 4.322727272727272,
                "end_time": 5.611363636363636,
                "pitch": 76,
                "velocity": 127,
                "duration": 1.288636363636364,
                "tempo": 120.0
            },
            {
                "start_time": 5.611363636363636,
                "end_time": 5.709090909090909,
                "pitch": 69,
                "velocity": 127,
                "duration": 0.09772727272727266,
                "tempo": 120.0
            },
            {
                "start_time": 5.727272727272727,
                "end_time": 5.824999999999999,
                "pitch": 69,
                "velocity": 127,
                "duration": 0.09772727272727266,
                "tempo": 120.0
            },
            {
                "start_time": 5.140909090909091,
                "end_time": 5.843181818181818,
                "pitch": 56,
                "velocity": 127,
                "duration": 0.7022727272727272,
                "tempo": 120.0
            },
            {
                "start_time": 5.843181818181818,
                "end_time": 5.9409090909090905,
                "pitch": 72,
                "velocity": 127,
                "duration": 0.09772727272727266,
                "tempo": 120.0
            },
            {
                "start_time": 5.379545454545454,
                "end_time": 6.056818181818182,
                "pitch": 74,
                "velocity": 127,
                "duration": 0.6772727272727277,
                "tempo": 120.0
            },
            {
                "start_time": 5.961363636363636,
                "end_time": 6.056818181818182,
                "pitch": 74,
                "velocity": 127,
                "duration": 0.09545454545454568,
                "tempo": 120.0
            },
            {
                "start_time": 5.961363636363636,
                "end_time": 6.172727272727273,
                "pitch": 72,
                "velocity": 127,
                "duration": 0.21136363636363686,
                "tempo": 120.0
            },
            {
                "start_time": 6.077272727272727,
                "end_time": 6.172727272727273,
                "pitch": 72,
                "velocity": 127,
                "duration": 0.09545454545454568,
                "tempo": 120.0
            },
            {
                "start_time": 5.611363636363636,
                "end_time": 6.1931818181818175,
                "pitch": 76,
                "velocity": 127,
                "duration": 0.5818181818181811,
                "tempo": 120.0
            },
            {
                "start_time": 6.1931818181818175,
                "end_time": 6.288636363636363,
                "pitch": 71,
                "velocity": 127,
                "duration": 0.09545454545454568,
                "tempo": 120.0
            },
            {
                "start_time": 4.556818181818182,
                "end_time": 6.406818181818181,
                "pitch": 67,
                "velocity": 127,
                "duration": 1.8499999999999996,
                "tempo": 120.0
            },
            {
                "start_time": 6.309090909090909,
                "end_time": 6.406818181818181,
                "pitch": 67,
                "velocity": 127,
                "duration": 0.09772727272727266,
                "tempo": 120.0
            },
            {
                "start_time": 6.427272727272727,
                "end_time": 6.527272727272727,
                "pitch": 69,
                "velocity": 127,
                "duration": 0.10000000000000053,
                "tempo": 120.0
            },
            {
                "start_time": 4.672727272727273,
                "end_time": 6.545454545454545,
                "pitch": 43,
                "velocity": 127,
                "duration": 1.8727272727272721,
                "tempo": 120.0
            },
            {
                "start_time": 6.545454545454545,
                "end_time": 6.6454545454545455,
                "pitch": 72,
                "velocity": 127,
                "duration": 0.10000000000000053,
                "tempo": 120.0
            },
            {
                "start_time": 6.1931818181818175,
                "end_time": 6.665909090909091,
                "pitch": 76,
                "velocity": 127,
                "duration": 0.47272727272727355,
                "tempo": 120.0
            },
            {
                "start_time": 6.309090909090909,
                "end_time": 6.763636363636364,
                "pitch": 71,
                "velocity": 127,
                "duration": 0.45454545454545503,
                "tempo": 120.0
            },
            {
                "start_time": 6.665909090909091,
                "end_time": 6.763636363636364,
                "pitch": 71,
                "velocity": 127,
                "duration": 0.09772727272727266,
                "tempo": 120.0
            },
            {
                "start_time": 6.427272727272727,
                "end_time": 6.879545454545454,
                "pitch": 67,
                "velocity": 127,
                "duration": 0.45227272727272716,
                "tempo": 120.0
            },
            {
                "start_time": 6.784090909090909,
                "end_time": 6.879545454545454,
                "pitch": 67,
                "velocity": 127,
                "duration": 0.09545454545454479,
                "tempo": 120.0
            },
            {
                "start_time": 6.8999999999999995,
                "end_time": 6.997727272727272,
                "pitch": 62,
                "velocity": 127,
                "duration": 0.09772727272727266,
                "tempo": 120.0
            },
            {
                "start_time": 7.015909090909091,
                "end_time": 7.209090909090909,
                "pitch": 64,
                "velocity": 127,
                "duration": 0.19318181818181834,
                "tempo": 120.0
            },
            {
                "start_time": 6.784090909090909,
                "end_time": 30.03863636363636,
                "pitch": 71,
                "velocity": 127,
                "duration": 23.25454545454545,
                "tempo": 120.0
            },
            {
                "start_time": 29.940909090909088,
                "end_time": 30.03863636363636,
                "pitch": 71,
                "velocity": 127,
                "duration": 0.09772727272727266,
                "tempo": 120.0
            },
            {
                "start_time": 30.05681818181818,
                "end_time": 30.086363636363636,
                "pitch": 69,
                "velocity": 127,
                "duration": 0.029545454545456096,
                "tempo": 120.0
            }
        ],
        "Church Organ": [
            {
                "start_time": 7.4818181818181815,
                "end_time": 8.26590909090909,
                "pitch": 59,
                "velocity": 127,
                "duration": 0.7840909090909092,
                "tempo": 120.0
            },
            {
                "start_time": 8.420454545454545,
                "end_time": 9.197727272727272,
                "pitch": 62,
                "velocity": 127,
                "duration": 0.7772727272727273,
                "tempo": 120.0
            },
            {
                "start_time": 9.354545454545454,
                "end_time": 9.35681818181818,
                "pitch": 62,
                "velocity": 127,
                "duration": 0.002272727272726982,
                "tempo": 120.0
            },
            {
                "start_time": 9.35681818181818,
                "end_time": 10.134090909090908,
                "pitch": 64,
                "velocity": 127,
                "duration": 0.7772727272727273,
                "tempo": 120.0
            },
            {
                "start_time": 10.290909090909091,
                "end_time": 11.075,
                "pitch": 68,
                "velocity": 127,
                "duration": 0.7840909090909083,
                "tempo": 120.0
            },
            {
                "start_time": 11.229545454545454,
                "end_time": 12.004545454545454,
                "pitch": 68,
                "velocity": 127,
                "duration": 0.7750000000000004,
                "tempo": 120.0
            },
            {
                "start_time": 12.159090909090908,
                "end_time": 12.943181818181818,
                "pitch": 72,
                "velocity": 127,
                "duration": 0.7840909090909101,
                "tempo": 120.0
            },
            {
                "start_time": 13.1,
                "end_time": 13.875,
                "pitch": 74,
                "velocity": 127,
                "duration": 0.7750000000000004,
                "tempo": 120.0
            },
            {
                "start_time": 14.034090909090908,
                "end_time": 14.813636363636363,
                "pitch": 76,
                "velocity": 127,
                "duration": 0.7795454545454543,
                "tempo": 120.0
            }
        ],
        "Lead 2 (sawtooth)": [
            {
                "start_time": 0.038636363636363635,
                "end_time": 0.12045454545454545,
                "pitch": 76,
                "velocity": 80,
                "duration": 0.08181818181818182,
                "tempo": 120.0
            },
            {
                "start_time": 0.35454545454545455,
                "end_time": 1.7113636363636362,
                "pitch": 76,
                "velocity": 80,
                "duration": 1.3568181818181817,
                "tempo": 120.0
            },
            {
                "start_time": 1.8704545454545454,
                "end_time": 1.968181818181818,
                "pitch": 76,
                "velocity": 80,
                "duration": 0.09772727272727266,
                "tempo": 120.0
            },
            {
                "start_time": 2.2227272727272727,
                "end_time": 3.5795454545454546,
                "pitch": 76,
                "velocity": 80,
                "duration": 1.356818181818182,
                "tempo": 120.0
            },
            {
                "start_time": 3.7386363636363633,
                "end_time": 3.836363636363636,
                "pitch": 76,
                "velocity": 80,
                "duration": 0.09772727272727266,
                "tempo": 120.0
            },
            {
                "start_time": 4.093181818181818,
                "end_time": 5.456818181818181,
                "pitch": 76,
                "velocity": 80,
                "duration": 1.3636363636363633,
                "tempo": 120.0
            },
            {
                "start_time": 5.613636363636363,
                "end_time": 5.709090909090909,
                "pitch": 76,
                "velocity": 80,
                "duration": 0.09545454545454568,
                "tempo": 120.0
            },
            {
                "start_time": 5.961363636363636,
                "end_time": 7.327272727272727,
                "pitch": 76,
                "velocity": 80,
                "duration": 1.3659090909090912,
                "tempo": 120.0
            },
            {
                "start_time": 14.970454545454544,
                "end_time": 15.06590909090909,
                "pitch": 76,
                "velocity": 80,
                "duration": 0.09545454545454568,
                "tempo": 120.0
            },
            {
                "start_time": 15.320454545454545,
                "end_time": 16.68181818181818,
                "pitch": 76,
                "velocity": 80,
                "duration": 1.3613636363636346,
                "tempo": 120.0
            },
            {
                "start_time": 16.83863636363636,
                "end_time": 16.93409090909091,
                "pitch": 76,
                "velocity": 80,
                "duration": 0.09545454545454746,
                "tempo": 120.0
            },
            {
                "start_time": 17.188636363636363,
                "end_time": 18.552272727272726,
                "pitch": 76,
                "velocity": 80,
                "duration": 1.3636363636363633,
                "tempo": 120.0
            },
            {
                "start_time": 18.711363636363636,
                "end_time": 18.811363636363634,
                "pitch": 76,
                "velocity": 80,
                "duration": 0.09999999999999787,
                "tempo": 120.0
            },
            {
                "start_time": 19.06590909090909,
                "end_time": 20.43181818181818,
                "pitch": 76,
                "velocity": 80,
                "duration": 1.3659090909090885,
                "tempo": 120.0
            },
            {
                "start_time": 20.586363636363636,
                "end_time": 20.68181818181818,
                "pitch": 76,
                "velocity": 80,
                "duration": 0.0954545454545439,
                "tempo": 120.0
            },
            {
                "start_time": 20.93409090909091,
                "end_time": 22.299999999999997,
                "pitch": 76,
                "velocity": 80,
                "duration": 1.3659090909090885,
                "tempo": 120.0
            },
            {
                "start_time": 29.943181818181817,
                "end_time": 30.03863636363636,
                "pitch": 76,
                "velocity": 80,
                "duration": 0.0954545454545439,
                "tempo": 120.0
            }
        ],
        "Violin": [
            {
                "start_time": 22.454545454545453,
                "end_time": 23.229545454545452,
                "pitch": 59,
                "velocity": 127,
                "duration": 0.7749999999999986,
                "tempo": 120.0
            },
            {
                "start_time": 23.388636363636362,
                "end_time": 24.168181818181818,
                "pitch": 65,
                "velocity": 127,
                "duration": 0.7795454545454561,
                "tempo": 120.0
            },
            {
                "start_time": 24.325,
                "end_time": 25.10909090909091,
                "pitch": 68,
                "velocity": 127,
                "duration": 0.7840909090909101,
                "tempo": 120.0
            },
            {
                "start_time": 25.263636363636362,
                "end_time": 25.65,
                "pitch": 54,
                "velocity": 127,
                "duration": 0.3863636363636367,
                "tempo": 120.0
            },
            {
                "start_time": 22.454545454545453,
                "end_time": 25.729545454545452,
                "pitch": 66,
                "velocity": 127,
                "duration": 3.2749999999999986,
                "tempo": 120.0
            },
            {
                "start_time": 25.729545454545452,
                "end_time": 26.118181818181817,
                "pitch": 57,
                "velocity": 127,
                "duration": 0.38863636363636545,
                "tempo": 120.0
            },
            {
                "start_time": 26.19772727272727,
                "end_time": 26.977272727272727,
                "pitch": 57,
                "velocity": 127,
                "duration": 0.7795454545454561,
                "tempo": 120.0
            },
            {
                "start_time": 27.13181818181818,
                "end_time": 27.918181818181818,
                "pitch": 59,
                "velocity": 127,
                "duration": 0.7863636363636388,
                "tempo": 120.0
            },
            {
                "start_time": 23.388636363636362,
                "end_time": 28.07272727272727,
                "pitch": 44,
                "velocity": 127,
                "duration": 4.684090909090909,
                "tempo": 120.0
            },
            {
                "start_time": 28.07272727272727,
                "end_time": 28.845454545454544,
                "pitch": 60,
                "velocity": 127,
                "duration": 0.7727272727272734,
                "tempo": 120.0
            },
            {
                "start_time": 29.002272727272725,
                "end_time": 29.786363636363635,
                "pitch": 68,
                "velocity": 127,
                "duration": 0.7840909090909101,
                "tempo": 120.0
            }
        ],
        "Harpsichord": [
            {
                "start_time": 0.04090909090909091,
                "end_time": 0.09545454545454544,
                "pitch": 33,
                "velocity": 64,
                "duration": 0.054545454545454536,
                "tempo": 120.0
            },
            {
                "start_time": 0.13863636363636364,
                "end_time": 0.19545454545454544,
                "pitch": 33,
                "velocity": 64,
                "duration": 0.056818181818181795,
                "tempo": 120.0
            },
            {
                "start_time": 0.23863636363636362,
                "end_time": 0.3045454545454545,
                "pitch": 36,
                "velocity": 64,
                "duration": 0.06590909090909089,
                "tempo": 120.0
            },
            {
                "start_time": 0.35454545454545455,
                "end_time": 0.5,
                "pitch": 33,
                "velocity": 64,
                "duration": 0.14545454545454545,
                "tempo": 120.0
            },
            {
                "start_time": 0.5863636363636363,
                "end_time": 0.6545454545454545,
                "pitch": 35,
                "velocity": 64,
                "duration": 0.06818181818181823,
                "tempo": 120.0
            },
            {
                "start_time": 0.23863636363636362,
                "end_time": 0.7022727272727273,
                "pitch": 7,
                "velocity": 64,
                "duration": 0.4636363636363636,
                "tempo": 120.0
            },
            {
                "start_time": 0.7022727272727273,
                "end_time": 0.7704545454545454,
                "pitch": 29,
                "velocity": 64,
                "duration": 0.06818181818181812,
                "tempo": 120.0
            },
            {
                "start_time": 0.5863636363636363,
                "end_time": 0.8863636363636364,
                "pitch": 33,
                "velocity": 64,
                "duration": 0.30000000000000004,
                "tempo": 120.0
            },
            {
                "start_time": 0.8181818181818181,
                "end_time": 0.8863636363636364,
                "pitch": 33,
                "velocity": 64,
                "duration": 0.06818181818181823,
                "tempo": 120.0
            },
            {
                "start_time": 0.9363636363636363,
                "end_time": 1.0022727272727272,
                "pitch": 33,
                "velocity": 64,
                "duration": 0.06590909090909092,
                "tempo": 120.0
            },
            {
                "start_time": 0.8181818181818181,
                "end_time": 1.1681818181818182,
                "pitch": 42,
                "velocity": 64,
                "duration": 0.3500000000000001,
                "tempo": 120.0
            },
            {
                "start_time": 1.1681818181818182,
                "end_time": 1.2340909090909091,
                "pitch": 33,
                "velocity": 64,
                "duration": 0.06590909090909092,
                "tempo": 120.0
            },
            {
                "start_time": 1.1681818181818182,
                "end_time": 1.4,
                "pitch": 42,
                "velocity": 64,
                "duration": 0.2318181818181817,
                "tempo": 120.0
            },
            {
                "start_time": 1.4,
                "end_time": 1.4659090909090908,
                "pitch": 33,
                "velocity": 64,
                "duration": 0.06590909090909092,
                "tempo": 120.0
            },
            {
                "start_time": 0.7022727272727273,
                "end_time": 1.5159090909090909,
                "pitch": 7,
                "velocity": 64,
                "duration": 0.8136363636363636,
                "tempo": 120.0
            },
            {
                "start_time": 1.5159090909090909,
                "end_time": 1.5818181818181818,
                "pitch": 38,
                "velocity": 64,
                "duration": 0.06590909090909092,
                "tempo": 120.0
            },
            {
                "start_time": 1.6318181818181818,
                "end_time": 1.7,
                "pitch": 36,
                "velocity": 64,
                "duration": 0.06818181818181812,
                "tempo": 120.0
            },
            {
                "start_time": 0.35454545454545455,
                "end_time": 1.75,
                "pitch": 40,
                "velocity": 64,
                "duration": 1.3954545454545455,
                "tempo": 120.0
            },
            {
                "start_time": 1.75,
                "end_time": 1.8181818181818181,
                "pitch": 33,
                "velocity": 64,
                "duration": 0.06818181818181812,
                "tempo": 120.0
            },
            {
                "start_time": 1.8704545454545454,
                "end_time": 1.9386363636363635,
                "pitch": 33,
                "velocity": 64,
                "duration": 0.06818181818181812,
                "tempo": 120.0
            },
            {
                "start_time": 1.9886363636363635,
                "end_time": 2.0568181818181817,
                "pitch": 33,
                "velocity": 64,
                "duration": 0.06818181818181812,
                "tempo": 120.0
            },
            {
                "start_time": 1.5159090909090909,
                "end_time": 2.106818181818182,
                "pitch": 7,
                "velocity": 64,
                "duration": 0.590909090909091,
                "tempo": 120.0
            },
            {
                "start_time": 1.6318181818181818,
                "end_time": 2.175,
                "pitch": 38,
                "velocity": 64,
                "duration": 0.543181818181818,
                "tempo": 120.0
            },
            {
                "start_time": 2.106818181818182,
                "end_time": 2.175,
                "pitch": 38,
                "velocity": 64,
                "duration": 0.0681818181818179,
                "tempo": 120.0
            },
            {
                "start_time": 2.225,
                "end_time": 2.368181818181818,
                "pitch": 33,
                "velocity": 64,
                "duration": 0.14318181818181808,
                "tempo": 120.0
            },
            {
                "start_time": 2.4545454545454546,
                "end_time": 2.5227272727272725,
                "pitch": 35,
                "velocity": 64,
                "duration": 0.0681818181818179,
                "tempo": 120.0
            },
            {
                "start_time": 2.4545454545454546,
                "end_time": 2.6386363636363637,
                "pitch": 33,
                "velocity": 64,
                "duration": 0.18409090909090908,
                "tempo": 120.0
            },
            {
                "start_time": 2.5727272727272728,
                "end_time": 2.6386363636363637,
                "pitch": 33,
                "velocity": 64,
                "duration": 0.06590909090909092,
                "tempo": 120.0
            },
            {
                "start_time": 2.6886363636363635,
                "end_time": 2.7545454545454544,
                "pitch": 33,
                "velocity": 64,
                "duration": 0.06590909090909092,
                "tempo": 120.0
            },
            {
                "start_time": 2.9204545454545454,
                "end_time": 2.9863636363636363,
                "pitch": 29,
                "velocity": 64,
                "duration": 0.06590909090909092,
                "tempo": 120.0
            },
            {
                "start_time": 3.036363636363636,
                "end_time": 3.102272727272727,
                "pitch": 29,
                "velocity": 64,
                "duration": 0.06590909090909092,
                "tempo": 120.0
            },
            {
                "start_time": 3.1522727272727273,
                "end_time": 3.2204545454545452,
                "pitch": 29,
                "velocity": 64,
                "duration": 0.0681818181818179,
                "tempo": 120.0
            },
            {
                "start_time": 1.4,
                "end_time": 3.268181818181818,
                "pitch": 42,
                "velocity": 64,
                "duration": 1.8681818181818182,
                "tempo": 120.0
            },
            {
                "start_time": 0.04090909090909091,
                "end_time": 3.3363636363636364,
                "pitch": 31,
                "velocity": 64,
                "duration": 3.2954545454545454,
                "tempo": 120.0
            },
            {
                "start_time": 3.268181818181818,
                "end_time": 3.3363636363636364,
                "pitch": 31,
                "velocity": 64,
                "duration": 0.06818181818181834,
                "tempo": 120.0
            },
            {
                "start_time": 3.384090909090909,
                "end_time": 3.452272727272727,
                "pitch": 31,
                "velocity": 64,
                "duration": 0.06818181818181834,
                "tempo": 120.0
            },
            {
                "start_time": 3.5,
                "end_time": 3.5704545454545453,
                "pitch": 31,
                "velocity": 64,
                "duration": 0.07045454545454533,
                "tempo": 120.0
            },
            {
                "start_time": 3.618181818181818,
                "end_time": 3.6886363636363635,
                "pitch": 31,
                "velocity": 64,
                "duration": 0.07045454545454533,
                "tempo": 120.0
            },
            {
                "start_time": 3.7386363636363633,
                "end_time": 3.8068181818181817,
                "pitch": 33,
                "velocity": 64,
                "duration": 0.06818181818181834,
                "tempo": 120.0
            },
            {
                "start_time": 3.8568181818181815,
                "end_time": 3.925,
                "pitch": 33,
                "velocity": 64,
                "duration": 0.06818181818181834,
                "tempo": 120.0
            },
            {
                "start_time": 2.106818181818182,
                "end_time": 3.977272727272727,
                "pitch": 7,
                "velocity": 64,
                "duration": 1.8704545454545451,
                "tempo": 120.0
            },
            {
                "start_time": 3.977272727272727,
                "end_time": 4.043181818181818,
                "pitch": 36,
                "velocity": 64,
                "duration": 0.06590909090909092,
                "tempo": 120.0
            },
            {
                "start_time": 1.75,
                "end_time": 4.093181818181818,
                "pitch": 40,
                "velocity": 64,
                "duration": 2.343181818181818,
                "tempo": 120.0
            },
            {
                "start_time": 4.093181818181818,
                "end_time": 4.236363636363636,
                "pitch": 33,
                "velocity": 64,
                "duration": 0.14318181818181852,
                "tempo": 120.0
            },
            {
                "start_time": 2.5727272727272728,
                "end_time": 4.390909090909091,
                "pitch": 35,
                "velocity": 64,
                "duration": 1.818181818181818,
                "tempo": 120.0
            },
            {
                "start_time": 4.325,
                "end_time": 4.390909090909091,
                "pitch": 35,
                "velocity": 64,
                "duration": 0.06590909090909047,
                "tempo": 120.0
            },
            {
                "start_time": 3.977272727272727,
                "end_time": 4.4409090909090905,
                "pitch": 7,
                "velocity": 64,
                "duration": 0.4636363636363634,
                "tempo": 120.0
            },
            {
                "start_time": 4.4409090909090905,
                "end_time": 4.506818181818182,
                "pitch": 29,
                "velocity": 64,
                "duration": 0.06590909090909136,
                "tempo": 120.0
            },
            {
                "start_time": 3.268181818181818,
                "end_time": 4.556818181818182,
                "pitch": 42,
                "velocity": 64,
                "duration": 1.2886363636363636,
                "tempo": 120.0
            },
            {
                "start_time": 4.325,
                "end_time": 4.625,
                "pitch": 33,
                "velocity": 64,
                "duration": 0.2999999999999998,
                "tempo": 120.0
            },
            {
                "start_time": 4.556818181818182,
                "end_time": 4.625,
                "pitch": 33,
                "velocity": 64,
                "duration": 0.06818181818181834,
                "tempo": 120.0
            },
            {
                "start_time": 4.672727272727273,
                "end_time": 4.74090909090909,
                "pitch": 33,
                "velocity": 64,
                "duration": 0.06818181818181746,
                "tempo": 120.0
            },
            {
                "start_time": 4.556818181818182,
                "end_time": 4.904545454545454,
                "pitch": 42,
                "velocity": 64,
                "duration": 0.34772727272727266,
                "tempo": 120.0
            },
            {
                "start_time": 4.904545454545454,
                "end_time": 4.972727272727273,
                "pitch": 33,
                "velocity": 64,
                "duration": 0.06818181818181834,
                "tempo": 120.0
            },
            {
                "start_time": 4.904545454545454,
                "end_time": 5.143181818181818,
                "pitch": 42,
                "velocity": 64,
                "duration": 0.2386363636363633,
                "tempo": 120.0
            },
            {
                "start_time": 5.143181818181818,
                "end_time": 5.211363636363636,
                "pitch": 33,
                "velocity": 64,
                "duration": 0.06818181818181834,
                "tempo": 120.0
            },
            {
                "start_time": 4.4409090909090905,
                "end_time": 5.261363636363636,
                "pitch": 7,
                "velocity": 64,
                "duration": 0.8204545454545453,
                "tempo": 120.0
            },
            {
                "start_time": 5.261363636363636,
                "end_time": 5.329545454545454,
                "pitch": 38,
                "velocity": 64,
                "duration": 0.06818181818181834,
                "tempo": 120.0
            },
            {
                "start_time": 5.379545454545454,
                "end_time": 5.447727272727272,
                "pitch": 36,
                "velocity": 64,
                "duration": 0.06818181818181834,
                "tempo": 120.0
            },
            {
                "start_time": 4.093181818181818,
                "end_time": 5.497727272727272,
                "pitch": 40,
                "velocity": 64,
                "duration": 1.4045454545454543,
                "tempo": 120.0
            },
            {
                "start_time": 5.497727272727272,
                "end_time": 5.5636363636363635,
                "pitch": 33,
                "velocity": 64,
                "duration": 0.06590909090909136,
                "tempo": 120.0
            },
            {
                "start_time": 5.613636363636363,
                "end_time": 5.679545454545455,
                "pitch": 33,
                "velocity": 64,
                "duration": 0.06590909090909136,
                "tempo": 120.0
            },
            {
                "start_time": 5.7295454545454545,
                "end_time": 5.795454545454545,
                "pitch": 33,
                "velocity": 64,
                "duration": 0.06590909090909047,
                "tempo": 120.0
            },
            {
                "start_time": 5.261363636363636,
                "end_time": 5.845454545454545,
                "pitch": 7,
                "velocity": 64,
                "duration": 0.584090909090909,
                "tempo": 120.0
            },
            {
                "start_time": 5.379545454545454,
                "end_time": 5.911363636363636,
                "pitch": 38,
                "velocity": 64,
                "duration": 0.5318181818181822,
                "tempo": 120.0
            },
            {
                "start_time": 5.845454545454545,
                "end_time": 5.911363636363636,
                "pitch": 38,
                "velocity": 64,
                "duration": 0.06590909090909136,
                "tempo": 120.0
            },
            {
                "start_time": 2.225,
                "end_time": 5.961363636363636,
                "pitch": 41,
                "velocity": 64,
                "duration": 3.736363636363636,
                "tempo": 120.0
            },
            {
                "start_time": 5.961363636363636,
                "end_time": 6.1068181818181815,
                "pitch": 33,
                "velocity": 64,
                "duration": 0.1454545454545455,
                "tempo": 120.0
            },
            {
                "start_time": 6.1931818181818175,
                "end_time": 6.261363636363636,
                "pitch": 35,
                "velocity": 64,
                "duration": 0.06818181818181834,
                "tempo": 120.0
            },
            {
                "start_time": 6.1931818181818175,
                "end_time": 6.377272727272727,
                "pitch": 33,
                "velocity": 64,
                "duration": 0.18409090909090953,
                "tempo": 120.0
            },
            {
                "start_time": 6.309090909090909,
                "end_time": 6.377272727272727,
                "pitch": 33,
                "velocity": 64,
                "duration": 0.06818181818181834,
                "tempo": 120.0
            },
            {
                "start_time": 6.427272727272727,
                "end_time": 6.497727272727272,
                "pitch": 33,
                "velocity": 64,
                "duration": 0.07045454545454533,
                "tempo": 120.0
            },
            {
                "start_time": 5.845454545454545,
                "end_time": 6.547727272727273,
                "pitch": 7,
                "velocity": 64,
                "duration": 0.702272727272728,
                "tempo": 120.0
            },
            {
                "start_time": 6.547727272727273,
                "end_time": 6.61590909090909,
                "pitch": 36,
                "velocity": 64,
                "duration": 0.06818181818181746,
                "tempo": 120.0
            },
            {
                "start_time": 5.497727272727272,
                "end_time": 6.665909090909091,
                "pitch": 40,
                "velocity": 64,
                "duration": 1.1681818181818189,
                "tempo": 120.0
            },
            {
                "start_time": 6.309090909090909,
                "end_time": 6.7340909090909085,
                "pitch": 35,
                "velocity": 64,
                "duration": 0.4249999999999998,
                "tempo": 120.0
            },
            {
                "start_time": 6.665909090909091,
                "end_time": 6.7340909090909085,
                "pitch": 35,
                "velocity": 64,
                "duration": 0.06818181818181746,
                "tempo": 120.0
            },
            {
                "start_time": 6.784090909090909,
                "end_time": 6.852272727272727,
                "pitch": 33,
                "velocity": 64,
                "duration": 0.06818181818181746,
                "tempo": 120.0
            },
            {
                "start_time": 3.7386363636363633,
                "end_time": 6.968181818181818,
                "pitch": 31,
                "velocity": 64,
                "duration": 3.2295454545454545,
                "tempo": 120.0
            },
            {
                "start_time": 6.8999999999999995,
                "end_time": 6.968181818181818,
                "pitch": 31,
                "velocity": 64,
                "duration": 0.06818181818181834,
                "tempo": 120.0
            },
            {
                "start_time": 6.8999999999999995,
                "end_time": 7.084090909090909,
                "pitch": 33,
                "velocity": 64,
                "duration": 0.18409090909090953,
                "tempo": 120.0
            },
            {
                "start_time": 7.018181818181818,
                "end_time": 7.084090909090909,
                "pitch": 33,
                "velocity": 64,
                "duration": 0.06590909090909136,
                "tempo": 120.0
            },
            {
                "start_time": 7.131818181818182,
                "end_time": 7.134090909090909,
                "pitch": 33,
                "velocity": 64,
                "duration": 0.002272727272726982,
                "tempo": 120.0
            },
            {
                "start_time": 7.018181818181818,
                "end_time": 7.199999999999999,
                "pitch": 31,
                "velocity": 64,
                "duration": 0.18181818181818166,
                "tempo": 120.0
            },
            {
                "start_time": 7.134090909090909,
                "end_time": 7.199999999999999,
                "pitch": 31,
                "velocity": 64,
                "duration": 0.06590909090909047,
                "tempo": 120.0
            },
            {
                "start_time": 7.25,
                "end_time": 7.3159090909090905,
                "pitch": 29,
                "velocity": 64,
                "duration": 0.06590909090909047,
                "tempo": 120.0
            },
            {
                "start_time": 7.36590909090909,
                "end_time": 7.431818181818182,
                "pitch": 26,
                "velocity": 64,
                "duration": 0.06590909090909136,
                "tempo": 120.0
            },
            {
                "start_time": 7.4840909090909085,
                "end_time": 7.66590909090909,
                "pitch": 38,
                "velocity": 51,
                "duration": 0.18181818181818166,
                "tempo": 120.0
            },
            {
                "start_time": 6.665909090909091,
                "end_time": 7.66590909090909,
                "pitch": 40,
                "velocity": 64,
                "duration": 0.9999999999999991,
                "tempo": 120.0
            },
            {
                "start_time": 7.66590909090909,
                "end_time": 7.781818181818181,
                "pitch": 40,
                "velocity": 51,
                "duration": 0.11590909090909118,
                "tempo": 120.0
            },
            {
                "start_time": 7.713636363636363,
                "end_time": 7.781818181818181,
                "pitch": 40,
                "velocity": 51,
                "duration": 0.06818181818181834,
                "tempo": 120.0
            },
            {
                "start_time": 7.831818181818181,
                "end_time": 7.9022727272727264,
                "pitch": 40,
                "velocity": 51,
                "duration": 0.07045454545454533,
                "tempo": 120.0
            },
            {
                "start_time": 8.070454545454545,
                "end_time": 8.138636363636364,
                "pitch": 40,
                "velocity": 51,
                "duration": 0.06818181818181834,
                "tempo": 120.0
            },
            {
                "start_time": 8.188636363636363,
                "end_time": 8.256818181818181,
                "pitch": 40,
                "velocity": 51,
                "duration": 0.06818181818181834,
                "tempo": 120.0
            },
            {
                "start_time": 5.961363636363636,
                "end_time": 8.372727272727273,
                "pitch": 41,
                "velocity": 64,
                "duration": 2.411363636363637,
                "tempo": 120.0
            },
            {
                "start_time": 8.306818181818182,
                "end_time": 8.372727272727273,
                "pitch": 41,
                "velocity": 51,
                "duration": 0.06590909090909136,
                "tempo": 120.0
            },
            {
                "start_time": 8.422727272727272,
                "end_time": 8.488636363636363,
                "pitch": 40,
                "velocity": 51,
                "duration": 0.06590909090909136,
                "tempo": 120.0
            },
            {
                "start_time": 8.538636363636364,
                "end_time": 8.604545454545454,
                "pitch": 40,
                "velocity": 51,
                "duration": 0.06590909090908958,
                "tempo": 120.0
            },
            {
                "start_time": 8.654545454545454,
                "end_time": 8.720454545454546,
                "pitch": 40,
                "velocity": 51,
                "duration": 0.06590909090909136,
                "tempo": 120.0
            },
            {
                "start_time": 8.770454545454545,
                "end_time": 8.836363636363636,
                "pitch": 40,
                "velocity": 51,
                "duration": 0.06590909090909136,
                "tempo": 120.0
            },
            {
                "start_time": 9.002272727272727,
                "end_time": 9.070454545454545,
                "pitch": 40,
                "velocity": 51,
                "duration": 0.06818181818181834,
                "tempo": 120.0
            },
            {
                "start_time": 5.143181818181818,
                "end_time": 9.118181818181817,
                "pitch": 42,
                "velocity": 64,
                "duration": 3.9749999999999996,
                "tempo": 120.0
            },
            {
                "start_time": 6.784090909090909,
                "end_time": 9.186363636363636,
                "pitch": 35,
                "velocity": 64,
                "duration": 2.4022727272727264,
                "tempo": 120.0
            },
            {
                "start_time": 9.118181818181817,
                "end_time": 9.186363636363636,
                "pitch": 35,
                "velocity": 51,
                "duration": 0.06818181818181834,
                "tempo": 120.0
            },
            {
                "start_time": 9.238636363636363,
                "end_time": 9.306818181818182,
                "pitch": 40,
                "velocity": 51,
                "duration": 0.06818181818181834,
                "tempo": 120.0
            },
            {
                "start_time": 9.35681818181818,
                "end_time": 9.543181818181818,
                "pitch": 38,
                "velocity": 51,
                "duration": 0.1863636363636374,
                "tempo": 120.0
            },
            {
                "start_time": 9.35681818181818,
                "end_time": 9.543181818181818,
                "pitch": 40,
                "velocity": 51,
                "duration": 0.1863636363636374,
                "tempo": 120.0
            },
            {
                "start_time": 9.543181818181818,
                "end_time": 9.661363636363635,
                "pitch": 40,
                "velocity": 51,
                "duration": 0.11818181818181728,
                "tempo": 120.0
            },
            {
                "start_time": 9.593181818181817,
                "end_time": 9.661363636363635,
                "pitch": 40,
                "velocity": 51,
                "duration": 0.06818181818181834,
                "tempo": 120.0
            },
            {
                "start_time": 9.709090909090909,
                "end_time": 9.777272727272727,
                "pitch": 40,
                "velocity": 51,
                "duration": 0.06818181818181834,
                "tempo": 120.0
            },
            {
                "start_time": 9.943181818181818,
                "end_time": 10.009090909090908,
                "pitch": 40,
                "velocity": 51,
                "duration": 0.06590909090908958,
                "tempo": 120.0
            },
            {
                "start_time": 10.059090909090909,
                "end_time": 10.125,
                "pitch": 40,
                "velocity": 51,
                "duration": 0.06590909090909136,
                "tempo": 120.0
            },
            {
                "start_time": 10.174999999999999,
                "end_time": 10.24090909090909,
                "pitch": 41,
                "velocity": 51,
                "duration": 0.06590909090909136,
                "tempo": 120.0
            },
            {
                "start_time": 10.290909090909091,
                "end_time": 10.35681818181818,
                "pitch": 40,
                "velocity": 51,
                "duration": 0.06590909090908958,
                "tempo": 120.0
            },
            {
                "start_time": 10.406818181818181,
                "end_time": 10.475,
                "pitch": 40,
                "velocity": 51,
                "duration": 0.06818181818181834,
                "tempo": 120.0
            },
            {
                "start_time": 10.522727272727272,
                "end_time": 10.59090909090909,
                "pitch": 40,
                "velocity": 51,
                "duration": 0.06818181818181834,
                "tempo": 120.0
            },
            {
                "start_time": 10.64090909090909,
                "end_time": 10.711363636363636,
                "pitch": 40,
                "velocity": 51,
                "duration": 0.07045454545454533,
                "tempo": 120.0
            },
            {
                "start_time": 10.879545454545454,
                "end_time": 10.947727272727272,
                "pitch": 40,
                "velocity": 51,
                "duration": 0.06818181818181834,
                "tempo": 120.0
            },
            {
                "start_time": 9.118181818181817,
                "end_time": 10.997727272727273,
                "pitch": 42,
                "velocity": 51,
                "duration": 1.8795454545454557,
                "tempo": 120.0
            },
            {
                "start_time": 10.997727272727273,
                "end_time": 11.06590909090909,
                "pitch": 35,
                "velocity": 51,
                "duration": 0.06818181818181657,
                "tempo": 120.0
            },
            {
                "start_time": 9.238636363636363,
                "end_time": 11.113636363636363,
                "pitch": 19,
                "velocity": 51,
                "duration": 1.875,
                "tempo": 120.0
            },
            {
                "start_time": 11.113636363636363,
                "end_time": 11.181818181818182,
                "pitch": 40,
                "velocity": 51,
                "duration": 0.06818181818181834,
                "tempo": 120.0
            },
            {
                "start_time": 11.23181818181818,
                "end_time": 11.413636363636362,
                "pitch": 38,
                "velocity": 51,
                "duration": 0.18181818181818166,
                "tempo": 120.0
            },
            {
                "start_time": 11.23181818181818,
                "end_time": 11.413636363636362,
                "pitch": 40,
                "velocity": 51,
                "duration": 0.18181818181818166,
                "tempo": 120.0
            },
            {
                "start_time": 11.413636363636362,
                "end_time": 11.529545454545454,
                "pitch": 40,
                "velocity": 51,
                "duration": 0.11590909090909207,
                "tempo": 120.0
            },
            {
                "start_time": 11.463636363636363,
                "end_time": 11.529545454545454,
                "pitch": 40,
                "velocity": 51,
                "duration": 0.06590909090909136,
                "tempo": 120.0
            },
            {
                "start_time": 11.579545454545453,
                "end_time": 11.645454545454545,
                "pitch": 40,
                "velocity": 51,
                "duration": 0.06590909090909136,
                "tempo": 120.0
            },
            {
                "start_time": 11.811363636363636,
                "end_time": 11.877272727272727,
                "pitch": 40,
                "velocity": 51,
                "duration": 0.06590909090909136,
                "tempo": 120.0
            },
            {
                "start_time": 11.927272727272726,
                "end_time": 11.995454545454544,
                "pitch": 40,
                "velocity": 51,
                "duration": 0.06818181818181834,
                "tempo": 120.0
            },
            {
                "start_time": 12.043181818181818,
                "end_time": 12.111363636363636,
                "pitch": 41,
                "velocity": 51,
                "duration": 0.06818181818181834,
                "tempo": 120.0
            },
            {
                "start_time": 12.161363636363635,
                "end_time": 12.227272727272727,
                "pitch": 40,
                "velocity": 51,
                "duration": 0.06590909090909136,
                "tempo": 120.0
            },
            {
                "start_time": 12.277272727272727,
                "end_time": 12.343181818181817,
                "pitch": 40,
                "velocity": 51,
                "duration": 0.06590909090908958,
                "tempo": 120.0
            },
            {
                "start_time": 12.393181818181818,
                "end_time": 12.461363636363636,
                "pitch": 40,
                "velocity": 51,
                "duration": 0.06818181818181834,
                "tempo": 120.0
            },
            {
                "start_time": 12.509090909090908,
                "end_time": 12.579545454545453,
                "pitch": 40,
                "velocity": 51,
                "duration": 0.07045454545454533,
                "tempo": 120.0
            },
            {
                "start_time": 12.747727272727271,
                "end_time": 12.818181818181818,
                "pitch": 40,
                "velocity": 51,
                "duration": 0.0704545454545471,
                "tempo": 120.0
            },
            {
                "start_time": 10.997727272727273,
                "end_time": 12.86590909090909,
                "pitch": 42,
                "velocity": 51,
                "duration": 1.8681818181818173,
                "tempo": 120.0
            },
            {
                "start_time": 12.86590909090909,
                "end_time": 12.934090909090909,
                "pitch": 35,
                "velocity": 51,
                "duration": 0.06818181818181834,
                "tempo": 120.0
            },
            {
                "start_time": 11.113636363636363,
                "end_time": 12.984090909090908,
                "pitch": 19,
                "velocity": 51,
                "duration": 1.8704545454545443,
                "tempo": 120.0
            },
            {
                "start_time": 12.984090909090908,
                "end_time": 13.049999999999999,
                "pitch": 40,
                "velocity": 51,
                "duration": 0.06590909090909136,
                "tempo": 120.0
            },
            {
                "start_time": 13.1,
                "end_time": 13.281818181818181,
                "pitch": 38,
                "velocity": 51,
                "duration": 0.18181818181818166,
                "tempo": 120.0
            },
            {
                "start_time": 13.1,
                "end_time": 13.281818181818181,
                "pitch": 40,
                "velocity": 51,
                "duration": 0.18181818181818166,
                "tempo": 120.0
            },
            {
                "start_time": 13.281818181818181,
                "end_time": 13.399999999999999,
                "pitch": 40,
                "velocity": 51,
                "duration": 0.11818181818181728,
                "tempo": 120.0
            },
            {
                "start_time": 13.331818181818182,
                "end_time": 13.399999999999999,
                "pitch": 40,
                "velocity": 51,
                "duration": 0.06818181818181657,
                "tempo": 120.0
            },
            {
                "start_time": 13.447727272727272,
                "end_time": 13.51590909090909,
                "pitch": 40,
                "velocity": 51,
                "duration": 0.06818181818181834,
                "tempo": 120.0
            },
            {
                "start_time": 13.679545454545455,
                "end_time": 13.747727272727271,
                "pitch": 40,
                "velocity": 51,
                "duration": 0.06818181818181657,
                "tempo": 120.0
            },
            {
                "start_time": 13.795454545454545,
                "end_time": 13.86590909090909,
                "pitch": 40,
                "velocity": 51,
                "duration": 0.07045454545454533,
                "tempo": 120.0
            },
            {
                "start_time": 13.915909090909091,
                "end_time": 13.984090909090908,
                "pitch": 41,
                "velocity": 51,
                "duration": 0.06818181818181657,
                "tempo": 120.0
            },
            {
                "start_time": 14.034090909090908,
                "end_time": 14.102272727272727,
                "pitch": 28,
                "velocity": 51,
                "duration": 0.06818181818181834,
                "tempo": 120.0
            },
            {
                "start_time": 14.152272727272727,
                "end_time": 14.220454545454544,
                "pitch": 40,
                "velocity": 51,
                "duration": 0.06818181818181657,
                "tempo": 120.0
            },
            {
                "start_time": 14.272727272727272,
                "end_time": 14.338636363636363,
                "pitch": 38,
                "velocity": 51,
                "duration": 0.06590909090909136,
                "tempo": 120.0
            },
            {
                "start_time": 14.388636363636364,
                "end_time": 14.454545454545453,
                "pitch": 36,
                "velocity": 51,
                "duration": 0.06590909090908958,
                "tempo": 120.0
            },
            {
                "start_time": 14.388636363636364,
                "end_time": 14.570454545454545,
                "pitch": 38,
                "velocity": 51,
                "duration": 0.18181818181818166,
                "tempo": 120.0
            },
            {
                "start_time": 14.504545454545454,
                "end_time": 14.570454545454545,
                "pitch": 38,
                "velocity": 51,
                "duration": 0.06590909090909136,
                "tempo": 120.0
            },
            {
                "start_time": 14.504545454545454,
                "end_time": 14.686363636363636,
                "pitch": 36,
                "velocity": 51,
                "duration": 0.18181818181818166,
                "tempo": 120.0
            },
            {
                "start_time": 14.620454545454544,
                "end_time": 14.686363636363636,
                "pitch": 36,
                "velocity": 51,
                "duration": 0.06590909090909136,
                "tempo": 120.0
            },
            {
                "start_time": 14.272727272727272,
                "end_time": 14.736363636363636,
                "pitch": 40,
                "velocity": 51,
                "duration": 0.46363636363636473,
                "tempo": 120.0
            },
            {
                "start_time": 14.736363636363636,
                "end_time": 14.804545454545455,
                "pitch": 35,
                "velocity": 51,
                "duration": 0.06818181818181834,
                "tempo": 120.0
            },
            {
                "start_time": 14.852272727272727,
                "end_time": 14.920454545454545,
                "pitch": 31,
                "velocity": 51,
                "duration": 0.06818181818181834,
                "tempo": 120.0
            },
            {
                "start_time": 14.970454545454544,
                "end_time": 15.036363636363635,
                "pitch": 33,
                "velocity": 64,
                "duration": 0.06590909090909136,
                "tempo": 120.0
            },
            {
                "start_time": 15.084090909090909,
                "end_time": 15.152272727272727,
                "pitch": 33,
                "velocity": 64,
                "duration": 0.06818181818181834,
                "tempo": 120.0
            },
            {
                "start_time": 6.547727272727273,
                "end_time": 15.202272727272726,
                "pitch": 7,
                "velocity": 64,
                "duration": 8.654545454545453,
                "tempo": 120.0
            },
            {
                "start_time": 15.202272727272726,
                "end_time": 15.270454545454545,
                "pitch": 36,
                "velocity": 64,
                "duration": 0.06818181818181834,
                "tempo": 120.0
            },
            {
                "start_time": 14.736363636363636,
                "end_time": 15.320454545454545,
                "pitch": 40,
                "velocity": 51,
                "duration": 0.584090909090909,
                "tempo": 120.0
            },
            {
                "start_time": 15.320454545454545,
                "end_time": 15.468181818181817,
                "pitch": 33,
                "velocity": 64,
                "duration": 0.1477272727272716,
                "tempo": 120.0
            },
            {
                "start_time": 14.852272727272727,
                "end_time": 15.625,
                "pitch": 35,
                "velocity": 51,
                "duration": 0.7727272727272734,
                "tempo": 120.0
            },
            {
                "start_time": 15.556818181818182,
                "end_time": 15.625,
                "pitch": 35,
                "velocity": 64,
                "duration": 0.06818181818181834,
                "tempo": 120.0
            },
            {
                "start_time": 15.202272727272726,
                "end_time": 15.674999999999999,
                "pitch": 7,
                "velocity": 64,
                "duration": 0.47272727272727266,
                "tempo": 120.0
            },
            {
                "start_time": 7.36590909090909,
                "end_time": 15.743181818181817,
                "pitch": 29,
                "velocity": 64,
                "duration": 8.377272727272727,
                "tempo": 120.0
            },
            {
                "start_time": 15.674999999999999,
                "end_time": 15.743181818181817,
                "pitch": 29,
                "velocity": 64,
                "duration": 0.06818181818181834,
                "tempo": 120.0
            },
            {
                "start_time": 12.86590909090909,
                "end_time": 15.793181818181818,
                "pitch": 42,
                "velocity": 51,
                "duration": 2.9272727272727277,
                "tempo": 120.0
            },
            {
                "start_time": 15.556818181818182,
                "end_time": 15.859090909090908,
                "pitch": 33,
                "velocity": 64,
                "duration": 0.3022727272727259,
                "tempo": 120.0
            },
            {
                "start_time": 15.793181818181818,
                "end_time": 15.859090909090908,
                "pitch": 33,
                "velocity": 64,
                "duration": 0.06590909090908958,
                "tempo": 120.0
            },
            {
                "start_time": 15.909090909090908,
                "end_time": 15.975,
                "pitch": 33,
                "velocity": 64,
                "duration": 0.06590909090909136,
                "tempo": 120.0
            },
            {
                "start_time": 15.793181818181818,
                "end_time": 16.14090909090909,
                "pitch": 42,
                "velocity": 64,
                "duration": 0.34772727272727266,
                "tempo": 120.0
            },
            {
                "start_time": 16.14090909090909,
                "end_time": 16.206818181818182,
                "pitch": 33,
                "velocity": 64,
                "duration": 0.06590909090909136,
                "tempo": 120.0
            },
            {
                "start_time": 16.14090909090909,
                "end_time": 16.37272727272727,
                "pitch": 42,
                "velocity": 64,
                "duration": 0.2318181818181806,
                "tempo": 120.0
            },
            {
                "start_time": 16.37272727272727,
                "end_time": 16.44090909090909,
                "pitch": 33,
                "velocity": 64,
                "duration": 0.06818181818182012,
                "tempo": 120.0
            },
            {
                "start_time": 15.674999999999999,
                "end_time": 16.488636363636363,
                "pitch": 7,
                "velocity": 64,
                "duration": 0.8136363636363644,
                "tempo": 120.0
            },
            {
                "start_time": 14.620454545454544,
                "end_time": 16.55681818181818,
                "pitch": 38,
                "velocity": 51,
                "duration": 1.9363636363636356,
                "tempo": 120.0
            },
            {
                "start_time": 16.488636363636363,
                "end_time": 16.55681818181818,
                "pitch": 38,
                "velocity": 64,
                "duration": 0.06818181818181657,
                "tempo": 120.0
            },
            {
                "start_time": 16.604545454545455,
                "end_time": 16.672727272727272,
                "pitch": 36,
                "velocity": 64,
                "duration": 0.06818181818181657,
                "tempo": 120.0
            },
            {
                "start_time": 15.320454545454545,
                "end_time": 16.720454545454544,
                "pitch": 40,
                "velocity": 64,
                "duration": 1.3999999999999986,
                "tempo": 120.0
            },
            {
                "start_time": 16.720454545454544,
                "end_time": 16.788636363636364,
                "pitch": 33,
                "velocity": 64,
                "duration": 0.06818181818182012,
                "tempo": 120.0
            },
            {
                "start_time": 16.83863636363636,
                "end_time": 16.904545454545453,
                "pitch": 33,
                "velocity": 64,
                "duration": 0.06590909090909136,
                "tempo": 120.0
            },
            {
                "start_time": 16.954545454545453,
                "end_time": 17.020454545454545,
                "pitch": 33,
                "velocity": 64,
                "duration": 0.06590909090909136,
                "tempo": 120.0
            },
            {
                "start_time": 16.488636363636363,
                "end_time": 17.070454545454545,
                "pitch": 7,
                "velocity": 64,
                "duration": 0.581818181818182,
                "tempo": 120.0
            },
            {
                "start_time": 16.604545454545455,
                "end_time": 17.138636363636362,
                "pitch": 38,
                "velocity": 64,
                "duration": 0.5340909090909065,
                "tempo": 120.0
            },
            {
                "start_time": 17.070454545454545,
                "end_time": 17.138636363636362,
                "pitch": 38,
                "velocity": 64,
                "duration": 0.06818181818181657,
                "tempo": 120.0
            },
            {
                "start_time": 17.188636363636363,
                "end_time": 17.336363636363636,
                "pitch": 33,
                "velocity": 64,
                "duration": 0.14772727272727337,
                "tempo": 120.0
            },
            {
                "start_time": 17.425,
                "end_time": 17.495454545454546,
                "pitch": 35,
                "velocity": 64,
                "duration": 0.07045454545454533,
                "tempo": 120.0
            },
            {
                "start_time": 17.425,
                "end_time": 17.613636363636363,
                "pitch": 33,
                "velocity": 64,
                "duration": 0.1886363636363626,
                "tempo": 120.0
            },
            {
                "start_time": 17.545454545454543,
                "end_time": 17.613636363636363,
                "pitch": 33,
                "velocity": 64,
                "duration": 0.06818181818182012,
                "tempo": 120.0
            },
            {
                "start_time": 17.661363636363635,
                "end_time": 17.729545454545455,
                "pitch": 33,
                "velocity": 64,
                "duration": 0.06818181818182012,
                "tempo": 120.0
            },
            {
                "start_time": 17.893181818181816,
                "end_time": 17.961363636363636,
                "pitch": 29,
                "velocity": 64,
                "duration": 0.06818181818182012,
                "tempo": 120.0
            },
            {
                "start_time": 18.009090909090908,
                "end_time": 18.077272727272728,
                "pitch": 29,
                "velocity": 64,
                "duration": 0.06818181818182012,
                "tempo": 120.0
            },
            {
                "start_time": 18.125,
                "end_time": 18.193181818181817,
                "pitch": 29,
                "velocity": 64,
                "duration": 0.06818181818181657,
                "tempo": 120.0
            },
            {
                "start_time": 16.37272727272727,
                "end_time": 18.24090909090909,
                "pitch": 42,
                "velocity": 64,
                "duration": 1.8681818181818173,
                "tempo": 120.0
            },
            {
                "start_time": 14.970454545454544,
                "end_time": 18.30909090909091,
                "pitch": 31,
                "velocity": 64,
                "duration": 3.3386363636363647,
                "tempo": 120.0
            },
            {
                "start_time": 18.24090909090909,
                "end_time": 18.30909090909091,
                "pitch": 31,
                "velocity": 64,
                "duration": 0.06818181818182012,
                "tempo": 120.0
            },
            {
                "start_time": 18.35909090909091,
                "end_time": 18.425,
                "pitch": 31,
                "velocity": 64,
                "duration": 0.06590909090909136,
                "tempo": 120.0
            },
            {
                "start_time": 18.472727272727273,
                "end_time": 18.543181818181818,
                "pitch": 31,
                "velocity": 64,
                "duration": 0.07045454545454533,
                "tempo": 120.0
            },
            {
                "start_time": 18.59318181818182,
                "end_time": 18.661363636363635,
                "pitch": 31,
                "velocity": 64,
                "duration": 0.06818181818181657,
                "tempo": 120.0
            },
            {
                "start_time": 18.71363636363636,
                "end_time": 18.779545454545453,
                "pitch": 33,
                "velocity": 64,
                "duration": 0.06590909090909136,
                "tempo": 120.0
            },
            {
                "start_time": 18.829545454545453,
                "end_time": 18.9,
                "pitch": 33,
                "velocity": 64,
                "duration": 0.07045454545454533,
                "tempo": 120.0
            },
            {
                "start_time": 17.070454545454545,
                "end_time": 18.95,
                "pitch": 7,
                "velocity": 64,
                "duration": 1.879545454545454,
                "tempo": 120.0
            },
            {
                "start_time": 18.95,
                "end_time": 19.018181818181816,
                "pitch": 36,
                "velocity": 64,
                "duration": 0.06818181818181657,
                "tempo": 120.0
            },
            {
                "start_time": 16.720454545454544,
                "end_time": 19.06590909090909,
                "pitch": 40,
                "velocity": 64,
                "duration": 2.3454545454545475,
                "tempo": 120.0
            },
            {
                "start_time": 19.06590909090909,
                "end_time": 19.211363636363636,
                "pitch": 33,
                "velocity": 64,
                "duration": 0.14545454545454461,
                "tempo": 120.0
            },
            {
                "start_time": 17.545454545454543,
                "end_time": 19.36590909090909,
                "pitch": 35,
                "velocity": 64,
                "duration": 1.8204545454545453,
                "tempo": 120.0
            },
            {
                "start_time": 19.297727272727272,
                "end_time": 19.36590909090909,
                "pitch": 35,
                "velocity": 64,
                "duration": 0.06818181818181657,
                "tempo": 120.0
            },
            {
                "start_time": 18.95,
                "end_time": 19.413636363636364,
                "pitch": 7,
                "velocity": 64,
                "duration": 0.46363636363636473,
                "tempo": 120.0
            },
            {
                "start_time": 19.413636363636364,
                "end_time": 19.48181818181818,
                "pitch": 29,
                "velocity": 64,
                "duration": 0.06818181818181657,
                "tempo": 120.0
            },
            {
                "start_time": 18.24090909090909,
                "end_time": 19.529545454545453,
                "pitch": 42,
                "velocity": 64,
                "duration": 1.288636363636364,
                "tempo": 120.0
            },
            {
                "start_time": 19.297727272727272,
                "end_time": 19.597727272727273,
                "pitch": 33,
                "velocity": 64,
                "duration": 0.3000000000000007,
                "tempo": 120.0
            },
            {
                "start_time": 19.529545454545453,
                "end_time": 19.597727272727273,
                "pitch": 33,
                "velocity": 64,
                "duration": 0.06818181818182012,
                "tempo": 120.0
            },
            {
                "start_time": 19.647727272727273,
                "end_time": 19.71363636363636,
                "pitch": 33,
                "velocity": 64,
                "duration": 0.06590909090908781,
                "tempo": 120.0
            },
            {
                "start_time": 19.529545454545453,
                "end_time": 19.879545454545454,
                "pitch": 42,
                "velocity": 64,
                "duration": 0.3500000000000014,
                "tempo": 120.0
            },
            {
                "start_time": 19.879545454545454,
                "end_time": 19.94772727272727,
                "pitch": 33,
                "velocity": 64,
                "duration": 0.06818181818181657,
                "tempo": 120.0
            },
            {
                "start_time": 19.879545454545454,
                "end_time": 20.11590909090909,
                "pitch": 42,
                "velocity": 64,
                "duration": 0.23636363636363455,
                "tempo": 120.0
            },
            {
                "start_time": 20.11590909090909,
                "end_time": 20.186363636363634,
                "pitch": 33,
                "velocity": 64,
                "duration": 0.07045454545454533,
                "tempo": 120.0
            },
            {
                "start_time": 19.413636363636364,
                "end_time": 20.23409090909091,
                "pitch": 7,
                "velocity": 64,
                "duration": 0.8204545454545453,
                "tempo": 120.0
            },
            {
                "start_time": 20.23409090909091,
                "end_time": 20.304545454545455,
                "pitch": 38,
                "velocity": 64,
                "duration": 0.07045454545454533,
                "tempo": 120.0
            },
            {
                "start_time": 20.354545454545452,
                "end_time": 20.422727272727272,
                "pitch": 36,
                "velocity": 64,
                "duration": 0.06818181818182012,
                "tempo": 120.0
            },
            {
                "start_time": 19.06590909090909,
                "end_time": 20.470454545454544,
                "pitch": 40,
                "velocity": 64,
                "duration": 1.4045454545454525,
                "tempo": 120.0
            },
            {
                "start_time": 20.470454545454544,
                "end_time": 20.536363636363635,
                "pitch": 33,
                "velocity": 64,
                "duration": 0.06590909090909136,
                "tempo": 120.0
            },
            {
                "start_time": 20.586363636363636,
                "end_time": 20.654545454545453,
                "pitch": 33,
                "velocity": 64,
                "duration": 0.06818181818181657,
                "tempo": 120.0
            },
            {
                "start_time": 20.702272727272724,
                "end_time": 20.770454545454545,
                "pitch": 33,
                "velocity": 64,
                "duration": 0.06818181818182012,
                "tempo": 120.0
            },
            {
                "start_time": 20.23409090909091,
                "end_time": 20.818181818181817,
                "pitch": 7,
                "velocity": 64,
                "duration": 0.5840909090909072,
                "tempo": 120.0
            },
            {
                "start_time": 20.354545454545452,
                "end_time": 20.886363636363637,
                "pitch": 38,
                "velocity": 64,
                "duration": 0.5318181818181849,
                "tempo": 120.0
            },
            {
                "start_time": 20.818181818181817,
                "end_time": 20.886363636363637,
                "pitch": 38,
                "velocity": 64,
                "duration": 0.06818181818182012,
                "tempo": 120.0
            },
            {
                "start_time": 17.188636363636363,
                "end_time": 20.936363636363634,
                "pitch": 41,
                "velocity": 64,
                "duration": 3.7477272727272712,
                "tempo": 120.0
            },
            {
                "start_time": 20.936363636363634,
                "end_time": 21.079545454545453,
                "pitch": 33,
                "velocity": 64,
                "duration": 0.1431818181818194,
                "tempo": 120.0
            },
            {
                "start_time": 21.16590909090909,
                "end_time": 21.23409090909091,
                "pitch": 35,
                "velocity": 64,
                "duration": 0.06818181818182012,
                "tempo": 120.0
            },
            {
                "start_time": 21.16590909090909,
                "end_time": 21.349999999999998,
                "pitch": 33,
                "velocity": 64,
                "duration": 0.18409090909090864,
                "tempo": 120.0
            },
            {
                "start_time": 21.284090909090907,
                "end_time": 21.349999999999998,
                "pitch": 33,
                "velocity": 64,
                "duration": 0.06590909090909136,
                "tempo": 120.0
            },
            {
                "start_time": 21.397727272727273,
                "end_time": 21.46590909090909,
                "pitch": 33,
                "velocity": 64,
                "duration": 0.06818181818181657,
                "tempo": 120.0
            },
            {
                "start_time": 20.818181818181817,
                "end_time": 21.51590909090909,
                "pitch": 7,
                "velocity": 64,
                "duration": 0.6977272727272741,
                "tempo": 120.0
            },
            {
                "start_time": 21.51590909090909,
                "end_time": 21.581818181818182,
                "pitch": 36,
                "velocity": 64,
                "duration": 0.06590909090909136,
                "tempo": 120.0
            },
            {
                "start_time": 20.470454545454544,
                "end_time": 21.63181818181818,
                "pitch": 40,
                "velocity": 64,
                "duration": 1.1613636363636353,
                "tempo": 120.0
            },
            {
                "start_time": 21.284090909090907,
                "end_time": 21.69772727272727,
                "pitch": 35,
                "velocity": 64,
                "duration": 0.413636363636364,
                "tempo": 120.0
            },
            {
                "start_time": 21.63181818181818,
                "end_time": 21.69772727272727,
                "pitch": 35,
                "velocity": 64,
                "duration": 0.06590909090909136,
                "tempo": 120.0
            },
            {
                "start_time": 21.74772727272727,
                "end_time": 21.81590909090909,
                "pitch": 33,
                "velocity": 64,
                "duration": 0.06818181818182012,
                "tempo": 120.0
            },
            {
                "start_time": 18.71363636363636,
                "end_time": 21.93409090909091,
                "pitch": 31,
                "velocity": 64,
                "duration": 3.2204545454545475,
                "tempo": 120.0
            },
            {
                "start_time": 21.86590909090909,
                "end_time": 21.93409090909091,
                "pitch": 31,
                "velocity": 64,
                "duration": 0.06818181818182012,
                "tempo": 120.0
            },
            {
                "start_time": 21.86590909090909,
                "end_time": 22.054545454545455,
                "pitch": 33,
                "velocity": 64,
                "duration": 0.18863636363636616,
                "tempo": 120.0
            },
            {
                "start_time": 21.98409090909091,
                "end_time": 22.054545454545455,
                "pitch": 33,
                "velocity": 64,
                "duration": 0.07045454545454533,
                "tempo": 120.0
            },
            {
                "start_time": 21.98409090909091,
                "end_time": 22.172727272727272,
                "pitch": 31,
                "velocity": 64,
                "duration": 0.1886363636363626,
                "tempo": 120.0
            },
            {
                "start_time": 22.104545454545452,
                "end_time": 22.172727272727272,
                "pitch": 31,
                "velocity": 64,
                "duration": 0.06818181818182012,
                "tempo": 120.0
            },
            {
                "start_time": 7.25,
                "end_time": 22.222727272727273,
                "pitch": 0,
                "velocity": 64,
                "duration": 14.972727272727273,
                "tempo": 120.0
            },
            {
                "start_time": 22.222727272727273,
                "end_time": 22.29090909090909,
                "pitch": 29,
                "velocity": 64,
                "duration": 0.06818181818181657,
                "tempo": 120.0
            },
            {
                "start_time": 22.33863636363636,
                "end_time": 22.40681818181818,
                "pitch": 26,
                "velocity": 64,
                "duration": 0.06818181818182012,
                "tempo": 120.0
            },
            {
                "start_time": 22.456818181818182,
                "end_time": 22.638636363636362,
                "pitch": 26,
                "velocity": 51,
                "duration": 0.18181818181817988,
                "tempo": 120.0
            },
            {
                "start_time": 22.638636363636362,
                "end_time": 22.754545454545454,
                "pitch": 28,
                "velocity": 51,
                "duration": 0.11590909090909207,
                "tempo": 120.0
            },
            {
                "start_time": 22.688636363636363,
                "end_time": 22.754545454545454,
                "pitch": 28,
                "velocity": 51,
                "duration": 0.06590909090909136,
                "tempo": 120.0
            },
            {
                "start_time": 22.804545454545455,
                "end_time": 22.870454545454546,
                "pitch": 28,
                "velocity": 51,
                "duration": 0.06590909090909136,
                "tempo": 120.0
            },
            {
                "start_time": 23.036363636363635,
                "end_time": 23.102272727272727,
                "pitch": 28,
                "velocity": 51,
                "duration": 0.06590909090909136,
                "tempo": 120.0
            },
            {
                "start_time": 23.152272727272727,
                "end_time": 23.220454545454544,
                "pitch": 28,
                "velocity": 51,
                "duration": 0.06818181818181657,
                "tempo": 120.0
            },
            {
                "start_time": 23.270454545454545,
                "end_time": 23.33863636363636,
                "pitch": 28,
                "velocity": 51,
                "duration": 0.06818181818181657,
                "tempo": 120.0
            },
            {
                "start_time": 23.39090909090909,
                "end_time": 23.459090909090907,
                "pitch": 28,
                "velocity": 51,
                "duration": 0.06818181818181657,
                "tempo": 120.0
            },
            {
                "start_time": 23.509090909090908,
                "end_time": 23.577272727272724,
                "pitch": 28,
                "velocity": 51,
                "duration": 0.06818181818181657,
                "tempo": 120.0
            },
            {
                "start_time": 23.627272727272725,
                "end_time": 23.695454545454545,
                "pitch": 28,
                "velocity": 51,
                "duration": 0.06818181818182012,
                "tempo": 120.0
            },
            {
                "start_time": 23.743181818181817,
                "end_time": 23.811363636363634,
                "pitch": 28,
                "velocity": 51,
                "duration": 0.06818181818181657,
                "tempo": 120.0
            },
            {
                "start_time": 23.977272727272727,
                "end_time": 24.043181818181818,
                "pitch": 28,
                "velocity": 51,
                "duration": 0.06590909090909136,
                "tempo": 120.0
            },
            {
                "start_time": 20.11590909090909,
                "end_time": 24.09318181818182,
                "pitch": 42,
                "velocity": 64,
                "duration": 3.97727272727273,
                "tempo": 120.0
            },
            {
                "start_time": 21.74772727272727,
                "end_time": 24.159090909090907,
                "pitch": 35,
                "velocity": 64,
                "duration": 2.4113636363636353,
                "tempo": 120.0
            },
            {
                "start_time": 24.09318181818182,
                "end_time": 24.159090909090907,
                "pitch": 35,
                "velocity": 51,
                "duration": 0.06590909090908781,
                "tempo": 120.0
            },
            {
                "start_time": 21.51590909090909,
                "end_time": 24.209090909090907,
                "pitch": 7,
                "velocity": 64,
                "duration": 2.6931818181818166,
                "tempo": 120.0
            },
            {
                "start_time": 24.209090909090907,
                "end_time": 24.275,
                "pitch": 28,
                "velocity": 51,
                "duration": 0.06590909090909136,
                "tempo": 120.0
            },
            {
                "start_time": 24.325,
                "end_time": 24.50681818181818,
                "pitch": 26,
                "velocity": 51,
                "duration": 0.18181818181817988,
                "tempo": 120.0
            },
            {
                "start_time": 24.325,
                "end_time": 24.50681818181818,
                "pitch": 28,
                "velocity": 51,
                "duration": 0.18181818181817988,
                "tempo": 120.0
            },
            {
                "start_time": 24.50681818181818,
                "end_time": 24.625,
                "pitch": 28,
                "velocity": 51,
                "duration": 0.11818181818182083,
                "tempo": 120.0
            },
            {
                "start_time": 24.55681818181818,
                "end_time": 24.625,
                "pitch": 28,
                "velocity": 51,
                "duration": 0.06818181818182012,
                "tempo": 120.0
            },
            {
                "start_time": 24.674999999999997,
                "end_time": 24.743181818181817,
                "pitch": 28,
                "velocity": 51,
                "duration": 0.06818181818182012,
                "tempo": 120.0
            },
            {
                "start_time": 24.913636363636364,
                "end_time": 24.98181818181818,
                "pitch": 28,
                "velocity": 51,
                "duration": 0.06818181818181657,
                "tempo": 120.0
            },
            {
                "start_time": 25.03181818181818,
                "end_time": 25.099999999999998,
                "pitch": 28,
                "velocity": 51,
                "duration": 0.06818181818181657,
                "tempo": 120.0
            },
            {
                "start_time": 25.14772727272727,
                "end_time": 25.21590909090909,
                "pitch": 28,
                "velocity": 51,
                "duration": 0.06818181818182012,
                "tempo": 120.0
            },
            {
                "start_time": 25.26590909090909,
                "end_time": 25.331818181818182,
                "pitch": 28,
                "velocity": 51,
                "duration": 0.06590909090909136,
                "tempo": 120.0
            },
            {
                "start_time": 25.379545454545454,
                "end_time": 25.44772727272727,
                "pitch": 28,
                "velocity": 51,
                "duration": 0.06818181818181657,
                "tempo": 120.0
            },
            {
                "start_time": 25.49772727272727,
                "end_time": 25.563636363636363,
                "pitch": 28,
                "velocity": 51,
                "duration": 0.06590909090909136,
                "tempo": 120.0
            },
            {
                "start_time": 25.613636363636363,
                "end_time": 25.679545454545455,
                "pitch": 28,
                "velocity": 51,
                "duration": 0.06590909090909136,
                "tempo": 120.0
            },
            {
                "start_time": 25.845454545454544,
                "end_time": 25.911363636363635,
                "pitch": 28,
                "velocity": 51,
                "duration": 0.06590909090909136,
                "tempo": 120.0
            },
            {
                "start_time": 24.09318181818182,
                "end_time": 25.961363636363636,
                "pitch": 42,
                "velocity": 51,
                "duration": 1.8681818181818173,
                "tempo": 120.0
            },
            {
                "start_time": 25.961363636363636,
                "end_time": 26.029545454545453,
                "pitch": 35,
                "velocity": 51,
                "duration": 0.06818181818181657,
                "tempo": 120.0
            },
            {
                "start_time": 24.209090909090907,
                "end_time": 26.079545454545453,
                "pitch": 7,
                "velocity": 51,
                "duration": 1.870454545454546,
                "tempo": 120.0
            },
            {
                "start_time": 26.079545454545453,
                "end_time": 26.14772727272727,
                "pitch": 28,
                "velocity": 51,
                "duration": 0.06818181818181657,
                "tempo": 120.0
            },
            {
                "start_time": 21.63181818181818,
                "end_time": 26.2,
                "pitch": 40,
                "velocity": 64,
                "duration": 4.56818181818182,
                "tempo": 120.0
            },
            {
                "start_time": 26.2,
                "end_time": 26.386363636363637,
                "pitch": 38,
                "velocity": 51,
                "duration": 0.1863636363636374,
                "tempo": 120.0
            },
            {
                "start_time": 26.2,
                "end_time": 26.386363636363637,
                "pitch": 40,
                "velocity": 51,
                "duration": 0.1863636363636374,
                "tempo": 120.0
            },
            {
                "start_time": 26.386363636363637,
                "end_time": 26.504545454545454,
                "pitch": 40,
                "velocity": 51,
                "duration": 0.11818181818181728,
                "tempo": 120.0
            },
            {
                "start_time": 26.436363636363634,
                "end_time": 26.504545454545454,
                "pitch": 40,
                "velocity": 51,
                "duration": 0.06818181818182012,
                "tempo": 120.0
            },
            {
                "start_time": 26.552272727272726,
                "end_time": 26.620454545454542,
                "pitch": 40,
                "velocity": 51,
                "duration": 0.06818181818181657,
                "tempo": 120.0
            },
            {
                "start_time": 26.784090909090907,
                "end_time": 26.852272727272727,
                "pitch": 40,
                "velocity": 51,
                "duration": 0.06818181818182012,
                "tempo": 120.0
            },
            {
                "start_time": 26.902272727272727,
                "end_time": 26.968181818181815,
                "pitch": 40,
                "velocity": 51,
                "duration": 0.06590909090908781,
                "tempo": 120.0
            },
            {
                "start_time": 27.018181818181816,
                "end_time": 27.084090909090907,
                "pitch": 40,
                "velocity": 51,
                "duration": 0.06590909090909136,
                "tempo": 120.0
            },
            {
                "start_time": 25.961363636363636,
                "end_time": 27.134090909090908,
                "pitch": 42,
                "velocity": 51,
                "duration": 1.172727272727272,
                "tempo": 120.0
            },
            {
                "start_time": 27.134090909090908,
                "end_time": 27.2,
                "pitch": 34,
                "velocity": 51,
                "duration": 0.06590909090909136,
                "tempo": 120.0
            },
            {
                "start_time": 27.25,
                "end_time": 27.315909090909088,
                "pitch": 34,
                "velocity": 51,
                "duration": 0.06590909090908781,
                "tempo": 120.0
            },
            {
                "start_time": 27.36590909090909,
                "end_time": 27.43409090909091,
                "pitch": 34,
                "velocity": 51,
                "duration": 0.06818181818182012,
                "tempo": 120.0
            },
            {
                "start_time": 27.48409090909091,
                "end_time": 27.672727272727272,
                "pitch": 34,
                "velocity": 51,
                "duration": 0.1886363636363626,
                "tempo": 120.0
            },
            {
                "start_time": 27.722727272727273,
                "end_time": 27.79090909090909,
                "pitch": 34,
                "velocity": 51,
                "duration": 0.06818181818181657,
                "tempo": 120.0
            },
            {
                "start_time": 27.84090909090909,
                "end_time": 27.909090909090907,
                "pitch": 34,
                "velocity": 51,
                "duration": 0.06818181818181657,
                "tempo": 120.0
            },
            {
                "start_time": 27.956818181818182,
                "end_time": 28.025,
                "pitch": 34,
                "velocity": 51,
                "duration": 0.06818181818181657,
                "tempo": 120.0
            },
            {
                "start_time": 28.075,
                "end_time": 28.218181818181815,
                "pitch": 34,
                "velocity": 51,
                "duration": 0.14318181818181586,
                "tempo": 120.0
            },
            {
                "start_time": 28.304545454545455,
                "end_time": 28.37272727272727,
                "pitch": 35,
                "velocity": 51,
                "duration": 0.06818181818181657,
                "tempo": 120.0
            },
            {
                "start_time": 28.422727272727272,
                "end_time": 28.565909090909088,
                "pitch": 35,
                "velocity": 51,
                "duration": 0.14318181818181586,
                "tempo": 120.0
            },
            {
                "start_time": 12.984090909090908,
                "end_time": 28.654545454545453,
                "pitch": 19,
                "velocity": 51,
                "duration": 15.670454545454545,
                "tempo": 120.0
            },
            {
                "start_time": 28.654545454545453,
                "end_time": 28.797727272727272,
                "pitch": 38,
                "velocity": 51,
                "duration": 0.1431818181818194,
                "tempo": 120.0
            },
            {
                "start_time": 28.886363636363637,
                "end_time": 28.952272727272724,
                "pitch": 38,
                "velocity": 51,
                "duration": 0.06590909090908781,
                "tempo": 120.0
            },
            {
                "start_time": 20.936363636363634,
                "end_time": 29.002272727272725,
                "pitch": 41,
                "velocity": 64,
                "duration": 8.065909090909091,
                "tempo": 120.0
            },
            {
                "start_time": 29.002272727272725,
                "end_time": 29.068181818181817,
                "pitch": 35,
                "velocity": 51,
                "duration": 0.06590909090909136,
                "tempo": 120.0
            },
            {
                "start_time": 28.654545454545453,
                "end_time": 29.118181818181817,
                "pitch": 19,
                "velocity": 51,
                "duration": 0.46363636363636473,
                "tempo": 120.0
            },
            {
                "start_time": 29.118181818181817,
                "end_time": 29.186363636363634,
                "pitch": 40,
                "velocity": 51,
                "duration": 0.06818181818181657,
                "tempo": 120.0
            },
            {
                "start_time": 29.23409090909091,
                "end_time": 29.302272727272726,
                "pitch": 38,
                "velocity": 51,
                "duration": 0.06818181818181657,
                "tempo": 120.0
            },
            {
                "start_time": 29.354545454545452,
                "end_time": 29.422727272727272,
                "pitch": 36,
                "velocity": 51,
                "duration": 0.06818181818182012,
                "tempo": 120.0
            },
            {
                "start_time": 29.354545454545452,
                "end_time": 29.54090909090909,
                "pitch": 38,
                "velocity": 51,
                "duration": 0.1863636363636374,
                "tempo": 120.0
            },
            {
                "start_time": 29.472727272727273,
                "end_time": 29.54090909090909,
                "pitch": 38,
                "velocity": 51,
                "duration": 0.06818181818181657,
                "tempo": 120.0
            },
            {
                "start_time": 29.472727272727273,
                "end_time": 29.659090909090907,
                "pitch": 36,
                "velocity": 51,
                "duration": 0.18636363636363384,
                "tempo": 120.0
            },
            {
                "start_time": 29.59090909090909,
                "end_time": 29.659090909090907,
                "pitch": 36,
                "velocity": 51,
                "duration": 0.06818181818181657,
                "tempo": 120.0
            },
            {
                "start_time": 29.23409090909091,
                "end_time": 29.709090909090907,
                "pitch": 40,
                "velocity": 51,
                "duration": 0.47499999999999787,
                "tempo": 120.0
            },
            {
                "start_time": 29.709090909090907,
                "end_time": 29.777272727272727,
                "pitch": 35,
                "velocity": 51,
                "duration": 0.06818181818182012,
                "tempo": 120.0
            },
            {
                "start_time": 26.079545454545453,
                "end_time": 29.827272727272724,
                "pitch": 7,
                "velocity": 51,
                "duration": 3.7477272727272712,
                "tempo": 120.0
            },
            {
                "start_time": 29.827272727272724,
                "end_time": 29.893181818181816,
                "pitch": 28,
                "velocity": 51,
                "duration": 0.06590909090909136,
                "tempo": 120.0
            },
            {
                "start_time": 27.134090909090908,
                "end_time": 29.945454545454545,
                "pitch": 42,
                "velocity": 51,
                "duration": 2.8113636363636374,
                "tempo": 120.0
            },
            {
                "start_time": 22.104545454545452,
                "end_time": 30.009090909090908,
                "pitch": 33,
                "velocity": 64,
                "duration": 7.904545454545456,
                "tempo": 120.0
            },
            {
                "start_time": 29.945454545454545,
                "end_time": 30.009090909090908,
                "pitch": 33,
                "velocity": 64,
                "duration": 0.0636363636363626,
                "tempo": 120.0
            },
            {
                "start_time": 30.05909090909091,
                "end_time": 30.086363636363636,
                "pitch": 33,
                "velocity": 64,
                "duration": 0.027272727272727337,
                "tempo": 120.0
            }
        ],
        "Acoustic Guitar (nylon)": [
            {
                "start_time": 22.456818181818182,
                "end_time": 22.552272727272726,
                "pitch": 73,
                "velocity": 64,
                "duration": 0.0954545454545439,
                "tempo": 120.0
            },
            {
                "start_time": 22.570454545454545,
                "end_time": 22.668181818181818,
                "pitch": 76,
                "velocity": 64,
                "duration": 0.09772727272727266,
                "tempo": 120.0
            },
            {
                "start_time": 22.686363636363634,
                "end_time": 22.784090909090907,
                "pitch": 80,
                "velocity": 64,
                "duration": 0.09772727272727266,
                "tempo": 120.0
            },
            {
                "start_time": 22.802272727272726,
                "end_time": 22.9,
                "pitch": 83,
                "velocity": 64,
                "duration": 0.09772727272727266,
                "tempo": 120.0
            },
            {
                "start_time": 22.918181818181818,
                "end_time": 23.01590909090909,
                "pitch": 85,
                "velocity": 64,
                "duration": 0.09772727272727266,
                "tempo": 120.0
            },
            {
                "start_time": 23.036363636363635,
                "end_time": 23.13181818181818,
                "pitch": 88,
                "velocity": 64,
                "duration": 0.0954545454545439,
                "tempo": 120.0
            },
            {
                "start_time": 23.152272727272727,
                "end_time": 23.25,
                "pitch": 92,
                "velocity": 64,
                "duration": 0.09772727272727266,
                "tempo": 120.0
            },
            {
                "start_time": 23.270454545454545,
                "end_time": 23.368181818181817,
                "pitch": 95,
                "velocity": 64,
                "duration": 0.09772727272727266,
                "tempo": 120.0
            },
            {
                "start_time": 23.39090909090909,
                "end_time": 23.488636363636363,
                "pitch": 95,
                "velocity": 64,
                "duration": 0.09772727272727266,
                "tempo": 120.0
            },
            {
                "start_time": 23.50681818181818,
                "end_time": 23.60681818181818,
                "pitch": 89,
                "velocity": 64,
                "duration": 0.10000000000000142,
                "tempo": 120.0
            },
            {
                "start_time": 23.627272727272725,
                "end_time": 23.722727272727273,
                "pitch": 86,
                "velocity": 64,
                "duration": 0.09545454545454746,
                "tempo": 120.0
            },
            {
                "start_time": 23.743181818181817,
                "end_time": 23.83863636363636,
                "pitch": 84,
                "velocity": 64,
                "duration": 0.0954545454545439,
                "tempo": 120.0
            },
            {
                "start_time": 23.85909090909091,
                "end_time": 23.954545454545453,
                "pitch": 81,
                "velocity": 64,
                "duration": 0.0954545454545439,
                "tempo": 120.0
            },
            {
                "start_time": 23.974999999999998,
                "end_time": 24.07272727272727,
                "pitch": 77,
                "velocity": 64,
                "duration": 0.09772727272727266,
                "tempo": 120.0
            },
            {
                "start_time": 24.09090909090909,
                "end_time": 24.188636363636363,
                "pitch": 74,
                "velocity": 64,
                "duration": 0.09772727272727266,
                "tempo": 120.0
            },
            {
                "start_time": 24.206818181818182,
                "end_time": 24.304545454545455,
                "pitch": 72,
                "velocity": 64,
                "duration": 0.09772727272727266,
                "tempo": 120.0
            },
            {
                "start_time": 24.325,
                "end_time": 24.420454545454543,
                "pitch": 72,
                "velocity": 64,
                "duration": 0.0954545454545439,
                "tempo": 120.0
            },
            {
                "start_time": 22.570454545454545,
                "end_time": 24.438636363636363,
                "pitch": 73,
                "velocity": 64,
                "duration": 1.8681818181818173,
                "tempo": 120.0
            },
            {
                "start_time": 24.438636363636363,
                "end_time": 24.536363636363635,
                "pitch": 76,
                "velocity": 64,
                "duration": 0.09772727272727266,
                "tempo": 120.0
            },
            {
                "start_time": 22.686363636363634,
                "end_time": 24.55681818181818,
                "pitch": 90,
                "velocity": 64,
                "duration": 1.870454545454546,
                "tempo": 120.0
            },
            {
                "start_time": 22.802272727272726,
                "end_time": 24.654545454545453,
                "pitch": 80,
                "velocity": 64,
                "duration": 1.8522727272727266,
                "tempo": 120.0
            },
            {
                "start_time": 24.55681818181818,
                "end_time": 24.654545454545453,
                "pitch": 80,
                "velocity": 64,
                "duration": 0.09772727272727266,
                "tempo": 120.0
            },
            {
                "start_time": 24.674999999999997,
                "end_time": 24.77272727272727,
                "pitch": 83,
                "velocity": 64,
                "duration": 0.09772727272727266,
                "tempo": 120.0
            },
            {
                "start_time": 22.918181818181818,
                "end_time": 24.793181818181818,
                "pitch": 68,
                "velocity": 64,
                "duration": 1.875,
                "tempo": 120.0
            },
            {
                "start_time": 23.036363636363635,
                "end_time": 24.893181818181816,
                "pitch": 85,
                "velocity": 64,
                "duration": 1.8568181818181806,
                "tempo": 120.0
            },
            {
                "start_time": 24.793181818181818,
                "end_time": 24.893181818181816,
                "pitch": 85,
                "velocity": 64,
                "duration": 0.09999999999999787,
                "tempo": 120.0
            },
            {
                "start_time": 23.85909090909091,
                "end_time": 25.011363636363637,
                "pitch": 88,
                "velocity": 64,
                "duration": 1.1522727272727273,
                "tempo": 120.0
            },
            {
                "start_time": 24.911363636363635,
                "end_time": 25.011363636363637,
                "pitch": 88,
                "velocity": 64,
                "duration": 0.10000000000000142,
                "tempo": 120.0
            },
            {
                "start_time": 23.152272727272727,
                "end_time": 25.03181818181818,
                "pitch": 102,
                "velocity": 64,
                "duration": 1.879545454545454,
                "tempo": 120.0
            },
            {
                "start_time": 23.270454545454545,
                "end_time": 25.127272727272725,
                "pitch": 92,
                "velocity": 64,
                "duration": 1.8568181818181806,
                "tempo": 120.0
            },
            {
                "start_time": 25.03181818181818,
                "end_time": 25.127272727272725,
                "pitch": 92,
                "velocity": 64,
                "duration": 0.0954545454545439,
                "tempo": 120.0
            },
            {
                "start_time": 25.14772727272727,
                "end_time": 25.243181818181817,
                "pitch": 95,
                "velocity": 64,
                "duration": 0.09545454545454746,
                "tempo": 120.0
            },
            {
                "start_time": 24.793181818181818,
                "end_time": 25.263636363636362,
                "pitch": 68,
                "velocity": 64,
                "duration": 0.4704545454545439,
                "tempo": 120.0
            },
            {
                "start_time": 24.911363636363635,
                "end_time": 25.35909090909091,
                "pitch": 85,
                "velocity": 64,
                "duration": 0.4477272727272741,
                "tempo": 120.0
            },
            {
                "start_time": 25.263636363636362,
                "end_time": 25.35909090909091,
                "pitch": 85,
                "velocity": 64,
                "duration": 0.09545454545454746,
                "tempo": 120.0
            },
            {
                "start_time": 25.379545454545454,
                "end_time": 25.477272727272727,
                "pitch": 88,
                "velocity": 64,
                "duration": 0.09772727272727266,
                "tempo": 120.0
            },
            {
                "start_time": 25.495454545454542,
                "end_time": 25.59318181818182,
                "pitch": 88,
                "velocity": 64,
                "duration": 0.09772727272727622,
                "tempo": 120.0
            },
            {
                "start_time": 25.03181818181818,
                "end_time": 25.611363636363635,
                "pitch": 102,
                "velocity": 64,
                "duration": 0.5795454545454533,
                "tempo": 120.0
            },
            {
                "start_time": 25.611363636363635,
                "end_time": 25.709090909090907,
                "pitch": 95,
                "velocity": 64,
                "duration": 0.09772727272727266,
                "tempo": 120.0
            },
            {
                "start_time": 22.456818181818182,
                "end_time": 25.729545454545452,
                "pitch": 56,
                "velocity": 64,
                "duration": 3.27272727272727,
                "tempo": 120.0
            },
            {
                "start_time": 25.729545454545452,
                "end_time": 25.825,
                "pitch": 72,
                "velocity": 64,
                "duration": 0.09545454545454746,
                "tempo": 120.0
            },
            {
                "start_time": 24.206818181818182,
                "end_time": 25.94090909090909,
                "pitch": 74,
                "velocity": 64,
                "duration": 1.7340909090909093,
                "tempo": 120.0
            },
            {
                "start_time": 25.84318181818182,
                "end_time": 25.94090909090909,
                "pitch": 74,
                "velocity": 64,
                "duration": 0.09772727272727266,
                "tempo": 120.0
            },
            {
                "start_time": 24.09090909090909,
                "end_time": 26.05909090909091,
                "pitch": 77,
                "velocity": 64,
                "duration": 1.9681818181818187,
                "tempo": 120.0
            },
            {
                "start_time": 25.961363636363636,
                "end_time": 26.05909090909091,
                "pitch": 77,
                "velocity": 64,
                "duration": 0.09772727272727266,
                "tempo": 120.0
            },
            {
                "start_time": 24.55681818181818,
                "end_time": 26.079545454545453,
                "pitch": 90,
                "velocity": 64,
                "duration": 1.5227272727272734,
                "tempo": 120.0
            },
            {
                "start_time": 26.079545454545453,
                "end_time": 26.177272727272726,
                "pitch": 81,
                "velocity": 64,
                "duration": 0.09772727272727266,
                "tempo": 120.0
            },
            {
                "start_time": 26.19772727272727,
                "end_time": 26.297727272727272,
                "pitch": 81,
                "velocity": 64,
                "duration": 0.10000000000000142,
                "tempo": 120.0
            },
            {
                "start_time": 24.674999999999997,
                "end_time": 26.41590909090909,
                "pitch": 80,
                "velocity": 64,
                "duration": 1.740909090909092,
                "tempo": 120.0
            },
            {
                "start_time": 26.31590909090909,
                "end_time": 26.41590909090909,
                "pitch": 80,
                "velocity": 64,
                "duration": 0.09999999999999787,
                "tempo": 120.0
            },
            {
                "start_time": 26.436363636363634,
                "end_time": 26.53181818181818,
                "pitch": 77,
                "velocity": 64,
                "duration": 0.09545454545454746,
                "tempo": 120.0
            },
            {
                "start_time": 25.961363636363636,
                "end_time": 26.64772727272727,
                "pitch": 74,
                "velocity": 64,
                "duration": 0.6863636363636338,
                "tempo": 120.0
            },
            {
                "start_time": 26.552272727272726,
                "end_time": 26.64772727272727,
                "pitch": 74,
                "velocity": 64,
                "duration": 0.0954545454545439,
                "tempo": 120.0
            },
            {
                "start_time": 26.668181818181818,
                "end_time": 26.763636363636362,
                "pitch": 95,
                "velocity": 64,
                "duration": 0.0954545454545439,
                "tempo": 120.0
            },
            {
                "start_time": 25.14772727272727,
                "end_time": 26.879545454545454,
                "pitch": 92,
                "velocity": 64,
                "duration": 1.7318181818181841,
                "tempo": 120.0
            },
            {
                "start_time": 26.784090909090907,
                "end_time": 26.879545454545454,
                "pitch": 92,
                "velocity": 64,
                "duration": 0.09545454545454746,
                "tempo": 120.0
            },
            {
                "start_time": 23.974999999999998,
                "end_time": 26.9,
                "pitch": 43,
                "velocity": 64,
                "duration": 2.9250000000000007,
                "tempo": 120.0
            },
            {
                "start_time": 23.627272727272725,
                "end_time": 26.99772727272727,
                "pitch": 89,
                "velocity": 64,
                "duration": 3.370454545454546,
                "tempo": 120.0
            },
            {
                "start_time": 26.9,
                "end_time": 26.99772727272727,
                "pitch": 89,
                "velocity": 64,
                "duration": 0.09772727272727266,
                "tempo": 120.0
            },
            {
                "start_time": 23.743181818181817,
                "end_time": 27.113636363636363,
                "pitch": 86,
                "velocity": 64,
                "duration": 3.370454545454546,
                "tempo": 120.0
            },
            {
                "start_time": 27.01590909090909,
                "end_time": 27.113636363636363,
                "pitch": 86,
                "velocity": 64,
                "duration": 0.09772727272727266,
                "tempo": 120.0
            },
            {
                "start_time": 27.134090909090908,
                "end_time": 27.229545454545452,
                "pitch": 86,
                "velocity": 64,
                "duration": 0.0954545454545439,
                "tempo": 120.0
            },
            {
                "start_time": 25.379545454545454,
                "end_time": 27.24772727272727,
                "pitch": 85,
                "velocity": 64,
                "duration": 1.8681818181818173,
                "tempo": 120.0
            },
            {
                "start_time": 27.24772727272727,
                "end_time": 27.345454545454544,
                "pitch": 88,
                "velocity": 64,
                "duration": 0.09772727272727266,
                "tempo": 120.0
            },
            {
                "start_time": 25.611363636363635,
                "end_time": 27.36590909090909,
                "pitch": 102,
                "velocity": 64,
                "duration": 1.754545454545454,
                "tempo": 120.0
            },
            {
                "start_time": 27.36590909090909,
                "end_time": 27.46363636363636,
                "pitch": 92,
                "velocity": 64,
                "duration": 0.09772727272727266,
                "tempo": 120.0
            },
            {
                "start_time": 26.784090909090907,
                "end_time": 27.581818181818182,
                "pitch": 95,
                "velocity": 64,
                "duration": 0.7977272727272755,
                "tempo": 120.0
            },
            {
                "start_time": 27.48409090909091,
                "end_time": 27.581818181818182,
                "pitch": 95,
                "velocity": 64,
                "duration": 0.09772727272727266,
                "tempo": 120.0
            },
            {
                "start_time": 25.729545454545452,
                "end_time": 27.602272727272727,
                "pitch": 56,
                "velocity": 64,
                "duration": 1.8727272727272748,
                "tempo": 120.0
            },
            {
                "start_time": 24.438636363636363,
                "end_time": 27.702272727272724,
                "pitch": 73,
                "velocity": 64,
                "duration": 3.263636363636362,
                "tempo": 120.0
            },
            {
                "start_time": 27.602272727272727,
                "end_time": 27.702272727272724,
                "pitch": 73,
                "velocity": 64,
                "duration": 0.09999999999999787,
                "tempo": 120.0
            },
            {
                "start_time": 27.720454545454544,
                "end_time": 27.820454545454545,
                "pitch": 76,
                "velocity": 64,
                "duration": 0.10000000000000142,
                "tempo": 120.0
            },
            {
                "start_time": 26.079545454545453,
                "end_time": 27.84090909090909,
                "pitch": 90,
                "velocity": 64,
                "duration": 1.7613636363636367,
                "tempo": 120.0
            },
            {
                "start_time": 27.84090909090909,
                "end_time": 27.936363636363634,
                "pitch": 80,
                "velocity": 64,
                "duration": 0.0954545454545439,
                "tempo": 120.0
            },
            {
                "start_time": 26.31590909090909,
                "end_time": 28.052272727272726,
                "pitch": 83,
                "velocity": 64,
                "duration": 1.7363636363636346,
                "tempo": 120.0
            },
            {
                "start_time": 27.956818181818182,
                "end_time": 28.052272727272726,
                "pitch": 83,
                "velocity": 64,
                "duration": 0.0954545454545439,
                "tempo": 120.0
            },
            {
                "start_time": 28.07272727272727,
                "end_time": 28.168181818181818,
                "pitch": 83,
                "velocity": 64,
                "duration": 0.09545454545454746,
                "tempo": 120.0
            },
            {
                "start_time": 26.9,
                "end_time": 28.188636363636363,
                "pitch": 43,
                "velocity": 64,
                "duration": 1.288636363636364,
                "tempo": 120.0
            },
            {
                "start_time": 26.552272727272726,
                "end_time": 28.284090909090907,
                "pitch": 77,
                "velocity": 64,
                "duration": 1.7318181818181806,
                "tempo": 120.0
            },
            {
                "start_time": 28.188636363636363,
                "end_time": 28.284090909090907,
                "pitch": 77,
                "velocity": 64,
                "duration": 0.0954545454545439,
                "tempo": 120.0
            },
            {
                "start_time": 28.304545454545455,
                "end_time": 28.402272727272727,
                "pitch": 74,
                "velocity": 64,
                "duration": 0.09772727272727266,
                "tempo": 120.0
            },
            {
                "start_time": 25.84318181818182,
                "end_time": 28.518181818181816,
                "pitch": 72,
                "velocity": 64,
                "duration": 2.674999999999997,
                "tempo": 120.0
            },
            {
                "start_time": 28.420454545454543,
                "end_time": 28.518181818181816,
                "pitch": 72,
                "velocity": 64,
                "duration": 0.09772727272727266,
                "tempo": 120.0
            },
            {
                "start_time": 28.536363636363635,
                "end_time": 28.634090909090908,
                "pitch": 93,
                "velocity": 64,
                "duration": 0.09772727272727266,
                "tempo": 120.0
            },
            {
                "start_time": 23.50681818181818,
                "end_time": 28.652272727272727,
                "pitch": 55,
                "velocity": 64,
                "duration": 5.145454545454548,
                "tempo": 120.0
            },
            {
                "start_time": 27.01590909090909,
                "end_time": 28.75,
                "pitch": 89,
                "velocity": 64,
                "duration": 1.7340909090909093,
                "tempo": 120.0
            },
            {
                "start_time": 28.652272727272727,
                "end_time": 28.75,
                "pitch": 89,
                "velocity": 64,
                "duration": 0.09772727272727266,
                "tempo": 120.0
            },
            {
                "start_time": 28.768181818181816,
                "end_time": 28.86590909090909,
                "pitch": 86,
                "velocity": 64,
                "duration": 0.09772727272727266,
                "tempo": 120.0
            },
            {
                "start_time": 28.886363636363637,
                "end_time": 28.98181818181818,
                "pitch": 84,
                "velocity": 64,
                "duration": 0.0954545454545439,
                "tempo": 120.0
            },
            {
                "start_time": 29.002272727272725,
                "end_time": 29.097727272727273,
                "pitch": 84,
                "velocity": 64,
                "duration": 0.09545454545454746,
                "tempo": 120.0
            },
            {
                "start_time": 29.118181818181817,
                "end_time": 29.21363636363636,
                "pitch": 88,
                "velocity": 64,
                "duration": 0.0954545454545439,
                "tempo": 120.0
            },
            {
                "start_time": 27.36590909090909,
                "end_time": 29.23409090909091,
                "pitch": 102,
                "velocity": 64,
                "duration": 1.8681818181818208,
                "tempo": 120.0
            },
            {
                "start_time": 27.48409090909091,
                "end_time": 29.331818181818182,
                "pitch": 92,
                "velocity": 64,
                "duration": 1.8477272727272727,
                "tempo": 120.0
            },
            {
                "start_time": 29.23409090909091,
                "end_time": 29.331818181818182,
                "pitch": 92,
                "velocity": 64,
                "duration": 0.09772727272727266,
                "tempo": 120.0
            },
            {
                "start_time": 29.352272727272727,
                "end_time": 29.452272727272724,
                "pitch": 95,
                "velocity": 64,
                "duration": 0.09999999999999787,
                "tempo": 120.0
            },
            {
                "start_time": 27.602272727272727,
                "end_time": 29.470454545454544,
                "pitch": 56,
                "velocity": 64,
                "duration": 1.8681818181818173,
                "tempo": 120.0
            },
            {
                "start_time": 27.720454545454544,
                "end_time": 29.570454545454545,
                "pitch": 73,
                "velocity": 64,
                "duration": 1.8500000000000014,
                "tempo": 120.0
            },
            {
                "start_time": 29.470454545454544,
                "end_time": 29.570454545454545,
                "pitch": 73,
                "velocity": 64,
                "duration": 0.10000000000000142,
                "tempo": 120.0
            },
            {
                "start_time": 29.59090909090909,
                "end_time": 29.688636363636363,
                "pitch": 76,
                "velocity": 64,
                "duration": 0.09772727272727266,
                "tempo": 120.0
            },
            {
                "start_time": 27.84090909090909,
                "end_time": 29.709090909090907,
                "pitch": 90,
                "velocity": 64,
                "duration": 1.8681818181818173,
                "tempo": 120.0
            },
            {
                "start_time": 27.956818181818182,
                "end_time": 29.80681818181818,
                "pitch": 80,
                "velocity": 64,
                "duration": 1.8499999999999979,
                "tempo": 120.0
            },
            {
                "start_time": 29.709090909090907,
                "end_time": 29.80681818181818,
                "pitch": 80,
                "velocity": 64,
                "duration": 0.09772727272727266,
                "tempo": 120.0
            },
            {
                "start_time": 29.825,
                "end_time": 29.922727272727272,
                "pitch": 83,
                "velocity": 64,
                "duration": 0.09772727272727266,
                "tempo": 120.0
            }
        ]
    }
}