{
    "track_id": "Solomon no Kagi (FM) - 04 - Hurry Up",
    "mood": "angry",
    "instruments": {
        "Oboe": [
            {
                "start_time": 0.038636363636363635,
                "end_time": 0.11363636363636363,
                "pitch": 29,
                "velocity": 13,
                "duration": 0.075,
                "tempo": 120.0
            },
            {
                "start_time": 0.13863636363636364,
                "end_time": 0.21363636363636362,
                "pitch": 29,
                "velocity": 13,
                "duration": 0.07499999999999998,
                "tempo": 120.0
            },
            {
                "start_time": 0.23863636363636362,
                "end_time": 0.325,
                "pitch": 30,
                "velocity": 13,
                "duration": 0.08636363636363639,
                "tempo": 120.0
            },
            {
                "start_time": 0.3568181818181818,
                "end_time": 0.45909090909090905,
                "pitch": 31,
                "velocity": 13,
                "duration": 0.10227272727272724,
                "tempo": 120.0
            },
            {
                "start_time": 0.4909090909090909,
                "end_time": 0.5909090909090908,
                "pitch": 29,
                "velocity": 20,
                "duration": 0.09999999999999992,
                "tempo": 120.0
            },
            {
                "start_time": 0.625,
                "end_time": 0.725,
                "pitch": 29,
                "velocity": 20,
                "duration": 0.09999999999999998,
                "tempo": 120.0
            },
            {
                "start_time": 0.759090909090909,
                "end_time": 0.859090909090909,
                "pitch": 30,
                "velocity": 20,
                "duration": 0.09999999999999998,
                "tempo": 120.0
            },
            {
                "start_time": 0.8931818181818182,
                "end_time": 0.9954545454545454,
                "pitch": 31,
                "velocity": 20,
                "duration": 0.10227272727272718,
                "tempo": 120.0
            },
            {
                "start_time": 1.0295454545454545,
                "end_time": 1.1318181818181818,
                "pitch": 29,
                "velocity": 25,
                "duration": 0.10227272727272729,
                "tempo": 120.0
            },
            {
                "start_time": 1.1659090909090908,
                "end_time": 1.268181818181818,
                "pitch": 29,
                "velocity": 25,
                "duration": 0.10227272727272729,
                "tempo": 120.0
            },
            {
                "start_time": 1.3022727272727272,
                "end_time": 1.4022727272727271,
                "pitch": 30,
                "velocity": 25,
                "duration": 0.09999999999999987,
                "tempo": 120.0
            },
            {
                "start_time": 1.4363636363636363,
                "end_time": 1.5363636363636364,
                "pitch": 31,
                "velocity": 25,
                "duration": 0.10000000000000009,
                "tempo": 120.0
            },
            {
                "start_time": 1.5704545454545453,
                "end_time": 1.6704545454545454,
                "pitch": 29,
                "velocity": 32,
                "duration": 0.10000000000000009,
                "tempo": 120.0
            },
            {
                "start_time": 1.7022727272727272,
                "end_time": 1.8045454545454545,
                "pitch": 29,
                "velocity": 32,
                "duration": 0.10227272727272729,
                "tempo": 120.0
            },
            {
                "start_time": 1.8363636363636362,
                "end_time": 1.9363636363636363,
                "pitch": 30,
                "velocity": 32,
                "duration": 0.10000000000000009,
                "tempo": 120.0
            },
            {
                "start_time": 1.9704545454545455,
                "end_time": 2.0704545454545453,
                "pitch": 31,
                "velocity": 32,
                "duration": 0.09999999999999987,
                "tempo": 120.0
            },
            {
                "start_time": 2.1045454545454545,
                "end_time": 2.2045454545454546,
                "pitch": 29,
                "velocity": 40,
                "duration": 0.10000000000000009,
                "tempo": 120.0
            },
            {
                "start_time": 2.2386363636363633,
                "end_time": 2.3386363636363634,
                "pitch": 29,
                "velocity": 40,
                "duration": 0.10000000000000009,
                "tempo": 120.0
            },
            {
                "start_time": 2.370454545454545,
                "end_time": 2.4727272727272727,
                "pitch": 30,
                "velocity": 40,
                "duration": 0.10227272727272751,
                "tempo": 120.0
            },
            {
                "start_time": 2.506818181818182,
                "end_time": 2.609090909090909,
                "pitch": 31,
                "velocity": 40,
                "duration": 0.10227272727272707,
                "tempo": 120.0
            },
            {
                "start_time": 2.643181818181818,
                "end_time": 2.743181818181818,
                "pitch": 29,
                "velocity": 51,
                "duration": 0.10000000000000009,
                "tempo": 120.0
            },
            {
                "start_time": 2.7772727272727273,
                "end_time": 2.8795454545454544,
                "pitch": 29,
                "velocity": 51,
                "duration": 0.10227272727272707,
                "tempo": 120.0
            },
            {
                "start_time": 2.9136363636363636,
                "end_time": 3.0159090909090907,
                "pitch": 30,
                "velocity": 51,
                "duration": 0.10227272727272707,
                "tempo": 120.0
            },
            {
                "start_time": 3.05,
                "end_time": 3.15,
                "pitch": 31,
                "velocity": 51,
                "duration": 0.10000000000000009,
                "tempo": 120.0
            },
            {
                "start_time": 3.1818181818181817,
                "end_time": 3.1999999999999997,
                "pitch": 29,
                "velocity": 64,
                "duration": 0.018181818181818077,
                "tempo": 120.0
            },
            {
                "start_time": 3.215909090909091,
                "end_time": 3.2318181818181815,
                "pitch": 29,
                "velocity": 64,
                "duration": 0.01590909090909065,
                "tempo": 120.0
            },
            {
                "start_time": 3.25,
                "end_time": 3.2659090909090907,
                "pitch": 30,
                "velocity": 64,
                "duration": 0.01590909090909065,
                "tempo": 120.0
            },
            {
                "start_time": 3.2818181818181817,
                "end_time": 3.3,
                "pitch": 31,
                "velocity": 64,
                "duration": 0.018181818181818077,
                "tempo": 120.0
            },
            {
                "start_time": 3.315909090909091,
                "end_time": 3.4159090909090906,
                "pitch": 32,
                "velocity": 64,
                "duration": 0.09999999999999964,
                "tempo": 120.0
            },
            {
                "start_time": 3.4499999999999997,
                "end_time": 3.465909090909091,
                "pitch": 29,
                "velocity": 51,
                "duration": 0.015909090909091095,
                "tempo": 120.0
            },
            {
                "start_time": 3.484090909090909,
                "end_time": 3.5,
                "pitch": 29,
                "velocity": 51,
                "duration": 0.015909090909091095,
                "tempo": 120.0
            },
            {
                "start_time": 3.5159090909090907,
                "end_time": 3.5340909090909087,
                "pitch": 30,
                "velocity": 51,
                "duration": 0.018181818181818077,
                "tempo": 120.0
            },
            {
                "start_time": 3.55,
                "end_time": 3.565909090909091,
                "pitch": 31,
                "velocity": 51,
                "duration": 0.015909090909091095,
                "tempo": 120.0
            },
            {
                "start_time": 3.584090909090909,
                "end_time": 3.684090909090909,
                "pitch": 32,
                "velocity": 51,
                "duration": 0.10000000000000009,
                "tempo": 120.0
            },
            {
                "start_time": 3.715909090909091,
                "end_time": 3.734090909090909,
                "pitch": 29,
                "velocity": 51,
                "duration": 0.018181818181818077,
                "tempo": 120.0
            },
            {
                "start_time": 3.75,
                "end_time": 3.7659090909090907,
                "pitch": 29,
                "velocity": 51,
                "duration": 0.01590909090909065,
                "tempo": 120.0
            },
            {
                "start_time": 3.7840909090909087,
                "end_time": 3.8,
                "pitch": 30,
                "velocity": 51,
                "duration": 0.015909090909091095,
                "tempo": 120.0
            },
            {
                "start_time": 3.818181818181818,
                "end_time": 3.834090909090909,
                "pitch": 31,
                "velocity": 51,
                "duration": 0.015909090909091095,
                "tempo": 120.0
            },
            {
                "start_time": 3.8499999999999996,
                "end_time": 3.9499999999999997,
                "pitch": 32,
                "velocity": 51,
                "duration": 0.10000000000000009,
                "tempo": 120.0
            },
            {
                "start_time": 3.984090909090909,
                "end_time": 4.0,
                "pitch": 29,
                "velocity": 32,
                "duration": 0.015909090909091095,
                "tempo": 120.0
            },
            {
                "start_time": 4.018181818181818,
                "end_time": 4.034090909090909,
                "pitch": 29,
                "velocity": 32,
                "duration": 0.01590909090909154,
                "tempo": 120.0
            },
            {
                "start_time": 4.05,
                "end_time": 4.068181818181818,
                "pitch": 30,
                "velocity": 32,
                "duration": 0.01818181818181852,
                "tempo": 120.0
            },
            {
                "start_time": 4.084090909090909,
                "end_time": 4.1022727272727275,
                "pitch": 31,
                "velocity": 32,
                "duration": 0.01818181818181852,
                "tempo": 120.0
            },
            {
                "start_time": 4.118181818181818,
                "end_time": 4.220454545454546,
                "pitch": 32,
                "velocity": 32,
                "duration": 0.10227272727272751,
                "tempo": 120.0
            },
            {
                "start_time": 4.254545454545454,
                "end_time": 4.3568181818181815,
                "pitch": 29,
                "velocity": 13,
                "duration": 0.10227272727272751,
                "tempo": 120.0
            },
            {
                "start_time": 4.390909090909091,
                "end_time": 4.493181818181818,
                "pitch": 29,
                "velocity": 13,
                "duration": 0.10227272727272751,
                "tempo": 120.0
            },
            {
                "start_time": 4.527272727272727,
                "end_time": 4.627272727272727,
                "pitch": 30,
                "velocity": 13,
                "duration": 0.09999999999999964,
                "tempo": 120.0
            },
            {
                "start_time": 4.661363636363636,
                "end_time": 4.761363636363636,
                "pitch": 31,
                "velocity": 13,
                "duration": 0.09999999999999964,
                "tempo": 120.0
            },
            {
                "start_time": 4.795454545454545,
                "end_time": 4.8954545454545455,
                "pitch": 29,
                "velocity": 20,
                "duration": 0.10000000000000053,
                "tempo": 120.0
            },
            {
                "start_time": 4.929545454545455,
                "end_time": 5.029545454545454,
                "pitch": 29,
                "velocity": 20,
                "duration": 0.09999999999999964,
                "tempo": 120.0
            },
            {
                "start_time": 5.0613636363636365,
                "end_time": 5.163636363636363,
                "pitch": 30,
                "velocity": 20,
                "duration": 0.10227272727272663,
                "tempo": 120.0
            },
            {
                "start_time": 5.195454545454545,
                "end_time": 5.295454545454545,
                "pitch": 31,
                "velocity": 20,
                "duration": 0.09999999999999964,
                "tempo": 120.0
            },
            {
                "start_time": 5.329545454545454,
                "end_time": 5.429545454545455,
                "pitch": 29,
                "velocity": 25,
                "duration": 0.10000000000000053,
                "tempo": 120.0
            },
            {
                "start_time": 5.463636363636363,
                "end_time": 5.5636363636363635,
                "pitch": 29,
                "velocity": 25,
                "duration": 0.10000000000000053,
                "tempo": 120.0
            },
            {
                "start_time": 5.597727272727273,
                "end_time": 5.697727272727272,
                "pitch": 30,
                "velocity": 25,
                "duration": 0.09999999999999964,
                "tempo": 120.0
            },
            {
                "start_time": 5.7318181818181815,
                "end_time": 5.834090909090909,
                "pitch": 31,
                "velocity": 25,
                "duration": 0.10227272727272751,
                "tempo": 120.0
            },
            {
                "start_time": 5.868181818181818,
                "end_time": 5.970454545454545,
                "pitch": 29,
                "velocity": 32,
                "duration": 0.10227272727272663,
                "tempo": 120.0
            },
            {
                "start_time": 6.004545454545454,
                "end_time": 6.1045454545454545,
                "pitch": 29,
                "velocity": 32,
                "duration": 0.10000000000000053,
                "tempo": 120.0
            },
            {
                "start_time": 6.138636363636364,
                "end_time": 6.24090909090909,
                "pitch": 30,
                "velocity": 32,
                "duration": 0.10227272727272663,
                "tempo": 120.0
            },
            {
                "start_time": 6.2749999999999995,
                "end_time": 6.375,
                "pitch": 31,
                "velocity": 32,
                "duration": 0.10000000000000053,
                "tempo": 120.0
            },
            {
                "start_time": 6.406818181818181,
                "end_time": 6.509090909090909,
                "pitch": 29,
                "velocity": 40,
                "duration": 0.10227272727272751,
                "tempo": 120.0
            },
            {
                "start_time": 6.540909090909091,
                "end_time": 6.640909090909091,
                "pitch": 29,
                "velocity": 40,
                "duration": 0.09999999999999964,
                "tempo": 120.0
            },
            {
                "start_time": 6.675,
                "end_time": 6.7749999999999995,
                "pitch": 30,
                "velocity": 40,
                "duration": 0.09999999999999964,
                "tempo": 120.0
            },
            {
                "start_time": 6.809090909090909,
                "end_time": 6.909090909090909,
                "pitch": 31,
                "velocity": 40,
                "duration": 0.10000000000000053,
                "tempo": 120.0
            },
            {
                "start_time": 6.9431818181818175,
                "end_time": 7.043181818181818,
                "pitch": 29,
                "velocity": 51,
                "duration": 0.10000000000000053,
                "tempo": 120.0
            },
            {
                "start_time": 7.074999999999999,
                "end_time": 7.175,
                "pitch": 29,
                "velocity": 51,
                "duration": 0.10000000000000053,
                "tempo": 120.0
            },
            {
                "start_time": 7.209090909090909,
                "end_time": 7.311363636363636,
                "pitch": 30,
                "velocity": 51,
                "duration": 0.10227272727272663,
                "tempo": 120.0
            },
            {
                "start_time": 7.343181818181818,
                "end_time": 7.445454545454545,
                "pitch": 31,
                "velocity": 51,
                "duration": 0.10227272727272751,
                "tempo": 120.0
            },
            {
                "start_time": 7.4795454545454545,
                "end_time": 7.497727272727272,
                "pitch": 29,
                "velocity": 64,
                "duration": 0.018181818181817633,
                "tempo": 120.0
            },
            {
                "start_time": 7.513636363636364,
                "end_time": 7.531818181818181,
                "pitch": 29,
                "velocity": 64,
                "duration": 0.018181818181817633,
                "tempo": 120.0
            },
            {
                "start_time": 7.547727272727272,
                "end_time": 7.5659090909090905,
                "pitch": 30,
                "velocity": 64,
                "duration": 0.01818181818181852,
                "tempo": 120.0
            },
            {
                "start_time": 7.581818181818181,
                "end_time": 7.6,
                "pitch": 31,
                "velocity": 64,
                "duration": 0.01818181818181852,
                "tempo": 120.0
            },
            {
                "start_time": 7.61590909090909,
                "end_time": 7.7318181818181815,
                "pitch": 32,
                "velocity": 64,
                "duration": 0.11590909090909118,
                "tempo": 120.0
            }
        ],
        "Lead 2 (sawtooth)": [
            {
                "start_time": 0.08863636363636364,
                "end_time": 0.16363636363636364,
                "pitch": 53,
                "velocity": 10,
                "duration": 0.075,
                "tempo": 120.0
            },
            {
                "start_time": 0.18863636363636363,
                "end_time": 0.2659090909090909,
                "pitch": 54,
                "velocity": 10,
                "duration": 0.07727272727272724,
                "tempo": 120.0
            },
            {
                "start_time": 0.2909090909090909,
                "end_time": 0.3909090909090909,
                "pitch": 55,
                "velocity": 10,
                "duration": 0.09999999999999998,
                "tempo": 120.0
            },
            {
                "start_time": 0.425,
                "end_time": 0.525,
                "pitch": 52,
                "velocity": 13,
                "duration": 0.10000000000000003,
                "tempo": 120.0
            },
            {
                "start_time": 0.5590909090909091,
                "end_time": 0.6590909090909091,
                "pitch": 53,
                "velocity": 13,
                "duration": 0.09999999999999998,
                "tempo": 120.0
            },
            {
                "start_time": 0.6909090909090909,
                "end_time": 0.7931818181818181,
                "pitch": 54,
                "velocity": 13,
                "duration": 0.10227272727272718,
                "tempo": 120.0
            },
            {
                "start_time": 0.825,
                "end_time": 0.9272727272727272,
                "pitch": 55,
                "velocity": 13,
                "duration": 0.10227272727272729,
                "tempo": 120.0
            },
            {
                "start_time": 0.9613636363636363,
                "end_time": 1.0636363636363635,
                "pitch": 52,
                "velocity": 16,
                "duration": 0.10227272727272718,
                "tempo": 120.0
            },
            {
                "start_time": 1.0977272727272727,
                "end_time": 1.2,
                "pitch": 53,
                "velocity": 16,
                "duration": 0.10227272727272729,
                "tempo": 120.0
            },
            {
                "start_time": 1.2340909090909091,
                "end_time": 1.3363636363636362,
                "pitch": 54,
                "velocity": 16,
                "duration": 0.10227272727272707,
                "tempo": 120.0
            },
            {
                "start_time": 1.3704545454545454,
                "end_time": 1.4704545454545455,
                "pitch": 55,
                "velocity": 16,
                "duration": 0.10000000000000009,
                "tempo": 120.0
            },
            {
                "start_time": 1.5022727272727272,
                "end_time": 1.6022727272727273,
                "pitch": 52,
                "velocity": 20,
                "duration": 0.10000000000000009,
                "tempo": 120.0
            },
            {
                "start_time": 1.6363636363636362,
                "end_time": 1.7363636363636363,
                "pitch": 53,
                "velocity": 20,
                "duration": 0.10000000000000009,
                "tempo": 120.0
            },
            {
                "start_time": 1.7704545454545453,
                "end_time": 1.8704545454545454,
                "pitch": 54,
                "velocity": 20,
                "duration": 0.10000000000000009,
                "tempo": 120.0
            },
            {
                "start_time": 1.9045454545454545,
                "end_time": 2.0045454545454544,
                "pitch": 55,
                "velocity": 20,
                "duration": 0.09999999999999987,
                "tempo": 120.0
            },
            {
                "start_time": 2.036363636363636,
                "end_time": 2.1386363636363637,
                "pitch": 52,
                "velocity": 25,
                "duration": 0.10227272727272751,
                "tempo": 120.0
            },
            {
                "start_time": 2.1704545454545454,
                "end_time": 2.2704545454545455,
                "pitch": 53,
                "velocity": 25,
                "duration": 0.10000000000000009,
                "tempo": 120.0
            },
            {
                "start_time": 2.3045454545454542,
                "end_time": 2.4045454545454543,
                "pitch": 54,
                "velocity": 25,
                "duration": 0.10000000000000009,
                "tempo": 120.0
            },
            {
                "start_time": 2.4386363636363635,
                "end_time": 2.540909090909091,
                "pitch": 55,
                "velocity": 25,
                "duration": 0.10227272727272751,
                "tempo": 120.0
            },
            {
                "start_time": 2.5749999999999997,
                "end_time": 2.675,
                "pitch": 52,
                "velocity": 32,
                "duration": 0.10000000000000009,
                "tempo": 120.0
            },
            {
                "start_time": 2.709090909090909,
                "end_time": 2.811363636363636,
                "pitch": 53,
                "velocity": 32,
                "duration": 0.10227272727272707,
                "tempo": 120.0
            },
            {
                "start_time": 2.8454545454545452,
                "end_time": 2.9477272727272728,
                "pitch": 54,
                "velocity": 32,
                "duration": 0.10227272727272751,
                "tempo": 120.0
            },
            {
                "start_time": 2.9818181818181815,
                "end_time": 3.0818181818181816,
                "pitch": 55,
                "velocity": 32,
                "duration": 0.10000000000000009,
                "tempo": 120.0
            },
            {
                "start_time": 3.1159090909090907,
                "end_time": 3.131818181818182,
                "pitch": 52,
                "velocity": 51,
                "duration": 0.015909090909091095,
                "tempo": 120.0
            },
            {
                "start_time": 3.15,
                "end_time": 3.1659090909090906,
                "pitch": 53,
                "velocity": 51,
                "duration": 0.01590909090909065,
                "tempo": 120.0
            },
            {
                "start_time": 3.1818181818181817,
                "end_time": 3.1999999999999997,
                "pitch": 54,
                "velocity": 51,
                "duration": 0.018181818181818077,
                "tempo": 120.0
            },
            {
                "start_time": 3.215909090909091,
                "end_time": 3.2318181818181815,
                "pitch": 55,
                "velocity": 51,
                "duration": 0.01590909090909065,
                "tempo": 120.0
            },
            {
                "start_time": 3.25,
                "end_time": 3.3499999999999996,
                "pitch": 56,
                "velocity": 51,
                "duration": 0.09999999999999964,
                "tempo": 120.0
            },
            {
                "start_time": 3.381818181818182,
                "end_time": 3.4,
                "pitch": 52,
                "velocity": 25,
                "duration": 0.018181818181818077,
                "tempo": 120.0
            },
            {
                "start_time": 3.4159090909090906,
                "end_time": 3.4295454545454542,
                "pitch": 53,
                "velocity": 25,
                "duration": 0.013636363636363669,
                "tempo": 120.0
            },
            {
                "start_time": 3.4295454545454542,
                "end_time": 3.434090909090909,
                "pitch": 53,
                "velocity": 25,
                "duration": 0.004545454545454852,
                "tempo": 120.0
            },
            {
                "start_time": 3.4499999999999997,
                "end_time": 3.465909090909091,
                "pitch": 54,
                "velocity": 25,
                "duration": 0.015909090909091095,
                "tempo": 120.0
            },
            {
                "start_time": 3.484090909090909,
                "end_time": 3.5,
                "pitch": 55,
                "velocity": 25,
                "duration": 0.015909090909091095,
                "tempo": 120.0
            },
            {
                "start_time": 3.5159090909090907,
                "end_time": 3.6159090909090907,
                "pitch": 56,
                "velocity": 25,
                "duration": 0.10000000000000009,
                "tempo": 120.0
            },
            {
                "start_time": 3.65,
                "end_time": 3.6659090909090906,
                "pitch": 52,
                "velocity": 20,
                "duration": 0.01590909090909065,
                "tempo": 120.0
            },
            {
                "start_time": 3.684090909090909,
                "end_time": 3.6999999999999997,
                "pitch": 53,
                "velocity": 20,
                "duration": 0.01590909090909065,
                "tempo": 120.0
            },
            {
                "start_time": 3.715909090909091,
                "end_time": 3.734090909090909,
                "pitch": 54,
                "velocity": 20,
                "duration": 0.018181818181818077,
                "tempo": 120.0
            },
            {
                "start_time": 3.75,
                "end_time": 3.7659090909090907,
                "pitch": 55,
                "velocity": 20,
                "duration": 0.01590909090909065,
                "tempo": 120.0
            },
            {
                "start_time": 3.7840909090909087,
                "end_time": 3.884090909090909,
                "pitch": 56,
                "velocity": 20,
                "duration": 0.10000000000000009,
                "tempo": 120.0
            },
            {
                "start_time": 3.918181818181818,
                "end_time": 3.934090909090909,
                "pitch": 52,
                "velocity": 10,
                "duration": 0.015909090909091095,
                "tempo": 120.0
            },
            {
                "start_time": 3.9499999999999997,
                "end_time": 3.968181818181818,
                "pitch": 53,
                "velocity": 10,
                "duration": 0.018181818181818077,
                "tempo": 120.0
            },
            {
                "start_time": 3.984090909090909,
                "end_time": 4.0,
                "pitch": 54,
                "velocity": 10,
                "duration": 0.015909090909091095,
                "tempo": 120.0
            },
            {
                "start_time": 4.018181818181818,
                "end_time": 4.034090909090909,
                "pitch": 55,
                "velocity": 10,
                "duration": 0.01590909090909154,
                "tempo": 120.0
            },
            {
                "start_time": 4.05,
                "end_time": 4.152272727272727,
                "pitch": 56,
                "velocity": 10,
                "duration": 0.10227272727272751,
                "tempo": 120.0
            },
            {
                "start_time": 4.1863636363636365,
                "end_time": 4.288636363636363,
                "pitch": 52,
                "velocity": 10,
                "duration": 0.10227272727272663,
                "tempo": 120.0
            },
            {
                "start_time": 4.322727272727272,
                "end_time": 4.425,
                "pitch": 53,
                "velocity": 10,
                "duration": 0.10227272727272751,
                "tempo": 120.0
            },
            {
                "start_time": 4.459090909090909,
                "end_time": 4.5613636363636365,
                "pitch": 54,
                "velocity": 10,
                "duration": 0.10227272727272751,
                "tempo": 120.0
            },
            {
                "start_time": 4.595454545454545,
                "end_time": 4.695454545454545,
                "pitch": 55,
                "velocity": 10,
                "duration": 0.10000000000000053,
                "tempo": 120.0
            },
            {
                "start_time": 4.7295454545454545,
                "end_time": 4.829545454545454,
                "pitch": 52,
                "velocity": 13,
                "duration": 0.09999999999999964,
                "tempo": 120.0
            },
            {
                "start_time": 4.861363636363636,
                "end_time": 4.961363636363636,
                "pitch": 53,
                "velocity": 13,
                "duration": 0.09999999999999964,
                "tempo": 120.0
            },
            {
                "start_time": 4.995454545454545,
                "end_time": 5.095454545454545,
                "pitch": 54,
                "velocity": 13,
                "duration": 0.09999999999999964,
                "tempo": 120.0
            },
            {
                "start_time": 5.129545454545454,
                "end_time": 5.2295454545454545,
                "pitch": 55,
                "velocity": 13,
                "duration": 0.10000000000000053,
                "tempo": 120.0
            },
            {
                "start_time": 5.263636363636364,
                "end_time": 5.363636363636363,
                "pitch": 52,
                "velocity": 16,
                "duration": 0.09999999999999964,
                "tempo": 120.0
            },
            {
                "start_time": 5.3954545454545455,
                "end_time": 5.497727272727272,
                "pitch": 53,
                "velocity": 16,
                "duration": 0.10227272727272663,
                "tempo": 120.0
            },
            {
                "start_time": 5.529545454545454,
                "end_time": 5.629545454545454,
                "pitch": 54,
                "velocity": 16,
                "duration": 0.09999999999999964,
                "tempo": 120.0
            },
            {
                "start_time": 5.663636363636363,
                "end_time": 5.765909090909091,
                "pitch": 55,
                "velocity": 16,
                "duration": 0.10227272727272751,
                "tempo": 120.0
            },
            {
                "start_time": 5.8,
                "end_time": 5.902272727272727,
                "pitch": 52,
                "velocity": 20,
                "duration": 0.10227272727272751,
                "tempo": 120.0
            },
            {
                "start_time": 5.9363636363636365,
                "end_time": 6.038636363636363,
                "pitch": 53,
                "velocity": 20,
                "duration": 0.10227272727272663,
                "tempo": 120.0
            },
            {
                "start_time": 6.070454545454545,
                "end_time": 6.172727272727273,
                "pitch": 54,
                "velocity": 20,
                "duration": 0.10227272727272751,
                "tempo": 120.0
            },
            {
                "start_time": 6.206818181818181,
                "end_time": 6.306818181818182,
                "pitch": 55,
                "velocity": 20,
                "duration": 0.10000000000000053,
                "tempo": 120.0
            },
            {
                "start_time": 6.340909090909091,
                "end_time": 6.4409090909090905,
                "pitch": 52,
                "velocity": 25,
                "duration": 0.09999999999999964,
                "tempo": 120.0
            },
            {
                "start_time": 6.475,
                "end_time": 6.574999999999999,
                "pitch": 53,
                "velocity": 25,
                "duration": 0.09999999999999964,
                "tempo": 120.0
            },
            {
                "start_time": 6.6090909090909085,
                "end_time": 6.709090909090909,
                "pitch": 54,
                "velocity": 25,
                "duration": 0.10000000000000053,
                "tempo": 120.0
            },
            {
                "start_time": 6.74090909090909,
                "end_time": 6.843181818181818,
                "pitch": 55,
                "velocity": 25,
                "duration": 0.10227272727272751,
                "tempo": 120.0
            },
            {
                "start_time": 6.875,
                "end_time": 6.975,
                "pitch": 52,
                "velocity": 32,
                "duration": 0.09999999999999964,
                "tempo": 120.0
            },
            {
                "start_time": 7.009090909090909,
                "end_time": 7.1090909090909085,
                "pitch": 53,
                "velocity": 32,
                "duration": 0.09999999999999964,
                "tempo": 120.0
            },
            {
                "start_time": 7.143181818181818,
                "end_time": 7.243181818181818,
                "pitch": 54,
                "velocity": 32,
                "duration": 0.10000000000000053,
                "tempo": 120.0
            },
            {
                "start_time": 7.277272727272727,
                "end_time": 7.377272727272727,
                "pitch": 55,
                "velocity": 32,
                "duration": 0.09999999999999964,
                "tempo": 120.0
            },
            {
                "start_time": 7.411363636363636,
                "end_time": 7.429545454545454,
                "pitch": 52,
                "velocity": 51,
                "duration": 0.018181818181817633,
                "tempo": 120.0
            },
            {
                "start_time": 7.445454545454545,
                "end_time": 7.463636363636363,
                "pitch": 53,
                "velocity": 51,
                "duration": 0.018181818181817633,
                "tempo": 120.0
            },
            {
                "start_time": 7.4795454545454545,
                "end_time": 7.497727272727272,
                "pitch": 54,
                "velocity": 51,
                "duration": 0.018181818181817633,
                "tempo": 120.0
            },
            {
                "start_time": 7.513636363636364,
                "end_time": 7.531818181818181,
                "pitch": 55,
                "velocity": 51,
                "duration": 0.018181818181817633,
                "tempo": 120.0
            },
            {
                "start_time": 7.547727272727272,
                "end_time": 7.6499999999999995,
                "pitch": 56,
                "velocity": 51,
                "duration": 0.10227272727272751,
                "tempo": 120.0
            },
            {
                "start_time": 7.684090909090909,
                "end_time": 7.702272727272727,
                "pitch": 52,
                "velocity": 25,
                "duration": 0.01818181818181852,
                "tempo": 120.0
            }
        ]
    }
}