{
    "track_id": "Solomon no Kagi (FM) - 07 - Solomon_s Room",
    "mood": "angry",
    "instruments": {
        "Lead 2 (sawtooth)": [
            {
                "start_time": 16.022727272727273,
                "end_time": 16.125,
                "pitch": 59,
                "velocity": 80,
                "duration": 0.10227272727272663,
                "tempo": 120.0
            },
            {
                "start_time": 16.15909090909091,
                "end_time": 16.259090909090908,
                "pitch": 59,
                "velocity": 80,
                "duration": 0.09999999999999787,
                "tempo": 120.0
            },
            {
                "start_time": 16.293181818181818,
                "end_time": 16.393181818181816,
                "pitch": 59,
                "velocity": 80,
                "duration": 0.09999999999999787,
                "tempo": 120.0
            },
            {
                "start_time": 16.427272727272726,
                "end_time": 16.743181818181817,
                "pitch": 55,
                "velocity": 80,
                "duration": 0.31590909090909136,
                "tempo": 120.0
            },
            {
                "start_time": 16.827272727272728,
                "end_time": 17.145454545454545,
                "pitch": 57,
                "velocity": 80,
                "duration": 0.31818181818181657,
                "tempo": 120.0
            },
            {
                "start_time": 17.229545454545455,
                "end_time": 17.554545454545455,
                "pitch": 54,
                "velocity": 80,
                "duration": 0.3249999999999993,
                "tempo": 120.0
            },
            {
                "start_time": 17.64090909090909,
                "end_time": 17.74090909090909,
                "pitch": 59,
                "velocity": 80,
                "duration": 0.09999999999999787,
                "tempo": 120.0
            },
            {
                "start_time": 17.772727272727273,
                "end_time": 17.87272727272727,
                "pitch": 59,
                "velocity": 80,
                "duration": 0.09999999999999787,
                "tempo": 120.0
            },
            {
                "start_time": 17.90681818181818,
                "end_time": 18.00681818181818,
                "pitch": 59,
                "velocity": 80,
                "duration": 0.09999999999999787,
                "tempo": 120.0
            },
            {
                "start_time": 18.04090909090909,
                "end_time": 18.349999999999998,
                "pitch": 55,
                "velocity": 80,
                "duration": 0.30909090909090864,
                "tempo": 120.0
            },
            {
                "start_time": 18.43181818181818,
                "end_time": 18.75,
                "pitch": 57,
                "velocity": 80,
                "duration": 0.3181818181818201,
                "tempo": 120.0
            },
            {
                "start_time": 18.831818181818182,
                "end_time": 19.15681818181818,
                "pitch": 54,
                "velocity": 80,
                "duration": 0.3249999999999993,
                "tempo": 120.0
            },
            {
                "start_time": 19.243181818181817,
                "end_time": 19.34318181818182,
                "pitch": 59,
                "velocity": 80,
                "duration": 0.10000000000000142,
                "tempo": 120.0
            },
            {
                "start_time": 19.377272727272725,
                "end_time": 19.477272727272727,
                "pitch": 59,
                "velocity": 80,
                "duration": 0.10000000000000142,
                "tempo": 120.0
            },
            {
                "start_time": 19.511363636363637,
                "end_time": 19.611363636363635,
                "pitch": 59,
                "velocity": 80,
                "duration": 0.09999999999999787,
                "tempo": 120.0
            },
            {
                "start_time": 19.645454545454545,
                "end_time": 19.956818181818182,
                "pitch": 55,
                "velocity": 80,
                "duration": 0.3113636363636374,
                "tempo": 120.0
            },
            {
                "start_time": 20.038636363636364,
                "end_time": 20.35681818181818,
                "pitch": 57,
                "velocity": 80,
                "duration": 0.31818181818181657,
                "tempo": 120.0
            },
            {
                "start_time": 20.44090909090909,
                "end_time": 20.76590909090909,
                "pitch": 54,
                "velocity": 80,
                "duration": 0.3249999999999993,
                "tempo": 120.0
            },
            {
                "start_time": 20.852272727272727,
                "end_time": 20.952272727272724,
                "pitch": 59,
                "velocity": 80,
                "duration": 0.09999999999999787,
                "tempo": 120.0
            },
            {
                "start_time": 20.98409090909091,
                "end_time": 21.084090909090907,
                "pitch": 59,
                "velocity": 80,
                "duration": 0.09999999999999787,
                "tempo": 120.0
            },
            {
                "start_time": 21.118181818181817,
                "end_time": 21.21818181818182,
                "pitch": 59,
                "velocity": 80,
                "duration": 0.10000000000000142,
                "tempo": 120.0
            },
            {
                "start_time": 21.252272727272725,
                "end_time": 21.561363636363634,
                "pitch": 55,
                "velocity": 80,
                "duration": 0.30909090909090864,
                "tempo": 120.0
            },
            {
                "start_time": 21.643181818181816,
                "end_time": 21.961363636363636,
                "pitch": 57,
                "velocity": 80,
                "duration": 0.3181818181818201,
                "tempo": 120.0
            },
            {
                "start_time": 22.043181818181818,
                "end_time": 22.368181818181817,
                "pitch": 54,
                "velocity": 80,
                "duration": 0.3249999999999993,
                "tempo": 120.0
            }
        ],
        "Oboe": [
            {
                "start_time": 1.5704545454545453,
                "end_time": 2.2136363636363634,
                "pitch": 36,
                "velocity": 80,
                "duration": 0.6431818181818181,
                "tempo": 120.0
            },
            {
                "start_time": 2.384090909090909,
                "end_time": 3.018181818181818,
                "pitch": 38,
                "velocity": 80,
                "duration": 0.6340909090909093,
                "tempo": 120.0
            },
            {
                "start_time": 3.184090909090909,
                "end_time": 3.8204545454545453,
                "pitch": 40,
                "velocity": 80,
                "duration": 0.6363636363636362,
                "tempo": 120.0
            },
            {
                "start_time": 4.779545454545454,
                "end_time": 5.418181818181818,
                "pitch": 36,
                "velocity": 80,
                "duration": 0.6386363636363637,
                "tempo": 120.0
            },
            {
                "start_time": 5.584090909090909,
                "end_time": 5.738636363636363,
                "pitch": 35,
                "velocity": 80,
                "duration": 0.15454545454545432,
                "tempo": 120.0
            },
            {
                "start_time": 5.790909090909091,
                "end_time": 5.9431818181818175,
                "pitch": 33,
                "velocity": 80,
                "duration": 0.15227272727272645,
                "tempo": 120.0
            },
            {
                "start_time": 5.995454545454545,
                "end_time": 6.1477272727272725,
                "pitch": 36,
                "velocity": 80,
                "duration": 0.15227272727272734,
                "tempo": 120.0
            },
            {
                "start_time": 6.197727272727272,
                "end_time": 6.347727272727273,
                "pitch": 35,
                "velocity": 80,
                "duration": 0.15000000000000036,
                "tempo": 120.0
            },
            {
                "start_time": 6.802272727272727,
                "end_time": 7.429545454545454,
                "pitch": 40,
                "velocity": 80,
                "duration": 0.627272727272727,
                "tempo": 120.0
            },
            {
                "start_time": 8.395454545454545,
                "end_time": 8.71590909090909,
                "pitch": 36,
                "velocity": 80,
                "duration": 0.3204545454545453,
                "tempo": 120.0
            },
            {
                "start_time": 9.209090909090909,
                "end_time": 9.520454545454545,
                "pitch": 38,
                "velocity": 80,
                "duration": 0.3113636363636356,
                "tempo": 120.0
            },
            {
                "start_time": 10.011363636363637,
                "end_time": 10.331818181818182,
                "pitch": 40,
                "velocity": 80,
                "duration": 0.3204545454545453,
                "tempo": 120.0
            },
            {
                "start_time": 10.818181818181818,
                "end_time": 11.136363636363637,
                "pitch": 40,
                "velocity": 80,
                "duration": 0.31818181818181834,
                "tempo": 120.0
            },
            {
                "start_time": 11.220454545454546,
                "end_time": 11.854545454545454,
                "pitch": 36,
                "velocity": 80,
                "duration": 0.6340909090909079,
                "tempo": 120.0
            },
            {
                "start_time": 12.022727272727272,
                "end_time": 12.665909090909091,
                "pitch": 33,
                "velocity": 80,
                "duration": 0.6431818181818194,
                "tempo": 120.0
            },
            {
                "start_time": 12.836363636363636,
                "end_time": 13.461363636363636,
                "pitch": 30,
                "velocity": 80,
                "duration": 0.625,
                "tempo": 120.0
            },
            {
                "start_time": 13.629545454545454,
                "end_time": 14.26590909090909,
                "pitch": 27,
                "velocity": 80,
                "duration": 0.6363636363636367,
                "tempo": 120.0
            },
            {
                "start_time": 14.434090909090909,
                "end_time": 15.697727272727272,
                "pitch": 35,
                "velocity": 80,
                "duration": 1.2636363636363637,
                "tempo": 120.0
            },
            {
                "start_time": 16.022727272727273,
                "end_time": 17.297727272727272,
                "pitch": 40,
                "velocity": 80,
                "duration": 1.2749999999999986,
                "tempo": 120.0
            },
            {
                "start_time": 17.64090909090909,
                "end_time": 18.9,
                "pitch": 40,
                "velocity": 80,
                "duration": 1.259090909090908,
                "tempo": 120.0
            },
            {
                "start_time": 19.243181818181817,
                "end_time": 20.509090909090908,
                "pitch": 40,
                "velocity": 80,
                "duration": 1.2659090909090907,
                "tempo": 120.0
            },
            {
                "start_time": 20.852272727272727,
                "end_time": 22.111363636363635,
                "pitch": 40,
                "velocity": 80,
                "duration": 1.259090909090908,
                "tempo": 120.0
            },
            {
                "start_time": 22.470454545454544,
                "end_time": 48.095454545454544,
                "pitch": 40,
                "velocity": 80,
                "duration": 25.625,
                "tempo": 120.0
            },
            {
                "start_time": 48.095454545454544,
                "end_time": 48.72954545454545,
                "pitch": 43,
                "velocity": 51,
                "duration": 0.6340909090909079,
                "tempo": 120.0
            },
            {
                "start_time": 49.09772727272727,
                "end_time": 49.24772727272727,
                "pitch": 43,
                "velocity": 51,
                "duration": 0.14999999999999858,
                "tempo": 120.0
            },
            {
                "start_time": 49.29772727272727,
                "end_time": 49.45227272727273,
                "pitch": 43,
                "velocity": 51,
                "duration": 0.1545454545454561,
                "tempo": 120.0
            },
            {
                "start_time": 49.502272727272725,
                "end_time": 49.65681818181818,
                "pitch": 42,
                "velocity": 51,
                "duration": 0.1545454545454561,
                "tempo": 120.0
            },
            {
                "start_time": 49.709090909090904,
                "end_time": 50.334090909090904,
                "pitch": 40,
                "velocity": 51,
                "duration": 0.625,
                "tempo": 120.0
            },
            {
                "start_time": 50.70227272727273,
                "end_time": 50.85227272727273,
                "pitch": 40,
                "velocity": 51,
                "duration": 0.14999999999999858,
                "tempo": 120.0
            },
            {
                "start_time": 50.902272727272724,
                "end_time": 51.05681818181818,
                "pitch": 40,
                "velocity": 51,
                "duration": 0.1545454545454561,
                "tempo": 120.0
            },
            {
                "start_time": 51.10909090909091,
                "end_time": 51.26363636363636,
                "pitch": 41,
                "velocity": 51,
                "duration": 0.154545454545449,
                "tempo": 120.0
            },
            {
                "start_time": 51.31363636363636,
                "end_time": 51.93863636363636,
                "pitch": 45,
                "velocity": 51,
                "duration": 0.625,
                "tempo": 120.0
            },
            {
                "start_time": 52.30681818181818,
                "end_time": 52.45681818181818,
                "pitch": 45,
                "velocity": 51,
                "duration": 0.14999999999999858,
                "tempo": 120.0
            },
            {
                "start_time": 52.50681818181818,
                "end_time": 52.65909090909091,
                "pitch": 45,
                "velocity": 51,
                "duration": 0.15227272727272378,
                "tempo": 120.0
            },
            {
                "start_time": 52.711363636363636,
                "end_time": 52.865909090909085,
                "pitch": 43,
                "velocity": 51,
                "duration": 0.154545454545449,
                "tempo": 120.0
            },
            {
                "start_time": 52.91590909090909,
                "end_time": 53.543181818181814,
                "pitch": 42,
                "velocity": 51,
                "duration": 0.6272727272727252,
                "tempo": 120.0
            },
            {
                "start_time": 53.709090909090904,
                "end_time": 54.34318181818182,
                "pitch": 47,
                "velocity": 51,
                "duration": 0.634090909090915,
                "tempo": 120.0
            }
        ],
        "Acoustic Grand Piano": [
            {
                "start_time": 22.470454545454544,
                "end_time": 22.552272727272726,
                "pitch": 71,
                "velocity": 40,
                "duration": 0.08181818181818201,
                "tempo": 120.0
            },
            {
                "start_time": 22.586363636363636,
                "end_time": 22.68409090909091,
                "pitch": 67,
                "velocity": 40,
                "duration": 0.09772727272727266,
                "tempo": 120.0
            },
            {
                "start_time": 22.71590909090909,
                "end_time": 22.813636363636363,
                "pitch": 64,
                "velocity": 40,
                "duration": 0.09772727272727266,
                "tempo": 120.0
            },
            {
                "start_time": 22.847727272727273,
                "end_time": 22.94772727272727,
                "pitch": 71,
                "velocity": 40,
                "duration": 0.09999999999999787,
                "tempo": 120.0
            },
            {
                "start_time": 22.98181818181818,
                "end_time": 23.081818181818182,
                "pitch": 67,
                "velocity": 40,
                "duration": 0.10000000000000142,
                "tempo": 120.0
            },
            {
                "start_time": 23.11590909090909,
                "end_time": 23.21590909090909,
                "pitch": 64,
                "velocity": 40,
                "duration": 0.10000000000000142,
                "tempo": 120.0
            },
            {
                "start_time": 23.25,
                "end_time": 23.349999999999998,
                "pitch": 71,
                "velocity": 40,
                "duration": 0.09999999999999787,
                "tempo": 120.0
            },
            {
                "start_time": 23.38181818181818,
                "end_time": 23.48181818181818,
                "pitch": 67,
                "velocity": 40,
                "duration": 0.10000000000000142,
                "tempo": 120.0
            },
            {
                "start_time": 23.51590909090909,
                "end_time": 23.61590909090909,
                "pitch": 64,
                "velocity": 40,
                "duration": 0.09999999999999787,
                "tempo": 120.0
            },
            {
                "start_time": 23.65,
                "end_time": 23.75,
                "pitch": 71,
                "velocity": 40,
                "duration": 0.10000000000000142,
                "tempo": 120.0
            },
            {
                "start_time": 23.78181818181818,
                "end_time": 23.88181818181818,
                "pitch": 67,
                "velocity": 40,
                "duration": 0.09999999999999787,
                "tempo": 120.0
            },
            {
                "start_time": 23.91590909090909,
                "end_time": 24.01590909090909,
                "pitch": 64,
                "velocity": 40,
                "duration": 0.10000000000000142,
                "tempo": 120.0
            },
            {
                "start_time": 24.049999999999997,
                "end_time": 24.15,
                "pitch": 71,
                "velocity": 40,
                "duration": 0.10000000000000142,
                "tempo": 120.0
            },
            {
                "start_time": 24.18409090909091,
                "end_time": 24.284090909090907,
                "pitch": 67,
                "velocity": 40,
                "duration": 0.09999999999999787,
                "tempo": 120.0
            },
            {
                "start_time": 24.318181818181817,
                "end_time": 24.418181818181818,
                "pitch": 64,
                "velocity": 40,
                "duration": 0.10000000000000142,
                "tempo": 120.0
            },
            {
                "start_time": 24.452272727272724,
                "end_time": 24.552272727272726,
                "pitch": 71,
                "velocity": 40,
                "duration": 0.10000000000000142,
                "tempo": 120.0
            },
            {
                "start_time": 24.586363636363636,
                "end_time": 24.686363636363634,
                "pitch": 67,
                "velocity": 40,
                "duration": 0.09999999999999787,
                "tempo": 120.0
            },
            {
                "start_time": 24.71818181818182,
                "end_time": 24.818181818181817,
                "pitch": 64,
                "velocity": 40,
                "duration": 0.09999999999999787,
                "tempo": 120.0
            },
            {
                "start_time": 24.852272727272727,
                "end_time": 24.952272727272724,
                "pitch": 71,
                "velocity": 40,
                "duration": 0.09999999999999787,
                "tempo": 120.0
            },
            {
                "start_time": 24.986363636363635,
                "end_time": 25.086363636363636,
                "pitch": 67,
                "velocity": 40,
                "duration": 0.10000000000000142,
                "tempo": 120.0
            },
            {
                "start_time": 25.120454545454542,
                "end_time": 25.220454545454544,
                "pitch": 64,
                "velocity": 40,
                "duration": 0.10000000000000142,
                "tempo": 120.0
            },
            {
                "start_time": 25.254545454545454,
                "end_time": 25.354545454545452,
                "pitch": 71,
                "velocity": 40,
                "duration": 0.09999999999999787,
                "tempo": 120.0
            },
            {
                "start_time": 25.388636363636362,
                "end_time": 25.488636363636363,
                "pitch": 67,
                "velocity": 40,
                "duration": 0.10000000000000142,
                "tempo": 120.0
            },
            {
                "start_time": 25.520454545454545,
                "end_time": 25.620454545454542,
                "pitch": 64,
                "velocity": 40,
                "duration": 0.09999999999999787,
                "tempo": 120.0
            },
            {
                "start_time": 25.654545454545453,
                "end_time": 25.754545454545454,
                "pitch": 70,
                "velocity": 40,
                "duration": 0.10000000000000142,
                "tempo": 120.0
            },
            {
                "start_time": 25.788636363636364,
                "end_time": 25.888636363636362,
                "pitch": 66,
                "velocity": 40,
                "duration": 0.09999999999999787,
                "tempo": 120.0
            },
            {
                "start_time": 25.920454545454543,
                "end_time": 26.020454545454545,
                "pitch": 64,
                "velocity": 40,
                "duration": 0.10000000000000142,
                "tempo": 120.0
            },
            {
                "start_time": 26.054545454545455,
                "end_time": 26.154545454545453,
                "pitch": 70,
                "velocity": 40,
                "duration": 0.09999999999999787,
                "tempo": 120.0
            },
            {
                "start_time": 26.188636363636363,
                "end_time": 26.288636363636364,
                "pitch": 66,
                "velocity": 40,
                "duration": 0.10000000000000142,
                "tempo": 120.0
            },
            {
                "start_time": 26.32272727272727,
                "end_time": 26.424999999999997,
                "pitch": 64,
                "velocity": 40,
                "duration": 0.10227272727272663,
                "tempo": 120.0
            },
            {
                "start_time": 26.456818181818182,
                "end_time": 26.55681818181818,
                "pitch": 70,
                "velocity": 40,
                "duration": 0.09999999999999787,
                "tempo": 120.0
            },
            {
                "start_time": 26.59090909090909,
                "end_time": 26.69090909090909,
                "pitch": 66,
                "velocity": 40,
                "duration": 0.10000000000000142,
                "tempo": 120.0
            },
            {
                "start_time": 26.724999999999998,
                "end_time": 26.825,
                "pitch": 64,
                "velocity": 40,
                "duration": 0.10000000000000142,
                "tempo": 120.0
            },
            {
                "start_time": 26.85681818181818,
                "end_time": 26.959090909090907,
                "pitch": 70,
                "velocity": 40,
                "duration": 0.10227272727272663,
                "tempo": 120.0
            },
            {
                "start_time": 26.99090909090909,
                "end_time": 27.093181818181815,
                "pitch": 66,
                "velocity": 40,
                "duration": 0.10227272727272663,
                "tempo": 120.0
            },
            {
                "start_time": 27.125,
                "end_time": 27.227272727272727,
                "pitch": 64,
                "velocity": 40,
                "duration": 0.10227272727272663,
                "tempo": 120.0
            },
            {
                "start_time": 27.259090909090908,
                "end_time": 27.35909090909091,
                "pitch": 70,
                "velocity": 40,
                "duration": 0.10000000000000142,
                "tempo": 120.0
            },
            {
                "start_time": 27.393181818181816,
                "end_time": 27.493181818181817,
                "pitch": 66,
                "velocity": 40,
                "duration": 0.10000000000000142,
                "tempo": 120.0
            },
            {
                "start_time": 27.527272727272727,
                "end_time": 27.627272727272725,
                "pitch": 64,
                "velocity": 40,
                "duration": 0.09999999999999787,
                "tempo": 120.0
            },
            {
                "start_time": 27.659090909090907,
                "end_time": 27.759090909090908,
                "pitch": 70,
                "velocity": 40,
                "duration": 0.10000000000000142,
                "tempo": 120.0
            },
            {
                "start_time": 27.793181818181818,
                "end_time": 27.893181818181816,
                "pitch": 66,
                "velocity": 40,
                "duration": 0.09999999999999787,
                "tempo": 120.0
            },
            {
                "start_time": 27.927272727272726,
                "end_time": 28.027272727272727,
                "pitch": 64,
                "velocity": 40,
                "duration": 0.10000000000000142,
                "tempo": 120.0
            },
            {
                "start_time": 28.05909090909091,
                "end_time": 28.161363636363635,
                "pitch": 70,
                "velocity": 40,
                "duration": 0.10227272727272663,
                "tempo": 120.0
            },
            {
                "start_time": 28.195454545454545,
                "end_time": 28.295454545454543,
                "pitch": 66,
                "velocity": 40,
                "duration": 0.09999999999999787,
                "tempo": 120.0
            },
            {
                "start_time": 28.329545454545453,
                "end_time": 28.429545454545455,
                "pitch": 64,
                "velocity": 40,
                "duration": 0.10000000000000142,
                "tempo": 120.0
            },
            {
                "start_time": 28.46363636363636,
                "end_time": 28.563636363636363,
                "pitch": 70,
                "velocity": 40,
                "duration": 0.10000000000000142,
                "tempo": 120.0
            },
            {
                "start_time": 28.595454545454544,
                "end_time": 28.695454545454545,
                "pitch": 66,
                "velocity": 40,
                "duration": 0.10000000000000142,
                "tempo": 120.0
            },
            {
                "start_time": 28.729545454545452,
                "end_time": 28.829545454545453,
                "pitch": 64,
                "velocity": 40,
                "duration": 0.10000000000000142,
                "tempo": 120.0
            },
            {
                "start_time": 28.863636363636363,
                "end_time": 28.96363636363636,
                "pitch": 69,
                "velocity": 40,
                "duration": 0.09999999999999787,
                "tempo": 120.0
            },
            {
                "start_time": 28.99772727272727,
                "end_time": 29.097727272727273,
                "pitch": 66,
                "velocity": 40,
                "duration": 0.10000000000000142,
                "tempo": 120.0
            },
            {
                "start_time": 29.13181818181818,
                "end_time": 29.23181818181818,
                "pitch": 63,
                "velocity": 40,
                "duration": 0.10000000000000142,
                "tempo": 120.0
            },
            {
                "start_time": 29.26590909090909,
                "end_time": 29.36590909090909,
                "pitch": 69,
                "velocity": 40,
                "duration": 0.09999999999999787,
                "tempo": 120.0
            },
            {
                "start_time": 29.4,
                "end_time": 29.5,
                "pitch": 66,
                "velocity": 40,
                "duration": 0.10000000000000142,
                "tempo": 120.0
            },
            {
                "start_time": 29.53181818181818,
                "end_time": 29.63181818181818,
                "pitch": 63,
                "velocity": 40,
                "duration": 0.09999999999999787,
                "tempo": 120.0
            },
            {
                "start_time": 29.66590909090909,
                "end_time": 29.76590909090909,
                "pitch": 69,
                "velocity": 40,
                "duration": 0.10000000000000142,
                "tempo": 120.0
            },
            {
                "start_time": 29.799999999999997,
                "end_time": 29.9,
                "pitch": 66,
                "velocity": 40,
                "duration": 0.10000000000000142,
                "tempo": 120.0
            },
            {
                "start_time": 29.93181818181818,
                "end_time": 30.03181818181818,
                "pitch": 63,
                "velocity": 40,
                "duration": 0.10000000000000142,
                "tempo": 120.0
            },
            {
                "start_time": 30.065909090909088,
                "end_time": 30.16590909090909,
                "pitch": 69,
                "velocity": 40,
                "duration": 0.10000000000000142,
                "tempo": 120.0
            },
            {
                "start_time": 30.2,
                "end_time": 30.299999999999997,
                "pitch": 66,
                "velocity": 40,
                "duration": 0.09999999999999787,
                "tempo": 120.0
            },
            {
                "start_time": 30.334090909090907,
                "end_time": 30.43409090909091,
                "pitch": 63,
                "velocity": 40,
                "duration": 0.10000000000000142,
                "tempo": 120.0
            },
            {
                "start_time": 30.468181818181815,
                "end_time": 30.568181818181817,
                "pitch": 69,
                "velocity": 40,
                "duration": 0.10000000000000142,
                "tempo": 120.0
            },
            {
                "start_time": 30.602272727272727,
                "end_time": 30.702272727272724,
                "pitch": 66,
                "velocity": 40,
                "duration": 0.09999999999999787,
                "tempo": 120.0
            },
            {
                "start_time": 30.73409090909091,
                "end_time": 30.834090909090907,
                "pitch": 63,
                "velocity": 40,
                "duration": 0.09999999999999787,
                "tempo": 120.0
            },
            {
                "start_time": 30.868181818181817,
                "end_time": 30.968181818181815,
                "pitch": 69,
                "velocity": 40,
                "duration": 0.09999999999999787,
                "tempo": 120.0
            },
            {
                "start_time": 31.002272727272725,
                "end_time": 31.102272727272727,
                "pitch": 66,
                "velocity": 40,
                "duration": 0.10000000000000142,
                "tempo": 120.0
            },
            {
                "start_time": 31.136363636363633,
                "end_time": 31.236363636363635,
                "pitch": 63,
                "velocity": 40,
                "duration": 0.10000000000000142,
                "tempo": 120.0
            },
            {
                "start_time": 31.270454545454545,
                "end_time": 31.370454545454542,
                "pitch": 69,
                "velocity": 40,
                "duration": 0.09999999999999787,
                "tempo": 120.0
            },
            {
                "start_time": 31.404545454545453,
                "end_time": 31.504545454545454,
                "pitch": 66,
                "velocity": 40,
                "duration": 0.10000000000000142,
                "tempo": 120.0
            },
            {
                "start_time": 31.53863636363636,
                "end_time": 31.638636363636362,
                "pitch": 63,
                "velocity": 40,
                "duration": 0.10000000000000142,
                "tempo": 120.0
            },
            {
                "start_time": 31.670454545454543,
                "end_time": 31.770454545454545,
                "pitch": 69,
                "velocity": 40,
                "duration": 0.10000000000000142,
                "tempo": 120.0
            },
            {
                "start_time": 31.804545454545455,
                "end_time": 31.904545454545453,
                "pitch": 66,
                "velocity": 40,
                "duration": 0.09999999999999787,
                "tempo": 120.0
            },
            {
                "start_time": 31.938636363636363,
                "end_time": 32.038636363636364,
                "pitch": 63,
                "velocity": 40,
                "duration": 0.10000000000000142,
                "tempo": 120.0
            },
            {
                "start_time": 32.070454545454545,
                "end_time": 32.17272727272727,
                "pitch": 67,
                "velocity": 40,
                "duration": 0.10227272727272663,
                "tempo": 120.0
            },
            {
                "start_time": 32.20454545454545,
                "end_time": 32.30681818181818,
                "pitch": 64,
                "velocity": 40,
                "duration": 0.10227272727272663,
                "tempo": 120.0
            },
            {
                "start_time": 32.33863636363636,
                "end_time": 32.44090909090909,
                "pitch": 71,
                "velocity": 40,
                "duration": 0.10227272727272663,
                "tempo": 120.0
            },
            {
                "start_time": 32.47272727272727,
                "end_time": 32.574999999999996,
                "pitch": 67,
                "velocity": 40,
                "duration": 0.10227272727272663,
                "tempo": 120.0
            },
            {
                "start_time": 32.60681818181818,
                "end_time": 32.70909090909091,
                "pitch": 64,
                "velocity": 40,
                "duration": 0.10227272727273373,
                "tempo": 120.0
            },
            {
                "start_time": 32.74318181818182,
                "end_time": 32.84318181818182,
                "pitch": 71,
                "velocity": 40,
                "duration": 0.10000000000000142,
                "tempo": 120.0
            },
            {
                "start_time": 32.877272727272725,
                "end_time": 32.97727272727273,
                "pitch": 67,
                "velocity": 40,
                "duration": 0.10000000000000142,
                "tempo": 120.0
            },
            {
                "start_time": 33.00909090909091,
                "end_time": 33.10909090909091,
                "pitch": 64,
                "velocity": 40,
                "duration": 0.10000000000000142,
                "tempo": 120.0
            },
            {
                "start_time": 33.143181818181816,
                "end_time": 33.24318181818182,
                "pitch": 71,
                "velocity": 40,
                "duration": 0.10000000000000142,
                "tempo": 120.0
            },
            {
                "start_time": 33.277272727272724,
                "end_time": 33.377272727272725,
                "pitch": 67,
                "velocity": 40,
                "duration": 0.10000000000000142,
                "tempo": 120.0
            },
            {
                "start_time": 33.40909090909091,
                "end_time": 33.50909090909091,
                "pitch": 64,
                "velocity": 40,
                "duration": 0.10000000000000142,
                "tempo": 120.0
            },
            {
                "start_time": 33.543181818181814,
                "end_time": 33.643181818181816,
                "pitch": 71,
                "velocity": 40,
                "duration": 0.10000000000000142,
                "tempo": 120.0
            },
            {
                "start_time": 33.67727272727272,
                "end_time": 33.777272727272724,
                "pitch": 67,
                "velocity": 40,
                "duration": 0.10000000000000142,
                "tempo": 120.0
            },
            {
                "start_time": 33.809090909090905,
                "end_time": 33.90909090909091,
                "pitch": 64,
                "velocity": 40,
                "duration": 0.10000000000000142,
                "tempo": 120.0
            },
            {
                "start_time": 33.94318181818181,
                "end_time": 34.043181818181814,
                "pitch": 71,
                "velocity": 40,
                "duration": 0.10000000000000142,
                "tempo": 120.0
            },
            {
                "start_time": 34.07727272727273,
                "end_time": 34.17727272727272,
                "pitch": 67,
                "velocity": 40,
                "duration": 0.09999999999999432,
                "tempo": 120.0
            },
            {
                "start_time": 34.20909090909091,
                "end_time": 34.309090909090905,
                "pitch": 64,
                "velocity": 40,
                "duration": 0.09999999999999432,
                "tempo": 120.0
            },
            {
                "start_time": 34.34318181818182,
                "end_time": 34.44318181818181,
                "pitch": 71,
                "velocity": 40,
                "duration": 0.09999999999999432,
                "tempo": 120.0
            },
            {
                "start_time": 34.47727272727273,
                "end_time": 34.57727272727273,
                "pitch": 69,
                "velocity": 40,
                "duration": 0.10000000000000142,
                "tempo": 120.0
            },
            {
                "start_time": 34.611363636363635,
                "end_time": 34.711363636363636,
                "pitch": 71,
                "velocity": 40,
                "duration": 0.10000000000000142,
                "tempo": 120.0
            },
            {
                "start_time": 34.74545454545454,
                "end_time": 34.845454545454544,
                "pitch": 69,
                "velocity": 40,
                "duration": 0.10000000000000142,
                "tempo": 120.0
            },
            {
                "start_time": 34.87954545454545,
                "end_time": 34.97954545454545,
                "pitch": 67,
                "velocity": 40,
                "duration": 0.10000000000000142,
                "tempo": 120.0
            },
            {
                "start_time": 35.01136363636363,
                "end_time": 35.111363636363635,
                "pitch": 66,
                "velocity": 40,
                "duration": 0.10000000000000142,
                "tempo": 120.0
            },
            {
                "start_time": 35.14545454545454,
                "end_time": 35.24545454545454,
                "pitch": 67,
                "velocity": 40,
                "duration": 0.10000000000000142,
                "tempo": 120.0
            },
            {
                "start_time": 35.279545454545456,
                "end_time": 35.37954545454545,
                "pitch": 71,
                "velocity": 40,
                "duration": 0.09999999999999432,
                "tempo": 120.0
            },
            {
                "start_time": 35.41136363636363,
                "end_time": 35.51136363636363,
                "pitch": 67,
                "velocity": 40,
                "duration": 0.10000000000000142,
                "tempo": 120.0
            },
            {
                "start_time": 35.54545454545455,
                "end_time": 35.64545454545454,
                "pitch": 64,
                "velocity": 40,
                "duration": 0.09999999999999432,
                "tempo": 120.0
            },
            {
                "start_time": 35.679545454545455,
                "end_time": 35.779545454545456,
                "pitch": 71,
                "velocity": 40,
                "duration": 0.10000000000000142,
                "tempo": 120.0
            },
            {
                "start_time": 35.81136363636364,
                "end_time": 35.91136363636363,
                "pitch": 67,
                "velocity": 40,
                "duration": 0.09999999999999432,
                "tempo": 120.0
            },
            {
                "start_time": 35.945454545454545,
                "end_time": 36.04545454545455,
                "pitch": 64,
                "velocity": 40,
                "duration": 0.10000000000000142,
                "tempo": 120.0
            },
            {
                "start_time": 36.07954545454545,
                "end_time": 36.179545454545455,
                "pitch": 71,
                "velocity": 40,
                "duration": 0.10000000000000142,
                "tempo": 120.0
            },
            {
                "start_time": 36.211363636363636,
                "end_time": 36.31136363636364,
                "pitch": 67,
                "velocity": 40,
                "duration": 0.10000000000000142,
                "tempo": 120.0
            },
            {
                "start_time": 36.345454545454544,
                "end_time": 36.445454545454545,
                "pitch": 64,
                "velocity": 40,
                "duration": 0.10000000000000142,
                "tempo": 120.0
            },
            {
                "start_time": 36.47954545454545,
                "end_time": 36.57954545454545,
                "pitch": 71,
                "velocity": 40,
                "duration": 0.10000000000000142,
                "tempo": 120.0
            },
            {
                "start_time": 36.61363636363636,
                "end_time": 36.71363636363636,
                "pitch": 67,
                "velocity": 40,
                "duration": 0.10000000000000142,
                "tempo": 120.0
            },
            {
                "start_time": 36.74772727272727,
                "end_time": 36.84772727272727,
                "pitch": 64,
                "velocity": 40,
                "duration": 0.10000000000000142,
                "tempo": 120.0
            },
            {
                "start_time": 36.88181818181818,
                "end_time": 36.98181818181818,
                "pitch": 71,
                "velocity": 40,
                "duration": 0.09999999999999432,
                "tempo": 120.0
            },
            {
                "start_time": 37.01590909090909,
                "end_time": 37.11590909090909,
                "pitch": 67,
                "velocity": 40,
                "duration": 0.10000000000000142,
                "tempo": 120.0
            },
            {
                "start_time": 37.14772727272727,
                "end_time": 37.24772727272727,
                "pitch": 64,
                "velocity": 40,
                "duration": 0.09999999999999432,
                "tempo": 120.0
            },
            {
                "start_time": 37.28181818181818,
                "end_time": 37.38181818181818,
                "pitch": 71,
                "velocity": 40,
                "duration": 0.10000000000000142,
                "tempo": 120.0
            },
            {
                "start_time": 37.41590909090909,
                "end_time": 37.51590909090909,
                "pitch": 67,
                "velocity": 40,
                "duration": 0.10000000000000142,
                "tempo": 120.0
            },
            {
                "start_time": 37.54772727272727,
                "end_time": 37.64772727272727,
                "pitch": 64,
                "velocity": 40,
                "duration": 0.10000000000000142,
                "tempo": 120.0
            },
            {
                "start_time": 37.68181818181818,
                "end_time": 37.78181818181818,
                "pitch": 71,
                "velocity": 40,
                "duration": 0.10000000000000142,
                "tempo": 120.0
            },
            {
                "start_time": 37.81590909090909,
                "end_time": 37.91590909090909,
                "pitch": 67,
                "velocity": 40,
                "duration": 0.10000000000000142,
                "tempo": 120.0
            },
            {
                "start_time": 37.94772727272727,
                "end_time": 38.04772727272727,
                "pitch": 64,
                "velocity": 40,
                "duration": 0.10000000000000142,
                "tempo": 120.0
            },
            {
                "start_time": 38.08181818181818,
                "end_time": 38.18181818181818,
                "pitch": 71,
                "velocity": 40,
                "duration": 0.10000000000000142,
                "tempo": 120.0
            },
            {
                "start_time": 38.215909090909086,
                "end_time": 38.31590909090909,
                "pitch": 67,
                "velocity": 40,
                "duration": 0.10000000000000142,
                "tempo": 120.0
            },
            {
                "start_time": 38.34772727272727,
                "end_time": 38.44772727272727,
                "pitch": 64,
                "velocity": 40,
                "duration": 0.10000000000000142,
                "tempo": 120.0
            },
            {
                "start_time": 38.48181818181818,
                "end_time": 38.58181818181818,
                "pitch": 70,
                "velocity": 40,
                "duration": 0.10000000000000142,
                "tempo": 120.0
            },
            {
                "start_time": 38.61590909090909,
                "end_time": 38.715909090909086,
                "pitch": 66,
                "velocity": 40,
                "duration": 0.09999999999999432,
                "tempo": 120.0
            },
            {
                "start_time": 38.75,
                "end_time": 38.85,
                "pitch": 64,
                "velocity": 40,
                "duration": 0.10000000000000142,
                "tempo": 120.0
            },
            {
                "start_time": 38.88409090909091,
                "end_time": 38.98409090909091,
                "pitch": 70,
                "velocity": 40,
                "duration": 0.10000000000000142,
                "tempo": 120.0
            },
            {
                "start_time": 39.018181818181816,
                "end_time": 39.11818181818182,
                "pitch": 66,
                "velocity": 40,
                "duration": 0.10000000000000142,
                "tempo": 120.0
            },
            {
                "start_time": 39.15,
                "end_time": 39.25,
                "pitch": 64,
                "velocity": 40,
                "duration": 0.10000000000000142,
                "tempo": 120.0
            },
            {
                "start_time": 39.28409090909091,
                "end_time": 39.38409090909091,
                "pitch": 70,
                "velocity": 40,
                "duration": 0.10000000000000142,
                "tempo": 120.0
            },
            {
                "start_time": 39.418181818181814,
                "end_time": 39.518181818181816,
                "pitch": 66,
                "velocity": 40,
                "duration": 0.10000000000000142,
                "tempo": 120.0
            },
            {
                "start_time": 39.55,
                "end_time": 39.65,
                "pitch": 64,
                "velocity": 40,
                "duration": 0.10000000000000142,
                "tempo": 120.0
            },
            {
                "start_time": 39.684090909090905,
                "end_time": 39.78409090909091,
                "pitch": 70,
                "velocity": 40,
                "duration": 0.10000000000000142,
                "tempo": 120.0
            },
            {
                "start_time": 39.81818181818181,
                "end_time": 39.918181818181814,
                "pitch": 66,
                "velocity": 40,
                "duration": 0.10000000000000142,
                "tempo": 120.0
            },
            {
                "start_time": 39.949999999999996,
                "end_time": 40.05,
                "pitch": 64,
                "velocity": 40,
                "duration": 0.10000000000000142,
                "tempo": 120.0
            },
            {
                "start_time": 40.084090909090904,
                "end_time": 40.184090909090905,
                "pitch": 70,
                "velocity": 40,
                "duration": 0.10000000000000142,
                "tempo": 120.0
            },
            {
                "start_time": 40.21818181818182,
                "end_time": 40.31818181818181,
                "pitch": 66,
                "velocity": 40,
                "duration": 0.09999999999999432,
                "tempo": 120.0
            },
            {
                "start_time": 40.35,
                "end_time": 40.449999999999996,
                "pitch": 64,
                "velocity": 40,
                "duration": 0.09999999999999432,
                "tempo": 120.0
            },
            {
                "start_time": 40.48409090909091,
                "end_time": 40.584090909090904,
                "pitch": 70,
                "velocity": 40,
                "duration": 0.09999999999999432,
                "tempo": 120.0
            },
            {
                "start_time": 40.61818181818182,
                "end_time": 40.71818181818182,
                "pitch": 66,
                "velocity": 40,
                "duration": 0.10000000000000142,
                "tempo": 120.0
            },
            {
                "start_time": 40.752272727272725,
                "end_time": 40.85454545454545,
                "pitch": 64,
                "velocity": 40,
                "duration": 0.10227272727272663,
                "tempo": 120.0
            },
            {
                "start_time": 40.88636363636363,
                "end_time": 40.986363636363635,
                "pitch": 70,
                "velocity": 40,
                "duration": 0.10000000000000142,
                "tempo": 120.0
            },
            {
                "start_time": 41.02045454545454,
                "end_time": 41.12045454545454,
                "pitch": 66,
                "velocity": 40,
                "duration": 0.10000000000000142,
                "tempo": 120.0
            },
            {
                "start_time": 41.154545454545456,
                "end_time": 41.25454545454545,
                "pitch": 64,
                "velocity": 40,
                "duration": 0.09999999999999432,
                "tempo": 120.0
            },
            {
                "start_time": 41.28636363636363,
                "end_time": 41.38636363636363,
                "pitch": 70,
                "velocity": 40,
                "duration": 0.10000000000000142,
                "tempo": 120.0
            },
            {
                "start_time": 41.42045454545455,
                "end_time": 41.52045454545454,
                "pitch": 66,
                "velocity": 40,
                "duration": 0.09999999999999432,
                "tempo": 120.0
            },
            {
                "start_time": 41.554545454545455,
                "end_time": 41.65454545454545,
                "pitch": 64,
                "velocity": 40,
                "duration": 0.09999999999999432,
                "tempo": 120.0
            },
            {
                "start_time": 41.68636363636364,
                "end_time": 41.78636363636363,
                "pitch": 69,
                "velocity": 40,
                "duration": 0.09999999999999432,
                "tempo": 120.0
            },
            {
                "start_time": 41.820454545454545,
                "end_time": 41.92045454545455,
                "pitch": 66,
                "velocity": 40,
                "duration": 0.10000000000000142,
                "tempo": 120.0
            },
            {
                "start_time": 41.95454545454545,
                "end_time": 42.054545454545455,
                "pitch": 63,
                "velocity": 40,
                "duration": 0.10000000000000142,
                "tempo": 120.0
            },
            {
                "start_time": 42.086363636363636,
                "end_time": 42.18636363636364,
                "pitch": 69,
                "velocity": 40,
                "duration": 0.10000000000000142,
                "tempo": 120.0
            },
            {
                "start_time": 42.220454545454544,
                "end_time": 42.320454545454545,
                "pitch": 66,
                "velocity": 40,
                "duration": 0.10000000000000142,
                "tempo": 120.0
            },
            {
                "start_time": 42.35454545454545,
                "end_time": 42.45454545454545,
                "pitch": 63,
                "velocity": 40,
                "duration": 0.10000000000000142,
                "tempo": 120.0
            },
            {
                "start_time": 42.486363636363635,
                "end_time": 42.58863636363636,
                "pitch": 69,
                "velocity": 40,
                "duration": 0.10227272727272663,
                "tempo": 120.0
            },
            {
                "start_time": 42.62045454545454,
                "end_time": 42.72272727272727,
                "pitch": 66,
                "velocity": 40,
                "duration": 0.10227272727272663,
                "tempo": 120.0
            },
            {
                "start_time": 42.75454545454545,
                "end_time": 42.85681818181818,
                "pitch": 63,
                "velocity": 40,
                "duration": 0.10227272727272663,
                "tempo": 120.0
            },
            {
                "start_time": 42.88863636363636,
                "end_time": 42.98863636363636,
                "pitch": 69,
                "velocity": 40,
                "duration": 0.10000000000000142,
                "tempo": 120.0
            },
            {
                "start_time": 43.02272727272727,
                "end_time": 43.12272727272727,
                "pitch": 66,
                "velocity": 40,
                "duration": 0.09999999999999432,
                "tempo": 120.0
            },
            {
                "start_time": 43.15681818181818,
                "end_time": 43.25681818181818,
                "pitch": 63,
                "velocity": 40,
                "duration": 0.10000000000000142,
                "tempo": 120.0
            },
            {
                "start_time": 43.288636363636364,
                "end_time": 43.38863636363636,
                "pitch": 69,
                "velocity": 40,
                "duration": 0.09999999999999432,
                "tempo": 120.0
            },
            {
                "start_time": 43.42272727272727,
                "end_time": 43.52272727272727,
                "pitch": 66,
                "velocity": 40,
                "duration": 0.10000000000000142,
                "tempo": 120.0
            },
            {
                "start_time": 43.55681818181818,
                "end_time": 43.65681818181818,
                "pitch": 63,
                "velocity": 40,
                "duration": 0.10000000000000142,
                "tempo": 120.0
            },
            {
                "start_time": 43.68863636363636,
                "end_time": 43.788636363636364,
                "pitch": 69,
                "velocity": 40,
                "duration": 0.10000000000000142,
                "tempo": 120.0
            },
            {
                "start_time": 43.82272727272727,
                "end_time": 43.92272727272727,
                "pitch": 66,
                "velocity": 40,
                "duration": 0.10000000000000142,
                "tempo": 120.0
            },
            {
                "start_time": 43.95681818181818,
                "end_time": 44.05681818181818,
                "pitch": 63,
                "velocity": 40,
                "duration": 0.10000000000000142,
                "tempo": 120.0
            },
            {
                "start_time": 44.08863636363636,
                "end_time": 44.18863636363636,
                "pitch": 69,
                "velocity": 40,
                "duration": 0.10000000000000142,
                "tempo": 120.0
            },
            {
                "start_time": 44.22272727272727,
                "end_time": 44.32272727272727,
                "pitch": 66,
                "velocity": 40,
                "duration": 0.10000000000000142,
                "tempo": 120.0
            },
            {
                "start_time": 44.35681818181818,
                "end_time": 44.45681818181818,
                "pitch": 63,
                "velocity": 40,
                "duration": 0.10000000000000142,
                "tempo": 120.0
            },
            {
                "start_time": 44.48863636363636,
                "end_time": 44.590909090909086,
                "pitch": 69,
                "velocity": 40,
                "duration": 0.10227272727272663,
                "tempo": 120.0
            },
            {
                "start_time": 44.625,
                "end_time": 44.724999999999994,
                "pitch": 66,
                "velocity": 40,
                "duration": 0.09999999999999432,
                "tempo": 120.0
            },
            {
                "start_time": 44.75909090909091,
                "end_time": 44.85909090909091,
                "pitch": 63,
                "velocity": 40,
                "duration": 0.10000000000000142,
                "tempo": 120.0
            },
            {
                "start_time": 44.893181818181816,
                "end_time": 44.99318181818182,
                "pitch": 67,
                "velocity": 40,
                "duration": 0.10000000000000142,
                "tempo": 120.0
            },
            {
                "start_time": 45.025,
                "end_time": 45.125,
                "pitch": 64,
                "velocity": 40,
                "duration": 0.10000000000000142,
                "tempo": 120.0
            },
            {
                "start_time": 45.15909090909091,
                "end_time": 45.25909090909091,
                "pitch": 71,
                "velocity": 40,
                "duration": 0.10000000000000142,
                "tempo": 120.0
            },
            {
                "start_time": 45.293181818181814,
                "end_time": 45.393181818181816,
                "pitch": 67,
                "velocity": 40,
                "duration": 0.10000000000000142,
                "tempo": 120.0
            },
            {
                "start_time": 45.425,
                "end_time": 45.525,
                "pitch": 64,
                "velocity": 40,
                "duration": 0.10000000000000142,
                "tempo": 120.0
            },
            {
                "start_time": 45.559090909090905,
                "end_time": 45.65909090909091,
                "pitch": 71,
                "velocity": 40,
                "duration": 0.10000000000000142,
                "tempo": 120.0
            },
            {
                "start_time": 45.69318181818181,
                "end_time": 45.793181818181814,
                "pitch": 67,
                "velocity": 40,
                "duration": 0.10000000000000142,
                "tempo": 120.0
            },
            {
                "start_time": 45.824999999999996,
                "end_time": 45.925,
                "pitch": 64,
                "velocity": 40,
                "duration": 0.10000000000000142,
                "tempo": 120.0
            },
            {
                "start_time": 45.959090909090904,
                "end_time": 46.059090909090905,
                "pitch": 71,
                "velocity": 40,
                "duration": 0.10000000000000142,
                "tempo": 120.0
            },
            {
                "start_time": 46.09318181818182,
                "end_time": 46.19318181818181,
                "pitch": 67,
                "velocity": 40,
                "duration": 0.09999999999999432,
                "tempo": 120.0
            },
            {
                "start_time": 46.224999999999994,
                "end_time": 46.324999999999996,
                "pitch": 64,
                "velocity": 40,
                "duration": 0.10000000000000142,
                "tempo": 120.0
            },
            {
                "start_time": 46.35909090909091,
                "end_time": 46.459090909090904,
                "pitch": 71,
                "velocity": 40,
                "duration": 0.09999999999999432,
                "tempo": 120.0
            },
            {
                "start_time": 46.49318181818182,
                "end_time": 46.59318181818182,
                "pitch": 67,
                "velocity": 40,
                "duration": 0.10000000000000142,
                "tempo": 120.0
            },
            {
                "start_time": 46.627272727272725,
                "end_time": 46.72727272727273,
                "pitch": 64,
                "velocity": 40,
                "duration": 0.10000000000000142,
                "tempo": 120.0
            },
            {
                "start_time": 46.76136363636363,
                "end_time": 46.861363636363635,
                "pitch": 71,
                "velocity": 40,
                "duration": 0.10000000000000142,
                "tempo": 120.0
            },
            {
                "start_time": 46.89545454545454,
                "end_time": 46.99545454545454,
                "pitch": 67,
                "velocity": 40,
                "duration": 0.10000000000000142,
                "tempo": 120.0
            },
            {
                "start_time": 47.02954545454545,
                "end_time": 47.12954545454545,
                "pitch": 64,
                "velocity": 40,
                "duration": 0.10000000000000142,
                "tempo": 120.0
            },
            {
                "start_time": 47.16136363636363,
                "end_time": 47.26136363636363,
                "pitch": 71,
                "velocity": 40,
                "duration": 0.10000000000000142,
                "tempo": 120.0
            },
            {
                "start_time": 47.29545454545454,
                "end_time": 47.39545454545454,
                "pitch": 59,
                "velocity": 40,
                "duration": 0.10000000000000142,
                "tempo": 120.0
            },
            {
                "start_time": 47.429545454545455,
                "end_time": 47.52954545454545,
                "pitch": 59,
                "velocity": 40,
                "duration": 0.09999999999999432,
                "tempo": 120.0
            },
            {
                "start_time": 47.56136363636364,
                "end_time": 47.66136363636363,
                "pitch": 64,
                "velocity": 40,
                "duration": 0.09999999999999432,
                "tempo": 120.0
            },
            {
                "start_time": 47.695454545454545,
                "end_time": 47.79545454545454,
                "pitch": 67,
                "velocity": 40,
                "duration": 0.09999999999999432,
                "tempo": 120.0
            },
            {
                "start_time": 47.82954545454545,
                "end_time": 47.929545454545455,
                "pitch": 66,
                "velocity": 40,
                "duration": 0.10000000000000142,
                "tempo": 120.0
            },
            {
                "start_time": 47.961363636363636,
                "end_time": 48.06136363636364,
                "pitch": 64,
                "velocity": 40,
                "duration": 0.10000000000000142,
                "tempo": 120.0
            }
        ],
        "Trumpet": [
            {
                "start_time": 1.5704545454545453,
                "end_time": 2.2136363636363634,
                "pitch": 48,
                "velocity": 80,
                "duration": 0.6431818181818181,
                "tempo": 120.0
            },
            {
                "start_time": 2.384090909090909,
                "end_time": 3.018181818181818,
                "pitch": 50,
                "velocity": 80,
                "duration": 0.6340909090909093,
                "tempo": 120.0
            },
            {
                "start_time": 3.184090909090909,
                "end_time": 3.8204545454545453,
                "pitch": 52,
                "velocity": 80,
                "duration": 0.6363636363636362,
                "tempo": 120.0
            },
            {
                "start_time": 4.779545454545454,
                "end_time": 5.418181818181818,
                "pitch": 48,
                "velocity": 80,
                "duration": 0.6386363636363637,
                "tempo": 120.0
            },
            {
                "start_time": 5.584090909090909,
                "end_time": 5.738636363636363,
                "pitch": 47,
                "velocity": 80,
                "duration": 0.15454545454545432,
                "tempo": 120.0
            },
            {
                "start_time": 5.790909090909091,
                "end_time": 5.9431818181818175,
                "pitch": 45,
                "velocity": 80,
                "duration": 0.15227272727272645,
                "tempo": 120.0
            },
            {
                "start_time": 5.995454545454545,
                "end_time": 6.1477272727272725,
                "pitch": 48,
                "velocity": 80,
                "duration": 0.15227272727272734,
                "tempo": 120.0
            },
            {
                "start_time": 6.197727272727272,
                "end_time": 6.347727272727273,
                "pitch": 47,
                "velocity": 80,
                "duration": 0.15000000000000036,
                "tempo": 120.0
            },
            {
                "start_time": 6.802272727272727,
                "end_time": 7.429545454545454,
                "pitch": 52,
                "velocity": 80,
                "duration": 0.627272727272727,
                "tempo": 120.0
            },
            {
                "start_time": 8.395454545454545,
                "end_time": 8.71590909090909,
                "pitch": 48,
                "velocity": 80,
                "duration": 0.3204545454545453,
                "tempo": 120.0
            },
            {
                "start_time": 9.209090909090909,
                "end_time": 9.520454545454545,
                "pitch": 50,
                "velocity": 80,
                "duration": 0.3113636363636356,
                "tempo": 120.0
            },
            {
                "start_time": 10.011363636363637,
                "end_time": 10.331818181818182,
                "pitch": 52,
                "velocity": 80,
                "duration": 0.3204545454545453,
                "tempo": 120.0
            },
            {
                "start_time": 10.818181818181818,
                "end_time": 11.136363636363637,
                "pitch": 52,
                "velocity": 80,
                "duration": 0.31818181818181834,
                "tempo": 120.0
            },
            {
                "start_time": 11.220454545454546,
                "end_time": 11.854545454545454,
                "pitch": 48,
                "velocity": 80,
                "duration": 0.6340909090909079,
                "tempo": 120.0
            },
            {
                "start_time": 12.022727272727272,
                "end_time": 12.665909090909091,
                "pitch": 45,
                "velocity": 80,
                "duration": 0.6431818181818194,
                "tempo": 120.0
            },
            {
                "start_time": 12.836363636363636,
                "end_time": 13.461363636363636,
                "pitch": 42,
                "velocity": 80,
                "duration": 0.625,
                "tempo": 120.0
            },
            {
                "start_time": 13.629545454545454,
                "end_time": 14.26590909090909,
                "pitch": 39,
                "velocity": 80,
                "duration": 0.6363636363636367,
                "tempo": 120.0
            },
            {
                "start_time": 14.434090909090909,
                "end_time": 15.697727272727272,
                "pitch": 47,
                "velocity": 80,
                "duration": 1.2636363636363637,
                "tempo": 120.0
            },
            {
                "start_time": 16.022727272727273,
                "end_time": 48.095454545454544,
                "pitch": 59,
                "velocity": 80,
                "duration": 32.07272727272727,
                "tempo": 120.0
            },
            {
                "start_time": 48.095454545454544,
                "end_time": 48.72954545454545,
                "pitch": 48,
                "velocity": 64,
                "duration": 0.6340909090909079,
                "tempo": 120.0
            },
            {
                "start_time": 49.09772727272727,
                "end_time": 49.24772727272727,
                "pitch": 48,
                "velocity": 64,
                "duration": 0.14999999999999858,
                "tempo": 120.0
            },
            {
                "start_time": 49.29772727272727,
                "end_time": 49.45227272727273,
                "pitch": 48,
                "velocity": 64,
                "duration": 0.1545454545454561,
                "tempo": 120.0
            },
            {
                "start_time": 49.502272727272725,
                "end_time": 49.65681818181818,
                "pitch": 47,
                "velocity": 64,
                "duration": 0.1545454545454561,
                "tempo": 120.0
            },
            {
                "start_time": 49.709090909090904,
                "end_time": 50.334090909090904,
                "pitch": 45,
                "velocity": 64,
                "duration": 0.625,
                "tempo": 120.0
            },
            {
                "start_time": 50.70227272727273,
                "end_time": 50.85227272727273,
                "pitch": 45,
                "velocity": 64,
                "duration": 0.14999999999999858,
                "tempo": 120.0
            },
            {
                "start_time": 50.902272727272724,
                "end_time": 51.05681818181818,
                "pitch": 45,
                "velocity": 64,
                "duration": 0.1545454545454561,
                "tempo": 120.0
            },
            {
                "start_time": 51.10909090909091,
                "end_time": 51.26363636363636,
                "pitch": 46,
                "velocity": 64,
                "duration": 0.154545454545449,
                "tempo": 120.0
            },
            {
                "start_time": 51.31363636363636,
                "end_time": 51.93863636363636,
                "pitch": 50,
                "velocity": 64,
                "duration": 0.625,
                "tempo": 120.0
            },
            {
                "start_time": 52.30681818181818,
                "end_time": 52.45681818181818,
                "pitch": 50,
                "velocity": 64,
                "duration": 0.14999999999999858,
                "tempo": 120.0
            },
            {
                "start_time": 52.50681818181818,
                "end_time": 52.65909090909091,
                "pitch": 50,
                "velocity": 64,
                "duration": 0.15227272727272378,
                "tempo": 120.0
            },
            {
                "start_time": 52.711363636363636,
                "end_time": 52.865909090909085,
                "pitch": 48,
                "velocity": 64,
                "duration": 0.154545454545449,
                "tempo": 120.0
            },
            {
                "start_time": 52.91590909090909,
                "end_time": 53.543181818181814,
                "pitch": 47,
                "velocity": 64,
                "duration": 0.6272727272727252,
                "tempo": 120.0
            },
            {
                "start_time": 53.709090909090904,
                "end_time": 54.34318181818182,
                "pitch": 51,
                "velocity": 64,
                "duration": 0.634090909090915,
                "tempo": 120.0
            }
        ],
        "Harpsichord": [
            {
                "start_time": 54.50909090909091,
                "end_time": 54.60909090909091,
                "pitch": 64,
                "velocity": 40,
                "duration": 0.10000000000000142,
                "tempo": 120.0
            },
            {
                "start_time": 54.643181818181816,
                "end_time": 54.74318181818182,
                "pitch": 59,
                "velocity": 40,
                "duration": 0.10000000000000142,
                "tempo": 120.0
            },
            {
                "start_time": 54.777272727272724,
                "end_time": 54.877272727272725,
                "pitch": 59,
                "velocity": 40,
                "duration": 0.10000000000000142,
                "tempo": 120.0
            },
            {
                "start_time": 54.91136363636363,
                "end_time": 55.01136363636363,
                "pitch": 64,
                "velocity": 40,
                "duration": 0.10000000000000142,
                "tempo": 120.0
            },
            {
                "start_time": 55.04545454545454,
                "end_time": 55.14545454545454,
                "pitch": 59,
                "velocity": 40,
                "duration": 0.10000000000000142,
                "tempo": 120.0
            },
            {
                "start_time": 55.179545454545455,
                "end_time": 55.27954545454545,
                "pitch": 59,
                "velocity": 40,
                "duration": 0.09999999999999432,
                "tempo": 120.0
            },
            {
                "start_time": 55.31136363636363,
                "end_time": 55.41136363636363,
                "pitch": 59,
                "velocity": 40,
                "duration": 0.10000000000000142,
                "tempo": 120.0
            },
            {
                "start_time": 55.445454545454545,
                "end_time": 55.54545454545454,
                "pitch": 64,
                "velocity": 40,
                "duration": 0.09999999999999432,
                "tempo": 120.0
            },
            {
                "start_time": 55.57954545454545,
                "end_time": 55.679545454545455,
                "pitch": 66,
                "velocity": 40,
                "duration": 0.10000000000000142,
                "tempo": 120.0
            },
            {
                "start_time": 55.711363636363636,
                "end_time": 55.81136363636363,
                "pitch": 67,
                "velocity": 40,
                "duration": 0.09999999999999432,
                "tempo": 120.0
            },
            {
                "start_time": 55.845454545454544,
                "end_time": 55.945454545454545,
                "pitch": 66,
                "velocity": 40,
                "duration": 0.10000000000000142,
                "tempo": 120.0
            },
            {
                "start_time": 55.97954545454545,
                "end_time": 56.07954545454545,
                "pitch": 64,
                "velocity": 40,
                "duration": 0.10000000000000142,
                "tempo": 120.0
            },
            {
                "start_time": 56.111363636363635,
                "end_time": 56.211363636363636,
                "pitch": 64,
                "velocity": 40,
                "duration": 0.10000000000000142,
                "tempo": 120.0
            },
            {
                "start_time": 56.24545454545454,
                "end_time": 56.345454545454544,
                "pitch": 59,
                "velocity": 40,
                "duration": 0.10000000000000142,
                "tempo": 120.0
            },
            {
                "start_time": 56.37954545454545,
                "end_time": 56.47954545454545,
                "pitch": 59,
                "velocity": 40,
                "duration": 0.10000000000000142,
                "tempo": 120.0
            },
            {
                "start_time": 56.51136363636363,
                "end_time": 56.611363636363635,
                "pitch": 64,
                "velocity": 40,
                "duration": 0.10000000000000142,
                "tempo": 120.0
            },
            {
                "start_time": 56.64545454545454,
                "end_time": 56.74772727272727,
                "pitch": 59,
                "velocity": 40,
                "duration": 0.10227272727272663,
                "tempo": 120.0
            },
            {
                "start_time": 56.77954545454545,
                "end_time": 56.881818181818176,
                "pitch": 59,
                "velocity": 40,
                "duration": 0.10227272727272663,
                "tempo": 120.0
            },
            {
                "start_time": 56.913636363636364,
                "end_time": 57.018181818181816,
                "pitch": 59,
                "velocity": 40,
                "duration": 0.10454545454545183,
                "tempo": 120.0
            },
            {
                "start_time": 57.05227272727272,
                "end_time": 57.15454545454545,
                "pitch": 64,
                "velocity": 40,
                "duration": 0.10227272727272663,
                "tempo": 120.0
            },
            {
                "start_time": 57.18863636363636,
                "end_time": 57.29090909090909,
                "pitch": 66,
                "velocity": 40,
                "duration": 0.10227272727272663,
                "tempo": 120.0
            },
            {
                "start_time": 57.324999999999996,
                "end_time": 57.425,
                "pitch": 67,
                "velocity": 40,
                "duration": 0.10000000000000142,
                "tempo": 120.0
            },
            {
                "start_time": 57.459090909090904,
                "end_time": 57.559090909090905,
                "pitch": 66,
                "velocity": 40,
                "duration": 0.10000000000000142,
                "tempo": 120.0
            },
            {
                "start_time": 57.59318181818182,
                "end_time": 57.69318181818181,
                "pitch": 64,
                "velocity": 40,
                "duration": 0.09999999999999432,
                "tempo": 120.0
            },
            {
                "start_time": 57.724999999999994,
                "end_time": 57.82272727272727,
                "pitch": 64,
                "velocity": 40,
                "duration": 0.09772727272727622,
                "tempo": 120.0
            },
            {
                "start_time": 57.85681818181818,
                "end_time": 57.95454545454545,
                "pitch": 60,
                "velocity": 40,
                "duration": 0.09772727272727622,
                "tempo": 120.0
            },
            {
                "start_time": 57.986363636363635,
                "end_time": 58.084090909090904,
                "pitch": 60,
                "velocity": 40,
                "duration": 0.09772727272726911,
                "tempo": 120.0
            },
            {
                "start_time": 58.11818181818182,
                "end_time": 58.21818181818182,
                "pitch": 64,
                "velocity": 40,
                "duration": 0.10000000000000142,
                "tempo": 120.0
            },
            {
                "start_time": 58.25,
                "end_time": 58.349999999999994,
                "pitch": 60,
                "velocity": 40,
                "duration": 0.09999999999999432,
                "tempo": 120.0
            },
            {
                "start_time": 58.38409090909091,
                "end_time": 58.48409090909091,
                "pitch": 60,
                "velocity": 40,
                "duration": 0.10000000000000142,
                "tempo": 120.0
            },
            {
                "start_time": 58.518181818181816,
                "end_time": 58.62045454545454,
                "pitch": 60,
                "velocity": 40,
                "duration": 0.10227272727272663,
                "tempo": 120.0
            },
            {
                "start_time": 58.65454545454545,
                "end_time": 58.756818181818176,
                "pitch": 64,
                "velocity": 40,
                "duration": 0.10227272727272663,
                "tempo": 120.0
            },
            {
                "start_time": 58.79090909090909,
                "end_time": 58.893181818181816,
                "pitch": 66,
                "velocity": 40,
                "duration": 0.10227272727272663,
                "tempo": 120.0
            },
            {
                "start_time": 58.92727272727272,
                "end_time": 59.027272727272724,
                "pitch": 67,
                "velocity": 40,
                "duration": 0.10000000000000142,
                "tempo": 120.0
            },
            {
                "start_time": 59.059090909090905,
                "end_time": 59.15681818181818,
                "pitch": 66,
                "velocity": 40,
                "duration": 0.09772727272727622,
                "tempo": 120.0
            },
            {
                "start_time": 59.18863636363636,
                "end_time": 59.288636363636364,
                "pitch": 64,
                "velocity": 40,
                "duration": 0.10000000000000142,
                "tempo": 120.0
            },
            {
                "start_time": 59.320454545454545,
                "end_time": 59.42045454545454,
                "pitch": 64,
                "velocity": 40,
                "duration": 0.09999999999999432,
                "tempo": 120.0
            },
            {
                "start_time": 59.45454545454545,
                "end_time": 59.554545454545455,
                "pitch": 60,
                "velocity": 40,
                "duration": 0.10000000000000142,
                "tempo": 120.0
            },
            {
                "start_time": 59.586363636363636,
                "end_time": 59.68636363636363,
                "pitch": 60,
                "velocity": 40,
                "duration": 0.09999999999999432,
                "tempo": 120.0
            },
            {
                "start_time": 59.720454545454544,
                "end_time": 59.820454545454545,
                "pitch": 64,
                "velocity": 40,
                "duration": 0.10000000000000142,
                "tempo": 120.0
            },
            {
                "start_time": 59.85454545454545,
                "end_time": 59.95454545454545,
                "pitch": 60,
                "velocity": 40,
                "duration": 0.10000000000000142,
                "tempo": 120.0
            },
            {
                "start_time": 59.986363636363635,
                "end_time": 60.086363636363636,
                "pitch": 60,
                "velocity": 40,
                "duration": 0.10000000000000142,
                "tempo": 120.0
            },
            {
                "start_time": 60.12045454545454,
                "end_time": 60.22272727272727,
                "pitch": 60,
                "velocity": 40,
                "duration": 0.10227272727272663,
                "tempo": 120.0
            },
            {
                "start_time": 60.256818181818176,
                "end_time": 60.35909090909091,
                "pitch": 64,
                "velocity": 40,
                "duration": 0.10227272727273373,
                "tempo": 120.0
            },
            {
                "start_time": 60.393181818181816,
                "end_time": 60.49772727272727,
                "pitch": 66,
                "velocity": 40,
                "duration": 0.10454545454545183,
                "tempo": 120.0
            },
            {
                "start_time": 60.53181818181818,
                "end_time": 60.631818181818176,
                "pitch": 67,
                "velocity": 40,
                "duration": 0.09999999999999432,
                "tempo": 120.0
            },
            {
                "start_time": 60.663636363636364,
                "end_time": 60.76363636363636,
                "pitch": 66,
                "velocity": 40,
                "duration": 0.09999999999999432,
                "tempo": 120.0
            },
            {
                "start_time": 60.79772727272727,
                "end_time": 60.897727272727266,
                "pitch": 64,
                "velocity": 40,
                "duration": 0.09999999999999432,
                "tempo": 120.0
            },
            {
                "start_time": 60.93181818181818,
                "end_time": 61.02954545454545,
                "pitch": 66,
                "velocity": 40,
                "duration": 0.09772727272726911,
                "tempo": 120.0
            },
            {
                "start_time": 61.06136363636363,
                "end_time": 61.15909090909091,
                "pitch": 62,
                "velocity": 40,
                "duration": 0.09772727272727622,
                "tempo": 120.0
            },
            {
                "start_time": 61.19318181818181,
                "end_time": 61.29090909090909,
                "pitch": 62,
                "velocity": 40,
                "duration": 0.09772727272727622,
                "tempo": 120.0
            },
            {
                "start_time": 61.32272727272727,
                "end_time": 61.425,
                "pitch": 66,
                "velocity": 40,
                "duration": 0.10227272727272663,
                "tempo": 120.0
            },
            {
                "start_time": 61.459090909090904,
                "end_time": 61.56363636363636,
                "pitch": 62,
                "velocity": 40,
                "duration": 0.10454545454545894,
                "tempo": 120.0
            },
            {
                "start_time": 61.59772727272727,
                "end_time": 61.699999999999996,
                "pitch": 62,
                "velocity": 40,
                "duration": 0.10227272727272663,
                "tempo": 120.0
            },
            {
                "start_time": 61.73409090909091,
                "end_time": 61.83181818181818,
                "pitch": 62,
                "velocity": 40,
                "duration": 0.09772727272726911,
                "tempo": 120.0
            },
            {
                "start_time": 61.86363636363636,
                "end_time": 61.96363636363636,
                "pitch": 66,
                "velocity": 40,
                "duration": 0.10000000000000142,
                "tempo": 120.0
            },
            {
                "start_time": 61.99545454545454,
                "end_time": 62.09318181818182,
                "pitch": 67,
                "velocity": 40,
                "duration": 0.09772727272727622,
                "tempo": 120.0
            },
            {
                "start_time": 62.127272727272725,
                "end_time": 62.22727272727273,
                "pitch": 69,
                "velocity": 40,
                "duration": 0.10000000000000142,
                "tempo": 120.0
            },
            {
                "start_time": 62.25909090909091,
                "end_time": 62.35909090909091,
                "pitch": 67,
                "velocity": 40,
                "duration": 0.10000000000000142,
                "tempo": 120.0
            },
            {
                "start_time": 62.393181818181816,
                "end_time": 62.49318181818182,
                "pitch": 66,
                "velocity": 40,
                "duration": 0.10000000000000142,
                "tempo": 120.0
            },
            {
                "start_time": 62.527272727272724,
                "end_time": 62.627272727272725,
                "pitch": 66,
                "velocity": 40,
                "duration": 0.10000000000000142,
                "tempo": 120.0
            },
            {
                "start_time": 62.66136363636363,
                "end_time": 62.76136363636363,
                "pitch": 62,
                "velocity": 40,
                "duration": 0.10000000000000142,
                "tempo": 120.0
            },
            {
                "start_time": 62.79545454545454,
                "end_time": 62.89545454545454,
                "pitch": 62,
                "velocity": 40,
                "duration": 0.10000000000000142,
                "tempo": 120.0
            },
            {
                "start_time": 62.929545454545455,
                "end_time": 63.03181818181818,
                "pitch": 66,
                "velocity": 40,
                "duration": 0.10227272727272663,
                "tempo": 120.0
            },
            {
                "start_time": 63.06590909090909,
                "end_time": 63.168181818181814,
                "pitch": 62,
                "velocity": 40,
                "duration": 0.10227272727272663,
                "tempo": 120.0
            },
            {
                "start_time": 63.20227272727272,
                "end_time": 63.304545454545455,
                "pitch": 62,
                "velocity": 40,
                "duration": 0.10227272727273373,
                "tempo": 120.0
            },
            {
                "start_time": 63.33863636363636,
                "end_time": 63.43863636363636,
                "pitch": 62,
                "velocity": 40,
                "duration": 0.10000000000000142,
                "tempo": 120.0
            },
            {
                "start_time": 63.470454545454544,
                "end_time": 63.56818181818181,
                "pitch": 66,
                "velocity": 40,
                "duration": 0.09772727272726911,
                "tempo": 120.0
            },
            {
                "start_time": 63.599999999999994,
                "end_time": 63.699999999999996,
                "pitch": 67,
                "velocity": 40,
                "duration": 0.10000000000000142,
                "tempo": 120.0
            },
            {
                "start_time": 63.73181818181818,
                "end_time": 63.83181818181818,
                "pitch": 69,
                "velocity": 40,
                "duration": 0.10000000000000142,
                "tempo": 120.0
            },
            {
                "start_time": 63.865909090909085,
                "end_time": 63.965909090909086,
                "pitch": 67,
                "velocity": 40,
                "duration": 0.10000000000000142,
                "tempo": 120.0
            },
            {
                "start_time": 63.99772727272727,
                "end_time": 64.09772727272727,
                "pitch": 66,
                "velocity": 40,
                "duration": 0.10000000000000142,
                "tempo": 120.0
            },
            {
                "start_time": 64.13181818181818,
                "end_time": 64.23181818181818,
                "pitch": 64,
                "velocity": 40,
                "duration": 0.10000000000000853,
                "tempo": 120.0
            },
            {
                "start_time": 64.26590909090909,
                "end_time": 64.36590909090908,
                "pitch": 59,
                "velocity": 40,
                "duration": 0.09999999999999432,
                "tempo": 120.0
            },
            {
                "start_time": 64.39772727272727,
                "end_time": 64.49772727272727,
                "pitch": 59,
                "velocity": 40,
                "duration": 0.10000000000000853,
                "tempo": 120.0
            },
            {
                "start_time": 64.53181818181818,
                "end_time": 64.63181818181818,
                "pitch": 64,
                "velocity": 40,
                "duration": 0.09999999999999432,
                "tempo": 120.0
            },
            {
                "start_time": 64.66590909090908,
                "end_time": 64.76590909090909,
                "pitch": 59,
                "velocity": 40,
                "duration": 0.10000000000000853,
                "tempo": 120.0
            },
            {
                "start_time": 64.79772727272727,
                "end_time": 64.89772727272727,
                "pitch": 59,
                "velocity": 40,
                "duration": 0.09999999999999432,
                "tempo": 120.0
            },
            {
                "start_time": 64.93181818181817,
                "end_time": 65.03181818181818,
                "pitch": 59,
                "velocity": 40,
                "duration": 0.10000000000000853,
                "tempo": 120.0
            },
            {
                "start_time": 65.06590909090909,
                "end_time": 65.16590909090908,
                "pitch": 64,
                "velocity": 40,
                "duration": 0.09999999999999432,
                "tempo": 120.0
            },
            {
                "start_time": 65.2,
                "end_time": 65.3,
                "pitch": 66,
                "velocity": 40,
                "duration": 0.09999999999999432,
                "tempo": 120.0
            },
            {
                "start_time": 65.3340909090909,
                "end_time": 65.43409090909091,
                "pitch": 67,
                "velocity": 40,
                "duration": 0.10000000000000853,
                "tempo": 120.0
            },
            {
                "start_time": 65.46818181818182,
                "end_time": 65.57045454545454,
                "pitch": 66,
                "velocity": 40,
                "duration": 0.10227272727271952,
                "tempo": 120.0
            },
            {
                "start_time": 65.60227272727272,
                "end_time": 65.70454545454545,
                "pitch": 64,
                "velocity": 40,
                "duration": 0.10227272727273373,
                "tempo": 120.0
            },
            {
                "start_time": 65.73636363636363,
                "end_time": 65.83636363636363,
                "pitch": 64,
                "velocity": 40,
                "duration": 0.09999999999999432,
                "tempo": 120.0
            },
            {
                "start_time": 65.87045454545454,
                "end_time": 65.97045454545454,
                "pitch": 59,
                "velocity": 40,
                "duration": 0.10000000000000853,
                "tempo": 120.0
            },
            {
                "start_time": 66.00454545454545,
                "end_time": 66.10454545454544,
                "pitch": 59,
                "velocity": 40,
                "duration": 0.09999999999999432,
                "tempo": 120.0
            },
            {
                "start_time": 66.13636363636364,
                "end_time": 66.23863636363636,
                "pitch": 64,
                "velocity": 40,
                "duration": 0.10227272727271952,
                "tempo": 120.0
            },
            {
                "start_time": 66.27499999999999,
                "end_time": 66.37727272727273,
                "pitch": 59,
                "velocity": 40,
                "duration": 0.10227272727273373,
                "tempo": 120.0
            },
            {
                "start_time": 66.41136363636363,
                "end_time": 66.51363636363637,
                "pitch": 59,
                "velocity": 40,
                "duration": 0.10227272727273373,
                "tempo": 120.0
            },
            {
                "start_time": 66.54772727272727,
                "end_time": 66.64772727272727,
                "pitch": 69,
                "velocity": 40,
                "duration": 0.09999999999999432,
                "tempo": 120.0
            },
            {
                "start_time": 66.68181818181817,
                "end_time": 66.7840909090909,
                "pitch": 66,
                "velocity": 40,
                "duration": 0.10227272727273373,
                "tempo": 120.0
            },
            {
                "start_time": 66.81590909090909,
                "end_time": 66.91818181818182,
                "pitch": 59,
                "velocity": 40,
                "duration": 0.10227272727273373,
                "tempo": 120.0
            },
            {
                "start_time": 66.95,
                "end_time": 67.04772727272727,
                "pitch": 67,
                "velocity": 40,
                "duration": 0.09772727272726911,
                "tempo": 120.0
            },
            {
                "start_time": 67.08181818181818,
                "end_time": 67.17954545454545,
                "pitch": 64,
                "velocity": 40,
                "duration": 0.09772727272726911,
                "tempo": 120.0
            },
            {
                "start_time": 67.21136363636363,
                "end_time": 67.30909090909091,
                "pitch": 59,
                "velocity": 40,
                "duration": 0.09772727272728332,
                "tempo": 120.0
            },
            {
                "start_time": 67.34318181818182,
                "end_time": 67.44318181818181,
                "pitch": 64,
                "velocity": 40,
                "duration": 0.09999999999999432,
                "tempo": 120.0
            },
            {
                "start_time": 67.47727272727272,
                "end_time": 67.57727272727273,
                "pitch": 59,
                "velocity": 40,
                "duration": 0.10000000000000853,
                "tempo": 120.0
            },
            {
                "start_time": 67.61136363636363,
                "end_time": 67.71136363636363,
                "pitch": 59,
                "velocity": 40,
                "duration": 0.09999999999999432,
                "tempo": 120.0
            },
            {
                "start_time": 67.74545454545454,
                "end_time": 67.84545454545454,
                "pitch": 64,
                "velocity": 40,
                "duration": 0.10000000000000853,
                "tempo": 120.0
            },
            {
                "start_time": 67.87954545454545,
                "end_time": 67.97954545454544,
                "pitch": 59,
                "velocity": 40,
                "duration": 0.09999999999999432,
                "tempo": 120.0
            },
            {
                "start_time": 68.01136363636363,
                "end_time": 68.11136363636363,
                "pitch": 59,
                "velocity": 40,
                "duration": 0.10000000000000853,
                "tempo": 120.0
            },
            {
                "start_time": 68.14545454545454,
                "end_time": 68.24545454545454,
                "pitch": 59,
                "velocity": 40,
                "duration": 0.09999999999999432,
                "tempo": 120.0
            },
            {
                "start_time": 68.27954545454546,
                "end_time": 68.37954545454545,
                "pitch": 64,
                "velocity": 40,
                "duration": 0.09999999999999432,
                "tempo": 120.0
            },
            {
                "start_time": 68.41363636363636,
                "end_time": 68.51363636363637,
                "pitch": 66,
                "velocity": 40,
                "duration": 0.10000000000000853,
                "tempo": 120.0
            },
            {
                "start_time": 68.54772727272727,
                "end_time": 68.64772727272727,
                "pitch": 67,
                "velocity": 40,
                "duration": 0.09999999999999432,
                "tempo": 120.0
            },
            {
                "start_time": 68.68181818181817,
                "end_time": 68.78181818181818,
                "pitch": 66,
                "velocity": 40,
                "duration": 0.10000000000000853,
                "tempo": 120.0
            },
            {
                "start_time": 68.81590909090909,
                "end_time": 68.91590909090908,
                "pitch": 64,
                "velocity": 40,
                "duration": 0.09999999999999432,
                "tempo": 120.0
            },
            {
                "start_time": 68.94772727272726,
                "end_time": 69.05,
                "pitch": 64,
                "velocity": 40,
                "duration": 0.10227272727273373,
                "tempo": 120.0
            },
            {
                "start_time": 69.08181818181818,
                "end_time": 69.18409090909091,
                "pitch": 59,
                "velocity": 40,
                "duration": 0.10227272727273373,
                "tempo": 120.0
            },
            {
                "start_time": 69.2159090909091,
                "end_time": 69.31818181818181,
                "pitch": 59,
                "velocity": 40,
                "duration": 0.10227272727271952,
                "tempo": 120.0
            },
            {
                "start_time": 69.35,
                "end_time": 69.45227272727273,
                "pitch": 64,
                "velocity": 40,
                "duration": 0.10227272727273373,
                "tempo": 120.0
            },
            {
                "start_time": 69.48409090909091,
                "end_time": 69.58636363636363,
                "pitch": 59,
                "velocity": 40,
                "duration": 0.10227272727271952,
                "tempo": 120.0
            },
            {
                "start_time": 69.62045454545454,
                "end_time": 69.72045454545454,
                "pitch": 59,
                "velocity": 40,
                "duration": 0.10000000000000853,
                "tempo": 120.0
            },
            {
                "start_time": 69.75454545454545,
                "end_time": 69.85681818181818,
                "pitch": 59,
                "velocity": 40,
                "duration": 0.10227272727273373,
                "tempo": 120.0
            },
            {
                "start_time": 69.89090909090909,
                "end_time": 69.99318181818181,
                "pitch": 64,
                "velocity": 40,
                "duration": 0.10227272727271952,
                "tempo": 120.0
            },
            {
                "start_time": 70.02727272727273,
                "end_time": 70.12954545454545,
                "pitch": 66,
                "velocity": 40,
                "duration": 0.10227272727271952,
                "tempo": 120.0
            },
            {
                "start_time": 70.16363636363636,
                "end_time": 70.26363636363637,
                "pitch": 67,
                "velocity": 40,
                "duration": 0.10000000000000853,
                "tempo": 120.0
            },
            {
                "start_time": 70.29772727272727,
                "end_time": 70.39772727272727,
                "pitch": 66,
                "velocity": 40,
                "duration": 0.09999999999999432,
                "tempo": 120.0
            },
            {
                "start_time": 70.43181818181817,
                "end_time": 70.53181818181818,
                "pitch": 64,
                "velocity": 40,
                "duration": 0.10000000000000853,
                "tempo": 120.0
            },
            {
                "start_time": 70.56363636363636,
                "end_time": 70.66363636363636,
                "pitch": 64,
                "velocity": 40,
                "duration": 0.09999999999999432,
                "tempo": 120.0
            },
            {
                "start_time": 70.69545454545454,
                "end_time": 70.79318181818182,
                "pitch": 60,
                "velocity": 40,
                "duration": 0.09772727272728332,
                "tempo": 120.0
            },
            {
                "start_time": 70.825,
                "end_time": 70.925,
                "pitch": 60,
                "velocity": 40,
                "duration": 0.09999999999999432,
                "tempo": 120.0
            },
            {
                "start_time": 70.95681818181818,
                "end_time": 71.05681818181817,
                "pitch": 64,
                "velocity": 40,
                "duration": 0.09999999999999432,
                "tempo": 120.0
            },
            {
                "start_time": 71.0909090909091,
                "end_time": 71.19090909090909,
                "pitch": 60,
                "velocity": 40,
                "duration": 0.09999999999999432,
                "tempo": 120.0
            },
            {
                "start_time": 71.225,
                "end_time": 71.325,
                "pitch": 60,
                "velocity": 40,
                "duration": 0.10000000000000853,
                "tempo": 120.0
            },
            {
                "start_time": 71.35909090909091,
                "end_time": 71.4590909090909,
                "pitch": 60,
                "velocity": 40,
                "duration": 0.09999999999999432,
                "tempo": 120.0
            },
            {
                "start_time": 71.49318181818181,
                "end_time": 71.59545454545454,
                "pitch": 64,
                "velocity": 40,
                "duration": 0.10227272727273373,
                "tempo": 120.0
            },
            {
                "start_time": 71.62727272727273,
                "end_time": 71.72954545454544,
                "pitch": 66,
                "velocity": 40,
                "duration": 0.10227272727271952,
                "tempo": 120.0
            },
            {
                "start_time": 71.76136363636363,
                "end_time": 71.86136363636363,
                "pitch": 67,
                "velocity": 40,
                "duration": 0.10000000000000853,
                "tempo": 120.0
            },
            {
                "start_time": 71.89545454545454,
                "end_time": 71.99545454545454,
                "pitch": 66,
                "velocity": 40,
                "duration": 0.09999999999999432,
                "tempo": 120.0
            },
            {
                "start_time": 72.02954545454546,
                "end_time": 72.12954545454545,
                "pitch": 64,
                "velocity": 40,
                "duration": 0.09999999999999432,
                "tempo": 120.0
            },
            {
                "start_time": 72.16136363636363,
                "end_time": 72.26363636363637,
                "pitch": 64,
                "velocity": 40,
                "duration": 0.10227272727273373,
                "tempo": 120.0
            },
            {
                "start_time": 72.29545454545455,
                "end_time": 72.39772727272727,
                "pitch": 60,
                "velocity": 40,
                "duration": 0.10227272727271952,
                "tempo": 120.0
            },
            {
                "start_time": 72.43181818181817,
                "end_time": 72.53181818181818,
                "pitch": 60,
                "velocity": 40,
                "duration": 0.10000000000000853,
                "tempo": 120.0
            },
            {
                "start_time": 72.56590909090909,
                "end_time": 72.66590909090908,
                "pitch": 64,
                "velocity": 40,
                "duration": 0.09999999999999432,
                "tempo": 120.0
            },
            {
                "start_time": 72.69772727272726,
                "end_time": 72.79772727272727,
                "pitch": 60,
                "velocity": 40,
                "duration": 0.10000000000000853,
                "tempo": 120.0
            },
            {
                "start_time": 72.83181818181818,
                "end_time": 72.93181818181817,
                "pitch": 60,
                "velocity": 40,
                "duration": 0.09999999999999432,
                "tempo": 120.0
            },
            {
                "start_time": 72.9659090909091,
                "end_time": 73.06818181818181,
                "pitch": 60,
                "velocity": 40,
                "duration": 0.10227272727271952,
                "tempo": 120.0
            },
            {
                "start_time": 73.10227272727272,
                "end_time": 73.20454545454545,
                "pitch": 64,
                "velocity": 40,
                "duration": 0.10227272727273373,
                "tempo": 120.0
            },
            {
                "start_time": 73.23863636363636,
                "end_time": 73.3409090909091,
                "pitch": 66,
                "velocity": 40,
                "duration": 0.10227272727273373,
                "tempo": 120.0
            },
            {
                "start_time": 73.375,
                "end_time": 73.475,
                "pitch": 67,
                "velocity": 40,
                "duration": 0.09999999999999432,
                "tempo": 120.0
            },
            {
                "start_time": 73.5090909090909,
                "end_time": 73.60909090909091,
                "pitch": 66,
                "velocity": 40,
                "duration": 0.10000000000000853,
                "tempo": 120.0
            },
            {
                "start_time": 73.64318181818182,
                "end_time": 73.74318181818181,
                "pitch": 64,
                "velocity": 40,
                "duration": 0.09999999999999432,
                "tempo": 120.0
            },
            {
                "start_time": 73.77499999999999,
                "end_time": 73.87272727272727,
                "pitch": 66,
                "velocity": 40,
                "duration": 0.09772727272728332,
                "tempo": 120.0
            },
            {
                "start_time": 73.90681818181818,
                "end_time": 74.00454545454545,
                "pitch": 62,
                "velocity": 40,
                "duration": 0.09772727272726911,
                "tempo": 120.0
            },
            {
                "start_time": 74.03636363636363,
                "end_time": 74.13636363636363,
                "pitch": 62,
                "velocity": 40,
                "duration": 0.09999999999999432,
                "tempo": 120.0
            },
            {
                "start_time": 74.16818181818182,
                "end_time": 74.26818181818182,
                "pitch": 66,
                "velocity": 40,
                "duration": 0.09999999999999432,
                "tempo": 120.0
            },
            {
                "start_time": 74.30227272727272,
                "end_time": 74.40227272727272,
                "pitch": 62,
                "velocity": 40,
                "duration": 0.09999999999999432,
                "tempo": 120.0
            },
            {
                "start_time": 74.43636363636364,
                "end_time": 74.53636363636363,
                "pitch": 62,
                "velocity": 40,
                "duration": 0.09999999999999432,
                "tempo": 120.0
            },
            {
                "start_time": 74.57045454545454,
                "end_time": 74.67045454545455,
                "pitch": 62,
                "velocity": 40,
                "duration": 0.10000000000000853,
                "tempo": 120.0
            },
            {
                "start_time": 74.70454545454545,
                "end_time": 74.80454545454545,
                "pitch": 66,
                "velocity": 40,
                "duration": 0.09999999999999432,
                "tempo": 120.0
            },
            {
                "start_time": 74.83636363636363,
                "end_time": 74.93636363636364,
                "pitch": 67,
                "velocity": 40,
                "duration": 0.10000000000000853,
                "tempo": 120.0
            },
            {
                "start_time": 74.97045454545454,
                "end_time": 75.07045454545454,
                "pitch": 69,
                "velocity": 40,
                "duration": 0.09999999999999432,
                "tempo": 120.0
            },
            {
                "start_time": 75.10454545454544,
                "end_time": 75.20454545454545,
                "pitch": 67,
                "velocity": 40,
                "duration": 0.10000000000000853,
                "tempo": 120.0
            },
            {
                "start_time": 75.23863636363636,
                "end_time": 75.3409090909091,
                "pitch": 66,
                "velocity": 40,
                "duration": 0.10227272727273373,
                "tempo": 120.0
            },
            {
                "start_time": 75.37272727272727,
                "end_time": 75.475,
                "pitch": 66,
                "velocity": 40,
                "duration": 0.10227272727271952,
                "tempo": 120.0
            },
            {
                "start_time": 75.50681818181818,
                "end_time": 75.60909090909091,
                "pitch": 62,
                "velocity": 40,
                "duration": 0.10227272727273373,
                "tempo": 120.0
            },
            {
                "start_time": 75.64090909090909,
                "end_time": 75.74318181818181,
                "pitch": 62,
                "velocity": 40,
                "duration": 0.10227272727271952,
                "tempo": 120.0
            },
            {
                "start_time": 75.77499999999999,
                "end_time": 75.875,
                "pitch": 66,
                "velocity": 40,
                "duration": 0.10000000000000853,
                "tempo": 120.0
            },
            {
                "start_time": 75.9090909090909,
                "end_time": 76.0090909090909,
                "pitch": 62,
                "velocity": 40,
                "duration": 0.09999999999999432,
                "tempo": 120.0
            },
            {
                "start_time": 76.04318181818182,
                "end_time": 76.14318181818182,
                "pitch": 62,
                "velocity": 40,
                "duration": 0.09999999999999432,
                "tempo": 120.0
            },
            {
                "start_time": 76.175,
                "end_time": 76.27727272727272,
                "pitch": 62,
                "velocity": 40,
                "duration": 0.10227272727271952,
                "tempo": 120.0
            },
            {
                "start_time": 76.31136363636364,
                "end_time": 76.41136363636363,
                "pitch": 66,
                "velocity": 40,
                "duration": 0.09999999999999432,
                "tempo": 120.0
            },
            {
                "start_time": 76.44545454545454,
                "end_time": 76.54545454545455,
                "pitch": 67,
                "velocity": 40,
                "duration": 0.10000000000000853,
                "tempo": 120.0
            },
            {
                "start_time": 76.57954545454545,
                "end_time": 76.67954545454545,
                "pitch": 69,
                "velocity": 40,
                "duration": 0.09999999999999432,
                "tempo": 120.0
            },
            {
                "start_time": 76.71136363636363,
                "end_time": 76.81136363636364,
                "pitch": 67,
                "velocity": 40,
                "duration": 0.10000000000000853,
                "tempo": 120.0
            },
            {
                "start_time": 76.84545454545454,
                "end_time": 76.94545454545454,
                "pitch": 66,
                "velocity": 40,
                "duration": 0.09999999999999432,
                "tempo": 120.0
            },
            {
                "start_time": 76.97954545454544,
                "end_time": 77.07954545454545,
                "pitch": 64,
                "velocity": 40,
                "duration": 0.10000000000000853,
                "tempo": 120.0
            },
            {
                "start_time": 77.11363636363636,
                "end_time": 77.21363636363635,
                "pitch": 59,
                "velocity": 40,
                "duration": 0.09999999999999432,
                "tempo": 120.0
            },
            {
                "start_time": 77.24772727272727,
                "end_time": 77.34772727272727,
                "pitch": 59,
                "velocity": 40,
                "duration": 0.09999999999999432,
                "tempo": 120.0
            },
            {
                "start_time": 77.38181818181818,
                "end_time": 77.48181818181818,
                "pitch": 64,
                "velocity": 40,
                "duration": 0.10000000000000853,
                "tempo": 120.0
            },
            {
                "start_time": 77.51590909090909,
                "end_time": 77.61590909090908,
                "pitch": 59,
                "velocity": 40,
                "duration": 0.09999999999999432,
                "tempo": 120.0
            },
            {
                "start_time": 77.64999999999999,
                "end_time": 77.75,
                "pitch": 59,
                "velocity": 40,
                "duration": 0.10000000000000853,
                "tempo": 120.0
            },
            {
                "start_time": 77.7840909090909,
                "end_time": 77.8840909090909,
                "pitch": 59,
                "velocity": 40,
                "duration": 0.09999999999999432,
                "tempo": 120.0
            },
            {
                "start_time": 77.91818181818181,
                "end_time": 78.01818181818182,
                "pitch": 64,
                "velocity": 40,
                "duration": 0.10000000000000853,
                "tempo": 120.0
            },
            {
                "start_time": 78.05,
                "end_time": 78.14999999999999,
                "pitch": 66,
                "velocity": 40,
                "duration": 0.09999999999999432,
                "tempo": 120.0
            },
            {
                "start_time": 78.18409090909091,
                "end_time": 78.28636363636363,
                "pitch": 67,
                "velocity": 40,
                "duration": 0.10227272727271952,
                "tempo": 120.0
            },
            {
                "start_time": 78.32045454545454,
                "end_time": 78.42272727272727,
                "pitch": 66,
                "velocity": 40,
                "duration": 0.10227272727273373,
                "tempo": 120.0
            },
            {
                "start_time": 78.45681818181818,
                "end_time": 78.56136363636364,
                "pitch": 64,
                "velocity": 40,
                "duration": 0.10454545454545894,
                "tempo": 120.0
            },
            {
                "start_time": 78.59545454545454,
                "end_time": 78.69318181818181,
                "pitch": 64,
                "velocity": 40,
                "duration": 0.09772727272726911,
                "tempo": 120.0
            },
            {
                "start_time": 78.725,
                "end_time": 78.82272727272726,
                "pitch": 59,
                "velocity": 40,
                "duration": 0.09772727272726911,
                "tempo": 120.0
            },
            {
                "start_time": 78.85681818181818,
                "end_time": 78.95454545454545,
                "pitch": 59,
                "velocity": 40,
                "duration": 0.09772727272726911,
                "tempo": 120.0
            },
            {
                "start_time": 78.98636363636363,
                "end_time": 79.08863636363635,
                "pitch": 64,
                "velocity": 40,
                "duration": 0.10227272727271952,
                "tempo": 120.0
            },
            {
                "start_time": 79.12045454545454,
                "end_time": 79.22272727272727,
                "pitch": 59,
                "velocity": 40,
                "duration": 0.10227272727273373,
                "tempo": 120.0
            },
            {
                "start_time": 79.25454545454545,
                "end_time": 79.35681818181818,
                "pitch": 59,
                "velocity": 40,
                "duration": 0.10227272727273373,
                "tempo": 120.0
            },
            {
                "start_time": 79.38863636363637,
                "end_time": 79.49318181818181,
                "pitch": 69,
                "velocity": 40,
                "duration": 0.10454545454544473,
                "tempo": 120.0
            },
            {
                "start_time": 79.52727272727272,
                "end_time": 79.62954545454545,
                "pitch": 66,
                "velocity": 40,
                "duration": 0.10227272727273373,
                "tempo": 120.0
            },
            {
                "start_time": 79.66363636363636,
                "end_time": 79.76590909090909,
                "pitch": 59,
                "velocity": 40,
                "duration": 0.10227272727273373,
                "tempo": 120.0
            },
            {
                "start_time": 79.8,
                "end_time": 79.89772727272727,
                "pitch": 67,
                "velocity": 40,
                "duration": 0.09772727272726911,
                "tempo": 120.0
            },
            {
                "start_time": 79.93181818181817,
                "end_time": 80.02954545454546,
                "pitch": 64,
                "velocity": 40,
                "duration": 0.09772727272728332,
                "tempo": 120.0
            },
            {
                "start_time": 80.06136363636364,
                "end_time": 80.1590909090909,
                "pitch": 59,
                "velocity": 40,
                "duration": 0.09772727272726911,
                "tempo": 120.0
            }
        ],
        "Electric Guitar (clean)": [
            {
                "start_time": 22.71590909090909,
                "end_time": 22.813636363636363,
                "pitch": 40,
                "velocity": 51,
                "duration": 0.09772727272727266,
                "tempo": 120.0
            },
            {
                "start_time": 22.847727272727273,
                "end_time": 22.94772727272727,
                "pitch": 40,
                "velocity": 51,
                "duration": 0.09999999999999787,
                "tempo": 120.0
            },
            {
                "start_time": 22.98181818181818,
                "end_time": 23.081818181818182,
                "pitch": 47,
                "velocity": 51,
                "duration": 0.10000000000000142,
                "tempo": 120.0
            },
            {
                "start_time": 23.11590909090909,
                "end_time": 23.21590909090909,
                "pitch": 40,
                "velocity": 51,
                "duration": 0.10000000000000142,
                "tempo": 120.0
            },
            {
                "start_time": 23.25,
                "end_time": 23.349999999999998,
                "pitch": 47,
                "velocity": 51,
                "duration": 0.09999999999999787,
                "tempo": 120.0
            },
            {
                "start_time": 23.38181818181818,
                "end_time": 23.48181818181818,
                "pitch": 40,
                "velocity": 51,
                "duration": 0.10000000000000142,
                "tempo": 120.0
            },
            {
                "start_time": 23.51590909090909,
                "end_time": 23.61590909090909,
                "pitch": 47,
                "velocity": 51,
                "duration": 0.09999999999999787,
                "tempo": 120.0
            },
            {
                "start_time": 23.65,
                "end_time": 23.75,
                "pitch": 40,
                "velocity": 51,
                "duration": 0.10000000000000142,
                "tempo": 120.0
            },
            {
                "start_time": 23.78181818181818,
                "end_time": 23.88181818181818,
                "pitch": 47,
                "velocity": 51,
                "duration": 0.09999999999999787,
                "tempo": 120.0
            },
            {
                "start_time": 23.91590909090909,
                "end_time": 24.01590909090909,
                "pitch": 40,
                "velocity": 51,
                "duration": 0.10000000000000142,
                "tempo": 120.0
            },
            {
                "start_time": 24.049999999999997,
                "end_time": 24.25,
                "pitch": 40,
                "velocity": 51,
                "duration": 0.20000000000000284,
                "tempo": 120.0
            },
            {
                "start_time": 24.318181818181817,
                "end_time": 24.418181818181818,
                "pitch": 40,
                "velocity": 51,
                "duration": 0.10000000000000142,
                "tempo": 120.0
            },
            {
                "start_time": 24.452272727272724,
                "end_time": 24.552272727272726,
                "pitch": 40,
                "velocity": 51,
                "duration": 0.10000000000000142,
                "tempo": 120.0
            },
            {
                "start_time": 24.586363636363636,
                "end_time": 24.686363636363634,
                "pitch": 47,
                "velocity": 51,
                "duration": 0.09999999999999787,
                "tempo": 120.0
            },
            {
                "start_time": 24.71818181818182,
                "end_time": 24.818181818181817,
                "pitch": 40,
                "velocity": 51,
                "duration": 0.09999999999999787,
                "tempo": 120.0
            },
            {
                "start_time": 24.852272727272727,
                "end_time": 24.952272727272724,
                "pitch": 47,
                "velocity": 51,
                "duration": 0.09999999999999787,
                "tempo": 120.0
            },
            {
                "start_time": 24.986363636363635,
                "end_time": 25.086363636363636,
                "pitch": 40,
                "velocity": 51,
                "duration": 0.10000000000000142,
                "tempo": 120.0
            },
            {
                "start_time": 25.120454545454542,
                "end_time": 25.220454545454544,
                "pitch": 47,
                "velocity": 51,
                "duration": 0.10000000000000142,
                "tempo": 120.0
            },
            {
                "start_time": 25.254545454545454,
                "end_time": 25.354545454545452,
                "pitch": 40,
                "velocity": 51,
                "duration": 0.09999999999999787,
                "tempo": 120.0
            },
            {
                "start_time": 25.388636363636362,
                "end_time": 25.488636363636363,
                "pitch": 47,
                "velocity": 51,
                "duration": 0.10000000000000142,
                "tempo": 120.0
            },
            {
                "start_time": 25.520454545454545,
                "end_time": 25.620454545454542,
                "pitch": 40,
                "velocity": 51,
                "duration": 0.09999999999999787,
                "tempo": 120.0
            },
            {
                "start_time": 25.654545454545453,
                "end_time": 25.854545454545452,
                "pitch": 42,
                "velocity": 51,
                "duration": 0.1999999999999993,
                "tempo": 120.0
            },
            {
                "start_time": 25.920454545454543,
                "end_time": 26.020454545454545,
                "pitch": 42,
                "velocity": 51,
                "duration": 0.10000000000000142,
                "tempo": 120.0
            },
            {
                "start_time": 26.054545454545455,
                "end_time": 26.154545454545453,
                "pitch": 34,
                "velocity": 51,
                "duration": 0.09999999999999787,
                "tempo": 120.0
            },
            {
                "start_time": 26.188636363636363,
                "end_time": 26.288636363636364,
                "pitch": 39,
                "velocity": 51,
                "duration": 0.10000000000000142,
                "tempo": 120.0
            },
            {
                "start_time": 26.32272727272727,
                "end_time": 26.424999999999997,
                "pitch": 34,
                "velocity": 51,
                "duration": 0.10227272727272663,
                "tempo": 120.0
            },
            {
                "start_time": 26.456818181818182,
                "end_time": 26.55681818181818,
                "pitch": 39,
                "velocity": 51,
                "duration": 0.09999999999999787,
                "tempo": 120.0
            },
            {
                "start_time": 26.59090909090909,
                "end_time": 26.69090909090909,
                "pitch": 34,
                "velocity": 51,
                "duration": 0.10000000000000142,
                "tempo": 120.0
            },
            {
                "start_time": 26.724999999999998,
                "end_time": 26.825,
                "pitch": 39,
                "velocity": 51,
                "duration": 0.10000000000000142,
                "tempo": 120.0
            },
            {
                "start_time": 26.85681818181818,
                "end_time": 26.959090909090907,
                "pitch": 34,
                "velocity": 51,
                "duration": 0.10227272727272663,
                "tempo": 120.0
            },
            {
                "start_time": 26.99090909090909,
                "end_time": 27.093181818181815,
                "pitch": 42,
                "velocity": 51,
                "duration": 0.10227272727272663,
                "tempo": 120.0
            },
            {
                "start_time": 27.125,
                "end_time": 27.227272727272727,
                "pitch": 34,
                "velocity": 51,
                "duration": 0.10227272727272663,
                "tempo": 120.0
            },
            {
                "start_time": 27.259090909090908,
                "end_time": 27.459090909090907,
                "pitch": 42,
                "velocity": 51,
                "duration": 0.1999999999999993,
                "tempo": 120.0
            },
            {
                "start_time": 27.527272727272727,
                "end_time": 27.627272727272725,
                "pitch": 42,
                "velocity": 51,
                "duration": 0.09999999999999787,
                "tempo": 120.0
            },
            {
                "start_time": 27.659090909090907,
                "end_time": 27.759090909090908,
                "pitch": 34,
                "velocity": 51,
                "duration": 0.10000000000000142,
                "tempo": 120.0
            },
            {
                "start_time": 27.793181818181818,
                "end_time": 27.893181818181816,
                "pitch": 39,
                "velocity": 51,
                "duration": 0.09999999999999787,
                "tempo": 120.0
            },
            {
                "start_time": 27.927272727272726,
                "end_time": 28.027272727272727,
                "pitch": 34,
                "velocity": 51,
                "duration": 0.10000000000000142,
                "tempo": 120.0
            },
            {
                "start_time": 28.05909090909091,
                "end_time": 28.161363636363635,
                "pitch": 39,
                "velocity": 51,
                "duration": 0.10227272727272663,
                "tempo": 120.0
            },
            {
                "start_time": 28.195454545454545,
                "end_time": 28.295454545454543,
                "pitch": 34,
                "velocity": 51,
                "duration": 0.09999999999999787,
                "tempo": 120.0
            },
            {
                "start_time": 28.329545454545453,
                "end_time": 28.429545454545455,
                "pitch": 39,
                "velocity": 51,
                "duration": 0.10000000000000142,
                "tempo": 120.0
            },
            {
                "start_time": 28.46363636363636,
                "end_time": 28.563636363636363,
                "pitch": 34,
                "velocity": 51,
                "duration": 0.10000000000000142,
                "tempo": 120.0
            },
            {
                "start_time": 28.595454545454544,
                "end_time": 28.695454545454545,
                "pitch": 42,
                "velocity": 51,
                "duration": 0.10000000000000142,
                "tempo": 120.0
            },
            {
                "start_time": 28.729545454545452,
                "end_time": 28.829545454545453,
                "pitch": 34,
                "velocity": 51,
                "duration": 0.10000000000000142,
                "tempo": 120.0
            },
            {
                "start_time": 28.863636363636363,
                "end_time": 29.063636363636363,
                "pitch": 39,
                "velocity": 51,
                "duration": 0.1999999999999993,
                "tempo": 120.0
            },
            {
                "start_time": 29.13181818181818,
                "end_time": 29.23181818181818,
                "pitch": 39,
                "velocity": 51,
                "duration": 0.10000000000000142,
                "tempo": 120.0
            },
            {
                "start_time": 29.26590909090909,
                "end_time": 29.36590909090909,
                "pitch": 35,
                "velocity": 51,
                "duration": 0.09999999999999787,
                "tempo": 120.0
            },
            {
                "start_time": 29.4,
                "end_time": 29.5,
                "pitch": 39,
                "velocity": 51,
                "duration": 0.10000000000000142,
                "tempo": 120.0
            },
            {
                "start_time": 29.53181818181818,
                "end_time": 29.63181818181818,
                "pitch": 35,
                "velocity": 51,
                "duration": 0.09999999999999787,
                "tempo": 120.0
            },
            {
                "start_time": 29.66590909090909,
                "end_time": 29.76590909090909,
                "pitch": 39,
                "velocity": 51,
                "duration": 0.10000000000000142,
                "tempo": 120.0
            },
            {
                "start_time": 29.799999999999997,
                "end_time": 29.9,
                "pitch": 35,
                "velocity": 51,
                "duration": 0.10000000000000142,
                "tempo": 120.0
            },
            {
                "start_time": 29.93181818181818,
                "end_time": 30.03181818181818,
                "pitch": 39,
                "velocity": 51,
                "duration": 0.10000000000000142,
                "tempo": 120.0
            },
            {
                "start_time": 30.065909090909088,
                "end_time": 30.16590909090909,
                "pitch": 35,
                "velocity": 51,
                "duration": 0.10000000000000142,
                "tempo": 120.0
            },
            {
                "start_time": 30.2,
                "end_time": 30.299999999999997,
                "pitch": 42,
                "velocity": 51,
                "duration": 0.09999999999999787,
                "tempo": 120.0
            },
            {
                "start_time": 30.334090909090907,
                "end_time": 30.43409090909091,
                "pitch": 35,
                "velocity": 51,
                "duration": 0.10000000000000142,
                "tempo": 120.0
            },
            {
                "start_time": 30.468181818181815,
                "end_time": 30.668181818181818,
                "pitch": 39,
                "velocity": 51,
                "duration": 0.20000000000000284,
                "tempo": 120.0
            },
            {
                "start_time": 30.73409090909091,
                "end_time": 30.834090909090907,
                "pitch": 39,
                "velocity": 51,
                "duration": 0.09999999999999787,
                "tempo": 120.0
            },
            {
                "start_time": 30.868181818181817,
                "end_time": 30.968181818181815,
                "pitch": 35,
                "velocity": 51,
                "duration": 0.09999999999999787,
                "tempo": 120.0
            },
            {
                "start_time": 31.002272727272725,
                "end_time": 31.102272727272727,
                "pitch": 39,
                "velocity": 51,
                "duration": 0.10000000000000142,
                "tempo": 120.0
            },
            {
                "start_time": 31.136363636363633,
                "end_time": 31.236363636363635,
                "pitch": 35,
                "velocity": 51,
                "duration": 0.10000000000000142,
                "tempo": 120.0
            },
            {
                "start_time": 31.270454545454545,
                "end_time": 31.370454545454542,
                "pitch": 39,
                "velocity": 51,
                "duration": 0.09999999999999787,
                "tempo": 120.0
            },
            {
                "start_time": 31.404545454545453,
                "end_time": 31.504545454545454,
                "pitch": 35,
                "velocity": 51,
                "duration": 0.10000000000000142,
                "tempo": 120.0
            },
            {
                "start_time": 31.53863636363636,
                "end_time": 31.638636363636362,
                "pitch": 39,
                "velocity": 51,
                "duration": 0.10000000000000142,
                "tempo": 120.0
            },
            {
                "start_time": 31.670454545454543,
                "end_time": 31.770454545454545,
                "pitch": 35,
                "velocity": 51,
                "duration": 0.10000000000000142,
                "tempo": 120.0
            },
            {
                "start_time": 31.804545454545455,
                "end_time": 31.904545454545453,
                "pitch": 42,
                "velocity": 51,
                "duration": 0.09999999999999787,
                "tempo": 120.0
            },
            {
                "start_time": 31.938636363636363,
                "end_time": 32.038636363636364,
                "pitch": 35,
                "velocity": 51,
                "duration": 0.10000000000000142,
                "tempo": 120.0
            },
            {
                "start_time": 32.070454545454545,
                "end_time": 32.27272727272727,
                "pitch": 40,
                "velocity": 51,
                "duration": 0.20227272727272805,
                "tempo": 120.0
            },
            {
                "start_time": 32.33863636363636,
                "end_time": 32.44090909090909,
                "pitch": 40,
                "velocity": 51,
                "duration": 0.10227272727272663,
                "tempo": 120.0
            },
            {
                "start_time": 32.47272727272727,
                "end_time": 32.675,
                "pitch": 40,
                "velocity": 51,
                "duration": 0.20227272727272805,
                "tempo": 120.0
            },
            {
                "start_time": 32.74318181818182,
                "end_time": 32.84318181818182,
                "pitch": 40,
                "velocity": 51,
                "duration": 0.10000000000000142,
                "tempo": 120.0
            },
            {
                "start_time": 32.877272727272725,
                "end_time": 33.07727272727273,
                "pitch": 40,
                "velocity": 51,
                "duration": 0.20000000000000284,
                "tempo": 120.0
            },
            {
                "start_time": 33.143181818181816,
                "end_time": 33.24318181818182,
                "pitch": 40,
                "velocity": 51,
                "duration": 0.10000000000000142,
                "tempo": 120.0
            },
            {
                "start_time": 33.277272727272724,
                "end_time": 33.47727272727273,
                "pitch": 40,
                "velocity": 51,
                "duration": 0.20000000000000284,
                "tempo": 120.0
            },
            {
                "start_time": 33.543181818181814,
                "end_time": 33.643181818181816,
                "pitch": 40,
                "velocity": 51,
                "duration": 0.10000000000000142,
                "tempo": 120.0
            },
            {
                "start_time": 33.67727272727272,
                "end_time": 33.99318181818182,
                "pitch": 40,
                "velocity": 51,
                "duration": 0.3159090909090949,
                "tempo": 120.0
            },
            {
                "start_time": 34.07727272727273,
                "end_time": 34.393181818181816,
                "pitch": 36,
                "velocity": 51,
                "duration": 0.3159090909090878,
                "tempo": 120.0
            },
            {
                "start_time": 34.47727272727273,
                "end_time": 34.79545454545455,
                "pitch": 38,
                "velocity": 51,
                "duration": 0.3181818181818201,
                "tempo": 120.0
            },
            {
                "start_time": 34.87954545454545,
                "end_time": 35.195454545454545,
                "pitch": 39,
                "velocity": 51,
                "duration": 0.3159090909090949,
                "tempo": 120.0
            },
            {
                "start_time": 35.279545454545456,
                "end_time": 35.47954545454545,
                "pitch": 40,
                "velocity": 51,
                "duration": 0.19999999999999574,
                "tempo": 120.0
            },
            {
                "start_time": 35.54545454545455,
                "end_time": 35.64545454545454,
                "pitch": 40,
                "velocity": 51,
                "duration": 0.09999999999999432,
                "tempo": 120.0
            },
            {
                "start_time": 35.679545454545455,
                "end_time": 35.779545454545456,
                "pitch": 40,
                "velocity": 51,
                "duration": 0.10000000000000142,
                "tempo": 120.0
            },
            {
                "start_time": 35.81136363636364,
                "end_time": 35.91136363636363,
                "pitch": 47,
                "velocity": 51,
                "duration": 0.09999999999999432,
                "tempo": 120.0
            },
            {
                "start_time": 35.945454545454545,
                "end_time": 36.04545454545455,
                "pitch": 40,
                "velocity": 51,
                "duration": 0.10000000000000142,
                "tempo": 120.0
            },
            {
                "start_time": 36.07954545454545,
                "end_time": 36.179545454545455,
                "pitch": 47,
                "velocity": 51,
                "duration": 0.10000000000000142,
                "tempo": 120.0
            },
            {
                "start_time": 36.211363636363636,
                "end_time": 36.31136363636364,
                "pitch": 40,
                "velocity": 51,
                "duration": 0.10000000000000142,
                "tempo": 120.0
            },
            {
                "start_time": 36.345454545454544,
                "end_time": 36.445454545454545,
                "pitch": 47,
                "velocity": 51,
                "duration": 0.10000000000000142,
                "tempo": 120.0
            },
            {
                "start_time": 36.47954545454545,
                "end_time": 36.57954545454545,
                "pitch": 40,
                "velocity": 51,
                "duration": 0.10000000000000142,
                "tempo": 120.0
            },
            {
                "start_time": 36.61363636363636,
                "end_time": 36.71363636363636,
                "pitch": 47,
                "velocity": 51,
                "duration": 0.10000000000000142,
                "tempo": 120.0
            },
            {
                "start_time": 36.74772727272727,
                "end_time": 36.84772727272727,
                "pitch": 40,
                "velocity": 51,
                "duration": 0.10000000000000142,
                "tempo": 120.0
            },
            {
                "start_time": 36.88181818181818,
                "end_time": 37.08181818181818,
                "pitch": 40,
                "velocity": 51,
                "duration": 0.19999999999999574,
                "tempo": 120.0
            },
            {
                "start_time": 37.14772727272727,
                "end_time": 37.24772727272727,
                "pitch": 40,
                "velocity": 51,
                "duration": 0.09999999999999432,
                "tempo": 120.0
            },
            {
                "start_time": 37.28181818181818,
                "end_time": 37.38181818181818,
                "pitch": 40,
                "velocity": 51,
                "duration": 0.10000000000000142,
                "tempo": 120.0
            },
            {
                "start_time": 37.41590909090909,
                "end_time": 37.51590909090909,
                "pitch": 47,
                "velocity": 51,
                "duration": 0.10000000000000142,
                "tempo": 120.0
            },
            {
                "start_time": 37.54772727272727,
                "end_time": 37.64772727272727,
                "pitch": 40,
                "velocity": 51,
                "duration": 0.10000000000000142,
                "tempo": 120.0
            },
            {
                "start_time": 37.68181818181818,
                "end_time": 37.78181818181818,
                "pitch": 47,
                "velocity": 51,
                "duration": 0.10000000000000142,
                "tempo": 120.0
            },
            {
                "start_time": 37.81590909090909,
                "end_time": 37.91590909090909,
                "pitch": 40,
                "velocity": 51,
                "duration": 0.10000000000000142,
                "tempo": 120.0
            },
            {
                "start_time": 37.94772727272727,
                "end_time": 38.04772727272727,
                "pitch": 47,
                "velocity": 51,
                "duration": 0.10000000000000142,
                "tempo": 120.0
            },
            {
                "start_time": 38.08181818181818,
                "end_time": 38.18181818181818,
                "pitch": 40,
                "velocity": 51,
                "duration": 0.10000000000000142,
                "tempo": 120.0
            },
            {
                "start_time": 38.215909090909086,
                "end_time": 38.31590909090909,
                "pitch": 47,
                "velocity": 51,
                "duration": 0.10000000000000142,
                "tempo": 120.0
            },
            {
                "start_time": 38.34772727272727,
                "end_time": 38.44772727272727,
                "pitch": 40,
                "velocity": 51,
                "duration": 0.10000000000000142,
                "tempo": 120.0
            },
            {
                "start_time": 38.48181818181818,
                "end_time": 38.684090909090905,
                "pitch": 42,
                "velocity": 51,
                "duration": 0.20227272727272805,
                "tempo": 120.0
            },
            {
                "start_time": 38.75,
                "end_time": 38.85,
                "pitch": 42,
                "velocity": 51,
                "duration": 0.10000000000000142,
                "tempo": 120.0
            },
            {
                "start_time": 38.88409090909091,
                "end_time": 38.98409090909091,
                "pitch": 34,
                "velocity": 51,
                "duration": 0.10000000000000142,
                "tempo": 120.0
            },
            {
                "start_time": 39.018181818181816,
                "end_time": 39.11818181818182,
                "pitch": 39,
                "velocity": 51,
                "duration": 0.10000000000000142,
                "tempo": 120.0
            },
            {
                "start_time": 39.15,
                "end_time": 39.25,
                "pitch": 34,
                "velocity": 51,
                "duration": 0.10000000000000142,
                "tempo": 120.0
            },
            {
                "start_time": 39.28409090909091,
                "end_time": 39.38409090909091,
                "pitch": 39,
                "velocity": 51,
                "duration": 0.10000000000000142,
                "tempo": 120.0
            },
            {
                "start_time": 39.418181818181814,
                "end_time": 39.518181818181816,
                "pitch": 34,
                "velocity": 51,
                "duration": 0.10000000000000142,
                "tempo": 120.0
            },
            {
                "start_time": 39.55,
                "end_time": 39.65,
                "pitch": 39,
                "velocity": 51,
                "duration": 0.10000000000000142,
                "tempo": 120.0
            },
            {
                "start_time": 39.684090909090905,
                "end_time": 39.78409090909091,
                "pitch": 34,
                "velocity": 51,
                "duration": 0.10000000000000142,
                "tempo": 120.0
            },
            {
                "start_time": 39.81818181818181,
                "end_time": 39.918181818181814,
                "pitch": 42,
                "velocity": 51,
                "duration": 0.10000000000000142,
                "tempo": 120.0
            },
            {
                "start_time": 39.949999999999996,
                "end_time": 40.05,
                "pitch": 34,
                "velocity": 51,
                "duration": 0.10000000000000142,
                "tempo": 120.0
            },
            {
                "start_time": 40.084090909090904,
                "end_time": 40.28409090909091,
                "pitch": 42,
                "velocity": 51,
                "duration": 0.20000000000000284,
                "tempo": 120.0
            },
            {
                "start_time": 40.35,
                "end_time": 40.449999999999996,
                "pitch": 42,
                "velocity": 51,
                "duration": 0.09999999999999432,
                "tempo": 120.0
            },
            {
                "start_time": 40.48409090909091,
                "end_time": 40.584090909090904,
                "pitch": 34,
                "velocity": 51,
                "duration": 0.09999999999999432,
                "tempo": 120.0
            },
            {
                "start_time": 40.61818181818182,
                "end_time": 40.71818181818182,
                "pitch": 39,
                "velocity": 51,
                "duration": 0.10000000000000142,
                "tempo": 120.0
            },
            {
                "start_time": 40.752272727272725,
                "end_time": 40.85454545454545,
                "pitch": 34,
                "velocity": 51,
                "duration": 0.10227272727272663,
                "tempo": 120.0
            },
            {
                "start_time": 40.88636363636363,
                "end_time": 40.986363636363635,
                "pitch": 39,
                "velocity": 51,
                "duration": 0.10000000000000142,
                "tempo": 120.0
            },
            {
                "start_time": 41.02045454545454,
                "end_time": 41.12045454545454,
                "pitch": 34,
                "velocity": 51,
                "duration": 0.10000000000000142,
                "tempo": 120.0
            },
            {
                "start_time": 41.154545454545456,
                "end_time": 41.25454545454545,
                "pitch": 39,
                "velocity": 51,
                "duration": 0.09999999999999432,
                "tempo": 120.0
            },
            {
                "start_time": 41.28636363636363,
                "end_time": 41.38636363636363,
                "pitch": 34,
                "velocity": 51,
                "duration": 0.10000000000000142,
                "tempo": 120.0
            },
            {
                "start_time": 41.42045454545455,
                "end_time": 41.52045454545454,
                "pitch": 42,
                "velocity": 51,
                "duration": 0.09999999999999432,
                "tempo": 120.0
            },
            {
                "start_time": 41.554545454545455,
                "end_time": 41.65454545454545,
                "pitch": 34,
                "velocity": 51,
                "duration": 0.09999999999999432,
                "tempo": 120.0
            },
            {
                "start_time": 41.68636363636364,
                "end_time": 41.88636363636363,
                "pitch": 39,
                "velocity": 51,
                "duration": 0.19999999999999574,
                "tempo": 120.0
            },
            {
                "start_time": 41.95454545454545,
                "end_time": 42.054545454545455,
                "pitch": 39,
                "velocity": 51,
                "duration": 0.10000000000000142,
                "tempo": 120.0
            },
            {
                "start_time": 42.086363636363636,
                "end_time": 42.18636363636364,
                "pitch": 35,
                "velocity": 51,
                "duration": 0.10000000000000142,
                "tempo": 120.0
            },
            {
                "start_time": 42.220454545454544,
                "end_time": 42.320454545454545,
                "pitch": 39,
                "velocity": 51,
                "duration": 0.10000000000000142,
                "tempo": 120.0
            },
            {
                "start_time": 42.35454545454545,
                "end_time": 42.45454545454545,
                "pitch": 35,
                "velocity": 51,
                "duration": 0.10000000000000142,
                "tempo": 120.0
            },
            {
                "start_time": 42.486363636363635,
                "end_time": 42.58863636363636,
                "pitch": 39,
                "velocity": 51,
                "duration": 0.10227272727272663,
                "tempo": 120.0
            },
            {
                "start_time": 42.62045454545454,
                "end_time": 42.72272727272727,
                "pitch": 35,
                "velocity": 51,
                "duration": 0.10227272727272663,
                "tempo": 120.0
            },
            {
                "start_time": 42.75454545454545,
                "end_time": 42.85681818181818,
                "pitch": 39,
                "velocity": 51,
                "duration": 0.10227272727272663,
                "tempo": 120.0
            },
            {
                "start_time": 42.88863636363636,
                "end_time": 42.98863636363636,
                "pitch": 35,
                "velocity": 51,
                "duration": 0.10000000000000142,
                "tempo": 120.0
            },
            {
                "start_time": 43.02272727272727,
                "end_time": 43.12272727272727,
                "pitch": 42,
                "velocity": 51,
                "duration": 0.09999999999999432,
                "tempo": 120.0
            },
            {
                "start_time": 43.15681818181818,
                "end_time": 43.25681818181818,
                "pitch": 35,
                "velocity": 51,
                "duration": 0.10000000000000142,
                "tempo": 120.0
            },
            {
                "start_time": 43.288636363636364,
                "end_time": 43.48863636363636,
                "pitch": 39,
                "velocity": 51,
                "duration": 0.19999999999999574,
                "tempo": 120.0
            },
            {
                "start_time": 43.55681818181818,
                "end_time": 43.65681818181818,
                "pitch": 39,
                "velocity": 51,
                "duration": 0.10000000000000142,
                "tempo": 120.0
            },
            {
                "start_time": 43.68863636363636,
                "end_time": 43.788636363636364,
                "pitch": 35,
                "velocity": 51,
                "duration": 0.10000000000000142,
                "tempo": 120.0
            },
            {
                "start_time": 43.82272727272727,
                "end_time": 43.92272727272727,
                "pitch": 39,
                "velocity": 51,
                "duration": 0.10000000000000142,
                "tempo": 120.0
            },
            {
                "start_time": 43.95681818181818,
                "end_time": 44.05681818181818,
                "pitch": 35,
                "velocity": 51,
                "duration": 0.10000000000000142,
                "tempo": 120.0
            },
            {
                "start_time": 44.08863636363636,
                "end_time": 44.18863636363636,
                "pitch": 39,
                "velocity": 51,
                "duration": 0.10000000000000142,
                "tempo": 120.0
            },
            {
                "start_time": 44.22272727272727,
                "end_time": 44.32272727272727,
                "pitch": 35,
                "velocity": 51,
                "duration": 0.10000000000000142,
                "tempo": 120.0
            },
            {
                "start_time": 44.35681818181818,
                "end_time": 44.45681818181818,
                "pitch": 39,
                "velocity": 51,
                "duration": 0.10000000000000142,
                "tempo": 120.0
            },
            {
                "start_time": 44.48863636363636,
                "end_time": 44.590909090909086,
                "pitch": 35,
                "velocity": 51,
                "duration": 0.10227272727272663,
                "tempo": 120.0
            },
            {
                "start_time": 44.625,
                "end_time": 44.724999999999994,
                "pitch": 42,
                "velocity": 51,
                "duration": 0.09999999999999432,
                "tempo": 120.0
            },
            {
                "start_time": 44.75909090909091,
                "end_time": 44.85909090909091,
                "pitch": 35,
                "velocity": 51,
                "duration": 0.10000000000000142,
                "tempo": 120.0
            },
            {
                "start_time": 44.893181818181816,
                "end_time": 45.09318181818182,
                "pitch": 40,
                "velocity": 51,
                "duration": 0.20000000000000284,
                "tempo": 120.0
            },
            {
                "start_time": 45.15909090909091,
                "end_time": 45.25909090909091,
                "pitch": 40,
                "velocity": 51,
                "duration": 0.10000000000000142,
                "tempo": 120.0
            },
            {
                "start_time": 45.293181818181814,
                "end_time": 45.49318181818182,
                "pitch": 40,
                "velocity": 51,
                "duration": 0.20000000000000284,
                "tempo": 120.0
            },
            {
                "start_time": 45.559090909090905,
                "end_time": 45.65909090909091,
                "pitch": 40,
                "velocity": 51,
                "duration": 0.10000000000000142,
                "tempo": 120.0
            },
            {
                "start_time": 45.69318181818181,
                "end_time": 45.893181818181816,
                "pitch": 40,
                "velocity": 51,
                "duration": 0.20000000000000284,
                "tempo": 120.0
            },
            {
                "start_time": 45.959090909090904,
                "end_time": 46.059090909090905,
                "pitch": 40,
                "velocity": 51,
                "duration": 0.10000000000000142,
                "tempo": 120.0
            },
            {
                "start_time": 46.09318181818182,
                "end_time": 46.293181818181814,
                "pitch": 40,
                "velocity": 51,
                "duration": 0.19999999999999574,
                "tempo": 120.0
            },
            {
                "start_time": 46.35909090909091,
                "end_time": 46.459090909090904,
                "pitch": 40,
                "velocity": 51,
                "duration": 0.09999999999999432,
                "tempo": 120.0
            },
            {
                "start_time": 46.49318181818182,
                "end_time": 46.69318181818181,
                "pitch": 40,
                "velocity": 51,
                "duration": 0.19999999999999574,
                "tempo": 120.0
            },
            {
                "start_time": 46.76136363636363,
                "end_time": 46.861363636363635,
                "pitch": 40,
                "velocity": 51,
                "duration": 0.10000000000000142,
                "tempo": 120.0
            },
            {
                "start_time": 46.89545454545454,
                "end_time": 47.095454545454544,
                "pitch": 40,
                "velocity": 51,
                "duration": 0.20000000000000284,
                "tempo": 120.0
            },
            {
                "start_time": 47.16136363636363,
                "end_time": 47.26136363636363,
                "pitch": 40,
                "velocity": 51,
                "duration": 0.10000000000000142,
                "tempo": 120.0
            },
            {
                "start_time": 47.29545454545454,
                "end_time": 47.611363636363635,
                "pitch": 40,
                "velocity": 51,
                "duration": 0.3159090909090949,
                "tempo": 120.0
            },
            {
                "start_time": 47.695454545454545,
                "end_time": 48.01136363636363,
                "pitch": 38,
                "velocity": 51,
                "duration": 0.3159090909090878,
                "tempo": 120.0
            },
            {
                "start_time": 48.095454545454544,
                "end_time": 54.50909090909091,
                "pitch": 43,
                "velocity": 51,
                "duration": 6.413636363636364,
                "tempo": 120.0
            },
            {
                "start_time": 54.50909090909091,
                "end_time": 54.60909090909091,
                "pitch": 40,
                "velocity": 51,
                "duration": 0.10000000000000142,
                "tempo": 120.0
            },
            {
                "start_time": 54.643181818181816,
                "end_time": 54.74318181818182,
                "pitch": 28,
                "velocity": 51,
                "duration": 0.10000000000000142,
                "tempo": 120.0
            },
            {
                "start_time": 54.777272727272724,
                "end_time": 54.877272727272725,
                "pitch": 40,
                "velocity": 51,
                "duration": 0.10000000000000142,
                "tempo": 120.0
            },
            {
                "start_time": 54.91136363636363,
                "end_time": 55.01136363636363,
                "pitch": 28,
                "velocity": 51,
                "duration": 0.10000000000000142,
                "tempo": 120.0
            },
            {
                "start_time": 55.04545454545454,
                "end_time": 55.14545454545454,
                "pitch": 40,
                "velocity": 51,
                "duration": 0.10000000000000142,
                "tempo": 120.0
            },
            {
                "start_time": 55.179545454545455,
                "end_time": 55.27954545454545,
                "pitch": 28,
                "velocity": 51,
                "duration": 0.09999999999999432,
                "tempo": 120.0
            },
            {
                "start_time": 55.31136363636363,
                "end_time": 55.41136363636363,
                "pitch": 40,
                "velocity": 51,
                "duration": 0.10000000000000142,
                "tempo": 120.0
            },
            {
                "start_time": 55.445454545454545,
                "end_time": 55.54545454545454,
                "pitch": 28,
                "velocity": 51,
                "duration": 0.09999999999999432,
                "tempo": 120.0
            },
            {
                "start_time": 55.57954545454545,
                "end_time": 55.679545454545455,
                "pitch": 40,
                "velocity": 51,
                "duration": 0.10000000000000142,
                "tempo": 120.0
            },
            {
                "start_time": 55.711363636363636,
                "end_time": 55.81136363636363,
                "pitch": 28,
                "velocity": 51,
                "duration": 0.09999999999999432,
                "tempo": 120.0
            },
            {
                "start_time": 55.845454545454544,
                "end_time": 55.945454545454545,
                "pitch": 40,
                "velocity": 51,
                "duration": 0.10000000000000142,
                "tempo": 120.0
            },
            {
                "start_time": 55.97954545454545,
                "end_time": 56.07954545454545,
                "pitch": 28,
                "velocity": 51,
                "duration": 0.10000000000000142,
                "tempo": 120.0
            },
            {
                "start_time": 56.111363636363635,
                "end_time": 56.211363636363636,
                "pitch": 40,
                "velocity": 51,
                "duration": 0.10000000000000142,
                "tempo": 120.0
            },
            {
                "start_time": 56.24545454545454,
                "end_time": 56.345454545454544,
                "pitch": 28,
                "velocity": 51,
                "duration": 0.10000000000000142,
                "tempo": 120.0
            },
            {
                "start_time": 56.37954545454545,
                "end_time": 56.47954545454545,
                "pitch": 40,
                "velocity": 51,
                "duration": 0.10000000000000142,
                "tempo": 120.0
            },
            {
                "start_time": 56.51136363636363,
                "end_time": 56.611363636363635,
                "pitch": 28,
                "velocity": 51,
                "duration": 0.10000000000000142,
                "tempo": 120.0
            },
            {
                "start_time": 56.64545454545454,
                "end_time": 56.74772727272727,
                "pitch": 40,
                "velocity": 51,
                "duration": 0.10227272727272663,
                "tempo": 120.0
            },
            {
                "start_time": 56.77954545454545,
                "end_time": 56.881818181818176,
                "pitch": 28,
                "velocity": 51,
                "duration": 0.10227272727272663,
                "tempo": 120.0
            },
            {
                "start_time": 56.913636363636364,
                "end_time": 57.018181818181816,
                "pitch": 40,
                "velocity": 51,
                "duration": 0.10454545454545183,
                "tempo": 120.0
            },
            {
                "start_time": 57.05227272727272,
                "end_time": 57.15454545454545,
                "pitch": 28,
                "velocity": 51,
                "duration": 0.10227272727272663,
                "tempo": 120.0
            },
            {
                "start_time": 57.18863636363636,
                "end_time": 57.29090909090909,
                "pitch": 40,
                "velocity": 51,
                "duration": 0.10227272727272663,
                "tempo": 120.0
            },
            {
                "start_time": 57.324999999999996,
                "end_time": 57.425,
                "pitch": 28,
                "velocity": 51,
                "duration": 0.10000000000000142,
                "tempo": 120.0
            },
            {
                "start_time": 57.459090909090904,
                "end_time": 57.559090909090905,
                "pitch": 40,
                "velocity": 51,
                "duration": 0.10000000000000142,
                "tempo": 120.0
            },
            {
                "start_time": 57.59318181818182,
                "end_time": 57.69318181818181,
                "pitch": 28,
                "velocity": 51,
                "duration": 0.09999999999999432,
                "tempo": 120.0
            },
            {
                "start_time": 57.724999999999994,
                "end_time": 57.82272727272727,
                "pitch": 36,
                "velocity": 51,
                "duration": 0.09772727272727622,
                "tempo": 120.0
            },
            {
                "start_time": 57.85681818181818,
                "end_time": 57.95454545454545,
                "pitch": 24,
                "velocity": 51,
                "duration": 0.09772727272727622,
                "tempo": 120.0
            },
            {
                "start_time": 57.986363636363635,
                "end_time": 58.084090909090904,
                "pitch": 36,
                "velocity": 51,
                "duration": 0.09772727272726911,
                "tempo": 120.0
            },
            {
                "start_time": 58.11818181818182,
                "end_time": 58.21818181818182,
                "pitch": 24,
                "velocity": 51,
                "duration": 0.10000000000000142,
                "tempo": 120.0
            },
            {
                "start_time": 58.25,
                "end_time": 58.349999999999994,
                "pitch": 36,
                "velocity": 51,
                "duration": 0.09999999999999432,
                "tempo": 120.0
            },
            {
                "start_time": 58.38409090909091,
                "end_time": 58.48409090909091,
                "pitch": 24,
                "velocity": 51,
                "duration": 0.10000000000000142,
                "tempo": 120.0
            },
            {
                "start_time": 58.518181818181816,
                "end_time": 58.62045454545454,
                "pitch": 36,
                "velocity": 51,
                "duration": 0.10227272727272663,
                "tempo": 120.0
            },
            {
                "start_time": 58.65454545454545,
                "end_time": 58.756818181818176,
                "pitch": 24,
                "velocity": 51,
                "duration": 0.10227272727272663,
                "tempo": 120.0
            },
            {
                "start_time": 58.79090909090909,
                "end_time": 58.893181818181816,
                "pitch": 36,
                "velocity": 51,
                "duration": 0.10227272727272663,
                "tempo": 120.0
            },
            {
                "start_time": 58.92727272727272,
                "end_time": 59.027272727272724,
                "pitch": 24,
                "velocity": 51,
                "duration": 0.10000000000000142,
                "tempo": 120.0
            },
            {
                "start_time": 59.059090909090905,
                "end_time": 59.15681818181818,
                "pitch": 36,
                "velocity": 51,
                "duration": 0.09772727272727622,
                "tempo": 120.0
            },
            {
                "start_time": 59.18863636363636,
                "end_time": 59.288636363636364,
                "pitch": 24,
                "velocity": 51,
                "duration": 0.10000000000000142,
                "tempo": 120.0
            },
            {
                "start_time": 59.320454545454545,
                "end_time": 59.42045454545454,
                "pitch": 36,
                "velocity": 51,
                "duration": 0.09999999999999432,
                "tempo": 120.0
            },
            {
                "start_time": 59.45454545454545,
                "end_time": 59.554545454545455,
                "pitch": 24,
                "velocity": 51,
                "duration": 0.10000000000000142,
                "tempo": 120.0
            },
            {
                "start_time": 59.586363636363636,
                "end_time": 59.68636363636363,
                "pitch": 36,
                "velocity": 51,
                "duration": 0.09999999999999432,
                "tempo": 120.0
            },
            {
                "start_time": 59.720454545454544,
                "end_time": 59.820454545454545,
                "pitch": 24,
                "velocity": 51,
                "duration": 0.10000000000000142,
                "tempo": 120.0
            },
            {
                "start_time": 59.85454545454545,
                "end_time": 59.95454545454545,
                "pitch": 36,
                "velocity": 51,
                "duration": 0.10000000000000142,
                "tempo": 120.0
            },
            {
                "start_time": 59.986363636363635,
                "end_time": 60.086363636363636,
                "pitch": 24,
                "velocity": 51,
                "duration": 0.10000000000000142,
                "tempo": 120.0
            },
            {
                "start_time": 60.12045454545454,
                "end_time": 60.22272727272727,
                "pitch": 36,
                "velocity": 51,
                "duration": 0.10227272727272663,
                "tempo": 120.0
            },
            {
                "start_time": 60.256818181818176,
                "end_time": 60.35909090909091,
                "pitch": 24,
                "velocity": 51,
                "duration": 0.10227272727273373,
                "tempo": 120.0
            },
            {
                "start_time": 60.393181818181816,
                "end_time": 60.49772727272727,
                "pitch": 36,
                "velocity": 51,
                "duration": 0.10454545454545183,
                "tempo": 120.0
            },
            {
                "start_time": 60.53181818181818,
                "end_time": 60.631818181818176,
                "pitch": 24,
                "velocity": 51,
                "duration": 0.09999999999999432,
                "tempo": 120.0
            },
            {
                "start_time": 60.663636363636364,
                "end_time": 60.76363636363636,
                "pitch": 36,
                "velocity": 51,
                "duration": 0.09999999999999432,
                "tempo": 120.0
            },
            {
                "start_time": 60.79772727272727,
                "end_time": 60.897727272727266,
                "pitch": 24,
                "velocity": 51,
                "duration": 0.09999999999999432,
                "tempo": 120.0
            },
            {
                "start_time": 60.93181818181818,
                "end_time": 61.02954545454545,
                "pitch": 38,
                "velocity": 51,
                "duration": 0.09772727272726911,
                "tempo": 120.0
            },
            {
                "start_time": 61.06136363636363,
                "end_time": 61.15909090909091,
                "pitch": 26,
                "velocity": 51,
                "duration": 0.09772727272727622,
                "tempo": 120.0
            },
            {
                "start_time": 61.19318181818181,
                "end_time": 61.29090909090909,
                "pitch": 38,
                "velocity": 51,
                "duration": 0.09772727272727622,
                "tempo": 120.0
            },
            {
                "start_time": 61.32272727272727,
                "end_time": 61.425,
                "pitch": 26,
                "velocity": 51,
                "duration": 0.10227272727272663,
                "tempo": 120.0
            },
            {
                "start_time": 61.459090909090904,
                "end_time": 61.56363636363636,
                "pitch": 38,
                "velocity": 51,
                "duration": 0.10454545454545894,
                "tempo": 120.0
            },
            {
                "start_time": 61.59772727272727,
                "end_time": 61.699999999999996,
                "pitch": 26,
                "velocity": 51,
                "duration": 0.10227272727272663,
                "tempo": 120.0
            },
            {
                "start_time": 61.73409090909091,
                "end_time": 61.83181818181818,
                "pitch": 38,
                "velocity": 51,
                "duration": 0.09772727272726911,
                "tempo": 120.0
            },
            {
                "start_time": 61.86363636363636,
                "end_time": 61.96363636363636,
                "pitch": 26,
                "velocity": 51,
                "duration": 0.10000000000000142,
                "tempo": 120.0
            },
            {
                "start_time": 61.99545454545454,
                "end_time": 62.09318181818182,
                "pitch": 38,
                "velocity": 51,
                "duration": 0.09772727272727622,
                "tempo": 120.0
            },
            {
                "start_time": 62.127272727272725,
                "end_time": 62.22727272727273,
                "pitch": 26,
                "velocity": 51,
                "duration": 0.10000000000000142,
                "tempo": 120.0
            },
            {
                "start_time": 62.25909090909091,
                "end_time": 62.35909090909091,
                "pitch": 38,
                "velocity": 51,
                "duration": 0.10000000000000142,
                "tempo": 120.0
            },
            {
                "start_time": 62.393181818181816,
                "end_time": 62.49318181818182,
                "pitch": 26,
                "velocity": 51,
                "duration": 0.10000000000000142,
                "tempo": 120.0
            },
            {
                "start_time": 62.527272727272724,
                "end_time": 62.627272727272725,
                "pitch": 38,
                "velocity": 51,
                "duration": 0.10000000000000142,
                "tempo": 120.0
            },
            {
                "start_time": 62.66136363636363,
                "end_time": 62.76136363636363,
                "pitch": 26,
                "velocity": 51,
                "duration": 0.10000000000000142,
                "tempo": 120.0
            },
            {
                "start_time": 62.79545454545454,
                "end_time": 62.89545454545454,
                "pitch": 38,
                "velocity": 51,
                "duration": 0.10000000000000142,
                "tempo": 120.0
            },
            {
                "start_time": 62.929545454545455,
                "end_time": 63.03181818181818,
                "pitch": 26,
                "velocity": 51,
                "duration": 0.10227272727272663,
                "tempo": 120.0
            },
            {
                "start_time": 63.06590909090909,
                "end_time": 63.168181818181814,
                "pitch": 38,
                "velocity": 51,
                "duration": 0.10227272727272663,
                "tempo": 120.0
            },
            {
                "start_time": 63.20227272727272,
                "end_time": 63.304545454545455,
                "pitch": 26,
                "velocity": 51,
                "duration": 0.10227272727273373,
                "tempo": 120.0
            },
            {
                "start_time": 63.33863636363636,
                "end_time": 63.43863636363636,
                "pitch": 38,
                "velocity": 51,
                "duration": 0.10000000000000142,
                "tempo": 120.0
            },
            {
                "start_time": 63.470454545454544,
                "end_time": 63.56818181818181,
                "pitch": 26,
                "velocity": 51,
                "duration": 0.09772727272726911,
                "tempo": 120.0
            },
            {
                "start_time": 63.599999999999994,
                "end_time": 63.699999999999996,
                "pitch": 38,
                "velocity": 51,
                "duration": 0.10000000000000142,
                "tempo": 120.0
            },
            {
                "start_time": 63.73181818181818,
                "end_time": 63.83181818181818,
                "pitch": 26,
                "velocity": 51,
                "duration": 0.10000000000000142,
                "tempo": 120.0
            },
            {
                "start_time": 63.865909090909085,
                "end_time": 63.965909090909086,
                "pitch": 38,
                "velocity": 51,
                "duration": 0.10000000000000142,
                "tempo": 120.0
            },
            {
                "start_time": 63.99772727272727,
                "end_time": 64.09772727272727,
                "pitch": 26,
                "velocity": 51,
                "duration": 0.10000000000000142,
                "tempo": 120.0
            },
            {
                "start_time": 64.13181818181818,
                "end_time": 64.23181818181818,
                "pitch": 40,
                "velocity": 51,
                "duration": 0.10000000000000853,
                "tempo": 120.0
            },
            {
                "start_time": 64.26590909090909,
                "end_time": 64.36590909090908,
                "pitch": 28,
                "velocity": 51,
                "duration": 0.09999999999999432,
                "tempo": 120.0
            },
            {
                "start_time": 64.39772727272727,
                "end_time": 64.49772727272727,
                "pitch": 40,
                "velocity": 51,
                "duration": 0.10000000000000853,
                "tempo": 120.0
            },
            {
                "start_time": 64.53181818181818,
                "end_time": 64.63181818181818,
                "pitch": 28,
                "velocity": 51,
                "duration": 0.09999999999999432,
                "tempo": 120.0
            },
            {
                "start_time": 64.66590909090908,
                "end_time": 64.76590909090909,
                "pitch": 40,
                "velocity": 51,
                "duration": 0.10000000000000853,
                "tempo": 120.0
            },
            {
                "start_time": 64.79772727272727,
                "end_time": 64.89772727272727,
                "pitch": 28,
                "velocity": 51,
                "duration": 0.09999999999999432,
                "tempo": 120.0
            },
            {
                "start_time": 64.93181818181817,
                "end_time": 65.03181818181818,
                "pitch": 40,
                "velocity": 51,
                "duration": 0.10000000000000853,
                "tempo": 120.0
            },
            {
                "start_time": 65.06590909090909,
                "end_time": 65.16590909090908,
                "pitch": 28,
                "velocity": 51,
                "duration": 0.09999999999999432,
                "tempo": 120.0
            },
            {
                "start_time": 65.2,
                "end_time": 65.3,
                "pitch": 40,
                "velocity": 51,
                "duration": 0.09999999999999432,
                "tempo": 120.0
            },
            {
                "start_time": 65.3340909090909,
                "end_time": 65.43409090909091,
                "pitch": 28,
                "velocity": 51,
                "duration": 0.10000000000000853,
                "tempo": 120.0
            },
            {
                "start_time": 65.46818181818182,
                "end_time": 65.57045454545454,
                "pitch": 40,
                "velocity": 51,
                "duration": 0.10227272727271952,
                "tempo": 120.0
            },
            {
                "start_time": 65.60227272727272,
                "end_time": 65.70454545454545,
                "pitch": 28,
                "velocity": 51,
                "duration": 0.10227272727273373,
                "tempo": 120.0
            },
            {
                "start_time": 65.73636363636363,
                "end_time": 65.83636363636363,
                "pitch": 40,
                "velocity": 51,
                "duration": 0.09999999999999432,
                "tempo": 120.0
            },
            {
                "start_time": 65.87045454545454,
                "end_time": 65.97045454545454,
                "pitch": 28,
                "velocity": 51,
                "duration": 0.10000000000000853,
                "tempo": 120.0
            },
            {
                "start_time": 66.00454545454545,
                "end_time": 66.10454545454544,
                "pitch": 40,
                "velocity": 51,
                "duration": 0.09999999999999432,
                "tempo": 120.0
            },
            {
                "start_time": 66.13636363636364,
                "end_time": 66.23863636363636,
                "pitch": 28,
                "velocity": 51,
                "duration": 0.10227272727271952,
                "tempo": 120.0
            },
            {
                "start_time": 66.27499999999999,
                "end_time": 66.37727272727273,
                "pitch": 40,
                "velocity": 51,
                "duration": 0.10227272727273373,
                "tempo": 120.0
            },
            {
                "start_time": 66.41136363636363,
                "end_time": 66.51363636363637,
                "pitch": 28,
                "velocity": 51,
                "duration": 0.10227272727273373,
                "tempo": 120.0
            },
            {
                "start_time": 66.54772727272727,
                "end_time": 66.64772727272727,
                "pitch": 40,
                "velocity": 51,
                "duration": 0.09999999999999432,
                "tempo": 120.0
            },
            {
                "start_time": 66.68181818181817,
                "end_time": 66.7840909090909,
                "pitch": 28,
                "velocity": 51,
                "duration": 0.10227272727273373,
                "tempo": 120.0
            },
            {
                "start_time": 66.81590909090909,
                "end_time": 66.91818181818182,
                "pitch": 40,
                "velocity": 51,
                "duration": 0.10227272727273373,
                "tempo": 120.0
            },
            {
                "start_time": 66.95,
                "end_time": 67.04772727272727,
                "pitch": 28,
                "velocity": 51,
                "duration": 0.09772727272726911,
                "tempo": 120.0
            },
            {
                "start_time": 67.08181818181818,
                "end_time": 67.17954545454545,
                "pitch": 40,
                "velocity": 51,
                "duration": 0.09772727272726911,
                "tempo": 120.0
            },
            {
                "start_time": 67.21136363636363,
                "end_time": 67.30909090909091,
                "pitch": 28,
                "velocity": 51,
                "duration": 0.09772727272728332,
                "tempo": 120.0
            },
            {
                "start_time": 67.34318181818182,
                "end_time": 67.44318181818181,
                "pitch": 40,
                "velocity": 51,
                "duration": 0.09999999999999432,
                "tempo": 120.0
            },
            {
                "start_time": 67.47727272727272,
                "end_time": 67.57727272727273,
                "pitch": 28,
                "velocity": 51,
                "duration": 0.10000000000000853,
                "tempo": 120.0
            },
            {
                "start_time": 67.61136363636363,
                "end_time": 67.71136363636363,
                "pitch": 40,
                "velocity": 51,
                "duration": 0.09999999999999432,
                "tempo": 120.0
            },
            {
                "start_time": 67.74545454545454,
                "end_time": 67.84545454545454,
                "pitch": 28,
                "velocity": 51,
                "duration": 0.10000000000000853,
                "tempo": 120.0
            },
            {
                "start_time": 67.87954545454545,
                "end_time": 67.97954545454544,
                "pitch": 40,
                "velocity": 51,
                "duration": 0.09999999999999432,
                "tempo": 120.0
            },
            {
                "start_time": 68.01136363636363,
                "end_time": 68.11136363636363,
                "pitch": 28,
                "velocity": 51,
                "duration": 0.10000000000000853,
                "tempo": 120.0
            },
            {
                "start_time": 68.14545454545454,
                "end_time": 68.24545454545454,
                "pitch": 40,
                "velocity": 51,
                "duration": 0.09999999999999432,
                "tempo": 120.0
            },
            {
                "start_time": 68.27954545454546,
                "end_time": 68.37954545454545,
                "pitch": 28,
                "velocity": 51,
                "duration": 0.09999999999999432,
                "tempo": 120.0
            },
            {
                "start_time": 68.41363636363636,
                "end_time": 68.51363636363637,
                "pitch": 40,
                "velocity": 51,
                "duration": 0.10000000000000853,
                "tempo": 120.0
            },
            {
                "start_time": 68.54772727272727,
                "end_time": 68.64772727272727,
                "pitch": 28,
                "velocity": 51,
                "duration": 0.09999999999999432,
                "tempo": 120.0
            },
            {
                "start_time": 68.68181818181817,
                "end_time": 68.78181818181818,
                "pitch": 40,
                "velocity": 51,
                "duration": 0.10000000000000853,
                "tempo": 120.0
            },
            {
                "start_time": 68.81590909090909,
                "end_time": 68.91590909090908,
                "pitch": 28,
                "velocity": 51,
                "duration": 0.09999999999999432,
                "tempo": 120.0
            },
            {
                "start_time": 68.94772727272726,
                "end_time": 69.05,
                "pitch": 40,
                "velocity": 51,
                "duration": 0.10227272727273373,
                "tempo": 120.0
            },
            {
                "start_time": 69.08181818181818,
                "end_time": 69.18409090909091,
                "pitch": 28,
                "velocity": 51,
                "duration": 0.10227272727273373,
                "tempo": 120.0
            },
            {
                "start_time": 69.2159090909091,
                "end_time": 69.31818181818181,
                "pitch": 40,
                "velocity": 51,
                "duration": 0.10227272727271952,
                "tempo": 120.0
            },
            {
                "start_time": 69.35,
                "end_time": 69.45227272727273,
                "pitch": 28,
                "velocity": 51,
                "duration": 0.10227272727273373,
                "tempo": 120.0
            },
            {
                "start_time": 69.48409090909091,
                "end_time": 69.58636363636363,
                "pitch": 40,
                "velocity": 51,
                "duration": 0.10227272727271952,
                "tempo": 120.0
            },
            {
                "start_time": 69.62045454545454,
                "end_time": 69.72045454545454,
                "pitch": 28,
                "velocity": 51,
                "duration": 0.10000000000000853,
                "tempo": 120.0
            },
            {
                "start_time": 69.75454545454545,
                "end_time": 69.85681818181818,
                "pitch": 40,
                "velocity": 51,
                "duration": 0.10227272727273373,
                "tempo": 120.0
            },
            {
                "start_time": 69.89090909090909,
                "end_time": 69.99318181818181,
                "pitch": 28,
                "velocity": 51,
                "duration": 0.10227272727271952,
                "tempo": 120.0
            },
            {
                "start_time": 70.02727272727273,
                "end_time": 70.12954545454545,
                "pitch": 40,
                "velocity": 51,
                "duration": 0.10227272727271952,
                "tempo": 120.0
            },
            {
                "start_time": 70.16363636363636,
                "end_time": 70.26363636363637,
                "pitch": 28,
                "velocity": 51,
                "duration": 0.10000000000000853,
                "tempo": 120.0
            },
            {
                "start_time": 70.29772727272727,
                "end_time": 70.39772727272727,
                "pitch": 40,
                "velocity": 51,
                "duration": 0.09999999999999432,
                "tempo": 120.0
            },
            {
                "start_time": 70.43181818181817,
                "end_time": 70.53181818181818,
                "pitch": 28,
                "velocity": 51,
                "duration": 0.10000000000000853,
                "tempo": 120.0
            },
            {
                "start_time": 70.56363636363636,
                "end_time": 70.66363636363636,
                "pitch": 36,
                "velocity": 51,
                "duration": 0.09999999999999432,
                "tempo": 120.0
            },
            {
                "start_time": 70.69545454545454,
                "end_time": 70.79318181818182,
                "pitch": 24,
                "velocity": 51,
                "duration": 0.09772727272728332,
                "tempo": 120.0
            },
            {
                "start_time": 70.825,
                "end_time": 70.925,
                "pitch": 36,
                "velocity": 51,
                "duration": 0.09999999999999432,
                "tempo": 120.0
            },
            {
                "start_time": 70.95681818181818,
                "end_time": 71.05681818181817,
                "pitch": 24,
                "velocity": 51,
                "duration": 0.09999999999999432,
                "tempo": 120.0
            },
            {
                "start_time": 71.0909090909091,
                "end_time": 71.19090909090909,
                "pitch": 36,
                "velocity": 51,
                "duration": 0.09999999999999432,
                "tempo": 120.0
            },
            {
                "start_time": 71.225,
                "end_time": 71.325,
                "pitch": 24,
                "velocity": 51,
                "duration": 0.10000000000000853,
                "tempo": 120.0
            },
            {
                "start_time": 71.35909090909091,
                "end_time": 71.4590909090909,
                "pitch": 36,
                "velocity": 51,
                "duration": 0.09999999999999432,
                "tempo": 120.0
            },
            {
                "start_time": 71.49318181818181,
                "end_time": 71.59545454545454,
                "pitch": 24,
                "velocity": 51,
                "duration": 0.10227272727273373,
                "tempo": 120.0
            },
            {
                "start_time": 71.62727272727273,
                "end_time": 71.72954545454544,
                "pitch": 36,
                "velocity": 51,
                "duration": 0.10227272727271952,
                "tempo": 120.0
            },
            {
                "start_time": 71.76136363636363,
                "end_time": 71.86136363636363,
                "pitch": 24,
                "velocity": 51,
                "duration": 0.10000000000000853,
                "tempo": 120.0
            },
            {
                "start_time": 71.89545454545454,
                "end_time": 71.99545454545454,
                "pitch": 36,
                "velocity": 51,
                "duration": 0.09999999999999432,
                "tempo": 120.0
            },
            {
                "start_time": 72.02954545454546,
                "end_time": 72.12954545454545,
                "pitch": 24,
                "velocity": 51,
                "duration": 0.09999999999999432,
                "tempo": 120.0
            },
            {
                "start_time": 72.16136363636363,
                "end_time": 72.26363636363637,
                "pitch": 36,
                "velocity": 51,
                "duration": 0.10227272727273373,
                "tempo": 120.0
            },
            {
                "start_time": 72.29545454545455,
                "end_time": 72.39772727272727,
                "pitch": 24,
                "velocity": 51,
                "duration": 0.10227272727271952,
                "tempo": 120.0
            },
            {
                "start_time": 72.43181818181817,
                "end_time": 72.53181818181818,
                "pitch": 36,
                "velocity": 51,
                "duration": 0.10000000000000853,
                "tempo": 120.0
            },
            {
                "start_time": 72.56590909090909,
                "end_time": 72.66590909090908,
                "pitch": 24,
                "velocity": 51,
                "duration": 0.09999999999999432,
                "tempo": 120.0
            },
            {
                "start_time": 72.69772727272726,
                "end_time": 72.79772727272727,
                "pitch": 36,
                "velocity": 51,
                "duration": 0.10000000000000853,
                "tempo": 120.0
            },
            {
                "start_time": 72.83181818181818,
                "end_time": 72.93181818181817,
                "pitch": 24,
                "velocity": 51,
                "duration": 0.09999999999999432,
                "tempo": 120.0
            },
            {
                "start_time": 72.9659090909091,
                "end_time": 73.06818181818181,
                "pitch": 36,
                "velocity": 51,
                "duration": 0.10227272727271952,
                "tempo": 120.0
            },
            {
                "start_time": 73.10227272727272,
                "end_time": 73.20454545454545,
                "pitch": 24,
                "velocity": 51,
                "duration": 0.10227272727273373,
                "tempo": 120.0
            },
            {
                "start_time": 73.23863636363636,
                "end_time": 73.3409090909091,
                "pitch": 36,
                "velocity": 51,
                "duration": 0.10227272727273373,
                "tempo": 120.0
            },
            {
                "start_time": 73.375,
                "end_time": 73.475,
                "pitch": 24,
                "velocity": 51,
                "duration": 0.09999999999999432,
                "tempo": 120.0
            },
            {
                "start_time": 73.5090909090909,
                "end_time": 73.60909090909091,
                "pitch": 36,
                "velocity": 51,
                "duration": 0.10000000000000853,
                "tempo": 120.0
            },
            {
                "start_time": 73.64318181818182,
                "end_time": 73.74318181818181,
                "pitch": 24,
                "velocity": 51,
                "duration": 0.09999999999999432,
                "tempo": 120.0
            },
            {
                "start_time": 73.77499999999999,
                "end_time": 73.87272727272727,
                "pitch": 38,
                "velocity": 51,
                "duration": 0.09772727272728332,
                "tempo": 120.0
            },
            {
                "start_time": 73.90681818181818,
                "end_time": 74.00454545454545,
                "pitch": 26,
                "velocity": 51,
                "duration": 0.09772727272726911,
                "tempo": 120.0
            },
            {
                "start_time": 74.03636363636363,
                "end_time": 74.13636363636363,
                "pitch": 38,
                "velocity": 51,
                "duration": 0.09999999999999432,
                "tempo": 120.0
            },
            {
                "start_time": 74.16818181818182,
                "end_time": 74.26818181818182,
                "pitch": 26,
                "velocity": 51,
                "duration": 0.09999999999999432,
                "tempo": 120.0
            },
            {
                "start_time": 74.30227272727272,
                "end_time": 74.40227272727272,
                "pitch": 38,
                "velocity": 51,
                "duration": 0.09999999999999432,
                "tempo": 120.0
            },
            {
                "start_time": 74.43636363636364,
                "end_time": 74.53636363636363,
                "pitch": 26,
                "velocity": 51,
                "duration": 0.09999999999999432,
                "tempo": 120.0
            },
            {
                "start_time": 74.57045454545454,
                "end_time": 74.67045454545455,
                "pitch": 38,
                "velocity": 51,
                "duration": 0.10000000000000853,
                "tempo": 120.0
            },
            {
                "start_time": 74.70454545454545,
                "end_time": 74.80454545454545,
                "pitch": 26,
                "velocity": 51,
                "duration": 0.09999999999999432,
                "tempo": 120.0
            },
            {
                "start_time": 74.83636363636363,
                "end_time": 74.93636363636364,
                "pitch": 38,
                "velocity": 51,
                "duration": 0.10000000000000853,
                "tempo": 120.0
            },
            {
                "start_time": 74.97045454545454,
                "end_time": 75.07045454545454,
                "pitch": 26,
                "velocity": 51,
                "duration": 0.09999999999999432,
                "tempo": 120.0
            },
            {
                "start_time": 75.10454545454544,
                "end_time": 75.20454545454545,
                "pitch": 38,
                "velocity": 51,
                "duration": 0.10000000000000853,
                "tempo": 120.0
            },
            {
                "start_time": 75.23863636363636,
                "end_time": 75.3409090909091,
                "pitch": 26,
                "velocity": 51,
                "duration": 0.10227272727273373,
                "tempo": 120.0
            },
            {
                "start_time": 75.37272727272727,
                "end_time": 75.475,
                "pitch": 38,
                "velocity": 51,
                "duration": 0.10227272727271952,
                "tempo": 120.0
            },
            {
                "start_time": 75.50681818181818,
                "end_time": 75.60909090909091,
                "pitch": 26,
                "velocity": 51,
                "duration": 0.10227272727273373,
                "tempo": 120.0
            },
            {
                "start_time": 75.64090909090909,
                "end_time": 75.74318181818181,
                "pitch": 38,
                "velocity": 51,
                "duration": 0.10227272727271952,
                "tempo": 120.0
            },
            {
                "start_time": 75.77499999999999,
                "end_time": 75.875,
                "pitch": 26,
                "velocity": 51,
                "duration": 0.10000000000000853,
                "tempo": 120.0
            },
            {
                "start_time": 75.9090909090909,
                "end_time": 76.0090909090909,
                "pitch": 38,
                "velocity": 51,
                "duration": 0.09999999999999432,
                "tempo": 120.0
            },
            {
                "start_time": 76.04318181818182,
                "end_time": 76.14318181818182,
                "pitch": 26,
                "velocity": 51,
                "duration": 0.09999999999999432,
                "tempo": 120.0
            },
            {
                "start_time": 76.175,
                "end_time": 76.27727272727272,
                "pitch": 38,
                "velocity": 51,
                "duration": 0.10227272727271952,
                "tempo": 120.0
            },
            {
                "start_time": 76.31136363636364,
                "end_time": 76.41136363636363,
                "pitch": 26,
                "velocity": 51,
                "duration": 0.09999999999999432,
                "tempo": 120.0
            },
            {
                "start_time": 76.44545454545454,
                "end_time": 76.54545454545455,
                "pitch": 38,
                "velocity": 51,
                "duration": 0.10000000000000853,
                "tempo": 120.0
            },
            {
                "start_time": 76.57954545454545,
                "end_time": 76.67954545454545,
                "pitch": 26,
                "velocity": 51,
                "duration": 0.09999999999999432,
                "tempo": 120.0
            },
            {
                "start_time": 76.71136363636363,
                "end_time": 76.81136363636364,
                "pitch": 38,
                "velocity": 51,
                "duration": 0.10000000000000853,
                "tempo": 120.0
            },
            {
                "start_time": 76.84545454545454,
                "end_time": 76.94545454545454,
                "pitch": 26,
                "velocity": 51,
                "duration": 0.09999999999999432,
                "tempo": 120.0
            },
            {
                "start_time": 76.97954545454544,
                "end_time": 77.07954545454545,
                "pitch": 40,
                "velocity": 51,
                "duration": 0.10000000000000853,
                "tempo": 120.0
            },
            {
                "start_time": 77.11363636363636,
                "end_time": 77.21363636363635,
                "pitch": 28,
                "velocity": 51,
                "duration": 0.09999999999999432,
                "tempo": 120.0
            },
            {
                "start_time": 77.24772727272727,
                "end_time": 77.34772727272727,
                "pitch": 40,
                "velocity": 51,
                "duration": 0.09999999999999432,
                "tempo": 120.0
            },
            {
                "start_time": 77.38181818181818,
                "end_time": 77.48181818181818,
                "pitch": 28,
                "velocity": 51,
                "duration": 0.10000000000000853,
                "tempo": 120.0
            },
            {
                "start_time": 77.51590909090909,
                "end_time": 77.61590909090908,
                "pitch": 40,
                "velocity": 51,
                "duration": 0.09999999999999432,
                "tempo": 120.0
            },
            {
                "start_time": 77.64999999999999,
                "end_time": 77.75,
                "pitch": 28,
                "velocity": 51,
                "duration": 0.10000000000000853,
                "tempo": 120.0
            },
            {
                "start_time": 77.7840909090909,
                "end_time": 77.8840909090909,
                "pitch": 40,
                "velocity": 51,
                "duration": 0.09999999999999432,
                "tempo": 120.0
            },
            {
                "start_time": 77.91818181818181,
                "end_time": 78.01818181818182,
                "pitch": 28,
                "velocity": 51,
                "duration": 0.10000000000000853,
                "tempo": 120.0
            },
            {
                "start_time": 78.05,
                "end_time": 78.14999999999999,
                "pitch": 40,
                "velocity": 51,
                "duration": 0.09999999999999432,
                "tempo": 120.0
            },
            {
                "start_time": 78.18409090909091,
                "end_time": 78.28636363636363,
                "pitch": 28,
                "velocity": 51,
                "duration": 0.10227272727271952,
                "tempo": 120.0
            },
            {
                "start_time": 78.32045454545454,
                "end_time": 78.42272727272727,
                "pitch": 40,
                "velocity": 51,
                "duration": 0.10227272727273373,
                "tempo": 120.0
            },
            {
                "start_time": 78.45681818181818,
                "end_time": 78.56136363636364,
                "pitch": 28,
                "velocity": 51,
                "duration": 0.10454545454545894,
                "tempo": 120.0
            },
            {
                "start_time": 78.59545454545454,
                "end_time": 78.69318181818181,
                "pitch": 40,
                "velocity": 51,
                "duration": 0.09772727272726911,
                "tempo": 120.0
            },
            {
                "start_time": 78.725,
                "end_time": 78.82272727272726,
                "pitch": 28,
                "velocity": 51,
                "duration": 0.09772727272726911,
                "tempo": 120.0
            },
            {
                "start_time": 78.85681818181818,
                "end_time": 78.95454545454545,
                "pitch": 40,
                "velocity": 51,
                "duration": 0.09772727272726911,
                "tempo": 120.0
            },
            {
                "start_time": 78.98636363636363,
                "end_time": 79.08863636363635,
                "pitch": 28,
                "velocity": 51,
                "duration": 0.10227272727271952,
                "tempo": 120.0
            },
            {
                "start_time": 79.12045454545454,
                "end_time": 79.22272727272727,
                "pitch": 40,
                "velocity": 51,
                "duration": 0.10227272727273373,
                "tempo": 120.0
            },
            {
                "start_time": 79.25454545454545,
                "end_time": 79.35681818181818,
                "pitch": 28,
                "velocity": 51,
                "duration": 0.10227272727273373,
                "tempo": 120.0
            },
            {
                "start_time": 79.38863636363637,
                "end_time": 79.49318181818181,
                "pitch": 40,
                "velocity": 51,
                "duration": 0.10454545454544473,
                "tempo": 120.0
            },
            {
                "start_time": 79.52727272727272,
                "end_time": 79.62954545454545,
                "pitch": 28,
                "velocity": 51,
                "duration": 0.10227272727273373,
                "tempo": 120.0
            },
            {
                "start_time": 79.66363636363636,
                "end_time": 79.76590909090909,
                "pitch": 40,
                "velocity": 51,
                "duration": 0.10227272727273373,
                "tempo": 120.0
            },
            {
                "start_time": 79.8,
                "end_time": 79.89772727272727,
                "pitch": 28,
                "velocity": 51,
                "duration": 0.09772727272726911,
                "tempo": 120.0
            },
            {
                "start_time": 79.93181818181817,
                "end_time": 80.02954545454546,
                "pitch": 40,
                "velocity": 51,
                "duration": 0.09772727272728332,
                "tempo": 120.0
            },
            {
                "start_time": 80.06136363636364,
                "end_time": 80.1590909090909,
                "pitch": 28,
                "velocity": 51,
                "duration": 0.09772727272726911,
                "tempo": 120.0
            }
        ]
    }
}