{
    "track_id": "Solomon no Kagi (FM) - 05 - Pages Room",
    "mood": "angry",
    "instruments": {
        "Flute": [
            {
                "start_time": 0.32045454545454544,
                "end_time": 0.5204545454545454,
                "pitch": 74,
                "velocity": 40,
                "duration": 0.19999999999999996,
                "tempo": 120.0
            },
            {
                "start_time": 0.8545454545454545,
                "end_time": 1.0568181818181817,
                "pitch": 81,
                "velocity": 40,
                "duration": 0.20227272727272716,
                "tempo": 120.0
            },
            {
                "start_time": 1.3909090909090909,
                "end_time": 1.5954545454545455,
                "pitch": 79,
                "velocity": 40,
                "duration": 0.20454545454545459,
                "tempo": 120.0
            },
            {
                "start_time": 1.6636363636363636,
                "end_time": 1.8659090909090907,
                "pitch": 77,
                "velocity": 40,
                "duration": 0.20227272727272716,
                "tempo": 120.0
            },
            {
                "start_time": 1.934090909090909,
                "end_time": 2.134090909090909,
                "pitch": 76,
                "velocity": 40,
                "duration": 0.19999999999999973,
                "tempo": 120.0
            },
            {
                "start_time": 2.4681818181818183,
                "end_time": 2.668181818181818,
                "pitch": 76,
                "velocity": 40,
                "duration": 0.19999999999999973,
                "tempo": 120.0
            },
            {
                "start_time": 3.0045454545454544,
                "end_time": 3.209090909090909,
                "pitch": 77,
                "velocity": 40,
                "duration": 0.20454545454545459,
                "tempo": 120.0
            },
            {
                "start_time": 3.277272727272727,
                "end_time": 3.4795454545454545,
                "pitch": 79,
                "velocity": 40,
                "duration": 0.2022727272727276,
                "tempo": 120.0
            },
            {
                "start_time": 3.5454545454545454,
                "end_time": 3.9636363636363634,
                "pitch": 77,
                "velocity": 40,
                "duration": 0.418181818181818,
                "tempo": 120.0
            },
            {
                "start_time": 4.081818181818182,
                "end_time": 4.497727272727272,
                "pitch": 74,
                "velocity": 40,
                "duration": 0.4159090909090901,
                "tempo": 120.0
            },
            {
                "start_time": 4.618181818181818,
                "end_time": 4.820454545454545,
                "pitch": 82,
                "velocity": 40,
                "duration": 0.20227272727272716,
                "tempo": 120.0
            },
            {
                "start_time": 4.888636363636364,
                "end_time": 5.093181818181818,
                "pitch": 81,
                "velocity": 40,
                "duration": 0.20454545454545414,
                "tempo": 120.0
            },
            {
                "start_time": 5.159090909090909,
                "end_time": 5.3590909090909085,
                "pitch": 79,
                "velocity": 40,
                "duration": 0.1999999999999993,
                "tempo": 120.0
            },
            {
                "start_time": 5.427272727272727,
                "end_time": 5.627272727272727,
                "pitch": 77,
                "velocity": 40,
                "duration": 0.20000000000000018,
                "tempo": 120.0
            },
            {
                "start_time": 5.693181818181818,
                "end_time": 6.111363636363636,
                "pitch": 84,
                "velocity": 40,
                "duration": 0.418181818181818,
                "tempo": 120.0
            },
            {
                "start_time": 6.2295454545454545,
                "end_time": 6.434090909090909,
                "pitch": 82,
                "velocity": 40,
                "duration": 0.20454545454545414,
                "tempo": 120.0
            },
            {
                "start_time": 6.502272727272727,
                "end_time": 6.704545454545454,
                "pitch": 81,
                "velocity": 40,
                "duration": 0.20227272727272716,
                "tempo": 120.0
            },
            {
                "start_time": 6.7727272727272725,
                "end_time": 7.1886363636363635,
                "pitch": 79,
                "velocity": 40,
                "duration": 0.415909090909091,
                "tempo": 120.0
            },
            {
                "start_time": 7.572727272727272,
                "end_time": 7.672727272727272,
                "pitch": 81,
                "velocity": 40,
                "duration": 0.09999999999999964,
                "tempo": 120.0
            },
            {
                "start_time": 7.706818181818181,
                "end_time": 7.809090909090909,
                "pitch": 79,
                "velocity": 40,
                "duration": 0.10227272727272751,
                "tempo": 120.0
            },
            {
                "start_time": 7.843181818181818,
                "end_time": 8.702272727272726,
                "pitch": 78,
                "velocity": 40,
                "duration": 0.8590909090909085,
                "tempo": 120.0
            },
            {
                "start_time": 8.918181818181818,
                "end_time": 9.118181818181817,
                "pitch": 74,
                "velocity": 40,
                "duration": 0.1999999999999993,
                "tempo": 120.0
            },
            {
                "start_time": 9.454545454545453,
                "end_time": 9.659090909090908,
                "pitch": 81,
                "velocity": 40,
                "duration": 0.20454545454545503,
                "tempo": 120.0
            },
            {
                "start_time": 9.997727272727273,
                "end_time": 10.197727272727272,
                "pitch": 79,
                "velocity": 40,
                "duration": 0.1999999999999993,
                "tempo": 120.0
            },
            {
                "start_time": 10.263636363636364,
                "end_time": 10.46590909090909,
                "pitch": 77,
                "velocity": 40,
                "duration": 0.20227272727272627,
                "tempo": 120.0
            },
            {
                "start_time": 10.531818181818181,
                "end_time": 10.73181818181818,
                "pitch": 76,
                "velocity": 40,
                "duration": 0.1999999999999993,
                "tempo": 120.0
            },
            {
                "start_time": 11.068181818181818,
                "end_time": 11.272727272727272,
                "pitch": 76,
                "velocity": 40,
                "duration": 0.20454545454545325,
                "tempo": 120.0
            },
            {
                "start_time": 11.60909090909091,
                "end_time": 11.811363636363636,
                "pitch": 77,
                "velocity": 40,
                "duration": 0.20227272727272627,
                "tempo": 120.0
            },
            {
                "start_time": 11.877272727272727,
                "end_time": 12.077272727272726,
                "pitch": 79,
                "velocity": 40,
                "duration": 0.1999999999999993,
                "tempo": 120.0
            },
            {
                "start_time": 12.145454545454545,
                "end_time": 12.561363636363636,
                "pitch": 77,
                "velocity": 40,
                "duration": 0.415909090909091,
                "tempo": 120.0
            },
            {
                "start_time": 12.681818181818182,
                "end_time": 13.10681818181818,
                "pitch": 74,
                "velocity": 40,
                "duration": 0.42499999999999893,
                "tempo": 120.0
            },
            {
                "start_time": 13.222727272727273,
                "end_time": 13.422727272727272,
                "pitch": 82,
                "velocity": 40,
                "duration": 0.1999999999999993,
                "tempo": 120.0
            },
            {
                "start_time": 13.49090909090909,
                "end_time": 13.69090909090909,
                "pitch": 81,
                "velocity": 40,
                "duration": 0.1999999999999993,
                "tempo": 120.0
            },
            {
                "start_time": 13.759090909090908,
                "end_time": 13.963636363636363,
                "pitch": 79,
                "velocity": 40,
                "duration": 0.20454545454545503,
                "tempo": 120.0
            },
            {
                "start_time": 14.031818181818181,
                "end_time": 14.234090909090908,
                "pitch": 77,
                "velocity": 40,
                "duration": 0.20227272727272627,
                "tempo": 120.0
            },
            {
                "start_time": 14.299999999999999,
                "end_time": 14.718181818181817,
                "pitch": 84,
                "velocity": 40,
                "duration": 0.418181818181818,
                "tempo": 120.0
            },
            {
                "start_time": 14.836363636363636,
                "end_time": 15.036363636363635,
                "pitch": 82,
                "velocity": 40,
                "duration": 0.1999999999999993,
                "tempo": 120.0
            },
            {
                "start_time": 15.102272727272727,
                "end_time": 15.302272727272726,
                "pitch": 81,
                "velocity": 40,
                "duration": 0.1999999999999993,
                "tempo": 120.0
            },
            {
                "start_time": 15.370454545454544,
                "end_time": 16.229545454545455,
                "pitch": 79,
                "velocity": 40,
                "duration": 0.8590909090909111,
                "tempo": 120.0
            },
            {
                "start_time": 16.44772727272727,
                "end_time": 17.3,
                "pitch": 81,
                "velocity": 40,
                "duration": 0.8522727272727302,
                "tempo": 120.0
            },
            {
                "start_time": 17.51590909090909,
                "end_time": 17.71818181818182,
                "pitch": 86,
                "velocity": 40,
                "duration": 0.20227272727272805,
                "tempo": 120.0
            },
            {
                "start_time": 17.784090909090907,
                "end_time": 17.986363636363635,
                "pitch": 79,
                "velocity": 40,
                "duration": 0.20227272727272805,
                "tempo": 120.0
            },
            {
                "start_time": 18.054545454545455,
                "end_time": 18.25681818181818,
                "pitch": 81,
                "velocity": 40,
                "duration": 0.2022727272727245,
                "tempo": 120.0
            },
            {
                "start_time": 18.325,
                "end_time": 18.527272727272727,
                "pitch": 82,
                "velocity": 40,
                "duration": 0.20227272727272805,
                "tempo": 120.0
            },
            {
                "start_time": 18.595454545454544,
                "end_time": 18.795454545454543,
                "pitch": 84,
                "velocity": 40,
                "duration": 0.1999999999999993,
                "tempo": 120.0
            },
            {
                "start_time": 18.861363636363635,
                "end_time": 19.063636363636363,
                "pitch": 77,
                "velocity": 40,
                "duration": 0.20227272727272805,
                "tempo": 120.0
            },
            {
                "start_time": 19.13181818181818,
                "end_time": 19.336363636363636,
                "pitch": 79,
                "velocity": 40,
                "duration": 0.2045454545454568,
                "tempo": 120.0
            },
            {
                "start_time": 19.404545454545453,
                "end_time": 19.60681818181818,
                "pitch": 81,
                "velocity": 40,
                "duration": 0.20227272727272805,
                "tempo": 120.0
            },
            {
                "start_time": 19.672727272727272,
                "end_time": 19.875,
                "pitch": 82,
                "velocity": 40,
                "duration": 0.20227272727272805,
                "tempo": 120.0
            },
            {
                "start_time": 19.94090909090909,
                "end_time": 20.14090909090909,
                "pitch": 76,
                "velocity": 40,
                "duration": 0.1999999999999993,
                "tempo": 120.0
            },
            {
                "start_time": 20.206818181818182,
                "end_time": 20.409090909090907,
                "pitch": 77,
                "velocity": 40,
                "duration": 0.2022727272727245,
                "tempo": 120.0
            },
            {
                "start_time": 20.474999999999998,
                "end_time": 20.677272727272726,
                "pitch": 79,
                "velocity": 40,
                "duration": 0.20227272727272805,
                "tempo": 120.0
            },
            {
                "start_time": 20.745454545454546,
                "end_time": 20.94772727272727,
                "pitch": 81,
                "velocity": 40,
                "duration": 0.2022727272727245,
                "tempo": 120.0
            },
            {
                "start_time": 21.01590909090909,
                "end_time": 21.220454545454544,
                "pitch": 74,
                "velocity": 40,
                "duration": 0.20454545454545325,
                "tempo": 120.0
            },
            {
                "start_time": 21.286363636363635,
                "end_time": 21.486363636363635,
                "pitch": 76,
                "velocity": 40,
                "duration": 0.1999999999999993,
                "tempo": 120.0
            },
            {
                "start_time": 21.554545454545455,
                "end_time": 21.754545454545454,
                "pitch": 77,
                "velocity": 40,
                "duration": 0.1999999999999993,
                "tempo": 120.0
            },
            {
                "start_time": 21.82272727272727,
                "end_time": 21.925,
                "pitch": 76,
                "velocity": 40,
                "duration": 0.10227272727273018,
                "tempo": 120.0
            },
            {
                "start_time": 21.959090909090907,
                "end_time": 22.061363636363634,
                "pitch": 77,
                "velocity": 40,
                "duration": 0.10227272727272663,
                "tempo": 120.0
            },
            {
                "start_time": 22.095454545454544,
                "end_time": 22.19772727272727,
                "pitch": 76,
                "velocity": 40,
                "duration": 0.10227272727272663,
                "tempo": 120.0
            },
            {
                "start_time": 22.23181818181818,
                "end_time": 22.331818181818182,
                "pitch": 77,
                "velocity": 40,
                "duration": 0.10000000000000142,
                "tempo": 120.0
            },
            {
                "start_time": 22.363636363636363,
                "end_time": 22.46363636363636,
                "pitch": 76,
                "velocity": 40,
                "duration": 0.09999999999999787,
                "tempo": 120.0
            },
            {
                "start_time": 22.49772727272727,
                "end_time": 22.597727272727273,
                "pitch": 77,
                "velocity": 40,
                "duration": 0.10000000000000142,
                "tempo": 120.0
            },
            {
                "start_time": 22.63181818181818,
                "end_time": 22.73181818181818,
                "pitch": 76,
                "velocity": 40,
                "duration": 0.10000000000000142,
                "tempo": 120.0
            },
            {
                "start_time": 22.76590909090909,
                "end_time": 22.86590909090909,
                "pitch": 77,
                "velocity": 40,
                "duration": 0.09999999999999787,
                "tempo": 120.0
            },
            {
                "start_time": 22.9,
                "end_time": 23.0,
                "pitch": 76,
                "velocity": 40,
                "duration": 0.10000000000000142,
                "tempo": 120.0
            },
            {
                "start_time": 23.03181818181818,
                "end_time": 23.13181818181818,
                "pitch": 77,
                "velocity": 40,
                "duration": 0.09999999999999787,
                "tempo": 120.0
            },
            {
                "start_time": 23.16590909090909,
                "end_time": 23.26590909090909,
                "pitch": 76,
                "velocity": 40,
                "duration": 0.10000000000000142,
                "tempo": 120.0
            },
            {
                "start_time": 23.299999999999997,
                "end_time": 23.4,
                "pitch": 77,
                "velocity": 40,
                "duration": 0.10000000000000142,
                "tempo": 120.0
            },
            {
                "start_time": 23.43409090909091,
                "end_time": 23.634090909090908,
                "pitch": 76,
                "velocity": 40,
                "duration": 0.1999999999999993,
                "tempo": 120.0
            },
            {
                "start_time": 23.7,
                "end_time": 23.9,
                "pitch": 74,
                "velocity": 40,
                "duration": 0.1999999999999993,
                "tempo": 120.0
            },
            {
                "start_time": 23.96818181818182,
                "end_time": 24.386363636363637,
                "pitch": 73,
                "velocity": 40,
                "duration": 0.418181818181818,
                "tempo": 120.0
            },
            {
                "start_time": 24.777272727272727,
                "end_time": 24.979545454545452,
                "pitch": 74,
                "velocity": 40,
                "duration": 0.2022727272727245,
                "tempo": 120.0
            },
            {
                "start_time": 25.045454545454543,
                "end_time": 25.245454545454542,
                "pitch": 76,
                "velocity": 40,
                "duration": 0.1999999999999993,
                "tempo": 120.0
            },
            {
                "start_time": 25.313636363636363,
                "end_time": 25.513636363636362,
                "pitch": 69,
                "velocity": 40,
                "duration": 0.1999999999999993,
                "tempo": 120.0
            },
            {
                "start_time": 25.579545454545453,
                "end_time": 25.78181818181818,
                "pitch": 81,
                "velocity": 40,
                "duration": 0.20227272727272805,
                "tempo": 120.0
            },
            {
                "start_time": 25.847727272727273,
                "end_time": 26.049999999999997,
                "pitch": 79,
                "velocity": 40,
                "duration": 0.2022727272727245,
                "tempo": 120.0
            },
            {
                "start_time": 26.11590909090909,
                "end_time": 26.320454545454545,
                "pitch": 74,
                "velocity": 40,
                "duration": 0.2045454545454568,
                "tempo": 120.0
            },
            {
                "start_time": 26.659090909090907,
                "end_time": 26.85909090909091,
                "pitch": 81,
                "velocity": 40,
                "duration": 0.20000000000000284,
                "tempo": 120.0
            },
            {
                "start_time": 27.195454545454545,
                "end_time": 27.4,
                "pitch": 79,
                "velocity": 40,
                "duration": 0.20454545454545325,
                "tempo": 120.0
            },
            {
                "start_time": 27.468181818181815,
                "end_time": 27.670454545454543,
                "pitch": 77,
                "velocity": 40,
                "duration": 0.20227272727272805,
                "tempo": 120.0
            },
            {
                "start_time": 27.736363636363635,
                "end_time": 27.936363636363634,
                "pitch": 76,
                "velocity": 40,
                "duration": 0.1999999999999993,
                "tempo": 120.0
            },
            {
                "start_time": 28.270454545454545,
                "end_time": 28.472727272727273,
                "pitch": 76,
                "velocity": 40,
                "duration": 0.20227272727272805,
                "tempo": 120.0
            },
            {
                "start_time": 28.80909090909091,
                "end_time": 29.011363636363637,
                "pitch": 77,
                "velocity": 40,
                "duration": 0.20227272727272805,
                "tempo": 120.0
            },
            {
                "start_time": 29.079545454545453,
                "end_time": 29.284090909090907,
                "pitch": 79,
                "velocity": 40,
                "duration": 0.20454545454545325,
                "tempo": 120.0
            },
            {
                "start_time": 29.349999999999998,
                "end_time": 29.768181818181816,
                "pitch": 77,
                "velocity": 40,
                "duration": 0.418181818181818,
                "tempo": 120.0
            },
            {
                "start_time": 29.886363636363637,
                "end_time": 30.311363636363634,
                "pitch": 74,
                "velocity": 40,
                "duration": 0.42499999999999716,
                "tempo": 120.0
            },
            {
                "start_time": 30.427272727272726,
                "end_time": 30.629545454545454,
                "pitch": 82,
                "velocity": 40,
                "duration": 0.20227272727272805,
                "tempo": 120.0
            },
            {
                "start_time": 30.695454545454545,
                "end_time": 30.895454545454545,
                "pitch": 81,
                "velocity": 40,
                "duration": 0.1999999999999993,
                "tempo": 120.0
            },
            {
                "start_time": 30.961363636363636,
                "end_time": 31.16363636363636,
                "pitch": 79,
                "velocity": 40,
                "duration": 0.2022727272727245,
                "tempo": 120.0
            },
            {
                "start_time": 31.229545454545452,
                "end_time": 31.43181818181818,
                "pitch": 77,
                "velocity": 40,
                "duration": 0.20227272727272805,
                "tempo": 120.0
            },
            {
                "start_time": 31.5,
                "end_time": 31.702272727272724,
                "pitch": 84,
                "velocity": 40,
                "duration": 0.2022727272727245,
                "tempo": 120.0
            },
            {
                "start_time": 31.770454545454545,
                "end_time": 31.974999999999998,
                "pitch": 82,
                "velocity": 40,
                "duration": 0.20454545454545325,
                "tempo": 120.0
            },
            {
                "start_time": 32.04090909090909,
                "end_time": 32.24090909090909,
                "pitch": 81,
                "velocity": 40,
                "duration": 0.20000000000000284,
                "tempo": 120.0
            },
            {
                "start_time": 32.309090909090905,
                "end_time": 32.50909090909091,
                "pitch": 84,
                "velocity": 40,
                "duration": 0.20000000000000284,
                "tempo": 120.0
            },
            {
                "start_time": 32.57954545454545,
                "end_time": 32.78636363636363,
                "pitch": 86,
                "velocity": 40,
                "duration": 0.20681818181817846,
                "tempo": 120.0
            },
            {
                "start_time": 32.85681818181818,
                "end_time": 33.06363636363636,
                "pitch": 81,
                "velocity": 40,
                "duration": 0.20681818181818556,
                "tempo": 120.0
            },
            {
                "start_time": 33.13409090909091,
                "end_time": 33.377272727272725,
                "pitch": 79,
                "velocity": 40,
                "duration": 0.24318181818181728,
                "tempo": 120.0
            },
            {
                "start_time": 33.45909090909091,
                "end_time": 33.70454545454545,
                "pitch": 76,
                "velocity": 40,
                "duration": 0.24545454545454248,
                "tempo": 120.0
            },
            {
                "start_time": 33.78636363636363,
                "end_time": 34.03409090909091,
                "pitch": 78,
                "velocity": 40,
                "duration": 0.2477272727272748,
                "tempo": 120.0
            },
            {
                "start_time": 34.11590909090909,
                "end_time": 34.361363636363635,
                "pitch": 74,
                "velocity": 40,
                "duration": 0.24545454545454248,
                "tempo": 120.0
            },
            {
                "start_time": 34.44318181818181,
                "end_time": 34.60454545454545,
                "pitch": 69,
                "velocity": 40,
                "duration": 0.16136363636363882,
                "tempo": 120.0
            },
            {
                "start_time": 34.60454545454545,
                "end_time": 34.675,
                "pitch": 69,
                "velocity": 40,
                "duration": 0.07045454545454533,
                "tempo": 120.0
            },
            {
                "start_time": 34.74318181818182,
                "end_time": 34.94772727272727,
                "pitch": 67,
                "velocity": 40,
                "duration": 0.20454545454545325,
                "tempo": 120.0
            },
            {
                "start_time": 35.01590909090909,
                "end_time": 35.21818181818182,
                "pitch": 74,
                "velocity": 40,
                "duration": 0.20227272727272805,
                "tempo": 120.0
            },
            {
                "start_time": 35.55227272727272,
                "end_time": 35.752272727272725,
                "pitch": 81,
                "velocity": 40,
                "duration": 0.20000000000000284,
                "tempo": 120.0
            },
            {
                "start_time": 36.086363636363636,
                "end_time": 36.288636363636364,
                "pitch": 79,
                "velocity": 40,
                "duration": 0.20227272727272805,
                "tempo": 120.0
            },
            {
                "start_time": 36.35681818181818,
                "end_time": 36.56136363636364,
                "pitch": 77,
                "velocity": 40,
                "duration": 0.20454545454546036,
                "tempo": 120.0
            },
            {
                "start_time": 36.62954545454545,
                "end_time": 36.83181818181818,
                "pitch": 76,
                "velocity": 40,
                "duration": 0.20227272727272805,
                "tempo": 120.0
            },
            {
                "start_time": 37.16590909090909,
                "end_time": 37.36590909090909,
                "pitch": 76,
                "velocity": 40,
                "duration": 0.20000000000000284,
                "tempo": 120.0
            },
            {
                "start_time": 37.699999999999996,
                "end_time": 37.902272727272724,
                "pitch": 77,
                "velocity": 40,
                "duration": 0.20227272727272805,
                "tempo": 120.0
            },
            {
                "start_time": 37.970454545454544,
                "end_time": 38.17272727272727,
                "pitch": 79,
                "velocity": 40,
                "duration": 0.20227272727272805,
                "tempo": 120.0
            },
            {
                "start_time": 38.24090909090909,
                "end_time": 38.66136363636363,
                "pitch": 77,
                "velocity": 40,
                "duration": 0.42045454545453964,
                "tempo": 120.0
            },
            {
                "start_time": 38.777272727272724,
                "end_time": 39.195454545454545,
                "pitch": 74,
                "velocity": 40,
                "duration": 0.41818181818182154,
                "tempo": 120.0
            },
            {
                "start_time": 39.31363636363636,
                "end_time": 39.51363636363636,
                "pitch": 82,
                "velocity": 40,
                "duration": 0.19999999999999574,
                "tempo": 120.0
            },
            {
                "start_time": 39.58181818181818,
                "end_time": 39.78636363636363,
                "pitch": 81,
                "velocity": 40,
                "duration": 0.20454545454545325,
                "tempo": 120.0
            },
            {
                "start_time": 39.85454545454545,
                "end_time": 40.05681818181818,
                "pitch": 79,
                "velocity": 40,
                "duration": 0.20227272727272805,
                "tempo": 120.0
            },
            {
                "start_time": 40.12272727272727,
                "end_time": 40.324999999999996,
                "pitch": 77,
                "velocity": 40,
                "duration": 0.20227272727272805,
                "tempo": 120.0
            },
            {
                "start_time": 40.39090909090909,
                "end_time": 40.809090909090905,
                "pitch": 84,
                "velocity": 40,
                "duration": 0.41818181818181444,
                "tempo": 120.0
            },
            {
                "start_time": 40.925,
                "end_time": 41.127272727272725,
                "pitch": 82,
                "velocity": 40,
                "duration": 0.20227272727272805,
                "tempo": 120.0
            },
            {
                "start_time": 41.195454545454545,
                "end_time": 41.39772727272727,
                "pitch": 81,
                "velocity": 40,
                "duration": 0.20227272727272805,
                "tempo": 120.0
            },
            {
                "start_time": 41.465909090909086,
                "end_time": 41.88636363636363,
                "pitch": 79,
                "velocity": 40,
                "duration": 0.42045454545454675,
                "tempo": 120.0
            },
            {
                "start_time": 42.27045454545454,
                "end_time": 42.37045454545454,
                "pitch": 81,
                "velocity": 40,
                "duration": 0.10000000000000142,
                "tempo": 120.0
            },
            {
                "start_time": 42.40454545454545,
                "end_time": 42.50454545454545,
                "pitch": 79,
                "velocity": 40,
                "duration": 0.10000000000000142,
                "tempo": 120.0
            },
            {
                "start_time": 42.538636363636364,
                "end_time": 43.4,
                "pitch": 78,
                "velocity": 40,
                "duration": 0.8613636363636346,
                "tempo": 120.0
            },
            {
                "start_time": 43.61590909090909,
                "end_time": 43.81590909090909,
                "pitch": 74,
                "velocity": 40,
                "duration": 0.19999999999999574,
                "tempo": 120.0
            },
            {
                "start_time": 44.15,
                "end_time": 44.35227272727273,
                "pitch": 81,
                "velocity": 40,
                "duration": 0.20227272727272805,
                "tempo": 120.0
            },
            {
                "start_time": 44.69318181818181,
                "end_time": 44.89545454545454,
                "pitch": 79,
                "velocity": 40,
                "duration": 0.20227272727272805,
                "tempo": 120.0
            },
            {
                "start_time": 44.961363636363636,
                "end_time": 45.16136363636363,
                "pitch": 77,
                "velocity": 40,
                "duration": 0.19999999999999574,
                "tempo": 120.0
            },
            {
                "start_time": 45.22954545454545,
                "end_time": 45.429545454545455,
                "pitch": 76,
                "velocity": 40,
                "duration": 0.20000000000000284,
                "tempo": 120.0
            },
            {
                "start_time": 45.76363636363636,
                "end_time": 45.965909090909086,
                "pitch": 76,
                "velocity": 40,
                "duration": 0.20227272727272805,
                "tempo": 120.0
            },
            {
                "start_time": 46.304545454545455,
                "end_time": 46.50681818181818,
                "pitch": 77,
                "velocity": 40,
                "duration": 0.20227272727272805,
                "tempo": 120.0
            },
            {
                "start_time": 46.574999999999996,
                "end_time": 46.775,
                "pitch": 79,
                "velocity": 40,
                "duration": 0.20000000000000284,
                "tempo": 120.0
            },
            {
                "start_time": 46.840909090909086,
                "end_time": 47.25909090909091,
                "pitch": 77,
                "velocity": 40,
                "duration": 0.41818181818182154,
                "tempo": 120.0
            },
            {
                "start_time": 47.375,
                "end_time": 47.79772727272727,
                "pitch": 74,
                "velocity": 40,
                "duration": 0.42272727272727195,
                "tempo": 120.0
            },
            {
                "start_time": 47.918181818181814,
                "end_time": 48.12045454545454,
                "pitch": 82,
                "velocity": 40,
                "duration": 0.20227272727272805,
                "tempo": 120.0
            },
            {
                "start_time": 48.18636363636364,
                "end_time": 48.38863636363636,
                "pitch": 81,
                "velocity": 40,
                "duration": 0.20227272727272094,
                "tempo": 120.0
            },
            {
                "start_time": 48.45454545454545,
                "end_time": 48.65454545454545,
                "pitch": 79,
                "velocity": 40,
                "duration": 0.19999999999999574,
                "tempo": 120.0
            },
            {
                "start_time": 48.72272727272727,
                "end_time": 48.92272727272727,
                "pitch": 77,
                "velocity": 40,
                "duration": 0.20000000000000284,
                "tempo": 120.0
            },
            {
                "start_time": 48.98863636363636,
                "end_time": 49.41136363636363,
                "pitch": 84,
                "velocity": 40,
                "duration": 0.42272727272727195,
                "tempo": 120.0
            },
            {
                "start_time": 49.52954545454545,
                "end_time": 49.73409090909091,
                "pitch": 82,
                "velocity": 40,
                "duration": 0.20454545454546036,
                "tempo": 120.0
            },
            {
                "start_time": 49.8,
                "end_time": 50.0,
                "pitch": 81,
                "velocity": 40,
                "duration": 0.20000000000000284,
                "tempo": 120.0
            },
            {
                "start_time": 50.06818181818181,
                "end_time": 50.92272727272727,
                "pitch": 79,
                "velocity": 40,
                "duration": 0.8545454545454589,
                "tempo": 120.0
            },
            {
                "start_time": 51.143181818181816,
                "end_time": 51.99772727272727,
                "pitch": 81,
                "velocity": 40,
                "duration": 0.8545454545454518,
                "tempo": 120.0
            },
            {
                "start_time": 52.21363636363636,
                "end_time": 52.41590909090909,
                "pitch": 86,
                "velocity": 40,
                "duration": 0.20227272727272805,
                "tempo": 120.0
            },
            {
                "start_time": 52.48409090909091,
                "end_time": 52.68863636363636,
                "pitch": 79,
                "velocity": 40,
                "duration": 0.20454545454545325,
                "tempo": 120.0
            },
            {
                "start_time": 52.75681818181818,
                "end_time": 52.959090909090904,
                "pitch": 81,
                "velocity": 40,
                "duration": 0.20227272727272094,
                "tempo": 120.0
            },
            {
                "start_time": 53.025,
                "end_time": 53.224999999999994,
                "pitch": 82,
                "velocity": 40,
                "duration": 0.19999999999999574,
                "tempo": 120.0
            },
            {
                "start_time": 53.293181818181814,
                "end_time": 53.49318181818182,
                "pitch": 84,
                "velocity": 40,
                "duration": 0.20000000000000284,
                "tempo": 120.0
            },
            {
                "start_time": 53.559090909090905,
                "end_time": 53.75909090909091,
                "pitch": 77,
                "velocity": 40,
                "duration": 0.20000000000000284,
                "tempo": 120.0
            },
            {
                "start_time": 53.82727272727273,
                "end_time": 54.02954545454545,
                "pitch": 79,
                "velocity": 40,
                "duration": 0.20227272727272094,
                "tempo": 120.0
            },
            {
                "start_time": 54.095454545454544,
                "end_time": 54.3,
                "pitch": 81,
                "velocity": 40,
                "duration": 0.20454545454545325,
                "tempo": 120.0
            },
            {
                "start_time": 54.36818181818182,
                "end_time": 54.570454545454545,
                "pitch": 82,
                "velocity": 40,
                "duration": 0.20227272727272805,
                "tempo": 120.0
            },
            {
                "start_time": 54.63863636363636,
                "end_time": 54.83863636363636,
                "pitch": 76,
                "velocity": 40,
                "duration": 0.20000000000000284,
                "tempo": 120.0
            },
            {
                "start_time": 54.90454545454545,
                "end_time": 55.10681818181818,
                "pitch": 77,
                "velocity": 40,
                "duration": 0.20227272727272805,
                "tempo": 120.0
            },
            {
                "start_time": 55.17272727272727,
                "end_time": 55.37272727272727,
                "pitch": 79,
                "velocity": 40,
                "duration": 0.19999999999999574,
                "tempo": 120.0
            },
            {
                "start_time": 55.43863636363636,
                "end_time": 55.64090909090909,
                "pitch": 81,
                "velocity": 40,
                "duration": 0.20227272727272805,
                "tempo": 120.0
            },
            {
                "start_time": 55.709090909090904,
                "end_time": 55.913636363636364,
                "pitch": 74,
                "velocity": 40,
                "duration": 0.20454545454546036,
                "tempo": 120.0
            },
            {
                "start_time": 55.98181818181818,
                "end_time": 56.184090909090905,
                "pitch": 76,
                "velocity": 40,
                "duration": 0.20227272727272805,
                "tempo": 120.0
            },
            {
                "start_time": 56.25,
                "end_time": 56.45227272727273,
                "pitch": 77,
                "velocity": 40,
                "duration": 0.20227272727272805,
                "tempo": 120.0
            },
            {
                "start_time": 56.518181818181816,
                "end_time": 56.61818181818182,
                "pitch": 76,
                "velocity": 40,
                "duration": 0.10000000000000142,
                "tempo": 120.0
            },
            {
                "start_time": 56.652272727272724,
                "end_time": 56.75454545454545,
                "pitch": 77,
                "velocity": 40,
                "duration": 0.10227272727272663,
                "tempo": 120.0
            },
            {
                "start_time": 56.788636363636364,
                "end_time": 56.88863636363636,
                "pitch": 76,
                "velocity": 40,
                "duration": 0.09999999999999432,
                "tempo": 120.0
            },
            {
                "start_time": 56.92272727272727,
                "end_time": 57.025,
                "pitch": 77,
                "velocity": 40,
                "duration": 0.10227272727272663,
                "tempo": 120.0
            },
            {
                "start_time": 57.059090909090905,
                "end_time": 57.16136363636363,
                "pitch": 76,
                "velocity": 40,
                "duration": 0.10227272727272663,
                "tempo": 120.0
            },
            {
                "start_time": 57.195454545454545,
                "end_time": 57.29772727272727,
                "pitch": 77,
                "velocity": 40,
                "duration": 0.10227272727272663,
                "tempo": 120.0
            },
            {
                "start_time": 57.33181818181818,
                "end_time": 57.434090909090905,
                "pitch": 76,
                "velocity": 40,
                "duration": 0.10227272727272663,
                "tempo": 120.0
            },
            {
                "start_time": 57.46818181818182,
                "end_time": 57.570454545454545,
                "pitch": 77,
                "velocity": 40,
                "duration": 0.10227272727272663,
                "tempo": 120.0
            },
            {
                "start_time": 57.60454545454545,
                "end_time": 57.70454545454545,
                "pitch": 76,
                "velocity": 40,
                "duration": 0.10000000000000142,
                "tempo": 120.0
            },
            {
                "start_time": 57.73863636363636,
                "end_time": 57.840909090909086,
                "pitch": 77,
                "velocity": 40,
                "duration": 0.10227272727272663,
                "tempo": 120.0
            },
            {
                "start_time": 57.87272727272727,
                "end_time": 57.97272727272727,
                "pitch": 76,
                "velocity": 40,
                "duration": 0.10000000000000142,
                "tempo": 120.0
            },
            {
                "start_time": 58.006818181818176,
                "end_time": 58.10681818181818,
                "pitch": 77,
                "velocity": 40,
                "duration": 0.10000000000000142,
                "tempo": 120.0
            },
            {
                "start_time": 58.14090909090909,
                "end_time": 58.33863636363636,
                "pitch": 76,
                "velocity": 40,
                "duration": 0.19772727272727053,
                "tempo": 120.0
            },
            {
                "start_time": 58.40454545454545,
                "end_time": 58.60227272727273,
                "pitch": 74,
                "velocity": 40,
                "duration": 0.19772727272727764,
                "tempo": 120.0
            },
            {
                "start_time": 58.668181818181814,
                "end_time": 59.08863636363636,
                "pitch": 73,
                "velocity": 40,
                "duration": 0.42045454545454675,
                "tempo": 120.0
            },
            {
                "start_time": 59.47727272727273,
                "end_time": 59.67727272727272,
                "pitch": 74,
                "velocity": 40,
                "duration": 0.19999999999999574,
                "tempo": 120.0
            },
            {
                "start_time": 59.74318181818182,
                "end_time": 59.94318181818181,
                "pitch": 76,
                "velocity": 40,
                "duration": 0.19999999999999574,
                "tempo": 120.0
            },
            {
                "start_time": 60.01136363636363,
                "end_time": 60.211363636363636,
                "pitch": 69,
                "velocity": 40,
                "duration": 0.20000000000000284,
                "tempo": 120.0
            },
            {
                "start_time": 60.277272727272724,
                "end_time": 60.47954545454545,
                "pitch": 81,
                "velocity": 40,
                "duration": 0.20227272727272805,
                "tempo": 120.0
            },
            {
                "start_time": 60.54772727272727,
                "end_time": 60.752272727272725,
                "pitch": 79,
                "velocity": 40,
                "duration": 0.20454545454545325,
                "tempo": 120.0
            },
            {
                "start_time": 60.820454545454545,
                "end_time": 61.022727272727266,
                "pitch": 74,
                "velocity": 40,
                "duration": 0.20227272727272094,
                "tempo": 120.0
            },
            {
                "start_time": 61.35681818181818,
                "end_time": 61.55681818181818,
                "pitch": 81,
                "velocity": 40,
                "duration": 0.20000000000000284,
                "tempo": 120.0
            },
            {
                "start_time": 61.89090909090909,
                "end_time": 62.09318181818182,
                "pitch": 79,
                "velocity": 40,
                "duration": 0.20227272727272805,
                "tempo": 120.0
            },
            {
                "start_time": 62.16136363636363,
                "end_time": 62.36363636363636,
                "pitch": 77,
                "velocity": 40,
                "duration": 0.20227272727272805,
                "tempo": 120.0
            },
            {
                "start_time": 62.43181818181818,
                "end_time": 62.63409090909091,
                "pitch": 76,
                "velocity": 40,
                "duration": 0.20227272727272805,
                "tempo": 120.0
            },
            {
                "start_time": 62.96818181818181,
                "end_time": 63.17045454545454,
                "pitch": 76,
                "velocity": 40,
                "duration": 0.20227272727272805,
                "tempo": 120.0
            },
            {
                "start_time": 63.50454545454545,
                "end_time": 63.70454545454545,
                "pitch": 77,
                "velocity": 40,
                "duration": 0.20000000000000284,
                "tempo": 120.0
            },
            {
                "start_time": 63.772727272727266,
                "end_time": 63.97727272727273,
                "pitch": 79,
                "velocity": 40,
                "duration": 0.20454545454546036,
                "tempo": 120.0
            },
            {
                "start_time": 64.04545454545455,
                "end_time": 64.4659090909091,
                "pitch": 77,
                "velocity": 40,
                "duration": 0.42045454545454675,
                "tempo": 120.0
            },
            {
                "start_time": 64.58181818181818,
                "end_time": 65.0,
                "pitch": 74,
                "velocity": 40,
                "duration": 0.41818181818182154,
                "tempo": 120.0
            },
            {
                "start_time": 65.11590909090908,
                "end_time": 65.31818181818181,
                "pitch": 82,
                "velocity": 40,
                "duration": 0.20227272727272805,
                "tempo": 120.0
            },
            {
                "start_time": 65.38636363636364,
                "end_time": 65.5909090909091,
                "pitch": 81,
                "velocity": 40,
                "duration": 0.20454545454545325,
                "tempo": 120.0
            },
            {
                "start_time": 65.65681818181818,
                "end_time": 65.86136363636363,
                "pitch": 79,
                "velocity": 40,
                "duration": 0.20454545454545325,
                "tempo": 120.0
            },
            {
                "start_time": 65.92727272727272,
                "end_time": 66.12727272727273,
                "pitch": 77,
                "velocity": 40,
                "duration": 0.20000000000000284,
                "tempo": 120.0
            },
            {
                "start_time": 66.19545454545454,
                "end_time": 66.39545454545454,
                "pitch": 84,
                "velocity": 40,
                "duration": 0.20000000000000284,
                "tempo": 120.0
            },
            {
                "start_time": 66.46136363636363,
                "end_time": 66.66136363636363,
                "pitch": 82,
                "velocity": 40,
                "duration": 0.20000000000000284,
                "tempo": 120.0
            },
            {
                "start_time": 66.72954545454544,
                "end_time": 66.92954545454545,
                "pitch": 81,
                "velocity": 40,
                "duration": 0.20000000000000284,
                "tempo": 120.0
            },
            {
                "start_time": 66.99772727272727,
                "end_time": 67.20227272727273,
                "pitch": 84,
                "velocity": 40,
                "duration": 0.20454545454545325,
                "tempo": 120.0
            },
            {
                "start_time": 67.27045454545454,
                "end_time": 67.475,
                "pitch": 86,
                "velocity": 40,
                "duration": 0.20454545454545325,
                "tempo": 120.0
            },
            {
                "start_time": 67.54318181818182,
                "end_time": 67.74545454545454,
                "pitch": 81,
                "velocity": 40,
                "duration": 0.20227272727271384,
                "tempo": 120.0
            },
            {
                "start_time": 67.81363636363636,
                "end_time": 68.01590909090909,
                "pitch": 79,
                "velocity": 40,
                "duration": 0.20227272727272805,
                "tempo": 120.0
            },
            {
                "start_time": 68.08181818181818,
                "end_time": 68.27954545454546,
                "pitch": 76,
                "velocity": 40,
                "duration": 0.19772727272727764,
                "tempo": 120.0
            },
            {
                "start_time": 68.34318181818182,
                "end_time": 68.54318181818182,
                "pitch": 78,
                "velocity": 40,
                "duration": 0.20000000000000284,
                "tempo": 120.0
            },
            {
                "start_time": 68.61136363636363,
                "end_time": 68.81590909090909,
                "pitch": 74,
                "velocity": 40,
                "duration": 0.20454545454545325,
                "tempo": 120.0
            },
            {
                "start_time": 68.8840909090909,
                "end_time": 69.01818181818182,
                "pitch": 69,
                "velocity": 40,
                "duration": 0.13409090909091503,
                "tempo": 120.0
            }
        ],
        "Acoustic Bass": [
            {
                "start_time": 0.18863636363636363,
                "end_time": 0.3886363636363636,
                "pitch": 38,
                "velocity": 64,
                "duration": 0.19999999999999998,
                "tempo": 120.0
            },
            {
                "start_time": 0.45454545454545453,
                "end_time": 0.6545454545454545,
                "pitch": 50,
                "velocity": 64,
                "duration": 0.2,
                "tempo": 120.0
            },
            {
                "start_time": 0.7227272727272727,
                "end_time": 0.9227272727272727,
                "pitch": 38,
                "velocity": 64,
                "duration": 0.20000000000000007,
                "tempo": 120.0
            },
            {
                "start_time": 0.9886363636363635,
                "end_time": 1.1886363636363635,
                "pitch": 46,
                "velocity": 64,
                "duration": 0.19999999999999996,
                "tempo": 120.0
            },
            {
                "start_time": 1.2568181818181818,
                "end_time": 1.459090909090909,
                "pitch": 34,
                "velocity": 64,
                "duration": 0.20227272727272716,
                "tempo": 120.0
            },
            {
                "start_time": 1.5272727272727271,
                "end_time": 1.7318181818181817,
                "pitch": 46,
                "velocity": 64,
                "duration": 0.20454545454545459,
                "tempo": 120.0
            },
            {
                "start_time": 1.7999999999999998,
                "end_time": 2.0,
                "pitch": 34,
                "velocity": 64,
                "duration": 0.20000000000000018,
                "tempo": 120.0
            },
            {
                "start_time": 2.068181818181818,
                "end_time": 2.268181818181818,
                "pitch": 48,
                "velocity": 64,
                "duration": 0.20000000000000018,
                "tempo": 120.0
            },
            {
                "start_time": 2.334090909090909,
                "end_time": 2.534090909090909,
                "pitch": 36,
                "velocity": 64,
                "duration": 0.20000000000000018,
                "tempo": 120.0
            },
            {
                "start_time": 2.602272727272727,
                "end_time": 2.8022727272727272,
                "pitch": 48,
                "velocity": 64,
                "duration": 0.20000000000000018,
                "tempo": 120.0
            },
            {
                "start_time": 2.868181818181818,
                "end_time": 3.0727272727272728,
                "pitch": 36,
                "velocity": 64,
                "duration": 0.20454545454545459,
                "tempo": 120.0
            },
            {
                "start_time": 3.1409090909090907,
                "end_time": 3.3454545454545452,
                "pitch": 50,
                "velocity": 64,
                "duration": 0.20454545454545459,
                "tempo": 120.0
            },
            {
                "start_time": 3.4136363636363636,
                "end_time": 3.6136363636363633,
                "pitch": 38,
                "velocity": 64,
                "duration": 0.19999999999999973,
                "tempo": 120.0
            },
            {
                "start_time": 3.6795454545454542,
                "end_time": 3.8795454545454544,
                "pitch": 50,
                "velocity": 64,
                "duration": 0.20000000000000018,
                "tempo": 120.0
            },
            {
                "start_time": 3.9477272727272728,
                "end_time": 4.1477272727272725,
                "pitch": 38,
                "velocity": 64,
                "duration": 0.19999999999999973,
                "tempo": 120.0
            },
            {
                "start_time": 4.213636363636364,
                "end_time": 4.413636363636363,
                "pitch": 46,
                "velocity": 64,
                "duration": 0.1999999999999993,
                "tempo": 120.0
            },
            {
                "start_time": 4.4818181818181815,
                "end_time": 4.6863636363636365,
                "pitch": 34,
                "velocity": 64,
                "duration": 0.20454545454545503,
                "tempo": 120.0
            },
            {
                "start_time": 4.752272727272727,
                "end_time": 4.956818181818182,
                "pitch": 46,
                "velocity": 64,
                "duration": 0.20454545454545503,
                "tempo": 120.0
            },
            {
                "start_time": 5.0249999999999995,
                "end_time": 5.225,
                "pitch": 34,
                "velocity": 64,
                "duration": 0.20000000000000018,
                "tempo": 120.0
            },
            {
                "start_time": 5.293181818181818,
                "end_time": 5.493181818181818,
                "pitch": 48,
                "velocity": 64,
                "duration": 0.20000000000000018,
                "tempo": 120.0
            },
            {
                "start_time": 5.559090909090909,
                "end_time": 5.761363636363636,
                "pitch": 36,
                "velocity": 64,
                "duration": 0.20227272727272716,
                "tempo": 120.0
            },
            {
                "start_time": 5.827272727272727,
                "end_time": 6.027272727272727,
                "pitch": 48,
                "velocity": 64,
                "duration": 0.20000000000000018,
                "tempo": 120.0
            },
            {
                "start_time": 6.093181818181818,
                "end_time": 6.297727272727273,
                "pitch": 36,
                "velocity": 64,
                "duration": 0.20454545454545503,
                "tempo": 120.0
            },
            {
                "start_time": 6.36590909090909,
                "end_time": 6.570454545454545,
                "pitch": 50,
                "velocity": 64,
                "duration": 0.20454545454545503,
                "tempo": 120.0
            },
            {
                "start_time": 6.638636363636364,
                "end_time": 6.838636363636363,
                "pitch": 38,
                "velocity": 64,
                "duration": 0.1999999999999993,
                "tempo": 120.0
            },
            {
                "start_time": 6.904545454545454,
                "end_time": 7.1068181818181815,
                "pitch": 50,
                "velocity": 64,
                "duration": 0.20227272727272716,
                "tempo": 120.0
            },
            {
                "start_time": 7.172727272727272,
                "end_time": 7.372727272727272,
                "pitch": 38,
                "velocity": 64,
                "duration": 0.20000000000000018,
                "tempo": 120.0
            },
            {
                "start_time": 7.4409090909090905,
                "end_time": 7.640909090909091,
                "pitch": 50,
                "velocity": 64,
                "duration": 0.20000000000000018,
                "tempo": 120.0
            },
            {
                "start_time": 7.706818181818181,
                "end_time": 7.911363636363636,
                "pitch": 38,
                "velocity": 64,
                "duration": 0.20454545454545503,
                "tempo": 120.0
            },
            {
                "start_time": 7.9795454545454545,
                "end_time": 8.181818181818182,
                "pitch": 50,
                "velocity": 64,
                "duration": 0.20227272727272716,
                "tempo": 120.0
            },
            {
                "start_time": 8.25,
                "end_time": 8.452272727272726,
                "pitch": 38,
                "velocity": 64,
                "duration": 0.20227272727272627,
                "tempo": 120.0
            },
            {
                "start_time": 8.518181818181818,
                "end_time": 8.718181818181817,
                "pitch": 50,
                "velocity": 64,
                "duration": 0.1999999999999993,
                "tempo": 120.0
            },
            {
                "start_time": 8.786363636363635,
                "end_time": 8.986363636363636,
                "pitch": 38,
                "velocity": 64,
                "duration": 0.20000000000000107,
                "tempo": 120.0
            },
            {
                "start_time": 9.052272727272728,
                "end_time": 9.252272727272727,
                "pitch": 50,
                "velocity": 64,
                "duration": 0.1999999999999993,
                "tempo": 120.0
            },
            {
                "start_time": 9.320454545454545,
                "end_time": 9.522727272727272,
                "pitch": 38,
                "velocity": 64,
                "duration": 0.20227272727272627,
                "tempo": 120.0
            },
            {
                "start_time": 9.59090909090909,
                "end_time": 9.795454545454545,
                "pitch": 46,
                "velocity": 64,
                "duration": 0.20454545454545503,
                "tempo": 120.0
            },
            {
                "start_time": 9.863636363636363,
                "end_time": 10.063636363636363,
                "pitch": 34,
                "velocity": 64,
                "duration": 0.1999999999999993,
                "tempo": 120.0
            },
            {
                "start_time": 10.131818181818181,
                "end_time": 10.331818181818182,
                "pitch": 46,
                "velocity": 64,
                "duration": 0.20000000000000107,
                "tempo": 120.0
            },
            {
                "start_time": 10.397727272727272,
                "end_time": 10.597727272727273,
                "pitch": 34,
                "velocity": 64,
                "duration": 0.20000000000000107,
                "tempo": 120.0
            },
            {
                "start_time": 10.665909090909091,
                "end_time": 10.86590909090909,
                "pitch": 48,
                "velocity": 64,
                "duration": 0.1999999999999993,
                "tempo": 120.0
            },
            {
                "start_time": 10.931818181818182,
                "end_time": 11.136363636363637,
                "pitch": 36,
                "velocity": 64,
                "duration": 0.20454545454545503,
                "tempo": 120.0
            },
            {
                "start_time": 11.204545454545453,
                "end_time": 11.409090909090908,
                "pitch": 48,
                "velocity": 64,
                "duration": 0.20454545454545503,
                "tempo": 120.0
            },
            {
                "start_time": 11.477272727272727,
                "end_time": 11.677272727272726,
                "pitch": 36,
                "velocity": 64,
                "duration": 0.1999999999999993,
                "tempo": 120.0
            },
            {
                "start_time": 11.743181818181817,
                "end_time": 11.943181818181818,
                "pitch": 50,
                "velocity": 64,
                "duration": 0.20000000000000107,
                "tempo": 120.0
            },
            {
                "start_time": 12.011363636363635,
                "end_time": 12.211363636363636,
                "pitch": 38,
                "velocity": 64,
                "duration": 0.20000000000000107,
                "tempo": 120.0
            },
            {
                "start_time": 12.277272727272727,
                "end_time": 12.477272727272727,
                "pitch": 50,
                "velocity": 64,
                "duration": 0.1999999999999993,
                "tempo": 120.0
            },
            {
                "start_time": 12.545454545454545,
                "end_time": 12.75,
                "pitch": 38,
                "velocity": 64,
                "duration": 0.20454545454545503,
                "tempo": 120.0
            },
            {
                "start_time": 12.81590909090909,
                "end_time": 13.020454545454545,
                "pitch": 46,
                "velocity": 64,
                "duration": 0.20454545454545503,
                "tempo": 120.0
            },
            {
                "start_time": 13.088636363636363,
                "end_time": 13.288636363636362,
                "pitch": 34,
                "velocity": 64,
                "duration": 0.1999999999999993,
                "tempo": 120.0
            },
            {
                "start_time": 13.35681818181818,
                "end_time": 13.556818181818182,
                "pitch": 46,
                "velocity": 64,
                "duration": 0.20000000000000107,
                "tempo": 120.0
            },
            {
                "start_time": 13.622727272727271,
                "end_time": 13.827272727272726,
                "pitch": 34,
                "velocity": 64,
                "duration": 0.20454545454545503,
                "tempo": 120.0
            },
            {
                "start_time": 13.895454545454545,
                "end_time": 14.1,
                "pitch": 48,
                "velocity": 64,
                "duration": 0.20454545454545503,
                "tempo": 120.0
            },
            {
                "start_time": 14.168181818181818,
                "end_time": 14.368181818181817,
                "pitch": 36,
                "velocity": 64,
                "duration": 0.1999999999999993,
                "tempo": 120.0
            },
            {
                "start_time": 14.434090909090909,
                "end_time": 14.634090909090908,
                "pitch": 48,
                "velocity": 64,
                "duration": 0.1999999999999993,
                "tempo": 120.0
            },
            {
                "start_time": 14.702272727272726,
                "end_time": 14.902272727272727,
                "pitch": 36,
                "velocity": 64,
                "duration": 0.20000000000000107,
                "tempo": 120.0
            },
            {
                "start_time": 14.968181818181817,
                "end_time": 15.170454545454545,
                "pitch": 50,
                "velocity": 64,
                "duration": 0.20227272727272805,
                "tempo": 120.0
            },
            {
                "start_time": 15.236363636363636,
                "end_time": 15.436363636363636,
                "pitch": 38,
                "velocity": 64,
                "duration": 0.1999999999999993,
                "tempo": 120.0
            },
            {
                "start_time": 15.502272727272727,
                "end_time": 15.704545454545453,
                "pitch": 50,
                "velocity": 64,
                "duration": 0.20227272727272627,
                "tempo": 120.0
            },
            {
                "start_time": 15.770454545454545,
                "end_time": 15.975,
                "pitch": 38,
                "velocity": 64,
                "duration": 0.20454545454545503,
                "tempo": 120.0
            },
            {
                "start_time": 16.043181818181818,
                "end_time": 16.245454545454546,
                "pitch": 50,
                "velocity": 64,
                "duration": 0.20227272727272805,
                "tempo": 120.0
            },
            {
                "start_time": 16.313636363636363,
                "end_time": 16.51590909090909,
                "pitch": 38,
                "velocity": 64,
                "duration": 0.20227272727272805,
                "tempo": 120.0
            },
            {
                "start_time": 16.581818181818182,
                "end_time": 16.78181818181818,
                "pitch": 50,
                "velocity": 64,
                "duration": 0.1999999999999993,
                "tempo": 120.0
            },
            {
                "start_time": 16.849999999999998,
                "end_time": 17.05,
                "pitch": 38,
                "velocity": 64,
                "duration": 0.20000000000000284,
                "tempo": 120.0
            },
            {
                "start_time": 17.11590909090909,
                "end_time": 17.31590909090909,
                "pitch": 58,
                "velocity": 64,
                "duration": 0.20000000000000284,
                "tempo": 120.0
            },
            {
                "start_time": 17.384090909090908,
                "end_time": 17.584090909090907,
                "pitch": 46,
                "velocity": 64,
                "duration": 0.1999999999999993,
                "tempo": 120.0
            },
            {
                "start_time": 17.65,
                "end_time": 17.849999999999998,
                "pitch": 58,
                "velocity": 64,
                "duration": 0.1999999999999993,
                "tempo": 120.0
            },
            {
                "start_time": 17.918181818181818,
                "end_time": 18.120454545454546,
                "pitch": 46,
                "velocity": 64,
                "duration": 0.20227272727272805,
                "tempo": 120.0
            },
            {
                "start_time": 18.188636363636363,
                "end_time": 18.393181818181816,
                "pitch": 57,
                "velocity": 64,
                "duration": 0.20454545454545325,
                "tempo": 120.0
            },
            {
                "start_time": 18.461363636363636,
                "end_time": 18.661363636363635,
                "pitch": 45,
                "velocity": 64,
                "duration": 0.1999999999999993,
                "tempo": 120.0
            },
            {
                "start_time": 18.729545454545455,
                "end_time": 18.929545454545455,
                "pitch": 57,
                "velocity": 64,
                "duration": 0.1999999999999993,
                "tempo": 120.0
            },
            {
                "start_time": 18.995454545454546,
                "end_time": 19.2,
                "pitch": 45,
                "velocity": 64,
                "duration": 0.20454545454545325,
                "tempo": 120.0
            },
            {
                "start_time": 19.268181818181816,
                "end_time": 19.472727272727273,
                "pitch": 55,
                "velocity": 64,
                "duration": 0.2045454545454568,
                "tempo": 120.0
            },
            {
                "start_time": 19.538636363636364,
                "end_time": 19.74090909090909,
                "pitch": 43,
                "velocity": 64,
                "duration": 0.2022727272727245,
                "tempo": 120.0
            },
            {
                "start_time": 19.80681818181818,
                "end_time": 20.00681818181818,
                "pitch": 55,
                "velocity": 64,
                "duration": 0.1999999999999993,
                "tempo": 120.0
            },
            {
                "start_time": 20.075,
                "end_time": 20.275,
                "pitch": 43,
                "velocity": 64,
                "duration": 0.1999999999999993,
                "tempo": 120.0
            },
            {
                "start_time": 20.34090909090909,
                "end_time": 20.54090909090909,
                "pitch": 53,
                "velocity": 64,
                "duration": 0.1999999999999993,
                "tempo": 120.0
            },
            {
                "start_time": 20.60909090909091,
                "end_time": 20.811363636363634,
                "pitch": 41,
                "velocity": 64,
                "duration": 0.2022727272727245,
                "tempo": 120.0
            },
            {
                "start_time": 20.879545454545454,
                "end_time": 21.084090909090907,
                "pitch": 53,
                "velocity": 64,
                "duration": 0.20454545454545325,
                "tempo": 120.0
            },
            {
                "start_time": 21.152272727272727,
                "end_time": 21.352272727272727,
                "pitch": 41,
                "velocity": 64,
                "duration": 0.1999999999999993,
                "tempo": 120.0
            },
            {
                "start_time": 21.420454545454543,
                "end_time": 21.83863636363636,
                "pitch": 52,
                "velocity": 64,
                "duration": 0.418181818181818,
                "tempo": 120.0
            },
            {
                "start_time": 21.959090909090907,
                "end_time": 22.38181818181818,
                "pitch": 49,
                "velocity": 64,
                "duration": 0.42272727272727195,
                "tempo": 120.0
            },
            {
                "start_time": 22.49772727272727,
                "end_time": 22.91590909090909,
                "pitch": 45,
                "velocity": 64,
                "duration": 0.418181818181818,
                "tempo": 120.0
            },
            {
                "start_time": 23.03181818181818,
                "end_time": 23.23181818181818,
                "pitch": 57,
                "velocity": 64,
                "duration": 0.1999999999999993,
                "tempo": 120.0
            },
            {
                "start_time": 23.299999999999997,
                "end_time": 23.5,
                "pitch": 55,
                "velocity": 64,
                "duration": 0.20000000000000284,
                "tempo": 120.0
            },
            {
                "start_time": 23.56590909090909,
                "end_time": 23.768181818181816,
                "pitch": 57,
                "velocity": 64,
                "duration": 0.2022727272727245,
                "tempo": 120.0
            },
            {
                "start_time": 23.834090909090907,
                "end_time": 24.034090909090907,
                "pitch": 52,
                "velocity": 64,
                "duration": 0.1999999999999993,
                "tempo": 120.0
            },
            {
                "start_time": 24.102272727272727,
                "end_time": 24.302272727272726,
                "pitch": 55,
                "velocity": 64,
                "duration": 0.1999999999999993,
                "tempo": 120.0
            },
            {
                "start_time": 24.368181818181817,
                "end_time": 24.57272727272727,
                "pitch": 58,
                "velocity": 64,
                "duration": 0.20454545454545325,
                "tempo": 120.0
            },
            {
                "start_time": 24.64090909090909,
                "end_time": 24.845454545454544,
                "pitch": 57,
                "velocity": 64,
                "duration": 0.20454545454545325,
                "tempo": 120.0
            },
            {
                "start_time": 24.911363636363635,
                "end_time": 25.113636363636363,
                "pitch": 55,
                "velocity": 64,
                "duration": 0.20227272727272805,
                "tempo": 120.0
            },
            {
                "start_time": 25.179545454545455,
                "end_time": 25.379545454545454,
                "pitch": 53,
                "velocity": 64,
                "duration": 0.1999999999999993,
                "tempo": 120.0
            },
            {
                "start_time": 25.44772727272727,
                "end_time": 25.64772727272727,
                "pitch": 55,
                "velocity": 64,
                "duration": 0.1999999999999993,
                "tempo": 120.0
            },
            {
                "start_time": 25.71363636363636,
                "end_time": 25.913636363636364,
                "pitch": 50,
                "velocity": 64,
                "duration": 0.20000000000000284,
                "tempo": 120.0
            },
            {
                "start_time": 25.98181818181818,
                "end_time": 26.18409090909091,
                "pitch": 38,
                "velocity": 64,
                "duration": 0.20227272727272805,
                "tempo": 120.0
            },
            {
                "start_time": 26.252272727272725,
                "end_time": 26.456818181818182,
                "pitch": 50,
                "velocity": 64,
                "duration": 0.2045454545454568,
                "tempo": 120.0
            },
            {
                "start_time": 26.525,
                "end_time": 26.724999999999998,
                "pitch": 38,
                "velocity": 64,
                "duration": 0.1999999999999993,
                "tempo": 120.0
            },
            {
                "start_time": 26.793181818181818,
                "end_time": 26.993181818181817,
                "pitch": 46,
                "velocity": 64,
                "duration": 0.1999999999999993,
                "tempo": 120.0
            },
            {
                "start_time": 27.05909090909091,
                "end_time": 27.263636363636362,
                "pitch": 34,
                "velocity": 64,
                "duration": 0.20454545454545325,
                "tempo": 120.0
            },
            {
                "start_time": 27.331818181818182,
                "end_time": 27.536363636363635,
                "pitch": 46,
                "velocity": 64,
                "duration": 0.20454545454545325,
                "tempo": 120.0
            },
            {
                "start_time": 27.602272727272727,
                "end_time": 27.804545454545455,
                "pitch": 34,
                "velocity": 64,
                "duration": 0.20227272727272805,
                "tempo": 120.0
            },
            {
                "start_time": 27.870454545454542,
                "end_time": 28.070454545454545,
                "pitch": 48,
                "velocity": 64,
                "duration": 0.20000000000000284,
                "tempo": 120.0
            },
            {
                "start_time": 28.138636363636362,
                "end_time": 28.33863636363636,
                "pitch": 36,
                "velocity": 64,
                "duration": 0.1999999999999993,
                "tempo": 120.0
            },
            {
                "start_time": 28.404545454545453,
                "end_time": 28.604545454545452,
                "pitch": 48,
                "velocity": 64,
                "duration": 0.1999999999999993,
                "tempo": 120.0
            },
            {
                "start_time": 28.672727272727272,
                "end_time": 28.875,
                "pitch": 36,
                "velocity": 64,
                "duration": 0.20227272727272805,
                "tempo": 120.0
            },
            {
                "start_time": 28.943181818181817,
                "end_time": 29.14772727272727,
                "pitch": 50,
                "velocity": 64,
                "duration": 0.20454545454545325,
                "tempo": 120.0
            },
            {
                "start_time": 29.21590909090909,
                "end_time": 29.41590909090909,
                "pitch": 38,
                "velocity": 64,
                "duration": 0.1999999999999993,
                "tempo": 120.0
            },
            {
                "start_time": 29.48409090909091,
                "end_time": 29.68409090909091,
                "pitch": 50,
                "velocity": 64,
                "duration": 0.1999999999999993,
                "tempo": 120.0
            },
            {
                "start_time": 29.75,
                "end_time": 29.954545454545453,
                "pitch": 38,
                "velocity": 64,
                "duration": 0.20454545454545325,
                "tempo": 120.0
            },
            {
                "start_time": 30.02272727272727,
                "end_time": 30.227272727272727,
                "pitch": 46,
                "velocity": 64,
                "duration": 0.2045454545454568,
                "tempo": 120.0
            },
            {
                "start_time": 30.293181818181818,
                "end_time": 30.495454545454542,
                "pitch": 34,
                "velocity": 64,
                "duration": 0.2022727272727245,
                "tempo": 120.0
            },
            {
                "start_time": 30.561363636363634,
                "end_time": 30.761363636363633,
                "pitch": 46,
                "velocity": 64,
                "duration": 0.1999999999999993,
                "tempo": 120.0
            },
            {
                "start_time": 30.829545454545453,
                "end_time": 31.029545454545453,
                "pitch": 34,
                "velocity": 64,
                "duration": 0.1999999999999993,
                "tempo": 120.0
            },
            {
                "start_time": 31.095454545454544,
                "end_time": 31.295454545454543,
                "pitch": 48,
                "velocity": 64,
                "duration": 0.1999999999999993,
                "tempo": 120.0
            },
            {
                "start_time": 31.363636363636363,
                "end_time": 31.565909090909088,
                "pitch": 36,
                "velocity": 64,
                "duration": 0.2022727272727245,
                "tempo": 120.0
            },
            {
                "start_time": 31.634090909090908,
                "end_time": 31.83863636363636,
                "pitch": 48,
                "velocity": 64,
                "duration": 0.20454545454545325,
                "tempo": 120.0
            },
            {
                "start_time": 31.90681818181818,
                "end_time": 32.10681818181818,
                "pitch": 36,
                "velocity": 64,
                "duration": 0.19999999999999574,
                "tempo": 120.0
            },
            {
                "start_time": 32.175,
                "end_time": 32.375,
                "pitch": 50,
                "velocity": 64,
                "duration": 0.20000000000000284,
                "tempo": 120.0
            },
            {
                "start_time": 32.44090909090909,
                "end_time": 32.64772727272727,
                "pitch": 38,
                "velocity": 64,
                "duration": 0.20681818181818556,
                "tempo": 120.0
            },
            {
                "start_time": 32.71818181818182,
                "end_time": 32.925,
                "pitch": 50,
                "velocity": 64,
                "duration": 0.20681818181817846,
                "tempo": 120.0
            },
            {
                "start_time": 32.99545454545454,
                "end_time": 33.21363636363636,
                "pitch": 38,
                "velocity": 64,
                "duration": 0.2181818181818187,
                "tempo": 120.0
            },
            {
                "start_time": 33.29545454545455,
                "end_time": 33.54090909090909,
                "pitch": 50,
                "velocity": 64,
                "duration": 0.24545454545454248,
                "tempo": 120.0
            },
            {
                "start_time": 33.62272727272727,
                "end_time": 33.86818181818182,
                "pitch": 38,
                "velocity": 64,
                "duration": 0.2454545454545496,
                "tempo": 120.0
            },
            {
                "start_time": 33.95227272727273,
                "end_time": 34.19772727272727,
                "pitch": 50,
                "velocity": 64,
                "duration": 0.24545454545454248,
                "tempo": 120.0
            },
            {
                "start_time": 34.279545454545456,
                "end_time": 34.525,
                "pitch": 38,
                "velocity": 64,
                "duration": 0.24545454545454248,
                "tempo": 120.0
            },
            {
                "start_time": 34.60681818181818,
                "end_time": 34.81136363636364,
                "pitch": 50,
                "velocity": 64,
                "duration": 0.20454545454546036,
                "tempo": 120.0
            },
            {
                "start_time": 34.87954545454545,
                "end_time": 35.08409090909091,
                "pitch": 38,
                "velocity": 64,
                "duration": 0.20454545454546036,
                "tempo": 120.0
            },
            {
                "start_time": 35.152272727272724,
                "end_time": 35.35227272727273,
                "pitch": 50,
                "velocity": 64,
                "duration": 0.20000000000000284,
                "tempo": 120.0
            },
            {
                "start_time": 35.418181818181814,
                "end_time": 35.62045454545454,
                "pitch": 38,
                "velocity": 64,
                "duration": 0.20227272727272805,
                "tempo": 120.0
            },
            {
                "start_time": 35.68636363636364,
                "end_time": 35.88636363636363,
                "pitch": 46,
                "velocity": 64,
                "duration": 0.19999999999999574,
                "tempo": 120.0
            },
            {
                "start_time": 35.95454545454545,
                "end_time": 36.154545454545456,
                "pitch": 34,
                "velocity": 64,
                "duration": 0.20000000000000284,
                "tempo": 120.0
            },
            {
                "start_time": 36.220454545454544,
                "end_time": 36.425,
                "pitch": 46,
                "velocity": 64,
                "duration": 0.20454545454545325,
                "tempo": 120.0
            },
            {
                "start_time": 36.49318181818182,
                "end_time": 36.69772727272727,
                "pitch": 34,
                "velocity": 64,
                "duration": 0.20454545454545325,
                "tempo": 120.0
            },
            {
                "start_time": 36.76363636363636,
                "end_time": 36.965909090909086,
                "pitch": 48,
                "velocity": 64,
                "duration": 0.20227272727272805,
                "tempo": 120.0
            },
            {
                "start_time": 37.03181818181818,
                "end_time": 37.23181818181818,
                "pitch": 36,
                "velocity": 64,
                "duration": 0.19999999999999574,
                "tempo": 120.0
            },
            {
                "start_time": 37.3,
                "end_time": 37.5,
                "pitch": 48,
                "velocity": 64,
                "duration": 0.20000000000000284,
                "tempo": 120.0
            },
            {
                "start_time": 37.56590909090909,
                "end_time": 37.76590909090909,
                "pitch": 36,
                "velocity": 64,
                "duration": 0.20000000000000284,
                "tempo": 120.0
            },
            {
                "start_time": 37.83409090909091,
                "end_time": 38.03636363636363,
                "pitch": 50,
                "velocity": 64,
                "duration": 0.20227272727272094,
                "tempo": 120.0
            },
            {
                "start_time": 38.10454545454545,
                "end_time": 38.309090909090905,
                "pitch": 38,
                "velocity": 64,
                "duration": 0.20454545454545325,
                "tempo": 120.0
            },
            {
                "start_time": 38.377272727272725,
                "end_time": 38.57727272727273,
                "pitch": 50,
                "velocity": 64,
                "duration": 0.20000000000000284,
                "tempo": 120.0
            },
            {
                "start_time": 38.64545454545454,
                "end_time": 38.845454545454544,
                "pitch": 38,
                "velocity": 64,
                "duration": 0.20000000000000284,
                "tempo": 120.0
            },
            {
                "start_time": 38.91136363636363,
                "end_time": 39.111363636363635,
                "pitch": 46,
                "velocity": 64,
                "duration": 0.20000000000000284,
                "tempo": 120.0
            },
            {
                "start_time": 39.179545454545455,
                "end_time": 39.37954545454545,
                "pitch": 34,
                "velocity": 64,
                "duration": 0.19999999999999574,
                "tempo": 120.0
            },
            {
                "start_time": 39.445454545454545,
                "end_time": 39.65,
                "pitch": 46,
                "velocity": 64,
                "duration": 0.20454545454545325,
                "tempo": 120.0
            },
            {
                "start_time": 39.71818181818182,
                "end_time": 39.92272727272727,
                "pitch": 34,
                "velocity": 64,
                "duration": 0.20454545454545325,
                "tempo": 120.0
            },
            {
                "start_time": 39.99090909090909,
                "end_time": 40.19090909090909,
                "pitch": 48,
                "velocity": 64,
                "duration": 0.19999999999999574,
                "tempo": 120.0
            },
            {
                "start_time": 40.25681818181818,
                "end_time": 40.45681818181818,
                "pitch": 36,
                "velocity": 64,
                "duration": 0.19999999999999574,
                "tempo": 120.0
            },
            {
                "start_time": 40.525,
                "end_time": 40.725,
                "pitch": 48,
                "velocity": 64,
                "duration": 0.20000000000000284,
                "tempo": 120.0
            },
            {
                "start_time": 40.79090909090909,
                "end_time": 40.99318181818182,
                "pitch": 36,
                "velocity": 64,
                "duration": 0.20227272727272805,
                "tempo": 120.0
            },
            {
                "start_time": 41.059090909090905,
                "end_time": 41.26363636363636,
                "pitch": 50,
                "velocity": 64,
                "duration": 0.20454545454545325,
                "tempo": 120.0
            },
            {
                "start_time": 41.33181818181818,
                "end_time": 41.53409090909091,
                "pitch": 38,
                "velocity": 64,
                "duration": 0.20227272727272805,
                "tempo": 120.0
            },
            {
                "start_time": 41.60227272727273,
                "end_time": 41.80227272727272,
                "pitch": 50,
                "velocity": 64,
                "duration": 0.19999999999999574,
                "tempo": 120.0
            },
            {
                "start_time": 41.87045454545454,
                "end_time": 42.070454545454545,
                "pitch": 38,
                "velocity": 64,
                "duration": 0.20000000000000284,
                "tempo": 120.0
            },
            {
                "start_time": 42.13636363636363,
                "end_time": 42.33863636363636,
                "pitch": 50,
                "velocity": 64,
                "duration": 0.20227272727272805,
                "tempo": 120.0
            },
            {
                "start_time": 42.40454545454545,
                "end_time": 42.60454545454545,
                "pitch": 38,
                "velocity": 64,
                "duration": 0.20000000000000284,
                "tempo": 120.0
            },
            {
                "start_time": 42.67045454545455,
                "end_time": 42.875,
                "pitch": 50,
                "velocity": 64,
                "duration": 0.20454545454545325,
                "tempo": 120.0
            },
            {
                "start_time": 42.94318181818181,
                "end_time": 43.14772727272727,
                "pitch": 38,
                "velocity": 64,
                "duration": 0.20454545454546036,
                "tempo": 120.0
            },
            {
                "start_time": 43.215909090909086,
                "end_time": 43.41590909090909,
                "pitch": 50,
                "velocity": 64,
                "duration": 0.20000000000000284,
                "tempo": 120.0
            },
            {
                "start_time": 43.48181818181818,
                "end_time": 43.684090909090905,
                "pitch": 38,
                "velocity": 64,
                "duration": 0.20227272727272805,
                "tempo": 120.0
            },
            {
                "start_time": 43.75,
                "end_time": 43.949999999999996,
                "pitch": 50,
                "velocity": 64,
                "duration": 0.19999999999999574,
                "tempo": 120.0
            },
            {
                "start_time": 44.018181818181816,
                "end_time": 44.21818181818182,
                "pitch": 38,
                "velocity": 64,
                "duration": 0.20000000000000284,
                "tempo": 120.0
            },
            {
                "start_time": 44.28409090909091,
                "end_time": 44.48863636363636,
                "pitch": 46,
                "velocity": 64,
                "duration": 0.20454545454545325,
                "tempo": 120.0
            },
            {
                "start_time": 44.55681818181818,
                "end_time": 44.76136363636363,
                "pitch": 34,
                "velocity": 64,
                "duration": 0.20454545454545325,
                "tempo": 120.0
            },
            {
                "start_time": 44.82727272727273,
                "end_time": 45.02954545454545,
                "pitch": 46,
                "velocity": 64,
                "duration": 0.20227272727272094,
                "tempo": 120.0
            },
            {
                "start_time": 45.095454545454544,
                "end_time": 45.29545454545455,
                "pitch": 34,
                "velocity": 64,
                "duration": 0.20000000000000284,
                "tempo": 120.0
            },
            {
                "start_time": 45.36363636363636,
                "end_time": 45.56363636363636,
                "pitch": 48,
                "velocity": 64,
                "duration": 0.20000000000000284,
                "tempo": 120.0
            },
            {
                "start_time": 45.62954545454545,
                "end_time": 45.82954545454545,
                "pitch": 36,
                "velocity": 64,
                "duration": 0.20000000000000284,
                "tempo": 120.0
            },
            {
                "start_time": 45.89772727272727,
                "end_time": 46.099999999999994,
                "pitch": 48,
                "velocity": 64,
                "duration": 0.20227272727272094,
                "tempo": 120.0
            },
            {
                "start_time": 46.168181818181814,
                "end_time": 46.37272727272727,
                "pitch": 36,
                "velocity": 64,
                "duration": 0.20454545454545325,
                "tempo": 120.0
            },
            {
                "start_time": 46.44090909090909,
                "end_time": 46.64090909090909,
                "pitch": 50,
                "velocity": 64,
                "duration": 0.20000000000000284,
                "tempo": 120.0
            },
            {
                "start_time": 46.709090909090904,
                "end_time": 46.90909090909091,
                "pitch": 38,
                "velocity": 64,
                "duration": 0.20000000000000284,
                "tempo": 120.0
            },
            {
                "start_time": 46.974999999999994,
                "end_time": 47.175,
                "pitch": 50,
                "velocity": 64,
                "duration": 0.20000000000000284,
                "tempo": 120.0
            },
            {
                "start_time": 47.24318181818182,
                "end_time": 47.44318181818181,
                "pitch": 38,
                "velocity": 64,
                "duration": 0.19999999999999574,
                "tempo": 120.0
            },
            {
                "start_time": 47.50909090909091,
                "end_time": 47.71363636363636,
                "pitch": 46,
                "velocity": 64,
                "duration": 0.20454545454545325,
                "tempo": 120.0
            },
            {
                "start_time": 47.78181818181818,
                "end_time": 47.986363636363635,
                "pitch": 34,
                "velocity": 64,
                "duration": 0.20454545454545325,
                "tempo": 120.0
            },
            {
                "start_time": 48.054545454545455,
                "end_time": 48.25454545454545,
                "pitch": 46,
                "velocity": 64,
                "duration": 0.19999999999999574,
                "tempo": 120.0
            },
            {
                "start_time": 48.320454545454545,
                "end_time": 48.52045454545454,
                "pitch": 34,
                "velocity": 64,
                "duration": 0.19999999999999574,
                "tempo": 120.0
            },
            {
                "start_time": 48.58863636363636,
                "end_time": 48.788636363636364,
                "pitch": 48,
                "velocity": 64,
                "duration": 0.20000000000000284,
                "tempo": 120.0
            },
            {
                "start_time": 48.85454545454545,
                "end_time": 49.054545454545455,
                "pitch": 36,
                "velocity": 64,
                "duration": 0.20000000000000284,
                "tempo": 120.0
            },
            {
                "start_time": 49.12272727272727,
                "end_time": 49.32727272727273,
                "pitch": 48,
                "velocity": 64,
                "duration": 0.20454545454546036,
                "tempo": 120.0
            },
            {
                "start_time": 49.39545454545454,
                "end_time": 49.59772727272727,
                "pitch": 36,
                "velocity": 64,
                "duration": 0.20227272727272805,
                "tempo": 120.0
            },
            {
                "start_time": 49.66590909090909,
                "end_time": 49.865909090909085,
                "pitch": 50,
                "velocity": 64,
                "duration": 0.19999999999999574,
                "tempo": 120.0
            },
            {
                "start_time": 49.934090909090905,
                "end_time": 50.13409090909091,
                "pitch": 38,
                "velocity": 64,
                "duration": 0.20000000000000284,
                "tempo": 120.0
            },
            {
                "start_time": 50.199999999999996,
                "end_time": 50.402272727272724,
                "pitch": 50,
                "velocity": 64,
                "duration": 0.20227272727272805,
                "tempo": 120.0
            },
            {
                "start_time": 50.46818181818182,
                "end_time": 50.668181818181814,
                "pitch": 38,
                "velocity": 64,
                "duration": 0.19999999999999574,
                "tempo": 120.0
            },
            {
                "start_time": 50.73409090909091,
                "end_time": 50.93863636363636,
                "pitch": 50,
                "velocity": 64,
                "duration": 0.20454545454545325,
                "tempo": 120.0
            },
            {
                "start_time": 51.00681818181818,
                "end_time": 51.211363636363636,
                "pitch": 38,
                "velocity": 64,
                "duration": 0.20454545454545325,
                "tempo": 120.0
            },
            {
                "start_time": 51.27954545454545,
                "end_time": 51.47954545454545,
                "pitch": 50,
                "velocity": 64,
                "duration": 0.20000000000000284,
                "tempo": 120.0
            },
            {
                "start_time": 51.54545454545454,
                "end_time": 51.74772727272727,
                "pitch": 38,
                "velocity": 64,
                "duration": 0.20227272727272805,
                "tempo": 120.0
            },
            {
                "start_time": 51.81363636363636,
                "end_time": 52.01363636363636,
                "pitch": 58,
                "velocity": 64,
                "duration": 0.19999999999999574,
                "tempo": 120.0
            },
            {
                "start_time": 52.07954545454545,
                "end_time": 52.28181818181818,
                "pitch": 46,
                "velocity": 64,
                "duration": 0.20227272727272805,
                "tempo": 120.0
            },
            {
                "start_time": 52.34772727272727,
                "end_time": 52.55227272727272,
                "pitch": 58,
                "velocity": 64,
                "duration": 0.20454545454545325,
                "tempo": 120.0
            },
            {
                "start_time": 52.62045454545454,
                "end_time": 52.82272727272727,
                "pitch": 46,
                "velocity": 64,
                "duration": 0.20227272727272805,
                "tempo": 120.0
            },
            {
                "start_time": 52.89090909090909,
                "end_time": 53.09318181818182,
                "pitch": 57,
                "velocity": 64,
                "duration": 0.20227272727272805,
                "tempo": 120.0
            },
            {
                "start_time": 53.15909090909091,
                "end_time": 53.35909090909091,
                "pitch": 45,
                "velocity": 64,
                "duration": 0.20000000000000284,
                "tempo": 120.0
            },
            {
                "start_time": 53.42727272727272,
                "end_time": 53.627272727272725,
                "pitch": 57,
                "velocity": 64,
                "duration": 0.20000000000000284,
                "tempo": 120.0
            },
            {
                "start_time": 53.69318181818181,
                "end_time": 53.893181818181816,
                "pitch": 45,
                "velocity": 64,
                "duration": 0.20000000000000284,
                "tempo": 120.0
            },
            {
                "start_time": 53.961363636363636,
                "end_time": 54.163636363636364,
                "pitch": 55,
                "velocity": 64,
                "duration": 0.20227272727272805,
                "tempo": 120.0
            },
            {
                "start_time": 54.23181818181818,
                "end_time": 54.43636363636363,
                "pitch": 43,
                "velocity": 64,
                "duration": 0.20454545454545325,
                "tempo": 120.0
            },
            {
                "start_time": 54.50454545454545,
                "end_time": 54.70454545454545,
                "pitch": 55,
                "velocity": 64,
                "duration": 0.20000000000000284,
                "tempo": 120.0
            },
            {
                "start_time": 54.77272727272727,
                "end_time": 54.97272727272727,
                "pitch": 43,
                "velocity": 64,
                "duration": 0.19999999999999574,
                "tempo": 120.0
            },
            {
                "start_time": 55.038636363636364,
                "end_time": 55.23863636363636,
                "pitch": 53,
                "velocity": 64,
                "duration": 0.19999999999999574,
                "tempo": 120.0
            },
            {
                "start_time": 55.30681818181818,
                "end_time": 55.506818181818176,
                "pitch": 41,
                "velocity": 64,
                "duration": 0.19999999999999574,
                "tempo": 120.0
            },
            {
                "start_time": 55.57272727272727,
                "end_time": 55.777272727272724,
                "pitch": 53,
                "velocity": 64,
                "duration": 0.20454545454545325,
                "tempo": 120.0
            },
            {
                "start_time": 55.845454545454544,
                "end_time": 56.05,
                "pitch": 41,
                "velocity": 64,
                "duration": 0.20454545454545325,
                "tempo": 120.0
            },
            {
                "start_time": 56.11818181818182,
                "end_time": 56.53409090909091,
                "pitch": 52,
                "velocity": 64,
                "duration": 0.41590909090908923,
                "tempo": 120.0
            },
            {
                "start_time": 56.652272727272724,
                "end_time": 57.07727272727273,
                "pitch": 49,
                "velocity": 64,
                "duration": 0.42500000000000426,
                "tempo": 120.0
            },
            {
                "start_time": 57.195454545454545,
                "end_time": 57.62045454545454,
                "pitch": 45,
                "velocity": 64,
                "duration": 0.42499999999999716,
                "tempo": 120.0
            },
            {
                "start_time": 57.73863636363636,
                "end_time": 57.94090909090909,
                "pitch": 57,
                "velocity": 64,
                "duration": 0.20227272727272805,
                "tempo": 120.0
            },
            {
                "start_time": 58.006818181818176,
                "end_time": 58.20681818181818,
                "pitch": 55,
                "velocity": 64,
                "duration": 0.20000000000000284,
                "tempo": 120.0
            },
            {
                "start_time": 58.275,
                "end_time": 58.470454545454544,
                "pitch": 57,
                "velocity": 64,
                "duration": 0.19545454545454533,
                "tempo": 120.0
            },
            {
                "start_time": 58.53636363636363,
                "end_time": 58.73409090909091,
                "pitch": 52,
                "velocity": 64,
                "duration": 0.19772727272727764,
                "tempo": 120.0
            },
            {
                "start_time": 58.8,
                "end_time": 59.002272727272725,
                "pitch": 55,
                "velocity": 64,
                "duration": 0.20227272727272805,
                "tempo": 120.0
            },
            {
                "start_time": 59.070454545454545,
                "end_time": 59.275,
                "pitch": 58,
                "velocity": 64,
                "duration": 0.20454545454545325,
                "tempo": 120.0
            },
            {
                "start_time": 59.34318181818182,
                "end_time": 59.543181818181814,
                "pitch": 57,
                "velocity": 64,
                "duration": 0.19999999999999574,
                "tempo": 120.0
            },
            {
                "start_time": 59.60909090909091,
                "end_time": 59.81136363636363,
                "pitch": 55,
                "velocity": 64,
                "duration": 0.20227272727272094,
                "tempo": 120.0
            },
            {
                "start_time": 59.877272727272725,
                "end_time": 60.07727272727272,
                "pitch": 53,
                "velocity": 64,
                "duration": 0.19999999999999574,
                "tempo": 120.0
            },
            {
                "start_time": 60.14545454545454,
                "end_time": 60.345454545454544,
                "pitch": 55,
                "velocity": 64,
                "duration": 0.20000000000000284,
                "tempo": 120.0
            },
            {
                "start_time": 60.41136363636363,
                "end_time": 60.615909090909085,
                "pitch": 50,
                "velocity": 64,
                "duration": 0.20454545454545325,
                "tempo": 120.0
            },
            {
                "start_time": 60.684090909090905,
                "end_time": 60.88863636363636,
                "pitch": 38,
                "velocity": 64,
                "duration": 0.20454545454545325,
                "tempo": 120.0
            },
            {
                "start_time": 60.95681818181818,
                "end_time": 61.15681818181818,
                "pitch": 50,
                "velocity": 64,
                "duration": 0.20000000000000284,
                "tempo": 120.0
            },
            {
                "start_time": 61.22272727272727,
                "end_time": 61.42272727272727,
                "pitch": 38,
                "velocity": 64,
                "duration": 0.20000000000000284,
                "tempo": 120.0
            },
            {
                "start_time": 61.490909090909085,
                "end_time": 61.69090909090909,
                "pitch": 46,
                "velocity": 64,
                "duration": 0.20000000000000284,
                "tempo": 120.0
            },
            {
                "start_time": 61.756818181818176,
                "end_time": 61.95681818181818,
                "pitch": 34,
                "velocity": 64,
                "duration": 0.20000000000000284,
                "tempo": 120.0
            },
            {
                "start_time": 62.025,
                "end_time": 62.22954545454545,
                "pitch": 46,
                "velocity": 64,
                "duration": 0.20454545454545325,
                "tempo": 120.0
            },
            {
                "start_time": 62.29545454545454,
                "end_time": 62.5,
                "pitch": 34,
                "velocity": 64,
                "duration": 0.20454545454546036,
                "tempo": 120.0
            },
            {
                "start_time": 62.56818181818181,
                "end_time": 62.768181818181816,
                "pitch": 48,
                "velocity": 64,
                "duration": 0.20000000000000284,
                "tempo": 120.0
            },
            {
                "start_time": 62.836363636363636,
                "end_time": 63.03636363636363,
                "pitch": 36,
                "velocity": 64,
                "duration": 0.19999999999999574,
                "tempo": 120.0
            },
            {
                "start_time": 63.10227272727273,
                "end_time": 63.30227272727272,
                "pitch": 48,
                "velocity": 64,
                "duration": 0.19999999999999574,
                "tempo": 120.0
            },
            {
                "start_time": 63.37045454545454,
                "end_time": 63.570454545454545,
                "pitch": 36,
                "velocity": 64,
                "duration": 0.20000000000000284,
                "tempo": 120.0
            },
            {
                "start_time": 63.63636363636363,
                "end_time": 63.840909090909086,
                "pitch": 50,
                "velocity": 64,
                "duration": 0.20454545454545325,
                "tempo": 120.0
            },
            {
                "start_time": 63.90909090909091,
                "end_time": 64.11363636363636,
                "pitch": 38,
                "velocity": 64,
                "duration": 0.20454545454545325,
                "tempo": 120.0
            },
            {
                "start_time": 64.18181818181817,
                "end_time": 64.38181818181818,
                "pitch": 50,
                "velocity": 64,
                "duration": 0.20000000000000284,
                "tempo": 120.0
            },
            {
                "start_time": 64.44772727272726,
                "end_time": 64.64772727272727,
                "pitch": 38,
                "velocity": 64,
                "duration": 0.20000000000000284,
                "tempo": 120.0
            },
            {
                "start_time": 64.7159090909091,
                "end_time": 64.91590909090908,
                "pitch": 46,
                "velocity": 64,
                "duration": 0.19999999999998863,
                "tempo": 120.0
            },
            {
                "start_time": 64.98181818181818,
                "end_time": 65.18409090909091,
                "pitch": 34,
                "velocity": 64,
                "duration": 0.20227272727272805,
                "tempo": 120.0
            },
            {
                "start_time": 65.25,
                "end_time": 65.45454545454545,
                "pitch": 46,
                "velocity": 64,
                "duration": 0.20454545454545325,
                "tempo": 120.0
            },
            {
                "start_time": 65.52272727272727,
                "end_time": 65.725,
                "pitch": 34,
                "velocity": 64,
                "duration": 0.20227272727272805,
                "tempo": 120.0
            },
            {
                "start_time": 65.79318181818182,
                "end_time": 65.99318181818181,
                "pitch": 48,
                "velocity": 64,
                "duration": 0.19999999999998863,
                "tempo": 120.0
            },
            {
                "start_time": 66.06136363636364,
                "end_time": 66.26136363636364,
                "pitch": 36,
                "velocity": 64,
                "duration": 0.20000000000000284,
                "tempo": 120.0
            },
            {
                "start_time": 66.32727272727273,
                "end_time": 66.52954545454546,
                "pitch": 48,
                "velocity": 64,
                "duration": 0.20227272727272805,
                "tempo": 120.0
            },
            {
                "start_time": 66.59545454545454,
                "end_time": 66.79545454545455,
                "pitch": 36,
                "velocity": 64,
                "duration": 0.20000000000000284,
                "tempo": 120.0
            },
            {
                "start_time": 66.86363636363636,
                "end_time": 67.06590909090909,
                "pitch": 50,
                "velocity": 64,
                "duration": 0.20227272727272805,
                "tempo": 120.0
            },
            {
                "start_time": 67.1340909090909,
                "end_time": 67.33863636363635,
                "pitch": 38,
                "velocity": 64,
                "duration": 0.20454545454545325,
                "tempo": 120.0
            },
            {
                "start_time": 67.40681818181818,
                "end_time": 67.61136363636363,
                "pitch": 50,
                "velocity": 64,
                "duration": 0.20454545454545325,
                "tempo": 120.0
            },
            {
                "start_time": 67.67954545454545,
                "end_time": 67.88181818181818,
                "pitch": 38,
                "velocity": 64,
                "duration": 0.20227272727272805,
                "tempo": 120.0
            },
            {
                "start_time": 67.95,
                "end_time": 68.14772727272727,
                "pitch": 50,
                "velocity": 64,
                "duration": 0.19772727272726343,
                "tempo": 120.0
            },
            {
                "start_time": 68.21363636363635,
                "end_time": 68.4090909090909,
                "pitch": 38,
                "velocity": 64,
                "duration": 0.19545454545455243,
                "tempo": 120.0
            },
            {
                "start_time": 68.475,
                "end_time": 68.67954545454545,
                "pitch": 50,
                "velocity": 64,
                "duration": 0.20454545454545325,
                "tempo": 120.0
            },
            {
                "start_time": 68.74772727272727,
                "end_time": 69.01818181818182,
                "pitch": 38,
                "velocity": 64,
                "duration": 0.27045454545454106,
                "tempo": 120.0
            }
        ],
        "Harpsichord": [
            {
                "start_time": 0.9886363636363635,
                "end_time": 1.1886363636363635,
                "pitch": 74,
                "velocity": 32,
                "duration": 0.19999999999999996,
                "tempo": 120.0
            },
            {
                "start_time": 1.2568181818181818,
                "end_time": 1.459090909090909,
                "pitch": 72,
                "velocity": 32,
                "duration": 0.20227272727272716,
                "tempo": 120.0
            },
            {
                "start_time": 1.5272727272727271,
                "end_time": 1.7318181818181817,
                "pitch": 70,
                "velocity": 32,
                "duration": 0.20454545454545459,
                "tempo": 120.0
            },
            {
                "start_time": 1.7999999999999998,
                "end_time": 2.0,
                "pitch": 69,
                "velocity": 32,
                "duration": 0.20000000000000018,
                "tempo": 120.0
            },
            {
                "start_time": 2.068181818181818,
                "end_time": 2.484090909090909,
                "pitch": 67,
                "velocity": 32,
                "duration": 0.415909090909091,
                "tempo": 120.0
            },
            {
                "start_time": 2.602272727272727,
                "end_time": 2.702272727272727,
                "pitch": 64,
                "velocity": 32,
                "duration": 0.10000000000000009,
                "tempo": 120.0
            },
            {
                "start_time": 2.7363636363636363,
                "end_time": 2.8363636363636364,
                "pitch": 65,
                "velocity": 32,
                "duration": 0.10000000000000009,
                "tempo": 120.0
            },
            {
                "start_time": 2.868181818181818,
                "end_time": 3.0727272727272728,
                "pitch": 67,
                "velocity": 32,
                "duration": 0.20454545454545459,
                "tempo": 120.0
            },
            {
                "start_time": 3.1409090909090907,
                "end_time": 3.3454545454545452,
                "pitch": 72,
                "velocity": 32,
                "duration": 0.20454545454545459,
                "tempo": 120.0
            },
            {
                "start_time": 3.4136363636363636,
                "end_time": 3.6136363636363633,
                "pitch": 70,
                "velocity": 32,
                "duration": 0.19999999999999973,
                "tempo": 120.0
            },
            {
                "start_time": 3.6795454545454542,
                "end_time": 3.8795454545454544,
                "pitch": 69,
                "velocity": 32,
                "duration": 0.20000000000000018,
                "tempo": 120.0
            },
            {
                "start_time": 3.9477272727272728,
                "end_time": 4.1477272727272725,
                "pitch": 67,
                "velocity": 32,
                "duration": 0.19999999999999973,
                "tempo": 120.0
            },
            {
                "start_time": 4.213636363636364,
                "end_time": 5.075,
                "pitch": 65,
                "velocity": 32,
                "duration": 0.8613636363636363,
                "tempo": 120.0
            },
            {
                "start_time": 5.293181818181818,
                "end_time": 6.1454545454545455,
                "pitch": 67,
                "velocity": 32,
                "duration": 0.8522727272727275,
                "tempo": 120.0
            },
            {
                "start_time": 6.36590909090909,
                "end_time": 7.222727272727273,
                "pitch": 64,
                "velocity": 32,
                "duration": 0.8568181818181824,
                "tempo": 120.0
            },
            {
                "start_time": 7.4409090909090905,
                "end_time": 8.299999999999999,
                "pitch": 62,
                "velocity": 32,
                "duration": 0.8590909090909085,
                "tempo": 120.0
            },
            {
                "start_time": 8.518181818181818,
                "end_time": 9.370454545454544,
                "pitch": 62,
                "velocity": 32,
                "duration": 0.8522727272727266,
                "tempo": 120.0
            },
            {
                "start_time": 9.59090909090909,
                "end_time": 9.795454545454545,
                "pitch": 74,
                "velocity": 32,
                "duration": 0.20454545454545503,
                "tempo": 120.0
            },
            {
                "start_time": 9.863636363636363,
                "end_time": 10.063636363636363,
                "pitch": 72,
                "velocity": 32,
                "duration": 0.1999999999999993,
                "tempo": 120.0
            },
            {
                "start_time": 10.131818181818181,
                "end_time": 10.331818181818182,
                "pitch": 70,
                "velocity": 32,
                "duration": 0.20000000000000107,
                "tempo": 120.0
            },
            {
                "start_time": 10.397727272727272,
                "end_time": 10.597727272727273,
                "pitch": 69,
                "velocity": 32,
                "duration": 0.20000000000000107,
                "tempo": 120.0
            },
            {
                "start_time": 10.665909090909091,
                "end_time": 11.084090909090909,
                "pitch": 67,
                "velocity": 32,
                "duration": 0.418181818181818,
                "tempo": 120.0
            },
            {
                "start_time": 11.204545454545453,
                "end_time": 11.306818181818182,
                "pitch": 64,
                "velocity": 32,
                "duration": 0.1022727272727284,
                "tempo": 120.0
            },
            {
                "start_time": 11.34090909090909,
                "end_time": 11.443181818181818,
                "pitch": 65,
                "velocity": 32,
                "duration": 0.1022727272727284,
                "tempo": 120.0
            },
            {
                "start_time": 11.477272727272727,
                "end_time": 11.677272727272726,
                "pitch": 67,
                "velocity": 32,
                "duration": 0.1999999999999993,
                "tempo": 120.0
            },
            {
                "start_time": 11.743181818181817,
                "end_time": 11.943181818181818,
                "pitch": 72,
                "velocity": 32,
                "duration": 0.20000000000000107,
                "tempo": 120.0
            },
            {
                "start_time": 12.011363636363635,
                "end_time": 12.211363636363636,
                "pitch": 70,
                "velocity": 32,
                "duration": 0.20000000000000107,
                "tempo": 120.0
            },
            {
                "start_time": 12.277272727272727,
                "end_time": 12.477272727272727,
                "pitch": 69,
                "velocity": 32,
                "duration": 0.1999999999999993,
                "tempo": 120.0
            },
            {
                "start_time": 12.545454545454545,
                "end_time": 12.75,
                "pitch": 67,
                "velocity": 32,
                "duration": 0.20454545454545503,
                "tempo": 120.0
            },
            {
                "start_time": 12.81590909090909,
                "end_time": 13.674999999999999,
                "pitch": 65,
                "velocity": 32,
                "duration": 0.8590909090909093,
                "tempo": 120.0
            },
            {
                "start_time": 13.895454545454545,
                "end_time": 14.752272727272727,
                "pitch": 67,
                "velocity": 32,
                "duration": 0.8568181818181824,
                "tempo": 120.0
            },
            {
                "start_time": 14.968181818181817,
                "end_time": 15.820454545454545,
                "pitch": 64,
                "velocity": 32,
                "duration": 0.8522727272727284,
                "tempo": 120.0
            },
            {
                "start_time": 16.043181818181818,
                "end_time": 16.9,
                "pitch": 62,
                "velocity": 32,
                "duration": 0.8568181818181806,
                "tempo": 120.0
            },
            {
                "start_time": 17.11590909090909,
                "end_time": 17.31590909090909,
                "pitch": 70,
                "velocity": 32,
                "duration": 0.20000000000000284,
                "tempo": 120.0
            },
            {
                "start_time": 17.384090909090908,
                "end_time": 17.584090909090907,
                "pitch": 67,
                "velocity": 32,
                "duration": 0.1999999999999993,
                "tempo": 120.0
            },
            {
                "start_time": 17.65,
                "end_time": 17.849999999999998,
                "pitch": 76,
                "velocity": 32,
                "duration": 0.1999999999999993,
                "tempo": 120.0
            },
            {
                "start_time": 17.918181818181818,
                "end_time": 18.120454545454546,
                "pitch": 74,
                "velocity": 32,
                "duration": 0.20227272727272805,
                "tempo": 120.0
            },
            {
                "start_time": 18.188636363636363,
                "end_time": 18.393181818181816,
                "pitch": 69,
                "velocity": 32,
                "duration": 0.20454545454545325,
                "tempo": 120.0
            },
            {
                "start_time": 18.461363636363636,
                "end_time": 18.661363636363635,
                "pitch": 65,
                "velocity": 32,
                "duration": 0.1999999999999993,
                "tempo": 120.0
            },
            {
                "start_time": 18.729545454545455,
                "end_time": 18.929545454545455,
                "pitch": 74,
                "velocity": 32,
                "duration": 0.1999999999999993,
                "tempo": 120.0
            },
            {
                "start_time": 18.995454545454546,
                "end_time": 19.2,
                "pitch": 72,
                "velocity": 32,
                "duration": 0.20454545454545325,
                "tempo": 120.0
            },
            {
                "start_time": 19.268181818181816,
                "end_time": 19.472727272727273,
                "pitch": 67,
                "velocity": 32,
                "duration": 0.2045454545454568,
                "tempo": 120.0
            },
            {
                "start_time": 19.538636363636364,
                "end_time": 19.74090909090909,
                "pitch": 61,
                "velocity": 32,
                "duration": 0.2022727272727245,
                "tempo": 120.0
            },
            {
                "start_time": 19.80681818181818,
                "end_time": 20.00681818181818,
                "pitch": 74,
                "velocity": 32,
                "duration": 0.1999999999999993,
                "tempo": 120.0
            },
            {
                "start_time": 20.075,
                "end_time": 20.275,
                "pitch": 64,
                "velocity": 32,
                "duration": 0.1999999999999993,
                "tempo": 120.0
            },
            {
                "start_time": 20.34090909090909,
                "end_time": 20.54090909090909,
                "pitch": 65,
                "velocity": 32,
                "duration": 0.1999999999999993,
                "tempo": 120.0
            },
            {
                "start_time": 20.60909090909091,
                "end_time": 20.811363636363634,
                "pitch": 62,
                "velocity": 32,
                "duration": 0.2022727272727245,
                "tempo": 120.0
            },
            {
                "start_time": 20.879545454545454,
                "end_time": 21.084090909090907,
                "pitch": 67,
                "velocity": 32,
                "duration": 0.20454545454545325,
                "tempo": 120.0
            },
            {
                "start_time": 21.152272727272727,
                "end_time": 21.352272727272727,
                "pitch": 65,
                "velocity": 32,
                "duration": 0.1999999999999993,
                "tempo": 120.0
            },
            {
                "start_time": 21.420454545454543,
                "end_time": 21.620454545454546,
                "pitch": 64,
                "velocity": 32,
                "duration": 0.20000000000000284,
                "tempo": 120.0
            },
            {
                "start_time": 21.686363636363634,
                "end_time": 21.89090909090909,
                "pitch": 55,
                "velocity": 32,
                "duration": 0.2045454545454568,
                "tempo": 120.0
            },
            {
                "start_time": 21.959090909090907,
                "end_time": 22.163636363636364,
                "pitch": 61,
                "velocity": 32,
                "duration": 0.2045454545454568,
                "tempo": 120.0
            },
            {
                "start_time": 22.23181818181818,
                "end_time": 22.43181818181818,
                "pitch": 64,
                "velocity": 32,
                "duration": 0.1999999999999993,
                "tempo": 120.0
            },
            {
                "start_time": 22.49772727272727,
                "end_time": 22.91590909090909,
                "pitch": 67,
                "velocity": 32,
                "duration": 0.418181818181818,
                "tempo": 120.0
            },
            {
                "start_time": 23.03181818181818,
                "end_time": 23.45,
                "pitch": 65,
                "velocity": 32,
                "duration": 0.418181818181818,
                "tempo": 120.0
            },
            {
                "start_time": 23.56590909090909,
                "end_time": 24.420454545454543,
                "pitch": 67,
                "velocity": 32,
                "duration": 0.8545454545454518,
                "tempo": 120.0
            },
            {
                "start_time": 24.64090909090909,
                "end_time": 25.49772727272727,
                "pitch": 64,
                "velocity": 32,
                "duration": 0.8568181818181806,
                "tempo": 120.0
            },
            {
                "start_time": 25.71363636363636,
                "end_time": 25.913636363636364,
                "pitch": 62,
                "velocity": 32,
                "duration": 0.20000000000000284,
                "tempo": 120.0
            },
            {
                "start_time": 25.98181818181818,
                "end_time": 26.18409090909091,
                "pitch": 65,
                "velocity": 32,
                "duration": 0.20227272727272805,
                "tempo": 120.0
            },
            {
                "start_time": 26.252272727272725,
                "end_time": 26.456818181818182,
                "pitch": 69,
                "velocity": 32,
                "duration": 0.2045454545454568,
                "tempo": 120.0
            },
            {
                "start_time": 26.525,
                "end_time": 26.724999999999998,
                "pitch": 65,
                "velocity": 32,
                "duration": 0.1999999999999993,
                "tempo": 120.0
            },
            {
                "start_time": 26.793181818181818,
                "end_time": 26.993181818181817,
                "pitch": 62,
                "velocity": 32,
                "duration": 0.1999999999999993,
                "tempo": 120.0
            },
            {
                "start_time": 27.05909090909091,
                "end_time": 27.263636363636362,
                "pitch": 65,
                "velocity": 32,
                "duration": 0.20454545454545325,
                "tempo": 120.0
            },
            {
                "start_time": 27.331818181818182,
                "end_time": 27.536363636363635,
                "pitch": 70,
                "velocity": 32,
                "duration": 0.20454545454545325,
                "tempo": 120.0
            },
            {
                "start_time": 27.602272727272727,
                "end_time": 27.804545454545455,
                "pitch": 65,
                "velocity": 32,
                "duration": 0.20227272727272805,
                "tempo": 120.0
            },
            {
                "start_time": 27.870454545454542,
                "end_time": 28.070454545454545,
                "pitch": 64,
                "velocity": 32,
                "duration": 0.20000000000000284,
                "tempo": 120.0
            },
            {
                "start_time": 28.138636363636362,
                "end_time": 28.33863636363636,
                "pitch": 67,
                "velocity": 32,
                "duration": 0.1999999999999993,
                "tempo": 120.0
            },
            {
                "start_time": 28.404545454545453,
                "end_time": 28.604545454545452,
                "pitch": 72,
                "velocity": 32,
                "duration": 0.1999999999999993,
                "tempo": 120.0
            },
            {
                "start_time": 28.672727272727272,
                "end_time": 28.875,
                "pitch": 67,
                "velocity": 32,
                "duration": 0.20227272727272805,
                "tempo": 120.0
            },
            {
                "start_time": 28.943181818181817,
                "end_time": 29.14772727272727,
                "pitch": 74,
                "velocity": 32,
                "duration": 0.20454545454545325,
                "tempo": 120.0
            },
            {
                "start_time": 29.21590909090909,
                "end_time": 29.41590909090909,
                "pitch": 69,
                "velocity": 32,
                "duration": 0.1999999999999993,
                "tempo": 120.0
            },
            {
                "start_time": 29.48409090909091,
                "end_time": 29.68409090909091,
                "pitch": 65,
                "velocity": 32,
                "duration": 0.1999999999999993,
                "tempo": 120.0
            },
            {
                "start_time": 29.75,
                "end_time": 29.954545454545453,
                "pitch": 64,
                "velocity": 32,
                "duration": 0.20454545454545325,
                "tempo": 120.0
            },
            {
                "start_time": 30.02272727272727,
                "end_time": 30.227272727272727,
                "pitch": 62,
                "velocity": 32,
                "duration": 0.2045454545454568,
                "tempo": 120.0
            },
            {
                "start_time": 30.293181818181818,
                "end_time": 30.495454545454542,
                "pitch": 64,
                "velocity": 32,
                "duration": 0.2022727272727245,
                "tempo": 120.0
            },
            {
                "start_time": 30.561363636363634,
                "end_time": 30.761363636363633,
                "pitch": 65,
                "velocity": 32,
                "duration": 0.1999999999999993,
                "tempo": 120.0
            },
            {
                "start_time": 30.829545454545453,
                "end_time": 31.029545454545453,
                "pitch": 67,
                "velocity": 32,
                "duration": 0.1999999999999993,
                "tempo": 120.0
            },
            {
                "start_time": 31.095454545454544,
                "end_time": 31.295454545454543,
                "pitch": 64,
                "velocity": 32,
                "duration": 0.1999999999999993,
                "tempo": 120.0
            },
            {
                "start_time": 31.363636363636363,
                "end_time": 31.565909090909088,
                "pitch": 65,
                "velocity": 32,
                "duration": 0.2022727272727245,
                "tempo": 120.0
            },
            {
                "start_time": 31.634090909090908,
                "end_time": 31.83863636363636,
                "pitch": 67,
                "velocity": 32,
                "duration": 0.20454545454545325,
                "tempo": 120.0
            },
            {
                "start_time": 31.90681818181818,
                "end_time": 32.10681818181818,
                "pitch": 69,
                "velocity": 32,
                "duration": 0.19999999999999574,
                "tempo": 120.0
            },
            {
                "start_time": 32.175,
                "end_time": 32.595454545454544,
                "pitch": 67,
                "velocity": 32,
                "duration": 0.42045454545454675,
                "tempo": 120.0
            },
            {
                "start_time": 32.99545454545454,
                "end_time": 33.09772727272727,
                "pitch": 69,
                "velocity": 32,
                "duration": 0.10227272727272663,
                "tempo": 120.0
            },
            {
                "start_time": 33.13409090909091,
                "end_time": 33.25454545454545,
                "pitch": 67,
                "velocity": 32,
                "duration": 0.12045454545454248,
                "tempo": 120.0
            },
            {
                "start_time": 33.29545454545455,
                "end_time": 34.340909090909086,
                "pitch": 66,
                "velocity": 32,
                "duration": 1.0454545454545396,
                "tempo": 120.0
            },
            {
                "start_time": 34.60681818181818,
                "end_time": 35.46818181818182,
                "pitch": 62,
                "velocity": 32,
                "duration": 0.8613636363636417,
                "tempo": 120.0
            },
            {
                "start_time": 35.68636363636364,
                "end_time": 35.88636363636363,
                "pitch": 74,
                "velocity": 32,
                "duration": 0.19999999999999574,
                "tempo": 120.0
            },
            {
                "start_time": 35.95454545454545,
                "end_time": 36.154545454545456,
                "pitch": 72,
                "velocity": 32,
                "duration": 0.20000000000000284,
                "tempo": 120.0
            },
            {
                "start_time": 36.220454545454544,
                "end_time": 36.425,
                "pitch": 70,
                "velocity": 32,
                "duration": 0.20454545454545325,
                "tempo": 120.0
            },
            {
                "start_time": 36.49318181818182,
                "end_time": 36.69772727272727,
                "pitch": 69,
                "velocity": 32,
                "duration": 0.20454545454545325,
                "tempo": 120.0
            },
            {
                "start_time": 36.76363636363636,
                "end_time": 37.18181818181818,
                "pitch": 67,
                "velocity": 32,
                "duration": 0.41818181818182154,
                "tempo": 120.0
            },
            {
                "start_time": 37.3,
                "end_time": 37.4,
                "pitch": 64,
                "velocity": 32,
                "duration": 0.10000000000000142,
                "tempo": 120.0
            },
            {
                "start_time": 37.43181818181818,
                "end_time": 37.53181818181818,
                "pitch": 65,
                "velocity": 32,
                "duration": 0.10000000000000142,
                "tempo": 120.0
            },
            {
                "start_time": 37.56590909090909,
                "end_time": 37.76590909090909,
                "pitch": 67,
                "velocity": 32,
                "duration": 0.20000000000000284,
                "tempo": 120.0
            },
            {
                "start_time": 37.83409090909091,
                "end_time": 38.03636363636363,
                "pitch": 72,
                "velocity": 32,
                "duration": 0.20227272727272094,
                "tempo": 120.0
            },
            {
                "start_time": 38.10454545454545,
                "end_time": 38.309090909090905,
                "pitch": 70,
                "velocity": 32,
                "duration": 0.20454545454545325,
                "tempo": 120.0
            },
            {
                "start_time": 38.377272727272725,
                "end_time": 38.57727272727273,
                "pitch": 69,
                "velocity": 32,
                "duration": 0.20000000000000284,
                "tempo": 120.0
            },
            {
                "start_time": 38.64545454545454,
                "end_time": 38.845454545454544,
                "pitch": 67,
                "velocity": 32,
                "duration": 0.20000000000000284,
                "tempo": 120.0
            },
            {
                "start_time": 38.91136363636363,
                "end_time": 39.768181818181816,
                "pitch": 65,
                "velocity": 32,
                "duration": 0.8568181818181841,
                "tempo": 120.0
            },
            {
                "start_time": 39.99090909090909,
                "end_time": 40.840909090909086,
                "pitch": 67,
                "velocity": 32,
                "duration": 0.8499999999999943,
                "tempo": 120.0
            },
            {
                "start_time": 41.059090909090905,
                "end_time": 41.92045454545455,
                "pitch": 64,
                "velocity": 32,
                "duration": 0.8613636363636417,
                "tempo": 120.0
            },
            {
                "start_time": 42.13636363636363,
                "end_time": 42.99545454545454,
                "pitch": 62,
                "velocity": 32,
                "duration": 0.8590909090909093,
                "tempo": 120.0
            },
            {
                "start_time": 43.215909090909086,
                "end_time": 44.06818181818181,
                "pitch": 62,
                "velocity": 32,
                "duration": 0.8522727272727266,
                "tempo": 120.0
            },
            {
                "start_time": 44.28409090909091,
                "end_time": 44.48863636363636,
                "pitch": 74,
                "velocity": 32,
                "duration": 0.20454545454545325,
                "tempo": 120.0
            },
            {
                "start_time": 44.55681818181818,
                "end_time": 44.76136363636363,
                "pitch": 72,
                "velocity": 32,
                "duration": 0.20454545454545325,
                "tempo": 120.0
            },
            {
                "start_time": 44.82727272727273,
                "end_time": 45.02954545454545,
                "pitch": 70,
                "velocity": 32,
                "duration": 0.20227272727272094,
                "tempo": 120.0
            },
            {
                "start_time": 45.095454545454544,
                "end_time": 45.29545454545455,
                "pitch": 69,
                "velocity": 32,
                "duration": 0.20000000000000284,
                "tempo": 120.0
            },
            {
                "start_time": 45.36363636363636,
                "end_time": 45.77954545454545,
                "pitch": 67,
                "velocity": 32,
                "duration": 0.41590909090908923,
                "tempo": 120.0
            },
            {
                "start_time": 45.89772727272727,
                "end_time": 46.0,
                "pitch": 64,
                "velocity": 32,
                "duration": 0.10227272727272663,
                "tempo": 120.0
            },
            {
                "start_time": 46.03409090909091,
                "end_time": 46.13409090909091,
                "pitch": 65,
                "velocity": 32,
                "duration": 0.10000000000000142,
                "tempo": 120.0
            },
            {
                "start_time": 46.168181818181814,
                "end_time": 46.37272727272727,
                "pitch": 67,
                "velocity": 32,
                "duration": 0.20454545454545325,
                "tempo": 120.0
            },
            {
                "start_time": 46.44090909090909,
                "end_time": 46.64090909090909,
                "pitch": 72,
                "velocity": 32,
                "duration": 0.20000000000000284,
                "tempo": 120.0
            },
            {
                "start_time": 46.709090909090904,
                "end_time": 46.90909090909091,
                "pitch": 70,
                "velocity": 32,
                "duration": 0.20000000000000284,
                "tempo": 120.0
            },
            {
                "start_time": 46.974999999999994,
                "end_time": 47.175,
                "pitch": 69,
                "velocity": 32,
                "duration": 0.20000000000000284,
                "tempo": 120.0
            },
            {
                "start_time": 47.24318181818182,
                "end_time": 47.44318181818181,
                "pitch": 67,
                "velocity": 32,
                "duration": 0.19999999999999574,
                "tempo": 120.0
            },
            {
                "start_time": 47.50909090909091,
                "end_time": 48.37045454545454,
                "pitch": 65,
                "velocity": 32,
                "duration": 0.8613636363636346,
                "tempo": 120.0
            },
            {
                "start_time": 48.58863636363636,
                "end_time": 49.445454545454545,
                "pitch": 67,
                "velocity": 32,
                "duration": 0.8568181818181841,
                "tempo": 120.0
            },
            {
                "start_time": 49.66590909090909,
                "end_time": 50.518181818181816,
                "pitch": 64,
                "velocity": 32,
                "duration": 0.8522727272727266,
                "tempo": 120.0
            },
            {
                "start_time": 50.73409090909091,
                "end_time": 51.595454545454544,
                "pitch": 62,
                "velocity": 32,
                "duration": 0.8613636363636346,
                "tempo": 120.0
            },
            {
                "start_time": 51.81363636363636,
                "end_time": 52.01363636363636,
                "pitch": 70,
                "velocity": 32,
                "duration": 0.19999999999999574,
                "tempo": 120.0
            },
            {
                "start_time": 52.07954545454545,
                "end_time": 52.28181818181818,
                "pitch": 67,
                "velocity": 32,
                "duration": 0.20227272727272805,
                "tempo": 120.0
            },
            {
                "start_time": 52.34772727272727,
                "end_time": 52.55227272727272,
                "pitch": 76,
                "velocity": 32,
                "duration": 0.20454545454545325,
                "tempo": 120.0
            },
            {
                "start_time": 52.62045454545454,
                "end_time": 52.82272727272727,
                "pitch": 74,
                "velocity": 32,
                "duration": 0.20227272727272805,
                "tempo": 120.0
            },
            {
                "start_time": 52.89090909090909,
                "end_time": 53.09318181818182,
                "pitch": 69,
                "velocity": 32,
                "duration": 0.20227272727272805,
                "tempo": 120.0
            },
            {
                "start_time": 53.15909090909091,
                "end_time": 53.35909090909091,
                "pitch": 65,
                "velocity": 32,
                "duration": 0.20000000000000284,
                "tempo": 120.0
            },
            {
                "start_time": 53.42727272727272,
                "end_time": 53.627272727272725,
                "pitch": 74,
                "velocity": 32,
                "duration": 0.20000000000000284,
                "tempo": 120.0
            },
            {
                "start_time": 53.69318181818181,
                "end_time": 53.893181818181816,
                "pitch": 72,
                "velocity": 32,
                "duration": 0.20000000000000284,
                "tempo": 120.0
            },
            {
                "start_time": 53.961363636363636,
                "end_time": 54.163636363636364,
                "pitch": 67,
                "velocity": 32,
                "duration": 0.20227272727272805,
                "tempo": 120.0
            },
            {
                "start_time": 54.23181818181818,
                "end_time": 54.43636363636363,
                "pitch": 61,
                "velocity": 32,
                "duration": 0.20454545454545325,
                "tempo": 120.0
            },
            {
                "start_time": 54.50454545454545,
                "end_time": 54.70454545454545,
                "pitch": 74,
                "velocity": 32,
                "duration": 0.20000000000000284,
                "tempo": 120.0
            },
            {
                "start_time": 54.77272727272727,
                "end_time": 54.97272727272727,
                "pitch": 64,
                "velocity": 32,
                "duration": 0.19999999999999574,
                "tempo": 120.0
            },
            {
                "start_time": 55.038636363636364,
                "end_time": 55.23863636363636,
                "pitch": 65,
                "velocity": 32,
                "duration": 0.19999999999999574,
                "tempo": 120.0
            },
            {
                "start_time": 55.30681818181818,
                "end_time": 55.506818181818176,
                "pitch": 62,
                "velocity": 32,
                "duration": 0.19999999999999574,
                "tempo": 120.0
            },
            {
                "start_time": 55.57272727272727,
                "end_time": 55.777272727272724,
                "pitch": 67,
                "velocity": 32,
                "duration": 0.20454545454545325,
                "tempo": 120.0
            },
            {
                "start_time": 55.845454545454544,
                "end_time": 56.05,
                "pitch": 65,
                "velocity": 32,
                "duration": 0.20454545454545325,
                "tempo": 120.0
            },
            {
                "start_time": 56.11818181818182,
                "end_time": 56.31818181818181,
                "pitch": 64,
                "velocity": 32,
                "duration": 0.19999999999999574,
                "tempo": 120.0
            },
            {
                "start_time": 56.38409090909091,
                "end_time": 56.584090909090904,
                "pitch": 55,
                "velocity": 32,
                "duration": 0.19999999999999574,
                "tempo": 120.0
            },
            {
                "start_time": 56.652272727272724,
                "end_time": 56.85454545454545,
                "pitch": 61,
                "velocity": 32,
                "duration": 0.20227272727272805,
                "tempo": 120.0
            },
            {
                "start_time": 56.92272727272727,
                "end_time": 57.127272727272725,
                "pitch": 64,
                "velocity": 32,
                "duration": 0.20454545454545325,
                "tempo": 120.0
            },
            {
                "start_time": 57.195454545454545,
                "end_time": 57.62045454545454,
                "pitch": 67,
                "velocity": 32,
                "duration": 0.42499999999999716,
                "tempo": 120.0
            },
            {
                "start_time": 57.73863636363636,
                "end_time": 58.15681818181818,
                "pitch": 65,
                "velocity": 32,
                "duration": 0.41818181818182154,
                "tempo": 120.0
            },
            {
                "start_time": 58.275,
                "end_time": 59.12272727272727,
                "pitch": 67,
                "velocity": 32,
                "duration": 0.8477272727272691,
                "tempo": 120.0
            },
            {
                "start_time": 59.34318181818182,
                "end_time": 60.195454545454545,
                "pitch": 64,
                "velocity": 32,
                "duration": 0.8522727272727266,
                "tempo": 120.0
            },
            {
                "start_time": 60.41136363636363,
                "end_time": 60.615909090909085,
                "pitch": 62,
                "velocity": 32,
                "duration": 0.20454545454545325,
                "tempo": 120.0
            },
            {
                "start_time": 60.684090909090905,
                "end_time": 60.88863636363636,
                "pitch": 65,
                "velocity": 32,
                "duration": 0.20454545454545325,
                "tempo": 120.0
            },
            {
                "start_time": 60.95681818181818,
                "end_time": 61.15681818181818,
                "pitch": 69,
                "velocity": 32,
                "duration": 0.20000000000000284,
                "tempo": 120.0
            },
            {
                "start_time": 61.22272727272727,
                "end_time": 61.42272727272727,
                "pitch": 65,
                "velocity": 32,
                "duration": 0.20000000000000284,
                "tempo": 120.0
            },
            {
                "start_time": 61.490909090909085,
                "end_time": 61.69090909090909,
                "pitch": 62,
                "velocity": 32,
                "duration": 0.20000000000000284,
                "tempo": 120.0
            },
            {
                "start_time": 61.756818181818176,
                "end_time": 61.95681818181818,
                "pitch": 65,
                "velocity": 32,
                "duration": 0.20000000000000284,
                "tempo": 120.0
            },
            {
                "start_time": 62.025,
                "end_time": 62.22954545454545,
                "pitch": 70,
                "velocity": 32,
                "duration": 0.20454545454545325,
                "tempo": 120.0
            },
            {
                "start_time": 62.29545454545454,
                "end_time": 62.5,
                "pitch": 65,
                "velocity": 32,
                "duration": 0.20454545454546036,
                "tempo": 120.0
            },
            {
                "start_time": 62.56818181818181,
                "end_time": 62.768181818181816,
                "pitch": 64,
                "velocity": 32,
                "duration": 0.20000000000000284,
                "tempo": 120.0
            },
            {
                "start_time": 62.836363636363636,
                "end_time": 63.03636363636363,
                "pitch": 67,
                "velocity": 32,
                "duration": 0.19999999999999574,
                "tempo": 120.0
            },
            {
                "start_time": 63.10227272727273,
                "end_time": 63.30227272727272,
                "pitch": 72,
                "velocity": 32,
                "duration": 0.19999999999999574,
                "tempo": 120.0
            },
            {
                "start_time": 63.37045454545454,
                "end_time": 63.570454545454545,
                "pitch": 67,
                "velocity": 32,
                "duration": 0.20000000000000284,
                "tempo": 120.0
            },
            {
                "start_time": 63.63636363636363,
                "end_time": 63.840909090909086,
                "pitch": 74,
                "velocity": 32,
                "duration": 0.20454545454545325,
                "tempo": 120.0
            },
            {
                "start_time": 63.90909090909091,
                "end_time": 64.11363636363636,
                "pitch": 69,
                "velocity": 32,
                "duration": 0.20454545454545325,
                "tempo": 120.0
            },
            {
                "start_time": 64.18181818181817,
                "end_time": 64.38181818181818,
                "pitch": 65,
                "velocity": 32,
                "duration": 0.20000000000000284,
                "tempo": 120.0
            },
            {
                "start_time": 64.44772727272726,
                "end_time": 64.64772727272727,
                "pitch": 64,
                "velocity": 32,
                "duration": 0.20000000000000284,
                "tempo": 120.0
            },
            {
                "start_time": 64.7159090909091,
                "end_time": 64.91590909090908,
                "pitch": 62,
                "velocity": 32,
                "duration": 0.19999999999998863,
                "tempo": 120.0
            },
            {
                "start_time": 64.98181818181818,
                "end_time": 65.18409090909091,
                "pitch": 64,
                "velocity": 32,
                "duration": 0.20227272727272805,
                "tempo": 120.0
            },
            {
                "start_time": 65.25,
                "end_time": 65.45454545454545,
                "pitch": 65,
                "velocity": 32,
                "duration": 0.20454545454545325,
                "tempo": 120.0
            },
            {
                "start_time": 65.52272727272727,
                "end_time": 65.725,
                "pitch": 67,
                "velocity": 32,
                "duration": 0.20227272727272805,
                "tempo": 120.0
            },
            {
                "start_time": 65.79318181818182,
                "end_time": 65.99318181818181,
                "pitch": 64,
                "velocity": 32,
                "duration": 0.19999999999998863,
                "tempo": 120.0
            },
            {
                "start_time": 66.06136363636364,
                "end_time": 66.26136363636364,
                "pitch": 65,
                "velocity": 32,
                "duration": 0.20000000000000284,
                "tempo": 120.0
            },
            {
                "start_time": 66.32727272727273,
                "end_time": 66.52954545454546,
                "pitch": 67,
                "velocity": 32,
                "duration": 0.20227272727272805,
                "tempo": 120.0
            },
            {
                "start_time": 66.59545454545454,
                "end_time": 66.79545454545455,
                "pitch": 69,
                "velocity": 32,
                "duration": 0.20000000000000284,
                "tempo": 120.0
            },
            {
                "start_time": 66.86363636363636,
                "end_time": 67.28863636363636,
                "pitch": 67,
                "velocity": 32,
                "duration": 0.42499999999999716,
                "tempo": 120.0
            },
            {
                "start_time": 67.67954545454545,
                "end_time": 67.77954545454546,
                "pitch": 69,
                "velocity": 32,
                "duration": 0.10000000000000853,
                "tempo": 120.0
            },
            {
                "start_time": 67.81363636363636,
                "end_time": 67.91590909090908,
                "pitch": 67,
                "velocity": 32,
                "duration": 0.10227272727271952,
                "tempo": 120.0
            },
            {
                "start_time": 67.95,
                "end_time": 68.79772727272727,
                "pitch": 66,
                "velocity": 32,
                "duration": 0.8477272727272691,
                "tempo": 120.0
            }
        ]
    }
}