{
    "track_id": "Space Harrier 3-D (FM) - 13 - Goderni",
    "mood": "angry",
    "instruments": {
        "Lead 2 (sawtooth)": [
            {
                "start_time": 0.0,
                "end_time": 0.05454545454545454,
                "pitch": 76,
                "velocity": 16,
                "duration": 0.05454545454545454,
                "tempo": 120.0
            },
            {
                "start_time": 0.09999999999999999,
                "end_time": 0.17727272727272728,
                "pitch": 76,
                "velocity": 16,
                "duration": 0.07727272727272728,
                "tempo": 120.0
            },
            {
                "start_time": 0.18863636363636363,
                "end_time": 0.2659090909090909,
                "pitch": 76,
                "velocity": 20,
                "duration": 0.07727272727272724,
                "tempo": 120.0
            },
            {
                "start_time": 0.28863636363636364,
                "end_time": 0.3659090909090909,
                "pitch": 76,
                "velocity": 25,
                "duration": 0.07727272727272727,
                "tempo": 120.0
            },
            {
                "start_time": 0.3840909090909091,
                "end_time": 0.5022727272727272,
                "pitch": 76,
                "velocity": 32,
                "duration": 0.11818181818181811,
                "tempo": 120.0
            },
            {
                "start_time": 0.5681818181818181,
                "end_time": 0.6863636363636363,
                "pitch": 76,
                "velocity": 40,
                "duration": 0.11818181818181817,
                "tempo": 120.0
            },
            {
                "start_time": 0.7022727272727273,
                "end_time": 0.8204545454545454,
                "pitch": 76,
                "velocity": 51,
                "duration": 0.11818181818181817,
                "tempo": 120.0
            },
            {
                "start_time": 0.8545454545454545,
                "end_time": 0.9727272727272727,
                "pitch": 76,
                "velocity": 64,
                "duration": 0.11818181818181817,
                "tempo": 120.0
            },
            {
                "start_time": 0.9886363636363635,
                "end_time": 2.1795454545454542,
                "pitch": 76,
                "velocity": 80,
                "duration": 1.1909090909090907,
                "tempo": 120.0
            },
            {
                "start_time": 2.1954545454545453,
                "end_time": 7.002272727272727,
                "pitch": 76,
                "velocity": 101,
                "duration": 4.806818181818182,
                "tempo": 120.0
            },
            {
                "start_time": 7.0204545454545455,
                "end_time": 9.409090909090908,
                "pitch": 76,
                "velocity": 101,
                "duration": 2.388636363636363,
                "tempo": 120.0
            },
            {
                "start_time": 9.424999999999999,
                "end_time": 9.543181818181818,
                "pitch": 76,
                "velocity": 101,
                "duration": 0.11818181818181905,
                "tempo": 120.0
            },
            {
                "start_time": 9.611363636363636,
                "end_time": 9.729545454545454,
                "pitch": 76,
                "velocity": 16,
                "duration": 0.11818181818181728,
                "tempo": 120.0
            },
            {
                "start_time": 9.745454545454544,
                "end_time": 9.863636363636363,
                "pitch": 76,
                "velocity": 20,
                "duration": 0.11818181818181905,
                "tempo": 120.0
            },
            {
                "start_time": 9.897727272727272,
                "end_time": 10.01590909090909,
                "pitch": 76,
                "velocity": 25,
                "duration": 0.11818181818181905,
                "tempo": 120.0
            },
            {
                "start_time": 10.031818181818181,
                "end_time": 10.147727272727272,
                "pitch": 76,
                "velocity": 32,
                "duration": 0.1159090909090903,
                "tempo": 120.0
            },
            {
                "start_time": 10.21590909090909,
                "end_time": 10.331818181818182,
                "pitch": 76,
                "velocity": 40,
                "duration": 0.11590909090909207,
                "tempo": 120.0
            },
            {
                "start_time": 10.347727272727273,
                "end_time": 10.46590909090909,
                "pitch": 76,
                "velocity": 51,
                "duration": 0.11818181818181728,
                "tempo": 120.0
            },
            {
                "start_time": 10.497727272727273,
                "end_time": 10.61590909090909,
                "pitch": 76,
                "velocity": 64,
                "duration": 0.11818181818181728,
                "tempo": 120.0
            },
            {
                "start_time": 10.631818181818181,
                "end_time": 11.81590909090909,
                "pitch": 76,
                "velocity": 80,
                "duration": 1.1840909090909086,
                "tempo": 120.0
            },
            {
                "start_time": 11.831818181818182,
                "end_time": 16.627272727272725,
                "pitch": 76,
                "velocity": 101,
                "duration": 4.795454545454543,
                "tempo": 120.0
            },
            {
                "start_time": 16.643181818181816,
                "end_time": 19.045454545454543,
                "pitch": 76,
                "velocity": 101,
                "duration": 2.4022727272727273,
                "tempo": 120.0
            }
        ],
        "Acoustic Bass": [
            {
                "start_time": 0.0,
                "end_time": 0.2659090909090909,
                "pitch": 33,
                "velocity": 51,
                "duration": 0.2659090909090909,
                "tempo": 120.0
            },
            {
                "start_time": 0.28863636363636364,
                "end_time": 0.6863636363636363,
                "pitch": 40,
                "velocity": 51,
                "duration": 0.39772727272727265,
                "tempo": 120.0
            },
            {
                "start_time": 0.7022727272727273,
                "end_time": 1.2886363636363636,
                "pitch": 45,
                "velocity": 51,
                "duration": 0.5863636363636363,
                "tempo": 120.0
            },
            {
                "start_time": 1.3068181818181817,
                "end_time": 1.5727272727272728,
                "pitch": 47,
                "velocity": 51,
                "duration": 0.2659090909090911,
                "tempo": 120.0
            },
            {
                "start_time": 1.5886363636363636,
                "end_time": 1.7068181818181818,
                "pitch": 52,
                "velocity": 51,
                "duration": 0.11818181818181817,
                "tempo": 120.0
            },
            {
                "start_time": 1.775,
                "end_time": 1.893181818181818,
                "pitch": 52,
                "velocity": 51,
                "duration": 0.11818181818181817,
                "tempo": 120.0
            },
            {
                "start_time": 1.909090909090909,
                "end_time": 2.1795454545454542,
                "pitch": 47,
                "velocity": 51,
                "duration": 0.2704545454545453,
                "tempo": 120.0
            },
            {
                "start_time": 2.1954545454545453,
                "end_time": 2.634090909090909,
                "pitch": 33,
                "velocity": 51,
                "duration": 0.4386363636363635,
                "tempo": 120.0
            },
            {
                "start_time": 2.6659090909090906,
                "end_time": 3.1045454545454545,
                "pitch": 40,
                "velocity": 51,
                "duration": 0.43863636363636394,
                "tempo": 120.0
            },
            {
                "start_time": 3.120454545454545,
                "end_time": 3.7068181818181816,
                "pitch": 45,
                "velocity": 51,
                "duration": 0.5863636363636364,
                "tempo": 120.0
            },
            {
                "start_time": 4.613636363636363,
                "end_time": 5.047727272727273,
                "pitch": 33,
                "velocity": 51,
                "duration": 0.4340909090909095,
                "tempo": 120.0
            },
            {
                "start_time": 5.079545454545454,
                "end_time": 5.513636363636364,
                "pitch": 40,
                "velocity": 51,
                "duration": 0.4340909090909095,
                "tempo": 120.0
            },
            {
                "start_time": 5.529545454545454,
                "end_time": 6.11590909090909,
                "pitch": 45,
                "velocity": 51,
                "duration": 0.586363636363636,
                "tempo": 120.0
            },
            {
                "start_time": 6.134090909090909,
                "end_time": 6.402272727272727,
                "pitch": 47,
                "velocity": 51,
                "duration": 0.2681818181818185,
                "tempo": 120.0
            },
            {
                "start_time": 6.420454545454545,
                "end_time": 6.536363636363636,
                "pitch": 52,
                "velocity": 51,
                "duration": 0.11590909090909118,
                "tempo": 120.0
            },
            {
                "start_time": 6.602272727272727,
                "end_time": 6.720454545454545,
                "pitch": 52,
                "velocity": 51,
                "duration": 0.11818181818181817,
                "tempo": 120.0
            },
            {
                "start_time": 6.736363636363636,
                "end_time": 7.002272727272727,
                "pitch": 47,
                "velocity": 51,
                "duration": 0.26590909090909065,
                "tempo": 120.0
            },
            {
                "start_time": 7.0204545454545455,
                "end_time": 7.456818181818181,
                "pitch": 33,
                "velocity": 51,
                "duration": 0.4363636363636356,
                "tempo": 120.0
            },
            {
                "start_time": 7.49090909090909,
                "end_time": 7.925,
                "pitch": 40,
                "velocity": 51,
                "duration": 0.4340909090909095,
                "tempo": 120.0
            },
            {
                "start_time": 7.9431818181818175,
                "end_time": 8.525,
                "pitch": 45,
                "velocity": 51,
                "duration": 0.5818181818181829,
                "tempo": 120.0
            },
            {
                "start_time": 9.424999999999999,
                "end_time": 9.863636363636363,
                "pitch": 38,
                "velocity": 51,
                "duration": 0.4386363636363644,
                "tempo": 120.0
            },
            {
                "start_time": 9.897727272727272,
                "end_time": 10.331818181818182,
                "pitch": 45,
                "velocity": 51,
                "duration": 0.4340909090909104,
                "tempo": 120.0
            },
            {
                "start_time": 10.347727272727273,
                "end_time": 10.931818181818182,
                "pitch": 50,
                "velocity": 51,
                "duration": 0.584090909090909,
                "tempo": 120.0
            },
            {
                "start_time": 10.947727272727272,
                "end_time": 11.21590909090909,
                "pitch": 53,
                "velocity": 51,
                "duration": 0.26818181818181763,
                "tempo": 120.0
            },
            {
                "start_time": 11.23181818181818,
                "end_time": 11.347727272727273,
                "pitch": 56,
                "velocity": 51,
                "duration": 0.11590909090909207,
                "tempo": 120.0
            },
            {
                "start_time": 11.415909090909091,
                "end_time": 11.531818181818181,
                "pitch": 55,
                "velocity": 51,
                "duration": 0.1159090909090903,
                "tempo": 120.0
            },
            {
                "start_time": 11.547727272727272,
                "end_time": 11.81590909090909,
                "pitch": 53,
                "velocity": 51,
                "duration": 0.26818181818181763,
                "tempo": 120.0
            },
            {
                "start_time": 11.831818181818182,
                "end_time": 12.26590909090909,
                "pitch": 38,
                "velocity": 51,
                "duration": 0.43409090909090864,
                "tempo": 120.0
            },
            {
                "start_time": 12.297727272727272,
                "end_time": 12.73409090909091,
                "pitch": 45,
                "velocity": 51,
                "duration": 0.4363636363636374,
                "tempo": 120.0
            },
            {
                "start_time": 12.752272727272727,
                "end_time": 13.338636363636363,
                "pitch": 50,
                "velocity": 51,
                "duration": 0.586363636363636,
                "tempo": 120.0
            },
            {
                "start_time": 14.238636363636363,
                "end_time": 14.670454545454545,
                "pitch": 38,
                "velocity": 51,
                "duration": 0.43181818181818166,
                "tempo": 120.0
            },
            {
                "start_time": 14.704545454545453,
                "end_time": 15.138636363636364,
                "pitch": 45,
                "velocity": 51,
                "duration": 0.4340909090909104,
                "tempo": 120.0
            },
            {
                "start_time": 15.154545454545454,
                "end_time": 15.74090909090909,
                "pitch": 50,
                "velocity": 51,
                "duration": 0.586363636363636,
                "tempo": 120.0
            },
            {
                "start_time": 15.756818181818181,
                "end_time": 16.027272727272727,
                "pitch": 53,
                "velocity": 51,
                "duration": 0.2704545454545464,
                "tempo": 120.0
            },
            {
                "start_time": 16.043181818181818,
                "end_time": 16.161363636363635,
                "pitch": 56,
                "velocity": 51,
                "duration": 0.11818181818181728,
                "tempo": 120.0
            },
            {
                "start_time": 16.227272727272727,
                "end_time": 16.34318181818182,
                "pitch": 55,
                "velocity": 51,
                "duration": 0.11590909090909207,
                "tempo": 120.0
            },
            {
                "start_time": 16.361363636363635,
                "end_time": 16.627272727272725,
                "pitch": 53,
                "velocity": 51,
                "duration": 0.26590909090909065,
                "tempo": 120.0
            },
            {
                "start_time": 16.643181818181816,
                "end_time": 17.081818181818182,
                "pitch": 38,
                "velocity": 51,
                "duration": 0.43863636363636616,
                "tempo": 120.0
            },
            {
                "start_time": 17.11590909090909,
                "end_time": 17.552272727272726,
                "pitch": 45,
                "velocity": 51,
                "duration": 0.4363636363636374,
                "tempo": 120.0
            },
            {
                "start_time": 17.570454545454545,
                "end_time": 18.15681818181818,
                "pitch": 50,
                "velocity": 51,
                "duration": 0.586363636363636,
                "tempo": 120.0
            }
        ],
        "Flute": [
            {
                "start_time": 0.0,
                "end_time": 0.05454545454545454,
                "pitch": 81,
                "velocity": 51,
                "duration": 0.05454545454545454,
                "tempo": 120.0
            },
            {
                "start_time": 0.09999999999999999,
                "end_time": 0.17727272727272728,
                "pitch": 83,
                "velocity": 51,
                "duration": 0.07727272727272728,
                "tempo": 120.0
            },
            {
                "start_time": 0.18863636363636363,
                "end_time": 0.2659090909090909,
                "pitch": 88,
                "velocity": 51,
                "duration": 0.07727272727272724,
                "tempo": 120.0
            },
            {
                "start_time": 0.28863636363636364,
                "end_time": 0.3659090909090909,
                "pitch": 81,
                "velocity": 51,
                "duration": 0.07727272727272727,
                "tempo": 120.0
            },
            {
                "start_time": 0.3840909090909091,
                "end_time": 0.5022727272727272,
                "pitch": 83,
                "velocity": 51,
                "duration": 0.11818181818181811,
                "tempo": 120.0
            },
            {
                "start_time": 0.5681818181818181,
                "end_time": 0.6863636363636363,
                "pitch": 88,
                "velocity": 51,
                "duration": 0.11818181818181817,
                "tempo": 120.0
            },
            {
                "start_time": 0.7022727272727273,
                "end_time": 0.8204545454545454,
                "pitch": 81,
                "velocity": 51,
                "duration": 0.11818181818181817,
                "tempo": 120.0
            },
            {
                "start_time": 0.8545454545454545,
                "end_time": 0.9727272727272727,
                "pitch": 83,
                "velocity": 51,
                "duration": 0.11818181818181817,
                "tempo": 120.0
            },
            {
                "start_time": 0.9886363636363635,
                "end_time": 1.1068181818181817,
                "pitch": 88,
                "velocity": 51,
                "duration": 0.11818181818181817,
                "tempo": 120.0
            },
            {
                "start_time": 1.1727272727272726,
                "end_time": 1.2886363636363636,
                "pitch": 81,
                "velocity": 51,
                "duration": 0.11590909090909096,
                "tempo": 120.0
            },
            {
                "start_time": 1.3068181818181817,
                "end_time": 1.4227272727272726,
                "pitch": 83,
                "velocity": 51,
                "duration": 0.11590909090909096,
                "tempo": 120.0
            },
            {
                "start_time": 1.4568181818181818,
                "end_time": 1.5727272727272728,
                "pitch": 88,
                "velocity": 51,
                "duration": 0.11590909090909096,
                "tempo": 120.0
            },
            {
                "start_time": 1.5886363636363636,
                "end_time": 1.7068181818181818,
                "pitch": 81,
                "velocity": 51,
                "duration": 0.11818181818181817,
                "tempo": 120.0
            },
            {
                "start_time": 1.775,
                "end_time": 1.893181818181818,
                "pitch": 83,
                "velocity": 51,
                "duration": 0.11818181818181817,
                "tempo": 120.0
            },
            {
                "start_time": 1.909090909090909,
                "end_time": 2.0272727272727273,
                "pitch": 88,
                "velocity": 51,
                "duration": 0.11818181818181839,
                "tempo": 120.0
            },
            {
                "start_time": 2.061363636363636,
                "end_time": 2.1795454545454542,
                "pitch": 83,
                "velocity": 51,
                "duration": 0.11818181818181817,
                "tempo": 120.0
            },
            {
                "start_time": 2.1954545454545453,
                "end_time": 2.3136363636363635,
                "pitch": 81,
                "velocity": 51,
                "duration": 0.11818181818181817,
                "tempo": 120.0
            },
            {
                "start_time": 2.381818181818182,
                "end_time": 2.4977272727272726,
                "pitch": 83,
                "velocity": 51,
                "duration": 0.11590909090909074,
                "tempo": 120.0
            },
            {
                "start_time": 2.5159090909090907,
                "end_time": 2.634090909090909,
                "pitch": 88,
                "velocity": 51,
                "duration": 0.11818181818181817,
                "tempo": 120.0
            },
            {
                "start_time": 2.6659090909090906,
                "end_time": 2.784090909090909,
                "pitch": 81,
                "velocity": 51,
                "duration": 0.11818181818181861,
                "tempo": 120.0
            },
            {
                "start_time": 2.8022727272727272,
                "end_time": 2.9204545454545454,
                "pitch": 83,
                "velocity": 51,
                "duration": 0.11818181818181817,
                "tempo": 120.0
            },
            {
                "start_time": 2.9863636363636363,
                "end_time": 3.1045454545454545,
                "pitch": 88,
                "velocity": 51,
                "duration": 0.11818181818181817,
                "tempo": 120.0
            },
            {
                "start_time": 3.120454545454545,
                "end_time": 3.2386363636363633,
                "pitch": 81,
                "velocity": 51,
                "duration": 0.11818181818181817,
                "tempo": 120.0
            },
            {
                "start_time": 3.2727272727272725,
                "end_time": 3.3909090909090907,
                "pitch": 83,
                "velocity": 51,
                "duration": 0.11818181818181817,
                "tempo": 120.0
            },
            {
                "start_time": 3.4068181818181817,
                "end_time": 3.525,
                "pitch": 88,
                "velocity": 51,
                "duration": 0.11818181818181817,
                "tempo": 120.0
            },
            {
                "start_time": 3.590909090909091,
                "end_time": 3.7068181818181816,
                "pitch": 81,
                "velocity": 51,
                "duration": 0.11590909090909074,
                "tempo": 120.0
            },
            {
                "start_time": 3.7249999999999996,
                "end_time": 3.840909090909091,
                "pitch": 83,
                "velocity": 51,
                "duration": 0.11590909090909118,
                "tempo": 120.0
            },
            {
                "start_time": 3.875,
                "end_time": 3.9909090909090907,
                "pitch": 88,
                "velocity": 51,
                "duration": 0.11590909090909074,
                "tempo": 120.0
            },
            {
                "start_time": 4.006818181818182,
                "end_time": 4.125,
                "pitch": 81,
                "velocity": 51,
                "duration": 0.11818181818181817,
                "tempo": 120.0
            },
            {
                "start_time": 4.193181818181818,
                "end_time": 4.3113636363636365,
                "pitch": 83,
                "velocity": 51,
                "duration": 0.11818181818181817,
                "tempo": 120.0
            },
            {
                "start_time": 4.327272727272727,
                "end_time": 4.445454545454545,
                "pitch": 88,
                "velocity": 51,
                "duration": 0.11818181818181817,
                "tempo": 120.0
            },
            {
                "start_time": 4.4795454545454545,
                "end_time": 4.597727272727273,
                "pitch": 83,
                "velocity": 51,
                "duration": 0.11818181818181817,
                "tempo": 120.0
            },
            {
                "start_time": 4.613636363636363,
                "end_time": 4.7295454545454545,
                "pitch": 81,
                "velocity": 51,
                "duration": 0.11590909090909118,
                "tempo": 120.0
            },
            {
                "start_time": 4.797727272727273,
                "end_time": 4.913636363636363,
                "pitch": 83,
                "velocity": 51,
                "duration": 0.1159090909090903,
                "tempo": 120.0
            },
            {
                "start_time": 4.929545454545455,
                "end_time": 5.047727272727273,
                "pitch": 88,
                "velocity": 51,
                "duration": 0.11818181818181817,
                "tempo": 120.0
            },
            {
                "start_time": 5.079545454545454,
                "end_time": 5.197727272727272,
                "pitch": 81,
                "velocity": 51,
                "duration": 0.11818181818181817,
                "tempo": 120.0
            },
            {
                "start_time": 5.213636363636363,
                "end_time": 5.329545454545454,
                "pitch": 83,
                "velocity": 51,
                "duration": 0.11590909090909118,
                "tempo": 120.0
            },
            {
                "start_time": 5.3977272727272725,
                "end_time": 5.513636363636364,
                "pitch": 88,
                "velocity": 51,
                "duration": 0.11590909090909118,
                "tempo": 120.0
            },
            {
                "start_time": 5.529545454545454,
                "end_time": 5.6477272727272725,
                "pitch": 81,
                "velocity": 51,
                "duration": 0.11818181818181817,
                "tempo": 120.0
            },
            {
                "start_time": 5.679545454545455,
                "end_time": 5.797727272727273,
                "pitch": 83,
                "velocity": 51,
                "duration": 0.11818181818181817,
                "tempo": 120.0
            },
            {
                "start_time": 5.8136363636363635,
                "end_time": 5.931818181818182,
                "pitch": 88,
                "velocity": 51,
                "duration": 0.11818181818181817,
                "tempo": 120.0
            },
            {
                "start_time": 6.0,
                "end_time": 6.11590909090909,
                "pitch": 81,
                "velocity": 51,
                "duration": 0.1159090909090903,
                "tempo": 120.0
            },
            {
                "start_time": 6.134090909090909,
                "end_time": 6.252272727272727,
                "pitch": 83,
                "velocity": 51,
                "duration": 0.11818181818181817,
                "tempo": 120.0
            },
            {
                "start_time": 6.284090909090909,
                "end_time": 6.402272727272727,
                "pitch": 88,
                "velocity": 51,
                "duration": 0.11818181818181817,
                "tempo": 120.0
            },
            {
                "start_time": 6.420454545454545,
                "end_time": 6.536363636363636,
                "pitch": 81,
                "velocity": 51,
                "duration": 0.11590909090909118,
                "tempo": 120.0
            },
            {
                "start_time": 6.602272727272727,
                "end_time": 6.720454545454545,
                "pitch": 83,
                "velocity": 51,
                "duration": 0.11818181818181817,
                "tempo": 120.0
            },
            {
                "start_time": 6.736363636363636,
                "end_time": 6.852272727272727,
                "pitch": 88,
                "velocity": 51,
                "duration": 0.1159090909090903,
                "tempo": 120.0
            },
            {
                "start_time": 6.886363636363636,
                "end_time": 7.002272727272727,
                "pitch": 83,
                "velocity": 51,
                "duration": 0.11590909090909118,
                "tempo": 120.0
            },
            {
                "start_time": 7.0204545454545455,
                "end_time": 7.138636363636364,
                "pitch": 81,
                "velocity": 51,
                "duration": 0.11818181818181817,
                "tempo": 120.0
            },
            {
                "start_time": 7.204545454545454,
                "end_time": 7.322727272727272,
                "pitch": 83,
                "velocity": 51,
                "duration": 0.11818181818181817,
                "tempo": 120.0
            },
            {
                "start_time": 7.338636363636363,
                "end_time": 7.456818181818181,
                "pitch": 88,
                "velocity": 51,
                "duration": 0.11818181818181817,
                "tempo": 120.0
            },
            {
                "start_time": 7.49090909090909,
                "end_time": 7.6090909090909085,
                "pitch": 81,
                "velocity": 51,
                "duration": 0.11818181818181817,
                "tempo": 120.0
            },
            {
                "start_time": 7.625,
                "end_time": 7.743181818181818,
                "pitch": 83,
                "velocity": 51,
                "duration": 0.11818181818181817,
                "tempo": 120.0
            },
            {
                "start_time": 7.809090909090909,
                "end_time": 7.925,
                "pitch": 88,
                "velocity": 51,
                "duration": 0.11590909090909118,
                "tempo": 120.0
            },
            {
                "start_time": 7.9431818181818175,
                "end_time": 8.059090909090909,
                "pitch": 81,
                "velocity": 51,
                "duration": 0.11590909090909118,
                "tempo": 120.0
            },
            {
                "start_time": 8.093181818181817,
                "end_time": 8.209090909090909,
                "pitch": 83,
                "velocity": 51,
                "duration": 0.11590909090909207,
                "tempo": 120.0
            },
            {
                "start_time": 8.225,
                "end_time": 8.343181818181817,
                "pitch": 88,
                "velocity": 51,
                "duration": 0.11818181818181728,
                "tempo": 120.0
            },
            {
                "start_time": 8.409090909090908,
                "end_time": 8.525,
                "pitch": 81,
                "velocity": 51,
                "duration": 0.11590909090909207,
                "tempo": 120.0
            },
            {
                "start_time": 8.543181818181818,
                "end_time": 8.659090909090908,
                "pitch": 83,
                "velocity": 51,
                "duration": 0.1159090909090903,
                "tempo": 120.0
            },
            {
                "start_time": 8.693181818181818,
                "end_time": 8.809090909090909,
                "pitch": 88,
                "velocity": 51,
                "duration": 0.1159090909090903,
                "tempo": 120.0
            },
            {
                "start_time": 8.825,
                "end_time": 8.943181818181818,
                "pitch": 81,
                "velocity": 51,
                "duration": 0.11818181818181905,
                "tempo": 120.0
            },
            {
                "start_time": 9.009090909090908,
                "end_time": 9.125,
                "pitch": 83,
                "velocity": 51,
                "duration": 0.11590909090909207,
                "tempo": 120.0
            },
            {
                "start_time": 9.143181818181818,
                "end_time": 9.259090909090908,
                "pitch": 88,
                "velocity": 51,
                "duration": 0.1159090909090903,
                "tempo": 120.0
            },
            {
                "start_time": 9.293181818181818,
                "end_time": 9.409090909090908,
                "pitch": 83,
                "velocity": 51,
                "duration": 0.1159090909090903,
                "tempo": 120.0
            },
            {
                "start_time": 9.424999999999999,
                "end_time": 9.543181818181818,
                "pitch": 81,
                "velocity": 51,
                "duration": 0.11818181818181905,
                "tempo": 120.0
            },
            {
                "start_time": 9.611363636363636,
                "end_time": 9.729545454545454,
                "pitch": 86,
                "velocity": 51,
                "duration": 0.11818181818181728,
                "tempo": 120.0
            },
            {
                "start_time": 9.745454545454544,
                "end_time": 9.863636363636363,
                "pitch": 88,
                "velocity": 51,
                "duration": 0.11818181818181905,
                "tempo": 120.0
            },
            {
                "start_time": 9.897727272727272,
                "end_time": 10.01590909090909,
                "pitch": 81,
                "velocity": 51,
                "duration": 0.11818181818181905,
                "tempo": 120.0
            },
            {
                "start_time": 10.031818181818181,
                "end_time": 10.147727272727272,
                "pitch": 86,
                "velocity": 51,
                "duration": 0.1159090909090903,
                "tempo": 120.0
            },
            {
                "start_time": 10.21590909090909,
                "end_time": 10.331818181818182,
                "pitch": 88,
                "velocity": 51,
                "duration": 0.11590909090909207,
                "tempo": 120.0
            },
            {
                "start_time": 10.347727272727273,
                "end_time": 10.46590909090909,
                "pitch": 81,
                "velocity": 51,
                "duration": 0.11818181818181728,
                "tempo": 120.0
            },
            {
                "start_time": 10.497727272727273,
                "end_time": 10.61590909090909,
                "pitch": 86,
                "velocity": 51,
                "duration": 0.11818181818181728,
                "tempo": 120.0
            },
            {
                "start_time": 10.631818181818181,
                "end_time": 10.747727272727273,
                "pitch": 88,
                "velocity": 51,
                "duration": 0.11590909090909207,
                "tempo": 120.0
            },
            {
                "start_time": 10.81590909090909,
                "end_time": 10.931818181818182,
                "pitch": 81,
                "velocity": 51,
                "duration": 0.11590909090909207,
                "tempo": 120.0
            },
            {
                "start_time": 10.947727272727272,
                "end_time": 11.06590909090909,
                "pitch": 86,
                "velocity": 51,
                "duration": 0.11818181818181728,
                "tempo": 120.0
            },
            {
                "start_time": 11.097727272727273,
                "end_time": 11.21590909090909,
                "pitch": 88,
                "velocity": 51,
                "duration": 0.11818181818181728,
                "tempo": 120.0
            },
            {
                "start_time": 11.23181818181818,
                "end_time": 11.347727272727273,
                "pitch": 81,
                "velocity": 51,
                "duration": 0.11590909090909207,
                "tempo": 120.0
            },
            {
                "start_time": 11.415909090909091,
                "end_time": 11.531818181818181,
                "pitch": 86,
                "velocity": 51,
                "duration": 0.1159090909090903,
                "tempo": 120.0
            },
            {
                "start_time": 11.547727272727272,
                "end_time": 11.665909090909091,
                "pitch": 88,
                "velocity": 51,
                "duration": 0.11818181818181905,
                "tempo": 120.0
            },
            {
                "start_time": 11.697727272727272,
                "end_time": 11.81590909090909,
                "pitch": 86,
                "velocity": 51,
                "duration": 0.11818181818181728,
                "tempo": 120.0
            },
            {
                "start_time": 11.831818181818182,
                "end_time": 11.947727272727272,
                "pitch": 81,
                "velocity": 51,
                "duration": 0.1159090909090903,
                "tempo": 120.0
            },
            {
                "start_time": 12.01590909090909,
                "end_time": 12.131818181818181,
                "pitch": 86,
                "velocity": 51,
                "duration": 0.1159090909090903,
                "tempo": 120.0
            },
            {
                "start_time": 12.147727272727272,
                "end_time": 12.26590909090909,
                "pitch": 88,
                "velocity": 51,
                "duration": 0.11818181818181905,
                "tempo": 120.0
            },
            {
                "start_time": 12.297727272727272,
                "end_time": 12.415909090909091,
                "pitch": 81,
                "velocity": 51,
                "duration": 0.11818181818181905,
                "tempo": 120.0
            },
            {
                "start_time": 12.431818181818182,
                "end_time": 12.549999999999999,
                "pitch": 86,
                "velocity": 51,
                "duration": 0.11818181818181728,
                "tempo": 120.0
            },
            {
                "start_time": 12.618181818181817,
                "end_time": 12.73409090909091,
                "pitch": 88,
                "velocity": 51,
                "duration": 0.11590909090909207,
                "tempo": 120.0
            },
            {
                "start_time": 12.752272727272727,
                "end_time": 12.870454545454544,
                "pitch": 81,
                "velocity": 51,
                "duration": 0.11818181818181728,
                "tempo": 120.0
            },
            {
                "start_time": 12.902272727272727,
                "end_time": 13.020454545454545,
                "pitch": 86,
                "velocity": 51,
                "duration": 0.11818181818181728,
                "tempo": 120.0
            },
            {
                "start_time": 13.038636363636362,
                "end_time": 13.154545454545454,
                "pitch": 88,
                "velocity": 51,
                "duration": 0.11590909090909207,
                "tempo": 120.0
            },
            {
                "start_time": 13.220454545454546,
                "end_time": 13.338636363636363,
                "pitch": 81,
                "velocity": 51,
                "duration": 0.11818181818181728,
                "tempo": 120.0
            },
            {
                "start_time": 13.354545454545454,
                "end_time": 13.470454545454546,
                "pitch": 86,
                "velocity": 51,
                "duration": 0.11590909090909207,
                "tempo": 120.0
            },
            {
                "start_time": 13.504545454545454,
                "end_time": 13.620454545454544,
                "pitch": 88,
                "velocity": 51,
                "duration": 0.1159090909090903,
                "tempo": 120.0
            },
            {
                "start_time": 13.638636363636364,
                "end_time": 13.754545454545454,
                "pitch": 81,
                "velocity": 51,
                "duration": 0.1159090909090903,
                "tempo": 120.0
            },
            {
                "start_time": 13.820454545454545,
                "end_time": 13.938636363636363,
                "pitch": 86,
                "velocity": 51,
                "duration": 0.11818181818181728,
                "tempo": 120.0
            },
            {
                "start_time": 13.954545454545453,
                "end_time": 14.070454545454545,
                "pitch": 88,
                "velocity": 51,
                "duration": 0.11590909090909207,
                "tempo": 120.0
            },
            {
                "start_time": 14.104545454545454,
                "end_time": 14.220454545454544,
                "pitch": 86,
                "velocity": 51,
                "duration": 0.1159090909090903,
                "tempo": 120.0
            },
            {
                "start_time": 14.238636363636363,
                "end_time": 14.354545454545454,
                "pitch": 81,
                "velocity": 51,
                "duration": 0.1159090909090903,
                "tempo": 120.0
            },
            {
                "start_time": 14.420454545454545,
                "end_time": 14.538636363636362,
                "pitch": 86,
                "velocity": 51,
                "duration": 0.11818181818181728,
                "tempo": 120.0
            },
            {
                "start_time": 14.554545454545455,
                "end_time": 14.670454545454545,
                "pitch": 88,
                "velocity": 51,
                "duration": 0.1159090909090903,
                "tempo": 120.0
            },
            {
                "start_time": 14.704545454545453,
                "end_time": 14.820454545454545,
                "pitch": 81,
                "velocity": 51,
                "duration": 0.11590909090909207,
                "tempo": 120.0
            },
            {
                "start_time": 14.838636363636363,
                "end_time": 14.954545454545453,
                "pitch": 86,
                "velocity": 51,
                "duration": 0.1159090909090903,
                "tempo": 120.0
            },
            {
                "start_time": 15.020454545454545,
                "end_time": 15.138636363636364,
                "pitch": 88,
                "velocity": 51,
                "duration": 0.11818181818181905,
                "tempo": 120.0
            },
            {
                "start_time": 15.154545454545454,
                "end_time": 15.270454545454545,
                "pitch": 81,
                "velocity": 51,
                "duration": 0.1159090909090903,
                "tempo": 120.0
            },
            {
                "start_time": 15.304545454545455,
                "end_time": 15.420454545454545,
                "pitch": 86,
                "velocity": 51,
                "duration": 0.1159090909090903,
                "tempo": 120.0
            },
            {
                "start_time": 15.438636363636363,
                "end_time": 15.556818181818182,
                "pitch": 88,
                "velocity": 51,
                "duration": 0.11818181818181905,
                "tempo": 120.0
            },
            {
                "start_time": 15.622727272727271,
                "end_time": 15.74090909090909,
                "pitch": 81,
                "velocity": 51,
                "duration": 0.11818181818181905,
                "tempo": 120.0
            },
            {
                "start_time": 15.756818181818181,
                "end_time": 15.875,
                "pitch": 86,
                "velocity": 51,
                "duration": 0.11818181818181905,
                "tempo": 120.0
            },
            {
                "start_time": 15.909090909090908,
                "end_time": 16.027272727272727,
                "pitch": 88,
                "velocity": 51,
                "duration": 0.11818181818181905,
                "tempo": 120.0
            },
            {
                "start_time": 16.043181818181818,
                "end_time": 16.161363636363635,
                "pitch": 81,
                "velocity": 51,
                "duration": 0.11818181818181728,
                "tempo": 120.0
            },
            {
                "start_time": 16.227272727272727,
                "end_time": 16.34318181818182,
                "pitch": 86,
                "velocity": 51,
                "duration": 0.11590909090909207,
                "tempo": 120.0
            },
            {
                "start_time": 16.361363636363635,
                "end_time": 16.477272727272727,
                "pitch": 88,
                "velocity": 51,
                "duration": 0.11590909090909207,
                "tempo": 120.0
            },
            {
                "start_time": 16.511363636363637,
                "end_time": 16.627272727272725,
                "pitch": 86,
                "velocity": 51,
                "duration": 0.11590909090908852,
                "tempo": 120.0
            },
            {
                "start_time": 16.643181818181816,
                "end_time": 16.761363636363637,
                "pitch": 81,
                "velocity": 51,
                "duration": 0.11818181818182083,
                "tempo": 120.0
            },
            {
                "start_time": 16.829545454545453,
                "end_time": 16.94772727272727,
                "pitch": 86,
                "velocity": 51,
                "duration": 0.11818181818181728,
                "tempo": 120.0
            },
            {
                "start_time": 16.96363636363636,
                "end_time": 17.081818181818182,
                "pitch": 88,
                "velocity": 51,
                "duration": 0.11818181818182083,
                "tempo": 120.0
            },
            {
                "start_time": 17.11590909090909,
                "end_time": 17.23409090909091,
                "pitch": 81,
                "velocity": 51,
                "duration": 0.11818181818182083,
                "tempo": 120.0
            },
            {
                "start_time": 17.25,
                "end_time": 17.368181818181817,
                "pitch": 86,
                "velocity": 51,
                "duration": 0.11818181818181728,
                "tempo": 120.0
            },
            {
                "start_time": 17.436363636363634,
                "end_time": 17.552272727272726,
                "pitch": 88,
                "velocity": 51,
                "duration": 0.11590909090909207,
                "tempo": 120.0
            },
            {
                "start_time": 17.570454545454545,
                "end_time": 17.688636363636363,
                "pitch": 81,
                "velocity": 51,
                "duration": 0.11818181818181728,
                "tempo": 120.0
            },
            {
                "start_time": 17.720454545454544,
                "end_time": 17.83863636363636,
                "pitch": 86,
                "velocity": 51,
                "duration": 0.11818181818181728,
                "tempo": 120.0
            },
            {
                "start_time": 17.85681818181818,
                "end_time": 17.972727272727273,
                "pitch": 88,
                "velocity": 51,
                "duration": 0.11590909090909207,
                "tempo": 120.0
            },
            {
                "start_time": 18.038636363636364,
                "end_time": 18.15681818181818,
                "pitch": 81,
                "velocity": 51,
                "duration": 0.11818181818181728,
                "tempo": 120.0
            },
            {
                "start_time": 18.172727272727272,
                "end_time": 18.288636363636364,
                "pitch": 86,
                "velocity": 51,
                "duration": 0.11590909090909207,
                "tempo": 120.0
            },
            {
                "start_time": 18.32272727272727,
                "end_time": 18.438636363636363,
                "pitch": 88,
                "velocity": 51,
                "duration": 0.11590909090909207,
                "tempo": 120.0
            },
            {
                "start_time": 18.456818181818182,
                "end_time": 18.575,
                "pitch": 81,
                "velocity": 51,
                "duration": 0.11818181818181728,
                "tempo": 120.0
            },
            {
                "start_time": 18.64090909090909,
                "end_time": 18.759090909090908,
                "pitch": 86,
                "velocity": 51,
                "duration": 0.11818181818181728,
                "tempo": 120.0
            },
            {
                "start_time": 18.775,
                "end_time": 18.893181818181816,
                "pitch": 88,
                "velocity": 51,
                "duration": 0.11818181818181728,
                "tempo": 120.0
            },
            {
                "start_time": 18.927272727272726,
                "end_time": 19.045454545454543,
                "pitch": 86,
                "velocity": 51,
                "duration": 0.11818181818181728,
                "tempo": 120.0
            }
        ],
        "Acoustic Grand Piano": [
            {
                "start_time": 0.0,
                "end_time": 0.022727272727272728,
                "pitch": 76,
                "velocity": 32,
                "duration": 0.022727272727272728,
                "tempo": 120.0
            },
            {
                "start_time": 0.022727272727272728,
                "end_time": 0.31136363636363634,
                "pitch": 45,
                "velocity": 32,
                "duration": 0.28863636363636364,
                "tempo": 120.0
            },
            {
                "start_time": 0.3227272727272727,
                "end_time": 0.7022727272727273,
                "pitch": 52,
                "velocity": 32,
                "duration": 0.3795454545454546,
                "tempo": 120.0
            },
            {
                "start_time": 0.7704545454545454,
                "end_time": 1.3068181818181817,
                "pitch": 57,
                "velocity": 32,
                "duration": 0.5363636363636363,
                "tempo": 120.0
            },
            {
                "start_time": 1.3727272727272726,
                "end_time": 1.6227272727272726,
                "pitch": 59,
                "velocity": 32,
                "duration": 0.25,
                "tempo": 120.0
            },
            {
                "start_time": 1.6568181818181817,
                "end_time": 1.775,
                "pitch": 64,
                "velocity": 32,
                "duration": 0.11818181818181817,
                "tempo": 120.0
            },
            {
                "start_time": 1.7909090909090908,
                "end_time": 1.909090909090909,
                "pitch": 64,
                "velocity": 32,
                "duration": 0.11818181818181817,
                "tempo": 120.0
            },
            {
                "start_time": 1.977272727272727,
                "end_time": 2.2295454545454545,
                "pitch": 59,
                "velocity": 32,
                "duration": 0.2522727272727274,
                "tempo": 120.0
            },
            {
                "start_time": 2.2636363636363637,
                "end_time": 2.6999999999999997,
                "pitch": 45,
                "velocity": 32,
                "duration": 0.43636363636363606,
                "tempo": 120.0
            },
            {
                "start_time": 2.7181818181818183,
                "end_time": 3.120454545454545,
                "pitch": 52,
                "velocity": 32,
                "duration": 0.4022727272727269,
                "tempo": 120.0
            },
            {
                "start_time": 3.1886363636363635,
                "end_time": 3.7249999999999996,
                "pitch": 57,
                "velocity": 32,
                "duration": 0.5363636363636362,
                "tempo": 120.0
            },
            {
                "start_time": 4.679545454545455,
                "end_time": 5.113636363636363,
                "pitch": 45,
                "velocity": 32,
                "duration": 0.43409090909090864,
                "tempo": 120.0
            },
            {
                "start_time": 5.129545454545454,
                "end_time": 5.529545454545454,
                "pitch": 52,
                "velocity": 32,
                "duration": 0.40000000000000036,
                "tempo": 120.0
            },
            {
                "start_time": 5.597727272727273,
                "end_time": 6.134090909090909,
                "pitch": 57,
                "velocity": 32,
                "duration": 0.5363636363636362,
                "tempo": 120.0
            },
            {
                "start_time": 6.199999999999999,
                "end_time": 6.452272727272727,
                "pitch": 59,
                "velocity": 32,
                "duration": 0.25227272727272787,
                "tempo": 120.0
            },
            {
                "start_time": 6.486363636363636,
                "end_time": 6.602272727272727,
                "pitch": 64,
                "velocity": 32,
                "duration": 0.1159090909090903,
                "tempo": 120.0
            },
            {
                "start_time": 6.620454545454545,
                "end_time": 6.736363636363636,
                "pitch": 64,
                "velocity": 32,
                "duration": 0.11590909090909118,
                "tempo": 120.0
            },
            {
                "start_time": 6.802272727272727,
                "end_time": 7.054545454545454,
                "pitch": 59,
                "velocity": 32,
                "duration": 0.252272727272727,
                "tempo": 120.0
            },
            {
                "start_time": 7.086363636363636,
                "end_time": 7.5249999999999995,
                "pitch": 45,
                "velocity": 32,
                "duration": 0.4386363636363635,
                "tempo": 120.0
            },
            {
                "start_time": 7.54090909090909,
                "end_time": 7.9431818181818175,
                "pitch": 52,
                "velocity": 32,
                "duration": 0.40227272727272734,
                "tempo": 120.0
            },
            {
                "start_time": 8.009090909090908,
                "end_time": 8.543181818181818,
                "pitch": 57,
                "velocity": 32,
                "duration": 0.5340909090909101,
                "tempo": 120.0
            },
            {
                "start_time": 9.493181818181817,
                "end_time": 9.931818181818182,
                "pitch": 50,
                "velocity": 32,
                "duration": 0.4386363636363644,
                "tempo": 120.0
            },
            {
                "start_time": 9.947727272727272,
                "end_time": 10.347727272727273,
                "pitch": 57,
                "velocity": 32,
                "duration": 0.40000000000000036,
                "tempo": 120.0
            },
            {
                "start_time": 10.415909090909091,
                "end_time": 10.947727272727272,
                "pitch": 62,
                "velocity": 32,
                "duration": 0.5318181818181813,
                "tempo": 120.0
            },
            {
                "start_time": 11.01590909090909,
                "end_time": 11.26590909090909,
                "pitch": 65,
                "velocity": 32,
                "duration": 0.25,
                "tempo": 120.0
            },
            {
                "start_time": 11.297727272727272,
                "end_time": 11.415909090909091,
                "pitch": 68,
                "velocity": 32,
                "duration": 0.11818181818181905,
                "tempo": 120.0
            },
            {
                "start_time": 11.431818181818182,
                "end_time": 11.547727272727272,
                "pitch": 67,
                "velocity": 32,
                "duration": 0.1159090909090903,
                "tempo": 120.0
            },
            {
                "start_time": 11.61590909090909,
                "end_time": 11.86590909090909,
                "pitch": 65,
                "velocity": 32,
                "duration": 0.25,
                "tempo": 120.0
            },
            {
                "start_time": 11.897727272727272,
                "end_time": 12.331818181818182,
                "pitch": 50,
                "velocity": 32,
                "duration": 0.4340909090909104,
                "tempo": 120.0
            },
            {
                "start_time": 12.347727272727273,
                "end_time": 12.752272727272727,
                "pitch": 57,
                "velocity": 32,
                "duration": 0.4045454545454543,
                "tempo": 120.0
            },
            {
                "start_time": 12.818181818181818,
                "end_time": 13.354545454545454,
                "pitch": 62,
                "velocity": 32,
                "duration": 0.5363636363636353,
                "tempo": 120.0
            },
            {
                "start_time": 14.304545454545455,
                "end_time": 14.738636363636363,
                "pitch": 50,
                "velocity": 32,
                "duration": 0.43409090909090864,
                "tempo": 120.0
            },
            {
                "start_time": 14.754545454545454,
                "end_time": 15.154545454545454,
                "pitch": 57,
                "velocity": 32,
                "duration": 0.40000000000000036,
                "tempo": 120.0
            },
            {
                "start_time": 15.220454545454544,
                "end_time": 15.756818181818181,
                "pitch": 62,
                "velocity": 32,
                "duration": 0.536363636363637,
                "tempo": 120.0
            },
            {
                "start_time": 15.825,
                "end_time": 16.077272727272728,
                "pitch": 65,
                "velocity": 32,
                "duration": 0.25227272727272876,
                "tempo": 120.0
            },
            {
                "start_time": 16.111363636363635,
                "end_time": 16.227272727272727,
                "pitch": 68,
                "velocity": 32,
                "duration": 0.11590909090909207,
                "tempo": 120.0
            },
            {
                "start_time": 16.243181818181817,
                "end_time": 16.361363636363635,
                "pitch": 67,
                "velocity": 32,
                "duration": 0.11818181818181728,
                "tempo": 120.0
            },
            {
                "start_time": 16.427272727272726,
                "end_time": 16.677272727272726,
                "pitch": 65,
                "velocity": 32,
                "duration": 0.25,
                "tempo": 120.0
            },
            {
                "start_time": 16.711363636363636,
                "end_time": 17.15,
                "pitch": 50,
                "velocity": 32,
                "duration": 0.4386363636363626,
                "tempo": 120.0
            },
            {
                "start_time": 17.16590909090909,
                "end_time": 17.570454545454545,
                "pitch": 57,
                "velocity": 32,
                "duration": 0.4045454545454561,
                "tempo": 120.0
            },
            {
                "start_time": 17.636363636363637,
                "end_time": 18.172727272727272,
                "pitch": 62,
                "velocity": 32,
                "duration": 0.5363636363636353,
                "tempo": 120.0
            }
        ]
    }
}