{
    "track_id": "Space Harrier 3-D (FM) - 04 - Stanley",
    "mood": "angry",
    "instruments": {
        "Lead 2 (sawtooth)": [
            {
                "start_time": 0.0,
                "end_time": 0.5863636363636363,
                "pitch": 63,
                "velocity": 101,
                "duration": 0.5863636363636363,
                "tempo": 120.0
            },
            {
                "start_time": 0.6181818181818182,
                "end_time": 2.3863636363636362,
                "pitch": 66,
                "velocity": 101,
                "duration": 1.768181818181818,
                "tempo": 120.0
            },
            {
                "start_time": 3.215909090909091,
                "end_time": 3.7840909090909087,
                "pitch": 66,
                "velocity": 101,
                "duration": 0.5681818181818179,
                "tempo": 120.0
            },
            {
                "start_time": 3.815909090909091,
                "end_time": 5.588636363636363,
                "pitch": 65,
                "velocity": 101,
                "duration": 1.772727272727272,
                "tempo": 120.0
            },
            {
                "start_time": 6.425,
                "end_time": 6.993181818181818,
                "pitch": 65,
                "velocity": 101,
                "duration": 0.5681818181818183,
                "tempo": 120.0
            },
            {
                "start_time": 7.027272727272727,
                "end_time": 8.799999999999999,
                "pitch": 64,
                "velocity": 101,
                "duration": 1.7727272727272716,
                "tempo": 120.0
            },
            {
                "start_time": 9.64090909090909,
                "end_time": 10.206818181818182,
                "pitch": 61,
                "velocity": 101,
                "duration": 0.5659090909090914,
                "tempo": 120.0
            },
            {
                "start_time": 10.24090909090909,
                "end_time": 12.018181818181818,
                "pitch": 63,
                "velocity": 101,
                "duration": 1.7772727272727273,
                "tempo": 120.0
            }
        ],
        "Acoustic Bass": [
            {
                "start_time": 0.0,
                "end_time": 0.19999999999999998,
                "pitch": 44,
                "velocity": 80,
                "duration": 0.19999999999999998,
                "tempo": 120.0
            },
            {
                "start_time": 0.2159090909090909,
                "end_time": 0.3840909090909091,
                "pitch": 44,
                "velocity": 80,
                "duration": 0.16818181818181818,
                "tempo": 120.0
            },
            {
                "start_time": 1.218181818181818,
                "end_time": 1.3886363636363637,
                "pitch": 44,
                "velocity": 80,
                "duration": 0.17045454545454564,
                "tempo": 120.0
            },
            {
                "start_time": 1.4204545454545454,
                "end_time": 1.584090909090909,
                "pitch": 44,
                "velocity": 80,
                "duration": 0.16363636363636358,
                "tempo": 120.0
            },
            {
                "start_time": 3.215909090909091,
                "end_time": 3.384090909090909,
                "pitch": 44,
                "velocity": 80,
                "duration": 0.168181818181818,
                "tempo": 120.0
            },
            {
                "start_time": 3.4159090909090906,
                "end_time": 3.584090909090909,
                "pitch": 44,
                "velocity": 80,
                "duration": 0.16818181818181843,
                "tempo": 120.0
            },
            {
                "start_time": 4.415909090909091,
                "end_time": 4.584090909090909,
                "pitch": 44,
                "velocity": 80,
                "duration": 0.168181818181818,
                "tempo": 120.0
            },
            {
                "start_time": 4.618181818181818,
                "end_time": 4.784090909090909,
                "pitch": 44,
                "velocity": 80,
                "duration": 0.165909090909091,
                "tempo": 120.0
            },
            {
                "start_time": 6.425,
                "end_time": 6.590909090909091,
                "pitch": 44,
                "velocity": 80,
                "duration": 0.165909090909091,
                "tempo": 120.0
            },
            {
                "start_time": 6.625,
                "end_time": 6.793181818181818,
                "pitch": 44,
                "velocity": 80,
                "duration": 0.168181818181818,
                "tempo": 120.0
            },
            {
                "start_time": 7.629545454545454,
                "end_time": 7.797727272727272,
                "pitch": 44,
                "velocity": 80,
                "duration": 0.168181818181818,
                "tempo": 120.0
            },
            {
                "start_time": 7.829545454545454,
                "end_time": 7.997727272727272,
                "pitch": 44,
                "velocity": 80,
                "duration": 0.168181818181818,
                "tempo": 120.0
            },
            {
                "start_time": 9.64090909090909,
                "end_time": 9.806818181818182,
                "pitch": 44,
                "velocity": 80,
                "duration": 0.165909090909091,
                "tempo": 120.0
            },
            {
                "start_time": 9.84090909090909,
                "end_time": 10.006818181818181,
                "pitch": 44,
                "velocity": 80,
                "duration": 0.165909090909091,
                "tempo": 120.0
            },
            {
                "start_time": 10.845454545454546,
                "end_time": 11.013636363636364,
                "pitch": 44,
                "velocity": 80,
                "duration": 0.168181818181818,
                "tempo": 120.0
            },
            {
                "start_time": 11.045454545454545,
                "end_time": 11.213636363636363,
                "pitch": 44,
                "velocity": 80,
                "duration": 0.168181818181818,
                "tempo": 120.0
            }
        ],
        "Oboe": [
            {
                "start_time": 0.0,
                "end_time": 0.5863636363636363,
                "pitch": 63,
                "velocity": 64,
                "duration": 0.5863636363636363,
                "tempo": 120.0
            },
            {
                "start_time": 0.6181818181818182,
                "end_time": 2.3863636363636362,
                "pitch": 63,
                "velocity": 64,
                "duration": 1.768181818181818,
                "tempo": 120.0
            },
            {
                "start_time": 3.215909090909091,
                "end_time": 3.7840909090909087,
                "pitch": 63,
                "velocity": 64,
                "duration": 0.5681818181818179,
                "tempo": 120.0
            },
            {
                "start_time": 3.815909090909091,
                "end_time": 5.588636363636363,
                "pitch": 63,
                "velocity": 64,
                "duration": 1.772727272727272,
                "tempo": 120.0
            },
            {
                "start_time": 6.425,
                "end_time": 6.993181818181818,
                "pitch": 63,
                "velocity": 64,
                "duration": 0.5681818181818183,
                "tempo": 120.0
            },
            {
                "start_time": 7.027272727272727,
                "end_time": 8.799999999999999,
                "pitch": 63,
                "velocity": 64,
                "duration": 1.7727272727272716,
                "tempo": 120.0
            },
            {
                "start_time": 9.64090909090909,
                "end_time": 10.206818181818182,
                "pitch": 63,
                "velocity": 64,
                "duration": 0.5659090909090914,
                "tempo": 120.0
            },
            {
                "start_time": 10.24090909090909,
                "end_time": 12.018181818181818,
                "pitch": 63,
                "velocity": 64,
                "duration": 1.7772727272727273,
                "tempo": 120.0
            }
        ],
        "Trumpet": [
            {
                "start_time": 0.0,
                "end_time": 0.1340909090909091,
                "pitch": 76,
                "velocity": 51,
                "duration": 0.1340909090909091,
                "tempo": 120.0
            },
            {
                "start_time": 0.15,
                "end_time": 0.7159090909090908,
                "pitch": 63,
                "velocity": 51,
                "duration": 0.5659090909090908,
                "tempo": 120.0
            },
            {
                "start_time": 0.75,
                "end_time": 2.518181818181818,
                "pitch": 66,
                "velocity": 51,
                "duration": 1.768181818181818,
                "tempo": 120.0
            },
            {
                "start_time": 3.3499999999999996,
                "end_time": 3.9159090909090906,
                "pitch": 66,
                "velocity": 51,
                "duration": 0.5659090909090909,
                "tempo": 120.0
            },
            {
                "start_time": 3.9499999999999997,
                "end_time": 5.722727272727273,
                "pitch": 65,
                "velocity": 51,
                "duration": 1.772727272727273,
                "tempo": 120.0
            },
            {
                "start_time": 6.559090909090909,
                "end_time": 7.129545454545454,
                "pitch": 65,
                "velocity": 51,
                "duration": 0.5704545454545453,
                "tempo": 120.0
            },
            {
                "start_time": 7.161363636363636,
                "end_time": 8.934090909090909,
                "pitch": 64,
                "velocity": 51,
                "duration": 1.7727272727272725,
                "tempo": 120.0
            },
            {
                "start_time": 9.775,
                "end_time": 10.34090909090909,
                "pitch": 61,
                "velocity": 51,
                "duration": 0.5659090909090896,
                "tempo": 120.0
            },
            {
                "start_time": 10.375,
                "end_time": 12.152272727272727,
                "pitch": 63,
                "velocity": 51,
                "duration": 1.7772727272727273,
                "tempo": 120.0
            }
        ]
    }
}