{
    "track_id": "Space Harrier 3-D (FM) - 05 - Vakda",
    "mood": "angry",
    "instruments": {
        "Acoustic Bass": [
            {
                "start_time": 0.0,
                "end_time": 0.10227272727272727,
                "pitch": 32,
                "velocity": 64,
                "duration": 0.10227272727272727,
                "tempo": 120.0
            },
            {
                "start_time": 0.38636363636363635,
                "end_time": 0.48636363636363633,
                "pitch": 34,
                "velocity": 64,
                "duration": 0.09999999999999998,
                "tempo": 120.0
            },
            {
                "start_time": 1.0454545454545454,
                "end_time": 1.1454545454545455,
                "pitch": 34,
                "velocity": 64,
                "duration": 0.10000000000000009,
                "tempo": 120.0
            },
            {
                "start_time": 1.1772727272727272,
                "end_time": 1.2772727272727271,
                "pitch": 34,
                "velocity": 64,
                "duration": 0.09999999999999987,
                "tempo": 120.0
            },
            {
                "start_time": 1.5795454545454544,
                "end_time": 1.8113636363636363,
                "pitch": 32,
                "velocity": 64,
                "duration": 0.23181818181818192,
                "tempo": 120.0
            },
            {
                "start_time": 1.8454545454545455,
                "end_time": 2.0795454545454546,
                "pitch": 33,
                "velocity": 64,
                "duration": 0.23409090909090913,
                "tempo": 120.0
            },
            {
                "start_time": 2.1136363636363633,
                "end_time": 2.2136363636363634,
                "pitch": 32,
                "velocity": 64,
                "duration": 0.10000000000000009,
                "tempo": 120.0
            },
            {
                "start_time": 2.6636363636363636,
                "end_time": 2.7659090909090907,
                "pitch": 34,
                "velocity": 64,
                "duration": 0.10227272727272707,
                "tempo": 120.0
            },
            {
                "start_time": 3.202272727272727,
                "end_time": 3.3022727272727272,
                "pitch": 34,
                "velocity": 64,
                "duration": 0.10000000000000009,
                "tempo": 120.0
            },
            {
                "start_time": 3.334090909090909,
                "end_time": 3.4318181818181817,
                "pitch": 34,
                "velocity": 64,
                "duration": 0.09772727272727266,
                "tempo": 120.0
            },
            {
                "start_time": 3.727272727272727,
                "end_time": 3.959090909090909,
                "pitch": 27,
                "velocity": 64,
                "duration": 0.23181818181818192,
                "tempo": 120.0
            },
            {
                "start_time": 3.993181818181818,
                "end_time": 4.227272727272727,
                "pitch": 29,
                "velocity": 64,
                "duration": 0.23409090909090846,
                "tempo": 120.0
            }
        ],
        "French Horn": [
            {
                "start_time": 0.0,
                "end_time": 0.10227272727272727,
                "pitch": 87,
                "velocity": 51,
                "duration": 0.10227272727272727,
                "tempo": 120.0
            },
            {
                "start_time": 0.11818181818181818,
                "end_time": 0.21818181818181817,
                "pitch": 89,
                "velocity": 51,
                "duration": 0.09999999999999999,
                "tempo": 120.0
            },
            {
                "start_time": 0.25227272727272726,
                "end_time": 0.35227272727272724,
                "pitch": 77,
                "velocity": 51,
                "duration": 0.09999999999999998,
                "tempo": 120.0
            },
            {
                "start_time": 0.38636363636363635,
                "end_time": 0.48636363636363633,
                "pitch": 89,
                "velocity": 51,
                "duration": 0.09999999999999998,
                "tempo": 120.0
            },
            {
                "start_time": 0.5181818181818182,
                "end_time": 0.6181818181818182,
                "pitch": 77,
                "velocity": 51,
                "duration": 0.09999999999999998,
                "tempo": 120.0
            },
            {
                "start_time": 0.6522727272727272,
                "end_time": 0.75,
                "pitch": 89,
                "velocity": 51,
                "duration": 0.09772727272727277,
                "tempo": 120.0
            },
            {
                "start_time": 0.7840909090909091,
                "end_time": 0.8818181818181817,
                "pitch": 77,
                "velocity": 51,
                "duration": 0.09772727272727266,
                "tempo": 120.0
            },
            {
                "start_time": 0.9136363636363636,
                "end_time": 1.0136363636363637,
                "pitch": 89,
                "velocity": 51,
                "duration": 0.10000000000000009,
                "tempo": 120.0
            },
            {
                "start_time": 1.0454545454545454,
                "end_time": 1.1454545454545455,
                "pitch": 87,
                "velocity": 51,
                "duration": 0.10000000000000009,
                "tempo": 120.0
            },
            {
                "start_time": 1.1772727272727272,
                "end_time": 1.2772727272727271,
                "pitch": 89,
                "velocity": 51,
                "duration": 0.09999999999999987,
                "tempo": 120.0
            },
            {
                "start_time": 1.3113636363636363,
                "end_time": 1.4113636363636364,
                "pitch": 77,
                "velocity": 51,
                "duration": 0.10000000000000009,
                "tempo": 120.0
            },
            {
                "start_time": 1.4454545454545453,
                "end_time": 1.5454545454545454,
                "pitch": 89,
                "velocity": 51,
                "duration": 0.10000000000000009,
                "tempo": 120.0
            },
            {
                "start_time": 1.5795454545454544,
                "end_time": 1.8113636363636363,
                "pitch": 94,
                "velocity": 51,
                "duration": 0.23181818181818192,
                "tempo": 120.0
            },
            {
                "start_time": 1.8454545454545455,
                "end_time": 2.0795454545454546,
                "pitch": 92,
                "velocity": 51,
                "duration": 0.23409090909090913,
                "tempo": 120.0
            },
            {
                "start_time": 2.1136363636363633,
                "end_time": 2.2136363636363634,
                "pitch": 87,
                "velocity": 51,
                "duration": 0.10000000000000009,
                "tempo": 120.0
            },
            {
                "start_time": 2.2477272727272726,
                "end_time": 2.352272727272727,
                "pitch": 89,
                "velocity": 51,
                "duration": 0.1045454545454545,
                "tempo": 120.0
            },
            {
                "start_time": 2.3863636363636362,
                "end_time": 2.4886363636363633,
                "pitch": 77,
                "velocity": 51,
                "duration": 0.10227272727272707,
                "tempo": 120.0
            },
            {
                "start_time": 2.525,
                "end_time": 2.627272727272727,
                "pitch": 89,
                "velocity": 51,
                "duration": 0.10227272727272707,
                "tempo": 120.0
            },
            {
                "start_time": 2.6636363636363636,
                "end_time": 2.7659090909090907,
                "pitch": 77,
                "velocity": 51,
                "duration": 0.10227272727272707,
                "tempo": 120.0
            },
            {
                "start_time": 2.8,
                "end_time": 2.9,
                "pitch": 89,
                "velocity": 51,
                "duration": 0.10000000000000009,
                "tempo": 120.0
            },
            {
                "start_time": 2.934090909090909,
                "end_time": 3.0340909090909087,
                "pitch": 77,
                "velocity": 51,
                "duration": 0.09999999999999964,
                "tempo": 120.0
            },
            {
                "start_time": 3.068181818181818,
                "end_time": 3.168181818181818,
                "pitch": 89,
                "velocity": 51,
                "duration": 0.10000000000000009,
                "tempo": 120.0
            },
            {
                "start_time": 3.202272727272727,
                "end_time": 3.3022727272727272,
                "pitch": 82,
                "velocity": 51,
                "duration": 0.10000000000000009,
                "tempo": 120.0
            },
            {
                "start_time": 3.334090909090909,
                "end_time": 3.4318181818181817,
                "pitch": 84,
                "velocity": 51,
                "duration": 0.09772727272727266,
                "tempo": 120.0
            },
            {
                "start_time": 3.465909090909091,
                "end_time": 3.6954545454545453,
                "pitch": 87,
                "velocity": 51,
                "duration": 0.2295454545454545,
                "tempo": 120.0
            },
            {
                "start_time": 3.727272727272727,
                "end_time": 3.959090909090909,
                "pitch": 92,
                "velocity": 51,
                "duration": 0.23181818181818192,
                "tempo": 120.0
            },
            {
                "start_time": 3.993181818181818,
                "end_time": 4.227272727272727,
                "pitch": 89,
                "velocity": 51,
                "duration": 0.23409090909090846,
                "tempo": 120.0
            }
        ],
        "Violin": [
            {
                "start_time": 0.0,
                "end_time": 0.10227272727272727,
                "pitch": 76,
                "velocity": 51,
                "duration": 0.10227272727272727,
                "tempo": 120.0
            },
            {
                "start_time": 0.11818181818181818,
                "end_time": 0.21818181818181817,
                "pitch": 80,
                "velocity": 51,
                "duration": 0.09999999999999999,
                "tempo": 120.0
            },
            {
                "start_time": 0.25227272727272726,
                "end_time": 0.35227272727272724,
                "pitch": 82,
                "velocity": 51,
                "duration": 0.09999999999999998,
                "tempo": 120.0
            },
            {
                "start_time": 0.38636363636363635,
                "end_time": 0.48636363636363633,
                "pitch": 70,
                "velocity": 51,
                "duration": 0.09999999999999998,
                "tempo": 120.0
            },
            {
                "start_time": 0.5181818181818182,
                "end_time": 0.6181818181818182,
                "pitch": 82,
                "velocity": 51,
                "duration": 0.09999999999999998,
                "tempo": 120.0
            },
            {
                "start_time": 0.6522727272727272,
                "end_time": 0.75,
                "pitch": 70,
                "velocity": 51,
                "duration": 0.09772727272727277,
                "tempo": 120.0
            },
            {
                "start_time": 0.7840909090909091,
                "end_time": 0.8818181818181817,
                "pitch": 82,
                "velocity": 51,
                "duration": 0.09772727272727266,
                "tempo": 120.0
            },
            {
                "start_time": 0.9136363636363636,
                "end_time": 1.0136363636363637,
                "pitch": 70,
                "velocity": 51,
                "duration": 0.10000000000000009,
                "tempo": 120.0
            },
            {
                "start_time": 1.0454545454545454,
                "end_time": 1.1454545454545455,
                "pitch": 82,
                "velocity": 51,
                "duration": 0.10000000000000009,
                "tempo": 120.0
            },
            {
                "start_time": 1.1772727272727272,
                "end_time": 1.2772727272727271,
                "pitch": 80,
                "velocity": 51,
                "duration": 0.09999999999999987,
                "tempo": 120.0
            },
            {
                "start_time": 1.3113636363636363,
                "end_time": 1.4113636363636364,
                "pitch": 82,
                "velocity": 51,
                "duration": 0.10000000000000009,
                "tempo": 120.0
            },
            {
                "start_time": 1.4454545454545453,
                "end_time": 1.5454545454545454,
                "pitch": 70,
                "velocity": 51,
                "duration": 0.10000000000000009,
                "tempo": 120.0
            },
            {
                "start_time": 1.5795454545454544,
                "end_time": 1.6795454545454545,
                "pitch": 82,
                "velocity": 51,
                "duration": 0.10000000000000009,
                "tempo": 120.0
            },
            {
                "start_time": 1.7113636363636362,
                "end_time": 1.9454545454545453,
                "pitch": 87,
                "velocity": 51,
                "duration": 0.23409090909090913,
                "tempo": 120.0
            },
            {
                "start_time": 1.9795454545454545,
                "end_time": 2.2136363636363634,
                "pitch": 85,
                "velocity": 51,
                "duration": 0.2340909090909089,
                "tempo": 120.0
            },
            {
                "start_time": 2.2477272727272726,
                "end_time": 2.352272727272727,
                "pitch": 80,
                "velocity": 51,
                "duration": 0.1045454545454545,
                "tempo": 120.0
            },
            {
                "start_time": 2.3863636363636362,
                "end_time": 2.4886363636363633,
                "pitch": 82,
                "velocity": 51,
                "duration": 0.10227272727272707,
                "tempo": 120.0
            },
            {
                "start_time": 2.525,
                "end_time": 2.627272727272727,
                "pitch": 70,
                "velocity": 51,
                "duration": 0.10227272727272707,
                "tempo": 120.0
            },
            {
                "start_time": 2.6636363636363636,
                "end_time": 2.7659090909090907,
                "pitch": 82,
                "velocity": 51,
                "duration": 0.10227272727272707,
                "tempo": 120.0
            },
            {
                "start_time": 2.8,
                "end_time": 2.9,
                "pitch": 70,
                "velocity": 51,
                "duration": 0.10000000000000009,
                "tempo": 120.0
            },
            {
                "start_time": 2.934090909090909,
                "end_time": 3.0340909090909087,
                "pitch": 82,
                "velocity": 51,
                "duration": 0.09999999999999964,
                "tempo": 120.0
            },
            {
                "start_time": 3.068181818181818,
                "end_time": 3.168181818181818,
                "pitch": 70,
                "velocity": 51,
                "duration": 0.10000000000000009,
                "tempo": 120.0
            },
            {
                "start_time": 3.202272727272727,
                "end_time": 3.3022727272727272,
                "pitch": 82,
                "velocity": 51,
                "duration": 0.10000000000000009,
                "tempo": 120.0
            },
            {
                "start_time": 3.334090909090909,
                "end_time": 3.4318181818181817,
                "pitch": 75,
                "velocity": 51,
                "duration": 0.09772727272727266,
                "tempo": 120.0
            },
            {
                "start_time": 3.465909090909091,
                "end_time": 3.5636363636363635,
                "pitch": 77,
                "velocity": 51,
                "duration": 0.09772727272727266,
                "tempo": 120.0
            },
            {
                "start_time": 3.5977272727272727,
                "end_time": 3.827272727272727,
                "pitch": 80,
                "velocity": 51,
                "duration": 0.2295454545454545,
                "tempo": 120.0
            },
            {
                "start_time": 3.859090909090909,
                "end_time": 4.093181818181818,
                "pitch": 85,
                "velocity": 51,
                "duration": 0.2340909090909089,
                "tempo": 120.0
            },
            {
                "start_time": 4.127272727272727,
                "end_time": 4.227272727272727,
                "pitch": 82,
                "velocity": 51,
                "duration": 0.09999999999999964,
                "tempo": 120.0
            }
        ]
    }
}