{
    "track_id": "Space Harrier 3-D (FM) - 12 - Ida",
    "mood": "angry",
    "instruments": {
        "Electric Guitar (clean)": [
            {
                "start_time": 0.011363636363636364,
                "end_time": 0.09999999999999999,
                "pitch": 35,
                "velocity": 80,
                "duration": 0.08863636363636362,
                "tempo": 120.0
            },
            {
                "start_time": 0.11363636363636363,
                "end_time": 0.20227272727272727,
                "pitch": 35,
                "velocity": 80,
                "duration": 0.08863636363636364,
                "tempo": 120.0
            },
            {
                "start_time": 0.21818181818181817,
                "end_time": 0.4659090909090909,
                "pitch": 47,
                "velocity": 80,
                "duration": 0.2477272727272727,
                "tempo": 120.0
            },
            {
                "start_time": 0.4818181818181818,
                "end_time": 0.5954545454545455,
                "pitch": 35,
                "velocity": 80,
                "duration": 0.11363636363636365,
                "tempo": 120.0
            },
            {
                "start_time": 0.6136363636363636,
                "end_time": 0.8636363636363636,
                "pitch": 45,
                "velocity": 80,
                "duration": 0.25,
                "tempo": 120.0
            },
            {
                "start_time": 0.8795454545454545,
                "end_time": 1.0,
                "pitch": 35,
                "velocity": 80,
                "duration": 0.12045454545454548,
                "tempo": 120.0
            },
            {
                "start_time": 1.0159090909090909,
                "end_time": 1.2704545454545455,
                "pitch": 43,
                "velocity": 80,
                "duration": 0.25454545454545463,
                "tempo": 120.0
            },
            {
                "start_time": 1.2886363636363636,
                "end_time": 1.5386363636363636,
                "pitch": 35,
                "velocity": 80,
                "duration": 0.25,
                "tempo": 120.0
            },
            {
                "start_time": 1.5545454545454545,
                "end_time": 1.6727272727272726,
                "pitch": 42,
                "velocity": 80,
                "duration": 0.11818181818181817,
                "tempo": 120.0
            },
            {
                "start_time": 1.6886363636363635,
                "end_time": 1.8068181818181817,
                "pitch": 43,
                "velocity": 80,
                "duration": 0.11818181818181817,
                "tempo": 120.0
            },
            {
                "start_time": 1.8227272727272725,
                "end_time": 1.9431818181818181,
                "pitch": 45,
                "velocity": 80,
                "duration": 0.12045454545454559,
                "tempo": 120.0
            },
            {
                "start_time": 1.9613636363636362,
                "end_time": 2.0818181818181816,
                "pitch": 47,
                "velocity": 80,
                "duration": 0.12045454545454537,
                "tempo": 120.0
            },
            {
                "start_time": 2.1,
                "end_time": 2.2204545454545452,
                "pitch": 35,
                "velocity": 80,
                "duration": 0.12045454545454515,
                "tempo": 120.0
            },
            {
                "start_time": 2.2386363636363633,
                "end_time": 2.359090909090909,
                "pitch": 35,
                "velocity": 80,
                "duration": 0.12045454545454559,
                "tempo": 120.0
            },
            {
                "start_time": 2.375,
                "end_time": 2.6227272727272726,
                "pitch": 47,
                "velocity": 80,
                "duration": 0.24772727272727257,
                "tempo": 120.0
            },
            {
                "start_time": 2.6386363636363637,
                "end_time": 2.752272727272727,
                "pitch": 35,
                "velocity": 80,
                "duration": 0.11363636363636331,
                "tempo": 120.0
            },
            {
                "start_time": 2.7704545454545455,
                "end_time": 3.0204545454545455,
                "pitch": 45,
                "velocity": 80,
                "duration": 0.25,
                "tempo": 120.0
            },
            {
                "start_time": 3.036363636363636,
                "end_time": 3.1568181818181817,
                "pitch": 35,
                "velocity": 80,
                "duration": 0.12045454545454559,
                "tempo": 120.0
            },
            {
                "start_time": 3.1727272727272724,
                "end_time": 3.4272727272727272,
                "pitch": 43,
                "velocity": 80,
                "duration": 0.25454545454545485,
                "tempo": 120.0
            },
            {
                "start_time": 3.4454545454545453,
                "end_time": 3.690909090909091,
                "pitch": 35,
                "velocity": 80,
                "duration": 0.2454545454545456,
                "tempo": 120.0
            },
            {
                "start_time": 3.7068181818181816,
                "end_time": 3.8227272727272728,
                "pitch": 42,
                "velocity": 80,
                "duration": 0.11590909090909118,
                "tempo": 120.0
            },
            {
                "start_time": 3.8386363636363634,
                "end_time": 3.952272727272727,
                "pitch": 43,
                "velocity": 80,
                "duration": 0.11363636363636376,
                "tempo": 120.0
            },
            {
                "start_time": 3.9704545454545452,
                "end_time": 4.093181818181818,
                "pitch": 45,
                "velocity": 80,
                "duration": 0.12272727272727257,
                "tempo": 120.0
            },
            {
                "start_time": 4.111363636363636,
                "end_time": 4.2340909090909085,
                "pitch": 47,
                "velocity": 80,
                "duration": 0.12272727272727213,
                "tempo": 120.0
            },
            {
                "start_time": 4.252272727272727,
                "end_time": 4.375,
                "pitch": 33,
                "velocity": 80,
                "duration": 0.12272727272727302,
                "tempo": 120.0
            },
            {
                "start_time": 4.393181818181818,
                "end_time": 4.515909090909091,
                "pitch": 33,
                "velocity": 80,
                "duration": 0.12272727272727302,
                "tempo": 120.0
            },
            {
                "start_time": 4.531818181818181,
                "end_time": 4.7727272727272725,
                "pitch": 45,
                "velocity": 80,
                "duration": 0.24090909090909118,
                "tempo": 120.0
            },
            {
                "start_time": 4.790909090909091,
                "end_time": 4.902272727272727,
                "pitch": 33,
                "velocity": 80,
                "duration": 0.11136363636363633,
                "tempo": 120.0
            },
            {
                "start_time": 4.918181818181818,
                "end_time": 5.170454545454545,
                "pitch": 43,
                "velocity": 80,
                "duration": 0.252272727272727,
                "tempo": 120.0
            },
            {
                "start_time": 5.1863636363636365,
                "end_time": 5.306818181818182,
                "pitch": 33,
                "velocity": 80,
                "duration": 0.12045454545454515,
                "tempo": 120.0
            },
            {
                "start_time": 5.325,
                "end_time": 5.584090909090909,
                "pitch": 42,
                "velocity": 80,
                "duration": 0.2590909090909088,
                "tempo": 120.0
            },
            {
                "start_time": 5.602272727272727,
                "end_time": 5.847727272727273,
                "pitch": 33,
                "velocity": 80,
                "duration": 0.24545454545454604,
                "tempo": 120.0
            },
            {
                "start_time": 5.863636363636363,
                "end_time": 5.9795454545454545,
                "pitch": 40,
                "velocity": 80,
                "duration": 0.11590909090909118,
                "tempo": 120.0
            },
            {
                "start_time": 5.995454545454545,
                "end_time": 6.1090909090909085,
                "pitch": 42,
                "velocity": 80,
                "duration": 0.11363636363636331,
                "tempo": 120.0
            },
            {
                "start_time": 6.127272727272727,
                "end_time": 6.245454545454545,
                "pitch": 43,
                "velocity": 80,
                "duration": 0.11818181818181817,
                "tempo": 120.0
            },
            {
                "start_time": 6.263636363636364,
                "end_time": 6.381818181818182,
                "pitch": 45,
                "velocity": 80,
                "duration": 0.11818181818181817,
                "tempo": 120.0
            },
            {
                "start_time": 6.3977272727272725,
                "end_time": 6.518181818181818,
                "pitch": 33,
                "velocity": 80,
                "duration": 0.12045454545454515,
                "tempo": 120.0
            },
            {
                "start_time": 6.534090909090909,
                "end_time": 6.654545454545454,
                "pitch": 33,
                "velocity": 80,
                "duration": 0.12045454545454515,
                "tempo": 120.0
            },
            {
                "start_time": 6.670454545454545,
                "end_time": 6.920454545454545,
                "pitch": 45,
                "velocity": 80,
                "duration": 0.25,
                "tempo": 120.0
            },
            {
                "start_time": 6.9386363636363635,
                "end_time": 7.054545454545454,
                "pitch": 33,
                "velocity": 80,
                "duration": 0.1159090909090903,
                "tempo": 120.0
            },
            {
                "start_time": 7.070454545454545,
                "end_time": 7.324999999999999,
                "pitch": 43,
                "velocity": 80,
                "duration": 0.25454545454545396,
                "tempo": 120.0
            },
            {
                "start_time": 7.340909090909091,
                "end_time": 7.459090909090909,
                "pitch": 33,
                "velocity": 80,
                "duration": 0.11818181818181817,
                "tempo": 120.0
            },
            {
                "start_time": 7.477272727272727,
                "end_time": 7.7318181818181815,
                "pitch": 42,
                "velocity": 80,
                "duration": 0.25454545454545485,
                "tempo": 120.0
            },
            {
                "start_time": 7.747727272727272,
                "end_time": 7.995454545454545,
                "pitch": 33,
                "velocity": 80,
                "duration": 0.24772727272727302,
                "tempo": 120.0
            },
            {
                "start_time": 8.011363636363637,
                "end_time": 8.125,
                "pitch": 40,
                "velocity": 80,
                "duration": 0.11363636363636331,
                "tempo": 120.0
            },
            {
                "start_time": 8.143181818181818,
                "end_time": 8.256818181818181,
                "pitch": 42,
                "velocity": 80,
                "duration": 0.11363636363636331,
                "tempo": 120.0
            },
            {
                "start_time": 8.272727272727272,
                "end_time": 8.393181818181818,
                "pitch": 43,
                "velocity": 80,
                "duration": 0.12045454545454604,
                "tempo": 120.0
            },
            {
                "start_time": 8.409090909090908,
                "end_time": 8.529545454545454,
                "pitch": 45,
                "velocity": 80,
                "duration": 0.12045454545454604,
                "tempo": 120.0
            },
            {
                "start_time": 8.545454545454545,
                "end_time": 8.665909090909091,
                "pitch": 35,
                "velocity": 80,
                "duration": 0.12045454545454604,
                "tempo": 120.0
            },
            {
                "start_time": 8.681818181818182,
                "end_time": 8.799999999999999,
                "pitch": 35,
                "velocity": 80,
                "duration": 0.11818181818181728,
                "tempo": 120.0
            },
            {
                "start_time": 8.818181818181818,
                "end_time": 9.068181818181818,
                "pitch": 47,
                "velocity": 80,
                "duration": 0.25,
                "tempo": 120.0
            },
            {
                "start_time": 9.084090909090909,
                "end_time": 9.202272727272726,
                "pitch": 35,
                "velocity": 80,
                "duration": 0.11818181818181728,
                "tempo": 120.0
            },
            {
                "start_time": 9.218181818181817,
                "end_time": 9.470454545454546,
                "pitch": 45,
                "velocity": 80,
                "duration": 0.25227272727272876,
                "tempo": 120.0
            },
            {
                "start_time": 9.488636363636363,
                "end_time": 9.60681818181818,
                "pitch": 35,
                "velocity": 80,
                "duration": 0.11818181818181728,
                "tempo": 120.0
            },
            {
                "start_time": 9.625,
                "end_time": 9.879545454545454,
                "pitch": 43,
                "velocity": 80,
                "duration": 0.25454545454545396,
                "tempo": 120.0
            },
            {
                "start_time": 9.895454545454545,
                "end_time": 10.145454545454545,
                "pitch": 35,
                "velocity": 80,
                "duration": 0.25,
                "tempo": 120.0
            },
            {
                "start_time": 10.163636363636364,
                "end_time": 10.279545454545454,
                "pitch": 42,
                "velocity": 80,
                "duration": 0.1159090909090903,
                "tempo": 120.0
            },
            {
                "start_time": 10.297727272727272,
                "end_time": 10.413636363636362,
                "pitch": 43,
                "velocity": 80,
                "duration": 0.1159090909090903,
                "tempo": 120.0
            },
            {
                "start_time": 10.429545454545455,
                "end_time": 10.549999999999999,
                "pitch": 45,
                "velocity": 80,
                "duration": 0.12045454545454426,
                "tempo": 120.0
            },
            {
                "start_time": 10.56590909090909,
                "end_time": 10.686363636363636,
                "pitch": 47,
                "velocity": 80,
                "duration": 0.12045454545454604,
                "tempo": 120.0
            },
            {
                "start_time": 10.702272727272726,
                "end_time": 10.820454545454545,
                "pitch": 35,
                "velocity": 80,
                "duration": 0.11818181818181905,
                "tempo": 120.0
            },
            {
                "start_time": 10.838636363636363,
                "end_time": 10.956818181818182,
                "pitch": 35,
                "velocity": 80,
                "duration": 0.11818181818181905,
                "tempo": 120.0
            },
            {
                "start_time": 10.972727272727273,
                "end_time": 11.220454545454546,
                "pitch": 47,
                "velocity": 80,
                "duration": 0.24772727272727302,
                "tempo": 120.0
            },
            {
                "start_time": 11.236363636363636,
                "end_time": 11.35,
                "pitch": 35,
                "velocity": 80,
                "duration": 0.11363636363636331,
                "tempo": 120.0
            },
            {
                "start_time": 11.368181818181817,
                "end_time": 11.618181818181817,
                "pitch": 45,
                "velocity": 80,
                "duration": 0.25,
                "tempo": 120.0
            },
            {
                "start_time": 11.636363636363637,
                "end_time": 11.754545454545454,
                "pitch": 35,
                "velocity": 80,
                "duration": 0.11818181818181728,
                "tempo": 120.0
            },
            {
                "start_time": 11.770454545454545,
                "end_time": 12.027272727272727,
                "pitch": 43,
                "velocity": 80,
                "duration": 0.2568181818181827,
                "tempo": 120.0
            },
            {
                "start_time": 12.043181818181818,
                "end_time": 12.293181818181818,
                "pitch": 35,
                "velocity": 80,
                "duration": 0.25,
                "tempo": 120.0
            },
            {
                "start_time": 12.309090909090909,
                "end_time": 12.427272727272726,
                "pitch": 42,
                "velocity": 80,
                "duration": 0.11818181818181728,
                "tempo": 120.0
            },
            {
                "start_time": 12.443181818181818,
                "end_time": 12.561363636363636,
                "pitch": 43,
                "velocity": 80,
                "duration": 0.11818181818181728,
                "tempo": 120.0
            },
            {
                "start_time": 12.577272727272726,
                "end_time": 12.697727272727272,
                "pitch": 45,
                "velocity": 80,
                "duration": 0.12045454545454604,
                "tempo": 120.0
            },
            {
                "start_time": 12.71590909090909,
                "end_time": 12.836363636363636,
                "pitch": 47,
                "velocity": 80,
                "duration": 0.12045454545454604,
                "tempo": 120.0
            },
            {
                "start_time": 12.854545454545454,
                "end_time": 12.975,
                "pitch": 33,
                "velocity": 80,
                "duration": 0.12045454545454604,
                "tempo": 120.0
            },
            {
                "start_time": 12.993181818181817,
                "end_time": 13.113636363636363,
                "pitch": 33,
                "velocity": 80,
                "duration": 0.12045454545454604,
                "tempo": 120.0
            },
            {
                "start_time": 13.129545454545454,
                "end_time": 13.372727272727271,
                "pitch": 45,
                "velocity": 80,
                "duration": 0.24318181818181728,
                "tempo": 120.0
            },
            {
                "start_time": 13.388636363636364,
                "end_time": 13.5,
                "pitch": 33,
                "velocity": 80,
                "duration": 0.11136363636363633,
                "tempo": 120.0
            },
            {
                "start_time": 13.51590909090909,
                "end_time": 13.768181818181818,
                "pitch": 43,
                "velocity": 80,
                "duration": 0.252272727272727,
                "tempo": 120.0
            },
            {
                "start_time": 13.784090909090908,
                "end_time": 13.906818181818181,
                "pitch": 33,
                "velocity": 80,
                "duration": 0.12272727272727302,
                "tempo": 120.0
            },
            {
                "start_time": 13.922727272727272,
                "end_time": 14.181818181818182,
                "pitch": 42,
                "velocity": 80,
                "duration": 0.2590909090909097,
                "tempo": 120.0
            },
            {
                "start_time": 14.2,
                "end_time": 14.445454545454545,
                "pitch": 33,
                "velocity": 80,
                "duration": 0.24545454545454604,
                "tempo": 120.0
            },
            {
                "start_time": 14.461363636363636,
                "end_time": 14.577272727272726,
                "pitch": 40,
                "velocity": 80,
                "duration": 0.1159090909090903,
                "tempo": 120.0
            },
            {
                "start_time": 14.593181818181817,
                "end_time": 14.70681818181818,
                "pitch": 42,
                "velocity": 80,
                "duration": 0.11363636363636331,
                "tempo": 120.0
            },
            {
                "start_time": 14.725,
                "end_time": 14.843181818181817,
                "pitch": 43,
                "velocity": 80,
                "duration": 0.11818181818181728,
                "tempo": 120.0
            },
            {
                "start_time": 14.861363636363636,
                "end_time": 14.979545454545454,
                "pitch": 45,
                "velocity": 80,
                "duration": 0.11818181818181728,
                "tempo": 120.0
            },
            {
                "start_time": 14.997727272727271,
                "end_time": 15.11590909090909,
                "pitch": 33,
                "velocity": 80,
                "duration": 0.11818181818181905,
                "tempo": 120.0
            },
            {
                "start_time": 15.131818181818181,
                "end_time": 15.252272727272727,
                "pitch": 33,
                "velocity": 80,
                "duration": 0.12045454545454604,
                "tempo": 120.0
            },
            {
                "start_time": 15.268181818181818,
                "end_time": 15.518181818181818,
                "pitch": 45,
                "velocity": 80,
                "duration": 0.25,
                "tempo": 120.0
            },
            {
                "start_time": 15.536363636363635,
                "end_time": 15.652272727272727,
                "pitch": 33,
                "velocity": 80,
                "duration": 0.11590909090909207,
                "tempo": 120.0
            },
            {
                "start_time": 15.668181818181818,
                "end_time": 15.922727272727272,
                "pitch": 43,
                "velocity": 80,
                "duration": 0.25454545454545396,
                "tempo": 120.0
            },
            {
                "start_time": 15.938636363636363,
                "end_time": 16.05909090909091,
                "pitch": 33,
                "velocity": 80,
                "duration": 0.12045454545454604,
                "tempo": 120.0
            },
            {
                "start_time": 16.075,
                "end_time": 16.329545454545453,
                "pitch": 42,
                "velocity": 80,
                "duration": 0.25454545454545396,
                "tempo": 120.0
            },
            {
                "start_time": 16.347727272727273,
                "end_time": 16.597727272727273,
                "pitch": 33,
                "velocity": 80,
                "duration": 0.25,
                "tempo": 120.0
            },
            {
                "start_time": 16.613636363636363,
                "end_time": 16.73181818181818,
                "pitch": 40,
                "velocity": 80,
                "duration": 0.11818181818181728,
                "tempo": 120.0
            },
            {
                "start_time": 16.74772727272727,
                "end_time": 16.863636363636363,
                "pitch": 42,
                "velocity": 80,
                "duration": 0.11590909090909207,
                "tempo": 120.0
            },
            {
                "start_time": 16.881818181818183,
                "end_time": 17.0,
                "pitch": 43,
                "velocity": 80,
                "duration": 0.11818181818181728,
                "tempo": 120.0
            },
            {
                "start_time": 17.018181818181816,
                "end_time": 17.136363636363637,
                "pitch": 45,
                "velocity": 80,
                "duration": 0.11818181818182083,
                "tempo": 120.0
            },
            {
                "start_time": 17.152272727272727,
                "end_time": 17.272727272727273,
                "pitch": 35,
                "velocity": 80,
                "duration": 0.12045454545454604,
                "tempo": 120.0
            },
            {
                "start_time": 17.288636363636364,
                "end_time": 17.409090909090907,
                "pitch": 35,
                "velocity": 80,
                "duration": 0.12045454545454248,
                "tempo": 120.0
            },
            {
                "start_time": 17.425,
                "end_time": 17.670454545454543,
                "pitch": 47,
                "velocity": 80,
                "duration": 0.24545454545454248,
                "tempo": 120.0
            },
            {
                "start_time": 17.686363636363634,
                "end_time": 17.802272727272726,
                "pitch": 35,
                "velocity": 80,
                "duration": 0.11590909090909207,
                "tempo": 120.0
            },
            {
                "start_time": 17.818181818181817,
                "end_time": 18.068181818181817,
                "pitch": 45,
                "velocity": 80,
                "duration": 0.25,
                "tempo": 120.0
            },
            {
                "start_time": 18.086363636363636,
                "end_time": 18.204545454545453,
                "pitch": 35,
                "velocity": 80,
                "duration": 0.11818181818181728,
                "tempo": 120.0
            },
            {
                "start_time": 18.222727272727273,
                "end_time": 18.477272727272727,
                "pitch": 43,
                "velocity": 80,
                "duration": 0.25454545454545396,
                "tempo": 120.0
            },
            {
                "start_time": 18.493181818181817,
                "end_time": 18.745454545454546,
                "pitch": 35,
                "velocity": 80,
                "duration": 0.25227272727272876,
                "tempo": 120.0
            },
            {
                "start_time": 18.761363636363637,
                "end_time": 18.877272727272725,
                "pitch": 42,
                "velocity": 80,
                "duration": 0.11590909090908852,
                "tempo": 120.0
            },
            {
                "start_time": 18.895454545454545,
                "end_time": 19.011363636363637,
                "pitch": 43,
                "velocity": 80,
                "duration": 0.11590909090909207,
                "tempo": 120.0
            },
            {
                "start_time": 19.027272727272727,
                "end_time": 19.15,
                "pitch": 45,
                "velocity": 80,
                "duration": 0.12272727272727124,
                "tempo": 120.0
            },
            {
                "start_time": 19.16590909090909,
                "end_time": 19.288636363636364,
                "pitch": 47,
                "velocity": 80,
                "duration": 0.1227272727272748,
                "tempo": 120.0
            },
            {
                "start_time": 19.304545454545455,
                "end_time": 19.427272727272726,
                "pitch": 35,
                "velocity": 80,
                "duration": 0.12272727272727124,
                "tempo": 120.0
            },
            {
                "start_time": 19.443181818181817,
                "end_time": 19.563636363636363,
                "pitch": 35,
                "velocity": 80,
                "duration": 0.12045454545454604,
                "tempo": 120.0
            },
            {
                "start_time": 19.579545454545453,
                "end_time": 19.82272727272727,
                "pitch": 47,
                "velocity": 80,
                "duration": 0.24318181818181728,
                "tempo": 120.0
            },
            {
                "start_time": 19.83863636363636,
                "end_time": 19.952272727272728,
                "pitch": 35,
                "velocity": 80,
                "duration": 0.11363636363636687,
                "tempo": 120.0
            },
            {
                "start_time": 19.96818181818182,
                "end_time": 20.21818181818182,
                "pitch": 45,
                "velocity": 80,
                "duration": 0.25,
                "tempo": 120.0
            },
            {
                "start_time": 20.236363636363635,
                "end_time": 20.35681818181818,
                "pitch": 35,
                "velocity": 80,
                "duration": 0.12045454545454604,
                "tempo": 120.0
            },
            {
                "start_time": 20.375,
                "end_time": 20.634090909090908,
                "pitch": 43,
                "velocity": 80,
                "duration": 0.25909090909090793,
                "tempo": 120.0
            },
            {
                "start_time": 20.65,
                "end_time": 20.895454545454545,
                "pitch": 35,
                "velocity": 80,
                "duration": 0.24545454545454604,
                "tempo": 120.0
            },
            {
                "start_time": 20.913636363636364,
                "end_time": 21.027272727272727,
                "pitch": 42,
                "velocity": 80,
                "duration": 0.11363636363636331,
                "tempo": 120.0
            },
            {
                "start_time": 21.043181818181818,
                "end_time": 21.159090909090907,
                "pitch": 43,
                "velocity": 80,
                "duration": 0.11590909090908852,
                "tempo": 120.0
            },
            {
                "start_time": 21.175,
                "end_time": 21.295454545454543,
                "pitch": 45,
                "velocity": 80,
                "duration": 0.12045454545454248,
                "tempo": 120.0
            },
            {
                "start_time": 21.313636363636363,
                "end_time": 21.43409090909091,
                "pitch": 47,
                "velocity": 80,
                "duration": 0.12045454545454604,
                "tempo": 120.0
            },
            {
                "start_time": 21.452272727272724,
                "end_time": 21.57272727272727,
                "pitch": 33,
                "velocity": 80,
                "duration": 0.12045454545454604,
                "tempo": 120.0
            },
            {
                "start_time": 21.59090909090909,
                "end_time": 21.711363636363636,
                "pitch": 33,
                "velocity": 80,
                "duration": 0.12045454545454604,
                "tempo": 120.0
            },
            {
                "start_time": 21.729545454545452,
                "end_time": 21.974999999999998,
                "pitch": 45,
                "velocity": 80,
                "duration": 0.24545454545454604,
                "tempo": 120.0
            },
            {
                "start_time": 21.99090909090909,
                "end_time": 22.10681818181818,
                "pitch": 33,
                "velocity": 80,
                "duration": 0.11590909090909207,
                "tempo": 120.0
            },
            {
                "start_time": 22.12272727272727,
                "end_time": 22.37272727272727,
                "pitch": 43,
                "velocity": 80,
                "duration": 0.25,
                "tempo": 120.0
            },
            {
                "start_time": 22.39090909090909,
                "end_time": 22.509090909090908,
                "pitch": 33,
                "velocity": 80,
                "duration": 0.11818181818181728,
                "tempo": 120.0
            },
            {
                "start_time": 22.525,
                "end_time": 22.78181818181818,
                "pitch": 42,
                "velocity": 80,
                "duration": 0.2568181818181827,
                "tempo": 120.0
            },
            {
                "start_time": 22.797727272727272,
                "end_time": 23.047727272727272,
                "pitch": 33,
                "velocity": 80,
                "duration": 0.25,
                "tempo": 120.0
            },
            {
                "start_time": 23.06590909090909,
                "end_time": 23.18181818181818,
                "pitch": 40,
                "velocity": 80,
                "duration": 0.11590909090908852,
                "tempo": 120.0
            },
            {
                "start_time": 23.19772727272727,
                "end_time": 23.31590909090909,
                "pitch": 42,
                "velocity": 80,
                "duration": 0.11818181818182083,
                "tempo": 120.0
            },
            {
                "start_time": 23.331818181818182,
                "end_time": 23.45,
                "pitch": 43,
                "velocity": 80,
                "duration": 0.11818181818181728,
                "tempo": 120.0
            },
            {
                "start_time": 23.46818181818182,
                "end_time": 23.586363636363636,
                "pitch": 45,
                "velocity": 80,
                "duration": 0.11818181818181728,
                "tempo": 120.0
            },
            {
                "start_time": 23.604545454545452,
                "end_time": 23.722727272727273,
                "pitch": 33,
                "velocity": 80,
                "duration": 0.11818181818182083,
                "tempo": 120.0
            },
            {
                "start_time": 23.74090909090909,
                "end_time": 23.85909090909091,
                "pitch": 33,
                "velocity": 80,
                "duration": 0.11818181818182083,
                "tempo": 120.0
            },
            {
                "start_time": 23.875,
                "end_time": 24.120454545454546,
                "pitch": 45,
                "velocity": 80,
                "duration": 0.24545454545454604,
                "tempo": 120.0
            },
            {
                "start_time": 24.138636363636362,
                "end_time": 24.252272727272725,
                "pitch": 33,
                "velocity": 80,
                "duration": 0.11363636363636331,
                "tempo": 120.0
            },
            {
                "start_time": 24.268181818181816,
                "end_time": 24.52272727272727,
                "pitch": 43,
                "velocity": 80,
                "duration": 0.25454545454545396,
                "tempo": 120.0
            },
            {
                "start_time": 24.538636363636364,
                "end_time": 24.661363636363635,
                "pitch": 33,
                "velocity": 80,
                "duration": 0.12272727272727124,
                "tempo": 120.0
            },
            {
                "start_time": 24.677272727272726,
                "end_time": 24.936363636363634,
                "pitch": 42,
                "velocity": 80,
                "duration": 0.25909090909090793,
                "tempo": 120.0
            },
            {
                "start_time": 24.954545454545453,
                "end_time": 25.2,
                "pitch": 33,
                "velocity": 80,
                "duration": 0.24545454545454604,
                "tempo": 120.0
            },
            {
                "start_time": 25.21590909090909,
                "end_time": 25.331818181818182,
                "pitch": 40,
                "velocity": 80,
                "duration": 0.11590909090909207,
                "tempo": 120.0
            },
            {
                "start_time": 25.347727272727273,
                "end_time": 25.461363636363636,
                "pitch": 42,
                "velocity": 80,
                "duration": 0.11363636363636331,
                "tempo": 120.0
            },
            {
                "start_time": 25.479545454545452,
                "end_time": 25.597727272727273,
                "pitch": 43,
                "velocity": 80,
                "duration": 0.11818181818182083,
                "tempo": 120.0
            },
            {
                "start_time": 25.61590909090909,
                "end_time": 25.73409090909091,
                "pitch": 45,
                "velocity": 80,
                "duration": 0.11818181818182083,
                "tempo": 120.0
            },
            {
                "start_time": 25.752272727272725,
                "end_time": 25.870454545454542,
                "pitch": 35,
                "velocity": 80,
                "duration": 0.11818181818181728,
                "tempo": 120.0
            },
            {
                "start_time": 25.886363636363637,
                "end_time": 26.00681818181818,
                "pitch": 35,
                "velocity": 80,
                "duration": 0.12045454545454248,
                "tempo": 120.0
            },
            {
                "start_time": 26.02272727272727,
                "end_time": 26.268181818181816,
                "pitch": 47,
                "velocity": 80,
                "duration": 0.24545454545454604,
                "tempo": 120.0
            },
            {
                "start_time": 26.284090909090907,
                "end_time": 26.4,
                "pitch": 35,
                "velocity": 80,
                "duration": 0.11590909090909207,
                "tempo": 120.0
            },
            {
                "start_time": 26.41590909090909,
                "end_time": 26.668181818181818,
                "pitch": 45,
                "velocity": 80,
                "duration": 0.25227272727272876,
                "tempo": 120.0
            },
            {
                "start_time": 26.686363636363634,
                "end_time": 26.80681818181818,
                "pitch": 35,
                "velocity": 80,
                "duration": 0.12045454545454604,
                "tempo": 120.0
            },
            {
                "start_time": 26.825,
                "end_time": 27.084090909090907,
                "pitch": 43,
                "velocity": 80,
                "duration": 0.25909090909090793,
                "tempo": 120.0
            },
            {
                "start_time": 27.099999999999998,
                "end_time": 27.347727272727273,
                "pitch": 35,
                "velocity": 80,
                "duration": 0.2477272727272748,
                "tempo": 120.0
            },
            {
                "start_time": 27.363636363636363,
                "end_time": 27.477272727272727,
                "pitch": 42,
                "velocity": 80,
                "duration": 0.11363636363636331,
                "tempo": 120.0
            },
            {
                "start_time": 27.495454545454542,
                "end_time": 27.60909090909091,
                "pitch": 43,
                "velocity": 80,
                "duration": 0.11363636363636687,
                "tempo": 120.0
            },
            {
                "start_time": 27.625,
                "end_time": 27.74772727272727,
                "pitch": 45,
                "velocity": 80,
                "duration": 0.12272727272727124,
                "tempo": 120.0
            },
            {
                "start_time": 27.763636363636362,
                "end_time": 27.886363636363637,
                "pitch": 47,
                "velocity": 80,
                "duration": 0.1227272727272748,
                "tempo": 120.0
            },
            {
                "start_time": 27.902272727272727,
                "end_time": 28.025,
                "pitch": 35,
                "velocity": 80,
                "duration": 0.12272727272727124,
                "tempo": 120.0
            },
            {
                "start_time": 28.04090909090909,
                "end_time": 28.163636363636364,
                "pitch": 35,
                "velocity": 80,
                "duration": 0.1227272727272748,
                "tempo": 120.0
            },
            {
                "start_time": 28.179545454545455,
                "end_time": 28.424999999999997,
                "pitch": 47,
                "velocity": 80,
                "duration": 0.24545454545454248,
                "tempo": 120.0
            },
            {
                "start_time": 28.440909090909088,
                "end_time": 28.55681818181818,
                "pitch": 35,
                "velocity": 80,
                "duration": 0.11590909090909207,
                "tempo": 120.0
            },
            {
                "start_time": 28.57272727272727,
                "end_time": 28.82272727272727,
                "pitch": 45,
                "velocity": 80,
                "duration": 0.25,
                "tempo": 120.0
            },
            {
                "start_time": 28.84090909090909,
                "end_time": 28.959090909090907,
                "pitch": 35,
                "velocity": 80,
                "duration": 0.11818181818181728,
                "tempo": 120.0
            },
            {
                "start_time": 28.977272727272727,
                "end_time": 29.23181818181818,
                "pitch": 43,
                "velocity": 80,
                "duration": 0.25454545454545396,
                "tempo": 120.0
            },
            {
                "start_time": 29.24772727272727,
                "end_time": 29.493181818181817,
                "pitch": 35,
                "velocity": 80,
                "duration": 0.24545454545454604,
                "tempo": 120.0
            },
            {
                "start_time": 29.511363636363637,
                "end_time": 29.625,
                "pitch": 42,
                "velocity": 80,
                "duration": 0.11363636363636331,
                "tempo": 120.0
            },
            {
                "start_time": 29.64090909090909,
                "end_time": 29.75681818181818,
                "pitch": 43,
                "velocity": 80,
                "duration": 0.11590909090908852,
                "tempo": 120.0
            },
            {
                "start_time": 29.77272727272727,
                "end_time": 29.895454545454545,
                "pitch": 45,
                "velocity": 80,
                "duration": 0.1227272727272748,
                "tempo": 120.0
            },
            {
                "start_time": 29.911363636363635,
                "end_time": 30.03181818181818,
                "pitch": 47,
                "velocity": 80,
                "duration": 0.12045454545454604,
                "tempo": 120.0
            },
            {
                "start_time": 30.049999999999997,
                "end_time": 30.170454545454543,
                "pitch": 33,
                "velocity": 80,
                "duration": 0.12045454545454604,
                "tempo": 120.0
            },
            {
                "start_time": 30.188636363636363,
                "end_time": 30.30909090909091,
                "pitch": 33,
                "velocity": 80,
                "duration": 0.12045454545454604,
                "tempo": 120.0
            },
            {
                "start_time": 30.325,
                "end_time": 30.57272727272727,
                "pitch": 45,
                "velocity": 80,
                "duration": 0.24772727272727124,
                "tempo": 120.0
            },
            {
                "start_time": 30.58863636363636,
                "end_time": 30.704545454545453,
                "pitch": 33,
                "velocity": 80,
                "duration": 0.11590909090909207,
                "tempo": 120.0
            },
            {
                "start_time": 30.720454545454544,
                "end_time": 30.970454545454544,
                "pitch": 43,
                "velocity": 80,
                "duration": 0.25,
                "tempo": 120.0
            },
            {
                "start_time": 30.988636363636363,
                "end_time": 31.10681818181818,
                "pitch": 33,
                "velocity": 80,
                "duration": 0.11818181818181728,
                "tempo": 120.0
            },
            {
                "start_time": 31.12272727272727,
                "end_time": 31.379545454545454,
                "pitch": 42,
                "velocity": 80,
                "duration": 0.2568181818181827,
                "tempo": 120.0
            },
            {
                "start_time": 31.395454545454545,
                "end_time": 31.645454545454545,
                "pitch": 33,
                "velocity": 80,
                "duration": 0.25,
                "tempo": 120.0
            },
            {
                "start_time": 31.66363636363636,
                "end_time": 31.779545454545453,
                "pitch": 40,
                "velocity": 80,
                "duration": 0.11590909090909207,
                "tempo": 120.0
            },
            {
                "start_time": 31.795454545454543,
                "end_time": 31.91363636363636,
                "pitch": 42,
                "velocity": 80,
                "duration": 0.11818181818181728,
                "tempo": 120.0
            },
            {
                "start_time": 31.929545454545455,
                "end_time": 32.05,
                "pitch": 43,
                "velocity": 80,
                "duration": 0.12045454545454248,
                "tempo": 120.0
            },
            {
                "start_time": 32.06818181818182,
                "end_time": 32.18863636363636,
                "pitch": 45,
                "velocity": 80,
                "duration": 0.12045454545454248,
                "tempo": 120.0
            },
            {
                "start_time": 32.20681818181818,
                "end_time": 32.32727272727273,
                "pitch": 33,
                "velocity": 80,
                "duration": 0.12045454545454959,
                "tempo": 120.0
            },
            {
                "start_time": 32.345454545454544,
                "end_time": 32.465909090909086,
                "pitch": 33,
                "velocity": 80,
                "duration": 0.12045454545454248,
                "tempo": 120.0
            },
            {
                "start_time": 32.48409090909091,
                "end_time": 32.72954545454545,
                "pitch": 45,
                "velocity": 80,
                "duration": 0.24545454545454248,
                "tempo": 120.0
            },
            {
                "start_time": 32.74545454545454,
                "end_time": 32.861363636363635,
                "pitch": 33,
                "velocity": 80,
                "duration": 0.11590909090909207,
                "tempo": 120.0
            },
            {
                "start_time": 32.877272727272725,
                "end_time": 33.127272727272725,
                "pitch": 43,
                "velocity": 80,
                "duration": 0.25,
                "tempo": 120.0
            },
            {
                "start_time": 33.14545454545454,
                "end_time": 33.263636363636365,
                "pitch": 33,
                "velocity": 80,
                "duration": 0.11818181818182438,
                "tempo": 120.0
            },
            {
                "start_time": 33.279545454545456,
                "end_time": 33.53636363636363,
                "pitch": 42,
                "velocity": 80,
                "duration": 0.2568181818181756,
                "tempo": 120.0
            },
            {
                "start_time": 33.55227272727272,
                "end_time": 33.79772727272727,
                "pitch": 33,
                "velocity": 80,
                "duration": 0.2454545454545496,
                "tempo": 120.0
            },
            {
                "start_time": 33.81363636363636,
                "end_time": 33.929545454545455,
                "pitch": 40,
                "velocity": 80,
                "duration": 0.11590909090909207,
                "tempo": 120.0
            },
            {
                "start_time": 33.945454545454545,
                "end_time": 34.06136363636364,
                "pitch": 42,
                "velocity": 80,
                "duration": 0.11590909090909207,
                "tempo": 120.0
            },
            {
                "start_time": 34.07727272727273,
                "end_time": 34.19772727272727,
                "pitch": 43,
                "velocity": 80,
                "duration": 0.12045454545454248,
                "tempo": 120.0
            },
            {
                "start_time": 34.215909090909086,
                "end_time": 34.336363636363636,
                "pitch": 45,
                "velocity": 80,
                "duration": 0.12045454545454959,
                "tempo": 120.0
            },
            {
                "start_time": 34.35454545454545,
                "end_time": 34.475,
                "pitch": 35,
                "velocity": 80,
                "duration": 0.12045454545454959,
                "tempo": 120.0
            },
            {
                "start_time": 34.49318181818182,
                "end_time": 34.61363636363636,
                "pitch": 35,
                "velocity": 80,
                "duration": 0.12045454545454248,
                "tempo": 120.0
            },
            {
                "start_time": 34.62954545454545,
                "end_time": 34.877272727272725,
                "pitch": 47,
                "velocity": 80,
                "duration": 0.2477272727272748,
                "tempo": 120.0
            },
            {
                "start_time": 34.893181818181816,
                "end_time": 35.00681818181818,
                "pitch": 35,
                "velocity": 80,
                "duration": 0.11363636363636687,
                "tempo": 120.0
            },
            {
                "start_time": 35.02272727272727,
                "end_time": 35.275,
                "pitch": 45,
                "velocity": 80,
                "duration": 0.2522727272727252,
                "tempo": 120.0
            },
            {
                "start_time": 35.29090909090909,
                "end_time": 35.41136363636363,
                "pitch": 35,
                "velocity": 80,
                "duration": 0.12045454545454248,
                "tempo": 120.0
            },
            {
                "start_time": 35.42727272727272,
                "end_time": 35.68181818181818,
                "pitch": 43,
                "velocity": 80,
                "duration": 0.2545454545454575,
                "tempo": 120.0
            },
            {
                "start_time": 35.699999999999996,
                "end_time": 35.949999999999996,
                "pitch": 35,
                "velocity": 80,
                "duration": 0.25,
                "tempo": 120.0
            },
            {
                "start_time": 35.965909090909086,
                "end_time": 36.08409090909091,
                "pitch": 42,
                "velocity": 80,
                "duration": 0.11818181818182438,
                "tempo": 120.0
            },
            {
                "start_time": 36.1,
                "end_time": 36.215909090909086,
                "pitch": 43,
                "velocity": 80,
                "duration": 0.11590909090908497,
                "tempo": 120.0
            },
            {
                "start_time": 36.23409090909091,
                "end_time": 36.35227272727273,
                "pitch": 45,
                "velocity": 80,
                "duration": 0.11818181818181728,
                "tempo": 120.0
            },
            {
                "start_time": 36.37045454545454,
                "end_time": 36.48863636363636,
                "pitch": 47,
                "velocity": 80,
                "duration": 0.11818181818181728,
                "tempo": 120.0
            },
            {
                "start_time": 36.50681818181818,
                "end_time": 36.625,
                "pitch": 35,
                "velocity": 80,
                "duration": 0.11818181818181728,
                "tempo": 120.0
            },
            {
                "start_time": 36.64090909090909,
                "end_time": 36.76136363636363,
                "pitch": 35,
                "velocity": 80,
                "duration": 0.12045454545454248,
                "tempo": 120.0
            },
            {
                "start_time": 36.777272727272724,
                "end_time": 37.02272727272727,
                "pitch": 47,
                "velocity": 80,
                "duration": 0.2454545454545496,
                "tempo": 120.0
            },
            {
                "start_time": 37.038636363636364,
                "end_time": 37.154545454545456,
                "pitch": 35,
                "velocity": 80,
                "duration": 0.11590909090909207,
                "tempo": 120.0
            },
            {
                "start_time": 37.17045454545455,
                "end_time": 37.42045454545455,
                "pitch": 45,
                "velocity": 80,
                "duration": 0.25,
                "tempo": 120.0
            },
            {
                "start_time": 37.43863636363636,
                "end_time": 37.55681818181818,
                "pitch": 35,
                "velocity": 80,
                "duration": 0.11818181818181728,
                "tempo": 120.0
            },
            {
                "start_time": 37.574999999999996,
                "end_time": 37.82954545454545,
                "pitch": 43,
                "velocity": 80,
                "duration": 0.2545454545454575,
                "tempo": 120.0
            },
            {
                "start_time": 37.845454545454544,
                "end_time": 38.09772727272727,
                "pitch": 35,
                "velocity": 80,
                "duration": 0.2522727272727252,
                "tempo": 120.0
            },
            {
                "start_time": 38.11363636363636,
                "end_time": 38.22954545454545,
                "pitch": 42,
                "velocity": 80,
                "duration": 0.11590909090909207,
                "tempo": 120.0
            },
            {
                "start_time": 38.24772727272727,
                "end_time": 38.36363636363636,
                "pitch": 43,
                "velocity": 80,
                "duration": 0.11590909090909207,
                "tempo": 120.0
            },
            {
                "start_time": 38.37954545454545,
                "end_time": 38.502272727272725,
                "pitch": 45,
                "velocity": 80,
                "duration": 0.1227272727272748,
                "tempo": 120.0
            },
            {
                "start_time": 38.518181818181816,
                "end_time": 38.64090909090909,
                "pitch": 47,
                "velocity": 80,
                "duration": 0.1227272727272748,
                "tempo": 120.0
            },
            {
                "start_time": 38.65681818181818,
                "end_time": 38.779545454545456,
                "pitch": 33,
                "velocity": 80,
                "duration": 0.1227272727272748,
                "tempo": 120.0
            },
            {
                "start_time": 38.79545454545455,
                "end_time": 38.91590909090909,
                "pitch": 33,
                "velocity": 80,
                "duration": 0.12045454545454248,
                "tempo": 120.0
            },
            {
                "start_time": 38.934090909090905,
                "end_time": 39.175,
                "pitch": 45,
                "velocity": 80,
                "duration": 0.24090909090909207,
                "tempo": 120.0
            },
            {
                "start_time": 39.19090909090909,
                "end_time": 39.304545454545455,
                "pitch": 33,
                "velocity": 80,
                "duration": 0.11363636363636687,
                "tempo": 120.0
            },
            {
                "start_time": 39.320454545454545,
                "end_time": 39.570454545454545,
                "pitch": 43,
                "velocity": 80,
                "duration": 0.25,
                "tempo": 120.0
            },
            {
                "start_time": 39.58863636363636,
                "end_time": 39.709090909090904,
                "pitch": 33,
                "velocity": 80,
                "duration": 0.12045454545454248,
                "tempo": 120.0
            },
            {
                "start_time": 39.72727272727273,
                "end_time": 39.986363636363635,
                "pitch": 42,
                "velocity": 80,
                "duration": 0.25909090909090793,
                "tempo": 120.0
            },
            {
                "start_time": 40.002272727272725,
                "end_time": 40.24772727272727,
                "pitch": 33,
                "velocity": 80,
                "duration": 0.24545454545454248,
                "tempo": 120.0
            },
            {
                "start_time": 40.26590909090909,
                "end_time": 40.37954545454545,
                "pitch": 40,
                "velocity": 80,
                "duration": 0.11363636363635976,
                "tempo": 120.0
            },
            {
                "start_time": 40.39545454545454,
                "end_time": 40.51136363636363,
                "pitch": 42,
                "velocity": 80,
                "duration": 0.11590909090909207,
                "tempo": 120.0
            },
            {
                "start_time": 40.527272727272724,
                "end_time": 40.64772727272727,
                "pitch": 43,
                "velocity": 80,
                "duration": 0.12045454545454959,
                "tempo": 120.0
            },
            {
                "start_time": 40.663636363636364,
                "end_time": 40.78409090909091,
                "pitch": 45,
                "velocity": 80,
                "duration": 0.12045454545454248,
                "tempo": 120.0
            },
            {
                "start_time": 40.8,
                "end_time": 40.918181818181814,
                "pitch": 33,
                "velocity": 80,
                "duration": 0.11818181818181728,
                "tempo": 120.0
            },
            {
                "start_time": 40.93636363636364,
                "end_time": 41.054545454545455,
                "pitch": 33,
                "velocity": 80,
                "duration": 0.11818181818181728,
                "tempo": 120.0
            },
            {
                "start_time": 41.07272727272727,
                "end_time": 41.32272727272727,
                "pitch": 45,
                "velocity": 80,
                "duration": 0.25,
                "tempo": 120.0
            },
            {
                "start_time": 41.33863636363636,
                "end_time": 41.45681818181818,
                "pitch": 33,
                "velocity": 80,
                "duration": 0.11818181818181728,
                "tempo": 120.0
            },
            {
                "start_time": 41.47272727272727,
                "end_time": 41.725,
                "pitch": 43,
                "velocity": 80,
                "duration": 0.2522727272727323,
                "tempo": 120.0
            },
            {
                "start_time": 41.74318181818182,
                "end_time": 41.861363636363635,
                "pitch": 33,
                "velocity": 80,
                "duration": 0.11818181818181728,
                "tempo": 120.0
            },
            {
                "start_time": 41.877272727272725,
                "end_time": 42.13409090909091,
                "pitch": 42,
                "velocity": 80,
                "duration": 0.2568181818181827,
                "tempo": 120.0
            },
            {
                "start_time": 42.15,
                "end_time": 42.4,
                "pitch": 33,
                "velocity": 80,
                "duration": 0.25,
                "tempo": 120.0
            },
            {
                "start_time": 42.418181818181814,
                "end_time": 42.53409090909091,
                "pitch": 40,
                "velocity": 80,
                "duration": 0.11590909090909207,
                "tempo": 120.0
            },
            {
                "start_time": 42.55,
                "end_time": 42.668181818181814,
                "pitch": 42,
                "velocity": 80,
                "duration": 0.11818181818181728,
                "tempo": 120.0
            },
            {
                "start_time": 42.684090909090905,
                "end_time": 42.804545454545455,
                "pitch": 43,
                "velocity": 80,
                "duration": 0.12045454545454959,
                "tempo": 120.0
            },
            {
                "start_time": 42.820454545454545,
                "end_time": 42.93863636363636,
                "pitch": 45,
                "velocity": 80,
                "duration": 0.11818181818181728,
                "tempo": 120.0
            },
            {
                "start_time": 42.95681818181818,
                "end_time": 43.074999999999996,
                "pitch": 35,
                "velocity": 80,
                "duration": 0.11818181818181728,
                "tempo": 120.0
            },
            {
                "start_time": 43.09318181818182,
                "end_time": 43.211363636363636,
                "pitch": 35,
                "velocity": 80,
                "duration": 0.11818181818181728,
                "tempo": 120.0
            },
            {
                "start_time": 43.22727272727273,
                "end_time": 43.475,
                "pitch": 47,
                "velocity": 80,
                "duration": 0.2477272727272748,
                "tempo": 120.0
            },
            {
                "start_time": 43.49090909090909,
                "end_time": 43.60454545454545,
                "pitch": 35,
                "velocity": 80,
                "duration": 0.11363636363635976,
                "tempo": 120.0
            },
            {
                "start_time": 43.62272727272727,
                "end_time": 43.87272727272727,
                "pitch": 45,
                "velocity": 80,
                "duration": 0.25,
                "tempo": 120.0
            },
            {
                "start_time": 43.88863636363636,
                "end_time": 44.00909090909091,
                "pitch": 35,
                "velocity": 80,
                "duration": 0.12045454545454959,
                "tempo": 120.0
            },
            {
                "start_time": 44.025,
                "end_time": 44.27954545454545,
                "pitch": 43,
                "velocity": 80,
                "duration": 0.2545454545454504,
                "tempo": 120.0
            },
            {
                "start_time": 44.29772727272727,
                "end_time": 44.54772727272727,
                "pitch": 35,
                "velocity": 80,
                "duration": 0.25,
                "tempo": 120.0
            },
            {
                "start_time": 44.56363636363636,
                "end_time": 44.68181818181818,
                "pitch": 42,
                "velocity": 80,
                "duration": 0.11818181818181728,
                "tempo": 120.0
            },
            {
                "start_time": 44.69772727272727,
                "end_time": 44.81590909090909,
                "pitch": 43,
                "velocity": 80,
                "duration": 0.11818181818181728,
                "tempo": 120.0
            },
            {
                "start_time": 44.83181818181818,
                "end_time": 44.95227272727273,
                "pitch": 45,
                "velocity": 80,
                "duration": 0.12045454545454959,
                "tempo": 120.0
            },
            {
                "start_time": 44.970454545454544,
                "end_time": 45.090909090909086,
                "pitch": 47,
                "velocity": 80,
                "duration": 0.12045454545454248,
                "tempo": 120.0
            },
            {
                "start_time": 45.10909090909091,
                "end_time": 45.22954545454545,
                "pitch": 35,
                "velocity": 80,
                "duration": 0.12045454545454248,
                "tempo": 120.0
            },
            {
                "start_time": 45.24772727272727,
                "end_time": 45.36818181818182,
                "pitch": 35,
                "velocity": 80,
                "duration": 0.12045454545454959,
                "tempo": 120.0
            },
            {
                "start_time": 45.38409090909091,
                "end_time": 45.625,
                "pitch": 47,
                "velocity": 80,
                "duration": 0.24090909090909207,
                "tempo": 120.0
            },
            {
                "start_time": 45.64090909090909,
                "end_time": 45.75454545454545,
                "pitch": 35,
                "velocity": 80,
                "duration": 0.11363636363635976,
                "tempo": 120.0
            },
            {
                "start_time": 45.77045454545454,
                "end_time": 46.02272727272727,
                "pitch": 45,
                "velocity": 80,
                "duration": 0.2522727272727323,
                "tempo": 120.0
            },
            {
                "start_time": 46.038636363636364,
                "end_time": 46.15909090909091,
                "pitch": 35,
                "velocity": 80,
                "duration": 0.12045454545454248,
                "tempo": 120.0
            },
            {
                "start_time": 46.17727272727272,
                "end_time": 46.43636363636364,
                "pitch": 43,
                "velocity": 80,
                "duration": 0.25909090909091503,
                "tempo": 120.0
            },
            {
                "start_time": 46.45227272727273,
                "end_time": 46.699999999999996,
                "pitch": 35,
                "velocity": 80,
                "duration": 0.2477272727272677,
                "tempo": 120.0
            },
            {
                "start_time": 46.715909090909086,
                "end_time": 46.83181818181818,
                "pitch": 42,
                "velocity": 80,
                "duration": 0.11590909090909207,
                "tempo": 120.0
            },
            {
                "start_time": 46.84772727272727,
                "end_time": 46.961363636363636,
                "pitch": 43,
                "velocity": 80,
                "duration": 0.11363636363636687,
                "tempo": 120.0
            },
            {
                "start_time": 46.97954545454545,
                "end_time": 47.099999999999994,
                "pitch": 45,
                "velocity": 80,
                "duration": 0.12045454545454248,
                "tempo": 120.0
            },
            {
                "start_time": 47.11818181818182,
                "end_time": 47.23863636363636,
                "pitch": 47,
                "velocity": 80,
                "duration": 0.12045454545454248,
                "tempo": 120.0
            },
            {
                "start_time": 47.25454545454545,
                "end_time": 47.377272727272725,
                "pitch": 33,
                "velocity": 80,
                "duration": 0.1227272727272748,
                "tempo": 120.0
            },
            {
                "start_time": 47.393181818181816,
                "end_time": 47.51590909090909,
                "pitch": 33,
                "velocity": 80,
                "duration": 0.1227272727272748,
                "tempo": 120.0
            },
            {
                "start_time": 47.53181818181818,
                "end_time": 47.777272727272724,
                "pitch": 45,
                "velocity": 80,
                "duration": 0.24545454545454248,
                "tempo": 120.0
            },
            {
                "start_time": 47.793181818181814,
                "end_time": 47.90909090909091,
                "pitch": 33,
                "velocity": 80,
                "duration": 0.11590909090909207,
                "tempo": 120.0
            },
            {
                "start_time": 47.925,
                "end_time": 48.17727272727272,
                "pitch": 43,
                "velocity": 80,
                "duration": 0.2522727272727252,
                "tempo": 120.0
            },
            {
                "start_time": 48.19318181818181,
                "end_time": 48.31136363636364,
                "pitch": 33,
                "velocity": 80,
                "duration": 0.11818181818182438,
                "tempo": 120.0
            },
            {
                "start_time": 48.32954545454545,
                "end_time": 48.584090909090904,
                "pitch": 42,
                "velocity": 80,
                "duration": 0.2545454545454504,
                "tempo": 120.0
            },
            {
                "start_time": 48.599999999999994,
                "end_time": 48.85227272727273,
                "pitch": 33,
                "velocity": 80,
                "duration": 0.2522727272727323,
                "tempo": 120.0
            },
            {
                "start_time": 48.86818181818182,
                "end_time": 48.98409090909091,
                "pitch": 40,
                "velocity": 80,
                "duration": 0.11590909090909207,
                "tempo": 120.0
            },
            {
                "start_time": 49.002272727272725,
                "end_time": 49.11818181818182,
                "pitch": 42,
                "velocity": 80,
                "duration": 0.11590909090909207,
                "tempo": 120.0
            },
            {
                "start_time": 49.13636363636363,
                "end_time": 49.252272727272725,
                "pitch": 43,
                "velocity": 80,
                "duration": 0.11590909090909207,
                "tempo": 120.0
            },
            {
                "start_time": 49.268181818181816,
                "end_time": 49.38636363636363,
                "pitch": 45,
                "velocity": 80,
                "duration": 0.11818181818181728,
                "tempo": 120.0
            },
            {
                "start_time": 49.402272727272724,
                "end_time": 49.52045454545454,
                "pitch": 33,
                "velocity": 80,
                "duration": 0.11818181818181728,
                "tempo": 120.0
            },
            {
                "start_time": 49.53636363636363,
                "end_time": 49.652272727272724,
                "pitch": 33,
                "velocity": 80,
                "duration": 0.11590909090909207,
                "tempo": 120.0
            },
            {
                "start_time": 49.67045454545454,
                "end_time": 49.92045454545454,
                "pitch": 45,
                "velocity": 80,
                "duration": 0.25,
                "tempo": 120.0
            },
            {
                "start_time": 49.93636363636364,
                "end_time": 50.054545454545455,
                "pitch": 33,
                "velocity": 80,
                "duration": 0.11818181818181728,
                "tempo": 120.0
            },
            {
                "start_time": 50.070454545454545,
                "end_time": 50.32272727272727,
                "pitch": 43,
                "velocity": 80,
                "duration": 0.2522727272727252,
                "tempo": 120.0
            },
            {
                "start_time": 50.340909090909086,
                "end_time": 50.459090909090904,
                "pitch": 33,
                "velocity": 80,
                "duration": 0.11818181818181728,
                "tempo": 120.0
            },
            {
                "start_time": 50.47727272727273,
                "end_time": 50.73181818181818,
                "pitch": 42,
                "velocity": 80,
                "duration": 0.2545454545454504,
                "tempo": 120.0
            },
            {
                "start_time": 50.74772727272727,
                "end_time": 50.99772727272727,
                "pitch": 33,
                "velocity": 80,
                "duration": 0.25,
                "tempo": 120.0
            },
            {
                "start_time": 51.01590909090909,
                "end_time": 51.13181818181818,
                "pitch": 40,
                "velocity": 80,
                "duration": 0.11590909090909207,
                "tempo": 120.0
            },
            {
                "start_time": 51.14772727272727,
                "end_time": 51.26590909090909,
                "pitch": 42,
                "velocity": 80,
                "duration": 0.11818181818181728,
                "tempo": 120.0
            },
            {
                "start_time": 51.28181818181818,
                "end_time": 51.402272727272724,
                "pitch": 43,
                "velocity": 80,
                "duration": 0.12045454545454248,
                "tempo": 120.0
            },
            {
                "start_time": 51.418181818181814,
                "end_time": 51.538636363636364,
                "pitch": 45,
                "velocity": 80,
                "duration": 0.12045454545454959,
                "tempo": 120.0
            }
        ],
        "French Horn": [
            {
                "start_time": 49.736363636363635,
                "end_time": 49.986363636363635,
                "pitch": 69,
                "velocity": 51,
                "duration": 0.25,
                "tempo": 120.0
            },
            {
                "start_time": 50.00454545454545,
                "end_time": 50.12045454545454,
                "pitch": 57,
                "velocity": 51,
                "duration": 0.11590909090909207,
                "tempo": 120.0
            },
            {
                "start_time": 50.13636363636363,
                "end_time": 50.39090909090909,
                "pitch": 67,
                "velocity": 51,
                "duration": 0.2545454545454575,
                "tempo": 120.0
            },
            {
                "start_time": 50.40909090909091,
                "end_time": 50.527272727272724,
                "pitch": 57,
                "velocity": 51,
                "duration": 0.11818181818181728,
                "tempo": 120.0
            },
            {
                "start_time": 50.54545454545454,
                "end_time": 50.79772727272727,
                "pitch": 66,
                "velocity": 51,
                "duration": 0.2522727272727323,
                "tempo": 120.0
            },
            {
                "start_time": 50.81590909090909,
                "end_time": 51.06590909090909,
                "pitch": 57,
                "velocity": 51,
                "duration": 0.25,
                "tempo": 120.0
            },
            {
                "start_time": 51.08181818181818,
                "end_time": 51.199999999999996,
                "pitch": 64,
                "velocity": 51,
                "duration": 0.11818181818181728,
                "tempo": 120.0
            },
            {
                "start_time": 51.215909090909086,
                "end_time": 51.334090909090904,
                "pitch": 66,
                "velocity": 51,
                "duration": 0.11818181818181728,
                "tempo": 120.0
            },
            {
                "start_time": 51.349999999999994,
                "end_time": 51.470454545454544,
                "pitch": 67,
                "velocity": 51,
                "duration": 0.12045454545454959,
                "tempo": 120.0
            },
            {
                "start_time": 51.486363636363635,
                "end_time": 51.538636363636364,
                "pitch": 69,
                "velocity": 51,
                "duration": 0.05227272727272947,
                "tempo": 120.0
            }
        ]
    }
}