{
    "track_id": "Space Harrier 3-D (FM) - 07 - Volcano",
    "mood": "angry",
    "instruments": {
        "Electric Guitar (clean)": [
            {
                "start_time": 0.015909090909090907,
                "end_time": 0.08181818181818182,
                "pitch": 36,
                "velocity": 64,
                "duration": 0.06590909090909092,
                "tempo": 120.0
            },
            {
                "start_time": 0.09999999999999999,
                "end_time": 0.19999999999999998,
                "pitch": 36,
                "velocity": 64,
                "duration": 0.09999999999999999,
                "tempo": 120.0
            },
            {
                "start_time": 0.2159090909090909,
                "end_time": 0.39999999999999997,
                "pitch": 36,
                "velocity": 64,
                "duration": 0.18409090909090906,
                "tempo": 120.0
            },
            {
                "start_time": 0.4159090909090909,
                "end_time": 0.6,
                "pitch": 34,
                "velocity": 64,
                "duration": 0.18409090909090908,
                "tempo": 120.0
            },
            {
                "start_time": 0.6159090909090909,
                "end_time": 0.7999999999999999,
                "pitch": 36,
                "velocity": 64,
                "duration": 0.18409090909090908,
                "tempo": 120.0
            },
            {
                "start_time": 0.8159090909090909,
                "end_time": 1.0818181818181818,
                "pitch": 41,
                "velocity": 64,
                "duration": 0.2659090909090909,
                "tempo": 120.0
            },
            {
                "start_time": 1.0999999999999999,
                "end_time": 1.2818181818181817,
                "pitch": 39,
                "velocity": 64,
                "duration": 0.18181818181818188,
                "tempo": 120.0
            },
            {
                "start_time": 1.3,
                "end_time": 1.4,
                "pitch": 34,
                "velocity": 64,
                "duration": 0.09999999999999987,
                "tempo": 120.0
            },
            {
                "start_time": 1.4159090909090908,
                "end_time": 1.4818181818181817,
                "pitch": 36,
                "velocity": 64,
                "duration": 0.06590909090909092,
                "tempo": 120.0
            },
            {
                "start_time": 1.5,
                "end_time": 1.5999999999999999,
                "pitch": 39,
                "velocity": 64,
                "duration": 0.09999999999999987,
                "tempo": 120.0
            },
            {
                "start_time": 1.6159090909090907,
                "end_time": 1.884090909090909,
                "pitch": 41,
                "velocity": 64,
                "duration": 0.2681818181818183,
                "tempo": 120.0
            },
            {
                "start_time": 1.9022727272727271,
                "end_time": 2.4022727272727273,
                "pitch": 39,
                "velocity": 64,
                "duration": 0.5000000000000002,
                "tempo": 120.0
            },
            {
                "start_time": 2.418181818181818,
                "end_time": 2.686363636363636,
                "pitch": 34,
                "velocity": 64,
                "duration": 0.2681818181818181,
                "tempo": 120.0
            },
            {
                "start_time": 2.702272727272727,
                "end_time": 2.952272727272727,
                "pitch": 36,
                "velocity": 64,
                "duration": 0.25,
                "tempo": 120.0
            },
            {
                "start_time": 2.9681818181818183,
                "end_time": 3.202272727272727,
                "pitch": 44,
                "velocity": 64,
                "duration": 0.2340909090909089,
                "tempo": 120.0
            },
            {
                "start_time": 3.218181818181818,
                "end_time": 3.286363636363636,
                "pitch": 34,
                "velocity": 64,
                "duration": 0.06818181818181834,
                "tempo": 120.0
            },
            {
                "start_time": 3.3022727272727272,
                "end_time": 3.402272727272727,
                "pitch": 36,
                "velocity": 64,
                "duration": 0.09999999999999964,
                "tempo": 120.0
            },
            {
                "start_time": 3.4204545454545454,
                "end_time": 3.6045454545454545,
                "pitch": 36,
                "velocity": 64,
                "duration": 0.18409090909090908,
                "tempo": 120.0
            },
            {
                "start_time": 3.620454545454545,
                "end_time": 3.8045454545454542,
                "pitch": 34,
                "velocity": 64,
                "duration": 0.18409090909090908,
                "tempo": 120.0
            },
            {
                "start_time": 3.8204545454545453,
                "end_time": 4.004545454545454,
                "pitch": 36,
                "velocity": 64,
                "duration": 0.18409090909090864,
                "tempo": 120.0
            },
            {
                "start_time": 4.0204545454545455,
                "end_time": 4.288636363636363,
                "pitch": 41,
                "velocity": 64,
                "duration": 0.26818181818181763,
                "tempo": 120.0
            },
            {
                "start_time": 4.304545454545455,
                "end_time": 4.488636363636363,
                "pitch": 39,
                "velocity": 64,
                "duration": 0.18409090909090864,
                "tempo": 120.0
            },
            {
                "start_time": 4.504545454545454,
                "end_time": 4.6068181818181815,
                "pitch": 34,
                "velocity": 64,
                "duration": 0.10227272727272751,
                "tempo": 120.0
            },
            {
                "start_time": 4.622727272727272,
                "end_time": 4.6909090909090905,
                "pitch": 36,
                "velocity": 64,
                "duration": 0.06818181818181834,
                "tempo": 120.0
            },
            {
                "start_time": 4.706818181818182,
                "end_time": 4.806818181818182,
                "pitch": 39,
                "velocity": 64,
                "duration": 0.09999999999999964,
                "tempo": 120.0
            },
            {
                "start_time": 4.825,
                "end_time": 5.090909090909091,
                "pitch": 41,
                "velocity": 64,
                "duration": 0.26590909090909065,
                "tempo": 120.0
            },
            {
                "start_time": 5.1068181818181815,
                "end_time": 5.156818181818181,
                "pitch": 39,
                "velocity": 64,
                "duration": 0.04999999999999982,
                "tempo": 120.0
            },
            {
                "start_time": 5.61590909090909,
                "end_time": 5.890909090909091,
                "pitch": 34,
                "velocity": 64,
                "duration": 0.27500000000000036,
                "tempo": 120.0
            },
            {
                "start_time": 5.906818181818181,
                "end_time": 6.211363636363636,
                "pitch": 36,
                "velocity": 64,
                "duration": 0.3045454545454547,
                "tempo": 120.0
            },
            {
                "start_time": 6.2295454545454545,
                "end_time": 6.413636363636363,
                "pitch": 44,
                "velocity": 64,
                "duration": 0.18409090909090864,
                "tempo": 120.0
            },
            {
                "start_time": 6.429545454545455,
                "end_time": 6.497727272727272,
                "pitch": 44,
                "velocity": 64,
                "duration": 0.06818181818181746,
                "tempo": 120.0
            },
            {
                "start_time": 6.513636363636364,
                "end_time": 6.613636363636363,
                "pitch": 44,
                "velocity": 64,
                "duration": 0.09999999999999964,
                "tempo": 120.0
            },
            {
                "start_time": 6.631818181818182,
                "end_time": 6.8159090909090905,
                "pitch": 44,
                "velocity": 64,
                "duration": 0.18409090909090864,
                "tempo": 120.0
            },
            {
                "start_time": 6.831818181818181,
                "end_time": 7.015909090909091,
                "pitch": 34,
                "velocity": 64,
                "duration": 0.18409090909090953,
                "tempo": 120.0
            },
            {
                "start_time": 7.031818181818181,
                "end_time": 7.215909090909091,
                "pitch": 36,
                "velocity": 64,
                "duration": 0.18409090909090953,
                "tempo": 120.0
            },
            {
                "start_time": 7.2318181818181815,
                "end_time": 7.5,
                "pitch": 41,
                "velocity": 64,
                "duration": 0.2681818181818185,
                "tempo": 120.0
            },
            {
                "start_time": 7.518181818181818,
                "end_time": 7.699999999999999,
                "pitch": 36,
                "velocity": 64,
                "duration": 0.18181818181818166,
                "tempo": 120.0
            },
            {
                "start_time": 7.715909090909091,
                "end_time": 7.8136363636363635,
                "pitch": 34,
                "velocity": 64,
                "duration": 0.09772727272727266,
                "tempo": 120.0
            },
            {
                "start_time": 7.829545454545454,
                "end_time": 7.8954545454545455,
                "pitch": 36,
                "velocity": 64,
                "duration": 0.06590909090909136,
                "tempo": 120.0
            },
            {
                "start_time": 7.911363636363636,
                "end_time": 8.011363636363637,
                "pitch": 39,
                "velocity": 64,
                "duration": 0.10000000000000053,
                "tempo": 120.0
            },
            {
                "start_time": 8.027272727272727,
                "end_time": 8.309090909090909,
                "pitch": 41,
                "velocity": 64,
                "duration": 0.2818181818181813,
                "tempo": 120.0
            },
            {
                "start_time": 8.327272727272726,
                "end_time": 8.825,
                "pitch": 39,
                "velocity": 64,
                "duration": 0.497727272727273,
                "tempo": 120.0
            },
            {
                "start_time": 8.84090909090909,
                "end_time": 9.10909090909091,
                "pitch": 34,
                "velocity": 64,
                "duration": 0.2681818181818194,
                "tempo": 120.0
            },
            {
                "start_time": 9.127272727272727,
                "end_time": 9.427272727272728,
                "pitch": 36,
                "velocity": 64,
                "duration": 0.3000000000000007,
                "tempo": 120.0
            },
            {
                "start_time": 9.443181818181818,
                "end_time": 9.627272727272727,
                "pitch": 44,
                "velocity": 64,
                "duration": 0.18409090909090864,
                "tempo": 120.0
            },
            {
                "start_time": 9.643181818181818,
                "end_time": 9.711363636363636,
                "pitch": 44,
                "velocity": 64,
                "duration": 0.06818181818181834,
                "tempo": 120.0
            },
            {
                "start_time": 9.727272727272727,
                "end_time": 9.827272727272726,
                "pitch": 44,
                "velocity": 64,
                "duration": 0.09999999999999964,
                "tempo": 120.0
            },
            {
                "start_time": 9.845454545454546,
                "end_time": 10.029545454545454,
                "pitch": 44,
                "velocity": 64,
                "duration": 0.18409090909090864,
                "tempo": 120.0
            },
            {
                "start_time": 10.045454545454545,
                "end_time": 10.23181818181818,
                "pitch": 34,
                "velocity": 64,
                "duration": 0.18636363636363562,
                "tempo": 120.0
            },
            {
                "start_time": 10.247727272727273,
                "end_time": 10.431818181818182,
                "pitch": 36,
                "velocity": 64,
                "duration": 0.18409090909090864,
                "tempo": 120.0
            },
            {
                "start_time": 10.45,
                "end_time": 10.718181818181817,
                "pitch": 41,
                "velocity": 64,
                "duration": 0.26818181818181763,
                "tempo": 120.0
            },
            {
                "start_time": 10.73409090909091,
                "end_time": 10.915909090909091,
                "pitch": 36,
                "velocity": 64,
                "duration": 0.18181818181818166,
                "tempo": 120.0
            },
            {
                "start_time": 10.931818181818182,
                "end_time": 11.031818181818181,
                "pitch": 34,
                "velocity": 64,
                "duration": 0.09999999999999964,
                "tempo": 120.0
            },
            {
                "start_time": 11.047727272727272,
                "end_time": 11.111363636363636,
                "pitch": 36,
                "velocity": 64,
                "duration": 0.06363636363636438,
                "tempo": 120.0
            },
            {
                "start_time": 11.129545454545454,
                "end_time": 11.227272727272727,
                "pitch": 39,
                "velocity": 64,
                "duration": 0.09772727272727266,
                "tempo": 120.0
            },
            {
                "start_time": 11.243181818181817,
                "end_time": 11.518181818181818,
                "pitch": 41,
                "velocity": 64,
                "duration": 0.27500000000000036,
                "tempo": 120.0
            },
            {
                "start_time": 11.534090909090908,
                "end_time": 11.636363636363637,
                "pitch": 39,
                "velocity": 64,
                "duration": 0.1022727272727284,
                "tempo": 120.0
            },
            {
                "start_time": 12.047727272727272,
                "end_time": 12.320454545454545,
                "pitch": 34,
                "velocity": 64,
                "duration": 0.2727272727272734,
                "tempo": 120.0
            },
            {
                "start_time": 12.338636363636363,
                "end_time": 12.636363636363635,
                "pitch": 36,
                "velocity": 64,
                "duration": 0.29772727272727195,
                "tempo": 120.0
            },
            {
                "start_time": 12.652272727272727,
                "end_time": 12.831818181818182,
                "pitch": 44,
                "velocity": 64,
                "duration": 0.17954545454545467,
                "tempo": 120.0
            },
            {
                "start_time": 12.85,
                "end_time": 12.918181818181818,
                "pitch": 44,
                "velocity": 64,
                "duration": 0.06818181818181834,
                "tempo": 120.0
            },
            {
                "start_time": 12.934090909090909,
                "end_time": 13.038636363636362,
                "pitch": 43,
                "velocity": 64,
                "duration": 0.10454545454545361,
                "tempo": 120.0
            },
            {
                "start_time": 13.054545454545455,
                "end_time": 13.122727272727271,
                "pitch": 42,
                "velocity": 64,
                "duration": 0.06818181818181657,
                "tempo": 120.0
            },
            {
                "start_time": 13.14090909090909,
                "end_time": 13.243181818181817,
                "pitch": 41,
                "velocity": 64,
                "duration": 0.10227272727272663,
                "tempo": 120.0
            },
            {
                "start_time": 13.259090909090908,
                "end_time": 13.327272727272726,
                "pitch": 40,
                "velocity": 64,
                "duration": 0.06818181818181834,
                "tempo": 120.0
            },
            {
                "start_time": 13.343181818181817,
                "end_time": 13.443181818181818,
                "pitch": 39,
                "velocity": 64,
                "duration": 0.10000000000000142,
                "tempo": 120.0
            },
            {
                "start_time": 13.459090909090909,
                "end_time": 13.527272727272727,
                "pitch": 38,
                "velocity": 64,
                "duration": 0.06818181818181834,
                "tempo": 120.0
            },
            {
                "start_time": 13.543181818181818,
                "end_time": 13.643181818181818,
                "pitch": 37,
                "velocity": 64,
                "duration": 0.09999999999999964,
                "tempo": 120.0
            },
            {
                "start_time": 13.659090909090908,
                "end_time": 13.725,
                "pitch": 39,
                "velocity": 64,
                "duration": 0.06590909090909136,
                "tempo": 120.0
            },
            {
                "start_time": 13.74090909090909,
                "end_time": 13.838636363636363,
                "pitch": 46,
                "velocity": 64,
                "duration": 0.09772727272727266,
                "tempo": 120.0
            },
            {
                "start_time": 13.854545454545454,
                "end_time": 13.920454545454545,
                "pitch": 39,
                "velocity": 64,
                "duration": 0.06590909090909136,
                "tempo": 120.0
            },
            {
                "start_time": 13.936363636363636,
                "end_time": 14.034090909090908,
                "pitch": 47,
                "velocity": 64,
                "duration": 0.09772727272727266,
                "tempo": 120.0
            },
            {
                "start_time": 14.052272727272726,
                "end_time": 14.120454545454544,
                "pitch": 39,
                "velocity": 64,
                "duration": 0.06818181818181834,
                "tempo": 120.0
            },
            {
                "start_time": 14.138636363636364,
                "end_time": 14.24090909090909,
                "pitch": 48,
                "velocity": 64,
                "duration": 0.10227272727272663,
                "tempo": 120.0
            },
            {
                "start_time": 14.256818181818181,
                "end_time": 14.327272727272726,
                "pitch": 39,
                "velocity": 64,
                "duration": 0.07045454545454533,
                "tempo": 120.0
            },
            {
                "start_time": 14.343181818181817,
                "end_time": 14.445454545454545,
                "pitch": 51,
                "velocity": 64,
                "duration": 0.1022727272727284,
                "tempo": 120.0
            },
            {
                "start_time": 14.463636363636363,
                "end_time": 14.529545454545454,
                "pitch": 39,
                "velocity": 64,
                "duration": 0.06590909090909136,
                "tempo": 120.0
            },
            {
                "start_time": 14.547727272727272,
                "end_time": 14.647727272727272,
                "pitch": 53,
                "velocity": 64,
                "duration": 0.09999999999999964,
                "tempo": 120.0
            },
            {
                "start_time": 14.663636363636362,
                "end_time": 14.73181818181818,
                "pitch": 39,
                "velocity": 64,
                "duration": 0.06818181818181834,
                "tempo": 120.0
            },
            {
                "start_time": 14.747727272727271,
                "end_time": 14.847727272727273,
                "pitch": 51,
                "velocity": 64,
                "duration": 0.10000000000000142,
                "tempo": 120.0
            },
            {
                "start_time": 14.86590909090909,
                "end_time": 14.931818181818182,
                "pitch": 39,
                "velocity": 64,
                "duration": 0.06590909090909136,
                "tempo": 120.0
            },
            {
                "start_time": 14.95,
                "end_time": 15.049999999999999,
                "pitch": 50,
                "velocity": 64,
                "duration": 0.09999999999999964,
                "tempo": 120.0
            },
            {
                "start_time": 15.06590909090909,
                "end_time": 15.134090909090908,
                "pitch": 39,
                "velocity": 64,
                "duration": 0.06818181818181834,
                "tempo": 120.0
            },
            {
                "start_time": 15.149999999999999,
                "end_time": 15.252272727272727,
                "pitch": 51,
                "velocity": 64,
                "duration": 0.1022727272727284,
                "tempo": 120.0
            },
            {
                "start_time": 15.268181818181818,
                "end_time": 15.334090909090909,
                "pitch": 39,
                "velocity": 64,
                "duration": 0.06590909090909136,
                "tempo": 120.0
            },
            {
                "start_time": 15.352272727272727,
                "end_time": 15.452272727272726,
                "pitch": 53,
                "velocity": 64,
                "duration": 0.09999999999999964,
                "tempo": 120.0
            },
            {
                "start_time": 15.468181818181817,
                "end_time": 15.534090909090908,
                "pitch": 39,
                "velocity": 64,
                "duration": 0.06590909090909136,
                "tempo": 120.0
            },
            {
                "start_time": 15.552272727272726,
                "end_time": 15.652272727272727,
                "pitch": 51,
                "velocity": 64,
                "duration": 0.10000000000000142,
                "tempo": 120.0
            },
            {
                "start_time": 15.668181818181818,
                "end_time": 15.736363636363636,
                "pitch": 39,
                "velocity": 64,
                "duration": 0.06818181818181834,
                "tempo": 120.0
            },
            {
                "start_time": 15.752272727272727,
                "end_time": 15.852272727272727,
                "pitch": 50,
                "velocity": 64,
                "duration": 0.09999999999999964,
                "tempo": 120.0
            },
            {
                "start_time": 15.870454545454544,
                "end_time": 15.936363636363636,
                "pitch": 39,
                "velocity": 64,
                "duration": 0.06590909090909136,
                "tempo": 120.0
            },
            {
                "start_time": 15.952272727272726,
                "end_time": 16.054545454545455,
                "pitch": 46,
                "velocity": 64,
                "duration": 0.1022727272727284,
                "tempo": 120.0
            },
            {
                "start_time": 16.070454545454545,
                "end_time": 16.456818181818182,
                "pitch": 36,
                "velocity": 64,
                "duration": 0.3863636363636367,
                "tempo": 120.0
            },
            {
                "start_time": 16.472727272727273,
                "end_time": 16.65681818181818,
                "pitch": 39,
                "velocity": 64,
                "duration": 0.18409090909090864,
                "tempo": 120.0
            },
            {
                "start_time": 16.672727272727272,
                "end_time": 16.85681818181818,
                "pitch": 41,
                "velocity": 64,
                "duration": 0.18409090909090864,
                "tempo": 120.0
            },
            {
                "start_time": 16.87272727272727,
                "end_time": 16.94090909090909,
                "pitch": 36,
                "velocity": 64,
                "duration": 0.06818181818182012,
                "tempo": 120.0
            },
            {
                "start_time": 16.956818181818182,
                "end_time": 17.14090909090909,
                "pitch": 48,
                "velocity": 64,
                "duration": 0.18409090909090864,
                "tempo": 120.0
            },
            {
                "start_time": 17.159090909090907,
                "end_time": 17.34090909090909,
                "pitch": 42,
                "velocity": 64,
                "duration": 0.18181818181818343,
                "tempo": 120.0
            },
            {
                "start_time": 17.35681818181818,
                "end_time": 17.454545454545453,
                "pitch": 39,
                "velocity": 64,
                "duration": 0.09772727272727266,
                "tempo": 120.0
            },
            {
                "start_time": 17.472727272727273,
                "end_time": 17.652272727272727,
                "pitch": 41,
                "velocity": 64,
                "duration": 0.17954545454545467,
                "tempo": 120.0
            },
            {
                "start_time": 17.668181818181818,
                "end_time": 18.061363636363634,
                "pitch": 36,
                "velocity": 64,
                "duration": 0.39318181818181586,
                "tempo": 120.0
            },
            {
                "start_time": 18.079545454545453,
                "end_time": 18.261363636363637,
                "pitch": 39,
                "velocity": 64,
                "duration": 0.18181818181818343,
                "tempo": 120.0
            },
            {
                "start_time": 18.279545454545453,
                "end_time": 18.461363636363636,
                "pitch": 41,
                "velocity": 64,
                "duration": 0.18181818181818343,
                "tempo": 120.0
            },
            {
                "start_time": 18.479545454545455,
                "end_time": 18.547727272727272,
                "pitch": 36,
                "velocity": 64,
                "duration": 0.06818181818181657,
                "tempo": 120.0
            },
            {
                "start_time": 18.563636363636363,
                "end_time": 18.752272727272725,
                "pitch": 48,
                "velocity": 64,
                "duration": 0.1886363636363626,
                "tempo": 120.0
            },
            {
                "start_time": 18.770454545454545,
                "end_time": 18.954545454545453,
                "pitch": 42,
                "velocity": 64,
                "duration": 0.18409090909090864,
                "tempo": 120.0
            },
            {
                "start_time": 18.970454545454544,
                "end_time": 19.068181818181817,
                "pitch": 36,
                "velocity": 64,
                "duration": 0.09772727272727266,
                "tempo": 120.0
            },
            {
                "start_time": 19.086363636363636,
                "end_time": 19.15,
                "pitch": 39,
                "velocity": 64,
                "duration": 0.0636363636363626,
                "tempo": 120.0
            },
            {
                "start_time": 19.168181818181818,
                "end_time": 19.26590909090909,
                "pitch": 41,
                "velocity": 64,
                "duration": 0.09772727272727266,
                "tempo": 120.0
            },
            {
                "start_time": 19.28181818181818,
                "end_time": 19.66590909090909,
                "pitch": 42,
                "velocity": 64,
                "duration": 0.38409090909090793,
                "tempo": 120.0
            },
            {
                "start_time": 19.68181818181818,
                "end_time": 19.86590909090909,
                "pitch": 34,
                "velocity": 64,
                "duration": 0.18409090909090864,
                "tempo": 120.0
            },
            {
                "start_time": 19.884090909090908,
                "end_time": 20.068181818181817,
                "pitch": 36,
                "velocity": 64,
                "duration": 0.18409090909090864,
                "tempo": 120.0
            },
            {
                "start_time": 20.084090909090907,
                "end_time": 20.152272727272727,
                "pitch": 42,
                "velocity": 64,
                "duration": 0.06818181818182012,
                "tempo": 120.0
            },
            {
                "start_time": 20.168181818181818,
                "end_time": 20.352272727272727,
                "pitch": 42,
                "velocity": 64,
                "duration": 0.18409090909090864,
                "tempo": 120.0
            },
            {
                "start_time": 20.368181818181817,
                "end_time": 20.55,
                "pitch": 37,
                "velocity": 64,
                "duration": 0.18181818181818343,
                "tempo": 120.0
            },
            {
                "start_time": 20.56590909090909,
                "end_time": 20.663636363636364,
                "pitch": 42,
                "velocity": 64,
                "duration": 0.09772727272727266,
                "tempo": 120.0
            },
            {
                "start_time": 20.679545454545455,
                "end_time": 20.745454545454546,
                "pitch": 34,
                "velocity": 64,
                "duration": 0.06590909090909136,
                "tempo": 120.0
            },
            {
                "start_time": 20.761363636363637,
                "end_time": 20.85909090909091,
                "pitch": 36,
                "velocity": 64,
                "duration": 0.09772727272727266,
                "tempo": 120.0
            },
            {
                "start_time": 20.877272727272725,
                "end_time": 21.270454545454545,
                "pitch": 42,
                "velocity": 64,
                "duration": 0.3931818181818194,
                "tempo": 120.0
            },
            {
                "start_time": 21.286363636363635,
                "end_time": 21.470454545454544,
                "pitch": 42,
                "velocity": 64,
                "duration": 0.18409090909090864,
                "tempo": 120.0
            },
            {
                "start_time": 21.486363636363635,
                "end_time": 21.670454545454543,
                "pitch": 36,
                "velocity": 64,
                "duration": 0.18409090909090864,
                "tempo": 120.0
            },
            {
                "start_time": 21.688636363636363,
                "end_time": 21.754545454545454,
                "pitch": 42,
                "velocity": 64,
                "duration": 0.06590909090909136,
                "tempo": 120.0
            },
            {
                "start_time": 21.770454545454545,
                "end_time": 21.956818181818182,
                "pitch": 42,
                "velocity": 64,
                "duration": 0.1863636363636374,
                "tempo": 120.0
            },
            {
                "start_time": 21.972727272727273,
                "end_time": 22.15681818181818,
                "pitch": 37,
                "velocity": 64,
                "duration": 0.18409090909090864,
                "tempo": 120.0
            },
            {
                "start_time": 22.172727272727272,
                "end_time": 22.272727272727273,
                "pitch": 42,
                "velocity": 64,
                "duration": 0.10000000000000142,
                "tempo": 120.0
            },
            {
                "start_time": 22.29090909090909,
                "end_time": 22.35681818181818,
                "pitch": 34,
                "velocity": 64,
                "duration": 0.06590909090909136,
                "tempo": 120.0
            },
            {
                "start_time": 22.37272727272727,
                "end_time": 22.472727272727273,
                "pitch": 36,
                "velocity": 64,
                "duration": 0.10000000000000142,
                "tempo": 120.0
            },
            {
                "start_time": 22.49090909090909,
                "end_time": 22.87272727272727,
                "pitch": 32,
                "velocity": 64,
                "duration": 0.3818181818181827,
                "tempo": 120.0
            },
            {
                "start_time": 22.89090909090909,
                "end_time": 23.075,
                "pitch": 36,
                "velocity": 64,
                "duration": 0.18409090909090864,
                "tempo": 120.0
            },
            {
                "start_time": 23.09090909090909,
                "end_time": 23.275,
                "pitch": 37,
                "velocity": 64,
                "duration": 0.18409090909090864,
                "tempo": 120.0
            },
            {
                "start_time": 23.293181818181818,
                "end_time": 23.35909090909091,
                "pitch": 32,
                "velocity": 64,
                "duration": 0.06590909090909136,
                "tempo": 120.0
            },
            {
                "start_time": 23.375,
                "end_time": 23.55909090909091,
                "pitch": 44,
                "velocity": 64,
                "duration": 0.18409090909090864,
                "tempo": 120.0
            },
            {
                "start_time": 23.575,
                "end_time": 23.75681818181818,
                "pitch": 39,
                "velocity": 64,
                "duration": 0.18181818181817988,
                "tempo": 120.0
            },
            {
                "start_time": 23.775,
                "end_time": 23.87272727272727,
                "pitch": 32,
                "velocity": 64,
                "duration": 0.09772727272727266,
                "tempo": 120.0
            },
            {
                "start_time": 23.888636363636362,
                "end_time": 23.954545454545453,
                "pitch": 36,
                "velocity": 64,
                "duration": 0.06590909090909136,
                "tempo": 120.0
            },
            {
                "start_time": 23.970454545454544,
                "end_time": 24.068181818181817,
                "pitch": 37,
                "velocity": 64,
                "duration": 0.09772727272727266,
                "tempo": 120.0
            },
            {
                "start_time": 24.084090909090907,
                "end_time": 24.479545454545452,
                "pitch": 32,
                "velocity": 64,
                "duration": 0.3954545454545446,
                "tempo": 120.0
            },
            {
                "start_time": 24.495454545454546,
                "end_time": 24.679545454545455,
                "pitch": 32,
                "velocity": 64,
                "duration": 0.18409090909090864,
                "tempo": 120.0
            },
            {
                "start_time": 24.695454545454545,
                "end_time": 24.879545454545454,
                "pitch": 37,
                "velocity": 64,
                "duration": 0.18409090909090864,
                "tempo": 120.0
            },
            {
                "start_time": 24.895454545454545,
                "end_time": 24.96363636363636,
                "pitch": 32,
                "velocity": 64,
                "duration": 0.06818181818181657,
                "tempo": 120.0
            },
            {
                "start_time": 24.979545454545452,
                "end_time": 25.163636363636364,
                "pitch": 44,
                "velocity": 64,
                "duration": 0.1840909090909122,
                "tempo": 120.0
            },
            {
                "start_time": 25.18181818181818,
                "end_time": 25.363636363636363,
                "pitch": 39,
                "velocity": 64,
                "duration": 0.18181818181818343,
                "tempo": 120.0
            },
            {
                "start_time": 25.379545454545454,
                "end_time": 25.477272727272727,
                "pitch": 32,
                "velocity": 64,
                "duration": 0.09772727272727266,
                "tempo": 120.0
            },
            {
                "start_time": 25.493181818181817,
                "end_time": 25.55909090909091,
                "pitch": 36,
                "velocity": 64,
                "duration": 0.06590909090909136,
                "tempo": 120.0
            },
            {
                "start_time": 25.575,
                "end_time": 25.672727272727272,
                "pitch": 37,
                "velocity": 64,
                "duration": 0.09772727272727266,
                "tempo": 120.0
            },
            {
                "start_time": 25.69090909090909,
                "end_time": 26.084090909090907,
                "pitch": 34,
                "velocity": 64,
                "duration": 0.39318181818181586,
                "tempo": 120.0
            },
            {
                "start_time": 26.102272727272727,
                "end_time": 26.284090909090907,
                "pitch": 37,
                "velocity": 64,
                "duration": 0.18181818181817988,
                "tempo": 120.0
            },
            {
                "start_time": 26.302272727272726,
                "end_time": 26.48409090909091,
                "pitch": 39,
                "velocity": 64,
                "duration": 0.18181818181818343,
                "tempo": 120.0
            },
            {
                "start_time": 26.502272727272725,
                "end_time": 26.568181818181817,
                "pitch": 34,
                "velocity": 64,
                "duration": 0.06590909090909136,
                "tempo": 120.0
            },
            {
                "start_time": 26.584090909090907,
                "end_time": 26.768181818181816,
                "pitch": 44,
                "velocity": 64,
                "duration": 0.18409090909090864,
                "tempo": 120.0
            },
            {
                "start_time": 26.784090909090907,
                "end_time": 26.884090909090908,
                "pitch": 34,
                "velocity": 64,
                "duration": 0.10000000000000142,
                "tempo": 120.0
            },
            {
                "start_time": 26.902272727272727,
                "end_time": 27.086363636363636,
                "pitch": 44,
                "velocity": 64,
                "duration": 0.18409090909090864,
                "tempo": 120.0
            },
            {
                "start_time": 27.102272727272727,
                "end_time": 27.286363636363635,
                "pitch": 34,
                "velocity": 64,
                "duration": 0.18409090909090864,
                "tempo": 120.0
            },
            {
                "start_time": 27.304545454545455,
                "end_time": 27.686363636363634,
                "pitch": 34,
                "velocity": 64,
                "duration": 0.38181818181817917,
                "tempo": 120.0
            },
            {
                "start_time": 27.704545454545453,
                "end_time": 27.888636363636362,
                "pitch": 37,
                "velocity": 64,
                "duration": 0.18409090909090864,
                "tempo": 120.0
            },
            {
                "start_time": 27.904545454545453,
                "end_time": 28.09090909090909,
                "pitch": 39,
                "velocity": 64,
                "duration": 0.1863636363636374,
                "tempo": 120.0
            },
            {
                "start_time": 28.10681818181818,
                "end_time": 28.172727272727272,
                "pitch": 34,
                "velocity": 64,
                "duration": 0.06590909090909136,
                "tempo": 120.0
            },
            {
                "start_time": 28.190909090909088,
                "end_time": 28.29090909090909,
                "pitch": 44,
                "velocity": 64,
                "duration": 0.10000000000000142,
                "tempo": 120.0
            },
            {
                "start_time": 28.30681818181818,
                "end_time": 28.37272727272727,
                "pitch": 34,
                "velocity": 64,
                "duration": 0.06590909090909136,
                "tempo": 120.0
            },
            {
                "start_time": 28.39090909090909,
                "end_time": 28.49090909090909,
                "pitch": 34,
                "velocity": 64,
                "duration": 0.09999999999999787,
                "tempo": 120.0
            },
            {
                "start_time": 28.50681818181818,
                "end_time": 28.57272727272727,
                "pitch": 44,
                "velocity": 64,
                "duration": 0.06590909090909136,
                "tempo": 120.0
            },
            {
                "start_time": 28.59090909090909,
                "end_time": 28.690909090909088,
                "pitch": 34,
                "velocity": 64,
                "duration": 0.09999999999999787,
                "tempo": 120.0
            },
            {
                "start_time": 28.706818181818182,
                "end_time": 28.77272727272727,
                "pitch": 34,
                "velocity": 64,
                "duration": 0.06590909090908781,
                "tempo": 120.0
            },
            {
                "start_time": 28.79090909090909,
                "end_time": 28.89090909090909,
                "pitch": 34,
                "velocity": 64,
                "duration": 0.10000000000000142,
                "tempo": 120.0
            }
        ],
        "Oboe": [
            {
                "start_time": 0.015909090909090907,
                "end_time": 0.08181818181818182,
                "pitch": 53,
                "velocity": 64,
                "duration": 0.06590909090909092,
                "tempo": 120.0
            },
            {
                "start_time": 0.09999999999999999,
                "end_time": 0.19999999999999998,
                "pitch": 56,
                "velocity": 64,
                "duration": 0.09999999999999999,
                "tempo": 120.0
            },
            {
                "start_time": 0.2159090909090909,
                "end_time": 0.2818181818181818,
                "pitch": 58,
                "velocity": 64,
                "duration": 0.06590909090909089,
                "tempo": 120.0
            },
            {
                "start_time": 0.3,
                "end_time": 0.39999999999999997,
                "pitch": 60,
                "velocity": 64,
                "duration": 0.09999999999999998,
                "tempo": 120.0
            },
            {
                "start_time": 0.4159090909090909,
                "end_time": 1.4,
                "pitch": 65,
                "velocity": 64,
                "duration": 0.984090909090909,
                "tempo": 120.0
            },
            {
                "start_time": 1.4159090909090908,
                "end_time": 1.5999999999999999,
                "pitch": 63,
                "velocity": 64,
                "duration": 0.18409090909090908,
                "tempo": 120.0
            },
            {
                "start_time": 1.6159090909090907,
                "end_time": 1.8681818181818182,
                "pitch": 62,
                "velocity": 64,
                "duration": 0.2522727272727274,
                "tempo": 120.0
            },
            {
                "start_time": 1.884090909090909,
                "end_time": 2.202272727272727,
                "pitch": 63,
                "velocity": 64,
                "duration": 0.3181818181818181,
                "tempo": 120.0
            },
            {
                "start_time": 2.2181818181818183,
                "end_time": 2.4022727272727273,
                "pitch": 62,
                "velocity": 64,
                "duration": 0.18409090909090908,
                "tempo": 120.0
            },
            {
                "start_time": 2.418181818181818,
                "end_time": 2.686363636363636,
                "pitch": 56,
                "velocity": 64,
                "duration": 0.2681818181818181,
                "tempo": 120.0
            },
            {
                "start_time": 2.702272727272727,
                "end_time": 3.202272727272727,
                "pitch": 58,
                "velocity": 64,
                "duration": 0.5,
                "tempo": 120.0
            },
            {
                "start_time": 3.218181818181818,
                "end_time": 3.286363636363636,
                "pitch": 53,
                "velocity": 64,
                "duration": 0.06818181818181834,
                "tempo": 120.0
            },
            {
                "start_time": 3.3022727272727272,
                "end_time": 3.402272727272727,
                "pitch": 56,
                "velocity": 64,
                "duration": 0.09999999999999964,
                "tempo": 120.0
            },
            {
                "start_time": 3.4204545454545454,
                "end_time": 3.4863636363636363,
                "pitch": 58,
                "velocity": 64,
                "duration": 0.06590909090909092,
                "tempo": 120.0
            },
            {
                "start_time": 3.5045454545454544,
                "end_time": 3.6045454545454545,
                "pitch": 60,
                "velocity": 64,
                "duration": 0.10000000000000009,
                "tempo": 120.0
            },
            {
                "start_time": 3.620454545454545,
                "end_time": 4.6068181818181815,
                "pitch": 65,
                "velocity": 64,
                "duration": 0.9863636363636363,
                "tempo": 120.0
            },
            {
                "start_time": 4.622727272727272,
                "end_time": 4.806818181818182,
                "pitch": 63,
                "velocity": 64,
                "duration": 0.18409090909090953,
                "tempo": 120.0
            },
            {
                "start_time": 4.825,
                "end_time": 5.402272727272727,
                "pitch": 62,
                "velocity": 64,
                "duration": 0.5772727272727272,
                "tempo": 120.0
            },
            {
                "start_time": 5.420454545454545,
                "end_time": 5.6,
                "pitch": 73,
                "velocity": 64,
                "duration": 0.17954545454545467,
                "tempo": 120.0
            },
            {
                "start_time": 5.61590909090909,
                "end_time": 6.413636363636363,
                "pitch": 72,
                "velocity": 64,
                "duration": 0.7977272727272728,
                "tempo": 120.0
            },
            {
                "start_time": 6.429545454545455,
                "end_time": 6.497727272727272,
                "pitch": 53,
                "velocity": 64,
                "duration": 0.06818181818181746,
                "tempo": 120.0
            },
            {
                "start_time": 6.513636363636364,
                "end_time": 6.613636363636363,
                "pitch": 56,
                "velocity": 64,
                "duration": 0.09999999999999964,
                "tempo": 120.0
            },
            {
                "start_time": 6.631818181818182,
                "end_time": 6.697727272727272,
                "pitch": 58,
                "velocity": 64,
                "duration": 0.06590909090909047,
                "tempo": 120.0
            },
            {
                "start_time": 6.715909090909091,
                "end_time": 6.8159090909090905,
                "pitch": 60,
                "velocity": 64,
                "duration": 0.09999999999999964,
                "tempo": 120.0
            },
            {
                "start_time": 6.831818181818181,
                "end_time": 7.8136363636363635,
                "pitch": 65,
                "velocity": 64,
                "duration": 0.9818181818181824,
                "tempo": 120.0
            },
            {
                "start_time": 7.829545454545454,
                "end_time": 8.011363636363637,
                "pitch": 63,
                "velocity": 64,
                "duration": 0.18181818181818254,
                "tempo": 120.0
            },
            {
                "start_time": 8.027272727272727,
                "end_time": 8.290909090909091,
                "pitch": 62,
                "velocity": 64,
                "duration": 0.26363636363636367,
                "tempo": 120.0
            },
            {
                "start_time": 8.309090909090909,
                "end_time": 8.627272727272727,
                "pitch": 63,
                "velocity": 64,
                "duration": 0.31818181818181834,
                "tempo": 120.0
            },
            {
                "start_time": 8.645454545454545,
                "end_time": 8.825,
                "pitch": 62,
                "velocity": 64,
                "duration": 0.17954545454545467,
                "tempo": 120.0
            },
            {
                "start_time": 8.84090909090909,
                "end_time": 9.10909090909091,
                "pitch": 56,
                "velocity": 64,
                "duration": 0.2681818181818194,
                "tempo": 120.0
            },
            {
                "start_time": 9.127272727272727,
                "end_time": 9.627272727272727,
                "pitch": 58,
                "velocity": 64,
                "duration": 0.5,
                "tempo": 120.0
            },
            {
                "start_time": 9.643181818181818,
                "end_time": 9.711363636363636,
                "pitch": 53,
                "velocity": 64,
                "duration": 0.06818181818181834,
                "tempo": 120.0
            },
            {
                "start_time": 9.727272727272727,
                "end_time": 9.827272727272726,
                "pitch": 56,
                "velocity": 64,
                "duration": 0.09999999999999964,
                "tempo": 120.0
            },
            {
                "start_time": 9.845454545454546,
                "end_time": 9.911363636363635,
                "pitch": 58,
                "velocity": 64,
                "duration": 0.06590909090908958,
                "tempo": 120.0
            },
            {
                "start_time": 9.929545454545455,
                "end_time": 10.029545454545454,
                "pitch": 60,
                "velocity": 64,
                "duration": 0.09999999999999964,
                "tempo": 120.0
            },
            {
                "start_time": 10.045454545454545,
                "end_time": 11.031818181818181,
                "pitch": 65,
                "velocity": 64,
                "duration": 0.9863636363636363,
                "tempo": 120.0
            },
            {
                "start_time": 11.047727272727272,
                "end_time": 11.227272727272727,
                "pitch": 63,
                "velocity": 64,
                "duration": 0.17954545454545467,
                "tempo": 120.0
            },
            {
                "start_time": 11.243181818181817,
                "end_time": 11.834090909090909,
                "pitch": 62,
                "velocity": 64,
                "duration": 0.5909090909090917,
                "tempo": 120.0
            },
            {
                "start_time": 11.85,
                "end_time": 12.029545454545454,
                "pitch": 73,
                "velocity": 64,
                "duration": 0.17954545454545467,
                "tempo": 120.0
            },
            {
                "start_time": 12.047727272727272,
                "end_time": 12.831818181818182,
                "pitch": 72,
                "velocity": 64,
                "duration": 0.7840909090909101,
                "tempo": 120.0
            },
            {
                "start_time": 14.86590909090909,
                "end_time": 16.08863636363636,
                "pitch": 76,
                "velocity": 64,
                "duration": 1.2227272727272709,
                "tempo": 120.0
            },
            {
                "start_time": 16.08863636363636,
                "end_time": 16.254545454545454,
                "pitch": 60,
                "velocity": 64,
                "duration": 0.16590909090909278,
                "tempo": 120.0
            },
            {
                "start_time": 16.272727272727273,
                "end_time": 16.33863636363636,
                "pitch": 59,
                "velocity": 64,
                "duration": 0.06590909090908781,
                "tempo": 120.0
            },
            {
                "start_time": 16.35681818181818,
                "end_time": 16.456818181818182,
                "pitch": 58,
                "velocity": 64,
                "duration": 0.10000000000000142,
                "tempo": 120.0
            },
            {
                "start_time": 16.472727272727273,
                "end_time": 16.54090909090909,
                "pitch": 57,
                "velocity": 64,
                "duration": 0.06818181818181657,
                "tempo": 120.0
            },
            {
                "start_time": 16.55681818181818,
                "end_time": 16.65681818181818,
                "pitch": 56,
                "velocity": 64,
                "duration": 0.10000000000000142,
                "tempo": 120.0
            },
            {
                "start_time": 16.672727272727272,
                "end_time": 16.74090909090909,
                "pitch": 55,
                "velocity": 64,
                "duration": 0.06818181818181657,
                "tempo": 120.0
            },
            {
                "start_time": 16.756818181818183,
                "end_time": 17.652272727272727,
                "pitch": 54,
                "velocity": 64,
                "duration": 0.8954545454545446,
                "tempo": 120.0
            },
            {
                "start_time": 19.28181818181818,
                "end_time": 19.46590909090909,
                "pitch": 58,
                "velocity": 64,
                "duration": 0.18409090909090864,
                "tempo": 120.0
            },
            {
                "start_time": 19.48181818181818,
                "end_time": 19.547727272727272,
                "pitch": 57,
                "velocity": 64,
                "duration": 0.06590909090909136,
                "tempo": 120.0
            },
            {
                "start_time": 19.56590909090909,
                "end_time": 19.66590909090909,
                "pitch": 56,
                "velocity": 64,
                "duration": 0.09999999999999787,
                "tempo": 120.0
            },
            {
                "start_time": 19.68181818181818,
                "end_time": 19.75,
                "pitch": 55,
                "velocity": 64,
                "duration": 0.06818181818182012,
                "tempo": 120.0
            },
            {
                "start_time": 19.76590909090909,
                "end_time": 19.86590909090909,
                "pitch": 54,
                "velocity": 64,
                "duration": 0.09999999999999787,
                "tempo": 120.0
            },
            {
                "start_time": 19.884090909090908,
                "end_time": 19.95,
                "pitch": 53,
                "velocity": 64,
                "duration": 0.06590909090909136,
                "tempo": 120.0
            },
            {
                "start_time": 19.96818181818182,
                "end_time": 20.85909090909091,
                "pitch": 51,
                "velocity": 64,
                "duration": 0.8909090909090907,
                "tempo": 120.0
            },
            {
                "start_time": 22.49090909090909,
                "end_time": 22.672727272727272,
                "pitch": 58,
                "velocity": 64,
                "duration": 0.18181818181818343,
                "tempo": 120.0
            },
            {
                "start_time": 22.69090909090909,
                "end_time": 22.75681818181818,
                "pitch": 57,
                "velocity": 64,
                "duration": 0.06590909090908781,
                "tempo": 120.0
            },
            {
                "start_time": 22.772727272727273,
                "end_time": 22.87272727272727,
                "pitch": 56,
                "velocity": 64,
                "duration": 0.09999999999999787,
                "tempo": 120.0
            },
            {
                "start_time": 22.89090909090909,
                "end_time": 22.956818181818182,
                "pitch": 55,
                "velocity": 64,
                "duration": 0.06590909090909136,
                "tempo": 120.0
            },
            {
                "start_time": 22.974999999999998,
                "end_time": 23.075,
                "pitch": 54,
                "velocity": 64,
                "duration": 0.10000000000000142,
                "tempo": 120.0
            },
            {
                "start_time": 23.09090909090909,
                "end_time": 23.159090909090907,
                "pitch": 53,
                "velocity": 64,
                "duration": 0.06818181818181657,
                "tempo": 120.0
            },
            {
                "start_time": 23.174999999999997,
                "end_time": 24.068181818181817,
                "pitch": 51,
                "velocity": 64,
                "duration": 0.8931818181818194,
                "tempo": 120.0
            },
            {
                "start_time": 25.69090909090909,
                "end_time": 26.084090909090907,
                "pitch": 53,
                "velocity": 64,
                "duration": 0.39318181818181586,
                "tempo": 120.0
            },
            {
                "start_time": 26.102272727272727,
                "end_time": 26.284090909090907,
                "pitch": 58,
                "velocity": 64,
                "duration": 0.18181818181817988,
                "tempo": 120.0
            },
            {
                "start_time": 26.302272727272726,
                "end_time": 26.68409090909091,
                "pitch": 65,
                "velocity": 64,
                "duration": 0.3818181818181827,
                "tempo": 120.0
            },
            {
                "start_time": 26.702272727272724,
                "end_time": 27.086363636363636,
                "pitch": 63,
                "velocity": 64,
                "duration": 0.3840909090909115,
                "tempo": 120.0
            },
            {
                "start_time": 27.102272727272727,
                "end_time": 27.286363636363635,
                "pitch": 61,
                "velocity": 64,
                "duration": 0.18409090909090864,
                "tempo": 120.0
            },
            {
                "start_time": 27.304545454545455,
                "end_time": 27.686363636363634,
                "pitch": 53,
                "velocity": 64,
                "duration": 0.38181818181817917,
                "tempo": 120.0
            },
            {
                "start_time": 27.704545454545453,
                "end_time": 27.888636363636362,
                "pitch": 56,
                "velocity": 64,
                "duration": 0.18409090909090864,
                "tempo": 120.0
            },
            {
                "start_time": 27.904545454545453,
                "end_time": 28.29090909090909,
                "pitch": 60,
                "velocity": 64,
                "duration": 0.3863636363636367,
                "tempo": 120.0
            },
            {
                "start_time": 28.30681818181818,
                "end_time": 28.89090909090909,
                "pitch": 65,
                "velocity": 64,
                "duration": 0.5840909090909108,
                "tempo": 120.0
            }
        ],
        "Lead 2 (sawtooth)": [
            {
                "start_time": 0.0,
                "end_time": 0.0659090909090909,
                "pitch": 72,
                "velocity": 64,
                "duration": 0.0659090909090909,
                "tempo": 120.0
            },
            {
                "start_time": 0.08181818181818182,
                "end_time": 0.15,
                "pitch": 53,
                "velocity": 64,
                "duration": 0.06818181818181818,
                "tempo": 120.0
            },
            {
                "start_time": 0.1659090909090909,
                "end_time": 0.2659090909090909,
                "pitch": 56,
                "velocity": 64,
                "duration": 0.09999999999999998,
                "tempo": 120.0
            },
            {
                "start_time": 0.2818181818181818,
                "end_time": 0.35,
                "pitch": 58,
                "velocity": 64,
                "duration": 0.06818181818181818,
                "tempo": 120.0
            },
            {
                "start_time": 0.3659090909090909,
                "end_time": 0.4659090909090909,
                "pitch": 60,
                "velocity": 64,
                "duration": 0.09999999999999998,
                "tempo": 120.0
            },
            {
                "start_time": 0.4818181818181818,
                "end_time": 1.4659090909090908,
                "pitch": 65,
                "velocity": 64,
                "duration": 0.984090909090909,
                "tempo": 120.0
            },
            {
                "start_time": 1.4818181818181817,
                "end_time": 1.6659090909090908,
                "pitch": 63,
                "velocity": 64,
                "duration": 0.18409090909090908,
                "tempo": 120.0
            },
            {
                "start_time": 1.684090909090909,
                "end_time": 1.9522727272727272,
                "pitch": 62,
                "velocity": 64,
                "duration": 0.2681818181818181,
                "tempo": 120.0
            },
            {
                "start_time": 1.968181818181818,
                "end_time": 2.268181818181818,
                "pitch": 63,
                "velocity": 64,
                "duration": 0.30000000000000004,
                "tempo": 120.0
            },
            {
                "start_time": 2.286363636363636,
                "end_time": 2.4681818181818183,
                "pitch": 62,
                "velocity": 64,
                "duration": 0.1818181818181821,
                "tempo": 120.0
            },
            {
                "start_time": 2.4863636363636363,
                "end_time": 2.752272727272727,
                "pitch": 56,
                "velocity": 64,
                "duration": 0.26590909090909065,
                "tempo": 120.0
            },
            {
                "start_time": 2.768181818181818,
                "end_time": 3.268181818181818,
                "pitch": 58,
                "velocity": 64,
                "duration": 0.5,
                "tempo": 120.0
            },
            {
                "start_time": 3.286363636363636,
                "end_time": 3.352272727272727,
                "pitch": 53,
                "velocity": 64,
                "duration": 0.06590909090909092,
                "tempo": 120.0
            },
            {
                "start_time": 3.370454545454545,
                "end_time": 3.4704545454545452,
                "pitch": 56,
                "velocity": 64,
                "duration": 0.10000000000000009,
                "tempo": 120.0
            },
            {
                "start_time": 3.4863636363636363,
                "end_time": 3.5545454545454542,
                "pitch": 58,
                "velocity": 64,
                "duration": 0.0681818181818179,
                "tempo": 120.0
            },
            {
                "start_time": 3.5704545454545453,
                "end_time": 3.6704545454545454,
                "pitch": 60,
                "velocity": 64,
                "duration": 0.10000000000000009,
                "tempo": 120.0
            },
            {
                "start_time": 3.6886363636363635,
                "end_time": 4.672727272727273,
                "pitch": 65,
                "velocity": 64,
                "duration": 0.9840909090909093,
                "tempo": 120.0
            },
            {
                "start_time": 4.6909090909090905,
                "end_time": 4.875,
                "pitch": 63,
                "velocity": 64,
                "duration": 0.18409090909090953,
                "tempo": 120.0
            },
            {
                "start_time": 4.890909090909091,
                "end_time": 5.468181818181818,
                "pitch": 62,
                "velocity": 64,
                "duration": 0.5772727272727272,
                "tempo": 120.0
            },
            {
                "start_time": 5.4840909090909085,
                "end_time": 5.668181818181818,
                "pitch": 66,
                "velocity": 64,
                "duration": 0.18409090909090953,
                "tempo": 120.0
            },
            {
                "start_time": 5.684090909090909,
                "end_time": 6.4795454545454545,
                "pitch": 65,
                "velocity": 64,
                "duration": 0.7954545454545459,
                "tempo": 120.0
            },
            {
                "start_time": 6.497727272727272,
                "end_time": 6.5636363636363635,
                "pitch": 53,
                "velocity": 64,
                "duration": 0.06590909090909136,
                "tempo": 120.0
            },
            {
                "start_time": 6.581818181818181,
                "end_time": 6.681818181818182,
                "pitch": 56,
                "velocity": 64,
                "duration": 0.10000000000000053,
                "tempo": 120.0
            },
            {
                "start_time": 6.697727272727272,
                "end_time": 6.765909090909091,
                "pitch": 58,
                "velocity": 64,
                "duration": 0.06818181818181834,
                "tempo": 120.0
            },
            {
                "start_time": 6.781818181818181,
                "end_time": 6.881818181818182,
                "pitch": 60,
                "velocity": 64,
                "duration": 0.10000000000000053,
                "tempo": 120.0
            },
            {
                "start_time": 6.8999999999999995,
                "end_time": 7.879545454545454,
                "pitch": 65,
                "velocity": 64,
                "duration": 0.9795454545454545,
                "tempo": 120.0
            },
            {
                "start_time": 7.8954545454545455,
                "end_time": 8.079545454545455,
                "pitch": 63,
                "velocity": 64,
                "duration": 0.18409090909090953,
                "tempo": 120.0
            },
            {
                "start_time": 8.097727272727273,
                "end_time": 8.379545454545454,
                "pitch": 62,
                "velocity": 64,
                "duration": 0.2818181818181813,
                "tempo": 120.0
            },
            {
                "start_time": 8.397727272727272,
                "end_time": 8.693181818181818,
                "pitch": 63,
                "velocity": 64,
                "duration": 0.29545454545454675,
                "tempo": 120.0
            },
            {
                "start_time": 8.709090909090909,
                "end_time": 8.89090909090909,
                "pitch": 62,
                "velocity": 64,
                "duration": 0.18181818181818166,
                "tempo": 120.0
            },
            {
                "start_time": 8.909090909090908,
                "end_time": 9.177272727272728,
                "pitch": 56,
                "velocity": 64,
                "duration": 0.2681818181818194,
                "tempo": 120.0
            },
            {
                "start_time": 9.193181818181818,
                "end_time": 9.693181818181818,
                "pitch": 58,
                "velocity": 64,
                "duration": 0.5,
                "tempo": 120.0
            },
            {
                "start_time": 9.711363636363636,
                "end_time": 9.777272727272727,
                "pitch": 53,
                "velocity": 64,
                "duration": 0.06590909090909136,
                "tempo": 120.0
            },
            {
                "start_time": 9.795454545454545,
                "end_time": 9.895454545454545,
                "pitch": 56,
                "velocity": 64,
                "duration": 0.09999999999999964,
                "tempo": 120.0
            },
            {
                "start_time": 9.911363636363635,
                "end_time": 9.979545454545454,
                "pitch": 58,
                "velocity": 64,
                "duration": 0.06818181818181834,
                "tempo": 120.0
            },
            {
                "start_time": 9.995454545454544,
                "end_time": 10.097727272727273,
                "pitch": 60,
                "velocity": 64,
                "duration": 0.1022727272727284,
                "tempo": 120.0
            },
            {
                "start_time": 10.113636363636363,
                "end_time": 11.095454545454546,
                "pitch": 65,
                "velocity": 64,
                "duration": 0.9818181818181824,
                "tempo": 120.0
            },
            {
                "start_time": 11.111363636363636,
                "end_time": 11.295454545454545,
                "pitch": 63,
                "velocity": 64,
                "duration": 0.18409090909090864,
                "tempo": 120.0
            },
            {
                "start_time": 11.311363636363636,
                "end_time": 11.897727272727272,
                "pitch": 62,
                "velocity": 64,
                "duration": 0.586363636363636,
                "tempo": 120.0
            },
            {
                "start_time": 11.915909090909091,
                "end_time": 12.097727272727273,
                "pitch": 66,
                "velocity": 64,
                "duration": 0.18181818181818166,
                "tempo": 120.0
            },
            {
                "start_time": 12.11590909090909,
                "end_time": 12.899999999999999,
                "pitch": 65,
                "velocity": 64,
                "duration": 0.7840909090909083,
                "tempo": 120.0
            },
            {
                "start_time": 17.422727272727272,
                "end_time": 17.520454545454545,
                "pitch": 65,
                "velocity": 64,
                "duration": 0.09772727272727266,
                "tempo": 120.0
            },
            {
                "start_time": 17.536363636363635,
                "end_time": 17.602272727272727,
                "pitch": 63,
                "velocity": 64,
                "duration": 0.06590909090909136,
                "tempo": 120.0
            },
            {
                "start_time": 17.618181818181817,
                "end_time": 17.720454545454544,
                "pitch": 62,
                "velocity": 64,
                "duration": 0.10227272727272663,
                "tempo": 120.0
            },
            {
                "start_time": 17.736363636363635,
                "end_time": 18.011363636363637,
                "pitch": 60,
                "velocity": 64,
                "duration": 0.27500000000000213,
                "tempo": 120.0
            },
            {
                "start_time": 18.027272727272727,
                "end_time": 18.329545454545453,
                "pitch": 58,
                "velocity": 64,
                "duration": 0.3022727272727259,
                "tempo": 120.0
            },
            {
                "start_time": 18.345454545454544,
                "end_time": 18.529545454545453,
                "pitch": 60,
                "velocity": 64,
                "duration": 0.18409090909090864,
                "tempo": 120.0
            },
            {
                "start_time": 18.547727272727272,
                "end_time": 18.61590909090909,
                "pitch": 63,
                "velocity": 64,
                "duration": 0.06818181818181657,
                "tempo": 120.0
            },
            {
                "start_time": 18.634090909090908,
                "end_time": 18.82272727272727,
                "pitch": 63,
                "velocity": 64,
                "duration": 0.1886363636363626,
                "tempo": 120.0
            },
            {
                "start_time": 18.83863636363636,
                "end_time": 20.729545454545452,
                "pitch": 60,
                "velocity": 64,
                "duration": 1.8909090909090907,
                "tempo": 120.0
            },
            {
                "start_time": 20.745454545454546,
                "end_time": 20.811363636363634,
                "pitch": 58,
                "velocity": 64,
                "duration": 0.06590909090908781,
                "tempo": 120.0
            },
            {
                "start_time": 20.827272727272724,
                "end_time": 20.927272727272726,
                "pitch": 60,
                "velocity": 64,
                "duration": 0.10000000000000142,
                "tempo": 120.0
            },
            {
                "start_time": 20.945454545454545,
                "end_time": 21.220454545454544,
                "pitch": 63,
                "velocity": 64,
                "duration": 0.2749999999999986,
                "tempo": 120.0
            },
            {
                "start_time": 21.236363636363635,
                "end_time": 21.536363636363635,
                "pitch": 58,
                "velocity": 64,
                "duration": 0.3000000000000007,
                "tempo": 120.0
            },
            {
                "start_time": 21.554545454545455,
                "end_time": 22.54090909090909,
                "pitch": 60,
                "velocity": 64,
                "duration": 0.9863636363636346,
                "tempo": 120.0
            },
            {
                "start_time": 23.954545454545453,
                "end_time": 24.136363636363637,
                "pitch": 58,
                "velocity": 64,
                "duration": 0.18181818181818343,
                "tempo": 120.0
            },
            {
                "start_time": 24.154545454545453,
                "end_time": 24.427272727272726,
                "pitch": 63,
                "velocity": 64,
                "duration": 0.2727272727272734,
                "tempo": 120.0
            },
            {
                "start_time": 24.445454545454545,
                "end_time": 24.745454545454542,
                "pitch": 60,
                "velocity": 64,
                "duration": 0.29999999999999716,
                "tempo": 120.0
            },
            {
                "start_time": 24.761363636363637,
                "end_time": 25.429545454545455,
                "pitch": 63,
                "velocity": 64,
                "duration": 0.668181818181818,
                "tempo": 120.0
            },
            {
                "start_time": 25.445454545454545,
                "end_time": 25.493181818181817,
                "pitch": 65,
                "velocity": 64,
                "duration": 0.04772727272727195,
                "tempo": 120.0
            },
            {
                "start_time": 25.511363636363637,
                "end_time": 25.625,
                "pitch": 63,
                "velocity": 64,
                "duration": 0.11363636363636331,
                "tempo": 120.0
            },
            {
                "start_time": 25.64090909090909,
                "end_time": 25.743181818181817,
                "pitch": 62,
                "velocity": 64,
                "duration": 0.10227272727272663,
                "tempo": 120.0
            },
            {
                "start_time": 25.759090909090908,
                "end_time": 26.152272727272727,
                "pitch": 60,
                "velocity": 64,
                "duration": 0.3931818181818194,
                "tempo": 120.0
            },
            {
                "start_time": 26.168181818181818,
                "end_time": 26.352272727272727,
                "pitch": 65,
                "velocity": 64,
                "duration": 0.18409090909090864,
                "tempo": 120.0
            },
            {
                "start_time": 26.368181818181817,
                "end_time": 26.752272727272725,
                "pitch": 72,
                "velocity": 64,
                "duration": 0.38409090909090793,
                "tempo": 120.0
            },
            {
                "start_time": 26.768181818181816,
                "end_time": 27.152272727272727,
                "pitch": 70,
                "velocity": 64,
                "duration": 0.3840909090909115,
                "tempo": 120.0
            },
            {
                "start_time": 27.170454545454543,
                "end_time": 27.354545454545452,
                "pitch": 68,
                "velocity": 64,
                "duration": 0.18409090909090864,
                "tempo": 120.0
            },
            {
                "start_time": 27.370454545454542,
                "end_time": 27.754545454545454,
                "pitch": 60,
                "velocity": 64,
                "duration": 0.3840909090909115,
                "tempo": 120.0
            },
            {
                "start_time": 27.770454545454545,
                "end_time": 27.956818181818182,
                "pitch": 63,
                "velocity": 64,
                "duration": 0.1863636363636374,
                "tempo": 120.0
            },
            {
                "start_time": 27.972727272727273,
                "end_time": 28.35681818181818,
                "pitch": 70,
                "velocity": 64,
                "duration": 0.38409090909090793,
                "tempo": 120.0
            },
            {
                "start_time": 28.37272727272727,
                "end_time": 28.89090909090909,
                "pitch": 72,
                "velocity": 64,
                "duration": 0.5181818181818194,
                "tempo": 120.0
            }
        ]
    }
}