{
    "track_id": "Space Harrier 3-D (FM) - 08 - Mysterious Sky",
    "mood": "angry",
    "instruments": {
        "Electric Guitar (clean)": [
            {
                "start_time": 0.0,
                "end_time": 3.393181818181818,
                "pitch": 24,
                "velocity": 51,
                "duration": 3.393181818181818,
                "tempo": 120.0
            },
            {
                "start_time": 3.4272727272727272,
                "end_time": 5.665909090909091,
                "pitch": 24,
                "velocity": 51,
                "duration": 2.2386363636363638,
                "tempo": 120.0
            },
            {
                "start_time": 5.699999999999999,
                "end_time": 6.5659090909090905,
                "pitch": 29,
                "velocity": 51,
                "duration": 0.8659090909090912,
                "tempo": 120.0
            },
            {
                "start_time": 6.597727272727273,
                "end_time": 6.997727272727272,
                "pitch": 31,
                "velocity": 51,
                "duration": 0.39999999999999947,
                "tempo": 120.0
            },
            {
                "start_time": 7.031818181818181,
                "end_time": 7.502272727272727,
                "pitch": 36,
                "velocity": 51,
                "duration": 0.4704545454545457,
                "tempo": 120.0
            },
            {
                "start_time": 7.536363636363636,
                "end_time": 10.10681818181818,
                "pitch": 24,
                "velocity": 51,
                "duration": 2.5704545454545444,
                "tempo": 120.0
            },
            {
                "start_time": 10.138636363636364,
                "end_time": 10.613636363636363,
                "pitch": 24,
                "velocity": 51,
                "duration": 0.47499999999999964,
                "tempo": 120.0
            },
            {
                "start_time": 10.647727272727272,
                "end_time": 12.818181818181818,
                "pitch": 24,
                "velocity": 51,
                "duration": 2.1704545454545467,
                "tempo": 120.0
            },
            {
                "start_time": 12.854545454545454,
                "end_time": 13.772727272727272,
                "pitch": 29,
                "velocity": 51,
                "duration": 0.918181818181818,
                "tempo": 120.0
            },
            {
                "start_time": 13.809090909090909,
                "end_time": 14.234090909090908,
                "pitch": 31,
                "velocity": 51,
                "duration": 0.42499999999999893,
                "tempo": 120.0
            },
            {
                "start_time": 14.268181818181818,
                "end_time": 14.674999999999999,
                "pitch": 36,
                "velocity": 51,
                "duration": 0.4068181818181813,
                "tempo": 120.0
            },
            {
                "start_time": 14.674999999999999,
                "end_time": 17.336363636363636,
                "pitch": 24,
                "velocity": 51,
                "duration": 2.661363636363637,
                "tempo": 120.0
            },
            {
                "start_time": 17.336363636363636,
                "end_time": 17.743181818181817,
                "pitch": 24,
                "velocity": 51,
                "duration": 0.4068181818181813,
                "tempo": 120.0
            },
            {
                "start_time": 17.743181818181817,
                "end_time": 20.018181818181816,
                "pitch": 24,
                "velocity": 51,
                "duration": 2.2749999999999986,
                "tempo": 120.0
            },
            {
                "start_time": 20.086363636363636,
                "end_time": 20.952272727272724,
                "pitch": 29,
                "velocity": 51,
                "duration": 0.8659090909090885,
                "tempo": 120.0
            },
            {
                "start_time": 21.018181818181816,
                "end_time": 21.352272727272727,
                "pitch": 31,
                "velocity": 51,
                "duration": 0.33409090909091077,
                "tempo": 120.0
            },
            {
                "start_time": 21.418181818181818,
                "end_time": 21.85909090909091,
                "pitch": 36,
                "velocity": 51,
                "duration": 0.44090909090909136,
                "tempo": 120.0
            },
            {
                "start_time": 21.85909090909091,
                "end_time": 24.46818181818182,
                "pitch": 24,
                "velocity": 51,
                "duration": 2.6090909090909093,
                "tempo": 120.0
            },
            {
                "start_time": 24.536363636363635,
                "end_time": 24.96818181818182,
                "pitch": 24,
                "velocity": 51,
                "duration": 0.43181818181818343,
                "tempo": 120.0
            },
            {
                "start_time": 24.96818181818182,
                "end_time": 25.136363636363637,
                "pitch": 58,
                "velocity": 101,
                "duration": 0.168181818181818,
                "tempo": 120.0
            },
            {
                "start_time": 25.202272727272724,
                "end_time": 25.404545454545453,
                "pitch": 54,
                "velocity": 101,
                "duration": 0.20227272727272805,
                "tempo": 120.0
            },
            {
                "start_time": 25.472727272727273,
                "end_time": 25.643181818181816,
                "pitch": 51,
                "velocity": 101,
                "duration": 0.1704545454545432,
                "tempo": 120.0
            },
            {
                "start_time": 25.643181818181816,
                "end_time": 25.811363636363634,
                "pitch": 54,
                "velocity": 101,
                "duration": 0.168181818181818,
                "tempo": 120.0
            },
            {
                "start_time": 25.879545454545454,
                "end_time": 26.047727272727272,
                "pitch": 51,
                "velocity": 101,
                "duration": 0.168181818181818,
                "tempo": 120.0
            },
            {
                "start_time": 26.15,
                "end_time": 26.318181818181817,
                "pitch": 48,
                "velocity": 101,
                "duration": 0.168181818181818,
                "tempo": 120.0
            },
            {
                "start_time": 26.318181818181817,
                "end_time": 26.724999999999998,
                "pitch": 60,
                "velocity": 101,
                "duration": 0.4068181818181813,
                "tempo": 120.0
            },
            {
                "start_time": 26.724999999999998,
                "end_time": 27.170454545454543,
                "pitch": 62,
                "velocity": 101,
                "duration": 0.4454545454545453,
                "tempo": 120.0
            },
            {
                "start_time": 27.238636363636363,
                "end_time": 27.693181818181817,
                "pitch": 63,
                "velocity": 101,
                "duration": 0.45454545454545325,
                "tempo": 120.0
            },
            {
                "start_time": 27.693181818181817,
                "end_time": 28.10909090909091,
                "pitch": 67,
                "velocity": 101,
                "duration": 0.4159090909090928,
                "tempo": 120.0
            },
            {
                "start_time": 28.10909090909091,
                "end_time": 28.563636363636363,
                "pitch": 69,
                "velocity": 101,
                "duration": 0.45454545454545325,
                "tempo": 120.0
            }
        ],
        "Acoustic Bass": [
            {
                "start_time": 29.313636363636363,
                "end_time": 29.922727272727272,
                "pitch": 51,
                "velocity": 51,
                "duration": 0.6090909090909093,
                "tempo": 120.0
            },
            {
                "start_time": 29.99090909090909,
                "end_time": 30.327272727272724,
                "pitch": 55,
                "velocity": 51,
                "duration": 0.336363636363636,
                "tempo": 120.0
            },
            {
                "start_time": 30.395454545454545,
                "end_time": 31.011363636363633,
                "pitch": 62,
                "velocity": 51,
                "duration": 0.6159090909090885,
                "tempo": 120.0
            },
            {
                "start_time": 31.079545454545453,
                "end_time": 31.69772727272727,
                "pitch": 55,
                "velocity": 51,
                "duration": 0.6181818181818173,
                "tempo": 120.0
            },
            {
                "start_time": 31.76590909090909,
                "end_time": 32.211363636363636,
                "pitch": 51,
                "velocity": 51,
                "duration": 0.4454545454545453,
                "tempo": 120.0
            },
            {
                "start_time": 32.211363636363636,
                "end_time": 32.788636363636364,
                "pitch": 43,
                "velocity": 51,
                "duration": 0.577272727272728,
                "tempo": 120.0
            },
            {
                "start_time": 32.89090909090909,
                "end_time": 33.465909090909086,
                "pitch": 46,
                "velocity": 51,
                "duration": 0.5749999999999957,
                "tempo": 120.0
            },
            {
                "start_time": 33.53181818181818,
                "end_time": 33.97272727272727,
                "pitch": 50,
                "velocity": 51,
                "duration": 0.4409090909090878,
                "tempo": 120.0
            },
            {
                "start_time": 33.97272727272727,
                "end_time": 34.64090909090909,
                "pitch": 53,
                "velocity": 51,
                "duration": 0.6681818181818215,
                "tempo": 120.0
            },
            {
                "start_time": 34.64090909090909,
                "end_time": 35.30681818181818,
                "pitch": 50,
                "velocity": 51,
                "duration": 0.6659090909090892,
                "tempo": 120.0
            },
            {
                "start_time": 35.30681818181818,
                "end_time": 35.70681818181818,
                "pitch": 46,
                "velocity": 51,
                "duration": 0.3999999999999986,
                "tempo": 120.0
            },
            {
                "start_time": 35.70681818181818,
                "end_time": 36.39772727272727,
                "pitch": 48,
                "velocity": 51,
                "duration": 0.6909090909090949,
                "tempo": 120.0
            },
            {
                "start_time": 36.39772727272727,
                "end_time": 37.10681818181818,
                "pitch": 51,
                "velocity": 51,
                "duration": 0.7090909090909037,
                "tempo": 120.0
            },
            {
                "start_time": 37.10681818181818,
                "end_time": 37.56590909090909,
                "pitch": 55,
                "velocity": 51,
                "duration": 0.45909090909091077,
                "tempo": 120.0
            },
            {
                "start_time": 37.63636363636363,
                "end_time": 38.25454545454545,
                "pitch": 58,
                "velocity": 51,
                "duration": 0.6181818181818173,
                "tempo": 120.0
            },
            {
                "start_time": 38.320454545454545,
                "end_time": 38.929545454545455,
                "pitch": 55,
                "velocity": 51,
                "duration": 0.6090909090909093,
                "tempo": 120.0
            },
            {
                "start_time": 38.99772727272727,
                "end_time": 39.336363636363636,
                "pitch": 51,
                "velocity": 51,
                "duration": 0.3386363636363683,
                "tempo": 120.0
            },
            {
                "start_time": 39.402272727272724,
                "end_time": 40.01136363636363,
                "pitch": 43,
                "velocity": 51,
                "duration": 0.6090909090909093,
                "tempo": 120.0
            },
            {
                "start_time": 40.07954545454545,
                "end_time": 40.68863636363636,
                "pitch": 46,
                "velocity": 51,
                "duration": 0.6090909090909093,
                "tempo": 120.0
            },
            {
                "start_time": 40.75454545454545,
                "end_time": 41.195454545454545,
                "pitch": 50,
                "velocity": 51,
                "duration": 0.4409090909090949,
                "tempo": 120.0
            },
            {
                "start_time": 41.195454545454545,
                "end_time": 41.77045454545454,
                "pitch": 53,
                "velocity": 51,
                "duration": 0.5749999999999957,
                "tempo": 120.0
            },
            {
                "start_time": 41.87045454545454,
                "end_time": 42.445454545454545,
                "pitch": 50,
                "velocity": 51,
                "duration": 0.5750000000000028,
                "tempo": 120.0
            },
            {
                "start_time": 42.51363636363636,
                "end_time": 42.95227272727273,
                "pitch": 46,
                "velocity": 51,
                "duration": 0.4386363636363697,
                "tempo": 120.0
            },
            {
                "start_time": 42.95227272727273,
                "end_time": 43.62954545454545,
                "pitch": 48,
                "velocity": 51,
                "duration": 0.6772727272727224,
                "tempo": 120.0
            },
            {
                "start_time": 43.62954545454545,
                "end_time": 44.30681818181818,
                "pitch": 51,
                "velocity": 51,
                "duration": 0.6772727272727295,
                "tempo": 120.0
            },
            {
                "start_time": 44.30681818181818,
                "end_time": 44.711363636363636,
                "pitch": 55,
                "velocity": 51,
                "duration": 0.4045454545454561,
                "tempo": 120.0
            },
            {
                "start_time": 44.711363636363636,
                "end_time": 45.40681818181818,
                "pitch": 62,
                "velocity": 51,
                "duration": 0.6954545454545453,
                "tempo": 120.0
            },
            {
                "start_time": 45.40681818181818,
                "end_time": 46.11363636363636,
                "pitch": 55,
                "velocity": 51,
                "duration": 0.7068181818181785,
                "tempo": 120.0
            },
            {
                "start_time": 46.11363636363636,
                "end_time": 46.574999999999996,
                "pitch": 51,
                "velocity": 51,
                "duration": 0.461363636363636,
                "tempo": 120.0
            },
            {
                "start_time": 46.64545454545454,
                "end_time": 47.26136363636363,
                "pitch": 43,
                "velocity": 51,
                "duration": 0.6159090909090921,
                "tempo": 120.0
            },
            {
                "start_time": 47.32954545454545,
                "end_time": 47.93863636363636,
                "pitch": 46,
                "velocity": 51,
                "duration": 0.6090909090909093,
                "tempo": 120.0
            },
            {
                "start_time": 48.00454545454545,
                "end_time": 48.34318181818182,
                "pitch": 50,
                "velocity": 51,
                "duration": 0.3386363636363683,
                "tempo": 120.0
            },
            {
                "start_time": 48.41136363636363,
                "end_time": 49.02045454545454,
                "pitch": 53,
                "velocity": 51,
                "duration": 0.6090909090909093,
                "tempo": 120.0
            },
            {
                "start_time": 49.086363636363636,
                "end_time": 49.695454545454545,
                "pitch": 50,
                "velocity": 51,
                "duration": 0.6090909090909093,
                "tempo": 120.0
            },
            {
                "start_time": 49.76363636363636,
                "end_time": 50.20227272727273,
                "pitch": 46,
                "velocity": 51,
                "duration": 0.4386363636363697,
                "tempo": 120.0
            },
            {
                "start_time": 50.20227272727273,
                "end_time": 50.777272727272724,
                "pitch": 48,
                "velocity": 51,
                "duration": 0.5749999999999957,
                "tempo": 120.0
            },
            {
                "start_time": 50.87954545454545,
                "end_time": 51.45454545454545,
                "pitch": 51,
                "velocity": 51,
                "duration": 0.5750000000000028,
                "tempo": 120.0
            },
            {
                "start_time": 51.52272727272727,
                "end_time": 51.961363636363636,
                "pitch": 55,
                "velocity": 51,
                "duration": 0.4386363636363626,
                "tempo": 120.0
            },
            {
                "start_time": 51.961363636363636,
                "end_time": 52.63863636363636,
                "pitch": 58,
                "velocity": 51,
                "duration": 0.6772727272727224,
                "tempo": 120.0
            },
            {
                "start_time": 52.63863636363636,
                "end_time": 53.31363636363636,
                "pitch": 55,
                "velocity": 51,
                "duration": 0.6750000000000043,
                "tempo": 120.0
            },
            {
                "start_time": 53.31363636363636,
                "end_time": 53.720454545454544,
                "pitch": 51,
                "velocity": 51,
                "duration": 0.4068181818181813,
                "tempo": 120.0
            },
            {
                "start_time": 53.720454545454544,
                "end_time": 54.413636363636364,
                "pitch": 43,
                "velocity": 51,
                "duration": 0.6931818181818201,
                "tempo": 120.0
            },
            {
                "start_time": 54.413636363636364,
                "end_time": 55.12272727272727,
                "pitch": 46,
                "velocity": 51,
                "duration": 0.7090909090909037,
                "tempo": 120.0
            },
            {
                "start_time": 55.12272727272727,
                "end_time": 55.58181818181818,
                "pitch": 50,
                "velocity": 51,
                "duration": 0.45909090909091077,
                "tempo": 120.0
            },
            {
                "start_time": 55.652272727272724,
                "end_time": 56.27045454545454,
                "pitch": 53,
                "velocity": 51,
                "duration": 0.6181818181818173,
                "tempo": 120.0
            },
            {
                "start_time": 56.336363636363636,
                "end_time": 56.945454545454545,
                "pitch": 50,
                "velocity": 51,
                "duration": 0.6090909090909093,
                "tempo": 120.0
            },
            {
                "start_time": 57.01363636363636,
                "end_time": 57.35227272727273,
                "pitch": 46,
                "velocity": 51,
                "duration": 0.3386363636363683,
                "tempo": 120.0
            },
            {
                "start_time": 57.418181818181814,
                "end_time": 57.85909090909091,
                "pitch": 46,
                "velocity": 51,
                "duration": 0.4409090909090949,
                "tempo": 120.0
            },
            {
                "start_time": 57.85909090909091,
                "end_time": 58.26363636363636,
                "pitch": 48,
                "velocity": 51,
                "duration": 0.404545454545449,
                "tempo": 120.0
            },
            {
                "start_time": 58.26363636363636,
                "end_time": 58.53409090909091,
                "pitch": 48,
                "velocity": 51,
                "duration": 0.27045454545454817,
                "tempo": 120.0
            },
            {
                "start_time": 58.53409090909091,
                "end_time": 58.94090909090909,
                "pitch": 55,
                "velocity": 51,
                "duration": 0.4068181818181813,
                "tempo": 120.0
            },
            {
                "start_time": 58.94090909090909,
                "end_time": 59.211363636363636,
                "pitch": 48,
                "velocity": 51,
                "duration": 0.27045454545454817,
                "tempo": 120.0
            },
            {
                "start_time": 59.211363636363636,
                "end_time": 59.37954545454545,
                "pitch": 48,
                "velocity": 51,
                "duration": 0.16818181818181444,
                "tempo": 120.0
            },
            {
                "start_time": 59.44772727272727,
                "end_time": 59.615909090909085,
                "pitch": 55,
                "velocity": 51,
                "duration": 0.16818181818181444,
                "tempo": 120.0
            },
            {
                "start_time": 59.615909090909085,
                "end_time": 59.78636363636363,
                "pitch": 48,
                "velocity": 51,
                "duration": 0.17045454545454675,
                "tempo": 120.0
            },
            {
                "start_time": 59.88636363636363,
                "end_time": 60.05681818181818,
                "pitch": 48,
                "velocity": 51,
                "duration": 0.17045454545454675,
                "tempo": 120.0
            },
            {
                "start_time": 60.125,
                "end_time": 60.461363636363636,
                "pitch": 57,
                "velocity": 51,
                "duration": 0.336363636363636,
                "tempo": 120.0
            },
            {
                "start_time": 60.52954545454545,
                "end_time": 61.40909090909091,
                "pitch": 57,
                "velocity": 51,
                "duration": 0.8795454545454575,
                "tempo": 120.0
            },
            {
                "start_time": 61.47727272727273,
                "end_time": 61.51136363636363,
                "pitch": 50,
                "velocity": 51,
                "duration": 0.03409090909090651,
                "tempo": 120.0
            },
            {
                "start_time": 61.51136363636363,
                "end_time": 61.81590909090909,
                "pitch": 48,
                "velocity": 51,
                "duration": 0.3045454545454547,
                "tempo": 120.0
            },
            {
                "start_time": 61.881818181818176,
                "end_time": 62.05227272727272,
                "pitch": 50,
                "velocity": 51,
                "duration": 0.17045454545454675,
                "tempo": 120.0
            },
            {
                "start_time": 62.152272727272724,
                "end_time": 62.490909090909085,
                "pitch": 57,
                "velocity": 51,
                "duration": 0.3386363636363612,
                "tempo": 120.0
            },
            {
                "start_time": 62.559090909090905,
                "end_time": 62.72727272727273,
                "pitch": 50,
                "velocity": 51,
                "duration": 0.16818181818182154,
                "tempo": 120.0
            },
            {
                "start_time": 62.72727272727273,
                "end_time": 62.99772727272727,
                "pitch": 50,
                "velocity": 51,
                "duration": 0.27045454545454106,
                "tempo": 120.0
            },
            {
                "start_time": 62.99772727272727,
                "end_time": 63.41590909090909,
                "pitch": 57,
                "velocity": 51,
                "duration": 0.41818181818182154,
                "tempo": 120.0
            },
            {
                "start_time": 63.41590909090909,
                "end_time": 63.695454545454545,
                "pitch": 50,
                "velocity": 51,
                "duration": 0.2795454545454561,
                "tempo": 120.0
            },
            {
                "start_time": 63.695454545454545,
                "end_time": 64.11363636363636,
                "pitch": 58,
                "velocity": 51,
                "duration": 0.41818181818181444,
                "tempo": 120.0
            },
            {
                "start_time": 64.11363636363636,
                "end_time": 64.97954545454544,
                "pitch": 57,
                "velocity": 51,
                "duration": 0.865909090909085,
                "tempo": 120.0
            },
            {
                "start_time": 65.04772727272727,
                "end_time": 65.48636363636363,
                "pitch": 51,
                "velocity": 51,
                "duration": 0.4386363636363626,
                "tempo": 120.0
            },
            {
                "start_time": 65.48636363636363,
                "end_time": 65.65681818181818,
                "pitch": 51,
                "velocity": 51,
                "duration": 0.17045454545454675,
                "tempo": 120.0
            },
            {
                "start_time": 65.72272727272727,
                "end_time": 66.16363636363636,
                "pitch": 58,
                "velocity": 51,
                "duration": 0.4409090909090878,
                "tempo": 120.0
            },
            {
                "start_time": 66.16363636363636,
                "end_time": 66.33181818181818,
                "pitch": 51,
                "velocity": 51,
                "duration": 0.16818181818182154,
                "tempo": 120.0
            },
            {
                "start_time": 66.39999999999999,
                "end_time": 66.56818181818181,
                "pitch": 51,
                "velocity": 51,
                "duration": 0.16818181818182154,
                "tempo": 120.0
            },
            {
                "start_time": 66.67045454545455,
                "end_time": 67.0090909090909,
                "pitch": 58,
                "velocity": 51,
                "duration": 0.3386363636363541,
                "tempo": 120.0
            },
            {
                "start_time": 67.075,
                "end_time": 67.24545454545454,
                "pitch": 51,
                "velocity": 51,
                "duration": 0.17045454545453254,
                "tempo": 120.0
            },
            {
                "start_time": 67.24545454545454,
                "end_time": 67.68409090909091,
                "pitch": 60,
                "velocity": 51,
                "duration": 0.4386363636363768,
                "tempo": 120.0
            },
            {
                "start_time": 67.75227272727273,
                "end_time": 68.59772727272727,
                "pitch": 58,
                "velocity": 51,
                "duration": 0.8454545454545439,
                "tempo": 120.0
            },
            {
                "start_time": 68.59772727272727,
                "end_time": 69.03636363636363,
                "pitch": 50,
                "velocity": 51,
                "duration": 0.4386363636363626,
                "tempo": 120.0
            },
            {
                "start_time": 69.10454545454544,
                "end_time": 69.27499999999999,
                "pitch": 50,
                "velocity": 51,
                "duration": 0.17045454545454675,
                "tempo": 120.0
            },
            {
                "start_time": 69.27499999999999,
                "end_time": 69.71363636363635,
                "pitch": 57,
                "velocity": 51,
                "duration": 0.4386363636363626,
                "tempo": 120.0
            },
            {
                "start_time": 69.78181818181818,
                "end_time": 69.95,
                "pitch": 50,
                "velocity": 51,
                "duration": 0.16818181818182154,
                "tempo": 120.0
            },
            {
                "start_time": 69.95,
                "end_time": 70.11818181818181,
                "pitch": 50,
                "velocity": 51,
                "duration": 0.16818181818180733,
                "tempo": 120.0
            },
            {
                "start_time": 70.18636363636364,
                "end_time": 70.62727272727273,
                "pitch": 57,
                "velocity": 51,
                "duration": 0.4409090909090878,
                "tempo": 120.0
            },
            {
                "start_time": 70.62727272727273,
                "end_time": 70.79545454545455,
                "pitch": 50,
                "velocity": 51,
                "duration": 0.16818181818182154,
                "tempo": 120.0
            },
            {
                "start_time": 70.86363636363636,
                "end_time": 71.30227272727272,
                "pitch": 58,
                "velocity": 51,
                "duration": 0.4386363636363626,
                "tempo": 120.0
            },
            {
                "start_time": 71.30227272727272,
                "end_time": 72.15454545454546,
                "pitch": 57,
                "velocity": 51,
                "duration": 0.8522727272727337,
                "tempo": 120.0
            },
            {
                "start_time": 72.22272727272727,
                "end_time": 72.67727272727272,
                "pitch": 48,
                "velocity": 51,
                "duration": 0.45454545454545325,
                "tempo": 120.0
            },
            {
                "start_time": 72.67727272727272,
                "end_time": 72.85,
                "pitch": 48,
                "velocity": 51,
                "duration": 0.17272727272727195,
                "tempo": 120.0
            },
            {
                "start_time": 72.92045454545455,
                "end_time": 73.26818181818182,
                "pitch": 55,
                "velocity": 51,
                "duration": 0.3477272727272691,
                "tempo": 120.0
            },
            {
                "start_time": 73.37272727272727,
                "end_time": 73.54772727272727,
                "pitch": 48,
                "velocity": 51,
                "duration": 0.17499999999999716,
                "tempo": 120.0
            },
            {
                "start_time": 73.61590909090908,
                "end_time": 73.79090909090908,
                "pitch": 48,
                "velocity": 51,
                "duration": 0.17499999999999716,
                "tempo": 120.0
            },
            {
                "start_time": 73.79090909090908,
                "end_time": 74.23181818181818,
                "pitch": 55,
                "velocity": 51,
                "duration": 0.440909090909102,
                "tempo": 120.0
            },
            {
                "start_time": 74.29772727272727,
                "end_time": 74.46818181818182,
                "pitch": 48,
                "velocity": 51,
                "duration": 0.17045454545454675,
                "tempo": 120.0
            },
            {
                "start_time": 74.46818181818182,
                "end_time": 74.90681818181818,
                "pitch": 57,
                "velocity": 51,
                "duration": 0.4386363636363626,
                "tempo": 120.0
            },
            {
                "start_time": 74.975,
                "end_time": 75.82045454545454,
                "pitch": 55,
                "velocity": 51,
                "duration": 0.8454545454545439,
                "tempo": 120.0
            },
            {
                "start_time": 75.82045454545454,
                "end_time": 76.225,
                "pitch": 50,
                "velocity": 51,
                "duration": 0.4045454545454561,
                "tempo": 120.0
            },
            {
                "start_time": 76.225,
                "end_time": 76.49545454545454,
                "pitch": 50,
                "velocity": 51,
                "duration": 0.27045454545454106,
                "tempo": 120.0
            },
            {
                "start_time": 76.49545454545454,
                "end_time": 76.90227272727272,
                "pitch": 57,
                "velocity": 51,
                "duration": 0.4068181818181813,
                "tempo": 120.0
            },
            {
                "start_time": 76.90227272727272,
                "end_time": 77.17272727272727,
                "pitch": 50,
                "velocity": 51,
                "duration": 0.2704545454545553,
                "tempo": 120.0
            },
            {
                "start_time": 77.17272727272727,
                "end_time": 77.3409090909091,
                "pitch": 50,
                "velocity": 51,
                "duration": 0.16818181818182154,
                "tempo": 120.0
            },
            {
                "start_time": 77.4090909090909,
                "end_time": 77.74772727272727,
                "pitch": 57,
                "velocity": 51,
                "duration": 0.3386363636363683,
                "tempo": 120.0
            },
            {
                "start_time": 77.84772727272727,
                "end_time": 78.01818181818182,
                "pitch": 50,
                "velocity": 51,
                "duration": 0.17045454545454675,
                "tempo": 120.0
            },
            {
                "start_time": 78.08636363636363,
                "end_time": 78.42272727272727,
                "pitch": 58,
                "velocity": 51,
                "duration": 0.3363636363636431,
                "tempo": 120.0
            },
            {
                "start_time": 78.49090909090908,
                "end_time": 79.36590909090908,
                "pitch": 57,
                "velocity": 51,
                "duration": 0.875,
                "tempo": 120.0
            },
            {
                "start_time": 79.43409090909091,
                "end_time": 79.76590909090909,
                "pitch": 51,
                "velocity": 51,
                "duration": 0.33181818181817846,
                "tempo": 120.0
            },
            {
                "start_time": 79.83181818181818,
                "end_time": 80.0,
                "pitch": 51,
                "velocity": 51,
                "duration": 0.16818181818182154,
                "tempo": 120.0
            },
            {
                "start_time": 80.1,
                "end_time": 80.43181818181817,
                "pitch": 58,
                "velocity": 51,
                "duration": 0.33181818181817846,
                "tempo": 120.0
            },
            {
                "start_time": 80.5,
                "end_time": 80.66590909090908,
                "pitch": 51,
                "velocity": 51,
                "duration": 0.16590909090908212,
                "tempo": 120.0
            },
            {
                "start_time": 80.66590909090908,
                "end_time": 80.93409090909091,
                "pitch": 51,
                "velocity": 51,
                "duration": 0.26818181818183007,
                "tempo": 120.0
            },
            {
                "start_time": 80.93409090909091,
                "end_time": 81.35909090909091,
                "pitch": 58,
                "velocity": 51,
                "duration": 0.42499999999999716,
                "tempo": 120.0
            },
            {
                "start_time": 81.35909090909091,
                "end_time": 81.64090909090909,
                "pitch": 51,
                "velocity": 51,
                "duration": 0.2818181818181813,
                "tempo": 120.0
            },
            {
                "start_time": 81.64090909090909,
                "end_time": 82.06590909090909,
                "pitch": 60,
                "velocity": 51,
                "duration": 0.42499999999999716,
                "tempo": 120.0
            },
            {
                "start_time": 82.06590909090909,
                "end_time": 82.94318181818181,
                "pitch": 58,
                "velocity": 51,
                "duration": 0.8772727272727252,
                "tempo": 120.0
            },
            {
                "start_time": 83.0090909090909,
                "end_time": 83.45,
                "pitch": 50,
                "velocity": 51,
                "duration": 0.440909090909102,
                "tempo": 120.0
            },
            {
                "start_time": 83.45,
                "end_time": 83.61818181818181,
                "pitch": 50,
                "velocity": 51,
                "duration": 0.16818181818180733,
                "tempo": 120.0
            },
            {
                "start_time": 83.68636363636364,
                "end_time": 84.125,
                "pitch": 57,
                "velocity": 51,
                "duration": 0.4386363636363626,
                "tempo": 120.0
            },
            {
                "start_time": 84.125,
                "end_time": 84.29545454545455,
                "pitch": 50,
                "velocity": 51,
                "duration": 0.17045454545454675,
                "tempo": 120.0
            },
            {
                "start_time": 84.36363636363636,
                "end_time": 84.53181818181818,
                "pitch": 50,
                "velocity": 51,
                "duration": 0.16818181818182154,
                "tempo": 120.0
            },
            {
                "start_time": 84.6340909090909,
                "end_time": 84.97045454545454,
                "pitch": 57,
                "velocity": 51,
                "duration": 0.3363636363636431,
                "tempo": 120.0
            },
            {
                "start_time": 85.03863636363636,
                "end_time": 85.2090909090909,
                "pitch": 50,
                "velocity": 51,
                "duration": 0.17045454545454675,
                "tempo": 120.0
            },
            {
                "start_time": 85.2090909090909,
                "end_time": 85.64772727272727,
                "pitch": 58,
                "velocity": 51,
                "duration": 0.4386363636363626,
                "tempo": 120.0
            },
            {
                "start_time": 85.7159090909091,
                "end_time": 86.15454545454546,
                "pitch": 57,
                "velocity": 51,
                "duration": 0.4386363636363626,
                "tempo": 120.0
            }
        ],
        "Trumpet": [
            {
                "start_time": 0.0,
                "end_time": 0.06136363636363636,
                "pitch": 76,
                "velocity": 32,
                "duration": 0.06136363636363636,
                "tempo": 120.0
            },
            {
                "start_time": 0.07727272727272727,
                "end_time": 0.20454545454545453,
                "pitch": 60,
                "velocity": 32,
                "duration": 0.12727272727272726,
                "tempo": 120.0
            },
            {
                "start_time": 0.23863636363636362,
                "end_time": 0.44090909090909086,
                "pitch": 67,
                "velocity": 80,
                "duration": 0.20227272727272724,
                "tempo": 120.0
            },
            {
                "start_time": 0.475,
                "end_time": 0.6113636363636363,
                "pitch": 70,
                "velocity": 80,
                "duration": 0.13636363636363635,
                "tempo": 120.0
            },
            {
                "start_time": 0.7454545454545454,
                "end_time": 0.8818181818181817,
                "pitch": 74,
                "velocity": 80,
                "duration": 0.13636363636363635,
                "tempo": 120.0
            },
            {
                "start_time": 0.9136363636363636,
                "end_time": 1.1181818181818182,
                "pitch": 60,
                "velocity": 80,
                "duration": 0.20454545454545459,
                "tempo": 120.0
            },
            {
                "start_time": 1.1522727272727271,
                "end_time": 1.2863636363636364,
                "pitch": 67,
                "velocity": 80,
                "duration": 0.13409090909090926,
                "tempo": 120.0
            },
            {
                "start_time": 1.3204545454545453,
                "end_time": 1.5568181818181817,
                "pitch": 70,
                "velocity": 80,
                "duration": 0.23636363636363633,
                "tempo": 120.0
            },
            {
                "start_time": 1.5909090909090908,
                "end_time": 1.793181818181818,
                "pitch": 74,
                "velocity": 80,
                "duration": 0.20227272727272716,
                "tempo": 120.0
            },
            {
                "start_time": 1.8272727272727272,
                "end_time": 1.9613636363636362,
                "pitch": 60,
                "velocity": 80,
                "duration": 0.13409090909090904,
                "tempo": 120.0
            },
            {
                "start_time": 1.9931818181818182,
                "end_time": 2.227272727272727,
                "pitch": 67,
                "velocity": 80,
                "duration": 0.2340909090909089,
                "tempo": 120.0
            },
            {
                "start_time": 2.2613636363636362,
                "end_time": 2.4613636363636364,
                "pitch": 65,
                "velocity": 80,
                "duration": 0.20000000000000018,
                "tempo": 120.0
            },
            {
                "start_time": 2.493181818181818,
                "end_time": 2.627272727272727,
                "pitch": 70,
                "velocity": 80,
                "duration": 0.13409090909090882,
                "tempo": 120.0
            },
            {
                "start_time": 2.661363636363636,
                "end_time": 2.8613636363636363,
                "pitch": 74,
                "velocity": 80,
                "duration": 0.20000000000000018,
                "tempo": 120.0
            },
            {
                "start_time": 2.9272727272727272,
                "end_time": 3.127272727272727,
                "pitch": 60,
                "velocity": 80,
                "duration": 0.19999999999999973,
                "tempo": 120.0
            },
            {
                "start_time": 3.161363636363636,
                "end_time": 3.293181818181818,
                "pitch": 67,
                "velocity": 80,
                "duration": 0.13181818181818183,
                "tempo": 120.0
            },
            {
                "start_time": 3.327272727272727,
                "end_time": 3.527272727272727,
                "pitch": 70,
                "velocity": 80,
                "duration": 0.19999999999999973,
                "tempo": 120.0
            },
            {
                "start_time": 3.561363636363636,
                "end_time": 3.8022727272727272,
                "pitch": 74,
                "velocity": 80,
                "duration": 0.24090909090909118,
                "tempo": 120.0
            },
            {
                "start_time": 3.836363636363636,
                "end_time": 3.977272727272727,
                "pitch": 70,
                "velocity": 80,
                "duration": 0.1409090909090911,
                "tempo": 120.0
            },
            {
                "start_time": 4.013636363636364,
                "end_time": 4.225,
                "pitch": 65,
                "velocity": 80,
                "duration": 0.21136363636363598,
                "tempo": 120.0
            },
            {
                "start_time": 4.261363636363636,
                "end_time": 4.509090909090909,
                "pitch": 69,
                "velocity": 80,
                "duration": 0.24772727272727302,
                "tempo": 120.0
            },
            {
                "start_time": 4.543181818181818,
                "end_time": 4.6863636363636365,
                "pitch": 72,
                "velocity": 80,
                "duration": 0.14318181818181852,
                "tempo": 120.0
            },
            {
                "start_time": 4.720454545454545,
                "end_time": 4.934090909090909,
                "pitch": 70,
                "velocity": 80,
                "duration": 0.21363636363636385,
                "tempo": 120.0
            },
            {
                "start_time": 4.968181818181818,
                "end_time": 5.111363636363636,
                "pitch": 65,
                "velocity": 80,
                "duration": 0.14318181818181852,
                "tempo": 120.0
            },
            {
                "start_time": 5.252272727272727,
                "end_time": 5.393181818181818,
                "pitch": 69,
                "velocity": 80,
                "duration": 0.14090909090909065,
                "tempo": 120.0
            },
            {
                "start_time": 5.429545454545455,
                "end_time": 5.631818181818182,
                "pitch": 72,
                "velocity": 80,
                "duration": 0.20227272727272716,
                "tempo": 120.0
            },
            {
                "start_time": 5.665909090909091,
                "end_time": 5.797727272727273,
                "pitch": 57,
                "velocity": 80,
                "duration": 0.13181818181818183,
                "tempo": 120.0
            },
            {
                "start_time": 5.831818181818181,
                "end_time": 6.0659090909090905,
                "pitch": 65,
                "velocity": 80,
                "duration": 0.23409090909090935,
                "tempo": 120.0
            },
            {
                "start_time": 6.097727272727273,
                "end_time": 6.297727272727273,
                "pitch": 69,
                "velocity": 80,
                "duration": 0.20000000000000018,
                "tempo": 120.0
            },
            {
                "start_time": 6.331818181818181,
                "end_time": 6.465909090909091,
                "pitch": 72,
                "velocity": 80,
                "duration": 0.1340909090909097,
                "tempo": 120.0
            },
            {
                "start_time": 6.497727272727272,
                "end_time": 6.7318181818181815,
                "pitch": 70,
                "velocity": 80,
                "duration": 0.23409090909090935,
                "tempo": 120.0
            },
            {
                "start_time": 6.765909090909091,
                "end_time": 6.965909090909091,
                "pitch": 65,
                "velocity": 80,
                "duration": 0.20000000000000018,
                "tempo": 120.0
            },
            {
                "start_time": 6.997727272727272,
                "end_time": 7.131818181818182,
                "pitch": 69,
                "velocity": 80,
                "duration": 0.1340909090909097,
                "tempo": 120.0
            },
            {
                "start_time": 7.16590909090909,
                "end_time": 7.36590909090909,
                "pitch": 60,
                "velocity": 80,
                "duration": 0.20000000000000018,
                "tempo": 120.0
            },
            {
                "start_time": 7.434090909090909,
                "end_time": 7.636363636363636,
                "pitch": 67,
                "velocity": 80,
                "duration": 0.20227272727272716,
                "tempo": 120.0
            },
            {
                "start_time": 7.670454545454545,
                "end_time": 7.806818181818182,
                "pitch": 70,
                "velocity": 80,
                "duration": 0.1363636363636367,
                "tempo": 120.0
            },
            {
                "start_time": 7.840909090909091,
                "end_time": 8.043181818181818,
                "pitch": 74,
                "velocity": 80,
                "duration": 0.20227272727272716,
                "tempo": 120.0
            },
            {
                "start_time": 8.077272727272726,
                "end_time": 8.313636363636363,
                "pitch": 60,
                "velocity": 80,
                "duration": 0.23636363636363633,
                "tempo": 120.0
            },
            {
                "start_time": 8.347727272727273,
                "end_time": 8.48181818181818,
                "pitch": 67,
                "velocity": 80,
                "duration": 0.13409090909090793,
                "tempo": 120.0
            },
            {
                "start_time": 8.51590909090909,
                "end_time": 8.720454545454546,
                "pitch": 70,
                "velocity": 80,
                "duration": 0.20454545454545503,
                "tempo": 120.0
            },
            {
                "start_time": 8.752272727272727,
                "end_time": 8.99090909090909,
                "pitch": 74,
                "velocity": 80,
                "duration": 0.2386363636363633,
                "tempo": 120.0
            },
            {
                "start_time": 9.022727272727272,
                "end_time": 9.159090909090908,
                "pitch": 60,
                "velocity": 80,
                "duration": 0.1363636363636367,
                "tempo": 120.0
            },
            {
                "start_time": 9.193181818181818,
                "end_time": 9.395454545454545,
                "pitch": 67,
                "velocity": 80,
                "duration": 0.20227272727272627,
                "tempo": 120.0
            },
            {
                "start_time": 9.429545454545455,
                "end_time": 9.56590909090909,
                "pitch": 65,
                "velocity": 80,
                "duration": 0.1363636363636349,
                "tempo": 120.0
            },
            {
                "start_time": 9.7,
                "end_time": 9.836363636363636,
                "pitch": 70,
                "velocity": 80,
                "duration": 0.1363636363636367,
                "tempo": 120.0
            },
            {
                "start_time": 9.868181818181817,
                "end_time": 10.072727272727272,
                "pitch": 74,
                "velocity": 80,
                "duration": 0.20454545454545503,
                "tempo": 120.0
            },
            {
                "start_time": 10.10681818181818,
                "end_time": 10.24090909090909,
                "pitch": 60,
                "velocity": 80,
                "duration": 0.1340909090909097,
                "tempo": 120.0
            },
            {
                "start_time": 10.275,
                "end_time": 10.511363636363637,
                "pitch": 67,
                "velocity": 80,
                "duration": 0.23636363636363633,
                "tempo": 120.0
            },
            {
                "start_time": 10.545454545454545,
                "end_time": 10.747727272727273,
                "pitch": 70,
                "velocity": 80,
                "duration": 0.20227272727272805,
                "tempo": 120.0
            },
            {
                "start_time": 10.781818181818181,
                "end_time": 10.918181818181818,
                "pitch": 74,
                "velocity": 80,
                "duration": 0.1363636363636367,
                "tempo": 120.0
            },
            {
                "start_time": 10.952272727272726,
                "end_time": 11.188636363636363,
                "pitch": 70,
                "velocity": 80,
                "duration": 0.23636363636363633,
                "tempo": 120.0
            },
            {
                "start_time": 11.222727272727273,
                "end_time": 11.424999999999999,
                "pitch": 65,
                "velocity": 80,
                "duration": 0.20227272727272627,
                "tempo": 120.0
            },
            {
                "start_time": 11.459090909090909,
                "end_time": 11.593181818181817,
                "pitch": 69,
                "velocity": 80,
                "duration": 0.13409090909090793,
                "tempo": 120.0
            },
            {
                "start_time": 11.627272727272727,
                "end_time": 11.829545454545453,
                "pitch": 72,
                "velocity": 80,
                "duration": 0.20227272727272627,
                "tempo": 120.0
            },
            {
                "start_time": 11.897727272727272,
                "end_time": 12.1,
                "pitch": 70,
                "velocity": 80,
                "duration": 0.20227272727272805,
                "tempo": 120.0
            },
            {
                "start_time": 12.134090909090908,
                "end_time": 12.270454545454545,
                "pitch": 65,
                "velocity": 80,
                "duration": 0.1363636363636367,
                "tempo": 120.0
            },
            {
                "start_time": 12.304545454545455,
                "end_time": 12.506818181818181,
                "pitch": 69,
                "velocity": 80,
                "duration": 0.20227272727272627,
                "tempo": 120.0
            },
            {
                "start_time": 12.540909090909091,
                "end_time": 12.784090909090908,
                "pitch": 72,
                "velocity": 80,
                "duration": 0.24318181818181728,
                "tempo": 120.0
            },
            {
                "start_time": 12.818181818181818,
                "end_time": 12.959090909090909,
                "pitch": 57,
                "velocity": 80,
                "duration": 0.14090909090909065,
                "tempo": 120.0
            },
            {
                "start_time": 12.995454545454544,
                "end_time": 13.206818181818182,
                "pitch": 65,
                "velocity": 80,
                "duration": 0.21136363636363775,
                "tempo": 120.0
            },
            {
                "start_time": 13.243181818181817,
                "end_time": 13.49090909090909,
                "pitch": 69,
                "velocity": 80,
                "duration": 0.24772727272727302,
                "tempo": 120.0
            },
            {
                "start_time": 13.524999999999999,
                "end_time": 13.668181818181818,
                "pitch": 72,
                "velocity": 80,
                "duration": 0.1431818181818194,
                "tempo": 120.0
            },
            {
                "start_time": 13.702272727272726,
                "end_time": 13.915909090909091,
                "pitch": 70,
                "velocity": 80,
                "duration": 0.21363636363636473,
                "tempo": 120.0
            },
            {
                "start_time": 13.95,
                "end_time": 14.09090909090909,
                "pitch": 65,
                "velocity": 80,
                "duration": 0.14090909090909065,
                "tempo": 120.0
            },
            {
                "start_time": 14.234090909090908,
                "end_time": 14.409090909090908,
                "pitch": 69,
                "velocity": 80,
                "duration": 0.1750000000000007,
                "tempo": 120.0
            },
            {
                "start_time": 14.409090909090908,
                "end_time": 14.577272727272726,
                "pitch": 60,
                "velocity": 80,
                "duration": 0.168181818181818,
                "tempo": 120.0
            },
            {
                "start_time": 14.643181818181818,
                "end_time": 14.806818181818182,
                "pitch": 67,
                "velocity": 80,
                "duration": 0.16363636363636402,
                "tempo": 120.0
            },
            {
                "start_time": 14.806818181818182,
                "end_time": 15.070454545454545,
                "pitch": 70,
                "velocity": 80,
                "duration": 0.26363636363636367,
                "tempo": 120.0
            },
            {
                "start_time": 15.070454545454545,
                "end_time": 15.234090909090908,
                "pitch": 74,
                "velocity": 80,
                "duration": 0.16363636363636225,
                "tempo": 120.0
            },
            {
                "start_time": 15.299999999999999,
                "end_time": 15.463636363636363,
                "pitch": 60,
                "velocity": 80,
                "duration": 0.16363636363636402,
                "tempo": 120.0
            },
            {
                "start_time": 15.463636363636363,
                "end_time": 15.727272727272727,
                "pitch": 67,
                "velocity": 80,
                "duration": 0.26363636363636367,
                "tempo": 120.0
            },
            {
                "start_time": 15.727272727272727,
                "end_time": 15.89090909090909,
                "pitch": 70,
                "velocity": 80,
                "duration": 0.16363636363636402,
                "tempo": 120.0
            },
            {
                "start_time": 15.95681818181818,
                "end_time": 16.120454545454546,
                "pitch": 74,
                "velocity": 80,
                "duration": 0.1636363636363658,
                "tempo": 120.0
            },
            {
                "start_time": 16.120454545454546,
                "end_time": 16.288636363636364,
                "pitch": 60,
                "velocity": 80,
                "duration": 0.168181818181818,
                "tempo": 120.0
            },
            {
                "start_time": 16.39090909090909,
                "end_time": 16.55909090909091,
                "pitch": 67,
                "velocity": 80,
                "duration": 0.168181818181818,
                "tempo": 120.0
            },
            {
                "start_time": 16.627272727272725,
                "end_time": 16.795454545454543,
                "pitch": 65,
                "velocity": 80,
                "duration": 0.168181818181818,
                "tempo": 120.0
            },
            {
                "start_time": 16.795454545454543,
                "end_time": 16.96590909090909,
                "pitch": 70,
                "velocity": 80,
                "duration": 0.17045454545454675,
                "tempo": 120.0
            },
            {
                "start_time": 17.03181818181818,
                "end_time": 17.236363636363635,
                "pitch": 74,
                "velocity": 80,
                "duration": 0.20454545454545325,
                "tempo": 120.0
            },
            {
                "start_time": 17.302272727272726,
                "end_time": 17.472727272727273,
                "pitch": 60,
                "velocity": 80,
                "duration": 0.17045454545454675,
                "tempo": 120.0
            },
            {
                "start_time": 17.472727272727273,
                "end_time": 17.64090909090909,
                "pitch": 67,
                "velocity": 80,
                "duration": 0.168181818181818,
                "tempo": 120.0
            },
            {
                "start_time": 17.709090909090907,
                "end_time": 17.911363636363635,
                "pitch": 70,
                "velocity": 80,
                "duration": 0.20227272727272805,
                "tempo": 120.0
            },
            {
                "start_time": 17.979545454545455,
                "end_time": 18.154545454545453,
                "pitch": 74,
                "velocity": 80,
                "duration": 0.17499999999999716,
                "tempo": 120.0
            },
            {
                "start_time": 18.154545454545453,
                "end_time": 18.331818181818182,
                "pitch": 70,
                "velocity": 80,
                "duration": 0.17727272727272947,
                "tempo": 120.0
            },
            {
                "start_time": 18.402272727272727,
                "end_time": 18.577272727272728,
                "pitch": 65,
                "velocity": 80,
                "duration": 0.1750000000000007,
                "tempo": 120.0
            },
            {
                "start_time": 18.68409090909091,
                "end_time": 18.861363636363635,
                "pitch": 69,
                "velocity": 80,
                "duration": 0.17727272727272592,
                "tempo": 120.0
            },
            {
                "start_time": 18.861363636363635,
                "end_time": 19.038636363636364,
                "pitch": 72,
                "velocity": 80,
                "duration": 0.17727272727272947,
                "tempo": 120.0
            },
            {
                "start_time": 19.10909090909091,
                "end_time": 19.286363636363635,
                "pitch": 70,
                "velocity": 80,
                "duration": 0.17727272727272592,
                "tempo": 120.0
            },
            {
                "start_time": 19.286363636363635,
                "end_time": 19.568181818181817,
                "pitch": 65,
                "velocity": 80,
                "duration": 0.2818181818181813,
                "tempo": 120.0
            },
            {
                "start_time": 19.568181818181817,
                "end_time": 19.745454545454546,
                "pitch": 69,
                "velocity": 80,
                "duration": 0.17727272727272947,
                "tempo": 120.0
            },
            {
                "start_time": 19.81590909090909,
                "end_time": 19.986363636363635,
                "pitch": 72,
                "velocity": 80,
                "duration": 0.1704545454545432,
                "tempo": 120.0
            },
            {
                "start_time": 19.986363636363635,
                "end_time": 20.252272727272725,
                "pitch": 57,
                "velocity": 80,
                "duration": 0.26590909090909065,
                "tempo": 120.0
            },
            {
                "start_time": 20.252272727272725,
                "end_time": 20.418181818181818,
                "pitch": 65,
                "velocity": 80,
                "duration": 0.16590909090909278,
                "tempo": 120.0
            },
            {
                "start_time": 20.486363636363635,
                "end_time": 20.652272727272727,
                "pitch": 69,
                "velocity": 80,
                "duration": 0.16590909090909278,
                "tempo": 120.0
            },
            {
                "start_time": 20.652272727272727,
                "end_time": 20.818181818181817,
                "pitch": 72,
                "velocity": 80,
                "duration": 0.16590909090908923,
                "tempo": 120.0
            },
            {
                "start_time": 20.918181818181818,
                "end_time": 21.084090909090907,
                "pitch": 70,
                "velocity": 80,
                "duration": 0.16590909090908923,
                "tempo": 120.0
            },
            {
                "start_time": 21.152272727272727,
                "end_time": 21.318181818181817,
                "pitch": 65,
                "velocity": 80,
                "duration": 0.16590909090908923,
                "tempo": 120.0
            },
            {
                "start_time": 21.318181818181817,
                "end_time": 21.48409090909091,
                "pitch": 69,
                "velocity": 80,
                "duration": 0.16590909090909278,
                "tempo": 120.0
            },
            {
                "start_time": 21.552272727272726,
                "end_time": 21.754545454545454,
                "pitch": 60,
                "velocity": 80,
                "duration": 0.20227272727272805,
                "tempo": 120.0
            },
            {
                "start_time": 21.82272727272727,
                "end_time": 21.995454545454546,
                "pitch": 67,
                "velocity": 80,
                "duration": 0.1727272727272755,
                "tempo": 120.0
            },
            {
                "start_time": 21.995454545454546,
                "end_time": 22.16590909090909,
                "pitch": 70,
                "velocity": 80,
                "duration": 0.1704545454545432,
                "tempo": 120.0
            },
            {
                "start_time": 22.236363636363635,
                "end_time": 22.44090909090909,
                "pitch": 74,
                "velocity": 80,
                "duration": 0.2045454545454568,
                "tempo": 120.0
            },
            {
                "start_time": 22.509090909090908,
                "end_time": 22.68181818181818,
                "pitch": 60,
                "velocity": 80,
                "duration": 0.17272727272727195,
                "tempo": 120.0
            },
            {
                "start_time": 22.68181818181818,
                "end_time": 22.852272727272727,
                "pitch": 67,
                "velocity": 80,
                "duration": 0.17045454545454675,
                "tempo": 120.0
            },
            {
                "start_time": 22.922727272727272,
                "end_time": 23.09318181818182,
                "pitch": 70,
                "velocity": 80,
                "duration": 0.17045454545454675,
                "tempo": 120.0
            },
            {
                "start_time": 23.195454545454545,
                "end_time": 23.368181818181817,
                "pitch": 74,
                "velocity": 80,
                "duration": 0.17272727272727195,
                "tempo": 120.0
            },
            {
                "start_time": 23.368181818181817,
                "end_time": 23.536363636363635,
                "pitch": 60,
                "velocity": 80,
                "duration": 0.168181818181818,
                "tempo": 120.0
            },
            {
                "start_time": 23.602272727272727,
                "end_time": 23.768181818181816,
                "pitch": 67,
                "velocity": 80,
                "duration": 0.16590909090908923,
                "tempo": 120.0
            },
            {
                "start_time": 23.768181818181816,
                "end_time": 24.036363636363635,
                "pitch": 70,
                "velocity": 80,
                "duration": 0.2681818181818194,
                "tempo": 120.0
            },
            {
                "start_time": 24.036363636363635,
                "end_time": 24.202272727272724,
                "pitch": 74,
                "velocity": 80,
                "duration": 0.16590909090908923,
                "tempo": 120.0
            },
            {
                "start_time": 24.268181818181816,
                "end_time": 24.436363636363634,
                "pitch": 60,
                "velocity": 80,
                "duration": 0.168181818181818,
                "tempo": 120.0
            },
            {
                "start_time": 24.436363636363634,
                "end_time": 24.702272727272724,
                "pitch": 67,
                "velocity": 80,
                "duration": 0.26590909090909065,
                "tempo": 120.0
            },
            {
                "start_time": 24.702272727272724,
                "end_time": 24.868181818181817,
                "pitch": 70,
                "velocity": 80,
                "duration": 0.16590909090909278,
                "tempo": 120.0
            },
            {
                "start_time": 24.936363636363634,
                "end_time": 25.102272727272727,
                "pitch": 75,
                "velocity": 80,
                "duration": 0.16590909090909278,
                "tempo": 120.0
            },
            {
                "start_time": 25.102272727272727,
                "end_time": 25.270454545454545,
                "pitch": 70,
                "velocity": 80,
                "duration": 0.168181818181818,
                "tempo": 120.0
            },
            {
                "start_time": 25.37272727272727,
                "end_time": 25.54090909090909,
                "pitch": 66,
                "velocity": 80,
                "duration": 0.168181818181818,
                "tempo": 120.0
            },
            {
                "start_time": 25.60909090909091,
                "end_time": 25.777272727272727,
                "pitch": 63,
                "velocity": 80,
                "duration": 0.168181818181818,
                "tempo": 120.0
            },
            {
                "start_time": 25.777272727272727,
                "end_time": 25.945454545454545,
                "pitch": 66,
                "velocity": 80,
                "duration": 0.168181818181818,
                "tempo": 120.0
            },
            {
                "start_time": 26.013636363636362,
                "end_time": 26.218181818181815,
                "pitch": 63,
                "velocity": 80,
                "duration": 0.20454545454545325,
                "tempo": 120.0
            },
            {
                "start_time": 26.284090909090907,
                "end_time": 26.454545454545453,
                "pitch": 60,
                "velocity": 80,
                "duration": 0.17045454545454675,
                "tempo": 120.0
            },
            {
                "start_time": 26.454545454545453,
                "end_time": 26.893181818181816,
                "pitch": 72,
                "velocity": 80,
                "duration": 0.4386363636363626,
                "tempo": 120.0
            },
            {
                "start_time": 26.961363636363636,
                "end_time": 27.30909090909091,
                "pitch": 74,
                "velocity": 80,
                "duration": 0.34772727272727266,
                "tempo": 120.0
            },
            {
                "start_time": 27.379545454545454,
                "end_time": 27.831818181818182,
                "pitch": 75,
                "velocity": 80,
                "duration": 0.45227272727272805,
                "tempo": 120.0
            },
            {
                "start_time": 27.831818181818182,
                "end_time": 28.25,
                "pitch": 79,
                "velocity": 80,
                "duration": 0.418181818181818,
                "tempo": 120.0
            },
            {
                "start_time": 28.25,
                "end_time": 28.702272727272724,
                "pitch": 81,
                "velocity": 80,
                "duration": 0.4522727272727245,
                "tempo": 120.0
            },
            {
                "start_time": 28.77272727272727,
                "end_time": 30.05681818181818,
                "pitch": 72,
                "velocity": 80,
                "duration": 1.28409090909091,
                "tempo": 120.0
            },
            {
                "start_time": 30.125,
                "end_time": 30.46363636363636,
                "pitch": 70,
                "velocity": 80,
                "duration": 0.3386363636363612,
                "tempo": 120.0
            },
            {
                "start_time": 30.53181818181818,
                "end_time": 31.14772727272727,
                "pitch": 74,
                "velocity": 80,
                "duration": 0.6159090909090885,
                "tempo": 120.0
            },
            {
                "start_time": 31.21590909090909,
                "end_time": 31.834090909090907,
                "pitch": 67,
                "velocity": 80,
                "duration": 0.6181818181818173,
                "tempo": 120.0
            },
            {
                "start_time": 31.902272727272727,
                "end_time": 32.34772727272727,
                "pitch": 70,
                "velocity": 80,
                "duration": 0.4454545454545418,
                "tempo": 120.0
            },
            {
                "start_time": 32.34772727272727,
                "end_time": 32.925,
                "pitch": 65,
                "velocity": 80,
                "duration": 0.577272727272728,
                "tempo": 120.0
            },
            {
                "start_time": 32.99090909090909,
                "end_time": 35.44090909090909,
                "pitch": 67,
                "velocity": 80,
                "duration": 2.4499999999999957,
                "tempo": 120.0
            },
            {
                "start_time": 35.44090909090909,
                "end_time": 35.60681818181818,
                "pitch": 70,
                "velocity": 80,
                "duration": 0.16590909090908923,
                "tempo": 120.0
            },
            {
                "start_time": 35.675,
                "end_time": 35.875,
                "pitch": 74,
                "velocity": 80,
                "duration": 0.20000000000000284,
                "tempo": 120.0
            },
            {
                "start_time": 35.94090909090909,
                "end_time": 37.24772727272727,
                "pitch": 67,
                "velocity": 80,
                "duration": 1.3068181818181799,
                "tempo": 120.0
            },
            {
                "start_time": 37.24772727272727,
                "end_time": 37.70681818181818,
                "pitch": 79,
                "velocity": 80,
                "duration": 0.45909090909091077,
                "tempo": 120.0
            },
            {
                "start_time": 37.777272727272724,
                "end_time": 38.38863636363636,
                "pitch": 77,
                "velocity": 80,
                "duration": 0.6113636363636346,
                "tempo": 120.0
            },
            {
                "start_time": 38.45681818181818,
                "end_time": 39.06590909090909,
                "pitch": 82,
                "velocity": 80,
                "duration": 0.6090909090909093,
                "tempo": 120.0
            },
            {
                "start_time": 39.13181818181818,
                "end_time": 39.470454545454544,
                "pitch": 81,
                "velocity": 80,
                "duration": 0.3386363636363612,
                "tempo": 120.0
            },
            {
                "start_time": 39.538636363636364,
                "end_time": 40.14772727272727,
                "pitch": 79,
                "velocity": 80,
                "duration": 0.6090909090909093,
                "tempo": 120.0
            },
            {
                "start_time": 40.21363636363636,
                "end_time": 42.68181818181818,
                "pitch": 77,
                "velocity": 80,
                "duration": 2.4681818181818187,
                "tempo": 120.0
            },
            {
                "start_time": 42.68181818181818,
                "end_time": 42.85227272727273,
                "pitch": 70,
                "velocity": 80,
                "duration": 0.17045454545454675,
                "tempo": 120.0
            },
            {
                "start_time": 42.92045454545455,
                "end_time": 43.08863636363636,
                "pitch": 74,
                "velocity": 80,
                "duration": 0.16818181818181444,
                "tempo": 120.0
            },
            {
                "start_time": 43.08863636363636,
                "end_time": 44.44090909090909,
                "pitch": 67,
                "velocity": 80,
                "duration": 1.3522727272727266,
                "tempo": 120.0
            },
            {
                "start_time": 44.44090909090909,
                "end_time": 44.88181818181818,
                "pitch": 70,
                "velocity": 80,
                "duration": 0.4409090909090949,
                "tempo": 120.0
            },
            {
                "start_time": 44.94772727272727,
                "end_time": 46.25454545454545,
                "pitch": 72,
                "velocity": 80,
                "duration": 1.3068181818181799,
                "tempo": 120.0
            },
            {
                "start_time": 46.25454545454545,
                "end_time": 46.715909090909086,
                "pitch": 65,
                "velocity": 80,
                "duration": 0.461363636363636,
                "tempo": 120.0
            },
            {
                "start_time": 46.78636363636363,
                "end_time": 49.83181818181818,
                "pitch": 67,
                "velocity": 80,
                "duration": 3.0454545454545467,
                "tempo": 120.0
            },
            {
                "start_time": 49.89772727272727,
                "end_time": 50.06818181818181,
                "pitch": 70,
                "velocity": 80,
                "duration": 0.17045454545453964,
                "tempo": 120.0
            },
            {
                "start_time": 50.17045454545454,
                "end_time": 50.33863636363636,
                "pitch": 74,
                "velocity": 80,
                "duration": 0.16818181818182154,
                "tempo": 120.0
            },
            {
                "start_time": 50.33863636363636,
                "end_time": 51.69090909090909,
                "pitch": 67,
                "velocity": 80,
                "duration": 1.3522727272727266,
                "tempo": 120.0
            },
            {
                "start_time": 51.69090909090909,
                "end_time": 51.85909090909091,
                "pitch": 70,
                "velocity": 80,
                "duration": 0.16818181818182154,
                "tempo": 120.0
            },
            {
                "start_time": 51.92727272727272,
                "end_time": 52.09772727272727,
                "pitch": 74,
                "velocity": 80,
                "duration": 0.17045454545454675,
                "tempo": 120.0
            },
            {
                "start_time": 52.09772727272727,
                "end_time": 53.21363636363636,
                "pitch": 67,
                "velocity": 80,
                "duration": 1.115909090909092,
                "tempo": 120.0
            },
            {
                "start_time": 53.27954545454545,
                "end_time": 53.61818181818182,
                "pitch": 79,
                "velocity": 80,
                "duration": 0.3386363636363683,
                "tempo": 120.0
            },
            {
                "start_time": 53.68636363636363,
                "end_time": 53.88863636363636,
                "pitch": 77,
                "velocity": 80,
                "duration": 0.20227272727272805,
                "tempo": 120.0
            },
            {
                "start_time": 53.95681818181818,
                "end_time": 55.72272727272727,
                "pitch": 82,
                "velocity": 80,
                "duration": 1.7659090909090907,
                "tempo": 120.0
            },
            {
                "start_time": 55.793181818181814,
                "end_time": 56.40454545454545,
                "pitch": 79,
                "velocity": 80,
                "duration": 0.6113636363636346,
                "tempo": 120.0
            },
            {
                "start_time": 56.47272727272727,
                "end_time": 57.08181818181818,
                "pitch": 77,
                "velocity": 80,
                "duration": 0.6090909090909093,
                "tempo": 120.0
            },
            {
                "start_time": 57.14772727272727,
                "end_time": 57.486363636363635,
                "pitch": 75,
                "velocity": 80,
                "duration": 0.3386363636363612,
                "tempo": 120.0
            },
            {
                "start_time": 57.554545454545455,
                "end_time": 57.756818181818176,
                "pitch": 67,
                "velocity": 80,
                "duration": 0.20227272727272094,
                "tempo": 120.0
            },
            {
                "start_time": 57.824999999999996,
                "end_time": 57.99318181818182,
                "pitch": 70,
                "velocity": 80,
                "duration": 0.16818181818182154,
                "tempo": 120.0
            },
            {
                "start_time": 57.99318181818182,
                "end_time": 58.163636363636364,
                "pitch": 72,
                "velocity": 80,
                "duration": 0.17045454545454675,
                "tempo": 120.0
            },
            {
                "start_time": 58.22954545454545,
                "end_time": 58.434090909090905,
                "pitch": 67,
                "velocity": 80,
                "duration": 0.20454545454545325,
                "tempo": 120.0
            },
            {
                "start_time": 58.502272727272725,
                "end_time": 58.67045454545454,
                "pitch": 70,
                "velocity": 80,
                "duration": 0.16818181818181444,
                "tempo": 120.0
            },
            {
                "start_time": 58.67045454545454,
                "end_time": 58.83863636363636,
                "pitch": 72,
                "velocity": 80,
                "duration": 0.16818181818182154,
                "tempo": 120.0
            },
            {
                "start_time": 58.90681818181818,
                "end_time": 59.074999999999996,
                "pitch": 67,
                "velocity": 80,
                "duration": 0.16818181818181444,
                "tempo": 120.0
            },
            {
                "start_time": 59.17727272727272,
                "end_time": 59.345454545454544,
                "pitch": 70,
                "velocity": 80,
                "duration": 0.16818181818182154,
                "tempo": 120.0
            },
            {
                "start_time": 59.345454545454544,
                "end_time": 59.51590909090909,
                "pitch": 72,
                "velocity": 80,
                "duration": 0.17045454545454675,
                "tempo": 120.0
            },
            {
                "start_time": 59.584090909090904,
                "end_time": 59.752272727272725,
                "pitch": 67,
                "velocity": 80,
                "duration": 0.16818181818182154,
                "tempo": 120.0
            },
            {
                "start_time": 59.752272727272725,
                "end_time": 60.022727272727266,
                "pitch": 70,
                "velocity": 80,
                "duration": 0.27045454545454106,
                "tempo": 120.0
            },
            {
                "start_time": 60.022727272727266,
                "end_time": 60.19090909090909,
                "pitch": 72,
                "velocity": 80,
                "duration": 0.16818181818182154,
                "tempo": 120.0
            },
            {
                "start_time": 60.25909090909091,
                "end_time": 60.429545454545455,
                "pitch": 67,
                "velocity": 80,
                "duration": 0.17045454545454675,
                "tempo": 120.0
            },
            {
                "start_time": 60.429545454545455,
                "end_time": 60.699999999999996,
                "pitch": 70,
                "velocity": 80,
                "duration": 0.27045454545454106,
                "tempo": 120.0
            },
            {
                "start_time": 60.699999999999996,
                "end_time": 61.10454545454545,
                "pitch": 72,
                "velocity": 80,
                "duration": 0.4045454545454561,
                "tempo": 120.0
            },
            {
                "start_time": 61.10454545454545,
                "end_time": 61.272727272727266,
                "pitch": 69,
                "velocity": 80,
                "duration": 0.16818181818181444,
                "tempo": 120.0
            },
            {
                "start_time": 61.375,
                "end_time": 61.543181818181814,
                "pitch": 72,
                "velocity": 80,
                "duration": 0.16818181818181444,
                "tempo": 120.0
            },
            {
                "start_time": 61.611363636363635,
                "end_time": 61.78181818181818,
                "pitch": 74,
                "velocity": 80,
                "duration": 0.17045454545454675,
                "tempo": 120.0
            },
            {
                "start_time": 61.78181818181818,
                "end_time": 61.949999999999996,
                "pitch": 69,
                "velocity": 80,
                "duration": 0.16818181818181444,
                "tempo": 120.0
            },
            {
                "start_time": 62.018181818181816,
                "end_time": 62.220454545454544,
                "pitch": 72,
                "velocity": 80,
                "duration": 0.20227272727272805,
                "tempo": 120.0
            },
            {
                "start_time": 62.288636363636364,
                "end_time": 62.45681818181818,
                "pitch": 74,
                "velocity": 80,
                "duration": 0.16818181818181444,
                "tempo": 120.0
            },
            {
                "start_time": 62.45681818181818,
                "end_time": 62.627272727272725,
                "pitch": 69,
                "velocity": 80,
                "duration": 0.17045454545454675,
                "tempo": 120.0
            },
            {
                "start_time": 62.69318181818181,
                "end_time": 62.897727272727266,
                "pitch": 72,
                "velocity": 80,
                "duration": 0.20454545454545325,
                "tempo": 120.0
            },
            {
                "start_time": 62.96363636363636,
                "end_time": 63.13863636363636,
                "pitch": 74,
                "velocity": 80,
                "duration": 0.17499999999999716,
                "tempo": 120.0
            },
            {
                "start_time": 63.13863636363636,
                "end_time": 63.31136363636363,
                "pitch": 69,
                "velocity": 80,
                "duration": 0.17272727272727195,
                "tempo": 120.0
            },
            {
                "start_time": 63.381818181818176,
                "end_time": 63.55681818181818,
                "pitch": 69,
                "velocity": 80,
                "duration": 0.17500000000000426,
                "tempo": 120.0
            },
            {
                "start_time": 63.66136363636363,
                "end_time": 63.834090909090904,
                "pitch": 74,
                "velocity": 80,
                "duration": 0.17272727272727195,
                "tempo": 120.0
            },
            {
                "start_time": 63.834090909090904,
                "end_time": 64.0090909090909,
                "pitch": 69,
                "velocity": 80,
                "duration": 0.17499999999999716,
                "tempo": 120.0
            },
            {
                "start_time": 64.07954545454545,
                "end_time": 64.25227272727273,
                "pitch": 72,
                "velocity": 80,
                "duration": 0.17272727272727195,
                "tempo": 120.0
            },
            {
                "start_time": 64.25227272727273,
                "end_time": 64.70681818181818,
                "pitch": 74,
                "velocity": 80,
                "duration": 0.45454545454545325,
                "tempo": 120.0
            },
            {
                "start_time": 64.77499999999999,
                "end_time": 64.94545454545454,
                "pitch": 70,
                "velocity": 80,
                "duration": 0.17045454545454675,
                "tempo": 120.0
            },
            {
                "start_time": 64.94545454545454,
                "end_time": 65.2159090909091,
                "pitch": 74,
                "velocity": 80,
                "duration": 0.2704545454545553,
                "tempo": 120.0
            },
            {
                "start_time": 65.2159090909091,
                "end_time": 65.38636363636364,
                "pitch": 75,
                "velocity": 80,
                "duration": 0.17045454545454675,
                "tempo": 120.0
            },
            {
                "start_time": 65.45227272727273,
                "end_time": 65.62272727272727,
                "pitch": 70,
                "velocity": 80,
                "duration": 0.17045454545454675,
                "tempo": 120.0
            },
            {
                "start_time": 65.62272727272727,
                "end_time": 65.79090909090908,
                "pitch": 74,
                "velocity": 80,
                "duration": 0.16818181818180733,
                "tempo": 120.0
            },
            {
                "start_time": 65.89318181818182,
                "end_time": 66.06136363636364,
                "pitch": 75,
                "velocity": 80,
                "duration": 0.16818181818182154,
                "tempo": 120.0
            },
            {
                "start_time": 66.12954545454545,
                "end_time": 66.29772727272727,
                "pitch": 70,
                "velocity": 80,
                "duration": 0.16818181818182154,
                "tempo": 120.0
            },
            {
                "start_time": 66.29772727272727,
                "end_time": 66.46818181818182,
                "pitch": 74,
                "velocity": 80,
                "duration": 0.17045454545454675,
                "tempo": 120.0
            },
            {
                "start_time": 66.5340909090909,
                "end_time": 66.73863636363636,
                "pitch": 75,
                "velocity": 80,
                "duration": 0.20454545454545325,
                "tempo": 120.0
            },
            {
                "start_time": 66.80454545454545,
                "end_time": 66.975,
                "pitch": 70,
                "velocity": 80,
                "duration": 0.17045454545454675,
                "tempo": 120.0
            },
            {
                "start_time": 66.975,
                "end_time": 67.14318181818182,
                "pitch": 74,
                "velocity": 80,
                "duration": 0.16818181818182154,
                "tempo": 120.0
            },
            {
                "start_time": 67.21136363636363,
                "end_time": 67.41363636363636,
                "pitch": 75,
                "velocity": 80,
                "duration": 0.20227272727272805,
                "tempo": 120.0
            },
            {
                "start_time": 67.48181818181818,
                "end_time": 67.64999999999999,
                "pitch": 70,
                "velocity": 80,
                "duration": 0.16818181818180733,
                "tempo": 120.0
            },
            {
                "start_time": 67.64999999999999,
                "end_time": 67.82045454545454,
                "pitch": 74,
                "velocity": 80,
                "duration": 0.17045454545454675,
                "tempo": 120.0
            },
            {
                "start_time": 67.88863636363637,
                "end_time": 68.32727272727273,
                "pitch": 75,
                "velocity": 80,
                "duration": 0.4386363636363626,
                "tempo": 120.0
            },
            {
                "start_time": 68.32727272727273,
                "end_time": 68.49545454545454,
                "pitch": 69,
                "velocity": 80,
                "duration": 0.16818181818180733,
                "tempo": 120.0
            },
            {
                "start_time": 68.56363636363636,
                "end_time": 68.73181818181818,
                "pitch": 72,
                "velocity": 80,
                "duration": 0.16818181818182154,
                "tempo": 120.0
            },
            {
                "start_time": 68.73181818181818,
                "end_time": 69.00227272727273,
                "pitch": 74,
                "velocity": 80,
                "duration": 0.27045454545454106,
                "tempo": 120.0
            },
            {
                "start_time": 69.00227272727273,
                "end_time": 69.17272727272727,
                "pitch": 69,
                "velocity": 80,
                "duration": 0.17045454545454675,
                "tempo": 120.0
            },
            {
                "start_time": 69.24090909090908,
                "end_time": 69.4090909090909,
                "pitch": 72,
                "velocity": 80,
                "duration": 0.16818181818182154,
                "tempo": 120.0
            },
            {
                "start_time": 69.4090909090909,
                "end_time": 69.67954545454545,
                "pitch": 74,
                "velocity": 80,
                "duration": 0.27045454545454106,
                "tempo": 120.0
            },
            {
                "start_time": 69.67954545454545,
                "end_time": 69.84772727272727,
                "pitch": 69,
                "velocity": 80,
                "duration": 0.16818181818182154,
                "tempo": 120.0
            },
            {
                "start_time": 69.91590909090908,
                "end_time": 70.08636363636363,
                "pitch": 72,
                "velocity": 80,
                "duration": 0.17045454545454675,
                "tempo": 120.0
            },
            {
                "start_time": 70.08636363636363,
                "end_time": 70.25454545454545,
                "pitch": 74,
                "velocity": 80,
                "duration": 0.16818181818182154,
                "tempo": 120.0
            },
            {
                "start_time": 70.35681818181818,
                "end_time": 70.52499999999999,
                "pitch": 69,
                "velocity": 80,
                "duration": 0.16818181818180733,
                "tempo": 120.0
            },
            {
                "start_time": 70.59318181818182,
                "end_time": 70.76136363636363,
                "pitch": 69,
                "velocity": 80,
                "duration": 0.16818181818180733,
                "tempo": 120.0
            },
            {
                "start_time": 70.76136363636363,
                "end_time": 70.93181818181817,
                "pitch": 74,
                "velocity": 80,
                "duration": 0.17045454545454675,
                "tempo": 120.0
            },
            {
                "start_time": 70.99772727272727,
                "end_time": 71.20227272727273,
                "pitch": 69,
                "velocity": 80,
                "duration": 0.20454545454545325,
                "tempo": 120.0
            },
            {
                "start_time": 71.26818181818182,
                "end_time": 71.43863636363636,
                "pitch": 72,
                "velocity": 80,
                "duration": 0.17045454545454675,
                "tempo": 120.0
            },
            {
                "start_time": 71.43863636363636,
                "end_time": 71.87727272727273,
                "pitch": 74,
                "velocity": 80,
                "duration": 0.4386363636363626,
                "tempo": 120.0
            },
            {
                "start_time": 71.94545454545454,
                "end_time": 72.11818181818181,
                "pitch": 69,
                "velocity": 80,
                "duration": 0.17272727272727195,
                "tempo": 120.0
            },
            {
                "start_time": 72.11818181818181,
                "end_time": 72.29318181818182,
                "pitch": 72,
                "velocity": 80,
                "duration": 0.17500000000001137,
                "tempo": 120.0
            },
            {
                "start_time": 72.36363636363636,
                "end_time": 72.53636363636363,
                "pitch": 74,
                "velocity": 80,
                "duration": 0.17272727272727195,
                "tempo": 120.0
            },
            {
                "start_time": 72.64090909090909,
                "end_time": 72.81590909090909,
                "pitch": 69,
                "velocity": 80,
                "duration": 0.17499999999999716,
                "tempo": 120.0
            },
            {
                "start_time": 72.81590909090909,
                "end_time": 72.99090909090908,
                "pitch": 72,
                "velocity": 80,
                "duration": 0.17499999999999716,
                "tempo": 120.0
            },
            {
                "start_time": 73.05909090909091,
                "end_time": 73.23409090909091,
                "pitch": 74,
                "velocity": 80,
                "duration": 0.17499999999999716,
                "tempo": 120.0
            },
            {
                "start_time": 73.23409090909091,
                "end_time": 73.51136363636363,
                "pitch": 69,
                "velocity": 80,
                "duration": 0.2772727272727167,
                "tempo": 120.0
            },
            {
                "start_time": 73.51136363636363,
                "end_time": 73.68636363636364,
                "pitch": 72,
                "velocity": 80,
                "duration": 0.17500000000001137,
                "tempo": 120.0
            },
            {
                "start_time": 73.75681818181818,
                "end_time": 73.92727272727272,
                "pitch": 74,
                "velocity": 80,
                "duration": 0.17045454545454675,
                "tempo": 120.0
            },
            {
                "start_time": 73.92727272727272,
                "end_time": 74.19772727272726,
                "pitch": 69,
                "velocity": 80,
                "duration": 0.27045454545454106,
                "tempo": 120.0
            },
            {
                "start_time": 74.19772727272726,
                "end_time": 74.36590909090908,
                "pitch": 69,
                "velocity": 80,
                "duration": 0.16818181818182154,
                "tempo": 120.0
            },
            {
                "start_time": 74.43409090909091,
                "end_time": 74.60227272727272,
                "pitch": 74,
                "velocity": 80,
                "duration": 0.16818181818180733,
                "tempo": 120.0
            },
            {
                "start_time": 74.60227272727272,
                "end_time": 74.77272727272727,
                "pitch": 69,
                "velocity": 80,
                "duration": 0.17045454545454675,
                "tempo": 120.0
            },
            {
                "start_time": 74.87272727272727,
                "end_time": 75.04318181818182,
                "pitch": 72,
                "velocity": 80,
                "duration": 0.17045454545454675,
                "tempo": 120.0
            },
            {
                "start_time": 75.10909090909091,
                "end_time": 75.44772727272726,
                "pitch": 74,
                "velocity": 80,
                "duration": 0.3386363636363541,
                "tempo": 120.0
            },
            {
                "start_time": 75.51590909090909,
                "end_time": 75.71818181818182,
                "pitch": 70,
                "velocity": 80,
                "duration": 0.20227272727272805,
                "tempo": 120.0
            },
            {
                "start_time": 75.78636363636363,
                "end_time": 75.95454545454545,
                "pitch": 74,
                "velocity": 80,
                "duration": 0.16818181818182154,
                "tempo": 120.0
            },
            {
                "start_time": 75.95454545454545,
                "end_time": 76.125,
                "pitch": 75,
                "velocity": 80,
                "duration": 0.17045454545454675,
                "tempo": 120.0
            },
            {
                "start_time": 76.19090909090909,
                "end_time": 76.39545454545454,
                "pitch": 70,
                "velocity": 80,
                "duration": 0.20454545454545325,
                "tempo": 120.0
            },
            {
                "start_time": 76.46136363636363,
                "end_time": 76.63181818181818,
                "pitch": 74,
                "velocity": 80,
                "duration": 0.17045454545454675,
                "tempo": 120.0
            },
            {
                "start_time": 76.63181818181818,
                "end_time": 76.8,
                "pitch": 75,
                "velocity": 80,
                "duration": 0.16818181818182154,
                "tempo": 120.0
            },
            {
                "start_time": 76.86818181818181,
                "end_time": 77.03636363636363,
                "pitch": 70,
                "velocity": 80,
                "duration": 0.16818181818182154,
                "tempo": 120.0
            },
            {
                "start_time": 77.13863636363637,
                "end_time": 77.30681818181817,
                "pitch": 74,
                "velocity": 80,
                "duration": 0.16818181818180733,
                "tempo": 120.0
            },
            {
                "start_time": 77.30681818181817,
                "end_time": 77.47727272727272,
                "pitch": 75,
                "velocity": 80,
                "duration": 0.17045454545454675,
                "tempo": 120.0
            },
            {
                "start_time": 77.54545454545455,
                "end_time": 77.71363636363635,
                "pitch": 70,
                "velocity": 80,
                "duration": 0.16818181818180733,
                "tempo": 120.0
            },
            {
                "start_time": 77.71363636363635,
                "end_time": 77.98409090909091,
                "pitch": 74,
                "velocity": 80,
                "duration": 0.2704545454545553,
                "tempo": 120.0
            },
            {
                "start_time": 77.98409090909091,
                "end_time": 78.15227272727272,
                "pitch": 75,
                "velocity": 80,
                "duration": 0.16818181818180733,
                "tempo": 120.0
            },
            {
                "start_time": 78.22045454545454,
                "end_time": 78.39090909090909,
                "pitch": 70,
                "velocity": 80,
                "duration": 0.17045454545454675,
                "tempo": 120.0
            },
            {
                "start_time": 78.39090909090909,
                "end_time": 78.66136363636363,
                "pitch": 74,
                "velocity": 80,
                "duration": 0.27045454545454106,
                "tempo": 120.0
            },
            {
                "start_time": 78.66136363636363,
                "end_time": 79.06590909090909,
                "pitch": 75,
                "velocity": 80,
                "duration": 0.4045454545454561,
                "tempo": 120.0
            },
            {
                "start_time": 79.06590909090909,
                "end_time": 79.23409090909091,
                "pitch": 72,
                "velocity": 80,
                "duration": 0.16818181818182154,
                "tempo": 120.0
            },
            {
                "start_time": 79.3340909090909,
                "end_time": 79.5,
                "pitch": 75,
                "velocity": 80,
                "duration": 0.16590909090909634,
                "tempo": 120.0
            },
            {
                "start_time": 79.56590909090909,
                "end_time": 79.73181818181818,
                "pitch": 77,
                "velocity": 80,
                "duration": 0.16590909090909634,
                "tempo": 120.0
            },
            {
                "start_time": 79.73181818181818,
                "end_time": 79.89999999999999,
                "pitch": 72,
                "velocity": 80,
                "duration": 0.16818181818180733,
                "tempo": 120.0
            },
            {
                "start_time": 79.9659090909091,
                "end_time": 80.16590909090908,
                "pitch": 75,
                "velocity": 80,
                "duration": 0.19999999999998863,
                "tempo": 120.0
            },
            {
                "start_time": 80.23181818181818,
                "end_time": 80.39999999999999,
                "pitch": 77,
                "velocity": 80,
                "duration": 0.16818181818180733,
                "tempo": 120.0
            },
            {
                "start_time": 80.39999999999999,
                "end_time": 80.56590909090909,
                "pitch": 72,
                "velocity": 80,
                "duration": 0.16590909090909634,
                "tempo": 120.0
            },
            {
                "start_time": 80.63181818181818,
                "end_time": 80.83181818181818,
                "pitch": 75,
                "velocity": 80,
                "duration": 0.20000000000000284,
                "tempo": 120.0
            },
            {
                "start_time": 80.89999999999999,
                "end_time": 81.075,
                "pitch": 77,
                "velocity": 80,
                "duration": 0.17500000000001137,
                "tempo": 120.0
            },
            {
                "start_time": 81.075,
                "end_time": 81.25227272727273,
                "pitch": 72,
                "velocity": 80,
                "duration": 0.17727272727272236,
                "tempo": 120.0
            },
            {
                "start_time": 81.32272727272726,
                "end_time": 81.5,
                "pitch": 75,
                "velocity": 80,
                "duration": 0.17727272727273657,
                "tempo": 120.0
            },
            {
                "start_time": 81.60681818181818,
                "end_time": 81.78181818181818,
                "pitch": 77,
                "velocity": 80,
                "duration": 0.17499999999999716,
                "tempo": 120.0
            },
            {
                "start_time": 81.78181818181818,
                "end_time": 81.9590909090909,
                "pitch": 72,
                "velocity": 80,
                "duration": 0.17727272727272236,
                "tempo": 120.0
            },
            {
                "start_time": 82.02954545454546,
                "end_time": 82.20681818181818,
                "pitch": 75,
                "velocity": 80,
                "duration": 0.17727272727272236,
                "tempo": 120.0
            },
            {
                "start_time": 82.20681818181818,
                "end_time": 82.66818181818181,
                "pitch": 77,
                "velocity": 80,
                "duration": 0.46136363636362887,
                "tempo": 120.0
            },
            {
                "start_time": 82.73863636363636,
                "end_time": 82.9090909090909,
                "pitch": 74,
                "velocity": 80,
                "duration": 0.17045454545454675,
                "tempo": 120.0
            },
            {
                "start_time": 82.9090909090909,
                "end_time": 83.17954545454545,
                "pitch": 77,
                "velocity": 80,
                "duration": 0.27045454545454106,
                "tempo": 120.0
            },
            {
                "start_time": 83.17954545454545,
                "end_time": 83.34772727272727,
                "pitch": 79,
                "velocity": 80,
                "duration": 0.16818181818182154,
                "tempo": 120.0
            },
            {
                "start_time": 83.41590909090908,
                "end_time": 83.5840909090909,
                "pitch": 74,
                "velocity": 80,
                "duration": 0.16818181818182154,
                "tempo": 120.0
            },
            {
                "start_time": 83.5840909090909,
                "end_time": 83.75454545454545,
                "pitch": 77,
                "velocity": 80,
                "duration": 0.17045454545454675,
                "tempo": 120.0
            },
            {
                "start_time": 83.85454545454544,
                "end_time": 84.02499999999999,
                "pitch": 79,
                "velocity": 80,
                "duration": 0.17045454545454675,
                "tempo": 120.0
            },
            {
                "start_time": 84.09318181818182,
                "end_time": 84.42954545454545,
                "pitch": 74,
                "velocity": 80,
                "duration": 0.33636363636362887,
                "tempo": 120.0
            },
            {
                "start_time": 84.49772727272727,
                "end_time": 84.7,
                "pitch": 74,
                "velocity": 80,
                "duration": 0.20227272727272805,
                "tempo": 120.0
            },
            {
                "start_time": 84.76818181818182,
                "end_time": 84.93863636363636,
                "pitch": 79,
                "velocity": 80,
                "duration": 0.17045454545454675,
                "tempo": 120.0
            },
            {
                "start_time": 84.93863636363636,
                "end_time": 85.10681818181818,
                "pitch": 74,
                "velocity": 80,
                "duration": 0.16818181818182154,
                "tempo": 120.0
            },
            {
                "start_time": 85.175,
                "end_time": 85.37727272727273,
                "pitch": 77,
                "velocity": 80,
                "duration": 0.20227272727272805,
                "tempo": 120.0
            },
            {
                "start_time": 85.44545454545454,
                "end_time": 85.61363636363636,
                "pitch": 79,
                "velocity": 80,
                "duration": 0.16818181818182154,
                "tempo": 120.0
            },
            {
                "start_time": 85.61363636363636,
                "end_time": 85.78181818181818,
                "pitch": 74,
                "velocity": 80,
                "duration": 0.16818181818182154,
                "tempo": 120.0
            },
            {
                "start_time": 85.85,
                "end_time": 86.02045454545454,
                "pitch": 77,
                "velocity": 80,
                "duration": 0.17045454545454675,
                "tempo": 120.0
            },
            {
                "start_time": 86.12045454545454,
                "end_time": 86.15454545454546,
                "pitch": 79,
                "velocity": 80,
                "duration": 0.03409090909092072,
                "tempo": 120.0
            }
        ]
    }
}