{
    "track_id": "Space Harrier 3-D (FM) - 09 - Danger Area",
    "mood": "angry",
    "instruments": {
        "Acoustic Bass": [
            {
                "start_time": 0.011363636363636364,
                "end_time": 0.3136363636363636,
                "pitch": 38,
                "velocity": 80,
                "duration": 0.30227272727272725,
                "tempo": 120.0
            },
            {
                "start_time": 0.32954545454545453,
                "end_time": 0.4477272727272727,
                "pitch": 38,
                "velocity": 80,
                "duration": 0.11818181818181817,
                "tempo": 120.0
            },
            {
                "start_time": 0.4818181818181818,
                "end_time": 0.6,
                "pitch": 38,
                "velocity": 80,
                "duration": 0.11818181818181817,
                "tempo": 120.0
            },
            {
                "start_time": 0.0,
                "end_time": 0.7295454545454545,
                "pitch": 45,
                "velocity": 80,
                "duration": 0.7295454545454545,
                "tempo": 120.0
            },
            {
                "start_time": 0.6159090909090909,
                "end_time": 0.7295454545454545,
                "pitch": 45,
                "velocity": 80,
                "duration": 0.11363636363636365,
                "tempo": 120.0
            },
            {
                "start_time": 0.7931818181818181,
                "end_time": 1.0363636363636364,
                "pitch": 38,
                "velocity": 80,
                "duration": 0.24318181818181828,
                "tempo": 120.0
            },
            {
                "start_time": 1.0681818181818181,
                "end_time": 1.315909090909091,
                "pitch": 38,
                "velocity": 80,
                "duration": 0.2477272727272728,
                "tempo": 120.0
            },
            {
                "start_time": 1.3818181818181818,
                "end_time": 1.4977272727272726,
                "pitch": 38,
                "velocity": 80,
                "duration": 0.11590909090909074,
                "tempo": 120.0
            },
            {
                "start_time": 1.5159090909090909,
                "end_time": 1.6318181818181818,
                "pitch": 45,
                "velocity": 80,
                "duration": 0.11590909090909096,
                "tempo": 120.0
            },
            {
                "start_time": 1.6659090909090908,
                "end_time": 1.7818181818181817,
                "pitch": 38,
                "velocity": 80,
                "duration": 0.11590909090909096,
                "tempo": 120.0
            },
            {
                "start_time": 1.7977272727272726,
                "end_time": 1.9159090909090908,
                "pitch": 43,
                "velocity": 80,
                "duration": 0.11818181818181817,
                "tempo": 120.0
            },
            {
                "start_time": 1.984090909090909,
                "end_time": 2.102272727272727,
                "pitch": 38,
                "velocity": 80,
                "duration": 0.11818181818181817,
                "tempo": 120.0
            },
            {
                "start_time": 2.118181818181818,
                "end_time": 2.2363636363636363,
                "pitch": 41,
                "velocity": 80,
                "duration": 0.11818181818181817,
                "tempo": 120.0
            },
            {
                "start_time": 2.2704545454545455,
                "end_time": 2.3886363636363637,
                "pitch": 38,
                "velocity": 80,
                "duration": 0.11818181818181817,
                "tempo": 120.0
            },
            {
                "start_time": 2.4045454545454543,
                "end_time": 2.7045454545454546,
                "pitch": 38,
                "velocity": 80,
                "duration": 0.30000000000000027,
                "tempo": 120.0
            },
            {
                "start_time": 2.7204545454545452,
                "end_time": 2.8386363636363634,
                "pitch": 38,
                "velocity": 80,
                "duration": 0.11818181818181817,
                "tempo": 120.0
            },
            {
                "start_time": 2.870454545454545,
                "end_time": 2.9886363636363633,
                "pitch": 38,
                "velocity": 80,
                "duration": 0.11818181818181817,
                "tempo": 120.0
            },
            {
                "start_time": 3.0045454545454544,
                "end_time": 3.1227272727272726,
                "pitch": 45,
                "velocity": 80,
                "duration": 0.11818181818181817,
                "tempo": 120.0
            },
            {
                "start_time": 3.190909090909091,
                "end_time": 3.443181818181818,
                "pitch": 38,
                "velocity": 80,
                "duration": 0.252272727272727,
                "tempo": 120.0
            },
            {
                "start_time": 3.4749999999999996,
                "end_time": 3.7295454545454545,
                "pitch": 38,
                "velocity": 80,
                "duration": 0.25454545454545485,
                "tempo": 120.0
            },
            {
                "start_time": 3.7954545454545454,
                "end_time": 3.9136363636363636,
                "pitch": 38,
                "velocity": 80,
                "duration": 0.11818181818181817,
                "tempo": 120.0
            },
            {
                "start_time": 3.9295454545454542,
                "end_time": 4.047727272727273,
                "pitch": 45,
                "velocity": 80,
                "duration": 0.11818181818181861,
                "tempo": 120.0
            },
            {
                "start_time": 4.081818181818182,
                "end_time": 4.2,
                "pitch": 38,
                "velocity": 80,
                "duration": 0.11818181818181817,
                "tempo": 120.0
            },
            {
                "start_time": 4.215909090909091,
                "end_time": 4.334090909090909,
                "pitch": 43,
                "velocity": 80,
                "duration": 0.11818181818181817,
                "tempo": 120.0
            },
            {
                "start_time": 4.402272727272727,
                "end_time": 4.5204545454545455,
                "pitch": 38,
                "velocity": 80,
                "duration": 0.11818181818181817,
                "tempo": 120.0
            },
            {
                "start_time": 4.536363636363636,
                "end_time": 4.654545454545454,
                "pitch": 41,
                "velocity": 80,
                "duration": 0.11818181818181817,
                "tempo": 120.0
            },
            {
                "start_time": 4.6886363636363635,
                "end_time": 4.806818181818182,
                "pitch": 38,
                "velocity": 80,
                "duration": 0.11818181818181817,
                "tempo": 120.0
            },
            {
                "start_time": 4.822727272727272,
                "end_time": 5.122727272727272,
                "pitch": 38,
                "velocity": 80,
                "duration": 0.2999999999999998,
                "tempo": 120.0
            },
            {
                "start_time": 5.138636363636364,
                "end_time": 5.256818181818182,
                "pitch": 38,
                "velocity": 80,
                "duration": 0.11818181818181817,
                "tempo": 120.0
            },
            {
                "start_time": 5.288636363636363,
                "end_time": 5.406818181818181,
                "pitch": 38,
                "velocity": 80,
                "duration": 0.11818181818181817,
                "tempo": 120.0
            },
            {
                "start_time": 5.422727272727273,
                "end_time": 5.540909090909091,
                "pitch": 45,
                "velocity": 80,
                "duration": 0.11818181818181817,
                "tempo": 120.0
            },
            {
                "start_time": 5.6090909090909085,
                "end_time": 5.861363636363636,
                "pitch": 38,
                "velocity": 80,
                "duration": 0.25227272727272787,
                "tempo": 120.0
            },
            {
                "start_time": 5.893181818181818,
                "end_time": 6.1454545454545455,
                "pitch": 38,
                "velocity": 80,
                "duration": 0.25227272727272787,
                "tempo": 120.0
            },
            {
                "start_time": 6.211363636363636,
                "end_time": 6.329545454545454,
                "pitch": 38,
                "velocity": 80,
                "duration": 0.11818181818181817,
                "tempo": 120.0
            },
            {
                "start_time": 6.345454545454545,
                "end_time": 6.461363636363636,
                "pitch": 45,
                "velocity": 80,
                "duration": 0.11590909090909118,
                "tempo": 120.0
            },
            {
                "start_time": 6.495454545454545,
                "end_time": 6.611363636363636,
                "pitch": 38,
                "velocity": 80,
                "duration": 0.11590909090909118,
                "tempo": 120.0
            },
            {
                "start_time": 6.629545454545454,
                "end_time": 6.745454545454545,
                "pitch": 43,
                "velocity": 80,
                "duration": 0.11590909090909118,
                "tempo": 120.0
            },
            {
                "start_time": 6.811363636363636,
                "end_time": 6.929545454545454,
                "pitch": 38,
                "velocity": 80,
                "duration": 0.11818181818181817,
                "tempo": 120.0
            },
            {
                "start_time": 6.945454545454545,
                "end_time": 7.061363636363636,
                "pitch": 41,
                "velocity": 80,
                "duration": 0.1159090909090903,
                "tempo": 120.0
            },
            {
                "start_time": 7.095454545454545,
                "end_time": 7.211363636363636,
                "pitch": 38,
                "velocity": 80,
                "duration": 0.11590909090909118,
                "tempo": 120.0
            },
            {
                "start_time": 7.2295454545454545,
                "end_time": 7.531818181818181,
                "pitch": 38,
                "velocity": 80,
                "duration": 0.3022727272727268,
                "tempo": 120.0
            },
            {
                "start_time": 7.547727272727272,
                "end_time": 7.66590909090909,
                "pitch": 38,
                "velocity": 80,
                "duration": 0.11818181818181817,
                "tempo": 120.0
            },
            {
                "start_time": 7.699999999999999,
                "end_time": 7.8181818181818175,
                "pitch": 38,
                "velocity": 80,
                "duration": 0.11818181818181817,
                "tempo": 120.0
            },
            {
                "start_time": 7.834090909090909,
                "end_time": 7.952272727272727,
                "pitch": 45,
                "velocity": 80,
                "duration": 0.11818181818181817,
                "tempo": 120.0
            },
            {
                "start_time": 8.018181818181818,
                "end_time": 8.268181818181818,
                "pitch": 38,
                "velocity": 80,
                "duration": 0.25,
                "tempo": 120.0
            },
            {
                "start_time": 8.302272727272728,
                "end_time": 8.552272727272728,
                "pitch": 38,
                "velocity": 80,
                "duration": 0.25,
                "tempo": 120.0
            },
            {
                "start_time": 8.620454545454544,
                "end_time": 8.738636363636363,
                "pitch": 38,
                "velocity": 80,
                "duration": 0.11818181818181905,
                "tempo": 120.0
            },
            {
                "start_time": 8.754545454545454,
                "end_time": 8.872727272727273,
                "pitch": 45,
                "velocity": 80,
                "duration": 0.11818181818181905,
                "tempo": 120.0
            },
            {
                "start_time": 8.906818181818181,
                "end_time": 9.025,
                "pitch": 38,
                "velocity": 80,
                "duration": 0.11818181818181905,
                "tempo": 120.0
            },
            {
                "start_time": 9.040909090909091,
                "end_time": 9.156818181818181,
                "pitch": 43,
                "velocity": 80,
                "duration": 0.1159090909090903,
                "tempo": 120.0
            },
            {
                "start_time": 9.225,
                "end_time": 9.34090909090909,
                "pitch": 38,
                "velocity": 80,
                "duration": 0.1159090909090903,
                "tempo": 120.0
            },
            {
                "start_time": 9.35681818181818,
                "end_time": 9.475,
                "pitch": 41,
                "velocity": 80,
                "duration": 0.11818181818181905,
                "tempo": 120.0
            },
            {
                "start_time": 9.506818181818181,
                "end_time": 9.625,
                "pitch": 38,
                "velocity": 80,
                "duration": 0.11818181818181905,
                "tempo": 120.0
            },
            {
                "start_time": 9.64090909090909,
                "end_time": 9.94090909090909,
                "pitch": 40,
                "velocity": 80,
                "duration": 0.29999999999999893,
                "tempo": 120.0
            },
            {
                "start_time": 9.956818181818182,
                "end_time": 10.075,
                "pitch": 40,
                "velocity": 80,
                "duration": 0.11818181818181728,
                "tempo": 120.0
            },
            {
                "start_time": 10.10681818181818,
                "end_time": 10.225,
                "pitch": 40,
                "velocity": 80,
                "duration": 0.11818181818181905,
                "tempo": 120.0
            },
            {
                "start_time": 10.24090909090909,
                "end_time": 10.35681818181818,
                "pitch": 48,
                "velocity": 80,
                "duration": 0.1159090909090903,
                "tempo": 120.0
            },
            {
                "start_time": 10.424999999999999,
                "end_time": 10.674999999999999,
                "pitch": 40,
                "velocity": 80,
                "duration": 0.25,
                "tempo": 120.0
            },
            {
                "start_time": 10.706818181818182,
                "end_time": 10.959090909090909,
                "pitch": 40,
                "velocity": 80,
                "duration": 0.252272727272727,
                "tempo": 120.0
            },
            {
                "start_time": 11.027272727272727,
                "end_time": 11.143181818181818,
                "pitch": 40,
                "velocity": 80,
                "duration": 0.1159090909090903,
                "tempo": 120.0
            },
            {
                "start_time": 11.161363636363635,
                "end_time": 11.279545454545454,
                "pitch": 48,
                "velocity": 80,
                "duration": 0.11818181818181905,
                "tempo": 120.0
            },
            {
                "start_time": 11.311363636363636,
                "end_time": 11.429545454545455,
                "pitch": 40,
                "velocity": 80,
                "duration": 0.11818181818181905,
                "tempo": 120.0
            },
            {
                "start_time": 11.447727272727272,
                "end_time": 11.563636363636363,
                "pitch": 47,
                "velocity": 80,
                "duration": 0.1159090909090903,
                "tempo": 120.0
            },
            {
                "start_time": 11.629545454545454,
                "end_time": 11.747727272727273,
                "pitch": 40,
                "velocity": 80,
                "duration": 0.11818181818181905,
                "tempo": 120.0
            },
            {
                "start_time": 11.763636363636364,
                "end_time": 11.879545454545454,
                "pitch": 45,
                "velocity": 80,
                "duration": 0.1159090909090903,
                "tempo": 120.0
            },
            {
                "start_time": 11.913636363636362,
                "end_time": 12.029545454545454,
                "pitch": 47,
                "velocity": 80,
                "duration": 0.11590909090909207,
                "tempo": 120.0
            },
            {
                "start_time": 12.047727272727272,
                "end_time": 12.347727272727273,
                "pitch": 40,
                "velocity": 80,
                "duration": 0.3000000000000007,
                "tempo": 120.0
            },
            {
                "start_time": 12.363636363636363,
                "end_time": 12.479545454545454,
                "pitch": 40,
                "velocity": 80,
                "duration": 0.1159090909090903,
                "tempo": 120.0
            },
            {
                "start_time": 12.513636363636364,
                "end_time": 12.629545454545454,
                "pitch": 40,
                "velocity": 80,
                "duration": 0.1159090909090903,
                "tempo": 120.0
            },
            {
                "start_time": 12.647727272727272,
                "end_time": 12.763636363636364,
                "pitch": 48,
                "velocity": 80,
                "duration": 0.11590909090909207,
                "tempo": 120.0
            },
            {
                "start_time": 12.829545454545453,
                "end_time": 13.079545454545453,
                "pitch": 40,
                "velocity": 80,
                "duration": 0.25,
                "tempo": 120.0
            },
            {
                "start_time": 13.113636363636363,
                "end_time": 13.363636363636363,
                "pitch": 40,
                "velocity": 80,
                "duration": 0.25,
                "tempo": 120.0
            },
            {
                "start_time": 13.429545454545455,
                "end_time": 13.547727272727272,
                "pitch": 40,
                "velocity": 80,
                "duration": 0.11818181818181728,
                "tempo": 120.0
            },
            {
                "start_time": 13.563636363636363,
                "end_time": 13.679545454545455,
                "pitch": 48,
                "velocity": 80,
                "duration": 0.11590909090909207,
                "tempo": 120.0
            },
            {
                "start_time": 13.713636363636363,
                "end_time": 13.829545454545453,
                "pitch": 40,
                "velocity": 80,
                "duration": 0.1159090909090903,
                "tempo": 120.0
            },
            {
                "start_time": 13.847727272727273,
                "end_time": 13.96590909090909,
                "pitch": 47,
                "velocity": 80,
                "duration": 0.11818181818181728,
                "tempo": 120.0
            },
            {
                "start_time": 14.031818181818181,
                "end_time": 14.149999999999999,
                "pitch": 40,
                "velocity": 80,
                "duration": 0.11818181818181728,
                "tempo": 120.0
            },
            {
                "start_time": 14.165909090909091,
                "end_time": 14.284090909090908,
                "pitch": 45,
                "velocity": 80,
                "duration": 0.11818181818181728,
                "tempo": 120.0
            },
            {
                "start_time": 14.318181818181818,
                "end_time": 14.436363636363636,
                "pitch": 47,
                "velocity": 80,
                "duration": 0.11818181818181728,
                "tempo": 120.0
            },
            {
                "start_time": 14.452272727272726,
                "end_time": 14.752272727272727,
                "pitch": 38,
                "velocity": 80,
                "duration": 0.3000000000000007,
                "tempo": 120.0
            },
            {
                "start_time": 14.770454545454545,
                "end_time": 14.886363636363635,
                "pitch": 38,
                "velocity": 80,
                "duration": 0.1159090909090903,
                "tempo": 120.0
            },
            {
                "start_time": 14.920454545454545,
                "end_time": 15.036363636363635,
                "pitch": 38,
                "velocity": 80,
                "duration": 0.1159090909090903,
                "tempo": 120.0
            },
            {
                "start_time": 15.052272727272726,
                "end_time": 15.170454545454545,
                "pitch": 45,
                "velocity": 80,
                "duration": 0.11818181818181905,
                "tempo": 120.0
            },
            {
                "start_time": 15.236363636363636,
                "end_time": 15.486363636363636,
                "pitch": 38,
                "velocity": 80,
                "duration": 0.25,
                "tempo": 120.0
            },
            {
                "start_time": 15.520454545454545,
                "end_time": 15.770454545454545,
                "pitch": 38,
                "velocity": 80,
                "duration": 0.25,
                "tempo": 120.0
            },
            {
                "start_time": 15.836363636363636,
                "end_time": 15.952272727272726,
                "pitch": 38,
                "velocity": 80,
                "duration": 0.1159090909090903,
                "tempo": 120.0
            },
            {
                "start_time": 15.970454545454544,
                "end_time": 16.086363636363636,
                "pitch": 45,
                "velocity": 80,
                "duration": 0.11590909090909207,
                "tempo": 120.0
            },
            {
                "start_time": 16.120454545454546,
                "end_time": 16.236363636363635,
                "pitch": 38,
                "velocity": 80,
                "duration": 0.11590909090908852,
                "tempo": 120.0
            },
            {
                "start_time": 16.252272727272725,
                "end_time": 16.370454545454546,
                "pitch": 43,
                "velocity": 80,
                "duration": 0.11818181818182083,
                "tempo": 120.0
            },
            {
                "start_time": 16.436363636363634,
                "end_time": 16.552272727272726,
                "pitch": 38,
                "velocity": 80,
                "duration": 0.11590909090909207,
                "tempo": 120.0
            },
            {
                "start_time": 16.570454545454545,
                "end_time": 16.686363636363634,
                "pitch": 41,
                "velocity": 80,
                "duration": 0.11590909090908852,
                "tempo": 120.0
            },
            {
                "start_time": 16.720454545454544,
                "end_time": 16.836363636363636,
                "pitch": 38,
                "velocity": 80,
                "duration": 0.11590909090909207,
                "tempo": 120.0
            },
            {
                "start_time": 16.852272727272727,
                "end_time": 17.15681818181818,
                "pitch": 38,
                "velocity": 80,
                "duration": 0.3045454545454547,
                "tempo": 120.0
            },
            {
                "start_time": 17.172727272727272,
                "end_time": 17.29090909090909,
                "pitch": 38,
                "velocity": 80,
                "duration": 0.11818181818181728,
                "tempo": 120.0
            },
            {
                "start_time": 17.325,
                "end_time": 17.443181818181817,
                "pitch": 38,
                "velocity": 80,
                "duration": 0.11818181818181728,
                "tempo": 120.0
            },
            {
                "start_time": 17.459090909090907,
                "end_time": 17.575,
                "pitch": 45,
                "velocity": 80,
                "duration": 0.11590909090909207,
                "tempo": 120.0
            },
            {
                "start_time": 17.643181818181816,
                "end_time": 17.893181818181816,
                "pitch": 38,
                "velocity": 80,
                "duration": 0.25,
                "tempo": 120.0
            },
            {
                "start_time": 17.925,
                "end_time": 18.177272727272726,
                "pitch": 38,
                "velocity": 80,
                "duration": 0.2522727272727252,
                "tempo": 120.0
            },
            {
                "start_time": 18.245454545454546,
                "end_time": 18.361363636363635,
                "pitch": 38,
                "velocity": 80,
                "duration": 0.11590909090908852,
                "tempo": 120.0
            },
            {
                "start_time": 18.379545454545454,
                "end_time": 18.49772727272727,
                "pitch": 45,
                "velocity": 80,
                "duration": 0.11818181818181728,
                "tempo": 120.0
            },
            {
                "start_time": 18.529545454545453,
                "end_time": 18.647727272727273,
                "pitch": 38,
                "velocity": 80,
                "duration": 0.11818181818182083,
                "tempo": 120.0
            },
            {
                "start_time": 18.66590909090909,
                "end_time": 18.784090909090907,
                "pitch": 43,
                "velocity": 80,
                "duration": 0.11818181818181728,
                "tempo": 120.0
            },
            {
                "start_time": 18.849999999999998,
                "end_time": 18.96818181818182,
                "pitch": 38,
                "velocity": 80,
                "duration": 0.11818181818182083,
                "tempo": 120.0
            },
            {
                "start_time": 18.98409090909091,
                "end_time": 19.102272727272727,
                "pitch": 41,
                "velocity": 80,
                "duration": 0.11818181818181728,
                "tempo": 120.0
            },
            {
                "start_time": 19.136363636363637,
                "end_time": 19.254545454545454,
                "pitch": 38,
                "velocity": 80,
                "duration": 0.11818181818181728,
                "tempo": 120.0
            },
            {
                "start_time": 19.270454545454545,
                "end_time": 19.388636363636362,
                "pitch": 33,
                "velocity": 80,
                "duration": 0.11818181818181728,
                "tempo": 120.0
            },
            {
                "start_time": 19.454545454545453,
                "end_time": 19.570454545454545,
                "pitch": 38,
                "velocity": 80,
                "duration": 0.11590909090909207,
                "tempo": 120.0
            },
            {
                "start_time": 19.58863636363636,
                "end_time": 19.704545454545453,
                "pitch": 41,
                "velocity": 80,
                "duration": 0.11590909090909207,
                "tempo": 120.0
            },
            {
                "start_time": 19.738636363636363,
                "end_time": 19.854545454545452,
                "pitch": 45,
                "velocity": 80,
                "duration": 0.11590909090908852,
                "tempo": 120.0
            },
            {
                "start_time": 19.870454545454546,
                "end_time": 19.988636363636363,
                "pitch": 33,
                "velocity": 80,
                "duration": 0.11818181818181728,
                "tempo": 120.0
            },
            {
                "start_time": 20.05681818181818,
                "end_time": 20.175,
                "pitch": 38,
                "velocity": 80,
                "duration": 0.11818181818182083,
                "tempo": 120.0
            },
            {
                "start_time": 20.19090909090909,
                "end_time": 20.30909090909091,
                "pitch": 41,
                "velocity": 80,
                "duration": 0.11818181818181728,
                "tempo": 120.0
            },
            {
                "start_time": 20.34318181818182,
                "end_time": 20.461363636363636,
                "pitch": 45,
                "velocity": 80,
                "duration": 0.11818181818181728,
                "tempo": 120.0
            },
            {
                "start_time": 20.477272727272727,
                "end_time": 20.59318181818182,
                "pitch": 33,
                "velocity": 80,
                "duration": 0.11590909090909207,
                "tempo": 120.0
            },
            {
                "start_time": 20.661363636363635,
                "end_time": 20.777272727272727,
                "pitch": 38,
                "velocity": 80,
                "duration": 0.11590909090909207,
                "tempo": 120.0
            },
            {
                "start_time": 20.793181818181818,
                "end_time": 20.911363636363635,
                "pitch": 41,
                "velocity": 80,
                "duration": 0.11818181818181728,
                "tempo": 120.0
            },
            {
                "start_time": 20.943181818181817,
                "end_time": 21.061363636363634,
                "pitch": 45,
                "velocity": 80,
                "duration": 0.11818181818181728,
                "tempo": 120.0
            },
            {
                "start_time": 21.077272727272724,
                "end_time": 21.195454545454545,
                "pitch": 33,
                "velocity": 80,
                "duration": 0.11818181818182083,
                "tempo": 120.0
            },
            {
                "start_time": 21.263636363636362,
                "end_time": 21.379545454545454,
                "pitch": 38,
                "velocity": 80,
                "duration": 0.11590909090909207,
                "tempo": 120.0
            },
            {
                "start_time": 21.397727272727273,
                "end_time": 21.51590909090909,
                "pitch": 41,
                "velocity": 80,
                "duration": 0.11818181818181728,
                "tempo": 120.0
            },
            {
                "start_time": 21.547727272727272,
                "end_time": 21.66590909090909,
                "pitch": 45,
                "velocity": 80,
                "duration": 0.11818181818181728,
                "tempo": 120.0
            },
            {
                "start_time": 21.68409090909091,
                "end_time": 21.802272727272726,
                "pitch": 33,
                "velocity": 80,
                "duration": 0.11818181818181728,
                "tempo": 120.0
            },
            {
                "start_time": 21.868181818181817,
                "end_time": 21.986363636363635,
                "pitch": 38,
                "velocity": 80,
                "duration": 0.11818181818181728,
                "tempo": 120.0
            },
            {
                "start_time": 22.002272727272725,
                "end_time": 22.120454545454546,
                "pitch": 41,
                "velocity": 80,
                "duration": 0.11818181818182083,
                "tempo": 120.0
            },
            {
                "start_time": 22.154545454545453,
                "end_time": 22.272727272727273,
                "pitch": 45,
                "velocity": 80,
                "duration": 0.11818181818182083,
                "tempo": 120.0
            },
            {
                "start_time": 22.288636363636364,
                "end_time": 22.40681818181818,
                "pitch": 33,
                "velocity": 80,
                "duration": 0.11818181818181728,
                "tempo": 120.0
            },
            {
                "start_time": 22.472727272727273,
                "end_time": 22.58863636363636,
                "pitch": 38,
                "velocity": 80,
                "duration": 0.11590909090908852,
                "tempo": 120.0
            },
            {
                "start_time": 22.60681818181818,
                "end_time": 22.722727272727273,
                "pitch": 41,
                "velocity": 80,
                "duration": 0.11590909090909207,
                "tempo": 120.0
            },
            {
                "start_time": 22.75681818181818,
                "end_time": 22.87272727272727,
                "pitch": 45,
                "velocity": 80,
                "duration": 0.11590909090909207,
                "tempo": 120.0
            },
            {
                "start_time": 22.888636363636362,
                "end_time": 23.00681818181818,
                "pitch": 33,
                "velocity": 80,
                "duration": 0.11818181818181728,
                "tempo": 120.0
            },
            {
                "start_time": 23.075,
                "end_time": 23.193181818181817,
                "pitch": 38,
                "velocity": 80,
                "duration": 0.11818181818181728,
                "tempo": 120.0
            },
            {
                "start_time": 23.209090909090907,
                "end_time": 23.327272727272724,
                "pitch": 41,
                "velocity": 80,
                "duration": 0.11818181818181728,
                "tempo": 120.0
            },
            {
                "start_time": 23.361363636363635,
                "end_time": 23.479545454545452,
                "pitch": 45,
                "velocity": 80,
                "duration": 0.11818181818181728,
                "tempo": 120.0
            },
            {
                "start_time": 23.495454545454546,
                "end_time": 23.611363636363635,
                "pitch": 33,
                "velocity": 80,
                "duration": 0.11590909090908852,
                "tempo": 120.0
            },
            {
                "start_time": 23.679545454545455,
                "end_time": 23.795454545454543,
                "pitch": 38,
                "velocity": 80,
                "duration": 0.11590909090908852,
                "tempo": 120.0
            },
            {
                "start_time": 23.811363636363634,
                "end_time": 23.929545454545455,
                "pitch": 41,
                "velocity": 80,
                "duration": 0.11818181818182083,
                "tempo": 120.0
            },
            {
                "start_time": 23.961363636363636,
                "end_time": 24.079545454545453,
                "pitch": 45,
                "velocity": 80,
                "duration": 0.11818181818181728,
                "tempo": 120.0
            },
            {
                "start_time": 24.095454545454544,
                "end_time": 24.21363636363636,
                "pitch": 33,
                "velocity": 80,
                "duration": 0.11818181818181728,
                "tempo": 120.0
            },
            {
                "start_time": 24.28181818181818,
                "end_time": 24.39772727272727,
                "pitch": 38,
                "velocity": 80,
                "duration": 0.11590909090908852,
                "tempo": 120.0
            },
            {
                "start_time": 24.41590909090909,
                "end_time": 24.534090909090907,
                "pitch": 41,
                "velocity": 80,
                "duration": 0.11818181818181728,
                "tempo": 120.0
            },
            {
                "start_time": 24.56590909090909,
                "end_time": 24.68409090909091,
                "pitch": 45,
                "velocity": 80,
                "duration": 0.11818181818181728,
                "tempo": 120.0
            },
            {
                "start_time": 24.702272727272724,
                "end_time": 24.820454545454545,
                "pitch": 33,
                "velocity": 80,
                "duration": 0.11818181818182083,
                "tempo": 120.0
            },
            {
                "start_time": 24.886363636363637,
                "end_time": 25.004545454545454,
                "pitch": 38,
                "velocity": 80,
                "duration": 0.11818181818181728,
                "tempo": 120.0
            },
            {
                "start_time": 25.020454545454545,
                "end_time": 25.138636363636362,
                "pitch": 41,
                "velocity": 80,
                "duration": 0.11818181818181728,
                "tempo": 120.0
            },
            {
                "start_time": 25.172727272727272,
                "end_time": 25.29090909090909,
                "pitch": 45,
                "velocity": 80,
                "duration": 0.11818181818181728,
                "tempo": 120.0
            },
            {
                "start_time": 25.30681818181818,
                "end_time": 25.424999999999997,
                "pitch": 33,
                "velocity": 80,
                "duration": 0.11818181818181728,
                "tempo": 120.0
            },
            {
                "start_time": 25.49090909090909,
                "end_time": 25.60681818181818,
                "pitch": 38,
                "velocity": 80,
                "duration": 0.11590909090909207,
                "tempo": 120.0
            },
            {
                "start_time": 25.625,
                "end_time": 25.74090909090909,
                "pitch": 41,
                "velocity": 80,
                "duration": 0.11590909090908852,
                "tempo": 120.0
            },
            {
                "start_time": 25.775,
                "end_time": 25.89090909090909,
                "pitch": 45,
                "velocity": 80,
                "duration": 0.11590909090909207,
                "tempo": 120.0
            },
            {
                "start_time": 25.90681818181818,
                "end_time": 26.025,
                "pitch": 33,
                "velocity": 80,
                "duration": 0.11818181818181728,
                "tempo": 120.0
            },
            {
                "start_time": 26.093181818181815,
                "end_time": 26.211363636363636,
                "pitch": 38,
                "velocity": 80,
                "duration": 0.11818181818182083,
                "tempo": 120.0
            },
            {
                "start_time": 26.227272727272727,
                "end_time": 26.345454545454544,
                "pitch": 41,
                "velocity": 80,
                "duration": 0.11818181818181728,
                "tempo": 120.0
            },
            {
                "start_time": 26.379545454545454,
                "end_time": 26.49772727272727,
                "pitch": 45,
                "velocity": 80,
                "duration": 0.11818181818181728,
                "tempo": 120.0
            },
            {
                "start_time": 26.513636363636362,
                "end_time": 26.629545454545454,
                "pitch": 33,
                "velocity": 80,
                "duration": 0.11590909090909207,
                "tempo": 120.0
            },
            {
                "start_time": 26.69772727272727,
                "end_time": 26.813636363636363,
                "pitch": 38,
                "velocity": 80,
                "duration": 0.11590909090909207,
                "tempo": 120.0
            },
            {
                "start_time": 26.829545454545453,
                "end_time": 26.94772727272727,
                "pitch": 41,
                "velocity": 80,
                "duration": 0.11818181818181728,
                "tempo": 120.0
            },
            {
                "start_time": 26.979545454545452,
                "end_time": 27.097727272727273,
                "pitch": 45,
                "velocity": 80,
                "duration": 0.11818181818182083,
                "tempo": 120.0
            },
            {
                "start_time": 27.113636363636363,
                "end_time": 27.23181818181818,
                "pitch": 33,
                "velocity": 80,
                "duration": 0.11818181818181728,
                "tempo": 120.0
            },
            {
                "start_time": 27.299999999999997,
                "end_time": 27.41590909090909,
                "pitch": 38,
                "velocity": 80,
                "duration": 0.11590909090909207,
                "tempo": 120.0
            },
            {
                "start_time": 27.43409090909091,
                "end_time": 27.552272727272726,
                "pitch": 41,
                "velocity": 80,
                "duration": 0.11818181818181728,
                "tempo": 120.0
            },
            {
                "start_time": 27.584090909090907,
                "end_time": 27.702272727272724,
                "pitch": 45,
                "velocity": 80,
                "duration": 0.11818181818181728,
                "tempo": 120.0
            },
            {
                "start_time": 27.720454545454544,
                "end_time": 27.83863636363636,
                "pitch": 33,
                "velocity": 80,
                "duration": 0.11818181818181728,
                "tempo": 120.0
            },
            {
                "start_time": 27.904545454545453,
                "end_time": 28.02272727272727,
                "pitch": 38,
                "velocity": 80,
                "duration": 0.11818181818181728,
                "tempo": 120.0
            },
            {
                "start_time": 28.038636363636364,
                "end_time": 28.15681818181818,
                "pitch": 41,
                "velocity": 80,
                "duration": 0.11818181818181728,
                "tempo": 120.0
            },
            {
                "start_time": 28.190909090909088,
                "end_time": 28.30909090909091,
                "pitch": 45,
                "velocity": 80,
                "duration": 0.11818181818182083,
                "tempo": 120.0
            },
            {
                "start_time": 28.325,
                "end_time": 28.443181818181817,
                "pitch": 33,
                "velocity": 80,
                "duration": 0.11818181818181728,
                "tempo": 120.0
            },
            {
                "start_time": 28.509090909090908,
                "end_time": 28.625,
                "pitch": 38,
                "velocity": 80,
                "duration": 0.11590909090909207,
                "tempo": 120.0
            },
            {
                "start_time": 28.643181818181816,
                "end_time": 28.759090909090908,
                "pitch": 41,
                "velocity": 80,
                "duration": 0.11590909090909207,
                "tempo": 120.0
            },
            {
                "start_time": 28.793181818181818,
                "end_time": 28.909090909090907,
                "pitch": 45,
                "velocity": 80,
                "duration": 0.11590909090908852,
                "tempo": 120.0
            },
            {
                "start_time": 28.924999999999997,
                "end_time": 29.043181818181818,
                "pitch": 33,
                "velocity": 80,
                "duration": 0.11818181818182083,
                "tempo": 120.0
            },
            {
                "start_time": 29.111363636363635,
                "end_time": 29.229545454545452,
                "pitch": 38,
                "velocity": 80,
                "duration": 0.11818181818181728,
                "tempo": 120.0
            },
            {
                "start_time": 29.245454545454542,
                "end_time": 29.363636363636363,
                "pitch": 41,
                "velocity": 80,
                "duration": 0.11818181818182083,
                "tempo": 120.0
            },
            {
                "start_time": 29.39772727272727,
                "end_time": 29.51590909090909,
                "pitch": 45,
                "velocity": 80,
                "duration": 0.11818181818182083,
                "tempo": 120.0
            },
            {
                "start_time": 29.53181818181818,
                "end_time": 29.64772727272727,
                "pitch": 33,
                "velocity": 80,
                "duration": 0.11590909090908852,
                "tempo": 120.0
            },
            {
                "start_time": 29.71590909090909,
                "end_time": 29.831818181818182,
                "pitch": 38,
                "velocity": 80,
                "duration": 0.11590909090909207,
                "tempo": 120.0
            },
            {
                "start_time": 29.847727272727273,
                "end_time": 29.96590909090909,
                "pitch": 41,
                "velocity": 80,
                "duration": 0.11818181818181728,
                "tempo": 120.0
            },
            {
                "start_time": 29.99772727272727,
                "end_time": 30.11590909090909,
                "pitch": 45,
                "velocity": 80,
                "duration": 0.11818181818181728,
                "tempo": 120.0
            },
            {
                "start_time": 30.13181818181818,
                "end_time": 30.25,
                "pitch": 33,
                "velocity": 80,
                "duration": 0.11818181818182083,
                "tempo": 120.0
            },
            {
                "start_time": 30.318181818181817,
                "end_time": 30.43409090909091,
                "pitch": 38,
                "velocity": 80,
                "duration": 0.11590909090909207,
                "tempo": 120.0
            },
            {
                "start_time": 30.452272727272724,
                "end_time": 30.570454545454545,
                "pitch": 41,
                "velocity": 80,
                "duration": 0.11818181818182083,
                "tempo": 120.0
            },
            {
                "start_time": 30.602272727272727,
                "end_time": 30.720454545454544,
                "pitch": 45,
                "velocity": 80,
                "duration": 0.11818181818181728,
                "tempo": 120.0
            },
            {
                "start_time": 30.738636363636363,
                "end_time": 30.85681818181818,
                "pitch": 33,
                "velocity": 80,
                "duration": 0.11818181818181728,
                "tempo": 120.0
            },
            {
                "start_time": 30.922727272727272,
                "end_time": 31.04090909090909,
                "pitch": 38,
                "velocity": 80,
                "duration": 0.11818181818181728,
                "tempo": 120.0
            },
            {
                "start_time": 31.05681818181818,
                "end_time": 31.174999999999997,
                "pitch": 41,
                "velocity": 80,
                "duration": 0.11818181818181728,
                "tempo": 120.0
            },
            {
                "start_time": 31.209090909090907,
                "end_time": 31.327272727272724,
                "pitch": 45,
                "velocity": 80,
                "duration": 0.11818181818181728,
                "tempo": 120.0
            },
            {
                "start_time": 31.343181818181815,
                "end_time": 31.461363636363636,
                "pitch": 33,
                "velocity": 80,
                "duration": 0.11818181818182083,
                "tempo": 120.0
            },
            {
                "start_time": 31.527272727272727,
                "end_time": 31.643181818181816,
                "pitch": 38,
                "velocity": 80,
                "duration": 0.11590909090908852,
                "tempo": 120.0
            },
            {
                "start_time": 31.661363636363635,
                "end_time": 31.777272727272727,
                "pitch": 41,
                "velocity": 80,
                "duration": 0.11590909090909207,
                "tempo": 120.0
            },
            {
                "start_time": 31.811363636363634,
                "end_time": 31.927272727272726,
                "pitch": 45,
                "velocity": 80,
                "duration": 0.11590909090909207,
                "tempo": 120.0
            },
            {
                "start_time": 31.943181818181817,
                "end_time": 32.06136363636364,
                "pitch": 33,
                "velocity": 80,
                "duration": 0.11818181818182083,
                "tempo": 120.0
            },
            {
                "start_time": 32.12954545454545,
                "end_time": 32.24772727272727,
                "pitch": 38,
                "velocity": 80,
                "duration": 0.11818181818181728,
                "tempo": 120.0
            },
            {
                "start_time": 32.263636363636365,
                "end_time": 32.38181818181818,
                "pitch": 41,
                "velocity": 80,
                "duration": 0.11818181818181728,
                "tempo": 120.0
            },
            {
                "start_time": 32.41590909090909,
                "end_time": 32.53409090909091,
                "pitch": 45,
                "velocity": 80,
                "duration": 0.11818181818181728,
                "tempo": 120.0
            },
            {
                "start_time": 32.55,
                "end_time": 32.66590909090909,
                "pitch": 33,
                "velocity": 80,
                "duration": 0.11590909090909207,
                "tempo": 120.0
            },
            {
                "start_time": 32.73409090909091,
                "end_time": 32.85,
                "pitch": 38,
                "velocity": 80,
                "duration": 0.11590909090909207,
                "tempo": 120.0
            },
            {
                "start_time": 32.86590909090909,
                "end_time": 32.98409090909091,
                "pitch": 41,
                "velocity": 80,
                "duration": 0.11818181818181728,
                "tempo": 120.0
            },
            {
                "start_time": 33.01590909090909,
                "end_time": 33.13409090909091,
                "pitch": 45,
                "velocity": 80,
                "duration": 0.11818181818181728,
                "tempo": 120.0
            },
            {
                "start_time": 33.15,
                "end_time": 33.268181818181816,
                "pitch": 33,
                "velocity": 80,
                "duration": 0.11818181818181728,
                "tempo": 120.0
            },
            {
                "start_time": 33.336363636363636,
                "end_time": 33.45227272727273,
                "pitch": 38,
                "velocity": 80,
                "duration": 0.11590909090909207,
                "tempo": 120.0
            },
            {
                "start_time": 33.470454545454544,
                "end_time": 33.58863636363636,
                "pitch": 41,
                "velocity": 80,
                "duration": 0.11818181818181728,
                "tempo": 120.0
            },
            {
                "start_time": 33.62045454545454,
                "end_time": 33.73863636363636,
                "pitch": 45,
                "velocity": 80,
                "duration": 0.11818181818181728,
                "tempo": 120.0
            },
            {
                "start_time": 33.75681818181818,
                "end_time": 33.875,
                "pitch": 33,
                "velocity": 80,
                "duration": 0.11818181818181728,
                "tempo": 120.0
            },
            {
                "start_time": 33.94090909090909,
                "end_time": 34.059090909090905,
                "pitch": 38,
                "velocity": 80,
                "duration": 0.11818181818181728,
                "tempo": 120.0
            },
            {
                "start_time": 34.074999999999996,
                "end_time": 34.19318181818181,
                "pitch": 41,
                "velocity": 80,
                "duration": 0.11818181818181728,
                "tempo": 120.0
            },
            {
                "start_time": 34.22727272727273,
                "end_time": 34.345454545454544,
                "pitch": 45,
                "velocity": 80,
                "duration": 0.11818181818181728,
                "tempo": 120.0
            },
            {
                "start_time": 34.361363636363635,
                "end_time": 34.47954545454545,
                "pitch": 33,
                "velocity": 80,
                "duration": 0.11818181818181728,
                "tempo": 120.0
            },
            {
                "start_time": 34.54772727272727,
                "end_time": 34.66590909090909,
                "pitch": 38,
                "velocity": 80,
                "duration": 0.11818181818181728,
                "tempo": 120.0
            },
            {
                "start_time": 34.68181818181818,
                "end_time": 34.8,
                "pitch": 41,
                "velocity": 80,
                "duration": 0.11818181818181728,
                "tempo": 120.0
            },
            {
                "start_time": 34.83409090909091,
                "end_time": 34.95227272727273,
                "pitch": 45,
                "velocity": 80,
                "duration": 0.11818181818181728,
                "tempo": 120.0
            },
            {
                "start_time": 34.96818181818182,
                "end_time": 35.08409090909091,
                "pitch": 33,
                "velocity": 80,
                "duration": 0.11590909090909207,
                "tempo": 120.0
            },
            {
                "start_time": 35.152272727272724,
                "end_time": 35.268181818181816,
                "pitch": 38,
                "velocity": 80,
                "duration": 0.11590909090909207,
                "tempo": 120.0
            },
            {
                "start_time": 35.28409090909091,
                "end_time": 35.402272727272724,
                "pitch": 41,
                "velocity": 80,
                "duration": 0.11818181818181728,
                "tempo": 120.0
            },
            {
                "start_time": 35.434090909090905,
                "end_time": 35.55227272727272,
                "pitch": 45,
                "velocity": 80,
                "duration": 0.11818181818181728,
                "tempo": 120.0
            },
            {
                "start_time": 35.56818181818181,
                "end_time": 35.68636363636364,
                "pitch": 33,
                "velocity": 80,
                "duration": 0.11818181818182438,
                "tempo": 120.0
            },
            {
                "start_time": 35.75454545454545,
                "end_time": 35.87045454545454,
                "pitch": 38,
                "velocity": 80,
                "duration": 0.11590909090909207,
                "tempo": 120.0
            },
            {
                "start_time": 35.888636363636365,
                "end_time": 36.00681818181818,
                "pitch": 41,
                "velocity": 80,
                "duration": 0.11818181818181728,
                "tempo": 120.0
            },
            {
                "start_time": 36.038636363636364,
                "end_time": 36.15681818181818,
                "pitch": 45,
                "velocity": 80,
                "duration": 0.11818181818181728,
                "tempo": 120.0
            },
            {
                "start_time": 36.175,
                "end_time": 36.293181818181814,
                "pitch": 33,
                "velocity": 80,
                "duration": 0.11818181818181728,
                "tempo": 120.0
            },
            {
                "start_time": 36.35909090909091,
                "end_time": 36.47727272727273,
                "pitch": 38,
                "velocity": 80,
                "duration": 0.11818181818181728,
                "tempo": 120.0
            },
            {
                "start_time": 36.49318181818182,
                "end_time": 36.611363636363635,
                "pitch": 41,
                "velocity": 80,
                "duration": 0.11818181818181728,
                "tempo": 120.0
            },
            {
                "start_time": 36.64545454545454,
                "end_time": 36.76363636363636,
                "pitch": 45,
                "velocity": 80,
                "duration": 0.11818181818181728,
                "tempo": 120.0
            },
            {
                "start_time": 36.779545454545456,
                "end_time": 36.89772727272727,
                "pitch": 33,
                "velocity": 80,
                "duration": 0.11818181818181728,
                "tempo": 120.0
            },
            {
                "start_time": 36.965909090909086,
                "end_time": 37.08409090909091,
                "pitch": 38,
                "velocity": 80,
                "duration": 0.11818181818182438,
                "tempo": 120.0
            },
            {
                "start_time": 37.1,
                "end_time": 37.21818181818182,
                "pitch": 41,
                "velocity": 80,
                "duration": 0.11818181818181728,
                "tempo": 120.0
            },
            {
                "start_time": 37.252272727272725,
                "end_time": 37.37045454545454,
                "pitch": 45,
                "velocity": 80,
                "duration": 0.11818181818181728,
                "tempo": 120.0
            },
            {
                "start_time": 37.38636363636363,
                "end_time": 37.50454545454545,
                "pitch": 33,
                "velocity": 80,
                "duration": 0.11818181818181728,
                "tempo": 120.0
            },
            {
                "start_time": 37.57272727272727,
                "end_time": 37.68863636363636,
                "pitch": 38,
                "velocity": 80,
                "duration": 0.11590909090909207,
                "tempo": 120.0
            },
            {
                "start_time": 37.70681818181818,
                "end_time": 37.824999999999996,
                "pitch": 41,
                "velocity": 80,
                "duration": 0.11818181818181728,
                "tempo": 120.0
            },
            {
                "start_time": 37.85681818181818,
                "end_time": 37.975,
                "pitch": 45,
                "velocity": 80,
                "duration": 0.11818181818182438,
                "tempo": 120.0
            },
            {
                "start_time": 37.99318181818182,
                "end_time": 38.10909090909091,
                "pitch": 33,
                "velocity": 80,
                "duration": 0.11590909090909207,
                "tempo": 120.0
            },
            {
                "start_time": 38.175,
                "end_time": 38.293181818181814,
                "pitch": 38,
                "velocity": 80,
                "duration": 0.11818181818181728,
                "tempo": 120.0
            },
            {
                "start_time": 38.309090909090905,
                "end_time": 38.425,
                "pitch": 41,
                "velocity": 80,
                "duration": 0.11590909090909207,
                "tempo": 120.0
            },
            {
                "start_time": 38.45909090909091,
                "end_time": 38.574999999999996,
                "pitch": 45,
                "velocity": 80,
                "duration": 0.11590909090908497,
                "tempo": 120.0
            }
        ],
        "Trumpet": [
            {
                "start_time": 0.0,
                "end_time": 0.04318181818181818,
                "pitch": 57,
                "velocity": 80,
                "duration": 0.04318181818181818,
                "tempo": 120.0
            },
            {
                "start_time": 0.07727272727272727,
                "end_time": 0.19545454545454544,
                "pitch": 50,
                "velocity": 80,
                "duration": 0.11818181818181817,
                "tempo": 120.0
            },
            {
                "start_time": 0.21136363636363636,
                "end_time": 0.32954545454545453,
                "pitch": 53,
                "velocity": 80,
                "duration": 0.11818181818181817,
                "tempo": 120.0
            },
            {
                "start_time": 0.3977272727272727,
                "end_time": 0.5159090909090909,
                "pitch": 57,
                "velocity": 80,
                "duration": 0.11818181818181817,
                "tempo": 120.0
            },
            {
                "start_time": 0.5318181818181817,
                "end_time": 1.984090909090909,
                "pitch": 56,
                "velocity": 80,
                "duration": 1.4522727272727272,
                "tempo": 120.0
            },
            {
                "start_time": 2.0,
                "end_time": 2.118181818181818,
                "pitch": 57,
                "velocity": 80,
                "duration": 0.11818181818181817,
                "tempo": 120.0
            },
            {
                "start_time": 2.186363636363636,
                "end_time": 2.3045454545454542,
                "pitch": 56,
                "velocity": 80,
                "duration": 0.11818181818181817,
                "tempo": 120.0
            },
            {
                "start_time": 2.3204545454545453,
                "end_time": 2.4386363636363635,
                "pitch": 55,
                "velocity": 80,
                "duration": 0.11818181818181817,
                "tempo": 120.0
            },
            {
                "start_time": 2.4704545454545452,
                "end_time": 2.5886363636363634,
                "pitch": 50,
                "velocity": 80,
                "duration": 0.11818181818181817,
                "tempo": 120.0
            },
            {
                "start_time": 2.6045454545454545,
                "end_time": 2.7204545454545452,
                "pitch": 53,
                "velocity": 80,
                "duration": 0.11590909090909074,
                "tempo": 120.0
            },
            {
                "start_time": 2.7886363636363636,
                "end_time": 2.9045454545454543,
                "pitch": 57,
                "velocity": 80,
                "duration": 0.11590909090909074,
                "tempo": 120.0
            },
            {
                "start_time": 2.9204545454545454,
                "end_time": 3.645454545454545,
                "pitch": 64,
                "velocity": 80,
                "duration": 0.7249999999999996,
                "tempo": 120.0
            },
            {
                "start_time": 3.6772727272727272,
                "end_time": 4.8568181818181815,
                "pitch": 57,
                "velocity": 80,
                "duration": 1.1795454545454542,
                "tempo": 120.0
            },
            {
                "start_time": 4.888636363636364,
                "end_time": 5.006818181818182,
                "pitch": 50,
                "velocity": 80,
                "duration": 0.11818181818181817,
                "tempo": 120.0
            },
            {
                "start_time": 5.0227272727272725,
                "end_time": 5.138636363636364,
                "pitch": 53,
                "velocity": 80,
                "duration": 0.11590909090909118,
                "tempo": 120.0
            },
            {
                "start_time": 5.206818181818181,
                "end_time": 5.322727272727272,
                "pitch": 57,
                "velocity": 80,
                "duration": 0.11590909090909118,
                "tempo": 120.0
            },
            {
                "start_time": 5.338636363636363,
                "end_time": 6.811363636363636,
                "pitch": 56,
                "velocity": 80,
                "duration": 1.4727272727272727,
                "tempo": 120.0
            },
            {
                "start_time": 6.829545454545454,
                "end_time": 6.945454545454545,
                "pitch": 57,
                "velocity": 80,
                "duration": 0.11590909090909118,
                "tempo": 120.0
            },
            {
                "start_time": 7.011363636363636,
                "end_time": 7.129545454545454,
                "pitch": 56,
                "velocity": 80,
                "duration": 0.11818181818181817,
                "tempo": 120.0
            },
            {
                "start_time": 7.1454545454545455,
                "end_time": 7.263636363636364,
                "pitch": 55,
                "velocity": 80,
                "duration": 0.11818181818181817,
                "tempo": 120.0
            },
            {
                "start_time": 7.295454545454545,
                "end_time": 7.413636363636363,
                "pitch": 50,
                "velocity": 80,
                "duration": 0.11818181818181817,
                "tempo": 120.0
            },
            {
                "start_time": 7.431818181818182,
                "end_time": 7.547727272727272,
                "pitch": 53,
                "velocity": 80,
                "duration": 0.1159090909090903,
                "tempo": 120.0
            },
            {
                "start_time": 7.61590909090909,
                "end_time": 7.7340909090909085,
                "pitch": 57,
                "velocity": 80,
                "duration": 0.11818181818181817,
                "tempo": 120.0
            },
            {
                "start_time": 7.75,
                "end_time": 8.468181818181817,
                "pitch": 64,
                "velocity": 80,
                "duration": 0.7181818181818169,
                "tempo": 120.0
            },
            {
                "start_time": 8.502272727272727,
                "end_time": 9.674999999999999,
                "pitch": 57,
                "velocity": 80,
                "duration": 1.172727272727272,
                "tempo": 120.0
            },
            {
                "start_time": 9.706818181818182,
                "end_time": 10.14090909090909,
                "pitch": 56,
                "velocity": 80,
                "duration": 0.43409090909090864,
                "tempo": 120.0
            },
            {
                "start_time": 10.156818181818181,
                "end_time": 10.556818181818182,
                "pitch": 61,
                "velocity": 80,
                "duration": 0.40000000000000036,
                "tempo": 120.0
            },
            {
                "start_time": 10.625,
                "end_time": 10.875,
                "pitch": 62,
                "velocity": 80,
                "duration": 0.25,
                "tempo": 120.0
            },
            {
                "start_time": 10.909090909090908,
                "end_time": 11.345454545454546,
                "pitch": 57,
                "velocity": 80,
                "duration": 0.4363636363636374,
                "tempo": 120.0
            },
            {
                "start_time": 11.363636363636363,
                "end_time": 12.079545454545453,
                "pitch": 56,
                "velocity": 80,
                "duration": 0.7159090909090899,
                "tempo": 120.0
            },
            {
                "start_time": 12.113636363636363,
                "end_time": 12.547727272727272,
                "pitch": 57,
                "velocity": 80,
                "duration": 0.43409090909090864,
                "tempo": 120.0
            },
            {
                "start_time": 12.563636363636363,
                "end_time": 12.963636363636363,
                "pitch": 61,
                "velocity": 80,
                "duration": 0.40000000000000036,
                "tempo": 120.0
            },
            {
                "start_time": 13.029545454545454,
                "end_time": 13.279545454545454,
                "pitch": 62,
                "velocity": 80,
                "duration": 0.25,
                "tempo": 120.0
            },
            {
                "start_time": 13.313636363636363,
                "end_time": 13.747727272727271,
                "pitch": 56,
                "velocity": 80,
                "duration": 0.43409090909090864,
                "tempo": 120.0
            },
            {
                "start_time": 13.763636363636364,
                "end_time": 14.486363636363636,
                "pitch": 57,
                "velocity": 80,
                "duration": 0.7227272727272727,
                "tempo": 120.0
            },
            {
                "start_time": 14.520454545454545,
                "end_time": 14.636363636363635,
                "pitch": 50,
                "velocity": 80,
                "duration": 0.1159090909090903,
                "tempo": 120.0
            },
            {
                "start_time": 14.652272727272727,
                "end_time": 14.770454545454545,
                "pitch": 53,
                "velocity": 80,
                "duration": 0.11818181818181728,
                "tempo": 120.0
            },
            {
                "start_time": 14.836363636363636,
                "end_time": 14.952272727272726,
                "pitch": 57,
                "velocity": 80,
                "duration": 0.1159090909090903,
                "tempo": 120.0
            },
            {
                "start_time": 14.970454545454544,
                "end_time": 16.436363636363634,
                "pitch": 56,
                "velocity": 80,
                "duration": 1.46590909090909,
                "tempo": 120.0
            },
            {
                "start_time": 16.452272727272728,
                "end_time": 16.570454545454545,
                "pitch": 57,
                "velocity": 80,
                "duration": 0.11818181818181728,
                "tempo": 120.0
            },
            {
                "start_time": 16.636363636363637,
                "end_time": 16.752272727272725,
                "pitch": 56,
                "velocity": 80,
                "duration": 0.11590909090908852,
                "tempo": 120.0
            },
            {
                "start_time": 16.770454545454545,
                "end_time": 16.886363636363637,
                "pitch": 55,
                "velocity": 80,
                "duration": 0.11590909090909207,
                "tempo": 120.0
            },
            {
                "start_time": 16.920454545454543,
                "end_time": 17.038636363636364,
                "pitch": 50,
                "velocity": 80,
                "duration": 0.11818181818182083,
                "tempo": 120.0
            },
            {
                "start_time": 17.054545454545455,
                "end_time": 17.172727272727272,
                "pitch": 53,
                "velocity": 80,
                "duration": 0.11818181818181728,
                "tempo": 120.0
            },
            {
                "start_time": 17.24090909090909,
                "end_time": 17.35909090909091,
                "pitch": 57,
                "velocity": 80,
                "duration": 0.11818181818182083,
                "tempo": 120.0
            },
            {
                "start_time": 17.375,
                "end_time": 18.09318181818182,
                "pitch": 64,
                "velocity": 80,
                "duration": 0.7181818181818187,
                "tempo": 120.0
            },
            {
                "start_time": 18.127272727272725,
                "end_time": 19.304545454545455,
                "pitch": 57,
                "velocity": 80,
                "duration": 1.1772727272727295,
                "tempo": 120.0
            },
            {
                "start_time": 19.33863636363636,
                "end_time": 21.71818181818182,
                "pitch": 69,
                "velocity": 80,
                "duration": 2.3795454545454575,
                "tempo": 120.0
            },
            {
                "start_time": 22.956818181818182,
                "end_time": 23.395454545454545,
                "pitch": 72,
                "velocity": 80,
                "duration": 0.4386363636363626,
                "tempo": 120.0
            },
            {
                "start_time": 23.411363636363635,
                "end_time": 23.811363636363634,
                "pitch": 69,
                "velocity": 80,
                "duration": 0.3999999999999986,
                "tempo": 120.0
            },
            {
                "start_time": 23.879545454545454,
                "end_time": 24.129545454545454,
                "pitch": 67,
                "velocity": 80,
                "duration": 0.25,
                "tempo": 120.0
            },
            {
                "start_time": 24.163636363636364,
                "end_time": 26.547727272727272,
                "pitch": 64,
                "velocity": 80,
                "duration": 2.384090909090908,
                "tempo": 120.0
            },
            {
                "start_time": 26.579545454545453,
                "end_time": 27.754545454545454,
                "pitch": 62,
                "velocity": 80,
                "duration": 1.1750000000000007,
                "tempo": 120.0
            },
            {
                "start_time": 27.786363636363635,
                "end_time": 28.959090909090907,
                "pitch": 59,
                "velocity": 80,
                "duration": 1.172727272727272,
                "tempo": 120.0
            },
            {
                "start_time": 28.993181818181817,
                "end_time": 31.377272727272725,
                "pitch": 69,
                "velocity": 80,
                "duration": 2.384090909090908,
                "tempo": 120.0
            },
            {
                "start_time": 32.61590909090909,
                "end_time": 33.05,
                "pitch": 72,
                "velocity": 80,
                "duration": 0.4340909090909051,
                "tempo": 120.0
            },
            {
                "start_time": 33.06590909090909,
                "end_time": 33.470454545454544,
                "pitch": 69,
                "velocity": 80,
                "duration": 0.4045454545454561,
                "tempo": 120.0
            },
            {
                "start_time": 33.53636363636363,
                "end_time": 33.79090909090909,
                "pitch": 67,
                "velocity": 80,
                "duration": 0.2545454545454575,
                "tempo": 120.0
            },
            {
                "start_time": 33.82272727272727,
                "end_time": 35.002272727272725,
                "pitch": 64,
                "velocity": 80,
                "duration": 1.1795454545454547,
                "tempo": 120.0
            },
            {
                "start_time": 35.03409090909091,
                "end_time": 36.20909090909091,
                "pitch": 62,
                "velocity": 80,
                "duration": 1.1750000000000043,
                "tempo": 120.0
            },
            {
                "start_time": 36.24090909090909,
                "end_time": 37.42045454545455,
                "pitch": 59,
                "velocity": 80,
                "duration": 1.1795454545454547,
                "tempo": 120.0
            },
            {
                "start_time": 37.45454545454545,
                "end_time": 38.574999999999996,
                "pitch": 57,
                "velocity": 80,
                "duration": 1.1204545454545425,
                "tempo": 120.0
            }
        ]
    }
}